0, 0, Header, 1, 16, 480
1, 0, Start_track
1, 0, Title_t, "BWV1048A.MID"
1, 0, SMPTE_offset, 96, 0, 0, 0, 0
1, 0, Tempo, 645161
1, 0, Marker_t, "Brandenburg3-1"
1, 0, Key_signature, -6, "major"
1, 0, Time_signature, 4, 2, 24, 8
1, 3360, Tempo, 731707
1, 3840, Tempo, 645161
1, 16200, Tempo, 749860
1, 16440, Tempo, 645161
1, 19080, Tempo, 749860
1, 19200, Tempo, 645161
1, 32520, Tempo, 749860
1, 32640, Tempo, 645161
1, 38160, Tempo, 681818
1, 38400, Tempo, 645161
1, 57600, Tempo, 707733
1, 57840, Tempo, 645161
1, 78720, Tempo, 707733
1, 78960, Tempo, 645161
1, 82440, Tempo, 749860
1, 82560, Tempo, 645161
1, 89280, Tempo, 749860
1, 89520, Tempo, 645161
1, 144960, Tempo, 749860
1, 145200, Tempo, 645161
1, 151200, Tempo, 692178
1, 151800, Tempo, 645161
1, 166920, Tempo, 749860
1, 167040, Tempo, 645161
1, 220800, Key_signature, 3, "minor"
1, 241680, Tempo, 749860
1, 242160, Tempo, 645161
1, 243600, Tempo, 749860
1, 243840, Tempo, 645161
1, 243840, Key_signature, -6, "major"
1, 249480, Tempo, 749860
1, 249600, Tempo, 645161
1, 256320, Tempo, 749860
1, 256560, Tempo, 645161
1, 260040, Tempo, 749860
1, 260280, Tempo, 645161
1, 262080, Tempo, 750000
1, 262200, Tempo, 645161
1, 263040, Tempo, 732422
1, 263520, Tempo, 839844
1, 263760, Tempo, 1166450
1, 265440, Tempo, 1293254
1, 265440, Tempo, 250000
1, 266880, End_track
2, 0, Start_track
2, 0, Instrument_name_t, "SC88-A"
2, 0, Title_t, "init"
2, 0, System_exclusive, 10, 65, 16, 66, 18, 64, 0, 127, 0, 65, 247
2, 780, Control_c, 0, 121, 0
2, 780, Control_c, 1, 121, 0
2, 780, Control_c, 2, 121, 0
2, 780, Control_c, 3, 121, 0
2, 780, Control_c, 4, 121, 0
2, 780, Control_c, 5, 121, 0
2, 780, Control_c, 6, 121, 0
2, 780, Control_c, 7, 121, 0
2, 780, Control_c, 8, 121, 0
2, 780, Control_c, 9, 121, 0
2, 780, Control_c, 10, 121, 0
2, 780, Control_c, 11, 121, 0
2, 780, Control_c, 12, 121, 0
2, 780, Control_c, 13, 121, 0
2, 780, Control_c, 14, 121, 0
2, 780, Control_c, 15, 121, 0
2, 790, System_exclusive, 10, 65, 16, 66, 18, 64, 0, 4, 127, 61, 247
2, 810, System_exclusive, 10, 65, 16, 66, 18, 64, 1, 48, 3, 12, 247
2, 830, System_exclusive, 10, 65, 16, 66, 18, 64, 1, 51, 95, 45, 247
2, 1490, Text_t, "Tuning"
2, 1492, System_exclusive, 21, 65, 16, 66, 18, 64, 17, 64, 64, 72, 68, 76, 66, 68, 70, 66, 74, 64, 72, 68, 51, 247
2, 1493, System_exclusive, 21, 65, 16, 66, 18, 64, 18, 64, 64, 72, 68, 76, 66, 68, 70, 66, 74, 64, 72, 68, 50, 247
2, 1494, System_exclusive, 21, 65, 16, 66, 18, 64, 19, 64, 64, 72, 68, 76, 66, 68, 70, 66, 74, 64, 72, 68, 49, 247
2, 1495, System_exclusive, 21, 65, 16, 66, 18, 64, 20, 64, 64, 72, 68, 76, 66, 68, 70, 66, 74, 64, 72, 68, 48, 247
2, 1496, System_exclusive, 21, 65, 16, 66, 18, 64, 21, 64, 64, 72, 68, 76, 66, 68, 70, 66, 74, 64, 72, 68, 47, 247
2, 1497, System_exclusive, 21, 65, 16, 66, 18, 64, 22, 64, 64, 72, 68, 76, 66, 68, 70, 66, 74, 64, 72, 68, 46, 247
2, 1498, System_exclusive, 21, 65, 16, 66, 18, 64, 23, 64, 64, 72, 68, 76, 66, 68, 70, 66, 74, 64, 72, 68, 45, 247
2, 1499, System_exclusive, 21, 65, 16, 66, 18, 64, 24, 64, 64, 72, 68, 76, 66, 68, 70, 66, 74, 64, 72, 68, 44, 247
2, 1501, System_exclusive, 21, 65, 16, 66, 18, 64, 25, 64, 64, 72, 68, 76, 66, 68, 70, 66, 74, 64, 72, 68, 43, 247
2, 1502, System_exclusive, 21, 65, 16, 66, 18, 64, 16, 64, 64, 72, 68, 76, 66, 68, 70, 66, 74, 64, 72, 68, 52, 247
2, 1503, System_exclusive, 21, 65, 16, 66, 18, 64, 26, 64, 64, 72, 68, 76, 66, 68, 70, 66, 74, 64, 72, 68, 42, 247
2, 1504, System_exclusive, 21, 65, 16, 66, 18, 64, 27, 64, 64, 72, 68, 76, 66, 68, 70, 66, 74, 64, 72, 68, 41, 247
2, 1505, System_exclusive, 21, 65, 16, 66, 18, 64, 28, 64, 64, 72, 68, 76, 66, 68, 70, 66, 74, 64, 72, 68, 40, 247
2, 1506, System_exclusive, 21, 65, 16, 66, 18, 64, 29, 64, 64, 72, 68, 76, 66, 68, 70, 66, 74, 64, 72, 68, 39, 247
2, 1507, System_exclusive, 21, 65, 16, 66, 18, 64, 30, 64, 64, 72, 68, 76, 66, 68, 70, 66, 74, 64, 72, 68, 38, 247
2, 1508, System_exclusive, 21, 65, 16, 66, 18, 64, 31, 64, 64, 72, 68, 76, 66, 68, 70, 66, 74, 64, 72, 68, 37, 247
2, 266880, End_track
3, 0, Start_track
3, 0, Instrument_name_t, "SC88-A"
3, 0, Title_t, "Violino.1"
3, 1440, Control_c, 1, 101, 0
3, 1450, Control_c, 1, 100, 0
3, 1450, Control_c, 1, 6, 0
3, 1470, Control_c, 1, 0, 0
3, 1480, Control_c, 1, 32, 1
3, 1490, Program_c, 1, 40
3, 1500, Control_c, 1, 10, 29
3, 1510, Control_c, 1, 11, 100
3, 1520, Control_c, 1, 7, 125
3, 1530, Control_c, 1, 93, 0
3, 1540, Control_c, 1, 91, 0
3, 1550, Pitch_bend_c, 1, 8192
3, 1560, Control_c, 1, 1, 0
3, 1570, Control_c, 1, 64, 0
3, 1580, Control_c, 1, 91, 64
3, 1590, Control_c, 1, 99, 1
3, 1600, Control_c, 1, 98, 32
3, 1610, Control_c, 1, 6, 75
3, 1620, Control_c, 1, 98, 33
3, 1630, Control_c, 1, 6, 60
3, 1640, Control_c, 1, 98, 99
3, 1650, Control_c, 1, 6, 64
3, 1660, Control_c, 1, 98, 100
3, 1670, Control_c, 1, 6, 64
3, 1680, Control_c, 1, 98, 102
3, 1690, Control_c, 1, 6, 64
3, 3604, Note_on_c, 1, 66, 127
3, 3694, Note_off_c, 1, 66, 64
3, 3717, Note_on_c, 1, 65, 83
3, 3807, Note_off_c, 1, 65, 64
3, 3832, Control_c, 1, 11, 98
3, 3839, Note_on_c, 1, 66, 88
3, 3881, Control_c, 1, 11, 90
3, 3930, Control_c, 1, 11, 82
3, 3979, Control_c, 1, 11, 74
3, 3989, Note_off_c, 1, 66, 64
3, 4044, Control_c, 1, 11, 100
3, 4084, Note_on_c, 1, 61, 118
3, 4174, Note_off_c, 1, 61, 64
3, 4197, Note_on_c, 1, 59, 83
3, 4287, Note_off_c, 1, 59, 64
3, 4313, Note_on_c, 1, 61, 88
3, 4324, Control_c, 1, 11, 96
3, 4370, Control_c, 1, 11, 87
3, 4417, Control_c, 1, 11, 78
3, 4463, Note_off_c, 1, 61, 64
3, 4463, Control_c, 1, 11, 70
3, 4512, Control_c, 1, 11, 100
3, 4564, Note_on_c, 1, 66, 120
3, 4654, Note_off_c, 1, 66, 64
3, 4677, Note_on_c, 1, 65, 79
3, 4767, Note_off_c, 1, 65, 64
3, 4800, Control_c, 1, 11, 96
3, 4810, Note_on_c, 1, 66, 88
3, 4842, Control_c, 1, 11, 88
3, 4885, Control_c, 1, 11, 81
3, 4927, Control_c, 1, 11, 74
3, 4960, Note_off_c, 1, 66, 64
3, 4992, Control_c, 1, 11, 100
3, 5044, Note_on_c, 1, 58, 120
3, 5134, Note_off_c, 1, 58, 64
3, 5157, Note_on_c, 1, 56, 85
3, 5247, Note_off_c, 1, 56, 64
3, 5257, Note_on_c, 1, 58, 88
3, 5272, Control_c, 1, 11, 96
3, 5318, Control_c, 1, 11, 86
3, 5365, Control_c, 1, 11, 76
3, 5407, Note_off_c, 1, 58, 64
3, 5411, Control_c, 1, 11, 66
3, 5412, Control_c, 1, 11, 70
3, 5456, Control_c, 1, 11, 100
3, 5524, Note_on_c, 1, 66, 127
3, 5614, Note_off_c, 1, 66, 64
3, 5637, Note_on_c, 1, 65, 70
3, 5727, Note_off_c, 1, 65, 64
3, 5756, Note_on_c, 1, 66, 81
3, 5760, Control_c, 1, 11, 98
3, 5802, Control_c, 1, 11, 90
3, 5845, Control_c, 1, 11, 83
3, 5887, Control_c, 1, 11, 76
3, 5906, Note_off_c, 1, 66, 64
3, 5952, Control_c, 1, 11, 100
3, 6004, Note_on_c, 1, 54, 127
3, 6094, Note_off_c, 1, 54, 64
3, 6117, Note_on_c, 1, 56, 101
3, 6207, Note_off_c, 1, 56, 64
3, 6220, Note_on_c, 1, 58, 124
3, 6228, Control_c, 1, 11, 98
3, 6270, Control_c, 1, 11, 91
3, 6312, Control_c, 1, 11, 85
3, 6354, Control_c, 1, 11, 78
3, 6370, Note_off_c, 1, 58, 64
3, 6395, Control_c, 1, 11, 72
3, 6424, Control_c, 1, 11, 100
3, 6466, Note_on_c, 1, 60, 127
3, 6563, Note_off_c, 1, 60, 64
3, 6700, Control_c, 1, 11, 86
3, 6724, Note_on_c, 1, 61, 127
3, 6754, Control_c, 1, 11, 92
3, 6807, Control_c, 1, 11, 100
3, 6832, Note_on_c, 1, 60, 108
3, 6846, Note_off_c, 1, 61, 64
3, 6944, Note_off_c, 1, 60, 64
3, 6958, Note_on_c, 1, 61, 94
3, 7047, Note_off_c, 1, 61, 64
3, 7074, Note_on_c, 1, 63, 115
3, 7155, Note_off_c, 1, 63, 64
3, 7198, Note_on_c, 1, 61, 114
3, 7292, Note_off_c, 1, 61, 64
3, 7316, Note_on_c, 1, 65, 114
3, 7389, Note_off_c, 1, 65, 64
3, 7429, Note_on_c, 1, 61, 99
3, 7521, Note_off_c, 1, 61, 64
3, 7535, Note_on_c, 1, 66, 114
3, 7615, Note_off_c, 1, 66, 64
3, 7687, Note_on_c, 1, 61, 123
3, 7805, Note_on_c, 1, 60, 99
3, 7812, Note_off_c, 1, 61, 64
3, 7911, Note_off_c, 1, 60, 64
3, 7925, Note_on_c, 1, 61, 94
3, 8016, Note_off_c, 1, 61, 64
3, 8039, Note_on_c, 1, 63, 115
3, 8116, Note_off_c, 1, 63, 64
3, 8153, Note_on_c, 1, 61, 122
3, 8248, Note_off_c, 1, 61, 64
3, 8267, Note_on_c, 1, 68, 122
3, 8342, Note_off_c, 1, 68, 64
3, 8386, Note_on_c, 1, 61, 104
3, 8473, Note_off_c, 1, 61, 64
3, 8495, Note_on_c, 1, 70, 122
3, 8573, Note_off_c, 1, 70, 64
3, 8640, Note_on_c, 1, 61, 127
3, 8762, Note_on_c, 1, 60, 88
3, 8770, Note_off_c, 1, 61, 64
3, 8855, Note_off_c, 1, 60, 64
3, 8876, Note_on_c, 1, 61, 94
3, 8960, Note_off_c, 1, 61, 64
3, 8992, Note_on_c, 1, 63, 127
3, 9060, Note_off_c, 1, 63, 64
3, 9108, Note_on_c, 1, 61, 119
3, 9213, Note_off_c, 1, 61, 64
3, 9227, Note_on_c, 1, 71, 127
3, 9315, Note_off_c, 1, 71, 64
3, 9340, Note_on_c, 1, 61, 108
3, 9418, Note_off_c, 1, 61, 64
3, 9450, Note_on_c, 1, 73, 121
3, 9535, Note_off_c, 1, 73, 64
3, 9560, Control_c, 1, 11, 66
3, 9568, Control_c, 1, 11, 72
3, 9590, Note_on_c, 1, 70, 127
3, 9593, Control_c, 1, 11, 73
3, 9618, Control_c, 1, 11, 79
3, 9642, Control_c, 1, 11, 86
3, 9667, Control_c, 1, 11, 92
3, 9692, Control_c, 1, 11, 99
3, 9717, Control_c, 1, 11, 105
3, 9732, Control_c, 1, 11, 110
3, 9764, Control_c, 1, 11, 96
3, 9796, Control_c, 1, 11, 82
3, 9811, Note_off_c, 1, 70, 64
3, 9827, Control_c, 1, 11, 68
3, 9841, Control_c, 1, 11, 100
3, 9844, Note_on_c, 1, 68, 126
3, 9934, Note_off_c, 1, 68, 64
3, 9957, Note_on_c, 1, 66, 106
3, 10047, Note_off_c, 1, 66, 64
3, 10065, Control_c, 1, 11, 66
3, 10076, Note_on_c, 1, 68, 118
3, 10090, Control_c, 1, 11, 72
3, 10114, Control_c, 1, 11, 79
3, 10139, Control_c, 1, 11, 85
3, 10164, Control_c, 1, 11, 92
3, 10189, Control_c, 1, 11, 100
3, 10200, Control_c, 1, 11, 108
3, 10232, Control_c, 1, 11, 96
3, 10264, Control_c, 1, 11, 84
3, 10273, Note_off_c, 1, 68, 64
3, 10295, Control_c, 1, 11, 72
3, 10313, Control_c, 1, 11, 100
3, 10324, Note_on_c, 1, 66, 116
3, 10414, Note_off_c, 1, 66, 64
3, 10437, Note_on_c, 1, 65, 91
3, 10527, Note_off_c, 1, 65, 64
3, 10537, Control_c, 1, 11, 76
3, 10559, Note_on_c, 1, 66, 100
3, 10562, Control_c, 1, 11, 82
3, 10586, Control_c, 1, 11, 88
3, 10611, Control_c, 1, 11, 94
3, 10636, Control_c, 1, 11, 101
3, 10661, Control_c, 1, 11, 107
3, 10686, Control_c, 1, 11, 113
3, 10711, Control_c, 1, 11, 105
3, 10735, Control_c, 1, 11, 93
3, 10760, Control_c, 1, 11, 86
3, 10774, Note_off_c, 1, 66, 64
3, 10785, Control_c, 1, 11, 98
3, 10804, Note_on_c, 1, 65, 116
3, 10810, Control_c, 1, 11, 100
3, 10894, Note_off_c, 1, 65, 64
3, 10917, Note_on_c, 1, 63, 93
3, 11007, Note_off_c, 1, 63, 64
3, 11045, Note_on_c, 1, 61, 121
3, 11146, Note_off_c, 1, 61, 64
3, 11165, Note_on_c, 1, 66, 94
3, 11248, Note_off_c, 1, 66, 64
3, 11284, Note_on_c, 1, 61, 115
3, 11359, Note_off_c, 1, 61, 64
3, 11387, Note_on_c, 1, 66, 99
3, 11458, Note_off_c, 1, 66, 64
3, 11505, Control_c, 1, 11, 74
3, 11516, Note_on_c, 1, 63, 124
3, 11530, Control_c, 1, 11, 80
3, 11555, Control_c, 1, 11, 87
3, 11580, Control_c, 1, 11, 93
3, 11605, Control_c, 1, 11, 100
3, 11630, Control_c, 1, 11, 106
3, 11654, Control_c, 1, 11, 113
3, 11679, Control_c, 1, 11, 102
3, 11704, Control_c, 1, 11, 94
3, 11726, Note_off_c, 1, 63, 64
3, 11729, Control_c, 1, 11, 89
3, 11756, Control_c, 1, 11, 100
3, 11768, Note_on_c, 1, 61, 116
3, 11858, Note_off_c, 1, 61, 64
3, 11877, Note_on_c, 1, 59, 81
3, 11967, Note_off_c, 1, 59, 64
3, 11993, Note_on_c, 1, 58, 111
3, 12107, Note_off_c, 1, 58, 64
3, 12134, Note_on_c, 1, 66, 88
3, 12203, Note_off_c, 1, 66, 64
3, 12238, Note_on_c, 1, 58, 107
3, 12332, Note_off_c, 1, 58, 64
3, 12351, Note_on_c, 1, 66, 105
3, 12418, Note_off_c, 1, 66, 64
3, 12440, Control_c, 1, 11, 100
3, 12468, Note_on_c, 1, 59, 124
3, 12488, Control_c, 1, 11, 106
3, 12536, Control_c, 1, 11, 112
3, 12583, Control_c, 1, 11, 118
3, 12600, Control_c, 1, 11, 102
3, 12642, Control_c, 1, 11, 90
3, 12683, Note_off_c, 1, 59, 64
3, 12683, Control_c, 1, 11, 78
3, 12696, Control_c, 1, 11, 100
3, 12728, Note_on_c, 1, 58, 120
3, 12818, Note_off_c, 1, 58, 64
3, 12825, Note_on_c, 1, 56, 87
3, 12903, Note_off_c, 1, 56, 64
3, 12942, Note_on_c, 1, 54, 110
3, 13046, Note_off_c, 1, 54, 64
3, 13077, Note_on_c, 1, 66, 79
3, 13143, Note_off_c, 1, 66, 64
3, 13192, Note_on_c, 1, 56, 96
3, 13302, Note_off_c, 1, 56, 64
3, 13314, Note_on_c, 1, 66, 83
3, 13398, Note_off_c, 1, 66, 64
3, 13440, Note_on_c, 1, 58, 116
3, 13541, Note_off_c, 1, 58, 64
3, 13556, Note_on_c, 1, 66, 93
3, 13621, Note_off_c, 1, 66, 64
3, 13673, Note_on_c, 1, 60, 121
3, 13750, Note_off_c, 1, 60, 64
3, 13791, Note_on_c, 1, 66, 94
3, 13863, Note_off_c, 1, 66, 64
3, 13912, Note_on_c, 1, 61, 112
3, 14020, Note_off_c, 1, 61, 64
3, 14027, Note_on_c, 1, 65, 102
3, 14100, Note_off_c, 1, 65, 64
3, 14147, Note_on_c, 1, 61, 104
3, 14250, Note_off_c, 1, 61, 64
3, 14266, Note_on_c, 1, 66, 114
3, 14343, Note_off_c, 1, 66, 64
3, 14387, Note_on_c, 1, 61, 108
3, 14489, Note_off_c, 1, 61, 64
3, 14511, Note_on_c, 1, 68, 124
3, 14586, Note_off_c, 1, 68, 64
3, 14630, Note_on_c, 1, 61, 124
3, 14721, Note_off_c, 1, 61, 64
3, 14741, Note_on_c, 1, 70, 124
3, 14827, Note_off_c, 1, 70, 64
3, 14870, Note_on_c, 1, 61, 124
3, 14966, Note_off_c, 1, 61, 64
3, 14983, Note_on_c, 1, 71, 124
3, 15068, Note_off_c, 1, 71, 64
3, 15113, Note_on_c, 1, 61, 115
3, 15201, Note_off_c, 1, 61, 64
3, 15226, Note_on_c, 1, 73, 127
3, 15303, Note_off_c, 1, 73, 64
3, 15332, Control_c, 1, 11, 96
3, 15354, Note_on_c, 1, 70, 127
3, 15373, Control_c, 1, 11, 104
3, 15414, Control_c, 1, 11, 113
3, 15455, Control_c, 1, 11, 122
3, 15480, Control_c, 1, 11, 116
3, 15524, Control_c, 1, 11, 105
3, 15565, Note_off_c, 1, 70, 64
3, 15567, Control_c, 1, 11, 94
3, 15588, Control_c, 1, 11, 100
3, 15608, Note_on_c, 1, 68, 118
3, 15698, Note_off_c, 1, 68, 64
3, 15705, Note_on_c, 1, 66, 114
3, 15795, Note_off_c, 1, 66, 64
3, 15833, Note_on_c, 1, 61, 114
3, 15929, Note_off_c, 1, 61, 64
3, 16074, Note_on_c, 1, 65, 121
3, 16175, Note_off_c, 1, 65, 64
3, 16308, Control_c, 1, 11, 94
3, 16324, Note_on_c, 1, 66, 127
3, 16343, Control_c, 1, 11, 100
3, 16378, Control_c, 1, 11, 106
3, 16413, Control_c, 1, 11, 113
3, 16436, Control_c, 1, 11, 114
3, 16480, Control_c, 1, 11, 101
3, 16523, Control_c, 1, 11, 88
3, 16540, Note_off_c, 1, 66, 64
3, 16552, Control_c, 1, 11, 100
3, 16565, Note_on_c, 1, 65, 126
3, 16651, Note_off_c, 1, 65, 64
3, 16683, Note_on_c, 1, 63, 92
3, 16764, Note_off_c, 1, 63, 64
3, 16795, Note_on_c, 1, 61, 118
3, 16881, Note_off_c, 1, 61, 64
3, 16903, Note_on_c, 1, 59, 107
3, 16977, Note_off_c, 1, 59, 64
3, 17018, Note_on_c, 1, 58, 106
3, 17087, Note_off_c, 1, 58, 64
3, 17130, Note_on_c, 1, 56, 92
3, 17199, Note_off_c, 1, 56, 64
3, 17248, Control_c, 1, 11, 88
3, 17276, Note_on_c, 1, 58, 124
3, 17289, Control_c, 1, 11, 95
3, 17330, Control_c, 1, 11, 102
3, 17371, Control_c, 1, 11, 110
3, 17411, Control_c, 1, 11, 118
3, 17412, Control_c, 1, 11, 118
3, 17450, Control_c, 1, 11, 112
3, 17489, Control_c, 1, 11, 106
3, 17504, Note_off_c, 1, 58, 64
3, 17527, Control_c, 1, 11, 100
3, 17536, Note_on_c, 1, 56, 112
3, 17625, Note_on_c, 1, 54, 76
3, 17626, Note_off_c, 1, 56, 64
3, 17715, Note_off_c, 1, 54, 64
3, 17751, Note_on_c, 1, 61, 95
3, 17837, Note_off_c, 1, 61, 64
3, 18003, Note_on_c, 1, 61, 101
3, 18065, Note_off_c, 1, 61, 64
3, 18212, Control_c, 1, 11, 90
3, 18251, Control_c, 1, 11, 96
3, 18254, Note_on_c, 1, 54, 95
3, 18290, Control_c, 1, 11, 102
3, 18330, Control_c, 1, 11, 108
3, 18369, Control_c, 1, 11, 114
3, 18408, Control_c, 1, 11, 120
3, 18447, Control_c, 1, 11, 127
3, 18472, Control_c, 1, 11, 126
3, 18516, Control_c, 1, 11, 112
3, 18560, Control_c, 1, 11, 98
3, 18593, Note_off_c, 1, 54, 64
3, 18603, Control_c, 1, 11, 84
3, 18648, Control_c, 1, 11, 100
3, 18964, Note_on_c, 1, 78, 103
3, 19060, Note_off_c, 1, 78, 64
3, 19077, Note_on_c, 1, 77, 77
3, 19173, Note_off_c, 1, 77, 64
3, 19194, Note_on_c, 1, 78, 89
3, 19206, Control_c, 1, 11, 100
3, 19252, Control_c, 1, 11, 92
3, 19298, Control_c, 1, 11, 84
3, 19343, Control_c, 1, 11, 76
3, 19359, Note_off_c, 1, 78, 64
3, 19390, Control_c, 1, 11, 72
3, 19418, Control_c, 1, 11, 78
3, 19444, Note_on_c, 1, 73, 100
3, 19447, Control_c, 1, 11, 85
3, 19476, Control_c, 1, 11, 92
3, 19504, Control_c, 1, 11, 100
3, 19534, Note_off_c, 1, 73, 64
3, 19557, Note_on_c, 1, 71, 75
3, 19647, Note_off_c, 1, 71, 64
3, 19676, Note_on_c, 1, 73, 62
3, 19686, Control_c, 1, 11, 100
3, 19730, Control_c, 1, 11, 92
3, 19774, Control_c, 1, 11, 84
3, 19817, Control_c, 1, 11, 76
3, 19844, Note_off_c, 1, 73, 64
3, 19938, Control_c, 1, 11, 100
3, 21360, Note_on_c, 1, 73, 119
3, 21436, Note_off_c, 1, 73, 64
3, 21599, Note_on_c, 1, 78, 121
3, 21699, Note_off_c, 1, 78, 64
3, 21724, Note_on_c, 1, 82, 121
3, 21826, Note_off_c, 1, 82, 64
3, 21837, Note_on_c, 1, 80, 114
3, 21928, Note_off_c, 1, 80, 64
3, 21951, Note_on_c, 1, 78, 100
3, 22032, Note_off_c, 1, 78, 64
3, 22073, Note_on_c, 1, 77, 113
3, 22195, Note_on_c, 1, 80, 78
3, 22198, Note_off_c, 1, 77, 64
3, 22287, Note_off_c, 1, 80, 64
3, 22315, Note_on_c, 1, 73, 93
3, 22408, Note_off_c, 1, 73, 64
3, 22428, Note_on_c, 1, 75, 75
3, 22517, Note_off_c, 1, 75, 64
3, 22547, Note_on_c, 1, 77, 99
3, 22661, Note_off_c, 1, 77, 64
3, 22666, Note_on_c, 1, 78, 81
3, 22766, Note_off_c, 1, 78, 64
3, 22785, Note_on_c, 1, 80, 85
3, 22884, Note_off_c, 1, 80, 64
3, 22898, Note_on_c, 1, 78, 90
3, 22999, Note_off_c, 1, 78, 64
3, 23029, Note_on_c, 1, 77, 55
3, 23036, Control_c, 1, 11, 100
3, 23090, Control_c, 1, 11, 110
3, 23136, Control_c, 1, 11, 116
3, 23156, Control_c, 1, 11, 112
3, 23206, Control_c, 1, 11, 93
3, 23249, Note_off_c, 1, 77, 64
3, 23255, Control_c, 1, 11, 74
3, 23272, Control_c, 1, 11, 112
3, 23278, Note_on_c, 1, 85, 86
3, 23312, Control_c, 1, 11, 105
3, 23352, Control_c, 1, 11, 99
3, 23392, Control_c, 1, 11, 92
3, 23419, Note_off_c, 1, 85, 64
3, 23431, Control_c, 1, 11, 86
3, 23464, Control_c, 1, 11, 100
3, 23747, Note_on_c, 1, 84, 78
3, 23764, Control_c, 1, 11, 92
3, 23806, Control_c, 1, 11, 86
3, 23849, Control_c, 1, 11, 80
3, 23871, Note_off_c, 1, 84, 64
3, 23891, Control_c, 1, 11, 74
3, 23928, Control_c, 1, 11, 100
3, 23988, Note_on_c, 1, 85, 74
3, 24004, Control_c, 1, 11, 94
3, 24046, Control_c, 1, 11, 86
3, 24089, Control_c, 1, 11, 78
3, 24131, Control_c, 1, 11, 70
3, 24148, Note_off_c, 1, 85, 64
3, 24164, Control_c, 1, 11, 86
3, 24180, Control_c, 1, 11, 100
3, 24233, Note_on_c, 1, 80, 65
3, 24327, Note_off_c, 1, 80, 64
3, 24466, Note_on_c, 1, 73, 57
3, 24564, Note_off_c, 1, 73, 64
3, 24713, Note_on_c, 1, 75, 78
3, 24815, Note_off_c, 1, 75, 64
3, 24928, Control_c, 1, 11, 94
3, 24960, Note_on_c, 1, 77, 117
3, 24970, Control_c, 1, 11, 102
3, 25013, Control_c, 1, 11, 111
3, 25055, Control_c, 1, 11, 120
3, 25096, Control_c, 1, 11, 118
3, 25136, Control_c, 1, 11, 101
3, 25175, Control_c, 1, 11, 84
3, 25183, Note_off_c, 1, 77, 64
3, 25196, Control_c, 1, 11, 100
3, 25208, Note_on_c, 1, 75, 101
3, 25298, Note_off_c, 1, 75, 64
3, 25317, Note_on_c, 1, 73, 86
3, 25407, Note_off_c, 1, 73, 64
3, 25420, Control_c, 1, 11, 90
3, 25443, Note_on_c, 1, 75, 117
3, 25461, Control_c, 1, 11, 99
3, 25502, Control_c, 1, 11, 108
3, 25543, Control_c, 1, 11, 118
3, 25560, Control_c, 1, 11, 110
3, 25606, Control_c, 1, 11, 97
3, 25645, Note_off_c, 1, 75, 64
3, 25651, Control_c, 1, 11, 84
3, 25676, Control_c, 1, 11, 100
3, 25684, Note_on_c, 1, 73, 107
3, 25774, Note_off_c, 1, 73, 64
3, 25797, Note_on_c, 1, 72, 86
3, 25887, Note_off_c, 1, 72, 64
3, 25908, Control_c, 1, 11, 86
3, 25920, Note_on_c, 1, 73, 95
3, 25962, Control_c, 1, 11, 96
3, 26015, Control_c, 1, 11, 108
3, 26036, Control_c, 1, 11, 110
3, 26078, Control_c, 1, 11, 92
3, 26112, Note_off_c, 1, 73, 64
3, 26119, Control_c, 1, 11, 74
3, 26136, Control_c, 1, 11, 100
3, 26164, Note_on_c, 1, 72, 104
3, 26254, Note_off_c, 1, 72, 64
3, 26277, Note_on_c, 1, 70, 82
3, 26367, Note_off_c, 1, 70, 64
3, 26397, Note_on_c, 1, 68, 112
3, 26501, Note_off_c, 1, 68, 64
3, 26517, Note_on_c, 1, 73, 85
3, 26598, Note_off_c, 1, 73, 64
3, 26628, Note_on_c, 1, 68, 92
3, 26716, Note_off_c, 1, 68, 64
3, 26739, Note_on_c, 1, 73, 91
3, 26815, Note_off_c, 1, 73, 64
3, 26856, Control_c, 1, 11, 92
3, 26878, Note_on_c, 1, 70, 107
3, 26896, Control_c, 1, 11, 102
3, 26936, Control_c, 1, 11, 113
3, 26975, Control_c, 1, 11, 124
3, 26992, Control_c, 1, 11, 110
3, 27038, Control_c, 1, 11, 95
3, 27083, Control_c, 1, 11, 80
3, 27099, Note_off_c, 1, 70, 64
3, 27116, Control_c, 1, 11, 100
3, 27124, Note_on_c, 1, 68, 89
3, 27214, Note_off_c, 1, 68, 64
3, 27237, Note_on_c, 1, 66, 91
3, 27327, Note_off_c, 1, 66, 64
3, 27356, Note_on_c, 1, 65, 106
3, 27458, Note_off_c, 1, 65, 64
3, 27477, Note_on_c, 1, 73, 85
3, 27544, Note_off_c, 1, 73, 64
3, 27591, Note_on_c, 1, 65, 84
3, 27679, Note_off_c, 1, 65, 64
3, 27702, Note_on_c, 1, 73, 82
3, 27783, Note_off_c, 1, 73, 64
3, 27812, Control_c, 1, 11, 90
3, 27835, Note_on_c, 1, 66, 106
3, 27853, Control_c, 1, 11, 100
3, 27894, Control_c, 1, 11, 111
3, 27935, Control_c, 1, 11, 122
3, 27964, Control_c, 1, 11, 110
3, 28012, Control_c, 1, 11, 97
3, 28048, Note_off_c, 1, 66, 64
3, 28059, Control_c, 1, 11, 84
3, 28084, Control_c, 1, 11, 100
3, 28094, Note_on_c, 1, 65, 96
3, 28184, Note_off_c, 1, 65, 64
3, 28197, Note_on_c, 1, 63, 70
3, 28287, Note_off_c, 1, 63, 64
3, 28310, Note_on_c, 1, 61, 91
3, 28443, Note_off_c, 1, 61, 64
3, 28444, Note_on_c, 1, 73, 82
3, 28517, Note_off_c, 1, 73, 64
3, 28562, Note_on_c, 1, 63, 84
3, 28661, Note_off_c, 1, 63, 64
3, 28675, Note_on_c, 1, 73, 90
3, 28747, Note_off_c, 1, 73, 64
3, 28800, Note_on_c, 1, 65, 106
3, 28895, Note_off_c, 1, 65, 64
3, 28917, Note_on_c, 1, 73, 91
3, 28989, Note_off_c, 1, 73, 64
3, 29035, Note_on_c, 1, 67, 112
3, 29133, Note_off_c, 1, 67, 64
3, 29155, Note_on_c, 1, 73, 91
3, 29238, Note_off_c, 1, 73, 64
3, 29278, Note_on_c, 1, 68, 112
3, 29393, Note_off_c, 1, 68, 64
3, 29397, Note_on_c, 1, 72, 90
3, 29478, Note_off_c, 1, 72, 64
3, 29519, Note_on_c, 1, 68, 109
3, 29616, Note_off_c, 1, 68, 64
3, 29637, Note_on_c, 1, 73, 94
3, 29714, Note_off_c, 1, 73, 64
3, 29757, Note_on_c, 1, 68, 106
3, 29869, Note_off_c, 1, 68, 64
3, 29869, Note_on_c, 1, 75, 98
3, 29951, Note_off_c, 1, 75, 64
3, 29996, Note_on_c, 1, 68, 110
3, 30105, Note_off_c, 1, 68, 64
3, 30107, Note_on_c, 1, 77, 100
3, 30188, Note_off_c, 1, 77, 64
3, 30233, Note_on_c, 1, 68, 116
3, 30342, Note_on_c, 1, 78, 104
3, 30355, Note_off_c, 1, 68, 64
3, 30421, Note_off_c, 1, 78, 64
3, 30472, Note_on_c, 1, 68, 120
3, 30571, Note_off_c, 1, 68, 64
3, 30571, Note_on_c, 1, 80, 127
3, 30655, Note_off_c, 1, 80, 64
3, 30700, Control_c, 1, 11, 90
3, 30719, Note_on_c, 1, 77, 110
3, 30738, Control_c, 1, 11, 101
3, 30777, Control_c, 1, 11, 113
3, 30815, Control_c, 1, 11, 126
3, 30840, Control_c, 1, 11, 120
3, 30884, Control_c, 1, 11, 102
3, 30927, Control_c, 1, 11, 84
3, 30941, Note_off_c, 1, 77, 64
3, 30956, Control_c, 1, 11, 100
3, 30968, Note_on_c, 1, 75, 104
3, 31058, Note_off_c, 1, 75, 64
3, 31077, Note_on_c, 1, 73, 86
3, 31153, Note_off_c, 1, 73, 64
3, 31185, Note_on_c, 1, 68, 94
3, 31282, Note_off_c, 1, 68, 64
3, 31441, Note_on_c, 1, 72, 100
3, 31525, Note_off_c, 1, 72, 64
3, 31656, Control_c, 1, 11, 88
3, 31684, Note_on_c, 1, 73, 80
3, 31698, Control_c, 1, 11, 97
3, 31740, Control_c, 1, 11, 106
3, 31782, Control_c, 1, 11, 116
3, 31823, Control_c, 1, 11, 126
3, 31860, Control_c, 1, 11, 118
3, 31904, Control_c, 1, 11, 103
3, 31948, Note_off_c, 1, 73, 64
3, 31948, Control_c, 1, 11, 88
3, 31991, Control_c, 1, 11, 74
3, 32008, Control_c, 1, 11, 100
3, 32404, Note_on_c, 1, 78, 95
3, 32494, Note_off_c, 1, 78, 64
3, 32514, Note_on_c, 1, 77, 73
3, 32604, Note_off_c, 1, 77, 64
3, 32634, Note_on_c, 1, 78, 67
3, 32646, Control_c, 1, 11, 100
3, 32692, Control_c, 1, 11, 92
3, 32738, Control_c, 1, 11, 84
3, 32783, Control_c, 1, 11, 76
3, 32784, Note_off_c, 1, 78, 64
3, 32832, Control_c, 1, 11, 100
3, 32884, Note_on_c, 1, 73, 93
3, 32974, Note_off_c, 1, 73, 64
3, 32997, Note_on_c, 1, 71, 66
3, 33087, Note_off_c, 1, 71, 64
3, 33108, Note_on_c, 1, 73, 67
3, 33126, Control_c, 1, 11, 100
3, 33174, Control_c, 1, 11, 89
3, 33222, Control_c, 1, 11, 78
3, 33269, Control_c, 1, 11, 68
3, 33276, Note_off_c, 1, 73, 64
3, 33366, Control_c, 1, 11, 100
3, 34804, Note_on_c, 1, 70, 126
3, 34894, Note_off_c, 1, 70, 64
3, 34917, Note_on_c, 1, 71, 96
3, 35007, Note_off_c, 1, 71, 64
3, 35032, Note_on_c, 1, 73, 98
3, 35132, Note_off_c, 1, 73, 64
3, 35276, Note_on_c, 1, 75, 92
3, 35360, Note_off_c, 1, 75, 64
3, 35516, Control_c, 1, 11, 96
3, 35518, Note_on_c, 1, 68, 94
3, 35560, Control_c, 1, 11, 86
3, 35604, Control_c, 1, 11, 77
3, 35647, Control_c, 1, 11, 68
3, 35676, Note_off_c, 1, 68, 64
3, 35712, Control_c, 1, 11, 100
3, 35764, Note_on_c, 1, 85, 68
3, 35854, Note_off_c, 1, 85, 64
3, 35877, Note_on_c, 1, 84, 43
3, 35967, Note_off_c, 1, 84, 64
3, 35997, Note_on_c, 1, 85, 51
3, 36006, Control_c, 1, 11, 98
3, 36049, Control_c, 1, 11, 91
3, 36093, Control_c, 1, 11, 84
3, 36136, Control_c, 1, 11, 77
3, 36147, Note_off_c, 1, 85, 64
3, 36179, Control_c, 1, 11, 70
3, 36258, Control_c, 1, 11, 100
3, 36724, Note_on_c, 1, 85, 60
3, 36814, Note_off_c, 1, 85, 64
3, 36837, Note_on_c, 1, 84, 40
3, 36927, Note_off_c, 1, 84, 64
3, 36966, Control_c, 1, 11, 100
3, 36968, Note_on_c, 1, 85, 50
3, 37012, Control_c, 1, 11, 93
3, 37059, Control_c, 1, 11, 87
3, 37105, Control_c, 1, 11, 80
3, 37118, Note_off_c, 1, 85, 64
3, 37151, Control_c, 1, 11, 74
3, 37218, Control_c, 1, 11, 100
3, 37684, Note_on_c, 1, 85, 67
3, 37774, Note_off_c, 1, 85, 64
3, 37797, Note_on_c, 1, 84, 51
3, 37887, Note_off_c, 1, 84, 64
3, 37920, Control_c, 1, 11, 100
3, 37922, Note_on_c, 1, 85, 46
3, 37966, Control_c, 1, 11, 93
3, 38013, Control_c, 1, 11, 87
3, 38059, Control_c, 1, 11, 80
3, 38072, Note_off_c, 1, 85, 64
3, 38105, Control_c, 1, 11, 74
3, 38142, Control_c, 1, 11, 100
3, 38643, Note_on_c, 1, 73, 108
3, 38765, Note_off_c, 1, 73, 64
3, 38879, Note_on_c, 1, 77, 107
3, 38888, Control_c, 1, 11, 100
3, 38928, Control_c, 1, 11, 90
3, 38968, Control_c, 1, 11, 80
3, 39007, Control_c, 1, 11, 70
3, 39012, Note_off_c, 1, 77, 64
3, 39076, Control_c, 1, 11, 100
3, 39115, Note_on_c, 1, 80, 100
3, 39229, Note_off_c, 1, 80, 64
3, 39360, Control_c, 1, 11, 102
3, 39360, Note_on_c, 1, 77, 102
3, 39409, Control_c, 1, 11, 90
3, 39458, Control_c, 1, 11, 78
3, 39507, Control_c, 1, 11, 66
3, 39526, Note_off_c, 1, 77, 64
3, 39556, Control_c, 1, 11, 100
3, 39598, Note_on_c, 1, 73, 108
3, 39703, Note_off_c, 1, 73, 64
3, 39839, Note_on_c, 1, 77, 98
3, 39955, Note_off_c, 1, 77, 64
3, 40075, Note_on_c, 1, 80, 100
3, 40190, Note_off_c, 1, 80, 64
3, 40320, Note_on_c, 1, 77, 87
3, 40332, Control_c, 1, 11, 98
3, 40372, Control_c, 1, 11, 88
3, 40412, Control_c, 1, 11, 79
3, 40451, Control_c, 1, 11, 70
3, 40489, Note_off_c, 1, 77, 64
3, 40516, Control_c, 1, 11, 100
3, 40561, Note_on_c, 1, 68, 114
3, 40584, Control_c, 1, 11, 98
3, 40638, Control_c, 1, 11, 86
3, 40691, Control_c, 1, 11, 74
3, 40692, Note_off_c, 1, 68, 64
3, 40744, Control_c, 1, 11, 100
3, 40801, Note_on_c, 1, 73, 126
3, 40892, Note_off_c, 1, 73, 64
3, 40916, Note_on_c, 1, 77, 108
3, 41003, Note_off_c, 1, 77, 64
3, 41031, Note_on_c, 1, 75, 120
3, 41111, Note_off_c, 1, 75, 64
3, 41151, Note_on_c, 1, 73, 94
3, 41227, Note_off_c, 1, 73, 64
3, 41248, Control_c, 1, 11, 88
3, 41268, Note_on_c, 1, 72, 56
3, 41290, Control_c, 1, 11, 94
3, 41332, Control_c, 1, 11, 100
3, 41374, Control_c, 1, 11, 107
3, 41415, Control_c, 1, 11, 114
3, 41449, Control_c, 1, 11, 100
3, 41486, Note_off_c, 1, 72, 64
3, 41498, Control_c, 1, 11, 87
3, 41547, Control_c, 1, 11, 74
3, 41580, Control_c, 1, 11, 100
3, 41998, Note_on_c, 1, 72, 57
3, 42046, Note_off_c, 1, 72, 64
3, 42224, Control_c, 1, 11, 86
3, 42241, Note_on_c, 1, 70, 56
3, 42263, Control_c, 1, 11, 94
3, 42302, Control_c, 1, 11, 102
3, 42341, Control_c, 1, 11, 111
3, 42379, Control_c, 1, 11, 120
3, 42408, Control_c, 1, 11, 102
3, 42456, Control_c, 1, 11, 83
3, 42478, Note_off_c, 1, 70, 64
3, 42503, Control_c, 1, 11, 64
3, 42524, Control_c, 1, 11, 100
3, 42961, Note_on_c, 1, 75, 78
3, 43048, Note_off_c, 1, 75, 64
3, 43194, Note_on_c, 1, 73, 106
3, 43301, Note_off_c, 1, 73, 64
3, 43310, Note_on_c, 1, 77, 71
3, 43395, Note_off_c, 1, 77, 64
3, 43431, Note_on_c, 1, 70, 97
3, 43528, Note_off_c, 1, 70, 64
3, 43550, Note_on_c, 1, 72, 78
3, 43638, Note_off_c, 1, 72, 64
3, 43672, Note_on_c, 1, 73, 106
3, 43790, Note_off_c, 1, 73, 64
3, 43795, Note_on_c, 1, 75, 102
3, 43899, Note_off_c, 1, 75, 64
3, 43918, Note_on_c, 1, 77, 116
3, 44011, Note_off_c, 1, 77, 64
3, 44027, Note_on_c, 1, 78, 105
3, 44122, Note_off_c, 1, 78, 64
3, 44148, Note_on_c, 1, 80, 127
3, 44156, Control_c, 1, 11, 100
3, 44197, Control_c, 1, 11, 90
3, 44238, Control_c, 1, 11, 81
3, 44279, Control_c, 1, 11, 72
3, 44298, Note_off_c, 1, 80, 64
3, 44332, Control_c, 1, 11, 100
3, 44396, Note_on_c, 1, 80, 118
3, 44508, Note_off_c, 1, 80, 64
3, 44622, Control_c, 1, 11, 94
3, 44633, Note_on_c, 1, 80, 108
3, 44660, Control_c, 1, 11, 99
3, 44698, Control_c, 1, 11, 105
3, 44735, Control_c, 1, 11, 112
3, 44766, Control_c, 1, 11, 106
3, 44805, Control_c, 1, 11, 94
3, 44836, Note_off_c, 1, 80, 64
3, 44843, Control_c, 1, 11, 82
3, 44874, Control_c, 1, 11, 100
3, 44884, Note_on_c, 1, 78, 127
3, 44974, Note_off_c, 1, 78, 64
3, 44997, Note_on_c, 1, 77, 102
3, 45087, Note_off_c, 1, 77, 64
3, 45112, Note_on_c, 1, 78, 98
3, 45132, Control_c, 1, 11, 100
3, 45171, Control_c, 1, 11, 94
3, 45210, Control_c, 1, 11, 88
3, 45249, Control_c, 1, 11, 82
3, 45262, Note_off_c, 1, 78, 64
3, 45287, Control_c, 1, 11, 76
3, 45330, Control_c, 1, 11, 100
3, 45357, Note_on_c, 1, 78, 114
3, 45465, Note_off_c, 1, 78, 64
3, 45576, Control_c, 1, 11, 88
3, 45593, Note_on_c, 1, 78, 102
3, 45614, Control_c, 1, 11, 94
3, 45652, Control_c, 1, 11, 101
3, 45689, Control_c, 1, 11, 108
3, 45720, Control_c, 1, 11, 104
3, 45759, Control_c, 1, 11, 96
3, 45797, Control_c, 1, 11, 88
3, 45814, Note_off_c, 1, 78, 64
3, 45822, Control_c, 1, 11, 100
3, 45844, Note_on_c, 1, 77, 127
3, 45934, Note_off_c, 1, 77, 64
3, 45957, Note_on_c, 1, 75, 95
3, 46047, Note_off_c, 1, 75, 64
3, 46076, Note_on_c, 1, 77, 122
3, 46092, Control_c, 1, 11, 100
3, 46132, Control_c, 1, 11, 94
3, 46173, Control_c, 1, 11, 88
3, 46213, Control_c, 1, 11, 82
3, 46253, Control_c, 1, 11, 76
3, 46291, Note_off_c, 1, 77, 64
3, 46296, Control_c, 1, 11, 100
3, 46324, Note_on_c, 1, 75, 114
3, 46414, Note_off_c, 1, 75, 64
3, 46437, Note_on_c, 1, 73, 86
3, 46527, Note_off_c, 1, 73, 64
3, 46562, Note_on_c, 1, 68, 90
3, 46638, Note_off_c, 1, 68, 64
3, 46795, Note_on_c, 1, 72, 94
3, 46859, Note_off_c, 1, 72, 64
3, 47040, Note_on_c, 1, 73, 110
3, 47156, Note_on_c, 1, 72, 73
3, 47174, Note_off_c, 1, 73, 64
3, 47275, Note_on_c, 1, 73, 83
3, 47279, Note_off_c, 1, 72, 64
3, 47378, Note_off_c, 1, 73, 64
3, 47394, Note_on_c, 1, 75, 100
3, 47480, Note_off_c, 1, 75, 64
3, 47512, Note_on_c, 1, 73, 103
3, 47619, Note_off_c, 1, 73, 64
3, 47631, Note_on_c, 1, 77, 92
3, 47710, Note_off_c, 1, 77, 64
3, 47752, Note_on_c, 1, 73, 94
3, 47827, Note_off_c, 1, 73, 64
3, 47864, Note_on_c, 1, 78, 83
3, 47942, Note_off_c, 1, 78, 64
3, 47996, Note_on_c, 1, 73, 100
3, 48116, Note_on_c, 1, 72, 61
3, 48126, Note_off_c, 1, 73, 64
3, 48231, Note_off_c, 1, 72, 64
3, 48236, Note_on_c, 1, 73, 80
3, 48333, Note_off_c, 1, 73, 64
3, 48352, Note_on_c, 1, 75, 90
3, 48442, Note_off_c, 1, 75, 64
3, 48477, Note_on_c, 1, 73, 101
3, 48584, Note_off_c, 1, 73, 64
3, 48597, Note_on_c, 1, 80, 81
3, 48682, Note_off_c, 1, 80, 64
3, 48717, Note_on_c, 1, 73, 84
3, 48790, Note_off_c, 1, 73, 64
3, 48828, Note_on_c, 1, 82, 91
3, 48916, Note_off_c, 1, 82, 64
3, 48960, Note_on_c, 1, 77, 111
3, 49077, Note_on_c, 1, 75, 80
3, 49082, Note_off_c, 1, 77, 64
3, 49198, Note_on_c, 1, 77, 61
3, 49205, Note_off_c, 1, 75, 64
3, 49294, Note_off_c, 1, 77, 64
3, 49314, Note_on_c, 1, 78, 87
3, 49412, Note_off_c, 1, 78, 64
3, 49437, Note_on_c, 1, 77, 106
3, 49547, Note_off_c, 1, 77, 64
3, 49561, Note_on_c, 1, 68, 81
3, 49636, Note_off_c, 1, 68, 64
3, 49681, Note_on_c, 1, 78, 90
3, 49778, Note_off_c, 1, 78, 64
3, 49793, Note_on_c, 1, 70, 89
3, 49876, Note_off_c, 1, 70, 64
3, 49923, Note_on_c, 1, 77, 101
3, 50044, Note_on_c, 1, 75, 80
3, 50060, Note_off_c, 1, 77, 64
3, 50162, Note_on_c, 1, 77, 69
3, 50177, Note_off_c, 1, 75, 64
3, 50250, Note_off_c, 1, 77, 64
3, 50276, Note_on_c, 1, 78, 86
3, 50367, Note_off_c, 1, 78, 64
3, 50397, Note_on_c, 1, 77, 110
3, 50500, Note_off_c, 1, 77, 64
3, 50514, Note_on_c, 1, 71, 82
3, 50596, Note_off_c, 1, 71, 64
3, 50634, Note_on_c, 1, 78, 86
3, 50738, Note_off_c, 1, 78, 64
3, 50757, Note_on_c, 1, 70, 86
3, 50830, Note_off_c, 1, 70, 64
3, 50880, Note_on_c, 1, 68, 107
3, 50996, Note_on_c, 1, 66, 80
3, 51008, Note_off_c, 1, 68, 64
3, 51124, Note_on_c, 1, 68, 70
3, 51125, Note_off_c, 1, 66, 64
3, 51214, Note_off_c, 1, 68, 64
3, 51242, Note_on_c, 1, 70, 88
3, 51337, Note_off_c, 1, 70, 64
3, 51359, Note_on_c, 1, 68, 105
3, 51468, Note_off_c, 1, 68, 64
3, 51485, Note_on_c, 1, 78, 78
3, 51563, Note_off_c, 1, 78, 64
3, 51595, Note_on_c, 1, 68, 82
3, 51686, Note_off_c, 1, 68, 64
3, 51711, Note_on_c, 1, 77, 74
3, 51786, Note_off_c, 1, 77, 64
3, 51816, Control_c, 1, 11, 88
3, 51838, Note_on_c, 1, 78, 86
3, 51862, Control_c, 1, 11, 97
3, 51909, Control_c, 1, 11, 107
3, 51955, Control_c, 1, 11, 118
3, 51988, Control_c, 1, 11, 94
3, 52028, Note_off_c, 1, 78, 64
3, 52028, Control_c, 1, 11, 85
3, 52067, Control_c, 1, 11, 76
3, 52088, Control_c, 1, 11, 100
3, 52564, Note_on_c, 1, 66, 62
3, 52654, Note_off_c, 1, 66, 64
3, 52677, Note_on_c, 1, 65, 45
3, 52767, Note_off_c, 1, 65, 64
3, 52797, Note_on_c, 1, 66, 54
3, 52804, Control_c, 1, 11, 94
3, 52858, Control_c, 1, 11, 84
3, 52911, Control_c, 1, 11, 74
3, 52947, Note_off_c, 1, 66, 64
3, 53000, Control_c, 1, 11, 100
3, 53524, Note_on_c, 1, 66, 62
3, 53614, Note_off_c, 1, 66, 64
3, 53637, Note_on_c, 1, 65, 46
3, 53727, Note_off_c, 1, 65, 64
3, 53754, Note_on_c, 1, 66, 33
3, 53894, Note_off_c, 1, 66, 64
3, 53997, Note_on_c, 1, 66, 47
3, 54141, Note_off_c, 1, 66, 64
3, 54228, Note_on_c, 1, 66, 44
3, 54377, Note_off_c, 1, 66, 64
3, 54474, Note_on_c, 1, 66, 47
3, 54600, Note_off_c, 1, 66, 64
3, 54712, Note_on_c, 1, 66, 43
3, 54871, Note_off_c, 1, 66, 64
3, 54952, Note_on_c, 1, 66, 49
3, 55071, Note_off_c, 1, 66, 64
3, 55194, Note_on_c, 1, 66, 52
3, 55310, Note_off_c, 1, 66, 64
3, 55439, Note_on_c, 1, 66, 52
3, 55540, Note_off_c, 1, 66, 64
3, 55682, Note_on_c, 1, 66, 52
3, 55796, Note_off_c, 1, 66, 64
3, 55921, Note_on_c, 1, 66, 60
3, 56026, Note_off_c, 1, 66, 64
3, 56157, Note_on_c, 1, 66, 60
3, 56259, Note_off_c, 1, 66, 64
3, 56393, Note_on_c, 1, 61, 73
3, 56489, Note_off_c, 1, 61, 64
3, 56635, Note_on_c, 1, 59, 83
3, 56719, Note_off_c, 1, 59, 64
3, 56764, Note_on_c, 1, 66, 112
3, 56858, Note_off_c, 1, 66, 64
3, 56883, Note_on_c, 1, 68, 123
3, 56967, Note_off_c, 1, 68, 64
3, 56985, Note_on_c, 1, 70, 104
3, 57065, Note_off_c, 1, 70, 64
3, 57100, Control_c, 1, 11, 82
3, 57110, Note_on_c, 1, 71, 126
3, 57145, Control_c, 1, 11, 91
3, 57190, Control_c, 1, 11, 101
3, 57235, Control_c, 1, 11, 111
3, 57264, Control_c, 1, 11, 112
3, 57307, Control_c, 1, 11, 100
3, 57350, Control_c, 1, 11, 88
3, 57351, Note_off_c, 1, 71, 64
3, 57393, Control_c, 1, 11, 76
3, 57435, Control_c, 1, 11, 64
3, 57452, Control_c, 1, 11, 100
3, 57844, Note_on_c, 1, 83, 127
3, 57934, Note_off_c, 1, 83, 64
3, 57957, Note_on_c, 1, 82, 92
3, 58047, Note_off_c, 1, 82, 64
3, 58075, Note_on_c, 1, 83, 94
3, 58088, Control_c, 1, 11, 98
3, 58138, Control_c, 1, 11, 86
3, 58187, Control_c, 1, 11, 74
3, 58215, Note_off_c, 1, 83, 64
3, 58276, Control_c, 1, 11, 100
3, 58317, Note_on_c, 1, 83, 100
3, 58404, Note_off_c, 1, 83, 64
3, 58536, Control_c, 1, 11, 62
3, 58558, Note_on_c, 1, 83, 98
3, 58562, Control_c, 1, 11, 70
3, 58589, Control_c, 1, 11, 79
3, 58615, Control_c, 1, 11, 87
3, 58642, Control_c, 1, 11, 96
3, 58668, Control_c, 1, 11, 105
3, 58694, Control_c, 1, 11, 114
3, 58725, Control_c, 1, 11, 100
3, 58769, Control_c, 1, 11, 90
3, 58776, Note_off_c, 1, 83, 64
3, 58794, Control_c, 1, 11, 100
3, 58804, Note_on_c, 1, 82, 117
3, 58894, Note_off_c, 1, 82, 64
3, 58917, Note_on_c, 1, 80, 100
3, 59007, Note_off_c, 1, 80, 64
3, 59034, Note_on_c, 1, 82, 100
3, 59174, Note_off_c, 1, 82, 64
3, 59285, Note_on_c, 1, 82, 96
3, 59368, Note_off_c, 1, 82, 64
3, 59481, Control_c, 1, 11, 52
3, 59507, Control_c, 1, 11, 62
3, 59516, Note_on_c, 1, 81, 102
3, 59534, Control_c, 1, 11, 73
3, 59560, Control_c, 1, 11, 83
3, 59587, Control_c, 1, 11, 94
3, 59613, Control_c, 1, 11, 105
3, 59639, Control_c, 1, 11, 116
3, 59658, Control_c, 1, 11, 108
3, 59700, Control_c, 1, 11, 99
3, 59725, Note_off_c, 1, 81, 64
3, 59741, Control_c, 1, 11, 90
3, 59754, Control_c, 1, 11, 100
3, 59761, Note_on_c, 1, 80, 120
3, 59864, Note_off_c, 1, 80, 64
3, 59881, Note_on_c, 1, 78, 92
3, 59984, Note_off_c, 1, 78, 64
3, 60000, Note_on_c, 1, 80, 127
3, 60006, Control_c, 1, 11, 100
3, 60046, Control_c, 1, 11, 92
3, 60086, Control_c, 1, 11, 85
3, 60123, Note_off_c, 1, 80, 64
3, 60125, Control_c, 1, 11, 78
3, 60129, Note_on_c, 1, 78, 104
3, 60180, Control_c, 1, 11, 100
3, 60220, Note_off_c, 1, 78, 64
3, 60241, Note_on_c, 1, 76, 120
3, 60332, Note_off_c, 1, 76, 64
3, 60362, Note_on_c, 1, 75, 102
3, 60444, Note_off_c, 1, 75, 64
3, 60485, Note_on_c, 1, 73, 126
3, 60595, Note_off_c, 1, 73, 64
3, 60610, Note_on_c, 1, 70, 106
3, 60692, Note_off_c, 1, 70, 64
3, 60726, Note_on_c, 1, 66, 127
3, 60802, Note_off_c, 1, 66, 64
3, 60841, Note_on_c, 1, 68, 106
3, 60932, Note_off_c, 1, 68, 64
3, 60953, Note_on_c, 1, 70, 114
3, 61045, Note_off_c, 1, 70, 64
3, 61070, Note_on_c, 1, 71, 108
3, 61155, Note_off_c, 1, 71, 64
3, 61203, Note_on_c, 1, 73, 123
3, 61299, Note_off_c, 1, 73, 64
3, 61323, Note_on_c, 1, 75, 112
3, 61401, Note_off_c, 1, 75, 64
3, 61424, Control_c, 1, 11, 74
3, 61435, Note_on_c, 1, 76, 123
3, 61466, Control_c, 1, 11, 85
3, 61509, Control_c, 1, 11, 96
3, 61551, Control_c, 1, 11, 108
3, 61562, Note_off_c, 1, 76, 64
3, 61565, Note_on_c, 1, 78, 114
3, 61641, Note_on_c, 1, 76, 98
3, 61646, Note_off_c, 1, 78, 64
3, 61692, Note_on_c, 1, 75, 110
3, 61703, Note_off_c, 1, 76, 64
3, 61738, Note_on_c, 1, 76, 100
3, 61766, Note_off_c, 1, 75, 64
3, 61792, Note_on_c, 1, 78, 103
3, 61813, Note_off_c, 1, 76, 64
3, 61854, Control_c, 1, 11, 102
3, 61868, Control_c, 1, 11, 92
3, 61884, Note_off_c, 1, 78, 64
3, 61892, Control_c, 1, 11, 84
3, 61911, Note_on_c, 1, 75, 127
3, 61936, Control_c, 1, 11, 91
3, 61979, Control_c, 1, 11, 100
3, 62009, Note_on_c, 1, 73, 114
3, 62021, Note_off_c, 1, 75, 64
3, 62065, Note_on_c, 1, 75, 101
3, 62072, Note_off_c, 1, 73, 64
3, 62102, Note_on_c, 1, 73, 94
3, 62116, Note_off_c, 1, 75, 64
3, 62139, Note_on_c, 1, 75, 94
3, 62152, Note_off_c, 1, 73, 64
3, 62185, Note_on_c, 1, 73, 94
3, 62188, Note_off_c, 1, 75, 64
3, 62246, Note_off_c, 1, 73, 64
3, 62250, Note_on_c, 1, 71, 120
3, 62331, Note_off_c, 1, 71, 64
3, 62389, Control_c, 1, 11, 76
3, 62405, Note_on_c, 1, 71, 126
3, 62416, Control_c, 1, 11, 81
3, 62443, Control_c, 1, 11, 87
3, 62470, Control_c, 1, 11, 93
3, 62497, Control_c, 1, 11, 100
3, 62518, Note_on_c, 1, 70, 96
3, 62534, Note_off_c, 1, 71, 64
3, 62626, Note_off_c, 1, 70, 64
3, 62632, Note_on_c, 1, 71, 85
3, 62734, Note_off_c, 1, 71, 64
3, 62752, Note_on_c, 1, 73, 102
3, 62848, Note_off_c, 1, 73, 64
3, 62871, Note_on_c, 1, 71, 122
3, 62975, Note_off_c, 1, 71, 64
3, 62995, Note_on_c, 1, 75, 96
3, 63075, Note_off_c, 1, 75, 64
3, 63110, Note_on_c, 1, 73, 120
3, 63196, Note_off_c, 1, 73, 64
3, 63215, Note_on_c, 1, 76, 107
3, 63291, Note_off_c, 1, 76, 64
3, 63351, Note_on_c, 1, 75, 117
3, 63465, Note_off_c, 1, 75, 64
3, 63468, Note_on_c, 1, 73, 85
3, 63602, Note_on_c, 1, 75, 86
3, 63604, Note_off_c, 1, 73, 64
3, 63695, Note_off_c, 1, 75, 64
3, 63719, Note_on_c, 1, 76, 103
3, 63798, Note_off_c, 1, 76, 64
3, 63836, Note_on_c, 1, 75, 126
3, 63945, Note_off_c, 1, 75, 64
3, 63966, Note_on_c, 1, 78, 96
3, 64044, Note_off_c, 1, 78, 64
3, 64077, Note_on_c, 1, 76, 117
3, 64148, Note_off_c, 1, 76, 64
3, 64178, Note_on_c, 1, 80, 88
3, 64261, Note_off_c, 1, 80, 64
3, 64316, Note_on_c, 1, 78, 106
3, 64444, Note_on_c, 1, 76, 85
3, 64460, Note_off_c, 1, 78, 64
3, 64576, Note_on_c, 1, 78, 72
3, 64580, Note_off_c, 1, 76, 64
3, 64677, Note_off_c, 1, 78, 64
3, 64696, Note_on_c, 1, 80, 102
3, 64774, Note_off_c, 1, 80, 64
3, 64796, Note_on_c, 1, 78, 116
3, 64903, Note_off_c, 1, 78, 64
3, 64918, Note_on_c, 1, 80, 91
3, 65006, Note_off_c, 1, 80, 64
3, 65035, Note_on_c, 1, 78, 94
3, 65126, Note_off_c, 1, 78, 64
3, 65153, Note_on_c, 1, 76, 104
3, 65228, Note_off_c, 1, 76, 64
3, 65274, Note_on_c, 1, 75, 121
3, 65391, Note_off_c, 1, 75, 64
3, 65393, Note_on_c, 1, 76, 93
3, 65504, Note_off_c, 1, 76, 64
3, 65511, Note_on_c, 1, 75, 84
3, 65613, Note_off_c, 1, 75, 64
3, 65630, Note_on_c, 1, 73, 108
3, 65707, Note_off_c, 1, 73, 64
3, 65750, Note_on_c, 1, 71, 110
3, 65851, Note_off_c, 1, 71, 64
3, 65872, Note_on_c, 1, 75, 97
3, 65954, Note_off_c, 1, 75, 64
3, 65991, Note_on_c, 1, 73, 106
3, 66088, Note_off_c, 1, 73, 64
3, 66109, Note_on_c, 1, 71, 84
3, 66190, Note_off_c, 1, 71, 64
3, 66231, Note_on_c, 1, 70, 78
3, 66321, Note_off_c, 1, 70, 64
3, 66477, Note_on_c, 1, 66, 85
3, 66567, Note_off_c, 1, 66, 64
3, 66960, Note_on_c, 1, 54, 114
3, 66984, Control_c, 1, 11, 96
3, 67026, Control_c, 1, 11, 85
3, 67069, Control_c, 1, 11, 74
3, 67098, Note_off_c, 1, 54, 64
3, 67111, Control_c, 1, 11, 64
3, 67144, Control_c, 1, 11, 100
3, 67202, Note_on_c, 1, 58, 127
3, 67212, Control_c, 1, 11, 100
3, 67250, Control_c, 1, 11, 91
3, 67289, Control_c, 1, 11, 82
3, 67327, Control_c, 1, 11, 74
3, 67355, Note_off_c, 1, 58, 64
3, 67388, Control_c, 1, 11, 100
3, 67427, Note_on_c, 1, 61, 114
3, 67527, Note_off_c, 1, 61, 64
3, 67668, Note_on_c, 1, 58, 120
3, 67774, Note_off_c, 1, 58, 64
3, 67915, Note_on_c, 1, 54, 98
3, 68019, Note_off_c, 1, 54, 64
3, 68148, Note_on_c, 1, 58, 127
3, 68156, Control_c, 1, 11, 98
3, 68193, Control_c, 1, 11, 91
3, 68230, Control_c, 1, 11, 84
3, 68267, Control_c, 1, 11, 78
3, 68293, Note_off_c, 1, 58, 64
3, 68348, Control_c, 1, 11, 100
3, 68390, Note_on_c, 1, 61, 117
3, 68469, Note_off_c, 1, 61, 64
3, 68633, Note_on_c, 1, 58, 126
3, 68720, Note_off_c, 1, 58, 64
3, 68870, Note_on_c, 1, 54, 108
3, 68978, Note_off_c, 1, 54, 64
3, 69124, Control_c, 1, 11, 100
3, 69124, Note_on_c, 1, 61, 123
3, 69166, Control_c, 1, 11, 89
3, 69207, Control_c, 1, 11, 78
3, 69229, Note_off_c, 1, 61, 64
3, 69284, Control_c, 1, 11, 100
3, 69364, Note_on_c, 1, 61, 123
3, 69444, Note_off_c, 1, 61, 64
3, 69478, Note_on_c, 1, 61, 103
3, 69568, Note_off_c, 1, 61, 64
3, 69587, Note_on_c, 1, 61, 111
3, 69797, Note_off_c, 1, 61, 64
3, 70324, Note_on_c, 1, 73, 84
3, 70414, Note_off_c, 1, 73, 64
3, 70437, Note_on_c, 1, 72, 64
3, 70527, Note_off_c, 1, 72, 64
3, 70557, Note_on_c, 1, 73, 71
3, 70578, Control_c, 1, 11, 98
3, 70626, Control_c, 1, 11, 90
3, 70674, Control_c, 1, 11, 82
3, 70707, Note_off_c, 1, 73, 64
3, 70721, Control_c, 1, 11, 74
3, 70758, Control_c, 1, 11, 100
3, 71284, Note_on_c, 1, 73, 80
3, 71374, Note_off_c, 1, 73, 64
3, 71397, Note_on_c, 1, 72, 60
3, 71487, Note_off_c, 1, 72, 64
3, 71511, Note_on_c, 1, 73, 69
3, 71526, Control_c, 1, 11, 100
3, 71568, Control_c, 1, 11, 94
3, 71610, Control_c, 1, 11, 88
3, 71652, Control_c, 1, 11, 82
3, 71661, Note_off_c, 1, 73, 64
3, 71693, Control_c, 1, 11, 76
3, 71754, Control_c, 1, 11, 100
3, 72244, Note_on_c, 1, 71, 98
3, 72334, Note_off_c, 1, 71, 64
3, 72357, Note_on_c, 1, 70, 69
3, 72447, Note_off_c, 1, 70, 64
3, 72460, Note_on_c, 1, 71, 78
3, 72486, Control_c, 1, 11, 100
3, 72530, Control_c, 1, 11, 92
3, 72574, Control_c, 1, 11, 85
3, 72617, Control_c, 1, 11, 78
3, 72655, Note_off_c, 1, 71, 64
3, 72678, Control_c, 1, 11, 100
3, 72724, Note_on_c, 1, 70, 107
3, 72814, Note_off_c, 1, 70, 64
3, 72828, Note_on_c, 1, 68, 93
3, 72918, Note_off_c, 1, 68, 64
3, 72957, Note_on_c, 1, 73, 116
3, 72960, Control_c, 1, 11, 100
3, 73006, Control_c, 1, 11, 92
3, 73052, Control_c, 1, 11, 84
3, 73097, Control_c, 1, 11, 76
3, 73152, Control_c, 1, 11, 100
3, 73170, Note_off_c, 1, 73, 64
3, 73204, Note_on_c, 1, 71, 113
3, 73294, Note_off_c, 1, 71, 64
3, 73317, Note_on_c, 1, 70, 90
3, 73407, Note_off_c, 1, 70, 64
3, 73410, Control_c, 1, 11, 76
3, 73417, Note_on_c, 1, 71, 115
3, 73454, Control_c, 1, 11, 80
3, 73498, Control_c, 1, 11, 85
3, 73543, Control_c, 1, 11, 90
3, 73587, Control_c, 1, 11, 95
3, 73631, Control_c, 1, 11, 100
3, 73643, Note_off_c, 1, 71, 64
3, 73706, Note_on_c, 1, 70, 106
3, 73796, Note_off_c, 1, 70, 64
3, 73797, Note_on_c, 1, 68, 86
3, 73887, Note_off_c, 1, 68, 64
3, 73918, Note_on_c, 1, 70, 85
3, 73926, Control_c, 1, 11, 98
3, 73972, Control_c, 1, 11, 90
3, 74018, Control_c, 1, 11, 82
3, 74026, Note_off_c, 1, 70, 64
3, 74063, Control_c, 1, 11, 74
3, 74154, Control_c, 1, 11, 100
3, 74176, Note_on_c, 1, 66, 79
3, 74254, Note_off_c, 1, 66, 64
3, 74641, Note_on_c, 1, 61, 97
3, 74738, Note_off_c, 1, 61, 64
3, 74886, Note_on_c, 1, 58, 110
3, 75013, Note_off_c, 1, 58, 64
3, 75136, Note_on_c, 1, 54, 74
3, 75242, Note_off_c, 1, 54, 64
3, 76084, Note_on_c, 1, 73, 111
3, 76174, Note_off_c, 1, 73, 64
3, 76191, Note_on_c, 1, 71, 75
3, 76281, Note_off_c, 1, 71, 64
3, 76310, Note_on_c, 1, 73, 80
3, 76326, Control_c, 1, 11, 100
3, 76365, Control_c, 1, 11, 92
3, 76404, Control_c, 1, 11, 85
3, 76443, Control_c, 1, 11, 77
3, 76466, Note_off_c, 1, 73, 64
3, 76481, Control_c, 1, 11, 70
3, 76536, Control_c, 1, 11, 100
3, 76564, Note_on_c, 1, 78, 111
3, 76654, Note_off_c, 1, 78, 64
3, 76671, Note_on_c, 1, 77, 73
3, 76761, Note_off_c, 1, 77, 64
3, 76786, Note_on_c, 1, 78, 72
3, 76818, Control_c, 1, 11, 98
3, 76869, Control_c, 1, 11, 89
3, 76919, Control_c, 1, 11, 80
3, 76956, Note_off_c, 1, 78, 64
3, 76998, Control_c, 1, 11, 100
3, 77044, Note_on_c, 1, 73, 111
3, 77134, Note_off_c, 1, 73, 64
3, 77151, Note_on_c, 1, 71, 70
3, 77241, Note_off_c, 1, 71, 64
3, 77265, Note_on_c, 1, 73, 69
3, 77274, Control_c, 1, 11, 98
3, 77318, Control_c, 1, 11, 91
3, 77362, Control_c, 1, 11, 84
3, 77405, Control_c, 1, 11, 78
3, 77435, Note_off_c, 1, 73, 64
3, 77532, Control_c, 1, 11, 100
3, 78484, Note_on_c, 1, 78, 127
3, 78574, Note_off_c, 1, 78, 64
3, 78597, Note_on_c, 1, 77, 100
3, 78687, Note_off_c, 1, 77, 64
3, 78718, Note_on_c, 1, 78, 109
3, 78720, Control_c, 1, 11, 100
3, 78757, Control_c, 1, 11, 89
3, 78794, Control_c, 1, 11, 78
3, 78831, Control_c, 1, 11, 68
3, 78868, Note_off_c, 1, 78, 64
3, 78920, Control_c, 1, 11, 100
3, 78964, Note_on_c, 1, 66, 127
3, 79054, Note_off_c, 1, 66, 64
3, 79077, Note_on_c, 1, 68, 114
3, 79167, Note_off_c, 1, 68, 64
3, 79191, Note_on_c, 1, 70, 127
3, 79281, Note_off_c, 1, 70, 64
3, 79433, Note_on_c, 1, 72, 127
3, 79523, Note_off_c, 1, 72, 64
3, 79678, Note_on_c, 1, 73, 123
3, 79797, Note_on_c, 1, 72, 90
3, 79814, Note_off_c, 1, 73, 64
3, 79914, Note_on_c, 1, 73, 82
3, 79928, Note_off_c, 1, 72, 64
3, 80003, Note_off_c, 1, 73, 64
3, 80036, Note_on_c, 1, 75, 110
3, 80110, Note_off_c, 1, 75, 64
3, 80156, Note_on_c, 1, 73, 112
3, 80250, Note_off_c, 1, 73, 64
3, 80281, Note_on_c, 1, 77, 96
3, 80351, Note_off_c, 1, 77, 64
3, 80396, Note_on_c, 1, 73, 120
3, 80475, Note_off_c, 1, 73, 64
3, 80499, Note_on_c, 1, 78, 102
3, 80575, Note_off_c, 1, 78, 64
3, 80630, Note_on_c, 1, 73, 123
3, 80752, Note_on_c, 1, 72, 95
3, 80763, Note_off_c, 1, 73, 64
3, 80869, Note_on_c, 1, 73, 85
3, 80882, Note_off_c, 1, 72, 64
3, 80955, Note_off_c, 1, 73, 64
3, 80990, Note_on_c, 1, 75, 110
3, 81067, Note_off_c, 1, 75, 64
3, 81119, Note_on_c, 1, 73, 110
3, 81203, Note_off_c, 1, 73, 64
3, 81234, Note_on_c, 1, 80, 91
3, 81313, Note_off_c, 1, 80, 64
3, 81351, Note_on_c, 1, 73, 120
3, 81427, Note_off_c, 1, 73, 64
3, 81457, Note_on_c, 1, 82, 102
3, 81545, Note_off_c, 1, 82, 64
3, 81592, Note_on_c, 1, 73, 120
3, 81714, Note_on_c, 1, 72, 104
3, 81723, Note_off_c, 1, 73, 64
3, 81830, Note_on_c, 1, 73, 92
3, 81837, Note_off_c, 1, 72, 64
3, 81905, Note_off_c, 1, 73, 64
3, 81947, Note_on_c, 1, 75, 117
3, 82027, Note_off_c, 1, 75, 64
3, 82079, Note_on_c, 1, 73, 123
3, 82167, Note_off_c, 1, 73, 64
3, 82191, Note_on_c, 1, 83, 114
3, 82273, Note_off_c, 1, 83, 64
3, 82310, Note_on_c, 1, 73, 114
3, 82390, Note_off_c, 1, 73, 64
3, 82417, Note_on_c, 1, 85, 106
3, 82494, Note_off_c, 1, 85, 64
3, 82524, Control_c, 1, 11, 88
3, 82549, Note_on_c, 1, 82, 118
3, 82574, Control_c, 1, 11, 100
3, 82623, Control_c, 1, 11, 114
3, 82664, Control_c, 1, 11, 116
3, 82710, Control_c, 1, 11, 100
3, 82755, Control_c, 1, 11, 84
3, 82777, Note_off_c, 1, 82, 64
3, 82788, Control_c, 1, 11, 100
3, 82804, Note_on_c, 1, 80, 116
3, 82894, Note_off_c, 1, 80, 64
3, 82917, Note_on_c, 1, 78, 97
3, 83007, Note_off_c, 1, 78, 64
3, 83020, Control_c, 1, 11, 90
3, 83032, Note_on_c, 1, 80, 124
3, 83066, Control_c, 1, 11, 101
3, 83111, Control_c, 1, 11, 114
3, 83140, Control_c, 1, 11, 116
3, 83186, Control_c, 1, 11, 100
3, 83231, Note_off_c, 1, 80, 64
3, 83231, Control_c, 1, 11, 84
3, 83260, Control_c, 1, 11, 100
3, 83284, Note_on_c, 1, 78, 118
3, 83374, Note_off_c, 1, 78, 64
3, 83397, Note_on_c, 1, 77, 97
3, 83487, Note_off_c, 1, 77, 64
3, 83496, Control_c, 1, 11, 86
3, 83513, Note_on_c, 1, 78, 120
3, 83552, Control_c, 1, 11, 100
3, 83607, Control_c, 1, 11, 114
3, 83640, Control_c, 1, 11, 102
3, 83686, Control_c, 1, 11, 83
3, 83731, Control_c, 1, 11, 64
3, 83740, Note_off_c, 1, 78, 64
3, 83744, Control_c, 1, 11, 100
3, 83764, Note_on_c, 1, 77, 116
3, 83854, Note_off_c, 1, 77, 64
3, 83877, Note_on_c, 1, 75, 95
3, 83967, Note_off_c, 1, 75, 64
3, 83994, Note_on_c, 1, 73, 106
3, 84090, Note_off_c, 1, 73, 64
3, 84123, Note_on_c, 1, 78, 91
3, 84211, Note_off_c, 1, 78, 64
3, 84238, Note_on_c, 1, 73, 92
3, 84311, Note_off_c, 1, 73, 64
3, 84349, Note_on_c, 1, 78, 91
3, 84427, Note_off_c, 1, 78, 64
3, 84448, Control_c, 1, 11, 84
3, 84476, Note_on_c, 1, 75, 127
3, 84502, Control_c, 1, 11, 103
3, 84555, Control_c, 1, 11, 124
3, 84596, Control_c, 1, 11, 118
3, 84644, Control_c, 1, 11, 99
3, 84691, Control_c, 1, 11, 80
3, 84694, Note_off_c, 1, 75, 64
3, 84716, Control_c, 1, 11, 100
3, 84724, Note_on_c, 1, 73, 122
3, 84814, Note_off_c, 1, 73, 64
3, 84837, Note_on_c, 1, 71, 104
3, 84927, Note_off_c, 1, 71, 64
3, 84956, Note_on_c, 1, 70, 115
3, 85071, Note_off_c, 1, 70, 64
3, 85080, Note_on_c, 1, 78, 88
3, 85161, Note_off_c, 1, 78, 64
3, 85195, Note_on_c, 1, 70, 94
3, 85284, Note_off_c, 1, 70, 64
3, 85311, Note_on_c, 1, 78, 101
3, 85376, Note_off_c, 1, 78, 64
3, 85400, Control_c, 1, 11, 88
3, 85439, Note_on_c, 1, 71, 127
3, 85454, Control_c, 1, 11, 104
3, 85507, Control_c, 1, 11, 122
3, 85528, Control_c, 1, 11, 108
3, 85580, Control_c, 1, 11, 92
3, 85631, Control_c, 1, 11, 76
3, 85646, Note_off_c, 1, 71, 64
3, 85664, Control_c, 1, 11, 100
3, 85684, Note_on_c, 1, 70, 115
3, 85774, Note_off_c, 1, 70, 64
3, 85797, Note_on_c, 1, 68, 99
3, 85887, Note_off_c, 1, 68, 64
3, 85917, Note_on_c, 1, 66, 96
3, 86024, Note_off_c, 1, 66, 64
3, 86035, Note_on_c, 1, 78, 89
3, 86123, Note_off_c, 1, 78, 64
3, 86153, Note_on_c, 1, 68, 98
3, 86250, Note_off_c, 1, 68, 64
3, 86272, Note_on_c, 1, 78, 94
3, 86365, Note_off_c, 1, 78, 64
3, 86394, Note_on_c, 1, 70, 118
3, 86497, Note_off_c, 1, 70, 64
3, 86517, Note_on_c, 1, 78, 88
3, 86593, Note_off_c, 1, 78, 64
3, 86634, Note_on_c, 1, 72, 126
3, 86721, Note_off_c, 1, 72, 64
3, 86750, Note_on_c, 1, 78, 88
3, 86834, Note_off_c, 1, 78, 64
3, 86874, Note_on_c, 1, 73, 124
3, 86986, Note_off_c, 1, 73, 64
3, 86995, Note_on_c, 1, 77, 88
3, 87083, Note_off_c, 1, 77, 64
3, 87114, Note_on_c, 1, 73, 124
3, 87220, Note_off_c, 1, 73, 64
3, 87233, Note_on_c, 1, 78, 112
3, 87320, Note_off_c, 1, 78, 64
3, 87352, Note_on_c, 1, 73, 121
3, 87354, Control_c, 1, 11, 98
3, 87400, Control_c, 1, 11, 91
3, 87447, Control_c, 1, 11, 84
3, 87453, Note_off_c, 1, 73, 64
3, 87465, Note_on_c, 1, 80, 109
3, 87493, Control_c, 1, 11, 77
3, 87539, Control_c, 1, 11, 70
3, 87550, Note_off_c, 1, 80, 64
3, 87582, Control_c, 1, 11, 100
3, 87589, Note_on_c, 1, 73, 124
3, 87693, Note_off_c, 1, 73, 64
3, 87702, Note_on_c, 1, 82, 120
3, 87797, Note_off_c, 1, 82, 64
3, 87827, Note_on_c, 1, 73, 121
3, 87942, Note_on_c, 1, 83, 124
3, 87949, Note_off_c, 1, 73, 64
3, 88042, Note_off_c, 1, 83, 64
3, 88071, Note_on_c, 1, 73, 127
3, 88182, Note_off_c, 1, 73, 64
3, 88182, Note_on_c, 1, 85, 122
3, 88272, Note_off_c, 1, 85, 64
3, 88284, Control_c, 1, 11, 78
3, 88309, Note_on_c, 1, 82, 127
3, 88335, Control_c, 1, 11, 91
3, 88385, Control_c, 1, 11, 106
3, 88416, Control_c, 1, 11, 110
3, 88461, Control_c, 1, 11, 96
3, 88505, Control_c, 1, 11, 82
3, 88530, Note_off_c, 1, 82, 64
3, 88548, Control_c, 1, 11, 100
3, 88561, Note_on_c, 1, 80, 127
3, 88664, Note_off_c, 1, 80, 64
3, 88669, Note_on_c, 1, 78, 102
3, 88757, Note_off_c, 1, 78, 64
3, 88789, Note_on_c, 1, 73, 102
3, 88908, Note_off_c, 1, 73, 64
3, 89040, Note_on_c, 1, 77, 114
3, 89144, Note_off_c, 1, 77, 64
3, 89260, Control_c, 1, 11, 96
3, 89285, Note_on_c, 1, 78, 127
3, 89294, Control_c, 1, 11, 103
3, 89328, Control_c, 1, 11, 111
3, 89362, Control_c, 1, 11, 119
3, 89395, Control_c, 1, 11, 127
3, 89416, Control_c, 1, 11, 114
3, 89452, Control_c, 1, 11, 102
3, 89487, Control_c, 1, 11, 90
3, 89511, Note_off_c, 1, 78, 64
3, 89520, Control_c, 1, 11, 100
3, 89529, Note_on_c, 1, 77, 127
3, 89632, Note_off_c, 1, 77, 64
3, 89645, Note_on_c, 1, 75, 103
3, 89749, Note_off_c, 1, 75, 64
3, 89763, Note_on_c, 1, 73, 127
3, 89861, Note_off_c, 1, 73, 64
3, 89880, Note_on_c, 1, 71, 98
3, 89972, Note_off_c, 1, 71, 64
3, 89996, Note_on_c, 1, 70, 127
3, 90097, Note_off_c, 1, 70, 64
3, 90115, Note_on_c, 1, 68, 98
3, 90203, Note_off_c, 1, 68, 64
3, 90220, Control_c, 1, 11, 98
3, 90236, Note_on_c, 1, 70, 127
3, 90272, Control_c, 1, 11, 111
3, 90323, Control_c, 1, 11, 126
3, 90356, Control_c, 1, 11, 124
3, 90400, Control_c, 1, 11, 106
3, 90443, Control_c, 1, 11, 88
3, 90451, Note_off_c, 1, 70, 64
3, 90460, Control_c, 1, 11, 100
3, 90484, Note_on_c, 1, 68, 125
3, 90574, Note_off_c, 1, 68, 64
3, 90597, Note_on_c, 1, 66, 97
3, 90687, Note_off_c, 1, 66, 64
3, 90713, Note_on_c, 1, 73, 102
3, 90807, Note_off_c, 1, 73, 64
3, 90954, Note_on_c, 1, 61, 103
3, 91045, Note_off_c, 1, 61, 64
3, 91176, Control_c, 1, 11, 92
3, 91197, Note_on_c, 1, 66, 85
3, 91219, Control_c, 1, 11, 100
3, 91262, Control_c, 1, 11, 109
3, 91305, Control_c, 1, 11, 118
3, 91347, Control_c, 1, 11, 127
3, 91368, Control_c, 1, 11, 118
3, 91414, Control_c, 1, 11, 106
3, 91461, Control_c, 1, 11, 94
3, 91473, Note_off_c, 1, 66, 64
3, 91507, Control_c, 1, 11, 82
3, 91556, Control_c, 1, 11, 100
3, 91804, Note_on_c, 1, 66, 102
3, 91884, Note_off_c, 1, 66, 64
3, 91924, Note_on_c, 1, 61, 95
3, 92014, Note_off_c, 1, 61, 64
3, 92037, Note_on_c, 1, 63, 76
3, 92127, Note_off_c, 1, 63, 64
3, 92160, Note_on_c, 1, 64, 103
3, 92272, Note_on_c, 1, 63, 73
3, 92276, Note_off_c, 1, 64, 64
3, 92393, Note_on_c, 1, 64, 63
3, 92406, Note_off_c, 1, 63, 64
3, 92488, Note_off_c, 1, 64, 64
3, 92520, Note_on_c, 1, 73, 89
3, 92598, Note_off_c, 1, 73, 64
3, 92638, Note_on_c, 1, 70, 97
3, 92732, Note_off_c, 1, 70, 64
3, 92751, Note_on_c, 1, 64, 73
3, 92825, Note_off_c, 1, 64, 64
3, 92868, Note_on_c, 1, 61, 77
3, 92954, Note_off_c, 1, 61, 64
3, 92972, Note_on_c, 1, 54, 72
3, 93050, Note_off_c, 1, 54, 64
3, 93130, Note_on_c, 1, 64, 104
3, 93241, Note_on_c, 1, 63, 70
3, 93242, Note_off_c, 1, 64, 64
3, 93358, Note_on_c, 1, 64, 64
3, 93365, Note_off_c, 1, 63, 64
3, 93462, Note_off_c, 1, 64, 64
3, 93484, Note_on_c, 1, 73, 86
3, 93555, Note_off_c, 1, 73, 64
3, 93604, Note_on_c, 1, 70, 90
3, 93703, Note_off_c, 1, 70, 64
3, 93718, Note_on_c, 1, 64, 76
3, 93792, Note_off_c, 1, 64, 64
3, 93831, Note_on_c, 1, 61, 75
3, 93921, Note_off_c, 1, 61, 64
3, 93944, Note_on_c, 1, 54, 74
3, 94024, Note_off_c, 1, 54, 64
3, 94076, Note_on_c, 1, 63, 99
3, 94191, Note_on_c, 1, 61, 70
3, 94205, Note_off_c, 1, 63, 64
3, 94311, Note_on_c, 1, 63, 65
3, 94314, Note_off_c, 1, 61, 64
3, 94389, Note_off_c, 1, 63, 64
3, 94438, Note_on_c, 1, 71, 81
3, 94517, Note_off_c, 1, 71, 64
3, 94557, Note_on_c, 1, 66, 86
3, 94649, Note_off_c, 1, 66, 64
3, 94673, Note_on_c, 1, 63, 75
3, 94738, Note_off_c, 1, 63, 64
3, 94788, Note_on_c, 1, 59, 70
3, 94870, Note_off_c, 1, 59, 64
3, 94900, Note_on_c, 1, 54, 72
3, 94974, Note_off_c, 1, 54, 64
3, 95038, Note_on_c, 1, 63, 99
3, 95150, Note_on_c, 1, 61, 70
3, 95164, Note_off_c, 1, 63, 64
3, 95271, Note_on_c, 1, 63, 70
3, 95274, Note_off_c, 1, 61, 64
3, 95353, Note_off_c, 1, 63, 64
3, 95396, Note_on_c, 1, 71, 81
3, 95468, Note_off_c, 1, 71, 64
3, 95514, Note_on_c, 1, 66, 86
3, 95608, Note_off_c, 1, 66, 64
3, 95630, Note_on_c, 1, 63, 75
3, 95706, Note_off_c, 1, 63, 64
3, 95742, Note_on_c, 1, 59, 70
3, 95842, Note_off_c, 1, 59, 64
3, 95862, Note_on_c, 1, 54, 70
3, 95943, Note_off_c, 1, 54, 64
3, 96002, Note_on_c, 1, 65, 104
3, 96116, Note_on_c, 1, 63, 71
3, 96125, Note_off_c, 1, 65, 64
3, 96234, Note_on_c, 1, 65, 62
3, 96242, Note_off_c, 1, 63, 64
3, 96317, Note_off_c, 1, 65, 64
3, 96363, Note_on_c, 1, 71, 85
3, 96443, Note_off_c, 1, 71, 64
3, 96478, Note_on_c, 1, 68, 86
3, 96572, Note_off_c, 1, 68, 64
3, 96599, Note_on_c, 1, 65, 79
3, 96665, Note_off_c, 1, 65, 64
3, 96713, Note_on_c, 1, 59, 70
3, 96795, Note_off_c, 1, 59, 64
3, 96829, Note_on_c, 1, 56, 70
3, 96912, Note_off_c, 1, 56, 64
3, 96958, Note_on_c, 1, 65, 104
3, 97069, Note_on_c, 1, 63, 70
3, 97076, Note_off_c, 1, 65, 64
3, 97190, Note_on_c, 1, 65, 64
3, 97194, Note_off_c, 1, 63, 64
3, 97295, Note_off_c, 1, 65, 64
3, 97315, Note_on_c, 1, 71, 84
3, 97399, Note_off_c, 1, 71, 64
3, 97434, Note_on_c, 1, 68, 84
3, 97531, Note_off_c, 1, 68, 64
3, 97550, Note_on_c, 1, 65, 86
3, 97618, Note_off_c, 1, 65, 64
3, 97668, Note_on_c, 1, 59, 86
3, 97747, Note_off_c, 1, 59, 64
3, 97783, Note_on_c, 1, 56, 66
3, 97869, Note_off_c, 1, 56, 64
3, 97914, Note_on_c, 1, 58, 102
3, 98024, Note_off_c, 1, 58, 64
3, 98045, Note_on_c, 1, 61, 118
3, 98135, Note_off_c, 1, 61, 64
3, 98160, Note_on_c, 1, 63, 120
3, 98245, Note_off_c, 1, 63, 64
3, 98283, Note_on_c, 1, 65, 105
3, 98357, Note_off_c, 1, 65, 64
3, 98398, Note_on_c, 1, 66, 123
3, 98512, Note_off_c, 1, 66, 64
3, 98527, Note_on_c, 1, 68, 114
3, 98614, Note_off_c, 1, 68, 64
3, 98639, Note_on_c, 1, 70, 127
3, 98727, Note_off_c, 1, 70, 64
3, 98759, Note_on_c, 1, 72, 103
3, 98843, Note_off_c, 1, 72, 64
3, 98881, Note_on_c, 1, 73, 115
3, 98993, Note_off_c, 1, 73, 64
3, 99127, Note_on_c, 1, 61, 85
3, 99217, Note_off_c, 1, 61, 64
3, 99840, Note_on_c, 1, 77, 60
3, 99956, Note_on_c, 1, 75, 55
3, 99961, Note_off_c, 1, 77, 64
3, 100079, Note_on_c, 1, 77, 47
3, 100083, Note_off_c, 1, 75, 64
3, 100212, Note_off_c, 1, 77, 64
3, 100805, Note_on_c, 1, 80, 64
3, 100916, Note_on_c, 1, 78, 51
3, 100931, Note_off_c, 1, 80, 64
3, 101042, Note_off_c, 1, 78, 64
3, 101051, Note_on_c, 1, 80, 38
3, 101177, Note_off_c, 1, 80, 64
3, 101755, Note_on_c, 1, 74, 70
3, 101863, Note_on_c, 1, 72, 48
3, 101871, Note_off_c, 1, 74, 64
3, 101976, Note_off_c, 1, 72, 64
3, 101992, Note_on_c, 1, 74, 34
3, 102106, Note_off_c, 1, 74, 64
3, 102718, Note_on_c, 1, 74, 68
3, 102836, Note_on_c, 1, 72, 37
3, 102838, Note_off_c, 1, 74, 64
3, 102941, Note_off_c, 1, 72, 64
3, 102965, Note_on_c, 1, 74, 32
3, 103074, Note_off_c, 1, 74, 64
3, 103677, Note_on_c, 1, 77, 68
3, 103784, Note_on_c, 1, 75, 57
3, 103788, Note_off_c, 1, 77, 64
3, 103900, Note_off_c, 1, 75, 64
3, 103913, Note_on_c, 1, 77, 40
3, 103986, Note_off_c, 1, 77, 64
3, 104621, Note_on_c, 1, 77, 72
3, 104719, Note_on_c, 1, 75, 50
3, 104726, Note_off_c, 1, 77, 64
3, 104846, Note_off_c, 1, 75, 64
3, 104850, Note_on_c, 1, 77, 45
3, 105000, Note_off_c, 1, 77, 64
3, 105364, Note_on_c, 1, 75, 115
3, 105454, Note_off_c, 1, 75, 64
3, 105477, Note_on_c, 1, 74, 100
3, 105567, Note_off_c, 1, 74, 64
3, 105585, Note_on_c, 1, 75, 91
3, 105592, Control_c, 1, 11, 94
3, 105636, Control_c, 1, 11, 85
3, 105680, Control_c, 1, 11, 76
3, 105723, Control_c, 1, 11, 68
3, 105751, Note_off_c, 1, 75, 64
3, 105812, Control_c, 1, 11, 100
3, 105844, Note_on_c, 1, 70, 111
3, 105934, Note_off_c, 1, 70, 64
3, 105957, Note_on_c, 1, 68, 92
3, 106047, Note_off_c, 1, 68, 64
3, 106071, Note_on_c, 1, 70, 73
3, 106080, Control_c, 1, 11, 94
3, 106128, Control_c, 1, 11, 84
3, 106176, Control_c, 1, 11, 74
3, 106223, Control_c, 1, 11, 64
3, 106237, Note_off_c, 1, 70, 64
3, 106300, Control_c, 1, 11, 100
3, 107764, Note_on_c, 1, 63, 127
3, 107854, Note_off_c, 1, 63, 64
3, 107877, Note_on_c, 1, 65, 80
3, 107967, Note_off_c, 1, 65, 64
3, 107985, Note_on_c, 1, 66, 86
3, 108093, Note_off_c, 1, 66, 64
3, 108241, Note_on_c, 1, 68, 112
3, 108346, Note_off_c, 1, 68, 64
3, 108478, Note_on_c, 1, 70, 108
3, 108484, Control_c, 1, 11, 98
3, 108525, Control_c, 1, 11, 89
3, 108566, Control_c, 1, 11, 80
3, 108607, Control_c, 1, 11, 72
3, 108632, Note_off_c, 1, 70, 64
3, 108668, Control_c, 1, 11, 100
3, 108724, Note_on_c, 1, 74, 94
3, 108814, Note_off_c, 1, 74, 64
3, 108837, Note_on_c, 1, 72, 75
3, 108927, Note_off_c, 1, 72, 64
3, 108956, Note_on_c, 1, 74, 74
3, 108972, Control_c, 1, 11, 98
3, 109014, Control_c, 1, 11, 90
3, 109056, Control_c, 1, 11, 83
3, 109097, Control_c, 1, 11, 76
3, 109106, Note_off_c, 1, 74, 64
3, 109176, Control_c, 1, 11, 100
3, 109204, Note_on_c, 1, 77, 90
3, 109294, Note_off_c, 1, 77, 64
3, 109317, Note_on_c, 1, 75, 75
3, 109407, Note_off_c, 1, 75, 64
3, 109439, Note_on_c, 1, 77, 82
3, 109458, Control_c, 1, 11, 98
3, 109504, Control_c, 1, 11, 89
3, 109550, Control_c, 1, 11, 80
3, 109595, Control_c, 1, 11, 72
3, 109630, Note_off_c, 1, 77, 64
3, 109680, Control_c, 1, 11, 100
3, 110644, Note_on_c, 1, 62, 116
3, 110741, Note_off_c, 1, 62, 64
3, 110750, Note_on_c, 1, 60, 85
3, 110847, Note_off_c, 1, 60, 64
3, 110874, Note_on_c, 1, 62, 87
3, 110976, Note_off_c, 1, 62, 64
3, 111122, Note_on_c, 1, 82, 127
3, 111200, Note_off_c, 1, 82, 64
3, 111328, Control_c, 1, 11, 86
3, 111356, Note_on_c, 1, 78, 127
3, 111372, Control_c, 1, 11, 97
3, 111416, Control_c, 1, 11, 109
3, 111459, Control_c, 1, 11, 122
3, 111484, Control_c, 1, 11, 116
3, 111526, Control_c, 1, 11, 104
3, 111567, Control_c, 1, 11, 92
3, 111579, Note_off_c, 1, 78, 64
3, 111592, Control_c, 1, 11, 100
3, 111613, Note_on_c, 1, 77, 124
3, 111703, Note_off_c, 1, 77, 64
3, 111712, Note_on_c, 1, 75, 86
3, 111790, Note_off_c, 1, 75, 64
3, 111808, Control_c, 1, 11, 88
3, 111829, Note_on_c, 1, 77, 116
3, 111856, Control_c, 1, 11, 99
3, 111904, Control_c, 1, 11, 110
3, 111951, Control_c, 1, 11, 122
3, 111972, Control_c, 1, 11, 110
3, 112010, Control_c, 1, 11, 96
3, 112047, Control_c, 1, 11, 82
3, 112048, Note_off_c, 1, 77, 64
3, 112068, Control_c, 1, 11, 100
3, 112084, Note_on_c, 1, 75, 127
3, 112174, Note_off_c, 1, 75, 64
3, 112192, Note_on_c, 1, 74, 86
3, 112264, Note_off_c, 1, 74, 64
3, 112288, Control_c, 1, 11, 54
3, 112315, Control_c, 1, 11, 60
3, 112322, Note_on_c, 1, 83, 127
3, 112342, Control_c, 1, 11, 67
3, 112369, Control_c, 1, 11, 73
3, 112396, Control_c, 1, 11, 80
3, 112424, Control_c, 1, 11, 86
3, 112451, Control_c, 1, 11, 93
3, 112478, Control_c, 1, 11, 100
3, 112505, Control_c, 1, 11, 106
3, 112532, Control_c, 1, 11, 113
3, 112559, Control_c, 1, 11, 120
3, 112576, Control_c, 1, 11, 112
3, 112601, Control_c, 1, 11, 96
3, 112626, Control_c, 1, 11, 81
3, 112651, Control_c, 1, 11, 66
3, 112655, Note_off_c, 1, 83, 64
3, 112668, Control_c, 1, 11, 100
3, 112687, Note_on_c, 1, 82, 116
3, 112775, Note_off_c, 1, 82, 64
3, 112798, Note_on_c, 1, 80, 113
3, 112892, Note_off_c, 1, 80, 64
3, 112913, Note_on_c, 1, 78, 99
3, 112993, Note_off_c, 1, 78, 64
3, 113034, Note_on_c, 1, 77, 106
3, 113111, Note_off_c, 1, 77, 64
3, 113148, Note_on_c, 1, 75, 92
3, 113238, Note_off_c, 1, 75, 64
3, 113256, Control_c, 1, 11, 88
3, 113275, Note_on_c, 1, 82, 110
3, 113295, Control_c, 1, 11, 94
3, 113334, Control_c, 1, 11, 101
3, 113368, Control_c, 1, 11, 108
3, 113410, Control_c, 1, 11, 98
3, 113453, Control_c, 1, 11, 88
3, 113489, Note_off_c, 1, 82, 64
3, 113500, Control_c, 1, 11, 100
3, 113528, Note_on_c, 1, 80, 103
3, 113618, Note_off_c, 1, 80, 64
3, 113637, Note_on_c, 1, 78, 86
3, 113727, Note_off_c, 1, 78, 64
3, 113728, Control_c, 1, 11, 94
3, 113751, Note_on_c, 1, 77, 104
3, 113777, Control_c, 1, 11, 102
3, 113826, Control_c, 1, 11, 111
3, 113875, Control_c, 1, 11, 120
3, 113909, Control_c, 1, 11, 102
3, 113950, Control_c, 1, 11, 84
3, 113960, Note_off_c, 1, 77, 64
3, 113996, Control_c, 1, 11, 100
3, 114008, Note_on_c, 1, 75, 114
3, 114098, Note_off_c, 1, 75, 64
3, 114117, Note_on_c, 1, 74, 84
3, 114207, Note_off_c, 1, 74, 64
3, 114240, Note_on_c, 1, 75, 78
3, 114240, Control_c, 1, 11, 96
3, 114289, Control_c, 1, 11, 86
3, 114338, Control_c, 1, 11, 77
3, 114387, Control_c, 1, 11, 68
3, 114412, Note_off_c, 1, 75, 64
3, 114448, Control_c, 1, 11, 100
3, 114484, Note_on_c, 1, 75, 68
3, 114574, Note_off_c, 1, 75, 64
3, 114597, Note_on_c, 1, 74, 52
3, 114687, Note_off_c, 1, 74, 64
3, 114720, Note_on_c, 1, 75, 56
3, 114726, Control_c, 1, 11, 100
3, 114768, Control_c, 1, 11, 92
3, 114810, Control_c, 1, 11, 85
3, 114851, Control_c, 1, 11, 78
3, 114870, Note_off_c, 1, 75, 64
3, 114996, Control_c, 1, 11, 100
3, 115444, Note_on_c, 1, 75, 68
3, 115534, Note_off_c, 1, 75, 64
3, 115557, Note_on_c, 1, 74, 50
3, 115647, Note_off_c, 1, 74, 64
3, 115680, Control_c, 1, 11, 100
3, 115680, Note_on_c, 1, 75, 58
3, 115728, Control_c, 1, 11, 92
3, 115776, Control_c, 1, 11, 84
3, 115823, Control_c, 1, 11, 76
3, 115830, Note_off_c, 1, 75, 64
3, 115938, Control_c, 1, 11, 100
3, 116404, Note_on_c, 1, 75, 68
3, 116494, Note_off_c, 1, 75, 64
3, 116517, Note_on_c, 1, 74, 56
3, 116607, Note_off_c, 1, 74, 64
3, 116641, Note_on_c, 1, 75, 56
3, 116646, Control_c, 1, 11, 100
3, 116683, Control_c, 1, 11, 95
3, 116721, Control_c, 1, 11, 90
3, 116758, Control_c, 1, 11, 85
3, 116791, Note_off_c, 1, 75, 64
3, 116795, Control_c, 1, 11, 80
3, 116892, Control_c, 1, 11, 100
3, 117364, Note_on_c, 1, 75, 126
3, 117454, Note_off_c, 1, 75, 64
3, 117476, Note_on_c, 1, 77, 92
3, 117566, Note_off_c, 1, 77, 64
3, 117593, Note_on_c, 1, 78, 127
3, 117705, Note_off_c, 1, 78, 64
3, 117712, Note_on_c, 1, 77, 100
3, 117792, Note_off_c, 1, 77, 64
3, 117832, Note_on_c, 1, 75, 117
3, 117910, Note_off_c, 1, 75, 64
3, 117950, Note_on_c, 1, 73, 102
3, 118031, Note_off_c, 1, 73, 64
3, 118079, Note_on_c, 1, 72, 116
3, 118186, Note_off_c, 1, 72, 64
3, 118211, Note_on_c, 1, 75, 98
3, 118291, Note_off_c, 1, 75, 64
3, 118314, Note_on_c, 1, 68, 120
3, 118408, Note_off_c, 1, 68, 64
3, 118432, Note_on_c, 1, 70, 96
3, 118508, Note_off_c, 1, 70, 64
3, 118554, Note_on_c, 1, 72, 120
3, 118658, Note_off_c, 1, 72, 64
3, 118679, Note_on_c, 1, 73, 89
3, 118764, Note_off_c, 1, 73, 64
3, 118804, Note_on_c, 1, 75, 94
3, 118894, Note_off_c, 1, 75, 64
3, 118908, Note_on_c, 1, 73, 106
3, 118998, Note_off_c, 1, 73, 64
3, 119028, Note_on_c, 1, 72, 76
3, 119056, Control_c, 1, 11, 98
3, 119101, Control_c, 1, 11, 90
3, 119146, Control_c, 1, 11, 82
3, 119191, Control_c, 1, 11, 74
3, 119193, Note_off_c, 1, 72, 64
3, 119224, Control_c, 1, 11, 100
3, 119277, Note_on_c, 1, 80, 105
3, 119288, Control_c, 1, 11, 92
3, 119330, Control_c, 1, 11, 85
3, 119372, Control_c, 1, 11, 78
3, 119414, Control_c, 1, 11, 71
3, 119431, Note_off_c, 1, 80, 64
3, 119455, Control_c, 1, 11, 64
3, 119488, Control_c, 1, 11, 100
3, 119753, Note_on_c, 1, 79, 94
3, 119855, Note_off_c, 1, 79, 64
3, 119992, Note_on_c, 1, 80, 86
3, 120136, Note_off_c, 1, 80, 64
3, 120240, Note_on_c, 1, 75, 64
3, 120340, Note_off_c, 1, 75, 64
3, 120486, Note_on_c, 1, 68, 71
3, 120596, Note_off_c, 1, 68, 64
3, 120726, Note_on_c, 1, 70, 93
3, 120832, Note_off_c, 1, 70, 64
3, 120966, Note_on_c, 1, 72, 127
3, 121087, Note_off_c, 1, 72, 64
3, 121089, Note_on_c, 1, 73, 86
3, 121186, Note_off_c, 1, 73, 64
3, 121209, Note_on_c, 1, 75, 114
3, 121286, Note_off_c, 1, 75, 64
3, 121317, Note_on_c, 1, 73, 96
3, 121394, Note_off_c, 1, 73, 64
3, 121440, Note_on_c, 1, 72, 117
3, 121544, Note_off_c, 1, 72, 64
3, 121556, Note_on_c, 1, 75, 102
3, 121639, Note_off_c, 1, 75, 64
3, 121680, Note_on_c, 1, 80, 106
3, 121777, Note_off_c, 1, 80, 64
3, 121796, Note_on_c, 1, 78, 92
3, 121882, Note_off_c, 1, 78, 64
3, 121918, Note_on_c, 1, 77, 75
3, 121938, Control_c, 1, 11, 98
3, 121982, Control_c, 1, 11, 89
3, 122026, Control_c, 1, 11, 80
3, 122069, Control_c, 1, 11, 72
3, 122089, Note_off_c, 1, 77, 64
3, 122124, Control_c, 1, 11, 100
3, 122164, Note_on_c, 1, 85, 78
3, 122254, Note_off_c, 1, 85, 64
3, 122277, Note_on_c, 1, 84, 59
3, 122367, Note_off_c, 1, 84, 64
3, 122376, Control_c, 1, 11, 100
3, 122405, Note_on_c, 1, 85, 58
3, 122419, Control_c, 1, 11, 95
3, 122463, Control_c, 1, 11, 90
3, 122506, Control_c, 1, 11, 85
3, 122549, Control_c, 1, 11, 80
3, 122555, Note_off_c, 1, 85, 64
3, 122592, Control_c, 1, 11, 100
3, 123124, Note_on_c, 1, 85, 78
3, 123214, Note_off_c, 1, 85, 64
3, 123237, Note_on_c, 1, 84, 57
3, 123327, Note_off_c, 1, 84, 64
3, 123330, Control_c, 1, 11, 100
3, 123347, Note_on_c, 1, 85, 58
3, 123373, Control_c, 1, 11, 95
3, 123417, Control_c, 1, 11, 91
3, 123460, Control_c, 1, 11, 86
3, 123497, Note_off_c, 1, 85, 64
3, 123503, Control_c, 1, 11, 82
3, 123582, Control_c, 1, 11, 100
3, 124084, Note_on_c, 1, 85, 89
3, 124174, Note_off_c, 1, 85, 64
3, 124197, Note_on_c, 1, 84, 70
3, 124287, Note_off_c, 1, 84, 64
3, 124302, Control_c, 1, 11, 98
3, 124322, Note_on_c, 1, 85, 58
3, 124341, Control_c, 1, 11, 94
3, 124380, Control_c, 1, 11, 91
3, 124419, Control_c, 1, 11, 88
3, 124458, Control_c, 1, 11, 84
3, 124472, Note_off_c, 1, 85, 64
3, 124497, Control_c, 1, 11, 81
3, 124535, Control_c, 1, 11, 78
3, 124644, Control_c, 1, 11, 100
3, 125520, Note_on_c, 1, 73, 127
3, 125607, Note_off_c, 1, 73, 64
3, 125758, Note_on_c, 1, 70, 127
3, 125861, Note_off_c, 1, 70, 64
3, 125893, Note_on_c, 1, 73, 110
3, 125979, Note_off_c, 1, 73, 64
3, 126012, Note_on_c, 1, 66, 104
3, 126095, Note_off_c, 1, 66, 64
3, 126115, Note_on_c, 1, 68, 104
3, 126200, Note_off_c, 1, 68, 64
3, 126235, Note_on_c, 1, 70, 118
3, 126349, Note_off_c, 1, 70, 64
3, 126359, Note_on_c, 1, 71, 100
3, 126454, Note_off_c, 1, 71, 64
3, 126472, Note_on_c, 1, 73, 120
3, 126554, Note_off_c, 1, 73, 64
3, 126591, Note_on_c, 1, 71, 96
3, 126677, Note_off_c, 1, 71, 64
3, 126716, Note_on_c, 1, 70, 85
3, 126728, Control_c, 1, 11, 96
3, 126766, Control_c, 1, 11, 86
3, 126805, Control_c, 1, 11, 77
3, 126843, Control_c, 1, 11, 68
3, 126862, Note_off_c, 1, 70, 64
3, 126924, Control_c, 1, 11, 100
3, 126964, Note_on_c, 1, 78, 99
3, 127054, Note_off_c, 1, 78, 64
3, 127077, Note_on_c, 1, 77, 81
3, 127167, Note_off_c, 1, 77, 64
3, 127200, Control_c, 1, 11, 98
3, 127200, Note_on_c, 1, 78, 76
3, 127237, Control_c, 1, 11, 92
3, 127275, Control_c, 1, 11, 86
3, 127312, Control_c, 1, 11, 80
3, 127349, Control_c, 1, 11, 74
3, 127350, Note_off_c, 1, 78, 64
3, 127440, Control_c, 1, 11, 100
3, 128404, Note_on_c, 1, 78, 118
3, 128494, Note_off_c, 1, 78, 64
3, 128517, Note_on_c, 1, 77, 80
3, 128607, Note_off_c, 1, 77, 64
3, 128635, Note_on_c, 1, 78, 86
3, 128646, Control_c, 1, 11, 100
3, 128685, Control_c, 1, 11, 94
3, 128724, Control_c, 1, 11, 88
3, 128763, Control_c, 1, 11, 82
3, 128785, Note_off_c, 1, 78, 64
3, 128801, Control_c, 1, 11, 76
3, 128856, Control_c, 1, 11, 100
3, 128884, Note_on_c, 1, 73, 103
3, 128974, Note_off_c, 1, 73, 64
3, 128997, Note_on_c, 1, 71, 84
3, 129087, Note_off_c, 1, 71, 64
3, 129118, Note_on_c, 1, 73, 71
3, 129132, Control_c, 1, 11, 100
3, 129180, Control_c, 1, 11, 92
3, 129228, Control_c, 1, 11, 85
3, 129268, Note_off_c, 1, 73, 64
3, 129275, Control_c, 1, 11, 78
3, 129378, Control_c, 1, 11, 100
3, 130560, Note_on_c, 1, 84, 70
3, 130676, Note_off_c, 1, 84, 64
3, 130677, Note_on_c, 1, 82, 58
3, 130793, Note_on_c, 1, 84, 47
3, 130796, Control_c, 1, 11, 96
3, 130806, Note_off_c, 1, 82, 64
3, 130841, Control_c, 1, 11, 87
3, 130886, Control_c, 1, 11, 78
3, 130923, Note_off_c, 1, 84, 64
3, 130931, Control_c, 1, 11, 70
3, 130988, Control_c, 1, 11, 100
3, 131512, Note_on_c, 1, 84, 66
3, 131634, Note_on_c, 1, 82, 54
3, 131638, Note_off_c, 1, 84, 64
3, 131748, Note_on_c, 1, 84, 44
3, 131752, Control_c, 1, 11, 96
3, 131760, Note_off_c, 1, 82, 64
3, 131793, Control_c, 1, 11, 89
3, 131834, Control_c, 1, 11, 82
3, 131875, Control_c, 1, 11, 76
3, 131907, Note_off_c, 1, 84, 64
3, 131964, Control_c, 1, 11, 100
3, 132471, Note_on_c, 1, 81, 60
3, 132590, Note_on_c, 1, 79, 51
3, 132603, Note_off_c, 1, 81, 64
3, 132715, Note_on_c, 1, 81, 50
3, 132720, Note_off_c, 1, 79, 64
3, 132732, Control_c, 1, 11, 94
3, 132774, Control_c, 1, 11, 86
3, 132817, Control_c, 1, 11, 78
3, 132855, Note_off_c, 1, 81, 64
3, 132859, Control_c, 1, 11, 70
3, 132896, Control_c, 1, 11, 100
3, 133434, Note_on_c, 1, 81, 69
3, 133550, Note_on_c, 1, 79, 50
3, 133555, Note_off_c, 1, 81, 64
3, 133676, Note_on_c, 1, 81, 54
3, 133682, Note_off_c, 1, 79, 64
3, 133688, Control_c, 1, 11, 96
3, 133733, Control_c, 1, 11, 87
3, 133778, Control_c, 1, 11, 78
3, 133807, Note_off_c, 1, 81, 64
3, 133823, Control_c, 1, 11, 70
3, 133864, Control_c, 1, 11, 100
3, 134399, Note_on_c, 1, 84, 73
3, 134505, Note_off_c, 1, 84, 64
3, 134508, Note_on_c, 1, 82, 68
3, 134630, Note_on_c, 1, 84, 39
3, 134640, Control_c, 1, 11, 98
3, 134643, Note_off_c, 1, 82, 64
3, 134684, Control_c, 1, 11, 90
3, 134728, Control_c, 1, 11, 83
3, 134771, Control_c, 1, 11, 76
3, 134775, Note_off_c, 1, 84, 64
3, 134832, Control_c, 1, 11, 100
3, 135353, Note_on_c, 1, 81, 90
3, 135465, Note_on_c, 1, 79, 60
3, 135471, Note_off_c, 1, 81, 64
3, 135590, Note_on_c, 1, 81, 44
3, 135592, Control_c, 1, 11, 96
3, 135597, Note_off_c, 1, 79, 64
3, 135632, Control_c, 1, 11, 88
3, 135672, Control_c, 1, 11, 81
3, 135711, Note_off_c, 1, 81, 64
3, 135711, Control_c, 1, 11, 74
3, 135784, Control_c, 1, 11, 100
3, 136084, Note_on_c, 1, 82, 127
3, 136174, Note_off_c, 1, 82, 64
3, 136197, Note_on_c, 1, 81, 106
3, 136287, Note_off_c, 1, 81, 64
3, 136317, Note_on_c, 1, 82, 103
3, 136320, Control_c, 1, 11, 102
3, 136362, Control_c, 1, 11, 97
3, 136404, Control_c, 1, 11, 93
3, 136446, Control_c, 1, 11, 88
3, 136467, Note_off_c, 1, 82, 64
3, 136487, Control_c, 1, 11, 84
3, 136518, Control_c, 1, 11, 100
3, 136564, Note_on_c, 1, 77, 127
3, 136654, Note_off_c, 1, 77, 64
3, 136677, Note_on_c, 1, 75, 82
3, 136767, Note_off_c, 1, 75, 64
3, 136796, Note_on_c, 1, 77, 104
3, 136806, Control_c, 1, 11, 102
3, 136846, Control_c, 1, 11, 97
3, 136887, Control_c, 1, 11, 93
3, 136927, Control_c, 1, 11, 88
3, 136946, Note_off_c, 1, 77, 64
3, 136967, Control_c, 1, 11, 84
3, 137004, Control_c, 1, 11, 100
3, 137044, Note_on_c, 1, 82, 127
3, 137134, Note_off_c, 1, 82, 64
3, 137157, Note_on_c, 1, 81, 110
3, 137247, Note_off_c, 1, 81, 64
3, 137275, Note_on_c, 1, 82, 106
3, 137280, Control_c, 1, 11, 98
3, 137319, Control_c, 1, 11, 94
3, 137358, Control_c, 1, 11, 91
3, 137397, Control_c, 1, 11, 87
3, 137425, Note_off_c, 1, 82, 64
3, 137435, Control_c, 1, 11, 84
3, 137490, Control_c, 1, 11, 100
3, 137524, Note_on_c, 1, 73, 127
3, 137614, Note_off_c, 1, 73, 64
3, 137637, Note_on_c, 1, 72, 96
3, 137727, Note_off_c, 1, 72, 64
3, 137749, Note_on_c, 1, 73, 108
3, 137760, Control_c, 1, 11, 98
3, 137799, Control_c, 1, 11, 94
3, 137838, Control_c, 1, 11, 90
3, 137877, Control_c, 1, 11, 86
3, 137899, Note_off_c, 1, 73, 64
3, 137915, Control_c, 1, 11, 82
3, 137982, Control_c, 1, 11, 100
3, 138004, Note_on_c, 1, 82, 127
3, 138094, Note_off_c, 1, 82, 64
3, 138117, Note_on_c, 1, 81, 94
3, 138207, Note_off_c, 1, 81, 64
3, 138228, Control_c, 1, 11, 100
3, 138234, Note_on_c, 1, 82, 104
3, 138270, Control_c, 1, 11, 96
3, 138312, Control_c, 1, 11, 92
3, 138354, Control_c, 1, 11, 88
3, 138384, Note_off_c, 1, 82, 64
3, 138395, Control_c, 1, 11, 84
3, 138432, Control_c, 1, 11, 100
3, 138484, Note_on_c, 1, 70, 127
3, 138574, Note_off_c, 1, 70, 64
3, 138597, Note_on_c, 1, 72, 100
3, 138687, Note_off_c, 1, 72, 64
3, 138707, Note_on_c, 1, 73, 110
3, 138728, Control_c, 1, 11, 98
3, 138766, Control_c, 1, 11, 92
3, 138805, Control_c, 1, 11, 87
3, 138837, Note_off_c, 1, 73, 64
3, 138843, Control_c, 1, 11, 82
3, 138932, Control_c, 1, 11, 100
3, 138966, Note_on_c, 1, 75, 111
3, 139000, Control_c, 1, 11, 98
3, 139044, Control_c, 1, 11, 89
3, 139087, Control_c, 1, 11, 80
3, 139092, Note_off_c, 1, 75, 64
3, 139148, Control_c, 1, 11, 100
3, 139203, Note_on_c, 1, 77, 122
3, 139312, Note_off_c, 1, 77, 64
3, 139320, Note_on_c, 1, 75, 111
3, 139432, Note_on_c, 1, 77, 122
3, 139434, Note_off_c, 1, 75, 64
3, 139518, Note_off_c, 1, 77, 64
3, 139546, Note_on_c, 1, 78, 117
3, 139648, Note_off_c, 1, 78, 64
3, 139677, Note_on_c, 1, 77, 122
3, 139774, Note_off_c, 1, 77, 64
3, 139800, Note_on_c, 1, 75, 120
3, 139886, Note_off_c, 1, 75, 64
3, 139924, Note_on_c, 1, 73, 107
3, 140002, Note_off_c, 1, 73, 64
3, 140037, Note_on_c, 1, 72, 122
3, 140115, Note_off_c, 1, 72, 64
3, 140174, Note_on_c, 1, 73, 97
3, 140293, Note_on_c, 1, 75, 107
3, 140298, Note_off_c, 1, 73, 64
3, 140391, Note_off_c, 1, 75, 64
3, 140415, Note_on_c, 1, 73, 120
3, 140520, Note_off_c, 1, 73, 64
3, 140523, Note_on_c, 1, 75, 123
3, 140615, Note_off_c, 1, 75, 64
3, 140637, Note_on_c, 1, 77, 127
3, 140736, Note_on_c, 1, 75, 100
3, 140748, Note_off_c, 1, 77, 64
3, 140797, Note_on_c, 1, 77, 100
3, 140800, Note_off_c, 1, 75, 64
3, 140842, Note_on_c, 1, 75, 100
3, 140851, Note_off_c, 1, 77, 64
3, 140893, Note_on_c, 1, 77, 100
3, 140908, Note_off_c, 1, 75, 64
3, 140940, Note_on_c, 1, 75, 88
3, 140947, Note_off_c, 1, 77, 64
3, 140980, Note_on_c, 1, 73, 88
3, 140998, Note_off_c, 1, 75, 64
3, 141021, Note_on_c, 1, 75, 88
3, 141039, Note_off_c, 1, 73, 64
3, 141102, Note_on_c, 1, 77, 92
3, 141104, Note_off_c, 1, 75, 64
3, 141128, Control_c, 1, 11, 96
3, 141166, Control_c, 1, 11, 91
3, 141204, Control_c, 1, 11, 86
3, 141242, Control_c, 1, 11, 81
3, 141279, Control_c, 1, 11, 76
3, 141293, Note_off_c, 1, 77, 64
3, 141348, Control_c, 1, 11, 100
3, 141364, Note_on_c, 1, 82, 127
3, 141454, Note_off_c, 1, 82, 64
3, 141477, Note_on_c, 1, 81, 89
3, 141567, Note_off_c, 1, 81, 64
3, 141583, Note_on_c, 1, 82, 95
3, 141588, Control_c, 1, 11, 96
3, 141630, Control_c, 1, 11, 88
3, 141673, Control_c, 1, 11, 81
3, 141715, Control_c, 1, 11, 74
3, 141733, Note_off_c, 1, 82, 64
3, 141768, Control_c, 1, 11, 100
3, 141844, Note_on_c, 1, 77, 124
3, 141934, Note_off_c, 1, 77, 64
3, 141957, Note_on_c, 1, 75, 95
3, 142047, Note_off_c, 1, 75, 64
3, 142060, Control_c, 1, 11, 84
3, 142090, Note_on_c, 1, 73, 127
3, 142116, Control_c, 1, 11, 98
3, 142171, Control_c, 1, 11, 112
3, 142212, Control_c, 1, 11, 94
3, 142279, Control_c, 1, 11, 76
3, 142281, Note_off_c, 1, 73, 64
3, 142304, Control_c, 1, 11, 100
3, 142324, Note_on_c, 1, 72, 122
3, 142414, Note_off_c, 1, 72, 64
3, 142437, Note_on_c, 1, 70, 101
3, 142527, Note_off_c, 1, 70, 64
3, 142532, Control_c, 1, 11, 86
3, 142552, Note_on_c, 1, 72, 118
3, 142573, Control_c, 1, 11, 96
3, 142614, Control_c, 1, 11, 107
3, 142655, Control_c, 1, 11, 118
3, 142680, Control_c, 1, 11, 106
3, 142724, Control_c, 1, 11, 90
3, 142762, Note_off_c, 1, 72, 64
3, 142767, Control_c, 1, 11, 74
3, 142788, Control_c, 1, 11, 100
3, 142804, Note_on_c, 1, 70, 122
3, 142894, Note_off_c, 1, 70, 64
3, 142909, Note_on_c, 1, 69, 95
3, 142999, Note_off_c, 1, 69, 64
3, 143020, Control_c, 1, 11, 82
3, 143055, Note_on_c, 1, 78, 127
3, 143064, Control_c, 1, 11, 90
3, 143108, Control_c, 1, 11, 99
3, 143152, Control_c, 1, 11, 108
3, 143195, Control_c, 1, 11, 118
3, 143232, Control_c, 1, 11, 104
3, 143270, Control_c, 1, 11, 92
3, 143309, Control_c, 1, 11, 80
3, 143347, Control_c, 1, 11, 68
3, 143354, Note_off_c, 1, 78, 64
3, 143376, Control_c, 1, 11, 100
3, 143407, Note_on_c, 1, 77, 127
3, 143496, Note_off_c, 1, 77, 64
3, 143527, Note_on_c, 1, 75, 120
3, 143624, Note_off_c, 1, 75, 64
3, 143632, Note_on_c, 1, 73, 100
3, 143695, Note_off_c, 1, 73, 64
3, 143743, Note_on_c, 1, 72, 109
3, 143810, Note_off_c, 1, 72, 64
3, 143853, Note_on_c, 1, 70, 95
3, 143919, Note_off_c, 1, 70, 64
3, 143944, Control_c, 1, 11, 48
3, 143971, Control_c, 1, 11, 55
3, 143979, Note_on_c, 1, 77, 115
3, 143998, Control_c, 1, 11, 62
3, 144025, Control_c, 1, 11, 69
3, 144052, Control_c, 1, 11, 76
3, 144079, Control_c, 1, 11, 83
3, 144106, Control_c, 1, 11, 90
3, 144133, Control_c, 1, 11, 97
3, 144160, Control_c, 1, 11, 104
3, 144187, Control_c, 1, 11, 112
3, 144208, Control_c, 1, 11, 110
3, 144246, Control_c, 1, 11, 100
3, 144285, Control_c, 1, 11, 90
3, 144307, Note_off_c, 1, 77, 64
3, 144323, Control_c, 1, 11, 80
3, 144340, Control_c, 1, 11, 100
3, 144347, Note_on_c, 1, 78, 93
3, 144433, Note_off_c, 1, 78, 64
3, 144460, Control_c, 1, 11, 86
3, 144480, Note_on_c, 1, 73, 122
3, 144500, Control_c, 1, 11, 93
3, 144540, Control_c, 1, 11, 100
3, 144579, Control_c, 1, 11, 108
3, 144606, Note_on_c, 1, 72, 100
3, 144614, Note_off_c, 1, 73, 64
3, 144665, Note_on_c, 1, 73, 79
3, 144686, Note_off_c, 1, 72, 64
3, 144715, Note_on_c, 1, 72, 79
3, 144729, Note_off_c, 1, 73, 64
3, 144754, Note_on_c, 1, 73, 70
3, 144763, Note_off_c, 1, 72, 64
3, 144792, Note_on_c, 1, 72, 70
3, 144809, Note_off_c, 1, 73, 64
3, 144844, Note_on_c, 1, 70, 79
3, 144848, Note_off_c, 1, 72, 64
3, 144938, Note_off_c, 1, 70, 64
3, 144940, Control_c, 1, 11, 78
3, 144960, Control_c, 1, 11, 92
3, 144964, Note_on_c, 1, 70, 78
3, 145002, Control_c, 1, 11, 99
3, 145044, Control_c, 1, 11, 106
3, 145085, Control_c, 1, 11, 114
3, 145116, Control_c, 1, 11, 110
3, 145158, Control_c, 1, 11, 102
3, 145200, Control_c, 1, 11, 94
3, 145241, Control_c, 1, 11, 86
3, 145247, Note_off_c, 1, 70, 64
3, 145308, Control_c, 1, 11, 100
3, 147124, Note_on_c, 1, 73, 106
3, 147214, Note_off_c, 1, 73, 64
3, 147237, Note_on_c, 1, 72, 94
3, 147327, Note_off_c, 1, 72, 64
3, 147350, Note_on_c, 1, 73, 71
3, 147378, Control_c, 1, 11, 98
3, 147418, Control_c, 1, 11, 92
3, 147458, Control_c, 1, 11, 87
3, 147497, Control_c, 1, 11, 82
3, 147506, Note_off_c, 1, 73, 64
3, 147576, Control_c, 1, 11, 100
3, 147604, Note_on_c, 1, 77, 106
3, 147694, Note_off_c, 1, 77, 64
3, 147717, Note_on_c, 1, 75, 86
3, 147807, Note_off_c, 1, 75, 64
3, 147827, Note_on_c, 1, 77, 100
3, 147846, Control_c, 1, 11, 94
3, 147890, Control_c, 1, 11, 88
3, 147934, Control_c, 1, 11, 82
3, 147977, Note_off_c, 1, 77, 64
3, 147977, Control_c, 1, 11, 76
3, 148044, Control_c, 1, 11, 100
3, 148079, Note_on_c, 1, 77, 103
3, 148172, Note_off_c, 1, 77, 64
3, 148296, Control_c, 1, 11, 82
3, 148318, Note_on_c, 1, 77, 103
3, 148324, Control_c, 1, 11, 87
3, 148353, Control_c, 1, 11, 93
3, 148382, Control_c, 1, 11, 99
3, 148411, Control_c, 1, 11, 105
3, 148439, Control_c, 1, 11, 112
3, 148461, Control_c, 1, 11, 98
3, 148491, Control_c, 1, 11, 85
3, 148519, Note_off_c, 1, 77, 64
3, 148520, Control_c, 1, 11, 72
3, 148548, Control_c, 1, 11, 100
3, 148564, Note_on_c, 1, 75, 116
3, 148654, Note_off_c, 1, 75, 64
3, 148677, Note_on_c, 1, 73, 86
3, 148767, Note_off_c, 1, 73, 64
3, 148782, Control_c, 1, 11, 98
3, 148789, Note_on_c, 1, 75, 97
3, 148824, Control_c, 1, 11, 104
3, 148848, Control_c, 1, 11, 110
3, 148875, Control_c, 1, 11, 97
3, 148903, Control_c, 1, 11, 85
3, 148931, Control_c, 1, 11, 72
3, 148958, Note_off_c, 1, 75, 64
3, 148988, Control_c, 1, 11, 100
3, 149048, Note_on_c, 1, 75, 97
3, 149141, Note_off_c, 1, 75, 64
3, 149253, Control_c, 1, 11, 80
3, 149281, Note_on_c, 1, 75, 97
3, 149284, Control_c, 1, 11, 87
3, 149316, Control_c, 1, 11, 95
3, 149348, Control_c, 1, 11, 102
3, 149380, Control_c, 1, 11, 110
3, 149411, Control_c, 1, 11, 118
3, 149439, Control_c, 1, 11, 94
3, 149477, Control_c, 1, 11, 74
3, 149480, Note_off_c, 1, 75, 64
3, 149508, Control_c, 1, 11, 100
3, 149524, Note_on_c, 1, 73, 113
3, 149614, Note_off_c, 1, 73, 64
3, 149637, Note_on_c, 1, 72, 87
3, 149727, Note_off_c, 1, 72, 64
3, 149754, Control_c, 1, 11, 88
3, 149762, Note_on_c, 1, 73, 110
3, 149797, Control_c, 1, 11, 95
3, 149841, Control_c, 1, 11, 103
3, 149884, Control_c, 1, 11, 111
3, 149927, Control_c, 1, 11, 120
3, 149958, Control_c, 1, 11, 104
3, 149998, Control_c, 1, 11, 96
3, 150038, Control_c, 1, 11, 89
3, 150077, Control_c, 1, 11, 82
3, 150085, Note_off_c, 1, 73, 64
3, 150090, Control_c, 1, 11, 100
3, 150116, Note_on_c, 1, 72, 116
3, 150190, Note_off_c, 1, 72, 64
3, 150216, Control_c, 1, 11, 78
3, 150225, Note_on_c, 1, 73, 110
3, 150264, Control_c, 1, 11, 85
3, 150312, Control_c, 1, 11, 92
3, 150359, Control_c, 1, 11, 100
3, 150374, Note_on_c, 1, 72, 99
3, 150391, Note_off_c, 1, 73, 64
3, 150423, Note_on_c, 1, 73, 80
3, 150447, Note_off_c, 1, 72, 64
3, 150467, Note_on_c, 1, 72, 73
3, 150484, Note_off_c, 1, 73, 64
3, 150500, Note_on_c, 1, 73, 73
3, 150512, Note_off_c, 1, 72, 64
3, 150533, Note_on_c, 1, 72, 79
3, 150549, Note_off_c, 1, 73, 64
3, 150582, Note_off_c, 1, 72, 64
3, 150601, Note_on_c, 1, 70, 95
3, 150682, Note_off_c, 1, 70, 64
3, 150696, Control_c, 1, 11, 88
3, 150711, Note_on_c, 1, 70, 75
3, 150734, Control_c, 1, 11, 94
3, 150772, Control_c, 1, 11, 100
3, 150811, Control_c, 1, 11, 107
3, 150849, Control_c, 1, 11, 113
3, 150872, Control_c, 1, 11, 114
3, 150916, Control_c, 1, 11, 98
3, 150960, Control_c, 1, 11, 83
3, 151004, Control_c, 1, 11, 67
3, 151030, Note_off_c, 1, 70, 64
3, 151047, Control_c, 1, 11, 52
3, 151074, Control_c, 1, 11, 100
3, 151644, Control_c, 1, 11, 70
3, 151678, Control_c, 1, 11, 73
3, 151680, Note_on_c, 1, 66, 78
3, 151712, Control_c, 1, 11, 76
3, 151746, Control_c, 1, 11, 81
3, 151780, Control_c, 1, 11, 85
3, 151816, Control_c, 1, 11, 90
3, 151853, Control_c, 1, 11, 95
3, 151891, Control_c, 1, 11, 100
3, 151928, Control_c, 1, 11, 106
3, 151966, Control_c, 1, 11, 113
3, 152003, Control_c, 1, 11, 94
3, 152040, Control_c, 1, 11, 76
3, 152078, Control_c, 1, 11, 57
3, 152095, Note_off_c, 1, 66, 64
3, 152115, Control_c, 1, 11, 38
3, 152152, Note_on_c, 1, 70, 78
3, 152153, Control_c, 1, 11, 65
3, 152190, Control_c, 1, 11, 70
3, 152227, Control_c, 1, 11, 76
3, 152265, Control_c, 1, 11, 81
3, 152302, Control_c, 1, 11, 86
3, 152340, Control_c, 1, 11, 91
3, 152377, Control_c, 1, 11, 97
3, 152415, Control_c, 1, 11, 101
3, 152452, Control_c, 1, 11, 108
3, 152489, Control_c, 1, 11, 92
3, 152527, Control_c, 1, 11, 69
3, 152564, Control_c, 1, 11, 46
3, 152583, Note_off_c, 1, 70, 64
3, 152602, Control_c, 1, 11, 81
3, 152631, Note_on_c, 1, 73, 78
3, 152789, Control_c, 1, 11, 82
3, 152826, Control_c, 1, 11, 88
3, 152864, Control_c, 1, 11, 95
3, 152901, Control_c, 1, 11, 101
3, 152938, Control_c, 1, 11, 106
3, 152976, Control_c, 1, 11, 109
3, 153013, Control_c, 1, 11, 106
3, 153051, Control_c, 1, 11, 89
3, 153088, Control_c, 1, 11, 74
3, 153125, Control_c, 1, 11, 58
3, 153163, Control_c, 1, 11, 42
3, 153165, Note_off_c, 1, 73, 64
3, 153268, Control_c, 1, 11, 100
3, 153361, Note_on_c, 1, 73, 81
3, 153465, Note_off_c, 1, 73, 64
3, 153564, Control_c, 1, 11, 76
3, 153605, Note_on_c, 1, 70, 89
3, 153606, Control_c, 1, 11, 83
3, 153648, Control_c, 1, 11, 90
3, 153690, Control_c, 1, 11, 98
3, 153731, Control_c, 1, 11, 106
3, 153732, Control_c, 1, 11, 106
3, 153760, Control_c, 1, 11, 80
3, 153779, Note_off_c, 1, 70, 64
3, 153828, Control_c, 1, 11, 82
3, 153846, Note_on_c, 1, 73, 98
3, 153873, Control_c, 1, 11, 90
3, 153918, Control_c, 1, 11, 99
3, 153963, Control_c, 1, 11, 108
3, 153999, Control_c, 1, 11, 98
3, 154022, Note_off_c, 1, 73, 64
3, 154060, Control_c, 1, 11, 100
3, 154082, Note_on_c, 1, 78, 115
3, 154184, Note_off_c, 1, 78, 64
3, 154195, Note_on_c, 1, 82, 102
3, 154304, Note_off_c, 1, 82, 64
3, 154312, Note_on_c, 1, 80, 104
3, 154420, Note_off_c, 1, 80, 64
3, 154430, Note_on_c, 1, 78, 82
3, 154514, Note_off_c, 1, 78, 64
3, 154554, Note_on_c, 1, 77, 112
3, 154673, Note_on_c, 1, 78, 78
3, 154685, Note_off_c, 1, 77, 64
3, 154784, Note_off_c, 1, 78, 64
3, 154795, Note_on_c, 1, 80, 84
3, 154885, Note_off_c, 1, 80, 64
3, 154900, Note_on_c, 1, 78, 93
3, 154995, Note_off_c, 1, 78, 64
3, 155028, Note_on_c, 1, 77, 106
3, 155135, Note_on_c, 1, 75, 71
3, 155146, Note_off_c, 1, 77, 64
3, 155231, Note_off_c, 1, 75, 64
3, 155284, Note_on_c, 1, 73, 84
3, 155368, Note_off_c, 1, 73, 64
3, 155389, Note_on_c, 1, 72, 71
3, 155473, Note_off_c, 1, 72, 64
3, 155517, Note_on_c, 1, 73, 75
3, 155528, Control_c, 1, 11, 96
3, 155570, Control_c, 1, 11, 87
3, 155613, Control_c, 1, 11, 78
3, 155655, Control_c, 1, 11, 70
3, 155685, Note_off_c, 1, 73, 64
3, 155744, Control_c, 1, 11, 100
3, 155764, Note_on_c, 1, 68, 86
3, 155854, Note_off_c, 1, 68, 64
3, 155877, Note_on_c, 1, 66, 66
3, 155967, Note_off_c, 1, 66, 64
3, 156000, Note_on_c, 1, 68, 64
3, 156004, Control_c, 1, 11, 92
3, 156048, Control_c, 1, 11, 86
3, 156092, Control_c, 1, 11, 80
3, 156135, Control_c, 1, 11, 74
3, 156150, Note_off_c, 1, 68, 64
3, 156212, Control_c, 1, 11, 100
3, 156244, Note_on_c, 1, 73, 102
3, 156334, Note_off_c, 1, 73, 64
3, 156357, Note_on_c, 1, 72, 77
3, 156447, Note_off_c, 1, 72, 64
3, 156473, Note_on_c, 1, 73, 62
3, 156488, Control_c, 1, 11, 96
3, 156530, Control_c, 1, 11, 87
3, 156573, Control_c, 1, 11, 78
3, 156615, Control_c, 1, 11, 70
3, 156623, Note_off_c, 1, 73, 64
3, 156692, Control_c, 1, 11, 100
3, 156724, Note_on_c, 1, 65, 84
3, 156814, Note_off_c, 1, 65, 64
3, 156837, Note_on_c, 1, 63, 71
3, 156927, Note_off_c, 1, 63, 64
3, 156952, Note_on_c, 1, 65, 62
3, 156968, Control_c, 1, 11, 94
3, 157010, Control_c, 1, 11, 86
3, 157053, Control_c, 1, 11, 79
3, 157095, Control_c, 1, 11, 72
3, 157102, Note_off_c, 1, 65, 64
3, 157148, Control_c, 1, 11, 100
3, 157204, Note_on_c, 1, 73, 102
3, 157294, Note_off_c, 1, 73, 64
3, 157317, Note_on_c, 1, 72, 87
3, 157407, Note_off_c, 1, 72, 64
3, 157431, Note_on_c, 1, 73, 69
3, 157440, Control_c, 1, 11, 96
3, 157480, Control_c, 1, 11, 89
3, 157520, Control_c, 1, 11, 82
3, 157560, Control_c, 1, 11, 75
3, 157581, Note_off_c, 1, 73, 64
3, 157599, Control_c, 1, 11, 68
3, 157644, Control_c, 1, 11, 100
3, 157684, Note_on_c, 1, 61, 99
3, 157774, Note_off_c, 1, 61, 64
3, 157797, Note_on_c, 1, 63, 79
3, 157887, Note_off_c, 1, 63, 64
3, 157916, Note_on_c, 1, 65, 73
3, 158016, Note_off_c, 1, 65, 64
3, 158162, Note_on_c, 1, 67, 80
3, 158262, Note_off_c, 1, 67, 64
3, 158376, Control_c, 1, 11, 72
3, 158399, Note_on_c, 1, 68, 78
3, 158418, Control_c, 1, 11, 81
3, 158461, Control_c, 1, 11, 90
3, 158504, Control_c, 1, 11, 99
3, 158546, Control_c, 1, 11, 108
3, 158589, Control_c, 1, 11, 117
3, 158631, Control_c, 1, 11, 127
3, 158652, Control_c, 1, 11, 114
3, 158695, Control_c, 1, 11, 101
3, 158738, Control_c, 1, 11, 88
3, 158776, Note_off_c, 1, 68, 64
3, 158781, Control_c, 1, 11, 75
3, 158823, Control_c, 1, 11, 62
3, 158868, Control_c, 1, 11, 100
3, 159116, Note_on_c, 1, 72, 107
3, 159201, Note_off_c, 1, 72, 64
3, 159365, Note_on_c, 1, 73, 107
3, 159481, Note_on_c, 1, 72, 77
3, 159491, Note_off_c, 1, 73, 64
3, 159599, Note_on_c, 1, 73, 85
3, 159616, Note_off_c, 1, 72, 64
3, 159684, Note_off_c, 1, 73, 64
3, 159717, Note_on_c, 1, 75, 99
3, 159808, Note_off_c, 1, 75, 64
3, 159836, Note_on_c, 1, 73, 112
3, 159944, Note_off_c, 1, 73, 64
3, 159955, Note_on_c, 1, 77, 80
3, 160037, Note_off_c, 1, 77, 64
3, 160073, Note_on_c, 1, 72, 95
3, 160162, Note_off_c, 1, 72, 64
3, 160186, Note_on_c, 1, 75, 88
3, 160278, Note_off_c, 1, 75, 64
3, 160296, Control_c, 1, 11, 84
3, 160316, Note_on_c, 1, 73, 104
3, 160348, Control_c, 1, 11, 91
3, 160399, Control_c, 1, 11, 100
3, 160434, Note_on_c, 1, 75, 84
3, 160448, Note_off_c, 1, 73, 64
3, 160555, Note_on_c, 1, 77, 79
3, 160562, Note_off_c, 1, 75, 64
3, 160642, Note_off_c, 1, 77, 64
3, 160672, Note_on_c, 1, 75, 86
3, 160767, Note_off_c, 1, 75, 64
3, 160791, Note_on_c, 1, 73, 101
3, 160896, Note_off_c, 1, 73, 64
3, 160909, Note_on_c, 1, 71, 79
3, 160991, Note_off_c, 1, 71, 64
3, 161027, Note_on_c, 1, 70, 102
3, 161105, Note_off_c, 1, 70, 64
3, 161144, Note_on_c, 1, 68, 75
3, 161232, Note_off_c, 1, 68, 64
3, 161272, Control_c, 1, 11, 82
3, 161274, Note_on_c, 1, 70, 103
3, 161326, Control_c, 1, 11, 90
3, 161379, Control_c, 1, 11, 100
3, 161396, Note_on_c, 1, 68, 78
3, 161408, Note_off_c, 1, 70, 64
3, 161517, Note_on_c, 1, 70, 83
3, 161520, Note_off_c, 1, 68, 64
3, 161609, Note_off_c, 1, 70, 64
3, 161637, Note_on_c, 1, 71, 90
3, 161720, Note_off_c, 1, 71, 64
3, 161758, Note_on_c, 1, 70, 104
3, 161850, Note_off_c, 1, 70, 64
3, 161872, Note_on_c, 1, 73, 93
3, 161961, Note_off_c, 1, 73, 64
3, 161991, Note_on_c, 1, 68, 92
3, 162073, Note_off_c, 1, 68, 64
3, 162108, Note_on_c, 1, 71, 90
3, 162183, Note_off_c, 1, 71, 64
3, 162236, Note_on_c, 1, 70, 107
3, 162356, Note_off_c, 1, 70, 64
3, 162358, Note_on_c, 1, 71, 80
3, 162465, Note_off_c, 1, 71, 64
3, 162475, Note_on_c, 1, 73, 92
3, 162567, Note_off_c, 1, 73, 64
3, 162593, Note_on_c, 1, 71, 88
3, 162680, Note_off_c, 1, 71, 64
3, 162714, Note_on_c, 1, 70, 112
3, 162820, Note_off_c, 1, 70, 64
3, 162833, Note_on_c, 1, 68, 80
3, 162924, Note_off_c, 1, 68, 64
3, 162964, Note_on_c, 1, 66, 103
3, 163054, Note_off_c, 1, 66, 64
3, 163077, Note_on_c, 1, 65, 89
3, 163167, Note_off_c, 1, 65, 64
3, 163202, Note_on_c, 1, 66, 112
3, 163315, Note_on_c, 1, 65, 77
3, 163328, Note_off_c, 1, 66, 64
3, 163438, Note_on_c, 1, 66, 78
3, 163464, Note_off_c, 1, 65, 64
3, 163528, Note_off_c, 1, 66, 64
3, 163555, Note_on_c, 1, 68, 99
3, 163628, Note_off_c, 1, 68, 64
3, 163677, Note_on_c, 1, 66, 104
3, 163764, Note_off_c, 1, 66, 64
3, 163797, Note_on_c, 1, 70, 78
3, 163870, Note_off_c, 1, 70, 64
3, 163912, Note_on_c, 1, 65, 101
3, 163988, Note_off_c, 1, 65, 64
3, 164031, Note_on_c, 1, 68, 88
3, 164103, Note_off_c, 1, 68, 64
3, 164156, Note_on_c, 1, 66, 109
3, 164276, Note_on_c, 1, 68, 78
3, 164289, Note_off_c, 1, 66, 64
3, 164388, Note_off_c, 1, 68, 64
3, 164400, Note_on_c, 1, 70, 85
3, 164488, Note_off_c, 1, 70, 64
3, 164519, Note_on_c, 1, 68, 100
3, 164606, Note_off_c, 1, 68, 64
3, 164638, Note_on_c, 1, 66, 112
3, 164733, Note_off_c, 1, 66, 64
3, 164753, Note_on_c, 1, 64, 87
3, 164832, Note_off_c, 1, 64, 64
3, 164874, Note_on_c, 1, 63, 99
3, 164950, Note_off_c, 1, 63, 64
3, 164983, Note_on_c, 1, 61, 92
3, 165061, Note_off_c, 1, 61, 64
3, 165093, Note_on_c, 1, 63, 101
3, 165210, Note_off_c, 1, 63, 64
3, 165241, Note_on_c, 1, 66, 84
3, 165322, Note_off_c, 1, 66, 64
3, 165356, Note_on_c, 1, 65, 107
3, 165432, Note_off_c, 1, 65, 64
3, 165470, Note_on_c, 1, 68, 97
3, 165548, Note_off_c, 1, 68, 64
3, 165590, Note_on_c, 1, 66, 103
3, 165680, Note_off_c, 1, 66, 64
3, 165707, Note_on_c, 1, 70, 99
3, 165801, Note_off_c, 1, 70, 64
3, 165824, Note_on_c, 1, 68, 97
3, 165912, Note_off_c, 1, 68, 64
3, 165939, Note_on_c, 1, 66, 83
3, 166018, Note_off_c, 1, 66, 64
3, 166069, Note_on_c, 1, 65, 99
3, 166168, Note_off_c, 1, 65, 64
3, 166203, Note_on_c, 1, 66, 78
3, 166281, Note_off_c, 1, 66, 64
3, 166315, Note_on_c, 1, 68, 93
3, 166406, Note_off_c, 1, 68, 64
3, 166433, Note_on_c, 1, 70, 85
3, 166524, Note_off_c, 1, 70, 64
3, 166553, Note_on_c, 1, 71, 101
3, 166654, Note_off_c, 1, 71, 64
3, 166672, Note_on_c, 1, 73, 78
3, 166751, Note_off_c, 1, 73, 64
3, 166804, Note_on_c, 1, 71, 88
3, 166880, Note_off_c, 1, 71, 64
3, 166916, Note_on_c, 1, 73, 78
3, 166992, Note_off_c, 1, 73, 64
3, 167031, Note_on_c, 1, 70, 102
3, 167121, Note_off_c, 1, 70, 64
3, 167178, Note_on_c, 1, 78, 108
3, 167277, Note_off_c, 1, 78, 64
3, 167297, Note_on_c, 1, 77, 99
3, 167385, Note_off_c, 1, 77, 64
3, 167397, Note_on_c, 1, 75, 79
3, 167487, Note_off_c, 1, 75, 64
3, 167499, Note_on_c, 1, 73, 97
3, 167623, Note_off_c, 1, 73, 64
3, 167635, Note_on_c, 1, 71, 82
3, 167725, Note_off_c, 1, 71, 64
3, 167752, Note_on_c, 1, 70, 90
3, 167851, Note_off_c, 1, 70, 64
3, 167872, Note_on_c, 1, 68, 75
3, 167975, Note_off_c, 1, 68, 64
3, 167994, Note_on_c, 1, 66, 97
3, 168101, Note_off_c, 1, 66, 64
3, 168119, Note_on_c, 1, 63, 97
3, 168220, Note_off_c, 1, 63, 64
3, 168238, Note_on_c, 1, 61, 92
3, 168345, Note_off_c, 1, 61, 64
3, 168354, Note_on_c, 1, 59, 84
3, 168450, Note_off_c, 1, 59, 64
3, 168473, Note_on_c, 1, 58, 102
3, 168569, Note_off_c, 1, 58, 64
3, 168592, Note_on_c, 1, 56, 85
3, 168674, Note_off_c, 1, 56, 64
3, 168711, Note_on_c, 1, 54, 82
3, 168810, Note_off_c, 1, 54, 64
3, 168829, Note_on_c, 1, 56, 75
3, 168925, Note_off_c, 1, 56, 64
3, 168957, Note_on_c, 1, 58, 103
3, 169069, Note_off_c, 1, 58, 64
3, 169081, Note_on_c, 1, 59, 78
3, 169203, Note_off_c, 1, 59, 64
3, 169204, Note_on_c, 1, 58, 78
3, 169308, Note_off_c, 1, 58, 64
3, 169316, Note_on_c, 1, 56, 80
3, 169403, Note_off_c, 1, 56, 64
3, 169438, Note_on_c, 1, 54, 66
3, 169448, Control_c, 1, 11, 96
3, 169502, Control_c, 1, 11, 84
3, 169555, Control_c, 1, 11, 72
3, 169580, Note_off_c, 1, 54, 64
3, 169608, Control_c, 1, 11, 100
3, 169678, Note_on_c, 1, 78, 113
3, 169692, Control_c, 1, 11, 96
3, 169732, Control_c, 1, 11, 88
3, 169772, Control_c, 1, 11, 80
3, 169785, Note_off_c, 1, 78, 64
3, 169811, Control_c, 1, 11, 72
3, 169860, Control_c, 1, 11, 100
3, 169919, Note_on_c, 1, 77, 110
3, 170039, Note_on_c, 1, 73, 80
3, 170040, Note_off_c, 1, 77, 64
3, 170122, Note_off_c, 1, 73, 64
3, 170160, Note_on_c, 1, 77, 106
3, 170264, Note_off_c, 1, 77, 64
3, 170279, Note_on_c, 1, 73, 81
3, 170367, Note_off_c, 1, 73, 64
3, 170397, Note_on_c, 1, 77, 110
3, 170496, Note_off_c, 1, 77, 64
3, 170513, Note_on_c, 1, 73, 79
3, 170603, Note_off_c, 1, 73, 64
3, 170636, Note_on_c, 1, 77, 104
3, 170741, Note_off_c, 1, 77, 64
3, 170752, Note_on_c, 1, 73, 81
3, 170842, Note_off_c, 1, 73, 64
3, 170875, Note_on_c, 1, 76, 104
3, 170983, Note_off_c, 1, 76, 64
3, 170994, Note_on_c, 1, 73, 78
3, 171076, Note_off_c, 1, 73, 64
3, 171112, Note_on_c, 1, 76, 104
3, 171214, Note_off_c, 1, 76, 64
3, 171234, Note_on_c, 1, 73, 88
3, 171325, Note_off_c, 1, 73, 64
3, 171351, Note_on_c, 1, 76, 102
3, 171440, Note_off_c, 1, 76, 64
3, 171473, Note_on_c, 1, 73, 85
3, 171552, Note_off_c, 1, 73, 64
3, 171595, Note_on_c, 1, 76, 86
3, 171696, Note_off_c, 1, 76, 64
3, 171712, Note_on_c, 1, 73, 76
3, 171802, Note_off_c, 1, 73, 64
3, 171841, Note_on_c, 1, 75, 107
3, 171960, Note_off_c, 1, 75, 64
3, 171961, Note_on_c, 1, 71, 80
3, 172035, Note_off_c, 1, 71, 64
3, 172078, Note_on_c, 1, 75, 106
3, 172179, Note_off_c, 1, 75, 64
3, 172201, Note_on_c, 1, 71, 86
3, 172277, Note_off_c, 1, 71, 64
3, 172315, Note_on_c, 1, 75, 100
3, 172394, Note_off_c, 1, 75, 64
3, 172431, Note_on_c, 1, 71, 86
3, 172507, Note_off_c, 1, 71, 64
3, 172550, Note_on_c, 1, 75, 91
3, 172630, Note_off_c, 1, 75, 64
3, 172671, Note_on_c, 1, 71, 86
3, 172746, Note_off_c, 1, 71, 64
3, 172796, Note_on_c, 1, 75, 104
3, 172914, Note_off_c, 1, 75, 64
3, 172916, Note_on_c, 1, 72, 81
3, 173000, Note_off_c, 1, 72, 64
3, 173033, Note_on_c, 1, 75, 88
3, 173136, Note_off_c, 1, 75, 64
3, 173151, Note_on_c, 1, 72, 69
3, 173239, Note_off_c, 1, 72, 64
3, 173270, Note_on_c, 1, 75, 100
3, 173366, Note_off_c, 1, 75, 64
3, 173390, Note_on_c, 1, 72, 82
3, 173478, Note_off_c, 1, 72, 64
3, 173510, Note_on_c, 1, 75, 88
3, 173604, Note_off_c, 1, 75, 64
3, 173632, Note_on_c, 1, 72, 72
3, 173712, Note_off_c, 1, 72, 64
3, 173756, Note_on_c, 1, 74, 95
3, 173857, Note_off_c, 1, 74, 64
3, 173878, Note_on_c, 1, 70, 74
3, 173970, Note_off_c, 1, 70, 64
3, 173994, Note_on_c, 1, 74, 85
3, 174094, Note_off_c, 1, 74, 64
3, 174116, Note_on_c, 1, 70, 74
3, 174204, Note_off_c, 1, 70, 64
3, 174235, Note_on_c, 1, 74, 87
3, 174322, Note_off_c, 1, 74, 64
3, 174357, Note_on_c, 1, 70, 70
3, 174455, Note_off_c, 1, 70, 64
3, 174474, Note_on_c, 1, 74, 74
3, 174570, Note_off_c, 1, 74, 64
3, 174594, Note_on_c, 1, 70, 66
3, 174687, Note_off_c, 1, 70, 64
3, 174719, Note_on_c, 1, 73, 87
3, 174804, Note_off_c, 1, 73, 64
3, 174839, Note_on_c, 1, 70, 65
3, 174926, Note_off_c, 1, 70, 64
3, 174957, Note_on_c, 1, 73, 73
3, 175054, Note_off_c, 1, 73, 64
3, 175078, Note_on_c, 1, 70, 62
3, 175163, Note_off_c, 1, 70, 64
3, 175198, Note_on_c, 1, 73, 73
3, 175284, Note_off_c, 1, 73, 64
3, 175316, Note_on_c, 1, 70, 73
3, 175396, Note_off_c, 1, 70, 64
3, 175435, Note_on_c, 1, 73, 72
3, 175529, Note_off_c, 1, 73, 64
3, 175555, Note_on_c, 1, 70, 61
3, 175636, Note_off_c, 1, 70, 64
3, 175676, Note_on_c, 1, 71, 79
3, 175772, Note_off_c, 1, 71, 64
3, 175795, Note_on_c, 1, 68, 57
3, 175884, Note_off_c, 1, 68, 64
3, 175911, Note_on_c, 1, 71, 67
3, 176005, Note_off_c, 1, 71, 64
3, 176033, Note_on_c, 1, 68, 57
3, 176121, Note_off_c, 1, 68, 64
3, 176150, Note_on_c, 1, 71, 71
3, 176246, Note_off_c, 1, 71, 64
3, 176272, Note_on_c, 1, 68, 60
3, 176365, Note_off_c, 1, 68, 64
3, 176395, Note_on_c, 1, 71, 70
3, 176491, Note_off_c, 1, 71, 64
3, 176516, Note_on_c, 1, 68, 60
3, 176601, Note_off_c, 1, 68, 64
3, 176640, Note_on_c, 1, 69, 107
3, 176757, Note_on_c, 1, 68, 66
3, 176777, Note_off_c, 1, 69, 64
3, 176873, Note_off_c, 1, 68, 64
3, 176875, Note_on_c, 1, 69, 60
3, 176980, Note_off_c, 1, 69, 64
3, 177000, Note_on_c, 1, 76, 92
3, 177089, Note_off_c, 1, 76, 64
3, 177113, Note_on_c, 1, 73, 92
3, 177212, Note_off_c, 1, 73, 64
3, 177228, Note_on_c, 1, 69, 89
3, 177309, Note_off_c, 1, 69, 64
3, 177344, Note_on_c, 1, 64, 78
3, 177422, Note_off_c, 1, 64, 64
3, 177464, Note_on_c, 1, 61, 78
3, 177532, Note_off_c, 1, 61, 64
3, 177608, Note_on_c, 1, 69, 107
3, 177718, Note_on_c, 1, 68, 78
3, 177739, Note_off_c, 1, 69, 64
3, 177841, Note_on_c, 1, 69, 60
3, 177870, Note_off_c, 1, 68, 64
3, 177945, Note_off_c, 1, 69, 64
3, 177958, Note_on_c, 1, 76, 95
3, 178038, Note_off_c, 1, 76, 64
3, 178077, Note_on_c, 1, 73, 95
3, 178165, Note_off_c, 1, 73, 64
3, 178192, Note_on_c, 1, 69, 89
3, 178263, Note_off_c, 1, 69, 64
3, 178309, Note_on_c, 1, 64, 78
3, 178385, Note_off_c, 1, 64, 64
3, 178430, Note_on_c, 1, 61, 78
3, 178496, Note_off_c, 1, 61, 64
3, 178561, Note_on_c, 1, 71, 113
3, 178676, Note_on_c, 1, 70, 78
3, 178695, Note_off_c, 1, 71, 64
3, 178790, Note_on_c, 1, 71, 78
3, 178794, Note_off_c, 1, 70, 64
3, 178887, Note_off_c, 1, 71, 64
3, 178920, Note_on_c, 1, 77, 97
3, 179012, Note_off_c, 1, 77, 64
3, 179036, Note_on_c, 1, 71, 97
3, 179129, Note_off_c, 1, 71, 64
3, 179152, Note_on_c, 1, 68, 81
3, 179232, Note_off_c, 1, 68, 64
3, 179267, Note_on_c, 1, 65, 71
3, 179348, Note_off_c, 1, 65, 64
3, 179390, Note_on_c, 1, 62, 60
3, 179460, Note_off_c, 1, 62, 64
3, 179525, Note_on_c, 1, 71, 115
3, 179640, Note_on_c, 1, 70, 86
3, 179656, Note_off_c, 1, 71, 64
3, 179754, Note_on_c, 1, 71, 78
3, 179758, Note_off_c, 1, 70, 64
3, 179838, Note_off_c, 1, 71, 64
3, 179884, Note_on_c, 1, 77, 95
3, 179971, Note_off_c, 1, 77, 64
3, 180004, Note_on_c, 1, 71, 95
3, 180102, Note_off_c, 1, 71, 64
3, 180118, Note_on_c, 1, 68, 84
3, 180193, Note_off_c, 1, 68, 64
3, 180231, Note_on_c, 1, 65, 79
3, 180309, Note_off_c, 1, 65, 64
3, 180354, Note_on_c, 1, 62, 74
3, 180425, Note_off_c, 1, 62, 64
3, 180481, Note_on_c, 1, 73, 115
3, 180596, Note_on_c, 1, 71, 78
3, 180610, Note_off_c, 1, 73, 64
3, 180715, Note_on_c, 1, 73, 70
3, 180731, Note_off_c, 1, 71, 64
3, 180796, Note_off_c, 1, 73, 64
3, 180840, Note_on_c, 1, 79, 95
3, 180931, Note_off_c, 1, 79, 64
3, 180955, Note_on_c, 1, 73, 101
3, 181056, Note_off_c, 1, 73, 64
3, 181071, Note_on_c, 1, 70, 89
3, 181151, Note_off_c, 1, 70, 64
3, 181187, Note_on_c, 1, 67, 84
3, 181274, Note_off_c, 1, 67, 64
3, 181305, Note_on_c, 1, 63, 75
3, 181383, Note_off_c, 1, 63, 64
3, 181441, Note_on_c, 1, 73, 110
3, 181556, Note_on_c, 1, 71, 92
3, 181570, Note_off_c, 1, 73, 64
3, 181668, Note_off_c, 1, 71, 64
3, 181670, Note_on_c, 1, 73, 78
3, 181746, Note_off_c, 1, 73, 64
3, 181797, Note_on_c, 1, 79, 97
3, 181892, Note_off_c, 1, 79, 64
3, 181915, Note_on_c, 1, 73, 101
3, 182006, Note_off_c, 1, 73, 64
3, 182032, Note_on_c, 1, 70, 83
3, 182104, Note_off_c, 1, 70, 64
3, 182151, Note_on_c, 1, 67, 86
3, 182232, Note_off_c, 1, 67, 64
3, 182268, Note_on_c, 1, 63, 77
3, 182335, Note_off_c, 1, 63, 64
3, 182404, Note_on_c, 1, 71, 116
3, 182516, Note_on_c, 1, 70, 92
3, 182536, Note_off_c, 1, 71, 64
3, 182638, Note_on_c, 1, 71, 82
3, 182643, Note_off_c, 1, 70, 64
3, 182720, Note_off_c, 1, 71, 64
3, 182765, Note_on_c, 1, 80, 95
3, 182852, Note_off_c, 1, 80, 64
3, 182878, Note_on_c, 1, 77, 95
3, 182971, Note_off_c, 1, 77, 64
3, 182996, Note_on_c, 1, 71, 92
3, 183073, Note_off_c, 1, 71, 64
3, 183109, Note_on_c, 1, 68, 78
3, 183174, Note_off_c, 1, 68, 64
3, 183229, Note_on_c, 1, 62, 77
3, 183307, Note_off_c, 1, 62, 64
3, 183355, Note_on_c, 1, 71, 116
3, 183468, Note_on_c, 1, 70, 79
3, 183479, Note_off_c, 1, 71, 64
3, 183589, Note_on_c, 1, 71, 78
3, 183603, Note_off_c, 1, 70, 64
3, 183700, Note_off_c, 1, 71, 64
3, 183719, Note_on_c, 1, 80, 103
3, 183818, Note_off_c, 1, 80, 64
3, 183837, Note_on_c, 1, 77, 103
3, 183931, Note_off_c, 1, 77, 64
3, 183951, Note_on_c, 1, 71, 90
3, 184027, Note_off_c, 1, 71, 64
3, 184067, Note_on_c, 1, 68, 78
3, 184144, Note_off_c, 1, 68, 64
3, 184185, Note_on_c, 1, 62, 75
3, 184273, Note_off_c, 1, 62, 64
3, 184321, Note_on_c, 1, 70, 116
3, 184440, Note_on_c, 1, 68, 79
3, 184452, Note_off_c, 1, 70, 64
3, 184556, Note_off_c, 1, 68, 64
3, 184565, Note_on_c, 1, 70, 68
3, 184648, Note_off_c, 1, 70, 64
3, 184680, Note_on_c, 1, 80, 101
3, 184772, Note_off_c, 1, 80, 64
3, 184798, Note_on_c, 1, 76, 101
3, 184895, Note_off_c, 1, 76, 64
3, 184909, Note_on_c, 1, 73, 80
3, 185002, Note_off_c, 1, 73, 64
3, 185026, Note_on_c, 1, 70, 87
3, 185114, Note_off_c, 1, 70, 64
3, 185147, Note_on_c, 1, 63, 78
3, 185228, Note_off_c, 1, 63, 64
3, 185285, Note_on_c, 1, 70, 116
3, 185395, Note_on_c, 1, 68, 90
3, 185400, Note_off_c, 1, 70, 64
3, 185513, Note_on_c, 1, 70, 78
3, 185514, Note_off_c, 1, 68, 64
3, 185594, Note_off_c, 1, 70, 64
3, 185642, Note_on_c, 1, 80, 103
3, 185736, Note_off_c, 1, 80, 64
3, 185759, Note_on_c, 1, 76, 103
3, 185853, Note_off_c, 1, 76, 64
3, 185872, Note_on_c, 1, 73, 78
3, 185958, Note_off_c, 1, 73, 64
3, 185991, Note_on_c, 1, 70, 84
3, 186075, Note_off_c, 1, 70, 64
3, 186116, Note_on_c, 1, 63, 78
3, 186201, Note_off_c, 1, 63, 64
3, 186241, Note_on_c, 1, 70, 115
3, 186354, Note_on_c, 1, 68, 88
3, 186357, Note_off_c, 1, 70, 64
3, 186468, Note_on_c, 1, 70, 84
3, 186472, Note_off_c, 1, 68, 64
3, 186558, Note_off_c, 1, 70, 64
3, 186600, Note_on_c, 1, 79, 103
3, 186679, Note_off_c, 1, 79, 64
3, 186715, Note_on_c, 1, 73, 103
3, 186813, Note_off_c, 1, 73, 64
3, 186830, Note_on_c, 1, 70, 80
3, 186903, Note_off_c, 1, 70, 64
3, 186945, Note_on_c, 1, 67, 66
3, 187021, Note_off_c, 1, 67, 64
3, 187062, Note_on_c, 1, 63, 78
3, 187146, Note_off_c, 1, 63, 64
3, 187203, Note_on_c, 1, 70, 115
3, 187313, Note_on_c, 1, 68, 79
3, 187319, Note_off_c, 1, 70, 64
3, 187432, Note_on_c, 1, 70, 89
3, 187436, Note_off_c, 1, 68, 64
3, 187549, Note_off_c, 1, 70, 64
3, 187563, Note_on_c, 1, 79, 110
3, 187648, Note_off_c, 1, 79, 64
3, 187683, Note_on_c, 1, 73, 112
3, 187785, Note_off_c, 1, 73, 64
3, 187802, Note_on_c, 1, 70, 84
3, 187901, Note_off_c, 1, 70, 64
3, 187916, Note_on_c, 1, 63, 95
3, 187998, Note_off_c, 1, 63, 64
3, 188036, Note_on_c, 1, 79, 113
3, 188131, Note_off_c, 1, 79, 64
3, 188142, Control_c, 1, 11, 92
3, 188160, Note_on_c, 1, 80, 115
3, 188201, Control_c, 1, 11, 108
3, 188250, Control_c, 1, 11, 104
3, 188288, Control_c, 1, 11, 94
3, 188326, Control_c, 1, 11, 85
3, 188333, Note_off_c, 1, 80, 64
3, 188363, Control_c, 1, 11, 76
3, 188394, Control_c, 1, 11, 100
3, 188404, Note_on_c, 1, 76, 127
3, 188494, Note_off_c, 1, 76, 64
3, 188517, Note_on_c, 1, 75, 104
3, 188607, Note_off_c, 1, 75, 64
3, 188630, Note_on_c, 1, 76, 101
3, 188640, Control_c, 1, 11, 96
3, 188683, Control_c, 1, 11, 88
3, 188726, Control_c, 1, 11, 81
3, 188769, Control_c, 1, 11, 74
3, 188780, Note_off_c, 1, 76, 64
3, 188820, Control_c, 1, 11, 100
3, 189831, Note_on_c, 1, 83, 127
3, 189911, Note_off_c, 1, 83, 64
3, 190026, Control_c, 1, 11, 90
3, 190074, Control_c, 1, 11, 97
3, 190080, Note_on_c, 1, 82, 126
3, 190121, Control_c, 1, 11, 106
3, 190158, Control_c, 1, 11, 110
3, 190198, Control_c, 1, 11, 98
3, 190238, Control_c, 1, 11, 86
3, 190271, Note_off_c, 1, 82, 64
3, 190277, Control_c, 1, 11, 74
3, 190324, Note_on_c, 1, 75, 120
3, 190350, Control_c, 1, 11, 100
3, 190414, Note_off_c, 1, 75, 64
3, 190437, Note_on_c, 1, 73, 85
3, 190527, Note_off_c, 1, 73, 64
3, 190547, Note_on_c, 1, 75, 85
3, 190550, Control_c, 1, 11, 94
3, 190595, Control_c, 1, 11, 86
3, 190640, Control_c, 1, 11, 78
3, 190684, Control_c, 1, 11, 70
3, 190697, Note_off_c, 1, 75, 64
3, 190780, Control_c, 1, 11, 100
3, 191754, Note_on_c, 1, 82, 127
3, 191822, Note_off_c, 1, 82, 64
3, 191970, Control_c, 1, 11, 90
3, 192000, Note_on_c, 1, 80, 126
3, 192008, Control_c, 1, 11, 95
3, 192046, Control_c, 1, 11, 101
3, 192083, Control_c, 1, 11, 108
3, 192114, Control_c, 1, 11, 102
3, 192151, Control_c, 1, 11, 94
3, 192189, Control_c, 1, 11, 87
3, 192191, Note_off_c, 1, 80, 64
3, 192220, Control_c, 1, 11, 100
3, 192244, Note_on_c, 1, 73, 117
3, 192334, Note_off_c, 1, 73, 64
3, 192357, Note_on_c, 1, 72, 82
3, 192447, Note_off_c, 1, 72, 64
3, 192475, Control_c, 1, 11, 94
3, 192476, Note_on_c, 1, 73, 96
3, 192516, Control_c, 1, 11, 86
3, 192557, Control_c, 1, 11, 79
3, 192598, Control_c, 1, 11, 71
3, 192626, Note_off_c, 1, 73, 64
3, 192639, Control_c, 1, 11, 64
3, 192720, Control_c, 1, 11, 100
3, 193679, Note_on_c, 1, 80, 126
3, 193749, Note_off_c, 1, 80, 64
3, 193902, Control_c, 1, 11, 88
3, 193920, Note_on_c, 1, 79, 117
3, 193941, Control_c, 1, 11, 98
3, 193979, Control_c, 1, 11, 110
3, 194016, Control_c, 1, 11, 104
3, 194064, Control_c, 1, 11, 89
3, 194111, Control_c, 1, 11, 74
3, 194113, Note_off_c, 1, 79, 64
3, 194142, Control_c, 1, 11, 100
3, 194164, Note_on_c, 1, 73, 126
3, 194254, Note_off_c, 1, 73, 64
3, 194277, Note_on_c, 1, 71, 88
3, 194367, Note_off_c, 1, 71, 64
3, 194394, Note_on_c, 1, 73, 102
3, 194400, Control_c, 1, 11, 94
3, 194442, Control_c, 1, 11, 88
3, 194484, Control_c, 1, 11, 83
3, 194526, Control_c, 1, 11, 77
3, 194544, Note_off_c, 1, 73, 64
3, 194567, Control_c, 1, 11, 72
3, 194616, Control_c, 1, 11, 100
3, 194644, Note_on_c, 1, 70, 126
3, 194734, Note_off_c, 1, 70, 64
3, 194757, Note_on_c, 1, 68, 84
3, 194847, Note_off_c, 1, 68, 64
3, 194876, Note_on_c, 1, 70, 88
3, 194886, Control_c, 1, 11, 98
3, 194934, Control_c, 1, 11, 90
3, 194982, Control_c, 1, 11, 82
3, 195026, Note_off_c, 1, 70, 64
3, 195029, Control_c, 1, 11, 74
3, 195090, Control_c, 1, 11, 100
3, 195124, Note_on_c, 1, 67, 117
3, 195214, Note_off_c, 1, 67, 64
3, 195237, Note_on_c, 1, 65, 84
3, 195327, Note_off_c, 1, 65, 64
3, 195356, Note_on_c, 1, 67, 94
3, 195372, Control_c, 1, 11, 100
3, 195418, Control_c, 1, 11, 92
3, 195464, Control_c, 1, 11, 84
3, 195506, Note_off_c, 1, 67, 64
3, 195509, Control_c, 1, 11, 76
3, 195564, Control_c, 1, 11, 100
3, 195600, Note_on_c, 1, 75, 108
3, 195696, Note_off_c, 1, 75, 64
3, 195800, Control_c, 1, 11, 76
3, 195839, Control_c, 1, 11, 84
3, 195840, Note_on_c, 1, 68, 120
3, 195878, Control_c, 1, 11, 92
3, 195917, Control_c, 1, 11, 101
3, 195956, Control_c, 1, 11, 109
3, 195995, Control_c, 1, 11, 118
3, 196034, Control_c, 1, 11, 127
3, 196060, Control_c, 1, 11, 112
3, 196102, Control_c, 1, 11, 95
3, 196141, Note_off_c, 1, 68, 64
3, 196144, Control_c, 1, 11, 78
3, 196165, Control_c, 1, 11, 100
3, 196204, Note_on_c, 1, 70, 111
3, 196263, Note_off_c, 1, 70, 64
3, 196302, Control_c, 1, 11, 84
3, 196320, Note_on_c, 1, 71, 103
3, 196342, Control_c, 1, 11, 89
3, 196382, Control_c, 1, 11, 94
3, 196421, Control_c, 1, 11, 100
3, 196438, Note_on_c, 1, 70, 94
3, 196451, Note_off_c, 1, 71, 64
3, 196486, Note_on_c, 1, 71, 94
3, 196495, Note_off_c, 1, 70, 64
3, 196522, Note_on_c, 1, 70, 85
3, 196535, Note_off_c, 1, 71, 64
3, 196561, Note_on_c, 1, 71, 85
3, 196575, Note_off_c, 1, 70, 64
3, 196593, Note_on_c, 1, 70, 85
3, 196604, Note_off_c, 1, 71, 64
3, 196625, Note_on_c, 1, 71, 85
3, 196637, Note_off_c, 1, 70, 64
3, 196665, Note_on_c, 1, 70, 85
3, 196669, Note_off_c, 1, 71, 64
3, 196705, Note_off_c, 1, 70, 64
3, 196707, Note_on_c, 1, 68, 89
3, 196769, Note_off_c, 1, 68, 64
3, 196794, Control_c, 1, 11, 92
3, 196821, Note_on_c, 1, 68, 85
3, 196848, Control_c, 1, 11, 101
3, 196901, Control_c, 1, 11, 112
3, 196938, Control_c, 1, 11, 106
3, 196986, Control_c, 1, 11, 98
3, 197034, Control_c, 1, 11, 90
3, 197064, Note_off_c, 1, 68, 64
3, 197081, Control_c, 1, 11, 82
3, 197118, Control_c, 1, 11, 100
3, 197520, Note_on_c, 1, 56, 127
3, 197624, Note_off_c, 1, 56, 64
3, 197710, Control_c, 1, 11, 86
3, 197750, Control_c, 1, 11, 89
3, 197760, Note_on_c, 1, 59, 127
3, 197790, Control_c, 1, 11, 92
3, 197830, Control_c, 1, 11, 96
3, 197869, Control_c, 1, 11, 100
3, 197906, Note_off_c, 1, 59, 64
3, 197995, Note_on_c, 1, 63, 114
3, 198088, Note_off_c, 1, 63, 64
3, 198234, Note_on_c, 1, 59, 126
3, 198328, Note_off_c, 1, 59, 64
3, 198474, Note_on_c, 1, 56, 127
3, 198578, Note_off_c, 1, 56, 64
3, 198675, Control_c, 1, 11, 84
3, 198715, Control_c, 1, 11, 89
3, 198719, Note_on_c, 1, 59, 127
3, 198755, Control_c, 1, 11, 94
3, 198794, Control_c, 1, 11, 100
3, 198865, Note_off_c, 1, 59, 64
3, 198958, Note_on_c, 1, 63, 111
3, 199050, Note_off_c, 1, 63, 64
3, 199199, Note_on_c, 1, 59, 127
3, 199307, Note_off_c, 1, 59, 64
3, 199442, Note_on_c, 1, 56, 126
3, 199539, Note_off_c, 1, 56, 64
3, 199677, Note_on_c, 1, 63, 127
3, 199766, Note_off_c, 1, 63, 64
3, 199934, Note_on_c, 1, 63, 126
3, 200007, Note_off_c, 1, 63, 64
3, 200036, Note_on_c, 1, 63, 115
3, 200106, Note_off_c, 1, 63, 64
3, 200147, Note_on_c, 1, 63, 114
3, 200155, Control_c, 1, 11, 96
3, 200200, Control_c, 1, 11, 89
3, 200245, Control_c, 1, 11, 83
3, 200290, Control_c, 1, 11, 76
3, 200332, Note_off_c, 1, 63, 64
3, 200334, Control_c, 1, 11, 70
3, 200385, Control_c, 1, 11, 100
3, 200640, Note_on_c, 1, 75, 127
3, 200756, Note_on_c, 1, 74, 104
3, 200773, Note_off_c, 1, 75, 64
3, 200877, Note_on_c, 1, 75, 85
3, 200878, Note_off_c, 1, 74, 64
3, 200980, Note_off_c, 1, 75, 64
3, 201008, Note_on_c, 1, 77, 110
3, 201094, Note_off_c, 1, 77, 64
3, 201125, Note_on_c, 1, 75, 116
3, 201213, Note_off_c, 1, 75, 64
3, 201235, Note_on_c, 1, 78, 94
3, 201322, Note_off_c, 1, 78, 64
3, 201353, Note_on_c, 1, 77, 116
3, 201444, Note_off_c, 1, 77, 64
3, 201480, Note_on_c, 1, 80, 96
3, 201572, Note_off_c, 1, 80, 64
3, 201604, Note_on_c, 1, 78, 117
3, 201713, Note_on_c, 1, 77, 74
3, 201725, Note_off_c, 1, 78, 64
3, 201833, Note_on_c, 1, 78, 92
3, 201845, Note_off_c, 1, 77, 64
3, 201912, Note_off_c, 1, 78, 64
3, 201957, Note_on_c, 1, 80, 102
3, 202051, Note_off_c, 1, 80, 64
3, 202080, Note_on_c, 1, 78, 124
3, 202166, Note_off_c, 1, 78, 64
3, 202192, Note_on_c, 1, 82, 106
3, 202269, Note_off_c, 1, 82, 64
3, 202310, Note_on_c, 1, 80, 112
3, 202404, Note_off_c, 1, 80, 64
3, 202429, Note_on_c, 1, 83, 108
3, 202517, Note_off_c, 1, 83, 64
3, 202554, Note_on_c, 1, 82, 127
3, 202671, Note_off_c, 1, 82, 64
3, 202673, Note_on_c, 1, 80, 107
3, 202791, Note_on_c, 1, 82, 108
3, 202809, Note_off_c, 1, 80, 64
3, 202882, Note_off_c, 1, 82, 64
3, 202922, Note_on_c, 1, 83, 123
3, 203003, Note_off_c, 1, 83, 64
3, 203040, Note_on_c, 1, 82, 127
3, 203144, Note_off_c, 1, 82, 64
3, 203150, Note_on_c, 1, 83, 112
3, 203241, Note_off_c, 1, 83, 64
3, 203268, Note_on_c, 1, 82, 118
3, 203357, Note_off_c, 1, 82, 64
3, 203388, Note_on_c, 1, 80, 100
3, 203467, Note_off_c, 1, 80, 64
3, 203516, Note_on_c, 1, 78, 120
3, 203612, Note_off_c, 1, 78, 64
3, 203630, Note_on_c, 1, 80, 85
3, 203726, Note_off_c, 1, 80, 64
3, 203751, Note_on_c, 1, 78, 100
3, 203848, Note_off_c, 1, 78, 64
3, 203873, Note_on_c, 1, 77, 107
3, 203950, Note_off_c, 1, 77, 64
3, 203995, Note_on_c, 1, 75, 111
3, 204085, Note_off_c, 1, 75, 64
3, 204115, Note_on_c, 1, 78, 100
3, 204208, Note_off_c, 1, 78, 64
3, 204236, Note_on_c, 1, 77, 110
3, 204315, Note_off_c, 1, 77, 64
3, 204345, Note_on_c, 1, 75, 96
3, 204431, Note_off_c, 1, 75, 64
3, 204469, Note_on_c, 1, 74, 96
3, 204591, Note_off_c, 1, 74, 64
3, 204725, Note_on_c, 1, 70, 85
3, 204827, Note_off_c, 1, 70, 64
3, 205204, Note_on_c, 1, 78, 127
3, 205294, Note_off_c, 1, 78, 64
3, 205317, Note_on_c, 1, 77, 99
3, 205407, Note_off_c, 1, 77, 64
3, 205435, Note_on_c, 1, 78, 90
3, 205440, Control_c, 1, 11, 96
3, 205486, Control_c, 1, 11, 89
3, 205533, Control_c, 1, 11, 82
3, 205579, Control_c, 1, 11, 76
3, 205600, Note_off_c, 1, 78, 64
3, 205630, Control_c, 1, 11, 100
3, 205684, Note_on_c, 1, 73, 124
3, 205774, Note_off_c, 1, 73, 64
3, 205797, Note_on_c, 1, 71, 97
3, 205887, Note_off_c, 1, 71, 64
3, 205913, Note_on_c, 1, 73, 90
3, 205925, Control_c, 1, 11, 94
3, 205965, Control_c, 1, 11, 88
3, 206005, Control_c, 1, 11, 83
3, 206044, Control_c, 1, 11, 78
3, 206063, Note_off_c, 1, 73, 64
3, 206115, Control_c, 1, 11, 100
3, 206164, Note_on_c, 1, 78, 127
3, 206254, Note_off_c, 1, 78, 64
3, 206277, Note_on_c, 1, 77, 100
3, 206367, Note_off_c, 1, 77, 64
3, 206392, Note_on_c, 1, 78, 92
3, 206400, Control_c, 1, 11, 96
3, 206443, Control_c, 1, 11, 88
3, 206486, Control_c, 1, 11, 81
3, 206529, Control_c, 1, 11, 74
3, 206557, Note_off_c, 1, 78, 64
3, 206620, Control_c, 1, 11, 100
3, 206644, Note_on_c, 1, 70, 127
3, 206734, Note_off_c, 1, 70, 64
3, 206757, Note_on_c, 1, 68, 102
3, 206847, Note_off_c, 1, 68, 64
3, 206873, Note_on_c, 1, 70, 92
3, 206875, Control_c, 1, 11, 94
3, 206918, Control_c, 1, 11, 87
3, 206961, Control_c, 1, 11, 80
3, 207004, Control_c, 1, 11, 74
3, 207023, Note_off_c, 1, 70, 64
3, 207080, Control_c, 1, 11, 100
3, 207124, Note_on_c, 1, 78, 127
3, 207214, Note_off_c, 1, 78, 64
3, 207237, Note_on_c, 1, 77, 100
3, 207327, Note_off_c, 1, 77, 64
3, 207355, Note_on_c, 1, 78, 84
3, 207365, Control_c, 1, 11, 96
3, 207406, Control_c, 1, 11, 87
3, 207448, Control_c, 1, 11, 78
3, 207489, Control_c, 1, 11, 70
3, 207530, Note_off_c, 1, 78, 64
3, 207540, Control_c, 1, 11, 100
3, 207604, Note_on_c, 1, 66, 127
3, 207694, Note_off_c, 1, 66, 64
3, 207717, Note_on_c, 1, 68, 108
3, 207807, Note_off_c, 1, 68, 64
3, 207833, Note_on_c, 1, 70, 127
3, 207840, Control_c, 1, 11, 96
3, 207886, Control_c, 1, 11, 88
3, 207933, Control_c, 1, 11, 81
3, 207979, Control_c, 1, 11, 74
3, 207983, Note_off_c, 1, 70, 64
3, 208040, Control_c, 1, 11, 100
3, 208077, Note_on_c, 1, 72, 127
3, 208175, Note_off_c, 1, 72, 64
3, 208312, Note_on_c, 1, 73, 112
3, 208429, Note_off_c, 1, 73, 64
3, 208562, Note_on_c, 1, 61, 91
3, 208652, Note_off_c, 1, 61, 64
3, 209280, Note_on_c, 1, 77, 80
3, 209393, Note_on_c, 1, 75, 68
3, 209394, Note_off_c, 1, 77, 64
3, 209505, Note_off_c, 1, 75, 64
3, 209518, Note_on_c, 1, 77, 39
3, 209653, Note_off_c, 1, 77, 64
3, 210243, Note_on_c, 1, 77, 87
3, 210352, Note_off_c, 1, 77, 64
3, 210354, Note_on_c, 1, 75, 68
3, 210479, Note_on_c, 1, 77, 36
3, 210480, Note_off_c, 1, 75, 64
3, 210608, Note_off_c, 1, 77, 64
3, 211204, Note_on_c, 1, 76, 116
3, 211315, Note_on_c, 1, 75, 84
3, 211326, Note_off_c, 1, 76, 64
3, 211433, Note_on_c, 1, 76, 74
3, 211455, Note_off_c, 1, 75, 64
3, 211534, Note_off_c, 1, 76, 64
3, 211560, Note_on_c, 1, 85, 106
3, 211644, Note_off_c, 1, 85, 64
3, 211676, Note_on_c, 1, 82, 116
3, 211770, Note_off_c, 1, 82, 64
3, 211791, Note_on_c, 1, 76, 94
3, 211863, Note_off_c, 1, 76, 64
3, 211905, Note_on_c, 1, 73, 78
3, 211980, Note_off_c, 1, 73, 64
3, 212027, Note_on_c, 1, 66, 81
3, 212096, Note_off_c, 1, 66, 64
3, 212169, Note_on_c, 1, 76, 112
3, 212276, Note_on_c, 1, 75, 81
3, 212286, Note_off_c, 1, 76, 64
3, 212391, Note_on_c, 1, 76, 74
3, 212405, Note_off_c, 1, 75, 64
3, 212496, Note_off_c, 1, 76, 64
3, 212521, Note_on_c, 1, 85, 108
3, 212606, Note_off_c, 1, 85, 64
3, 212639, Note_on_c, 1, 82, 118
3, 212729, Note_off_c, 1, 82, 64
3, 212757, Note_on_c, 1, 76, 94
3, 212828, Note_off_c, 1, 76, 64
3, 212870, Note_on_c, 1, 73, 78
3, 212937, Note_off_c, 1, 73, 64
3, 212993, Note_on_c, 1, 66, 86
3, 213065, Note_off_c, 1, 66, 64
3, 213106, Note_on_c, 1, 75, 66
3, 213232, Note_on_c, 1, 76, 57
3, 213243, Note_off_c, 1, 75, 64
3, 213339, Note_off_c, 1, 76, 64
3, 213351, Note_on_c, 1, 75, 57
3, 213463, Note_off_c, 1, 75, 64
3, 214079, Note_on_c, 1, 75, 66
3, 214196, Note_on_c, 1, 76, 55
3, 214217, Note_off_c, 1, 75, 64
3, 214314, Note_on_c, 1, 75, 55
3, 214316, Note_off_c, 1, 76, 64
3, 214437, Note_off_c, 1, 75, 64
3, 215036, Note_on_c, 1, 75, 49
3, 215198, Note_off_c, 1, 75, 64
3, 215273, Note_on_c, 1, 75, 58
3, 215446, Note_off_c, 1, 75, 64
3, 215515, Note_on_c, 1, 75, 55
3, 215687, Note_off_c, 1, 75, 64
3, 215751, Note_on_c, 1, 75, 49
3, 215940, Note_off_c, 1, 75, 64
3, 215990, Note_on_c, 1, 75, 52
3, 216167, Note_off_c, 1, 75, 64
3, 216232, Note_on_c, 1, 75, 55
3, 216400, Note_off_c, 1, 75, 64
3, 216477, Note_on_c, 1, 75, 59
3, 216637, Note_off_c, 1, 75, 64
3, 216719, Note_on_c, 1, 75, 48
3, 216883, Note_off_c, 1, 75, 64
3, 216962, Note_on_c, 1, 80, 62
3, 217149, Note_off_c, 1, 80, 64
3, 217198, Note_on_c, 1, 80, 57
3, 217370, Note_off_c, 1, 80, 64
3, 217437, Note_on_c, 1, 80, 63
3, 217621, Note_off_c, 1, 80, 64
3, 217677, Note_on_c, 1, 80, 51
3, 217847, Note_off_c, 1, 80, 64
3, 217910, Note_on_c, 1, 80, 56
3, 218110, Note_off_c, 1, 80, 64
3, 218152, Note_on_c, 1, 80, 63
3, 218323, Note_off_c, 1, 80, 64
3, 218395, Note_on_c, 1, 80, 62
3, 218571, Note_off_c, 1, 80, 64
3, 218634, Note_on_c, 1, 80, 48
3, 218804, Note_off_c, 1, 80, 64
3, 218872, Note_on_c, 1, 79, 48
3, 219077, Note_off_c, 1, 79, 64
3, 219119, Note_on_c, 1, 79, 47
3, 219297, Note_off_c, 1, 79, 64
3, 219360, Note_on_c, 1, 79, 44
3, 219520, Note_off_c, 1, 79, 64
3, 219596, Note_on_c, 1, 79, 42
3, 219757, Note_off_c, 1, 79, 64
3, 219829, Note_on_c, 1, 79, 41
3, 220022, Note_off_c, 1, 79, 64
3, 220077, Note_on_c, 1, 79, 40
3, 220254, Note_off_c, 1, 79, 64
3, 220312, Note_on_c, 1, 79, 41
3, 220474, Note_off_c, 1, 79, 64
3, 220551, Note_on_c, 1, 79, 38
3, 220706, Note_off_c, 1, 79, 64
3, 220800, Note_on_c, 1, 78, 54
3, 220911, Note_on_c, 1, 77, 38
3, 220912, Note_off_c, 1, 78, 64
3, 221036, Note_on_c, 1, 78, 39
3, 221040, Control_c, 1, 11, 96
3, 221050, Note_off_c, 1, 77, 64
3, 221082, Control_c, 1, 11, 91
3, 221124, Control_c, 1, 11, 86
3, 221164, Note_off_c, 1, 78, 64
3, 221165, Control_c, 1, 11, 82
3, 221238, Control_c, 1, 11, 100
3, 221757, Note_on_c, 1, 78, 62
3, 221876, Note_on_c, 1, 77, 44
3, 221890, Note_off_c, 1, 78, 64
3, 221982, Control_c, 1, 11, 100
3, 221998, Note_on_c, 1, 78, 55
3, 222014, Note_off_c, 1, 77, 64
3, 222028, Control_c, 1, 11, 92
3, 222074, Control_c, 1, 11, 85
3, 222119, Control_c, 1, 11, 78
3, 222130, Note_off_c, 1, 78, 64
3, 222210, Control_c, 1, 11, 100
3, 222712, Note_on_c, 1, 78, 76
3, 222829, Note_on_c, 1, 77, 48
3, 222843, Note_off_c, 1, 78, 64
3, 222948, Control_c, 1, 11, 98
3, 222955, Note_on_c, 1, 78, 61
3, 222967, Note_off_c, 1, 77, 64
3, 222986, Control_c, 1, 11, 92
3, 223024, Control_c, 1, 11, 87
3, 223061, Control_c, 1, 11, 82
3, 223106, Note_off_c, 1, 78, 64
3, 223128, Control_c, 1, 11, 100
3, 223680, Note_on_c, 1, 78, 84
3, 223792, Note_on_c, 1, 77, 53
3, 223794, Note_off_c, 1, 78, 64
3, 223912, Note_on_c, 1, 78, 54
3, 223923, Note_off_c, 1, 77, 64
3, 223926, Control_c, 1, 11, 100
3, 223970, Control_c, 1, 11, 92
3, 224014, Control_c, 1, 11, 84
3, 224053, Note_off_c, 1, 78, 64
3, 224057, Control_c, 1, 11, 76
3, 224058, Control_c, 1, 11, 80
3, 224130, Control_c, 1, 11, 100
3, 224641, Note_on_c, 1, 78, 94
3, 224751, Note_on_c, 1, 77, 63
3, 224759, Note_off_c, 1, 78, 64
3, 224874, Note_on_c, 1, 78, 67
3, 224880, Control_c, 1, 11, 100
3, 224893, Note_off_c, 1, 77, 64
3, 224928, Control_c, 1, 11, 92
3, 224976, Control_c, 1, 11, 84
3, 225023, Control_c, 1, 11, 76
3, 225025, Note_off_c, 1, 78, 64
3, 225078, Control_c, 1, 11, 100
3, 225602, Note_on_c, 1, 78, 99
3, 225714, Note_off_c, 1, 78, 64
3, 225714, Note_on_c, 1, 77, 80
3, 225833, Note_on_c, 1, 78, 84
3, 225840, Control_c, 1, 11, 100
3, 225843, Note_off_c, 1, 77, 64
3, 225883, Control_c, 1, 11, 96
3, 225927, Control_c, 1, 11, 93
3, 225970, Control_c, 1, 11, 89
3, 225975, Note_off_c, 1, 78, 64
3, 226013, Control_c, 1, 11, 86
3, 226038, Control_c, 1, 11, 100
3, 226554, Note_on_c, 1, 78, 105
3, 226668, Note_on_c, 1, 77, 87
3, 226677, Note_off_c, 1, 78, 64
3, 226776, Control_c, 1, 11, 98
3, 226788, Note_on_c, 1, 78, 94
3, 226801, Note_off_c, 1, 77, 64
3, 226820, Control_c, 1, 11, 92
3, 226864, Control_c, 1, 11, 86
3, 226907, Control_c, 1, 11, 80
3, 226926, Note_off_c, 1, 78, 64
3, 226998, Control_c, 1, 11, 100
3, 227516, Note_on_c, 1, 78, 109
3, 227632, Note_on_c, 1, 77, 86
3, 227640, Note_off_c, 1, 78, 64
3, 227748, Control_c, 1, 11, 100
3, 227749, Note_on_c, 1, 78, 100
3, 227755, Note_off_c, 1, 77, 64
3, 227794, Control_c, 1, 11, 94
3, 227840, Control_c, 1, 11, 88
3, 227885, Control_c, 1, 11, 82
3, 227899, Note_off_c, 1, 78, 64
3, 227964, Control_c, 1, 11, 100
3, 228483, Note_on_c, 1, 77, 114
3, 228599, Note_on_c, 1, 78, 83
3, 228602, Note_off_c, 1, 77, 64
3, 228714, Control_c, 1, 11, 96
3, 228718, Note_on_c, 1, 77, 87
3, 228743, Note_off_c, 1, 78, 64
3, 228754, Control_c, 1, 11, 90
3, 228794, Control_c, 1, 11, 84
3, 228822, Note_off_c, 1, 77, 64
3, 228833, Control_c, 1, 11, 78
3, 228906, Control_c, 1, 11, 100
3, 229435, Note_on_c, 1, 77, 120
3, 229559, Note_on_c, 1, 78, 88
3, 229567, Note_off_c, 1, 77, 64
3, 229668, Control_c, 1, 11, 96
3, 229681, Note_on_c, 1, 77, 78
3, 229696, Note_off_c, 1, 78, 64
3, 229708, Control_c, 1, 11, 90
3, 229749, Control_c, 1, 11, 85
3, 229789, Control_c, 1, 11, 79
3, 229790, Note_off_c, 1, 77, 64
3, 229829, Control_c, 1, 11, 74
3, 229878, Control_c, 1, 11, 100
3, 230352, Control_c, 1, 11, 84
3, 230397, Note_on_c, 1, 78, 127
3, 230398, Control_c, 1, 11, 91
3, 230444, Control_c, 1, 11, 99
3, 230478, Control_c, 1, 11, 104
3, 230522, Control_c, 1, 11, 98
3, 230559, Note_off_c, 1, 78, 64
3, 230566, Control_c, 1, 11, 92
3, 230609, Control_c, 1, 11, 86
3, 230634, Control_c, 1, 11, 100
3, 230644, Note_on_c, 1, 74, 127
3, 230734, Note_off_c, 1, 74, 64
3, 230757, Note_on_c, 1, 73, 107
3, 230847, Note_off_c, 1, 73, 64
3, 230865, Control_c, 1, 11, 96
3, 230869, Note_on_c, 1, 74, 93
3, 230911, Control_c, 1, 11, 90
3, 230958, Control_c, 1, 11, 84
3, 231004, Control_c, 1, 11, 78
3, 231019, Note_off_c, 1, 74, 64
3, 231065, Control_c, 1, 11, 100
3, 232074, Note_on_c, 1, 81, 116
3, 232160, Note_off_c, 1, 81, 64
3, 232266, Control_c, 1, 11, 90
3, 232303, Control_c, 1, 11, 95
3, 232313, Note_on_c, 1, 80, 116
3, 232341, Control_c, 1, 11, 101
3, 232378, Control_c, 1, 11, 107
3, 232415, Control_c, 1, 11, 114
3, 232446, Control_c, 1, 11, 110
3, 232495, Note_off_c, 1, 80, 64
3, 232500, Control_c, 1, 11, 96
3, 232553, Control_c, 1, 11, 82
3, 232564, Note_on_c, 1, 73, 122
3, 232596, Control_c, 1, 11, 100
3, 232654, Note_off_c, 1, 73, 64
3, 232677, Note_on_c, 1, 72, 88
3, 232767, Note_off_c, 1, 72, 64
3, 232790, Control_c, 1, 11, 96
3, 232794, Note_on_c, 1, 73, 86
3, 232827, Control_c, 1, 11, 89
3, 232865, Control_c, 1, 11, 82
3, 232902, Control_c, 1, 11, 75
3, 232939, Control_c, 1, 11, 68
3, 232944, Note_off_c, 1, 73, 64
3, 233020, Control_c, 1, 11, 100
3, 233995, Note_on_c, 1, 80, 116
3, 234074, Note_off_c, 1, 80, 64
3, 234222, Control_c, 1, 11, 88
3, 234240, Note_on_c, 1, 78, 116
3, 234261, Control_c, 1, 11, 94
3, 234300, Control_c, 1, 11, 100
3, 234339, Control_c, 1, 11, 107
3, 234377, Control_c, 1, 11, 114
3, 234402, Control_c, 1, 11, 106
3, 234433, Note_off_c, 1, 78, 64
3, 234442, Control_c, 1, 11, 98
3, 234482, Control_c, 1, 11, 91
3, 234484, Note_on_c, 1, 71, 112
3, 234521, Control_c, 1, 11, 84
3, 234574, Note_off_c, 1, 71, 64
3, 234588, Control_c, 1, 11, 100
3, 234597, Note_on_c, 1, 70, 84
3, 234687, Note_off_c, 1, 70, 64
3, 234708, Note_on_c, 1, 71, 83
3, 234715, Control_c, 1, 11, 94
3, 234760, Control_c, 1, 11, 87
3, 234805, Control_c, 1, 11, 80
3, 234849, Control_c, 1, 11, 74
3, 234858, Note_off_c, 1, 71, 64
3, 234940, Control_c, 1, 11, 100
3, 235919, Note_on_c, 1, 78, 116
3, 235999, Note_off_c, 1, 78, 64
3, 236118, Control_c, 1, 11, 90
3, 236160, Note_on_c, 1, 77, 106
3, 236160, Control_c, 1, 11, 98
3, 236202, Control_c, 1, 11, 107
3, 236243, Control_c, 1, 11, 116
3, 236268, Control_c, 1, 11, 104
3, 236313, Control_c, 1, 11, 95
3, 236331, Note_off_c, 1, 77, 64
3, 236357, Control_c, 1, 11, 86
3, 236376, Control_c, 1, 11, 100
3, 236404, Note_on_c, 1, 80, 106
3, 236494, Note_off_c, 1, 80, 64
3, 236517, Note_on_c, 1, 78, 70
3, 236607, Note_off_c, 1, 78, 64
3, 236628, Control_c, 1, 11, 96
3, 236628, Note_on_c, 1, 80, 85
3, 236674, Control_c, 1, 11, 90
3, 236720, Control_c, 1, 11, 85
3, 236765, Control_c, 1, 11, 80
3, 236778, Note_off_c, 1, 80, 64
3, 236868, Control_c, 1, 11, 100
3, 237364, Note_on_c, 1, 83, 106
3, 237454, Note_off_c, 1, 83, 64
3, 237477, Note_on_c, 1, 81, 69
3, 237567, Note_off_c, 1, 81, 64
3, 237595, Note_on_c, 1, 83, 77
3, 237606, Control_c, 1, 11, 96
3, 237649, Control_c, 1, 11, 90
3, 237693, Control_c, 1, 11, 85
3, 237736, Control_c, 1, 11, 79
3, 237745, Note_off_c, 1, 83, 64
3, 237779, Control_c, 1, 11, 74
3, 237870, Control_c, 1, 11, 100
3, 238324, Note_on_c, 1, 86, 106
3, 238414, Note_off_c, 1, 86, 64
3, 238437, Note_on_c, 1, 85, 67
3, 238527, Note_off_c, 1, 85, 64
3, 238547, Note_on_c, 1, 86, 77
3, 238560, Control_c, 1, 11, 94
3, 238602, Control_c, 1, 11, 88
3, 238644, Control_c, 1, 11, 82
3, 238686, Control_c, 1, 11, 76
3, 238697, Note_off_c, 1, 86, 64
3, 238727, Control_c, 1, 11, 70
3, 238824, Control_c, 1, 11, 100
3, 239284, Note_on_c, 1, 85, 106
3, 239374, Note_off_c, 1, 85, 64
3, 239397, Note_on_c, 1, 83, 72
3, 239487, Note_off_c, 1, 83, 64
3, 239508, Note_on_c, 1, 85, 77
3, 239514, Control_c, 1, 11, 96
3, 239557, Control_c, 1, 11, 89
3, 239601, Control_c, 1, 11, 82
3, 239644, Control_c, 1, 11, 75
3, 239658, Note_off_c, 1, 85, 64
3, 239687, Control_c, 1, 11, 68
3, 239742, Control_c, 1, 11, 100
3, 240244, Note_on_c, 1, 83, 106
3, 240334, Note_off_c, 1, 83, 64
3, 240357, Note_on_c, 1, 81, 69
3, 240447, Note_off_c, 1, 81, 64
3, 240468, Control_c, 1, 11, 98
3, 240472, Note_on_c, 1, 83, 72
3, 240510, Control_c, 1, 11, 93
3, 240552, Control_c, 1, 11, 88
3, 240594, Control_c, 1, 11, 83
3, 240622, Note_off_c, 1, 83, 64
3, 240635, Control_c, 1, 11, 78
3, 240714, Control_c, 1, 11, 100
3, 241204, Note_on_c, 1, 80, 106
3, 241294, Note_off_c, 1, 80, 64
3, 241317, Note_on_c, 1, 78, 98
3, 241407, Note_off_c, 1, 78, 64
3, 241427, Note_on_c, 1, 77, 92
3, 241428, Control_c, 1, 11, 96
3, 241468, Control_c, 1, 11, 90
3, 241508, Control_c, 1, 11, 84
3, 241521, Note_off_c, 1, 77, 64
3, 241547, Control_c, 1, 11, 78
3, 241626, Control_c, 1, 11, 100
3, 241672, Note_on_c, 1, 73, 127
3, 241758, Note_off_c, 1, 73, 64
3, 241875, Control_c, 1, 11, 86
3, 241914, Control_c, 1, 11, 94
3, 241919, Note_on_c, 1, 74, 127
3, 241953, Control_c, 1, 11, 102
3, 241992, Control_c, 1, 11, 110
3, 242031, Control_c, 1, 11, 118
3, 242069, Control_c, 1, 11, 127
3, 242100, Control_c, 1, 11, 114
3, 242143, Control_c, 1, 11, 104
3, 242186, Control_c, 1, 11, 94
3, 242229, Note_off_c, 1, 74, 64
3, 242229, Control_c, 1, 11, 84
3, 242255, Control_c, 1, 11, 100
3, 242277, Note_on_c, 1, 73, 110
3, 242367, Note_off_c, 1, 73, 64
3, 242393, Note_on_c, 1, 71, 118
3, 242491, Note_off_c, 1, 71, 64
3, 242514, Note_on_c, 1, 69, 108
3, 242586, Note_off_c, 1, 69, 64
3, 242629, Note_on_c, 1, 68, 107
3, 242715, Note_off_c, 1, 68, 64
3, 242742, Note_on_c, 1, 66, 105
3, 242826, Note_off_c, 1, 66, 64
3, 242845, Control_c, 1, 11, 86
3, 242868, Note_on_c, 1, 73, 115
3, 242883, Control_c, 1, 11, 99
3, 242921, Control_c, 1, 11, 112
3, 242959, Control_c, 1, 11, 126
3, 242990, Control_c, 1, 11, 108
3, 243035, Control_c, 1, 11, 93
3, 243079, Control_c, 1, 11, 78
3, 243093, Note_off_c, 1, 73, 64
3, 243100, Control_c, 1, 11, 100
3, 243124, Note_on_c, 1, 71, 118
3, 243214, Note_off_c, 1, 71, 64
3, 243237, Note_on_c, 1, 69, 102
3, 243327, Note_off_c, 1, 69, 64
3, 243335, Control_c, 1, 11, 96
3, 243351, Note_on_c, 1, 68, 91
3, 243390, Control_c, 1, 11, 104
3, 243444, Control_c, 1, 11, 114
3, 243485, Control_c, 1, 11, 96
3, 243532, Control_c, 1, 11, 85
3, 243553, Note_off_c, 1, 68, 64
3, 243579, Control_c, 1, 11, 74
3, 243590, Control_c, 1, 11, 100
3, 243604, Note_on_c, 1, 66, 126
3, 243687, Note_off_c, 1, 66, 64
3, 243717, Note_on_c, 1, 65, 126
3, 243785, Note_off_c, 1, 65, 64
3, 243834, Note_on_c, 1, 66, 104
3, 243845, Control_c, 1, 11, 102
3, 243883, Control_c, 1, 11, 92
3, 243921, Control_c, 1, 11, 83
3, 243959, Control_c, 1, 11, 74
3, 243974, Note_off_c, 1, 66, 64
3, 244035, Control_c, 1, 11, 100
3, 244084, Note_on_c, 1, 61, 127
3, 244174, Note_off_c, 1, 61, 64
3, 244197, Note_on_c, 1, 59, 97
3, 244287, Note_off_c, 1, 59, 64
3, 244308, Note_on_c, 1, 61, 88
3, 244330, Control_c, 1, 11, 98
3, 244382, Control_c, 1, 11, 86
3, 244434, Control_c, 1, 11, 74
3, 244458, Note_off_c, 1, 61, 64
3, 244505, Control_c, 1, 11, 100
3, 244564, Note_on_c, 1, 66, 127
3, 244640, Note_off_c, 1, 66, 64
3, 244677, Note_on_c, 1, 65, 96
3, 244739, Note_off_c, 1, 65, 64
3, 244792, Note_on_c, 1, 66, 94
3, 244795, Control_c, 1, 11, 94
3, 244841, Control_c, 1, 11, 86
3, 244888, Control_c, 1, 11, 78
3, 244934, Control_c, 1, 11, 70
3, 244942, Note_off_c, 1, 66, 64
3, 244990, Control_c, 1, 11, 100
3, 245044, Note_on_c, 1, 58, 127
3, 245134, Note_off_c, 1, 58, 64
3, 245157, Note_on_c, 1, 56, 97
3, 245247, Note_off_c, 1, 56, 64
3, 245269, Note_on_c, 1, 58, 88
3, 245275, Control_c, 1, 11, 94
3, 245316, Control_c, 1, 11, 86
3, 245358, Control_c, 1, 11, 78
3, 245399, Control_c, 1, 11, 70
3, 245419, Note_off_c, 1, 58, 64
3, 245455, Control_c, 1, 11, 100
3, 245524, Note_on_c, 1, 66, 127
3, 245621, Note_off_c, 1, 66, 64
3, 245637, Note_on_c, 1, 65, 83
3, 245727, Note_off_c, 1, 65, 64
3, 245755, Note_on_c, 1, 66, 89
3, 245765, Control_c, 1, 11, 94
3, 245803, Control_c, 1, 11, 87
3, 245841, Control_c, 1, 11, 80
3, 245879, Control_c, 1, 11, 74
3, 245910, Note_off_c, 1, 66, 64
3, 245935, Control_c, 1, 11, 100
3, 246004, Note_on_c, 1, 54, 127
3, 246094, Note_off_c, 1, 54, 64
3, 246117, Note_on_c, 1, 56, 104
3, 246207, Note_off_c, 1, 56, 64
3, 246233, Note_on_c, 1, 58, 127
3, 246363, Note_off_c, 1, 58, 64
3, 246478, Note_on_c, 1, 60, 127
3, 246561, Note_off_c, 1, 60, 64
3, 246721, Note_on_c, 1, 61, 127
3, 246836, Note_on_c, 1, 60, 94
3, 246853, Note_off_c, 1, 61, 64
3, 246954, Note_off_c, 1, 60, 64
3, 246956, Note_on_c, 1, 61, 97
3, 247055, Note_off_c, 1, 61, 64
3, 247076, Note_on_c, 1, 63, 122
3, 247154, Note_off_c, 1, 63, 64
3, 247190, Note_on_c, 1, 61, 122
3, 247286, Note_off_c, 1, 61, 64
3, 247309, Note_on_c, 1, 65, 108
3, 247389, Note_off_c, 1, 65, 64
3, 247425, Note_on_c, 1, 61, 127
3, 247507, Note_off_c, 1, 61, 64
3, 247547, Note_on_c, 1, 66, 127
3, 247615, Note_off_c, 1, 66, 64
3, 247675, Note_on_c, 1, 61, 127
3, 247795, Note_on_c, 1, 60, 90
3, 247815, Note_off_c, 1, 61, 64
3, 247910, Note_off_c, 1, 60, 64
3, 247915, Note_on_c, 1, 61, 97
3, 248011, Note_off_c, 1, 61, 64
3, 248037, Note_on_c, 1, 63, 123
3, 248118, Note_off_c, 1, 63, 64
3, 248151, Note_on_c, 1, 61, 122
3, 248246, Note_off_c, 1, 61, 64
3, 248269, Note_on_c, 1, 68, 108
3, 248348, Note_off_c, 1, 68, 64
3, 248387, Note_on_c, 1, 61, 127
3, 248468, Note_off_c, 1, 61, 64
3, 248507, Note_on_c, 1, 70, 127
3, 248580, Note_off_c, 1, 70, 64
3, 248637, Note_on_c, 1, 61, 127
3, 248760, Note_on_c, 1, 60, 96
3, 248780, Note_off_c, 1, 61, 64
3, 248865, Note_off_c, 1, 60, 64
3, 248874, Note_on_c, 1, 61, 97
3, 248988, Note_off_c, 1, 61, 64
3, 248994, Note_on_c, 1, 63, 113
3, 249081, Note_off_c, 1, 63, 64
3, 249111, Note_on_c, 1, 61, 123
3, 249223, Note_off_c, 1, 61, 64
3, 249232, Note_on_c, 1, 71, 127
3, 249296, Note_off_c, 1, 71, 64
3, 249349, Note_on_c, 1, 61, 127
3, 249439, Note_off_c, 1, 61, 64
3, 249468, Note_on_c, 1, 73, 127
3, 249547, Note_off_c, 1, 73, 64
3, 249570, Control_c, 1, 11, 92
3, 249592, Note_on_c, 1, 70, 127
3, 249613, Control_c, 1, 11, 99
3, 249656, Control_c, 1, 11, 106
3, 249699, Control_c, 1, 11, 114
3, 249730, Control_c, 1, 11, 96
3, 249772, Control_c, 1, 11, 86
3, 249814, Control_c, 1, 11, 76
3, 249827, Note_off_c, 1, 70, 64
3, 249830, Control_c, 1, 11, 100
3, 249844, Note_on_c, 1, 68, 127
3, 249934, Note_off_c, 1, 68, 64
3, 249957, Note_on_c, 1, 66, 115
3, 250047, Note_off_c, 1, 66, 64
3, 250065, Control_c, 1, 11, 88
3, 250074, Note_on_c, 1, 68, 112
3, 250103, Control_c, 1, 11, 97
3, 250141, Control_c, 1, 11, 107
3, 250179, Control_c, 1, 11, 118
3, 250205, Control_c, 1, 11, 104
3, 250247, Control_c, 1, 11, 93
3, 250281, Note_off_c, 1, 68, 64
3, 250289, Control_c, 1, 11, 82
3, 250305, Control_c, 1, 11, 100
3, 250324, Note_on_c, 1, 66, 126
3, 250414, Note_off_c, 1, 66, 64
3, 250437, Note_on_c, 1, 65, 102
3, 250527, Note_off_c, 1, 65, 64
3, 250535, Control_c, 1, 11, 84
3, 250554, Note_on_c, 1, 66, 116
3, 250581, Control_c, 1, 11, 95
3, 250628, Control_c, 1, 11, 106
3, 250674, Control_c, 1, 11, 118
3, 250695, Control_c, 1, 11, 104
3, 250740, Control_c, 1, 11, 91
3, 250783, Note_off_c, 1, 66, 64
3, 250784, Control_c, 1, 11, 78
3, 250795, Control_c, 1, 11, 100
3, 250804, Note_on_c, 1, 65, 114
3, 250894, Note_off_c, 1, 65, 64
3, 250917, Note_on_c, 1, 63, 90
3, 251007, Note_off_c, 1, 63, 64
3, 251037, Note_on_c, 1, 61, 126
3, 251141, Note_off_c, 1, 61, 64
3, 251156, Note_on_c, 1, 66, 101
3, 251233, Note_off_c, 1, 66, 64
3, 251275, Note_on_c, 1, 61, 112
3, 251357, Note_off_c, 1, 61, 64
3, 251391, Note_on_c, 1, 66, 102
3, 251464, Note_off_c, 1, 66, 64
3, 251490, Control_c, 1, 11, 90
3, 251513, Note_on_c, 1, 63, 127
3, 251535, Control_c, 1, 11, 99
3, 251580, Control_c, 1, 11, 109
3, 251624, Control_c, 1, 11, 120
3, 251650, Control_c, 1, 11, 106
3, 251714, Control_c, 1, 11, 84
3, 251739, Note_off_c, 1, 63, 64
3, 251745, Control_c, 1, 11, 100
3, 251764, Note_on_c, 1, 61, 116
3, 251854, Note_off_c, 1, 61, 64
3, 251877, Note_on_c, 1, 59, 90
3, 251967, Note_off_c, 1, 59, 64
3, 251991, Note_on_c, 1, 58, 112
3, 252087, Note_off_c, 1, 58, 64
3, 252115, Note_on_c, 1, 66, 112
3, 252198, Note_off_c, 1, 66, 64
3, 252237, Note_on_c, 1, 58, 121
3, 252319, Note_off_c, 1, 58, 64
3, 252345, Note_on_c, 1, 66, 110
3, 252412, Note_off_c, 1, 66, 64
3, 252440, Control_c, 1, 11, 88
3, 252480, Note_on_c, 1, 59, 127
3, 252488, Control_c, 1, 11, 98
3, 252536, Control_c, 1, 11, 109
3, 252584, Control_c, 1, 11, 120
3, 252610, Control_c, 1, 11, 106
3, 252652, Control_c, 1, 11, 93
3, 252694, Control_c, 1, 11, 80
3, 252696, Note_off_c, 1, 59, 64
3, 252710, Control_c, 1, 11, 100
3, 252724, Note_on_c, 1, 58, 118
3, 252814, Note_off_c, 1, 58, 64
3, 252837, Note_on_c, 1, 56, 92
3, 252927, Note_off_c, 1, 56, 64
3, 252957, Note_on_c, 1, 54, 122
3, 253057, Note_off_c, 1, 54, 64
3, 253079, Note_on_c, 1, 66, 94
3, 253158, Note_off_c, 1, 66, 64
3, 253198, Note_on_c, 1, 56, 110
3, 253294, Note_off_c, 1, 56, 64
3, 253317, Note_on_c, 1, 66, 100
3, 253393, Note_off_c, 1, 66, 64
3, 253438, Note_on_c, 1, 58, 127
3, 253537, Note_off_c, 1, 58, 64
3, 253559, Note_on_c, 1, 66, 108
3, 253633, Note_off_c, 1, 66, 64
3, 253677, Note_on_c, 1, 60, 127
3, 253757, Note_off_c, 1, 60, 64
3, 253797, Note_on_c, 1, 66, 105
3, 253879, Note_off_c, 1, 66, 64
3, 253920, Note_on_c, 1, 61, 122
3, 254022, Note_off_c, 1, 61, 64
3, 254036, Note_on_c, 1, 65, 102
3, 254132, Note_off_c, 1, 65, 64
3, 254161, Note_on_c, 1, 61, 119
3, 254256, Note_off_c, 1, 61, 64
3, 254281, Note_on_c, 1, 66, 114
3, 254368, Note_off_c, 1, 66, 64
3, 254397, Note_on_c, 1, 61, 122
3, 254486, Note_off_c, 1, 61, 64
3, 254517, Note_on_c, 1, 68, 108
3, 254601, Note_off_c, 1, 68, 64
3, 254635, Note_on_c, 1, 61, 123
3, 254732, Note_off_c, 1, 61, 64
3, 254754, Note_on_c, 1, 70, 120
3, 254840, Note_off_c, 1, 70, 64
3, 254878, Note_on_c, 1, 61, 124
3, 254971, Note_off_c, 1, 61, 64
3, 254995, Note_on_c, 1, 71, 118
3, 255088, Note_off_c, 1, 71, 64
3, 255117, Note_on_c, 1, 61, 127
3, 255209, Note_off_c, 1, 61, 64
3, 255237, Note_on_c, 1, 73, 114
3, 255315, Control_c, 1, 11, 94
3, 255326, Note_off_c, 1, 73, 64
3, 255353, Control_c, 1, 11, 100
3, 255356, Note_on_c, 1, 70, 127
3, 255392, Control_c, 1, 11, 107
3, 255431, Control_c, 1, 11, 114
3, 255469, Control_c, 1, 11, 122
3, 255490, Control_c, 1, 11, 104
3, 255530, Control_c, 1, 11, 95
3, 255569, Control_c, 1, 11, 86
3, 255580, Note_off_c, 1, 70, 64
3, 255590, Control_c, 1, 11, 100
3, 255604, Note_on_c, 1, 68, 119
3, 255694, Note_off_c, 1, 68, 64
3, 255717, Note_on_c, 1, 66, 112
3, 255789, Note_off_c, 1, 66, 64
3, 255835, Note_on_c, 1, 61, 116
3, 255932, Note_off_c, 1, 61, 64
3, 256072, Note_on_c, 1, 65, 100
3, 256176, Note_off_c, 1, 65, 64
3, 256320, Note_on_c, 1, 66, 89
3, 256335, Control_c, 1, 11, 98
3, 256369, Control_c, 1, 11, 93
3, 256403, Control_c, 1, 11, 89
3, 256438, Control_c, 1, 11, 84
3, 256472, Control_c, 1, 11, 80
3, 256506, Control_c, 1, 11, 75
3, 256541, Control_c, 1, 11, 71
3, 256575, Control_c, 1, 11, 66
3, 256576, Note_off_c, 1, 66, 64
3, 256609, Control_c, 1, 11, 62
3, 256670, Control_c, 1, 11, 100
3, 258484, Note_on_c, 1, 70, 100
3, 258574, Note_off_c, 1, 70, 64
3, 258597, Note_on_c, 1, 68, 75
3, 258687, Note_off_c, 1, 68, 64
3, 258707, Note_on_c, 1, 70, 67
3, 258726, Control_c, 1, 11, 98
3, 258770, Control_c, 1, 11, 92
3, 258814, Control_c, 1, 11, 86
3, 258857, Note_off_c, 1, 70, 64
3, 258857, Control_c, 1, 11, 80
3, 258930, Control_c, 1, 11, 100
3, 258964, Note_on_c, 1, 73, 95
3, 259054, Note_off_c, 1, 73, 64
3, 259077, Note_on_c, 1, 71, 75
3, 259167, Note_off_c, 1, 71, 64
3, 259189, Note_on_c, 1, 73, 67
3, 259200, Control_c, 1, 11, 96
3, 259240, Control_c, 1, 11, 90
3, 259281, Control_c, 1, 11, 84
3, 259321, Control_c, 1, 11, 78
3, 259357, Note_off_c, 1, 73, 64
3, 259361, Control_c, 1, 11, 72
3, 259380, Control_c, 1, 11, 100
3, 259444, Note_on_c, 1, 78, 99
3, 259534, Note_off_c, 1, 78, 64
3, 259557, Note_on_c, 1, 77, 89
3, 259647, Note_off_c, 1, 77, 64
3, 259673, Note_on_c, 1, 78, 85
3, 259686, Control_c, 1, 11, 94
3, 259723, Control_c, 1, 11, 90
3, 259761, Control_c, 1, 11, 86
3, 259798, Control_c, 1, 11, 82
3, 259835, Control_c, 1, 11, 78
3, 259841, Note_off_c, 1, 78, 64
3, 259860, Control_c, 1, 11, 100
3, 259924, Note_on_c, 1, 82, 99
3, 260014, Note_off_c, 1, 82, 64
3, 260037, Note_on_c, 1, 80, 88
3, 260127, Note_off_c, 1, 80, 64
3, 260135, Control_c, 1, 11, 92
3, 260157, Note_on_c, 1, 82, 100
3, 260171, Control_c, 1, 11, 99
3, 260207, Control_c, 1, 11, 107
3, 260243, Control_c, 1, 11, 115
3, 260279, Control_c, 1, 11, 124
3, 260310, Control_c, 1, 11, 104
3, 260350, Control_c, 1, 11, 91
3, 260376, Note_off_c, 1, 82, 64
3, 260395, Control_c, 1, 11, 100
3, 260404, Note_on_c, 1, 80, 97
3, 260509, Note_off_c, 1, 80, 64
3, 260518, Note_on_c, 1, 78, 81
3, 260613, Note_off_c, 1, 78, 64
3, 260636, Note_on_c, 1, 77, 97
3, 260729, Note_off_c, 1, 77, 64
3, 260752, Note_on_c, 1, 75, 84
3, 260846, Note_off_c, 1, 75, 64
3, 260869, Note_on_c, 1, 73, 94
3, 260959, Note_off_c, 1, 73, 64
3, 260978, Note_on_c, 1, 71, 78
3, 261068, Note_off_c, 1, 71, 64
3, 261110, Note_on_c, 1, 70, 100
3, 261214, Note_off_c, 1, 70, 64
3, 261235, Note_on_c, 1, 73, 90
3, 261323, Note_off_c, 1, 73, 64
3, 261351, Note_on_c, 1, 71, 84
3, 261436, Note_off_c, 1, 71, 64
3, 261470, Note_on_c, 1, 70, 75
3, 261556, Note_off_c, 1, 70, 64
3, 261588, Note_on_c, 1, 68, 92
3, 261694, Note_off_c, 1, 68, 64
3, 261713, Note_on_c, 1, 66, 72
3, 261801, Note_off_c, 1, 66, 64
3, 261834, Note_on_c, 1, 65, 93
3, 261917, Note_off_c, 1, 65, 64
3, 261953, Note_on_c, 1, 63, 80
3, 262032, Note_off_c, 1, 63, 64
3, 262079, Note_on_c, 1, 61, 116
3, 262175, Note_off_c, 1, 61, 64
3, 262202, Note_on_c, 1, 66, 127
3, 262297, Note_off_c, 1, 66, 64
3, 262324, Note_on_c, 1, 65, 108
3, 262419, Note_off_c, 1, 65, 64
3, 262435, Note_on_c, 1, 63, 120
3, 262509, Note_off_c, 1, 63, 64
3, 262552, Note_on_c, 1, 61, 127
3, 262656, Note_off_c, 1, 61, 64
3, 262674, Note_on_c, 1, 59, 104
3, 262754, Note_off_c, 1, 59, 64
3, 262795, Note_on_c, 1, 58, 127
3, 262877, Note_off_c, 1, 58, 64
3, 262903, Note_on_c, 1, 56, 106
3, 262967, Note_off_c, 1, 56, 64
3, 262985, Control_c, 1, 11, 86
3, 263023, Control_c, 1, 11, 92
3, 263037, Note_on_c, 1, 58, 127
3, 263058, Control_c, 1, 11, 100
3, 263091, Control_c, 1, 11, 108
3, 263124, Control_c, 1, 11, 115
3, 263158, Control_c, 1, 11, 108
3, 263191, Control_c, 1, 11, 101
3, 263230, Control_c, 1, 11, 88
3, 263240, Note_off_c, 1, 58, 64
3, 263280, Control_c, 1, 11, 100
3, 263289, Note_on_c, 1, 56, 120
3, 263379, Note_off_c, 1, 56, 64
3, 263397, Note_on_c, 1, 54, 100
3, 263472, Note_off_c, 1, 54, 64
3, 263510, Note_on_c, 1, 61, 117
3, 263601, Note_off_c, 1, 61, 64
3, 263750, Note_on_c, 1, 61, 121
3, 263841, Note_off_c, 1, 61, 64
3, 263950, Control_c, 1, 11, 72
3, 263980, Control_c, 1, 11, 72
3, 264012, Note_on_c, 1, 54, 126
3, 264043, Control_c, 1, 11, 74
3, 264064, Control_c, 1, 11, 75
3, 264085, Control_c, 1, 11, 77
3, 264105, Control_c, 1, 11, 78
3, 264126, Control_c, 1, 11, 79
3, 264147, Control_c, 1, 11, 81
3, 264168, Control_c, 1, 11, 82
3, 264189, Control_c, 1, 11, 84
3, 264210, Control_c, 1, 11, 86
3, 264231, Control_c, 1, 11, 87
3, 264252, Control_c, 1, 11, 89
3, 264273, Control_c, 1, 11, 90
3, 264294, Control_c, 1, 11, 92
3, 264315, Control_c, 1, 11, 93
3, 264336, Control_c, 1, 11, 95
3, 264357, Control_c, 1, 11, 97
3, 264377, Control_c, 1, 11, 98
3, 264398, Control_c, 1, 11, 100
3, 264419, Control_c, 1, 11, 101
3, 264440, Control_c, 1, 11, 103
3, 264461, Control_c, 1, 11, 104
3, 264482, Control_c, 1, 11, 105
3, 264503, Control_c, 1, 11, 107
3, 264524, Control_c, 1, 11, 108
3, 264545, Control_c, 1, 11, 110
3, 264566, Control_c, 1, 11, 111
3, 264587, Control_c, 1, 11, 113
3, 264608, Control_c, 1, 11, 114
3, 264628, Control_c, 1, 11, 115
3, 264649, Control_c, 1, 11, 116
3, 264745, Control_c, 1, 11, 112
3, 264766, Control_c, 1, 11, 106
3, 264787, Control_c, 1, 11, 101
3, 264809, Control_c, 1, 11, 96
3, 264830, Control_c, 1, 11, 91
3, 264851, Control_c, 1, 11, 85
3, 264873, Control_c, 1, 11, 80
3, 264894, Control_c, 1, 11, 75
3, 264915, Control_c, 1, 11, 70
3, 264937, Control_c, 1, 11, 64
3, 264956, Note_off_c, 1, 54, 64
3, 264958, Control_c, 1, 11, 59
3, 264979, Control_c, 1, 11, 54
3, 265010, Control_c, 1, 11, 100
3, 266880, End_track
4, 0, Start_track
4, 0, Instrument_name_t, "SC88-A"
4, 0, Title_t, "Violino.2"
4, 1440, Control_c, 2, 101, 0
4, 1450, Control_c, 2, 100, 0
4, 1450, Control_c, 2, 6, 0
4, 1470, Control_c, 2, 0, 0
4, 1480, Control_c, 2, 32, 1
4, 1490, Program_c, 2, 40
4, 1500, Control_c, 2, 10, 39
4, 1510, Control_c, 2, 11, 100
4, 1520, Control_c, 2, 7, 120
4, 1530, Control_c, 2, 93, 0
4, 1540, Control_c, 2, 91, 0
4, 1550, Pitch_bend_c, 2, 8192
4, 1560, Control_c, 2, 1, 0
4, 1570, Control_c, 2, 64, 0
4, 1580, Control_c, 2, 91, 64
4, 1590, Control_c, 2, 99, 1
4, 1600, Control_c, 2, 98, 32
4, 1610, Control_c, 2, 6, 63
4, 1620, Control_c, 2, 98, 33
4, 1630, Control_c, 2, 6, 68
4, 1640, Control_c, 2, 98, 99
4, 1650, Control_c, 2, 6, 64
4, 1660, Control_c, 2, 98, 100
4, 1670, Control_c, 2, 6, 64
4, 1680, Control_c, 2, 98, 102
4, 1690, Control_c, 2, 6, 64
4, 18965, Note_on_c, 2, 73, 65
4, 19055, Note_off_c, 2, 73, 64
4, 19078, Note_on_c, 2, 71, 49
4, 19168, Note_off_c, 2, 71, 64
4, 19195, Note_on_c, 2, 73, 44
4, 19206, Control_c, 2, 11, 100
4, 19252, Control_c, 2, 11, 92
4, 19298, Control_c, 2, 11, 84
4, 19343, Control_c, 2, 11, 76
4, 19345, Note_off_c, 2, 73, 64
4, 19416, Control_c, 2, 11, 100
4, 19445, Note_on_c, 2, 70, 65
4, 19535, Note_off_c, 2, 70, 64
4, 19558, Note_on_c, 2, 68, 55
4, 19648, Note_off_c, 2, 68, 64
4, 19674, Note_on_c, 2, 70, 51
4, 19686, Control_c, 2, 11, 100
4, 19730, Control_c, 2, 11, 92
4, 19774, Control_c, 2, 11, 84
4, 19817, Control_c, 2, 11, 76
4, 19824, Note_off_c, 2, 70, 64
4, 19938, Control_c, 2, 11, 100
4, 22796, Note_on_c, 2, 75, 75
4, 22932, Note_off_c, 2, 75, 64
4, 23038, Note_on_c, 2, 77, 94
4, 23152, Note_off_c, 2, 77, 64
4, 23168, Note_on_c, 2, 80, 75
4, 23238, Note_off_c, 2, 80, 64
4, 23284, Note_on_c, 2, 73, 94
4, 23384, Note_off_c, 2, 73, 64
4, 23388, Note_on_c, 2, 75, 75
4, 23465, Note_off_c, 2, 75, 64
4, 23505, Note_on_c, 2, 77, 92
4, 23613, Note_off_c, 2, 77, 64
4, 23625, Note_on_c, 2, 78, 80
4, 23720, Note_off_c, 2, 78, 64
4, 23746, Note_on_c, 2, 80, 97
4, 23844, Note_off_c, 2, 80, 64
4, 23861, Note_on_c, 2, 78, 76
4, 23954, Note_off_c, 2, 78, 64
4, 23987, Note_on_c, 2, 77, 69
4, 24140, Note_off_c, 2, 77, 64
4, 24233, Note_on_c, 2, 85, 73
4, 24392, Note_off_c, 2, 85, 64
4, 24718, Note_on_c, 2, 84, 72
4, 24838, Note_off_c, 2, 84, 64
4, 24956, Note_on_c, 2, 85, 76
4, 25121, Note_off_c, 2, 85, 64
4, 32405, Note_on_c, 2, 73, 67
4, 32495, Note_off_c, 2, 73, 64
4, 32518, Note_on_c, 2, 71, 55
4, 32608, Note_off_c, 2, 71, 64
4, 32644, Note_on_c, 2, 73, 52
4, 32646, Control_c, 2, 11, 100
4, 32692, Control_c, 2, 11, 92
4, 32738, Control_c, 2, 11, 84
4, 32783, Control_c, 2, 11, 76
4, 32794, Note_off_c, 2, 73, 64
4, 32832, Control_c, 2, 11, 100
4, 32885, Note_on_c, 2, 70, 71
4, 32975, Note_off_c, 2, 70, 64
4, 32998, Note_on_c, 2, 68, 51
4, 33088, Note_off_c, 2, 68, 64
4, 33111, Note_on_c, 2, 70, 51
4, 33126, Control_c, 2, 11, 100
4, 33174, Control_c, 2, 11, 89
4, 33222, Control_c, 2, 11, 78
4, 33261, Note_off_c, 2, 70, 64
4, 33269, Control_c, 2, 11, 68
4, 33366, Control_c, 2, 11, 100
4, 35765, Note_on_c, 2, 80, 58
4, 35855, Note_off_c, 2, 80, 64
4, 35878, Note_on_c, 2, 78, 44
4, 35968, Note_off_c, 2, 78, 64
4, 35999, Note_on_c, 2, 80, 44
4, 36006, Control_c, 2, 11, 98
4, 36049, Control_c, 2, 11, 91
4, 36093, Control_c, 2, 11, 84
4, 36136, Control_c, 2, 11, 77
4, 36149, Note_off_c, 2, 80, 64
4, 36179, Control_c, 2, 11, 70
4, 36258, Control_c, 2, 11, 100
4, 36725, Note_on_c, 2, 80, 65
4, 36815, Note_off_c, 2, 80, 64
4, 36838, Note_on_c, 2, 78, 47
4, 36928, Note_off_c, 2, 78, 64
4, 36954, Note_on_c, 2, 80, 47
4, 36966, Control_c, 2, 11, 100
4, 37012, Control_c, 2, 11, 93
4, 37059, Control_c, 2, 11, 87
4, 37104, Note_off_c, 2, 80, 64
4, 37105, Control_c, 2, 11, 80
4, 37151, Control_c, 2, 11, 74
4, 37218, Control_c, 2, 11, 100
4, 37685, Note_on_c, 2, 80, 65
4, 37775, Note_off_c, 2, 80, 64
4, 37798, Note_on_c, 2, 78, 44
4, 37888, Note_off_c, 2, 78, 64
4, 37920, Control_c, 2, 11, 100
4, 37921, Note_on_c, 2, 80, 44
4, 37966, Control_c, 2, 11, 93
4, 38013, Control_c, 2, 11, 87
4, 38059, Control_c, 2, 11, 80
4, 38071, Note_off_c, 2, 80, 64
4, 38105, Control_c, 2, 11, 74
4, 38142, Control_c, 2, 11, 100
4, 41280, Note_on_c, 2, 72, 68
4, 41397, Note_off_c, 2, 72, 64
4, 41400, Note_on_c, 2, 75, 78
4, 41483, Note_off_c, 2, 75, 64
4, 41524, Note_on_c, 2, 68, 93
4, 41624, Note_off_c, 2, 68, 64
4, 41637, Note_on_c, 2, 70, 70
4, 41732, Note_off_c, 2, 70, 64
4, 41754, Note_on_c, 2, 72, 93
4, 41862, Note_off_c, 2, 72, 64
4, 41882, Note_on_c, 2, 73, 78
4, 41981, Note_off_c, 2, 73, 64
4, 41989, Note_on_c, 2, 75, 78
4, 42098, Note_off_c, 2, 75, 64
4, 42108, Note_on_c, 2, 77, 84
4, 42202, Note_off_c, 2, 77, 64
4, 42230, Note_on_c, 2, 78, 65
4, 42518, Note_off_c, 2, 78, 64
4, 42957, Note_on_c, 2, 78, 58
4, 43046, Note_off_c, 2, 78, 64
4, 43194, Note_on_c, 2, 77, 46
4, 43432, Note_off_c, 2, 77, 64
4, 43929, Note_on_c, 2, 77, 60
4, 44016, Note_off_c, 2, 77, 64
4, 44160, Note_on_c, 2, 77, 95
4, 44286, Note_off_c, 2, 77, 64
4, 44394, Note_on_c, 2, 77, 90
4, 44502, Note_off_c, 2, 77, 64
4, 44622, Control_c, 2, 11, 94
4, 44631, Note_on_c, 2, 77, 90
4, 44660, Control_c, 2, 11, 99
4, 44698, Control_c, 2, 11, 105
4, 44735, Control_c, 2, 11, 112
4, 44766, Control_c, 2, 11, 106
4, 44805, Control_c, 2, 11, 94
4, 44843, Control_c, 2, 11, 82
4, 44856, Note_off_c, 2, 77, 64
4, 44874, Control_c, 2, 11, 100
4, 44885, Note_on_c, 2, 75, 100
4, 44975, Note_off_c, 2, 75, 64
4, 44998, Note_on_c, 2, 73, 80
4, 45088, Note_off_c, 2, 73, 64
4, 45107, Note_on_c, 2, 75, 86
4, 45132, Control_c, 2, 11, 100
4, 45171, Control_c, 2, 11, 94
4, 45210, Control_c, 2, 11, 88
4, 45249, Control_c, 2, 11, 82
4, 45272, Note_off_c, 2, 75, 64
4, 45287, Control_c, 2, 11, 76
4, 45330, Control_c, 2, 11, 100
4, 45358, Note_on_c, 2, 75, 88
4, 45469, Note_off_c, 2, 75, 64
4, 45576, Control_c, 2, 11, 88
4, 45593, Note_on_c, 2, 75, 88
4, 45614, Control_c, 2, 11, 94
4, 45652, Control_c, 2, 11, 101
4, 45689, Control_c, 2, 11, 108
4, 45720, Control_c, 2, 11, 104
4, 45759, Control_c, 2, 11, 96
4, 45797, Control_c, 2, 11, 88
4, 45802, Note_off_c, 2, 75, 64
4, 45822, Control_c, 2, 11, 100
4, 45845, Note_on_c, 2, 73, 95
4, 45935, Note_off_c, 2, 73, 64
4, 45958, Note_on_c, 2, 75, 66
4, 46048, Note_off_c, 2, 75, 64
4, 46074, Note_on_c, 2, 73, 88
4, 46092, Control_c, 2, 11, 100
4, 46132, Control_c, 2, 11, 94
4, 46173, Control_c, 2, 11, 88
4, 46213, Control_c, 2, 11, 82
4, 46253, Control_c, 2, 11, 76
4, 46265, Note_off_c, 2, 73, 64
4, 46296, Control_c, 2, 11, 100
4, 46311, Note_on_c, 2, 70, 74
4, 46382, Note_off_c, 2, 70, 64
4, 46550, Note_on_c, 2, 68, 56
4, 46625, Note_off_c, 2, 68, 64
4, 46796, Note_on_c, 2, 68, 49
4, 46871, Note_off_c, 2, 68, 64
4, 47037, Note_on_c, 2, 68, 55
4, 47264, Note_off_c, 2, 68, 64
4, 47765, Note_on_c, 2, 73, 61
4, 47855, Note_off_c, 2, 73, 64
4, 47878, Note_on_c, 2, 72, 42
4, 47968, Note_off_c, 2, 72, 64
4, 47998, Note_on_c, 2, 73, 46
4, 48148, Note_off_c, 2, 73, 64
4, 48725, Note_on_c, 2, 73, 61
4, 48815, Note_off_c, 2, 73, 64
4, 48838, Note_on_c, 2, 72, 42
4, 48928, Note_off_c, 2, 72, 64
4, 48959, Note_on_c, 2, 73, 45
4, 49109, Note_off_c, 2, 73, 64
4, 49209, Note_on_c, 2, 73, 60
4, 49312, Note_off_c, 2, 73, 64
4, 49444, Note_on_c, 2, 73, 60
4, 49556, Note_off_c, 2, 73, 64
4, 49677, Note_on_c, 2, 73, 55
4, 49800, Note_off_c, 2, 73, 64
4, 49916, Note_on_c, 2, 73, 64
4, 50072, Note_off_c, 2, 73, 64
4, 50161, Note_on_c, 2, 73, 61
4, 50259, Note_off_c, 2, 73, 64
4, 50397, Note_on_c, 2, 73, 64
4, 50496, Note_off_c, 2, 73, 64
4, 50635, Note_on_c, 2, 73, 63
4, 50752, Note_off_c, 2, 73, 64
4, 50882, Note_on_c, 2, 73, 64
4, 50978, Note_off_c, 2, 73, 64
4, 51122, Note_on_c, 2, 73, 68
4, 51218, Note_off_c, 2, 73, 64
4, 51362, Note_on_c, 2, 73, 71
4, 51456, Note_off_c, 2, 73, 64
4, 51596, Note_on_c, 2, 68, 83
4, 51682, Note_off_c, 2, 68, 64
4, 51840, Note_on_c, 2, 66, 112
4, 51961, Note_on_c, 2, 65, 79
4, 51984, Note_off_c, 2, 66, 64
4, 52072, Note_off_c, 2, 65, 64
4, 52078, Note_on_c, 2, 66, 85
4, 52176, Note_off_c, 2, 66, 64
4, 52194, Note_on_c, 2, 68, 103
4, 52283, Note_off_c, 2, 68, 64
4, 52312, Note_on_c, 2, 66, 102
4, 52401, Note_off_c, 2, 66, 64
4, 52428, Note_on_c, 2, 70, 85
4, 52514, Note_off_c, 2, 70, 64
4, 52549, Note_on_c, 2, 66, 88
4, 52622, Note_off_c, 2, 66, 64
4, 52664, Note_on_c, 2, 71, 89
4, 52737, Note_off_c, 2, 71, 64
4, 52795, Note_on_c, 2, 66, 102
4, 52917, Note_on_c, 2, 65, 77
4, 52939, Note_off_c, 2, 66, 64
4, 53023, Note_off_c, 2, 65, 64
4, 53033, Note_on_c, 2, 66, 85
4, 53131, Note_off_c, 2, 66, 64
4, 53150, Note_on_c, 2, 68, 99
4, 53234, Note_off_c, 2, 68, 64
4, 53270, Note_on_c, 2, 66, 102
4, 53357, Note_off_c, 2, 66, 64
4, 53388, Note_on_c, 2, 73, 85
4, 53480, Note_off_c, 2, 73, 64
4, 53510, Note_on_c, 2, 66, 88
4, 53593, Note_off_c, 2, 66, 64
4, 53625, Note_on_c, 2, 75, 89
4, 53688, Note_off_c, 2, 75, 64
4, 53755, Note_on_c, 2, 70, 112
4, 53876, Note_on_c, 2, 68, 78
4, 53888, Note_off_c, 2, 70, 64
4, 53992, Note_on_c, 2, 70, 78
4, 54002, Note_off_c, 2, 68, 64
4, 54071, Note_off_c, 2, 70, 64
4, 54110, Note_on_c, 2, 71, 97
4, 54188, Note_off_c, 2, 71, 64
4, 54227, Note_on_c, 2, 70, 102
4, 54323, Note_off_c, 2, 70, 64
4, 54342, Note_on_c, 2, 61, 85
4, 54428, Note_off_c, 2, 61, 64
4, 54464, Note_on_c, 2, 71, 88
4, 54559, Note_off_c, 2, 71, 64
4, 54584, Note_on_c, 2, 63, 87
4, 54662, Note_off_c, 2, 63, 64
4, 54712, Note_on_c, 2, 70, 96
4, 54830, Note_on_c, 2, 68, 85
4, 54837, Note_off_c, 2, 70, 64
4, 54945, Note_on_c, 2, 70, 80
4, 54957, Note_off_c, 2, 68, 64
4, 55033, Note_off_c, 2, 70, 64
4, 55061, Note_on_c, 2, 71, 100
4, 55149, Note_off_c, 2, 71, 64
4, 55184, Note_on_c, 2, 70, 98
4, 55269, Note_off_c, 2, 70, 64
4, 55305, Note_on_c, 2, 64, 93
4, 55370, Note_off_c, 2, 64, 64
4, 55425, Note_on_c, 2, 71, 99
4, 55507, Note_off_c, 2, 71, 64
4, 55549, Note_on_c, 2, 63, 97
4, 55636, Note_off_c, 2, 63, 64
4, 55676, Note_on_c, 2, 61, 116
4, 55791, Note_off_c, 2, 61, 64
4, 55792, Note_on_c, 2, 59, 87
4, 55907, Note_on_c, 2, 61, 75
4, 55923, Note_off_c, 2, 59, 64
4, 55995, Note_off_c, 2, 61, 64
4, 56040, Note_on_c, 2, 71, 85
4, 56102, Note_off_c, 2, 71, 64
4, 56153, Note_on_c, 2, 61, 102
4, 56255, Note_off_c, 2, 61, 64
4, 56270, Note_on_c, 2, 71, 91
4, 56339, Note_off_c, 2, 71, 64
4, 56392, Note_on_c, 2, 61, 117
4, 56479, Note_off_c, 2, 61, 64
4, 56511, Note_on_c, 2, 70, 99
4, 56577, Note_off_c, 2, 70, 64
4, 56640, Note_on_c, 2, 71, 88
4, 56764, Note_off_c, 2, 71, 64
4, 57845, Note_on_c, 2, 80, 110
4, 57935, Note_off_c, 2, 80, 64
4, 57958, Note_on_c, 2, 82, 73
4, 58048, Note_off_c, 2, 82, 64
4, 58082, Note_on_c, 2, 80, 92
4, 58204, Note_off_c, 2, 80, 64
4, 58326, Note_on_c, 2, 80, 108
4, 58433, Note_off_c, 2, 80, 64
4, 58548, Control_c, 2, 11, 96
4, 58561, Note_on_c, 2, 80, 111
4, 58596, Control_c, 2, 11, 103
4, 58643, Control_c, 2, 11, 112
4, 58680, Control_c, 2, 11, 110
4, 58725, Control_c, 2, 11, 100
4, 58769, Control_c, 2, 11, 90
4, 58781, Note_off_c, 2, 80, 64
4, 58794, Control_c, 2, 11, 100
4, 58805, Note_on_c, 2, 78, 108
4, 58895, Note_off_c, 2, 78, 64
4, 58918, Note_on_c, 2, 80, 74
4, 59008, Note_off_c, 2, 80, 64
4, 59035, Note_on_c, 2, 78, 88
4, 59175, Note_off_c, 2, 78, 64
4, 59285, Note_on_c, 2, 78, 97
4, 59375, Note_off_c, 2, 78, 64
4, 59496, Control_c, 2, 11, 92
4, 59518, Note_on_c, 2, 78, 105
4, 59538, Control_c, 2, 11, 99
4, 59580, Control_c, 2, 11, 106
4, 59621, Control_c, 2, 11, 114
4, 59658, Control_c, 2, 11, 108
4, 59700, Control_c, 2, 11, 99
4, 59741, Control_c, 2, 11, 90
4, 59750, Note_off_c, 2, 78, 64
4, 59754, Control_c, 2, 11, 100
4, 59765, Note_on_c, 2, 76, 100
4, 59855, Note_off_c, 2, 76, 64
4, 59878, Note_on_c, 2, 78, 75
4, 59968, Note_off_c, 2, 78, 64
4, 60005, Note_on_c, 2, 76, 89
4, 60006, Control_c, 2, 11, 100
4, 60046, Control_c, 2, 11, 92
4, 60086, Control_c, 2, 11, 85
4, 60125, Control_c, 2, 11, 78
4, 60145, Note_off_c, 2, 76, 64
4, 60180, Control_c, 2, 11, 100
4, 60244, Note_on_c, 2, 68, 97
4, 60347, Note_off_c, 2, 68, 64
4, 60482, Note_on_c, 2, 70, 100
4, 60610, Note_off_c, 2, 70, 64
4, 60721, Note_on_c, 2, 70, 108
4, 60842, Note_off_c, 2, 70, 64
4, 60964, Note_on_c, 2, 70, 111
4, 61070, Note_off_c, 2, 70, 64
4, 61077, Note_on_c, 2, 68, 80
4, 61194, Note_off_c, 2, 68, 64
4, 61204, Note_on_c, 2, 70, 80
4, 61294, Note_off_c, 2, 70, 64
4, 61317, Note_on_c, 2, 71, 90
4, 61407, Note_off_c, 2, 71, 64
4, 61429, Note_on_c, 2, 73, 95
4, 61569, Note_off_c, 2, 73, 64
4, 61672, Note_on_c, 2, 66, 88
4, 61773, Note_off_c, 2, 66, 64
4, 61908, Note_on_c, 2, 66, 88
4, 62031, Note_off_c, 2, 66, 64
4, 62154, Note_on_c, 2, 66, 88
4, 62268, Note_off_c, 2, 66, 64
4, 62402, Note_on_c, 2, 66, 86
4, 62518, Note_on_c, 2, 64, 68
4, 62532, Note_off_c, 2, 66, 64
4, 62632, Note_off_c, 2, 64, 64
4, 62637, Note_on_c, 2, 66, 68
4, 62719, Note_off_c, 2, 66, 64
4, 62758, Note_on_c, 2, 68, 78
4, 62844, Note_off_c, 2, 68, 64
4, 62877, Note_on_c, 2, 66, 90
4, 62973, Note_off_c, 2, 66, 64
4, 62993, Note_on_c, 2, 71, 80
4, 63085, Note_off_c, 2, 71, 64
4, 63112, Note_on_c, 2, 70, 94
4, 63189, Note_off_c, 2, 70, 64
4, 63223, Note_on_c, 2, 73, 89
4, 63302, Note_off_c, 2, 73, 64
4, 63353, Note_on_c, 2, 71, 103
4, 63473, Note_on_c, 2, 70, 73
4, 63478, Note_off_c, 2, 71, 64
4, 63591, Note_on_c, 2, 71, 79
4, 63599, Note_off_c, 2, 70, 64
4, 63696, Note_off_c, 2, 71, 64
4, 63712, Note_on_c, 2, 73, 80
4, 63801, Note_off_c, 2, 73, 64
4, 63834, Note_on_c, 2, 71, 92
4, 63931, Note_off_c, 2, 71, 64
4, 63953, Note_on_c, 2, 75, 85
4, 64026, Note_off_c, 2, 75, 64
4, 64073, Note_on_c, 2, 73, 101
4, 64158, Note_off_c, 2, 73, 64
4, 64187, Note_on_c, 2, 76, 89
4, 64270, Note_off_c, 2, 76, 64
4, 64314, Note_on_c, 2, 75, 99
4, 64438, Note_on_c, 2, 73, 68
4, 64456, Note_off_c, 2, 75, 64
4, 64559, Note_on_c, 2, 75, 68
4, 64569, Note_off_c, 2, 73, 64
4, 64647, Note_off_c, 2, 75, 64
4, 64675, Note_on_c, 2, 76, 80
4, 64757, Note_off_c, 2, 76, 64
4, 64795, Note_on_c, 2, 75, 92
4, 64899, Note_off_c, 2, 75, 64
4, 64912, Note_on_c, 2, 76, 79
4, 65007, Note_off_c, 2, 76, 64
4, 65032, Note_on_c, 2, 75, 88
4, 65113, Note_off_c, 2, 75, 64
4, 65148, Note_on_c, 2, 73, 77
4, 65238, Note_off_c, 2, 73, 64
4, 65271, Note_on_c, 2, 71, 88
4, 65395, Note_on_c, 2, 73, 72
4, 65407, Note_off_c, 2, 71, 64
4, 65507, Note_off_c, 2, 73, 64
4, 65514, Note_on_c, 2, 71, 78
4, 65597, Note_off_c, 2, 71, 64
4, 65632, Note_on_c, 2, 70, 82
4, 65709, Note_off_c, 2, 70, 64
4, 65755, Note_on_c, 2, 71, 69
4, 65772, Control_c, 2, 11, 98
4, 65816, Control_c, 2, 11, 90
4, 65860, Control_c, 2, 11, 82
4, 65903, Control_c, 2, 11, 74
4, 65927, Note_off_c, 2, 71, 64
4, 65946, Control_c, 2, 11, 100
4, 65996, Note_on_c, 2, 68, 76
4, 66076, Note_off_c, 2, 68, 64
4, 66233, Note_on_c, 2, 66, 69
4, 66323, Note_off_c, 2, 66, 64
4, 66477, Note_on_c, 2, 61, 54
4, 66567, Note_off_c, 2, 61, 64
4, 70339, Note_on_c, 2, 68, 59
4, 70429, Note_off_c, 2, 68, 64
4, 70452, Note_on_c, 2, 66, 51
4, 70542, Note_off_c, 2, 66, 64
4, 70554, Note_on_c, 2, 68, 46
4, 70578, Control_c, 2, 11, 98
4, 70626, Control_c, 2, 11, 90
4, 70674, Control_c, 2, 11, 82
4, 70704, Note_off_c, 2, 68, 64
4, 70721, Control_c, 2, 11, 74
4, 70758, Control_c, 2, 11, 100
4, 71299, Note_on_c, 2, 68, 59
4, 71389, Note_off_c, 2, 68, 64
4, 71412, Note_on_c, 2, 66, 51
4, 71502, Note_off_c, 2, 66, 64
4, 71508, Note_on_c, 2, 68, 47
4, 71526, Control_c, 2, 11, 100
4, 71568, Control_c, 2, 11, 94
4, 71610, Control_c, 2, 11, 88
4, 71652, Control_c, 2, 11, 82
4, 71658, Note_off_c, 2, 68, 64
4, 71693, Control_c, 2, 11, 76
4, 71754, Control_c, 2, 11, 100
4, 72259, Note_on_c, 2, 68, 59
4, 72349, Note_off_c, 2, 68, 64
4, 72372, Note_on_c, 2, 66, 54
4, 72462, Note_off_c, 2, 66, 64
4, 72479, Note_on_c, 2, 68, 48
4, 72486, Control_c, 2, 11, 100
4, 72530, Control_c, 2, 11, 92
4, 72574, Control_c, 2, 11, 85
4, 72617, Control_c, 2, 11, 78
4, 72629, Note_off_c, 2, 68, 64
4, 72678, Control_c, 2, 11, 100
4, 72739, Note_on_c, 2, 66, 86
4, 72829, Note_off_c, 2, 66, 64
4, 72852, Note_on_c, 2, 65, 80
4, 72942, Note_off_c, 2, 65, 64
4, 72947, Note_on_c, 2, 66, 75
4, 72960, Control_c, 2, 11, 100
4, 73006, Control_c, 2, 11, 92
4, 73052, Control_c, 2, 11, 84
4, 73087, Note_off_c, 2, 66, 64
4, 73097, Control_c, 2, 11, 76
4, 73152, Control_c, 2, 11, 100
4, 73218, Note_on_c, 2, 66, 75
4, 73308, Note_off_c, 2, 66, 64
4, 73410, Control_c, 2, 11, 76
4, 73440, Note_on_c, 2, 65, 89
4, 73454, Control_c, 2, 11, 80
4, 73498, Control_c, 2, 11, 85
4, 73543, Control_c, 2, 11, 90
4, 73587, Control_c, 2, 11, 95
4, 73631, Control_c, 2, 11, 100
4, 73648, Note_off_c, 2, 65, 64
4, 73690, Note_on_c, 2, 66, 81
4, 73792, Note_off_c, 2, 66, 64
4, 73812, Note_on_c, 2, 68, 67
4, 73902, Note_off_c, 2, 68, 64
4, 73913, Note_on_c, 2, 66, 58
4, 73926, Control_c, 2, 11, 98
4, 73972, Control_c, 2, 11, 90
4, 74018, Control_c, 2, 11, 82
4, 74063, Note_off_c, 2, 66, 64
4, 74063, Control_c, 2, 11, 74
4, 74154, Control_c, 2, 11, 100
4, 76085, Note_on_c, 2, 70, 78
4, 76175, Note_off_c, 2, 70, 64
4, 76198, Note_on_c, 2, 68, 60
4, 76288, Note_off_c, 2, 68, 64
4, 76315, Note_on_c, 2, 70, 60
4, 76326, Control_c, 2, 11, 100
4, 76365, Control_c, 2, 11, 92
4, 76404, Control_c, 2, 11, 85
4, 76443, Control_c, 2, 11, 77
4, 76465, Note_off_c, 2, 70, 64
4, 76481, Control_c, 2, 11, 70
4, 76536, Control_c, 2, 11, 100
4, 76565, Note_on_c, 2, 73, 74
4, 76655, Note_off_c, 2, 73, 64
4, 76678, Note_on_c, 2, 71, 64
4, 76768, Note_off_c, 2, 71, 64
4, 76790, Note_on_c, 2, 73, 59
4, 76818, Control_c, 2, 11, 98
4, 76869, Control_c, 2, 11, 89
4, 76919, Control_c, 2, 11, 80
4, 76940, Note_off_c, 2, 73, 64
4, 76998, Control_c, 2, 11, 100
4, 77045, Note_on_c, 2, 70, 80
4, 77135, Note_off_c, 2, 70, 64
4, 77158, Note_on_c, 2, 68, 59
4, 77248, Note_off_c, 2, 68, 64
4, 77261, Note_on_c, 2, 70, 59
4, 77274, Control_c, 2, 11, 98
4, 77318, Control_c, 2, 11, 91
4, 77362, Control_c, 2, 11, 84
4, 77405, Control_c, 2, 11, 78
4, 77411, Note_off_c, 2, 70, 64
4, 77532, Control_c, 2, 11, 100
4, 79686, Note_on_c, 2, 68, 108
4, 79808, Note_on_c, 2, 66, 80
4, 79810, Note_off_c, 2, 68, 64
4, 79919, Note_on_c, 2, 68, 74
4, 79926, Note_off_c, 2, 66, 64
4, 80017, Note_off_c, 2, 68, 64
4, 80036, Note_on_c, 2, 70, 81
4, 80131, Note_off_c, 2, 70, 64
4, 80157, Note_on_c, 2, 68, 88
4, 80255, Note_off_c, 2, 68, 64
4, 80274, Note_on_c, 2, 71, 80
4, 80372, Note_off_c, 2, 71, 64
4, 80398, Note_on_c, 2, 70, 100
4, 80480, Note_off_c, 2, 70, 64
4, 80512, Note_on_c, 2, 73, 84
4, 80590, Note_off_c, 2, 73, 64
4, 80640, Note_on_c, 2, 68, 101
4, 80753, Note_on_c, 2, 66, 75
4, 80768, Note_off_c, 2, 68, 64
4, 80859, Note_off_c, 2, 66, 64
4, 80868, Note_on_c, 2, 68, 74
4, 80968, Note_off_c, 2, 68, 64
4, 80990, Note_on_c, 2, 70, 88
4, 81081, Note_off_c, 2, 70, 64
4, 81110, Note_on_c, 2, 68, 97
4, 81224, Note_off_c, 2, 68, 64
4, 81232, Note_on_c, 2, 77, 90
4, 81305, Note_off_c, 2, 77, 64
4, 81351, Note_on_c, 2, 68, 92
4, 81460, Note_off_c, 2, 68, 64
4, 81466, Note_on_c, 2, 78, 88
4, 81552, Note_off_c, 2, 78, 64
4, 81594, Note_on_c, 2, 68, 97
4, 81715, Note_on_c, 2, 66, 73
4, 81729, Note_off_c, 2, 68, 64
4, 81823, Note_off_c, 2, 66, 64
4, 81833, Note_on_c, 2, 68, 75
4, 81948, Note_off_c, 2, 68, 64
4, 81953, Note_on_c, 2, 70, 92
4, 82049, Note_off_c, 2, 70, 64
4, 82073, Note_on_c, 2, 68, 99
4, 82188, Note_off_c, 2, 68, 64
4, 82193, Note_on_c, 2, 78, 84
4, 82269, Note_off_c, 2, 78, 64
4, 82310, Note_on_c, 2, 77, 93
4, 82402, Note_off_c, 2, 77, 64
4, 82426, Note_on_c, 2, 80, 90
4, 82525, Note_off_c, 2, 80, 64
4, 87125, Note_on_c, 2, 61, 110
4, 87215, Note_off_c, 2, 61, 64
4, 87238, Note_on_c, 2, 63, 74
4, 87328, Note_off_c, 2, 63, 64
4, 87354, Control_c, 2, 11, 98
4, 87365, Note_on_c, 2, 65, 91
4, 87400, Control_c, 2, 11, 91
4, 87447, Control_c, 2, 11, 84
4, 87493, Control_c, 2, 11, 77
4, 87539, Control_c, 2, 11, 70
4, 87545, Note_off_c, 2, 65, 64
4, 87582, Control_c, 2, 11, 100
4, 87605, Note_on_c, 2, 66, 105
4, 87695, Note_off_c, 2, 66, 64
4, 87845, Note_on_c, 2, 68, 103
4, 87935, Note_off_c, 2, 68, 64
4, 88085, Note_on_c, 2, 77, 98
4, 88175, Note_off_c, 2, 77, 64
4, 88284, Control_c, 2, 11, 78
4, 88321, Note_on_c, 2, 78, 100
4, 88335, Control_c, 2, 11, 91
4, 88385, Control_c, 2, 11, 106
4, 88416, Control_c, 2, 11, 110
4, 88461, Control_c, 2, 11, 96
4, 88505, Control_c, 2, 11, 82
4, 88546, Note_off_c, 2, 78, 64
4, 88548, Control_c, 2, 11, 100
4, 88568, Note_on_c, 2, 75, 97
4, 88679, Note_off_c, 2, 75, 64
4, 88804, Note_on_c, 2, 73, 58
4, 88942, Note_off_c, 2, 73, 64
4, 92160, Note_on_c, 2, 73, 58
4, 92282, Note_on_c, 2, 71, 39
4, 92292, Note_off_c, 2, 73, 64
4, 92382, Note_off_c, 2, 71, 64
4, 92400, Note_on_c, 2, 73, 39
4, 92508, Note_off_c, 2, 73, 64
4, 93123, Note_on_c, 2, 73, 55
4, 93242, Note_off_c, 2, 73, 64
4, 93242, Note_on_c, 2, 71, 40
4, 93342, Note_off_c, 2, 71, 64
4, 93359, Note_on_c, 2, 73, 40
4, 93498, Note_off_c, 2, 73, 64
4, 94076, Note_on_c, 2, 71, 54
4, 94201, Note_on_c, 2, 70, 39
4, 94206, Note_off_c, 2, 71, 64
4, 94301, Note_off_c, 2, 70, 64
4, 94314, Note_on_c, 2, 71, 39
4, 94448, Note_off_c, 2, 71, 64
4, 95040, Note_on_c, 2, 71, 53
4, 95155, Note_off_c, 2, 71, 64
4, 95161, Note_on_c, 2, 70, 40
4, 95261, Note_off_c, 2, 70, 64
4, 95276, Note_on_c, 2, 71, 40
4, 95416, Note_off_c, 2, 71, 64
4, 95997, Note_on_c, 2, 68, 50
4, 96122, Note_on_c, 2, 66, 38
4, 96128, Note_off_c, 2, 68, 64
4, 96222, Note_off_c, 2, 66, 64
4, 96238, Note_on_c, 2, 68, 36
4, 96365, Note_off_c, 2, 68, 64
4, 96962, Note_on_c, 2, 68, 54
4, 97080, Note_off_c, 2, 68, 64
4, 97082, Note_on_c, 2, 66, 35
4, 97182, Note_off_c, 2, 66, 64
4, 97203, Note_on_c, 2, 68, 35
4, 97343, Note_off_c, 2, 68, 64
4, 97914, Note_on_c, 2, 66, 81
4, 98034, Note_on_c, 2, 65, 77
4, 98043, Note_off_c, 2, 66, 64
4, 98151, Note_off_c, 2, 65, 64
4, 98153, Note_on_c, 2, 66, 78
4, 98240, Note_off_c, 2, 66, 64
4, 98268, Note_on_c, 2, 68, 97
4, 98354, Note_off_c, 2, 68, 64
4, 98388, Note_on_c, 2, 70, 100
4, 98509, Note_off_c, 2, 70, 64
4, 98510, Note_on_c, 2, 68, 82
4, 98599, Note_off_c, 2, 68, 64
4, 98630, Note_on_c, 2, 66, 90
4, 98723, Note_off_c, 2, 66, 64
4, 98744, Note_on_c, 2, 68, 82
4, 98832, Note_off_c, 2, 68, 64
4, 98874, Note_on_c, 2, 65, 75
4, 99108, Note_off_c, 2, 65, 64
4, 99480, Note_on_c, 2, 73, 96
4, 99572, Note_off_c, 2, 73, 64
4, 99605, Note_on_c, 2, 68, 75
4, 99695, Note_off_c, 2, 68, 64
4, 99718, Note_on_c, 2, 70, 63
4, 99808, Note_off_c, 2, 70, 64
4, 99840, Note_on_c, 2, 71, 101
4, 99959, Note_on_c, 2, 70, 67
4, 99972, Note_off_c, 2, 71, 64
4, 100076, Note_on_c, 2, 71, 67
4, 100083, Note_off_c, 2, 70, 64
4, 100179, Note_off_c, 2, 71, 64
4, 100200, Note_on_c, 2, 80, 88
4, 100279, Note_off_c, 2, 80, 64
4, 100321, Note_on_c, 2, 77, 93
4, 100420, Note_off_c, 2, 77, 64
4, 100433, Note_on_c, 2, 74, 84
4, 100519, Note_off_c, 2, 74, 64
4, 100551, Note_on_c, 2, 71, 78
4, 100639, Note_off_c, 2, 71, 64
4, 100675, Note_on_c, 2, 68, 76
4, 100751, Note_off_c, 2, 68, 64
4, 100807, Note_on_c, 2, 71, 101
4, 100915, Note_on_c, 2, 70, 67
4, 100936, Note_off_c, 2, 71, 64
4, 101039, Note_on_c, 2, 71, 57
4, 101047, Note_off_c, 2, 70, 64
4, 101135, Note_off_c, 2, 71, 64
4, 101165, Note_on_c, 2, 80, 91
4, 101245, Note_off_c, 2, 80, 64
4, 101284, Note_on_c, 2, 77, 101
4, 101382, Note_off_c, 2, 77, 64
4, 101400, Note_on_c, 2, 74, 84
4, 101483, Note_off_c, 2, 74, 64
4, 101518, Note_on_c, 2, 71, 72
4, 101604, Note_off_c, 2, 71, 64
4, 101638, Note_on_c, 2, 68, 74
4, 101733, Note_off_c, 2, 68, 64
4, 101758, Note_on_c, 2, 70, 101
4, 101873, Note_on_c, 2, 68, 67
4, 101892, Note_off_c, 2, 70, 64
4, 102003, Note_on_c, 2, 70, 57
4, 102008, Note_off_c, 2, 68, 64
4, 102100, Note_off_c, 2, 70, 64
4, 102122, Note_on_c, 2, 80, 82
4, 102208, Note_off_c, 2, 80, 64
4, 102238, Note_on_c, 2, 77, 101
4, 102343, Note_off_c, 2, 77, 64
4, 102356, Note_on_c, 2, 74, 83
4, 102430, Note_off_c, 2, 74, 64
4, 102473, Note_on_c, 2, 70, 70
4, 102554, Note_off_c, 2, 70, 64
4, 102593, Note_on_c, 2, 65, 84
4, 102680, Note_off_c, 2, 65, 64
4, 102728, Note_on_c, 2, 70, 101
4, 102833, Note_on_c, 2, 68, 67
4, 102851, Note_off_c, 2, 70, 64
4, 102967, Note_on_c, 2, 70, 60
4, 102972, Note_off_c, 2, 68, 64
4, 103061, Note_off_c, 2, 70, 64
4, 103082, Note_on_c, 2, 80, 91
4, 103176, Note_off_c, 2, 80, 64
4, 103199, Note_on_c, 2, 77, 98
4, 103308, Note_off_c, 2, 77, 64
4, 103316, Note_on_c, 2, 74, 57
4, 103418, Note_off_c, 2, 74, 64
4, 103435, Note_on_c, 2, 70, 67
4, 103524, Note_off_c, 2, 70, 64
4, 103562, Note_on_c, 2, 65, 70
4, 103647, Note_off_c, 2, 65, 64
4, 103697, Note_on_c, 2, 68, 101
4, 103799, Note_on_c, 2, 66, 68
4, 103808, Note_off_c, 2, 68, 64
4, 103914, Note_on_c, 2, 68, 67
4, 103923, Note_off_c, 2, 66, 64
4, 104021, Note_off_c, 2, 68, 64
4, 104040, Note_on_c, 2, 77, 101
4, 104121, Note_off_c, 2, 77, 64
4, 104155, Note_on_c, 2, 74, 101
4, 104251, Note_off_c, 2, 74, 64
4, 104268, Note_on_c, 2, 70, 74
4, 104348, Note_off_c, 2, 70, 64
4, 104389, Note_on_c, 2, 68, 67
4, 104481, Note_off_c, 2, 68, 64
4, 104507, Note_on_c, 2, 65, 83
4, 104572, Note_off_c, 2, 65, 64
4, 104637, Note_on_c, 2, 68, 99
4, 104744, Note_on_c, 2, 66, 67
4, 104751, Note_off_c, 2, 68, 64
4, 104867, Note_on_c, 2, 68, 62
4, 104870, Note_off_c, 2, 66, 64
4, 104966, Note_off_c, 2, 68, 64
4, 104995, Note_on_c, 2, 77, 101
4, 105074, Note_off_c, 2, 77, 64
4, 105114, Note_on_c, 2, 74, 101
4, 105199, Note_off_c, 2, 74, 64
4, 105230, Note_on_c, 2, 70, 82
4, 105308, Note_off_c, 2, 70, 64
4, 105344, Note_on_c, 2, 68, 70
4, 105443, Note_off_c, 2, 68, 64
4, 105464, Note_on_c, 2, 65, 98
4, 105565, Note_off_c, 2, 65, 64
4, 105586, Note_on_c, 2, 66, 81
4, 105606, Control_c, 2, 11, 96
4, 105646, Control_c, 2, 11, 89
4, 105686, Control_c, 2, 11, 82
4, 105725, Control_c, 2, 11, 76
4, 105736, Note_off_c, 2, 66, 64
4, 105804, Control_c, 2, 11, 100
4, 105835, Note_on_c, 2, 66, 96
4, 105947, Note_off_c, 2, 66, 64
4, 105960, Note_on_c, 2, 65, 72
4, 106060, Note_off_c, 2, 65, 64
4, 106072, Note_on_c, 2, 66, 64
4, 106092, Control_c, 2, 11, 98
4, 106136, Control_c, 2, 11, 90
4, 106180, Control_c, 2, 11, 82
4, 106222, Note_off_c, 2, 66, 64
4, 106223, Control_c, 2, 11, 74
4, 106314, Control_c, 2, 11, 100
4, 108725, Note_on_c, 2, 68, 67
4, 108815, Note_off_c, 2, 68, 64
4, 108838, Note_on_c, 2, 66, 57
4, 108928, Note_off_c, 2, 66, 64
4, 108955, Note_on_c, 2, 68, 52
4, 108972, Control_c, 2, 11, 98
4, 109014, Control_c, 2, 11, 90
4, 109056, Control_c, 2, 11, 83
4, 109097, Control_c, 2, 11, 76
4, 109105, Note_off_c, 2, 68, 64
4, 109176, Control_c, 2, 11, 100
4, 109205, Note_on_c, 2, 74, 70
4, 109295, Note_off_c, 2, 74, 64
4, 109318, Note_on_c, 2, 72, 63
4, 109408, Note_off_c, 2, 72, 64
4, 109436, Note_on_c, 2, 74, 51
4, 109458, Control_c, 2, 11, 98
4, 109504, Control_c, 2, 11, 89
4, 109550, Control_c, 2, 11, 80
4, 109586, Note_off_c, 2, 74, 64
4, 109595, Control_c, 2, 11, 72
4, 109680, Control_c, 2, 11, 100
4, 114485, Note_on_c, 2, 70, 59
4, 114575, Note_off_c, 2, 70, 64
4, 114598, Note_on_c, 2, 68, 50
4, 114688, Note_off_c, 2, 68, 64
4, 114721, Note_on_c, 2, 70, 45
4, 114726, Control_c, 2, 11, 100
4, 114768, Control_c, 2, 11, 92
4, 114810, Control_c, 2, 11, 85
4, 114851, Control_c, 2, 11, 78
4, 114871, Note_off_c, 2, 70, 64
4, 114996, Control_c, 2, 11, 100
4, 115445, Note_on_c, 2, 70, 59
4, 115535, Note_off_c, 2, 70, 64
4, 115558, Note_on_c, 2, 68, 56
4, 115648, Note_off_c, 2, 68, 64
4, 115676, Note_on_c, 2, 70, 51
4, 115680, Control_c, 2, 11, 100
4, 115728, Control_c, 2, 11, 92
4, 115776, Control_c, 2, 11, 84
4, 115823, Control_c, 2, 11, 76
4, 115826, Note_off_c, 2, 70, 64
4, 115938, Control_c, 2, 11, 100
4, 116405, Note_on_c, 2, 70, 59
4, 116495, Note_off_c, 2, 70, 64
4, 116518, Note_on_c, 2, 68, 59
4, 116608, Note_off_c, 2, 68, 64
4, 116635, Note_on_c, 2, 70, 50
4, 116646, Control_c, 2, 11, 100
4, 116683, Control_c, 2, 11, 95
4, 116721, Control_c, 2, 11, 90
4, 116758, Control_c, 2, 11, 85
4, 116785, Note_off_c, 2, 70, 64
4, 116795, Control_c, 2, 11, 80
4, 116892, Control_c, 2, 11, 100
4, 117365, Note_on_c, 2, 70, 108
4, 117455, Note_off_c, 2, 70, 64
4, 117478, Note_on_c, 2, 68, 77
4, 117568, Note_off_c, 2, 68, 64
4, 117605, Note_on_c, 2, 66, 92
4, 117755, Note_off_c, 2, 66, 64
4, 117845, Note_on_c, 2, 67, 82
4, 117935, Note_off_c, 2, 67, 64
4, 118075, Note_on_c, 2, 68, 78
4, 118307, Note_off_c, 2, 68, 64
4, 118795, Note_on_c, 2, 70, 110
4, 118946, Note_off_c, 2, 70, 64
4, 119038, Note_on_c, 2, 72, 111
4, 119135, Note_off_c, 2, 72, 64
4, 119155, Note_on_c, 2, 75, 81
4, 119259, Note_off_c, 2, 75, 64
4, 119283, Note_on_c, 2, 68, 114
4, 119383, Note_off_c, 2, 68, 64
4, 119389, Note_on_c, 2, 70, 95
4, 119482, Note_off_c, 2, 70, 64
4, 119513, Note_on_c, 2, 72, 111
4, 119618, Note_off_c, 2, 72, 64
4, 119628, Note_on_c, 2, 73, 80
4, 119741, Note_off_c, 2, 73, 64
4, 119763, Note_on_c, 2, 75, 90
4, 119863, Note_off_c, 2, 75, 64
4, 119871, Note_on_c, 2, 73, 110
4, 119964, Note_off_c, 2, 73, 64
4, 119994, Note_on_c, 2, 72, 82
4, 120165, Note_off_c, 2, 72, 64
4, 120241, Note_on_c, 2, 80, 94
4, 120409, Note_off_c, 2, 80, 64
4, 120714, Note_on_c, 2, 79, 94
4, 120828, Note_off_c, 2, 79, 64
4, 120957, Note_on_c, 2, 80, 80
4, 121083, Note_off_c, 2, 80, 64
4, 121205, Note_on_c, 2, 75, 66
4, 121295, Note_off_c, 2, 75, 64
4, 121435, Note_on_c, 2, 68, 64
4, 121565, Note_off_c, 2, 68, 64
4, 121685, Note_on_c, 2, 72, 64
4, 121775, Note_off_c, 2, 72, 64
4, 121923, Note_on_c, 2, 73, 74
4, 121938, Control_c, 2, 11, 98
4, 121982, Control_c, 2, 11, 89
4, 122026, Control_c, 2, 11, 80
4, 122069, Control_c, 2, 11, 72
4, 122083, Note_off_c, 2, 73, 64
4, 122124, Control_c, 2, 11, 100
4, 122165, Note_on_c, 2, 80, 74
4, 122255, Note_off_c, 2, 80, 64
4, 122278, Note_on_c, 2, 78, 61
4, 122368, Note_off_c, 2, 78, 64
4, 122376, Control_c, 2, 11, 100
4, 122398, Note_on_c, 2, 80, 57
4, 122419, Control_c, 2, 11, 95
4, 122463, Control_c, 2, 11, 90
4, 122506, Control_c, 2, 11, 85
4, 122548, Note_off_c, 2, 80, 64
4, 122549, Control_c, 2, 11, 80
4, 122592, Control_c, 2, 11, 100
4, 123125, Note_on_c, 2, 80, 74
4, 123215, Note_off_c, 2, 80, 64
4, 123238, Note_on_c, 2, 78, 60
4, 123328, Note_off_c, 2, 78, 64
4, 123330, Control_c, 2, 11, 100
4, 123358, Note_on_c, 2, 80, 58
4, 123373, Control_c, 2, 11, 95
4, 123417, Control_c, 2, 11, 91
4, 123460, Control_c, 2, 11, 86
4, 123503, Control_c, 2, 11, 82
4, 123508, Note_off_c, 2, 80, 64
4, 123582, Control_c, 2, 11, 100
4, 124085, Note_on_c, 2, 80, 74
4, 124175, Note_off_c, 2, 80, 64
4, 124198, Note_on_c, 2, 78, 62
4, 124288, Note_off_c, 2, 78, 64
4, 124302, Control_c, 2, 11, 98
4, 124319, Note_on_c, 2, 80, 47
4, 124341, Control_c, 2, 11, 94
4, 124380, Control_c, 2, 11, 91
4, 124419, Control_c, 2, 11, 88
4, 124458, Control_c, 2, 11, 84
4, 124469, Note_off_c, 2, 80, 64
4, 124497, Control_c, 2, 11, 81
4, 124535, Control_c, 2, 11, 78
4, 124644, Control_c, 2, 11, 100
4, 126965, Note_on_c, 2, 73, 80
4, 127055, Note_off_c, 2, 73, 64
4, 127078, Note_on_c, 2, 71, 65
4, 127168, Note_off_c, 2, 71, 64
4, 127196, Note_on_c, 2, 73, 55
4, 127200, Control_c, 2, 11, 98
4, 127237, Control_c, 2, 11, 92
4, 127275, Control_c, 2, 11, 86
4, 127312, Control_c, 2, 11, 80
4, 127346, Note_off_c, 2, 73, 64
4, 127349, Control_c, 2, 11, 74
4, 127440, Control_c, 2, 11, 100
4, 128405, Note_on_c, 2, 70, 57
4, 128495, Note_off_c, 2, 70, 64
4, 128518, Note_on_c, 2, 71, 69
4, 128608, Note_off_c, 2, 71, 64
4, 128645, Note_on_c, 2, 73, 64
4, 128646, Control_c, 2, 11, 100
4, 128685, Control_c, 2, 11, 94
4, 128724, Control_c, 2, 11, 88
4, 128763, Control_c, 2, 11, 82
4, 128795, Note_off_c, 2, 73, 64
4, 128801, Control_c, 2, 11, 76
4, 128856, Control_c, 2, 11, 100
4, 128885, Note_on_c, 2, 70, 69
4, 128975, Note_off_c, 2, 70, 64
4, 128998, Note_on_c, 2, 71, 68
4, 129088, Note_off_c, 2, 71, 64
4, 129115, Note_on_c, 2, 70, 68
4, 129132, Control_c, 2, 11, 100
4, 129180, Control_c, 2, 11, 92
4, 129228, Control_c, 2, 11, 85
4, 129265, Note_off_c, 2, 70, 64
4, 129275, Control_c, 2, 11, 78
4, 129378, Control_c, 2, 11, 100
4, 130560, Note_on_c, 2, 75, 67
4, 130671, Note_off_c, 2, 75, 64
4, 130675, Note_on_c, 2, 73, 53
4, 130796, Note_off_c, 2, 73, 64
4, 130798, Note_on_c, 2, 75, 53
4, 130918, Note_off_c, 2, 75, 64
4, 131521, Note_on_c, 2, 75, 62
4, 131623, Note_off_c, 2, 75, 64
4, 131630, Note_on_c, 2, 73, 57
4, 131754, Note_off_c, 2, 73, 64
4, 131758, Note_on_c, 2, 75, 41
4, 131886, Note_off_c, 2, 75, 64
4, 132478, Note_on_c, 2, 60, 58
4, 132591, Note_on_c, 2, 58, 50
4, 132593, Note_off_c, 2, 60, 64
4, 132712, Note_off_c, 2, 58, 64
4, 132712, Note_on_c, 2, 60, 41
4, 132812, Note_off_c, 2, 60, 64
4, 133432, Note_on_c, 2, 60, 58
4, 133543, Note_off_c, 2, 60, 64
4, 133544, Note_on_c, 2, 58, 46
4, 133668, Note_on_c, 2, 60, 46
4, 133683, Note_off_c, 2, 58, 64
4, 133790, Note_off_c, 2, 60, 64
4, 134399, Note_on_c, 2, 78, 74
4, 134505, Note_off_c, 2, 78, 64
4, 134509, Note_on_c, 2, 77, 45
4, 134629, Note_on_c, 2, 78, 58
4, 134630, Note_off_c, 2, 77, 64
4, 134765, Note_off_c, 2, 78, 64
4, 135355, Note_on_c, 2, 72, 83
4, 135467, Note_on_c, 2, 70, 57
4, 135468, Note_off_c, 2, 72, 64
4, 135587, Note_on_c, 2, 72, 63
4, 135595, Note_off_c, 2, 70, 64
4, 135729, Note_off_c, 2, 72, 64
4, 136085, Note_on_c, 2, 77, 106
4, 136175, Note_off_c, 2, 77, 64
4, 136198, Note_on_c, 2, 75, 64
4, 136288, Note_off_c, 2, 75, 64
4, 136311, Note_on_c, 2, 77, 69
4, 136320, Control_c, 2, 11, 102
4, 136362, Control_c, 2, 11, 97
4, 136404, Control_c, 2, 11, 93
4, 136446, Control_c, 2, 11, 88
4, 136461, Note_off_c, 2, 77, 64
4, 136487, Control_c, 2, 11, 84
4, 136518, Control_c, 2, 11, 100
4, 136565, Note_on_c, 2, 73, 92
4, 136655, Note_off_c, 2, 73, 64
4, 136678, Note_on_c, 2, 72, 50
4, 136768, Note_off_c, 2, 72, 64
4, 136792, Note_on_c, 2, 73, 69
4, 136806, Control_c, 2, 11, 102
4, 136846, Control_c, 2, 11, 97
4, 136887, Control_c, 2, 11, 93
4, 136927, Control_c, 2, 11, 88
4, 136942, Note_off_c, 2, 73, 64
4, 136967, Control_c, 2, 11, 84
4, 137004, Control_c, 2, 11, 100
4, 137045, Note_on_c, 2, 77, 106
4, 137135, Note_off_c, 2, 77, 64
4, 137158, Note_on_c, 2, 75, 62
4, 137248, Note_off_c, 2, 75, 64
4, 137275, Note_on_c, 2, 77, 57
4, 137280, Control_c, 2, 11, 98
4, 137319, Control_c, 2, 11, 94
4, 137358, Control_c, 2, 11, 91
4, 137397, Control_c, 2, 11, 87
4, 137425, Note_off_c, 2, 77, 64
4, 137435, Control_c, 2, 11, 84
4, 137490, Control_c, 2, 11, 100
4, 137525, Note_on_c, 2, 70, 86
4, 137615, Note_off_c, 2, 70, 64
4, 137638, Note_on_c, 2, 69, 54
4, 137728, Note_off_c, 2, 69, 64
4, 137752, Note_on_c, 2, 70, 67
4, 137760, Control_c, 2, 11, 98
4, 137799, Control_c, 2, 11, 94
4, 137838, Control_c, 2, 11, 90
4, 137877, Control_c, 2, 11, 86
4, 137902, Note_off_c, 2, 70, 64
4, 137915, Control_c, 2, 11, 82
4, 137982, Control_c, 2, 11, 100
4, 138005, Note_on_c, 2, 77, 106
4, 138095, Note_off_c, 2, 77, 64
4, 138118, Note_on_c, 2, 75, 81
4, 138208, Note_off_c, 2, 75, 64
4, 138228, Control_c, 2, 11, 100
4, 138233, Note_on_c, 2, 77, 49
4, 138270, Control_c, 2, 11, 96
4, 138312, Control_c, 2, 11, 92
4, 138354, Control_c, 2, 11, 88
4, 138383, Note_off_c, 2, 77, 64
4, 138395, Control_c, 2, 11, 84
4, 138432, Control_c, 2, 11, 100
4, 143984, Note_on_c, 2, 65, 57
4, 144182, Note_off_c, 2, 65, 64
4, 144246, Note_on_c, 2, 70, 68
4, 144346, Note_off_c, 2, 70, 64
4, 144473, Note_on_c, 2, 70, 74
4, 144583, Note_off_c, 2, 70, 64
4, 144710, Note_on_c, 2, 69, 66
4, 144807, Note_off_c, 2, 69, 64
4, 144954, Note_on_c, 2, 70, 57
4, 144960, Control_c, 2, 11, 92
4, 145002, Control_c, 2, 11, 99
4, 145044, Control_c, 2, 11, 106
4, 145085, Control_c, 2, 11, 114
4, 145116, Control_c, 2, 11, 110
4, 145158, Control_c, 2, 11, 102
4, 145171, Note_off_c, 2, 70, 64
4, 145200, Control_c, 2, 11, 94
4, 145241, Control_c, 2, 11, 86
4, 145308, Control_c, 2, 11, 100
4, 147125, Note_on_c, 2, 70, 92
4, 147215, Note_off_c, 2, 70, 64
4, 147238, Note_on_c, 2, 69, 80
4, 147328, Note_off_c, 2, 69, 64
4, 147348, Note_on_c, 2, 70, 71
4, 147378, Control_c, 2, 11, 98
4, 147418, Control_c, 2, 11, 92
4, 147458, Control_c, 2, 11, 87
4, 147497, Control_c, 2, 11, 82
4, 147498, Note_off_c, 2, 70, 64
4, 147576, Control_c, 2, 11, 100
4, 147605, Note_on_c, 2, 73, 85
4, 147695, Note_off_c, 2, 73, 64
4, 147718, Note_on_c, 2, 72, 75
4, 147808, Note_off_c, 2, 72, 64
4, 147827, Note_on_c, 2, 70, 77
4, 147846, Control_c, 2, 11, 94
4, 147890, Control_c, 2, 11, 88
4, 147934, Control_c, 2, 11, 82
4, 147977, Note_off_c, 2, 70, 64
4, 147977, Control_c, 2, 11, 76
4, 148044, Control_c, 2, 11, 100
4, 148071, Note_on_c, 2, 73, 82
4, 148193, Note_off_c, 2, 73, 64
4, 148308, Control_c, 2, 11, 94
4, 148315, Note_on_c, 2, 73, 90
4, 148350, Control_c, 2, 11, 99
4, 148392, Control_c, 2, 11, 104
4, 148422, Control_c, 2, 11, 108
4, 148446, Control_c, 2, 11, 104
4, 148491, Control_c, 2, 11, 93
4, 148495, Note_off_c, 2, 73, 64
4, 148535, Control_c, 2, 11, 82
4, 148548, Control_c, 2, 11, 100
4, 148565, Note_on_c, 2, 72, 103
4, 148655, Note_off_c, 2, 72, 64
4, 148678, Note_on_c, 2, 73, 64
4, 148768, Note_off_c, 2, 73, 64
4, 148796, Note_on_c, 2, 72, 70
4, 148946, Note_off_c, 2, 72, 64
4, 149050, Note_on_c, 2, 72, 88
4, 149155, Note_off_c, 2, 72, 64
4, 149262, Control_c, 2, 11, 92
4, 149263, Note_on_c, 2, 72, 88
4, 149304, Control_c, 2, 11, 99
4, 149346, Control_c, 2, 11, 106
4, 149387, Control_c, 2, 11, 114
4, 149406, Control_c, 2, 11, 104
4, 149451, Control_c, 2, 11, 94
4, 149473, Note_off_c, 2, 72, 64
4, 149495, Control_c, 2, 11, 84
4, 149508, Control_c, 2, 11, 100
4, 149525, Note_on_c, 2, 70, 97
4, 149615, Note_off_c, 2, 70, 64
4, 149638, Note_on_c, 2, 72, 68
4, 149728, Note_off_c, 2, 72, 64
4, 149754, Control_c, 2, 11, 88
4, 149769, Note_on_c, 2, 70, 97
4, 149797, Control_c, 2, 11, 95
4, 149841, Control_c, 2, 11, 103
4, 149884, Control_c, 2, 11, 111
4, 149927, Control_c, 2, 11, 120
4, 149958, Control_c, 2, 11, 104
4, 149998, Control_c, 2, 11, 96
4, 150038, Control_c, 2, 11, 89
4, 150066, Note_off_c, 2, 70, 64
4, 150077, Control_c, 2, 11, 82
4, 150090, Control_c, 2, 11, 100
4, 150117, Note_on_c, 2, 72, 72
4, 150207, Note_off_c, 2, 72, 64
4, 150216, Control_c, 2, 11, 78
4, 150222, Note_on_c, 2, 70, 93
4, 150264, Control_c, 2, 11, 85
4, 150312, Control_c, 2, 11, 92
4, 150359, Control_c, 2, 11, 100
4, 150365, Note_on_c, 2, 69, 80
4, 150372, Note_off_c, 2, 70, 64
4, 150429, Note_on_c, 2, 70, 61
4, 150439, Note_off_c, 2, 69, 64
4, 150472, Note_on_c, 2, 69, 61
4, 150476, Note_off_c, 2, 70, 64
4, 150512, Note_on_c, 2, 70, 61
4, 150523, Note_off_c, 2, 69, 64
4, 150549, Note_on_c, 2, 69, 61
4, 150558, Note_off_c, 2, 70, 64
4, 150605, Note_on_c, 2, 70, 57
4, 150624, Note_off_c, 2, 69, 64
4, 150665, Note_off_c, 2, 70, 64
4, 150696, Control_c, 2, 11, 88
4, 150734, Control_c, 2, 11, 94
4, 150735, Note_on_c, 2, 70, 54
4, 150772, Control_c, 2, 11, 100
4, 150811, Control_c, 2, 11, 107
4, 150849, Control_c, 2, 11, 113
4, 150887, Control_c, 2, 11, 120
4, 150912, Control_c, 2, 11, 116
4, 150952, Control_c, 2, 11, 107
4, 150983, Note_off_c, 2, 70, 64
4, 150992, Control_c, 2, 11, 98
4, 151031, Control_c, 2, 11, 90
4, 151074, Control_c, 2, 11, 100
4, 151445, Note_on_c, 2, 66, 103
4, 151535, Note_off_c, 2, 66, 64
4, 151558, Note_on_c, 2, 65, 68
4, 151648, Note_off_c, 2, 65, 64
4, 151679, Note_on_c, 2, 66, 68
4, 151692, Control_c, 2, 11, 96
4, 151726, Control_c, 2, 11, 88
4, 151761, Control_c, 2, 11, 80
4, 151795, Control_c, 2, 11, 72
4, 151829, Note_off_c, 2, 66, 64
4, 151872, Control_c, 2, 11, 100
4, 151925, Note_on_c, 2, 61, 97
4, 152015, Note_off_c, 2, 61, 64
4, 152038, Note_on_c, 2, 59, 74
4, 152128, Note_off_c, 2, 59, 64
4, 152159, Note_on_c, 2, 61, 69
4, 152180, Control_c, 2, 11, 96
4, 152232, Control_c, 2, 11, 84
4, 152283, Control_c, 2, 11, 72
4, 152309, Note_off_c, 2, 61, 64
4, 152352, Control_c, 2, 11, 100
4, 152405, Note_on_c, 2, 66, 93
4, 152495, Note_off_c, 2, 66, 64
4, 152518, Note_on_c, 2, 65, 77
4, 152608, Note_off_c, 2, 65, 64
4, 152632, Note_on_c, 2, 66, 74
4, 152648, Control_c, 2, 11, 94
4, 152689, Control_c, 2, 11, 83
4, 152730, Control_c, 2, 11, 72
4, 152771, Control_c, 2, 11, 62
4, 152782, Note_off_c, 2, 66, 64
4, 152824, Control_c, 2, 11, 100
4, 152885, Note_on_c, 2, 58, 92
4, 152975, Note_off_c, 2, 58, 64
4, 152998, Note_on_c, 2, 56, 74
4, 153088, Note_off_c, 2, 56, 64
4, 153114, Note_on_c, 2, 58, 74
4, 153136, Control_c, 2, 11, 96
4, 153192, Control_c, 2, 11, 82
4, 153247, Control_c, 2, 11, 68
4, 153264, Note_off_c, 2, 58, 64
4, 153316, Control_c, 2, 11, 100
4, 153365, Note_on_c, 2, 66, 97
4, 153455, Note_off_c, 2, 66, 64
4, 153478, Note_on_c, 2, 65, 81
4, 153568, Note_off_c, 2, 65, 64
4, 153592, Note_on_c, 2, 66, 75
4, 153604, Control_c, 2, 11, 90
4, 153650, Control_c, 2, 11, 79
4, 153697, Control_c, 2, 11, 68
4, 153742, Note_off_c, 2, 66, 64
4, 153743, Control_c, 2, 11, 58
4, 153812, Control_c, 2, 11, 100
4, 153845, Note_on_c, 2, 54, 111
4, 153935, Note_off_c, 2, 54, 64
4, 153958, Note_on_c, 2, 56, 80
4, 154048, Note_off_c, 2, 56, 64
4, 154083, Note_on_c, 2, 58, 83
4, 154173, Note_off_c, 2, 58, 64
4, 154321, Note_on_c, 2, 60, 84
4, 154411, Note_off_c, 2, 60, 64
4, 154528, Control_c, 2, 11, 66
4, 154557, Note_on_c, 2, 61, 75
4, 154570, Control_c, 2, 11, 75
4, 154612, Control_c, 2, 11, 84
4, 154655, Control_c, 2, 11, 94
4, 154697, Control_c, 2, 11, 104
4, 154739, Control_c, 2, 11, 114
4, 154788, Control_c, 2, 11, 96
4, 154836, Control_c, 2, 11, 80
4, 154872, Note_off_c, 2, 61, 64
4, 154956, Control_c, 2, 11, 100
4, 155484, Control_c, 2, 11, 64
4, 155520, Note_on_c, 2, 61, 88
4, 155524, Control_c, 2, 11, 71
4, 155564, Control_c, 2, 11, 78
4, 155604, Control_c, 2, 11, 85
4, 155644, Control_c, 2, 11, 92
4, 155684, Control_c, 2, 11, 99
4, 155724, Control_c, 2, 11, 106
4, 155763, Control_c, 2, 11, 114
4, 155808, Control_c, 2, 11, 96
4, 155844, Control_c, 2, 11, 74
4, 155888, Control_c, 2, 11, 56
4, 155915, Note_off_c, 2, 61, 64
4, 155984, Control_c, 2, 11, 52
4, 155991, Note_on_c, 2, 65, 93
4, 156022, Control_c, 2, 11, 57
4, 156060, Control_c, 2, 11, 63
4, 156098, Control_c, 2, 11, 69
4, 156136, Control_c, 2, 11, 75
4, 156175, Control_c, 2, 11, 81
4, 156213, Control_c, 2, 11, 87
4, 156251, Control_c, 2, 11, 93
4, 156289, Control_c, 2, 11, 99
4, 156327, Control_c, 2, 11, 106
4, 156364, Control_c, 2, 11, 92
4, 156392, Control_c, 2, 11, 74
4, 156424, Control_c, 2, 11, 50
4, 156426, Note_off_c, 2, 65, 64
4, 156464, Control_c, 2, 11, 56
4, 156471, Note_on_c, 2, 68, 98
4, 156502, Control_c, 2, 11, 61
4, 156541, Control_c, 2, 11, 67
4, 156580, Control_c, 2, 11, 73
4, 156619, Control_c, 2, 11, 79
4, 156658, Control_c, 2, 11, 85
4, 156696, Control_c, 2, 11, 91
4, 156735, Control_c, 2, 11, 97
4, 156774, Control_c, 2, 11, 103
4, 156813, Control_c, 2, 11, 109
4, 156851, Control_c, 2, 11, 116
4, 156884, Control_c, 2, 11, 98
4, 156912, Control_c, 2, 11, 72
4, 156944, Control_c, 2, 11, 54
4, 156962, Note_off_c, 2, 68, 64
4, 157080, Control_c, 2, 11, 100
4, 157192, Note_on_c, 2, 68, 87
4, 157297, Note_off_c, 2, 68, 64
4, 157412, Control_c, 2, 11, 64
4, 157437, Control_c, 2, 11, 71
4, 157438, Note_on_c, 2, 65, 89
4, 157462, Control_c, 2, 11, 79
4, 157488, Control_c, 2, 11, 87
4, 157513, Control_c, 2, 11, 95
4, 157538, Control_c, 2, 11, 103
4, 157572, Control_c, 2, 11, 108
4, 157602, Control_c, 2, 11, 97
4, 157631, Control_c, 2, 11, 86
4, 157636, Note_off_c, 2, 65, 64
4, 157679, Note_on_c, 2, 68, 95
4, 157680, Control_c, 2, 11, 72
4, 157711, Control_c, 2, 11, 82
4, 157742, Control_c, 2, 11, 92
4, 157773, Control_c, 2, 11, 103
4, 157803, Control_c, 2, 11, 114
4, 157832, Control_c, 2, 11, 100
4, 157872, Control_c, 2, 11, 82
4, 157889, Note_off_c, 2, 68, 64
4, 157904, Control_c, 2, 11, 100
4, 157920, Note_on_c, 2, 73, 122
4, 158016, Note_off_c, 2, 73, 64
4, 158034, Note_on_c, 2, 77, 104
4, 158135, Note_off_c, 2, 77, 64
4, 158149, Note_on_c, 2, 75, 109
4, 158239, Note_off_c, 2, 75, 64
4, 158267, Note_on_c, 2, 73, 84
4, 158349, Note_off_c, 2, 73, 64
4, 158395, Note_on_c, 2, 72, 110
4, 158513, Note_on_c, 2, 73, 82
4, 158520, Note_off_c, 2, 72, 64
4, 158636, Note_off_c, 2, 73, 64
4, 158638, Note_on_c, 2, 75, 88
4, 158730, Note_off_c, 2, 75, 64
4, 158755, Note_on_c, 2, 73, 100
4, 158838, Note_off_c, 2, 73, 64
4, 158874, Note_on_c, 2, 72, 110
4, 158970, Note_off_c, 2, 72, 64
4, 158990, Note_on_c, 2, 70, 84
4, 159073, Note_off_c, 2, 70, 64
4, 159112, Note_on_c, 2, 68, 92
4, 159189, Note_off_c, 2, 68, 64
4, 159228, Note_on_c, 2, 66, 74
4, 159310, Note_off_c, 2, 66, 64
4, 159359, Note_on_c, 2, 65, 96
4, 159478, Note_on_c, 2, 63, 58
4, 159500, Note_off_c, 2, 65, 64
4, 159597, Note_on_c, 2, 65, 64
4, 159620, Note_off_c, 2, 63, 64
4, 159691, Note_off_c, 2, 65, 64
4, 159717, Note_on_c, 2, 66, 70
4, 159803, Note_off_c, 2, 66, 64
4, 159835, Note_on_c, 2, 65, 80
4, 159928, Note_off_c, 2, 65, 64
4, 159951, Note_on_c, 2, 68, 71
4, 160037, Note_off_c, 2, 68, 64
4, 160075, Note_on_c, 2, 63, 89
4, 160155, Note_off_c, 2, 63, 64
4, 160192, Note_on_c, 2, 66, 68
4, 160262, Note_off_c, 2, 66, 64
4, 160292, Control_c, 2, 11, 72
4, 160318, Note_on_c, 2, 65, 83
4, 160319, Control_c, 2, 11, 77
4, 160347, Control_c, 2, 11, 82
4, 160374, Control_c, 2, 11, 87
4, 160402, Control_c, 2, 11, 92
4, 160429, Control_c, 2, 11, 98
4, 160457, Control_c, 2, 11, 103
4, 160484, Control_c, 2, 11, 108
4, 160520, Control_c, 2, 11, 86
4, 160560, Control_c, 2, 11, 66
4, 160588, Control_c, 2, 11, 50
4, 160613, Note_off_c, 2, 65, 64
4, 160632, Control_c, 2, 11, 100
4, 161040, Note_on_c, 2, 65, 78
4, 161113, Note_off_c, 2, 65, 64
4, 161284, Note_on_c, 2, 66, 76
4, 161404, Note_on_c, 2, 65, 70
4, 161412, Note_off_c, 2, 66, 64
4, 161519, Note_on_c, 2, 66, 74
4, 161532, Note_off_c, 2, 65, 64
4, 161603, Note_off_c, 2, 66, 64
4, 161634, Note_on_c, 2, 68, 80
4, 161717, Note_off_c, 2, 68, 64
4, 161754, Note_on_c, 2, 66, 80
4, 161836, Note_off_c, 2, 66, 64
4, 161870, Note_on_c, 2, 70, 74
4, 161953, Note_off_c, 2, 70, 64
4, 161992, Note_on_c, 2, 65, 93
4, 162056, Note_off_c, 2, 65, 64
4, 162110, Note_on_c, 2, 68, 80
4, 162178, Note_off_c, 2, 68, 64
4, 162237, Note_on_c, 2, 66, 104
4, 162357, Note_on_c, 2, 68, 70
4, 162358, Note_off_c, 2, 66, 64
4, 162470, Note_off_c, 2, 68, 64
4, 162478, Note_on_c, 2, 70, 70
4, 162558, Note_off_c, 2, 70, 64
4, 162596, Note_on_c, 2, 68, 77
4, 162678, Note_off_c, 2, 68, 64
4, 162718, Note_on_c, 2, 66, 79
4, 162823, Note_off_c, 2, 66, 64
4, 162834, Note_on_c, 2, 65, 71
4, 162933, Note_off_c, 2, 65, 64
4, 162952, Note_on_c, 2, 63, 78
4, 163041, Note_off_c, 2, 63, 64
4, 163075, Note_on_c, 2, 62, 75
4, 163142, Note_off_c, 2, 62, 64
4, 163198, Note_on_c, 2, 63, 93
4, 163320, Note_on_c, 2, 62, 70
4, 163337, Note_off_c, 2, 63, 64
4, 163439, Note_on_c, 2, 63, 70
4, 163444, Note_off_c, 2, 62, 64
4, 163525, Note_off_c, 2, 63, 64
4, 163556, Note_on_c, 2, 65, 93
4, 163626, Note_off_c, 2, 65, 64
4, 163675, Note_on_c, 2, 63, 82
4, 163769, Note_off_c, 2, 63, 64
4, 163791, Note_on_c, 2, 66, 82
4, 163874, Note_off_c, 2, 66, 64
4, 163913, Note_on_c, 2, 62, 89
4, 164000, Note_off_c, 2, 62, 64
4, 164030, Note_on_c, 2, 65, 81
4, 164098, Note_off_c, 2, 65, 64
4, 164160, Note_on_c, 2, 63, 92
4, 164279, Note_off_c, 2, 63, 64
4, 164282, Note_on_c, 2, 65, 64
4, 164387, Note_off_c, 2, 65, 64
4, 164400, Note_on_c, 2, 66, 74
4, 164480, Note_off_c, 2, 66, 64
4, 164513, Note_on_c, 2, 65, 89
4, 164606, Note_off_c, 2, 65, 64
4, 164634, Note_on_c, 2, 63, 82
4, 164734, Note_off_c, 2, 63, 64
4, 164753, Note_on_c, 2, 61, 76
4, 164834, Note_off_c, 2, 61, 64
4, 164873, Note_on_c, 2, 59, 82
4, 164958, Note_off_c, 2, 59, 64
4, 164992, Note_on_c, 2, 58, 81
4, 165067, Note_off_c, 2, 58, 64
4, 165123, Note_on_c, 2, 59, 101
4, 165232, Note_off_c, 2, 59, 64
4, 165247, Note_on_c, 2, 58, 70
4, 165347, Note_off_c, 2, 58, 64
4, 165352, Note_on_c, 2, 56, 71
4, 165429, Note_off_c, 2, 56, 64
4, 165463, Note_on_c, 2, 59, 89
4, 165544, Note_off_c, 2, 59, 64
4, 165588, Note_on_c, 2, 58, 97
4, 165694, Note_off_c, 2, 58, 64
4, 165707, Note_on_c, 2, 61, 81
4, 165790, Note_off_c, 2, 61, 64
4, 165826, Note_on_c, 2, 59, 90
4, 165906, Note_off_c, 2, 59, 64
4, 165947, Note_on_c, 2, 58, 73
4, 166036, Note_off_c, 2, 58, 64
4, 166075, Note_on_c, 2, 56, 93
4, 166177, Note_off_c, 2, 56, 64
4, 166190, Note_on_c, 2, 58, 77
4, 166279, Note_off_c, 2, 58, 64
4, 166310, Note_on_c, 2, 59, 88
4, 166392, Note_off_c, 2, 59, 64
4, 166428, Note_on_c, 2, 61, 74
4, 166524, Note_off_c, 2, 61, 64
4, 166551, Note_on_c, 2, 63, 92
4, 166649, Note_off_c, 2, 63, 64
4, 166668, Note_on_c, 2, 65, 79
4, 166749, Note_off_c, 2, 65, 64
4, 166789, Note_on_c, 2, 66, 93
4, 166885, Note_off_c, 2, 66, 64
4, 166910, Note_on_c, 2, 68, 73
4, 166993, Note_off_c, 2, 68, 64
4, 167038, Note_on_c, 2, 61, 71
4, 167254, Note_off_c, 2, 61, 64
4, 167764, Note_on_c, 2, 66, 89
4, 167864, Note_off_c, 2, 66, 64
4, 167877, Note_on_c, 2, 68, 75
4, 167943, Note_off_c, 2, 68, 64
4, 167998, Note_on_c, 2, 70, 95
4, 168092, Note_off_c, 2, 70, 64
4, 168112, Note_on_c, 2, 71, 70
4, 168220, Note_off_c, 2, 71, 64
4, 168236, Note_on_c, 2, 73, 88
4, 168315, Note_off_c, 2, 73, 64
4, 168355, Note_on_c, 2, 75, 71
4, 168426, Note_off_c, 2, 75, 64
4, 168475, Note_on_c, 2, 73, 101
4, 168567, Note_off_c, 2, 73, 64
4, 168604, Note_on_c, 2, 71, 80
4, 168679, Note_off_c, 2, 71, 64
4, 168712, Note_on_c, 2, 70, 89
4, 168799, Note_off_c, 2, 70, 64
4, 168827, Note_on_c, 2, 68, 78
4, 168899, Note_off_c, 2, 68, 64
4, 168951, Note_on_c, 2, 66, 88
4, 169131, Note_off_c, 2, 66, 64
4, 169192, Note_on_c, 2, 70, 101
4, 169370, Note_off_c, 2, 70, 64
4, 169431, Note_on_c, 2, 75, 105
4, 169531, Note_off_c, 2, 75, 64
4, 169547, Note_on_c, 2, 78, 92
4, 169649, Note_off_c, 2, 78, 64
4, 169681, Note_on_c, 2, 77, 93
4, 169781, Note_off_c, 2, 77, 64
4, 169801, Note_on_c, 2, 75, 82
4, 169901, Note_off_c, 2, 75, 64
4, 169920, Note_on_c, 2, 73, 83
4, 170042, Note_on_c, 2, 68, 76
4, 170044, Note_off_c, 2, 73, 64
4, 170137, Note_off_c, 2, 68, 64
4, 170159, Note_on_c, 2, 73, 76
4, 170244, Note_off_c, 2, 73, 64
4, 170282, Note_on_c, 2, 68, 77
4, 170364, Note_off_c, 2, 68, 64
4, 170402, Note_on_c, 2, 73, 77
4, 170490, Note_off_c, 2, 73, 64
4, 170521, Note_on_c, 2, 68, 79
4, 170596, Note_off_c, 2, 68, 64
4, 170639, Note_on_c, 2, 73, 81
4, 170720, Note_off_c, 2, 73, 64
4, 170758, Note_on_c, 2, 68, 76
4, 170830, Note_off_c, 2, 68, 64
4, 170884, Note_on_c, 2, 70, 81
4, 170990, Note_off_c, 2, 70, 64
4, 171004, Note_on_c, 2, 66, 74
4, 171074, Note_off_c, 2, 66, 64
4, 171123, Note_on_c, 2, 70, 77
4, 171201, Note_off_c, 2, 70, 64
4, 171239, Note_on_c, 2, 66, 74
4, 171318, Note_off_c, 2, 66, 64
4, 171362, Note_on_c, 2, 70, 80
4, 171457, Note_off_c, 2, 70, 64
4, 171478, Note_on_c, 2, 66, 74
4, 171555, Note_off_c, 2, 66, 64
4, 171602, Note_on_c, 2, 70, 75
4, 171716, Note_off_c, 2, 70, 64
4, 171717, Note_on_c, 2, 66, 74
4, 171798, Note_off_c, 2, 66, 64
4, 171839, Note_on_c, 2, 71, 77
4, 171941, Note_off_c, 2, 71, 64
4, 171955, Note_on_c, 2, 66, 74
4, 172032, Note_off_c, 2, 66, 64
4, 172075, Note_on_c, 2, 71, 74
4, 172185, Note_off_c, 2, 71, 64
4, 172198, Note_on_c, 2, 66, 73
4, 172280, Note_off_c, 2, 66, 64
4, 172318, Note_on_c, 2, 71, 73
4, 172427, Note_off_c, 2, 71, 64
4, 172434, Note_on_c, 2, 66, 73
4, 172514, Note_off_c, 2, 66, 64
4, 172559, Note_on_c, 2, 71, 74
4, 172664, Note_off_c, 2, 71, 64
4, 172672, Note_on_c, 2, 66, 72
4, 172758, Note_off_c, 2, 66, 64
4, 172799, Note_on_c, 2, 72, 71
4, 172914, Note_on_c, 2, 69, 61
4, 172919, Note_off_c, 2, 72, 64
4, 172993, Note_off_c, 2, 69, 64
4, 173035, Note_on_c, 2, 72, 71
4, 173136, Note_off_c, 2, 72, 64
4, 173150, Note_on_c, 2, 69, 64
4, 173229, Note_off_c, 2, 69, 64
4, 173275, Note_on_c, 2, 72, 75
4, 173385, Note_off_c, 2, 72, 64
4, 173393, Note_on_c, 2, 69, 65
4, 173469, Note_off_c, 2, 69, 64
4, 173516, Note_on_c, 2, 72, 75
4, 173630, Note_off_c, 2, 72, 64
4, 173631, Note_on_c, 2, 69, 65
4, 173711, Note_off_c, 2, 69, 64
4, 173756, Note_on_c, 2, 70, 71
4, 173863, Note_off_c, 2, 70, 64
4, 173875, Note_on_c, 2, 65, 62
4, 173962, Note_off_c, 2, 65, 64
4, 173994, Note_on_c, 2, 70, 71
4, 174085, Note_off_c, 2, 70, 64
4, 174112, Note_on_c, 2, 65, 60
4, 174214, Note_off_c, 2, 65, 64
4, 174236, Note_on_c, 2, 70, 71
4, 174329, Note_off_c, 2, 70, 64
4, 174354, Note_on_c, 2, 65, 58
4, 174467, Note_off_c, 2, 65, 64
4, 174477, Note_on_c, 2, 70, 62
4, 174562, Note_off_c, 2, 70, 64
4, 174589, Note_on_c, 2, 65, 62
4, 174674, Note_off_c, 2, 65, 64
4, 174714, Note_on_c, 2, 70, 70
4, 174819, Note_off_c, 2, 70, 64
4, 174830, Note_on_c, 2, 67, 48
4, 174921, Note_off_c, 2, 67, 64
4, 174951, Note_on_c, 2, 70, 69
4, 175048, Note_off_c, 2, 70, 64
4, 175071, Note_on_c, 2, 67, 44
4, 175152, Note_off_c, 2, 67, 64
4, 175191, Note_on_c, 2, 70, 66
4, 175291, Note_off_c, 2, 70, 64
4, 175310, Note_on_c, 2, 67, 47
4, 175390, Note_off_c, 2, 67, 64
4, 175430, Note_on_c, 2, 70, 68
4, 175526, Note_off_c, 2, 70, 64
4, 175548, Note_on_c, 2, 67, 42
4, 175626, Note_off_c, 2, 67, 64
4, 175675, Note_on_c, 2, 68, 68
4, 175767, Note_off_c, 2, 68, 64
4, 175794, Note_on_c, 2, 63, 49
4, 175870, Note_off_c, 2, 63, 64
4, 175918, Note_on_c, 2, 68, 68
4, 176005, Note_off_c, 2, 68, 64
4, 176037, Note_on_c, 2, 63, 46
4, 176124, Note_off_c, 2, 63, 64
4, 176158, Note_on_c, 2, 68, 68
4, 176256, Note_off_c, 2, 68, 64
4, 176276, Note_on_c, 2, 63, 43
4, 176349, Note_off_c, 2, 63, 64
4, 176397, Note_on_c, 2, 68, 68
4, 176476, Note_off_c, 2, 68, 64
4, 176512, Note_on_c, 2, 63, 52
4, 176599, Note_off_c, 2, 63, 64
4, 176640, Note_on_c, 2, 64, 58
4, 176756, Note_on_c, 2, 63, 51
4, 176759, Note_off_c, 2, 64, 64
4, 176868, Control_c, 2, 11, 98
4, 176875, Note_on_c, 2, 64, 47
4, 176896, Note_off_c, 2, 63, 64
4, 176908, Control_c, 2, 11, 92
4, 176948, Control_c, 2, 11, 86
4, 176987, Control_c, 2, 11, 80
4, 176994, Note_off_c, 2, 64, 64
4, 177066, Control_c, 2, 11, 100
4, 177590, Note_on_c, 2, 64, 74
4, 177710, Note_on_c, 2, 63, 57
4, 177722, Note_off_c, 2, 64, 64
4, 177834, Control_c, 2, 11, 98
4, 177836, Note_on_c, 2, 64, 47
4, 177842, Note_off_c, 2, 63, 64
4, 177872, Control_c, 2, 11, 90
4, 177910, Control_c, 2, 11, 83
4, 177937, Note_off_c, 2, 64, 64
4, 177947, Control_c, 2, 11, 76
4, 178014, Control_c, 2, 11, 100
4, 178556, Note_on_c, 2, 68, 74
4, 178675, Note_on_c, 2, 66, 63
4, 178699, Note_off_c, 2, 68, 64
4, 178790, Note_on_c, 2, 68, 54
4, 178794, Control_c, 2, 11, 98
4, 178794, Note_off_c, 2, 66, 64
4, 178836, Control_c, 2, 11, 92
4, 178878, Control_c, 2, 11, 87
4, 178909, Note_off_c, 2, 68, 64
4, 178919, Control_c, 2, 11, 82
4, 178992, Control_c, 2, 11, 100
4, 179522, Note_on_c, 2, 68, 74
4, 179636, Note_on_c, 2, 66, 63
4, 179651, Note_off_c, 2, 68, 64
4, 179754, Control_c, 2, 11, 98
4, 179756, Note_on_c, 2, 68, 65
4, 179761, Note_off_c, 2, 66, 64
4, 179800, Control_c, 2, 11, 91
4, 179846, Control_c, 2, 11, 84
4, 179862, Note_off_c, 2, 68, 64
4, 179891, Control_c, 2, 11, 78
4, 179946, Control_c, 2, 11, 100
4, 180476, Note_on_c, 2, 70, 74
4, 180594, Note_on_c, 2, 68, 58
4, 180610, Note_off_c, 2, 70, 64
4, 180714, Control_c, 2, 11, 98
4, 180715, Note_on_c, 2, 70, 63
4, 180718, Note_off_c, 2, 68, 64
4, 180753, Control_c, 2, 11, 91
4, 180792, Control_c, 2, 11, 85
4, 180831, Control_c, 2, 11, 78
4, 180848, Note_off_c, 2, 70, 64
4, 180869, Control_c, 2, 11, 72
4, 180924, Control_c, 2, 11, 100
4, 181438, Note_on_c, 2, 70, 74
4, 181560, Note_on_c, 2, 68, 53
4, 181575, Note_off_c, 2, 70, 64
4, 181680, Note_on_c, 2, 70, 58
4, 181690, Note_off_c, 2, 68, 64
4, 181692, Control_c, 2, 11, 96
4, 181734, Control_c, 2, 11, 91
4, 181776, Control_c, 2, 11, 86
4, 181811, Note_off_c, 2, 70, 64
4, 181817, Control_c, 2, 11, 82
4, 181908, Control_c, 2, 11, 100
4, 182403, Note_on_c, 2, 77, 85
4, 182515, Note_on_c, 2, 75, 74
4, 182522, Note_off_c, 2, 77, 64
4, 182640, Control_c, 2, 11, 92
4, 182644, Note_on_c, 2, 77, 53
4, 182658, Note_off_c, 2, 75, 64
4, 182684, Control_c, 2, 11, 85
4, 182728, Control_c, 2, 11, 78
4, 182771, Control_c, 2, 11, 72
4, 182779, Note_off_c, 2, 77, 64
4, 182856, Control_c, 2, 11, 100
4, 183364, Note_on_c, 2, 77, 75
4, 183475, Note_off_c, 2, 77, 64
4, 183475, Note_on_c, 2, 75, 57
4, 183600, Control_c, 2, 11, 96
4, 183607, Note_on_c, 2, 77, 46
4, 183619, Note_off_c, 2, 75, 64
4, 183644, Control_c, 2, 11, 90
4, 183688, Control_c, 2, 11, 85
4, 183728, Note_off_c, 2, 77, 64
4, 183731, Control_c, 2, 11, 80
4, 183810, Control_c, 2, 11, 100
4, 184321, Note_on_c, 2, 75, 78
4, 184444, Note_on_c, 2, 76, 63
4, 184467, Note_off_c, 2, 75, 64
4, 184536, Control_c, 2, 11, 94
4, 184547, Note_off_c, 2, 76, 64
4, 184562, Note_on_c, 2, 75, 58
4, 184576, Control_c, 2, 11, 90
4, 184616, Control_c, 2, 11, 86
4, 184655, Control_c, 2, 11, 82
4, 184666, Note_off_c, 2, 75, 64
4, 184728, Control_c, 2, 11, 100
4, 185285, Note_on_c, 2, 75, 80
4, 185404, Note_on_c, 2, 76, 43
4, 185413, Note_off_c, 2, 75, 64
4, 185502, Control_c, 2, 11, 96
4, 185506, Note_off_c, 2, 76, 64
4, 185520, Note_on_c, 2, 75, 66
4, 185548, Control_c, 2, 11, 92
4, 185594, Control_c, 2, 11, 88
4, 185619, Note_off_c, 2, 75, 64
4, 185639, Control_c, 2, 11, 84
4, 185676, Control_c, 2, 11, 100
4, 186239, Note_on_c, 2, 79, 103
4, 186353, Note_on_c, 2, 77, 78
4, 186366, Note_off_c, 2, 79, 64
4, 186472, Note_on_c, 2, 79, 57
4, 186474, Control_c, 2, 11, 100
4, 186482, Note_off_c, 2, 77, 64
4, 186516, Control_c, 2, 11, 93
4, 186558, Control_c, 2, 11, 87
4, 186600, Control_c, 2, 11, 80
4, 186625, Note_off_c, 2, 79, 64
4, 186641, Control_c, 2, 11, 74
4, 186684, Control_c, 2, 11, 100
4, 187202, Note_on_c, 2, 79, 111
4, 187315, Note_on_c, 2, 77, 77
4, 187316, Note_off_c, 2, 79, 64
4, 187434, Note_on_c, 2, 79, 51
4, 187440, Control_c, 2, 11, 100
4, 187452, Note_off_c, 2, 77, 64
4, 187477, Control_c, 2, 11, 94
4, 187515, Control_c, 2, 11, 89
4, 187552, Control_c, 2, 11, 83
4, 187559, Note_off_c, 2, 79, 64
4, 187589, Control_c, 2, 11, 78
4, 187662, Control_c, 2, 11, 100
4, 188142, Control_c, 2, 11, 92
4, 188160, Note_on_c, 2, 80, 63
4, 188201, Control_c, 2, 11, 108
4, 188250, Control_c, 2, 11, 104
4, 188288, Control_c, 2, 11, 94
4, 188326, Control_c, 2, 11, 85
4, 188356, Note_off_c, 2, 80, 64
4, 188363, Control_c, 2, 11, 76
4, 188394, Control_c, 2, 11, 100
4, 188885, Note_on_c, 2, 71, 111
4, 188975, Note_off_c, 2, 71, 64
4, 188998, Note_on_c, 2, 70, 86
4, 189088, Note_off_c, 2, 70, 64
4, 189118, Note_on_c, 2, 71, 88
4, 189268, Note_off_c, 2, 71, 64
4, 189837, Note_on_c, 2, 76, 111
4, 189910, Note_off_c, 2, 76, 64
4, 190026, Control_c, 2, 11, 90
4, 190074, Control_c, 2, 11, 97
4, 190080, Note_on_c, 2, 76, 108
4, 190121, Control_c, 2, 11, 106
4, 190158, Control_c, 2, 11, 110
4, 190198, Control_c, 2, 11, 98
4, 190238, Control_c, 2, 11, 86
4, 190260, Note_off_c, 2, 76, 64
4, 190277, Control_c, 2, 11, 74
4, 190350, Control_c, 2, 11, 100
4, 190805, Note_on_c, 2, 70, 108
4, 190895, Note_off_c, 2, 70, 64
4, 190918, Note_on_c, 2, 68, 74
4, 191008, Note_off_c, 2, 68, 64
4, 191038, Note_on_c, 2, 70, 77
4, 191188, Note_off_c, 2, 70, 64
4, 191759, Note_on_c, 2, 75, 111
4, 191806, Note_off_c, 2, 75, 64
4, 191970, Control_c, 2, 11, 90
4, 192000, Note_on_c, 2, 75, 110
4, 192008, Control_c, 2, 11, 95
4, 192046, Control_c, 2, 11, 101
4, 192083, Control_c, 2, 11, 108
4, 192114, Control_c, 2, 11, 102
4, 192151, Control_c, 2, 11, 94
4, 192180, Note_off_c, 2, 75, 64
4, 192189, Control_c, 2, 11, 87
4, 192226, Control_c, 2, 11, 79
4, 192263, Control_c, 2, 11, 72
4, 192300, Control_c, 2, 11, 100
4, 192725, Note_on_c, 2, 68, 108
4, 192815, Note_off_c, 2, 68, 64
4, 192838, Note_on_c, 2, 67, 71
4, 192928, Note_off_c, 2, 67, 64
4, 192953, Note_on_c, 2, 68, 74
4, 193103, Note_off_c, 2, 68, 64
4, 193678, Note_on_c, 2, 73, 108
4, 193748, Note_off_c, 2, 73, 64
4, 193902, Control_c, 2, 11, 88
4, 193920, Note_on_c, 2, 73, 111
4, 193941, Control_c, 2, 11, 98
4, 193979, Control_c, 2, 11, 110
4, 194016, Control_c, 2, 11, 104
4, 194064, Control_c, 2, 11, 89
4, 194111, Control_c, 2, 11, 74
4, 194118, Note_off_c, 2, 73, 64
4, 194142, Control_c, 2, 11, 100
4, 194165, Note_on_c, 2, 70, 90
4, 194255, Note_off_c, 2, 70, 64
4, 194278, Note_on_c, 2, 68, 67
4, 194368, Note_off_c, 2, 68, 64
4, 194396, Note_on_c, 2, 70, 65
4, 194400, Control_c, 2, 11, 94
4, 194442, Control_c, 2, 11, 88
4, 194484, Control_c, 2, 11, 83
4, 194526, Control_c, 2, 11, 77
4, 194546, Note_off_c, 2, 70, 64
4, 194567, Control_c, 2, 11, 72
4, 194616, Control_c, 2, 11, 100
4, 194645, Note_on_c, 2, 67, 79
4, 194735, Note_off_c, 2, 67, 64
4, 194758, Note_on_c, 2, 65, 66
4, 194848, Note_off_c, 2, 65, 64
4, 194874, Note_on_c, 2, 67, 72
4, 194886, Control_c, 2, 11, 98
4, 194934, Control_c, 2, 11, 90
4, 194982, Control_c, 2, 11, 82
4, 195024, Note_off_c, 2, 67, 64
4, 195029, Control_c, 2, 11, 74
4, 195090, Control_c, 2, 11, 100
4, 195125, Note_on_c, 2, 61, 92
4, 195215, Note_off_c, 2, 61, 64
4, 195238, Note_on_c, 2, 59, 70
4, 195328, Note_off_c, 2, 59, 64
4, 195363, Note_on_c, 2, 61, 70
4, 195372, Control_c, 2, 11, 100
4, 195418, Control_c, 2, 11, 92
4, 195464, Control_c, 2, 11, 84
4, 195509, Control_c, 2, 11, 76
4, 195513, Note_off_c, 2, 61, 64
4, 195564, Control_c, 2, 11, 100
4, 195600, Note_on_c, 2, 70, 92
4, 195671, Note_off_c, 2, 70, 64
4, 195840, Note_on_c, 2, 75, 79
4, 196002, Note_off_c, 2, 75, 64
4, 196059, Note_on_c, 2, 68, 72
4, 196148, Note_off_c, 2, 68, 64
4, 196302, Control_c, 2, 11, 84
4, 196310, Note_on_c, 2, 68, 92
4, 196342, Control_c, 2, 11, 89
4, 196382, Control_c, 2, 11, 94
4, 196421, Control_c, 2, 11, 100
4, 196445, Note_on_c, 2, 67, 79
4, 196455, Note_off_c, 2, 68, 64
4, 196496, Note_on_c, 2, 68, 73
4, 196511, Note_off_c, 2, 67, 64
4, 196530, Note_on_c, 2, 67, 73
4, 196543, Note_off_c, 2, 68, 64
4, 196574, Note_on_c, 2, 68, 73
4, 196582, Note_off_c, 2, 67, 64
4, 196611, Note_on_c, 2, 67, 73
4, 196631, Note_off_c, 2, 68, 64
4, 196685, Note_on_c, 2, 68, 57
4, 196690, Note_off_c, 2, 67, 64
4, 196748, Note_off_c, 2, 68, 64
4, 196794, Control_c, 2, 11, 92
4, 196799, Note_on_c, 2, 68, 57
4, 196848, Control_c, 2, 11, 101
4, 196901, Control_c, 2, 11, 112
4, 196938, Control_c, 2, 11, 106
4, 196986, Control_c, 2, 11, 98
4, 197034, Control_c, 2, 11, 90
4, 197052, Note_off_c, 2, 68, 64
4, 197081, Control_c, 2, 11, 82
4, 197118, Control_c, 2, 11, 100
4, 200640, Note_on_c, 2, 70, 99
4, 200758, Note_on_c, 2, 68, 73
4, 200765, Note_off_c, 2, 70, 64
4, 200872, Note_off_c, 2, 68, 64
4, 200881, Note_on_c, 2, 70, 67
4, 200967, Note_off_c, 2, 70, 64
4, 200998, Note_on_c, 2, 71, 88
4, 201093, Note_off_c, 2, 71, 64
4, 201116, Note_on_c, 2, 70, 85
4, 201218, Note_off_c, 2, 70, 64
4, 201238, Note_on_c, 2, 75, 71
4, 201317, Note_off_c, 2, 75, 64
4, 201354, Note_on_c, 2, 74, 93
4, 201447, Note_off_c, 2, 74, 64
4, 201473, Note_on_c, 2, 77, 80
4, 201544, Note_off_c, 2, 77, 64
4, 201598, Note_on_c, 2, 75, 92
4, 201718, Note_on_c, 2, 74, 72
4, 201725, Note_off_c, 2, 75, 64
4, 201836, Note_on_c, 2, 75, 72
4, 201853, Note_off_c, 2, 74, 64
4, 201934, Note_off_c, 2, 75, 64
4, 201956, Note_on_c, 2, 77, 79
4, 202048, Note_off_c, 2, 77, 64
4, 202074, Note_on_c, 2, 75, 89
4, 202164, Note_off_c, 2, 75, 64
4, 202191, Note_on_c, 2, 78, 77
4, 202273, Note_off_c, 2, 78, 64
4, 202307, Note_on_c, 2, 77, 89
4, 202386, Note_off_c, 2, 77, 64
4, 202427, Note_on_c, 2, 80, 84
4, 202510, Note_off_c, 2, 80, 64
4, 202556, Note_on_c, 2, 78, 99
4, 202679, Note_on_c, 2, 77, 76
4, 202684, Note_off_c, 2, 78, 64
4, 202796, Note_on_c, 2, 78, 80
4, 202809, Note_off_c, 2, 77, 64
4, 202883, Note_off_c, 2, 78, 64
4, 202911, Note_on_c, 2, 80, 82
4, 202995, Note_off_c, 2, 80, 64
4, 203032, Note_on_c, 2, 78, 84
4, 203140, Note_off_c, 2, 78, 64
4, 203147, Note_on_c, 2, 80, 71
4, 203264, Note_off_c, 2, 80, 64
4, 203271, Note_on_c, 2, 78, 82
4, 203363, Note_off_c, 2, 78, 64
4, 203390, Note_on_c, 2, 77, 75
4, 203480, Note_off_c, 2, 77, 64
4, 203515, Note_on_c, 2, 75, 84
4, 203641, Note_on_c, 2, 77, 68
4, 203655, Note_off_c, 2, 75, 64
4, 203748, Note_off_c, 2, 77, 64
4, 203759, Note_on_c, 2, 75, 76
4, 203853, Note_off_c, 2, 75, 64
4, 203877, Note_on_c, 2, 74, 93
4, 203965, Note_off_c, 2, 74, 64
4, 203997, Note_on_c, 2, 75, 72
4, 204142, Note_off_c, 2, 75, 64
4, 204236, Note_on_c, 2, 71, 67
4, 204307, Note_off_c, 2, 71, 64
4, 204472, Note_on_c, 2, 70, 60
4, 204597, Note_off_c, 2, 70, 64
4, 204717, Note_on_c, 2, 65, 55
4, 204793, Note_off_c, 2, 65, 64
4, 208920, Note_on_c, 2, 73, 80
4, 209016, Note_off_c, 2, 73, 64
4, 209045, Note_on_c, 2, 68, 92
4, 209135, Note_off_c, 2, 68, 64
4, 209157, Note_on_c, 2, 70, 79
4, 209247, Note_off_c, 2, 70, 64
4, 209280, Note_on_c, 2, 71, 97
4, 209395, Note_on_c, 2, 70, 64
4, 209416, Note_off_c, 2, 71, 64
4, 209516, Note_on_c, 2, 71, 61
4, 209538, Note_off_c, 2, 70, 64
4, 209610, Note_off_c, 2, 71, 64
4, 209640, Note_on_c, 2, 80, 92
4, 209736, Note_off_c, 2, 80, 64
4, 209755, Note_on_c, 2, 77, 110
4, 209846, Note_off_c, 2, 77, 64
4, 209869, Note_on_c, 2, 71, 82
4, 209936, Note_off_c, 2, 71, 64
4, 209980, Note_on_c, 2, 68, 70
4, 210050, Note_off_c, 2, 68, 64
4, 210096, Note_on_c, 2, 61, 64
4, 210167, Note_off_c, 2, 61, 64
4, 210245, Note_on_c, 2, 71, 97
4, 210353, Note_on_c, 2, 70, 64
4, 210359, Note_off_c, 2, 71, 64
4, 210470, Note_on_c, 2, 71, 64
4, 210478, Note_off_c, 2, 70, 64
4, 210568, Note_off_c, 2, 71, 64
4, 210600, Note_on_c, 2, 80, 96
4, 210693, Note_off_c, 2, 80, 64
4, 210717, Note_on_c, 2, 77, 108
4, 210815, Note_off_c, 2, 77, 64
4, 210830, Note_on_c, 2, 71, 82
4, 210908, Note_off_c, 2, 71, 64
4, 210947, Note_on_c, 2, 68, 70
4, 211022, Note_off_c, 2, 68, 64
4, 211059, Note_on_c, 2, 61, 68
4, 211132, Note_off_c, 2, 61, 64
4, 211196, Note_on_c, 2, 70, 74
4, 211314, Note_on_c, 2, 68, 63
4, 211320, Note_off_c, 2, 70, 64
4, 211438, Note_on_c, 2, 70, 57
4, 211444, Note_off_c, 2, 68, 64
4, 211556, Note_off_c, 2, 70, 64
4, 212157, Note_on_c, 2, 70, 74
4, 212276, Note_on_c, 2, 68, 54
4, 212282, Note_off_c, 2, 70, 64
4, 212396, Note_off_c, 2, 68, 64
4, 212397, Note_on_c, 2, 70, 65
4, 212496, Note_off_c, 2, 70, 64
4, 213123, Note_on_c, 2, 70, 74
4, 213235, Note_on_c, 2, 68, 65
4, 213242, Note_off_c, 2, 70, 64
4, 213345, Note_off_c, 2, 68, 64
4, 213353, Note_on_c, 2, 70, 62
4, 213459, Note_off_c, 2, 70, 64
4, 214076, Note_on_c, 2, 70, 74
4, 214191, Note_on_c, 2, 68, 61
4, 214197, Note_off_c, 2, 70, 64
4, 214316, Note_on_c, 2, 70, 67
4, 214331, Note_off_c, 2, 68, 64
4, 214426, Note_off_c, 2, 70, 64
4, 215034, Note_on_c, 2, 68, 46
4, 215248, Note_off_c, 2, 68, 64
4, 215279, Note_on_c, 2, 68, 41
4, 215489, Note_off_c, 2, 68, 64
4, 215519, Note_on_c, 2, 68, 50
4, 215714, Note_off_c, 2, 68, 64
4, 215756, Note_on_c, 2, 68, 43
4, 215950, Note_off_c, 2, 68, 64
4, 215995, Note_on_c, 2, 68, 51
4, 216188, Note_off_c, 2, 68, 64
4, 216238, Note_on_c, 2, 68, 44
4, 216423, Note_off_c, 2, 68, 64
4, 216481, Note_on_c, 2, 68, 42
4, 216656, Note_off_c, 2, 68, 64
4, 216721, Note_on_c, 2, 68, 43
4, 216899, Note_off_c, 2, 68, 64
4, 216951, Note_on_c, 2, 71, 41
4, 217158, Note_off_c, 2, 71, 64
4, 217201, Note_on_c, 2, 71, 45
4, 217377, Note_off_c, 2, 71, 64
4, 217439, Note_on_c, 2, 71, 41
4, 217614, Note_off_c, 2, 71, 64
4, 217677, Note_on_c, 2, 71, 39
4, 217851, Note_off_c, 2, 71, 64
4, 217916, Note_on_c, 2, 71, 43
4, 218109, Note_off_c, 2, 71, 64
4, 218156, Note_on_c, 2, 71, 42
4, 218336, Note_off_c, 2, 71, 64
4, 218396, Note_on_c, 2, 71, 46
4, 218599, Note_off_c, 2, 71, 64
4, 218638, Note_on_c, 2, 71, 40
4, 218811, Note_off_c, 2, 71, 64
4, 218875, Note_on_c, 2, 73, 45
4, 219077, Note_off_c, 2, 73, 64
4, 219122, Note_on_c, 2, 73, 41
4, 219307, Note_off_c, 2, 73, 64
4, 219362, Note_on_c, 2, 73, 42
4, 219533, Note_off_c, 2, 73, 64
4, 219597, Note_on_c, 2, 73, 36
4, 219774, Note_off_c, 2, 73, 64
4, 219831, Note_on_c, 2, 73, 37
4, 220030, Note_off_c, 2, 73, 64
4, 220075, Note_on_c, 2, 73, 40
4, 220262, Note_off_c, 2, 73, 64
4, 220316, Note_on_c, 2, 73, 37
4, 220471, Note_off_c, 2, 73, 64
4, 220563, Note_on_c, 2, 73, 29
4, 220710, Note_off_c, 2, 73, 64
4, 220800, Note_on_c, 2, 75, 49
4, 220916, Note_off_c, 2, 75, 64
4, 220917, Note_on_c, 2, 73, 42
4, 221031, Note_on_c, 2, 75, 46
4, 221035, Note_off_c, 2, 73, 64
4, 221040, Control_c, 2, 11, 96
4, 221082, Control_c, 2, 11, 91
4, 221124, Control_c, 2, 11, 86
4, 221160, Note_off_c, 2, 75, 64
4, 221165, Control_c, 2, 11, 82
4, 221238, Control_c, 2, 11, 100
4, 221755, Note_on_c, 2, 75, 60
4, 221868, Note_on_c, 2, 73, 45
4, 221875, Note_off_c, 2, 75, 64
4, 221982, Control_c, 2, 11, 100
4, 221989, Note_on_c, 2, 75, 40
4, 222000, Note_off_c, 2, 73, 64
4, 222028, Control_c, 2, 11, 92
4, 222074, Control_c, 2, 11, 85
4, 222119, Control_c, 2, 11, 78
4, 222122, Note_off_c, 2, 75, 64
4, 222210, Control_c, 2, 11, 100
4, 222714, Note_on_c, 2, 73, 62
4, 222826, Note_on_c, 2, 71, 44
4, 222837, Note_off_c, 2, 73, 64
4, 222948, Control_c, 2, 11, 98
4, 222951, Note_on_c, 2, 73, 44
4, 222965, Note_off_c, 2, 71, 64
4, 222986, Control_c, 2, 11, 92
4, 223024, Control_c, 2, 11, 87
4, 223054, Note_off_c, 2, 73, 64
4, 223061, Control_c, 2, 11, 82
4, 223128, Control_c, 2, 11, 100
4, 223673, Note_on_c, 2, 73, 60
4, 223788, Note_on_c, 2, 71, 42
4, 223795, Note_off_c, 2, 73, 64
4, 223909, Note_on_c, 2, 73, 51
4, 223926, Control_c, 2, 11, 100
4, 223927, Note_off_c, 2, 71, 64
4, 223970, Control_c, 2, 11, 92
4, 224014, Control_c, 2, 11, 84
4, 224041, Note_off_c, 2, 73, 64
4, 224057, Control_c, 2, 11, 76
4, 224058, Control_c, 2, 11, 80
4, 224130, Control_c, 2, 11, 100
4, 224635, Note_on_c, 2, 75, 66
4, 224760, Note_on_c, 2, 74, 51
4, 224790, Note_off_c, 2, 75, 64
4, 224880, Control_c, 2, 11, 100
4, 224880, Note_on_c, 2, 75, 63
4, 224897, Note_off_c, 2, 74, 64
4, 224928, Control_c, 2, 11, 92
4, 224976, Control_c, 2, 11, 84
4, 225007, Note_off_c, 2, 75, 64
4, 225023, Control_c, 2, 11, 76
4, 225078, Control_c, 2, 11, 100
4, 225596, Note_on_c, 2, 75, 73
4, 225717, Note_on_c, 2, 74, 45
4, 225735, Note_off_c, 2, 75, 64
4, 225839, Note_on_c, 2, 75, 54
4, 225840, Control_c, 2, 11, 100
4, 225861, Note_off_c, 2, 74, 64
4, 225883, Control_c, 2, 11, 96
4, 225927, Control_c, 2, 11, 93
4, 225966, Note_off_c, 2, 75, 64
4, 225970, Control_c, 2, 11, 89
4, 226013, Control_c, 2, 11, 86
4, 226038, Control_c, 2, 11, 100
4, 226557, Note_on_c, 2, 73, 75
4, 226674, Note_on_c, 2, 71, 58
4, 226689, Note_off_c, 2, 73, 64
4, 226776, Control_c, 2, 11, 98
4, 226796, Note_on_c, 2, 73, 63
4, 226801, Note_off_c, 2, 71, 64
4, 226820, Control_c, 2, 11, 92
4, 226864, Control_c, 2, 11, 86
4, 226907, Control_c, 2, 11, 80
4, 226924, Note_off_c, 2, 73, 64
4, 226998, Control_c, 2, 11, 100
4, 227518, Note_on_c, 2, 73, 77
4, 227630, Note_off_c, 2, 73, 64
4, 227633, Note_on_c, 2, 71, 63
4, 227748, Control_c, 2, 11, 100
4, 227756, Note_on_c, 2, 73, 72
4, 227769, Note_off_c, 2, 71, 64
4, 227794, Control_c, 2, 11, 94
4, 227840, Control_c, 2, 11, 88
4, 227881, Note_off_c, 2, 73, 64
4, 227885, Control_c, 2, 11, 82
4, 227964, Control_c, 2, 11, 100
4, 228481, Note_on_c, 2, 71, 81
4, 228596, Note_on_c, 2, 70, 68
4, 228598, Note_off_c, 2, 71, 64
4, 228714, Control_c, 2, 11, 96
4, 228717, Note_on_c, 2, 71, 80
4, 228718, Note_off_c, 2, 70, 64
4, 228754, Control_c, 2, 11, 90
4, 228794, Control_c, 2, 11, 84
4, 228833, Control_c, 2, 11, 78
4, 228848, Note_off_c, 2, 71, 64
4, 228906, Control_c, 2, 11, 100
4, 229432, Note_on_c, 2, 71, 93
4, 229549, Note_on_c, 2, 70, 82
4, 229555, Note_off_c, 2, 71, 64
4, 229668, Control_c, 2, 11, 96
4, 229669, Note_on_c, 2, 71, 98
4, 229680, Note_off_c, 2, 70, 64
4, 229708, Control_c, 2, 11, 90
4, 229749, Control_c, 2, 11, 85
4, 229789, Control_c, 2, 11, 79
4, 229810, Note_off_c, 2, 71, 64
4, 229829, Control_c, 2, 11, 74
4, 229878, Control_c, 2, 11, 100
4, 230352, Control_c, 2, 11, 84
4, 230388, Note_on_c, 2, 69, 111
4, 230398, Control_c, 2, 11, 91
4, 230444, Control_c, 2, 11, 99
4, 230478, Control_c, 2, 11, 104
4, 230522, Control_c, 2, 11, 98
4, 230566, Control_c, 2, 11, 92
4, 230593, Note_off_c, 2, 69, 64
4, 230609, Control_c, 2, 11, 86
4, 230634, Control_c, 2, 11, 100
4, 231125, Note_on_c, 2, 69, 111
4, 231215, Note_off_c, 2, 69, 64
4, 231238, Note_on_c, 2, 68, 77
4, 231328, Note_off_c, 2, 68, 64
4, 231343, Note_on_c, 2, 69, 62
4, 231493, Note_off_c, 2, 69, 64
4, 232074, Note_on_c, 2, 74, 111
4, 232141, Note_off_c, 2, 74, 64
4, 232266, Control_c, 2, 11, 90
4, 232303, Control_c, 2, 11, 95
4, 232316, Note_on_c, 2, 74, 111
4, 232341, Control_c, 2, 11, 101
4, 232378, Control_c, 2, 11, 107
4, 232415, Control_c, 2, 11, 114
4, 232446, Control_c, 2, 11, 110
4, 232500, Control_c, 2, 11, 96
4, 232518, Note_off_c, 2, 74, 64
4, 232553, Control_c, 2, 11, 82
4, 232596, Control_c, 2, 11, 100
4, 233045, Note_on_c, 2, 68, 111
4, 233135, Note_off_c, 2, 68, 64
4, 233158, Note_on_c, 2, 66, 74
4, 233248, Note_off_c, 2, 66, 64
4, 233275, Note_on_c, 2, 68, 69
4, 233425, Note_off_c, 2, 68, 64
4, 233992, Note_on_c, 2, 73, 111
4, 234068, Note_off_c, 2, 73, 64
4, 234222, Control_c, 2, 11, 88
4, 234240, Note_on_c, 2, 73, 110
4, 234261, Control_c, 2, 11, 94
4, 234300, Control_c, 2, 11, 100
4, 234339, Control_c, 2, 11, 107
4, 234377, Control_c, 2, 11, 114
4, 234402, Control_c, 2, 11, 106
4, 234442, Control_c, 2, 11, 98
4, 234456, Note_off_c, 2, 73, 64
4, 234482, Control_c, 2, 11, 91
4, 234521, Control_c, 2, 11, 84
4, 234588, Control_c, 2, 11, 100
4, 234965, Note_on_c, 2, 66, 111
4, 235055, Note_off_c, 2, 66, 64
4, 235078, Note_on_c, 2, 65, 67
4, 235168, Note_off_c, 2, 65, 64
4, 235189, Note_on_c, 2, 66, 74
4, 235339, Note_off_c, 2, 66, 64
4, 235916, Note_on_c, 2, 71, 108
4, 235989, Note_off_c, 2, 71, 64
4, 236118, Control_c, 2, 11, 90
4, 236160, Note_on_c, 2, 71, 102
4, 236160, Control_c, 2, 11, 98
4, 236202, Control_c, 2, 11, 107
4, 236243, Control_c, 2, 11, 116
4, 236268, Control_c, 2, 11, 104
4, 236313, Control_c, 2, 11, 95
4, 236330, Note_off_c, 2, 71, 64
4, 236357, Control_c, 2, 11, 86
4, 236376, Control_c, 2, 11, 100
4, 236405, Note_on_c, 2, 77, 102
4, 236518, Note_on_c, 2, 78, 68
4, 236522, Note_off_c, 2, 77, 64
4, 236628, Control_c, 2, 11, 96
4, 236633, Note_on_c, 2, 77, 52
4, 236636, Note_off_c, 2, 78, 64
4, 236674, Control_c, 2, 11, 90
4, 236720, Control_c, 2, 11, 85
4, 236765, Control_c, 2, 11, 80
4, 236783, Note_off_c, 2, 77, 64
4, 236868, Control_c, 2, 11, 100
4, 237365, Note_on_c, 2, 80, 99
4, 237455, Note_off_c, 2, 80, 64
4, 237478, Note_on_c, 2, 78, 89
4, 237568, Note_off_c, 2, 78, 64
4, 237597, Note_on_c, 2, 77, 76
4, 237606, Control_c, 2, 11, 96
4, 237649, Control_c, 2, 11, 90
4, 237693, Control_c, 2, 11, 85
4, 237736, Control_c, 2, 11, 79
4, 237747, Note_off_c, 2, 77, 64
4, 237779, Control_c, 2, 11, 74
4, 237870, Control_c, 2, 11, 100
4, 238325, Note_on_c, 2, 83, 99
4, 238415, Note_off_c, 2, 83, 64
4, 238438, Note_on_c, 2, 81, 74
4, 238528, Note_off_c, 2, 81, 64
4, 238551, Note_on_c, 2, 80, 70
4, 238560, Control_c, 2, 11, 94
4, 238602, Control_c, 2, 11, 88
4, 238644, Control_c, 2, 11, 82
4, 238686, Control_c, 2, 11, 76
4, 238701, Note_off_c, 2, 80, 64
4, 238727, Control_c, 2, 11, 70
4, 238824, Control_c, 2, 11, 100
4, 239285, Note_on_c, 2, 81, 102
4, 239375, Note_off_c, 2, 81, 64
4, 239398, Note_on_c, 2, 83, 68
4, 239488, Note_off_c, 2, 83, 64
4, 239510, Note_on_c, 2, 81, 71
4, 239514, Control_c, 2, 11, 96
4, 239557, Control_c, 2, 11, 89
4, 239601, Control_c, 2, 11, 82
4, 239644, Control_c, 2, 11, 75
4, 239660, Note_off_c, 2, 81, 64
4, 239687, Control_c, 2, 11, 68
4, 239742, Control_c, 2, 11, 100
4, 240245, Note_on_c, 2, 80, 102
4, 240335, Note_off_c, 2, 80, 64
4, 240358, Note_on_c, 2, 78, 74
4, 240448, Note_off_c, 2, 78, 64
4, 240468, Control_c, 2, 11, 98
4, 240471, Note_on_c, 2, 80, 73
4, 240510, Control_c, 2, 11, 93
4, 240552, Control_c, 2, 11, 88
4, 240594, Control_c, 2, 11, 83
4, 240621, Note_off_c, 2, 80, 64
4, 240635, Control_c, 2, 11, 78
4, 240714, Control_c, 2, 11, 100
4, 241205, Note_on_c, 2, 74, 98
4, 241295, Note_off_c, 2, 74, 64
4, 241318, Note_on_c, 2, 73, 68
4, 241408, Note_off_c, 2, 73, 64
4, 241428, Control_c, 2, 11, 96
4, 241433, Note_on_c, 2, 71, 80
4, 241468, Control_c, 2, 11, 90
4, 241508, Control_c, 2, 11, 84
4, 241547, Control_c, 2, 11, 78
4, 241583, Note_off_c, 2, 71, 64
4, 241626, Control_c, 2, 11, 100
4, 258485, Note_on_c, 2, 66, 82
4, 258575, Note_off_c, 2, 66, 64
4, 258598, Note_on_c, 2, 65, 57
4, 258688, Note_off_c, 2, 65, 64
4, 258719, Note_on_c, 2, 66, 57
4, 258726, Control_c, 2, 11, 98
4, 258770, Control_c, 2, 11, 92
4, 258814, Control_c, 2, 11, 86
4, 258857, Control_c, 2, 11, 80
4, 258869, Note_off_c, 2, 66, 64
4, 258930, Control_c, 2, 11, 100
4, 258965, Note_on_c, 2, 70, 79
4, 259055, Note_off_c, 2, 70, 64
4, 259078, Note_on_c, 2, 68, 71
4, 259168, Note_off_c, 2, 68, 64
4, 259188, Note_on_c, 2, 70, 82
4, 259200, Control_c, 2, 11, 96
4, 259240, Control_c, 2, 11, 90
4, 259281, Control_c, 2, 11, 84
4, 259321, Control_c, 2, 11, 78
4, 259338, Note_off_c, 2, 70, 64
4, 259361, Control_c, 2, 11, 72
4, 259380, Control_c, 2, 11, 100
4, 259445, Note_on_c, 2, 73, 84
4, 259535, Note_off_c, 2, 73, 64
4, 259558, Note_on_c, 2, 71, 76
4, 259648, Note_off_c, 2, 71, 64
4, 259673, Note_on_c, 2, 73, 84
4, 259686, Control_c, 2, 11, 94
4, 259723, Control_c, 2, 11, 90
4, 259761, Control_c, 2, 11, 86
4, 259798, Control_c, 2, 11, 82
4, 259823, Note_off_c, 2, 73, 64
4, 259835, Control_c, 2, 11, 78
4, 259860, Control_c, 2, 11, 100
4, 259925, Note_on_c, 2, 78, 84
4, 260015, Note_off_c, 2, 78, 64
4, 260038, Note_on_c, 2, 77, 75
4, 260128, Note_off_c, 2, 77, 64
4, 260163, Note_on_c, 2, 78, 69
4, 260313, Note_off_c, 2, 78, 64
4, 260881, Note_on_c, 2, 73, 82
4, 260972, Note_off_c, 2, 73, 64
4, 261114, Note_on_c, 2, 78, 80
4, 261330, Note_off_c, 2, 78, 64
4, 261356, Note_on_c, 2, 77, 85
4, 261453, Note_off_c, 2, 77, 64
4, 261475, Note_on_c, 2, 75, 63
4, 261569, Note_off_c, 2, 75, 64
4, 261593, Note_on_c, 2, 73, 79
4, 261697, Note_off_c, 2, 73, 64
4, 261711, Note_on_c, 2, 71, 67
4, 261796, Note_off_c, 2, 71, 64
4, 261836, Note_on_c, 2, 70, 70
4, 261923, Note_off_c, 2, 70, 64
4, 261952, Note_on_c, 2, 68, 60
4, 262043, Note_off_c, 2, 68, 64
4, 262078, Note_on_c, 2, 66, 66
4, 262278, Note_off_c, 2, 66, 64
4, 266880, End_track
5, 0, Start_track
5, 0, Instrument_name_t, "SC88-A"
5, 0, Title_t, "Violino.3"
5, 1440, Control_c, 3, 101, 0
5, 1450, Control_c, 3, 100, 0
5, 1450, Control_c, 3, 6, 0
5, 1470, Control_c, 3, 0, 0
5, 1480, Control_c, 3, 32, 1
5, 1490, Program_c, 3, 40
5, 1500, Control_c, 3, 10, 49
5, 1510, Control_c, 3, 11, 100
5, 1520, Control_c, 3, 7, 120
5, 1530, Control_c, 3, 93, 0
5, 1540, Control_c, 3, 91, 0
5, 1550, Pitch_bend_c, 3, 8192
5, 1560, Control_c, 3, 1, 0
5, 1570, Control_c, 3, 64, 0
5, 1580, Control_c, 3, 91, 64
5, 1590, Control_c, 3, 99, 1
5, 1600, Control_c, 3, 98, 32
5, 1610, Control_c, 3, 6, 64
5, 1620, Control_c, 3, 98, 33
5, 1630, Control_c, 3, 6, 60
5, 1640, Control_c, 3, 98, 99
5, 1650, Control_c, 3, 6, 64
5, 1660, Control_c, 3, 98, 100
5, 1670, Control_c, 3, 6, 64
5, 1680, Control_c, 3, 98, 102
5, 1690, Control_c, 3, 6, 64
5, 18965, Note_on_c, 3, 70, 77
5, 19055, Note_off_c, 3, 70, 64
5, 19077, Note_on_c, 3, 68, 58
5, 19167, Note_off_c, 3, 68, 64
5, 19196, Note_on_c, 3, 70, 52
5, 19206, Control_c, 3, 11, 100
5, 19252, Control_c, 3, 11, 92
5, 19298, Control_c, 3, 11, 84
5, 19343, Control_c, 3, 11, 76
5, 19346, Note_off_c, 3, 70, 64
5, 19416, Control_c, 3, 11, 100
5, 19445, Note_on_c, 3, 66, 57
5, 19535, Note_off_c, 3, 66, 64
5, 19558, Note_on_c, 3, 65, 40
5, 19648, Note_off_c, 3, 65, 64
5, 19679, Note_on_c, 3, 66, 40
5, 19686, Control_c, 3, 11, 100
5, 19730, Control_c, 3, 11, 92
5, 19774, Control_c, 3, 11, 84
5, 19817, Control_c, 3, 11, 76
5, 19829, Note_off_c, 3, 66, 64
5, 19938, Control_c, 3, 11, 100
5, 22798, Note_on_c, 3, 72, 65
5, 22871, Note_off_c, 3, 72, 64
5, 23037, Note_on_c, 3, 73, 71
5, 23253, Note_off_c, 3, 73, 64
5, 23756, Note_on_c, 3, 75, 79
5, 23856, Note_off_c, 3, 75, 64
5, 24002, Note_on_c, 3, 77, 99
5, 24105, Note_off_c, 3, 77, 64
5, 24114, Note_on_c, 3, 80, 80
5, 24211, Note_off_c, 3, 80, 64
5, 24244, Note_on_c, 3, 73, 96
5, 24344, Note_off_c, 3, 73, 64
5, 24350, Note_on_c, 3, 75, 87
5, 24430, Note_off_c, 3, 75, 64
5, 24471, Note_on_c, 3, 77, 105
5, 24566, Note_off_c, 3, 77, 64
5, 24591, Note_on_c, 3, 78, 89
5, 24685, Note_off_c, 3, 78, 64
5, 24725, Note_on_c, 3, 80, 85
5, 24815, Note_off_c, 3, 80, 64
5, 24837, Note_on_c, 3, 78, 95
5, 24927, Note_off_c, 3, 78, 64
5, 32405, Note_on_c, 3, 70, 74
5, 32495, Note_off_c, 3, 70, 64
5, 32518, Note_on_c, 3, 68, 59
5, 32608, Note_off_c, 3, 68, 64
5, 32637, Note_on_c, 3, 70, 48
5, 32646, Control_c, 3, 11, 100
5, 32692, Control_c, 3, 11, 92
5, 32738, Control_c, 3, 11, 84
5, 32783, Control_c, 3, 11, 76
5, 32787, Note_off_c, 3, 70, 64
5, 32832, Control_c, 3, 11, 100
5, 32885, Note_on_c, 3, 66, 59
5, 32975, Note_off_c, 3, 66, 64
5, 32998, Note_on_c, 3, 65, 40
5, 33088, Note_off_c, 3, 65, 64
5, 33117, Note_on_c, 3, 66, 35
5, 33126, Control_c, 3, 11, 100
5, 33174, Control_c, 3, 11, 89
5, 33222, Control_c, 3, 11, 78
5, 33267, Note_off_c, 3, 66, 64
5, 33269, Control_c, 3, 11, 68
5, 33366, Control_c, 3, 11, 100
5, 35765, Note_on_c, 3, 77, 67
5, 35855, Note_off_c, 3, 77, 64
5, 35878, Note_on_c, 3, 75, 46
5, 35968, Note_off_c, 3, 75, 64
5, 36004, Note_on_c, 3, 73, 46
5, 36006, Control_c, 3, 11, 98
5, 36049, Control_c, 3, 11, 91
5, 36093, Control_c, 3, 11, 84
5, 36136, Control_c, 3, 11, 77
5, 36154, Note_off_c, 3, 73, 64
5, 36179, Control_c, 3, 11, 70
5, 36258, Control_c, 3, 11, 100
5, 36725, Note_on_c, 3, 77, 70
5, 36815, Note_off_c, 3, 77, 64
5, 36837, Note_on_c, 3, 75, 50
5, 36927, Note_off_c, 3, 75, 64
5, 36952, Note_on_c, 3, 73, 50
5, 36966, Control_c, 3, 11, 100
5, 37012, Control_c, 3, 11, 93
5, 37059, Control_c, 3, 11, 87
5, 37102, Note_off_c, 3, 73, 64
5, 37105, Control_c, 3, 11, 80
5, 37151, Control_c, 3, 11, 74
5, 37218, Control_c, 3, 11, 100
5, 37685, Note_on_c, 3, 77, 67
5, 37775, Note_off_c, 3, 77, 64
5, 37798, Note_on_c, 3, 75, 44
5, 37888, Note_off_c, 3, 75, 64
5, 37919, Note_on_c, 3, 73, 44
5, 37920, Control_c, 3, 11, 100
5, 37966, Control_c, 3, 11, 93
5, 38013, Control_c, 3, 11, 87
5, 38059, Control_c, 3, 11, 80
5, 38069, Note_off_c, 3, 73, 64
5, 38105, Control_c, 3, 11, 74
5, 38142, Control_c, 3, 11, 100
5, 41997, Note_on_c, 3, 68, 92
5, 42114, Note_off_c, 3, 68, 64
5, 42242, Note_on_c, 3, 66, 106
5, 42343, Note_off_c, 3, 66, 64
5, 42358, Note_on_c, 3, 70, 91
5, 42437, Note_off_c, 3, 70, 64
5, 42484, Note_on_c, 3, 63, 106
5, 42584, Note_off_c, 3, 63, 64
5, 42591, Note_on_c, 3, 65, 81
5, 42687, Note_off_c, 3, 65, 64
5, 42714, Note_on_c, 3, 66, 99
5, 42822, Note_off_c, 3, 66, 64
5, 42832, Note_on_c, 3, 68, 83
5, 42927, Note_off_c, 3, 68, 64
5, 42952, Note_on_c, 3, 70, 94
5, 43056, Note_off_c, 3, 70, 64
5, 43068, Note_on_c, 3, 72, 83
5, 43170, Note_off_c, 3, 72, 64
5, 43192, Note_on_c, 3, 73, 72
5, 43433, Note_off_c, 3, 73, 64
5, 43925, Note_on_c, 3, 73, 92
5, 44015, Note_off_c, 3, 73, 64
5, 44160, Note_on_c, 3, 72, 107
5, 44310, Note_off_c, 3, 72, 64
5, 44405, Note_on_c, 3, 73, 83
5, 44495, Note_off_c, 3, 73, 64
5, 44622, Control_c, 3, 11, 94
5, 44642, Note_on_c, 3, 73, 80
5, 44660, Control_c, 3, 11, 99
5, 44698, Control_c, 3, 11, 105
5, 44735, Control_c, 3, 11, 112
5, 44766, Control_c, 3, 11, 106
5, 44805, Control_c, 3, 11, 94
5, 44813, Note_off_c, 3, 73, 64
5, 44843, Control_c, 3, 11, 82
5, 44874, Control_c, 3, 11, 100
5, 44885, Note_on_c, 3, 70, 107
5, 44975, Note_off_c, 3, 70, 64
5, 44998, Note_on_c, 3, 72, 82
5, 45088, Note_off_c, 3, 72, 64
5, 45112, Note_on_c, 3, 70, 82
5, 45132, Control_c, 3, 11, 100
5, 45171, Control_c, 3, 11, 94
5, 45210, Control_c, 3, 11, 88
5, 45249, Control_c, 3, 11, 82
5, 45262, Note_off_c, 3, 70, 64
5, 45287, Control_c, 3, 11, 76
5, 45330, Control_c, 3, 11, 100
5, 45365, Note_on_c, 3, 72, 85
5, 45455, Note_off_c, 3, 72, 64
5, 45576, Control_c, 3, 11, 88
5, 45592, Note_on_c, 3, 72, 80
5, 45614, Control_c, 3, 11, 94
5, 45652, Control_c, 3, 11, 101
5, 45689, Control_c, 3, 11, 108
5, 45720, Control_c, 3, 11, 104
5, 45756, Note_off_c, 3, 72, 64
5, 45759, Control_c, 3, 11, 96
5, 45797, Control_c, 3, 11, 88
5, 45822, Control_c, 3, 11, 100
5, 45845, Note_on_c, 3, 68, 113
5, 45935, Note_off_c, 3, 68, 64
5, 45958, Note_on_c, 3, 70, 98
5, 46048, Note_off_c, 3, 70, 64
5, 46082, Note_on_c, 3, 68, 110
5, 46092, Control_c, 3, 11, 100
5, 46132, Control_c, 3, 11, 94
5, 46173, Control_c, 3, 11, 88
5, 46213, Control_c, 3, 11, 82
5, 46253, Control_c, 3, 11, 76
5, 46277, Note_off_c, 3, 68, 64
5, 46296, Control_c, 3, 11, 100
5, 46325, Note_on_c, 3, 66, 94
5, 46415, Note_off_c, 3, 66, 64
5, 46437, Note_on_c, 3, 65, 64
5, 46527, Note_off_c, 3, 65, 64
5, 46550, Note_on_c, 3, 63, 66
5, 46640, Note_off_c, 3, 63, 64
5, 46799, Note_on_c, 3, 63, 59
5, 46889, Note_off_c, 3, 63, 64
5, 47042, Note_on_c, 3, 65, 50
5, 47253, Note_off_c, 3, 65, 64
5, 49203, Note_on_c, 3, 68, 45
5, 49305, Note_off_c, 3, 68, 64
5, 49436, Note_on_c, 3, 68, 51
5, 49594, Note_off_c, 3, 68, 64
5, 49676, Note_on_c, 3, 70, 53
5, 49784, Note_off_c, 3, 70, 64
5, 49913, Note_on_c, 3, 68, 57
5, 50078, Note_off_c, 3, 68, 64
5, 50152, Note_on_c, 3, 68, 59
5, 50251, Note_off_c, 3, 68, 64
5, 50396, Note_on_c, 3, 68, 59
5, 50576, Note_off_c, 3, 68, 64
5, 50628, Note_on_c, 3, 70, 59
5, 50720, Note_off_c, 3, 70, 64
5, 50877, Note_on_c, 3, 61, 47
5, 51011, Note_off_c, 3, 61, 64
5, 51118, Note_on_c, 3, 61, 56
5, 51235, Note_off_c, 3, 61, 64
5, 51357, Note_on_c, 3, 61, 57
5, 51466, Note_off_c, 3, 61, 64
5, 51594, Note_on_c, 3, 73, 70
5, 51683, Note_off_c, 3, 73, 64
5, 51835, Note_on_c, 3, 73, 80
5, 52018, Note_off_c, 3, 73, 64
5, 54003, Note_on_c, 3, 61, 51
5, 54137, Note_off_c, 3, 61, 64
5, 54237, Note_on_c, 3, 61, 51
5, 54415, Note_off_c, 3, 61, 64
5, 54474, Note_on_c, 3, 63, 51
5, 54608, Note_off_c, 3, 63, 64
5, 54707, Note_on_c, 3, 61, 51
5, 54912, Note_off_c, 3, 61, 64
5, 54955, Note_on_c, 3, 61, 51
5, 55093, Note_off_c, 3, 61, 64
5, 55191, Note_on_c, 3, 61, 51
5, 55406, Note_off_c, 3, 61, 64
5, 55434, Note_on_c, 3, 63, 51
5, 55583, Note_off_c, 3, 63, 64
5, 55677, Note_on_c, 3, 54, 51
5, 55867, Note_off_c, 3, 54, 64
5, 55921, Note_on_c, 3, 54, 51
5, 56056, Note_off_c, 3, 54, 64
5, 56160, Note_on_c, 3, 54, 51
5, 56276, Note_off_c, 3, 54, 64
5, 56395, Note_on_c, 3, 54, 51
5, 56505, Note_off_c, 3, 54, 64
5, 56639, Note_on_c, 3, 54, 71
5, 56725, Note_off_c, 3, 54, 64
5, 57845, Note_on_c, 3, 75, 115
5, 57935, Note_off_c, 3, 75, 64
5, 57958, Note_on_c, 3, 76, 78
5, 58048, Note_off_c, 3, 76, 64
5, 58081, Note_on_c, 3, 75, 78
5, 58221, Note_off_c, 3, 75, 64
5, 58325, Note_on_c, 3, 76, 84
5, 58415, Note_off_c, 3, 76, 64
5, 58548, Control_c, 3, 11, 96
5, 58571, Note_on_c, 3, 76, 84
5, 58596, Control_c, 3, 11, 103
5, 58643, Control_c, 3, 11, 112
5, 58680, Control_c, 3, 11, 110
5, 58725, Control_c, 3, 11, 100
5, 58727, Note_off_c, 3, 76, 64
5, 58769, Control_c, 3, 11, 90
5, 58794, Control_c, 3, 11, 100
5, 58805, Note_on_c, 3, 73, 115
5, 58895, Note_off_c, 3, 73, 64
5, 58918, Note_on_c, 3, 75, 98
5, 59008, Note_off_c, 3, 75, 64
5, 59046, Note_on_c, 3, 73, 83
5, 59186, Note_off_c, 3, 73, 64
5, 59285, Note_on_c, 3, 75, 68
5, 59375, Note_off_c, 3, 75, 64
5, 59496, Control_c, 3, 11, 92
5, 59525, Note_on_c, 3, 75, 73
5, 59538, Control_c, 3, 11, 99
5, 59580, Control_c, 3, 11, 106
5, 59621, Control_c, 3, 11, 114
5, 59658, Control_c, 3, 11, 108
5, 59691, Note_off_c, 3, 75, 64
5, 59700, Control_c, 3, 11, 99
5, 59741, Control_c, 3, 11, 90
5, 59754, Control_c, 3, 11, 100
5, 59765, Note_on_c, 3, 71, 110
5, 59855, Note_off_c, 3, 71, 64
5, 59878, Note_on_c, 3, 73, 97
5, 59968, Note_off_c, 3, 73, 64
5, 60004, Note_on_c, 3, 71, 110
5, 60006, Control_c, 3, 11, 100
5, 60046, Control_c, 3, 11, 92
5, 60086, Control_c, 3, 11, 85
5, 60125, Control_c, 3, 11, 78
5, 60144, Note_off_c, 3, 71, 64
5, 60180, Control_c, 3, 11, 100
5, 60245, Note_on_c, 3, 73, 78
5, 60335, Note_off_c, 3, 73, 64
5, 60478, Note_on_c, 3, 66, 75
5, 60589, Note_off_c, 3, 66, 64
5, 60723, Note_on_c, 3, 66, 86
5, 60830, Note_off_c, 3, 66, 64
5, 60962, Note_on_c, 3, 66, 97
5, 61069, Note_off_c, 3, 66, 64
5, 61196, Note_on_c, 3, 66, 93
5, 61312, Note_off_c, 3, 66, 64
5, 61439, Note_on_c, 3, 61, 97
5, 61600, Note_off_c, 3, 61, 64
5, 61677, Note_on_c, 3, 59, 92
5, 61781, Note_off_c, 3, 59, 64
5, 61912, Note_on_c, 3, 61, 93
5, 62010, Note_off_c, 3, 61, 64
5, 62154, Note_on_c, 3, 61, 90
5, 62247, Note_off_c, 3, 61, 64
5, 62407, Note_on_c, 3, 63, 105
5, 62519, Note_off_c, 3, 63, 64
5, 62519, Note_on_c, 3, 61, 78
5, 62637, Note_on_c, 3, 63, 74
5, 62648, Note_off_c, 3, 61, 64
5, 62728, Note_off_c, 3, 63, 64
5, 62755, Note_on_c, 3, 64, 97
5, 62847, Note_off_c, 3, 64, 64
5, 62876, Note_on_c, 3, 63, 103
5, 62962, Note_off_c, 3, 63, 64
5, 62992, Note_on_c, 3, 66, 86
5, 63073, Note_off_c, 3, 66, 64
5, 63112, Note_on_c, 3, 64, 105
5, 63202, Note_off_c, 3, 64, 64
5, 63231, Note_on_c, 3, 68, 98
5, 63311, Note_off_c, 3, 68, 64
5, 63356, Note_on_c, 3, 66, 110
5, 63473, Note_on_c, 3, 64, 78
5, 63490, Note_off_c, 3, 66, 64
5, 63585, Note_off_c, 3, 64, 64
5, 63592, Note_on_c, 3, 66, 78
5, 63682, Note_off_c, 3, 66, 64
5, 63712, Note_on_c, 3, 68, 92
5, 63795, Note_off_c, 3, 68, 64
5, 63838, Note_on_c, 3, 66, 97
5, 63931, Note_off_c, 3, 66, 64
5, 63957, Note_on_c, 3, 71, 80
5, 64045, Note_off_c, 3, 71, 64
5, 64075, Note_on_c, 3, 66, 97
5, 64164, Note_off_c, 3, 66, 64
5, 64192, Note_on_c, 3, 73, 78
5, 64277, Note_off_c, 3, 73, 64
5, 64317, Note_on_c, 3, 66, 100
5, 64433, Note_off_c, 3, 66, 64
5, 64438, Note_on_c, 3, 71, 79
5, 64518, Note_off_c, 3, 71, 64
5, 64557, Note_on_c, 3, 66, 100
5, 64648, Note_off_c, 3, 66, 64
5, 64674, Note_on_c, 3, 70, 78
5, 64757, Note_off_c, 3, 70, 64
5, 64795, Note_on_c, 3, 66, 97
5, 64902, Note_off_c, 3, 66, 64
5, 64914, Note_on_c, 3, 71, 72
5, 64990, Note_off_c, 3, 71, 64
5, 65036, Note_on_c, 3, 66, 97
5, 65123, Note_off_c, 3, 66, 64
5, 65153, Note_on_c, 3, 70, 82
5, 65234, Note_off_c, 3, 70, 64
5, 65274, Note_on_c, 3, 66, 91
5, 65393, Note_on_c, 3, 68, 73
5, 65401, Note_off_c, 3, 66, 64
5, 65512, Note_off_c, 3, 68, 64
5, 65512, Note_on_c, 3, 66, 69
5, 65612, Note_off_c, 3, 66, 64
5, 65630, Note_on_c, 3, 64, 82
5, 65713, Note_off_c, 3, 64, 64
5, 65751, Note_on_c, 3, 66, 69
5, 65772, Control_c, 3, 11, 98
5, 65816, Control_c, 3, 11, 90
5, 65860, Control_c, 3, 11, 82
5, 65903, Note_off_c, 3, 66, 64
5, 65903, Control_c, 3, 11, 74
5, 65946, Control_c, 3, 11, 100
5, 65993, Note_on_c, 3, 61, 57
5, 66090, Note_off_c, 3, 61, 64
5, 66235, Note_on_c, 3, 61, 55
5, 66325, Note_off_c, 3, 61, 64
5, 66478, Note_on_c, 3, 58, 54
5, 66568, Note_off_c, 3, 58, 64
5, 70332, Note_on_c, 3, 65, 73
5, 70422, Note_off_c, 3, 65, 64
5, 70444, Note_on_c, 3, 63, 60
5, 70534, Note_off_c, 3, 63, 64
5, 70552, Note_on_c, 3, 65, 43
5, 70578, Control_c, 3, 11, 98
5, 70626, Control_c, 3, 11, 90
5, 70674, Control_c, 3, 11, 82
5, 70702, Note_off_c, 3, 65, 64
5, 70721, Control_c, 3, 11, 74
5, 70758, Control_c, 3, 11, 100
5, 71292, Note_on_c, 3, 65, 78
5, 71382, Note_off_c, 3, 65, 64
5, 71404, Note_on_c, 3, 63, 68
5, 71494, Note_off_c, 3, 63, 64
5, 71500, Note_on_c, 3, 65, 53
5, 71526, Control_c, 3, 11, 100
5, 71568, Control_c, 3, 11, 94
5, 71610, Control_c, 3, 11, 88
5, 71650, Note_off_c, 3, 65, 64
5, 71652, Control_c, 3, 11, 82
5, 71693, Control_c, 3, 11, 76
5, 71754, Control_c, 3, 11, 100
5, 72252, Note_on_c, 3, 65, 90
5, 72342, Note_off_c, 3, 65, 64
5, 72365, Note_on_c, 3, 66, 68
5, 72455, Note_off_c, 3, 66, 64
5, 72460, Note_on_c, 3, 65, 48
5, 72486, Control_c, 3, 11, 100
5, 72530, Control_c, 3, 11, 92
5, 72574, Control_c, 3, 11, 85
5, 72610, Note_off_c, 3, 65, 64
5, 72617, Control_c, 3, 11, 78
5, 72678, Control_c, 3, 11, 100
5, 72725, Note_on_c, 3, 61, 64
5, 72815, Note_off_c, 3, 61, 64
5, 72942, Note_on_c, 3, 61, 69
5, 72960, Control_c, 3, 11, 100
5, 73006, Control_c, 3, 11, 92
5, 73052, Control_c, 3, 11, 84
5, 73097, Control_c, 3, 11, 76
5, 73106, Note_off_c, 3, 61, 64
5, 73152, Control_c, 3, 11, 100
5, 73191, Note_on_c, 3, 61, 71
5, 73310, Note_off_c, 3, 61, 64
5, 73410, Control_c, 3, 11, 76
5, 73439, Note_on_c, 3, 59, 67
5, 73454, Control_c, 3, 11, 80
5, 73498, Control_c, 3, 11, 85
5, 73542, Note_off_c, 3, 59, 64
5, 73543, Control_c, 3, 11, 90
5, 73587, Control_c, 3, 11, 95
5, 73631, Control_c, 3, 11, 100
5, 73671, Note_on_c, 3, 61, 67
5, 73777, Note_off_c, 3, 61, 64
5, 73916, Note_on_c, 3, 61, 60
5, 73926, Control_c, 3, 11, 98
5, 73972, Control_c, 3, 11, 90
5, 74018, Control_c, 3, 11, 82
5, 74063, Control_c, 3, 11, 74
5, 74066, Note_off_c, 3, 61, 64
5, 74154, Control_c, 3, 11, 100
5, 76085, Note_on_c, 3, 66, 63
5, 76175, Note_off_c, 3, 66, 64
5, 76197, Note_on_c, 3, 65, 50
5, 76287, Note_off_c, 3, 65, 64
5, 76303, Note_on_c, 3, 66, 54
5, 76326, Control_c, 3, 11, 100
5, 76365, Control_c, 3, 11, 92
5, 76404, Control_c, 3, 11, 85
5, 76443, Control_c, 3, 11, 77
5, 76453, Note_off_c, 3, 66, 64
5, 76481, Control_c, 3, 11, 70
5, 76536, Control_c, 3, 11, 100
5, 76565, Note_on_c, 3, 70, 94
5, 76655, Note_off_c, 3, 70, 64
5, 76677, Note_on_c, 3, 68, 68
5, 76767, Note_off_c, 3, 68, 64
5, 76779, Note_on_c, 3, 70, 69
5, 76818, Control_c, 3, 11, 98
5, 76869, Control_c, 3, 11, 89
5, 76919, Control_c, 3, 11, 80
5, 76929, Note_off_c, 3, 70, 64
5, 76998, Control_c, 3, 11, 100
5, 77045, Note_on_c, 3, 66, 59
5, 77135, Note_off_c, 3, 66, 64
5, 77157, Note_on_c, 3, 65, 51
5, 77247, Note_off_c, 3, 65, 64
5, 77272, Note_on_c, 3, 66, 59
5, 77274, Control_c, 3, 11, 98
5, 77318, Control_c, 3, 11, 91
5, 77362, Control_c, 3, 11, 84
5, 77405, Control_c, 3, 11, 78
5, 77422, Note_off_c, 3, 66, 64
5, 77532, Control_c, 3, 11, 100
5, 79680, Note_on_c, 3, 65, 94
5, 79796, Note_on_c, 3, 63, 71
5, 79798, Note_off_c, 3, 65, 64
5, 79915, Note_on_c, 3, 65, 62
5, 79919, Note_off_c, 3, 63, 64
5, 80015, Note_off_c, 3, 65, 64
5, 80036, Note_on_c, 3, 66, 85
5, 80124, Note_off_c, 3, 66, 64
5, 80156, Note_on_c, 3, 65, 85
5, 80255, Note_off_c, 3, 65, 64
5, 80273, Note_on_c, 3, 68, 71
5, 80364, Note_off_c, 3, 68, 64
5, 80394, Note_on_c, 3, 66, 76
5, 80471, Note_off_c, 3, 66, 64
5, 80509, Note_on_c, 3, 70, 72
5, 80602, Note_off_c, 3, 70, 64
5, 80632, Note_on_c, 3, 65, 89
5, 80756, Note_on_c, 3, 63, 71
5, 80763, Note_off_c, 3, 65, 64
5, 80872, Note_on_c, 3, 65, 69
5, 80890, Note_off_c, 3, 63, 64
5, 80953, Note_off_c, 3, 65, 64
5, 80990, Note_on_c, 3, 66, 79
5, 81072, Note_off_c, 3, 66, 64
5, 81109, Note_on_c, 3, 65, 79
5, 81215, Note_off_c, 3, 65, 64
5, 81229, Note_on_c, 3, 61, 68
5, 81326, Note_off_c, 3, 61, 64
5, 81349, Note_on_c, 3, 66, 71
5, 81452, Note_off_c, 3, 66, 64
5, 81467, Note_on_c, 3, 63, 65
5, 81561, Note_off_c, 3, 63, 64
5, 81593, Note_on_c, 3, 65, 80
5, 81714, Note_on_c, 3, 63, 65
5, 81721, Note_off_c, 3, 65, 64
5, 81834, Note_on_c, 3, 65, 58
5, 81838, Note_off_c, 3, 63, 64
5, 81926, Note_off_c, 3, 65, 64
5, 81951, Note_on_c, 3, 66, 71
5, 82039, Note_off_c, 3, 66, 64
5, 82068, Note_on_c, 3, 65, 81
5, 82174, Note_off_c, 3, 65, 64
5, 82189, Note_on_c, 3, 68, 87
5, 82262, Note_off_c, 3, 68, 64
5, 82325, Note_on_c, 3, 73, 95
5, 82415, Note_off_c, 3, 73, 64
5, 82438, Note_on_c, 3, 77, 98
5, 82528, Note_off_c, 3, 77, 64
5, 87354, Control_c, 3, 11, 98
5, 87400, Control_c, 3, 11, 91
5, 87447, Control_c, 3, 11, 84
5, 87493, Control_c, 3, 11, 77
5, 87539, Control_c, 3, 11, 70
5, 87582, Control_c, 3, 11, 100
5, 88080, Note_on_c, 3, 73, 83
5, 88194, Note_off_c, 3, 73, 64
5, 88284, Control_c, 3, 11, 78
5, 88319, Note_on_c, 3, 73, 97
5, 88335, Control_c, 3, 11, 91
5, 88385, Control_c, 3, 11, 106
5, 88416, Control_c, 3, 11, 110
5, 88461, Control_c, 3, 11, 96
5, 88505, Control_c, 3, 11, 82
5, 88535, Note_off_c, 3, 73, 64
5, 88548, Control_c, 3, 11, 100
5, 88565, Note_on_c, 3, 71, 81
5, 88655, Note_off_c, 3, 71, 64
5, 88677, Note_on_c, 3, 70, 81
5, 88767, Note_off_c, 3, 70, 64
5, 88790, Note_on_c, 3, 68, 89
5, 88901, Note_off_c, 3, 68, 64
5, 92160, Note_on_c, 3, 70, 68
5, 92279, Note_on_c, 3, 68, 46
5, 92286, Note_off_c, 3, 70, 64
5, 92400, Note_on_c, 3, 70, 46
5, 92405, Note_off_c, 3, 68, 64
5, 92494, Note_off_c, 3, 70, 64
5, 93122, Note_on_c, 3, 70, 68
5, 93235, Note_off_c, 3, 70, 64
5, 93237, Note_on_c, 3, 68, 41
5, 93358, Note_on_c, 3, 70, 41
5, 93365, Note_off_c, 3, 68, 64
5, 93512, Note_off_c, 3, 70, 64
5, 94079, Note_on_c, 3, 66, 68
5, 94194, Note_on_c, 3, 65, 40
5, 94208, Note_off_c, 3, 66, 64
5, 94314, Note_on_c, 3, 66, 40
5, 94326, Note_off_c, 3, 65, 64
5, 94428, Note_off_c, 3, 66, 64
5, 95039, Note_on_c, 3, 66, 68
5, 95151, Note_on_c, 3, 65, 40
5, 95154, Note_off_c, 3, 66, 64
5, 95283, Note_on_c, 3, 66, 40
5, 95291, Note_off_c, 3, 65, 64
5, 95379, Note_off_c, 3, 66, 64
5, 95998, Note_on_c, 3, 59, 68
5, 96117, Note_on_c, 3, 58, 41
5, 96121, Note_off_c, 3, 59, 64
5, 96232, Note_off_c, 3, 58, 64
5, 96233, Note_on_c, 3, 59, 41
5, 96324, Note_off_c, 3, 59, 64
5, 96954, Note_on_c, 3, 59, 53
5, 97075, Note_on_c, 3, 58, 43
5, 97076, Note_off_c, 3, 59, 64
5, 97191, Note_on_c, 3, 59, 44
5, 97198, Note_off_c, 3, 58, 64
5, 97317, Note_off_c, 3, 59, 64
5, 97915, Note_on_c, 3, 58, 59
5, 98038, Note_off_c, 3, 58, 64
5, 98039, Note_on_c, 3, 56, 84
5, 98140, Note_off_c, 3, 56, 64
5, 98152, Note_on_c, 3, 58, 97
5, 98229, Note_off_c, 3, 58, 64
5, 98267, Note_on_c, 3, 60, 85
5, 98341, Note_off_c, 3, 60, 64
5, 98393, Note_on_c, 3, 61, 98
5, 98501, Note_off_c, 3, 61, 64
5, 98507, Note_on_c, 3, 60, 77
5, 98594, Note_off_c, 3, 60, 64
5, 98628, Note_on_c, 3, 61, 93
5, 98714, Note_off_c, 3, 61, 64
5, 98745, Note_on_c, 3, 63, 90
5, 98822, Note_off_c, 3, 63, 64
5, 98869, Note_on_c, 3, 65, 57
5, 99077, Note_off_c, 3, 65, 64
5, 99840, Note_on_c, 3, 68, 54
5, 99951, Note_on_c, 3, 66, 46
5, 99957, Note_off_c, 3, 68, 64
5, 100062, Note_on_c, 3, 68, 45
5, 100086, Note_off_c, 3, 66, 64
5, 100180, Note_off_c, 3, 68, 64
5, 100792, Note_on_c, 3, 65, 52
5, 100907, Note_off_c, 3, 65, 64
5, 100913, Note_on_c, 3, 63, 46
5, 101029, Note_on_c, 3, 65, 45
5, 101055, Note_off_c, 3, 63, 64
5, 101154, Note_off_c, 3, 65, 64
5, 101737, Note_on_c, 3, 65, 58
5, 101862, Note_on_c, 3, 63, 39
5, 101864, Note_off_c, 3, 65, 64
5, 101977, Note_on_c, 3, 65, 46
5, 102001, Note_off_c, 3, 63, 64
5, 102080, Note_off_c, 3, 65, 64
5, 102715, Note_on_c, 3, 65, 54
5, 102832, Note_on_c, 3, 63, 49
5, 102838, Note_off_c, 3, 65, 64
5, 102941, Note_on_c, 3, 65, 39
5, 102964, Note_off_c, 3, 63, 64
5, 103052, Note_off_c, 3, 65, 64
5, 103667, Note_on_c, 3, 71, 67
5, 103786, Note_on_c, 3, 70, 52
5, 103807, Note_off_c, 3, 71, 64
5, 103906, Note_on_c, 3, 71, 52
5, 103920, Note_off_c, 3, 70, 64
5, 104023, Note_off_c, 3, 71, 64
5, 104623, Note_on_c, 3, 74, 69
5, 104726, Note_on_c, 3, 72, 58
5, 104733, Note_off_c, 3, 74, 64
5, 104853, Note_on_c, 3, 74, 57
5, 104865, Note_off_c, 3, 72, 64
5, 105003, Note_off_c, 3, 74, 64
5, 105365, Note_on_c, 3, 70, 94
5, 105455, Note_off_c, 3, 70, 64
5, 105477, Note_on_c, 3, 68, 72
5, 105567, Note_off_c, 3, 68, 64
5, 105573, Note_on_c, 3, 70, 76
5, 105723, Note_off_c, 3, 70, 64
5, 105844, Note_on_c, 3, 63, 72
5, 105934, Note_off_c, 3, 63, 64
5, 105958, Note_on_c, 3, 62, 62
5, 106048, Note_off_c, 3, 62, 64
5, 106063, Note_on_c, 3, 63, 57
5, 106213, Note_off_c, 3, 63, 64
5, 108725, Note_on_c, 3, 65, 86
5, 108815, Note_off_c, 3, 65, 64
5, 108838, Note_on_c, 3, 63, 62
5, 108928, Note_off_c, 3, 63, 64
5, 108954, Note_on_c, 3, 65, 50
5, 108972, Control_c, 3, 11, 98
5, 109014, Control_c, 3, 11, 90
5, 109056, Control_c, 3, 11, 83
5, 109097, Control_c, 3, 11, 76
5, 109104, Note_off_c, 3, 65, 64
5, 109176, Control_c, 3, 11, 100
5, 109205, Note_on_c, 3, 68, 78
5, 109295, Note_off_c, 3, 68, 64
5, 109317, Note_on_c, 3, 66, 66
5, 109407, Note_off_c, 3, 66, 64
5, 109427, Note_on_c, 3, 68, 68
5, 109458, Control_c, 3, 11, 98
5, 109504, Control_c, 3, 11, 89
5, 109550, Control_c, 3, 11, 80
5, 109577, Note_off_c, 3, 68, 64
5, 109595, Control_c, 3, 11, 72
5, 109680, Control_c, 3, 11, 100
5, 114485, Note_on_c, 3, 66, 69
5, 114575, Note_off_c, 3, 66, 64
5, 114598, Note_on_c, 3, 65, 54
5, 114688, Note_off_c, 3, 65, 64
5, 114716, Note_on_c, 3, 63, 59
5, 114726, Control_c, 3, 11, 100
5, 114768, Control_c, 3, 11, 92
5, 114810, Control_c, 3, 11, 85
5, 114851, Control_c, 3, 11, 78
5, 114866, Note_off_c, 3, 63, 64
5, 114996, Control_c, 3, 11, 100
5, 115445, Note_on_c, 3, 66, 71
5, 115535, Note_off_c, 3, 66, 64
5, 115558, Note_on_c, 3, 65, 51
5, 115648, Note_off_c, 3, 65, 64
5, 115680, Control_c, 3, 11, 100
5, 115680, Note_on_c, 3, 63, 51
5, 115728, Control_c, 3, 11, 92
5, 115776, Control_c, 3, 11, 84
5, 115823, Control_c, 3, 11, 76
5, 115830, Note_off_c, 3, 63, 64
5, 115938, Control_c, 3, 11, 100
5, 116405, Note_on_c, 3, 66, 79
5, 116495, Note_off_c, 3, 66, 64
5, 116518, Note_on_c, 3, 65, 64
5, 116608, Note_off_c, 3, 65, 64
5, 116637, Note_on_c, 3, 63, 59
5, 116646, Control_c, 3, 11, 100
5, 116683, Control_c, 3, 11, 95
5, 116721, Control_c, 3, 11, 90
5, 116758, Control_c, 3, 11, 85
5, 116787, Note_off_c, 3, 63, 64
5, 116795, Control_c, 3, 11, 80
5, 116892, Control_c, 3, 11, 100
5, 117365, Note_on_c, 3, 66, 113
5, 117455, Note_off_c, 3, 66, 64
5, 117478, Note_on_c, 3, 68, 90
5, 117568, Note_off_c, 3, 68, 64
5, 117593, Note_on_c, 3, 70, 79
5, 117743, Note_off_c, 3, 70, 64
5, 117845, Note_on_c, 3, 70, 88
5, 117935, Note_off_c, 3, 70, 64
5, 118074, Note_on_c, 3, 72, 83
5, 118315, Note_off_c, 3, 72, 64
5, 118793, Note_on_c, 3, 67, 79
5, 118881, Note_off_c, 3, 67, 64
5, 119038, Note_on_c, 3, 63, 78
5, 119272, Note_off_c, 3, 63, 64
5, 119754, Note_on_c, 3, 70, 116
5, 119945, Note_off_c, 3, 70, 64
5, 120001, Note_on_c, 3, 72, 116
5, 120106, Note_off_c, 3, 72, 64
5, 120121, Note_on_c, 3, 75, 99
5, 120218, Note_off_c, 3, 75, 64
5, 120244, Note_on_c, 3, 68, 107
5, 120344, Note_off_c, 3, 68, 64
5, 120355, Note_on_c, 3, 70, 116
5, 120458, Note_off_c, 3, 70, 64
5, 120477, Note_on_c, 3, 72, 116
5, 120581, Note_off_c, 3, 72, 64
5, 120594, Note_on_c, 3, 73, 100
5, 120691, Note_off_c, 3, 73, 64
5, 120718, Note_on_c, 3, 75, 97
5, 120793, Note_off_c, 3, 75, 64
5, 120835, Note_on_c, 3, 73, 111
5, 120920, Note_off_c, 3, 73, 64
5, 120956, Note_on_c, 3, 72, 112
5, 121108, Note_off_c, 3, 72, 64
5, 121197, Note_on_c, 3, 80, 90
5, 121304, Note_off_c, 3, 80, 64
5, 121437, Note_on_c, 3, 75, 98
5, 121548, Note_off_c, 3, 75, 64
5, 121681, Note_on_c, 3, 72, 73
5, 121754, Note_off_c, 3, 72, 64
5, 121916, Note_on_c, 3, 68, 68
5, 121938, Control_c, 3, 11, 98
5, 121982, Control_c, 3, 11, 89
5, 122026, Control_c, 3, 11, 80
5, 122069, Control_c, 3, 11, 72
5, 122077, Note_off_c, 3, 68, 64
5, 122124, Control_c, 3, 11, 100
5, 122165, Note_on_c, 3, 77, 76
5, 122255, Note_off_c, 3, 77, 64
5, 122278, Note_on_c, 3, 75, 55
5, 122368, Note_off_c, 3, 75, 64
5, 122376, Control_c, 3, 11, 100
5, 122398, Note_on_c, 3, 73, 60
5, 122419, Control_c, 3, 11, 95
5, 122463, Control_c, 3, 11, 90
5, 122506, Control_c, 3, 11, 85
5, 122548, Note_off_c, 3, 73, 64
5, 122549, Control_c, 3, 11, 80
5, 122592, Control_c, 3, 11, 100
5, 123125, Note_on_c, 3, 77, 80
5, 123215, Note_off_c, 3, 77, 64
5, 123237, Note_on_c, 3, 75, 59
5, 123327, Note_off_c, 3, 75, 64
5, 123330, Control_c, 3, 11, 100
5, 123352, Note_on_c, 3, 73, 65
5, 123373, Control_c, 3, 11, 95
5, 123417, Control_c, 3, 11, 91
5, 123460, Control_c, 3, 11, 86
5, 123502, Note_off_c, 3, 73, 64
5, 123503, Control_c, 3, 11, 82
5, 123582, Control_c, 3, 11, 100
5, 124085, Note_on_c, 3, 77, 83
5, 124175, Note_off_c, 3, 77, 64
5, 124198, Note_on_c, 3, 75, 68
5, 124288, Note_off_c, 3, 75, 64
5, 124302, Control_c, 3, 11, 98
5, 124317, Note_on_c, 3, 73, 63
5, 124341, Control_c, 3, 11, 94
5, 124380, Control_c, 3, 11, 91
5, 124419, Control_c, 3, 11, 88
5, 124458, Control_c, 3, 11, 84
5, 124467, Note_off_c, 3, 73, 64
5, 124497, Control_c, 3, 11, 81
5, 124535, Control_c, 3, 11, 78
5, 124644, Control_c, 3, 11, 100
5, 126965, Note_on_c, 3, 70, 80
5, 127055, Note_off_c, 3, 70, 64
5, 127078, Note_on_c, 3, 68, 68
5, 127168, Note_off_c, 3, 68, 64
5, 127198, Note_on_c, 3, 66, 57
5, 127200, Control_c, 3, 11, 98
5, 127237, Control_c, 3, 11, 92
5, 127275, Control_c, 3, 11, 86
5, 127312, Control_c, 3, 11, 80
5, 127348, Note_off_c, 3, 66, 64
5, 127349, Control_c, 3, 11, 74
5, 127440, Control_c, 3, 11, 100
5, 128405, Note_on_c, 3, 70, 85
5, 128495, Note_off_c, 3, 70, 64
5, 128517, Note_on_c, 3, 68, 68
5, 128607, Note_off_c, 3, 68, 64
5, 128631, Note_on_c, 3, 66, 57
5, 128646, Control_c, 3, 11, 100
5, 128685, Control_c, 3, 11, 94
5, 128724, Control_c, 3, 11, 88
5, 128763, Control_c, 3, 11, 82
5, 128771, Note_off_c, 3, 66, 64
5, 128801, Control_c, 3, 11, 76
5, 128856, Control_c, 3, 11, 100
5, 128885, Note_on_c, 3, 70, 68
5, 128975, Note_off_c, 3, 70, 64
5, 128997, Note_on_c, 3, 68, 68
5, 129087, Note_off_c, 3, 68, 64
5, 129108, Note_on_c, 3, 66, 52
5, 129132, Control_c, 3, 11, 100
5, 129180, Control_c, 3, 11, 92
5, 129228, Control_c, 3, 11, 85
5, 129258, Note_off_c, 3, 66, 64
5, 129275, Control_c, 3, 11, 78
5, 129378, Control_c, 3, 11, 100
5, 130204, Note_on_c, 3, 61, 102
5, 130310, Note_off_c, 3, 61, 64
5, 130325, Note_on_c, 3, 63, 102
5, 130415, Note_off_c, 3, 63, 64
5, 130437, Note_on_c, 3, 65, 92
5, 130527, Note_off_c, 3, 65, 64
5, 130552, Note_on_c, 3, 66, 116
5, 130670, Note_on_c, 3, 65, 95
5, 130688, Note_off_c, 3, 66, 64
5, 130788, Note_on_c, 3, 66, 88
5, 130808, Note_off_c, 3, 65, 64
5, 130883, Note_off_c, 3, 66, 64
5, 130920, Note_on_c, 3, 75, 90
5, 131013, Note_off_c, 3, 75, 64
5, 131040, Note_on_c, 3, 72, 116
5, 131130, Note_off_c, 3, 72, 64
5, 131155, Note_on_c, 3, 69, 85
5, 131230, Note_off_c, 3, 69, 64
5, 131273, Note_on_c, 3, 66, 83
5, 131359, Note_off_c, 3, 66, 64
5, 131394, Note_on_c, 3, 63, 79
5, 131478, Note_off_c, 3, 63, 64
5, 131517, Note_on_c, 3, 66, 116
5, 131633, Note_on_c, 3, 65, 83
5, 131642, Note_off_c, 3, 66, 64
5, 131754, Note_on_c, 3, 66, 83
5, 131768, Note_off_c, 3, 65, 64
5, 131849, Note_off_c, 3, 66, 64
5, 131876, Note_on_c, 3, 75, 90
5, 131956, Note_off_c, 3, 75, 64
5, 131992, Note_on_c, 3, 72, 116
5, 132080, Note_off_c, 3, 72, 64
5, 132108, Note_on_c, 3, 69, 99
5, 132173, Note_off_c, 3, 69, 64
5, 132222, Note_on_c, 3, 66, 79
5, 132311, Note_off_c, 3, 66, 64
5, 132346, Note_on_c, 3, 63, 79
5, 132441, Note_off_c, 3, 63, 64
5, 132487, Note_on_c, 3, 65, 116
5, 132599, Note_on_c, 3, 63, 100
5, 132606, Note_off_c, 3, 65, 64
5, 132720, Note_on_c, 3, 65, 75
5, 132722, Note_off_c, 3, 63, 64
5, 132801, Note_off_c, 3, 65, 64
5, 132842, Note_on_c, 3, 75, 87
5, 132934, Note_off_c, 3, 75, 64
5, 132961, Note_on_c, 3, 72, 116
5, 133045, Note_off_c, 3, 72, 64
5, 133078, Note_on_c, 3, 69, 99
5, 133154, Note_off_c, 3, 69, 64
5, 133198, Note_on_c, 3, 65, 91
5, 133293, Note_off_c, 3, 65, 64
5, 133316, Note_on_c, 3, 60, 85
5, 133400, Note_off_c, 3, 60, 64
5, 133442, Note_on_c, 3, 65, 116
5, 133552, Note_off_c, 3, 65, 64
5, 133553, Note_on_c, 3, 63, 100
5, 133672, Note_on_c, 3, 65, 84
5, 133690, Note_off_c, 3, 63, 64
5, 133779, Note_off_c, 3, 65, 64
5, 133796, Note_on_c, 3, 75, 98
5, 133883, Note_off_c, 3, 75, 64
5, 133915, Note_on_c, 3, 72, 116
5, 134000, Note_off_c, 3, 72, 64
5, 134032, Note_on_c, 3, 69, 106
5, 134100, Note_off_c, 3, 69, 64
5, 134151, Note_on_c, 3, 65, 85
5, 134228, Note_off_c, 3, 65, 64
5, 134270, Note_on_c, 3, 60, 74
5, 134358, Note_off_c, 3, 60, 64
5, 134397, Note_on_c, 3, 63, 116
5, 134508, Note_on_c, 3, 61, 100
5, 134516, Note_off_c, 3, 63, 64
5, 134631, Note_on_c, 3, 63, 91
5, 134634, Note_off_c, 3, 61, 64
5, 134727, Note_off_c, 3, 63, 64
5, 134759, Note_on_c, 3, 72, 90
5, 134842, Note_off_c, 3, 72, 64
5, 134876, Note_on_c, 3, 69, 115
5, 134975, Note_off_c, 3, 69, 64
5, 134992, Note_on_c, 3, 65, 91
5, 135076, Note_off_c, 3, 65, 64
5, 135107, Note_on_c, 3, 63, 79
5, 135190, Note_off_c, 3, 63, 64
5, 135220, Note_on_c, 3, 60, 90
5, 135301, Note_off_c, 3, 60, 64
5, 135357, Note_on_c, 3, 63, 116
5, 135474, Note_on_c, 3, 61, 100
5, 135479, Note_off_c, 3, 63, 64
5, 135590, Note_on_c, 3, 63, 100
5, 135599, Note_off_c, 3, 61, 64
5, 135679, Note_off_c, 3, 63, 64
5, 135718, Note_on_c, 3, 72, 92
5, 135800, Note_off_c, 3, 72, 64
5, 135837, Note_on_c, 3, 69, 115
5, 135930, Note_off_c, 3, 69, 64
5, 135955, Note_on_c, 3, 65, 97
5, 136032, Note_off_c, 3, 65, 64
5, 136074, Note_on_c, 3, 63, 101
5, 136160, Note_off_c, 3, 63, 64
5, 136191, Note_on_c, 3, 60, 91
5, 136289, Note_off_c, 3, 60, 64
5, 136313, Note_on_c, 3, 61, 90
5, 136320, Control_c, 3, 11, 102
5, 136362, Control_c, 3, 11, 97
5, 136404, Control_c, 3, 11, 93
5, 136446, Control_c, 3, 11, 88
5, 136487, Control_c, 3, 11, 84
5, 136490, Note_off_c, 3, 61, 64
5, 136518, Control_c, 3, 11, 100
5, 136565, Note_on_c, 3, 70, 98
5, 136655, Note_off_c, 3, 70, 64
5, 136677, Note_on_c, 3, 69, 72
5, 136767, Note_off_c, 3, 69, 64
5, 136789, Note_on_c, 3, 70, 71
5, 136806, Control_c, 3, 11, 102
5, 136846, Control_c, 3, 11, 97
5, 136887, Control_c, 3, 11, 93
5, 136927, Control_c, 3, 11, 88
5, 136939, Note_off_c, 3, 70, 64
5, 136967, Control_c, 3, 11, 84
5, 137004, Control_c, 3, 11, 100
5, 137045, Note_on_c, 3, 73, 104
5, 137135, Note_off_c, 3, 73, 64
5, 137157, Note_on_c, 3, 72, 74
5, 137247, Note_off_c, 3, 72, 64
5, 137273, Note_on_c, 3, 73, 74
5, 137280, Control_c, 3, 11, 98
5, 137319, Control_c, 3, 11, 94
5, 137358, Control_c, 3, 11, 91
5, 137397, Control_c, 3, 11, 87
5, 137423, Note_off_c, 3, 73, 64
5, 137435, Control_c, 3, 11, 84
5, 137490, Control_c, 3, 11, 100
5, 137525, Note_on_c, 3, 65, 88
5, 137615, Note_off_c, 3, 65, 64
5, 137637, Note_on_c, 3, 63, 68
5, 137727, Note_off_c, 3, 63, 64
5, 137754, Note_on_c, 3, 65, 68
5, 137760, Control_c, 3, 11, 98
5, 137799, Control_c, 3, 11, 94
5, 137838, Control_c, 3, 11, 90
5, 137877, Control_c, 3, 11, 86
5, 137904, Note_off_c, 3, 65, 64
5, 137915, Control_c, 3, 11, 82
5, 137982, Control_c, 3, 11, 100
5, 138005, Note_on_c, 3, 73, 87
5, 138095, Note_off_c, 3, 73, 64
5, 138118, Note_on_c, 3, 72, 73
5, 138208, Note_off_c, 3, 72, 64
5, 138228, Control_c, 3, 11, 100
5, 138230, Note_on_c, 3, 73, 71
5, 138270, Control_c, 3, 11, 96
5, 138312, Control_c, 3, 11, 92
5, 138354, Control_c, 3, 11, 88
5, 138380, Note_off_c, 3, 73, 64
5, 138395, Control_c, 3, 11, 84
5, 138432, Control_c, 3, 11, 100
5, 143986, Note_on_c, 3, 61, 61
5, 144166, Note_off_c, 3, 61, 64
5, 144227, Note_on_c, 3, 66, 68
5, 144382, Note_off_c, 3, 66, 64
5, 144467, Note_on_c, 3, 65, 57
5, 144621, Note_off_c, 3, 65, 64
5, 144705, Note_on_c, 3, 65, 59
5, 144825, Note_off_c, 3, 65, 64
5, 144960, Control_c, 3, 11, 92
5, 144960, Note_on_c, 3, 61, 63
5, 145002, Control_c, 3, 11, 99
5, 145044, Control_c, 3, 11, 106
5, 145085, Control_c, 3, 11, 114
5, 145116, Control_c, 3, 11, 110
5, 145158, Control_c, 3, 11, 102
5, 145200, Control_c, 3, 11, 94
5, 145241, Note_off_c, 3, 61, 64
5, 145241, Control_c, 3, 11, 86
5, 145308, Control_c, 3, 11, 100
5, 147122, Note_on_c, 3, 65, 85
5, 147212, Note_off_c, 3, 65, 64
5, 147239, Note_on_c, 3, 63, 74
5, 147329, Note_off_c, 3, 63, 64
5, 147352, Note_on_c, 3, 65, 56
5, 147378, Control_c, 3, 11, 98
5, 147418, Control_c, 3, 11, 92
5, 147458, Control_c, 3, 11, 87
5, 147497, Control_c, 3, 11, 82
5, 147502, Note_off_c, 3, 65, 64
5, 147576, Control_c, 3, 11, 100
5, 147602, Note_on_c, 3, 70, 74
5, 147692, Note_off_c, 3, 70, 64
5, 147719, Note_on_c, 3, 69, 67
5, 147809, Note_off_c, 3, 69, 64
5, 147839, Note_on_c, 3, 70, 74
5, 147846, Control_c, 3, 11, 94
5, 147890, Control_c, 3, 11, 88
5, 147934, Control_c, 3, 11, 82
5, 147977, Control_c, 3, 11, 76
5, 147989, Note_off_c, 3, 70, 64
5, 148044, Control_c, 3, 11, 100
5, 148085, Note_on_c, 3, 70, 80
5, 148175, Note_off_c, 3, 70, 64
5, 148308, Control_c, 3, 11, 94
5, 148318, Note_on_c, 3, 70, 88
5, 148350, Control_c, 3, 11, 99
5, 148392, Control_c, 3, 11, 104
5, 148422, Control_c, 3, 11, 108
5, 148446, Control_c, 3, 11, 104
5, 148491, Control_c, 3, 11, 93
5, 148498, Note_off_c, 3, 70, 64
5, 148535, Control_c, 3, 11, 82
5, 148548, Control_c, 3, 11, 100
5, 148565, Note_on_c, 3, 66, 94
5, 148655, Note_off_c, 3, 66, 64
5, 148677, Note_on_c, 3, 68, 78
5, 148767, Note_off_c, 3, 68, 64
5, 148783, Note_on_c, 3, 66, 78
5, 148933, Note_off_c, 3, 66, 64
5, 149045, Note_on_c, 3, 65, 62
5, 149135, Note_off_c, 3, 65, 64
5, 149262, Control_c, 3, 11, 92
5, 149290, Note_on_c, 3, 65, 71
5, 149304, Control_c, 3, 11, 99
5, 149346, Control_c, 3, 11, 106
5, 149387, Control_c, 3, 11, 114
5, 149406, Control_c, 3, 11, 104
5, 149451, Control_c, 3, 11, 94
5, 149463, Note_off_c, 3, 65, 64
5, 149495, Control_c, 3, 11, 84
5, 149508, Control_c, 3, 11, 100
5, 149525, Note_on_c, 3, 65, 91
5, 149615, Note_off_c, 3, 65, 64
5, 149638, Note_on_c, 3, 66, 68
5, 149728, Note_off_c, 3, 66, 64
5, 149754, Control_c, 3, 11, 88
5, 149764, Note_on_c, 3, 65, 63
5, 149797, Control_c, 3, 11, 95
5, 149841, Control_c, 3, 11, 103
5, 149884, Control_c, 3, 11, 111
5, 149904, Note_off_c, 3, 65, 64
5, 149927, Control_c, 3, 11, 120
5, 149958, Control_c, 3, 11, 104
5, 149998, Control_c, 3, 11, 96
5, 150005, Note_on_c, 3, 66, 62
5, 150038, Control_c, 3, 11, 89
5, 150077, Control_c, 3, 11, 82
5, 150090, Control_c, 3, 11, 100
5, 150095, Note_off_c, 3, 66, 64
5, 150216, Control_c, 3, 11, 78
5, 150245, Note_on_c, 3, 65, 56
5, 150264, Control_c, 3, 11, 85
5, 150312, Control_c, 3, 11, 92
5, 150335, Note_off_c, 3, 65, 64
5, 150359, Control_c, 3, 11, 100
5, 150484, Note_on_c, 3, 65, 55
5, 150574, Note_off_c, 3, 65, 64
5, 150696, Control_c, 3, 11, 88
5, 150712, Note_on_c, 3, 65, 54
5, 150734, Control_c, 3, 11, 94
5, 150772, Control_c, 3, 11, 100
5, 150811, Control_c, 3, 11, 107
5, 150849, Control_c, 3, 11, 113
5, 150887, Control_c, 3, 11, 120
5, 150912, Control_c, 3, 11, 116
5, 150952, Control_c, 3, 11, 107
5, 150980, Note_off_c, 3, 65, 64
5, 150992, Control_c, 3, 11, 98
5, 151031, Control_c, 3, 11, 90
5, 151074, Control_c, 3, 11, 100
5, 167020, Control_c, 3, 11, 70
5, 167040, Note_on_c, 3, 54, 117
5, 167046, Control_c, 3, 11, 73
5, 167072, Control_c, 3, 11, 76
5, 167099, Control_c, 3, 11, 80
5, 167125, Control_c, 3, 11, 83
5, 167152, Control_c, 3, 11, 87
5, 167178, Control_c, 3, 11, 91
5, 167205, Control_c, 3, 11, 94
5, 167231, Control_c, 3, 11, 98
5, 167258, Control_c, 3, 11, 101
5, 167284, Control_c, 3, 11, 105
5, 167311, Control_c, 3, 11, 108
5, 167337, Control_c, 3, 11, 112
5, 167363, Control_c, 3, 11, 116
5, 167392, Control_c, 3, 11, 96
5, 167420, Control_c, 3, 11, 74
5, 167455, Note_off_c, 3, 54, 64
5, 167496, Control_c, 3, 11, 70
5, 167509, Note_on_c, 3, 58, 106
5, 167521, Control_c, 3, 11, 73
5, 167546, Control_c, 3, 11, 77
5, 167572, Control_c, 3, 11, 80
5, 167597, Control_c, 3, 11, 84
5, 167623, Control_c, 3, 11, 87
5, 167648, Control_c, 3, 11, 91
5, 167674, Control_c, 3, 11, 94
5, 167699, Control_c, 3, 11, 98
5, 167724, Control_c, 3, 11, 101
5, 167750, Control_c, 3, 11, 105
5, 167775, Control_c, 3, 11, 109
5, 167801, Control_c, 3, 11, 112
5, 167826, Control_c, 3, 11, 116
5, 167851, Control_c, 3, 11, 120
5, 167880, Control_c, 3, 11, 102
5, 167916, Control_c, 3, 11, 80
5, 167944, Control_c, 3, 11, 62
5, 167952, Note_off_c, 3, 58, 64
5, 167980, Control_c, 3, 11, 72
5, 167989, Note_on_c, 3, 61, 127
5, 168005, Control_c, 3, 11, 74
5, 168030, Control_c, 3, 11, 77
5, 168055, Control_c, 3, 11, 80
5, 168080, Control_c, 3, 11, 82
5, 168105, Control_c, 3, 11, 85
5, 168130, Control_c, 3, 11, 88
5, 168155, Control_c, 3, 11, 91
5, 168180, Control_c, 3, 11, 93
5, 168205, Control_c, 3, 11, 96
5, 168230, Control_c, 3, 11, 99
5, 168255, Control_c, 3, 11, 102
5, 168280, Control_c, 3, 11, 104
5, 168305, Control_c, 3, 11, 107
5, 168330, Control_c, 3, 11, 110
5, 168355, Control_c, 3, 11, 113
5, 168379, Control_c, 3, 11, 116
5, 168408, Control_c, 3, 11, 102
5, 168436, Control_c, 3, 11, 82
5, 168468, Control_c, 3, 11, 64
5, 168481, Note_off_c, 3, 61, 64
5, 168630, Control_c, 3, 11, 100
5, 168718, Note_on_c, 3, 61, 115
5, 168839, Note_off_c, 3, 61, 64
5, 168963, Note_on_c, 3, 58, 125
5, 169137, Note_off_c, 3, 58, 64
5, 169200, Note_on_c, 3, 61, 104
5, 169351, Note_off_c, 3, 61, 64
5, 169442, Note_on_c, 3, 66, 127
5, 169540, Note_off_c, 3, 66, 64
5, 169554, Note_on_c, 3, 70, 111
5, 169646, Note_off_c, 3, 70, 64
5, 169676, Note_on_c, 3, 68, 125
5, 169768, Note_off_c, 3, 68, 64
5, 169791, Note_on_c, 3, 66, 99
5, 169907, Note_off_c, 3, 66, 64
5, 169920, Note_on_c, 3, 73, 94
5, 170035, Note_on_c, 3, 65, 67
5, 170049, Note_off_c, 3, 73, 64
5, 170133, Note_off_c, 3, 65, 64
5, 170157, Note_on_c, 3, 68, 80
5, 170249, Note_off_c, 3, 68, 64
5, 170276, Note_on_c, 3, 65, 63
5, 170356, Note_off_c, 3, 65, 64
5, 170401, Note_on_c, 3, 68, 80
5, 170477, Note_off_c, 3, 68, 64
5, 170519, Note_on_c, 3, 65, 67
5, 170601, Note_off_c, 3, 65, 64
5, 170637, Note_on_c, 3, 68, 70
5, 170715, Note_off_c, 3, 68, 64
5, 170754, Note_on_c, 3, 65, 59
5, 170832, Note_off_c, 3, 65, 64
5, 170880, Note_on_c, 3, 70, 79
5, 170964, Note_off_c, 3, 70, 64
5, 170991, Note_on_c, 3, 66, 58
5, 171073, Note_off_c, 3, 66, 64
5, 171117, Note_on_c, 3, 70, 78
5, 171210, Note_off_c, 3, 70, 64
5, 171239, Note_on_c, 3, 66, 64
5, 171316, Note_off_c, 3, 66, 64
5, 171357, Note_on_c, 3, 70, 78
5, 171466, Note_off_c, 3, 70, 64
5, 171475, Note_on_c, 3, 66, 60
5, 171567, Note_off_c, 3, 66, 64
5, 171597, Note_on_c, 3, 70, 78
5, 171710, Note_on_c, 3, 66, 62
5, 171719, Note_off_c, 3, 70, 64
5, 171799, Note_off_c, 3, 66, 64
5, 171842, Note_on_c, 3, 66, 78
5, 171956, Note_on_c, 3, 63, 58
5, 171971, Note_off_c, 3, 66, 64
5, 172032, Note_off_c, 3, 63, 64
5, 172076, Note_on_c, 3, 66, 78
5, 172192, Note_on_c, 3, 63, 59
5, 172195, Note_off_c, 3, 66, 64
5, 172277, Note_off_c, 3, 63, 64
5, 172316, Note_on_c, 3, 66, 77
5, 172427, Note_off_c, 3, 66, 64
5, 172432, Note_on_c, 3, 63, 59
5, 172522, Note_off_c, 3, 63, 64
5, 172557, Note_on_c, 3, 66, 77
5, 172663, Note_off_c, 3, 66, 64
5, 172670, Note_on_c, 3, 63, 60
5, 172756, Note_off_c, 3, 63, 64
5, 172794, Note_on_c, 3, 69, 77
5, 172910, Note_on_c, 3, 65, 55
5, 172930, Note_off_c, 3, 69, 64
5, 172995, Note_off_c, 3, 65, 64
5, 173033, Note_on_c, 3, 69, 64
5, 173157, Note_on_c, 3, 65, 53
5, 173166, Note_off_c, 3, 69, 64
5, 173241, Note_off_c, 3, 65, 64
5, 173278, Note_on_c, 3, 69, 70
5, 173395, Note_on_c, 3, 65, 51
5, 173399, Note_off_c, 3, 69, 64
5, 173476, Note_off_c, 3, 65, 64
5, 173517, Note_on_c, 3, 69, 65
5, 173632, Note_on_c, 3, 65, 55
5, 173633, Note_off_c, 3, 69, 64
5, 173713, Note_off_c, 3, 65, 64
5, 173758, Note_on_c, 3, 65, 88
5, 173878, Note_on_c, 3, 62, 52
5, 173885, Note_off_c, 3, 65, 64
5, 173950, Note_off_c, 3, 62, 64
5, 173996, Note_on_c, 3, 65, 59
5, 174098, Note_off_c, 3, 65, 64
5, 174111, Note_on_c, 3, 62, 55
5, 174198, Note_off_c, 3, 62, 64
5, 174235, Note_on_c, 3, 65, 59
5, 174338, Note_off_c, 3, 65, 64
5, 174352, Note_on_c, 3, 62, 46
5, 174432, Note_off_c, 3, 62, 64
5, 174476, Note_on_c, 3, 65, 60
5, 174572, Note_off_c, 3, 65, 64
5, 174592, Note_on_c, 3, 62, 46
5, 174667, Note_off_c, 3, 62, 64
5, 174713, Note_on_c, 3, 67, 86
5, 174834, Note_on_c, 3, 63, 57
5, 174842, Note_off_c, 3, 67, 64
5, 174898, Note_off_c, 3, 63, 64
5, 174952, Note_on_c, 3, 67, 66
5, 175065, Note_off_c, 3, 67, 64
5, 175072, Note_on_c, 3, 63, 53
5, 175154, Note_off_c, 3, 63, 64
5, 175195, Note_on_c, 3, 67, 63
5, 175314, Note_on_c, 3, 63, 53
5, 175316, Note_off_c, 3, 67, 64
5, 175399, Note_off_c, 3, 63, 64
5, 175436, Note_on_c, 3, 67, 68
5, 175550, Note_on_c, 3, 63, 55
5, 175556, Note_off_c, 3, 67, 64
5, 175630, Note_off_c, 3, 63, 64
5, 175677, Note_on_c, 3, 63, 72
5, 175793, Note_on_c, 3, 59, 51
5, 175795, Note_off_c, 3, 63, 64
5, 175873, Note_off_c, 3, 59, 64
5, 175915, Note_on_c, 3, 63, 72
5, 176021, Note_off_c, 3, 63, 64
5, 176030, Note_on_c, 3, 59, 52
5, 176108, Note_off_c, 3, 59, 64
5, 176153, Note_on_c, 3, 63, 71
5, 176264, Note_off_c, 3, 63, 64
5, 176270, Note_on_c, 3, 59, 55
5, 176345, Note_off_c, 3, 59, 64
5, 176392, Note_on_c, 3, 63, 71
5, 176493, Note_off_c, 3, 63, 64
5, 176511, Note_on_c, 3, 59, 55
5, 176604, Note_off_c, 3, 59, 64
5, 176640, Note_on_c, 3, 61, 60
5, 176762, Note_on_c, 3, 59, 47
5, 176767, Note_off_c, 3, 61, 64
5, 176868, Control_c, 3, 11, 98
5, 176875, Note_on_c, 3, 61, 47
5, 176889, Note_off_c, 3, 59, 64
5, 176908, Control_c, 3, 11, 92
5, 176948, Control_c, 3, 11, 86
5, 176987, Control_c, 3, 11, 80
5, 176997, Note_off_c, 3, 61, 64
5, 177066, Control_c, 3, 11, 100
5, 177596, Note_on_c, 3, 61, 61
5, 177716, Note_on_c, 3, 59, 55
5, 177724, Note_off_c, 3, 61, 64
5, 177834, Control_c, 3, 11, 98
5, 177835, Note_on_c, 3, 61, 55
5, 177841, Note_off_c, 3, 59, 64
5, 177872, Control_c, 3, 11, 90
5, 177910, Control_c, 3, 11, 83
5, 177929, Note_off_c, 3, 61, 64
5, 177947, Control_c, 3, 11, 76
5, 178014, Control_c, 3, 11, 100
5, 178556, Note_on_c, 3, 65, 64
5, 178676, Note_on_c, 3, 63, 55
5, 178688, Note_off_c, 3, 65, 64
5, 178794, Control_c, 3, 11, 98
5, 178799, Note_on_c, 3, 65, 55
5, 178804, Note_off_c, 3, 63, 64
5, 178836, Control_c, 3, 11, 92
5, 178878, Control_c, 3, 11, 87
5, 178902, Note_off_c, 3, 65, 64
5, 178919, Control_c, 3, 11, 82
5, 178992, Control_c, 3, 11, 100
5, 179523, Note_on_c, 3, 65, 62
5, 179638, Note_on_c, 3, 63, 55
5, 179647, Note_off_c, 3, 65, 64
5, 179751, Note_off_c, 3, 63, 64
5, 179754, Control_c, 3, 11, 98
5, 179755, Note_on_c, 3, 65, 55
5, 179800, Control_c, 3, 11, 91
5, 179846, Control_c, 3, 11, 84
5, 179873, Note_off_c, 3, 65, 64
5, 179891, Control_c, 3, 11, 78
5, 179946, Control_c, 3, 11, 100
5, 180480, Note_on_c, 3, 67, 72
5, 180596, Note_on_c, 3, 65, 57
5, 180600, Note_off_c, 3, 67, 64
5, 180714, Control_c, 3, 11, 98
5, 180716, Note_on_c, 3, 67, 49
5, 180722, Note_off_c, 3, 65, 64
5, 180753, Control_c, 3, 11, 91
5, 180792, Control_c, 3, 11, 85
5, 180831, Control_c, 3, 11, 78
5, 180846, Note_off_c, 3, 67, 64
5, 180869, Control_c, 3, 11, 72
5, 180924, Control_c, 3, 11, 100
5, 181442, Note_on_c, 3, 67, 69
5, 181556, Note_on_c, 3, 65, 50
5, 181563, Note_off_c, 3, 67, 64
5, 181675, Note_off_c, 3, 65, 64
5, 181675, Note_on_c, 3, 67, 56
5, 181692, Control_c, 3, 11, 96
5, 181734, Control_c, 3, 11, 91
5, 181776, Control_c, 3, 11, 86
5, 181792, Note_off_c, 3, 67, 64
5, 181817, Control_c, 3, 11, 82
5, 181908, Control_c, 3, 11, 100
5, 182400, Note_on_c, 3, 68, 78
5, 182515, Note_on_c, 3, 67, 58
5, 182521, Note_off_c, 3, 68, 64
5, 182639, Note_on_c, 3, 68, 61
5, 182640, Control_c, 3, 11, 92
5, 182645, Note_off_c, 3, 67, 64
5, 182684, Control_c, 3, 11, 85
5, 182728, Control_c, 3, 11, 78
5, 182756, Note_off_c, 3, 68, 64
5, 182771, Control_c, 3, 11, 72
5, 182856, Control_c, 3, 11, 100
5, 183359, Note_on_c, 3, 68, 78
5, 183474, Note_on_c, 3, 67, 52
5, 183482, Note_off_c, 3, 68, 64
5, 183595, Note_on_c, 3, 68, 58
5, 183600, Control_c, 3, 11, 96
5, 183607, Note_off_c, 3, 67, 64
5, 183644, Control_c, 3, 11, 90
5, 183688, Control_c, 3, 11, 85
5, 183721, Note_off_c, 3, 68, 64
5, 183731, Control_c, 3, 11, 80
5, 183810, Control_c, 3, 11, 100
5, 184313, Note_on_c, 3, 73, 70
5, 184430, Note_on_c, 3, 71, 62
5, 184441, Note_off_c, 3, 73, 64
5, 184536, Control_c, 3, 11, 94
5, 184553, Note_on_c, 3, 73, 62
5, 184563, Note_off_c, 3, 71, 64
5, 184576, Control_c, 3, 11, 90
5, 184616, Control_c, 3, 11, 86
5, 184655, Control_c, 3, 11, 82
5, 184680, Note_off_c, 3, 73, 64
5, 184728, Control_c, 3, 11, 100
5, 185272, Note_on_c, 3, 73, 78
5, 185392, Note_on_c, 3, 71, 66
5, 185394, Note_off_c, 3, 73, 64
5, 185502, Control_c, 3, 11, 96
5, 185512, Note_off_c, 3, 71, 64
5, 185516, Note_on_c, 3, 73, 60
5, 185548, Control_c, 3, 11, 92
5, 185594, Control_c, 3, 11, 88
5, 185631, Note_off_c, 3, 73, 64
5, 185639, Control_c, 3, 11, 84
5, 185676, Control_c, 3, 11, 100
5, 186240, Note_on_c, 3, 73, 78
5, 186354, Note_on_c, 3, 71, 58
5, 186360, Note_off_c, 3, 73, 64
5, 186472, Note_on_c, 3, 73, 58
5, 186474, Control_c, 3, 11, 100
5, 186482, Note_off_c, 3, 71, 64
5, 186516, Control_c, 3, 11, 93
5, 186558, Control_c, 3, 11, 87
5, 186600, Control_c, 3, 11, 80
5, 186615, Note_off_c, 3, 73, 64
5, 186641, Control_c, 3, 11, 74
5, 186684, Control_c, 3, 11, 100
5, 187198, Note_on_c, 3, 73, 107
5, 187312, Note_on_c, 3, 71, 60
5, 187321, Note_off_c, 3, 73, 64
5, 187429, Note_on_c, 3, 73, 60
5, 187436, Note_off_c, 3, 71, 64
5, 187440, Control_c, 3, 11, 100
5, 187477, Control_c, 3, 11, 94
5, 187515, Control_c, 3, 11, 89
5, 187552, Control_c, 3, 11, 83
5, 187566, Note_off_c, 3, 73, 64
5, 187589, Control_c, 3, 11, 78
5, 187662, Control_c, 3, 11, 100
5, 188142, Control_c, 3, 11, 92
5, 188160, Note_on_c, 3, 71, 115
5, 188201, Control_c, 3, 11, 108
5, 188250, Control_c, 3, 11, 104
5, 188288, Control_c, 3, 11, 94
5, 188326, Control_c, 3, 11, 85
5, 188350, Note_off_c, 3, 71, 64
5, 188363, Control_c, 3, 11, 76
5, 188394, Control_c, 3, 11, 100
5, 189365, Note_on_c, 3, 68, 116
5, 189455, Note_off_c, 3, 68, 64
5, 189477, Note_on_c, 3, 67, 92
5, 189567, Note_off_c, 3, 67, 64
5, 189587, Note_on_c, 3, 68, 92
5, 189737, Note_off_c, 3, 68, 64
5, 189833, Note_on_c, 3, 71, 116
5, 189913, Note_off_c, 3, 71, 64
5, 190026, Control_c, 3, 11, 90
5, 190074, Control_c, 3, 11, 97
5, 190080, Note_on_c, 3, 73, 107
5, 190121, Control_c, 3, 11, 106
5, 190158, Control_c, 3, 11, 110
5, 190198, Control_c, 3, 11, 98
5, 190238, Control_c, 3, 11, 86
5, 190260, Note_off_c, 3, 73, 64
5, 190277, Control_c, 3, 11, 74
5, 190350, Control_c, 3, 11, 100
5, 191285, Note_on_c, 3, 66, 116
5, 191375, Note_off_c, 3, 66, 64
5, 191398, Note_on_c, 3, 65, 82
5, 191488, Note_off_c, 3, 65, 64
5, 191514, Note_on_c, 3, 66, 83
5, 191664, Note_off_c, 3, 66, 64
5, 191757, Note_on_c, 3, 70, 116
5, 191830, Note_off_c, 3, 70, 64
5, 191970, Control_c, 3, 11, 90
5, 192000, Note_on_c, 3, 71, 115
5, 192008, Control_c, 3, 11, 95
5, 192046, Control_c, 3, 11, 101
5, 192083, Control_c, 3, 11, 108
5, 192114, Control_c, 3, 11, 102
5, 192151, Control_c, 3, 11, 94
5, 192180, Note_off_c, 3, 71, 64
5, 192189, Control_c, 3, 11, 87
5, 192226, Control_c, 3, 11, 79
5, 192263, Control_c, 3, 11, 72
5, 192300, Control_c, 3, 11, 100
5, 193205, Note_on_c, 3, 64, 116
5, 193295, Note_off_c, 3, 64, 64
5, 193318, Note_on_c, 3, 63, 82
5, 193408, Note_off_c, 3, 63, 64
5, 193439, Note_on_c, 3, 64, 83
5, 193589, Note_off_c, 3, 64, 64
5, 193679, Note_on_c, 3, 68, 113
5, 193749, Note_off_c, 3, 68, 64
5, 193902, Control_c, 3, 11, 88
5, 193920, Note_on_c, 3, 70, 102
5, 193941, Control_c, 3, 11, 98
5, 193979, Control_c, 3, 11, 110
5, 194016, Control_c, 3, 11, 104
5, 194064, Control_c, 3, 11, 89
5, 194103, Note_off_c, 3, 70, 64
5, 194111, Control_c, 3, 11, 74
5, 194142, Control_c, 3, 11, 100
5, 194165, Note_on_c, 3, 67, 94
5, 194255, Note_off_c, 3, 67, 64
5, 194278, Note_on_c, 3, 65, 77
5, 194368, Note_off_c, 3, 65, 64
5, 194394, Note_on_c, 3, 67, 77
5, 194400, Control_c, 3, 11, 94
5, 194442, Control_c, 3, 11, 88
5, 194484, Control_c, 3, 11, 83
5, 194526, Control_c, 3, 11, 77
5, 194544, Note_off_c, 3, 67, 64
5, 194567, Control_c, 3, 11, 72
5, 194616, Control_c, 3, 11, 100
5, 194645, Note_on_c, 3, 61, 94
5, 194735, Note_off_c, 3, 61, 64
5, 194758, Note_on_c, 3, 59, 79
5, 194848, Note_off_c, 3, 59, 64
5, 194876, Note_on_c, 3, 61, 79
5, 194886, Control_c, 3, 11, 98
5, 194934, Control_c, 3, 11, 90
5, 194982, Control_c, 3, 11, 82
5, 195026, Note_off_c, 3, 61, 64
5, 195029, Control_c, 3, 11, 74
5, 195090, Control_c, 3, 11, 100
5, 195125, Note_on_c, 3, 58, 101
5, 195215, Note_off_c, 3, 58, 64
5, 195238, Note_on_c, 3, 56, 90
5, 195328, Note_off_c, 3, 56, 64
5, 195359, Note_on_c, 3, 58, 90
5, 195372, Control_c, 3, 11, 100
5, 195418, Control_c, 3, 11, 92
5, 195464, Control_c, 3, 11, 84
5, 195509, Note_off_c, 3, 58, 64
5, 195509, Control_c, 3, 11, 76
5, 195564, Control_c, 3, 11, 100
5, 195600, Note_on_c, 3, 67, 102
5, 195711, Note_off_c, 3, 67, 64
5, 195840, Note_on_c, 3, 63, 96
5, 195998, Note_off_c, 3, 63, 64
5, 196085, Note_on_c, 3, 64, 63
5, 196175, Note_off_c, 3, 64, 64
5, 196302, Control_c, 3, 11, 84
5, 196314, Note_on_c, 3, 63, 78
5, 196342, Control_c, 3, 11, 89
5, 196382, Control_c, 3, 11, 94
5, 196415, Note_off_c, 3, 63, 64
5, 196421, Control_c, 3, 11, 100
5, 196564, Note_on_c, 3, 63, 78
5, 196654, Note_off_c, 3, 63, 64
5, 196794, Control_c, 3, 11, 92
5, 196796, Note_on_c, 3, 63, 71
5, 196848, Control_c, 3, 11, 101
5, 196901, Control_c, 3, 11, 112
5, 196938, Control_c, 3, 11, 106
5, 196986, Control_c, 3, 11, 98
5, 197033, Note_off_c, 3, 63, 64
5, 197034, Control_c, 3, 11, 90
5, 197081, Control_c, 3, 11, 82
5, 197118, Control_c, 3, 11, 100
5, 200640, Note_on_c, 3, 66, 102
5, 200765, Note_on_c, 3, 65, 56
5, 200790, Note_off_c, 3, 66, 64
5, 200886, Note_on_c, 3, 66, 78
5, 200900, Note_off_c, 3, 65, 64
5, 200993, Note_off_c, 3, 66, 64
5, 201009, Note_on_c, 3, 68, 79
5, 201096, Note_off_c, 3, 68, 64
5, 201124, Note_on_c, 3, 66, 90
5, 201223, Note_off_c, 3, 66, 64
5, 201234, Note_on_c, 3, 70, 78
5, 201312, Note_off_c, 3, 70, 64
5, 201353, Note_on_c, 3, 68, 97
5, 201445, Note_off_c, 3, 68, 64
5, 201467, Note_on_c, 3, 71, 89
5, 201544, Note_off_c, 3, 71, 64
5, 201596, Note_on_c, 3, 70, 92
5, 201712, Note_on_c, 3, 68, 78
5, 201713, Note_off_c, 3, 70, 64
5, 201833, Note_on_c, 3, 70, 78
5, 201854, Note_off_c, 3, 68, 64
5, 201953, Note_on_c, 3, 71, 78
5, 201956, Note_off_c, 3, 70, 64
5, 202043, Note_off_c, 3, 71, 64
5, 202073, Note_on_c, 3, 70, 83
5, 202173, Note_off_c, 3, 70, 64
5, 202192, Note_on_c, 3, 75, 83
5, 202275, Note_off_c, 3, 75, 64
5, 202309, Note_on_c, 3, 70, 83
5, 202406, Note_off_c, 3, 70, 64
5, 202427, Note_on_c, 3, 77, 87
5, 202512, Note_off_c, 3, 77, 64
5, 202549, Note_on_c, 3, 70, 81
5, 202662, Note_off_c, 3, 70, 64
5, 202672, Note_on_c, 3, 75, 78
5, 202757, Note_off_c, 3, 75, 64
5, 202792, Note_on_c, 3, 70, 81
5, 202900, Note_off_c, 3, 70, 64
5, 202906, Note_on_c, 3, 74, 80
5, 203001, Note_off_c, 3, 74, 64
5, 203029, Note_on_c, 3, 70, 87
5, 203145, Note_off_c, 3, 70, 64
5, 203151, Note_on_c, 3, 75, 84
5, 203238, Note_off_c, 3, 75, 64
5, 203269, Note_on_c, 3, 70, 84
5, 203373, Note_off_c, 3, 70, 64
5, 203390, Note_on_c, 3, 74, 103
5, 203483, Note_off_c, 3, 74, 64
5, 203509, Note_on_c, 3, 70, 84
5, 203632, Note_on_c, 3, 71, 75
5, 203648, Note_off_c, 3, 70, 64
5, 203753, Note_on_c, 3, 70, 78
5, 203758, Note_off_c, 3, 71, 64
5, 203860, Note_off_c, 3, 70, 64
5, 203870, Note_on_c, 3, 68, 78
5, 203967, Note_off_c, 3, 68, 64
5, 203993, Note_on_c, 3, 70, 78
5, 204144, Note_off_c, 3, 70, 64
5, 204246, Note_on_c, 3, 65, 77
5, 204320, Note_off_c, 3, 65, 64
5, 204480, Note_on_c, 3, 65, 71
5, 204580, Note_off_c, 3, 65, 64
5, 204717, Note_on_c, 3, 62, 69
5, 204823, Note_off_c, 3, 62, 64
5, 209280, Note_on_c, 3, 68, 61
5, 209400, Note_on_c, 3, 66, 51
5, 209418, Note_off_c, 3, 68, 64
5, 209519, Note_on_c, 3, 68, 51
5, 209526, Note_off_c, 3, 66, 64
5, 209619, Note_off_c, 3, 68, 64
5, 210242, Note_on_c, 3, 68, 74
5, 210355, Note_on_c, 3, 66, 55
5, 210367, Note_off_c, 3, 68, 64
5, 210474, Note_on_c, 3, 68, 55
5, 210476, Note_off_c, 3, 66, 64
5, 210571, Note_off_c, 3, 68, 64
5, 211199, Note_on_c, 3, 73, 70
5, 211317, Note_on_c, 3, 71, 58
5, 211328, Note_off_c, 3, 73, 64
5, 211441, Note_on_c, 3, 73, 58
5, 211457, Note_off_c, 3, 71, 64
5, 211542, Note_off_c, 3, 73, 64
5, 212158, Note_on_c, 3, 73, 74
5, 212274, Note_on_c, 3, 71, 60
5, 212285, Note_off_c, 3, 73, 64
5, 212394, Note_on_c, 3, 73, 60
5, 212406, Note_off_c, 3, 71, 64
5, 212499, Note_off_c, 3, 73, 64
5, 213121, Note_on_c, 3, 73, 116
5, 213236, Note_on_c, 3, 71, 89
5, 213249, Note_off_c, 3, 73, 64
5, 213350, Note_on_c, 3, 73, 78
5, 213362, Note_off_c, 3, 71, 64
5, 213454, Note_off_c, 3, 73, 64
5, 213480, Note_on_c, 3, 82, 115
5, 213560, Note_off_c, 3, 82, 64
5, 213599, Note_on_c, 3, 79, 107
5, 213699, Note_off_c, 3, 79, 64
5, 213714, Note_on_c, 3, 73, 86
5, 213797, Note_off_c, 3, 73, 64
5, 213835, Note_on_c, 3, 70, 80
5, 213920, Note_off_c, 3, 70, 64
5, 213947, Note_on_c, 3, 63, 86
5, 214022, Note_off_c, 3, 63, 64
5, 214077, Note_on_c, 3, 73, 116
5, 214189, Note_on_c, 3, 71, 83
5, 214199, Note_off_c, 3, 73, 64
5, 214307, Note_on_c, 3, 73, 78
5, 214323, Note_off_c, 3, 71, 64
5, 214435, Note_on_c, 3, 82, 110
5, 214438, Note_off_c, 3, 73, 64
5, 214522, Note_off_c, 3, 82, 64
5, 214556, Note_on_c, 3, 79, 112
5, 214649, Note_off_c, 3, 79, 64
5, 214673, Note_on_c, 3, 73, 94
5, 214756, Note_off_c, 3, 73, 64
5, 214793, Note_on_c, 3, 70, 84
5, 214877, Note_off_c, 3, 70, 64
5, 214902, Note_on_c, 3, 63, 84
5, 214981, Note_off_c, 3, 63, 64
5, 215043, Note_on_c, 3, 72, 44
5, 215204, Note_off_c, 3, 72, 64
5, 215280, Note_on_c, 3, 72, 46
5, 215439, Note_off_c, 3, 72, 64
5, 215514, Note_on_c, 3, 72, 41
5, 215676, Note_off_c, 3, 72, 64
5, 215754, Note_on_c, 3, 72, 42
5, 215918, Note_off_c, 3, 72, 64
5, 215995, Note_on_c, 3, 72, 40
5, 216174, Note_off_c, 3, 72, 64
5, 216239, Note_on_c, 3, 72, 44
5, 216415, Note_off_c, 3, 72, 64
5, 216474, Note_on_c, 3, 72, 43
5, 216647, Note_off_c, 3, 72, 64
5, 216717, Note_on_c, 3, 72, 49
5, 216889, Note_off_c, 3, 72, 64
5, 216958, Note_on_c, 3, 68, 64
5, 217148, Note_off_c, 3, 68, 64
5, 217199, Note_on_c, 3, 68, 48
5, 217368, Note_off_c, 3, 68, 64
5, 217439, Note_on_c, 3, 68, 54
5, 217596, Note_off_c, 3, 68, 64
5, 217677, Note_on_c, 3, 68, 44
5, 217835, Note_off_c, 3, 68, 64
5, 217915, Note_on_c, 3, 68, 57
5, 218092, Note_off_c, 3, 68, 64
5, 218153, Note_on_c, 3, 68, 56
5, 218314, Note_off_c, 3, 68, 64
5, 218391, Note_on_c, 3, 68, 46
5, 218550, Note_off_c, 3, 68, 64
5, 218635, Note_on_c, 3, 68, 43
5, 218804, Note_off_c, 3, 68, 64
5, 218877, Note_on_c, 3, 70, 50
5, 219038, Note_off_c, 3, 70, 64
5, 219126, Note_on_c, 3, 70, 39
5, 219253, Note_off_c, 3, 70, 64
5, 219355, Note_on_c, 3, 70, 42
5, 219488, Note_off_c, 3, 70, 64
5, 219591, Note_on_c, 3, 70, 35
5, 219734, Note_off_c, 3, 70, 64
5, 219831, Note_on_c, 3, 70, 37
5, 219970, Note_off_c, 3, 70, 64
5, 220072, Note_on_c, 3, 70, 34
5, 220193, Note_off_c, 3, 70, 64
5, 220307, Note_on_c, 3, 70, 39
5, 220440, Note_off_c, 3, 70, 64
5, 220553, Note_on_c, 3, 70, 33
5, 220694, Note_off_c, 3, 70, 64
5, 220800, Note_on_c, 3, 69, 54
5, 220916, Note_on_c, 3, 68, 54
5, 220934, Note_off_c, 3, 69, 64
5, 221035, Note_on_c, 3, 69, 45
5, 221040, Control_c, 3, 11, 96
5, 221055, Note_off_c, 3, 68, 64
5, 221082, Control_c, 3, 11, 91
5, 221124, Control_c, 3, 11, 86
5, 221142, Note_off_c, 3, 69, 64
5, 221165, Control_c, 3, 11, 82
5, 221238, Control_c, 3, 11, 100
5, 221752, Note_on_c, 3, 69, 59
5, 221872, Note_on_c, 3, 68, 61
5, 221881, Note_off_c, 3, 69, 64
5, 221982, Control_c, 3, 11, 100
5, 221994, Note_on_c, 3, 69, 37
5, 222003, Note_off_c, 3, 68, 64
5, 222028, Control_c, 3, 11, 92
5, 222074, Control_c, 3, 11, 85
5, 222114, Note_off_c, 3, 69, 64
5, 222119, Control_c, 3, 11, 78
5, 222210, Control_c, 3, 11, 100
5, 222719, Note_on_c, 3, 69, 72
5, 222842, Note_on_c, 3, 68, 42
5, 222852, Note_off_c, 3, 69, 64
5, 222948, Control_c, 3, 11, 98
5, 222958, Note_on_c, 3, 69, 40
5, 222968, Note_off_c, 3, 68, 64
5, 222986, Control_c, 3, 11, 92
5, 223024, Control_c, 3, 11, 87
5, 223061, Control_c, 3, 11, 82
5, 223074, Note_off_c, 3, 69, 64
5, 223128, Control_c, 3, 11, 100
5, 223670, Note_on_c, 3, 69, 91
5, 223788, Note_on_c, 3, 68, 53
5, 223797, Note_off_c, 3, 69, 64
5, 223906, Note_on_c, 3, 69, 52
5, 223919, Note_off_c, 3, 68, 64
5, 223926, Control_c, 3, 11, 100
5, 223970, Control_c, 3, 11, 92
5, 224014, Control_c, 3, 11, 84
5, 224041, Note_off_c, 3, 69, 64
5, 224057, Control_c, 3, 11, 76
5, 224058, Control_c, 3, 11, 80
5, 224130, Control_c, 3, 11, 100
5, 224642, Note_on_c, 3, 72, 87
5, 224755, Note_on_c, 3, 69, 55
5, 224767, Note_off_c, 3, 72, 64
5, 224871, Note_on_c, 3, 72, 60
5, 224875, Note_off_c, 3, 69, 64
5, 224880, Control_c, 3, 11, 100
5, 224928, Control_c, 3, 11, 92
5, 224976, Control_c, 3, 11, 84
5, 225005, Note_off_c, 3, 72, 64
5, 225023, Control_c, 3, 11, 76
5, 225078, Control_c, 3, 11, 100
5, 225598, Note_on_c, 3, 72, 80
5, 225715, Note_on_c, 3, 69, 60
5, 225733, Note_off_c, 3, 72, 64
5, 225832, Note_on_c, 3, 72, 66
5, 225833, Note_off_c, 3, 69, 64
5, 225840, Control_c, 3, 11, 100
5, 225883, Control_c, 3, 11, 96
5, 225927, Control_c, 3, 11, 93
5, 225964, Note_off_c, 3, 72, 64
5, 225970, Control_c, 3, 11, 89
5, 226013, Control_c, 3, 11, 86
5, 226038, Control_c, 3, 11, 100
5, 226553, Note_on_c, 3, 69, 105
5, 226670, Note_on_c, 3, 68, 74
5, 226674, Note_off_c, 3, 69, 64
5, 226776, Control_c, 3, 11, 98
5, 226787, Note_on_c, 3, 69, 58
5, 226793, Note_off_c, 3, 68, 64
5, 226820, Control_c, 3, 11, 92
5, 226864, Control_c, 3, 11, 86
5, 226907, Control_c, 3, 11, 80
5, 226931, Note_off_c, 3, 69, 64
5, 226998, Control_c, 3, 11, 100
5, 227518, Note_on_c, 3, 69, 108
5, 227633, Note_on_c, 3, 68, 82
5, 227643, Note_off_c, 3, 69, 64
5, 227748, Control_c, 3, 11, 100
5, 227756, Note_on_c, 3, 69, 68
5, 227774, Note_off_c, 3, 68, 64
5, 227794, Control_c, 3, 11, 94
5, 227840, Control_c, 3, 11, 88
5, 227881, Note_off_c, 3, 69, 64
5, 227885, Control_c, 3, 11, 82
5, 227964, Control_c, 3, 11, 100
5, 228478, Note_on_c, 3, 68, 115
5, 228593, Note_on_c, 3, 66, 85
5, 228604, Note_off_c, 3, 68, 64
5, 228714, Control_c, 3, 11, 96
5, 228714, Note_on_c, 3, 68, 85
5, 228722, Note_off_c, 3, 66, 64
5, 228754, Control_c, 3, 11, 90
5, 228794, Control_c, 3, 11, 84
5, 228833, Control_c, 3, 11, 78
5, 228858, Note_off_c, 3, 68, 64
5, 228906, Control_c, 3, 11, 100
5, 229438, Note_on_c, 3, 68, 118
5, 229552, Note_off_c, 3, 68, 64
5, 229552, Note_on_c, 3, 66, 88
5, 229668, Control_c, 3, 11, 96
5, 229672, Note_on_c, 3, 68, 87
5, 229679, Note_off_c, 3, 66, 64
5, 229708, Control_c, 3, 11, 90
5, 229749, Control_c, 3, 11, 85
5, 229789, Control_c, 3, 11, 79
5, 229797, Note_off_c, 3, 68, 64
5, 229829, Control_c, 3, 11, 74
5, 229878, Control_c, 3, 11, 100
5, 230352, Control_c, 3, 11, 84
5, 230398, Note_on_c, 3, 66, 115
5, 230398, Control_c, 3, 11, 91
5, 230444, Control_c, 3, 11, 99
5, 230478, Control_c, 3, 11, 104
5, 230522, Control_c, 3, 11, 98
5, 230541, Note_off_c, 3, 66, 64
5, 230566, Control_c, 3, 11, 92
5, 230609, Control_c, 3, 11, 86
5, 230634, Control_c, 3, 11, 100
5, 231605, Note_on_c, 3, 66, 116
5, 231695, Note_off_c, 3, 66, 64
5, 231718, Note_on_c, 3, 65, 104
5, 231808, Note_off_c, 3, 65, 64
5, 231831, Note_on_c, 3, 66, 90
5, 231981, Note_off_c, 3, 66, 64
5, 232077, Note_on_c, 3, 69, 116
5, 232143, Note_off_c, 3, 69, 64
5, 232266, Control_c, 3, 11, 90
5, 232303, Control_c, 3, 11, 95
5, 232320, Note_on_c, 3, 71, 116
5, 232341, Control_c, 3, 11, 101
5, 232378, Control_c, 3, 11, 107
5, 232415, Control_c, 3, 11, 114
5, 232446, Control_c, 3, 11, 110
5, 232495, Note_off_c, 3, 71, 64
5, 232500, Control_c, 3, 11, 96
5, 232553, Control_c, 3, 11, 82
5, 232596, Control_c, 3, 11, 100
5, 233525, Note_on_c, 3, 64, 116
5, 233615, Note_off_c, 3, 64, 64
5, 233638, Note_on_c, 3, 63, 94
5, 233728, Note_off_c, 3, 63, 64
5, 233755, Note_on_c, 3, 64, 90
5, 233905, Note_off_c, 3, 64, 64
5, 233995, Note_on_c, 3, 68, 116
5, 234069, Note_off_c, 3, 68, 64
5, 234222, Control_c, 3, 11, 88
5, 234240, Note_on_c, 3, 69, 116
5, 234261, Control_c, 3, 11, 94
5, 234300, Control_c, 3, 11, 100
5, 234339, Control_c, 3, 11, 107
5, 234377, Control_c, 3, 11, 114
5, 234402, Control_c, 3, 11, 106
5, 234442, Control_c, 3, 11, 98
5, 234482, Control_c, 3, 11, 91
5, 234499, Note_off_c, 3, 69, 64
5, 234521, Control_c, 3, 11, 84
5, 234588, Control_c, 3, 11, 100
5, 235445, Note_on_c, 3, 62, 116
5, 235535, Note_off_c, 3, 62, 64
5, 235558, Note_on_c, 3, 61, 90
5, 235648, Note_off_c, 3, 61, 64
5, 235675, Note_on_c, 3, 62, 76
5, 235825, Note_off_c, 3, 62, 64
5, 235919, Note_on_c, 3, 66, 116
5, 235986, Note_off_c, 3, 66, 64
5, 236118, Control_c, 3, 11, 90
5, 236160, Note_on_c, 3, 61, 106
5, 236160, Control_c, 3, 11, 98
5, 236202, Control_c, 3, 11, 107
5, 236243, Control_c, 3, 11, 116
5, 236268, Control_c, 3, 11, 104
5, 236310, Note_off_c, 3, 61, 64
5, 236313, Control_c, 3, 11, 95
5, 236357, Control_c, 3, 11, 86
5, 236376, Control_c, 3, 11, 100
5, 236405, Note_on_c, 3, 71, 92
5, 236495, Note_off_c, 3, 71, 64
5, 236517, Note_on_c, 3, 69, 65
5, 236607, Note_off_c, 3, 69, 64
5, 236628, Control_c, 3, 11, 96
5, 236632, Note_on_c, 3, 71, 65
5, 236674, Control_c, 3, 11, 90
5, 236720, Control_c, 3, 11, 85
5, 236765, Control_c, 3, 11, 80
5, 236782, Note_off_c, 3, 71, 64
5, 236868, Control_c, 3, 11, 100
5, 237365, Note_on_c, 3, 77, 97
5, 237455, Note_off_c, 3, 77, 64
5, 237478, Note_on_c, 3, 75, 77
5, 237568, Note_off_c, 3, 75, 64
5, 237598, Note_on_c, 3, 73, 65
5, 237606, Control_c, 3, 11, 96
5, 237649, Control_c, 3, 11, 90
5, 237693, Control_c, 3, 11, 85
5, 237736, Control_c, 3, 11, 79
5, 237748, Note_off_c, 3, 73, 64
5, 237779, Control_c, 3, 11, 74
5, 237870, Control_c, 3, 11, 100
5, 238325, Note_on_c, 3, 80, 96
5, 238415, Note_off_c, 3, 80, 64
5, 238438, Note_on_c, 3, 78, 85
5, 238528, Note_off_c, 3, 78, 64
5, 238548, Note_on_c, 3, 77, 67
5, 238560, Control_c, 3, 11, 94
5, 238602, Control_c, 3, 11, 88
5, 238644, Control_c, 3, 11, 82
5, 238686, Control_c, 3, 11, 76
5, 238698, Note_off_c, 3, 77, 64
5, 238727, Control_c, 3, 11, 70
5, 238824, Control_c, 3, 11, 100
5, 239285, Note_on_c, 3, 78, 97
5, 239375, Note_off_c, 3, 78, 64
5, 239397, Note_on_c, 3, 77, 74
5, 239487, Note_off_c, 3, 77, 64
5, 239508, Note_on_c, 3, 78, 65
5, 239514, Control_c, 3, 11, 96
5, 239557, Control_c, 3, 11, 89
5, 239601, Control_c, 3, 11, 82
5, 239644, Control_c, 3, 11, 75
5, 239658, Note_off_c, 3, 78, 64
5, 239687, Control_c, 3, 11, 68
5, 239742, Control_c, 3, 11, 100
5, 240245, Note_on_c, 3, 77, 97
5, 240335, Note_off_c, 3, 77, 64
5, 240357, Note_on_c, 3, 75, 66
5, 240447, Note_off_c, 3, 75, 64
5, 240461, Note_on_c, 3, 73, 65
5, 240468, Control_c, 3, 11, 98
5, 240510, Control_c, 3, 11, 93
5, 240552, Control_c, 3, 11, 88
5, 240594, Control_c, 3, 11, 83
5, 240611, Note_off_c, 3, 73, 64
5, 240635, Control_c, 3, 11, 78
5, 240714, Control_c, 3, 11, 100
5, 241205, Note_on_c, 3, 71, 92
5, 241295, Note_off_c, 3, 71, 64
5, 241317, Note_on_c, 3, 69, 71
5, 241407, Note_off_c, 3, 69, 64
5, 241421, Note_on_c, 3, 68, 65
5, 241428, Control_c, 3, 11, 96
5, 241468, Control_c, 3, 11, 90
5, 241508, Control_c, 3, 11, 84
5, 241547, Control_c, 3, 11, 78
5, 241571, Note_off_c, 3, 68, 64
5, 241626, Control_c, 3, 11, 100
5, 258485, Note_on_c, 3, 61, 64
5, 258575, Note_off_c, 3, 61, 64
5, 258597, Note_on_c, 3, 59, 43
5, 258687, Note_off_c, 3, 59, 64
5, 258710, Note_on_c, 3, 61, 43
5, 258726, Control_c, 3, 11, 98
5, 258770, Control_c, 3, 11, 92
5, 258814, Control_c, 3, 11, 86
5, 258857, Control_c, 3, 11, 80
5, 258860, Note_off_c, 3, 61, 64
5, 258930, Control_c, 3, 11, 100
5, 258965, Note_on_c, 3, 66, 63
5, 259055, Note_off_c, 3, 66, 64
5, 259077, Note_on_c, 3, 65, 54
5, 259167, Note_off_c, 3, 65, 64
5, 259191, Note_on_c, 3, 66, 49
5, 259200, Control_c, 3, 11, 96
5, 259240, Control_c, 3, 11, 90
5, 259281, Control_c, 3, 11, 84
5, 259321, Control_c, 3, 11, 78
5, 259341, Note_off_c, 3, 66, 64
5, 259361, Control_c, 3, 11, 72
5, 259380, Control_c, 3, 11, 100
5, 259445, Note_on_c, 3, 70, 65
5, 259535, Note_off_c, 3, 70, 64
5, 259558, Note_on_c, 3, 68, 52
5, 259648, Note_off_c, 3, 68, 64
5, 259670, Note_on_c, 3, 70, 63
5, 259686, Control_c, 3, 11, 94
5, 259723, Control_c, 3, 11, 90
5, 259761, Control_c, 3, 11, 86
5, 259798, Control_c, 3, 11, 82
5, 259820, Note_off_c, 3, 70, 64
5, 259835, Control_c, 3, 11, 78
5, 259860, Control_c, 3, 11, 100
5, 259925, Note_on_c, 3, 73, 64
5, 260015, Note_off_c, 3, 73, 64
5, 260038, Note_on_c, 3, 71, 52
5, 260128, Note_off_c, 3, 71, 64
5, 260157, Note_on_c, 3, 73, 56
5, 260307, Note_off_c, 3, 73, 64
5, 260879, Note_on_c, 3, 66, 85
5, 260977, Note_off_c, 3, 66, 64
5, 261114, Note_on_c, 3, 70, 85
5, 261350, Note_off_c, 3, 70, 64
5, 261365, Note_on_c, 3, 68, 79
5, 261455, Note_off_c, 3, 68, 64
5, 261478, Note_on_c, 3, 66, 77
5, 261568, Note_off_c, 3, 66, 64
5, 261593, Note_on_c, 3, 65, 67
5, 261681, Note_off_c, 3, 65, 64
5, 261713, Note_on_c, 3, 63, 77
5, 261801, Note_off_c, 3, 63, 64
5, 261832, Note_on_c, 3, 61, 77
5, 261922, Note_off_c, 3, 61, 64
5, 261952, Note_on_c, 3, 59, 72
5, 262032, Note_off_c, 3, 59, 64
5, 262077, Note_on_c, 3, 58, 93
5, 262203, Note_off_c, 3, 58, 64
5, 266880, End_track
6, 0, Start_track
6, 0, Instrument_name_t, "SC88-A"
6, 0, Title_t, "Viola.1"
6, 1440, Control_c, 4, 101, 0
6, 1450, Control_c, 4, 100, 0
6, 1450, Control_c, 4, 6, 0
6, 1470, Control_c, 4, 0, 0
6, 1480, Control_c, 4, 32, 1
6, 1490, Program_c, 4, 41
6, 1500, Control_c, 4, 10, 59
6, 1510, Control_c, 4, 11, 100
6, 1520, Control_c, 4, 7, 120
6, 1530, Control_c, 4, 93, 0
6, 1540, Control_c, 4, 91, 0
6, 1550, Pitch_bend_c, 4, 8192
6, 1560, Control_c, 4, 1, 0
6, 1570, Control_c, 4, 64, 0
6, 1580, Control_c, 4, 91, 64
6, 1590, Control_c, 4, 99, 1
6, 1600, Control_c, 4, 98, 32
6, 1610, Control_c, 4, 6, 75
6, 1620, Control_c, 4, 98, 33
6, 1630, Control_c, 4, 6, 60
6, 1640, Control_c, 4, 98, 99
6, 1650, Control_c, 4, 6, 64
6, 1660, Control_c, 4, 98, 100
6, 1670, Control_c, 4, 6, 64
6, 1680, Control_c, 4, 98, 102
6, 1690, Control_c, 4, 6, 64
6, 3600, Note_on_c, 4, 54, 93
6, 3701, Note_off_c, 4, 54, 64
6, 3846, Note_on_c, 4, 58, 108
6, 3994, Note_off_c, 4, 58, 64
6, 4076, Note_on_c, 4, 61, 93
6, 4176, Note_off_c, 4, 61, 64
6, 4318, Note_on_c, 4, 58, 78
6, 4396, Note_off_c, 4, 58, 64
6, 4553, Note_on_c, 4, 54, 103
6, 4646, Note_off_c, 4, 54, 64
6, 4803, Note_on_c, 4, 58, 95
6, 4955, Note_off_c, 4, 58, 64
6, 5033, Note_on_c, 4, 61, 93
6, 5121, Note_off_c, 4, 61, 64
6, 5281, Note_on_c, 4, 58, 81
6, 5365, Note_off_c, 4, 58, 64
6, 5514, Note_on_c, 4, 54, 108
6, 5637, Note_off_c, 4, 54, 64
6, 5758, Note_on_c, 4, 58, 99
6, 5917, Note_off_c, 4, 58, 64
6, 5998, Note_on_c, 4, 61, 108
6, 6098, Note_off_c, 4, 61, 64
6, 6239, Note_on_c, 4, 66, 108
6, 6326, Note_off_c, 4, 66, 64
6, 6358, Note_on_c, 4, 70, 105
6, 6464, Note_off_c, 4, 70, 64
6, 6473, Note_on_c, 4, 68, 93
6, 6565, Note_off_c, 4, 68, 64
6, 6580, Note_on_c, 4, 66, 91
6, 6655, Note_off_c, 4, 66, 64
6, 6713, Note_on_c, 4, 65, 74
6, 6833, Note_off_c, 4, 65, 64
6, 6962, Note_on_c, 4, 61, 69
6, 7073, Note_off_c, 4, 61, 64
6, 7432, Note_on_c, 4, 70, 93
6, 7522, Note_off_c, 4, 70, 64
6, 7680, Note_on_c, 4, 65, 95
6, 7781, Note_off_c, 4, 65, 64
6, 7915, Note_on_c, 4, 61, 93
6, 8030, Note_off_c, 4, 61, 64
6, 8395, Note_on_c, 4, 66, 96
6, 8479, Note_off_c, 4, 66, 64
6, 8634, Note_on_c, 4, 65, 102
6, 8758, Note_off_c, 4, 65, 64
6, 8873, Note_on_c, 4, 61, 93
6, 8986, Note_off_c, 4, 61, 64
6, 9354, Note_on_c, 4, 68, 93
6, 9440, Note_off_c, 4, 68, 64
6, 9585, Control_c, 4, 11, 94
6, 9592, Note_on_c, 4, 61, 102
6, 9640, Control_c, 4, 11, 103
6, 9694, Control_c, 4, 11, 114
6, 9735, Control_c, 4, 11, 106
6, 9775, Control_c, 4, 11, 92
6, 9788, Note_off_c, 4, 61, 64
6, 9820, Control_c, 4, 11, 100
6, 9844, Note_on_c, 4, 59, 110
6, 9934, Note_off_c, 4, 59, 64
6, 9957, Note_on_c, 4, 58, 85
6, 10047, Note_off_c, 4, 58, 64
6, 10070, Control_c, 4, 11, 92
6, 10079, Note_on_c, 4, 59, 102
6, 10122, Control_c, 4, 11, 103
6, 10174, Control_c, 4, 11, 116
6, 10215, Control_c, 4, 11, 104
6, 10250, Control_c, 4, 11, 88
6, 10274, Note_off_c, 4, 59, 64
6, 10295, Control_c, 4, 11, 100
6, 10324, Note_on_c, 4, 58, 100
6, 10414, Note_off_c, 4, 58, 64
6, 10437, Note_on_c, 4, 56, 78
6, 10527, Note_off_c, 4, 56, 64
6, 10553, Note_on_c, 4, 54, 85
6, 10762, Note_off_c, 4, 54, 64
6, 10791, Note_on_c, 4, 66, 76
6, 10888, Note_off_c, 4, 66, 64
6, 11035, Note_on_c, 4, 66, 93
6, 11134, Note_off_c, 4, 66, 64
6, 11273, Note_on_c, 4, 54, 93
6, 11371, Note_off_c, 4, 54, 64
6, 11515, Note_on_c, 4, 54, 93
6, 11709, Note_off_c, 4, 54, 64
6, 11756, Note_on_c, 4, 66, 76
6, 11857, Note_off_c, 4, 66, 64
6, 11996, Note_on_c, 4, 66, 93
6, 12095, Note_off_c, 4, 66, 64
6, 12235, Note_on_c, 4, 54, 93
6, 12350, Note_off_c, 4, 54, 64
6, 12473, Note_on_c, 4, 54, 96
6, 12677, Note_off_c, 4, 54, 64
6, 12724, Note_on_c, 4, 66, 76
6, 12837, Note_off_c, 4, 66, 64
6, 12962, Note_on_c, 4, 66, 93
6, 13069, Note_off_c, 4, 66, 64
6, 13199, Note_on_c, 4, 54, 93
6, 13301, Note_off_c, 4, 54, 64
6, 13433, Note_on_c, 4, 54, 97
6, 13631, Note_off_c, 4, 54, 64
6, 13674, Note_on_c, 4, 66, 88
6, 13794, Note_off_c, 4, 66, 64
6, 13912, Note_on_c, 4, 65, 83
6, 14018, Note_off_c, 4, 65, 64
6, 14155, Note_on_c, 4, 66, 93
6, 14278, Note_off_c, 4, 66, 64
6, 14395, Note_on_c, 4, 68, 93
6, 14503, Note_off_c, 4, 68, 64
6, 14633, Note_on_c, 4, 70, 106
6, 14747, Note_off_c, 4, 70, 64
6, 14868, Note_on_c, 4, 71, 97
6, 15000, Note_off_c, 4, 71, 64
6, 15113, Note_on_c, 4, 73, 99
6, 15245, Note_off_c, 4, 73, 64
6, 15335, Control_c, 4, 11, 90
6, 15356, Note_on_c, 4, 70, 110
6, 15372, Control_c, 4, 11, 96
6, 15410, Control_c, 4, 11, 102
6, 15447, Control_c, 4, 11, 109
6, 15484, Control_c, 4, 11, 116
6, 15525, Control_c, 4, 11, 98
6, 15565, Control_c, 4, 11, 80
6, 15571, Note_off_c, 4, 70, 64
6, 15595, Control_c, 4, 11, 100
6, 15604, Note_on_c, 4, 68, 93
6, 15694, Note_off_c, 4, 68, 64
6, 15716, Note_on_c, 4, 66, 93
6, 15806, Note_off_c, 4, 66, 64
6, 15836, Note_on_c, 4, 61, 99
6, 15927, Note_off_c, 4, 61, 64
6, 16073, Note_on_c, 4, 65, 105
6, 16152, Note_off_c, 4, 65, 64
6, 16290, Control_c, 4, 11, 92
6, 16308, Note_on_c, 4, 66, 125
6, 16322, Control_c, 4, 11, 97
6, 16355, Control_c, 4, 11, 103
6, 16387, Control_c, 4, 11, 109
6, 16419, Control_c, 4, 11, 116
6, 16450, Control_c, 4, 11, 104
6, 16485, Control_c, 4, 11, 92
6, 16520, Control_c, 4, 11, 80
6, 16533, Note_off_c, 4, 66, 64
6, 16550, Control_c, 4, 11, 100
6, 16564, Note_on_c, 4, 65, 125
6, 16663, Note_off_c, 4, 65, 64
6, 16677, Note_on_c, 4, 63, 90
6, 16776, Note_off_c, 4, 63, 64
6, 16806, Note_on_c, 4, 61, 97
6, 16901, Note_off_c, 4, 61, 64
6, 16916, Note_on_c, 4, 59, 90
6, 17000, Note_off_c, 4, 59, 64
6, 17030, Note_on_c, 4, 58, 104
6, 17120, Note_off_c, 4, 58, 64
6, 17148, Note_on_c, 4, 56, 97
6, 17221, Note_off_c, 4, 56, 64
6, 17260, Control_c, 4, 11, 88
6, 17270, Note_on_c, 4, 58, 112
6, 17301, Control_c, 4, 11, 95
6, 17343, Control_c, 4, 11, 102
6, 17384, Control_c, 4, 11, 110
6, 17420, Control_c, 4, 11, 94
6, 17460, Control_c, 4, 11, 84
6, 17464, Note_off_c, 4, 58, 64
6, 17495, Control_c, 4, 11, 100
6, 17516, Note_on_c, 4, 56, 90
6, 17610, Note_off_c, 4, 56, 64
6, 17618, Note_on_c, 4, 54, 90
6, 17717, Note_off_c, 4, 54, 64
6, 17757, Note_on_c, 4, 61, 104
6, 17852, Note_off_c, 4, 61, 64
6, 18000, Note_on_c, 4, 49, 96
6, 18083, Note_off_c, 4, 49, 64
6, 18220, Control_c, 4, 11, 86
6, 18235, Note_on_c, 4, 54, 92
6, 18261, Control_c, 4, 11, 95
6, 18303, Control_c, 4, 11, 104
6, 18344, Control_c, 4, 11, 114
6, 18380, Control_c, 4, 11, 98
6, 18420, Control_c, 4, 11, 84
6, 18455, Note_off_c, 4, 54, 64
6, 18465, Control_c, 4, 11, 100
6, 18482, Note_on_c, 4, 61, 104
6, 18542, Note_off_c, 4, 61, 64
6, 18700, Control_c, 4, 11, 70
6, 18730, Note_on_c, 4, 66, 94
6, 18746, Control_c, 4, 11, 81
6, 18792, Control_c, 4, 11, 92
6, 18838, Control_c, 4, 11, 104
6, 18884, Control_c, 4, 11, 116
6, 18925, Control_c, 4, 11, 98
6, 18965, Control_c, 4, 11, 84
6, 18975, Note_off_c, 4, 66, 64
6, 19000, Control_c, 4, 11, 70
6, 19035, Control_c, 4, 11, 100
6, 19924, Note_on_c, 4, 70, 115
6, 20014, Note_off_c, 4, 70, 64
6, 20036, Note_on_c, 4, 68, 78
6, 20126, Note_off_c, 4, 68, 64
6, 20150, Note_on_c, 4, 70, 64
6, 20160, Control_c, 4, 11, 96
6, 20203, Control_c, 4, 11, 89
6, 20246, Control_c, 4, 11, 82
6, 20289, Control_c, 4, 11, 76
6, 20308, Note_off_c, 4, 70, 64
6, 20360, Control_c, 4, 11, 100
6, 20404, Note_on_c, 4, 66, 115
6, 20494, Note_off_c, 4, 66, 64
6, 20517, Note_on_c, 4, 65, 72
6, 20607, Note_off_c, 4, 65, 64
6, 20634, Note_on_c, 4, 66, 70
6, 20645, Control_c, 4, 11, 94
6, 20693, Control_c, 4, 11, 87
6, 20741, Control_c, 4, 11, 80
6, 20784, Note_off_c, 4, 66, 64
6, 20789, Control_c, 4, 11, 74
6, 20870, Control_c, 4, 11, 100
6, 21364, Note_on_c, 4, 58, 114
6, 21454, Note_off_c, 4, 58, 64
6, 21477, Note_on_c, 4, 59, 85
6, 21567, Note_off_c, 4, 59, 64
6, 21591, Note_on_c, 4, 61, 85
6, 21723, Note_off_c, 4, 61, 64
6, 21842, Note_on_c, 4, 63, 93
6, 21939, Note_off_c, 4, 63, 64
6, 22089, Note_on_c, 4, 56, 80
6, 22205, Note_off_c, 4, 56, 64
6, 22322, Note_on_c, 4, 73, 74
6, 22412, Note_off_c, 4, 73, 64
6, 22435, Note_on_c, 4, 72, 54
6, 22525, Note_off_c, 4, 72, 64
6, 22552, Note_on_c, 4, 73, 58
6, 22560, Control_c, 4, 11, 96
6, 22598, Control_c, 4, 11, 89
6, 22636, Control_c, 4, 11, 82
6, 22674, Control_c, 4, 11, 76
6, 22702, Note_off_c, 4, 73, 64
6, 22760, Control_c, 4, 11, 100
6, 23282, Note_on_c, 4, 73, 87
6, 23372, Note_off_c, 4, 73, 64
6, 23395, Note_on_c, 4, 72, 50
6, 23485, Note_off_c, 4, 72, 64
6, 23515, Control_c, 4, 11, 94
6, 23516, Note_on_c, 4, 73, 57
6, 23561, Control_c, 4, 11, 88
6, 23608, Control_c, 4, 11, 83
6, 23654, Control_c, 4, 11, 78
6, 23666, Note_off_c, 4, 73, 64
6, 23745, Control_c, 4, 11, 100
6, 24242, Note_on_c, 4, 73, 77
6, 24332, Note_off_c, 4, 73, 64
6, 24355, Note_on_c, 4, 72, 50
6, 24445, Note_off_c, 4, 72, 64
6, 24475, Control_c, 4, 11, 94
6, 24482, Note_on_c, 4, 73, 57
6, 24516, Control_c, 4, 11, 88
6, 24558, Control_c, 4, 11, 83
6, 24599, Control_c, 4, 11, 78
6, 24632, Note_off_c, 4, 73, 64
6, 24685, Control_c, 4, 11, 100
6, 24716, Note_on_c, 4, 68, 98
6, 24806, Note_off_c, 4, 68, 64
6, 24940, Control_c, 4, 11, 84
6, 24958, Note_on_c, 4, 68, 107
6, 24983, Control_c, 4, 11, 92
6, 25026, Control_c, 4, 11, 101
6, 25069, Control_c, 4, 11, 110
6, 25100, Control_c, 4, 11, 98
6, 25150, Control_c, 4, 11, 84
6, 25171, Note_off_c, 4, 68, 64
6, 25190, Control_c, 4, 11, 100
6, 25209, Note_on_c, 4, 66, 114
6, 25299, Note_off_c, 4, 66, 64
6, 25317, Note_on_c, 4, 65, 72
6, 25407, Note_off_c, 4, 65, 64
6, 25415, Control_c, 4, 11, 84
6, 25442, Note_on_c, 4, 66, 103
6, 25453, Control_c, 4, 11, 92
6, 25491, Control_c, 4, 11, 101
6, 25529, Control_c, 4, 11, 110
6, 25570, Control_c, 4, 11, 98
6, 25610, Control_c, 4, 11, 82
6, 25634, Note_off_c, 4, 66, 64
6, 25655, Control_c, 4, 11, 100
6, 25684, Note_on_c, 4, 65, 99
6, 25774, Note_off_c, 4, 65, 64
6, 25796, Note_on_c, 4, 63, 85
6, 25886, Note_off_c, 4, 63, 64
6, 25915, Note_on_c, 4, 61, 92
6, 25935, Control_c, 4, 11, 94
6, 25981, Control_c, 4, 11, 87
6, 26028, Control_c, 4, 11, 80
6, 26074, Control_c, 4, 11, 74
6, 26096, Note_off_c, 4, 61, 64
6, 26125, Control_c, 4, 11, 100
6, 26160, Note_on_c, 4, 73, 85
6, 26232, Note_off_c, 4, 73, 64
6, 26398, Note_on_c, 4, 73, 97
6, 26400, Control_c, 4, 11, 94
6, 26438, Control_c, 4, 11, 86
6, 26476, Control_c, 4, 11, 79
6, 26514, Control_c, 4, 11, 72
6, 26522, Note_off_c, 4, 73, 64
6, 26620, Control_c, 4, 11, 96
6, 26642, Note_on_c, 4, 61, 85
6, 26740, Note_off_c, 4, 61, 64
6, 26879, Note_on_c, 4, 61, 106
6, 27048, Note_off_c, 4, 61, 64
6, 27114, Note_on_c, 4, 73, 85
6, 27188, Note_off_c, 4, 73, 64
6, 27350, Note_on_c, 4, 73, 92
6, 27360, Control_c, 4, 11, 94
6, 27405, Control_c, 4, 11, 85
6, 27449, Control_c, 4, 11, 76
6, 27474, Note_off_c, 4, 73, 64
6, 27520, Control_c, 4, 11, 100
6, 27591, Note_on_c, 4, 61, 89
6, 27684, Note_off_c, 4, 61, 64
6, 27839, Note_on_c, 4, 61, 101
6, 28027, Note_off_c, 4, 61, 64
6, 28076, Note_on_c, 4, 73, 85
6, 28156, Note_off_c, 4, 73, 64
6, 28315, Note_on_c, 4, 73, 96
6, 28325, Control_c, 4, 11, 96
6, 28363, Control_c, 4, 11, 89
6, 28401, Control_c, 4, 11, 82
6, 28439, Control_c, 4, 11, 76
6, 28466, Note_off_c, 4, 73, 64
6, 28525, Control_c, 4, 11, 100
6, 28557, Note_on_c, 4, 61, 85
6, 28659, Note_off_c, 4, 61, 64
6, 28798, Note_on_c, 4, 61, 101
6, 28926, Note_off_c, 4, 61, 64
6, 29035, Note_on_c, 4, 73, 97
6, 29150, Note_off_c, 4, 73, 64
6, 29275, Note_on_c, 4, 72, 86
6, 29440, Note_off_c, 4, 72, 64
6, 29515, Note_on_c, 4, 70, 85
6, 29645, Note_off_c, 4, 70, 64
6, 29761, Note_on_c, 4, 68, 91
6, 29906, Note_off_c, 4, 68, 64
6, 30003, Note_on_c, 4, 61, 103
6, 30131, Note_off_c, 4, 61, 64
6, 30240, Note_on_c, 4, 60, 82
6, 30381, Note_off_c, 4, 60, 64
6, 30476, Note_on_c, 4, 63, 88
6, 30566, Note_off_c, 4, 63, 64
6, 30685, Control_c, 4, 11, 88
6, 30720, Note_on_c, 4, 61, 103
6, 30733, Control_c, 4, 11, 95
6, 30781, Control_c, 4, 11, 103
6, 30829, Control_c, 4, 11, 112
6, 30860, Control_c, 4, 11, 98
6, 30905, Control_c, 4, 11, 84
6, 30922, Note_off_c, 4, 61, 64
6, 30950, Control_c, 4, 11, 100
6, 30967, Note_on_c, 4, 63, 91
6, 31057, Note_off_c, 4, 63, 64
6, 31074, Note_on_c, 4, 65, 79
6, 31164, Note_off_c, 4, 65, 64
6, 31189, Note_on_c, 4, 63, 96
6, 31305, Note_off_c, 4, 63, 64
6, 31437, Note_on_c, 4, 68, 98
6, 31530, Note_off_c, 4, 68, 64
6, 31650, Control_c, 4, 11, 78
6, 31686, Note_on_c, 4, 65, 83
6, 31689, Control_c, 4, 11, 84
6, 31728, Control_c, 4, 11, 91
6, 31767, Control_c, 4, 11, 98
6, 31806, Control_c, 4, 11, 105
6, 31845, Control_c, 4, 11, 112
6, 31884, Control_c, 4, 11, 120
6, 31925, Control_c, 4, 11, 110
6, 31970, Control_c, 4, 11, 98
6, 32015, Control_c, 4, 11, 86
6, 32035, Note_off_c, 4, 65, 64
6, 32055, Control_c, 4, 11, 74
6, 32110, Control_c, 4, 11, 100
6, 33362, Note_on_c, 4, 70, 111
6, 33452, Note_off_c, 4, 70, 64
6, 33475, Note_on_c, 4, 68, 80
6, 33565, Note_off_c, 4, 68, 64
6, 33589, Note_on_c, 4, 70, 79
6, 33605, Control_c, 4, 11, 96
6, 33650, Control_c, 4, 11, 91
6, 33695, Control_c, 4, 11, 86
6, 33739, Control_c, 4, 11, 82
6, 33763, Note_off_c, 4, 70, 64
6, 33820, Control_c, 4, 11, 100
6, 33842, Note_on_c, 4, 66, 111
6, 33932, Note_off_c, 4, 66, 64
6, 33954, Note_on_c, 4, 65, 67
6, 34044, Note_off_c, 4, 65, 64
6, 34072, Note_on_c, 4, 66, 73
6, 34090, Control_c, 4, 11, 96
6, 34133, Control_c, 4, 11, 89
6, 34176, Control_c, 4, 11, 82
6, 34219, Control_c, 4, 11, 76
6, 34234, Note_off_c, 4, 66, 64
6, 34335, Control_c, 4, 11, 100
6, 34793, Note_on_c, 4, 61, 123
6, 34906, Note_off_c, 4, 61, 64
6, 35036, Note_on_c, 4, 66, 123
6, 35137, Note_off_c, 4, 66, 64
6, 35154, Note_on_c, 4, 70, 115
6, 35252, Note_off_c, 4, 70, 64
6, 35273, Note_on_c, 4, 68, 112
6, 35373, Note_off_c, 4, 68, 64
6, 35386, Note_on_c, 4, 66, 91
6, 35488, Note_off_c, 4, 66, 64
6, 35518, Note_on_c, 4, 65, 104
6, 35617, Note_off_c, 4, 65, 64
6, 35641, Note_on_c, 4, 68, 86
6, 35720, Note_off_c, 4, 68, 64
6, 35757, Note_on_c, 4, 61, 111
6, 35869, Note_off_c, 4, 61, 64
6, 35880, Note_on_c, 4, 63, 86
6, 35979, Note_off_c, 4, 63, 64
6, 36002, Note_on_c, 4, 65, 101
6, 36097, Note_off_c, 4, 65, 64
6, 36104, Note_on_c, 4, 66, 82
6, 36202, Note_off_c, 4, 66, 64
6, 36211, Note_on_c, 4, 68, 81
6, 36316, Note_off_c, 4, 68, 64
6, 36325, Note_on_c, 4, 66, 101
6, 36444, Note_off_c, 4, 66, 64
6, 36460, Note_on_c, 4, 65, 71
6, 36480, Control_c, 4, 11, 94
6, 36523, Control_c, 4, 11, 87
6, 36566, Control_c, 4, 11, 80
6, 36609, Control_c, 4, 11, 74
6, 36640, Note_off_c, 4, 65, 64
6, 36680, Control_c, 4, 11, 100
6, 36718, Note_on_c, 4, 73, 106
6, 36765, Control_c, 4, 11, 94
6, 36803, Control_c, 4, 11, 87
6, 36841, Control_c, 4, 11, 80
6, 36879, Note_off_c, 4, 73, 64
6, 36879, Control_c, 4, 11, 74
6, 36965, Control_c, 4, 11, 100
6, 37196, Note_on_c, 4, 72, 83
6, 37325, Note_off_c, 4, 72, 64
6, 37436, Note_on_c, 4, 73, 82
6, 37440, Control_c, 4, 11, 94
6, 37485, Control_c, 4, 11, 85
6, 37530, Control_c, 4, 11, 76
6, 37574, Control_c, 4, 11, 68
6, 37595, Note_off_c, 4, 73, 64
6, 37645, Control_c, 4, 11, 100
6, 37676, Note_on_c, 4, 68, 74
6, 37784, Note_off_c, 4, 68, 64
6, 37909, Note_on_c, 4, 61, 74
6, 38030, Note_off_c, 4, 61, 64
6, 38161, Note_on_c, 4, 73, 127
6, 38251, Note_off_c, 4, 73, 64
6, 38264, Note_on_c, 4, 72, 78
6, 38354, Note_off_c, 4, 72, 64
6, 38386, Note_on_c, 4, 73, 82
6, 38400, Control_c, 4, 11, 94
6, 38445, Control_c, 4, 11, 87
6, 38490, Control_c, 4, 11, 80
6, 38534, Control_c, 4, 11, 74
6, 38554, Note_off_c, 4, 73, 64
6, 38590, Control_c, 4, 11, 100
6, 38642, Note_on_c, 4, 68, 127
6, 38732, Note_off_c, 4, 68, 64
6, 38755, Note_on_c, 4, 66, 85
6, 38845, Note_off_c, 4, 66, 64
6, 38867, Note_on_c, 4, 68, 85
6, 38875, Control_c, 4, 11, 96
6, 38916, Control_c, 4, 11, 89
6, 38958, Control_c, 4, 11, 82
6, 38999, Control_c, 4, 11, 76
6, 39017, Note_off_c, 4, 68, 64
6, 39085, Control_c, 4, 11, 100
6, 39122, Note_on_c, 4, 73, 127
6, 39212, Note_off_c, 4, 73, 64
6, 39235, Note_on_c, 4, 72, 74
6, 39325, Note_off_c, 4, 72, 64
6, 39348, Note_on_c, 4, 73, 82
6, 39355, Control_c, 4, 11, 94
6, 39392, Control_c, 4, 11, 88
6, 39430, Control_c, 4, 11, 83
6, 39467, Control_c, 4, 11, 77
6, 39504, Control_c, 4, 11, 72
6, 39516, Note_off_c, 4, 73, 64
6, 39565, Control_c, 4, 11, 100
6, 39602, Note_on_c, 4, 65, 127
6, 39692, Note_off_c, 4, 65, 64
6, 39715, Note_on_c, 4, 63, 85
6, 39805, Note_off_c, 4, 63, 64
6, 39828, Note_on_c, 4, 65, 72
6, 39830, Control_c, 4, 11, 94
6, 39871, Control_c, 4, 11, 88
6, 39913, Control_c, 4, 11, 82
6, 39954, Control_c, 4, 11, 76
6, 39978, Note_off_c, 4, 65, 64
6, 40020, Control_c, 4, 11, 100
6, 40081, Note_on_c, 4, 73, 127
6, 40171, Note_off_c, 4, 73, 64
6, 40194, Note_on_c, 4, 72, 76
6, 40284, Note_off_c, 4, 72, 64
6, 40305, Note_on_c, 4, 73, 114
6, 40315, Control_c, 4, 11, 94
6, 40353, Control_c, 4, 11, 88
6, 40391, Control_c, 4, 11, 82
6, 40429, Control_c, 4, 11, 76
6, 40455, Note_off_c, 4, 73, 64
6, 40485, Control_c, 4, 11, 100
6, 40564, Note_on_c, 4, 61, 120
6, 40654, Note_off_c, 4, 61, 64
6, 40676, Note_on_c, 4, 63, 76
6, 40766, Note_off_c, 4, 63, 64
6, 40783, Note_on_c, 4, 65, 94
6, 40790, Control_c, 4, 11, 94
6, 40833, Control_c, 4, 11, 86
6, 40876, Control_c, 4, 11, 78
6, 40919, Control_c, 4, 11, 70
6, 40933, Note_off_c, 4, 65, 64
6, 41000, Control_c, 4, 11, 100
6, 41030, Note_on_c, 4, 67, 91
6, 41138, Note_off_c, 4, 67, 64
6, 41276, Note_on_c, 4, 68, 73
6, 41448, Note_off_c, 4, 68, 64
6, 41522, Note_on_c, 4, 72, 71
6, 41612, Note_off_c, 4, 72, 64
6, 41635, Note_on_c, 4, 70, 59
6, 41725, Note_off_c, 4, 70, 64
6, 41754, Note_on_c, 4, 68, 50
6, 41770, Control_c, 4, 11, 96
6, 41810, Control_c, 4, 11, 90
6, 41850, Control_c, 4, 11, 84
6, 41889, Control_c, 4, 11, 78
6, 41904, Note_off_c, 4, 68, 64
6, 42015, Control_c, 4, 11, 100
6, 42482, Note_on_c, 4, 70, 73
6, 42572, Note_off_c, 4, 70, 64
6, 42594, Note_on_c, 4, 68, 57
6, 42684, Note_off_c, 4, 68, 64
6, 42711, Note_on_c, 4, 70, 50
6, 42730, Control_c, 4, 11, 96
6, 42770, Control_c, 4, 11, 91
6, 42810, Control_c, 4, 11, 87
6, 42850, Control_c, 4, 11, 82
6, 42861, Note_off_c, 4, 70, 64
6, 42889, Control_c, 4, 11, 78
6, 43000, Control_c, 4, 11, 100
6, 43442, Note_on_c, 4, 70, 76
6, 43532, Note_off_c, 4, 70, 64
6, 43555, Note_on_c, 4, 68, 68
6, 43645, Note_off_c, 4, 68, 64
6, 43668, Note_on_c, 4, 70, 65
6, 43685, Control_c, 4, 11, 96
6, 43726, Control_c, 4, 11, 89
6, 43768, Control_c, 4, 11, 82
6, 43809, Control_c, 4, 11, 76
6, 43818, Note_off_c, 4, 70, 64
6, 44000, Control_c, 4, 11, 100
6, 44402, Note_on_c, 4, 73, 113
6, 44492, Note_off_c, 4, 73, 64
6, 44514, Note_on_c, 4, 72, 70
6, 44604, Note_off_c, 4, 72, 64
6, 44627, Note_on_c, 4, 73, 78
6, 44640, Control_c, 4, 11, 96
6, 44683, Control_c, 4, 11, 88
6, 44726, Control_c, 4, 11, 80
6, 44769, Control_c, 4, 11, 72
6, 44777, Note_off_c, 4, 73, 64
6, 44830, Control_c, 4, 11, 100
6, 44870, Note_on_c, 4, 73, 97
6, 44970, Note_off_c, 4, 73, 64
6, 45085, Control_c, 4, 11, 90
6, 45108, Note_on_c, 4, 73, 98
6, 45130, Control_c, 4, 11, 97
6, 45175, Control_c, 4, 11, 104
6, 45219, Control_c, 4, 11, 112
6, 45250, Control_c, 4, 11, 100
6, 45295, Control_c, 4, 11, 84
6, 45323, Note_off_c, 4, 73, 64
6, 45345, Control_c, 4, 11, 100
6, 45362, Note_on_c, 4, 72, 89
6, 45452, Note_off_c, 4, 72, 64
6, 45474, Note_on_c, 4, 70, 84
6, 45564, Note_off_c, 4, 70, 64
6, 45570, Control_c, 4, 11, 84
6, 45591, Note_on_c, 4, 72, 81
6, 45610, Control_c, 4, 11, 92
6, 45650, Control_c, 4, 11, 101
6, 45689, Control_c, 4, 11, 110
6, 45735, Control_c, 4, 11, 96
6, 45775, Control_c, 4, 11, 82
6, 45804, Note_off_c, 4, 72, 64
6, 45815, Control_c, 4, 11, 100
6, 45827, Note_on_c, 4, 73, 83
6, 45932, Note_off_c, 4, 73, 64
6, 45942, Note_on_c, 4, 68, 79
6, 46020, Note_off_c, 4, 68, 64
6, 46065, Control_c, 4, 11, 96
6, 46071, Note_on_c, 4, 61, 97
6, 46117, Control_c, 4, 11, 103
6, 46169, Control_c, 4, 11, 112
6, 46205, Control_c, 4, 11, 106
6, 46242, Control_c, 4, 11, 97
6, 46279, Control_c, 4, 11, 88
6, 46289, Note_off_c, 4, 61, 64
6, 46300, Control_c, 4, 11, 100
6, 46323, Note_on_c, 4, 63, 98
6, 46413, Note_off_c, 4, 63, 64
6, 46436, Note_on_c, 4, 65, 80
6, 46526, Note_off_c, 4, 65, 64
6, 46535, Note_on_c, 4, 66, 78
6, 46680, Note_off_c, 4, 66, 64
6, 46790, Note_on_c, 4, 66, 69
6, 46928, Note_off_c, 4, 66, 64
6, 47037, Note_on_c, 4, 65, 58
6, 47192, Note_off_c, 4, 65, 64
6, 47280, Note_on_c, 4, 65, 48
6, 47393, Note_off_c, 4, 65, 64
6, 47511, Note_on_c, 4, 65, 48
6, 47665, Note_off_c, 4, 65, 64
6, 47755, Note_on_c, 4, 66, 57
6, 47890, Note_off_c, 4, 66, 64
6, 47996, Note_on_c, 4, 68, 52
6, 48174, Note_off_c, 4, 68, 64
6, 48238, Note_on_c, 4, 68, 57
6, 48362, Note_off_c, 4, 68, 64
6, 48474, Note_on_c, 4, 68, 57
6, 48599, Note_off_c, 4, 68, 64
6, 48716, Note_on_c, 4, 70, 57
6, 48844, Note_off_c, 4, 70, 64
6, 48960, Note_on_c, 4, 61, 88
6, 49079, Note_on_c, 4, 60, 61
6, 49102, Note_off_c, 4, 61, 64
6, 49204, Note_on_c, 4, 61, 79
6, 49210, Note_off_c, 4, 60, 64
6, 49299, Note_off_c, 4, 61, 64
6, 49324, Note_on_c, 4, 63, 80
6, 49407, Note_off_c, 4, 63, 64
6, 49443, Note_on_c, 4, 61, 85
6, 49546, Note_off_c, 4, 61, 64
6, 49557, Note_on_c, 4, 65, 68
6, 49632, Note_off_c, 4, 65, 64
6, 49672, Note_on_c, 4, 61, 88
6, 49758, Note_off_c, 4, 61, 64
6, 49786, Note_on_c, 4, 66, 79
6, 49874, Note_off_c, 4, 66, 64
6, 49913, Note_on_c, 4, 61, 85
6, 50031, Note_on_c, 4, 60, 62
6, 50048, Note_off_c, 4, 61, 64
6, 50143, Note_off_c, 4, 60, 64
6, 50150, Note_on_c, 4, 61, 79
6, 50240, Note_off_c, 4, 61, 64
6, 50271, Note_on_c, 4, 63, 80
6, 50369, Note_off_c, 4, 63, 64
6, 50393, Note_on_c, 4, 61, 89
6, 50488, Note_off_c, 4, 61, 64
6, 50510, Note_on_c, 4, 68, 79
6, 50603, Note_off_c, 4, 68, 64
6, 50628, Note_on_c, 4, 61, 82
6, 50720, Note_off_c, 4, 61, 64
6, 50749, Note_on_c, 4, 70, 94
6, 50835, Note_off_c, 4, 70, 64
6, 50873, Note_on_c, 4, 71, 80
6, 50989, Note_on_c, 4, 70, 79
6, 50995, Note_off_c, 4, 71, 64
6, 51111, Note_on_c, 4, 71, 84
6, 51129, Note_off_c, 4, 70, 64
6, 51192, Note_off_c, 4, 71, 64
6, 51228, Note_on_c, 4, 73, 89
6, 51318, Note_off_c, 4, 73, 64
6, 51355, Note_on_c, 4, 71, 95
6, 51477, Note_on_c, 4, 70, 79
6, 51500, Note_off_c, 4, 71, 64
6, 51596, Note_on_c, 4, 71, 79
6, 51611, Note_off_c, 4, 70, 64
6, 51675, Note_off_c, 4, 71, 64
6, 51713, Note_on_c, 4, 68, 73
6, 51802, Note_off_c, 4, 68, 64
6, 51844, Note_on_c, 4, 70, 57
6, 52033, Note_off_c, 4, 70, 64
6, 52083, Note_on_c, 4, 70, 57
6, 52242, Note_off_c, 4, 70, 64
6, 52317, Note_on_c, 4, 70, 57
6, 52530, Note_off_c, 4, 70, 64
6, 52557, Note_on_c, 4, 71, 57
6, 52734, Note_off_c, 4, 71, 64
6, 52793, Note_on_c, 4, 73, 57
6, 52980, Note_off_c, 4, 73, 64
6, 53039, Note_on_c, 4, 73, 57
6, 53167, Note_off_c, 4, 73, 64
6, 53275, Note_on_c, 4, 73, 57
6, 53506, Note_off_c, 4, 73, 64
6, 53514, Note_on_c, 4, 75, 57
6, 53717, Note_off_c, 4, 75, 64
6, 53751, Note_on_c, 4, 73, 45
6, 53810, Control_c, 4, 11, 96
6, 53850, Control_c, 4, 11, 90
6, 53890, Control_c, 4, 11, 84
6, 53930, Control_c, 4, 11, 78
6, 53969, Control_c, 4, 11, 72
6, 53978, Note_off_c, 4, 73, 64
6, 54050, Control_c, 4, 11, 100
6, 54484, Note_on_c, 4, 54, 68
6, 54574, Note_off_c, 4, 54, 64
6, 54596, Note_on_c, 4, 53, 52
6, 54686, Note_off_c, 4, 53, 64
6, 54716, Note_on_c, 4, 54, 59
6, 54720, Control_c, 4, 11, 96
6, 54760, Control_c, 4, 11, 89
6, 54800, Control_c, 4, 11, 82
6, 54839, Control_c, 4, 11, 76
6, 54866, Note_off_c, 4, 54, 64
6, 54930, Control_c, 4, 11, 100
6, 55444, Note_on_c, 4, 54, 68
6, 55534, Note_off_c, 4, 54, 64
6, 55557, Note_on_c, 4, 53, 50
6, 55647, Note_off_c, 4, 53, 64
6, 55675, Control_c, 4, 11, 94
6, 55682, Note_on_c, 4, 54, 68
6, 55715, Control_c, 4, 11, 88
6, 55755, Control_c, 4, 11, 82
6, 55794, Control_c, 4, 11, 76
6, 55832, Note_off_c, 4, 54, 64
6, 55865, Control_c, 4, 11, 100
6, 55921, Note_on_c, 4, 54, 85
6, 56039, Note_off_c, 4, 54, 64
6, 56162, Note_on_c, 4, 54, 86
6, 56280, Note_off_c, 4, 54, 64
6, 56398, Note_on_c, 4, 58, 79
6, 56513, Note_off_c, 4, 58, 64
6, 56643, Note_on_c, 4, 54, 94
6, 56735, Note_off_c, 4, 54, 64
6, 56762, Note_on_c, 4, 58, 105
6, 56840, Note_off_c, 4, 58, 64
6, 56871, Note_on_c, 4, 59, 121
6, 56951, Note_off_c, 4, 59, 64
6, 56987, Note_on_c, 4, 61, 116
6, 57062, Note_off_c, 4, 61, 64
6, 57109, Note_on_c, 4, 63, 121
6, 57222, Note_off_c, 4, 63, 64
6, 57241, Note_on_c, 4, 61, 121
6, 57326, Note_off_c, 4, 61, 64
6, 57363, Note_on_c, 4, 63, 120
6, 57441, Note_off_c, 4, 63, 64
6, 57470, Note_on_c, 4, 64, 111
6, 57560, Note_off_c, 4, 64, 64
6, 57590, Note_on_c, 4, 66, 106
6, 57600, Control_c, 4, 11, 94
6, 57635, Control_c, 4, 11, 88
6, 57670, Control_c, 4, 11, 82
6, 57704, Control_c, 4, 11, 76
6, 57729, Note_off_c, 4, 66, 64
6, 57745, Control_c, 4, 11, 100
6, 57839, Note_on_c, 4, 66, 112
6, 57983, Note_off_c, 4, 66, 64
6, 58075, Control_c, 4, 11, 98
6, 58080, Note_on_c, 4, 66, 109
6, 58127, Control_c, 4, 11, 104
6, 58179, Control_c, 4, 11, 112
6, 58205, Control_c, 4, 11, 106
6, 58235, Control_c, 4, 11, 96
6, 58250, Control_c, 4, 11, 92
6, 58288, Note_off_c, 4, 66, 64
6, 58305, Control_c, 4, 11, 100
6, 58325, Note_on_c, 4, 64, 109
6, 58415, Note_off_c, 4, 64, 64
6, 58437, Note_on_c, 4, 63, 92
6, 58527, Note_off_c, 4, 63, 64
6, 58565, Control_c, 4, 11, 96
6, 58579, Note_on_c, 4, 64, 81
6, 58605, Control_c, 4, 11, 90
6, 58645, Control_c, 4, 11, 84
6, 58684, Control_c, 4, 11, 78
6, 58729, Note_off_c, 4, 64, 64
6, 58770, Control_c, 4, 11, 100
6, 58813, Note_on_c, 4, 64, 109
6, 58915, Note_off_c, 4, 64, 64
6, 59030, Control_c, 4, 11, 94
6, 59040, Note_on_c, 4, 64, 106
6, 59085, Control_c, 4, 11, 104
6, 59139, Control_c, 4, 11, 116
6, 59170, Control_c, 4, 11, 106
6, 59239, Control_c, 4, 11, 88
6, 59246, Note_off_c, 4, 64, 64
6, 59270, Control_c, 4, 11, 100
6, 59286, Note_on_c, 4, 63, 101
6, 59376, Note_off_c, 4, 63, 64
6, 59398, Note_on_c, 4, 61, 81
6, 59488, Note_off_c, 4, 61, 64
6, 59520, Control_c, 4, 11, 94
6, 59540, Note_on_c, 4, 63, 81
6, 59565, Control_c, 4, 11, 86
6, 59610, Control_c, 4, 11, 79
6, 59654, Control_c, 4, 11, 72
6, 59690, Note_off_c, 4, 63, 64
6, 59700, Control_c, 4, 11, 100
6, 59786, Note_on_c, 4, 63, 112
6, 59913, Note_off_c, 4, 63, 64
6, 60009, Note_on_c, 4, 63, 109
6, 60211, Note_off_c, 4, 63, 64
6, 60245, Note_on_c, 4, 61, 98
6, 60335, Note_off_c, 4, 61, 64
6, 60358, Note_on_c, 4, 59, 93
6, 60448, Note_off_c, 4, 59, 64
6, 60496, Note_on_c, 4, 58, 94
6, 60604, Note_off_c, 4, 58, 64
6, 60618, Note_on_c, 4, 54, 93
6, 60702, Note_off_c, 4, 54, 64
6, 60711, Note_on_c, 4, 58, 109
6, 60836, Note_on_c, 4, 59, 101
6, 60837, Note_off_c, 4, 58, 64
6, 60934, Note_off_c, 4, 59, 64
6, 60951, Note_on_c, 4, 61, 85
6, 61062, Note_off_c, 4, 61, 64
6, 61062, Note_on_c, 4, 63, 115
6, 61157, Note_off_c, 4, 63, 64
6, 61185, Note_on_c, 4, 64, 115
6, 61271, Note_off_c, 4, 64, 64
6, 61292, Note_on_c, 4, 66, 88
6, 61383, Note_off_c, 4, 66, 64
6, 61414, Note_on_c, 4, 68, 118
6, 61523, Note_off_c, 4, 68, 64
6, 61534, Note_on_c, 4, 70, 98
6, 61630, Note_off_c, 4, 70, 64
6, 61650, Note_on_c, 4, 71, 87
6, 61724, Note_off_c, 4, 71, 64
6, 61764, Note_on_c, 4, 73, 114
6, 61841, Note_off_c, 4, 73, 64
6, 61901, Note_on_c, 4, 71, 107
6, 61994, Note_on_c, 4, 70, 85
6, 62004, Note_off_c, 4, 71, 64
6, 62038, Note_on_c, 4, 71, 85
6, 62054, Note_off_c, 4, 70, 64
6, 62085, Note_on_c, 4, 70, 85
6, 62097, Note_off_c, 4, 71, 64
6, 62126, Note_on_c, 4, 71, 85
6, 62135, Note_off_c, 4, 70, 64
6, 62161, Note_on_c, 4, 70, 85
6, 62202, Note_off_c, 4, 71, 64
6, 62285, Note_on_c, 4, 71, 86
6, 62294, Note_off_c, 4, 70, 64
6, 62350, Note_off_c, 4, 71, 64
6, 62380, Control_c, 4, 11, 94
6, 62395, Note_on_c, 4, 71, 86
6, 62417, Control_c, 4, 11, 98
6, 62455, Control_c, 4, 11, 103
6, 62492, Control_c, 4, 11, 108
6, 62529, Control_c, 4, 11, 114
6, 62590, Control_c, 4, 11, 98
6, 62630, Control_c, 4, 11, 90
6, 62668, Note_off_c, 4, 71, 64
6, 62670, Control_c, 4, 11, 82
6, 62709, Control_c, 4, 11, 74
6, 62745, Control_c, 4, 11, 100
6, 63103, Note_on_c, 4, 59, 115
6, 63222, Note_off_c, 4, 59, 64
6, 63364, Note_on_c, 4, 63, 127
6, 63500, Note_off_c, 4, 63, 64
6, 63592, Note_on_c, 4, 66, 115
6, 63674, Note_off_c, 4, 66, 64
6, 63839, Note_on_c, 4, 63, 115
6, 63923, Note_off_c, 4, 63, 64
6, 64086, Note_on_c, 4, 59, 123
6, 64185, Note_off_c, 4, 59, 64
6, 64327, Note_on_c, 4, 63, 127
6, 64483, Note_off_c, 4, 63, 64
6, 64565, Note_on_c, 4, 66, 115
6, 64638, Note_off_c, 4, 66, 64
6, 64804, Note_on_c, 4, 63, 115
6, 64884, Note_off_c, 4, 63, 64
6, 65031, Note_on_c, 4, 59, 115
6, 65130, Note_off_c, 4, 59, 64
6, 65270, Note_on_c, 4, 66, 106
6, 65428, Note_off_c, 4, 66, 64
6, 65540, Note_on_c, 4, 66, 127
6, 65595, Note_off_c, 4, 66, 64
6, 65627, Note_on_c, 4, 66, 94
6, 65689, Note_off_c, 4, 66, 64
6, 65739, Note_on_c, 4, 66, 92
6, 65930, Note_off_c, 4, 66, 64
6, 66239, Note_on_c, 4, 66, 127
6, 66358, Note_on_c, 4, 65, 90
6, 66389, Note_off_c, 4, 66, 64
6, 66475, Note_off_c, 4, 65, 64
6, 66479, Note_on_c, 4, 66, 91
6, 66571, Note_off_c, 4, 66, 64
6, 66589, Note_on_c, 4, 68, 123
6, 66675, Note_off_c, 4, 68, 64
6, 66709, Note_on_c, 4, 66, 115
6, 66807, Note_off_c, 4, 66, 64
6, 66825, Note_on_c, 4, 70, 105
6, 66908, Note_off_c, 4, 70, 64
6, 66957, Note_on_c, 4, 68, 127
6, 67051, Note_off_c, 4, 68, 64
6, 67063, Note_on_c, 4, 71, 91
6, 67151, Note_off_c, 4, 71, 64
6, 67198, Note_on_c, 4, 70, 126
6, 67317, Note_on_c, 4, 68, 91
6, 67343, Note_off_c, 4, 70, 64
6, 67437, Note_on_c, 4, 70, 98
6, 67441, Note_off_c, 4, 68, 64
6, 67524, Note_off_c, 4, 70, 64
6, 67557, Note_on_c, 4, 71, 119
6, 67631, Note_off_c, 4, 71, 64
6, 67668, Note_on_c, 4, 70, 127
6, 67756, Note_off_c, 4, 70, 64
6, 67787, Note_on_c, 4, 73, 114
6, 67873, Note_off_c, 4, 73, 64
6, 67917, Note_on_c, 4, 71, 126
6, 68007, Note_off_c, 4, 71, 64
6, 68020, Note_on_c, 4, 75, 109
6, 68111, Note_off_c, 4, 75, 64
6, 68158, Note_on_c, 4, 73, 127
6, 68278, Note_on_c, 4, 71, 102
6, 68291, Note_off_c, 4, 73, 64
6, 68394, Note_off_c, 4, 71, 64
6, 68397, Note_on_c, 4, 73, 100
6, 68482, Note_off_c, 4, 73, 64
6, 68517, Note_on_c, 4, 75, 109
6, 68593, Note_off_c, 4, 75, 64
6, 68637, Note_on_c, 4, 73, 123
6, 68748, Note_off_c, 4, 73, 64
6, 68756, Note_on_c, 4, 75, 94
6, 68859, Note_off_c, 4, 75, 64
6, 68876, Note_on_c, 4, 73, 94
6, 68963, Note_off_c, 4, 73, 64
6, 68981, Note_on_c, 4, 71, 108
6, 69076, Note_off_c, 4, 71, 64
6, 69103, Note_on_c, 4, 70, 127
6, 69238, Note_on_c, 4, 71, 94
6, 69243, Note_off_c, 4, 70, 64
6, 69358, Note_on_c, 4, 70, 94
6, 69359, Note_off_c, 4, 71, 64
6, 69449, Note_off_c, 4, 70, 64
6, 69477, Note_on_c, 4, 68, 110
6, 69567, Note_off_c, 4, 68, 64
6, 69598, Note_on_c, 4, 66, 123
6, 69701, Note_off_c, 4, 66, 64
6, 69719, Note_on_c, 4, 70, 98
6, 69805, Note_off_c, 4, 70, 64
6, 69839, Note_on_c, 4, 68, 97
6, 69911, Note_off_c, 4, 68, 64
6, 69958, Note_on_c, 4, 66, 86
6, 70046, Note_off_c, 4, 66, 64
6, 70079, Note_on_c, 4, 65, 64
6, 70247, Note_off_c, 4, 65, 64
6, 70801, Note_on_c, 4, 63, 74
6, 70891, Note_off_c, 4, 63, 64
6, 71039, Note_on_c, 4, 65, 54
6, 71213, Note_off_c, 4, 65, 64
6, 71761, Note_on_c, 4, 66, 78
6, 71851, Note_off_c, 4, 66, 64
6, 72000, Note_on_c, 4, 68, 78
6, 72166, Note_off_c, 4, 68, 64
6, 72723, Note_on_c, 4, 65, 66
6, 72813, Note_off_c, 4, 65, 64
6, 72957, Note_on_c, 4, 61, 78
6, 73103, Note_off_c, 4, 61, 64
6, 73195, Note_on_c, 4, 61, 78
6, 73307, Note_off_c, 4, 61, 64
6, 73405, Control_c, 4, 11, 82
6, 73436, Note_on_c, 4, 68, 78
6, 73442, Control_c, 4, 11, 89
6, 73480, Control_c, 4, 11, 96
6, 73517, Control_c, 4, 11, 104
6, 73554, Control_c, 4, 11, 112
6, 73586, Control_c, 4, 11, 102
6, 73628, Control_c, 4, 11, 95
6, 73635, Note_off_c, 4, 68, 64
6, 73668, Note_on_c, 4, 61, 78
6, 73680, Control_c, 4, 11, 100
6, 73764, Note_off_c, 4, 61, 64
6, 73916, Note_on_c, 4, 66, 79
6, 74063, Note_off_c, 4, 66, 64
6, 74154, Note_on_c, 4, 73, 96
6, 74272, Note_off_c, 4, 73, 64
6, 74393, Note_on_c, 4, 70, 73
6, 74513, Note_off_c, 4, 70, 64
6, 74636, Note_on_c, 4, 66, 82
6, 74762, Note_off_c, 4, 66, 64
6, 75122, Note_on_c, 4, 66, 102
6, 75212, Note_off_c, 4, 66, 64
6, 75234, Note_on_c, 4, 65, 78
6, 75324, Note_off_c, 4, 65, 64
6, 75347, Note_on_c, 4, 66, 72
6, 75370, Control_c, 4, 11, 96
6, 75415, Control_c, 4, 11, 90
6, 75460, Control_c, 4, 11, 84
6, 75497, Note_off_c, 4, 66, 64
6, 75504, Control_c, 4, 11, 78
6, 75575, Control_c, 4, 11, 100
6, 75602, Note_on_c, 4, 70, 102
6, 75692, Note_off_c, 4, 70, 64
6, 75715, Note_on_c, 4, 68, 82
6, 75805, Note_off_c, 4, 68, 64
6, 75838, Note_on_c, 4, 70, 67
6, 75850, Control_c, 4, 11, 96
6, 75887, Control_c, 4, 11, 90
6, 75925, Control_c, 4, 11, 85
6, 75962, Control_c, 4, 11, 79
6, 75999, Control_c, 4, 11, 74
6, 76004, Note_off_c, 4, 70, 64
6, 76080, Control_c, 4, 11, 100
6, 77524, Note_on_c, 4, 66, 110
6, 77614, Note_off_c, 4, 66, 64
6, 77637, Note_on_c, 4, 65, 82
6, 77727, Note_off_c, 4, 65, 64
6, 77756, Note_on_c, 4, 66, 80
6, 77765, Control_c, 4, 11, 96
6, 77810, Control_c, 4, 11, 90
6, 77855, Control_c, 4, 11, 84
6, 77899, Control_c, 4, 11, 78
6, 77906, Note_off_c, 4, 66, 64
6, 77955, Control_c, 4, 11, 100
6, 78004, Note_on_c, 4, 58, 110
6, 78094, Note_off_c, 4, 58, 64
6, 78117, Note_on_c, 4, 56, 71
6, 78207, Note_off_c, 4, 56, 64
6, 78235, Note_on_c, 4, 58, 72
6, 78245, Control_c, 4, 11, 96
6, 78288, Control_c, 4, 11, 88
6, 78331, Control_c, 4, 11, 81
6, 78374, Control_c, 4, 11, 74
6, 78385, Note_off_c, 4, 58, 64
6, 78465, Control_c, 4, 11, 100
6, 78484, Note_on_c, 4, 66, 125
6, 78574, Note_off_c, 4, 66, 64
6, 78596, Note_on_c, 4, 65, 96
6, 78686, Note_off_c, 4, 65, 64
6, 78711, Note_on_c, 4, 66, 96
6, 78715, Control_c, 4, 11, 96
6, 78750, Control_c, 4, 11, 89
6, 78785, Control_c, 4, 11, 83
6, 78820, Control_c, 4, 11, 76
6, 78854, Control_c, 4, 11, 70
6, 78861, Note_off_c, 4, 66, 64
6, 78910, Control_c, 4, 11, 100
6, 78964, Note_on_c, 4, 54, 123
6, 79054, Note_off_c, 4, 54, 64
6, 79076, Note_on_c, 4, 56, 102
6, 79166, Note_off_c, 4, 56, 64
6, 79193, Note_on_c, 4, 58, 107
6, 79320, Note_off_c, 4, 58, 64
6, 79437, Note_on_c, 4, 60, 104
6, 79525, Note_off_c, 4, 60, 64
6, 79681, Note_on_c, 4, 61, 78
6, 79825, Note_off_c, 4, 61, 64
6, 79922, Note_on_c, 4, 73, 92
6, 80012, Note_off_c, 4, 73, 64
6, 80035, Note_on_c, 4, 72, 65
6, 80125, Note_off_c, 4, 72, 64
6, 80153, Note_on_c, 4, 73, 57
6, 80165, Control_c, 4, 11, 96
6, 80210, Control_c, 4, 11, 90
6, 80255, Control_c, 4, 11, 84
6, 80299, Control_c, 4, 11, 78
6, 80303, Note_off_c, 4, 73, 64
6, 80395, Control_c, 4, 11, 100
6, 80882, Note_on_c, 4, 61, 78
6, 80972, Note_off_c, 4, 61, 64
6, 80994, Note_on_c, 4, 60, 60
6, 81084, Note_off_c, 4, 60, 64
6, 81106, Note_on_c, 4, 61, 69
6, 81120, Control_c, 4, 11, 96
6, 81165, Control_c, 4, 11, 88
6, 81210, Control_c, 4, 11, 80
6, 81254, Control_c, 4, 11, 72
6, 81256, Note_off_c, 4, 61, 64
6, 81350, Control_c, 4, 11, 100
6, 81836, Note_on_c, 4, 68, 98
6, 81936, Note_off_c, 4, 68, 64
6, 82074, Note_on_c, 4, 65, 68
6, 82170, Note_off_c, 4, 65, 64
6, 82311, Note_on_c, 4, 61, 78
6, 82399, Note_off_c, 4, 61, 64
6, 82530, Control_c, 4, 11, 76
6, 82556, Note_on_c, 4, 66, 120
6, 82570, Control_c, 4, 11, 79
6, 82611, Control_c, 4, 11, 83
6, 82652, Control_c, 4, 11, 87
6, 82693, Control_c, 4, 11, 91
6, 82734, Control_c, 4, 11, 95
6, 82754, Note_off_c, 4, 66, 64
6, 82774, Control_c, 4, 11, 100
6, 82804, Note_on_c, 4, 68, 117
6, 82894, Note_off_c, 4, 68, 64
6, 82906, Note_on_c, 4, 70, 103
6, 82996, Note_off_c, 4, 70, 64
6, 83030, Control_c, 4, 11, 90
6, 83031, Note_on_c, 4, 71, 95
6, 83073, Control_c, 4, 11, 98
6, 83116, Control_c, 4, 11, 107
6, 83159, Control_c, 4, 11, 116
6, 83195, Control_c, 4, 11, 102
6, 83210, Control_c, 4, 11, 96
6, 83238, Note_off_c, 4, 71, 64
6, 83245, Control_c, 4, 11, 84
6, 83270, Control_c, 4, 11, 100
6, 83284, Note_on_c, 4, 70, 114
6, 83374, Note_off_c, 4, 70, 64
6, 83397, Note_on_c, 4, 68, 96
6, 83487, Note_off_c, 4, 68, 64
6, 83521, Note_on_c, 4, 66, 97
6, 83657, Note_off_c, 4, 66, 64
6, 83765, Note_on_c, 4, 54, 98
6, 83864, Note_off_c, 4, 54, 64
6, 84000, Note_on_c, 4, 54, 85
6, 84097, Note_off_c, 4, 54, 64
6, 84238, Note_on_c, 4, 66, 103
6, 84336, Note_off_c, 4, 66, 64
6, 84475, Control_c, 4, 11, 92
6, 84482, Note_on_c, 4, 66, 107
6, 84523, Control_c, 4, 11, 86
6, 84571, Control_c, 4, 11, 80
6, 84617, Note_off_c, 4, 66, 64
6, 84619, Control_c, 4, 11, 74
6, 84675, Control_c, 4, 11, 100
6, 84724, Note_on_c, 4, 54, 91
6, 84819, Note_off_c, 4, 54, 64
6, 84967, Note_on_c, 4, 54, 108
6, 85083, Note_off_c, 4, 54, 64
6, 85204, Note_on_c, 4, 66, 88
6, 85298, Note_off_c, 4, 66, 64
6, 85439, Note_on_c, 4, 66, 108
6, 85445, Control_c, 4, 11, 94
6, 85500, Control_c, 4, 11, 87
6, 85554, Control_c, 4, 11, 80
6, 85589, Note_off_c, 4, 66, 64
6, 85650, Control_c, 4, 11, 100
6, 85678, Note_on_c, 4, 54, 88
6, 85771, Note_off_c, 4, 54, 64
6, 85917, Note_on_c, 4, 54, 103
6, 86028, Note_off_c, 4, 54, 64
6, 86158, Note_on_c, 4, 66, 97
6, 86230, Note_off_c, 4, 66, 64
6, 86400, Note_on_c, 4, 61, 95
6, 86558, Note_off_c, 4, 61, 64
6, 86636, Note_on_c, 4, 63, 92
6, 86743, Note_off_c, 4, 63, 64
6, 86873, Note_on_c, 4, 65, 107
6, 86980, Note_off_c, 4, 65, 64
6, 87124, Note_on_c, 4, 61, 123
6, 87214, Note_off_c, 4, 61, 64
6, 87236, Note_on_c, 4, 63, 101
6, 87326, Note_off_c, 4, 63, 64
6, 87353, Note_on_c, 4, 65, 97
6, 87482, Note_off_c, 4, 65, 64
6, 87589, Note_on_c, 4, 66, 117
6, 87692, Note_off_c, 4, 66, 64
6, 87834, Note_on_c, 4, 68, 106
6, 87937, Note_off_c, 4, 68, 64
6, 88080, Note_on_c, 4, 68, 106
6, 88158, Note_off_c, 4, 68, 64
6, 88317, Note_on_c, 4, 66, 97
6, 88330, Control_c, 4, 11, 94
6, 88373, Control_c, 4, 11, 88
6, 88416, Control_c, 4, 11, 82
6, 88459, Control_c, 4, 11, 76
6, 88522, Note_off_c, 4, 66, 64
6, 88530, Control_c, 4, 11, 100
6, 88553, Note_on_c, 4, 68, 78
6, 88670, Note_off_c, 4, 68, 64
6, 88797, Note_on_c, 4, 68, 88
6, 88893, Note_off_c, 4, 68, 64
6, 89040, Note_on_c, 4, 68, 90
6, 89134, Note_off_c, 4, 68, 64
6, 89250, Control_c, 4, 11, 88
6, 89286, Note_on_c, 4, 66, 116
6, 89291, Control_c, 4, 11, 96
6, 89333, Control_c, 4, 11, 105
6, 89374, Control_c, 4, 11, 114
6, 89400, Control_c, 4, 11, 102
6, 89445, Control_c, 4, 11, 92
6, 89489, Control_c, 4, 11, 82
6, 89490, Note_off_c, 4, 66, 64
6, 89520, Control_c, 4, 11, 100
6, 89534, Note_on_c, 4, 65, 127
6, 89616, Note_off_c, 4, 65, 64
6, 89645, Note_on_c, 4, 63, 85
6, 89749, Note_off_c, 4, 63, 64
6, 89760, Note_on_c, 4, 61, 105
6, 89860, Note_off_c, 4, 61, 64
6, 89879, Note_on_c, 4, 59, 97
6, 89967, Note_off_c, 4, 59, 64
6, 89998, Note_on_c, 4, 58, 110
6, 90097, Note_off_c, 4, 58, 64
6, 90109, Note_on_c, 4, 56, 88
6, 90199, Note_off_c, 4, 56, 64
6, 90205, Control_c, 4, 11, 86
6, 90231, Note_on_c, 4, 58, 107
6, 90251, Control_c, 4, 11, 95
6, 90298, Control_c, 4, 11, 104
6, 90344, Control_c, 4, 11, 114
6, 90375, Control_c, 4, 11, 100
6, 90415, Control_c, 4, 11, 88
6, 90437, Note_off_c, 4, 58, 64
6, 90460, Control_c, 4, 11, 100
6, 90484, Note_on_c, 4, 56, 106
6, 90574, Note_off_c, 4, 56, 64
6, 90596, Note_on_c, 4, 54, 82
6, 90686, Note_off_c, 4, 54, 64
6, 90713, Note_on_c, 4, 61, 93
6, 90808, Note_off_c, 4, 61, 64
6, 90955, Note_on_c, 4, 49, 106
6, 91049, Note_off_c, 4, 49, 64
6, 91120, Control_c, 4, 11, 30
6, 91160, Control_c, 4, 11, 45
6, 91200, Note_on_c, 4, 66, 103
6, 91200, Control_c, 4, 11, 61
6, 91240, Control_c, 4, 11, 77
6, 91280, Control_c, 4, 11, 93
6, 91319, Control_c, 4, 11, 110
6, 91350, Control_c, 4, 11, 100
6, 91385, Control_c, 4, 11, 86
6, 91416, Note_off_c, 4, 66, 64
6, 91430, Control_c, 4, 11, 100
6, 91444, Note_on_c, 4, 65, 104
6, 91534, Note_off_c, 4, 65, 64
6, 91557, Note_on_c, 4, 63, 68
6, 91647, Note_off_c, 4, 63, 64
6, 91677, Note_on_c, 4, 61, 101
6, 91768, Note_off_c, 4, 61, 64
6, 91796, Note_on_c, 4, 59, 85
6, 91876, Note_off_c, 4, 59, 64
6, 91909, Note_on_c, 4, 58, 74
6, 91976, Note_off_c, 4, 58, 64
6, 92023, Note_on_c, 4, 56, 74
6, 92099, Note_off_c, 4, 56, 64
6, 92153, Note_on_c, 4, 54, 58
6, 92268, Note_off_c, 4, 54, 64
6, 92397, Note_on_c, 4, 54, 54
6, 92531, Note_off_c, 4, 54, 64
6, 92632, Note_on_c, 4, 54, 54
6, 92775, Note_off_c, 4, 54, 64
6, 92876, Note_on_c, 4, 54, 54
6, 92991, Note_off_c, 4, 54, 64
6, 93115, Note_on_c, 4, 54, 74
6, 93269, Note_off_c, 4, 54, 64
6, 93356, Note_on_c, 4, 54, 54
6, 93475, Note_off_c, 4, 54, 64
6, 93595, Note_on_c, 4, 54, 51
6, 93690, Note_off_c, 4, 54, 64
6, 93833, Note_on_c, 4, 54, 52
6, 93933, Note_off_c, 4, 54, 64
6, 94072, Note_on_c, 4, 54, 74
6, 94252, Note_off_c, 4, 54, 64
6, 94321, Note_on_c, 4, 54, 54
6, 94442, Note_off_c, 4, 54, 64
6, 94560, Note_on_c, 4, 54, 54
6, 94660, Note_off_c, 4, 54, 64
6, 94795, Note_on_c, 4, 54, 54
6, 94908, Note_off_c, 4, 54, 64
6, 95034, Note_on_c, 4, 54, 74
6, 95221, Note_off_c, 4, 54, 64
6, 95283, Note_on_c, 4, 54, 56
6, 95394, Note_off_c, 4, 54, 64
6, 95520, Note_on_c, 4, 54, 56
6, 95629, Note_off_c, 4, 54, 64
6, 95756, Note_on_c, 4, 54, 56
6, 95883, Note_off_c, 4, 54, 64
6, 95998, Note_on_c, 4, 54, 74
6, 96163, Note_off_c, 4, 54, 64
6, 96239, Note_on_c, 4, 54, 59
6, 96338, Note_off_c, 4, 54, 64
6, 96471, Note_on_c, 4, 54, 59
6, 96588, Note_off_c, 4, 54, 64
6, 96711, Note_on_c, 4, 54, 59
6, 96830, Note_off_c, 4, 54, 64
6, 96950, Note_on_c, 4, 54, 74
6, 97135, Note_off_c, 4, 54, 64
6, 97194, Note_on_c, 4, 54, 61
6, 97315, Note_off_c, 4, 54, 64
6, 97435, Note_on_c, 4, 54, 61
6, 97559, Note_off_c, 4, 54, 64
6, 97674, Note_on_c, 4, 54, 61
6, 97769, Note_off_c, 4, 54, 64
6, 97909, Note_on_c, 4, 54, 74
6, 98058, Note_off_c, 4, 54, 64
6, 98148, Note_on_c, 4, 54, 85
6, 98238, Note_off_c, 4, 54, 64
6, 98394, Note_on_c, 4, 54, 92
6, 98481, Note_off_c, 4, 54, 64
6, 98637, Note_on_c, 4, 56, 92
6, 98715, Note_off_c, 4, 56, 64
6, 98882, Note_on_c, 4, 56, 98
6, 98986, Note_off_c, 4, 56, 64
6, 99006, Note_on_c, 4, 73, 127
6, 99083, Note_off_c, 4, 73, 64
6, 99123, Note_on_c, 4, 72, 108
6, 99203, Note_off_c, 4, 72, 64
6, 99231, Note_on_c, 4, 70, 91
6, 99317, Note_off_c, 4, 70, 64
6, 99354, Note_on_c, 4, 68, 102
6, 99435, Note_off_c, 4, 68, 64
6, 99475, Note_on_c, 4, 66, 76
6, 99543, Note_off_c, 4, 66, 64
6, 99593, Note_on_c, 4, 65, 70
6, 99665, Note_off_c, 4, 65, 64
6, 99713, Note_on_c, 4, 63, 80
6, 99802, Note_off_c, 4, 63, 64
6, 99837, Note_on_c, 4, 62, 51
6, 99994, Note_off_c, 4, 62, 64
6, 100077, Note_on_c, 4, 62, 44
6, 100208, Note_off_c, 4, 62, 64
6, 100318, Note_on_c, 4, 62, 40
6, 100441, Note_off_c, 4, 62, 64
6, 100561, Note_on_c, 4, 62, 43
6, 100680, Note_off_c, 4, 62, 64
6, 100800, Note_on_c, 4, 65, 63
6, 100939, Note_off_c, 4, 65, 64
6, 101037, Note_on_c, 4, 65, 58
6, 101154, Note_off_c, 4, 65, 64
6, 101268, Note_on_c, 4, 65, 51
6, 101388, Note_off_c, 4, 65, 64
6, 101511, Note_on_c, 4, 65, 58
6, 101651, Note_off_c, 4, 65, 64
6, 101753, Note_on_c, 4, 68, 74
6, 101891, Note_off_c, 4, 68, 64
6, 101997, Note_on_c, 4, 68, 62
6, 102112, Note_off_c, 4, 68, 64
6, 102236, Note_on_c, 4, 68, 63
6, 102350, Note_off_c, 4, 68, 64
6, 102475, Note_on_c, 4, 68, 59
6, 102602, Note_off_c, 4, 68, 64
6, 102714, Note_on_c, 4, 68, 68
6, 102853, Note_off_c, 4, 68, 64
6, 102954, Note_on_c, 4, 68, 59
6, 103084, Note_off_c, 4, 68, 64
6, 103197, Note_on_c, 4, 68, 74
6, 103312, Note_off_c, 4, 68, 64
6, 103430, Note_on_c, 4, 68, 71
6, 103549, Note_off_c, 4, 68, 64
6, 103674, Note_on_c, 4, 62, 77
6, 103833, Note_off_c, 4, 62, 64
6, 103916, Note_on_c, 4, 62, 52
6, 104031, Note_off_c, 4, 62, 64
6, 104146, Note_on_c, 4, 62, 52
6, 104257, Note_off_c, 4, 62, 64
6, 104382, Note_on_c, 4, 62, 45
6, 104491, Note_off_c, 4, 62, 64
6, 104627, Note_on_c, 4, 58, 74
6, 104751, Note_off_c, 4, 58, 64
6, 104866, Note_on_c, 4, 58, 68
6, 104965, Note_off_c, 4, 58, 64
6, 105106, Note_on_c, 4, 58, 74
6, 105212, Note_off_c, 4, 58, 64
6, 105347, Note_on_c, 4, 58, 92
6, 105451, Note_off_c, 4, 58, 64
6, 105565, Control_c, 4, 11, 86
6, 105584, Note_on_c, 4, 58, 88
6, 105602, Control_c, 4, 11, 91
6, 105640, Control_c, 4, 11, 97
6, 105677, Control_c, 4, 11, 103
6, 105714, Control_c, 4, 11, 110
6, 105760, Control_c, 4, 11, 96
6, 105810, Control_c, 4, 11, 82
6, 105850, Control_c, 4, 11, 72
6, 105862, Note_off_c, 4, 58, 64
6, 105890, Control_c, 4, 11, 100
6, 106322, Note_on_c, 4, 66, 116
6, 106412, Note_off_c, 4, 66, 64
6, 106434, Note_on_c, 4, 65, 84
6, 106524, Note_off_c, 4, 65, 64
6, 106545, Note_on_c, 4, 66, 84
6, 106560, Control_c, 4, 11, 96
6, 106601, Control_c, 4, 11, 88
6, 106643, Control_c, 4, 11, 80
6, 106684, Control_c, 4, 11, 72
6, 106695, Note_off_c, 4, 66, 64
6, 106740, Control_c, 4, 11, 100
6, 106802, Note_on_c, 4, 63, 116
6, 106892, Note_off_c, 4, 63, 64
6, 106915, Note_on_c, 4, 62, 84
6, 107005, Note_off_c, 4, 62, 64
6, 107021, Note_on_c, 4, 63, 84
6, 107030, Control_c, 4, 11, 96
6, 107068, Control_c, 4, 11, 90
6, 107107, Control_c, 4, 11, 85
6, 107146, Control_c, 4, 11, 79
6, 107184, Control_c, 4, 11, 74
6, 107187, Note_off_c, 4, 63, 64
6, 107315, Control_c, 4, 11, 100
6, 107764, Note_on_c, 4, 51, 127
6, 107854, Note_off_c, 4, 51, 64
6, 107877, Note_on_c, 4, 53, 106
6, 107967, Note_off_c, 4, 53, 64
6, 108001, Note_on_c, 4, 54, 100
6, 108100, Note_off_c, 4, 54, 64
6, 108240, Note_on_c, 4, 56, 120
6, 108357, Note_off_c, 4, 56, 64
6, 108450, Control_c, 4, 11, 84
6, 108477, Note_on_c, 4, 58, 99
6, 108487, Control_c, 4, 11, 93
6, 108525, Control_c, 4, 11, 102
6, 108562, Control_c, 4, 11, 112
6, 108599, Control_c, 4, 11, 122
6, 108645, Control_c, 4, 11, 94
6, 108690, Control_c, 4, 11, 78
6, 108692, Note_off_c, 4, 58, 64
6, 108755, Control_c, 4, 11, 100
6, 109684, Note_on_c, 4, 68, 125
6, 109774, Note_off_c, 4, 68, 64
6, 109796, Note_on_c, 4, 66, 98
6, 109886, Note_off_c, 4, 66, 64
6, 109905, Note_on_c, 4, 68, 89
6, 109925, Control_c, 4, 11, 96
6, 109965, Control_c, 4, 11, 89
6, 110005, Control_c, 4, 11, 82
6, 110044, Control_c, 4, 11, 76
6, 110079, Note_off_c, 4, 68, 64
6, 110135, Control_c, 4, 11, 100
6, 110164, Note_on_c, 4, 71, 125
6, 110254, Note_off_c, 4, 71, 64
6, 110277, Note_on_c, 4, 70, 93
6, 110367, Note_off_c, 4, 70, 64
6, 110387, Note_on_c, 4, 71, 98
6, 110400, Control_c, 4, 11, 96
6, 110441, Control_c, 4, 11, 91
6, 110482, Control_c, 4, 11, 86
6, 110523, Control_c, 4, 11, 81
6, 110565, Note_off_c, 4, 71, 64
6, 110575, Control_c, 4, 11, 100
6, 110642, Note_on_c, 4, 62, 97
6, 110732, Note_off_c, 4, 62, 64
6, 110754, Note_on_c, 4, 60, 61
6, 110844, Note_off_c, 4, 60, 64
6, 110865, Note_on_c, 4, 62, 56
6, 110875, Control_c, 4, 11, 92
6, 110918, Control_c, 4, 11, 82
6, 110961, Control_c, 4, 11, 73
6, 111004, Control_c, 4, 11, 64
6, 111015, Note_off_c, 4, 62, 64
6, 111060, Control_c, 4, 11, 100
6, 111113, Note_on_c, 4, 70, 126
6, 111232, Note_off_c, 4, 70, 64
6, 111335, Control_c, 4, 11, 86
6, 111360, Note_on_c, 4, 66, 115
6, 111376, Control_c, 4, 11, 95
6, 111418, Control_c, 4, 11, 104
6, 111459, Control_c, 4, 11, 114
6, 111485, Control_c, 4, 11, 108
6, 111527, Control_c, 4, 11, 102
6, 111568, Note_off_c, 4, 66, 64
6, 111569, Control_c, 4, 11, 96
6, 111595, Control_c, 4, 11, 100
6, 111604, Note_on_c, 4, 65, 120
6, 111694, Note_off_c, 4, 65, 64
6, 111716, Note_on_c, 4, 63, 96
6, 111806, Note_off_c, 4, 63, 64
6, 111820, Control_c, 4, 11, 82
6, 111835, Note_on_c, 4, 65, 126
6, 111860, Control_c, 4, 11, 92
6, 111900, Control_c, 4, 11, 102
6, 111939, Control_c, 4, 11, 112
6, 111955, Control_c, 4, 11, 104
6, 111997, Control_c, 4, 11, 97
6, 112028, Note_off_c, 4, 65, 64
6, 112039, Control_c, 4, 11, 90
6, 112060, Control_c, 4, 11, 100
6, 112084, Note_on_c, 4, 63, 114
6, 112174, Note_off_c, 4, 63, 64
6, 112196, Note_on_c, 4, 62, 106
6, 112286, Note_off_c, 4, 62, 64
6, 112305, Control_c, 4, 11, 82
6, 112317, Note_on_c, 4, 71, 126
6, 112345, Control_c, 4, 11, 89
6, 112385, Control_c, 4, 11, 96
6, 112425, Control_c, 4, 11, 103
6, 112465, Control_c, 4, 11, 110
6, 112504, Control_c, 4, 11, 118
6, 112550, Control_c, 4, 11, 96
6, 112595, Control_c, 4, 11, 82
6, 112640, Control_c, 4, 11, 66
6, 112653, Note_off_c, 4, 71, 64
6, 112670, Control_c, 4, 11, 100
6, 112682, Note_on_c, 4, 70, 104
6, 112772, Note_off_c, 4, 70, 64
6, 112796, Note_on_c, 4, 68, 93
6, 112886, Note_off_c, 4, 68, 64
6, 112910, Note_on_c, 4, 66, 103
6, 112989, Note_off_c, 4, 66, 64
6, 113028, Note_on_c, 4, 65, 99
6, 113102, Note_off_c, 4, 65, 64
6, 113133, Note_on_c, 4, 63, 93
6, 113217, Note_off_c, 4, 63, 64
6, 113276, Note_on_c, 4, 65, 86
6, 113454, Note_off_c, 4, 65, 64
6, 113514, Note_on_c, 4, 70, 88
6, 113625, Note_off_c, 4, 70, 64
6, 113740, Control_c, 4, 11, 96
6, 113748, Note_on_c, 4, 68, 85
6, 113778, Control_c, 4, 11, 101
6, 113816, Control_c, 4, 11, 107
6, 113854, Control_c, 4, 11, 114
6, 113885, Control_c, 4, 11, 100
6, 113935, Control_c, 4, 11, 86
6, 113954, Note_off_c, 4, 68, 64
6, 113990, Control_c, 4, 11, 100
6, 114004, Note_on_c, 4, 66, 85
6, 114094, Note_off_c, 4, 66, 64
6, 114116, Note_on_c, 4, 65, 82
6, 114206, Note_off_c, 4, 65, 64
6, 114244, Note_on_c, 4, 66, 116
6, 114356, Note_off_c, 4, 66, 64
6, 114359, Note_on_c, 4, 70, 83
6, 114458, Note_off_c, 4, 70, 64
6, 114481, Note_on_c, 4, 63, 109
6, 114578, Note_off_c, 4, 63, 64
6, 114594, Note_on_c, 4, 65, 92
6, 114672, Note_off_c, 4, 65, 64
6, 114715, Note_on_c, 4, 66, 102
6, 114825, Note_off_c, 4, 66, 64
6, 114830, Note_on_c, 4, 68, 84
6, 114916, Note_off_c, 4, 68, 64
6, 114948, Note_on_c, 4, 70, 89
6, 115051, Note_off_c, 4, 70, 64
6, 115059, Note_on_c, 4, 68, 95
6, 115173, Note_off_c, 4, 68, 64
6, 115186, Note_on_c, 4, 66, 66
6, 115364, Note_off_c, 4, 66, 64
6, 115433, Note_on_c, 4, 75, 98
6, 115450, Control_c, 4, 11, 96
6, 115488, Control_c, 4, 11, 89
6, 115526, Control_c, 4, 11, 82
6, 115564, Control_c, 4, 11, 76
6, 115581, Note_off_c, 4, 75, 64
6, 115635, Control_c, 4, 11, 100
6, 115905, Note_on_c, 4, 74, 93
6, 116023, Note_off_c, 4, 74, 64
6, 116153, Note_on_c, 4, 75, 77
6, 116185, Control_c, 4, 11, 94
6, 116223, Control_c, 4, 11, 88
6, 116261, Control_c, 4, 11, 82
6, 116299, Control_c, 4, 11, 76
6, 116345, Note_off_c, 4, 75, 64
6, 116355, Control_c, 4, 11, 100
6, 116391, Note_on_c, 4, 70, 66
6, 116405, Control_c, 4, 11, 94
6, 116446, Control_c, 4, 11, 88
6, 116488, Control_c, 4, 11, 82
6, 116529, Note_off_c, 4, 70, 64
6, 116529, Control_c, 4, 11, 76
6, 116595, Control_c, 4, 11, 100
6, 116632, Note_on_c, 4, 63, 61
6, 116749, Note_off_c, 4, 63, 64
6, 116871, Note_on_c, 4, 65, 75
6, 116998, Note_off_c, 4, 65, 64
6, 117116, Note_on_c, 4, 66, 85
6, 117130, Control_c, 4, 11, 94
6, 117167, Control_c, 4, 11, 89
6, 117205, Control_c, 4, 11, 84
6, 117242, Control_c, 4, 11, 79
6, 117279, Control_c, 4, 11, 74
6, 117299, Note_off_c, 4, 66, 64
6, 117335, Control_c, 4, 11, 100
6, 117357, Note_on_c, 4, 63, 90
6, 117466, Note_off_c, 4, 63, 64
6, 117593, Note_on_c, 4, 58, 78
6, 117690, Note_off_c, 4, 58, 64
6, 117844, Note_on_c, 4, 63, 78
6, 117934, Note_off_c, 4, 63, 64
6, 118077, Note_on_c, 4, 68, 78
6, 118192, Note_off_c, 4, 68, 64
6, 118324, Note_on_c, 4, 68, 80
6, 118414, Note_off_c, 4, 68, 64
6, 118436, Note_on_c, 4, 67, 52
6, 118526, Note_off_c, 4, 67, 64
6, 118555, Note_on_c, 4, 68, 63
6, 118560, Control_c, 4, 11, 96
6, 118598, Control_c, 4, 11, 89
6, 118636, Control_c, 4, 11, 82
6, 118674, Control_c, 4, 11, 76
6, 118705, Note_off_c, 4, 68, 64
6, 118800, Control_c, 4, 11, 100
6, 119284, Note_on_c, 4, 68, 76
6, 119374, Note_off_c, 4, 68, 64
6, 119397, Note_on_c, 4, 67, 50
6, 119487, Note_off_c, 4, 67, 64
6, 119520, Note_on_c, 4, 68, 54
6, 119525, Control_c, 4, 11, 96
6, 119565, Control_c, 4, 11, 90
6, 119605, Control_c, 4, 11, 84
6, 119644, Control_c, 4, 11, 78
6, 119670, Note_off_c, 4, 68, 64
6, 119755, Control_c, 4, 11, 100
6, 120244, Note_on_c, 4, 68, 89
6, 120334, Note_off_c, 4, 68, 64
6, 120356, Note_on_c, 4, 67, 60
6, 120446, Note_off_c, 4, 67, 64
6, 120473, Note_on_c, 4, 68, 68
6, 120485, Control_c, 4, 11, 96
6, 120523, Control_c, 4, 11, 91
6, 120562, Control_c, 4, 11, 87
6, 120601, Control_c, 4, 11, 82
6, 120623, Note_off_c, 4, 68, 64
6, 120639, Control_c, 4, 11, 78
6, 120740, Control_c, 4, 11, 100
6, 121204, Note_on_c, 4, 68, 127
6, 121294, Note_off_c, 4, 68, 64
6, 121316, Note_on_c, 4, 70, 106
6, 121406, Note_off_c, 4, 70, 64
6, 121423, Note_on_c, 4, 72, 107
6, 121445, Control_c, 4, 11, 94
6, 121488, Control_c, 4, 11, 86
6, 121531, Control_c, 4, 11, 79
6, 121573, Note_off_c, 4, 72, 64
6, 121574, Control_c, 4, 11, 72
6, 121635, Control_c, 4, 11, 100
6, 121664, Note_on_c, 4, 75, 99
6, 121797, Note_off_c, 4, 75, 64
6, 121922, Note_on_c, 4, 68, 74
6, 122025, Control_c, 4, 11, 94
6, 122068, Control_c, 4, 11, 86
6, 122111, Control_c, 4, 11, 79
6, 122154, Control_c, 4, 11, 72
6, 122181, Note_off_c, 4, 68, 64
6, 122190, Control_c, 4, 11, 100
6, 122644, Note_on_c, 4, 73, 79
6, 122734, Note_off_c, 4, 73, 64
6, 122757, Note_on_c, 4, 72, 60
6, 122847, Note_off_c, 4, 72, 64
6, 122874, Note_on_c, 4, 73, 78
6, 122880, Control_c, 4, 11, 94
6, 122928, Control_c, 4, 11, 86
6, 122976, Control_c, 4, 11, 78
6, 123024, Note_off_c, 4, 73, 64
6, 123024, Control_c, 4, 11, 70
6, 123105, Control_c, 4, 11, 100
6, 123603, Note_on_c, 4, 73, 85
6, 123693, Note_off_c, 4, 73, 64
6, 123717, Note_on_c, 4, 72, 62
6, 123807, Note_off_c, 4, 72, 64
6, 123833, Note_on_c, 4, 73, 78
6, 123840, Control_c, 4, 11, 94
6, 123886, Control_c, 4, 11, 87
6, 123933, Control_c, 4, 11, 80
6, 123979, Control_c, 4, 11, 74
6, 123983, Note_off_c, 4, 73, 64
6, 124070, Control_c, 4, 11, 100
6, 124563, Note_on_c, 4, 73, 78
6, 124653, Note_off_c, 4, 73, 64
6, 124676, Note_on_c, 4, 72, 54
6, 124766, Note_off_c, 4, 72, 64
6, 124792, Note_on_c, 4, 73, 78
6, 124805, Control_c, 4, 11, 96
6, 124846, Control_c, 4, 11, 90
6, 124888, Control_c, 4, 11, 84
6, 124929, Control_c, 4, 11, 78
6, 124942, Note_off_c, 4, 73, 64
6, 125025, Control_c, 4, 11, 100
6, 126479, Note_on_c, 4, 56, 127
6, 126603, Note_off_c, 4, 56, 64
6, 126718, Note_on_c, 4, 58, 127
6, 126824, Note_off_c, 4, 58, 64
6, 126833, Note_on_c, 4, 61, 95
6, 126923, Note_off_c, 4, 61, 64
6, 126952, Note_on_c, 4, 54, 106
6, 127024, Note_off_c, 4, 54, 64
6, 127066, Note_on_c, 4, 56, 127
6, 127133, Note_off_c, 4, 56, 64
6, 127185, Note_on_c, 4, 58, 127
6, 127282, Note_off_c, 4, 58, 64
6, 127297, Note_on_c, 4, 59, 95
6, 127381, Note_off_c, 4, 59, 64
6, 127408, Note_on_c, 4, 61, 127
6, 127488, Note_off_c, 4, 61, 64
6, 127520, Note_on_c, 4, 59, 105
6, 127607, Note_off_c, 4, 59, 64
6, 127648, Note_on_c, 4, 58, 96
6, 127670, Control_c, 4, 11, 94
6, 127707, Control_c, 4, 11, 88
6, 127745, Control_c, 4, 11, 82
6, 127782, Control_c, 4, 11, 76
6, 127819, Control_c, 4, 11, 70
6, 127824, Note_off_c, 4, 58, 64
6, 127870, Control_c, 4, 11, 100
6, 127923, Note_on_c, 4, 66, 106
6, 128013, Note_off_c, 4, 66, 64
6, 128036, Note_on_c, 4, 65, 69
6, 128126, Note_off_c, 4, 65, 64
6, 128140, Note_on_c, 4, 66, 78
6, 128170, Control_c, 4, 11, 92
6, 128216, Control_c, 4, 11, 86
6, 128262, Control_c, 4, 11, 81
6, 128290, Note_off_c, 4, 66, 64
6, 128308, Control_c, 4, 11, 75
6, 128354, Control_c, 4, 11, 70
6, 128385, Control_c, 4, 11, 100
6, 129364, Note_on_c, 4, 70, 125
6, 129454, Note_off_c, 4, 70, 64
6, 129477, Note_on_c, 4, 68, 89
6, 129567, Note_off_c, 4, 68, 64
6, 129594, Note_on_c, 4, 70, 89
6, 129600, Control_c, 4, 11, 96
6, 129646, Control_c, 4, 11, 89
6, 129693, Control_c, 4, 11, 82
6, 129739, Control_c, 4, 11, 76
6, 129744, Note_off_c, 4, 70, 64
6, 129785, Control_c, 4, 11, 100
6, 129844, Note_on_c, 4, 66, 117
6, 129934, Note_off_c, 4, 66, 64
6, 129957, Note_on_c, 4, 65, 97
6, 130047, Note_off_c, 4, 65, 64
6, 130077, Note_on_c, 4, 66, 98
6, 130182, Note_off_c, 4, 66, 64
6, 130198, Note_on_c, 4, 68, 106
6, 130280, Note_off_c, 4, 68, 64
6, 130316, Note_on_c, 4, 66, 127
6, 130402, Note_off_c, 4, 66, 64
6, 130432, Note_on_c, 4, 65, 111
6, 130507, Note_off_c, 4, 65, 64
6, 130556, Note_on_c, 4, 63, 84
6, 130701, Note_off_c, 4, 63, 64
6, 130790, Note_on_c, 4, 63, 78
6, 130921, Note_off_c, 4, 63, 64
6, 131029, Note_on_c, 4, 63, 67
6, 131155, Note_off_c, 4, 63, 64
6, 131268, Note_on_c, 4, 63, 59
6, 131410, Note_off_c, 4, 63, 64
6, 131508, Note_on_c, 4, 63, 74
6, 131643, Note_off_c, 4, 63, 64
6, 131748, Note_on_c, 4, 63, 66
6, 131874, Note_off_c, 4, 63, 64
6, 131988, Note_on_c, 4, 63, 70
6, 132099, Note_off_c, 4, 63, 64
6, 132225, Note_on_c, 4, 63, 75
6, 132339, Note_off_c, 4, 63, 64
6, 132468, Note_on_c, 4, 63, 84
6, 132598, Note_off_c, 4, 63, 64
6, 132712, Note_on_c, 4, 63, 59
6, 132820, Note_off_c, 4, 63, 64
6, 132953, Note_on_c, 4, 63, 58
6, 133067, Note_off_c, 4, 63, 64
6, 133191, Note_on_c, 4, 63, 51
6, 133322, Note_off_c, 4, 63, 64
6, 133435, Note_on_c, 4, 63, 84
6, 133568, Note_off_c, 4, 63, 64
6, 133678, Note_on_c, 4, 63, 66
6, 133793, Note_off_c, 4, 63, 64
6, 133918, Note_on_c, 4, 63, 80
6, 134025, Note_off_c, 4, 63, 64
6, 134155, Note_on_c, 4, 63, 84
6, 134254, Note_off_c, 4, 63, 64
6, 134388, Note_on_c, 4, 57, 75
6, 134507, Note_off_c, 4, 57, 64
6, 134620, Note_on_c, 4, 57, 60
6, 134731, Note_off_c, 4, 57, 64
6, 134858, Note_on_c, 4, 57, 66
6, 134965, Note_off_c, 4, 57, 64
6, 135104, Note_on_c, 4, 57, 69
6, 135208, Note_off_c, 4, 57, 64
6, 135348, Note_on_c, 4, 53, 74
6, 135456, Note_off_c, 4, 53, 64
6, 135589, Note_on_c, 4, 53, 85
6, 135697, Note_off_c, 4, 53, 64
6, 135826, Note_on_c, 4, 53, 88
6, 135929, Note_off_c, 4, 53, 64
6, 136068, Note_on_c, 4, 53, 112
6, 136174, Note_off_c, 4, 53, 64
6, 136314, Note_on_c, 4, 58, 107
6, 136489, Note_off_c, 4, 58, 64
6, 136556, Note_on_c, 4, 73, 85
6, 136676, Note_off_c, 4, 73, 64
6, 136793, Note_on_c, 4, 70, 85
6, 136885, Note_off_c, 4, 70, 64
6, 137032, Note_on_c, 4, 65, 74
6, 137135, Note_off_c, 4, 65, 64
6, 137274, Note_on_c, 4, 70, 85
6, 137300, Control_c, 4, 11, 96
6, 137346, Control_c, 4, 11, 88
6, 137393, Control_c, 4, 11, 81
6, 137412, Note_off_c, 4, 70, 64
6, 137439, Control_c, 4, 11, 74
6, 137495, Control_c, 4, 11, 100
6, 137510, Note_on_c, 4, 73, 103
6, 137620, Note_off_c, 4, 73, 64
6, 137755, Note_on_c, 4, 70, 91
6, 137848, Note_off_c, 4, 70, 64
6, 137992, Note_on_c, 4, 65, 91
6, 138090, Note_off_c, 4, 65, 64
6, 138235, Control_c, 4, 11, 94
6, 138235, Note_on_c, 4, 70, 85
6, 138281, Control_c, 4, 11, 86
6, 138328, Control_c, 4, 11, 79
6, 138374, Control_c, 4, 11, 72
6, 138404, Note_off_c, 4, 70, 64
6, 138450, Control_c, 4, 11, 100
6, 138484, Note_on_c, 4, 73, 123
6, 138574, Note_off_c, 4, 73, 64
6, 138596, Note_on_c, 4, 72, 92
6, 138686, Note_off_c, 4, 72, 64
6, 138690, Control_c, 4, 11, 88
6, 138707, Note_on_c, 4, 70, 100
6, 138731, Control_c, 4, 11, 95
6, 138773, Control_c, 4, 11, 103
6, 138814, Control_c, 4, 11, 112
6, 138855, Control_c, 4, 11, 96
6, 138900, Control_c, 4, 11, 82
6, 138923, Note_off_c, 4, 70, 64
6, 138950, Control_c, 4, 11, 100
6, 138964, Note_on_c, 4, 68, 103
6, 139054, Note_off_c, 4, 68, 64
6, 139076, Note_on_c, 4, 66, 91
6, 139166, Note_off_c, 4, 66, 64
6, 139185, Control_c, 4, 11, 86
6, 139191, Note_on_c, 4, 65, 106
6, 139223, Control_c, 4, 11, 92
6, 139261, Control_c, 4, 11, 99
6, 139299, Control_c, 4, 11, 106
6, 139340, Control_c, 4, 11, 92
6, 139375, Control_c, 4, 11, 84
6, 139398, Note_off_c, 4, 65, 64
6, 139415, Control_c, 4, 11, 100
6, 139444, Note_on_c, 4, 63, 91
6, 139534, Note_off_c, 4, 63, 64
6, 139556, Note_on_c, 4, 61, 91
6, 139646, Note_off_c, 4, 61, 64
6, 139671, Note_on_c, 4, 60, 95
6, 139800, Note_off_c, 4, 60, 64
6, 139918, Note_on_c, 4, 69, 120
6, 140029, Note_off_c, 4, 69, 64
6, 140160, Control_c, 4, 11, 96
6, 140160, Note_on_c, 4, 70, 114
6, 140212, Control_c, 4, 11, 88
6, 140264, Control_c, 4, 11, 80
6, 140305, Note_off_c, 4, 70, 64
6, 140360, Control_c, 4, 11, 100
6, 140403, Note_on_c, 4, 58, 96
6, 140462, Note_off_c, 4, 58, 64
6, 140638, Note_on_c, 4, 58, 123
6, 140764, Note_off_c, 4, 58, 64
6, 140876, Note_on_c, 4, 70, 103
6, 140964, Note_off_c, 4, 70, 64
6, 141108, Note_on_c, 4, 70, 126
6, 141120, Control_c, 4, 11, 94
6, 141175, Control_c, 4, 11, 87
6, 141229, Control_c, 4, 11, 80
6, 141245, Note_off_c, 4, 70, 64
6, 141290, Control_c, 4, 11, 100
6, 141358, Note_on_c, 4, 58, 99
6, 141458, Note_off_c, 4, 58, 64
6, 141596, Note_on_c, 4, 58, 114
6, 141708, Note_off_c, 4, 58, 64
6, 141834, Note_on_c, 4, 70, 109
6, 141930, Note_off_c, 4, 70, 64
6, 142035, Control_c, 4, 11, 80
6, 142072, Note_on_c, 4, 65, 124
6, 142076, Control_c, 4, 11, 83
6, 142117, Control_c, 4, 11, 87
6, 142158, Control_c, 4, 11, 91
6, 142199, Control_c, 4, 11, 95
6, 142239, Control_c, 4, 11, 100
6, 142269, Note_off_c, 4, 65, 64
6, 142324, Note_on_c, 4, 63, 119
6, 142414, Note_off_c, 4, 63, 64
6, 142436, Note_on_c, 4, 61, 108
6, 142526, Note_off_c, 4, 61, 64
6, 142545, Control_c, 4, 11, 80
6, 142553, Note_on_c, 4, 63, 117
6, 142587, Control_c, 4, 11, 83
6, 142629, Control_c, 4, 11, 87
6, 142671, Control_c, 4, 11, 91
6, 142713, Control_c, 4, 11, 95
6, 142751, Note_off_c, 4, 63, 64
6, 142754, Control_c, 4, 11, 100
6, 142804, Note_on_c, 4, 61, 108
6, 142894, Note_off_c, 4, 61, 64
6, 142916, Note_on_c, 4, 60, 108
6, 143006, Note_off_c, 4, 60, 64
6, 143020, Control_c, 4, 11, 78
6, 143033, Note_on_c, 4, 66, 127
6, 143062, Control_c, 4, 11, 84
6, 143104, Control_c, 4, 11, 91
6, 143146, Control_c, 4, 11, 98
6, 143188, Control_c, 4, 11, 105
6, 143229, Control_c, 4, 11, 112
6, 143285, Control_c, 4, 11, 96
6, 143350, Control_c, 4, 11, 78
6, 143380, Note_off_c, 4, 66, 64
6, 143395, Control_c, 4, 11, 100
6, 143403, Note_on_c, 4, 65, 95
6, 143485, Note_off_c, 4, 65, 64
6, 143522, Note_on_c, 4, 63, 103
6, 143623, Note_off_c, 4, 63, 64
6, 143637, Note_on_c, 4, 61, 102
6, 143709, Note_off_c, 4, 61, 64
6, 143755, Note_on_c, 4, 60, 106
6, 143835, Note_off_c, 4, 60, 64
6, 143869, Note_on_c, 4, 58, 91
6, 143940, Note_off_c, 4, 58, 64
6, 144000, Note_on_c, 4, 70, 71
6, 144120, Note_off_c, 4, 70, 64
6, 144227, Note_on_c, 4, 70, 71
6, 144353, Note_off_c, 4, 70, 64
6, 144473, Note_on_c, 4, 65, 57
6, 144485, Control_c, 4, 11, 96
6, 144531, Control_c, 4, 11, 89
6, 144578, Control_c, 4, 11, 82
6, 144579, Note_off_c, 4, 65, 64
6, 144624, Control_c, 4, 11, 76
6, 144675, Control_c, 4, 11, 100
6, 144724, Note_on_c, 4, 65, 54
6, 144814, Note_off_c, 4, 65, 64
6, 144964, Note_on_c, 4, 65, 49
6, 145060, Control_c, 4, 11, 96
6, 145093, Control_c, 4, 11, 91
6, 145127, Control_c, 4, 11, 87
6, 145161, Control_c, 4, 11, 82
6, 145185, Note_off_c, 4, 65, 64
6, 145194, Control_c, 4, 11, 78
6, 145255, Control_c, 4, 11, 100
6, 146162, Note_on_c, 4, 65, 113
6, 146252, Note_off_c, 4, 65, 64
6, 146275, Note_on_c, 4, 63, 101
6, 146365, Note_off_c, 4, 63, 64
6, 146394, Note_on_c, 4, 65, 75
6, 146405, Control_c, 4, 11, 96
6, 146450, Control_c, 4, 11, 88
6, 146495, Control_c, 4, 11, 81
6, 146539, Control_c, 4, 11, 74
6, 146556, Note_off_c, 4, 65, 64
6, 146605, Control_c, 4, 11, 100
6, 146642, Note_on_c, 4, 70, 116
6, 146732, Note_off_c, 4, 70, 64
6, 146754, Note_on_c, 4, 69, 78
6, 146844, Note_off_c, 4, 69, 64
6, 146871, Note_on_c, 4, 70, 71
6, 146880, Control_c, 4, 11, 94
6, 146917, Control_c, 4, 11, 89
6, 146955, Control_c, 4, 11, 84
6, 146992, Control_c, 4, 11, 79
6, 147029, Control_c, 4, 11, 74
6, 147057, Note_off_c, 4, 70, 64
6, 147110, Control_c, 4, 11, 100
6, 148084, Note_on_c, 4, 70, 97
6, 148174, Note_off_c, 4, 70, 64
6, 148197, Note_on_c, 4, 69, 72
6, 148287, Note_off_c, 4, 69, 64
6, 148313, Note_on_c, 4, 70, 78
6, 148315, Control_c, 4, 11, 96
6, 148361, Control_c, 4, 11, 87
6, 148408, Control_c, 4, 11, 78
6, 148449, Note_off_c, 4, 70, 64
6, 148454, Control_c, 4, 11, 70
6, 148500, Control_c, 4, 11, 100
6, 148564, Note_on_c, 4, 70, 79
6, 148654, Note_off_c, 4, 70, 64
6, 148803, Note_on_c, 4, 70, 84
6, 148845, Control_c, 4, 11, 96
6, 148891, Control_c, 4, 11, 88
6, 148938, Control_c, 4, 11, 81
6, 148984, Control_c, 4, 11, 74
6, 149003, Note_off_c, 4, 70, 64
6, 149025, Control_c, 4, 11, 100
6, 149042, Note_on_c, 4, 69, 89
6, 149132, Note_off_c, 4, 69, 64
6, 149155, Note_on_c, 4, 67, 75
6, 149245, Note_off_c, 4, 67, 64
6, 149277, Note_on_c, 4, 69, 89
6, 149300, Control_c, 4, 11, 94
6, 149340, Control_c, 4, 11, 87
6, 149380, Control_c, 4, 11, 80
6, 149419, Control_c, 4, 11, 74
6, 149459, Note_off_c, 4, 69, 64
6, 149485, Control_c, 4, 11, 100
6, 149515, Note_on_c, 4, 70, 88
6, 149618, Note_off_c, 4, 70, 64
6, 149632, Note_on_c, 4, 65, 79
6, 149740, Note_off_c, 4, 65, 64
6, 149756, Note_on_c, 4, 58, 66
6, 149760, Control_c, 4, 11, 94
6, 149803, Control_c, 4, 11, 86
6, 149846, Control_c, 4, 11, 79
6, 149889, Control_c, 4, 11, 72
6, 149916, Note_off_c, 4, 58, 64
6, 149950, Control_c, 4, 11, 100
6, 149994, Note_on_c, 4, 66, 87
6, 150123, Note_off_c, 4, 66, 64
6, 150231, Note_on_c, 4, 60, 81
6, 150348, Note_off_c, 4, 60, 64
6, 150473, Note_on_c, 4, 65, 94
6, 150566, Note_off_c, 4, 65, 64
6, 150695, Control_c, 4, 11, 92
6, 150714, Note_on_c, 4, 61, 86
6, 150733, Control_c, 4, 11, 96
6, 150772, Control_c, 4, 11, 100
6, 150811, Control_c, 4, 11, 105
6, 150849, Control_c, 4, 11, 110
6, 150885, Control_c, 4, 11, 96
6, 150935, Control_c, 4, 11, 82
6, 150975, Note_off_c, 4, 61, 64
6, 150980, Control_c, 4, 11, 72
6, 151040, Control_c, 4, 11, 100
6, 151678, Note_on_c, 4, 54, 88
6, 151838, Note_off_c, 4, 54, 64
6, 151919, Note_on_c, 4, 53, 76
6, 151996, Note_off_c, 4, 53, 64
6, 152157, Note_on_c, 4, 54, 85
6, 152254, Note_off_c, 4, 54, 64
6, 152395, Note_on_c, 4, 56, 85
6, 152483, Note_off_c, 4, 56, 64
6, 152630, Note_on_c, 4, 58, 85
6, 152779, Note_off_c, 4, 58, 64
6, 152870, Note_on_c, 4, 59, 85
6, 152971, Note_off_c, 4, 59, 64
6, 153112, Note_on_c, 4, 58, 85
6, 153201, Note_off_c, 4, 58, 64
6, 153353, Note_on_c, 4, 56, 85
6, 153442, Note_off_c, 4, 56, 64
6, 153594, Note_on_c, 4, 54, 85
6, 153780, Note_off_c, 4, 54, 64
6, 153833, Note_on_c, 4, 53, 77
6, 153918, Note_off_c, 4, 53, 64
6, 154073, Note_on_c, 4, 51, 85
6, 154167, Note_off_c, 4, 51, 64
6, 154311, Note_on_c, 4, 56, 85
6, 154389, Note_off_c, 4, 56, 64
6, 154555, Note_on_c, 4, 61, 85
6, 154565, Control_c, 4, 11, 96
6, 154607, Control_c, 4, 11, 89
6, 154649, Control_c, 4, 11, 82
6, 154699, Note_off_c, 4, 61, 64
6, 154735, Control_c, 4, 11, 100
6, 154802, Note_on_c, 4, 49, 95
6, 154904, Note_off_c, 4, 49, 64
6, 155038, Note_on_c, 4, 53, 76
6, 155121, Note_off_c, 4, 53, 64
6, 155280, Note_on_c, 4, 56, 76
6, 155370, Note_off_c, 4, 56, 64
6, 155500, Control_c, 4, 11, 86
6, 155520, Note_on_c, 4, 61, 68
6, 155538, Control_c, 4, 11, 91
6, 155577, Control_c, 4, 11, 96
6, 155616, Control_c, 4, 11, 102
6, 155654, Control_c, 4, 11, 108
6, 155695, Control_c, 4, 11, 92
6, 155734, Note_off_c, 4, 61, 64
6, 155750, Control_c, 4, 11, 80
6, 155815, Control_c, 4, 11, 100
6, 162478, Note_on_c, 4, 66, 95
6, 162568, Note_off_c, 4, 66, 64
6, 162590, Note_on_c, 4, 65, 70
6, 162680, Note_off_c, 4, 65, 64
6, 162708, Note_on_c, 4, 66, 65
6, 162725, Control_c, 4, 11, 96
6, 162766, Control_c, 4, 11, 91
6, 162808, Control_c, 4, 11, 86
6, 162849, Control_c, 4, 11, 82
6, 162858, Note_off_c, 4, 66, 64
6, 162965, Control_c, 4, 11, 100
6, 164398, Note_on_c, 4, 63, 90
6, 164488, Note_off_c, 4, 63, 64
6, 164511, Note_on_c, 4, 62, 69
6, 164601, Note_off_c, 4, 62, 64
6, 164634, Note_on_c, 4, 63, 67
6, 164640, Control_c, 4, 11, 94
6, 164685, Control_c, 4, 11, 88
6, 164730, Control_c, 4, 11, 82
6, 164774, Control_c, 4, 11, 76
6, 164784, Note_off_c, 4, 63, 64
6, 164875, Control_c, 4, 11, 100
6, 166802, Note_on_c, 4, 66, 121
6, 166892, Note_off_c, 4, 66, 64
6, 166914, Note_on_c, 4, 65, 82
6, 167004, Note_off_c, 4, 65, 64
6, 167028, Note_on_c, 4, 66, 88
6, 167035, Control_c, 4, 11, 98
6, 167087, Control_c, 4, 11, 87
6, 167139, Control_c, 4, 11, 76
6, 167178, Note_off_c, 4, 66, 64
6, 167225, Control_c, 4, 11, 100
6, 167284, Note_on_c, 4, 61, 88
6, 167374, Note_off_c, 4, 61, 64
6, 167396, Note_on_c, 4, 59, 88
6, 167486, Note_off_c, 4, 59, 64
6, 167502, Note_on_c, 4, 61, 88
6, 167520, Control_c, 4, 11, 94
6, 167561, Control_c, 4, 11, 87
6, 167603, Control_c, 4, 11, 80
6, 167644, Control_c, 4, 11, 74
6, 167652, Note_off_c, 4, 61, 64
6, 167715, Control_c, 4, 11, 100
6, 167763, Note_on_c, 4, 66, 118
6, 167853, Note_off_c, 4, 66, 64
6, 167876, Note_on_c, 4, 65, 84
6, 167966, Note_off_c, 4, 65, 64
6, 167982, Note_on_c, 4, 66, 89
6, 167995, Control_c, 4, 11, 96
6, 168033, Control_c, 4, 11, 90
6, 168071, Control_c, 4, 11, 84
6, 168109, Control_c, 4, 11, 78
6, 168132, Note_off_c, 4, 66, 64
6, 168180, Control_c, 4, 11, 100
6, 168243, Note_on_c, 4, 58, 88
6, 168333, Note_off_c, 4, 58, 64
6, 168356, Note_on_c, 4, 56, 80
6, 168446, Note_off_c, 4, 56, 64
6, 168457, Note_on_c, 4, 58, 88
6, 168480, Control_c, 4, 11, 94
6, 168535, Control_c, 4, 11, 82
6, 168589, Control_c, 4, 11, 70
6, 168591, Note_off_c, 4, 58, 64
6, 168660, Control_c, 4, 11, 100
6, 168723, Note_on_c, 4, 66, 107
6, 168813, Note_off_c, 4, 66, 64
6, 168836, Note_on_c, 4, 65, 102
6, 168926, Note_off_c, 4, 65, 64
6, 168948, Note_on_c, 4, 66, 91
6, 168960, Control_c, 4, 11, 92
6, 169000, Control_c, 4, 11, 85
6, 169040, Control_c, 4, 11, 78
6, 169079, Control_c, 4, 11, 72
6, 169098, Note_off_c, 4, 66, 64
6, 169130, Control_c, 4, 11, 100
6, 169203, Note_on_c, 4, 54, 110
6, 169293, Note_off_c, 4, 54, 64
6, 169316, Note_on_c, 4, 56, 99
6, 169406, Note_off_c, 4, 56, 64
6, 169422, Note_on_c, 4, 58, 88
6, 169430, Control_c, 4, 11, 94
6, 169477, Control_c, 4, 11, 86
6, 169524, Control_c, 4, 11, 78
6, 169553, Note_off_c, 4, 58, 64
6, 169585, Control_c, 4, 11, 100
6, 169671, Note_on_c, 4, 60, 111
6, 169788, Note_off_c, 4, 60, 64
6, 169920, Note_on_c, 4, 61, 107
6, 170032, Note_off_c, 4, 61, 64
6, 170036, Note_on_c, 4, 71, 80
6, 170112, Note_off_c, 4, 71, 64
6, 170156, Note_on_c, 4, 61, 85
6, 170263, Note_off_c, 4, 61, 64
6, 170270, Note_on_c, 4, 71, 80
6, 170344, Note_off_c, 4, 71, 64
6, 170388, Note_on_c, 4, 61, 85
6, 170506, Note_on_c, 4, 71, 79
6, 170507, Note_off_c, 4, 61, 64
6, 170585, Note_off_c, 4, 71, 64
6, 170624, Note_on_c, 4, 61, 89
6, 170746, Note_on_c, 4, 71, 79
6, 170750, Note_off_c, 4, 61, 64
6, 170828, Note_off_c, 4, 71, 64
6, 170873, Note_on_c, 4, 61, 93
6, 170990, Note_off_c, 4, 61, 64
6, 170993, Note_on_c, 4, 70, 78
6, 171070, Note_off_c, 4, 70, 64
6, 171109, Note_on_c, 4, 61, 78
6, 171230, Note_on_c, 4, 70, 78
6, 171241, Note_off_c, 4, 61, 64
6, 171305, Note_off_c, 4, 70, 64
6, 171349, Note_on_c, 4, 61, 81
6, 171469, Note_on_c, 4, 70, 78
6, 171475, Note_off_c, 4, 61, 64
6, 171546, Note_off_c, 4, 70, 64
6, 171590, Note_on_c, 4, 61, 83
6, 171709, Note_off_c, 4, 61, 64
6, 171709, Note_on_c, 4, 70, 78
6, 171803, Note_off_c, 4, 70, 64
6, 171832, Note_on_c, 4, 63, 88
6, 171950, Note_off_c, 4, 63, 64
6, 171952, Note_on_c, 4, 69, 65
6, 172042, Note_off_c, 4, 69, 64
6, 172069, Note_on_c, 4, 63, 78
6, 172190, Note_on_c, 4, 69, 67
6, 172197, Note_off_c, 4, 63, 64
6, 172280, Note_off_c, 4, 69, 64
6, 172313, Note_on_c, 4, 63, 86
6, 172430, Note_on_c, 4, 69, 69
6, 172431, Note_off_c, 4, 63, 64
6, 172507, Note_off_c, 4, 69, 64
6, 172551, Note_on_c, 4, 63, 88
6, 172671, Note_on_c, 4, 69, 75
6, 172674, Note_off_c, 4, 63, 64
6, 172756, Note_off_c, 4, 69, 64
6, 172797, Note_on_c, 4, 65, 85
6, 172908, Note_off_c, 4, 65, 64
6, 172912, Note_on_c, 4, 69, 70
6, 173001, Note_off_c, 4, 69, 64
6, 173031, Note_on_c, 4, 65, 83
6, 173146, Note_off_c, 4, 65, 64
6, 173151, Note_on_c, 4, 69, 64
6, 173224, Note_off_c, 4, 69, 64
6, 173268, Note_on_c, 4, 65, 88
6, 173387, Note_off_c, 4, 65, 64
6, 173387, Note_on_c, 4, 69, 66
6, 173473, Note_off_c, 4, 69, 64
6, 173506, Note_on_c, 4, 65, 86
6, 173621, Note_off_c, 4, 65, 64
6, 173625, Note_on_c, 4, 69, 66
6, 173704, Note_off_c, 4, 69, 64
6, 173747, Note_on_c, 4, 65, 80
6, 173874, Note_off_c, 4, 65, 64
6, 173875, Note_on_c, 4, 68, 74
6, 173953, Note_off_c, 4, 68, 64
6, 173992, Note_on_c, 4, 65, 67
6, 174115, Note_on_c, 4, 68, 74
6, 174116, Note_off_c, 4, 65, 64
6, 174199, Note_off_c, 4, 68, 64
6, 174235, Note_on_c, 4, 65, 69
6, 174351, Note_off_c, 4, 65, 64
6, 174352, Note_on_c, 4, 68, 74
6, 174427, Note_off_c, 4, 68, 64
6, 174469, Note_on_c, 4, 65, 64
6, 174581, Note_off_c, 4, 65, 64
6, 174588, Note_on_c, 4, 68, 74
6, 174687, Note_off_c, 4, 68, 64
6, 174711, Note_on_c, 4, 63, 78
6, 174823, Note_off_c, 4, 63, 64
6, 174831, Note_on_c, 4, 67, 59
6, 174930, Note_off_c, 4, 67, 64
6, 174952, Note_on_c, 4, 63, 74
6, 175070, Note_on_c, 4, 67, 58
6, 175076, Note_off_c, 4, 63, 64
6, 175168, Note_off_c, 4, 67, 64
6, 175187, Note_on_c, 4, 63, 73
6, 175307, Note_on_c, 4, 67, 57
6, 175318, Note_off_c, 4, 63, 64
6, 175397, Note_off_c, 4, 67, 64
6, 175428, Note_on_c, 4, 63, 72
6, 175547, Note_on_c, 4, 67, 54
6, 175555, Note_off_c, 4, 63, 64
6, 175665, Note_off_c, 4, 67, 64
6, 175671, Note_on_c, 4, 63, 72
6, 175780, Note_off_c, 4, 63, 64
6, 175787, Note_on_c, 4, 68, 63
6, 175872, Note_off_c, 4, 68, 64
6, 175909, Note_on_c, 4, 63, 72
6, 176025, Note_off_c, 4, 63, 64
6, 176032, Note_on_c, 4, 68, 53
6, 176106, Note_off_c, 4, 68, 64
6, 176152, Note_on_c, 4, 63, 63
6, 176265, Note_off_c, 4, 63, 64
6, 176272, Note_on_c, 4, 68, 48
6, 176353, Note_off_c, 4, 68, 64
6, 176393, Note_on_c, 4, 63, 60
6, 176510, Note_off_c, 4, 63, 64
6, 176511, Note_on_c, 4, 68, 53
6, 176585, Note_off_c, 4, 68, 64
6, 176638, Note_on_c, 4, 61, 41
6, 176720, Note_off_c, 4, 61, 64
6, 176876, Note_on_c, 4, 61, 33
6, 176979, Note_off_c, 4, 61, 64
6, 177120, Note_on_c, 4, 61, 29
6, 177225, Note_off_c, 4, 61, 64
6, 177353, Note_on_c, 4, 61, 32
6, 177462, Note_off_c, 4, 61, 64
6, 177603, Note_on_c, 4, 61, 36
6, 177730, Note_off_c, 4, 61, 64
6, 177840, Note_on_c, 4, 61, 41
6, 177940, Note_off_c, 4, 61, 64
6, 178078, Note_on_c, 4, 61, 42
6, 178181, Note_off_c, 4, 61, 64
6, 178317, Note_on_c, 4, 61, 47
6, 178409, Note_off_c, 4, 61, 64
6, 178561, Note_on_c, 4, 62, 56
6, 178692, Note_off_c, 4, 62, 64
6, 178795, Note_on_c, 4, 62, 53
6, 178909, Note_off_c, 4, 62, 64
6, 179033, Note_on_c, 4, 62, 46
6, 179131, Note_off_c, 4, 62, 64
6, 179267, Note_on_c, 4, 62, 49
6, 179384, Note_off_c, 4, 62, 64
6, 179511, Note_on_c, 4, 62, 53
6, 179624, Note_off_c, 4, 62, 64
6, 179743, Note_on_c, 4, 62, 54
6, 179847, Note_off_c, 4, 62, 64
6, 179984, Note_on_c, 4, 62, 56
6, 180091, Note_off_c, 4, 62, 64
6, 180226, Note_on_c, 4, 62, 58
6, 180335, Note_off_c, 4, 62, 64
6, 180470, Note_on_c, 4, 63, 63
6, 180604, Note_off_c, 4, 63, 64
6, 180712, Note_on_c, 4, 63, 59
6, 180829, Note_off_c, 4, 63, 64
6, 180950, Note_on_c, 4, 63, 59
6, 181064, Note_off_c, 4, 63, 64
6, 181193, Note_on_c, 4, 63, 59
6, 181299, Note_off_c, 4, 63, 64
6, 181435, Note_on_c, 4, 63, 59
6, 181552, Note_off_c, 4, 63, 64
6, 181675, Note_on_c, 4, 63, 59
6, 181782, Note_off_c, 4, 63, 64
6, 181917, Note_on_c, 4, 63, 59
6, 182018, Note_off_c, 4, 63, 64
6, 182156, Note_on_c, 4, 63, 59
6, 182256, Note_off_c, 4, 63, 64
6, 182394, Note_on_c, 4, 62, 62
6, 182538, Note_off_c, 4, 62, 64
6, 182636, Note_on_c, 4, 62, 56
6, 182747, Note_off_c, 4, 62, 64
6, 182874, Note_on_c, 4, 62, 53
6, 182998, Note_off_c, 4, 62, 64
6, 183113, Note_on_c, 4, 62, 50
6, 183234, Note_off_c, 4, 62, 64
6, 183353, Note_on_c, 4, 62, 55
6, 183470, Note_off_c, 4, 62, 64
6, 183592, Note_on_c, 4, 62, 54
6, 183704, Note_off_c, 4, 62, 64
6, 183829, Note_on_c, 4, 62, 55
6, 183941, Note_off_c, 4, 62, 64
6, 184071, Note_on_c, 4, 62, 57
6, 184191, Note_off_c, 4, 62, 64
6, 184317, Note_on_c, 4, 63, 66
6, 184427, Note_off_c, 4, 63, 64
6, 184558, Note_on_c, 4, 63, 63
6, 184654, Note_off_c, 4, 63, 64
6, 184794, Note_on_c, 4, 63, 62
6, 184889, Note_off_c, 4, 63, 64
6, 185031, Note_on_c, 4, 63, 68
6, 185137, Note_off_c, 4, 63, 64
6, 185268, Note_on_c, 4, 63, 71
6, 185383, Note_off_c, 4, 63, 64
6, 185507, Note_on_c, 4, 63, 71
6, 185616, Note_off_c, 4, 63, 64
6, 185750, Note_on_c, 4, 63, 71
6, 185853, Note_off_c, 4, 63, 64
6, 185993, Note_on_c, 4, 63, 71
6, 186101, Note_off_c, 4, 63, 64
6, 186232, Note_on_c, 4, 63, 82
6, 186373, Note_off_c, 4, 63, 64
6, 186471, Note_on_c, 4, 63, 71
6, 186578, Note_off_c, 4, 63, 64
6, 186708, Note_on_c, 4, 63, 71
6, 186833, Note_off_c, 4, 63, 64
6, 186951, Note_on_c, 4, 63, 71
6, 187062, Note_off_c, 4, 63, 64
6, 187198, Note_on_c, 4, 63, 71
6, 187317, Note_off_c, 4, 63, 64
6, 187442, Note_on_c, 4, 63, 76
6, 187542, Note_off_c, 4, 63, 64
6, 187678, Note_on_c, 4, 63, 72
6, 187782, Note_off_c, 4, 63, 64
6, 187914, Note_on_c, 4, 63, 72
6, 188023, Note_off_c, 4, 63, 64
6, 188159, Note_on_c, 4, 63, 80
6, 188210, Control_c, 4, 11, 100
6, 188255, Control_c, 4, 11, 91
6, 188300, Control_c, 4, 11, 82
6, 188344, Control_c, 4, 11, 74
6, 188354, Note_off_c, 4, 63, 64
6, 188385, Control_c, 4, 11, 100
6, 188404, Note_on_c, 4, 68, 92
6, 188494, Note_off_c, 4, 68, 64
6, 188517, Note_on_c, 4, 67, 69
6, 188607, Note_off_c, 4, 67, 64
6, 188631, Note_on_c, 4, 68, 78
6, 188640, Control_c, 4, 11, 92
6, 188678, Control_c, 4, 11, 85
6, 188716, Control_c, 4, 11, 78
6, 188754, Control_c, 4, 11, 72
6, 188781, Note_off_c, 4, 68, 64
6, 188860, Control_c, 4, 11, 100
6, 189832, Note_on_c, 4, 68, 98
6, 189912, Note_off_c, 4, 68, 64
6, 190080, Note_on_c, 4, 70, 110
6, 190085, Control_c, 4, 11, 96
6, 190125, Control_c, 4, 11, 89
6, 190165, Control_c, 4, 11, 82
6, 190205, Control_c, 4, 11, 75
6, 190244, Control_c, 4, 11, 68
6, 190260, Note_off_c, 4, 70, 64
6, 190310, Control_c, 4, 11, 100
6, 190324, Note_on_c, 4, 66, 113
6, 190414, Note_off_c, 4, 66, 64
6, 190436, Note_on_c, 4, 65, 68
6, 190526, Note_off_c, 4, 65, 64
6, 190545, Note_on_c, 4, 66, 78
6, 190560, Control_c, 4, 11, 94
6, 190615, Control_c, 4, 11, 84
6, 190669, Control_c, 4, 11, 74
6, 190695, Note_off_c, 4, 66, 64
6, 190760, Control_c, 4, 11, 100
6, 191750, Note_on_c, 4, 66, 92
6, 191811, Note_off_c, 4, 66, 64
6, 192000, Control_c, 4, 11, 96
6, 192000, Note_on_c, 4, 68, 104
6, 192038, Control_c, 4, 11, 90
6, 192077, Control_c, 4, 11, 85
6, 192116, Control_c, 4, 11, 79
6, 192154, Control_c, 4, 11, 74
6, 192180, Note_off_c, 4, 68, 64
6, 192210, Control_c, 4, 11, 100
6, 192244, Note_on_c, 4, 64, 107
6, 192334, Note_off_c, 4, 64, 64
6, 192356, Note_on_c, 4, 63, 81
6, 192446, Note_off_c, 4, 63, 64
6, 192463, Note_on_c, 4, 64, 78
6, 192480, Control_c, 4, 11, 94
6, 192521, Control_c, 4, 11, 86
6, 192563, Control_c, 4, 11, 79
6, 192604, Control_c, 4, 11, 72
6, 192613, Note_off_c, 4, 64, 64
6, 192665, Control_c, 4, 11, 100
6, 193668, Note_on_c, 4, 68, 96
6, 193738, Note_off_c, 4, 68, 64
6, 193920, Control_c, 4, 11, 94
6, 193920, Note_on_c, 4, 63, 106
6, 193958, Control_c, 4, 11, 90
6, 193997, Control_c, 4, 11, 87
6, 194036, Control_c, 4, 11, 83
6, 194074, Control_c, 4, 11, 80
6, 194106, Note_off_c, 4, 63, 64
6, 194130, Control_c, 4, 11, 100
6, 194164, Note_on_c, 4, 67, 117
6, 194254, Note_off_c, 4, 67, 64
6, 194276, Note_on_c, 4, 68, 85
6, 194366, Note_off_c, 4, 68, 64
6, 194386, Note_on_c, 4, 67, 80
6, 194400, Control_c, 4, 11, 96
6, 194445, Control_c, 4, 11, 88
6, 194490, Control_c, 4, 11, 81
6, 194534, Control_c, 4, 11, 74
6, 194561, Note_off_c, 4, 67, 64
6, 194610, Control_c, 4, 11, 100
6, 194643, Note_on_c, 4, 70, 127
6, 194733, Note_off_c, 4, 70, 64
6, 194756, Note_on_c, 4, 71, 103
6, 194846, Note_off_c, 4, 71, 64
6, 194869, Note_on_c, 4, 70, 82
6, 194875, Control_c, 4, 11, 96
6, 194915, Control_c, 4, 11, 90
6, 194955, Control_c, 4, 11, 84
6, 194994, Control_c, 4, 11, 78
6, 195063, Note_off_c, 4, 70, 64
6, 195085, Control_c, 4, 11, 100
6, 195124, Note_on_c, 4, 73, 127
6, 195214, Note_off_c, 4, 73, 64
6, 195236, Note_on_c, 4, 75, 101
6, 195326, Note_off_c, 4, 75, 64
6, 195351, Note_on_c, 4, 73, 92
6, 195365, Control_c, 4, 11, 96
6, 195415, Control_c, 4, 11, 87
6, 195464, Control_c, 4, 11, 78
6, 195503, Note_off_c, 4, 73, 64
6, 195530, Control_c, 4, 11, 100
6, 195600, Note_on_c, 4, 67, 86
6, 195690, Note_off_c, 4, 67, 64
6, 195837, Note_on_c, 4, 68, 95
6, 195990, Note_off_c, 4, 68, 64
6, 196074, Note_on_c, 4, 64, 85
6, 196155, Note_off_c, 4, 64, 64
6, 196310, Note_on_c, 4, 58, 85
6, 196420, Note_off_c, 4, 58, 64
6, 196554, Note_on_c, 4, 58, 85
6, 196652, Note_off_c, 4, 58, 64
6, 196801, Note_on_c, 4, 68, 127
6, 196917, Note_on_c, 4, 67, 88
6, 196937, Note_off_c, 4, 68, 64
6, 197032, Note_off_c, 4, 67, 64
6, 197035, Note_on_c, 4, 68, 85
6, 197118, Note_off_c, 4, 68, 64
6, 197152, Note_on_c, 4, 70, 106
6, 197228, Note_off_c, 4, 70, 64
6, 197275, Note_on_c, 4, 68, 120
6, 197380, Note_off_c, 4, 68, 64
6, 197392, Note_on_c, 4, 71, 85
6, 197471, Note_off_c, 4, 71, 64
6, 197512, Note_on_c, 4, 70, 123
6, 197607, Note_off_c, 4, 70, 64
6, 197631, Note_on_c, 4, 73, 114
6, 197721, Note_off_c, 4, 73, 64
6, 197754, Note_on_c, 4, 71, 120
6, 197874, Note_on_c, 4, 70, 95
6, 197890, Note_off_c, 4, 71, 64
6, 197990, Note_off_c, 4, 70, 64
6, 197993, Note_on_c, 4, 71, 86
6, 198084, Note_off_c, 4, 71, 64
6, 198121, Note_on_c, 4, 73, 126
6, 198202, Note_off_c, 4, 73, 64
6, 198242, Note_on_c, 4, 71, 120
6, 198339, Note_off_c, 4, 71, 64
6, 198354, Note_on_c, 4, 75, 103
6, 198440, Note_off_c, 4, 75, 64
6, 198476, Note_on_c, 4, 73, 127
6, 198551, Note_off_c, 4, 73, 64
6, 198593, Note_on_c, 4, 76, 117
6, 198670, Note_off_c, 4, 76, 64
6, 198715, Note_on_c, 4, 75, 126
6, 198835, Note_on_c, 4, 73, 96
6, 198842, Note_off_c, 4, 75, 64
6, 198948, Note_off_c, 4, 73, 64
6, 198955, Note_on_c, 4, 75, 106
6, 199039, Note_off_c, 4, 75, 64
6, 199072, Note_on_c, 4, 76, 101
6, 199145, Note_off_c, 4, 76, 64
6, 199194, Note_on_c, 4, 75, 114
6, 199312, Note_on_c, 4, 76, 85
6, 199315, Note_off_c, 4, 75, 64
6, 199419, Note_off_c, 4, 76, 64
6, 199433, Note_on_c, 4, 75, 106
6, 199519, Note_off_c, 4, 75, 64
6, 199552, Note_on_c, 4, 73, 114
6, 199629, Note_off_c, 4, 73, 64
6, 199672, Note_on_c, 4, 71, 120
6, 199791, Note_off_c, 4, 71, 64
6, 199793, Note_on_c, 4, 73, 103
6, 199892, Note_off_c, 4, 73, 64
6, 199915, Note_on_c, 4, 71, 120
6, 199984, Note_off_c, 4, 71, 64
6, 200034, Note_on_c, 4, 70, 120
6, 200107, Note_off_c, 4, 70, 64
6, 200155, Note_on_c, 4, 68, 117
6, 200252, Note_off_c, 4, 68, 64
6, 200274, Note_on_c, 4, 71, 115
6, 200365, Note_off_c, 4, 71, 64
6, 200395, Note_on_c, 4, 70, 106
6, 200473, Note_off_c, 4, 70, 64
6, 200514, Note_on_c, 4, 68, 92
6, 200589, Note_off_c, 4, 68, 64
6, 200636, Note_on_c, 4, 66, 93
6, 200761, Note_off_c, 4, 66, 64
6, 200875, Note_on_c, 4, 63, 78
6, 200976, Note_off_c, 4, 63, 64
6, 201360, Note_on_c, 4, 63, 123
6, 201454, Note_off_c, 4, 63, 64
6, 201603, Note_on_c, 4, 66, 126
6, 201735, Note_off_c, 4, 66, 64
6, 201833, Note_on_c, 4, 70, 114
6, 201937, Note_off_c, 4, 70, 64
6, 202071, Note_on_c, 4, 66, 114
6, 202164, Note_off_c, 4, 66, 64
6, 202311, Note_on_c, 4, 63, 117
6, 202410, Note_off_c, 4, 63, 64
6, 202552, Note_on_c, 4, 66, 126
6, 202691, Note_off_c, 4, 66, 64
6, 202788, Note_on_c, 4, 70, 111
6, 202890, Note_off_c, 4, 70, 64
6, 203033, Note_on_c, 4, 66, 114
6, 203129, Note_off_c, 4, 66, 64
6, 203275, Note_on_c, 4, 63, 107
6, 203377, Note_off_c, 4, 63, 64
6, 203513, Note_on_c, 4, 70, 114
6, 203676, Note_off_c, 4, 70, 64
6, 203759, Note_on_c, 4, 70, 123
6, 203842, Note_off_c, 4, 70, 64
6, 203867, Note_on_c, 4, 70, 97
6, 203957, Note_off_c, 4, 70, 64
6, 203992, Note_on_c, 4, 70, 120
6, 204154, Note_off_c, 4, 70, 64
6, 204714, Note_on_c, 4, 58, 127
6, 204815, Note_off_c, 4, 58, 64
6, 204831, Note_on_c, 4, 56, 123
6, 204915, Note_off_c, 4, 56, 64
6, 204953, Note_on_c, 4, 58, 127
6, 205068, Note_off_c, 4, 58, 64
6, 205069, Note_on_c, 4, 59, 114
6, 205172, Note_off_c, 4, 59, 64
6, 205189, Note_on_c, 4, 58, 127
6, 205272, Note_off_c, 4, 58, 64
6, 205308, Note_on_c, 4, 56, 112
6, 205393, Note_off_c, 4, 56, 64
6, 205436, Note_on_c, 4, 54, 111
6, 205552, Note_on_c, 4, 53, 97
6, 205569, Note_off_c, 4, 54, 64
6, 205669, Note_on_c, 4, 54, 86
6, 205682, Note_off_c, 4, 53, 64
6, 205759, Note_off_c, 4, 54, 64
6, 205788, Note_on_c, 4, 56, 107
6, 205877, Note_off_c, 4, 56, 64
6, 205911, Note_on_c, 4, 54, 117
6, 206008, Note_off_c, 4, 54, 64
6, 206027, Note_on_c, 4, 58, 86
6, 206110, Note_off_c, 4, 58, 64
6, 206147, Note_on_c, 4, 56, 123
6, 206248, Note_off_c, 4, 56, 64
6, 206262, Note_on_c, 4, 59, 97
6, 206347, Note_off_c, 4, 59, 64
6, 206401, Note_on_c, 4, 58, 127
6, 206505, Note_on_c, 4, 56, 85
6, 206532, Note_off_c, 4, 58, 64
6, 206627, Note_on_c, 4, 58, 95
6, 206641, Note_off_c, 4, 56, 64
6, 206710, Note_off_c, 4, 58, 64
6, 206753, Note_on_c, 4, 59, 117
6, 206835, Note_off_c, 4, 59, 64
6, 206872, Note_on_c, 4, 58, 120
6, 206966, Note_off_c, 4, 58, 64
6, 206988, Note_on_c, 4, 61, 103
6, 207064, Note_off_c, 4, 61, 64
6, 207115, Note_on_c, 4, 59, 123
6, 207208, Note_off_c, 4, 59, 64
6, 207234, Note_on_c, 4, 63, 104
6, 207311, Note_off_c, 4, 63, 64
6, 207357, Note_on_c, 4, 61, 123
6, 207470, Note_off_c, 4, 61, 64
6, 207476, Note_on_c, 4, 63, 103
6, 207578, Note_off_c, 4, 63, 64
6, 207598, Note_on_c, 4, 61, 111
6, 207693, Note_off_c, 4, 61, 64
6, 207714, Note_on_c, 4, 59, 107
6, 207795, Note_off_c, 4, 59, 64
6, 207837, Note_on_c, 4, 58, 106
6, 207915, Note_off_c, 4, 58, 64
6, 207955, Note_on_c, 4, 66, 126
6, 208040, Note_off_c, 4, 66, 64
6, 208073, Note_on_c, 4, 65, 122
6, 208167, Note_off_c, 4, 65, 64
6, 208192, Note_on_c, 4, 63, 107
6, 208276, Note_off_c, 4, 63, 64
6, 208313, Note_on_c, 4, 61, 111
6, 208371, Note_off_c, 4, 61, 64
6, 208438, Note_on_c, 4, 73, 117
6, 208529, Note_off_c, 4, 73, 64
6, 208551, Note_on_c, 4, 72, 85
6, 208646, Note_off_c, 4, 72, 64
6, 208673, Note_on_c, 4, 70, 117
6, 208759, Note_off_c, 4, 70, 64
6, 208790, Note_on_c, 4, 68, 107
6, 208888, Note_off_c, 4, 68, 64
6, 208909, Note_on_c, 4, 70, 103
6, 208990, Note_off_c, 4, 70, 64
6, 209028, Note_on_c, 4, 68, 106
6, 209109, Note_off_c, 4, 68, 64
6, 209148, Note_on_c, 4, 66, 80
6, 209217, Note_off_c, 4, 66, 64
6, 209277, Note_on_c, 4, 68, 66
6, 209390, Note_off_c, 4, 68, 64
6, 209517, Note_on_c, 4, 68, 56
6, 209609, Note_off_c, 4, 68, 64
6, 209757, Note_on_c, 4, 68, 48
6, 209837, Note_off_c, 4, 68, 64
6, 209993, Note_on_c, 4, 68, 45
6, 210076, Note_off_c, 4, 68, 64
6, 210231, Note_on_c, 4, 68, 56
6, 210314, Note_off_c, 4, 68, 64
6, 210474, Note_on_c, 4, 68, 52
6, 210553, Note_off_c, 4, 68, 64
6, 210709, Note_on_c, 4, 68, 52
6, 210789, Note_off_c, 4, 68, 64
6, 210949, Note_on_c, 4, 68, 54
6, 211046, Note_off_c, 4, 68, 64
6, 211197, Note_on_c, 4, 70, 51
6, 211306, Note_off_c, 4, 70, 64
6, 211438, Note_on_c, 4, 70, 53
6, 211519, Note_off_c, 4, 70, 64
6, 211679, Note_on_c, 4, 70, 54
6, 211747, Note_off_c, 4, 70, 64
6, 211910, Note_on_c, 4, 70, 55
6, 211989, Note_off_c, 4, 70, 64
6, 212149, Note_on_c, 4, 70, 48
6, 212228, Note_off_c, 4, 70, 64
6, 212390, Note_on_c, 4, 70, 63
6, 212476, Note_off_c, 4, 70, 64
6, 212627, Note_on_c, 4, 70, 54
6, 212718, Note_off_c, 4, 70, 64
6, 212871, Note_on_c, 4, 70, 52
6, 212962, Note_off_c, 4, 70, 64
6, 213108, Note_on_c, 4, 70, 68
6, 213189, Note_off_c, 4, 70, 64
6, 213349, Note_on_c, 4, 70, 57
6, 213447, Note_off_c, 4, 70, 64
6, 213590, Note_on_c, 4, 70, 57
6, 213676, Note_off_c, 4, 70, 64
6, 213826, Note_on_c, 4, 70, 74
6, 213925, Note_off_c, 4, 70, 64
6, 214062, Note_on_c, 4, 70, 69
6, 214171, Note_off_c, 4, 70, 64
6, 214306, Note_on_c, 4, 70, 65
6, 214400, Note_off_c, 4, 70, 64
6, 214541, Note_on_c, 4, 70, 62
6, 214641, Note_off_c, 4, 70, 64
6, 214783, Note_on_c, 4, 70, 63
6, 214890, Note_off_c, 4, 70, 64
6, 215038, Note_on_c, 4, 66, 115
6, 215157, Note_on_c, 4, 65, 86
6, 215181, Note_off_c, 4, 66, 64
6, 215274, Note_on_c, 4, 66, 79
6, 215286, Note_off_c, 4, 65, 64
6, 215366, Note_off_c, 4, 66, 64
6, 215400, Note_on_c, 4, 75, 101
6, 215480, Note_off_c, 4, 75, 64
6, 215520, Note_on_c, 4, 72, 99
6, 215629, Note_off_c, 4, 72, 64
6, 215636, Note_on_c, 4, 66, 98
6, 215718, Note_off_c, 4, 66, 64
6, 215753, Note_on_c, 4, 63, 79
6, 215840, Note_off_c, 4, 63, 64
6, 215870, Note_on_c, 4, 56, 76
6, 215971, Note_off_c, 4, 56, 64
6, 216004, Note_on_c, 4, 66, 116
6, 216116, Note_on_c, 4, 65, 89
6, 216139, Note_off_c, 4, 66, 64
6, 216239, Note_off_c, 4, 65, 64
6, 216241, Note_on_c, 4, 66, 71
6, 216322, Note_off_c, 4, 66, 64
6, 216371, Note_on_c, 4, 75, 101
6, 216444, Note_off_c, 4, 75, 64
6, 216487, Note_on_c, 4, 72, 103
6, 216584, Note_off_c, 4, 72, 64
6, 216601, Note_on_c, 4, 66, 94
6, 216683, Note_off_c, 4, 66, 64
6, 216714, Note_on_c, 4, 63, 78
6, 216801, Note_off_c, 4, 63, 64
6, 216831, Note_on_c, 4, 56, 79
6, 216910, Note_off_c, 4, 56, 64
6, 216955, Note_on_c, 4, 68, 68
6, 217072, Note_on_c, 4, 66, 59
6, 217079, Note_off_c, 4, 68, 64
6, 217191, Note_on_c, 4, 68, 57
6, 217194, Note_off_c, 4, 66, 64
6, 217337, Note_off_c, 4, 68, 64
6, 217925, Note_on_c, 4, 68, 64
6, 218038, Note_off_c, 4, 68, 64
6, 218041, Note_on_c, 4, 66, 58
6, 218162, Note_on_c, 4, 68, 58
6, 218166, Note_off_c, 4, 66, 64
6, 218312, Note_off_c, 4, 68, 64
6, 218872, Note_on_c, 4, 73, 69
6, 218992, Note_on_c, 4, 71, 47
6, 218998, Note_off_c, 4, 73, 64
6, 219112, Note_on_c, 4, 73, 47
6, 219121, Note_off_c, 4, 71, 64
6, 219239, Note_off_c, 4, 73, 64
6, 219824, Note_on_c, 4, 73, 58
6, 219949, Note_on_c, 4, 71, 46
6, 219973, Note_off_c, 4, 73, 64
6, 220074, Note_on_c, 4, 73, 46
6, 220083, Note_off_c, 4, 71, 64
6, 220201, Note_off_c, 4, 73, 64
6, 221278, Note_on_c, 4, 69, 60
6, 221386, Note_on_c, 4, 71, 51
6, 221391, Note_off_c, 4, 69, 64
6, 221506, Note_on_c, 4, 69, 50
6, 221514, Note_off_c, 4, 71, 64
6, 221520, Control_c, 4, 11, 96
6, 221558, Control_c, 4, 11, 90
6, 221596, Control_c, 4, 11, 85
6, 221616, Note_off_c, 4, 69, 64
6, 221634, Control_c, 4, 11, 80
6, 221680, Control_c, 4, 11, 100
6, 222231, Note_on_c, 4, 69, 59
6, 222348, Note_on_c, 4, 71, 50
6, 222371, Note_off_c, 4, 69, 64
6, 222456, Note_off_c, 4, 71, 64
6, 222460, Control_c, 4, 11, 96
6, 222464, Note_on_c, 4, 69, 48
6, 222508, Control_c, 4, 11, 88
6, 222556, Control_c, 4, 11, 81
6, 222579, Note_off_c, 4, 69, 64
6, 222604, Control_c, 4, 11, 74
6, 222655, Control_c, 4, 11, 100
6, 223194, Note_on_c, 4, 69, 74
6, 223311, Note_on_c, 4, 71, 71
6, 223326, Note_off_c, 4, 69, 64
6, 223424, Note_on_c, 4, 69, 55
6, 223425, Note_off_c, 4, 71, 64
6, 223435, Control_c, 4, 11, 94
6, 223481, Control_c, 4, 11, 88
6, 223528, Control_c, 4, 11, 83
6, 223534, Note_off_c, 4, 69, 64
6, 223574, Control_c, 4, 11, 78
6, 223630, Control_c, 4, 11, 100
6, 224154, Note_on_c, 4, 69, 86
6, 224273, Note_on_c, 4, 71, 74
6, 224286, Note_off_c, 4, 69, 64
6, 224382, Note_off_c, 4, 71, 64
6, 224385, Control_c, 4, 11, 96
6, 224388, Note_on_c, 4, 69, 44
6, 224426, Control_c, 4, 11, 89
6, 224468, Control_c, 4, 11, 82
6, 224498, Note_off_c, 4, 69, 64
6, 224509, Control_c, 4, 11, 76
6, 224600, Control_c, 4, 11, 100
6, 225113, Note_on_c, 4, 69, 96
6, 225229, Note_on_c, 4, 71, 76
6, 225248, Note_off_c, 4, 69, 64
6, 225343, Note_off_c, 4, 71, 64
6, 225345, Note_on_c, 4, 69, 48
6, 225355, Control_c, 4, 11, 94
6, 225396, Control_c, 4, 11, 86
6, 225438, Control_c, 4, 11, 78
6, 225466, Note_off_c, 4, 69, 64
6, 225479, Control_c, 4, 11, 70
6, 225525, Control_c, 4, 11, 100
6, 226072, Note_on_c, 4, 69, 104
6, 226188, Note_on_c, 4, 71, 78
6, 226199, Note_off_c, 4, 69, 64
6, 226307, Note_off_c, 4, 71, 64
6, 226307, Note_on_c, 4, 69, 54
6, 226310, Control_c, 4, 11, 94
6, 226353, Control_c, 4, 11, 88
6, 226396, Control_c, 4, 11, 83
6, 226427, Note_off_c, 4, 69, 64
6, 226439, Control_c, 4, 11, 78
6, 226525, Control_c, 4, 11, 100
6, 227030, Note_on_c, 4, 69, 107
6, 227145, Note_on_c, 4, 71, 81
6, 227146, Note_off_c, 4, 69, 64
6, 227258, Note_off_c, 4, 71, 64
6, 227258, Note_on_c, 4, 69, 67
6, 227270, Control_c, 4, 11, 94
6, 227310, Control_c, 4, 11, 88
6, 227350, Control_c, 4, 11, 83
6, 227384, Note_off_c, 4, 69, 64
6, 227389, Control_c, 4, 11, 78
6, 227480, Control_c, 4, 11, 100
6, 227996, Note_on_c, 4, 69, 119
6, 228108, Note_on_c, 4, 71, 83
6, 228110, Note_off_c, 4, 69, 64
6, 228210, Note_off_c, 4, 71, 64
6, 228224, Note_on_c, 4, 69, 72
6, 228240, Control_c, 4, 11, 96
6, 228295, Control_c, 4, 11, 88
6, 228349, Control_c, 4, 11, 80
6, 228350, Note_off_c, 4, 69, 64
6, 228425, Control_c, 4, 11, 100
6, 228954, Note_on_c, 4, 68, 124
6, 229069, Note_on_c, 4, 69, 69
6, 229088, Note_off_c, 4, 68, 64
6, 229175, Note_off_c, 4, 69, 64
6, 229183, Note_on_c, 4, 68, 86
6, 229185, Control_c, 4, 11, 96
6, 229223, Control_c, 4, 11, 89
6, 229261, Control_c, 4, 11, 82
6, 229273, Note_off_c, 4, 68, 64
6, 229299, Control_c, 4, 11, 76
6, 229350, Control_c, 4, 11, 100
6, 229916, Note_on_c, 4, 68, 101
6, 230030, Note_on_c, 4, 69, 96
6, 230045, Note_off_c, 4, 68, 64
6, 230125, Control_c, 4, 11, 94
6, 230144, Note_off_c, 4, 69, 64
6, 230150, Note_on_c, 4, 68, 102
6, 230175, Control_c, 4, 11, 86
6, 230224, Control_c, 4, 11, 78
6, 230241, Note_off_c, 4, 68, 64
6, 230290, Control_c, 4, 11, 100
6, 230393, Note_on_c, 4, 69, 116
6, 230410, Control_c, 4, 11, 94
6, 230458, Control_c, 4, 11, 87
6, 230506, Control_c, 4, 11, 80
6, 230550, Note_off_c, 4, 69, 64
6, 230554, Control_c, 4, 11, 74
6, 230595, Control_c, 4, 11, 100
6, 230642, Note_on_c, 4, 66, 116
6, 230732, Note_off_c, 4, 66, 64
6, 230754, Note_on_c, 4, 65, 75
6, 230844, Note_off_c, 4, 65, 64
6, 230869, Note_on_c, 4, 66, 83
6, 230880, Control_c, 4, 11, 92
6, 230921, Control_c, 4, 11, 87
6, 230962, Control_c, 4, 11, 82
6, 231003, Control_c, 4, 11, 77
6, 231019, Note_off_c, 4, 66, 64
6, 231044, Control_c, 4, 11, 72
6, 231105, Control_c, 4, 11, 100
6, 232072, Note_on_c, 4, 66, 113
6, 232147, Note_off_c, 4, 66, 64
6, 232314, Note_on_c, 4, 68, 116
6, 232315, Control_c, 4, 11, 94
6, 232353, Control_c, 4, 11, 88
6, 232392, Control_c, 4, 11, 83
6, 232431, Control_c, 4, 11, 77
6, 232469, Control_c, 4, 11, 72
6, 232489, Note_off_c, 4, 68, 64
6, 232535, Control_c, 4, 11, 100
6, 232564, Note_on_c, 4, 64, 116
6, 232654, Note_off_c, 4, 64, 64
6, 232676, Note_on_c, 4, 63, 88
6, 232766, Note_off_c, 4, 63, 64
6, 232789, Note_on_c, 4, 64, 79
6, 232800, Control_c, 4, 11, 96
6, 232845, Control_c, 4, 11, 90
6, 232890, Control_c, 4, 11, 84
6, 232934, Control_c, 4, 11, 78
6, 232939, Note_off_c, 4, 64, 64
6, 233005, Control_c, 4, 11, 100
6, 233987, Note_on_c, 4, 64, 116
6, 234068, Note_off_c, 4, 64, 64
6, 234235, Control_c, 4, 11, 98
6, 234240, Note_on_c, 4, 66, 116
6, 234272, Control_c, 4, 11, 93
6, 234310, Control_c, 4, 11, 88
6, 234347, Control_c, 4, 11, 83
6, 234384, Control_c, 4, 11, 78
6, 234412, Note_off_c, 4, 66, 64
6, 234475, Control_c, 4, 11, 100
6, 234484, Note_on_c, 4, 62, 116
6, 234574, Note_off_c, 4, 62, 64
6, 234596, Note_on_c, 4, 61, 83
6, 234686, Note_off_c, 4, 61, 64
6, 234709, Note_on_c, 4, 62, 77
6, 234720, Control_c, 4, 11, 96
6, 234760, Control_c, 4, 11, 88
6, 234800, Control_c, 4, 11, 81
6, 234839, Control_c, 4, 11, 74
6, 234859, Note_off_c, 4, 62, 64
6, 234935, Control_c, 4, 11, 100
6, 235920, Note_on_c, 4, 66, 78
6, 236032, Note_off_c, 4, 66, 64
6, 236160, Note_on_c, 4, 68, 107
6, 236264, Note_off_c, 4, 68, 64
6, 236284, Note_on_c, 4, 65, 102
6, 236361, Note_off_c, 4, 65, 64
6, 236402, Note_on_c, 4, 61, 112
6, 236507, Note_off_c, 4, 61, 64
6, 236515, Note_on_c, 4, 63, 104
6, 236616, Note_off_c, 4, 63, 64
6, 236634, Note_on_c, 4, 65, 103
6, 236744, Note_off_c, 4, 65, 64
6, 236752, Note_on_c, 4, 66, 87
6, 236861, Note_off_c, 4, 66, 64
6, 236868, Note_on_c, 4, 68, 106
6, 236987, Note_on_c, 4, 69, 95
6, 236997, Note_off_c, 4, 68, 64
6, 237089, Note_off_c, 4, 69, 64
6, 237107, Note_on_c, 4, 71, 89
6, 237427, Note_off_c, 4, 71, 64
6, 237844, Note_on_c, 4, 68, 69
6, 237934, Note_off_c, 4, 68, 64
6, 238076, Note_on_c, 4, 65, 79
6, 238165, Control_c, 4, 11, 90
6, 238207, Control_c, 4, 11, 85
6, 238250, Control_c, 4, 11, 80
6, 238292, Control_c, 4, 11, 75
6, 238334, Control_c, 4, 11, 70
6, 238339, Note_off_c, 4, 65, 64
6, 238420, Control_c, 4, 11, 100
6, 238804, Note_on_c, 4, 68, 75
6, 238894, Note_off_c, 4, 68, 64
6, 239038, Note_on_c, 4, 61, 84
6, 239120, Control_c, 4, 11, 96
6, 239163, Control_c, 4, 11, 90
6, 239207, Control_c, 4, 11, 84
6, 239251, Control_c, 4, 11, 78
6, 239285, Note_off_c, 4, 61, 64
6, 239294, Control_c, 4, 11, 72
6, 239345, Control_c, 4, 11, 100
6, 239764, Note_on_c, 4, 71, 116
6, 239854, Note_off_c, 4, 71, 64
6, 239876, Note_on_c, 4, 69, 103
6, 239966, Note_off_c, 4, 69, 64
6, 239997, Note_on_c, 4, 71, 92
6, 240005, Control_c, 4, 11, 94
6, 240050, Control_c, 4, 11, 87
6, 240095, Control_c, 4, 11, 80
6, 240139, Control_c, 4, 11, 74
6, 240147, Note_off_c, 4, 71, 64
6, 240190, Control_c, 4, 11, 100
6, 240722, Note_on_c, 4, 68, 116
6, 240812, Note_off_c, 4, 68, 64
6, 240834, Note_on_c, 4, 66, 89
6, 240924, Note_off_c, 4, 66, 64
6, 240951, Note_on_c, 4, 65, 90
6, 240955, Control_c, 4, 11, 96
6, 241000, Control_c, 4, 11, 88
6, 241045, Control_c, 4, 11, 80
6, 241089, Control_c, 4, 11, 72
6, 241101, Note_off_c, 4, 65, 64
6, 241150, Control_c, 4, 11, 100
6, 241678, Note_on_c, 4, 73, 123
6, 241730, Note_off_c, 4, 73, 64
6, 241870, Control_c, 4, 11, 78
6, 241905, Control_c, 4, 11, 83
6, 241919, Note_on_c, 4, 74, 127
6, 241941, Control_c, 4, 11, 89
6, 241977, Control_c, 4, 11, 95
6, 242013, Control_c, 4, 11, 101
6, 242049, Control_c, 4, 11, 107
6, 242084, Control_c, 4, 11, 114
6, 242140, Control_c, 4, 11, 98
6, 242205, Control_c, 4, 11, 80
6, 242224, Note_off_c, 4, 74, 64
6, 242265, Control_c, 4, 11, 100
6, 242288, Note_on_c, 4, 73, 123
6, 242379, Note_off_c, 4, 73, 64
6, 242403, Note_on_c, 4, 71, 114
6, 242474, Note_off_c, 4, 71, 64
6, 242516, Note_on_c, 4, 69, 117
6, 242593, Note_off_c, 4, 69, 64
6, 242627, Note_on_c, 4, 68, 111
6, 242719, Note_off_c, 4, 68, 64
6, 242744, Note_on_c, 4, 66, 106
6, 242838, Note_off_c, 4, 66, 64
6, 242865, Control_c, 4, 11, 90
6, 242872, Note_on_c, 4, 68, 85
6, 242903, Control_c, 4, 11, 97
6, 242941, Control_c, 4, 11, 105
6, 242979, Control_c, 4, 11, 114
6, 243025, Control_c, 4, 11, 98
6, 243065, Control_c, 4, 11, 82
6, 243077, Note_off_c, 4, 68, 64
6, 243105, Control_c, 4, 11, 100
6, 243116, Note_on_c, 4, 61, 117
6, 243228, Note_off_c, 4, 61, 64
6, 243330, Control_c, 4, 11, 86
6, 243349, Note_on_c, 4, 59, 117
6, 243375, Control_c, 4, 11, 95
6, 243420, Control_c, 4, 11, 104
6, 243464, Control_c, 4, 11, 114
6, 243505, Control_c, 4, 11, 96
6, 243545, Control_c, 4, 11, 84
6, 243552, Note_off_c, 4, 59, 64
6, 243595, Control_c, 4, 11, 100
6, 243604, Note_on_c, 4, 58, 127
6, 243694, Note_off_c, 4, 58, 64
6, 243717, Note_on_c, 4, 56, 98
6, 243807, Note_off_c, 4, 56, 64
6, 243835, Control_c, 4, 11, 94
6, 243842, Note_on_c, 4, 58, 114
6, 243878, Control_c, 4, 11, 88
6, 243921, Control_c, 4, 11, 82
6, 243964, Control_c, 4, 11, 76
6, 243998, Note_off_c, 4, 58, 64
6, 244035, Control_c, 4, 11, 100
6, 244081, Note_on_c, 4, 61, 107
6, 244168, Note_off_c, 4, 61, 64
6, 244318, Note_on_c, 4, 58, 114
6, 244401, Note_off_c, 4, 58, 64
6, 244561, Note_on_c, 4, 54, 123
6, 244673, Note_off_c, 4, 54, 64
6, 244799, Note_on_c, 4, 58, 126
6, 244820, Control_c, 4, 11, 94
6, 244866, Control_c, 4, 11, 87
6, 244913, Control_c, 4, 11, 80
6, 244959, Control_c, 4, 11, 74
6, 244984, Note_off_c, 4, 58, 64
6, 245020, Control_c, 4, 11, 100
6, 245036, Note_on_c, 4, 61, 98
6, 245129, Note_off_c, 4, 61, 64
6, 245277, Note_on_c, 4, 58, 117
6, 245369, Note_off_c, 4, 58, 64
6, 245516, Note_on_c, 4, 54, 107
6, 245607, Note_off_c, 4, 54, 64
6, 245756, Note_on_c, 4, 58, 111
6, 245900, Note_off_c, 4, 58, 64
6, 245995, Note_on_c, 4, 61, 117
6, 246133, Note_off_c, 4, 61, 64
6, 246237, Note_on_c, 4, 66, 127
6, 246325, Note_off_c, 4, 66, 64
6, 246347, Note_on_c, 4, 70, 111
6, 246463, Note_off_c, 4, 70, 64
6, 246464, Note_on_c, 4, 68, 103
6, 246564, Note_off_c, 4, 68, 64
6, 246579, Note_on_c, 4, 66, 97
6, 246673, Note_off_c, 4, 66, 64
6, 246712, Note_on_c, 4, 65, 104
6, 246725, Control_c, 4, 11, 96
6, 246766, Control_c, 4, 11, 90
6, 246808, Control_c, 4, 11, 85
6, 246849, Control_c, 4, 11, 80
6, 246868, Note_off_c, 4, 65, 64
6, 246925, Control_c, 4, 11, 100
6, 246962, Note_on_c, 4, 61, 92
6, 247056, Note_off_c, 4, 61, 64
6, 247440, Note_on_c, 4, 70, 111
6, 247521, Note_off_c, 4, 70, 64
6, 247682, Note_on_c, 4, 65, 122
6, 247685, Control_c, 4, 11, 96
6, 247725, Control_c, 4, 11, 90
6, 247765, Control_c, 4, 11, 85
6, 247804, Control_c, 4, 11, 80
6, 247808, Note_off_c, 4, 65, 64
6, 247890, Control_c, 4, 11, 100
6, 247924, Note_on_c, 4, 61, 96
6, 248003, Note_off_c, 4, 61, 64
6, 248395, Note_on_c, 4, 66, 96
6, 248474, Note_off_c, 4, 66, 64
6, 248633, Note_on_c, 4, 65, 122
6, 248752, Note_off_c, 4, 65, 64
6, 248878, Note_on_c, 4, 61, 93
6, 248963, Note_off_c, 4, 61, 64
6, 249357, Note_on_c, 4, 68, 114
6, 249437, Note_off_c, 4, 68, 64
6, 249565, Control_c, 4, 11, 86
6, 249595, Note_on_c, 4, 61, 123
6, 249611, Control_c, 4, 11, 95
6, 249658, Control_c, 4, 11, 105
6, 249704, Control_c, 4, 11, 116
6, 249740, Control_c, 4, 11, 98
6, 249785, Control_c, 4, 11, 82
6, 249827, Note_off_c, 4, 61, 64
6, 249830, Control_c, 4, 11, 100
6, 249844, Note_on_c, 4, 59, 111
6, 249934, Note_off_c, 4, 59, 64
6, 249956, Note_on_c, 4, 58, 106
6, 250046, Note_off_c, 4, 58, 64
6, 250055, Control_c, 4, 11, 78
6, 250067, Note_on_c, 4, 59, 114
6, 250100, Control_c, 4, 11, 88
6, 250145, Control_c, 4, 11, 99
6, 250189, Control_c, 4, 11, 110
6, 250230, Control_c, 4, 11, 96
6, 250270, Control_c, 4, 11, 76
6, 250283, Note_off_c, 4, 59, 64
6, 250310, Control_c, 4, 11, 100
6, 250324, Note_on_c, 4, 58, 107
6, 250414, Note_off_c, 4, 58, 64
6, 250436, Note_on_c, 4, 56, 91
6, 250526, Note_off_c, 4, 56, 64
6, 250549, Note_on_c, 4, 54, 85
6, 250704, Note_off_c, 4, 54, 64
6, 250800, Note_on_c, 4, 66, 106
6, 250875, Note_off_c, 4, 66, 64
6, 251039, Note_on_c, 4, 66, 126
6, 251122, Note_off_c, 4, 66, 64
6, 251287, Note_on_c, 4, 54, 111
6, 251352, Note_off_c, 4, 54, 64
6, 251523, Note_on_c, 4, 54, 126
6, 251668, Note_off_c, 4, 54, 64
6, 251762, Note_on_c, 4, 66, 114
6, 251844, Note_off_c, 4, 66, 64
6, 252000, Note_on_c, 4, 66, 127
6, 252108, Note_off_c, 4, 66, 64
6, 252241, Note_on_c, 4, 54, 114
6, 252319, Note_off_c, 4, 54, 64
6, 252479, Note_on_c, 4, 54, 127
6, 252650, Note_off_c, 4, 54, 64
6, 252721, Note_on_c, 4, 66, 123
6, 252802, Note_off_c, 4, 66, 64
6, 252958, Note_on_c, 4, 66, 127
6, 253053, Note_off_c, 4, 66, 64
6, 253198, Note_on_c, 4, 54, 120
6, 253286, Note_off_c, 4, 54, 64
6, 253442, Note_on_c, 4, 54, 117
6, 253614, Note_off_c, 4, 54, 64
6, 253682, Note_on_c, 4, 66, 123
6, 253793, Note_off_c, 4, 66, 64
6, 253918, Note_on_c, 4, 65, 122
6, 254061, Note_off_c, 4, 65, 64
6, 254158, Note_on_c, 4, 66, 126
6, 254306, Note_off_c, 4, 66, 64
6, 254394, Note_on_c, 4, 68, 126
6, 254545, Note_off_c, 4, 68, 64
6, 254633, Note_on_c, 4, 70, 127
6, 254775, Note_off_c, 4, 70, 64
6, 254874, Note_on_c, 4, 71, 117
6, 255039, Note_off_c, 4, 71, 64
6, 255114, Note_on_c, 4, 73, 111
6, 255265, Note_off_c, 4, 73, 64
6, 255325, Control_c, 4, 11, 82
6, 255357, Note_on_c, 4, 70, 127
6, 255362, Control_c, 4, 11, 89
6, 255400, Control_c, 4, 11, 96
6, 255437, Control_c, 4, 11, 104
6, 255474, Control_c, 4, 11, 112
6, 255515, Control_c, 4, 11, 96
6, 255555, Control_c, 4, 11, 78
6, 255582, Note_off_c, 4, 70, 64
6, 255595, Control_c, 4, 11, 100
6, 255604, Note_on_c, 4, 68, 127
6, 255694, Note_off_c, 4, 68, 64
6, 255716, Note_on_c, 4, 66, 95
6, 255806, Note_off_c, 4, 66, 64
6, 255833, Note_on_c, 4, 61, 97
6, 255835, Control_c, 4, 11, 94
6, 255890, Control_c, 4, 11, 84
6, 255944, Control_c, 4, 11, 74
6, 255966, Note_off_c, 4, 61, 64
6, 256020, Control_c, 4, 11, 100
6, 256080, Note_on_c, 4, 65, 104
6, 256143, Note_off_c, 4, 65, 64
6, 256290, Control_c, 4, 11, 88
6, 256318, Note_on_c, 4, 66, 78
6, 256333, Control_c, 4, 11, 93
6, 256376, Control_c, 4, 11, 99
6, 256419, Control_c, 4, 11, 106
6, 256460, Control_c, 4, 11, 90
6, 256520, Control_c, 4, 11, 76
6, 256536, Note_off_c, 4, 66, 64
6, 256590, Control_c, 4, 11, 100
6, 257524, Note_on_c, 4, 61, 108
6, 257614, Note_off_c, 4, 61, 64
6, 257636, Note_on_c, 4, 59, 81
6, 257728, Note_off_c, 4, 59, 64
6, 257755, Note_on_c, 4, 61, 89
6, 257760, Control_c, 4, 11, 94
6, 257803, Control_c, 4, 11, 87
6, 257846, Control_c, 4, 11, 80
6, 257889, Control_c, 4, 11, 74
6, 257905, Note_off_c, 4, 61, 64
6, 257960, Control_c, 4, 11, 100
6, 258004, Note_on_c, 4, 66, 106
6, 258094, Note_off_c, 4, 66, 64
6, 258117, Note_on_c, 4, 65, 87
6, 258207, Note_off_c, 4, 65, 64
6, 258235, Note_on_c, 4, 66, 89
6, 258240, Control_c, 4, 11, 96
6, 258280, Control_c, 4, 11, 88
6, 258320, Control_c, 4, 11, 81
6, 258359, Control_c, 4, 11, 74
6, 258417, Note_off_c, 4, 66, 64
6, 258455, Control_c, 4, 11, 100
6, 259920, Note_on_c, 4, 61, 83
6, 259996, Note_off_c, 4, 61, 64
6, 260120, Control_c, 4, 11, 84
6, 260157, Control_c, 4, 11, 90
6, 260158, Note_on_c, 4, 66, 93
6, 260195, Control_c, 4, 11, 97
6, 260232, Control_c, 4, 11, 104
6, 260269, Control_c, 4, 11, 112
6, 260310, Control_c, 4, 11, 96
6, 260355, Control_c, 4, 11, 76
6, 260370, Note_off_c, 4, 66, 64
6, 260395, Control_c, 4, 11, 100
6, 260404, Note_on_c, 4, 65, 90
6, 260506, Note_off_c, 4, 65, 64
6, 260516, Note_on_c, 4, 63, 81
6, 260594, Note_off_c, 4, 63, 64
6, 260633, Note_on_c, 4, 61, 98
6, 260723, Note_off_c, 4, 61, 64
6, 260748, Note_on_c, 4, 59, 91
6, 260832, Note_off_c, 4, 59, 64
6, 260867, Note_on_c, 4, 58, 108
6, 260960, Note_off_c, 4, 58, 64
6, 260982, Note_on_c, 4, 56, 80
6, 261076, Note_off_c, 4, 56, 64
6, 261108, Note_on_c, 4, 54, 92
6, 261199, Note_off_c, 4, 54, 64
6, 261231, Note_on_c, 4, 58, 104
6, 261311, Note_off_c, 4, 58, 64
6, 261348, Note_on_c, 4, 59, 102
6, 261445, Note_off_c, 4, 59, 64
6, 261466, Note_on_c, 4, 61, 80
6, 261568, Note_off_c, 4, 61, 64
6, 261587, Note_on_c, 4, 63, 106
6, 261675, Note_off_c, 4, 63, 64
6, 261706, Note_on_c, 4, 65, 105
6, 261793, Note_off_c, 4, 65, 64
6, 261825, Note_on_c, 4, 66, 90
6, 261930, Note_off_c, 4, 66, 64
6, 261942, Note_on_c, 4, 68, 106
6, 262051, Note_off_c, 4, 68, 64
6, 262074, Note_on_c, 4, 70, 116
6, 262185, Note_off_c, 4, 70, 64
6, 262205, Note_on_c, 4, 66, 127
6, 262297, Note_off_c, 4, 66, 64
6, 262321, Note_on_c, 4, 65, 126
6, 262412, Note_off_c, 4, 65, 64
6, 262432, Note_on_c, 4, 63, 107
6, 262536, Note_off_c, 4, 63, 64
6, 262550, Note_on_c, 4, 61, 115
6, 262650, Note_off_c, 4, 61, 64
6, 262676, Note_on_c, 4, 59, 121
6, 262762, Note_off_c, 4, 59, 64
6, 262795, Note_on_c, 4, 58, 121
6, 262886, Note_off_c, 4, 58, 64
6, 262910, Note_on_c, 4, 56, 110
6, 262996, Note_off_c, 4, 56, 64
6, 263005, Control_c, 4, 11, 86
6, 263034, Note_on_c, 4, 58, 124
6, 263045, Control_c, 4, 11, 95
6, 263085, Control_c, 4, 11, 104
6, 263124, Control_c, 4, 11, 114
6, 263175, Control_c, 4, 11, 98
6, 263225, Control_c, 4, 11, 80
6, 263244, Note_off_c, 4, 58, 64
6, 263275, Control_c, 4, 11, 100
6, 263284, Note_on_c, 4, 56, 110
6, 263374, Note_off_c, 4, 56, 64
6, 263396, Note_on_c, 4, 54, 127
6, 263486, Note_off_c, 4, 54, 64
6, 263517, Note_on_c, 4, 61, 107
6, 263618, Note_off_c, 4, 61, 64
6, 263760, Note_on_c, 4, 49, 115
6, 263851, Note_off_c, 4, 49, 64
6, 263935, Control_c, 4, 11, 56
6, 263956, Control_c, 4, 11, 57
6, 263977, Control_c, 4, 11, 59
6, 263998, Control_c, 4, 11, 60
6, 264001, Note_on_c, 4, 54, 123
6, 264019, Control_c, 4, 11, 62
6, 264040, Control_c, 4, 11, 63
6, 264061, Control_c, 4, 11, 65
6, 264082, Control_c, 4, 11, 67
6, 264104, Control_c, 4, 11, 68
6, 264125, Control_c, 4, 11, 70
6, 264146, Control_c, 4, 11, 71
6, 264167, Control_c, 4, 11, 73
6, 264188, Control_c, 4, 11, 75
6, 264209, Control_c, 4, 11, 76
6, 264230, Control_c, 4, 11, 78
6, 264251, Control_c, 4, 11, 79
6, 264273, Control_c, 4, 11, 81
6, 264294, Control_c, 4, 11, 83
6, 264315, Control_c, 4, 11, 84
6, 264336, Control_c, 4, 11, 86
6, 264357, Control_c, 4, 11, 87
6, 264378, Control_c, 4, 11, 89
6, 264399, Control_c, 4, 11, 91
6, 264420, Control_c, 4, 11, 92
6, 264442, Control_c, 4, 11, 94
6, 264463, Control_c, 4, 11, 95
6, 264484, Control_c, 4, 11, 97
6, 264505, Control_c, 4, 11, 99
6, 264526, Control_c, 4, 11, 100
6, 264547, Control_c, 4, 11, 102
6, 264568, Control_c, 4, 11, 103
6, 264589, Control_c, 4, 11, 105
6, 264611, Control_c, 4, 11, 107
6, 264632, Control_c, 4, 11, 108
6, 264653, Control_c, 4, 11, 110
6, 264674, Control_c, 4, 11, 111
6, 264695, Control_c, 4, 11, 113
6, 264822, Control_c, 4, 11, 112
6, 264843, Control_c, 4, 11, 109
6, 264865, Control_c, 4, 11, 107
6, 264886, Control_c, 4, 11, 104
6, 264907, Control_c, 4, 11, 101
6, 264928, Control_c, 4, 11, 98
6, 264949, Control_c, 4, 11, 96
6, 264961, Note_off_c, 4, 54, 64
6, 264990, Control_c, 4, 11, 100
6, 266880, End_track
7, 0, Start_track
7, 0, Instrument_name_t, "SC88-A"
7, 0, Title_t, "Viola.2"
7, 1440, Control_c, 5, 101, 0
7, 1450, Control_c, 5, 100, 0
7, 1450, Control_c, 5, 6, 0
7, 1470, Control_c, 5, 0, 0
7, 1480, Control_c, 5, 32, 1
7, 1490, Program_c, 5, 41
7, 1500, Control_c, 5, 10, 69
7, 1510, Control_c, 5, 11, 100
7, 1520, Control_c, 5, 7, 120
7, 1530, Control_c, 5, 93, 0
7, 1540, Control_c, 5, 91, 0
7, 1550, Pitch_bend_c, 5, 8192
7, 1560, Control_c, 5, 1, 0
7, 1570, Control_c, 5, 64, 0
7, 1580, Control_c, 5, 91, 64
7, 1590, Control_c, 5, 99, 1
7, 1600, Control_c, 5, 98, 32
7, 1610, Control_c, 5, 6, 62
7, 1620, Control_c, 5, 98, 33
7, 1630, Control_c, 5, 6, 71
7, 1640, Control_c, 5, 98, 99
7, 1650, Control_c, 5, 6, 64
7, 1660, Control_c, 5, 98, 100
7, 1670, Control_c, 5, 6, 64
7, 1680, Control_c, 5, 98, 102
7, 1690, Control_c, 5, 6, 64
7, 19924, Note_on_c, 5, 66, 71
7, 20014, Note_off_c, 5, 66, 64
7, 20037, Note_on_c, 5, 65, 59
7, 20127, Note_off_c, 5, 65, 64
7, 20151, Note_on_c, 5, 66, 46
7, 20160, Control_c, 5, 11, 96
7, 20203, Control_c, 5, 11, 89
7, 20246, Control_c, 5, 11, 82
7, 20289, Control_c, 5, 11, 76
7, 20301, Note_off_c, 5, 66, 64
7, 20360, Control_c, 5, 11, 100
7, 20404, Note_on_c, 5, 61, 68
7, 20494, Note_off_c, 5, 61, 64
7, 20517, Note_on_c, 5, 59, 58
7, 20607, Note_off_c, 5, 59, 64
7, 20632, Note_on_c, 5, 61, 44
7, 20645, Control_c, 5, 11, 94
7, 20693, Control_c, 5, 11, 87
7, 20741, Control_c, 5, 11, 80
7, 20782, Note_off_c, 5, 61, 64
7, 20789, Control_c, 5, 11, 74
7, 20870, Control_c, 5, 11, 100
7, 22324, Note_on_c, 5, 68, 53
7, 22414, Note_off_c, 5, 68, 64
7, 22437, Note_on_c, 5, 66, 48
7, 22527, Note_off_c, 5, 66, 64
7, 22554, Note_on_c, 5, 68, 45
7, 22704, Note_off_c, 5, 68, 64
7, 23284, Note_on_c, 5, 68, 54
7, 23374, Note_off_c, 5, 68, 64
7, 23396, Note_on_c, 5, 66, 45
7, 23486, Note_off_c, 5, 66, 64
7, 23514, Note_on_c, 5, 68, 48
7, 23664, Note_off_c, 5, 68, 64
7, 24244, Note_on_c, 5, 68, 56
7, 24334, Note_off_c, 5, 68, 64
7, 24357, Note_on_c, 5, 66, 45
7, 24447, Note_off_c, 5, 66, 64
7, 24475, Note_on_c, 5, 68, 45
7, 24625, Note_off_c, 5, 68, 64
7, 33364, Note_on_c, 5, 66, 78
7, 33454, Note_off_c, 5, 66, 64
7, 33476, Note_on_c, 5, 65, 47
7, 33566, Note_off_c, 5, 65, 64
7, 33595, Note_on_c, 5, 66, 65
7, 33605, Control_c, 5, 11, 96
7, 33650, Control_c, 5, 11, 91
7, 33695, Control_c, 5, 11, 86
7, 33739, Control_c, 5, 11, 82
7, 33745, Note_off_c, 5, 66, 64
7, 33820, Control_c, 5, 11, 100
7, 33844, Note_on_c, 5, 61, 71
7, 33934, Note_off_c, 5, 61, 64
7, 33957, Note_on_c, 5, 59, 52
7, 34047, Note_off_c, 5, 59, 64
7, 34071, Note_on_c, 5, 61, 52
7, 34090, Control_c, 5, 11, 96
7, 34133, Control_c, 5, 11, 89
7, 34176, Control_c, 5, 11, 82
7, 34219, Control_c, 5, 11, 76
7, 34221, Note_off_c, 5, 61, 64
7, 34335, Control_c, 5, 11, 100
7, 36236, Note_on_c, 5, 63, 106
7, 36354, Note_off_c, 5, 63, 64
7, 36487, Note_on_c, 5, 65, 101
7, 36588, Note_off_c, 5, 65, 64
7, 36594, Note_on_c, 5, 68, 84
7, 36670, Note_off_c, 5, 68, 64
7, 36714, Note_on_c, 5, 61, 100
7, 36831, Note_off_c, 5, 61, 64
7, 36832, Note_on_c, 5, 63, 83
7, 36923, Note_off_c, 5, 63, 64
7, 36951, Note_on_c, 5, 65, 105
7, 37064, Note_off_c, 5, 65, 64
7, 37071, Note_on_c, 5, 66, 82
7, 37177, Note_off_c, 5, 66, 64
7, 37192, Note_on_c, 5, 68, 102
7, 37302, Note_off_c, 5, 68, 64
7, 37306, Note_on_c, 5, 66, 92
7, 37426, Note_off_c, 5, 66, 64
7, 37433, Note_on_c, 5, 65, 69
7, 37606, Note_off_c, 5, 65, 64
7, 37685, Note_on_c, 5, 73, 92
7, 37839, Note_off_c, 5, 73, 64
7, 41524, Note_on_c, 5, 68, 59
7, 41614, Note_off_c, 5, 68, 64
7, 41637, Note_on_c, 5, 67, 46
7, 41727, Note_off_c, 5, 67, 64
7, 41763, Note_on_c, 5, 68, 45
7, 41770, Control_c, 5, 11, 96
7, 41810, Control_c, 5, 11, 90
7, 41850, Control_c, 5, 11, 84
7, 41889, Control_c, 5, 11, 78
7, 41913, Note_off_c, 5, 68, 64
7, 42015, Control_c, 5, 11, 100
7, 42484, Note_on_c, 5, 66, 59
7, 42574, Note_off_c, 5, 66, 64
7, 42597, Note_on_c, 5, 65, 45
7, 42687, Note_off_c, 5, 65, 64
7, 42715, Note_on_c, 5, 63, 46
7, 42730, Control_c, 5, 11, 96
7, 42770, Control_c, 5, 11, 91
7, 42810, Control_c, 5, 11, 87
7, 42850, Control_c, 5, 11, 82
7, 42865, Note_off_c, 5, 63, 64
7, 42889, Control_c, 5, 11, 78
7, 43000, Control_c, 5, 11, 100
7, 43444, Note_on_c, 5, 65, 52
7, 43534, Note_off_c, 5, 65, 64
7, 43556, Note_on_c, 5, 63, 52
7, 43646, Note_off_c, 5, 63, 64
7, 43668, Note_on_c, 5, 65, 45
7, 43685, Control_c, 5, 11, 96
7, 43726, Control_c, 5, 11, 89
7, 43768, Control_c, 5, 11, 82
7, 43809, Control_c, 5, 11, 76
7, 43818, Note_off_c, 5, 65, 64
7, 44000, Control_c, 5, 11, 100
7, 44402, Note_on_c, 5, 70, 92
7, 44492, Note_off_c, 5, 70, 64
7, 44514, Note_on_c, 5, 72, 62
7, 44604, Note_off_c, 5, 72, 64
7, 44627, Note_on_c, 5, 70, 79
7, 44777, Note_off_c, 5, 70, 64
7, 44881, Note_on_c, 5, 70, 84
7, 44971, Note_off_c, 5, 70, 64
7, 45110, Note_on_c, 5, 70, 94
7, 45355, Note_off_c, 5, 70, 64
7, 45362, Note_on_c, 5, 68, 90
7, 45452, Note_off_c, 5, 68, 64
7, 45475, Note_on_c, 5, 70, 67
7, 45565, Note_off_c, 5, 70, 64
7, 45591, Note_on_c, 5, 68, 87
7, 45790, Note_off_c, 5, 68, 64
7, 45842, Note_on_c, 5, 68, 89
7, 45932, Note_off_c, 5, 68, 64
7, 45954, Note_on_c, 5, 66, 60
7, 46044, Note_off_c, 5, 66, 64
7, 46065, Control_c, 5, 11, 96
7, 46071, Note_on_c, 5, 68, 78
7, 46117, Control_c, 5, 11, 103
7, 46169, Control_c, 5, 11, 112
7, 46205, Control_c, 5, 11, 106
7, 46242, Control_c, 5, 11, 97
7, 46279, Note_off_c, 5, 68, 64
7, 46279, Control_c, 5, 11, 88
7, 46300, Control_c, 5, 11, 100
7, 46312, Note_on_c, 5, 63, 78
7, 46413, Note_off_c, 5, 63, 64
7, 46553, Note_on_c, 5, 63, 78
7, 46657, Note_off_c, 5, 63, 64
7, 46802, Note_on_c, 5, 63, 71
7, 46892, Note_off_c, 5, 63, 64
7, 47043, Note_on_c, 5, 61, 57
7, 47202, Note_off_c, 5, 61, 64
7, 47287, Note_on_c, 5, 61, 41
7, 47405, Note_off_c, 5, 61, 64
7, 47524, Note_on_c, 5, 61, 51
7, 47634, Note_off_c, 5, 61, 64
7, 47761, Note_on_c, 5, 61, 51
7, 47879, Note_off_c, 5, 61, 64
7, 48002, Note_on_c, 5, 61, 51
7, 48168, Note_off_c, 5, 61, 64
7, 48236, Note_on_c, 5, 61, 51
7, 48357, Note_off_c, 5, 61, 64
7, 48477, Note_on_c, 5, 61, 51
7, 48586, Note_off_c, 5, 61, 64
7, 48716, Note_on_c, 5, 61, 47
7, 48833, Note_off_c, 5, 61, 64
7, 51129, Note_on_c, 5, 61, 68
7, 51228, Note_off_c, 5, 61, 64
7, 51366, Note_on_c, 5, 61, 68
7, 51469, Note_off_c, 5, 61, 64
7, 51604, Note_on_c, 5, 65, 62
7, 51701, Note_off_c, 5, 65, 64
7, 51843, Note_on_c, 5, 61, 46
7, 52009, Note_off_c, 5, 61, 64
7, 52089, Note_on_c, 5, 66, 46
7, 52200, Note_off_c, 5, 66, 64
7, 52319, Note_on_c, 5, 66, 46
7, 52458, Note_off_c, 5, 66, 64
7, 52557, Note_on_c, 5, 66, 46
7, 52674, Note_off_c, 5, 66, 64
7, 52791, Note_on_c, 5, 66, 46
7, 52972, Note_off_c, 5, 66, 64
7, 53034, Note_on_c, 5, 66, 46
7, 53156, Note_off_c, 5, 66, 64
7, 53271, Note_on_c, 5, 66, 46
7, 53406, Note_off_c, 5, 66, 64
7, 53514, Note_on_c, 5, 66, 46
7, 53623, Note_off_c, 5, 66, 64
7, 53765, Note_on_c, 5, 54, 102
7, 53887, Note_on_c, 5, 53, 63
7, 53891, Note_off_c, 5, 54, 64
7, 54000, Note_off_c, 5, 53, 64
7, 54004, Note_on_c, 5, 54, 73
7, 54099, Note_off_c, 5, 54, 64
7, 54121, Note_on_c, 5, 56, 73
7, 54209, Note_off_c, 5, 56, 64
7, 54235, Note_on_c, 5, 54, 96
7, 54339, Note_off_c, 5, 54, 64
7, 54348, Note_on_c, 5, 58, 73
7, 54450, Note_off_c, 5, 58, 64
7, 54469, Note_on_c, 5, 54, 90
7, 54549, Note_off_c, 5, 54, 64
7, 54578, Note_on_c, 5, 59, 82
7, 54657, Note_off_c, 5, 59, 64
7, 54708, Note_on_c, 5, 54, 102
7, 54826, Note_on_c, 5, 53, 68
7, 54839, Note_off_c, 5, 54, 64
7, 54932, Note_off_c, 5, 53, 64
7, 54942, Note_on_c, 5, 54, 73
7, 55050, Note_off_c, 5, 54, 64
7, 55062, Note_on_c, 5, 56, 82
7, 55154, Note_off_c, 5, 56, 64
7, 55185, Note_on_c, 5, 54, 99
7, 55285, Note_off_c, 5, 54, 64
7, 55305, Note_on_c, 5, 61, 82
7, 55391, Note_off_c, 5, 61, 64
7, 55425, Note_on_c, 5, 54, 102
7, 55518, Note_off_c, 5, 54, 64
7, 55536, Note_on_c, 5, 63, 101
7, 55620, Note_off_c, 5, 63, 64
7, 55668, Note_on_c, 5, 64, 102
7, 55786, Note_on_c, 5, 63, 73
7, 55800, Note_off_c, 5, 64, 64
7, 55906, Note_off_c, 5, 63, 64
7, 55907, Note_on_c, 5, 64, 70
7, 56003, Note_off_c, 5, 64, 64
7, 56021, Note_on_c, 5, 66, 79
7, 56133, Note_off_c, 5, 66, 64
7, 56152, Note_on_c, 5, 64, 102
7, 56270, Note_on_c, 5, 63, 73
7, 56282, Note_off_c, 5, 64, 64
7, 56395, Note_on_c, 5, 64, 66
7, 56415, Note_off_c, 5, 63, 64
7, 56493, Note_off_c, 5, 64, 64
7, 56516, Note_on_c, 5, 61, 81
7, 56597, Note_off_c, 5, 61, 64
7, 56636, Note_on_c, 5, 63, 77
7, 56764, Note_off_c, 5, 63, 64
7, 57844, Note_on_c, 5, 63, 88
7, 57934, Note_off_c, 5, 63, 64
7, 58074, Note_on_c, 5, 63, 90
7, 58075, Control_c, 5, 11, 98
7, 58127, Control_c, 5, 11, 104
7, 58179, Control_c, 5, 11, 112
7, 58205, Control_c, 5, 11, 106
7, 58250, Control_c, 5, 11, 92
7, 58269, Note_off_c, 5, 63, 64
7, 58294, Control_c, 5, 11, 78
7, 58305, Control_c, 5, 11, 100
7, 58324, Note_on_c, 5, 61, 87
7, 58414, Note_off_c, 5, 61, 64
7, 58436, Note_on_c, 5, 63, 78
7, 58526, Note_off_c, 5, 63, 64
7, 58553, Note_on_c, 5, 61, 78
7, 58565, Control_c, 5, 11, 96
7, 58605, Control_c, 5, 11, 90
7, 58645, Control_c, 5, 11, 84
7, 58684, Control_c, 5, 11, 78
7, 58703, Note_off_c, 5, 61, 64
7, 58770, Control_c, 5, 11, 100
7, 58804, Note_on_c, 5, 61, 102
7, 58894, Note_off_c, 5, 61, 64
7, 59030, Control_c, 5, 11, 94
7, 59044, Note_on_c, 5, 61, 98
7, 59085, Control_c, 5, 11, 104
7, 59139, Control_c, 5, 11, 116
7, 59170, Control_c, 5, 11, 106
7, 59234, Note_off_c, 5, 61, 64
7, 59239, Control_c, 5, 11, 88
7, 59270, Control_c, 5, 11, 100
7, 59284, Note_on_c, 5, 59, 97
7, 59374, Note_off_c, 5, 59, 64
7, 59397, Note_on_c, 5, 61, 68
7, 59487, Note_off_c, 5, 61, 64
7, 59517, Note_on_c, 5, 59, 78
7, 59520, Control_c, 5, 11, 94
7, 59565, Control_c, 5, 11, 86
7, 59610, Control_c, 5, 11, 79
7, 59654, Control_c, 5, 11, 72
7, 59655, Note_off_c, 5, 59, 64
7, 59700, Control_c, 5, 11, 100
7, 59770, Note_on_c, 5, 59, 89
7, 59874, Note_off_c, 5, 59, 64
7, 60010, Note_on_c, 5, 59, 92
7, 60179, Note_off_c, 5, 59, 64
7, 60225, Note_on_c, 5, 61, 78
7, 60372, Note_off_c, 5, 61, 64
7, 60491, Note_on_c, 5, 61, 78
7, 60641, Note_off_c, 5, 61, 64
7, 60737, Note_on_c, 5, 61, 78
7, 60873, Note_off_c, 5, 61, 64
7, 60956, Note_on_c, 5, 61, 84
7, 61090, Note_off_c, 5, 61, 64
7, 61188, Note_on_c, 5, 61, 83
7, 61296, Note_off_c, 5, 61, 64
7, 61390, Control_c, 5, 11, 86
7, 61410, Note_on_c, 5, 61, 85
7, 61428, Control_c, 5, 11, 88
7, 61466, Control_c, 5, 11, 90
7, 61505, Control_c, 5, 11, 92
7, 61543, Control_c, 5, 11, 95
7, 61581, Control_c, 5, 11, 97
7, 61619, Control_c, 5, 11, 100
7, 61648, Note_off_c, 5, 61, 64
7, 61664, Note_on_c, 5, 63, 78
7, 61801, Note_off_c, 5, 63, 64
7, 61904, Note_on_c, 5, 64, 78
7, 62060, Note_off_c, 5, 64, 64
7, 62160, Note_on_c, 5, 64, 78
7, 62295, Note_off_c, 5, 64, 64
7, 62380, Control_c, 5, 11, 94
7, 62408, Note_on_c, 5, 63, 78
7, 62417, Control_c, 5, 11, 98
7, 62455, Control_c, 5, 11, 103
7, 62492, Control_c, 5, 11, 108
7, 62529, Control_c, 5, 11, 114
7, 62590, Control_c, 5, 11, 98
7, 62630, Control_c, 5, 11, 90
7, 62668, Note_off_c, 5, 63, 64
7, 62670, Control_c, 5, 11, 82
7, 62709, Control_c, 5, 11, 74
7, 62745, Control_c, 5, 11, 100
7, 66241, Note_on_c, 5, 61, 88
7, 66361, Note_on_c, 5, 59, 66
7, 66373, Note_off_c, 5, 61, 64
7, 66468, Note_off_c, 5, 59, 64
7, 66480, Note_on_c, 5, 61, 66
7, 66563, Note_off_c, 5, 61, 64
7, 66605, Note_on_c, 5, 63, 78
7, 66671, Note_off_c, 5, 63, 64
7, 66725, Note_on_c, 5, 61, 78
7, 66834, Note_on_c, 5, 66, 78
7, 66841, Note_off_c, 5, 61, 64
7, 66914, Note_off_c, 5, 66, 64
7, 66959, Note_on_c, 5, 65, 78
7, 67037, Note_off_c, 5, 65, 64
7, 67074, Note_on_c, 5, 68, 88
7, 67154, Note_off_c, 5, 68, 64
7, 67200, Note_on_c, 5, 66, 97
7, 67320, Note_on_c, 5, 65, 66
7, 67321, Note_off_c, 5, 66, 64
7, 67432, Note_off_c, 5, 65, 64
7, 67439, Note_on_c, 5, 66, 78
7, 67527, Note_off_c, 5, 66, 64
7, 67565, Note_on_c, 5, 68, 89
7, 67641, Note_off_c, 5, 68, 64
7, 67685, Note_on_c, 5, 66, 89
7, 67794, Note_on_c, 5, 70, 78
7, 67798, Note_off_c, 5, 66, 64
7, 67878, Note_off_c, 5, 70, 64
7, 67919, Note_on_c, 5, 68, 97
7, 67989, Note_off_c, 5, 68, 64
7, 68028, Note_on_c, 5, 71, 92
7, 68104, Note_off_c, 5, 71, 64
7, 68159, Note_on_c, 5, 70, 104
7, 68275, Note_off_c, 5, 70, 64
7, 68279, Note_on_c, 5, 68, 78
7, 68399, Note_on_c, 5, 70, 78
7, 68407, Note_off_c, 5, 68, 64
7, 68475, Note_off_c, 5, 70, 64
7, 68525, Note_on_c, 5, 71, 90
7, 68595, Note_off_c, 5, 71, 64
7, 68645, Note_on_c, 5, 70, 97
7, 68759, Note_on_c, 5, 71, 78
7, 68770, Note_off_c, 5, 70, 64
7, 68866, Note_off_c, 5, 71, 64
7, 68879, Note_on_c, 5, 70, 78
7, 68955, Note_off_c, 5, 70, 64
7, 68999, Note_on_c, 5, 68, 89
7, 69077, Note_off_c, 5, 68, 64
7, 69119, Note_on_c, 5, 66, 90
7, 69235, Note_off_c, 5, 66, 64
7, 69239, Note_on_c, 5, 68, 74
7, 69324, Note_off_c, 5, 68, 64
7, 69359, Note_on_c, 5, 66, 79
7, 69447, Note_off_c, 5, 66, 64
7, 69479, Note_on_c, 5, 65, 63
7, 69565, Note_off_c, 5, 65, 64
7, 69600, Note_on_c, 5, 66, 69
7, 69737, Note_off_c, 5, 66, 64
7, 69839, Note_on_c, 5, 63, 66
7, 69944, Note_off_c, 5, 63, 64
7, 70080, Note_on_c, 5, 61, 62
7, 70247, Note_off_c, 5, 61, 64
7, 70798, Note_on_c, 5, 60, 55
7, 70898, Note_off_c, 5, 60, 64
7, 71041, Note_on_c, 5, 61, 72
7, 71212, Note_off_c, 5, 61, 64
7, 71758, Note_on_c, 5, 63, 72
7, 71863, Note_off_c, 5, 63, 64
7, 71999, Note_on_c, 5, 65, 59
7, 72158, Note_off_c, 5, 65, 64
7, 72723, Note_on_c, 5, 56, 78
7, 72813, Note_off_c, 5, 56, 64
7, 72951, Note_on_c, 5, 58, 78
7, 73098, Note_off_c, 5, 58, 64
7, 73196, Note_on_c, 5, 58, 94
7, 73305, Note_off_c, 5, 58, 64
7, 73405, Control_c, 5, 11, 82
7, 73435, Note_on_c, 5, 56, 87
7, 73442, Control_c, 5, 11, 89
7, 73480, Control_c, 5, 11, 96
7, 73517, Control_c, 5, 11, 104
7, 73554, Control_c, 5, 11, 112
7, 73586, Control_c, 5, 11, 102
7, 73628, Control_c, 5, 11, 95
7, 73639, Note_off_c, 5, 56, 64
7, 73680, Control_c, 5, 11, 100
7, 73684, Note_on_c, 5, 58, 93
7, 73774, Note_off_c, 5, 58, 64
7, 73796, Note_on_c, 5, 59, 61
7, 73886, Note_off_c, 5, 59, 64
7, 73910, Note_on_c, 5, 58, 68
7, 74022, Note_off_c, 5, 58, 64
7, 74157, Note_on_c, 5, 70, 78
7, 74253, Note_off_c, 5, 70, 64
7, 74395, Note_on_c, 5, 66, 60
7, 74485, Note_off_c, 5, 66, 64
7, 74643, Note_on_c, 5, 61, 47
7, 74748, Note_off_c, 5, 61, 64
7, 75124, Note_on_c, 5, 61, 78
7, 75214, Note_off_c, 5, 61, 64
7, 75237, Note_on_c, 5, 59, 68
7, 75327, Note_off_c, 5, 59, 64
7, 75356, Note_on_c, 5, 61, 58
7, 75370, Control_c, 5, 11, 96
7, 75415, Control_c, 5, 11, 90
7, 75460, Control_c, 5, 11, 84
7, 75504, Control_c, 5, 11, 78
7, 75506, Note_off_c, 5, 61, 64
7, 75575, Control_c, 5, 11, 100
7, 75604, Note_on_c, 5, 66, 94
7, 75694, Note_off_c, 5, 66, 64
7, 75717, Note_on_c, 5, 65, 65
7, 75807, Note_off_c, 5, 65, 64
7, 75842, Note_on_c, 5, 66, 59
7, 75850, Control_c, 5, 11, 96
7, 75887, Control_c, 5, 11, 90
7, 75925, Control_c, 5, 11, 85
7, 75962, Control_c, 5, 11, 79
7, 75992, Note_off_c, 5, 66, 64
7, 75999, Control_c, 5, 11, 74
7, 76080, Control_c, 5, 11, 100
7, 77522, Note_on_c, 5, 61, 91
7, 77612, Note_off_c, 5, 61, 64
7, 77635, Note_on_c, 5, 59, 68
7, 77725, Note_off_c, 5, 59, 64
7, 77760, Note_on_c, 5, 61, 68
7, 77765, Control_c, 5, 11, 96
7, 77810, Control_c, 5, 11, 90
7, 77855, Control_c, 5, 11, 84
7, 77899, Control_c, 5, 11, 78
7, 77910, Note_off_c, 5, 61, 64
7, 77955, Control_c, 5, 11, 100
7, 78002, Note_on_c, 5, 54, 82
7, 78092, Note_off_c, 5, 54, 64
7, 78115, Note_on_c, 5, 53, 53
7, 78205, Note_off_c, 5, 53, 64
7, 78232, Note_on_c, 5, 54, 68
7, 78245, Control_c, 5, 11, 96
7, 78288, Control_c, 5, 11, 88
7, 78331, Control_c, 5, 11, 81
7, 78374, Control_c, 5, 11, 74
7, 78382, Note_off_c, 5, 54, 64
7, 78465, Control_c, 5, 11, 100
7, 79924, Note_on_c, 5, 68, 87
7, 80014, Note_off_c, 5, 68, 64
7, 80037, Note_on_c, 5, 66, 78
7, 80127, Note_off_c, 5, 66, 64
7, 80161, Note_on_c, 5, 68, 78
7, 80165, Control_c, 5, 11, 96
7, 80210, Control_c, 5, 11, 90
7, 80255, Control_c, 5, 11, 84
7, 80299, Control_c, 5, 11, 78
7, 80311, Note_off_c, 5, 68, 64
7, 80395, Control_c, 5, 11, 100
7, 80882, Note_on_c, 5, 56, 78
7, 80972, Note_off_c, 5, 56, 64
7, 80994, Note_on_c, 5, 54, 69
7, 81084, Note_off_c, 5, 54, 64
7, 81109, Note_on_c, 5, 56, 78
7, 81120, Control_c, 5, 11, 96
7, 81165, Control_c, 5, 11, 88
7, 81210, Control_c, 5, 11, 80
7, 81254, Control_c, 5, 11, 72
7, 81259, Note_off_c, 5, 56, 64
7, 81350, Control_c, 5, 11, 100
7, 81830, Note_on_c, 5, 65, 116
7, 81918, Note_off_c, 5, 65, 64
7, 82072, Note_on_c, 5, 61, 85
7, 82170, Note_off_c, 5, 61, 64
7, 82315, Note_on_c, 5, 56, 80
7, 82416, Note_off_c, 5, 56, 64
7, 82554, Note_on_c, 5, 61, 89
7, 82715, Note_off_c, 5, 61, 64
7, 82804, Note_on_c, 5, 63, 79
7, 82894, Note_off_c, 5, 63, 64
7, 83044, Note_on_c, 5, 63, 85
7, 83134, Note_off_c, 5, 63, 64
7, 83284, Note_on_c, 5, 61, 73
7, 83374, Note_off_c, 5, 61, 64
7, 88080, Note_on_c, 5, 65, 103
7, 88140, Note_off_c, 5, 65, 64
7, 88325, Note_on_c, 5, 61, 90
7, 88330, Control_c, 5, 11, 94
7, 88373, Control_c, 5, 11, 88
7, 88416, Control_c, 5, 11, 82
7, 88459, Control_c, 5, 11, 76
7, 88516, Note_off_c, 5, 61, 64
7, 88530, Control_c, 5, 11, 100
7, 88563, Note_on_c, 5, 63, 81
7, 88585, Control_c, 5, 11, 94
7, 88630, Control_c, 5, 11, 87
7, 88674, Control_c, 5, 11, 80
7, 88700, Note_off_c, 5, 63, 64
7, 88775, Control_c, 5, 11, 100
7, 88800, Note_on_c, 5, 65, 78
7, 88895, Note_off_c, 5, 65, 64
7, 89038, Note_on_c, 5, 61, 79
7, 89159, Note_off_c, 5, 61, 64
7, 106324, Note_on_c, 5, 63, 118
7, 106414, Note_off_c, 5, 63, 64
7, 106436, Note_on_c, 5, 62, 72
7, 106526, Note_off_c, 5, 62, 64
7, 106552, Note_on_c, 5, 63, 69
7, 106560, Control_c, 5, 11, 96
7, 106601, Control_c, 5, 11, 88
7, 106643, Control_c, 5, 11, 80
7, 106684, Control_c, 5, 11, 72
7, 106702, Note_off_c, 5, 63, 64
7, 106740, Control_c, 5, 11, 100
7, 106804, Note_on_c, 5, 58, 93
7, 106894, Note_off_c, 5, 58, 64
7, 106917, Note_on_c, 5, 56, 56
7, 107007, Note_off_c, 5, 56, 64
7, 107030, Control_c, 5, 11, 96
7, 107037, Note_on_c, 5, 58, 57
7, 107068, Control_c, 5, 11, 90
7, 107107, Control_c, 5, 11, 85
7, 107146, Control_c, 5, 11, 79
7, 107184, Control_c, 5, 11, 74
7, 107187, Note_off_c, 5, 58, 64
7, 107315, Control_c, 5, 11, 100
7, 109684, Note_on_c, 5, 65, 79
7, 109774, Note_off_c, 5, 65, 64
7, 109797, Note_on_c, 5, 63, 70
7, 109887, Note_off_c, 5, 63, 64
7, 109911, Note_on_c, 5, 65, 73
7, 109925, Control_c, 5, 11, 96
7, 109965, Control_c, 5, 11, 89
7, 110005, Control_c, 5, 11, 82
7, 110044, Control_c, 5, 11, 76
7, 110061, Note_off_c, 5, 65, 64
7, 110135, Control_c, 5, 11, 100
7, 110163, Note_on_c, 5, 68, 89
7, 110253, Note_off_c, 5, 68, 64
7, 110277, Note_on_c, 5, 66, 70
7, 110367, Note_off_c, 5, 66, 64
7, 110399, Note_on_c, 5, 68, 59
7, 110400, Control_c, 5, 11, 96
7, 110441, Control_c, 5, 11, 91
7, 110482, Control_c, 5, 11, 86
7, 110523, Control_c, 5, 11, 81
7, 110549, Note_off_c, 5, 68, 64
7, 110575, Control_c, 5, 11, 100
7, 114964, Note_on_c, 5, 65, 114
7, 115114, Note_off_c, 5, 65, 64
7, 115207, Note_on_c, 5, 66, 120
7, 115299, Note_off_c, 5, 66, 64
7, 115320, Note_on_c, 5, 70, 102
7, 115407, Note_off_c, 5, 70, 64
7, 115441, Note_on_c, 5, 63, 122
7, 115519, Note_off_c, 5, 63, 64
7, 115556, Note_on_c, 5, 65, 100
7, 115636, Note_off_c, 5, 65, 64
7, 115673, Note_on_c, 5, 66, 122
7, 115791, Note_off_c, 5, 66, 64
7, 115792, Note_on_c, 5, 68, 105
7, 115884, Note_off_c, 5, 68, 64
7, 115910, Note_on_c, 5, 70, 102
7, 115996, Note_off_c, 5, 70, 64
7, 116026, Note_on_c, 5, 68, 108
7, 116102, Note_off_c, 5, 68, 64
7, 116141, Note_on_c, 5, 66, 74
7, 116160, Control_c, 5, 11, 96
7, 116203, Control_c, 5, 11, 89
7, 116246, Control_c, 5, 11, 82
7, 116289, Control_c, 5, 11, 76
7, 116314, Note_off_c, 5, 66, 64
7, 116365, Control_c, 5, 11, 100
7, 116397, Note_on_c, 5, 75, 122
7, 116415, Control_c, 5, 11, 96
7, 116460, Control_c, 5, 11, 88
7, 116505, Control_c, 5, 11, 80
7, 116545, Note_off_c, 5, 75, 64
7, 116549, Control_c, 5, 11, 72
7, 116595, Control_c, 5, 11, 100
7, 116885, Note_on_c, 5, 74, 106
7, 116966, Note_off_c, 5, 74, 64
7, 117116, Note_on_c, 5, 75, 99
7, 117120, Control_c, 5, 11, 96
7, 117160, Control_c, 5, 11, 90
7, 117200, Control_c, 5, 11, 85
7, 117240, Control_c, 5, 11, 79
7, 117279, Control_c, 5, 11, 74
7, 117282, Note_off_c, 5, 75, 64
7, 117360, Control_c, 5, 11, 100
7, 117363, Note_on_c, 5, 70, 77
7, 117477, Note_off_c, 5, 70, 64
7, 117597, Note_on_c, 5, 63, 78
7, 117702, Note_off_c, 5, 63, 64
7, 117831, Note_on_c, 5, 67, 80
7, 117921, Note_off_c, 5, 67, 64
7, 118075, Note_on_c, 5, 60, 67
7, 118165, Note_off_c, 5, 60, 64
7, 118322, Note_on_c, 5, 63, 78
7, 118412, Note_off_c, 5, 63, 64
7, 118434, Note_on_c, 5, 61, 63
7, 118524, Note_off_c, 5, 61, 64
7, 118550, Note_on_c, 5, 63, 70
7, 118560, Control_c, 5, 11, 96
7, 118598, Control_c, 5, 11, 89
7, 118636, Control_c, 5, 11, 82
7, 118674, Control_c, 5, 11, 76
7, 118700, Note_off_c, 5, 63, 64
7, 118800, Control_c, 5, 11, 100
7, 119284, Note_on_c, 5, 63, 71
7, 119374, Note_off_c, 5, 63, 64
7, 119396, Note_on_c, 5, 61, 69
7, 119486, Note_off_c, 5, 61, 64
7, 119516, Note_on_c, 5, 63, 57
7, 119525, Control_c, 5, 11, 96
7, 119565, Control_c, 5, 11, 90
7, 119605, Control_c, 5, 11, 84
7, 119644, Control_c, 5, 11, 78
7, 119666, Note_off_c, 5, 63, 64
7, 119755, Control_c, 5, 11, 100
7, 120244, Note_on_c, 5, 63, 78
7, 120334, Note_off_c, 5, 63, 64
7, 120357, Note_on_c, 5, 61, 72
7, 120447, Note_off_c, 5, 61, 64
7, 120485, Note_on_c, 5, 63, 60
7, 120485, Control_c, 5, 11, 96
7, 120523, Control_c, 5, 11, 91
7, 120562, Control_c, 5, 11, 87
7, 120601, Control_c, 5, 11, 82
7, 120635, Note_off_c, 5, 63, 64
7, 120639, Control_c, 5, 11, 78
7, 120740, Control_c, 5, 11, 100
7, 121204, Note_on_c, 5, 63, 103
7, 121294, Note_off_c, 5, 63, 64
7, 121316, Note_on_c, 5, 65, 65
7, 121406, Note_off_c, 5, 65, 64
7, 121423, Note_on_c, 5, 66, 78
7, 121445, Control_c, 5, 11, 94
7, 121488, Control_c, 5, 11, 86
7, 121531, Control_c, 5, 11, 79
7, 121573, Note_off_c, 5, 66, 64
7, 121574, Control_c, 5, 11, 72
7, 121635, Control_c, 5, 11, 100
7, 121669, Note_on_c, 5, 63, 97
7, 121764, Note_off_c, 5, 63, 64
7, 121909, Note_on_c, 5, 65, 64
7, 122025, Control_c, 5, 11, 94
7, 122068, Control_c, 5, 11, 86
7, 122111, Control_c, 5, 11, 79
7, 122138, Note_off_c, 5, 65, 64
7, 122154, Control_c, 5, 11, 72
7, 122190, Control_c, 5, 11, 100
7, 122644, Note_on_c, 5, 65, 59
7, 122734, Note_off_c, 5, 65, 64
7, 122756, Note_on_c, 5, 66, 47
7, 122846, Note_off_c, 5, 66, 64
7, 122873, Note_on_c, 5, 68, 46
7, 122880, Control_c, 5, 11, 94
7, 122928, Control_c, 5, 11, 86
7, 122976, Control_c, 5, 11, 78
7, 123023, Note_off_c, 5, 68, 64
7, 123024, Control_c, 5, 11, 70
7, 123105, Control_c, 5, 11, 100
7, 123604, Note_on_c, 5, 65, 65
7, 123694, Note_off_c, 5, 65, 64
7, 123717, Note_on_c, 5, 66, 57
7, 123807, Note_off_c, 5, 66, 64
7, 123835, Note_on_c, 5, 68, 54
7, 123840, Control_c, 5, 11, 94
7, 123886, Control_c, 5, 11, 87
7, 123933, Control_c, 5, 11, 80
7, 123979, Control_c, 5, 11, 74
7, 123985, Note_off_c, 5, 68, 64
7, 124070, Control_c, 5, 11, 100
7, 124564, Note_on_c, 5, 65, 59
7, 124654, Note_off_c, 5, 65, 64
7, 124676, Note_on_c, 5, 66, 57
7, 124766, Note_off_c, 5, 66, 64
7, 124801, Note_on_c, 5, 68, 57
7, 124805, Control_c, 5, 11, 96
7, 124846, Control_c, 5, 11, 90
7, 124888, Control_c, 5, 11, 84
7, 124929, Control_c, 5, 11, 78
7, 124951, Note_off_c, 5, 68, 64
7, 125025, Control_c, 5, 11, 100
7, 126484, Note_on_c, 5, 53, 87
7, 126574, Note_off_c, 5, 53, 64
7, 126719, Note_on_c, 5, 54, 86
7, 126879, Note_off_c, 5, 54, 64
7, 127924, Note_on_c, 5, 61, 91
7, 128014, Note_off_c, 5, 61, 64
7, 128037, Note_on_c, 5, 59, 78
7, 128127, Note_off_c, 5, 59, 64
7, 128158, Note_on_c, 5, 61, 69
7, 128170, Control_c, 5, 11, 92
7, 128216, Control_c, 5, 11, 86
7, 128262, Control_c, 5, 11, 81
7, 128308, Note_off_c, 5, 61, 64
7, 128308, Control_c, 5, 11, 75
7, 128354, Control_c, 5, 11, 70
7, 128385, Control_c, 5, 11, 100
7, 129364, Note_on_c, 5, 66, 101
7, 129454, Note_off_c, 5, 66, 64
7, 129476, Note_on_c, 5, 65, 64
7, 129566, Note_off_c, 5, 65, 64
7, 129595, Note_on_c, 5, 66, 67
7, 129600, Control_c, 5, 11, 96
7, 129646, Control_c, 5, 11, 89
7, 129693, Control_c, 5, 11, 82
7, 129739, Control_c, 5, 11, 76
7, 129745, Note_off_c, 5, 66, 64
7, 129785, Control_c, 5, 11, 100
7, 129844, Note_on_c, 5, 58, 92
7, 129934, Note_off_c, 5, 58, 64
7, 129957, Note_on_c, 5, 59, 70
7, 130047, Note_off_c, 5, 59, 64
7, 130080, Note_on_c, 5, 61, 67
7, 130230, Note_off_c, 5, 61, 64
7, 136564, Note_on_c, 5, 70, 83
7, 136654, Note_off_c, 5, 70, 64
7, 136795, Note_on_c, 5, 65, 72
7, 136883, Note_off_c, 5, 65, 64
7, 137033, Note_on_c, 5, 61, 83
7, 137137, Note_off_c, 5, 61, 64
7, 137274, Note_on_c, 5, 65, 78
7, 137300, Control_c, 5, 11, 96
7, 137346, Control_c, 5, 11, 88
7, 137393, Control_c, 5, 11, 81
7, 137439, Control_c, 5, 11, 74
7, 137456, Note_off_c, 5, 65, 64
7, 137495, Control_c, 5, 11, 100
7, 137508, Note_on_c, 5, 70, 83
7, 137615, Note_off_c, 5, 70, 64
7, 137757, Note_on_c, 5, 65, 72
7, 137847, Note_off_c, 5, 65, 64
7, 137995, Note_on_c, 5, 61, 83
7, 138097, Note_off_c, 5, 61, 64
7, 138235, Note_on_c, 5, 65, 68
7, 138359, Note_off_c, 5, 65, 64
7, 143965, Control_c, 5, 11, 94
7, 144000, Note_on_c, 5, 65, 98
7, 144010, Control_c, 5, 11, 102
7, 144054, Control_c, 5, 11, 112
7, 144105, Control_c, 5, 11, 100
7, 144155, Control_c, 5, 11, 86
7, 144195, Control_c, 5, 11, 74
7, 144206, Note_off_c, 5, 65, 64
7, 144225, Control_c, 5, 11, 100
7, 144244, Note_on_c, 5, 63, 87
7, 144334, Note_off_c, 5, 63, 64
7, 144356, Note_on_c, 5, 61, 78
7, 144446, Note_off_c, 5, 61, 64
7, 144468, Note_on_c, 5, 60, 63
7, 144485, Control_c, 5, 11, 96
7, 144531, Control_c, 5, 11, 89
7, 144578, Control_c, 5, 11, 82
7, 144624, Control_c, 5, 11, 76
7, 144651, Note_off_c, 5, 60, 64
7, 144675, Control_c, 5, 11, 100
7, 144724, Note_on_c, 5, 60, 70
7, 144814, Note_off_c, 5, 60, 64
7, 144973, Note_on_c, 5, 61, 48
7, 145060, Control_c, 5, 11, 96
7, 145093, Control_c, 5, 11, 91
7, 145127, Control_c, 5, 11, 87
7, 145161, Control_c, 5, 11, 82
7, 145194, Control_c, 5, 11, 78
7, 145208, Note_off_c, 5, 61, 64
7, 145255, Control_c, 5, 11, 100
7, 146164, Note_on_c, 5, 61, 87
7, 146254, Note_off_c, 5, 61, 64
7, 146276, Note_on_c, 5, 60, 55
7, 146366, Note_off_c, 5, 60, 64
7, 146390, Note_on_c, 5, 61, 69
7, 146405, Control_c, 5, 11, 96
7, 146450, Control_c, 5, 11, 88
7, 146495, Control_c, 5, 11, 81
7, 146539, Control_c, 5, 11, 74
7, 146540, Note_off_c, 5, 61, 64
7, 146605, Control_c, 5, 11, 100
7, 146644, Note_on_c, 5, 65, 85
7, 146734, Note_off_c, 5, 65, 64
7, 146757, Note_on_c, 5, 63, 71
7, 146847, Note_off_c, 5, 63, 64
7, 146870, Note_on_c, 5, 65, 64
7, 146880, Control_c, 5, 11, 94
7, 146917, Control_c, 5, 11, 89
7, 146955, Control_c, 5, 11, 84
7, 146992, Control_c, 5, 11, 79
7, 147020, Note_off_c, 5, 65, 64
7, 147029, Control_c, 5, 11, 74
7, 147110, Control_c, 5, 11, 100
7, 148084, Note_on_c, 5, 61, 84
7, 148174, Note_off_c, 5, 61, 64
7, 148197, Note_on_c, 5, 63, 54
7, 148287, Note_off_c, 5, 63, 64
7, 148315, Note_on_c, 5, 61, 78
7, 148325, Control_c, 5, 11, 96
7, 148363, Control_c, 5, 11, 89
7, 148401, Control_c, 5, 11, 82
7, 148439, Control_c, 5, 11, 76
7, 148469, Note_off_c, 5, 61, 64
7, 148530, Control_c, 5, 11, 100
7, 148564, Note_on_c, 5, 66, 78
7, 148654, Note_off_c, 5, 66, 64
7, 148797, Note_on_c, 5, 66, 84
7, 148845, Control_c, 5, 11, 96
7, 148891, Control_c, 5, 11, 88
7, 148938, Control_c, 5, 11, 81
7, 148984, Control_c, 5, 11, 74
7, 148999, Note_off_c, 5, 66, 64
7, 149025, Control_c, 5, 11, 100
7, 149044, Note_on_c, 5, 60, 83
7, 149134, Note_off_c, 5, 60, 64
7, 149157, Note_on_c, 5, 61, 78
7, 149247, Note_off_c, 5, 61, 64
7, 149274, Note_on_c, 5, 60, 78
7, 149300, Control_c, 5, 11, 94
7, 149340, Control_c, 5, 11, 87
7, 149380, Control_c, 5, 11, 80
7, 149419, Control_c, 5, 11, 74
7, 149462, Note_off_c, 5, 60, 64
7, 149485, Control_c, 5, 11, 100
7, 149512, Note_on_c, 5, 65, 68
7, 149605, Note_off_c, 5, 65, 64
7, 149629, Note_on_c, 5, 60, 72
7, 149726, Note_off_c, 5, 60, 64
7, 149749, Note_on_c, 5, 65, 78
7, 149760, Control_c, 5, 11, 94
7, 149803, Control_c, 5, 11, 86
7, 149846, Control_c, 5, 11, 79
7, 149889, Control_c, 5, 11, 72
7, 149935, Note_off_c, 5, 65, 64
7, 149950, Control_c, 5, 11, 100
7, 149988, Note_on_c, 5, 58, 78
7, 150091, Note_off_c, 5, 58, 64
7, 150230, Note_on_c, 5, 65, 66
7, 150337, Note_off_c, 5, 65, 64
7, 150473, Note_on_c, 5, 60, 65
7, 150576, Note_off_c, 5, 60, 64
7, 162484, Note_on_c, 5, 58, 63
7, 162574, Note_off_c, 5, 58, 64
7, 162596, Note_on_c, 5, 59, 46
7, 162686, Note_off_c, 5, 59, 64
7, 162709, Note_on_c, 5, 61, 46
7, 162725, Control_c, 5, 11, 96
7, 162766, Control_c, 5, 11, 91
7, 162808, Control_c, 5, 11, 86
7, 162849, Control_c, 5, 11, 82
7, 162859, Note_off_c, 5, 61, 64
7, 162965, Control_c, 5, 11, 100
7, 164404, Note_on_c, 5, 54, 66
7, 164494, Note_off_c, 5, 54, 64
7, 164516, Note_on_c, 5, 56, 46
7, 164606, Note_off_c, 5, 56, 64
7, 164630, Note_on_c, 5, 58, 46
7, 164640, Control_c, 5, 11, 94
7, 164685, Control_c, 5, 11, 88
7, 164730, Control_c, 5, 11, 82
7, 164774, Control_c, 5, 11, 76
7, 164780, Note_off_c, 5, 58, 64
7, 164875, Control_c, 5, 11, 100
7, 169920, Note_on_c, 5, 61, 71
7, 169983, Note_off_c, 5, 61, 64
7, 170032, Note_on_c, 5, 68, 80
7, 170144, Note_off_c, 5, 68, 64
7, 170151, Note_on_c, 5, 65, 106
7, 170250, Note_off_c, 5, 65, 64
7, 170264, Note_on_c, 5, 68, 80
7, 170345, Note_off_c, 5, 68, 64
7, 170386, Note_on_c, 5, 61, 86
7, 170474, Note_off_c, 5, 61, 64
7, 170506, Note_on_c, 5, 68, 79
7, 170591, Note_off_c, 5, 68, 64
7, 170626, Note_on_c, 5, 65, 96
7, 170717, Note_off_c, 5, 65, 64
7, 170744, Note_on_c, 5, 68, 79
7, 170833, Note_off_c, 5, 68, 64
7, 170868, Note_on_c, 5, 58, 84
7, 170966, Note_off_c, 5, 58, 64
7, 170987, Note_on_c, 5, 66, 78
7, 171057, Note_off_c, 5, 66, 64
7, 171106, Note_on_c, 5, 58, 81
7, 171201, Note_off_c, 5, 58, 64
7, 171226, Note_on_c, 5, 66, 78
7, 171303, Note_off_c, 5, 66, 64
7, 171347, Note_on_c, 5, 58, 79
7, 171448, Note_off_c, 5, 58, 64
7, 171467, Note_on_c, 5, 66, 80
7, 171539, Note_off_c, 5, 66, 64
7, 171589, Note_on_c, 5, 58, 81
7, 171686, Note_off_c, 5, 58, 64
7, 171704, Note_on_c, 5, 66, 78
7, 171790, Note_off_c, 5, 66, 64
7, 171827, Note_on_c, 5, 59, 84
7, 171916, Note_off_c, 5, 59, 64
7, 171944, Note_on_c, 5, 66, 78
7, 172028, Note_off_c, 5, 66, 64
7, 172070, Note_on_c, 5, 59, 81
7, 172173, Note_off_c, 5, 59, 64
7, 172189, Note_on_c, 5, 66, 77
7, 172274, Note_off_c, 5, 66, 64
7, 172309, Note_on_c, 5, 59, 83
7, 172406, Note_off_c, 5, 59, 64
7, 172427, Note_on_c, 5, 66, 77
7, 172506, Note_off_c, 5, 66, 64
7, 172551, Note_on_c, 5, 59, 86
7, 172644, Note_off_c, 5, 59, 64
7, 172664, Note_on_c, 5, 66, 83
7, 172735, Note_off_c, 5, 66, 64
7, 172790, Note_on_c, 5, 60, 81
7, 172884, Note_off_c, 5, 60, 64
7, 172909, Note_on_c, 5, 65, 58
7, 172969, Note_off_c, 5, 65, 64
7, 173027, Note_on_c, 5, 60, 81
7, 173122, Note_off_c, 5, 60, 64
7, 173144, Note_on_c, 5, 65, 62
7, 173212, Note_off_c, 5, 65, 64
7, 173264, Note_on_c, 5, 60, 80
7, 173361, Note_off_c, 5, 60, 64
7, 173385, Note_on_c, 5, 65, 74
7, 173450, Note_off_c, 5, 65, 64
7, 173508, Note_on_c, 5, 60, 84
7, 173612, Note_off_c, 5, 60, 64
7, 173627, Note_on_c, 5, 65, 72
7, 173698, Note_off_c, 5, 65, 64
7, 173752, Note_on_c, 5, 62, 103
7, 173833, Note_off_c, 5, 62, 64
7, 173868, Note_on_c, 5, 65, 73
7, 173944, Note_off_c, 5, 65, 64
7, 173991, Note_on_c, 5, 62, 72
7, 174062, Note_off_c, 5, 62, 64
7, 174108, Note_on_c, 5, 65, 63
7, 174167, Note_off_c, 5, 65, 64
7, 174230, Note_on_c, 5, 62, 78
7, 174316, Note_off_c, 5, 62, 64
7, 174349, Note_on_c, 5, 65, 71
7, 174419, Note_off_c, 5, 65, 64
7, 174472, Note_on_c, 5, 62, 83
7, 174574, Note_off_c, 5, 62, 64
7, 174593, Note_on_c, 5, 65, 78
7, 174666, Note_off_c, 5, 65, 64
7, 174718, Note_on_c, 5, 58, 93
7, 174802, Note_off_c, 5, 58, 64
7, 174833, Note_on_c, 5, 63, 75
7, 174903, Note_off_c, 5, 63, 64
7, 174950, Note_on_c, 5, 58, 78
7, 175036, Note_off_c, 5, 58, 64
7, 175066, Note_on_c, 5, 63, 73
7, 175137, Note_off_c, 5, 63, 64
7, 175186, Note_on_c, 5, 58, 83
7, 175284, Note_off_c, 5, 58, 64
7, 175303, Note_on_c, 5, 63, 73
7, 175375, Note_off_c, 5, 63, 64
7, 175427, Note_on_c, 5, 58, 79
7, 175515, Note_off_c, 5, 58, 64
7, 175546, Note_on_c, 5, 63, 72
7, 175624, Note_off_c, 5, 63, 64
7, 175670, Note_on_c, 5, 59, 72
7, 175763, Note_off_c, 5, 59, 64
7, 175790, Note_on_c, 5, 63, 64
7, 175853, Note_off_c, 5, 63, 64
7, 175908, Note_on_c, 5, 59, 72
7, 176004, Note_off_c, 5, 59, 64
7, 176029, Note_on_c, 5, 63, 71
7, 176102, Note_off_c, 5, 63, 64
7, 176150, Note_on_c, 5, 59, 71
7, 176245, Note_off_c, 5, 59, 64
7, 176272, Note_on_c, 5, 63, 52
7, 176334, Note_off_c, 5, 63, 64
7, 176393, Note_on_c, 5, 59, 71
7, 176489, Note_off_c, 5, 59, 64
7, 176511, Note_on_c, 5, 63, 60
7, 176572, Note_off_c, 5, 63, 64
7, 188882, Note_on_c, 5, 56, 110
7, 188972, Note_off_c, 5, 56, 64
7, 188994, Note_on_c, 5, 55, 73
7, 189084, Note_off_c, 5, 55, 64
7, 189109, Note_on_c, 5, 56, 59
7, 189120, Control_c, 5, 11, 96
7, 189165, Control_c, 5, 11, 90
7, 189210, Control_c, 5, 11, 84
7, 189254, Control_c, 5, 11, 78
7, 189259, Note_off_c, 5, 56, 64
7, 189355, Control_c, 5, 11, 100
7, 189827, Note_on_c, 5, 68, 116
7, 189907, Note_off_c, 5, 68, 64
7, 190080, Note_on_c, 5, 61, 115
7, 190085, Control_c, 5, 11, 96
7, 190125, Control_c, 5, 11, 89
7, 190165, Control_c, 5, 11, 82
7, 190205, Control_c, 5, 11, 75
7, 190244, Control_c, 5, 11, 68
7, 190260, Note_off_c, 5, 61, 64
7, 190310, Control_c, 5, 11, 100
7, 190801, Note_on_c, 5, 54, 115
7, 190891, Note_off_c, 5, 54, 64
7, 190914, Note_on_c, 5, 53, 95
7, 191004, Note_off_c, 5, 53, 64
7, 191019, Note_on_c, 5, 54, 78
7, 191040, Control_c, 5, 11, 94
7, 191078, Control_c, 5, 11, 90
7, 191117, Control_c, 5, 11, 86
7, 191156, Control_c, 5, 11, 82
7, 191169, Note_off_c, 5, 54, 64
7, 191194, Control_c, 5, 11, 78
7, 191305, Control_c, 5, 11, 100
7, 191751, Note_on_c, 5, 66, 107
7, 191826, Note_off_c, 5, 66, 64
7, 192000, Control_c, 5, 11, 96
7, 192000, Note_on_c, 5, 59, 113
7, 192038, Control_c, 5, 11, 90
7, 192077, Control_c, 5, 11, 85
7, 192116, Control_c, 5, 11, 79
7, 192154, Control_c, 5, 11, 74
7, 192180, Note_off_c, 5, 59, 64
7, 192210, Control_c, 5, 11, 100
7, 192722, Note_on_c, 5, 52, 115
7, 192812, Note_off_c, 5, 52, 64
7, 192834, Note_on_c, 5, 51, 90
7, 192924, Note_off_c, 5, 51, 64
7, 192948, Note_on_c, 5, 52, 78
7, 192960, Control_c, 5, 11, 96
7, 193005, Control_c, 5, 11, 89
7, 193050, Control_c, 5, 11, 82
7, 193094, Control_c, 5, 11, 76
7, 193098, Note_off_c, 5, 52, 64
7, 193180, Control_c, 5, 11, 100
7, 193684, Note_on_c, 5, 64, 113
7, 193754, Note_off_c, 5, 64, 64
7, 193920, Control_c, 5, 11, 94
7, 193920, Note_on_c, 5, 58, 107
7, 193958, Control_c, 5, 11, 90
7, 193997, Control_c, 5, 11, 87
7, 194036, Control_c, 5, 11, 83
7, 194074, Control_c, 5, 11, 80
7, 194090, Note_off_c, 5, 58, 64
7, 194130, Control_c, 5, 11, 100
7, 194164, Note_on_c, 5, 61, 102
7, 194254, Note_off_c, 5, 61, 64
7, 194276, Note_on_c, 5, 63, 78
7, 194366, Note_off_c, 5, 63, 64
7, 194392, Note_on_c, 5, 61, 77
7, 194400, Control_c, 5, 11, 96
7, 194445, Control_c, 5, 11, 88
7, 194490, Control_c, 5, 11, 81
7, 194534, Control_c, 5, 11, 74
7, 194579, Note_off_c, 5, 61, 64
7, 194610, Control_c, 5, 11, 100
7, 194644, Note_on_c, 5, 67, 91
7, 194734, Note_off_c, 5, 67, 64
7, 194756, Note_on_c, 5, 68, 64
7, 194846, Note_off_c, 5, 68, 64
7, 194873, Note_on_c, 5, 67, 76
7, 194875, Control_c, 5, 11, 96
7, 194915, Control_c, 5, 11, 90
7, 194955, Control_c, 5, 11, 84
7, 194994, Control_c, 5, 11, 78
7, 195045, Note_off_c, 5, 67, 64
7, 195085, Control_c, 5, 11, 100
7, 195124, Note_on_c, 5, 70, 116
7, 195214, Note_off_c, 5, 70, 64
7, 195236, Note_on_c, 5, 71, 86
7, 195326, Note_off_c, 5, 71, 64
7, 195348, Note_on_c, 5, 70, 74
7, 195365, Control_c, 5, 11, 96
7, 195415, Control_c, 5, 11, 87
7, 195464, Control_c, 5, 11, 78
7, 195477, Note_off_c, 5, 70, 64
7, 195530, Control_c, 5, 11, 100
7, 195598, Note_on_c, 5, 63, 78
7, 195682, Note_off_c, 5, 63, 64
7, 195835, Note_on_c, 5, 63, 78
7, 195999, Note_off_c, 5, 63, 64
7, 196074, Note_on_c, 5, 61, 78
7, 196176, Note_off_c, 5, 61, 64
7, 196309, Note_on_c, 5, 61, 78
7, 196403, Note_off_c, 5, 61, 64
7, 196550, Note_on_c, 5, 61, 78
7, 196649, Note_off_c, 5, 61, 64
7, 196802, Note_on_c, 5, 59, 98
7, 196913, Note_on_c, 5, 61, 78
7, 196926, Note_off_c, 5, 59, 64
7, 197029, Note_off_c, 5, 61, 64
7, 197032, Note_on_c, 5, 63, 78
7, 197130, Note_off_c, 5, 63, 64
7, 197169, Note_on_c, 5, 64, 85
7, 197257, Note_off_c, 5, 64, 64
7, 197288, Note_on_c, 5, 63, 104
7, 197394, Note_on_c, 5, 68, 89
7, 197395, Note_off_c, 5, 63, 64
7, 197493, Note_off_c, 5, 68, 64
7, 197511, Note_on_c, 5, 67, 107
7, 197603, Note_off_c, 5, 67, 64
7, 197630, Note_on_c, 5, 70, 90
7, 197718, Note_off_c, 5, 70, 64
7, 197753, Note_on_c, 5, 68, 113
7, 197870, Note_on_c, 5, 67, 98
7, 197879, Note_off_c, 5, 68, 64
7, 197976, Note_off_c, 5, 67, 64
7, 197989, Note_on_c, 5, 68, 81
7, 198098, Note_off_c, 5, 68, 64
7, 198116, Note_on_c, 5, 70, 88
7, 198216, Note_off_c, 5, 70, 64
7, 198237, Note_on_c, 5, 68, 113
7, 198348, Note_on_c, 5, 71, 89
7, 198350, Note_off_c, 5, 68, 64
7, 198450, Note_off_c, 5, 71, 64
7, 198470, Note_on_c, 5, 70, 113
7, 198571, Note_off_c, 5, 70, 64
7, 198584, Note_on_c, 5, 73, 115
7, 198679, Note_off_c, 5, 73, 64
7, 198716, Note_on_c, 5, 71, 110
7, 198833, Note_on_c, 5, 70, 97
7, 198850, Note_off_c, 5, 71, 64
7, 198955, Note_on_c, 5, 71, 92
7, 198965, Note_off_c, 5, 70, 64
7, 199050, Note_off_c, 5, 71, 64
7, 199073, Note_on_c, 5, 73, 104
7, 199179, Note_off_c, 5, 73, 64
7, 199203, Note_on_c, 5, 71, 107
7, 199305, Note_on_c, 5, 73, 88
7, 199309, Note_off_c, 5, 71, 64
7, 199399, Note_off_c, 5, 73, 64
7, 199428, Note_on_c, 5, 71, 94
7, 199513, Note_off_c, 5, 71, 64
7, 199545, Note_on_c, 5, 70, 105
7, 199644, Note_off_c, 5, 70, 64
7, 199669, Note_on_c, 5, 68, 102
7, 199799, Note_off_c, 5, 68, 64
7, 199799, Note_on_c, 5, 70, 92
7, 199906, Note_on_c, 5, 68, 92
7, 199919, Note_off_c, 5, 70, 64
7, 200017, Note_off_c, 5, 68, 64
7, 200025, Note_on_c, 5, 67, 88
7, 200125, Note_off_c, 5, 67, 64
7, 200147, Note_on_c, 5, 68, 66
7, 200290, Note_off_c, 5, 68, 64
7, 200396, Note_on_c, 5, 65, 83
7, 200500, Note_off_c, 5, 65, 64
7, 200631, Note_on_c, 5, 63, 79
7, 200759, Note_off_c, 5, 63, 64
7, 200873, Note_on_c, 5, 58, 66
7, 200978, Note_off_c, 5, 58, 64
7, 209520, Note_on_c, 5, 65, 40
7, 209595, Note_off_c, 5, 65, 64
7, 209757, Note_on_c, 5, 65, 47
7, 209844, Note_off_c, 5, 65, 64
7, 209996, Note_on_c, 5, 65, 40
7, 210089, Note_off_c, 5, 65, 64
7, 210235, Note_on_c, 5, 65, 38
7, 210334, Note_off_c, 5, 65, 64
7, 210478, Note_on_c, 5, 65, 48
7, 210576, Note_off_c, 5, 65, 64
7, 210714, Note_on_c, 5, 65, 52
7, 210807, Note_off_c, 5, 65, 64
7, 210957, Note_on_c, 5, 65, 46
7, 211051, Note_off_c, 5, 65, 64
7, 211199, Note_on_c, 5, 66, 52
7, 211358, Note_off_c, 5, 66, 64
7, 211436, Note_on_c, 5, 61, 62
7, 211538, Note_off_c, 5, 61, 64
7, 211675, Note_on_c, 5, 61, 53
7, 211787, Note_off_c, 5, 61, 64
7, 211916, Note_on_c, 5, 61, 57
7, 212040, Note_off_c, 5, 61, 64
7, 212162, Note_on_c, 5, 61, 54
7, 212263, Note_off_c, 5, 61, 64
7, 212400, Note_on_c, 5, 61, 63
7, 212489, Note_off_c, 5, 61, 64
7, 212632, Note_on_c, 5, 61, 61
7, 212721, Note_off_c, 5, 61, 64
7, 212870, Note_on_c, 5, 61, 68
7, 212966, Note_off_c, 5, 61, 64
7, 213110, Note_on_c, 5, 63, 69
7, 213231, Note_off_c, 5, 63, 64
7, 213349, Note_on_c, 5, 63, 60
7, 213457, Note_off_c, 5, 63, 64
7, 213588, Note_on_c, 5, 63, 65
7, 213683, Note_off_c, 5, 63, 64
7, 213825, Note_on_c, 5, 63, 56
7, 213934, Note_off_c, 5, 63, 64
7, 214074, Note_on_c, 5, 63, 63
7, 214171, Note_off_c, 5, 63, 64
7, 214311, Note_on_c, 5, 63, 72
7, 214419, Note_off_c, 5, 63, 64
7, 214553, Note_on_c, 5, 63, 74
7, 214663, Note_off_c, 5, 63, 64
7, 214796, Note_on_c, 5, 63, 74
7, 214903, Note_off_c, 5, 63, 64
7, 215047, Note_on_c, 5, 72, 68
7, 215156, Note_on_c, 5, 70, 51
7, 215172, Note_off_c, 5, 72, 64
7, 215274, Note_off_c, 5, 70, 64
7, 215275, Note_on_c, 5, 72, 51
7, 215411, Note_off_c, 5, 72, 64
7, 215996, Note_on_c, 5, 72, 66
7, 216101, Note_on_c, 5, 70, 47
7, 216124, Note_off_c, 5, 72, 64
7, 216201, Note_off_c, 5, 70, 64
7, 216222, Note_on_c, 5, 72, 47
7, 216376, Note_off_c, 5, 72, 64
7, 216958, Note_on_c, 5, 62, 116
7, 217084, Note_on_c, 5, 61, 77
7, 217102, Note_off_c, 5, 62, 64
7, 217201, Note_on_c, 5, 62, 64
7, 217202, Note_off_c, 5, 61, 64
7, 217311, Note_off_c, 5, 62, 64
7, 217320, Note_on_c, 5, 71, 107
7, 217383, Note_off_c, 5, 71, 64
7, 217438, Note_on_c, 5, 68, 104
7, 217537, Note_off_c, 5, 68, 64
7, 217551, Note_on_c, 5, 65, 98
7, 217637, Note_off_c, 5, 65, 64
7, 217662, Note_on_c, 5, 62, 83
7, 217732, Note_off_c, 5, 62, 64
7, 217781, Note_on_c, 5, 59, 78
7, 217861, Note_off_c, 5, 59, 64
7, 217915, Note_on_c, 5, 62, 116
7, 218032, Note_on_c, 5, 61, 96
7, 218042, Note_off_c, 5, 62, 64
7, 218154, Note_on_c, 5, 62, 55
7, 218159, Note_off_c, 5, 61, 64
7, 218244, Note_off_c, 5, 62, 64
7, 218284, Note_on_c, 5, 71, 102
7, 218347, Note_off_c, 5, 71, 64
7, 218402, Note_on_c, 5, 68, 110
7, 218490, Note_off_c, 5, 68, 64
7, 218517, Note_on_c, 5, 65, 107
7, 218593, Note_off_c, 5, 65, 64
7, 218632, Note_on_c, 5, 62, 89
7, 218698, Note_off_c, 5, 62, 64
7, 218740, Note_on_c, 5, 59, 79
7, 218814, Note_off_c, 5, 59, 64
7, 218874, Note_on_c, 5, 64, 62
7, 218989, Note_on_c, 5, 66, 46
7, 218995, Note_off_c, 5, 64, 64
7, 219109, Note_off_c, 5, 66, 64
7, 219109, Note_on_c, 5, 64, 46
7, 219250, Note_off_c, 5, 64, 64
7, 219832, Note_on_c, 5, 64, 64
7, 219935, Note_off_c, 5, 64, 64
7, 219943, Note_on_c, 5, 66, 44
7, 220068, Note_on_c, 5, 64, 44
7, 220070, Note_off_c, 5, 66, 64
7, 220204, Note_off_c, 5, 64, 64
7, 221280, Note_on_c, 5, 66, 45
7, 221397, Note_off_c, 5, 66, 64
7, 221397, Note_on_c, 5, 68, 32
7, 221511, Note_on_c, 5, 66, 26
7, 221512, Note_off_c, 5, 68, 64
7, 221520, Control_c, 5, 11, 96
7, 221558, Control_c, 5, 11, 90
7, 221596, Control_c, 5, 11, 85
7, 221634, Control_c, 5, 11, 80
7, 221641, Note_off_c, 5, 66, 64
7, 221680, Control_c, 5, 11, 100
7, 222238, Note_on_c, 5, 66, 45
7, 222352, Note_off_c, 5, 66, 64
7, 222354, Note_on_c, 5, 68, 32
7, 222460, Control_c, 5, 11, 96
7, 222463, Note_off_c, 5, 68, 64
7, 222468, Note_on_c, 5, 66, 32
7, 222508, Control_c, 5, 11, 88
7, 222556, Control_c, 5, 11, 81
7, 222604, Control_c, 5, 11, 74
7, 222605, Note_off_c, 5, 66, 64
7, 222655, Control_c, 5, 11, 100
7, 223199, Note_on_c, 5, 66, 49
7, 223301, Note_off_c, 5, 66, 64
7, 223311, Note_on_c, 5, 68, 34
7, 223427, Note_off_c, 5, 68, 64
7, 223428, Note_on_c, 5, 66, 34
7, 223435, Control_c, 5, 11, 94
7, 223481, Control_c, 5, 11, 88
7, 223528, Control_c, 5, 11, 83
7, 223545, Note_off_c, 5, 66, 64
7, 223574, Control_c, 5, 11, 78
7, 223630, Control_c, 5, 11, 100
7, 224158, Note_on_c, 5, 66, 54
7, 224273, Note_off_c, 5, 66, 64
7, 224273, Note_on_c, 5, 68, 39
7, 224382, Note_off_c, 5, 68, 64
7, 224385, Control_c, 5, 11, 96
7, 224390, Note_on_c, 5, 66, 39
7, 224426, Control_c, 5, 11, 89
7, 224468, Control_c, 5, 11, 82
7, 224509, Control_c, 5, 11, 76
7, 224517, Note_off_c, 5, 66, 64
7, 224600, Control_c, 5, 11, 100
7, 225121, Note_on_c, 5, 66, 57
7, 225232, Note_on_c, 5, 68, 47
7, 225235, Note_off_c, 5, 66, 64
7, 225346, Note_on_c, 5, 66, 47
7, 225350, Note_off_c, 5, 68, 64
7, 225355, Control_c, 5, 11, 94
7, 225396, Control_c, 5, 11, 86
7, 225438, Control_c, 5, 11, 78
7, 225467, Note_off_c, 5, 66, 64
7, 225479, Control_c, 5, 11, 70
7, 225525, Control_c, 5, 11, 100
7, 226072, Note_on_c, 5, 66, 61
7, 226187, Note_on_c, 5, 68, 51
7, 226193, Note_off_c, 5, 66, 64
7, 226299, Note_off_c, 5, 68, 64
7, 226301, Note_on_c, 5, 66, 52
7, 226310, Control_c, 5, 11, 94
7, 226353, Control_c, 5, 11, 88
7, 226396, Control_c, 5, 11, 83
7, 226439, Control_c, 5, 11, 78
7, 226449, Note_off_c, 5, 66, 64
7, 226525, Control_c, 5, 11, 100
7, 227037, Note_on_c, 5, 66, 85
7, 227146, Note_on_c, 5, 68, 65
7, 227153, Note_off_c, 5, 66, 64
7, 227265, Note_on_c, 5, 66, 65
7, 227270, Control_c, 5, 11, 94
7, 227274, Note_off_c, 5, 68, 64
7, 227310, Control_c, 5, 11, 88
7, 227350, Control_c, 5, 11, 83
7, 227389, Control_c, 5, 11, 78
7, 227394, Note_off_c, 5, 66, 64
7, 227480, Control_c, 5, 11, 100
7, 227995, Note_on_c, 5, 66, 96
7, 228109, Note_on_c, 5, 68, 69
7, 228116, Note_off_c, 5, 66, 64
7, 228227, Note_on_c, 5, 66, 72
7, 228235, Note_off_c, 5, 68, 64
7, 228240, Control_c, 5, 11, 96
7, 228295, Control_c, 5, 11, 88
7, 228331, Note_off_c, 5, 66, 64
7, 228349, Control_c, 5, 11, 80
7, 228425, Control_c, 5, 11, 100
7, 228957, Note_on_c, 5, 65, 105
7, 229057, Note_off_c, 5, 65, 64
7, 229063, Note_on_c, 5, 66, 73
7, 229182, Note_on_c, 5, 65, 56
7, 229185, Control_c, 5, 11, 96
7, 229188, Note_off_c, 5, 66, 64
7, 229223, Control_c, 5, 11, 89
7, 229261, Control_c, 5, 11, 82
7, 229299, Control_c, 5, 11, 76
7, 229308, Note_off_c, 5, 65, 64
7, 229350, Control_c, 5, 11, 100
7, 229921, Note_on_c, 5, 65, 90
7, 230020, Note_off_c, 5, 65, 64
7, 230027, Note_on_c, 5, 66, 77
7, 230125, Control_c, 5, 11, 94
7, 230147, Note_on_c, 5, 65, 60
7, 230150, Note_off_c, 5, 66, 64
7, 230175, Control_c, 5, 11, 86
7, 230224, Control_c, 5, 11, 78
7, 230240, Note_off_c, 5, 65, 64
7, 230290, Control_c, 5, 11, 100
7, 230392, Note_on_c, 5, 61, 57
7, 230400, Control_c, 5, 11, 96
7, 230446, Control_c, 5, 11, 90
7, 230493, Control_c, 5, 11, 84
7, 230539, Control_c, 5, 11, 78
7, 230567, Note_off_c, 5, 61, 64
7, 230630, Control_c, 5, 11, 100
7, 231122, Note_on_c, 5, 54, 94
7, 231212, Note_off_c, 5, 54, 64
7, 231234, Note_on_c, 5, 53, 69
7, 231324, Note_off_c, 5, 53, 64
7, 231346, Note_on_c, 5, 54, 78
7, 231360, Control_c, 5, 11, 96
7, 231398, Control_c, 5, 11, 91
7, 231437, Control_c, 5, 11, 87
7, 231476, Control_c, 5, 11, 82
7, 231496, Note_off_c, 5, 54, 64
7, 231514, Control_c, 5, 11, 78
7, 231600, Control_c, 5, 11, 100
7, 232075, Note_on_c, 5, 66, 107
7, 232148, Note_off_c, 5, 66, 64
7, 232315, Control_c, 5, 11, 94
7, 232316, Note_on_c, 5, 59, 116
7, 232353, Control_c, 5, 11, 88
7, 232392, Control_c, 5, 11, 83
7, 232431, Control_c, 5, 11, 77
7, 232469, Control_c, 5, 11, 72
7, 232499, Note_off_c, 5, 59, 64
7, 232535, Control_c, 5, 11, 100
7, 233042, Note_on_c, 5, 52, 98
7, 233132, Note_off_c, 5, 52, 64
7, 233155, Note_on_c, 5, 51, 78
7, 233245, Note_off_c, 5, 51, 64
7, 233274, Note_on_c, 5, 52, 83
7, 233285, Control_c, 5, 11, 96
7, 233330, Control_c, 5, 11, 88
7, 233375, Control_c, 5, 11, 81
7, 233419, Control_c, 5, 11, 74
7, 233424, Note_off_c, 5, 52, 64
7, 233530, Control_c, 5, 11, 100
7, 233989, Note_on_c, 5, 64, 104
7, 234062, Note_off_c, 5, 64, 64
7, 234235, Control_c, 5, 11, 98
7, 234240, Note_on_c, 5, 57, 116
7, 234272, Control_c, 5, 11, 93
7, 234310, Control_c, 5, 11, 88
7, 234347, Control_c, 5, 11, 83
7, 234384, Control_c, 5, 11, 78
7, 234399, Note_off_c, 5, 57, 64
7, 234430, Control_c, 5, 11, 100
7, 234962, Note_on_c, 5, 50, 107
7, 235052, Note_off_c, 5, 50, 64
7, 235074, Note_on_c, 5, 49, 79
7, 235164, Note_off_c, 5, 49, 64
7, 235195, Note_on_c, 5, 50, 89
7, 235205, Control_c, 5, 11, 96
7, 235246, Control_c, 5, 11, 89
7, 235288, Control_c, 5, 11, 82
7, 235329, Control_c, 5, 11, 76
7, 235345, Note_off_c, 5, 50, 64
7, 235455, Control_c, 5, 11, 100
7, 235920, Note_on_c, 5, 62, 80
7, 235990, Note_off_c, 5, 62, 64
7, 236160, Note_on_c, 5, 56, 87
7, 236165, Control_c, 5, 11, 94
7, 236204, Control_c, 5, 11, 89
7, 236243, Control_c, 5, 11, 84
7, 236282, Control_c, 5, 11, 79
7, 236321, Control_c, 5, 11, 74
7, 236359, Control_c, 5, 11, 70
7, 236383, Note_off_c, 5, 56, 64
7, 236395, Control_c, 5, 11, 100
7, 236877, Note_on_c, 5, 61, 90
7, 236958, Note_off_c, 5, 61, 64
7, 237131, Note_on_c, 5, 56, 116
7, 237229, Note_off_c, 5, 56, 64
7, 237233, Note_on_c, 5, 59, 97
7, 237309, Note_off_c, 5, 59, 64
7, 237358, Note_on_c, 5, 53, 116
7, 237475, Note_off_c, 5, 53, 64
7, 237475, Note_on_c, 5, 54, 100
7, 237573, Note_off_c, 5, 54, 64
7, 237593, Note_on_c, 5, 56, 116
7, 237695, Note_off_c, 5, 56, 64
7, 237710, Note_on_c, 5, 57, 99
7, 237788, Note_off_c, 5, 57, 64
7, 237827, Note_on_c, 5, 59, 116
7, 237920, Note_off_c, 5, 59, 64
7, 237931, Note_on_c, 5, 61, 108
7, 238025, Note_off_c, 5, 61, 64
7, 238060, Note_on_c, 5, 62, 103
7, 238280, Control_c, 5, 11, 98
7, 238326, Control_c, 5, 11, 88
7, 238351, Note_off_c, 5, 62, 64
7, 238373, Control_c, 5, 11, 78
7, 238419, Control_c, 5, 11, 68
7, 238455, Control_c, 5, 11, 100
7, 238804, Note_on_c, 5, 56, 89
7, 238879, Note_off_c, 5, 56, 64
7, 239020, Control_c, 5, 11, 84
7, 239037, Note_on_c, 5, 57, 91
7, 239079, Control_c, 5, 11, 102
7, 239155, Control_c, 5, 11, 94
7, 239193, Control_c, 5, 11, 86
7, 239232, Control_c, 5, 11, 78
7, 239271, Control_c, 5, 11, 70
7, 239309, Control_c, 5, 11, 62
7, 239317, Note_off_c, 5, 57, 64
7, 239380, Control_c, 5, 11, 100
7, 239764, Note_on_c, 5, 68, 110
7, 239854, Note_off_c, 5, 68, 64
7, 239877, Note_on_c, 5, 66, 88
7, 239967, Note_off_c, 5, 66, 64
7, 239987, Note_on_c, 5, 68, 74
7, 240005, Control_c, 5, 11, 94
7, 240050, Control_c, 5, 11, 87
7, 240095, Control_c, 5, 11, 80
7, 240137, Note_off_c, 5, 68, 64
7, 240139, Control_c, 5, 11, 74
7, 240190, Control_c, 5, 11, 100
7, 240723, Note_on_c, 5, 65, 111
7, 240813, Note_off_c, 5, 65, 64
7, 240836, Note_on_c, 5, 63, 75
7, 240926, Note_off_c, 5, 63, 64
7, 240946, Note_on_c, 5, 61, 74
7, 240955, Control_c, 5, 11, 96
7, 241000, Control_c, 5, 11, 88
7, 241045, Control_c, 5, 11, 80
7, 241089, Control_c, 5, 11, 72
7, 241096, Note_off_c, 5, 61, 64
7, 241150, Control_c, 5, 11, 100
7, 257524, Note_on_c, 5, 58, 84
7, 257614, Note_off_c, 5, 58, 64
7, 257637, Note_on_c, 5, 56, 57
7, 257727, Note_off_c, 5, 56, 64
7, 257753, Note_on_c, 5, 58, 62
7, 257760, Control_c, 5, 11, 94
7, 257803, Control_c, 5, 11, 87
7, 257846, Control_c, 5, 11, 80
7, 257889, Control_c, 5, 11, 74
7, 257903, Note_off_c, 5, 58, 64
7, 257960, Control_c, 5, 11, 100
7, 258004, Note_on_c, 5, 61, 84
7, 258094, Note_off_c, 5, 61, 64
7, 258117, Note_on_c, 5, 59, 57
7, 258207, Note_off_c, 5, 59, 64
7, 258238, Note_on_c, 5, 61, 60
7, 258240, Control_c, 5, 11, 96
7, 258280, Control_c, 5, 11, 88
7, 258320, Control_c, 5, 11, 81
7, 258359, Control_c, 5, 11, 74
7, 258385, Note_off_c, 5, 61, 64
7, 258455, Control_c, 5, 11, 100
7, 261361, Note_on_c, 5, 56, 80
7, 261447, Note_off_c, 5, 56, 64
7, 261468, Note_on_c, 5, 58, 71
7, 261560, Note_off_c, 5, 58, 64
7, 261589, Note_on_c, 5, 59, 90
7, 261692, Note_off_c, 5, 59, 64
7, 261708, Note_on_c, 5, 61, 74
7, 261801, Note_off_c, 5, 61, 64
7, 261827, Note_on_c, 5, 63, 98
7, 261905, Note_off_c, 5, 63, 64
7, 261947, Note_on_c, 5, 65, 103
7, 262029, Note_off_c, 5, 65, 64
7, 262076, Note_on_c, 5, 66, 110
7, 262290, Note_off_c, 5, 66, 64
7, 266880, End_track
8, 0, Start_track
8, 0, Instrument_name_t, "SC88-A"
8, 0, Title_t, "Viola.3"
8, 1440, Control_c, 6, 101, 0
8, 1450, Control_c, 6, 100, 0
8, 1450, Control_c, 6, 6, 0
8, 1470, Control_c, 6, 0, 0
8, 1480, Control_c, 6, 32, 1
8, 1490, Program_c, 6, 41
8, 1500, Control_c, 6, 10, 79
8, 1510, Control_c, 6, 11, 100
8, 1520, Control_c, 6, 7, 120
8, 1530, Control_c, 6, 93, 0
8, 1540, Control_c, 6, 91, 0
8, 1550, Pitch_bend_c, 6, 8192
8, 1560, Control_c, 6, 1, 0
8, 1570, Control_c, 6, 64, 0
8, 1580, Control_c, 6, 91, 64
8, 1590, Control_c, 6, 99, 1
8, 1600, Control_c, 6, 98, 32
8, 1610, Control_c, 6, 6, 64
8, 1620, Control_c, 6, 98, 33
8, 1630, Control_c, 6, 6, 60
8, 1640, Control_c, 6, 98, 99
8, 1650, Control_c, 6, 6, 64
8, 1660, Control_c, 6, 98, 100
8, 1670, Control_c, 6, 6, 64
8, 1680, Control_c, 6, 98, 102
8, 1690, Control_c, 6, 6, 64
8, 19920, Note_on_c, 6, 61, 73
8, 20037, Note_on_c, 6, 59, 57
8, 20051, Note_off_c, 6, 61, 64
8, 20156, Note_off_c, 6, 59, 64
8, 20156, Note_on_c, 6, 61, 48
8, 20160, Control_c, 6, 11, 96
8, 20203, Control_c, 6, 11, 89
8, 20246, Control_c, 6, 11, 82
8, 20289, Control_c, 6, 11, 76
8, 20306, Note_off_c, 6, 61, 64
8, 20360, Control_c, 6, 11, 100
8, 20407, Note_on_c, 6, 58, 68
8, 20520, Note_on_c, 6, 56, 51
8, 20528, Note_off_c, 6, 58, 64
8, 20626, Note_off_c, 6, 56, 64
8, 20631, Note_on_c, 6, 58, 46
8, 20645, Control_c, 6, 11, 94
8, 20693, Control_c, 6, 11, 87
8, 20741, Control_c, 6, 11, 80
8, 20781, Note_off_c, 6, 58, 64
8, 20789, Control_c, 6, 11, 74
8, 20870, Control_c, 6, 11, 100
8, 22324, Note_on_c, 6, 65, 47
8, 22439, Note_on_c, 6, 63, 39
8, 22441, Note_off_c, 6, 65, 64
8, 22553, Note_off_c, 6, 63, 64
8, 22554, Note_on_c, 6, 61, 36
8, 22568, Control_c, 6, 11, 94
8, 22614, Control_c, 6, 11, 89
8, 22661, Control_c, 6, 11, 84
8, 22704, Note_off_c, 6, 61, 64
8, 22707, Control_c, 6, 11, 80
8, 22841, Control_c, 6, 11, 100
8, 23280, Note_on_c, 6, 65, 50
8, 23382, Note_off_c, 6, 65, 64
8, 23393, Note_on_c, 6, 63, 46
8, 23493, Note_off_c, 6, 63, 64
8, 23507, Note_on_c, 6, 61, 36
8, 23541, Control_c, 6, 11, 96
8, 23583, Control_c, 6, 11, 88
8, 23625, Control_c, 6, 11, 81
8, 23657, Note_off_c, 6, 61, 64
8, 23666, Control_c, 6, 11, 74
8, 23828, Control_c, 6, 11, 100
8, 24245, Note_on_c, 6, 65, 51
8, 24344, Note_off_c, 6, 65, 64
8, 24354, Note_on_c, 6, 63, 38
8, 24460, Note_off_c, 6, 63, 64
8, 24472, Note_on_c, 6, 61, 33
8, 24486, Control_c, 6, 11, 96
8, 24535, Control_c, 6, 11, 91
8, 24584, Control_c, 6, 11, 86
8, 24622, Note_off_c, 6, 61, 64
8, 24632, Control_c, 6, 11, 82
8, 24794, Control_c, 6, 11, 100
8, 33349, Note_on_c, 6, 61, 72
8, 33451, Note_off_c, 6, 61, 64
8, 33459, Note_on_c, 6, 59, 54
8, 33590, Note_on_c, 6, 61, 50
8, 33595, Note_off_c, 6, 59, 64
8, 33605, Control_c, 6, 11, 96
8, 33650, Control_c, 6, 11, 91
8, 33695, Control_c, 6, 11, 86
8, 33739, Control_c, 6, 11, 82
8, 33740, Note_off_c, 6, 61, 64
8, 33820, Control_c, 6, 11, 100
8, 33839, Note_on_c, 6, 58, 81
8, 33939, Note_off_c, 6, 58, 64
8, 33949, Note_on_c, 6, 56, 62
8, 34049, Note_off_c, 6, 56, 64
8, 34066, Note_on_c, 6, 58, 54
8, 34090, Control_c, 6, 11, 96
8, 34133, Control_c, 6, 11, 89
8, 34176, Control_c, 6, 11, 82
8, 34216, Note_off_c, 6, 58, 64
8, 34219, Control_c, 6, 11, 76
8, 34335, Control_c, 6, 11, 100
8, 36232, Note_on_c, 6, 60, 46
8, 36340, Note_off_c, 6, 60, 64
8, 36474, Note_on_c, 6, 61, 50
8, 36554, Control_c, 6, 11, 98
8, 36600, Control_c, 6, 11, 92
8, 36647, Control_c, 6, 11, 86
8, 36693, Control_c, 6, 11, 80
8, 36704, Note_off_c, 6, 61, 64
8, 36778, Control_c, 6, 11, 100
8, 37197, Note_on_c, 6, 63, 101
8, 37371, Note_off_c, 6, 63, 64
8, 37457, Note_on_c, 6, 65, 109
8, 37558, Note_off_c, 6, 65, 64
8, 37560, Note_on_c, 6, 68, 96
8, 37652, Note_off_c, 6, 68, 64
8, 37681, Note_on_c, 6, 61, 113
8, 37796, Note_on_c, 6, 63, 95
8, 37801, Note_off_c, 6, 61, 64
8, 37902, Note_off_c, 6, 63, 64
8, 37916, Note_on_c, 6, 65, 99
8, 38029, Note_off_c, 6, 65, 64
8, 38036, Note_on_c, 6, 66, 97
8, 38135, Note_off_c, 6, 66, 64
8, 38158, Note_on_c, 6, 68, 122
8, 38270, Note_on_c, 6, 66, 112
8, 38273, Note_off_c, 6, 68, 64
8, 38393, Note_off_c, 6, 66, 64
8, 38397, Note_on_c, 6, 65, 89
8, 38591, Note_off_c, 6, 65, 64
8, 41531, Note_on_c, 6, 63, 69
8, 41641, Note_off_c, 6, 63, 64
8, 41646, Note_on_c, 6, 61, 45
8, 41753, Note_off_c, 6, 61, 64
8, 41762, Note_on_c, 6, 63, 45
8, 41770, Control_c, 6, 11, 96
8, 41810, Control_c, 6, 11, 90
8, 41850, Control_c, 6, 11, 84
8, 41889, Control_c, 6, 11, 78
8, 41912, Note_off_c, 6, 63, 64
8, 42015, Control_c, 6, 11, 100
8, 42473, Note_on_c, 6, 63, 64
8, 42588, Note_off_c, 6, 63, 64
8, 42589, Note_on_c, 6, 62, 48
8, 42712, Note_on_c, 6, 63, 40
8, 42717, Note_off_c, 6, 62, 64
8, 42730, Control_c, 6, 11, 96
8, 42770, Control_c, 6, 11, 91
8, 42810, Control_c, 6, 11, 87
8, 42850, Control_c, 6, 11, 82
8, 42862, Note_off_c, 6, 63, 64
8, 42889, Control_c, 6, 11, 78
8, 43000, Control_c, 6, 11, 100
8, 43436, Note_on_c, 6, 61, 64
8, 43552, Note_on_c, 6, 60, 48
8, 43559, Note_off_c, 6, 61, 64
8, 43669, Note_on_c, 6, 58, 40
8, 43672, Note_off_c, 6, 60, 64
8, 43685, Control_c, 6, 11, 96
8, 43726, Control_c, 6, 11, 89
8, 43768, Control_c, 6, 11, 82
8, 43809, Control_c, 6, 11, 76
8, 43819, Note_off_c, 6, 58, 64
8, 44000, Control_c, 6, 11, 100
8, 44392, Note_on_c, 6, 65, 94
8, 44504, Note_on_c, 6, 66, 71
8, 44505, Note_off_c, 6, 65, 64
8, 44622, Note_on_c, 6, 65, 57
8, 44633, Note_off_c, 6, 66, 64
8, 44767, Note_off_c, 6, 65, 64
8, 44875, Note_on_c, 6, 66, 70
8, 44992, Note_off_c, 6, 66, 64
8, 45113, Note_on_c, 6, 66, 73
8, 45298, Note_off_c, 6, 66, 64
8, 45360, Note_on_c, 6, 63, 89
8, 45465, Note_off_c, 6, 63, 64
8, 45469, Note_on_c, 6, 65, 63
8, 45588, Note_off_c, 6, 65, 64
8, 45591, Note_on_c, 6, 63, 63
8, 45816, Note_off_c, 6, 63, 64
8, 45839, Note_on_c, 6, 65, 89
8, 45952, Note_on_c, 6, 66, 73
8, 45954, Note_off_c, 6, 65, 64
8, 46065, Control_c, 6, 11, 96
8, 46070, Note_on_c, 6, 65, 61
8, 46072, Note_off_c, 6, 66, 64
8, 46117, Control_c, 6, 11, 103
8, 46169, Control_c, 6, 11, 112
8, 46205, Control_c, 6, 11, 106
8, 46242, Control_c, 6, 11, 97
8, 46274, Note_off_c, 6, 65, 64
8, 46279, Control_c, 6, 11, 88
8, 46300, Control_c, 6, 11, 100
8, 46317, Note_on_c, 6, 58, 58
8, 46460, Note_off_c, 6, 58, 64
8, 46552, Note_on_c, 6, 60, 62
8, 46675, Note_off_c, 6, 60, 64
8, 46790, Note_on_c, 6, 60, 47
8, 46901, Note_off_c, 6, 60, 64
8, 47036, Note_on_c, 6, 56, 41
8, 47190, Note_off_c, 6, 56, 64
8, 47276, Note_on_c, 6, 56, 43
8, 47391, Note_off_c, 6, 56, 64
8, 47521, Note_on_c, 6, 56, 43
8, 47718, Note_off_c, 6, 56, 64
8, 47756, Note_on_c, 6, 58, 43
8, 47899, Note_off_c, 6, 58, 64
8, 48007, Note_on_c, 6, 53, 58
8, 48182, Note_off_c, 6, 53, 64
8, 48242, Note_on_c, 6, 53, 50
8, 48395, Note_off_c, 6, 53, 64
8, 48475, Note_on_c, 6, 53, 50
8, 48656, Note_off_c, 6, 53, 64
8, 48715, Note_on_c, 6, 54, 50
8, 48846, Note_off_c, 6, 54, 64
8, 48959, Note_on_c, 6, 56, 46
8, 49000, Control_c, 6, 11, 94
8, 49045, Control_c, 6, 11, 89
8, 49091, Control_c, 6, 11, 84
8, 49136, Control_c, 6, 11, 79
8, 49167, Note_off_c, 6, 56, 64
8, 49181, Control_c, 6, 11, 74
8, 49259, Control_c, 6, 11, 100
8, 51123, Note_on_c, 6, 56, 68
8, 51226, Note_off_c, 6, 56, 64
8, 51364, Note_on_c, 6, 56, 68
8, 51463, Note_off_c, 6, 56, 64
8, 51601, Note_on_c, 6, 61, 68
8, 51703, Note_off_c, 6, 61, 64
8, 51843, Note_on_c, 6, 61, 57
8, 51970, Note_off_c, 6, 61, 64
8, 52077, Note_on_c, 6, 61, 46
8, 52248, Note_off_c, 6, 61, 64
8, 52309, Note_on_c, 6, 61, 44
8, 52552, Note_on_c, 6, 63, 48
8, 52555, Note_off_c, 6, 61, 64
8, 52719, Note_off_c, 6, 63, 64
8, 52795, Note_on_c, 6, 58, 50
8, 52960, Note_off_c, 6, 58, 64
8, 53042, Note_on_c, 6, 58, 51
8, 53161, Note_off_c, 6, 58, 64
8, 53276, Note_on_c, 6, 58, 51
8, 53480, Note_off_c, 6, 58, 64
8, 53513, Note_on_c, 6, 59, 44
8, 53668, Note_off_c, 6, 59, 64
8, 53755, Note_on_c, 6, 61, 50
8, 53953, Note_off_c, 6, 61, 64
8, 57832, Note_on_c, 6, 59, 80
8, 57935, Note_off_c, 6, 59, 64
8, 58075, Control_c, 6, 11, 98
8, 58076, Note_on_c, 6, 59, 90
8, 58127, Control_c, 6, 11, 104
8, 58179, Control_c, 6, 11, 112
8, 58205, Control_c, 6, 11, 106
8, 58248, Note_off_c, 6, 59, 64
8, 58250, Control_c, 6, 11, 92
8, 58294, Control_c, 6, 11, 78
8, 58305, Control_c, 6, 11, 100
8, 58340, Note_on_c, 6, 56, 110
8, 58432, Note_on_c, 6, 58, 75
8, 58444, Note_off_c, 6, 56, 64
8, 58557, Note_off_c, 6, 58, 64
8, 58565, Control_c, 6, 11, 96
8, 58569, Note_on_c, 6, 56, 75
8, 58605, Control_c, 6, 11, 90
8, 58645, Control_c, 6, 11, 84
8, 58684, Control_c, 6, 11, 78
8, 58719, Note_off_c, 6, 56, 64
8, 58770, Control_c, 6, 11, 100
8, 58802, Note_on_c, 6, 58, 83
8, 58893, Note_off_c, 6, 58, 64
8, 59030, Control_c, 6, 11, 94
8, 59040, Note_on_c, 6, 58, 83
8, 59085, Control_c, 6, 11, 104
8, 59139, Control_c, 6, 11, 116
8, 59170, Control_c, 6, 11, 106
8, 59211, Note_off_c, 6, 58, 64
8, 59239, Control_c, 6, 11, 88
8, 59270, Control_c, 6, 11, 100
8, 59310, Note_on_c, 6, 54, 103
8, 59411, Note_on_c, 6, 56, 75
8, 59418, Note_off_c, 6, 54, 64
8, 59520, Control_c, 6, 11, 94
8, 59539, Note_off_c, 6, 56, 64
8, 59543, Note_on_c, 6, 54, 89
8, 59565, Control_c, 6, 11, 86
8, 59610, Control_c, 6, 11, 79
8, 59654, Control_c, 6, 11, 72
8, 59693, Note_off_c, 6, 54, 64
8, 59700, Control_c, 6, 11, 100
8, 59770, Note_on_c, 6, 56, 81
8, 59882, Note_off_c, 6, 56, 64
8, 60013, Note_on_c, 6, 56, 81
8, 60112, Note_off_c, 6, 56, 64
8, 60246, Note_on_c, 6, 56, 75
8, 60375, Note_off_c, 6, 56, 64
8, 60482, Note_on_c, 6, 49, 68
8, 60632, Note_off_c, 6, 49, 64
8, 60724, Note_on_c, 6, 54, 73
8, 60826, Note_off_c, 6, 54, 64
8, 60956, Note_on_c, 6, 54, 73
8, 61042, Note_off_c, 6, 54, 64
8, 61184, Note_on_c, 6, 54, 73
8, 61264, Note_off_c, 6, 54, 64
8, 61422, Note_on_c, 6, 54, 73
8, 61503, Note_off_c, 6, 54, 64
8, 61665, Note_on_c, 6, 54, 66
8, 61744, Note_off_c, 6, 54, 64
8, 61900, Note_on_c, 6, 54, 83
8, 61986, Note_off_c, 6, 54, 64
8, 62150, Note_on_c, 6, 54, 81
8, 62234, Note_off_c, 6, 54, 64
8, 62380, Control_c, 6, 11, 94
8, 62391, Note_on_c, 6, 54, 78
8, 62417, Control_c, 6, 11, 98
8, 62455, Control_c, 6, 11, 103
8, 62492, Control_c, 6, 11, 108
8, 62529, Control_c, 6, 11, 114
8, 62590, Control_c, 6, 11, 98
8, 62630, Control_c, 6, 11, 90
8, 62668, Note_off_c, 6, 54, 64
8, 62670, Control_c, 6, 11, 82
8, 62709, Control_c, 6, 11, 74
8, 62745, Control_c, 6, 11, 100
8, 66237, Note_on_c, 6, 58, 85
8, 66357, Note_on_c, 6, 56, 75
8, 66362, Note_off_c, 6, 58, 64
8, 66464, Note_off_c, 6, 56, 64
8, 66476, Note_on_c, 6, 58, 78
8, 66566, Note_off_c, 6, 58, 64
8, 66607, Note_on_c, 6, 59, 78
8, 66683, Note_off_c, 6, 59, 64
8, 66726, Note_on_c, 6, 58, 79
8, 66814, Note_off_c, 6, 58, 64
8, 66835, Note_on_c, 6, 61, 78
8, 66906, Note_off_c, 6, 61, 64
8, 66956, Note_on_c, 6, 59, 94
8, 67030, Note_off_c, 6, 59, 64
8, 67075, Note_on_c, 6, 63, 89
8, 67145, Note_off_c, 6, 63, 64
8, 67196, Note_on_c, 6, 61, 97
8, 67315, Note_off_c, 6, 61, 64
8, 67316, Note_on_c, 6, 59, 78
8, 67426, Note_off_c, 6, 59, 64
8, 67435, Note_on_c, 6, 61, 78
8, 67510, Note_off_c, 6, 61, 64
8, 67565, Note_on_c, 6, 63, 78
8, 67644, Note_off_c, 6, 63, 64
8, 67685, Note_on_c, 6, 61, 84
8, 67779, Note_off_c, 6, 61, 64
8, 67795, Note_on_c, 6, 66, 79
8, 67865, Note_off_c, 6, 66, 64
8, 67915, Note_on_c, 6, 61, 85
8, 67997, Note_off_c, 6, 61, 64
8, 68035, Note_on_c, 6, 65, 91
8, 68104, Note_off_c, 6, 65, 64
8, 68155, Note_on_c, 6, 61, 89
8, 68265, Note_off_c, 6, 61, 64
8, 68275, Note_on_c, 6, 66, 78
8, 68355, Note_off_c, 6, 66, 64
8, 68395, Note_on_c, 6, 61, 92
8, 68476, Note_off_c, 6, 61, 64
8, 68515, Note_on_c, 6, 65, 78
8, 68584, Note_off_c, 6, 65, 64
8, 68635, Note_on_c, 6, 61, 92
8, 68723, Note_off_c, 6, 61, 64
8, 68755, Note_on_c, 6, 66, 78
8, 68836, Note_off_c, 6, 66, 64
8, 68875, Note_on_c, 6, 61, 88
8, 68954, Note_off_c, 6, 61, 64
8, 68995, Note_on_c, 6, 65, 89
8, 69059, Note_off_c, 6, 65, 64
8, 69115, Note_on_c, 6, 61, 86
8, 69240, Note_on_c, 6, 63, 75
8, 69249, Note_off_c, 6, 61, 64
8, 69353, Note_off_c, 6, 63, 64
8, 69355, Note_on_c, 6, 61, 72
8, 69444, Note_off_c, 6, 61, 64
8, 69475, Note_on_c, 6, 59, 77
8, 69547, Note_off_c, 6, 59, 64
8, 69595, Note_on_c, 6, 61, 69
8, 69716, Note_off_c, 6, 61, 64
8, 69831, Note_on_c, 6, 56, 63
8, 69916, Note_off_c, 6, 56, 64
8, 70075, Note_on_c, 6, 56, 57
8, 70080, Control_c, 6, 11, 96
8, 70121, Control_c, 6, 11, 89
8, 70162, Control_c, 6, 11, 83
8, 70203, Control_c, 6, 11, 76
8, 70244, Control_c, 6, 11, 70
8, 70266, Note_off_c, 6, 56, 64
8, 70335, Control_c, 6, 11, 100
8, 70794, Note_on_c, 6, 54, 56
8, 70902, Note_off_c, 6, 54, 64
8, 71035, Note_on_c, 6, 56, 63
8, 71050, Control_c, 6, 11, 96
8, 71096, Control_c, 6, 11, 89
8, 71143, Control_c, 6, 11, 82
8, 71178, Note_off_c, 6, 56, 64
8, 71189, Control_c, 6, 11, 76
8, 71270, Control_c, 6, 11, 100
8, 71755, Note_on_c, 6, 58, 56
8, 71842, Note_off_c, 6, 58, 64
8, 71995, Note_on_c, 6, 59, 68
8, 72030, Control_c, 6, 11, 96
8, 72078, Control_c, 6, 11, 89
8, 72126, Control_c, 6, 11, 82
8, 72167, Note_off_c, 6, 59, 64
8, 72174, Control_c, 6, 11, 76
8, 72245, Control_c, 6, 11, 100
8, 72706, Note_on_c, 6, 61, 78
8, 72782, Note_off_c, 6, 61, 64
8, 72948, Note_on_c, 6, 54, 78
8, 73087, Note_off_c, 6, 54, 64
8, 73201, Note_on_c, 6, 54, 78
8, 73326, Note_off_c, 6, 54, 64
8, 73405, Control_c, 6, 11, 82
8, 73439, Note_on_c, 6, 47, 64
8, 73442, Control_c, 6, 11, 89
8, 73480, Control_c, 6, 11, 96
8, 73517, Control_c, 6, 11, 104
8, 73554, Control_c, 6, 11, 112
8, 73586, Control_c, 6, 11, 102
8, 73602, Note_off_c, 6, 47, 64
8, 73628, Control_c, 6, 11, 95
8, 73676, Note_on_c, 6, 56, 78
8, 73680, Control_c, 6, 11, 100
8, 73784, Note_off_c, 6, 56, 64
8, 73916, Note_on_c, 6, 49, 68
8, 74041, Note_off_c, 6, 49, 64
8, 74159, Note_on_c, 6, 66, 69
8, 74258, Note_off_c, 6, 66, 64
8, 74397, Note_on_c, 6, 61, 59
8, 74501, Note_off_c, 6, 61, 64
8, 74639, Note_on_c, 6, 58, 47
8, 74741, Note_off_c, 6, 58, 64
8, 75126, Note_on_c, 6, 58, 74
8, 75231, Note_off_c, 6, 58, 64
8, 75240, Note_on_c, 6, 56, 64
8, 75361, Note_off_c, 6, 56, 64
8, 75363, Note_on_c, 6, 58, 56
8, 75370, Control_c, 6, 11, 96
8, 75415, Control_c, 6, 11, 90
8, 75460, Control_c, 6, 11, 84
8, 75504, Control_c, 6, 11, 78
8, 75513, Note_off_c, 6, 58, 64
8, 75575, Control_c, 6, 11, 100
8, 75608, Note_on_c, 6, 61, 91
8, 75721, Note_off_c, 6, 61, 64
8, 75722, Note_on_c, 6, 59, 68
8, 75840, Note_off_c, 6, 59, 64
8, 75842, Note_on_c, 6, 61, 68
8, 75850, Control_c, 6, 11, 96
8, 75887, Control_c, 6, 11, 90
8, 75925, Control_c, 6, 11, 85
8, 75962, Control_c, 6, 11, 79
8, 75992, Note_off_c, 6, 61, 64
8, 75999, Control_c, 6, 11, 74
8, 76080, Control_c, 6, 11, 100
8, 77528, Note_on_c, 6, 58, 73
8, 77634, Note_on_c, 6, 56, 54
8, 77637, Note_off_c, 6, 58, 64
8, 77758, Note_on_c, 6, 58, 50
8, 77760, Note_off_c, 6, 56, 64
8, 77765, Control_c, 6, 11, 96
8, 77810, Control_c, 6, 11, 90
8, 77855, Control_c, 6, 11, 84
8, 77899, Control_c, 6, 11, 78
8, 77908, Note_off_c, 6, 58, 64
8, 77955, Control_c, 6, 11, 100
8, 78004, Note_on_c, 6, 49, 61
8, 78117, Note_on_c, 6, 47, 50
8, 78122, Note_off_c, 6, 49, 64
8, 78230, Note_off_c, 6, 47, 64
8, 78230, Note_on_c, 6, 49, 49
8, 78245, Control_c, 6, 11, 96
8, 78288, Control_c, 6, 11, 88
8, 78331, Control_c, 6, 11, 81
8, 78374, Control_c, 6, 11, 74
8, 78380, Note_off_c, 6, 49, 64
8, 78465, Control_c, 6, 11, 100
8, 79926, Note_on_c, 6, 65, 83
8, 80039, Note_on_c, 6, 63, 65
8, 80045, Note_off_c, 6, 65, 64
8, 80161, Note_off_c, 6, 63, 64
8, 80165, Control_c, 6, 11, 96
8, 80165, Note_on_c, 6, 65, 54
8, 80210, Control_c, 6, 11, 90
8, 80255, Control_c, 6, 11, 84
8, 80299, Control_c, 6, 11, 78
8, 80315, Note_off_c, 6, 65, 64
8, 80395, Control_c, 6, 11, 100
8, 80875, Note_on_c, 6, 53, 77
8, 80992, Note_off_c, 6, 53, 64
8, 80993, Note_on_c, 6, 51, 65
8, 81110, Note_on_c, 6, 53, 64
8, 81120, Control_c, 6, 11, 96
8, 81121, Note_off_c, 6, 51, 64
8, 81165, Control_c, 6, 11, 88
8, 81210, Control_c, 6, 11, 80
8, 81254, Control_c, 6, 11, 72
8, 81260, Note_off_c, 6, 53, 64
8, 81350, Control_c, 6, 11, 100
8, 81838, Note_on_c, 6, 61, 98
8, 81933, Note_off_c, 6, 61, 64
8, 82078, Note_on_c, 6, 56, 81
8, 82170, Note_off_c, 6, 56, 64
8, 82314, Note_on_c, 6, 53, 91
8, 82411, Note_off_c, 6, 53, 64
8, 82558, Note_on_c, 6, 49, 83
8, 82733, Note_off_c, 6, 49, 64
8, 82801, Note_on_c, 6, 54, 94
8, 82914, Note_off_c, 6, 54, 64
8, 83036, Note_on_c, 6, 59, 94
8, 83178, Note_off_c, 6, 59, 64
8, 83277, Note_on_c, 6, 59, 90
8, 83406, Note_off_c, 6, 59, 64
8, 83514, Note_on_c, 6, 58, 78
8, 83667, Note_off_c, 6, 58, 64
8, 88080, Note_on_c, 6, 56, 88
8, 88140, Note_off_c, 6, 56, 64
8, 88319, Note_on_c, 6, 58, 78
8, 88330, Control_c, 6, 11, 94
8, 88373, Control_c, 6, 11, 88
8, 88416, Control_c, 6, 11, 82
8, 88459, Control_c, 6, 11, 76
8, 88510, Note_off_c, 6, 58, 64
8, 88530, Control_c, 6, 11, 100
8, 88551, Note_on_c, 6, 59, 78
8, 88667, Note_off_c, 6, 59, 64
8, 88775, Control_c, 6, 11, 100
8, 88791, Note_on_c, 6, 59, 83
8, 88898, Note_off_c, 6, 59, 64
8, 89036, Note_on_c, 6, 59, 83
8, 89138, Note_off_c, 6, 59, 64
8, 89281, Note_on_c, 6, 58, 83
8, 89380, Note_off_c, 6, 58, 64
8, 89397, Note_on_c, 6, 66, 83
8, 89500, Note_off_c, 6, 66, 64
8, 106314, Note_on_c, 6, 58, 108
8, 106418, Note_off_c, 6, 58, 64
8, 106429, Note_on_c, 6, 56, 79
8, 106535, Note_off_c, 6, 56, 64
8, 106546, Note_on_c, 6, 58, 58
8, 106560, Control_c, 6, 11, 96
8, 106601, Control_c, 6, 11, 88
8, 106643, Control_c, 6, 11, 80
8, 106684, Control_c, 6, 11, 72
8, 106696, Note_off_c, 6, 58, 64
8, 106740, Control_c, 6, 11, 100
8, 106801, Note_on_c, 6, 54, 96
8, 106906, Note_off_c, 6, 54, 64
8, 106912, Note_on_c, 6, 53, 61
8, 107021, Note_off_c, 6, 53, 64
8, 107029, Note_on_c, 6, 54, 60
8, 107030, Control_c, 6, 11, 96
8, 107068, Control_c, 6, 11, 90
8, 107107, Control_c, 6, 11, 85
8, 107146, Control_c, 6, 11, 79
8, 107179, Note_off_c, 6, 54, 64
8, 107184, Control_c, 6, 11, 74
8, 107315, Control_c, 6, 11, 100
8, 109676, Note_on_c, 6, 62, 68
8, 109791, Note_off_c, 6, 62, 64
8, 109796, Note_on_c, 6, 63, 54
8, 109913, Note_on_c, 6, 62, 39
8, 109921, Note_off_c, 6, 63, 64
8, 109925, Control_c, 6, 11, 96
8, 109965, Control_c, 6, 11, 89
8, 110005, Control_c, 6, 11, 82
8, 110044, Control_c, 6, 11, 76
8, 110063, Note_off_c, 6, 62, 64
8, 110135, Control_c, 6, 11, 100
8, 110158, Note_on_c, 6, 62, 73
8, 110272, Note_on_c, 6, 63, 54
8, 110274, Note_off_c, 6, 62, 64
8, 110394, Note_on_c, 6, 62, 47
8, 110400, Control_c, 6, 11, 96
8, 110410, Note_off_c, 6, 63, 64
8, 110441, Control_c, 6, 11, 91
8, 110482, Control_c, 6, 11, 86
8, 110523, Control_c, 6, 11, 81
8, 110544, Note_off_c, 6, 62, 64
8, 110575, Control_c, 6, 11, 100
8, 114958, Note_on_c, 6, 62, 54
8, 115065, Note_off_c, 6, 62, 64
8, 115201, Note_on_c, 6, 58, 62
8, 115365, Note_off_c, 6, 58, 64
8, 115440, Note_on_c, 6, 66, 62
8, 115556, Note_off_c, 6, 66, 64
8, 115850, Control_c, 6, 11, 86
8, 115896, Control_c, 6, 11, 90
8, 115915, Note_on_c, 6, 65, 90
8, 115942, Control_c, 6, 11, 95
8, 115988, Control_c, 6, 11, 100
8, 116034, Control_c, 6, 11, 106
8, 116080, Note_off_c, 6, 65, 64
8, 116125, Control_c, 6, 11, 100
8, 116168, Note_on_c, 6, 66, 120
8, 116270, Note_off_c, 6, 66, 64
8, 116272, Note_on_c, 6, 70, 101
8, 116366, Note_off_c, 6, 70, 64
8, 116396, Note_on_c, 6, 63, 120
8, 116478, Note_off_c, 6, 63, 64
8, 116510, Note_on_c, 6, 65, 99
8, 116592, Note_off_c, 6, 65, 64
8, 116630, Note_on_c, 6, 66, 118
8, 116744, Note_on_c, 6, 68, 86
8, 116746, Note_off_c, 6, 66, 64
8, 116839, Note_off_c, 6, 68, 64
8, 116867, Note_on_c, 6, 70, 105
8, 116970, Note_off_c, 6, 70, 64
8, 116986, Note_on_c, 6, 68, 110
8, 117076, Note_off_c, 6, 68, 64
8, 117116, Note_on_c, 6, 66, 108
8, 117248, Note_off_c, 6, 66, 64
8, 117354, Note_on_c, 6, 75, 96
8, 117443, Note_off_c, 6, 75, 64
8, 117598, Note_on_c, 6, 66, 76
8, 117687, Note_off_c, 6, 66, 64
8, 117831, Note_on_c, 6, 70, 68
8, 117913, Note_off_c, 6, 70, 64
8, 118077, Note_on_c, 6, 63, 78
8, 118181, Note_off_c, 6, 63, 64
8, 118323, Note_on_c, 6, 60, 68
8, 118435, Note_on_c, 6, 58, 62
8, 118436, Note_off_c, 6, 60, 64
8, 118557, Note_off_c, 6, 58, 64
8, 118559, Note_on_c, 6, 56, 48
8, 118560, Control_c, 6, 11, 96
8, 118598, Control_c, 6, 11, 89
8, 118636, Control_c, 6, 11, 82
8, 118674, Control_c, 6, 11, 76
8, 118709, Note_off_c, 6, 56, 64
8, 118800, Control_c, 6, 11, 100
8, 119271, Note_on_c, 6, 60, 80
8, 119386, Note_off_c, 6, 60, 64
8, 119386, Note_on_c, 6, 58, 78
8, 119487, Note_off_c, 6, 58, 64
8, 119499, Note_on_c, 6, 56, 52
8, 119525, Control_c, 6, 11, 96
8, 119565, Control_c, 6, 11, 90
8, 119605, Control_c, 6, 11, 84
8, 119644, Control_c, 6, 11, 78
8, 119649, Note_off_c, 6, 56, 64
8, 119755, Control_c, 6, 11, 100
8, 120233, Note_on_c, 6, 60, 87
8, 120349, Note_on_c, 6, 58, 78
8, 120350, Note_off_c, 6, 60, 64
8, 120457, Note_off_c, 6, 58, 64
8, 120472, Note_on_c, 6, 56, 49
8, 120485, Control_c, 6, 11, 96
8, 120523, Control_c, 6, 11, 91
8, 120562, Control_c, 6, 11, 87
8, 120601, Control_c, 6, 11, 82
8, 120622, Note_off_c, 6, 56, 64
8, 120639, Control_c, 6, 11, 78
8, 120740, Control_c, 6, 11, 100
8, 121196, Note_on_c, 6, 60, 97
8, 121309, Note_off_c, 6, 60, 64
8, 121309, Note_on_c, 6, 61, 78
8, 121429, Note_on_c, 6, 63, 78
8, 121440, Note_off_c, 6, 61, 64
8, 121445, Control_c, 6, 11, 94
8, 121488, Control_c, 6, 11, 86
8, 121531, Control_c, 6, 11, 79
8, 121574, Control_c, 6, 11, 72
8, 121579, Note_off_c, 6, 63, 64
8, 121635, Control_c, 6, 11, 100
8, 121674, Note_on_c, 6, 56, 73
8, 121760, Note_off_c, 6, 56, 64
8, 121914, Note_on_c, 6, 61, 57
8, 122025, Control_c, 6, 11, 94
8, 122068, Control_c, 6, 11, 86
8, 122111, Control_c, 6, 11, 79
8, 122116, Note_off_c, 6, 61, 64
8, 122154, Control_c, 6, 11, 72
8, 122190, Control_c, 6, 11, 100
8, 122638, Note_on_c, 6, 61, 69
8, 122743, Note_off_c, 6, 61, 64
8, 122754, Note_on_c, 6, 63, 48
8, 122870, Note_off_c, 6, 63, 64
8, 122878, Note_on_c, 6, 65, 39
8, 122880, Control_c, 6, 11, 94
8, 122928, Control_c, 6, 11, 86
8, 122976, Control_c, 6, 11, 78
8, 123024, Control_c, 6, 11, 70
8, 123028, Note_off_c, 6, 65, 64
8, 123105, Control_c, 6, 11, 100
8, 123597, Note_on_c, 6, 61, 77
8, 123698, Note_off_c, 6, 61, 64
8, 123709, Note_on_c, 6, 63, 48
8, 123829, Note_off_c, 6, 63, 64
8, 123829, Note_on_c, 6, 65, 42
8, 123840, Control_c, 6, 11, 94
8, 123886, Control_c, 6, 11, 87
8, 123933, Control_c, 6, 11, 80
8, 123979, Note_off_c, 6, 65, 64
8, 123979, Control_c, 6, 11, 74
8, 124070, Control_c, 6, 11, 100
8, 124563, Note_on_c, 6, 61, 69
8, 124667, Note_off_c, 6, 61, 64
8, 124674, Note_on_c, 6, 63, 48
8, 124795, Note_off_c, 6, 63, 64
8, 124805, Control_c, 6, 11, 96
8, 124807, Note_on_c, 6, 65, 50
8, 124846, Control_c, 6, 11, 90
8, 124888, Control_c, 6, 11, 84
8, 124929, Control_c, 6, 11, 78
8, 124957, Note_off_c, 6, 65, 64
8, 125025, Control_c, 6, 11, 100
8, 126483, Note_on_c, 6, 49, 41
8, 126553, Note_off_c, 6, 49, 64
8, 126719, Note_on_c, 6, 49, 69
8, 126835, Note_off_c, 6, 49, 64
8, 127920, Note_on_c, 6, 58, 84
8, 128016, Note_off_c, 6, 58, 64
8, 128037, Note_on_c, 6, 56, 65
8, 128149, Note_off_c, 6, 56, 64
8, 128152, Note_on_c, 6, 54, 57
8, 128170, Control_c, 6, 11, 92
8, 128216, Control_c, 6, 11, 86
8, 128262, Control_c, 6, 11, 81
8, 128302, Note_off_c, 6, 54, 64
8, 128308, Control_c, 6, 11, 75
8, 128354, Control_c, 6, 11, 70
8, 128385, Control_c, 6, 11, 100
8, 129357, Note_on_c, 6, 58, 99
8, 129473, Note_on_c, 6, 59, 73
8, 129475, Note_off_c, 6, 58, 64
8, 129589, Note_off_c, 6, 59, 64
8, 129592, Note_on_c, 6, 61, 64
8, 129600, Control_c, 6, 11, 96
8, 129646, Control_c, 6, 11, 89
8, 129693, Control_c, 6, 11, 82
8, 129739, Control_c, 6, 11, 76
8, 129742, Note_off_c, 6, 61, 64
8, 129785, Control_c, 6, 11, 100
8, 129841, Note_on_c, 6, 54, 102
8, 129956, Note_off_c, 6, 54, 64
8, 129957, Note_on_c, 6, 56, 80
8, 130073, Note_off_c, 6, 56, 64
8, 130077, Note_on_c, 6, 58, 67
8, 130227, Note_off_c, 6, 58, 64
8, 136556, Note_on_c, 6, 65, 79
8, 136684, Note_off_c, 6, 65, 64
8, 136795, Note_on_c, 6, 61, 78
8, 136894, Note_off_c, 6, 61, 64
8, 137032, Note_on_c, 6, 58, 78
8, 137136, Note_off_c, 6, 58, 64
8, 137277, Note_on_c, 6, 61, 78
8, 137300, Control_c, 6, 11, 96
8, 137346, Control_c, 6, 11, 88
8, 137393, Control_c, 6, 11, 81
8, 137427, Note_off_c, 6, 61, 64
8, 137439, Control_c, 6, 11, 74
8, 137495, Control_c, 6, 11, 100
8, 137510, Note_on_c, 6, 65, 75
8, 137605, Note_off_c, 6, 65, 64
8, 137757, Note_on_c, 6, 61, 78
8, 137837, Note_off_c, 6, 61, 64
8, 137996, Note_on_c, 6, 58, 78
8, 138092, Note_off_c, 6, 58, 64
8, 138235, Note_on_c, 6, 61, 78
8, 138371, Note_off_c, 6, 61, 64
8, 144000, Note_on_c, 6, 61, 78
8, 144207, Note_off_c, 6, 61, 64
8, 144227, Note_on_c, 6, 60, 64
8, 144290, Note_off_c, 6, 60, 64
8, 144469, Note_on_c, 6, 60, 61
8, 144485, Control_c, 6, 11, 96
8, 144531, Control_c, 6, 11, 89
8, 144555, Note_off_c, 6, 60, 64
8, 144578, Control_c, 6, 11, 82
8, 144624, Control_c, 6, 11, 76
8, 144675, Control_c, 6, 11, 100
8, 144712, Note_on_c, 6, 53, 60
8, 144790, Note_off_c, 6, 53, 64
8, 144954, Note_on_c, 6, 53, 47
8, 145060, Control_c, 6, 11, 96
8, 145093, Control_c, 6, 11, 91
8, 145127, Control_c, 6, 11, 87
8, 145161, Control_c, 6, 11, 82
8, 145178, Note_off_c, 6, 53, 64
8, 145194, Control_c, 6, 11, 78
8, 145255, Control_c, 6, 11, 100
8, 146160, Note_on_c, 6, 58, 83
8, 146272, Note_on_c, 6, 57, 57
8, 146277, Note_off_c, 6, 58, 64
8, 146391, Note_off_c, 6, 57, 64
8, 146396, Note_on_c, 6, 58, 68
8, 146405, Control_c, 6, 11, 96
8, 146450, Control_c, 6, 11, 88
8, 146495, Control_c, 6, 11, 81
8, 146539, Control_c, 6, 11, 74
8, 146546, Note_off_c, 6, 58, 64
8, 146605, Control_c, 6, 11, 100
8, 146644, Note_on_c, 6, 61, 79
8, 146760, Note_on_c, 6, 60, 56
8, 146768, Note_off_c, 6, 61, 64
8, 146874, Note_off_c, 6, 60, 64
8, 146880, Control_c, 6, 11, 94
8, 146881, Note_on_c, 6, 61, 57
8, 146917, Control_c, 6, 11, 89
8, 146955, Control_c, 6, 11, 84
8, 146992, Control_c, 6, 11, 79
8, 147029, Control_c, 6, 11, 74
8, 147031, Note_off_c, 6, 61, 64
8, 147110, Control_c, 6, 11, 100
8, 148085, Note_on_c, 6, 58, 78
8, 148195, Note_on_c, 6, 60, 59
8, 148202, Note_off_c, 6, 58, 64
8, 148311, Note_on_c, 6, 58, 65
8, 148312, Note_off_c, 6, 60, 64
8, 148501, Note_off_c, 6, 58, 64
8, 148553, Note_on_c, 6, 63, 78
8, 148673, Note_off_c, 6, 63, 64
8, 148796, Note_on_c, 6, 63, 78
8, 148845, Control_c, 6, 11, 96
8, 148891, Control_c, 6, 11, 88
8, 148938, Control_c, 6, 11, 81
8, 148984, Control_c, 6, 11, 74
8, 149001, Note_off_c, 6, 63, 64
8, 149025, Control_c, 6, 11, 100
8, 149042, Note_on_c, 6, 60, 68
8, 149159, Note_on_c, 6, 61, 78
8, 149161, Note_off_c, 6, 60, 64
8, 149240, Note_off_c, 6, 61, 64
8, 149282, Note_on_c, 6, 60, 79
8, 149300, Control_c, 6, 11, 94
8, 149340, Control_c, 6, 11, 87
8, 149380, Control_c, 6, 11, 80
8, 149419, Control_c, 6, 11, 74
8, 149470, Note_off_c, 6, 60, 64
8, 149485, Control_c, 6, 11, 100
8, 149518, Note_on_c, 6, 61, 81
8, 149627, Note_off_c, 6, 61, 64
8, 149629, Note_on_c, 6, 63, 78
8, 149753, Note_on_c, 6, 61, 78
8, 149760, Control_c, 6, 11, 94
8, 149760, Note_off_c, 6, 63, 64
8, 149803, Control_c, 6, 11, 86
8, 149846, Control_c, 6, 11, 79
8, 149889, Control_c, 6, 11, 72
8, 149950, Note_off_c, 6, 61, 64
8, 149950, Control_c, 6, 11, 100
8, 149993, Note_on_c, 6, 63, 72
8, 150110, Note_off_c, 6, 63, 64
8, 150233, Note_on_c, 6, 63, 68
8, 150353, Note_off_c, 6, 63, 64
8, 150475, Note_on_c, 6, 57, 57
8, 150585, Note_off_c, 6, 57, 64
8, 150685, Control_c, 6, 11, 86
8, 150712, Note_on_c, 6, 53, 51
8, 150723, Control_c, 6, 11, 91
8, 150761, Control_c, 6, 11, 96
8, 150799, Control_c, 6, 11, 101
8, 150837, Control_c, 6, 11, 106
8, 150874, Control_c, 6, 11, 112
8, 150915, Control_c, 6, 11, 100
8, 150970, Control_c, 6, 11, 89
8, 150986, Note_off_c, 6, 53, 64
8, 151024, Control_c, 6, 11, 78
8, 151085, Control_c, 6, 11, 100
8, 162473, Note_on_c, 6, 54, 60
8, 162585, Note_on_c, 6, 56, 46
8, 162590, Note_off_c, 6, 54, 64
8, 162704, Note_on_c, 6, 58, 46
8, 162705, Note_off_c, 6, 56, 64
8, 162725, Control_c, 6, 11, 96
8, 162766, Control_c, 6, 11, 91
8, 162808, Control_c, 6, 11, 86
8, 162849, Control_c, 6, 11, 82
8, 162854, Note_off_c, 6, 58, 64
8, 162965, Control_c, 6, 11, 100
8, 164400, Note_on_c, 6, 51, 60
8, 164504, Note_off_c, 6, 51, 64
8, 164508, Note_on_c, 6, 53, 49
8, 164617, Note_off_c, 6, 53, 64
8, 164628, Note_on_c, 6, 54, 49
8, 164640, Control_c, 6, 11, 94
8, 164685, Control_c, 6, 11, 88
8, 164730, Control_c, 6, 11, 82
8, 164774, Control_c, 6, 11, 76
8, 164778, Note_off_c, 6, 54, 64
8, 164875, Control_c, 6, 11, 100
8, 167000, Control_c, 6, 11, 76
8, 167020, Control_c, 6, 11, 80
8, 167040, Note_on_c, 6, 54, 102
8, 167067, Control_c, 6, 11, 83
8, 167092, Control_c, 6, 11, 86
8, 167116, Control_c, 6, 11, 88
8, 167141, Control_c, 6, 11, 91
8, 167166, Control_c, 6, 11, 94
8, 167191, Control_c, 6, 11, 97
8, 167216, Control_c, 6, 11, 100
8, 167241, Control_c, 6, 11, 103
8, 167265, Control_c, 6, 11, 105
8, 167290, Control_c, 6, 11, 109
8, 167315, Control_c, 6, 11, 111
8, 167340, Control_c, 6, 11, 109
8, 167365, Control_c, 6, 11, 99
8, 167390, Control_c, 6, 11, 89
8, 167414, Control_c, 6, 11, 79
8, 167439, Control_c, 6, 11, 70
8, 167462, Note_off_c, 6, 54, 64
8, 167464, Control_c, 6, 11, 60
8, 167489, Control_c, 6, 11, 70
8, 167508, Note_on_c, 6, 58, 111
8, 167514, Control_c, 6, 11, 73
8, 167539, Control_c, 6, 11, 76
8, 167563, Control_c, 6, 11, 78
8, 167588, Control_c, 6, 11, 81
8, 167613, Control_c, 6, 11, 83
8, 167638, Control_c, 6, 11, 86
8, 167663, Control_c, 6, 11, 89
8, 167688, Control_c, 6, 11, 92
8, 167713, Control_c, 6, 11, 95
8, 167737, Control_c, 6, 11, 97
8, 167762, Control_c, 6, 11, 100
8, 167787, Control_c, 6, 11, 103
8, 167812, Control_c, 6, 11, 107
8, 167837, Control_c, 6, 11, 98
8, 167862, Control_c, 6, 11, 87
8, 167886, Control_c, 6, 11, 76
8, 167911, Control_c, 6, 11, 65
8, 167918, Note_off_c, 6, 58, 64
8, 167936, Control_c, 6, 11, 55
8, 167961, Control_c, 6, 11, 83
8, 167983, Note_on_c, 6, 61, 105
8, 167986, Control_c, 6, 11, 85
8, 168011, Control_c, 6, 11, 87
8, 168035, Control_c, 6, 11, 88
8, 168060, Control_c, 6, 11, 91
8, 168085, Control_c, 6, 11, 93
8, 168110, Control_c, 6, 11, 95
8, 168135, Control_c, 6, 11, 97
8, 168160, Control_c, 6, 11, 99
8, 168184, Control_c, 6, 11, 102
8, 168209, Control_c, 6, 11, 104
8, 168234, Control_c, 6, 11, 106
8, 168259, Control_c, 6, 11, 108
8, 168284, Control_c, 6, 11, 101
8, 168309, Control_c, 6, 11, 89
8, 168334, Control_c, 6, 11, 82
8, 168358, Control_c, 6, 11, 75
8, 168383, Control_c, 6, 11, 69
8, 168388, Note_off_c, 6, 61, 64
8, 168408, Control_c, 6, 11, 62
8, 168433, Control_c, 6, 11, 58
8, 168455, Control_c, 6, 11, 100
8, 168712, Note_on_c, 6, 61, 105
8, 168828, Note_off_c, 6, 61, 64
8, 168956, Note_on_c, 6, 58, 105
8, 169139, Note_off_c, 6, 58, 64
8, 169194, Note_on_c, 6, 61, 114
8, 169366, Note_off_c, 6, 61, 64
8, 169433, Note_on_c, 6, 66, 124
8, 169534, Note_off_c, 6, 66, 64
8, 169545, Note_on_c, 6, 70, 120
8, 169654, Note_off_c, 6, 70, 64
8, 169666, Note_on_c, 6, 68, 116
8, 169766, Note_off_c, 6, 68, 64
8, 169788, Note_on_c, 6, 66, 97
8, 169883, Note_off_c, 6, 66, 64
8, 169920, Note_on_c, 6, 65, 91
8, 170034, Note_on_c, 6, 61, 80
8, 170041, Note_off_c, 6, 65, 64
8, 170134, Note_off_c, 6, 61, 64
8, 170154, Note_on_c, 6, 56, 85
8, 170260, Note_off_c, 6, 56, 64
8, 170264, Note_on_c, 6, 61, 80
8, 170346, Note_off_c, 6, 61, 64
8, 170387, Note_on_c, 6, 56, 81
8, 170497, Note_off_c, 6, 56, 64
8, 170501, Note_on_c, 6, 61, 79
8, 170581, Note_off_c, 6, 61, 64
8, 170628, Note_on_c, 6, 56, 80
8, 170739, Note_off_c, 6, 56, 64
8, 170749, Note_on_c, 6, 61, 79
8, 170833, Note_off_c, 6, 61, 64
8, 170874, Note_on_c, 6, 54, 79
8, 170978, Note_off_c, 6, 54, 64
8, 170984, Note_on_c, 6, 61, 79
8, 171063, Note_off_c, 6, 61, 64
8, 171107, Note_on_c, 6, 54, 78
8, 171223, Note_on_c, 6, 61, 78
8, 171226, Note_off_c, 6, 54, 64
8, 171291, Note_off_c, 6, 61, 64
8, 171347, Note_on_c, 6, 54, 78
8, 171461, Note_on_c, 6, 61, 74
8, 171468, Note_off_c, 6, 54, 64
8, 171541, Note_off_c, 6, 61, 64
8, 171588, Note_on_c, 6, 54, 78
8, 171697, Note_off_c, 6, 54, 64
8, 171708, Note_on_c, 6, 61, 78
8, 171770, Note_off_c, 6, 61, 64
8, 171830, Note_on_c, 6, 54, 80
8, 171937, Note_off_c, 6, 54, 64
8, 171947, Note_on_c, 6, 63, 78
8, 172012, Note_off_c, 6, 63, 64
8, 172067, Note_on_c, 6, 54, 78
8, 172154, Note_off_c, 6, 54, 64
8, 172189, Note_on_c, 6, 63, 77
8, 172258, Note_off_c, 6, 63, 64
8, 172311, Note_on_c, 6, 54, 77
8, 172403, Note_off_c, 6, 54, 64
8, 172430, Note_on_c, 6, 63, 78
8, 172499, Note_off_c, 6, 63, 64
8, 172551, Note_on_c, 6, 54, 77
8, 172654, Note_off_c, 6, 54, 64
8, 172667, Note_on_c, 6, 63, 82
8, 172754, Note_off_c, 6, 63, 64
8, 172796, Note_on_c, 6, 57, 77
8, 172898, Note_off_c, 6, 57, 64
8, 172906, Note_on_c, 6, 60, 61
8, 172972, Note_off_c, 6, 60, 64
8, 173031, Note_on_c, 6, 57, 81
8, 173147, Note_off_c, 6, 57, 64
8, 173147, Note_on_c, 6, 60, 62
8, 173219, Note_off_c, 6, 60, 64
8, 173269, Note_on_c, 6, 57, 78
8, 173384, Note_off_c, 6, 57, 64
8, 173384, Note_on_c, 6, 60, 64
8, 173454, Note_off_c, 6, 60, 64
8, 173510, Note_on_c, 6, 57, 78
8, 173621, Note_off_c, 6, 57, 64
8, 173624, Note_on_c, 6, 60, 66
8, 173698, Note_off_c, 6, 60, 64
8, 173749, Note_on_c, 6, 58, 84
8, 173841, Note_off_c, 6, 58, 64
8, 173867, Note_on_c, 6, 62, 75
8, 173928, Note_off_c, 6, 62, 64
8, 173990, Note_on_c, 6, 58, 80
8, 174084, Note_off_c, 6, 58, 64
8, 174108, Note_on_c, 6, 62, 72
8, 174175, Note_off_c, 6, 62, 64
8, 174230, Note_on_c, 6, 58, 74
8, 174320, Note_off_c, 6, 58, 64
8, 174349, Note_on_c, 6, 62, 76
8, 174418, Note_off_c, 6, 62, 64
8, 174473, Note_on_c, 6, 58, 78
8, 174577, Note_off_c, 6, 58, 64
8, 174592, Note_on_c, 6, 62, 78
8, 174666, Note_off_c, 6, 62, 64
8, 174723, Note_on_c, 6, 55, 76
8, 174820, Note_off_c, 6, 55, 64
8, 174836, Note_on_c, 6, 58, 74
8, 174899, Note_off_c, 6, 58, 64
8, 174955, Note_on_c, 6, 55, 76
8, 175051, Note_off_c, 6, 55, 64
8, 175069, Note_on_c, 6, 58, 73
8, 175128, Note_off_c, 6, 58, 64
8, 175191, Note_on_c, 6, 55, 70
8, 175285, Note_off_c, 6, 55, 64
8, 175307, Note_on_c, 6, 58, 73
8, 175377, Note_off_c, 6, 58, 64
8, 175431, Note_on_c, 6, 55, 68
8, 175528, Note_off_c, 6, 55, 64
8, 175551, Note_on_c, 6, 58, 72
8, 175629, Note_off_c, 6, 58, 64
8, 175672, Note_on_c, 6, 56, 73
8, 175778, Note_off_c, 6, 56, 64
8, 175786, Note_on_c, 6, 59, 72
8, 175866, Note_off_c, 6, 59, 64
8, 175911, Note_on_c, 6, 56, 72
8, 176007, Note_off_c, 6, 56, 64
8, 176030, Note_on_c, 6, 59, 71
8, 176100, Note_off_c, 6, 59, 64
8, 176150, Note_on_c, 6, 56, 71
8, 176248, Note_off_c, 6, 56, 64
8, 176268, Note_on_c, 6, 59, 71
8, 176352, Note_off_c, 6, 59, 64
8, 176394, Note_on_c, 6, 56, 66
8, 176498, Note_off_c, 6, 56, 64
8, 176513, Note_on_c, 6, 59, 65
8, 176581, Note_off_c, 6, 59, 64
8, 188160, Note_on_c, 6, 59, 107
8, 188185, Control_c, 6, 11, 98
8, 188230, Control_c, 6, 11, 91
8, 188275, Control_c, 6, 11, 84
8, 188319, Control_c, 6, 11, 78
8, 188334, Note_off_c, 6, 59, 64
8, 188425, Control_c, 6, 11, 100
8, 189346, Note_on_c, 6, 52, 110
8, 189451, Note_off_c, 6, 52, 64
8, 189456, Note_on_c, 6, 51, 78
8, 189574, Note_on_c, 6, 52, 78
8, 189589, Note_off_c, 6, 51, 64
8, 189600, Control_c, 6, 11, 94
8, 189645, Control_c, 6, 11, 84
8, 189690, Control_c, 6, 11, 75
8, 189724, Note_off_c, 6, 52, 64
8, 189734, Control_c, 6, 11, 66
8, 189775, Control_c, 6, 11, 100
8, 189823, Note_on_c, 6, 59, 113
8, 189903, Note_off_c, 6, 59, 64
8, 190080, Note_on_c, 6, 66, 113
8, 190085, Control_c, 6, 11, 96
8, 190125, Control_c, 6, 11, 89
8, 190165, Control_c, 6, 11, 82
8, 190205, Control_c, 6, 11, 75
8, 190244, Control_c, 6, 11, 68
8, 190260, Note_off_c, 6, 66, 64
8, 190310, Control_c, 6, 11, 100
8, 191273, Note_on_c, 6, 51, 102
8, 191376, Note_off_c, 6, 51, 64
8, 191383, Note_on_c, 6, 49, 78
8, 191507, Note_on_c, 6, 51, 78
8, 191509, Note_off_c, 6, 49, 64
8, 191515, Control_c, 6, 11, 96
8, 191558, Control_c, 6, 11, 88
8, 191601, Control_c, 6, 11, 80
8, 191644, Control_c, 6, 11, 72
8, 191657, Note_off_c, 6, 51, 64
8, 191705, Control_c, 6, 11, 100
8, 191755, Note_on_c, 6, 58, 115
8, 191839, Note_off_c, 6, 58, 64
8, 192000, Control_c, 6, 11, 96
8, 192000, Note_on_c, 6, 64, 115
8, 192038, Control_c, 6, 11, 90
8, 192077, Control_c, 6, 11, 85
8, 192116, Control_c, 6, 11, 79
8, 192154, Control_c, 6, 11, 74
8, 192180, Note_off_c, 6, 64, 64
8, 192210, Control_c, 6, 11, 100
8, 193195, Note_on_c, 6, 49, 102
8, 193307, Note_on_c, 6, 48, 89
8, 193312, Note_off_c, 6, 49, 64
8, 193412, Note_off_c, 6, 48, 64
8, 193422, Note_on_c, 6, 49, 81
8, 193440, Control_c, 6, 11, 96
8, 193481, Control_c, 6, 11, 88
8, 193523, Control_c, 6, 11, 81
8, 193564, Control_c, 6, 11, 74
8, 193572, Note_off_c, 6, 49, 64
8, 193625, Control_c, 6, 11, 100
8, 193672, Note_on_c, 6, 56, 107
8, 193742, Note_off_c, 6, 56, 64
8, 193920, Control_c, 6, 11, 94
8, 193920, Note_on_c, 6, 63, 98
8, 193958, Control_c, 6, 11, 90
8, 193997, Control_c, 6, 11, 87
8, 194036, Control_c, 6, 11, 83
8, 194074, Control_c, 6, 11, 80
8, 194101, Note_off_c, 6, 63, 64
8, 194130, Control_c, 6, 11, 100
8, 194163, Note_on_c, 6, 58, 110
8, 194273, Note_on_c, 6, 59, 71
8, 194276, Note_off_c, 6, 58, 64
8, 194393, Note_on_c, 6, 58, 82
8, 194396, Note_off_c, 6, 59, 64
8, 194400, Control_c, 6, 11, 96
8, 194445, Control_c, 6, 11, 88
8, 194490, Control_c, 6, 11, 81
8, 194534, Control_c, 6, 11, 74
8, 194571, Note_off_c, 6, 58, 64
8, 194610, Control_c, 6, 11, 100
8, 194639, Note_on_c, 6, 61, 110
8, 194747, Note_off_c, 6, 61, 64
8, 194749, Note_on_c, 6, 63, 72
8, 194868, Note_on_c, 6, 61, 72
8, 194874, Note_off_c, 6, 63, 64
8, 194875, Control_c, 6, 11, 96
8, 194915, Control_c, 6, 11, 90
8, 194955, Control_c, 6, 11, 84
8, 194994, Control_c, 6, 11, 78
8, 195043, Note_off_c, 6, 61, 64
8, 195085, Control_c, 6, 11, 100
8, 195124, Note_on_c, 6, 67, 98
8, 195216, Note_off_c, 6, 67, 64
8, 195225, Note_on_c, 6, 68, 60
8, 195348, Note_on_c, 6, 67, 69
8, 195365, Control_c, 6, 11, 96
8, 195365, Note_off_c, 6, 68, 64
8, 195415, Control_c, 6, 11, 87
8, 195464, Control_c, 6, 11, 78
8, 195498, Note_off_c, 6, 67, 64
8, 195530, Control_c, 6, 11, 100
8, 195600, Note_on_c, 6, 58, 75
8, 195699, Note_off_c, 6, 58, 64
8, 195837, Note_on_c, 6, 56, 69
8, 196004, Note_off_c, 6, 56, 64
8, 196075, Note_on_c, 6, 56, 78
8, 196171, Note_off_c, 6, 56, 64
8, 196309, Note_on_c, 6, 63, 78
8, 196401, Note_off_c, 6, 63, 64
8, 196554, Note_on_c, 6, 63, 78
8, 196649, Note_off_c, 6, 63, 64
8, 196799, Note_on_c, 6, 63, 97
8, 196908, Note_off_c, 6, 63, 64
8, 196916, Note_on_c, 6, 58, 71
8, 197020, Note_off_c, 6, 58, 64
8, 197032, Note_on_c, 6, 59, 71
8, 197122, Note_off_c, 6, 59, 64
8, 197155, Note_on_c, 6, 61, 82
8, 197249, Note_off_c, 6, 61, 64
8, 197274, Note_on_c, 6, 59, 82
8, 197382, Note_off_c, 6, 59, 64
8, 197387, Note_on_c, 6, 63, 71
8, 197476, Note_off_c, 6, 63, 64
8, 197507, Note_on_c, 6, 61, 85
8, 197612, Note_off_c, 6, 61, 64
8, 197623, Note_on_c, 6, 64, 85
8, 197727, Note_off_c, 6, 64, 64
8, 197752, Note_on_c, 6, 63, 94
8, 197866, Note_on_c, 6, 61, 73
8, 197875, Note_off_c, 6, 63, 64
8, 197986, Note_on_c, 6, 63, 67
8, 197987, Note_off_c, 6, 61, 64
8, 198091, Note_off_c, 6, 63, 64
8, 198115, Note_on_c, 6, 64, 90
8, 198214, Note_off_c, 6, 64, 64
8, 198235, Note_on_c, 6, 63, 90
8, 198347, Note_off_c, 6, 63, 64
8, 198357, Note_on_c, 6, 68, 90
8, 198450, Note_off_c, 6, 68, 64
8, 198471, Note_on_c, 6, 63, 90
8, 198588, Note_on_c, 6, 70, 81
8, 198592, Note_off_c, 6, 63, 64
8, 198681, Note_off_c, 6, 70, 64
8, 198711, Note_on_c, 6, 63, 87
8, 198828, Note_on_c, 6, 68, 87
8, 198836, Note_off_c, 6, 63, 64
8, 198917, Note_off_c, 6, 68, 64
8, 198950, Note_on_c, 6, 63, 90
8, 199062, Note_off_c, 6, 63, 64
8, 199067, Note_on_c, 6, 67, 82
8, 199156, Note_off_c, 6, 67, 64
8, 199187, Note_on_c, 6, 63, 87
8, 199305, Note_on_c, 6, 68, 74
8, 199310, Note_off_c, 6, 63, 64
8, 199403, Note_off_c, 6, 68, 64
8, 199428, Note_on_c, 6, 63, 81
8, 199544, Note_on_c, 6, 67, 82
8, 199551, Note_off_c, 6, 63, 64
8, 199642, Note_off_c, 6, 67, 64
8, 199669, Note_on_c, 6, 63, 81
8, 199787, Note_on_c, 6, 64, 65
8, 199810, Note_off_c, 6, 63, 64
8, 199910, Note_off_c, 6, 64, 64
8, 199910, Note_on_c, 6, 63, 64
8, 199998, Note_off_c, 6, 63, 64
8, 200025, Note_on_c, 6, 61, 79
8, 200122, Note_off_c, 6, 61, 64
8, 200146, Note_on_c, 6, 63, 75
8, 200307, Note_off_c, 6, 63, 64
8, 200393, Note_on_c, 6, 58, 71
8, 200490, Note_off_c, 6, 58, 64
8, 200631, Note_on_c, 6, 58, 75
8, 200752, Note_off_c, 6, 58, 64
8, 200878, Note_on_c, 6, 54, 62
8, 200965, Note_off_c, 6, 54, 64
8, 209520, Note_on_c, 6, 61, 69
8, 209601, Note_off_c, 6, 61, 64
8, 209756, Note_on_c, 6, 61, 73
8, 209845, Note_off_c, 6, 61, 64
8, 209994, Note_on_c, 6, 61, 62
8, 210090, Note_off_c, 6, 61, 64
8, 210234, Note_on_c, 6, 61, 68
8, 210325, Note_off_c, 6, 61, 64
8, 210473, Note_on_c, 6, 61, 63
8, 210566, Note_off_c, 6, 61, 64
8, 210710, Note_on_c, 6, 61, 62
8, 210806, Note_off_c, 6, 61, 64
8, 210954, Note_on_c, 6, 61, 74
8, 211047, Note_off_c, 6, 61, 64
8, 211195, Note_on_c, 6, 61, 74
8, 211351, Note_off_c, 6, 61, 64
8, 211439, Note_on_c, 6, 54, 74
8, 211543, Note_off_c, 6, 54, 64
8, 211678, Note_on_c, 6, 54, 67
8, 211780, Note_off_c, 6, 54, 64
8, 211918, Note_on_c, 6, 54, 62
8, 212015, Note_off_c, 6, 54, 64
8, 212157, Note_on_c, 6, 54, 66
8, 212263, Note_off_c, 6, 54, 64
8, 212394, Note_on_c, 6, 54, 65
8, 212486, Note_off_c, 6, 54, 64
8, 212633, Note_on_c, 6, 54, 71
8, 212719, Note_off_c, 6, 54, 64
8, 212868, Note_on_c, 6, 54, 71
8, 212961, Note_off_c, 6, 54, 64
8, 213114, Note_on_c, 6, 58, 74
8, 213299, Note_off_c, 6, 58, 64
8, 213347, Note_on_c, 6, 55, 52
8, 213456, Note_off_c, 6, 55, 64
8, 213588, Note_on_c, 6, 55, 55
8, 213684, Note_off_c, 6, 55, 64
8, 213829, Note_on_c, 6, 55, 55
8, 213928, Note_off_c, 6, 55, 64
8, 214066, Note_on_c, 6, 55, 56
8, 214174, Note_off_c, 6, 55, 64
8, 214308, Note_on_c, 6, 55, 56
8, 214407, Note_off_c, 6, 55, 64
8, 214547, Note_on_c, 6, 55, 59
8, 214641, Note_off_c, 6, 55, 64
8, 214786, Note_on_c, 6, 55, 59
8, 214879, Note_off_c, 6, 55, 64
8, 215036, Note_on_c, 6, 63, 69
8, 215153, Note_on_c, 6, 61, 53
8, 215154, Note_off_c, 6, 63, 64
8, 215272, Note_off_c, 6, 61, 64
8, 215274, Note_on_c, 6, 63, 53
8, 215390, Note_off_c, 6, 63, 64
8, 215993, Note_on_c, 6, 63, 70
8, 216109, Note_on_c, 6, 61, 57
8, 216117, Note_off_c, 6, 63, 64
8, 216221, Note_off_c, 6, 61, 64
8, 216229, Note_on_c, 6, 63, 55
8, 216353, Note_off_c, 6, 63, 64
8, 216943, Note_on_c, 6, 71, 57
8, 217061, Note_on_c, 6, 70, 51
8, 217063, Note_off_c, 6, 71, 64
8, 217185, Note_on_c, 6, 71, 51
8, 217198, Note_off_c, 6, 70, 64
8, 217312, Note_off_c, 6, 71, 64
8, 217919, Note_on_c, 6, 71, 60
8, 218029, Note_on_c, 6, 70, 47
8, 218034, Note_off_c, 6, 71, 64
8, 218146, Note_on_c, 6, 71, 47
8, 218158, Note_off_c, 6, 70, 64
8, 218295, Note_off_c, 6, 71, 64
8, 218874, Note_on_c, 6, 58, 116
8, 218989, Note_on_c, 6, 56, 80
8, 218995, Note_off_c, 6, 58, 64
8, 219109, Note_on_c, 6, 58, 78
8, 219123, Note_off_c, 6, 56, 64
8, 219199, Note_off_c, 6, 58, 64
8, 219240, Note_on_c, 6, 67, 107
8, 219322, Note_off_c, 6, 67, 64
8, 219355, Note_on_c, 6, 64, 92
8, 219455, Note_off_c, 6, 64, 64
8, 219477, Note_on_c, 6, 61, 89
8, 219556, Note_off_c, 6, 61, 64
8, 219593, Note_on_c, 6, 58, 78
8, 219677, Note_off_c, 6, 58, 64
8, 219697, Note_on_c, 6, 52, 74
8, 219773, Note_off_c, 6, 52, 64
8, 219831, Note_on_c, 6, 58, 116
8, 219944, Note_on_c, 6, 56, 80
8, 219947, Note_off_c, 6, 58, 64
8, 220067, Note_on_c, 6, 58, 69
8, 220070, Note_off_c, 6, 56, 64
8, 220161, Note_off_c, 6, 58, 64
8, 220198, Note_on_c, 6, 67, 112
8, 220271, Note_off_c, 6, 67, 64
8, 220317, Note_on_c, 6, 64, 97
8, 220415, Note_off_c, 6, 64, 64
8, 220434, Note_on_c, 6, 61, 97
8, 220511, Note_off_c, 6, 61, 64
8, 220542, Note_on_c, 6, 58, 78
8, 220613, Note_off_c, 6, 58, 64
8, 220667, Note_on_c, 6, 52, 83
8, 220744, Note_off_c, 6, 52, 64
8, 220800, Note_on_c, 6, 51, 68
8, 220958, Note_off_c, 6, 51, 64
8, 221268, Note_on_c, 6, 63, 51
8, 221383, Note_on_c, 6, 64, 34
8, 221403, Note_off_c, 6, 63, 64
8, 221506, Note_on_c, 6, 63, 41
8, 221516, Note_off_c, 6, 64, 64
8, 221520, Control_c, 6, 11, 96
8, 221558, Control_c, 6, 11, 90
8, 221596, Control_c, 6, 11, 85
8, 221607, Note_off_c, 6, 63, 64
8, 221634, Control_c, 6, 11, 80
8, 221680, Control_c, 6, 11, 100
8, 222234, Note_on_c, 6, 63, 52
8, 222337, Note_off_c, 6, 63, 64
8, 222346, Note_on_c, 6, 64, 48
8, 222454, Note_off_c, 6, 64, 64
8, 222460, Control_c, 6, 11, 96
8, 222462, Note_on_c, 6, 63, 48
8, 222508, Control_c, 6, 11, 88
8, 222556, Control_c, 6, 11, 81
8, 222587, Note_off_c, 6, 63, 64
8, 222604, Control_c, 6, 11, 74
8, 222655, Control_c, 6, 11, 100
8, 223197, Note_on_c, 6, 61, 72
8, 223302, Note_off_c, 6, 61, 64
8, 223310, Note_on_c, 6, 62, 48
8, 223421, Note_off_c, 6, 62, 64
8, 223431, Note_on_c, 6, 61, 47
8, 223435, Control_c, 6, 11, 94
8, 223481, Control_c, 6, 11, 88
8, 223528, Control_c, 6, 11, 83
8, 223531, Note_off_c, 6, 61, 64
8, 223574, Control_c, 6, 11, 78
8, 223630, Control_c, 6, 11, 100
8, 224154, Note_on_c, 6, 61, 71
8, 224262, Note_off_c, 6, 61, 64
8, 224266, Note_on_c, 6, 62, 49
8, 224372, Note_off_c, 6, 62, 64
8, 224385, Control_c, 6, 11, 96
8, 224388, Note_on_c, 6, 61, 53
8, 224426, Control_c, 6, 11, 89
8, 224468, Control_c, 6, 11, 82
8, 224485, Note_off_c, 6, 61, 64
8, 224509, Control_c, 6, 11, 76
8, 224600, Control_c, 6, 11, 100
8, 225121, Note_on_c, 6, 63, 84
8, 225219, Note_off_c, 6, 63, 64
8, 225231, Note_on_c, 6, 61, 60
8, 225331, Note_off_c, 6, 61, 64
8, 225350, Note_on_c, 6, 63, 40
8, 225355, Control_c, 6, 11, 94
8, 225396, Control_c, 6, 11, 86
8, 225438, Control_c, 6, 11, 78
8, 225443, Note_off_c, 6, 63, 64
8, 225479, Control_c, 6, 11, 70
8, 225525, Control_c, 6, 11, 100
8, 226076, Note_on_c, 6, 63, 87
8, 226188, Note_off_c, 6, 63, 64
8, 226190, Note_on_c, 6, 61, 65
8, 226292, Note_off_c, 6, 61, 64
8, 226310, Control_c, 6, 11, 94
8, 226310, Note_on_c, 6, 63, 42
8, 226353, Control_c, 6, 11, 88
8, 226396, Control_c, 6, 11, 83
8, 226404, Note_off_c, 6, 63, 64
8, 226439, Control_c, 6, 11, 78
8, 226525, Control_c, 6, 11, 100
8, 227035, Note_on_c, 6, 61, 104
8, 227147, Note_on_c, 6, 62, 73
8, 227158, Note_off_c, 6, 61, 64
8, 227262, Note_off_c, 6, 62, 64
8, 227264, Note_on_c, 6, 61, 70
8, 227270, Control_c, 6, 11, 94
8, 227310, Control_c, 6, 11, 88
8, 227350, Control_c, 6, 11, 83
8, 227370, Note_off_c, 6, 61, 64
8, 227389, Control_c, 6, 11, 78
8, 227480, Control_c, 6, 11, 100
8, 227997, Note_on_c, 6, 61, 112
8, 228110, Note_on_c, 6, 62, 72
8, 228115, Note_off_c, 6, 61, 64
8, 228205, Note_off_c, 6, 62, 64
8, 228230, Note_on_c, 6, 61, 75
8, 228240, Control_c, 6, 11, 96
8, 228295, Control_c, 6, 11, 88
8, 228347, Note_off_c, 6, 61, 64
8, 228349, Control_c, 6, 11, 80
8, 228425, Control_c, 6, 11, 100
8, 228954, Note_on_c, 6, 59, 115
8, 229066, Note_on_c, 6, 61, 79
8, 229069, Note_off_c, 6, 59, 64
8, 229175, Note_off_c, 6, 61, 64
8, 229183, Note_on_c, 6, 59, 81
8, 229185, Control_c, 6, 11, 96
8, 229223, Control_c, 6, 11, 89
8, 229261, Control_c, 6, 11, 82
8, 229299, Note_off_c, 6, 59, 64
8, 229299, Control_c, 6, 11, 76
8, 229350, Control_c, 6, 11, 100
8, 229916, Note_on_c, 6, 59, 114
8, 230026, Note_off_c, 6, 59, 64
8, 230026, Note_on_c, 6, 61, 75
8, 230125, Control_c, 6, 11, 94
8, 230140, Note_off_c, 6, 61, 64
8, 230147, Note_on_c, 6, 59, 79
8, 230175, Control_c, 6, 11, 86
8, 230224, Control_c, 6, 11, 78
8, 230242, Note_off_c, 6, 59, 64
8, 230290, Control_c, 6, 11, 100
8, 230395, Note_on_c, 6, 61, 101
8, 230420, Control_c, 6, 11, 96
8, 230468, Control_c, 6, 11, 88
8, 230516, Control_c, 6, 11, 81
8, 230564, Control_c, 6, 11, 74
8, 230589, Note_off_c, 6, 61, 64
8, 230675, Control_c, 6, 11, 100
8, 231588, Note_on_c, 6, 50, 111
8, 231693, Note_off_c, 6, 50, 64
8, 231700, Note_on_c, 6, 49, 84
8, 231818, Note_on_c, 6, 50, 71
8, 231820, Control_c, 6, 11, 94
8, 231842, Note_off_c, 6, 49, 64
8, 231860, Control_c, 6, 11, 86
8, 231900, Control_c, 6, 11, 79
8, 231939, Control_c, 6, 11, 72
8, 231968, Note_off_c, 6, 50, 64
8, 232010, Control_c, 6, 11, 100
8, 232068, Note_on_c, 6, 57, 116
8, 232145, Note_off_c, 6, 57, 64
8, 232311, Note_on_c, 6, 64, 115
8, 232315, Control_c, 6, 11, 94
8, 232353, Control_c, 6, 11, 88
8, 232392, Control_c, 6, 11, 83
8, 232431, Control_c, 6, 11, 77
8, 232469, Control_c, 6, 11, 72
8, 232506, Note_off_c, 6, 64, 64
8, 232535, Control_c, 6, 11, 100
8, 233512, Note_on_c, 6, 49, 105
8, 233612, Note_off_c, 6, 49, 64
8, 233622, Note_on_c, 6, 47, 76
8, 233739, Note_on_c, 6, 49, 76
8, 233740, Control_c, 6, 11, 94
8, 233761, Note_off_c, 6, 47, 64
8, 233785, Control_c, 6, 11, 87
8, 233830, Control_c, 6, 11, 80
8, 233874, Control_c, 6, 11, 74
8, 233889, Note_off_c, 6, 49, 64
8, 233940, Control_c, 6, 11, 100
8, 233994, Note_on_c, 6, 56, 116
8, 234072, Note_off_c, 6, 56, 64
8, 234235, Control_c, 6, 11, 98
8, 234240, Note_on_c, 6, 62, 112
8, 234272, Control_c, 6, 11, 93
8, 234310, Control_c, 6, 11, 88
8, 234347, Control_c, 6, 11, 83
8, 234384, Control_c, 6, 11, 78
8, 234430, Control_c, 6, 11, 100
8, 234466, Note_off_c, 6, 62, 64
8, 235430, Note_on_c, 6, 47, 106
8, 235537, Note_on_c, 6, 49, 80
8, 235548, Note_off_c, 6, 47, 64
8, 235652, Note_on_c, 6, 47, 85
8, 235661, Note_off_c, 6, 49, 64
8, 235665, Control_c, 6, 11, 96
8, 235703, Control_c, 6, 11, 88
8, 235741, Control_c, 6, 11, 81
8, 235779, Control_c, 6, 11, 74
8, 235802, Note_off_c, 6, 47, 64
8, 235865, Control_c, 6, 11, 100
8, 235920, Note_on_c, 6, 54, 79
8, 235991, Note_off_c, 6, 54, 64
8, 236160, Note_on_c, 6, 61, 94
8, 236165, Control_c, 6, 11, 94
8, 236204, Control_c, 6, 11, 89
8, 236243, Control_c, 6, 11, 84
8, 236282, Control_c, 6, 11, 79
8, 236321, Control_c, 6, 11, 74
8, 236359, Control_c, 6, 11, 70
8, 236363, Note_off_c, 6, 61, 64
8, 236395, Control_c, 6, 11, 100
8, 236872, Note_on_c, 6, 65, 85
8, 236932, Note_off_c, 6, 65, 64
8, 237121, Note_on_c, 6, 65, 116
8, 237240, Control_c, 6, 11, 94
8, 237292, Control_c, 6, 11, 84
8, 237332, Note_off_c, 6, 65, 64
8, 237344, Control_c, 6, 11, 74
8, 237395, Control_c, 6, 11, 100
8, 237840, Note_on_c, 6, 65, 112
8, 237926, Note_off_c, 6, 65, 64
8, 238092, Note_on_c, 6, 68, 107
8, 238186, Note_off_c, 6, 68, 64
8, 238198, Note_on_c, 6, 61, 102
8, 238260, Note_off_c, 6, 61, 64
8, 238316, Note_on_c, 6, 56, 115
8, 238437, Note_on_c, 6, 57, 95
8, 238438, Note_off_c, 6, 56, 64
8, 238531, Note_off_c, 6, 57, 64
8, 238559, Note_on_c, 6, 59, 102
8, 238665, Note_off_c, 6, 59, 64
8, 238671, Note_on_c, 6, 61, 115
8, 238764, Note_off_c, 6, 61, 64
8, 238791, Note_on_c, 6, 63, 116
8, 238900, Note_off_c, 6, 63, 64
8, 238908, Note_on_c, 6, 65, 105
8, 239003, Note_off_c, 6, 65, 64
8, 239015, Control_c, 6, 11, 88
8, 239029, Note_on_c, 6, 66, 110
8, 239057, Control_c, 6, 11, 94
8, 239100, Control_c, 6, 11, 101
8, 239142, Control_c, 6, 11, 108
8, 239184, Control_c, 6, 11, 116
8, 239240, Control_c, 6, 11, 96
8, 239273, Note_off_c, 6, 66, 64
8, 239295, Control_c, 6, 11, 80
8, 239350, Control_c, 6, 11, 100
8, 239760, Note_on_c, 6, 65, 107
8, 239862, Note_off_c, 6, 65, 64
8, 239869, Note_on_c, 6, 63, 79
8, 239987, Note_off_c, 6, 63, 64
8, 239987, Note_on_c, 6, 61, 78
8, 240005, Control_c, 6, 11, 94
8, 240050, Control_c, 6, 11, 87
8, 240095, Control_c, 6, 11, 80
8, 240137, Note_off_c, 6, 61, 64
8, 240139, Control_c, 6, 11, 74
8, 240190, Control_c, 6, 11, 100
8, 240713, Note_on_c, 6, 59, 98
8, 240823, Note_on_c, 6, 57, 73
8, 240826, Note_off_c, 6, 59, 64
8, 240938, Note_off_c, 6, 57, 64
8, 240940, Note_on_c, 6, 56, 71
8, 240955, Control_c, 6, 11, 96
8, 241000, Control_c, 6, 11, 88
8, 241045, Control_c, 6, 11, 80
8, 241089, Control_c, 6, 11, 72
8, 241090, Note_off_c, 6, 56, 64
8, 241150, Control_c, 6, 11, 100
8, 257516, Note_on_c, 6, 54, 65
8, 257629, Note_on_c, 6, 53, 52
8, 257649, Note_off_c, 6, 54, 64
8, 257753, Note_on_c, 6, 54, 47
8, 257760, Control_c, 6, 11, 94
8, 257760, Note_off_c, 6, 53, 64
8, 257803, Control_c, 6, 11, 87
8, 257846, Control_c, 6, 11, 80
8, 257889, Control_c, 6, 11, 74
8, 257903, Note_off_c, 6, 54, 64
8, 257960, Control_c, 6, 11, 100
8, 258001, Note_on_c, 6, 58, 84
8, 258108, Note_off_c, 6, 58, 64
8, 258115, Note_on_c, 6, 56, 59
8, 258232, Note_on_c, 6, 58, 59
8, 258236, Note_off_c, 6, 56, 64
8, 258240, Control_c, 6, 11, 96
8, 258280, Control_c, 6, 11, 88
8, 258320, Control_c, 6, 11, 81
8, 258359, Control_c, 6, 11, 74
8, 258400, Note_off_c, 6, 58, 64
8, 258455, Control_c, 6, 11, 100
8, 261237, Note_on_c, 6, 49, 93
8, 261323, Note_off_c, 6, 49, 64
8, 261353, Note_on_c, 6, 51, 83
8, 261431, Note_off_c, 6, 51, 64
8, 261467, Note_on_c, 6, 53, 85
8, 261553, Note_off_c, 6, 53, 64
8, 261587, Note_on_c, 6, 54, 74
8, 261697, Note_off_c, 6, 54, 64
8, 261713, Note_on_c, 6, 56, 80
8, 261801, Note_off_c, 6, 56, 64
8, 261833, Note_on_c, 6, 58, 86
8, 261918, Note_off_c, 6, 58, 64
8, 261953, Note_on_c, 6, 59, 73
8, 262042, Note_off_c, 6, 59, 64
8, 262081, Note_on_c, 6, 61, 78
8, 262191, Note_off_c, 6, 61, 64
8, 266880, End_track
9, 0, Start_track
9, 0, Instrument_name_t, "SC88-A"
9, 0, Title_t, "Violoncello.1"
9, 1440, Control_c, 7, 101, 0
9, 1450, Control_c, 7, 100, 0
9, 1450, Control_c, 7, 6, 0
9, 1470, Control_c, 7, 0, 0
9, 1480, Control_c, 7, 32, 1
9, 1490, Program_c, 7, 42
9, 1500, Control_c, 7, 10, 79
9, 1510, Control_c, 7, 11, 100
9, 1520, Control_c, 7, 7, 120
9, 1530, Control_c, 7, 93, 0
9, 1540, Control_c, 7, 91, 0
9, 1550, Pitch_bend_c, 7, 8192
9, 1560, Control_c, 7, 1, 0
9, 1570, Control_c, 7, 64, 0
9, 1580, Control_c, 7, 91, 64
9, 1590, Control_c, 7, 99, 1
9, 1600, Control_c, 7, 98, 32
9, 1610, Control_c, 7, 6, 75
9, 1620, Control_c, 7, 98, 33
9, 1630, Control_c, 7, 6, 60
9, 1640, Control_c, 7, 98, 99
9, 1650, Control_c, 7, 6, 64
9, 1660, Control_c, 7, 98, 100
9, 1670, Control_c, 7, 6, 64
9, 1680, Control_c, 7, 98, 102
9, 1690, Control_c, 7, 6, 64
9, 3600, Note_on_c, 7, 42, 75
9, 3711, Note_off_c, 7, 42, 64
9, 3840, Note_on_c, 7, 42, 88
9, 4030, Note_off_c, 7, 42, 64
9, 4078, Note_on_c, 7, 54, 65
9, 4176, Note_off_c, 7, 54, 64
9, 4326, Note_on_c, 7, 54, 66
9, 4410, Note_off_c, 7, 54, 64
9, 4559, Note_on_c, 7, 42, 70
9, 4658, Note_off_c, 7, 42, 64
9, 4801, Note_on_c, 7, 42, 81
9, 4989, Note_off_c, 7, 42, 64
9, 5039, Note_on_c, 7, 54, 65
9, 5122, Note_off_c, 7, 54, 64
9, 5282, Note_on_c, 7, 54, 69
9, 5372, Note_off_c, 7, 54, 64
9, 5519, Note_on_c, 7, 42, 72
9, 5620, Note_off_c, 7, 42, 64
9, 5756, Note_on_c, 7, 42, 77
9, 5941, Note_off_c, 7, 42, 64
9, 6003, Note_on_c, 7, 54, 69
9, 6093, Note_off_c, 7, 54, 64
9, 6116, Note_on_c, 7, 53, 49
9, 6206, Note_off_c, 7, 53, 64
9, 6233, Note_on_c, 7, 51, 65
9, 6361, Note_off_c, 7, 51, 64
9, 6472, Note_on_c, 7, 56, 65
9, 6590, Note_off_c, 7, 56, 64
9, 6722, Note_on_c, 7, 49, 82
9, 6904, Note_off_c, 7, 49, 64
9, 6963, Note_on_c, 7, 61, 73
9, 7053, Note_off_c, 7, 61, 64
9, 7076, Note_on_c, 7, 60, 59
9, 7166, Note_off_c, 7, 60, 64
9, 7198, Note_on_c, 7, 61, 75
9, 7304, Note_off_c, 7, 61, 64
9, 7438, Note_on_c, 7, 49, 65
9, 7523, Note_off_c, 7, 49, 64
9, 7685, Note_on_c, 7, 49, 90
9, 7866, Note_off_c, 7, 49, 64
9, 7923, Note_on_c, 7, 61, 76
9, 8013, Note_off_c, 7, 61, 64
9, 8036, Note_on_c, 7, 60, 56
9, 8126, Note_off_c, 7, 60, 64
9, 8156, Note_on_c, 7, 61, 72
9, 8247, Note_off_c, 7, 61, 64
9, 8396, Note_on_c, 7, 49, 75
9, 8498, Note_off_c, 7, 49, 64
9, 8634, Note_on_c, 7, 49, 93
9, 8805, Note_off_c, 7, 49, 64
9, 8883, Note_on_c, 7, 61, 68
9, 8973, Note_off_c, 7, 61, 64
9, 8995, Note_on_c, 7, 60, 61
9, 9085, Note_off_c, 7, 60, 64
9, 9109, Note_on_c, 7, 61, 73
9, 9203, Note_off_c, 7, 61, 64
9, 9362, Note_on_c, 7, 53, 104
9, 9452, Note_off_c, 7, 53, 64
9, 9594, Note_on_c, 7, 54, 101
9, 9784, Note_off_c, 7, 54, 64
9, 9835, Note_on_c, 7, 51, 73
9, 9956, Note_off_c, 7, 51, 64
9, 10078, Note_on_c, 7, 47, 82
9, 10183, Note_off_c, 7, 47, 64
9, 10315, Note_on_c, 7, 49, 75
9, 10432, Note_off_c, 7, 49, 64
9, 10561, Note_on_c, 7, 51, 77
9, 10777, Note_off_c, 7, 51, 64
9, 10803, Note_on_c, 7, 49, 69
9, 10893, Note_off_c, 7, 49, 64
9, 10916, Note_on_c, 7, 47, 69
9, 11006, Note_off_c, 7, 47, 64
9, 11042, Note_on_c, 7, 46, 88
9, 11235, Note_off_c, 7, 46, 64
9, 11283, Note_on_c, 7, 44, 72
9, 11373, Note_off_c, 7, 44, 64
9, 11395, Note_on_c, 7, 42, 77
9, 11485, Note_off_c, 7, 42, 64
9, 11515, Note_on_c, 7, 47, 85
9, 11710, Note_off_c, 7, 47, 64
9, 11763, Note_on_c, 7, 46, 65
9, 11853, Note_off_c, 7, 46, 64
9, 11875, Note_on_c, 7, 44, 69
9, 11965, Note_off_c, 7, 44, 64
9, 11992, Note_on_c, 7, 42, 81
9, 12159, Note_off_c, 7, 42, 64
9, 12243, Note_on_c, 7, 54, 85
9, 12333, Note_off_c, 7, 54, 64
9, 12355, Note_on_c, 7, 53, 60
9, 12445, Note_off_c, 7, 53, 64
9, 12471, Note_on_c, 7, 51, 72
9, 12684, Note_off_c, 7, 51, 64
9, 12723, Note_on_c, 7, 49, 66
9, 12813, Note_off_c, 7, 49, 64
9, 12835, Note_on_c, 7, 47, 69
9, 12925, Note_off_c, 7, 47, 64
9, 12955, Note_on_c, 7, 46, 85
9, 13081, Note_off_c, 7, 46, 64
9, 13203, Note_on_c, 7, 48, 72
9, 13293, Note_off_c, 7, 48, 64
9, 13445, Note_on_c, 7, 49, 81
9, 13604, Note_off_c, 7, 49, 64
9, 13690, Note_on_c, 7, 37, 68
9, 13791, Note_off_c, 7, 37, 64
9, 13921, Note_on_c, 7, 37, 79
9, 14021, Note_off_c, 7, 37, 64
9, 14163, Note_on_c, 7, 49, 81
9, 14253, Note_off_c, 7, 49, 64
9, 14276, Note_on_c, 7, 51, 77
9, 14366, Note_off_c, 7, 51, 64
9, 14400, Note_on_c, 7, 53, 97
9, 14556, Note_off_c, 7, 53, 64
9, 14640, Note_on_c, 7, 54, 93
9, 14759, Note_off_c, 7, 54, 64
9, 14875, Note_on_c, 7, 56, 97
9, 14994, Note_off_c, 7, 56, 64
9, 15123, Note_on_c, 7, 53, 94
9, 15213, Note_off_c, 7, 53, 64
9, 15356, Note_on_c, 7, 54, 97
9, 15545, Note_off_c, 7, 54, 64
9, 15592, Note_on_c, 7, 59, 95
9, 15703, Note_off_c, 7, 59, 64
9, 15834, Note_on_c, 7, 61, 95
9, 15945, Note_off_c, 7, 61, 64
9, 16076, Note_on_c, 7, 49, 97
9, 16166, Note_off_c, 7, 49, 64
9, 16318, Note_on_c, 7, 54, 97
9, 16541, Note_off_c, 7, 54, 64
9, 16570, Note_on_c, 7, 53, 94
9, 16637, Note_off_c, 7, 53, 64
9, 16685, Note_on_c, 7, 51, 69
9, 16773, Note_off_c, 7, 51, 64
9, 16804, Note_on_c, 7, 49, 79
9, 16890, Note_off_c, 7, 49, 64
9, 16921, Note_on_c, 7, 47, 70
9, 17009, Note_off_c, 7, 47, 64
9, 17038, Note_on_c, 7, 46, 71
9, 17125, Note_off_c, 7, 46, 64
9, 17152, Note_on_c, 7, 44, 74
9, 17259, Note_off_c, 7, 44, 64
9, 17276, Note_on_c, 7, 46, 85
9, 17475, Note_off_c, 7, 46, 64
9, 17523, Note_on_c, 7, 44, 65
9, 17613, Note_off_c, 7, 44, 64
9, 17635, Note_on_c, 7, 42, 77
9, 17725, Note_off_c, 7, 42, 64
9, 17757, Note_on_c, 7, 49, 81
9, 17848, Note_off_c, 7, 49, 64
9, 17998, Note_on_c, 7, 37, 85
9, 18094, Note_off_c, 7, 37, 64
9, 18200, Control_c, 7, 11, 84
9, 18234, Note_on_c, 7, 42, 88
9, 18241, Control_c, 7, 11, 87
9, 18282, Control_c, 7, 11, 91
9, 18323, Control_c, 7, 11, 95
9, 18364, Control_c, 7, 11, 98
9, 18405, Control_c, 7, 11, 102
9, 18446, Control_c, 7, 11, 106
9, 18487, Control_c, 7, 11, 110
9, 18527, Control_c, 7, 11, 114
9, 18584, Control_c, 7, 11, 100
9, 18628, Control_c, 7, 11, 96
9, 18672, Control_c, 7, 11, 92
9, 18716, Control_c, 7, 11, 88
9, 18724, Note_off_c, 7, 42, 64
9, 18759, Control_c, 7, 11, 84
9, 18840, Control_c, 7, 11, 100
9, 18971, Note_on_c, 7, 49, 74
9, 19052, Note_off_c, 7, 49, 64
9, 19214, Note_on_c, 7, 42, 65
9, 19508, Note_off_c, 7, 42, 64
9, 20883, Note_on_c, 7, 61, 121
9, 20973, Note_off_c, 7, 61, 64
9, 20996, Note_on_c, 7, 59, 74
9, 21086, Note_off_c, 7, 59, 64
9, 21117, Note_on_c, 7, 58, 109
9, 21224, Note_off_c, 7, 58, 64
9, 21233, Note_on_c, 7, 59, 92
9, 21320, Note_off_c, 7, 59, 64
9, 21351, Note_on_c, 7, 58, 94
9, 21431, Note_off_c, 7, 58, 64
9, 21462, Note_on_c, 7, 56, 86
9, 21525, Note_off_c, 7, 56, 64
9, 21581, Note_on_c, 7, 54, 76
9, 21691, Note_off_c, 7, 54, 64
9, 21842, Note_on_c, 7, 48, 75
9, 21932, Note_off_c, 7, 48, 64
9, 22059, Note_on_c, 7, 49, 74
9, 22282, Note_off_c, 7, 49, 64
9, 22796, Note_on_c, 7, 56, 81
9, 22872, Note_off_c, 7, 56, 64
9, 23042, Note_on_c, 7, 61, 63
9, 23273, Note_off_c, 7, 61, 64
9, 23754, Note_on_c, 7, 56, 81
9, 23830, Note_off_c, 7, 56, 64
9, 23996, Note_on_c, 7, 49, 69
9, 24221, Note_off_c, 7, 49, 64
9, 24715, Note_on_c, 7, 44, 81
9, 24825, Note_off_c, 7, 44, 64
9, 24953, Note_on_c, 7, 37, 81
9, 25118, Note_off_c, 7, 37, 64
9, 25193, Note_on_c, 7, 46, 81
9, 25314, Note_off_c, 7, 46, 64
9, 25430, Note_on_c, 7, 42, 81
9, 25562, Note_off_c, 7, 42, 64
9, 25670, Note_on_c, 7, 44, 81
9, 25793, Note_off_c, 7, 44, 64
9, 25893, Control_c, 7, 11, 92
9, 25917, Note_on_c, 7, 46, 81
9, 25942, Control_c, 7, 11, 99
9, 25990, Control_c, 7, 11, 108
9, 26054, Control_c, 7, 11, 96
9, 26122, Note_off_c, 7, 46, 64
9, 26131, Control_c, 7, 11, 100
9, 26163, Note_on_c, 7, 44, 81
9, 26253, Note_off_c, 7, 44, 64
9, 26275, Note_on_c, 7, 42, 88
9, 26365, Note_off_c, 7, 42, 64
9, 26396, Note_on_c, 7, 41, 96
9, 26572, Note_off_c, 7, 41, 64
9, 26643, Note_on_c, 7, 39, 81
9, 26733, Note_off_c, 7, 39, 64
9, 26755, Note_on_c, 7, 37, 71
9, 26845, Note_off_c, 7, 37, 64
9, 26879, Note_on_c, 7, 42, 101
9, 27055, Note_off_c, 7, 42, 64
9, 27122, Note_on_c, 7, 41, 78
9, 27212, Note_off_c, 7, 41, 64
9, 27235, Note_on_c, 7, 39, 71
9, 27325, Note_off_c, 7, 39, 64
9, 27351, Note_on_c, 7, 37, 72
9, 27420, Note_off_c, 7, 37, 64
9, 27603, Note_on_c, 7, 61, 96
9, 27693, Note_off_c, 7, 61, 64
9, 27715, Note_on_c, 7, 60, 85
9, 27805, Note_off_c, 7, 60, 64
9, 27835, Note_on_c, 7, 58, 82
9, 28015, Note_off_c, 7, 58, 64
9, 28083, Note_on_c, 7, 56, 88
9, 28173, Note_off_c, 7, 56, 64
9, 28195, Note_on_c, 7, 54, 85
9, 28285, Note_off_c, 7, 54, 64
9, 28308, Note_on_c, 7, 53, 82
9, 28458, Note_off_c, 7, 53, 64
9, 28554, Note_on_c, 7, 55, 89
9, 28675, Note_off_c, 7, 55, 64
9, 28799, Note_on_c, 7, 56, 91
9, 28952, Note_off_c, 7, 56, 64
9, 29043, Note_on_c, 7, 44, 81
9, 29153, Note_off_c, 7, 44, 64
9, 29277, Note_on_c, 7, 44, 93
9, 29384, Note_off_c, 7, 44, 64
9, 29523, Note_on_c, 7, 56, 101
9, 29613, Note_off_c, 7, 56, 64
9, 29635, Note_on_c, 7, 58, 94
9, 29725, Note_off_c, 7, 58, 64
9, 29749, Note_on_c, 7, 60, 99
9, 29917, Note_off_c, 7, 60, 64
9, 29992, Note_on_c, 7, 61, 98
9, 30115, Note_off_c, 7, 61, 64
9, 30237, Note_on_c, 7, 63, 85
9, 30361, Note_off_c, 7, 63, 64
9, 30476, Note_on_c, 7, 60, 89
9, 30594, Note_off_c, 7, 60, 64
9, 30722, Note_on_c, 7, 61, 96
9, 30881, Note_off_c, 7, 61, 64
9, 30961, Note_on_c, 7, 54, 81
9, 31046, Note_off_c, 7, 54, 64
9, 31204, Note_on_c, 7, 56, 81
9, 31286, Note_off_c, 7, 56, 64
9, 31446, Note_on_c, 7, 44, 91
9, 31535, Note_off_c, 7, 44, 64
9, 31691, Note_on_c, 7, 37, 94
9, 31819, Note_off_c, 7, 37, 64
9, 31923, Note_on_c, 7, 61, 81
9, 32013, Note_off_c, 7, 61, 64
9, 32036, Note_on_c, 7, 59, 81
9, 32126, Note_off_c, 7, 59, 64
9, 32163, Note_on_c, 7, 58, 81
9, 32270, Note_off_c, 7, 58, 64
9, 32280, Note_on_c, 7, 59, 81
9, 32360, Note_off_c, 7, 59, 64
9, 32400, Note_on_c, 7, 58, 81
9, 32473, Note_off_c, 7, 58, 64
9, 32507, Note_on_c, 7, 56, 81
9, 32593, Note_off_c, 7, 56, 64
9, 32638, Note_on_c, 7, 54, 81
9, 32711, Control_c, 7, 11, 100
9, 32749, Control_c, 7, 11, 95
9, 32788, Control_c, 7, 11, 91
9, 32826, Control_c, 7, 11, 86
9, 32864, Control_c, 7, 11, 82
9, 32874, Note_off_c, 7, 54, 64
9, 32921, Control_c, 7, 11, 100
9, 34323, Note_on_c, 7, 54, 74
9, 34413, Note_off_c, 7, 54, 64
9, 34436, Note_on_c, 7, 53, 54
9, 34526, Note_off_c, 7, 53, 64
9, 34559, Note_on_c, 7, 54, 81
9, 34662, Note_off_c, 7, 54, 64
9, 34803, Note_on_c, 7, 42, 81
9, 34893, Note_off_c, 7, 42, 64
9, 34915, Note_on_c, 7, 44, 81
9, 35005, Note_off_c, 7, 44, 64
9, 35036, Note_on_c, 7, 46, 90
9, 35159, Note_off_c, 7, 46, 64
9, 35274, Note_on_c, 7, 48, 75
9, 35385, Note_off_c, 7, 48, 64
9, 35517, Note_on_c, 7, 49, 68
9, 35772, Note_off_c, 7, 49, 64
9, 36234, Note_on_c, 7, 56, 63
9, 36310, Note_off_c, 7, 56, 64
9, 36480, Note_on_c, 7, 61, 81
9, 36661, Note_off_c, 7, 61, 64
9, 37194, Note_on_c, 7, 56, 81
9, 37260, Note_off_c, 7, 56, 64
9, 37433, Note_on_c, 7, 49, 77
9, 37653, Note_off_c, 7, 49, 64
9, 38155, Note_on_c, 7, 44, 81
9, 38233, Note_off_c, 7, 44, 64
9, 38400, Note_on_c, 7, 37, 89
9, 38567, Note_off_c, 7, 37, 64
9, 38636, Note_on_c, 7, 49, 82
9, 38701, Note_off_c, 7, 49, 64
9, 38868, Note_on_c, 7, 49, 81
9, 38949, Note_off_c, 7, 49, 64
9, 39109, Note_on_c, 7, 37, 81
9, 39198, Note_off_c, 7, 37, 64
9, 39347, Note_on_c, 7, 37, 92
9, 39542, Note_off_c, 7, 37, 64
9, 39591, Note_on_c, 7, 49, 81
9, 39670, Note_off_c, 7, 49, 64
9, 39834, Note_on_c, 7, 49, 82
9, 39908, Note_off_c, 7, 49, 64
9, 40069, Note_on_c, 7, 37, 81
9, 40143, Note_off_c, 7, 37, 64
9, 40313, Note_on_c, 7, 37, 87
9, 40463, Note_off_c, 7, 37, 64
9, 40563, Note_on_c, 7, 49, 89
9, 40653, Note_off_c, 7, 49, 64
9, 40675, Note_on_c, 7, 48, 82
9, 40765, Note_off_c, 7, 48, 64
9, 40791, Note_on_c, 7, 46, 81
9, 40888, Note_off_c, 7, 46, 64
9, 41027, Note_on_c, 7, 51, 87
9, 41115, Note_off_c, 7, 51, 64
9, 41269, Note_on_c, 7, 44, 81
9, 41552, Note_off_c, 7, 44, 64
9, 41997, Note_on_c, 7, 44, 81
9, 42080, Note_off_c, 7, 44, 64
9, 42238, Note_on_c, 7, 51, 72
9, 42467, Note_off_c, 7, 51, 64
9, 42954, Note_on_c, 7, 51, 77
9, 43026, Note_off_c, 7, 51, 64
9, 43193, Note_on_c, 7, 46, 74
9, 43465, Note_off_c, 7, 46, 64
9, 43916, Note_on_c, 7, 46, 81
9, 44012, Note_off_c, 7, 46, 64
9, 44158, Note_on_c, 7, 53, 84
9, 44177, Control_c, 7, 11, 96
9, 44219, Control_c, 7, 11, 89
9, 44261, Control_c, 7, 11, 82
9, 44302, Control_c, 7, 11, 76
9, 44321, Note_off_c, 7, 53, 64
9, 44345, Control_c, 7, 11, 100
9, 44402, Note_on_c, 7, 58, 101
9, 44492, Note_off_c, 7, 58, 64
9, 44515, Note_on_c, 7, 56, 76
9, 44605, Note_off_c, 7, 56, 64
9, 44622, Note_on_c, 7, 58, 74
9, 44746, Note_off_c, 7, 58, 64
9, 44882, Note_on_c, 7, 51, 81
9, 44972, Note_off_c, 7, 51, 64
9, 44995, Note_on_c, 7, 49, 72
9, 45085, Note_off_c, 7, 49, 64
9, 45108, Note_on_c, 7, 51, 72
9, 45196, Note_off_c, 7, 51, 64
9, 45362, Note_on_c, 7, 56, 96
9, 45452, Note_off_c, 7, 56, 64
9, 45475, Note_on_c, 7, 54, 76
9, 45565, Note_off_c, 7, 54, 64
9, 45584, Note_on_c, 7, 56, 76
9, 45700, Note_off_c, 7, 56, 64
9, 45842, Note_on_c, 7, 49, 90
9, 45932, Note_off_c, 7, 49, 64
9, 45955, Note_on_c, 7, 48, 69
9, 46045, Note_off_c, 7, 48, 64
9, 46070, Note_on_c, 7, 49, 69
9, 46220, Note_off_c, 7, 49, 64
9, 46311, Note_on_c, 7, 54, 101
9, 46403, Note_off_c, 7, 54, 64
9, 46546, Note_on_c, 7, 56, 89
9, 46648, Note_off_c, 7, 56, 64
9, 46786, Note_on_c, 7, 44, 81
9, 46886, Note_off_c, 7, 44, 64
9, 47029, Note_on_c, 7, 37, 102
9, 47123, Note_off_c, 7, 37, 64
9, 47283, Note_on_c, 7, 61, 71
9, 47373, Note_off_c, 7, 61, 64
9, 47395, Note_on_c, 7, 60, 48
9, 47485, Note_off_c, 7, 60, 64
9, 47515, Note_on_c, 7, 61, 48
9, 47620, Note_off_c, 7, 61, 64
9, 48243, Note_on_c, 7, 61, 81
9, 48333, Note_off_c, 7, 61, 64
9, 48355, Note_on_c, 7, 60, 48
9, 48445, Note_off_c, 7, 60, 64
9, 48478, Note_on_c, 7, 61, 48
9, 48575, Note_off_c, 7, 61, 64
9, 49203, Note_on_c, 7, 49, 71
9, 49293, Note_off_c, 7, 49, 64
9, 49315, Note_on_c, 7, 48, 46
9, 49418, Note_off_c, 7, 48, 64
9, 49439, Note_on_c, 7, 49, 46
9, 49531, Note_off_c, 7, 49, 64
9, 50163, Note_on_c, 7, 49, 71
9, 50253, Note_off_c, 7, 49, 64
9, 50275, Note_on_c, 7, 48, 48
9, 50365, Note_off_c, 7, 48, 64
9, 50383, Note_on_c, 7, 49, 48
9, 50495, Note_off_c, 7, 49, 64
9, 51123, Note_on_c, 7, 61, 98
9, 51213, Note_off_c, 7, 61, 64
9, 51236, Note_on_c, 7, 59, 76
9, 51326, Note_off_c, 7, 59, 64
9, 51352, Note_on_c, 7, 61, 76
9, 51440, Note_off_c, 7, 61, 64
9, 51590, Note_on_c, 7, 49, 94
9, 51673, Note_off_c, 7, 49, 64
9, 51829, Note_on_c, 7, 42, 102
9, 51968, Note_off_c, 7, 42, 64
9, 52082, Note_on_c, 7, 54, 81
9, 52172, Note_off_c, 7, 54, 64
9, 52195, Note_on_c, 7, 53, 59
9, 52285, Note_off_c, 7, 53, 64
9, 52301, Note_on_c, 7, 54, 81
9, 52404, Note_off_c, 7, 54, 64
9, 53043, Note_on_c, 7, 54, 81
9, 53133, Note_off_c, 7, 54, 64
9, 53155, Note_on_c, 7, 53, 63
9, 53245, Note_off_c, 7, 53, 64
9, 53284, Note_on_c, 7, 54, 72
9, 53370, Note_off_c, 7, 54, 64
9, 54003, Note_on_c, 7, 42, 75
9, 54093, Note_off_c, 7, 42, 64
9, 54116, Note_on_c, 7, 41, 52
9, 54206, Note_off_c, 7, 41, 64
9, 54241, Note_on_c, 7, 42, 64
9, 54357, Note_off_c, 7, 42, 64
9, 54963, Note_on_c, 7, 42, 81
9, 55053, Note_off_c, 7, 42, 64
9, 55075, Note_on_c, 7, 41, 57
9, 55165, Note_off_c, 7, 41, 64
9, 55194, Note_on_c, 7, 42, 61
9, 55346, Note_off_c, 7, 42, 64
9, 55923, Note_on_c, 7, 54, 98
9, 56013, Note_off_c, 7, 54, 64
9, 56035, Note_on_c, 7, 52, 81
9, 56125, Note_off_c, 7, 52, 64
9, 56148, Note_on_c, 7, 54, 76
9, 56229, Note_off_c, 7, 54, 64
9, 56402, Note_on_c, 7, 42, 94
9, 56492, Note_off_c, 7, 42, 64
9, 56588, Control_c, 7, 11, 86
9, 56623, Note_on_c, 7, 47, 94
9, 56630, Control_c, 7, 11, 91
9, 56672, Control_c, 7, 11, 97
9, 56714, Control_c, 7, 11, 102
9, 56756, Control_c, 7, 11, 108
9, 56798, Control_c, 7, 11, 114
9, 56839, Control_c, 7, 11, 120
9, 56896, Control_c, 7, 11, 104
9, 56959, Control_c, 7, 11, 92
9, 57004, Note_off_c, 7, 47, 64
9, 57022, Control_c, 7, 11, 78
9, 57078, Control_c, 7, 11, 100
9, 57241, Note_on_c, 7, 46, 113
9, 57331, Note_off_c, 7, 46, 64
9, 57359, Note_on_c, 7, 47, 115
9, 57428, Note_off_c, 7, 47, 64
9, 57470, Note_on_c, 7, 49, 105
9, 57537, Note_off_c, 7, 49, 64
9, 57590, Note_on_c, 7, 51, 105
9, 57624, Control_c, 7, 11, 96
9, 57661, Control_c, 7, 11, 90
9, 57698, Control_c, 7, 11, 85
9, 57735, Control_c, 7, 11, 80
9, 57738, Note_off_c, 7, 51, 64
9, 57799, Control_c, 7, 11, 100
9, 57843, Note_on_c, 7, 56, 98
9, 57933, Note_off_c, 7, 56, 64
9, 57955, Note_on_c, 7, 54, 91
9, 58045, Note_off_c, 7, 54, 64
9, 58073, Note_on_c, 7, 56, 81
9, 58177, Note_off_c, 7, 56, 64
9, 58323, Note_on_c, 7, 49, 115
9, 58413, Note_off_c, 7, 49, 64
9, 58435, Note_on_c, 7, 47, 81
9, 58525, Note_off_c, 7, 47, 64
9, 58556, Note_on_c, 7, 49, 81
9, 58653, Note_off_c, 7, 49, 64
9, 58803, Note_on_c, 7, 54, 120
9, 58893, Note_off_c, 7, 54, 64
9, 58916, Note_on_c, 7, 52, 82
9, 59006, Note_off_c, 7, 52, 64
9, 59042, Note_on_c, 7, 54, 73
9, 59138, Note_off_c, 7, 54, 64
9, 59283, Note_on_c, 7, 47, 109
9, 59373, Note_off_c, 7, 47, 64
9, 59396, Note_on_c, 7, 46, 81
9, 59486, Note_off_c, 7, 46, 64
9, 59531, Note_on_c, 7, 47, 73
9, 59663, Note_off_c, 7, 47, 64
9, 59763, Note_on_c, 7, 52, 118
9, 59853, Note_off_c, 7, 52, 64
9, 59876, Note_on_c, 7, 51, 87
9, 59966, Note_off_c, 7, 51, 64
9, 59976, Control_c, 7, 11, 80
9, 60002, Note_on_c, 7, 52, 115
9, 60013, Control_c, 7, 11, 84
9, 60051, Control_c, 7, 11, 89
9, 60089, Control_c, 7, 11, 94
9, 60127, Control_c, 7, 11, 98
9, 60165, Control_c, 7, 11, 103
9, 60202, Control_c, 7, 11, 108
9, 60240, Control_c, 7, 11, 112
9, 60278, Control_c, 7, 11, 117
9, 60316, Control_c, 7, 11, 122
9, 60353, Control_c, 7, 11, 127
9, 60403, Control_c, 7, 11, 112
9, 60466, Control_c, 7, 11, 100
9, 60529, Control_c, 7, 11, 82
9, 60544, Note_off_c, 7, 52, 64
9, 60578, Control_c, 7, 11, 100
9, 60602, Note_on_c, 7, 54, 102
9, 60689, Note_off_c, 7, 54, 64
9, 60717, Note_on_c, 7, 52, 89
9, 60790, Note_off_c, 7, 52, 64
9, 60833, Note_on_c, 7, 51, 93
9, 60897, Note_off_c, 7, 51, 64
9, 60957, Note_on_c, 7, 49, 109
9, 61046, Note_off_c, 7, 49, 64
9, 61079, Note_on_c, 7, 47, 98
9, 61137, Note_off_c, 7, 47, 64
9, 61194, Note_on_c, 7, 46, 98
9, 61245, Note_off_c, 7, 46, 64
9, 61311, Note_on_c, 7, 44, 102
9, 61368, Note_off_c, 7, 44, 64
9, 61434, Note_on_c, 7, 42, 115
9, 61581, Note_off_c, 7, 42, 64
9, 61670, Note_on_c, 7, 47, 106
9, 61747, Note_off_c, 7, 47, 64
9, 61903, Note_on_c, 7, 54, 98
9, 61968, Note_off_c, 7, 54, 64
9, 62145, Note_on_c, 7, 42, 98
9, 62223, Note_off_c, 7, 42, 64
9, 62387, Note_on_c, 7, 47, 96
9, 62580, Control_c, 7, 11, 96
9, 62618, Control_c, 7, 11, 92
9, 62657, Control_c, 7, 11, 89
9, 62695, Control_c, 7, 11, 85
9, 62722, Note_off_c, 7, 47, 64
9, 62733, Control_c, 7, 11, 82
9, 62846, Control_c, 7, 11, 100
9, 63123, Note_on_c, 7, 59, 92
9, 63213, Note_off_c, 7, 59, 64
9, 63235, Note_on_c, 7, 58, 75
9, 63325, Note_off_c, 7, 58, 64
9, 63350, Control_c, 7, 11, 94
9, 63356, Note_on_c, 7, 59, 72
9, 63389, Control_c, 7, 11, 89
9, 63429, Control_c, 7, 11, 84
9, 63468, Control_c, 7, 11, 80
9, 63477, Note_off_c, 7, 59, 64
9, 63553, Control_c, 7, 11, 100
9, 63603, Note_on_c, 7, 54, 93
9, 63693, Note_off_c, 7, 54, 64
9, 63715, Note_on_c, 7, 52, 72
9, 63805, Note_off_c, 7, 52, 64
9, 63833, Control_c, 7, 11, 96
9, 63835, Note_on_c, 7, 54, 75
9, 63872, Control_c, 7, 11, 92
9, 63912, Control_c, 7, 11, 88
9, 63951, Control_c, 7, 11, 84
9, 63952, Note_off_c, 7, 54, 64
9, 64022, Control_c, 7, 11, 100
9, 64083, Note_on_c, 7, 59, 93
9, 64173, Note_off_c, 7, 59, 64
9, 64195, Note_on_c, 7, 58, 81
9, 64285, Note_off_c, 7, 58, 64
9, 64314, Note_on_c, 7, 59, 81
9, 64323, Control_c, 7, 11, 92
9, 64365, Control_c, 7, 11, 87
9, 64407, Control_c, 7, 11, 82
9, 64426, Note_off_c, 7, 59, 64
9, 64448, Control_c, 7, 11, 78
9, 64512, Control_c, 7, 11, 100
9, 64563, Note_on_c, 7, 51, 75
9, 64653, Note_off_c, 7, 51, 64
9, 64675, Note_on_c, 7, 49, 71
9, 64765, Note_off_c, 7, 49, 64
9, 64789, Note_on_c, 7, 51, 81
9, 64799, Control_c, 7, 11, 94
9, 64838, Control_c, 7, 11, 88
9, 64878, Control_c, 7, 11, 83
9, 64908, Note_off_c, 7, 51, 64
9, 64917, Control_c, 7, 11, 78
9, 64960, Control_c, 7, 11, 100
9, 65042, Note_on_c, 7, 59, 85
9, 65132, Note_off_c, 7, 59, 64
9, 65155, Note_on_c, 7, 58, 81
9, 65245, Note_off_c, 7, 58, 64
9, 65266, Note_on_c, 7, 59, 81
9, 65282, Control_c, 7, 11, 92
9, 65331, Control_c, 7, 11, 86
9, 65380, Control_c, 7, 11, 81
9, 65410, Note_off_c, 7, 59, 64
9, 65428, Control_c, 7, 11, 76
9, 65450, Control_c, 7, 11, 100
9, 65522, Note_on_c, 7, 47, 82
9, 65612, Note_off_c, 7, 47, 64
9, 65635, Note_on_c, 7, 49, 81
9, 65725, Note_off_c, 7, 49, 64
9, 65742, Note_on_c, 7, 51, 81
9, 65765, Control_c, 7, 11, 96
9, 65811, Control_c, 7, 11, 92
9, 65858, Control_c, 7, 11, 88
9, 65880, Note_off_c, 7, 51, 64
9, 65904, Control_c, 7, 11, 84
9, 65968, Control_c, 7, 11, 100
9, 66002, Note_on_c, 7, 53, 84
9, 66092, Note_off_c, 7, 53, 64
9, 66233, Note_on_c, 7, 54, 101
9, 66376, Note_off_c, 7, 54, 64
9, 66479, Note_on_c, 7, 42, 81
9, 66589, Note_off_c, 7, 42, 64
9, 66963, Note_on_c, 7, 54, 81
9, 67053, Note_off_c, 7, 54, 64
9, 67076, Note_on_c, 7, 53, 67
9, 67166, Note_off_c, 7, 53, 64
9, 67202, Note_on_c, 7, 54, 81
9, 67207, Control_c, 7, 11, 96
9, 67251, Control_c, 7, 11, 92
9, 67295, Control_c, 7, 11, 88
9, 67327, Note_off_c, 7, 54, 64
9, 67339, Control_c, 7, 11, 84
9, 67396, Control_c, 7, 11, 100
9, 67443, Note_on_c, 7, 49, 77
9, 67533, Note_off_c, 7, 49, 64
9, 67555, Note_on_c, 7, 47, 78
9, 67645, Note_off_c, 7, 47, 64
9, 67671, Note_on_c, 7, 49, 81
9, 67676, Control_c, 7, 11, 96
9, 67722, Control_c, 7, 11, 91
9, 67769, Control_c, 7, 11, 86
9, 67795, Note_off_c, 7, 49, 64
9, 67815, Control_c, 7, 11, 82
9, 67872, Control_c, 7, 11, 100
9, 67923, Note_on_c, 7, 54, 87
9, 68013, Note_off_c, 7, 54, 64
9, 68035, Note_on_c, 7, 53, 71
9, 68125, Note_off_c, 7, 53, 64
9, 68150, Note_on_c, 7, 54, 81
9, 68166, Control_c, 7, 11, 98
9, 68209, Control_c, 7, 11, 94
9, 68253, Control_c, 7, 11, 90
9, 68294, Note_off_c, 7, 54, 64
9, 68297, Control_c, 7, 11, 86
9, 68340, Control_c, 7, 11, 82
9, 68355, Control_c, 7, 11, 100
9, 68402, Note_on_c, 7, 46, 81
9, 68492, Note_off_c, 7, 46, 64
9, 68515, Note_on_c, 7, 44, 81
9, 68605, Note_off_c, 7, 44, 64
9, 68630, Note_on_c, 7, 46, 81
9, 68649, Control_c, 7, 11, 96
9, 68688, Control_c, 7, 11, 90
9, 68728, Control_c, 7, 11, 85
9, 68764, Note_off_c, 7, 46, 64
9, 68767, Control_c, 7, 11, 80
9, 68824, Control_c, 7, 11, 100
9, 68883, Note_on_c, 7, 54, 88
9, 68973, Note_off_c, 7, 54, 64
9, 68995, Note_on_c, 7, 53, 75
9, 69085, Note_off_c, 7, 53, 64
9, 69108, Note_on_c, 7, 54, 85
9, 69111, Control_c, 7, 11, 94
9, 69150, Control_c, 7, 11, 89
9, 69190, Control_c, 7, 11, 84
9, 69229, Control_c, 7, 11, 80
9, 69254, Note_off_c, 7, 54, 64
9, 69300, Control_c, 7, 11, 100
9, 69362, Note_on_c, 7, 42, 81
9, 69452, Note_off_c, 7, 42, 64
9, 69475, Note_on_c, 7, 44, 81
9, 69565, Note_off_c, 7, 44, 64
9, 69582, Note_on_c, 7, 46, 85
9, 69688, Note_off_c, 7, 46, 64
9, 69826, Note_on_c, 7, 48, 92
9, 69926, Note_off_c, 7, 48, 64
9, 70070, Note_on_c, 7, 49, 111
9, 70183, Note_on_c, 7, 48, 66
9, 70189, Note_off_c, 7, 49, 64
9, 70307, Note_on_c, 7, 49, 75
9, 70310, Note_off_c, 7, 48, 64
9, 70409, Note_off_c, 7, 49, 64
9, 70431, Note_on_c, 7, 51, 95
9, 70501, Note_off_c, 7, 51, 64
9, 70552, Note_on_c, 7, 49, 87
9, 70648, Note_off_c, 7, 49, 64
9, 70672, Note_on_c, 7, 53, 72
9, 70736, Note_off_c, 7, 53, 64
9, 70788, Note_on_c, 7, 49, 94
9, 70888, Note_off_c, 7, 49, 64
9, 70909, Note_on_c, 7, 54, 94
9, 70976, Note_off_c, 7, 54, 64
9, 71032, Note_on_c, 7, 49, 92
9, 71152, Note_on_c, 7, 48, 75
9, 71173, Note_off_c, 7, 49, 64
9, 71268, Note_off_c, 7, 48, 64
9, 71272, Note_on_c, 7, 49, 87
9, 71342, Note_off_c, 7, 49, 64
9, 71390, Note_on_c, 7, 51, 95
9, 71466, Note_off_c, 7, 51, 64
9, 71513, Note_on_c, 7, 49, 99
9, 71610, Note_off_c, 7, 49, 64
9, 71630, Note_on_c, 7, 56, 87
9, 71696, Note_off_c, 7, 56, 64
9, 71749, Note_on_c, 7, 49, 110
9, 71839, Note_off_c, 7, 49, 64
9, 71865, Note_on_c, 7, 58, 106
9, 71935, Note_off_c, 7, 58, 64
9, 71991, Note_on_c, 7, 49, 100
9, 72110, Note_on_c, 7, 48, 73
9, 72121, Note_off_c, 7, 49, 64
9, 72218, Note_off_c, 7, 48, 64
9, 72229, Note_on_c, 7, 49, 87
9, 72304, Note_off_c, 7, 49, 64
9, 72352, Note_on_c, 7, 51, 104
9, 72420, Note_off_c, 7, 51, 64
9, 72472, Note_on_c, 7, 49, 118
9, 72560, Note_off_c, 7, 49, 64
9, 72587, Note_on_c, 7, 59, 106
9, 72657, Note_off_c, 7, 59, 64
9, 72706, Note_on_c, 7, 49, 118
9, 72789, Note_off_c, 7, 49, 64
9, 72823, Note_on_c, 7, 61, 110
9, 72895, Note_off_c, 7, 61, 64
9, 72947, Note_on_c, 7, 58, 110
9, 73045, Control_c, 7, 11, 98
9, 73094, Control_c, 7, 11, 91
9, 73142, Note_off_c, 7, 58, 64
9, 73142, Control_c, 7, 11, 84
9, 73171, Control_c, 7, 11, 100
9, 73216, Note_on_c, 7, 56, 100
9, 73306, Note_off_c, 7, 56, 64
9, 73315, Note_on_c, 7, 54, 81
9, 73405, Note_off_c, 7, 54, 64
9, 73427, Note_on_c, 7, 56, 81
9, 73493, Control_c, 7, 11, 96
9, 73532, Control_c, 7, 11, 91
9, 73572, Control_c, 7, 11, 86
9, 73611, Control_c, 7, 11, 82
9, 73644, Note_off_c, 7, 56, 64
9, 73668, Control_c, 7, 11, 100
9, 73682, Note_on_c, 7, 54, 81
9, 73772, Note_off_c, 7, 54, 64
9, 73795, Note_on_c, 7, 53, 71
9, 73885, Note_off_c, 7, 53, 64
9, 73914, Note_on_c, 7, 54, 81
9, 73941, Control_c, 7, 11, 94
9, 73983, Control_c, 7, 11, 90
9, 74025, Control_c, 7, 11, 86
9, 74067, Control_c, 7, 11, 82
9, 74108, Control_c, 7, 11, 78
9, 74135, Note_off_c, 7, 54, 64
9, 74158, Control_c, 7, 11, 100
9, 74163, Note_on_c, 7, 58, 121
9, 74253, Note_off_c, 7, 58, 64
9, 74276, Note_on_c, 7, 56, 93
9, 74366, Note_off_c, 7, 56, 64
9, 74393, Note_on_c, 7, 58, 84
9, 74403, Control_c, 7, 11, 94
9, 74447, Control_c, 7, 11, 88
9, 74491, Control_c, 7, 11, 83
9, 74535, Control_c, 7, 11, 78
9, 74555, Note_off_c, 7, 58, 64
9, 74592, Control_c, 7, 11, 100
9, 74643, Note_on_c, 7, 61, 106
9, 74733, Note_off_c, 7, 61, 64
9, 74755, Note_on_c, 7, 59, 75
9, 74845, Note_off_c, 7, 59, 64
9, 74877, Note_on_c, 7, 61, 78
9, 74879, Control_c, 7, 11, 94
9, 74935, Control_c, 7, 11, 88
9, 74990, Control_c, 7, 11, 82
9, 75041, Note_off_c, 7, 61, 64
9, 75110, Control_c, 7, 11, 100
9, 76564, Note_on_c, 7, 54, 81
9, 76629, Note_off_c, 7, 54, 64
9, 76798, Note_on_c, 7, 54, 81
9, 76949, Note_off_c, 7, 54, 64
9, 77039, Note_on_c, 7, 42, 81
9, 77134, Note_off_c, 7, 42, 64
9, 77281, Note_on_c, 7, 42, 81
9, 77383, Note_off_c, 7, 42, 64
9, 77517, Note_on_c, 7, 54, 81
9, 77602, Note_off_c, 7, 54, 64
9, 77754, Note_on_c, 7, 54, 81
9, 77927, Note_off_c, 7, 54, 64
9, 77990, Note_on_c, 7, 42, 81
9, 78088, Note_off_c, 7, 42, 64
9, 78236, Note_on_c, 7, 42, 81
9, 78336, Note_off_c, 7, 42, 64
9, 78482, Note_on_c, 7, 54, 121
9, 78572, Note_off_c, 7, 54, 64
9, 78595, Note_on_c, 7, 53, 97
9, 78685, Note_off_c, 7, 53, 64
9, 78712, Note_on_c, 7, 54, 92
9, 78835, Note_off_c, 7, 54, 64
9, 78963, Note_on_c, 7, 42, 121
9, 79053, Note_off_c, 7, 42, 64
9, 79075, Note_on_c, 7, 44, 96
9, 79165, Note_off_c, 7, 44, 64
9, 79186, Note_on_c, 7, 46, 90
9, 79302, Note_off_c, 7, 46, 64
9, 79428, Note_on_c, 7, 48, 96
9, 79518, Note_off_c, 7, 48, 64
9, 79667, Note_on_c, 7, 49, 101
9, 79786, Note_off_c, 7, 49, 64
9, 79903, Note_on_c, 7, 37, 98
9, 80004, Note_off_c, 7, 37, 64
9, 80136, Note_on_c, 7, 37, 109
9, 80228, Note_off_c, 7, 37, 64
9, 80403, Note_on_c, 7, 61, 88
9, 80493, Note_off_c, 7, 61, 64
9, 80515, Note_on_c, 7, 60, 75
9, 80605, Note_off_c, 7, 60, 64
9, 80635, Note_on_c, 7, 61, 81
9, 80640, Control_c, 7, 11, 94
9, 80686, Control_c, 7, 11, 88
9, 80733, Control_c, 7, 11, 83
9, 80779, Control_c, 7, 11, 78
9, 80781, Note_off_c, 7, 61, 64
9, 80829, Control_c, 7, 11, 100
9, 80871, Note_on_c, 7, 49, 87
9, 80966, Note_off_c, 7, 49, 64
9, 81110, Note_on_c, 7, 37, 94
9, 81213, Note_off_c, 7, 37, 64
9, 81363, Note_on_c, 7, 49, 87
9, 81453, Note_off_c, 7, 49, 64
9, 81475, Note_on_c, 7, 48, 71
9, 81565, Note_off_c, 7, 48, 64
9, 81586, Note_on_c, 7, 49, 81
9, 81599, Control_c, 7, 11, 94
9, 81641, Control_c, 7, 11, 90
9, 81683, Control_c, 7, 11, 86
9, 81724, Control_c, 7, 11, 82
9, 81736, Note_off_c, 7, 49, 64
9, 81795, Control_c, 7, 11, 100
9, 81822, Note_on_c, 7, 37, 88
9, 81931, Note_off_c, 7, 37, 64
9, 82060, Note_on_c, 7, 37, 88
9, 82149, Note_off_c, 7, 37, 64
9, 82302, Note_on_c, 7, 53, 75
9, 82414, Note_off_c, 7, 53, 64
9, 82543, Note_on_c, 7, 54, 101
9, 82707, Note_off_c, 7, 54, 64
9, 82787, Note_on_c, 7, 51, 87
9, 82909, Note_off_c, 7, 51, 64
9, 83025, Note_on_c, 7, 47, 92
9, 83176, Note_off_c, 7, 47, 64
9, 83270, Note_on_c, 7, 49, 87
9, 83402, Note_off_c, 7, 49, 64
9, 83512, Note_on_c, 7, 51, 102
9, 83728, Note_off_c, 7, 51, 64
9, 83763, Note_on_c, 7, 49, 96
9, 83853, Note_off_c, 7, 49, 64
9, 83875, Note_on_c, 7, 47, 63
9, 83965, Note_off_c, 7, 47, 64
9, 83993, Note_on_c, 7, 46, 82
9, 84175, Note_off_c, 7, 46, 64
9, 84243, Note_on_c, 7, 44, 94
9, 84333, Note_off_c, 7, 44, 64
9, 84355, Note_on_c, 7, 42, 69
9, 84445, Note_off_c, 7, 42, 64
9, 84476, Note_on_c, 7, 47, 89
9, 84655, Note_off_c, 7, 47, 64
9, 84722, Note_on_c, 7, 46, 94
9, 84812, Note_off_c, 7, 46, 64
9, 84835, Note_on_c, 7, 44, 63
9, 84925, Note_off_c, 7, 44, 64
9, 84951, Note_on_c, 7, 42, 91
9, 85108, Note_off_c, 7, 42, 64
9, 85202, Note_on_c, 7, 54, 105
9, 85292, Note_off_c, 7, 54, 64
9, 85315, Note_on_c, 7, 53, 76
9, 85405, Note_off_c, 7, 53, 64
9, 85421, Note_on_c, 7, 51, 81
9, 85624, Note_off_c, 7, 51, 64
9, 85682, Note_on_c, 7, 49, 101
9, 85772, Note_off_c, 7, 49, 64
9, 85795, Note_on_c, 7, 47, 71
9, 85885, Note_off_c, 7, 47, 64
9, 85922, Note_on_c, 7, 46, 78
9, 86012, Note_off_c, 7, 46, 64
9, 86162, Note_on_c, 7, 48, 93
9, 86252, Note_off_c, 7, 48, 64
9, 86388, Note_on_c, 7, 49, 98
9, 86523, Note_off_c, 7, 49, 64
9, 86627, Note_on_c, 7, 37, 94
9, 86755, Note_off_c, 7, 37, 64
9, 86868, Note_on_c, 7, 37, 101
9, 86974, Note_off_c, 7, 37, 64
9, 87122, Note_on_c, 7, 49, 101
9, 87212, Note_off_c, 7, 49, 64
9, 87235, Note_on_c, 7, 51, 87
9, 87325, Note_off_c, 7, 51, 64
9, 87344, Note_on_c, 7, 53, 99
9, 87502, Note_off_c, 7, 53, 64
9, 87581, Note_on_c, 7, 54, 92
9, 87688, Note_off_c, 7, 54, 64
9, 87828, Note_on_c, 7, 56, 87
9, 87939, Note_off_c, 7, 56, 64
9, 88071, Note_on_c, 7, 49, 96
9, 88157, Note_off_c, 7, 49, 64
9, 88311, Note_on_c, 7, 54, 94
9, 88447, Note_off_c, 7, 54, 64
9, 88549, Note_on_c, 7, 47, 94
9, 88644, Note_off_c, 7, 47, 64
9, 88791, Note_on_c, 7, 49, 101
9, 88888, Note_off_c, 7, 49, 64
9, 89040, Note_on_c, 7, 37, 96
9, 89130, Note_off_c, 7, 37, 64
9, 89222, Control_c, 7, 11, 82
9, 89257, Control_c, 7, 11, 86
9, 89278, Note_on_c, 7, 39, 121
9, 89293, Control_c, 7, 11, 90
9, 89329, Control_c, 7, 11, 94
9, 89364, Control_c, 7, 11, 98
9, 89400, Control_c, 7, 11, 102
9, 89436, Control_c, 7, 11, 107
9, 89471, Control_c, 7, 11, 111
9, 89507, Control_c, 7, 11, 115
9, 89543, Control_c, 7, 11, 119
9, 89578, Control_c, 7, 11, 124
9, 89621, Control_c, 7, 11, 108
9, 89666, Control_c, 7, 11, 100
9, 89712, Control_c, 7, 11, 92
9, 89757, Control_c, 7, 11, 84
9, 89798, Note_off_c, 7, 39, 64
9, 89802, Control_c, 7, 11, 76
9, 89908, Control_c, 7, 11, 100
9, 90005, Note_on_c, 7, 41, 102
9, 90091, Note_off_c, 7, 41, 64
9, 90242, Note_on_c, 7, 42, 102
9, 90417, Note_off_c, 7, 42, 64
9, 90480, Note_on_c, 7, 35, 81
9, 90580, Note_off_c, 7, 35, 64
9, 90718, Note_on_c, 7, 37, 81
9, 90792, Note_off_c, 7, 37, 64
9, 90960, Note_on_c, 7, 49, 81
9, 91047, Note_off_c, 7, 49, 64
9, 91155, Control_c, 7, 11, 60
9, 91185, Control_c, 7, 11, 70
9, 91203, Note_on_c, 7, 54, 121
9, 91215, Control_c, 7, 11, 80
9, 91245, Control_c, 7, 11, 90
9, 91275, Control_c, 7, 11, 101
9, 91305, Control_c, 7, 11, 111
9, 91334, Control_c, 7, 11, 122
9, 91362, Control_c, 7, 11, 101
9, 91404, Control_c, 7, 11, 84
9, 91428, Control_c, 7, 11, 100
9, 91429, Note_off_c, 7, 54, 64
9, 91453, Note_on_c, 7, 53, 117
9, 91559, Note_off_c, 7, 53, 64
9, 91560, Note_on_c, 7, 51, 72
9, 91650, Note_off_c, 7, 51, 64
9, 91683, Note_on_c, 7, 49, 92
9, 91776, Note_off_c, 7, 49, 64
9, 91785, Note_on_c, 7, 47, 71
9, 91860, Note_off_c, 7, 47, 64
9, 91914, Note_on_c, 7, 46, 92
9, 91992, Note_off_c, 7, 46, 64
9, 92026, Note_on_c, 7, 44, 71
9, 92105, Note_off_c, 7, 44, 64
9, 92157, Note_on_c, 7, 42, 63
9, 92190, Control_c, 7, 11, 96
9, 92230, Control_c, 7, 11, 91
9, 92271, Control_c, 7, 11, 87
9, 92311, Control_c, 7, 11, 82
9, 92352, Control_c, 7, 11, 78
9, 92392, Control_c, 7, 11, 74
9, 92411, Note_off_c, 7, 42, 64
9, 92470, Control_c, 7, 11, 100
9, 93109, Note_on_c, 7, 42, 54
9, 93135, Control_c, 7, 11, 94
9, 93174, Control_c, 7, 11, 90
9, 93213, Control_c, 7, 11, 87
9, 93252, Control_c, 7, 11, 84
9, 93291, Control_c, 7, 11, 81
9, 93330, Control_c, 7, 11, 78
9, 93359, Note_off_c, 7, 42, 64
9, 93492, Control_c, 7, 11, 100
9, 94073, Note_on_c, 7, 42, 48
9, 94122, Control_c, 7, 11, 96
9, 94165, Control_c, 7, 11, 91
9, 94208, Control_c, 7, 11, 87
9, 94252, Control_c, 7, 11, 82
9, 94295, Control_c, 7, 11, 78
9, 94337, Note_off_c, 7, 42, 64
9, 94338, Control_c, 7, 11, 74
9, 94388, Control_c, 7, 11, 100
9, 95047, Note_on_c, 7, 42, 64
9, 95088, Control_c, 7, 11, 96
9, 95131, Control_c, 7, 11, 91
9, 95175, Control_c, 7, 11, 87
9, 95219, Control_c, 7, 11, 82
9, 95262, Control_c, 7, 11, 78
9, 95273, Note_off_c, 7, 42, 64
9, 95382, Control_c, 7, 11, 100
9, 95998, Note_on_c, 7, 42, 56
9, 96040, Control_c, 7, 11, 96
9, 96079, Control_c, 7, 11, 92
9, 96118, Control_c, 7, 11, 89
9, 96157, Control_c, 7, 11, 86
9, 96196, Control_c, 7, 11, 83
9, 96224, Note_off_c, 7, 42, 64
9, 96235, Control_c, 7, 11, 80
9, 96327, Control_c, 7, 11, 100
9, 96950, Note_on_c, 7, 42, 58
9, 96985, Control_c, 7, 11, 96
9, 97027, Control_c, 7, 11, 92
9, 97069, Control_c, 7, 11, 88
9, 97111, Control_c, 7, 11, 85
9, 97153, Control_c, 7, 11, 81
9, 97194, Control_c, 7, 11, 78
9, 97200, Note_off_c, 7, 42, 64
9, 97412, Control_c, 7, 11, 100
9, 97915, Note_on_c, 7, 54, 92
9, 98057, Note_off_c, 7, 54, 64
9, 98161, Note_on_c, 7, 53, 85
9, 98276, Note_off_c, 7, 53, 64
9, 98403, Note_on_c, 7, 51, 82
9, 98521, Note_off_c, 7, 51, 64
9, 98639, Note_on_c, 7, 56, 81
9, 98748, Note_off_c, 7, 56, 64
9, 98854, Control_c, 7, 11, 82
9, 98881, Note_on_c, 7, 49, 93
9, 98898, Control_c, 7, 11, 85
9, 98943, Control_c, 7, 11, 89
9, 98988, Control_c, 7, 11, 92
9, 99033, Control_c, 7, 11, 96
9, 99077, Control_c, 7, 11, 100
9, 99108, Note_off_c, 7, 49, 64
9, 99113, Control_c, 7, 11, 100
9, 99125, Note_on_c, 7, 48, 99
9, 99221, Note_off_c, 7, 48, 64
9, 99235, Note_on_c, 7, 46, 81
9, 99318, Note_off_c, 7, 46, 64
9, 99355, Note_on_c, 7, 44, 92
9, 99441, Note_off_c, 7, 44, 64
9, 99472, Note_on_c, 7, 42, 85
9, 99547, Note_off_c, 7, 42, 64
9, 99588, Note_on_c, 7, 41, 77
9, 99644, Note_off_c, 7, 41, 64
9, 99705, Note_on_c, 7, 39, 81
9, 99785, Note_off_c, 7, 39, 64
9, 99829, Note_on_c, 7, 38, 63
9, 99869, Control_c, 7, 11, 96
9, 99911, Control_c, 7, 11, 91
9, 99953, Control_c, 7, 11, 86
9, 99995, Control_c, 7, 11, 81
9, 100036, Control_c, 7, 11, 76
9, 100087, Note_off_c, 7, 38, 64
9, 100233, Control_c, 7, 11, 100
9, 100804, Note_on_c, 7, 41, 58
9, 100807, Control_c, 7, 11, 96
9, 100851, Control_c, 7, 11, 92
9, 100896, Control_c, 7, 11, 88
9, 100941, Control_c, 7, 11, 84
9, 100986, Control_c, 7, 11, 80
9, 101030, Control_c, 7, 11, 76
9, 101054, Note_off_c, 7, 41, 64
9, 101206, Control_c, 7, 11, 100
9, 101763, Note_on_c, 7, 44, 81
9, 101787, Control_c, 7, 11, 96
9, 101829, Control_c, 7, 11, 92
9, 101871, Control_c, 7, 11, 88
9, 101913, Control_c, 7, 11, 85
9, 101955, Control_c, 7, 11, 81
9, 101997, Control_c, 7, 11, 77
9, 102033, Note_off_c, 7, 44, 64
9, 102038, Control_c, 7, 11, 74
9, 102151, Control_c, 7, 11, 100
9, 102711, Note_on_c, 7, 56, 81
9, 102746, Control_c, 7, 11, 96
9, 102789, Control_c, 7, 11, 92
9, 102832, Control_c, 7, 11, 88
9, 102876, Control_c, 7, 11, 85
9, 102919, Control_c, 7, 11, 81
9, 102962, Control_c, 7, 11, 78
9, 103007, Note_off_c, 7, 56, 64
9, 103124, Control_c, 7, 11, 100
9, 103678, Note_on_c, 7, 50, 59
9, 103705, Control_c, 7, 11, 96
9, 103747, Control_c, 7, 11, 92
9, 103789, Control_c, 7, 11, 88
9, 103831, Control_c, 7, 11, 85
9, 103873, Control_c, 7, 11, 81
9, 103915, Control_c, 7, 11, 77
9, 103956, Control_c, 7, 11, 74
9, 103960, Note_off_c, 7, 50, 64
9, 104083, Control_c, 7, 11, 100
9, 104634, Note_on_c, 7, 46, 71
9, 104657, Control_c, 7, 11, 94
9, 104696, Control_c, 7, 11, 90
9, 104736, Control_c, 7, 11, 86
9, 104776, Control_c, 7, 11, 83
9, 104815, Control_c, 7, 11, 79
9, 104855, Control_c, 7, 11, 75
9, 104894, Control_c, 7, 11, 72
9, 104920, Note_off_c, 7, 46, 64
9, 105049, Control_c, 7, 11, 100
9, 105601, Note_on_c, 7, 51, 71
9, 105644, Control_c, 7, 11, 94
9, 105684, Control_c, 7, 11, 90
9, 105725, Control_c, 7, 11, 87
9, 105765, Control_c, 7, 11, 84
9, 105806, Control_c, 7, 11, 81
9, 105846, Control_c, 7, 11, 78
9, 105868, Note_off_c, 7, 51, 64
9, 105931, Control_c, 7, 11, 100
9, 107283, Note_on_c, 7, 54, 95
9, 107373, Note_off_c, 7, 54, 64
9, 107395, Note_on_c, 7, 53, 68
9, 107485, Note_off_c, 7, 53, 64
9, 107511, Note_on_c, 7, 51, 63
9, 107649, Note_off_c, 7, 51, 64
9, 107763, Note_on_c, 7, 39, 98
9, 107853, Note_off_c, 7, 39, 64
9, 107875, Note_on_c, 7, 41, 84
9, 107965, Note_off_c, 7, 41, 64
9, 107992, Note_on_c, 7, 42, 81
9, 108133, Note_off_c, 7, 42, 64
9, 108228, Note_on_c, 7, 44, 81
9, 108335, Note_off_c, 7, 44, 64
9, 108473, Note_on_c, 7, 46, 111
9, 108589, Note_on_c, 7, 45, 81
9, 108600, Note_off_c, 7, 46, 64
9, 108708, Note_on_c, 7, 46, 87
9, 108709, Note_off_c, 7, 45, 64
9, 108788, Note_off_c, 7, 46, 64
9, 108827, Note_on_c, 7, 48, 92
9, 108910, Note_off_c, 7, 48, 64
9, 108949, Note_on_c, 7, 46, 92
9, 109045, Note_off_c, 7, 46, 64
9, 109069, Note_on_c, 7, 50, 73
9, 109151, Note_off_c, 7, 50, 64
9, 109188, Note_on_c, 7, 46, 99
9, 109265, Note_off_c, 7, 46, 64
9, 109299, Note_on_c, 7, 51, 87
9, 109381, Note_off_c, 7, 51, 64
9, 109429, Note_on_c, 7, 46, 118
9, 109546, Note_on_c, 7, 45, 63
9, 109577, Note_off_c, 7, 46, 64
9, 109666, Note_on_c, 7, 46, 87
9, 109677, Note_off_c, 7, 45, 64
9, 109746, Note_off_c, 7, 46, 64
9, 109784, Note_on_c, 7, 48, 96
9, 109863, Note_off_c, 7, 48, 64
9, 109906, Note_on_c, 7, 46, 99
9, 109997, Note_off_c, 7, 46, 64
9, 110026, Note_on_c, 7, 53, 73
9, 110106, Note_off_c, 7, 53, 64
9, 110141, Note_on_c, 7, 46, 91
9, 110219, Note_off_c, 7, 46, 64
9, 110254, Note_on_c, 7, 54, 104
9, 110334, Note_off_c, 7, 54, 64
9, 110387, Note_on_c, 7, 46, 121
9, 110509, Note_on_c, 7, 45, 75
9, 110541, Note_off_c, 7, 46, 64
9, 110628, Note_on_c, 7, 46, 87
9, 110629, Note_off_c, 7, 45, 64
9, 110726, Note_off_c, 7, 46, 64
9, 110749, Note_on_c, 7, 48, 96
9, 110829, Note_off_c, 7, 48, 64
9, 110865, Note_on_c, 7, 46, 104
9, 110958, Note_off_c, 7, 46, 64
9, 110986, Note_on_c, 7, 56, 88
9, 111053, Note_off_c, 7, 56, 64
9, 111101, Note_on_c, 7, 46, 100
9, 111180, Note_off_c, 7, 46, 64
9, 111216, Note_on_c, 7, 58, 93
9, 111285, Note_off_c, 7, 58, 64
9, 111335, Control_c, 7, 11, 82
9, 111346, Note_on_c, 7, 54, 106
9, 111377, Control_c, 7, 11, 84
9, 111419, Control_c, 7, 11, 87
9, 111461, Control_c, 7, 11, 90
9, 111503, Control_c, 7, 11, 93
9, 111544, Control_c, 7, 11, 96
9, 111577, Note_off_c, 7, 54, 64
9, 111587, Control_c, 7, 11, 100
9, 111602, Note_on_c, 7, 53, 91
9, 111692, Note_off_c, 7, 53, 64
9, 111715, Note_on_c, 7, 51, 81
9, 111805, Note_off_c, 7, 51, 64
9, 111822, Note_on_c, 7, 53, 93
9, 111825, Control_c, 7, 11, 86
9, 111864, Control_c, 7, 11, 87
9, 111903, Control_c, 7, 11, 89
9, 111942, Control_c, 7, 11, 90
9, 111981, Control_c, 7, 11, 92
9, 112020, Control_c, 7, 11, 94
9, 112057, Note_off_c, 7, 53, 64
9, 112070, Control_c, 7, 11, 100
9, 112083, Note_on_c, 7, 51, 96
9, 112173, Note_off_c, 7, 51, 64
9, 112195, Note_on_c, 7, 50, 93
9, 112285, Note_off_c, 7, 50, 64
9, 112294, Control_c, 7, 11, 90
9, 112315, Note_on_c, 7, 59, 106
9, 112339, Control_c, 7, 11, 96
9, 112385, Control_c, 7, 11, 102
9, 112430, Control_c, 7, 11, 109
9, 112475, Control_c, 7, 11, 116
9, 112532, Control_c, 7, 11, 106
9, 112581, Control_c, 7, 11, 97
9, 112629, Control_c, 7, 11, 88
9, 112634, Note_off_c, 7, 59, 64
9, 112672, Control_c, 7, 11, 100
9, 112678, Note_on_c, 7, 58, 82
9, 112776, Note_off_c, 7, 58, 64
9, 112798, Note_on_c, 7, 56, 87
9, 112909, Note_off_c, 7, 56, 64
9, 112916, Note_on_c, 7, 54, 91
9, 112999, Note_off_c, 7, 54, 64
9, 113035, Note_on_c, 7, 53, 91
9, 113118, Note_off_c, 7, 53, 64
9, 113150, Note_on_c, 7, 51, 81
9, 113224, Note_off_c, 7, 51, 64
9, 113272, Note_on_c, 7, 50, 72
9, 113454, Note_off_c, 7, 50, 64
9, 113513, Note_on_c, 7, 51, 81
9, 113639, Note_off_c, 7, 51, 64
9, 113755, Note_on_c, 7, 44, 81
9, 113873, Note_off_c, 7, 44, 64
9, 113996, Note_on_c, 7, 46, 81
9, 114107, Note_off_c, 7, 46, 64
9, 114243, Note_on_c, 7, 39, 81
9, 114366, Control_c, 7, 11, 96
9, 114409, Control_c, 7, 11, 90
9, 114453, Control_c, 7, 11, 85
9, 114497, Control_c, 7, 11, 79
9, 114540, Control_c, 7, 11, 74
9, 114550, Note_off_c, 7, 39, 64
9, 114639, Control_c, 7, 11, 100
9, 114951, Note_on_c, 7, 46, 81
9, 115023, Note_off_c, 7, 46, 64
9, 115194, Note_on_c, 7, 51, 73
9, 115248, Control_c, 7, 11, 96
9, 115285, Control_c, 7, 11, 91
9, 115323, Control_c, 7, 11, 87
9, 115361, Control_c, 7, 11, 82
9, 115399, Control_c, 7, 11, 78
9, 115434, Note_off_c, 7, 51, 64
9, 115436, Control_c, 7, 11, 74
9, 115598, Control_c, 7, 11, 100
9, 115906, Note_on_c, 7, 58, 81
9, 115980, Note_off_c, 7, 58, 64
9, 116148, Note_on_c, 7, 63, 63
9, 116193, Control_c, 7, 11, 96
9, 116233, Control_c, 7, 11, 92
9, 116273, Control_c, 7, 11, 89
9, 116313, Control_c, 7, 11, 85
9, 116353, Control_c, 7, 11, 82
9, 116393, Control_c, 7, 11, 78
9, 116417, Note_off_c, 7, 63, 64
9, 116433, Control_c, 7, 11, 75
9, 116472, Control_c, 7, 11, 72
9, 116536, Control_c, 7, 11, 100
9, 116876, Note_on_c, 7, 58, 81
9, 116947, Note_off_c, 7, 58, 64
9, 117122, Note_on_c, 7, 51, 85
9, 117223, Note_off_c, 7, 51, 64
9, 117239, Note_on_c, 7, 53, 71
9, 117303, Note_off_c, 7, 53, 64
9, 117353, Note_on_c, 7, 54, 81
9, 117426, Note_off_c, 7, 54, 64
9, 117469, Note_on_c, 7, 53, 85
9, 117525, Note_off_c, 7, 53, 64
9, 117589, Note_on_c, 7, 51, 92
9, 117666, Note_off_c, 7, 51, 64
9, 117708, Note_on_c, 7, 49, 81
9, 117789, Note_off_c, 7, 49, 64
9, 117824, Note_on_c, 7, 48, 93
9, 117898, Note_off_c, 7, 48, 64
9, 117943, Note_on_c, 7, 46, 84
9, 118011, Note_off_c, 7, 46, 64
9, 118067, Note_on_c, 7, 44, 81
9, 118146, Control_c, 7, 11, 96
9, 118189, Control_c, 7, 11, 91
9, 118233, Control_c, 7, 11, 86
9, 118277, Control_c, 7, 11, 81
9, 118320, Control_c, 7, 11, 76
9, 118389, Note_off_c, 7, 44, 64
9, 118447, Control_c, 7, 11, 100
9, 118786, Note_on_c, 7, 39, 81
9, 118872, Note_off_c, 7, 39, 64
9, 119031, Note_on_c, 7, 44, 81
9, 119084, Control_c, 7, 11, 98
9, 119128, Control_c, 7, 11, 93
9, 119173, Control_c, 7, 11, 88
9, 119218, Control_c, 7, 11, 83
9, 119263, Control_c, 7, 11, 78
9, 119307, Control_c, 7, 11, 74
9, 119331, Note_off_c, 7, 44, 64
9, 119399, Control_c, 7, 11, 100
9, 119753, Note_on_c, 7, 51, 81
9, 119838, Note_off_c, 7, 51, 64
9, 119995, Note_on_c, 7, 56, 68
9, 120057, Control_c, 7, 11, 94
9, 120095, Control_c, 7, 11, 90
9, 120134, Control_c, 7, 11, 86
9, 120172, Control_c, 7, 11, 83
9, 120211, Control_c, 7, 11, 79
9, 120249, Control_c, 7, 11, 75
9, 120287, Control_c, 7, 11, 72
9, 120297, Note_off_c, 7, 56, 64
9, 120393, Control_c, 7, 11, 100
9, 120712, Note_on_c, 7, 51, 81
9, 120794, Note_off_c, 7, 51, 64
9, 120962, Note_on_c, 7, 44, 106
9, 121065, Note_off_c, 7, 44, 64
9, 121075, Note_on_c, 7, 46, 85
9, 121142, Note_off_c, 7, 46, 64
9, 121192, Note_on_c, 7, 48, 99
9, 121281, Note_off_c, 7, 48, 64
9, 121308, Note_on_c, 7, 46, 84
9, 121374, Note_off_c, 7, 46, 64
9, 121427, Note_on_c, 7, 44, 93
9, 121529, Note_off_c, 7, 44, 64
9, 121548, Note_on_c, 7, 42, 81
9, 121629, Note_off_c, 7, 42, 64
9, 121664, Note_on_c, 7, 41, 89
9, 121739, Note_off_c, 7, 41, 64
9, 121784, Note_on_c, 7, 39, 89
9, 121858, Note_off_c, 7, 39, 64
9, 121909, Note_on_c, 7, 37, 81
9, 122013, Note_off_c, 7, 37, 64
9, 122042, Note_on_c, 7, 56, 119
9, 122127, Note_off_c, 7, 56, 64
9, 122158, Note_on_c, 7, 49, 121
9, 122255, Note_off_c, 7, 49, 64
9, 122270, Note_on_c, 7, 51, 92
9, 122341, Note_off_c, 7, 51, 64
9, 122390, Note_on_c, 7, 53, 119
9, 122498, Note_off_c, 7, 53, 64
9, 122506, Note_on_c, 7, 54, 111
9, 122578, Note_off_c, 7, 54, 64
9, 122626, Note_on_c, 7, 56, 92
9, 122698, Note_off_c, 7, 56, 64
9, 122745, Note_on_c, 7, 54, 105
9, 122804, Note_off_c, 7, 54, 64
9, 122857, Note_on_c, 7, 53, 113
9, 123000, Note_off_c, 7, 53, 64
9, 123111, Note_on_c, 7, 61, 121
9, 123172, Control_c, 7, 11, 96
9, 123211, Control_c, 7, 11, 90
9, 123251, Control_c, 7, 11, 85
9, 123268, Note_off_c, 7, 61, 64
9, 123290, Control_c, 7, 11, 80
9, 123333, Control_c, 7, 11, 100
9, 123591, Note_on_c, 7, 56, 107
9, 123704, Note_off_c, 7, 56, 64
9, 123831, Note_on_c, 7, 61, 121
9, 123844, Control_c, 7, 11, 96
9, 123883, Control_c, 7, 11, 90
9, 123923, Control_c, 7, 11, 85
9, 123962, Control_c, 7, 11, 80
9, 123989, Note_off_c, 7, 61, 64
9, 124012, Control_c, 7, 11, 100
9, 124071, Note_on_c, 7, 56, 75
9, 124160, Note_off_c, 7, 56, 64
9, 124315, Note_on_c, 7, 49, 75
9, 124423, Note_off_c, 7, 49, 64
9, 124562, Note_on_c, 7, 44, 71
9, 124645, Note_off_c, 7, 44, 64
9, 124792, Note_on_c, 7, 37, 60
9, 124895, Note_off_c, 7, 37, 64
9, 124923, Note_on_c, 7, 58, 94
9, 125006, Note_off_c, 7, 58, 64
9, 125041, Note_on_c, 7, 56, 76
9, 125106, Note_off_c, 7, 56, 64
9, 125153, Note_on_c, 7, 54, 63
9, 125241, Note_off_c, 7, 54, 64
9, 125277, Note_on_c, 7, 53, 86
9, 125393, Note_on_c, 7, 51, 60
9, 125402, Note_off_c, 7, 53, 64
9, 125480, Note_off_c, 7, 51, 64
9, 125512, Note_on_c, 7, 49, 76
9, 125601, Note_off_c, 7, 49, 64
9, 125621, Note_on_c, 7, 47, 60
9, 125691, Note_off_c, 7, 47, 64
9, 125758, Note_on_c, 7, 49, 73
9, 125909, Note_off_c, 7, 49, 64
9, 126003, Note_on_c, 7, 54, 77
9, 126093, Note_off_c, 7, 54, 64
9, 126115, Note_on_c, 7, 53, 60
9, 126205, Note_off_c, 7, 53, 64
9, 126226, Note_on_c, 7, 54, 60
9, 126326, Note_off_c, 7, 54, 64
9, 126468, Note_on_c, 7, 49, 60
9, 126532, Note_off_c, 7, 49, 64
9, 126686, Control_c, 7, 11, 80
9, 126716, Note_on_c, 7, 42, 60
9, 126729, Control_c, 7, 11, 86
9, 126772, Control_c, 7, 11, 92
9, 126816, Control_c, 7, 11, 99
9, 126859, Control_c, 7, 11, 105
9, 126902, Control_c, 7, 11, 112
9, 126966, Control_c, 7, 11, 98
9, 127030, Note_off_c, 7, 42, 64
9, 127043, Control_c, 7, 11, 80
9, 127134, Control_c, 7, 11, 100
9, 127438, Note_on_c, 7, 53, 82
9, 127502, Note_off_c, 7, 53, 64
9, 127684, Note_on_c, 7, 54, 99
9, 127800, Note_off_c, 7, 54, 64
9, 127807, Note_on_c, 7, 49, 81
9, 127879, Note_off_c, 7, 49, 64
9, 127923, Note_on_c, 7, 42, 105
9, 128018, Note_off_c, 7, 42, 64
9, 128037, Note_on_c, 7, 44, 82
9, 128118, Note_off_c, 7, 44, 64
9, 128164, Note_on_c, 7, 46, 90
9, 128273, Note_off_c, 7, 46, 64
9, 128279, Note_on_c, 7, 47, 81
9, 128362, Note_off_c, 7, 47, 64
9, 128396, Note_on_c, 7, 49, 84
9, 128470, Note_off_c, 7, 49, 64
9, 128513, Note_on_c, 7, 47, 87
9, 128591, Note_off_c, 7, 47, 64
9, 128636, Note_on_c, 7, 46, 97
9, 128734, Note_off_c, 7, 46, 64
9, 128760, Note_on_c, 7, 49, 69
9, 128836, Note_off_c, 7, 49, 64
9, 128880, Note_on_c, 7, 42, 97
9, 128988, Note_off_c, 7, 42, 64
9, 128995, Note_on_c, 7, 44, 81
9, 129088, Note_off_c, 7, 44, 64
9, 129118, Note_on_c, 7, 46, 99
9, 129215, Note_off_c, 7, 46, 64
9, 129233, Note_on_c, 7, 47, 81
9, 129323, Note_off_c, 7, 47, 64
9, 129350, Note_on_c, 7, 49, 86
9, 129421, Note_off_c, 7, 49, 64
9, 129469, Note_on_c, 7, 47, 76
9, 129548, Note_off_c, 7, 47, 64
9, 129594, Note_on_c, 7, 46, 99
9, 129699, Note_off_c, 7, 46, 64
9, 129713, Note_on_c, 7, 47, 81
9, 129797, Note_off_c, 7, 47, 64
9, 129832, Note_on_c, 7, 49, 99
9, 129896, Note_off_c, 7, 49, 64
9, 129953, Note_on_c, 7, 47, 89
9, 130030, Note_off_c, 7, 47, 64
9, 130078, Note_on_c, 7, 46, 96
9, 130177, Note_off_c, 7, 46, 64
9, 130196, Note_on_c, 7, 44, 69
9, 130270, Note_off_c, 7, 44, 64
9, 130316, Note_on_c, 7, 42, 87
9, 130390, Note_off_c, 7, 42, 64
9, 130438, Note_on_c, 7, 41, 65
9, 130495, Note_off_c, 7, 41, 64
9, 130563, Note_on_c, 7, 39, 65
9, 130564, Control_c, 7, 11, 98
9, 130607, Control_c, 7, 11, 94
9, 130651, Control_c, 7, 11, 90
9, 130695, Control_c, 7, 11, 86
9, 130738, Control_c, 7, 11, 82
9, 130766, Note_off_c, 7, 39, 64
9, 130858, Control_c, 7, 11, 100
9, 131508, Note_on_c, 7, 39, 55
9, 131572, Control_c, 7, 11, 96
9, 131612, Control_c, 7, 11, 91
9, 131652, Control_c, 7, 11, 87
9, 131692, Control_c, 7, 11, 82
9, 131732, Control_c, 7, 11, 78
9, 131761, Note_off_c, 7, 39, 64
9, 131929, Control_c, 7, 11, 100
9, 132477, Note_on_c, 7, 51, 61
9, 132517, Control_c, 7, 11, 96
9, 132556, Control_c, 7, 11, 92
9, 132595, Control_c, 7, 11, 88
9, 132634, Control_c, 7, 11, 85
9, 132673, Control_c, 7, 11, 81
9, 132712, Control_c, 7, 11, 78
9, 132719, Note_off_c, 7, 51, 64
9, 132853, Control_c, 7, 11, 100
9, 133434, Note_on_c, 7, 51, 59
9, 133483, Control_c, 7, 11, 96
9, 133526, Control_c, 7, 11, 91
9, 133570, Control_c, 7, 11, 87
9, 133614, Control_c, 7, 11, 82
9, 133657, Control_c, 7, 11, 78
9, 133690, Note_off_c, 7, 51, 64
9, 133819, Control_c, 7, 11, 100
9, 134393, Note_on_c, 7, 45, 63
9, 134435, Control_c, 7, 11, 94
9, 134478, Control_c, 7, 11, 90
9, 134521, Control_c, 7, 11, 87
9, 134565, Control_c, 7, 11, 84
9, 134608, Control_c, 7, 11, 81
9, 134646, Note_off_c, 7, 45, 64
9, 134651, Control_c, 7, 11, 78
9, 134778, Control_c, 7, 11, 100
9, 135348, Note_on_c, 7, 41, 67
9, 135394, Control_c, 7, 11, 96
9, 135436, Control_c, 7, 11, 92
9, 135478, Control_c, 7, 11, 88
9, 135520, Control_c, 7, 11, 85
9, 135562, Control_c, 7, 11, 81
9, 135603, Control_c, 7, 11, 78
9, 135629, Note_off_c, 7, 41, 64
9, 135779, Control_c, 7, 11, 100
9, 136321, Note_on_c, 7, 46, 120
9, 136469, Note_off_c, 7, 46, 64
9, 136562, Note_on_c, 7, 58, 87
9, 136643, Note_off_c, 7, 58, 64
9, 136794, Note_on_c, 7, 58, 98
9, 136894, Note_off_c, 7, 58, 64
9, 137036, Note_on_c, 7, 46, 89
9, 137125, Note_off_c, 7, 46, 64
9, 137276, Note_on_c, 7, 46, 106
9, 137418, Note_off_c, 7, 46, 64
9, 137516, Note_on_c, 7, 58, 86
9, 137604, Note_off_c, 7, 58, 64
9, 137754, Note_on_c, 7, 58, 101
9, 137856, Note_off_c, 7, 58, 64
9, 137996, Note_on_c, 7, 46, 93
9, 138079, Note_off_c, 7, 46, 64
9, 138231, Note_on_c, 7, 46, 106
9, 138381, Note_off_c, 7, 46, 64
9, 138483, Note_on_c, 7, 58, 105
9, 138573, Note_off_c, 7, 58, 64
9, 138595, Note_on_c, 7, 56, 85
9, 138685, Note_off_c, 7, 56, 64
9, 138705, Control_c, 7, 11, 84
9, 138713, Note_on_c, 7, 54, 96
9, 138748, Control_c, 7, 11, 86
9, 138791, Control_c, 7, 11, 89
9, 138835, Control_c, 7, 11, 92
9, 138878, Control_c, 7, 11, 95
9, 138921, Control_c, 7, 11, 98
9, 138935, Note_off_c, 7, 54, 64
9, 138950, Control_c, 7, 11, 100
9, 138963, Note_on_c, 7, 53, 99
9, 139053, Note_off_c, 7, 53, 64
9, 139075, Note_on_c, 7, 51, 91
9, 139165, Note_off_c, 7, 51, 64
9, 139195, Control_c, 7, 11, 84
9, 139199, Note_on_c, 7, 49, 93
9, 139235, Control_c, 7, 11, 88
9, 139275, Control_c, 7, 11, 93
9, 139315, Control_c, 7, 11, 98
9, 139355, Control_c, 7, 11, 104
9, 139412, Note_off_c, 7, 49, 64
9, 139419, Control_c, 7, 11, 100
9, 139443, Note_on_c, 7, 48, 101
9, 139533, Note_off_c, 7, 48, 64
9, 139555, Note_on_c, 7, 46, 81
9, 139645, Note_off_c, 7, 46, 64
9, 139675, Note_on_c, 7, 45, 77
9, 139824, Note_off_c, 7, 45, 64
9, 139918, Note_on_c, 7, 41, 93
9, 140008, Note_off_c, 7, 41, 64
9, 140158, Note_on_c, 7, 46, 112
9, 140273, Note_off_c, 7, 46, 64
9, 140403, Note_on_c, 7, 58, 120
9, 140493, Note_off_c, 7, 58, 64
9, 140515, Note_on_c, 7, 56, 90
9, 140605, Note_off_c, 7, 56, 64
9, 140630, Control_c, 7, 11, 82
9, 140637, Note_on_c, 7, 54, 96
9, 140673, Control_c, 7, 11, 86
9, 140717, Control_c, 7, 11, 90
9, 140761, Control_c, 7, 11, 95
9, 140804, Control_c, 7, 11, 100
9, 140840, Control_c, 7, 11, 100
9, 140877, Note_off_c, 7, 54, 64
9, 140883, Note_on_c, 7, 53, 107
9, 140973, Note_off_c, 7, 53, 64
9, 140995, Note_on_c, 7, 51, 94
9, 141085, Note_off_c, 7, 51, 64
9, 141117, Note_on_c, 7, 49, 109
9, 141237, Note_on_c, 7, 48, 86
9, 141244, Note_off_c, 7, 49, 64
9, 141357, Note_on_c, 7, 49, 76
9, 141370, Note_off_c, 7, 48, 64
9, 141428, Note_off_c, 7, 49, 64
9, 141474, Note_on_c, 7, 51, 102
9, 141551, Note_off_c, 7, 51, 64
9, 141597, Note_on_c, 7, 49, 105
9, 141692, Note_off_c, 7, 49, 64
9, 141717, Note_on_c, 7, 51, 105
9, 141793, Note_off_c, 7, 51, 64
9, 141834, Note_on_c, 7, 49, 107
9, 141922, Note_off_c, 7, 49, 64
9, 141952, Note_on_c, 7, 48, 96
9, 142037, Note_off_c, 7, 48, 64
9, 142075, Note_on_c, 7, 46, 99
9, 142204, Note_off_c, 7, 46, 64
9, 142314, Note_on_c, 7, 54, 106
9, 142416, Note_off_c, 7, 54, 64
9, 142552, Note_on_c, 7, 51, 109
9, 142658, Note_off_c, 7, 51, 64
9, 142794, Note_on_c, 7, 53, 99
9, 142885, Note_off_c, 7, 53, 64
9, 142996, Control_c, 7, 11, 90
9, 143036, Note_on_c, 7, 54, 120
9, 143039, Control_c, 7, 11, 94
9, 143082, Control_c, 7, 11, 98
9, 143125, Control_c, 7, 11, 102
9, 143168, Control_c, 7, 11, 107
9, 143211, Control_c, 7, 11, 111
9, 143254, Control_c, 7, 11, 116
9, 143290, Control_c, 7, 11, 100
9, 143332, Control_c, 7, 11, 86
9, 143350, Note_off_c, 7, 54, 64
9, 143381, Control_c, 7, 11, 100
9, 143400, Note_on_c, 7, 53, 95
9, 143471, Note_off_c, 7, 53, 64
9, 143519, Note_on_c, 7, 51, 109
9, 143612, Note_off_c, 7, 51, 64
9, 143634, Note_on_c, 7, 49, 90
9, 143721, Note_off_c, 7, 49, 64
9, 143755, Note_on_c, 7, 48, 99
9, 143835, Note_off_c, 7, 48, 64
9, 143872, Note_on_c, 7, 46, 84
9, 143963, Note_off_c, 7, 46, 64
9, 143998, Note_on_c, 7, 49, 81
9, 144120, Note_off_c, 7, 49, 64
9, 144236, Note_on_c, 7, 51, 81
9, 144338, Note_off_c, 7, 51, 64
9, 144475, Note_on_c, 7, 53, 82
9, 144581, Note_off_c, 7, 53, 64
9, 144716, Note_on_c, 7, 41, 81
9, 144824, Note_off_c, 7, 41, 64
9, 144960, Note_on_c, 7, 46, 65
9, 145135, Note_off_c, 7, 46, 64
9, 145203, Note_on_c, 7, 58, 102
9, 145293, Note_off_c, 7, 58, 64
9, 145315, Note_on_c, 7, 57, 66
9, 145405, Note_off_c, 7, 57, 64
9, 145434, Note_on_c, 7, 58, 74
9, 145439, Control_c, 7, 11, 94
9, 145476, Control_c, 7, 11, 91
9, 145513, Control_c, 7, 11, 88
9, 145550, Control_c, 7, 11, 86
9, 145572, Note_off_c, 7, 58, 64
9, 145593, Control_c, 7, 11, 100
9, 145683, Note_on_c, 7, 61, 93
9, 145773, Note_off_c, 7, 61, 64
9, 145795, Note_on_c, 7, 60, 61
9, 145885, Note_off_c, 7, 60, 64
9, 145911, Note_on_c, 7, 61, 74
9, 145936, Control_c, 7, 11, 96
9, 145985, Control_c, 7, 11, 90
9, 146034, Control_c, 7, 11, 85
9, 146069, Note_off_c, 7, 61, 64
9, 146082, Control_c, 7, 11, 80
9, 146167, Control_c, 7, 11, 100
9, 147603, Note_on_c, 7, 46, 87
9, 147693, Note_off_c, 7, 46, 64
9, 147716, Note_on_c, 7, 48, 71
9, 147806, Note_off_c, 7, 48, 64
9, 147840, Control_c, 7, 11, 96
9, 147844, Note_on_c, 7, 49, 71
9, 147879, Control_c, 7, 11, 90
9, 147919, Control_c, 7, 11, 84
9, 147958, Control_c, 7, 11, 78
9, 147962, Note_off_c, 7, 49, 64
9, 148015, Control_c, 7, 11, 100
9, 148083, Note_on_c, 7, 54, 94
9, 148173, Note_off_c, 7, 54, 64
9, 148196, Note_on_c, 7, 53, 71
9, 148286, Note_off_c, 7, 53, 64
9, 148315, Note_on_c, 7, 54, 67
9, 148316, Control_c, 7, 11, 96
9, 148360, Control_c, 7, 11, 90
9, 148404, Control_c, 7, 11, 85
9, 148430, Note_off_c, 7, 54, 64
9, 148448, Control_c, 7, 11, 80
9, 148491, Control_c, 7, 11, 100
9, 148563, Note_on_c, 7, 48, 84
9, 148653, Note_off_c, 7, 48, 64
9, 148675, Note_on_c, 7, 46, 81
9, 148765, Note_off_c, 7, 46, 64
9, 148795, Note_on_c, 7, 48, 63
9, 148813, Control_c, 7, 11, 96
9, 148865, Control_c, 7, 11, 89
9, 148917, Control_c, 7, 11, 82
9, 148934, Note_off_c, 7, 48, 64
9, 148960, Control_c, 7, 11, 100
9, 149043, Note_on_c, 7, 53, 88
9, 149133, Note_off_c, 7, 53, 64
9, 149155, Note_on_c, 7, 51, 74
9, 149245, Note_off_c, 7, 51, 64
9, 149267, Note_on_c, 7, 53, 76
9, 149289, Control_c, 7, 11, 94
9, 149331, Control_c, 7, 11, 88
9, 149372, Note_off_c, 7, 53, 64
9, 149372, Control_c, 7, 11, 82
9, 149443, Control_c, 7, 11, 100
9, 149523, Note_on_c, 7, 46, 85
9, 149613, Note_off_c, 7, 46, 64
9, 149635, Note_on_c, 7, 45, 65
9, 149725, Note_off_c, 7, 45, 64
9, 149755, Note_on_c, 7, 46, 81
9, 149758, Control_c, 7, 11, 92
9, 149797, Control_c, 7, 11, 88
9, 149837, Control_c, 7, 11, 84
9, 149876, Control_c, 7, 11, 80
9, 149918, Note_off_c, 7, 46, 64
9, 149933, Control_c, 7, 11, 100
9, 149994, Note_on_c, 7, 51, 72
9, 150097, Note_off_c, 7, 51, 64
9, 150227, Note_on_c, 7, 53, 84
9, 150336, Note_off_c, 7, 53, 64
9, 150467, Note_on_c, 7, 41, 61
9, 150566, Note_off_c, 7, 41, 64
9, 150696, Control_c, 7, 11, 88
9, 150714, Note_on_c, 7, 46, 88
9, 150745, Control_c, 7, 11, 93
9, 150793, Control_c, 7, 11, 100
9, 150884, Note_off_c, 7, 46, 64
9, 150953, Note_on_c, 7, 47, 84
9, 151078, Note_off_c, 7, 47, 64
9, 151191, Note_on_c, 7, 46, 81
9, 151294, Note_off_c, 7, 46, 64
9, 151435, Note_on_c, 7, 44, 81
9, 151539, Note_off_c, 7, 44, 64
9, 151662, Control_c, 7, 11, 92
9, 151686, Note_on_c, 7, 42, 71
9, 151704, Control_c, 7, 11, 95
9, 151746, Control_c, 7, 11, 99
9, 151788, Control_c, 7, 11, 103
9, 151829, Control_c, 7, 11, 108
9, 151907, Control_c, 7, 11, 98
9, 151946, Control_c, 7, 11, 92
9, 151959, Note_off_c, 7, 42, 64
9, 151986, Control_c, 7, 11, 87
9, 152025, Control_c, 7, 11, 82
9, 152075, Control_c, 7, 11, 100
9, 155525, Note_on_c, 7, 49, 74
9, 155646, Note_off_c, 7, 49, 64
9, 155752, Note_on_c, 7, 48, 59
9, 155855, Note_off_c, 7, 48, 64
9, 155993, Note_on_c, 7, 49, 74
9, 156091, Note_off_c, 7, 49, 64
9, 156229, Note_on_c, 7, 51, 74
9, 156311, Note_off_c, 7, 51, 64
9, 156450, Control_c, 7, 11, 92
9, 156468, Note_on_c, 7, 53, 65
9, 156494, Control_c, 7, 11, 94
9, 156538, Control_c, 7, 11, 97
9, 156582, Control_c, 7, 11, 100
9, 156624, Note_off_c, 7, 53, 64
9, 156707, Note_on_c, 7, 54, 74
9, 156816, Note_off_c, 7, 54, 64
9, 156944, Note_on_c, 7, 53, 66
9, 157066, Note_off_c, 7, 53, 64
9, 157195, Note_on_c, 7, 51, 74
9, 157290, Note_off_c, 7, 51, 64
9, 157439, Note_on_c, 7, 49, 74
9, 157465, Control_c, 7, 11, 96
9, 157507, Control_c, 7, 11, 90
9, 157549, Control_c, 7, 11, 85
9, 157590, Control_c, 7, 11, 80
9, 157606, Note_off_c, 7, 49, 64
9, 157633, Control_c, 7, 11, 100
9, 157672, Note_on_c, 7, 48, 66
9, 157771, Note_off_c, 7, 48, 64
9, 157914, Note_on_c, 7, 46, 74
9, 157986, Note_off_c, 7, 46, 64
9, 158153, Note_on_c, 7, 51, 74
9, 158232, Note_off_c, 7, 51, 64
9, 158368, Control_c, 7, 11, 84
9, 158395, Note_on_c, 7, 44, 74
9, 158410, Control_c, 7, 11, 86
9, 158452, Control_c, 7, 11, 89
9, 158494, Control_c, 7, 11, 91
9, 158536, Control_c, 7, 11, 94
9, 158578, Control_c, 7, 11, 97
9, 158619, Control_c, 7, 11, 100
9, 158662, Control_c, 7, 11, 92
9, 158690, Control_c, 7, 11, 84
9, 158710, Note_off_c, 7, 44, 64
9, 158753, Control_c, 7, 11, 100
9, 159117, Note_on_c, 7, 44, 74
9, 159199, Note_off_c, 7, 44, 64
9, 159354, Note_on_c, 7, 49, 74
9, 159513, Note_off_c, 7, 49, 64
9, 159595, Note_on_c, 7, 37, 74
9, 159699, Note_off_c, 7, 37, 64
9, 159828, Note_on_c, 7, 41, 66
9, 159924, Note_off_c, 7, 41, 64
9, 160070, Note_on_c, 7, 44, 76
9, 160137, Note_off_c, 7, 44, 64
9, 160307, Control_c, 7, 11, 88
9, 160315, Note_on_c, 7, 49, 74
9, 160346, Control_c, 7, 11, 91
9, 160385, Control_c, 7, 11, 95
9, 160424, Control_c, 7, 11, 98
9, 160463, Control_c, 7, 11, 102
9, 160502, Control_c, 7, 11, 106
9, 160559, Control_c, 7, 11, 94
9, 160608, Control_c, 7, 11, 82
9, 160625, Note_off_c, 7, 49, 64
9, 160671, Control_c, 7, 11, 100
9, 161038, Note_on_c, 7, 49, 74
9, 161109, Note_off_c, 7, 49, 64
9, 161274, Note_on_c, 7, 54, 74
9, 161438, Note_off_c, 7, 54, 64
9, 161514, Note_on_c, 7, 42, 74
9, 161590, Note_off_c, 7, 42, 64
9, 161753, Note_on_c, 7, 46, 74
9, 161817, Note_off_c, 7, 46, 64
9, 161989, Note_on_c, 7, 49, 79
9, 162050, Note_off_c, 7, 49, 64
9, 162211, Control_c, 7, 11, 84
9, 162228, Note_on_c, 7, 54, 75
9, 162254, Control_c, 7, 11, 89
9, 162297, Control_c, 7, 11, 95
9, 162341, Control_c, 7, 11, 101
9, 162384, Control_c, 7, 11, 107
9, 162427, Control_c, 7, 11, 114
9, 162477, Control_c, 7, 11, 102
9, 162513, Note_off_c, 7, 54, 64
9, 162540, Control_c, 7, 11, 86
9, 162610, Control_c, 7, 11, 100
9, 162956, Note_on_c, 7, 46, 74
9, 163042, Note_off_c, 7, 46, 64
9, 163193, Note_on_c, 7, 51, 74
9, 163205, Control_c, 7, 11, 96
9, 163244, Control_c, 7, 11, 91
9, 163284, Control_c, 7, 11, 86
9, 163323, Control_c, 7, 11, 82
9, 163378, Note_off_c, 7, 51, 64
9, 163387, Control_c, 7, 11, 100
9, 163428, Note_on_c, 7, 39, 74
9, 163517, Note_off_c, 7, 39, 64
9, 163667, Note_on_c, 7, 42, 74
9, 163745, Note_off_c, 7, 42, 64
9, 163908, Note_on_c, 7, 46, 74
9, 163977, Note_off_c, 7, 46, 64
9, 164129, Control_c, 7, 11, 84
9, 164153, Note_on_c, 7, 51, 74
9, 164168, Control_c, 7, 11, 89
9, 164207, Control_c, 7, 11, 95
9, 164246, Control_c, 7, 11, 101
9, 164285, Control_c, 7, 11, 107
9, 164324, Control_c, 7, 11, 114
9, 164374, Control_c, 7, 11, 98
9, 164444, Control_c, 7, 11, 84
9, 164446, Note_off_c, 7, 51, 64
9, 164549, Control_c, 7, 11, 100
9, 164876, Note_on_c, 7, 42, 74
9, 164971, Note_off_c, 7, 42, 64
9, 165113, Note_on_c, 7, 47, 74
9, 165297, Note_off_c, 7, 47, 64
9, 165351, Note_on_c, 7, 49, 74
9, 165465, Note_off_c, 7, 49, 64
9, 165591, Note_on_c, 7, 42, 83
9, 165705, Note_off_c, 7, 42, 64
9, 165827, Note_on_c, 7, 47, 74
9, 165927, Note_off_c, 7, 47, 64
9, 166070, Note_on_c, 7, 49, 88
9, 166103, Control_c, 7, 11, 96
9, 166149, Control_c, 7, 11, 91
9, 166196, Control_c, 7, 11, 86
9, 166240, Note_off_c, 7, 49, 64
9, 166242, Control_c, 7, 11, 82
9, 166292, Control_c, 7, 11, 100
9, 166313, Note_on_c, 7, 47, 91
9, 166376, Control_c, 7, 11, 96
9, 166418, Control_c, 7, 11, 90
9, 166440, Note_off_c, 7, 47, 64
9, 166459, Control_c, 7, 11, 84
9, 166481, Control_c, 7, 11, 100
9, 166552, Note_on_c, 7, 46, 98
9, 166558, Control_c, 7, 11, 96
9, 166600, Control_c, 7, 11, 91
9, 166642, Control_c, 7, 11, 86
9, 166679, Note_off_c, 7, 46, 64
9, 166683, Control_c, 7, 11, 82
9, 166754, Control_c, 7, 11, 100
9, 166791, Note_on_c, 7, 44, 88
9, 166824, Control_c, 7, 11, 96
9, 166862, Control_c, 7, 11, 91
9, 166898, Note_off_c, 7, 44, 64
9, 166900, Control_c, 7, 11, 86
9, 166985, Control_c, 7, 11, 100
9, 167034, Note_on_c, 7, 42, 118
9, 167215, Note_off_c, 7, 42, 64
9, 167272, Note_on_c, 7, 54, 81
9, 167344, Note_off_c, 7, 54, 64
9, 167507, Note_on_c, 7, 54, 93
9, 167582, Note_off_c, 7, 54, 64
9, 167746, Note_on_c, 7, 42, 93
9, 167828, Note_off_c, 7, 42, 64
9, 167988, Note_on_c, 7, 42, 106
9, 168142, Note_off_c, 7, 42, 64
9, 168228, Note_on_c, 7, 54, 81
9, 168296, Note_off_c, 7, 54, 64
9, 168468, Note_on_c, 7, 54, 93
9, 168545, Note_off_c, 7, 54, 64
9, 168709, Note_on_c, 7, 42, 88
9, 168787, Note_off_c, 7, 42, 64
9, 168942, Note_on_c, 7, 42, 96
9, 168959, Control_c, 7, 11, 96
9, 169003, Control_c, 7, 11, 90
9, 169047, Control_c, 7, 11, 85
9, 169091, Control_c, 7, 11, 80
9, 169097, Note_off_c, 7, 42, 64
9, 169141, Control_c, 7, 11, 100
9, 169202, Note_on_c, 7, 54, 91
9, 169292, Note_off_c, 7, 54, 64
9, 169315, Note_on_c, 7, 53, 74
9, 169405, Note_off_c, 7, 53, 64
9, 169442, Note_on_c, 7, 51, 87
9, 169532, Note_off_c, 7, 51, 64
9, 169667, Note_on_c, 7, 56, 93
9, 169767, Note_off_c, 7, 56, 64
9, 169914, Note_on_c, 7, 61, 81
9, 170029, Note_off_c, 7, 61, 64
9, 170155, Note_on_c, 7, 59, 81
9, 170258, Note_off_c, 7, 59, 64
9, 170396, Note_on_c, 7, 58, 93
9, 170507, Note_off_c, 7, 58, 64
9, 170634, Note_on_c, 7, 56, 88
9, 170734, Note_off_c, 7, 56, 64
9, 170877, Note_on_c, 7, 54, 94
9, 171028, Note_off_c, 7, 54, 64
9, 171118, Note_on_c, 7, 52, 87
9, 171211, Note_off_c, 7, 52, 64
9, 171355, Note_on_c, 7, 51, 96
9, 171456, Note_off_c, 7, 51, 64
9, 171596, Note_on_c, 7, 49, 94
9, 171689, Note_off_c, 7, 49, 64
9, 171836, Note_on_c, 7, 59, 106
9, 171993, Note_off_c, 7, 59, 64
9, 172076, Note_on_c, 7, 57, 85
9, 172167, Note_off_c, 7, 57, 64
9, 172312, Note_on_c, 7, 56, 89
9, 172402, Note_off_c, 7, 56, 64
9, 172555, Note_on_c, 7, 54, 98
9, 172636, Note_off_c, 7, 54, 64
9, 172796, Note_on_c, 7, 53, 89
9, 172919, Note_off_c, 7, 53, 64
9, 173032, Note_on_c, 7, 51, 81
9, 173133, Note_off_c, 7, 51, 64
9, 173274, Note_on_c, 7, 49, 92
9, 173386, Note_off_c, 7, 49, 64
9, 173510, Note_on_c, 7, 48, 71
9, 173603, Note_off_c, 7, 48, 64
9, 173757, Note_on_c, 7, 58, 94
9, 173886, Note_off_c, 7, 58, 64
9, 173998, Note_on_c, 7, 56, 81
9, 174098, Note_off_c, 7, 56, 64
9, 174239, Note_on_c, 7, 54, 92
9, 174358, Note_off_c, 7, 54, 64
9, 174478, Note_on_c, 7, 53, 73
9, 174565, Note_off_c, 7, 53, 64
9, 174715, Note_on_c, 7, 51, 92
9, 174864, Note_off_c, 7, 51, 64
9, 174953, Note_on_c, 7, 49, 81
9, 175045, Note_off_c, 7, 49, 64
9, 175191, Note_on_c, 7, 47, 92
9, 175304, Note_off_c, 7, 47, 64
9, 175430, Note_on_c, 7, 46, 81
9, 175522, Note_off_c, 7, 46, 64
9, 175670, Note_on_c, 7, 44, 93
9, 175815, Note_off_c, 7, 44, 64
9, 175910, Note_on_c, 7, 42, 81
9, 176008, Note_off_c, 7, 42, 64
9, 176150, Note_on_c, 7, 40, 87
9, 176245, Note_off_c, 7, 40, 64
9, 176392, Note_on_c, 7, 39, 72
9, 176470, Note_off_c, 7, 39, 64
9, 176610, Control_c, 7, 11, 90
9, 176632, Note_on_c, 7, 37, 47
9, 176649, Control_c, 7, 11, 93
9, 176688, Control_c, 7, 11, 97
9, 176727, Control_c, 7, 11, 101
9, 176766, Control_c, 7, 11, 105
9, 176805, Control_c, 7, 11, 110
9, 176883, Control_c, 7, 11, 100
9, 176960, Control_c, 7, 11, 86
9, 176962, Note_off_c, 7, 37, 64
9, 177100, Control_c, 7, 11, 100
9, 178528, Control_c, 7, 11, 82
9, 178566, Note_on_c, 7, 38, 59
9, 178567, Control_c, 7, 11, 87
9, 178606, Control_c, 7, 11, 92
9, 178645, Control_c, 7, 11, 97
9, 178684, Control_c, 7, 11, 102
9, 178723, Control_c, 7, 11, 108
9, 178780, Control_c, 7, 11, 96
9, 178843, Control_c, 7, 11, 84
9, 178870, Note_off_c, 7, 38, 64
9, 178976, Control_c, 7, 11, 100
9, 180460, Control_c, 7, 11, 90
9, 180464, Note_on_c, 7, 39, 61
9, 180499, Control_c, 7, 11, 94
9, 180538, Control_c, 7, 11, 99
9, 180577, Control_c, 7, 11, 104
9, 180616, Control_c, 7, 11, 109
9, 180655, Control_c, 7, 11, 114
9, 180698, Control_c, 7, 11, 98
9, 180745, Note_off_c, 7, 39, 64
9, 180789, Control_c, 7, 11, 86
9, 180873, Control_c, 7, 11, 100
9, 182357, Control_c, 7, 11, 84
9, 182393, Note_on_c, 7, 39, 61
9, 182399, Control_c, 7, 11, 89
9, 182441, Control_c, 7, 11, 95
9, 182483, Control_c, 7, 11, 101
9, 182525, Control_c, 7, 11, 107
9, 182566, Control_c, 7, 11, 114
9, 182651, Control_c, 7, 11, 98
9, 182708, Note_off_c, 7, 39, 64
9, 182728, Control_c, 7, 11, 86
9, 182812, Control_c, 7, 11, 100
9, 184275, Control_c, 7, 11, 80
9, 184313, Note_on_c, 7, 39, 59
9, 184315, Control_c, 7, 11, 85
9, 184356, Control_c, 7, 11, 91
9, 184396, Control_c, 7, 11, 97
9, 184437, Control_c, 7, 11, 103
9, 184477, Control_c, 7, 11, 110
9, 184541, Control_c, 7, 11, 98
9, 184625, Control_c, 7, 11, 84
9, 184681, Note_off_c, 7, 39, 64
9, 184751, Control_c, 7, 11, 100
9, 186151, Control_c, 7, 11, 80
9, 186200, Control_c, 7, 11, 88
9, 186238, Note_on_c, 7, 39, 61
9, 186239, Control_c, 7, 11, 91
9, 186278, Control_c, 7, 11, 95
9, 186317, Control_c, 7, 11, 98
9, 186356, Control_c, 7, 11, 102
9, 186395, Control_c, 7, 11, 106
9, 186452, Control_c, 7, 11, 98
9, 186492, Control_c, 7, 11, 94
9, 186532, Control_c, 7, 11, 90
9, 186548, Note_off_c, 7, 39, 64
9, 186572, Control_c, 7, 11, 86
9, 186612, Control_c, 7, 11, 82
9, 186655, Control_c, 7, 11, 100
9, 188160, Note_on_c, 7, 44, 121
9, 188195, Control_c, 7, 11, 96
9, 188237, Control_c, 7, 11, 91
9, 188279, Control_c, 7, 11, 87
9, 188321, Control_c, 7, 11, 82
9, 188363, Control_c, 7, 11, 78
9, 188388, Note_off_c, 7, 44, 64
9, 188404, Control_c, 7, 11, 74
9, 188587, Control_c, 7, 11, 100
9, 189834, Note_on_c, 7, 56, 87
9, 189914, Note_off_c, 7, 56, 64
9, 190080, Note_on_c, 7, 42, 120
9, 190260, Note_off_c, 7, 42, 64
9, 191752, Note_on_c, 7, 54, 92
9, 191801, Note_off_c, 7, 54, 64
9, 192000, Note_on_c, 7, 40, 120
9, 192180, Note_off_c, 7, 40, 64
9, 193676, Note_on_c, 7, 52, 85
9, 193735, Note_off_c, 7, 52, 64
9, 193920, Note_on_c, 7, 39, 118
9, 194068, Note_off_c, 7, 39, 64
9, 194168, Note_on_c, 7, 51, 82
9, 194228, Note_off_c, 7, 51, 64
9, 194397, Note_on_c, 7, 51, 98
9, 194457, Note_off_c, 7, 51, 64
9, 194631, Note_on_c, 7, 39, 81
9, 194702, Note_off_c, 7, 39, 64
9, 194872, Note_on_c, 7, 39, 106
9, 195043, Note_off_c, 7, 39, 64
9, 195114, Note_on_c, 7, 51, 85
9, 195187, Note_off_c, 7, 51, 64
9, 195355, Note_on_c, 7, 51, 101
9, 195423, Note_off_c, 7, 51, 64
9, 195595, Note_on_c, 7, 49, 81
9, 195668, Note_off_c, 7, 49, 64
9, 195831, Note_on_c, 7, 47, 106
9, 195967, Note_off_c, 7, 47, 64
9, 196071, Note_on_c, 7, 49, 98
9, 196172, Note_off_c, 7, 49, 64
9, 196312, Note_on_c, 7, 51, 112
9, 196413, Note_off_c, 7, 51, 64
9, 196555, Note_on_c, 7, 39, 106
9, 196646, Note_off_c, 7, 39, 64
9, 196756, Control_c, 7, 11, 82
9, 196795, Note_on_c, 7, 44, 109
9, 196798, Control_c, 7, 11, 88
9, 196840, Control_c, 7, 11, 95
9, 196882, Control_c, 7, 11, 102
9, 196924, Control_c, 7, 11, 109
9, 196965, Control_c, 7, 11, 116
9, 197022, Control_c, 7, 11, 104
9, 197092, Control_c, 7, 11, 86
9, 197094, Note_off_c, 7, 44, 64
9, 197218, Control_c, 7, 11, 100
9, 197523, Note_on_c, 7, 56, 112
9, 197613, Note_off_c, 7, 56, 64
9, 197635, Note_on_c, 7, 55, 85
9, 197725, Note_off_c, 7, 55, 64
9, 197729, Control_c, 7, 11, 96
9, 197748, Note_on_c, 7, 56, 91
9, 197773, Control_c, 7, 11, 91
9, 197817, Control_c, 7, 11, 86
9, 197861, Control_c, 7, 11, 82
9, 197883, Note_off_c, 7, 56, 64
9, 197904, Control_c, 7, 11, 100
9, 198002, Note_on_c, 7, 51, 109
9, 198092, Note_off_c, 7, 51, 64
9, 198115, Note_on_c, 7, 49, 81
9, 198205, Note_off_c, 7, 49, 64
9, 198223, Note_on_c, 7, 51, 74
9, 198247, Control_c, 7, 11, 96
9, 198299, Control_c, 7, 11, 90
9, 198351, Note_off_c, 7, 51, 64
9, 198351, Control_c, 7, 11, 84
9, 198408, Control_c, 7, 11, 100
9, 198482, Note_on_c, 7, 56, 109
9, 198572, Note_off_c, 7, 56, 64
9, 198595, Note_on_c, 7, 55, 85
9, 198685, Note_off_c, 7, 55, 64
9, 198701, Note_on_c, 7, 56, 78
9, 198730, Control_c, 7, 11, 94
9, 198786, Control_c, 7, 11, 86
9, 198841, Control_c, 7, 11, 78
9, 198844, Note_off_c, 7, 56, 64
9, 198933, Control_c, 7, 11, 100
9, 198962, Note_on_c, 7, 47, 94
9, 199052, Note_off_c, 7, 47, 64
9, 199075, Note_on_c, 7, 46, 81
9, 199165, Note_off_c, 7, 46, 64
9, 199183, Note_on_c, 7, 47, 82
9, 199199, Control_c, 7, 11, 94
9, 199238, Control_c, 7, 11, 88
9, 199278, Control_c, 7, 11, 83
9, 199317, Control_c, 7, 11, 78
9, 199335, Note_off_c, 7, 47, 64
9, 199388, Control_c, 7, 11, 100
9, 199442, Note_on_c, 7, 56, 101
9, 199532, Note_off_c, 7, 56, 64
9, 199555, Note_on_c, 7, 55, 93
9, 199645, Note_off_c, 7, 55, 64
9, 199666, Note_on_c, 7, 56, 92
9, 199689, Control_c, 7, 11, 94
9, 199741, Control_c, 7, 11, 87
9, 199793, Control_c, 7, 11, 80
9, 199817, Note_off_c, 7, 56, 64
9, 199878, Control_c, 7, 11, 100
9, 199923, Note_on_c, 7, 44, 106
9, 200013, Note_off_c, 7, 44, 64
9, 200035, Note_on_c, 7, 46, 98
9, 200125, Note_off_c, 7, 46, 64
9, 200144, Note_on_c, 7, 48, 93
9, 200274, Note_off_c, 7, 48, 64
9, 200390, Note_on_c, 7, 50, 97
9, 200499, Note_off_c, 7, 50, 64
9, 200629, Note_on_c, 7, 51, 106
9, 200763, Note_off_c, 7, 51, 64
9, 200875, Note_on_c, 7, 39, 115
9, 200963, Note_off_c, 7, 39, 64
9, 201363, Note_on_c, 7, 51, 98
9, 201453, Note_off_c, 7, 51, 64
9, 201476, Note_on_c, 7, 50, 75
9, 201566, Note_off_c, 7, 50, 64
9, 201593, Control_c, 7, 11, 98
9, 201603, Note_on_c, 7, 51, 94
9, 201635, Control_c, 7, 11, 94
9, 201677, Control_c, 7, 11, 90
9, 201718, Control_c, 7, 11, 86
9, 201739, Note_off_c, 7, 51, 64
9, 201782, Control_c, 7, 11, 100
9, 201843, Note_on_c, 7, 46, 101
9, 201933, Note_off_c, 7, 46, 64
9, 201955, Note_on_c, 7, 44, 88
9, 202045, Note_off_c, 7, 44, 64
9, 202074, Note_on_c, 7, 46, 84
9, 202076, Control_c, 7, 11, 96
9, 202115, Control_c, 7, 11, 90
9, 202155, Control_c, 7, 11, 85
9, 202187, Note_off_c, 7, 46, 64
9, 202194, Control_c, 7, 11, 80
9, 202251, Control_c, 7, 11, 100
9, 202323, Note_on_c, 7, 51, 109
9, 202413, Note_off_c, 7, 51, 64
9, 202435, Note_on_c, 7, 50, 71
9, 202525, Note_off_c, 7, 50, 64
9, 202545, Control_c, 7, 11, 94
9, 202546, Note_on_c, 7, 51, 81
9, 202589, Control_c, 7, 11, 89
9, 202633, Control_c, 7, 11, 84
9, 202673, Note_off_c, 7, 51, 64
9, 202677, Control_c, 7, 11, 80
9, 202741, Control_c, 7, 11, 100
9, 202803, Note_on_c, 7, 42, 115
9, 202893, Note_off_c, 7, 42, 64
9, 202915, Note_on_c, 7, 41, 75
9, 203005, Note_off_c, 7, 41, 64
9, 203021, Control_c, 7, 11, 96
9, 203026, Note_on_c, 7, 42, 72
9, 203067, Control_c, 7, 11, 92
9, 203114, Control_c, 7, 11, 89
9, 203160, Control_c, 7, 11, 86
9, 203174, Note_off_c, 7, 42, 64
9, 203224, Control_c, 7, 11, 100
9, 203283, Note_on_c, 7, 51, 112
9, 203373, Note_off_c, 7, 51, 64
9, 203395, Note_on_c, 7, 50, 93
9, 203484, Note_off_c, 7, 50, 64
9, 203511, Control_c, 7, 11, 98
9, 203513, Note_on_c, 7, 51, 80
9, 203549, Control_c, 7, 11, 92
9, 203588, Control_c, 7, 11, 87
9, 203626, Control_c, 7, 11, 81
9, 203646, Note_off_c, 7, 51, 64
9, 203664, Control_c, 7, 11, 76
9, 203693, Control_c, 7, 11, 100
9, 203763, Note_on_c, 7, 39, 101
9, 203853, Note_off_c, 7, 39, 64
9, 203875, Note_on_c, 7, 41, 75
9, 203965, Note_off_c, 7, 41, 64
9, 203993, Note_on_c, 7, 42, 87
9, 204001, Control_c, 7, 11, 96
9, 204045, Control_c, 7, 11, 91
9, 204089, Control_c, 7, 11, 86
9, 204133, Control_c, 7, 11, 82
9, 204142, Note_off_c, 7, 42, 64
9, 204190, Control_c, 7, 11, 100
9, 204235, Note_on_c, 7, 44, 102
9, 204345, Note_off_c, 7, 44, 64
9, 204479, Note_on_c, 7, 46, 118
9, 204581, Note_off_c, 7, 46, 64
9, 204596, Note_on_c, 7, 44, 96
9, 204695, Note_off_c, 7, 44, 64
9, 204716, Note_on_c, 7, 46, 115
9, 204789, Note_off_c, 7, 46, 64
9, 204831, Note_on_c, 7, 47, 112
9, 204912, Note_off_c, 7, 47, 64
9, 204953, Note_on_c, 7, 46, 112
9, 205035, Note_off_c, 7, 46, 64
9, 205069, Note_on_c, 7, 47, 106
9, 205145, Note_off_c, 7, 47, 64
9, 205191, Note_on_c, 7, 46, 106
9, 205260, Note_off_c, 7, 46, 64
9, 205309, Note_on_c, 7, 44, 102
9, 205387, Note_off_c, 7, 44, 64
9, 205429, Control_c, 7, 11, 82
9, 205435, Note_on_c, 7, 42, 115
9, 205472, Control_c, 7, 11, 87
9, 205515, Control_c, 7, 11, 93
9, 205558, Control_c, 7, 11, 98
9, 205601, Control_c, 7, 11, 104
9, 205644, Control_c, 7, 11, 110
9, 205687, Control_c, 7, 11, 116
9, 205737, Control_c, 7, 11, 104
9, 205814, Control_c, 7, 11, 92
9, 205835, Note_off_c, 7, 42, 64
9, 205877, Control_c, 7, 11, 76
9, 205982, Control_c, 7, 11, 100
9, 206159, Note_on_c, 7, 49, 115
9, 206266, Note_off_c, 7, 49, 64
9, 206403, Note_on_c, 7, 54, 109
9, 206517, Note_on_c, 7, 53, 91
9, 206522, Note_off_c, 7, 54, 64
9, 206634, Note_off_c, 7, 53, 64
9, 206641, Note_on_c, 7, 54, 87
9, 206728, Note_off_c, 7, 54, 64
9, 206761, Note_on_c, 7, 56, 102
9, 206854, Note_off_c, 7, 56, 64
9, 206882, Note_on_c, 7, 54, 106
9, 206986, Note_off_c, 7, 54, 64
9, 206995, Note_on_c, 7, 58, 91
9, 207084, Note_off_c, 7, 58, 64
9, 207116, Note_on_c, 7, 56, 118
9, 207204, Note_off_c, 7, 56, 64
9, 207237, Note_on_c, 7, 59, 109
9, 207306, Note_off_c, 7, 59, 64
9, 207357, Note_on_c, 7, 58, 112
9, 207471, Note_off_c, 7, 58, 64
9, 207475, Note_on_c, 7, 59, 96
9, 207561, Note_off_c, 7, 59, 64
9, 207595, Note_on_c, 7, 58, 98
9, 207683, Note_off_c, 7, 58, 64
9, 207709, Note_on_c, 7, 56, 101
9, 207792, Note_off_c, 7, 56, 64
9, 207830, Note_on_c, 7, 54, 115
9, 207907, Note_off_c, 7, 54, 64
9, 207946, Note_on_c, 7, 58, 101
9, 208042, Note_off_c, 7, 58, 64
9, 208065, Note_on_c, 7, 56, 101
9, 208168, Note_off_c, 7, 56, 64
9, 208185, Note_on_c, 7, 54, 92
9, 208270, Note_off_c, 7, 54, 64
9, 208308, Note_on_c, 7, 53, 102
9, 208395, Note_off_c, 7, 53, 64
9, 208429, Note_on_c, 7, 58, 113
9, 208514, Note_off_c, 7, 58, 64
9, 208548, Note_on_c, 7, 56, 87
9, 208637, Note_off_c, 7, 56, 64
9, 208667, Note_on_c, 7, 54, 93
9, 208751, Note_off_c, 7, 54, 64
9, 208790, Note_on_c, 7, 53, 103
9, 208887, Note_off_c, 7, 53, 64
9, 208912, Note_on_c, 7, 54, 81
9, 209005, Note_off_c, 7, 54, 64
9, 209029, Note_on_c, 7, 53, 89
9, 209095, Note_off_c, 7, 53, 64
9, 209146, Note_on_c, 7, 51, 69
9, 209223, Note_off_c, 7, 51, 64
9, 209272, Control_c, 7, 11, 90
9, 209274, Note_on_c, 7, 49, 69
9, 209318, Control_c, 7, 11, 95
9, 209365, Control_c, 7, 11, 100
9, 209411, Control_c, 7, 11, 106
9, 209468, Control_c, 7, 11, 92
9, 209502, Note_off_c, 7, 49, 64
9, 209531, Control_c, 7, 11, 70
9, 209580, Control_c, 7, 11, 100
9, 210238, Note_on_c, 7, 49, 51
9, 210280, Control_c, 7, 11, 96
9, 210323, Control_c, 7, 11, 92
9, 210367, Control_c, 7, 11, 88
9, 210411, Control_c, 7, 11, 84
9, 210454, Control_c, 7, 11, 80
9, 210484, Note_off_c, 7, 49, 64
9, 210609, Control_c, 7, 11, 100
9, 211197, Note_on_c, 7, 42, 81
9, 211253, Control_c, 7, 11, 98
9, 211292, Control_c, 7, 11, 93
9, 211332, Control_c, 7, 11, 88
9, 211372, Control_c, 7, 11, 83
9, 211411, Control_c, 7, 11, 78
9, 211444, Note_off_c, 7, 42, 64
9, 211451, Control_c, 7, 11, 73
9, 211490, Control_c, 7, 11, 68
9, 211596, Control_c, 7, 11, 100
9, 212157, Note_on_c, 7, 42, 51
9, 212205, Control_c, 7, 11, 96
9, 212248, Control_c, 7, 11, 92
9, 212291, Control_c, 7, 11, 88
9, 212335, Control_c, 7, 11, 85
9, 212378, Control_c, 7, 11, 81
9, 212418, Note_off_c, 7, 42, 64
9, 212421, Control_c, 7, 11, 78
9, 212555, Control_c, 7, 11, 100
9, 213117, Note_on_c, 7, 43, 63
9, 213157, Control_c, 7, 11, 96
9, 213200, Control_c, 7, 11, 92
9, 213243, Control_c, 7, 11, 88
9, 213286, Control_c, 7, 11, 84
9, 213329, Control_c, 7, 11, 80
9, 213372, Control_c, 7, 11, 76
9, 213396, Note_off_c, 7, 43, 64
9, 213415, Control_c, 7, 11, 72
9, 213528, Control_c, 7, 11, 100
9, 214073, Note_on_c, 7, 43, 48
9, 214144, Control_c, 7, 11, 96
9, 214187, Control_c, 7, 11, 91
9, 214231, Control_c, 7, 11, 87
9, 214275, Control_c, 7, 11, 82
9, 214318, Control_c, 7, 11, 78
9, 214348, Note_off_c, 7, 43, 64
9, 214487, Control_c, 7, 11, 100
9, 215041, Note_on_c, 7, 44, 81
9, 215075, Control_c, 7, 11, 96
9, 215118, Control_c, 7, 11, 92
9, 215161, Control_c, 7, 11, 88
9, 215205, Control_c, 7, 11, 85
9, 215248, Control_c, 7, 11, 81
9, 215291, Control_c, 7, 11, 78
9, 215323, Note_off_c, 7, 44, 64
9, 215453, Control_c, 7, 11, 100
9, 215997, Note_on_c, 7, 44, 59
9, 216055, Control_c, 7, 11, 96
9, 216092, Control_c, 7, 11, 92
9, 216130, Control_c, 7, 11, 88
9, 216168, Control_c, 7, 11, 85
9, 216206, Control_c, 7, 11, 81
9, 216243, Control_c, 7, 11, 78
9, 216289, Note_off_c, 7, 44, 64
9, 216440, Control_c, 7, 11, 100
9, 216956, Note_on_c, 7, 41, 71
9, 217007, Control_c, 7, 11, 96
9, 217050, Control_c, 7, 11, 90
9, 217094, Control_c, 7, 11, 84
9, 217138, Control_c, 7, 11, 78
9, 217181, Control_c, 7, 11, 72
9, 217251, Note_off_c, 7, 41, 64
9, 217364, Control_c, 7, 11, 100
9, 217912, Note_on_c, 7, 41, 52
9, 217973, Control_c, 7, 11, 94
9, 218015, Control_c, 7, 11, 90
9, 218057, Control_c, 7, 11, 87
9, 218099, Control_c, 7, 11, 83
9, 218141, Control_c, 7, 11, 80
9, 218183, Control_c, 7, 11, 76
9, 218225, Control_c, 7, 11, 73
9, 218266, Control_c, 7, 11, 70
9, 218304, Note_off_c, 7, 41, 64
9, 218358, Control_c, 7, 11, 100
9, 218881, Note_on_c, 7, 40, 81
9, 218925, Control_c, 7, 11, 96
9, 218965, Control_c, 7, 11, 92
9, 219006, Control_c, 7, 11, 88
9, 219046, Control_c, 7, 11, 84
9, 219087, Control_c, 7, 11, 80
9, 219127, Control_c, 7, 11, 76
9, 219196, Note_off_c, 7, 40, 64
9, 219303, Control_c, 7, 11, 100
9, 219839, Note_on_c, 7, 40, 52
9, 219877, Control_c, 7, 11, 98
9, 219916, Control_c, 7, 11, 94
9, 219955, Control_c, 7, 11, 91
9, 219994, Control_c, 7, 11, 87
9, 220033, Control_c, 7, 11, 84
9, 220072, Control_c, 7, 11, 80
9, 220111, Control_c, 7, 11, 77
9, 220149, Control_c, 7, 11, 74
9, 220176, Note_off_c, 7, 40, 64
9, 220269, Control_c, 7, 11, 100
9, 220800, Note_on_c, 7, 36, 112
9, 220919, Note_on_c, 7, 37, 81
9, 220926, Note_off_c, 7, 36, 64
9, 221021, Note_off_c, 7, 37, 64
9, 221036, Note_on_c, 7, 36, 67
9, 221074, Note_off_c, 7, 36, 64
9, 221167, Note_on_c, 7, 57, 117
9, 221249, Note_off_c, 7, 57, 64
9, 221286, Note_on_c, 7, 54, 109
9, 221389, Note_off_c, 7, 54, 64
9, 221402, Note_on_c, 7, 51, 81
9, 221478, Note_off_c, 7, 51, 64
9, 221511, Note_on_c, 7, 48, 69
9, 221587, Note_off_c, 7, 48, 64
9, 221633, Note_on_c, 7, 42, 81
9, 221701, Note_off_c, 7, 42, 64
9, 221761, Note_on_c, 7, 36, 121
9, 221878, Note_on_c, 7, 37, 81
9, 221886, Note_off_c, 7, 36, 64
9, 221999, Note_on_c, 7, 36, 69
9, 222003, Note_off_c, 7, 37, 64
9, 222039, Note_off_c, 7, 36, 64
9, 222117, Note_on_c, 7, 57, 107
9, 222184, Note_off_c, 7, 57, 64
9, 222234, Note_on_c, 7, 54, 115
9, 222336, Note_off_c, 7, 54, 64
9, 222352, Note_on_c, 7, 51, 84
9, 222435, Note_off_c, 7, 51, 64
9, 222464, Note_on_c, 7, 48, 67
9, 222537, Note_off_c, 7, 48, 64
9, 222587, Note_on_c, 7, 42, 81
9, 222682, Note_off_c, 7, 42, 64
9, 222721, Note_on_c, 7, 37, 106
9, 222841, Note_on_c, 7, 38, 67
9, 222870, Note_off_c, 7, 37, 64
9, 222945, Note_off_c, 7, 38, 64
9, 222958, Note_on_c, 7, 37, 63
9, 223003, Note_off_c, 7, 37, 64
9, 223074, Note_on_c, 7, 57, 105
9, 223145, Note_off_c, 7, 57, 64
9, 223195, Note_on_c, 7, 54, 109
9, 223294, Note_off_c, 7, 54, 64
9, 223312, Note_on_c, 7, 49, 85
9, 223387, Note_off_c, 7, 49, 64
9, 223430, Note_on_c, 7, 45, 78
9, 223502, Note_off_c, 7, 45, 64
9, 223546, Note_on_c, 7, 42, 80
9, 223633, Note_off_c, 7, 42, 64
9, 223675, Note_on_c, 7, 37, 112
9, 223793, Note_on_c, 7, 38, 69
9, 223804, Note_off_c, 7, 37, 64
9, 223903, Note_off_c, 7, 38, 64
9, 223911, Note_on_c, 7, 37, 67
9, 223947, Note_off_c, 7, 37, 64
9, 224036, Note_on_c, 7, 57, 109
9, 224100, Note_off_c, 7, 57, 64
9, 224157, Note_on_c, 7, 54, 113
9, 224260, Note_off_c, 7, 54, 64
9, 224273, Note_on_c, 7, 49, 85
9, 224342, Note_off_c, 7, 49, 64
9, 224386, Note_on_c, 7, 45, 71
9, 224462, Note_off_c, 7, 45, 64
9, 224505, Note_on_c, 7, 42, 81
9, 224592, Note_off_c, 7, 42, 64
9, 224644, Note_on_c, 7, 37, 118
9, 224757, Note_on_c, 7, 38, 80
9, 224769, Note_off_c, 7, 37, 64
9, 224877, Note_on_c, 7, 37, 69
9, 224883, Note_off_c, 7, 38, 64
9, 224921, Note_off_c, 7, 37, 64
9, 224998, Note_on_c, 7, 60, 102
9, 225068, Note_off_c, 7, 60, 64
9, 225118, Note_on_c, 7, 57, 117
9, 225206, Note_off_c, 7, 57, 64
9, 225233, Note_on_c, 7, 54, 98
9, 225306, Note_off_c, 7, 54, 64
9, 225353, Note_on_c, 7, 51, 81
9, 225431, Note_off_c, 7, 51, 64
9, 225467, Note_on_c, 7, 48, 69
9, 225534, Note_off_c, 7, 48, 64
9, 225595, Note_on_c, 7, 37, 118
9, 225714, Note_on_c, 7, 38, 76
9, 225733, Note_off_c, 7, 37, 64
9, 225822, Note_off_c, 7, 38, 64
9, 225833, Note_on_c, 7, 37, 69
9, 225873, Note_off_c, 7, 37, 64
9, 225951, Note_on_c, 7, 60, 102
9, 226019, Note_off_c, 7, 60, 64
9, 226071, Note_on_c, 7, 57, 117
9, 226143, Note_off_c, 7, 57, 64
9, 226188, Note_on_c, 7, 54, 96
9, 226261, Note_off_c, 7, 54, 64
9, 226299, Note_on_c, 7, 51, 81
9, 226366, Note_off_c, 7, 51, 64
9, 226411, Note_on_c, 7, 48, 99
9, 226484, Note_off_c, 7, 48, 64
9, 226556, Note_on_c, 7, 37, 106
9, 226674, Note_on_c, 7, 38, 67
9, 226697, Note_off_c, 7, 37, 64
9, 226765, Note_off_c, 7, 38, 64
9, 226792, Note_on_c, 7, 37, 57
9, 226830, Note_off_c, 7, 37, 64
9, 226910, Note_on_c, 7, 61, 93
9, 226987, Note_off_c, 7, 61, 64
9, 227030, Note_on_c, 7, 57, 107
9, 227119, Note_off_c, 7, 57, 64
9, 227147, Note_on_c, 7, 54, 98
9, 227232, Note_off_c, 7, 54, 64
9, 227259, Note_on_c, 7, 49, 81
9, 227313, Note_off_c, 7, 49, 64
9, 227355, Note_on_c, 7, 45, 63
9, 227421, Note_off_c, 7, 45, 64
9, 227517, Note_on_c, 7, 37, 106
9, 227634, Note_on_c, 7, 38, 75
9, 227652, Note_off_c, 7, 37, 64
9, 227745, Note_off_c, 7, 38, 64
9, 227757, Note_on_c, 7, 37, 63
9, 227801, Note_off_c, 7, 37, 64
9, 227874, Note_on_c, 7, 61, 89
9, 227940, Note_off_c, 7, 61, 64
9, 227997, Note_on_c, 7, 57, 117
9, 228088, Note_off_c, 7, 57, 64
9, 228113, Note_on_c, 7, 54, 93
9, 228182, Note_off_c, 7, 54, 64
9, 228227, Note_on_c, 7, 49, 81
9, 228290, Note_off_c, 7, 49, 64
9, 228346, Note_on_c, 7, 45, 99
9, 228418, Note_off_c, 7, 45, 64
9, 228471, Note_on_c, 7, 37, 118
9, 228589, Note_on_c, 7, 38, 65
9, 228607, Note_off_c, 7, 37, 64
9, 228688, Note_off_c, 7, 38, 64
9, 228698, Note_on_c, 7, 37, 55
9, 228759, Note_off_c, 7, 37, 64
9, 228829, Note_on_c, 7, 62, 117
9, 228916, Note_off_c, 7, 62, 64
9, 228951, Note_on_c, 7, 59, 115
9, 229039, Note_off_c, 7, 59, 64
9, 229069, Note_on_c, 7, 56, 106
9, 229162, Note_off_c, 7, 56, 64
9, 229182, Note_on_c, 7, 53, 102
9, 229246, Note_off_c, 7, 53, 64
9, 229287, Note_on_c, 7, 49, 109
9, 229365, Note_off_c, 7, 49, 64
9, 229435, Note_on_c, 7, 37, 115
9, 229554, Note_on_c, 7, 38, 69
9, 229582, Note_off_c, 7, 37, 64
9, 229654, Note_off_c, 7, 38, 64
9, 229673, Note_on_c, 7, 37, 57
9, 229722, Note_off_c, 7, 37, 64
9, 229793, Note_on_c, 7, 62, 112
9, 229863, Note_off_c, 7, 62, 64
9, 229913, Note_on_c, 7, 59, 112
9, 229993, Note_off_c, 7, 59, 64
9, 230033, Note_on_c, 7, 56, 101
9, 230109, Note_off_c, 7, 56, 64
9, 230147, Note_on_c, 7, 53, 97
9, 230226, Note_off_c, 7, 53, 64
9, 230265, Note_on_c, 7, 49, 94
9, 230343, Note_off_c, 7, 49, 64
9, 230399, Note_on_c, 7, 42, 120
9, 230412, Control_c, 7, 11, 96
9, 230450, Control_c, 7, 11, 90
9, 230489, Control_c, 7, 11, 84
9, 230527, Control_c, 7, 11, 78
9, 230565, Control_c, 7, 11, 72
9, 230620, Note_off_c, 7, 42, 64
9, 230685, Control_c, 7, 11, 100
9, 232084, Note_on_c, 7, 54, 97
9, 232135, Note_off_c, 7, 54, 64
9, 232288, Control_c, 7, 11, 90
9, 232320, Note_on_c, 7, 40, 118
9, 232331, Control_c, 7, 11, 92
9, 232375, Control_c, 7, 11, 94
9, 232419, Control_c, 7, 11, 97
9, 232462, Control_c, 7, 11, 100
9, 232518, Note_off_c, 7, 40, 64
9, 233996, Note_on_c, 7, 52, 102
9, 234064, Note_off_c, 7, 52, 64
9, 234227, Control_c, 7, 11, 84
9, 234240, Note_on_c, 7, 38, 121
9, 234269, Control_c, 7, 11, 87
9, 234311, Control_c, 7, 11, 90
9, 234353, Control_c, 7, 11, 93
9, 234395, Control_c, 7, 11, 96
9, 234436, Control_c, 7, 11, 100
9, 234449, Note_off_c, 7, 38, 64
9, 235925, Note_on_c, 7, 50, 112
9, 235975, Note_off_c, 7, 50, 64
9, 236117, Control_c, 7, 11, 86
9, 236160, Note_on_c, 7, 37, 121
9, 236160, Control_c, 7, 11, 89
9, 236204, Control_c, 7, 11, 92
9, 236248, Control_c, 7, 11, 96
9, 236291, Control_c, 7, 11, 100
9, 236355, Control_c, 7, 11, 86
9, 236396, Note_off_c, 7, 37, 64
9, 236488, Control_c, 7, 11, 100
9, 236872, Note_on_c, 7, 49, 103
9, 236979, Note_off_c, 7, 49, 64
9, 237076, Control_c, 7, 11, 84
9, 237115, Note_on_c, 7, 37, 121
9, 237121, Control_c, 7, 11, 87
9, 237167, Control_c, 7, 11, 91
9, 237212, Control_c, 7, 11, 95
9, 237257, Control_c, 7, 11, 100
9, 237337, Note_off_c, 7, 37, 64
9, 237349, Control_c, 7, 11, 84
9, 237468, Control_c, 7, 11, 100
9, 237835, Note_on_c, 7, 49, 109
9, 237919, Note_off_c, 7, 49, 64
9, 238049, Control_c, 7, 11, 80
9, 238076, Note_on_c, 7, 35, 121
9, 238091, Control_c, 7, 11, 85
9, 238133, Control_c, 7, 11, 91
9, 238175, Control_c, 7, 11, 97
9, 238216, Control_c, 7, 11, 104
9, 238301, Control_c, 7, 11, 88
9, 238304, Note_off_c, 7, 35, 64
9, 238434, Control_c, 7, 11, 100
9, 238803, Note_on_c, 7, 47, 102
9, 238893, Note_off_c, 7, 47, 64
9, 239045, Note_on_c, 7, 45, 107
9, 239135, Note_off_c, 7, 45, 64
9, 239167, Note_on_c, 7, 49, 89
9, 239235, Note_off_c, 7, 49, 64
9, 239287, Note_on_c, 7, 42, 107
9, 239391, Note_off_c, 7, 42, 64
9, 239405, Note_on_c, 7, 44, 82
9, 239480, Note_off_c, 7, 44, 64
9, 239525, Note_on_c, 7, 45, 102
9, 239612, Note_off_c, 7, 45, 64
9, 239646, Note_on_c, 7, 47, 82
9, 239729, Note_off_c, 7, 47, 64
9, 239763, Note_on_c, 7, 49, 106
9, 239849, Note_off_c, 7, 49, 64
9, 239881, Note_on_c, 7, 51, 96
9, 239946, Note_off_c, 7, 51, 64
9, 240002, Note_on_c, 7, 53, 109
9, 240109, Note_off_c, 7, 53, 64
9, 240119, Note_on_c, 7, 56, 92
9, 240182, Note_off_c, 7, 56, 64
9, 240239, Note_on_c, 7, 49, 109
9, 240307, Note_off_c, 7, 49, 64
9, 240352, Note_on_c, 7, 51, 97
9, 240431, Note_off_c, 7, 51, 64
9, 240472, Note_on_c, 7, 53, 112
9, 240567, Note_off_c, 7, 53, 64
9, 240593, Note_on_c, 7, 54, 101
9, 240665, Note_off_c, 7, 54, 64
9, 240712, Note_on_c, 7, 56, 118
9, 240791, Note_off_c, 7, 56, 64
9, 240828, Note_on_c, 7, 57, 94
9, 240900, Note_off_c, 7, 57, 64
9, 240952, Note_on_c, 7, 59, 111
9, 241058, Note_off_c, 7, 59, 64
9, 241071, Note_on_c, 7, 56, 92
9, 241154, Note_off_c, 7, 56, 64
9, 241192, Note_on_c, 7, 53, 109
9, 241263, Note_off_c, 7, 53, 64
9, 241311, Note_on_c, 7, 54, 97
9, 241387, Note_off_c, 7, 54, 64
9, 241430, Note_on_c, 7, 56, 118
9, 241543, Note_off_c, 7, 56, 64
9, 241548, Note_on_c, 7, 57, 105
9, 241612, Note_off_c, 7, 57, 64
9, 241672, Note_on_c, 7, 59, 115
9, 241738, Note_off_c, 7, 59, 64
9, 241788, Note_on_c, 7, 61, 115
9, 241866, Note_off_c, 7, 61, 64
9, 241885, Control_c, 7, 11, 92
9, 241910, Note_on_c, 7, 62, 121
9, 241922, Control_c, 7, 11, 97
9, 241959, Control_c, 7, 11, 103
9, 241997, Control_c, 7, 11, 109
9, 242034, Control_c, 7, 11, 115
9, 242071, Control_c, 7, 11, 121
9, 242108, Control_c, 7, 11, 127
9, 242172, Control_c, 7, 11, 110
9, 242214, Control_c, 7, 11, 94
9, 242219, Note_off_c, 7, 62, 64
9, 242270, Control_c, 7, 11, 100
9, 242277, Note_on_c, 7, 61, 115
9, 242356, Note_off_c, 7, 61, 64
9, 242397, Note_on_c, 7, 59, 120
9, 242487, Note_off_c, 7, 59, 64
9, 242514, Note_on_c, 7, 57, 107
9, 242581, Note_off_c, 7, 57, 64
9, 242628, Note_on_c, 7, 56, 109
9, 242712, Note_off_c, 7, 56, 64
9, 242744, Note_on_c, 7, 54, 115
9, 242834, Note_off_c, 7, 54, 64
9, 242867, Note_on_c, 7, 53, 121
9, 243017, Note_off_c, 7, 53, 64
9, 243109, Note_on_c, 7, 54, 118
9, 243205, Note_off_c, 7, 54, 64
9, 243342, Note_on_c, 7, 61, 121
9, 243446, Note_off_c, 7, 61, 64
9, 243589, Note_on_c, 7, 49, 120
9, 243677, Note_off_c, 7, 49, 64
9, 243840, Note_on_c, 7, 42, 118
9, 243866, Control_c, 7, 11, 98
9, 243911, Control_c, 7, 11, 92
9, 243956, Control_c, 7, 11, 86
9, 244001, Note_off_c, 7, 42, 64
9, 244034, Control_c, 7, 11, 100
9, 244081, Note_on_c, 7, 54, 81
9, 244154, Note_off_c, 7, 54, 64
9, 244318, Note_on_c, 7, 54, 106
9, 244395, Note_off_c, 7, 54, 64
9, 244560, Note_on_c, 7, 42, 102
9, 244639, Note_off_c, 7, 42, 64
9, 244801, Note_on_c, 7, 42, 115
9, 244804, Control_c, 7, 11, 96
9, 244856, Control_c, 7, 11, 89
9, 244908, Control_c, 7, 11, 82
9, 244967, Note_off_c, 7, 42, 64
9, 245042, Control_c, 7, 11, 100
9, 245043, Note_on_c, 7, 54, 93
9, 245115, Note_off_c, 7, 54, 64
9, 245283, Note_on_c, 7, 54, 109
9, 245376, Note_off_c, 7, 54, 64
9, 245524, Note_on_c, 7, 42, 96
9, 245609, Note_off_c, 7, 42, 64
9, 245763, Note_on_c, 7, 42, 109
9, 245775, Control_c, 7, 11, 92
9, 245802, Control_c, 7, 11, 86
9, 245829, Control_c, 7, 11, 81
9, 245856, Control_c, 7, 11, 76
9, 245883, Control_c, 7, 11, 71
9, 245909, Control_c, 7, 11, 66
9, 245921, Note_off_c, 7, 42, 64
9, 245938, Control_c, 7, 11, 100
9, 246003, Note_on_c, 7, 54, 98
9, 246093, Note_off_c, 7, 54, 64
9, 246115, Note_on_c, 7, 53, 93
9, 246205, Note_off_c, 7, 53, 64
9, 246241, Note_on_c, 7, 51, 106
9, 246368, Note_off_c, 7, 51, 64
9, 246477, Note_on_c, 7, 56, 102
9, 246573, Note_off_c, 7, 56, 64
9, 246718, Note_on_c, 7, 49, 115
9, 246729, Control_c, 7, 11, 94
9, 246768, Control_c, 7, 11, 89
9, 246808, Control_c, 7, 11, 84
9, 246847, Control_c, 7, 11, 80
9, 246876, Note_off_c, 7, 49, 64
9, 246918, Control_c, 7, 11, 100
9, 246963, Note_on_c, 7, 61, 98
9, 247053, Note_off_c, 7, 61, 64
9, 247075, Note_on_c, 7, 60, 87
9, 247165, Note_off_c, 7, 60, 64
9, 247192, Note_on_c, 7, 61, 98
9, 247278, Note_off_c, 7, 61, 64
9, 247435, Note_on_c, 7, 49, 115
9, 247514, Note_off_c, 7, 49, 64
9, 247674, Note_on_c, 7, 49, 120
9, 247681, Control_c, 7, 11, 94
9, 247723, Control_c, 7, 11, 88
9, 247765, Control_c, 7, 11, 82
9, 247806, Control_c, 7, 11, 76
9, 247826, Note_off_c, 7, 49, 64
9, 247877, Control_c, 7, 11, 100
9, 247923, Note_on_c, 7, 61, 96
9, 248013, Note_off_c, 7, 61, 64
9, 248035, Note_on_c, 7, 60, 82
9, 248125, Note_off_c, 7, 60, 64
9, 248149, Note_on_c, 7, 61, 85
9, 248248, Note_off_c, 7, 61, 64
9, 248392, Note_on_c, 7, 49, 115
9, 248473, Note_off_c, 7, 49, 64
9, 248628, Note_on_c, 7, 49, 115
9, 248647, Control_c, 7, 11, 96
9, 248685, Control_c, 7, 11, 91
9, 248724, Control_c, 7, 11, 87
9, 248762, Control_c, 7, 11, 82
9, 248782, Note_off_c, 7, 49, 64
9, 248800, Control_c, 7, 11, 78
9, 248857, Control_c, 7, 11, 100
9, 248882, Note_on_c, 7, 61, 94
9, 248972, Note_off_c, 7, 61, 64
9, 248995, Note_on_c, 7, 60, 75
9, 249085, Note_off_c, 7, 60, 64
9, 249103, Note_on_c, 7, 61, 85
9, 249209, Note_off_c, 7, 61, 64
9, 249362, Note_on_c, 7, 53, 102
9, 249452, Note_off_c, 7, 53, 64
9, 249585, Control_c, 7, 11, 84
9, 249586, Note_on_c, 7, 54, 96
9, 249624, Control_c, 7, 11, 87
9, 249663, Control_c, 7, 11, 90
9, 249702, Control_c, 7, 11, 93
9, 249741, Control_c, 7, 11, 96
9, 249767, Note_off_c, 7, 54, 64
9, 249780, Control_c, 7, 11, 100
9, 249837, Note_on_c, 7, 51, 87
9, 249954, Note_off_c, 7, 51, 64
9, 250074, Note_on_c, 7, 47, 102
9, 250201, Note_off_c, 7, 47, 64
9, 250314, Note_on_c, 7, 49, 85
9, 250420, Note_off_c, 7, 49, 64
9, 250530, Control_c, 7, 11, 80
9, 250554, Note_on_c, 7, 51, 94
9, 250574, Control_c, 7, 11, 83
9, 250619, Control_c, 7, 11, 86
9, 250664, Control_c, 7, 11, 89
9, 250709, Control_c, 7, 11, 92
9, 250753, Control_c, 7, 11, 96
9, 250775, Note_off_c, 7, 51, 64
9, 250782, Control_c, 7, 11, 100
9, 250803, Note_on_c, 7, 49, 87
9, 250893, Note_off_c, 7, 49, 64
9, 250916, Note_on_c, 7, 47, 88
9, 251006, Note_off_c, 7, 47, 64
9, 251036, Note_on_c, 7, 46, 84
9, 251041, Control_c, 7, 11, 88
9, 251084, Control_c, 7, 11, 90
9, 251127, Control_c, 7, 11, 92
9, 251171, Control_c, 7, 11, 95
9, 251214, Control_c, 7, 11, 97
9, 251229, Note_off_c, 7, 46, 64
9, 251257, Control_c, 7, 11, 100
9, 251283, Note_on_c, 7, 44, 85
9, 251373, Note_off_c, 7, 44, 64
9, 251395, Note_on_c, 7, 42, 109
9, 251485, Note_off_c, 7, 42, 64
9, 251510, Control_c, 7, 11, 88
9, 251515, Note_on_c, 7, 47, 102
9, 251554, Control_c, 7, 11, 91
9, 251598, Control_c, 7, 11, 95
9, 251642, Control_c, 7, 11, 100
9, 251708, Note_off_c, 7, 47, 64
9, 251763, Note_on_c, 7, 46, 87
9, 251853, Note_off_c, 7, 46, 64
9, 251876, Note_on_c, 7, 44, 88
9, 251966, Note_off_c, 7, 44, 64
9, 251994, Note_on_c, 7, 42, 93
9, 252028, Control_c, 7, 11, 96
9, 252073, Control_c, 7, 11, 89
9, 252118, Control_c, 7, 11, 82
9, 252155, Note_off_c, 7, 42, 64
9, 252217, Control_c, 7, 11, 100
9, 252243, Note_on_c, 7, 54, 102
9, 252333, Note_off_c, 7, 54, 64
9, 252355, Note_on_c, 7, 53, 91
9, 252445, Note_off_c, 7, 53, 64
9, 252476, Control_c, 7, 11, 90
9, 252481, Note_on_c, 7, 51, 98
9, 252522, Control_c, 7, 11, 93
9, 252569, Control_c, 7, 11, 96
9, 252615, Control_c, 7, 11, 100
9, 252679, Note_off_c, 7, 51, 64
9, 252723, Note_on_c, 7, 49, 96
9, 252813, Note_off_c, 7, 49, 64
9, 252835, Note_on_c, 7, 47, 85
9, 252925, Note_off_c, 7, 47, 64
9, 252956, Note_on_c, 7, 46, 81
9, 253074, Note_off_c, 7, 46, 64
9, 253198, Note_on_c, 7, 48, 87
9, 253300, Note_off_c, 7, 48, 64
9, 253436, Note_on_c, 7, 49, 87
9, 253576, Note_off_c, 7, 49, 64
9, 253678, Note_on_c, 7, 37, 81
9, 253760, Note_off_c, 7, 37, 64
9, 253913, Note_on_c, 7, 37, 115
9, 254014, Note_off_c, 7, 37, 64
9, 254163, Note_on_c, 7, 49, 112
9, 254253, Note_off_c, 7, 49, 64
9, 254275, Note_on_c, 7, 51, 91
9, 254365, Note_off_c, 7, 51, 64
9, 254393, Note_on_c, 7, 53, 102
9, 254530, Note_off_c, 7, 53, 64
9, 254633, Note_on_c, 7, 54, 109
9, 254747, Note_off_c, 7, 54, 64
9, 254874, Note_on_c, 7, 56, 101
9, 254997, Note_off_c, 7, 56, 64
9, 255117, Note_on_c, 7, 53, 99
9, 255222, Note_off_c, 7, 53, 64
9, 255361, Note_on_c, 7, 54, 118
9, 255511, Note_off_c, 7, 54, 64
9, 255596, Note_on_c, 7, 59, 112
9, 255705, Note_off_c, 7, 59, 64
9, 255839, Note_on_c, 7, 61, 115
9, 255931, Note_off_c, 7, 61, 64
9, 256083, Note_on_c, 7, 49, 106
9, 256173, Note_off_c, 7, 49, 64
9, 256320, Note_on_c, 7, 54, 94
9, 256425, Note_off_c, 7, 54, 64
9, 256563, Note_on_c, 7, 54, 108
9, 256653, Note_off_c, 7, 54, 64
9, 256676, Note_on_c, 7, 53, 83
9, 256766, Note_off_c, 7, 53, 64
9, 256788, Control_c, 7, 11, 96
9, 256802, Note_on_c, 7, 54, 76
9, 256834, Control_c, 7, 11, 91
9, 256881, Control_c, 7, 11, 86
9, 256927, Control_c, 7, 11, 82
9, 256953, Note_off_c, 7, 54, 64
9, 256984, Control_c, 7, 11, 100
9, 257043, Note_on_c, 7, 58, 110
9, 257133, Note_off_c, 7, 58, 64
9, 257156, Note_on_c, 7, 56, 74
9, 257246, Note_off_c, 7, 56, 64
9, 257280, Note_on_c, 7, 58, 74
9, 257292, Control_c, 7, 11, 96
9, 257348, Control_c, 7, 11, 90
9, 257403, Control_c, 7, 11, 84
9, 257479, Note_off_c, 7, 58, 64
9, 257558, Control_c, 7, 11, 100
9, 261843, Note_on_c, 7, 49, 112
9, 261933, Note_off_c, 7, 49, 64
9, 262052, Control_c, 7, 11, 64
9, 262081, Note_on_c, 7, 54, 127
9, 262092, Control_c, 7, 11, 69
9, 262133, Control_c, 7, 11, 75
9, 262174, Control_c, 7, 11, 80
9, 262215, Control_c, 7, 11, 86
9, 262256, Control_c, 7, 11, 92
9, 262296, Control_c, 7, 11, 98
9, 262317, Control_c, 7, 11, 100
9, 262322, Note_off_c, 7, 54, 64
9, 262329, Note_on_c, 7, 53, 89
9, 262416, Note_off_c, 7, 53, 64
9, 262446, Note_on_c, 7, 51, 96
9, 262528, Note_off_c, 7, 51, 64
9, 262561, Note_on_c, 7, 49, 98
9, 262632, Note_off_c, 7, 49, 64
9, 262677, Note_on_c, 7, 47, 94
9, 262755, Note_off_c, 7, 47, 64
9, 262795, Note_on_c, 7, 46, 92
9, 262879, Note_off_c, 7, 46, 64
9, 262911, Note_on_c, 7, 44, 96
9, 262983, Note_off_c, 7, 44, 64
9, 263018, Control_c, 7, 11, 88
9, 263034, Note_on_c, 7, 46, 98
9, 263053, Control_c, 7, 11, 90
9, 263088, Control_c, 7, 11, 93
9, 263123, Control_c, 7, 11, 96
9, 263157, Control_c, 7, 11, 100
9, 263227, Note_off_c, 7, 46, 64
9, 263283, Note_on_c, 7, 44, 91
9, 263373, Note_off_c, 7, 44, 64
9, 263395, Note_on_c, 7, 42, 91
9, 263485, Note_off_c, 7, 42, 64
9, 263512, Note_on_c, 7, 49, 93
9, 263619, Note_off_c, 7, 49, 64
9, 263760, Note_on_c, 7, 37, 102
9, 263852, Note_off_c, 7, 37, 64
9, 263930, Control_c, 7, 11, 62
9, 264012, Note_on_c, 7, 42, 120
9, 264027, Control_c, 7, 11, 63
9, 264194, Control_c, 7, 11, 65
9, 264222, Control_c, 7, 11, 66
9, 264235, Control_c, 7, 11, 68
9, 264263, Control_c, 7, 11, 69
9, 264277, Control_c, 7, 11, 70
9, 264291, Control_c, 7, 11, 71
9, 264305, Control_c, 7, 11, 72
9, 264319, Control_c, 7, 11, 73
9, 264333, Control_c, 7, 11, 74
9, 264347, Control_c, 7, 11, 75
9, 264374, Control_c, 7, 11, 77
9, 264388, Control_c, 7, 11, 78
9, 264416, Control_c, 7, 11, 79
9, 264430, Control_c, 7, 11, 80
9, 264444, Control_c, 7, 11, 81
9, 264458, Control_c, 7, 11, 82
9, 264472, Control_c, 7, 11, 83
9, 264485, Control_c, 7, 11, 84
9, 264499, Control_c, 7, 11, 85
9, 264513, Control_c, 7, 11, 86
9, 264527, Control_c, 7, 11, 87
9, 264541, Control_c, 7, 11, 88
9, 264555, Control_c, 7, 11, 89
9, 264583, Control_c, 7, 11, 90
9, 264597, Control_c, 7, 11, 92
9, 264624, Control_c, 7, 11, 93
9, 264638, Control_c, 7, 11, 94
9, 264652, Control_c, 7, 11, 95
9, 264666, Control_c, 7, 11, 96
9, 264680, Control_c, 7, 11, 97
9, 264694, Control_c, 7, 11, 98
9, 264708, Control_c, 7, 11, 99
9, 264722, Control_c, 7, 11, 100
9, 264735, Control_c, 7, 11, 101
9, 264749, Control_c, 7, 11, 102
9, 264763, Control_c, 7, 11, 103
9, 264777, Control_c, 7, 11, 102
9, 264791, Control_c, 7, 11, 101
9, 264805, Control_c, 7, 11, 99
9, 264819, Control_c, 7, 11, 96
9, 264833, Control_c, 7, 11, 94
9, 264847, Control_c, 7, 11, 91
9, 264860, Control_c, 7, 11, 89
9, 264874, Control_c, 7, 11, 86
9, 264888, Control_c, 7, 11, 83
9, 264902, Control_c, 7, 11, 81
9, 264916, Control_c, 7, 11, 79
9, 264930, Control_c, 7, 11, 76
9, 264944, Control_c, 7, 11, 74
9, 264956, Note_off_c, 7, 42, 64
9, 264958, Control_c, 7, 11, 73
9, 265076, Control_c, 7, 11, 100
9, 266880, End_track
10, 0, Start_track
10, 0, Instrument_name_t, "SC88-A"
10, 0, Title_t, "Violoncello.2"
10, 1440, Control_c, 8, 101, 0
10, 1450, Control_c, 8, 100, 0
10, 1450, Control_c, 8, 6, 0
10, 1470, Control_c, 8, 0, 0
10, 1480, Control_c, 8, 32, 1
10, 1490, Program_c, 8, 42
10, 1500, Control_c, 8, 10, 89
10, 1510, Control_c, 8, 11, 100
10, 1520, Control_c, 8, 7, 120
10, 1530, Control_c, 8, 93, 0
10, 1540, Control_c, 8, 91, 0
10, 1550, Pitch_bend_c, 8, 8192
10, 1560, Control_c, 8, 1, 0
10, 1570, Control_c, 8, 64, 0
10, 1580, Control_c, 8, 91, 64
10, 1590, Control_c, 8, 99, 1
10, 1600, Control_c, 8, 98, 32
10, 1610, Control_c, 8, 6, 61
10, 1620, Control_c, 8, 98, 33
10, 1630, Control_c, 8, 6, 73
10, 1640, Control_c, 8, 98, 99
10, 1650, Control_c, 8, 6, 64
10, 1660, Control_c, 8, 98, 100
10, 1670, Control_c, 8, 6, 64
10, 1680, Control_c, 8, 98, 102
10, 1690, Control_c, 8, 6, 64
10, 20883, Note_on_c, 8, 58, 71
10, 20973, Note_off_c, 8, 58, 64
10, 20995, Note_on_c, 8, 56, 54
10, 21085, Note_off_c, 8, 56, 64
10, 21112, Note_on_c, 8, 54, 54
10, 21132, Control_c, 8, 11, 96
10, 21180, Control_c, 8, 11, 88
10, 21227, Control_c, 8, 11, 80
10, 21267, Note_off_c, 8, 54, 64
10, 21312, Control_c, 8, 11, 100
10, 21354, Note_on_c, 8, 49, 49
10, 21440, Note_off_c, 8, 49, 64
10, 34323, Note_on_c, 8, 61, 113
10, 34413, Note_off_c, 8, 61, 64
10, 34436, Note_on_c, 8, 59, 92
10, 34526, Note_off_c, 8, 59, 64
10, 34562, Note_on_c, 8, 58, 103
10, 34682, Note_on_c, 8, 59, 81
10, 34685, Note_off_c, 8, 58, 64
10, 34776, Note_off_c, 8, 59, 64
10, 34803, Note_on_c, 8, 58, 87
10, 34893, Note_off_c, 8, 58, 64
10, 34915, Note_on_c, 8, 56, 76
10, 35005, Note_off_c, 8, 56, 64
10, 35030, Note_on_c, 8, 54, 74
10, 35179, Note_off_c, 8, 54, 64
10, 74163, Note_on_c, 8, 54, 68
10, 74253, Note_off_c, 8, 54, 64
10, 74275, Note_on_c, 8, 53, 50
10, 74365, Note_off_c, 8, 53, 64
10, 74390, Note_on_c, 8, 54, 68
10, 74406, Control_c, 8, 11, 98
10, 74457, Control_c, 8, 11, 91
10, 74507, Control_c, 8, 11, 84
10, 74526, Note_off_c, 8, 54, 64
10, 74580, Control_c, 8, 11, 100
10, 74643, Note_on_c, 8, 58, 76
10, 74733, Note_off_c, 8, 58, 64
10, 74756, Note_on_c, 8, 56, 65
10, 74846, Note_off_c, 8, 56, 64
10, 74885, Note_on_c, 8, 58, 56
10, 74886, Control_c, 8, 11, 96
10, 74931, Control_c, 8, 11, 91
10, 74976, Control_c, 8, 11, 86
10, 75021, Control_c, 8, 11, 81
10, 75044, Note_off_c, 8, 58, 64
10, 75065, Control_c, 8, 11, 76
10, 75150, Control_c, 8, 11, 100
10, 107283, Note_on_c, 8, 51, 68
10, 107373, Note_off_c, 8, 51, 64
10, 107395, Note_on_c, 8, 50, 52
10, 107485, Note_off_c, 8, 50, 64
10, 107517, Note_on_c, 8, 51, 61
10, 107611, Note_off_c, 8, 51, 64
10, 122643, Note_on_c, 8, 44, 87
10, 122733, Note_off_c, 8, 44, 64
10, 122895, Note_on_c, 8, 49, 127
10, 123003, Note_on_c, 8, 56, 99
10, 123007, Note_off_c, 8, 49, 64
10, 123082, Note_off_c, 8, 56, 64
10, 123120, Note_on_c, 8, 49, 112
10, 123196, Note_off_c, 8, 49, 64
10, 123230, Note_on_c, 8, 51, 91
10, 123311, Note_off_c, 8, 51, 64
10, 123350, Note_on_c, 8, 53, 112
10, 123470, Note_off_c, 8, 53, 64
10, 123476, Note_on_c, 8, 54, 95
10, 123556, Note_off_c, 8, 54, 64
10, 123593, Note_on_c, 8, 56, 117
10, 123659, Note_off_c, 8, 56, 64
10, 123702, Note_on_c, 8, 54, 88
10, 123782, Note_off_c, 8, 54, 64
10, 123812, Note_on_c, 8, 53, 94
10, 123991, Note_off_c, 8, 53, 64
10, 124038, Control_c, 8, 11, 96
10, 124083, Note_on_c, 8, 61, 121
10, 124084, Control_c, 8, 11, 90
10, 124130, Control_c, 8, 11, 84
10, 124175, Control_c, 8, 11, 78
10, 124204, Note_off_c, 8, 61, 64
10, 124224, Control_c, 8, 11, 100
10, 124554, Note_on_c, 8, 56, 78
10, 124655, Note_off_c, 8, 56, 64
10, 124806, Note_on_c, 8, 61, 123
10, 124919, Note_on_c, 8, 63, 93
10, 124929, Note_off_c, 8, 61, 64
10, 125036, Note_off_c, 8, 63, 64
10, 125039, Note_on_c, 8, 61, 93
10, 125121, Note_off_c, 8, 61, 64
10, 125160, Note_on_c, 8, 59, 106
10, 125225, Note_off_c, 8, 59, 64
10, 125278, Note_on_c, 8, 58, 114
10, 125359, Note_off_c, 8, 58, 64
10, 125396, Note_on_c, 8, 56, 96
10, 125467, Note_off_c, 8, 56, 64
10, 125514, Note_on_c, 8, 54, 106
10, 125585, Note_off_c, 8, 54, 64
10, 125623, Note_on_c, 8, 53, 100
10, 125683, Note_off_c, 8, 53, 64
10, 125754, Control_c, 8, 11, 94
10, 125759, Note_on_c, 8, 54, 88
10, 125798, Control_c, 8, 11, 89
10, 125842, Control_c, 8, 11, 84
10, 125885, Control_c, 8, 11, 80
10, 125919, Note_off_c, 8, 54, 64
10, 125952, Control_c, 8, 11, 100
10, 126003, Note_on_c, 8, 49, 87
10, 126093, Note_off_c, 8, 49, 64
10, 126116, Note_on_c, 8, 47, 54
10, 126206, Note_off_c, 8, 47, 64
10, 126236, Note_on_c, 8, 49, 68
10, 126314, Note_off_c, 8, 49, 64
10, 145203, Note_on_c, 8, 53, 56
10, 145293, Note_off_c, 8, 53, 64
10, 145315, Note_on_c, 8, 51, 59
10, 145405, Note_off_c, 8, 51, 64
10, 145431, Note_on_c, 8, 53, 52
10, 145435, Control_c, 8, 11, 98
10, 145485, Control_c, 8, 11, 90
10, 145534, Control_c, 8, 11, 82
10, 145547, Note_off_c, 8, 53, 64
10, 145600, Control_c, 8, 11, 100
10, 145683, Note_on_c, 8, 58, 68
10, 145773, Note_off_c, 8, 58, 64
10, 145795, Note_on_c, 8, 57, 47
10, 145885, Note_off_c, 8, 57, 64
10, 145917, Note_on_c, 8, 58, 44
10, 145925, Control_c, 8, 11, 94
10, 145977, Control_c, 8, 11, 87
10, 146029, Control_c, 8, 11, 80
10, 146047, Note_off_c, 8, 58, 64
10, 146145, Control_c, 8, 11, 100
10, 256563, Note_on_c, 8, 49, 68
10, 256653, Note_off_c, 8, 49, 64
10, 256676, Note_on_c, 8, 47, 49
10, 256766, Note_off_c, 8, 47, 64
10, 256799, Note_on_c, 8, 49, 54
10, 256883, Note_off_c, 8, 49, 64
10, 257043, Note_on_c, 8, 54, 68
10, 257133, Note_off_c, 8, 54, 64
10, 257155, Note_on_c, 8, 53, 52
10, 257245, Note_off_c, 8, 53, 64
10, 257278, Note_on_c, 8, 54, 62
10, 257435, Note_off_c, 8, 54, 64
10, 266880, End_track
11, 0, Start_track
11, 0, Instrument_name_t, "SC88-A"
11, 0, Title_t, "Violoncello.3"
11, 1440, Control_c, 10, 101, 0
11, 1450, Control_c, 10, 100, 0
11, 1450, Control_c, 10, 6, 0
11, 1470, Control_c, 10, 0, 0
11, 1480, Control_c, 10, 32, 1
11, 1490, Program_c, 10, 42
11, 1500, Control_c, 10, 10, 99
11, 1510, Control_c, 10, 11, 100
11, 1520, Control_c, 10, 7, 120
11, 1530, Control_c, 10, 93, 0
11, 1540, Control_c, 10, 91, 0
11, 1550, Pitch_bend_c, 10, 8192
11, 1560, Control_c, 10, 1, 0
11, 1570, Control_c, 10, 64, 0
11, 1580, Control_c, 10, 91, 64
11, 1590, Control_c, 10, 99, 1
11, 1600, Control_c, 10, 98, 32
11, 1610, Control_c, 10, 6, 64
11, 1620, Control_c, 10, 98, 33
11, 1630, Control_c, 10, 6, 60
11, 1640, Control_c, 10, 98, 99
11, 1650, Control_c, 10, 6, 64
11, 1660, Control_c, 10, 98, 100
11, 1670, Control_c, 10, 6, 64
11, 1680, Control_c, 10, 98, 102
11, 1690, Control_c, 10, 6, 64
11, 20883, Note_on_c, 10, 54, 68
11, 20973, Note_off_c, 10, 54, 64
11, 20995, Note_on_c, 10, 53, 51
11, 21085, Note_off_c, 10, 53, 64
11, 21108, Note_on_c, 10, 54, 59
11, 21246, Note_off_c, 10, 54, 64
11, 31681, Note_on_c, 10, 37, 68
11, 31684, Control_c, 10, 11, 96
11, 31738, Control_c, 10, 11, 88
11, 31791, Control_c, 10, 11, 80
11, 31812, Note_off_c, 10, 37, 64
11, 31872, Control_c, 10, 11, 100
11, 31923, Note_on_c, 10, 49, 69
11, 32013, Note_off_c, 10, 49, 64
11, 32035, Note_on_c, 10, 47, 60
11, 32125, Note_off_c, 10, 47, 64
11, 32155, Note_on_c, 10, 46, 73
11, 32242, Note_off_c, 10, 46, 64
11, 32270, Note_on_c, 10, 47, 60
11, 32341, Note_off_c, 10, 47, 64
11, 32387, Note_on_c, 10, 46, 68
11, 32447, Note_off_c, 10, 46, 64
11, 32507, Note_on_c, 10, 44, 57
11, 32567, Note_off_c, 10, 44, 64
11, 32636, Note_on_c, 10, 42, 57
11, 32656, Control_c, 10, 11, 96
11, 32693, Control_c, 10, 11, 90
11, 32731, Control_c, 10, 11, 84
11, 32768, Control_c, 10, 11, 79
11, 32806, Control_c, 10, 11, 73
11, 32837, Note_off_c, 10, 42, 64
11, 32843, Control_c, 10, 11, 68
11, 32896, Control_c, 10, 11, 100
11, 34323, Note_on_c, 10, 58, 74
11, 34413, Note_off_c, 10, 58, 64
11, 34435, Note_on_c, 10, 56, 62
11, 34525, Note_off_c, 10, 56, 64
11, 34557, Note_on_c, 10, 54, 68
11, 34680, Note_off_c, 10, 54, 64
11, 34803, Note_on_c, 10, 49, 68
11, 34883, Note_off_c, 10, 49, 64
11, 74163, Note_on_c, 10, 49, 54
11, 74253, Note_off_c, 10, 49, 64
11, 74276, Note_on_c, 10, 47, 36
11, 74366, Note_off_c, 10, 47, 64
11, 74397, Note_on_c, 10, 49, 36
11, 74404, Control_c, 10, 11, 96
11, 74444, Control_c, 10, 11, 90
11, 74484, Control_c, 10, 11, 85
11, 74516, Note_off_c, 10, 49, 64
11, 74523, Control_c, 10, 11, 80
11, 74616, Control_c, 10, 11, 100
11, 74643, Note_on_c, 10, 54, 54
11, 74733, Note_off_c, 10, 54, 64
11, 74755, Note_on_c, 10, 53, 42
11, 74845, Note_off_c, 10, 53, 64
11, 74878, Note_on_c, 10, 54, 35
11, 74888, Control_c, 10, 11, 96
11, 74934, Control_c, 10, 11, 89
11, 74981, Control_c, 10, 11, 82
11, 75027, Control_c, 10, 11, 76
11, 75043, Note_off_c, 10, 54, 64
11, 75132, Control_c, 10, 11, 100
11, 107283, Note_on_c, 10, 58, 107
11, 107373, Note_off_c, 10, 58, 64
11, 107395, Note_on_c, 10, 56, 81
11, 107485, Note_off_c, 10, 56, 64
11, 107506, Note_on_c, 10, 54, 78
11, 107524, Control_c, 10, 11, 94
11, 107570, Control_c, 10, 11, 85
11, 107615, Control_c, 10, 11, 76
11, 107674, Note_off_c, 10, 54, 64
11, 107700, Control_c, 10, 11, 100
11, 123603, Note_on_c, 10, 56, 87
11, 123693, Note_off_c, 10, 56, 64
11, 123853, Note_on_c, 10, 49, 121
11, 123950, Note_off_c, 10, 49, 64
11, 123972, Note_on_c, 10, 56, 81
11, 124053, Note_off_c, 10, 56, 64
11, 124087, Note_on_c, 10, 49, 120
11, 124186, Note_off_c, 10, 49, 64
11, 124202, Note_on_c, 10, 51, 94
11, 124295, Note_off_c, 10, 51, 64
11, 124323, Note_on_c, 10, 53, 121
11, 124416, Note_off_c, 10, 53, 64
11, 124439, Note_on_c, 10, 54, 84
11, 124529, Note_off_c, 10, 54, 64
11, 124559, Note_on_c, 10, 56, 121
11, 124650, Note_off_c, 10, 56, 64
11, 124674, Note_on_c, 10, 54, 85
11, 124768, Note_off_c, 10, 54, 64
11, 124788, Note_on_c, 10, 53, 121
11, 124923, Note_on_c, 10, 54, 68
11, 124924, Note_off_c, 10, 53, 64
11, 125036, Note_on_c, 10, 53, 63
11, 125043, Note_off_c, 10, 54, 64
11, 125139, Note_off_c, 10, 53, 64
11, 125156, Note_on_c, 10, 51, 68
11, 125227, Note_off_c, 10, 51, 64
11, 125276, Note_on_c, 10, 49, 110
11, 125355, Note_off_c, 10, 49, 64
11, 125396, Note_on_c, 10, 47, 72
11, 125475, Note_off_c, 10, 47, 64
11, 125522, Note_on_c, 10, 46, 68
11, 125612, Note_off_c, 10, 46, 64
11, 125635, Note_on_c, 10, 44, 72
11, 125725, Note_off_c, 10, 44, 64
11, 125758, Note_on_c, 10, 42, 68
11, 125865, Note_off_c, 10, 42, 64
11, 126003, Note_on_c, 10, 46, 86
11, 126093, Note_off_c, 10, 46, 64
11, 126115, Note_on_c, 10, 44, 68
11, 126205, Note_off_c, 10, 44, 64
11, 126236, Note_on_c, 10, 42, 68
11, 126366, Note_off_c, 10, 42, 64
11, 145203, Note_on_c, 10, 49, 68
11, 145293, Note_off_c, 10, 49, 64
11, 145315, Note_on_c, 10, 48, 48
11, 145405, Note_off_c, 10, 48, 64
11, 145435, Note_on_c, 10, 49, 59
11, 145436, Control_c, 10, 11, 96
11, 145488, Control_c, 10, 11, 84
11, 145539, Control_c, 10, 11, 72
11, 145546, Note_off_c, 10, 49, 64
11, 145600, Control_c, 10, 11, 100
11, 145683, Note_on_c, 10, 53, 53
11, 145773, Note_off_c, 10, 53, 64
11, 145795, Note_on_c, 10, 51, 65
11, 145885, Note_off_c, 10, 51, 64
11, 145921, Note_on_c, 10, 53, 48
11, 145940, Control_c, 10, 11, 96
11, 145984, Control_c, 10, 11, 87
11, 146027, Control_c, 10, 11, 78
11, 146040, Note_off_c, 10, 53, 64
11, 146144, Control_c, 10, 11, 100
11, 256563, Note_on_c, 10, 46, 76
11, 256653, Note_off_c, 10, 46, 64
11, 256676, Note_on_c, 10, 44, 50
11, 256766, Note_off_c, 10, 44, 64
11, 256794, Note_on_c, 10, 46, 54
11, 256874, Note_off_c, 10, 46, 64
11, 257043, Note_on_c, 10, 49, 65
11, 257133, Note_off_c, 10, 49, 64
11, 257156, Note_on_c, 10, 47, 56
11, 257246, Note_off_c, 10, 47, 64
11, 257281, Note_on_c, 10, 49, 46
11, 257415, Note_off_c, 10, 49, 64
11, 266880, End_track
12, 0, Start_track
12, 0, Instrument_name_t, "SC88-A"
12, 0, Title_t, "Violone"
12, 1440, Control_c, 11, 101, 0
12, 1450, Control_c, 11, 100, 0
12, 1450, Control_c, 11, 6, 0
12, 1470, Control_c, 11, 0, 0
12, 1480, Control_c, 11, 32, 1
12, 1490, Program_c, 11, 43
12, 1500, Control_c, 11, 10, 64
12, 1510, Control_c, 11, 11, 100
12, 1520, Control_c, 11, 7, 120
12, 1530, Control_c, 11, 93, 0
12, 1540, Control_c, 11, 91, 0
12, 1550, Pitch_bend_c, 11, 8192
12, 1560, Control_c, 11, 1, 0
12, 1570, Control_c, 11, 64, 0
12, 1580, Control_c, 11, 91, 64
12, 1590, Control_c, 11, 99, 1
12, 1600, Control_c, 11, 98, 32
12, 1610, Control_c, 11, 6, 70
12, 1620, Control_c, 11, 98, 33
12, 1630, Control_c, 11, 6, 64
12, 1640, Control_c, 11, 98, 99
12, 1650, Control_c, 11, 6, 64
12, 1660, Control_c, 11, 98, 100
12, 1670, Control_c, 11, 6, 64
12, 1680, Control_c, 11, 98, 102
12, 1690, Control_c, 11, 6, 64
12, 3591, Note_on_c, 11, 30, 79
12, 3655, Note_off_c, 11, 30, 64
12, 3850, Note_on_c, 11, 30, 79
12, 4029, Note_off_c, 11, 30, 64
12, 4098, Note_on_c, 11, 42, 59
12, 4170, Note_off_c, 11, 42, 64
12, 4328, Note_on_c, 11, 42, 79
12, 4413, Note_off_c, 11, 42, 64
12, 4567, Note_on_c, 11, 30, 79
12, 4638, Note_off_c, 11, 30, 64
12, 4807, Note_on_c, 11, 30, 79
12, 4967, Note_off_c, 11, 30, 64
12, 5051, Note_on_c, 11, 42, 73
12, 5132, Note_off_c, 11, 42, 64
12, 5286, Note_on_c, 11, 42, 79
12, 5381, Note_off_c, 11, 42, 64
12, 5524, Note_on_c, 11, 30, 79
12, 5593, Note_off_c, 11, 30, 64
12, 5763, Note_on_c, 11, 30, 94
12, 5933, Note_off_c, 11, 30, 64
12, 5999, Note_on_c, 11, 42, 94
12, 6113, Note_off_c, 11, 42, 64
12, 6113, Note_on_c, 11, 41, 52
12, 6238, Note_on_c, 11, 39, 79
12, 6242, Note_off_c, 11, 41, 64
12, 6331, Note_off_c, 11, 39, 64
12, 6476, Note_on_c, 11, 44, 79
12, 6548, Note_off_c, 11, 44, 64
12, 6715, Note_on_c, 11, 37, 79
12, 6894, Note_off_c, 11, 37, 64
12, 6967, Note_on_c, 11, 49, 94
12, 7065, Note_off_c, 11, 49, 64
12, 7082, Note_on_c, 11, 48, 50
12, 7194, Note_off_c, 11, 48, 64
12, 7199, Note_on_c, 11, 49, 71
12, 7286, Note_off_c, 11, 49, 64
12, 7435, Note_on_c, 11, 37, 79
12, 7532, Note_off_c, 11, 37, 64
12, 7677, Note_on_c, 11, 37, 82
12, 7843, Note_off_c, 11, 37, 64
12, 7921, Note_on_c, 11, 49, 92
12, 8025, Note_off_c, 11, 49, 64
12, 8029, Note_on_c, 11, 48, 52
12, 8153, Note_off_c, 11, 48, 64
12, 8153, Note_on_c, 11, 49, 73
12, 8245, Note_off_c, 11, 49, 64
12, 8390, Note_on_c, 11, 37, 79
12, 8482, Note_off_c, 11, 37, 64
12, 8633, Note_on_c, 11, 37, 85
12, 8804, Note_off_c, 11, 37, 64
12, 8880, Note_on_c, 11, 49, 90
12, 8973, Note_off_c, 11, 49, 64
12, 8984, Note_on_c, 11, 48, 58
12, 9112, Note_on_c, 11, 49, 71
12, 9125, Note_off_c, 11, 48, 64
12, 9189, Note_off_c, 11, 49, 64
12, 9351, Note_on_c, 11, 41, 72
12, 9423, Note_off_c, 11, 41, 64
12, 9594, Note_on_c, 11, 42, 98
12, 9781, Note_off_c, 11, 42, 64
12, 9831, Note_on_c, 11, 39, 69
12, 9915, Note_off_c, 11, 39, 64
12, 10077, Note_on_c, 11, 35, 79
12, 10170, Note_off_c, 11, 35, 64
12, 10317, Note_on_c, 11, 37, 67
12, 10400, Note_off_c, 11, 37, 64
12, 10561, Note_on_c, 11, 39, 98
12, 10752, Note_off_c, 11, 39, 64
12, 10806, Note_on_c, 11, 37, 92
12, 10896, Note_off_c, 11, 37, 64
12, 10926, Note_on_c, 11, 35, 71
12, 11025, Note_off_c, 11, 35, 64
12, 11046, Note_on_c, 11, 34, 100
12, 11227, Note_off_c, 11, 34, 64
12, 11286, Note_on_c, 11, 32, 79
12, 11395, Note_off_c, 11, 32, 64
12, 11396, Note_on_c, 11, 30, 69
12, 11478, Note_off_c, 11, 30, 64
12, 11520, Note_on_c, 11, 35, 96
12, 11685, Note_off_c, 11, 35, 64
12, 11759, Note_on_c, 11, 34, 79
12, 11856, Note_off_c, 11, 34, 64
12, 11876, Note_on_c, 11, 32, 79
12, 11975, Note_off_c, 11, 32, 64
12, 11994, Note_on_c, 11, 30, 79
12, 12144, Note_off_c, 11, 30, 64
12, 12241, Note_on_c, 11, 42, 102
12, 12324, Note_off_c, 11, 42, 64
12, 12354, Note_on_c, 11, 41, 76
12, 12437, Note_off_c, 11, 41, 64
12, 12480, Note_on_c, 11, 39, 100
12, 12664, Note_off_c, 11, 39, 64
12, 12717, Note_on_c, 11, 37, 79
12, 12797, Note_off_c, 11, 37, 64
12, 12833, Note_on_c, 11, 35, 79
12, 12937, Note_off_c, 11, 35, 64
12, 12956, Note_on_c, 11, 34, 91
12, 13048, Note_off_c, 11, 34, 64
12, 13200, Note_on_c, 11, 36, 67
12, 13286, Note_off_c, 11, 36, 64
12, 13440, Note_on_c, 11, 37, 85
12, 13617, Note_off_c, 11, 37, 64
12, 13674, Note_on_c, 11, 25, 67
12, 13786, Note_off_c, 11, 25, 64
12, 13919, Note_on_c, 11, 25, 79
12, 14048, Note_off_c, 11, 25, 64
12, 14155, Note_on_c, 11, 37, 98
12, 14260, Note_on_c, 11, 39, 75
12, 14264, Note_off_c, 11, 37, 64
12, 14346, Note_off_c, 11, 39, 64
12, 14399, Note_on_c, 11, 41, 82
12, 14550, Note_off_c, 11, 41, 64
12, 14636, Note_on_c, 11, 42, 82
12, 14741, Note_off_c, 11, 42, 64
12, 14875, Note_on_c, 11, 44, 79
12, 14982, Note_off_c, 11, 44, 64
12, 15113, Note_on_c, 11, 41, 69
12, 15189, Note_off_c, 11, 41, 64
12, 15357, Note_on_c, 11, 42, 88
12, 15554, Note_off_c, 11, 42, 64
12, 15597, Note_on_c, 11, 47, 88
12, 15679, Note_off_c, 11, 47, 64
12, 15838, Note_on_c, 11, 49, 102
12, 15932, Note_off_c, 11, 49, 64
12, 16079, Note_on_c, 11, 37, 88
12, 16153, Note_off_c, 11, 37, 64
12, 16323, Note_on_c, 11, 42, 111
12, 16527, Note_off_c, 11, 42, 64
12, 16571, Note_on_c, 11, 41, 111
12, 16641, Note_off_c, 11, 41, 64
12, 16688, Note_on_c, 11, 39, 79
12, 16771, Note_off_c, 11, 39, 64
12, 16807, Note_on_c, 11, 37, 94
12, 16880, Note_off_c, 11, 37, 64
12, 16925, Note_on_c, 11, 35, 85
12, 17000, Note_off_c, 11, 35, 64
12, 17043, Note_on_c, 11, 34, 91
12, 17126, Note_off_c, 11, 34, 64
12, 17164, Note_on_c, 11, 32, 79
12, 17246, Note_off_c, 11, 32, 64
12, 17284, Note_on_c, 11, 34, 102
12, 17485, Note_off_c, 11, 34, 64
12, 17527, Note_on_c, 11, 32, 90
12, 17624, Note_off_c, 11, 32, 64
12, 17641, Note_on_c, 11, 30, 79
12, 17742, Note_off_c, 11, 30, 64
12, 17755, Note_on_c, 11, 37, 94
12, 17867, Note_off_c, 11, 37, 64
12, 18002, Note_on_c, 11, 25, 79
12, 18089, Note_off_c, 11, 25, 64
12, 18241, Note_on_c, 11, 30, 96
12, 18723, Note_off_c, 11, 30, 64
12, 18976, Note_on_c, 11, 37, 79
12, 19045, Note_off_c, 11, 37, 64
12, 19206, Note_on_c, 11, 30, 79
12, 19477, Note_off_c, 11, 30, 64
12, 21349, Note_on_c, 11, 30, 100
12, 21452, Note_off_c, 11, 30, 64
12, 21459, Note_on_c, 11, 32, 81
12, 21563, Note_off_c, 11, 32, 64
12, 21585, Note_on_c, 11, 34, 79
12, 21678, Note_off_c, 11, 34, 64
12, 21833, Note_on_c, 11, 36, 79
12, 21894, Note_off_c, 11, 36, 64
12, 22073, Note_on_c, 11, 37, 79
12, 22331, Note_off_c, 11, 37, 64
12, 22795, Note_on_c, 11, 44, 69
12, 22883, Note_off_c, 11, 44, 64
12, 23043, Note_on_c, 11, 49, 60
12, 23226, Note_off_c, 11, 49, 64
12, 23752, Note_on_c, 11, 44, 79
12, 23837, Note_off_c, 11, 44, 64
12, 23994, Note_on_c, 11, 37, 59
12, 24256, Note_off_c, 11, 37, 64
12, 24717, Note_on_c, 11, 32, 100
12, 24790, Note_off_c, 11, 32, 64
12, 24952, Note_on_c, 11, 25, 117
12, 25104, Note_off_c, 11, 25, 64
12, 25200, Note_on_c, 11, 34, 91
12, 25303, Note_off_c, 11, 34, 64
12, 25428, Note_on_c, 11, 30, 92
12, 25542, Note_off_c, 11, 30, 64
12, 25667, Note_on_c, 11, 32, 91
12, 25766, Note_off_c, 11, 32, 64
12, 25909, Note_on_c, 11, 34, 109
12, 26145, Note_off_c, 11, 34, 64
12, 26164, Note_on_c, 11, 32, 101
12, 26232, Note_off_c, 11, 32, 64
12, 26256, Note_on_c, 11, 30, 76
12, 26332, Note_off_c, 11, 30, 64
12, 26379, Note_on_c, 11, 29, 104
12, 26560, Note_off_c, 11, 29, 64
12, 26641, Note_on_c, 11, 27, 99
12, 26726, Note_off_c, 11, 27, 64
12, 26735, Note_on_c, 11, 25, 76
12, 26821, Note_off_c, 11, 25, 64
12, 26867, Note_on_c, 11, 30, 102
12, 27071, Note_off_c, 11, 30, 64
12, 27110, Note_on_c, 11, 29, 99
12, 27176, Note_off_c, 11, 29, 64
12, 27211, Note_on_c, 11, 27, 79
12, 27283, Note_off_c, 11, 27, 64
12, 27336, Note_on_c, 11, 25, 79
12, 27487, Note_off_c, 11, 25, 64
12, 27596, Note_on_c, 11, 49, 106
12, 27682, Note_off_c, 11, 49, 64
12, 27690, Note_on_c, 11, 48, 79
12, 27777, Note_off_c, 11, 48, 64
12, 27817, Note_on_c, 11, 46, 79
12, 27996, Note_off_c, 11, 46, 64
12, 28071, Note_on_c, 11, 44, 101
12, 28172, Note_on_c, 11, 42, 85
12, 28176, Note_off_c, 11, 44, 64
12, 28274, Note_off_c, 11, 42, 64
12, 28296, Note_on_c, 11, 41, 88
12, 28437, Note_off_c, 11, 41, 64
12, 28549, Note_on_c, 11, 43, 81
12, 28652, Note_off_c, 11, 43, 64
12, 28798, Note_on_c, 11, 44, 106
12, 28937, Note_off_c, 11, 44, 64
12, 29023, Note_on_c, 11, 32, 76
12, 29129, Note_off_c, 11, 32, 64
12, 29274, Note_on_c, 11, 32, 102
12, 29381, Note_off_c, 11, 32, 64
12, 29532, Note_on_c, 11, 44, 113
12, 29621, Note_off_c, 11, 44, 64
12, 29626, Note_on_c, 11, 46, 84
12, 29716, Note_off_c, 11, 46, 64
12, 29742, Note_on_c, 11, 48, 100
12, 29922, Note_off_c, 11, 48, 64
12, 29991, Note_on_c, 11, 49, 99
12, 30093, Note_off_c, 11, 49, 64
12, 30223, Note_on_c, 11, 51, 100
12, 30328, Note_off_c, 11, 51, 64
12, 30473, Note_on_c, 11, 48, 84
12, 30570, Note_off_c, 11, 48, 64
12, 30721, Note_on_c, 11, 49, 100
12, 30879, Note_off_c, 11, 49, 64
12, 30965, Note_on_c, 11, 42, 84
12, 31066, Note_off_c, 11, 42, 64
12, 31201, Note_on_c, 11, 44, 104
12, 31299, Note_off_c, 11, 44, 64
12, 31447, Note_on_c, 11, 32, 82
12, 31558, Note_off_c, 11, 32, 64
12, 31687, Note_on_c, 11, 25, 111
12, 31855, Note_off_c, 11, 25, 64
12, 31945, Note_on_c, 11, 37, 127
12, 32039, Note_on_c, 11, 35, 96
12, 32046, Note_off_c, 11, 37, 64
12, 32122, Note_off_c, 11, 35, 64
12, 32153, Note_on_c, 11, 34, 119
12, 32248, Note_off_c, 11, 34, 64
12, 32257, Note_on_c, 11, 35, 86
12, 32336, Note_off_c, 11, 35, 64
12, 32378, Note_on_c, 11, 34, 94
12, 32450, Note_off_c, 11, 34, 64
12, 32486, Note_on_c, 11, 32, 79
12, 32560, Note_off_c, 11, 32, 64
12, 32633, Note_on_c, 11, 30, 79
12, 32802, Note_off_c, 11, 30, 64
12, 34798, Note_on_c, 11, 30, 118
12, 34887, Note_on_c, 11, 32, 87
12, 34902, Note_off_c, 11, 30, 64
12, 35012, Note_on_c, 11, 34, 91
12, 35014, Note_off_c, 11, 32, 64
12, 35120, Note_off_c, 11, 34, 64
12, 35269, Note_on_c, 11, 36, 87
12, 35365, Note_off_c, 11, 36, 64
12, 35514, Note_on_c, 11, 37, 89
12, 35744, Note_off_c, 11, 37, 64
12, 36211, Note_on_c, 11, 44, 67
12, 36282, Note_off_c, 11, 44, 64
12, 36480, Note_on_c, 11, 49, 79
12, 36704, Note_off_c, 11, 49, 64
12, 37197, Note_on_c, 11, 44, 67
12, 37270, Note_off_c, 11, 44, 64
12, 37440, Note_on_c, 11, 37, 79
12, 37675, Note_off_c, 11, 37, 64
12, 38145, Note_on_c, 11, 32, 102
12, 38214, Note_off_c, 11, 32, 64
12, 38383, Note_on_c, 11, 25, 100
12, 38559, Note_off_c, 11, 25, 64
12, 38654, Note_on_c, 11, 37, 71
12, 38720, Note_off_c, 11, 37, 64
12, 38873, Note_on_c, 11, 37, 91
12, 38953, Note_off_c, 11, 37, 64
12, 39110, Note_on_c, 11, 25, 89
12, 39200, Note_off_c, 11, 25, 64
12, 39351, Note_on_c, 11, 25, 104
12, 39511, Note_off_c, 11, 25, 64
12, 39590, Note_on_c, 11, 37, 75
12, 39667, Note_off_c, 11, 37, 64
12, 39814, Note_on_c, 11, 37, 99
12, 39924, Note_off_c, 11, 37, 64
12, 40064, Note_on_c, 11, 25, 86
12, 40155, Note_off_c, 11, 25, 64
12, 40298, Note_on_c, 11, 25, 98
12, 40459, Note_off_c, 11, 25, 64
12, 40560, Note_on_c, 11, 37, 109
12, 40650, Note_off_c, 11, 37, 64
12, 40651, Note_on_c, 11, 36, 92
12, 40775, Note_off_c, 11, 36, 64
12, 40775, Note_on_c, 11, 34, 79
12, 40880, Note_off_c, 11, 34, 64
12, 41024, Note_on_c, 11, 39, 89
12, 41096, Note_off_c, 11, 39, 64
12, 41265, Note_on_c, 11, 32, 73
12, 41537, Note_off_c, 11, 32, 64
12, 41996, Note_on_c, 11, 32, 71
12, 42081, Note_off_c, 11, 32, 64
12, 42250, Note_on_c, 11, 39, 79
12, 42449, Note_off_c, 11, 39, 64
12, 42929, Note_on_c, 11, 39, 71
12, 42992, Note_off_c, 11, 39, 64
12, 43194, Note_on_c, 11, 34, 79
12, 43440, Note_off_c, 11, 34, 64
12, 43914, Note_on_c, 11, 34, 88
12, 44008, Note_off_c, 11, 34, 64
12, 44150, Note_on_c, 11, 41, 109
12, 44279, Note_off_c, 11, 41, 64
12, 44389, Note_on_c, 11, 46, 117
12, 44482, Note_off_c, 11, 46, 64
12, 44482, Note_on_c, 11, 44, 86
12, 44591, Note_off_c, 11, 44, 64
12, 44605, Note_on_c, 11, 46, 79
12, 44709, Note_off_c, 11, 46, 64
12, 44870, Note_on_c, 11, 39, 115
12, 44975, Note_off_c, 11, 39, 64
12, 44976, Note_on_c, 11, 37, 79
12, 45091, Note_off_c, 11, 37, 64
12, 45103, Note_on_c, 11, 39, 79
12, 45181, Note_off_c, 11, 39, 64
12, 45357, Note_on_c, 11, 44, 106
12, 45444, Note_on_c, 11, 42, 81
12, 45448, Note_off_c, 11, 44, 64
12, 45567, Note_on_c, 11, 44, 79
12, 45569, Note_off_c, 11, 42, 64
12, 45665, Note_off_c, 11, 44, 64
12, 45846, Note_on_c, 11, 37, 109
12, 45940, Note_on_c, 11, 36, 65
12, 45944, Note_off_c, 11, 37, 64
12, 46073, Note_on_c, 11, 37, 79
12, 46075, Note_off_c, 11, 36, 64
12, 46229, Note_off_c, 11, 37, 64
12, 46314, Note_on_c, 11, 42, 110
12, 46373, Note_off_c, 11, 42, 64
12, 46551, Note_on_c, 11, 44, 106
12, 46645, Note_off_c, 11, 44, 64
12, 46796, Note_on_c, 11, 32, 100
12, 46903, Note_off_c, 11, 32, 64
12, 47037, Note_on_c, 11, 37, 99
12, 47129, Note_off_c, 11, 37, 64
12, 47280, Note_on_c, 11, 49, 79
12, 47378, Note_on_c, 11, 48, 60
12, 47397, Note_off_c, 11, 49, 64
12, 47517, Note_on_c, 11, 49, 63
12, 47521, Note_off_c, 11, 48, 64
12, 47584, Note_off_c, 11, 49, 64
12, 48237, Note_on_c, 11, 49, 79
12, 48348, Note_on_c, 11, 48, 56
12, 48357, Note_off_c, 11, 49, 64
12, 48473, Note_off_c, 11, 48, 64
12, 48478, Note_on_c, 11, 49, 56
12, 48557, Note_off_c, 11, 49, 64
12, 49211, Note_on_c, 11, 37, 79
12, 49321, Note_on_c, 11, 36, 55
12, 49338, Note_off_c, 11, 37, 64
12, 49423, Note_off_c, 11, 36, 64
12, 49431, Note_on_c, 11, 37, 54
12, 49502, Note_off_c, 11, 37, 64
12, 50143, Note_on_c, 11, 37, 79
12, 50257, Note_on_c, 11, 36, 58
12, 50268, Note_off_c, 11, 37, 64
12, 50376, Note_off_c, 11, 36, 64
12, 50387, Note_on_c, 11, 37, 54
12, 50481, Note_off_c, 11, 37, 64
12, 51132, Note_on_c, 11, 49, 100
12, 51231, Note_on_c, 11, 47, 79
12, 51242, Note_off_c, 11, 49, 64
12, 51335, Note_off_c, 11, 47, 64
12, 51353, Note_on_c, 11, 49, 69
12, 51415, Note_off_c, 11, 49, 64
12, 51593, Note_on_c, 11, 37, 89
12, 51662, Note_off_c, 11, 37, 64
12, 51829, Note_on_c, 11, 30, 88
12, 52013, Note_off_c, 11, 30, 64
12, 52074, Note_on_c, 11, 42, 73
12, 52173, Note_off_c, 11, 42, 64
12, 52175, Note_on_c, 11, 41, 56
12, 52286, Note_off_c, 11, 41, 64
12, 52310, Note_on_c, 11, 42, 47
12, 52368, Note_off_c, 11, 42, 64
12, 53015, Note_on_c, 11, 42, 79
12, 53142, Note_on_c, 11, 41, 59
12, 53150, Note_off_c, 11, 42, 64
12, 53244, Note_off_c, 11, 41, 64
12, 53254, Note_on_c, 11, 42, 54
12, 53315, Note_off_c, 11, 42, 64
12, 53996, Note_on_c, 11, 30, 85
12, 54114, Note_on_c, 11, 29, 65
12, 54120, Note_off_c, 11, 30, 64
12, 54191, Note_off_c, 11, 29, 64
12, 54222, Note_on_c, 11, 30, 65
12, 54287, Note_off_c, 11, 30, 64
12, 54956, Note_on_c, 11, 30, 92
12, 55059, Note_on_c, 11, 29, 62
12, 55067, Note_off_c, 11, 30, 64
12, 55132, Note_off_c, 11, 29, 64
12, 55178, Note_on_c, 11, 30, 79
12, 55250, Note_off_c, 11, 30, 64
12, 55931, Note_on_c, 11, 42, 101
12, 56027, Note_on_c, 11, 40, 73
12, 56036, Note_off_c, 11, 42, 64
12, 56143, Note_off_c, 11, 40, 64
12, 56155, Note_on_c, 11, 42, 67
12, 56231, Note_off_c, 11, 42, 64
12, 56383, Note_on_c, 11, 30, 82
12, 56453, Note_off_c, 11, 30, 64
12, 56609, Control_c, 11, 11, 82
12, 56623, Note_on_c, 11, 35, 109
12, 56635, Control_c, 11, 11, 85
12, 56662, Control_c, 11, 11, 88
12, 56689, Control_c, 11, 11, 91
12, 56715, Control_c, 11, 11, 94
12, 56742, Control_c, 11, 11, 98
12, 56769, Control_c, 11, 11, 101
12, 56796, Control_c, 11, 11, 104
12, 56822, Control_c, 11, 11, 108
12, 56849, Control_c, 11, 11, 111
12, 56876, Control_c, 11, 11, 114
12, 56902, Control_c, 11, 11, 118
12, 56966, Control_c, 11, 11, 110
12, 56994, Control_c, 11, 11, 100
12, 57022, Control_c, 11, 11, 90
12, 57050, Control_c, 11, 11, 80
12, 57072, Note_off_c, 11, 35, 64
12, 57077, Control_c, 11, 11, 70
12, 57120, Control_c, 11, 11, 100
12, 57232, Note_on_c, 11, 34, 119
12, 57308, Note_off_c, 11, 34, 64
12, 57343, Note_on_c, 11, 35, 116
12, 57425, Note_off_c, 11, 35, 64
12, 57462, Note_on_c, 11, 37, 118
12, 57542, Note_off_c, 11, 37, 64
12, 57590, Note_on_c, 11, 39, 118
12, 57721, Note_off_c, 11, 39, 64
12, 57831, Note_on_c, 11, 44, 127
12, 57943, Note_on_c, 11, 42, 92
12, 57954, Note_off_c, 11, 44, 64
12, 58053, Note_off_c, 11, 42, 64
12, 58069, Note_on_c, 11, 44, 92
12, 58189, Note_off_c, 11, 44, 64
12, 58314, Note_on_c, 11, 37, 127
12, 58431, Note_on_c, 11, 35, 82
12, 58434, Note_off_c, 11, 37, 64
12, 58548, Note_on_c, 11, 37, 94
12, 58568, Note_off_c, 11, 35, 64
12, 58683, Note_off_c, 11, 37, 64
12, 58803, Note_on_c, 11, 42, 106
12, 58915, Note_on_c, 11, 40, 89
12, 58927, Note_off_c, 11, 42, 64
12, 59033, Note_on_c, 11, 42, 85
12, 59038, Note_off_c, 11, 40, 64
12, 59154, Note_off_c, 11, 42, 64
12, 59282, Note_on_c, 11, 35, 110
12, 59382, Note_off_c, 11, 35, 64
12, 59389, Note_on_c, 11, 34, 90
12, 59514, Note_on_c, 11, 35, 79
12, 59545, Note_off_c, 11, 34, 64
12, 59674, Note_off_c, 11, 35, 64
12, 59773, Note_on_c, 11, 40, 109
12, 59870, Note_on_c, 11, 39, 94
12, 59884, Note_off_c, 11, 40, 64
12, 59976, Control_c, 11, 11, 78
12, 59976, Note_off_c, 11, 39, 64
12, 59993, Note_on_c, 11, 40, 100
12, 60001, Control_c, 11, 11, 81
12, 60026, Control_c, 11, 11, 84
12, 60051, Control_c, 11, 11, 87
12, 60077, Control_c, 11, 11, 90
12, 60102, Control_c, 11, 11, 94
12, 60127, Control_c, 11, 11, 97
12, 60153, Control_c, 11, 11, 100
12, 60178, Control_c, 11, 11, 103
12, 60203, Control_c, 11, 11, 106
12, 60229, Control_c, 11, 11, 110
12, 60254, Control_c, 11, 11, 113
12, 60279, Control_c, 11, 11, 116
12, 60304, Control_c, 11, 11, 120
12, 60403, Control_c, 11, 11, 112
12, 60431, Control_c, 11, 11, 102
12, 60459, Control_c, 11, 11, 92
12, 60487, Control_c, 11, 11, 83
12, 60515, Control_c, 11, 11, 73
12, 60542, Control_c, 11, 11, 64
12, 60559, Note_off_c, 11, 40, 64
12, 60578, Control_c, 11, 11, 100
12, 60599, Note_on_c, 11, 42, 123
12, 60682, Note_off_c, 11, 42, 64
12, 60708, Note_on_c, 11, 40, 118
12, 60796, Note_off_c, 11, 40, 64
12, 60825, Note_on_c, 11, 39, 99
12, 60907, Note_off_c, 11, 39, 64
12, 60945, Note_on_c, 11, 37, 106
12, 61024, Note_off_c, 11, 37, 64
12, 61062, Note_on_c, 11, 35, 99
12, 61136, Note_off_c, 11, 35, 64
12, 61178, Note_on_c, 11, 34, 100
12, 61253, Note_off_c, 11, 34, 64
12, 61292, Note_on_c, 11, 32, 96
12, 61367, Note_off_c, 11, 32, 64
12, 61421, Note_on_c, 11, 30, 113
12, 61588, Note_off_c, 11, 30, 64
12, 61666, Note_on_c, 11, 35, 96
12, 61765, Note_off_c, 11, 35, 64
12, 61890, Note_on_c, 11, 42, 100
12, 61980, Note_off_c, 11, 42, 64
12, 62133, Note_on_c, 11, 30, 90
12, 62227, Note_off_c, 11, 30, 64
12, 62377, Control_c, 11, 11, 82
12, 62386, Note_on_c, 11, 35, 104
12, 62403, Control_c, 11, 11, 84
12, 62429, Control_c, 11, 11, 86
12, 62455, Control_c, 11, 11, 88
12, 62481, Control_c, 11, 11, 90
12, 62507, Control_c, 11, 11, 92
12, 62533, Control_c, 11, 11, 95
12, 62559, Control_c, 11, 11, 97
12, 62585, Control_c, 11, 11, 99
12, 62611, Control_c, 11, 11, 101
12, 62637, Control_c, 11, 11, 103
12, 62657, Control_c, 11, 11, 106
12, 62682, Control_c, 11, 11, 98
12, 62708, Control_c, 11, 11, 90
12, 62734, Control_c, 11, 11, 83
12, 62759, Control_c, 11, 11, 75
12, 62785, Control_c, 11, 11, 67
12, 62794, Note_off_c, 11, 35, 64
12, 62810, Control_c, 11, 11, 60
12, 62867, Control_c, 11, 11, 100
12, 63136, Note_on_c, 11, 47, 127
12, 63240, Note_on_c, 11, 46, 79
12, 63247, Note_off_c, 11, 47, 64
12, 63357, Note_on_c, 11, 47, 86
12, 63364, Note_off_c, 11, 46, 64
12, 63463, Note_off_c, 11, 47, 64
12, 63604, Note_on_c, 11, 42, 127
12, 63702, Note_on_c, 11, 40, 79
12, 63711, Note_off_c, 11, 42, 64
12, 63819, Note_on_c, 11, 42, 84
12, 63822, Note_off_c, 11, 40, 64
12, 63911, Note_off_c, 11, 42, 64
12, 64100, Note_on_c, 11, 47, 127
12, 64203, Note_on_c, 11, 46, 82
12, 64208, Note_off_c, 11, 47, 64
12, 64326, Note_on_c, 11, 47, 88
12, 64333, Note_off_c, 11, 46, 64
12, 64399, Note_off_c, 11, 47, 64
12, 64554, Note_on_c, 11, 39, 127
12, 64654, Note_on_c, 11, 37, 79
12, 64670, Note_off_c, 11, 39, 64
12, 64773, Note_on_c, 11, 39, 86
12, 64779, Note_off_c, 11, 37, 64
12, 64855, Note_off_c, 11, 39, 64
12, 65048, Note_on_c, 11, 47, 127
12, 65157, Note_on_c, 11, 46, 83
12, 65160, Note_off_c, 11, 47, 64
12, 65278, Note_on_c, 11, 47, 91
12, 65293, Note_off_c, 11, 46, 64
12, 65377, Note_off_c, 11, 47, 64
12, 65517, Note_on_c, 11, 35, 113
12, 65614, Note_on_c, 11, 37, 104
12, 65629, Note_off_c, 11, 35, 64
12, 65705, Note_off_c, 11, 37, 64
12, 65736, Note_on_c, 11, 39, 106
12, 65833, Note_off_c, 11, 39, 64
12, 65980, Note_on_c, 11, 41, 102
12, 66074, Note_off_c, 11, 41, 64
12, 66219, Note_on_c, 11, 42, 102
12, 66328, Note_off_c, 11, 42, 64
12, 66475, Note_on_c, 11, 30, 88
12, 66549, Note_off_c, 11, 30, 64
12, 66946, Note_on_c, 11, 42, 104
12, 67063, Note_on_c, 11, 41, 84
12, 67074, Note_off_c, 11, 42, 64
12, 67187, Note_on_c, 11, 42, 79
12, 67188, Note_off_c, 11, 41, 64
12, 67287, Note_off_c, 11, 42, 64
12, 67436, Note_on_c, 11, 37, 105
12, 67534, Note_on_c, 11, 35, 79
12, 67544, Note_off_c, 11, 37, 64
12, 67656, Note_on_c, 11, 37, 79
12, 67663, Note_off_c, 11, 35, 64
12, 67753, Note_off_c, 11, 37, 64
12, 67905, Note_on_c, 11, 42, 104
12, 68006, Note_on_c, 11, 41, 88
12, 68022, Note_off_c, 11, 42, 64
12, 68117, Note_off_c, 11, 41, 64
12, 68126, Note_on_c, 11, 42, 79
12, 68232, Note_off_c, 11, 42, 64
12, 68395, Note_on_c, 11, 34, 110
12, 68493, Note_on_c, 11, 32, 90
12, 68505, Note_off_c, 11, 34, 64
12, 68607, Note_on_c, 11, 34, 79
12, 68618, Note_off_c, 11, 32, 64
12, 68716, Note_off_c, 11, 34, 64
12, 68874, Note_on_c, 11, 42, 106
12, 68967, Note_on_c, 11, 41, 90
12, 68983, Note_off_c, 11, 42, 64
12, 69087, Note_on_c, 11, 42, 79
12, 69097, Note_off_c, 11, 41, 64
12, 69199, Note_off_c, 11, 42, 64
12, 69355, Note_on_c, 11, 30, 118
12, 69446, Note_on_c, 11, 32, 95
12, 69463, Note_off_c, 11, 30, 64
12, 69572, Note_on_c, 11, 34, 95
12, 69575, Note_off_c, 11, 32, 64
12, 69697, Note_off_c, 11, 34, 64
12, 69835, Note_on_c, 11, 36, 90
12, 69930, Note_off_c, 11, 36, 64
12, 70070, Note_on_c, 11, 37, 86
12, 70219, Note_off_c, 11, 37, 64
12, 70302, Note_on_c, 11, 37, 74
12, 70465, Note_off_c, 11, 37, 64
12, 70534, Note_on_c, 11, 37, 74
12, 70700, Note_off_c, 11, 37, 64
12, 70782, Note_on_c, 11, 37, 74
12, 70933, Note_off_c, 11, 37, 64
12, 71022, Note_on_c, 11, 37, 78
12, 71227, Note_off_c, 11, 37, 64
12, 71280, Note_on_c, 11, 37, 72
12, 71407, Note_off_c, 11, 37, 64
12, 71501, Note_on_c, 11, 37, 72
12, 71633, Note_off_c, 11, 37, 64
12, 71753, Note_on_c, 11, 37, 72
12, 71879, Note_off_c, 11, 37, 64
12, 71994, Note_on_c, 11, 37, 78
12, 72179, Note_off_c, 11, 37, 64
12, 72250, Note_on_c, 11, 37, 78
12, 72348, Note_off_c, 11, 37, 64
12, 72464, Note_on_c, 11, 37, 96
12, 72569, Note_off_c, 11, 37, 64
12, 72706, Note_on_c, 11, 49, 111
12, 72775, Note_off_c, 11, 49, 64
12, 72933, Note_on_c, 11, 46, 111
12, 73151, Note_off_c, 11, 46, 64
12, 73205, Note_on_c, 11, 44, 105
12, 73301, Note_on_c, 11, 42, 94
12, 73312, Note_off_c, 11, 44, 64
12, 73384, Note_off_c, 11, 42, 64
12, 73429, Note_on_c, 11, 44, 100
12, 73619, Note_off_c, 11, 44, 64
12, 73681, Note_on_c, 11, 42, 92
12, 73784, Note_on_c, 11, 41, 79
12, 73800, Note_off_c, 11, 42, 64
12, 73906, Note_off_c, 11, 41, 64
12, 73916, Note_on_c, 11, 42, 85
12, 74091, Note_off_c, 11, 42, 64
12, 74151, Note_on_c, 11, 42, 83
12, 74277, Note_off_c, 11, 42, 64
12, 74401, Note_on_c, 11, 42, 79
12, 74521, Note_off_c, 11, 42, 64
12, 74635, Note_on_c, 11, 42, 79
12, 74756, Note_off_c, 11, 42, 64
12, 74884, Note_on_c, 11, 42, 99
12, 75070, Note_off_c, 11, 42, 64
12, 75142, Note_on_c, 11, 42, 79
12, 75251, Note_off_c, 11, 42, 64
12, 75372, Note_on_c, 11, 42, 79
12, 75481, Note_off_c, 11, 42, 64
12, 75602, Note_on_c, 11, 42, 79
12, 75724, Note_off_c, 11, 42, 64
12, 75839, Note_on_c, 11, 42, 94
12, 76020, Note_off_c, 11, 42, 64
12, 76093, Note_on_c, 11, 42, 83
12, 76185, Note_off_c, 11, 42, 64
12, 76312, Note_on_c, 11, 42, 86
12, 76404, Note_off_c, 11, 42, 64
12, 76550, Note_on_c, 11, 42, 81
12, 76649, Note_off_c, 11, 42, 64
12, 76800, Note_on_c, 11, 42, 99
12, 76977, Note_off_c, 11, 42, 64
12, 77037, Note_on_c, 11, 30, 79
12, 77131, Note_off_c, 11, 30, 64
12, 77270, Note_on_c, 11, 30, 79
12, 77410, Note_off_c, 11, 30, 64
12, 77515, Note_on_c, 11, 42, 100
12, 77623, Note_off_c, 11, 42, 64
12, 77760, Note_on_c, 11, 42, 113
12, 77972, Note_off_c, 11, 42, 64
12, 77989, Note_on_c, 11, 30, 81
12, 78081, Note_off_c, 11, 30, 64
12, 78228, Note_on_c, 11, 30, 106
12, 78318, Note_off_c, 11, 30, 64
12, 78470, Note_on_c, 11, 42, 127
12, 78564, Note_on_c, 11, 41, 94
12, 78579, Note_off_c, 11, 42, 64
12, 78690, Note_on_c, 11, 42, 90
12, 78699, Note_off_c, 11, 41, 64
12, 78833, Note_off_c, 11, 42, 64
12, 78954, Note_on_c, 11, 30, 127
12, 79049, Note_on_c, 11, 32, 101
12, 79065, Note_off_c, 11, 30, 64
12, 79173, Note_on_c, 11, 34, 113
12, 79189, Note_off_c, 11, 32, 64
12, 79282, Note_off_c, 11, 34, 64
12, 79414, Note_on_c, 11, 36, 111
12, 79519, Note_off_c, 11, 36, 64
12, 79661, Note_on_c, 11, 37, 118
12, 79836, Note_off_c, 11, 37, 64
12, 79913, Note_on_c, 11, 25, 108
12, 80017, Note_off_c, 11, 25, 64
12, 80150, Note_on_c, 11, 25, 106
12, 80267, Note_off_c, 11, 25, 64
12, 80389, Note_on_c, 11, 49, 115
12, 80481, Note_on_c, 11, 48, 93
12, 80493, Note_off_c, 11, 49, 64
12, 80608, Note_off_c, 11, 48, 64
12, 80610, Note_on_c, 11, 49, 79
12, 80778, Note_off_c, 11, 49, 64
12, 80871, Note_on_c, 11, 37, 99
12, 80973, Note_off_c, 11, 37, 64
12, 81095, Note_on_c, 11, 25, 99
12, 81219, Note_off_c, 11, 25, 64
12, 81340, Note_on_c, 11, 37, 115
12, 81448, Note_on_c, 11, 36, 83
12, 81463, Note_off_c, 11, 37, 64
12, 81571, Note_off_c, 11, 36, 64
12, 81579, Note_on_c, 11, 37, 79
12, 81743, Note_off_c, 11, 37, 64
12, 81817, Note_on_c, 11, 25, 99
12, 81913, Note_off_c, 11, 25, 64
12, 82044, Note_on_c, 11, 25, 96
12, 82151, Note_off_c, 11, 25, 64
12, 82294, Note_on_c, 11, 41, 97
12, 82398, Note_off_c, 11, 41, 64
12, 82533, Note_on_c, 11, 42, 118
12, 82753, Note_off_c, 11, 42, 64
12, 82794, Note_on_c, 11, 39, 104
12, 82879, Note_off_c, 11, 39, 64
12, 83027, Note_on_c, 11, 35, 92
12, 83140, Note_off_c, 11, 35, 64
12, 83271, Note_on_c, 11, 37, 94
12, 83363, Note_off_c, 11, 37, 64
12, 83513, Note_on_c, 11, 39, 125
12, 83731, Note_off_c, 11, 39, 64
12, 83763, Note_on_c, 11, 37, 127
12, 83862, Note_off_c, 11, 37, 64
12, 83865, Note_on_c, 11, 35, 85
12, 83958, Note_off_c, 11, 35, 64
12, 84006, Note_on_c, 11, 34, 104
12, 84199, Note_off_c, 11, 34, 64
12, 84259, Note_on_c, 11, 32, 127
12, 84340, Note_off_c, 11, 32, 64
12, 84344, Note_on_c, 11, 30, 83
12, 84433, Note_off_c, 11, 30, 64
12, 84482, Note_on_c, 11, 35, 109
12, 84683, Note_off_c, 11, 35, 64
12, 84744, Note_on_c, 11, 34, 123
12, 84823, Note_on_c, 11, 32, 79
12, 84827, Note_off_c, 11, 34, 64
12, 84922, Note_off_c, 11, 32, 64
12, 84941, Note_on_c, 11, 30, 92
12, 85068, Note_off_c, 11, 30, 64
12, 85201, Note_on_c, 11, 42, 127
12, 85294, Note_on_c, 11, 41, 83
12, 85304, Note_off_c, 11, 42, 64
12, 85372, Note_off_c, 11, 41, 64
12, 85423, Note_on_c, 11, 39, 123
12, 85644, Note_off_c, 11, 39, 64
12, 85678, Note_on_c, 11, 37, 102
12, 85762, Note_on_c, 11, 35, 94
12, 85766, Note_off_c, 11, 37, 64
12, 85859, Note_off_c, 11, 35, 64
12, 85885, Note_on_c, 11, 34, 99
12, 86003, Note_off_c, 11, 34, 64
12, 86147, Note_on_c, 11, 36, 105
12, 86256, Note_off_c, 11, 36, 64
12, 86386, Note_on_c, 11, 37, 106
12, 86554, Note_off_c, 11, 37, 64
12, 86625, Note_on_c, 11, 25, 90
12, 86743, Note_off_c, 11, 25, 64
12, 86860, Note_on_c, 11, 25, 100
12, 86987, Note_off_c, 11, 25, 64
12, 87114, Note_on_c, 11, 37, 127
12, 87205, Note_off_c, 11, 37, 64
12, 87216, Note_on_c, 11, 39, 89
12, 87314, Note_off_c, 11, 39, 64
12, 87339, Note_on_c, 11, 41, 105
12, 87532, Note_off_c, 11, 41, 64
12, 87583, Note_on_c, 11, 42, 100
12, 87673, Note_off_c, 11, 42, 64
12, 87828, Note_on_c, 11, 44, 117
12, 87923, Note_off_c, 11, 44, 64
12, 88063, Note_on_c, 11, 37, 96
12, 88140, Note_off_c, 11, 37, 64
12, 88317, Note_on_c, 11, 42, 123
12, 88489, Note_off_c, 11, 42, 64
12, 88554, Note_on_c, 11, 35, 92
12, 88638, Note_off_c, 11, 35, 64
12, 88797, Note_on_c, 11, 37, 99
12, 88891, Note_off_c, 11, 37, 64
12, 89040, Note_on_c, 11, 25, 90
12, 89114, Note_off_c, 11, 25, 64
12, 89180, Control_c, 11, 11, 48
12, 89203, Control_c, 11, 11, 51
12, 89227, Control_c, 11, 11, 55
12, 89251, Control_c, 11, 11, 59
12, 89264, Note_on_c, 11, 27, 127
12, 89275, Control_c, 11, 11, 63
12, 89299, Control_c, 11, 11, 67
12, 89323, Control_c, 11, 11, 71
12, 89347, Control_c, 11, 11, 75
12, 89371, Control_c, 11, 11, 79
12, 89395, Control_c, 11, 11, 82
12, 89419, Control_c, 11, 11, 86
12, 89443, Control_c, 11, 11, 90
12, 89467, Control_c, 11, 11, 94
12, 89491, Control_c, 11, 11, 98
12, 89515, Control_c, 11, 11, 102
12, 89539, Control_c, 11, 11, 106
12, 89563, Control_c, 11, 11, 110
12, 89587, Control_c, 11, 11, 114
12, 89611, Control_c, 11, 11, 118
12, 89634, Control_c, 11, 11, 122
12, 89635, Control_c, 11, 11, 122
12, 89660, Control_c, 11, 11, 112
12, 89686, Control_c, 11, 11, 102
12, 89712, Control_c, 11, 11, 92
12, 89737, Control_c, 11, 11, 82
12, 89744, Note_off_c, 11, 27, 64
12, 89763, Control_c, 11, 11, 72
12, 89788, Control_c, 11, 11, 62
12, 89824, Control_c, 11, 11, 100
12, 89989, Note_on_c, 11, 29, 100
12, 90074, Note_off_c, 11, 29, 64
12, 90228, Note_on_c, 11, 30, 100
12, 90408, Note_off_c, 11, 30, 64
12, 90465, Note_on_c, 11, 35, 91
12, 90570, Note_off_c, 11, 35, 64
12, 90701, Note_on_c, 11, 37, 96
12, 90824, Note_off_c, 11, 37, 64
12, 90950, Note_on_c, 11, 25, 104
12, 91045, Note_off_c, 11, 25, 64
12, 91182, Control_c, 11, 11, 56
12, 91189, Note_on_c, 11, 42, 127
12, 91210, Control_c, 11, 11, 62
12, 91238, Control_c, 11, 11, 69
12, 91266, Control_c, 11, 11, 76
12, 91294, Control_c, 11, 11, 83
12, 91322, Control_c, 11, 11, 90
12, 91350, Control_c, 11, 11, 97
12, 91377, Control_c, 11, 11, 104
12, 91398, Note_off_c, 11, 42, 64
12, 91427, Control_c, 11, 11, 100
12, 91448, Note_on_c, 11, 41, 115
12, 91525, Note_off_c, 11, 41, 64
12, 91554, Note_on_c, 11, 39, 85
12, 91624, Note_off_c, 11, 39, 64
12, 91667, Note_on_c, 11, 37, 109
12, 91749, Note_off_c, 11, 37, 64
12, 91782, Note_on_c, 11, 35, 94
12, 91855, Note_off_c, 11, 35, 64
12, 91900, Note_on_c, 11, 34, 89
12, 91970, Note_off_c, 11, 34, 64
12, 92009, Note_on_c, 11, 32, 74
12, 92081, Note_off_c, 11, 32, 64
12, 92153, Note_on_c, 11, 30, 67
12, 92418, Note_off_c, 11, 30, 64
12, 93099, Note_on_c, 11, 30, 42
12, 93246, Note_off_c, 11, 30, 64
12, 94065, Note_on_c, 11, 30, 48
12, 94246, Note_off_c, 11, 30, 64
12, 95020, Note_on_c, 11, 30, 50
12, 95200, Note_off_c, 11, 30, 64
12, 95989, Note_on_c, 11, 30, 60
12, 96156, Note_off_c, 11, 30, 64
12, 96935, Note_on_c, 11, 30, 59
12, 97093, Note_off_c, 11, 30, 64
12, 97919, Note_on_c, 11, 42, 102
12, 98054, Note_off_c, 11, 42, 64
12, 98158, Note_on_c, 11, 41, 91
12, 98245, Note_off_c, 11, 41, 64
12, 98393, Note_on_c, 11, 39, 113
12, 98505, Note_off_c, 11, 39, 64
12, 98644, Note_on_c, 11, 44, 95
12, 98736, Note_off_c, 11, 44, 64
12, 98861, Control_c, 11, 11, 74
12, 98887, Control_c, 11, 11, 77
12, 98890, Note_on_c, 11, 37, 127
12, 98913, Control_c, 11, 11, 80
12, 98939, Control_c, 11, 11, 83
12, 98966, Control_c, 11, 11, 86
12, 98992, Control_c, 11, 11, 90
12, 99018, Control_c, 11, 11, 93
12, 99044, Control_c, 11, 11, 96
12, 99070, Control_c, 11, 11, 100
12, 99138, Note_off_c, 11, 37, 64
12, 99156, Note_on_c, 11, 36, 108
12, 99245, Note_off_c, 11, 36, 64
12, 99255, Note_on_c, 11, 34, 99
12, 99341, Note_off_c, 11, 34, 64
12, 99360, Note_on_c, 11, 32, 108
12, 99450, Note_off_c, 11, 32, 64
12, 99463, Note_on_c, 11, 30, 89
12, 99549, Note_off_c, 11, 30, 64
12, 99589, Note_on_c, 11, 29, 95
12, 99672, Note_off_c, 11, 29, 64
12, 99681, Note_on_c, 11, 27, 71
12, 99762, Note_off_c, 11, 27, 64
12, 99799, Note_on_c, 11, 26, 58
12, 100006, Note_off_c, 11, 26, 64
12, 100791, Note_on_c, 11, 29, 56
12, 100943, Note_off_c, 11, 29, 64
12, 101739, Note_on_c, 11, 32, 62
12, 101892, Note_off_c, 11, 32, 64
12, 102729, Note_on_c, 11, 44, 61
12, 102892, Note_off_c, 11, 44, 64
12, 103660, Note_on_c, 11, 38, 58
12, 103888, Note_off_c, 11, 38, 64
12, 104605, Note_on_c, 11, 34, 79
12, 104831, Note_off_c, 11, 34, 64
12, 105592, Note_on_c, 11, 39, 119
12, 105752, Note_off_c, 11, 39, 64
12, 105805, Note_on_c, 11, 39, 94
12, 105926, Note_off_c, 11, 39, 64
12, 106039, Note_on_c, 11, 39, 94
12, 106178, Note_off_c, 11, 39, 64
12, 106278, Note_on_c, 11, 39, 94
12, 106397, Note_off_c, 11, 39, 64
12, 106513, Note_on_c, 11, 39, 117
12, 106694, Note_off_c, 11, 39, 64
12, 106766, Note_on_c, 11, 39, 92
12, 106891, Note_off_c, 11, 39, 64
12, 107010, Note_on_c, 11, 39, 92
12, 107118, Note_off_c, 11, 39, 64
12, 107260, Note_on_c, 11, 39, 127
12, 107361, Note_on_c, 11, 38, 110
12, 107376, Note_off_c, 11, 39, 64
12, 107492, Note_off_c, 11, 38, 64
12, 107499, Note_on_c, 11, 39, 90
12, 107632, Note_off_c, 11, 39, 64
12, 107740, Note_on_c, 11, 27, 127
12, 107841, Note_on_c, 11, 29, 115
12, 107847, Note_off_c, 11, 27, 64
12, 107957, Note_off_c, 11, 29, 64
12, 107982, Note_on_c, 11, 30, 96
12, 108126, Note_off_c, 11, 30, 64
12, 108252, Note_on_c, 11, 32, 100
12, 108361, Note_off_c, 11, 32, 64
12, 108474, Note_on_c, 11, 34, 94
12, 108672, Note_off_c, 11, 34, 64
12, 108724, Note_on_c, 11, 34, 79
12, 108872, Note_off_c, 11, 34, 64
12, 108945, Note_on_c, 11, 34, 79
12, 109081, Note_off_c, 11, 34, 64
12, 109187, Note_on_c, 11, 34, 79
12, 109294, Note_off_c, 11, 34, 64
12, 109427, Note_on_c, 11, 34, 92
12, 109619, Note_off_c, 11, 34, 64
12, 109684, Note_on_c, 11, 34, 79
12, 109772, Note_off_c, 11, 34, 64
12, 109901, Note_on_c, 11, 34, 79
12, 109995, Note_off_c, 11, 34, 64
12, 110143, Note_on_c, 11, 34, 83
12, 110246, Note_off_c, 11, 34, 64
12, 110386, Note_on_c, 11, 34, 104
12, 110570, Note_off_c, 11, 34, 64
12, 110639, Note_on_c, 11, 34, 79
12, 110750, Note_off_c, 11, 34, 64
12, 110873, Note_on_c, 11, 34, 91
12, 110973, Note_off_c, 11, 34, 64
12, 111102, Note_on_c, 11, 46, 127
12, 111191, Note_off_c, 11, 46, 64
12, 111339, Note_on_c, 11, 42, 118
12, 111537, Note_off_c, 11, 42, 64
12, 111608, Note_on_c, 11, 41, 101
12, 111687, Note_off_c, 11, 41, 64
12, 111693, Note_on_c, 11, 39, 102
12, 111774, Note_off_c, 11, 39, 64
12, 111817, Note_on_c, 11, 41, 119
12, 112017, Note_off_c, 11, 41, 64
12, 112089, Note_on_c, 11, 39, 102
12, 112175, Note_off_c, 11, 39, 64
12, 112179, Note_on_c, 11, 38, 102
12, 112255, Note_off_c, 11, 38, 64
12, 112287, Control_c, 11, 11, 74
12, 112313, Control_c, 11, 11, 77
12, 112322, Note_on_c, 11, 47, 127
12, 112340, Control_c, 11, 11, 80
12, 112367, Control_c, 11, 11, 84
12, 112393, Control_c, 11, 11, 87
12, 112420, Control_c, 11, 11, 91
12, 112447, Control_c, 11, 11, 94
12, 112474, Control_c, 11, 11, 98
12, 112500, Control_c, 11, 11, 101
12, 112527, Control_c, 11, 11, 104
12, 112554, Control_c, 11, 11, 108
12, 112580, Control_c, 11, 11, 112
12, 112657, Note_off_c, 11, 47, 64
12, 112679, Control_c, 11, 11, 100
12, 112700, Note_on_c, 11, 46, 102
12, 112778, Note_off_c, 11, 46, 64
12, 112805, Note_on_c, 11, 44, 108
12, 112882, Note_off_c, 11, 44, 64
12, 112903, Note_on_c, 11, 42, 94
12, 112979, Note_off_c, 11, 42, 64
12, 113018, Note_on_c, 11, 41, 102
12, 113081, Note_off_c, 11, 41, 64
12, 113130, Note_on_c, 11, 39, 92
12, 113206, Note_off_c, 11, 39, 64
12, 113256, Note_on_c, 11, 38, 92
12, 113407, Note_off_c, 11, 38, 64
12, 113493, Note_on_c, 11, 39, 83
12, 113613, Note_off_c, 11, 39, 64
12, 113742, Note_on_c, 11, 32, 82
12, 113848, Note_off_c, 11, 32, 64
12, 113990, Note_on_c, 11, 34, 83
12, 114091, Note_off_c, 11, 34, 64
12, 114236, Note_on_c, 11, 27, 79
12, 114559, Note_off_c, 11, 27, 64
12, 114957, Note_on_c, 11, 34, 79
12, 115017, Note_off_c, 11, 34, 64
12, 115171, Control_c, 11, 11, 82
12, 115198, Control_c, 11, 11, 86
12, 115204, Note_on_c, 11, 39, 79
12, 115225, Control_c, 11, 11, 91
12, 115252, Control_c, 11, 11, 95
12, 115279, Control_c, 11, 11, 100
12, 115306, Control_c, 11, 11, 104
12, 115333, Control_c, 11, 11, 109
12, 115359, Control_c, 11, 11, 114
12, 115388, Control_c, 11, 11, 106
12, 115413, Control_c, 11, 11, 99
12, 115438, Control_c, 11, 11, 92
12, 115441, Note_off_c, 11, 39, 64
12, 115463, Control_c, 11, 11, 85
12, 115488, Control_c, 11, 11, 79
12, 115513, Control_c, 11, 11, 72
12, 115584, Control_c, 11, 11, 100
12, 115908, Note_on_c, 11, 46, 79
12, 115975, Note_off_c, 11, 46, 64
12, 116116, Control_c, 11, 11, 82
12, 116139, Note_on_c, 11, 51, 79
12, 116143, Control_c, 11, 11, 86
12, 116170, Control_c, 11, 11, 90
12, 116197, Control_c, 11, 11, 94
12, 116224, Control_c, 11, 11, 99
12, 116251, Control_c, 11, 11, 103
12, 116278, Control_c, 11, 11, 107
12, 116304, Control_c, 11, 11, 112
12, 116368, Control_c, 11, 11, 104
12, 116400, Control_c, 11, 11, 94
12, 116403, Note_off_c, 11, 51, 64
12, 116433, Control_c, 11, 11, 84
12, 116465, Control_c, 11, 11, 74
12, 116606, Control_c, 11, 11, 100
12, 116869, Note_on_c, 11, 46, 79
12, 116958, Note_off_c, 11, 46, 64
12, 117131, Note_on_c, 11, 39, 127
12, 117224, Note_off_c, 11, 39, 64
12, 117231, Note_on_c, 11, 41, 94
12, 117306, Note_off_c, 11, 41, 64
12, 117350, Note_on_c, 11, 42, 121
12, 117413, Note_off_c, 11, 42, 64
12, 117453, Note_on_c, 11, 41, 105
12, 117511, Note_off_c, 11, 41, 64
12, 117574, Note_on_c, 11, 39, 119
12, 117654, Note_off_c, 11, 39, 64
12, 117687, Note_on_c, 11, 37, 102
12, 117750, Note_off_c, 11, 37, 64
12, 117807, Note_on_c, 11, 36, 115
12, 117865, Note_off_c, 11, 36, 64
12, 117924, Note_on_c, 11, 34, 106
12, 117980, Note_off_c, 11, 34, 64
12, 118055, Note_on_c, 11, 32, 94
12, 118286, Control_c, 11, 11, 100
12, 118314, Control_c, 11, 11, 92
12, 118342, Control_c, 11, 11, 84
12, 118370, Control_c, 11, 11, 76
12, 118398, Control_c, 11, 11, 68
12, 118404, Note_off_c, 11, 32, 64
12, 118426, Control_c, 11, 11, 60
12, 118453, Control_c, 11, 11, 52
12, 118531, Control_c, 11, 11, 100
12, 118800, Note_on_c, 11, 27, 79
12, 118868, Note_off_c, 11, 27, 64
12, 119037, Note_on_c, 11, 32, 79
12, 119280, Note_off_c, 11, 32, 64
12, 119764, Note_on_c, 11, 39, 79
12, 119844, Note_off_c, 11, 39, 64
12, 120003, Note_on_c, 11, 44, 79
12, 120245, Note_off_c, 11, 44, 64
12, 120718, Note_on_c, 11, 39, 79
12, 120786, Note_off_c, 11, 39, 64
12, 120965, Note_on_c, 11, 32, 110
12, 121066, Note_off_c, 11, 32, 64
12, 121067, Note_on_c, 11, 34, 94
12, 121146, Note_off_c, 11, 34, 64
12, 121183, Note_on_c, 11, 36, 105
12, 121256, Note_off_c, 11, 36, 64
12, 121298, Note_on_c, 11, 34, 90
12, 121371, Note_off_c, 11, 34, 64
12, 121413, Note_on_c, 11, 32, 104
12, 121499, Note_off_c, 11, 32, 64
12, 121536, Note_on_c, 11, 30, 100
12, 121612, Note_off_c, 11, 30, 64
12, 121653, Note_on_c, 11, 29, 100
12, 121729, Note_off_c, 11, 29, 64
12, 121748, Note_on_c, 11, 27, 92
12, 121826, Note_off_c, 11, 27, 64
12, 121873, Note_on_c, 11, 25, 87
12, 122085, Note_off_c, 11, 25, 64
12, 122637, Note_on_c, 11, 32, 79
12, 122703, Note_off_c, 11, 32, 64
12, 122867, Note_on_c, 11, 37, 79
12, 123079, Note_off_c, 11, 37, 64
12, 123600, Note_on_c, 11, 44, 79
12, 123691, Note_off_c, 11, 44, 64
12, 123829, Note_on_c, 11, 49, 85
12, 124051, Note_off_c, 11, 49, 64
12, 124571, Note_on_c, 11, 44, 81
12, 124641, Note_off_c, 11, 44, 64
12, 124809, Note_on_c, 11, 37, 79
12, 125060, Note_off_c, 11, 37, 64
12, 125525, Note_on_c, 11, 25, 71
12, 125616, Note_off_c, 11, 25, 64
12, 125763, Note_on_c, 11, 30, 79
12, 126003, Note_off_c, 11, 30, 64
12, 126466, Note_on_c, 11, 25, 69
12, 126559, Note_off_c, 11, 25, 64
12, 126720, Note_on_c, 11, 30, 79
12, 126989, Note_off_c, 11, 30, 64
12, 127433, Note_on_c, 11, 41, 114
12, 127525, Note_off_c, 11, 41, 64
12, 127675, Note_on_c, 11, 42, 118
12, 127781, Note_off_c, 11, 42, 64
12, 127781, Note_on_c, 11, 37, 101
12, 127856, Note_off_c, 11, 37, 64
12, 127912, Note_on_c, 11, 30, 101
12, 127991, Note_off_c, 11, 30, 64
12, 128022, Note_on_c, 11, 32, 100
12, 128098, Note_off_c, 11, 32, 64
12, 128147, Note_on_c, 11, 34, 119
12, 128247, Note_off_c, 11, 34, 64
12, 128249, Note_on_c, 11, 35, 90
12, 128323, Note_off_c, 11, 35, 64
12, 128374, Note_on_c, 11, 37, 99
12, 128439, Note_off_c, 11, 37, 64
12, 128489, Note_on_c, 11, 35, 96
12, 128552, Note_off_c, 11, 35, 64
12, 128616, Note_on_c, 11, 34, 119
12, 128701, Note_off_c, 11, 34, 64
12, 128736, Note_on_c, 11, 37, 96
12, 128806, Note_off_c, 11, 37, 64
12, 128852, Note_on_c, 11, 30, 114
12, 128919, Note_off_c, 11, 30, 64
12, 128966, Note_on_c, 11, 32, 114
12, 129038, Note_off_c, 11, 32, 64
12, 129097, Note_on_c, 11, 34, 119
12, 129179, Note_off_c, 11, 34, 64
12, 129218, Note_on_c, 11, 35, 102
12, 129292, Note_off_c, 11, 35, 64
12, 129339, Note_on_c, 11, 37, 97
12, 129416, Note_off_c, 11, 37, 64
12, 129457, Note_on_c, 11, 35, 99
12, 129530, Note_off_c, 11, 35, 64
12, 129584, Note_on_c, 11, 34, 119
12, 129668, Note_off_c, 11, 34, 64
12, 129702, Note_on_c, 11, 35, 102
12, 129768, Note_off_c, 11, 35, 64
12, 129815, Note_on_c, 11, 37, 97
12, 129886, Note_off_c, 11, 37, 64
12, 129932, Note_on_c, 11, 35, 97
12, 130010, Note_off_c, 11, 35, 64
12, 130068, Note_on_c, 11, 34, 118
12, 130139, Note_off_c, 11, 34, 64
12, 130178, Note_on_c, 11, 32, 110
12, 130252, Note_off_c, 11, 32, 64
12, 130294, Note_on_c, 11, 30, 113
12, 130372, Note_off_c, 11, 30, 64
12, 130398, Note_on_c, 11, 29, 100
12, 130457, Note_off_c, 11, 29, 64
12, 130519, Note_on_c, 11, 27, 82
12, 130790, Note_off_c, 11, 27, 64
12, 131488, Note_on_c, 11, 27, 72
12, 131755, Note_off_c, 11, 27, 64
12, 132464, Note_on_c, 11, 39, 66
12, 132745, Note_off_c, 11, 39, 64
12, 133420, Note_on_c, 11, 39, 72
12, 133693, Note_off_c, 11, 39, 64
12, 134381, Note_on_c, 11, 33, 69
12, 134666, Note_off_c, 11, 33, 64
12, 135330, Note_on_c, 11, 29, 61
12, 135642, Note_off_c, 11, 29, 64
12, 136310, Note_on_c, 11, 34, 119
12, 136475, Note_off_c, 11, 34, 64
12, 136570, Note_on_c, 11, 46, 86
12, 136639, Note_off_c, 11, 46, 64
12, 136794, Note_on_c, 11, 46, 113
12, 136912, Note_off_c, 11, 46, 64
12, 137047, Note_on_c, 11, 34, 99
12, 137130, Note_off_c, 11, 34, 64
12, 137288, Note_on_c, 11, 34, 116
12, 137457, Note_off_c, 11, 34, 64
12, 137536, Note_on_c, 11, 46, 90
12, 137600, Note_off_c, 11, 46, 64
12, 137762, Note_on_c, 11, 46, 110
12, 137883, Note_off_c, 11, 46, 64
12, 138003, Note_on_c, 11, 34, 100
12, 138092, Note_off_c, 11, 34, 64
12, 138235, Note_on_c, 11, 34, 127
12, 138367, Note_off_c, 11, 34, 64
12, 138488, Note_on_c, 11, 46, 127
12, 138593, Note_on_c, 11, 44, 94
12, 138610, Note_off_c, 11, 46, 64
12, 138683, Note_off_c, 11, 44, 64
12, 138711, Note_on_c, 11, 42, 113
12, 138913, Note_off_c, 11, 42, 64
12, 138969, Note_on_c, 11, 41, 100
12, 139060, Note_off_c, 11, 41, 64
12, 139063, Note_on_c, 11, 39, 90
12, 139153, Note_off_c, 11, 39, 64
12, 139194, Note_on_c, 11, 37, 110
12, 139382, Note_off_c, 11, 37, 64
12, 139447, Note_on_c, 11, 36, 93
12, 139544, Note_off_c, 11, 36, 64
12, 139547, Note_on_c, 11, 34, 90
12, 139661, Note_off_c, 11, 34, 64
12, 139685, Note_on_c, 11, 33, 100
12, 139829, Note_off_c, 11, 33, 64
12, 139922, Note_on_c, 11, 29, 100
12, 140010, Note_off_c, 11, 29, 64
12, 140155, Note_on_c, 11, 34, 106
12, 140279, Note_off_c, 11, 34, 64
12, 140394, Note_on_c, 11, 46, 104
12, 140483, Note_on_c, 11, 44, 79
12, 140495, Note_off_c, 11, 46, 64
12, 140596, Note_off_c, 11, 44, 64
12, 140626, Note_on_c, 11, 42, 113
12, 140801, Note_off_c, 11, 42, 64
12, 140878, Note_on_c, 11, 41, 100
12, 140971, Note_off_c, 11, 41, 64
12, 140974, Note_on_c, 11, 39, 85
12, 141059, Note_off_c, 11, 39, 64
12, 141125, Note_on_c, 11, 37, 123
12, 141238, Note_on_c, 11, 36, 91
12, 141252, Note_off_c, 11, 37, 64
12, 141320, Note_off_c, 11, 36, 64
12, 141346, Note_on_c, 11, 37, 89
12, 141416, Note_off_c, 11, 37, 64
12, 141457, Note_on_c, 11, 39, 100
12, 141529, Note_off_c, 11, 39, 64
12, 141586, Note_on_c, 11, 37, 121
12, 141667, Note_off_c, 11, 37, 64
12, 141706, Note_on_c, 11, 39, 104
12, 141774, Note_off_c, 11, 39, 64
12, 141818, Note_on_c, 11, 37, 104
12, 141891, Note_off_c, 11, 37, 64
12, 141931, Note_on_c, 11, 36, 93
12, 142002, Note_off_c, 11, 36, 64
12, 142066, Note_on_c, 11, 34, 116
12, 142222, Note_off_c, 11, 34, 64
12, 142312, Note_on_c, 11, 42, 104
12, 142412, Note_off_c, 11, 42, 64
12, 142537, Note_on_c, 11, 39, 104
12, 142627, Note_off_c, 11, 39, 64
12, 142787, Note_on_c, 11, 41, 110
12, 142870, Note_off_c, 11, 41, 64
12, 143003, Control_c, 11, 11, 76
12, 143029, Control_c, 11, 11, 79
12, 143040, Note_on_c, 11, 42, 127
12, 143056, Control_c, 11, 11, 82
12, 143083, Control_c, 11, 11, 85
12, 143109, Control_c, 11, 11, 88
12, 143136, Control_c, 11, 11, 92
12, 143163, Control_c, 11, 11, 95
12, 143190, Control_c, 11, 11, 98
12, 143216, Control_c, 11, 11, 102
12, 143243, Control_c, 11, 11, 105
12, 143270, Control_c, 11, 11, 108
12, 143296, Control_c, 11, 11, 112
12, 143349, Note_off_c, 11, 42, 64
12, 143409, Control_c, 11, 11, 100
12, 143422, Note_on_c, 11, 41, 109
12, 143475, Note_off_c, 11, 41, 64
12, 143530, Note_on_c, 11, 39, 114
12, 143598, Note_off_c, 11, 39, 64
12, 143632, Note_on_c, 11, 37, 108
12, 143697, Note_off_c, 11, 37, 64
12, 143752, Note_on_c, 11, 36, 104
12, 143810, Note_off_c, 11, 36, 64
12, 143864, Note_on_c, 11, 34, 90
12, 143940, Note_off_c, 11, 34, 64
12, 144002, Note_on_c, 11, 37, 79
12, 144126, Note_off_c, 11, 37, 64
12, 144244, Note_on_c, 11, 39, 81
12, 144337, Note_off_c, 11, 39, 64
12, 144477, Note_on_c, 11, 41, 79
12, 144574, Note_off_c, 11, 41, 64
12, 144720, Note_on_c, 11, 29, 79
12, 144805, Note_off_c, 11, 29, 64
12, 144950, Note_on_c, 11, 34, 79
12, 145106, Note_off_c, 11, 34, 64
12, 145206, Note_on_c, 11, 34, 79
12, 145352, Note_off_c, 11, 34, 64
12, 145445, Note_on_c, 11, 34, 85
12, 145607, Note_off_c, 11, 34, 64
12, 145683, Note_on_c, 11, 34, 83
12, 145830, Note_off_c, 11, 34, 64
12, 145917, Note_on_c, 11, 34, 96
12, 146090, Note_off_c, 11, 34, 64
12, 146152, Note_on_c, 11, 34, 79
12, 146272, Note_off_c, 11, 34, 64
12, 146381, Note_on_c, 11, 34, 79
12, 146499, Note_off_c, 11, 34, 64
12, 146623, Note_on_c, 11, 34, 82
12, 146739, Note_off_c, 11, 34, 64
12, 146867, Note_on_c, 11, 34, 96
12, 147059, Note_off_c, 11, 34, 64
12, 147123, Note_on_c, 11, 34, 81
12, 147225, Note_off_c, 11, 34, 64
12, 147357, Note_on_c, 11, 34, 91
12, 147461, Note_off_c, 11, 34, 64
12, 147604, Note_on_c, 11, 34, 100
12, 147697, Note_on_c, 11, 36, 83
12, 147703, Note_off_c, 11, 34, 64
12, 147823, Note_off_c, 11, 36, 64
12, 147827, Note_on_c, 11, 37, 79
12, 147958, Note_off_c, 11, 37, 64
12, 148068, Note_on_c, 11, 42, 113
12, 148165, Note_on_c, 11, 41, 67
12, 148180, Note_off_c, 11, 42, 64
12, 148289, Note_off_c, 11, 41, 64
12, 148296, Note_on_c, 11, 42, 79
12, 148420, Note_off_c, 11, 42, 64
12, 148573, Note_on_c, 11, 36, 93
12, 148668, Note_on_c, 11, 34, 79
12, 148674, Note_off_c, 11, 36, 64
12, 148797, Note_off_c, 11, 34, 64
12, 148797, Note_on_c, 11, 36, 63
12, 148925, Note_off_c, 11, 36, 64
12, 149056, Note_on_c, 11, 41, 115
12, 149160, Note_on_c, 11, 39, 79
12, 149166, Note_off_c, 11, 41, 64
12, 149282, Note_on_c, 11, 41, 66
12, 149297, Note_off_c, 11, 39, 64
12, 149392, Note_off_c, 11, 41, 64
12, 149525, Note_on_c, 11, 34, 104
12, 149622, Note_on_c, 11, 33, 85
12, 149643, Note_off_c, 11, 34, 64
12, 149752, Note_off_c, 11, 33, 64
12, 149752, Note_on_c, 11, 34, 79
12, 149892, Note_off_c, 11, 34, 64
12, 149986, Note_on_c, 11, 39, 106
12, 150077, Note_off_c, 11, 39, 64
12, 150218, Note_on_c, 11, 41, 110
12, 150309, Note_off_c, 11, 41, 64
12, 150460, Note_on_c, 11, 29, 97
12, 150541, Note_off_c, 11, 29, 64
12, 150700, Note_on_c, 11, 34, 104
12, 150871, Note_off_c, 11, 34, 64
12, 150944, Note_on_c, 11, 35, 86
12, 151047, Note_off_c, 11, 35, 64
12, 151180, Note_on_c, 11, 34, 87
12, 151279, Note_off_c, 11, 34, 64
12, 151426, Note_on_c, 11, 32, 83
12, 151523, Note_off_c, 11, 32, 64
12, 151669, Note_on_c, 11, 30, 79
12, 152050, Note_off_c, 11, 30, 64
12, 167038, Note_on_c, 11, 30, 119
12, 167186, Note_off_c, 11, 30, 64
12, 167278, Note_on_c, 11, 42, 79
12, 167342, Note_off_c, 11, 42, 64
12, 167501, Note_on_c, 11, 42, 118
12, 167585, Note_off_c, 11, 42, 64
12, 167740, Note_on_c, 11, 30, 113
12, 167818, Note_off_c, 11, 30, 64
12, 167996, Note_on_c, 11, 30, 119
12, 168151, Note_off_c, 11, 30, 64
12, 168240, Note_on_c, 11, 42, 94
12, 168302, Note_off_c, 11, 42, 64
12, 168460, Note_on_c, 11, 42, 106
12, 168547, Note_off_c, 11, 42, 64
12, 168696, Note_on_c, 11, 30, 99
12, 168779, Note_off_c, 11, 30, 64
12, 168938, Note_on_c, 11, 30, 116
12, 169041, Note_off_c, 11, 30, 64
12, 169174, Note_on_c, 11, 42, 123
12, 169248, Note_off_c, 11, 42, 64
12, 169265, Note_on_c, 11, 41, 89
12, 169344, Note_off_c, 11, 41, 64
12, 169399, Note_on_c, 11, 39, 84
12, 169499, Note_off_c, 11, 39, 64
12, 169657, Note_on_c, 11, 44, 117
12, 169736, Note_off_c, 11, 44, 64
12, 169898, Note_on_c, 11, 49, 127
12, 170037, Note_off_c, 11, 49, 64
12, 170145, Note_on_c, 11, 47, 90
12, 170258, Note_off_c, 11, 47, 64
12, 170376, Note_on_c, 11, 46, 87
12, 170493, Note_off_c, 11, 46, 64
12, 170629, Note_on_c, 11, 44, 100
12, 170733, Note_off_c, 11, 44, 64
12, 170866, Note_on_c, 11, 42, 100
12, 171004, Note_off_c, 11, 42, 64
12, 171109, Note_on_c, 11, 40, 94
12, 171206, Note_off_c, 11, 40, 64
12, 171347, Note_on_c, 11, 39, 92
12, 171445, Note_off_c, 11, 39, 64
12, 171593, Note_on_c, 11, 37, 99
12, 171684, Note_off_c, 11, 37, 64
12, 171838, Note_on_c, 11, 47, 118
12, 171973, Note_off_c, 11, 47, 64
12, 172083, Note_on_c, 11, 45, 85
12, 172174, Note_off_c, 11, 45, 64
12, 172308, Note_on_c, 11, 44, 83
12, 172403, Note_off_c, 11, 44, 64
12, 172561, Note_on_c, 11, 42, 91
12, 172661, Note_off_c, 11, 42, 64
12, 172798, Note_on_c, 11, 41, 105
12, 172930, Note_off_c, 11, 41, 64
12, 173027, Note_on_c, 11, 39, 87
12, 173119, Note_off_c, 11, 39, 64
12, 173262, Note_on_c, 11, 37, 85
12, 173350, Note_off_c, 11, 37, 64
12, 173512, Note_on_c, 11, 36, 82
12, 173596, Note_off_c, 11, 36, 64
12, 173760, Note_on_c, 11, 46, 104
12, 173886, Note_off_c, 11, 46, 64
12, 173994, Note_on_c, 11, 44, 87
12, 174090, Note_off_c, 11, 44, 64
12, 174232, Note_on_c, 11, 42, 85
12, 174323, Note_off_c, 11, 42, 64
12, 174475, Note_on_c, 11, 41, 76
12, 174557, Note_off_c, 11, 41, 64
12, 174717, Note_on_c, 11, 39, 92
12, 174863, Note_off_c, 11, 39, 64
12, 174961, Note_on_c, 11, 37, 79
12, 175053, Note_off_c, 11, 37, 64
12, 175186, Note_on_c, 11, 35, 79
12, 175285, Note_off_c, 11, 35, 64
12, 175435, Note_on_c, 11, 34, 79
12, 175521, Note_off_c, 11, 34, 64
12, 175662, Note_on_c, 11, 32, 85
12, 175791, Note_off_c, 11, 32, 64
12, 175924, Note_on_c, 11, 30, 79
12, 176009, Note_off_c, 11, 30, 64
12, 176148, Note_on_c, 11, 28, 79
12, 176238, Note_off_c, 11, 28, 64
12, 176388, Note_on_c, 11, 27, 73
12, 176470, Note_off_c, 11, 27, 64
12, 176623, Note_on_c, 11, 25, 67
12, 176978, Note_off_c, 11, 25, 64
12, 178527, Note_on_c, 11, 26, 60
12, 178895, Note_off_c, 11, 26, 64
12, 180431, Note_on_c, 11, 27, 50
12, 180826, Note_off_c, 11, 27, 64
12, 182365, Note_on_c, 11, 27, 47
12, 182751, Note_off_c, 11, 27, 64
12, 184293, Note_on_c, 11, 27, 66
12, 184656, Note_off_c, 11, 27, 64
12, 186205, Note_on_c, 11, 27, 58
12, 186649, Note_off_c, 11, 27, 64
12, 188155, Note_on_c, 11, 32, 119
12, 188388, Note_off_c, 11, 32, 64
12, 188407, Note_on_c, 11, 44, 86
12, 188472, Note_off_c, 11, 44, 64
12, 188630, Note_on_c, 11, 44, 100
12, 188711, Note_off_c, 11, 44, 64
12, 188859, Note_on_c, 11, 32, 106
12, 188933, Note_off_c, 11, 32, 64
12, 189102, Note_on_c, 11, 32, 119
12, 189287, Note_off_c, 11, 32, 64
12, 189344, Note_on_c, 11, 44, 90
12, 189420, Note_off_c, 11, 44, 64
12, 189571, Note_on_c, 11, 44, 113
12, 189662, Note_off_c, 11, 44, 64
12, 189808, Note_on_c, 11, 32, 118
12, 189899, Note_off_c, 11, 32, 64
12, 190064, Note_on_c, 11, 30, 119
12, 190277, Note_off_c, 11, 30, 64
12, 190317, Note_on_c, 11, 42, 96
12, 190385, Note_off_c, 11, 42, 64
12, 190538, Note_on_c, 11, 42, 110
12, 190617, Note_off_c, 11, 42, 64
12, 190776, Note_on_c, 11, 30, 113
12, 190865, Note_off_c, 11, 30, 64
12, 191031, Note_on_c, 11, 30, 119
12, 191233, Note_off_c, 11, 30, 64
12, 191277, Note_on_c, 11, 42, 96
12, 191348, Note_off_c, 11, 42, 64
12, 191498, Note_on_c, 11, 42, 113
12, 191593, Note_off_c, 11, 42, 64
12, 191740, Note_on_c, 11, 30, 113
12, 191825, Note_off_c, 11, 30, 64
12, 191981, Note_on_c, 11, 28, 116
12, 192187, Note_off_c, 11, 28, 64
12, 192232, Note_on_c, 11, 40, 96
12, 192306, Note_off_c, 11, 40, 64
12, 192459, Note_on_c, 11, 40, 116
12, 192548, Note_off_c, 11, 40, 64
12, 192697, Note_on_c, 11, 28, 113
12, 192787, Note_off_c, 11, 28, 64
12, 192946, Note_on_c, 11, 28, 116
12, 193160, Note_off_c, 11, 28, 64
12, 193195, Note_on_c, 11, 40, 85
12, 193267, Note_off_c, 11, 40, 64
12, 193426, Note_on_c, 11, 40, 118
12, 193513, Note_off_c, 11, 40, 64
12, 193651, Note_on_c, 11, 28, 113
12, 193749, Note_off_c, 11, 28, 64
12, 193911, Note_on_c, 11, 27, 118
12, 194113, Note_off_c, 11, 27, 64
12, 194170, Note_on_c, 11, 39, 104
12, 194254, Note_off_c, 11, 39, 64
12, 194397, Note_on_c, 11, 39, 116
12, 194491, Note_off_c, 11, 39, 64
12, 194637, Note_on_c, 11, 27, 100
12, 194725, Note_off_c, 11, 27, 64
12, 194871, Note_on_c, 11, 27, 104
12, 195048, Note_off_c, 11, 27, 64
12, 195118, Note_on_c, 11, 39, 99
12, 195207, Note_off_c, 11, 39, 64
12, 195340, Note_on_c, 11, 39, 106
12, 195455, Note_off_c, 11, 39, 64
12, 195578, Note_on_c, 11, 37, 106
12, 195699, Note_off_c, 11, 37, 64
12, 195838, Note_on_c, 11, 35, 116
12, 195989, Note_off_c, 11, 35, 64
12, 196067, Note_on_c, 11, 37, 94
12, 196161, Note_off_c, 11, 37, 64
12, 196306, Note_on_c, 11, 39, 110
12, 196390, Note_off_c, 11, 39, 64
12, 196548, Note_on_c, 11, 27, 100
12, 196641, Note_off_c, 11, 27, 64
12, 196795, Note_on_c, 11, 32, 106
12, 197181, Note_off_c, 11, 32, 64
12, 197519, Note_on_c, 11, 44, 119
12, 197623, Note_on_c, 11, 43, 90
12, 197632, Note_off_c, 11, 44, 64
12, 197751, Note_off_c, 11, 43, 64
12, 197751, Note_on_c, 11, 44, 94
12, 197836, Note_off_c, 11, 44, 64
12, 197999, Note_on_c, 11, 39, 119
12, 198107, Note_on_c, 11, 37, 96
12, 198119, Note_off_c, 11, 39, 64
12, 198235, Note_on_c, 11, 39, 92
12, 198238, Note_off_c, 11, 37, 64
12, 198316, Note_off_c, 11, 39, 64
12, 198484, Note_on_c, 11, 44, 119
12, 198590, Note_on_c, 11, 43, 97
12, 198609, Note_off_c, 11, 44, 64
12, 198714, Note_off_c, 11, 43, 64
12, 198717, Note_on_c, 11, 44, 96
12, 198811, Note_off_c, 11, 44, 64
12, 198959, Note_on_c, 11, 35, 119
12, 199069, Note_on_c, 11, 34, 96
12, 199073, Note_off_c, 11, 35, 64
12, 199150, Note_off_c, 11, 34, 64
12, 199172, Note_on_c, 11, 35, 96
12, 199263, Note_off_c, 11, 35, 64
12, 199438, Note_on_c, 11, 44, 119
12, 199542, Note_on_c, 11, 43, 93
12, 199558, Note_off_c, 11, 44, 64
12, 199668, Note_off_c, 11, 43, 64
12, 199672, Note_on_c, 11, 44, 96
12, 199780, Note_off_c, 11, 44, 64
12, 199912, Note_on_c, 11, 32, 127
12, 200013, Note_on_c, 11, 34, 102
12, 200033, Note_off_c, 11, 32, 64
12, 200128, Note_off_c, 11, 34, 64
12, 200130, Note_on_c, 11, 36, 113
12, 200249, Note_off_c, 11, 36, 64
12, 200379, Note_on_c, 11, 38, 119
12, 200471, Note_off_c, 11, 38, 64
12, 200625, Note_on_c, 11, 39, 119
12, 200751, Note_off_c, 11, 39, 64
12, 200876, Note_on_c, 11, 27, 119
12, 200967, Note_off_c, 11, 27, 64
12, 201360, Note_on_c, 11, 39, 119
12, 201467, Note_on_c, 11, 38, 93
12, 201481, Note_off_c, 11, 39, 64
12, 201585, Note_off_c, 11, 38, 64
12, 201597, Note_on_c, 11, 39, 92
12, 201707, Note_off_c, 11, 39, 64
12, 201836, Note_on_c, 11, 34, 119
12, 201936, Note_on_c, 11, 32, 96
12, 201941, Note_off_c, 11, 34, 64
12, 202053, Note_off_c, 11, 32, 64
12, 202059, Note_on_c, 11, 34, 92
12, 202167, Note_off_c, 11, 34, 64
12, 202321, Note_on_c, 11, 39, 119
12, 202421, Note_on_c, 11, 38, 119
12, 202439, Note_off_c, 11, 39, 64
12, 202544, Note_off_c, 11, 38, 64
12, 202552, Note_on_c, 11, 39, 102
12, 202649, Note_off_c, 11, 39, 64
12, 202799, Note_on_c, 11, 30, 119
12, 202894, Note_off_c, 11, 30, 64
12, 202898, Note_on_c, 11, 29, 94
12, 203008, Note_off_c, 11, 29, 64
12, 203020, Note_on_c, 11, 30, 96
12, 203111, Note_off_c, 11, 30, 64
12, 203280, Note_on_c, 11, 39, 119
12, 203373, Note_on_c, 11, 38, 109
12, 203389, Note_off_c, 11, 39, 64
12, 203487, Note_off_c, 11, 38, 64
12, 203497, Note_on_c, 11, 39, 96
12, 203574, Note_off_c, 11, 39, 64
12, 203756, Note_on_c, 11, 27, 127
12, 203857, Note_on_c, 11, 29, 108
12, 203858, Note_off_c, 11, 27, 64
12, 203973, Note_off_c, 11, 29, 64
12, 203979, Note_on_c, 11, 30, 97
12, 204119, Note_off_c, 11, 30, 64
12, 204225, Note_on_c, 11, 32, 116
12, 204308, Note_off_c, 11, 32, 64
12, 204482, Note_on_c, 11, 34, 127
12, 204586, Note_on_c, 11, 32, 90
12, 204588, Note_off_c, 11, 34, 64
12, 204685, Note_off_c, 11, 32, 64
12, 204694, Note_on_c, 11, 34, 114
12, 204764, Note_off_c, 11, 34, 64
12, 204817, Note_on_c, 11, 35, 118
12, 204875, Note_off_c, 11, 35, 64
12, 204936, Note_on_c, 11, 34, 119
12, 204993, Note_off_c, 11, 34, 64
12, 205041, Note_on_c, 11, 35, 118
12, 205097, Note_off_c, 11, 35, 64
12, 205158, Note_on_c, 11, 34, 113
12, 205217, Note_off_c, 11, 34, 64
12, 205282, Note_on_c, 11, 32, 113
12, 205345, Note_off_c, 11, 32, 64
12, 205436, Note_on_c, 11, 30, 109
12, 205810, Note_off_c, 11, 30, 64
12, 206164, Note_on_c, 11, 37, 99
12, 206232, Note_off_c, 11, 37, 64
12, 206394, Note_on_c, 11, 42, 116
12, 206502, Note_on_c, 11, 41, 83
12, 206517, Note_off_c, 11, 42, 64
12, 206604, Note_off_c, 11, 41, 64
12, 206616, Note_on_c, 11, 42, 81
12, 206690, Note_off_c, 11, 42, 64
12, 206735, Note_on_c, 11, 44, 104
12, 206801, Note_off_c, 11, 44, 64
12, 206858, Note_on_c, 11, 42, 113
12, 206940, Note_off_c, 11, 42, 64
12, 206981, Note_on_c, 11, 46, 94
12, 207051, Note_off_c, 11, 46, 64
12, 207103, Note_on_c, 11, 44, 113
12, 207176, Note_off_c, 11, 44, 64
12, 207210, Note_on_c, 11, 47, 104
12, 207278, Note_off_c, 11, 47, 64
12, 207345, Note_on_c, 11, 46, 116
12, 207432, Note_off_c, 11, 46, 64
12, 207451, Note_on_c, 11, 47, 104
12, 207521, Note_off_c, 11, 47, 64
12, 207566, Note_on_c, 11, 46, 110
12, 207632, Note_off_c, 11, 46, 64
12, 207676, Note_on_c, 11, 44, 106
12, 207744, Note_off_c, 11, 44, 64
12, 207809, Note_on_c, 11, 42, 116
12, 207882, Note_off_c, 11, 42, 64
12, 207938, Note_on_c, 11, 46, 99
12, 208007, Note_off_c, 11, 46, 64
12, 208055, Note_on_c, 11, 44, 106
12, 208118, Note_off_c, 11, 44, 64
12, 208162, Note_on_c, 11, 42, 104
12, 208234, Note_off_c, 11, 42, 64
12, 208303, Note_on_c, 11, 41, 110
12, 208372, Note_off_c, 11, 41, 64
12, 208425, Note_on_c, 11, 46, 113
12, 208512, Note_off_c, 11, 46, 64
12, 208533, Note_on_c, 11, 44, 79
12, 208612, Note_off_c, 11, 44, 64
12, 208656, Note_on_c, 11, 42, 92
12, 208731, Note_off_c, 11, 42, 64
12, 208784, Note_on_c, 11, 41, 97
12, 208852, Note_off_c, 11, 41, 64
12, 208893, Note_on_c, 11, 42, 83
12, 208969, Note_off_c, 11, 42, 64
12, 209014, Note_on_c, 11, 41, 75
12, 209070, Note_off_c, 11, 41, 64
12, 209132, Note_on_c, 11, 39, 71
12, 209193, Note_off_c, 11, 39, 64
12, 209279, Note_on_c, 11, 37, 66
12, 209489, Note_off_c, 11, 37, 64
12, 210214, Note_on_c, 11, 37, 56
12, 210478, Note_off_c, 11, 37, 64
12, 211200, Note_on_c, 11, 30, 60
12, 211389, Note_off_c, 11, 30, 64
12, 212154, Note_on_c, 11, 30, 60
12, 212427, Note_off_c, 11, 30, 64
12, 213099, Note_on_c, 11, 31, 46
12, 213364, Note_off_c, 11, 31, 64
12, 214064, Note_on_c, 11, 31, 46
12, 214361, Note_off_c, 11, 31, 64
12, 215017, Note_on_c, 11, 32, 60
12, 215288, Note_off_c, 11, 32, 64
12, 215980, Note_on_c, 11, 32, 60
12, 216256, Note_off_c, 11, 32, 64
12, 216936, Note_on_c, 11, 29, 50
12, 217229, Note_off_c, 11, 29, 64
12, 217892, Note_on_c, 11, 29, 47
12, 218156, Note_off_c, 11, 29, 64
12, 218857, Note_on_c, 11, 28, 64
12, 219130, Note_off_c, 11, 28, 64
12, 219813, Note_on_c, 11, 28, 50
12, 220071, Note_off_c, 11, 28, 64
12, 220784, Note_on_c, 11, 36, 91
12, 220972, Note_off_c, 11, 36, 64
12, 221053, Note_on_c, 11, 36, 83
12, 221160, Note_off_c, 11, 36, 64
12, 221268, Note_on_c, 11, 36, 76
12, 221386, Note_off_c, 11, 36, 64
12, 221494, Note_on_c, 11, 36, 78
12, 221607, Note_off_c, 11, 36, 64
12, 221738, Note_on_c, 11, 36, 73
12, 221924, Note_off_c, 11, 36, 64
12, 221987, Note_on_c, 11, 36, 69
12, 222097, Note_off_c, 11, 36, 64
12, 222211, Note_on_c, 11, 36, 72
12, 222345, Note_off_c, 11, 36, 64
12, 222459, Note_on_c, 11, 36, 76
12, 222584, Note_off_c, 11, 36, 64
12, 222712, Note_on_c, 11, 37, 79
12, 222902, Note_off_c, 11, 37, 64
12, 222968, Note_on_c, 11, 37, 79
12, 223082, Note_off_c, 11, 37, 64
12, 223181, Note_on_c, 11, 37, 79
12, 223296, Note_off_c, 11, 37, 64
12, 223414, Note_on_c, 11, 37, 79
12, 223519, Note_off_c, 11, 37, 64
12, 223664, Note_on_c, 11, 37, 91
12, 223849, Note_off_c, 11, 37, 64
12, 223915, Note_on_c, 11, 37, 79
12, 224030, Note_off_c, 11, 37, 64
12, 224150, Note_on_c, 11, 37, 79
12, 224256, Note_off_c, 11, 37, 64
12, 224380, Note_on_c, 11, 37, 79
12, 224489, Note_off_c, 11, 37, 64
12, 224621, Note_on_c, 11, 37, 91
12, 224813, Note_off_c, 11, 37, 64
12, 224863, Note_on_c, 11, 37, 79
12, 224977, Note_off_c, 11, 37, 64
12, 225085, Note_on_c, 11, 37, 79
12, 225210, Note_off_c, 11, 37, 64
12, 225338, Note_on_c, 11, 37, 79
12, 225448, Note_off_c, 11, 37, 64
12, 225586, Note_on_c, 11, 37, 91
12, 225764, Note_off_c, 11, 37, 64
12, 225827, Note_on_c, 11, 37, 79
12, 225929, Note_off_c, 11, 37, 64
12, 226042, Note_on_c, 11, 37, 79
12, 226155, Note_off_c, 11, 37, 64
12, 226287, Note_on_c, 11, 37, 79
12, 226399, Note_off_c, 11, 37, 64
12, 226530, Note_on_c, 11, 37, 90
12, 226703, Note_off_c, 11, 37, 64
12, 226773, Note_on_c, 11, 37, 79
12, 226875, Note_off_c, 11, 37, 64
12, 227002, Note_on_c, 11, 37, 83
12, 227098, Note_off_c, 11, 37, 64
12, 227252, Note_on_c, 11, 37, 83
12, 227348, Note_off_c, 11, 37, 64
12, 227500, Note_on_c, 11, 37, 86
12, 227683, Note_off_c, 11, 37, 64
12, 227743, Note_on_c, 11, 37, 79
12, 227843, Note_off_c, 11, 37, 64
12, 227964, Note_on_c, 11, 37, 82
12, 228069, Note_off_c, 11, 37, 64
12, 228213, Note_on_c, 11, 37, 92
12, 228325, Note_off_c, 11, 37, 64
12, 228456, Note_on_c, 11, 25, 94
12, 228649, Note_off_c, 11, 25, 64
12, 228698, Note_on_c, 11, 25, 79
12, 228803, Note_off_c, 11, 25, 64
12, 228910, Note_on_c, 11, 25, 83
12, 229011, Note_off_c, 11, 25, 64
12, 229164, Note_on_c, 11, 25, 79
12, 229263, Note_off_c, 11, 25, 64
12, 229418, Note_on_c, 11, 25, 94
12, 229573, Note_off_c, 11, 25, 64
12, 229632, Note_on_c, 11, 25, 79
12, 229737, Note_off_c, 11, 25, 64
12, 229857, Note_on_c, 11, 25, 79
12, 229968, Note_off_c, 11, 25, 64
12, 230129, Note_on_c, 11, 25, 79
12, 230241, Note_off_c, 11, 25, 64
12, 230389, Note_on_c, 11, 30, 110
12, 230568, Note_off_c, 11, 30, 64
12, 230614, Note_on_c, 11, 42, 87
12, 230678, Note_off_c, 11, 42, 64
12, 230858, Note_on_c, 11, 42, 94
12, 230946, Note_off_c, 11, 42, 64
12, 231084, Note_on_c, 11, 30, 104
12, 231169, Note_off_c, 11, 30, 64
12, 231326, Note_on_c, 11, 30, 113
12, 231527, Note_off_c, 11, 30, 64
12, 231581, Note_on_c, 11, 42, 85
12, 231671, Note_off_c, 11, 42, 64
12, 231821, Note_on_c, 11, 42, 118
12, 231920, Note_off_c, 11, 42, 64
12, 232079, Note_on_c, 11, 30, 113
12, 232164, Note_off_c, 11, 30, 64
12, 232310, Note_on_c, 11, 28, 100
12, 232546, Note_on_c, 11, 40, 89
12, 232560, Note_off_c, 11, 28, 64
12, 232638, Note_off_c, 11, 40, 64
12, 232790, Note_on_c, 11, 40, 116
12, 232883, Note_off_c, 11, 40, 64
12, 233023, Note_on_c, 11, 28, 100
12, 233112, Note_off_c, 11, 28, 64
12, 233266, Note_on_c, 11, 28, 113
12, 233483, Note_off_c, 11, 28, 64
12, 233497, Note_on_c, 11, 40, 99
12, 233584, Note_off_c, 11, 40, 64
12, 233738, Note_on_c, 11, 40, 116
12, 233836, Note_off_c, 11, 40, 64
12, 233977, Note_on_c, 11, 28, 94
12, 234073, Note_off_c, 11, 28, 64
12, 234216, Note_on_c, 11, 26, 110
12, 234463, Note_off_c, 11, 26, 64
12, 234479, Note_on_c, 11, 38, 110
12, 234558, Note_off_c, 11, 38, 64
12, 234709, Note_on_c, 11, 38, 119
12, 234812, Note_off_c, 11, 38, 64
12, 234941, Note_on_c, 11, 26, 100
12, 235034, Note_off_c, 11, 26, 64
12, 235182, Note_on_c, 11, 26, 115
12, 235407, Note_off_c, 11, 26, 64
12, 235425, Note_on_c, 11, 38, 110
12, 235518, Note_off_c, 11, 38, 64
12, 235660, Note_on_c, 11, 38, 119
12, 235766, Note_off_c, 11, 38, 64
12, 235897, Note_on_c, 11, 26, 110
12, 235997, Note_off_c, 11, 26, 64
12, 236140, Note_on_c, 11, 25, 113
12, 236477, Note_off_c, 11, 25, 64
12, 236856, Note_on_c, 11, 37, 99
12, 236960, Note_off_c, 11, 37, 64
12, 237097, Note_on_c, 11, 25, 110
12, 237451, Note_off_c, 11, 25, 64
12, 237812, Note_on_c, 11, 37, 99
12, 237912, Note_off_c, 11, 37, 64
12, 238047, Note_on_c, 11, 35, 113
12, 238420, Note_off_c, 11, 35, 64
12, 238807, Note_on_c, 11, 35, 118
12, 238923, Note_off_c, 11, 35, 64
12, 239047, Note_on_c, 11, 33, 127
12, 239159, Note_off_c, 11, 33, 64
12, 239167, Note_on_c, 11, 37, 100
12, 239274, Note_off_c, 11, 37, 64
12, 239286, Note_on_c, 11, 30, 116
12, 239379, Note_off_c, 11, 30, 64
12, 239382, Note_on_c, 11, 32, 99
12, 239499, Note_off_c, 11, 32, 64
12, 239510, Note_on_c, 11, 33, 110
12, 239619, Note_off_c, 11, 33, 64
12, 239635, Note_on_c, 11, 35, 79
12, 239724, Note_off_c, 11, 35, 64
12, 239748, Note_on_c, 11, 37, 116
12, 239829, Note_off_c, 11, 37, 64
12, 239866, Note_on_c, 11, 39, 99
12, 239939, Note_off_c, 11, 39, 64
12, 239995, Note_on_c, 11, 41, 119
12, 240106, Note_off_c, 11, 41, 64
12, 240113, Note_on_c, 11, 44, 100
12, 240190, Note_off_c, 11, 44, 64
12, 240236, Note_on_c, 11, 37, 127
12, 240329, Note_off_c, 11, 37, 64
12, 240339, Note_on_c, 11, 39, 110
12, 240412, Note_off_c, 11, 39, 64
12, 240455, Note_on_c, 11, 41, 112
12, 240550, Note_off_c, 11, 41, 64
12, 240574, Note_on_c, 11, 42, 86
12, 240651, Note_off_c, 11, 42, 64
12, 240693, Note_on_c, 11, 44, 110
12, 240768, Note_off_c, 11, 44, 64
12, 240818, Note_on_c, 11, 45, 110
12, 240893, Note_off_c, 11, 45, 64
12, 240953, Note_on_c, 11, 47, 121
12, 241034, Note_off_c, 11, 47, 64
12, 241060, Note_on_c, 11, 44, 91
12, 241135, Note_off_c, 11, 44, 64
12, 241184, Note_on_c, 11, 41, 119
12, 241252, Note_off_c, 11, 41, 64
12, 241310, Note_on_c, 11, 42, 110
12, 241386, Note_off_c, 11, 42, 64
12, 241430, Note_on_c, 11, 44, 125
12, 241522, Note_off_c, 11, 44, 64
12, 241541, Note_on_c, 11, 45, 102
12, 241616, Note_off_c, 11, 45, 64
12, 241660, Note_on_c, 11, 47, 110
12, 241732, Note_off_c, 11, 47, 64
12, 241774, Note_on_c, 11, 49, 119
12, 241841, Note_off_c, 11, 49, 64
12, 241899, Control_c, 11, 11, 84
12, 241913, Note_on_c, 11, 50, 127
12, 241922, Control_c, 11, 11, 87
12, 241945, Control_c, 11, 11, 91
12, 241968, Control_c, 11, 11, 95
12, 241991, Control_c, 11, 11, 99
12, 242014, Control_c, 11, 11, 103
12, 242037, Control_c, 11, 11, 107
12, 242060, Control_c, 11, 11, 111
12, 242083, Control_c, 11, 11, 115
12, 242106, Control_c, 11, 11, 119
12, 242129, Control_c, 11, 11, 124
12, 242158, Control_c, 11, 11, 110
12, 242186, Control_c, 11, 11, 103
12, 242214, Control_c, 11, 11, 96
12, 242228, Note_off_c, 11, 50, 64
12, 242241, Control_c, 11, 11, 90
12, 242263, Control_c, 11, 11, 100
12, 242308, Note_on_c, 11, 49, 113
12, 242391, Note_off_c, 11, 49, 64
12, 242418, Note_on_c, 11, 47, 116
12, 242502, Note_off_c, 11, 47, 64
12, 242526, Note_on_c, 11, 45, 100
12, 242594, Note_off_c, 11, 45, 64
12, 242630, Note_on_c, 11, 44, 106
12, 242711, Note_off_c, 11, 44, 64
12, 242734, Note_on_c, 11, 42, 99
12, 242818, Note_off_c, 11, 42, 64
12, 242864, Note_on_c, 11, 41, 105
12, 243011, Note_off_c, 11, 41, 64
12, 243114, Note_on_c, 11, 42, 106
12, 243235, Note_off_c, 11, 42, 64
12, 243353, Note_on_c, 11, 37, 106
12, 243461, Note_off_c, 11, 37, 64
12, 243600, Note_on_c, 11, 25, 119
12, 243693, Note_off_c, 11, 25, 64
12, 243840, Note_on_c, 11, 30, 113
12, 243986, Note_off_c, 11, 30, 64
12, 244085, Note_on_c, 11, 42, 87
12, 244153, Note_off_c, 11, 42, 64
12, 244309, Note_on_c, 11, 42, 106
12, 244392, Note_off_c, 11, 42, 64
12, 244544, Note_on_c, 11, 30, 100
12, 244625, Note_off_c, 11, 30, 64
12, 244786, Note_on_c, 11, 30, 113
12, 244947, Note_off_c, 11, 30, 64
12, 245037, Note_on_c, 11, 42, 85
12, 245114, Note_off_c, 11, 42, 64
12, 245273, Note_on_c, 11, 42, 100
12, 245367, Note_off_c, 11, 42, 64
12, 245510, Note_on_c, 11, 30, 100
12, 245584, Note_off_c, 11, 30, 64
12, 245751, Note_on_c, 11, 30, 123
12, 245901, Note_off_c, 11, 30, 64
12, 246009, Note_on_c, 11, 42, 91
12, 246089, Note_off_c, 11, 42, 64
12, 246099, Note_on_c, 11, 41, 87
12, 246214, Note_off_c, 11, 41, 64
12, 246224, Note_on_c, 11, 39, 94
12, 246332, Note_off_c, 11, 39, 64
12, 246473, Note_on_c, 11, 44, 96
12, 246551, Note_off_c, 11, 44, 64
12, 246713, Note_on_c, 11, 37, 106
12, 246832, Note_off_c, 11, 37, 64
12, 246965, Note_on_c, 11, 49, 119
12, 247051, Note_on_c, 11, 48, 78
12, 247062, Note_off_c, 11, 49, 64
12, 247167, Note_off_c, 11, 48, 64
12, 247175, Note_on_c, 11, 49, 90
12, 247257, Note_off_c, 11, 49, 64
12, 247439, Note_on_c, 11, 37, 119
12, 247508, Note_off_c, 11, 37, 64
12, 247668, Note_on_c, 11, 37, 119
12, 247809, Note_off_c, 11, 37, 64
12, 247920, Note_on_c, 11, 49, 121
12, 248011, Note_on_c, 11, 48, 84
12, 248015, Note_off_c, 11, 49, 64
12, 248114, Note_off_c, 11, 48, 64
12, 248136, Note_on_c, 11, 49, 81
12, 248209, Note_off_c, 11, 49, 64
12, 248378, Note_on_c, 11, 37, 119
12, 248452, Note_off_c, 11, 37, 64
12, 248629, Note_on_c, 11, 37, 119
12, 248786, Note_off_c, 11, 37, 64
12, 248886, Note_on_c, 11, 49, 123
12, 248976, Note_off_c, 11, 49, 64
12, 248977, Note_on_c, 11, 48, 84
12, 249086, Note_off_c, 11, 48, 64
12, 249095, Note_on_c, 11, 49, 90
12, 249185, Note_off_c, 11, 49, 64
12, 249353, Note_on_c, 11, 41, 97
12, 249444, Note_off_c, 11, 41, 64
12, 249577, Note_on_c, 11, 42, 100
12, 249744, Note_off_c, 11, 42, 64
12, 249830, Note_on_c, 11, 39, 99
12, 249931, Note_off_c, 11, 39, 64
12, 250065, Note_on_c, 11, 35, 92
12, 250154, Note_off_c, 11, 35, 64
12, 250303, Note_on_c, 11, 37, 92
12, 250389, Note_off_c, 11, 37, 64
12, 250561, Note_on_c, 11, 39, 127
12, 250751, Note_off_c, 11, 39, 64
12, 250822, Note_on_c, 11, 37, 104
12, 250902, Note_off_c, 11, 37, 64
12, 250902, Note_on_c, 11, 35, 87
12, 250988, Note_off_c, 11, 35, 64
12, 251033, Note_on_c, 11, 34, 121
12, 251210, Note_off_c, 11, 34, 64
12, 251292, Note_on_c, 11, 32, 99
12, 251374, Note_off_c, 11, 32, 64
12, 251381, Note_on_c, 11, 30, 91
12, 251473, Note_off_c, 11, 30, 64
12, 251528, Note_on_c, 11, 35, 121
12, 251727, Note_off_c, 11, 35, 64
12, 251802, Note_on_c, 11, 34, 113
12, 251887, Note_off_c, 11, 34, 64
12, 251888, Note_on_c, 11, 32, 94
12, 251958, Note_off_c, 11, 32, 64
12, 251993, Note_on_c, 11, 30, 106
12, 252131, Note_off_c, 11, 30, 64
12, 252265, Note_on_c, 11, 42, 119
12, 252338, Note_off_c, 11, 42, 64
12, 252352, Note_on_c, 11, 41, 90
12, 252431, Note_off_c, 11, 41, 64
12, 252478, Note_on_c, 11, 39, 96
12, 252687, Note_off_c, 11, 39, 64
12, 252731, Note_on_c, 11, 37, 111
12, 252812, Note_off_c, 11, 37, 64
12, 252826, Note_on_c, 11, 35, 90
12, 252901, Note_off_c, 11, 35, 64
12, 252946, Note_on_c, 11, 34, 104
12, 253099, Note_off_c, 11, 34, 64
12, 253197, Note_on_c, 11, 36, 93
12, 253307, Note_off_c, 11, 36, 64
12, 253432, Note_on_c, 11, 37, 99
12, 253580, Note_off_c, 11, 37, 64
12, 253673, Note_on_c, 11, 25, 91
12, 253772, Note_off_c, 11, 25, 64
12, 253905, Note_on_c, 11, 25, 92
12, 253986, Note_off_c, 11, 25, 64
12, 254175, Note_on_c, 11, 37, 127
12, 254272, Note_on_c, 11, 39, 102
12, 254291, Note_off_c, 11, 37, 64
12, 254356, Note_off_c, 11, 39, 64
12, 254407, Note_on_c, 11, 41, 110
12, 254563, Note_off_c, 11, 41, 64
12, 254642, Note_on_c, 11, 42, 118
12, 254772, Note_off_c, 11, 42, 64
12, 254874, Note_on_c, 11, 44, 110
12, 254995, Note_off_c, 11, 44, 64
12, 255117, Note_on_c, 11, 41, 110
12, 255217, Note_off_c, 11, 41, 64
12, 255366, Note_on_c, 11, 42, 113
12, 255519, Note_off_c, 11, 42, 64
12, 255607, Note_on_c, 11, 47, 104
12, 255695, Note_off_c, 11, 47, 64
12, 255837, Note_on_c, 11, 49, 100
12, 255927, Note_off_c, 11, 49, 64
12, 256078, Note_on_c, 11, 37, 104
12, 256172, Note_off_c, 11, 37, 64
12, 256308, Note_on_c, 11, 30, 109
12, 256496, Note_off_c, 11, 30, 64
12, 256565, Note_on_c, 11, 30, 89
12, 256699, Note_off_c, 11, 30, 64
12, 256801, Note_on_c, 11, 30, 96
12, 256950, Note_off_c, 11, 30, 64
12, 257028, Note_on_c, 11, 30, 91
12, 257174, Note_off_c, 11, 30, 64
12, 257268, Note_on_c, 11, 30, 96
12, 257446, Note_off_c, 11, 30, 64
12, 257511, Note_on_c, 11, 30, 90
12, 257647, Note_off_c, 11, 30, 64
12, 257755, Note_on_c, 11, 30, 89
12, 257865, Note_off_c, 11, 30, 64
12, 257986, Note_on_c, 11, 30, 83
12, 258112, Note_off_c, 11, 30, 64
12, 258240, Note_on_c, 11, 30, 106
12, 258429, Note_off_c, 11, 30, 64
12, 258484, Note_on_c, 11, 30, 82
12, 258603, Note_off_c, 11, 30, 64
12, 258708, Note_on_c, 11, 30, 89
12, 258819, Note_off_c, 11, 30, 64
12, 258948, Note_on_c, 11, 30, 85
12, 259064, Note_off_c, 11, 30, 64
12, 259190, Note_on_c, 11, 30, 105
12, 259350, Note_off_c, 11, 30, 64
12, 259426, Note_on_c, 11, 30, 81
12, 259550, Note_off_c, 11, 30, 64
12, 259672, Note_on_c, 11, 30, 91
12, 259783, Note_off_c, 11, 30, 64
12, 259897, Note_on_c, 11, 30, 83
12, 260021, Note_off_c, 11, 30, 64
12, 260144, Note_on_c, 11, 30, 104
12, 260299, Note_off_c, 11, 30, 64
12, 260379, Note_on_c, 11, 30, 81
12, 260500, Note_off_c, 11, 30, 64
12, 260615, Note_on_c, 11, 30, 85
12, 260714, Note_off_c, 11, 30, 64
12, 260850, Note_on_c, 11, 30, 85
12, 260967, Note_off_c, 11, 30, 64
12, 261098, Note_on_c, 11, 30, 102
12, 261268, Note_off_c, 11, 30, 64
12, 261359, Note_on_c, 11, 30, 94
12, 261451, Note_off_c, 11, 30, 64
12, 261570, Note_on_c, 11, 30, 100
12, 261673, Note_off_c, 11, 30, 64
12, 261813, Note_on_c, 11, 37, 119
12, 261915, Note_off_c, 11, 37, 64
12, 262066, Control_c, 11, 11, 76
12, 262078, Note_on_c, 11, 42, 127
12, 262088, Control_c, 11, 11, 78
12, 262111, Control_c, 11, 11, 81
12, 262134, Control_c, 11, 11, 84
12, 262157, Control_c, 11, 11, 87
12, 262179, Control_c, 11, 11, 90
12, 262202, Control_c, 11, 11, 93
12, 262225, Control_c, 11, 11, 96
12, 262247, Control_c, 11, 11, 100
12, 262319, Note_off_c, 11, 42, 64
12, 262334, Note_on_c, 11, 41, 108
12, 262427, Note_off_c, 11, 41, 64
12, 262439, Note_on_c, 11, 39, 92
12, 262519, Note_off_c, 11, 39, 64
12, 262567, Note_on_c, 11, 37, 116
12, 262675, Note_off_c, 11, 37, 64
12, 262679, Note_on_c, 11, 35, 96
12, 262758, Note_off_c, 11, 35, 64
12, 262796, Note_on_c, 11, 34, 104
12, 262889, Note_off_c, 11, 34, 64
12, 262919, Note_on_c, 11, 32, 112
12, 263000, Note_off_c, 11, 32, 64
12, 263025, Control_c, 11, 11, 76
12, 263051, Control_c, 11, 11, 80
12, 263054, Note_on_c, 11, 34, 123
12, 263078, Control_c, 11, 11, 85
12, 263104, Control_c, 11, 11, 90
12, 263131, Control_c, 11, 11, 95
12, 263157, Control_c, 11, 11, 100
12, 263255, Note_off_c, 11, 34, 64
12, 263282, Note_on_c, 11, 32, 112
12, 263377, Note_off_c, 11, 32, 64
12, 263392, Note_on_c, 11, 30, 98
12, 263504, Note_off_c, 11, 30, 64
12, 263513, Note_on_c, 11, 37, 119
12, 263604, Note_off_c, 11, 37, 64
12, 263757, Note_on_c, 11, 25, 118
12, 263884, Note_off_c, 11, 25, 64
12, 263970, Control_c, 11, 11, 64
12, 263984, Control_c, 11, 11, 65
12, 263998, Control_c, 11, 11, 66
12, 264012, Control_c, 11, 11, 68
12, 264022, Note_on_c, 11, 30, 113
12, 264026, Control_c, 11, 11, 69
12, 264040, Control_c, 11, 11, 70
12, 264054, Control_c, 11, 11, 72
12, 264068, Control_c, 11, 11, 73
12, 264082, Control_c, 11, 11, 74
12, 264096, Control_c, 11, 11, 76
12, 264110, Control_c, 11, 11, 77
12, 264124, Control_c, 11, 11, 78
12, 264138, Control_c, 11, 11, 80
12, 264152, Control_c, 11, 11, 81
12, 264166, Control_c, 11, 11, 82
12, 264180, Control_c, 11, 11, 84
12, 264194, Control_c, 11, 11, 85
12, 264208, Control_c, 11, 11, 86
12, 264222, Control_c, 11, 11, 88
12, 264236, Control_c, 11, 11, 89
12, 264250, Control_c, 11, 11, 90
12, 264264, Control_c, 11, 11, 92
12, 264278, Control_c, 11, 11, 93
12, 264292, Control_c, 11, 11, 94
12, 264306, Control_c, 11, 11, 96
12, 264320, Control_c, 11, 11, 97
12, 264334, Control_c, 11, 11, 99
12, 264348, Control_c, 11, 11, 100
12, 264362, Control_c, 11, 11, 101
12, 264376, Control_c, 11, 11, 103
12, 264390, Control_c, 11, 11, 104
12, 264404, Control_c, 11, 11, 105
12, 264418, Control_c, 11, 11, 107
12, 264432, Control_c, 11, 11, 108
12, 264446, Control_c, 11, 11, 109
12, 264460, Control_c, 11, 11, 111
12, 264474, Control_c, 11, 11, 112
12, 264488, Control_c, 11, 11, 113
12, 264502, Control_c, 11, 11, 115
12, 264516, Control_c, 11, 11, 116
12, 264530, Control_c, 11, 11, 117
12, 264544, Control_c, 11, 11, 119
12, 264558, Control_c, 11, 11, 120
12, 264571, Control_c, 11, 11, 122
12, 264824, Control_c, 11, 11, 116
12, 264838, Control_c, 11, 11, 105
12, 264852, Control_c, 11, 11, 94
12, 264866, Control_c, 11, 11, 83
12, 264880, Control_c, 11, 11, 72
12, 264894, Control_c, 11, 11, 61
12, 264908, Control_c, 11, 11, 50
12, 264921, Control_c, 11, 11, 40
12, 264983, Note_off_c, 11, 30, 64
12, 265083, Control_c, 11, 11, 100
12, 266880, End_track
13, 0, Start_track
13, 0, Instrument_name_t, "SC88-A"
13, 0, Title_t, "Cembalo"
13, 1440, Control_c, 12, 101, 0
13, 1450, Control_c, 12, 100, 0
13, 1450, Control_c, 12, 6, 0
13, 1470, Control_c, 12, 0, 0
13, 1480, Control_c, 12, 32, 1
13, 1490, Program_c, 12, 6
13, 1500, Control_c, 12, 10, 64
13, 1510, Control_c, 12, 11, 100
13, 1520, Control_c, 12, 7, 80
13, 1530, Control_c, 12, 93, 0
13, 1540, Control_c, 12, 91, 0
13, 1550, Pitch_bend_c, 12, 8192
13, 1560, Control_c, 12, 1, 0
13, 1570, Control_c, 12, 64, 0
13, 1580, Control_c, 12, 91, 64
13, 1590, Control_c, 12, 99, 1
13, 1600, Control_c, 12, 98, 32
13, 1610, Control_c, 12, 6, 64
13, 1620, Control_c, 12, 98, 33
13, 1630, Control_c, 12, 6, 50
13, 1640, Control_c, 12, 98, 99
13, 1650, Control_c, 12, 6, 64
13, 1660, Control_c, 12, 98, 100
13, 1670, Control_c, 12, 6, 50
13, 1680, Control_c, 12, 98, 102
13, 1690, Control_c, 12, 6, 64
13, 3606, Note_on_c, 12, 42, 127
13, 3606, Note_on_c, 12, 66, 127
13, 3606, Note_on_c, 12, 61, 127
13, 3607, Note_on_c, 12, 58, 127
13, 3668, Note_off_c, 12, 42, 64
13, 3674, Note_off_c, 12, 61, 64
13, 3677, Note_off_c, 12, 58, 64
13, 3684, Note_off_c, 12, 66, 64
13, 3838, Note_on_c, 12, 58, 127
13, 3839, Note_on_c, 12, 61, 127
13, 3841, Note_on_c, 12, 66, 127
13, 3856, Note_on_c, 12, 42, 127
13, 4093, Note_off_c, 12, 42, 64
13, 4097, Note_on_c, 12, 54, 127
13, 4153, Note_off_c, 12, 54, 64
13, 4331, Note_on_c, 12, 54, 127
13, 4390, Note_off_c, 12, 66, 64
13, 4390, Note_off_c, 12, 54, 64
13, 4403, Note_off_c, 12, 61, 64
13, 4428, Note_off_c, 12, 58, 64
13, 4563, Note_on_c, 12, 42, 127
13, 4564, Note_on_c, 12, 58, 127
13, 4564, Note_on_c, 12, 66, 127
13, 4564, Note_on_c, 12, 61, 127
13, 4619, Note_off_c, 12, 42, 64
13, 4623, Note_off_c, 12, 61, 64
13, 4624, Note_off_c, 12, 58, 64
13, 4630, Note_off_c, 12, 66, 64
13, 4799, Note_on_c, 12, 58, 127
13, 4800, Note_on_c, 12, 61, 127
13, 4802, Note_on_c, 12, 66, 127
13, 4804, Note_on_c, 12, 42, 127
13, 5040, Note_off_c, 12, 42, 64
13, 5044, Note_on_c, 12, 54, 127
13, 5106, Note_off_c, 12, 54, 64
13, 5261, Note_off_c, 12, 66, 64
13, 5281, Note_on_c, 12, 54, 127
13, 5286, Note_off_c, 12, 61, 64
13, 5313, Note_off_c, 12, 58, 64
13, 5336, Note_off_c, 12, 54, 64
13, 5521, Note_on_c, 12, 42, 127
13, 5522, Note_on_c, 12, 66, 127
13, 5522, Note_on_c, 12, 61, 127
13, 5522, Note_on_c, 12, 58, 127
13, 5578, Note_off_c, 12, 61, 64
13, 5578, Note_off_c, 12, 58, 64
13, 5579, Note_off_c, 12, 42, 64
13, 5584, Note_off_c, 12, 66, 64
13, 5758, Note_on_c, 12, 58, 127
13, 5759, Note_on_c, 12, 61, 127
13, 5760, Note_on_c, 12, 42, 127
13, 5761, Note_on_c, 12, 66, 127
13, 5974, Note_off_c, 12, 66, 64
13, 5976, Note_off_c, 12, 42, 64
13, 5993, Note_off_c, 12, 58, 64
13, 5996, Note_off_c, 12, 61, 64
13, 6010, Note_on_c, 12, 54, 127
13, 6010, Note_on_c, 12, 58, 127
13, 6093, Note_off_c, 12, 54, 64
13, 6093, Note_off_c, 12, 58, 64
13, 6117, Note_on_c, 12, 53, 127
13, 6117, Note_on_c, 12, 56, 127
13, 6218, Note_off_c, 12, 53, 64
13, 6218, Note_off_c, 12, 56, 64
13, 6233, Note_on_c, 12, 51, 127
13, 6233, Note_on_c, 12, 54, 127
13, 6351, Note_off_c, 12, 51, 64
13, 6351, Note_off_c, 12, 54, 64
13, 6477, Note_on_c, 12, 66, 127
13, 6478, Note_on_c, 12, 63, 127
13, 6478, Note_on_c, 12, 60, 127
13, 6479, Note_on_c, 12, 56, 127
13, 6530, Note_off_c, 12, 60, 64
13, 6534, Note_off_c, 12, 63, 64
13, 6543, Note_off_c, 12, 66, 64
13, 6555, Note_off_c, 12, 56, 64
13, 6720, Note_on_c, 12, 49, 127
13, 6720, Note_on_c, 12, 56, 127
13, 6729, Note_on_c, 12, 61, 127
13, 6748, Note_on_c, 12, 65, 127
13, 6848, Note_off_c, 12, 56, 64
13, 6858, Note_off_c, 12, 61, 64
13, 6866, Note_off_c, 12, 65, 64
13, 6934, Note_off_c, 12, 49, 64
13, 6976, Note_on_c, 12, 61, 127
13, 6981, Note_on_c, 12, 65, 127
13, 6983, Note_on_c, 12, 68, 127
13, 6984, Note_on_c, 12, 73, 127
13, 7049, Note_off_c, 12, 65, 64
13, 7052, Note_off_c, 12, 68, 64
13, 7055, Note_off_c, 12, 73, 64
13, 7058, Note_off_c, 12, 61, 64
13, 7075, Note_on_c, 12, 60, 127
13, 7186, Note_off_c, 12, 60, 64
13, 7194, Note_on_c, 12, 61, 127
13, 7273, Note_off_c, 12, 61, 64
13, 7433, Note_on_c, 12, 49, 127
13, 7433, Note_on_c, 12, 70, 127
13, 7434, Note_on_c, 12, 61, 127
13, 7434, Note_on_c, 12, 66, 127
13, 7501, Note_off_c, 12, 66, 64
13, 7508, Note_off_c, 12, 70, 64
13, 7508, Note_off_c, 12, 61, 64
13, 7519, Note_off_c, 12, 49, 64
13, 7677, Note_on_c, 12, 61, 127
13, 7678, Note_on_c, 12, 65, 127
13, 7679, Note_on_c, 12, 68, 127
13, 7680, Note_on_c, 12, 49, 127
13, 7889, Note_off_c, 12, 61, 64
13, 7893, Note_off_c, 12, 49, 64
13, 7930, Note_on_c, 12, 61, 127
13, 7949, Note_off_c, 12, 68, 64
13, 7966, Note_off_c, 12, 65, 64
13, 8022, Note_off_c, 12, 61, 64
13, 8039, Note_on_c, 12, 60, 127
13, 8155, Note_on_c, 12, 61, 127
13, 8173, Note_off_c, 12, 60, 64
13, 8223, Note_off_c, 12, 61, 64
13, 8394, Note_on_c, 12, 49, 127
13, 8394, Note_on_c, 12, 66, 127
13, 8394, Note_on_c, 12, 60, 127
13, 8395, Note_on_c, 12, 63, 127
13, 8469, Note_off_c, 12, 63, 64
13, 8470, Note_off_c, 12, 49, 64
13, 8477, Note_off_c, 12, 60, 64
13, 8478, Note_off_c, 12, 66, 64
13, 8636, Note_on_c, 12, 61, 127
13, 8641, Note_on_c, 12, 49, 127
13, 8641, Note_on_c, 12, 65, 127
13, 8647, Note_on_c, 12, 68, 127
13, 8857, Note_off_c, 12, 61, 64
13, 8883, Note_off_c, 12, 49, 64
13, 8897, Note_on_c, 12, 61, 127
13, 8982, Note_off_c, 12, 61, 64
13, 9002, Note_on_c, 12, 60, 127
13, 9020, Note_off_c, 12, 68, 64
13, 9024, Note_off_c, 12, 65, 64
13, 9097, Note_off_c, 12, 60, 64
13, 9118, Note_on_c, 12, 61, 127
13, 9193, Note_off_c, 12, 61, 64
13, 9360, Note_on_c, 12, 61, 127
13, 9360, Note_on_c, 12, 68, 127
13, 9363, Note_on_c, 12, 53, 127
13, 9415, Note_off_c, 12, 61, 64
13, 9421, Note_off_c, 12, 68, 64
13, 9428, Note_off_c, 12, 53, 64
13, 9595, Note_on_c, 12, 61, 127
13, 9596, Note_on_c, 12, 66, 127
13, 9597, Note_on_c, 12, 54, 127
13, 9810, Note_off_c, 12, 54, 64
13, 9824, Note_off_c, 12, 61, 64
13, 9831, Note_off_c, 12, 66, 64
13, 9844, Note_on_c, 12, 51, 127
13, 9844, Note_on_c, 12, 68, 127
13, 9938, Note_off_c, 12, 51, 64
13, 9938, Note_off_c, 12, 68, 64
13, 9974, Note_on_c, 12, 70, 127
13, 10065, Note_off_c, 12, 70, 64
13, 10082, Note_on_c, 12, 47, 127
13, 10082, Note_on_c, 12, 63, 127
13, 10082, Note_on_c, 12, 71, 127
13, 10158, Note_off_c, 12, 47, 64
13, 10172, Note_off_c, 12, 71, 64
13, 10290, Note_off_c, 12, 63, 64
13, 10320, Note_on_c, 12, 61, 127
13, 10322, Note_on_c, 12, 65, 127
13, 10325, Note_on_c, 12, 49, 127
13, 10405, Note_off_c, 12, 49, 64
13, 10435, Note_on_c, 12, 59, 127
13, 10436, Note_off_c, 12, 61, 64
13, 10442, Note_off_c, 12, 65, 64
13, 10513, Note_off_c, 12, 59, 64
13, 10564, Note_on_c, 12, 66, 127
13, 10565, Note_on_c, 12, 51, 127
13, 10567, Note_on_c, 12, 58, 127
13, 10795, Note_off_c, 12, 66, 64
13, 10803, Note_off_c, 12, 58, 64
13, 10809, Note_off_c, 12, 51, 64
13, 10820, Note_on_c, 12, 49, 127
13, 10899, Note_off_c, 12, 49, 64
13, 10927, Note_on_c, 12, 47, 127
13, 11022, Note_off_c, 12, 47, 64
13, 11044, Note_on_c, 12, 46, 127
13, 11244, Note_off_c, 12, 46, 64
13, 11280, Note_on_c, 12, 59, 127
13, 11281, Note_on_c, 12, 66, 127
13, 11291, Note_on_c, 12, 44, 127
13, 11361, Note_off_c, 12, 66, 64
13, 11375, Note_off_c, 12, 44, 64
13, 11383, Note_on_c, 12, 58, 127
13, 11392, Note_off_c, 12, 59, 64
13, 11397, Note_on_c, 12, 42, 127
13, 11479, Note_off_c, 12, 58, 64
13, 11484, Note_off_c, 12, 42, 64
13, 11517, Note_on_c, 12, 47, 127
13, 11523, Note_on_c, 12, 66, 127
13, 11524, Note_on_c, 12, 59, 127
13, 11751, Note_off_c, 12, 47, 64
13, 11769, Note_off_c, 12, 59, 64
13, 11773, Note_on_c, 12, 46, 127
13, 11778, Note_off_c, 12, 66, 64
13, 11863, Note_off_c, 12, 46, 64
13, 11888, Note_on_c, 12, 44, 127
13, 11975, Note_off_c, 12, 44, 64
13, 12003, Note_on_c, 12, 42, 127
13, 12109, Note_off_c, 12, 42, 64
13, 12240, Note_on_c, 12, 66, 127
13, 12242, Note_on_c, 12, 61, 127
13, 12243, Note_on_c, 12, 54, 127
13, 12243, Note_on_c, 12, 58, 127
13, 12298, Note_off_c, 12, 61, 64
13, 12301, Note_off_c, 12, 58, 64
13, 12308, Note_off_c, 12, 66, 64
13, 12332, Note_off_c, 12, 54, 64
13, 12354, Note_on_c, 12, 53, 127
13, 12443, Note_off_c, 12, 53, 64
13, 12472, Note_on_c, 12, 51, 127
13, 12478, Note_on_c, 12, 66, 127
13, 12479, Note_on_c, 12, 59, 127
13, 12681, Note_off_c, 12, 51, 64
13, 12720, Note_on_c, 12, 49, 127
13, 12808, Note_off_c, 12, 49, 64
13, 12833, Note_on_c, 12, 47, 127
13, 12852, Note_off_c, 12, 66, 64
13, 12852, Note_off_c, 12, 59, 64
13, 12940, Note_off_c, 12, 47, 64
13, 12960, Note_on_c, 12, 46, 127
13, 13054, Note_off_c, 12, 46, 64
13, 13198, Note_on_c, 12, 66, 127
13, 13205, Note_on_c, 12, 48, 127
13, 13272, Note_off_c, 12, 48, 64
13, 13305, Note_off_c, 12, 66, 64
13, 13320, Note_on_c, 12, 68, 127
13, 13419, Note_off_c, 12, 68, 64
13, 13440, Note_on_c, 12, 49, 127
13, 13440, Note_on_c, 12, 61, 127
13, 13444, Note_on_c, 12, 66, 127
13, 13444, Note_on_c, 12, 70, 127
13, 13645, Note_off_c, 12, 49, 64
13, 13663, Note_off_c, 12, 61, 64
13, 13665, Note_off_c, 12, 66, 64
13, 13691, Note_on_c, 12, 37, 127
13, 13693, Note_on_c, 12, 60, 127
13, 13763, Note_off_c, 12, 37, 64
13, 13776, Note_off_c, 12, 70, 64
13, 13787, Note_on_c, 12, 68, 127
13, 13848, Note_on_c, 12, 66, 127
13, 13867, Note_off_c, 12, 68, 64
13, 13878, Note_off_c, 12, 60, 64
13, 13909, Note_on_c, 12, 68, 127
13, 13916, Note_on_c, 12, 61, 127
13, 13921, Note_off_c, 12, 66, 64
13, 13922, Note_on_c, 12, 37, 127
13, 14009, Note_off_c, 12, 37, 64
13, 14035, Note_off_c, 12, 61, 64
13, 14043, Note_off_c, 12, 68, 64
13, 14160, Note_on_c, 12, 49, 127
13, 14160, Note_on_c, 12, 66, 127
13, 14161, Note_on_c, 12, 56, 127
13, 14162, Note_on_c, 12, 61, 127
13, 14243, Note_off_c, 12, 49, 64
13, 14266, Note_on_c, 12, 60, 127
13, 14273, Note_on_c, 12, 51, 127
13, 14283, Note_off_c, 12, 56, 64
13, 14294, Note_off_c, 12, 61, 64
13, 14316, Note_off_c, 12, 66, 64
13, 14373, Note_off_c, 12, 51, 64
13, 14381, Note_off_c, 12, 60, 64
13, 14395, Note_on_c, 12, 53, 127
13, 14400, Note_on_c, 12, 56, 127
13, 14406, Note_on_c, 12, 61, 127
13, 14420, Note_on_c, 12, 65, 127
13, 14610, Note_off_c, 12, 53, 64
13, 14615, Note_off_c, 12, 56, 64
13, 14625, Note_off_c, 12, 61, 64
13, 14627, Note_off_c, 12, 65, 64
13, 14641, Note_on_c, 12, 54, 127
13, 14748, Note_off_c, 12, 54, 64
13, 14880, Note_on_c, 12, 56, 127
13, 14988, Note_off_c, 12, 56, 64
13, 15120, Note_on_c, 12, 68, 127
13, 15120, Note_on_c, 12, 61, 127
13, 15126, Note_on_c, 12, 53, 127
13, 15182, Note_off_c, 12, 61, 64
13, 15191, Note_off_c, 12, 68, 64
13, 15211, Note_off_c, 12, 53, 64
13, 15360, Note_on_c, 12, 70, 127
13, 15361, Note_on_c, 12, 61, 127
13, 15370, Note_on_c, 12, 54, 127
13, 15508, Note_off_c, 12, 70, 64
13, 15582, Note_off_c, 12, 54, 64
13, 15603, Note_on_c, 12, 66, 127
13, 15605, Note_off_c, 12, 61, 64
13, 15612, Note_on_c, 12, 59, 127
13, 15612, Note_on_c, 12, 63, 127
13, 15696, Note_off_c, 12, 59, 64
13, 15696, Note_off_c, 12, 63, 64
13, 15705, Note_off_c, 12, 66, 64
13, 15841, Note_on_c, 12, 66, 127
13, 15842, Note_on_c, 12, 61, 127
13, 15931, Note_off_c, 12, 66, 64
13, 15932, Note_off_c, 12, 61, 64
13, 16080, Note_on_c, 12, 65, 127
13, 16080, Note_on_c, 12, 59, 127
13, 16081, Note_on_c, 12, 56, 127
13, 16085, Note_on_c, 12, 49, 127
13, 16160, Note_off_c, 12, 65, 64
13, 16160, Note_off_c, 12, 59, 64
13, 16162, Note_off_c, 12, 49, 64
13, 16166, Note_off_c, 12, 56, 64
13, 16332, Note_on_c, 12, 54, 127
13, 16332, Note_on_c, 12, 66, 127
13, 16586, Note_on_c, 12, 53, 127
13, 16586, Note_on_c, 12, 65, 127
13, 16593, Note_off_c, 12, 54, 64
13, 16593, Note_off_c, 12, 66, 64
13, 16655, Note_off_c, 12, 53, 64
13, 16655, Note_off_c, 12, 65, 64
13, 16696, Note_on_c, 12, 51, 127
13, 16696, Note_on_c, 12, 63, 127
13, 16777, Note_off_c, 12, 51, 64
13, 16777, Note_off_c, 12, 63, 64
13, 16807, Note_on_c, 12, 49, 127
13, 16807, Note_on_c, 12, 61, 127
13, 16895, Note_off_c, 12, 49, 64
13, 16895, Note_off_c, 12, 61, 64
13, 16919, Note_on_c, 12, 47, 127
13, 16919, Note_on_c, 12, 59, 127
13, 17000, Note_off_c, 12, 47, 64
13, 17000, Note_off_c, 12, 59, 64
13, 17036, Note_on_c, 12, 46, 127
13, 17036, Note_on_c, 12, 58, 127
13, 17123, Note_off_c, 12, 46, 64
13, 17123, Note_off_c, 12, 58, 64
13, 17148, Note_on_c, 12, 44, 127
13, 17148, Note_on_c, 12, 56, 127
13, 17249, Note_off_c, 12, 44, 64
13, 17249, Note_off_c, 12, 56, 64
13, 17274, Note_on_c, 12, 46, 127
13, 17274, Note_on_c, 12, 58, 127
13, 17528, Note_off_c, 12, 46, 64
13, 17528, Note_off_c, 12, 58, 64
13, 17531, Note_on_c, 12, 44, 127
13, 17531, Note_on_c, 12, 56, 127
13, 17605, Note_off_c, 12, 44, 64
13, 17605, Note_off_c, 12, 56, 64
13, 17635, Note_on_c, 12, 42, 127
13, 17635, Note_on_c, 12, 54, 127
13, 17733, Note_off_c, 12, 42, 64
13, 17733, Note_off_c, 12, 54, 64
13, 17747, Note_on_c, 12, 49, 127
13, 17747, Note_on_c, 12, 61, 127
13, 17845, Note_off_c, 12, 49, 64
13, 17845, Note_off_c, 12, 61, 64
13, 17996, Note_on_c, 12, 37, 127
13, 17996, Note_on_c, 12, 49, 127
13, 18081, Note_off_c, 12, 37, 64
13, 18081, Note_off_c, 12, 49, 64
13, 18246, Note_on_c, 12, 42, 127
13, 18246, Note_on_c, 12, 54, 127
13, 18777, Note_off_c, 12, 42, 64
13, 18777, Note_off_c, 12, 54, 64
13, 18960, Note_on_c, 12, 61, 127
13, 18960, Note_on_c, 12, 54, 127
13, 18961, Note_on_c, 12, 58, 127
13, 18966, Note_on_c, 12, 49, 127
13, 19013, Note_off_c, 12, 58, 64
13, 19017, Note_off_c, 12, 54, 64
13, 19020, Note_off_c, 12, 61, 64
13, 19029, Note_off_c, 12, 49, 64
13, 19197, Note_on_c, 12, 42, 127
13, 19243, Note_on_c, 12, 54, 127
13, 19285, Note_on_c, 12, 58, 127
13, 19314, Note_on_c, 12, 61, 127
13, 19674, Note_off_c, 12, 58, 64
13, 19677, Note_off_c, 12, 54, 64
13, 19679, Note_off_c, 12, 61, 64
13, 19695, Note_off_c, 12, 42, 64
13, 21360, Note_on_c, 12, 61, 127
13, 21361, Note_on_c, 12, 58, 127
13, 21361, Note_on_c, 12, 66, 127
13, 21362, Note_on_c, 12, 42, 127
13, 21450, Note_off_c, 12, 42, 64
13, 21471, Note_on_c, 12, 44, 127
13, 21532, Note_off_c, 12, 66, 64
13, 21552, Note_off_c, 12, 61, 64
13, 21556, Note_off_c, 12, 58, 64
13, 21593, Note_off_c, 12, 44, 64
13, 21593, Note_on_c, 12, 46, 127
13, 21603, Note_on_c, 12, 61, 127
13, 21603, Note_on_c, 12, 58, 127
13, 21603, Note_on_c, 12, 54, 127
13, 21664, Note_off_c, 12, 46, 64
13, 21664, Note_off_c, 12, 58, 64
13, 21674, Note_off_c, 12, 54, 64
13, 21679, Note_off_c, 12, 61, 64
13, 21845, Note_on_c, 12, 48, 127
13, 21852, Note_on_c, 12, 56, 127
13, 21854, Note_on_c, 12, 63, 127
13, 21906, Note_off_c, 12, 56, 64
13, 21909, Note_off_c, 12, 48, 64
13, 21921, Note_off_c, 12, 63, 64
13, 22080, Note_on_c, 12, 65, 127
13, 22082, Note_on_c, 12, 56, 127
13, 22085, Note_on_c, 12, 49, 127
13, 22399, Note_off_c, 12, 49, 64
13, 22568, Note_off_c, 12, 65, 64
13, 22569, Note_off_c, 12, 56, 64
13, 22798, Note_on_c, 12, 56, 127
13, 22800, Note_on_c, 12, 63, 127
13, 22800, Note_on_c, 12, 72, 127
13, 22864, Note_off_c, 12, 56, 64
13, 22866, Note_off_c, 12, 63, 64
13, 22878, Note_off_c, 12, 72, 64
13, 23044, Note_on_c, 12, 61, 127
13, 23051, Note_on_c, 12, 65, 127
13, 23055, Note_on_c, 12, 73, 127
13, 23058, Note_on_c, 12, 68, 127
13, 23300, Note_off_c, 12, 61, 64
13, 23501, Note_off_c, 12, 68, 64
13, 23506, Note_off_c, 12, 65, 64
13, 23538, Note_off_c, 12, 73, 64
13, 23758, Note_on_c, 12, 56, 127
13, 23761, Note_on_c, 12, 60, 127
13, 23761, Note_on_c, 12, 63, 127
13, 23811, Note_off_c, 12, 63, 64
13, 23815, Note_off_c, 12, 56, 64
13, 23817, Note_off_c, 12, 60, 64
13, 23992, Note_on_c, 12, 61, 127
13, 23994, Note_on_c, 12, 65, 127
13, 23996, Note_on_c, 12, 56, 127
13, 24003, Note_on_c, 12, 49, 127
13, 24284, Note_off_c, 12, 49, 64
13, 24484, Note_off_c, 12, 61, 64
13, 24485, Note_off_c, 12, 56, 64
13, 24489, Note_off_c, 12, 65, 64
13, 24724, Note_on_c, 12, 44, 127
13, 24726, Note_on_c, 12, 60, 127
13, 24726, Note_on_c, 12, 68, 127
13, 24727, Note_on_c, 12, 63, 127
13, 24785, Note_off_c, 12, 63, 64
13, 24788, Note_off_c, 12, 44, 64
13, 24789, Note_off_c, 12, 60, 64
13, 24791, Note_off_c, 12, 68, 64
13, 24960, Note_on_c, 12, 49, 127
13, 24963, Note_on_c, 12, 65, 127
13, 24968, Note_on_c, 12, 56, 127
13, 24968, Note_on_c, 12, 61, 127
13, 25178, Note_off_c, 12, 65, 64
13, 25190, Note_off_c, 12, 49, 64
13, 25202, Note_on_c, 12, 46, 127
13, 25209, Note_on_c, 12, 63, 127
13, 25235, Note_off_c, 12, 61, 64
13, 25238, Note_off_c, 12, 56, 64
13, 25314, Note_off_c, 12, 63, 64
13, 25319, Note_on_c, 12, 65, 127
13, 25387, Note_off_c, 12, 46, 64
13, 25435, Note_off_c, 12, 65, 64
13, 25441, Note_on_c, 12, 66, 127
13, 25444, Note_on_c, 12, 42, 127
13, 25527, Note_off_c, 12, 42, 64
13, 25672, Note_off_c, 12, 66, 64
13, 25684, Note_on_c, 12, 44, 127
13, 25700, Note_on_c, 12, 65, 127
13, 25759, Note_off_c, 12, 44, 64
13, 25797, Note_on_c, 12, 63, 127
13, 25810, Note_off_c, 12, 65, 64
13, 25902, Note_off_c, 12, 63, 64
13, 25916, Note_on_c, 12, 58, 127
13, 25922, Note_on_c, 12, 46, 127
13, 25925, Note_on_c, 12, 61, 127
13, 25934, Note_on_c, 12, 65, 127
13, 26149, Note_off_c, 12, 46, 64
13, 26169, Note_on_c, 12, 44, 127
13, 26247, Note_off_c, 12, 44, 64
13, 26278, Note_on_c, 12, 42, 127
13, 26363, Note_off_c, 12, 42, 64
13, 26367, Note_off_c, 12, 58, 64
13, 26372, Note_off_c, 12, 61, 64
13, 26376, Note_off_c, 12, 65, 64
13, 26407, Note_on_c, 12, 41, 127
13, 26595, Note_off_c, 12, 41, 64
13, 26649, Note_on_c, 12, 65, 127
13, 26649, Note_on_c, 12, 56, 127
13, 26658, Note_on_c, 12, 39, 127
13, 26709, Note_off_c, 12, 56, 64
13, 26716, Note_off_c, 12, 65, 64
13, 26731, Note_off_c, 12, 39, 64
13, 26763, Note_on_c, 12, 37, 127
13, 26853, Note_off_c, 12, 37, 64
13, 26881, Note_on_c, 12, 42, 127
13, 26883, Note_on_c, 12, 58, 127
13, 26888, Note_on_c, 12, 61, 127
13, 26895, Note_on_c, 12, 66, 127
13, 27092, Note_off_c, 12, 42, 64
13, 27129, Note_on_c, 12, 41, 127
13, 27196, Note_off_c, 12, 41, 64
13, 27239, Note_on_c, 12, 39, 127
13, 27261, Note_off_c, 12, 61, 64
13, 27265, Note_off_c, 12, 58, 64
13, 27277, Note_off_c, 12, 66, 64
13, 27338, Note_off_c, 12, 39, 64
13, 27354, Note_on_c, 12, 37, 127
13, 27354, Note_on_c, 12, 56, 127
13, 27355, Note_on_c, 12, 61, 127
13, 27356, Note_on_c, 12, 65, 127
13, 27422, Note_off_c, 12, 37, 64
13, 27431, Note_off_c, 12, 61, 64
13, 27435, Note_off_c, 12, 56, 64
13, 27440, Note_off_c, 12, 65, 64
13, 27590, Note_on_c, 12, 68, 127
13, 27591, Note_on_c, 12, 65, 127
13, 27601, Note_on_c, 12, 61, 127
13, 27660, Note_off_c, 12, 68, 64
13, 27668, Note_off_c, 12, 65, 64
13, 27700, Note_off_c, 12, 61, 64
13, 27712, Note_on_c, 12, 60, 127
13, 27819, Note_off_c, 12, 60, 64
13, 27834, Note_on_c, 12, 58, 127
13, 27834, Note_on_c, 12, 61, 127
13, 27834, Note_on_c, 12, 66, 127
13, 28059, Note_off_c, 12, 58, 64
13, 28080, Note_on_c, 12, 56, 127
13, 28080, Note_on_c, 12, 65, 127
13, 28108, Note_off_c, 12, 61, 64
13, 28112, Note_off_c, 12, 66, 64
13, 28163, Note_off_c, 12, 56, 64
13, 28191, Note_on_c, 12, 66, 127
13, 28193, Note_on_c, 12, 54, 127
13, 28195, Note_off_c, 12, 65, 64
13, 28299, Note_off_c, 12, 54, 64
13, 28302, Note_on_c, 12, 68, 127
13, 28305, Note_off_c, 12, 66, 64
13, 28316, Note_on_c, 12, 53, 127
13, 28383, Note_off_c, 12, 68, 64
13, 28396, Note_off_c, 12, 53, 64
13, 28560, Note_on_c, 12, 55, 127
13, 28560, Note_on_c, 12, 70, 127
13, 28560, Note_on_c, 12, 61, 127
13, 28624, Note_off_c, 12, 70, 64
13, 28633, Note_off_c, 12, 55, 64
13, 28645, Note_off_c, 12, 61, 64
13, 28795, Note_on_c, 12, 56, 127
13, 28803, Note_on_c, 12, 61, 127
13, 28803, Note_on_c, 12, 65, 127
13, 29023, Note_off_c, 12, 61, 64
13, 29026, Note_off_c, 12, 56, 64
13, 29040, Note_on_c, 12, 63, 127
13, 29046, Note_on_c, 12, 44, 127
13, 29094, Note_off_c, 12, 65, 64
13, 29117, Note_off_c, 12, 44, 64
13, 29149, Note_on_c, 12, 61, 127
13, 29153, Note_off_c, 12, 63, 64
13, 29276, Note_off_c, 12, 61, 64
13, 29276, Note_on_c, 12, 63, 127
13, 29280, Note_on_c, 12, 44, 127
13, 29354, Note_off_c, 12, 44, 64
13, 29366, Note_off_c, 12, 63, 64
13, 29520, Note_on_c, 12, 63, 127
13, 29522, Note_on_c, 12, 61, 127
13, 29525, Note_on_c, 12, 56, 127
13, 29581, Note_off_c, 12, 61, 64
13, 29592, Note_off_c, 12, 63, 64
13, 29612, Note_off_c, 12, 56, 64
13, 29634, Note_on_c, 12, 58, 127
13, 29729, Note_off_c, 12, 58, 64
13, 29759, Note_on_c, 12, 60, 127
13, 29762, Note_on_c, 12, 63, 127
13, 29762, Note_on_c, 12, 68, 127
13, 29976, Note_off_c, 12, 60, 64
13, 30008, Note_on_c, 12, 61, 127
13, 30018, Note_off_c, 12, 63, 64
13, 30029, Note_off_c, 12, 68, 64
13, 30113, Note_off_c, 12, 61, 64
13, 30242, Note_on_c, 12, 63, 127
13, 30334, Note_off_c, 12, 63, 64
13, 30480, Note_on_c, 12, 68, 127
13, 30480, Note_on_c, 12, 63, 127
13, 30481, Note_on_c, 12, 60, 127
13, 30533, Note_off_c, 12, 63, 64
13, 30549, Note_off_c, 12, 68, 64
13, 30553, Note_off_c, 12, 60, 64
13, 30718, Note_on_c, 12, 65, 127
13, 30719, Note_on_c, 12, 68, 127
13, 30719, Note_on_c, 12, 61, 127
13, 30938, Note_off_c, 12, 61, 64
13, 30959, Note_off_c, 12, 65, 64
13, 30960, Note_on_c, 12, 70, 127
13, 30961, Note_on_c, 12, 61, 127
13, 30961, Note_on_c, 12, 66, 127
13, 30963, Note_on_c, 12, 54, 127
13, 30974, Note_off_c, 12, 68, 64
13, 31032, Note_off_c, 12, 54, 64
13, 31045, Note_off_c, 12, 70, 64
13, 31067, Note_off_c, 12, 61, 64
13, 31072, Note_on_c, 12, 65, 127
13, 31088, Note_off_c, 12, 66, 64
13, 31164, Note_off_c, 12, 65, 64
13, 31197, Note_on_c, 12, 56, 127
13, 31202, Note_on_c, 12, 63, 127
13, 31256, Note_off_c, 12, 56, 64
13, 31270, Note_off_c, 12, 63, 64
13, 31419, Note_on_c, 12, 60, 127
13, 31443, Note_on_c, 12, 63, 127
13, 31444, Note_on_c, 12, 44, 127
13, 31451, Note_on_c, 12, 68, 127
13, 31508, Note_off_c, 12, 44, 64
13, 31509, Note_off_c, 12, 68, 64
13, 31515, Note_off_c, 12, 63, 64
13, 31519, Note_off_c, 12, 60, 64
13, 31682, Note_on_c, 12, 49, 127
13, 31682, Note_on_c, 12, 61, 127
13, 31686, Note_on_c, 12, 65, 127
13, 31687, Note_on_c, 12, 68, 127
13, 31862, Note_off_c, 12, 49, 64
13, 31920, Note_off_c, 12, 61, 64
13, 31941, Note_on_c, 12, 61, 127
13, 32030, Note_off_c, 12, 61, 64
13, 32050, Note_on_c, 12, 59, 127
13, 32147, Note_off_c, 12, 65, 64
13, 32147, Note_off_c, 12, 68, 64
13, 32154, Note_off_c, 12, 59, 64
13, 32166, Note_on_c, 12, 58, 127
13, 32264, Note_off_c, 12, 58, 64
13, 32283, Note_on_c, 12, 59, 127
13, 32379, Note_off_c, 12, 59, 64
13, 32400, Note_on_c, 12, 61, 127
13, 32401, Note_on_c, 12, 66, 127
13, 32402, Note_on_c, 12, 58, 127
13, 32473, Note_off_c, 12, 61, 64
13, 32479, Note_off_c, 12, 66, 64
13, 32482, Note_off_c, 12, 58, 64
13, 32514, Note_on_c, 12, 56, 127
13, 32593, Note_off_c, 12, 56, 64
13, 32604, Note_on_c, 12, 54, 127
13, 32648, Note_on_c, 12, 58, 127
13, 32683, Note_on_c, 12, 61, 127
13, 32706, Note_on_c, 12, 66, 127
13, 32965, Note_off_c, 12, 54, 64
13, 33085, Note_off_c, 12, 66, 64
13, 33087, Note_off_c, 12, 58, 64
13, 33088, Note_off_c, 12, 61, 64
13, 34800, Note_on_c, 12, 66, 127
13, 34802, Note_on_c, 12, 42, 127
13, 34906, Note_off_c, 12, 42, 64
13, 34910, Note_on_c, 12, 65, 127
13, 34915, Note_on_c, 12, 44, 127
13, 34931, Note_off_c, 12, 66, 64
13, 35031, Note_off_c, 12, 65, 64
13, 35035, Note_on_c, 12, 46, 127
13, 35041, Note_on_c, 12, 66, 127
13, 35049, Note_off_c, 12, 44, 64
13, 35126, Note_off_c, 12, 66, 64
13, 35131, Note_off_c, 12, 46, 64
13, 35280, Note_on_c, 12, 63, 127
13, 35282, Note_on_c, 12, 56, 127
13, 35283, Note_on_c, 12, 54, 127
13, 35285, Note_on_c, 12, 48, 127
13, 35341, Note_off_c, 12, 48, 64
13, 35347, Note_off_c, 12, 63, 64
13, 35354, Note_off_c, 12, 54, 64
13, 35355, Note_off_c, 12, 56, 64
13, 35525, Note_on_c, 12, 49, 127
13, 35538, Note_on_c, 12, 53, 127
13, 35567, Note_on_c, 12, 56, 127
13, 35593, Note_on_c, 12, 61, 127
13, 35797, Note_off_c, 12, 49, 64
13, 36033, Note_off_c, 12, 53, 64
13, 36042, Note_off_c, 12, 56, 64
13, 36057, Note_off_c, 12, 61, 64
13, 36240, Note_on_c, 12, 56, 127
13, 36240, Note_on_c, 12, 63, 127
13, 36241, Note_on_c, 12, 68, 127
13, 36308, Note_off_c, 12, 56, 64
13, 36309, Note_off_c, 12, 63, 64
13, 36315, Note_off_c, 12, 68, 64
13, 36479, Note_on_c, 12, 61, 127
13, 36481, Note_on_c, 12, 65, 127
13, 36482, Note_on_c, 12, 68, 127
13, 36750, Note_off_c, 12, 61, 64
13, 36951, Note_off_c, 12, 68, 64
13, 36980, Note_off_c, 12, 65, 64
13, 37196, Note_on_c, 12, 56, 127
13, 37208, Note_on_c, 12, 63, 127
13, 37208, Note_on_c, 12, 68, 127
13, 37262, Note_off_c, 12, 56, 64
13, 37262, Note_off_c, 12, 63, 64
13, 37265, Note_off_c, 12, 68, 64
13, 37441, Note_on_c, 12, 65, 127
13, 37443, Note_on_c, 12, 49, 127
13, 37445, Note_on_c, 12, 68, 127
13, 37714, Note_off_c, 12, 49, 64
13, 37935, Note_off_c, 12, 68, 64
13, 37946, Note_off_c, 12, 65, 64
13, 38160, Note_on_c, 12, 65, 127
13, 38160, Note_on_c, 12, 61, 127
13, 38161, Note_on_c, 12, 68, 127
13, 38173, Note_on_c, 12, 44, 127
13, 38215, Note_off_c, 12, 61, 64
13, 38225, Note_off_c, 12, 65, 64
13, 38230, Note_off_c, 12, 68, 64
13, 38242, Note_off_c, 12, 44, 64
13, 38400, Note_on_c, 12, 37, 127
13, 38410, Note_on_c, 12, 68, 127
13, 38410, Note_on_c, 12, 65, 127
13, 38414, Note_on_c, 12, 61, 127
13, 38625, Note_off_c, 12, 37, 64
13, 38639, Note_on_c, 12, 49, 127
13, 38696, Note_off_c, 12, 49, 64
13, 38844, Note_off_c, 12, 65, 64
13, 38845, Note_off_c, 12, 68, 64
13, 38847, Note_off_c, 12, 61, 64
13, 38876, Note_on_c, 12, 49, 127
13, 38941, Note_off_c, 12, 49, 64
13, 39119, Note_on_c, 12, 37, 127
13, 39120, Note_on_c, 12, 65, 127
13, 39122, Note_on_c, 12, 61, 127
13, 39122, Note_on_c, 12, 68, 127
13, 39171, Note_off_c, 12, 61, 64
13, 39180, Note_off_c, 12, 65, 64
13, 39183, Note_off_c, 12, 68, 64
13, 39188, Note_off_c, 12, 37, 64
13, 39358, Note_on_c, 12, 65, 127
13, 39359, Note_on_c, 12, 68, 127
13, 39360, Note_on_c, 12, 61, 127
13, 39370, Note_on_c, 12, 37, 127
13, 39591, Note_off_c, 12, 37, 64
13, 39604, Note_on_c, 12, 49, 127
13, 39661, Note_off_c, 12, 49, 64
13, 39836, Note_off_c, 12, 65, 64
13, 39839, Note_off_c, 12, 61, 64
13, 39842, Note_on_c, 12, 49, 127
13, 39845, Note_off_c, 12, 68, 64
13, 39908, Note_off_c, 12, 49, 64
13, 40076, Note_on_c, 12, 37, 127
13, 40083, Note_on_c, 12, 65, 127
13, 40083, Note_on_c, 12, 68, 127
13, 40083, Note_on_c, 12, 61, 127
13, 40136, Note_off_c, 12, 61, 64
13, 40140, Note_off_c, 12, 37, 64
13, 40148, Note_off_c, 12, 65, 64
13, 40154, Note_off_c, 12, 68, 64
13, 40319, Note_on_c, 12, 61, 127
13, 40320, Note_on_c, 12, 65, 127
13, 40321, Note_on_c, 12, 37, 127
13, 40322, Note_on_c, 12, 68, 127
13, 40522, Note_off_c, 12, 37, 64
13, 40524, Note_off_c, 12, 68, 64
13, 40542, Note_off_c, 12, 61, 64
13, 40553, Note_off_c, 12, 65, 64
13, 40579, Note_on_c, 12, 49, 127
13, 40579, Note_on_c, 12, 61, 127
13, 40671, Note_off_c, 12, 49, 64
13, 40671, Note_off_c, 12, 61, 64
13, 40688, Note_on_c, 12, 48, 127
13, 40688, Note_on_c, 12, 63, 127
13, 40800, Note_on_c, 12, 61, 127
13, 40800, Note_on_c, 12, 65, 127
13, 40801, Note_on_c, 12, 46, 127
13, 40802, Note_off_c, 12, 48, 64
13, 40802, Note_off_c, 12, 63, 64
13, 40865, Note_off_c, 12, 61, 64
13, 40865, Note_off_c, 12, 65, 64
13, 40932, Note_off_c, 12, 46, 64
13, 41033, Note_on_c, 12, 58, 127
13, 41033, Note_on_c, 12, 63, 127
13, 41035, Note_on_c, 12, 67, 127
13, 41038, Note_on_c, 12, 51, 127
13, 41096, Note_off_c, 12, 58, 64
13, 41098, Note_off_c, 12, 63, 64
13, 41108, Note_off_c, 12, 67, 64
13, 41136, Note_off_c, 12, 51, 64
13, 41280, Note_on_c, 12, 44, 127
13, 41283, Note_on_c, 12, 60, 127
13, 41286, Note_on_c, 12, 63, 127
13, 41289, Note_on_c, 12, 68, 127
13, 41551, Note_off_c, 12, 44, 64
13, 41734, Note_off_c, 12, 63, 64
13, 41746, Note_off_c, 12, 68, 64
13, 41772, Note_off_c, 12, 60, 64
13, 41996, Note_on_c, 12, 44, 127
13, 42065, Note_off_c, 12, 44, 64
13, 42235, Note_on_c, 12, 58, 127
13, 42248, Note_on_c, 12, 51, 127
13, 42253, Note_on_c, 12, 63, 127
13, 42287, Note_on_c, 12, 66, 127
13, 42511, Note_off_c, 12, 51, 64
13, 42721, Note_off_c, 12, 63, 64
13, 42728, Note_off_c, 12, 66, 64
13, 42736, Note_off_c, 12, 58, 64
13, 42968, Note_on_c, 12, 51, 127
13, 43016, Note_off_c, 12, 51, 64
13, 43183, Note_on_c, 12, 58, 127
13, 43199, Note_on_c, 12, 46, 127
13, 43224, Note_on_c, 12, 61, 127
13, 43265, Note_on_c, 12, 65, 127
13, 43468, Note_off_c, 12, 46, 64
13, 43669, Note_off_c, 12, 58, 64
13, 43706, Note_off_c, 12, 61, 64
13, 43719, Note_off_c, 12, 65, 64
13, 43917, Note_on_c, 12, 46, 127
13, 43920, Note_on_c, 12, 61, 127
13, 43922, Note_on_c, 12, 58, 127
13, 43922, Note_on_c, 12, 65, 127
13, 43986, Note_off_c, 12, 58, 64
13, 43989, Note_off_c, 12, 61, 64
13, 44003, Note_off_c, 12, 46, 64
13, 44004, Note_off_c, 12, 65, 64
13, 44154, Note_on_c, 12, 53, 127
13, 44159, Note_on_c, 12, 68, 127
13, 44163, Note_on_c, 12, 60, 127
13, 44166, Note_on_c, 12, 65, 127
13, 44362, Note_off_c, 12, 53, 64
13, 44408, Note_on_c, 12, 58, 127
13, 44447, Note_off_c, 12, 65, 64
13, 44458, Note_off_c, 12, 60, 64
13, 44467, Note_off_c, 12, 68, 64
13, 44509, Note_off_c, 12, 58, 64
13, 44518, Note_on_c, 12, 56, 127
13, 44607, Note_off_c, 12, 56, 64
13, 44634, Note_on_c, 12, 58, 127
13, 44732, Note_off_c, 12, 58, 64
13, 44880, Note_on_c, 12, 61, 127
13, 44880, Note_on_c, 12, 66, 127
13, 44886, Note_on_c, 12, 51, 127
13, 44943, Note_off_c, 12, 61, 64
13, 44951, Note_off_c, 12, 66, 64
13, 44992, Note_off_c, 12, 51, 64
13, 45000, Note_on_c, 12, 49, 127
13, 45120, Note_on_c, 12, 51, 127
13, 45120, Note_on_c, 12, 58, 127
13, 45122, Note_on_c, 12, 61, 127
13, 45122, Note_on_c, 12, 66, 127
13, 45127, Note_off_c, 12, 49, 64
13, 45307, Note_off_c, 12, 51, 64
13, 45376, Note_off_c, 12, 58, 64
13, 45376, Note_on_c, 12, 56, 127
13, 45473, Note_off_c, 12, 56, 64
13, 45485, Note_on_c, 12, 54, 127
13, 45520, Note_off_c, 12, 66, 64
13, 45553, Note_off_c, 12, 61, 64
13, 45586, Note_off_c, 12, 54, 64
13, 45599, Note_on_c, 12, 56, 127
13, 45693, Note_off_c, 12, 56, 64
13, 45838, Note_on_c, 12, 65, 127
13, 45838, Note_on_c, 12, 61, 127
13, 45839, Note_on_c, 12, 56, 127
13, 45844, Note_on_c, 12, 49, 127
13, 45905, Note_off_c, 12, 56, 64
13, 45920, Note_off_c, 12, 65, 64
13, 45920, Note_off_c, 12, 61, 64
13, 45946, Note_off_c, 12, 49, 64
13, 45957, Note_on_c, 12, 48, 127
13, 46076, Note_off_c, 12, 48, 64
13, 46078, Note_on_c, 12, 49, 127
13, 46080, Note_on_c, 12, 65, 127
13, 46082, Note_on_c, 12, 61, 127
13, 46084, Note_on_c, 12, 56, 127
13, 46278, Note_off_c, 12, 56, 64
13, 46303, Note_off_c, 12, 49, 64
13, 46321, Note_on_c, 12, 54, 127
13, 46334, Note_on_c, 12, 58, 127
13, 46400, Note_off_c, 12, 65, 64
13, 46402, Note_off_c, 12, 61, 64
13, 46419, Note_off_c, 12, 58, 64
13, 46466, Note_off_c, 12, 54, 64
13, 46557, Note_on_c, 12, 66, 127
13, 46557, Note_on_c, 12, 63, 127
13, 46557, Note_on_c, 12, 61, 127
13, 46562, Note_on_c, 12, 56, 127
13, 46634, Note_off_c, 12, 66, 64
13, 46642, Note_off_c, 12, 63, 64
13, 46642, Note_off_c, 12, 61, 64
13, 46647, Note_off_c, 12, 56, 64
13, 46804, Note_on_c, 12, 44, 127
13, 46804, Note_on_c, 12, 56, 127
13, 46804, Note_on_c, 12, 63, 127
13, 46806, Note_on_c, 12, 60, 127
13, 46880, Note_off_c, 12, 44, 64
13, 46887, Note_off_c, 12, 60, 64
13, 46888, Note_off_c, 12, 56, 64
13, 46895, Note_off_c, 12, 63, 64
13, 47045, Note_on_c, 12, 49, 127
13, 47056, Note_on_c, 12, 56, 127
13, 47058, Note_on_c, 12, 61, 127
13, 47058, Note_on_c, 12, 65, 127
13, 47235, Note_off_c, 12, 49, 64
13, 47274, Note_off_c, 12, 65, 64
13, 47279, Note_off_c, 12, 61, 64
13, 47299, Note_off_c, 12, 56, 64
13, 47301, Note_on_c, 12, 73, 127
13, 47301, Note_on_c, 12, 68, 127
13, 47371, Note_off_c, 12, 68, 64
13, 47381, Note_off_c, 12, 73, 64
13, 47411, Note_on_c, 12, 60, 127
13, 47522, Note_off_c, 12, 60, 64
13, 47524, Note_on_c, 12, 61, 127
13, 47525, Note_on_c, 12, 65, 127
13, 47528, Note_on_c, 12, 68, 127
13, 47597, Note_off_c, 12, 61, 64
13, 47608, Note_off_c, 12, 65, 64
13, 47608, Note_off_c, 12, 68, 64
13, 48259, Note_on_c, 12, 61, 127
13, 48259, Note_on_c, 12, 68, 127
13, 48260, Note_on_c, 12, 65, 127
13, 48330, Note_off_c, 12, 68, 64
13, 48341, Note_off_c, 12, 65, 64
13, 48365, Note_off_c, 12, 61, 64
13, 48369, Note_on_c, 12, 60, 127
13, 48477, Note_off_c, 12, 60, 64
13, 48479, Note_on_c, 12, 61, 127
13, 48482, Note_on_c, 12, 65, 127
13, 48483, Note_on_c, 12, 68, 127
13, 48553, Note_off_c, 12, 68, 64
13, 48558, Note_off_c, 12, 65, 64
13, 48559, Note_off_c, 12, 61, 64
13, 49216, Note_on_c, 12, 49, 127
13, 49216, Note_on_c, 12, 65, 127
13, 49216, Note_on_c, 12, 68, 127
13, 49293, Note_off_c, 12, 65, 64
13, 49294, Note_off_c, 12, 68, 64
13, 49312, Note_off_c, 12, 49, 64
13, 49322, Note_on_c, 12, 48, 127
13, 49421, Note_off_c, 12, 48, 64
13, 49428, Note_on_c, 12, 49, 127
13, 49441, Note_on_c, 12, 65, 127
13, 49442, Note_on_c, 12, 56, 127
13, 49511, Note_off_c, 12, 49, 64
13, 49524, Note_off_c, 12, 65, 64
13, 49524, Note_off_c, 12, 56, 64
13, 50161, Note_on_c, 12, 65, 127
13, 50162, Note_on_c, 12, 56, 127
13, 50170, Note_on_c, 12, 49, 127
13, 50241, Note_off_c, 12, 56, 64
13, 50247, Note_off_c, 12, 65, 64
13, 50283, Note_off_c, 12, 49, 64
13, 50284, Note_on_c, 12, 48, 127
13, 50390, Note_off_c, 12, 48, 64
13, 50392, Note_on_c, 12, 49, 127
13, 50397, Note_on_c, 12, 53, 127
13, 50399, Note_on_c, 12, 56, 127
13, 50480, Note_off_c, 12, 49, 64
13, 50497, Note_off_c, 12, 53, 64
13, 50503, Note_off_c, 12, 56, 64
13, 51126, Note_on_c, 12, 61, 127
13, 51126, Note_on_c, 12, 65, 127
13, 51126, Note_on_c, 12, 68, 127
13, 51223, Note_off_c, 12, 61, 64
13, 51236, Note_on_c, 12, 59, 127
13, 51288, Note_off_c, 12, 65, 64
13, 51288, Note_off_c, 12, 68, 64
13, 51347, Note_off_c, 12, 59, 64
13, 51356, Note_on_c, 12, 61, 127
13, 51362, Note_on_c, 12, 68, 127
13, 51362, Note_on_c, 12, 65, 127
13, 51362, Note_on_c, 12, 73, 127
13, 51430, Note_off_c, 12, 61, 64
13, 51443, Note_off_c, 12, 68, 64
13, 51443, Note_off_c, 12, 65, 64
13, 51443, Note_off_c, 12, 73, 64
13, 51599, Note_on_c, 12, 49, 127
13, 51601, Note_on_c, 12, 71, 127
13, 51601, Note_on_c, 12, 65, 127
13, 51601, Note_on_c, 12, 68, 127
13, 51661, Note_off_c, 12, 71, 64
13, 51661, Note_off_c, 12, 65, 64
13, 51661, Note_off_c, 12, 68, 64
13, 51678, Note_off_c, 12, 49, 64
13, 51843, Note_on_c, 12, 42, 127
13, 51843, Note_on_c, 12, 70, 127
13, 52033, Note_off_c, 12, 42, 64
13, 52033, Note_off_c, 12, 70, 64
13, 52081, Note_on_c, 12, 73, 127
13, 52081, Note_on_c, 12, 70, 127
13, 52093, Note_on_c, 12, 54, 127
13, 52135, Note_off_c, 12, 73, 64
13, 52135, Note_off_c, 12, 70, 64
13, 52186, Note_off_c, 12, 54, 64
13, 52198, Note_on_c, 12, 53, 127
13, 52306, Note_off_c, 12, 53, 64
13, 52315, Note_on_c, 12, 54, 127
13, 52319, Note_on_c, 12, 70, 127
13, 52319, Note_on_c, 12, 61, 127
13, 52386, Note_off_c, 12, 70, 64
13, 52386, Note_off_c, 12, 61, 64
13, 52408, Note_off_c, 12, 54, 64
13, 53044, Note_on_c, 12, 54, 127
13, 53045, Note_on_c, 12, 70, 127
13, 53045, Note_on_c, 12, 61, 127
13, 53123, Note_off_c, 12, 70, 64
13, 53123, Note_off_c, 12, 61, 64
13, 53151, Note_off_c, 12, 54, 64
13, 53156, Note_on_c, 12, 53, 127
13, 53264, Note_off_c, 12, 53, 64
13, 53268, Note_on_c, 12, 54, 127
13, 53279, Note_on_c, 12, 66, 127
13, 53279, Note_on_c, 12, 58, 127
13, 53339, Note_off_c, 12, 66, 64
13, 53339, Note_off_c, 12, 58, 64
13, 53352, Note_off_c, 12, 54, 64
13, 53999, Note_on_c, 12, 66, 127
13, 53999, Note_on_c, 12, 58, 127
13, 54010, Note_on_c, 12, 42, 127
13, 54079, Note_off_c, 12, 66, 64
13, 54079, Note_off_c, 12, 58, 64
13, 54122, Note_on_c, 12, 41, 127
13, 54128, Note_off_c, 12, 42, 64
13, 54234, Note_off_c, 12, 41, 64
13, 54239, Note_on_c, 12, 61, 127
13, 54239, Note_on_c, 12, 58, 127
13, 54242, Note_on_c, 12, 42, 127
13, 54298, Note_off_c, 12, 61, 64
13, 54298, Note_off_c, 12, 58, 64
13, 54303, Note_off_c, 12, 42, 64
13, 54962, Note_on_c, 12, 61, 127
13, 54962, Note_on_c, 12, 58, 127
13, 54969, Note_on_c, 12, 42, 127
13, 55031, Note_off_c, 12, 61, 64
13, 55031, Note_off_c, 12, 58, 64
13, 55079, Note_on_c, 12, 41, 127
13, 55080, Note_off_c, 12, 42, 64
13, 55192, Note_off_c, 12, 41, 64
13, 55199, Note_on_c, 12, 42, 127
13, 55203, Note_on_c, 12, 58, 127
13, 55203, Note_on_c, 12, 49, 127
13, 55259, Note_off_c, 12, 42, 64
13, 55267, Note_off_c, 12, 58, 64
13, 55267, Note_off_c, 12, 49, 64
13, 55920, Note_on_c, 12, 54, 127
13, 55920, Note_on_c, 12, 61, 127
13, 55920, Note_on_c, 12, 58, 127
13, 56014, Note_off_c, 12, 54, 64
13, 56030, Note_on_c, 12, 52, 127
13, 56095, Note_off_c, 12, 61, 64
13, 56095, Note_off_c, 12, 58, 64
13, 56115, Note_off_c, 12, 52, 64
13, 56141, Note_on_c, 12, 61, 127
13, 56141, Note_on_c, 12, 58, 127
13, 56141, Note_on_c, 12, 64, 127
13, 56142, Note_on_c, 12, 54, 127
13, 56239, Note_off_c, 12, 61, 64
13, 56239, Note_off_c, 12, 58, 64
13, 56239, Note_off_c, 12, 64, 64
13, 56239, Note_off_c, 12, 54, 64
13, 56398, Note_on_c, 12, 70, 127
13, 56398, Note_on_c, 12, 61, 127
13, 56398, Note_on_c, 12, 64, 127
13, 56399, Note_on_c, 12, 42, 127
13, 56468, Note_off_c, 12, 70, 64
13, 56468, Note_off_c, 12, 61, 64
13, 56468, Note_off_c, 12, 64, 64
13, 56473, Note_off_c, 12, 42, 64
13, 56645, Note_on_c, 12, 47, 127
13, 56645, Note_on_c, 12, 63, 127
13, 56645, Note_on_c, 12, 66, 127
13, 56645, Note_on_c, 12, 71, 127
13, 57115, Note_off_c, 12, 71, 64
13, 57117, Note_off_c, 12, 63, 64
13, 57117, Note_off_c, 12, 66, 64
13, 57154, Note_off_c, 12, 47, 64
13, 57233, Note_on_c, 12, 46, 127
13, 57233, Note_on_c, 12, 64, 127
13, 57233, Note_on_c, 12, 61, 127
13, 57343, Note_off_c, 12, 46, 64
13, 57343, Note_off_c, 12, 64, 64
13, 57343, Note_off_c, 12, 61, 64
13, 57346, Note_on_c, 12, 47, 127
13, 57346, Note_on_c, 12, 63, 127
13, 57346, Note_on_c, 12, 59, 127
13, 57465, Note_on_c, 12, 49, 127
13, 57465, Note_on_c, 12, 61, 127
13, 57465, Note_on_c, 12, 58, 127
13, 57468, Note_off_c, 12, 47, 64
13, 57468, Note_off_c, 12, 63, 64
13, 57468, Note_off_c, 12, 59, 64
13, 57583, Note_off_c, 12, 49, 64
13, 57583, Note_off_c, 12, 61, 64
13, 57583, Note_off_c, 12, 58, 64
13, 57590, Note_on_c, 12, 51, 127
13, 57590, Note_on_c, 12, 59, 127
13, 57709, Note_off_c, 12, 51, 64
13, 57709, Note_off_c, 12, 59, 64
13, 57844, Note_on_c, 12, 56, 127
13, 57945, Note_off_c, 12, 56, 64
13, 57953, Note_on_c, 12, 54, 127
13, 58064, Note_off_c, 12, 54, 64
13, 58077, Note_on_c, 12, 56, 127
13, 58079, Note_on_c, 12, 68, 127
13, 58079, Note_on_c, 12, 63, 127
13, 58079, Note_on_c, 12, 71, 127
13, 58260, Note_off_c, 12, 56, 64
13, 58273, Note_off_c, 12, 68, 64
13, 58274, Note_off_c, 12, 71, 64
13, 58286, Note_off_c, 12, 63, 64
13, 58333, Note_on_c, 12, 49, 127
13, 58415, Note_off_c, 12, 49, 64
13, 58444, Note_on_c, 12, 47, 127
13, 58564, Note_on_c, 12, 49, 127
13, 58564, Note_on_c, 12, 64, 127
13, 58564, Note_on_c, 12, 71, 127
13, 58564, Note_on_c, 12, 68, 127
13, 58586, Note_off_c, 12, 47, 64
13, 58677, Note_off_c, 12, 49, 64
13, 58779, Note_off_c, 12, 68, 64
13, 58785, Note_off_c, 12, 64, 64
13, 58786, Note_off_c, 12, 71, 64
13, 58801, Note_on_c, 12, 54, 127
13, 58907, Note_off_c, 12, 54, 64
13, 58913, Note_on_c, 12, 52, 127
13, 59019, Note_off_c, 12, 52, 64
13, 59033, Note_on_c, 12, 54, 127
13, 59038, Note_on_c, 12, 70, 127
13, 59038, Note_on_c, 12, 64, 127
13, 59039, Note_on_c, 12, 61, 127
13, 59229, Note_off_c, 12, 54, 64
13, 59258, Note_off_c, 12, 61, 64
13, 59259, Note_off_c, 12, 64, 64
13, 59262, Note_off_c, 12, 70, 64
13, 59291, Note_on_c, 12, 47, 127
13, 59384, Note_off_c, 12, 47, 64
13, 59408, Note_on_c, 12, 46, 127
13, 59524, Note_on_c, 12, 47, 127
13, 59524, Note_on_c, 12, 66, 127
13, 59524, Note_on_c, 12, 69, 127
13, 59524, Note_on_c, 12, 63, 127
13, 59541, Note_off_c, 12, 46, 64
13, 59629, Note_off_c, 12, 47, 64
13, 59740, Note_off_c, 12, 69, 64
13, 59741, Note_off_c, 12, 66, 64
13, 59747, Note_off_c, 12, 63, 64
13, 59778, Note_on_c, 12, 52, 127
13, 59778, Note_on_c, 12, 68, 127
13, 59875, Note_off_c, 12, 52, 64
13, 59875, Note_off_c, 12, 68, 64
13, 59882, Note_on_c, 12, 51, 127
13, 60009, Note_on_c, 12, 52, 127
13, 60014, Note_off_c, 12, 51, 64
13, 60045, Note_on_c, 12, 56, 127
13, 60086, Note_on_c, 12, 59, 127
13, 60113, Note_on_c, 12, 64, 127
13, 60136, Note_on_c, 12, 68, 127
13, 60494, Note_off_c, 12, 68, 64
13, 60514, Note_off_c, 12, 56, 64
13, 60519, Note_off_c, 12, 64, 64
13, 60530, Note_off_c, 12, 59, 64
13, 60556, Note_off_c, 12, 52, 64
13, 60608, Note_on_c, 12, 54, 127
13, 60685, Note_off_c, 12, 54, 64
13, 60719, Note_on_c, 12, 52, 127
13, 60719, Note_on_c, 12, 54, 127
13, 60719, Note_on_c, 12, 58, 127
13, 60820, Note_off_c, 12, 52, 64
13, 60841, Note_on_c, 12, 51, 127
13, 60908, Note_off_c, 12, 54, 64
13, 60908, Note_off_c, 12, 58, 64
13, 60932, Note_off_c, 12, 51, 64
13, 60958, Note_on_c, 12, 58, 127
13, 60958, Note_on_c, 12, 54, 127
13, 60958, Note_on_c, 12, 61, 127
13, 60964, Note_on_c, 12, 49, 127
13, 61049, Note_off_c, 12, 58, 64
13, 61049, Note_off_c, 12, 54, 64
13, 61049, Note_off_c, 12, 61, 64
13, 61058, Note_off_c, 12, 49, 64
13, 61082, Note_on_c, 12, 47, 127
13, 61171, Note_off_c, 12, 47, 64
13, 61194, Note_on_c, 12, 58, 127
13, 61194, Note_on_c, 12, 61, 127
13, 61194, Note_on_c, 12, 66, 127
13, 61198, Note_on_c, 12, 46, 127
13, 61282, Note_off_c, 12, 58, 64
13, 61282, Note_off_c, 12, 61, 64
13, 61282, Note_off_c, 12, 66, 64
13, 61286, Note_off_c, 12, 46, 64
13, 61312, Note_on_c, 12, 44, 127
13, 61416, Note_off_c, 12, 44, 64
13, 61434, Note_on_c, 12, 42, 127
13, 61440, Note_on_c, 12, 64, 127
13, 61440, Note_on_c, 12, 61, 127
13, 61440, Note_on_c, 12, 70, 127
13, 61675, Note_off_c, 12, 42, 64
13, 61679, Note_on_c, 12, 47, 127
13, 61681, Note_off_c, 12, 64, 64
13, 61681, Note_off_c, 12, 61, 64
13, 61681, Note_off_c, 12, 70, 64
13, 61685, Note_on_c, 12, 63, 127
13, 61685, Note_on_c, 12, 71, 127
13, 61746, Note_off_c, 12, 47, 64
13, 61775, Note_off_c, 12, 63, 64
13, 61802, Note_off_c, 12, 71, 64
13, 61912, Note_on_c, 12, 54, 127
13, 61921, Note_on_c, 12, 61, 127
13, 61921, Note_on_c, 12, 71, 127
13, 61921, Note_on_c, 12, 64, 127
13, 61975, Note_off_c, 12, 54, 64
13, 61982, Note_off_c, 12, 61, 64
13, 61982, Note_off_c, 12, 71, 64
13, 61982, Note_off_c, 12, 64, 64
13, 62156, Note_on_c, 12, 42, 127
13, 62156, Note_on_c, 12, 64, 127
13, 62156, Note_on_c, 12, 61, 127
13, 62156, Note_on_c, 12, 70, 127
13, 62208, Note_off_c, 12, 64, 64
13, 62208, Note_off_c, 12, 61, 64
13, 62208, Note_off_c, 12, 70, 64
13, 62221, Note_off_c, 12, 42, 64
13, 62394, Note_on_c, 12, 71, 127
13, 62401, Note_on_c, 12, 59, 127
13, 62401, Note_on_c, 12, 63, 127
13, 62401, Note_on_c, 12, 66, 127
13, 62404, Note_on_c, 12, 47, 127
13, 62710, Note_off_c, 12, 47, 64
13, 62773, Note_off_c, 12, 59, 64
13, 62782, Note_off_c, 12, 66, 64
13, 62784, Note_off_c, 12, 63, 64
13, 62798, Note_off_c, 12, 71, 64
13, 63122, Note_on_c, 12, 59, 127
13, 63122, Note_on_c, 12, 64, 127
13, 63191, Note_off_c, 12, 64, 64
13, 63217, Note_off_c, 12, 59, 64
13, 63234, Note_on_c, 12, 58, 127
13, 63336, Note_off_c, 12, 58, 64
13, 63352, Note_on_c, 12, 59, 127
13, 63358, Note_on_c, 12, 63, 127
13, 63476, Note_off_c, 12, 59, 64
13, 63593, Note_off_c, 12, 63, 64
13, 63600, Note_on_c, 12, 54, 127
13, 63602, Note_on_c, 12, 71, 127
13, 63663, Note_off_c, 12, 71, 64
13, 63688, Note_off_c, 12, 54, 64
13, 63714, Note_on_c, 12, 52, 127
13, 63824, Note_off_c, 12, 52, 64
13, 63836, Note_on_c, 12, 54, 127
13, 63843, Note_on_c, 12, 66, 127
13, 63915, Note_off_c, 12, 66, 64
13, 63930, Note_off_c, 12, 54, 64
13, 64075, Note_on_c, 12, 59, 127
13, 64083, Note_on_c, 12, 64, 127
13, 64149, Note_off_c, 12, 64, 64
13, 64187, Note_off_c, 12, 59, 64
13, 64192, Note_on_c, 12, 58, 127
13, 64314, Note_off_c, 12, 58, 64
13, 64315, Note_on_c, 12, 59, 127
13, 64323, Note_on_c, 12, 63, 127
13, 64498, Note_off_c, 12, 59, 64
13, 64540, Note_off_c, 12, 63, 64
13, 64563, Note_on_c, 12, 71, 127
13, 64569, Note_on_c, 12, 51, 127
13, 64645, Note_off_c, 12, 71, 64
13, 64655, Note_off_c, 12, 51, 64
13, 64686, Note_on_c, 12, 49, 127
13, 64786, Note_off_c, 12, 49, 64
13, 64800, Note_on_c, 12, 51, 127
13, 64805, Note_on_c, 12, 66, 127
13, 64869, Note_off_c, 12, 51, 64
13, 64875, Note_off_c, 12, 66, 64
13, 65043, Note_on_c, 12, 63, 127
13, 65045, Note_on_c, 12, 59, 127
13, 65155, Note_off_c, 12, 59, 64
13, 65155, Note_on_c, 12, 61, 127
13, 65160, Note_on_c, 12, 58, 127
13, 65165, Note_off_c, 12, 63, 64
13, 65277, Note_off_c, 12, 61, 64
13, 65281, Note_on_c, 12, 63, 127
13, 65284, Note_on_c, 12, 59, 127
13, 65288, Note_off_c, 12, 58, 64
13, 65427, Note_off_c, 12, 63, 64
13, 65427, Note_off_c, 12, 59, 64
13, 65537, Note_on_c, 12, 47, 127
13, 65537, Note_on_c, 12, 71, 127
13, 65618, Note_off_c, 12, 47, 64
13, 65618, Note_off_c, 12, 71, 64
13, 65642, Note_on_c, 12, 49, 127
13, 65758, Note_on_c, 12, 51, 127
13, 65762, Note_on_c, 12, 66, 127
13, 65763, Note_off_c, 12, 49, 64
13, 65836, Note_off_c, 12, 51, 64
13, 65842, Note_off_c, 12, 66, 64
13, 65991, Note_on_c, 12, 53, 127
13, 66001, Note_on_c, 12, 68, 127
13, 66001, Note_on_c, 12, 61, 127
13, 66057, Note_off_c, 12, 53, 64
13, 66058, Note_off_c, 12, 68, 64
13, 66058, Note_off_c, 12, 61, 64
13, 66235, Note_on_c, 12, 54, 127
13, 66238, Note_on_c, 12, 70, 127
13, 66238, Note_on_c, 12, 61, 127
13, 66387, Note_off_c, 12, 54, 64
13, 66435, Note_off_c, 12, 70, 64
13, 66435, Note_off_c, 12, 61, 64
13, 66486, Note_on_c, 12, 42, 127
13, 66486, Note_on_c, 12, 61, 127
13, 66486, Note_on_c, 12, 70, 127
13, 66571, Note_off_c, 12, 42, 64
13, 66571, Note_off_c, 12, 61, 64
13, 66580, Note_off_c, 12, 70, 64
13, 66960, Note_on_c, 12, 54, 127
13, 66960, Note_on_c, 12, 59, 127
13, 67044, Note_off_c, 12, 59, 64
13, 67065, Note_off_c, 12, 54, 64
13, 67074, Note_on_c, 12, 53, 127
13, 67194, Note_off_c, 12, 53, 64
13, 67197, Note_on_c, 12, 54, 127
13, 67199, Note_on_c, 12, 58, 127
13, 67290, Note_off_c, 12, 54, 64
13, 67415, Note_off_c, 12, 58, 64
13, 67437, Note_on_c, 12, 66, 127
13, 67443, Note_on_c, 12, 49, 127
13, 67521, Note_off_c, 12, 66, 64
13, 67523, Note_off_c, 12, 49, 64
13, 67555, Note_on_c, 12, 47, 127
13, 67677, Note_on_c, 12, 49, 127
13, 67681, Note_off_c, 12, 47, 64
13, 67681, Note_on_c, 12, 61, 127
13, 67752, Note_off_c, 12, 61, 64
13, 67773, Note_off_c, 12, 49, 64
13, 67922, Note_on_c, 12, 54, 127
13, 67924, Note_on_c, 12, 59, 127
13, 67997, Note_off_c, 12, 59, 64
13, 68038, Note_on_c, 12, 53, 127
13, 68040, Note_off_c, 12, 54, 64
13, 68162, Note_on_c, 12, 54, 127
13, 68164, Note_on_c, 12, 58, 127
13, 68166, Note_off_c, 12, 53, 64
13, 68351, Note_off_c, 12, 54, 64
13, 68401, Note_off_c, 12, 58, 64
13, 68403, Note_on_c, 12, 66, 127
13, 68414, Note_on_c, 12, 46, 127
13, 68481, Note_off_c, 12, 66, 64
13, 68501, Note_off_c, 12, 46, 64
13, 68528, Note_on_c, 12, 44, 127
13, 68638, Note_off_c, 12, 44, 64
13, 68643, Note_on_c, 12, 46, 127
13, 68643, Note_on_c, 12, 61, 127
13, 68723, Note_off_c, 12, 61, 64
13, 68736, Note_off_c, 12, 46, 64
13, 68886, Note_on_c, 12, 54, 127
13, 68886, Note_on_c, 12, 58, 127
13, 68991, Note_off_c, 12, 54, 64
13, 68991, Note_off_c, 12, 58, 64
13, 68997, Note_on_c, 12, 53, 127
13, 68997, Note_on_c, 12, 56, 127
13, 69122, Note_on_c, 12, 54, 127
13, 69125, Note_on_c, 12, 58, 127
13, 69128, Note_off_c, 12, 53, 64
13, 69128, Note_off_c, 12, 56, 64
13, 69264, Note_off_c, 12, 54, 64
13, 69305, Note_off_c, 12, 58, 64
13, 69364, Note_on_c, 12, 66, 127
13, 69379, Note_on_c, 12, 42, 127
13, 69435, Note_off_c, 12, 66, 64
13, 69467, Note_off_c, 12, 42, 64
13, 69487, Note_on_c, 12, 44, 127
13, 69604, Note_on_c, 12, 61, 127
13, 69608, Note_on_c, 12, 46, 127
13, 69624, Note_off_c, 12, 44, 64
13, 69694, Note_off_c, 12, 61, 64
13, 69699, Note_off_c, 12, 46, 64
13, 69843, Note_on_c, 12, 68, 127
13, 69843, Note_on_c, 12, 63, 127
13, 69844, Note_on_c, 12, 48, 127
13, 69903, Note_off_c, 12, 68, 64
13, 69903, Note_off_c, 12, 63, 64
13, 69929, Note_off_c, 12, 48, 64
13, 70064, Note_on_c, 12, 61, 127
13, 70081, Note_on_c, 12, 49, 127
13, 70109, Note_on_c, 12, 65, 127
13, 70139, Note_on_c, 12, 68, 127
13, 70256, Note_off_c, 12, 49, 64
13, 70326, Note_on_c, 12, 49, 127
13, 70511, Note_off_c, 12, 49, 64
13, 70570, Note_on_c, 12, 49, 127
13, 70572, Note_off_c, 12, 65, 64
13, 70573, Note_off_c, 12, 68, 64
13, 70578, Note_off_c, 12, 61, 64
13, 70759, Note_off_c, 12, 49, 64
13, 70805, Note_on_c, 12, 49, 127
13, 70990, Note_off_c, 12, 49, 64
13, 70995, Note_on_c, 12, 56, 127
13, 71033, Note_on_c, 12, 61, 127
13, 71044, Note_on_c, 12, 49, 127
13, 71055, Note_on_c, 12, 65, 127
13, 71231, Note_off_c, 12, 49, 64
13, 71282, Note_on_c, 12, 49, 127
13, 71456, Note_off_c, 12, 49, 64
13, 71517, Note_on_c, 12, 49, 127
13, 71519, Note_off_c, 12, 61, 64
13, 71524, Note_off_c, 12, 65, 64
13, 71525, Note_off_c, 12, 56, 64
13, 71688, Note_off_c, 12, 49, 64
13, 71755, Note_on_c, 12, 49, 127
13, 71932, Note_off_c, 12, 49, 64
13, 71957, Note_on_c, 12, 53, 127
13, 71984, Note_on_c, 12, 56, 127
13, 71992, Note_on_c, 12, 49, 127
13, 72008, Note_on_c, 12, 61, 127
13, 72183, Note_off_c, 12, 49, 64
13, 72240, Note_on_c, 12, 49, 127
13, 72402, Note_off_c, 12, 49, 64
13, 72479, Note_on_c, 12, 49, 127
13, 72500, Note_off_c, 12, 53, 64
13, 72509, Note_off_c, 12, 56, 64
13, 72510, Note_off_c, 12, 61, 64
13, 72569, Note_off_c, 12, 49, 64
13, 72716, Note_on_c, 12, 61, 127
13, 72716, Note_on_c, 12, 70, 127
13, 72810, Note_off_c, 12, 70, 64
13, 72822, Note_off_c, 12, 61, 64
13, 72822, Note_on_c, 12, 71, 127
13, 72908, Note_off_c, 12, 71, 64
13, 72960, Note_on_c, 12, 58, 127
13, 72960, Note_on_c, 12, 73, 127
13, 73214, Note_on_c, 12, 56, 127
13, 73214, Note_on_c, 12, 71, 127
13, 73215, Note_off_c, 12, 58, 64
13, 73215, Note_off_c, 12, 73, 64
13, 73299, Note_off_c, 12, 56, 64
13, 73299, Note_off_c, 12, 71, 64
13, 73325, Note_on_c, 12, 54, 127
13, 73325, Note_on_c, 12, 70, 127
13, 73432, Note_off_c, 12, 54, 64
13, 73432, Note_off_c, 12, 70, 64
13, 73442, Note_on_c, 12, 56, 127
13, 73442, Note_on_c, 12, 71, 127
13, 73668, Note_off_c, 12, 56, 64
13, 73668, Note_off_c, 12, 71, 64
13, 73686, Note_on_c, 12, 54, 127
13, 73686, Note_on_c, 12, 70, 127
13, 73786, Note_off_c, 12, 54, 64
13, 73786, Note_off_c, 12, 70, 64
13, 73794, Note_on_c, 12, 53, 127
13, 73794, Note_on_c, 12, 68, 127
13, 73918, Note_off_c, 12, 53, 64
13, 73918, Note_off_c, 12, 68, 64
13, 73920, Note_on_c, 12, 54, 127
13, 73920, Note_on_c, 12, 58, 127
13, 73922, Note_on_c, 12, 61, 127
13, 73927, Note_on_c, 12, 66, 127
13, 74124, Note_off_c, 12, 54, 64
13, 74166, Note_on_c, 12, 54, 127
13, 74363, Note_off_c, 12, 54, 64
13, 74406, Note_on_c, 12, 54, 127
13, 74528, Note_off_c, 12, 66, 64
13, 74563, Note_off_c, 12, 61, 64
13, 74600, Note_off_c, 12, 58, 64
13, 74605, Note_off_c, 12, 54, 64
13, 74644, Note_on_c, 12, 54, 127
13, 74846, Note_off_c, 12, 54, 64
13, 74880, Note_on_c, 12, 58, 127
13, 74882, Note_on_c, 12, 61, 127
13, 74882, Note_on_c, 12, 66, 127
13, 74892, Note_on_c, 12, 54, 127
13, 75067, Note_off_c, 12, 54, 64
13, 75120, Note_on_c, 12, 54, 127
13, 75308, Note_off_c, 12, 54, 64
13, 75365, Note_on_c, 12, 54, 127
13, 75507, Note_off_c, 12, 66, 64
13, 75531, Note_off_c, 12, 61, 64
13, 75540, Note_off_c, 12, 54, 64
13, 75551, Note_off_c, 12, 58, 64
13, 75604, Note_on_c, 12, 54, 127
13, 75767, Note_off_c, 12, 54, 64
13, 75841, Note_on_c, 12, 61, 127
13, 75842, Note_on_c, 12, 66, 127
13, 75842, Note_on_c, 12, 70, 127
13, 75847, Note_on_c, 12, 54, 127
13, 76020, Note_off_c, 12, 54, 64
13, 76076, Note_on_c, 12, 54, 127
13, 76270, Note_off_c, 12, 54, 64
13, 76322, Note_on_c, 12, 54, 127
13, 76377, Note_off_c, 12, 70, 64
13, 76396, Note_off_c, 12, 66, 64
13, 76407, Note_off_c, 12, 61, 64
13, 76501, Note_off_c, 12, 54, 64
13, 76562, Note_on_c, 12, 54, 127
13, 76709, Note_off_c, 12, 54, 64
13, 76800, Note_on_c, 12, 54, 127
13, 76801, Note_on_c, 12, 66, 127
13, 76802, Note_on_c, 12, 70, 127
13, 76802, Note_on_c, 12, 73, 127
13, 77032, Note_off_c, 12, 54, 64
13, 77040, Note_on_c, 12, 42, 127
13, 77181, Note_off_c, 12, 42, 64
13, 77238, Note_off_c, 12, 73, 64
13, 77258, Note_off_c, 12, 70, 64
13, 77283, Note_off_c, 12, 66, 64
13, 77287, Note_on_c, 12, 42, 127
13, 77385, Note_off_c, 12, 42, 64
13, 77519, Note_on_c, 12, 54, 127
13, 77606, Note_off_c, 12, 54, 64
13, 77757, Note_on_c, 12, 54, 127
13, 77998, Note_on_c, 12, 42, 127
13, 78001, Note_off_c, 12, 54, 64
13, 78077, Note_off_c, 12, 42, 64
13, 78241, Note_on_c, 12, 42, 127
13, 78321, Note_off_c, 12, 42, 64
13, 78486, Note_on_c, 12, 54, 127
13, 78486, Note_on_c, 12, 78, 127
13, 78585, Note_off_c, 12, 54, 64
13, 78585, Note_off_c, 12, 78, 64
13, 78602, Note_on_c, 12, 53, 127
13, 78602, Note_on_c, 12, 77, 127
13, 78721, Note_on_c, 12, 54, 127
13, 78721, Note_on_c, 12, 78, 127
13, 78734, Note_off_c, 12, 53, 64
13, 78734, Note_off_c, 12, 77, 64
13, 78856, Note_off_c, 12, 54, 64
13, 78856, Note_off_c, 12, 78, 64
13, 78967, Note_on_c, 12, 42, 127
13, 78967, Note_on_c, 12, 66, 127
13, 79046, Note_off_c, 12, 42, 64
13, 79046, Note_off_c, 12, 66, 64
13, 79076, Note_on_c, 12, 44, 127
13, 79076, Note_on_c, 12, 68, 127
13, 79196, Note_off_c, 12, 44, 64
13, 79196, Note_off_c, 12, 68, 64
13, 79197, Note_on_c, 12, 46, 127
13, 79197, Note_on_c, 12, 70, 127
13, 79272, Note_off_c, 12, 46, 64
13, 79272, Note_off_c, 12, 70, 64
13, 79437, Note_on_c, 12, 48, 127
13, 79437, Note_on_c, 12, 72, 127
13, 79437, Note_on_c, 12, 68, 127
13, 79437, Note_on_c, 12, 66, 127
13, 79437, Note_on_c, 12, 63, 127
13, 79503, Note_off_c, 12, 48, 64
13, 79503, Note_off_c, 12, 72, 64
13, 79503, Note_off_c, 12, 68, 64
13, 79503, Note_off_c, 12, 66, 64
13, 79503, Note_off_c, 12, 63, 64
13, 79677, Note_on_c, 12, 49, 127
13, 79680, Note_on_c, 12, 65, 127
13, 79681, Note_on_c, 12, 68, 127
13, 79681, Note_on_c, 12, 73, 127
13, 79767, Note_off_c, 12, 65, 64
13, 79773, Note_off_c, 12, 68, 64
13, 79777, Note_off_c, 12, 73, 64
13, 79847, Note_off_c, 12, 49, 64
13, 79917, Note_on_c, 12, 37, 127
13, 79920, Note_on_c, 12, 61, 127
13, 79920, Note_on_c, 12, 65, 127
13, 79920, Note_on_c, 12, 68, 127
13, 80006, Note_off_c, 12, 37, 64
13, 80007, Note_off_c, 12, 61, 64
13, 80007, Note_off_c, 12, 68, 64
13, 80012, Note_off_c, 12, 65, 64
13, 80157, Note_on_c, 12, 37, 127
13, 80269, Note_off_c, 12, 37, 64
13, 80396, Note_on_c, 12, 61, 127
13, 80401, Note_on_c, 12, 66, 127
13, 80401, Note_on_c, 12, 70, 127
13, 80401, Note_on_c, 12, 73, 127
13, 80456, Note_off_c, 12, 70, 64
13, 80461, Note_off_c, 12, 73, 64
13, 80462, Note_off_c, 12, 66, 64
13, 80506, Note_off_c, 12, 61, 64
13, 80510, Note_on_c, 12, 60, 127
13, 80630, Note_on_c, 12, 61, 127
13, 80640, Note_on_c, 12, 65, 127
13, 80641, Note_on_c, 12, 68, 127
13, 80641, Note_on_c, 12, 73, 127
13, 80650, Note_off_c, 12, 60, 64
13, 80754, Note_off_c, 12, 68, 64
13, 80757, Note_off_c, 12, 65, 64
13, 80757, Note_off_c, 12, 73, 64
13, 80793, Note_off_c, 12, 61, 64
13, 80869, Note_on_c, 12, 49, 127
13, 80877, Note_on_c, 12, 68, 127
13, 80877, Note_on_c, 12, 73, 127
13, 80877, Note_on_c, 12, 77, 127
13, 80944, Note_off_c, 12, 49, 64
13, 80955, Note_off_c, 12, 68, 64
13, 80955, Note_off_c, 12, 77, 64
13, 80960, Note_off_c, 12, 73, 64
13, 81111, Note_on_c, 12, 37, 127
13, 81186, Note_off_c, 12, 37, 64
13, 81352, Note_on_c, 12, 49, 127
13, 81360, Note_on_c, 12, 78, 127
13, 81360, Note_on_c, 12, 70, 127
13, 81360, Note_on_c, 12, 73, 127
13, 81419, Note_off_c, 12, 70, 64
13, 81428, Note_off_c, 12, 73, 64
13, 81433, Note_off_c, 12, 78, 64
13, 81468, Note_off_c, 12, 49, 64
13, 81469, Note_on_c, 12, 48, 127
13, 81590, Note_on_c, 12, 49, 127
13, 81595, Note_off_c, 12, 48, 64
13, 81600, Note_on_c, 12, 77, 127
13, 81600, Note_on_c, 12, 68, 127
13, 81601, Note_on_c, 12, 73, 127
13, 81748, Note_off_c, 12, 77, 64
13, 81751, Note_off_c, 12, 73, 64
13, 81757, Note_off_c, 12, 68, 64
13, 81760, Note_off_c, 12, 49, 64
13, 81834, Note_on_c, 12, 37, 127
13, 81849, Note_on_c, 12, 68, 127
13, 81849, Note_on_c, 12, 73, 127
13, 81849, Note_on_c, 12, 65, 127
13, 81909, Note_off_c, 12, 37, 64
13, 81927, Note_off_c, 12, 68, 64
13, 81927, Note_off_c, 12, 65, 64
13, 81932, Note_off_c, 12, 73, 64
13, 82078, Note_on_c, 12, 37, 127
13, 82159, Note_off_c, 12, 37, 64
13, 82313, Note_on_c, 12, 65, 127
13, 82314, Note_on_c, 12, 68, 127
13, 82315, Note_on_c, 12, 73, 127
13, 82320, Note_on_c, 12, 53, 127
13, 82376, Note_off_c, 12, 68, 64
13, 82379, Note_off_c, 12, 65, 64
13, 82387, Note_off_c, 12, 73, 64
13, 82392, Note_off_c, 12, 53, 64
13, 82554, Note_on_c, 12, 54, 127
13, 82559, Note_on_c, 12, 78, 127
13, 82559, Note_on_c, 12, 70, 127
13, 82559, Note_on_c, 12, 73, 127
13, 82741, Note_off_c, 12, 70, 64
13, 82743, Note_off_c, 12, 73, 64
13, 82752, Note_off_c, 12, 78, 64
13, 82790, Note_off_c, 12, 54, 64
13, 82801, Note_on_c, 12, 51, 127
13, 82801, Note_on_c, 12, 66, 127
13, 82801, Note_on_c, 12, 70, 127
13, 82902, Note_off_c, 12, 66, 64
13, 82902, Note_off_c, 12, 70, 64
13, 83007, Note_off_c, 12, 51, 64
13, 83038, Note_on_c, 12, 47, 127
13, 83173, Note_off_c, 12, 47, 64
13, 83275, Note_on_c, 12, 49, 127
13, 83280, Note_on_c, 12, 70, 127
13, 83361, Note_off_c, 12, 49, 64
13, 83379, Note_off_c, 12, 70, 64
13, 83388, Note_on_c, 12, 68, 127
13, 83484, Note_off_c, 12, 68, 64
13, 83518, Note_on_c, 12, 51, 127
13, 83520, Note_on_c, 12, 70, 127
13, 83521, Note_on_c, 12, 66, 127
13, 83671, Note_off_c, 12, 66, 64
13, 83683, Note_off_c, 12, 70, 64
13, 83767, Note_off_c, 12, 51, 64
13, 83775, Note_on_c, 12, 49, 127
13, 83775, Note_on_c, 12, 66, 127
13, 83775, Note_on_c, 12, 58, 127
13, 83849, Note_off_c, 12, 49, 64
13, 83849, Note_off_c, 12, 66, 64
13, 83849, Note_off_c, 12, 58, 64
13, 83880, Note_on_c, 12, 47, 127
13, 83986, Note_off_c, 12, 47, 64
13, 83999, Note_on_c, 12, 46, 127
13, 84200, Note_off_c, 12, 46, 64
13, 84241, Note_on_c, 12, 73, 127
13, 84244, Note_on_c, 12, 66, 127
13, 84245, Note_on_c, 12, 44, 127
13, 84290, Note_off_c, 12, 73, 64
13, 84291, Note_off_c, 12, 66, 64
13, 84325, Note_off_c, 12, 44, 64
13, 84359, Note_on_c, 12, 42, 127
13, 84440, Note_off_c, 12, 42, 64
13, 84479, Note_on_c, 12, 75, 127
13, 84480, Note_on_c, 12, 66, 127
13, 84484, Note_on_c, 12, 47, 127
13, 84642, Note_off_c, 12, 66, 64
13, 84654, Note_off_c, 12, 75, 64
13, 84684, Note_off_c, 12, 47, 64
13, 84726, Note_on_c, 12, 46, 127
13, 84734, Note_on_c, 12, 73, 127
13, 84742, Note_on_c, 12, 66, 127
13, 84808, Note_off_c, 12, 46, 64
13, 84823, Note_off_c, 12, 73, 64
13, 84831, Note_off_c, 12, 66, 64
13, 84837, Note_on_c, 12, 44, 127
13, 84923, Note_off_c, 12, 44, 64
13, 84952, Note_on_c, 12, 42, 127
13, 85041, Note_off_c, 12, 42, 64
13, 85200, Note_on_c, 12, 61, 127
13, 85200, Note_on_c, 12, 70, 127
13, 85204, Note_on_c, 12, 54, 127
13, 85271, Note_off_c, 12, 70, 64
13, 85277, Note_off_c, 12, 61, 64
13, 85289, Note_off_c, 12, 54, 64
13, 85313, Note_on_c, 12, 53, 127
13, 85419, Note_off_c, 12, 53, 64
13, 85436, Note_on_c, 12, 51, 127
13, 85439, Note_on_c, 12, 66, 127
13, 85445, Note_on_c, 12, 71, 127
13, 85642, Note_off_c, 12, 71, 64
13, 85656, Note_off_c, 12, 51, 64
13, 85664, Note_off_c, 12, 66, 64
13, 85682, Note_on_c, 12, 49, 127
13, 85687, Note_on_c, 12, 66, 127
13, 85687, Note_on_c, 12, 70, 127
13, 85762, Note_off_c, 12, 49, 64
13, 85767, Note_off_c, 12, 66, 64
13, 85779, Note_off_c, 12, 70, 64
13, 85794, Note_on_c, 12, 47, 127
13, 85885, Note_off_c, 12, 47, 64
13, 85913, Note_on_c, 12, 46, 127
13, 85995, Note_off_c, 12, 46, 64
13, 86157, Note_on_c, 12, 48, 127
13, 86157, Note_on_c, 12, 63, 127
13, 86158, Note_on_c, 12, 68, 127
13, 86221, Note_off_c, 12, 68, 64
13, 86222, Note_off_c, 12, 48, 64
13, 86225, Note_off_c, 12, 63, 64
13, 86393, Note_on_c, 12, 61, 127
13, 86393, Note_on_c, 12, 66, 127
13, 86396, Note_on_c, 12, 70, 127
13, 86403, Note_on_c, 12, 49, 127
13, 86552, Note_off_c, 12, 49, 64
13, 86639, Note_on_c, 12, 68, 127
13, 86640, Note_on_c, 12, 37, 127
13, 86650, Note_off_c, 12, 70, 64
13, 86656, Note_off_c, 12, 66, 64
13, 86713, Note_off_c, 12, 37, 64
13, 86744, Note_off_c, 12, 61, 64
13, 86755, Note_off_c, 12, 68, 64
13, 86765, Note_on_c, 12, 66, 127
13, 86845, Note_off_c, 12, 66, 64
13, 86880, Note_on_c, 12, 37, 127
13, 86881, Note_on_c, 12, 68, 127
13, 86961, Note_off_c, 12, 68, 64
13, 86967, Note_off_c, 12, 37, 64
13, 87123, Note_on_c, 12, 49, 127
13, 87123, Note_on_c, 12, 61, 127
13, 87211, Note_off_c, 12, 49, 64
13, 87211, Note_off_c, 12, 61, 64
13, 87239, Note_on_c, 12, 51, 127
13, 87239, Note_on_c, 12, 63, 127
13, 87351, Note_off_c, 12, 51, 64
13, 87351, Note_off_c, 12, 63, 64
13, 87360, Note_on_c, 12, 53, 127
13, 87360, Note_on_c, 12, 65, 127
13, 87544, Note_off_c, 12, 53, 64
13, 87544, Note_off_c, 12, 65, 64
13, 87601, Note_on_c, 12, 54, 127
13, 87601, Note_on_c, 12, 66, 127
13, 87692, Note_off_c, 12, 54, 64
13, 87692, Note_off_c, 12, 66, 64
13, 87840, Note_on_c, 12, 56, 127
13, 87840, Note_on_c, 12, 68, 127
13, 87923, Note_off_c, 12, 56, 64
13, 87923, Note_off_c, 12, 68, 64
13, 88080, Note_on_c, 12, 53, 127
13, 88080, Note_on_c, 12, 61, 127
13, 88080, Note_on_c, 12, 68, 127
13, 88152, Note_off_c, 12, 53, 64
13, 88152, Note_off_c, 12, 61, 64
13, 88152, Note_off_c, 12, 68, 64
13, 88320, Note_on_c, 12, 54, 127
13, 88320, Note_on_c, 12, 66, 127
13, 88320, Note_on_c, 12, 61, 127
13, 88540, Note_off_c, 12, 54, 64
13, 88559, Note_off_c, 12, 66, 64
13, 88559, Note_off_c, 12, 61, 64
13, 88559, Note_on_c, 12, 47, 127
13, 88580, Note_on_c, 12, 68, 127
13, 88580, Note_on_c, 12, 63, 127
13, 88675, Note_off_c, 12, 47, 64
13, 88680, Note_off_c, 12, 68, 64
13, 88680, Note_off_c, 12, 63, 64
13, 88680, Note_on_c, 12, 70, 127
13, 88790, Note_off_c, 12, 70, 64
13, 88794, Note_on_c, 12, 49, 127
13, 88799, Note_on_c, 12, 68, 127
13, 88799, Note_on_c, 12, 66, 127
13, 88799, Note_on_c, 12, 61, 127
13, 88868, Note_off_c, 12, 68, 64
13, 88868, Note_off_c, 12, 66, 64
13, 88868, Note_off_c, 12, 61, 64
13, 88877, Note_off_c, 12, 49, 64
13, 89045, Note_on_c, 12, 68, 127
13, 89045, Note_on_c, 12, 65, 127
13, 89045, Note_on_c, 12, 59, 127
13, 89048, Note_on_c, 12, 37, 127
13, 89108, Note_off_c, 12, 68, 64
13, 89108, Note_off_c, 12, 65, 64
13, 89108, Note_off_c, 12, 59, 64
13, 89117, Note_off_c, 12, 37, 64
13, 89294, Note_on_c, 12, 39, 127
13, 89325, Note_on_c, 12, 51, 127
13, 89352, Note_on_c, 12, 54, 127
13, 89387, Note_on_c, 12, 58, 127
13, 89416, Note_on_c, 12, 63, 127
13, 89469, Note_on_c, 12, 66, 127
13, 89756, Note_off_c, 12, 51, 64
13, 89762, Note_off_c, 12, 58, 64
13, 89773, Note_off_c, 12, 63, 64
13, 89789, Note_off_c, 12, 54, 64
13, 89792, Note_off_c, 12, 66, 64
13, 89806, Note_off_c, 12, 39, 64
13, 90009, Note_on_c, 12, 41, 127
13, 90009, Note_on_c, 12, 58, 127
13, 90009, Note_on_c, 12, 61, 127
13, 90061, Note_off_c, 12, 41, 64
13, 90088, Note_off_c, 12, 58, 64
13, 90088, Note_off_c, 12, 61, 64
13, 90115, Note_on_c, 12, 56, 127
13, 90226, Note_off_c, 12, 56, 64
13, 90231, Note_on_c, 12, 58, 127
13, 90231, Note_on_c, 12, 61, 127
13, 90240, Note_on_c, 12, 42, 127
13, 90464, Note_off_c, 12, 58, 64
13, 90464, Note_off_c, 12, 61, 64
13, 90474, Note_off_c, 12, 42, 64
13, 90477, Note_on_c, 12, 63, 127
13, 90477, Note_on_c, 12, 66, 127
13, 90484, Note_on_c, 12, 47, 127
13, 90564, Note_off_c, 12, 47, 64
13, 90565, Note_off_c, 12, 63, 64
13, 90565, Note_off_c, 12, 66, 64
13, 90722, Note_on_c, 12, 49, 127
13, 90723, Note_on_c, 12, 61, 127
13, 90723, Note_on_c, 12, 66, 127
13, 90773, Note_off_c, 12, 61, 64
13, 90773, Note_off_c, 12, 66, 64
13, 90784, Note_off_c, 12, 49, 64
13, 90960, Note_on_c, 12, 37, 127
13, 90971, Note_on_c, 12, 59, 127
13, 90971, Note_on_c, 12, 65, 127
13, 91013, Note_off_c, 12, 59, 64
13, 91013, Note_off_c, 12, 65, 64
13, 91019, Note_off_c, 12, 37, 64
13, 91212, Note_on_c, 12, 54, 127
13, 91212, Note_on_c, 12, 66, 127
13, 91443, Note_off_c, 12, 54, 64
13, 91443, Note_off_c, 12, 66, 64
13, 91449, Note_on_c, 12, 53, 127
13, 91449, Note_on_c, 12, 65, 127
13, 91554, Note_off_c, 12, 53, 64
13, 91554, Note_off_c, 12, 65, 64
13, 91567, Note_on_c, 12, 51, 127
13, 91567, Note_on_c, 12, 63, 127
13, 91676, Note_off_c, 12, 51, 64
13, 91676, Note_off_c, 12, 63, 64
13, 91681, Note_on_c, 12, 49, 127
13, 91681, Note_on_c, 12, 61, 127
13, 91796, Note_off_c, 12, 49, 64
13, 91796, Note_off_c, 12, 61, 64
13, 91801, Note_on_c, 12, 47, 127
13, 91801, Note_on_c, 12, 59, 127
13, 91903, Note_off_c, 12, 47, 64
13, 91903, Note_off_c, 12, 59, 64
13, 91922, Note_on_c, 12, 46, 127
13, 91922, Note_on_c, 12, 58, 127
13, 92005, Note_off_c, 12, 46, 64
13, 92005, Note_off_c, 12, 58, 64
13, 92038, Note_on_c, 12, 44, 127
13, 92038, Note_on_c, 12, 56, 127
13, 92116, Note_off_c, 12, 44, 64
13, 92116, Note_off_c, 12, 56, 64
13, 92160, Note_on_c, 12, 42, 127
13, 92202, Note_on_c, 12, 54, 127
13, 92224, Note_on_c, 12, 58, 127
13, 92251, Note_on_c, 12, 61, 127
13, 92279, Note_on_c, 12, 64, 127
13, 92628, Note_off_c, 12, 64, 64
13, 92644, Note_off_c, 12, 61, 64
13, 92661, Note_off_c, 12, 54, 64
13, 92664, Note_off_c, 12, 58, 64
13, 92671, Note_off_c, 12, 42, 64
13, 93118, Note_on_c, 12, 42, 127
13, 93625, Note_off_c, 12, 42, 64
13, 94008, Note_on_c, 12, 54, 127
13, 94060, Note_on_c, 12, 59, 127
13, 94076, Note_on_c, 12, 42, 127
13, 94100, Note_on_c, 12, 61, 127
13, 94140, Note_on_c, 12, 63, 127
13, 94155, Note_off_c, 12, 61, 64
13, 94561, Note_off_c, 12, 42, 64
13, 94586, Note_off_c, 12, 63, 64
13, 94608, Note_off_c, 12, 54, 64
13, 94620, Note_off_c, 12, 59, 64
13, 95034, Note_on_c, 12, 42, 127
13, 95526, Note_off_c, 12, 42, 64
13, 95938, Note_on_c, 12, 56, 127
13, 95987, Note_on_c, 12, 59, 127
13, 95996, Note_on_c, 12, 42, 127
13, 96011, Note_on_c, 12, 61, 127
13, 96032, Note_on_c, 12, 65, 127
13, 96482, Note_off_c, 12, 42, 64
13, 96529, Note_off_c, 12, 65, 64
13, 96536, Note_off_c, 12, 56, 64
13, 96538, Note_off_c, 12, 61, 64
13, 96551, Note_off_c, 12, 59, 64
13, 96964, Note_on_c, 12, 42, 127
13, 97471, Note_off_c, 12, 42, 64
13, 97914, Note_on_c, 12, 54, 127
13, 97916, Note_on_c, 12, 61, 127
13, 97916, Note_on_c, 12, 66, 127
13, 97917, Note_on_c, 12, 58, 127
13, 98134, Note_off_c, 12, 54, 64
13, 98147, Note_off_c, 12, 66, 64
13, 98153, Note_on_c, 12, 53, 127
13, 98153, Note_on_c, 12, 68, 127
13, 98273, Note_off_c, 12, 58, 64
13, 98274, Note_off_c, 12, 61, 64
13, 98289, Note_off_c, 12, 53, 64
13, 98289, Note_off_c, 12, 68, 64
13, 98398, Note_on_c, 12, 51, 127
13, 98398, Note_on_c, 12, 63, 127
13, 98398, Note_on_c, 12, 66, 127
13, 98398, Note_on_c, 12, 70, 127
13, 98450, Note_off_c, 12, 66, 64
13, 98451, Note_off_c, 12, 70, 64
13, 98452, Note_off_c, 12, 63, 64
13, 98497, Note_off_c, 12, 51, 64
13, 98639, Note_on_c, 12, 56, 127
13, 98639, Note_on_c, 12, 60, 127
13, 98639, Note_on_c, 12, 68, 127
13, 98639, Note_on_c, 12, 63, 127
13, 98687, Note_off_c, 12, 63, 64
13, 98689, Note_off_c, 12, 68, 64
13, 98690, Note_off_c, 12, 60, 64
13, 98697, Note_off_c, 12, 56, 64
13, 98882, Note_on_c, 12, 49, 127
13, 98882, Note_on_c, 12, 65, 127
13, 98930, Note_on_c, 12, 61, 127
13, 98972, Note_on_c, 12, 53, 127
13, 98981, Note_on_c, 12, 56, 127
13, 99020, Note_on_c, 12, 51, 127
13, 99120, Note_off_c, 12, 49, 64
13, 99124, Note_on_c, 12, 48, 127
13, 99225, Note_off_c, 12, 48, 64
13, 99244, Note_on_c, 12, 46, 127
13, 99316, Note_off_c, 12, 61, 64
13, 99316, Note_off_c, 12, 56, 64
13, 99319, Note_off_c, 12, 53, 64
13, 99320, Note_off_c, 12, 51, 64
13, 99321, Note_off_c, 12, 65, 64
13, 99334, Note_off_c, 12, 46, 64
13, 99362, Note_on_c, 12, 44, 127
13, 99448, Note_off_c, 12, 44, 64
13, 99479, Note_on_c, 12, 42, 127
13, 99560, Note_off_c, 12, 42, 64
13, 99600, Note_on_c, 12, 41, 127
13, 99680, Note_off_c, 12, 41, 64
13, 99712, Note_on_c, 12, 39, 127
13, 99808, Note_off_c, 12, 39, 64
13, 99835, Note_on_c, 12, 38, 127
13, 99876, Note_on_c, 12, 56, 127
13, 99899, Note_on_c, 12, 59, 127
13, 99917, Note_on_c, 12, 65, 127
13, 99951, Note_on_c, 12, 68, 127
13, 100332, Note_off_c, 12, 38, 64
13, 100349, Note_off_c, 12, 56, 64
13, 100360, Note_off_c, 12, 65, 64
13, 100363, Note_off_c, 12, 59, 64
13, 100367, Note_off_c, 12, 68, 64
13, 100797, Note_on_c, 12, 41, 127
13, 101276, Note_off_c, 12, 41, 64
13, 101675, Note_on_c, 12, 53, 127
13, 101738, Note_on_c, 12, 58, 127
13, 101756, Note_on_c, 12, 44, 127
13, 101761, Note_on_c, 12, 62, 127
13, 101788, Note_on_c, 12, 65, 127
13, 101824, Note_on_c, 12, 70, 127
13, 102245, Note_off_c, 12, 53, 64
13, 102248, Note_off_c, 12, 44, 64
13, 102266, Note_off_c, 12, 58, 64
13, 102267, Note_off_c, 12, 65, 64
13, 102274, Note_off_c, 12, 62, 64
13, 102278, Note_off_c, 12, 70, 64
13, 102720, Note_on_c, 12, 56, 127
13, 103220, Note_off_c, 12, 56, 64
13, 103631, Note_on_c, 12, 58, 127
13, 103667, Note_on_c, 12, 62, 127
13, 103689, Note_on_c, 12, 50, 127
13, 103714, Note_on_c, 12, 65, 127
13, 103752, Note_on_c, 12, 68, 127
13, 104155, Note_off_c, 12, 50, 64
13, 104188, Note_off_c, 12, 58, 64
13, 104192, Note_off_c, 12, 68, 64
13, 104193, Note_off_c, 12, 62, 64
13, 104198, Note_off_c, 12, 65, 64
13, 104629, Note_on_c, 12, 46, 127
13, 105229, Note_off_c, 12, 46, 64
13, 105598, Note_on_c, 12, 51, 127
13, 105600, Note_on_c, 12, 63, 127
13, 105600, Note_on_c, 12, 58, 127
13, 105601, Note_on_c, 12, 66, 127
13, 105785, Note_off_c, 12, 51, 64
13, 105848, Note_on_c, 12, 51, 127
13, 106015, Note_off_c, 12, 51, 64
13, 106080, Note_off_c, 12, 58, 64
13, 106080, Note_on_c, 12, 51, 127
13, 106085, Note_off_c, 12, 63, 64
13, 106099, Note_off_c, 12, 66, 64
13, 106253, Note_off_c, 12, 51, 64
13, 106316, Note_on_c, 12, 51, 127
13, 106500, Note_off_c, 12, 51, 64
13, 106560, Note_on_c, 12, 51, 127
13, 106560, Note_on_c, 12, 63, 127
13, 106561, Note_on_c, 12, 58, 127
13, 106565, Note_on_c, 12, 54, 127
13, 106746, Note_off_c, 12, 51, 64
13, 106800, Note_on_c, 12, 51, 127
13, 106965, Note_off_c, 12, 51, 64
13, 107035, Note_on_c, 12, 51, 127
13, 107037, Note_off_c, 12, 54, 64
13, 107041, Note_off_c, 12, 63, 64
13, 107043, Note_off_c, 12, 58, 64
13, 107196, Note_off_c, 12, 51, 64
13, 107280, Note_on_c, 12, 51, 127
13, 107386, Note_off_c, 12, 51, 64
13, 107395, Note_on_c, 12, 50, 127
13, 107510, Note_off_c, 12, 50, 64
13, 107517, Note_on_c, 12, 51, 127
13, 107520, Note_on_c, 12, 54, 127
13, 107521, Note_on_c, 12, 58, 127
13, 107614, Note_off_c, 12, 51, 64
13, 107657, Note_off_c, 12, 54, 64
13, 107657, Note_off_c, 12, 58, 64
13, 107765, Note_on_c, 12, 39, 127
13, 107765, Note_on_c, 12, 63, 127
13, 107855, Note_off_c, 12, 39, 64
13, 107855, Note_off_c, 12, 63, 64
13, 107876, Note_on_c, 12, 41, 127
13, 107876, Note_on_c, 12, 65, 127
13, 107992, Note_off_c, 12, 41, 64
13, 107992, Note_off_c, 12, 65, 64
13, 108001, Note_on_c, 12, 42, 127
13, 108001, Note_on_c, 12, 66, 127
13, 108124, Note_off_c, 12, 66, 64
13, 108151, Note_off_c, 12, 42, 64
13, 108240, Note_on_c, 12, 44, 127
13, 108240, Note_on_c, 12, 68, 127
13, 108327, Note_off_c, 12, 44, 64
13, 108327, Note_off_c, 12, 68, 64
13, 108483, Note_on_c, 12, 46, 127
13, 108506, Note_on_c, 12, 50, 127
13, 108522, Note_on_c, 12, 53, 127
13, 108542, Note_on_c, 12, 56, 127
13, 108551, Note_on_c, 12, 58, 127
13, 108642, Note_off_c, 12, 46, 64
13, 108717, Note_on_c, 12, 46, 127
13, 108896, Note_off_c, 12, 46, 64
13, 108957, Note_on_c, 12, 46, 127
13, 109025, Note_off_c, 12, 50, 64
13, 109032, Note_off_c, 12, 56, 64
13, 109039, Note_off_c, 12, 53, 64
13, 109041, Note_off_c, 12, 58, 64
13, 109143, Note_off_c, 12, 46, 64
13, 109198, Note_on_c, 12, 46, 127
13, 109380, Note_off_c, 12, 46, 64
13, 109410, Note_on_c, 12, 53, 127
13, 109428, Note_on_c, 12, 56, 127
13, 109443, Note_on_c, 12, 46, 127
13, 109455, Note_on_c, 12, 58, 127
13, 109473, Note_on_c, 12, 62, 127
13, 109620, Note_off_c, 12, 46, 64
13, 109680, Note_on_c, 12, 46, 127
13, 109859, Note_off_c, 12, 46, 64
13, 109922, Note_on_c, 12, 46, 127
13, 109974, Note_off_c, 12, 53, 64
13, 109986, Note_off_c, 12, 58, 64
13, 109990, Note_off_c, 12, 56, 64
13, 110004, Note_off_c, 12, 62, 64
13, 110082, Note_off_c, 12, 46, 64
13, 110159, Note_on_c, 12, 46, 127
13, 110333, Note_off_c, 12, 46, 64
13, 110371, Note_on_c, 12, 56, 127
13, 110381, Note_on_c, 12, 58, 127
13, 110393, Note_on_c, 12, 62, 127
13, 110408, Note_on_c, 12, 46, 127
13, 110417, Note_on_c, 12, 65, 127
13, 110575, Note_off_c, 12, 46, 64
13, 110641, Note_on_c, 12, 46, 127
13, 110802, Note_off_c, 12, 46, 64
13, 110860, Note_off_c, 12, 56, 64
13, 110872, Note_off_c, 12, 62, 64
13, 110879, Note_off_c, 12, 58, 64
13, 110880, Note_off_c, 12, 65, 64
13, 110880, Note_on_c, 12, 46, 127
13, 110972, Note_off_c, 12, 46, 64
13, 111120, Note_on_c, 12, 58, 127
13, 111120, Note_on_c, 12, 70, 127
13, 111208, Note_off_c, 12, 58, 64
13, 111208, Note_off_c, 12, 70, 64
13, 111366, Note_on_c, 12, 54, 127
13, 111366, Note_on_c, 12, 66, 127
13, 111579, Note_off_c, 12, 54, 64
13, 111579, Note_off_c, 12, 66, 64
13, 111604, Note_on_c, 12, 53, 127
13, 111604, Note_on_c, 12, 65, 127
13, 111685, Note_off_c, 12, 53, 64
13, 111685, Note_off_c, 12, 65, 64
13, 111713, Note_on_c, 12, 51, 127
13, 111713, Note_on_c, 12, 63, 127
13, 111803, Note_off_c, 12, 51, 64
13, 111803, Note_off_c, 12, 63, 64
13, 111838, Note_on_c, 12, 53, 127
13, 111838, Note_on_c, 12, 65, 127
13, 112074, Note_off_c, 12, 53, 64
13, 112074, Note_off_c, 12, 65, 64
13, 112091, Note_on_c, 12, 51, 127
13, 112091, Note_on_c, 12, 63, 127
13, 112180, Note_off_c, 12, 51, 64
13, 112180, Note_off_c, 12, 63, 64
13, 112198, Note_on_c, 12, 50, 127
13, 112198, Note_on_c, 12, 62, 127
13, 112270, Note_off_c, 12, 50, 64
13, 112270, Note_off_c, 12, 62, 64
13, 112334, Note_on_c, 12, 59, 127
13, 112334, Note_on_c, 12, 71, 127
13, 112650, Note_off_c, 12, 59, 64
13, 112650, Note_off_c, 12, 71, 64
13, 112690, Note_on_c, 12, 58, 127
13, 112690, Note_on_c, 12, 70, 127
13, 112763, Note_off_c, 12, 58, 64
13, 112763, Note_off_c, 12, 70, 64
13, 112803, Note_on_c, 12, 56, 127
13, 112803, Note_on_c, 12, 68, 127
13, 112877, Note_off_c, 12, 56, 64
13, 112877, Note_off_c, 12, 68, 64
13, 112919, Note_on_c, 12, 54, 127
13, 112919, Note_on_c, 12, 66, 127
13, 112997, Note_off_c, 12, 54, 64
13, 112997, Note_off_c, 12, 66, 64
13, 113030, Note_on_c, 12, 53, 127
13, 113030, Note_on_c, 12, 65, 127
13, 113119, Note_off_c, 12, 53, 64
13, 113119, Note_off_c, 12, 65, 64
13, 113146, Note_on_c, 12, 51, 127
13, 113146, Note_on_c, 12, 63, 127
13, 113233, Note_off_c, 12, 51, 64
13, 113233, Note_off_c, 12, 63, 64
13, 113280, Note_on_c, 12, 50, 127
13, 113280, Note_on_c, 12, 70, 127
13, 113280, Note_on_c, 12, 65, 127
13, 113490, Note_off_c, 12, 70, 64
13, 113506, Note_off_c, 12, 50, 64
13, 113506, Note_off_c, 12, 65, 64
13, 113514, Note_on_c, 12, 51, 127
13, 113514, Note_on_c, 12, 70, 127
13, 113514, Note_on_c, 12, 63, 127
13, 113583, Note_off_c, 12, 51, 64
13, 113583, Note_off_c, 12, 70, 64
13, 113583, Note_off_c, 12, 63, 64
13, 113754, Note_on_c, 12, 44, 127
13, 113758, Note_on_c, 12, 65, 127
13, 113758, Note_on_c, 12, 63, 127
13, 113830, Note_off_c, 12, 44, 64
13, 113878, Note_off_c, 12, 65, 64
13, 113878, Note_off_c, 12, 63, 64
13, 113999, Note_on_c, 12, 46, 127
13, 113999, Note_on_c, 12, 62, 127
13, 113999, Note_on_c, 12, 65, 127
13, 114000, Note_on_c, 12, 70, 127
13, 114058, Note_off_c, 12, 62, 64
13, 114062, Note_off_c, 12, 65, 64
13, 114066, Note_off_c, 12, 70, 64
13, 114082, Note_off_c, 12, 46, 64
13, 114239, Note_on_c, 12, 63, 127
13, 114240, Note_on_c, 12, 58, 127
13, 114241, Note_on_c, 12, 66, 127
13, 114258, Note_on_c, 12, 39, 127
13, 114707, Note_off_c, 12, 39, 64
13, 114710, Note_off_c, 12, 66, 64
13, 114713, Note_off_c, 12, 63, 64
13, 114713, Note_off_c, 12, 58, 64
13, 114954, Note_on_c, 12, 46, 127
13, 114960, Note_on_c, 12, 70, 127
13, 114960, Note_on_c, 12, 65, 127
13, 115007, Note_off_c, 12, 70, 64
13, 115007, Note_off_c, 12, 65, 64
13, 115014, Note_off_c, 12, 46, 64
13, 115201, Note_on_c, 12, 66, 127
13, 115201, Note_on_c, 12, 63, 127
13, 115201, Note_on_c, 12, 58, 127
13, 115206, Note_on_c, 12, 51, 127
13, 115515, Note_off_c, 12, 66, 64
13, 115515, Note_off_c, 12, 63, 64
13, 115515, Note_off_c, 12, 58, 64
13, 115709, Note_off_c, 12, 51, 64
13, 115908, Note_on_c, 12, 58, 127
13, 115908, Note_on_c, 12, 68, 127
13, 115908, Note_on_c, 12, 74, 127
13, 115908, Note_on_c, 12, 65, 127
13, 115968, Note_off_c, 12, 58, 64
13, 115968, Note_off_c, 12, 68, 64
13, 115968, Note_off_c, 12, 74, 64
13, 115968, Note_off_c, 12, 65, 64
13, 116159, Note_on_c, 12, 75, 127
13, 116159, Note_on_c, 12, 66, 127
13, 116159, Note_on_c, 12, 63, 127
13, 116476, Note_off_c, 12, 75, 64
13, 116476, Note_off_c, 12, 66, 64
13, 116654, Note_off_c, 12, 63, 64
13, 116881, Note_on_c, 12, 70, 127
13, 116881, Note_on_c, 12, 65, 127
13, 116881, Note_on_c, 12, 62, 127
13, 116887, Note_on_c, 12, 58, 127
13, 116926, Note_off_c, 12, 70, 64
13, 116926, Note_off_c, 12, 65, 64
13, 116926, Note_off_c, 12, 62, 64
13, 116950, Note_off_c, 12, 58, 64
13, 117120, Note_on_c, 12, 75, 127
13, 117120, Note_on_c, 12, 70, 127
13, 117120, Note_on_c, 12, 66, 127
13, 117125, Note_on_c, 12, 51, 127
13, 117234, Note_off_c, 12, 51, 64
13, 117242, Note_on_c, 12, 53, 127
13, 117337, Note_off_c, 12, 70, 64
13, 117337, Note_off_c, 12, 66, 64
13, 117339, Note_off_c, 12, 53, 64
13, 117353, Note_off_c, 12, 75, 64
13, 117359, Note_on_c, 12, 54, 127
13, 117359, Note_on_c, 12, 70, 127
13, 117359, Note_on_c, 12, 66, 127
13, 117359, Note_on_c, 12, 63, 127
13, 117429, Note_off_c, 12, 54, 64
13, 117429, Note_off_c, 12, 70, 64
13, 117429, Note_off_c, 12, 66, 64
13, 117429, Note_off_c, 12, 63, 64
13, 117479, Note_on_c, 12, 53, 127
13, 117542, Note_off_c, 12, 53, 64
13, 117595, Note_on_c, 12, 51, 127
13, 117595, Note_on_c, 12, 66, 127
13, 117595, Note_on_c, 12, 63, 127
13, 117595, Note_on_c, 12, 58, 127
13, 117668, Note_off_c, 12, 51, 64
13, 117668, Note_off_c, 12, 66, 64
13, 117668, Note_off_c, 12, 63, 64
13, 117668, Note_off_c, 12, 58, 64
13, 117712, Note_on_c, 12, 49, 127
13, 117791, Note_off_c, 12, 49, 64
13, 117834, Note_on_c, 12, 48, 127
13, 117834, Note_on_c, 12, 63, 127
13, 117834, Note_on_c, 12, 54, 127
13, 117834, Note_on_c, 12, 58, 127
13, 117903, Note_off_c, 12, 48, 64
13, 117903, Note_off_c, 12, 63, 64
13, 117903, Note_off_c, 12, 54, 64
13, 117903, Note_off_c, 12, 58, 64
13, 117952, Note_on_c, 12, 46, 127
13, 118021, Note_off_c, 12, 46, 64
13, 118077, Note_on_c, 12, 44, 127
13, 118077, Note_on_c, 12, 60, 127
13, 118079, Note_on_c, 12, 56, 127
13, 118080, Note_on_c, 12, 51, 127
13, 118573, Note_off_c, 12, 60, 64
13, 118574, Note_off_c, 12, 56, 64
13, 118580, Note_off_c, 12, 51, 64
13, 118602, Note_off_c, 12, 44, 64
13, 118796, Note_on_c, 12, 39, 127
13, 118796, Note_on_c, 12, 58, 127
13, 118796, Note_on_c, 12, 55, 127
13, 118796, Note_on_c, 12, 61, 127
13, 118867, Note_off_c, 12, 39, 64
13, 118867, Note_off_c, 12, 58, 64
13, 118867, Note_off_c, 12, 55, 64
13, 118867, Note_off_c, 12, 61, 64
13, 119041, Note_on_c, 12, 44, 127
13, 119041, Note_on_c, 12, 60, 127
13, 119041, Note_on_c, 12, 56, 127
13, 119041, Note_on_c, 12, 51, 127
13, 119555, Note_off_c, 12, 44, 64
13, 119555, Note_off_c, 12, 60, 64
13, 119555, Note_off_c, 12, 56, 64
13, 119555, Note_off_c, 12, 51, 64
13, 119759, Note_on_c, 12, 51, 127
13, 119759, Note_on_c, 12, 67, 127
13, 119759, Note_on_c, 12, 61, 127
13, 119759, Note_on_c, 12, 58, 127
13, 119825, Note_off_c, 12, 51, 64
13, 119825, Note_off_c, 12, 67, 64
13, 119825, Note_off_c, 12, 61, 64
13, 119825, Note_off_c, 12, 58, 64
13, 120003, Note_on_c, 12, 56, 127
13, 120003, Note_on_c, 12, 68, 127
13, 120003, Note_on_c, 12, 63, 127
13, 120003, Note_on_c, 12, 60, 127
13, 120457, Note_off_c, 12, 56, 64
13, 120457, Note_off_c, 12, 68, 64
13, 120457, Note_off_c, 12, 63, 64
13, 120457, Note_off_c, 12, 60, 64
13, 120726, Note_on_c, 12, 51, 127
13, 120726, Note_on_c, 12, 61, 127
13, 120726, Note_on_c, 12, 58, 127
13, 120726, Note_on_c, 12, 55, 127
13, 120793, Note_off_c, 12, 51, 64
13, 120793, Note_off_c, 12, 61, 64
13, 120793, Note_off_c, 12, 58, 64
13, 120793, Note_off_c, 12, 55, 64
13, 120967, Note_on_c, 12, 44, 127
13, 120967, Note_on_c, 12, 56, 127
13, 120967, Note_on_c, 12, 51, 127
13, 120967, Note_on_c, 12, 60, 127
13, 121087, Note_on_c, 12, 46, 127
13, 121109, Note_off_c, 12, 44, 64
13, 121109, Note_off_c, 12, 56, 64
13, 121109, Note_off_c, 12, 51, 64
13, 121109, Note_off_c, 12, 60, 64
13, 121206, Note_on_c, 12, 48, 127
13, 121206, Note_on_c, 12, 63, 127
13, 121206, Note_on_c, 12, 56, 127
13, 121218, Note_off_c, 12, 46, 64
13, 121300, Note_off_c, 12, 48, 64
13, 121300, Note_off_c, 12, 63, 64
13, 121300, Note_off_c, 12, 56, 64
13, 121319, Note_on_c, 12, 46, 127
13, 121402, Note_off_c, 12, 46, 64
13, 121441, Note_on_c, 12, 44, 127
13, 121441, Note_on_c, 12, 66, 127
13, 121441, Note_on_c, 12, 63, 127
13, 121441, Note_on_c, 12, 60, 127
13, 121512, Note_off_c, 12, 44, 64
13, 121512, Note_off_c, 12, 66, 64
13, 121512, Note_off_c, 12, 63, 64
13, 121512, Note_off_c, 12, 60, 64
13, 121559, Note_on_c, 12, 42, 127
13, 121623, Note_off_c, 12, 42, 64
13, 121676, Note_on_c, 12, 41, 127
13, 121676, Note_on_c, 12, 72, 127
13, 121676, Note_on_c, 12, 68, 127
13, 121746, Note_off_c, 12, 41, 64
13, 121746, Note_off_c, 12, 72, 64
13, 121746, Note_off_c, 12, 68, 64
13, 121795, Note_on_c, 12, 39, 127
13, 121869, Note_off_c, 12, 39, 64
13, 121923, Note_on_c, 12, 37, 127
13, 121923, Note_on_c, 12, 73, 127
13, 121970, Note_on_c, 12, 68, 127
13, 122010, Note_on_c, 12, 65, 127
13, 122052, Note_on_c, 12, 61, 127
13, 122410, Note_off_c, 12, 61, 64
13, 122415, Note_off_c, 12, 73, 64
13, 122418, Note_off_c, 12, 68, 64
13, 122420, Note_off_c, 12, 65, 64
13, 122449, Note_off_c, 12, 37, 64
13, 122644, Note_on_c, 12, 44, 127
13, 122708, Note_off_c, 12, 44, 64
13, 122880, Note_on_c, 12, 65, 127
13, 122881, Note_on_c, 12, 68, 127
13, 122888, Note_on_c, 12, 49, 127
13, 123264, Note_off_c, 12, 65, 64
13, 123270, Note_off_c, 12, 68, 64
13, 123379, Note_off_c, 12, 49, 64
13, 123596, Note_on_c, 12, 56, 127
13, 123669, Note_off_c, 12, 56, 64
13, 123837, Note_on_c, 12, 61, 127
13, 123844, Note_on_c, 12, 68, 127
13, 123845, Note_on_c, 12, 65, 127
13, 124240, Note_off_c, 12, 68, 64
13, 124246, Note_off_c, 12, 65, 64
13, 124338, Note_off_c, 12, 61, 64
13, 124560, Note_on_c, 12, 56, 127
13, 124638, Note_off_c, 12, 56, 64
13, 124800, Note_on_c, 12, 49, 127
13, 124801, Note_on_c, 12, 65, 127
13, 124801, Note_on_c, 12, 56, 127
13, 125295, Note_off_c, 12, 49, 64
13, 125298, Note_off_c, 12, 65, 64
13, 125300, Note_off_c, 12, 56, 64
13, 125522, Note_on_c, 12, 37, 127
13, 125524, Note_on_c, 12, 65, 127
13, 125524, Note_on_c, 12, 61, 127
13, 125524, Note_on_c, 12, 68, 127
13, 125593, Note_off_c, 12, 37, 64
13, 125595, Note_off_c, 12, 65, 64
13, 125595, Note_off_c, 12, 61, 64
13, 125596, Note_off_c, 12, 68, 64
13, 125765, Note_on_c, 12, 42, 127
13, 125774, Note_on_c, 12, 61, 127
13, 125775, Note_on_c, 12, 66, 127
13, 125777, Note_on_c, 12, 70, 127
13, 126249, Note_off_c, 12, 42, 64
13, 126266, Note_off_c, 12, 66, 64
13, 126266, Note_off_c, 12, 70, 64
13, 126271, Note_off_c, 12, 61, 64
13, 126477, Note_on_c, 12, 37, 127
13, 126479, Note_on_c, 12, 65, 127
13, 126479, Note_on_c, 12, 61, 127
13, 126479, Note_on_c, 12, 68, 127
13, 126539, Note_off_c, 12, 65, 64
13, 126540, Note_off_c, 12, 68, 64
13, 126542, Note_off_c, 12, 61, 64
13, 126546, Note_off_c, 12, 37, 64
13, 126724, Note_on_c, 12, 42, 127
13, 126724, Note_on_c, 12, 61, 127
13, 126726, Note_on_c, 12, 66, 127
13, 126726, Note_on_c, 12, 58, 127
13, 127208, Note_off_c, 12, 42, 64
13, 127232, Note_off_c, 12, 66, 64
13, 127232, Note_off_c, 12, 58, 64
13, 127235, Note_off_c, 12, 61, 64
13, 127440, Note_on_c, 12, 59, 127
13, 127441, Note_on_c, 12, 53, 127
13, 127441, Note_on_c, 12, 61, 127
13, 127504, Note_off_c, 12, 59, 64
13, 127504, Note_off_c, 12, 61, 64
13, 127508, Note_off_c, 12, 53, 64
13, 127677, Note_on_c, 12, 58, 127
13, 127677, Note_on_c, 12, 61, 127
13, 127678, Note_on_c, 12, 54, 127
13, 127796, Note_on_c, 12, 49, 127
13, 127802, Note_off_c, 12, 54, 64
13, 127884, Note_off_c, 12, 49, 64
13, 127918, Note_on_c, 12, 42, 127
13, 127990, Note_off_c, 12, 42, 64
13, 128032, Note_on_c, 12, 44, 127
13, 128104, Note_off_c, 12, 44, 64
13, 128136, Note_off_c, 12, 61, 64
13, 128141, Note_off_c, 12, 58, 64
13, 128153, Note_on_c, 12, 46, 127
13, 128266, Note_off_c, 12, 46, 64
13, 128271, Note_on_c, 12, 47, 127
13, 128370, Note_off_c, 12, 47, 64
13, 128393, Note_on_c, 12, 49, 127
13, 128471, Note_off_c, 12, 49, 64
13, 128515, Note_on_c, 12, 47, 127
13, 128593, Note_off_c, 12, 47, 64
13, 128632, Note_on_c, 12, 58, 127
13, 128640, Note_on_c, 12, 46, 127
13, 128667, Note_on_c, 12, 61, 127
13, 128693, Note_on_c, 12, 66, 127
13, 128721, Note_off_c, 12, 46, 64
13, 128761, Note_on_c, 12, 49, 127
13, 128849, Note_off_c, 12, 49, 64
13, 128882, Note_on_c, 12, 42, 127
13, 128958, Note_off_c, 12, 42, 64
13, 129003, Note_on_c, 12, 44, 127
13, 129072, Note_off_c, 12, 44, 64
13, 129130, Note_off_c, 12, 61, 64
13, 129131, Note_on_c, 12, 46, 127
13, 129134, Note_off_c, 12, 66, 64
13, 129141, Note_off_c, 12, 58, 64
13, 129224, Note_off_c, 12, 46, 64
13, 129243, Note_on_c, 12, 47, 127
13, 129330, Note_off_c, 12, 47, 64
13, 129361, Note_on_c, 12, 49, 127
13, 129436, Note_off_c, 12, 49, 64
13, 129479, Note_on_c, 12, 47, 127
13, 129560, Note_off_c, 12, 47, 64
13, 129601, Note_on_c, 12, 46, 127
13, 129692, Note_off_c, 12, 46, 64
13, 129717, Note_on_c, 12, 47, 127
13, 129805, Note_off_c, 12, 47, 64
13, 129833, Note_on_c, 12, 49, 127
13, 129840, Note_on_c, 12, 66, 127
13, 129840, Note_on_c, 12, 70, 127
13, 129905, Note_off_c, 12, 49, 64
13, 129949, Note_on_c, 12, 47, 127
13, 130016, Note_off_c, 12, 66, 64
13, 130016, Note_off_c, 12, 70, 64
13, 130017, Note_off_c, 12, 47, 64
13, 130071, Note_on_c, 12, 46, 127
13, 130071, Note_on_c, 12, 66, 127
13, 130071, Note_on_c, 12, 61, 127
13, 130137, Note_off_c, 12, 66, 64
13, 130141, Note_off_c, 12, 46, 64
13, 130145, Note_off_c, 12, 61, 64
13, 130193, Note_on_c, 12, 44, 127
13, 130263, Note_off_c, 12, 44, 64
13, 130312, Note_on_c, 12, 42, 127
13, 130315, Note_on_c, 12, 58, 127
13, 130318, Note_on_c, 12, 61, 127
13, 130363, Note_off_c, 12, 61, 64
13, 130367, Note_off_c, 12, 58, 64
13, 130386, Note_off_c, 12, 42, 64
13, 130430, Note_on_c, 12, 41, 127
13, 130498, Note_off_c, 12, 41, 64
13, 130554, Note_on_c, 12, 60, 127
13, 130563, Note_on_c, 12, 39, 127
13, 130635, Note_on_c, 12, 57, 127
13, 130694, Note_on_c, 12, 54, 127
13, 130958, Note_off_c, 12, 39, 64
13, 131289, Note_off_c, 12, 57, 64
13, 131292, Note_off_c, 12, 60, 64
13, 131302, Note_off_c, 12, 54, 64
13, 131514, Note_on_c, 12, 39, 127
13, 131953, Note_off_c, 12, 39, 64
13, 132399, Note_on_c, 12, 57, 127
13, 132438, Note_on_c, 12, 51, 127
13, 132445, Note_on_c, 12, 60, 127
13, 132512, Note_on_c, 12, 63, 127
13, 132567, Note_on_c, 12, 65, 127
13, 132895, Note_off_c, 12, 51, 64
13, 133117, Note_off_c, 12, 63, 64
13, 133127, Note_off_c, 12, 57, 64
13, 133127, Note_off_c, 12, 60, 64
13, 133147, Note_off_c, 12, 65, 64
13, 133437, Note_on_c, 12, 51, 127
13, 133864, Note_off_c, 12, 51, 64
13, 134325, Note_on_c, 12, 53, 127
13, 134391, Note_on_c, 12, 45, 127
13, 134421, Note_on_c, 12, 57, 127
13, 134473, Note_on_c, 12, 60, 127
13, 134525, Note_on_c, 12, 63, 127
13, 134882, Note_off_c, 12, 45, 64
13, 134957, Note_off_c, 12, 63, 64
13, 134973, Note_off_c, 12, 53, 64
13, 134984, Note_off_c, 12, 57, 64
13, 134991, Note_off_c, 12, 60, 64
13, 135356, Note_on_c, 12, 41, 127
13, 135855, Note_off_c, 12, 41, 64
13, 136320, Note_on_c, 12, 46, 127
13, 136320, Note_on_c, 12, 65, 127
13, 136320, Note_on_c, 12, 70, 127
13, 136323, Note_on_c, 12, 61, 127
13, 136536, Note_off_c, 12, 46, 64
13, 136583, Note_on_c, 12, 58, 127
13, 136654, Note_off_c, 12, 58, 64
13, 136808, Note_on_c, 12, 58, 127
13, 136814, Note_off_c, 12, 65, 64
13, 136818, Note_off_c, 12, 70, 64
13, 136821, Note_off_c, 12, 61, 64
13, 136881, Note_off_c, 12, 58, 64
13, 137049, Note_on_c, 12, 46, 127
13, 137050, Note_on_c, 12, 61, 127
13, 137050, Note_on_c, 12, 65, 127
13, 137052, Note_on_c, 12, 70, 127
13, 137085, Note_off_c, 12, 65, 64
13, 137086, Note_off_c, 12, 61, 64
13, 137087, Note_off_c, 12, 70, 64
13, 137115, Note_off_c, 12, 46, 64
13, 137282, Note_on_c, 12, 65, 127
13, 137282, Note_on_c, 12, 70, 127
13, 137283, Note_on_c, 12, 61, 127
13, 137286, Note_on_c, 12, 46, 127
13, 137501, Note_off_c, 12, 46, 64
13, 137532, Note_on_c, 12, 58, 127
13, 137590, Note_off_c, 12, 58, 64
13, 137764, Note_on_c, 12, 58, 127
13, 137781, Note_off_c, 12, 65, 64
13, 137785, Note_off_c, 12, 70, 64
13, 137788, Note_off_c, 12, 61, 64
13, 137826, Note_off_c, 12, 58, 64
13, 137999, Note_on_c, 12, 65, 127
13, 137999, Note_on_c, 12, 61, 127
13, 138000, Note_on_c, 12, 46, 127
13, 138000, Note_on_c, 12, 70, 127
13, 138036, Note_off_c, 12, 65, 64
13, 138036, Note_off_c, 12, 61, 64
13, 138038, Note_off_c, 12, 70, 64
13, 138061, Note_off_c, 12, 46, 64
13, 138241, Note_on_c, 12, 46, 127
13, 138242, Note_on_c, 12, 65, 127
13, 138243, Note_on_c, 12, 61, 127
13, 138243, Note_on_c, 12, 70, 127
13, 138425, Note_off_c, 12, 65, 64
13, 138434, Note_off_c, 12, 61, 64
13, 138435, Note_off_c, 12, 70, 64
13, 138457, Note_off_c, 12, 46, 64
13, 138495, Note_on_c, 12, 58, 127
13, 138495, Note_on_c, 12, 61, 127
13, 138496, Note_on_c, 12, 65, 127
13, 138571, Note_off_c, 12, 58, 64
13, 138605, Note_on_c, 12, 56, 127
13, 138703, Note_off_c, 12, 56, 64
13, 138718, Note_on_c, 12, 54, 127
13, 138800, Note_off_c, 12, 61, 64
13, 138800, Note_off_c, 12, 65, 64
13, 138891, Note_off_c, 12, 54, 64
13, 138958, Note_on_c, 12, 53, 127
13, 138958, Note_on_c, 12, 60, 127
13, 138958, Note_on_c, 12, 63, 127
13, 139033, Note_off_c, 12, 60, 64
13, 139033, Note_off_c, 12, 63, 64
13, 139037, Note_off_c, 12, 53, 64
13, 139071, Note_on_c, 12, 51, 127
13, 139178, Note_off_c, 12, 51, 64
13, 139195, Note_on_c, 12, 49, 127
13, 139195, Note_on_c, 12, 65, 127
13, 139204, Note_on_c, 12, 58, 127
13, 139415, Note_off_c, 12, 49, 64
13, 139415, Note_off_c, 12, 65, 64
13, 139444, Note_on_c, 12, 48, 127
13, 139444, Note_on_c, 12, 63, 127
13, 139461, Note_off_c, 12, 58, 64
13, 139517, Note_off_c, 12, 48, 64
13, 139517, Note_off_c, 12, 63, 64
13, 139555, Note_on_c, 12, 46, 127
13, 139555, Note_on_c, 12, 61, 127
13, 139621, Note_off_c, 12, 46, 64
13, 139621, Note_off_c, 12, 61, 64
13, 139677, Note_on_c, 12, 45, 127
13, 139677, Note_on_c, 12, 60, 127
13, 139687, Note_on_c, 12, 53, 127
13, 139766, Note_off_c, 12, 53, 64
13, 139772, Note_off_c, 12, 45, 64
13, 139772, Note_off_c, 12, 60, 64
13, 139935, Note_on_c, 12, 57, 127
13, 139935, Note_on_c, 12, 60, 127
13, 139938, Note_on_c, 12, 41, 127
13, 139996, Note_off_c, 12, 57, 64
13, 139996, Note_off_c, 12, 60, 64
13, 139996, Note_off_c, 12, 41, 64
13, 140160, Note_on_c, 12, 61, 127
13, 140160, Note_on_c, 12, 58, 127
13, 140175, Note_on_c, 12, 46, 127
13, 140343, Note_off_c, 12, 46, 64
13, 140374, Note_off_c, 12, 61, 64
13, 140374, Note_off_c, 12, 58, 64
13, 140423, Note_on_c, 12, 58, 127
13, 140423, Note_on_c, 12, 61, 127
13, 140423, Note_on_c, 12, 65, 127
13, 140522, Note_off_c, 12, 58, 64
13, 140528, Note_on_c, 12, 56, 127
13, 140641, Note_off_c, 12, 56, 64
13, 140642, Note_off_c, 12, 65, 64
13, 140643, Note_on_c, 12, 70, 127
13, 140643, Note_on_c, 12, 63, 127
13, 140647, Note_on_c, 12, 54, 127
13, 140663, Note_off_c, 12, 61, 64
13, 140719, Note_off_c, 12, 70, 64
13, 140719, Note_off_c, 12, 63, 64
13, 140818, Note_off_c, 12, 54, 64
13, 140883, Note_on_c, 12, 65, 127
13, 140883, Note_on_c, 12, 61, 127
13, 140883, Note_on_c, 12, 70, 127
13, 140884, Note_on_c, 12, 53, 127
13, 140958, Note_off_c, 12, 65, 64
13, 140958, Note_off_c, 12, 61, 64
13, 140958, Note_off_c, 12, 70, 64
13, 140980, Note_off_c, 12, 53, 64
13, 140999, Note_on_c, 12, 51, 127
13, 141084, Note_on_c, 12, 58, 127
13, 141096, Note_off_c, 12, 51, 64
13, 141122, Note_on_c, 12, 61, 127
13, 141127, Note_on_c, 12, 49, 127
13, 141152, Note_on_c, 12, 65, 127
13, 141237, Note_off_c, 12, 49, 64
13, 141245, Note_on_c, 12, 48, 127
13, 141352, Note_off_c, 12, 48, 64
13, 141360, Note_on_c, 12, 49, 127
13, 141459, Note_off_c, 12, 49, 64
13, 141473, Note_off_c, 12, 58, 64
13, 141478, Note_on_c, 12, 51, 127
13, 141482, Note_off_c, 12, 61, 64
13, 141484, Note_off_c, 12, 65, 64
13, 141582, Note_off_c, 12, 51, 64
13, 141601, Note_on_c, 12, 49, 127
13, 141695, Note_off_c, 12, 49, 64
13, 141718, Note_on_c, 12, 51, 127
13, 141806, Note_off_c, 12, 51, 64
13, 141831, Note_on_c, 12, 49, 127
13, 141831, Note_on_c, 12, 65, 127
13, 141831, Note_on_c, 12, 70, 127
13, 141831, Note_on_c, 12, 61, 127
13, 141931, Note_off_c, 12, 49, 64
13, 141931, Note_off_c, 12, 65, 64
13, 141931, Note_off_c, 12, 70, 64
13, 141931, Note_off_c, 12, 61, 64
13, 141947, Note_on_c, 12, 48, 127
13, 142067, Note_off_c, 12, 48, 64
13, 142079, Note_on_c, 12, 65, 127
13, 142079, Note_on_c, 12, 61, 127
13, 142083, Note_on_c, 12, 46, 127
13, 142291, Note_off_c, 12, 46, 64
13, 142322, Note_on_c, 12, 54, 127
13, 142325, Note_on_c, 12, 63, 127
13, 142325, Note_on_c, 12, 60, 127
13, 142339, Note_off_c, 12, 65, 64
13, 142339, Note_off_c, 12, 61, 64
13, 142425, Note_off_c, 12, 63, 64
13, 142425, Note_off_c, 12, 60, 64
13, 142438, Note_on_c, 12, 61, 127
13, 142438, Note_on_c, 12, 58, 127
13, 142450, Note_off_c, 12, 54, 64
13, 142554, Note_off_c, 12, 61, 64
13, 142554, Note_off_c, 12, 58, 64
13, 142558, Note_on_c, 12, 63, 127
13, 142558, Note_on_c, 12, 60, 127
13, 142560, Note_on_c, 12, 51, 127
13, 142659, Note_off_c, 12, 51, 64
13, 142800, Note_on_c, 12, 53, 127
13, 142806, Note_on_c, 12, 61, 127
13, 142806, Note_on_c, 12, 58, 127
13, 142814, Note_off_c, 12, 63, 64
13, 142814, Note_off_c, 12, 60, 64
13, 142870, Note_off_c, 12, 53, 64
13, 142903, Note_off_c, 12, 61, 64
13, 142903, Note_off_c, 12, 58, 64
13, 142922, Note_on_c, 12, 60, 127
13, 142922, Note_on_c, 12, 57, 127
13, 143011, Note_off_c, 12, 60, 64
13, 143011, Note_off_c, 12, 57, 64
13, 143033, Note_on_c, 12, 54, 127
13, 143033, Note_on_c, 12, 66, 127
13, 143385, Note_off_c, 12, 54, 64
13, 143385, Note_off_c, 12, 66, 64
13, 143407, Note_on_c, 12, 53, 127
13, 143407, Note_on_c, 12, 65, 127
13, 143475, Note_off_c, 12, 53, 64
13, 143475, Note_off_c, 12, 65, 64
13, 143522, Note_on_c, 12, 51, 127
13, 143522, Note_on_c, 12, 63, 127
13, 143617, Note_off_c, 12, 51, 64
13, 143617, Note_off_c, 12, 63, 64
13, 143640, Note_on_c, 12, 49, 127
13, 143640, Note_on_c, 12, 61, 127
13, 143733, Note_off_c, 12, 49, 64
13, 143733, Note_off_c, 12, 61, 64
13, 143756, Note_on_c, 12, 48, 127
13, 143756, Note_on_c, 12, 60, 127
13, 143858, Note_off_c, 12, 48, 64
13, 143858, Note_off_c, 12, 60, 64
13, 143875, Note_on_c, 12, 46, 127
13, 143875, Note_on_c, 12, 58, 127
13, 143971, Note_off_c, 12, 46, 64
13, 143971, Note_off_c, 12, 58, 64
13, 144008, Note_on_c, 12, 49, 127
13, 144008, Note_on_c, 12, 65, 127
13, 144008, Note_on_c, 12, 58, 127
13, 144212, Note_off_c, 12, 49, 64
13, 144212, Note_off_c, 12, 65, 64
13, 144212, Note_off_c, 12, 58, 64
13, 144233, Note_on_c, 12, 51, 127
13, 144233, Note_on_c, 12, 66, 127
13, 144240, Note_on_c, 12, 61, 127
13, 144419, Note_off_c, 12, 61, 64
13, 144435, Note_off_c, 12, 51, 64
13, 144435, Note_off_c, 12, 66, 64
13, 144473, Note_on_c, 12, 53, 127
13, 144473, Note_on_c, 12, 65, 127
13, 144473, Note_on_c, 12, 60, 127
13, 144577, Note_off_c, 12, 53, 64
13, 144577, Note_off_c, 12, 65, 64
13, 144577, Note_off_c, 12, 60, 64
13, 144727, Note_on_c, 12, 41, 127
13, 144727, Note_on_c, 12, 57, 127
13, 144727, Note_on_c, 12, 60, 127
13, 144727, Note_on_c, 12, 63, 127
13, 144792, Note_off_c, 12, 41, 64
13, 144792, Note_off_c, 12, 57, 64
13, 144792, Note_off_c, 12, 60, 64
13, 144792, Note_off_c, 12, 63, 64
13, 144924, Note_on_c, 12, 53, 127
13, 144960, Note_on_c, 12, 46, 127
13, 144976, Note_on_c, 12, 58, 127
13, 145016, Note_on_c, 12, 61, 127
13, 145145, Note_off_c, 12, 46, 64
13, 145203, Note_on_c, 12, 46, 127
13, 145394, Note_off_c, 12, 46, 64
13, 145444, Note_on_c, 12, 46, 127
13, 145626, Note_off_c, 12, 46, 64
13, 145677, Note_off_c, 12, 53, 64
13, 145682, Note_on_c, 12, 46, 127
13, 145688, Note_off_c, 12, 58, 64
13, 145689, Note_off_c, 12, 61, 64
13, 145867, Note_off_c, 12, 46, 64
13, 145886, Note_on_c, 12, 58, 127
13, 145921, Note_on_c, 12, 46, 127
13, 145921, Note_on_c, 12, 61, 127
13, 145941, Note_on_c, 12, 65, 127
13, 146109, Note_off_c, 12, 46, 64
13, 146160, Note_on_c, 12, 46, 127
13, 146335, Note_off_c, 12, 46, 64
13, 146396, Note_on_c, 12, 46, 127
13, 146438, Note_off_c, 12, 61, 64
13, 146464, Note_off_c, 12, 58, 64
13, 146493, Note_off_c, 12, 65, 64
13, 146582, Note_off_c, 12, 46, 64
13, 146639, Note_on_c, 12, 46, 127
13, 146813, Note_off_c, 12, 46, 64
13, 146860, Note_on_c, 12, 61, 127
13, 146878, Note_on_c, 12, 46, 127
13, 146887, Note_on_c, 12, 65, 127
13, 146922, Note_on_c, 12, 70, 127
13, 147078, Note_off_c, 12, 46, 64
13, 147124, Note_on_c, 12, 46, 127
13, 147258, Note_off_c, 12, 46, 64
13, 147358, Note_on_c, 12, 46, 127
13, 147396, Note_off_c, 12, 65, 64
13, 147423, Note_off_c, 12, 61, 64
13, 147448, Note_off_c, 12, 70, 64
13, 147457, Note_off_c, 12, 46, 64
13, 147600, Note_on_c, 12, 61, 127
13, 147602, Note_on_c, 12, 58, 127
13, 147602, Note_on_c, 12, 65, 127
13, 147604, Note_on_c, 12, 46, 127
13, 147646, Note_off_c, 12, 58, 64
13, 147648, Note_off_c, 12, 61, 64
13, 147656, Note_off_c, 12, 65, 64
13, 147692, Note_off_c, 12, 46, 64
13, 147711, Note_on_c, 12, 48, 127
13, 147827, Note_off_c, 12, 48, 64
13, 147839, Note_on_c, 12, 49, 127
13, 147842, Note_on_c, 12, 58, 127
13, 147842, Note_on_c, 12, 65, 127
13, 147843, Note_on_c, 12, 61, 127
13, 147946, Note_off_c, 12, 49, 64
13, 148090, Note_on_c, 12, 54, 127
13, 148117, Note_off_c, 12, 61, 64
13, 148122, Note_off_c, 12, 58, 64
13, 148122, Note_off_c, 12, 65, 64
13, 148187, Note_off_c, 12, 54, 64
13, 148200, Note_on_c, 12, 53, 127
13, 148306, Note_off_c, 12, 53, 64
13, 148310, Note_on_c, 12, 54, 127
13, 148399, Note_off_c, 12, 54, 64
13, 148563, Note_on_c, 12, 60, 127
13, 148564, Note_on_c, 12, 58, 127
13, 148564, Note_on_c, 12, 63, 127
13, 148566, Note_on_c, 12, 48, 127
13, 148614, Note_off_c, 12, 60, 64
13, 148615, Note_off_c, 12, 63, 64
13, 148620, Note_off_c, 12, 58, 64
13, 148659, Note_off_c, 12, 48, 64
13, 148675, Note_on_c, 12, 46, 127
13, 148798, Note_on_c, 12, 48, 127
13, 148805, Note_on_c, 12, 60, 127
13, 148806, Note_on_c, 12, 58, 127
13, 148806, Note_on_c, 12, 63, 127
13, 148809, Note_off_c, 12, 46, 64
13, 148906, Note_off_c, 12, 48, 64
13, 149042, Note_on_c, 12, 53, 127
13, 149152, Note_off_c, 12, 53, 64
13, 149156, Note_on_c, 12, 51, 127
13, 149267, Note_off_c, 12, 51, 64
13, 149273, Note_on_c, 12, 53, 127
13, 149289, Note_off_c, 12, 60, 64
13, 149294, Note_off_c, 12, 63, 64
13, 149298, Note_off_c, 12, 58, 64
13, 149452, Note_off_c, 12, 53, 64
13, 149528, Note_on_c, 12, 46, 127
13, 149528, Note_on_c, 12, 61, 127
13, 149531, Note_on_c, 12, 65, 127
13, 149569, Note_off_c, 12, 61, 64
13, 149570, Note_off_c, 12, 65, 64
13, 149629, Note_off_c, 12, 46, 64
13, 149638, Note_on_c, 12, 45, 127
13, 149744, Note_off_c, 12, 45, 64
13, 149756, Note_on_c, 12, 46, 127
13, 149756, Note_on_c, 12, 58, 127
13, 149757, Note_on_c, 12, 61, 127
13, 149760, Note_on_c, 12, 65, 127
13, 149913, Note_off_c, 12, 65, 64
13, 149920, Note_off_c, 12, 61, 64
13, 149922, Note_off_c, 12, 58, 64
13, 149984, Note_off_c, 12, 46, 64
13, 149991, Note_on_c, 12, 61, 127
13, 149991, Note_on_c, 12, 66, 127
13, 149992, Note_on_c, 12, 58, 127
13, 150001, Note_on_c, 12, 51, 127
13, 150059, Note_off_c, 12, 61, 64
13, 150066, Note_off_c, 12, 58, 64
13, 150069, Note_off_c, 12, 66, 64
13, 150138, Note_off_c, 12, 51, 64
13, 150225, Note_on_c, 12, 58, 127
13, 150227, Note_on_c, 12, 61, 127
13, 150227, Note_on_c, 12, 65, 127
13, 150241, Note_on_c, 12, 53, 127
13, 150297, Note_off_c, 12, 61, 64
13, 150304, Note_off_c, 12, 65, 64
13, 150309, Note_off_c, 12, 58, 64
13, 150344, Note_off_c, 12, 53, 64
13, 150472, Note_on_c, 12, 57, 127
13, 150473, Note_on_c, 12, 60, 127
13, 150475, Note_on_c, 12, 65, 127
13, 150481, Note_on_c, 12, 41, 127
13, 150540, Note_off_c, 12, 65, 64
13, 150546, Note_off_c, 12, 60, 64
13, 150548, Note_off_c, 12, 57, 64
13, 150568, Note_off_c, 12, 41, 64
13, 150720, Note_on_c, 12, 46, 127
13, 150720, Note_on_c, 12, 58, 127
13, 150720, Note_on_c, 12, 53, 127
13, 150720, Note_on_c, 12, 61, 127
13, 150835, Note_off_c, 12, 58, 64
13, 150835, Note_off_c, 12, 61, 64
13, 150840, Note_off_c, 12, 53, 64
13, 150869, Note_on_c, 12, 66, 111
13, 150965, Note_off_c, 12, 46, 64
13, 150971, Note_on_c, 12, 47, 111
13, 150979, Note_off_c, 12, 66, 64
13, 150991, Note_on_c, 12, 65, 111
13, 151089, Note_on_c, 12, 63, 111
13, 151163, Note_off_c, 12, 47, 64
13, 151193, Note_off_c, 12, 63, 64
13, 151194, Note_on_c, 12, 46, 111
13, 151206, Note_on_c, 12, 61, 111
13, 151303, Note_off_c, 12, 61, 64
13, 151308, Note_off_c, 12, 46, 64
13, 151315, Note_on_c, 12, 63, 111
13, 151391, Note_off_c, 12, 63, 64
13, 151417, Note_on_c, 12, 61, 111
13, 151432, Note_on_c, 12, 44, 111
13, 151508, Note_off_c, 12, 44, 64
13, 151525, Note_on_c, 12, 59, 111
13, 151618, Note_off_c, 12, 59, 64
13, 151657, Note_off_c, 12, 61, 64
13, 151659, Note_on_c, 12, 58, 111
13, 151678, Note_on_c, 12, 42, 111
13, 151703, Note_on_c, 12, 54, 111
13, 151711, Note_off_c, 12, 65, 64
13, 151745, Note_on_c, 12, 49, 111
13, 152066, Note_off_c, 12, 49, 64
13, 152069, Note_off_c, 12, 58, 64
13, 152070, Note_off_c, 12, 54, 64
13, 152164, Note_off_c, 12, 42, 64
13, 155520, Note_on_c, 12, 49, 111
13, 155520, Note_on_c, 12, 65, 111
13, 155758, Note_on_c, 12, 48, 111
13, 155758, Note_on_c, 12, 63, 111
13, 155776, Note_off_c, 12, 49, 64
13, 155776, Note_off_c, 12, 65, 64
13, 155990, Note_off_c, 12, 48, 64
13, 155990, Note_off_c, 12, 63, 64
13, 156000, Note_on_c, 12, 49, 111
13, 156000, Note_on_c, 12, 65, 111
13, 156222, Note_off_c, 12, 49, 64
13, 156222, Note_off_c, 12, 65, 64
13, 156236, Note_on_c, 12, 51, 111
13, 156236, Note_on_c, 12, 60, 111
13, 156475, Note_off_c, 12, 51, 64
13, 156475, Note_off_c, 12, 60, 64
13, 156478, Note_on_c, 12, 53, 111
13, 156478, Note_on_c, 12, 61, 111
13, 156716, Note_off_c, 12, 53, 64
13, 156716, Note_off_c, 12, 61, 64
13, 156718, Note_on_c, 12, 54, 111
13, 156718, Note_on_c, 12, 60, 111
13, 156943, Note_off_c, 12, 54, 64
13, 156943, Note_off_c, 12, 60, 64
13, 156953, Note_on_c, 12, 53, 111
13, 156953, Note_on_c, 12, 61, 111
13, 157195, Note_off_c, 12, 53, 64
13, 157195, Note_off_c, 12, 61, 64
13, 157195, Note_on_c, 12, 51, 111
13, 157195, Note_on_c, 12, 63, 111
13, 157439, Note_on_c, 12, 49, 111
13, 157439, Note_on_c, 12, 65, 111
13, 157442, Note_off_c, 12, 51, 64
13, 157442, Note_off_c, 12, 63, 64
13, 157676, Note_off_c, 12, 49, 64
13, 157676, Note_off_c, 12, 65, 64
13, 157676, Note_on_c, 12, 48, 111
13, 157676, Note_on_c, 12, 63, 111
13, 157762, Note_off_c, 12, 48, 64
13, 157762, Note_off_c, 12, 63, 64
13, 157912, Note_on_c, 12, 46, 111
13, 157912, Note_on_c, 12, 61, 111
13, 157992, Note_off_c, 12, 46, 64
13, 157992, Note_off_c, 12, 61, 64
13, 158159, Note_on_c, 12, 51, 111
13, 158159, Note_on_c, 12, 58, 111
13, 158241, Note_off_c, 12, 51, 64
13, 158241, Note_off_c, 12, 58, 64
13, 158403, Note_on_c, 12, 44, 111
13, 158403, Note_on_c, 12, 60, 111
13, 158863, Note_off_c, 12, 44, 64
13, 158863, Note_off_c, 12, 60, 64
13, 159120, Note_on_c, 12, 44, 111
13, 159120, Note_on_c, 12, 60, 111
13, 159120, Note_on_c, 12, 63, 111
13, 159172, Note_off_c, 12, 60, 64
13, 159178, Note_off_c, 12, 63, 64
13, 159189, Note_off_c, 12, 44, 64
13, 159329, Note_on_c, 12, 56, 111
13, 159352, Note_on_c, 12, 61, 111
13, 159359, Note_on_c, 12, 49, 111
13, 159377, Note_on_c, 12, 65, 111
13, 159576, Note_off_c, 12, 49, 64
13, 159596, Note_on_c, 12, 37, 111
13, 159674, Note_off_c, 12, 37, 64
13, 159717, Note_off_c, 12, 61, 64
13, 159727, Note_off_c, 12, 56, 64
13, 159727, Note_off_c, 12, 65, 64
13, 159829, Note_on_c, 12, 41, 111
13, 159897, Note_off_c, 12, 41, 64
13, 160076, Note_on_c, 12, 44, 111
13, 160076, Note_on_c, 12, 60, 111
13, 160077, Note_on_c, 12, 63, 111
13, 160131, Note_off_c, 12, 60, 64
13, 160138, Note_off_c, 12, 44, 64
13, 160139, Note_off_c, 12, 63, 64
13, 160313, Note_on_c, 12, 56, 111
13, 160320, Note_on_c, 12, 61, 111
13, 160323, Note_on_c, 12, 65, 111
13, 160325, Note_on_c, 12, 49, 111
13, 160785, Note_off_c, 12, 61, 64
13, 160786, Note_off_c, 12, 56, 64
13, 160790, Note_off_c, 12, 49, 64
13, 160792, Note_off_c, 12, 65, 64
13, 161030, Note_on_c, 12, 49, 111
13, 161092, Note_off_c, 12, 49, 64
13, 161267, Note_on_c, 12, 61, 111
13, 161268, Note_on_c, 12, 54, 111
13, 161269, Note_on_c, 12, 66, 111
13, 161271, Note_on_c, 12, 70, 111
13, 161499, Note_off_c, 12, 54, 64
13, 161515, Note_on_c, 12, 42, 111
13, 161588, Note_off_c, 12, 42, 64
13, 161757, Note_on_c, 12, 46, 111
13, 161773, Note_off_c, 12, 66, 64
13, 161775, Note_off_c, 12, 61, 64
13, 161775, Note_off_c, 12, 70, 64
13, 161823, Note_off_c, 12, 46, 64
13, 161996, Note_on_c, 12, 49, 111
13, 162001, Note_on_c, 12, 65, 111
13, 162002, Note_on_c, 12, 68, 111
13, 162045, Note_off_c, 12, 65, 64
13, 162048, Note_off_c, 12, 68, 64
13, 162056, Note_off_c, 12, 49, 64
13, 162240, Note_on_c, 12, 66, 111
13, 162240, Note_on_c, 12, 61, 111
13, 162242, Note_on_c, 12, 54, 111
13, 162242, Note_on_c, 12, 70, 111
13, 162554, Note_off_c, 12, 54, 64
13, 162730, Note_off_c, 12, 70, 64
13, 162735, Note_off_c, 12, 61, 64
13, 162736, Note_off_c, 12, 66, 64
13, 162964, Note_on_c, 12, 46, 111
13, 163033, Note_off_c, 12, 46, 64
13, 163196, Note_on_c, 12, 51, 111
13, 163200, Note_on_c, 12, 63, 111
13, 163200, Note_on_c, 12, 66, 111
13, 163200, Note_on_c, 12, 58, 111
13, 163422, Note_off_c, 12, 51, 64
13, 163439, Note_on_c, 12, 39, 111
13, 163514, Note_off_c, 12, 39, 64
13, 163677, Note_on_c, 12, 42, 111
13, 163722, Note_off_c, 12, 63, 64
13, 163724, Note_off_c, 12, 66, 64
13, 163726, Note_off_c, 12, 58, 64
13, 163739, Note_off_c, 12, 42, 64
13, 163916, Note_on_c, 12, 46, 111
13, 163920, Note_on_c, 12, 62, 111
13, 163922, Note_on_c, 12, 65, 111
13, 163964, Note_off_c, 12, 62, 64
13, 163966, Note_off_c, 12, 65, 64
13, 163975, Note_off_c, 12, 46, 64
13, 164159, Note_on_c, 12, 51, 111
13, 164165, Note_on_c, 12, 63, 111
13, 164167, Note_on_c, 12, 66, 111
13, 164168, Note_on_c, 12, 58, 111
13, 164468, Note_off_c, 12, 51, 64
13, 164639, Note_off_c, 12, 63, 64
13, 164639, Note_off_c, 12, 66, 64
13, 164639, Note_off_c, 12, 58, 64
13, 164878, Note_on_c, 12, 42, 111
13, 164878, Note_on_c, 12, 58, 111
13, 164878, Note_on_c, 12, 66, 111
13, 164941, Note_off_c, 12, 42, 64
13, 164946, Note_off_c, 12, 58, 64
13, 164993, Note_on_c, 12, 64, 111
13, 164996, Note_off_c, 12, 66, 64
13, 165089, Note_off_c, 12, 64, 64
13, 165121, Note_on_c, 12, 54, 111
13, 165121, Note_on_c, 12, 63, 111
13, 165122, Note_on_c, 12, 47, 111
13, 165291, Note_off_c, 12, 54, 64
13, 165300, Note_off_c, 12, 63, 64
13, 165326, Note_off_c, 12, 47, 64
13, 165354, Note_on_c, 12, 49, 111
13, 165359, Note_on_c, 12, 56, 111
13, 165360, Note_on_c, 12, 65, 111
13, 165538, Note_off_c, 12, 56, 64
13, 165541, Note_off_c, 12, 49, 64
13, 165554, Note_off_c, 12, 65, 64
13, 165584, Note_on_c, 12, 42, 111
13, 165599, Note_on_c, 12, 58, 111
13, 165599, Note_on_c, 12, 66, 111
13, 165599, Note_on_c, 12, 61, 111
13, 165672, Note_off_c, 12, 58, 64
13, 165681, Note_off_c, 12, 61, 64
13, 165702, Note_off_c, 12, 66, 64
13, 165738, Note_off_c, 12, 42, 64
13, 165834, Note_on_c, 12, 47, 111
13, 165840, Note_on_c, 12, 63, 111
13, 165840, Note_on_c, 12, 68, 111
13, 165927, Note_off_c, 12, 63, 64
13, 165935, Note_off_c, 12, 68, 64
13, 165967, Note_off_c, 12, 47, 64
13, 166077, Note_on_c, 12, 56, 111
13, 166080, Note_on_c, 12, 49, 111
13, 166080, Note_on_c, 12, 65, 111
13, 166177, Note_off_c, 12, 65, 64
13, 166226, Note_on_c, 12, 70, 111
13, 166298, Note_off_c, 12, 49, 64
13, 166320, Note_on_c, 12, 47, 111
13, 166340, Note_on_c, 12, 68, 111
13, 166341, Note_off_c, 12, 56, 64
13, 166352, Note_off_c, 12, 70, 64
13, 166435, Note_off_c, 12, 68, 64
13, 166443, Note_on_c, 12, 66, 111
13, 166518, Note_off_c, 12, 66, 64
13, 166532, Note_off_c, 12, 47, 64
13, 166548, Note_on_c, 12, 46, 111
13, 166563, Note_on_c, 12, 65, 111
13, 166664, Note_off_c, 12, 65, 64
13, 166678, Note_on_c, 12, 63, 111
13, 166762, Note_off_c, 12, 46, 64
13, 166775, Note_off_c, 12, 63, 64
13, 166789, Note_on_c, 12, 44, 111
13, 166804, Note_on_c, 12, 61, 111
13, 166901, Note_off_c, 12, 44, 64
13, 166905, Note_off_c, 12, 61, 64
13, 166914, Note_on_c, 12, 59, 111
13, 167016, Note_off_c, 12, 59, 64
13, 167043, Note_on_c, 12, 42, 127
13, 167055, Note_on_c, 12, 58, 127
13, 167085, Note_on_c, 12, 61, 127
13, 167107, Note_on_c, 12, 66, 127
13, 167265, Note_off_c, 12, 42, 64
13, 167288, Note_on_c, 12, 54, 127
13, 167363, Note_off_c, 12, 54, 64
13, 167528, Note_on_c, 12, 54, 127
13, 167529, Note_off_c, 12, 61, 64
13, 167531, Note_off_c, 12, 58, 64
13, 167551, Note_off_c, 12, 66, 64
13, 167609, Note_off_c, 12, 54, 64
13, 167755, Note_on_c, 12, 42, 127
13, 167762, Note_on_c, 12, 58, 127
13, 167762, Note_on_c, 12, 61, 127
13, 167762, Note_on_c, 12, 66, 127
13, 167806, Note_off_c, 12, 61, 64
13, 167812, Note_off_c, 12, 66, 64
13, 167813, Note_off_c, 12, 58, 64
13, 167827, Note_off_c, 12, 42, 64
13, 168001, Note_on_c, 12, 42, 127
13, 168006, Note_on_c, 12, 58, 127
13, 168006, Note_on_c, 12, 61, 127
13, 168007, Note_on_c, 12, 66, 127
13, 168231, Note_off_c, 12, 42, 64
13, 168242, Note_on_c, 12, 54, 127
13, 168316, Note_off_c, 12, 54, 64
13, 168482, Note_on_c, 12, 54, 127
13, 168504, Note_off_c, 12, 61, 64
13, 168508, Note_off_c, 12, 66, 64
13, 168511, Note_off_c, 12, 58, 64
13, 168547, Note_off_c, 12, 54, 64
13, 168718, Note_on_c, 12, 42, 127
13, 168721, Note_on_c, 12, 61, 127
13, 168721, Note_on_c, 12, 66, 127
13, 168722, Note_on_c, 12, 58, 127
13, 168779, Note_off_c, 12, 42, 64
13, 168779, Note_off_c, 12, 61, 64
13, 168785, Note_off_c, 12, 66, 64
13, 168785, Note_off_c, 12, 58, 64
13, 168965, Note_on_c, 12, 42, 127
13, 168970, Note_on_c, 12, 58, 127
13, 168970, Note_on_c, 12, 66, 127
13, 168971, Note_on_c, 12, 61, 127
13, 169156, Note_off_c, 12, 61, 64
13, 169160, Note_off_c, 12, 66, 64
13, 169200, Note_off_c, 12, 42, 64
13, 169214, Note_on_c, 12, 54, 127
13, 169214, Note_on_c, 12, 61, 127
13, 169214, Note_on_c, 12, 66, 127
13, 169214, Note_on_c, 12, 70, 127
13, 169218, Note_off_c, 12, 58, 64
13, 169305, Note_off_c, 12, 54, 64
13, 169305, Note_off_c, 12, 61, 64
13, 169305, Note_off_c, 12, 66, 64
13, 169305, Note_off_c, 12, 70, 64
13, 169324, Note_on_c, 12, 53, 127
13, 169428, Note_off_c, 12, 53, 64
13, 169440, Note_on_c, 12, 51, 127
13, 169442, Note_on_c, 12, 58, 127
13, 169443, Note_on_c, 12, 61, 127
13, 169443, Note_on_c, 12, 66, 127
13, 169508, Note_off_c, 12, 58, 64
13, 169519, Note_off_c, 12, 61, 64
13, 169523, Note_off_c, 12, 66, 64
13, 169524, Note_off_c, 12, 51, 64
13, 169677, Note_on_c, 12, 56, 127
13, 169678, Note_on_c, 12, 60, 127
13, 169684, Note_on_c, 12, 66, 127
13, 169684, Note_on_c, 12, 63, 127
13, 169744, Note_off_c, 12, 56, 64
13, 169752, Note_off_c, 12, 66, 64
13, 169752, Note_off_c, 12, 63, 64
13, 169754, Note_off_c, 12, 60, 64
13, 169920, Note_on_c, 12, 68, 127
13, 169921, Note_on_c, 12, 61, 127
13, 169923, Note_on_c, 12, 65, 127
13, 170170, Note_on_c, 12, 59, 127
13, 170174, Note_off_c, 12, 61, 64
13, 170177, Note_off_c, 12, 65, 64
13, 170181, Note_off_c, 12, 68, 64
13, 170380, Note_off_c, 12, 59, 64
13, 170405, Note_on_c, 12, 58, 127
13, 170617, Note_off_c, 12, 58, 64
13, 170631, Note_on_c, 12, 56, 127
13, 170867, Note_on_c, 12, 54, 127
13, 170874, Note_off_c, 12, 56, 64
13, 170880, Note_on_c, 12, 70, 127
13, 170880, Note_on_c, 12, 64, 127
13, 170881, Note_on_c, 12, 66, 127
13, 170882, Note_on_c, 12, 61, 127
13, 171102, Note_off_c, 12, 54, 64
13, 171109, Note_on_c, 12, 52, 127
13, 171337, Note_off_c, 12, 66, 64
13, 171339, Note_off_c, 12, 64, 64
13, 171340, Note_off_c, 12, 70, 64
13, 171340, Note_off_c, 12, 61, 64
13, 171357, Note_on_c, 12, 51, 127
13, 171369, Note_off_c, 12, 52, 64
13, 171586, Note_off_c, 12, 51, 64
13, 171594, Note_on_c, 12, 49, 127
13, 171774, Note_off_c, 12, 49, 64
13, 171838, Note_on_c, 12, 59, 127
13, 171840, Note_on_c, 12, 66, 127
13, 171840, Note_on_c, 12, 69, 127
13, 171841, Note_on_c, 12, 71, 127
13, 171844, Note_on_c, 12, 63, 127
13, 172076, Note_off_c, 12, 59, 64
13, 172081, Note_on_c, 12, 57, 127
13, 172310, Note_off_c, 12, 57, 64
13, 172315, Note_on_c, 12, 56, 127
13, 172362, Note_off_c, 12, 69, 64
13, 172366, Note_off_c, 12, 66, 64
13, 172366, Note_off_c, 12, 63, 64
13, 172369, Note_off_c, 12, 71, 64
13, 172547, Note_off_c, 12, 56, 64
13, 172548, Note_on_c, 12, 54, 127
13, 172790, Note_on_c, 12, 53, 127
13, 172797, Note_off_c, 12, 54, 64
13, 172800, Note_on_c, 12, 69, 127
13, 172800, Note_on_c, 12, 65, 127
13, 172801, Note_on_c, 12, 63, 127
13, 172801, Note_on_c, 12, 60, 127
13, 173022, Note_off_c, 12, 53, 64
13, 173033, Note_on_c, 12, 51, 127
13, 173280, Note_off_c, 12, 51, 64
13, 173280, Note_on_c, 12, 49, 127
13, 173284, Note_off_c, 12, 63, 64
13, 173287, Note_off_c, 12, 65, 64
13, 173289, Note_off_c, 12, 60, 64
13, 173300, Note_off_c, 12, 69, 64
13, 173495, Note_off_c, 12, 49, 64
13, 173510, Note_on_c, 12, 48, 127
13, 173657, Note_off_c, 12, 48, 64
13, 173754, Note_on_c, 12, 58, 127
13, 173760, Note_on_c, 12, 65, 127
13, 173761, Note_on_c, 12, 62, 127
13, 173762, Note_on_c, 12, 68, 127
13, 173991, Note_off_c, 12, 58, 64
13, 173995, Note_on_c, 12, 56, 127
13, 174224, Note_off_c, 12, 56, 64
13, 174233, Note_on_c, 12, 54, 127
13, 174257, Note_off_c, 12, 65, 64
13, 174258, Note_off_c, 12, 62, 64
13, 174261, Note_off_c, 12, 68, 64
13, 174467, Note_off_c, 12, 54, 64
13, 174468, Note_on_c, 12, 53, 127
13, 174696, Note_off_c, 12, 53, 64
13, 174712, Note_on_c, 12, 51, 127
13, 174720, Note_on_c, 12, 63, 127
13, 174720, Note_on_c, 12, 67, 127
13, 174721, Note_on_c, 12, 61, 127
13, 174723, Note_on_c, 12, 58, 127
13, 174947, Note_off_c, 12, 51, 64
13, 174950, Note_on_c, 12, 49, 127
13, 175179, Note_on_c, 12, 47, 127
13, 175180, Note_off_c, 12, 49, 64
13, 175326, Note_off_c, 12, 61, 64
13, 175332, Note_off_c, 12, 67, 64
13, 175332, Note_off_c, 12, 58, 64
13, 175334, Note_off_c, 12, 63, 64
13, 175429, Note_on_c, 12, 46, 127
13, 175431, Note_off_c, 12, 47, 64
13, 175677, Note_on_c, 12, 44, 127
13, 175680, Note_on_c, 12, 59, 127
13, 175680, Note_on_c, 12, 63, 127
13, 175681, Note_off_c, 12, 46, 64
13, 175681, Note_on_c, 12, 68, 127
13, 175900, Note_off_c, 12, 44, 64
13, 175905, Note_on_c, 12, 42, 127
13, 176156, Note_on_c, 12, 40, 127
13, 176165, Note_off_c, 12, 42, 64
13, 176170, Note_off_c, 12, 63, 64
13, 176172, Note_off_c, 12, 68, 64
13, 176173, Note_off_c, 12, 59, 64
13, 176404, Note_on_c, 12, 39, 127
13, 176416, Note_off_c, 12, 40, 64
13, 176581, Note_off_c, 12, 39, 64
13, 176642, Note_on_c, 12, 37, 127
13, 176642, Note_on_c, 12, 57, 127
13, 176698, Note_on_c, 12, 61, 127
13, 176761, Note_on_c, 12, 64, 127
13, 176856, Note_on_c, 12, 69, 127
13, 177114, Note_off_c, 12, 37, 64
13, 177386, Note_off_c, 12, 61, 64
13, 177393, Note_off_c, 12, 64, 64
13, 177393, Note_off_c, 12, 69, 64
13, 177415, Note_off_c, 12, 57, 64
13, 178496, Note_on_c, 12, 59, 127
13, 178554, Note_on_c, 12, 62, 127
13, 178561, Note_on_c, 12, 38, 127
13, 178608, Note_on_c, 12, 65, 127
13, 178672, Note_on_c, 12, 68, 127
13, 179030, Note_off_c, 12, 38, 64
13, 179333, Note_off_c, 12, 68, 64
13, 179349, Note_off_c, 12, 59, 64
13, 179360, Note_off_c, 12, 62, 64
13, 179374, Note_off_c, 12, 65, 64
13, 180432, Note_on_c, 12, 58, 127
13, 180468, Note_on_c, 12, 61, 127
13, 180478, Note_on_c, 12, 39, 127
13, 180500, Note_on_c, 12, 63, 127
13, 180557, Note_on_c, 12, 67, 127
13, 180971, Note_off_c, 12, 39, 64
13, 181078, Note_off_c, 12, 61, 64
13, 181089, Note_off_c, 12, 63, 64
13, 181089, Note_off_c, 12, 67, 64
13, 181104, Note_off_c, 12, 58, 64
13, 182357, Note_on_c, 12, 59, 127
13, 182393, Note_on_c, 12, 39, 127
13, 182417, Note_on_c, 12, 62, 127
13, 182467, Note_on_c, 12, 65, 127
13, 182510, Note_on_c, 12, 68, 127
13, 182878, Note_off_c, 12, 39, 64
13, 183081, Note_off_c, 12, 68, 64
13, 183088, Note_off_c, 12, 59, 64
13, 183100, Note_off_c, 12, 62, 64
13, 183106, Note_off_c, 12, 65, 64
13, 183914, Note_on_c, 12, 65, 127
13, 184005, Note_on_c, 12, 59, 127
13, 184037, Note_off_c, 12, 65, 64
13, 184083, Note_on_c, 12, 58, 127
13, 184090, Note_off_c, 12, 59, 64
13, 184141, Note_on_c, 12, 59, 127
13, 184160, Note_off_c, 12, 58, 64
13, 184206, Note_off_c, 12, 59, 64
13, 184216, Note_on_c, 12, 56, 127
13, 184280, Note_off_c, 12, 56, 64
13, 184284, Note_on_c, 12, 58, 127
13, 184314, Note_on_c, 12, 39, 127
13, 184337, Note_on_c, 12, 61, 127
13, 184361, Note_on_c, 12, 63, 127
13, 184398, Note_on_c, 12, 68, 127
13, 184798, Note_off_c, 12, 58, 64
13, 184817, Note_off_c, 12, 39, 64
13, 184825, Note_off_c, 12, 63, 64
13, 184831, Note_off_c, 12, 61, 64
13, 184838, Note_off_c, 12, 68, 64
13, 186186, Note_on_c, 12, 58, 127
13, 186222, Note_on_c, 12, 61, 127
13, 186238, Note_on_c, 12, 39, 127
13, 186247, Note_on_c, 12, 63, 127
13, 186276, Note_on_c, 12, 67, 127
13, 186698, Note_off_c, 12, 63, 64
13, 186699, Note_off_c, 12, 58, 64
13, 186704, Note_off_c, 12, 61, 64
13, 186705, Note_off_c, 12, 67, 64
13, 186719, Note_off_c, 12, 39, 64
13, 188160, Note_on_c, 12, 44, 127
13, 188160, Note_on_c, 12, 68, 127
13, 188160, Note_on_c, 12, 63, 127
13, 188162, Note_on_c, 12, 59, 127
13, 188390, Note_off_c, 12, 44, 64
13, 188405, Note_on_c, 12, 56, 127
13, 188439, Note_off_c, 12, 63, 64
13, 188440, Note_off_c, 12, 59, 64
13, 188441, Note_off_c, 12, 68, 64
13, 188474, Note_off_c, 12, 56, 64
13, 188639, Note_on_c, 12, 56, 127
13, 188703, Note_off_c, 12, 56, 64
13, 188881, Note_on_c, 12, 44, 127
13, 188940, Note_off_c, 12, 44, 64
13, 189127, Note_on_c, 12, 44, 127
13, 189348, Note_off_c, 12, 44, 64
13, 189361, Note_on_c, 12, 56, 127
13, 189411, Note_off_c, 12, 56, 64
13, 189601, Note_on_c, 12, 56, 127
13, 189665, Note_off_c, 12, 56, 64
13, 189834, Note_on_c, 12, 59, 127
13, 189834, Note_on_c, 12, 64, 127
13, 189835, Note_on_c, 12, 68, 127
13, 189850, Note_on_c, 12, 44, 127
13, 189888, Note_off_c, 12, 59, 64
13, 189888, Note_off_c, 12, 64, 64
13, 189895, Note_off_c, 12, 68, 64
13, 189899, Note_off_c, 12, 44, 64
13, 190077, Note_on_c, 12, 58, 127
13, 190077, Note_on_c, 12, 66, 127
13, 190078, Note_on_c, 12, 61, 127
13, 190081, Note_on_c, 12, 42, 127
13, 190300, Note_off_c, 12, 42, 64
13, 190324, Note_on_c, 12, 54, 127
13, 190372, Note_off_c, 12, 58, 64
13, 190372, Note_off_c, 12, 61, 64
13, 190376, Note_off_c, 12, 66, 64
13, 190382, Note_off_c, 12, 54, 64
13, 190565, Note_on_c, 12, 54, 127
13, 190625, Note_off_c, 12, 54, 64
13, 190795, Note_on_c, 12, 42, 127
13, 190841, Note_off_c, 12, 42, 64
13, 191047, Note_on_c, 12, 42, 127
13, 191264, Note_off_c, 12, 42, 64
13, 191286, Note_on_c, 12, 54, 127
13, 191339, Note_off_c, 12, 54, 64
13, 191519, Note_on_c, 12, 54, 127
13, 191577, Note_off_c, 12, 54, 64
13, 191758, Note_on_c, 12, 42, 127
13, 191762, Note_on_c, 12, 63, 127
13, 191762, Note_on_c, 12, 66, 127
13, 191762, Note_on_c, 12, 58, 127
13, 191800, Note_off_c, 12, 42, 64
13, 191824, Note_off_c, 12, 63, 64
13, 191832, Note_off_c, 12, 66, 64
13, 191835, Note_off_c, 12, 58, 64
13, 191999, Note_on_c, 12, 64, 127
13, 191999, Note_on_c, 12, 59, 127
13, 192000, Note_on_c, 12, 56, 127
13, 192008, Note_on_c, 12, 40, 127
13, 192218, Note_off_c, 12, 40, 64
13, 192246, Note_on_c, 12, 52, 127
13, 192302, Note_off_c, 12, 52, 64
13, 192310, Note_off_c, 12, 59, 64
13, 192312, Note_off_c, 12, 56, 64
13, 192316, Note_off_c, 12, 64, 64
13, 192481, Note_on_c, 12, 52, 127
13, 192542, Note_off_c, 12, 52, 64
13, 192722, Note_on_c, 12, 40, 127
13, 192774, Note_off_c, 12, 40, 64
13, 192967, Note_on_c, 12, 40, 127
13, 193175, Note_off_c, 12, 40, 64
13, 193201, Note_on_c, 12, 52, 127
13, 193263, Note_off_c, 12, 52, 64
13, 193440, Note_on_c, 12, 52, 127
13, 193506, Note_off_c, 12, 52, 64
13, 193681, Note_on_c, 12, 40, 127
13, 193684, Note_on_c, 12, 56, 127
13, 193685, Note_on_c, 12, 64, 127
13, 193686, Note_on_c, 12, 61, 127
13, 193734, Note_off_c, 12, 40, 64
13, 193734, Note_off_c, 12, 61, 64
13, 193742, Note_off_c, 12, 56, 64
13, 193756, Note_off_c, 12, 64, 64
13, 193920, Note_on_c, 12, 55, 127
13, 193924, Note_on_c, 12, 39, 127
13, 193942, Note_on_c, 12, 58, 127
13, 193954, Note_on_c, 12, 63, 127
13, 194159, Note_off_c, 12, 39, 64
13, 194172, Note_on_c, 12, 51, 127
13, 194226, Note_off_c, 12, 51, 64
13, 194382, Note_off_c, 12, 58, 64
13, 194388, Note_off_c, 12, 63, 64
13, 194392, Note_off_c, 12, 55, 64
13, 194405, Note_on_c, 12, 51, 127
13, 194466, Note_off_c, 12, 51, 64
13, 194632, Note_on_c, 12, 55, 127
13, 194634, Note_on_c, 12, 58, 127
13, 194637, Note_on_c, 12, 63, 127
13, 194643, Note_on_c, 12, 39, 127
13, 194683, Note_off_c, 12, 58, 64
13, 194684, Note_off_c, 12, 55, 64
13, 194689, Note_off_c, 12, 63, 64
13, 194700, Note_off_c, 12, 39, 64
13, 194881, Note_on_c, 12, 55, 127
13, 194883, Note_on_c, 12, 39, 127
13, 194898, Note_on_c, 12, 58, 127
13, 194918, Note_on_c, 12, 63, 127
13, 195101, Note_off_c, 12, 39, 64
13, 195113, Note_on_c, 12, 51, 127
13, 195177, Note_off_c, 12, 51, 64
13, 195345, Note_off_c, 12, 58, 64
13, 195348, Note_off_c, 12, 63, 64
13, 195358, Note_off_c, 12, 55, 64
13, 195362, Note_on_c, 12, 51, 127
13, 195442, Note_off_c, 12, 51, 64
13, 195598, Note_on_c, 12, 55, 127
13, 195599, Note_on_c, 12, 58, 127
13, 195600, Note_on_c, 12, 63, 127
13, 195605, Note_on_c, 12, 49, 127
13, 195639, Note_off_c, 12, 55, 64
13, 195642, Note_off_c, 12, 58, 64
13, 195650, Note_off_c, 12, 63, 64
13, 195815, Note_off_c, 12, 49, 64
13, 195848, Note_on_c, 12, 47, 127
13, 195848, Note_on_c, 12, 63, 127
13, 195848, Note_on_c, 12, 59, 127
13, 195848, Note_on_c, 12, 56, 127
13, 196073, Note_off_c, 12, 47, 64
13, 196073, Note_off_c, 12, 63, 64
13, 196073, Note_off_c, 12, 59, 64
13, 196073, Note_off_c, 12, 56, 64
13, 196083, Note_on_c, 12, 49, 127
13, 196083, Note_on_c, 12, 68, 127
13, 196083, Note_on_c, 12, 64, 127
13, 196083, Note_on_c, 12, 58, 127
13, 196159, Note_off_c, 12, 49, 64
13, 196159, Note_off_c, 12, 68, 64
13, 196159, Note_off_c, 12, 64, 64
13, 196159, Note_off_c, 12, 58, 64
13, 196320, Note_on_c, 12, 51, 127
13, 196320, Note_on_c, 12, 58, 127
13, 196320, Note_on_c, 12, 68, 127
13, 196320, Note_on_c, 12, 63, 127
13, 196392, Note_off_c, 12, 51, 64
13, 196392, Note_off_c, 12, 58, 64
13, 196392, Note_off_c, 12, 68, 64
13, 196392, Note_off_c, 12, 63, 64
13, 196566, Note_on_c, 12, 39, 127
13, 196566, Note_on_c, 12, 67, 127
13, 196566, Note_on_c, 12, 61, 127
13, 196566, Note_on_c, 12, 58, 127
13, 196630, Note_off_c, 12, 39, 64
13, 196630, Note_off_c, 12, 67, 64
13, 196630, Note_off_c, 12, 61, 64
13, 196630, Note_off_c, 12, 58, 64
13, 196807, Note_on_c, 12, 44, 127
13, 196807, Note_on_c, 12, 68, 127
13, 196807, Note_on_c, 12, 59, 127
13, 197317, Note_off_c, 12, 44, 64
13, 197317, Note_off_c, 12, 68, 64
13, 197317, Note_off_c, 12, 59, 64
13, 197526, Note_on_c, 12, 56, 127
13, 197627, Note_off_c, 12, 56, 64
13, 197641, Note_on_c, 12, 55, 127
13, 197756, Note_off_c, 12, 55, 64
13, 197756, Note_on_c, 12, 56, 127
13, 197760, Note_on_c, 12, 63, 127
13, 197761, Note_on_c, 12, 68, 127
13, 197763, Note_on_c, 12, 59, 127
13, 197855, Note_off_c, 12, 56, 64
13, 198002, Note_on_c, 12, 51, 127
13, 198103, Note_off_c, 12, 51, 64
13, 198120, Note_on_c, 12, 49, 127
13, 198240, Note_off_c, 12, 49, 64
13, 198242, Note_off_c, 12, 63, 64
13, 198242, Note_on_c, 12, 51, 127
13, 198244, Note_off_c, 12, 59, 64
13, 198245, Note_off_c, 12, 68, 64
13, 198315, Note_off_c, 12, 51, 64
13, 198488, Note_on_c, 12, 56, 127
13, 198590, Note_off_c, 12, 56, 64
13, 198601, Note_on_c, 12, 55, 127
13, 198724, Note_on_c, 12, 68, 127
13, 198724, Note_on_c, 12, 63, 127
13, 198725, Note_on_c, 12, 56, 127
13, 198725, Note_on_c, 12, 59, 127
13, 198732, Note_off_c, 12, 55, 64
13, 198818, Note_off_c, 12, 56, 64
13, 198973, Note_on_c, 12, 47, 127
13, 199061, Note_off_c, 12, 47, 64
13, 199083, Note_on_c, 12, 46, 127
13, 199199, Note_on_c, 12, 47, 127
13, 199202, Note_off_c, 12, 46, 64
13, 199208, Note_off_c, 12, 63, 64
13, 199209, Note_off_c, 12, 59, 64
13, 199210, Note_off_c, 12, 68, 64
13, 199279, Note_off_c, 12, 47, 64
13, 199444, Note_on_c, 12, 56, 127
13, 199544, Note_off_c, 12, 56, 64
13, 199559, Note_on_c, 12, 55, 127
13, 199681, Note_on_c, 12, 56, 127
13, 199683, Note_off_c, 12, 55, 64
13, 199693, Note_on_c, 12, 63, 127
13, 199693, Note_on_c, 12, 59, 127
13, 199694, Note_on_c, 12, 68, 127
13, 199813, Note_off_c, 12, 56, 64
13, 199868, Note_off_c, 12, 68, 64
13, 199872, Note_off_c, 12, 63, 64
13, 199875, Note_off_c, 12, 59, 64
13, 199918, Note_on_c, 12, 71, 127
13, 199918, Note_on_c, 12, 68, 127
13, 199936, Note_on_c, 12, 44, 127
13, 200031, Note_off_c, 12, 44, 64
13, 200039, Note_on_c, 12, 46, 127
13, 200112, Note_off_c, 12, 71, 64
13, 200112, Note_off_c, 12, 68, 64
13, 200160, Note_on_c, 12, 71, 127
13, 200160, Note_on_c, 12, 68, 127
13, 200165, Note_on_c, 12, 48, 127
13, 200179, Note_off_c, 12, 46, 64
13, 200275, Note_off_c, 12, 71, 64
13, 200275, Note_off_c, 12, 68, 64
13, 200306, Note_off_c, 12, 48, 64
13, 200399, Note_on_c, 12, 65, 127
13, 200399, Note_on_c, 12, 68, 127
13, 200401, Note_on_c, 12, 50, 127
13, 200485, Note_off_c, 12, 50, 64
13, 200500, Note_off_c, 12, 65, 64
13, 200500, Note_off_c, 12, 68, 64
13, 200637, Note_on_c, 12, 51, 127
13, 200640, Note_on_c, 12, 63, 127
13, 200640, Note_on_c, 12, 58, 127
13, 200642, Note_on_c, 12, 66, 127
13, 200720, Note_off_c, 12, 58, 64
13, 200730, Note_off_c, 12, 63, 64
13, 200732, Note_off_c, 12, 66, 64
13, 200805, Note_off_c, 12, 51, 64
13, 200874, Note_on_c, 12, 66, 127
13, 200887, Note_on_c, 12, 39, 127
13, 200894, Note_on_c, 12, 70, 127
13, 200921, Note_on_c, 12, 75, 127
13, 200983, Note_off_c, 12, 39, 64
13, 201020, Note_off_c, 12, 66, 64
13, 201020, Note_off_c, 12, 70, 64
13, 201028, Note_off_c, 12, 75, 64
13, 201356, Note_on_c, 12, 51, 127
13, 201456, Note_off_c, 12, 51, 64
13, 201472, Note_on_c, 12, 50, 127
13, 201584, Note_off_c, 12, 50, 64
13, 201594, Note_on_c, 12, 51, 127
13, 201600, Note_on_c, 12, 63, 127
13, 201600, Note_on_c, 12, 66, 127
13, 201604, Note_on_c, 12, 58, 127
13, 201764, Note_off_c, 12, 51, 64
13, 201846, Note_on_c, 12, 46, 127
13, 201942, Note_off_c, 12, 46, 64
13, 201963, Note_on_c, 12, 44, 127
13, 202081, Note_off_c, 12, 44, 64
13, 202081, Note_on_c, 12, 46, 127
13, 202086, Note_off_c, 12, 66, 64
13, 202087, Note_off_c, 12, 63, 64
13, 202087, Note_off_c, 12, 58, 64
13, 202174, Note_off_c, 12, 46, 64
13, 202321, Note_on_c, 12, 51, 127
13, 202431, Note_off_c, 12, 51, 64
13, 202432, Note_on_c, 12, 50, 127
13, 202543, Note_on_c, 12, 63, 127
13, 202543, Note_on_c, 12, 66, 127
13, 202544, Note_on_c, 12, 58, 127
13, 202560, Note_on_c, 12, 51, 127
13, 202576, Note_off_c, 12, 50, 64
13, 202699, Note_off_c, 12, 51, 64
13, 202810, Note_on_c, 12, 42, 127
13, 202892, Note_off_c, 12, 42, 64
13, 202915, Note_on_c, 12, 41, 127
13, 203022, Note_off_c, 12, 41, 64
13, 203033, Note_on_c, 12, 42, 127
13, 203045, Note_off_c, 12, 66, 64
13, 203047, Note_off_c, 12, 63, 64
13, 203047, Note_off_c, 12, 58, 64
13, 203147, Note_off_c, 12, 42, 64
13, 203273, Note_on_c, 12, 51, 127
13, 203380, Note_off_c, 12, 51, 64
13, 203391, Note_on_c, 12, 50, 127
13, 203509, Note_on_c, 12, 66, 127
13, 203509, Note_on_c, 12, 63, 127
13, 203509, Note_on_c, 12, 58, 127
13, 203515, Note_on_c, 12, 51, 127
13, 203523, Note_off_c, 12, 50, 64
13, 203676, Note_off_c, 12, 51, 64
13, 203704, Note_off_c, 12, 58, 64
13, 203711, Note_off_c, 12, 66, 64
13, 203719, Note_off_c, 12, 63, 64
13, 203765, Note_on_c, 12, 39, 127
13, 203765, Note_on_c, 12, 70, 127
13, 203845, Note_off_c, 12, 39, 64
13, 203845, Note_off_c, 12, 70, 64
13, 203873, Note_on_c, 12, 41, 127
13, 203873, Note_on_c, 12, 68, 127
13, 203983, Note_off_c, 12, 41, 64
13, 203983, Note_off_c, 12, 68, 64
13, 203997, Note_on_c, 12, 42, 127
13, 203997, Note_on_c, 12, 66, 127
13, 204111, Note_off_c, 12, 42, 64
13, 204111, Note_off_c, 12, 66, 64
13, 204221, Note_on_c, 12, 63, 127
13, 204222, Note_on_c, 12, 66, 127
13, 204224, Note_on_c, 12, 71, 127
13, 204235, Note_on_c, 12, 44, 127
13, 204308, Note_off_c, 12, 44, 64
13, 204311, Note_off_c, 12, 63, 64
13, 204312, Note_off_c, 12, 66, 64
13, 204314, Note_off_c, 12, 71, 64
13, 204480, Note_on_c, 12, 70, 127
13, 204481, Note_on_c, 12, 46, 127
13, 204496, Note_on_c, 12, 62, 127
13, 204515, Note_on_c, 12, 65, 127
13, 204604, Note_on_c, 12, 44, 127
13, 204608, Note_off_c, 12, 46, 64
13, 204720, Note_on_c, 12, 46, 127
13, 204732, Note_off_c, 12, 44, 64
13, 204821, Note_off_c, 12, 46, 64
13, 204841, Note_on_c, 12, 47, 127
13, 204941, Note_off_c, 12, 47, 64
13, 204959, Note_on_c, 12, 46, 127
13, 204964, Note_off_c, 12, 70, 64
13, 204968, Note_off_c, 12, 62, 64
13, 204971, Note_off_c, 12, 65, 64
13, 205063, Note_off_c, 12, 46, 64
13, 205077, Note_on_c, 12, 47, 127
13, 205162, Note_off_c, 12, 47, 64
13, 205194, Note_on_c, 12, 46, 127
13, 205200, Note_on_c, 12, 58, 127
13, 205200, Note_on_c, 12, 61, 127
13, 205202, Note_on_c, 12, 66, 127
13, 205253, Note_off_c, 12, 61, 64
13, 205257, Note_off_c, 12, 58, 64
13, 205260, Note_off_c, 12, 66, 64
13, 205289, Note_off_c, 12, 46, 64
13, 205313, Note_on_c, 12, 44, 127
13, 205395, Note_off_c, 12, 44, 64
13, 205434, Note_on_c, 12, 58, 127
13, 205440, Note_on_c, 12, 42, 127
13, 205452, Note_on_c, 12, 61, 127
13, 205482, Note_on_c, 12, 66, 127
13, 205948, Note_off_c, 12, 42, 64
13, 205968, Note_off_c, 12, 61, 64
13, 205971, Note_off_c, 12, 58, 64
13, 205972, Note_off_c, 12, 66, 64
13, 206156, Note_on_c, 12, 49, 127
13, 206240, Note_off_c, 12, 49, 64
13, 206354, Note_on_c, 12, 58, 127
13, 206395, Note_on_c, 12, 61, 127
13, 206411, Note_on_c, 12, 54, 127
13, 206428, Note_on_c, 12, 66, 127
13, 206531, Note_on_c, 12, 53, 127
13, 206544, Note_off_c, 12, 54, 64
13, 206652, Note_on_c, 12, 54, 127
13, 206670, Note_off_c, 12, 53, 64
13, 206685, Note_off_c, 12, 61, 64
13, 206687, Note_off_c, 12, 66, 64
13, 206688, Note_off_c, 12, 58, 64
13, 206753, Note_off_c, 12, 54, 64
13, 206772, Note_on_c, 12, 56, 127
13, 206873, Note_off_c, 12, 56, 64
13, 206887, Note_on_c, 12, 54, 127
13, 206969, Note_off_c, 12, 54, 64
13, 207008, Note_on_c, 12, 58, 127
13, 207101, Note_off_c, 12, 58, 64
13, 207116, Note_on_c, 12, 56, 127
13, 207217, Note_off_c, 12, 56, 64
13, 207238, Note_on_c, 12, 59, 127
13, 207345, Note_off_c, 12, 59, 64
13, 207357, Note_on_c, 12, 58, 127
13, 207359, Note_on_c, 12, 58, 127
13, 207360, Note_on_c, 12, 66, 127
13, 207360, Note_on_c, 12, 61, 127
13, 207473, Note_off_c, 12, 58, 64
13, 207480, Note_on_c, 12, 59, 127
13, 207507, Note_off_c, 12, 58, 64
13, 207597, Note_on_c, 12, 58, 127
13, 207606, Note_off_c, 12, 59, 64
13, 207708, Note_off_c, 12, 58, 64
13, 207719, Note_on_c, 12, 56, 127
13, 207719, Note_on_c, 12, 59, 127
13, 207837, Note_off_c, 12, 56, 64
13, 207837, Note_off_c, 12, 59, 64
13, 207844, Note_on_c, 12, 54, 127
13, 207844, Note_on_c, 12, 61, 127
13, 207869, Note_off_c, 12, 66, 64
13, 207870, Note_off_c, 12, 61, 64
13, 207925, Note_off_c, 12, 54, 64
13, 207925, Note_off_c, 12, 61, 64
13, 207959, Note_on_c, 12, 58, 127
13, 207959, Note_on_c, 12, 61, 127
13, 208045, Note_off_c, 12, 58, 64
13, 208045, Note_off_c, 12, 61, 64
13, 208080, Note_on_c, 12, 56, 127
13, 208080, Note_on_c, 12, 60, 127
13, 208171, Note_off_c, 12, 56, 64
13, 208171, Note_off_c, 12, 60, 64
13, 208195, Note_on_c, 12, 54, 127
13, 208195, Note_on_c, 12, 63, 127
13, 208287, Note_off_c, 12, 54, 64
13, 208287, Note_off_c, 12, 63, 64
13, 208318, Note_on_c, 12, 53, 127
13, 208322, Note_on_c, 12, 61, 127
13, 208419, Note_off_c, 12, 53, 64
13, 208440, Note_on_c, 12, 58, 127
13, 208498, Note_off_c, 12, 61, 64
13, 208536, Note_off_c, 12, 58, 64
13, 208559, Note_on_c, 12, 56, 127
13, 208559, Note_on_c, 12, 65, 127
13, 208676, Note_off_c, 12, 56, 64
13, 208676, Note_off_c, 12, 65, 64
13, 208682, Note_on_c, 12, 54, 127
13, 208769, Note_off_c, 12, 54, 64
13, 208801, Note_on_c, 12, 53, 127
13, 208899, Note_off_c, 12, 53, 64
13, 208916, Note_on_c, 12, 54, 127
13, 209034, Note_on_c, 12, 53, 127
13, 209034, Note_on_c, 12, 60, 127
13, 209034, Note_on_c, 12, 63, 127
13, 209038, Note_on_c, 12, 56, 127
13, 209043, Note_off_c, 12, 54, 64
13, 209110, Note_off_c, 12, 56, 64
13, 209112, Note_off_c, 12, 60, 64
13, 209112, Note_off_c, 12, 63, 64
13, 209128, Note_off_c, 12, 53, 64
13, 209152, Note_on_c, 12, 51, 127
13, 209265, Note_off_c, 12, 51, 64
13, 209280, Note_on_c, 12, 56, 127
13, 209282, Note_on_c, 12, 49, 127
13, 209319, Note_on_c, 12, 59, 127
13, 209351, Note_on_c, 12, 65, 127
13, 209654, Note_off_c, 12, 49, 64
13, 209787, Note_off_c, 12, 56, 64
13, 209787, Note_off_c, 12, 59, 64
13, 209789, Note_off_c, 12, 65, 64
13, 210237, Note_on_c, 12, 49, 127
13, 210725, Note_off_c, 12, 49, 64
13, 211140, Note_on_c, 12, 58, 127
13, 211166, Note_on_c, 12, 61, 127
13, 211196, Note_on_c, 12, 42, 127
13, 211210, Note_on_c, 12, 64, 127
13, 211653, Note_off_c, 12, 42, 64
13, 211670, Note_off_c, 12, 61, 64
13, 211675, Note_off_c, 12, 58, 64
13, 211692, Note_off_c, 12, 64, 64
13, 212163, Note_on_c, 12, 42, 127
13, 212653, Note_off_c, 12, 42, 64
13, 213072, Note_on_c, 12, 58, 127
13, 213117, Note_on_c, 12, 43, 127
13, 213124, Note_on_c, 12, 61, 127
13, 213175, Note_on_c, 12, 63, 127
13, 213607, Note_off_c, 12, 43, 64
13, 213634, Note_off_c, 12, 58, 64
13, 213656, Note_off_c, 12, 61, 64
13, 213674, Note_off_c, 12, 63, 64
13, 214075, Note_on_c, 12, 43, 127
13, 214613, Note_off_c, 12, 43, 64
13, 214981, Note_on_c, 12, 54, 127
13, 215029, Note_on_c, 12, 60, 127
13, 215041, Note_on_c, 12, 44, 127
13, 215050, Note_on_c, 12, 63, 127
13, 215517, Note_off_c, 12, 44, 64
13, 215551, Note_off_c, 12, 60, 64
13, 215554, Note_off_c, 12, 63, 64
13, 215558, Note_off_c, 12, 54, 64
13, 215995, Note_on_c, 12, 44, 127
13, 216508, Note_off_c, 12, 44, 64
13, 216909, Note_on_c, 12, 56, 127
13, 216942, Note_on_c, 12, 59, 127
13, 216957, Note_on_c, 12, 62, 127
13, 216966, Note_on_c, 12, 41, 127
13, 217437, Note_off_c, 12, 56, 64
13, 217440, Note_off_c, 12, 59, 64
13, 217446, Note_off_c, 12, 62, 64
13, 217460, Note_off_c, 12, 41, 64
13, 217919, Note_on_c, 12, 41, 127
13, 218402, Note_off_c, 12, 41, 64
13, 218849, Note_on_c, 12, 55, 127
13, 218875, Note_on_c, 12, 40, 127
13, 218890, Note_on_c, 12, 58, 127
13, 218916, Note_on_c, 12, 61, 127
13, 219388, Note_off_c, 12, 58, 64
13, 219392, Note_off_c, 12, 40, 64
13, 219393, Note_off_c, 12, 55, 64
13, 219393, Note_off_c, 12, 61, 64
13, 219835, Note_on_c, 12, 40, 127
13, 220446, Note_off_c, 12, 40, 64
13, 220796, Note_on_c, 12, 36, 127
13, 220800, Note_on_c, 12, 51, 127
13, 220800, Note_on_c, 12, 57, 127
13, 220800, Note_on_c, 12, 54, 127
13, 220940, Note_off_c, 12, 36, 64
13, 221039, Note_on_c, 12, 36, 127
13, 221184, Note_off_c, 12, 36, 64
13, 221265, Note_on_c, 12, 36, 127
13, 221388, Note_off_c, 12, 51, 64
13, 221390, Note_off_c, 12, 54, 64
13, 221394, Note_off_c, 12, 57, 64
13, 221447, Note_off_c, 12, 36, 64
13, 221519, Note_on_c, 12, 36, 127
13, 221689, Note_off_c, 12, 36, 64
13, 221757, Note_on_c, 12, 36, 127
13, 221930, Note_off_c, 12, 36, 64
13, 222001, Note_on_c, 12, 36, 127
13, 222166, Note_off_c, 12, 36, 64
13, 222239, Note_on_c, 12, 36, 127
13, 222408, Note_off_c, 12, 36, 64
13, 222475, Note_on_c, 12, 36, 127
13, 222679, Note_off_c, 12, 36, 64
13, 222716, Note_on_c, 12, 37, 127
13, 222723, Note_on_c, 12, 49, 127
13, 222725, Note_on_c, 12, 57, 127
13, 222725, Note_on_c, 12, 54, 127
13, 222915, Note_off_c, 12, 37, 64
13, 222962, Note_on_c, 12, 37, 127
13, 223137, Note_off_c, 12, 37, 64
13, 223201, Note_on_c, 12, 37, 127
13, 223296, Note_off_c, 12, 54, 64
13, 223298, Note_off_c, 12, 49, 64
13, 223299, Note_off_c, 12, 57, 64
13, 223360, Note_off_c, 12, 37, 64
13, 223439, Note_on_c, 12, 37, 127
13, 223624, Note_off_c, 12, 37, 64
13, 223681, Note_on_c, 12, 37, 127
13, 223860, Note_off_c, 12, 37, 64
13, 223919, Note_on_c, 12, 37, 127
13, 224091, Note_off_c, 12, 37, 64
13, 224154, Note_on_c, 12, 37, 127
13, 224318, Note_off_c, 12, 37, 64
13, 224394, Note_on_c, 12, 37, 127
13, 224582, Note_off_c, 12, 37, 64
13, 224641, Note_on_c, 12, 37, 127
13, 224648, Note_on_c, 12, 48, 127
13, 224648, Note_on_c, 12, 57, 127
13, 224649, Note_on_c, 12, 51, 127
13, 224649, Note_on_c, 12, 54, 127
13, 224836, Note_off_c, 12, 37, 64
13, 224887, Note_on_c, 12, 37, 127
13, 225069, Note_off_c, 12, 37, 64
13, 225125, Note_on_c, 12, 37, 127
13, 225202, Note_off_c, 12, 51, 64
13, 225206, Note_off_c, 12, 54, 64
13, 225207, Note_off_c, 12, 48, 64
13, 225207, Note_off_c, 12, 57, 64
13, 225296, Note_off_c, 12, 37, 64
13, 225362, Note_on_c, 12, 37, 127
13, 225523, Note_off_c, 12, 37, 64
13, 225596, Note_on_c, 12, 37, 127
13, 225787, Note_off_c, 12, 37, 64
13, 225841, Note_on_c, 12, 37, 127
13, 226013, Note_off_c, 12, 37, 64
13, 226076, Note_on_c, 12, 37, 127
13, 226245, Note_off_c, 12, 37, 64
13, 226312, Note_on_c, 12, 37, 127
13, 226487, Note_off_c, 12, 37, 64
13, 226545, Note_on_c, 12, 49, 127
13, 226545, Note_on_c, 12, 54, 127
13, 226546, Note_on_c, 12, 57, 127
13, 226553, Note_on_c, 12, 37, 127
13, 226729, Note_off_c, 12, 37, 64
13, 226795, Note_on_c, 12, 37, 127
13, 226949, Note_off_c, 12, 37, 64
13, 227031, Note_on_c, 12, 37, 127
13, 227116, Note_off_c, 12, 49, 64
13, 227116, Note_off_c, 12, 54, 64
13, 227121, Note_off_c, 12, 57, 64
13, 227205, Note_off_c, 12, 37, 64
13, 227272, Note_on_c, 12, 37, 127
13, 227445, Note_off_c, 12, 37, 64
13, 227515, Note_on_c, 12, 37, 127
13, 227689, Note_off_c, 12, 37, 64
13, 227756, Note_on_c, 12, 37, 127
13, 227927, Note_off_c, 12, 37, 64
13, 227994, Note_on_c, 12, 37, 127
13, 228172, Note_off_c, 12, 37, 64
13, 228235, Note_on_c, 12, 37, 127
13, 228419, Note_off_c, 12, 37, 64
13, 228466, Note_on_c, 12, 47, 127
13, 228468, Note_on_c, 12, 53, 127
13, 228469, Note_on_c, 12, 56, 127
13, 228479, Note_on_c, 12, 37, 127
13, 228653, Note_off_c, 12, 37, 64
13, 228714, Note_on_c, 12, 37, 127
13, 228886, Note_off_c, 12, 37, 64
13, 228953, Note_on_c, 12, 37, 127
13, 229033, Note_off_c, 12, 47, 64
13, 229035, Note_off_c, 12, 53, 64
13, 229036, Note_off_c, 12, 56, 64
13, 229114, Note_off_c, 12, 37, 64
13, 229192, Note_on_c, 12, 37, 127
13, 229348, Note_off_c, 12, 37, 64
13, 229427, Note_on_c, 12, 37, 127
13, 229611, Note_off_c, 12, 37, 64
13, 229671, Note_on_c, 12, 37, 127
13, 229839, Note_off_c, 12, 37, 64
13, 229911, Note_on_c, 12, 37, 127
13, 230084, Note_off_c, 12, 37, 64
13, 230153, Note_on_c, 12, 37, 127
13, 230278, Note_off_c, 12, 37, 64
13, 230400, Note_on_c, 12, 42, 127
13, 230400, Note_on_c, 12, 54, 127
13, 230602, Note_off_c, 12, 54, 64
13, 230648, Note_on_c, 12, 54, 127
13, 230665, Note_off_c, 12, 42, 64
13, 230705, Note_off_c, 12, 54, 64
13, 230875, Note_on_c, 12, 54, 127
13, 230938, Note_off_c, 12, 54, 64
13, 231117, Note_on_c, 12, 42, 127
13, 231185, Note_off_c, 12, 42, 64
13, 231357, Note_on_c, 12, 42, 127
13, 231596, Note_on_c, 12, 54, 127
13, 231598, Note_off_c, 12, 42, 64
13, 231652, Note_off_c, 12, 54, 64
13, 231830, Note_on_c, 12, 54, 127
13, 231885, Note_off_c, 12, 54, 64
13, 232070, Note_on_c, 12, 42, 127
13, 232080, Note_on_c, 12, 66, 127
13, 232080, Note_on_c, 12, 62, 127
13, 232080, Note_on_c, 12, 69, 127
13, 232122, Note_off_c, 12, 66, 64
13, 232122, Note_off_c, 12, 62, 64
13, 232123, Note_off_c, 12, 69, 64
13, 232132, Note_off_c, 12, 42, 64
13, 232323, Note_on_c, 12, 68, 127
13, 232323, Note_on_c, 12, 64, 127
13, 232324, Note_on_c, 12, 62, 127
13, 232326, Note_on_c, 12, 40, 127
13, 232565, Note_off_c, 12, 62, 64
13, 232566, Note_on_c, 12, 52, 127
13, 232571, Note_off_c, 12, 64, 64
13, 232571, Note_off_c, 12, 40, 64
13, 232574, Note_off_c, 12, 68, 64
13, 232618, Note_off_c, 12, 52, 64
13, 232796, Note_on_c, 12, 52, 127
13, 232855, Note_off_c, 12, 52, 64
13, 233036, Note_on_c, 12, 40, 127
13, 233092, Note_off_c, 12, 40, 64
13, 233283, Note_on_c, 12, 40, 127
13, 233527, Note_on_c, 12, 52, 127
13, 233534, Note_off_c, 12, 40, 64
13, 233580, Note_off_c, 12, 52, 64
13, 233755, Note_on_c, 12, 52, 127
13, 233811, Note_off_c, 12, 52, 64
13, 233994, Note_on_c, 12, 64, 127
13, 233995, Note_on_c, 12, 68, 127
13, 233998, Note_on_c, 12, 40, 127
13, 233999, Note_on_c, 12, 61, 127
13, 234044, Note_off_c, 12, 64, 64
13, 234050, Note_off_c, 12, 61, 64
13, 234052, Note_off_c, 12, 68, 64
13, 234058, Note_off_c, 12, 40, 64
13, 234241, Note_on_c, 12, 62, 127
13, 234242, Note_on_c, 12, 66, 127
13, 234243, Note_on_c, 12, 61, 127
13, 234244, Note_on_c, 12, 38, 127
13, 234487, Note_on_c, 12, 50, 127
13, 234488, Note_off_c, 12, 61, 64
13, 234489, Note_off_c, 12, 38, 64
13, 234490, Note_off_c, 12, 62, 64
13, 234492, Note_off_c, 12, 66, 64
13, 234534, Note_off_c, 12, 50, 64
13, 234717, Note_on_c, 12, 50, 127
13, 234767, Note_off_c, 12, 50, 64
13, 234951, Note_on_c, 12, 38, 127
13, 234996, Note_off_c, 12, 38, 64
13, 235209, Note_on_c, 12, 38, 127
13, 235450, Note_on_c, 12, 50, 127
13, 235462, Note_off_c, 12, 38, 64
13, 235504, Note_off_c, 12, 50, 64
13, 235682, Note_on_c, 12, 50, 127
13, 235735, Note_off_c, 12, 50, 64
13, 235920, Note_on_c, 12, 38, 127
13, 235922, Note_on_c, 12, 62, 127
13, 235923, Note_on_c, 12, 66, 127
13, 235927, Note_on_c, 12, 59, 127
13, 235978, Note_off_c, 12, 38, 64
13, 235981, Note_off_c, 12, 62, 64
13, 235986, Note_off_c, 12, 66, 64
13, 235989, Note_off_c, 12, 59, 64
13, 236160, Note_on_c, 12, 37, 127
13, 236184, Note_on_c, 12, 56, 127
13, 236223, Note_on_c, 12, 59, 127
13, 236250, Note_on_c, 12, 65, 127
13, 236643, Note_off_c, 12, 37, 64
13, 236682, Note_off_c, 12, 59, 64
13, 236682, Note_off_c, 12, 65, 64
13, 236686, Note_off_c, 12, 56, 64
13, 236878, Note_on_c, 12, 49, 127
13, 236921, Note_off_c, 12, 49, 64
13, 237066, Note_on_c, 12, 56, 127
13, 237107, Note_on_c, 12, 59, 127
13, 237125, Note_on_c, 12, 37, 127
13, 237143, Note_on_c, 12, 65, 127
13, 237599, Note_off_c, 12, 37, 64
13, 237618, Note_off_c, 12, 56, 64
13, 237619, Note_off_c, 12, 65, 64
13, 237621, Note_off_c, 12, 59, 64
13, 237844, Note_on_c, 12, 49, 127
13, 237900, Note_off_c, 12, 49, 64
13, 238050, Note_on_c, 12, 62, 127
13, 238079, Note_on_c, 12, 35, 127
13, 238092, Note_on_c, 12, 65, 127
13, 238110, Note_on_c, 12, 68, 127
13, 238568, Note_off_c, 12, 35, 64
13, 238573, Note_off_c, 12, 62, 64
13, 238578, Note_off_c, 12, 65, 64
13, 238580, Note_off_c, 12, 68, 64
13, 238803, Note_on_c, 12, 47, 127
13, 238803, Note_on_c, 12, 68, 127
13, 238877, Note_off_c, 12, 47, 64
13, 238877, Note_off_c, 12, 68, 64
13, 239040, Note_on_c, 12, 45, 127
13, 239040, Note_on_c, 12, 73, 127
13, 239040, Note_on_c, 12, 66, 127
13, 239148, Note_off_c, 12, 45, 64
13, 239148, Note_off_c, 12, 73, 64
13, 239148, Note_off_c, 12, 66, 64
13, 239160, Note_on_c, 12, 49, 127
13, 239261, Note_off_c, 12, 49, 64
13, 239285, Note_on_c, 12, 42, 127
13, 239285, Note_on_c, 12, 69, 127
13, 239285, Note_on_c, 12, 61, 127
13, 239376, Note_off_c, 12, 42, 64
13, 239376, Note_off_c, 12, 69, 64
13, 239376, Note_off_c, 12, 61, 64
13, 239399, Note_on_c, 12, 44, 127
13, 239507, Note_off_c, 12, 44, 64
13, 239519, Note_on_c, 12, 45, 127
13, 239620, Note_off_c, 12, 45, 64
13, 239641, Note_on_c, 12, 47, 127
13, 239730, Note_off_c, 12, 47, 64
13, 239757, Note_on_c, 12, 49, 127
13, 239757, Note_on_c, 12, 71, 127
13, 239757, Note_on_c, 12, 65, 127
13, 239867, Note_off_c, 12, 49, 64
13, 239867, Note_off_c, 12, 71, 64
13, 239867, Note_off_c, 12, 65, 64
13, 239878, Note_on_c, 12, 51, 127
13, 239998, Note_off_c, 12, 51, 64
13, 239998, Note_on_c, 12, 53, 127
13, 239998, Note_on_c, 12, 68, 127
13, 239998, Note_on_c, 12, 61, 127
13, 240115, Note_off_c, 12, 53, 64
13, 240115, Note_off_c, 12, 68, 64
13, 240115, Note_off_c, 12, 61, 64
13, 240122, Note_on_c, 12, 56, 127
13, 240230, Note_off_c, 12, 56, 64
13, 240243, Note_on_c, 12, 49, 127
13, 240243, Note_on_c, 12, 65, 127
13, 240243, Note_on_c, 12, 59, 127
13, 240335, Note_off_c, 12, 49, 64
13, 240335, Note_off_c, 12, 65, 64
13, 240335, Note_off_c, 12, 59, 64
13, 240356, Note_on_c, 12, 51, 127
13, 240472, Note_off_c, 12, 51, 64
13, 240478, Note_on_c, 12, 53, 127
13, 240586, Note_off_c, 12, 53, 64
13, 240602, Note_on_c, 12, 54, 127
13, 240702, Note_off_c, 12, 54, 64
13, 240716, Note_on_c, 12, 56, 127
13, 240716, Note_on_c, 12, 68, 127
13, 240716, Note_on_c, 12, 62, 127
13, 240833, Note_on_c, 12, 57, 127
13, 240835, Note_off_c, 12, 56, 64
13, 240835, Note_off_c, 12, 68, 64
13, 240835, Note_off_c, 12, 62, 64
13, 240956, Note_off_c, 12, 57, 64
13, 240960, Note_on_c, 12, 59, 127
13, 240960, Note_on_c, 12, 65, 127
13, 241064, Note_off_c, 12, 59, 64
13, 241064, Note_off_c, 12, 65, 64
13, 241080, Note_on_c, 12, 56, 127
13, 241188, Note_off_c, 12, 56, 64
13, 241196, Note_on_c, 12, 53, 127
13, 241196, Note_on_c, 12, 62, 127
13, 241196, Note_on_c, 12, 59, 127
13, 241298, Note_off_c, 12, 53, 64
13, 241298, Note_off_c, 12, 62, 64
13, 241298, Note_off_c, 12, 59, 64
13, 241315, Note_on_c, 12, 54, 127
13, 241421, Note_off_c, 12, 54, 64
13, 241435, Note_on_c, 12, 56, 127
13, 241543, Note_off_c, 12, 56, 64
13, 241554, Note_on_c, 12, 57, 127
13, 241676, Note_off_c, 12, 57, 64
13, 241679, Note_on_c, 12, 59, 127
13, 241679, Note_on_c, 12, 73, 127
13, 241793, Note_off_c, 12, 59, 64
13, 241793, Note_off_c, 12, 73, 64
13, 241797, Note_on_c, 12, 61, 127
13, 241925, Note_on_c, 12, 62, 127
13, 241925, Note_on_c, 12, 74, 127
13, 241939, Note_off_c, 12, 61, 64
13, 242256, Note_off_c, 12, 62, 64
13, 242256, Note_off_c, 12, 74, 64
13, 242285, Note_on_c, 12, 61, 127
13, 242285, Note_on_c, 12, 73, 127
13, 242374, Note_off_c, 12, 61, 64
13, 242374, Note_off_c, 12, 73, 64
13, 242388, Note_on_c, 12, 59, 127
13, 242388, Note_on_c, 12, 71, 127
13, 242507, Note_off_c, 12, 59, 64
13, 242507, Note_off_c, 12, 71, 64
13, 242513, Note_on_c, 12, 57, 127
13, 242513, Note_on_c, 12, 69, 127
13, 242630, Note_on_c, 12, 56, 127
13, 242630, Note_on_c, 12, 68, 127
13, 242631, Note_off_c, 12, 57, 64
13, 242631, Note_off_c, 12, 69, 64
13, 242725, Note_off_c, 12, 56, 64
13, 242725, Note_off_c, 12, 68, 64
13, 242745, Note_on_c, 12, 54, 127
13, 242745, Note_on_c, 12, 66, 127
13, 242839, Note_off_c, 12, 54, 64
13, 242839, Note_off_c, 12, 66, 64
13, 242880, Note_on_c, 12, 53, 127
13, 242880, Note_on_c, 12, 68, 127
13, 242880, Note_on_c, 12, 61, 127
13, 243109, Note_off_c, 12, 53, 64
13, 243109, Note_off_c, 12, 68, 64
13, 243109, Note_off_c, 12, 61, 64
13, 243112, Note_on_c, 12, 54, 127
13, 243112, Note_on_c, 12, 66, 127
13, 243112, Note_on_c, 12, 59, 127
13, 243324, Note_off_c, 12, 54, 64
13, 243324, Note_off_c, 12, 66, 64
13, 243324, Note_off_c, 12, 59, 64
13, 243350, Note_on_c, 12, 49, 127
13, 243350, Note_on_c, 12, 66, 127
13, 243350, Note_on_c, 12, 59, 127
13, 243429, Note_off_c, 12, 49, 64
13, 243429, Note_off_c, 12, 66, 64
13, 243429, Note_off_c, 12, 59, 64
13, 243606, Note_on_c, 12, 37, 127
13, 243606, Note_on_c, 12, 66, 127
13, 243606, Note_on_c, 12, 58, 127
13, 243668, Note_off_c, 12, 37, 64
13, 243668, Note_off_c, 12, 66, 64
13, 243668, Note_off_c, 12, 58, 64
13, 243841, Note_on_c, 12, 66, 127
13, 243841, Note_on_c, 12, 61, 127
13, 243841, Note_on_c, 12, 58, 127
13, 243856, Note_on_c, 12, 42, 127
13, 244093, Note_off_c, 12, 42, 64
13, 244097, Note_on_c, 12, 54, 127
13, 244153, Note_off_c, 12, 54, 64
13, 244331, Note_on_c, 12, 54, 127
13, 244390, Note_off_c, 12, 66, 64
13, 244390, Note_off_c, 12, 61, 64
13, 244390, Note_off_c, 12, 58, 64
13, 244390, Note_off_c, 12, 54, 64
13, 244563, Note_on_c, 12, 42, 127
13, 244564, Note_on_c, 12, 58, 127
13, 244564, Note_on_c, 12, 66, 127
13, 244564, Note_on_c, 12, 61, 127
13, 244619, Note_off_c, 12, 42, 64
13, 244623, Note_off_c, 12, 61, 64
13, 244624, Note_off_c, 12, 58, 64
13, 244630, Note_off_c, 12, 66, 64
13, 244799, Note_on_c, 12, 58, 127
13, 244800, Note_on_c, 12, 61, 127
13, 244802, Note_on_c, 12, 66, 127
13, 244804, Note_on_c, 12, 42, 127
13, 245040, Note_off_c, 12, 42, 64
13, 245044, Note_on_c, 12, 54, 127
13, 245106, Note_off_c, 12, 54, 64
13, 245261, Note_off_c, 12, 66, 64
13, 245281, Note_on_c, 12, 54, 127
13, 245286, Note_off_c, 12, 61, 64
13, 245313, Note_off_c, 12, 58, 64
13, 245336, Note_off_c, 12, 54, 64
13, 245521, Note_on_c, 12, 42, 127
13, 245522, Note_on_c, 12, 66, 127
13, 245522, Note_on_c, 12, 61, 127
13, 245522, Note_on_c, 12, 58, 127
13, 245578, Note_off_c, 12, 61, 64
13, 245578, Note_off_c, 12, 58, 64
13, 245579, Note_off_c, 12, 42, 64
13, 245584, Note_off_c, 12, 66, 64
13, 245758, Note_on_c, 12, 58, 127
13, 245759, Note_on_c, 12, 61, 127
13, 245760, Note_on_c, 12, 42, 127
13, 245761, Note_on_c, 12, 66, 127
13, 245974, Note_off_c, 12, 66, 64
13, 245976, Note_off_c, 12, 42, 64
13, 245993, Note_off_c, 12, 58, 64
13, 245996, Note_off_c, 12, 61, 64
13, 246010, Note_on_c, 12, 54, 127
13, 246010, Note_on_c, 12, 58, 127
13, 246093, Note_off_c, 12, 54, 64
13, 246093, Note_off_c, 12, 58, 64
13, 246117, Note_on_c, 12, 53, 127
13, 246117, Note_on_c, 12, 56, 127
13, 246218, Note_off_c, 12, 53, 64
13, 246218, Note_off_c, 12, 56, 64
13, 246233, Note_on_c, 12, 51, 127
13, 246233, Note_on_c, 12, 54, 127
13, 246351, Note_off_c, 12, 51, 64
13, 246351, Note_off_c, 12, 54, 64
13, 246477, Note_on_c, 12, 66, 127
13, 246478, Note_on_c, 12, 63, 127
13, 246478, Note_on_c, 12, 60, 127
13, 246479, Note_on_c, 12, 56, 127
13, 246530, Note_off_c, 12, 60, 64
13, 246534, Note_off_c, 12, 63, 64
13, 246543, Note_off_c, 12, 66, 64
13, 246555, Note_off_c, 12, 56, 64
13, 246720, Note_on_c, 12, 49, 127
13, 246720, Note_on_c, 12, 56, 127
13, 246729, Note_on_c, 12, 61, 127
13, 246748, Note_on_c, 12, 65, 127
13, 246848, Note_off_c, 12, 56, 64
13, 246858, Note_off_c, 12, 61, 64
13, 246866, Note_off_c, 12, 65, 64
13, 246934, Note_off_c, 12, 49, 64
13, 246976, Note_on_c, 12, 61, 127
13, 246981, Note_on_c, 12, 65, 127
13, 246983, Note_on_c, 12, 68, 127
13, 246984, Note_on_c, 12, 73, 127
13, 247049, Note_off_c, 12, 65, 64
13, 247052, Note_off_c, 12, 68, 64
13, 247055, Note_off_c, 12, 73, 64
13, 247058, Note_off_c, 12, 61, 64
13, 247075, Note_on_c, 12, 60, 127
13, 247186, Note_off_c, 12, 60, 64
13, 247194, Note_on_c, 12, 61, 127
13, 247273, Note_off_c, 12, 61, 64
13, 247433, Note_on_c, 12, 49, 127
13, 247433, Note_on_c, 12, 70, 127
13, 247434, Note_on_c, 12, 61, 127
13, 247434, Note_on_c, 12, 66, 127
13, 247501, Note_off_c, 12, 66, 64
13, 247508, Note_off_c, 12, 70, 64
13, 247508, Note_off_c, 12, 61, 64
13, 247519, Note_off_c, 12, 49, 64
13, 247677, Note_on_c, 12, 61, 127
13, 247678, Note_on_c, 12, 65, 127
13, 247679, Note_on_c, 12, 68, 127
13, 247680, Note_on_c, 12, 49, 127
13, 247893, Note_off_c, 12, 49, 64
13, 247921, Note_off_c, 12, 61, 64
13, 247930, Note_on_c, 12, 61, 127
13, 247949, Note_off_c, 12, 68, 64
13, 247966, Note_off_c, 12, 65, 64
13, 248022, Note_off_c, 12, 61, 64
13, 248039, Note_on_c, 12, 60, 127
13, 248155, Note_on_c, 12, 61, 127
13, 248173, Note_off_c, 12, 60, 64
13, 248223, Note_off_c, 12, 61, 64
13, 248394, Note_on_c, 12, 49, 127
13, 248394, Note_on_c, 12, 66, 127
13, 248394, Note_on_c, 12, 60, 127
13, 248395, Note_on_c, 12, 63, 127
13, 248469, Note_off_c, 12, 63, 64
13, 248470, Note_off_c, 12, 49, 64
13, 248477, Note_off_c, 12, 60, 64
13, 248478, Note_off_c, 12, 66, 64
13, 248636, Note_on_c, 12, 61, 127
13, 248641, Note_on_c, 12, 49, 127
13, 248641, Note_on_c, 12, 65, 127
13, 248647, Note_on_c, 12, 68, 127
13, 248857, Note_off_c, 12, 61, 64
13, 248883, Note_off_c, 12, 49, 64
13, 248897, Note_on_c, 12, 61, 127
13, 248982, Note_off_c, 12, 61, 64
13, 249002, Note_on_c, 12, 60, 127
13, 249020, Note_off_c, 12, 68, 64
13, 249024, Note_off_c, 12, 65, 64
13, 249097, Note_off_c, 12, 60, 64
13, 249118, Note_on_c, 12, 61, 127
13, 249193, Note_off_c, 12, 61, 64
13, 249360, Note_on_c, 12, 61, 127
13, 249360, Note_on_c, 12, 68, 127
13, 249363, Note_on_c, 12, 53, 127
13, 249415, Note_off_c, 12, 61, 64
13, 249421, Note_off_c, 12, 68, 64
13, 249428, Note_off_c, 12, 53, 64
13, 249595, Note_on_c, 12, 61, 127
13, 249596, Note_on_c, 12, 66, 127
13, 249597, Note_on_c, 12, 54, 127
13, 249810, Note_off_c, 12, 54, 64
13, 249824, Note_off_c, 12, 61, 64
13, 249831, Note_off_c, 12, 66, 64
13, 249844, Note_on_c, 12, 51, 127
13, 249844, Note_on_c, 12, 68, 127
13, 249938, Note_off_c, 12, 51, 64
13, 249938, Note_off_c, 12, 68, 64
13, 249974, Note_on_c, 12, 70, 127
13, 250065, Note_off_c, 12, 70, 64
13, 250082, Note_on_c, 12, 47, 127
13, 250082, Note_on_c, 12, 63, 127
13, 250082, Note_on_c, 12, 71, 127
13, 250158, Note_off_c, 12, 47, 64
13, 250172, Note_off_c, 12, 71, 64
13, 250290, Note_off_c, 12, 63, 64
13, 250320, Note_on_c, 12, 61, 127
13, 250322, Note_on_c, 12, 65, 127
13, 250325, Note_on_c, 12, 49, 127
13, 250405, Note_off_c, 12, 49, 64
13, 250435, Note_on_c, 12, 59, 127
13, 250436, Note_off_c, 12, 61, 64
13, 250442, Note_off_c, 12, 65, 64
13, 250513, Note_off_c, 12, 59, 64
13, 250564, Note_on_c, 12, 66, 127
13, 250565, Note_on_c, 12, 51, 127
13, 250567, Note_on_c, 12, 58, 127
13, 250795, Note_off_c, 12, 66, 64
13, 250803, Note_off_c, 12, 58, 64
13, 250809, Note_off_c, 12, 51, 64
13, 250820, Note_on_c, 12, 49, 127
13, 250899, Note_off_c, 12, 49, 64
13, 250927, Note_on_c, 12, 47, 127
13, 251022, Note_off_c, 12, 47, 64
13, 251044, Note_on_c, 12, 46, 127
13, 251244, Note_off_c, 12, 46, 64
13, 251280, Note_on_c, 12, 59, 127
13, 251281, Note_on_c, 12, 66, 127
13, 251291, Note_on_c, 12, 44, 127
13, 251361, Note_off_c, 12, 66, 64
13, 251375, Note_off_c, 12, 44, 64
13, 251383, Note_on_c, 12, 58, 127
13, 251392, Note_off_c, 12, 59, 64
13, 251397, Note_on_c, 12, 42, 127
13, 251479, Note_off_c, 12, 58, 64
13, 251484, Note_off_c, 12, 42, 64
13, 251517, Note_on_c, 12, 47, 127
13, 251523, Note_on_c, 12, 66, 127
13, 251524, Note_on_c, 12, 59, 127
13, 251751, Note_off_c, 12, 47, 64
13, 251769, Note_off_c, 12, 59, 64
13, 251773, Note_on_c, 12, 46, 127
13, 251778, Note_off_c, 12, 66, 64
13, 251863, Note_off_c, 12, 46, 64
13, 251888, Note_on_c, 12, 44, 127
13, 251975, Note_off_c, 12, 44, 64
13, 252003, Note_on_c, 12, 42, 127
13, 252109, Note_off_c, 12, 42, 64
13, 252240, Note_on_c, 12, 66, 127
13, 252242, Note_on_c, 12, 61, 127
13, 252243, Note_on_c, 12, 54, 127
13, 252243, Note_on_c, 12, 58, 127
13, 252298, Note_off_c, 12, 61, 64
13, 252301, Note_off_c, 12, 58, 64
13, 252308, Note_off_c, 12, 66, 64
13, 252332, Note_off_c, 12, 54, 64
13, 252354, Note_on_c, 12, 53, 127
13, 252443, Note_off_c, 12, 53, 64
13, 252472, Note_on_c, 12, 51, 127
13, 252478, Note_on_c, 12, 66, 127
13, 252479, Note_on_c, 12, 59, 127
13, 252681, Note_off_c, 12, 51, 64
13, 252720, Note_on_c, 12, 49, 127
13, 252808, Note_off_c, 12, 49, 64
13, 252833, Note_on_c, 12, 47, 127
13, 252852, Note_off_c, 12, 66, 64
13, 252852, Note_off_c, 12, 59, 64
13, 252940, Note_off_c, 12, 47, 64
13, 252960, Note_on_c, 12, 46, 127
13, 253054, Note_off_c, 12, 46, 64
13, 253198, Note_on_c, 12, 66, 127
13, 253205, Note_on_c, 12, 48, 127
13, 253272, Note_off_c, 12, 48, 64
13, 253305, Note_off_c, 12, 66, 64
13, 253320, Note_on_c, 12, 68, 127
13, 253419, Note_off_c, 12, 68, 64
13, 253440, Note_on_c, 12, 49, 127
13, 253440, Note_on_c, 12, 61, 127
13, 253444, Note_on_c, 12, 66, 127
13, 253444, Note_on_c, 12, 70, 127
13, 253645, Note_off_c, 12, 49, 64
13, 253663, Note_off_c, 12, 61, 64
13, 253665, Note_off_c, 12, 66, 64
13, 253672, Note_off_c, 12, 70, 64
13, 253691, Note_on_c, 12, 37, 127
13, 253691, Note_on_c, 12, 68, 127
13, 253693, Note_on_c, 12, 60, 127
13, 253763, Note_off_c, 12, 37, 64
13, 253792, Note_on_c, 12, 66, 127
13, 253803, Note_off_c, 12, 68, 64
13, 253878, Note_off_c, 12, 60, 64
13, 253897, Note_off_c, 12, 66, 64
13, 253909, Note_on_c, 12, 68, 127
13, 253916, Note_on_c, 12, 61, 127
13, 253922, Note_on_c, 12, 37, 127
13, 254009, Note_off_c, 12, 37, 64
13, 254035, Note_off_c, 12, 61, 64
13, 254043, Note_off_c, 12, 68, 64
13, 254160, Note_on_c, 12, 49, 127
13, 254160, Note_on_c, 12, 66, 127
13, 254161, Note_on_c, 12, 56, 127
13, 254162, Note_on_c, 12, 61, 127
13, 254243, Note_off_c, 12, 49, 64
13, 254266, Note_on_c, 12, 60, 127
13, 254273, Note_on_c, 12, 51, 127
13, 254283, Note_off_c, 12, 56, 64
13, 254294, Note_off_c, 12, 61, 64
13, 254316, Note_off_c, 12, 66, 64
13, 254373, Note_off_c, 12, 51, 64
13, 254381, Note_off_c, 12, 60, 64
13, 254395, Note_on_c, 12, 53, 127
13, 254400, Note_on_c, 12, 56, 127
13, 254406, Note_on_c, 12, 61, 127
13, 254420, Note_on_c, 12, 65, 127
13, 254610, Note_off_c, 12, 53, 64
13, 254615, Note_off_c, 12, 56, 64
13, 254625, Note_off_c, 12, 61, 64
13, 254627, Note_off_c, 12, 65, 64
13, 254641, Note_on_c, 12, 54, 127
13, 254748, Note_off_c, 12, 54, 64
13, 254880, Note_on_c, 12, 56, 127
13, 254988, Note_off_c, 12, 56, 64
13, 255120, Note_on_c, 12, 68, 127
13, 255120, Note_on_c, 12, 61, 127
13, 255126, Note_on_c, 12, 53, 127
13, 255182, Note_off_c, 12, 61, 64
13, 255191, Note_off_c, 12, 68, 64
13, 255211, Note_off_c, 12, 53, 64
13, 255360, Note_on_c, 12, 58, 127
13, 255361, Note_on_c, 12, 61, 127
13, 255370, Note_on_c, 12, 54, 127
13, 255508, Note_off_c, 12, 58, 64
13, 255582, Note_off_c, 12, 54, 64
13, 255603, Note_on_c, 12, 66, 127
13, 255605, Note_off_c, 12, 61, 64
13, 255612, Note_on_c, 12, 59, 127
13, 255612, Note_on_c, 12, 63, 127
13, 255696, Note_off_c, 12, 59, 64
13, 255696, Note_off_c, 12, 63, 64
13, 255705, Note_off_c, 12, 66, 64
13, 255841, Note_on_c, 12, 66, 127
13, 255842, Note_on_c, 12, 61, 127
13, 255931, Note_off_c, 12, 66, 64
13, 255932, Note_off_c, 12, 61, 64
13, 256080, Note_on_c, 12, 65, 127
13, 256080, Note_on_c, 12, 59, 127
13, 256081, Note_on_c, 12, 56, 127
13, 256085, Note_on_c, 12, 49, 127
13, 256160, Note_off_c, 12, 65, 64
13, 256160, Note_off_c, 12, 59, 64
13, 256162, Note_off_c, 12, 49, 64
13, 256166, Note_off_c, 12, 56, 64
13, 256320, Note_on_c, 12, 66, 127
13, 256321, Note_on_c, 12, 58, 127
13, 256321, Note_on_c, 12, 61, 127
13, 256323, Note_on_c, 12, 42, 127
13, 256500, Note_off_c, 12, 42, 64
13, 256565, Note_on_c, 12, 42, 127
13, 256718, Note_off_c, 12, 42, 64
13, 256803, Note_on_c, 12, 42, 127
13, 256841, Note_off_c, 12, 61, 64
13, 256842, Note_off_c, 12, 66, 64
13, 256842, Note_off_c, 12, 58, 64
13, 256967, Note_off_c, 12, 42, 64
13, 257037, Note_on_c, 12, 42, 127
13, 257193, Note_off_c, 12, 42, 64
13, 257269, Note_on_c, 12, 49, 127
13, 257284, Note_on_c, 12, 42, 127
13, 257321, Note_on_c, 12, 54, 127
13, 257365, Note_on_c, 12, 58, 127
13, 257449, Note_off_c, 12, 42, 64
13, 257519, Note_on_c, 12, 42, 127
13, 257680, Note_off_c, 12, 42, 64
13, 257762, Note_on_c, 12, 42, 127
13, 257859, Note_off_c, 12, 49, 64
13, 257865, Note_off_c, 12, 54, 64
13, 257877, Note_off_c, 12, 58, 64
13, 257911, Note_off_c, 12, 42, 64
13, 257994, Note_on_c, 12, 42, 127
13, 258159, Note_off_c, 12, 42, 64
13, 258211, Note_on_c, 12, 54, 127
13, 258240, Note_on_c, 12, 42, 127
13, 258267, Note_on_c, 12, 58, 127
13, 258297, Note_on_c, 12, 61, 127
13, 258401, Note_off_c, 12, 42, 64
13, 258479, Note_on_c, 12, 42, 127
13, 258632, Note_off_c, 12, 42, 64
13, 258715, Note_on_c, 12, 42, 127
13, 258784, Note_off_c, 12, 54, 64
13, 258787, Note_off_c, 12, 58, 64
13, 258800, Note_off_c, 12, 61, 64
13, 258878, Note_off_c, 12, 42, 64
13, 258959, Note_on_c, 12, 42, 127
13, 259124, Note_off_c, 12, 42, 64
13, 259193, Note_on_c, 12, 58, 127
13, 259200, Note_on_c, 12, 42, 127
13, 259224, Note_on_c, 12, 61, 127
13, 259266, Note_on_c, 12, 66, 127
13, 259373, Note_off_c, 12, 42, 64
13, 259442, Note_on_c, 12, 42, 127
13, 259601, Note_off_c, 12, 42, 64
13, 259680, Note_on_c, 12, 42, 127
13, 259716, Note_off_c, 12, 61, 64
13, 259721, Note_off_c, 12, 58, 64
13, 259724, Note_off_c, 12, 66, 64
13, 259822, Note_off_c, 12, 42, 64
13, 259914, Note_on_c, 12, 42, 127
13, 260074, Note_off_c, 12, 42, 64
13, 260147, Note_on_c, 12, 61, 127
13, 260157, Note_on_c, 12, 42, 127
13, 260194, Note_on_c, 12, 66, 127
13, 260223, Note_on_c, 12, 70, 127
13, 260331, Note_off_c, 12, 42, 64
13, 260403, Note_on_c, 12, 42, 127
13, 260552, Note_off_c, 12, 42, 64
13, 260612, Note_off_c, 12, 61, 64
13, 260612, Note_off_c, 12, 66, 64
13, 260618, Note_off_c, 12, 70, 64
13, 260637, Note_on_c, 12, 42, 127
13, 260782, Note_off_c, 12, 42, 64
13, 260874, Note_on_c, 12, 42, 127
13, 260880, Note_on_c, 12, 66, 127
13, 260881, Note_on_c, 12, 61, 127
13, 260881, Note_on_c, 12, 58, 127
13, 260936, Note_off_c, 12, 61, 64
13, 260936, Note_off_c, 12, 58, 64
13, 260948, Note_off_c, 12, 66, 64
13, 261031, Note_off_c, 12, 42, 64
13, 261117, Note_on_c, 12, 42, 127
13, 261137, Note_on_c, 12, 54, 127
13, 261166, Note_on_c, 12, 58, 127
13, 261193, Note_on_c, 12, 61, 127
13, 261297, Note_off_c, 12, 42, 64
13, 261361, Note_on_c, 12, 42, 127
13, 261503, Note_off_c, 12, 42, 64
13, 261604, Note_on_c, 12, 42, 127
13, 261628, Note_off_c, 12, 58, 64
13, 261631, Note_off_c, 12, 61, 64
13, 261632, Note_off_c, 12, 54, 64
13, 261711, Note_off_c, 12, 42, 64
13, 261839, Note_on_c, 12, 49, 127
13, 261839, Note_on_c, 12, 61, 127
13, 261931, Note_off_c, 12, 49, 64
13, 261931, Note_off_c, 12, 61, 64
13, 262079, Note_on_c, 12, 54, 127
13, 262079, Note_on_c, 12, 66, 127
13, 262337, Note_on_c, 12, 53, 127
13, 262337, Note_on_c, 12, 65, 127
13, 262342, Note_off_c, 12, 54, 64
13, 262342, Note_off_c, 12, 66, 64
13, 262441, Note_off_c, 12, 53, 64
13, 262441, Note_off_c, 12, 65, 64
13, 262452, Note_on_c, 12, 51, 127
13, 262452, Note_on_c, 12, 63, 127
13, 262559, Note_off_c, 12, 51, 64
13, 262559, Note_off_c, 12, 63, 64
13, 262572, Note_on_c, 12, 49, 127
13, 262572, Note_on_c, 12, 61, 127
13, 262666, Note_off_c, 12, 49, 64
13, 262666, Note_off_c, 12, 61, 64
13, 262685, Note_on_c, 12, 47, 127
13, 262685, Note_on_c, 12, 59, 127
13, 262780, Note_off_c, 12, 47, 64
13, 262780, Note_off_c, 12, 59, 64
13, 262802, Note_on_c, 12, 46, 127
13, 262802, Note_on_c, 12, 58, 127
13, 262907, Note_off_c, 12, 46, 64
13, 262907, Note_off_c, 12, 58, 64
13, 262920, Note_on_c, 12, 44, 127
13, 262920, Note_on_c, 12, 56, 127
13, 263020, Note_off_c, 12, 44, 64
13, 263020, Note_off_c, 12, 56, 64
13, 263046, Note_on_c, 12, 46, 127
13, 263046, Note_on_c, 12, 58, 127
13, 263274, Note_off_c, 12, 46, 64
13, 263274, Note_off_c, 12, 58, 64
13, 263292, Note_on_c, 12, 44, 127
13, 263292, Note_on_c, 12, 56, 127
13, 263387, Note_off_c, 12, 44, 64
13, 263387, Note_off_c, 12, 56, 64
13, 263406, Note_on_c, 12, 42, 127
13, 263406, Note_on_c, 12, 54, 127
13, 263503, Note_off_c, 12, 42, 64
13, 263503, Note_off_c, 12, 54, 64
13, 263536, Note_on_c, 12, 49, 127
13, 263536, Note_on_c, 12, 61, 127
13, 263618, Note_off_c, 12, 49, 64
13, 263618, Note_off_c, 12, 61, 64
13, 263778, Note_on_c, 12, 37, 127
13, 263778, Note_on_c, 12, 49, 127
13, 263835, Note_off_c, 12, 37, 64
13, 263835, Note_off_c, 12, 49, 64
13, 264032, Note_on_c, 12, 42, 127
13, 264032, Note_on_c, 12, 54, 127
13, 265027, Note_off_c, 12, 42, 64
13, 265027, Note_off_c, 12, 54, 64
13, 266880, End_track
14, 0, Start_track
14, 0, Instrument_name_t, "SC88-A"
14, 0, Title_t, "vn.uni"
14, 1440, Control_c, 13, 101, 0
14, 1450, Control_c, 13, 100, 0
14, 1450, Control_c, 13, 6, 0
14, 1470, Control_c, 13, 0, 0
14, 1480, Control_c, 13, 32, 1
14, 1490, Program_c, 13, 41
14, 1500, Control_c, 13, 10, 44
14, 1510, Control_c, 13, 11, 105
14, 1520, Control_c, 13, 7, 118
14, 1530, Control_c, 13, 93, 0
14, 1540, Control_c, 13, 91, 0
14, 1550, Pitch_bend_c, 13, 8192
14, 1560, Control_c, 13, 1, 0
14, 1570, Control_c, 13, 64, 0
14, 1580, Control_c, 13, 91, 64
14, 1590, Control_c, 13, 99, 1
14, 1600, Control_c, 13, 98, 32
14, 1610, Control_c, 13, 6, 62
14, 1620, Control_c, 13, 98, 33
14, 1630, Control_c, 13, 6, 63
14, 1640, Control_c, 13, 98, 99
14, 1650, Control_c, 13, 6, 52
14, 1660, Control_c, 13, 98, 100
14, 1670, Control_c, 13, 6, 64
14, 1680, Control_c, 13, 98, 102
14, 1690, Control_c, 13, 6, 64
14, 3600, Note_on_c, 13, 66, 105
14, 3708, Note_off_c, 13, 66, 64
14, 3711, Note_on_c, 13, 65, 61
14, 3833, Note_off_c, 13, 65, 64
14, 3836, Note_on_c, 13, 66, 76
14, 3917, Note_off_c, 13, 66, 64
14, 4085, Note_on_c, 13, 61, 68
14, 4175, Note_off_c, 13, 61, 64
14, 4191, Note_on_c, 13, 59, 68
14, 4307, Note_off_c, 13, 59, 64
14, 4310, Note_on_c, 13, 61, 76
14, 4409, Note_off_c, 13, 61, 64
14, 4560, Note_on_c, 13, 66, 98
14, 4658, Note_off_c, 13, 66, 64
14, 4670, Note_on_c, 13, 65, 56
14, 4778, Note_off_c, 13, 65, 64
14, 4791, Note_on_c, 13, 66, 70
14, 4867, Note_off_c, 13, 66, 64
14, 5038, Note_on_c, 13, 58, 98
14, 5148, Note_off_c, 13, 58, 64
14, 5155, Note_on_c, 13, 56, 71
14, 5268, Note_off_c, 13, 56, 64
14, 5271, Note_on_c, 13, 58, 70
14, 5337, Note_off_c, 13, 58, 64
14, 5521, Note_on_c, 13, 66, 96
14, 5632, Note_on_c, 13, 65, 58
14, 5637, Note_off_c, 13, 66, 64
14, 5762, Note_on_c, 13, 66, 70
14, 5776, Note_off_c, 13, 65, 64
14, 5844, Note_off_c, 13, 66, 64
14, 5998, Note_on_c, 13, 54, 88
14, 6079, Note_off_c, 13, 54, 64
14, 6106, Note_on_c, 13, 56, 74
14, 6173, Note_off_c, 13, 56, 64
14, 6223, Note_on_c, 13, 58, 71
14, 6317, Note_off_c, 13, 58, 64
14, 6468, Note_on_c, 13, 60, 75
14, 6557, Note_off_c, 13, 60, 64
14, 6719, Note_on_c, 13, 61, 73
14, 6834, Note_on_c, 13, 60, 47
14, 6843, Note_off_c, 13, 61, 64
14, 6948, Note_off_c, 13, 60, 64
14, 6955, Note_on_c, 13, 61, 73
14, 7033, Note_off_c, 13, 61, 64
14, 7071, Note_on_c, 13, 63, 73
14, 7130, Note_off_c, 13, 63, 64
14, 7184, Note_on_c, 13, 61, 73
14, 7263, Note_off_c, 13, 61, 64
14, 7305, Note_on_c, 13, 65, 48
14, 7358, Note_off_c, 13, 65, 64
14, 7427, Note_on_c, 13, 61, 73
14, 7505, Note_off_c, 13, 61, 64
14, 7545, Note_on_c, 13, 66, 73
14, 7602, Note_off_c, 13, 66, 64
14, 7668, Note_on_c, 13, 61, 82
14, 7789, Note_on_c, 13, 60, 52
14, 7806, Note_off_c, 13, 61, 64
14, 7889, Note_off_c, 13, 60, 64
14, 7905, Note_on_c, 13, 61, 73
14, 7986, Note_off_c, 13, 61, 64
14, 8022, Note_on_c, 13, 63, 73
14, 8077, Note_off_c, 13, 63, 64
14, 8145, Note_on_c, 13, 61, 73
14, 8216, Note_off_c, 13, 61, 64
14, 8266, Note_on_c, 13, 68, 78
14, 8315, Note_off_c, 13, 68, 64
14, 8386, Note_on_c, 13, 61, 74
14, 8461, Note_off_c, 13, 61, 64
14, 8502, Note_on_c, 13, 70, 79
14, 8549, Note_off_c, 13, 70, 64
14, 8627, Note_on_c, 13, 61, 79
14, 8746, Note_on_c, 13, 60, 60
14, 8749, Note_off_c, 13, 61, 64
14, 8858, Note_off_c, 13, 60, 64
14, 8866, Note_on_c, 13, 61, 73
14, 8943, Note_off_c, 13, 61, 64
14, 8985, Note_on_c, 13, 63, 73
14, 9035, Note_off_c, 13, 63, 64
14, 9106, Note_on_c, 13, 61, 78
14, 9188, Note_off_c, 13, 61, 64
14, 9220, Note_on_c, 13, 71, 78
14, 9266, Note_off_c, 13, 71, 64
14, 9337, Note_on_c, 13, 61, 78
14, 9405, Note_off_c, 13, 61, 64
14, 9456, Note_on_c, 13, 73, 96
14, 9515, Note_off_c, 13, 73, 64
14, 9583, Note_on_c, 13, 70, 85
14, 9812, Note_off_c, 13, 70, 64
14, 9836, Note_on_c, 13, 68, 73
14, 9924, Note_off_c, 13, 68, 64
14, 9946, Note_on_c, 13, 66, 71
14, 10026, Note_off_c, 13, 66, 64
14, 10070, Note_on_c, 13, 68, 78
14, 10262, Note_off_c, 13, 68, 64
14, 10315, Note_on_c, 13, 66, 76
14, 10398, Note_off_c, 13, 66, 64
14, 10431, Note_on_c, 13, 65, 74
14, 10505, Note_off_c, 13, 65, 64
14, 10549, Note_on_c, 13, 66, 83
14, 10719, Note_off_c, 13, 66, 64
14, 10795, Note_on_c, 13, 65, 73
14, 10896, Note_off_c, 13, 65, 64
14, 10908, Note_on_c, 13, 63, 71
14, 11021, Note_off_c, 13, 63, 64
14, 11023, Note_on_c, 13, 61, 73
14, 11113, Note_off_c, 13, 61, 64
14, 11151, Note_on_c, 13, 66, 73
14, 11215, Note_off_c, 13, 66, 64
14, 11267, Note_on_c, 13, 61, 73
14, 11342, Note_off_c, 13, 61, 64
14, 11383, Note_on_c, 13, 66, 74
14, 11436, Note_off_c, 13, 66, 64
14, 11508, Note_on_c, 13, 63, 85
14, 11717, Note_off_c, 13, 63, 64
14, 11750, Note_on_c, 13, 61, 73
14, 11845, Note_off_c, 13, 61, 64
14, 11861, Note_on_c, 13, 59, 71
14, 11975, Note_off_c, 13, 59, 64
14, 11983, Note_on_c, 13, 58, 73
14, 12074, Note_off_c, 13, 58, 64
14, 12108, Note_on_c, 13, 66, 70
14, 12153, Note_off_c, 13, 66, 64
14, 12225, Note_on_c, 13, 58, 71
14, 12285, Note_off_c, 13, 58, 64
14, 12339, Note_on_c, 13, 66, 70
14, 12387, Note_off_c, 13, 66, 64
14, 12468, Note_on_c, 13, 59, 92
14, 12672, Note_off_c, 13, 59, 64
14, 12703, Note_on_c, 13, 58, 78
14, 12796, Note_off_c, 13, 58, 64
14, 12818, Note_on_c, 13, 56, 78
14, 12893, Note_off_c, 13, 56, 64
14, 12943, Note_on_c, 13, 54, 78
14, 13025, Note_off_c, 13, 54, 64
14, 13071, Note_on_c, 13, 66, 78
14, 13143, Note_off_c, 13, 66, 64
14, 13191, Note_on_c, 13, 56, 78
14, 13258, Note_off_c, 13, 56, 64
14, 13309, Note_on_c, 13, 66, 78
14, 13370, Note_off_c, 13, 66, 64
14, 13429, Note_on_c, 13, 58, 78
14, 13504, Note_off_c, 13, 58, 64
14, 13551, Note_on_c, 13, 66, 78
14, 13612, Note_off_c, 13, 66, 64
14, 13673, Note_on_c, 13, 60, 92
14, 13723, Note_off_c, 13, 60, 64
14, 13788, Note_on_c, 13, 66, 78
14, 13850, Note_off_c, 13, 66, 64
14, 13914, Note_on_c, 13, 61, 83
14, 14014, Note_off_c, 13, 61, 64
14, 14033, Note_on_c, 13, 65, 61
14, 14088, Note_off_c, 13, 65, 64
14, 14153, Note_on_c, 13, 61, 83
14, 14226, Note_off_c, 13, 61, 64
14, 14272, Note_on_c, 13, 66, 78
14, 14336, Note_off_c, 13, 66, 64
14, 14393, Note_on_c, 13, 61, 83
14, 14484, Note_off_c, 13, 61, 64
14, 14514, Note_on_c, 13, 68, 78
14, 14566, Note_off_c, 13, 68, 64
14, 14632, Note_on_c, 13, 61, 94
14, 14719, Note_off_c, 13, 61, 64
14, 14749, Note_on_c, 13, 70, 78
14, 14802, Note_off_c, 13, 70, 64
14, 14871, Note_on_c, 13, 61, 92
14, 14958, Note_off_c, 13, 61, 64
14, 14994, Note_on_c, 13, 71, 92
14, 15066, Note_off_c, 13, 71, 64
14, 15115, Note_on_c, 13, 61, 99
14, 15186, Note_off_c, 13, 61, 64
14, 15232, Note_on_c, 13, 73, 99
14, 15305, Note_off_c, 13, 73, 64
14, 15359, Note_on_c, 13, 70, 78
14, 15526, Note_off_c, 13, 70, 64
14, 15593, Note_on_c, 13, 68, 70
14, 15692, Note_off_c, 13, 68, 64
14, 15704, Note_on_c, 13, 66, 70
14, 15816, Note_off_c, 13, 66, 64
14, 15829, Note_on_c, 13, 61, 78
14, 15959, Note_off_c, 13, 61, 64
14, 16071, Note_on_c, 13, 65, 90
14, 16179, Note_off_c, 13, 65, 64
14, 16312, Note_on_c, 13, 66, 52
14, 16566, Note_off_c, 13, 66, 64
14, 16568, Note_on_c, 13, 65, 37
14, 16667, Note_off_c, 13, 65, 64
14, 16679, Note_on_c, 13, 63, 39
14, 16763, Note_off_c, 13, 63, 64
14, 16800, Note_on_c, 13, 61, 43
14, 16880, Note_off_c, 13, 61, 64
14, 16916, Note_on_c, 13, 59, 42
14, 16994, Note_off_c, 13, 59, 64
14, 17036, Note_on_c, 13, 58, 39
14, 17113, Note_off_c, 13, 58, 64
14, 17153, Note_on_c, 13, 56, 40
14, 17211, Note_off_c, 13, 56, 64
14, 17277, Note_on_c, 13, 58, 40
14, 17464, Note_off_c, 13, 58, 64
14, 17528, Note_on_c, 13, 56, 39
14, 17619, Note_off_c, 13, 56, 64
14, 17635, Note_on_c, 13, 54, 39
14, 17741, Note_off_c, 13, 54, 64
14, 17757, Note_on_c, 13, 61, 39
14, 17826, Note_off_c, 13, 61, 64
14, 17999, Note_on_c, 13, 61, 39
14, 18057, Note_off_c, 13, 61, 64
14, 18236, Note_on_c, 13, 54, 39
14, 18742, Note_off_c, 13, 54, 64
14, 21360, Note_on_c, 13, 73, 80
14, 21499, Note_off_c, 13, 73, 64
14, 21602, Note_on_c, 13, 78, 80
14, 21689, Note_off_c, 13, 78, 64
14, 21714, Note_on_c, 13, 82, 88
14, 21808, Note_off_c, 13, 82, 64
14, 21827, Note_on_c, 13, 80, 80
14, 21923, Note_off_c, 13, 80, 64
14, 21938, Note_on_c, 13, 78, 82
14, 22019, Note_off_c, 13, 78, 64
14, 22062, Note_on_c, 13, 77, 64
14, 22251, Note_off_c, 13, 77, 64
14, 24960, Note_on_c, 13, 77, 82
14, 25165, Note_off_c, 13, 77, 64
14, 25197, Note_on_c, 13, 75, 96
14, 25281, Note_off_c, 13, 75, 64
14, 25306, Note_on_c, 13, 73, 96
14, 25394, Note_off_c, 13, 73, 64
14, 25432, Note_on_c, 13, 75, 96
14, 25623, Note_off_c, 13, 75, 64
14, 25687, Note_on_c, 13, 73, 96
14, 25772, Note_off_c, 13, 73, 64
14, 25791, Note_on_c, 13, 72, 81
14, 25896, Note_off_c, 13, 72, 64
14, 25911, Note_on_c, 13, 73, 96
14, 26119, Note_off_c, 13, 73, 64
14, 26157, Note_on_c, 13, 72, 93
14, 26260, Note_off_c, 13, 72, 64
14, 26273, Note_on_c, 13, 70, 96
14, 26361, Note_off_c, 13, 70, 64
14, 26396, Note_on_c, 13, 68, 96
14, 26498, Note_off_c, 13, 68, 64
14, 26512, Note_on_c, 13, 73, 96
14, 26588, Note_off_c, 13, 73, 64
14, 26632, Note_on_c, 13, 68, 96
14, 26723, Note_off_c, 13, 68, 64
14, 26751, Note_on_c, 13, 73, 96
14, 26817, Note_off_c, 13, 73, 64
14, 26883, Note_on_c, 13, 70, 96
14, 27088, Note_off_c, 13, 70, 64
14, 27122, Note_on_c, 13, 68, 96
14, 27210, Note_off_c, 13, 68, 64
14, 27237, Note_on_c, 13, 66, 96
14, 27323, Note_off_c, 13, 66, 64
14, 27357, Note_on_c, 13, 65, 88
14, 27457, Note_off_c, 13, 65, 64
14, 27477, Note_on_c, 13, 73, 96
14, 27542, Note_off_c, 13, 73, 64
14, 27594, Note_on_c, 13, 65, 80
14, 27670, Note_off_c, 13, 65, 64
14, 27713, Note_on_c, 13, 73, 96
14, 27775, Note_off_c, 13, 73, 64
14, 27839, Note_on_c, 13, 66, 96
14, 28032, Note_off_c, 13, 66, 64
14, 28074, Note_on_c, 13, 65, 93
14, 28174, Note_off_c, 13, 65, 64
14, 28193, Note_on_c, 13, 63, 96
14, 28273, Note_off_c, 13, 63, 64
14, 28319, Note_on_c, 13, 61, 96
14, 28405, Note_off_c, 13, 61, 64
14, 28436, Note_on_c, 13, 73, 96
14, 28517, Note_off_c, 13, 73, 64
14, 28556, Note_on_c, 13, 63, 96
14, 28646, Note_off_c, 13, 63, 64
14, 28674, Note_on_c, 13, 73, 96
14, 28745, Note_off_c, 13, 73, 64
14, 28799, Note_on_c, 13, 65, 84
14, 28869, Note_off_c, 13, 65, 64
14, 28917, Note_on_c, 13, 73, 96
14, 29004, Note_off_c, 13, 73, 64
14, 29035, Note_on_c, 13, 67, 87
14, 29107, Note_off_c, 13, 67, 64
14, 29155, Note_on_c, 13, 73, 96
14, 29244, Note_off_c, 13, 73, 64
14, 29282, Note_on_c, 13, 68, 96
14, 29386, Note_off_c, 13, 68, 64
14, 29399, Note_on_c, 13, 72, 84
14, 29474, Note_off_c, 13, 72, 64
14, 29521, Note_on_c, 13, 68, 100
14, 29613, Note_off_c, 13, 68, 64
14, 29637, Note_on_c, 13, 73, 96
14, 29717, Note_off_c, 13, 73, 64
14, 29758, Note_on_c, 13, 68, 96
14, 29852, Note_off_c, 13, 68, 64
14, 29874, Note_on_c, 13, 75, 96
14, 29950, Note_off_c, 13, 75, 64
14, 29997, Note_on_c, 13, 68, 100
14, 30094, Note_off_c, 13, 68, 64
14, 30117, Note_on_c, 13, 77, 110
14, 30189, Note_off_c, 13, 77, 64
14, 30236, Note_on_c, 13, 68, 101
14, 30329, Note_off_c, 13, 68, 64
14, 30357, Note_on_c, 13, 78, 100
14, 30430, Note_off_c, 13, 78, 64
14, 30473, Note_on_c, 13, 68, 101
14, 30574, Note_off_c, 13, 68, 64
14, 30593, Note_on_c, 13, 80, 101
14, 30673, Note_off_c, 13, 80, 64
14, 30715, Note_on_c, 13, 77, 106
14, 30906, Note_off_c, 13, 77, 64
14, 30956, Note_on_c, 13, 75, 96
14, 31048, Note_off_c, 13, 75, 64
14, 31067, Note_on_c, 13, 73, 96
14, 31178, Note_off_c, 13, 73, 64
14, 31197, Note_on_c, 13, 68, 104
14, 31298, Note_off_c, 13, 68, 64
14, 31437, Note_on_c, 13, 72, 85
14, 31532, Note_off_c, 13, 72, 64
14, 31683, Note_on_c, 13, 73, 92
14, 31963, Note_off_c, 13, 73, 64
14, 34800, Note_on_c, 13, 70, 127
14, 34914, Note_on_c, 13, 71, 106
14, 34919, Note_off_c, 13, 70, 64
14, 35020, Note_off_c, 13, 71, 64
14, 35036, Note_on_c, 13, 73, 114
14, 35186, Note_off_c, 13, 73, 64
14, 35278, Note_on_c, 13, 75, 109
14, 35393, Note_off_c, 13, 75, 64
14, 35516, Note_on_c, 13, 68, 96
14, 35707, Note_off_c, 13, 68, 64
14, 38640, Note_on_c, 13, 73, 121
14, 38759, Note_off_c, 13, 73, 64
14, 38877, Note_on_c, 13, 77, 110
14, 38982, Note_off_c, 13, 77, 64
14, 39114, Note_on_c, 13, 80, 110
14, 39220, Note_off_c, 13, 80, 64
14, 39358, Note_on_c, 13, 77, 107
14, 39510, Note_off_c, 13, 77, 64
14, 39602, Note_on_c, 13, 73, 94
14, 39700, Note_off_c, 13, 73, 64
14, 39837, Note_on_c, 13, 77, 108
14, 39941, Note_off_c, 13, 77, 64
14, 40078, Note_on_c, 13, 80, 107
14, 40176, Note_off_c, 13, 80, 64
14, 40324, Note_on_c, 13, 77, 99
14, 40453, Note_off_c, 13, 77, 64
14, 40564, Note_on_c, 13, 68, 110
14, 40661, Note_off_c, 13, 68, 64
14, 40798, Note_on_c, 13, 73, 120
14, 40889, Note_off_c, 13, 73, 64
14, 40916, Note_on_c, 13, 77, 122
14, 40999, Note_off_c, 13, 77, 64
14, 41031, Note_on_c, 13, 75, 96
14, 41131, Note_off_c, 13, 75, 64
14, 41148, Note_on_c, 13, 73, 100
14, 41240, Note_off_c, 13, 73, 64
14, 41271, Note_on_c, 13, 72, 81
14, 41472, Note_off_c, 13, 72, 64
14, 47754, Note_on_c, 13, 73, 75
14, 47871, Note_on_c, 13, 72, 54
14, 47886, Note_off_c, 13, 73, 64
14, 47990, Note_on_c, 13, 73, 52
14, 47991, Note_off_c, 13, 72, 64
14, 48110, Note_off_c, 13, 73, 64
14, 48724, Note_on_c, 13, 73, 78
14, 48837, Note_on_c, 13, 72, 57
14, 48843, Note_off_c, 13, 73, 64
14, 48960, Note_on_c, 13, 73, 49
14, 48968, Note_off_c, 13, 72, 64
14, 49106, Note_off_c, 13, 73, 64
14, 52559, Note_on_c, 13, 66, 81
14, 52675, Note_on_c, 13, 65, 62
14, 52689, Note_off_c, 13, 66, 64
14, 52787, Note_off_c, 13, 65, 64
14, 52791, Note_on_c, 13, 66, 54
14, 52941, Note_off_c, 13, 66, 64
14, 53509, Note_on_c, 13, 66, 81
14, 53627, Note_on_c, 13, 65, 62
14, 53642, Note_off_c, 13, 66, 64
14, 53749, Note_on_c, 13, 66, 55
14, 53761, Note_off_c, 13, 65, 64
14, 53898, Note_off_c, 13, 66, 64
14, 56766, Note_on_c, 13, 66, 118
14, 56852, Note_off_c, 13, 66, 64
14, 56882, Note_on_c, 13, 68, 118
14, 56958, Note_off_c, 13, 68, 64
14, 56994, Note_on_c, 13, 70, 114
14, 57070, Note_off_c, 13, 70, 64
14, 57113, Note_on_c, 13, 71, 98
14, 57310, Note_off_c, 13, 71, 64
14, 66960, Note_on_c, 13, 54, 68
14, 67061, Note_off_c, 13, 54, 64
14, 67203, Note_on_c, 13, 58, 76
14, 67331, Note_off_c, 13, 58, 64
14, 67428, Note_on_c, 13, 61, 70
14, 67541, Note_off_c, 13, 61, 64
14, 67670, Note_on_c, 13, 58, 74
14, 67783, Note_off_c, 13, 58, 64
14, 67914, Note_on_c, 13, 54, 70
14, 68010, Note_off_c, 13, 54, 64
14, 68147, Note_on_c, 13, 58, 80
14, 68314, Note_off_c, 13, 58, 64
14, 68387, Note_on_c, 13, 61, 72
14, 68487, Note_off_c, 13, 61, 64
14, 68625, Note_on_c, 13, 58, 76
14, 68720, Note_off_c, 13, 58, 64
14, 68874, Note_on_c, 13, 54, 72
14, 68962, Note_off_c, 13, 54, 64
14, 69115, Note_on_c, 13, 61, 70
14, 69264, Note_off_c, 13, 61, 64
14, 69359, Note_on_c, 13, 61, 68
14, 69415, Note_off_c, 13, 61, 64
14, 69456, Note_on_c, 13, 61, 60
14, 69518, Note_off_c, 13, 61, 64
14, 69576, Note_on_c, 13, 61, 64
14, 69766, Note_off_c, 13, 61, 64
14, 74651, Note_on_c, 13, 61, 98
14, 74751, Note_off_c, 13, 61, 64
14, 74878, Note_on_c, 13, 58, 105
14, 75018, Note_off_c, 13, 58, 64
14, 75121, Note_on_c, 13, 54, 79
14, 75224, Note_off_c, 13, 54, 64
14, 78480, Note_on_c, 13, 78, 118
14, 78592, Note_on_c, 13, 77, 100
14, 78597, Note_off_c, 13, 78, 64
14, 78712, Note_on_c, 13, 78, 95
14, 78730, Note_off_c, 13, 77, 64
14, 78889, Note_off_c, 13, 78, 64
14, 78955, Note_on_c, 13, 66, 120
14, 79070, Note_on_c, 13, 68, 102
14, 79071, Note_off_c, 13, 66, 64
14, 79184, Note_off_c, 13, 68, 64
14, 79189, Note_on_c, 13, 70, 108
14, 79315, Note_off_c, 13, 70, 64
14, 79434, Note_on_c, 13, 72, 102
14, 79554, Note_off_c, 13, 72, 64
14, 82561, Note_on_c, 13, 82, 126
14, 82758, Note_off_c, 13, 82, 64
14, 82798, Note_on_c, 13, 80, 104
14, 82905, Note_off_c, 13, 80, 64
14, 82912, Note_on_c, 13, 78, 101
14, 83019, Note_off_c, 13, 78, 64
14, 83031, Note_on_c, 13, 80, 91
14, 83254, Note_off_c, 13, 80, 64
14, 83282, Note_on_c, 13, 78, 114
14, 83375, Note_off_c, 13, 78, 64
14, 83393, Note_on_c, 13, 77, 107
14, 83504, Note_off_c, 13, 77, 64
14, 83514, Note_on_c, 13, 78, 91
14, 83731, Note_off_c, 13, 78, 64
14, 83765, Note_on_c, 13, 77, 100
14, 83870, Note_off_c, 13, 77, 64
14, 83875, Note_on_c, 13, 75, 90
14, 83975, Note_off_c, 13, 75, 64
14, 83996, Note_on_c, 13, 73, 106
14, 84081, Note_off_c, 13, 73, 64
14, 84115, Note_on_c, 13, 78, 98
14, 84186, Note_off_c, 13, 78, 64
14, 84232, Note_on_c, 13, 73, 110
14, 84305, Note_off_c, 13, 73, 64
14, 84351, Note_on_c, 13, 78, 108
14, 84419, Note_off_c, 13, 78, 64
14, 84481, Note_on_c, 13, 75, 106
14, 84692, Note_off_c, 13, 75, 64
14, 84723, Note_on_c, 13, 73, 106
14, 84815, Note_off_c, 13, 73, 64
14, 84834, Note_on_c, 13, 71, 94
14, 84925, Note_off_c, 13, 71, 64
14, 84951, Note_on_c, 13, 70, 99
14, 85051, Note_off_c, 13, 70, 64
14, 85074, Note_on_c, 13, 78, 90
14, 85152, Note_off_c, 13, 78, 64
14, 85193, Note_on_c, 13, 70, 102
14, 85272, Note_off_c, 13, 70, 64
14, 85311, Note_on_c, 13, 78, 104
14, 85376, Note_off_c, 13, 78, 64
14, 85435, Note_on_c, 13, 71, 121
14, 85660, Note_off_c, 13, 71, 64
14, 85678, Note_on_c, 13, 70, 98
14, 85773, Note_off_c, 13, 70, 64
14, 85794, Note_on_c, 13, 68, 94
14, 85874, Note_off_c, 13, 68, 64
14, 85916, Note_on_c, 13, 66, 99
14, 86068, Note_off_c, 13, 66, 64
14, 86155, Note_on_c, 13, 68, 94
14, 86284, Note_off_c, 13, 68, 64
14, 86395, Note_on_c, 13, 70, 118
14, 86545, Note_off_c, 13, 70, 64
14, 86635, Note_on_c, 13, 72, 106
14, 86761, Note_off_c, 13, 72, 64
14, 86876, Note_on_c, 13, 73, 113
14, 87075, Note_off_c, 13, 73, 64
14, 89040, Note_on_c, 13, 77, 123
14, 89124, Note_off_c, 13, 77, 64
14, 89288, Note_on_c, 13, 78, 127
14, 89497, Note_off_c, 13, 78, 64
14, 89529, Note_on_c, 13, 77, 121
14, 89614, Note_off_c, 13, 77, 64
14, 89645, Note_on_c, 13, 75, 110
14, 89743, Note_off_c, 13, 75, 64
14, 89763, Note_on_c, 13, 73, 113
14, 89858, Note_off_c, 13, 73, 64
14, 89879, Note_on_c, 13, 71, 111
14, 89950, Note_off_c, 13, 71, 64
14, 89995, Note_on_c, 13, 70, 120
14, 90087, Note_off_c, 13, 70, 64
14, 90110, Note_on_c, 13, 68, 110
14, 90187, Note_off_c, 13, 68, 64
14, 90235, Note_on_c, 13, 70, 108
14, 90429, Note_off_c, 13, 70, 64
14, 90477, Note_on_c, 13, 68, 104
14, 90548, Note_off_c, 13, 68, 64
14, 90587, Note_on_c, 13, 66, 127
14, 90667, Note_off_c, 13, 66, 64
14, 90707, Note_on_c, 13, 73, 102
14, 90821, Note_off_c, 13, 73, 64
14, 90953, Note_on_c, 13, 61, 91
14, 91049, Note_off_c, 13, 61, 64
14, 91198, Note_on_c, 13, 66, 98
14, 91484, Note_off_c, 13, 66, 64
14, 107760, Note_on_c, 13, 63, 101
14, 107876, Note_on_c, 13, 65, 96
14, 107879, Note_off_c, 13, 63, 64
14, 107995, Note_off_c, 13, 65, 64
14, 107995, Note_on_c, 13, 66, 88
14, 108112, Note_off_c, 13, 66, 64
14, 108249, Note_on_c, 13, 68, 93
14, 108348, Note_off_c, 13, 68, 64
14, 108480, Note_on_c, 13, 70, 76
14, 108642, Note_off_c, 13, 70, 64
14, 110640, Note_on_c, 13, 62, 127
14, 110753, Note_off_c, 13, 62, 64
14, 110755, Note_on_c, 13, 60, 91
14, 110874, Note_on_c, 13, 62, 116
14, 110879, Note_off_c, 13, 60, 64
14, 110950, Note_off_c, 13, 62, 64
14, 111120, Note_on_c, 13, 82, 127
14, 111203, Note_off_c, 13, 82, 64
14, 111357, Note_on_c, 13, 78, 127
14, 111567, Note_off_c, 13, 78, 64
14, 111599, Note_on_c, 13, 77, 116
14, 111692, Note_off_c, 13, 77, 64
14, 111708, Note_on_c, 13, 75, 93
14, 111802, Note_off_c, 13, 75, 64
14, 111829, Note_on_c, 13, 77, 127
14, 112058, Note_off_c, 13, 77, 64
14, 112086, Note_on_c, 13, 75, 122
14, 112171, Note_off_c, 13, 75, 64
14, 112191, Note_on_c, 13, 74, 100
14, 112283, Note_off_c, 13, 74, 64
14, 112317, Note_on_c, 13, 83, 127
14, 112626, Note_off_c, 13, 83, 64
14, 112675, Note_on_c, 13, 82, 124
14, 112756, Note_off_c, 13, 82, 64
14, 112793, Note_on_c, 13, 80, 109
14, 112887, Note_off_c, 13, 80, 64
14, 112908, Note_on_c, 13, 78, 112
14, 112986, Note_off_c, 13, 78, 64
14, 113027, Note_on_c, 13, 77, 124
14, 113099, Note_off_c, 13, 77, 64
14, 113141, Note_on_c, 13, 75, 92
14, 113219, Note_off_c, 13, 75, 64
14, 113280, Note_on_c, 13, 82, 107
14, 113476, Note_off_c, 13, 82, 64
14, 113522, Note_on_c, 13, 80, 96
14, 113629, Note_on_c, 13, 78, 84
14, 113631, Note_off_c, 13, 80, 64
14, 113727, Note_off_c, 13, 78, 64
14, 113749, Note_on_c, 13, 77, 84
14, 113907, Note_off_c, 13, 77, 64
14, 114001, Note_on_c, 13, 75, 84
14, 114113, Note_on_c, 13, 74, 73
14, 114122, Note_off_c, 13, 75, 64
14, 114235, Note_off_c, 13, 74, 64
14, 114239, Note_on_c, 13, 75, 92
14, 114381, Note_off_c, 13, 75, 64
14, 125520, Note_on_c, 13, 73, 109
14, 125652, Note_off_c, 13, 73, 64
14, 125769, Note_on_c, 13, 70, 109
14, 125869, Note_off_c, 13, 70, 64
14, 125887, Note_on_c, 13, 73, 109
14, 125956, Note_off_c, 13, 73, 64
14, 125998, Note_on_c, 13, 66, 109
14, 126093, Note_off_c, 13, 66, 64
14, 126115, Note_on_c, 13, 68, 109
14, 126210, Note_off_c, 13, 68, 64
14, 126241, Note_on_c, 13, 70, 109
14, 126330, Note_off_c, 13, 70, 64
14, 126354, Note_on_c, 13, 71, 109
14, 126446, Note_off_c, 13, 71, 64
14, 126474, Note_on_c, 13, 73, 109
14, 126555, Note_off_c, 13, 73, 64
14, 126593, Note_on_c, 13, 71, 109
14, 126673, Note_off_c, 13, 71, 64
14, 126718, Note_on_c, 13, 70, 109
14, 126877, Note_off_c, 13, 70, 64
14, 138480, Note_on_c, 13, 70, 112
14, 138576, Note_off_c, 13, 70, 64
14, 138590, Note_on_c, 13, 72, 110
14, 138679, Note_off_c, 13, 72, 64
14, 138709, Note_on_c, 13, 73, 93
14, 138814, Note_off_c, 13, 73, 64
14, 138962, Note_on_c, 13, 75, 106
14, 139069, Note_off_c, 13, 75, 64
14, 139197, Note_on_c, 13, 77, 110
14, 139312, Note_off_c, 13, 77, 64
14, 139314, Note_on_c, 13, 75, 93
14, 139418, Note_off_c, 13, 75, 64
14, 139425, Note_on_c, 13, 77, 102
14, 139524, Note_off_c, 13, 77, 64
14, 139538, Note_on_c, 13, 78, 93
14, 139623, Note_off_c, 13, 78, 64
14, 139657, Note_on_c, 13, 77, 115
14, 139748, Note_off_c, 13, 77, 64
14, 139779, Note_on_c, 13, 75, 94
14, 139860, Note_off_c, 13, 75, 64
14, 139899, Note_on_c, 13, 73, 101
14, 139994, Note_off_c, 13, 73, 64
14, 140026, Note_on_c, 13, 72, 118
14, 140105, Note_off_c, 13, 72, 64
14, 140157, Note_on_c, 13, 73, 93
14, 140255, Note_off_c, 13, 73, 64
14, 140278, Note_on_c, 13, 75, 102
14, 140350, Note_off_c, 13, 75, 64
14, 140398, Note_on_c, 13, 73, 114
14, 140472, Note_off_c, 13, 73, 64
14, 140511, Note_on_c, 13, 75, 127
14, 140582, Note_off_c, 13, 75, 64
14, 140640, Note_on_c, 13, 77, 115
14, 140737, Note_off_c, 13, 77, 64
14, 140739, Note_on_c, 13, 75, 107
14, 140784, Note_off_c, 13, 75, 64
14, 140785, Note_on_c, 13, 77, 106
14, 140819, Note_off_c, 13, 77, 64
14, 140821, Note_on_c, 13, 75, 106
14, 140861, Note_off_c, 13, 75, 64
14, 140863, Note_on_c, 13, 77, 106
14, 140895, Note_off_c, 13, 77, 64
14, 140899, Note_on_c, 13, 75, 106
14, 140925, Note_on_c, 13, 77, 106
14, 140931, Note_off_c, 13, 75, 64
14, 140972, Note_on_c, 13, 75, 106
14, 140977, Note_off_c, 13, 77, 64
14, 141013, Note_off_c, 13, 75, 64
14, 141018, Note_on_c, 13, 73, 106
14, 141058, Note_on_c, 13, 75, 107
14, 141075, Note_off_c, 13, 73, 64
14, 141136, Note_off_c, 13, 75, 64
14, 141137, Note_on_c, 13, 77, 110
14, 141284, Note_off_c, 13, 77, 64
14, 141385, Note_on_c, 13, 82, 105
14, 141480, Note_on_c, 13, 81, 88
14, 141491, Note_off_c, 13, 82, 64
14, 141588, Note_off_c, 13, 81, 64
14, 141588, Note_on_c, 13, 82, 85
14, 141713, Note_off_c, 13, 82, 64
14, 141837, Note_on_c, 13, 77, 106
14, 141939, Note_on_c, 13, 75, 85
14, 141944, Note_off_c, 13, 77, 64
14, 142050, Note_off_c, 13, 75, 64
14, 142076, Note_on_c, 13, 73, 98
14, 142263, Note_off_c, 13, 73, 64
14, 142325, Note_on_c, 13, 72, 86
14, 142424, Note_off_c, 13, 72, 64
14, 142425, Note_on_c, 13, 70, 85
14, 142496, Note_off_c, 13, 70, 64
14, 142539, Note_on_c, 13, 72, 106
14, 142743, Note_off_c, 13, 72, 64
14, 142802, Note_on_c, 13, 70, 85
14, 142897, Note_off_c, 13, 70, 64
14, 142903, Note_on_c, 13, 69, 90
14, 142995, Note_off_c, 13, 69, 64
14, 143042, Note_on_c, 13, 78, 118
14, 143339, Note_off_c, 13, 78, 64
14, 143392, Note_on_c, 13, 77, 101
14, 143474, Note_off_c, 13, 77, 64
14, 143506, Note_on_c, 13, 75, 94
14, 143600, Note_off_c, 13, 75, 64
14, 143615, Note_on_c, 13, 73, 94
14, 143691, Note_off_c, 13, 73, 64
14, 143733, Note_on_c, 13, 72, 102
14, 143812, Note_off_c, 13, 72, 64
14, 143842, Note_on_c, 13, 70, 90
14, 143915, Note_off_c, 13, 70, 64
14, 197520, Note_on_c, 13, 56, 82
14, 197589, Note_off_c, 13, 56, 64
14, 197757, Note_on_c, 13, 59, 91
14, 197911, Note_off_c, 13, 59, 64
14, 198002, Note_on_c, 13, 63, 68
14, 198095, Note_off_c, 13, 63, 64
14, 198234, Note_on_c, 13, 59, 79
14, 198307, Note_off_c, 13, 59, 64
14, 198477, Note_on_c, 13, 56, 75
14, 198541, Note_off_c, 13, 56, 64
14, 198714, Note_on_c, 13, 59, 82
14, 198868, Note_off_c, 13, 59, 64
14, 198961, Note_on_c, 13, 63, 71
14, 199035, Note_off_c, 13, 63, 64
14, 199199, Note_on_c, 13, 59, 79
14, 199275, Note_off_c, 13, 59, 64
14, 199439, Note_on_c, 13, 56, 71
14, 199512, Note_off_c, 13, 56, 64
14, 199674, Note_on_c, 13, 63, 70
14, 199824, Note_off_c, 13, 63, 64
14, 199918, Note_on_c, 13, 63, 68
14, 199967, Note_off_c, 13, 63, 64
14, 200030, Note_on_c, 13, 63, 64
14, 200084, Note_off_c, 13, 63, 64
14, 200148, Note_on_c, 13, 63, 67
14, 200303, Note_off_c, 13, 63, 64
14, 205200, Note_on_c, 13, 78, 107
14, 205311, Note_off_c, 13, 78, 64
14, 205313, Note_on_c, 13, 77, 84
14, 205414, Note_off_c, 13, 77, 64
14, 205441, Note_on_c, 13, 78, 69
14, 205573, Note_off_c, 13, 78, 64
14, 205685, Note_on_c, 13, 73, 98
14, 205790, Note_off_c, 13, 73, 64
14, 205800, Note_on_c, 13, 71, 90
14, 205909, Note_off_c, 13, 71, 64
14, 205917, Note_on_c, 13, 73, 71
14, 206038, Note_off_c, 13, 73, 64
14, 206157, Note_on_c, 13, 78, 99
14, 206254, Note_off_c, 13, 78, 64
14, 206272, Note_on_c, 13, 77, 90
14, 206371, Note_off_c, 13, 77, 64
14, 206394, Note_on_c, 13, 78, 73
14, 206531, Note_off_c, 13, 78, 64
14, 206638, Note_on_c, 13, 70, 98
14, 206744, Note_off_c, 13, 70, 64
14, 206757, Note_on_c, 13, 68, 84
14, 206860, Note_off_c, 13, 68, 64
14, 206874, Note_on_c, 13, 70, 73
14, 207000, Note_off_c, 13, 70, 64
14, 207113, Note_on_c, 13, 78, 104
14, 207216, Note_off_c, 13, 78, 64
14, 207225, Note_on_c, 13, 77, 86
14, 207342, Note_off_c, 13, 77, 64
14, 207352, Note_on_c, 13, 78, 80
14, 207485, Note_off_c, 13, 78, 64
14, 207596, Note_on_c, 13, 66, 120
14, 207691, Note_off_c, 13, 66, 64
14, 207709, Note_on_c, 13, 68, 97
14, 207825, Note_off_c, 13, 68, 64
14, 207828, Note_on_c, 13, 70, 90
14, 207929, Note_off_c, 13, 70, 64
14, 208074, Note_on_c, 13, 72, 90
14, 208158, Note_off_c, 13, 72, 64
14, 208313, Note_on_c, 13, 73, 90
14, 208432, Note_off_c, 13, 73, 64
14, 208555, Note_on_c, 13, 61, 76
14, 208661, Note_off_c, 13, 61, 64
14, 241680, Note_on_c, 13, 73, 106
14, 241769, Note_off_c, 13, 73, 64
14, 241917, Note_on_c, 13, 74, 127
14, 242210, Note_off_c, 13, 74, 64
14, 242276, Note_on_c, 13, 73, 95
14, 242368, Note_off_c, 13, 73, 64
14, 242392, Note_on_c, 13, 71, 101
14, 242482, Note_off_c, 13, 71, 64
14, 242514, Note_on_c, 13, 69, 119
14, 242577, Note_off_c, 13, 69, 64
14, 242629, Note_on_c, 13, 68, 102
14, 242704, Note_off_c, 13, 68, 64
14, 242748, Note_on_c, 13, 66, 102
14, 242829, Note_off_c, 13, 66, 64
14, 242876, Note_on_c, 13, 73, 106
14, 243089, Note_off_c, 13, 73, 64
14, 243126, Note_on_c, 13, 71, 118
14, 243216, Note_off_c, 13, 71, 64
14, 243237, Note_on_c, 13, 69, 108
14, 243320, Note_off_c, 13, 69, 64
14, 243354, Note_on_c, 13, 68, 106
14, 243530, Note_off_c, 13, 68, 64
14, 243602, Note_on_c, 13, 66, 112
14, 243696, Note_off_c, 13, 66, 64
14, 243712, Note_on_c, 13, 65, 100
14, 243809, Note_off_c, 13, 65, 64
14, 243836, Note_on_c, 13, 66, 94
14, 243981, Note_off_c, 13, 66, 64
14, 244088, Note_on_c, 13, 61, 66
14, 244169, Note_off_c, 13, 61, 64
14, 244197, Note_on_c, 13, 59, 94
14, 244301, Note_off_c, 13, 59, 64
14, 244309, Note_on_c, 13, 61, 94
14, 244433, Note_off_c, 13, 61, 64
14, 244557, Note_on_c, 13, 66, 102
14, 244645, Note_off_c, 13, 66, 64
14, 244666, Note_on_c, 13, 65, 111
14, 244752, Note_off_c, 13, 65, 64
14, 244791, Note_on_c, 13, 66, 90
14, 244960, Note_off_c, 13, 66, 64
14, 245045, Note_on_c, 13, 58, 123
14, 245146, Note_off_c, 13, 58, 64
14, 245158, Note_on_c, 13, 56, 96
14, 245271, Note_off_c, 13, 56, 64
14, 245275, Note_on_c, 13, 58, 66
14, 245409, Note_off_c, 13, 58, 64
14, 245524, Note_on_c, 13, 66, 88
14, 245618, Note_off_c, 13, 66, 64
14, 245636, Note_on_c, 13, 65, 97
14, 245742, Note_off_c, 13, 65, 64
14, 245754, Note_on_c, 13, 66, 109
14, 245887, Note_off_c, 13, 66, 64
14, 246003, Note_on_c, 13, 54, 124
14, 246109, Note_off_c, 13, 54, 64
14, 246112, Note_on_c, 13, 56, 104
14, 246224, Note_off_c, 13, 56, 64
14, 246233, Note_on_c, 13, 58, 99
14, 246361, Note_off_c, 13, 58, 64
14, 246476, Note_on_c, 13, 60, 114
14, 246567, Note_off_c, 13, 60, 64
14, 246718, Note_on_c, 13, 61, 99
14, 246836, Note_on_c, 13, 60, 85
14, 246844, Note_off_c, 13, 61, 64
14, 246944, Note_off_c, 13, 60, 64
14, 246956, Note_on_c, 13, 61, 83
14, 247056, Note_off_c, 13, 61, 64
14, 247077, Note_on_c, 13, 63, 94
14, 247150, Note_off_c, 13, 63, 64
14, 247196, Note_on_c, 13, 61, 99
14, 247290, Note_off_c, 13, 61, 64
14, 247313, Note_on_c, 13, 65, 104
14, 247395, Note_off_c, 13, 65, 64
14, 247430, Note_on_c, 13, 61, 102
14, 247513, Note_off_c, 13, 61, 64
14, 247550, Note_on_c, 13, 66, 109
14, 247621, Note_off_c, 13, 66, 64
14, 247679, Note_on_c, 13, 61, 104
14, 247794, Note_on_c, 13, 60, 80
14, 247803, Note_off_c, 13, 61, 64
14, 247905, Note_off_c, 13, 60, 64
14, 247913, Note_on_c, 13, 61, 83
14, 248012, Note_off_c, 13, 61, 64
14, 248030, Note_on_c, 13, 63, 99
14, 248112, Note_off_c, 13, 63, 64
14, 248150, Note_on_c, 13, 61, 104
14, 248246, Note_off_c, 13, 61, 64
14, 248272, Note_on_c, 13, 68, 109
14, 248346, Note_off_c, 13, 68, 64
14, 248392, Note_on_c, 13, 61, 111
14, 248469, Note_off_c, 13, 61, 64
14, 248510, Note_on_c, 13, 70, 121
14, 248585, Note_off_c, 13, 70, 64
14, 248637, Note_on_c, 13, 61, 109
14, 248755, Note_on_c, 13, 60, 83
14, 248761, Note_off_c, 13, 61, 64
14, 248864, Note_off_c, 13, 60, 64
14, 248874, Note_on_c, 13, 61, 83
14, 248964, Note_off_c, 13, 61, 64
14, 248993, Note_on_c, 13, 63, 99
14, 249074, Note_off_c, 13, 63, 64
14, 249112, Note_on_c, 13, 61, 104
14, 249213, Note_off_c, 13, 61, 64
14, 249236, Note_on_c, 13, 71, 109
14, 249315, Note_off_c, 13, 71, 64
14, 249353, Note_on_c, 13, 61, 109
14, 249448, Note_off_c, 13, 61, 64
14, 249471, Note_on_c, 13, 73, 117
14, 249560, Note_off_c, 13, 73, 64
14, 249603, Note_on_c, 13, 70, 111
14, 249799, Note_off_c, 13, 70, 64
14, 249845, Note_on_c, 13, 68, 94
14, 249930, Note_off_c, 13, 68, 64
14, 249954, Note_on_c, 13, 66, 98
14, 250036, Note_off_c, 13, 66, 64
14, 250072, Note_on_c, 13, 68, 95
14, 250289, Note_off_c, 13, 68, 64
14, 250320, Note_on_c, 13, 66, 109
14, 250414, Note_off_c, 13, 66, 64
14, 250435, Note_on_c, 13, 65, 104
14, 250519, Note_off_c, 13, 65, 64
14, 250557, Note_on_c, 13, 66, 104
14, 250767, Note_off_c, 13, 66, 64
14, 250809, Note_on_c, 13, 65, 97
14, 250896, Note_off_c, 13, 65, 64
14, 250921, Note_on_c, 13, 63, 95
14, 251003, Note_off_c, 13, 63, 64
14, 251042, Note_on_c, 13, 61, 114
14, 251128, Note_off_c, 13, 61, 64
14, 251160, Note_on_c, 13, 66, 83
14, 251224, Note_off_c, 13, 66, 64
14, 251278, Note_on_c, 13, 61, 114
14, 251343, Note_off_c, 13, 61, 64
14, 251393, Note_on_c, 13, 66, 92
14, 251459, Note_off_c, 13, 66, 64
14, 251517, Note_on_c, 13, 63, 111
14, 251722, Note_off_c, 13, 63, 64
14, 251767, Note_on_c, 13, 61, 102
14, 251846, Note_off_c, 13, 61, 64
14, 251874, Note_on_c, 13, 59, 95
14, 251959, Note_off_c, 13, 59, 64
14, 251995, Note_on_c, 13, 58, 111
14, 252085, Note_off_c, 13, 58, 64
14, 252125, Note_on_c, 13, 66, 83
14, 252188, Note_off_c, 13, 66, 64
14, 252237, Note_on_c, 13, 58, 96
14, 252308, Note_off_c, 13, 58, 64
14, 252357, Note_on_c, 13, 66, 95
14, 252419, Note_off_c, 13, 66, 64
14, 252483, Note_on_c, 13, 59, 92
14, 252688, Note_off_c, 13, 59, 64
14, 252723, Note_on_c, 13, 58, 96
14, 252800, Note_off_c, 13, 58, 64
14, 252838, Note_on_c, 13, 56, 114
14, 252912, Note_off_c, 13, 56, 64
14, 252959, Note_on_c, 13, 54, 104
14, 253046, Note_off_c, 13, 54, 64
14, 253079, Note_on_c, 13, 66, 88
14, 253144, Note_off_c, 13, 66, 64
14, 253196, Note_on_c, 13, 56, 95
14, 253281, Note_off_c, 13, 56, 64
14, 253316, Note_on_c, 13, 66, 89
14, 253387, Note_off_c, 13, 66, 64
14, 253441, Note_on_c, 13, 58, 109
14, 253533, Note_off_c, 13, 58, 64
14, 253563, Note_on_c, 13, 66, 89
14, 253635, Note_off_c, 13, 66, 64
14, 253680, Note_on_c, 13, 60, 114
14, 253758, Note_off_c, 13, 60, 64
14, 253798, Note_on_c, 13, 66, 89
14, 253877, Note_off_c, 13, 66, 64
14, 253921, Note_on_c, 13, 61, 92
14, 254034, Note_off_c, 13, 61, 64
14, 254039, Note_on_c, 13, 65, 100
14, 254121, Note_off_c, 13, 65, 64
14, 254159, Note_on_c, 13, 61, 98
14, 254249, Note_off_c, 13, 61, 64
14, 254276, Note_on_c, 13, 66, 109
14, 254358, Note_off_c, 13, 66, 64
14, 254398, Note_on_c, 13, 61, 104
14, 254495, Note_off_c, 13, 61, 64
14, 254517, Note_on_c, 13, 68, 99
14, 254593, Note_off_c, 13, 68, 64
14, 254636, Note_on_c, 13, 61, 104
14, 254727, Note_off_c, 13, 61, 64
14, 254755, Note_on_c, 13, 70, 117
14, 254826, Note_off_c, 13, 70, 64
14, 254878, Note_on_c, 13, 61, 102
14, 254978, Note_off_c, 13, 61, 64
14, 254994, Note_on_c, 13, 71, 111
14, 255065, Note_off_c, 13, 71, 64
14, 255115, Note_on_c, 13, 61, 104
14, 255196, Note_off_c, 13, 61, 64
14, 255233, Note_on_c, 13, 73, 121
14, 255306, Note_off_c, 13, 73, 64
14, 255357, Note_on_c, 13, 70, 117
14, 255553, Note_off_c, 13, 70, 64
14, 255603, Note_on_c, 13, 68, 99
14, 255686, Note_off_c, 13, 68, 64
14, 255712, Note_on_c, 13, 66, 105
14, 255789, Note_off_c, 13, 66, 64
14, 255835, Note_on_c, 13, 61, 116
14, 255922, Note_off_c, 13, 61, 64
14, 256076, Note_on_c, 13, 65, 109
14, 256149, Note_off_c, 13, 65, 64
14, 256318, Note_on_c, 13, 66, 87
14, 256540, Note_off_c, 13, 66, 64
14, 262199, Note_on_c, 13, 66, 105
14, 262276, Note_off_c, 13, 66, 64
14, 262319, Note_on_c, 13, 65, 85
14, 262386, Note_off_c, 13, 65, 64
14, 262438, Note_on_c, 13, 63, 100
14, 262509, Note_off_c, 13, 63, 64
14, 262555, Note_on_c, 13, 61, 94
14, 262625, Note_off_c, 13, 61, 64
14, 262678, Note_on_c, 13, 59, 94
14, 262738, Note_off_c, 13, 59, 64
14, 262800, Note_on_c, 13, 58, 105
14, 262865, Note_off_c, 13, 58, 64
14, 262917, Note_on_c, 13, 56, 99
14, 262983, Note_off_c, 13, 56, 64
14, 263038, Note_on_c, 13, 58, 107
14, 263236, Note_off_c, 13, 58, 64
14, 263279, Note_on_c, 13, 56, 105
14, 263360, Note_off_c, 13, 56, 64
14, 263400, Note_on_c, 13, 54, 95
14, 263478, Note_off_c, 13, 54, 64
14, 263520, Note_on_c, 13, 61, 84
14, 263615, Note_off_c, 13, 61, 64
14, 263768, Note_on_c, 13, 61, 64
14, 263838, Note_off_c, 13, 61, 64
14, 263976, Control_c, 13, 11, 62
14, 263990, Control_c, 13, 11, 63
14, 264004, Note_on_c, 13, 54, 56
14, 264004, Control_c, 13, 11, 64
14, 264018, Control_c, 13, 11, 66
14, 264033, Control_c, 13, 11, 67
14, 264047, Control_c, 13, 11, 69
14, 264061, Control_c, 13, 11, 70
14, 264075, Control_c, 13, 11, 72
14, 264090, Control_c, 13, 11, 73
14, 264104, Control_c, 13, 11, 75
14, 264118, Control_c, 13, 11, 76
14, 264132, Control_c, 13, 11, 78
14, 264147, Control_c, 13, 11, 79
14, 264161, Control_c, 13, 11, 81
14, 264175, Control_c, 13, 11, 82
14, 264189, Control_c, 13, 11, 84
14, 264204, Control_c, 13, 11, 85
14, 264218, Control_c, 13, 11, 87
14, 264232, Control_c, 13, 11, 88
14, 264246, Control_c, 13, 11, 90
14, 264261, Control_c, 13, 11, 91
14, 264275, Control_c, 13, 11, 93
14, 264289, Control_c, 13, 11, 94
14, 264303, Control_c, 13, 11, 96
14, 264318, Control_c, 13, 11, 97
14, 264332, Control_c, 13, 11, 99
14, 264346, Control_c, 13, 11, 100
14, 264360, Control_c, 13, 11, 102
14, 264374, Control_c, 13, 11, 104
14, 264843, Control_c, 13, 11, 104
14, 264857, Control_c, 13, 11, 94
14, 264872, Control_c, 13, 11, 83
14, 264886, Control_c, 13, 11, 73
14, 264901, Control_c, 13, 11, 63
14, 264915, Control_c, 13, 11, 53
14, 264930, Control_c, 13, 11, 42
14, 264944, Control_c, 13, 11, 32
14, 264947, Note_off_c, 13, 54, 64
14, 265005, Control_c, 13, 11, 104
14, 266880, End_track
15, 0, Start_track
15, 0, Instrument_name_t, "SC88-A"
15, 0, Title_t, "vl.uni"
15, 1440, Control_c, 14, 101, 0
15, 1450, Control_c, 14, 100, 0
15, 1450, Control_c, 14, 6, 0
15, 1470, Control_c, 14, 0, 0
15, 1480, Control_c, 14, 32, 1
15, 1490, Program_c, 14, 40
15, 1500, Control_c, 14, 10, 74
15, 1510, Control_c, 14, 11, 105
15, 1520, Control_c, 14, 7, 118
15, 1530, Control_c, 14, 93, 0
15, 1540, Control_c, 14, 91, 0
15, 1550, Pitch_bend_c, 14, 8192
15, 1560, Control_c, 14, 1, 0
15, 1570, Control_c, 14, 64, 0
15, 1580, Control_c, 14, 91, 64
15, 1590, Control_c, 14, 99, 1
15, 1600, Control_c, 14, 98, 32
15, 1610, Control_c, 14, 6, 52
15, 1620, Control_c, 14, 98, 33
15, 1630, Control_c, 14, 6, 64
15, 1640, Control_c, 14, 98, 99
15, 1650, Control_c, 14, 6, 64
15, 1660, Control_c, 14, 98, 100
15, 1670, Control_c, 14, 6, 64
15, 1680, Control_c, 14, 98, 102
15, 1690, Control_c, 14, 6, 64
15, 3600, Note_on_c, 14, 54, 79
15, 3709, Note_off_c, 14, 54, 64
15, 3841, Note_on_c, 14, 58, 79
15, 3954, Note_off_c, 14, 58, 64
15, 4075, Note_on_c, 14, 61, 73
15, 4193, Note_off_c, 14, 61, 64
15, 4322, Note_on_c, 14, 58, 79
15, 4411, Note_off_c, 14, 58, 64
15, 4554, Note_on_c, 14, 54, 71
15, 4676, Note_off_c, 14, 54, 64
15, 4793, Note_on_c, 14, 58, 79
15, 4955, Note_off_c, 14, 58, 64
15, 5026, Note_on_c, 14, 61, 79
15, 5130, Note_off_c, 14, 61, 64
15, 5276, Note_on_c, 14, 58, 79
15, 5381, Note_off_c, 14, 58, 64
15, 5513, Note_on_c, 14, 54, 79
15, 5602, Note_off_c, 14, 54, 64
15, 5755, Note_on_c, 14, 58, 75
15, 5925, Note_off_c, 14, 58, 64
15, 5994, Note_on_c, 14, 61, 79
15, 6085, Note_off_c, 14, 61, 64
15, 6234, Note_on_c, 14, 66, 79
15, 6321, Note_off_c, 14, 66, 64
15, 6354, Note_on_c, 14, 70, 79
15, 6460, Note_off_c, 14, 70, 64
15, 6475, Note_on_c, 14, 68, 70
15, 6582, Note_off_c, 14, 68, 64
15, 6591, Note_on_c, 14, 66, 63
15, 6641, Note_off_c, 14, 66, 64
15, 6721, Note_on_c, 14, 65, 64
15, 6816, Note_off_c, 14, 65, 64
15, 6962, Note_on_c, 14, 61, 79
15, 7066, Note_off_c, 14, 61, 64
15, 7427, Note_on_c, 14, 70, 79
15, 7534, Note_off_c, 14, 70, 64
15, 7670, Note_on_c, 14, 65, 63
15, 7750, Note_off_c, 14, 65, 64
15, 7899, Note_on_c, 14, 61, 79
15, 8006, Note_off_c, 14, 61, 64
15, 8391, Note_on_c, 14, 66, 79
15, 8493, Note_off_c, 14, 66, 64
15, 8629, Note_on_c, 14, 65, 60
15, 8762, Note_off_c, 14, 65, 64
15, 8869, Note_on_c, 14, 61, 79
15, 8983, Note_off_c, 14, 61, 64
15, 9352, Note_on_c, 14, 68, 79
15, 9421, Note_off_c, 14, 68, 64
15, 9594, Note_on_c, 14, 61, 79
15, 9743, Note_off_c, 14, 61, 64
15, 9834, Note_on_c, 14, 59, 79
15, 9934, Note_off_c, 14, 59, 64
15, 9952, Note_on_c, 14, 58, 71
15, 10051, Note_off_c, 14, 58, 64
15, 10073, Note_on_c, 14, 59, 79
15, 10244, Note_off_c, 14, 59, 64
15, 10321, Note_on_c, 14, 58, 79
15, 10439, Note_off_c, 14, 58, 64
15, 10440, Note_on_c, 14, 56, 79
15, 10516, Note_off_c, 14, 56, 64
15, 10569, Note_on_c, 14, 54, 79
15, 10703, Note_off_c, 14, 54, 64
15, 10802, Note_on_c, 14, 66, 79
15, 10908, Note_off_c, 14, 66, 64
15, 11037, Note_on_c, 14, 66, 79
15, 11145, Note_off_c, 14, 66, 64
15, 11272, Note_on_c, 14, 54, 79
15, 11383, Note_off_c, 14, 54, 64
15, 11513, Note_on_c, 14, 54, 79
15, 11705, Note_off_c, 14, 54, 64
15, 11757, Note_on_c, 14, 66, 75
15, 11843, Note_off_c, 14, 66, 64
15, 12000, Note_on_c, 14, 66, 79
15, 12097, Note_off_c, 14, 66, 64
15, 12233, Note_on_c, 14, 54, 79
15, 12340, Note_off_c, 14, 54, 64
15, 12476, Note_on_c, 14, 54, 79
15, 12641, Note_off_c, 14, 54, 64
15, 12716, Note_on_c, 14, 66, 71
15, 12806, Note_off_c, 14, 66, 64
15, 12957, Note_on_c, 14, 66, 73
15, 13065, Note_off_c, 14, 66, 64
15, 13195, Note_on_c, 14, 54, 79
15, 13293, Note_off_c, 14, 54, 64
15, 13432, Note_on_c, 14, 54, 70
15, 13570, Note_off_c, 14, 54, 64
15, 13673, Note_on_c, 14, 66, 79
15, 13791, Note_off_c, 14, 66, 64
15, 13910, Note_on_c, 14, 65, 63
15, 13998, Note_off_c, 14, 65, 64
15, 14151, Note_on_c, 14, 66, 79
15, 14239, Note_off_c, 14, 66, 64
15, 14386, Note_on_c, 14, 68, 78
15, 14488, Note_off_c, 14, 68, 64
15, 14629, Note_on_c, 14, 70, 79
15, 14713, Note_off_c, 14, 70, 64
15, 14864, Note_on_c, 14, 71, 79
15, 14962, Note_off_c, 14, 71, 64
15, 15106, Note_on_c, 14, 73, 79
15, 15199, Note_off_c, 14, 73, 64
15, 15347, Note_on_c, 14, 70, 79
15, 15539, Note_off_c, 14, 70, 64
15, 15591, Note_on_c, 14, 68, 79
15, 15682, Note_off_c, 14, 68, 64
15, 15711, Note_on_c, 14, 66, 66
15, 15791, Note_off_c, 14, 66, 64
15, 15831, Note_on_c, 14, 61, 79
15, 15932, Note_off_c, 14, 61, 64
15, 16065, Note_on_c, 14, 65, 60
15, 16132, Note_off_c, 14, 65, 64
15, 16309, Note_on_c, 14, 66, 61
15, 16504, Note_off_c, 14, 66, 64
15, 16557, Note_on_c, 14, 65, 46
15, 16645, Note_off_c, 14, 65, 64
15, 16673, Note_on_c, 14, 63, 56
15, 16762, Note_off_c, 14, 63, 64
15, 16794, Note_on_c, 14, 61, 61
15, 16879, Note_off_c, 14, 61, 64
15, 16910, Note_on_c, 14, 59, 61
15, 17016, Note_off_c, 14, 59, 64
15, 17033, Note_on_c, 14, 58, 61
15, 17110, Note_off_c, 14, 58, 64
15, 17148, Note_on_c, 14, 56, 61
15, 17231, Note_off_c, 14, 56, 64
15, 17271, Note_on_c, 14, 58, 61
15, 17432, Note_off_c, 14, 58, 64
15, 17512, Note_on_c, 14, 56, 61
15, 17612, Note_off_c, 14, 56, 64
15, 17631, Note_on_c, 14, 54, 61
15, 17721, Note_off_c, 14, 54, 64
15, 17757, Note_on_c, 14, 61, 61
15, 17829, Note_off_c, 14, 61, 64
15, 17996, Note_on_c, 14, 49, 61
15, 18081, Note_off_c, 14, 49, 64
15, 18243, Note_on_c, 14, 54, 61
15, 18441, Note_off_c, 14, 54, 64
15, 18478, Note_on_c, 14, 61, 94
15, 18564, Note_off_c, 14, 61, 64
15, 18728, Note_on_c, 14, 66, 94
15, 18976, Note_off_c, 14, 66, 64
15, 21360, Note_on_c, 14, 58, 125
15, 21472, Note_off_c, 14, 58, 64
15, 21474, Note_on_c, 14, 59, 96
15, 21587, Note_off_c, 14, 59, 64
15, 21593, Note_on_c, 14, 61, 101
15, 21696, Note_off_c, 14, 61, 64
15, 21839, Note_on_c, 14, 63, 101
15, 21908, Note_off_c, 14, 63, 64
15, 22077, Note_on_c, 14, 56, 96
15, 22280, Note_off_c, 14, 56, 64
15, 24717, Note_on_c, 14, 68, 107
15, 24799, Note_off_c, 14, 68, 64
15, 24961, Note_on_c, 14, 68, 112
15, 25133, Note_off_c, 14, 68, 64
15, 25211, Note_on_c, 14, 66, 106
15, 25304, Note_off_c, 14, 66, 64
15, 25316, Note_on_c, 14, 65, 88
15, 25384, Note_off_c, 14, 65, 64
15, 25441, Note_on_c, 14, 66, 123
15, 25626, Note_off_c, 14, 66, 64
15, 25678, Note_on_c, 14, 65, 94
15, 25771, Note_off_c, 14, 65, 64
15, 25786, Note_on_c, 14, 63, 101
15, 25877, Note_off_c, 14, 63, 64
15, 25911, Note_on_c, 14, 61, 101
15, 26087, Note_off_c, 14, 61, 64
15, 26158, Note_on_c, 14, 73, 101
15, 26261, Note_off_c, 14, 73, 64
15, 26392, Note_on_c, 14, 73, 106
15, 26541, Note_off_c, 14, 73, 64
15, 26639, Note_on_c, 14, 61, 101
15, 26722, Note_off_c, 14, 61, 64
15, 26878, Note_on_c, 14, 61, 114
15, 27026, Note_off_c, 14, 61, 64
15, 27120, Note_on_c, 14, 73, 101
15, 27191, Note_off_c, 14, 73, 64
15, 27356, Note_on_c, 14, 73, 101
15, 27494, Note_off_c, 14, 73, 64
15, 27599, Note_on_c, 14, 61, 101
15, 27689, Note_off_c, 14, 61, 64
15, 27836, Note_on_c, 14, 61, 127
15, 27986, Note_off_c, 14, 61, 64
15, 28078, Note_on_c, 14, 73, 101
15, 28178, Note_off_c, 14, 73, 64
15, 28313, Note_on_c, 14, 73, 101
15, 28404, Note_off_c, 14, 73, 64
15, 28556, Note_on_c, 14, 61, 101
15, 28642, Note_off_c, 14, 61, 64
15, 28799, Note_on_c, 14, 61, 102
15, 28963, Note_off_c, 14, 61, 64
15, 29035, Note_on_c, 14, 73, 101
15, 29200, Note_off_c, 14, 73, 64
15, 29278, Note_on_c, 14, 72, 92
15, 29407, Note_off_c, 14, 72, 64
15, 29517, Note_on_c, 14, 70, 101
15, 29616, Note_off_c, 14, 70, 64
15, 29758, Note_on_c, 14, 68, 112
15, 29931, Note_off_c, 14, 68, 64
15, 29996, Note_on_c, 14, 61, 102
15, 30082, Note_off_c, 14, 61, 64
15, 30233, Note_on_c, 14, 60, 93
15, 30324, Note_off_c, 14, 60, 64
15, 30479, Note_on_c, 14, 63, 101
15, 30573, Note_off_c, 14, 63, 64
15, 30726, Note_on_c, 14, 61, 101
15, 30909, Note_off_c, 14, 61, 64
15, 30971, Note_on_c, 14, 63, 106
15, 31066, Note_off_c, 14, 63, 64
15, 31077, Note_on_c, 14, 65, 92
15, 31182, Note_off_c, 14, 65, 64
15, 31194, Note_on_c, 14, 63, 101
15, 31333, Note_off_c, 14, 63, 64
15, 31438, Note_on_c, 14, 68, 123
15, 31533, Note_off_c, 14, 68, 64
15, 31688, Note_on_c, 14, 65, 88
15, 31992, Note_off_c, 14, 65, 64
15, 34806, Note_on_c, 14, 61, 127
15, 34949, Note_off_c, 14, 61, 64
15, 35041, Note_on_c, 14, 66, 127
15, 35141, Note_off_c, 14, 66, 64
15, 35153, Note_on_c, 14, 70, 123
15, 35240, Note_off_c, 14, 70, 64
15, 35267, Note_on_c, 14, 68, 121
15, 35380, Note_off_c, 14, 68, 64
15, 35386, Note_on_c, 14, 66, 101
15, 35501, Note_off_c, 14, 66, 64
15, 35517, Note_on_c, 14, 65, 102
15, 35704, Note_off_c, 14, 65, 64
15, 38162, Note_on_c, 14, 73, 127
15, 38273, Note_off_c, 14, 73, 64
15, 38273, Note_on_c, 14, 72, 118
15, 38391, Note_off_c, 14, 72, 64
15, 38394, Note_on_c, 14, 73, 102
15, 38551, Note_off_c, 14, 73, 64
15, 38641, Note_on_c, 14, 68, 127
15, 38748, Note_on_c, 14, 66, 101
15, 38750, Note_off_c, 14, 68, 64
15, 38861, Note_off_c, 14, 66, 64
15, 38867, Note_on_c, 14, 68, 91
15, 38997, Note_off_c, 14, 68, 64
15, 39118, Note_on_c, 14, 73, 127
15, 39231, Note_on_c, 14, 72, 109
15, 39237, Note_off_c, 14, 73, 64
15, 39351, Note_on_c, 14, 73, 101
15, 39361, Note_off_c, 14, 72, 64
15, 39477, Note_off_c, 14, 73, 64
15, 39605, Note_on_c, 14, 65, 127
15, 39705, Note_off_c, 14, 65, 64
15, 39717, Note_on_c, 14, 63, 101
15, 39835, Note_off_c, 14, 63, 64
15, 39837, Note_on_c, 14, 65, 81
15, 39943, Note_off_c, 14, 65, 64
15, 40083, Note_on_c, 14, 73, 127
15, 40189, Note_off_c, 14, 73, 64
15, 40192, Note_on_c, 14, 72, 108
15, 40315, Note_on_c, 14, 73, 93
15, 40320, Note_off_c, 14, 72, 64
15, 40454, Note_off_c, 14, 73, 64
15, 40556, Note_on_c, 14, 61, 127
15, 40663, Note_off_c, 14, 61, 64
15, 40669, Note_on_c, 14, 63, 114
15, 40779, Note_off_c, 14, 63, 64
15, 40788, Note_on_c, 14, 65, 113
15, 40919, Note_off_c, 14, 65, 64
15, 41034, Note_on_c, 14, 67, 110
15, 41142, Note_off_c, 14, 67, 64
15, 41276, Note_on_c, 14, 68, 86
15, 41438, Note_off_c, 14, 68, 64
15, 48960, Note_on_c, 14, 61, 101
15, 49136, Note_off_c, 14, 61, 64
15, 49677, Note_on_c, 14, 61, 101
15, 49793, Note_on_c, 14, 60, 85
15, 49802, Note_off_c, 14, 61, 64
15, 49922, Note_on_c, 14, 61, 101
15, 49925, Note_off_c, 14, 60, 64
15, 50061, Note_off_c, 14, 61, 64
15, 50639, Note_on_c, 14, 61, 102
15, 50752, Note_on_c, 14, 60, 88
15, 50763, Note_off_c, 14, 61, 64
15, 50881, Note_on_c, 14, 61, 101
15, 50887, Note_off_c, 14, 60, 64
15, 51030, Note_off_c, 14, 61, 64
15, 54481, Note_on_c, 14, 54, 101
15, 54594, Note_on_c, 14, 53, 72
15, 54602, Note_off_c, 14, 54, 64
15, 54714, Note_off_c, 14, 53, 64
15, 54719, Note_on_c, 14, 54, 71
15, 54827, Note_off_c, 14, 54, 64
15, 55436, Note_on_c, 14, 54, 101
15, 55547, Note_on_c, 14, 53, 79
15, 55551, Note_off_c, 14, 54, 64
15, 55669, Note_on_c, 14, 54, 101
15, 55679, Note_off_c, 14, 53, 64
15, 55786, Note_off_c, 14, 54, 64
15, 56757, Note_on_c, 14, 58, 127
15, 56847, Note_off_c, 14, 58, 64
15, 56871, Note_on_c, 14, 59, 127
15, 56949, Note_off_c, 14, 59, 64
15, 56990, Note_on_c, 14, 61, 121
15, 57066, Note_off_c, 14, 61, 64
15, 57114, Note_on_c, 14, 63, 117
15, 57228, Note_on_c, 14, 61, 101
15, 57231, Note_off_c, 14, 63, 64
15, 57339, Note_off_c, 14, 61, 64
15, 57348, Note_on_c, 14, 63, 101
15, 57427, Note_off_c, 14, 63, 64
15, 57474, Note_on_c, 14, 64, 109
15, 57542, Note_off_c, 14, 64, 64
15, 57596, Note_on_c, 14, 66, 115
15, 57708, Note_off_c, 14, 66, 64
15, 63123, Note_on_c, 14, 59, 101
15, 63214, Note_off_c, 14, 59, 64
15, 63361, Note_on_c, 14, 63, 101
15, 63499, Note_off_c, 14, 63, 64
15, 63597, Note_on_c, 14, 66, 101
15, 63664, Note_off_c, 14, 66, 64
15, 63835, Note_on_c, 14, 63, 101
15, 63904, Note_off_c, 14, 63, 64
15, 64075, Note_on_c, 14, 59, 101
15, 64172, Note_off_c, 14, 59, 64
15, 64321, Note_on_c, 14, 63, 101
15, 64484, Note_off_c, 14, 63, 64
15, 64557, Note_on_c, 14, 66, 101
15, 64624, Note_off_c, 14, 66, 64
15, 64799, Note_on_c, 14, 63, 101
15, 64883, Note_off_c, 14, 63, 64
15, 65039, Note_on_c, 14, 59, 101
15, 65126, Note_off_c, 14, 59, 64
15, 65282, Note_on_c, 14, 66, 101
15, 65406, Note_off_c, 14, 66, 64
15, 65525, Note_on_c, 14, 66, 110
15, 65583, Note_off_c, 14, 66, 64
15, 65635, Note_on_c, 14, 66, 109
15, 65695, Note_off_c, 14, 66, 64
15, 65746, Note_on_c, 14, 66, 110
15, 65940, Note_off_c, 14, 66, 64
15, 78480, Note_on_c, 14, 66, 125
15, 78592, Note_on_c, 14, 65, 90
15, 78598, Note_off_c, 14, 66, 64
15, 78707, Note_off_c, 14, 65, 64
15, 78711, Note_on_c, 14, 66, 97
15, 78850, Note_off_c, 14, 66, 64
15, 78963, Note_on_c, 14, 54, 107
15, 79063, Note_off_c, 14, 54, 64
15, 79074, Note_on_c, 14, 56, 95
15, 79192, Note_on_c, 14, 58, 90
15, 79196, Note_off_c, 14, 56, 64
15, 79321, Note_off_c, 14, 58, 64
15, 79439, Note_on_c, 14, 60, 90
15, 79536, Note_off_c, 14, 60, 64
15, 79676, Note_on_c, 14, 61, 89
15, 79788, Note_off_c, 14, 61, 64
15, 83526, Note_on_c, 14, 66, 115
15, 83689, Note_off_c, 14, 66, 64
15, 83775, Note_on_c, 14, 54, 102
15, 83851, Note_off_c, 14, 54, 64
15, 84003, Note_on_c, 14, 54, 100
15, 84091, Note_off_c, 14, 54, 64
15, 84241, Note_on_c, 14, 66, 108
15, 84326, Note_off_c, 14, 66, 64
15, 84480, Note_on_c, 14, 66, 115
15, 84609, Note_off_c, 14, 66, 64
15, 84727, Note_on_c, 14, 54, 101
15, 84813, Note_off_c, 14, 54, 64
15, 84959, Note_on_c, 14, 54, 115
15, 85075, Note_off_c, 14, 54, 64
15, 85204, Note_on_c, 14, 66, 95
15, 85276, Note_off_c, 14, 66, 64
15, 85438, Note_on_c, 14, 66, 115
15, 85591, Note_off_c, 14, 66, 64
15, 85677, Note_on_c, 14, 54, 89
15, 85756, Note_off_c, 14, 54, 64
15, 85917, Note_on_c, 14, 54, 101
15, 86019, Note_off_c, 14, 54, 64
15, 86153, Note_on_c, 14, 66, 98
15, 86239, Note_off_c, 14, 66, 64
15, 86400, Note_on_c, 14, 61, 113
15, 86543, Note_off_c, 14, 61, 64
15, 86632, Note_on_c, 14, 63, 89
15, 86745, Note_off_c, 14, 63, 64
15, 86869, Note_on_c, 14, 65, 76
15, 87009, Note_off_c, 14, 65, 64
15, 87120, Note_on_c, 14, 61, 109
15, 87232, Note_off_c, 14, 61, 64
15, 87234, Note_on_c, 14, 63, 101
15, 87351, Note_off_c, 14, 63, 64
15, 87358, Note_on_c, 14, 65, 93
15, 87523, Note_off_c, 14, 65, 64
15, 87594, Note_on_c, 14, 66, 102
15, 87699, Note_off_c, 14, 66, 64
15, 87833, Note_on_c, 14, 68, 109
15, 87962, Note_off_c, 14, 68, 64
15, 89285, Note_on_c, 14, 66, 127
15, 89516, Note_off_c, 14, 66, 64
15, 89535, Note_on_c, 14, 65, 114
15, 89650, Note_off_c, 14, 65, 64
15, 89651, Note_on_c, 14, 63, 102
15, 89738, Note_off_c, 14, 63, 64
15, 89769, Note_on_c, 14, 61, 123
15, 89866, Note_off_c, 14, 61, 64
15, 89886, Note_on_c, 14, 59, 102
15, 89963, Note_off_c, 14, 59, 64
15, 90003, Note_on_c, 14, 58, 114
15, 90090, Note_off_c, 14, 58, 64
15, 90115, Note_on_c, 14, 56, 107
15, 90189, Note_off_c, 14, 56, 64
15, 90234, Note_on_c, 14, 58, 106
15, 90418, Note_off_c, 14, 58, 64
15, 90481, Note_on_c, 14, 56, 101
15, 90584, Note_off_c, 14, 56, 64
15, 90593, Note_on_c, 14, 54, 101
15, 90700, Note_off_c, 14, 54, 64
15, 90712, Note_on_c, 14, 61, 110
15, 90814, Note_off_c, 14, 61, 64
15, 90957, Note_on_c, 14, 49, 101
15, 91029, Note_off_c, 14, 49, 64
15, 91200, Note_on_c, 14, 66, 127
15, 91420, Note_off_c, 14, 66, 64
15, 91451, Note_on_c, 14, 65, 124
15, 91544, Note_off_c, 14, 65, 64
15, 91560, Note_on_c, 14, 63, 101
15, 91652, Note_off_c, 14, 63, 64
15, 91672, Note_on_c, 14, 61, 109
15, 91785, Note_off_c, 14, 61, 64
15, 91791, Note_on_c, 14, 59, 101
15, 91873, Note_off_c, 14, 59, 64
15, 91905, Note_on_c, 14, 58, 101
15, 91993, Note_off_c, 14, 58, 64
15, 92024, Note_on_c, 14, 56, 85
15, 92105, Note_off_c, 14, 56, 64
15, 92152, Note_on_c, 14, 54, 73
15, 92286, Note_off_c, 14, 54, 64
15, 92399, Note_on_c, 14, 54, 70
15, 92509, Note_off_c, 14, 54, 64
15, 92636, Note_on_c, 14, 54, 50
15, 92738, Note_off_c, 14, 54, 64
15, 92878, Note_on_c, 14, 54, 52
15, 92973, Note_off_c, 14, 54, 64
15, 93116, Note_on_c, 14, 54, 68
15, 93243, Note_off_c, 14, 54, 64
15, 93356, Note_on_c, 14, 54, 57
15, 93465, Note_off_c, 14, 54, 64
15, 93597, Note_on_c, 14, 54, 59
15, 93685, Note_off_c, 14, 54, 64
15, 93837, Note_on_c, 14, 54, 48
15, 93933, Note_off_c, 14, 54, 64
15, 94075, Note_on_c, 14, 54, 68
15, 94246, Note_off_c, 14, 54, 64
15, 94320, Note_on_c, 14, 54, 60
15, 94411, Note_off_c, 14, 54, 64
15, 94561, Note_on_c, 14, 54, 52
15, 94644, Note_off_c, 14, 54, 64
15, 94797, Note_on_c, 14, 54, 40
15, 94885, Note_off_c, 14, 54, 64
15, 95040, Note_on_c, 14, 54, 68
15, 95179, Note_off_c, 14, 54, 64
15, 95276, Note_on_c, 14, 54, 64
15, 95368, Note_off_c, 14, 54, 64
15, 95516, Note_on_c, 14, 54, 68
15, 95607, Note_off_c, 14, 54, 64
15, 95753, Note_on_c, 14, 54, 67
15, 95837, Note_off_c, 14, 54, 64
15, 95998, Note_on_c, 14, 54, 68
15, 96147, Note_off_c, 14, 54, 64
15, 96239, Note_on_c, 14, 54, 68
15, 96334, Note_off_c, 14, 54, 64
15, 96473, Note_on_c, 14, 54, 68
15, 96563, Note_off_c, 14, 54, 64
15, 96706, Note_on_c, 14, 54, 57
15, 96806, Note_off_c, 14, 54, 64
15, 96953, Note_on_c, 14, 54, 68
15, 97088, Note_off_c, 14, 54, 64
15, 97192, Note_on_c, 14, 54, 68
15, 97287, Note_off_c, 14, 54, 64
15, 97427, Note_on_c, 14, 54, 68
15, 97518, Note_off_c, 14, 54, 64
15, 97665, Note_on_c, 14, 54, 68
15, 97767, Note_off_c, 14, 54, 64
15, 97909, Note_on_c, 14, 54, 68
15, 98079, Note_off_c, 14, 54, 64
15, 98152, Note_on_c, 14, 54, 68
15, 98313, Note_off_c, 14, 54, 64
15, 98393, Note_on_c, 14, 54, 68
15, 98573, Note_off_c, 14, 54, 64
15, 98633, Note_on_c, 14, 56, 68
15, 98742, Note_off_c, 14, 56, 64
15, 98878, Note_on_c, 14, 56, 117
15, 98977, Note_off_c, 14, 56, 64
15, 98997, Note_on_c, 14, 73, 127
15, 99099, Note_off_c, 14, 73, 64
15, 99114, Note_on_c, 14, 72, 127
15, 99210, Note_off_c, 14, 72, 64
15, 99226, Note_on_c, 14, 70, 92
15, 99332, Note_off_c, 14, 70, 64
15, 99353, Note_on_c, 14, 68, 123
15, 99458, Note_off_c, 14, 68, 64
15, 99471, Note_on_c, 14, 66, 110
15, 99557, Note_off_c, 14, 66, 64
15, 99592, Note_on_c, 14, 65, 106
15, 99670, Note_off_c, 14, 65, 64
15, 99711, Note_on_c, 14, 63, 87
15, 99799, Note_off_c, 14, 63, 64
15, 99838, Note_on_c, 14, 62, 71
15, 99960, Note_off_c, 14, 62, 64
15, 100072, Note_on_c, 14, 62, 63
15, 100182, Note_off_c, 14, 62, 64
15, 100318, Note_on_c, 14, 62, 62
15, 100432, Note_off_c, 14, 62, 64
15, 100556, Note_on_c, 14, 62, 63
15, 100677, Note_off_c, 14, 62, 64
15, 100797, Note_on_c, 14, 65, 81
15, 100917, Note_off_c, 14, 65, 64
15, 101032, Note_on_c, 14, 65, 49
15, 101116, Note_off_c, 14, 65, 64
15, 101272, Note_on_c, 14, 65, 78
15, 101368, Note_off_c, 14, 65, 64
15, 101512, Note_on_c, 14, 65, 73
15, 101613, Note_off_c, 14, 65, 64
15, 101755, Note_on_c, 14, 68, 101
15, 101893, Note_off_c, 14, 68, 64
15, 101999, Note_on_c, 14, 68, 88
15, 102099, Note_off_c, 14, 68, 64
15, 102239, Note_on_c, 14, 68, 86
15, 102324, Note_off_c, 14, 68, 64
15, 102479, Note_on_c, 14, 68, 96
15, 102581, Note_off_c, 14, 68, 64
15, 102722, Note_on_c, 14, 68, 93
15, 102821, Note_off_c, 14, 68, 64
15, 102955, Note_on_c, 14, 68, 101
15, 103052, Note_off_c, 14, 68, 64
15, 103194, Note_on_c, 14, 68, 101
15, 103287, Note_off_c, 14, 68, 64
15, 103435, Note_on_c, 14, 68, 101
15, 103535, Note_off_c, 14, 68, 64
15, 103679, Note_on_c, 14, 62, 88
15, 103808, Note_off_c, 14, 62, 64
15, 103915, Note_on_c, 14, 62, 76
15, 104001, Note_off_c, 14, 62, 64
15, 104153, Note_on_c, 14, 62, 78
15, 104234, Note_off_c, 14, 62, 64
15, 104390, Note_on_c, 14, 62, 78
15, 104474, Note_off_c, 14, 62, 64
15, 104632, Note_on_c, 14, 58, 82
15, 104764, Note_off_c, 14, 58, 64
15, 104877, Note_on_c, 14, 58, 74
15, 104980, Note_off_c, 14, 58, 64
15, 105117, Note_on_c, 14, 58, 82
15, 105201, Note_off_c, 14, 58, 64
15, 105352, Note_on_c, 14, 58, 106
15, 105443, Note_off_c, 14, 58, 64
15, 105589, Note_on_c, 14, 58, 92
15, 105796, Note_off_c, 14, 58, 64
15, 107764, Note_on_c, 14, 51, 106
15, 107852, Note_off_c, 14, 51, 64
15, 107877, Note_on_c, 14, 53, 88
15, 107971, Note_off_c, 14, 53, 64
15, 107994, Note_on_c, 14, 54, 71
15, 108111, Note_off_c, 14, 54, 64
15, 108234, Note_on_c, 14, 56, 83
15, 108322, Note_off_c, 14, 56, 64
15, 108475, Note_on_c, 14, 58, 78
15, 108670, Note_off_c, 14, 58, 64
15, 110644, Note_on_c, 14, 62, 127
15, 110760, Note_off_c, 14, 62, 64
15, 110763, Note_on_c, 14, 60, 118
15, 110877, Note_on_c, 14, 62, 116
15, 110885, Note_off_c, 14, 60, 64
15, 110981, Note_off_c, 14, 62, 64
15, 111119, Note_on_c, 14, 70, 99
15, 111236, Note_off_c, 14, 70, 64
15, 111360, Note_on_c, 14, 66, 127
15, 111551, Note_off_c, 14, 66, 64
15, 111605, Note_on_c, 14, 65, 124
15, 111701, Note_off_c, 14, 65, 64
15, 111713, Note_on_c, 14, 63, 110
15, 111817, Note_off_c, 14, 63, 64
15, 111834, Note_on_c, 14, 65, 124
15, 112016, Note_off_c, 14, 65, 64
15, 112079, Note_on_c, 14, 63, 112
15, 112188, Note_off_c, 14, 63, 64
15, 112188, Note_on_c, 14, 62, 118
15, 112283, Note_off_c, 14, 62, 64
15, 112318, Note_on_c, 14, 71, 127
15, 112632, Note_off_c, 14, 71, 64
15, 112682, Note_on_c, 14, 70, 115
15, 112765, Note_off_c, 14, 70, 64
15, 112796, Note_on_c, 14, 68, 116
15, 112883, Note_off_c, 14, 68, 64
15, 112910, Note_on_c, 14, 66, 109
15, 112985, Note_off_c, 14, 66, 64
15, 113027, Note_on_c, 14, 65, 116
15, 113104, Note_off_c, 14, 65, 64
15, 113141, Note_on_c, 14, 63, 109
15, 113217, Note_off_c, 14, 63, 64
15, 113270, Note_on_c, 14, 65, 104
15, 113425, Note_off_c, 14, 65, 64
15, 113511, Note_on_c, 14, 70, 110
15, 113634, Note_off_c, 14, 70, 64
15, 113751, Note_on_c, 14, 68, 105
15, 113965, Note_off_c, 14, 68, 64
15, 113998, Note_on_c, 14, 66, 105
15, 114113, Note_off_c, 14, 66, 64
15, 114114, Note_on_c, 14, 65, 79
15, 114224, Note_off_c, 14, 65, 64
15, 126843, Note_on_c, 14, 61, 127
15, 126925, Note_off_c, 14, 61, 64
15, 126958, Note_on_c, 14, 54, 121
15, 127073, Note_on_c, 14, 56, 109
15, 127074, Note_off_c, 14, 54, 64
15, 127165, Note_off_c, 14, 56, 64
15, 127193, Note_on_c, 14, 58, 110
15, 127310, Note_on_c, 14, 59, 101
15, 127315, Note_off_c, 14, 58, 64
15, 127401, Note_off_c, 14, 59, 64
15, 127427, Note_on_c, 14, 61, 102
15, 127513, Note_off_c, 14, 61, 64
15, 127540, Note_on_c, 14, 59, 101
15, 127627, Note_off_c, 14, 59, 64
15, 127669, Note_on_c, 14, 58, 117
15, 127824, Note_off_c, 14, 58, 64
15, 130199, Note_on_c, 14, 68, 127
15, 130279, Note_off_c, 14, 68, 64
15, 130317, Note_on_c, 14, 66, 127
15, 130388, Note_off_c, 14, 66, 64
15, 130437, Note_on_c, 14, 65, 101
15, 130496, Note_off_c, 14, 65, 64
15, 130565, Note_on_c, 14, 63, 101
15, 130674, Note_off_c, 14, 63, 64
15, 130796, Note_on_c, 14, 63, 70
15, 130912, Note_off_c, 14, 63, 64
15, 131038, Note_on_c, 14, 63, 64
15, 131149, Note_off_c, 14, 63, 64
15, 131278, Note_on_c, 14, 63, 49
15, 131399, Note_off_c, 14, 63, 64
15, 131522, Note_on_c, 14, 63, 49
15, 131652, Note_off_c, 14, 63, 64
15, 131758, Note_on_c, 14, 63, 47
15, 131869, Note_off_c, 14, 63, 64
15, 131998, Note_on_c, 14, 63, 47
15, 132108, Note_off_c, 14, 63, 64
15, 132241, Note_on_c, 14, 63, 57
15, 132337, Note_off_c, 14, 63, 64
15, 132478, Note_on_c, 14, 63, 43
15, 132598, Note_off_c, 14, 63, 64
15, 132717, Note_on_c, 14, 63, 50
15, 132829, Note_off_c, 14, 63, 64
15, 132950, Note_on_c, 14, 63, 46
15, 133065, Note_off_c, 14, 63, 64
15, 133186, Note_on_c, 14, 63, 39
15, 133306, Note_off_c, 14, 63, 64
15, 133432, Note_on_c, 14, 63, 52
15, 133559, Note_off_c, 14, 63, 64
15, 133669, Note_on_c, 14, 63, 56
15, 133790, Note_off_c, 14, 63, 64
15, 133909, Note_on_c, 14, 63, 50
15, 134003, Note_off_c, 14, 63, 64
15, 134148, Note_on_c, 14, 63, 47
15, 134245, Note_off_c, 14, 63, 64
15, 134389, Note_on_c, 14, 57, 54
15, 134489, Note_off_c, 14, 57, 64
15, 134636, Note_on_c, 14, 57, 59
15, 134738, Note_off_c, 14, 57, 64
15, 134875, Note_on_c, 14, 57, 64
15, 134976, Note_off_c, 14, 57, 64
15, 135116, Note_on_c, 14, 57, 83
15, 135206, Note_off_c, 14, 57, 64
15, 135356, Note_on_c, 14, 53, 82
15, 135460, Note_off_c, 14, 53, 64
15, 135592, Note_on_c, 14, 53, 87
15, 135702, Note_off_c, 14, 53, 64
15, 135830, Note_on_c, 14, 53, 88
15, 135939, Note_off_c, 14, 53, 64
15, 136071, Note_on_c, 14, 53, 106
15, 136165, Note_off_c, 14, 53, 64
15, 136318, Note_on_c, 14, 58, 106
15, 136473, Note_off_c, 14, 58, 64
15, 138484, Note_on_c, 14, 73, 127
15, 138585, Note_off_c, 14, 73, 64
15, 138594, Note_on_c, 14, 72, 88
15, 138681, Note_off_c, 14, 72, 64
15, 138713, Note_on_c, 14, 70, 102
15, 138921, Note_off_c, 14, 70, 64
15, 138949, Note_on_c, 14, 68, 101
15, 139059, Note_on_c, 14, 66, 101
15, 139062, Note_off_c, 14, 68, 64
15, 139159, Note_off_c, 14, 66, 64
15, 139184, Note_on_c, 14, 65, 112
15, 139400, Note_off_c, 14, 65, 64
15, 139440, Note_on_c, 14, 63, 106
15, 139539, Note_off_c, 14, 63, 64
15, 139554, Note_on_c, 14, 61, 101
15, 139661, Note_off_c, 14, 61, 64
15, 139674, Note_on_c, 14, 60, 100
15, 139788, Note_off_c, 14, 60, 64
15, 139922, Note_on_c, 14, 69, 127
15, 140015, Note_off_c, 14, 69, 64
15, 140160, Note_on_c, 14, 70, 94
15, 140238, Note_off_c, 14, 70, 64
15, 140406, Note_on_c, 14, 58, 91
15, 140482, Note_off_c, 14, 58, 64
15, 140647, Note_on_c, 14, 58, 101
15, 140740, Note_off_c, 14, 58, 64
15, 140880, Note_on_c, 14, 70, 117
15, 140949, Note_off_c, 14, 70, 64
15, 141120, Note_on_c, 14, 70, 109
15, 141239, Note_off_c, 14, 70, 64
15, 141364, Note_on_c, 14, 58, 101
15, 141445, Note_off_c, 14, 58, 64
15, 141598, Note_on_c, 14, 58, 101
15, 141697, Note_off_c, 14, 58, 64
15, 141838, Note_on_c, 14, 70, 101
15, 141922, Note_off_c, 14, 70, 64
15, 142076, Note_on_c, 14, 65, 118
15, 142281, Note_off_c, 14, 65, 64
15, 142324, Note_on_c, 14, 63, 116
15, 142414, Note_off_c, 14, 63, 64
15, 142434, Note_on_c, 14, 61, 107
15, 142525, Note_off_c, 14, 61, 64
15, 142553, Note_on_c, 14, 63, 109
15, 142747, Note_off_c, 14, 63, 64
15, 142803, Note_on_c, 14, 61, 106
15, 142897, Note_off_c, 14, 61, 64
15, 142916, Note_on_c, 14, 60, 96
15, 142998, Note_off_c, 14, 60, 64
15, 143045, Note_on_c, 14, 66, 107
15, 143369, Note_off_c, 14, 66, 64
15, 143400, Note_on_c, 14, 65, 94
15, 143464, Note_off_c, 14, 65, 64
15, 143517, Note_on_c, 14, 63, 101
15, 143615, Note_off_c, 14, 63, 64
15, 143636, Note_on_c, 14, 61, 101
15, 143714, Note_off_c, 14, 61, 64
15, 143751, Note_on_c, 14, 60, 88
15, 143810, Note_off_c, 14, 60, 64
15, 143866, Note_on_c, 14, 58, 101
15, 143945, Note_off_c, 14, 58, 64
15, 150715, Note_on_c, 14, 61, 82
15, 150965, Note_off_c, 14, 61, 64
15, 151665, Note_on_c, 14, 54, 46
15, 151788, Note_off_c, 14, 54, 64
15, 151916, Note_on_c, 14, 53, 42
15, 152023, Note_off_c, 14, 53, 64
15, 152154, Note_on_c, 14, 54, 53
15, 152247, Note_off_c, 14, 54, 64
15, 152392, Note_on_c, 14, 56, 50
15, 152477, Note_off_c, 14, 56, 64
15, 152633, Note_on_c, 14, 58, 54
15, 152750, Note_off_c, 14, 58, 64
15, 152865, Note_on_c, 14, 59, 45
15, 152961, Note_off_c, 14, 59, 64
15, 153114, Note_on_c, 14, 58, 59
15, 153196, Note_off_c, 14, 58, 64
15, 153351, Note_on_c, 14, 56, 59
15, 153446, Note_off_c, 14, 56, 64
15, 153591, Note_on_c, 14, 54, 55
15, 153751, Note_off_c, 14, 54, 64
15, 153834, Note_on_c, 14, 53, 38
15, 153917, Note_off_c, 14, 53, 64
15, 154074, Note_on_c, 14, 51, 59
15, 154176, Note_off_c, 14, 51, 64
15, 154316, Note_on_c, 14, 56, 59
15, 154395, Note_off_c, 14, 56, 64
15, 154558, Note_on_c, 14, 61, 50
15, 154696, Note_off_c, 14, 61, 64
15, 154803, Note_on_c, 14, 49, 59
15, 154902, Note_off_c, 14, 49, 64
15, 155037, Note_on_c, 14, 53, 48
15, 155114, Note_off_c, 14, 53, 64
15, 155277, Note_on_c, 14, 56, 59
15, 155344, Note_off_c, 14, 56, 64
15, 155517, Note_on_c, 14, 61, 44
15, 155694, Note_off_c, 14, 61, 64
15, 166800, Note_on_c, 14, 66, 127
15, 166920, Note_on_c, 14, 65, 88
15, 166925, Note_off_c, 14, 66, 64
15, 167041, Note_off_c, 14, 65, 64
15, 167042, Note_on_c, 14, 66, 101
15, 167195, Note_off_c, 14, 66, 64
15, 167284, Note_on_c, 14, 61, 106
15, 167382, Note_off_c, 14, 61, 64
15, 167397, Note_on_c, 14, 59, 101
15, 167511, Note_off_c, 14, 59, 64
15, 167514, Note_on_c, 14, 61, 101
15, 167651, Note_off_c, 14, 61, 64
15, 167760, Note_on_c, 14, 66, 127
15, 167864, Note_off_c, 14, 66, 64
15, 167872, Note_on_c, 14, 65, 114
15, 167979, Note_off_c, 14, 65, 64
15, 167993, Note_on_c, 14, 66, 127
15, 168147, Note_off_c, 14, 66, 64
15, 168240, Note_on_c, 14, 58, 101
15, 168334, Note_off_c, 14, 58, 64
15, 168352, Note_on_c, 14, 56, 88
15, 168465, Note_off_c, 14, 56, 64
15, 168469, Note_on_c, 14, 58, 80
15, 168592, Note_off_c, 14, 58, 64
15, 168713, Note_on_c, 14, 66, 127
15, 168822, Note_off_c, 14, 66, 64
15, 168827, Note_on_c, 14, 65, 112
15, 168933, Note_off_c, 14, 65, 64
15, 168947, Note_on_c, 14, 66, 114
15, 169117, Note_off_c, 14, 66, 64
15, 169193, Note_on_c, 14, 54, 101
15, 169297, Note_off_c, 14, 54, 64
15, 169307, Note_on_c, 14, 56, 112
15, 169414, Note_off_c, 14, 56, 64
15, 169423, Note_on_c, 14, 58, 107
15, 169574, Note_off_c, 14, 58, 64
15, 169664, Note_on_c, 14, 60, 92
15, 169792, Note_off_c, 14, 60, 64
15, 176638, Note_on_c, 14, 61, 70
15, 176747, Note_off_c, 14, 61, 64
15, 176875, Note_on_c, 14, 61, 57
15, 176980, Note_off_c, 14, 61, 64
15, 177111, Note_on_c, 14, 61, 67
15, 177215, Note_off_c, 14, 61, 64
15, 177346, Note_on_c, 14, 61, 65
15, 177462, Note_off_c, 14, 61, 64
15, 177591, Note_on_c, 14, 61, 71
15, 177693, Note_off_c, 14, 61, 64
15, 177834, Note_on_c, 14, 61, 79
15, 177930, Note_off_c, 14, 61, 64
15, 178074, Note_on_c, 14, 61, 70
15, 178166, Note_off_c, 14, 61, 64
15, 178315, Note_on_c, 14, 61, 72
15, 178415, Note_off_c, 14, 61, 64
15, 178558, Note_on_c, 14, 62, 60
15, 178655, Note_off_c, 14, 62, 64
15, 178800, Note_on_c, 14, 62, 56
15, 178889, Note_off_c, 14, 62, 64
15, 179035, Note_on_c, 14, 62, 61
15, 179127, Note_off_c, 14, 62, 64
15, 179274, Note_on_c, 14, 62, 62
15, 179374, Note_off_c, 14, 62, 64
15, 179515, Note_on_c, 14, 62, 57
15, 179609, Note_off_c, 14, 62, 64
15, 179753, Note_on_c, 14, 62, 54
15, 179841, Note_off_c, 14, 62, 64
15, 179987, Note_on_c, 14, 62, 57
15, 180062, Note_off_c, 14, 62, 64
15, 180230, Note_on_c, 14, 62, 58
15, 180315, Note_off_c, 14, 62, 64
15, 180473, Note_on_c, 14, 63, 71
15, 180572, Note_off_c, 14, 63, 64
15, 180714, Note_on_c, 14, 63, 75
15, 180788, Note_off_c, 14, 63, 64
15, 180951, Note_on_c, 14, 63, 71
15, 181031, Note_off_c, 14, 63, 64
15, 181193, Note_on_c, 14, 63, 75
15, 181269, Note_off_c, 14, 63, 64
15, 181432, Note_on_c, 14, 63, 70
15, 181502, Note_off_c, 14, 63, 64
15, 181671, Note_on_c, 14, 63, 79
15, 181739, Note_off_c, 14, 63, 64
15, 181911, Note_on_c, 14, 63, 79
15, 181985, Note_off_c, 14, 63, 64
15, 182153, Note_on_c, 14, 63, 79
15, 182230, Note_off_c, 14, 63, 64
15, 182390, Note_on_c, 14, 62, 62
15, 182479, Note_off_c, 14, 62, 64
15, 182634, Note_on_c, 14, 62, 63
15, 182717, Note_off_c, 14, 62, 64
15, 182873, Note_on_c, 14, 62, 64
15, 182953, Note_off_c, 14, 62, 64
15, 183116, Note_on_c, 14, 62, 62
15, 183199, Note_off_c, 14, 62, 64
15, 183356, Note_on_c, 14, 62, 62
15, 183428, Note_off_c, 14, 62, 64
15, 183595, Note_on_c, 14, 62, 63
15, 183669, Note_off_c, 14, 62, 64
15, 183831, Note_on_c, 14, 62, 63
15, 183901, Note_off_c, 14, 62, 64
15, 184068, Note_on_c, 14, 62, 63
15, 184157, Note_off_c, 14, 62, 64
15, 184310, Note_on_c, 14, 63, 79
15, 184388, Note_off_c, 14, 63, 64
15, 184551, Note_on_c, 14, 63, 79
15, 184624, Note_off_c, 14, 63, 64
15, 184788, Note_on_c, 14, 63, 79
15, 184855, Note_off_c, 14, 63, 64
15, 185031, Note_on_c, 14, 63, 79
15, 185095, Note_off_c, 14, 63, 64
15, 185271, Note_on_c, 14, 63, 79
15, 185343, Note_off_c, 14, 63, 64
15, 185510, Note_on_c, 14, 63, 79
15, 185579, Note_off_c, 14, 63, 64
15, 185751, Note_on_c, 14, 63, 79
15, 185818, Note_off_c, 14, 63, 64
15, 185996, Note_on_c, 14, 63, 79
15, 186066, Note_off_c, 14, 63, 64
15, 186236, Note_on_c, 14, 63, 79
15, 186317, Note_off_c, 14, 63, 64
15, 186476, Note_on_c, 14, 63, 79
15, 186543, Note_off_c, 14, 63, 64
15, 186716, Note_on_c, 14, 63, 79
15, 186801, Note_off_c, 14, 63, 64
15, 186955, Note_on_c, 14, 63, 79
15, 187035, Note_off_c, 14, 63, 64
15, 187194, Note_on_c, 14, 63, 79
15, 187281, Note_off_c, 14, 63, 64
15, 187437, Note_on_c, 14, 63, 79
15, 187507, Note_off_c, 14, 63, 64
15, 187673, Note_on_c, 14, 63, 80
15, 187741, Note_off_c, 14, 63, 64
15, 187917, Note_on_c, 14, 63, 88
15, 187985, Note_off_c, 14, 63, 64
15, 188156, Note_on_c, 14, 63, 109
15, 188291, Note_off_c, 14, 63, 64
15, 201360, Note_on_c, 14, 63, 127
15, 201429, Note_off_c, 14, 63, 64
15, 201588, Note_on_c, 14, 66, 127
15, 201732, Note_off_c, 14, 66, 64
15, 201826, Note_on_c, 14, 70, 127
15, 201892, Note_off_c, 14, 70, 64
15, 202066, Note_on_c, 14, 66, 127
15, 202139, Note_off_c, 14, 66, 64
15, 202307, Note_on_c, 14, 63, 127
15, 202392, Note_off_c, 14, 63, 64
15, 202554, Note_on_c, 14, 66, 127
15, 202719, Note_off_c, 14, 66, 64
15, 202795, Note_on_c, 14, 70, 127
15, 202877, Note_off_c, 14, 70, 64
15, 203033, Note_on_c, 14, 66, 127
15, 203112, Note_off_c, 14, 66, 64
15, 203273, Note_on_c, 14, 63, 127
15, 203353, Note_off_c, 14, 63, 64
15, 203510, Note_on_c, 14, 70, 116
15, 203674, Note_off_c, 14, 70, 64
15, 203765, Note_on_c, 14, 70, 127
15, 203810, Note_off_c, 14, 70, 64
15, 203869, Note_on_c, 14, 70, 116
15, 203925, Note_off_c, 14, 70, 64
15, 203993, Note_on_c, 14, 70, 127
15, 204187, Note_off_c, 14, 70, 64
15, 204715, Note_on_c, 14, 58, 96
15, 204798, Note_off_c, 14, 58, 64
15, 204833, Note_on_c, 14, 56, 94
15, 204892, Note_off_c, 14, 56, 64
15, 204954, Note_on_c, 14, 58, 96
15, 205036, Note_off_c, 14, 58, 64
15, 205071, Note_on_c, 14, 59, 96
15, 205145, Note_off_c, 14, 59, 64
15, 205193, Note_on_c, 14, 58, 96
15, 205259, Note_off_c, 14, 58, 64
15, 205312, Note_on_c, 14, 56, 86
15, 205385, Note_off_c, 14, 56, 64
15, 205439, Note_on_c, 14, 54, 94
15, 205553, Note_on_c, 14, 53, 85
15, 205554, Note_off_c, 14, 54, 64
15, 205647, Note_off_c, 14, 53, 64
15, 205675, Note_on_c, 14, 54, 78
15, 205753, Note_off_c, 14, 54, 64
15, 205795, Note_on_c, 14, 56, 96
15, 205864, Note_off_c, 14, 56, 64
15, 205915, Note_on_c, 14, 54, 94
15, 206011, Note_off_c, 14, 54, 64
15, 206037, Note_on_c, 14, 58, 96
15, 206106, Note_off_c, 14, 58, 64
15, 206155, Note_on_c, 14, 56, 96
15, 206236, Note_off_c, 14, 56, 64
15, 206275, Note_on_c, 14, 59, 96
15, 206348, Note_off_c, 14, 59, 64
15, 206398, Note_on_c, 14, 58, 96
15, 206518, Note_on_c, 14, 56, 85
15, 206524, Note_off_c, 14, 58, 64
15, 206626, Note_off_c, 14, 56, 64
15, 206637, Note_on_c, 14, 58, 85
15, 206713, Note_off_c, 14, 58, 64
15, 206759, Note_on_c, 14, 59, 96
15, 206831, Note_off_c, 14, 59, 64
15, 206879, Note_on_c, 14, 58, 94
15, 206956, Note_off_c, 14, 58, 64
15, 206998, Note_on_c, 14, 61, 96
15, 207067, Note_off_c, 14, 61, 64
15, 207114, Note_on_c, 14, 59, 86
15, 207195, Note_off_c, 14, 59, 64
15, 207234, Note_on_c, 14, 63, 96
15, 207308, Note_off_c, 14, 63, 64
15, 207357, Note_on_c, 14, 61, 94
15, 207467, Note_off_c, 14, 61, 64
15, 207475, Note_on_c, 14, 63, 96
15, 207564, Note_off_c, 14, 63, 64
15, 207595, Note_on_c, 14, 61, 91
15, 207669, Note_off_c, 14, 61, 64
15, 207708, Note_on_c, 14, 59, 94
15, 207790, Note_off_c, 14, 59, 64
15, 207836, Note_on_c, 14, 58, 94
15, 207927, Note_off_c, 14, 58, 64
15, 207956, Note_on_c, 14, 66, 96
15, 208026, Note_off_c, 14, 66, 64
15, 208073, Note_on_c, 14, 65, 94
15, 208157, Note_off_c, 14, 65, 64
15, 208192, Note_on_c, 14, 63, 91
15, 208258, Note_off_c, 14, 63, 64
15, 208315, Note_on_c, 14, 61, 94
15, 208407, Note_off_c, 14, 61, 64
15, 208438, Note_on_c, 14, 73, 96
15, 208513, Note_off_c, 14, 73, 64
15, 208551, Note_on_c, 14, 72, 87
15, 208632, Note_off_c, 14, 72, 64
15, 208671, Note_on_c, 14, 70, 89
15, 208750, Note_off_c, 14, 70, 64
15, 208796, Note_on_c, 14, 68, 96
15, 208893, Note_off_c, 14, 68, 64
15, 208912, Note_on_c, 14, 70, 96
15, 208994, Note_off_c, 14, 70, 64
15, 209035, Note_on_c, 14, 68, 91
15, 209118, Note_off_c, 14, 68, 64
15, 209152, Note_on_c, 14, 66, 94
15, 209211, Note_off_c, 14, 66, 64
15, 209278, Note_on_c, 14, 65, 64
15, 209443, Note_off_c, 14, 65, 64
15, 241680, Note_on_c, 14, 73, 101
15, 241750, Note_off_c, 14, 73, 64
15, 241918, Note_on_c, 14, 74, 98
15, 242235, Note_off_c, 14, 74, 64
15, 242276, Note_on_c, 14, 73, 101
15, 242370, Note_off_c, 14, 73, 64
15, 242392, Note_on_c, 14, 71, 109
15, 242472, Note_off_c, 14, 71, 64
15, 242513, Note_on_c, 14, 69, 116
15, 242588, Note_off_c, 14, 69, 64
15, 242628, Note_on_c, 14, 68, 102
15, 242730, Note_off_c, 14, 68, 64
15, 242743, Note_on_c, 14, 66, 101
15, 242843, Note_off_c, 14, 66, 64
15, 242872, Note_on_c, 14, 68, 101
15, 243018, Note_off_c, 14, 68, 64
15, 243115, Note_on_c, 14, 61, 101
15, 243219, Note_off_c, 14, 61, 64
15, 243353, Note_on_c, 14, 59, 115
15, 243549, Note_off_c, 14, 59, 64
15, 243602, Note_on_c, 14, 58, 102
15, 243701, Note_off_c, 14, 58, 64
15, 243714, Note_on_c, 14, 56, 88
15, 243819, Note_off_c, 14, 56, 64
15, 243845, Note_on_c, 14, 58, 88
15, 243996, Note_off_c, 14, 58, 64
15, 244082, Note_on_c, 14, 61, 96
15, 244170, Note_off_c, 14, 61, 64
15, 244319, Note_on_c, 14, 58, 91
15, 244404, Note_off_c, 14, 58, 64
15, 244560, Note_on_c, 14, 54, 91
15, 244650, Note_off_c, 14, 54, 64
15, 244797, Note_on_c, 14, 58, 89
15, 244958, Note_off_c, 14, 58, 64
15, 245042, Note_on_c, 14, 61, 96
15, 245124, Note_off_c, 14, 61, 64
15, 245277, Note_on_c, 14, 58, 94
15, 245361, Note_off_c, 14, 58, 64
15, 245518, Note_on_c, 14, 54, 92
15, 245608, Note_off_c, 14, 54, 64
15, 245758, Note_on_c, 14, 58, 89
15, 245913, Note_off_c, 14, 58, 64
15, 246000, Note_on_c, 14, 61, 110
15, 246124, Note_off_c, 14, 61, 64
15, 246237, Note_on_c, 14, 66, 110
15, 246325, Note_off_c, 14, 66, 64
15, 246349, Note_on_c, 14, 70, 110
15, 246462, Note_on_c, 14, 68, 92
15, 246467, Note_off_c, 14, 70, 64
15, 246579, Note_off_c, 14, 68, 64
15, 246586, Note_on_c, 14, 66, 107
15, 246693, Note_off_c, 14, 66, 64
15, 246708, Note_on_c, 14, 65, 94
15, 246828, Note_off_c, 14, 65, 64
15, 246953, Note_on_c, 14, 61, 85
15, 247047, Note_off_c, 14, 61, 64
15, 247436, Note_on_c, 14, 70, 120
15, 247527, Note_off_c, 14, 70, 64
15, 247674, Note_on_c, 14, 65, 120
15, 247814, Note_off_c, 14, 65, 64
15, 247910, Note_on_c, 14, 61, 93
15, 248006, Note_off_c, 14, 61, 64
15, 248402, Note_on_c, 14, 66, 105
15, 248495, Note_off_c, 14, 66, 64
15, 248636, Note_on_c, 14, 65, 118
15, 248771, Note_off_c, 14, 65, 64
15, 248872, Note_on_c, 14, 61, 93
15, 248966, Note_off_c, 14, 61, 64
15, 249354, Note_on_c, 14, 68, 117
15, 249445, Note_off_c, 14, 68, 64
15, 249593, Note_on_c, 14, 61, 118
15, 249793, Note_off_c, 14, 61, 64
15, 249839, Note_on_c, 14, 59, 110
15, 249936, Note_off_c, 14, 59, 64
15, 249948, Note_on_c, 14, 58, 91
15, 250041, Note_off_c, 14, 58, 64
15, 250069, Note_on_c, 14, 59, 104
15, 250286, Note_off_c, 14, 59, 64
15, 250323, Note_on_c, 14, 58, 108
15, 250409, Note_off_c, 14, 58, 64
15, 250431, Note_on_c, 14, 56, 91
15, 250514, Note_off_c, 14, 56, 64
15, 250551, Note_on_c, 14, 54, 110
15, 250725, Note_off_c, 14, 54, 64
15, 250801, Note_on_c, 14, 66, 101
15, 250886, Note_off_c, 14, 66, 64
15, 251037, Note_on_c, 14, 66, 110
15, 251139, Note_off_c, 14, 66, 64
15, 251281, Note_on_c, 14, 54, 107
15, 251363, Note_off_c, 14, 54, 64
15, 251522, Note_on_c, 14, 54, 110
15, 251681, Note_off_c, 14, 54, 64
15, 251766, Note_on_c, 14, 66, 101
15, 251856, Note_off_c, 14, 66, 64
15, 251998, Note_on_c, 14, 66, 110
15, 252102, Note_off_c, 14, 66, 64
15, 252239, Note_on_c, 14, 54, 107
15, 252337, Note_off_c, 14, 54, 64
15, 252481, Note_on_c, 14, 54, 110
15, 252653, Note_off_c, 14, 54, 64
15, 252726, Note_on_c, 14, 66, 96
15, 252808, Note_off_c, 14, 66, 64
15, 252958, Note_on_c, 14, 66, 110
15, 253063, Note_off_c, 14, 66, 64
15, 253200, Note_on_c, 14, 54, 104
15, 253292, Note_off_c, 14, 54, 64
15, 253443, Note_on_c, 14, 54, 107
15, 253592, Note_off_c, 14, 54, 64
15, 253678, Note_on_c, 14, 66, 97
15, 253800, Note_off_c, 14, 66, 64
15, 253923, Note_on_c, 14, 65, 108
15, 254066, Note_off_c, 14, 65, 64
15, 254159, Note_on_c, 14, 66, 107
15, 254300, Note_off_c, 14, 66, 64
15, 254398, Note_on_c, 14, 68, 110
15, 254555, Note_off_c, 14, 68, 64
15, 254634, Note_on_c, 14, 70, 110
15, 254769, Note_off_c, 14, 70, 64
15, 254875, Note_on_c, 14, 71, 110
15, 255030, Note_off_c, 14, 71, 64
15, 255118, Note_on_c, 14, 73, 104
15, 255256, Note_off_c, 14, 73, 64
15, 255356, Note_on_c, 14, 70, 110
15, 255567, Note_off_c, 14, 70, 64
15, 255600, Note_on_c, 14, 68, 108
15, 255685, Note_off_c, 14, 68, 64
15, 255713, Note_on_c, 14, 66, 110
15, 255817, Note_off_c, 14, 66, 64
15, 255837, Note_on_c, 14, 61, 101
15, 255972, Note_off_c, 14, 61, 64
15, 256077, Note_on_c, 14, 65, 110
15, 256177, Note_off_c, 14, 65, 64
15, 256316, Note_on_c, 14, 66, 85
15, 256524, Note_off_c, 14, 66, 64
15, 259920, Note_on_c, 14, 61, 99
15, 260004, Note_off_c, 14, 61, 64
15, 260154, Note_on_c, 14, 66, 117
15, 260366, Note_off_c, 14, 66, 64
15, 260400, Note_on_c, 14, 65, 114
15, 260489, Note_off_c, 14, 65, 64
15, 260515, Note_on_c, 14, 63, 117
15, 260612, Note_off_c, 14, 63, 64
15, 260634, Note_on_c, 14, 61, 107
15, 260736, Note_off_c, 14, 61, 64
15, 260752, Note_on_c, 14, 59, 100
15, 260817, Note_off_c, 14, 59, 64
15, 260868, Note_on_c, 14, 58, 107
15, 260957, Note_off_c, 14, 58, 64
15, 260989, Note_on_c, 14, 56, 100
15, 261072, Note_off_c, 14, 56, 64
15, 261116, Note_on_c, 14, 54, 106
15, 261261, Note_off_c, 14, 54, 64
15, 262320, Note_on_c, 14, 65, 90
15, 262408, Note_off_c, 14, 65, 64
15, 262435, Note_on_c, 14, 63, 93
15, 262532, Note_off_c, 14, 63, 64
15, 262554, Note_on_c, 14, 61, 93
15, 262661, Note_off_c, 14, 61, 64
15, 262671, Note_on_c, 14, 59, 93
15, 262765, Note_off_c, 14, 59, 64
15, 262794, Note_on_c, 14, 58, 93
15, 262870, Note_off_c, 14, 58, 64
15, 262912, Note_on_c, 14, 56, 93
15, 262982, Note_off_c, 14, 56, 64
15, 263033, Note_on_c, 14, 58, 93
15, 263223, Note_off_c, 14, 58, 64
15, 263278, Note_on_c, 14, 56, 93
15, 263357, Note_off_c, 14, 56, 64
15, 263388, Note_on_c, 14, 54, 93
15, 263464, Note_off_c, 14, 54, 64
15, 263517, Note_on_c, 14, 61, 94
15, 263608, Note_off_c, 14, 61, 64
15, 263768, Note_on_c, 14, 49, 127
15, 263861, Note_off_c, 14, 49, 64
15, 263964, Control_c, 14, 11, 56
15, 263979, Control_c, 14, 11, 56
15, 263994, Control_c, 14, 11, 57
15, 264007, Note_on_c, 14, 54, 68
15, 264010, Control_c, 14, 11, 58
15, 264025, Control_c, 14, 11, 59
15, 264041, Control_c, 14, 11, 60
15, 264056, Control_c, 14, 11, 61
15, 264072, Control_c, 14, 11, 62
15, 264087, Control_c, 14, 11, 63
15, 264103, Control_c, 14, 11, 64
15, 264118, Control_c, 14, 11, 65
15, 264134, Control_c, 14, 11, 66
15, 264149, Control_c, 14, 11, 67
15, 264165, Control_c, 14, 11, 68
15, 264180, Control_c, 14, 11, 69
15, 264195, Control_c, 14, 11, 70
15, 264211, Control_c, 14, 11, 71
15, 264226, Control_c, 14, 11, 72
15, 264242, Control_c, 14, 11, 73
15, 264257, Control_c, 14, 11, 74
15, 264273, Control_c, 14, 11, 75
15, 264288, Control_c, 14, 11, 76
15, 264304, Control_c, 14, 11, 77
15, 264319, Control_c, 14, 11, 78
15, 264335, Control_c, 14, 11, 79
15, 264350, Control_c, 14, 11, 80
15, 264366, Control_c, 14, 11, 81
15, 264381, Control_c, 14, 11, 82
15, 264396, Control_c, 14, 11, 83
15, 264412, Control_c, 14, 11, 84
15, 264427, Control_c, 14, 11, 85
15, 264443, Control_c, 14, 11, 86
15, 264458, Control_c, 14, 11, 87
15, 264474, Control_c, 14, 11, 88
15, 264489, Control_c, 14, 11, 89
15, 264505, Control_c, 14, 11, 90
15, 264520, Control_c, 14, 11, 91
15, 264536, Control_c, 14, 11, 92
15, 264551, Control_c, 14, 11, 93
15, 264567, Control_c, 14, 11, 94
15, 264582, Control_c, 14, 11, 95
15, 264597, Control_c, 14, 11, 96
15, 264613, Control_c, 14, 11, 97
15, 264628, Control_c, 14, 11, 98
15, 264644, Control_c, 14, 11, 99
15, 264659, Control_c, 14, 11, 100
15, 264675, Control_c, 14, 11, 101
15, 264690, Control_c, 14, 11, 102
15, 264706, Control_c, 14, 11, 103
15, 264721, Control_c, 14, 11, 104
15, 264737, Control_c, 14, 11, 105
15, 264752, Control_c, 14, 11, 106
15, 264767, Control_c, 14, 11, 108
15, 264798, Control_c, 14, 11, 96
15, 264812, Control_c, 14, 11, 90
15, 264827, Control_c, 14, 11, 84
15, 264842, Control_c, 14, 11, 78
15, 264856, Control_c, 14, 11, 72
15, 264871, Control_c, 14, 11, 66
15, 264886, Control_c, 14, 11, 60
15, 264900, Control_c, 14, 11, 54
15, 264915, Control_c, 14, 11, 48
15, 264929, Control_c, 14, 11, 42
15, 264960, Note_off_c, 14, 54, 64
15, 265032, Control_c, 14, 11, 104
15, 266880, End_track
16, 0, Start_track
16, 0, Instrument_name_t, "SC88-A"
16, 0, Title_t, "vc.uni"
16, 1440, Control_c, 15, 101, 0
16, 1450, Control_c, 15, 100, 0
16, 1450, Control_c, 15, 6, 0
16, 1470, Control_c, 15, 0, 0
16, 1480, Control_c, 15, 32, 1
16, 1490, Program_c, 15, 41
16, 1500, Control_c, 15, 10, 94
16, 1510, Control_c, 15, 11, 105
16, 1520, Control_c, 15, 7, 118
16, 1530, Control_c, 15, 93, 0
16, 1540, Control_c, 15, 91, 0
16, 1550, Pitch_bend_c, 15, 8192
16, 1560, Control_c, 15, 1, 0
16, 1570, Control_c, 15, 64, 0
16, 1580, Control_c, 15, 91, 64
16, 1590, Control_c, 15, 99, 1
16, 1600, Control_c, 15, 98, 32
16, 1610, Control_c, 15, 6, 70
16, 1620, Control_c, 15, 98, 33
16, 1630, Control_c, 15, 6, 64
16, 1640, Control_c, 15, 98, 99
16, 1650, Control_c, 15, 6, 65
16, 1660, Control_c, 15, 98, 100
16, 1670, Control_c, 15, 6, 64
16, 1680, Control_c, 15, 98, 102
16, 1690, Control_c, 15, 6, 64
16, 3600, Note_on_c, 15, 42, 66
16, 3695, Note_off_c, 15, 42, 64
16, 3847, Note_on_c, 15, 42, 66
16, 4032, Note_off_c, 15, 42, 64
16, 4086, Note_on_c, 15, 54, 66
16, 4206, Note_off_c, 15, 54, 64
16, 4324, Note_on_c, 15, 54, 66
16, 4439, Note_off_c, 15, 54, 64
16, 4561, Note_on_c, 15, 42, 66
16, 4664, Note_off_c, 15, 42, 64
16, 4802, Note_on_c, 15, 42, 66
16, 4970, Note_off_c, 15, 42, 64
16, 5038, Note_on_c, 15, 54, 66
16, 5138, Note_off_c, 15, 54, 64
16, 5279, Note_on_c, 15, 54, 66
16, 5392, Note_off_c, 15, 54, 64
16, 5516, Note_on_c, 15, 42, 66
16, 5612, Note_off_c, 15, 42, 64
16, 5757, Note_on_c, 15, 42, 66
16, 5925, Note_off_c, 15, 42, 64
16, 6003, Note_on_c, 15, 54, 66
16, 6105, Note_off_c, 15, 54, 64
16, 6118, Note_on_c, 15, 53, 60
16, 6209, Note_off_c, 15, 53, 64
16, 6231, Note_on_c, 15, 51, 66
16, 6341, Note_off_c, 15, 51, 64
16, 6478, Note_on_c, 15, 56, 66
16, 6587, Note_off_c, 15, 56, 64
16, 6724, Note_on_c, 15, 49, 66
16, 6894, Note_off_c, 15, 49, 64
16, 6974, Note_on_c, 15, 61, 66
16, 7074, Note_off_c, 15, 61, 64
16, 7087, Note_on_c, 15, 60, 58
16, 7181, Note_off_c, 15, 60, 64
16, 7198, Note_on_c, 15, 61, 66
16, 7292, Note_off_c, 15, 61, 64
16, 7433, Note_on_c, 15, 49, 66
16, 7529, Note_off_c, 15, 49, 64
16, 7674, Note_on_c, 15, 49, 70
16, 7809, Note_off_c, 15, 49, 64
16, 7923, Note_on_c, 15, 61, 67
16, 7994, Note_off_c, 15, 61, 64
16, 8030, Note_on_c, 15, 60, 58
16, 8105, Note_off_c, 15, 60, 64
16, 8147, Note_on_c, 15, 61, 68
16, 8236, Note_off_c, 15, 61, 64
16, 8390, Note_on_c, 15, 49, 66
16, 8482, Note_off_c, 15, 49, 64
16, 8635, Note_on_c, 15, 49, 66
16, 8787, Note_off_c, 15, 49, 64
16, 8878, Note_on_c, 15, 61, 66
16, 8966, Note_off_c, 15, 61, 64
16, 8989, Note_on_c, 15, 60, 56
16, 9102, Note_off_c, 15, 60, 64
16, 9105, Note_on_c, 15, 61, 66
16, 9197, Note_off_c, 15, 61, 64
16, 9353, Note_on_c, 15, 53, 62
16, 9436, Note_off_c, 15, 53, 64
16, 9593, Note_on_c, 15, 54, 71
16, 9796, Note_off_c, 15, 54, 64
16, 9841, Note_on_c, 15, 51, 66
16, 9954, Note_off_c, 15, 51, 64
16, 10079, Note_on_c, 15, 47, 66
16, 10182, Note_off_c, 15, 47, 64
16, 10318, Note_on_c, 15, 49, 66
16, 10412, Note_off_c, 15, 49, 64
16, 10562, Note_on_c, 15, 51, 66
16, 10775, Note_off_c, 15, 51, 64
16, 10809, Note_on_c, 15, 49, 66
16, 10895, Note_off_c, 15, 49, 64
16, 10924, Note_on_c, 15, 47, 66
16, 11024, Note_off_c, 15, 47, 64
16, 11045, Note_on_c, 15, 46, 66
16, 11172, Note_off_c, 15, 46, 64
16, 11282, Note_on_c, 15, 44, 66
16, 11400, Note_off_c, 15, 44, 64
16, 11400, Note_on_c, 15, 42, 72
16, 11475, Note_off_c, 15, 42, 64
16, 11522, Note_on_c, 15, 47, 79
16, 11711, Note_off_c, 15, 47, 64
16, 11759, Note_on_c, 15, 46, 66
16, 11838, Note_off_c, 15, 46, 64
16, 11871, Note_on_c, 15, 44, 66
16, 11975, Note_off_c, 15, 44, 64
16, 11992, Note_on_c, 15, 42, 67
16, 12184, Note_off_c, 15, 42, 64
16, 12244, Note_on_c, 15, 54, 66
16, 12331, Note_off_c, 15, 54, 64
16, 12349, Note_on_c, 15, 53, 50
16, 12439, Note_off_c, 15, 53, 64
16, 12473, Note_on_c, 15, 51, 66
16, 12655, Note_off_c, 15, 51, 64
16, 12720, Note_on_c, 15, 49, 66
16, 12814, Note_off_c, 15, 49, 64
16, 12833, Note_on_c, 15, 47, 66
16, 12956, Note_off_c, 15, 47, 64
16, 12957, Note_on_c, 15, 46, 68
16, 13084, Note_off_c, 15, 46, 64
16, 13194, Note_on_c, 15, 48, 57
16, 13291, Note_off_c, 15, 48, 64
16, 13435, Note_on_c, 15, 49, 66
16, 13575, Note_off_c, 15, 49, 64
16, 13683, Note_on_c, 15, 37, 66
16, 13797, Note_off_c, 15, 37, 64
16, 13918, Note_on_c, 15, 37, 66
16, 14008, Note_off_c, 15, 37, 64
16, 14165, Note_on_c, 15, 49, 70
16, 14274, Note_off_c, 15, 49, 64
16, 14279, Note_on_c, 15, 51, 70
16, 14373, Note_off_c, 15, 51, 64
16, 14398, Note_on_c, 15, 53, 78
16, 14520, Note_off_c, 15, 53, 64
16, 14638, Note_on_c, 15, 54, 75
16, 14753, Note_off_c, 15, 54, 64
16, 14874, Note_on_c, 15, 56, 72
16, 15022, Note_off_c, 15, 56, 64
16, 15115, Note_on_c, 15, 53, 84
16, 15223, Note_off_c, 15, 53, 64
16, 15357, Note_on_c, 15, 54, 75
16, 15556, Note_off_c, 15, 54, 64
16, 15596, Note_on_c, 15, 59, 66
16, 15692, Note_off_c, 15, 59, 64
16, 15833, Note_on_c, 15, 61, 66
16, 15927, Note_off_c, 15, 61, 64
16, 16075, Note_on_c, 15, 49, 66
16, 16179, Note_off_c, 15, 49, 64
16, 16322, Note_on_c, 15, 54, 76
16, 16541, Note_off_c, 15, 54, 64
16, 16572, Note_on_c, 15, 53, 70
16, 16652, Note_off_c, 15, 53, 64
16, 16686, Note_on_c, 15, 51, 70
16, 16775, Note_off_c, 15, 51, 64
16, 16803, Note_on_c, 15, 49, 71
16, 16884, Note_off_c, 15, 49, 64
16, 16920, Note_on_c, 15, 47, 70
16, 16996, Note_off_c, 15, 47, 64
16, 17036, Note_on_c, 15, 46, 66
16, 17123, Note_off_c, 15, 46, 64
16, 17154, Note_on_c, 15, 44, 72
16, 17246, Note_off_c, 15, 44, 64
16, 17278, Note_on_c, 15, 46, 74
16, 17470, Note_off_c, 15, 46, 64
16, 17522, Note_on_c, 15, 44, 66
16, 17615, Note_off_c, 15, 44, 64
16, 17635, Note_on_c, 15, 42, 79
16, 17735, Note_off_c, 15, 42, 64
16, 17756, Note_on_c, 15, 49, 70
16, 17835, Note_off_c, 15, 49, 64
16, 18001, Note_on_c, 15, 37, 79
16, 18074, Note_off_c, 15, 37, 64
16, 18241, Note_on_c, 15, 42, 70
16, 18725, Note_off_c, 15, 42, 64
16, 18966, Note_on_c, 15, 49, 66
16, 19031, Note_off_c, 15, 49, 64
16, 19215, Note_on_c, 15, 42, 66
16, 19468, Note_off_c, 15, 42, 64
16, 21357, Note_on_c, 15, 42, 101
16, 21467, Note_off_c, 15, 42, 64
16, 21468, Note_on_c, 15, 44, 118
16, 21585, Note_off_c, 15, 44, 64
16, 21590, Note_on_c, 15, 46, 101
16, 21712, Note_off_c, 15, 46, 64
16, 21830, Note_on_c, 15, 48, 119
16, 21904, Note_off_c, 15, 48, 64
16, 22071, Note_on_c, 15, 49, 62
16, 22365, Note_off_c, 15, 49, 64
16, 22801, Note_on_c, 15, 56, 58
16, 22871, Note_off_c, 15, 56, 64
16, 23042, Note_on_c, 15, 61, 40
16, 23258, Note_off_c, 15, 61, 64
16, 23754, Note_on_c, 15, 56, 62
16, 23827, Note_off_c, 15, 56, 64
16, 24002, Note_on_c, 15, 49, 52
16, 24205, Note_off_c, 15, 49, 64
16, 24720, Note_on_c, 15, 44, 94
16, 24764, Note_off_c, 15, 44, 64
16, 24966, Note_on_c, 15, 37, 94
16, 25140, Note_off_c, 15, 37, 64
16, 25193, Note_on_c, 15, 46, 94
16, 25285, Note_off_c, 15, 46, 64
16, 25429, Note_on_c, 15, 42, 94
16, 25526, Note_off_c, 15, 42, 64
16, 25677, Note_on_c, 15, 44, 94
16, 25750, Note_off_c, 15, 44, 64
16, 25921, Note_on_c, 15, 46, 94
16, 26122, Note_off_c, 15, 46, 64
16, 26161, Note_on_c, 15, 44, 94
16, 26232, Note_off_c, 15, 44, 64
16, 26274, Note_on_c, 15, 42, 94
16, 26350, Note_off_c, 15, 42, 64
16, 26399, Note_on_c, 15, 41, 82
16, 26582, Note_off_c, 15, 41, 64
16, 26646, Note_on_c, 15, 39, 94
16, 26721, Note_off_c, 15, 39, 64
16, 26754, Note_on_c, 15, 37, 94
16, 26838, Note_off_c, 15, 37, 64
16, 26877, Note_on_c, 15, 42, 94
16, 27076, Note_off_c, 15, 42, 64
16, 27116, Note_on_c, 15, 41, 71
16, 27184, Note_off_c, 15, 41, 64
16, 27227, Note_on_c, 15, 39, 94
16, 27298, Note_off_c, 15, 39, 64
16, 27354, Note_on_c, 15, 37, 94
16, 27440, Note_off_c, 15, 37, 64
16, 27593, Note_on_c, 15, 61, 94
16, 27680, Note_off_c, 15, 61, 64
16, 27708, Note_on_c, 15, 60, 71
16, 27802, Note_off_c, 15, 60, 64
16, 27831, Note_on_c, 15, 58, 94
16, 27992, Note_off_c, 15, 58, 64
16, 28069, Note_on_c, 15, 56, 94
16, 28178, Note_off_c, 15, 56, 64
16, 28180, Note_on_c, 15, 54, 94
16, 28249, Note_off_c, 15, 54, 64
16, 28308, Note_on_c, 15, 53, 75
16, 28445, Note_off_c, 15, 53, 64
16, 28557, Note_on_c, 15, 55, 73
16, 28641, Note_off_c, 15, 55, 64
16, 28801, Note_on_c, 15, 56, 94
16, 28940, Note_off_c, 15, 56, 64
16, 29036, Note_on_c, 15, 44, 94
16, 29127, Note_off_c, 15, 44, 64
16, 29279, Note_on_c, 15, 44, 94
16, 29361, Note_off_c, 15, 44, 64
16, 29519, Note_on_c, 15, 56, 94
16, 29612, Note_off_c, 15, 56, 64
16, 29636, Note_on_c, 15, 58, 94
16, 29706, Note_off_c, 15, 58, 64
16, 29756, Note_on_c, 15, 60, 74
16, 29898, Note_off_c, 15, 60, 64
16, 29989, Note_on_c, 15, 61, 94
16, 30088, Note_off_c, 15, 61, 64
16, 30233, Note_on_c, 15, 63, 94
16, 30333, Note_off_c, 15, 63, 64
16, 30475, Note_on_c, 15, 60, 78
16, 30552, Note_off_c, 15, 60, 64
16, 30723, Note_on_c, 15, 61, 94
16, 30860, Note_off_c, 15, 61, 64
16, 30955, Note_on_c, 15, 54, 88
16, 31045, Note_off_c, 15, 54, 64
16, 31197, Note_on_c, 15, 56, 94
16, 31269, Note_off_c, 15, 56, 64
16, 31435, Note_on_c, 15, 44, 91
16, 31518, Note_off_c, 15, 44, 64
16, 31684, Note_on_c, 15, 37, 94
16, 31799, Note_off_c, 15, 37, 64
16, 31924, Note_on_c, 15, 61, 102
16, 31991, Note_off_c, 15, 61, 64
16, 32038, Note_on_c, 15, 59, 89
16, 32103, Note_off_c, 15, 59, 64
16, 32159, Note_on_c, 15, 58, 89
16, 32252, Note_off_c, 15, 58, 64
16, 32273, Note_on_c, 15, 59, 89
16, 32344, Note_off_c, 15, 59, 64
16, 32392, Note_on_c, 15, 58, 89
16, 32459, Note_off_c, 15, 58, 64
16, 32509, Note_on_c, 15, 56, 73
16, 32583, Note_off_c, 15, 56, 64
16, 32637, Note_on_c, 15, 54, 73
16, 32910, Note_off_c, 15, 54, 64
16, 34799, Note_on_c, 15, 42, 105
16, 34901, Note_off_c, 15, 42, 64
16, 34912, Note_on_c, 15, 44, 85
16, 35015, Note_off_c, 15, 44, 64
16, 35036, Note_on_c, 15, 46, 78
16, 35159, Note_off_c, 15, 46, 64
16, 35274, Note_on_c, 15, 48, 87
16, 35385, Note_off_c, 15, 48, 64
16, 35516, Note_on_c, 15, 49, 63
16, 35739, Note_off_c, 15, 49, 64
16, 36233, Note_on_c, 15, 56, 58
16, 36300, Note_off_c, 15, 56, 64
16, 36470, Note_on_c, 15, 61, 68
16, 36709, Note_off_c, 15, 61, 64
16, 37191, Note_on_c, 15, 56, 61
16, 37255, Note_off_c, 15, 56, 64
16, 37435, Note_on_c, 15, 49, 76
16, 37671, Note_off_c, 15, 49, 64
16, 38149, Note_on_c, 15, 44, 93
16, 38224, Note_off_c, 15, 44, 64
16, 38394, Note_on_c, 15, 37, 95
16, 38569, Note_off_c, 15, 37, 64
16, 38643, Note_on_c, 15, 49, 62
16, 38712, Note_off_c, 15, 49, 64
16, 38870, Note_on_c, 15, 49, 87
16, 38939, Note_off_c, 15, 49, 64
16, 39113, Note_on_c, 15, 37, 94
16, 39210, Note_off_c, 15, 37, 64
16, 39356, Note_on_c, 15, 37, 94
16, 39524, Note_off_c, 15, 37, 64
16, 39603, Note_on_c, 15, 49, 65
16, 39674, Note_off_c, 15, 49, 64
16, 39829, Note_on_c, 15, 49, 94
16, 39904, Note_off_c, 15, 49, 64
16, 40079, Note_on_c, 15, 37, 94
16, 40166, Note_off_c, 15, 37, 64
16, 40319, Note_on_c, 15, 37, 94
16, 40465, Note_off_c, 15, 37, 64
16, 40567, Note_on_c, 15, 49, 94
16, 40662, Note_off_c, 15, 49, 64
16, 40674, Note_on_c, 15, 48, 73
16, 40791, Note_off_c, 15, 48, 64
16, 40801, Note_on_c, 15, 46, 73
16, 40869, Note_off_c, 15, 46, 64
16, 41032, Note_on_c, 15, 51, 94
16, 41107, Note_off_c, 15, 51, 64
16, 41278, Note_on_c, 15, 44, 94
16, 41518, Note_off_c, 15, 44, 64
16, 41998, Note_on_c, 15, 44, 78
16, 42067, Note_off_c, 15, 44, 64
16, 42242, Note_on_c, 15, 51, 87
16, 42464, Note_off_c, 15, 51, 64
16, 42944, Note_on_c, 15, 51, 72
16, 43012, Note_off_c, 15, 51, 64
16, 43191, Note_on_c, 15, 46, 78
16, 43436, Note_off_c, 15, 46, 64
16, 43916, Note_on_c, 15, 46, 94
16, 44001, Note_off_c, 15, 46, 64
16, 44163, Note_on_c, 15, 53, 75
16, 44303, Note_off_c, 15, 53, 64
16, 44396, Note_on_c, 15, 58, 94
16, 44490, Note_off_c, 15, 58, 64
16, 44506, Note_on_c, 15, 56, 82
16, 44607, Note_off_c, 15, 56, 64
16, 44628, Note_on_c, 15, 58, 82
16, 44700, Note_off_c, 15, 58, 64
16, 44866, Note_on_c, 15, 51, 94
16, 44973, Note_off_c, 15, 51, 64
16, 44982, Note_on_c, 15, 49, 73
16, 45092, Note_off_c, 15, 49, 64
16, 45101, Note_on_c, 15, 51, 73
16, 45176, Note_off_c, 15, 51, 64
16, 45357, Note_on_c, 15, 56, 94
16, 45459, Note_off_c, 15, 56, 64
16, 45470, Note_on_c, 15, 54, 75
16, 45580, Note_off_c, 15, 54, 64
16, 45587, Note_on_c, 15, 56, 75
16, 45676, Note_off_c, 15, 56, 64
16, 45843, Note_on_c, 15, 49, 94
16, 45952, Note_on_c, 15, 48, 64
16, 45960, Note_off_c, 15, 49, 64
16, 46078, Note_on_c, 15, 49, 64
16, 46088, Note_off_c, 15, 48, 64
16, 46224, Note_off_c, 15, 49, 64
16, 46316, Note_on_c, 15, 54, 94
16, 46394, Note_off_c, 15, 54, 64
16, 46550, Note_on_c, 15, 56, 94
16, 46621, Note_off_c, 15, 56, 64
16, 46793, Note_on_c, 15, 44, 94
16, 46872, Note_off_c, 15, 44, 64
16, 47036, Note_on_c, 15, 37, 94
16, 47111, Note_off_c, 15, 37, 64
16, 47278, Note_on_c, 15, 61, 70
16, 47371, Note_off_c, 15, 61, 64
16, 47390, Note_on_c, 15, 60, 58
16, 47504, Note_off_c, 15, 60, 64
16, 47511, Note_on_c, 15, 61, 58
16, 47593, Note_off_c, 15, 61, 64
16, 48240, Note_on_c, 15, 61, 72
16, 48353, Note_off_c, 15, 61, 64
16, 48354, Note_on_c, 15, 60, 57
16, 48474, Note_on_c, 15, 61, 59
16, 48480, Note_off_c, 15, 60, 64
16, 48558, Note_off_c, 15, 61, 64
16, 49193, Note_on_c, 15, 49, 58
16, 49315, Note_on_c, 15, 48, 47
16, 49323, Note_off_c, 15, 49, 64
16, 49436, Note_off_c, 15, 48, 64
16, 49438, Note_on_c, 15, 49, 64
16, 49528, Note_off_c, 15, 49, 64
16, 50155, Note_on_c, 15, 49, 94
16, 50268, Note_off_c, 15, 49, 64
16, 50269, Note_on_c, 15, 48, 73
16, 50375, Note_off_c, 15, 48, 64
16, 50387, Note_on_c, 15, 49, 73
16, 50477, Note_off_c, 15, 49, 64
16, 51121, Note_on_c, 15, 61, 94
16, 51235, Note_on_c, 15, 59, 78
16, 51236, Note_off_c, 15, 61, 64
16, 51354, Note_off_c, 15, 59, 64
16, 51355, Note_on_c, 15, 61, 71
16, 51431, Note_off_c, 15, 61, 64
16, 51596, Note_on_c, 15, 49, 94
16, 51652, Note_off_c, 15, 49, 64
16, 51831, Note_on_c, 15, 42, 94
16, 51960, Note_off_c, 15, 42, 64
16, 52074, Note_on_c, 15, 54, 88
16, 52178, Note_off_c, 15, 54, 64
16, 52189, Note_on_c, 15, 53, 61
16, 52295, Note_off_c, 15, 53, 64
16, 52306, Note_on_c, 15, 54, 66
16, 52388, Note_off_c, 15, 54, 64
16, 53038, Note_on_c, 15, 54, 95
16, 53145, Note_off_c, 15, 54, 64
16, 53153, Note_on_c, 15, 53, 65
16, 53244, Note_off_c, 15, 53, 64
16, 53270, Note_on_c, 15, 54, 64
16, 53337, Note_off_c, 15, 54, 64
16, 53994, Note_on_c, 15, 42, 94
16, 54111, Note_on_c, 15, 41, 68
16, 54118, Note_off_c, 15, 42, 64
16, 54214, Note_off_c, 15, 41, 64
16, 54228, Note_on_c, 15, 42, 64
16, 54300, Note_off_c, 15, 42, 64
16, 54955, Note_on_c, 15, 42, 94
16, 55067, Note_on_c, 15, 41, 72
16, 55069, Note_off_c, 15, 42, 64
16, 55192, Note_on_c, 15, 42, 66
16, 55196, Note_off_c, 15, 41, 64
16, 55294, Note_off_c, 15, 42, 64
16, 55919, Note_on_c, 15, 54, 100
16, 56030, Note_off_c, 15, 54, 64
16, 56032, Note_on_c, 15, 52, 82
16, 56148, Note_off_c, 15, 52, 64
16, 56149, Note_on_c, 15, 54, 82
16, 56231, Note_off_c, 15, 54, 64
16, 56389, Note_on_c, 15, 42, 94
16, 56470, Note_off_c, 15, 42, 64
16, 56628, Note_on_c, 15, 47, 94
16, 56950, Note_off_c, 15, 47, 64
16, 57244, Note_on_c, 15, 46, 127
16, 57323, Note_off_c, 15, 46, 64
16, 57361, Note_on_c, 15, 47, 99
16, 57423, Note_off_c, 15, 47, 64
16, 57482, Note_on_c, 15, 49, 94
16, 57529, Note_off_c, 15, 49, 64
16, 57603, Note_on_c, 15, 51, 94
16, 57700, Note_off_c, 15, 51, 64
16, 57839, Note_on_c, 15, 56, 114
16, 57947, Note_off_c, 15, 56, 64
16, 57953, Note_on_c, 15, 54, 88
16, 58065, Note_off_c, 15, 54, 64
16, 58076, Note_on_c, 15, 56, 94
16, 58152, Note_off_c, 15, 56, 64
16, 58318, Note_on_c, 15, 49, 107
16, 58413, Note_off_c, 15, 49, 64
16, 58431, Note_on_c, 15, 47, 94
16, 58551, Note_off_c, 15, 47, 64
16, 58556, Note_on_c, 15, 49, 82
16, 58623, Note_off_c, 15, 49, 64
16, 58803, Note_on_c, 15, 54, 102
16, 58903, Note_off_c, 15, 54, 64
16, 58915, Note_on_c, 15, 52, 94
16, 59031, Note_on_c, 15, 54, 94
16, 59040, Note_off_c, 15, 52, 64
16, 59118, Note_off_c, 15, 54, 64
16, 59285, Note_on_c, 15, 47, 94
16, 59396, Note_off_c, 15, 47, 64
16, 59403, Note_on_c, 15, 46, 85
16, 59515, Note_off_c, 15, 46, 64
16, 59521, Note_on_c, 15, 47, 88
16, 59587, Note_off_c, 15, 47, 64
16, 59764, Note_on_c, 15, 52, 94
16, 59861, Note_off_c, 15, 52, 64
16, 59874, Note_on_c, 15, 51, 94
16, 59994, Note_off_c, 15, 51, 64
16, 60000, Note_on_c, 15, 52, 94
16, 60530, Note_off_c, 15, 52, 64
16, 60598, Note_on_c, 15, 54, 94
16, 60679, Note_off_c, 15, 54, 64
16, 60712, Note_on_c, 15, 52, 94
16, 60789, Note_off_c, 15, 52, 64
16, 60828, Note_on_c, 15, 51, 94
16, 60890, Note_off_c, 15, 51, 64
16, 60949, Note_on_c, 15, 49, 94
16, 61017, Note_off_c, 15, 49, 64
16, 61068, Note_on_c, 15, 47, 94
16, 61133, Note_off_c, 15, 47, 64
16, 61192, Note_on_c, 15, 46, 94
16, 61242, Note_off_c, 15, 46, 64
16, 61308, Note_on_c, 15, 44, 94
16, 61363, Note_off_c, 15, 44, 64
16, 61436, Note_on_c, 15, 42, 101
16, 61592, Note_off_c, 15, 42, 64
16, 61670, Note_on_c, 15, 47, 94
16, 61743, Note_off_c, 15, 47, 64
16, 61907, Note_on_c, 15, 54, 94
16, 61988, Note_off_c, 15, 54, 64
16, 62145, Note_on_c, 15, 42, 94
16, 62226, Note_off_c, 15, 42, 64
16, 62389, Note_on_c, 15, 47, 94
16, 62725, Note_off_c, 15, 47, 64
16, 63120, Note_on_c, 15, 59, 95
16, 63234, Note_on_c, 15, 58, 73
16, 63237, Note_off_c, 15, 59, 64
16, 63362, Note_on_c, 15, 59, 73
16, 63371, Note_off_c, 15, 58, 64
16, 63475, Note_off_c, 15, 59, 64
16, 63601, Note_on_c, 15, 54, 87
16, 63698, Note_off_c, 15, 54, 64
16, 63710, Note_on_c, 15, 52, 72
16, 63830, Note_on_c, 15, 54, 71
16, 63849, Note_off_c, 15, 52, 64
16, 63942, Note_off_c, 15, 54, 64
16, 64078, Note_on_c, 15, 59, 94
16, 64194, Note_on_c, 15, 58, 78
16, 64197, Note_off_c, 15, 59, 64
16, 64315, Note_on_c, 15, 59, 64
16, 64334, Note_off_c, 15, 58, 64
16, 64439, Note_off_c, 15, 59, 64
16, 64555, Note_on_c, 15, 51, 94
16, 64653, Note_off_c, 15, 51, 64
16, 64665, Note_on_c, 15, 49, 86
16, 64787, Note_on_c, 15, 51, 80
16, 64798, Note_off_c, 15, 49, 64
16, 64900, Note_off_c, 15, 51, 64
16, 65038, Note_on_c, 15, 59, 89
16, 65150, Note_on_c, 15, 58, 80
16, 65155, Note_off_c, 15, 59, 64
16, 65276, Note_on_c, 15, 59, 80
16, 65299, Note_off_c, 15, 58, 64
16, 65397, Note_off_c, 15, 59, 64
16, 65519, Note_on_c, 15, 47, 94
16, 65614, Note_off_c, 15, 47, 64
16, 65630, Note_on_c, 15, 49, 85
16, 65751, Note_on_c, 15, 51, 80
16, 65752, Note_off_c, 15, 49, 64
16, 65864, Note_off_c, 15, 51, 64
16, 65994, Note_on_c, 15, 53, 80
16, 66103, Note_off_c, 15, 53, 64
16, 66234, Note_on_c, 15, 54, 94
16, 66358, Note_off_c, 15, 54, 64
16, 66479, Note_on_c, 15, 42, 94
16, 66576, Note_off_c, 15, 42, 64
16, 66956, Note_on_c, 15, 54, 94
16, 67067, Note_on_c, 15, 53, 66
16, 67068, Note_off_c, 15, 54, 64
16, 67195, Note_on_c, 15, 54, 94
16, 67206, Note_off_c, 15, 53, 64
16, 67349, Note_off_c, 15, 54, 64
16, 67431, Note_on_c, 15, 49, 94
16, 67539, Note_off_c, 15, 49, 64
16, 67546, Note_on_c, 15, 47, 94
16, 67667, Note_on_c, 15, 49, 94
16, 67683, Note_off_c, 15, 47, 64
16, 67788, Note_off_c, 15, 49, 64
16, 67910, Note_on_c, 15, 54, 94
16, 68020, Note_off_c, 15, 54, 64
16, 68026, Note_on_c, 15, 53, 68
16, 68137, Note_off_c, 15, 53, 64
16, 68143, Note_on_c, 15, 54, 88
16, 68241, Note_off_c, 15, 54, 64
16, 68397, Note_on_c, 15, 46, 94
16, 68507, Note_off_c, 15, 46, 64
16, 68515, Note_on_c, 15, 44, 94
16, 68633, Note_on_c, 15, 46, 94
16, 68641, Note_off_c, 15, 44, 64
16, 68714, Note_off_c, 15, 46, 64
16, 68879, Note_on_c, 15, 54, 94
16, 68986, Note_off_c, 15, 54, 64
16, 68993, Note_on_c, 15, 53, 66
16, 69114, Note_on_c, 15, 54, 94
16, 69118, Note_off_c, 15, 53, 64
16, 69222, Note_off_c, 15, 54, 64
16, 69357, Note_on_c, 15, 42, 94
16, 69458, Note_off_c, 15, 42, 64
16, 69465, Note_on_c, 15, 44, 94
16, 69588, Note_on_c, 15, 46, 94
16, 69589, Note_off_c, 15, 44, 64
16, 69691, Note_off_c, 15, 46, 64
16, 69830, Note_on_c, 15, 48, 82
16, 69926, Note_off_c, 15, 48, 64
16, 70077, Note_on_c, 15, 49, 94
16, 70209, Note_on_c, 15, 48, 80
16, 70231, Note_off_c, 15, 49, 64
16, 70314, Note_off_c, 15, 48, 64
16, 70314, Note_on_c, 15, 49, 66
16, 70380, Note_off_c, 15, 49, 64
16, 70429, Note_on_c, 15, 51, 94
16, 70493, Note_off_c, 15, 51, 64
16, 70547, Note_on_c, 15, 49, 94
16, 70622, Note_off_c, 15, 49, 64
16, 70666, Note_on_c, 15, 53, 75
16, 70740, Note_off_c, 15, 53, 64
16, 70788, Note_on_c, 15, 49, 94
16, 70862, Note_off_c, 15, 49, 64
16, 70907, Note_on_c, 15, 54, 94
16, 70980, Note_off_c, 15, 54, 64
16, 71037, Note_on_c, 15, 49, 94
16, 71138, Note_off_c, 15, 49, 64
16, 71142, Note_on_c, 15, 48, 68
16, 71270, Note_on_c, 15, 49, 68
16, 71271, Note_off_c, 15, 48, 64
16, 71347, Note_off_c, 15, 49, 64
16, 71393, Note_on_c, 15, 51, 94
16, 71458, Note_off_c, 15, 51, 64
16, 71513, Note_on_c, 15, 49, 94
16, 71586, Note_off_c, 15, 49, 64
16, 71635, Note_on_c, 15, 56, 94
16, 71689, Note_off_c, 15, 56, 64
16, 71751, Note_on_c, 15, 49, 94
16, 71829, Note_off_c, 15, 49, 64
16, 71870, Note_on_c, 15, 58, 94
16, 71939, Note_off_c, 15, 58, 64
16, 71992, Note_on_c, 15, 49, 94
16, 72110, Note_on_c, 15, 48, 72
16, 72115, Note_off_c, 15, 49, 64
16, 72216, Note_off_c, 15, 48, 64
16, 72227, Note_on_c, 15, 49, 60
16, 72305, Note_off_c, 15, 49, 64
16, 72348, Note_on_c, 15, 51, 94
16, 72414, Note_off_c, 15, 51, 64
16, 72470, Note_on_c, 15, 49, 101
16, 72546, Note_off_c, 15, 49, 64
16, 72592, Note_on_c, 15, 59, 94
16, 72650, Note_off_c, 15, 59, 64
16, 72708, Note_on_c, 15, 49, 104
16, 72783, Note_off_c, 15, 49, 64
16, 72828, Note_on_c, 15, 61, 109
16, 72886, Note_off_c, 15, 61, 64
16, 72951, Note_on_c, 15, 58, 113
16, 73129, Note_off_c, 15, 58, 64
16, 73193, Note_on_c, 15, 56, 94
16, 73303, Note_off_c, 15, 56, 64
16, 73309, Note_on_c, 15, 54, 80
16, 73423, Note_off_c, 15, 54, 64
16, 73434, Note_on_c, 15, 56, 94
16, 73630, Note_off_c, 15, 56, 64
16, 73682, Note_on_c, 15, 54, 94
16, 73794, Note_off_c, 15, 54, 64
16, 73794, Note_on_c, 15, 53, 74
16, 73910, Note_off_c, 15, 53, 64
16, 73918, Note_on_c, 15, 54, 75
16, 74071, Note_off_c, 15, 54, 64
16, 76561, Note_on_c, 15, 54, 78
16, 76648, Note_off_c, 15, 54, 64
16, 76796, Note_on_c, 15, 54, 93
16, 76947, Note_off_c, 15, 54, 64
16, 77029, Note_on_c, 15, 42, 94
16, 77118, Note_off_c, 15, 42, 64
16, 77274, Note_on_c, 15, 42, 94
16, 77372, Note_off_c, 15, 42, 64
16, 77518, Note_on_c, 15, 54, 71
16, 77606, Note_off_c, 15, 54, 64
16, 77759, Note_on_c, 15, 54, 93
16, 77903, Note_off_c, 15, 54, 64
16, 77996, Note_on_c, 15, 42, 94
16, 78091, Note_off_c, 15, 42, 64
16, 78237, Note_on_c, 15, 42, 94
16, 78327, Note_off_c, 15, 42, 64
16, 78486, Note_on_c, 15, 54, 122
16, 78589, Note_off_c, 15, 54, 64
16, 78596, Note_on_c, 15, 53, 87
16, 78721, Note_on_c, 15, 54, 87
16, 78723, Note_off_c, 15, 53, 64
16, 78832, Note_off_c, 15, 54, 64
16, 78960, Note_on_c, 15, 42, 109
16, 79057, Note_off_c, 15, 42, 64
16, 79066, Note_on_c, 15, 44, 87
16, 79194, Note_on_c, 15, 46, 82
16, 79212, Note_off_c, 15, 44, 64
16, 79275, Note_off_c, 15, 46, 64
16, 79430, Note_on_c, 15, 48, 82
16, 79511, Note_off_c, 15, 48, 64
16, 79671, Note_on_c, 15, 49, 94
16, 79808, Note_off_c, 15, 49, 64
16, 79909, Note_on_c, 15, 37, 94
16, 80007, Note_off_c, 15, 37, 64
16, 80149, Note_on_c, 15, 37, 94
16, 80221, Note_off_c, 15, 37, 64
16, 80397, Note_on_c, 15, 61, 94
16, 80495, Note_off_c, 15, 61, 64
16, 80505, Note_on_c, 15, 60, 65
16, 80633, Note_on_c, 15, 61, 66
16, 80644, Note_off_c, 15, 60, 64
16, 80735, Note_off_c, 15, 61, 64
16, 80871, Note_on_c, 15, 49, 94
16, 80947, Note_off_c, 15, 49, 64
16, 81112, Note_on_c, 15, 37, 94
16, 81188, Note_off_c, 15, 37, 64
16, 81356, Note_on_c, 15, 49, 94
16, 81458, Note_off_c, 15, 49, 64
16, 81464, Note_on_c, 15, 48, 68
16, 81597, Note_on_c, 15, 49, 71
16, 81611, Note_off_c, 15, 48, 64
16, 81696, Note_off_c, 15, 49, 64
16, 81833, Note_on_c, 15, 37, 94
16, 81922, Note_off_c, 15, 37, 64
16, 82074, Note_on_c, 15, 37, 94
16, 82145, Note_off_c, 15, 37, 64
16, 82315, Note_on_c, 15, 53, 102
16, 82402, Note_off_c, 15, 53, 64
16, 82553, Note_on_c, 15, 54, 114
16, 82739, Note_off_c, 15, 54, 64
16, 82793, Note_on_c, 15, 51, 94
16, 82885, Note_off_c, 15, 51, 64
16, 83029, Note_on_c, 15, 47, 94
16, 83140, Note_off_c, 15, 47, 64
16, 83276, Note_on_c, 15, 49, 94
16, 83359, Note_off_c, 15, 49, 64
16, 83521, Note_on_c, 15, 51, 105
16, 83699, Note_off_c, 15, 51, 64
16, 83762, Note_on_c, 15, 49, 94
16, 83840, Note_off_c, 15, 49, 64
16, 83878, Note_on_c, 15, 47, 94
16, 83957, Note_off_c, 15, 47, 64
16, 83999, Note_on_c, 15, 46, 102
16, 84189, Note_off_c, 15, 46, 64
16, 84237, Note_on_c, 15, 44, 94
16, 84317, Note_off_c, 15, 44, 64
16, 84351, Note_on_c, 15, 42, 99
16, 84421, Note_off_c, 15, 42, 64
16, 84476, Note_on_c, 15, 47, 99
16, 84659, Note_off_c, 15, 47, 64
16, 84717, Note_on_c, 15, 46, 94
16, 84801, Note_off_c, 15, 46, 64
16, 84830, Note_on_c, 15, 44, 94
16, 84896, Note_off_c, 15, 44, 64
16, 84956, Note_on_c, 15, 42, 75
16, 85091, Note_off_c, 15, 42, 64
16, 85198, Note_on_c, 15, 54, 109
16, 85274, Note_off_c, 15, 54, 64
16, 85307, Note_on_c, 15, 53, 90
16, 85376, Note_off_c, 15, 53, 64
16, 85430, Note_on_c, 15, 51, 94
16, 85603, Note_off_c, 15, 51, 64
16, 85673, Note_on_c, 15, 49, 94
16, 85766, Note_off_c, 15, 49, 64
16, 85781, Note_on_c, 15, 47, 94
16, 85866, Note_off_c, 15, 47, 64
16, 85906, Note_on_c, 15, 46, 94
16, 86037, Note_off_c, 15, 46, 64
16, 86154, Note_on_c, 15, 48, 91
16, 86248, Note_off_c, 15, 48, 64
16, 86393, Note_on_c, 15, 49, 94
16, 86533, Note_off_c, 15, 49, 64
16, 86636, Note_on_c, 15, 37, 94
16, 86737, Note_off_c, 15, 37, 64
16, 86872, Note_on_c, 15, 37, 94
16, 86951, Note_off_c, 15, 37, 64
16, 87116, Note_on_c, 15, 49, 94
16, 87214, Note_off_c, 15, 49, 64
16, 87233, Note_on_c, 15, 51, 94
16, 87325, Note_off_c, 15, 51, 64
16, 87356, Note_on_c, 15, 53, 80
16, 87515, Note_off_c, 15, 53, 64
16, 87591, Note_on_c, 15, 54, 94
16, 87701, Note_off_c, 15, 54, 64
16, 87833, Note_on_c, 15, 56, 94
16, 87929, Note_off_c, 15, 56, 64
16, 88074, Note_on_c, 15, 49, 94
16, 88172, Note_off_c, 15, 49, 64
16, 88317, Note_on_c, 15, 54, 94
16, 88459, Note_off_c, 15, 54, 64
16, 88556, Note_on_c, 15, 47, 94
16, 88653, Note_off_c, 15, 47, 64
16, 88798, Note_on_c, 15, 49, 94
16, 88882, Note_off_c, 15, 49, 64
16, 89041, Note_on_c, 15, 37, 94
16, 89130, Note_off_c, 15, 37, 64
16, 89285, Note_on_c, 15, 39, 104
16, 89635, Note_off_c, 15, 39, 64
16, 89999, Note_on_c, 15, 41, 88
16, 90073, Note_off_c, 15, 41, 64
16, 90240, Note_on_c, 15, 42, 94
16, 90407, Note_off_c, 15, 42, 64
16, 90477, Note_on_c, 15, 35, 94
16, 90557, Note_off_c, 15, 35, 64
16, 90713, Note_on_c, 15, 37, 94
16, 90780, Note_off_c, 15, 37, 64
16, 90954, Note_on_c, 15, 49, 94
16, 91013, Note_off_c, 15, 49, 64
16, 91204, Note_on_c, 15, 54, 94
16, 91405, Note_off_c, 15, 54, 64
16, 91434, Note_on_c, 15, 53, 74
16, 91548, Note_off_c, 15, 53, 64
16, 91552, Note_on_c, 15, 51, 94
16, 91637, Note_off_c, 15, 51, 64
16, 91675, Note_on_c, 15, 49, 94
16, 91764, Note_off_c, 15, 49, 64
16, 91791, Note_on_c, 15, 47, 94
16, 91880, Note_off_c, 15, 47, 64
16, 91914, Note_on_c, 15, 46, 82
16, 91979, Note_off_c, 15, 46, 64
16, 92029, Note_on_c, 15, 44, 94
16, 92102, Note_off_c, 15, 44, 64
16, 92156, Note_on_c, 15, 42, 94
16, 92344, Note_off_c, 15, 42, 64
16, 93102, Note_on_c, 15, 42, 68
16, 93320, Note_off_c, 15, 42, 64
16, 94072, Note_on_c, 15, 42, 50
16, 94288, Note_off_c, 15, 42, 64
16, 95036, Note_on_c, 15, 42, 74
16, 95267, Note_off_c, 15, 42, 64
16, 95989, Note_on_c, 15, 42, 90
16, 96218, Note_off_c, 15, 42, 64
16, 96947, Note_on_c, 15, 42, 87
16, 97179, Note_off_c, 15, 42, 64
16, 97914, Note_on_c, 15, 54, 94
16, 98035, Note_off_c, 15, 54, 64
16, 98159, Note_on_c, 15, 53, 80
16, 98268, Note_off_c, 15, 53, 64
16, 98401, Note_on_c, 15, 51, 94
16, 98497, Note_off_c, 15, 51, 64
16, 98645, Note_on_c, 15, 56, 94
16, 98732, Note_off_c, 15, 56, 64
16, 98896, Note_on_c, 15, 49, 94
16, 99076, Note_off_c, 15, 49, 64
16, 99127, Note_on_c, 15, 48, 82
16, 99211, Note_off_c, 15, 48, 64
16, 99246, Note_on_c, 15, 46, 94
16, 99320, Note_off_c, 15, 46, 64
16, 99367, Note_on_c, 15, 44, 94
16, 99458, Note_off_c, 15, 44, 64
16, 99486, Note_on_c, 15, 42, 94
16, 99542, Note_off_c, 15, 42, 64
16, 99605, Note_on_c, 15, 41, 87
16, 99652, Note_off_c, 15, 41, 64
16, 99721, Note_on_c, 15, 39, 94
16, 99785, Note_off_c, 15, 39, 64
16, 99847, Note_on_c, 15, 38, 63
16, 100036, Note_off_c, 15, 38, 64
16, 100793, Note_on_c, 15, 41, 73
16, 100990, Note_off_c, 15, 41, 64
16, 101752, Note_on_c, 15, 44, 76
16, 101965, Note_off_c, 15, 44, 64
16, 102714, Note_on_c, 15, 56, 73
16, 102912, Note_off_c, 15, 56, 64
16, 103672, Note_on_c, 15, 50, 67
16, 103882, Note_off_c, 15, 50, 64
16, 104628, Note_on_c, 15, 46, 80
16, 104828, Note_off_c, 15, 46, 64
16, 105592, Note_on_c, 15, 51, 80
16, 105804, Note_off_c, 15, 51, 64
16, 107764, Note_on_c, 15, 39, 127
16, 107862, Note_off_c, 15, 39, 64
16, 107875, Note_on_c, 15, 41, 127
16, 107983, Note_off_c, 15, 41, 64
16, 107997, Note_on_c, 15, 42, 94
16, 108152, Note_off_c, 15, 42, 64
16, 108245, Note_on_c, 15, 44, 115
16, 108347, Note_off_c, 15, 44, 64
16, 108485, Note_on_c, 15, 46, 119
16, 108607, Note_on_c, 15, 45, 68
16, 108628, Note_off_c, 15, 46, 64
16, 108716, Note_off_c, 15, 45, 64
16, 108724, Note_on_c, 15, 46, 94
16, 108793, Note_off_c, 15, 46, 64
16, 108835, Note_on_c, 15, 48, 80
16, 108899, Note_off_c, 15, 48, 64
16, 108955, Note_on_c, 15, 46, 109
16, 109025, Note_off_c, 15, 46, 64
16, 109073, Note_on_c, 15, 50, 94
16, 109139, Note_off_c, 15, 50, 64
16, 109190, Note_on_c, 15, 46, 109
16, 109260, Note_off_c, 15, 46, 64
16, 109305, Note_on_c, 15, 51, 95
16, 109376, Note_off_c, 15, 51, 64
16, 109432, Note_on_c, 15, 46, 118
16, 109548, Note_on_c, 15, 45, 80
16, 109568, Note_off_c, 15, 46, 64
16, 109667, Note_on_c, 15, 46, 94
16, 109673, Note_off_c, 15, 45, 64
16, 109750, Note_off_c, 15, 46, 64
16, 109788, Note_on_c, 15, 48, 104
16, 109853, Note_off_c, 15, 48, 64
16, 109910, Note_on_c, 15, 46, 109
16, 109984, Note_off_c, 15, 46, 64
16, 110027, Note_on_c, 15, 53, 93
16, 110097, Note_off_c, 15, 53, 64
16, 110146, Note_on_c, 15, 46, 109
16, 110216, Note_off_c, 15, 46, 64
16, 110262, Note_on_c, 15, 54, 102
16, 110331, Note_off_c, 15, 54, 64
16, 110393, Note_on_c, 15, 46, 127
16, 110511, Note_on_c, 15, 45, 75
16, 110537, Note_off_c, 15, 46, 64
16, 110627, Note_off_c, 15, 45, 64
16, 110628, Note_on_c, 15, 46, 94
16, 110720, Note_off_c, 15, 46, 64
16, 110751, Note_on_c, 15, 48, 106
16, 110824, Note_off_c, 15, 48, 64
16, 110872, Note_on_c, 15, 46, 108
16, 110957, Note_off_c, 15, 46, 64
16, 110990, Note_on_c, 15, 56, 104
16, 111066, Note_off_c, 15, 56, 64
16, 111105, Note_on_c, 15, 46, 127
16, 111179, Note_off_c, 15, 46, 64
16, 111221, Note_on_c, 15, 58, 108
16, 111285, Note_off_c, 15, 58, 64
16, 111347, Note_on_c, 15, 54, 118
16, 111548, Note_off_c, 15, 54, 64
16, 111590, Note_on_c, 15, 53, 108
16, 111693, Note_off_c, 15, 53, 64
16, 111701, Note_on_c, 15, 51, 95
16, 111790, Note_off_c, 15, 51, 64
16, 111824, Note_on_c, 15, 53, 119
16, 112007, Note_off_c, 15, 53, 64
16, 112077, Note_on_c, 15, 51, 106
16, 112174, Note_off_c, 15, 51, 64
16, 112187, Note_on_c, 15, 50, 119
16, 112282, Note_off_c, 15, 50, 64
16, 112315, Note_on_c, 15, 59, 127
16, 112629, Note_off_c, 15, 59, 64
16, 112676, Note_on_c, 15, 58, 101
16, 112780, Note_off_c, 15, 58, 64
16, 112797, Note_on_c, 15, 56, 101
16, 112887, Note_off_c, 15, 56, 64
16, 112912, Note_on_c, 15, 54, 109
16, 112993, Note_off_c, 15, 54, 64
16, 113029, Note_on_c, 15, 53, 108
16, 113115, Note_off_c, 15, 53, 64
16, 113142, Note_on_c, 15, 51, 95
16, 113225, Note_off_c, 15, 51, 64
16, 113269, Note_on_c, 15, 50, 106
16, 113435, Note_off_c, 15, 50, 64
16, 113510, Note_on_c, 15, 51, 94
16, 113615, Note_off_c, 15, 51, 64
16, 113747, Note_on_c, 15, 44, 94
16, 113838, Note_off_c, 15, 44, 64
16, 113996, Note_on_c, 15, 46, 94
16, 114079, Note_off_c, 15, 46, 64
16, 114241, Note_on_c, 15, 39, 94
16, 114530, Note_off_c, 15, 39, 64
16, 114949, Note_on_c, 15, 46, 61
16, 115019, Note_off_c, 15, 46, 64
16, 115194, Note_on_c, 15, 51, 66
16, 115446, Note_off_c, 15, 51, 64
16, 115910, Note_on_c, 15, 58, 60
16, 115998, Note_off_c, 15, 58, 64
16, 116152, Note_on_c, 15, 63, 68
16, 116413, Note_off_c, 15, 63, 64
16, 116875, Note_on_c, 15, 58, 57
16, 116958, Note_off_c, 15, 58, 64
16, 117119, Note_on_c, 15, 51, 79
16, 117230, Note_off_c, 15, 51, 64
16, 117235, Note_on_c, 15, 53, 62
16, 117290, Note_off_c, 15, 53, 64
16, 117353, Note_on_c, 15, 54, 79
16, 117412, Note_off_c, 15, 54, 64
16, 117467, Note_on_c, 15, 53, 63
16, 117516, Note_off_c, 15, 53, 64
16, 117586, Note_on_c, 15, 51, 79
16, 117656, Note_off_c, 15, 51, 64
16, 117703, Note_on_c, 15, 49, 79
16, 117772, Note_off_c, 15, 49, 64
16, 117830, Note_on_c, 15, 48, 79
16, 117877, Note_off_c, 15, 48, 64
16, 117948, Note_on_c, 15, 46, 62
16, 118000, Note_off_c, 15, 46, 64
16, 118079, Note_on_c, 15, 44, 66
16, 118315, Note_off_c, 15, 44, 64
16, 118785, Note_on_c, 15, 39, 58
16, 118866, Note_off_c, 15, 39, 64
16, 119034, Note_on_c, 15, 44, 73
16, 119292, Note_off_c, 15, 44, 64
16, 119752, Note_on_c, 15, 51, 62
16, 119835, Note_off_c, 15, 51, 64
16, 119991, Note_on_c, 15, 56, 79
16, 120239, Note_off_c, 15, 56, 64
16, 120713, Note_on_c, 15, 51, 58
16, 120783, Note_off_c, 15, 51, 64
16, 120964, Note_on_c, 15, 44, 87
16, 121047, Note_off_c, 15, 44, 64
16, 121074, Note_on_c, 15, 46, 79
16, 121146, Note_off_c, 15, 46, 64
16, 121194, Note_on_c, 15, 48, 81
16, 121254, Note_off_c, 15, 48, 64
16, 121315, Note_on_c, 15, 46, 79
16, 121376, Note_off_c, 15, 46, 64
16, 121433, Note_on_c, 15, 44, 85
16, 121519, Note_off_c, 15, 44, 64
16, 121554, Note_on_c, 15, 42, 79
16, 121612, Note_off_c, 15, 42, 64
16, 121672, Note_on_c, 15, 41, 75
16, 121733, Note_off_c, 15, 41, 64
16, 121789, Note_on_c, 15, 39, 64
16, 121863, Note_off_c, 15, 39, 64
16, 121919, Note_on_c, 15, 37, 64
16, 122178, Note_off_c, 15, 37, 64
16, 126477, Note_on_c, 15, 37, 123
16, 126567, Note_off_c, 15, 37, 64
16, 126718, Note_on_c, 15, 42, 115
16, 126991, Note_off_c, 15, 42, 64
16, 127438, Note_on_c, 15, 53, 95
16, 127509, Note_off_c, 15, 53, 64
16, 127684, Note_on_c, 15, 54, 112
16, 127756, Note_off_c, 15, 54, 64
16, 127798, Note_on_c, 15, 49, 94
16, 127867, Note_off_c, 15, 49, 64
16, 127919, Note_on_c, 15, 42, 108
16, 127992, Note_off_c, 15, 42, 64
16, 128037, Note_on_c, 15, 44, 101
16, 128094, Note_off_c, 15, 44, 64
16, 128163, Note_on_c, 15, 46, 94
16, 128262, Note_off_c, 15, 46, 64
16, 128277, Note_on_c, 15, 47, 94
16, 128354, Note_off_c, 15, 47, 64
16, 128396, Note_on_c, 15, 49, 94
16, 128449, Note_off_c, 15, 49, 64
16, 128514, Note_on_c, 15, 47, 94
16, 128577, Note_off_c, 15, 47, 64
16, 128643, Note_on_c, 15, 46, 94
16, 128739, Note_off_c, 15, 46, 64
16, 128763, Note_on_c, 15, 49, 94
16, 128819, Note_off_c, 15, 49, 64
16, 128878, Note_on_c, 15, 42, 94
16, 128939, Note_off_c, 15, 42, 64
16, 128998, Note_on_c, 15, 44, 94
16, 129049, Note_off_c, 15, 44, 64
16, 129124, Note_on_c, 15, 46, 95
16, 129216, Note_off_c, 15, 46, 64
16, 129241, Note_on_c, 15, 47, 94
16, 129308, Note_off_c, 15, 47, 64
16, 129359, Note_on_c, 15, 49, 94
16, 129407, Note_off_c, 15, 49, 64
16, 129475, Note_on_c, 15, 47, 94
16, 129533, Note_off_c, 15, 47, 64
16, 129600, Note_on_c, 15, 46, 94
16, 129696, Note_off_c, 15, 46, 64
16, 129717, Note_on_c, 15, 47, 94
16, 129783, Note_off_c, 15, 47, 64
16, 129839, Note_on_c, 15, 49, 94
16, 129890, Note_off_c, 15, 49, 64
16, 129957, Note_on_c, 15, 47, 94
16, 130019, Note_off_c, 15, 47, 64
16, 130079, Note_on_c, 15, 46, 99
16, 130148, Note_off_c, 15, 46, 64
16, 130197, Note_on_c, 15, 44, 95
16, 130258, Note_off_c, 15, 44, 64
16, 130314, Note_on_c, 15, 42, 94
16, 130386, Note_off_c, 15, 42, 64
16, 130437, Note_on_c, 15, 41, 85
16, 130491, Note_off_c, 15, 41, 64
16, 130556, Note_on_c, 15, 39, 85
16, 130767, Note_off_c, 15, 39, 64
16, 131516, Note_on_c, 15, 39, 79
16, 131712, Note_off_c, 15, 39, 64
16, 132468, Note_on_c, 15, 51, 78
16, 132640, Note_off_c, 15, 51, 64
16, 133439, Note_on_c, 15, 51, 86
16, 133599, Note_off_c, 15, 51, 64
16, 134390, Note_on_c, 15, 45, 62
16, 134630, Note_off_c, 15, 45, 64
16, 135339, Note_on_c, 15, 41, 72
16, 135578, Note_off_c, 15, 41, 64
16, 136314, Note_on_c, 15, 46, 123
16, 136454, Note_off_c, 15, 46, 64
16, 136552, Note_on_c, 15, 58, 94
16, 136614, Note_off_c, 15, 58, 64
16, 136790, Note_on_c, 15, 58, 95
16, 136858, Note_off_c, 15, 58, 64
16, 137036, Note_on_c, 15, 46, 101
16, 137112, Note_off_c, 15, 46, 64
16, 137278, Note_on_c, 15, 46, 127
16, 137412, Note_off_c, 15, 46, 64
16, 137514, Note_on_c, 15, 58, 94
16, 137592, Note_off_c, 15, 58, 64
16, 137757, Note_on_c, 15, 58, 109
16, 137863, Note_off_c, 15, 58, 64
16, 137997, Note_on_c, 15, 46, 101
16, 138074, Note_off_c, 15, 46, 64
16, 138236, Note_on_c, 15, 46, 119
16, 138388, Note_off_c, 15, 46, 64
16, 138478, Note_on_c, 15, 58, 118
16, 138577, Note_off_c, 15, 58, 64
16, 138594, Note_on_c, 15, 56, 94
16, 138689, Note_off_c, 15, 56, 64
16, 138713, Note_on_c, 15, 54, 95
16, 138920, Note_off_c, 15, 54, 64
16, 138958, Note_on_c, 15, 53, 112
16, 139051, Note_off_c, 15, 53, 64
16, 139073, Note_on_c, 15, 51, 95
16, 139160, Note_off_c, 15, 51, 64
16, 139201, Note_on_c, 15, 49, 113
16, 139385, Note_off_c, 15, 49, 64
16, 139449, Note_on_c, 15, 48, 106
16, 139533, Note_off_c, 15, 48, 64
16, 139557, Note_on_c, 15, 46, 94
16, 139624, Note_off_c, 15, 46, 64
16, 139678, Note_on_c, 15, 45, 87
16, 139791, Note_off_c, 15, 45, 64
16, 139926, Note_on_c, 15, 41, 119
16, 140018, Note_off_c, 15, 41, 64
16, 140165, Note_on_c, 15, 46, 123
16, 140293, Note_off_c, 15, 46, 64
16, 140402, Note_on_c, 15, 58, 118
16, 140497, Note_off_c, 15, 58, 64
16, 140511, Note_on_c, 15, 56, 94
16, 140623, Note_off_c, 15, 56, 64
16, 140641, Note_on_c, 15, 54, 115
16, 140803, Note_off_c, 15, 54, 64
16, 140876, Note_on_c, 15, 53, 108
16, 140958, Note_off_c, 15, 53, 64
16, 140988, Note_on_c, 15, 51, 94
16, 141081, Note_off_c, 15, 51, 64
16, 141118, Note_on_c, 15, 49, 101
16, 141236, Note_on_c, 15, 48, 88
16, 141249, Note_off_c, 15, 49, 64
16, 141360, Note_on_c, 15, 49, 94
16, 141369, Note_off_c, 15, 48, 64
16, 141436, Note_off_c, 15, 49, 64
16, 141480, Note_on_c, 15, 51, 109
16, 141551, Note_off_c, 15, 51, 64
16, 141598, Note_on_c, 15, 49, 109
16, 141677, Note_off_c, 15, 49, 64
16, 141716, Note_on_c, 15, 51, 94
16, 141786, Note_off_c, 15, 51, 64
16, 141833, Note_on_c, 15, 49, 99
16, 141914, Note_off_c, 15, 49, 64
16, 141955, Note_on_c, 15, 48, 106
16, 142026, Note_off_c, 15, 48, 64
16, 142078, Note_on_c, 15, 46, 113
16, 142229, Note_off_c, 15, 46, 64
16, 142315, Note_on_c, 15, 54, 99
16, 142420, Note_off_c, 15, 54, 64
16, 142552, Note_on_c, 15, 51, 109
16, 142657, Note_off_c, 15, 51, 64
16, 142796, Note_on_c, 15, 53, 110
16, 142881, Note_off_c, 15, 53, 64
16, 143042, Note_on_c, 15, 54, 127
16, 143343, Note_off_c, 15, 54, 64
16, 143411, Note_on_c, 15, 53, 110
16, 143465, Note_off_c, 15, 53, 64
16, 143523, Note_on_c, 15, 51, 106
16, 143585, Note_off_c, 15, 51, 64
16, 143632, Note_on_c, 15, 49, 106
16, 143706, Note_off_c, 15, 49, 64
16, 143755, Note_on_c, 15, 48, 119
16, 143825, Note_off_c, 15, 48, 64
16, 143869, Note_on_c, 15, 46, 95
16, 143939, Note_off_c, 15, 46, 64
16, 143997, Note_on_c, 15, 49, 94
16, 144153, Note_off_c, 15, 49, 64
16, 144234, Note_on_c, 15, 51, 94
16, 144310, Note_off_c, 15, 51, 64
16, 144473, Note_on_c, 15, 53, 71
16, 144566, Note_off_c, 15, 53, 64
16, 144713, Note_on_c, 15, 41, 80
16, 144814, Note_off_c, 15, 41, 64
16, 144953, Note_on_c, 15, 46, 94
16, 145076, Note_off_c, 15, 46, 64
16, 147607, Note_on_c, 15, 46, 94
16, 147699, Note_off_c, 15, 46, 64
16, 147717, Note_on_c, 15, 48, 71
16, 147823, Note_off_c, 15, 48, 64
16, 147839, Note_on_c, 15, 49, 75
16, 147936, Note_off_c, 15, 49, 64
16, 148085, Note_on_c, 15, 54, 94
16, 148183, Note_off_c, 15, 54, 64
16, 148196, Note_on_c, 15, 53, 72
16, 148300, Note_off_c, 15, 53, 64
16, 148316, Note_on_c, 15, 54, 73
16, 148432, Note_off_c, 15, 54, 64
16, 148564, Note_on_c, 15, 48, 93
16, 148659, Note_off_c, 15, 48, 64
16, 148676, Note_on_c, 15, 46, 78
16, 148784, Note_off_c, 15, 46, 64
16, 148797, Note_on_c, 15, 48, 67
16, 148913, Note_off_c, 15, 48, 64
16, 149043, Note_on_c, 15, 53, 79
16, 149149, Note_off_c, 15, 53, 64
16, 149154, Note_on_c, 15, 51, 86
16, 149275, Note_on_c, 15, 53, 66
16, 149276, Note_off_c, 15, 51, 64
16, 149370, Note_off_c, 15, 53, 64
16, 149524, Note_on_c, 15, 46, 94
16, 149636, Note_on_c, 15, 45, 85
16, 149642, Note_off_c, 15, 46, 64
16, 149745, Note_off_c, 15, 45, 64
16, 149754, Note_on_c, 15, 46, 78
16, 149918, Note_off_c, 15, 46, 64
16, 149994, Note_on_c, 15, 51, 94
16, 150072, Note_off_c, 15, 51, 64
16, 150232, Note_on_c, 15, 53, 82
16, 150303, Note_off_c, 15, 53, 64
16, 150470, Note_on_c, 15, 41, 79
16, 150546, Note_off_c, 15, 41, 64
16, 150714, Note_on_c, 15, 46, 94
16, 150867, Note_off_c, 15, 46, 64
16, 150956, Note_on_c, 15, 47, 94
16, 151039, Note_off_c, 15, 47, 64
16, 151195, Note_on_c, 15, 46, 94
16, 151279, Note_off_c, 15, 46, 64
16, 151441, Note_on_c, 15, 44, 87
16, 151521, Note_off_c, 15, 44, 64
16, 151683, Note_on_c, 15, 42, 71
16, 151948, Note_off_c, 15, 42, 64
16, 155523, Note_on_c, 15, 49, 86
16, 155616, Note_off_c, 15, 49, 64
16, 155754, Note_on_c, 15, 48, 67
16, 155840, Note_off_c, 15, 48, 64
16, 155997, Note_on_c, 15, 49, 86
16, 156078, Note_off_c, 15, 49, 64
16, 156238, Note_on_c, 15, 51, 86
16, 156308, Note_off_c, 15, 51, 64
16, 156481, Note_on_c, 15, 53, 74
16, 156581, Note_off_c, 15, 53, 64
16, 156716, Note_on_c, 15, 54, 86
16, 156790, Note_off_c, 15, 54, 64
16, 156951, Note_on_c, 15, 53, 71
16, 157024, Note_off_c, 15, 53, 64
16, 157196, Note_on_c, 15, 51, 86
16, 157271, Note_off_c, 15, 51, 64
16, 157439, Note_on_c, 15, 49, 86
16, 157559, Note_off_c, 15, 49, 64
16, 157674, Note_on_c, 15, 48, 69
16, 157737, Note_off_c, 15, 48, 64
16, 157914, Note_on_c, 15, 46, 86
16, 157975, Note_off_c, 15, 46, 64
16, 158153, Note_on_c, 15, 51, 86
16, 158222, Note_off_c, 15, 51, 64
16, 158398, Note_on_c, 15, 44, 86
16, 158635, Note_off_c, 15, 44, 64
16, 159114, Note_on_c, 15, 44, 86
16, 159187, Note_off_c, 15, 44, 64
16, 159359, Note_on_c, 15, 49, 86
16, 159498, Note_off_c, 15, 49, 64
16, 159594, Note_on_c, 15, 37, 86
16, 159666, Note_off_c, 15, 37, 64
16, 159835, Note_on_c, 15, 41, 72
16, 159896, Note_off_c, 15, 41, 64
16, 160073, Note_on_c, 15, 44, 86
16, 160139, Note_off_c, 15, 44, 64
16, 160312, Note_on_c, 15, 49, 86
16, 160526, Note_off_c, 15, 49, 64
16, 161028, Note_on_c, 15, 49, 86
16, 161107, Note_off_c, 15, 49, 64
16, 161270, Note_on_c, 15, 54, 86
16, 161384, Note_off_c, 15, 54, 64
16, 161513, Note_on_c, 15, 42, 86
16, 161605, Note_off_c, 15, 42, 64
16, 161752, Note_on_c, 15, 46, 86
16, 161824, Note_off_c, 15, 46, 64
16, 161992, Note_on_c, 15, 49, 91
16, 162065, Note_off_c, 15, 49, 64
16, 162230, Note_on_c, 15, 54, 86
16, 162466, Note_off_c, 15, 54, 64
16, 162946, Note_on_c, 15, 46, 86
16, 163021, Note_off_c, 15, 46, 64
16, 163188, Note_on_c, 15, 51, 86
16, 163308, Note_off_c, 15, 51, 64
16, 163428, Note_on_c, 15, 39, 86
16, 163507, Note_off_c, 15, 39, 64
16, 163666, Note_on_c, 15, 42, 86
16, 163734, Note_off_c, 15, 42, 64
16, 163909, Note_on_c, 15, 46, 86
16, 163976, Note_off_c, 15, 46, 64
16, 164148, Note_on_c, 15, 51, 86
16, 164387, Note_off_c, 15, 51, 64
16, 164873, Note_on_c, 15, 42, 86
16, 164966, Note_off_c, 15, 42, 64
16, 165115, Note_on_c, 15, 47, 86
16, 165257, Note_off_c, 15, 47, 64
16, 165351, Note_on_c, 15, 49, 86
16, 165416, Note_off_c, 15, 49, 64
16, 165589, Note_on_c, 15, 42, 90
16, 165675, Note_off_c, 15, 42, 64
16, 165830, Note_on_c, 15, 47, 86
16, 165911, Note_off_c, 15, 47, 64
16, 166070, Note_on_c, 15, 49, 86
16, 166211, Note_off_c, 15, 49, 64
16, 166315, Note_on_c, 15, 47, 87
16, 166434, Note_off_c, 15, 47, 64
16, 166553, Note_on_c, 15, 46, 104
16, 166668, Note_off_c, 15, 46, 64
16, 166792, Note_on_c, 15, 44, 99
16, 166890, Note_off_c, 15, 44, 64
16, 167035, Note_on_c, 15, 42, 127
16, 167203, Note_off_c, 15, 42, 64
16, 167269, Note_on_c, 15, 54, 94
16, 167333, Note_off_c, 15, 54, 64
16, 167509, Note_on_c, 15, 54, 107
16, 167577, Note_off_c, 15, 54, 64
16, 167751, Note_on_c, 15, 42, 104
16, 167824, Note_off_c, 15, 42, 64
16, 167989, Note_on_c, 15, 42, 118
16, 168171, Note_off_c, 15, 42, 64
16, 168233, Note_on_c, 15, 54, 94
16, 168300, Note_off_c, 15, 54, 64
16, 168472, Note_on_c, 15, 54, 109
16, 168544, Note_off_c, 15, 54, 64
16, 168709, Note_on_c, 15, 42, 107
16, 168792, Note_off_c, 15, 42, 64
16, 168950, Note_on_c, 15, 42, 118
16, 169088, Note_off_c, 15, 42, 64
16, 169199, Note_on_c, 15, 54, 107
16, 169297, Note_off_c, 15, 54, 64
16, 169309, Note_on_c, 15, 53, 88
16, 169430, Note_on_c, 15, 51, 101
16, 169431, Note_off_c, 15, 53, 64
16, 169526, Note_off_c, 15, 51, 64
16, 169673, Note_on_c, 15, 56, 119
16, 169753, Note_off_c, 15, 56, 64
16, 169912, Note_on_c, 15, 61, 119
16, 170101, Note_off_c, 15, 61, 64
16, 170157, Note_on_c, 15, 59, 99
16, 170301, Note_off_c, 15, 59, 64
16, 170390, Note_on_c, 15, 58, 95
16, 170541, Note_off_c, 15, 58, 64
16, 170636, Note_on_c, 15, 56, 107
16, 170772, Note_off_c, 15, 56, 64
16, 170872, Note_on_c, 15, 54, 101
16, 171014, Note_off_c, 15, 54, 64
16, 171113, Note_on_c, 15, 52, 94
16, 171244, Note_off_c, 15, 52, 64
16, 171353, Note_on_c, 15, 51, 104
16, 171458, Note_off_c, 15, 51, 64
16, 171594, Note_on_c, 15, 49, 95
16, 171706, Note_off_c, 15, 49, 64
16, 171832, Note_on_c, 15, 59, 106
16, 172015, Note_off_c, 15, 59, 64
16, 172072, Note_on_c, 15, 57, 88
16, 172188, Note_off_c, 15, 57, 64
16, 172316, Note_on_c, 15, 56, 98
16, 172436, Note_off_c, 15, 56, 64
16, 172553, Note_on_c, 15, 54, 101
16, 172678, Note_off_c, 15, 54, 64
16, 172793, Note_on_c, 15, 53, 99
16, 172960, Note_off_c, 15, 53, 64
16, 173028, Note_on_c, 15, 51, 94
16, 173152, Note_off_c, 15, 51, 64
16, 173271, Note_on_c, 15, 49, 94
16, 173393, Note_off_c, 15, 49, 64
16, 173509, Note_on_c, 15, 48, 90
16, 173619, Note_off_c, 15, 48, 64
16, 173753, Note_on_c, 15, 58, 109
16, 173930, Note_off_c, 15, 58, 64
16, 173987, Note_on_c, 15, 56, 94
16, 174120, Note_off_c, 15, 56, 64
16, 174220, Note_on_c, 15, 54, 94
16, 174353, Note_off_c, 15, 54, 64
16, 174463, Note_on_c, 15, 53, 90
16, 174574, Note_off_c, 15, 53, 64
16, 174705, Note_on_c, 15, 51, 108
16, 174869, Note_off_c, 15, 51, 64
16, 174945, Note_on_c, 15, 49, 99
16, 175057, Note_off_c, 15, 49, 64
16, 175183, Note_on_c, 15, 47, 101
16, 175293, Note_off_c, 15, 47, 64
16, 175428, Note_on_c, 15, 46, 94
16, 175532, Note_off_c, 15, 46, 64
16, 175669, Note_on_c, 15, 44, 101
16, 175839, Note_off_c, 15, 44, 64
16, 175915, Note_on_c, 15, 42, 94
16, 176009, Note_off_c, 15, 42, 64
16, 176156, Note_on_c, 15, 40, 94
16, 176251, Note_off_c, 15, 40, 64
16, 176405, Note_on_c, 15, 39, 94
16, 176481, Note_off_c, 15, 39, 64
16, 176648, Note_on_c, 15, 37, 88
16, 176895, Note_off_c, 15, 37, 64
16, 178562, Note_on_c, 15, 38, 68
16, 178822, Note_off_c, 15, 38, 64
16, 180471, Note_on_c, 15, 39, 86
16, 180719, Note_off_c, 15, 39, 64
16, 182384, Note_on_c, 15, 39, 94
16, 182642, Note_off_c, 15, 39, 64
16, 184318, Note_on_c, 15, 39, 94
16, 184529, Note_off_c, 15, 39, 64
16, 186240, Note_on_c, 15, 39, 94
16, 186521, Note_off_c, 15, 39, 64
16, 188160, Note_on_c, 15, 44, 94
16, 188257, Note_off_c, 15, 44, 64
16, 189837, Note_on_c, 15, 56, 94
16, 189890, Note_off_c, 15, 56, 64
16, 190077, Note_on_c, 15, 42, 113
16, 190234, Note_off_c, 15, 42, 64
16, 191750, Note_on_c, 15, 54, 94
16, 191807, Note_off_c, 15, 54, 64
16, 191992, Note_on_c, 15, 40, 101
16, 192186, Note_off_c, 15, 40, 64
16, 193681, Note_on_c, 15, 52, 94
16, 193745, Note_off_c, 15, 52, 64
16, 193919, Note_on_c, 15, 39, 104
16, 194053, Note_off_c, 15, 39, 64
16, 194156, Note_on_c, 15, 51, 94
16, 194211, Note_off_c, 15, 51, 64
16, 194398, Note_on_c, 15, 51, 94
16, 194459, Note_off_c, 15, 51, 64
16, 194638, Note_on_c, 15, 39, 94
16, 194703, Note_off_c, 15, 39, 64
16, 194875, Note_on_c, 15, 39, 108
16, 194990, Note_off_c, 15, 39, 64
16, 195115, Note_on_c, 15, 51, 94
16, 195180, Note_off_c, 15, 51, 64
16, 195355, Note_on_c, 15, 51, 94
16, 195448, Note_off_c, 15, 51, 64
16, 195596, Note_on_c, 15, 49, 94
16, 195669, Note_off_c, 15, 49, 64
16, 195832, Note_on_c, 15, 47, 94
16, 195974, Note_off_c, 15, 47, 64
16, 196077, Note_on_c, 15, 49, 94
16, 196164, Note_off_c, 15, 49, 64
16, 196314, Note_on_c, 15, 51, 98
16, 196387, Note_off_c, 15, 51, 64
16, 196561, Note_on_c, 15, 39, 95
16, 196629, Note_off_c, 15, 39, 64
16, 196800, Note_on_c, 15, 44, 94
16, 197063, Note_off_c, 15, 44, 64
16, 197520, Note_on_c, 15, 56, 113
16, 197594, Note_off_c, 15, 56, 64
16, 197637, Note_on_c, 15, 55, 104
16, 197697, Note_off_c, 15, 55, 64
16, 197758, Note_on_c, 15, 56, 107
16, 197849, Note_off_c, 15, 56, 64
16, 197999, Note_on_c, 15, 51, 94
16, 198109, Note_off_c, 15, 51, 64
16, 198117, Note_on_c, 15, 49, 94
16, 198177, Note_off_c, 15, 49, 64
16, 198236, Note_on_c, 15, 51, 94
16, 198338, Note_off_c, 15, 51, 64
16, 198476, Note_on_c, 15, 56, 115
16, 198568, Note_off_c, 15, 56, 64
16, 198594, Note_on_c, 15, 55, 104
16, 198697, Note_off_c, 15, 55, 64
16, 198715, Note_on_c, 15, 56, 94
16, 198799, Note_off_c, 15, 56, 64
16, 198956, Note_on_c, 15, 47, 113
16, 199035, Note_off_c, 15, 47, 64
16, 199074, Note_on_c, 15, 46, 94
16, 199177, Note_off_c, 15, 46, 64
16, 199192, Note_on_c, 15, 47, 94
16, 199333, Note_off_c, 15, 47, 64
16, 199439, Note_on_c, 15, 56, 119
16, 199532, Note_off_c, 15, 56, 64
16, 199555, Note_on_c, 15, 55, 98
16, 199664, Note_off_c, 15, 55, 64
16, 199675, Note_on_c, 15, 56, 101
16, 199777, Note_off_c, 15, 56, 64
16, 199917, Note_on_c, 15, 44, 109
16, 200004, Note_off_c, 15, 44, 64
16, 200027, Note_on_c, 15, 46, 99
16, 200116, Note_off_c, 15, 46, 64
16, 200146, Note_on_c, 15, 48, 106
16, 200282, Note_off_c, 15, 48, 64
16, 200394, Note_on_c, 15, 50, 127
16, 200487, Note_off_c, 15, 50, 64
16, 200633, Note_on_c, 15, 51, 123
16, 200760, Note_off_c, 15, 51, 64
16, 200883, Note_on_c, 15, 39, 115
16, 200970, Note_off_c, 15, 39, 64
16, 201359, Note_on_c, 15, 51, 123
16, 201463, Note_off_c, 15, 51, 64
16, 201475, Note_on_c, 15, 50, 87
16, 201589, Note_off_c, 15, 50, 64
16, 201597, Note_on_c, 15, 51, 94
16, 201724, Note_off_c, 15, 51, 64
16, 201842, Note_on_c, 15, 46, 109
16, 201926, Note_off_c, 15, 46, 64
16, 201958, Note_on_c, 15, 44, 94
16, 202065, Note_off_c, 15, 44, 64
16, 202076, Note_on_c, 15, 46, 94
16, 202163, Note_off_c, 15, 46, 64
16, 202318, Note_on_c, 15, 51, 119
16, 202424, Note_off_c, 15, 51, 64
16, 202436, Note_on_c, 15, 50, 98
16, 202536, Note_off_c, 15, 50, 64
16, 202556, Note_on_c, 15, 51, 99
16, 202696, Note_off_c, 15, 51, 64
16, 202797, Note_on_c, 15, 42, 94
16, 202894, Note_off_c, 15, 42, 64
16, 202915, Note_on_c, 15, 41, 94
16, 202964, Note_off_c, 15, 41, 64
16, 203037, Note_on_c, 15, 42, 94
16, 203117, Note_off_c, 15, 42, 64
16, 203281, Note_on_c, 15, 51, 115
16, 203390, Note_off_c, 15, 51, 64
16, 203398, Note_on_c, 15, 50, 104
16, 203508, Note_off_c, 15, 50, 64
16, 203518, Note_on_c, 15, 51, 98
16, 203639, Note_off_c, 15, 51, 64
16, 203756, Note_on_c, 15, 39, 108
16, 203833, Note_off_c, 15, 39, 64
16, 203866, Note_on_c, 15, 41, 104
16, 203978, Note_off_c, 15, 41, 64
16, 203987, Note_on_c, 15, 42, 94
16, 204139, Note_off_c, 15, 42, 64
16, 204237, Note_on_c, 15, 44, 109
16, 204346, Note_off_c, 15, 44, 64
16, 204482, Note_on_c, 15, 46, 113
16, 204578, Note_off_c, 15, 46, 64
16, 204594, Note_on_c, 15, 44, 94
16, 204706, Note_off_c, 15, 44, 64
16, 204711, Note_on_c, 15, 46, 98
16, 204803, Note_off_c, 15, 46, 64
16, 204831, Note_on_c, 15, 47, 108
16, 204914, Note_off_c, 15, 47, 64
16, 204951, Note_on_c, 15, 46, 115
16, 205018, Note_off_c, 15, 46, 64
16, 205067, Note_on_c, 15, 47, 119
16, 205133, Note_off_c, 15, 47, 64
16, 205189, Note_on_c, 15, 46, 113
16, 205254, Note_off_c, 15, 46, 64
16, 205308, Note_on_c, 15, 44, 123
16, 205367, Note_off_c, 15, 44, 64
16, 205435, Note_on_c, 15, 42, 127
16, 205853, Note_off_c, 15, 42, 64
16, 206148, Note_on_c, 15, 49, 112
16, 206231, Note_off_c, 15, 49, 64
16, 206398, Note_on_c, 15, 54, 127
16, 206516, Note_off_c, 15, 54, 64
16, 206517, Note_on_c, 15, 53, 93
16, 206628, Note_off_c, 15, 53, 64
16, 206636, Note_on_c, 15, 54, 109
16, 206715, Note_off_c, 15, 54, 64
16, 206755, Note_on_c, 15, 56, 106
16, 206831, Note_off_c, 15, 56, 64
16, 206873, Note_on_c, 15, 54, 98
16, 206960, Note_off_c, 15, 54, 64
16, 206996, Note_on_c, 15, 58, 94
16, 207076, Note_off_c, 15, 58, 64
16, 207115, Note_on_c, 15, 56, 94
16, 207191, Note_off_c, 15, 56, 64
16, 207229, Note_on_c, 15, 59, 99
16, 207297, Note_off_c, 15, 59, 64
16, 207354, Note_on_c, 15, 58, 102
16, 207452, Note_off_c, 15, 58, 64
16, 207470, Note_on_c, 15, 59, 99
16, 207544, Note_off_c, 15, 59, 64
16, 207588, Note_on_c, 15, 58, 104
16, 207651, Note_off_c, 15, 58, 64
16, 207708, Note_on_c, 15, 56, 106
16, 207774, Note_off_c, 15, 56, 64
16, 207830, Note_on_c, 15, 54, 115
16, 207911, Note_off_c, 15, 54, 64
16, 207952, Note_on_c, 15, 58, 94
16, 208011, Note_off_c, 15, 58, 64
16, 208070, Note_on_c, 15, 56, 108
16, 208139, Note_off_c, 15, 56, 64
16, 208187, Note_on_c, 15, 54, 109
16, 208262, Note_off_c, 15, 54, 64
16, 208311, Note_on_c, 15, 53, 110
16, 208397, Note_off_c, 15, 53, 64
16, 208430, Note_on_c, 15, 58, 107
16, 208506, Note_off_c, 15, 58, 64
16, 208549, Note_on_c, 15, 56, 95
16, 208624, Note_off_c, 15, 56, 64
16, 208670, Note_on_c, 15, 54, 109
16, 208740, Note_off_c, 15, 54, 64
16, 208795, Note_on_c, 15, 53, 110
16, 208875, Note_off_c, 15, 53, 64
16, 208910, Note_on_c, 15, 54, 95
16, 208973, Note_off_c, 15, 54, 64
16, 209029, Note_on_c, 15, 53, 98
16, 209081, Note_off_c, 15, 53, 64
16, 209146, Note_on_c, 15, 51, 89
16, 209211, Note_off_c, 15, 51, 64
16, 209274, Note_on_c, 15, 49, 75
16, 209498, Note_off_c, 15, 49, 64
16, 210238, Note_on_c, 15, 49, 66
16, 210512, Note_off_c, 15, 49, 64
16, 211194, Note_on_c, 15, 42, 59
16, 211471, Note_off_c, 15, 42, 64
16, 212156, Note_on_c, 15, 42, 80
16, 212440, Note_off_c, 15, 42, 64
16, 213113, Note_on_c, 15, 43, 65
16, 213391, Note_off_c, 15, 43, 64
16, 214076, Note_on_c, 15, 43, 62
16, 214334, Note_off_c, 15, 43, 64
16, 215032, Note_on_c, 15, 44, 72
16, 215328, Note_off_c, 15, 44, 64
16, 215999, Note_on_c, 15, 44, 63
16, 216297, Note_off_c, 15, 44, 64
16, 216961, Note_on_c, 15, 41, 60
16, 217182, Note_off_c, 15, 41, 64
16, 217917, Note_on_c, 15, 41, 50
16, 218175, Note_off_c, 15, 41, 64
16, 218876, Note_on_c, 15, 40, 66
16, 219157, Note_off_c, 15, 40, 64
16, 219838, Note_on_c, 15, 40, 65
16, 220161, Note_off_c, 15, 40, 64
16, 220800, Note_on_c, 15, 36, 127
16, 220910, Note_off_c, 15, 36, 64
16, 220917, Note_on_c, 15, 37, 93
16, 221034, Note_on_c, 15, 36, 68
16, 221036, Note_off_c, 15, 37, 64
16, 221095, Note_off_c, 15, 36, 64
16, 221164, Note_on_c, 15, 57, 124
16, 221235, Note_off_c, 15, 57, 64
16, 221277, Note_on_c, 15, 54, 94
16, 221342, Note_off_c, 15, 54, 64
16, 221394, Note_on_c, 15, 51, 94
16, 221473, Note_off_c, 15, 51, 64
16, 221510, Note_on_c, 15, 48, 74
16, 221599, Note_off_c, 15, 48, 64
16, 221640, Note_on_c, 15, 42, 94
16, 221713, Note_off_c, 15, 42, 64
16, 221763, Note_on_c, 15, 36, 127
16, 221878, Note_off_c, 15, 36, 64
16, 221880, Note_on_c, 15, 37, 94
16, 221991, Note_off_c, 15, 37, 64
16, 221998, Note_on_c, 15, 36, 61
16, 222053, Note_off_c, 15, 36, 64
16, 222122, Note_on_c, 15, 57, 116
16, 222181, Note_off_c, 15, 57, 64
16, 222239, Note_on_c, 15, 54, 123
16, 222315, Note_off_c, 15, 54, 64
16, 222355, Note_on_c, 15, 51, 104
16, 222422, Note_off_c, 15, 51, 64
16, 222465, Note_on_c, 15, 48, 72
16, 222548, Note_off_c, 15, 48, 64
16, 222595, Note_on_c, 15, 42, 94
16, 222662, Note_off_c, 15, 42, 64
16, 222719, Note_on_c, 15, 37, 119
16, 222835, Note_on_c, 15, 38, 68
16, 222854, Note_off_c, 15, 37, 64
16, 222935, Note_off_c, 15, 38, 64
16, 222952, Note_on_c, 15, 37, 87
16, 223029, Note_off_c, 15, 37, 64
16, 223072, Note_on_c, 15, 57, 106
16, 223140, Note_off_c, 15, 57, 64
16, 223193, Note_on_c, 15, 54, 123
16, 223291, Note_off_c, 15, 54, 64
16, 223310, Note_on_c, 15, 49, 101
16, 223388, Note_off_c, 15, 49, 64
16, 223427, Note_on_c, 15, 45, 85
16, 223489, Note_off_c, 15, 45, 64
16, 223546, Note_on_c, 15, 42, 99
16, 223604, Note_off_c, 15, 42, 64
16, 223666, Note_on_c, 15, 37, 113
16, 223786, Note_on_c, 15, 38, 73
16, 223799, Note_off_c, 15, 37, 64
16, 223899, Note_off_c, 15, 38, 64
16, 223910, Note_on_c, 15, 37, 94
16, 223982, Note_off_c, 15, 37, 64
16, 224038, Note_on_c, 15, 57, 116
16, 224104, Note_off_c, 15, 57, 64
16, 224159, Note_on_c, 15, 54, 127
16, 224247, Note_off_c, 15, 54, 64
16, 224271, Note_on_c, 15, 49, 101
16, 224343, Note_off_c, 15, 49, 64
16, 224387, Note_on_c, 15, 45, 80
16, 224463, Note_off_c, 15, 45, 64
16, 224508, Note_on_c, 15, 42, 94
16, 224579, Note_off_c, 15, 42, 64
16, 224642, Note_on_c, 15, 37, 113
16, 224757, Note_on_c, 15, 38, 68
16, 224775, Note_off_c, 15, 37, 64
16, 224849, Note_off_c, 15, 38, 64
16, 224876, Note_on_c, 15, 37, 86
16, 224937, Note_off_c, 15, 37, 64
16, 224998, Note_on_c, 15, 60, 116
16, 225064, Note_off_c, 15, 60, 64
16, 225117, Note_on_c, 15, 57, 124
16, 225206, Note_off_c, 15, 57, 64
16, 225231, Note_on_c, 15, 54, 108
16, 225312, Note_off_c, 15, 54, 64
16, 225355, Note_on_c, 15, 51, 101
16, 225408, Note_off_c, 15, 51, 64
16, 225470, Note_on_c, 15, 48, 116
16, 225521, Note_off_c, 15, 48, 64
16, 225601, Note_on_c, 15, 37, 113
16, 225716, Note_on_c, 15, 38, 72
16, 225730, Note_off_c, 15, 37, 64
16, 225822, Note_off_c, 15, 38, 64
16, 225833, Note_on_c, 15, 37, 94
16, 225897, Note_off_c, 15, 37, 64
16, 225955, Note_on_c, 15, 60, 124
16, 226022, Note_off_c, 15, 60, 64
16, 226076, Note_on_c, 15, 57, 127
16, 226154, Note_off_c, 15, 57, 64
16, 226190, Note_on_c, 15, 54, 98
16, 226253, Note_off_c, 15, 54, 64
16, 226303, Note_on_c, 15, 51, 94
16, 226376, Note_off_c, 15, 51, 64
16, 226423, Note_on_c, 15, 48, 104
16, 226494, Note_off_c, 15, 48, 64
16, 226561, Note_on_c, 15, 37, 119
16, 226678, Note_on_c, 15, 38, 74
16, 226703, Note_off_c, 15, 37, 64
16, 226795, Note_off_c, 15, 38, 64
16, 226798, Note_on_c, 15, 37, 94
16, 226867, Note_off_c, 15, 37, 64
16, 226916, Note_on_c, 15, 61, 113
16, 226987, Note_off_c, 15, 61, 64
16, 227038, Note_on_c, 15, 57, 127
16, 227128, Note_off_c, 15, 57, 64
16, 227153, Note_on_c, 15, 54, 101
16, 227214, Note_off_c, 15, 54, 64
16, 227266, Note_on_c, 15, 49, 94
16, 227333, Note_off_c, 15, 49, 64
16, 227387, Note_on_c, 15, 45, 110
16, 227444, Note_off_c, 15, 45, 64
16, 227523, Note_on_c, 15, 37, 123
16, 227637, Note_on_c, 15, 38, 73
16, 227648, Note_off_c, 15, 37, 64
16, 227753, Note_off_c, 15, 38, 64
16, 227758, Note_on_c, 15, 37, 85
16, 227831, Note_off_c, 15, 37, 64
16, 227876, Note_on_c, 15, 61, 127
16, 227951, Note_off_c, 15, 61, 64
16, 227995, Note_on_c, 15, 57, 95
16, 228051, Note_off_c, 15, 57, 64
16, 228109, Note_on_c, 15, 54, 94
16, 228191, Note_off_c, 15, 54, 64
16, 228229, Note_on_c, 15, 49, 94
16, 228303, Note_off_c, 15, 49, 64
16, 228356, Note_on_c, 15, 45, 108
16, 228431, Note_off_c, 15, 45, 64
16, 228475, Note_on_c, 15, 37, 118
16, 228590, Note_on_c, 15, 38, 58
16, 228604, Note_off_c, 15, 37, 64
16, 228691, Note_off_c, 15, 38, 64
16, 228711, Note_on_c, 15, 37, 88
16, 228775, Note_off_c, 15, 37, 64
16, 228835, Note_on_c, 15, 62, 116
16, 228911, Note_off_c, 15, 62, 64
16, 228955, Note_on_c, 15, 59, 118
16, 229050, Note_off_c, 15, 59, 64
16, 229071, Note_on_c, 15, 56, 102
16, 229154, Note_off_c, 15, 56, 64
16, 229185, Note_on_c, 15, 53, 95
16, 229247, Note_off_c, 15, 53, 64
16, 229304, Note_on_c, 15, 49, 98
16, 229364, Note_off_c, 15, 49, 64
16, 229435, Note_on_c, 15, 37, 118
16, 229546, Note_on_c, 15, 38, 68
16, 229555, Note_off_c, 15, 37, 64
16, 229649, Note_off_c, 15, 38, 64
16, 229667, Note_on_c, 15, 37, 94
16, 229726, Note_off_c, 15, 37, 64
16, 229797, Note_on_c, 15, 62, 119
16, 229862, Note_off_c, 15, 62, 64
16, 229918, Note_on_c, 15, 59, 123
16, 229988, Note_off_c, 15, 59, 64
16, 230032, Note_on_c, 15, 56, 109
16, 230102, Note_off_c, 15, 56, 64
16, 230147, Note_on_c, 15, 53, 82
16, 230223, Note_off_c, 15, 53, 64
16, 230266, Note_on_c, 15, 49, 94
16, 230355, Note_off_c, 15, 49, 64
16, 230396, Note_on_c, 15, 42, 127
16, 230598, Note_off_c, 15, 42, 64
16, 232075, Note_on_c, 15, 54, 109
16, 232133, Note_off_c, 15, 54, 64
16, 232315, Note_on_c, 15, 40, 127
16, 232525, Note_off_c, 15, 40, 64
16, 233996, Note_on_c, 15, 52, 114
16, 234067, Note_off_c, 15, 52, 64
16, 234243, Note_on_c, 15, 38, 124
16, 234431, Note_off_c, 15, 38, 64
16, 235919, Note_on_c, 15, 50, 120
16, 235985, Note_off_c, 15, 50, 64
16, 236156, Note_on_c, 15, 37, 127
16, 236399, Note_off_c, 15, 37, 64
16, 236868, Note_on_c, 15, 49, 102
16, 236954, Note_off_c, 15, 49, 64
16, 237114, Note_on_c, 15, 37, 127
16, 237371, Note_off_c, 15, 37, 64
16, 237832, Note_on_c, 15, 49, 109
16, 237930, Note_off_c, 15, 49, 64
16, 238072, Note_on_c, 15, 35, 127
16, 238350, Note_off_c, 15, 35, 64
16, 238796, Note_on_c, 15, 47, 108
16, 238887, Note_off_c, 15, 47, 64
16, 239035, Note_on_c, 15, 45, 119
16, 239130, Note_off_c, 15, 45, 64
16, 239154, Note_on_c, 15, 49, 107
16, 239221, Note_off_c, 15, 49, 64
16, 239279, Note_on_c, 15, 42, 122
16, 239373, Note_off_c, 15, 42, 64
16, 239397, Note_on_c, 15, 44, 94
16, 239495, Note_off_c, 15, 44, 64
16, 239516, Note_on_c, 15, 45, 106
16, 239610, Note_off_c, 15, 45, 64
16, 239638, Note_on_c, 15, 47, 94
16, 239720, Note_off_c, 15, 47, 64
16, 239759, Note_on_c, 15, 49, 108
16, 239832, Note_off_c, 15, 49, 64
16, 239875, Note_on_c, 15, 51, 108
16, 239950, Note_off_c, 15, 51, 64
16, 239997, Note_on_c, 15, 53, 101
16, 240087, Note_off_c, 15, 53, 64
16, 240115, Note_on_c, 15, 56, 101
16, 240177, Note_off_c, 15, 56, 64
16, 240234, Note_on_c, 15, 49, 127
16, 240307, Note_off_c, 15, 49, 64
16, 240350, Note_on_c, 15, 51, 113
16, 240434, Note_off_c, 15, 51, 64
16, 240471, Note_on_c, 15, 53, 116
16, 240540, Note_off_c, 15, 53, 64
16, 240594, Note_on_c, 15, 54, 94
16, 240672, Note_off_c, 15, 54, 64
16, 240715, Note_on_c, 15, 56, 127
16, 240806, Note_off_c, 15, 56, 64
16, 240830, Note_on_c, 15, 57, 110
16, 240903, Note_off_c, 15, 57, 64
16, 240951, Note_on_c, 15, 59, 115
16, 241044, Note_off_c, 15, 59, 64
16, 241071, Note_on_c, 15, 56, 94
16, 241173, Note_off_c, 15, 56, 64
16, 241194, Note_on_c, 15, 53, 119
16, 241293, Note_off_c, 15, 53, 64
16, 241312, Note_on_c, 15, 54, 107
16, 241386, Note_off_c, 15, 54, 64
16, 241432, Note_on_c, 15, 56, 127
16, 241525, Note_off_c, 15, 56, 64
16, 241547, Note_on_c, 15, 57, 116
16, 241642, Note_off_c, 15, 57, 64
16, 241669, Note_on_c, 15, 59, 94
16, 241762, Note_off_c, 15, 59, 64
16, 241788, Note_on_c, 15, 61, 123
16, 241868, Note_off_c, 15, 61, 64
16, 241913, Note_on_c, 15, 62, 116
16, 242213, Note_off_c, 15, 62, 64
16, 242279, Note_on_c, 15, 61, 95
16, 242367, Note_off_c, 15, 61, 64
16, 242393, Note_on_c, 15, 59, 109
16, 242486, Note_off_c, 15, 59, 64
16, 242510, Note_on_c, 15, 57, 106
16, 242599, Note_off_c, 15, 57, 64
16, 242628, Note_on_c, 15, 56, 94
16, 242717, Note_off_c, 15, 56, 64
16, 242746, Note_on_c, 15, 54, 113
16, 242844, Note_off_c, 15, 54, 64
16, 242870, Note_on_c, 15, 53, 108
16, 243068, Note_off_c, 15, 53, 64
16, 243117, Note_on_c, 15, 54, 99
16, 243231, Note_off_c, 15, 54, 64
16, 243351, Note_on_c, 15, 61, 102
16, 243459, Note_off_c, 15, 61, 64
16, 243604, Note_on_c, 15, 49, 118
16, 243694, Note_off_c, 15, 49, 64
16, 243840, Note_on_c, 15, 42, 102
16, 243951, Note_off_c, 15, 42, 64
16, 244073, Note_on_c, 15, 54, 94
16, 244131, Note_off_c, 15, 54, 64
16, 244309, Note_on_c, 15, 54, 94
16, 244379, Note_off_c, 15, 54, 64
16, 244557, Note_on_c, 15, 42, 94
16, 244630, Note_off_c, 15, 42, 64
16, 244799, Note_on_c, 15, 42, 115
16, 244918, Note_off_c, 15, 42, 64
16, 245035, Note_on_c, 15, 54, 94
16, 245086, Note_off_c, 15, 54, 64
16, 245277, Note_on_c, 15, 54, 107
16, 245344, Note_off_c, 15, 54, 64
16, 245516, Note_on_c, 15, 42, 101
16, 245590, Note_off_c, 15, 42, 64
16, 245761, Note_on_c, 15, 42, 127
16, 245873, Note_off_c, 15, 42, 64
16, 246002, Note_on_c, 15, 54, 99
16, 246066, Note_off_c, 15, 54, 64
16, 246113, Note_on_c, 15, 53, 88
16, 246175, Note_off_c, 15, 53, 64
16, 246231, Note_on_c, 15, 51, 94
16, 246321, Note_off_c, 15, 51, 64
16, 246474, Note_on_c, 15, 56, 98
16, 246541, Note_off_c, 15, 56, 64
16, 246720, Note_on_c, 15, 49, 109
16, 246853, Note_off_c, 15, 49, 64
16, 246961, Note_on_c, 15, 61, 98
16, 247040, Note_off_c, 15, 61, 64
16, 247069, Note_on_c, 15, 60, 73
16, 247158, Note_off_c, 15, 60, 64
16, 247188, Note_on_c, 15, 61, 99
16, 247253, Note_off_c, 15, 61, 64
16, 247432, Note_on_c, 15, 49, 108
16, 247501, Note_off_c, 15, 49, 64
16, 247672, Note_on_c, 15, 49, 119
16, 247793, Note_off_c, 15, 49, 64
16, 247915, Note_on_c, 15, 61, 101
16, 247994, Note_off_c, 15, 61, 64
16, 248023, Note_on_c, 15, 60, 75
16, 248105, Note_off_c, 15, 60, 64
16, 248144, Note_on_c, 15, 61, 106
16, 248207, Note_off_c, 15, 61, 64
16, 248388, Note_on_c, 15, 49, 106
16, 248459, Note_off_c, 15, 49, 64
16, 248635, Note_on_c, 15, 49, 115
16, 248770, Note_off_c, 15, 49, 64
16, 248878, Note_on_c, 15, 61, 107
16, 248963, Note_off_c, 15, 61, 64
16, 248986, Note_on_c, 15, 60, 90
16, 249089, Note_off_c, 15, 60, 64
16, 249108, Note_on_c, 15, 61, 101
16, 249179, Note_off_c, 15, 61, 64
16, 249351, Note_on_c, 15, 53, 98
16, 249431, Note_off_c, 15, 53, 64
16, 249595, Note_on_c, 15, 54, 99
16, 249722, Note_off_c, 15, 54, 64
16, 249833, Note_on_c, 15, 51, 94
16, 249910, Note_off_c, 15, 51, 64
16, 250077, Note_on_c, 15, 47, 98
16, 250169, Note_off_c, 15, 47, 64
16, 250315, Note_on_c, 15, 49, 94
16, 250403, Note_off_c, 15, 49, 64
16, 250557, Note_on_c, 15, 51, 94
16, 250760, Note_off_c, 15, 51, 64
16, 250803, Note_on_c, 15, 49, 94
16, 250869, Note_off_c, 15, 49, 64
16, 250916, Note_on_c, 15, 47, 99
16, 250981, Note_off_c, 15, 47, 64
16, 251040, Note_on_c, 15, 46, 99
16, 251190, Note_off_c, 15, 46, 64
16, 251280, Note_on_c, 15, 44, 94
16, 251354, Note_off_c, 15, 44, 64
16, 251393, Note_on_c, 15, 42, 108
16, 251476, Note_off_c, 15, 42, 64
16, 251522, Note_on_c, 15, 47, 99
16, 251692, Note_off_c, 15, 47, 64
16, 251768, Note_on_c, 15, 46, 106
16, 251845, Note_off_c, 15, 46, 64
16, 251875, Note_on_c, 15, 44, 94
16, 251940, Note_off_c, 15, 44, 64
16, 251996, Note_on_c, 15, 42, 107
16, 252124, Note_off_c, 15, 42, 64
16, 252242, Note_on_c, 15, 54, 101
16, 252317, Note_off_c, 15, 54, 64
16, 252352, Note_on_c, 15, 53, 82
16, 252408, Note_off_c, 15, 53, 64
16, 252473, Note_on_c, 15, 51, 94
16, 252699, Note_off_c, 15, 51, 64
16, 252724, Note_on_c, 15, 49, 94
16, 252821, Note_off_c, 15, 49, 64
16, 252837, Note_on_c, 15, 47, 99
16, 252911, Note_off_c, 15, 47, 64
16, 252955, Note_on_c, 15, 46, 108
16, 253032, Note_off_c, 15, 46, 64
16, 253195, Note_on_c, 15, 48, 106
16, 253260, Note_off_c, 15, 48, 64
16, 253432, Note_on_c, 15, 49, 101
16, 253577, Note_off_c, 15, 49, 64
16, 253682, Note_on_c, 15, 37, 104
16, 253757, Note_off_c, 15, 37, 64
16, 253919, Note_on_c, 15, 37, 115
16, 253997, Note_off_c, 15, 37, 64
16, 254165, Note_on_c, 15, 49, 109
16, 254263, Note_off_c, 15, 49, 64
16, 254276, Note_on_c, 15, 51, 107
16, 254352, Note_off_c, 15, 51, 64
16, 254398, Note_on_c, 15, 53, 116
16, 254528, Note_off_c, 15, 53, 64
16, 254637, Note_on_c, 15, 54, 115
16, 254734, Note_off_c, 15, 54, 64
16, 254874, Note_on_c, 15, 56, 109
16, 254958, Note_off_c, 15, 56, 64
16, 255120, Note_on_c, 15, 53, 106
16, 255196, Note_off_c, 15, 53, 64
16, 255362, Note_on_c, 15, 54, 119
16, 255499, Note_off_c, 15, 54, 64
16, 255601, Note_on_c, 15, 59, 113
16, 255666, Note_off_c, 15, 59, 64
16, 255837, Note_on_c, 15, 61, 104
16, 255899, Note_off_c, 15, 61, 64
16, 256080, Note_on_c, 15, 49, 109
16, 256153, Note_off_c, 15, 49, 64
16, 256326, Note_on_c, 15, 42, 94
16, 256425, Note_off_c, 15, 42, 64
16, 261840, Note_on_c, 15, 49, 94
16, 261892, Note_off_c, 15, 49, 64
16, 262078, Note_on_c, 15, 54, 99
16, 262296, Note_off_c, 15, 54, 64
16, 262318, Note_on_c, 15, 53, 91
16, 262379, Note_off_c, 15, 53, 64
16, 262435, Note_on_c, 15, 51, 94
16, 262509, Note_off_c, 15, 51, 64
16, 262554, Note_on_c, 15, 49, 108
16, 262655, Note_off_c, 15, 49, 64
16, 262671, Note_on_c, 15, 47, 95
16, 262739, Note_off_c, 15, 47, 64
16, 262788, Note_on_c, 15, 46, 102
16, 262861, Note_off_c, 15, 46, 64
16, 262906, Note_on_c, 15, 44, 99
16, 262971, Note_off_c, 15, 44, 64
16, 263033, Note_on_c, 15, 46, 101
16, 263211, Note_off_c, 15, 46, 64
16, 263276, Note_on_c, 15, 44, 101
16, 263360, Note_off_c, 15, 44, 64
16, 263386, Note_on_c, 15, 42, 94
16, 263464, Note_off_c, 15, 42, 64
16, 263520, Note_on_c, 15, 49, 109
16, 263625, Note_off_c, 15, 49, 64
16, 263767, Note_on_c, 15, 37, 95
16, 263835, Note_off_c, 15, 37, 64
16, 264004, Note_on_c, 15, 42, 95
16, 264962, Note_off_c, 15, 42, 64
16, 266880, End_track
0, 0, End_of_file
