0, 0, Header, 1, 2, 240
1, 0, Start_track
1, 0, Time_signature, 4, 2, 24, 8
1, 0, Key_signature, 0, "major"
1, 0, Tempo, 454545
1, 0, Marker_t, "Allegro"
1, 26040, Tempo, 461538
1, 26208, Tempo, 476190
1, 26376, Tempo, 487804
1, 26880, Tempo, 454545
1, 52932, Tempo, 465116
1, 53112, Tempo, 476190
1, 53268, Tempo, 491803
1, 53760, Tempo, 454545
1, 139296, Tempo, 468750
1, 139428, Tempo, 500000
1, 139536, Tempo, 521739
1, 139704, Tempo, 566037
1, 142080, Time_signature, 3, 2, 24, 8
1, 142080, Tempo, 1000000
1, 142080, Marker_t, "Andante"
1, 217308, Tempo, 1090909
1, 217632, Tempo, 1200000
1, 217680, Tempo, 1200000
1, 217872, Tempo, 1250000
1, 218184, Tempo, 1428571
1, 219120, Time_signature, 1, 2, 24, 8
1, 219120, Tempo, 576923
1, 219120, Marker_t, "Rondo.Allegretto"
1, 219360, Time_signature, 2, 2, 24, 8
1, 257960, Tempo, 594059
1, 258040, Tempo, 638297
1, 258184, Tempo, 689655
1, 258240, Tempo, 769230
1, 258240, End_track
2, 0, Start_track
2, 0, MIDI_port, 0
2, 0, Title_t, "Mozart: Sonata Facile KV545"
2, 0, Control_c, 0, 7, 127
2, 0, Control_c, 0, 10, 64
2, 0, Control_c, 0, 91, 127
2, 0, Control_c, 0, 93, 0
2, 0, Control_c, 0, 121, 0
2, 0, Note_on_c, 0, 72, 96
2, 0, Note_on_c, 0, 60, 96
2, 120, Note_on_c, 0, 60, 0
2, 120, Note_on_c, 0, 67, 96
2, 240, Note_on_c, 0, 67, 0
2, 240, Note_on_c, 0, 64, 96
2, 360, Note_on_c, 0, 64, 0
2, 360, Note_on_c, 0, 67, 96
2, 480, Note_on_c, 0, 67, 0
2, 480, Note_on_c, 0, 72, 0
2, 480, Note_on_c, 0, 76, 96
2, 480, Note_on_c, 0, 60, 96
2, 600, Note_on_c, 0, 60, 0
2, 600, Note_on_c, 0, 67, 96
2, 720, Note_on_c, 0, 67, 0
2, 720, Note_on_c, 0, 76, 0
2, 720, Note_on_c, 0, 79, 96
2, 720, Note_on_c, 0, 64, 96
2, 840, Note_on_c, 0, 64, 0
2, 840, Note_on_c, 0, 67, 96
2, 960, Note_on_c, 0, 67, 0
2, 960, Note_on_c, 0, 79, 0
2, 960, Note_on_c, 0, 71, 96
2, 960, Note_on_c, 0, 62, 96
2, 1080, Note_on_c, 0, 62, 0
2, 1080, Note_on_c, 0, 67, 96
2, 1200, Note_on_c, 0, 67, 0
2, 1200, Note_on_c, 0, 65, 96
2, 1320, Note_on_c, 0, 65, 0
2, 1320, Note_on_c, 0, 71, 0
2, 1320, Note_on_c, 0, 72, 96
2, 1320, Note_on_c, 0, 67, 96
2, 1380, Note_on_c, 0, 72, 0
2, 1380, Note_on_c, 0, 74, 96
2, 1440, Note_on_c, 0, 74, 0
2, 1440, Note_on_c, 0, 67, 0
2, 1440, Note_on_c, 0, 72, 96
2, 1440, Note_on_c, 0, 60, 96
2, 1560, Note_on_c, 0, 60, 0
2, 1560, Note_on_c, 0, 67, 96
2, 1680, Note_on_c, 0, 67, 0
2, 1680, Note_on_c, 0, 64, 96
2, 1800, Note_on_c, 0, 64, 0
2, 1800, Note_on_c, 0, 67, 96
2, 1920, Note_on_c, 0, 67, 0
2, 1920, Note_on_c, 0, 72, 0
2, 1920, Note_on_c, 0, 81, 96
2, 1920, Note_on_c, 0, 60, 96
2, 2040, Note_on_c, 0, 60, 0
2, 2040, Note_on_c, 0, 69, 96
2, 2160, Note_on_c, 0, 69, 0
2, 2160, Note_on_c, 0, 65, 96
2, 2280, Note_on_c, 0, 65, 0
2, 2280, Note_on_c, 0, 69, 96
2, 2400, Note_on_c, 0, 69, 0
2, 2400, Note_on_c, 0, 81, 0
2, 2400, Note_on_c, 0, 79, 96
2, 2400, Note_on_c, 0, 60, 96
2, 2520, Note_on_c, 0, 60, 0
2, 2520, Note_on_c, 0, 67, 96
2, 2640, Note_on_c, 0, 67, 0
2, 2640, Note_on_c, 0, 79, 0
2, 2640, Note_on_c, 0, 84, 96
2, 2640, Note_on_c, 0, 64, 96
2, 2760, Note_on_c, 0, 64, 0
2, 2760, Note_on_c, 0, 67, 96
2, 2880, Note_on_c, 0, 67, 0
2, 2880, Note_on_c, 0, 84, 0
2, 2880, Note_on_c, 0, 79, 96
2, 2880, Note_on_c, 0, 59, 96
2, 3000, Note_on_c, 0, 59, 0
2, 3000, Note_on_c, 0, 67, 96
2, 3120, Note_on_c, 0, 67, 0
2, 3120, Note_on_c, 0, 79, 0
2, 3120, Note_on_c, 0, 77, 96
2, 3120, Note_on_c, 0, 62, 96
2, 3159, Note_on_c, 0, 77, 0
2, 3159, Note_on_c, 0, 79, 96
2, 3199, Note_on_c, 0, 79, 0
2, 3199, Note_on_c, 0, 77, 96
2, 3239, Note_on_c, 0, 77, 0
2, 3240, Note_on_c, 0, 62, 0
2, 3240, Note_on_c, 0, 76, 96
2, 3240, Note_on_c, 0, 67, 96
2, 3300, Note_on_c, 0, 76, 0
2, 3300, Note_on_c, 0, 77, 96
2, 3360, Note_on_c, 0, 77, 0
2, 3360, Note_on_c, 0, 67, 0
2, 3360, Note_on_c, 0, 76, 96
2, 3360, Note_on_c, 0, 60, 96
2, 3480, Note_on_c, 0, 60, 0
2, 3480, Note_on_c, 0, 67, 96
2, 3600, Note_on_c, 0, 67, 0
2, 3600, Note_on_c, 0, 76, 0
2, 3600, Note_on_c, 0, 64, 96
2, 3720, Note_on_c, 0, 64, 0
2, 3720, Note_on_c, 0, 67, 96
2, 3840, Note_on_c, 0, 67, 0
2, 3840, Note_on_c, 0, 69, 96
2, 3840, Note_on_c, 0, 65, 96
2, 3960, Note_on_c, 0, 69, 0
2, 3960, Note_on_c, 0, 71, 96
2, 4020, Note_on_c, 0, 71, 0
2, 4020, Note_on_c, 0, 72, 96
2, 4080, Note_on_c, 0, 72, 0
2, 4080, Note_on_c, 0, 65, 0
2, 4080, Note_on_c, 0, 74, 96
2, 4140, Note_on_c, 0, 74, 0
2, 4140, Note_on_c, 0, 76, 96
2, 4200, Note_on_c, 0, 76, 0
2, 4200, Note_on_c, 0, 77, 96
2, 4260, Note_on_c, 0, 77, 0
2, 4260, Note_on_c, 0, 79, 96
2, 4320, Note_on_c, 0, 79, 0
2, 4320, Note_on_c, 0, 81, 96
2, 4380, Note_on_c, 0, 81, 0
2, 4380, Note_on_c, 0, 79, 96
2, 4440, Note_on_c, 0, 79, 0
2, 4440, Note_on_c, 0, 77, 96
2, 4500, Note_on_c, 0, 77, 0
2, 4500, Note_on_c, 0, 76, 96
2, 4560, Note_on_c, 0, 76, 0
2, 4560, Note_on_c, 0, 53, 96
2, 4560, Note_on_c, 0, 60, 96
2, 4560, Note_on_c, 0, 74, 96
2, 4620, Note_on_c, 0, 74, 0
2, 4620, Note_on_c, 0, 72, 96
2, 4680, Note_on_c, 0, 72, 0
2, 4680, Note_on_c, 0, 71, 96
2, 4740, Note_on_c, 0, 71, 0
2, 4740, Note_on_c, 0, 69, 96
2, 4800, Note_on_c, 0, 69, 0
2, 4800, Note_on_c, 0, 60, 0
2, 4800, Note_on_c, 0, 53, 0
2, 4800, Note_on_c, 0, 67, 96
2, 4800, Note_on_c, 0, 52, 96
2, 4800, Note_on_c, 0, 60, 96
2, 4920, Note_on_c, 0, 67, 0
2, 4920, Note_on_c, 0, 69, 96
2, 4980, Note_on_c, 0, 69, 0
2, 4980, Note_on_c, 0, 71, 96
2, 5040, Note_on_c, 0, 71, 0
2, 5040, Note_on_c, 0, 60, 0
2, 5040, Note_on_c, 0, 52, 0
2, 5040, Note_on_c, 0, 72, 96
2, 5100, Note_on_c, 0, 72, 0
2, 5100, Note_on_c, 0, 74, 96
2, 5160, Note_on_c, 0, 74, 0
2, 5160, Note_on_c, 0, 76, 96
2, 5220, Note_on_c, 0, 76, 0
2, 5220, Note_on_c, 0, 77, 96
2, 5280, Note_on_c, 0, 77, 0
2, 5280, Note_on_c, 0, 79, 96
2, 5340, Note_on_c, 0, 79, 0
2, 5340, Note_on_c, 0, 77, 96
2, 5400, Note_on_c, 0, 77, 0
2, 5400, Note_on_c, 0, 76, 96
2, 5460, Note_on_c, 0, 76, 0
2, 5460, Note_on_c, 0, 74, 96
2, 5520, Note_on_c, 0, 74, 0
2, 5520, Note_on_c, 0, 52, 96
2, 5520, Note_on_c, 0, 60, 96
2, 5520, Note_on_c, 0, 72, 96
2, 5580, Note_on_c, 0, 72, 0
2, 5580, Note_on_c, 0, 71, 96
2, 5640, Note_on_c, 0, 71, 0
2, 5640, Note_on_c, 0, 69, 96
2, 5700, Note_on_c, 0, 69, 0
2, 5700, Note_on_c, 0, 67, 96
2, 5760, Note_on_c, 0, 67, 0
2, 5760, Note_on_c, 0, 60, 0
2, 5760, Note_on_c, 0, 52, 0
2, 5760, Note_on_c, 0, 65, 96
2, 5760, Note_on_c, 0, 50, 96
2, 5760, Note_on_c, 0, 60, 96
2, 5880, Note_on_c, 0, 65, 0
2, 5880, Note_on_c, 0, 67, 96
2, 5940, Note_on_c, 0, 67, 0
2, 5940, Note_on_c, 0, 69, 96
2, 6000, Note_on_c, 0, 69, 0
2, 6000, Note_on_c, 0, 60, 0
2, 6000, Note_on_c, 0, 50, 0
2, 6000, Note_on_c, 0, 71, 96
2, 6060, Note_on_c, 0, 71, 0
2, 6060, Note_on_c, 0, 72, 96
2, 6120, Note_on_c, 0, 72, 0
2, 6120, Note_on_c, 0, 74, 96
2, 6180, Note_on_c, 0, 74, 0
2, 6180, Note_on_c, 0, 76, 96
2, 6240, Note_on_c, 0, 76, 0
2, 6240, Note_on_c, 0, 77, 96
2, 6300, Note_on_c, 0, 77, 0
2, 6300, Note_on_c, 0, 76, 96
2, 6360, Note_on_c, 0, 76, 0
2, 6360, Note_on_c, 0, 74, 96
2, 6420, Note_on_c, 0, 74, 0
2, 6420, Note_on_c, 0, 72, 96
2, 6480, Note_on_c, 0, 72, 0
2, 6480, Note_on_c, 0, 50, 96
2, 6480, Note_on_c, 0, 59, 96
2, 6480, Note_on_c, 0, 71, 96
2, 6540, Note_on_c, 0, 71, 0
2, 6540, Note_on_c, 0, 69, 96
2, 6600, Note_on_c, 0, 69, 0
2, 6600, Note_on_c, 0, 67, 96
2, 6660, Note_on_c, 0, 67, 0
2, 6660, Note_on_c, 0, 65, 96
2, 6720, Note_on_c, 0, 65, 0
2, 6720, Note_on_c, 0, 59, 0
2, 6720, Note_on_c, 0, 50, 0
2, 6720, Note_on_c, 0, 64, 96
2, 6720, Note_on_c, 0, 48, 96
2, 6720, Note_on_c, 0, 60, 96
2, 6840, Note_on_c, 0, 64, 0
2, 6840, Note_on_c, 0, 65, 96
2, 6900, Note_on_c, 0, 65, 0
2, 6900, Note_on_c, 0, 67, 96
2, 6960, Note_on_c, 0, 67, 0
2, 6960, Note_on_c, 0, 60, 0
2, 6960, Note_on_c, 0, 48, 0
2, 6960, Note_on_c, 0, 69, 96
2, 7020, Note_on_c, 0, 69, 0
2, 7020, Note_on_c, 0, 71, 96
2, 7080, Note_on_c, 0, 71, 0
2, 7080, Note_on_c, 0, 72, 96
2, 7140, Note_on_c, 0, 72, 0
2, 7140, Note_on_c, 0, 74, 96
2, 7200, Note_on_c, 0, 74, 0
2, 7200, Note_on_c, 0, 76, 96
2, 7260, Note_on_c, 0, 76, 0
2, 7260, Note_on_c, 0, 74, 96
2, 7320, Note_on_c, 0, 74, 0
2, 7320, Note_on_c, 0, 72, 96
2, 7380, Note_on_c, 0, 72, 0
2, 7380, Note_on_c, 0, 71, 96
2, 7440, Note_on_c, 0, 71, 0
2, 7440, Note_on_c, 0, 48, 96
2, 7440, Note_on_c, 0, 52, 96
2, 7440, Note_on_c, 0, 69, 96
2, 7500, Note_on_c, 0, 69, 0
2, 7500, Note_on_c, 0, 67, 96
2, 7560, Note_on_c, 0, 67, 0
2, 7560, Note_on_c, 0, 65, 96
2, 7620, Note_on_c, 0, 65, 0
2, 7620, Note_on_c, 0, 64, 96
2, 7680, Note_on_c, 0, 64, 0
2, 7680, Note_on_c, 0, 52, 0
2, 7680, Note_on_c, 0, 48, 0
2, 7680, Note_on_c, 0, 53, 96
2, 7680, Note_on_c, 0, 57, 96
2, 7680, Note_on_c, 0, 62, 96
2, 7800, Note_on_c, 0, 62, 0
2, 7800, Note_on_c, 0, 64, 96
2, 7860, Note_on_c, 0, 64, 0
2, 7860, Note_on_c, 0, 65, 96
2, 7920, Note_on_c, 0, 65, 0
2, 7920, Note_on_c, 0, 67, 96
2, 7980, Note_on_c, 0, 67, 0
2, 7980, Note_on_c, 0, 69, 96
2, 8040, Note_on_c, 0, 69, 0
2, 8040, Note_on_c, 0, 71, 96
2, 8100, Note_on_c, 0, 71, 0
2, 8100, Note_on_c, 0, 73, 96
2, 8160, Note_on_c, 0, 73, 0
2, 8160, Note_on_c, 0, 74, 96
2, 8220, Note_on_c, 0, 74, 0
2, 8220, Note_on_c, 0, 69, 96
2, 8280, Note_on_c, 0, 69, 0
2, 8280, Note_on_c, 0, 71, 96
2, 8340, Note_on_c, 0, 71, 0
2, 8340, Note_on_c, 0, 73, 96
2, 8400, Note_on_c, 0, 73, 0
2, 8400, Note_on_c, 0, 74, 96
2, 8460, Note_on_c, 0, 74, 0
2, 8460, Note_on_c, 0, 76, 96
2, 8520, Note_on_c, 0, 76, 0
2, 8520, Note_on_c, 0, 77, 96
2, 8580, Note_on_c, 0, 77, 0
2, 8580, Note_on_c, 0, 79, 96
2, 8640, Note_on_c, 0, 79, 0
2, 8640, Note_on_c, 0, 57, 0
2, 8640, Note_on_c, 0, 53, 0
2, 8640, Note_on_c, 0, 81, 96
2, 8640, Note_on_c, 0, 53, 96
2, 8700, Note_on_c, 0, 81, 0
2, 8700, Note_on_c, 0, 83, 96
2, 8760, Note_on_c, 0, 83, 0
2, 8760, Note_on_c, 0, 84, 96
2, 8820, Note_on_c, 0, 84, 0
2, 8820, Note_on_c, 0, 83, 96
2, 8880, Note_on_c, 0, 83, 0
2, 8880, Note_on_c, 0, 81, 96
2, 8940, Note_on_c, 0, 81, 0
2, 8940, Note_on_c, 0, 79, 96
2, 9000, Note_on_c, 0, 79, 0
2, 9000, Note_on_c, 0, 53, 0
2, 9000, Note_on_c, 0, 77, 96
2, 9000, Note_on_c, 0, 55, 96
2, 9060, Note_on_c, 0, 77, 0
2, 9060, Note_on_c, 0, 76, 96
2, 9120, Note_on_c, 0, 76, 0
2, 9120, Note_on_c, 0, 55, 0
2, 9120, Note_on_c, 0, 77, 96
2, 9120, Note_on_c, 0, 57, 96
2, 9180, Note_on_c, 0, 77, 0
2, 9180, Note_on_c, 0, 79, 96
2, 9240, Note_on_c, 0, 79, 0
2, 9240, Note_on_c, 0, 81, 96
2, 9300, Note_on_c, 0, 81, 0
2, 9300, Note_on_c, 0, 79, 96
2, 9360, Note_on_c, 0, 79, 0
2, 9360, Note_on_c, 0, 57, 0
2, 9360, Note_on_c, 0, 54, 96
2, 9360, Note_on_c, 0, 77, 96
2, 9420, Note_on_c, 0, 77, 0
2, 9420, Note_on_c, 0, 76, 96
2, 9480, Note_on_c, 0, 76, 0
2, 9480, Note_on_c, 0, 74, 96
2, 9540, Note_on_c, 0, 74, 0
2, 9540, Note_on_c, 0, 72, 96
2, 9600, Note_on_c, 0, 72, 0
2, 9600, Note_on_c, 0, 54, 0
2, 9600, Note_on_c, 0, 71, 96
2, 9600, Note_on_c, 0, 43, 96
2, 9660, Note_on_c, 0, 43, 0
2, 9660, Note_on_c, 0, 47, 96
2, 9720, Note_on_c, 0, 47, 0
2, 9720, Note_on_c, 0, 71, 0
2, 9720, Note_on_c, 0, 79, 96
2, 9720, Note_on_c, 0, 50, 96
2, 9780, Note_on_c, 0, 50, 0
2, 9780, Note_on_c, 0, 55, 96
2, 9840, Note_on_c, 0, 55, 0
2, 9840, Note_on_c, 0, 79, 0
2, 9840, Note_on_c, 0, 76, 96
2, 9840, Note_on_c, 0, 43, 96
2, 9900, Note_on_c, 0, 43, 0
2, 9900, Note_on_c, 0, 48, 96
2, 9930, Note_on_c, 0, 76, 0
2, 9960, Note_on_c, 0, 48, 0
2, 9960, Note_on_c, 0, 72, 96
2, 9960, Note_on_c, 0, 52, 96
2, 10020, Note_on_c, 0, 52, 0
2, 10020, Note_on_c, 0, 55, 96
2, 10050, Note_on_c, 0, 72, 0
2, 10080, Note_on_c, 0, 55, 0
2, 10080, Note_on_c, 0, 74, 96
2, 10080, Note_on_c, 0, 43, 96
2, 10140, Note_on_c, 0, 43, 0
2, 10140, Note_on_c, 0, 47, 96
2, 10200, Note_on_c, 0, 47, 0
2, 10200, Note_on_c, 0, 74, 0
2, 10200, Note_on_c, 0, 79, 96
2, 10200, Note_on_c, 0, 50, 96
2, 10260, Note_on_c, 0, 50, 0
2, 10260, Note_on_c, 0, 55, 96
2, 10320, Note_on_c, 0, 55, 0
2, 10320, Note_on_c, 0, 79, 0
2, 10320, Note_on_c, 0, 76, 96
2, 10320, Note_on_c, 0, 43, 96
2, 10380, Note_on_c, 0, 43, 0
2, 10380, Note_on_c, 0, 48, 96
2, 10410, Note_on_c, 0, 76, 0
2, 10440, Note_on_c, 0, 48, 0
2, 10440, Note_on_c, 0, 72, 96
2, 10440, Note_on_c, 0, 52, 96
2, 10500, Note_on_c, 0, 52, 0
2, 10500, Note_on_c, 0, 55, 96
2, 10530, Note_on_c, 0, 72, 0
2, 10560, Note_on_c, 0, 55, 0
2, 10560, Note_on_c, 0, 43, 96
2, 10560, Note_on_c, 0, 74, 96
2, 10752, Note_on_c, 0, 74, 0
2, 10752, Note_on_c, 0, 43, 0
2, 10800, Note_on_c, 0, 55, 96
2, 10800, Note_on_c, 0, 79, 96
2, 10800, Note_on_c, 0, 74, 96
2, 10800, Note_on_c, 0, 71, 96
2, 10992, Note_on_c, 0, 71, 0
2, 10992, Note_on_c, 0, 55, 0
2, 10992, Note_on_c, 0, 79, 0
2, 10992, Note_on_c, 0, 74, 0
2, 11040, Note_on_c, 0, 43, 96
2, 11040, Note_on_c, 0, 67, 96
2, 11232, Note_on_c, 0, 67, 0
2, 11232, Note_on_c, 0, 43, 0
2, 11520, Note_on_c, 0, 61, 96
2, 11580, Note_on_c, 0, 61, 0
2, 11580, Note_on_c, 0, 62, 96
2, 11640, Note_on_c, 0, 62, 0
2, 11640, Note_on_c, 0, 61, 96
2, 11700, Note_on_c, 0, 61, 0
2, 11700, Note_on_c, 0, 62, 96
2, 11760, Note_on_c, 0, 62, 0
2, 11760, Note_on_c, 0, 61, 96
2, 11820, Note_on_c, 0, 61, 0
2, 11820, Note_on_c, 0, 62, 96
2, 11880, Note_on_c, 0, 62, 0
2, 11880, Note_on_c, 0, 61, 96
2, 11940, Note_on_c, 0, 61, 0
2, 11940, Note_on_c, 0, 62, 96
2, 12000, Note_on_c, 0, 62, 0
2, 12000, Note_on_c, 0, 60, 96
2, 12060, Note_on_c, 0, 60, 0
2, 12060, Note_on_c, 0, 62, 96
2, 12120, Note_on_c, 0, 62, 0
2, 12120, Note_on_c, 0, 60, 96
2, 12180, Note_on_c, 0, 60, 0
2, 12180, Note_on_c, 0, 62, 96
2, 12240, Note_on_c, 0, 62, 0
2, 12240, Note_on_c, 0, 60, 96
2, 12300, Note_on_c, 0, 60, 0
2, 12300, Note_on_c, 0, 62, 96
2, 12360, Note_on_c, 0, 62, 0
2, 12360, Note_on_c, 0, 60, 96
2, 12420, Note_on_c, 0, 60, 0
2, 12420, Note_on_c, 0, 62, 96
2, 12480, Note_on_c, 0, 62, 0
2, 12480, Note_on_c, 0, 86, 96
2, 12480, Note_on_c, 0, 59, 96
2, 12540, Note_on_c, 0, 59, 0
2, 12540, Note_on_c, 0, 62, 96
2, 12600, Note_on_c, 0, 62, 0
2, 12600, Note_on_c, 0, 86, 0
2, 12600, Note_on_c, 0, 83, 96
2, 12600, Note_on_c, 0, 59, 96
2, 12660, Note_on_c, 0, 59, 0
2, 12660, Note_on_c, 0, 62, 96
2, 12720, Note_on_c, 0, 62, 0
2, 12720, Note_on_c, 0, 83, 0
2, 12720, Note_on_c, 0, 79, 96
2, 12720, Note_on_c, 0, 59, 96
2, 12780, Note_on_c, 0, 59, 0
2, 12780, Note_on_c, 0, 62, 96
2, 12840, Note_on_c, 0, 62, 0
2, 12840, Note_on_c, 0, 59, 96
2, 12900, Note_on_c, 0, 59, 0
2, 12900, Note_on_c, 0, 62, 96
2, 12960, Note_on_c, 0, 62, 0
2, 12960, Note_on_c, 0, 59, 96
2, 13020, Note_on_c, 0, 59, 0
2, 13020, Note_on_c, 0, 62, 96
2, 13080, Note_on_c, 0, 62, 0
2, 13080, Note_on_c, 0, 79, 0
2, 13080, Note_on_c, 0, 81, 96
2, 13080, Note_on_c, 0, 59, 96
2, 13140, Note_on_c, 0, 59, 0
2, 13140, Note_on_c, 0, 81, 0
2, 13140, Note_on_c, 0, 83, 96
2, 13140, Note_on_c, 0, 62, 96
2, 13200, Note_on_c, 0, 62, 0
2, 13200, Note_on_c, 0, 83, 0
2, 13200, Note_on_c, 0, 81, 96
2, 13200, Note_on_c, 0, 59, 96
2, 13260, Note_on_c, 0, 59, 0
2, 13260, Note_on_c, 0, 62, 96
2, 13320, Note_on_c, 0, 62, 0
2, 13320, Note_on_c, 0, 81, 0
2, 13320, Note_on_c, 0, 79, 96
2, 13320, Note_on_c, 0, 59, 96
2, 13380, Note_on_c, 0, 59, 0
2, 13380, Note_on_c, 0, 62, 96
2, 13440, Note_on_c, 0, 62, 0
2, 13440, Note_on_c, 0, 79, 0
2, 13440, Note_on_c, 0, 81, 96
2, 13440, Note_on_c, 0, 60, 96
2, 13470, Note_on_c, 0, 81, 0
2, 13470, Note_on_c, 0, 79, 72
2, 13500, Note_on_c, 0, 79, 0
2, 13500, Note_on_c, 0, 60, 0
2, 13500, Note_on_c, 0, 81, 78
2, 13500, Note_on_c, 0, 62, 96
2, 13530, Note_on_c, 0, 81, 0
2, 13530, Note_on_c, 0, 79, 84
2, 13560, Note_on_c, 0, 79, 0
2, 13560, Note_on_c, 0, 62, 0
2, 13560, Note_on_c, 0, 81, 90
2, 13560, Note_on_c, 0, 59, 96
2, 13590, Note_on_c, 0, 81, 0
2, 13590, Note_on_c, 0, 79, 96
2, 13620, Note_on_c, 0, 79, 0
2, 13620, Note_on_c, 0, 59, 0
2, 13620, Note_on_c, 0, 78, 102
2, 13620, Note_on_c, 0, 62, 96
2, 13670, Note_on_c, 0, 78, 0
2, 13680, Note_on_c, 0, 62, 0
2, 13680, Note_on_c, 0, 78, 96
2, 13680, Note_on_c, 0, 57, 96
2, 13740, Note_on_c, 0, 57, 0
2, 13740, Note_on_c, 0, 62, 96
2, 13800, Note_on_c, 0, 62, 0
2, 13800, Note_on_c, 0, 59, 96
2, 13860, Note_on_c, 0, 59, 0
2, 13860, Note_on_c, 0, 62, 96
2, 13920, Note_on_c, 0, 62, 0
2, 13920, Note_on_c, 0, 78, 0
2, 13920, Note_on_c, 0, 60, 96
2, 13980, Note_on_c, 0, 60, 0
2, 13980, Note_on_c, 0, 62, 96
2, 14040, Note_on_c, 0, 62, 0
2, 14040, Note_on_c, 0, 59, 96
2, 14100, Note_on_c, 0, 59, 0
2, 14100, Note_on_c, 0, 62, 96
2, 14160, Note_on_c, 0, 62, 0
2, 14160, Note_on_c, 0, 60, 96
2, 14220, Note_on_c, 0, 60, 0
2, 14220, Note_on_c, 0, 62, 96
2, 14280, Note_on_c, 0, 62, 0
2, 14280, Note_on_c, 0, 57, 96
2, 14340, Note_on_c, 0, 57, 0
2, 14340, Note_on_c, 0, 62, 96
2, 14400, Note_on_c, 0, 62, 0
2, 14400, Note_on_c, 0, 86, 96
2, 14400, Note_on_c, 0, 59, 96
2, 14460, Note_on_c, 0, 59, 0
2, 14460, Note_on_c, 0, 62, 96
2, 14520, Note_on_c, 0, 62, 0
2, 14520, Note_on_c, 0, 86, 0
2, 14520, Note_on_c, 0, 83, 96
2, 14520, Note_on_c, 0, 59, 96
2, 14580, Note_on_c, 0, 59, 0
2, 14580, Note_on_c, 0, 62, 96
2, 14640, Note_on_c, 0, 62, 0
2, 14640, Note_on_c, 0, 83, 0
2, 14640, Note_on_c, 0, 79, 96
2, 14640, Note_on_c, 0, 59, 96
2, 14700, Note_on_c, 0, 59, 0
2, 14700, Note_on_c, 0, 62, 96
2, 14760, Note_on_c, 0, 62, 0
2, 14760, Note_on_c, 0, 59, 96
2, 14820, Note_on_c, 0, 59, 0
2, 14820, Note_on_c, 0, 62, 96
2, 14880, Note_on_c, 0, 62, 0
2, 14880, Note_on_c, 0, 59, 96
2, 14940, Note_on_c, 0, 59, 0
2, 14940, Note_on_c, 0, 62, 96
2, 15000, Note_on_c, 0, 62, 0
2, 15000, Note_on_c, 0, 79, 0
2, 15000, Note_on_c, 0, 81, 96
2, 15000, Note_on_c, 0, 59, 96
2, 15060, Note_on_c, 0, 59, 0
2, 15060, Note_on_c, 0, 81, 0
2, 15060, Note_on_c, 0, 83, 96
2, 15060, Note_on_c, 0, 62, 96
2, 15120, Note_on_c, 0, 62, 0
2, 15120, Note_on_c, 0, 83, 0
2, 15120, Note_on_c, 0, 81, 96
2, 15120, Note_on_c, 0, 59, 96
2, 15180, Note_on_c, 0, 59, 0
2, 15180, Note_on_c, 0, 62, 96
2, 15240, Note_on_c, 0, 62, 0
2, 15240, Note_on_c, 0, 81, 0
2, 15240, Note_on_c, 0, 79, 96
2, 15240, Note_on_c, 0, 59, 96
2, 15300, Note_on_c, 0, 59, 0
2, 15300, Note_on_c, 0, 62, 96
2, 15360, Note_on_c, 0, 62, 0
2, 15360, Note_on_c, 0, 79, 0
2, 15360, Note_on_c, 0, 81, 96
2, 15360, Note_on_c, 0, 60, 96
2, 15390, Note_on_c, 0, 81, 0
2, 15390, Note_on_c, 0, 79, 72
2, 15420, Note_on_c, 0, 79, 0
2, 15420, Note_on_c, 0, 60, 0
2, 15420, Note_on_c, 0, 81, 78
2, 15420, Note_on_c, 0, 62, 96
2, 15450, Note_on_c, 0, 81, 0
2, 15450, Note_on_c, 0, 79, 84
2, 15480, Note_on_c, 0, 79, 0
2, 15480, Note_on_c, 0, 62, 0
2, 15480, Note_on_c, 0, 81, 88
2, 15480, Note_on_c, 0, 59, 96
2, 15510, Note_on_c, 0, 81, 0
2, 15510, Note_on_c, 0, 79, 94
2, 15540, Note_on_c, 0, 79, 0
2, 15540, Note_on_c, 0, 59, 0
2, 15540, Note_on_c, 0, 78, 102
2, 15540, Note_on_c, 0, 62, 96
2, 15590, Note_on_c, 0, 78, 0
2, 15600, Note_on_c, 0, 62, 0
2, 15600, Note_on_c, 0, 78, 96
2, 15600, Note_on_c, 0, 57, 96
2, 15660, Note_on_c, 0, 57, 0
2, 15660, Note_on_c, 0, 62, 96
2, 15720, Note_on_c, 0, 62, 0
2, 15720, Note_on_c, 0, 59, 96
2, 15780, Note_on_c, 0, 59, 0
2, 15780, Note_on_c, 0, 62, 96
2, 15840, Note_on_c, 0, 62, 0
2, 15840, Note_on_c, 0, 78, 0
2, 15840, Note_on_c, 0, 60, 96
2, 15900, Note_on_c, 0, 60, 0
2, 15900, Note_on_c, 0, 62, 96
2, 15960, Note_on_c, 0, 62, 0
2, 15960, Note_on_c, 0, 59, 96
2, 16020, Note_on_c, 0, 59, 0
2, 16020, Note_on_c, 0, 62, 96
2, 16080, Note_on_c, 0, 62, 0
2, 16080, Note_on_c, 0, 60, 96
2, 16140, Note_on_c, 0, 60, 0
2, 16140, Note_on_c, 0, 62, 96
2, 16200, Note_on_c, 0, 62, 0
2, 16200, Note_on_c, 0, 57, 96
2, 16260, Note_on_c, 0, 57, 0
2, 16260, Note_on_c, 0, 62, 96
2, 16320, Note_on_c, 0, 62, 0
2, 16320, Note_on_c, 0, 86, 96
2, 16380, Note_on_c, 0, 59, 96
2, 16440, Note_on_c, 0, 59, 0
2, 16440, Note_on_c, 0, 62, 96
2, 16500, Note_on_c, 0, 62, 0
2, 16500, Note_on_c, 0, 67, 96
2, 16560, Note_on_c, 0, 67, 0
2, 16560, Note_on_c, 0, 86, 0
2, 16560, Note_on_c, 0, 71, 96
2, 16620, Note_on_c, 0, 86, 96
2, 16680, Note_on_c, 0, 86, 0
2, 16680, Note_on_c, 0, 83, 96
2, 16740, Note_on_c, 0, 83, 0
2, 16740, Note_on_c, 0, 79, 96
2, 16800, Note_on_c, 0, 79, 0
2, 16800, Note_on_c, 0, 71, 0
2, 16800, Note_on_c, 0, 76, 96
2, 16860, Note_on_c, 0, 60, 96
2, 16920, Note_on_c, 0, 60, 0
2, 16920, Note_on_c, 0, 64, 96
2, 16980, Note_on_c, 0, 64, 0
2, 16980, Note_on_c, 0, 67, 96
2, 17040, Note_on_c, 0, 67, 0
2, 17040, Note_on_c, 0, 76, 0
2, 17040, Note_on_c, 0, 72, 96
2, 17100, Note_on_c, 0, 76, 96
2, 17160, Note_on_c, 0, 76, 0
2, 17160, Note_on_c, 0, 79, 96
2, 17220, Note_on_c, 0, 79, 0
2, 17220, Note_on_c, 0, 76, 96
2, 17280, Note_on_c, 0, 76, 0
2, 17280, Note_on_c, 0, 72, 0
2, 17280, Note_on_c, 0, 84, 96
2, 17340, Note_on_c, 0, 57, 96
2, 17400, Note_on_c, 0, 57, 0
2, 17400, Note_on_c, 0, 60, 96
2, 17460, Note_on_c, 0, 60, 0
2, 17460, Note_on_c, 0, 66, 96
2, 17520, Note_on_c, 0, 66, 0
2, 17520, Note_on_c, 0, 84, 0
2, 17520, Note_on_c, 0, 69, 96
2, 17580, Note_on_c, 0, 84, 96
2, 17640, Note_on_c, 0, 84, 0
2, 17640, Note_on_c, 0, 81, 96
2, 17700, Note_on_c, 0, 81, 0
2, 17700, Note_on_c, 0, 78, 96
2, 17760, Note_on_c, 0, 78, 0
2, 17760, Note_on_c, 0, 69, 0
2, 17760, Note_on_c, 0, 74, 96
2, 17820, Note_on_c, 0, 59, 96
2, 17880, Note_on_c, 0, 59, 0
2, 17880, Note_on_c, 0, 62, 96
2, 17940, Note_on_c, 0, 62, 0
2, 17940, Note_on_c, 0, 66, 96
2, 18000, Note_on_c, 0, 66, 0
2, 18000, Note_on_c, 0, 74, 0
2, 18000, Note_on_c, 0, 71, 96
2, 18060, Note_on_c, 0, 74, 96
2, 18120, Note_on_c, 0, 74, 0
2, 18120, Note_on_c, 0, 78, 96
2, 18180, Note_on_c, 0, 78, 0
2, 18180, Note_on_c, 0, 74, 96
2, 18240, Note_on_c, 0, 74, 0
2, 18240, Note_on_c, 0, 71, 0
2, 18240, Note_on_c, 0, 83, 96
2, 18300, Note_on_c, 0, 55, 96
2, 18360, Note_on_c, 0, 55, 0
2, 18360, Note_on_c, 0, 59, 96
2, 18420, Note_on_c, 0, 59, 0
2, 18420, Note_on_c, 0, 64, 96
2, 18480, Note_on_c, 0, 64, 0
2, 18480, Note_on_c, 0, 83, 0
2, 18480, Note_on_c, 0, 67, 96
2, 18540, Note_on_c, 0, 83, 96
2, 18600, Note_on_c, 0, 83, 0
2, 18600, Note_on_c, 0, 79, 96
2, 18660, Note_on_c, 0, 79, 0
2, 18660, Note_on_c, 0, 76, 96
2, 18720, Note_on_c, 0, 76, 0
2, 18720, Note_on_c, 0, 67, 0
2, 18720, Note_on_c, 0, 72, 96
2, 18780, Note_on_c, 0, 57, 96
2, 18840, Note_on_c, 0, 57, 0
2, 18840, Note_on_c, 0, 60, 96
2, 18900, Note_on_c, 0, 60, 0
2, 18900, Note_on_c, 0, 64, 96
2, 18960, Note_on_c, 0, 64, 0
2, 18960, Note_on_c, 0, 72, 0
2, 18960, Note_on_c, 0, 69, 96
2, 19020, Note_on_c, 0, 72, 96
2, 19080, Note_on_c, 0, 72, 0
2, 19080, Note_on_c, 0, 76, 96
2, 19140, Note_on_c, 0, 76, 0
2, 19140, Note_on_c, 0, 72, 96
2, 19200, Note_on_c, 0, 72, 0
2, 19200, Note_on_c, 0, 69, 0
2, 19200, Note_on_c, 0, 81, 96
2, 19260, Note_on_c, 0, 54, 96
2, 19320, Note_on_c, 0, 54, 0
2, 19320, Note_on_c, 0, 57, 96
2, 19380, Note_on_c, 0, 57, 0
2, 19380, Note_on_c, 0, 62, 96
2, 19440, Note_on_c, 0, 62, 0
2, 19440, Note_on_c, 0, 81, 0
2, 19440, Note_on_c, 0, 66, 96
2, 19500, Note_on_c, 0, 81, 96
2, 19560, Note_on_c, 0, 81, 0
2, 19560, Note_on_c, 0, 78, 96
2, 19620, Note_on_c, 0, 78, 0
2, 19620, Note_on_c, 0, 74, 96
2, 19680, Note_on_c, 0, 74, 0
2, 19680, Note_on_c, 0, 66, 0
2, 19680, Note_on_c, 0, 71, 96
2, 19740, Note_on_c, 0, 55, 96
2, 19800, Note_on_c, 0, 55, 0
2, 19800, Note_on_c, 0, 59, 96
2, 19860, Note_on_c, 0, 59, 0
2, 19860, Note_on_c, 0, 62, 96
2, 19920, Note_on_c, 0, 62, 0
2, 19920, Note_on_c, 0, 71, 0
2, 19920, Note_on_c, 0, 67, 96
2, 19980, Note_on_c, 0, 79, 96
2, 20040, Note_on_c, 0, 79, 0
2, 20040, Note_on_c, 0, 74, 96
2, 20100, Note_on_c, 0, 74, 0
2, 20100, Note_on_c, 0, 71, 96
2, 20160, Note_on_c, 0, 71, 0
2, 20160, Note_on_c, 0, 67, 0
2, 20160, Note_on_c, 0, 64, 96
2, 20160, Note_on_c, 0, 60, 96
2, 20160, Note_on_c, 0, 69, 96
2, 20256, Note_on_c, 0, 60, 0
2, 20256, Note_on_c, 0, 64, 0
2, 20280, Note_on_c, 0, 64, 96
2, 20280, Note_on_c, 0, 60, 96
2, 20376, Note_on_c, 0, 60, 0
2, 20376, Note_on_c, 0, 64, 0
2, 20400, Note_on_c, 0, 64, 96
2, 20400, Note_on_c, 0, 60, 96
2, 20496, Note_on_c, 0, 60, 0
2, 20496, Note_on_c, 0, 64, 0
2, 20520, Note_on_c, 0, 64, 96
2, 20520, Note_on_c, 0, 60, 96
2, 20616, Note_on_c, 0, 60, 0
2, 20616, Note_on_c, 0, 64, 0
2, 20640, Note_on_c, 0, 69, 0
2, 20640, Note_on_c, 0, 64, 96
2, 20640, Note_on_c, 0, 60, 96
2, 20640, Note_on_c, 0, 71, 108
2, 20670, Note_on_c, 0, 71, 0
2, 20670, Note_on_c, 0, 72, 96
2, 20736, Note_on_c, 0, 60, 0
2, 20736, Note_on_c, 0, 64, 0
2, 20760, Note_on_c, 0, 64, 96
2, 20760, Note_on_c, 0, 60, 96
2, 20856, Note_on_c, 0, 60, 0
2, 20856, Note_on_c, 0, 64, 0
2, 20880, Note_on_c, 0, 72, 0
2, 20880, Note_on_c, 0, 64, 96
2, 20880, Note_on_c, 0, 60, 96
2, 20880, Note_on_c, 0, 75, 108
2, 20910, Note_on_c, 0, 75, 0
2, 20910, Note_on_c, 0, 76, 96
2, 20976, Note_on_c, 0, 60, 0
2, 20976, Note_on_c, 0, 64, 0
2, 21000, Note_on_c, 0, 60, 96
2, 21000, Note_on_c, 0, 64, 96
2, 21096, Note_on_c, 0, 64, 0
2, 21096, Note_on_c, 0, 60, 0
2, 21120, Note_on_c, 0, 76, 0
2, 21120, Note_on_c, 0, 64, 96
2, 21120, Note_on_c, 0, 60, 96
2, 21120, Note_on_c, 0, 80, 108
2, 21150, Note_on_c, 0, 80, 0
2, 21150, Note_on_c, 0, 81, 96
2, 21216, Note_on_c, 0, 60, 0
2, 21216, Note_on_c, 0, 64, 0
2, 21240, Note_on_c, 0, 64, 96
2, 21240, Note_on_c, 0, 60, 96
2, 21336, Note_on_c, 0, 60, 0
2, 21336, Note_on_c, 0, 64, 0
2, 21360, Note_on_c, 0, 64, 96
2, 21360, Note_on_c, 0, 60, 96
2, 21456, Note_on_c, 0, 60, 0
2, 21456, Note_on_c, 0, 64, 0
2, 21480, Note_on_c, 0, 81, 0
2, 21480, Note_on_c, 0, 64, 96
2, 21480, Note_on_c, 0, 60, 96
2, 21480, Note_on_c, 0, 83, 96
2, 21510, Note_on_c, 0, 83, 0
2, 21510, Note_on_c, 0, 81, 96
2, 21540, Note_on_c, 0, 81, 0
2, 21540, Note_on_c, 0, 80, 96
2, 21570, Note_on_c, 0, 80, 0
2, 21570, Note_on_c, 0, 81, 96
2, 21576, Note_on_c, 0, 60, 0
2, 21576, Note_on_c, 0, 64, 0
2, 21600, Note_on_c, 0, 81, 0
2, 21600, Note_on_c, 0, 64, 96
2, 21600, Note_on_c, 0, 60, 96
2, 21600, Note_on_c, 0, 84, 96
2, 21696, Note_on_c, 0, 60, 0
2, 21696, Note_on_c, 0, 64, 0
2, 21720, Note_on_c, 0, 84, 0
2, 21720, Note_on_c, 0, 64, 96
2, 21720, Note_on_c, 0, 60, 96
2, 21720, Note_on_c, 0, 81, 96
2, 21816, Note_on_c, 0, 60, 0
2, 21816, Note_on_c, 0, 64, 0
2, 21840, Note_on_c, 0, 81, 0
2, 21840, Note_on_c, 0, 64, 96
2, 21840, Note_on_c, 0, 60, 96
2, 21840, Note_on_c, 0, 84, 96
2, 21936, Note_on_c, 0, 60, 0
2, 21936, Note_on_c, 0, 64, 0
2, 21960, Note_on_c, 0, 84, 0
2, 21960, Note_on_c, 0, 81, 96
2, 21960, Note_on_c, 0, 60, 96
2, 21960, Note_on_c, 0, 64, 96
2, 22056, Note_on_c, 0, 64, 0
2, 22056, Note_on_c, 0, 60, 0
2, 22080, Note_on_c, 0, 81, 0
2, 22080, Note_on_c, 0, 83, 96
2, 22080, Note_on_c, 0, 62, 96
2, 22140, Note_on_c, 0, 62, 0
2, 22140, Note_on_c, 0, 71, 96
2, 22200, Note_on_c, 0, 71, 0
2, 22200, Note_on_c, 0, 83, 0
2, 22200, Note_on_c, 0, 79, 96
2, 22200, Note_on_c, 0, 67, 96
2, 22260, Note_on_c, 0, 67, 0
2, 22260, Note_on_c, 0, 71, 96
2, 22320, Note_on_c, 0, 71, 0
2, 22320, Note_on_c, 0, 79, 0
2, 22320, Note_on_c, 0, 86, 96
2, 22320, Note_on_c, 0, 62, 96
2, 22380, Note_on_c, 0, 62, 0
2, 22380, Note_on_c, 0, 71, 96
2, 22440, Note_on_c, 0, 71, 0
2, 22440, Note_on_c, 0, 67, 96
2, 22500, Note_on_c, 0, 67, 0
2, 22500, Note_on_c, 0, 71, 96
2, 22560, Note_on_c, 0, 71, 0
2, 22560, Note_on_c, 0, 62, 96
2, 22620, Note_on_c, 0, 62, 0
2, 22620, Note_on_c, 0, 71, 96
2, 22680, Note_on_c, 0, 71, 0
2, 22680, Note_on_c, 0, 67, 96
2, 22740, Note_on_c, 0, 67, 0
2, 22740, Note_on_c, 0, 71, 96
2, 22800, Note_on_c, 0, 71, 0
2, 22800, Note_on_c, 0, 86, 0
2, 22800, Note_on_c, 0, 84, 96
2, 22800, Note_on_c, 0, 62, 96
2, 22860, Note_on_c, 0, 62, 0
2, 22860, Note_on_c, 0, 84, 0
2, 22860, Note_on_c, 0, 83, 96
2, 22860, Note_on_c, 0, 71, 96
2, 22920, Note_on_c, 0, 71, 0
2, 22920, Note_on_c, 0, 83, 0
2, 22920, Note_on_c, 0, 81, 96
2, 22920, Note_on_c, 0, 67, 96
2, 22980, Note_on_c, 0, 67, 0
2, 22980, Note_on_c, 0, 81, 0
2, 22980, Note_on_c, 0, 79, 96
2, 22980, Note_on_c, 0, 71, 96
2, 23040, Note_on_c, 0, 71, 0
2, 23040, Note_on_c, 0, 79, 0
2, 23040, Note_on_c, 0, 83, 96
2, 23040, Note_on_c, 0, 62, 96
2, 23070, Note_on_c, 0, 83, 0
2, 23070, Note_on_c, 0, 81, 72
2, 23100, Note_on_c, 0, 62, 0
2, 23100, Note_on_c, 0, 72, 72
2, 23100, Note_on_c, 0, 83, 72
2, 23103, Note_on_c, 0, 81, 0
2, 23130, Note_on_c, 0, 81, 73
2, 23133, Note_on_c, 0, 83, 0
2, 23160, Note_on_c, 0, 66, 73
2, 23160, Note_on_c, 0, 83, 73
2, 23163, Note_on_c, 0, 81, 0
2, 23166, Note_on_c, 0, 72, 0
2, 23190, Note_on_c, 0, 81, 75
2, 23193, Note_on_c, 0, 83, 0
2, 23220, Note_on_c, 0, 72, 75
2, 23220, Note_on_c, 0, 83, 75
2, 23223, Note_on_c, 0, 81, 0
2, 23226, Note_on_c, 0, 66, 0
2, 23250, Note_on_c, 0, 81, 76
2, 23253, Note_on_c, 0, 83, 0
2, 23280, Note_on_c, 0, 62, 78
2, 23280, Note_on_c, 0, 83, 78
2, 23283, Note_on_c, 0, 81, 0
2, 23286, Note_on_c, 0, 72, 0
2, 23310, Note_on_c, 0, 81, 78
2, 23313, Note_on_c, 0, 83, 0
2, 23340, Note_on_c, 0, 72, 79
2, 23340, Note_on_c, 0, 83, 79
2, 23343, Note_on_c, 0, 81, 0
2, 23346, Note_on_c, 0, 62, 0
2, 23370, Note_on_c, 0, 81, 79
2, 23373, Note_on_c, 0, 83, 0
2, 23400, Note_on_c, 0, 66, 81
2, 23400, Note_on_c, 0, 83, 81
2, 23403, Note_on_c, 0, 81, 0
2, 23406, Note_on_c, 0, 72, 0
2, 23430, Note_on_c, 0, 81, 81
2, 23433, Note_on_c, 0, 83, 0
2, 23460, Note_on_c, 0, 72, 82
2, 23460, Note_on_c, 0, 83, 82
2, 23463, Note_on_c, 0, 81, 0
2, 23466, Note_on_c, 0, 66, 0
2, 23490, Note_on_c, 0, 81, 84
2, 23493, Note_on_c, 0, 83, 0
2, 23520, Note_on_c, 0, 62, 84
2, 23520, Note_on_c, 0, 83, 84
2, 23523, Note_on_c, 0, 81, 0
2, 23526, Note_on_c, 0, 72, 0
2, 23550, Note_on_c, 0, 81, 85
2, 23553, Note_on_c, 0, 83, 0
2, 23580, Note_on_c, 0, 72, 85
2, 23580, Note_on_c, 0, 83, 85
2, 23583, Note_on_c, 0, 81, 0
2, 23586, Note_on_c, 0, 62, 0
2, 23610, Note_on_c, 0, 81, 87
2, 23613, Note_on_c, 0, 83, 0
2, 23640, Note_on_c, 0, 66, 87
2, 23640, Note_on_c, 0, 83, 87
2, 23643, Note_on_c, 0, 81, 0
2, 23646, Note_on_c, 0, 72, 0
2, 23670, Note_on_c, 0, 81, 88
2, 23673, Note_on_c, 0, 83, 0
2, 23700, Note_on_c, 0, 72, 88
2, 23700, Note_on_c, 0, 83, 88
2, 23703, Note_on_c, 0, 81, 0
2, 23706, Note_on_c, 0, 66, 0
2, 23730, Note_on_c, 0, 81, 90
2, 23733, Note_on_c, 0, 83, 0
2, 23760, Note_on_c, 0, 62, 91
2, 23760, Note_on_c, 0, 83, 91
2, 23763, Note_on_c, 0, 81, 0
2, 23766, Note_on_c, 0, 72, 0
2, 23790, Note_on_c, 0, 81, 91
2, 23793, Note_on_c, 0, 83, 0
2, 23820, Note_on_c, 0, 72, 93
2, 23820, Note_on_c, 0, 83, 93
2, 23823, Note_on_c, 0, 81, 0
2, 23826, Note_on_c, 0, 62, 0
2, 23850, Note_on_c, 0, 81, 93
2, 23853, Note_on_c, 0, 83, 0
2, 23880, Note_on_c, 0, 66, 94
2, 23880, Note_on_c, 0, 83, 94
2, 23883, Note_on_c, 0, 81, 0
2, 23886, Note_on_c, 0, 72, 0
2, 23910, Note_on_c, 0, 81, 94
2, 23913, Note_on_c, 0, 83, 0
2, 23940, Note_on_c, 0, 72, 96
2, 23940, Note_on_c, 0, 79, 96
2, 23943, Note_on_c, 0, 81, 0
2, 23946, Note_on_c, 0, 66, 0
2, 23970, Note_on_c, 0, 79, 0
2, 23970, Note_on_c, 0, 81, 96
2, 24000, Note_on_c, 0, 81, 0
2, 24000, Note_on_c, 0, 72, 0
2, 24000, Note_on_c, 0, 79, 96
2, 24000, Note_on_c, 0, 67, 96
2, 24000, Note_on_c, 0, 71, 96
2, 24240, Note_on_c, 0, 71, 0
2, 24240, Note_on_c, 0, 67, 0
2, 24240, Note_on_c, 0, 79, 0
2, 24240, Note_on_c, 0, 79, 96
2, 24300, Note_on_c, 0, 79, 0
2, 24300, Note_on_c, 0, 74, 96
2, 24360, Note_on_c, 0, 74, 0
2, 24360, Note_on_c, 0, 79, 96
2, 24420, Note_on_c, 0, 79, 0
2, 24420, Note_on_c, 0, 83, 96
2, 24480, Note_on_c, 0, 83, 0
2, 24480, Note_on_c, 0, 86, 96
2, 24540, Note_on_c, 0, 86, 0
2, 24540, Note_on_c, 0, 83, 96
2, 24600, Note_on_c, 0, 83, 0
2, 24600, Note_on_c, 0, 79, 96
2, 24660, Note_on_c, 0, 79, 0
2, 24660, Note_on_c, 0, 83, 96
2, 24720, Note_on_c, 0, 83, 0
2, 24720, Note_on_c, 0, 62, 96
2, 24720, Note_on_c, 0, 69, 96
2, 24720, Note_on_c, 0, 72, 96
2, 24720, Note_on_c, 0, 84, 96
2, 24780, Note_on_c, 0, 84, 0
2, 24780, Note_on_c, 0, 81, 96
2, 24840, Note_on_c, 0, 81, 0
2, 24840, Note_on_c, 0, 78, 96
2, 24900, Note_on_c, 0, 78, 0
2, 24900, Note_on_c, 0, 81, 96
2, 24960, Note_on_c, 0, 81, 0
2, 24960, Note_on_c, 0, 72, 0
2, 24960, Note_on_c, 0, 69, 0
2, 24960, Note_on_c, 0, 62, 0
2, 24960, Note_on_c, 0, 67, 96
2, 24960, Note_on_c, 0, 79, 96
2, 24960, Note_on_c, 0, 71, 96
2, 25200, Note_on_c, 0, 71, 0
2, 25200, Note_on_c, 0, 79, 0
2, 25200, Note_on_c, 0, 67, 0
2, 25200, Note_on_c, 0, 67, 96
2, 25260, Note_on_c, 0, 67, 0
2, 25260, Note_on_c, 0, 62, 96
2, 25320, Note_on_c, 0, 62, 0
2, 25320, Note_on_c, 0, 67, 96
2, 25380, Note_on_c, 0, 67, 0
2, 25380, Note_on_c, 0, 71, 96
2, 25440, Note_on_c, 0, 71, 0
2, 25440, Note_on_c, 0, 74, 96
2, 25500, Note_on_c, 0, 74, 0
2, 25500, Note_on_c, 0, 71, 96
2, 25560, Note_on_c, 0, 71, 0
2, 25560, Note_on_c, 0, 67, 96
2, 25620, Note_on_c, 0, 67, 0
2, 25620, Note_on_c, 0, 71, 96
2, 25680, Note_on_c, 0, 71, 0
2, 25680, Note_on_c, 0, 50, 96
2, 25680, Note_on_c, 0, 57, 96
2, 25680, Note_on_c, 0, 60, 96
2, 25680, Note_on_c, 0, 72, 96
2, 25740, Note_on_c, 0, 72, 0
2, 25740, Note_on_c, 0, 69, 96
2, 25800, Note_on_c, 0, 69, 0
2, 25800, Note_on_c, 0, 66, 96
2, 25860, Note_on_c, 0, 66, 0
2, 25860, Note_on_c, 0, 69, 96
2, 25920, Note_on_c, 0, 69, 0
2, 25920, Note_on_c, 0, 60, 0
2, 25920, Note_on_c, 0, 57, 0
2, 25920, Note_on_c, 0, 50, 0
2, 25920, Note_on_c, 0, 59, 96
2, 25920, Note_on_c, 0, 55, 96
2, 25920, Note_on_c, 0, 67, 96
2, 26112, Note_on_c, 0, 67, 0
2, 26112, Note_on_c, 0, 55, 0
2, 26112, Note_on_c, 0, 59, 0
2, 26160, Note_on_c, 0, 55, 96
2, 26160, Note_on_c, 0, 43, 96
2, 26160, Note_on_c, 0, 83, 96
2, 26160, Note_on_c, 0, 74, 96
2, 26352, Note_on_c, 0, 74, 0
2, 26352, Note_on_c, 0, 55, 0
2, 26352, Note_on_c, 0, 43, 0
2, 26352, Note_on_c, 0, 83, 0
2, 26400, Note_on_c, 0, 55, 96
2, 26400, Note_on_c, 0, 43, 96
2, 26400, Note_on_c, 0, 79, 96
2, 26400, Note_on_c, 0, 71, 96
2, 26592, Note_on_c, 0, 71, 0
2, 26592, Note_on_c, 0, 55, 0
2, 26592, Note_on_c, 0, 43, 0
2, 26592, Note_on_c, 0, 79, 0
2, 26880, Note_on_c, 0, 72, 96
2, 26880, Note_on_c, 0, 60, 96
2, 27000, Note_on_c, 0, 60, 0
2, 27000, Note_on_c, 0, 67, 96
2, 27120, Note_on_c, 0, 67, 0
2, 27120, Note_on_c, 0, 64, 96
2, 27240, Note_on_c, 0, 64, 0
2, 27240, Note_on_c, 0, 67, 96
2, 27360, Note_on_c, 0, 67, 0
2, 27360, Note_on_c, 0, 72, 0
2, 27360, Note_on_c, 0, 76, 96
2, 27360, Note_on_c, 0, 60, 96
2, 27480, Note_on_c, 0, 60, 0
2, 27480, Note_on_c, 0, 67, 96
2, 27600, Note_on_c, 0, 67, 0
2, 27600, Note_on_c, 0, 76, 0
2, 27600, Note_on_c, 0, 79, 96
2, 27600, Note_on_c, 0, 64, 96
2, 27720, Note_on_c, 0, 64, 0
2, 27720, Note_on_c, 0, 67, 96
2, 27840, Note_on_c, 0, 67, 0
2, 27840, Note_on_c, 0, 79, 0
2, 27840, Note_on_c, 0, 71, 96
2, 27840, Note_on_c, 0, 62, 96
2, 27960, Note_on_c, 0, 62, 0
2, 27960, Note_on_c, 0, 67, 96
2, 28080, Note_on_c, 0, 67, 0
2, 28080, Note_on_c, 0, 65, 96
2, 28200, Note_on_c, 0, 65, 0
2, 28200, Note_on_c, 0, 71, 0
2, 28200, Note_on_c, 0, 72, 96
2, 28200, Note_on_c, 0, 67, 96
2, 28260, Note_on_c, 0, 72, 0
2, 28260, Note_on_c, 0, 74, 96
2, 28320, Note_on_c, 0, 74, 0
2, 28320, Note_on_c, 0, 67, 0
2, 28320, Note_on_c, 0, 72, 96
2, 28320, Note_on_c, 0, 60, 96
2, 28440, Note_on_c, 0, 60, 0
2, 28440, Note_on_c, 0, 67, 96
2, 28560, Note_on_c, 0, 67, 0
2, 28560, Note_on_c, 0, 64, 96
2, 28680, Note_on_c, 0, 64, 0
2, 28680, Note_on_c, 0, 67, 96
2, 28800, Note_on_c, 0, 67, 0
2, 28800, Note_on_c, 0, 72, 0
2, 28800, Note_on_c, 0, 81, 96
2, 28800, Note_on_c, 0, 60, 96
2, 28920, Note_on_c, 0, 60, 0
2, 28920, Note_on_c, 0, 69, 96
2, 29040, Note_on_c, 0, 69, 0
2, 29040, Note_on_c, 0, 65, 96
2, 29160, Note_on_c, 0, 65, 0
2, 29160, Note_on_c, 0, 69, 96
2, 29280, Note_on_c, 0, 69, 0
2, 29280, Note_on_c, 0, 81, 0
2, 29280, Note_on_c, 0, 79, 96
2, 29280, Note_on_c, 0, 60, 96
2, 29400, Note_on_c, 0, 60, 0
2, 29400, Note_on_c, 0, 67, 96
2, 29520, Note_on_c, 0, 67, 0
2, 29520, Note_on_c, 0, 79, 0
2, 29520, Note_on_c, 0, 84, 96
2, 29520, Note_on_c, 0, 64, 96
2, 29640, Note_on_c, 0, 64, 0
2, 29640, Note_on_c, 0, 67, 96
2, 29760, Note_on_c, 0, 67, 0
2, 29760, Note_on_c, 0, 84, 0
2, 29760, Note_on_c, 0, 79, 96
2, 29760, Note_on_c, 0, 59, 96
2, 29880, Note_on_c, 0, 59, 0
2, 29880, Note_on_c, 0, 67, 96
2, 30000, Note_on_c, 0, 67, 0
2, 30000, Note_on_c, 0, 79, 0
2, 30000, Note_on_c, 0, 77, 96
2, 30000, Note_on_c, 0, 62, 96
2, 30039, Note_on_c, 0, 77, 0
2, 30039, Note_on_c, 0, 79, 96
2, 30079, Note_on_c, 0, 79, 0
2, 30079, Note_on_c, 0, 77, 96
2, 30119, Note_on_c, 0, 77, 0
2, 30120, Note_on_c, 0, 62, 0
2, 30120, Note_on_c, 0, 76, 96
2, 30120, Note_on_c, 0, 67, 96
2, 30180, Note_on_c, 0, 76, 0
2, 30180, Note_on_c, 0, 77, 96
2, 30240, Note_on_c, 0, 77, 0
2, 30240, Note_on_c, 0, 67, 0
2, 30240, Note_on_c, 0, 76, 96
2, 30240, Note_on_c, 0, 60, 96
2, 30360, Note_on_c, 0, 60, 0
2, 30360, Note_on_c, 0, 67, 96
2, 30480, Note_on_c, 0, 67, 0
2, 30480, Note_on_c, 0, 76, 0
2, 30480, Note_on_c, 0, 64, 96
2, 30600, Note_on_c, 0, 64, 0
2, 30600, Note_on_c, 0, 67, 96
2, 30720, Note_on_c, 0, 67, 0
2, 30720, Note_on_c, 0, 69, 96
2, 30720, Note_on_c, 0, 65, 96
2, 30840, Note_on_c, 0, 69, 0
2, 30840, Note_on_c, 0, 71, 96
2, 30900, Note_on_c, 0, 71, 0
2, 30900, Note_on_c, 0, 72, 96
2, 30960, Note_on_c, 0, 72, 0
2, 30960, Note_on_c, 0, 65, 0
2, 30960, Note_on_c, 0, 74, 96
2, 31020, Note_on_c, 0, 74, 0
2, 31020, Note_on_c, 0, 76, 96
2, 31080, Note_on_c, 0, 76, 0
2, 31080, Note_on_c, 0, 77, 96
2, 31140, Note_on_c, 0, 77, 0
2, 31140, Note_on_c, 0, 79, 96
2, 31200, Note_on_c, 0, 79, 0
2, 31200, Note_on_c, 0, 81, 96
2, 31260, Note_on_c, 0, 81, 0
2, 31260, Note_on_c, 0, 79, 96
2, 31320, Note_on_c, 0, 79, 0
2, 31320, Note_on_c, 0, 77, 96
2, 31380, Note_on_c, 0, 77, 0
2, 31380, Note_on_c, 0, 76, 96
2, 31440, Note_on_c, 0, 76, 0
2, 31440, Note_on_c, 0, 53, 96
2, 31440, Note_on_c, 0, 60, 96
2, 31440, Note_on_c, 0, 74, 96
2, 31500, Note_on_c, 0, 74, 0
2, 31500, Note_on_c, 0, 72, 96
2, 31560, Note_on_c, 0, 72, 0
2, 31560, Note_on_c, 0, 71, 96
2, 31620, Note_on_c, 0, 71, 0
2, 31620, Note_on_c, 0, 69, 96
2, 31680, Note_on_c, 0, 69, 0
2, 31680, Note_on_c, 0, 60, 0
2, 31680, Note_on_c, 0, 53, 0
2, 31680, Note_on_c, 0, 67, 96
2, 31680, Note_on_c, 0, 52, 96
2, 31680, Note_on_c, 0, 60, 96
2, 31800, Note_on_c, 0, 67, 0
2, 31800, Note_on_c, 0, 69, 96
2, 31860, Note_on_c, 0, 69, 0
2, 31860, Note_on_c, 0, 71, 96
2, 31920, Note_on_c, 0, 71, 0
2, 31920, Note_on_c, 0, 60, 0
2, 31920, Note_on_c, 0, 52, 0
2, 31920, Note_on_c, 0, 72, 96
2, 31980, Note_on_c, 0, 72, 0
2, 31980, Note_on_c, 0, 74, 96
2, 32040, Note_on_c, 0, 74, 0
2, 32040, Note_on_c, 0, 76, 96
2, 32100, Note_on_c, 0, 76, 0
2, 32100, Note_on_c, 0, 77, 96
2, 32160, Note_on_c, 0, 77, 0
2, 32160, Note_on_c, 0, 79, 96
2, 32220, Note_on_c, 0, 79, 0
2, 32220, Note_on_c, 0, 77, 96
2, 32280, Note_on_c, 0, 77, 0
2, 32280, Note_on_c, 0, 76, 96
2, 32340, Note_on_c, 0, 76, 0
2, 32340, Note_on_c, 0, 74, 96
2, 32400, Note_on_c, 0, 74, 0
2, 32400, Note_on_c, 0, 52, 96
2, 32400, Note_on_c, 0, 60, 96
2, 32400, Note_on_c, 0, 72, 96
2, 32460, Note_on_c, 0, 72, 0
2, 32460, Note_on_c, 0, 71, 96
2, 32520, Note_on_c, 0, 71, 0
2, 32520, Note_on_c, 0, 69, 96
2, 32580, Note_on_c, 0, 69, 0
2, 32580, Note_on_c, 0, 67, 96
2, 32640, Note_on_c, 0, 67, 0
2, 32640, Note_on_c, 0, 60, 0
2, 32640, Note_on_c, 0, 52, 0
2, 32640, Note_on_c, 0, 65, 96
2, 32640, Note_on_c, 0, 50, 96
2, 32640, Note_on_c, 0, 60, 96
2, 32760, Note_on_c, 0, 65, 0
2, 32760, Note_on_c, 0, 67, 96
2, 32820, Note_on_c, 0, 67, 0
2, 32820, Note_on_c, 0, 69, 96
2, 32880, Note_on_c, 0, 69, 0
2, 32880, Note_on_c, 0, 60, 0
2, 32880, Note_on_c, 0, 50, 0
2, 32880, Note_on_c, 0, 71, 96
2, 32940, Note_on_c, 0, 71, 0
2, 32940, Note_on_c, 0, 72, 96
2, 33000, Note_on_c, 0, 72, 0
2, 33000, Note_on_c, 0, 74, 96
2, 33060, Note_on_c, 0, 74, 0
2, 33060, Note_on_c, 0, 76, 96
2, 33120, Note_on_c, 0, 76, 0
2, 33120, Note_on_c, 0, 77, 96
2, 33180, Note_on_c, 0, 77, 0
2, 33180, Note_on_c, 0, 76, 96
2, 33240, Note_on_c, 0, 76, 0
2, 33240, Note_on_c, 0, 74, 96
2, 33300, Note_on_c, 0, 74, 0
2, 33300, Note_on_c, 0, 72, 96
2, 33360, Note_on_c, 0, 72, 0
2, 33360, Note_on_c, 0, 50, 96
2, 33360, Note_on_c, 0, 59, 96
2, 33360, Note_on_c, 0, 71, 96
2, 33420, Note_on_c, 0, 71, 0
2, 33420, Note_on_c, 0, 69, 96
2, 33480, Note_on_c, 0, 69, 0
2, 33480, Note_on_c, 0, 67, 96
2, 33540, Note_on_c, 0, 67, 0
2, 33540, Note_on_c, 0, 65, 96
2, 33600, Note_on_c, 0, 65, 0
2, 33600, Note_on_c, 0, 59, 0
2, 33600, Note_on_c, 0, 50, 0
2, 33600, Note_on_c, 0, 64, 96
2, 33600, Note_on_c, 0, 48, 96
2, 33600, Note_on_c, 0, 60, 96
2, 33720, Note_on_c, 0, 64, 0
2, 33720, Note_on_c, 0, 65, 96
2, 33780, Note_on_c, 0, 65, 0
2, 33780, Note_on_c, 0, 67, 96
2, 33840, Note_on_c, 0, 67, 0
2, 33840, Note_on_c, 0, 60, 0
2, 33840, Note_on_c, 0, 48, 0
2, 33840, Note_on_c, 0, 69, 96
2, 33900, Note_on_c, 0, 69, 0
2, 33900, Note_on_c, 0, 71, 96
2, 33960, Note_on_c, 0, 71, 0
2, 33960, Note_on_c, 0, 72, 96
2, 34020, Note_on_c, 0, 72, 0
2, 34020, Note_on_c, 0, 74, 96
2, 34080, Note_on_c, 0, 74, 0
2, 34080, Note_on_c, 0, 76, 96
2, 34140, Note_on_c, 0, 76, 0
2, 34140, Note_on_c, 0, 74, 96
2, 34200, Note_on_c, 0, 74, 0
2, 34200, Note_on_c, 0, 72, 96
2, 34260, Note_on_c, 0, 72, 0
2, 34260, Note_on_c, 0, 71, 96
2, 34320, Note_on_c, 0, 71, 0
2, 34320, Note_on_c, 0, 48, 96
2, 34320, Note_on_c, 0, 52, 96
2, 34320, Note_on_c, 0, 69, 96
2, 34380, Note_on_c, 0, 69, 0
2, 34380, Note_on_c, 0, 67, 96
2, 34440, Note_on_c, 0, 67, 0
2, 34440, Note_on_c, 0, 65, 96
2, 34500, Note_on_c, 0, 65, 0
2, 34500, Note_on_c, 0, 64, 96
2, 34560, Note_on_c, 0, 64, 0
2, 34560, Note_on_c, 0, 52, 0
2, 34560, Note_on_c, 0, 48, 0
2, 34560, Note_on_c, 0, 53, 96
2, 34560, Note_on_c, 0, 57, 96
2, 34560, Note_on_c, 0, 62, 96
2, 34680, Note_on_c, 0, 62, 0
2, 34680, Note_on_c, 0, 64, 96
2, 34740, Note_on_c, 0, 64, 0
2, 34740, Note_on_c, 0, 65, 96
2, 34800, Note_on_c, 0, 65, 0
2, 34800, Note_on_c, 0, 67, 96
2, 34860, Note_on_c, 0, 67, 0
2, 34860, Note_on_c, 0, 69, 96
2, 34920, Note_on_c, 0, 69, 0
2, 34920, Note_on_c, 0, 71, 96
2, 34980, Note_on_c, 0, 71, 0
2, 34980, Note_on_c, 0, 73, 96
2, 35040, Note_on_c, 0, 73, 0
2, 35040, Note_on_c, 0, 74, 96
2, 35100, Note_on_c, 0, 74, 0
2, 35100, Note_on_c, 0, 69, 96
2, 35160, Note_on_c, 0, 69, 0
2, 35160, Note_on_c, 0, 71, 96
2, 35220, Note_on_c, 0, 71, 0
2, 35220, Note_on_c, 0, 73, 96
2, 35280, Note_on_c, 0, 73, 0
2, 35280, Note_on_c, 0, 74, 96
2, 35340, Note_on_c, 0, 74, 0
2, 35340, Note_on_c, 0, 76, 96
2, 35400, Note_on_c, 0, 76, 0
2, 35400, Note_on_c, 0, 77, 96
2, 35460, Note_on_c, 0, 77, 0
2, 35460, Note_on_c, 0, 79, 96
2, 35520, Note_on_c, 0, 79, 0
2, 35520, Note_on_c, 0, 57, 0
2, 35520, Note_on_c, 0, 53, 0
2, 35520, Note_on_c, 0, 81, 96
2, 35520, Note_on_c, 0, 53, 96
2, 35580, Note_on_c, 0, 81, 0
2, 35580, Note_on_c, 0, 83, 96
2, 35640, Note_on_c, 0, 83, 0
2, 35640, Note_on_c, 0, 84, 96
2, 35700, Note_on_c, 0, 84, 0
2, 35700, Note_on_c, 0, 83, 96
2, 35760, Note_on_c, 0, 83, 0
2, 35760, Note_on_c, 0, 81, 96
2, 35820, Note_on_c, 0, 81, 0
2, 35820, Note_on_c, 0, 79, 96
2, 35880, Note_on_c, 0, 79, 0
2, 35880, Note_on_c, 0, 53, 0
2, 35880, Note_on_c, 0, 77, 96
2, 35880, Note_on_c, 0, 55, 96
2, 35940, Note_on_c, 0, 77, 0
2, 35940, Note_on_c, 0, 76, 96
2, 36000, Note_on_c, 0, 76, 0
2, 36000, Note_on_c, 0, 55, 0
2, 36000, Note_on_c, 0, 77, 96
2, 36000, Note_on_c, 0, 57, 96
2, 36060, Note_on_c, 0, 77, 0
2, 36060, Note_on_c, 0, 79, 96
2, 36120, Note_on_c, 0, 79, 0
2, 36120, Note_on_c, 0, 81, 96
2, 36180, Note_on_c, 0, 81, 0
2, 36180, Note_on_c, 0, 79, 96
2, 36240, Note_on_c, 0, 79, 0
2, 36240, Note_on_c, 0, 57, 0
2, 36240, Note_on_c, 0, 54, 96
2, 36240, Note_on_c, 0, 77, 96
2, 36300, Note_on_c, 0, 77, 0
2, 36300, Note_on_c, 0, 76, 96
2, 36360, Note_on_c, 0, 76, 0
2, 36360, Note_on_c, 0, 74, 96
2, 36420, Note_on_c, 0, 74, 0
2, 36420, Note_on_c, 0, 72, 96
2, 36480, Note_on_c, 0, 72, 0
2, 36480, Note_on_c, 0, 54, 0
2, 36480, Note_on_c, 0, 71, 96
2, 36480, Note_on_c, 0, 43, 96
2, 36540, Note_on_c, 0, 43, 0
2, 36540, Note_on_c, 0, 47, 96
2, 36600, Note_on_c, 0, 47, 0
2, 36600, Note_on_c, 0, 71, 0
2, 36600, Note_on_c, 0, 79, 96
2, 36600, Note_on_c, 0, 50, 96
2, 36660, Note_on_c, 0, 50, 0
2, 36660, Note_on_c, 0, 55, 96
2, 36720, Note_on_c, 0, 55, 0
2, 36720, Note_on_c, 0, 79, 0
2, 36720, Note_on_c, 0, 76, 96
2, 36720, Note_on_c, 0, 43, 96
2, 36780, Note_on_c, 0, 43, 0
2, 36780, Note_on_c, 0, 48, 96
2, 36810, Note_on_c, 0, 76, 0
2, 36840, Note_on_c, 0, 48, 0
2, 36840, Note_on_c, 0, 72, 96
2, 36840, Note_on_c, 0, 52, 96
2, 36900, Note_on_c, 0, 52, 0
2, 36900, Note_on_c, 0, 55, 96
2, 36930, Note_on_c, 0, 72, 0
2, 36960, Note_on_c, 0, 55, 0
2, 36960, Note_on_c, 0, 74, 96
2, 36960, Note_on_c, 0, 43, 96
2, 37020, Note_on_c, 0, 43, 0
2, 37020, Note_on_c, 0, 47, 96
2, 37080, Note_on_c, 0, 47, 0
2, 37080, Note_on_c, 0, 74, 0
2, 37080, Note_on_c, 0, 79, 96
2, 37080, Note_on_c, 0, 50, 96
2, 37140, Note_on_c, 0, 50, 0
2, 37140, Note_on_c, 0, 55, 96
2, 37200, Note_on_c, 0, 55, 0
2, 37200, Note_on_c, 0, 79, 0
2, 37200, Note_on_c, 0, 76, 96
2, 37200, Note_on_c, 0, 43, 96
2, 37260, Note_on_c, 0, 43, 0
2, 37260, Note_on_c, 0, 48, 96
2, 37290, Note_on_c, 0, 76, 0
2, 37320, Note_on_c, 0, 48, 0
2, 37320, Note_on_c, 0, 72, 96
2, 37320, Note_on_c, 0, 52, 96
2, 37380, Note_on_c, 0, 52, 0
2, 37380, Note_on_c, 0, 55, 96
2, 37410, Note_on_c, 0, 72, 0
2, 37440, Note_on_c, 0, 55, 0
2, 37440, Note_on_c, 0, 43, 96
2, 37440, Note_on_c, 0, 74, 96
2, 37632, Note_on_c, 0, 74, 0
2, 37632, Note_on_c, 0, 43, 0
2, 37680, Note_on_c, 0, 55, 96
2, 37680, Note_on_c, 0, 79, 96
2, 37680, Note_on_c, 0, 74, 96
2, 37680, Note_on_c, 0, 71, 96
2, 37872, Note_on_c, 0, 71, 0
2, 37872, Note_on_c, 0, 55, 0
2, 37872, Note_on_c, 0, 79, 0
2, 37872, Note_on_c, 0, 74, 0
2, 37920, Note_on_c, 0, 43, 96
2, 37920, Note_on_c, 0, 67, 96
2, 38112, Note_on_c, 0, 67, 0
2, 38112, Note_on_c, 0, 43, 0
2, 38400, Note_on_c, 0, 61, 96
2, 38460, Note_on_c, 0, 61, 0
2, 38460, Note_on_c, 0, 62, 96
2, 38520, Note_on_c, 0, 62, 0
2, 38520, Note_on_c, 0, 61, 96
2, 38580, Note_on_c, 0, 61, 0
2, 38580, Note_on_c, 0, 62, 96
2, 38640, Note_on_c, 0, 62, 0
2, 38640, Note_on_c, 0, 61, 96
2, 38700, Note_on_c, 0, 61, 0
2, 38700, Note_on_c, 0, 62, 96
2, 38760, Note_on_c, 0, 62, 0
2, 38760, Note_on_c, 0, 61, 96
2, 38820, Note_on_c, 0, 61, 0
2, 38820, Note_on_c, 0, 62, 96
2, 38880, Note_on_c, 0, 62, 0
2, 38880, Note_on_c, 0, 60, 96
2, 38940, Note_on_c, 0, 60, 0
2, 38940, Note_on_c, 0, 62, 96
2, 39000, Note_on_c, 0, 62, 0
2, 39000, Note_on_c, 0, 60, 96
2, 39060, Note_on_c, 0, 60, 0
2, 39060, Note_on_c, 0, 62, 96
2, 39120, Note_on_c, 0, 62, 0
2, 39120, Note_on_c, 0, 60, 96
2, 39180, Note_on_c, 0, 60, 0
2, 39180, Note_on_c, 0, 62, 96
2, 39240, Note_on_c, 0, 62, 0
2, 39240, Note_on_c, 0, 60, 96
2, 39300, Note_on_c, 0, 60, 0
2, 39300, Note_on_c, 0, 62, 96
2, 39360, Note_on_c, 0, 62, 0
2, 39360, Note_on_c, 0, 86, 96
2, 39360, Note_on_c, 0, 59, 96
2, 39420, Note_on_c, 0, 59, 0
2, 39420, Note_on_c, 0, 62, 96
2, 39480, Note_on_c, 0, 62, 0
2, 39480, Note_on_c, 0, 86, 0
2, 39480, Note_on_c, 0, 83, 96
2, 39480, Note_on_c, 0, 59, 96
2, 39540, Note_on_c, 0, 59, 0
2, 39540, Note_on_c, 0, 62, 96
2, 39600, Note_on_c, 0, 62, 0
2, 39600, Note_on_c, 0, 83, 0
2, 39600, Note_on_c, 0, 79, 96
2, 39600, Note_on_c, 0, 59, 96
2, 39660, Note_on_c, 0, 59, 0
2, 39660, Note_on_c, 0, 62, 96
2, 39720, Note_on_c, 0, 62, 0
2, 39720, Note_on_c, 0, 59, 96
2, 39780, Note_on_c, 0, 59, 0
2, 39780, Note_on_c, 0, 62, 96
2, 39840, Note_on_c, 0, 62, 0
2, 39840, Note_on_c, 0, 59, 96
2, 39900, Note_on_c, 0, 59, 0
2, 39900, Note_on_c, 0, 62, 96
2, 39960, Note_on_c, 0, 62, 0
2, 39960, Note_on_c, 0, 79, 0
2, 39960, Note_on_c, 0, 81, 96
2, 39960, Note_on_c, 0, 59, 96
2, 40020, Note_on_c, 0, 59, 0
2, 40020, Note_on_c, 0, 81, 0
2, 40020, Note_on_c, 0, 83, 96
2, 40020, Note_on_c, 0, 62, 96
2, 40080, Note_on_c, 0, 62, 0
2, 40080, Note_on_c, 0, 83, 0
2, 40080, Note_on_c, 0, 81, 96
2, 40080, Note_on_c, 0, 59, 96
2, 40140, Note_on_c, 0, 59, 0
2, 40140, Note_on_c, 0, 62, 96
2, 40200, Note_on_c, 0, 62, 0
2, 40200, Note_on_c, 0, 81, 0
2, 40200, Note_on_c, 0, 79, 96
2, 40200, Note_on_c, 0, 59, 96
2, 40260, Note_on_c, 0, 59, 0
2, 40260, Note_on_c, 0, 62, 96
2, 40320, Note_on_c, 0, 62, 0
2, 40320, Note_on_c, 0, 79, 0
2, 40320, Note_on_c, 0, 81, 96
2, 40320, Note_on_c, 0, 60, 96
2, 40350, Note_on_c, 0, 81, 0
2, 40350, Note_on_c, 0, 79, 72
2, 40380, Note_on_c, 0, 79, 0
2, 40380, Note_on_c, 0, 60, 0
2, 40380, Note_on_c, 0, 81, 78
2, 40380, Note_on_c, 0, 62, 96
2, 40410, Note_on_c, 0, 81, 0
2, 40410, Note_on_c, 0, 79, 84
2, 40440, Note_on_c, 0, 79, 0
2, 40440, Note_on_c, 0, 62, 0
2, 40440, Note_on_c, 0, 81, 90
2, 40440, Note_on_c, 0, 59, 96
2, 40470, Note_on_c, 0, 81, 0
2, 40470, Note_on_c, 0, 79, 96
2, 40500, Note_on_c, 0, 79, 0
2, 40500, Note_on_c, 0, 59, 0
2, 40500, Note_on_c, 0, 78, 102
2, 40500, Note_on_c, 0, 62, 96
2, 40550, Note_on_c, 0, 78, 0
2, 40560, Note_on_c, 0, 62, 0
2, 40560, Note_on_c, 0, 78, 96
2, 40560, Note_on_c, 0, 57, 96
2, 40620, Note_on_c, 0, 57, 0
2, 40620, Note_on_c, 0, 62, 96
2, 40680, Note_on_c, 0, 62, 0
2, 40680, Note_on_c, 0, 59, 96
2, 40740, Note_on_c, 0, 59, 0
2, 40740, Note_on_c, 0, 62, 96
2, 40800, Note_on_c, 0, 62, 0
2, 40800, Note_on_c, 0, 78, 0
2, 40800, Note_on_c, 0, 60, 96
2, 40860, Note_on_c, 0, 60, 0
2, 40860, Note_on_c, 0, 62, 96
2, 40920, Note_on_c, 0, 62, 0
2, 40920, Note_on_c, 0, 59, 96
2, 40980, Note_on_c, 0, 59, 0
2, 40980, Note_on_c, 0, 62, 96
2, 41040, Note_on_c, 0, 62, 0
2, 41040, Note_on_c, 0, 60, 96
2, 41100, Note_on_c, 0, 60, 0
2, 41100, Note_on_c, 0, 62, 96
2, 41160, Note_on_c, 0, 62, 0
2, 41160, Note_on_c, 0, 57, 96
2, 41220, Note_on_c, 0, 57, 0
2, 41220, Note_on_c, 0, 62, 96
2, 41280, Note_on_c, 0, 62, 0
2, 41280, Note_on_c, 0, 86, 96
2, 41280, Note_on_c, 0, 59, 96
2, 41340, Note_on_c, 0, 59, 0
2, 41340, Note_on_c, 0, 62, 96
2, 41400, Note_on_c, 0, 62, 0
2, 41400, Note_on_c, 0, 86, 0
2, 41400, Note_on_c, 0, 83, 96
2, 41400, Note_on_c, 0, 59, 96
2, 41460, Note_on_c, 0, 59, 0
2, 41460, Note_on_c, 0, 62, 96
2, 41520, Note_on_c, 0, 62, 0
2, 41520, Note_on_c, 0, 83, 0
2, 41520, Note_on_c, 0, 79, 96
2, 41520, Note_on_c, 0, 59, 96
2, 41580, Note_on_c, 0, 59, 0
2, 41580, Note_on_c, 0, 62, 96
2, 41640, Note_on_c, 0, 62, 0
2, 41640, Note_on_c, 0, 59, 96
2, 41700, Note_on_c, 0, 59, 0
2, 41700, Note_on_c, 0, 62, 96
2, 41760, Note_on_c, 0, 62, 0
2, 41760, Note_on_c, 0, 59, 96
2, 41820, Note_on_c, 0, 59, 0
2, 41820, Note_on_c, 0, 62, 96
2, 41880, Note_on_c, 0, 62, 0
2, 41880, Note_on_c, 0, 79, 0
2, 41880, Note_on_c, 0, 81, 96
2, 41880, Note_on_c, 0, 59, 96
2, 41940, Note_on_c, 0, 59, 0
2, 41940, Note_on_c, 0, 81, 0
2, 41940, Note_on_c, 0, 83, 96
2, 41940, Note_on_c, 0, 62, 96
2, 42000, Note_on_c, 0, 62, 0
2, 42000, Note_on_c, 0, 83, 0
2, 42000, Note_on_c, 0, 81, 96
2, 42000, Note_on_c, 0, 59, 96
2, 42060, Note_on_c, 0, 59, 0
2, 42060, Note_on_c, 0, 62, 96
2, 42120, Note_on_c, 0, 62, 0
2, 42120, Note_on_c, 0, 81, 0
2, 42120, Note_on_c, 0, 79, 96
2, 42120, Note_on_c, 0, 59, 96
2, 42180, Note_on_c, 0, 59, 0
2, 42180, Note_on_c, 0, 62, 96
2, 42240, Note_on_c, 0, 62, 0
2, 42240, Note_on_c, 0, 79, 0
2, 42240, Note_on_c, 0, 81, 96
2, 42240, Note_on_c, 0, 60, 96
2, 42270, Note_on_c, 0, 81, 0
2, 42270, Note_on_c, 0, 79, 72
2, 42300, Note_on_c, 0, 79, 0
2, 42300, Note_on_c, 0, 60, 0
2, 42300, Note_on_c, 0, 81, 78
2, 42300, Note_on_c, 0, 62, 96
2, 42330, Note_on_c, 0, 81, 0
2, 42330, Note_on_c, 0, 79, 84
2, 42360, Note_on_c, 0, 79, 0
2, 42360, Note_on_c, 0, 62, 0
2, 42360, Note_on_c, 0, 81, 88
2, 42360, Note_on_c, 0, 59, 96
2, 42390, Note_on_c, 0, 81, 0
2, 42390, Note_on_c, 0, 79, 94
2, 42420, Note_on_c, 0, 79, 0
2, 42420, Note_on_c, 0, 59, 0
2, 42420, Note_on_c, 0, 78, 102
2, 42420, Note_on_c, 0, 62, 96
2, 42470, Note_on_c, 0, 78, 0
2, 42480, Note_on_c, 0, 62, 0
2, 42480, Note_on_c, 0, 78, 96
2, 42480, Note_on_c, 0, 57, 96
2, 42540, Note_on_c, 0, 57, 0
2, 42540, Note_on_c, 0, 62, 96
2, 42600, Note_on_c, 0, 62, 0
2, 42600, Note_on_c, 0, 59, 96
2, 42660, Note_on_c, 0, 59, 0
2, 42660, Note_on_c, 0, 62, 96
2, 42720, Note_on_c, 0, 62, 0
2, 42720, Note_on_c, 0, 78, 0
2, 42720, Note_on_c, 0, 60, 96
2, 42780, Note_on_c, 0, 60, 0
2, 42780, Note_on_c, 0, 62, 96
2, 42840, Note_on_c, 0, 62, 0
2, 42840, Note_on_c, 0, 59, 96
2, 42900, Note_on_c, 0, 59, 0
2, 42900, Note_on_c, 0, 62, 96
2, 42960, Note_on_c, 0, 62, 0
2, 42960, Note_on_c, 0, 60, 96
2, 43020, Note_on_c, 0, 60, 0
2, 43020, Note_on_c, 0, 62, 96
2, 43080, Note_on_c, 0, 62, 0
2, 43080, Note_on_c, 0, 57, 96
2, 43140, Note_on_c, 0, 57, 0
2, 43140, Note_on_c, 0, 62, 96
2, 43200, Note_on_c, 0, 62, 0
2, 43200, Note_on_c, 0, 86, 96
2, 43260, Note_on_c, 0, 59, 96
2, 43320, Note_on_c, 0, 59, 0
2, 43320, Note_on_c, 0, 62, 96
2, 43380, Note_on_c, 0, 62, 0
2, 43380, Note_on_c, 0, 67, 96
2, 43440, Note_on_c, 0, 67, 0
2, 43440, Note_on_c, 0, 86, 0
2, 43440, Note_on_c, 0, 71, 96
2, 43500, Note_on_c, 0, 86, 96
2, 43560, Note_on_c, 0, 86, 0
2, 43560, Note_on_c, 0, 83, 96
2, 43620, Note_on_c, 0, 83, 0
2, 43620, Note_on_c, 0, 79, 96
2, 43680, Note_on_c, 0, 79, 0
2, 43680, Note_on_c, 0, 71, 0
2, 43680, Note_on_c, 0, 76, 96
2, 43740, Note_on_c, 0, 60, 96
2, 43800, Note_on_c, 0, 60, 0
2, 43800, Note_on_c, 0, 64, 96
2, 43860, Note_on_c, 0, 64, 0
2, 43860, Note_on_c, 0, 67, 96
2, 43920, Note_on_c, 0, 67, 0
2, 43920, Note_on_c, 0, 76, 0
2, 43920, Note_on_c, 0, 72, 96
2, 43980, Note_on_c, 0, 76, 96
2, 44040, Note_on_c, 0, 76, 0
2, 44040, Note_on_c, 0, 79, 96
2, 44100, Note_on_c, 0, 79, 0
2, 44100, Note_on_c, 0, 76, 96
2, 44160, Note_on_c, 0, 76, 0
2, 44160, Note_on_c, 0, 72, 0
2, 44160, Note_on_c, 0, 84, 96
2, 44220, Note_on_c, 0, 57, 96
2, 44280, Note_on_c, 0, 57, 0
2, 44280, Note_on_c, 0, 60, 96
2, 44340, Note_on_c, 0, 60, 0
2, 44340, Note_on_c, 0, 66, 96
2, 44400, Note_on_c, 0, 66, 0
2, 44400, Note_on_c, 0, 84, 0
2, 44400, Note_on_c, 0, 69, 96
2, 44460, Note_on_c, 0, 84, 96
2, 44520, Note_on_c, 0, 84, 0
2, 44520, Note_on_c, 0, 81, 96
2, 44580, Note_on_c, 0, 81, 0
2, 44580, Note_on_c, 0, 78, 96
2, 44640, Note_on_c, 0, 78, 0
2, 44640, Note_on_c, 0, 69, 0
2, 44640, Note_on_c, 0, 74, 96
2, 44700, Note_on_c, 0, 59, 96
2, 44760, Note_on_c, 0, 59, 0
2, 44760, Note_on_c, 0, 62, 96
2, 44820, Note_on_c, 0, 62, 0
2, 44820, Note_on_c, 0, 66, 96
2, 44880, Note_on_c, 0, 66, 0
2, 44880, Note_on_c, 0, 74, 0
2, 44880, Note_on_c, 0, 71, 96
2, 44940, Note_on_c, 0, 74, 96
2, 45000, Note_on_c, 0, 74, 0
2, 45000, Note_on_c, 0, 78, 96
2, 45060, Note_on_c, 0, 78, 0
2, 45060, Note_on_c, 0, 74, 96
2, 45120, Note_on_c, 0, 74, 0
2, 45120, Note_on_c, 0, 71, 0
2, 45120, Note_on_c, 0, 83, 96
2, 45180, Note_on_c, 0, 55, 96
2, 45240, Note_on_c, 0, 55, 0
2, 45240, Note_on_c, 0, 59, 96
2, 45300, Note_on_c, 0, 59, 0
2, 45300, Note_on_c, 0, 64, 96
2, 45360, Note_on_c, 0, 64, 0
2, 45360, Note_on_c, 0, 83, 0
2, 45360, Note_on_c, 0, 67, 96
2, 45420, Note_on_c, 0, 83, 96
2, 45480, Note_on_c, 0, 83, 0
2, 45480, Note_on_c, 0, 79, 96
2, 45540, Note_on_c, 0, 79, 0
2, 45540, Note_on_c, 0, 76, 96
2, 45600, Note_on_c, 0, 76, 0
2, 45600, Note_on_c, 0, 67, 0
2, 45600, Note_on_c, 0, 72, 96
2, 45660, Note_on_c, 0, 57, 96
2, 45720, Note_on_c, 0, 57, 0
2, 45720, Note_on_c, 0, 60, 96
2, 45780, Note_on_c, 0, 60, 0
2, 45780, Note_on_c, 0, 64, 96
2, 45840, Note_on_c, 0, 64, 0
2, 45840, Note_on_c, 0, 72, 0
2, 45840, Note_on_c, 0, 69, 96
2, 45900, Note_on_c, 0, 72, 96
2, 45960, Note_on_c, 0, 72, 0
2, 45960, Note_on_c, 0, 76, 96
2, 46020, Note_on_c, 0, 76, 0
2, 46020, Note_on_c, 0, 72, 96
2, 46080, Note_on_c, 0, 72, 0
2, 46080, Note_on_c, 0, 69, 0
2, 46080, Note_on_c, 0, 81, 96
2, 46140, Note_on_c, 0, 54, 96
2, 46200, Note_on_c, 0, 54, 0
2, 46200, Note_on_c, 0, 57, 96
2, 46260, Note_on_c, 0, 57, 0
2, 46260, Note_on_c, 0, 62, 96
2, 46320, Note_on_c, 0, 62, 0
2, 46320, Note_on_c, 0, 81, 0
2, 46320, Note_on_c, 0, 66, 96
2, 46380, Note_on_c, 0, 81, 96
2, 46440, Note_on_c, 0, 81, 0
2, 46440, Note_on_c, 0, 78, 96
2, 46500, Note_on_c, 0, 78, 0
2, 46500, Note_on_c, 0, 74, 96
2, 46560, Note_on_c, 0, 74, 0
2, 46560, Note_on_c, 0, 66, 0
2, 46560, Note_on_c, 0, 71, 96
2, 46620, Note_on_c, 0, 55, 96
2, 46680, Note_on_c, 0, 55, 0
2, 46680, Note_on_c, 0, 59, 96
2, 46740, Note_on_c, 0, 59, 0
2, 46740, Note_on_c, 0, 62, 96
2, 46800, Note_on_c, 0, 62, 0
2, 46800, Note_on_c, 0, 71, 0
2, 46800, Note_on_c, 0, 67, 96
2, 46860, Note_on_c, 0, 79, 96
2, 46920, Note_on_c, 0, 79, 0
2, 46920, Note_on_c, 0, 74, 96
2, 46980, Note_on_c, 0, 74, 0
2, 46980, Note_on_c, 0, 71, 96
2, 47040, Note_on_c, 0, 71, 0
2, 47040, Note_on_c, 0, 67, 0
2, 47040, Note_on_c, 0, 64, 96
2, 47040, Note_on_c, 0, 60, 96
2, 47040, Note_on_c, 0, 69, 96
2, 47136, Note_on_c, 0, 60, 0
2, 47136, Note_on_c, 0, 64, 0
2, 47160, Note_on_c, 0, 64, 96
2, 47160, Note_on_c, 0, 60, 96
2, 47256, Note_on_c, 0, 60, 0
2, 47256, Note_on_c, 0, 64, 0
2, 47280, Note_on_c, 0, 64, 96
2, 47280, Note_on_c, 0, 60, 96
2, 47376, Note_on_c, 0, 60, 0
2, 47376, Note_on_c, 0, 64, 0
2, 47400, Note_on_c, 0, 64, 96
2, 47400, Note_on_c, 0, 60, 96
2, 47496, Note_on_c, 0, 60, 0
2, 47496, Note_on_c, 0, 64, 0
2, 47520, Note_on_c, 0, 69, 0
2, 47520, Note_on_c, 0, 64, 96
2, 47520, Note_on_c, 0, 60, 96
2, 47520, Note_on_c, 0, 71, 108
2, 47550, Note_on_c, 0, 71, 0
2, 47550, Note_on_c, 0, 72, 96
2, 47616, Note_on_c, 0, 60, 0
2, 47616, Note_on_c, 0, 64, 0
2, 47640, Note_on_c, 0, 64, 96
2, 47640, Note_on_c, 0, 60, 96
2, 47736, Note_on_c, 0, 60, 0
2, 47736, Note_on_c, 0, 64, 0
2, 47760, Note_on_c, 0, 72, 0
2, 47760, Note_on_c, 0, 64, 96
2, 47760, Note_on_c, 0, 60, 96
2, 47760, Note_on_c, 0, 75, 108
2, 47790, Note_on_c, 0, 75, 0
2, 47790, Note_on_c, 0, 76, 96
2, 47856, Note_on_c, 0, 60, 0
2, 47856, Note_on_c, 0, 64, 0
2, 47880, Note_on_c, 0, 60, 96
2, 47880, Note_on_c, 0, 64, 96
2, 47976, Note_on_c, 0, 64, 0
2, 47976, Note_on_c, 0, 60, 0
2, 48000, Note_on_c, 0, 76, 0
2, 48000, Note_on_c, 0, 64, 96
2, 48000, Note_on_c, 0, 60, 96
2, 48000, Note_on_c, 0, 80, 108
2, 48030, Note_on_c, 0, 80, 0
2, 48030, Note_on_c, 0, 81, 96
2, 48096, Note_on_c, 0, 60, 0
2, 48096, Note_on_c, 0, 64, 0
2, 48120, Note_on_c, 0, 64, 96
2, 48120, Note_on_c, 0, 60, 96
2, 48216, Note_on_c, 0, 60, 0
2, 48216, Note_on_c, 0, 64, 0
2, 48240, Note_on_c, 0, 64, 96
2, 48240, Note_on_c, 0, 60, 96
2, 48336, Note_on_c, 0, 60, 0
2, 48336, Note_on_c, 0, 64, 0
2, 48360, Note_on_c, 0, 81, 0
2, 48360, Note_on_c, 0, 64, 96
2, 48360, Note_on_c, 0, 60, 96
2, 48360, Note_on_c, 0, 83, 96
2, 48390, Note_on_c, 0, 83, 0
2, 48390, Note_on_c, 0, 81, 96
2, 48420, Note_on_c, 0, 81, 0
2, 48420, Note_on_c, 0, 80, 96
2, 48450, Note_on_c, 0, 80, 0
2, 48450, Note_on_c, 0, 81, 96
2, 48456, Note_on_c, 0, 60, 0
2, 48456, Note_on_c, 0, 64, 0
2, 48480, Note_on_c, 0, 81, 0
2, 48480, Note_on_c, 0, 64, 96
2, 48480, Note_on_c, 0, 60, 96
2, 48480, Note_on_c, 0, 84, 96
2, 48576, Note_on_c, 0, 60, 0
2, 48576, Note_on_c, 0, 64, 0
2, 48600, Note_on_c, 0, 84, 0
2, 48600, Note_on_c, 0, 64, 96
2, 48600, Note_on_c, 0, 60, 96
2, 48600, Note_on_c, 0, 81, 96
2, 48696, Note_on_c, 0, 60, 0
2, 48696, Note_on_c, 0, 64, 0
2, 48720, Note_on_c, 0, 81, 0
2, 48720, Note_on_c, 0, 64, 96
2, 48720, Note_on_c, 0, 60, 96
2, 48720, Note_on_c, 0, 84, 96
2, 48816, Note_on_c, 0, 60, 0
2, 48816, Note_on_c, 0, 64, 0
2, 48840, Note_on_c, 0, 84, 0
2, 48840, Note_on_c, 0, 81, 96
2, 48840, Note_on_c, 0, 60, 96
2, 48840, Note_on_c, 0, 64, 96
2, 48936, Note_on_c, 0, 64, 0
2, 48936, Note_on_c, 0, 60, 0
2, 48960, Note_on_c, 0, 81, 0
2, 48960, Note_on_c, 0, 83, 96
2, 48960, Note_on_c, 0, 62, 96
2, 49020, Note_on_c, 0, 62, 0
2, 49020, Note_on_c, 0, 71, 96
2, 49080, Note_on_c, 0, 71, 0
2, 49080, Note_on_c, 0, 83, 0
2, 49080, Note_on_c, 0, 79, 96
2, 49080, Note_on_c, 0, 67, 96
2, 49140, Note_on_c, 0, 67, 0
2, 49140, Note_on_c, 0, 71, 96
2, 49200, Note_on_c, 0, 71, 0
2, 49200, Note_on_c, 0, 79, 0
2, 49200, Note_on_c, 0, 86, 96
2, 49200, Note_on_c, 0, 62, 96
2, 49260, Note_on_c, 0, 62, 0
2, 49260, Note_on_c, 0, 71, 96
2, 49320, Note_on_c, 0, 71, 0
2, 49320, Note_on_c, 0, 67, 96
2, 49380, Note_on_c, 0, 67, 0
2, 49380, Note_on_c, 0, 71, 96
2, 49440, Note_on_c, 0, 71, 0
2, 49440, Note_on_c, 0, 62, 96
2, 49500, Note_on_c, 0, 62, 0
2, 49500, Note_on_c, 0, 71, 96
2, 49560, Note_on_c, 0, 71, 0
2, 49560, Note_on_c, 0, 67, 96
2, 49620, Note_on_c, 0, 67, 0
2, 49620, Note_on_c, 0, 71, 96
2, 49680, Note_on_c, 0, 71, 0
2, 49680, Note_on_c, 0, 86, 0
2, 49680, Note_on_c, 0, 84, 96
2, 49680, Note_on_c, 0, 62, 96
2, 49740, Note_on_c, 0, 62, 0
2, 49740, Note_on_c, 0, 84, 0
2, 49740, Note_on_c, 0, 83, 96
2, 49740, Note_on_c, 0, 71, 96
2, 49800, Note_on_c, 0, 71, 0
2, 49800, Note_on_c, 0, 83, 0
2, 49800, Note_on_c, 0, 81, 96
2, 49800, Note_on_c, 0, 67, 96
2, 49860, Note_on_c, 0, 67, 0
2, 49860, Note_on_c, 0, 81, 0
2, 49860, Note_on_c, 0, 79, 96
2, 49860, Note_on_c, 0, 71, 96
2, 49920, Note_on_c, 0, 71, 0
2, 49920, Note_on_c, 0, 79, 0
2, 49920, Note_on_c, 0, 83, 96
2, 49920, Note_on_c, 0, 62, 96
2, 49950, Note_on_c, 0, 83, 0
2, 49950, Note_on_c, 0, 81, 72
2, 49980, Note_on_c, 0, 62, 0
2, 49980, Note_on_c, 0, 72, 72
2, 49980, Note_on_c, 0, 83, 72
2, 49983, Note_on_c, 0, 81, 0
2, 50010, Note_on_c, 0, 81, 73
2, 50013, Note_on_c, 0, 83, 0
2, 50040, Note_on_c, 0, 66, 73
2, 50040, Note_on_c, 0, 83, 73
2, 50043, Note_on_c, 0, 81, 0
2, 50046, Note_on_c, 0, 72, 0
2, 50070, Note_on_c, 0, 81, 75
2, 50073, Note_on_c, 0, 83, 0
2, 50100, Note_on_c, 0, 72, 75
2, 50100, Note_on_c, 0, 83, 75
2, 50103, Note_on_c, 0, 81, 0
2, 50106, Note_on_c, 0, 66, 0
2, 50130, Note_on_c, 0, 81, 76
2, 50133, Note_on_c, 0, 83, 0
2, 50160, Note_on_c, 0, 62, 78
2, 50160, Note_on_c, 0, 83, 78
2, 50163, Note_on_c, 0, 81, 0
2, 50166, Note_on_c, 0, 72, 0
2, 50190, Note_on_c, 0, 81, 78
2, 50193, Note_on_c, 0, 83, 0
2, 50220, Note_on_c, 0, 72, 79
2, 50220, Note_on_c, 0, 83, 79
2, 50223, Note_on_c, 0, 81, 0
2, 50226, Note_on_c, 0, 62, 0
2, 50250, Note_on_c, 0, 81, 79
2, 50253, Note_on_c, 0, 83, 0
2, 50280, Note_on_c, 0, 66, 81
2, 50280, Note_on_c, 0, 83, 81
2, 50283, Note_on_c, 0, 81, 0
2, 50286, Note_on_c, 0, 72, 0
2, 50310, Note_on_c, 0, 81, 81
2, 50313, Note_on_c, 0, 83, 0
2, 50340, Note_on_c, 0, 72, 82
2, 50340, Note_on_c, 0, 83, 82
2, 50343, Note_on_c, 0, 81, 0
2, 50346, Note_on_c, 0, 66, 0
2, 50370, Note_on_c, 0, 81, 84
2, 50373, Note_on_c, 0, 83, 0
2, 50400, Note_on_c, 0, 62, 84
2, 50400, Note_on_c, 0, 83, 84
2, 50403, Note_on_c, 0, 81, 0
2, 50406, Note_on_c, 0, 72, 0
2, 50430, Note_on_c, 0, 81, 85
2, 50433, Note_on_c, 0, 83, 0
2, 50460, Note_on_c, 0, 72, 85
2, 50460, Note_on_c, 0, 83, 85
2, 50463, Note_on_c, 0, 81, 0
2, 50466, Note_on_c, 0, 62, 0
2, 50490, Note_on_c, 0, 81, 87
2, 50493, Note_on_c, 0, 83, 0
2, 50520, Note_on_c, 0, 66, 87
2, 50520, Note_on_c, 0, 83, 87
2, 50523, Note_on_c, 0, 81, 0
2, 50526, Note_on_c, 0, 72, 0
2, 50550, Note_on_c, 0, 81, 88
2, 50553, Note_on_c, 0, 83, 0
2, 50580, Note_on_c, 0, 72, 88
2, 50580, Note_on_c, 0, 83, 88
2, 50583, Note_on_c, 0, 81, 0
2, 50586, Note_on_c, 0, 66, 0
2, 50610, Note_on_c, 0, 81, 90
2, 50613, Note_on_c, 0, 83, 0
2, 50640, Note_on_c, 0, 62, 91
2, 50640, Note_on_c, 0, 83, 91
2, 50643, Note_on_c, 0, 81, 0
2, 50646, Note_on_c, 0, 72, 0
2, 50670, Note_on_c, 0, 81, 91
2, 50673, Note_on_c, 0, 83, 0
2, 50700, Note_on_c, 0, 72, 93
2, 50700, Note_on_c, 0, 83, 93
2, 50703, Note_on_c, 0, 81, 0
2, 50706, Note_on_c, 0, 62, 0
2, 50730, Note_on_c, 0, 81, 93
2, 50733, Note_on_c, 0, 83, 0
2, 50760, Note_on_c, 0, 66, 94
2, 50760, Note_on_c, 0, 83, 94
2, 50763, Note_on_c, 0, 81, 0
2, 50766, Note_on_c, 0, 72, 0
2, 50790, Note_on_c, 0, 81, 94
2, 50793, Note_on_c, 0, 83, 0
2, 50820, Note_on_c, 0, 72, 96
2, 50820, Note_on_c, 0, 79, 96
2, 50823, Note_on_c, 0, 81, 0
2, 50826, Note_on_c, 0, 66, 0
2, 50850, Note_on_c, 0, 79, 0
2, 50850, Note_on_c, 0, 81, 96
2, 50880, Note_on_c, 0, 81, 0
2, 50880, Note_on_c, 0, 72, 0
2, 50880, Note_on_c, 0, 79, 96
2, 50880, Note_on_c, 0, 67, 96
2, 50880, Note_on_c, 0, 71, 96
2, 51120, Note_on_c, 0, 71, 0
2, 51120, Note_on_c, 0, 67, 0
2, 51120, Note_on_c, 0, 79, 0
2, 51120, Note_on_c, 0, 79, 96
2, 51180, Note_on_c, 0, 79, 0
2, 51180, Note_on_c, 0, 74, 96
2, 51240, Note_on_c, 0, 74, 0
2, 51240, Note_on_c, 0, 79, 96
2, 51300, Note_on_c, 0, 79, 0
2, 51300, Note_on_c, 0, 83, 96
2, 51360, Note_on_c, 0, 83, 0
2, 51360, Note_on_c, 0, 86, 96
2, 51420, Note_on_c, 0, 86, 0
2, 51420, Note_on_c, 0, 83, 96
2, 51480, Note_on_c, 0, 83, 0
2, 51480, Note_on_c, 0, 79, 96
2, 51540, Note_on_c, 0, 79, 0
2, 51540, Note_on_c, 0, 83, 96
2, 51600, Note_on_c, 0, 83, 0
2, 51600, Note_on_c, 0, 62, 96
2, 51600, Note_on_c, 0, 69, 96
2, 51600, Note_on_c, 0, 72, 96
2, 51600, Note_on_c, 0, 84, 96
2, 51660, Note_on_c, 0, 84, 0
2, 51660, Note_on_c, 0, 81, 96
2, 51720, Note_on_c, 0, 81, 0
2, 51720, Note_on_c, 0, 78, 96
2, 51780, Note_on_c, 0, 78, 0
2, 51780, Note_on_c, 0, 81, 96
2, 51840, Note_on_c, 0, 81, 0
2, 51840, Note_on_c, 0, 72, 0
2, 51840, Note_on_c, 0, 69, 0
2, 51840, Note_on_c, 0, 62, 0
2, 51840, Note_on_c, 0, 67, 96
2, 51840, Note_on_c, 0, 79, 96
2, 51840, Note_on_c, 0, 71, 96
2, 52080, Note_on_c, 0, 71, 0
2, 52080, Note_on_c, 0, 79, 0
2, 52080, Note_on_c, 0, 67, 0
2, 52080, Note_on_c, 0, 67, 96
2, 52140, Note_on_c, 0, 67, 0
2, 52140, Note_on_c, 0, 62, 96
2, 52200, Note_on_c, 0, 62, 0
2, 52200, Note_on_c, 0, 67, 96
2, 52260, Note_on_c, 0, 67, 0
2, 52260, Note_on_c, 0, 71, 96
2, 52320, Note_on_c, 0, 71, 0
2, 52320, Note_on_c, 0, 74, 96
2, 52380, Note_on_c, 0, 74, 0
2, 52380, Note_on_c, 0, 71, 96
2, 52440, Note_on_c, 0, 71, 0
2, 52440, Note_on_c, 0, 67, 96
2, 52500, Note_on_c, 0, 67, 0
2, 52500, Note_on_c, 0, 71, 96
2, 52560, Note_on_c, 0, 71, 0
2, 52560, Note_on_c, 0, 50, 96
2, 52560, Note_on_c, 0, 57, 96
2, 52560, Note_on_c, 0, 60, 96
2, 52560, Note_on_c, 0, 72, 96
2, 52620, Note_on_c, 0, 72, 0
2, 52620, Note_on_c, 0, 69, 96
2, 52680, Note_on_c, 0, 69, 0
2, 52680, Note_on_c, 0, 66, 96
2, 52740, Note_on_c, 0, 66, 0
2, 52740, Note_on_c, 0, 69, 96
2, 52800, Note_on_c, 0, 69, 0
2, 52800, Note_on_c, 0, 60, 0
2, 52800, Note_on_c, 0, 57, 0
2, 52800, Note_on_c, 0, 50, 0
2, 52800, Note_on_c, 0, 59, 96
2, 52800, Note_on_c, 0, 55, 96
2, 52800, Note_on_c, 0, 67, 96
2, 52992, Note_on_c, 0, 67, 0
2, 52992, Note_on_c, 0, 55, 0
2, 52992, Note_on_c, 0, 59, 0
2, 53040, Note_on_c, 0, 55, 96
2, 53040, Note_on_c, 0, 43, 96
2, 53040, Note_on_c, 0, 83, 96
2, 53040, Note_on_c, 0, 74, 96
2, 53232, Note_on_c, 0, 74, 0
2, 53232, Note_on_c, 0, 55, 0
2, 53232, Note_on_c, 0, 43, 0
2, 53232, Note_on_c, 0, 83, 0
2, 53280, Note_on_c, 0, 55, 96
2, 53280, Note_on_c, 0, 43, 96
2, 53280, Note_on_c, 0, 79, 96
2, 53280, Note_on_c, 0, 71, 96
2, 53472, Note_on_c, 0, 71, 0
2, 53472, Note_on_c, 0, 55, 0
2, 53472, Note_on_c, 0, 43, 0
2, 53472, Note_on_c, 0, 79, 0
2, 53760, Note_on_c, 0, 67, 96
2, 53760, Note_on_c, 0, 43, 96
2, 53760, Note_on_c, 0, 55, 96
2, 54000, Note_on_c, 0, 55, 0
2, 54000, Note_on_c, 0, 43, 0
2, 54000, Note_on_c, 0, 67, 0
2, 54000, Note_on_c, 0, 79, 96
2, 54060, Note_on_c, 0, 79, 0
2, 54060, Note_on_c, 0, 74, 96
2, 54120, Note_on_c, 0, 74, 0
2, 54120, Note_on_c, 0, 79, 96
2, 54180, Note_on_c, 0, 79, 0
2, 54180, Note_on_c, 0, 82, 96
2, 54240, Note_on_c, 0, 82, 0
2, 54240, Note_on_c, 0, 86, 96
2, 54300, Note_on_c, 0, 86, 0
2, 54300, Note_on_c, 0, 82, 96
2, 54360, Note_on_c, 0, 82, 0
2, 54360, Note_on_c, 0, 79, 96
2, 54420, Note_on_c, 0, 79, 0
2, 54420, Note_on_c, 0, 82, 96
2, 54480, Note_on_c, 0, 82, 0
2, 54480, Note_on_c, 0, 62, 96
2, 54480, Note_on_c, 0, 69, 96
2, 54480, Note_on_c, 0, 72, 96
2, 54480, Note_on_c, 0, 84, 96
2, 54540, Note_on_c, 0, 84, 0
2, 54540, Note_on_c, 0, 81, 96
2, 54600, Note_on_c, 0, 81, 0
2, 54600, Note_on_c, 0, 78, 96
2, 54660, Note_on_c, 0, 78, 0
2, 54660, Note_on_c, 0, 81, 96
2, 54720, Note_on_c, 0, 81, 0
2, 54720, Note_on_c, 0, 72, 0
2, 54720, Note_on_c, 0, 69, 0
2, 54720, Note_on_c, 0, 62, 0
2, 54720, Note_on_c, 0, 67, 96
2, 54720, Note_on_c, 0, 79, 96
2, 54720, Note_on_c, 0, 70, 96
2, 54960, Note_on_c, 0, 70, 0
2, 54960, Note_on_c, 0, 79, 0
2, 54960, Note_on_c, 0, 67, 0
2, 54960, Note_on_c, 0, 67, 96
2, 55020, Note_on_c, 0, 67, 0
2, 55020, Note_on_c, 0, 62, 96
2, 55080, Note_on_c, 0, 62, 0
2, 55080, Note_on_c, 0, 67, 96
2, 55140, Note_on_c, 0, 67, 0
2, 55140, Note_on_c, 0, 70, 96
2, 55200, Note_on_c, 0, 70, 0
2, 55200, Note_on_c, 0, 74, 96
2, 55260, Note_on_c, 0, 74, 0
2, 55260, Note_on_c, 0, 70, 96
2, 55320, Note_on_c, 0, 70, 0
2, 55320, Note_on_c, 0, 67, 96
2, 55380, Note_on_c, 0, 67, 0
2, 55380, Note_on_c, 0, 70, 96
2, 55440, Note_on_c, 0, 70, 0
2, 55440, Note_on_c, 0, 50, 96
2, 55440, Note_on_c, 0, 57, 96
2, 55440, Note_on_c, 0, 60, 96
2, 55440, Note_on_c, 0, 72, 96
2, 55500, Note_on_c, 0, 72, 0
2, 55500, Note_on_c, 0, 69, 96
2, 55560, Note_on_c, 0, 69, 0
2, 55560, Note_on_c, 0, 66, 96
2, 55620, Note_on_c, 0, 66, 0
2, 55620, Note_on_c, 0, 69, 96
2, 55680, Note_on_c, 0, 69, 0
2, 55680, Note_on_c, 0, 60, 0
2, 55680, Note_on_c, 0, 57, 0
2, 55680, Note_on_c, 0, 50, 0
2, 55680, Note_on_c, 0, 67, 96
2, 55740, Note_on_c, 0, 43, 96
2, 55800, Note_on_c, 0, 43, 0
2, 55800, Note_on_c, 0, 45, 96
2, 55860, Note_on_c, 0, 45, 0
2, 55860, Note_on_c, 0, 46, 96
2, 55920, Note_on_c, 0, 46, 0
2, 55920, Note_on_c, 0, 67, 0
2, 55920, Note_on_c, 0, 48, 96
2, 55980, Note_on_c, 0, 48, 0
2, 55980, Note_on_c, 0, 50, 96
2, 56040, Note_on_c, 0, 50, 0
2, 56040, Note_on_c, 0, 52, 96
2, 56100, Note_on_c, 0, 52, 0
2, 56100, Note_on_c, 0, 54, 96
2, 56160, Note_on_c, 0, 54, 0
2, 56160, Note_on_c, 0, 55, 96
2, 56220, Note_on_c, 0, 79, 96
2, 56280, Note_on_c, 0, 79, 0
2, 56280, Note_on_c, 0, 82, 96
2, 56340, Note_on_c, 0, 82, 0
2, 56340, Note_on_c, 0, 81, 96
2, 56400, Note_on_c, 0, 81, 0
2, 56400, Note_on_c, 0, 55, 0
2, 56400, Note_on_c, 0, 79, 96
2, 56460, Note_on_c, 0, 79, 0
2, 56460, Note_on_c, 0, 77, 96
2, 56520, Note_on_c, 0, 77, 0
2, 56520, Note_on_c, 0, 76, 96
2, 56580, Note_on_c, 0, 76, 0
2, 56580, Note_on_c, 0, 74, 96
2, 56640, Note_on_c, 0, 74, 0
2, 56640, Note_on_c, 0, 73, 96
2, 56700, Note_on_c, 0, 45, 96
2, 56760, Note_on_c, 0, 45, 0
2, 56760, Note_on_c, 0, 47, 96
2, 56820, Note_on_c, 0, 47, 0
2, 56820, Note_on_c, 0, 49, 96
2, 56880, Note_on_c, 0, 49, 0
2, 56880, Note_on_c, 0, 73, 0
2, 56880, Note_on_c, 0, 50, 96
2, 56940, Note_on_c, 0, 50, 0
2, 56940, Note_on_c, 0, 52, 96
2, 57000, Note_on_c, 0, 52, 0
2, 57000, Note_on_c, 0, 54, 96
2, 57060, Note_on_c, 0, 54, 0
2, 57060, Note_on_c, 0, 56, 96
2, 57120, Note_on_c, 0, 56, 0
2, 57120, Note_on_c, 0, 57, 96
2, 57180, Note_on_c, 0, 85, 96
2, 57240, Note_on_c, 0, 85, 0
2, 57240, Note_on_c, 0, 88, 96
2, 57300, Note_on_c, 0, 88, 0
2, 57300, Note_on_c, 0, 86, 96
2, 57360, Note_on_c, 0, 86, 0
2, 57360, Note_on_c, 0, 57, 0
2, 57360, Note_on_c, 0, 85, 96
2, 57420, Note_on_c, 0, 85, 0
2, 57420, Note_on_c, 0, 82, 96
2, 57480, Note_on_c, 0, 82, 0
2, 57480, Note_on_c, 0, 81, 96
2, 57540, Note_on_c, 0, 81, 0
2, 57540, Note_on_c, 0, 79, 96
2, 57600, Note_on_c, 0, 79, 0
2, 57600, Note_on_c, 0, 77, 96
2, 57600, Note_on_c, 0, 38, 96
2, 57600, Note_on_c, 0, 50, 96
2, 57840, Note_on_c, 0, 50, 0
2, 57840, Note_on_c, 0, 38, 0
2, 57840, Note_on_c, 0, 77, 0
2, 57840, Note_on_c, 0, 74, 96
2, 57900, Note_on_c, 0, 74, 0
2, 57900, Note_on_c, 0, 69, 96
2, 57960, Note_on_c, 0, 69, 0
2, 57960, Note_on_c, 0, 74, 96
2, 58020, Note_on_c, 0, 74, 0
2, 58020, Note_on_c, 0, 77, 96
2, 58080, Note_on_c, 0, 77, 0
2, 58080, Note_on_c, 0, 81, 96
2, 58140, Note_on_c, 0, 81, 0
2, 58140, Note_on_c, 0, 77, 96
2, 58200, Note_on_c, 0, 77, 0
2, 58200, Note_on_c, 0, 74, 96
2, 58260, Note_on_c, 0, 74, 0
2, 58260, Note_on_c, 0, 77, 96
2, 58320, Note_on_c, 0, 77, 0
2, 58320, Note_on_c, 0, 57, 96
2, 58320, Note_on_c, 0, 64, 96
2, 58320, Note_on_c, 0, 67, 96
2, 58320, Note_on_c, 0, 79, 96
2, 58380, Note_on_c, 0, 79, 0
2, 58380, Note_on_c, 0, 76, 96
2, 58440, Note_on_c, 0, 76, 0
2, 58440, Note_on_c, 0, 73, 96
2, 58500, Note_on_c, 0, 73, 0
2, 58500, Note_on_c, 0, 76, 96
2, 58560, Note_on_c, 0, 76, 0
2, 58560, Note_on_c, 0, 67, 0
2, 58560, Note_on_c, 0, 64, 0
2, 58560, Note_on_c, 0, 57, 0
2, 58560, Note_on_c, 0, 62, 96
2, 58560, Note_on_c, 0, 74, 96
2, 58560, Note_on_c, 0, 65, 96
2, 58800, Note_on_c, 0, 65, 0
2, 58800, Note_on_c, 0, 74, 0
2, 58800, Note_on_c, 0, 62, 0
2, 58800, Note_on_c, 0, 62, 96
2, 58860, Note_on_c, 0, 62, 0
2, 58860, Note_on_c, 0, 57, 96
2, 58920, Note_on_c, 0, 57, 0
2, 58920, Note_on_c, 0, 62, 96
2, 58980, Note_on_c, 0, 62, 0
2, 58980, Note_on_c, 0, 65, 96
2, 59040, Note_on_c, 0, 65, 0
2, 59040, Note_on_c, 0, 69, 96
2, 59100, Note_on_c, 0, 69, 0
2, 59100, Note_on_c, 0, 65, 96
2, 59160, Note_on_c, 0, 65, 0
2, 59160, Note_on_c, 0, 62, 96
2, 59220, Note_on_c, 0, 62, 0
2, 59220, Note_on_c, 0, 65, 96
2, 59280, Note_on_c, 0, 65, 0
2, 59280, Note_on_c, 0, 45, 96
2, 59280, Note_on_c, 0, 52, 96
2, 59280, Note_on_c, 0, 55, 96
2, 59280, Note_on_c, 0, 67, 96
2, 59340, Note_on_c, 0, 67, 0
2, 59340, Note_on_c, 0, 64, 96
2, 59400, Note_on_c, 0, 64, 0
2, 59400, Note_on_c, 0, 61, 96
2, 59460, Note_on_c, 0, 61, 0
2, 59460, Note_on_c, 0, 64, 96
2, 59520, Note_on_c, 0, 64, 0
2, 59520, Note_on_c, 0, 55, 0
2, 59520, Note_on_c, 0, 52, 0
2, 59520, Note_on_c, 0, 45, 0
2, 59520, Note_on_c, 0, 50, 96
2, 59520, Note_on_c, 0, 53, 96
2, 59580, Note_on_c, 0, 62, 96
2, 59640, Note_on_c, 0, 62, 0
2, 59640, Note_on_c, 0, 64, 96
2, 59700, Note_on_c, 0, 64, 0
2, 59700, Note_on_c, 0, 65, 96
2, 59760, Note_on_c, 0, 65, 0
2, 59760, Note_on_c, 0, 53, 0
2, 59760, Note_on_c, 0, 50, 0
2, 59760, Note_on_c, 0, 67, 96
2, 59820, Note_on_c, 0, 67, 0
2, 59820, Note_on_c, 0, 69, 96
2, 59880, Note_on_c, 0, 69, 0
2, 59880, Note_on_c, 0, 71, 96
2, 59940, Note_on_c, 0, 71, 0
2, 59940, Note_on_c, 0, 73, 96
2, 60000, Note_on_c, 0, 73, 0
2, 60000, Note_on_c, 0, 74, 96
2, 60060, Note_on_c, 0, 62, 96
2, 60120, Note_on_c, 0, 62, 0
2, 60120, Note_on_c, 0, 65, 96
2, 60180, Note_on_c, 0, 65, 0
2, 60180, Note_on_c, 0, 64, 96
2, 60240, Note_on_c, 0, 64, 0
2, 60240, Note_on_c, 0, 74, 0
2, 60240, Note_on_c, 0, 62, 96
2, 60300, Note_on_c, 0, 62, 0
2, 60300, Note_on_c, 0, 60, 96
2, 60360, Note_on_c, 0, 60, 0
2, 60360, Note_on_c, 0, 59, 96
2, 60420, Note_on_c, 0, 59, 0
2, 60420, Note_on_c, 0, 57, 96
2, 60480, Note_on_c, 0, 57, 0
2, 60480, Note_on_c, 0, 56, 96
2, 60540, Note_on_c, 0, 71, 96
2, 60600, Note_on_c, 0, 71, 0
2, 60600, Note_on_c, 0, 72, 96
2, 60660, Note_on_c, 0, 72, 0
2, 60660, Note_on_c, 0, 74, 96
2, 60720, Note_on_c, 0, 74, 0
2, 60720, Note_on_c, 0, 56, 0
2, 60720, Note_on_c, 0, 76, 96
2, 60780, Note_on_c, 0, 76, 0
2, 60780, Note_on_c, 0, 78, 96
2, 60840, Note_on_c, 0, 78, 0
2, 60840, Note_on_c, 0, 80, 96
2, 60900, Note_on_c, 0, 80, 0
2, 60900, Note_on_c, 0, 81, 96
2, 60960, Note_on_c, 0, 81, 0
2, 60960, Note_on_c, 0, 83, 96
2, 61020, Note_on_c, 0, 56, 96
2, 61080, Note_on_c, 0, 56, 0
2, 61080, Note_on_c, 0, 59, 96
2, 61140, Note_on_c, 0, 59, 0
2, 61140, Note_on_c, 0, 57, 96
2, 61200, Note_on_c, 0, 57, 0
2, 61200, Note_on_c, 0, 83, 0
2, 61200, Note_on_c, 0, 56, 96
2, 61260, Note_on_c, 0, 56, 0
2, 61260, Note_on_c, 0, 53, 96
2, 61320, Note_on_c, 0, 53, 0
2, 61320, Note_on_c, 0, 52, 96
2, 61380, Note_on_c, 0, 52, 0
2, 61380, Note_on_c, 0, 50, 96
2, 61440, Note_on_c, 0, 50, 0
2, 61440, Note_on_c, 0, 48, 96
2, 61500, Note_on_c, 0, 81, 96
2, 61560, Note_on_c, 0, 81, 0
2, 61560, Note_on_c, 0, 88, 96
2, 61620, Note_on_c, 0, 88, 0
2, 61620, Note_on_c, 0, 86, 96
2, 61680, Note_on_c, 0, 86, 0
2, 61680, Note_on_c, 0, 48, 0
2, 61680, Note_on_c, 0, 84, 96
2, 61740, Note_on_c, 0, 84, 0
2, 61740, Note_on_c, 0, 83, 96
2, 61800, Note_on_c, 0, 83, 0
2, 61800, Note_on_c, 0, 81, 96
2, 61860, Note_on_c, 0, 81, 0
2, 61860, Note_on_c, 0, 79, 96
2, 61920, Note_on_c, 0, 79, 0
2, 61920, Note_on_c, 0, 77, 96
2, 61980, Note_on_c, 0, 62, 96
2, 62040, Note_on_c, 0, 62, 0
2, 62040, Note_on_c, 0, 69, 96
2, 62100, Note_on_c, 0, 69, 0
2, 62100, Note_on_c, 0, 67, 96
2, 62160, Note_on_c, 0, 67, 0
2, 62160, Note_on_c, 0, 77, 0
2, 62160, Note_on_c, 0, 65, 96
2, 62220, Note_on_c, 0, 65, 0
2, 62220, Note_on_c, 0, 64, 96
2, 62280, Note_on_c, 0, 64, 0
2, 62280, Note_on_c, 0, 62, 96
2, 62340, Note_on_c, 0, 62, 0
2, 62340, Note_on_c, 0, 60, 96
2, 62400, Note_on_c, 0, 60, 0
2, 62400, Note_on_c, 0, 59, 96
2, 62460, Note_on_c, 0, 79, 96
2, 62520, Note_on_c, 0, 79, 0
2, 62520, Note_on_c, 0, 86, 96
2, 62580, Note_on_c, 0, 86, 0
2, 62580, Note_on_c, 0, 84, 96
2, 62640, Note_on_c, 0, 84, 0
2, 62640, Note_on_c, 0, 59, 0
2, 62640, Note_on_c, 0, 83, 96
2, 62700, Note_on_c, 0, 83, 0
2, 62700, Note_on_c, 0, 81, 96
2, 62760, Note_on_c, 0, 81, 0
2, 62760, Note_on_c, 0, 79, 96
2, 62820, Note_on_c, 0, 79, 0
2, 62820, Note_on_c, 0, 77, 96
2, 62880, Note_on_c, 0, 77, 0
2, 62880, Note_on_c, 0, 76, 96
2, 62940, Note_on_c, 0, 60, 96
2, 63000, Note_on_c, 0, 60, 0
2, 63000, Note_on_c, 0, 67, 96
2, 63060, Note_on_c, 0, 67, 0
2, 63060, Note_on_c, 0, 65, 96
2, 63120, Note_on_c, 0, 65, 0
2, 63120, Note_on_c, 0, 76, 0
2, 63120, Note_on_c, 0, 64, 96
2, 63180, Note_on_c, 0, 64, 0
2, 63180, Note_on_c, 0, 62, 96
2, 63240, Note_on_c, 0, 62, 0
2, 63240, Note_on_c, 0, 60, 96
2, 63300, Note_on_c, 0, 60, 0
2, 63300, Note_on_c, 0, 59, 96
2, 63360, Note_on_c, 0, 59, 0
2, 63360, Note_on_c, 0, 57, 96
2, 63420, Note_on_c, 0, 77, 96
2, 63480, Note_on_c, 0, 77, 0
2, 63480, Note_on_c, 0, 84, 96
2, 63540, Note_on_c, 0, 84, 0
2, 63540, Note_on_c, 0, 83, 96
2, 63600, Note_on_c, 0, 83, 0
2, 63600, Note_on_c, 0, 57, 0
2, 63600, Note_on_c, 0, 81, 96
2, 63660, Note_on_c, 0, 81, 0
2, 63660, Note_on_c, 0, 79, 96
2, 63720, Note_on_c, 0, 79, 0
2, 63720, Note_on_c, 0, 77, 96
2, 63780, Note_on_c, 0, 77, 0
2, 63780, Note_on_c, 0, 76, 96
2, 63840, Note_on_c, 0, 76, 0
2, 63840, Note_on_c, 0, 74, 96
2, 63900, Note_on_c, 0, 59, 96
2, 63960, Note_on_c, 0, 59, 0
2, 63960, Note_on_c, 0, 65, 96
2, 64020, Note_on_c, 0, 65, 0
2, 64020, Note_on_c, 0, 64, 96
2, 64080, Note_on_c, 0, 64, 0
2, 64080, Note_on_c, 0, 74, 0
2, 64080, Note_on_c, 0, 62, 96
2, 64140, Note_on_c, 0, 62, 0
2, 64140, Note_on_c, 0, 60, 96
2, 64200, Note_on_c, 0, 60, 0
2, 64200, Note_on_c, 0, 59, 96
2, 64260, Note_on_c, 0, 59, 0
2, 64260, Note_on_c, 0, 57, 96
2, 64320, Note_on_c, 0, 57, 0
2, 64320, Note_on_c, 0, 56, 96
2, 64380, Note_on_c, 0, 76, 96
2, 64440, Note_on_c, 0, 76, 0
2, 64440, Note_on_c, 0, 83, 96
2, 64500, Note_on_c, 0, 83, 0
2, 64500, Note_on_c, 0, 81, 96
2, 64560, Note_on_c, 0, 81, 0
2, 64560, Note_on_c, 0, 56, 0
2, 64560, Note_on_c, 0, 80, 96
2, 64620, Note_on_c, 0, 80, 0
2, 64620, Note_on_c, 0, 77, 96
2, 64680, Note_on_c, 0, 77, 0
2, 64680, Note_on_c, 0, 76, 96
2, 64740, Note_on_c, 0, 76, 0
2, 64740, Note_on_c, 0, 74, 96
2, 64800, Note_on_c, 0, 74, 0
2, 64800, Note_on_c, 0, 72, 96
2, 64860, Note_on_c, 0, 57, 96
2, 64920, Note_on_c, 0, 57, 0
2, 64920, Note_on_c, 0, 60, 96
2, 64980, Note_on_c, 0, 60, 0
2, 64980, Note_on_c, 0, 59, 96
2, 65040, Note_on_c, 0, 59, 0
2, 65040, Note_on_c, 0, 72, 0
2, 65040, Note_on_c, 0, 57, 96
2, 65100, Note_on_c, 0, 57, 0
2, 65100, Note_on_c, 0, 55, 96
2, 65160, Note_on_c, 0, 55, 0
2, 65160, Note_on_c, 0, 53, 96
2, 65220, Note_on_c, 0, 53, 0
2, 65220, Note_on_c, 0, 52, 96
2, 65280, Note_on_c, 0, 52, 0
2, 65280, Note_on_c, 0, 50, 96
2, 65340, Note_on_c, 0, 70, 96
2, 65400, Note_on_c, 0, 70, 0
2, 65400, Note_on_c, 0, 74, 96
2, 65460, Note_on_c, 0, 74, 0
2, 65460, Note_on_c, 0, 72, 96
2, 65520, Note_on_c, 0, 72, 0
2, 65520, Note_on_c, 0, 70, 96
2, 65580, Note_on_c, 0, 70, 0
2, 65580, Note_on_c, 0, 69, 96
2, 65640, Note_on_c, 0, 69, 0
2, 65640, Note_on_c, 0, 67, 96
2, 65700, Note_on_c, 0, 67, 0
2, 65700, Note_on_c, 0, 65, 96
2, 65760, Note_on_c, 0, 65, 0
2, 65760, Note_on_c, 0, 50, 0
2, 65760, Note_on_c, 0, 48, 96
2, 65760, Note_on_c, 0, 55, 96
2, 65760, Note_on_c, 0, 58, 96
2, 65760, Note_on_c, 0, 64, 96
2, 65820, Note_on_c, 0, 64, 0
2, 65820, Note_on_c, 0, 65, 96
2, 65880, Note_on_c, 0, 65, 0
2, 65880, Note_on_c, 0, 67, 96
2, 65940, Note_on_c, 0, 67, 0
2, 65940, Note_on_c, 0, 69, 96
2, 66000, Note_on_c, 0, 69, 0
2, 66000, Note_on_c, 0, 70, 96
2, 66060, Note_on_c, 0, 70, 0
2, 66060, Note_on_c, 0, 72, 96
2, 66120, Note_on_c, 0, 72, 0
2, 66120, Note_on_c, 0, 74, 96
2, 66180, Note_on_c, 0, 74, 0
2, 66180, Note_on_c, 0, 76, 96
2, 66240, Note_on_c, 0, 76, 0
2, 66240, Note_on_c, 0, 58, 0
2, 66240, Note_on_c, 0, 55, 0
2, 66240, Note_on_c, 0, 48, 0
2, 66240, Note_on_c, 0, 77, 96
2, 66240, Note_on_c, 0, 65, 96
2, 66360, Note_on_c, 0, 65, 0
2, 66360, Note_on_c, 0, 72, 96
2, 66480, Note_on_c, 0, 72, 0
2, 66480, Note_on_c, 0, 69, 96
2, 66600, Note_on_c, 0, 69, 0
2, 66600, Note_on_c, 0, 72, 96
2, 66720, Note_on_c, 0, 72, 0
2, 66720, Note_on_c, 0, 77, 0
2, 66720, Note_on_c, 0, 81, 96
2, 66720, Note_on_c, 0, 65, 96
2, 66840, Note_on_c, 0, 65, 0
2, 66840, Note_on_c, 0, 72, 96
2, 66960, Note_on_c, 0, 72, 0
2, 66960, Note_on_c, 0, 81, 0
2, 66960, Note_on_c, 0, 84, 96
2, 66960, Note_on_c, 0, 69, 96
2, 67080, Note_on_c, 0, 69, 0
2, 67080, Note_on_c, 0, 72, 96
2, 67200, Note_on_c, 0, 72, 0
2, 67200, Note_on_c, 0, 84, 0
2, 67200, Note_on_c, 0, 76, 96
2, 67200, Note_on_c, 0, 67, 96
2, 67320, Note_on_c, 0, 67, 0
2, 67320, Note_on_c, 0, 72, 96
2, 67440, Note_on_c, 0, 72, 0
2, 67440, Note_on_c, 0, 70, 96
2, 67560, Note_on_c, 0, 70, 0
2, 67560, Note_on_c, 0, 76, 0
2, 67560, Note_on_c, 0, 77, 96
2, 67560, Note_on_c, 0, 72, 96
2, 67620, Note_on_c, 0, 77, 0
2, 67620, Note_on_c, 0, 79, 96
2, 67680, Note_on_c, 0, 79, 0
2, 67680, Note_on_c, 0, 72, 0
2, 67680, Note_on_c, 0, 77, 96
2, 67680, Note_on_c, 0, 65, 96
2, 67800, Note_on_c, 0, 65, 0
2, 67800, Note_on_c, 0, 72, 96
2, 67920, Note_on_c, 0, 72, 0
2, 67920, Note_on_c, 0, 69, 96
2, 68040, Note_on_c, 0, 69, 0
2, 68040, Note_on_c, 0, 72, 96
2, 68160, Note_on_c, 0, 72, 0
2, 68160, Note_on_c, 0, 77, 0
2, 68160, Note_on_c, 0, 86, 96
2, 68160, Note_on_c, 0, 65, 96
2, 68280, Note_on_c, 0, 65, 0
2, 68280, Note_on_c, 0, 74, 96
2, 68400, Note_on_c, 0, 74, 0
2, 68400, Note_on_c, 0, 70, 96
2, 68520, Note_on_c, 0, 70, 0
2, 68520, Note_on_c, 0, 74, 96
2, 68640, Note_on_c, 0, 74, 0
2, 68640, Note_on_c, 0, 86, 0
2, 68640, Note_on_c, 0, 84, 96
2, 68640, Note_on_c, 0, 65, 96
2, 68760, Note_on_c, 0, 65, 0
2, 68760, Note_on_c, 0, 72, 96
2, 68880, Note_on_c, 0, 72, 0
2, 68880, Note_on_c, 0, 84, 0
2, 68880, Note_on_c, 0, 89, 96
2, 68880, Note_on_c, 0, 69, 96
2, 69000, Note_on_c, 0, 69, 0
2, 69000, Note_on_c, 0, 72, 96
2, 69120, Note_on_c, 0, 72, 0
2, 69120, Note_on_c, 0, 89, 0
2, 69120, Note_on_c, 0, 84, 96
2, 69120, Note_on_c, 0, 64, 96
2, 69240, Note_on_c, 0, 64, 0
2, 69240, Note_on_c, 0, 72, 96
2, 69360, Note_on_c, 0, 72, 0
2, 69360, Note_on_c, 0, 84, 0
2, 69360, Note_on_c, 0, 82, 96
2, 69360, Note_on_c, 0, 67, 96
2, 69399, Note_on_c, 0, 82, 0
2, 69399, Note_on_c, 0, 84, 96
2, 69439, Note_on_c, 0, 84, 0
2, 69439, Note_on_c, 0, 82, 96
2, 69479, Note_on_c, 0, 82, 0
2, 69480, Note_on_c, 0, 67, 0
2, 69480, Note_on_c, 0, 81, 96
2, 69480, Note_on_c, 0, 72, 96
2, 69540, Note_on_c, 0, 81, 0
2, 69540, Note_on_c, 0, 82, 96
2, 69600, Note_on_c, 0, 82, 0
2, 69600, Note_on_c, 0, 72, 0
2, 69600, Note_on_c, 0, 81, 96
2, 69600, Note_on_c, 0, 65, 96
2, 69720, Note_on_c, 0, 65, 0
2, 69720, Note_on_c, 0, 72, 96
2, 69840, Note_on_c, 0, 72, 0
2, 69840, Note_on_c, 0, 81, 0
2, 69840, Note_on_c, 0, 69, 96
2, 69960, Note_on_c, 0, 69, 0
2, 69960, Note_on_c, 0, 72, 96
2, 70080, Note_on_c, 0, 72, 0
2, 70080, Note_on_c, 0, 74, 96
2, 70080, Note_on_c, 0, 70, 96
2, 70200, Note_on_c, 0, 74, 0
2, 70200, Note_on_c, 0, 76, 96
2, 70260, Note_on_c, 0, 76, 0
2, 70260, Note_on_c, 0, 77, 96
2, 70320, Note_on_c, 0, 77, 0
2, 70320, Note_on_c, 0, 70, 0
2, 70320, Note_on_c, 0, 79, 96
2, 70380, Note_on_c, 0, 79, 0
2, 70380, Note_on_c, 0, 81, 96
2, 70440, Note_on_c, 0, 81, 0
2, 70440, Note_on_c, 0, 82, 96
2, 70500, Note_on_c, 0, 82, 0
2, 70500, Note_on_c, 0, 84, 96
2, 70560, Note_on_c, 0, 84, 0
2, 70560, Note_on_c, 0, 86, 96
2, 70620, Note_on_c, 0, 86, 0
2, 70620, Note_on_c, 0, 84, 96
2, 70680, Note_on_c, 0, 84, 0
2, 70680, Note_on_c, 0, 82, 96
2, 70740, Note_on_c, 0, 82, 0
2, 70740, Note_on_c, 0, 81, 96
2, 70800, Note_on_c, 0, 81, 0
2, 70800, Note_on_c, 0, 58, 96
2, 70800, Note_on_c, 0, 65, 96
2, 70800, Note_on_c, 0, 79, 96
2, 70860, Note_on_c, 0, 79, 0
2, 70860, Note_on_c, 0, 77, 96
2, 70920, Note_on_c, 0, 77, 0
2, 70920, Note_on_c, 0, 76, 96
2, 70980, Note_on_c, 0, 76, 0
2, 70980, Note_on_c, 0, 74, 96
2, 71040, Note_on_c, 0, 74, 0
2, 71040, Note_on_c, 0, 65, 0
2, 71040, Note_on_c, 0, 58, 0
2, 71040, Note_on_c, 0, 72, 96
2, 71040, Note_on_c, 0, 57, 96
2, 71040, Note_on_c, 0, 65, 96
2, 71160, Note_on_c, 0, 72, 0
2, 71160, Note_on_c, 0, 74, 96
2, 71220, Note_on_c, 0, 74, 0
2, 71220, Note_on_c, 0, 76, 96
2, 71280, Note_on_c, 0, 76, 0
2, 71280, Note_on_c, 0, 65, 0
2, 71280, Note_on_c, 0, 57, 0
2, 71280, Note_on_c, 0, 77, 96
2, 71340, Note_on_c, 0, 77, 0
2, 71340, Note_on_c, 0, 79, 96
2, 71400, Note_on_c, 0, 79, 0
2, 71400, Note_on_c, 0, 81, 96
2, 71460, Note_on_c, 0, 81, 0
2, 71460, Note_on_c, 0, 82, 96
2, 71520, Note_on_c, 0, 82, 0
2, 71520, Note_on_c, 0, 84, 96
2, 71580, Note_on_c, 0, 84, 0
2, 71580, Note_on_c, 0, 82, 96
2, 71640, Note_on_c, 0, 82, 0
2, 71640, Note_on_c, 0, 81, 96
2, 71700, Note_on_c, 0, 81, 0
2, 71700, Note_on_c, 0, 79, 96
2, 71760, Note_on_c, 0, 79, 0
2, 71760, Note_on_c, 0, 57, 96
2, 71760, Note_on_c, 0, 65, 96
2, 71760, Note_on_c, 0, 77, 96
2, 71820, Note_on_c, 0, 77, 0
2, 71820, Note_on_c, 0, 76, 96
2, 71880, Note_on_c, 0, 76, 0
2, 71880, Note_on_c, 0, 74, 96
2, 71940, Note_on_c, 0, 74, 0
2, 71940, Note_on_c, 0, 72, 96
2, 72000, Note_on_c, 0, 72, 0
2, 72000, Note_on_c, 0, 65, 0
2, 72000, Note_on_c, 0, 57, 0
2, 72000, Note_on_c, 0, 70, 96
2, 72000, Note_on_c, 0, 55, 96
2, 72000, Note_on_c, 0, 65, 96
2, 72120, Note_on_c, 0, 70, 0
2, 72120, Note_on_c, 0, 72, 96
2, 72180, Note_on_c, 0, 72, 0
2, 72180, Note_on_c, 0, 74, 96
2, 72240, Note_on_c, 0, 74, 0
2, 72240, Note_on_c, 0, 65, 0
2, 72240, Note_on_c, 0, 55, 0
2, 72240, Note_on_c, 0, 76, 96
2, 72300, Note_on_c, 0, 76, 0
2, 72300, Note_on_c, 0, 77, 96
2, 72360, Note_on_c, 0, 77, 0
2, 72360, Note_on_c, 0, 79, 96
2, 72420, Note_on_c, 0, 79, 0
2, 72420, Note_on_c, 0, 81, 96
2, 72480, Note_on_c, 0, 81, 0
2, 72480, Note_on_c, 0, 82, 96
2, 72540, Note_on_c, 0, 82, 0
2, 72540, Note_on_c, 0, 81, 96
2, 72600, Note_on_c, 0, 81, 0
2, 72600, Note_on_c, 0, 79, 96
2, 72660, Note_on_c, 0, 79, 0
2, 72660, Note_on_c, 0, 77, 96
2, 72720, Note_on_c, 0, 77, 0
2, 72720, Note_on_c, 0, 55, 96
2, 72720, Note_on_c, 0, 64, 96
2, 72720, Note_on_c, 0, 76, 96
2, 72780, Note_on_c, 0, 76, 0
2, 72780, Note_on_c, 0, 74, 96
2, 72840, Note_on_c, 0, 74, 0
2, 72840, Note_on_c, 0, 72, 96
2, 72900, Note_on_c, 0, 72, 0
2, 72900, Note_on_c, 0, 70, 96
2, 72960, Note_on_c, 0, 70, 0
2, 72960, Note_on_c, 0, 64, 0
2, 72960, Note_on_c, 0, 55, 0
2, 72960, Note_on_c, 0, 69, 96
2, 72960, Note_on_c, 0, 53, 96
2, 72960, Note_on_c, 0, 65, 96
2, 73080, Note_on_c, 0, 69, 0
2, 73080, Note_on_c, 0, 70, 96
2, 73140, Note_on_c, 0, 70, 0
2, 73140, Note_on_c, 0, 72, 96
2, 73200, Note_on_c, 0, 72, 0
2, 73200, Note_on_c, 0, 65, 0
2, 73200, Note_on_c, 0, 53, 0
2, 73200, Note_on_c, 0, 74, 96
2, 73260, Note_on_c, 0, 74, 0
2, 73260, Note_on_c, 0, 76, 96
2, 73320, Note_on_c, 0, 76, 0
2, 73320, Note_on_c, 0, 77, 96
2, 73380, Note_on_c, 0, 77, 0
2, 73380, Note_on_c, 0, 79, 96
2, 73440, Note_on_c, 0, 79, 0
2, 73440, Note_on_c, 0, 81, 96
2, 73500, Note_on_c, 0, 81, 0
2, 73500, Note_on_c, 0, 79, 96
2, 73560, Note_on_c, 0, 79, 0
2, 73560, Note_on_c, 0, 77, 96
2, 73620, Note_on_c, 0, 77, 0
2, 73620, Note_on_c, 0, 76, 96
2, 73680, Note_on_c, 0, 76, 0
2, 73680, Note_on_c, 0, 74, 96
2, 73740, Note_on_c, 0, 74, 0
2, 73740, Note_on_c, 0, 72, 96
2, 73800, Note_on_c, 0, 72, 0
2, 73800, Note_on_c, 0, 70, 96
2, 73860, Note_on_c, 0, 70, 0
2, 73860, Note_on_c, 0, 69, 96
2, 73920, Note_on_c, 0, 69, 0
2, 73920, Note_on_c, 0, 81, 96
2, 73920, Note_on_c, 0, 53, 96
2, 74040, Note_on_c, 0, 53, 0
2, 74040, Note_on_c, 0, 55, 96
2, 74100, Note_on_c, 0, 55, 0
2, 74100, Note_on_c, 0, 57, 96
2, 74160, Note_on_c, 0, 57, 0
2, 74160, Note_on_c, 0, 81, 0
2, 74160, Note_on_c, 0, 58, 96
2, 74220, Note_on_c, 0, 58, 0
2, 74220, Note_on_c, 0, 60, 96
2, 74280, Note_on_c, 0, 60, 0
2, 74280, Note_on_c, 0, 62, 96
2, 74340, Note_on_c, 0, 62, 0
2, 74340, Note_on_c, 0, 64, 96
2, 74400, Note_on_c, 0, 64, 0
2, 74400, Note_on_c, 0, 65, 96
2, 74460, Note_on_c, 0, 65, 0
2, 74460, Note_on_c, 0, 64, 96
2, 74520, Note_on_c, 0, 64, 0
2, 74520, Note_on_c, 0, 62, 96
2, 74580, Note_on_c, 0, 62, 0
2, 74580, Note_on_c, 0, 60, 96
2, 74640, Note_on_c, 0, 60, 0
2, 74640, Note_on_c, 0, 72, 96
2, 74640, Note_on_c, 0, 81, 96
2, 74640, Note_on_c, 0, 58, 96
2, 74700, Note_on_c, 0, 58, 0
2, 74700, Note_on_c, 0, 57, 96
2, 74760, Note_on_c, 0, 57, 0
2, 74760, Note_on_c, 0, 55, 96
2, 74820, Note_on_c, 0, 55, 0
2, 74820, Note_on_c, 0, 53, 96
2, 74880, Note_on_c, 0, 53, 0
2, 74880, Note_on_c, 0, 81, 0
2, 74880, Note_on_c, 0, 72, 0
2, 74880, Note_on_c, 0, 72, 96
2, 74880, Note_on_c, 0, 79, 96
2, 74880, Note_on_c, 0, 52, 96
2, 75000, Note_on_c, 0, 52, 0
2, 75000, Note_on_c, 0, 53, 96
2, 75060, Note_on_c, 0, 53, 0
2, 75060, Note_on_c, 0, 55, 96
2, 75120, Note_on_c, 0, 55, 0
2, 75120, Note_on_c, 0, 79, 0
2, 75120, Note_on_c, 0, 72, 0
2, 75120, Note_on_c, 0, 57, 96
2, 75180, Note_on_c, 0, 57, 0
2, 75180, Note_on_c, 0, 59, 96
2, 75240, Note_on_c, 0, 59, 0
2, 75240, Note_on_c, 0, 60, 96
2, 75300, Note_on_c, 0, 60, 0
2, 75300, Note_on_c, 0, 62, 96
2, 75360, Note_on_c, 0, 62, 0
2, 75360, Note_on_c, 0, 64, 96
2, 75420, Note_on_c, 0, 64, 0
2, 75420, Note_on_c, 0, 62, 96
2, 75480, Note_on_c, 0, 62, 0
2, 75480, Note_on_c, 0, 60, 96
2, 75540, Note_on_c, 0, 60, 0
2, 75540, Note_on_c, 0, 59, 96
2, 75600, Note_on_c, 0, 59, 0
2, 75600, Note_on_c, 0, 72, 96
2, 75600, Note_on_c, 0, 79, 96
2, 75600, Note_on_c, 0, 57, 96
2, 75660, Note_on_c, 0, 57, 0
2, 75660, Note_on_c, 0, 55, 96
2, 75720, Note_on_c, 0, 55, 0
2, 75720, Note_on_c, 0, 53, 96
2, 75780, Note_on_c, 0, 53, 0
2, 75780, Note_on_c, 0, 52, 96
2, 75840, Note_on_c, 0, 52, 0
2, 75840, Note_on_c, 0, 79, 0
2, 75840, Note_on_c, 0, 72, 0
2, 75840, Note_on_c, 0, 72, 96
2, 75840, Note_on_c, 0, 77, 96
2, 75840, Note_on_c, 0, 50, 96
2, 75960, Note_on_c, 0, 50, 0
2, 75960, Note_on_c, 0, 52, 96
2, 76020, Note_on_c, 0, 52, 0
2, 76020, Note_on_c, 0, 53, 96
2, 76080, Note_on_c, 0, 53, 0
2, 76080, Note_on_c, 0, 77, 0
2, 76080, Note_on_c, 0, 72, 0
2, 76080, Note_on_c, 0, 55, 96
2, 76140, Note_on_c, 0, 55, 0
2, 76140, Note_on_c, 0, 57, 96
2, 76200, Note_on_c, 0, 57, 0
2, 76200, Note_on_c, 0, 59, 96
2, 76260, Note_on_c, 0, 59, 0
2, 76260, Note_on_c, 0, 60, 96
2, 76320, Note_on_c, 0, 60, 0
2, 76320, Note_on_c, 0, 62, 96
2, 76380, Note_on_c, 0, 62, 0
2, 76380, Note_on_c, 0, 60, 96
2, 76440, Note_on_c, 0, 60, 0
2, 76440, Note_on_c, 0, 59, 96
2, 76500, Note_on_c, 0, 59, 0
2, 76500, Note_on_c, 0, 57, 96
2, 76560, Note_on_c, 0, 57, 0
2, 76560, Note_on_c, 0, 71, 96
2, 76560, Note_on_c, 0, 77, 96
2, 76560, Note_on_c, 0, 55, 96
2, 76620, Note_on_c, 0, 55, 0
2, 76620, Note_on_c, 0, 53, 96
2, 76680, Note_on_c, 0, 53, 0
2, 76680, Note_on_c, 0, 52, 96
2, 76740, Note_on_c, 0, 52, 0
2, 76740, Note_on_c, 0, 50, 96
2, 76800, Note_on_c, 0, 50, 0
2, 76800, Note_on_c, 0, 77, 0
2, 76800, Note_on_c, 0, 71, 0
2, 76800, Note_on_c, 0, 72, 96
2, 76800, Note_on_c, 0, 76, 96
2, 76800, Note_on_c, 0, 48, 96
2, 76920, Note_on_c, 0, 48, 0
2, 76920, Note_on_c, 0, 50, 96
2, 76980, Note_on_c, 0, 50, 0
2, 76980, Note_on_c, 0, 52, 96
2, 77040, Note_on_c, 0, 52, 0
2, 77040, Note_on_c, 0, 76, 0
2, 77040, Note_on_c, 0, 72, 0
2, 77040, Note_on_c, 0, 53, 96
2, 77100, Note_on_c, 0, 53, 0
2, 77100, Note_on_c, 0, 55, 96
2, 77160, Note_on_c, 0, 55, 0
2, 77160, Note_on_c, 0, 57, 96
2, 77220, Note_on_c, 0, 57, 0
2, 77220, Note_on_c, 0, 59, 96
2, 77280, Note_on_c, 0, 59, 0
2, 77280, Note_on_c, 0, 60, 96
2, 77340, Note_on_c, 0, 60, 0
2, 77340, Note_on_c, 0, 59, 96
2, 77400, Note_on_c, 0, 59, 0
2, 77400, Note_on_c, 0, 57, 96
2, 77460, Note_on_c, 0, 57, 0
2, 77460, Note_on_c, 0, 55, 96
2, 77520, Note_on_c, 0, 55, 0
2, 77520, Note_on_c, 0, 72, 96
2, 77520, Note_on_c, 0, 76, 96
2, 77520, Note_on_c, 0, 53, 96
2, 77580, Note_on_c, 0, 53, 0
2, 77580, Note_on_c, 0, 52, 96
2, 77640, Note_on_c, 0, 52, 0
2, 77640, Note_on_c, 0, 50, 96
2, 77700, Note_on_c, 0, 50, 0
2, 77700, Note_on_c, 0, 48, 96
2, 77760, Note_on_c, 0, 48, 0
2, 77760, Note_on_c, 0, 76, 0
2, 77760, Note_on_c, 0, 72, 0
2, 77760, Note_on_c, 0, 53, 96
2, 77760, Note_on_c, 0, 57, 96
2, 77760, Note_on_c, 0, 74, 96
2, 77820, Note_on_c, 0, 74, 0
2, 77820, Note_on_c, 0, 62, 96
2, 77880, Note_on_c, 0, 62, 0
2, 77880, Note_on_c, 0, 64, 96
2, 77940, Note_on_c, 0, 64, 0
2, 77940, Note_on_c, 0, 65, 96
2, 78000, Note_on_c, 0, 65, 0
2, 78000, Note_on_c, 0, 67, 96
2, 78060, Note_on_c, 0, 67, 0
2, 78060, Note_on_c, 0, 69, 96
2, 78120, Note_on_c, 0, 69, 0
2, 78120, Note_on_c, 0, 71, 96
2, 78180, Note_on_c, 0, 71, 0
2, 78180, Note_on_c, 0, 73, 96
2, 78240, Note_on_c, 0, 73, 0
2, 78240, Note_on_c, 0, 74, 96
2, 78300, Note_on_c, 0, 74, 0
2, 78300, Note_on_c, 0, 69, 96
2, 78360, Note_on_c, 0, 69, 0
2, 78360, Note_on_c, 0, 71, 96
2, 78420, Note_on_c, 0, 71, 0
2, 78420, Note_on_c, 0, 73, 96
2, 78480, Note_on_c, 0, 73, 0
2, 78480, Note_on_c, 0, 74, 96
2, 78540, Note_on_c, 0, 74, 0
2, 78540, Note_on_c, 0, 76, 96
2, 78600, Note_on_c, 0, 76, 0
2, 78600, Note_on_c, 0, 77, 96
2, 78660, Note_on_c, 0, 77, 0
2, 78660, Note_on_c, 0, 79, 96
2, 78720, Note_on_c, 0, 79, 0
2, 78720, Note_on_c, 0, 57, 0
2, 78720, Note_on_c, 0, 53, 0
2, 78720, Note_on_c, 0, 81, 96
2, 78720, Note_on_c, 0, 53, 96
2, 78780, Note_on_c, 0, 81, 0
2, 78780, Note_on_c, 0, 83, 96
2, 78840, Note_on_c, 0, 83, 0
2, 78840, Note_on_c, 0, 84, 96
2, 78900, Note_on_c, 0, 84, 0
2, 78900, Note_on_c, 0, 83, 96
2, 78960, Note_on_c, 0, 83, 0
2, 78960, Note_on_c, 0, 81, 96
2, 79020, Note_on_c, 0, 81, 0
2, 79020, Note_on_c, 0, 79, 96
2, 79080, Note_on_c, 0, 79, 0
2, 79080, Note_on_c, 0, 53, 0
2, 79080, Note_on_c, 0, 77, 96
2, 79080, Note_on_c, 0, 55, 96
2, 79140, Note_on_c, 0, 77, 0
2, 79140, Note_on_c, 0, 76, 96
2, 79200, Note_on_c, 0, 76, 0
2, 79200, Note_on_c, 0, 55, 0
2, 79200, Note_on_c, 0, 77, 96
2, 79200, Note_on_c, 0, 57, 96
2, 79260, Note_on_c, 0, 77, 0
2, 79260, Note_on_c, 0, 79, 96
2, 79320, Note_on_c, 0, 79, 0
2, 79320, Note_on_c, 0, 81, 96
2, 79380, Note_on_c, 0, 81, 0
2, 79380, Note_on_c, 0, 79, 96
2, 79440, Note_on_c, 0, 79, 0
2, 79440, Note_on_c, 0, 77, 96
2, 79500, Note_on_c, 0, 77, 0
2, 79500, Note_on_c, 0, 76, 96
2, 79560, Note_on_c, 0, 76, 0
2, 79560, Note_on_c, 0, 57, 0
2, 79560, Note_on_c, 0, 54, 96
2, 79560, Note_on_c, 0, 74, 96
2, 79620, Note_on_c, 0, 74, 0
2, 79620, Note_on_c, 0, 72, 96
2, 79680, Note_on_c, 0, 72, 0
2, 79680, Note_on_c, 0, 54, 0
2, 79680, Note_on_c, 0, 71, 96
2, 79680, Note_on_c, 0, 43, 96
2, 79740, Note_on_c, 0, 43, 0
2, 79740, Note_on_c, 0, 47, 96
2, 79800, Note_on_c, 0, 47, 0
2, 79800, Note_on_c, 0, 71, 0
2, 79800, Note_on_c, 0, 79, 96
2, 79800, Note_on_c, 0, 50, 96
2, 79860, Note_on_c, 0, 50, 0
2, 79860, Note_on_c, 0, 55, 96
2, 79920, Note_on_c, 0, 55, 0
2, 79920, Note_on_c, 0, 79, 0
2, 79920, Note_on_c, 0, 76, 96
2, 79920, Note_on_c, 0, 43, 96
2, 79980, Note_on_c, 0, 43, 0
2, 79980, Note_on_c, 0, 48, 96
2, 80040, Note_on_c, 0, 48, 0
2, 80040, Note_on_c, 0, 76, 0
2, 80040, Note_on_c, 0, 72, 96
2, 80040, Note_on_c, 0, 52, 96
2, 80100, Note_on_c, 0, 52, 0
2, 80100, Note_on_c, 0, 55, 96
2, 80160, Note_on_c, 0, 55, 0
2, 80160, Note_on_c, 0, 72, 0
2, 80160, Note_on_c, 0, 74, 96
2, 80160, Note_on_c, 0, 43, 96
2, 80220, Note_on_c, 0, 43, 0
2, 80220, Note_on_c, 0, 47, 96
2, 80280, Note_on_c, 0, 47, 0
2, 80280, Note_on_c, 0, 74, 0
2, 80280, Note_on_c, 0, 79, 96
2, 80280, Note_on_c, 0, 50, 96
2, 80340, Note_on_c, 0, 50, 0
2, 80340, Note_on_c, 0, 55, 96
2, 80400, Note_on_c, 0, 55, 0
2, 80400, Note_on_c, 0, 79, 0
2, 80400, Note_on_c, 0, 76, 96
2, 80400, Note_on_c, 0, 43, 96
2, 80460, Note_on_c, 0, 43, 0
2, 80460, Note_on_c, 0, 48, 96
2, 80520, Note_on_c, 0, 48, 0
2, 80520, Note_on_c, 0, 76, 0
2, 80520, Note_on_c, 0, 72, 96
2, 80520, Note_on_c, 0, 52, 96
2, 80580, Note_on_c, 0, 52, 0
2, 80580, Note_on_c, 0, 55, 96
2, 80640, Note_on_c, 0, 55, 0
2, 80640, Note_on_c, 0, 72, 0
2, 80640, Note_on_c, 0, 74, 96
2, 80640, Note_on_c, 0, 43, 96
2, 80880, Note_on_c, 0, 43, 0
2, 80880, Note_on_c, 0, 74, 0
2, 80880, Note_on_c, 0, 71, 96
2, 80880, Note_on_c, 0, 74, 96
2, 80880, Note_on_c, 0, 79, 96
2, 80880, Note_on_c, 0, 55, 96
2, 81120, Note_on_c, 0, 55, 0
2, 81120, Note_on_c, 0, 71, 0
2, 81120, Note_on_c, 0, 74, 0
2, 81120, Note_on_c, 0, 79, 0
2, 81120, Note_on_c, 0, 67, 96
2, 81120, Note_on_c, 0, 43, 96
2, 81360, Note_on_c, 0, 43, 0
2, 81360, Note_on_c, 0, 67, 0
2, 81600, Note_on_c, 0, 66, 96
2, 81660, Note_on_c, 0, 66, 0
2, 81660, Note_on_c, 0, 67, 96
2, 81720, Note_on_c, 0, 67, 0
2, 81720, Note_on_c, 0, 66, 96
2, 81780, Note_on_c, 0, 66, 0
2, 81780, Note_on_c, 0, 67, 96
2, 81840, Note_on_c, 0, 67, 0
2, 81840, Note_on_c, 0, 66, 96
2, 81900, Note_on_c, 0, 66, 0
2, 81900, Note_on_c, 0, 67, 96
2, 81960, Note_on_c, 0, 67, 0
2, 81960, Note_on_c, 0, 66, 96
2, 82020, Note_on_c, 0, 66, 0
2, 82020, Note_on_c, 0, 67, 96
2, 82080, Note_on_c, 0, 67, 0
2, 82080, Note_on_c, 0, 65, 96
2, 82140, Note_on_c, 0, 65, 0
2, 82140, Note_on_c, 0, 67, 96
2, 82200, Note_on_c, 0, 67, 0
2, 82200, Note_on_c, 0, 65, 96
2, 82260, Note_on_c, 0, 65, 0
2, 82260, Note_on_c, 0, 67, 96
2, 82320, Note_on_c, 0, 67, 0
2, 82320, Note_on_c, 0, 65, 96
2, 82380, Note_on_c, 0, 65, 0
2, 82380, Note_on_c, 0, 67, 96
2, 82440, Note_on_c, 0, 67, 0
2, 82440, Note_on_c, 0, 65, 96
2, 82500, Note_on_c, 0, 65, 0
2, 82500, Note_on_c, 0, 67, 96
2, 82560, Note_on_c, 0, 67, 0
2, 82560, Note_on_c, 0, 79, 96
2, 82560, Note_on_c, 0, 64, 96
2, 82620, Note_on_c, 0, 64, 0
2, 82620, Note_on_c, 0, 67, 96
2, 82680, Note_on_c, 0, 67, 0
2, 82680, Note_on_c, 0, 79, 0
2, 82680, Note_on_c, 0, 76, 96
2, 82680, Note_on_c, 0, 64, 96
2, 82740, Note_on_c, 0, 64, 0
2, 82740, Note_on_c, 0, 67, 96
2, 82800, Note_on_c, 0, 67, 0
2, 82800, Note_on_c, 0, 76, 0
2, 82800, Note_on_c, 0, 72, 96
2, 82800, Note_on_c, 0, 64, 96
2, 82860, Note_on_c, 0, 64, 0
2, 82860, Note_on_c, 0, 67, 96
2, 82920, Note_on_c, 0, 67, 0
2, 82920, Note_on_c, 0, 64, 96
2, 82980, Note_on_c, 0, 64, 0
2, 82980, Note_on_c, 0, 67, 96
2, 83040, Note_on_c, 0, 67, 0
2, 83040, Note_on_c, 0, 64, 96
2, 83100, Note_on_c, 0, 64, 0
2, 83100, Note_on_c, 0, 67, 96
2, 83160, Note_on_c, 0, 67, 0
2, 83160, Note_on_c, 0, 72, 0
2, 83160, Note_on_c, 0, 74, 96
2, 83160, Note_on_c, 0, 64, 96
2, 83220, Note_on_c, 0, 64, 0
2, 83220, Note_on_c, 0, 74, 0
2, 83220, Note_on_c, 0, 76, 96
2, 83220, Note_on_c, 0, 67, 96
2, 83280, Note_on_c, 0, 67, 0
2, 83280, Note_on_c, 0, 76, 0
2, 83280, Note_on_c, 0, 64, 96
2, 83280, Note_on_c, 0, 74, 96
2, 83340, Note_on_c, 0, 64, 0
2, 83340, Note_on_c, 0, 67, 96
2, 83400, Note_on_c, 0, 67, 0
2, 83400, Note_on_c, 0, 74, 0
2, 83400, Note_on_c, 0, 72, 96
2, 83400, Note_on_c, 0, 64, 96
2, 83460, Note_on_c, 0, 64, 0
2, 83460, Note_on_c, 0, 67, 96
2, 83520, Note_on_c, 0, 67, 0
2, 83520, Note_on_c, 0, 72, 0
2, 83520, Note_on_c, 0, 74, 96
2, 83520, Note_on_c, 0, 65, 96
2, 83550, Note_on_c, 0, 74, 0
2, 83550, Note_on_c, 0, 72, 72
2, 83580, Note_on_c, 0, 72, 0
2, 83580, Note_on_c, 0, 65, 0
2, 83580, Note_on_c, 0, 74, 78
2, 83580, Note_on_c, 0, 67, 96
2, 83610, Note_on_c, 0, 74, 0
2, 83610, Note_on_c, 0, 72, 84
2, 83640, Note_on_c, 0, 72, 0
2, 83640, Note_on_c, 0, 67, 0
2, 83640, Note_on_c, 0, 74, 90
2, 83640, Note_on_c, 0, 64, 96
2, 83670, Note_on_c, 0, 74, 0
2, 83670, Note_on_c, 0, 72, 96
2, 83700, Note_on_c, 0, 72, 0
2, 83700, Note_on_c, 0, 64, 0
2, 83700, Note_on_c, 0, 71, 102
2, 83700, Note_on_c, 0, 67, 96
2, 83750, Note_on_c, 0, 71, 0
2, 83760, Note_on_c, 0, 67, 0
2, 83760, Note_on_c, 0, 71, 96
2, 83760, Note_on_c, 0, 62, 96
2, 83820, Note_on_c, 0, 62, 0
2, 83820, Note_on_c, 0, 67, 96
2, 83880, Note_on_c, 0, 67, 0
2, 83880, Note_on_c, 0, 64, 96
2, 83940, Note_on_c, 0, 64, 0
2, 83940, Note_on_c, 0, 67, 96
2, 84000, Note_on_c, 0, 67, 0
2, 84000, Note_on_c, 0, 65, 96
2, 84060, Note_on_c, 0, 65, 0
2, 84060, Note_on_c, 0, 67, 96
2, 84120, Note_on_c, 0, 67, 0
2, 84120, Note_on_c, 0, 64, 96
2, 84180, Note_on_c, 0, 64, 0
2, 84180, Note_on_c, 0, 67, 96
2, 84240, Note_on_c, 0, 67, 0
2, 84240, Note_on_c, 0, 65, 96
2, 84300, Note_on_c, 0, 65, 0
2, 84300, Note_on_c, 0, 67, 96
2, 84360, Note_on_c, 0, 67, 0
2, 84360, Note_on_c, 0, 62, 96
2, 84420, Note_on_c, 0, 62, 0
2, 84420, Note_on_c, 0, 67, 96
2, 84480, Note_on_c, 0, 67, 0
2, 84480, Note_on_c, 0, 71, 0
2, 84480, Note_on_c, 0, 79, 96
2, 84480, Note_on_c, 0, 64, 96
2, 84540, Note_on_c, 0, 64, 0
2, 84540, Note_on_c, 0, 67, 96
2, 84600, Note_on_c, 0, 67, 0
2, 84600, Note_on_c, 0, 79, 0
2, 84600, Note_on_c, 0, 76, 96
2, 84600, Note_on_c, 0, 64, 96
2, 84660, Note_on_c, 0, 64, 0
2, 84660, Note_on_c, 0, 67, 96
2, 84720, Note_on_c, 0, 67, 0
2, 84720, Note_on_c, 0, 76, 0
2, 84720, Note_on_c, 0, 72, 96
2, 84720, Note_on_c, 0, 64, 96
2, 84780, Note_on_c, 0, 64, 0
2, 84780, Note_on_c, 0, 67, 96
2, 84840, Note_on_c, 0, 67, 0
2, 84840, Note_on_c, 0, 64, 96
2, 84900, Note_on_c, 0, 64, 0
2, 84900, Note_on_c, 0, 67, 96
2, 84960, Note_on_c, 0, 67, 0
2, 84960, Note_on_c, 0, 64, 96
2, 85020, Note_on_c, 0, 64, 0
2, 85020, Note_on_c, 0, 67, 96
2, 85080, Note_on_c, 0, 67, 0
2, 85080, Note_on_c, 0, 72, 0
2, 85080, Note_on_c, 0, 74, 96
2, 85080, Note_on_c, 0, 64, 96
2, 85140, Note_on_c, 0, 64, 0
2, 85140, Note_on_c, 0, 74, 0
2, 85140, Note_on_c, 0, 76, 96
2, 85140, Note_on_c, 0, 67, 96
2, 85200, Note_on_c, 0, 67, 0
2, 85200, Note_on_c, 0, 76, 0
2, 85200, Note_on_c, 0, 74, 96
2, 85200, Note_on_c, 0, 64, 96
2, 85260, Note_on_c, 0, 64, 0
2, 85260, Note_on_c, 0, 67, 96
2, 85320, Note_on_c, 0, 67, 0
2, 85320, Note_on_c, 0, 74, 0
2, 85320, Note_on_c, 0, 72, 96
2, 85320, Note_on_c, 0, 64, 96
2, 85380, Note_on_c, 0, 64, 0
2, 85380, Note_on_c, 0, 67, 96
2, 85440, Note_on_c, 0, 67, 0
2, 85440, Note_on_c, 0, 72, 0
2, 85440, Note_on_c, 0, 74, 96
2, 85440, Note_on_c, 0, 65, 96
2, 85470, Note_on_c, 0, 74, 0
2, 85470, Note_on_c, 0, 72, 72
2, 85500, Note_on_c, 0, 72, 0
2, 85500, Note_on_c, 0, 65, 0
2, 85500, Note_on_c, 0, 74, 78
2, 85500, Note_on_c, 0, 67, 96
2, 85530, Note_on_c, 0, 74, 0
2, 85530, Note_on_c, 0, 72, 84
2, 85560, Note_on_c, 0, 72, 0
2, 85560, Note_on_c, 0, 67, 0
2, 85560, Note_on_c, 0, 74, 90
2, 85560, Note_on_c, 0, 64, 96
2, 85590, Note_on_c, 0, 74, 0
2, 85590, Note_on_c, 0, 72, 96
2, 85620, Note_on_c, 0, 72, 0
2, 85620, Note_on_c, 0, 64, 0
2, 85620, Note_on_c, 0, 71, 102
2, 85620, Note_on_c, 0, 67, 96
2, 85670, Note_on_c, 0, 71, 0
2, 85680, Note_on_c, 0, 67, 0
2, 85680, Note_on_c, 0, 71, 96
2, 85680, Note_on_c, 0, 62, 96
2, 85740, Note_on_c, 0, 62, 0
2, 85740, Note_on_c, 0, 67, 96
2, 85800, Note_on_c, 0, 67, 0
2, 85800, Note_on_c, 0, 64, 96
2, 85860, Note_on_c, 0, 64, 0
2, 85860, Note_on_c, 0, 67, 96
2, 85920, Note_on_c, 0, 67, 0
2, 85920, Note_on_c, 0, 65, 96
2, 85980, Note_on_c, 0, 65, 0
2, 85980, Note_on_c, 0, 67, 96
2, 86040, Note_on_c, 0, 67, 0
2, 86040, Note_on_c, 0, 64, 96
2, 86100, Note_on_c, 0, 64, 0
2, 86100, Note_on_c, 0, 67, 96
2, 86160, Note_on_c, 0, 67, 0
2, 86160, Note_on_c, 0, 71, 0
2, 86160, Note_on_c, 0, 65, 96
2, 86220, Note_on_c, 0, 65, 0
2, 86220, Note_on_c, 0, 67, 96
2, 86280, Note_on_c, 0, 67, 0
2, 86280, Note_on_c, 0, 62, 96
2, 86340, Note_on_c, 0, 62, 0
2, 86340, Note_on_c, 0, 67, 96
2, 86400, Note_on_c, 0, 67, 0
2, 86400, Note_on_c, 0, 79, 96
2, 86460, Note_on_c, 0, 52, 96
2, 86520, Note_on_c, 0, 52, 0
2, 86520, Note_on_c, 0, 55, 96
2, 86580, Note_on_c, 0, 55, 0
2, 86580, Note_on_c, 0, 60, 96
2, 86640, Note_on_c, 0, 60, 0
2, 86640, Note_on_c, 0, 79, 0
2, 86640, Note_on_c, 0, 64, 96
2, 86700, Note_on_c, 0, 79, 96
2, 86760, Note_on_c, 0, 79, 0
2, 86760, Note_on_c, 0, 76, 96
2, 86820, Note_on_c, 0, 76, 0
2, 86820, Note_on_c, 0, 72, 96
2, 86880, Note_on_c, 0, 72, 0
2, 86880, Note_on_c, 0, 64, 0
2, 86880, Note_on_c, 0, 69, 96
2, 86940, Note_on_c, 0, 53, 96
2, 87000, Note_on_c, 0, 53, 0
2, 87000, Note_on_c, 0, 57, 96
2, 87060, Note_on_c, 0, 57, 0
2, 87060, Note_on_c, 0, 60, 96
2, 87120, Note_on_c, 0, 60, 0
2, 87120, Note_on_c, 0, 69, 0
2, 87120, Note_on_c, 0, 65, 96
2, 87180, Note_on_c, 0, 69, 96
2, 87240, Note_on_c, 0, 69, 0
2, 87240, Note_on_c, 0, 72, 96
2, 87300, Note_on_c, 0, 72, 0
2, 87300, Note_on_c, 0, 69, 96
2, 87360, Note_on_c, 0, 69, 0
2, 87360, Note_on_c, 0, 65, 0
2, 87360, Note_on_c, 0, 77, 96
2, 87420, Note_on_c, 0, 50, 96
2, 87480, Note_on_c, 0, 50, 0
2, 87480, Note_on_c, 0, 53, 96
2, 87540, Note_on_c, 0, 53, 0
2, 87540, Note_on_c, 0, 59, 96
2, 87600, Note_on_c, 0, 59, 0
2, 87600, Note_on_c, 0, 77, 0
2, 87600, Note_on_c, 0, 62, 96
2, 87660, Note_on_c, 0, 77, 96
2, 87720, Note_on_c, 0, 77, 0
2, 87720, Note_on_c, 0, 74, 96
2, 87780, Note_on_c, 0, 74, 0
2, 87780, Note_on_c, 0, 71, 96
2, 87840, Note_on_c, 0, 71, 0
2, 87840, Note_on_c, 0, 62, 0
2, 87840, Note_on_c, 0, 67, 96
2, 87900, Note_on_c, 0, 52, 96
2, 87960, Note_on_c, 0, 52, 0
2, 87960, Note_on_c, 0, 55, 96
2, 88020, Note_on_c, 0, 55, 0
2, 88020, Note_on_c, 0, 59, 96
2, 88080, Note_on_c, 0, 59, 0
2, 88080, Note_on_c, 0, 67, 0
2, 88080, Note_on_c, 0, 64, 96
2, 88140, Note_on_c, 0, 79, 96
2, 88200, Note_on_c, 0, 79, 0
2, 88200, Note_on_c, 0, 83, 96
2, 88260, Note_on_c, 0, 83, 0
2, 88260, Note_on_c, 0, 79, 96
2, 88320, Note_on_c, 0, 79, 0
2, 88320, Note_on_c, 0, 64, 0
2, 88320, Note_on_c, 0, 88, 96
2, 88380, Note_on_c, 0, 60, 96
2, 88440, Note_on_c, 0, 60, 0
2, 88440, Note_on_c, 0, 64, 96
2, 88500, Note_on_c, 0, 64, 0
2, 88500, Note_on_c, 0, 69, 96
2, 88560, Note_on_c, 0, 69, 0
2, 88560, Note_on_c, 0, 88, 0
2, 88560, Note_on_c, 0, 72, 96
2, 88620, Note_on_c, 0, 88, 96
2, 88680, Note_on_c, 0, 88, 0
2, 88680, Note_on_c, 0, 84, 96
2, 88740, Note_on_c, 0, 84, 0
2, 88740, Note_on_c, 0, 81, 96
2, 88800, Note_on_c, 0, 81, 0
2, 88800, Note_on_c, 0, 72, 0
2, 88800, Note_on_c, 0, 77, 96
2, 88860, Note_on_c, 0, 62, 96
2, 88920, Note_on_c, 0, 62, 0
2, 88920, Note_on_c, 0, 65, 96
2, 88980, Note_on_c, 0, 65, 0
2, 88980, Note_on_c, 0, 69, 96
2, 89040, Note_on_c, 0, 69, 0
2, 89040, Note_on_c, 0, 77, 0
2, 89040, Note_on_c, 0, 74, 96
2, 89100, Note_on_c, 0, 77, 96
2, 89160, Note_on_c, 0, 77, 0
2, 89160, Note_on_c, 0, 81, 96
2, 89220, Note_on_c, 0, 81, 0
2, 89220, Note_on_c, 0, 77, 96
2, 89280, Note_on_c, 0, 77, 0
2, 89280, Note_on_c, 0, 74, 0
2, 89280, Note_on_c, 0, 86, 96
2, 89340, Note_on_c, 0, 59, 96
2, 89400, Note_on_c, 0, 59, 0
2, 89400, Note_on_c, 0, 62, 96
2, 89460, Note_on_c, 0, 62, 0
2, 89460, Note_on_c, 0, 67, 96
2, 89520, Note_on_c, 0, 67, 0
2, 89520, Note_on_c, 0, 86, 0
2, 89520, Note_on_c, 0, 71, 96
2, 89580, Note_on_c, 0, 86, 96
2, 89640, Note_on_c, 0, 86, 0
2, 89640, Note_on_c, 0, 83, 96
2, 89700, Note_on_c, 0, 83, 0
2, 89700, Note_on_c, 0, 79, 96
2, 89760, Note_on_c, 0, 79, 0
2, 89760, Note_on_c, 0, 71, 0
2, 89760, Note_on_c, 0, 76, 96
2, 89820, Note_on_c, 0, 60, 96
2, 89880, Note_on_c, 0, 60, 0
2, 89880, Note_on_c, 0, 64, 96
2, 89940, Note_on_c, 0, 64, 0
2, 89940, Note_on_c, 0, 67, 96
2, 90000, Note_on_c, 0, 67, 0
2, 90000, Note_on_c, 0, 76, 0
2, 90000, Note_on_c, 0, 72, 96
2, 90060, Note_on_c, 0, 84, 96
2, 90120, Note_on_c, 0, 84, 0
2, 90120, Note_on_c, 0, 79, 96
2, 90180, Note_on_c, 0, 79, 0
2, 90180, Note_on_c, 0, 76, 96
2, 90240, Note_on_c, 0, 76, 0
2, 90240, Note_on_c, 0, 72, 0
2, 90240, Note_on_c, 0, 74, 96
2, 90360, Note_on_c, 0, 69, 96
2, 90360, Note_on_c, 0, 65, 96
2, 90456, Note_on_c, 0, 65, 0
2, 90456, Note_on_c, 0, 69, 0
2, 90480, Note_on_c, 0, 69, 96
2, 90480, Note_on_c, 0, 65, 96
2, 90576, Note_on_c, 0, 65, 0
2, 90576, Note_on_c, 0, 69, 0
2, 90600, Note_on_c, 0, 69, 96
2, 90600, Note_on_c, 0, 65, 96
2, 90696, Note_on_c, 0, 65, 0
2, 90696, Note_on_c, 0, 69, 0
2, 90710, Note_on_c, 0, 74, 0
2, 90720, Note_on_c, 0, 69, 96
2, 90720, Note_on_c, 0, 65, 96
2, 90720, Note_on_c, 0, 73, 108
2, 90750, Note_on_c, 0, 73, 0
2, 90750, Note_on_c, 0, 74, 96
2, 90816, Note_on_c, 0, 65, 0
2, 90816, Note_on_c, 0, 69, 0
2, 90840, Note_on_c, 0, 69, 96
2, 90840, Note_on_c, 0, 65, 96
2, 90936, Note_on_c, 0, 65, 0
2, 90936, Note_on_c, 0, 69, 0
2, 90960, Note_on_c, 0, 74, 0
2, 90960, Note_on_c, 0, 69, 96
2, 90960, Note_on_c, 0, 65, 96
2, 90960, Note_on_c, 0, 73, 108
2, 90990, Note_on_c, 0, 73, 0
2, 90990, Note_on_c, 0, 74, 96
2, 91056, Note_on_c, 0, 65, 0
2, 91056, Note_on_c, 0, 69, 0
2, 91080, Note_on_c, 0, 65, 96
2, 91080, Note_on_c, 0, 69, 96
2, 91176, Note_on_c, 0, 69, 0
2, 91176, Note_on_c, 0, 65, 0
2, 91200, Note_on_c, 0, 74, 0
2, 91200, Note_on_c, 0, 81, 96
2, 91320, Note_on_c, 0, 63, 96
2, 91320, Note_on_c, 0, 60, 96
2, 91320, Note_on_c, 0, 54, 96
2, 91416, Note_on_c, 0, 54, 0
2, 91416, Note_on_c, 0, 60, 0
2, 91416, Note_on_c, 0, 63, 0
2, 91440, Note_on_c, 0, 63, 96
2, 91440, Note_on_c, 0, 60, 96
2, 91440, Note_on_c, 0, 54, 96
2, 91536, Note_on_c, 0, 54, 0
2, 91536, Note_on_c, 0, 60, 0
2, 91536, Note_on_c, 0, 63, 0
2, 91560, Note_on_c, 0, 63, 96
2, 91560, Note_on_c, 0, 60, 96
2, 91560, Note_on_c, 0, 54, 96
2, 91656, Note_on_c, 0, 54, 0
2, 91656, Note_on_c, 0, 60, 0
2, 91656, Note_on_c, 0, 63, 0
2, 91670, Note_on_c, 0, 81, 0
2, 91680, Note_on_c, 0, 63, 96
2, 91680, Note_on_c, 0, 60, 96
2, 91680, Note_on_c, 0, 54, 96
2, 91680, Note_on_c, 0, 80, 108
2, 91710, Note_on_c, 0, 80, 0
2, 91710, Note_on_c, 0, 81, 96
2, 91776, Note_on_c, 0, 63, 0
2, 91776, Note_on_c, 0, 54, 0
2, 91776, Note_on_c, 0, 60, 0
2, 91800, Note_on_c, 0, 63, 96
2, 91800, Note_on_c, 0, 60, 96
2, 91800, Note_on_c, 0, 54, 96
2, 91896, Note_on_c, 0, 54, 0
2, 91896, Note_on_c, 0, 60, 0
2, 91896, Note_on_c, 0, 63, 0
2, 91920, Note_on_c, 0, 81, 0
2, 91920, Note_on_c, 0, 63, 96
2, 91920, Note_on_c, 0, 60, 96
2, 91920, Note_on_c, 0, 54, 96
2, 91920, Note_on_c, 0, 80, 108
2, 91950, Note_on_c, 0, 80, 0
2, 91950, Note_on_c, 0, 81, 96
2, 92016, Note_on_c, 0, 63, 0
2, 92016, Note_on_c, 0, 54, 0
2, 92016, Note_on_c, 0, 60, 0
2, 92040, Note_on_c, 0, 54, 96
2, 92040, Note_on_c, 0, 60, 96
2, 92040, Note_on_c, 0, 63, 96
2, 92136, Note_on_c, 0, 63, 0
2, 92136, Note_on_c, 0, 60, 0
2, 92136, Note_on_c, 0, 54, 0
2, 92160, Note_on_c, 0, 81, 0
2, 92160, Note_on_c, 0, 79, 96
2, 92160, Note_on_c, 0, 55, 96
2, 92220, Note_on_c, 0, 55, 0
2, 92220, Note_on_c, 0, 64, 96
2, 92280, Note_on_c, 0, 64, 0
2, 92280, Note_on_c, 0, 79, 0
2, 92280, Note_on_c, 0, 81, 96
2, 92280, Note_on_c, 0, 60, 96
2, 92340, Note_on_c, 0, 60, 0
2, 92340, Note_on_c, 0, 81, 0
2, 92340, Note_on_c, 0, 83, 96
2, 92340, Note_on_c, 0, 64, 96
2, 92400, Note_on_c, 0, 64, 0
2, 92400, Note_on_c, 0, 83, 0
2, 92400, Note_on_c, 0, 84, 96
2, 92400, Note_on_c, 0, 55, 96
2, 92460, Note_on_c, 0, 55, 0
2, 92460, Note_on_c, 0, 84, 0
2, 92460, Note_on_c, 0, 86, 96
2, 92460, Note_on_c, 0, 64, 96
2, 92520, Note_on_c, 0, 64, 0
2, 92520, Note_on_c, 0, 86, 0
2, 92520, Note_on_c, 0, 88, 96
2, 92520, Note_on_c, 0, 60, 96
2, 92580, Note_on_c, 0, 60, 0
2, 92580, Note_on_c, 0, 88, 0
2, 92580, Note_on_c, 0, 86, 96
2, 92580, Note_on_c, 0, 64, 96
2, 92640, Note_on_c, 0, 64, 0
2, 92640, Note_on_c, 0, 86, 0
2, 92640, Note_on_c, 0, 84, 96
2, 92640, Note_on_c, 0, 55, 96
2, 92700, Note_on_c, 0, 55, 0
2, 92700, Note_on_c, 0, 84, 0
2, 92700, Note_on_c, 0, 83, 96
2, 92700, Note_on_c, 0, 64, 96
2, 92760, Note_on_c, 0, 64, 0
2, 92760, Note_on_c, 0, 83, 0
2, 92760, Note_on_c, 0, 81, 96
2, 92760, Note_on_c, 0, 60, 96
2, 92820, Note_on_c, 0, 60, 0
2, 92820, Note_on_c, 0, 81, 0
2, 92820, Note_on_c, 0, 79, 96
2, 92820, Note_on_c, 0, 64, 96
2, 92880, Note_on_c, 0, 64, 0
2, 92880, Note_on_c, 0, 79, 0
2, 92880, Note_on_c, 0, 77, 96
2, 92880, Note_on_c, 0, 55, 96
2, 92940, Note_on_c, 0, 55, 0
2, 92940, Note_on_c, 0, 77, 0
2, 92940, Note_on_c, 0, 76, 96
2, 92940, Note_on_c, 0, 64, 96
2, 93000, Note_on_c, 0, 64, 0
2, 93000, Note_on_c, 0, 76, 0
2, 93000, Note_on_c, 0, 74, 96
2, 93000, Note_on_c, 0, 60, 96
2, 93060, Note_on_c, 0, 60, 0
2, 93060, Note_on_c, 0, 74, 0
2, 93060, Note_on_c, 0, 72, 96
2, 93060, Note_on_c, 0, 64, 96
2, 93120, Note_on_c, 0, 64, 0
2, 93120, Note_on_c, 0, 72, 0
2, 93120, Note_on_c, 0, 76, 96
2, 93120, Note_on_c, 0, 55, 96
2, 93150, Note_on_c, 0, 76, 0
2, 93150, Note_on_c, 0, 74, 72
2, 93180, Note_on_c, 0, 74, 0
2, 93180, Note_on_c, 0, 55, 0
2, 93180, Note_on_c, 0, 76, 72
2, 93180, Note_on_c, 0, 65, 96
2, 93210, Note_on_c, 0, 76, 0
2, 93210, Note_on_c, 0, 74, 73
2, 93240, Note_on_c, 0, 74, 0
2, 93240, Note_on_c, 0, 65, 0
2, 93240, Note_on_c, 0, 76, 73
2, 93240, Note_on_c, 0, 59, 96
2, 93270, Note_on_c, 0, 76, 0
2, 93270, Note_on_c, 0, 74, 75
2, 93300, Note_on_c, 0, 74, 0
2, 93300, Note_on_c, 0, 59, 0
2, 93300, Note_on_c, 0, 76, 75
2, 93300, Note_on_c, 0, 65, 96
2, 93330, Note_on_c, 0, 76, 0
2, 93330, Note_on_c, 0, 74, 76
2, 93360, Note_on_c, 0, 74, 0
2, 93360, Note_on_c, 0, 65, 0
2, 93360, Note_on_c, 0, 76, 78
2, 93360, Note_on_c, 0, 55, 96
2, 93390, Note_on_c, 0, 76, 0
2, 93390, Note_on_c, 0, 74, 78
2, 93420, Note_on_c, 0, 74, 0
2, 93420, Note_on_c, 0, 55, 0
2, 93420, Note_on_c, 0, 76, 79
2, 93420, Note_on_c, 0, 65, 96
2, 93450, Note_on_c, 0, 76, 0
2, 93450, Note_on_c, 0, 74, 79
2, 93480, Note_on_c, 0, 74, 0
2, 93480, Note_on_c, 0, 65, 0
2, 93480, Note_on_c, 0, 76, 81
2, 93480, Note_on_c, 0, 59, 96
2, 93510, Note_on_c, 0, 76, 0
2, 93510, Note_on_c, 0, 74, 81
2, 93540, Note_on_c, 0, 74, 0
2, 93540, Note_on_c, 0, 59, 0
2, 93540, Note_on_c, 0, 76, 82
2, 93540, Note_on_c, 0, 65, 96
2, 93570, Note_on_c, 0, 76, 0
2, 93570, Note_on_c, 0, 74, 84
2, 93600, Note_on_c, 0, 74, 0
2, 93600, Note_on_c, 0, 65, 0
2, 93600, Note_on_c, 0, 76, 84
2, 93600, Note_on_c, 0, 55, 96
2, 93630, Note_on_c, 0, 76, 0
2, 93630, Note_on_c, 0, 74, 85
2, 93660, Note_on_c, 0, 74, 0
2, 93660, Note_on_c, 0, 55, 0
2, 93660, Note_on_c, 0, 76, 85
2, 93660, Note_on_c, 0, 65, 96
2, 93690, Note_on_c, 0, 76, 0
2, 93690, Note_on_c, 0, 74, 87
2, 93720, Note_on_c, 0, 74, 0
2, 93720, Note_on_c, 0, 65, 0
2, 93720, Note_on_c, 0, 76, 87
2, 93720, Note_on_c, 0, 59, 96
2, 93750, Note_on_c, 0, 76, 0
2, 93750, Note_on_c, 0, 74, 88
2, 93780, Note_on_c, 0, 74, 0
2, 93780, Note_on_c, 0, 59, 0
2, 93780, Note_on_c, 0, 76, 90
2, 93780, Note_on_c, 0, 65, 96
2, 93810, Note_on_c, 0, 76, 0
2, 93810, Note_on_c, 0, 74, 90
2, 93840, Note_on_c, 0, 74, 0
2, 93840, Note_on_c, 0, 65, 0
2, 93840, Note_on_c, 0, 76, 91
2, 93840, Note_on_c, 0, 55, 96
2, 93870, Note_on_c, 0, 76, 0
2, 93870, Note_on_c, 0, 74, 91
2, 93900, Note_on_c, 0, 74, 0
2, 93900, Note_on_c, 0, 55, 0
2, 93900, Note_on_c, 0, 76, 93
2, 93900, Note_on_c, 0, 65, 96
2, 93930, Note_on_c, 0, 76, 0
2, 93930, Note_on_c, 0, 74, 93
2, 93960, Note_on_c, 0, 74, 0
2, 93960, Note_on_c, 0, 65, 0
2, 93960, Note_on_c, 0, 76, 94
2, 93960, Note_on_c, 0, 59, 96
2, 93990, Note_on_c, 0, 76, 0
2, 93990, Note_on_c, 0, 74, 96
2, 94020, Note_on_c, 0, 74, 0
2, 94020, Note_on_c, 0, 59, 0
2, 94020, Note_on_c, 0, 65, 96
2, 94020, Note_on_c, 0, 72, 96
2, 94050, Note_on_c, 0, 72, 0
2, 94050, Note_on_c, 0, 74, 96
2, 94080, Note_on_c, 0, 74, 0
2, 94080, Note_on_c, 0, 65, 0
2, 94080, Note_on_c, 0, 72, 96
2, 94080, Note_on_c, 0, 60, 96
2, 94080, Note_on_c, 0, 64, 96
2, 94320, Note_on_c, 0, 64, 0
2, 94320, Note_on_c, 0, 60, 0
2, 94320, Note_on_c, 0, 72, 0
2, 94320, Note_on_c, 0, 72, 96
2, 94380, Note_on_c, 0, 72, 0
2, 94380, Note_on_c, 0, 67, 96
2, 94440, Note_on_c, 0, 67, 0
2, 94440, Note_on_c, 0, 72, 96
2, 94500, Note_on_c, 0, 72, 0
2, 94500, Note_on_c, 0, 76, 96
2, 94560, Note_on_c, 0, 76, 0
2, 94560, Note_on_c, 0, 79, 96
2, 94620, Note_on_c, 0, 79, 0
2, 94620, Note_on_c, 0, 76, 96
2, 94680, Note_on_c, 0, 76, 0
2, 94680, Note_on_c, 0, 72, 96
2, 94740, Note_on_c, 0, 72, 0
2, 94740, Note_on_c, 0, 76, 96
2, 94800, Note_on_c, 0, 76, 0
2, 94800, Note_on_c, 0, 55, 96
2, 94800, Note_on_c, 0, 62, 96
2, 94800, Note_on_c, 0, 65, 96
2, 94800, Note_on_c, 0, 77, 96
2, 94860, Note_on_c, 0, 77, 0
2, 94860, Note_on_c, 0, 74, 96
2, 94920, Note_on_c, 0, 74, 0
2, 94920, Note_on_c, 0, 71, 96
2, 94980, Note_on_c, 0, 71, 0
2, 94980, Note_on_c, 0, 74, 96
2, 95040, Note_on_c, 0, 74, 0
2, 95040, Note_on_c, 0, 65, 0
2, 95040, Note_on_c, 0, 62, 0
2, 95040, Note_on_c, 0, 55, 0
2, 95040, Note_on_c, 0, 60, 96
2, 95040, Note_on_c, 0, 72, 96
2, 95040, Note_on_c, 0, 64, 96
2, 95280, Note_on_c, 0, 64, 0
2, 95280, Note_on_c, 0, 72, 0
2, 95280, Note_on_c, 0, 60, 0
2, 95280, Note_on_c, 0, 60, 96
2, 95340, Note_on_c, 0, 60, 0
2, 95340, Note_on_c, 0, 55, 96
2, 95400, Note_on_c, 0, 55, 0
2, 95400, Note_on_c, 0, 60, 96
2, 95460, Note_on_c, 0, 60, 0
2, 95460, Note_on_c, 0, 64, 96
2, 95520, Note_on_c, 0, 64, 0
2, 95520, Note_on_c, 0, 67, 96
2, 95580, Note_on_c, 0, 67, 0
2, 95580, Note_on_c, 0, 64, 96
2, 95640, Note_on_c, 0, 64, 0
2, 95640, Note_on_c, 0, 60, 96
2, 95700, Note_on_c, 0, 60, 0
2, 95700, Note_on_c, 0, 64, 96
2, 95760, Note_on_c, 0, 64, 0
2, 95760, Note_on_c, 0, 43, 96
2, 95760, Note_on_c, 0, 50, 96
2, 95760, Note_on_c, 0, 53, 96
2, 95760, Note_on_c, 0, 65, 96
2, 95820, Note_on_c, 0, 65, 0
2, 95820, Note_on_c, 0, 62, 96
2, 95880, Note_on_c, 0, 62, 0
2, 95880, Note_on_c, 0, 59, 96
2, 95940, Note_on_c, 0, 59, 0
2, 95940, Note_on_c, 0, 62, 96
2, 96000, Note_on_c, 0, 62, 0
2, 96000, Note_on_c, 0, 53, 0
2, 96000, Note_on_c, 0, 50, 0
2, 96000, Note_on_c, 0, 43, 0
2, 96000, Note_on_c, 0, 52, 96
2, 96000, Note_on_c, 0, 48, 96
2, 96000, Note_on_c, 0, 60, 96
2, 96192, Note_on_c, 0, 60, 0
2, 96192, Note_on_c, 0, 48, 0
2, 96192, Note_on_c, 0, 52, 0
2, 96240, Note_on_c, 0, 60, 96
2, 96240, Note_on_c, 0, 48, 96
2, 96240, Note_on_c, 0, 79, 96
2, 96240, Note_on_c, 0, 76, 96
2, 96240, Note_on_c, 0, 84, 96
2, 96432, Note_on_c, 0, 76, 0
2, 96432, Note_on_c, 0, 79, 0
2, 96432, Note_on_c, 0, 60, 0
2, 96432, Note_on_c, 0, 48, 0
2, 96480, Note_on_c, 0, 84, 0
2, 96480, Note_on_c, 0, 48, 96
2, 96480, Note_on_c, 0, 72, 96
2, 96480, Note_on_c, 0, 36, 96
2, 96672, Note_on_c, 0, 72, 0
2, 96672, Note_on_c, 0, 48, 0
2, 96720, Note_on_c, 0, 36, 0
2, 96960, Note_on_c, 0, 67, 96
2, 96960, Note_on_c, 0, 43, 96
2, 96960, Note_on_c, 0, 55, 96
2, 97200, Note_on_c, 0, 55, 0
2, 97200, Note_on_c, 0, 43, 0
2, 97200, Note_on_c, 0, 67, 0
2, 97200, Note_on_c, 0, 79, 96
2, 97260, Note_on_c, 0, 79, 0
2, 97260, Note_on_c, 0, 74, 96
2, 97320, Note_on_c, 0, 74, 0
2, 97320, Note_on_c, 0, 79, 96
2, 97380, Note_on_c, 0, 79, 0
2, 97380, Note_on_c, 0, 82, 96
2, 97440, Note_on_c, 0, 82, 0
2, 97440, Note_on_c, 0, 86, 96
2, 97500, Note_on_c, 0, 86, 0
2, 97500, Note_on_c, 0, 82, 96
2, 97560, Note_on_c, 0, 82, 0
2, 97560, Note_on_c, 0, 79, 96
2, 97620, Note_on_c, 0, 79, 0
2, 97620, Note_on_c, 0, 82, 96
2, 97680, Note_on_c, 0, 82, 0
2, 97680, Note_on_c, 0, 62, 96
2, 97680, Note_on_c, 0, 69, 96
2, 97680, Note_on_c, 0, 72, 96
2, 97680, Note_on_c, 0, 84, 96
2, 97740, Note_on_c, 0, 84, 0
2, 97740, Note_on_c, 0, 81, 96
2, 97800, Note_on_c, 0, 81, 0
2, 97800, Note_on_c, 0, 78, 96
2, 97860, Note_on_c, 0, 78, 0
2, 97860, Note_on_c, 0, 81, 96
2, 97920, Note_on_c, 0, 81, 0
2, 97920, Note_on_c, 0, 72, 0
2, 97920, Note_on_c, 0, 69, 0
2, 97920, Note_on_c, 0, 62, 0
2, 97920, Note_on_c, 0, 67, 96
2, 97920, Note_on_c, 0, 79, 96
2, 97920, Note_on_c, 0, 70, 96
2, 98160, Note_on_c, 0, 70, 0
2, 98160, Note_on_c, 0, 79, 0
2, 98160, Note_on_c, 0, 67, 0
2, 98160, Note_on_c, 0, 67, 96
2, 98220, Note_on_c, 0, 67, 0
2, 98220, Note_on_c, 0, 62, 96
2, 98280, Note_on_c, 0, 62, 0
2, 98280, Note_on_c, 0, 67, 96
2, 98340, Note_on_c, 0, 67, 0
2, 98340, Note_on_c, 0, 70, 96
2, 98400, Note_on_c, 0, 70, 0
2, 98400, Note_on_c, 0, 74, 96
2, 98460, Note_on_c, 0, 74, 0
2, 98460, Note_on_c, 0, 70, 96
2, 98520, Note_on_c, 0, 70, 0
2, 98520, Note_on_c, 0, 67, 96
2, 98580, Note_on_c, 0, 67, 0
2, 98580, Note_on_c, 0, 70, 96
2, 98640, Note_on_c, 0, 70, 0
2, 98640, Note_on_c, 0, 50, 96
2, 98640, Note_on_c, 0, 57, 96
2, 98640, Note_on_c, 0, 60, 96
2, 98640, Note_on_c, 0, 72, 96
2, 98700, Note_on_c, 0, 72, 0
2, 98700, Note_on_c, 0, 69, 96
2, 98760, Note_on_c, 0, 69, 0
2, 98760, Note_on_c, 0, 66, 96
2, 98820, Note_on_c, 0, 66, 0
2, 98820, Note_on_c, 0, 69, 96
2, 98880, Note_on_c, 0, 69, 0
2, 98880, Note_on_c, 0, 60, 0
2, 98880, Note_on_c, 0, 57, 0
2, 98880, Note_on_c, 0, 50, 0
2, 98880, Note_on_c, 0, 67, 96
2, 98940, Note_on_c, 0, 43, 96
2, 99000, Note_on_c, 0, 43, 0
2, 99000, Note_on_c, 0, 45, 96
2, 99060, Note_on_c, 0, 45, 0
2, 99060, Note_on_c, 0, 46, 96
2, 99120, Note_on_c, 0, 46, 0
2, 99120, Note_on_c, 0, 67, 0
2, 99120, Note_on_c, 0, 48, 96
2, 99180, Note_on_c, 0, 48, 0
2, 99180, Note_on_c, 0, 50, 96
2, 99240, Note_on_c, 0, 50, 0
2, 99240, Note_on_c, 0, 52, 96
2, 99300, Note_on_c, 0, 52, 0
2, 99300, Note_on_c, 0, 54, 96
2, 99360, Note_on_c, 0, 54, 0
2, 99360, Note_on_c, 0, 55, 96
2, 99420, Note_on_c, 0, 79, 96
2, 99480, Note_on_c, 0, 79, 0
2, 99480, Note_on_c, 0, 82, 96
2, 99540, Note_on_c, 0, 82, 0
2, 99540, Note_on_c, 0, 81, 96
2, 99600, Note_on_c, 0, 81, 0
2, 99600, Note_on_c, 0, 55, 0
2, 99600, Note_on_c, 0, 79, 96
2, 99660, Note_on_c, 0, 79, 0
2, 99660, Note_on_c, 0, 77, 96
2, 99720, Note_on_c, 0, 77, 0
2, 99720, Note_on_c, 0, 76, 96
2, 99780, Note_on_c, 0, 76, 0
2, 99780, Note_on_c, 0, 74, 96
2, 99840, Note_on_c, 0, 74, 0
2, 99840, Note_on_c, 0, 73, 96
2, 99900, Note_on_c, 0, 45, 96
2, 99960, Note_on_c, 0, 45, 0
2, 99960, Note_on_c, 0, 47, 96
2, 100020, Note_on_c, 0, 47, 0
2, 100020, Note_on_c, 0, 49, 96
2, 100080, Note_on_c, 0, 49, 0
2, 100080, Note_on_c, 0, 73, 0
2, 100080, Note_on_c, 0, 50, 96
2, 100140, Note_on_c, 0, 50, 0
2, 100140, Note_on_c, 0, 52, 96
2, 100200, Note_on_c, 0, 52, 0
2, 100200, Note_on_c, 0, 54, 96
2, 100260, Note_on_c, 0, 54, 0
2, 100260, Note_on_c, 0, 56, 96
2, 100320, Note_on_c, 0, 56, 0
2, 100320, Note_on_c, 0, 57, 96
2, 100380, Note_on_c, 0, 85, 96
2, 100440, Note_on_c, 0, 85, 0
2, 100440, Note_on_c, 0, 88, 96
2, 100500, Note_on_c, 0, 88, 0
2, 100500, Note_on_c, 0, 86, 96
2, 100560, Note_on_c, 0, 86, 0
2, 100560, Note_on_c, 0, 57, 0
2, 100560, Note_on_c, 0, 85, 96
2, 100620, Note_on_c, 0, 85, 0
2, 100620, Note_on_c, 0, 82, 96
2, 100680, Note_on_c, 0, 82, 0
2, 100680, Note_on_c, 0, 81, 96
2, 100740, Note_on_c, 0, 81, 0
2, 100740, Note_on_c, 0, 79, 96
2, 100800, Note_on_c, 0, 79, 0
2, 100800, Note_on_c, 0, 77, 96
2, 100800, Note_on_c, 0, 38, 96
2, 100800, Note_on_c, 0, 50, 96
2, 101040, Note_on_c, 0, 50, 0
2, 101040, Note_on_c, 0, 38, 0
2, 101040, Note_on_c, 0, 77, 0
2, 101040, Note_on_c, 0, 74, 96
2, 101100, Note_on_c, 0, 74, 0
2, 101100, Note_on_c, 0, 69, 96
2, 101160, Note_on_c, 0, 69, 0
2, 101160, Note_on_c, 0, 74, 96
2, 101220, Note_on_c, 0, 74, 0
2, 101220, Note_on_c, 0, 77, 96
2, 101280, Note_on_c, 0, 77, 0
2, 101280, Note_on_c, 0, 81, 96
2, 101340, Note_on_c, 0, 81, 0
2, 101340, Note_on_c, 0, 77, 96
2, 101400, Note_on_c, 0, 77, 0
2, 101400, Note_on_c, 0, 74, 96
2, 101460, Note_on_c, 0, 74, 0
2, 101460, Note_on_c, 0, 77, 96
2, 101520, Note_on_c, 0, 77, 0
2, 101520, Note_on_c, 0, 57, 96
2, 101520, Note_on_c, 0, 64, 96
2, 101520, Note_on_c, 0, 67, 96
2, 101520, Note_on_c, 0, 79, 96
2, 101580, Note_on_c, 0, 79, 0
2, 101580, Note_on_c, 0, 76, 96
2, 101640, Note_on_c, 0, 76, 0
2, 101640, Note_on_c, 0, 73, 96
2, 101700, Note_on_c, 0, 73, 0
2, 101700, Note_on_c, 0, 76, 96
2, 101760, Note_on_c, 0, 76, 0
2, 101760, Note_on_c, 0, 67, 0
2, 101760, Note_on_c, 0, 64, 0
2, 101760, Note_on_c, 0, 57, 0
2, 101760, Note_on_c, 0, 62, 96
2, 101760, Note_on_c, 0, 74, 96
2, 101760, Note_on_c, 0, 65, 96
2, 102000, Note_on_c, 0, 65, 0
2, 102000, Note_on_c, 0, 74, 0
2, 102000, Note_on_c, 0, 62, 0
2, 102000, Note_on_c, 0, 62, 96
2, 102060, Note_on_c, 0, 62, 0
2, 102060, Note_on_c, 0, 57, 96
2, 102120, Note_on_c, 0, 57, 0
2, 102120, Note_on_c, 0, 62, 96
2, 102180, Note_on_c, 0, 62, 0
2, 102180, Note_on_c, 0, 65, 96
2, 102240, Note_on_c, 0, 65, 0
2, 102240, Note_on_c, 0, 69, 96
2, 102300, Note_on_c, 0, 69, 0
2, 102300, Note_on_c, 0, 65, 96
2, 102360, Note_on_c, 0, 65, 0
2, 102360, Note_on_c, 0, 62, 96
2, 102420, Note_on_c, 0, 62, 0
2, 102420, Note_on_c, 0, 65, 96
2, 102480, Note_on_c, 0, 65, 0
2, 102480, Note_on_c, 0, 45, 96
2, 102480, Note_on_c, 0, 52, 96
2, 102480, Note_on_c, 0, 55, 96
2, 102480, Note_on_c, 0, 67, 96
2, 102540, Note_on_c, 0, 67, 0
2, 102540, Note_on_c, 0, 64, 96
2, 102600, Note_on_c, 0, 64, 0
2, 102600, Note_on_c, 0, 61, 96
2, 102660, Note_on_c, 0, 61, 0
2, 102660, Note_on_c, 0, 64, 96
2, 102720, Note_on_c, 0, 64, 0
2, 102720, Note_on_c, 0, 55, 0
2, 102720, Note_on_c, 0, 52, 0
2, 102720, Note_on_c, 0, 45, 0
2, 102720, Note_on_c, 0, 50, 96
2, 102720, Note_on_c, 0, 53, 96
2, 102780, Note_on_c, 0, 62, 96
2, 102840, Note_on_c, 0, 62, 0
2, 102840, Note_on_c, 0, 64, 96
2, 102900, Note_on_c, 0, 64, 0
2, 102900, Note_on_c, 0, 65, 96
2, 102960, Note_on_c, 0, 65, 0
2, 102960, Note_on_c, 0, 53, 0
2, 102960, Note_on_c, 0, 50, 0
2, 102960, Note_on_c, 0, 67, 96
2, 103020, Note_on_c, 0, 67, 0
2, 103020, Note_on_c, 0, 69, 96
2, 103080, Note_on_c, 0, 69, 0
2, 103080, Note_on_c, 0, 71, 96
2, 103140, Note_on_c, 0, 71, 0
2, 103140, Note_on_c, 0, 73, 96
2, 103200, Note_on_c, 0, 73, 0
2, 103200, Note_on_c, 0, 74, 96
2, 103260, Note_on_c, 0, 62, 96
2, 103320, Note_on_c, 0, 62, 0
2, 103320, Note_on_c, 0, 65, 96
2, 103380, Note_on_c, 0, 65, 0
2, 103380, Note_on_c, 0, 64, 96
2, 103440, Note_on_c, 0, 64, 0
2, 103440, Note_on_c, 0, 74, 0
2, 103440, Note_on_c, 0, 62, 96
2, 103500, Note_on_c, 0, 62, 0
2, 103500, Note_on_c, 0, 60, 96
2, 103560, Note_on_c, 0, 60, 0
2, 103560, Note_on_c, 0, 59, 96
2, 103620, Note_on_c, 0, 59, 0
2, 103620, Note_on_c, 0, 57, 96
2, 103680, Note_on_c, 0, 57, 0
2, 103680, Note_on_c, 0, 56, 96
2, 103740, Note_on_c, 0, 71, 96
2, 103800, Note_on_c, 0, 71, 0
2, 103800, Note_on_c, 0, 72, 96
2, 103860, Note_on_c, 0, 72, 0
2, 103860, Note_on_c, 0, 74, 96
2, 103920, Note_on_c, 0, 74, 0
2, 103920, Note_on_c, 0, 56, 0
2, 103920, Note_on_c, 0, 76, 96
2, 103980, Note_on_c, 0, 76, 0
2, 103980, Note_on_c, 0, 78, 96
2, 104040, Note_on_c, 0, 78, 0
2, 104040, Note_on_c, 0, 80, 96
2, 104100, Note_on_c, 0, 80, 0
2, 104100, Note_on_c, 0, 81, 96
2, 104160, Note_on_c, 0, 81, 0
2, 104160, Note_on_c, 0, 83, 96
2, 104220, Note_on_c, 0, 56, 96
2, 104280, Note_on_c, 0, 56, 0
2, 104280, Note_on_c, 0, 59, 96
2, 104340, Note_on_c, 0, 59, 0
2, 104340, Note_on_c, 0, 57, 96
2, 104400, Note_on_c, 0, 57, 0
2, 104400, Note_on_c, 0, 83, 0
2, 104400, Note_on_c, 0, 56, 96
2, 104460, Note_on_c, 0, 56, 0
2, 104460, Note_on_c, 0, 53, 96
2, 104520, Note_on_c, 0, 53, 0
2, 104520, Note_on_c, 0, 52, 96
2, 104580, Note_on_c, 0, 52, 0
2, 104580, Note_on_c, 0, 50, 96
2, 104640, Note_on_c, 0, 50, 0
2, 104640, Note_on_c, 0, 48, 96
2, 104700, Note_on_c, 0, 81, 96
2, 104760, Note_on_c, 0, 81, 0
2, 104760, Note_on_c, 0, 88, 96
2, 104820, Note_on_c, 0, 88, 0
2, 104820, Note_on_c, 0, 86, 96
2, 104880, Note_on_c, 0, 86, 0
2, 104880, Note_on_c, 0, 48, 0
2, 104880, Note_on_c, 0, 84, 96
2, 104940, Note_on_c, 0, 84, 0
2, 104940, Note_on_c, 0, 83, 96
2, 105000, Note_on_c, 0, 83, 0
2, 105000, Note_on_c, 0, 81, 96
2, 105060, Note_on_c, 0, 81, 0
2, 105060, Note_on_c, 0, 79, 96
2, 105120, Note_on_c, 0, 79, 0
2, 105120, Note_on_c, 0, 77, 96
2, 105180, Note_on_c, 0, 62, 96
2, 105240, Note_on_c, 0, 62, 0
2, 105240, Note_on_c, 0, 69, 96
2, 105300, Note_on_c, 0, 69, 0
2, 105300, Note_on_c, 0, 67, 96
2, 105360, Note_on_c, 0, 67, 0
2, 105360, Note_on_c, 0, 77, 0
2, 105360, Note_on_c, 0, 65, 96
2, 105420, Note_on_c, 0, 65, 0
2, 105420, Note_on_c, 0, 64, 96
2, 105480, Note_on_c, 0, 64, 0
2, 105480, Note_on_c, 0, 62, 96
2, 105540, Note_on_c, 0, 62, 0
2, 105540, Note_on_c, 0, 60, 96
2, 105600, Note_on_c, 0, 60, 0
2, 105600, Note_on_c, 0, 59, 96
2, 105660, Note_on_c, 0, 79, 96
2, 105720, Note_on_c, 0, 79, 0
2, 105720, Note_on_c, 0, 86, 96
2, 105780, Note_on_c, 0, 86, 0
2, 105780, Note_on_c, 0, 84, 96
2, 105840, Note_on_c, 0, 84, 0
2, 105840, Note_on_c, 0, 59, 0
2, 105840, Note_on_c, 0, 83, 96
2, 105900, Note_on_c, 0, 83, 0
2, 105900, Note_on_c, 0, 81, 96
2, 105960, Note_on_c, 0, 81, 0
2, 105960, Note_on_c, 0, 79, 96
2, 106020, Note_on_c, 0, 79, 0
2, 106020, Note_on_c, 0, 77, 96
2, 106080, Note_on_c, 0, 77, 0
2, 106080, Note_on_c, 0, 76, 96
2, 106140, Note_on_c, 0, 60, 96
2, 106200, Note_on_c, 0, 60, 0
2, 106200, Note_on_c, 0, 67, 96
2, 106260, Note_on_c, 0, 67, 0
2, 106260, Note_on_c, 0, 65, 96
2, 106320, Note_on_c, 0, 65, 0
2, 106320, Note_on_c, 0, 76, 0
2, 106320, Note_on_c, 0, 64, 96
2, 106380, Note_on_c, 0, 64, 0
2, 106380, Note_on_c, 0, 62, 96
2, 106440, Note_on_c, 0, 62, 0
2, 106440, Note_on_c, 0, 60, 96
2, 106500, Note_on_c, 0, 60, 0
2, 106500, Note_on_c, 0, 59, 96
2, 106560, Note_on_c, 0, 59, 0
2, 106560, Note_on_c, 0, 57, 96
2, 106620, Note_on_c, 0, 77, 96
2, 106680, Note_on_c, 0, 77, 0
2, 106680, Note_on_c, 0, 84, 96
2, 106740, Note_on_c, 0, 84, 0
2, 106740, Note_on_c, 0, 83, 96
2, 106800, Note_on_c, 0, 83, 0
2, 106800, Note_on_c, 0, 57, 0
2, 106800, Note_on_c, 0, 81, 96
2, 106860, Note_on_c, 0, 81, 0
2, 106860, Note_on_c, 0, 79, 96
2, 106920, Note_on_c, 0, 79, 0
2, 106920, Note_on_c, 0, 77, 96
2, 106980, Note_on_c, 0, 77, 0
2, 106980, Note_on_c, 0, 76, 96
2, 107040, Note_on_c, 0, 76, 0
2, 107040, Note_on_c, 0, 74, 96
2, 107100, Note_on_c, 0, 59, 96
2, 107160, Note_on_c, 0, 59, 0
2, 107160, Note_on_c, 0, 65, 96
2, 107220, Note_on_c, 0, 65, 0
2, 107220, Note_on_c, 0, 64, 96
2, 107280, Note_on_c, 0, 64, 0
2, 107280, Note_on_c, 0, 74, 0
2, 107280, Note_on_c, 0, 62, 96
2, 107340, Note_on_c, 0, 62, 0
2, 107340, Note_on_c, 0, 60, 96
2, 107400, Note_on_c, 0, 60, 0
2, 107400, Note_on_c, 0, 59, 96
2, 107460, Note_on_c, 0, 59, 0
2, 107460, Note_on_c, 0, 57, 96
2, 107520, Note_on_c, 0, 57, 0
2, 107520, Note_on_c, 0, 56, 96
2, 107580, Note_on_c, 0, 76, 96
2, 107640, Note_on_c, 0, 76, 0
2, 107640, Note_on_c, 0, 83, 96
2, 107700, Note_on_c, 0, 83, 0
2, 107700, Note_on_c, 0, 81, 96
2, 107760, Note_on_c, 0, 81, 0
2, 107760, Note_on_c, 0, 56, 0
2, 107760, Note_on_c, 0, 80, 96
2, 107820, Note_on_c, 0, 80, 0
2, 107820, Note_on_c, 0, 77, 96
2, 107880, Note_on_c, 0, 77, 0
2, 107880, Note_on_c, 0, 76, 96
2, 107940, Note_on_c, 0, 76, 0
2, 107940, Note_on_c, 0, 74, 96
2, 108000, Note_on_c, 0, 74, 0
2, 108000, Note_on_c, 0, 72, 96
2, 108060, Note_on_c, 0, 57, 96
2, 108120, Note_on_c, 0, 57, 0
2, 108120, Note_on_c, 0, 60, 96
2, 108180, Note_on_c, 0, 60, 0
2, 108180, Note_on_c, 0, 59, 96
2, 108240, Note_on_c, 0, 59, 0
2, 108240, Note_on_c, 0, 72, 0
2, 108240, Note_on_c, 0, 57, 96
2, 108300, Note_on_c, 0, 57, 0
2, 108300, Note_on_c, 0, 55, 96
2, 108360, Note_on_c, 0, 55, 0
2, 108360, Note_on_c, 0, 53, 96
2, 108420, Note_on_c, 0, 53, 0
2, 108420, Note_on_c, 0, 52, 96
2, 108480, Note_on_c, 0, 52, 0
2, 108480, Note_on_c, 0, 50, 96
2, 108540, Note_on_c, 0, 70, 96
2, 108600, Note_on_c, 0, 70, 0
2, 108600, Note_on_c, 0, 74, 96
2, 108660, Note_on_c, 0, 74, 0
2, 108660, Note_on_c, 0, 72, 96
2, 108720, Note_on_c, 0, 72, 0
2, 108720, Note_on_c, 0, 70, 96
2, 108780, Note_on_c, 0, 70, 0
2, 108780, Note_on_c, 0, 69, 96
2, 108840, Note_on_c, 0, 69, 0
2, 108840, Note_on_c, 0, 67, 96
2, 108900, Note_on_c, 0, 67, 0
2, 108900, Note_on_c, 0, 65, 96
2, 108960, Note_on_c, 0, 65, 0
2, 108960, Note_on_c, 0, 50, 0
2, 108960, Note_on_c, 0, 48, 96
2, 108960, Note_on_c, 0, 55, 96
2, 108960, Note_on_c, 0, 58, 96
2, 108960, Note_on_c, 0, 64, 96
2, 109020, Note_on_c, 0, 64, 0
2, 109020, Note_on_c, 0, 65, 96
2, 109080, Note_on_c, 0, 65, 0
2, 109080, Note_on_c, 0, 67, 96
2, 109140, Note_on_c, 0, 67, 0
2, 109140, Note_on_c, 0, 69, 96
2, 109200, Note_on_c, 0, 69, 0
2, 109200, Note_on_c, 0, 70, 96
2, 109260, Note_on_c, 0, 70, 0
2, 109260, Note_on_c, 0, 72, 96
2, 109320, Note_on_c, 0, 72, 0
2, 109320, Note_on_c, 0, 74, 96
2, 109380, Note_on_c, 0, 74, 0
2, 109380, Note_on_c, 0, 76, 96
2, 109440, Note_on_c, 0, 76, 0
2, 109440, Note_on_c, 0, 58, 0
2, 109440, Note_on_c, 0, 55, 0
2, 109440, Note_on_c, 0, 48, 0
2, 109440, Note_on_c, 0, 77, 96
2, 109440, Note_on_c, 0, 65, 96
2, 109560, Note_on_c, 0, 65, 0
2, 109560, Note_on_c, 0, 72, 96
2, 109680, Note_on_c, 0, 72, 0
2, 109680, Note_on_c, 0, 69, 96
2, 109800, Note_on_c, 0, 69, 0
2, 109800, Note_on_c, 0, 72, 96
2, 109920, Note_on_c, 0, 72, 0
2, 109920, Note_on_c, 0, 77, 0
2, 109920, Note_on_c, 0, 81, 96
2, 109920, Note_on_c, 0, 65, 96
2, 110040, Note_on_c, 0, 65, 0
2, 110040, Note_on_c, 0, 72, 96
2, 110160, Note_on_c, 0, 72, 0
2, 110160, Note_on_c, 0, 81, 0
2, 110160, Note_on_c, 0, 84, 96
2, 110160, Note_on_c, 0, 69, 96
2, 110280, Note_on_c, 0, 69, 0
2, 110280, Note_on_c, 0, 72, 96
2, 110400, Note_on_c, 0, 72, 0
2, 110400, Note_on_c, 0, 84, 0
2, 110400, Note_on_c, 0, 76, 96
2, 110400, Note_on_c, 0, 67, 96
2, 110520, Note_on_c, 0, 67, 0
2, 110520, Note_on_c, 0, 72, 96
2, 110640, Note_on_c, 0, 72, 0
2, 110640, Note_on_c, 0, 70, 96
2, 110760, Note_on_c, 0, 70, 0
2, 110760, Note_on_c, 0, 76, 0
2, 110760, Note_on_c, 0, 77, 96
2, 110760, Note_on_c, 0, 72, 96
2, 110820, Note_on_c, 0, 77, 0
2, 110820, Note_on_c, 0, 79, 96
2, 110880, Note_on_c, 0, 79, 0
2, 110880, Note_on_c, 0, 72, 0
2, 110880, Note_on_c, 0, 77, 96
2, 110880, Note_on_c, 0, 65, 96
2, 111000, Note_on_c, 0, 65, 0
2, 111000, Note_on_c, 0, 72, 96
2, 111120, Note_on_c, 0, 72, 0
2, 111120, Note_on_c, 0, 69, 96
2, 111240, Note_on_c, 0, 69, 0
2, 111240, Note_on_c, 0, 72, 96
2, 111360, Note_on_c, 0, 72, 0
2, 111360, Note_on_c, 0, 77, 0
2, 111360, Note_on_c, 0, 86, 96
2, 111360, Note_on_c, 0, 65, 96
2, 111480, Note_on_c, 0, 65, 0
2, 111480, Note_on_c, 0, 74, 96
2, 111600, Note_on_c, 0, 74, 0
2, 111600, Note_on_c, 0, 70, 96
2, 111720, Note_on_c, 0, 70, 0
2, 111720, Note_on_c, 0, 74, 96
2, 111840, Note_on_c, 0, 74, 0
2, 111840, Note_on_c, 0, 86, 0
2, 111840, Note_on_c, 0, 84, 96
2, 111840, Note_on_c, 0, 65, 96
2, 111960, Note_on_c, 0, 65, 0
2, 111960, Note_on_c, 0, 72, 96
2, 112080, Note_on_c, 0, 72, 0
2, 112080, Note_on_c, 0, 84, 0
2, 112080, Note_on_c, 0, 89, 96
2, 112080, Note_on_c, 0, 69, 96
2, 112200, Note_on_c, 0, 69, 0
2, 112200, Note_on_c, 0, 72, 96
2, 112320, Note_on_c, 0, 72, 0
2, 112320, Note_on_c, 0, 89, 0
2, 112320, Note_on_c, 0, 84, 96
2, 112320, Note_on_c, 0, 64, 96
2, 112440, Note_on_c, 0, 64, 0
2, 112440, Note_on_c, 0, 72, 96
2, 112560, Note_on_c, 0, 72, 0
2, 112560, Note_on_c, 0, 84, 0
2, 112560, Note_on_c, 0, 82, 96
2, 112560, Note_on_c, 0, 67, 96
2, 112599, Note_on_c, 0, 82, 0
2, 112599, Note_on_c, 0, 84, 96
2, 112639, Note_on_c, 0, 84, 0
2, 112639, Note_on_c, 0, 82, 96
2, 112679, Note_on_c, 0, 82, 0
2, 112680, Note_on_c, 0, 67, 0
2, 112680, Note_on_c, 0, 81, 96
2, 112680, Note_on_c, 0, 72, 96
2, 112740, Note_on_c, 0, 81, 0
2, 112740, Note_on_c, 0, 82, 96
2, 112800, Note_on_c, 0, 82, 0
2, 112800, Note_on_c, 0, 72, 0
2, 112800, Note_on_c, 0, 81, 96
2, 112800, Note_on_c, 0, 65, 96
2, 112920, Note_on_c, 0, 65, 0
2, 112920, Note_on_c, 0, 72, 96
2, 113040, Note_on_c, 0, 72, 0
2, 113040, Note_on_c, 0, 81, 0
2, 113040, Note_on_c, 0, 69, 96
2, 113160, Note_on_c, 0, 69, 0
2, 113160, Note_on_c, 0, 72, 96
2, 113280, Note_on_c, 0, 72, 0
2, 113280, Note_on_c, 0, 74, 96
2, 113280, Note_on_c, 0, 70, 96
2, 113400, Note_on_c, 0, 74, 0
2, 113400, Note_on_c, 0, 76, 96
2, 113460, Note_on_c, 0, 76, 0
2, 113460, Note_on_c, 0, 77, 96
2, 113520, Note_on_c, 0, 77, 0
2, 113520, Note_on_c, 0, 70, 0
2, 113520, Note_on_c, 0, 79, 96
2, 113580, Note_on_c, 0, 79, 0
2, 113580, Note_on_c, 0, 81, 96
2, 113640, Note_on_c, 0, 81, 0
2, 113640, Note_on_c, 0, 82, 96
2, 113700, Note_on_c, 0, 82, 0
2, 113700, Note_on_c, 0, 84, 96
2, 113760, Note_on_c, 0, 84, 0
2, 113760, Note_on_c, 0, 86, 96
2, 113820, Note_on_c, 0, 86, 0
2, 113820, Note_on_c, 0, 84, 96
2, 113880, Note_on_c, 0, 84, 0
2, 113880, Note_on_c, 0, 82, 96
2, 113940, Note_on_c, 0, 82, 0
2, 113940, Note_on_c, 0, 81, 96
2, 114000, Note_on_c, 0, 81, 0
2, 114000, Note_on_c, 0, 58, 96
2, 114000, Note_on_c, 0, 65, 96
2, 114000, Note_on_c, 0, 79, 96
2, 114060, Note_on_c, 0, 79, 0
2, 114060, Note_on_c, 0, 77, 96
2, 114120, Note_on_c, 0, 77, 0
2, 114120, Note_on_c, 0, 76, 96
2, 114180, Note_on_c, 0, 76, 0
2, 114180, Note_on_c, 0, 74, 96
2, 114240, Note_on_c, 0, 74, 0
2, 114240, Note_on_c, 0, 65, 0
2, 114240, Note_on_c, 0, 58, 0
2, 114240, Note_on_c, 0, 72, 96
2, 114240, Note_on_c, 0, 57, 96
2, 114240, Note_on_c, 0, 65, 96
2, 114360, Note_on_c, 0, 72, 0
2, 114360, Note_on_c, 0, 74, 96
2, 114420, Note_on_c, 0, 74, 0
2, 114420, Note_on_c, 0, 76, 96
2, 114480, Note_on_c, 0, 76, 0
2, 114480, Note_on_c, 0, 65, 0
2, 114480, Note_on_c, 0, 57, 0
2, 114480, Note_on_c, 0, 77, 96
2, 114540, Note_on_c, 0, 77, 0
2, 114540, Note_on_c, 0, 79, 96
2, 114600, Note_on_c, 0, 79, 0
2, 114600, Note_on_c, 0, 81, 96
2, 114660, Note_on_c, 0, 81, 0
2, 114660, Note_on_c, 0, 82, 96
2, 114720, Note_on_c, 0, 82, 0
2, 114720, Note_on_c, 0, 84, 96
2, 114780, Note_on_c, 0, 84, 0
2, 114780, Note_on_c, 0, 82, 96
2, 114840, Note_on_c, 0, 82, 0
2, 114840, Note_on_c, 0, 81, 96
2, 114900, Note_on_c, 0, 81, 0
2, 114900, Note_on_c, 0, 79, 96
2, 114960, Note_on_c, 0, 79, 0
2, 114960, Note_on_c, 0, 57, 96
2, 114960, Note_on_c, 0, 65, 96
2, 114960, Note_on_c, 0, 77, 96
2, 115020, Note_on_c, 0, 77, 0
2, 115020, Note_on_c, 0, 76, 96
2, 115080, Note_on_c, 0, 76, 0
2, 115080, Note_on_c, 0, 74, 96
2, 115140, Note_on_c, 0, 74, 0
2, 115140, Note_on_c, 0, 72, 96
2, 115200, Note_on_c, 0, 72, 0
2, 115200, Note_on_c, 0, 65, 0
2, 115200, Note_on_c, 0, 57, 0
2, 115200, Note_on_c, 0, 70, 96
2, 115200, Note_on_c, 0, 55, 96
2, 115200, Note_on_c, 0, 65, 96
2, 115320, Note_on_c, 0, 70, 0
2, 115320, Note_on_c, 0, 72, 96
2, 115380, Note_on_c, 0, 72, 0
2, 115380, Note_on_c, 0, 74, 96
2, 115440, Note_on_c, 0, 74, 0
2, 115440, Note_on_c, 0, 65, 0
2, 115440, Note_on_c, 0, 55, 0
2, 115440, Note_on_c, 0, 76, 96
2, 115500, Note_on_c, 0, 76, 0
2, 115500, Note_on_c, 0, 77, 96
2, 115560, Note_on_c, 0, 77, 0
2, 115560, Note_on_c, 0, 79, 96
2, 115620, Note_on_c, 0, 79, 0
2, 115620, Note_on_c, 0, 81, 96
2, 115680, Note_on_c, 0, 81, 0
2, 115680, Note_on_c, 0, 82, 96
2, 115740, Note_on_c, 0, 82, 0
2, 115740, Note_on_c, 0, 81, 96
2, 115800, Note_on_c, 0, 81, 0
2, 115800, Note_on_c, 0, 79, 96
2, 115860, Note_on_c, 0, 79, 0
2, 115860, Note_on_c, 0, 77, 96
2, 115920, Note_on_c, 0, 77, 0
2, 115920, Note_on_c, 0, 55, 96
2, 115920, Note_on_c, 0, 64, 96
2, 115920, Note_on_c, 0, 76, 96
2, 115980, Note_on_c, 0, 76, 0
2, 115980, Note_on_c, 0, 74, 96
2, 116040, Note_on_c, 0, 74, 0
2, 116040, Note_on_c, 0, 72, 96
2, 116100, Note_on_c, 0, 72, 0
2, 116100, Note_on_c, 0, 70, 96
2, 116160, Note_on_c, 0, 70, 0
2, 116160, Note_on_c, 0, 64, 0
2, 116160, Note_on_c, 0, 55, 0
2, 116160, Note_on_c, 0, 69, 96
2, 116160, Note_on_c, 0, 53, 96
2, 116160, Note_on_c, 0, 65, 96
2, 116280, Note_on_c, 0, 69, 0
2, 116280, Note_on_c, 0, 70, 96
2, 116340, Note_on_c, 0, 70, 0
2, 116340, Note_on_c, 0, 72, 96
2, 116400, Note_on_c, 0, 72, 0
2, 116400, Note_on_c, 0, 65, 0
2, 116400, Note_on_c, 0, 53, 0
2, 116400, Note_on_c, 0, 74, 96
2, 116460, Note_on_c, 0, 74, 0
2, 116460, Note_on_c, 0, 76, 96
2, 116520, Note_on_c, 0, 76, 0
2, 116520, Note_on_c, 0, 77, 96
2, 116580, Note_on_c, 0, 77, 0
2, 116580, Note_on_c, 0, 79, 96
2, 116640, Note_on_c, 0, 79, 0
2, 116640, Note_on_c, 0, 81, 96
2, 116700, Note_on_c, 0, 81, 0
2, 116700, Note_on_c, 0, 79, 96
2, 116760, Note_on_c, 0, 79, 0
2, 116760, Note_on_c, 0, 77, 96
2, 116820, Note_on_c, 0, 77, 0
2, 116820, Note_on_c, 0, 76, 96
2, 116880, Note_on_c, 0, 76, 0
2, 116880, Note_on_c, 0, 74, 96
2, 116940, Note_on_c, 0, 74, 0
2, 116940, Note_on_c, 0, 72, 96
2, 117000, Note_on_c, 0, 72, 0
2, 117000, Note_on_c, 0, 70, 96
2, 117060, Note_on_c, 0, 70, 0
2, 117060, Note_on_c, 0, 69, 96
2, 117120, Note_on_c, 0, 69, 0
2, 117120, Note_on_c, 0, 81, 96
2, 117120, Note_on_c, 0, 53, 96
2, 117240, Note_on_c, 0, 53, 0
2, 117240, Note_on_c, 0, 55, 96
2, 117300, Note_on_c, 0, 55, 0
2, 117300, Note_on_c, 0, 57, 96
2, 117360, Note_on_c, 0, 57, 0
2, 117360, Note_on_c, 0, 81, 0
2, 117360, Note_on_c, 0, 58, 96
2, 117420, Note_on_c, 0, 58, 0
2, 117420, Note_on_c, 0, 60, 96
2, 117480, Note_on_c, 0, 60, 0
2, 117480, Note_on_c, 0, 62, 96
2, 117540, Note_on_c, 0, 62, 0
2, 117540, Note_on_c, 0, 64, 96
2, 117600, Note_on_c, 0, 64, 0
2, 117600, Note_on_c, 0, 65, 96
2, 117660, Note_on_c, 0, 65, 0
2, 117660, Note_on_c, 0, 64, 96
2, 117720, Note_on_c, 0, 64, 0
2, 117720, Note_on_c, 0, 62, 96
2, 117780, Note_on_c, 0, 62, 0
2, 117780, Note_on_c, 0, 60, 96
2, 117840, Note_on_c, 0, 60, 0
2, 117840, Note_on_c, 0, 72, 96
2, 117840, Note_on_c, 0, 81, 96
2, 117840, Note_on_c, 0, 58, 96
2, 117900, Note_on_c, 0, 58, 0
2, 117900, Note_on_c, 0, 57, 96
2, 117960, Note_on_c, 0, 57, 0
2, 117960, Note_on_c, 0, 55, 96
2, 118020, Note_on_c, 0, 55, 0
2, 118020, Note_on_c, 0, 53, 96
2, 118080, Note_on_c, 0, 53, 0
2, 118080, Note_on_c, 0, 81, 0
2, 118080, Note_on_c, 0, 72, 0
2, 118080, Note_on_c, 0, 72, 96
2, 118080, Note_on_c, 0, 79, 96
2, 118080, Note_on_c, 0, 52, 96
2, 118200, Note_on_c, 0, 52, 0
2, 118200, Note_on_c, 0, 53, 96
2, 118260, Note_on_c, 0, 53, 0
2, 118260, Note_on_c, 0, 55, 96
2, 118320, Note_on_c, 0, 55, 0
2, 118320, Note_on_c, 0, 79, 0
2, 118320, Note_on_c, 0, 72, 0
2, 118320, Note_on_c, 0, 57, 96
2, 118380, Note_on_c, 0, 57, 0
2, 118380, Note_on_c, 0, 59, 96
2, 118440, Note_on_c, 0, 59, 0
2, 118440, Note_on_c, 0, 60, 96
2, 118500, Note_on_c, 0, 60, 0
2, 118500, Note_on_c, 0, 62, 96
2, 118560, Note_on_c, 0, 62, 0
2, 118560, Note_on_c, 0, 64, 96
2, 118620, Note_on_c, 0, 64, 0
2, 118620, Note_on_c, 0, 62, 96
2, 118680, Note_on_c, 0, 62, 0
2, 118680, Note_on_c, 0, 60, 96
2, 118740, Note_on_c, 0, 60, 0
2, 118740, Note_on_c, 0, 59, 96
2, 118800, Note_on_c, 0, 59, 0
2, 118800, Note_on_c, 0, 72, 96
2, 118800, Note_on_c, 0, 79, 96
2, 118800, Note_on_c, 0, 57, 96
2, 118860, Note_on_c, 0, 57, 0
2, 118860, Note_on_c, 0, 55, 96
2, 118920, Note_on_c, 0, 55, 0
2, 118920, Note_on_c, 0, 53, 96
2, 118980, Note_on_c, 0, 53, 0
2, 118980, Note_on_c, 0, 52, 96
2, 119040, Note_on_c, 0, 52, 0
2, 119040, Note_on_c, 0, 79, 0
2, 119040, Note_on_c, 0, 72, 0
2, 119040, Note_on_c, 0, 72, 96
2, 119040, Note_on_c, 0, 77, 96
2, 119040, Note_on_c, 0, 50, 96
2, 119160, Note_on_c, 0, 50, 0
2, 119160, Note_on_c, 0, 52, 96
2, 119220, Note_on_c, 0, 52, 0
2, 119220, Note_on_c, 0, 53, 96
2, 119280, Note_on_c, 0, 53, 0
2, 119280, Note_on_c, 0, 77, 0
2, 119280, Note_on_c, 0, 72, 0
2, 119280, Note_on_c, 0, 55, 96
2, 119340, Note_on_c, 0, 55, 0
2, 119340, Note_on_c, 0, 57, 96
2, 119400, Note_on_c, 0, 57, 0
2, 119400, Note_on_c, 0, 59, 96
2, 119460, Note_on_c, 0, 59, 0
2, 119460, Note_on_c, 0, 60, 96
2, 119520, Note_on_c, 0, 60, 0
2, 119520, Note_on_c, 0, 62, 96
2, 119580, Note_on_c, 0, 62, 0
2, 119580, Note_on_c, 0, 60, 96
2, 119640, Note_on_c, 0, 60, 0
2, 119640, Note_on_c, 0, 59, 96
2, 119700, Note_on_c, 0, 59, 0
2, 119700, Note_on_c, 0, 57, 96
2, 119760, Note_on_c, 0, 57, 0
2, 119760, Note_on_c, 0, 71, 96
2, 119760, Note_on_c, 0, 77, 96
2, 119760, Note_on_c, 0, 55, 96
2, 119820, Note_on_c, 0, 55, 0
2, 119820, Note_on_c, 0, 53, 96
2, 119880, Note_on_c, 0, 53, 0
2, 119880, Note_on_c, 0, 52, 96
2, 119940, Note_on_c, 0, 52, 0
2, 119940, Note_on_c, 0, 50, 96
2, 120000, Note_on_c, 0, 50, 0
2, 120000, Note_on_c, 0, 77, 0
2, 120000, Note_on_c, 0, 71, 0
2, 120000, Note_on_c, 0, 72, 96
2, 120000, Note_on_c, 0, 76, 96
2, 120000, Note_on_c, 0, 48, 96
2, 120120, Note_on_c, 0, 48, 0
2, 120120, Note_on_c, 0, 50, 96
2, 120180, Note_on_c, 0, 50, 0
2, 120180, Note_on_c, 0, 52, 96
2, 120240, Note_on_c, 0, 52, 0
2, 120240, Note_on_c, 0, 76, 0
2, 120240, Note_on_c, 0, 72, 0
2, 120240, Note_on_c, 0, 53, 96
2, 120300, Note_on_c, 0, 53, 0
2, 120300, Note_on_c, 0, 55, 96
2, 120360, Note_on_c, 0, 55, 0
2, 120360, Note_on_c, 0, 57, 96
2, 120420, Note_on_c, 0, 57, 0
2, 120420, Note_on_c, 0, 59, 96
2, 120480, Note_on_c, 0, 59, 0
2, 120480, Note_on_c, 0, 60, 96
2, 120540, Note_on_c, 0, 60, 0
2, 120540, Note_on_c, 0, 59, 96
2, 120600, Note_on_c, 0, 59, 0
2, 120600, Note_on_c, 0, 57, 96
2, 120660, Note_on_c, 0, 57, 0
2, 120660, Note_on_c, 0, 55, 96
2, 120720, Note_on_c, 0, 55, 0
2, 120720, Note_on_c, 0, 72, 96
2, 120720, Note_on_c, 0, 76, 96
2, 120720, Note_on_c, 0, 53, 96
2, 120780, Note_on_c, 0, 53, 0
2, 120780, Note_on_c, 0, 52, 96
2, 120840, Note_on_c, 0, 52, 0
2, 120840, Note_on_c, 0, 50, 96
2, 120900, Note_on_c, 0, 50, 0
2, 120900, Note_on_c, 0, 48, 96
2, 120960, Note_on_c, 0, 48, 0
2, 120960, Note_on_c, 0, 76, 0
2, 120960, Note_on_c, 0, 72, 0
2, 120960, Note_on_c, 0, 53, 96
2, 120960, Note_on_c, 0, 57, 96
2, 120960, Note_on_c, 0, 74, 96
2, 121020, Note_on_c, 0, 74, 0
2, 121020, Note_on_c, 0, 62, 96
2, 121080, Note_on_c, 0, 62, 0
2, 121080, Note_on_c, 0, 64, 96
2, 121140, Note_on_c, 0, 64, 0
2, 121140, Note_on_c, 0, 65, 96
2, 121200, Note_on_c, 0, 65, 0
2, 121200, Note_on_c, 0, 67, 96
2, 121260, Note_on_c, 0, 67, 0
2, 121260, Note_on_c, 0, 69, 96
2, 121320, Note_on_c, 0, 69, 0
2, 121320, Note_on_c, 0, 71, 96
2, 121380, Note_on_c, 0, 71, 0
2, 121380, Note_on_c, 0, 73, 96
2, 121440, Note_on_c, 0, 73, 0
2, 121440, Note_on_c, 0, 74, 96
2, 121500, Note_on_c, 0, 74, 0
2, 121500, Note_on_c, 0, 69, 96
2, 121560, Note_on_c, 0, 69, 0
2, 121560, Note_on_c, 0, 71, 96
2, 121620, Note_on_c, 0, 71, 0
2, 121620, Note_on_c, 0, 73, 96
2, 121680, Note_on_c, 0, 73, 0
2, 121680, Note_on_c, 0, 74, 96
2, 121740, Note_on_c, 0, 74, 0
2, 121740, Note_on_c, 0, 76, 96
2, 121800, Note_on_c, 0, 76, 0
2, 121800, Note_on_c, 0, 77, 96
2, 121860, Note_on_c, 0, 77, 0
2, 121860, Note_on_c, 0, 79, 96
2, 121920, Note_on_c, 0, 79, 0
2, 121920, Note_on_c, 0, 57, 0
2, 121920, Note_on_c, 0, 53, 0
2, 121920, Note_on_c, 0, 81, 96
2, 121920, Note_on_c, 0, 53, 96
2, 121980, Note_on_c, 0, 81, 0
2, 121980, Note_on_c, 0, 83, 96
2, 122040, Note_on_c, 0, 83, 0
2, 122040, Note_on_c, 0, 84, 96
2, 122100, Note_on_c, 0, 84, 0
2, 122100, Note_on_c, 0, 83, 96
2, 122160, Note_on_c, 0, 83, 0
2, 122160, Note_on_c, 0, 81, 96
2, 122220, Note_on_c, 0, 81, 0
2, 122220, Note_on_c, 0, 79, 96
2, 122280, Note_on_c, 0, 79, 0
2, 122280, Note_on_c, 0, 53, 0
2, 122280, Note_on_c, 0, 77, 96
2, 122280, Note_on_c, 0, 55, 96
2, 122340, Note_on_c, 0, 77, 0
2, 122340, Note_on_c, 0, 76, 96
2, 122400, Note_on_c, 0, 76, 0
2, 122400, Note_on_c, 0, 55, 0
2, 122400, Note_on_c, 0, 77, 96
2, 122400, Note_on_c, 0, 57, 96
2, 122460, Note_on_c, 0, 77, 0
2, 122460, Note_on_c, 0, 79, 96
2, 122520, Note_on_c, 0, 79, 0
2, 122520, Note_on_c, 0, 81, 96
2, 122580, Note_on_c, 0, 81, 0
2, 122580, Note_on_c, 0, 79, 96
2, 122640, Note_on_c, 0, 79, 0
2, 122640, Note_on_c, 0, 77, 96
2, 122700, Note_on_c, 0, 77, 0
2, 122700, Note_on_c, 0, 76, 96
2, 122760, Note_on_c, 0, 76, 0
2, 122760, Note_on_c, 0, 57, 0
2, 122760, Note_on_c, 0, 54, 96
2, 122760, Note_on_c, 0, 74, 96
2, 122820, Note_on_c, 0, 74, 0
2, 122820, Note_on_c, 0, 72, 96
2, 122880, Note_on_c, 0, 72, 0
2, 122880, Note_on_c, 0, 54, 0
2, 122880, Note_on_c, 0, 71, 96
2, 122880, Note_on_c, 0, 43, 96
2, 122940, Note_on_c, 0, 43, 0
2, 122940, Note_on_c, 0, 47, 96
2, 123000, Note_on_c, 0, 47, 0
2, 123000, Note_on_c, 0, 71, 0
2, 123000, Note_on_c, 0, 79, 96
2, 123000, Note_on_c, 0, 50, 96
2, 123060, Note_on_c, 0, 50, 0
2, 123060, Note_on_c, 0, 55, 96
2, 123120, Note_on_c, 0, 55, 0
2, 123120, Note_on_c, 0, 79, 0
2, 123120, Note_on_c, 0, 76, 96
2, 123120, Note_on_c, 0, 43, 96
2, 123180, Note_on_c, 0, 43, 0
2, 123180, Note_on_c, 0, 48, 96
2, 123240, Note_on_c, 0, 48, 0
2, 123240, Note_on_c, 0, 76, 0
2, 123240, Note_on_c, 0, 72, 96
2, 123240, Note_on_c, 0, 52, 96
2, 123300, Note_on_c, 0, 52, 0
2, 123300, Note_on_c, 0, 55, 96
2, 123360, Note_on_c, 0, 55, 0
2, 123360, Note_on_c, 0, 72, 0
2, 123360, Note_on_c, 0, 74, 96
2, 123360, Note_on_c, 0, 43, 96
2, 123420, Note_on_c, 0, 43, 0
2, 123420, Note_on_c, 0, 47, 96
2, 123480, Note_on_c, 0, 47, 0
2, 123480, Note_on_c, 0, 74, 0
2, 123480, Note_on_c, 0, 79, 96
2, 123480, Note_on_c, 0, 50, 96
2, 123540, Note_on_c, 0, 50, 0
2, 123540, Note_on_c, 0, 55, 96
2, 123600, Note_on_c, 0, 55, 0
2, 123600, Note_on_c, 0, 79, 0
2, 123600, Note_on_c, 0, 76, 96
2, 123600, Note_on_c, 0, 43, 96
2, 123660, Note_on_c, 0, 43, 0
2, 123660, Note_on_c, 0, 48, 96
2, 123720, Note_on_c, 0, 48, 0
2, 123720, Note_on_c, 0, 76, 0
2, 123720, Note_on_c, 0, 72, 96
2, 123720, Note_on_c, 0, 52, 96
2, 123780, Note_on_c, 0, 52, 0
2, 123780, Note_on_c, 0, 55, 96
2, 123840, Note_on_c, 0, 55, 0
2, 123840, Note_on_c, 0, 72, 0
2, 123840, Note_on_c, 0, 74, 96
2, 123840, Note_on_c, 0, 43, 96
2, 124080, Note_on_c, 0, 43, 0
2, 124080, Note_on_c, 0, 74, 0
2, 124080, Note_on_c, 0, 71, 96
2, 124080, Note_on_c, 0, 74, 96
2, 124080, Note_on_c, 0, 79, 96
2, 124080, Note_on_c, 0, 55, 96
2, 124320, Note_on_c, 0, 55, 0
2, 124320, Note_on_c, 0, 71, 0
2, 124320, Note_on_c, 0, 74, 0
2, 124320, Note_on_c, 0, 79, 0
2, 124320, Note_on_c, 0, 67, 96
2, 124320, Note_on_c, 0, 43, 96
2, 124560, Note_on_c, 0, 43, 0
2, 124560, Note_on_c, 0, 67, 0
2, 124800, Note_on_c, 0, 66, 96
2, 124860, Note_on_c, 0, 66, 0
2, 124860, Note_on_c, 0, 67, 96
2, 124920, Note_on_c, 0, 67, 0
2, 124920, Note_on_c, 0, 66, 96
2, 124980, Note_on_c, 0, 66, 0
2, 124980, Note_on_c, 0, 67, 96
2, 125040, Note_on_c, 0, 67, 0
2, 125040, Note_on_c, 0, 66, 96
2, 125100, Note_on_c, 0, 66, 0
2, 125100, Note_on_c, 0, 67, 96
2, 125160, Note_on_c, 0, 67, 0
2, 125160, Note_on_c, 0, 66, 96
2, 125220, Note_on_c, 0, 66, 0
2, 125220, Note_on_c, 0, 67, 96
2, 125280, Note_on_c, 0, 67, 0
2, 125280, Note_on_c, 0, 65, 96
2, 125340, Note_on_c, 0, 65, 0
2, 125340, Note_on_c, 0, 67, 96
2, 125400, Note_on_c, 0, 67, 0
2, 125400, Note_on_c, 0, 65, 96
2, 125460, Note_on_c, 0, 65, 0
2, 125460, Note_on_c, 0, 67, 96
2, 125520, Note_on_c, 0, 67, 0
2, 125520, Note_on_c, 0, 65, 96
2, 125580, Note_on_c, 0, 65, 0
2, 125580, Note_on_c, 0, 67, 96
2, 125640, Note_on_c, 0, 67, 0
2, 125640, Note_on_c, 0, 65, 96
2, 125700, Note_on_c, 0, 65, 0
2, 125700, Note_on_c, 0, 67, 96
2, 125760, Note_on_c, 0, 67, 0
2, 125760, Note_on_c, 0, 79, 96
2, 125760, Note_on_c, 0, 64, 96
2, 125820, Note_on_c, 0, 64, 0
2, 125820, Note_on_c, 0, 67, 96
2, 125880, Note_on_c, 0, 67, 0
2, 125880, Note_on_c, 0, 79, 0
2, 125880, Note_on_c, 0, 76, 96
2, 125880, Note_on_c, 0, 64, 96
2, 125940, Note_on_c, 0, 64, 0
2, 125940, Note_on_c, 0, 67, 96
2, 126000, Note_on_c, 0, 67, 0
2, 126000, Note_on_c, 0, 76, 0
2, 126000, Note_on_c, 0, 72, 96
2, 126000, Note_on_c, 0, 64, 96
2, 126060, Note_on_c, 0, 64, 0
2, 126060, Note_on_c, 0, 67, 96
2, 126120, Note_on_c, 0, 67, 0
2, 126120, Note_on_c, 0, 64, 96
2, 126180, Note_on_c, 0, 64, 0
2, 126180, Note_on_c, 0, 67, 96
2, 126240, Note_on_c, 0, 67, 0
2, 126240, Note_on_c, 0, 64, 96
2, 126300, Note_on_c, 0, 64, 0
2, 126300, Note_on_c, 0, 67, 96
2, 126360, Note_on_c, 0, 67, 0
2, 126360, Note_on_c, 0, 72, 0
2, 126360, Note_on_c, 0, 74, 96
2, 126360, Note_on_c, 0, 64, 96
2, 126420, Note_on_c, 0, 64, 0
2, 126420, Note_on_c, 0, 74, 0
2, 126420, Note_on_c, 0, 76, 96
2, 126420, Note_on_c, 0, 67, 96
2, 126480, Note_on_c, 0, 67, 0
2, 126480, Note_on_c, 0, 76, 0
2, 126480, Note_on_c, 0, 64, 96
2, 126480, Note_on_c, 0, 74, 96
2, 126540, Note_on_c, 0, 64, 0
2, 126540, Note_on_c, 0, 67, 96
2, 126600, Note_on_c, 0, 67, 0
2, 126600, Note_on_c, 0, 74, 0
2, 126600, Note_on_c, 0, 72, 96
2, 126600, Note_on_c, 0, 64, 96
2, 126660, Note_on_c, 0, 64, 0
2, 126660, Note_on_c, 0, 67, 96
2, 126720, Note_on_c, 0, 67, 0
2, 126720, Note_on_c, 0, 72, 0
2, 126720, Note_on_c, 0, 74, 96
2, 126720, Note_on_c, 0, 65, 96
2, 126750, Note_on_c, 0, 74, 0
2, 126750, Note_on_c, 0, 72, 72
2, 126780, Note_on_c, 0, 72, 0
2, 126780, Note_on_c, 0, 65, 0
2, 126780, Note_on_c, 0, 74, 78
2, 126780, Note_on_c, 0, 67, 96
2, 126810, Note_on_c, 0, 74, 0
2, 126810, Note_on_c, 0, 72, 84
2, 126840, Note_on_c, 0, 72, 0
2, 126840, Note_on_c, 0, 67, 0
2, 126840, Note_on_c, 0, 74, 90
2, 126840, Note_on_c, 0, 64, 96
2, 126870, Note_on_c, 0, 74, 0
2, 126870, Note_on_c, 0, 72, 96
2, 126900, Note_on_c, 0, 72, 0
2, 126900, Note_on_c, 0, 64, 0
2, 126900, Note_on_c, 0, 71, 102
2, 126900, Note_on_c, 0, 67, 96
2, 126950, Note_on_c, 0, 71, 0
2, 126960, Note_on_c, 0, 67, 0
2, 126960, Note_on_c, 0, 71, 96
2, 126960, Note_on_c, 0, 62, 96
2, 127020, Note_on_c, 0, 62, 0
2, 127020, Note_on_c, 0, 67, 96
2, 127080, Note_on_c, 0, 67, 0
2, 127080, Note_on_c, 0, 64, 96
2, 127140, Note_on_c, 0, 64, 0
2, 127140, Note_on_c, 0, 67, 96
2, 127200, Note_on_c, 0, 67, 0
2, 127200, Note_on_c, 0, 65, 96
2, 127260, Note_on_c, 0, 65, 0
2, 127260, Note_on_c, 0, 67, 96
2, 127320, Note_on_c, 0, 67, 0
2, 127320, Note_on_c, 0, 64, 96
2, 127380, Note_on_c, 0, 64, 0
2, 127380, Note_on_c, 0, 67, 96
2, 127440, Note_on_c, 0, 67, 0
2, 127440, Note_on_c, 0, 65, 96
2, 127500, Note_on_c, 0, 65, 0
2, 127500, Note_on_c, 0, 67, 96
2, 127560, Note_on_c, 0, 67, 0
2, 127560, Note_on_c, 0, 62, 96
2, 127620, Note_on_c, 0, 62, 0
2, 127620, Note_on_c, 0, 67, 96
2, 127680, Note_on_c, 0, 67, 0
2, 127680, Note_on_c, 0, 71, 0
2, 127680, Note_on_c, 0, 79, 96
2, 127680, Note_on_c, 0, 64, 96
2, 127740, Note_on_c, 0, 64, 0
2, 127740, Note_on_c, 0, 67, 96
2, 127800, Note_on_c, 0, 67, 0
2, 127800, Note_on_c, 0, 79, 0
2, 127800, Note_on_c, 0, 76, 96
2, 127800, Note_on_c, 0, 64, 96
2, 127860, Note_on_c, 0, 64, 0
2, 127860, Note_on_c, 0, 67, 96
2, 127920, Note_on_c, 0, 67, 0
2, 127920, Note_on_c, 0, 76, 0
2, 127920, Note_on_c, 0, 72, 96
2, 127920, Note_on_c, 0, 64, 96
2, 127980, Note_on_c, 0, 64, 0
2, 127980, Note_on_c, 0, 67, 96
2, 128040, Note_on_c, 0, 67, 0
2, 128040, Note_on_c, 0, 64, 96
2, 128100, Note_on_c, 0, 64, 0
2, 128100, Note_on_c, 0, 67, 96
2, 128160, Note_on_c, 0, 67, 0
2, 128160, Note_on_c, 0, 64, 96
2, 128220, Note_on_c, 0, 64, 0
2, 128220, Note_on_c, 0, 67, 96
2, 128280, Note_on_c, 0, 67, 0
2, 128280, Note_on_c, 0, 72, 0
2, 128280, Note_on_c, 0, 74, 96
2, 128280, Note_on_c, 0, 64, 96
2, 128340, Note_on_c, 0, 64, 0
2, 128340, Note_on_c, 0, 74, 0
2, 128340, Note_on_c, 0, 76, 96
2, 128340, Note_on_c, 0, 67, 96
2, 128400, Note_on_c, 0, 67, 0
2, 128400, Note_on_c, 0, 76, 0
2, 128400, Note_on_c, 0, 74, 96
2, 128400, Note_on_c, 0, 64, 96
2, 128460, Note_on_c, 0, 64, 0
2, 128460, Note_on_c, 0, 67, 96
2, 128520, Note_on_c, 0, 67, 0
2, 128520, Note_on_c, 0, 74, 0
2, 128520, Note_on_c, 0, 72, 96
2, 128520, Note_on_c, 0, 64, 96
2, 128580, Note_on_c, 0, 64, 0
2, 128580, Note_on_c, 0, 67, 96
2, 128640, Note_on_c, 0, 67, 0
2, 128640, Note_on_c, 0, 72, 0
2, 128640, Note_on_c, 0, 74, 96
2, 128640, Note_on_c, 0, 65, 96
2, 128670, Note_on_c, 0, 74, 0
2, 128670, Note_on_c, 0, 72, 72
2, 128700, Note_on_c, 0, 72, 0
2, 128700, Note_on_c, 0, 65, 0
2, 128700, Note_on_c, 0, 74, 78
2, 128700, Note_on_c, 0, 67, 96
2, 128730, Note_on_c, 0, 74, 0
2, 128730, Note_on_c, 0, 72, 84
2, 128760, Note_on_c, 0, 72, 0
2, 128760, Note_on_c, 0, 67, 0
2, 128760, Note_on_c, 0, 74, 90
2, 128760, Note_on_c, 0, 64, 96
2, 128790, Note_on_c, 0, 74, 0
2, 128790, Note_on_c, 0, 72, 96
2, 128820, Note_on_c, 0, 72, 0
2, 128820, Note_on_c, 0, 64, 0
2, 128820, Note_on_c, 0, 71, 102
2, 128820, Note_on_c, 0, 67, 96
2, 128870, Note_on_c, 0, 71, 0
2, 128880, Note_on_c, 0, 67, 0
2, 128880, Note_on_c, 0, 71, 96
2, 128880, Note_on_c, 0, 62, 96
2, 128940, Note_on_c, 0, 62, 0
2, 128940, Note_on_c, 0, 67, 96
2, 129000, Note_on_c, 0, 67, 0
2, 129000, Note_on_c, 0, 64, 96
2, 129060, Note_on_c, 0, 64, 0
2, 129060, Note_on_c, 0, 67, 96
2, 129120, Note_on_c, 0, 67, 0
2, 129120, Note_on_c, 0, 65, 96
2, 129180, Note_on_c, 0, 65, 0
2, 129180, Note_on_c, 0, 67, 96
2, 129240, Note_on_c, 0, 67, 0
2, 129240, Note_on_c, 0, 64, 96
2, 129300, Note_on_c, 0, 64, 0
2, 129300, Note_on_c, 0, 67, 96
2, 129360, Note_on_c, 0, 67, 0
2, 129360, Note_on_c, 0, 71, 0
2, 129360, Note_on_c, 0, 65, 96
2, 129420, Note_on_c, 0, 65, 0
2, 129420, Note_on_c, 0, 67, 96
2, 129480, Note_on_c, 0, 67, 0
2, 129480, Note_on_c, 0, 62, 96
2, 129540, Note_on_c, 0, 62, 0
2, 129540, Note_on_c, 0, 67, 96
2, 129600, Note_on_c, 0, 67, 0
2, 129600, Note_on_c, 0, 79, 96
2, 129660, Note_on_c, 0, 52, 96
2, 129720, Note_on_c, 0, 52, 0
2, 129720, Note_on_c, 0, 55, 96
2, 129780, Note_on_c, 0, 55, 0
2, 129780, Note_on_c, 0, 60, 96
2, 129840, Note_on_c, 0, 60, 0
2, 129840, Note_on_c, 0, 79, 0
2, 129840, Note_on_c, 0, 64, 96
2, 129900, Note_on_c, 0, 79, 96
2, 129960, Note_on_c, 0, 79, 0
2, 129960, Note_on_c, 0, 76, 96
2, 130020, Note_on_c, 0, 76, 0
2, 130020, Note_on_c, 0, 72, 96
2, 130080, Note_on_c, 0, 72, 0
2, 130080, Note_on_c, 0, 64, 0
2, 130080, Note_on_c, 0, 69, 96
2, 130140, Note_on_c, 0, 53, 96
2, 130200, Note_on_c, 0, 53, 0
2, 130200, Note_on_c, 0, 57, 96
2, 130260, Note_on_c, 0, 57, 0
2, 130260, Note_on_c, 0, 60, 96
2, 130320, Note_on_c, 0, 60, 0
2, 130320, Note_on_c, 0, 69, 0
2, 130320, Note_on_c, 0, 65, 96
2, 130380, Note_on_c, 0, 69, 96
2, 130440, Note_on_c, 0, 69, 0
2, 130440, Note_on_c, 0, 72, 96
2, 130500, Note_on_c, 0, 72, 0
2, 130500, Note_on_c, 0, 69, 96
2, 130560, Note_on_c, 0, 69, 0
2, 130560, Note_on_c, 0, 65, 0
2, 130560, Note_on_c, 0, 77, 96
2, 130620, Note_on_c, 0, 50, 96
2, 130680, Note_on_c, 0, 50, 0
2, 130680, Note_on_c, 0, 53, 96
2, 130740, Note_on_c, 0, 53, 0
2, 130740, Note_on_c, 0, 59, 96
2, 130800, Note_on_c, 0, 59, 0
2, 130800, Note_on_c, 0, 77, 0
2, 130800, Note_on_c, 0, 62, 96
2, 130860, Note_on_c, 0, 77, 96
2, 130920, Note_on_c, 0, 77, 0
2, 130920, Note_on_c, 0, 74, 96
2, 130980, Note_on_c, 0, 74, 0
2, 130980, Note_on_c, 0, 71, 96
2, 131040, Note_on_c, 0, 71, 0
2, 131040, Note_on_c, 0, 62, 0
2, 131040, Note_on_c, 0, 67, 96
2, 131100, Note_on_c, 0, 52, 96
2, 131160, Note_on_c, 0, 52, 0
2, 131160, Note_on_c, 0, 55, 96
2, 131220, Note_on_c, 0, 55, 0
2, 131220, Note_on_c, 0, 59, 96
2, 131280, Note_on_c, 0, 59, 0
2, 131280, Note_on_c, 0, 67, 0
2, 131280, Note_on_c, 0, 64, 96
2, 131340, Note_on_c, 0, 79, 96
2, 131400, Note_on_c, 0, 79, 0
2, 131400, Note_on_c, 0, 83, 96
2, 131460, Note_on_c, 0, 83, 0
2, 131460, Note_on_c, 0, 79, 96
2, 131520, Note_on_c, 0, 79, 0
2, 131520, Note_on_c, 0, 64, 0
2, 131520, Note_on_c, 0, 88, 96
2, 131580, Note_on_c, 0, 60, 96
2, 131640, Note_on_c, 0, 60, 0
2, 131640, Note_on_c, 0, 64, 96
2, 131700, Note_on_c, 0, 64, 0
2, 131700, Note_on_c, 0, 69, 96
2, 131760, Note_on_c, 0, 69, 0
2, 131760, Note_on_c, 0, 88, 0
2, 131760, Note_on_c, 0, 72, 96
2, 131820, Note_on_c, 0, 88, 96
2, 131880, Note_on_c, 0, 88, 0
2, 131880, Note_on_c, 0, 84, 96
2, 131940, Note_on_c, 0, 84, 0
2, 131940, Note_on_c, 0, 81, 96
2, 132000, Note_on_c, 0, 81, 0
2, 132000, Note_on_c, 0, 72, 0
2, 132000, Note_on_c, 0, 77, 96
2, 132060, Note_on_c, 0, 62, 96
2, 132120, Note_on_c, 0, 62, 0
2, 132120, Note_on_c, 0, 65, 96
2, 132180, Note_on_c, 0, 65, 0
2, 132180, Note_on_c, 0, 69, 96
2, 132240, Note_on_c, 0, 69, 0
2, 132240, Note_on_c, 0, 77, 0
2, 132240, Note_on_c, 0, 74, 96
2, 132300, Note_on_c, 0, 77, 96
2, 132360, Note_on_c, 0, 77, 0
2, 132360, Note_on_c, 0, 81, 96
2, 132420, Note_on_c, 0, 81, 0
2, 132420, Note_on_c, 0, 77, 96
2, 132480, Note_on_c, 0, 77, 0
2, 132480, Note_on_c, 0, 74, 0
2, 132480, Note_on_c, 0, 86, 96
2, 132540, Note_on_c, 0, 59, 96
2, 132600, Note_on_c, 0, 59, 0
2, 132600, Note_on_c, 0, 62, 96
2, 132660, Note_on_c, 0, 62, 0
2, 132660, Note_on_c, 0, 67, 96
2, 132720, Note_on_c, 0, 67, 0
2, 132720, Note_on_c, 0, 86, 0
2, 132720, Note_on_c, 0, 71, 96
2, 132780, Note_on_c, 0, 86, 96
2, 132840, Note_on_c, 0, 86, 0
2, 132840, Note_on_c, 0, 83, 96
2, 132900, Note_on_c, 0, 83, 0
2, 132900, Note_on_c, 0, 79, 96
2, 132960, Note_on_c, 0, 79, 0
2, 132960, Note_on_c, 0, 71, 0
2, 132960, Note_on_c, 0, 76, 96
2, 133020, Note_on_c, 0, 60, 96
2, 133080, Note_on_c, 0, 60, 0
2, 133080, Note_on_c, 0, 64, 96
2, 133140, Note_on_c, 0, 64, 0
2, 133140, Note_on_c, 0, 67, 96
2, 133200, Note_on_c, 0, 67, 0
2, 133200, Note_on_c, 0, 76, 0
2, 133200, Note_on_c, 0, 72, 96
2, 133260, Note_on_c, 0, 84, 96
2, 133320, Note_on_c, 0, 84, 0
2, 133320, Note_on_c, 0, 79, 96
2, 133380, Note_on_c, 0, 79, 0
2, 133380, Note_on_c, 0, 76, 96
2, 133440, Note_on_c, 0, 76, 0
2, 133440, Note_on_c, 0, 72, 0
2, 133440, Note_on_c, 0, 74, 96
2, 133560, Note_on_c, 0, 69, 96
2, 133560, Note_on_c, 0, 65, 96
2, 133656, Note_on_c, 0, 65, 0
2, 133656, Note_on_c, 0, 69, 0
2, 133680, Note_on_c, 0, 69, 96
2, 133680, Note_on_c, 0, 65, 96
2, 133776, Note_on_c, 0, 65, 0
2, 133776, Note_on_c, 0, 69, 0
2, 133800, Note_on_c, 0, 69, 96
2, 133800, Note_on_c, 0, 65, 96
2, 133896, Note_on_c, 0, 65, 0
2, 133896, Note_on_c, 0, 69, 0
2, 133910, Note_on_c, 0, 74, 0
2, 133920, Note_on_c, 0, 69, 96
2, 133920, Note_on_c, 0, 65, 96
2, 133920, Note_on_c, 0, 73, 108
2, 133950, Note_on_c, 0, 73, 0
2, 133950, Note_on_c, 0, 74, 96
2, 134016, Note_on_c, 0, 65, 0
2, 134016, Note_on_c, 0, 69, 0
2, 134040, Note_on_c, 0, 69, 96
2, 134040, Note_on_c, 0, 65, 96
2, 134136, Note_on_c, 0, 65, 0
2, 134136, Note_on_c, 0, 69, 0
2, 134160, Note_on_c, 0, 74, 0
2, 134160, Note_on_c, 0, 69, 96
2, 134160, Note_on_c, 0, 65, 96
2, 134160, Note_on_c, 0, 73, 108
2, 134190, Note_on_c, 0, 73, 0
2, 134190, Note_on_c, 0, 74, 96
2, 134256, Note_on_c, 0, 65, 0
2, 134256, Note_on_c, 0, 69, 0
2, 134280, Note_on_c, 0, 65, 96
2, 134280, Note_on_c, 0, 69, 96
2, 134376, Note_on_c, 0, 69, 0
2, 134376, Note_on_c, 0, 65, 0
2, 134400, Note_on_c, 0, 74, 0
2, 134400, Note_on_c, 0, 81, 96
2, 134520, Note_on_c, 0, 63, 96
2, 134520, Note_on_c, 0, 60, 96
2, 134520, Note_on_c, 0, 54, 96
2, 134616, Note_on_c, 0, 54, 0
2, 134616, Note_on_c, 0, 60, 0
2, 134616, Note_on_c, 0, 63, 0
2, 134640, Note_on_c, 0, 63, 96
2, 134640, Note_on_c, 0, 60, 96
2, 134640, Note_on_c, 0, 54, 96
2, 134736, Note_on_c, 0, 54, 0
2, 134736, Note_on_c, 0, 60, 0
2, 134736, Note_on_c, 0, 63, 0
2, 134760, Note_on_c, 0, 63, 96
2, 134760, Note_on_c, 0, 60, 96
2, 134760, Note_on_c, 0, 54, 96
2, 134856, Note_on_c, 0, 54, 0
2, 134856, Note_on_c, 0, 60, 0
2, 134856, Note_on_c, 0, 63, 0
2, 134870, Note_on_c, 0, 81, 0
2, 134880, Note_on_c, 0, 63, 96
2, 134880, Note_on_c, 0, 60, 96
2, 134880, Note_on_c, 0, 54, 96
2, 134880, Note_on_c, 0, 80, 108
2, 134910, Note_on_c, 0, 80, 0
2, 134910, Note_on_c, 0, 81, 96
2, 134976, Note_on_c, 0, 63, 0
2, 134976, Note_on_c, 0, 54, 0
2, 134976, Note_on_c, 0, 60, 0
2, 135000, Note_on_c, 0, 63, 96
2, 135000, Note_on_c, 0, 60, 96
2, 135000, Note_on_c, 0, 54, 96
2, 135096, Note_on_c, 0, 54, 0
2, 135096, Note_on_c, 0, 60, 0
2, 135096, Note_on_c, 0, 63, 0
2, 135120, Note_on_c, 0, 81, 0
2, 135120, Note_on_c, 0, 63, 96
2, 135120, Note_on_c, 0, 60, 96
2, 135120, Note_on_c, 0, 54, 96
2, 135120, Note_on_c, 0, 80, 108
2, 135150, Note_on_c, 0, 80, 0
2, 135150, Note_on_c, 0, 81, 96
2, 135216, Note_on_c, 0, 63, 0
2, 135216, Note_on_c, 0, 54, 0
2, 135216, Note_on_c, 0, 60, 0
2, 135240, Note_on_c, 0, 54, 96
2, 135240, Note_on_c, 0, 60, 96
2, 135240, Note_on_c, 0, 63, 96
2, 135336, Note_on_c, 0, 63, 0
2, 135336, Note_on_c, 0, 60, 0
2, 135336, Note_on_c, 0, 54, 0
2, 135360, Note_on_c, 0, 81, 0
2, 135360, Note_on_c, 0, 79, 96
2, 135360, Note_on_c, 0, 55, 96
2, 135420, Note_on_c, 0, 55, 0
2, 135420, Note_on_c, 0, 64, 96
2, 135480, Note_on_c, 0, 64, 0
2, 135480, Note_on_c, 0, 79, 0
2, 135480, Note_on_c, 0, 81, 96
2, 135480, Note_on_c, 0, 60, 96
2, 135540, Note_on_c, 0, 60, 0
2, 135540, Note_on_c, 0, 81, 0
2, 135540, Note_on_c, 0, 83, 96
2, 135540, Note_on_c, 0, 64, 96
2, 135600, Note_on_c, 0, 64, 0
2, 135600, Note_on_c, 0, 83, 0
2, 135600, Note_on_c, 0, 84, 96
2, 135600, Note_on_c, 0, 55, 96
2, 135660, Note_on_c, 0, 55, 0
2, 135660, Note_on_c, 0, 84, 0
2, 135660, Note_on_c, 0, 86, 96
2, 135660, Note_on_c, 0, 64, 96
2, 135720, Note_on_c, 0, 64, 0
2, 135720, Note_on_c, 0, 86, 0
2, 135720, Note_on_c, 0, 88, 96
2, 135720, Note_on_c, 0, 60, 96
2, 135780, Note_on_c, 0, 60, 0
2, 135780, Note_on_c, 0, 88, 0
2, 135780, Note_on_c, 0, 86, 96
2, 135780, Note_on_c, 0, 64, 96
2, 135840, Note_on_c, 0, 64, 0
2, 135840, Note_on_c, 0, 86, 0
2, 135840, Note_on_c, 0, 84, 96
2, 135840, Note_on_c, 0, 55, 96
2, 135900, Note_on_c, 0, 55, 0
2, 135900, Note_on_c, 0, 84, 0
2, 135900, Note_on_c, 0, 83, 96
2, 135900, Note_on_c, 0, 64, 96
2, 135960, Note_on_c, 0, 64, 0
2, 135960, Note_on_c, 0, 83, 0
2, 135960, Note_on_c, 0, 81, 96
2, 135960, Note_on_c, 0, 60, 96
2, 136020, Note_on_c, 0, 60, 0
2, 136020, Note_on_c, 0, 81, 0
2, 136020, Note_on_c, 0, 79, 96
2, 136020, Note_on_c, 0, 64, 96
2, 136080, Note_on_c, 0, 64, 0
2, 136080, Note_on_c, 0, 79, 0
2, 136080, Note_on_c, 0, 77, 96
2, 136080, Note_on_c, 0, 55, 96
2, 136140, Note_on_c, 0, 55, 0
2, 136140, Note_on_c, 0, 77, 0
2, 136140, Note_on_c, 0, 76, 96
2, 136140, Note_on_c, 0, 64, 96
2, 136200, Note_on_c, 0, 64, 0
2, 136200, Note_on_c, 0, 76, 0
2, 136200, Note_on_c, 0, 74, 96
2, 136200, Note_on_c, 0, 60, 96
2, 136260, Note_on_c, 0, 60, 0
2, 136260, Note_on_c, 0, 74, 0
2, 136260, Note_on_c, 0, 72, 96
2, 136260, Note_on_c, 0, 64, 96
2, 136320, Note_on_c, 0, 64, 0
2, 136320, Note_on_c, 0, 72, 0
2, 136320, Note_on_c, 0, 76, 96
2, 136320, Note_on_c, 0, 55, 96
2, 136350, Note_on_c, 0, 76, 0
2, 136350, Note_on_c, 0, 74, 72
2, 136380, Note_on_c, 0, 74, 0
2, 136380, Note_on_c, 0, 55, 0
2, 136380, Note_on_c, 0, 76, 72
2, 136380, Note_on_c, 0, 65, 96
2, 136410, Note_on_c, 0, 76, 0
2, 136410, Note_on_c, 0, 74, 73
2, 136440, Note_on_c, 0, 74, 0
2, 136440, Note_on_c, 0, 65, 0
2, 136440, Note_on_c, 0, 76, 73
2, 136440, Note_on_c, 0, 59, 96
2, 136470, Note_on_c, 0, 76, 0
2, 136470, Note_on_c, 0, 74, 75
2, 136500, Note_on_c, 0, 74, 0
2, 136500, Note_on_c, 0, 59, 0
2, 136500, Note_on_c, 0, 76, 75
2, 136500, Note_on_c, 0, 65, 96
2, 136530, Note_on_c, 0, 76, 0
2, 136530, Note_on_c, 0, 74, 76
2, 136560, Note_on_c, 0, 74, 0
2, 136560, Note_on_c, 0, 65, 0
2, 136560, Note_on_c, 0, 76, 78
2, 136560, Note_on_c, 0, 55, 96
2, 136590, Note_on_c, 0, 76, 0
2, 136590, Note_on_c, 0, 74, 78
2, 136620, Note_on_c, 0, 74, 0
2, 136620, Note_on_c, 0, 55, 0
2, 136620, Note_on_c, 0, 76, 79
2, 136620, Note_on_c, 0, 65, 96
2, 136650, Note_on_c, 0, 76, 0
2, 136650, Note_on_c, 0, 74, 79
2, 136680, Note_on_c, 0, 74, 0
2, 136680, Note_on_c, 0, 65, 0
2, 136680, Note_on_c, 0, 76, 81
2, 136680, Note_on_c, 0, 59, 96
2, 136710, Note_on_c, 0, 76, 0
2, 136710, Note_on_c, 0, 74, 81
2, 136740, Note_on_c, 0, 74, 0
2, 136740, Note_on_c, 0, 59, 0
2, 136740, Note_on_c, 0, 76, 82
2, 136740, Note_on_c, 0, 65, 96
2, 136770, Note_on_c, 0, 76, 0
2, 136770, Note_on_c, 0, 74, 84
2, 136800, Note_on_c, 0, 74, 0
2, 136800, Note_on_c, 0, 65, 0
2, 136800, Note_on_c, 0, 76, 84
2, 136800, Note_on_c, 0, 55, 96
2, 136830, Note_on_c, 0, 76, 0
2, 136830, Note_on_c, 0, 74, 85
2, 136860, Note_on_c, 0, 74, 0
2, 136860, Note_on_c, 0, 55, 0
2, 136860, Note_on_c, 0, 76, 85
2, 136860, Note_on_c, 0, 65, 96
2, 136890, Note_on_c, 0, 76, 0
2, 136890, Note_on_c, 0, 74, 87
2, 136920, Note_on_c, 0, 74, 0
2, 136920, Note_on_c, 0, 65, 0
2, 136920, Note_on_c, 0, 76, 87
2, 136920, Note_on_c, 0, 59, 96
2, 136950, Note_on_c, 0, 76, 0
2, 136950, Note_on_c, 0, 74, 88
2, 136980, Note_on_c, 0, 74, 0
2, 136980, Note_on_c, 0, 59, 0
2, 136980, Note_on_c, 0, 76, 90
2, 136980, Note_on_c, 0, 65, 96
2, 137010, Note_on_c, 0, 76, 0
2, 137010, Note_on_c, 0, 74, 90
2, 137040, Note_on_c, 0, 74, 0
2, 137040, Note_on_c, 0, 65, 0
2, 137040, Note_on_c, 0, 76, 91
2, 137040, Note_on_c, 0, 55, 96
2, 137070, Note_on_c, 0, 76, 0
2, 137070, Note_on_c, 0, 74, 91
2, 137100, Note_on_c, 0, 74, 0
2, 137100, Note_on_c, 0, 55, 0
2, 137100, Note_on_c, 0, 76, 93
2, 137100, Note_on_c, 0, 65, 96
2, 137130, Note_on_c, 0, 76, 0
2, 137130, Note_on_c, 0, 74, 93
2, 137160, Note_on_c, 0, 74, 0
2, 137160, Note_on_c, 0, 65, 0
2, 137160, Note_on_c, 0, 76, 94
2, 137160, Note_on_c, 0, 59, 96
2, 137190, Note_on_c, 0, 76, 0
2, 137190, Note_on_c, 0, 74, 96
2, 137220, Note_on_c, 0, 74, 0
2, 137220, Note_on_c, 0, 59, 0
2, 137220, Note_on_c, 0, 65, 96
2, 137220, Note_on_c, 0, 72, 96
2, 137250, Note_on_c, 0, 72, 0
2, 137250, Note_on_c, 0, 74, 96
2, 137280, Note_on_c, 0, 74, 0
2, 137280, Note_on_c, 0, 65, 0
2, 137280, Note_on_c, 0, 72, 96
2, 137280, Note_on_c, 0, 60, 96
2, 137280, Note_on_c, 0, 64, 96
2, 137520, Note_on_c, 0, 64, 0
2, 137520, Note_on_c, 0, 60, 0
2, 137520, Note_on_c, 0, 72, 0
2, 137520, Note_on_c, 0, 72, 96
2, 137580, Note_on_c, 0, 72, 0
2, 137580, Note_on_c, 0, 67, 96
2, 137640, Note_on_c, 0, 67, 0
2, 137640, Note_on_c, 0, 72, 96
2, 137700, Note_on_c, 0, 72, 0
2, 137700, Note_on_c, 0, 76, 96
2, 137760, Note_on_c, 0, 76, 0
2, 137760, Note_on_c, 0, 79, 96
2, 137820, Note_on_c, 0, 79, 0
2, 137820, Note_on_c, 0, 76, 96
2, 137880, Note_on_c, 0, 76, 0
2, 137880, Note_on_c, 0, 72, 96
2, 137940, Note_on_c, 0, 72, 0
2, 137940, Note_on_c, 0, 76, 96
2, 138000, Note_on_c, 0, 76, 0
2, 138000, Note_on_c, 0, 55, 96
2, 138000, Note_on_c, 0, 62, 96
2, 138000, Note_on_c, 0, 65, 96
2, 138000, Note_on_c, 0, 77, 96
2, 138060, Note_on_c, 0, 77, 0
2, 138060, Note_on_c, 0, 74, 96
2, 138120, Note_on_c, 0, 74, 0
2, 138120, Note_on_c, 0, 71, 96
2, 138180, Note_on_c, 0, 71, 0
2, 138180, Note_on_c, 0, 74, 96
2, 138240, Note_on_c, 0, 74, 0
2, 138240, Note_on_c, 0, 65, 0
2, 138240, Note_on_c, 0, 62, 0
2, 138240, Note_on_c, 0, 55, 0
2, 138240, Note_on_c, 0, 60, 96
2, 138240, Note_on_c, 0, 72, 96
2, 138240, Note_on_c, 0, 64, 96
2, 138480, Note_on_c, 0, 64, 0
2, 138480, Note_on_c, 0, 72, 0
2, 138480, Note_on_c, 0, 60, 0
2, 138480, Note_on_c, 0, 60, 96
2, 138540, Note_on_c, 0, 60, 0
2, 138540, Note_on_c, 0, 55, 96
2, 138600, Note_on_c, 0, 55, 0
2, 138600, Note_on_c, 0, 60, 96
2, 138660, Note_on_c, 0, 60, 0
2, 138660, Note_on_c, 0, 64, 96
2, 138720, Note_on_c, 0, 64, 0
2, 138720, Note_on_c, 0, 67, 96
2, 138780, Note_on_c, 0, 67, 0
2, 138780, Note_on_c, 0, 64, 96
2, 138840, Note_on_c, 0, 64, 0
2, 138840, Note_on_c, 0, 60, 96
2, 138900, Note_on_c, 0, 60, 0
2, 138900, Note_on_c, 0, 64, 96
2, 138960, Note_on_c, 0, 64, 0
2, 138960, Note_on_c, 0, 43, 96
2, 138960, Note_on_c, 0, 50, 96
2, 138960, Note_on_c, 0, 53, 96
2, 138960, Note_on_c, 0, 65, 96
2, 139020, Note_on_c, 0, 65, 0
2, 139020, Note_on_c, 0, 62, 96
2, 139080, Note_on_c, 0, 62, 0
2, 139080, Note_on_c, 0, 59, 96
2, 139140, Note_on_c, 0, 59, 0
2, 139140, Note_on_c, 0, 62, 96
2, 139200, Note_on_c, 0, 62, 0
2, 139200, Note_on_c, 0, 53, 0
2, 139200, Note_on_c, 0, 50, 0
2, 139200, Note_on_c, 0, 43, 0
2, 139200, Note_on_c, 0, 52, 96
2, 139200, Note_on_c, 0, 48, 96
2, 139200, Note_on_c, 0, 60, 96
2, 139392, Note_on_c, 0, 60, 0
2, 139392, Note_on_c, 0, 48, 0
2, 139392, Note_on_c, 0, 52, 0
2, 139440, Note_on_c, 0, 60, 96
2, 139440, Note_on_c, 0, 48, 96
2, 139440, Note_on_c, 0, 79, 96
2, 139440, Note_on_c, 0, 76, 96
2, 139440, Note_on_c, 0, 84, 96
2, 139632, Note_on_c, 0, 76, 0
2, 139632, Note_on_c, 0, 79, 0
2, 139632, Note_on_c, 0, 60, 0
2, 139632, Note_on_c, 0, 48, 0
2, 139680, Note_on_c, 0, 84, 0
2, 139680, Note_on_c, 0, 48, 96
2, 139680, Note_on_c, 0, 72, 96
2, 139680, Note_on_c, 0, 36, 96
2, 139872, Note_on_c, 0, 72, 0
2, 139872, Note_on_c, 0, 48, 0
2, 139920, Note_on_c, 0, 36, 0
2, 142080, Note_on_c, 0, 71, 96
2, 142080, Note_on_c, 0, 55, 96
2, 142140, Note_on_c, 0, 55, 0
2, 142140, Note_on_c, 0, 62, 96
2, 142200, Note_on_c, 0, 62, 0
2, 142200, Note_on_c, 0, 59, 96
2, 142260, Note_on_c, 0, 59, 0
2, 142260, Note_on_c, 0, 62, 96
2, 142320, Note_on_c, 0, 62, 0
2, 142320, Note_on_c, 0, 55, 96
2, 142380, Note_on_c, 0, 55, 0
2, 142380, Note_on_c, 0, 62, 96
2, 142440, Note_on_c, 0, 62, 0
2, 142440, Note_on_c, 0, 59, 96
2, 142500, Note_on_c, 0, 59, 0
2, 142500, Note_on_c, 0, 62, 96
2, 142560, Note_on_c, 0, 62, 0
2, 142560, Note_on_c, 0, 71, 0
2, 142560, Note_on_c, 0, 74, 96
2, 142560, Note_on_c, 0, 57, 96
2, 142620, Note_on_c, 0, 57, 0
2, 142620, Note_on_c, 0, 74, 0
2, 142620, Note_on_c, 0, 72, 96
2, 142620, Note_on_c, 0, 62, 96
2, 142680, Note_on_c, 0, 62, 0
2, 142680, Note_on_c, 0, 72, 0
2, 142680, Note_on_c, 0, 71, 96
2, 142680, Note_on_c, 0, 60, 96
2, 142740, Note_on_c, 0, 60, 0
2, 142740, Note_on_c, 0, 71, 0
2, 142740, Note_on_c, 0, 72, 96
2, 142740, Note_on_c, 0, 62, 96
2, 142800, Note_on_c, 0, 62, 0
2, 142800, Note_on_c, 0, 72, 0
2, 142800, Note_on_c, 0, 74, 96
2, 142800, Note_on_c, 0, 55, 96
2, 142860, Note_on_c, 0, 55, 0
2, 142860, Note_on_c, 0, 62, 96
2, 142920, Note_on_c, 0, 62, 0
2, 142920, Note_on_c, 0, 59, 96
2, 142980, Note_on_c, 0, 59, 0
2, 142980, Note_on_c, 0, 74, 0
2, 142980, Note_on_c, 0, 71, 96
2, 142980, Note_on_c, 0, 62, 96
2, 143040, Note_on_c, 0, 62, 0
2, 143040, Note_on_c, 0, 71, 0
2, 143040, Note_on_c, 0, 67, 96
2, 143040, Note_on_c, 0, 55, 96
2, 143100, Note_on_c, 0, 55, 0
2, 143100, Note_on_c, 0, 62, 96
2, 143160, Note_on_c, 0, 62, 0
2, 143160, Note_on_c, 0, 59, 96
2, 143220, Note_on_c, 0, 59, 0
2, 143220, Note_on_c, 0, 62, 96
2, 143280, Note_on_c, 0, 62, 0
2, 143280, Note_on_c, 0, 67, 0
2, 143280, Note_on_c, 0, 55, 96
2, 143340, Note_on_c, 0, 55, 0
2, 143340, Note_on_c, 0, 62, 96
2, 143400, Note_on_c, 0, 62, 0
2, 143400, Note_on_c, 0, 59, 96
2, 143460, Note_on_c, 0, 59, 0
2, 143460, Note_on_c, 0, 62, 96
2, 143520, Note_on_c, 0, 62, 0
2, 143520, Note_on_c, 0, 79, 96
2, 143520, Note_on_c, 0, 55, 96
2, 143580, Note_on_c, 0, 55, 0
2, 143580, Note_on_c, 0, 64, 96
2, 143640, Note_on_c, 0, 64, 0
2, 143640, Note_on_c, 0, 60, 96
2, 143700, Note_on_c, 0, 60, 0
2, 143700, Note_on_c, 0, 64, 96
2, 143760, Note_on_c, 0, 64, 0
2, 143760, Note_on_c, 0, 55, 96
2, 143820, Note_on_c, 0, 55, 0
2, 143820, Note_on_c, 0, 64, 96
2, 143880, Note_on_c, 0, 64, 0
2, 143880, Note_on_c, 0, 79, 0
2, 143880, Note_on_c, 0, 81, 96
2, 143880, Note_on_c, 0, 60, 96
2, 143940, Note_on_c, 0, 60, 0
2, 143940, Note_on_c, 0, 81, 0
2, 143940, Note_on_c, 0, 79, 96
2, 143940, Note_on_c, 0, 64, 96
2, 144000, Note_on_c, 0, 64, 0
2, 144000, Note_on_c, 0, 79, 0
2, 144000, Note_on_c, 0, 78, 96
2, 144000, Note_on_c, 0, 55, 96
2, 144060, Note_on_c, 0, 55, 0
2, 144060, Note_on_c, 0, 78, 0
2, 144060, Note_on_c, 0, 76, 96
2, 144060, Note_on_c, 0, 61, 96
2, 144120, Note_on_c, 0, 61, 0
2, 144120, Note_on_c, 0, 76, 0
2, 144120, Note_on_c, 0, 74, 96
2, 144120, Note_on_c, 0, 58, 96
2, 144180, Note_on_c, 0, 58, 0
2, 144180, Note_on_c, 0, 74, 0
2, 144180, Note_on_c, 0, 73, 96
2, 144180, Note_on_c, 0, 61, 96
2, 144240, Note_on_c, 0, 61, 0
2, 144240, Note_on_c, 0, 73, 0
2, 144240, Note_on_c, 0, 74, 96
2, 144240, Note_on_c, 0, 55, 96
2, 144300, Note_on_c, 0, 55, 0
2, 144300, Note_on_c, 0, 62, 96
2, 144360, Note_on_c, 0, 62, 0
2, 144360, Note_on_c, 0, 59, 96
2, 144420, Note_on_c, 0, 59, 0
2, 144420, Note_on_c, 0, 74, 0
2, 144420, Note_on_c, 0, 71, 96
2, 144420, Note_on_c, 0, 62, 96
2, 144480, Note_on_c, 0, 62, 0
2, 144480, Note_on_c, 0, 71, 0
2, 144480, Note_on_c, 0, 67, 96
2, 144480, Note_on_c, 0, 55, 96
2, 144540, Note_on_c, 0, 55, 0
2, 144540, Note_on_c, 0, 62, 96
2, 144600, Note_on_c, 0, 62, 0
2, 144600, Note_on_c, 0, 59, 96
2, 144660, Note_on_c, 0, 59, 0
2, 144660, Note_on_c, 0, 62, 96
2, 144720, Note_on_c, 0, 62, 0
2, 144720, Note_on_c, 0, 67, 0
2, 144720, Note_on_c, 0, 55, 96
2, 144780, Note_on_c, 0, 55, 0
2, 144780, Note_on_c, 0, 62, 96
2, 144840, Note_on_c, 0, 62, 0
2, 144840, Note_on_c, 0, 59, 96
2, 144900, Note_on_c, 0, 59, 0
2, 144900, Note_on_c, 0, 62, 96
2, 144960, Note_on_c, 0, 62, 0
2, 144960, Note_on_c, 0, 72, 96
2, 144960, Note_on_c, 0, 57, 96
2, 145020, Note_on_c, 0, 57, 0
2, 145020, Note_on_c, 0, 62, 96
2, 145080, Note_on_c, 0, 62, 0
2, 145080, Note_on_c, 0, 60, 96
2, 145140, Note_on_c, 0, 60, 0
2, 145140, Note_on_c, 0, 72, 0
2, 145140, Note_on_c, 0, 69, 96
2, 145140, Note_on_c, 0, 62, 96
2, 145200, Note_on_c, 0, 62, 0
2, 145200, Note_on_c, 0, 69, 0
2, 145200, Note_on_c, 0, 66, 96
2, 145200, Note_on_c, 0, 57, 96
2, 145260, Note_on_c, 0, 57, 0
2, 145260, Note_on_c, 0, 62, 96
2, 145320, Note_on_c, 0, 62, 0
2, 145320, Note_on_c, 0, 66, 0
2, 145320, Note_on_c, 0, 69, 96
2, 145320, Note_on_c, 0, 60, 96
2, 145380, Note_on_c, 0, 60, 0
2, 145380, Note_on_c, 0, 62, 96
2, 145440, Note_on_c, 0, 62, 0
2, 145440, Note_on_c, 0, 69, 0
2, 145440, Note_on_c, 0, 71, 96
2, 145440, Note_on_c, 0, 57, 96
2, 145500, Note_on_c, 0, 57, 0
2, 145500, Note_on_c, 0, 62, 96
2, 145560, Note_on_c, 0, 62, 0
2, 145560, Note_on_c, 0, 71, 0
2, 145560, Note_on_c, 0, 72, 96
2, 145560, Note_on_c, 0, 60, 96
2, 145620, Note_on_c, 0, 60, 0
2, 145620, Note_on_c, 0, 62, 96
2, 145680, Note_on_c, 0, 62, 0
2, 145680, Note_on_c, 0, 72, 0
2, 145680, Note_on_c, 0, 74, 96
2, 145680, Note_on_c, 0, 55, 96
2, 145740, Note_on_c, 0, 55, 0
2, 145740, Note_on_c, 0, 62, 96
2, 145800, Note_on_c, 0, 62, 0
2, 145800, Note_on_c, 0, 59, 96
2, 145860, Note_on_c, 0, 59, 0
2, 145860, Note_on_c, 0, 74, 0
2, 145860, Note_on_c, 0, 71, 96
2, 145860, Note_on_c, 0, 62, 96
2, 145920, Note_on_c, 0, 62, 0
2, 145920, Note_on_c, 0, 71, 0
2, 145920, Note_on_c, 0, 79, 96
2, 145920, Note_on_c, 0, 52, 96
2, 145980, Note_on_c, 0, 52, 0
2, 145980, Note_on_c, 0, 59, 96
2, 146040, Note_on_c, 0, 59, 0
2, 146040, Note_on_c, 0, 55, 96
2, 146100, Note_on_c, 0, 55, 0
2, 146100, Note_on_c, 0, 59, 96
2, 146160, Note_on_c, 0, 59, 0
2, 146160, Note_on_c, 0, 79, 0
2, 146160, Note_on_c, 0, 47, 96
2, 146220, Note_on_c, 0, 47, 0
2, 146220, Note_on_c, 0, 55, 96
2, 146280, Note_on_c, 0, 55, 0
2, 146280, Note_on_c, 0, 50, 96
2, 146340, Note_on_c, 0, 50, 0
2, 146340, Note_on_c, 0, 55, 96
2, 146400, Note_on_c, 0, 55, 0
2, 146400, Note_on_c, 0, 81, 96
2, 146400, Note_on_c, 0, 48, 96
2, 146400, Note_on_c, 0, 52, 96
2, 146460, Note_on_c, 0, 81, 0
2, 146460, Note_on_c, 0, 79, 96
2, 146520, Note_on_c, 0, 79, 0
2, 146520, Note_on_c, 0, 78, 96
2, 146580, Note_on_c, 0, 78, 0
2, 146580, Note_on_c, 0, 79, 96
2, 146640, Note_on_c, 0, 79, 0
2, 146640, Note_on_c, 0, 52, 0
2, 146640, Note_on_c, 0, 55, 96
2, 146640, Note_on_c, 0, 78, 96
2, 146700, Note_on_c, 0, 78, 0
2, 146700, Note_on_c, 0, 76, 96
2, 146760, Note_on_c, 0, 76, 0
2, 146760, Note_on_c, 0, 75, 96
2, 146820, Note_on_c, 0, 75, 0
2, 146820, Note_on_c, 0, 76, 96
2, 146880, Note_on_c, 0, 76, 0
2, 146880, Note_on_c, 0, 48, 0
2, 146880, Note_on_c, 0, 52, 96
2, 146880, Note_on_c, 0, 74, 96
2, 146940, Note_on_c, 0, 74, 0
2, 146940, Note_on_c, 0, 72, 96
2, 147000, Note_on_c, 0, 72, 0
2, 147000, Note_on_c, 0, 71, 96
2, 147060, Note_on_c, 0, 71, 0
2, 147060, Note_on_c, 0, 72, 96
2, 147120, Note_on_c, 0, 72, 0
2, 147120, Note_on_c, 0, 52, 0
2, 147120, Note_on_c, 0, 55, 0
2, 147120, Note_on_c, 0, 71, 96
2, 147120, Note_on_c, 0, 50, 96
2, 147120, Note_on_c, 0, 55, 96
2, 147300, Note_on_c, 0, 71, 0
2, 147300, Note_on_c, 0, 72, 96
2, 147330, Note_on_c, 0, 72, 0
2, 147330, Note_on_c, 0, 71, 96
2, 147360, Note_on_c, 0, 71, 0
2, 147360, Note_on_c, 0, 55, 0
2, 147360, Note_on_c, 0, 69, 96
2, 147360, Note_on_c, 0, 54, 96
2, 147480, Note_on_c, 0, 69, 0
2, 147480, Note_on_c, 0, 74, 96
2, 147600, Note_on_c, 0, 74, 0
2, 147600, Note_on_c, 0, 54, 0
2, 147600, Note_on_c, 0, 50, 0
2, 147600, Note_on_c, 0, 73, 96
2, 147720, Note_on_c, 0, 73, 0
2, 147720, Note_on_c, 0, 72, 96
2, 147840, Note_on_c, 0, 72, 0
2, 147840, Note_on_c, 0, 71, 96
2, 147840, Note_on_c, 0, 55, 96
2, 147900, Note_on_c, 0, 55, 0
2, 147900, Note_on_c, 0, 62, 96
2, 147960, Note_on_c, 0, 62, 0
2, 147960, Note_on_c, 0, 59, 96
2, 148020, Note_on_c, 0, 59, 0
2, 148020, Note_on_c, 0, 62, 96
2, 148080, Note_on_c, 0, 62, 0
2, 148080, Note_on_c, 0, 55, 96
2, 148140, Note_on_c, 0, 55, 0
2, 148140, Note_on_c, 0, 71, 0
2, 148140, Note_on_c, 0, 67, 96
2, 148140, Note_on_c, 0, 62, 96
2, 148200, Note_on_c, 0, 62, 0
2, 148200, Note_on_c, 0, 67, 0
2, 148200, Note_on_c, 0, 71, 96
2, 148200, Note_on_c, 0, 59, 96
2, 148260, Note_on_c, 0, 59, 0
2, 148260, Note_on_c, 0, 71, 0
2, 148260, Note_on_c, 0, 74, 96
2, 148260, Note_on_c, 0, 62, 96
2, 148320, Note_on_c, 0, 62, 0
2, 148320, Note_on_c, 0, 74, 0
2, 148320, Note_on_c, 0, 72, 96
2, 148320, Note_on_c, 0, 57, 96
2, 148380, Note_on_c, 0, 57, 0
2, 148380, Note_on_c, 0, 72, 0
2, 148380, Note_on_c, 0, 69, 96
2, 148380, Note_on_c, 0, 62, 96
2, 148440, Note_on_c, 0, 62, 0
2, 148440, Note_on_c, 0, 69, 0
2, 148440, Note_on_c, 0, 72, 96
2, 148440, Note_on_c, 0, 60, 96
2, 148500, Note_on_c, 0, 60, 0
2, 148500, Note_on_c, 0, 72, 0
2, 148500, Note_on_c, 0, 76, 96
2, 148500, Note_on_c, 0, 62, 96
2, 148560, Note_on_c, 0, 62, 0
2, 148560, Note_on_c, 0, 76, 0
2, 148560, Note_on_c, 0, 74, 96
2, 148560, Note_on_c, 0, 55, 96
2, 148620, Note_on_c, 0, 55, 0
2, 148620, Note_on_c, 0, 62, 96
2, 148680, Note_on_c, 0, 62, 0
2, 148680, Note_on_c, 0, 59, 96
2, 148740, Note_on_c, 0, 59, 0
2, 148740, Note_on_c, 0, 74, 0
2, 148740, Note_on_c, 0, 71, 96
2, 148740, Note_on_c, 0, 62, 96
2, 148800, Note_on_c, 0, 62, 0
2, 148800, Note_on_c, 0, 71, 0
2, 148800, Note_on_c, 0, 67, 96
2, 148800, Note_on_c, 0, 55, 96
2, 148860, Note_on_c, 0, 55, 0
2, 148860, Note_on_c, 0, 67, 0
2, 148860, Note_on_c, 0, 67, 96
2, 148860, Note_on_c, 0, 62, 96
2, 148920, Note_on_c, 0, 62, 0
2, 148920, Note_on_c, 0, 67, 0
2, 148920, Note_on_c, 0, 69, 96
2, 148920, Note_on_c, 0, 59, 96
2, 148980, Note_on_c, 0, 59, 0
2, 148980, Note_on_c, 0, 69, 0
2, 148980, Note_on_c, 0, 71, 96
2, 148980, Note_on_c, 0, 62, 96
2, 149040, Note_on_c, 0, 62, 0
2, 149040, Note_on_c, 0, 71, 0
2, 149040, Note_on_c, 0, 72, 96
2, 149040, Note_on_c, 0, 55, 96
2, 149100, Note_on_c, 0, 55, 0
2, 149100, Note_on_c, 0, 72, 0
2, 149100, Note_on_c, 0, 74, 96
2, 149100, Note_on_c, 0, 62, 96
2, 149160, Note_on_c, 0, 62, 0
2, 149160, Note_on_c, 0, 74, 0
2, 149160, Note_on_c, 0, 76, 96
2, 149160, Note_on_c, 0, 59, 96
2, 149220, Note_on_c, 0, 59, 0
2, 149220, Note_on_c, 0, 76, 0
2, 149220, Note_on_c, 0, 78, 96
2, 149220, Note_on_c, 0, 62, 96
2, 149280, Note_on_c, 0, 62, 0
2, 149280, Note_on_c, 0, 78, 0
2, 149280, Note_on_c, 0, 79, 96
2, 149280, Note_on_c, 0, 55, 96
2, 149340, Note_on_c, 0, 55, 0
2, 149340, Note_on_c, 0, 79, 0
2, 149340, Note_on_c, 0, 78, 96
2, 149340, Note_on_c, 0, 64, 96
2, 149400, Note_on_c, 0, 64, 0
2, 149400, Note_on_c, 0, 78, 0
2, 149400, Note_on_c, 0, 79, 96
2, 149400, Note_on_c, 0, 60, 96
2, 149460, Note_on_c, 0, 60, 0
2, 149460, Note_on_c, 0, 79, 0
2, 149460, Note_on_c, 0, 78, 96
2, 149460, Note_on_c, 0, 64, 96
2, 149520, Note_on_c, 0, 64, 0
2, 149520, Note_on_c, 0, 78, 0
2, 149520, Note_on_c, 0, 81, 96
2, 149520, Note_on_c, 0, 55, 96
2, 149580, Note_on_c, 0, 55, 0
2, 149580, Note_on_c, 0, 81, 0
2, 149580, Note_on_c, 0, 79, 96
2, 149580, Note_on_c, 0, 64, 96
2, 149640, Note_on_c, 0, 64, 0
2, 149640, Note_on_c, 0, 79, 0
2, 149640, Note_on_c, 0, 78, 96
2, 149640, Note_on_c, 0, 60, 96
2, 149700, Note_on_c, 0, 60, 0
2, 149700, Note_on_c, 0, 78, 0
2, 149700, Note_on_c, 0, 79, 96
2, 149700, Note_on_c, 0, 64, 96
2, 149760, Note_on_c, 0, 64, 0
2, 149760, Note_on_c, 0, 79, 0
2, 149760, Note_on_c, 0, 78, 96
2, 149760, Note_on_c, 0, 55, 96
2, 149820, Note_on_c, 0, 55, 0
2, 149820, Note_on_c, 0, 78, 0
2, 149820, Note_on_c, 0, 76, 96
2, 149820, Note_on_c, 0, 61, 96
2, 149880, Note_on_c, 0, 61, 0
2, 149880, Note_on_c, 0, 76, 0
2, 149880, Note_on_c, 0, 74, 96
2, 149880, Note_on_c, 0, 58, 96
2, 149940, Note_on_c, 0, 58, 0
2, 149940, Note_on_c, 0, 74, 0
2, 149940, Note_on_c, 0, 73, 96
2, 149940, Note_on_c, 0, 61, 96
2, 150000, Note_on_c, 0, 61, 0
2, 150000, Note_on_c, 0, 73, 0
2, 150000, Note_on_c, 0, 74, 96
2, 150000, Note_on_c, 0, 55, 96
2, 150060, Note_on_c, 0, 55, 0
2, 150060, Note_on_c, 0, 74, 0
2, 150060, Note_on_c, 0, 71, 96
2, 150060, Note_on_c, 0, 62, 96
2, 150120, Note_on_c, 0, 62, 0
2, 150120, Note_on_c, 0, 71, 0
2, 150120, Note_on_c, 0, 74, 96
2, 150120, Note_on_c, 0, 59, 96
2, 150180, Note_on_c, 0, 59, 0
2, 150180, Note_on_c, 0, 74, 0
2, 150180, Note_on_c, 0, 71, 96
2, 150180, Note_on_c, 0, 62, 96
2, 150240, Note_on_c, 0, 62, 0
2, 150240, Note_on_c, 0, 71, 0
2, 150240, Note_on_c, 0, 67, 96
2, 150240, Note_on_c, 0, 55, 96
2, 150300, Note_on_c, 0, 55, 0
2, 150300, Note_on_c, 0, 62, 96
2, 150360, Note_on_c, 0, 62, 0
2, 150360, Note_on_c, 0, 59, 96
2, 150420, Note_on_c, 0, 59, 0
2, 150420, Note_on_c, 0, 62, 96
2, 150480, Note_on_c, 0, 62, 0
2, 150480, Note_on_c, 0, 67, 0
2, 150480, Note_on_c, 0, 55, 96
2, 150540, Note_on_c, 0, 55, 0
2, 150540, Note_on_c, 0, 62, 96
2, 150600, Note_on_c, 0, 62, 0
2, 150600, Note_on_c, 0, 59, 96
2, 150660, Note_on_c, 0, 59, 0
2, 150660, Note_on_c, 0, 62, 96
2, 150720, Note_on_c, 0, 62, 0
2, 150720, Note_on_c, 0, 72, 96
2, 150720, Note_on_c, 0, 57, 96
2, 150780, Note_on_c, 0, 57, 0
2, 150780, Note_on_c, 0, 72, 0
2, 150780, Note_on_c, 0, 69, 96
2, 150780, Note_on_c, 0, 62, 96
2, 150840, Note_on_c, 0, 62, 0
2, 150840, Note_on_c, 0, 69, 0
2, 150840, Note_on_c, 0, 72, 96
2, 150840, Note_on_c, 0, 60, 96
2, 150900, Note_on_c, 0, 60, 0
2, 150900, Note_on_c, 0, 72, 0
2, 150900, Note_on_c, 0, 69, 96
2, 150900, Note_on_c, 0, 62, 96
2, 150960, Note_on_c, 0, 62, 0
2, 150960, Note_on_c, 0, 69, 0
2, 150960, Note_on_c, 0, 66, 96
2, 150960, Note_on_c, 0, 57, 96
2, 151020, Note_on_c, 0, 57, 0
2, 151020, Note_on_c, 0, 66, 0
2, 151020, Note_on_c, 0, 69, 96
2, 151020, Note_on_c, 0, 62, 96
2, 151080, Note_on_c, 0, 62, 0
2, 151080, Note_on_c, 0, 69, 0
2, 151080, Note_on_c, 0, 68, 96
2, 151080, Note_on_c, 0, 60, 96
2, 151140, Note_on_c, 0, 60, 0
2, 151140, Note_on_c, 0, 68, 0
2, 151140, Note_on_c, 0, 69, 96
2, 151140, Note_on_c, 0, 62, 96
2, 151200, Note_on_c, 0, 62, 0
2, 151200, Note_on_c, 0, 69, 0
2, 151200, Note_on_c, 0, 70, 96
2, 151200, Note_on_c, 0, 57, 96
2, 151260, Note_on_c, 0, 57, 0
2, 151260, Note_on_c, 0, 70, 0
2, 151260, Note_on_c, 0, 71, 96
2, 151260, Note_on_c, 0, 62, 96
2, 151320, Note_on_c, 0, 62, 0
2, 151320, Note_on_c, 0, 71, 0
2, 151320, Note_on_c, 0, 72, 96
2, 151320, Note_on_c, 0, 60, 96
2, 151380, Note_on_c, 0, 60, 0
2, 151380, Note_on_c, 0, 72, 0
2, 151380, Note_on_c, 0, 73, 96
2, 151380, Note_on_c, 0, 62, 96
2, 151440, Note_on_c, 0, 62, 0
2, 151440, Note_on_c, 0, 73, 0
2, 151440, Note_on_c, 0, 74, 96
2, 151440, Note_on_c, 0, 55, 96
2, 151500, Note_on_c, 0, 55, 0
2, 151500, Note_on_c, 0, 74, 0
2, 151500, Note_on_c, 0, 71, 96
2, 151500, Note_on_c, 0, 62, 96
2, 151560, Note_on_c, 0, 62, 0
2, 151560, Note_on_c, 0, 71, 0
2, 151560, Note_on_c, 0, 74, 96
2, 151560, Note_on_c, 0, 59, 96
2, 151620, Note_on_c, 0, 59, 0
2, 151620, Note_on_c, 0, 74, 0
2, 151620, Note_on_c, 0, 71, 96
2, 151620, Note_on_c, 0, 62, 96
2, 151680, Note_on_c, 0, 62, 0
2, 151680, Note_on_c, 0, 71, 0
2, 151680, Note_on_c, 0, 79, 96
2, 151680, Note_on_c, 0, 52, 96
2, 151740, Note_on_c, 0, 52, 0
2, 151740, Note_on_c, 0, 59, 96
2, 151800, Note_on_c, 0, 59, 0
2, 151800, Note_on_c, 0, 55, 96
2, 151860, Note_on_c, 0, 55, 0
2, 151860, Note_on_c, 0, 59, 96
2, 151920, Note_on_c, 0, 59, 0
2, 151920, Note_on_c, 0, 79, 0
2, 151920, Note_on_c, 0, 47, 96
2, 151980, Note_on_c, 0, 47, 0
2, 151980, Note_on_c, 0, 83, 96
2, 151980, Note_on_c, 0, 55, 96
2, 152040, Note_on_c, 0, 55, 0
2, 152040, Note_on_c, 0, 83, 0
2, 152040, Note_on_c, 0, 78, 96
2, 152040, Note_on_c, 0, 50, 96
2, 152100, Note_on_c, 0, 50, 0
2, 152100, Note_on_c, 0, 78, 0
2, 152100, Note_on_c, 0, 55, 96
2, 152100, Note_on_c, 0, 79, 96
2, 152160, Note_on_c, 0, 79, 0
2, 152160, Note_on_c, 0, 55, 0
2, 152160, Note_on_c, 0, 75, 96
2, 152160, Note_on_c, 0, 48, 96
2, 152220, Note_on_c, 0, 48, 0
2, 152220, Note_on_c, 0, 75, 0
2, 152220, Note_on_c, 0, 76, 96
2, 152220, Note_on_c, 0, 57, 96
2, 152280, Note_on_c, 0, 57, 0
2, 152280, Note_on_c, 0, 76, 0
2, 152280, Note_on_c, 0, 72, 96
2, 152280, Note_on_c, 0, 52, 96
2, 152340, Note_on_c, 0, 52, 0
2, 152340, Note_on_c, 0, 72, 0
2, 152340, Note_on_c, 0, 69, 96
2, 152340, Note_on_c, 0, 57, 96
2, 152400, Note_on_c, 0, 57, 0
2, 152400, Note_on_c, 0, 69, 0
2, 152400, Note_on_c, 0, 67, 96
2, 152400, Note_on_c, 0, 50, 96
2, 152460, Note_on_c, 0, 50, 0
2, 152460, Note_on_c, 0, 59, 96
2, 152520, Note_on_c, 0, 59, 0
2, 152520, Note_on_c, 0, 55, 96
2, 152580, Note_on_c, 0, 55, 0
2, 152580, Note_on_c, 0, 67, 0
2, 152580, Note_on_c, 0, 67, 96
2, 152580, Note_on_c, 0, 59, 96
2, 152640, Note_on_c, 0, 59, 0
2, 152640, Note_on_c, 0, 67, 0
2, 152640, Note_on_c, 0, 66, 96
2, 152640, Note_on_c, 0, 71, 96
2, 152640, Note_on_c, 0, 50, 96
2, 152700, Note_on_c, 0, 50, 0
2, 152700, Note_on_c, 0, 71, 0
2, 152700, Note_on_c, 0, 69, 96
2, 152700, Note_on_c, 0, 60, 96
2, 152760, Note_on_c, 0, 60, 0
2, 152760, Note_on_c, 0, 69, 0
2, 152760, Note_on_c, 0, 67, 96
2, 152760, Note_on_c, 0, 57, 96
2, 152820, Note_on_c, 0, 57, 0
2, 152820, Note_on_c, 0, 67, 0
2, 152820, Note_on_c, 0, 69, 96
2, 152820, Note_on_c, 0, 60, 96
2, 152880, Note_on_c, 0, 60, 0
2, 152880, Note_on_c, 0, 69, 0
2, 152880, Note_on_c, 0, 66, 0
2, 152880, Note_on_c, 0, 66, 96
2, 152880, Note_on_c, 0, 69, 96
2, 152880, Note_on_c, 0, 55, 96
2, 152880, Note_on_c, 0, 60, 96
2, 153120, Note_on_c, 0, 60, 0
2, 153120, Note_on_c, 0, 66, 0
2, 153120, Note_on_c, 0, 69, 0
2, 153120, Note_on_c, 0, 67, 96
2, 153120, Note_on_c, 0, 59, 96
2, 153360, Note_on_c, 0, 59, 0
2, 153360, Note_on_c, 0, 67, 0
2, 153360, Note_on_c, 0, 55, 0
2, 153600, Note_on_c, 0, 71, 96
2, 153600, Note_on_c, 0, 55, 96
2, 153660, Note_on_c, 0, 55, 0
2, 153660, Note_on_c, 0, 62, 96
2, 153720, Note_on_c, 0, 62, 0
2, 153720, Note_on_c, 0, 59, 96
2, 153780, Note_on_c, 0, 59, 0
2, 153780, Note_on_c, 0, 62, 96
2, 153840, Note_on_c, 0, 62, 0
2, 153840, Note_on_c, 0, 55, 96
2, 153900, Note_on_c, 0, 55, 0
2, 153900, Note_on_c, 0, 62, 96
2, 153960, Note_on_c, 0, 62, 0
2, 153960, Note_on_c, 0, 59, 96
2, 154020, Note_on_c, 0, 59, 0
2, 154020, Note_on_c, 0, 62, 96
2, 154080, Note_on_c, 0, 62, 0
2, 154080, Note_on_c, 0, 71, 0
2, 154080, Note_on_c, 0, 74, 96
2, 154080, Note_on_c, 0, 57, 96
2, 154140, Note_on_c, 0, 57, 0
2, 154140, Note_on_c, 0, 74, 0
2, 154140, Note_on_c, 0, 72, 96
2, 154140, Note_on_c, 0, 62, 96
2, 154200, Note_on_c, 0, 62, 0
2, 154200, Note_on_c, 0, 72, 0
2, 154200, Note_on_c, 0, 71, 96
2, 154200, Note_on_c, 0, 60, 96
2, 154260, Note_on_c, 0, 60, 0
2, 154260, Note_on_c, 0, 71, 0
2, 154260, Note_on_c, 0, 72, 96
2, 154260, Note_on_c, 0, 62, 96
2, 154320, Note_on_c, 0, 62, 0
2, 154320, Note_on_c, 0, 72, 0
2, 154320, Note_on_c, 0, 74, 96
2, 154320, Note_on_c, 0, 55, 96
2, 154380, Note_on_c, 0, 55, 0
2, 154380, Note_on_c, 0, 62, 96
2, 154440, Note_on_c, 0, 62, 0
2, 154440, Note_on_c, 0, 59, 96
2, 154500, Note_on_c, 0, 59, 0
2, 154500, Note_on_c, 0, 74, 0
2, 154500, Note_on_c, 0, 71, 96
2, 154500, Note_on_c, 0, 62, 96
2, 154560, Note_on_c, 0, 62, 0
2, 154560, Note_on_c, 0, 71, 0
2, 154560, Note_on_c, 0, 67, 96
2, 154560, Note_on_c, 0, 55, 96
2, 154620, Note_on_c, 0, 55, 0
2, 154620, Note_on_c, 0, 62, 96
2, 154680, Note_on_c, 0, 62, 0
2, 154680, Note_on_c, 0, 59, 96
2, 154740, Note_on_c, 0, 59, 0
2, 154740, Note_on_c, 0, 62, 96
2, 154800, Note_on_c, 0, 62, 0
2, 154800, Note_on_c, 0, 67, 0
2, 154800, Note_on_c, 0, 55, 96
2, 154860, Note_on_c, 0, 55, 0
2, 154860, Note_on_c, 0, 62, 96
2, 154920, Note_on_c, 0, 62, 0
2, 154920, Note_on_c, 0, 59, 96
2, 154980, Note_on_c, 0, 59, 0
2, 154980, Note_on_c, 0, 62, 96
2, 155040, Note_on_c, 0, 62, 0
2, 155040, Note_on_c, 0, 79, 96
2, 155040, Note_on_c, 0, 55, 96
2, 155100, Note_on_c, 0, 55, 0
2, 155100, Note_on_c, 0, 64, 96
2, 155160, Note_on_c, 0, 64, 0
2, 155160, Note_on_c, 0, 60, 96
2, 155220, Note_on_c, 0, 60, 0
2, 155220, Note_on_c, 0, 64, 96
2, 155280, Note_on_c, 0, 64, 0
2, 155280, Note_on_c, 0, 55, 96
2, 155340, Note_on_c, 0, 55, 0
2, 155340, Note_on_c, 0, 64, 96
2, 155400, Note_on_c, 0, 64, 0
2, 155400, Note_on_c, 0, 79, 0
2, 155400, Note_on_c, 0, 81, 96
2, 155400, Note_on_c, 0, 60, 96
2, 155460, Note_on_c, 0, 60, 0
2, 155460, Note_on_c, 0, 81, 0
2, 155460, Note_on_c, 0, 79, 96
2, 155460, Note_on_c, 0, 64, 96
2, 155520, Note_on_c, 0, 64, 0
2, 155520, Note_on_c, 0, 79, 0
2, 155520, Note_on_c, 0, 78, 96
2, 155520, Note_on_c, 0, 55, 96
2, 155580, Note_on_c, 0, 55, 0
2, 155580, Note_on_c, 0, 78, 0
2, 155580, Note_on_c, 0, 76, 96
2, 155580, Note_on_c, 0, 61, 96
2, 155640, Note_on_c, 0, 61, 0
2, 155640, Note_on_c, 0, 76, 0
2, 155640, Note_on_c, 0, 74, 96
2, 155640, Note_on_c, 0, 58, 96
2, 155700, Note_on_c, 0, 58, 0
2, 155700, Note_on_c, 0, 74, 0
2, 155700, Note_on_c, 0, 73, 96
2, 155700, Note_on_c, 0, 61, 96
2, 155760, Note_on_c, 0, 61, 0
2, 155760, Note_on_c, 0, 73, 0
2, 155760, Note_on_c, 0, 74, 96
2, 155760, Note_on_c, 0, 55, 96
2, 155820, Note_on_c, 0, 55, 0
2, 155820, Note_on_c, 0, 62, 96
2, 155880, Note_on_c, 0, 62, 0
2, 155880, Note_on_c, 0, 59, 96
2, 155940, Note_on_c, 0, 59, 0
2, 155940, Note_on_c, 0, 74, 0
2, 155940, Note_on_c, 0, 71, 96
2, 155940, Note_on_c, 0, 62, 96
2, 156000, Note_on_c, 0, 62, 0
2, 156000, Note_on_c, 0, 71, 0
2, 156000, Note_on_c, 0, 67, 96
2, 156000, Note_on_c, 0, 55, 96
2, 156060, Note_on_c, 0, 55, 0
2, 156060, Note_on_c, 0, 62, 96
2, 156120, Note_on_c, 0, 62, 0
2, 156120, Note_on_c, 0, 59, 96
2, 156180, Note_on_c, 0, 59, 0
2, 156180, Note_on_c, 0, 62, 96
2, 156240, Note_on_c, 0, 62, 0
2, 156240, Note_on_c, 0, 67, 0
2, 156240, Note_on_c, 0, 55, 96
2, 156300, Note_on_c, 0, 55, 0
2, 156300, Note_on_c, 0, 62, 96
2, 156360, Note_on_c, 0, 62, 0
2, 156360, Note_on_c, 0, 59, 96
2, 156420, Note_on_c, 0, 59, 0
2, 156420, Note_on_c, 0, 62, 96
2, 156480, Note_on_c, 0, 62, 0
2, 156480, Note_on_c, 0, 72, 96
2, 156480, Note_on_c, 0, 57, 96
2, 156540, Note_on_c, 0, 57, 0
2, 156540, Note_on_c, 0, 62, 96
2, 156600, Note_on_c, 0, 62, 0
2, 156600, Note_on_c, 0, 60, 96
2, 156660, Note_on_c, 0, 60, 0
2, 156660, Note_on_c, 0, 72, 0
2, 156660, Note_on_c, 0, 69, 96
2, 156660, Note_on_c, 0, 62, 96
2, 156720, Note_on_c, 0, 62, 0
2, 156720, Note_on_c, 0, 69, 0
2, 156720, Note_on_c, 0, 66, 96
2, 156720, Note_on_c, 0, 57, 96
2, 156780, Note_on_c, 0, 57, 0
2, 156780, Note_on_c, 0, 62, 96
2, 156840, Note_on_c, 0, 62, 0
2, 156840, Note_on_c, 0, 66, 0
2, 156840, Note_on_c, 0, 69, 96
2, 156840, Note_on_c, 0, 60, 96
2, 156900, Note_on_c, 0, 60, 0
2, 156900, Note_on_c, 0, 62, 96
2, 156960, Note_on_c, 0, 62, 0
2, 156960, Note_on_c, 0, 69, 0
2, 156960, Note_on_c, 0, 71, 96
2, 156960, Note_on_c, 0, 57, 96
2, 157020, Note_on_c, 0, 57, 0
2, 157020, Note_on_c, 0, 62, 96
2, 157080, Note_on_c, 0, 62, 0
2, 157080, Note_on_c, 0, 71, 0
2, 157080, Note_on_c, 0, 72, 96
2, 157080, Note_on_c, 0, 60, 96
2, 157140, Note_on_c, 0, 60, 0
2, 157140, Note_on_c, 0, 62, 96
2, 157200, Note_on_c, 0, 62, 0
2, 157200, Note_on_c, 0, 72, 0
2, 157200, Note_on_c, 0, 74, 96
2, 157200, Note_on_c, 0, 55, 96
2, 157260, Note_on_c, 0, 55, 0
2, 157260, Note_on_c, 0, 62, 96
2, 157320, Note_on_c, 0, 62, 0
2, 157320, Note_on_c, 0, 59, 96
2, 157380, Note_on_c, 0, 59, 0
2, 157380, Note_on_c, 0, 74, 0
2, 157380, Note_on_c, 0, 71, 96
2, 157380, Note_on_c, 0, 62, 96
2, 157440, Note_on_c, 0, 62, 0
2, 157440, Note_on_c, 0, 71, 0
2, 157440, Note_on_c, 0, 79, 96
2, 157440, Note_on_c, 0, 52, 96
2, 157500, Note_on_c, 0, 52, 0
2, 157500, Note_on_c, 0, 59, 96
2, 157560, Note_on_c, 0, 59, 0
2, 157560, Note_on_c, 0, 55, 96
2, 157620, Note_on_c, 0, 55, 0
2, 157620, Note_on_c, 0, 59, 96
2, 157680, Note_on_c, 0, 59, 0
2, 157680, Note_on_c, 0, 79, 0
2, 157680, Note_on_c, 0, 47, 96
2, 157740, Note_on_c, 0, 47, 0
2, 157740, Note_on_c, 0, 55, 96
2, 157800, Note_on_c, 0, 55, 0
2, 157800, Note_on_c, 0, 50, 96
2, 157860, Note_on_c, 0, 50, 0
2, 157860, Note_on_c, 0, 55, 96
2, 157920, Note_on_c, 0, 55, 0
2, 157920, Note_on_c, 0, 81, 96
2, 157920, Note_on_c, 0, 48, 96
2, 157920, Note_on_c, 0, 52, 96
2, 157980, Note_on_c, 0, 81, 0
2, 157980, Note_on_c, 0, 79, 96
2, 158040, Note_on_c, 0, 79, 0
2, 158040, Note_on_c, 0, 78, 96
2, 158100, Note_on_c, 0, 78, 0
2, 158100, Note_on_c, 0, 79, 96
2, 158160, Note_on_c, 0, 79, 0
2, 158160, Note_on_c, 0, 52, 0
2, 158160, Note_on_c, 0, 55, 96
2, 158160, Note_on_c, 0, 78, 96
2, 158220, Note_on_c, 0, 78, 0
2, 158220, Note_on_c, 0, 76, 96
2, 158280, Note_on_c, 0, 76, 0
2, 158280, Note_on_c, 0, 75, 96
2, 158340, Note_on_c, 0, 75, 0
2, 158340, Note_on_c, 0, 76, 96
2, 158400, Note_on_c, 0, 76, 0
2, 158400, Note_on_c, 0, 48, 0
2, 158400, Note_on_c, 0, 52, 96
2, 158400, Note_on_c, 0, 74, 96
2, 158460, Note_on_c, 0, 74, 0
2, 158460, Note_on_c, 0, 72, 96
2, 158520, Note_on_c, 0, 72, 0
2, 158520, Note_on_c, 0, 71, 96
2, 158580, Note_on_c, 0, 71, 0
2, 158580, Note_on_c, 0, 72, 96
2, 158640, Note_on_c, 0, 72, 0
2, 158640, Note_on_c, 0, 52, 0
2, 158640, Note_on_c, 0, 55, 0
2, 158640, Note_on_c, 0, 71, 96
2, 158640, Note_on_c, 0, 50, 96
2, 158640, Note_on_c, 0, 55, 96
2, 158820, Note_on_c, 0, 71, 0
2, 158820, Note_on_c, 0, 72, 96
2, 158850, Note_on_c, 0, 72, 0
2, 158850, Note_on_c, 0, 71, 96
2, 158880, Note_on_c, 0, 71, 0
2, 158880, Note_on_c, 0, 55, 0
2, 158880, Note_on_c, 0, 69, 96
2, 158880, Note_on_c, 0, 54, 96
2, 159000, Note_on_c, 0, 69, 0
2, 159000, Note_on_c, 0, 74, 96
2, 159120, Note_on_c, 0, 74, 0
2, 159120, Note_on_c, 0, 54, 0
2, 159120, Note_on_c, 0, 50, 0
2, 159120, Note_on_c, 0, 73, 96
2, 159240, Note_on_c, 0, 73, 0
2, 159240, Note_on_c, 0, 72, 96
2, 159360, Note_on_c, 0, 72, 0
2, 159360, Note_on_c, 0, 71, 96
2, 159360, Note_on_c, 0, 55, 96
2, 159420, Note_on_c, 0, 55, 0
2, 159420, Note_on_c, 0, 62, 96
2, 159480, Note_on_c, 0, 62, 0
2, 159480, Note_on_c, 0, 59, 96
2, 159540, Note_on_c, 0, 59, 0
2, 159540, Note_on_c, 0, 62, 96
2, 159600, Note_on_c, 0, 62, 0
2, 159600, Note_on_c, 0, 55, 96
2, 159660, Note_on_c, 0, 55, 0
2, 159660, Note_on_c, 0, 71, 0
2, 159660, Note_on_c, 0, 67, 96
2, 159660, Note_on_c, 0, 62, 96
2, 159720, Note_on_c, 0, 62, 0
2, 159720, Note_on_c, 0, 67, 0
2, 159720, Note_on_c, 0, 71, 96
2, 159720, Note_on_c, 0, 59, 96
2, 159780, Note_on_c, 0, 59, 0
2, 159780, Note_on_c, 0, 71, 0
2, 159780, Note_on_c, 0, 74, 96
2, 159780, Note_on_c, 0, 62, 96
2, 159840, Note_on_c, 0, 62, 0
2, 159840, Note_on_c, 0, 74, 0
2, 159840, Note_on_c, 0, 72, 96
2, 159840, Note_on_c, 0, 57, 96
2, 159900, Note_on_c, 0, 57, 0
2, 159900, Note_on_c, 0, 72, 0
2, 159900, Note_on_c, 0, 69, 96
2, 159900, Note_on_c, 0, 62, 96
2, 159960, Note_on_c, 0, 62, 0
2, 159960, Note_on_c, 0, 69, 0
2, 159960, Note_on_c, 0, 72, 96
2, 159960, Note_on_c, 0, 60, 96
2, 160020, Note_on_c, 0, 60, 0
2, 160020, Note_on_c, 0, 72, 0
2, 160020, Note_on_c, 0, 76, 96
2, 160020, Note_on_c, 0, 62, 96
2, 160080, Note_on_c, 0, 62, 0
2, 160080, Note_on_c, 0, 76, 0
2, 160080, Note_on_c, 0, 74, 96
2, 160080, Note_on_c, 0, 55, 96
2, 160140, Note_on_c, 0, 55, 0
2, 160140, Note_on_c, 0, 62, 96
2, 160200, Note_on_c, 0, 62, 0
2, 160200, Note_on_c, 0, 59, 96
2, 160260, Note_on_c, 0, 59, 0
2, 160260, Note_on_c, 0, 74, 0
2, 160260, Note_on_c, 0, 71, 96
2, 160260, Note_on_c, 0, 62, 96
2, 160320, Note_on_c, 0, 62, 0
2, 160320, Note_on_c, 0, 71, 0
2, 160320, Note_on_c, 0, 67, 96
2, 160320, Note_on_c, 0, 55, 96
2, 160380, Note_on_c, 0, 55, 0
2, 160380, Note_on_c, 0, 67, 0
2, 160380, Note_on_c, 0, 67, 96
2, 160380, Note_on_c, 0, 62, 96
2, 160440, Note_on_c, 0, 62, 0
2, 160440, Note_on_c, 0, 67, 0
2, 160440, Note_on_c, 0, 69, 96
2, 160440, Note_on_c, 0, 59, 96
2, 160500, Note_on_c, 0, 59, 0
2, 160500, Note_on_c, 0, 69, 0
2, 160500, Note_on_c, 0, 71, 96
2, 160500, Note_on_c, 0, 62, 96
2, 160560, Note_on_c, 0, 62, 0
2, 160560, Note_on_c, 0, 71, 0
2, 160560, Note_on_c, 0, 72, 96
2, 160560, Note_on_c, 0, 55, 96
2, 160620, Note_on_c, 0, 55, 0
2, 160620, Note_on_c, 0, 72, 0
2, 160620, Note_on_c, 0, 74, 96
2, 160620, Note_on_c, 0, 62, 96
2, 160680, Note_on_c, 0, 62, 0
2, 160680, Note_on_c, 0, 74, 0
2, 160680, Note_on_c, 0, 76, 96
2, 160680, Note_on_c, 0, 59, 96
2, 160740, Note_on_c, 0, 59, 0
2, 160740, Note_on_c, 0, 76, 0
2, 160740, Note_on_c, 0, 78, 96
2, 160740, Note_on_c, 0, 62, 96
2, 160800, Note_on_c, 0, 62, 0
2, 160800, Note_on_c, 0, 78, 0
2, 160800, Note_on_c, 0, 79, 96
2, 160800, Note_on_c, 0, 55, 96
2, 160860, Note_on_c, 0, 55, 0
2, 160860, Note_on_c, 0, 79, 0
2, 160860, Note_on_c, 0, 78, 96
2, 160860, Note_on_c, 0, 64, 96
2, 160920, Note_on_c, 0, 64, 0
2, 160920, Note_on_c, 0, 78, 0
2, 160920, Note_on_c, 0, 79, 96
2, 160920, Note_on_c, 0, 60, 96
2, 160980, Note_on_c, 0, 60, 0
2, 160980, Note_on_c, 0, 79, 0
2, 160980, Note_on_c, 0, 78, 96
2, 160980, Note_on_c, 0, 64, 96
2, 161040, Note_on_c, 0, 64, 0
2, 161040, Note_on_c, 0, 78, 0
2, 161040, Note_on_c, 0, 81, 96
2, 161040, Note_on_c, 0, 55, 96
2, 161100, Note_on_c, 0, 55, 0
2, 161100, Note_on_c, 0, 81, 0
2, 161100, Note_on_c, 0, 79, 96
2, 161100, Note_on_c, 0, 64, 96
2, 161160, Note_on_c, 0, 64, 0
2, 161160, Note_on_c, 0, 79, 0
2, 161160, Note_on_c, 0, 78, 96
2, 161160, Note_on_c, 0, 60, 96
2, 161220, Note_on_c, 0, 60, 0
2, 161220, Note_on_c, 0, 78, 0
2, 161220, Note_on_c, 0, 79, 96
2, 161220, Note_on_c, 0, 64, 96
2, 161280, Note_on_c, 0, 64, 0
2, 161280, Note_on_c, 0, 79, 0
2, 161280, Note_on_c, 0, 78, 96
2, 161280, Note_on_c, 0, 55, 96
2, 161340, Note_on_c, 0, 55, 0
2, 161340, Note_on_c, 0, 78, 0
2, 161340, Note_on_c, 0, 76, 96
2, 161340, Note_on_c, 0, 61, 96
2, 161400, Note_on_c, 0, 61, 0
2, 161400, Note_on_c, 0, 76, 0
2, 161400, Note_on_c, 0, 74, 96
2, 161400, Note_on_c, 0, 58, 96
2, 161460, Note_on_c, 0, 58, 0
2, 161460, Note_on_c, 0, 74, 0
2, 161460, Note_on_c, 0, 73, 96
2, 161460, Note_on_c, 0, 61, 96
2, 161520, Note_on_c, 0, 61, 0
2, 161520, Note_on_c, 0, 73, 0
2, 161520, Note_on_c, 0, 74, 96
2, 161520, Note_on_c, 0, 55, 96
2, 161580, Note_on_c, 0, 55, 0
2, 161580, Note_on_c, 0, 74, 0
2, 161580, Note_on_c, 0, 71, 96
2, 161580, Note_on_c, 0, 62, 96
2, 161640, Note_on_c, 0, 62, 0
2, 161640, Note_on_c, 0, 71, 0
2, 161640, Note_on_c, 0, 74, 96
2, 161640, Note_on_c, 0, 59, 96
2, 161700, Note_on_c, 0, 59, 0
2, 161700, Note_on_c, 0, 74, 0
2, 161700, Note_on_c, 0, 71, 96
2, 161700, Note_on_c, 0, 62, 96
2, 161760, Note_on_c, 0, 62, 0
2, 161760, Note_on_c, 0, 71, 0
2, 161760, Note_on_c, 0, 67, 96
2, 161760, Note_on_c, 0, 55, 96
2, 161820, Note_on_c, 0, 55, 0
2, 161820, Note_on_c, 0, 62, 96
2, 161880, Note_on_c, 0, 62, 0
2, 161880, Note_on_c, 0, 59, 96
2, 161940, Note_on_c, 0, 59, 0
2, 161940, Note_on_c, 0, 62, 96
2, 162000, Note_on_c, 0, 62, 0
2, 162000, Note_on_c, 0, 67, 0
2, 162000, Note_on_c, 0, 55, 96
2, 162060, Note_on_c, 0, 55, 0
2, 162060, Note_on_c, 0, 62, 96
2, 162120, Note_on_c, 0, 62, 0
2, 162120, Note_on_c, 0, 59, 96
2, 162180, Note_on_c, 0, 59, 0
2, 162180, Note_on_c, 0, 62, 96
2, 162240, Note_on_c, 0, 62, 0
2, 162240, Note_on_c, 0, 72, 96
2, 162240, Note_on_c, 0, 57, 96
2, 162300, Note_on_c, 0, 57, 0
2, 162300, Note_on_c, 0, 72, 0
2, 162300, Note_on_c, 0, 69, 96
2, 162300, Note_on_c, 0, 62, 96
2, 162360, Note_on_c, 0, 62, 0
2, 162360, Note_on_c, 0, 69, 0
2, 162360, Note_on_c, 0, 72, 96
2, 162360, Note_on_c, 0, 60, 96
2, 162420, Note_on_c, 0, 60, 0
2, 162420, Note_on_c, 0, 72, 0
2, 162420, Note_on_c, 0, 69, 96
2, 162420, Note_on_c, 0, 62, 96
2, 162480, Note_on_c, 0, 62, 0
2, 162480, Note_on_c, 0, 69, 0
2, 162480, Note_on_c, 0, 66, 96
2, 162480, Note_on_c, 0, 57, 96
2, 162540, Note_on_c, 0, 57, 0
2, 162540, Note_on_c, 0, 66, 0
2, 162540, Note_on_c, 0, 69, 96
2, 162540, Note_on_c, 0, 62, 96
2, 162600, Note_on_c, 0, 62, 0
2, 162600, Note_on_c, 0, 69, 0
2, 162600, Note_on_c, 0, 68, 96
2, 162600, Note_on_c, 0, 60, 96
2, 162660, Note_on_c, 0, 60, 0
2, 162660, Note_on_c, 0, 68, 0
2, 162660, Note_on_c, 0, 69, 96
2, 162660, Note_on_c, 0, 62, 96
2, 162720, Note_on_c, 0, 62, 0
2, 162720, Note_on_c, 0, 69, 0
2, 162720, Note_on_c, 0, 70, 96
2, 162720, Note_on_c, 0, 57, 96
2, 162780, Note_on_c, 0, 57, 0
2, 162780, Note_on_c, 0, 70, 0
2, 162780, Note_on_c, 0, 71, 96
2, 162780, Note_on_c, 0, 62, 96
2, 162840, Note_on_c, 0, 62, 0
2, 162840, Note_on_c, 0, 71, 0
2, 162840, Note_on_c, 0, 72, 96
2, 162840, Note_on_c, 0, 60, 96
2, 162900, Note_on_c, 0, 60, 0
2, 162900, Note_on_c, 0, 72, 0
2, 162900, Note_on_c, 0, 73, 96
2, 162900, Note_on_c, 0, 62, 96
2, 162960, Note_on_c, 0, 62, 0
2, 162960, Note_on_c, 0, 73, 0
2, 162960, Note_on_c, 0, 74, 96
2, 162960, Note_on_c, 0, 55, 96
2, 163020, Note_on_c, 0, 55, 0
2, 163020, Note_on_c, 0, 74, 0
2, 163020, Note_on_c, 0, 71, 96
2, 163020, Note_on_c, 0, 62, 96
2, 163080, Note_on_c, 0, 62, 0
2, 163080, Note_on_c, 0, 71, 0
2, 163080, Note_on_c, 0, 74, 96
2, 163080, Note_on_c, 0, 59, 96
2, 163140, Note_on_c, 0, 59, 0
2, 163140, Note_on_c, 0, 74, 0
2, 163140, Note_on_c, 0, 71, 96
2, 163140, Note_on_c, 0, 62, 96
2, 163200, Note_on_c, 0, 62, 0
2, 163200, Note_on_c, 0, 71, 0
2, 163200, Note_on_c, 0, 79, 96
2, 163200, Note_on_c, 0, 52, 96
2, 163260, Note_on_c, 0, 52, 0
2, 163260, Note_on_c, 0, 59, 96
2, 163320, Note_on_c, 0, 59, 0
2, 163320, Note_on_c, 0, 55, 96
2, 163380, Note_on_c, 0, 55, 0
2, 163380, Note_on_c, 0, 59, 96
2, 163440, Note_on_c, 0, 59, 0
2, 163440, Note_on_c, 0, 79, 0
2, 163440, Note_on_c, 0, 47, 96
2, 163500, Note_on_c, 0, 47, 0
2, 163500, Note_on_c, 0, 83, 96
2, 163500, Note_on_c, 0, 55, 96
2, 163560, Note_on_c, 0, 55, 0
2, 163560, Note_on_c, 0, 83, 0
2, 163560, Note_on_c, 0, 78, 96
2, 163560, Note_on_c, 0, 50, 96
2, 163620, Note_on_c, 0, 50, 0
2, 163620, Note_on_c, 0, 78, 0
2, 163620, Note_on_c, 0, 55, 96
2, 163620, Note_on_c, 0, 79, 96
2, 163680, Note_on_c, 0, 79, 0
2, 163680, Note_on_c, 0, 55, 0
2, 163680, Note_on_c, 0, 75, 96
2, 163680, Note_on_c, 0, 48, 96
2, 163740, Note_on_c, 0, 48, 0
2, 163740, Note_on_c, 0, 75, 0
2, 163740, Note_on_c, 0, 76, 96
2, 163740, Note_on_c, 0, 57, 96
2, 163800, Note_on_c, 0, 57, 0
2, 163800, Note_on_c, 0, 76, 0
2, 163800, Note_on_c, 0, 72, 96
2, 163800, Note_on_c, 0, 52, 96
2, 163860, Note_on_c, 0, 52, 0
2, 163860, Note_on_c, 0, 72, 0
2, 163860, Note_on_c, 0, 69, 96
2, 163860, Note_on_c, 0, 57, 96
2, 163920, Note_on_c, 0, 57, 0
2, 163920, Note_on_c, 0, 69, 0
2, 163920, Note_on_c, 0, 67, 96
2, 163920, Note_on_c, 0, 50, 96
2, 163980, Note_on_c, 0, 50, 0
2, 163980, Note_on_c, 0, 59, 96
2, 164040, Note_on_c, 0, 59, 0
2, 164040, Note_on_c, 0, 55, 96
2, 164100, Note_on_c, 0, 55, 0
2, 164100, Note_on_c, 0, 67, 0
2, 164100, Note_on_c, 0, 67, 96
2, 164100, Note_on_c, 0, 59, 96
2, 164160, Note_on_c, 0, 59, 0
2, 164160, Note_on_c, 0, 67, 0
2, 164160, Note_on_c, 0, 66, 96
2, 164160, Note_on_c, 0, 71, 96
2, 164160, Note_on_c, 0, 50, 96
2, 164220, Note_on_c, 0, 50, 0
2, 164220, Note_on_c, 0, 71, 0
2, 164220, Note_on_c, 0, 69, 96
2, 164220, Note_on_c, 0, 60, 96
2, 164280, Note_on_c, 0, 60, 0
2, 164280, Note_on_c, 0, 69, 0
2, 164280, Note_on_c, 0, 67, 96
2, 164280, Note_on_c, 0, 57, 96
2, 164340, Note_on_c, 0, 57, 0
2, 164340, Note_on_c, 0, 67, 0
2, 164340, Note_on_c, 0, 69, 96
2, 164340, Note_on_c, 0, 60, 96
2, 164400, Note_on_c, 0, 60, 0
2, 164400, Note_on_c, 0, 69, 0
2, 164400, Note_on_c, 0, 66, 0
2, 164400, Note_on_c, 0, 66, 96
2, 164400, Note_on_c, 0, 69, 96
2, 164400, Note_on_c, 0, 55, 96
2, 164400, Note_on_c, 0, 60, 96
2, 164640, Note_on_c, 0, 60, 0
2, 164640, Note_on_c, 0, 66, 0
2, 164640, Note_on_c, 0, 69, 0
2, 164640, Note_on_c, 0, 67, 96
2, 164640, Note_on_c, 0, 59, 96
2, 164880, Note_on_c, 0, 59, 0
2, 164880, Note_on_c, 0, 67, 0
2, 164880, Note_on_c, 0, 55, 0
2, 165120, Note_on_c, 0, 74, 96
2, 165120, Note_on_c, 0, 62, 96
2, 165180, Note_on_c, 0, 62, 0
2, 165180, Note_on_c, 0, 69, 96
2, 165240, Note_on_c, 0, 69, 0
2, 165240, Note_on_c, 0, 66, 96
2, 165300, Note_on_c, 0, 66, 0
2, 165300, Note_on_c, 0, 69, 96
2, 165360, Note_on_c, 0, 69, 0
2, 165360, Note_on_c, 0, 62, 96
2, 165420, Note_on_c, 0, 62, 0
2, 165420, Note_on_c, 0, 74, 0
2, 165420, Note_on_c, 0, 73, 96
2, 165420, Note_on_c, 0, 69, 96
2, 165480, Note_on_c, 0, 69, 0
2, 165480, Note_on_c, 0, 73, 0
2, 165480, Note_on_c, 0, 76, 96
2, 165480, Note_on_c, 0, 66, 96
2, 165540, Note_on_c, 0, 66, 0
2, 165540, Note_on_c, 0, 76, 0
2, 165540, Note_on_c, 0, 74, 96
2, 165540, Note_on_c, 0, 69, 96
2, 165600, Note_on_c, 0, 69, 0
2, 165600, Note_on_c, 0, 74, 0
2, 165600, Note_on_c, 0, 79, 96
2, 165600, Note_on_c, 0, 62, 96
2, 165660, Note_on_c, 0, 62, 0
2, 165660, Note_on_c, 0, 79, 0
2, 165660, Note_on_c, 0, 78, 96
2, 165660, Note_on_c, 0, 69, 96
2, 165720, Note_on_c, 0, 69, 0
2, 165720, Note_on_c, 0, 78, 0
2, 165720, Note_on_c, 0, 76, 96
2, 165720, Note_on_c, 0, 66, 96
2, 165780, Note_on_c, 0, 66, 0
2, 165780, Note_on_c, 0, 76, 0
2, 165780, Note_on_c, 0, 74, 96
2, 165780, Note_on_c, 0, 69, 96
2, 165840, Note_on_c, 0, 69, 0
2, 165840, Note_on_c, 0, 74, 0
2, 165840, Note_on_c, 0, 73, 96
2, 165840, Note_on_c, 0, 64, 96
2, 165900, Note_on_c, 0, 64, 0
2, 165900, Note_on_c, 0, 69, 96
2, 165960, Note_on_c, 0, 69, 0
2, 165960, Note_on_c, 0, 67, 96
2, 166020, Note_on_c, 0, 67, 0
2, 166020, Note_on_c, 0, 73, 0
2, 166020, Note_on_c, 0, 74, 96
2, 166020, Note_on_c, 0, 69, 96
2, 166080, Note_on_c, 0, 69, 0
2, 166080, Note_on_c, 0, 74, 0
2, 166080, Note_on_c, 0, 76, 96
2, 166080, Note_on_c, 0, 64, 96
2, 166140, Note_on_c, 0, 64, 0
2, 166140, Note_on_c, 0, 69, 96
2, 166200, Note_on_c, 0, 69, 0
2, 166200, Note_on_c, 0, 67, 96
2, 166260, Note_on_c, 0, 67, 0
2, 166260, Note_on_c, 0, 69, 96
2, 166320, Note_on_c, 0, 69, 0
2, 166320, Note_on_c, 0, 76, 0
2, 166320, Note_on_c, 0, 64, 96
2, 166380, Note_on_c, 0, 64, 0
2, 166380, Note_on_c, 0, 69, 96
2, 166440, Note_on_c, 0, 69, 0
2, 166440, Note_on_c, 0, 67, 96
2, 166500, Note_on_c, 0, 67, 0
2, 166500, Note_on_c, 0, 69, 96
2, 166560, Note_on_c, 0, 69, 0
2, 166560, Note_on_c, 0, 76, 96
2, 166560, Note_on_c, 0, 61, 96
2, 166620, Note_on_c, 0, 61, 0
2, 166620, Note_on_c, 0, 69, 96
2, 166680, Note_on_c, 0, 69, 0
2, 166680, Note_on_c, 0, 67, 96
2, 166740, Note_on_c, 0, 67, 0
2, 166740, Note_on_c, 0, 69, 96
2, 166800, Note_on_c, 0, 69, 0
2, 166800, Note_on_c, 0, 61, 96
2, 166860, Note_on_c, 0, 61, 0
2, 166860, Note_on_c, 0, 76, 0
2, 166860, Note_on_c, 0, 75, 96
2, 166860, Note_on_c, 0, 69, 96
2, 166920, Note_on_c, 0, 69, 0
2, 166920, Note_on_c, 0, 75, 0
2, 166920, Note_on_c, 0, 78, 96
2, 166920, Note_on_c, 0, 67, 96
2, 166980, Note_on_c, 0, 67, 0
2, 166980, Note_on_c, 0, 78, 0
2, 166980, Note_on_c, 0, 76, 96
2, 166980, Note_on_c, 0, 69, 96
2, 167040, Note_on_c, 0, 69, 0
2, 167040, Note_on_c, 0, 76, 0
2, 167040, Note_on_c, 0, 81, 96
2, 167040, Note_on_c, 0, 61, 96
2, 167100, Note_on_c, 0, 61, 0
2, 167100, Note_on_c, 0, 81, 0
2, 167100, Note_on_c, 0, 79, 96
2, 167100, Note_on_c, 0, 69, 96
2, 167160, Note_on_c, 0, 69, 0
2, 167160, Note_on_c, 0, 79, 0
2, 167160, Note_on_c, 0, 78, 96
2, 167160, Note_on_c, 0, 67, 96
2, 167220, Note_on_c, 0, 67, 0
2, 167220, Note_on_c, 0, 78, 0
2, 167220, Note_on_c, 0, 76, 96
2, 167220, Note_on_c, 0, 69, 96
2, 167280, Note_on_c, 0, 69, 0
2, 167280, Note_on_c, 0, 76, 0
2, 167280, Note_on_c, 0, 74, 96
2, 167280, Note_on_c, 0, 62, 96
2, 167340, Note_on_c, 0, 62, 0
2, 167340, Note_on_c, 0, 69, 96
2, 167400, Note_on_c, 0, 69, 0
2, 167400, Note_on_c, 0, 66, 96
2, 167460, Note_on_c, 0, 66, 0
2, 167460, Note_on_c, 0, 74, 0
2, 167460, Note_on_c, 0, 76, 96
2, 167460, Note_on_c, 0, 69, 96
2, 167520, Note_on_c, 0, 69, 0
2, 167520, Note_on_c, 0, 76, 0
2, 167520, Note_on_c, 0, 78, 96
2, 167520, Note_on_c, 0, 61, 96
2, 167580, Note_on_c, 0, 61, 0
2, 167580, Note_on_c, 0, 69, 96
2, 167640, Note_on_c, 0, 69, 0
2, 167640, Note_on_c, 0, 62, 96
2, 167700, Note_on_c, 0, 62, 0
2, 167700, Note_on_c, 0, 69, 96
2, 167760, Note_on_c, 0, 69, 0
2, 167760, Note_on_c, 0, 78, 0
2, 167760, Note_on_c, 0, 59, 96
2, 167820, Note_on_c, 0, 59, 0
2, 167820, Note_on_c, 0, 67, 96
2, 167880, Note_on_c, 0, 67, 0
2, 167880, Note_on_c, 0, 62, 96
2, 167940, Note_on_c, 0, 62, 0
2, 167940, Note_on_c, 0, 67, 96
2, 168000, Note_on_c, 0, 67, 0
2, 168000, Note_on_c, 0, 78, 96
2, 168000, Note_on_c, 0, 57, 96
2, 168060, Note_on_c, 0, 57, 0
2, 168060, Note_on_c, 0, 66, 96
2, 168120, Note_on_c, 0, 66, 0
2, 168120, Note_on_c, 0, 62, 96
2, 168180, Note_on_c, 0, 62, 0
2, 168180, Note_on_c, 0, 66, 96
2, 168240, Note_on_c, 0, 66, 0
2, 168240, Note_on_c, 0, 55, 96
2, 168300, Note_on_c, 0, 55, 0
2, 168300, Note_on_c, 0, 78, 0
2, 168300, Note_on_c, 0, 76, 96
2, 168300, Note_on_c, 0, 64, 96
2, 168360, Note_on_c, 0, 64, 0
2, 168360, Note_on_c, 0, 76, 0
2, 168360, Note_on_c, 0, 79, 96
2, 168360, Note_on_c, 0, 61, 96
2, 168420, Note_on_c, 0, 61, 0
2, 168420, Note_on_c, 0, 79, 0
2, 168420, Note_on_c, 0, 78, 96
2, 168420, Note_on_c, 0, 64, 96
2, 168480, Note_on_c, 0, 64, 0
2, 168480, Note_on_c, 0, 78, 0
2, 168480, Note_on_c, 0, 83, 96
2, 168480, Note_on_c, 0, 54, 96
2, 168540, Note_on_c, 0, 54, 0
2, 168540, Note_on_c, 0, 83, 0
2, 168540, Note_on_c, 0, 81, 96
2, 168540, Note_on_c, 0, 62, 96
2, 168600, Note_on_c, 0, 62, 0
2, 168600, Note_on_c, 0, 81, 0
2, 168600, Note_on_c, 0, 79, 96
2, 168600, Note_on_c, 0, 57, 96
2, 168660, Note_on_c, 0, 57, 0
2, 168660, Note_on_c, 0, 79, 0
2, 168660, Note_on_c, 0, 78, 96
2, 168660, Note_on_c, 0, 62, 96
2, 168720, Note_on_c, 0, 62, 0
2, 168720, Note_on_c, 0, 78, 0
2, 168720, Note_on_c, 0, 76, 96
2, 168720, Note_on_c, 0, 59, 96
2, 168780, Note_on_c, 0, 59, 0
2, 168780, Note_on_c, 0, 67, 96
2, 168840, Note_on_c, 0, 67, 0
2, 168840, Note_on_c, 0, 64, 96
2, 168900, Note_on_c, 0, 64, 0
2, 168900, Note_on_c, 0, 67, 96
2, 168960, Note_on_c, 0, 67, 0
2, 168960, Note_on_c, 0, 57, 96
2, 169020, Note_on_c, 0, 57, 0
2, 169020, Note_on_c, 0, 76, 0
2, 169020, Note_on_c, 0, 75, 96
2, 169020, Note_on_c, 0, 66, 96
2, 169080, Note_on_c, 0, 66, 0
2, 169080, Note_on_c, 0, 75, 0
2, 169080, Note_on_c, 0, 78, 96
2, 169080, Note_on_c, 0, 63, 96
2, 169140, Note_on_c, 0, 63, 0
2, 169140, Note_on_c, 0, 78, 0
2, 169140, Note_on_c, 0, 76, 96
2, 169140, Note_on_c, 0, 66, 96
2, 169200, Note_on_c, 0, 66, 0
2, 169200, Note_on_c, 0, 76, 0
2, 169200, Note_on_c, 0, 81, 96
2, 169200, Note_on_c, 0, 55, 96
2, 169260, Note_on_c, 0, 55, 0
2, 169260, Note_on_c, 0, 81, 0
2, 169260, Note_on_c, 0, 79, 96
2, 169260, Note_on_c, 0, 64, 96
2, 169320, Note_on_c, 0, 64, 0
2, 169320, Note_on_c, 0, 79, 0
2, 169320, Note_on_c, 0, 78, 96
2, 169320, Note_on_c, 0, 59, 96
2, 169380, Note_on_c, 0, 59, 0
2, 169380, Note_on_c, 0, 78, 0
2, 169380, Note_on_c, 0, 76, 96
2, 169380, Note_on_c, 0, 64, 96
2, 169440, Note_on_c, 0, 64, 0
2, 169440, Note_on_c, 0, 76, 0
2, 169440, Note_on_c, 0, 76, 96
2, 169440, Note_on_c, 0, 57, 96
2, 169500, Note_on_c, 0, 57, 0
2, 169500, Note_on_c, 0, 76, 0
2, 169500, Note_on_c, 0, 74, 96
2, 169500, Note_on_c, 0, 66, 96
2, 169560, Note_on_c, 0, 66, 0
2, 169560, Note_on_c, 0, 74, 0
2, 169560, Note_on_c, 0, 74, 96
2, 169560, Note_on_c, 0, 62, 96
2, 169620, Note_on_c, 0, 62, 0
2, 169620, Note_on_c, 0, 66, 96
2, 169680, Note_on_c, 0, 66, 0
2, 169680, Note_on_c, 0, 57, 96
2, 169740, Note_on_c, 0, 57, 0
2, 169740, Note_on_c, 0, 74, 0
2, 169740, Note_on_c, 0, 69, 96
2, 169740, Note_on_c, 0, 66, 96
2, 169800, Note_on_c, 0, 66, 0
2, 169800, Note_on_c, 0, 69, 0
2, 169800, Note_on_c, 0, 74, 96
2, 169800, Note_on_c, 0, 62, 96
2, 169860, Note_on_c, 0, 62, 0
2, 169860, Note_on_c, 0, 74, 0
2, 169860, Note_on_c, 0, 78, 96
2, 169860, Note_on_c, 0, 66, 96
2, 169920, Note_on_c, 0, 66, 0
2, 169920, Note_on_c, 0, 78, 0
2, 169920, Note_on_c, 0, 73, 96
2, 169920, Note_on_c, 0, 78, 96
2, 169920, Note_on_c, 0, 57, 96
2, 169980, Note_on_c, 0, 57, 0
2, 169980, Note_on_c, 0, 78, 0
2, 169980, Note_on_c, 0, 76, 96
2, 169980, Note_on_c, 0, 67, 96
2, 170040, Note_on_c, 0, 67, 0
2, 170040, Note_on_c, 0, 76, 0
2, 170040, Note_on_c, 0, 74, 96
2, 170040, Note_on_c, 0, 64, 96
2, 170100, Note_on_c, 0, 64, 0
2, 170100, Note_on_c, 0, 74, 0
2, 170100, Note_on_c, 0, 67, 96
2, 170100, Note_on_c, 0, 76, 96
2, 170160, Note_on_c, 0, 76, 0
2, 170160, Note_on_c, 0, 67, 0
2, 170160, Note_on_c, 0, 73, 0
2, 170160, Note_on_c, 0, 73, 96
2, 170160, Note_on_c, 0, 76, 96
2, 170160, Note_on_c, 0, 62, 96
2, 170160, Note_on_c, 0, 67, 96
2, 170400, Note_on_c, 0, 67, 0
2, 170400, Note_on_c, 0, 73, 0
2, 170400, Note_on_c, 0, 76, 0
2, 170400, Note_on_c, 0, 74, 96
2, 170400, Note_on_c, 0, 66, 96
2, 170460, Note_on_c, 0, 74, 0
2, 170460, Note_on_c, 0, 75, 96
2, 170520, Note_on_c, 0, 75, 0
2, 170520, Note_on_c, 0, 76, 96
2, 170580, Note_on_c, 0, 76, 0
2, 170580, Note_on_c, 0, 75, 96
2, 170640, Note_on_c, 0, 75, 0
2, 170640, Note_on_c, 0, 66, 0
2, 170640, Note_on_c, 0, 62, 0
2, 170640, Note_on_c, 0, 78, 96
2, 170700, Note_on_c, 0, 78, 0
2, 170700, Note_on_c, 0, 76, 96
2, 170760, Note_on_c, 0, 76, 0
2, 170760, Note_on_c, 0, 74, 96
2, 170820, Note_on_c, 0, 74, 0
2, 170820, Note_on_c, 0, 72, 96
2, 170880, Note_on_c, 0, 72, 0
2, 170880, Note_on_c, 0, 71, 96
2, 170880, Note_on_c, 0, 55, 96
2, 170940, Note_on_c, 0, 55, 0
2, 170940, Note_on_c, 0, 62, 96
2, 171000, Note_on_c, 0, 62, 0
2, 171000, Note_on_c, 0, 59, 96
2, 171060, Note_on_c, 0, 59, 0
2, 171060, Note_on_c, 0, 62, 96
2, 171120, Note_on_c, 0, 62, 0
2, 171120, Note_on_c, 0, 55, 96
2, 171180, Note_on_c, 0, 55, 0
2, 171180, Note_on_c, 0, 71, 0
2, 171180, Note_on_c, 0, 67, 96
2, 171180, Note_on_c, 0, 62, 96
2, 171240, Note_on_c, 0, 62, 0
2, 171240, Note_on_c, 0, 67, 0
2, 171240, Note_on_c, 0, 71, 96
2, 171240, Note_on_c, 0, 59, 96
2, 171300, Note_on_c, 0, 59, 0
2, 171300, Note_on_c, 0, 71, 0
2, 171300, Note_on_c, 0, 74, 96
2, 171300, Note_on_c, 0, 62, 96
2, 171360, Note_on_c, 0, 62, 0
2, 171360, Note_on_c, 0, 74, 0
2, 171360, Note_on_c, 0, 72, 96
2, 171360, Note_on_c, 0, 57, 96
2, 171420, Note_on_c, 0, 57, 0
2, 171420, Note_on_c, 0, 72, 0
2, 171420, Note_on_c, 0, 69, 96
2, 171420, Note_on_c, 0, 62, 96
2, 171480, Note_on_c, 0, 62, 0
2, 171480, Note_on_c, 0, 69, 0
2, 171480, Note_on_c, 0, 72, 96
2, 171480, Note_on_c, 0, 60, 96
2, 171540, Note_on_c, 0, 60, 0
2, 171540, Note_on_c, 0, 72, 0
2, 171540, Note_on_c, 0, 76, 96
2, 171540, Note_on_c, 0, 62, 96
2, 171600, Note_on_c, 0, 62, 0
2, 171600, Note_on_c, 0, 76, 0
2, 171600, Note_on_c, 0, 74, 96
2, 171600, Note_on_c, 0, 55, 96
2, 171660, Note_on_c, 0, 55, 0
2, 171660, Note_on_c, 0, 62, 96
2, 171720, Note_on_c, 0, 62, 0
2, 171720, Note_on_c, 0, 59, 96
2, 171780, Note_on_c, 0, 59, 0
2, 171780, Note_on_c, 0, 74, 0
2, 171780, Note_on_c, 0, 71, 96
2, 171780, Note_on_c, 0, 62, 96
2, 171840, Note_on_c, 0, 62, 0
2, 171840, Note_on_c, 0, 71, 0
2, 171840, Note_on_c, 0, 67, 96
2, 171840, Note_on_c, 0, 55, 96
2, 171900, Note_on_c, 0, 55, 0
2, 171900, Note_on_c, 0, 67, 0
2, 171900, Note_on_c, 0, 67, 96
2, 171900, Note_on_c, 0, 62, 96
2, 171960, Note_on_c, 0, 62, 0
2, 171960, Note_on_c, 0, 67, 0
2, 171960, Note_on_c, 0, 69, 96
2, 171960, Note_on_c, 0, 59, 96
2, 172020, Note_on_c, 0, 59, 0
2, 172020, Note_on_c, 0, 69, 0
2, 172020, Note_on_c, 0, 71, 96
2, 172020, Note_on_c, 0, 62, 96
2, 172080, Note_on_c, 0, 62, 0
2, 172080, Note_on_c, 0, 71, 0
2, 172080, Note_on_c, 0, 72, 96
2, 172080, Note_on_c, 0, 55, 96
2, 172140, Note_on_c, 0, 55, 0
2, 172140, Note_on_c, 0, 72, 0
2, 172140, Note_on_c, 0, 74, 96
2, 172140, Note_on_c, 0, 62, 96
2, 172200, Note_on_c, 0, 62, 0
2, 172200, Note_on_c, 0, 74, 0
2, 172200, Note_on_c, 0, 76, 96
2, 172200, Note_on_c, 0, 59, 96
2, 172260, Note_on_c, 0, 59, 0
2, 172260, Note_on_c, 0, 76, 0
2, 172260, Note_on_c, 0, 78, 96
2, 172260, Note_on_c, 0, 62, 96
2, 172320, Note_on_c, 0, 62, 0
2, 172320, Note_on_c, 0, 78, 0
2, 172320, Note_on_c, 0, 79, 96
2, 172320, Note_on_c, 0, 55, 96
2, 172380, Note_on_c, 0, 55, 0
2, 172380, Note_on_c, 0, 79, 0
2, 172380, Note_on_c, 0, 78, 96
2, 172380, Note_on_c, 0, 64, 96
2, 172440, Note_on_c, 0, 64, 0
2, 172440, Note_on_c, 0, 78, 0
2, 172440, Note_on_c, 0, 79, 96
2, 172440, Note_on_c, 0, 60, 96
2, 172500, Note_on_c, 0, 60, 0
2, 172500, Note_on_c, 0, 79, 0
2, 172500, Note_on_c, 0, 78, 96
2, 172500, Note_on_c, 0, 64, 96
2, 172560, Note_on_c, 0, 64, 0
2, 172560, Note_on_c, 0, 78, 0
2, 172560, Note_on_c, 0, 81, 96
2, 172560, Note_on_c, 0, 55, 96
2, 172620, Note_on_c, 0, 55, 0
2, 172620, Note_on_c, 0, 81, 0
2, 172620, Note_on_c, 0, 79, 96
2, 172620, Note_on_c, 0, 64, 96
2, 172680, Note_on_c, 0, 64, 0
2, 172680, Note_on_c, 0, 79, 0
2, 172680, Note_on_c, 0, 78, 96
2, 172680, Note_on_c, 0, 60, 96
2, 172740, Note_on_c, 0, 60, 0
2, 172740, Note_on_c, 0, 78, 0
2, 172740, Note_on_c, 0, 79, 96
2, 172740, Note_on_c, 0, 64, 96
2, 172800, Note_on_c, 0, 64, 0
2, 172800, Note_on_c, 0, 79, 0
2, 172800, Note_on_c, 0, 78, 96
2, 172800, Note_on_c, 0, 55, 96
2, 172860, Note_on_c, 0, 55, 0
2, 172860, Note_on_c, 0, 78, 0
2, 172860, Note_on_c, 0, 76, 96
2, 172860, Note_on_c, 0, 61, 96
2, 172920, Note_on_c, 0, 61, 0
2, 172920, Note_on_c, 0, 76, 0
2, 172920, Note_on_c, 0, 74, 96
2, 172920, Note_on_c, 0, 58, 96
2, 172980, Note_on_c, 0, 58, 0
2, 172980, Note_on_c, 0, 74, 0
2, 172980, Note_on_c, 0, 73, 96
2, 172980, Note_on_c, 0, 61, 96
2, 173040, Note_on_c, 0, 61, 0
2, 173040, Note_on_c, 0, 73, 0
2, 173040, Note_on_c, 0, 74, 96
2, 173040, Note_on_c, 0, 55, 96
2, 173100, Note_on_c, 0, 55, 0
2, 173100, Note_on_c, 0, 74, 0
2, 173100, Note_on_c, 0, 71, 96
2, 173100, Note_on_c, 0, 62, 96
2, 173160, Note_on_c, 0, 62, 0
2, 173160, Note_on_c, 0, 71, 0
2, 173160, Note_on_c, 0, 74, 96
2, 173160, Note_on_c, 0, 59, 96
2, 173220, Note_on_c, 0, 59, 0
2, 173220, Note_on_c, 0, 74, 0
2, 173220, Note_on_c, 0, 71, 96
2, 173220, Note_on_c, 0, 62, 96
2, 173280, Note_on_c, 0, 62, 0
2, 173280, Note_on_c, 0, 71, 0
2, 173280, Note_on_c, 0, 67, 96
2, 173280, Note_on_c, 0, 55, 96
2, 173340, Note_on_c, 0, 55, 0
2, 173340, Note_on_c, 0, 62, 96
2, 173400, Note_on_c, 0, 62, 0
2, 173400, Note_on_c, 0, 59, 96
2, 173460, Note_on_c, 0, 59, 0
2, 173460, Note_on_c, 0, 62, 96
2, 173520, Note_on_c, 0, 62, 0
2, 173520, Note_on_c, 0, 67, 0
2, 173520, Note_on_c, 0, 55, 96
2, 173580, Note_on_c, 0, 55, 0
2, 173580, Note_on_c, 0, 62, 96
2, 173640, Note_on_c, 0, 62, 0
2, 173640, Note_on_c, 0, 59, 96
2, 173700, Note_on_c, 0, 59, 0
2, 173700, Note_on_c, 0, 62, 96
2, 173760, Note_on_c, 0, 62, 0
2, 173760, Note_on_c, 0, 72, 96
2, 173760, Note_on_c, 0, 57, 96
2, 173820, Note_on_c, 0, 57, 0
2, 173820, Note_on_c, 0, 72, 0
2, 173820, Note_on_c, 0, 69, 96
2, 173820, Note_on_c, 0, 62, 96
2, 173880, Note_on_c, 0, 62, 0
2, 173880, Note_on_c, 0, 69, 0
2, 173880, Note_on_c, 0, 72, 96
2, 173880, Note_on_c, 0, 60, 96
2, 173940, Note_on_c, 0, 60, 0
2, 173940, Note_on_c, 0, 72, 0
2, 173940, Note_on_c, 0, 69, 96
2, 173940, Note_on_c, 0, 62, 96
2, 174000, Note_on_c, 0, 62, 0
2, 174000, Note_on_c, 0, 69, 0
2, 174000, Note_on_c, 0, 66, 96
2, 174000, Note_on_c, 0, 57, 96
2, 174060, Note_on_c, 0, 57, 0
2, 174060, Note_on_c, 0, 66, 0
2, 174060, Note_on_c, 0, 69, 96
2, 174060, Note_on_c, 0, 62, 96
2, 174120, Note_on_c, 0, 62, 0
2, 174120, Note_on_c, 0, 69, 0
2, 174120, Note_on_c, 0, 68, 96
2, 174120, Note_on_c, 0, 60, 96
2, 174180, Note_on_c, 0, 60, 0
2, 174180, Note_on_c, 0, 68, 0
2, 174180, Note_on_c, 0, 69, 96
2, 174180, Note_on_c, 0, 62, 96
2, 174240, Note_on_c, 0, 62, 0
2, 174240, Note_on_c, 0, 69, 0
2, 174240, Note_on_c, 0, 70, 96
2, 174240, Note_on_c, 0, 57, 96
2, 174300, Note_on_c, 0, 57, 0
2, 174300, Note_on_c, 0, 70, 0
2, 174300, Note_on_c, 0, 71, 96
2, 174300, Note_on_c, 0, 62, 96
2, 174360, Note_on_c, 0, 62, 0
2, 174360, Note_on_c, 0, 71, 0
2, 174360, Note_on_c, 0, 72, 96
2, 174360, Note_on_c, 0, 60, 96
2, 174420, Note_on_c, 0, 60, 0
2, 174420, Note_on_c, 0, 72, 0
2, 174420, Note_on_c, 0, 73, 96
2, 174420, Note_on_c, 0, 62, 96
2, 174480, Note_on_c, 0, 62, 0
2, 174480, Note_on_c, 0, 73, 0
2, 174480, Note_on_c, 0, 74, 96
2, 174480, Note_on_c, 0, 55, 96
2, 174540, Note_on_c, 0, 55, 0
2, 174540, Note_on_c, 0, 74, 0
2, 174540, Note_on_c, 0, 71, 96
2, 174540, Note_on_c, 0, 62, 96
2, 174600, Note_on_c, 0, 62, 0
2, 174600, Note_on_c, 0, 71, 0
2, 174600, Note_on_c, 0, 74, 96
2, 174600, Note_on_c, 0, 59, 96
2, 174660, Note_on_c, 0, 59, 0
2, 174660, Note_on_c, 0, 74, 0
2, 174660, Note_on_c, 0, 71, 96
2, 174660, Note_on_c, 0, 62, 96
2, 174720, Note_on_c, 0, 62, 0
2, 174720, Note_on_c, 0, 71, 0
2, 174720, Note_on_c, 0, 79, 96
2, 174720, Note_on_c, 0, 52, 96
2, 174780, Note_on_c, 0, 52, 0
2, 174780, Note_on_c, 0, 59, 96
2, 174840, Note_on_c, 0, 59, 0
2, 174840, Note_on_c, 0, 55, 96
2, 174900, Note_on_c, 0, 55, 0
2, 174900, Note_on_c, 0, 59, 96
2, 174960, Note_on_c, 0, 59, 0
2, 174960, Note_on_c, 0, 79, 0
2, 174960, Note_on_c, 0, 47, 96
2, 175020, Note_on_c, 0, 47, 0
2, 175020, Note_on_c, 0, 83, 96
2, 175020, Note_on_c, 0, 55, 96
2, 175080, Note_on_c, 0, 55, 0
2, 175080, Note_on_c, 0, 83, 0
2, 175080, Note_on_c, 0, 78, 96
2, 175080, Note_on_c, 0, 50, 96
2, 175140, Note_on_c, 0, 50, 0
2, 175140, Note_on_c, 0, 78, 0
2, 175140, Note_on_c, 0, 55, 96
2, 175140, Note_on_c, 0, 79, 96
2, 175200, Note_on_c, 0, 79, 0
2, 175200, Note_on_c, 0, 55, 0
2, 175200, Note_on_c, 0, 75, 96
2, 175200, Note_on_c, 0, 48, 96
2, 175260, Note_on_c, 0, 48, 0
2, 175260, Note_on_c, 0, 75, 0
2, 175260, Note_on_c, 0, 76, 96
2, 175260, Note_on_c, 0, 57, 96
2, 175320, Note_on_c, 0, 57, 0
2, 175320, Note_on_c, 0, 76, 0
2, 175320, Note_on_c, 0, 72, 96
2, 175320, Note_on_c, 0, 52, 96
2, 175380, Note_on_c, 0, 52, 0
2, 175380, Note_on_c, 0, 72, 0
2, 175380, Note_on_c, 0, 69, 96
2, 175380, Note_on_c, 0, 57, 96
2, 175440, Note_on_c, 0, 57, 0
2, 175440, Note_on_c, 0, 69, 0
2, 175440, Note_on_c, 0, 67, 96
2, 175440, Note_on_c, 0, 50, 96
2, 175500, Note_on_c, 0, 50, 0
2, 175500, Note_on_c, 0, 59, 96
2, 175560, Note_on_c, 0, 59, 0
2, 175560, Note_on_c, 0, 55, 96
2, 175620, Note_on_c, 0, 55, 0
2, 175620, Note_on_c, 0, 67, 0
2, 175620, Note_on_c, 0, 67, 96
2, 175620, Note_on_c, 0, 59, 96
2, 175680, Note_on_c, 0, 59, 0
2, 175680, Note_on_c, 0, 67, 0
2, 175680, Note_on_c, 0, 66, 96
2, 175680, Note_on_c, 0, 71, 96
2, 175680, Note_on_c, 0, 50, 96
2, 175740, Note_on_c, 0, 50, 0
2, 175740, Note_on_c, 0, 71, 0
2, 175740, Note_on_c, 0, 69, 96
2, 175740, Note_on_c, 0, 60, 96
2, 175800, Note_on_c, 0, 60, 0
2, 175800, Note_on_c, 0, 69, 0
2, 175800, Note_on_c, 0, 67, 96
2, 175800, Note_on_c, 0, 57, 96
2, 175860, Note_on_c, 0, 57, 0
2, 175860, Note_on_c, 0, 67, 0
2, 175860, Note_on_c, 0, 60, 96
2, 175860, Note_on_c, 0, 69, 96
2, 175920, Note_on_c, 0, 69, 0
2, 175920, Note_on_c, 0, 60, 0
2, 175920, Note_on_c, 0, 66, 0
2, 175920, Note_on_c, 0, 66, 96
2, 175920, Note_on_c, 0, 69, 96
2, 175920, Note_on_c, 0, 55, 96
2, 175920, Note_on_c, 0, 60, 96
2, 176160, Note_on_c, 0, 60, 0
2, 176160, Note_on_c, 0, 66, 0
2, 176160, Note_on_c, 0, 69, 0
2, 176160, Note_on_c, 0, 67, 96
2, 176160, Note_on_c, 0, 59, 96
2, 176400, Note_on_c, 0, 59, 0
2, 176400, Note_on_c, 0, 67, 0
2, 176400, Note_on_c, 0, 55, 0
2, 176640, Note_on_c, 0, 74, 96
2, 176640, Note_on_c, 0, 62, 96
2, 176700, Note_on_c, 0, 62, 0
2, 176700, Note_on_c, 0, 69, 96
2, 176760, Note_on_c, 0, 69, 0
2, 176760, Note_on_c, 0, 66, 96
2, 176820, Note_on_c, 0, 66, 0
2, 176820, Note_on_c, 0, 69, 96
2, 176880, Note_on_c, 0, 69, 0
2, 176880, Note_on_c, 0, 62, 96
2, 176940, Note_on_c, 0, 62, 0
2, 176940, Note_on_c, 0, 74, 0
2, 176940, Note_on_c, 0, 73, 96
2, 176940, Note_on_c, 0, 69, 96
2, 177000, Note_on_c, 0, 69, 0
2, 177000, Note_on_c, 0, 73, 0
2, 177000, Note_on_c, 0, 76, 96
2, 177000, Note_on_c, 0, 66, 96
2, 177060, Note_on_c, 0, 66, 0
2, 177060, Note_on_c, 0, 76, 0
2, 177060, Note_on_c, 0, 74, 96
2, 177060, Note_on_c, 0, 69, 96
2, 177120, Note_on_c, 0, 69, 0
2, 177120, Note_on_c, 0, 74, 0
2, 177120, Note_on_c, 0, 79, 96
2, 177120, Note_on_c, 0, 62, 96
2, 177180, Note_on_c, 0, 62, 0
2, 177180, Note_on_c, 0, 79, 0
2, 177180, Note_on_c, 0, 78, 96
2, 177180, Note_on_c, 0, 69, 96
2, 177240, Note_on_c, 0, 69, 0
2, 177240, Note_on_c, 0, 78, 0
2, 177240, Note_on_c, 0, 76, 96
2, 177240, Note_on_c, 0, 66, 96
2, 177300, Note_on_c, 0, 66, 0
2, 177300, Note_on_c, 0, 76, 0
2, 177300, Note_on_c, 0, 74, 96
2, 177300, Note_on_c, 0, 69, 96
2, 177360, Note_on_c, 0, 69, 0
2, 177360, Note_on_c, 0, 74, 0
2, 177360, Note_on_c, 0, 73, 96
2, 177360, Note_on_c, 0, 64, 96
2, 177420, Note_on_c, 0, 64, 0
2, 177420, Note_on_c, 0, 69, 96
2, 177480, Note_on_c, 0, 69, 0
2, 177480, Note_on_c, 0, 67, 96
2, 177540, Note_on_c, 0, 67, 0
2, 177540, Note_on_c, 0, 73, 0
2, 177540, Note_on_c, 0, 74, 96
2, 177540, Note_on_c, 0, 69, 96
2, 177600, Note_on_c, 0, 69, 0
2, 177600, Note_on_c, 0, 74, 0
2, 177600, Note_on_c, 0, 76, 96
2, 177600, Note_on_c, 0, 64, 96
2, 177660, Note_on_c, 0, 64, 0
2, 177660, Note_on_c, 0, 69, 96
2, 177720, Note_on_c, 0, 69, 0
2, 177720, Note_on_c, 0, 67, 96
2, 177780, Note_on_c, 0, 67, 0
2, 177780, Note_on_c, 0, 69, 96
2, 177840, Note_on_c, 0, 69, 0
2, 177840, Note_on_c, 0, 76, 0
2, 177840, Note_on_c, 0, 64, 96
2, 177900, Note_on_c, 0, 64, 0
2, 177900, Note_on_c, 0, 69, 96
2, 177960, Note_on_c, 0, 69, 0
2, 177960, Note_on_c, 0, 67, 96
2, 178020, Note_on_c, 0, 67, 0
2, 178020, Note_on_c, 0, 69, 96
2, 178080, Note_on_c, 0, 69, 0
2, 178080, Note_on_c, 0, 76, 96
2, 178080, Note_on_c, 0, 61, 96
2, 178140, Note_on_c, 0, 61, 0
2, 178140, Note_on_c, 0, 69, 96
2, 178200, Note_on_c, 0, 69, 0
2, 178200, Note_on_c, 0, 67, 96
2, 178260, Note_on_c, 0, 67, 0
2, 178260, Note_on_c, 0, 69, 96
2, 178320, Note_on_c, 0, 69, 0
2, 178320, Note_on_c, 0, 61, 96
2, 178380, Note_on_c, 0, 61, 0
2, 178380, Note_on_c, 0, 76, 0
2, 178380, Note_on_c, 0, 75, 96
2, 178380, Note_on_c, 0, 69, 96
2, 178440, Note_on_c, 0, 69, 0
2, 178440, Note_on_c, 0, 75, 0
2, 178440, Note_on_c, 0, 78, 96
2, 178440, Note_on_c, 0, 67, 96
2, 178500, Note_on_c, 0, 67, 0
2, 178500, Note_on_c, 0, 78, 0
2, 178500, Note_on_c, 0, 76, 96
2, 178500, Note_on_c, 0, 69, 96
2, 178560, Note_on_c, 0, 69, 0
2, 178560, Note_on_c, 0, 76, 0
2, 178560, Note_on_c, 0, 81, 96
2, 178560, Note_on_c, 0, 61, 96
2, 178620, Note_on_c, 0, 61, 0
2, 178620, Note_on_c, 0, 81, 0
2, 178620, Note_on_c, 0, 79, 96
2, 178620, Note_on_c, 0, 69, 96
2, 178680, Note_on_c, 0, 69, 0
2, 178680, Note_on_c, 0, 79, 0
2, 178680, Note_on_c, 0, 78, 96
2, 178680, Note_on_c, 0, 67, 96
2, 178740, Note_on_c, 0, 67, 0
2, 178740, Note_on_c, 0, 78, 0
2, 178740, Note_on_c, 0, 76, 96
2, 178740, Note_on_c, 0, 69, 96
2, 178800, Note_on_c, 0, 69, 0
2, 178800, Note_on_c, 0, 76, 0
2, 178800, Note_on_c, 0, 74, 96
2, 178800, Note_on_c, 0, 62, 96
2, 178860, Note_on_c, 0, 62, 0
2, 178860, Note_on_c, 0, 69, 96
2, 178920, Note_on_c, 0, 69, 0
2, 178920, Note_on_c, 0, 66, 96
2, 178980, Note_on_c, 0, 66, 0
2, 178980, Note_on_c, 0, 74, 0
2, 178980, Note_on_c, 0, 76, 96
2, 178980, Note_on_c, 0, 69, 96
2, 179040, Note_on_c, 0, 69, 0
2, 179040, Note_on_c, 0, 76, 0
2, 179040, Note_on_c, 0, 78, 96
2, 179040, Note_on_c, 0, 61, 96
2, 179100, Note_on_c, 0, 61, 0
2, 179100, Note_on_c, 0, 69, 96
2, 179160, Note_on_c, 0, 69, 0
2, 179160, Note_on_c, 0, 62, 96
2, 179220, Note_on_c, 0, 62, 0
2, 179220, Note_on_c, 0, 69, 96
2, 179280, Note_on_c, 0, 69, 0
2, 179280, Note_on_c, 0, 78, 0
2, 179280, Note_on_c, 0, 59, 96
2, 179340, Note_on_c, 0, 59, 0
2, 179340, Note_on_c, 0, 67, 96
2, 179400, Note_on_c, 0, 67, 0
2, 179400, Note_on_c, 0, 62, 96
2, 179460, Note_on_c, 0, 62, 0
2, 179460, Note_on_c, 0, 67, 96
2, 179520, Note_on_c, 0, 67, 0
2, 179520, Note_on_c, 0, 78, 96
2, 179520, Note_on_c, 0, 57, 96
2, 179580, Note_on_c, 0, 57, 0
2, 179580, Note_on_c, 0, 66, 96
2, 179640, Note_on_c, 0, 66, 0
2, 179640, Note_on_c, 0, 62, 96
2, 179700, Note_on_c, 0, 62, 0
2, 179700, Note_on_c, 0, 66, 96
2, 179760, Note_on_c, 0, 66, 0
2, 179760, Note_on_c, 0, 55, 96
2, 179820, Note_on_c, 0, 55, 0
2, 179820, Note_on_c, 0, 78, 0
2, 179820, Note_on_c, 0, 76, 96
2, 179820, Note_on_c, 0, 64, 96
2, 179880, Note_on_c, 0, 64, 0
2, 179880, Note_on_c, 0, 76, 0
2, 179880, Note_on_c, 0, 79, 96
2, 179880, Note_on_c, 0, 61, 96
2, 179940, Note_on_c, 0, 61, 0
2, 179940, Note_on_c, 0, 79, 0
2, 179940, Note_on_c, 0, 78, 96
2, 179940, Note_on_c, 0, 64, 96
2, 180000, Note_on_c, 0, 64, 0
2, 180000, Note_on_c, 0, 78, 0
2, 180000, Note_on_c, 0, 83, 96
2, 180000, Note_on_c, 0, 54, 96
2, 180060, Note_on_c, 0, 54, 0
2, 180060, Note_on_c, 0, 83, 0
2, 180060, Note_on_c, 0, 81, 96
2, 180060, Note_on_c, 0, 62, 96
2, 180120, Note_on_c, 0, 62, 0
2, 180120, Note_on_c, 0, 81, 0
2, 180120, Note_on_c, 0, 79, 96
2, 180120, Note_on_c, 0, 57, 96
2, 180180, Note_on_c, 0, 57, 0
2, 180180, Note_on_c, 0, 79, 0
2, 180180, Note_on_c, 0, 78, 96
2, 180180, Note_on_c, 0, 62, 96
2, 180240, Note_on_c, 0, 62, 0
2, 180240, Note_on_c, 0, 78, 0
2, 180240, Note_on_c, 0, 76, 96
2, 180240, Note_on_c, 0, 59, 96
2, 180300, Note_on_c, 0, 59, 0
2, 180300, Note_on_c, 0, 67, 96
2, 180360, Note_on_c, 0, 67, 0
2, 180360, Note_on_c, 0, 64, 96
2, 180420, Note_on_c, 0, 64, 0
2, 180420, Note_on_c, 0, 67, 96
2, 180480, Note_on_c, 0, 67, 0
2, 180480, Note_on_c, 0, 57, 96
2, 180540, Note_on_c, 0, 57, 0
2, 180540, Note_on_c, 0, 76, 0
2, 180540, Note_on_c, 0, 75, 96
2, 180540, Note_on_c, 0, 66, 96
2, 180600, Note_on_c, 0, 66, 0
2, 180600, Note_on_c, 0, 75, 0
2, 180600, Note_on_c, 0, 78, 96
2, 180600, Note_on_c, 0, 63, 96
2, 180660, Note_on_c, 0, 63, 0
2, 180660, Note_on_c, 0, 78, 0
2, 180660, Note_on_c, 0, 76, 96
2, 180660, Note_on_c, 0, 66, 96
2, 180720, Note_on_c, 0, 66, 0
2, 180720, Note_on_c, 0, 76, 0
2, 180720, Note_on_c, 0, 81, 96
2, 180720, Note_on_c, 0, 55, 96
2, 180780, Note_on_c, 0, 55, 0
2, 180780, Note_on_c, 0, 81, 0
2, 180780, Note_on_c, 0, 79, 96
2, 180780, Note_on_c, 0, 64, 96
2, 180840, Note_on_c, 0, 64, 0
2, 180840, Note_on_c, 0, 79, 0
2, 180840, Note_on_c, 0, 78, 96
2, 180840, Note_on_c, 0, 59, 96
2, 180900, Note_on_c, 0, 59, 0
2, 180900, Note_on_c, 0, 78, 0
2, 180900, Note_on_c, 0, 76, 96
2, 180900, Note_on_c, 0, 64, 96
2, 180960, Note_on_c, 0, 64, 0
2, 180960, Note_on_c, 0, 76, 0
2, 180960, Note_on_c, 0, 76, 96
2, 180960, Note_on_c, 0, 57, 96
2, 181020, Note_on_c, 0, 57, 0
2, 181020, Note_on_c, 0, 76, 0
2, 181020, Note_on_c, 0, 74, 96
2, 181020, Note_on_c, 0, 66, 96
2, 181080, Note_on_c, 0, 66, 0
2, 181080, Note_on_c, 0, 74, 0
2, 181080, Note_on_c, 0, 74, 96
2, 181080, Note_on_c, 0, 62, 96
2, 181140, Note_on_c, 0, 62, 0
2, 181140, Note_on_c, 0, 66, 96
2, 181200, Note_on_c, 0, 66, 0
2, 181200, Note_on_c, 0, 57, 96
2, 181260, Note_on_c, 0, 57, 0
2, 181260, Note_on_c, 0, 74, 0
2, 181260, Note_on_c, 0, 69, 96
2, 181260, Note_on_c, 0, 66, 96
2, 181320, Note_on_c, 0, 66, 0
2, 181320, Note_on_c, 0, 69, 0
2, 181320, Note_on_c, 0, 74, 96
2, 181320, Note_on_c, 0, 62, 96
2, 181380, Note_on_c, 0, 62, 0
2, 181380, Note_on_c, 0, 74, 0
2, 181380, Note_on_c, 0, 78, 96
2, 181380, Note_on_c, 0, 66, 96
2, 181440, Note_on_c, 0, 66, 0
2, 181440, Note_on_c, 0, 78, 0
2, 181440, Note_on_c, 0, 73, 96
2, 181440, Note_on_c, 0, 78, 96
2, 181440, Note_on_c, 0, 57, 96
2, 181500, Note_on_c, 0, 57, 0
2, 181500, Note_on_c, 0, 78, 0
2, 181500, Note_on_c, 0, 76, 96
2, 181500, Note_on_c, 0, 67, 96
2, 181560, Note_on_c, 0, 67, 0
2, 181560, Note_on_c, 0, 76, 0
2, 181560, Note_on_c, 0, 74, 96
2, 181560, Note_on_c, 0, 64, 96
2, 181620, Note_on_c, 0, 64, 0
2, 181620, Note_on_c, 0, 74, 0
2, 181620, Note_on_c, 0, 67, 96
2, 181620, Note_on_c, 0, 76, 96
2, 181680, Note_on_c, 0, 76, 0
2, 181680, Note_on_c, 0, 67, 0
2, 181680, Note_on_c, 0, 73, 0
2, 181680, Note_on_c, 0, 73, 96
2, 181680, Note_on_c, 0, 76, 96
2, 181680, Note_on_c, 0, 62, 96
2, 181680, Note_on_c, 0, 67, 96
2, 181920, Note_on_c, 0, 67, 0
2, 181920, Note_on_c, 0, 73, 0
2, 181920, Note_on_c, 0, 76, 0
2, 181920, Note_on_c, 0, 74, 96
2, 181920, Note_on_c, 0, 66, 96
2, 181980, Note_on_c, 0, 74, 0
2, 181980, Note_on_c, 0, 75, 96
2, 182040, Note_on_c, 0, 75, 0
2, 182040, Note_on_c, 0, 76, 96
2, 182100, Note_on_c, 0, 76, 0
2, 182100, Note_on_c, 0, 75, 96
2, 182160, Note_on_c, 0, 75, 0
2, 182160, Note_on_c, 0, 66, 0
2, 182160, Note_on_c, 0, 62, 0
2, 182160, Note_on_c, 0, 78, 96
2, 182220, Note_on_c, 0, 78, 0
2, 182220, Note_on_c, 0, 76, 96
2, 182280, Note_on_c, 0, 76, 0
2, 182280, Note_on_c, 0, 74, 96
2, 182340, Note_on_c, 0, 74, 0
2, 182340, Note_on_c, 0, 72, 96
2, 182400, Note_on_c, 0, 72, 0
2, 182400, Note_on_c, 0, 71, 96
2, 182400, Note_on_c, 0, 55, 96
2, 182460, Note_on_c, 0, 55, 0
2, 182460, Note_on_c, 0, 62, 96
2, 182520, Note_on_c, 0, 62, 0
2, 182520, Note_on_c, 0, 59, 96
2, 182580, Note_on_c, 0, 59, 0
2, 182580, Note_on_c, 0, 62, 96
2, 182640, Note_on_c, 0, 62, 0
2, 182640, Note_on_c, 0, 55, 96
2, 182700, Note_on_c, 0, 55, 0
2, 182700, Note_on_c, 0, 71, 0
2, 182700, Note_on_c, 0, 67, 96
2, 182700, Note_on_c, 0, 62, 96
2, 182760, Note_on_c, 0, 62, 0
2, 182760, Note_on_c, 0, 67, 0
2, 182760, Note_on_c, 0, 71, 96
2, 182760, Note_on_c, 0, 59, 96
2, 182820, Note_on_c, 0, 59, 0
2, 182820, Note_on_c, 0, 71, 0
2, 182820, Note_on_c, 0, 74, 96
2, 182820, Note_on_c, 0, 62, 96
2, 182880, Note_on_c, 0, 62, 0
2, 182880, Note_on_c, 0, 74, 0
2, 182880, Note_on_c, 0, 72, 96
2, 182880, Note_on_c, 0, 57, 96
2, 182940, Note_on_c, 0, 57, 0
2, 182940, Note_on_c, 0, 72, 0
2, 182940, Note_on_c, 0, 69, 96
2, 182940, Note_on_c, 0, 62, 96
2, 183000, Note_on_c, 0, 62, 0
2, 183000, Note_on_c, 0, 69, 0
2, 183000, Note_on_c, 0, 72, 96
2, 183000, Note_on_c, 0, 60, 96
2, 183060, Note_on_c, 0, 60, 0
2, 183060, Note_on_c, 0, 72, 0
2, 183060, Note_on_c, 0, 76, 96
2, 183060, Note_on_c, 0, 62, 96
2, 183120, Note_on_c, 0, 62, 0
2, 183120, Note_on_c, 0, 76, 0
2, 183120, Note_on_c, 0, 74, 96
2, 183120, Note_on_c, 0, 55, 96
2, 183180, Note_on_c, 0, 55, 0
2, 183180, Note_on_c, 0, 62, 96
2, 183240, Note_on_c, 0, 62, 0
2, 183240, Note_on_c, 0, 59, 96
2, 183300, Note_on_c, 0, 59, 0
2, 183300, Note_on_c, 0, 74, 0
2, 183300, Note_on_c, 0, 71, 96
2, 183300, Note_on_c, 0, 62, 96
2, 183360, Note_on_c, 0, 62, 0
2, 183360, Note_on_c, 0, 71, 0
2, 183360, Note_on_c, 0, 67, 96
2, 183360, Note_on_c, 0, 55, 96
2, 183420, Note_on_c, 0, 55, 0
2, 183420, Note_on_c, 0, 67, 0
2, 183420, Note_on_c, 0, 67, 96
2, 183420, Note_on_c, 0, 62, 96
2, 183480, Note_on_c, 0, 62, 0
2, 183480, Note_on_c, 0, 67, 0
2, 183480, Note_on_c, 0, 69, 96
2, 183480, Note_on_c, 0, 59, 96
2, 183540, Note_on_c, 0, 59, 0
2, 183540, Note_on_c, 0, 69, 0
2, 183540, Note_on_c, 0, 71, 96
2, 183540, Note_on_c, 0, 62, 96
2, 183600, Note_on_c, 0, 62, 0
2, 183600, Note_on_c, 0, 71, 0
2, 183600, Note_on_c, 0, 72, 96
2, 183600, Note_on_c, 0, 55, 96
2, 183660, Note_on_c, 0, 55, 0
2, 183660, Note_on_c, 0, 72, 0
2, 183660, Note_on_c, 0, 74, 96
2, 183660, Note_on_c, 0, 62, 96
2, 183720, Note_on_c, 0, 62, 0
2, 183720, Note_on_c, 0, 74, 0
2, 183720, Note_on_c, 0, 76, 96
2, 183720, Note_on_c, 0, 59, 96
2, 183780, Note_on_c, 0, 59, 0
2, 183780, Note_on_c, 0, 76, 0
2, 183780, Note_on_c, 0, 78, 96
2, 183780, Note_on_c, 0, 62, 96
2, 183840, Note_on_c, 0, 62, 0
2, 183840, Note_on_c, 0, 78, 0
2, 183840, Note_on_c, 0, 79, 96
2, 183840, Note_on_c, 0, 55, 96
2, 183900, Note_on_c, 0, 55, 0
2, 183900, Note_on_c, 0, 79, 0
2, 183900, Note_on_c, 0, 78, 96
2, 183900, Note_on_c, 0, 64, 96
2, 183960, Note_on_c, 0, 64, 0
2, 183960, Note_on_c, 0, 78, 0
2, 183960, Note_on_c, 0, 79, 96
2, 183960, Note_on_c, 0, 60, 96
2, 184020, Note_on_c, 0, 60, 0
2, 184020, Note_on_c, 0, 79, 0
2, 184020, Note_on_c, 0, 78, 96
2, 184020, Note_on_c, 0, 64, 96
2, 184080, Note_on_c, 0, 64, 0
2, 184080, Note_on_c, 0, 78, 0
2, 184080, Note_on_c, 0, 81, 96
2, 184080, Note_on_c, 0, 55, 96
2, 184140, Note_on_c, 0, 55, 0
2, 184140, Note_on_c, 0, 81, 0
2, 184140, Note_on_c, 0, 79, 96
2, 184140, Note_on_c, 0, 64, 96
2, 184200, Note_on_c, 0, 64, 0
2, 184200, Note_on_c, 0, 79, 0
2, 184200, Note_on_c, 0, 78, 96
2, 184200, Note_on_c, 0, 60, 96
2, 184260, Note_on_c, 0, 60, 0
2, 184260, Note_on_c, 0, 78, 0
2, 184260, Note_on_c, 0, 79, 96
2, 184260, Note_on_c, 0, 64, 96
2, 184320, Note_on_c, 0, 64, 0
2, 184320, Note_on_c, 0, 79, 0
2, 184320, Note_on_c, 0, 78, 96
2, 184320, Note_on_c, 0, 55, 96
2, 184380, Note_on_c, 0, 55, 0
2, 184380, Note_on_c, 0, 78, 0
2, 184380, Note_on_c, 0, 76, 96
2, 184380, Note_on_c, 0, 61, 96
2, 184440, Note_on_c, 0, 61, 0
2, 184440, Note_on_c, 0, 76, 0
2, 184440, Note_on_c, 0, 74, 96
2, 184440, Note_on_c, 0, 58, 96
2, 184500, Note_on_c, 0, 58, 0
2, 184500, Note_on_c, 0, 74, 0
2, 184500, Note_on_c, 0, 73, 96
2, 184500, Note_on_c, 0, 61, 96
2, 184560, Note_on_c, 0, 61, 0
2, 184560, Note_on_c, 0, 73, 0
2, 184560, Note_on_c, 0, 74, 96
2, 184560, Note_on_c, 0, 55, 96
2, 184620, Note_on_c, 0, 55, 0
2, 184620, Note_on_c, 0, 74, 0
2, 184620, Note_on_c, 0, 71, 96
2, 184620, Note_on_c, 0, 62, 96
2, 184680, Note_on_c, 0, 62, 0
2, 184680, Note_on_c, 0, 71, 0
2, 184680, Note_on_c, 0, 74, 96
2, 184680, Note_on_c, 0, 59, 96
2, 184740, Note_on_c, 0, 59, 0
2, 184740, Note_on_c, 0, 74, 0
2, 184740, Note_on_c, 0, 71, 96
2, 184740, Note_on_c, 0, 62, 96
2, 184800, Note_on_c, 0, 62, 0
2, 184800, Note_on_c, 0, 71, 0
2, 184800, Note_on_c, 0, 67, 96
2, 184800, Note_on_c, 0, 55, 96
2, 184860, Note_on_c, 0, 55, 0
2, 184860, Note_on_c, 0, 62, 96
2, 184920, Note_on_c, 0, 62, 0
2, 184920, Note_on_c, 0, 59, 96
2, 184980, Note_on_c, 0, 59, 0
2, 184980, Note_on_c, 0, 62, 96
2, 185040, Note_on_c, 0, 62, 0
2, 185040, Note_on_c, 0, 67, 0
2, 185040, Note_on_c, 0, 55, 96
2, 185100, Note_on_c, 0, 55, 0
2, 185100, Note_on_c, 0, 62, 96
2, 185160, Note_on_c, 0, 62, 0
2, 185160, Note_on_c, 0, 59, 96
2, 185220, Note_on_c, 0, 59, 0
2, 185220, Note_on_c, 0, 62, 96
2, 185280, Note_on_c, 0, 62, 0
2, 185280, Note_on_c, 0, 72, 96
2, 185280, Note_on_c, 0, 57, 96
2, 185340, Note_on_c, 0, 57, 0
2, 185340, Note_on_c, 0, 72, 0
2, 185340, Note_on_c, 0, 69, 96
2, 185340, Note_on_c, 0, 62, 96
2, 185400, Note_on_c, 0, 62, 0
2, 185400, Note_on_c, 0, 69, 0
2, 185400, Note_on_c, 0, 72, 96
2, 185400, Note_on_c, 0, 60, 96
2, 185460, Note_on_c, 0, 60, 0
2, 185460, Note_on_c, 0, 72, 0
2, 185460, Note_on_c, 0, 69, 96
2, 185460, Note_on_c, 0, 62, 96
2, 185520, Note_on_c, 0, 62, 0
2, 185520, Note_on_c, 0, 69, 0
2, 185520, Note_on_c, 0, 66, 96
2, 185520, Note_on_c, 0, 57, 96
2, 185580, Note_on_c, 0, 57, 0
2, 185580, Note_on_c, 0, 66, 0
2, 185580, Note_on_c, 0, 69, 96
2, 185580, Note_on_c, 0, 62, 96
2, 185640, Note_on_c, 0, 62, 0
2, 185640, Note_on_c, 0, 69, 0
2, 185640, Note_on_c, 0, 68, 96
2, 185640, Note_on_c, 0, 60, 96
2, 185700, Note_on_c, 0, 60, 0
2, 185700, Note_on_c, 0, 68, 0
2, 185700, Note_on_c, 0, 69, 96
2, 185700, Note_on_c, 0, 62, 96
2, 185760, Note_on_c, 0, 62, 0
2, 185760, Note_on_c, 0, 69, 0
2, 185760, Note_on_c, 0, 70, 96
2, 185760, Note_on_c, 0, 57, 96
2, 185820, Note_on_c, 0, 57, 0
2, 185820, Note_on_c, 0, 70, 0
2, 185820, Note_on_c, 0, 71, 96
2, 185820, Note_on_c, 0, 62, 96
2, 185880, Note_on_c, 0, 62, 0
2, 185880, Note_on_c, 0, 71, 0
2, 185880, Note_on_c, 0, 72, 96
2, 185880, Note_on_c, 0, 60, 96
2, 185940, Note_on_c, 0, 60, 0
2, 185940, Note_on_c, 0, 72, 0
2, 185940, Note_on_c, 0, 73, 96
2, 185940, Note_on_c, 0, 62, 96
2, 186000, Note_on_c, 0, 62, 0
2, 186000, Note_on_c, 0, 73, 0
2, 186000, Note_on_c, 0, 74, 96
2, 186000, Note_on_c, 0, 55, 96
2, 186060, Note_on_c, 0, 55, 0
2, 186060, Note_on_c, 0, 74, 0
2, 186060, Note_on_c, 0, 71, 96
2, 186060, Note_on_c, 0, 62, 96
2, 186120, Note_on_c, 0, 62, 0
2, 186120, Note_on_c, 0, 71, 0
2, 186120, Note_on_c, 0, 74, 96
2, 186120, Note_on_c, 0, 59, 96
2, 186180, Note_on_c, 0, 59, 0
2, 186180, Note_on_c, 0, 74, 0
2, 186180, Note_on_c, 0, 71, 96
2, 186180, Note_on_c, 0, 62, 96
2, 186240, Note_on_c, 0, 62, 0
2, 186240, Note_on_c, 0, 71, 0
2, 186240, Note_on_c, 0, 79, 96
2, 186240, Note_on_c, 0, 52, 96
2, 186300, Note_on_c, 0, 52, 0
2, 186300, Note_on_c, 0, 59, 96
2, 186360, Note_on_c, 0, 59, 0
2, 186360, Note_on_c, 0, 55, 96
2, 186420, Note_on_c, 0, 55, 0
2, 186420, Note_on_c, 0, 59, 96
2, 186480, Note_on_c, 0, 59, 0
2, 186480, Note_on_c, 0, 79, 0
2, 186480, Note_on_c, 0, 47, 96
2, 186540, Note_on_c, 0, 47, 0
2, 186540, Note_on_c, 0, 83, 96
2, 186540, Note_on_c, 0, 55, 96
2, 186600, Note_on_c, 0, 55, 0
2, 186600, Note_on_c, 0, 83, 0
2, 186600, Note_on_c, 0, 78, 96
2, 186600, Note_on_c, 0, 50, 96
2, 186660, Note_on_c, 0, 50, 0
2, 186660, Note_on_c, 0, 78, 0
2, 186660, Note_on_c, 0, 55, 96
2, 186660, Note_on_c, 0, 79, 96
2, 186720, Note_on_c, 0, 79, 0
2, 186720, Note_on_c, 0, 55, 0
2, 186720, Note_on_c, 0, 75, 96
2, 186720, Note_on_c, 0, 48, 96
2, 186780, Note_on_c, 0, 48, 0
2, 186780, Note_on_c, 0, 75, 0
2, 186780, Note_on_c, 0, 76, 96
2, 186780, Note_on_c, 0, 57, 96
2, 186840, Note_on_c, 0, 57, 0
2, 186840, Note_on_c, 0, 76, 0
2, 186840, Note_on_c, 0, 72, 96
2, 186840, Note_on_c, 0, 52, 96
2, 186900, Note_on_c, 0, 52, 0
2, 186900, Note_on_c, 0, 72, 0
2, 186900, Note_on_c, 0, 69, 96
2, 186900, Note_on_c, 0, 57, 96
2, 186960, Note_on_c, 0, 57, 0
2, 186960, Note_on_c, 0, 69, 0
2, 186960, Note_on_c, 0, 67, 96
2, 186960, Note_on_c, 0, 50, 96
2, 187020, Note_on_c, 0, 50, 0
2, 187020, Note_on_c, 0, 59, 96
2, 187080, Note_on_c, 0, 59, 0
2, 187080, Note_on_c, 0, 55, 96
2, 187140, Note_on_c, 0, 55, 0
2, 187140, Note_on_c, 0, 67, 0
2, 187140, Note_on_c, 0, 67, 96
2, 187140, Note_on_c, 0, 59, 96
2, 187200, Note_on_c, 0, 59, 0
2, 187200, Note_on_c, 0, 67, 0
2, 187200, Note_on_c, 0, 66, 96
2, 187200, Note_on_c, 0, 71, 96
2, 187200, Note_on_c, 0, 50, 96
2, 187260, Note_on_c, 0, 50, 0
2, 187260, Note_on_c, 0, 71, 0
2, 187260, Note_on_c, 0, 69, 96
2, 187260, Note_on_c, 0, 60, 96
2, 187320, Note_on_c, 0, 60, 0
2, 187320, Note_on_c, 0, 69, 0
2, 187320, Note_on_c, 0, 67, 96
2, 187320, Note_on_c, 0, 57, 96
2, 187380, Note_on_c, 0, 57, 0
2, 187380, Note_on_c, 0, 67, 0
2, 187380, Note_on_c, 0, 60, 96
2, 187380, Note_on_c, 0, 69, 96
2, 187440, Note_on_c, 0, 69, 0
2, 187440, Note_on_c, 0, 60, 0
2, 187440, Note_on_c, 0, 66, 0
2, 187440, Note_on_c, 0, 66, 96
2, 187440, Note_on_c, 0, 69, 96
2, 187440, Note_on_c, 0, 55, 96
2, 187440, Note_on_c, 0, 60, 96
2, 187680, Note_on_c, 0, 60, 0
2, 187680, Note_on_c, 0, 66, 0
2, 187680, Note_on_c, 0, 69, 0
2, 187680, Note_on_c, 0, 67, 96
2, 187680, Note_on_c, 0, 59, 96
2, 187920, Note_on_c, 0, 59, 0
2, 187920, Note_on_c, 0, 67, 0
2, 187920, Note_on_c, 0, 55, 0
2, 188160, Note_on_c, 0, 70, 96
2, 188160, Note_on_c, 0, 55, 96
2, 188220, Note_on_c, 0, 55, 0
2, 188220, Note_on_c, 0, 62, 96
2, 188280, Note_on_c, 0, 62, 0
2, 188280, Note_on_c, 0, 58, 96
2, 188340, Note_on_c, 0, 58, 0
2, 188340, Note_on_c, 0, 62, 96
2, 188400, Note_on_c, 0, 62, 0
2, 188400, Note_on_c, 0, 55, 96
2, 188460, Note_on_c, 0, 55, 0
2, 188460, Note_on_c, 0, 70, 0
2, 188460, Note_on_c, 0, 69, 96
2, 188460, Note_on_c, 0, 62, 96
2, 188520, Note_on_c, 0, 62, 0
2, 188520, Note_on_c, 0, 69, 0
2, 188520, Note_on_c, 0, 72, 96
2, 188520, Note_on_c, 0, 58, 96
2, 188580, Note_on_c, 0, 58, 0
2, 188580, Note_on_c, 0, 72, 0
2, 188580, Note_on_c, 0, 70, 96
2, 188580, Note_on_c, 0, 62, 96
2, 188640, Note_on_c, 0, 62, 0
2, 188640, Note_on_c, 0, 70, 0
2, 188640, Note_on_c, 0, 70, 96
2, 188640, Note_on_c, 0, 57, 96
2, 188700, Note_on_c, 0, 57, 0
2, 188700, Note_on_c, 0, 70, 0
2, 188700, Note_on_c, 0, 69, 96
2, 188700, Note_on_c, 0, 62, 96
2, 188760, Note_on_c, 0, 62, 0
2, 188760, Note_on_c, 0, 69, 0
2, 188760, Note_on_c, 0, 67, 96
2, 188760, Note_on_c, 0, 60, 96
2, 188820, Note_on_c, 0, 60, 0
2, 188820, Note_on_c, 0, 67, 0
2, 188820, Note_on_c, 0, 66, 96
2, 188820, Note_on_c, 0, 62, 96
2, 188880, Note_on_c, 0, 62, 0
2, 188880, Note_on_c, 0, 66, 0
2, 188880, Note_on_c, 0, 67, 96
2, 188880, Note_on_c, 0, 55, 96
2, 188940, Note_on_c, 0, 55, 0
2, 188940, Note_on_c, 0, 62, 96
2, 189000, Note_on_c, 0, 62, 0
2, 189000, Note_on_c, 0, 58, 96
2, 189060, Note_on_c, 0, 58, 0
2, 189060, Note_on_c, 0, 67, 0
2, 189060, Note_on_c, 0, 70, 96
2, 189060, Note_on_c, 0, 62, 96
2, 189120, Note_on_c, 0, 62, 0
2, 189120, Note_on_c, 0, 70, 0
2, 189120, Note_on_c, 0, 74, 96
2, 189120, Note_on_c, 0, 55, 96
2, 189180, Note_on_c, 0, 55, 0
2, 189180, Note_on_c, 0, 62, 96
2, 189240, Note_on_c, 0, 62, 0
2, 189240, Note_on_c, 0, 58, 96
2, 189300, Note_on_c, 0, 58, 0
2, 189300, Note_on_c, 0, 62, 96
2, 189360, Note_on_c, 0, 62, 0
2, 189360, Note_on_c, 0, 74, 0
2, 189360, Note_on_c, 0, 55, 96
2, 189420, Note_on_c, 0, 55, 0
2, 189420, Note_on_c, 0, 62, 96
2, 189480, Note_on_c, 0, 62, 0
2, 189480, Note_on_c, 0, 58, 96
2, 189540, Note_on_c, 0, 58, 0
2, 189540, Note_on_c, 0, 62, 96
2, 189600, Note_on_c, 0, 62, 0
2, 189600, Note_on_c, 0, 74, 96
2, 189600, Note_on_c, 0, 54, 96
2, 189660, Note_on_c, 0, 54, 0
2, 189660, Note_on_c, 0, 62, 96
2, 189720, Note_on_c, 0, 62, 0
2, 189720, Note_on_c, 0, 57, 96
2, 189780, Note_on_c, 0, 57, 0
2, 189780, Note_on_c, 0, 62, 96
2, 189840, Note_on_c, 0, 62, 0
2, 189840, Note_on_c, 0, 54, 96
2, 189900, Note_on_c, 0, 54, 0
2, 189900, Note_on_c, 0, 74, 0
2, 189900, Note_on_c, 0, 73, 96
2, 189900, Note_on_c, 0, 62, 96
2, 189960, Note_on_c, 0, 62, 0
2, 189960, Note_on_c, 0, 73, 0
2, 189960, Note_on_c, 0, 75, 96
2, 189960, Note_on_c, 0, 57, 96
2, 190020, Note_on_c, 0, 57, 0
2, 190020, Note_on_c, 0, 75, 0
2, 190020, Note_on_c, 0, 74, 96
2, 190020, Note_on_c, 0, 62, 96
2, 190080, Note_on_c, 0, 62, 0
2, 190080, Note_on_c, 0, 74, 0
2, 190080, Note_on_c, 0, 74, 96
2, 190080, Note_on_c, 0, 50, 96
2, 190140, Note_on_c, 0, 50, 0
2, 190140, Note_on_c, 0, 74, 0
2, 190140, Note_on_c, 0, 72, 96
2, 190140, Note_on_c, 0, 62, 96
2, 190200, Note_on_c, 0, 62, 0
2, 190200, Note_on_c, 0, 72, 0
2, 190200, Note_on_c, 0, 70, 96
2, 190200, Note_on_c, 0, 54, 96
2, 190260, Note_on_c, 0, 54, 0
2, 190260, Note_on_c, 0, 70, 0
2, 190260, Note_on_c, 0, 69, 96
2, 190260, Note_on_c, 0, 62, 96
2, 190320, Note_on_c, 0, 62, 0
2, 190320, Note_on_c, 0, 69, 0
2, 190320, Note_on_c, 0, 70, 96
2, 190320, Note_on_c, 0, 55, 96
2, 190380, Note_on_c, 0, 55, 0
2, 190380, Note_on_c, 0, 62, 96
2, 190440, Note_on_c, 0, 62, 0
2, 190440, Note_on_c, 0, 58, 96
2, 190500, Note_on_c, 0, 58, 0
2, 190500, Note_on_c, 0, 70, 0
2, 190500, Note_on_c, 0, 74, 96
2, 190500, Note_on_c, 0, 62, 96
2, 190560, Note_on_c, 0, 62, 0
2, 190560, Note_on_c, 0, 74, 0
2, 190560, Note_on_c, 0, 79, 96
2, 190560, Note_on_c, 0, 55, 96
2, 190620, Note_on_c, 0, 55, 0
2, 190620, Note_on_c, 0, 62, 96
2, 190680, Note_on_c, 0, 62, 0
2, 190680, Note_on_c, 0, 58, 96
2, 190740, Note_on_c, 0, 58, 0
2, 190740, Note_on_c, 0, 62, 96
2, 190800, Note_on_c, 0, 62, 0
2, 190800, Note_on_c, 0, 79, 0
2, 190800, Note_on_c, 0, 55, 96
2, 190860, Note_on_c, 0, 55, 0
2, 190860, Note_on_c, 0, 63, 96
2, 190920, Note_on_c, 0, 63, 0
2, 190920, Note_on_c, 0, 58, 96
2, 190980, Note_on_c, 0, 58, 0
2, 190980, Note_on_c, 0, 63, 96
2, 191040, Note_on_c, 0, 63, 0
2, 191040, Note_on_c, 0, 77, 96
2, 191040, Note_on_c, 0, 57, 96
2, 191100, Note_on_c, 0, 57, 0
2, 191100, Note_on_c, 0, 65, 96
2, 191160, Note_on_c, 0, 65, 0
2, 191160, Note_on_c, 0, 60, 96
2, 191220, Note_on_c, 0, 60, 0
2, 191220, Note_on_c, 0, 65, 96
2, 191280, Note_on_c, 0, 65, 0
2, 191280, Note_on_c, 0, 57, 96
2, 191340, Note_on_c, 0, 57, 0
2, 191340, Note_on_c, 0, 77, 0
2, 191340, Note_on_c, 0, 81, 96
2, 191340, Note_on_c, 0, 65, 96
2, 191400, Note_on_c, 0, 65, 0
2, 191400, Note_on_c, 0, 81, 0
2, 191400, Note_on_c, 0, 84, 96
2, 191400, Note_on_c, 0, 60, 96
2, 191460, Note_on_c, 0, 60, 0
2, 191460, Note_on_c, 0, 84, 0
2, 191460, Note_on_c, 0, 82, 96
2, 191460, Note_on_c, 0, 65, 96
2, 191520, Note_on_c, 0, 65, 0
2, 191520, Note_on_c, 0, 82, 0
2, 191520, Note_on_c, 0, 81, 96
2, 191520, Note_on_c, 0, 57, 96
2, 191580, Note_on_c, 0, 57, 0
2, 191580, Note_on_c, 0, 81, 0
2, 191580, Note_on_c, 0, 79, 96
2, 191580, Note_on_c, 0, 65, 96
2, 191640, Note_on_c, 0, 65, 0
2, 191640, Note_on_c, 0, 79, 0
2, 191640, Note_on_c, 0, 77, 96
2, 191640, Note_on_c, 0, 60, 96
2, 191700, Note_on_c, 0, 60, 0
2, 191700, Note_on_c, 0, 77, 0
2, 191700, Note_on_c, 0, 75, 96
2, 191700, Note_on_c, 0, 65, 96
2, 191760, Note_on_c, 0, 65, 0
2, 191760, Note_on_c, 0, 75, 0
2, 191760, Note_on_c, 0, 74, 96
2, 191760, Note_on_c, 0, 58, 96
2, 191820, Note_on_c, 0, 58, 0
2, 191820, Note_on_c, 0, 65, 96
2, 191880, Note_on_c, 0, 65, 0
2, 191880, Note_on_c, 0, 62, 96
2, 191940, Note_on_c, 0, 62, 0
2, 191940, Note_on_c, 0, 65, 96
2, 192000, Note_on_c, 0, 65, 0
2, 192000, Note_on_c, 0, 55, 96
2, 192060, Note_on_c, 0, 55, 0
2, 192060, Note_on_c, 0, 74, 0
2, 192060, Note_on_c, 0, 79, 96
2, 192060, Note_on_c, 0, 62, 96
2, 192120, Note_on_c, 0, 62, 0
2, 192120, Note_on_c, 0, 79, 0
2, 192120, Note_on_c, 0, 82, 96
2, 192120, Note_on_c, 0, 58, 96
2, 192180, Note_on_c, 0, 58, 0
2, 192180, Note_on_c, 0, 82, 0
2, 192180, Note_on_c, 0, 81, 96
2, 192180, Note_on_c, 0, 62, 96
2, 192240, Note_on_c, 0, 62, 0
2, 192240, Note_on_c, 0, 81, 0
2, 192240, Note_on_c, 0, 79, 96
2, 192240, Note_on_c, 0, 50, 96
2, 192300, Note_on_c, 0, 50, 0
2, 192300, Note_on_c, 0, 79, 0
2, 192300, Note_on_c, 0, 77, 96
2, 192300, Note_on_c, 0, 58, 96
2, 192360, Note_on_c, 0, 58, 0
2, 192360, Note_on_c, 0, 77, 0
2, 192360, Note_on_c, 0, 75, 96
2, 192360, Note_on_c, 0, 53, 96
2, 192420, Note_on_c, 0, 53, 0
2, 192420, Note_on_c, 0, 75, 0
2, 192420, Note_on_c, 0, 74, 96
2, 192420, Note_on_c, 0, 58, 96
2, 192480, Note_on_c, 0, 58, 0
2, 192480, Note_on_c, 0, 74, 0
2, 192480, Note_on_c, 0, 71, 96
2, 192480, Note_on_c, 0, 51, 96
2, 192540, Note_on_c, 0, 51, 0
2, 192540, Note_on_c, 0, 71, 0
2, 192540, Note_on_c, 0, 72, 96
2, 192540, Note_on_c, 0, 60, 96
2, 192600, Note_on_c, 0, 60, 0
2, 192600, Note_on_c, 0, 72, 0
2, 192600, Note_on_c, 0, 75, 96
2, 192600, Note_on_c, 0, 55, 96
2, 192660, Note_on_c, 0, 55, 0
2, 192660, Note_on_c, 0, 75, 0
2, 192660, Note_on_c, 0, 79, 96
2, 192660, Note_on_c, 0, 60, 96
2, 192720, Note_on_c, 0, 60, 0
2, 192720, Note_on_c, 0, 79, 0
2, 192720, Note_on_c, 0, 70, 96
2, 192720, Note_on_c, 0, 53, 96
2, 192780, Note_on_c, 0, 53, 0
2, 192780, Note_on_c, 0, 62, 96
2, 192840, Note_on_c, 0, 62, 0
2, 192840, Note_on_c, 0, 58, 96
2, 192900, Note_on_c, 0, 58, 0
2, 192900, Note_on_c, 0, 70, 0
2, 192900, Note_on_c, 0, 70, 96
2, 192900, Note_on_c, 0, 62, 96
2, 192960, Note_on_c, 0, 62, 0
2, 192960, Note_on_c, 0, 70, 0
2, 192960, Note_on_c, 0, 74, 96
2, 192960, Note_on_c, 0, 53, 96
2, 193020, Note_on_c, 0, 53, 0
2, 193020, Note_on_c, 0, 74, 0
2, 193020, Note_on_c, 0, 72, 96
2, 193020, Note_on_c, 0, 63, 96
2, 193080, Note_on_c, 0, 63, 0
2, 193080, Note_on_c, 0, 72, 0
2, 193080, Note_on_c, 0, 70, 96
2, 193080, Note_on_c, 0, 57, 96
2, 193140, Note_on_c, 0, 57, 0
2, 193140, Note_on_c, 0, 70, 0
2, 193140, Note_on_c, 0, 72, 96
2, 193140, Note_on_c, 0, 63, 96
2, 193200, Note_on_c, 0, 63, 0
2, 193200, Note_on_c, 0, 72, 0
2, 193200, Note_on_c, 0, 69, 96
2, 193200, Note_on_c, 0, 72, 96
2, 193200, Note_on_c, 0, 58, 96
2, 193200, Note_on_c, 0, 63, 96
2, 193440, Note_on_c, 0, 63, 0
2, 193440, Note_on_c, 0, 69, 0
2, 193440, Note_on_c, 0, 72, 0
2, 193440, Note_on_c, 0, 70, 96
2, 193440, Note_on_c, 0, 62, 96
2, 193500, Note_on_c, 0, 70, 0
2, 193500, Note_on_c, 0, 69, 96
2, 193560, Note_on_c, 0, 69, 0
2, 193560, Note_on_c, 0, 72, 96
2, 193620, Note_on_c, 0, 72, 0
2, 193620, Note_on_c, 0, 70, 96
2, 193680, Note_on_c, 0, 70, 0
2, 193680, Note_on_c, 0, 62, 0
2, 193680, Note_on_c, 0, 58, 0
2, 193680, Note_on_c, 0, 74, 96
2, 193740, Note_on_c, 0, 74, 0
2, 193740, Note_on_c, 0, 72, 96
2, 193800, Note_on_c, 0, 72, 0
2, 193800, Note_on_c, 0, 75, 96
2, 193860, Note_on_c, 0, 75, 0
2, 193860, Note_on_c, 0, 74, 96
2, 193920, Note_on_c, 0, 74, 0
2, 193920, Note_on_c, 0, 77, 96
2, 193920, Note_on_c, 0, 56, 96
2, 193980, Note_on_c, 0, 56, 0
2, 193980, Note_on_c, 0, 65, 96
2, 194040, Note_on_c, 0, 65, 0
2, 194040, Note_on_c, 0, 60, 96
2, 194100, Note_on_c, 0, 60, 0
2, 194100, Note_on_c, 0, 65, 96
2, 194160, Note_on_c, 0, 65, 0
2, 194160, Note_on_c, 0, 55, 96
2, 194220, Note_on_c, 0, 55, 0
2, 194220, Note_on_c, 0, 77, 0
2, 194220, Note_on_c, 0, 80, 96
2, 194220, Note_on_c, 0, 62, 96
2, 194280, Note_on_c, 0, 62, 0
2, 194280, Note_on_c, 0, 80, 0
2, 194280, Note_on_c, 0, 79, 96
2, 194280, Note_on_c, 0, 59, 96
2, 194340, Note_on_c, 0, 59, 0
2, 194340, Note_on_c, 0, 79, 0
2, 194340, Note_on_c, 0, 77, 96
2, 194340, Note_on_c, 0, 62, 96
2, 194400, Note_on_c, 0, 62, 0
2, 194400, Note_on_c, 0, 77, 0
2, 194400, Note_on_c, 0, 75, 96
2, 194400, Note_on_c, 0, 53, 96
2, 194460, Note_on_c, 0, 53, 0
2, 194460, Note_on_c, 0, 75, 0
2, 194460, Note_on_c, 0, 74, 96
2, 194460, Note_on_c, 0, 62, 96
2, 194520, Note_on_c, 0, 62, 0
2, 194520, Note_on_c, 0, 74, 0
2, 194520, Note_on_c, 0, 72, 96
2, 194520, Note_on_c, 0, 55, 96
2, 194580, Note_on_c, 0, 55, 0
2, 194580, Note_on_c, 0, 72, 0
2, 194580, Note_on_c, 0, 71, 96
2, 194580, Note_on_c, 0, 62, 96
2, 194640, Note_on_c, 0, 62, 0
2, 194640, Note_on_c, 0, 71, 0
2, 194640, Note_on_c, 0, 72, 96
2, 194640, Note_on_c, 0, 51, 96
2, 194700, Note_on_c, 0, 51, 0
2, 194700, Note_on_c, 0, 60, 96
2, 194760, Note_on_c, 0, 60, 0
2, 194760, Note_on_c, 0, 55, 96
2, 194820, Note_on_c, 0, 55, 0
2, 194820, Note_on_c, 0, 72, 0
2, 194820, Note_on_c, 0, 75, 96
2, 194820, Note_on_c, 0, 60, 96
2, 194880, Note_on_c, 0, 60, 0
2, 194880, Note_on_c, 0, 75, 0
2, 194880, Note_on_c, 0, 79, 96
2, 194880, Note_on_c, 0, 50, 96
2, 194940, Note_on_c, 0, 50, 0
2, 194940, Note_on_c, 0, 59, 96
2, 195000, Note_on_c, 0, 59, 0
2, 195000, Note_on_c, 0, 53, 96
2, 195060, Note_on_c, 0, 53, 0
2, 195060, Note_on_c, 0, 59, 96
2, 195120, Note_on_c, 0, 59, 0
2, 195120, Note_on_c, 0, 79, 0
2, 195120, Note_on_c, 0, 48, 96
2, 195180, Note_on_c, 0, 48, 0
2, 195180, Note_on_c, 0, 60, 96
2, 195240, Note_on_c, 0, 60, 0
2, 195240, Note_on_c, 0, 51, 96
2, 195300, Note_on_c, 0, 51, 0
2, 195300, Note_on_c, 0, 60, 96
2, 195360, Note_on_c, 0, 60, 0
2, 195360, Note_on_c, 0, 79, 96
2, 195360, Note_on_c, 0, 49, 96
2, 195420, Note_on_c, 0, 49, 0
2, 195420, Note_on_c, 0, 58, 96
2, 195480, Note_on_c, 0, 58, 0
2, 195480, Note_on_c, 0, 52, 96
2, 195540, Note_on_c, 0, 52, 0
2, 195540, Note_on_c, 0, 58, 96
2, 195600, Note_on_c, 0, 58, 0
2, 195600, Note_on_c, 0, 50, 96
2, 195660, Note_on_c, 0, 50, 0
2, 195660, Note_on_c, 0, 79, 0
2, 195660, Note_on_c, 0, 78, 96
2, 195660, Note_on_c, 0, 58, 96
2, 195720, Note_on_c, 0, 58, 0
2, 195720, Note_on_c, 0, 78, 0
2, 195720, Note_on_c, 0, 81, 96
2, 195720, Note_on_c, 0, 55, 96
2, 195780, Note_on_c, 0, 55, 0
2, 195780, Note_on_c, 0, 81, 0
2, 195780, Note_on_c, 0, 79, 96
2, 195780, Note_on_c, 0, 58, 96
2, 195840, Note_on_c, 0, 58, 0
2, 195840, Note_on_c, 0, 79, 0
2, 195840, Note_on_c, 0, 82, 96
2, 195840, Note_on_c, 0, 51, 96
2, 195900, Note_on_c, 0, 51, 0
2, 195900, Note_on_c, 0, 82, 0
2, 195900, Note_on_c, 0, 73, 96
2, 195900, Note_on_c, 0, 58, 96
2, 195960, Note_on_c, 0, 58, 0
2, 195960, Note_on_c, 0, 73, 0
2, 195960, Note_on_c, 0, 82, 96
2, 195960, Note_on_c, 0, 55, 96
2, 196020, Note_on_c, 0, 55, 0
2, 196020, Note_on_c, 0, 82, 0
2, 196020, Note_on_c, 0, 73, 96
2, 196020, Note_on_c, 0, 58, 96
2, 196080, Note_on_c, 0, 58, 0
2, 196080, Note_on_c, 0, 73, 0
2, 196080, Note_on_c, 0, 73, 96
2, 196080, Note_on_c, 0, 50, 96
2, 196140, Note_on_c, 0, 50, 0
2, 196140, Note_on_c, 0, 58, 96
2, 196200, Note_on_c, 0, 58, 0
2, 196200, Note_on_c, 0, 55, 96
2, 196260, Note_on_c, 0, 55, 0
2, 196260, Note_on_c, 0, 58, 96
2, 196320, Note_on_c, 0, 58, 0
2, 196320, Note_on_c, 0, 73, 0
2, 196320, Note_on_c, 0, 74, 96
2, 196320, Note_on_c, 0, 50, 96
2, 196380, Note_on_c, 0, 50, 0
2, 196380, Note_on_c, 0, 57, 96
2, 196440, Note_on_c, 0, 57, 0
2, 196440, Note_on_c, 0, 54, 96
2, 196500, Note_on_c, 0, 54, 0
2, 196500, Note_on_c, 0, 57, 96
2, 196560, Note_on_c, 0, 57, 0
2, 196560, Note_on_c, 0, 74, 0
2, 196560, Note_on_c, 0, 50, 96
2, 196620, Note_on_c, 0, 50, 0
2, 196620, Note_on_c, 0, 57, 96
2, 196680, Note_on_c, 0, 57, 0
2, 196680, Note_on_c, 0, 54, 96
2, 196740, Note_on_c, 0, 54, 0
2, 196740, Note_on_c, 0, 57, 96
2, 196800, Note_on_c, 0, 57, 0
2, 196800, Note_on_c, 0, 75, 96
2, 196800, Note_on_c, 0, 48, 96
2, 196860, Note_on_c, 0, 48, 0
2, 196860, Note_on_c, 0, 57, 96
2, 196920, Note_on_c, 0, 57, 0
2, 196920, Note_on_c, 0, 54, 96
2, 196980, Note_on_c, 0, 54, 0
2, 196980, Note_on_c, 0, 57, 96
2, 197040, Note_on_c, 0, 57, 0
2, 197040, Note_on_c, 0, 48, 96
2, 197100, Note_on_c, 0, 48, 0
2, 197100, Note_on_c, 0, 75, 0
2, 197100, Note_on_c, 0, 72, 96
2, 197100, Note_on_c, 0, 57, 96
2, 197160, Note_on_c, 0, 57, 0
2, 197160, Note_on_c, 0, 72, 0
2, 197160, Note_on_c, 0, 81, 96
2, 197160, Note_on_c, 0, 54, 96
2, 197220, Note_on_c, 0, 54, 0
2, 197220, Note_on_c, 0, 81, 0
2, 197220, Note_on_c, 0, 78, 96
2, 197220, Note_on_c, 0, 57, 96
2, 197280, Note_on_c, 0, 57, 0
2, 197280, Note_on_c, 0, 78, 0
2, 197280, Note_on_c, 0, 84, 96
2, 197280, Note_on_c, 0, 48, 96
2, 197340, Note_on_c, 0, 48, 0
2, 197340, Note_on_c, 0, 84, 0
2, 197340, Note_on_c, 0, 81, 96
2, 197340, Note_on_c, 0, 57, 96
2, 197400, Note_on_c, 0, 57, 0
2, 197400, Note_on_c, 0, 81, 0
2, 197400, Note_on_c, 0, 87, 96
2, 197400, Note_on_c, 0, 54, 96
2, 197460, Note_on_c, 0, 54, 0
2, 197460, Note_on_c, 0, 87, 0
2, 197460, Note_on_c, 0, 78, 96
2, 197460, Note_on_c, 0, 57, 96
2, 197520, Note_on_c, 0, 57, 0
2, 197520, Note_on_c, 0, 78, 0
2, 197520, Note_on_c, 0, 86, 96
2, 197520, Note_on_c, 0, 46, 96
2, 197580, Note_on_c, 0, 46, 0
2, 197580, Note_on_c, 0, 55, 96
2, 197640, Note_on_c, 0, 55, 0
2, 197640, Note_on_c, 0, 50, 96
2, 197700, Note_on_c, 0, 50, 0
2, 197700, Note_on_c, 0, 55, 96
2, 197760, Note_on_c, 0, 55, 0
2, 197760, Note_on_c, 0, 46, 96
2, 197820, Note_on_c, 0, 46, 0
2, 197820, Note_on_c, 0, 86, 0
2, 197820, Note_on_c, 0, 81, 96
2, 197820, Note_on_c, 0, 55, 96
2, 197880, Note_on_c, 0, 55, 0
2, 197880, Note_on_c, 0, 81, 0
2, 197880, Note_on_c, 0, 82, 96
2, 197880, Note_on_c, 0, 50, 96
2, 197940, Note_on_c, 0, 50, 0
2, 197940, Note_on_c, 0, 82, 0
2, 197940, Note_on_c, 0, 78, 96
2, 197940, Note_on_c, 0, 55, 96
2, 198000, Note_on_c, 0, 55, 0
2, 198000, Note_on_c, 0, 78, 0
2, 198000, Note_on_c, 0, 79, 96
2, 198000, Note_on_c, 0, 46, 96
2, 198060, Note_on_c, 0, 46, 0
2, 198060, Note_on_c, 0, 79, 0
2, 198060, Note_on_c, 0, 73, 96
2, 198060, Note_on_c, 0, 55, 96
2, 198120, Note_on_c, 0, 55, 0
2, 198120, Note_on_c, 0, 73, 0
2, 198120, Note_on_c, 0, 74, 96
2, 198120, Note_on_c, 0, 50, 96
2, 198180, Note_on_c, 0, 50, 0
2, 198180, Note_on_c, 0, 74, 0
2, 198180, Note_on_c, 0, 70, 96
2, 198180, Note_on_c, 0, 55, 96
2, 198240, Note_on_c, 0, 55, 0
2, 198240, Note_on_c, 0, 70, 0
2, 198240, Note_on_c, 0, 70, 96
2, 198240, Note_on_c, 0, 48, 96
2, 198300, Note_on_c, 0, 48, 0
2, 198300, Note_on_c, 0, 70, 0
2, 198300, Note_on_c, 0, 69, 96
2, 198300, Note_on_c, 0, 57, 96
2, 198360, Note_on_c, 0, 57, 0
2, 198360, Note_on_c, 0, 69, 0
2, 198360, Note_on_c, 0, 72, 96
2, 198360, Note_on_c, 0, 51, 96
2, 198420, Note_on_c, 0, 51, 0
2, 198420, Note_on_c, 0, 72, 0
2, 198420, Note_on_c, 0, 75, 96
2, 198420, Note_on_c, 0, 57, 96
2, 198480, Note_on_c, 0, 57, 0
2, 198480, Note_on_c, 0, 75, 0
2, 198480, Note_on_c, 0, 67, 96
2, 198480, Note_on_c, 0, 50, 96
2, 198540, Note_on_c, 0, 50, 0
2, 198540, Note_on_c, 0, 58, 96
2, 198600, Note_on_c, 0, 58, 0
2, 198600, Note_on_c, 0, 55, 96
2, 198660, Note_on_c, 0, 55, 0
2, 198660, Note_on_c, 0, 67, 0
2, 198660, Note_on_c, 0, 67, 96
2, 198660, Note_on_c, 0, 58, 96
2, 198720, Note_on_c, 0, 58, 0
2, 198720, Note_on_c, 0, 67, 0
2, 198720, Note_on_c, 0, 70, 96
2, 198720, Note_on_c, 0, 50, 96
2, 198780, Note_on_c, 0, 50, 0
2, 198780, Note_on_c, 0, 70, 0
2, 198780, Note_on_c, 0, 69, 96
2, 198780, Note_on_c, 0, 60, 96
2, 198840, Note_on_c, 0, 60, 0
2, 198840, Note_on_c, 0, 69, 0
2, 198840, Note_on_c, 0, 67, 96
2, 198840, Note_on_c, 0, 54, 96
2, 198900, Note_on_c, 0, 54, 0
2, 198900, Note_on_c, 0, 67, 0
2, 198900, Note_on_c, 0, 66, 96
2, 198900, Note_on_c, 0, 60, 96
2, 198960, Note_on_c, 0, 60, 0
2, 198960, Note_on_c, 0, 66, 0
2, 198960, Note_on_c, 0, 66, 96
2, 198960, Note_on_c, 0, 69, 96
2, 198960, Note_on_c, 0, 55, 96
2, 198960, Note_on_c, 0, 60, 96
2, 199200, Note_on_c, 0, 60, 0
2, 199200, Note_on_c, 0, 66, 0
2, 199200, Note_on_c, 0, 69, 0
2, 199200, Note_on_c, 0, 67, 96
2, 199200, Note_on_c, 0, 58, 96
2, 199260, Note_on_c, 0, 67, 0
2, 199260, Note_on_c, 0, 66, 96
2, 199320, Note_on_c, 0, 66, 0
2, 199320, Note_on_c, 0, 67, 96
2, 199380, Note_on_c, 0, 67, 0
2, 199380, Note_on_c, 0, 68, 96
2, 199440, Note_on_c, 0, 68, 0
2, 199440, Note_on_c, 0, 58, 0
2, 199440, Note_on_c, 0, 55, 0
2, 199440, Note_on_c, 0, 69, 96
2, 199500, Note_on_c, 0, 69, 0
2, 199500, Note_on_c, 0, 68, 96
2, 199560, Note_on_c, 0, 68, 0
2, 199560, Note_on_c, 0, 69, 96
2, 199620, Note_on_c, 0, 69, 0
2, 199620, Note_on_c, 0, 70, 96
2, 199680, Note_on_c, 0, 70, 0
2, 199680, Note_on_c, 0, 71, 96
2, 199680, Note_on_c, 0, 55, 96
2, 199740, Note_on_c, 0, 55, 0
2, 199740, Note_on_c, 0, 62, 96
2, 199800, Note_on_c, 0, 62, 0
2, 199800, Note_on_c, 0, 59, 96
2, 199860, Note_on_c, 0, 59, 0
2, 199860, Note_on_c, 0, 62, 96
2, 199920, Note_on_c, 0, 62, 0
2, 199920, Note_on_c, 0, 55, 96
2, 199980, Note_on_c, 0, 55, 0
2, 199980, Note_on_c, 0, 62, 96
2, 200040, Note_on_c, 0, 62, 0
2, 200040, Note_on_c, 0, 59, 96
2, 200100, Note_on_c, 0, 59, 0
2, 200100, Note_on_c, 0, 62, 96
2, 200160, Note_on_c, 0, 62, 0
2, 200160, Note_on_c, 0, 71, 0
2, 200160, Note_on_c, 0, 74, 96
2, 200160, Note_on_c, 0, 57, 96
2, 200220, Note_on_c, 0, 57, 0
2, 200220, Note_on_c, 0, 74, 0
2, 200220, Note_on_c, 0, 72, 96
2, 200220, Note_on_c, 0, 62, 96
2, 200280, Note_on_c, 0, 62, 0
2, 200280, Note_on_c, 0, 72, 0
2, 200280, Note_on_c, 0, 71, 96
2, 200280, Note_on_c, 0, 60, 96
2, 200340, Note_on_c, 0, 60, 0
2, 200340, Note_on_c, 0, 71, 0
2, 200340, Note_on_c, 0, 72, 96
2, 200340, Note_on_c, 0, 62, 96
2, 200400, Note_on_c, 0, 62, 0
2, 200400, Note_on_c, 0, 72, 0
2, 200400, Note_on_c, 0, 74, 96
2, 200400, Note_on_c, 0, 55, 96
2, 200460, Note_on_c, 0, 55, 0
2, 200460, Note_on_c, 0, 62, 96
2, 200520, Note_on_c, 0, 62, 0
2, 200520, Note_on_c, 0, 59, 96
2, 200580, Note_on_c, 0, 59, 0
2, 200580, Note_on_c, 0, 74, 0
2, 200580, Note_on_c, 0, 71, 96
2, 200580, Note_on_c, 0, 62, 96
2, 200640, Note_on_c, 0, 62, 0
2, 200640, Note_on_c, 0, 71, 0
2, 200640, Note_on_c, 0, 67, 96
2, 200640, Note_on_c, 0, 55, 96
2, 200700, Note_on_c, 0, 55, 0
2, 200700, Note_on_c, 0, 62, 96
2, 200760, Note_on_c, 0, 62, 0
2, 200760, Note_on_c, 0, 59, 96
2, 200820, Note_on_c, 0, 59, 0
2, 200820, Note_on_c, 0, 62, 96
2, 200880, Note_on_c, 0, 62, 0
2, 200880, Note_on_c, 0, 67, 0
2, 200880, Note_on_c, 0, 55, 96
2, 200940, Note_on_c, 0, 55, 0
2, 200940, Note_on_c, 0, 62, 96
2, 201000, Note_on_c, 0, 62, 0
2, 201000, Note_on_c, 0, 59, 96
2, 201060, Note_on_c, 0, 59, 0
2, 201060, Note_on_c, 0, 62, 96
2, 201120, Note_on_c, 0, 62, 0
2, 201120, Note_on_c, 0, 79, 96
2, 201120, Note_on_c, 0, 55, 96
2, 201180, Note_on_c, 0, 55, 0
2, 201180, Note_on_c, 0, 64, 96
2, 201240, Note_on_c, 0, 64, 0
2, 201240, Note_on_c, 0, 60, 96
2, 201300, Note_on_c, 0, 60, 0
2, 201300, Note_on_c, 0, 64, 96
2, 201360, Note_on_c, 0, 64, 0
2, 201360, Note_on_c, 0, 55, 96
2, 201420, Note_on_c, 0, 55, 0
2, 201420, Note_on_c, 0, 64, 96
2, 201480, Note_on_c, 0, 64, 0
2, 201480, Note_on_c, 0, 79, 0
2, 201480, Note_on_c, 0, 81, 96
2, 201480, Note_on_c, 0, 60, 96
2, 201540, Note_on_c, 0, 60, 0
2, 201540, Note_on_c, 0, 81, 0
2, 201540, Note_on_c, 0, 79, 96
2, 201540, Note_on_c, 0, 64, 96
2, 201600, Note_on_c, 0, 64, 0
2, 201600, Note_on_c, 0, 79, 0
2, 201600, Note_on_c, 0, 78, 96
2, 201600, Note_on_c, 0, 55, 96
2, 201660, Note_on_c, 0, 55, 0
2, 201660, Note_on_c, 0, 78, 0
2, 201660, Note_on_c, 0, 76, 96
2, 201660, Note_on_c, 0, 61, 96
2, 201720, Note_on_c, 0, 61, 0
2, 201720, Note_on_c, 0, 76, 0
2, 201720, Note_on_c, 0, 74, 96
2, 201720, Note_on_c, 0, 58, 96
2, 201780, Note_on_c, 0, 58, 0
2, 201780, Note_on_c, 0, 74, 0
2, 201780, Note_on_c, 0, 73, 96
2, 201780, Note_on_c, 0, 61, 96
2, 201840, Note_on_c, 0, 61, 0
2, 201840, Note_on_c, 0, 73, 0
2, 201840, Note_on_c, 0, 74, 96
2, 201840, Note_on_c, 0, 55, 96
2, 201900, Note_on_c, 0, 55, 0
2, 201900, Note_on_c, 0, 62, 96
2, 201960, Note_on_c, 0, 62, 0
2, 201960, Note_on_c, 0, 59, 96
2, 202020, Note_on_c, 0, 59, 0
2, 202020, Note_on_c, 0, 74, 0
2, 202020, Note_on_c, 0, 71, 96
2, 202020, Note_on_c, 0, 62, 96
2, 202080, Note_on_c, 0, 62, 0
2, 202080, Note_on_c, 0, 71, 0
2, 202080, Note_on_c, 0, 67, 96
2, 202080, Note_on_c, 0, 55, 96
2, 202140, Note_on_c, 0, 55, 0
2, 202140, Note_on_c, 0, 62, 96
2, 202200, Note_on_c, 0, 62, 0
2, 202200, Note_on_c, 0, 59, 96
2, 202260, Note_on_c, 0, 59, 0
2, 202260, Note_on_c, 0, 62, 96
2, 202320, Note_on_c, 0, 62, 0
2, 202320, Note_on_c, 0, 67, 0
2, 202320, Note_on_c, 0, 55, 96
2, 202380, Note_on_c, 0, 55, 0
2, 202380, Note_on_c, 0, 62, 96
2, 202440, Note_on_c, 0, 62, 0
2, 202440, Note_on_c, 0, 59, 96
2, 202500, Note_on_c, 0, 59, 0
2, 202500, Note_on_c, 0, 62, 96
2, 202560, Note_on_c, 0, 62, 0
2, 202560, Note_on_c, 0, 72, 96
2, 202560, Note_on_c, 0, 57, 96
2, 202620, Note_on_c, 0, 57, 0
2, 202620, Note_on_c, 0, 62, 96
2, 202680, Note_on_c, 0, 62, 0
2, 202680, Note_on_c, 0, 60, 96
2, 202740, Note_on_c, 0, 60, 0
2, 202740, Note_on_c, 0, 72, 0
2, 202740, Note_on_c, 0, 69, 96
2, 202740, Note_on_c, 0, 62, 96
2, 202800, Note_on_c, 0, 62, 0
2, 202800, Note_on_c, 0, 69, 0
2, 202800, Note_on_c, 0, 66, 96
2, 202800, Note_on_c, 0, 57, 96
2, 202860, Note_on_c, 0, 57, 0
2, 202860, Note_on_c, 0, 62, 96
2, 202920, Note_on_c, 0, 62, 0
2, 202920, Note_on_c, 0, 66, 0
2, 202920, Note_on_c, 0, 69, 96
2, 202920, Note_on_c, 0, 60, 96
2, 202980, Note_on_c, 0, 60, 0
2, 202980, Note_on_c, 0, 62, 96
2, 203040, Note_on_c, 0, 62, 0
2, 203040, Note_on_c, 0, 69, 0
2, 203040, Note_on_c, 0, 71, 96
2, 203040, Note_on_c, 0, 57, 96
2, 203100, Note_on_c, 0, 57, 0
2, 203100, Note_on_c, 0, 62, 96
2, 203160, Note_on_c, 0, 62, 0
2, 203160, Note_on_c, 0, 71, 0
2, 203160, Note_on_c, 0, 72, 96
2, 203160, Note_on_c, 0, 60, 96
2, 203220, Note_on_c, 0, 60, 0
2, 203220, Note_on_c, 0, 62, 96
2, 203280, Note_on_c, 0, 62, 0
2, 203280, Note_on_c, 0, 72, 0
2, 203280, Note_on_c, 0, 74, 96
2, 203280, Note_on_c, 0, 55, 96
2, 203340, Note_on_c, 0, 55, 0
2, 203340, Note_on_c, 0, 62, 96
2, 203400, Note_on_c, 0, 62, 0
2, 203400, Note_on_c, 0, 59, 96
2, 203460, Note_on_c, 0, 59, 0
2, 203460, Note_on_c, 0, 74, 0
2, 203460, Note_on_c, 0, 71, 96
2, 203460, Note_on_c, 0, 62, 96
2, 203520, Note_on_c, 0, 62, 0
2, 203520, Note_on_c, 0, 71, 0
2, 203520, Note_on_c, 0, 79, 96
2, 203520, Note_on_c, 0, 52, 96
2, 203580, Note_on_c, 0, 52, 0
2, 203580, Note_on_c, 0, 59, 96
2, 203640, Note_on_c, 0, 59, 0
2, 203640, Note_on_c, 0, 55, 96
2, 203700, Note_on_c, 0, 55, 0
2, 203700, Note_on_c, 0, 59, 96
2, 203760, Note_on_c, 0, 59, 0
2, 203760, Note_on_c, 0, 79, 0
2, 203760, Note_on_c, 0, 47, 96
2, 203820, Note_on_c, 0, 47, 0
2, 203820, Note_on_c, 0, 55, 96
2, 203880, Note_on_c, 0, 55, 0
2, 203880, Note_on_c, 0, 50, 96
2, 203940, Note_on_c, 0, 50, 0
2, 203940, Note_on_c, 0, 55, 96
2, 204000, Note_on_c, 0, 55, 0
2, 204000, Note_on_c, 0, 81, 96
2, 204000, Note_on_c, 0, 48, 96
2, 204000, Note_on_c, 0, 52, 96
2, 204060, Note_on_c, 0, 81, 0
2, 204060, Note_on_c, 0, 79, 96
2, 204120, Note_on_c, 0, 79, 0
2, 204120, Note_on_c, 0, 78, 96
2, 204180, Note_on_c, 0, 78, 0
2, 204180, Note_on_c, 0, 79, 96
2, 204240, Note_on_c, 0, 79, 0
2, 204240, Note_on_c, 0, 52, 0
2, 204240, Note_on_c, 0, 55, 96
2, 204240, Note_on_c, 0, 78, 96
2, 204300, Note_on_c, 0, 78, 0
2, 204300, Note_on_c, 0, 76, 96
2, 204360, Note_on_c, 0, 76, 0
2, 204360, Note_on_c, 0, 75, 96
2, 204420, Note_on_c, 0, 75, 0
2, 204420, Note_on_c, 0, 76, 96
2, 204480, Note_on_c, 0, 76, 0
2, 204480, Note_on_c, 0, 48, 0
2, 204480, Note_on_c, 0, 52, 96
2, 204480, Note_on_c, 0, 74, 96
2, 204540, Note_on_c, 0, 74, 0
2, 204540, Note_on_c, 0, 72, 96
2, 204600, Note_on_c, 0, 72, 0
2, 204600, Note_on_c, 0, 71, 96
2, 204660, Note_on_c, 0, 71, 0
2, 204660, Note_on_c, 0, 69, 96
2, 204720, Note_on_c, 0, 69, 0
2, 204720, Note_on_c, 0, 52, 0
2, 204720, Note_on_c, 0, 55, 0
2, 204720, Note_on_c, 0, 71, 96
2, 204720, Note_on_c, 0, 50, 96
2, 204720, Note_on_c, 0, 55, 96
2, 204900, Note_on_c, 0, 71, 0
2, 204900, Note_on_c, 0, 72, 96
2, 204930, Note_on_c, 0, 72, 0
2, 204930, Note_on_c, 0, 71, 96
2, 204960, Note_on_c, 0, 71, 0
2, 204960, Note_on_c, 0, 55, 0
2, 204960, Note_on_c, 0, 69, 96
2, 204960, Note_on_c, 0, 54, 96
2, 205080, Note_on_c, 0, 69, 0
2, 205080, Note_on_c, 0, 74, 96
2, 205200, Note_on_c, 0, 74, 0
2, 205200, Note_on_c, 0, 54, 0
2, 205200, Note_on_c, 0, 50, 0
2, 205200, Note_on_c, 0, 73, 96
2, 205320, Note_on_c, 0, 73, 0
2, 205320, Note_on_c, 0, 72, 96
2, 205440, Note_on_c, 0, 72, 0
2, 205440, Note_on_c, 0, 71, 96
2, 205440, Note_on_c, 0, 55, 96
2, 205500, Note_on_c, 0, 55, 0
2, 205500, Note_on_c, 0, 62, 96
2, 205560, Note_on_c, 0, 62, 0
2, 205560, Note_on_c, 0, 59, 96
2, 205620, Note_on_c, 0, 59, 0
2, 205620, Note_on_c, 0, 62, 96
2, 205680, Note_on_c, 0, 62, 0
2, 205680, Note_on_c, 0, 55, 96
2, 205740, Note_on_c, 0, 55, 0
2, 205740, Note_on_c, 0, 71, 0
2, 205740, Note_on_c, 0, 67, 96
2, 205740, Note_on_c, 0, 62, 96
2, 205800, Note_on_c, 0, 62, 0
2, 205800, Note_on_c, 0, 67, 0
2, 205800, Note_on_c, 0, 71, 96
2, 205800, Note_on_c, 0, 59, 96
2, 205860, Note_on_c, 0, 59, 0
2, 205860, Note_on_c, 0, 71, 0
2, 205860, Note_on_c, 0, 74, 96
2, 205860, Note_on_c, 0, 62, 96
2, 205920, Note_on_c, 0, 62, 0
2, 205920, Note_on_c, 0, 74, 0
2, 205920, Note_on_c, 0, 72, 96
2, 205920, Note_on_c, 0, 57, 96
2, 205980, Note_on_c, 0, 57, 0
2, 205980, Note_on_c, 0, 72, 0
2, 205980, Note_on_c, 0, 69, 96
2, 205980, Note_on_c, 0, 62, 96
2, 206040, Note_on_c, 0, 62, 0
2, 206040, Note_on_c, 0, 69, 0
2, 206040, Note_on_c, 0, 72, 96
2, 206040, Note_on_c, 0, 60, 96
2, 206100, Note_on_c, 0, 60, 0
2, 206100, Note_on_c, 0, 72, 0
2, 206100, Note_on_c, 0, 76, 96
2, 206100, Note_on_c, 0, 62, 96
2, 206160, Note_on_c, 0, 62, 0
2, 206160, Note_on_c, 0, 76, 0
2, 206160, Note_on_c, 0, 74, 96
2, 206160, Note_on_c, 0, 55, 96
2, 206220, Note_on_c, 0, 55, 0
2, 206220, Note_on_c, 0, 62, 96
2, 206280, Note_on_c, 0, 62, 0
2, 206280, Note_on_c, 0, 59, 96
2, 206340, Note_on_c, 0, 59, 0
2, 206340, Note_on_c, 0, 74, 0
2, 206340, Note_on_c, 0, 71, 96
2, 206340, Note_on_c, 0, 62, 96
2, 206400, Note_on_c, 0, 62, 0
2, 206400, Note_on_c, 0, 71, 0
2, 206400, Note_on_c, 0, 67, 96
2, 206400, Note_on_c, 0, 55, 96
2, 206460, Note_on_c, 0, 55, 0
2, 206460, Note_on_c, 0, 67, 0
2, 206460, Note_on_c, 0, 67, 96
2, 206460, Note_on_c, 0, 62, 96
2, 206520, Note_on_c, 0, 62, 0
2, 206520, Note_on_c, 0, 67, 0
2, 206520, Note_on_c, 0, 69, 96
2, 206520, Note_on_c, 0, 59, 96
2, 206580, Note_on_c, 0, 59, 0
2, 206580, Note_on_c, 0, 69, 0
2, 206580, Note_on_c, 0, 71, 96
2, 206580, Note_on_c, 0, 62, 96
2, 206640, Note_on_c, 0, 62, 0
2, 206640, Note_on_c, 0, 71, 0
2, 206640, Note_on_c, 0, 72, 96
2, 206640, Note_on_c, 0, 55, 96
2, 206700, Note_on_c, 0, 55, 0
2, 206700, Note_on_c, 0, 72, 0
2, 206700, Note_on_c, 0, 74, 96
2, 206700, Note_on_c, 0, 62, 96
2, 206760, Note_on_c, 0, 62, 0
2, 206760, Note_on_c, 0, 74, 0
2, 206760, Note_on_c, 0, 76, 96
2, 206760, Note_on_c, 0, 59, 96
2, 206820, Note_on_c, 0, 59, 0
2, 206820, Note_on_c, 0, 76, 0
2, 206820, Note_on_c, 0, 78, 96
2, 206820, Note_on_c, 0, 62, 96
2, 206880, Note_on_c, 0, 62, 0
2, 206880, Note_on_c, 0, 78, 0
2, 206880, Note_on_c, 0, 79, 96
2, 206880, Note_on_c, 0, 55, 96
2, 206940, Note_on_c, 0, 55, 0
2, 206940, Note_on_c, 0, 79, 0
2, 206940, Note_on_c, 0, 78, 96
2, 206940, Note_on_c, 0, 64, 96
2, 207000, Note_on_c, 0, 64, 0
2, 207000, Note_on_c, 0, 78, 0
2, 207000, Note_on_c, 0, 79, 96
2, 207000, Note_on_c, 0, 60, 96
2, 207060, Note_on_c, 0, 60, 0
2, 207060, Note_on_c, 0, 79, 0
2, 207060, Note_on_c, 0, 78, 96
2, 207060, Note_on_c, 0, 64, 96
2, 207120, Note_on_c, 0, 64, 0
2, 207120, Note_on_c, 0, 78, 0
2, 207120, Note_on_c, 0, 81, 96
2, 207120, Note_on_c, 0, 55, 96
2, 207180, Note_on_c, 0, 55, 0
2, 207180, Note_on_c, 0, 81, 0
2, 207180, Note_on_c, 0, 79, 96
2, 207180, Note_on_c, 0, 64, 96
2, 207240, Note_on_c, 0, 64, 0
2, 207240, Note_on_c, 0, 79, 0
2, 207240, Note_on_c, 0, 78, 96
2, 207240, Note_on_c, 0, 60, 96
2, 207300, Note_on_c, 0, 60, 0
2, 207300, Note_on_c, 0, 78, 0
2, 207300, Note_on_c, 0, 79, 96
2, 207300, Note_on_c, 0, 64, 96
2, 207360, Note_on_c, 0, 64, 0
2, 207360, Note_on_c, 0, 79, 0
2, 207360, Note_on_c, 0, 78, 96
2, 207360, Note_on_c, 0, 55, 96
2, 207420, Note_on_c, 0, 55, 0
2, 207420, Note_on_c, 0, 78, 0
2, 207420, Note_on_c, 0, 76, 96
2, 207420, Note_on_c, 0, 61, 96
2, 207480, Note_on_c, 0, 61, 0
2, 207480, Note_on_c, 0, 76, 0
2, 207480, Note_on_c, 0, 74, 96
2, 207480, Note_on_c, 0, 58, 96
2, 207540, Note_on_c, 0, 58, 0
2, 207540, Note_on_c, 0, 74, 0
2, 207540, Note_on_c, 0, 73, 96
2, 207540, Note_on_c, 0, 61, 96
2, 207600, Note_on_c, 0, 61, 0
2, 207600, Note_on_c, 0, 73, 0
2, 207600, Note_on_c, 0, 74, 96
2, 207600, Note_on_c, 0, 55, 96
2, 207660, Note_on_c, 0, 55, 0
2, 207660, Note_on_c, 0, 74, 0
2, 207660, Note_on_c, 0, 71, 96
2, 207660, Note_on_c, 0, 62, 96
2, 207720, Note_on_c, 0, 62, 0
2, 207720, Note_on_c, 0, 71, 0
2, 207720, Note_on_c, 0, 74, 96
2, 207720, Note_on_c, 0, 59, 96
2, 207780, Note_on_c, 0, 59, 0
2, 207780, Note_on_c, 0, 74, 0
2, 207780, Note_on_c, 0, 71, 96
2, 207780, Note_on_c, 0, 62, 96
2, 207840, Note_on_c, 0, 62, 0
2, 207840, Note_on_c, 0, 71, 0
2, 207840, Note_on_c, 0, 67, 96
2, 207840, Note_on_c, 0, 55, 96
2, 207900, Note_on_c, 0, 55, 0
2, 207900, Note_on_c, 0, 62, 96
2, 207960, Note_on_c, 0, 62, 0
2, 207960, Note_on_c, 0, 59, 96
2, 208020, Note_on_c, 0, 59, 0
2, 208020, Note_on_c, 0, 62, 96
2, 208080, Note_on_c, 0, 62, 0
2, 208080, Note_on_c, 0, 67, 0
2, 208080, Note_on_c, 0, 55, 96
2, 208140, Note_on_c, 0, 55, 0
2, 208140, Note_on_c, 0, 62, 96
2, 208200, Note_on_c, 0, 62, 0
2, 208200, Note_on_c, 0, 59, 96
2, 208260, Note_on_c, 0, 59, 0
2, 208260, Note_on_c, 0, 62, 96
2, 208320, Note_on_c, 0, 62, 0
2, 208320, Note_on_c, 0, 72, 96
2, 208320, Note_on_c, 0, 57, 96
2, 208380, Note_on_c, 0, 57, 0
2, 208380, Note_on_c, 0, 72, 0
2, 208380, Note_on_c, 0, 69, 96
2, 208380, Note_on_c, 0, 62, 96
2, 208440, Note_on_c, 0, 62, 0
2, 208440, Note_on_c, 0, 69, 0
2, 208440, Note_on_c, 0, 72, 96
2, 208440, Note_on_c, 0, 60, 96
2, 208500, Note_on_c, 0, 60, 0
2, 208500, Note_on_c, 0, 72, 0
2, 208500, Note_on_c, 0, 69, 96
2, 208500, Note_on_c, 0, 62, 96
2, 208560, Note_on_c, 0, 62, 0
2, 208560, Note_on_c, 0, 69, 0
2, 208560, Note_on_c, 0, 66, 96
2, 208560, Note_on_c, 0, 57, 96
2, 208620, Note_on_c, 0, 57, 0
2, 208620, Note_on_c, 0, 66, 0
2, 208620, Note_on_c, 0, 69, 96
2, 208620, Note_on_c, 0, 62, 96
2, 208680, Note_on_c, 0, 62, 0
2, 208680, Note_on_c, 0, 69, 0
2, 208680, Note_on_c, 0, 68, 96
2, 208680, Note_on_c, 0, 60, 96
2, 208740, Note_on_c, 0, 60, 0
2, 208740, Note_on_c, 0, 68, 0
2, 208740, Note_on_c, 0, 69, 96
2, 208740, Note_on_c, 0, 62, 96
2, 208800, Note_on_c, 0, 62, 0
2, 208800, Note_on_c, 0, 69, 0
2, 208800, Note_on_c, 0, 70, 96
2, 208800, Note_on_c, 0, 57, 96
2, 208860, Note_on_c, 0, 57, 0
2, 208860, Note_on_c, 0, 70, 0
2, 208860, Note_on_c, 0, 71, 96
2, 208860, Note_on_c, 0, 62, 96
2, 208920, Note_on_c, 0, 62, 0
2, 208920, Note_on_c, 0, 71, 0
2, 208920, Note_on_c, 0, 72, 96
2, 208920, Note_on_c, 0, 60, 96
2, 208980, Note_on_c, 0, 60, 0
2, 208980, Note_on_c, 0, 72, 0
2, 208980, Note_on_c, 0, 73, 96
2, 208980, Note_on_c, 0, 62, 96
2, 209040, Note_on_c, 0, 62, 0
2, 209040, Note_on_c, 0, 73, 0
2, 209040, Note_on_c, 0, 74, 96
2, 209040, Note_on_c, 0, 55, 96
2, 209100, Note_on_c, 0, 55, 0
2, 209100, Note_on_c, 0, 74, 0
2, 209100, Note_on_c, 0, 71, 96
2, 209100, Note_on_c, 0, 62, 96
2, 209160, Note_on_c, 0, 62, 0
2, 209160, Note_on_c, 0, 71, 0
2, 209160, Note_on_c, 0, 74, 96
2, 209160, Note_on_c, 0, 59, 96
2, 209220, Note_on_c, 0, 59, 0
2, 209220, Note_on_c, 0, 74, 0
2, 209220, Note_on_c, 0, 71, 96
2, 209220, Note_on_c, 0, 62, 96
2, 209280, Note_on_c, 0, 62, 0
2, 209280, Note_on_c, 0, 71, 0
2, 209280, Note_on_c, 0, 79, 96
2, 209280, Note_on_c, 0, 52, 96
2, 209340, Note_on_c, 0, 52, 0
2, 209340, Note_on_c, 0, 59, 96
2, 209400, Note_on_c, 0, 59, 0
2, 209400, Note_on_c, 0, 55, 96
2, 209460, Note_on_c, 0, 55, 0
2, 209460, Note_on_c, 0, 59, 96
2, 209520, Note_on_c, 0, 59, 0
2, 209520, Note_on_c, 0, 79, 0
2, 209520, Note_on_c, 0, 47, 96
2, 209580, Note_on_c, 0, 47, 0
2, 209580, Note_on_c, 0, 83, 96
2, 209580, Note_on_c, 0, 55, 96
2, 209640, Note_on_c, 0, 55, 0
2, 209640, Note_on_c, 0, 83, 0
2, 209640, Note_on_c, 0, 78, 96
2, 209640, Note_on_c, 0, 50, 96
2, 209700, Note_on_c, 0, 50, 0
2, 209700, Note_on_c, 0, 78, 0
2, 209700, Note_on_c, 0, 55, 96
2, 209700, Note_on_c, 0, 79, 96
2, 209760, Note_on_c, 0, 79, 0
2, 209760, Note_on_c, 0, 55, 0
2, 209760, Note_on_c, 0, 75, 96
2, 209760, Note_on_c, 0, 48, 96
2, 209820, Note_on_c, 0, 48, 0
2, 209820, Note_on_c, 0, 75, 0
2, 209820, Note_on_c, 0, 76, 96
2, 209820, Note_on_c, 0, 57, 96
2, 209880, Note_on_c, 0, 57, 0
2, 209880, Note_on_c, 0, 76, 0
2, 209880, Note_on_c, 0, 72, 96
2, 209880, Note_on_c, 0, 52, 96
2, 209940, Note_on_c, 0, 52, 0
2, 209940, Note_on_c, 0, 72, 0
2, 209940, Note_on_c, 0, 69, 96
2, 209940, Note_on_c, 0, 57, 96
2, 210000, Note_on_c, 0, 57, 0
2, 210000, Note_on_c, 0, 69, 0
2, 210000, Note_on_c, 0, 67, 96
2, 210000, Note_on_c, 0, 50, 96
2, 210060, Note_on_c, 0, 50, 0
2, 210060, Note_on_c, 0, 59, 96
2, 210120, Note_on_c, 0, 59, 0
2, 210120, Note_on_c, 0, 55, 96
2, 210180, Note_on_c, 0, 55, 0
2, 210180, Note_on_c, 0, 67, 0
2, 210180, Note_on_c, 0, 67, 96
2, 210180, Note_on_c, 0, 59, 96
2, 210240, Note_on_c, 0, 59, 0
2, 210240, Note_on_c, 0, 67, 0
2, 210240, Note_on_c, 0, 66, 96
2, 210240, Note_on_c, 0, 71, 96
2, 210240, Note_on_c, 0, 50, 96
2, 210300, Note_on_c, 0, 50, 0
2, 210300, Note_on_c, 0, 71, 0
2, 210300, Note_on_c, 0, 69, 96
2, 210300, Note_on_c, 0, 60, 96
2, 210360, Note_on_c, 0, 60, 0
2, 210360, Note_on_c, 0, 69, 0
2, 210360, Note_on_c, 0, 67, 96
2, 210360, Note_on_c, 0, 57, 96
2, 210420, Note_on_c, 0, 57, 0
2, 210420, Note_on_c, 0, 67, 0
2, 210420, Note_on_c, 0, 60, 96
2, 210420, Note_on_c, 0, 69, 96
2, 210480, Note_on_c, 0, 69, 0
2, 210480, Note_on_c, 0, 60, 0
2, 210480, Note_on_c, 0, 66, 0
2, 210480, Note_on_c, 0, 67, 96
2, 210480, Note_on_c, 0, 55, 96
2, 210480, Note_on_c, 0, 59, 96
2, 210540, Note_on_c, 0, 67, 0
2, 210540, Note_on_c, 0, 66, 96
2, 210600, Note_on_c, 0, 66, 0
2, 210600, Note_on_c, 0, 69, 96
2, 210660, Note_on_c, 0, 69, 0
2, 210660, Note_on_c, 0, 67, 96
2, 210720, Note_on_c, 0, 67, 0
2, 210720, Note_on_c, 0, 59, 0
2, 210720, Note_on_c, 0, 55, 0
2, 210720, Note_on_c, 0, 71, 96
2, 210780, Note_on_c, 0, 71, 0
2, 210780, Note_on_c, 0, 69, 96
2, 210840, Note_on_c, 0, 69, 0
2, 210840, Note_on_c, 0, 72, 96
2, 210900, Note_on_c, 0, 72, 0
2, 210900, Note_on_c, 0, 71, 96
2, 210960, Note_on_c, 0, 71, 0
2, 210960, Note_on_c, 0, 74, 96
2, 211020, Note_on_c, 0, 74, 0
2, 211020, Note_on_c, 0, 72, 96
2, 211080, Note_on_c, 0, 72, 0
2, 211080, Note_on_c, 0, 76, 96
2, 211140, Note_on_c, 0, 76, 0
2, 211140, Note_on_c, 0, 74, 96
2, 211200, Note_on_c, 0, 74, 0
2, 211200, Note_on_c, 0, 77, 96
2, 211200, Note_on_c, 0, 57, 96
2, 211260, Note_on_c, 0, 57, 0
2, 211260, Note_on_c, 0, 65, 96
2, 211320, Note_on_c, 0, 65, 0
2, 211320, Note_on_c, 0, 60, 96
2, 211380, Note_on_c, 0, 60, 0
2, 211380, Note_on_c, 0, 65, 96
2, 211440, Note_on_c, 0, 65, 0
2, 211440, Note_on_c, 0, 57, 96
2, 211500, Note_on_c, 0, 57, 0
2, 211500, Note_on_c, 0, 65, 96
2, 211560, Note_on_c, 0, 65, 0
2, 211560, Note_on_c, 0, 77, 0
2, 211560, Note_on_c, 0, 79, 96
2, 211560, Note_on_c, 0, 60, 96
2, 211620, Note_on_c, 0, 60, 0
2, 211620, Note_on_c, 0, 79, 0
2, 211620, Note_on_c, 0, 81, 96
2, 211620, Note_on_c, 0, 65, 96
2, 211680, Note_on_c, 0, 65, 0
2, 211680, Note_on_c, 0, 81, 0
2, 211680, Note_on_c, 0, 79, 96
2, 211680, Note_on_c, 0, 59, 96
2, 211740, Note_on_c, 0, 59, 0
2, 211740, Note_on_c, 0, 79, 0
2, 211740, Note_on_c, 0, 77, 96
2, 211740, Note_on_c, 0, 67, 96
2, 211800, Note_on_c, 0, 67, 0
2, 211800, Note_on_c, 0, 77, 0
2, 211800, Note_on_c, 0, 76, 96
2, 211800, Note_on_c, 0, 62, 96
2, 211860, Note_on_c, 0, 62, 0
2, 211860, Note_on_c, 0, 76, 0
2, 211860, Note_on_c, 0, 74, 96
2, 211860, Note_on_c, 0, 67, 96
2, 211920, Note_on_c, 0, 67, 0
2, 211920, Note_on_c, 0, 74, 0
2, 211920, Note_on_c, 0, 75, 96
2, 211920, Note_on_c, 0, 60, 96
2, 211980, Note_on_c, 0, 60, 0
2, 211980, Note_on_c, 0, 67, 96
2, 212040, Note_on_c, 0, 67, 0
2, 212040, Note_on_c, 0, 64, 96
2, 212100, Note_on_c, 0, 64, 0
2, 212100, Note_on_c, 0, 67, 96
2, 212160, Note_on_c, 0, 67, 0
2, 212160, Note_on_c, 0, 75, 0
2, 212160, Note_on_c, 0, 76, 96
2, 212160, Note_on_c, 0, 60, 96
2, 212220, Note_on_c, 0, 60, 0
2, 212220, Note_on_c, 0, 67, 96
2, 212280, Note_on_c, 0, 67, 0
2, 212280, Note_on_c, 0, 64, 96
2, 212340, Note_on_c, 0, 64, 0
2, 212340, Note_on_c, 0, 67, 96
2, 212400, Note_on_c, 0, 67, 0
2, 212400, Note_on_c, 0, 76, 0
2, 212400, Note_on_c, 0, 60, 96
2, 212460, Note_on_c, 0, 60, 0
2, 212460, Note_on_c, 0, 79, 96
2, 212460, Note_on_c, 0, 67, 96
2, 212520, Note_on_c, 0, 67, 0
2, 212520, Note_on_c, 0, 79, 0
2, 212520, Note_on_c, 0, 78, 96
2, 212520, Note_on_c, 0, 64, 96
2, 212580, Note_on_c, 0, 64, 0
2, 212580, Note_on_c, 0, 78, 0
2, 212580, Note_on_c, 0, 67, 96
2, 212580, Note_on_c, 0, 76, 96
2, 212640, Note_on_c, 0, 76, 0
2, 212640, Note_on_c, 0, 67, 0
2, 212640, Note_on_c, 0, 74, 96
2, 212640, Note_on_c, 0, 59, 96
2, 212700, Note_on_c, 0, 59, 0
2, 212700, Note_on_c, 0, 74, 0
2, 212700, Note_on_c, 0, 71, 96
2, 212700, Note_on_c, 0, 62, 96
2, 212760, Note_on_c, 0, 62, 0
2, 212760, Note_on_c, 0, 71, 0
2, 212760, Note_on_c, 0, 69, 96
2, 212760, Note_on_c, 0, 60, 96
2, 212820, Note_on_c, 0, 60, 0
2, 212820, Note_on_c, 0, 69, 0
2, 212820, Note_on_c, 0, 76, 96
2, 212820, Note_on_c, 0, 64, 96
2, 212880, Note_on_c, 0, 64, 0
2, 212880, Note_on_c, 0, 76, 0
2, 212880, Note_on_c, 0, 67, 96
2, 212880, Note_on_c, 0, 50, 96
2, 212940, Note_on_c, 0, 50, 0
2, 212940, Note_on_c, 0, 59, 96
2, 213000, Note_on_c, 0, 59, 0
2, 213000, Note_on_c, 0, 55, 96
2, 213060, Note_on_c, 0, 55, 0
2, 213060, Note_on_c, 0, 67, 0
2, 213060, Note_on_c, 0, 67, 96
2, 213060, Note_on_c, 0, 59, 96
2, 213120, Note_on_c, 0, 59, 0
2, 213120, Note_on_c, 0, 67, 0
2, 213120, Note_on_c, 0, 66, 96
2, 213120, Note_on_c, 0, 71, 96
2, 213120, Note_on_c, 0, 50, 96
2, 213180, Note_on_c, 0, 50, 0
2, 213180, Note_on_c, 0, 71, 0
2, 213180, Note_on_c, 0, 69, 96
2, 213180, Note_on_c, 0, 60, 96
2, 213240, Note_on_c, 0, 60, 0
2, 213240, Note_on_c, 0, 69, 0
2, 213240, Note_on_c, 0, 67, 96
2, 213240, Note_on_c, 0, 57, 96
2, 213300, Note_on_c, 0, 57, 0
2, 213300, Note_on_c, 0, 67, 0
2, 213300, Note_on_c, 0, 60, 96
2, 213300, Note_on_c, 0, 69, 96
2, 213360, Note_on_c, 0, 69, 0
2, 213360, Note_on_c, 0, 60, 0
2, 213360, Note_on_c, 0, 66, 0
2, 213360, Note_on_c, 0, 67, 96
2, 213360, Note_on_c, 0, 55, 96
2, 213360, Note_on_c, 0, 59, 96
2, 213420, Note_on_c, 0, 67, 0
2, 213420, Note_on_c, 0, 66, 96
2, 213480, Note_on_c, 0, 66, 0
2, 213480, Note_on_c, 0, 69, 96
2, 213540, Note_on_c, 0, 69, 0
2, 213540, Note_on_c, 0, 67, 96
2, 213600, Note_on_c, 0, 67, 0
2, 213600, Note_on_c, 0, 59, 0
2, 213600, Note_on_c, 0, 55, 0
2, 213600, Note_on_c, 0, 71, 96
2, 213660, Note_on_c, 0, 71, 0
2, 213660, Note_on_c, 0, 69, 96
2, 213720, Note_on_c, 0, 69, 0
2, 213720, Note_on_c, 0, 72, 96
2, 213780, Note_on_c, 0, 72, 0
2, 213780, Note_on_c, 0, 71, 96
2, 213840, Note_on_c, 0, 71, 0
2, 213840, Note_on_c, 0, 74, 96
2, 213900, Note_on_c, 0, 74, 0
2, 213900, Note_on_c, 0, 72, 96
2, 213960, Note_on_c, 0, 72, 0
2, 213960, Note_on_c, 0, 76, 96
2, 214020, Note_on_c, 0, 76, 0
2, 214020, Note_on_c, 0, 74, 96
2, 214080, Note_on_c, 0, 74, 0
2, 214080, Note_on_c, 0, 77, 96
2, 214080, Note_on_c, 0, 45, 96
2, 214140, Note_on_c, 0, 45, 0
2, 214140, Note_on_c, 0, 53, 96
2, 214200, Note_on_c, 0, 53, 0
2, 214200, Note_on_c, 0, 48, 96
2, 214260, Note_on_c, 0, 48, 0
2, 214260, Note_on_c, 0, 53, 96
2, 214320, Note_on_c, 0, 53, 0
2, 214320, Note_on_c, 0, 47, 96
2, 214380, Note_on_c, 0, 47, 0
2, 214380, Note_on_c, 0, 55, 96
2, 214440, Note_on_c, 0, 55, 0
2, 214440, Note_on_c, 0, 77, 0
2, 214440, Note_on_c, 0, 79, 96
2, 214440, Note_on_c, 0, 50, 96
2, 214500, Note_on_c, 0, 50, 0
2, 214500, Note_on_c, 0, 79, 0
2, 214500, Note_on_c, 0, 81, 96
2, 214500, Note_on_c, 0, 55, 96
2, 214560, Note_on_c, 0, 55, 0
2, 214560, Note_on_c, 0, 81, 0
2, 214560, Note_on_c, 0, 79, 96
2, 214560, Note_on_c, 0, 43, 96
2, 214620, Note_on_c, 0, 43, 0
2, 214620, Note_on_c, 0, 79, 0
2, 214620, Note_on_c, 0, 77, 96
2, 214620, Note_on_c, 0, 55, 96
2, 214680, Note_on_c, 0, 55, 0
2, 214680, Note_on_c, 0, 77, 0
2, 214680, Note_on_c, 0, 76, 96
2, 214680, Note_on_c, 0, 47, 96
2, 214740, Note_on_c, 0, 47, 0
2, 214740, Note_on_c, 0, 76, 0
2, 214740, Note_on_c, 0, 74, 96
2, 214740, Note_on_c, 0, 55, 96
2, 214800, Note_on_c, 0, 55, 0
2, 214800, Note_on_c, 0, 74, 0
2, 214800, Note_on_c, 0, 76, 96
2, 214800, Note_on_c, 0, 48, 96
2, 214860, Note_on_c, 0, 48, 0
2, 214860, Note_on_c, 0, 55, 96
2, 214920, Note_on_c, 0, 55, 0
2, 214920, Note_on_c, 0, 52, 96
2, 214980, Note_on_c, 0, 52, 0
2, 214980, Note_on_c, 0, 55, 96
2, 215040, Note_on_c, 0, 55, 0
2, 215040, Note_on_c, 0, 76, 0
2, 215040, Note_on_c, 0, 78, 96
2, 215040, Note_on_c, 0, 48, 96
2, 215100, Note_on_c, 0, 48, 0
2, 215100, Note_on_c, 0, 57, 96
2, 215160, Note_on_c, 0, 57, 0
2, 215160, Note_on_c, 0, 51, 96
2, 215220, Note_on_c, 0, 51, 0
2, 215220, Note_on_c, 0, 57, 96
2, 215280, Note_on_c, 0, 57, 0
2, 215280, Note_on_c, 0, 78, 0
2, 215280, Note_on_c, 0, 79, 96
2, 215280, Note_on_c, 0, 49, 96
2, 215340, Note_on_c, 0, 49, 0
2, 215340, Note_on_c, 0, 58, 96
2, 215400, Note_on_c, 0, 58, 0
2, 215400, Note_on_c, 0, 52, 96
2, 215460, Note_on_c, 0, 52, 0
2, 215460, Note_on_c, 0, 58, 96
2, 215520, Note_on_c, 0, 58, 0
2, 215520, Note_on_c, 0, 79, 0
2, 215520, Note_on_c, 0, 67, 96
2, 215520, Note_on_c, 0, 50, 96
2, 215580, Note_on_c, 0, 50, 0
2, 215580, Note_on_c, 0, 59, 96
2, 215640, Note_on_c, 0, 59, 0
2, 215640, Note_on_c, 0, 55, 96
2, 215700, Note_on_c, 0, 55, 0
2, 215700, Note_on_c, 0, 59, 96
2, 215760, Note_on_c, 0, 59, 0
2, 215760, Note_on_c, 0, 50, 96
2, 215820, Note_on_c, 0, 50, 0
2, 215820, Note_on_c, 0, 59, 96
2, 215880, Note_on_c, 0, 59, 0
2, 215880, Note_on_c, 0, 67, 0
2, 215880, Note_on_c, 0, 69, 96
2, 215880, Note_on_c, 0, 55, 96
2, 215910, Note_on_c, 0, 69, 0
2, 215910, Note_on_c, 0, 67, 96
2, 215940, Note_on_c, 0, 67, 0
2, 215940, Note_on_c, 0, 55, 0
2, 215940, Note_on_c, 0, 66, 96
2, 215940, Note_on_c, 0, 59, 96
2, 215970, Note_on_c, 0, 66, 0
2, 215970, Note_on_c, 0, 67, 96
2, 216000, Note_on_c, 0, 67, 0
2, 216000, Note_on_c, 0, 59, 0
2, 216000, Note_on_c, 0, 66, 96
2, 216000, Note_on_c, 0, 71, 96
2, 216000, Note_on_c, 0, 50, 96
2, 216060, Note_on_c, 0, 50, 0
2, 216060, Note_on_c, 0, 60, 96
2, 216120, Note_on_c, 0, 60, 0
2, 216120, Note_on_c, 0, 71, 0
2, 216120, Note_on_c, 0, 69, 96
2, 216120, Note_on_c, 0, 57, 96
2, 216180, Note_on_c, 0, 57, 0
2, 216180, Note_on_c, 0, 60, 96
2, 216240, Note_on_c, 0, 60, 0
2, 216240, Note_on_c, 0, 69, 0
2, 216240, Note_on_c, 0, 66, 0
2, 216240, Note_on_c, 0, 67, 96
2, 216240, Note_on_c, 0, 55, 96
2, 216240, Note_on_c, 0, 59, 96
2, 216300, Note_on_c, 0, 67, 0
2, 216300, Note_on_c, 0, 62, 96
2, 216360, Note_on_c, 0, 62, 0
2, 216360, Note_on_c, 0, 71, 96
2, 216420, Note_on_c, 0, 71, 0
2, 216420, Note_on_c, 0, 71, 96
2, 216480, Note_on_c, 0, 71, 0
2, 216480, Note_on_c, 0, 59, 0
2, 216480, Note_on_c, 0, 55, 0
2, 216480, Note_on_c, 0, 71, 96
2, 216540, Note_on_c, 0, 71, 0
2, 216540, Note_on_c, 0, 67, 96
2, 216600, Note_on_c, 0, 67, 0
2, 216600, Note_on_c, 0, 74, 96
2, 216660, Note_on_c, 0, 74, 0
2, 216660, Note_on_c, 0, 74, 96
2, 216720, Note_on_c, 0, 74, 0
2, 216720, Note_on_c, 0, 74, 96
2, 216780, Note_on_c, 0, 74, 0
2, 216780, Note_on_c, 0, 71, 96
2, 216840, Note_on_c, 0, 71, 0
2, 216840, Note_on_c, 0, 50, 96
2, 216840, Note_on_c, 0, 60, 96
2, 216840, Note_on_c, 0, 69, 96
2, 216900, Note_on_c, 0, 69, 0
2, 216900, Note_on_c, 0, 71, 96
2, 216960, Note_on_c, 0, 71, 0
2, 216960, Note_on_c, 0, 60, 0
2, 216960, Note_on_c, 0, 50, 0
2, 216960, Note_on_c, 0, 67, 96
2, 216960, Note_on_c, 0, 55, 96
2, 216960, Note_on_c, 0, 59, 96
2, 217020, Note_on_c, 0, 67, 0
2, 217020, Note_on_c, 0, 62, 96
2, 217080, Note_on_c, 0, 62, 0
2, 217080, Note_on_c, 0, 71, 96
2, 217140, Note_on_c, 0, 71, 0
2, 217140, Note_on_c, 0, 71, 96
2, 217200, Note_on_c, 0, 71, 0
2, 217200, Note_on_c, 0, 59, 0
2, 217200, Note_on_c, 0, 55, 0
2, 217200, Note_on_c, 0, 71, 96
2, 217260, Note_on_c, 0, 71, 0
2, 217260, Note_on_c, 0, 67, 96
2, 217320, Note_on_c, 0, 67, 0
2, 217320, Note_on_c, 0, 74, 96
2, 217380, Note_on_c, 0, 74, 0
2, 217380, Note_on_c, 0, 74, 96
2, 217440, Note_on_c, 0, 74, 0
2, 217440, Note_on_c, 0, 74, 96
2, 217500, Note_on_c, 0, 74, 0
2, 217500, Note_on_c, 0, 71, 96
2, 217560, Note_on_c, 0, 71, 0
2, 217560, Note_on_c, 0, 50, 96
2, 217560, Note_on_c, 0, 60, 96
2, 217560, Note_on_c, 0, 69, 96
2, 217620, Note_on_c, 0, 69, 0
2, 217620, Note_on_c, 0, 71, 96
2, 217680, Note_on_c, 0, 71, 0
2, 217680, Note_on_c, 0, 60, 0
2, 217680, Note_on_c, 0, 50, 0
2, 217680, Note_on_c, 0, 67, 96
2, 217680, Note_on_c, 0, 55, 96
2, 217680, Note_on_c, 0, 59, 96
2, 217800, Note_on_c, 0, 59, 0
2, 217800, Note_on_c, 0, 55, 0
2, 217800, Note_on_c, 0, 67, 0
2, 217920, Note_on_c, 0, 43, 96
2, 217920, Note_on_c, 0, 67, 96
2, 217920, Note_on_c, 0, 59, 96
2, 218079, Note_on_c, 0, 59, 0
2, 218079, Note_on_c, 0, 67, 0
2, 218079, Note_on_c, 0, 43, 0
2, 219120, Note_on_c, 0, 79, 96
2, 219120, Note_on_c, 0, 76, 96
2, 219210, Note_on_c, 0, 76, 0
2, 219210, Note_on_c, 0, 79, 0
2, 219240, Note_on_c, 0, 79, 96
2, 219240, Note_on_c, 0, 76, 96
2, 219330, Note_on_c, 0, 76, 0
2, 219330, Note_on_c, 0, 79, 0
2, 219360, Note_on_c, 0, 60, 96
2, 219360, Note_on_c, 0, 57, 96
2, 219360, Note_on_c, 0, 76, 96
2, 219360, Note_on_c, 0, 72, 96
2, 219450, Note_on_c, 0, 72, 0
2, 219450, Note_on_c, 0, 60, 0
2, 219450, Note_on_c, 0, 57, 0
2, 219450, Note_on_c, 0, 76, 0
2, 219480, Note_on_c, 0, 60, 96
2, 219480, Note_on_c, 0, 57, 96
2, 219570, Note_on_c, 0, 57, 0
2, 219570, Note_on_c, 0, 60, 0
2, 219600, Note_on_c, 0, 57, 96
2, 219600, Note_on_c, 0, 53, 96
2, 219600, Note_on_c, 0, 77, 96
2, 219600, Note_on_c, 0, 74, 96
2, 219690, Note_on_c, 0, 74, 0
2, 219690, Note_on_c, 0, 57, 0
2, 219690, Note_on_c, 0, 53, 0
2, 219690, Note_on_c, 0, 77, 0
2, 219720, Note_on_c, 0, 74, 96
2, 219720, Note_on_c, 0, 77, 96
2, 219810, Note_on_c, 0, 77, 0
2, 219810, Note_on_c, 0, 74, 0
2, 219840, Note_on_c, 0, 59, 96
2, 219840, Note_on_c, 0, 55, 96
2, 219840, Note_on_c, 0, 74, 96
2, 219840, Note_on_c, 0, 71, 96
2, 219930, Note_on_c, 0, 71, 0
2, 219930, Note_on_c, 0, 59, 0
2, 219930, Note_on_c, 0, 55, 0
2, 219930, Note_on_c, 0, 74, 0
2, 219960, Note_on_c, 0, 59, 96
2, 219960, Note_on_c, 0, 55, 96
2, 220050, Note_on_c, 0, 55, 0
2, 220050, Note_on_c, 0, 59, 0
2, 220080, Note_on_c, 0, 72, 96
2, 220080, Note_on_c, 0, 52, 96
2, 220080, Note_on_c, 0, 55, 96
2, 220140, Note_on_c, 0, 72, 0
2, 220140, Note_on_c, 0, 74, 96
2, 220200, Note_on_c, 0, 74, 0
2, 220200, Note_on_c, 0, 55, 0
2, 220200, Note_on_c, 0, 52, 0
2, 220200, Note_on_c, 0, 76, 96
2, 220260, Note_on_c, 0, 76, 0
2, 220260, Note_on_c, 0, 72, 96
2, 220320, Note_on_c, 0, 72, 0
2, 220320, Note_on_c, 0, 69, 96
2, 220320, Note_on_c, 0, 53, 96
2, 220380, Note_on_c, 0, 69, 0
2, 220380, Note_on_c, 0, 71, 96
2, 220440, Note_on_c, 0, 71, 0
2, 220440, Note_on_c, 0, 72, 96
2, 220500, Note_on_c, 0, 72, 0
2, 220500, Note_on_c, 0, 73, 96
2, 220560, Note_on_c, 0, 73, 0
2, 220560, Note_on_c, 0, 74, 96
2, 220620, Note_on_c, 0, 74, 0
2, 220620, Note_on_c, 0, 76, 96
2, 220680, Note_on_c, 0, 76, 0
2, 220680, Note_on_c, 0, 53, 0
2, 220680, Note_on_c, 0, 50, 96
2, 220680, Note_on_c, 0, 77, 96
2, 220740, Note_on_c, 0, 77, 0
2, 220740, Note_on_c, 0, 74, 96
2, 220800, Note_on_c, 0, 74, 0
2, 220800, Note_on_c, 0, 50, 0
2, 220800, Note_on_c, 0, 72, 96
2, 220800, Note_on_c, 0, 55, 96
2, 220860, Note_on_c, 0, 72, 0
2, 220860, Note_on_c, 0, 71, 96
2, 220920, Note_on_c, 0, 71, 0
2, 220920, Note_on_c, 0, 55, 0
2, 220920, Note_on_c, 0, 69, 96
2, 220980, Note_on_c, 0, 69, 0
2, 220980, Note_on_c, 0, 67, 96
2, 221040, Note_on_c, 0, 67, 0
2, 221040, Note_on_c, 0, 79, 96
2, 221040, Note_on_c, 0, 76, 96
2, 221130, Note_on_c, 0, 76, 0
2, 221130, Note_on_c, 0, 79, 0
2, 221160, Note_on_c, 0, 76, 96
2, 221160, Note_on_c, 0, 79, 96
2, 221250, Note_on_c, 0, 79, 0
2, 221250, Note_on_c, 0, 76, 0
2, 221280, Note_on_c, 0, 60, 96
2, 221280, Note_on_c, 0, 57, 96
2, 221280, Note_on_c, 0, 76, 96
2, 221280, Note_on_c, 0, 72, 96
2, 221370, Note_on_c, 0, 72, 0
2, 221370, Note_on_c, 0, 60, 0
2, 221370, Note_on_c, 0, 57, 0
2, 221370, Note_on_c, 0, 76, 0
2, 221400, Note_on_c, 0, 60, 96
2, 221400, Note_on_c, 0, 57, 96
2, 221490, Note_on_c, 0, 57, 0
2, 221490, Note_on_c, 0, 60, 0
2, 221520, Note_on_c, 0, 53, 96
2, 221520, Note_on_c, 0, 50, 96
2, 221520, Note_on_c, 0, 81, 96
2, 221520, Note_on_c, 0, 77, 96
2, 221610, Note_on_c, 0, 77, 0
2, 221610, Note_on_c, 0, 53, 0
2, 221610, Note_on_c, 0, 50, 0
2, 221610, Note_on_c, 0, 81, 0
2, 221640, Note_on_c, 0, 77, 96
2, 221640, Note_on_c, 0, 81, 96
2, 221730, Note_on_c, 0, 81, 0
2, 221730, Note_on_c, 0, 77, 0
2, 221760, Note_on_c, 0, 59, 96
2, 221760, Note_on_c, 0, 55, 96
2, 221760, Note_on_c, 0, 74, 96
2, 221760, Note_on_c, 0, 71, 96
2, 221850, Note_on_c, 0, 71, 0
2, 221850, Note_on_c, 0, 59, 0
2, 221850, Note_on_c, 0, 55, 0
2, 221850, Note_on_c, 0, 74, 0
2, 221880, Note_on_c, 0, 59, 96
2, 221880, Note_on_c, 0, 55, 96
2, 221970, Note_on_c, 0, 55, 0
2, 221970, Note_on_c, 0, 59, 0
2, 222000, Note_on_c, 0, 81, 96
2, 222000, Note_on_c, 0, 48, 96
2, 222000, Note_on_c, 0, 52, 96
2, 222060, Note_on_c, 0, 81, 0
2, 222060, Note_on_c, 0, 79, 96
2, 222120, Note_on_c, 0, 79, 0
2, 222120, Note_on_c, 0, 52, 0
2, 222120, Note_on_c, 0, 48, 0
2, 222120, Note_on_c, 0, 77, 96
2, 222180, Note_on_c, 0, 77, 0
2, 222180, Note_on_c, 0, 76, 96
2, 222240, Note_on_c, 0, 76, 0
2, 222240, Note_on_c, 0, 73, 96
2, 222240, Note_on_c, 0, 53, 96
2, 222240, Note_on_c, 0, 57, 96
2, 222300, Note_on_c, 0, 73, 0
2, 222300, Note_on_c, 0, 74, 96
2, 222360, Note_on_c, 0, 74, 0
2, 222360, Note_on_c, 0, 76, 96
2, 222420, Note_on_c, 0, 76, 0
2, 222420, Note_on_c, 0, 77, 96
2, 222480, Note_on_c, 0, 77, 0
2, 222480, Note_on_c, 0, 69, 96
2, 222540, Note_on_c, 0, 69, 0
2, 222540, Note_on_c, 0, 72, 96
2, 222600, Note_on_c, 0, 72, 0
2, 222600, Note_on_c, 0, 57, 0
2, 222600, Note_on_c, 0, 53, 0
2, 222600, Note_on_c, 0, 55, 96
2, 222600, Note_on_c, 0, 65, 96
2, 222600, Note_on_c, 0, 71, 96
2, 222660, Note_on_c, 0, 71, 0
2, 222660, Note_on_c, 0, 74, 96
2, 222720, Note_on_c, 0, 74, 0
2, 222720, Note_on_c, 0, 65, 0
2, 222720, Note_on_c, 0, 55, 0
2, 222720, Note_on_c, 0, 64, 96
2, 222720, Note_on_c, 0, 60, 96
2, 222720, Note_on_c, 0, 72, 96
2, 222810, Note_on_c, 0, 60, 0
2, 222810, Note_on_c, 0, 64, 0
2, 222840, Note_on_c, 0, 72, 0
2, 222840, Note_on_c, 0, 48, 96
2, 222930, Note_on_c, 0, 48, 0
2, 222960, Note_on_c, 0, 79, 96
2, 222960, Note_on_c, 0, 76, 96
2, 223050, Note_on_c, 0, 76, 0
2, 223050, Note_on_c, 0, 79, 0
2, 223080, Note_on_c, 0, 76, 96
2, 223080, Note_on_c, 0, 79, 96
2, 223170, Note_on_c, 0, 79, 0
2, 223170, Note_on_c, 0, 76, 0
2, 223200, Note_on_c, 0, 60, 96
2, 223200, Note_on_c, 0, 57, 96
2, 223200, Note_on_c, 0, 76, 96
2, 223200, Note_on_c, 0, 72, 96
2, 223290, Note_on_c, 0, 72, 0
2, 223290, Note_on_c, 0, 60, 0
2, 223290, Note_on_c, 0, 57, 0
2, 223290, Note_on_c, 0, 76, 0
2, 223320, Note_on_c, 0, 60, 96
2, 223320, Note_on_c, 0, 57, 96
2, 223410, Note_on_c, 0, 57, 0
2, 223410, Note_on_c, 0, 60, 0
2, 223440, Note_on_c, 0, 57, 96
2, 223440, Note_on_c, 0, 53, 96
2, 223440, Note_on_c, 0, 77, 96
2, 223440, Note_on_c, 0, 74, 96
2, 223530, Note_on_c, 0, 74, 0
2, 223530, Note_on_c, 0, 57, 0
2, 223530, Note_on_c, 0, 53, 0
2, 223530, Note_on_c, 0, 77, 0
2, 223560, Note_on_c, 0, 74, 96
2, 223560, Note_on_c, 0, 77, 96
2, 223650, Note_on_c, 0, 77, 0
2, 223650, Note_on_c, 0, 74, 0
2, 223680, Note_on_c, 0, 59, 96
2, 223680, Note_on_c, 0, 55, 96
2, 223680, Note_on_c, 0, 74, 96
2, 223680, Note_on_c, 0, 71, 96
2, 223770, Note_on_c, 0, 71, 0
2, 223770, Note_on_c, 0, 59, 0
2, 223770, Note_on_c, 0, 55, 0
2, 223770, Note_on_c, 0, 74, 0
2, 223800, Note_on_c, 0, 59, 96
2, 223800, Note_on_c, 0, 55, 96
2, 223890, Note_on_c, 0, 55, 0
2, 223890, Note_on_c, 0, 59, 0
2, 223920, Note_on_c, 0, 72, 96
2, 223920, Note_on_c, 0, 52, 96
2, 223920, Note_on_c, 0, 55, 96
2, 223980, Note_on_c, 0, 72, 0
2, 223980, Note_on_c, 0, 74, 96
2, 224040, Note_on_c, 0, 74, 0
2, 224040, Note_on_c, 0, 55, 0
2, 224040, Note_on_c, 0, 52, 0
2, 224040, Note_on_c, 0, 76, 96
2, 224100, Note_on_c, 0, 76, 0
2, 224100, Note_on_c, 0, 72, 96
2, 224160, Note_on_c, 0, 72, 0
2, 224160, Note_on_c, 0, 69, 96
2, 224160, Note_on_c, 0, 53, 96
2, 224220, Note_on_c, 0, 69, 0
2, 224220, Note_on_c, 0, 71, 96
2, 224280, Note_on_c, 0, 71, 0
2, 224280, Note_on_c, 0, 72, 96
2, 224340, Note_on_c, 0, 72, 0
2, 224340, Note_on_c, 0, 73, 96
2, 224400, Note_on_c, 0, 73, 0
2, 224400, Note_on_c, 0, 74, 96
2, 224460, Note_on_c, 0, 74, 0
2, 224460, Note_on_c, 0, 76, 96
2, 224520, Note_on_c, 0, 76, 0
2, 224520, Note_on_c, 0, 53, 0
2, 224520, Note_on_c, 0, 50, 96
2, 224520, Note_on_c, 0, 77, 96
2, 224580, Note_on_c, 0, 77, 0
2, 224580, Note_on_c, 0, 74, 96
2, 224640, Note_on_c, 0, 74, 0
2, 224640, Note_on_c, 0, 50, 0
2, 224640, Note_on_c, 0, 72, 96
2, 224640, Note_on_c, 0, 55, 96
2, 224700, Note_on_c, 0, 72, 0
2, 224700, Note_on_c, 0, 71, 96
2, 224760, Note_on_c, 0, 71, 0
2, 224760, Note_on_c, 0, 55, 0
2, 224760, Note_on_c, 0, 69, 96
2, 224820, Note_on_c, 0, 69, 0
2, 224820, Note_on_c, 0, 67, 96
2, 224880, Note_on_c, 0, 67, 0
2, 224880, Note_on_c, 0, 79, 96
2, 224880, Note_on_c, 0, 76, 96
2, 224970, Note_on_c, 0, 76, 0
2, 224970, Note_on_c, 0, 79, 0
2, 225000, Note_on_c, 0, 76, 96
2, 225000, Note_on_c, 0, 79, 96
2, 225090, Note_on_c, 0, 79, 0
2, 225090, Note_on_c, 0, 76, 0
2, 225120, Note_on_c, 0, 60, 96
2, 225120, Note_on_c, 0, 57, 96
2, 225120, Note_on_c, 0, 76, 96
2, 225120, Note_on_c, 0, 72, 96
2, 225210, Note_on_c, 0, 72, 0
2, 225210, Note_on_c, 0, 60, 0
2, 225210, Note_on_c, 0, 57, 0
2, 225210, Note_on_c, 0, 76, 0
2, 225240, Note_on_c, 0, 60, 96
2, 225240, Note_on_c, 0, 57, 96
2, 225330, Note_on_c, 0, 57, 0
2, 225330, Note_on_c, 0, 60, 0
2, 225360, Note_on_c, 0, 53, 96
2, 225360, Note_on_c, 0, 50, 96
2, 225360, Note_on_c, 0, 81, 96
2, 225360, Note_on_c, 0, 77, 96
2, 225450, Note_on_c, 0, 77, 0
2, 225450, Note_on_c, 0, 53, 0
2, 225450, Note_on_c, 0, 50, 0
2, 225450, Note_on_c, 0, 81, 0
2, 225480, Note_on_c, 0, 77, 96
2, 225480, Note_on_c, 0, 81, 96
2, 225570, Note_on_c, 0, 81, 0
2, 225570, Note_on_c, 0, 77, 0
2, 225600, Note_on_c, 0, 59, 96
2, 225600, Note_on_c, 0, 55, 96
2, 225600, Note_on_c, 0, 74, 96
2, 225600, Note_on_c, 0, 71, 96
2, 225690, Note_on_c, 0, 71, 0
2, 225690, Note_on_c, 0, 59, 0
2, 225690, Note_on_c, 0, 55, 0
2, 225690, Note_on_c, 0, 74, 0
2, 225720, Note_on_c, 0, 59, 96
2, 225720, Note_on_c, 0, 55, 96
2, 225810, Note_on_c, 0, 55, 0
2, 225810, Note_on_c, 0, 59, 0
2, 225840, Note_on_c, 0, 81, 96
2, 225840, Note_on_c, 0, 48, 96
2, 225840, Note_on_c, 0, 52, 96
2, 225900, Note_on_c, 0, 81, 0
2, 225900, Note_on_c, 0, 79, 96
2, 225960, Note_on_c, 0, 79, 0
2, 225960, Note_on_c, 0, 52, 0
2, 225960, Note_on_c, 0, 48, 0
2, 225960, Note_on_c, 0, 77, 96
2, 226020, Note_on_c, 0, 77, 0
2, 226020, Note_on_c, 0, 76, 96
2, 226080, Note_on_c, 0, 76, 0
2, 226080, Note_on_c, 0, 73, 96
2, 226080, Note_on_c, 0, 53, 96
2, 226080, Note_on_c, 0, 57, 96
2, 226140, Note_on_c, 0, 73, 0
2, 226140, Note_on_c, 0, 74, 96
2, 226200, Note_on_c, 0, 74, 0
2, 226200, Note_on_c, 0, 76, 96
2, 226260, Note_on_c, 0, 76, 0
2, 226260, Note_on_c, 0, 77, 96
2, 226320, Note_on_c, 0, 77, 0
2, 226320, Note_on_c, 0, 69, 96
2, 226380, Note_on_c, 0, 69, 0
2, 226380, Note_on_c, 0, 72, 96
2, 226440, Note_on_c, 0, 72, 0
2, 226440, Note_on_c, 0, 57, 0
2, 226440, Note_on_c, 0, 53, 0
2, 226440, Note_on_c, 0, 55, 96
2, 226440, Note_on_c, 0, 65, 96
2, 226440, Note_on_c, 0, 71, 96
2, 226500, Note_on_c, 0, 71, 0
2, 226500, Note_on_c, 0, 74, 96
2, 226560, Note_on_c, 0, 74, 0
2, 226560, Note_on_c, 0, 65, 0
2, 226560, Note_on_c, 0, 55, 0
2, 226560, Note_on_c, 0, 64, 96
2, 226560, Note_on_c, 0, 60, 96
2, 226560, Note_on_c, 0, 72, 96
2, 226650, Note_on_c, 0, 60, 0
2, 226650, Note_on_c, 0, 64, 0
2, 226680, Note_on_c, 0, 72, 0
2, 226680, Note_on_c, 0, 48, 96
2, 226770, Note_on_c, 0, 48, 0
2, 226800, Note_on_c, 0, 76, 96
2, 226800, Note_on_c, 0, 60, 96
2, 226860, Note_on_c, 0, 60, 0
2, 226860, Note_on_c, 0, 76, 0
2, 226860, Note_on_c, 0, 78, 96
2, 226860, Note_on_c, 0, 67, 96
2, 226920, Note_on_c, 0, 67, 0
2, 226920, Note_on_c, 0, 78, 0
2, 226920, Note_on_c, 0, 79, 96
2, 226920, Note_on_c, 0, 64, 96
2, 226965, Note_on_c, 0, 79, 0
2, 226980, Note_on_c, 0, 64, 0
2, 226980, Note_on_c, 0, 67, 96
2, 226980, Note_on_c, 0, 79, 96
2, 227025, Note_on_c, 0, 79, 0
2, 227040, Note_on_c, 0, 67, 0
2, 227040, Note_on_c, 0, 81, 96
2, 227040, Note_on_c, 0, 59, 96
2, 227100, Note_on_c, 0, 59, 0
2, 227100, Note_on_c, 0, 81, 0
2, 227100, Note_on_c, 0, 79, 96
2, 227100, Note_on_c, 0, 67, 96
2, 227160, Note_on_c, 0, 67, 0
2, 227160, Note_on_c, 0, 79, 0
2, 227160, Note_on_c, 0, 78, 96
2, 227160, Note_on_c, 0, 62, 96
2, 227220, Note_on_c, 0, 62, 0
2, 227220, Note_on_c, 0, 78, 0
2, 227220, Note_on_c, 0, 76, 96
2, 227220, Note_on_c, 0, 67, 96
2, 227280, Note_on_c, 0, 67, 0
2, 227280, Note_on_c, 0, 76, 0
2, 227280, Note_on_c, 0, 74, 96
2, 227280, Note_on_c, 0, 54, 96
2, 227325, Note_on_c, 0, 74, 0
2, 227340, Note_on_c, 0, 54, 0
2, 227340, Note_on_c, 0, 74, 96
2, 227340, Note_on_c, 0, 62, 96
2, 227385, Note_on_c, 0, 74, 0
2, 227400, Note_on_c, 0, 62, 0
2, 227400, Note_on_c, 0, 74, 96
2, 227400, Note_on_c, 0, 57, 96
2, 227445, Note_on_c, 0, 74, 0
2, 227460, Note_on_c, 0, 57, 0
2, 227460, Note_on_c, 0, 62, 96
2, 227460, Note_on_c, 0, 74, 96
2, 227505, Note_on_c, 0, 74, 0
2, 227520, Note_on_c, 0, 62, 0
2, 227520, Note_on_c, 0, 76, 96
2, 227520, Note_on_c, 0, 55, 96
2, 227580, Note_on_c, 0, 55, 0
2, 227580, Note_on_c, 0, 76, 0
2, 227580, Note_on_c, 0, 74, 96
2, 227580, Note_on_c, 0, 62, 96
2, 227640, Note_on_c, 0, 62, 0
2, 227640, Note_on_c, 0, 74, 0
2, 227640, Note_on_c, 0, 72, 96
2, 227640, Note_on_c, 0, 59, 96
2, 227700, Note_on_c, 0, 59, 0
2, 227700, Note_on_c, 0, 72, 0
2, 227700, Note_on_c, 0, 71, 96
2, 227700, Note_on_c, 0, 62, 96
2, 227760, Note_on_c, 0, 62, 0
2, 227760, Note_on_c, 0, 71, 0
2, 227760, Note_on_c, 0, 88, 96
2, 227760, Note_on_c, 0, 47, 96
2, 227820, Note_on_c, 0, 47, 0
2, 227820, Note_on_c, 0, 88, 0
2, 227820, Note_on_c, 0, 86, 96
2, 227820, Note_on_c, 0, 55, 96
2, 227880, Note_on_c, 0, 55, 0
2, 227880, Note_on_c, 0, 86, 0
2, 227880, Note_on_c, 0, 84, 96
2, 227880, Note_on_c, 0, 50, 96
2, 227940, Note_on_c, 0, 50, 0
2, 227940, Note_on_c, 0, 84, 0
2, 227940, Note_on_c, 0, 83, 96
2, 227940, Note_on_c, 0, 55, 96
2, 228000, Note_on_c, 0, 55, 0
2, 228000, Note_on_c, 0, 83, 0
2, 228000, Note_on_c, 0, 80, 96
2, 228000, Note_on_c, 0, 48, 96
2, 228060, Note_on_c, 0, 48, 0
2, 228060, Note_on_c, 0, 80, 0
2, 228060, Note_on_c, 0, 81, 96
2, 228060, Note_on_c, 0, 57, 96
2, 228120, Note_on_c, 0, 57, 0
2, 228120, Note_on_c, 0, 81, 0
2, 228120, Note_on_c, 0, 83, 96
2, 228120, Note_on_c, 0, 52, 96
2, 228180, Note_on_c, 0, 52, 0
2, 228180, Note_on_c, 0, 83, 0
2, 228180, Note_on_c, 0, 84, 96
2, 228180, Note_on_c, 0, 57, 96
2, 228240, Note_on_c, 0, 57, 0
2, 228240, Note_on_c, 0, 84, 0
2, 228240, Note_on_c, 0, 76, 96
2, 228240, Note_on_c, 0, 49, 96
2, 228300, Note_on_c, 0, 49, 0
2, 228300, Note_on_c, 0, 76, 0
2, 228300, Note_on_c, 0, 78, 96
2, 228300, Note_on_c, 0, 57, 96
2, 228360, Note_on_c, 0, 57, 0
2, 228360, Note_on_c, 0, 78, 0
2, 228360, Note_on_c, 0, 79, 96
2, 228360, Note_on_c, 0, 52, 96
2, 228420, Note_on_c, 0, 52, 0
2, 228420, Note_on_c, 0, 79, 0
2, 228420, Note_on_c, 0, 81, 96
2, 228420, Note_on_c, 0, 57, 96
2, 228480, Note_on_c, 0, 57, 0
2, 228480, Note_on_c, 0, 81, 0
2, 228480, Note_on_c, 0, 79, 96
2, 228480, Note_on_c, 0, 50, 96
2, 228540, Note_on_c, 0, 79, 0
2, 228540, Note_on_c, 0, 78, 96
2, 228600, Note_on_c, 0, 78, 0
2, 228600, Note_on_c, 0, 50, 0
2, 228600, Note_on_c, 0, 76, 96
2, 228660, Note_on_c, 0, 76, 0
2, 228660, Note_on_c, 0, 74, 96
2, 228720, Note_on_c, 0, 74, 0
2, 228720, Note_on_c, 0, 86, 96
2, 228720, Note_on_c, 0, 83, 96
2, 228810, Note_on_c, 0, 83, 0
2, 228810, Note_on_c, 0, 86, 0
2, 228840, Note_on_c, 0, 83, 96
2, 228840, Note_on_c, 0, 86, 96
2, 228930, Note_on_c, 0, 86, 0
2, 228930, Note_on_c, 0, 83, 0
2, 228960, Note_on_c, 0, 67, 96
2, 228960, Note_on_c, 0, 64, 96
2, 228960, Note_on_c, 0, 83, 96
2, 228960, Note_on_c, 0, 79, 96
2, 229050, Note_on_c, 0, 64, 0
2, 229050, Note_on_c, 0, 67, 0
2, 229080, Note_on_c, 0, 67, 96
2, 229080, Note_on_c, 0, 64, 96
2, 229140, Note_on_c, 0, 83, 0
2, 229140, Note_on_c, 0, 79, 0
2, 229170, Note_on_c, 0, 67, 0
2, 229170, Note_on_c, 0, 64, 0
2, 229200, Note_on_c, 0, 64, 96
2, 229200, Note_on_c, 0, 60, 96
2, 229200, Note_on_c, 0, 84, 96
2, 229200, Note_on_c, 0, 81, 96
2, 229290, Note_on_c, 0, 81, 0
2, 229290, Note_on_c, 0, 64, 0
2, 229290, Note_on_c, 0, 60, 0
2, 229290, Note_on_c, 0, 84, 0
2, 229320, Note_on_c, 0, 81, 96
2, 229320, Note_on_c, 0, 84, 96
2, 229410, Note_on_c, 0, 84, 0
2, 229410, Note_on_c, 0, 81, 0
2, 229440, Note_on_c, 0, 66, 96
2, 229440, Note_on_c, 0, 62, 96
2, 229440, Note_on_c, 0, 81, 96
2, 229440, Note_on_c, 0, 78, 96
2, 229530, Note_on_c, 0, 62, 0
2, 229530, Note_on_c, 0, 66, 0
2, 229560, Note_on_c, 0, 66, 96
2, 229560, Note_on_c, 0, 62, 96
2, 229620, Note_on_c, 0, 81, 0
2, 229620, Note_on_c, 0, 78, 0
2, 229650, Note_on_c, 0, 66, 0
2, 229650, Note_on_c, 0, 62, 0
2, 229680, Note_on_c, 0, 79, 96
2, 229680, Note_on_c, 0, 59, 96
2, 229680, Note_on_c, 0, 62, 96
2, 229740, Note_on_c, 0, 79, 0
2, 229740, Note_on_c, 0, 81, 96
2, 229800, Note_on_c, 0, 81, 0
2, 229800, Note_on_c, 0, 62, 0
2, 229800, Note_on_c, 0, 59, 0
2, 229800, Note_on_c, 0, 83, 96
2, 229860, Note_on_c, 0, 83, 0
2, 229860, Note_on_c, 0, 79, 96
2, 229920, Note_on_c, 0, 79, 0
2, 229920, Note_on_c, 0, 75, 96
2, 229920, Note_on_c, 0, 48, 96
2, 229920, Note_on_c, 0, 55, 96
2, 229980, Note_on_c, 0, 75, 0
2, 229980, Note_on_c, 0, 76, 96
2, 230040, Note_on_c, 0, 76, 0
2, 230040, Note_on_c, 0, 79, 96
2, 230100, Note_on_c, 0, 79, 0
2, 230100, Note_on_c, 0, 76, 96
2, 230160, Note_on_c, 0, 76, 0
2, 230160, Note_on_c, 0, 48, 0
2, 230160, Note_on_c, 0, 50, 96
2, 230160, Note_on_c, 0, 74, 96
2, 230220, Note_on_c, 0, 74, 0
2, 230220, Note_on_c, 0, 71, 96
2, 230280, Note_on_c, 0, 71, 0
2, 230280, Note_on_c, 0, 55, 0
2, 230280, Note_on_c, 0, 54, 96
2, 230280, Note_on_c, 0, 72, 96
2, 230340, Note_on_c, 0, 72, 0
2, 230340, Note_on_c, 0, 69, 96
2, 230400, Note_on_c, 0, 69, 0
2, 230400, Note_on_c, 0, 54, 0
2, 230400, Note_on_c, 0, 50, 0
2, 230400, Note_on_c, 0, 55, 96
2, 230400, Note_on_c, 0, 67, 96
2, 230490, Note_on_c, 0, 55, 0
2, 230520, Note_on_c, 0, 67, 0
2, 230520, Note_on_c, 0, 43, 96
2, 230610, Note_on_c, 0, 43, 0
2, 230640, Note_on_c, 0, 67, 96
2, 230700, Note_on_c, 0, 67, 0
2, 230700, Note_on_c, 0, 69, 96
2, 230760, Note_on_c, 0, 69, 0
2, 230760, Note_on_c, 0, 71, 96
2, 230820, Note_on_c, 0, 71, 0
2, 230820, Note_on_c, 0, 72, 96
2, 230880, Note_on_c, 0, 72, 0
2, 230880, Note_on_c, 0, 59, 96
2, 230880, Note_on_c, 0, 55, 96
2, 230880, Note_on_c, 0, 74, 96
2, 230970, Note_on_c, 0, 55, 0
2, 230970, Note_on_c, 0, 59, 0
2, 231000, Note_on_c, 0, 74, 0
2, 231000, Note_on_c, 0, 43, 96
2, 231090, Note_on_c, 0, 43, 0
2, 231120, Note_on_c, 0, 71, 96
2, 231180, Note_on_c, 0, 71, 0
2, 231180, Note_on_c, 0, 72, 96
2, 231240, Note_on_c, 0, 72, 0
2, 231240, Note_on_c, 0, 74, 96
2, 231300, Note_on_c, 0, 74, 0
2, 231300, Note_on_c, 0, 76, 96
2, 231360, Note_on_c, 0, 76, 0
2, 231360, Note_on_c, 0, 59, 96
2, 231360, Note_on_c, 0, 55, 96
2, 231360, Note_on_c, 0, 77, 96
2, 231450, Note_on_c, 0, 55, 0
2, 231450, Note_on_c, 0, 59, 0
2, 231480, Note_on_c, 0, 77, 0
2, 231480, Note_on_c, 0, 43, 96
2, 231570, Note_on_c, 0, 43, 0
2, 231600, Note_on_c, 0, 74, 96
2, 231660, Note_on_c, 0, 74, 0
2, 231660, Note_on_c, 0, 76, 96
2, 231720, Note_on_c, 0, 76, 0
2, 231720, Note_on_c, 0, 77, 96
2, 231780, Note_on_c, 0, 77, 0
2, 231780, Note_on_c, 0, 79, 96
2, 231840, Note_on_c, 0, 79, 0
2, 231840, Note_on_c, 0, 81, 96
2, 231960, Note_on_c, 0, 81, 0
2, 231960, Note_on_c, 0, 80, 96
2, 232080, Note_on_c, 0, 80, 0
2, 232080, Note_on_c, 0, 79, 96
2, 232200, Note_on_c, 0, 79, 0
2, 232200, Note_on_c, 0, 78, 96
2, 232320, Note_on_c, 0, 78, 0
2, 232320, Note_on_c, 0, 77, 96
2, 232440, Note_on_c, 0, 77, 0
2, 232560, Note_on_c, 0, 79, 96
2, 232560, Note_on_c, 0, 76, 96
2, 232650, Note_on_c, 0, 76, 0
2, 232650, Note_on_c, 0, 79, 0
2, 232680, Note_on_c, 0, 76, 96
2, 232680, Note_on_c, 0, 79, 96
2, 232770, Note_on_c, 0, 79, 0
2, 232770, Note_on_c, 0, 76, 0
2, 232800, Note_on_c, 0, 60, 96
2, 232800, Note_on_c, 0, 57, 96
2, 232800, Note_on_c, 0, 76, 96
2, 232800, Note_on_c, 0, 72, 96
2, 232890, Note_on_c, 0, 72, 0
2, 232890, Note_on_c, 0, 60, 0
2, 232890, Note_on_c, 0, 57, 0
2, 232890, Note_on_c, 0, 76, 0
2, 232920, Note_on_c, 0, 60, 96
2, 232920, Note_on_c, 0, 57, 96
2, 233010, Note_on_c, 0, 57, 0
2, 233010, Note_on_c, 0, 60, 0
2, 233040, Note_on_c, 0, 57, 96
2, 233040, Note_on_c, 0, 53, 96
2, 233040, Note_on_c, 0, 77, 96
2, 233040, Note_on_c, 0, 74, 96
2, 233130, Note_on_c, 0, 74, 0
2, 233130, Note_on_c, 0, 57, 0
2, 233130, Note_on_c, 0, 53, 0
2, 233130, Note_on_c, 0, 77, 0
2, 233160, Note_on_c, 0, 74, 96
2, 233160, Note_on_c, 0, 77, 96
2, 233250, Note_on_c, 0, 77, 0
2, 233250, Note_on_c, 0, 74, 0
2, 233280, Note_on_c, 0, 59, 96
2, 233280, Note_on_c, 0, 55, 96
2, 233280, Note_on_c, 0, 74, 96
2, 233280, Note_on_c, 0, 71, 96
2, 233370, Note_on_c, 0, 71, 0
2, 233370, Note_on_c, 0, 59, 0
2, 233370, Note_on_c, 0, 55, 0
2, 233370, Note_on_c, 0, 74, 0
2, 233400, Note_on_c, 0, 59, 96
2, 233400, Note_on_c, 0, 55, 96
2, 233490, Note_on_c, 0, 55, 0
2, 233490, Note_on_c, 0, 59, 0
2, 233520, Note_on_c, 0, 72, 96
2, 233520, Note_on_c, 0, 52, 96
2, 233520, Note_on_c, 0, 55, 96
2, 233580, Note_on_c, 0, 72, 0
2, 233580, Note_on_c, 0, 74, 96
2, 233640, Note_on_c, 0, 74, 0
2, 233640, Note_on_c, 0, 55, 0
2, 233640, Note_on_c, 0, 52, 0
2, 233640, Note_on_c, 0, 76, 96
2, 233700, Note_on_c, 0, 76, 0
2, 233700, Note_on_c, 0, 72, 96
2, 233760, Note_on_c, 0, 72, 0
2, 233760, Note_on_c, 0, 69, 96
2, 233760, Note_on_c, 0, 53, 96
2, 233820, Note_on_c, 0, 69, 0
2, 233820, Note_on_c, 0, 71, 96
2, 233880, Note_on_c, 0, 71, 0
2, 233880, Note_on_c, 0, 72, 96
2, 233940, Note_on_c, 0, 72, 0
2, 233940, Note_on_c, 0, 73, 96
2, 234000, Note_on_c, 0, 73, 0
2, 234000, Note_on_c, 0, 74, 96
2, 234060, Note_on_c, 0, 74, 0
2, 234060, Note_on_c, 0, 76, 96
2, 234120, Note_on_c, 0, 76, 0
2, 234120, Note_on_c, 0, 53, 0
2, 234120, Note_on_c, 0, 50, 96
2, 234120, Note_on_c, 0, 77, 96
2, 234180, Note_on_c, 0, 77, 0
2, 234180, Note_on_c, 0, 74, 96
2, 234240, Note_on_c, 0, 74, 0
2, 234240, Note_on_c, 0, 50, 0
2, 234240, Note_on_c, 0, 72, 96
2, 234240, Note_on_c, 0, 55, 96
2, 234300, Note_on_c, 0, 72, 0
2, 234300, Note_on_c, 0, 71, 96
2, 234360, Note_on_c, 0, 71, 0
2, 234360, Note_on_c, 0, 55, 0
2, 234360, Note_on_c, 0, 69, 96
2, 234420, Note_on_c, 0, 69, 0
2, 234420, Note_on_c, 0, 67, 96
2, 234480, Note_on_c, 0, 67, 0
2, 234480, Note_on_c, 0, 79, 96
2, 234480, Note_on_c, 0, 76, 96
2, 234570, Note_on_c, 0, 76, 0
2, 234570, Note_on_c, 0, 79, 0
2, 234600, Note_on_c, 0, 76, 96
2, 234600, Note_on_c, 0, 79, 96
2, 234690, Note_on_c, 0, 79, 0
2, 234690, Note_on_c, 0, 76, 0
2, 234720, Note_on_c, 0, 60, 96
2, 234720, Note_on_c, 0, 57, 96
2, 234720, Note_on_c, 0, 76, 96
2, 234720, Note_on_c, 0, 72, 96
2, 234810, Note_on_c, 0, 72, 0
2, 234810, Note_on_c, 0, 60, 0
2, 234810, Note_on_c, 0, 57, 0
2, 234810, Note_on_c, 0, 76, 0
2, 234840, Note_on_c, 0, 60, 96
2, 234840, Note_on_c, 0, 57, 96
2, 234930, Note_on_c, 0, 57, 0
2, 234930, Note_on_c, 0, 60, 0
2, 234960, Note_on_c, 0, 53, 96
2, 234960, Note_on_c, 0, 50, 96
2, 234960, Note_on_c, 0, 81, 96
2, 234960, Note_on_c, 0, 77, 96
2, 235050, Note_on_c, 0, 77, 0
2, 235050, Note_on_c, 0, 53, 0
2, 235050, Note_on_c, 0, 50, 0
2, 235050, Note_on_c, 0, 81, 0
2, 235080, Note_on_c, 0, 77, 96
2, 235080, Note_on_c, 0, 81, 96
2, 235170, Note_on_c, 0, 81, 0
2, 235170, Note_on_c, 0, 77, 0
2, 235200, Note_on_c, 0, 59, 96
2, 235200, Note_on_c, 0, 55, 96
2, 235200, Note_on_c, 0, 74, 96
2, 235200, Note_on_c, 0, 71, 96
2, 235290, Note_on_c, 0, 71, 0
2, 235290, Note_on_c, 0, 59, 0
2, 235290, Note_on_c, 0, 55, 0
2, 235290, Note_on_c, 0, 74, 0
2, 235320, Note_on_c, 0, 59, 96
2, 235320, Note_on_c, 0, 55, 96
2, 235410, Note_on_c, 0, 55, 0
2, 235410, Note_on_c, 0, 59, 0
2, 235440, Note_on_c, 0, 81, 96
2, 235440, Note_on_c, 0, 48, 96
2, 235440, Note_on_c, 0, 52, 96
2, 235500, Note_on_c, 0, 81, 0
2, 235500, Note_on_c, 0, 79, 96
2, 235560, Note_on_c, 0, 79, 0
2, 235560, Note_on_c, 0, 52, 0
2, 235560, Note_on_c, 0, 48, 0
2, 235560, Note_on_c, 0, 77, 96
2, 235620, Note_on_c, 0, 77, 0
2, 235620, Note_on_c, 0, 76, 96
2, 235680, Note_on_c, 0, 76, 0
2, 235680, Note_on_c, 0, 73, 96
2, 235680, Note_on_c, 0, 53, 96
2, 235680, Note_on_c, 0, 57, 96
2, 235740, Note_on_c, 0, 73, 0
2, 235740, Note_on_c, 0, 74, 96
2, 235800, Note_on_c, 0, 74, 0
2, 235800, Note_on_c, 0, 76, 96
2, 235860, Note_on_c, 0, 76, 0
2, 235860, Note_on_c, 0, 77, 96
2, 235920, Note_on_c, 0, 77, 0
2, 235920, Note_on_c, 0, 69, 96
2, 235980, Note_on_c, 0, 69, 0
2, 235980, Note_on_c, 0, 72, 96
2, 236040, Note_on_c, 0, 72, 0
2, 236040, Note_on_c, 0, 57, 0
2, 236040, Note_on_c, 0, 53, 0
2, 236040, Note_on_c, 0, 55, 96
2, 236040, Note_on_c, 0, 65, 96
2, 236040, Note_on_c, 0, 71, 96
2, 236100, Note_on_c, 0, 71, 0
2, 236100, Note_on_c, 0, 74, 96
2, 236160, Note_on_c, 0, 74, 0
2, 236160, Note_on_c, 0, 65, 0
2, 236160, Note_on_c, 0, 55, 0
2, 236160, Note_on_c, 0, 72, 96
2, 236160, Note_on_c, 0, 60, 96
2, 236160, Note_on_c, 0, 64, 96
2, 236280, Note_on_c, 0, 64, 0
2, 236280, Note_on_c, 0, 60, 0
2, 236280, Note_on_c, 0, 72, 0
2, 236280, Note_on_c, 0, 48, 96
2, 236370, Note_on_c, 0, 48, 0
2, 236400, Note_on_c, 0, 64, 96
2, 236400, Note_on_c, 0, 60, 96
2, 236490, Note_on_c, 0, 60, 0
2, 236490, Note_on_c, 0, 64, 0
2, 236520, Note_on_c, 0, 60, 96
2, 236520, Note_on_c, 0, 64, 96
2, 236610, Note_on_c, 0, 64, 0
2, 236610, Note_on_c, 0, 60, 0
2, 236640, Note_on_c, 0, 60, 96
2, 236640, Note_on_c, 0, 57, 96
2, 236640, Note_on_c, 0, 76, 96
2, 236700, Note_on_c, 0, 76, 0
2, 236700, Note_on_c, 0, 75, 96
2, 236730, Note_on_c, 0, 57, 0
2, 236730, Note_on_c, 0, 60, 0
2, 236760, Note_on_c, 0, 75, 0
2, 236760, Note_on_c, 0, 77, 96
2, 236820, Note_on_c, 0, 77, 0
2, 236820, Note_on_c, 0, 76, 96
2, 236880, Note_on_c, 0, 76, 0
2, 236880, Note_on_c, 0, 62, 96
2, 236880, Note_on_c, 0, 59, 96
2, 236970, Note_on_c, 0, 59, 0
2, 236970, Note_on_c, 0, 62, 0
2, 237000, Note_on_c, 0, 59, 96
2, 237000, Note_on_c, 0, 62, 96
2, 237090, Note_on_c, 0, 62, 0
2, 237090, Note_on_c, 0, 59, 0
2, 237120, Note_on_c, 0, 59, 96
2, 237120, Note_on_c, 0, 56, 96
2, 237120, Note_on_c, 0, 76, 96
2, 237180, Note_on_c, 0, 76, 0
2, 237180, Note_on_c, 0, 75, 96
2, 237210, Note_on_c, 0, 56, 0
2, 237210, Note_on_c, 0, 59, 0
2, 237240, Note_on_c, 0, 75, 0
2, 237240, Note_on_c, 0, 77, 96
2, 237300, Note_on_c, 0, 77, 0
2, 237300, Note_on_c, 0, 76, 96
2, 237345, Note_on_c, 0, 76, 0
2, 237360, Note_on_c, 0, 84, 96
2, 237360, Note_on_c, 0, 76, 96
2, 237450, Note_on_c, 0, 76, 0
2, 237450, Note_on_c, 0, 84, 0
2, 237480, Note_on_c, 0, 76, 96
2, 237480, Note_on_c, 0, 84, 96
2, 237570, Note_on_c, 0, 84, 0
2, 237570, Note_on_c, 0, 76, 0
2, 237600, Note_on_c, 0, 81, 96
2, 237600, Note_on_c, 0, 72, 96
2, 237600, Note_on_c, 0, 64, 96
2, 237660, Note_on_c, 0, 64, 0
2, 237660, Note_on_c, 0, 63, 96
2, 237690, Note_on_c, 0, 72, 0
2, 237690, Note_on_c, 0, 81, 0
2, 237720, Note_on_c, 0, 63, 0
2, 237720, Note_on_c, 0, 65, 96
2, 237780, Note_on_c, 0, 65, 0
2, 237780, Note_on_c, 0, 64, 96
2, 237840, Note_on_c, 0, 64, 0
2, 237840, Note_on_c, 0, 83, 96
2, 237840, Note_on_c, 0, 74, 96
2, 237930, Note_on_c, 0, 74, 0
2, 237930, Note_on_c, 0, 83, 0
2, 237960, Note_on_c, 0, 74, 96
2, 237960, Note_on_c, 0, 83, 96
2, 238050, Note_on_c, 0, 83, 0
2, 238050, Note_on_c, 0, 74, 0
2, 238080, Note_on_c, 0, 80, 96
2, 238080, Note_on_c, 0, 71, 96
2, 238080, Note_on_c, 0, 64, 96
2, 238140, Note_on_c, 0, 64, 0
2, 238140, Note_on_c, 0, 63, 96
2, 238170, Note_on_c, 0, 71, 0
2, 238170, Note_on_c, 0, 80, 0
2, 238200, Note_on_c, 0, 63, 0
2, 238200, Note_on_c, 0, 65, 96
2, 238260, Note_on_c, 0, 65, 0
2, 238260, Note_on_c, 0, 64, 96
2, 238320, Note_on_c, 0, 64, 0
2, 238320, Note_on_c, 0, 60, 96
2, 238320, Note_on_c, 0, 64, 96
2, 238320, Note_on_c, 0, 81, 96
2, 238380, Note_on_c, 0, 81, 0
2, 238380, Note_on_c, 0, 76, 96
2, 238440, Note_on_c, 0, 76, 0
2, 238440, Note_on_c, 0, 72, 96
2, 238500, Note_on_c, 0, 72, 0
2, 238500, Note_on_c, 0, 69, 96
2, 238560, Note_on_c, 0, 69, 0
2, 238560, Note_on_c, 0, 64, 0
2, 238560, Note_on_c, 0, 60, 0
2, 238560, Note_on_c, 0, 72, 96
2, 238560, Note_on_c, 0, 62, 96
2, 238560, Note_on_c, 0, 65, 96
2, 238620, Note_on_c, 0, 72, 0
2, 238620, Note_on_c, 0, 70, 96
2, 238680, Note_on_c, 0, 70, 0
2, 238680, Note_on_c, 0, 70, 96
2, 238725, Note_on_c, 0, 70, 0
2, 238740, Note_on_c, 0, 70, 96
2, 238785, Note_on_c, 0, 70, 0
2, 238800, Note_on_c, 0, 65, 0
2, 238800, Note_on_c, 0, 62, 0
2, 238800, Note_on_c, 0, 64, 96
2, 238800, Note_on_c, 0, 67, 96
2, 238800, Note_on_c, 0, 74, 96
2, 238860, Note_on_c, 0, 74, 0
2, 238860, Note_on_c, 0, 73, 96
2, 238920, Note_on_c, 0, 73, 0
2, 238920, Note_on_c, 0, 73, 96
2, 238965, Note_on_c, 0, 73, 0
2, 238980, Note_on_c, 0, 73, 96
2, 239025, Note_on_c, 0, 73, 0
2, 239040, Note_on_c, 0, 67, 0
2, 239040, Note_on_c, 0, 64, 0
2, 239040, Note_on_c, 0, 69, 96
2, 239040, Note_on_c, 0, 76, 96
2, 239040, Note_on_c, 0, 65, 96
2, 239100, Note_on_c, 0, 76, 0
2, 239100, Note_on_c, 0, 74, 96
2, 239160, Note_on_c, 0, 74, 0
2, 239160, Note_on_c, 0, 65, 0
2, 239160, Note_on_c, 0, 77, 96
2, 239160, Note_on_c, 0, 61, 96
2, 239220, Note_on_c, 0, 77, 0
2, 239220, Note_on_c, 0, 76, 96
2, 239280, Note_on_c, 0, 76, 0
2, 239280, Note_on_c, 0, 61, 0
2, 239280, Note_on_c, 0, 79, 96
2, 239280, Note_on_c, 0, 62, 96
2, 239340, Note_on_c, 0, 79, 0
2, 239340, Note_on_c, 0, 77, 96
2, 239400, Note_on_c, 0, 77, 0
2, 239400, Note_on_c, 0, 62, 0
2, 239400, Note_on_c, 0, 64, 96
2, 239400, Note_on_c, 0, 77, 96
2, 239460, Note_on_c, 0, 77, 0
2, 239460, Note_on_c, 0, 76, 96
2, 239520, Note_on_c, 0, 76, 0
2, 239520, Note_on_c, 0, 64, 0
2, 239520, Note_on_c, 0, 69, 0
2, 239520, Note_on_c, 0, 76, 96
2, 239520, Note_on_c, 0, 65, 96
2, 239520, Note_on_c, 0, 69, 96
2, 239580, Note_on_c, 0, 76, 0
2, 239580, Note_on_c, 0, 75, 96
2, 239640, Note_on_c, 0, 75, 0
2, 239640, Note_on_c, 0, 69, 0
2, 239640, Note_on_c, 0, 65, 0
2, 239640, Note_on_c, 0, 84, 96
2, 239760, Note_on_c, 0, 65, 96
2, 239760, Note_on_c, 0, 69, 96
2, 239880, Note_on_c, 0, 69, 0
2, 239880, Note_on_c, 0, 65, 0
2, 239880, Note_on_c, 0, 84, 0
2, 239880, Note_on_c, 0, 75, 96
2, 240000, Note_on_c, 0, 75, 0
2, 240000, Note_on_c, 0, 76, 96
2, 240000, Note_on_c, 0, 52, 96
2, 240060, Note_on_c, 0, 52, 0
2, 240060, Note_on_c, 0, 64, 96
2, 240120, Note_on_c, 0, 64, 0
2, 240120, Note_on_c, 0, 76, 0
2, 240120, Note_on_c, 0, 56, 96
2, 240180, Note_on_c, 0, 56, 0
2, 240180, Note_on_c, 0, 64, 96
2, 240240, Note_on_c, 0, 64, 0
2, 240240, Note_on_c, 0, 83, 96
2, 240240, Note_on_c, 0, 59, 96
2, 240300, Note_on_c, 0, 59, 0
2, 240300, Note_on_c, 0, 83, 0
2, 240300, Note_on_c, 0, 80, 96
2, 240300, Note_on_c, 0, 64, 96
2, 240360, Note_on_c, 0, 64, 0
2, 240360, Note_on_c, 0, 80, 0
2, 240360, Note_on_c, 0, 76, 96
2, 240360, Note_on_c, 0, 56, 96
2, 240420, Note_on_c, 0, 56, 0
2, 240420, Note_on_c, 0, 76, 0
2, 240420, Note_on_c, 0, 64, 96
2, 240420, Note_on_c, 0, 74, 96
2, 240480, Note_on_c, 0, 74, 0
2, 240480, Note_on_c, 0, 64, 0
2, 240480, Note_on_c, 0, 72, 96
2, 240480, Note_on_c, 0, 52, 96
2, 240540, Note_on_c, 0, 52, 0
2, 240540, Note_on_c, 0, 72, 0
2, 240540, Note_on_c, 0, 76, 96
2, 240540, Note_on_c, 0, 64, 96
2, 240600, Note_on_c, 0, 64, 0
2, 240600, Note_on_c, 0, 76, 0
2, 240600, Note_on_c, 0, 81, 96
2, 240600, Note_on_c, 0, 57, 96
2, 240660, Note_on_c, 0, 57, 0
2, 240660, Note_on_c, 0, 81, 0
2, 240660, Note_on_c, 0, 80, 96
2, 240660, Note_on_c, 0, 64, 96
2, 240720, Note_on_c, 0, 64, 0
2, 240720, Note_on_c, 0, 80, 0
2, 240720, Note_on_c, 0, 81, 96
2, 240720, Note_on_c, 0, 60, 96
2, 240780, Note_on_c, 0, 60, 0
2, 240780, Note_on_c, 0, 81, 0
2, 240780, Note_on_c, 0, 76, 96
2, 240780, Note_on_c, 0, 64, 96
2, 240840, Note_on_c, 0, 64, 0
2, 240840, Note_on_c, 0, 76, 0
2, 240840, Note_on_c, 0, 72, 96
2, 240840, Note_on_c, 0, 57, 96
2, 240900, Note_on_c, 0, 57, 0
2, 240900, Note_on_c, 0, 72, 0
2, 240900, Note_on_c, 0, 69, 96
2, 240900, Note_on_c, 0, 64, 96
2, 240960, Note_on_c, 0, 64, 0
2, 240960, Note_on_c, 0, 69, 0
2, 240960, Note_on_c, 0, 68, 96
2, 240960, Note_on_c, 0, 52, 96
2, 241020, Note_on_c, 0, 52, 0
2, 241020, Note_on_c, 0, 68, 0
2, 241020, Note_on_c, 0, 71, 96
2, 241020, Note_on_c, 0, 64, 96
2, 241080, Note_on_c, 0, 64, 0
2, 241080, Note_on_c, 0, 71, 0
2, 241080, Note_on_c, 0, 76, 96
2, 241080, Note_on_c, 0, 56, 96
2, 241140, Note_on_c, 0, 56, 0
2, 241140, Note_on_c, 0, 76, 0
2, 241140, Note_on_c, 0, 80, 96
2, 241140, Note_on_c, 0, 64, 96
2, 241200, Note_on_c, 0, 64, 0
2, 241200, Note_on_c, 0, 80, 0
2, 241200, Note_on_c, 0, 83, 96
2, 241200, Note_on_c, 0, 59, 96
2, 241260, Note_on_c, 0, 59, 0
2, 241260, Note_on_c, 0, 83, 0
2, 241260, Note_on_c, 0, 80, 96
2, 241260, Note_on_c, 0, 64, 96
2, 241320, Note_on_c, 0, 64, 0
2, 241320, Note_on_c, 0, 80, 0
2, 241320, Note_on_c, 0, 76, 96
2, 241320, Note_on_c, 0, 56, 96
2, 241380, Note_on_c, 0, 56, 0
2, 241380, Note_on_c, 0, 76, 0
2, 241380, Note_on_c, 0, 74, 96
2, 241380, Note_on_c, 0, 64, 96
2, 241440, Note_on_c, 0, 64, 0
2, 241440, Note_on_c, 0, 74, 0
2, 241440, Note_on_c, 0, 72, 96
2, 241440, Note_on_c, 0, 52, 96
2, 241500, Note_on_c, 0, 52, 0
2, 241500, Note_on_c, 0, 72, 0
2, 241500, Note_on_c, 0, 76, 96
2, 241500, Note_on_c, 0, 64, 96
2, 241560, Note_on_c, 0, 64, 0
2, 241560, Note_on_c, 0, 76, 0
2, 241560, Note_on_c, 0, 81, 96
2, 241560, Note_on_c, 0, 57, 96
2, 241620, Note_on_c, 0, 57, 0
2, 241620, Note_on_c, 0, 81, 0
2, 241620, Note_on_c, 0, 80, 96
2, 241620, Note_on_c, 0, 64, 96
2, 241680, Note_on_c, 0, 64, 0
2, 241680, Note_on_c, 0, 80, 0
2, 241680, Note_on_c, 0, 81, 96
2, 241680, Note_on_c, 0, 60, 96
2, 241740, Note_on_c, 0, 60, 0
2, 241740, Note_on_c, 0, 81, 0
2, 241740, Note_on_c, 0, 76, 96
2, 241740, Note_on_c, 0, 64, 96
2, 241800, Note_on_c, 0, 64, 0
2, 241800, Note_on_c, 0, 76, 0
2, 241800, Note_on_c, 0, 72, 96
2, 241800, Note_on_c, 0, 57, 96
2, 241860, Note_on_c, 0, 57, 0
2, 241860, Note_on_c, 0, 72, 0
2, 241860, Note_on_c, 0, 69, 96
2, 241860, Note_on_c, 0, 64, 96
2, 241920, Note_on_c, 0, 64, 0
2, 241920, Note_on_c, 0, 69, 0
2, 241920, Note_on_c, 0, 64, 96
2, 241920, Note_on_c, 0, 52, 96
2, 242040, Note_on_c, 0, 52, 0
2, 242040, Note_on_c, 0, 64, 0
2, 242160, Note_on_c, 0, 76, 96
2, 242160, Note_on_c, 0, 72, 96
2, 242250, Note_on_c, 0, 72, 0
2, 242250, Note_on_c, 0, 76, 0
2, 242280, Note_on_c, 0, 72, 96
2, 242280, Note_on_c, 0, 76, 96
2, 242370, Note_on_c, 0, 76, 0
2, 242370, Note_on_c, 0, 72, 0
2, 242400, Note_on_c, 0, 72, 96
2, 242400, Note_on_c, 0, 69, 96
2, 242400, Note_on_c, 0, 64, 96
2, 242460, Note_on_c, 0, 64, 0
2, 242460, Note_on_c, 0, 63, 96
2, 242490, Note_on_c, 0, 69, 0
2, 242490, Note_on_c, 0, 72, 0
2, 242520, Note_on_c, 0, 63, 0
2, 242520, Note_on_c, 0, 65, 96
2, 242580, Note_on_c, 0, 65, 0
2, 242580, Note_on_c, 0, 64, 96
2, 242640, Note_on_c, 0, 64, 0
2, 242640, Note_on_c, 0, 74, 96
2, 242640, Note_on_c, 0, 71, 96
2, 242730, Note_on_c, 0, 71, 0
2, 242730, Note_on_c, 0, 74, 0
2, 242760, Note_on_c, 0, 71, 96
2, 242760, Note_on_c, 0, 74, 96
2, 242850, Note_on_c, 0, 74, 0
2, 242850, Note_on_c, 0, 71, 0
2, 242880, Note_on_c, 0, 71, 96
2, 242880, Note_on_c, 0, 68, 96
2, 242880, Note_on_c, 0, 64, 96
2, 242940, Note_on_c, 0, 64, 0
2, 242940, Note_on_c, 0, 63, 96
2, 242970, Note_on_c, 0, 68, 0
2, 242970, Note_on_c, 0, 71, 0
2, 243000, Note_on_c, 0, 63, 0
2, 243000, Note_on_c, 0, 65, 96
2, 243060, Note_on_c, 0, 65, 0
2, 243060, Note_on_c, 0, 64, 96
2, 243120, Note_on_c, 0, 64, 0
2, 243120, Note_on_c, 0, 60, 96
2, 243120, Note_on_c, 0, 52, 96
2, 243210, Note_on_c, 0, 52, 0
2, 243210, Note_on_c, 0, 60, 0
2, 243240, Note_on_c, 0, 52, 96
2, 243240, Note_on_c, 0, 60, 96
2, 243330, Note_on_c, 0, 60, 0
2, 243330, Note_on_c, 0, 52, 0
2, 243360, Note_on_c, 0, 57, 96
2, 243360, Note_on_c, 0, 48, 96
2, 243360, Note_on_c, 0, 64, 96
2, 243420, Note_on_c, 0, 64, 0
2, 243420, Note_on_c, 0, 63, 96
2, 243450, Note_on_c, 0, 48, 0
2, 243450, Note_on_c, 0, 57, 0
2, 243480, Note_on_c, 0, 63, 0
2, 243480, Note_on_c, 0, 65, 96
2, 243540, Note_on_c, 0, 65, 0
2, 243540, Note_on_c, 0, 64, 96
2, 243600, Note_on_c, 0, 64, 0
2, 243600, Note_on_c, 0, 59, 96
2, 243600, Note_on_c, 0, 50, 96
2, 243690, Note_on_c, 0, 50, 0
2, 243690, Note_on_c, 0, 59, 0
2, 243720, Note_on_c, 0, 50, 96
2, 243720, Note_on_c, 0, 59, 96
2, 243810, Note_on_c, 0, 59, 0
2, 243810, Note_on_c, 0, 50, 0
2, 243840, Note_on_c, 0, 56, 96
2, 243840, Note_on_c, 0, 47, 96
2, 243840, Note_on_c, 0, 88, 96
2, 243900, Note_on_c, 0, 88, 0
2, 243900, Note_on_c, 0, 87, 96
2, 243930, Note_on_c, 0, 47, 0
2, 243930, Note_on_c, 0, 56, 0
2, 243960, Note_on_c, 0, 87, 0
2, 243960, Note_on_c, 0, 89, 96
2, 244020, Note_on_c, 0, 89, 0
2, 244020, Note_on_c, 0, 88, 96
2, 244080, Note_on_c, 0, 88, 0
2, 244080, Note_on_c, 0, 56, 96
2, 244080, Note_on_c, 0, 59, 96
2, 244080, Note_on_c, 0, 86, 96
2, 244140, Note_on_c, 0, 86, 0
2, 244140, Note_on_c, 0, 85, 96
2, 244200, Note_on_c, 0, 85, 0
2, 244200, Note_on_c, 0, 88, 96
2, 244260, Note_on_c, 0, 88, 0
2, 244260, Note_on_c, 0, 86, 96
2, 244320, Note_on_c, 0, 86, 0
2, 244320, Note_on_c, 0, 59, 0
2, 244320, Note_on_c, 0, 56, 0
2, 244320, Note_on_c, 0, 86, 96
2, 244320, Note_on_c, 0, 57, 96
2, 244320, Note_on_c, 0, 60, 96
2, 244380, Note_on_c, 0, 86, 0
2, 244380, Note_on_c, 0, 84, 96
2, 244440, Note_on_c, 0, 84, 0
2, 244440, Note_on_c, 0, 60, 0
2, 244440, Note_on_c, 0, 57, 0
2, 244440, Note_on_c, 0, 84, 96
2, 244440, Note_on_c, 0, 59, 96
2, 244440, Note_on_c, 0, 62, 96
2, 244500, Note_on_c, 0, 84, 0
2, 244500, Note_on_c, 0, 83, 96
2, 244560, Note_on_c, 0, 83, 0
2, 244560, Note_on_c, 0, 62, 0
2, 244560, Note_on_c, 0, 59, 0
2, 244560, Note_on_c, 0, 64, 96
2, 244560, Note_on_c, 0, 83, 96
2, 244560, Note_on_c, 0, 60, 96
2, 244620, Note_on_c, 0, 83, 0
2, 244620, Note_on_c, 0, 81, 96
2, 244680, Note_on_c, 0, 81, 0
2, 244680, Note_on_c, 0, 60, 0
2, 244680, Note_on_c, 0, 61, 96
2, 244680, Note_on_c, 0, 81, 96
2, 244740, Note_on_c, 0, 81, 0
2, 244740, Note_on_c, 0, 79, 96
2, 244800, Note_on_c, 0, 79, 0
2, 244800, Note_on_c, 0, 61, 0
2, 244800, Note_on_c, 0, 64, 0
2, 244800, Note_on_c, 0, 69, 96
2, 244800, Note_on_c, 0, 79, 96
2, 244800, Note_on_c, 0, 62, 96
2, 244860, Note_on_c, 0, 79, 0
2, 244860, Note_on_c, 0, 77, 96
2, 244920, Note_on_c, 0, 77, 0
2, 244920, Note_on_c, 0, 62, 0
2, 244920, Note_on_c, 0, 77, 96
2, 244920, Note_on_c, 0, 64, 96
2, 244980, Note_on_c, 0, 77, 0
2, 244980, Note_on_c, 0, 76, 96
2, 245040, Note_on_c, 0, 76, 0
2, 245040, Note_on_c, 0, 64, 0
2, 245040, Note_on_c, 0, 76, 96
2, 245040, Note_on_c, 0, 65, 96
2, 245100, Note_on_c, 0, 76, 0
2, 245100, Note_on_c, 0, 74, 96
2, 245160, Note_on_c, 0, 74, 0
2, 245160, Note_on_c, 0, 65, 0
2, 245160, Note_on_c, 0, 64, 96
2, 245160, Note_on_c, 0, 74, 96
2, 245220, Note_on_c, 0, 74, 0
2, 245220, Note_on_c, 0, 72, 96
2, 245280, Note_on_c, 0, 72, 0
2, 245280, Note_on_c, 0, 64, 0
2, 245280, Note_on_c, 0, 69, 0
2, 245280, Note_on_c, 0, 70, 96
2, 245280, Note_on_c, 0, 62, 96
2, 245280, Note_on_c, 0, 65, 96
2, 245340, Note_on_c, 0, 70, 0
2, 245340, Note_on_c, 0, 77, 96
2, 245400, Note_on_c, 0, 77, 0
2, 245400, Note_on_c, 0, 74, 96
2, 245460, Note_on_c, 0, 74, 0
2, 245460, Note_on_c, 0, 70, 96
2, 245520, Note_on_c, 0, 70, 0
2, 245520, Note_on_c, 0, 65, 0
2, 245520, Note_on_c, 0, 62, 0
2, 245520, Note_on_c, 0, 52, 96
2, 245520, Note_on_c, 0, 69, 96
2, 245520, Note_on_c, 0, 60, 96
2, 245640, Note_on_c, 0, 60, 0
2, 245640, Note_on_c, 0, 69, 0
2, 245640, Note_on_c, 0, 68, 96
2, 245640, Note_on_c, 0, 59, 96
2, 245760, Note_on_c, 0, 59, 0
2, 245760, Note_on_c, 0, 68, 0
2, 245760, Note_on_c, 0, 52, 0
2, 245760, Note_on_c, 0, 69, 96
2, 245760, Note_on_c, 0, 57, 96
2, 245820, Note_on_c, 0, 57, 0
2, 245820, Note_on_c, 0, 60, 96
2, 245880, Note_on_c, 0, 60, 0
2, 245880, Note_on_c, 0, 69, 0
2, 245880, Note_on_c, 0, 64, 96
2, 245940, Note_on_c, 0, 64, 0
2, 245940, Note_on_c, 0, 60, 96
2, 246000, Note_on_c, 0, 60, 0
2, 246000, Note_on_c, 0, 68, 96
2, 246000, Note_on_c, 0, 52, 96
2, 246060, Note_on_c, 0, 52, 0
2, 246060, Note_on_c, 0, 68, 0
2, 246060, Note_on_c, 0, 74, 96
2, 246060, Note_on_c, 0, 59, 96
2, 246120, Note_on_c, 0, 59, 0
2, 246120, Note_on_c, 0, 74, 0
2, 246120, Note_on_c, 0, 71, 96
2, 246120, Note_on_c, 0, 62, 96
2, 246180, Note_on_c, 0, 62, 0
2, 246180, Note_on_c, 0, 71, 0
2, 246180, Note_on_c, 0, 59, 96
2, 246180, Note_on_c, 0, 68, 96
2, 246240, Note_on_c, 0, 68, 0
2, 246240, Note_on_c, 0, 59, 0
2, 246240, Note_on_c, 0, 69, 96
2, 246240, Note_on_c, 0, 57, 96
2, 246300, Note_on_c, 0, 57, 0
2, 246300, Note_on_c, 0, 60, 96
2, 246360, Note_on_c, 0, 60, 0
2, 246360, Note_on_c, 0, 69, 0
2, 246360, Note_on_c, 0, 64, 96
2, 246420, Note_on_c, 0, 64, 0
2, 246420, Note_on_c, 0, 60, 96
2, 246480, Note_on_c, 0, 60, 0
2, 246480, Note_on_c, 0, 68, 96
2, 246480, Note_on_c, 0, 52, 96
2, 246540, Note_on_c, 0, 52, 0
2, 246540, Note_on_c, 0, 68, 0
2, 246540, Note_on_c, 0, 74, 96
2, 246540, Note_on_c, 0, 59, 96
2, 246600, Note_on_c, 0, 59, 0
2, 246600, Note_on_c, 0, 74, 0
2, 246600, Note_on_c, 0, 71, 96
2, 246600, Note_on_c, 0, 62, 96
2, 246660, Note_on_c, 0, 62, 0
2, 246660, Note_on_c, 0, 71, 0
2, 246660, Note_on_c, 0, 59, 96
2, 246660, Note_on_c, 0, 68, 96
2, 246720, Note_on_c, 0, 68, 0
2, 246720, Note_on_c, 0, 59, 0
2, 246720, Note_on_c, 0, 69, 96
2, 246720, Note_on_c, 0, 57, 96
2, 246780, Note_on_c, 0, 57, 0
2, 246780, Note_on_c, 0, 60, 96
2, 246840, Note_on_c, 0, 60, 0
2, 246840, Note_on_c, 0, 69, 0
2, 246840, Note_on_c, 0, 64, 96
2, 246900, Note_on_c, 0, 64, 0
2, 246900, Note_on_c, 0, 60, 96
2, 246960, Note_on_c, 0, 60, 0
2, 246960, Note_on_c, 0, 68, 96
2, 246960, Note_on_c, 0, 52, 96
2, 247020, Note_on_c, 0, 52, 0
2, 247020, Note_on_c, 0, 68, 0
2, 247020, Note_on_c, 0, 74, 96
2, 247020, Note_on_c, 0, 59, 96
2, 247080, Note_on_c, 0, 59, 0
2, 247080, Note_on_c, 0, 74, 0
2, 247080, Note_on_c, 0, 71, 96
2, 247080, Note_on_c, 0, 62, 96
2, 247140, Note_on_c, 0, 62, 0
2, 247140, Note_on_c, 0, 71, 0
2, 247140, Note_on_c, 0, 59, 96
2, 247140, Note_on_c, 0, 68, 96
2, 247200, Note_on_c, 0, 68, 0
2, 247200, Note_on_c, 0, 59, 0
2, 247200, Note_on_c, 0, 69, 96
2, 247200, Note_on_c, 0, 57, 96
2, 247260, Note_on_c, 0, 57, 0
2, 247260, Note_on_c, 0, 69, 0
2, 247260, Note_on_c, 0, 76, 96
2, 247260, Note_on_c, 0, 60, 96
2, 247320, Note_on_c, 0, 60, 0
2, 247320, Note_on_c, 0, 76, 0
2, 247320, Note_on_c, 0, 72, 96
2, 247320, Note_on_c, 0, 64, 96
2, 247380, Note_on_c, 0, 64, 0
2, 247380, Note_on_c, 0, 72, 0
2, 247380, Note_on_c, 0, 69, 96
2, 247380, Note_on_c, 0, 60, 96
2, 247440, Note_on_c, 0, 60, 0
2, 247440, Note_on_c, 0, 69, 0
2, 247440, Note_on_c, 0, 71, 96
2, 247440, Note_on_c, 0, 55, 96
2, 247500, Note_on_c, 0, 55, 0
2, 247500, Note_on_c, 0, 71, 0
2, 247500, Note_on_c, 0, 77, 96
2, 247500, Note_on_c, 0, 62, 96
2, 247560, Note_on_c, 0, 62, 0
2, 247560, Note_on_c, 0, 77, 0
2, 247560, Note_on_c, 0, 74, 96
2, 247560, Note_on_c, 0, 65, 96
2, 247620, Note_on_c, 0, 65, 0
2, 247620, Note_on_c, 0, 74, 0
2, 247620, Note_on_c, 0, 71, 96
2, 247620, Note_on_c, 0, 62, 96
2, 247680, Note_on_c, 0, 62, 0
2, 247680, Note_on_c, 0, 71, 0
2, 248400, Note_on_c, 0, 79, 96
2, 248400, Note_on_c, 0, 76, 96
2, 248490, Note_on_c, 0, 76, 0
2, 248490, Note_on_c, 0, 79, 0
2, 248520, Note_on_c, 0, 76, 96
2, 248520, Note_on_c, 0, 79, 96
2, 248610, Note_on_c, 0, 79, 0
2, 248610, Note_on_c, 0, 76, 0
2, 248640, Note_on_c, 0, 60, 96
2, 248640, Note_on_c, 0, 57, 96
2, 248640, Note_on_c, 0, 76, 96
2, 248640, Note_on_c, 0, 72, 96
2, 248730, Note_on_c, 0, 72, 0
2, 248730, Note_on_c, 0, 60, 0
2, 248730, Note_on_c, 0, 57, 0
2, 248730, Note_on_c, 0, 76, 0
2, 248760, Note_on_c, 0, 60, 96
2, 248760, Note_on_c, 0, 57, 96
2, 248850, Note_on_c, 0, 57, 0
2, 248850, Note_on_c, 0, 60, 0
2, 248880, Note_on_c, 0, 57, 96
2, 248880, Note_on_c, 0, 53, 96
2, 248880, Note_on_c, 0, 77, 96
2, 248880, Note_on_c, 0, 74, 96
2, 248970, Note_on_c, 0, 74, 0
2, 248970, Note_on_c, 0, 57, 0
2, 248970, Note_on_c, 0, 53, 0
2, 248970, Note_on_c, 0, 77, 0
2, 249000, Note_on_c, 0, 74, 96
2, 249000, Note_on_c, 0, 77, 96
2, 249090, Note_on_c, 0, 77, 0
2, 249090, Note_on_c, 0, 74, 0
2, 249120, Note_on_c, 0, 59, 96
2, 249120, Note_on_c, 0, 55, 96
2, 249120, Note_on_c, 0, 74, 96
2, 249120, Note_on_c, 0, 71, 96
2, 249210, Note_on_c, 0, 71, 0
2, 249210, Note_on_c, 0, 59, 0
2, 249210, Note_on_c, 0, 55, 0
2, 249210, Note_on_c, 0, 74, 0
2, 249240, Note_on_c, 0, 59, 96
2, 249240, Note_on_c, 0, 55, 96
2, 249330, Note_on_c, 0, 55, 0
2, 249330, Note_on_c, 0, 59, 0
2, 249360, Note_on_c, 0, 72, 96
2, 249360, Note_on_c, 0, 52, 96
2, 249360, Note_on_c, 0, 55, 96
2, 249420, Note_on_c, 0, 72, 0
2, 249420, Note_on_c, 0, 74, 96
2, 249480, Note_on_c, 0, 74, 0
2, 249480, Note_on_c, 0, 55, 0
2, 249480, Note_on_c, 0, 52, 0
2, 249480, Note_on_c, 0, 76, 96
2, 249540, Note_on_c, 0, 76, 0
2, 249540, Note_on_c, 0, 72, 96
2, 249600, Note_on_c, 0, 72, 0
2, 249600, Note_on_c, 0, 69, 96
2, 249600, Note_on_c, 0, 53, 96
2, 249660, Note_on_c, 0, 69, 0
2, 249660, Note_on_c, 0, 71, 96
2, 249720, Note_on_c, 0, 71, 0
2, 249720, Note_on_c, 0, 72, 96
2, 249780, Note_on_c, 0, 72, 0
2, 249780, Note_on_c, 0, 73, 96
2, 249840, Note_on_c, 0, 73, 0
2, 249840, Note_on_c, 0, 74, 96
2, 249900, Note_on_c, 0, 74, 0
2, 249900, Note_on_c, 0, 76, 96
2, 249960, Note_on_c, 0, 76, 0
2, 249960, Note_on_c, 0, 53, 0
2, 249960, Note_on_c, 0, 50, 96
2, 249960, Note_on_c, 0, 77, 96
2, 250020, Note_on_c, 0, 77, 0
2, 250020, Note_on_c, 0, 74, 96
2, 250080, Note_on_c, 0, 74, 0
2, 250080, Note_on_c, 0, 50, 0
2, 250080, Note_on_c, 0, 72, 96
2, 250080, Note_on_c, 0, 55, 96
2, 250140, Note_on_c, 0, 72, 0
2, 250140, Note_on_c, 0, 71, 96
2, 250200, Note_on_c, 0, 71, 0
2, 250200, Note_on_c, 0, 55, 0
2, 250200, Note_on_c, 0, 69, 96
2, 250260, Note_on_c, 0, 69, 0
2, 250260, Note_on_c, 0, 67, 96
2, 250320, Note_on_c, 0, 67, 0
2, 250320, Note_on_c, 0, 79, 96
2, 250320, Note_on_c, 0, 76, 96
2, 250410, Note_on_c, 0, 76, 0
2, 250410, Note_on_c, 0, 79, 0
2, 250440, Note_on_c, 0, 76, 96
2, 250440, Note_on_c, 0, 79, 96
2, 250530, Note_on_c, 0, 79, 0
2, 250530, Note_on_c, 0, 76, 0
2, 250560, Note_on_c, 0, 60, 96
2, 250560, Note_on_c, 0, 57, 96
2, 250560, Note_on_c, 0, 76, 96
2, 250560, Note_on_c, 0, 72, 96
2, 250650, Note_on_c, 0, 72, 0
2, 250650, Note_on_c, 0, 60, 0
2, 250650, Note_on_c, 0, 57, 0
2, 250650, Note_on_c, 0, 76, 0
2, 250680, Note_on_c, 0, 60, 96
2, 250680, Note_on_c, 0, 57, 96
2, 250770, Note_on_c, 0, 57, 0
2, 250770, Note_on_c, 0, 60, 0
2, 250800, Note_on_c, 0, 53, 96
2, 250800, Note_on_c, 0, 50, 96
2, 250800, Note_on_c, 0, 81, 96
2, 250800, Note_on_c, 0, 77, 96
2, 250890, Note_on_c, 0, 77, 0
2, 250890, Note_on_c, 0, 53, 0
2, 250890, Note_on_c, 0, 50, 0
2, 250890, Note_on_c, 0, 81, 0
2, 250920, Note_on_c, 0, 77, 96
2, 250920, Note_on_c, 0, 81, 96
2, 251010, Note_on_c, 0, 81, 0
2, 251010, Note_on_c, 0, 77, 0
2, 251040, Note_on_c, 0, 59, 96
2, 251040, Note_on_c, 0, 55, 96
2, 251040, Note_on_c, 0, 74, 96
2, 251040, Note_on_c, 0, 71, 96
2, 251130, Note_on_c, 0, 71, 0
2, 251130, Note_on_c, 0, 59, 0
2, 251130, Note_on_c, 0, 55, 0
2, 251130, Note_on_c, 0, 74, 0
2, 251160, Note_on_c, 0, 59, 96
2, 251160, Note_on_c, 0, 55, 96
2, 251250, Note_on_c, 0, 55, 0
2, 251250, Note_on_c, 0, 59, 0
2, 251280, Note_on_c, 0, 81, 96
2, 251280, Note_on_c, 0, 48, 96
2, 251280, Note_on_c, 0, 52, 96
2, 251340, Note_on_c, 0, 81, 0
2, 251340, Note_on_c, 0, 79, 96
2, 251400, Note_on_c, 0, 79, 0
2, 251400, Note_on_c, 0, 52, 0
2, 251400, Note_on_c, 0, 48, 0
2, 251400, Note_on_c, 0, 77, 96
2, 251460, Note_on_c, 0, 77, 0
2, 251460, Note_on_c, 0, 76, 96
2, 251520, Note_on_c, 0, 76, 0
2, 251520, Note_on_c, 0, 73, 96
2, 251520, Note_on_c, 0, 53, 96
2, 251520, Note_on_c, 0, 57, 96
2, 251580, Note_on_c, 0, 73, 0
2, 251580, Note_on_c, 0, 74, 96
2, 251640, Note_on_c, 0, 74, 0
2, 251640, Note_on_c, 0, 76, 96
2, 251700, Note_on_c, 0, 76, 0
2, 251700, Note_on_c, 0, 77, 96
2, 251760, Note_on_c, 0, 77, 0
2, 251760, Note_on_c, 0, 69, 96
2, 251820, Note_on_c, 0, 69, 0
2, 251820, Note_on_c, 0, 72, 96
2, 251880, Note_on_c, 0, 72, 0
2, 251880, Note_on_c, 0, 57, 0
2, 251880, Note_on_c, 0, 53, 0
2, 251880, Note_on_c, 0, 55, 96
2, 251880, Note_on_c, 0, 65, 96
2, 251880, Note_on_c, 0, 71, 96
2, 251940, Note_on_c, 0, 71, 0
2, 251940, Note_on_c, 0, 74, 96
2, 252000, Note_on_c, 0, 74, 0
2, 252000, Note_on_c, 0, 65, 0
2, 252000, Note_on_c, 0, 55, 0
2, 252000, Note_on_c, 0, 60, 96
2, 252000, Note_on_c, 0, 72, 96
2, 252000, Note_on_c, 0, 64, 96
2, 252090, Note_on_c, 0, 60, 0
2, 252120, Note_on_c, 0, 64, 0
2, 252120, Note_on_c, 0, 72, 0
2, 252120, Note_on_c, 0, 48, 96
2, 252210, Note_on_c, 0, 48, 0
2, 252240, Note_on_c, 0, 71, 96
2, 252240, Note_on_c, 0, 53, 96
2, 252300, Note_on_c, 0, 53, 0
2, 252300, Note_on_c, 0, 71, 0
2, 252300, Note_on_c, 0, 77, 96
2, 252300, Note_on_c, 0, 59, 96
2, 252360, Note_on_c, 0, 59, 0
2, 252360, Note_on_c, 0, 77, 0
2, 252360, Note_on_c, 0, 74, 96
2, 252360, Note_on_c, 0, 55, 96
2, 252420, Note_on_c, 0, 55, 0
2, 252420, Note_on_c, 0, 74, 0
2, 252420, Note_on_c, 0, 71, 96
2, 252420, Note_on_c, 0, 59, 96
2, 252480, Note_on_c, 0, 59, 0
2, 252480, Note_on_c, 0, 71, 0
2, 252480, Note_on_c, 0, 81, 96
2, 252480, Note_on_c, 0, 52, 96
2, 252540, Note_on_c, 0, 52, 0
2, 252540, Note_on_c, 0, 81, 0
2, 252540, Note_on_c, 0, 79, 96
2, 252540, Note_on_c, 0, 60, 96
2, 252600, Note_on_c, 0, 60, 0
2, 252600, Note_on_c, 0, 79, 0
2, 252600, Note_on_c, 0, 77, 96
2, 252600, Note_on_c, 0, 55, 96
2, 252660, Note_on_c, 0, 55, 0
2, 252660, Note_on_c, 0, 77, 0
2, 252660, Note_on_c, 0, 76, 96
2, 252660, Note_on_c, 0, 60, 96
2, 252720, Note_on_c, 0, 60, 0
2, 252720, Note_on_c, 0, 76, 0
2, 252720, Note_on_c, 0, 74, 96
2, 252720, Note_on_c, 0, 53, 96
2, 252780, Note_on_c, 0, 53, 0
2, 252780, Note_on_c, 0, 74, 0
2, 252780, Note_on_c, 0, 77, 96
2, 252780, Note_on_c, 0, 59, 96
2, 252840, Note_on_c, 0, 59, 0
2, 252840, Note_on_c, 0, 77, 0
2, 252840, Note_on_c, 0, 74, 96
2, 252840, Note_on_c, 0, 55, 96
2, 252900, Note_on_c, 0, 55, 0
2, 252900, Note_on_c, 0, 74, 0
2, 252900, Note_on_c, 0, 71, 96
2, 252900, Note_on_c, 0, 59, 96
2, 252960, Note_on_c, 0, 59, 0
2, 252960, Note_on_c, 0, 71, 0
2, 252960, Note_on_c, 0, 81, 96
2, 252960, Note_on_c, 0, 52, 96
2, 253020, Note_on_c, 0, 52, 0
2, 253020, Note_on_c, 0, 81, 0
2, 253020, Note_on_c, 0, 79, 96
2, 253020, Note_on_c, 0, 60, 96
2, 253080, Note_on_c, 0, 60, 0
2, 253080, Note_on_c, 0, 79, 0
2, 253080, Note_on_c, 0, 77, 96
2, 253080, Note_on_c, 0, 55, 96
2, 253140, Note_on_c, 0, 55, 0
2, 253140, Note_on_c, 0, 77, 0
2, 253140, Note_on_c, 0, 76, 96
2, 253140, Note_on_c, 0, 60, 96
2, 253200, Note_on_c, 0, 60, 0
2, 253200, Note_on_c, 0, 76, 0
2, 253200, Note_on_c, 0, 86, 96
2, 253200, Note_on_c, 0, 53, 96
2, 253260, Note_on_c, 0, 53, 0
2, 253260, Note_on_c, 0, 86, 0
2, 253260, Note_on_c, 0, 84, 96
2, 253260, Note_on_c, 0, 62, 96
2, 253320, Note_on_c, 0, 62, 0
2, 253320, Note_on_c, 0, 84, 0
2, 253320, Note_on_c, 0, 83, 96
2, 253320, Note_on_c, 0, 57, 96
2, 253380, Note_on_c, 0, 57, 0
2, 253380, Note_on_c, 0, 83, 0
2, 253380, Note_on_c, 0, 81, 96
2, 253380, Note_on_c, 0, 62, 96
2, 253440, Note_on_c, 0, 62, 0
2, 253440, Note_on_c, 0, 81, 0
2, 253440, Note_on_c, 0, 81, 96
2, 253440, Note_on_c, 0, 55, 96
2, 253500, Note_on_c, 0, 55, 0
2, 253500, Note_on_c, 0, 81, 0
2, 253500, Note_on_c, 0, 79, 96
2, 253500, Note_on_c, 0, 64, 96
2, 253560, Note_on_c, 0, 64, 0
2, 253560, Note_on_c, 0, 79, 0
2, 253560, Note_on_c, 0, 77, 96
2, 253560, Note_on_c, 0, 60, 96
2, 253620, Note_on_c, 0, 60, 0
2, 253620, Note_on_c, 0, 77, 0
2, 253620, Note_on_c, 0, 76, 96
2, 253620, Note_on_c, 0, 64, 96
2, 253680, Note_on_c, 0, 64, 0
2, 253680, Note_on_c, 0, 76, 0
2, 253680, Note_on_c, 0, 76, 96
2, 253680, Note_on_c, 0, 55, 96
2, 253740, Note_on_c, 0, 55, 0
2, 253740, Note_on_c, 0, 76, 0
2, 253740, Note_on_c, 0, 74, 96
2, 253740, Note_on_c, 0, 65, 96
2, 253800, Note_on_c, 0, 65, 0
2, 253800, Note_on_c, 0, 74, 0
2, 253800, Note_on_c, 0, 72, 96
2, 253800, Note_on_c, 0, 62, 96
2, 253860, Note_on_c, 0, 62, 0
2, 253860, Note_on_c, 0, 72, 0
2, 253860, Note_on_c, 0, 71, 96
2, 253860, Note_on_c, 0, 65, 96
2, 253920, Note_on_c, 0, 65, 0
2, 253920, Note_on_c, 0, 71, 0
2, 253920, Note_on_c, 0, 74, 96
2, 253920, Note_on_c, 0, 60, 96
2, 253980, Note_on_c, 0, 60, 0
2, 253980, Note_on_c, 0, 67, 96
2, 254040, Note_on_c, 0, 67, 0
2, 254040, Note_on_c, 0, 74, 0
2, 254040, Note_on_c, 0, 72, 96
2, 254040, Note_on_c, 0, 64, 96
2, 254100, Note_on_c, 0, 64, 0
2, 254100, Note_on_c, 0, 67, 96
2, 254160, Note_on_c, 0, 67, 0
2, 254160, Note_on_c, 0, 72, 0
2, 254160, Note_on_c, 0, 71, 96
2, 254160, Note_on_c, 0, 53, 96
2, 254220, Note_on_c, 0, 53, 0
2, 254220, Note_on_c, 0, 71, 0
2, 254220, Note_on_c, 0, 77, 96
2, 254220, Note_on_c, 0, 59, 96
2, 254280, Note_on_c, 0, 59, 0
2, 254280, Note_on_c, 0, 77, 0
2, 254280, Note_on_c, 0, 74, 96
2, 254280, Note_on_c, 0, 55, 96
2, 254340, Note_on_c, 0, 55, 0
2, 254340, Note_on_c, 0, 74, 0
2, 254340, Note_on_c, 0, 71, 96
2, 254340, Note_on_c, 0, 59, 96
2, 254400, Note_on_c, 0, 59, 0
2, 254400, Note_on_c, 0, 71, 0
2, 254400, Note_on_c, 0, 81, 96
2, 254400, Note_on_c, 0, 52, 96
2, 254460, Note_on_c, 0, 52, 0
2, 254460, Note_on_c, 0, 81, 0
2, 254460, Note_on_c, 0, 79, 96
2, 254460, Note_on_c, 0, 60, 96
2, 254520, Note_on_c, 0, 60, 0
2, 254520, Note_on_c, 0, 79, 0
2, 254520, Note_on_c, 0, 77, 96
2, 254520, Note_on_c, 0, 55, 96
2, 254580, Note_on_c, 0, 55, 0
2, 254580, Note_on_c, 0, 77, 0
2, 254580, Note_on_c, 0, 76, 96
2, 254580, Note_on_c, 0, 60, 96
2, 254640, Note_on_c, 0, 60, 0
2, 254640, Note_on_c, 0, 76, 0
2, 254640, Note_on_c, 0, 74, 96
2, 254640, Note_on_c, 0, 53, 96
2, 254700, Note_on_c, 0, 53, 0
2, 254700, Note_on_c, 0, 74, 0
2, 254700, Note_on_c, 0, 77, 96
2, 254700, Note_on_c, 0, 59, 96
2, 254760, Note_on_c, 0, 59, 0
2, 254760, Note_on_c, 0, 77, 0
2, 254760, Note_on_c, 0, 74, 96
2, 254760, Note_on_c, 0, 55, 96
2, 254820, Note_on_c, 0, 55, 0
2, 254820, Note_on_c, 0, 74, 0
2, 254820, Note_on_c, 0, 71, 96
2, 254820, Note_on_c, 0, 59, 96
2, 254880, Note_on_c, 0, 59, 0
2, 254880, Note_on_c, 0, 71, 0
2, 254880, Note_on_c, 0, 81, 96
2, 254880, Note_on_c, 0, 52, 96
2, 254940, Note_on_c, 0, 52, 0
2, 254940, Note_on_c, 0, 81, 0
2, 254940, Note_on_c, 0, 79, 96
2, 254940, Note_on_c, 0, 60, 96
2, 255000, Note_on_c, 0, 60, 0
2, 255000, Note_on_c, 0, 79, 0
2, 255000, Note_on_c, 0, 77, 96
2, 255000, Note_on_c, 0, 55, 96
2, 255060, Note_on_c, 0, 55, 0
2, 255060, Note_on_c, 0, 77, 0
2, 255060, Note_on_c, 0, 76, 96
2, 255060, Note_on_c, 0, 60, 96
2, 255120, Note_on_c, 0, 60, 0
2, 255120, Note_on_c, 0, 76, 0
2, 255120, Note_on_c, 0, 86, 96
2, 255120, Note_on_c, 0, 53, 96
2, 255180, Note_on_c, 0, 53, 0
2, 255180, Note_on_c, 0, 86, 0
2, 255180, Note_on_c, 0, 84, 96
2, 255180, Note_on_c, 0, 62, 96
2, 255240, Note_on_c, 0, 62, 0
2, 255240, Note_on_c, 0, 84, 0
2, 255240, Note_on_c, 0, 83, 96
2, 255240, Note_on_c, 0, 57, 96
2, 255300, Note_on_c, 0, 57, 0
2, 255300, Note_on_c, 0, 83, 0
2, 255300, Note_on_c, 0, 81, 96
2, 255300, Note_on_c, 0, 62, 96
2, 255360, Note_on_c, 0, 62, 0
2, 255360, Note_on_c, 0, 81, 0
2, 255360, Note_on_c, 0, 81, 96
2, 255360, Note_on_c, 0, 55, 96
2, 255420, Note_on_c, 0, 55, 0
2, 255420, Note_on_c, 0, 81, 0
2, 255420, Note_on_c, 0, 79, 96
2, 255420, Note_on_c, 0, 64, 96
2, 255480, Note_on_c, 0, 64, 0
2, 255480, Note_on_c, 0, 79, 0
2, 255480, Note_on_c, 0, 77, 96
2, 255480, Note_on_c, 0, 60, 96
2, 255540, Note_on_c, 0, 60, 0
2, 255540, Note_on_c, 0, 77, 0
2, 255540, Note_on_c, 0, 76, 96
2, 255540, Note_on_c, 0, 64, 96
2, 255600, Note_on_c, 0, 64, 0
2, 255600, Note_on_c, 0, 76, 0
2, 255600, Note_on_c, 0, 76, 96
2, 255600, Note_on_c, 0, 55, 96
2, 255660, Note_on_c, 0, 55, 0
2, 255660, Note_on_c, 0, 76, 0
2, 255660, Note_on_c, 0, 74, 96
2, 255660, Note_on_c, 0, 65, 96
2, 255720, Note_on_c, 0, 65, 0
2, 255720, Note_on_c, 0, 74, 0
2, 255720, Note_on_c, 0, 72, 96
2, 255720, Note_on_c, 0, 62, 96
2, 255780, Note_on_c, 0, 62, 0
2, 255780, Note_on_c, 0, 72, 0
2, 255780, Note_on_c, 0, 71, 96
2, 255780, Note_on_c, 0, 65, 96
2, 255840, Note_on_c, 0, 65, 0
2, 255840, Note_on_c, 0, 71, 0
2, 255840, Note_on_c, 0, 72, 96
2, 255840, Note_on_c, 0, 60, 96
2, 255900, Note_on_c, 0, 60, 0
2, 255900, Note_on_c, 0, 72, 0
2, 255900, Note_on_c, 0, 76, 96
2, 255900, Note_on_c, 0, 64, 96
2, 255960, Note_on_c, 0, 64, 0
2, 255960, Note_on_c, 0, 76, 0
2, 255960, Note_on_c, 0, 67, 96
2, 255960, Note_on_c, 0, 55, 96
2, 256020, Note_on_c, 0, 55, 0
2, 256020, Note_on_c, 0, 67, 0
2, 256020, Note_on_c, 0, 72, 96
2, 256020, Note_on_c, 0, 60, 96
2, 256080, Note_on_c, 0, 60, 0
2, 256080, Note_on_c, 0, 72, 0
2, 256080, Note_on_c, 0, 64, 96
2, 256080, Note_on_c, 0, 52, 96
2, 256140, Note_on_c, 0, 52, 0
2, 256140, Note_on_c, 0, 64, 0
2, 256140, Note_on_c, 0, 67, 96
2, 256140, Note_on_c, 0, 55, 96
2, 256200, Note_on_c, 0, 55, 0
2, 256200, Note_on_c, 0, 67, 0
2, 256200, Note_on_c, 0, 60, 96
2, 256200, Note_on_c, 0, 48, 96
2, 256260, Note_on_c, 0, 48, 0
2, 256260, Note_on_c, 0, 60, 0
2, 256260, Note_on_c, 0, 64, 96
2, 256260, Note_on_c, 0, 52, 96
2, 256320, Note_on_c, 0, 52, 0
2, 256320, Note_on_c, 0, 64, 0
2, 256320, Note_on_c, 0, 55, 96
2, 256320, Note_on_c, 0, 67, 96
2, 256380, Note_on_c, 0, 67, 0
2, 256380, Note_on_c, 0, 72, 96
2, 256410, Note_on_c, 0, 55, 0
2, 256440, Note_on_c, 0, 72, 0
2, 256440, Note_on_c, 0, 72, 96
2, 256440, Note_on_c, 0, 76, 96
2, 256500, Note_on_c, 0, 76, 0
2, 256500, Note_on_c, 0, 72, 0
2, 256500, Note_on_c, 0, 76, 96
2, 256500, Note_on_c, 0, 79, 96
2, 256560, Note_on_c, 0, 79, 0
2, 256560, Note_on_c, 0, 76, 0
2, 256560, Note_on_c, 0, 43, 96
2, 256560, Note_on_c, 0, 76, 96
2, 256560, Note_on_c, 0, 79, 96
2, 256620, Note_on_c, 0, 79, 0
2, 256620, Note_on_c, 0, 76, 0
2, 256620, Note_on_c, 0, 74, 96
2, 256620, Note_on_c, 0, 77, 96
2, 256650, Note_on_c, 0, 43, 0
2, 256680, Note_on_c, 0, 77, 0
2, 256680, Note_on_c, 0, 74, 0
2, 256680, Note_on_c, 0, 72, 96
2, 256680, Note_on_c, 0, 76, 96
2, 256740, Note_on_c, 0, 76, 0
2, 256740, Note_on_c, 0, 72, 0
2, 256740, Note_on_c, 0, 71, 96
2, 256740, Note_on_c, 0, 74, 96
2, 256800, Note_on_c, 0, 74, 0
2, 256800, Note_on_c, 0, 71, 0
2, 256800, Note_on_c, 0, 72, 96
2, 256800, Note_on_c, 0, 60, 96
2, 256860, Note_on_c, 0, 60, 0
2, 256860, Note_on_c, 0, 72, 0
2, 256860, Note_on_c, 0, 76, 96
2, 256860, Note_on_c, 0, 64, 96
2, 256920, Note_on_c, 0, 64, 0
2, 256920, Note_on_c, 0, 76, 0
2, 256920, Note_on_c, 0, 67, 96
2, 256920, Note_on_c, 0, 55, 96
2, 256980, Note_on_c, 0, 55, 0
2, 256980, Note_on_c, 0, 67, 0
2, 256980, Note_on_c, 0, 72, 96
2, 256980, Note_on_c, 0, 60, 96
2, 257040, Note_on_c, 0, 60, 0
2, 257040, Note_on_c, 0, 72, 0
2, 257040, Note_on_c, 0, 64, 96
2, 257040, Note_on_c, 0, 52, 96
2, 257100, Note_on_c, 0, 52, 0
2, 257100, Note_on_c, 0, 64, 0
2, 257100, Note_on_c, 0, 67, 96
2, 257100, Note_on_c, 0, 55, 96
2, 257160, Note_on_c, 0, 55, 0
2, 257160, Note_on_c, 0, 67, 0
2, 257160, Note_on_c, 0, 60, 96
2, 257160, Note_on_c, 0, 48, 96
2, 257220, Note_on_c, 0, 48, 0
2, 257220, Note_on_c, 0, 60, 0
2, 257220, Note_on_c, 0, 64, 96
2, 257220, Note_on_c, 0, 52, 96
2, 257280, Note_on_c, 0, 52, 0
2, 257280, Note_on_c, 0, 64, 0
2, 257280, Note_on_c, 0, 55, 96
2, 257280, Note_on_c, 0, 67, 96
2, 257340, Note_on_c, 0, 67, 0
2, 257340, Note_on_c, 0, 72, 96
2, 257370, Note_on_c, 0, 55, 0
2, 257400, Note_on_c, 0, 72, 0
2, 257400, Note_on_c, 0, 72, 96
2, 257400, Note_on_c, 0, 76, 96
2, 257460, Note_on_c, 0, 76, 0
2, 257460, Note_on_c, 0, 72, 0
2, 257460, Note_on_c, 0, 76, 96
2, 257460, Note_on_c, 0, 79, 96
2, 257520, Note_on_c, 0, 79, 0
2, 257520, Note_on_c, 0, 76, 0
2, 257520, Note_on_c, 0, 43, 96
2, 257520, Note_on_c, 0, 76, 96
2, 257520, Note_on_c, 0, 79, 96
2, 257580, Note_on_c, 0, 79, 0
2, 257580, Note_on_c, 0, 76, 0
2, 257580, Note_on_c, 0, 74, 96
2, 257580, Note_on_c, 0, 77, 96
2, 257610, Note_on_c, 0, 43, 0
2, 257640, Note_on_c, 0, 77, 0
2, 257640, Note_on_c, 0, 74, 0
2, 257640, Note_on_c, 0, 72, 96
2, 257640, Note_on_c, 0, 76, 96
2, 257700, Note_on_c, 0, 76, 0
2, 257700, Note_on_c, 0, 72, 0
2, 257700, Note_on_c, 0, 71, 96
2, 257700, Note_on_c, 0, 74, 96
2, 257760, Note_on_c, 0, 74, 0
2, 257760, Note_on_c, 0, 71, 0
2, 257760, Note_on_c, 0, 48, 96
2, 257760, Note_on_c, 0, 72, 96
2, 257760, Note_on_c, 0, 36, 96
2, 257850, Note_on_c, 0, 72, 0
2, 257850, Note_on_c, 0, 48, 0
2, 257880, Note_on_c, 0, 36, 0
2, 257880, Note_on_c, 0, 52, 96
2, 257880, Note_on_c, 0, 79, 96
2, 257880, Note_on_c, 0, 76, 96
2, 257880, Note_on_c, 0, 84, 96
2, 257880, Note_on_c, 0, 40, 96
2, 257970, Note_on_c, 0, 76, 0
2, 257970, Note_on_c, 0, 52, 0
2, 257970, Note_on_c, 0, 79, 0
2, 258000, Note_on_c, 0, 84, 0
2, 258000, Note_on_c, 0, 40, 0
2, 258000, Note_on_c, 0, 55, 96
2, 258000, Note_on_c, 0, 72, 96
2, 258000, Note_on_c, 0, 64, 96
2, 258000, Note_on_c, 0, 43, 96
2, 258090, Note_on_c, 0, 64, 0
2, 258090, Note_on_c, 0, 55, 0
2, 258090, Note_on_c, 0, 72, 0
2, 258120, Note_on_c, 0, 43, 0
2, 258120, Note_on_c, 0, 40, 96
2, 258120, Note_on_c, 0, 64, 96
2, 258120, Note_on_c, 0, 52, 96
2, 258120, Note_on_c, 0, 72, 96
2, 258210, Note_on_c, 0, 72, 0
2, 258210, Note_on_c, 0, 52, 0
2, 258210, Note_on_c, 0, 64, 0
2, 258240, Note_on_c, 0, 40, 0
2, 258240, Note_on_c, 0, 64, 96
2, 258240, Note_on_c, 0, 72, 96
2, 258240, Note_on_c, 0, 36, 96
2, 258240, Note_on_c, 0, 48, 96
2, 258480, Note_on_c, 0, 48, 0
2, 258480, Note_on_c, 0, 64, 0
2, 258480, Note_on_c, 0, 72, 0
2, 258480, Note_on_c, 0, 36, 0
2, 258480, End_track
0, 0, End_of_file
