0, 0, Header, 0, 1, 240
1, 0, Start_track
1, 0, Time_signature, 1, 2, 24, 8
1, 0, Tempo, 500000
1, 0, Program_c, 0, 0
1, 0, Control_c, 0, 7, 127
1, 0, Control_c, 0, 10, 76
1, 0, Program_c, 1, 0
1, 0, Control_c, 1, 7, 127
1, 0, Control_c, 1, 10, 75
1, 0, Program_c, 2, 0
1, 0, Control_c, 2, 7, 127
1, 0, Control_c, 2, 10, 74
1, 0, Program_c, 3, 0
1, 0, Control_c, 3, 7, 127
1, 0, Control_c, 3, 10, 66
1, 0, Program_c, 4, 0
1, 0, Control_c, 4, 7, 127
1, 0, Control_c, 4, 10, 58
1, 108, Marker_t, "Mozart PS No.11 in AM, K.331 (300i) Interpreted/Copyright 1998-99 S D Rodrian"
1, 120, Control_c, 0, 32, 0
1, 120, Control_c, 0, 10, 77
1, 120, Control_c, 0, 7, 127
1, 120, Control_c, 0, 91, 91
1, 120, Control_c, 0, 64, 0
1, 120, Control_c, 0, 93, 28
1, 120, Control_c, 0, 0, 0
1, 360, Control_c, 1, 32, 0
1, 360, Control_c, 1, 10, 76
1, 360, Control_c, 1, 7, 127
1, 360, Control_c, 1, 91, 91
1, 360, Control_c, 1, 64, 0
1, 360, Control_c, 1, 93, 28
1, 360, Control_c, 1, 0, 0
1, 636, Control_c, 2, 32, 0
1, 636, Control_c, 2, 10, 75
1, 636, Control_c, 2, 93, 28
1, 636, Control_c, 2, 64, 0
1, 636, Control_c, 2, 91, 91
1, 636, Control_c, 2, 7, 127
1, 636, Control_c, 2, 0, 0
1, 888, Control_c, 3, 32, 0
1, 888, Control_c, 3, 10, 67
1, 888, Control_c, 3, 93, 28
1, 888, Control_c, 3, 64, 0
1, 888, Control_c, 3, 91, 91
1, 888, Control_c, 3, 7, 127
1, 888, Control_c, 3, 0, 0
1, 1116, Control_c, 4, 32, 0
1, 1116, Control_c, 4, 10, 58
1, 1116, Control_c, 4, 93, 28
1, 1116, Control_c, 4, 91, 91
1, 1116, Control_c, 4, 64, 0
1, 1116, Control_c, 4, 7, 127
1, 1116, Control_c, 4, 0, 0
1, 2117, Note_on_c, 2, 73, 124
1, 2119, Note_on_c, 4, 57, 113
1, 2121, Note_on_c, 4, 64, 114
1, 2373, Note_off_c, 2, 73, 64
1, 2373, Note_off_c, 4, 57, 64
1, 2373, Note_on_c, 2, 74, 124
1, 2374, Note_on_c, 4, 59, 125
1, 2437, Note_off_c, 4, 64, 64
1, 2438, Note_on_c, 2, 73, 124
1, 2439, Note_on_c, 4, 57, 123
1, 2441, Note_on_c, 4, 64, 124
1, 2453, Note_off_c, 2, 74, 64
1, 2453, Note_off_c, 4, 59, 64
1, 2605, Note_off_c, 4, 64, 64
1, 2608, Note_on_c, 2, 76, 124
1, 2608, Note_on_c, 4, 61, 125
1, 2609, Note_on_c, 4, 64, 124
1, 2619, Note_off_c, 2, 73, 64
1, 2621, Note_off_c, 4, 57, 64
1, 2886, Note_off_c, 4, 61, 64
1, 2886, Note_off_c, 2, 76, 64
1, 2889, Note_off_c, 4, 64, 64
1, 2890, Note_on_c, 2, 76, 124
1, 2890, Note_on_c, 4, 61, 125
1, 2892, Note_on_c, 4, 64, 124
1, 3064, Note_off_c, 4, 64, 64
1, 3067, Note_on_c, 2, 71, 124
1, 3067, Note_on_c, 4, 56, 123
1, 3068, Note_on_c, 4, 64, 124
1, 3082, Note_off_c, 2, 76, 64
1, 3083, Note_off_c, 4, 61, 64
1, 3322, Note_off_c, 2, 71, 64
1, 3323, Note_off_c, 4, 56, 64
1, 3323, Note_on_c, 2, 73, 124
1, 3324, Note_on_c, 4, 57, 123
1, 3376, Note_off_c, 4, 64, 64
1, 3378, Note_on_c, 2, 71, 124
1, 3378, Note_on_c, 4, 56, 123
1, 3379, Note_on_c, 4, 64, 124
1, 3388, Note_off_c, 2, 73, 64
1, 3389, Note_off_c, 4, 57, 64
1, 3532, Note_off_c, 4, 64, 64
1, 3534, Note_on_c, 2, 74, 124
1, 3536, Note_on_c, 4, 59, 125
1, 3537, Note_on_c, 4, 64, 124
1, 3549, Note_off_c, 4, 56, 64
1, 3549, Note_off_c, 2, 71, 64
1, 3822, Note_off_c, 2, 74, 64
1, 3823, Note_off_c, 4, 59, 64
1, 3824, Note_off_c, 4, 64, 64
1, 3825, Note_on_c, 2, 74, 124
1, 3826, Note_on_c, 4, 59, 125
1, 3828, Note_on_c, 4, 64, 124
1, 3980, Note_off_c, 4, 64, 64
1, 3980, Note_on_c, 2, 69, 127
1, 3982, Note_on_c, 4, 54, 123
1, 3984, Note_on_c, 4, 64, 124
1, 3995, Note_off_c, 2, 74, 64
1, 3996, Note_off_c, 4, 59, 64
1, 4272, Note_off_c, 2, 69, 64
1, 4273, Note_off_c, 4, 54, 64
1, 4275, Note_off_c, 4, 64, 64
1, 4276, Note_on_c, 2, 69, 127
1, 4277, Note_on_c, 4, 54, 124
1, 4279, Note_on_c, 4, 64, 124
1, 4427, Note_off_c, 4, 54, 64
1, 4429, Note_off_c, 4, 64, 64
1, 4429, Note_on_c, 2, 71, 127
1, 4431, Note_on_c, 4, 64, 124
1, 4431, Note_on_c, 4, 56, 124
1, 4440, Note_off_c, 2, 69, 64
1, 4717, Note_off_c, 2, 71, 64
1, 4717, Note_off_c, 4, 56, 64
1, 4720, Note_off_c, 4, 64, 64
1, 4720, Note_on_c, 2, 71, 127
1, 4723, Note_on_c, 4, 64, 124
1, 4723, Note_on_c, 4, 56, 124
1, 4870, Note_off_c, 4, 64, 64
1, 4872, Note_on_c, 2, 73, 127
1, 4872, Note_on_c, 4, 57, 124
1, 4873, Note_on_c, 4, 64, 124
1, 4885, Note_off_c, 2, 71, 64
1, 4891, Note_off_c, 4, 56, 64
1, 4908, Marker_t, "Copyright 1998-99 (P) S.D.Rodrian -  NOT to be reproduced or sold sans permission !"
1, 5158, Note_on_c, 2, 76, 127
1, 5159, Note_on_c, 2, 71, 127
1, 5159, Note_on_c, 4, 50, 124
1, 5160, Note_off_c, 4, 57, 64
1, 5160, Note_off_c, 2, 73, 64
1, 5203, Note_on_c, 2, 74, 127
1, 5215, Note_off_c, 2, 76, 64
1, 5340, Note_on_c, 4, 52, 124
1, 5340, Note_on_c, 2, 73, 127
1, 5340, Note_on_c, 2, 69, 127
1, 5352, Note_off_c, 2, 71, 64
1, 5352, Note_off_c, 2, 74, 64
1, 5353, Note_off_c, 4, 50, 64
1, 5606, Note_off_c, 2, 69, 64
1, 5606, Note_off_c, 2, 73, 64
1, 5609, Note_on_c, 2, 71, 127
1, 5610, Note_on_c, 2, 69, 127
1, 5775, Note_off_c, 4, 64, 64
1, 5785, Note_on_c, 2, 73, 127
1, 5785, Note_on_c, 4, 57, 124
1, 5787, Note_on_c, 4, 64, 124
1, 5800, Note_off_c, 4, 52, 64
1, 5802, Note_off_c, 2, 69, 64
1, 5803, Note_off_c, 2, 71, 64
1, 6037, Note_off_c, 2, 73, 64
1, 6038, Note_off_c, 4, 57, 64
1, 6038, Note_on_c, 2, 74, 127
1, 6039, Note_on_c, 4, 59, 126
1, 6093, Note_off_c, 4, 64, 64
1, 6094, Note_on_c, 2, 73, 127
1, 6094, Note_on_c, 4, 57, 124
1, 6095, Note_on_c, 4, 64, 124
1, 6104, Note_off_c, 4, 59, 64
1, 6104, Note_off_c, 2, 74, 64
1, 6268, Note_off_c, 4, 64, 64
1, 6268, Note_on_c, 2, 76, 127
1, 6269, Note_on_c, 4, 61, 126
1, 6271, Note_on_c, 4, 64, 124
1, 6280, Note_off_c, 4, 57, 64
1, 6282, Note_off_c, 2, 73, 64
1, 6541, Note_off_c, 2, 76, 64
1, 6543, Note_off_c, 4, 61, 64
1, 6544, Note_off_c, 4, 64, 64
1, 6545, Note_on_c, 2, 76, 127
1, 6547, Note_on_c, 4, 61, 126
1, 6548, Note_on_c, 4, 64, 124
1, 6719, Note_off_c, 4, 64, 64
1, 6720, Note_on_c, 2, 71, 127
1, 6721, Note_on_c, 4, 56, 124
1, 6723, Note_on_c, 4, 64, 124
1, 6732, Note_off_c, 2, 76, 64
1, 6738, Note_off_c, 4, 61, 64
1, 6951, Note_off_c, 2, 71, 64
1, 6952, Note_off_c, 4, 56, 64
1, 6952, Note_on_c, 2, 73, 127
1, 6953, Note_on_c, 4, 57, 124
1, 7011, Note_off_c, 4, 64, 64
1, 7011, Note_on_c, 2, 71, 127
1, 7014, Note_on_c, 4, 64, 124
1, 7014, Note_on_c, 4, 56, 124
1, 7024, Note_off_c, 2, 73, 64
1, 7025, Note_off_c, 4, 57, 64
1, 7173, Note_off_c, 4, 64, 64
1, 7175, Note_on_c, 2, 74, 127
1, 7176, Note_on_c, 4, 64, 124
1, 7176, Note_on_c, 4, 59, 126
1, 7184, Note_off_c, 2, 71, 64
1, 7189, Note_off_c, 4, 56, 64
1, 7452, Note_off_c, 2, 74, 64
1, 7453, Note_off_c, 4, 59, 64
1, 7454, Note_off_c, 4, 64, 64
1, 7457, Note_on_c, 2, 74, 127
1, 7457, Note_on_c, 4, 59, 126
1, 7458, Note_on_c, 4, 64, 124
1, 7619, Note_off_c, 4, 64, 64
1, 7620, Note_on_c, 2, 69, 127
1, 7620, Note_on_c, 4, 54, 124
1, 7622, Note_on_c, 4, 64, 124
1, 7632, Note_off_c, 2, 74, 64
1, 7638, Note_off_c, 4, 59, 64
1, 7903, Note_off_c, 4, 64, 64
1, 7905, Note_on_c, 2, 71, 127
1, 7906, Note_on_c, 4, 64, 124
1, 7906, Note_on_c, 4, 56, 124
1, 7909, Note_off_c, 2, 69, 64
1, 7910, Note_off_c, 4, 54, 64
1, 8047, Note_off_c, 4, 64, 64
1, 8048, Note_on_c, 2, 73, 127
1, 8049, Note_on_c, 4, 57, 124
1, 8051, Note_on_c, 4, 64, 124
1, 8061, Note_off_c, 2, 71, 64
1, 8063, Note_off_c, 4, 56, 64
1, 8333, Note_on_c, 2, 74, 127
1, 8334, Note_on_c, 2, 71, 127
1, 8334, Note_on_c, 4, 50, 124
1, 8335, Note_on_c, 4, 66, 127
1, 8337, Note_off_c, 2, 73, 64
1, 8338, Note_off_c, 4, 57, 64
1, 8339, Note_off_c, 4, 64, 64
1, 8481, Note_on_c, 2, 73, 127
1, 8482, Note_on_c, 2, 69, 127
1, 8482, Note_on_c, 4, 52, 124
1, 8484, Note_on_c, 4, 64, 124
1, 8496, Note_off_c, 2, 74, 64
1, 8496, Note_off_c, 4, 50, 64
1, 8496, Note_off_c, 2, 71, 64
1, 8497, Note_off_c, 4, 66, 64
1, 8757, Note_off_c, 2, 69, 64
1, 8759, Note_off_c, 4, 64, 64
1, 8768, Note_on_c, 2, 71, 127
1, 8769, Note_on_c, 2, 69, 127
1, 8769, Note_on_c, 4, 62, 125
1, 8770, Note_on_c, 4, 64, 124
1, 8770, Note_on_c, 4, 40, 122
1, 8774, Note_off_c, 2, 73, 64
1, 8774, Note_off_c, 4, 52, 64
1, 8919, Note_off_c, 2, 69, 64
1, 8921, Note_off_c, 4, 64, 64
1, 8932, Note_on_c, 2, 69, 127
1, 8933, Note_on_c, 4, 45, 122
1, 8933, Note_on_c, 4, 61, 126
1, 8934, Note_on_c, 4, 64, 124
1, 8946, Note_off_c, 2, 71, 64
1, 8950, Note_off_c, 4, 62, 64
1, 8950, Note_off_c, 4, 40, 64
1, 9402, Note_off_c, 4, 64, 64
1, 9406, Note_off_c, 2, 69, 64
1, 9406, Note_off_c, 4, 61, 64
1, 9407, Note_on_c, 2, 73, 127
1, 9410, Note_on_c, 4, 64, 114
1, 9411, Note_on_c, 4, 57, 127
1, 9663, Note_off_c, 2, 73, 64
1, 9663, Note_on_c, 2, 74, 127
1, 9664, Note_off_c, 4, 57, 64
1, 9664, Note_on_c, 4, 59, 126
1, 9727, Note_off_c, 4, 64, 64
1, 9728, Note_on_c, 2, 73, 127
1, 9730, Note_on_c, 4, 57, 124
1, 9731, Note_on_c, 4, 64, 124
1, 9741, Note_off_c, 2, 74, 64
1, 9743, Note_off_c, 4, 59, 64
1, 9885, Note_off_c, 4, 64, 64
1, 9887, Note_on_c, 2, 76, 127
1, 9888, Note_on_c, 4, 64, 124
1, 9888, Note_on_c, 4, 61, 126
1, 9898, Note_off_c, 2, 73, 64
1, 9898, Note_off_c, 4, 57, 64
1, 10160, Note_off_c, 2, 76, 64
1, 10160, Note_off_c, 4, 61, 64
1, 10161, Note_off_c, 4, 64, 64
1, 10164, Note_on_c, 2, 76, 127
1, 10164, Note_on_c, 4, 61, 126
1, 10165, Note_on_c, 4, 64, 124
1, 10330, Note_off_c, 4, 64, 64
1, 10331, Note_on_c, 2, 71, 127
1, 10332, Note_on_c, 4, 64, 124
1, 10332, Note_on_c, 4, 56, 124
1, 10346, Note_off_c, 2, 76, 64
1, 10347, Note_off_c, 4, 61, 64
1, 10596, Note_off_c, 2, 71, 64
1, 10596, Note_off_c, 4, 56, 64
1, 10596, Note_on_c, 2, 73, 127
1, 10597, Note_on_c, 4, 57, 124
1, 10651, Note_off_c, 4, 64, 64
1, 10653, Note_on_c, 2, 71, 127
1, 10654, Note_on_c, 4, 56, 124
1, 10655, Note_on_c, 4, 64, 124
1, 10665, Note_off_c, 4, 57, 64
1, 10665, Note_off_c, 2, 73, 64
1, 10680, Marker_t, "This file may be freely distributed on the WWW, as long as it's not modified. SDR"
1, 10812, Note_off_c, 4, 64, 64
1, 10812, Note_on_c, 2, 74, 127
1, 10812, Note_on_c, 4, 59, 126
1, 10814, Note_on_c, 4, 64, 124
1, 10822, Note_off_c, 2, 71, 64
1, 10824, Note_off_c, 4, 56, 64
1, 11097, Note_off_c, 4, 59, 64
1, 11097, Note_off_c, 2, 74, 64
1, 11098, Note_off_c, 4, 64, 64
1, 11098, Note_on_c, 2, 74, 127
1, 11100, Note_on_c, 4, 59, 126
1, 11101, Note_on_c, 4, 64, 124
1, 11255, Note_off_c, 4, 64, 64
1, 11256, Note_on_c, 2, 69, 127
1, 11257, Note_on_c, 4, 54, 124
1, 11259, Note_on_c, 4, 64, 124
1, 11270, Note_off_c, 2, 74, 64
1, 11271, Note_off_c, 4, 59, 64
1, 11546, Note_off_c, 2, 69, 64
1, 11550, Note_off_c, 4, 54, 64
1, 11550, Note_off_c, 4, 64, 64
1, 11550, Note_on_c, 2, 69, 127
1, 11550, Note_on_c, 4, 54, 124
1, 11554, Note_on_c, 4, 64, 124
1, 11696, Note_off_c, 4, 64, 64
1, 11696, Note_off_c, 4, 54, 64
1, 11698, Note_on_c, 2, 71, 127
1, 11698, Note_on_c, 4, 56, 124
1, 11700, Note_on_c, 4, 64, 124
1, 11707, Note_off_c, 2, 69, 64
1, 11978, Note_off_c, 2, 71, 64
1, 11980, Note_off_c, 4, 56, 64
1, 11980, Note_off_c, 4, 64, 64
1, 11981, Note_on_c, 2, 71, 127
1, 11983, Note_on_c, 4, 56, 124
1, 11985, Note_on_c, 4, 64, 124
1, 12129, Note_off_c, 4, 64, 64
1, 12131, Note_on_c, 2, 73, 127
1, 12132, Note_on_c, 4, 64, 124
1, 12132, Note_on_c, 4, 57, 124
1, 12144, Note_off_c, 2, 71, 64
1, 12150, Note_off_c, 4, 56, 64
1, 12417, Note_on_c, 2, 76, 127
1, 12418, Note_on_c, 2, 71, 127
1, 12418, Note_on_c, 4, 50, 124
1, 12420, Note_off_c, 2, 73, 64
1, 12420, Note_off_c, 4, 57, 64
1, 12460, Note_on_c, 2, 74, 127
1, 12468, Note_off_c, 2, 76, 64
1, 12595, Note_on_c, 2, 73, 127
1, 12595, Note_on_c, 2, 69, 127
1, 12596, Note_on_c, 4, 52, 124
1, 12607, Note_off_c, 2, 74, 64
1, 12608, Note_off_c, 4, 50, 64
1, 12608, Note_off_c, 2, 71, 64
1, 12720, Note_off_c, 4, 45, 64
1, 12860, Note_off_c, 2, 69, 64
1, 12860, Note_off_c, 2, 73, 64
1, 12863, Note_on_c, 2, 71, 127
1, 12863, Note_on_c, 2, 69, 127
1, 13014, Note_off_c, 4, 64, 64
1, 13030, Note_on_c, 2, 73, 127
1, 13030, Note_on_c, 4, 57, 124
1, 13032, Note_on_c, 4, 64, 124
1, 13043, Note_off_c, 4, 52, 64
1, 13047, Note_off_c, 2, 69, 64
1, 13047, Note_off_c, 2, 71, 64
1, 13261, Note_off_c, 2, 73, 64
1, 13261, Note_on_c, 2, 74, 127
1, 13262, Note_off_c, 4, 57, 64
1, 13262, Note_on_c, 4, 59, 126
1, 13317, Note_off_c, 4, 64, 64
1, 13317, Note_on_c, 2, 73, 127
1, 13318, Note_on_c, 4, 57, 124
1, 13320, Note_on_c, 4, 64, 124
1, 13327, Note_off_c, 2, 74, 64
1, 13328, Note_off_c, 4, 59, 64
1, 13487, Note_off_c, 4, 64, 64
1, 13487, Note_on_c, 2, 76, 127
1, 13488, Note_on_c, 4, 61, 126
1, 13490, Note_on_c, 4, 64, 124
1, 13500, Note_off_c, 4, 57, 64
1, 13502, Note_off_c, 2, 73, 64
1, 13761, Note_off_c, 2, 76, 64
1, 13763, Note_off_c, 4, 61, 64
1, 13764, Note_off_c, 4, 64, 64
1, 13765, Note_on_c, 2, 76, 127
1, 13765, Note_on_c, 4, 61, 126
1, 13767, Note_on_c, 4, 64, 124
1, 13922, Note_off_c, 4, 64, 64
1, 13923, Note_on_c, 2, 71, 127
1, 13923, Note_on_c, 4, 56, 124
1, 13925, Note_on_c, 4, 64, 124
1, 13937, Note_off_c, 2, 76, 64
1, 13941, Note_off_c, 4, 61, 64
1, 14156, Note_off_c, 2, 71, 64
1, 14157, Note_on_c, 2, 73, 127
1, 14158, Note_off_c, 4, 56, 64
1, 14158, Note_on_c, 4, 57, 124
1, 14214, Note_off_c, 4, 64, 64
1, 14215, Note_on_c, 2, 71, 127
1, 14217, Note_on_c, 4, 56, 124
1, 14218, Note_on_c, 4, 64, 124
1, 14228, Note_off_c, 2, 73, 64
1, 14228, Note_off_c, 4, 57, 64
1, 14376, Note_off_c, 4, 64, 64
1, 14379, Note_on_c, 2, 74, 127
1, 14379, Note_on_c, 4, 59, 126
1, 14380, Note_on_c, 4, 64, 124
1, 14389, Note_off_c, 2, 71, 64
1, 14393, Note_off_c, 4, 56, 64
1, 14656, Note_off_c, 4, 59, 64
1, 14656, Note_off_c, 2, 74, 64
1, 14658, Note_off_c, 4, 64, 64
1, 14660, Note_on_c, 2, 74, 127
1, 14661, Note_on_c, 4, 59, 126
1, 14663, Note_on_c, 4, 64, 124
1, 14815, Note_off_c, 4, 64, 64
1, 14815, Note_on_c, 2, 69, 127
1, 14816, Note_on_c, 4, 54, 124
1, 14819, Note_on_c, 4, 64, 124
1, 14828, Note_off_c, 2, 74, 64
1, 14833, Note_off_c, 4, 59, 64
1, 15104, Note_off_c, 4, 64, 64
1, 15105, Note_on_c, 2, 71, 127
1, 15106, Note_on_c, 4, 56, 124
1, 15108, Note_on_c, 4, 64, 124
1, 15111, Note_off_c, 2, 69, 64
1, 15111, Note_off_c, 4, 54, 64
1, 15254, Note_off_c, 4, 64, 64
1, 15256, Note_on_c, 2, 73, 127
1, 15257, Note_on_c, 4, 57, 124
1, 15258, Note_on_c, 4, 64, 124
1, 15268, Note_off_c, 2, 71, 64
1, 15270, Note_off_c, 4, 56, 64
1, 15504, Marker_t, "SDRodrian@aol.com  626 Lalor Trenton NJ 08611 http://members.aol.com/sdrodrian"
1, 15536, Note_on_c, 2, 74, 127
1, 15536, Note_on_c, 2, 71, 127
1, 15537, Note_on_c, 4, 50, 124
1, 15539, Note_on_c, 4, 66, 127
1, 15540, Note_off_c, 2, 73, 64
1, 15541, Note_off_c, 4, 57, 64
1, 15543, Note_off_c, 4, 64, 64
1, 15682, Note_on_c, 2, 73, 127
1, 15682, Note_on_c, 2, 69, 127
1, 15683, Note_on_c, 4, 52, 124
1, 15684, Note_on_c, 4, 64, 124
1, 15694, Note_off_c, 2, 71, 64
1, 15695, Note_off_c, 2, 74, 64
1, 15697, Note_off_c, 4, 50, 64
1, 15697, Note_off_c, 4, 66, 64
1, 15957, Note_off_c, 2, 69, 64
1, 15959, Note_off_c, 4, 64, 64
1, 15969, Note_on_c, 2, 71, 127
1, 15969, Note_on_c, 2, 69, 127
1, 15970, Note_on_c, 4, 62, 125
1, 15970, Note_on_c, 4, 40, 122
1, 15971, Note_on_c, 4, 64, 124
1, 15974, Note_off_c, 2, 73, 64
1, 15975, Note_off_c, 4, 52, 64
1, 16119, Note_off_c, 2, 69, 64
1, 16123, Note_off_c, 4, 64, 64
1, 16135, Note_on_c, 2, 69, 127
1, 16135, Note_on_c, 4, 61, 126
1, 16136, Note_on_c, 4, 45, 122
1, 16137, Note_on_c, 4, 64, 124
1, 16150, Note_off_c, 2, 71, 64
1, 16156, Note_off_c, 4, 40, 64
1, 16156, Note_off_c, 4, 62, 64
1, 16564, Note_off_c, 4, 64, 64
1, 16570, Note_off_c, 4, 61, 64
1, 16570, Note_off_c, 2, 69, 64
1, 16571, Note_on_c, 2, 76, 124
1, 16571, Note_on_c, 4, 57, 124
1, 16731, Note_on_c, 4, 61, 126
1, 16806, Note_off_c, 2, 76, 64
1, 16810, Note_on_c, 1, 78, 124
1, 16887, Note_on_c, 2, 76, 124
1, 16888, Note_off_c, 4, 57, 64
1, 16889, Note_on_c, 4, 64, 124
1, 16899, Note_off_c, 1, 78, 64
1, 16901, Note_off_c, 4, 61, 64
1, 17045, Note_on_c, 1, 78, 124
1, 17046, Note_on_c, 4, 57, 124
1, 17061, Note_off_c, 2, 76, 64
1, 17197, Note_off_c, 4, 64, 64
1, 17205, Note_on_c, 4, 62, 125
1, 17361, Note_off_c, 1, 78, 64
1, 17365, Note_off_c, 4, 57, 64
1, 17365, Note_on_c, 1, 78, 124
1, 17366, Note_on_c, 4, 66, 127
1, 17379, Note_off_c, 4, 62, 64
1, 17521, Note_off_c, 1, 78, 64
1, 17525, Note_on_c, 1, 78, 121
1, 17526, Note_on_c, 4, 57, 124
1, 17565, Note_on_c, 1, 80, 121
1, 17582, Note_off_c, 1, 78, 64
1, 17607, Note_on_c, 1, 81, 121
1, 17618, Note_off_c, 1, 80, 64
1, 17682, Note_off_c, 4, 66, 64
1, 17689, Note_on_c, 4, 62, 125
1, 17766, Note_off_c, 1, 81, 64
1, 17767, Note_on_c, 1, 80, 119
1, 17840, Note_on_c, 1, 78, 119
1, 17841, Note_off_c, 4, 57, 64
1, 17841, Note_on_c, 4, 66, 127
1, 17851, Note_off_c, 1, 80, 64
1, 17853, Note_off_c, 4, 62, 64
1, 17989, Note_off_c, 1, 78, 64
1, 17993, Note_on_c, 1, 78, 122
1, 17995, Note_on_c, 4, 57, 124
1, 18144, Note_off_c, 4, 66, 64
1, 18150, Note_on_c, 2, 76, 124
1, 18151, Note_on_c, 4, 61, 126
1, 18168, Note_off_c, 1, 78, 64
1, 18302, Note_off_c, 2, 76, 64
1, 18304, Note_off_c, 4, 57, 64
1, 18304, Note_on_c, 2, 76, 127
1, 18305, Note_on_c, 4, 64, 124
1, 18317, Note_off_c, 4, 61, 64
1, 18454, Note_off_c, 2, 76, 64
1, 18454, Note_on_c, 2, 76, 127
1, 18455, Note_on_c, 4, 57, 124
1, 18456, Note_on_c, 4, 61, 126
1, 18491, Note_off_c, 4, 64, 64
1, 18599, Note_on_c, 2, 73, 127
1, 18616, Note_off_c, 2, 76, 64
1, 18739, Note_on_c, 2, 69, 127
1, 18754, Note_off_c, 2, 73, 64
1, 18885, Note_on_c, 4, 56, 124
1, 18885, Note_on_c, 2, 76, 127
1, 18887, Note_on_c, 4, 62, 125
1, 18910, Note_off_c, 4, 57, 64
1, 18910, Note_off_c, 4, 61, 64
1, 19026, Note_off_c, 2, 69, 64
1, 19032, Note_on_c, 2, 74, 127
1, 19047, Note_off_c, 2, 76, 64
1, 19166, Note_on_c, 2, 71, 127
1, 19181, Note_off_c, 2, 74, 64
1, 19314, Note_on_c, 2, 76, 127
1, 19316, Note_on_c, 4, 57, 124
1, 19318, Note_on_c, 4, 61, 126
1, 19343, Note_off_c, 4, 56, 64
1, 19344, Note_off_c, 4, 62, 64
1, 19444, Note_off_c, 2, 71, 64
1, 19451, Note_on_c, 2, 73, 127
1, 19465, Note_off_c, 2, 76, 64
1, 19589, Note_on_c, 2, 69, 127
1, 19589, Note_on_c, 4, 54, 127
1, 19590, Note_on_c, 4, 63, 127
1, 19594, Note_off_c, 4, 57, 64
1, 19596, Note_off_c, 4, 61, 64
1, 19606, Note_off_c, 2, 73, 64
1, 19742, Note_off_c, 2, 69, 64
1, 19746, Note_on_c, 2, 73, 127
1, 19747, Note_off_c, 4, 54, 64
1, 19747, Note_on_c, 2, 69, 127
1, 19748, Note_off_c, 4, 63, 64
1, 19748, Note_on_c, 4, 52, 127
1, 19749, Note_on_c, 4, 64, 127
1, 20025, Note_off_c, 2, 69, 64
1, 20027, Note_on_c, 2, 71, 127
1, 20027, Note_on_c, 2, 69, 127
1, 20031, Note_off_c, 2, 73, 64
1, 20187, Note_off_c, 4, 64, 64
1, 20189, Note_off_c, 4, 52, 64
1, 20189, Note_on_c, 2, 73, 127
1, 20190, Note_on_c, 4, 64, 124
1, 20190, Note_on_c, 4, 57, 124
1, 20202, Note_off_c, 2, 71, 64
1, 20206, Note_off_c, 2, 69, 64
1, 20429, Note_off_c, 2, 73, 64
1, 20429, Note_on_c, 2, 74, 127
1, 20430, Note_off_c, 4, 57, 64
1, 20430, Note_on_c, 4, 59, 126
1, 20481, Note_off_c, 4, 64, 64
1, 20483, Note_on_c, 2, 73, 127
1, 20484, Note_on_c, 4, 57, 124
1, 20485, Note_on_c, 4, 64, 124
1, 20496, Note_off_c, 2, 74, 64
1, 20498, Note_off_c, 4, 59, 64
1, 20644, Note_off_c, 4, 64, 64
1, 20645, Note_on_c, 2, 76, 127
1, 20645, Note_on_c, 4, 61, 126
1, 20647, Note_off_c, 2, 73, 64
1, 20647, Note_on_c, 4, 64, 124
1, 20658, Note_off_c, 4, 57, 64
1, 20772, Marker_t, "1121 Deutz Ave Trenton NJ 08611 http://www.geocities.com/Paris/LeftBank/3214"
1, 20916, Note_off_c, 4, 61, 64
1, 20916, Note_off_c, 2, 76, 64
1, 20916, Note_off_c, 4, 64, 64
1, 20918, Note_on_c, 2, 76, 127
1, 20919, Note_on_c, 4, 64, 124
1, 20919, Note_on_c, 4, 61, 126
1, 21081, Note_off_c, 4, 64, 64
1, 21083, Note_on_c, 2, 71, 127
1, 21083, Note_on_c, 4, 56, 124
1, 21086, Note_on_c, 4, 64, 124
1, 21096, Note_off_c, 4, 61, 64
1, 21096, Note_off_c, 2, 76, 64
1, 21336, Note_off_c, 2, 71, 64
1, 21336, Note_on_c, 2, 73, 127
1, 21337, Note_off_c, 4, 56, 64
1, 21337, Note_on_c, 4, 57, 124
1, 21394, Note_on_c, 2, 71, 127
1, 21395, Note_on_c, 4, 56, 124
1, 21405, Note_off_c, 2, 73, 64
1, 21406, Note_off_c, 4, 57, 64
1, 21541, Note_off_c, 4, 64, 64
1, 21544, Note_on_c, 2, 74, 127
1, 21545, Note_on_c, 4, 59, 126
1, 21546, Note_on_c, 4, 64, 124
1, 21554, Note_off_c, 2, 71, 64
1, 21556, Note_off_c, 4, 56, 64
1, 21827, Note_off_c, 2, 74, 64
1, 21827, Note_off_c, 4, 59, 64
1, 21828, Note_off_c, 4, 64, 64
1, 21830, Note_on_c, 2, 74, 127
1, 21830, Note_on_c, 4, 59, 126
1, 21831, Note_on_c, 4, 64, 124
1, 21979, Note_off_c, 4, 64, 64
1, 21982, Note_on_c, 2, 69, 127
1, 21982, Note_on_c, 4, 54, 124
1, 21984, Note_on_c, 4, 64, 124
1, 21995, Note_off_c, 2, 74, 64
1, 21996, Note_off_c, 4, 59, 64
1, 22263, Note_off_c, 4, 64, 64
1, 22264, Note_on_c, 2, 71, 127
1, 22266, Note_on_c, 4, 56, 124
1, 22268, Note_on_c, 4, 64, 124
1, 22270, Note_off_c, 2, 69, 64
1, 22272, Note_off_c, 4, 54, 64
1, 22364, Note_off_c, 4, 45, 64
1, 22416, Note_off_c, 4, 64, 64
1, 22416, Note_on_c, 2, 73, 127
1, 22418, Note_on_c, 4, 57, 124
1, 22419, Note_on_c, 4, 64, 124
1, 22429, Note_off_c, 2, 71, 64
1, 22435, Note_off_c, 4, 56, 64
1, 22702, Note_off_c, 4, 64, 64
1, 22702, Note_on_c, 2, 74, 127
1, 22703, Note_on_c, 2, 71, 127
1, 22703, Note_on_c, 4, 66, 127
1, 22704, Note_on_c, 4, 50, 124
1, 22705, Note_off_c, 2, 73, 64
1, 22707, Note_off_c, 4, 57, 64
1, 22844, Note_on_c, 2, 73, 127
1, 22844, Note_on_c, 2, 69, 127
1, 22845, Note_on_c, 4, 64, 124
1, 22845, Note_on_c, 4, 52, 124
1, 22856, Note_off_c, 2, 71, 64
1, 22857, Note_off_c, 2, 74, 64
1, 22857, Note_off_c, 4, 50, 64
1, 22858, Note_off_c, 4, 66, 64
1, 23138, Note_off_c, 2, 69, 64
1, 23140, Note_off_c, 4, 64, 64
1, 23141, Note_on_c, 2, 71, 127
1, 23141, Note_on_c, 2, 69, 127
1, 23142, Note_on_c, 4, 40, 122
1, 23144, Note_on_c, 4, 64, 124
1, 23146, Note_off_c, 2, 73, 64
1, 23147, Note_off_c, 4, 52, 64
1, 23284, Note_off_c, 2, 69, 64
1, 23285, Note_off_c, 2, 71, 64
1, 23285, Note_off_c, 4, 64, 64
1, 23287, Note_on_c, 2, 71, 127
1, 23288, Note_on_c, 2, 69, 127
1, 23288, Note_on_c, 4, 45, 122
1, 23289, Note_on_c, 4, 64, 124
1, 23304, Note_off_c, 4, 40, 64
1, 23571, Note_off_c, 2, 71, 64
1, 23571, Note_off_c, 2, 69, 64
1, 23573, Note_on_c, 2, 73, 127
1, 23574, Note_on_c, 2, 69, 127
1, 23737, Note_off_c, 2, 69, 64
1, 23738, Note_off_c, 2, 73, 64
1, 23738, Note_off_c, 4, 45, 64
1, 23739, Note_off_c, 4, 64, 64
1, 23741, Note_on_c, 2, 73, 127
1, 23742, Note_on_c, 2, 69, 127
1, 23742, Note_on_c, 4, 57, 124
1, 23743, Note_on_c, 4, 64, 124
1, 23743, Note_on_c, 4, 45, 122
1, 24039, Note_off_c, 2, 69, 64
1, 24041, Note_off_c, 4, 64, 64
1, 24042, Note_on_c, 2, 74, 127
1, 24042, Note_on_c, 2, 69, 127
1, 24043, Note_on_c, 4, 59, 126
1, 24043, Note_on_c, 4, 47, 122
1, 24044, Note_on_c, 4, 64, 124
1, 24046, Note_off_c, 2, 73, 64
1, 24048, Note_off_c, 4, 57, 64
1, 24048, Note_off_c, 4, 45, 64
1, 24189, Note_off_c, 2, 69, 64
1, 24191, Note_off_c, 4, 64, 64
1, 24193, Note_on_c, 2, 76, 127
1, 24193, Note_on_c, 2, 69, 127
1, 24194, Note_on_c, 4, 61, 126
1, 24194, Note_on_c, 4, 49, 124
1, 24194, Note_on_c, 4, 64, 124
1, 24204, Note_off_c, 2, 74, 64
1, 24206, Note_off_c, 4, 47, 64
1, 24206, Note_off_c, 4, 59, 64
1, 24476, Note_off_c, 2, 69, 64
1, 24476, Note_off_c, 4, 64, 64
1, 24478, Note_on_c, 1, 78, 127
1, 24480, Note_on_c, 4, 62, 125
1, 24480, Note_on_c, 4, 50, 124
1, 24484, Note_off_c, 2, 76, 64
1, 24485, Note_off_c, 4, 49, 64
1, 24485, Note_off_c, 4, 61, 64
1, 24561, Note_on_c, 1, 80, 127
1, 24584, Note_off_c, 1, 78, 64
1, 24597, Note_on_c, 1, 81, 127
1, 24612, Note_off_c, 1, 80, 64
1, 24647, Note_on_c, 2, 69, 127
1, 24648, Note_on_c, 4, 52, 124
1, 24648, Note_on_c, 4, 61, 126
1, 24661, Note_off_c, 4, 50, 64
1, 24662, Note_off_c, 4, 62, 64
1, 24680, Note_off_c, 1, 81, 64
1, 24920, Note_off_c, 2, 69, 64
1, 24929, Note_off_c, 4, 61, 64
1, 24931, Note_on_c, 2, 73, 127
1, 24932, Note_on_c, 2, 69, 127
1, 24932, Note_on_c, 4, 62, 125
1, 24933, Note_on_c, 4, 52, 124
1, 25014, Note_off_c, 2, 73, 64
1, 25020, Note_on_c, 2, 71, 127
1, 25077, Note_off_c, 2, 69, 64
1, 25087, Note_off_c, 2, 71, 64
1, 25091, Note_on_c, 2, 69, 127
1, 25092, Note_on_c, 4, 61, 126
1, 25093, Note_on_c, 4, 57, 124
1, 25105, Note_off_c, 4, 62, 64
1, 25510, Note_off_c, 4, 57, 64
1, 25520, Note_off_c, 2, 69, 64
1, 25520, Note_on_c, 2, 76, 121
1, 25521, Note_on_c, 4, 57, 124
1, 25574, Note_off_c, 4, 61, 64
1, 25680, Note_on_c, 4, 61, 126
1, 25755, Note_off_c, 2, 76, 64
1, 25759, Note_on_c, 1, 78, 121
1, 25836, Note_on_c, 2, 76, 121
1, 25837, Note_off_c, 4, 57, 64
1, 25838, Note_on_c, 4, 64, 124
1, 25848, Note_off_c, 1, 78, 64
1, 25850, Note_off_c, 4, 61, 64
1, 25998, Note_on_c, 1, 78, 121
1, 25998, Note_on_c, 4, 57, 124
1, 26014, Note_off_c, 2, 76, 64
1, 26150, Note_off_c, 4, 64, 64
1, 26158, Note_on_c, 4, 62, 125
1, 26314, Note_off_c, 1, 78, 64
1, 26318, Note_off_c, 4, 57, 64
1, 26318, Note_on_c, 1, 78, 121
1, 26319, Note_on_c, 4, 66, 127
1, 26332, Note_off_c, 4, 62, 64
1, 26472, Note_off_c, 1, 78, 64
1, 26478, Note_on_c, 1, 78, 121
1, 26479, Note_on_c, 4, 57, 124
1, 26517, Note_on_c, 1, 80, 121
1, 26533, Note_off_c, 1, 78, 64
1, 26560, Note_on_c, 1, 81, 121
1, 26571, Note_off_c, 1, 80, 64
1, 26634, Note_off_c, 4, 66, 64
1, 26642, Note_on_c, 4, 62, 125
1, 26719, Note_off_c, 1, 81, 64
1, 26720, Note_on_c, 1, 80, 116
1, 26793, Note_on_c, 1, 78, 116
1, 26794, Note_off_c, 4, 57, 64
1, 26794, Note_on_c, 4, 66, 127
1, 26804, Note_off_c, 1, 80, 64
1, 26806, Note_off_c, 4, 62, 64
1, 26942, Note_off_c, 1, 78, 64
1, 26946, Note_on_c, 1, 78, 116
1, 26948, Note_on_c, 4, 57, 124
1, 27092, Note_off_c, 4, 66, 64
1, 27097, Note_on_c, 2, 76, 121
1, 27099, Note_on_c, 4, 61, 126
1, 27117, Note_off_c, 1, 78, 64
1, 27251, Note_off_c, 2, 76, 64
1, 27252, Note_on_c, 2, 76, 121
1, 27254, Note_off_c, 4, 57, 64
1, 27254, Note_on_c, 4, 64, 124
1, 27264, Note_off_c, 4, 61, 64
1, 27401, Note_off_c, 2, 76, 64
1, 27401, Note_on_c, 2, 76, 124
1, 27403, Note_on_c, 4, 57, 124
1, 27405, Note_on_c, 4, 61, 126
1, 27443, Note_off_c, 4, 64, 64
1, 27548, Note_on_c, 2, 73, 127
1, 27563, Note_off_c, 2, 76, 64
1, 27684, Note_on_c, 2, 69, 127
1, 27701, Note_off_c, 2, 73, 64
1, 27834, Note_on_c, 4, 56, 124
1, 27834, Note_on_c, 2, 76, 127
1, 27836, Note_on_c, 4, 62, 125
1, 27859, Note_off_c, 4, 57, 64
1, 27859, Note_off_c, 4, 61, 64
1, 27971, Note_off_c, 2, 69, 64
1, 27977, Note_on_c, 2, 74, 127
1, 27992, Note_off_c, 2, 76, 64
1, 28115, Note_on_c, 2, 71, 127
1, 28130, Note_off_c, 2, 74, 64
1, 28264, Note_on_c, 2, 76, 127
1, 28266, Note_on_c, 4, 57, 124
1, 28267, Note_on_c, 4, 61, 126
1, 28293, Note_off_c, 4, 56, 64
1, 28293, Note_off_c, 4, 62, 64
1, 28392, Note_off_c, 2, 71, 64
1, 28400, Note_on_c, 2, 73, 127
1, 28416, Note_off_c, 2, 76, 64
1, 28482, Note_off_c, 4, 52, 64
1, 28482, Note_off_c, 4, 52, 64
1, 28538, Note_on_c, 2, 69, 127
1, 28539, Note_on_c, 4, 63, 127
1, 28539, Note_on_c, 4, 54, 127
1, 28545, Note_off_c, 4, 57, 64
1, 28546, Note_off_c, 4, 61, 64
1, 28556, Note_off_c, 2, 73, 64
1, 28692, Note_off_c, 2, 69, 64
1, 28696, Note_on_c, 2, 73, 127
1, 28697, Note_off_c, 4, 54, 64
1, 28697, Note_on_c, 4, 52, 127
1, 28697, Note_on_c, 2, 69, 127
1, 28698, Note_off_c, 4, 63, 64
1, 28698, Note_on_c, 4, 64, 127
1, 28989, Note_off_c, 2, 69, 64
1, 28993, Note_on_c, 2, 71, 127
1, 28993, Note_on_c, 2, 69, 127
1, 28997, Note_off_c, 2, 73, 64
1, 29139, Note_off_c, 4, 64, 64
1, 29140, Note_on_c, 2, 73, 127
1, 29141, Note_off_c, 4, 52, 64
1, 29142, Note_on_c, 4, 57, 122
1, 29144, Note_on_c, 4, 64, 124
1, 29154, Note_off_c, 2, 71, 64
1, 29158, Note_off_c, 2, 69, 64
1, 29390, Note_off_c, 2, 73, 64
1, 29391, Note_off_c, 4, 57, 64
1, 29391, Note_on_c, 2, 74, 127
1, 29392, Note_on_c, 4, 59, 124
1, 29446, Note_off_c, 4, 64, 64
1, 29447, Note_on_c, 2, 73, 127
1, 29448, Note_on_c, 4, 57, 122
1, 29450, Note_on_c, 4, 64, 124
1, 29461, Note_off_c, 2, 74, 64
1, 29462, Note_off_c, 4, 59, 64
1, 29604, Note_off_c, 4, 64, 64
1, 29606, Note_on_c, 2, 76, 127
1, 29607, Note_on_c, 4, 61, 124
1, 29608, Note_on_c, 4, 64, 124
1, 29610, Note_off_c, 2, 73, 64
1, 29620, Note_off_c, 4, 57, 64
1, 29883, Note_off_c, 2, 76, 64
1, 29885, Note_off_c, 4, 61, 64
1, 29885, Note_off_c, 4, 64, 64
1, 29887, Note_on_c, 2, 76, 127
1, 29889, Note_on_c, 4, 64, 124
1, 29889, Note_on_c, 4, 61, 124
1, 30041, Note_off_c, 4, 64, 64
1, 30042, Note_on_c, 2, 71, 127
1, 30044, Note_on_c, 4, 56, 122
1, 30046, Note_on_c, 4, 64, 124
1, 30056, Note_off_c, 2, 76, 64
1, 30058, Note_off_c, 4, 61, 64
1, 30297, Note_off_c, 2, 71, 64
1, 30298, Note_on_c, 2, 73, 127
1, 30299, Note_off_c, 4, 56, 64
1, 30299, Note_on_c, 4, 57, 122
1, 30355, Note_on_c, 2, 71, 127
1, 30356, Note_on_c, 4, 56, 122
1, 30366, Note_off_c, 2, 73, 64
1, 30368, Note_off_c, 4, 57, 64
1, 30504, Note_off_c, 4, 64, 64
1, 30504, Note_on_c, 2, 74, 127
1, 30506, Note_on_c, 4, 64, 124
1, 30506, Note_on_c, 4, 59, 124
1, 30516, Note_off_c, 2, 71, 64
1, 30516, Note_off_c, 4, 56, 64
1, 30786, Note_off_c, 2, 74, 64
1, 30788, Note_off_c, 4, 59, 64
1, 30789, Note_off_c, 4, 64, 64
1, 30791, Note_on_c, 2, 74, 127
1, 30792, Note_on_c, 4, 64, 124
1, 30792, Note_on_c, 4, 59, 124
1, 30942, Note_off_c, 4, 64, 64
1, 30943, Note_on_c, 2, 69, 127
1, 30943, Note_on_c, 4, 54, 122
1, 30945, Note_on_c, 4, 64, 124
1, 30957, Note_off_c, 4, 59, 64
1, 30957, Note_off_c, 2, 74, 64
1, 31224, Note_off_c, 4, 64, 64
1, 31226, Note_on_c, 2, 71, 127
1, 31227, Note_on_c, 4, 56, 122
1, 31228, Note_on_c, 4, 64, 124
1, 31232, Note_off_c, 4, 54, 64
1, 31232, Note_off_c, 2, 69, 64
1, 31376, Note_off_c, 4, 64, 64
1, 31377, Note_on_c, 2, 73, 127
1, 31378, Note_on_c, 4, 57, 122
1, 31380, Note_on_c, 4, 64, 124
1, 31390, Note_off_c, 2, 71, 64
1, 31395, Note_off_c, 4, 56, 64
1, 31662, Note_off_c, 4, 64, 64
1, 31663, Note_on_c, 2, 74, 127
1, 31663, Note_on_c, 2, 71, 127
1, 31664, Note_on_c, 4, 66, 127
1, 31664, Note_on_c, 4, 50, 122
1, 31668, Note_off_c, 2, 73, 64
1, 31668, Note_off_c, 4, 57, 64
1, 31806, Note_on_c, 2, 73, 127
1, 31806, Note_on_c, 2, 69, 127
1, 31807, Note_on_c, 4, 52, 122
1, 31809, Note_on_c, 4, 64, 124
1, 31821, Note_off_c, 2, 71, 64
1, 31821, Note_off_c, 2, 74, 64
1, 31822, Note_off_c, 4, 50, 64
1, 31822, Note_off_c, 4, 66, 64
1, 32101, Note_off_c, 2, 69, 64
1, 32103, Note_off_c, 4, 64, 64
1, 32103, Note_on_c, 2, 71, 127
1, 32104, Note_on_c, 2, 69, 127
1, 32105, Note_on_c, 4, 40, 120
1, 32107, Note_on_c, 4, 64, 124
1, 32109, Note_off_c, 2, 73, 64
1, 32111, Note_off_c, 4, 52, 64
1, 32247, Note_off_c, 2, 71, 64
1, 32247, Note_off_c, 2, 69, 64
1, 32250, Note_off_c, 4, 64, 64
1, 32250, Note_on_c, 2, 71, 127
1, 32251, Note_on_c, 4, 45, 120
1, 32251, Note_on_c, 2, 69, 127
1, 32252, Note_on_c, 4, 64, 124
1, 32267, Note_off_c, 4, 40, 64
1, 32532, Note_off_c, 2, 71, 64
1, 32532, Note_off_c, 2, 69, 64
1, 32537, Note_on_c, 2, 73, 127
1, 32537, Note_on_c, 2, 69, 127
1, 32699, Note_off_c, 2, 69, 64
1, 32700, Note_off_c, 2, 73, 64
1, 32702, Note_off_c, 4, 45, 64
1, 32702, Note_off_c, 4, 64, 64
1, 32703, Note_on_c, 2, 73, 127
1, 32703, Note_on_c, 2, 69, 127
1, 32706, Note_on_c, 4, 57, 120
1, 32706, Note_on_c, 4, 45, 118
1, 32707, Note_on_c, 4, 64, 122
1, 33001, Note_off_c, 2, 69, 64
1, 33003, Note_off_c, 4, 64, 64
1, 33005, Note_on_c, 2, 74, 127
1, 33006, Note_on_c, 2, 69, 127
1, 33006, Note_on_c, 4, 59, 122
1, 33007, Note_on_c, 4, 64, 122
1, 33007, Note_on_c, 4, 47, 118
1, 33009, Note_off_c, 2, 73, 64
1, 33011, Note_off_c, 4, 45, 64
1, 33012, Note_off_c, 4, 57, 64
1, 33152, Note_off_c, 2, 69, 64
1, 33154, Note_off_c, 4, 64, 64
1, 33156, Note_on_c, 2, 76, 127
1, 33156, Note_on_c, 2, 69, 127
1, 33157, Note_on_c, 4, 61, 122
1, 33157, Note_on_c, 4, 49, 120
1, 33158, Note_on_c, 4, 64, 122
1, 33168, Note_off_c, 2, 74, 64
1, 33169, Note_off_c, 4, 47, 64
1, 33170, Note_off_c, 4, 59, 64
1, 33437, Note_off_c, 2, 69, 64
1, 33439, Note_off_c, 4, 64, 64
1, 33442, Note_on_c, 1, 78, 127
1, 33443, Note_on_c, 4, 62, 121
1, 33444, Note_on_c, 4, 50, 120
1, 33448, Note_off_c, 2, 76, 64
1, 33448, Note_off_c, 4, 49, 64
1, 33449, Note_off_c, 4, 61, 64
1, 33522, Note_on_c, 1, 80, 127
1, 33547, Note_off_c, 1, 78, 64
1, 33561, Note_on_c, 1, 81, 127
1, 33576, Note_off_c, 1, 80, 64
1, 33609, Note_on_c, 2, 69, 127
1, 33610, Note_on_c, 4, 61, 124
1, 33611, Note_on_c, 4, 52, 122
1, 33625, Note_off_c, 4, 62, 64
1, 33625, Note_off_c, 4, 50, 64
1, 33641, Note_off_c, 1, 81, 64
1, 33883, Note_off_c, 2, 69, 64
1, 33892, Note_off_c, 4, 61, 64
1, 33894, Note_on_c, 2, 73, 127
1, 33894, Note_on_c, 2, 69, 127
1, 33895, Note_on_c, 4, 52, 122
1, 33895, Note_on_c, 4, 62, 123
1, 33978, Note_off_c, 2, 73, 64
1, 33982, Note_on_c, 2, 71, 127
1, 34040, Note_off_c, 2, 69, 64
1, 34049, Note_off_c, 2, 71, 64
1, 34053, Note_on_c, 2, 69, 127
1, 34055, Note_on_c, 4, 61, 124
1, 34056, Note_on_c, 4, 57, 122
1, 34068, Note_off_c, 4, 62, 64
1, 34068, Note_off_c, 4, 52, 64
1, 34473, Note_off_c, 4, 57, 64
1, 34482, Note_off_c, 4, 61, 64
1, 34483, Note_off_c, 2, 69, 64
1, 34483, Note_on_c, 2, 72, 125
1, 34570, Note_on_c, 2, 73, 125
1, 34577, Note_off_c, 2, 72, 64
1, 34644, Note_on_c, 4, 57, 123
1, 34645, Note_on_c, 4, 64, 125
1, 34718, Note_off_c, 2, 73, 64
1, 34722, Note_on_c, 2, 73, 125
1, 34801, Note_on_c, 2, 72, 125
1, 34809, Note_off_c, 2, 73, 64
1, 34870, Note_on_c, 2, 73, 125
1, 34878, Note_off_c, 2, 72, 64
1, 34947, Note_on_c, 2, 75, 125
1, 34955, Note_off_c, 2, 73, 64
1, 35026, Note_on_c, 2, 76, 125
1, 35033, Note_off_c, 2, 75, 64
1, 35100, Note_off_c, 4, 64, 64
1, 35104, Note_on_c, 4, 61, 125
1, 35106, Note_on_c, 4, 64, 125
1, 35118, Note_off_c, 4, 57, 64
1, 35179, Note_off_c, 2, 76, 64
1, 35184, Note_on_c, 2, 76, 125
1, 35256, Note_on_c, 1, 78, 125
1, 35264, Note_off_c, 2, 76, 64
1, 35337, Note_on_c, 2, 76, 125
1, 35344, Note_off_c, 1, 78, 64
1, 35406, Note_off_c, 2, 76, 64
1, 35410, Note_on_c, 2, 76, 125
1, 35490, Note_on_c, 2, 71, 125
1, 35498, Note_off_c, 2, 76, 64
1, 35563, Note_off_c, 4, 64, 64
1, 35568, Note_on_c, 4, 56, 123
1, 35569, Note_on_c, 4, 64, 125
1, 35588, Note_off_c, 4, 61, 64
1, 35628, Note_off_c, 2, 71, 64
1, 35639, Note_on_c, 2, 71, 125
1, 35704, Note_off_c, 2, 71, 64
1, 35712, Note_on_c, 2, 71, 125
1, 35781, Note_off_c, 2, 71, 64
1, 35789, Note_on_c, 2, 71, 125
1, 35868, Note_on_c, 2, 73, 125
1, 35881, Note_off_c, 2, 71, 64
1, 35945, Note_on_c, 2, 74, 125
1, 35958, Note_off_c, 2, 73, 64
1, 36017, Note_off_c, 4, 64, 64
1, 36022, Note_on_c, 4, 59, 125
1, 36023, Note_on_c, 4, 64, 125
1, 36035, Note_off_c, 4, 56, 64
1, 36087, Note_off_c, 2, 74, 64
1, 36099, Note_on_c, 2, 74, 125
1, 36127, Note_off_c, 4, 52, 64
1, 36175, Note_on_c, 2, 76, 125
1, 36189, Note_off_c, 2, 74, 64
1, 36252, Note_on_c, 2, 74, 125
1, 36265, Note_off_c, 2, 76, 64
1, 36323, Note_off_c, 2, 74, 64
1, 36329, Note_on_c, 2, 74, 125
1, 36408, Note_on_c, 2, 69, 125
1, 36415, Note_off_c, 2, 74, 64
1, 36477, Note_off_c, 4, 64, 64
1, 36482, Note_on_c, 4, 54, 123
1, 36483, Note_on_c, 4, 64, 125
1, 36495, Note_off_c, 4, 59, 64
1, 36541, Note_off_c, 2, 69, 64
1, 36554, Note_on_c, 2, 69, 125
1, 36620, Note_off_c, 2, 69, 64
1, 36627, Note_on_c, 2, 69, 125
1, 36698, Note_off_c, 2, 69, 64
1, 36706, Note_on_c, 2, 69, 125
1, 36785, Note_on_c, 2, 71, 125
1, 36798, Note_off_c, 2, 69, 64
1, 36854, Note_off_c, 2, 71, 64
1, 36864, Note_on_c, 2, 71, 125
1, 36937, Note_off_c, 4, 64, 64
1, 36943, Note_on_c, 4, 56, 123
1, 36944, Note_on_c, 4, 64, 125
1, 36958, Note_off_c, 4, 54, 64
1, 37009, Note_off_c, 2, 71, 64
1, 37021, Note_on_c, 2, 71, 125
1, 37090, Note_off_c, 2, 71, 64
1, 37098, Note_on_c, 2, 71, 125
1, 37167, Note_off_c, 2, 71, 64
1, 37175, Note_on_c, 2, 71, 125
1, 37246, Note_off_c, 2, 71, 64
1, 37248, Note_off_c, 4, 64, 64
1, 37251, Note_on_c, 2, 72, 125
1, 37253, Note_on_c, 4, 57, 123
1, 37254, Note_on_c, 4, 64, 125
1, 37259, Note_off_c, 4, 56, 64
1, 37324, Note_on_c, 2, 73, 125
1, 37332, Note_off_c, 2, 72, 64
1, 37395, Note_on_c, 2, 72, 125
1, 37401, Note_off_c, 2, 73, 64
1, 37466, Note_on_c, 2, 73, 125
1, 37474, Note_off_c, 2, 72, 64
1, 37543, Note_on_c, 2, 76, 125
1, 37544, Note_on_c, 4, 54, 123
1, 37544, Note_on_c, 4, 50, 123
1, 37549, Note_off_c, 4, 57, 64
1, 37551, Note_off_c, 2, 73, 64
1, 37551, Note_off_c, 4, 64, 64
1, 37621, Note_on_c, 2, 74, 125
1, 37629, Note_off_c, 2, 76, 64
1, 37691, Note_on_c, 2, 73, 125
1, 37692, Note_on_c, 4, 56, 123
1, 37692, Note_on_c, 4, 52, 123
1, 37699, Note_off_c, 2, 74, 64
1, 37704, Note_off_c, 4, 50, 64
1, 37705, Note_off_c, 4, 54, 64
1, 37760, Note_on_c, 2, 71, 125
1, 37767, Note_off_c, 2, 73, 64
1, 37834, Note_on_c, 2, 69, 125
1, 37842, Note_off_c, 2, 71, 64
1, 37908, Note_on_c, 2, 68, 127
1, 37915, Note_off_c, 2, 69, 64
1, 37984, Note_on_c, 4, 66, 127
1, 37992, Note_off_c, 2, 68, 64
1, 38061, Note_on_c, 4, 64, 121
1, 38066, Note_off_c, 4, 66, 64
1, 38132, Note_off_c, 4, 64, 64
1, 38136, Note_on_c, 2, 73, 127
1, 38136, Note_on_c, 2, 69, 127
1, 38138, Note_on_c, 4, 45, 121
1, 38139, Note_on_c, 4, 64, 125
1, 38163, Note_off_c, 4, 52, 64
1, 38163, Note_off_c, 4, 56, 64
1, 38218, Note_on_c, 4, 57, 123
1, 38294, Note_off_c, 4, 57, 64
1, 38298, Note_on_c, 4, 57, 123
1, 38373, Note_off_c, 4, 57, 64
1, 38377, Note_on_c, 4, 57, 123
1, 38451, Note_off_c, 4, 57, 64
1, 38454, Note_on_c, 2, 74, 127
1, 38454, Note_on_c, 2, 71, 127
1, 38456, Note_on_c, 4, 57, 123
1, 38460, Note_off_c, 2, 69, 64
1, 38460, Note_off_c, 2, 73, 64
1, 38530, Note_off_c, 4, 57, 64
1, 38534, Note_on_c, 4, 57, 123
1, 38607, Note_off_c, 4, 45, 64
1, 38611, Note_on_c, 2, 75, 127
1, 38612, Note_on_c, 4, 45, 121
1, 38612, Note_on_c, 2, 72, 127
1, 38628, Note_off_c, 2, 71, 64
1, 38628, Note_off_c, 2, 74, 64
1, 38676, Note_off_c, 4, 57, 64
1, 38688, Note_on_c, 4, 57, 123
1, 38759, Note_off_c, 4, 57, 64
1, 38763, Note_on_c, 2, 76, 127
1, 38763, Note_on_c, 2, 73, 127
1, 38764, Note_on_c, 4, 57, 123
1, 38779, Note_off_c, 2, 75, 64
1, 38779, Note_off_c, 2, 72, 64
1, 38835, Note_off_c, 4, 57, 64
1, 38839, Note_on_c, 4, 57, 123
1, 38910, Note_off_c, 4, 57, 64
1, 38914, Note_on_c, 4, 57, 123
1, 38979, Note_off_c, 2, 73, 64
1, 38990, Note_off_c, 4, 57, 64
1, 38992, Note_on_c, 2, 73, 127
1, 38993, Note_on_c, 4, 57, 123
1, 38993, Note_on_c, 2, 69, 127
1, 39057, Note_off_c, 4, 64, 64
1, 39062, Note_off_c, 2, 69, 64
1, 39063, Note_off_c, 2, 73, 64
1, 39063, Note_off_c, 4, 45, 64
1, 39067, Note_on_c, 2, 71, 127
1, 39068, Note_on_c, 4, 40, 121
1, 39068, Note_on_c, 2, 69, 127
1, 39069, Note_on_c, 4, 64, 125
1, 39073, Note_off_c, 2, 76, 64
1, 39146, Note_off_c, 4, 57, 64
1, 39146, Note_on_c, 4, 52, 123
1, 39216, Note_off_c, 4, 64, 64
1, 39222, Note_off_c, 2, 71, 64
1, 39222, Note_off_c, 2, 69, 64
1, 39223, Note_off_c, 4, 52, 64
1, 39225, Note_on_c, 2, 71, 127
1, 39225, Note_on_c, 2, 69, 127
1, 39226, Note_on_c, 4, 52, 123
1, 39228, Note_on_c, 4, 64, 125
1, 39299, Note_off_c, 4, 52, 64
1, 39302, Note_on_c, 4, 52, 123
1, 39368, Note_off_c, 4, 64, 64
1, 39373, Note_off_c, 2, 69, 64
1, 39374, Note_off_c, 4, 52, 64
1, 39377, Note_on_c, 2, 73, 127
1, 39378, Note_on_c, 2, 69, 127
1, 39378, Note_on_c, 4, 52, 123
1, 39380, Note_on_c, 4, 64, 125
1, 39394, Note_off_c, 2, 71, 64
1, 39449, Note_off_c, 4, 52, 64
1, 39453, Note_on_c, 4, 52, 123
1, 39515, Note_off_c, 4, 64, 64
1, 39520, Note_off_c, 2, 73, 64
1, 39521, Note_off_c, 4, 40, 64
1, 39523, Note_on_c, 2, 73, 127
1, 39524, Note_on_c, 4, 40, 121
1, 39524, Note_on_c, 2, 71, 127
1, 39526, Note_on_c, 4, 64, 125
1, 39541, Note_off_c, 2, 69, 64
1, 39588, Note_off_c, 4, 52, 64
1, 39601, Note_on_c, 4, 52, 123
1, 39672, Note_off_c, 2, 71, 64
1, 39674, Note_off_c, 4, 52, 64
1, 39676, Note_on_c, 2, 74, 127
1, 39676, Note_on_c, 2, 71, 127
1, 39677, Note_on_c, 4, 52, 123
1, 39681, Note_off_c, 2, 73, 64
1, 39750, Note_off_c, 4, 52, 64
1, 39754, Note_on_c, 4, 52, 123
1, 39821, Note_off_c, 4, 52, 64
1, 39823, Note_on_c, 4, 52, 123
1, 39882, Note_off_c, 2, 71, 64
1, 39892, Note_off_c, 4, 52, 64
1, 39894, Note_on_c, 2, 71, 127
1, 39894, Note_on_c, 2, 69, 127
1, 39895, Note_on_c, 4, 52, 123
1, 39972, Note_off_c, 2, 69, 64
1, 39976, Note_on_c, 2, 69, 127
1, 39976, Note_on_c, 4, 42, 121
1, 39980, Note_off_c, 2, 74, 64
1, 39988, Note_off_c, 2, 71, 64
1, 39988, Note_off_c, 4, 40, 64
1, 40058, Note_off_c, 4, 52, 64
1, 40058, Note_on_c, 4, 54, 123
1, 40132, Note_off_c, 4, 54, 64
1, 40132, Note_off_c, 2, 69, 64
1, 40136, Note_on_c, 2, 69, 127
1, 40136, Note_on_c, 4, 54, 123
1, 40213, Note_off_c, 4, 54, 64
1, 40216, Note_on_c, 4, 54, 123
1, 40292, Note_off_c, 2, 69, 64
1, 40295, Note_on_c, 2, 71, 127
1, 40296, Note_on_c, 4, 44, 121
1, 40302, Note_off_c, 4, 42, 64
1, 40375, Note_on_c, 2, 69, 127
1, 40375, Note_on_c, 4, 56, 123
1, 40388, Note_off_c, 2, 71, 64
1, 40392, Note_off_c, 4, 54, 64
1, 40414, Note_on_c, 2, 71, 127
1, 40427, Note_off_c, 2, 69, 64
1, 40452, Note_on_c, 2, 73, 127
1, 40453, Note_on_c, 4, 45, 121
1, 40465, Note_off_c, 2, 71, 64
1, 40471, Note_off_c, 4, 44, 64
1, 40535, Note_on_c, 4, 57, 123
1, 40551, Note_off_c, 4, 56, 64
1, 40612, Note_off_c, 2, 73, 64
1, 40612, Note_off_c, 4, 57, 64
1, 40615, Note_on_c, 2, 73, 127
1, 40616, Note_on_c, 4, 57, 123
1, 40691, Note_off_c, 4, 57, 64
1, 40695, Note_on_c, 4, 57, 123
1, 40772, Note_on_c, 2, 74, 127
1, 40772, Note_on_c, 2, 71, 127
1, 40773, Note_on_c, 4, 66, 127
1, 40773, Note_on_c, 4, 38, 121
1, 40779, Note_off_c, 4, 45, 64
1, 40789, Note_off_c, 2, 73, 64
1, 40800, Note_off_c, 4, 64, 64
1, 40850, Note_off_c, 4, 57, 64
1, 40850, Note_on_c, 4, 50, 123
1, 40926, Note_on_c, 2, 73, 127
1, 40927, Note_on_c, 2, 69, 127
1, 40927, Note_on_c, 4, 40, 121
1, 40929, Note_on_c, 4, 64, 125
1, 40943, Note_off_c, 2, 71, 64
1, 40943, Note_off_c, 2, 74, 64
1, 40943, Note_off_c, 4, 66, 64
1, 40944, Note_off_c, 4, 38, 64
1, 41004, Note_off_c, 4, 50, 64
1, 41004, Note_on_c, 4, 52, 123
1, 41072, Note_off_c, 2, 69, 64
1, 41073, Note_off_c, 4, 52, 64
1, 41073, Note_off_c, 2, 73, 64
1, 41074, Note_off_c, 4, 64, 64
1, 41076, Note_on_c, 2, 73, 127
1, 41076, Note_on_c, 2, 69, 127
1, 41077, Note_on_c, 4, 64, 125
1, 41077, Note_on_c, 4, 52, 123
1, 41151, Note_off_c, 4, 52, 64
1, 41153, Note_on_c, 4, 52, 123
1, 41214, Note_off_c, 4, 40, 64
1, 41224, Note_off_c, 2, 69, 64
1, 41224, Note_off_c, 2, 73, 64
1, 41227, Note_off_c, 4, 64, 64
1, 41227, Note_on_c, 2, 71, 127
1, 41228, Note_on_c, 2, 69, 127
1, 41228, Note_on_c, 4, 40, 121
1, 41231, Note_on_c, 4, 64, 125
1, 41231, Note_on_c, 4, 62, 124
1, 41306, Note_off_c, 4, 52, 64
1, 41312, Note_on_c, 4, 52, 123
1, 41383, Note_off_c, 2, 69, 64
1, 41385, Note_off_c, 4, 64, 64
1, 41387, Note_on_c, 2, 69, 127
1, 41389, Note_on_c, 4, 33, 117
1, 41389, Note_on_c, 4, 61, 125
1, 41390, Note_on_c, 4, 64, 125
1, 41400, Note_off_c, 2, 71, 64
1, 41402, Note_off_c, 4, 62, 64
1, 41406, Note_off_c, 4, 40, 64
1, 41541, Note_on_c, 4, 45, 121
1, 41606, Note_off_c, 4, 52, 64
1, 41779, Note_off_c, 2, 69, 64
1, 41781, Note_off_c, 4, 61, 64
1, 41781, Note_off_c, 4, 64, 64
1, 41858, Note_off_c, 4, 45, 64
1, 41859, Note_on_c, 2, 72, 123
1, 41946, Note_on_c, 2, 73, 123
1, 41954, Note_off_c, 2, 72, 64
1, 42024, Note_on_c, 4, 57, 123
1, 42025, Note_on_c, 4, 64, 125
1, 42098, Note_off_c, 2, 73, 64
1, 42102, Note_on_c, 2, 73, 123
1, 42181, Note_on_c, 2, 72, 123
1, 42189, Note_off_c, 2, 73, 64
1, 42250, Note_on_c, 2, 73, 123
1, 42258, Note_off_c, 2, 72, 64
1, 42327, Note_on_c, 2, 75, 123
1, 42335, Note_off_c, 2, 73, 64
1, 42406, Note_on_c, 2, 76, 123
1, 42413, Note_off_c, 2, 75, 64
1, 42479, Note_off_c, 4, 64, 64
1, 42484, Note_on_c, 4, 61, 125
1, 42486, Note_on_c, 4, 64, 125
1, 42498, Note_off_c, 4, 57, 64
1, 42559, Note_off_c, 2, 76, 64
1, 42564, Note_on_c, 2, 76, 123
1, 42636, Note_on_c, 1, 78, 125
1, 42644, Note_off_c, 2, 76, 64
1, 42715, Note_on_c, 2, 76, 123
1, 42722, Note_off_c, 1, 78, 64
1, 42786, Note_off_c, 2, 76, 64
1, 42790, Note_on_c, 2, 76, 123
1, 42871, Note_on_c, 2, 71, 125
1, 42878, Note_off_c, 2, 76, 64
1, 42943, Note_off_c, 4, 64, 64
1, 42948, Note_on_c, 4, 56, 123
1, 42949, Note_on_c, 4, 64, 125
1, 42968, Note_off_c, 4, 61, 64
1, 43007, Note_off_c, 2, 71, 64
1, 43019, Note_on_c, 2, 71, 125
1, 43084, Note_off_c, 2, 71, 64
1, 43091, Note_on_c, 2, 71, 125
1, 43161, Note_off_c, 2, 71, 64
1, 43169, Note_on_c, 2, 71, 125
1, 43247, Note_on_c, 2, 73, 123
1, 43260, Note_off_c, 2, 71, 64
1, 43325, Note_on_c, 2, 74, 123
1, 43337, Note_off_c, 2, 73, 64
1, 43396, Note_off_c, 4, 64, 64
1, 43402, Note_on_c, 4, 59, 125
1, 43403, Note_on_c, 4, 64, 125
1, 43413, Note_off_c, 4, 56, 64
1, 43465, Note_off_c, 2, 74, 64
1, 43478, Note_on_c, 2, 74, 123
1, 43555, Note_on_c, 2, 76, 123
1, 43569, Note_off_c, 2, 74, 64
1, 43632, Note_on_c, 2, 74, 123
1, 43644, Note_off_c, 2, 76, 64
1, 43703, Note_off_c, 2, 74, 64
1, 43707, Note_on_c, 2, 74, 123
1, 43788, Note_on_c, 2, 69, 125
1, 43795, Note_off_c, 2, 74, 64
1, 43857, Note_off_c, 4, 64, 64
1, 43860, Note_on_c, 4, 54, 123
1, 43862, Note_on_c, 4, 64, 125
1, 43874, Note_off_c, 4, 59, 64
1, 43922, Note_off_c, 2, 69, 64
1, 43933, Note_on_c, 2, 69, 125
1, 44001, Note_off_c, 2, 69, 64
1, 44006, Note_on_c, 2, 69, 125
1, 44077, Note_off_c, 2, 69, 64
1, 44085, Note_on_c, 2, 69, 125
1, 44165, Note_on_c, 2, 71, 125
1, 44178, Note_off_c, 2, 69, 64
1, 44234, Note_off_c, 2, 71, 64
1, 44242, Note_on_c, 2, 71, 125
1, 44316, Note_off_c, 4, 64, 64
1, 44322, Note_on_c, 4, 56, 123
1, 44323, Note_on_c, 4, 64, 125
1, 44336, Note_off_c, 4, 54, 64
1, 44389, Note_off_c, 2, 71, 64
1, 44401, Note_on_c, 2, 71, 125
1, 44468, Note_off_c, 2, 71, 64
1, 44478, Note_on_c, 2, 71, 125
1, 44545, Note_off_c, 2, 71, 64
1, 44555, Note_on_c, 2, 71, 125
1, 44624, Note_off_c, 2, 71, 64
1, 44628, Note_off_c, 4, 64, 64
1, 44632, Note_on_c, 2, 72, 125
1, 44633, Note_on_c, 4, 57, 123
1, 44634, Note_on_c, 4, 64, 125
1, 44638, Note_off_c, 4, 56, 64
1, 44703, Note_on_c, 2, 73, 125
1, 44711, Note_off_c, 2, 72, 64
1, 44778, Note_on_c, 2, 72, 125
1, 44784, Note_off_c, 2, 73, 64
1, 44847, Note_on_c, 2, 73, 125
1, 44855, Note_off_c, 2, 72, 64
1, 44920, Note_on_c, 2, 76, 125
1, 44921, Note_on_c, 4, 54, 123
1, 44921, Note_on_c, 4, 50, 123
1, 44925, Note_off_c, 4, 57, 64
1, 44927, Note_off_c, 2, 73, 64
1, 44928, Note_off_c, 4, 64, 64
1, 44998, Note_on_c, 2, 74, 125
1, 45005, Note_off_c, 2, 76, 64
1, 45068, Note_on_c, 2, 73, 125
1, 45069, Note_on_c, 4, 56, 123
1, 45069, Note_on_c, 4, 52, 123
1, 45075, Note_off_c, 2, 74, 64
1, 45081, Note_off_c, 4, 50, 64
1, 45081, Note_off_c, 4, 54, 64
1, 45140, Note_on_c, 2, 71, 125
1, 45147, Note_off_c, 2, 73, 64
1, 45213, Note_on_c, 2, 69, 125
1, 45222, Note_off_c, 2, 71, 64
1, 45288, Note_on_c, 2, 68, 127
1, 45295, Note_off_c, 2, 69, 64
1, 45364, Note_on_c, 4, 66, 127
1, 45372, Note_off_c, 2, 68, 64
1, 45441, Note_on_c, 4, 64, 124
1, 45446, Note_off_c, 4, 66, 64
1, 45512, Note_off_c, 4, 64, 64
1, 45516, Note_on_c, 2, 73, 127
1, 45516, Note_on_c, 2, 69, 127
1, 45518, Note_on_c, 4, 45, 124
1, 45519, Note_on_c, 4, 64, 127
1, 45543, Note_off_c, 4, 52, 64
1, 45543, Note_off_c, 4, 56, 64
1, 45598, Note_on_c, 4, 57, 125
1, 45674, Note_off_c, 4, 57, 64
1, 45678, Note_on_c, 4, 57, 125
1, 45753, Note_off_c, 4, 57, 64
1, 45757, Note_on_c, 4, 57, 125
1, 45832, Note_off_c, 4, 57, 64
1, 45834, Note_on_c, 2, 74, 127
1, 45834, Note_on_c, 2, 71, 127
1, 45835, Note_on_c, 4, 57, 125
1, 45839, Note_off_c, 2, 69, 64
1, 45839, Note_off_c, 2, 73, 64
1, 45911, Note_off_c, 4, 57, 64
1, 45914, Note_on_c, 4, 57, 125
1, 45987, Note_off_c, 4, 45, 64
1, 45991, Note_on_c, 2, 75, 127
1, 45992, Note_on_c, 4, 45, 124
1, 45992, Note_on_c, 2, 72, 127
1, 46008, Note_off_c, 2, 71, 64
1, 46008, Note_off_c, 2, 74, 64
1, 46056, Note_off_c, 4, 57, 64
1, 46068, Note_on_c, 4, 57, 125
1, 46140, Note_off_c, 4, 57, 64
1, 46142, Note_on_c, 2, 76, 127
1, 46142, Note_on_c, 2, 73, 127
1, 46143, Note_on_c, 4, 57, 125
1, 46158, Note_off_c, 2, 72, 64
1, 46159, Note_off_c, 2, 75, 64
1, 46215, Note_off_c, 4, 57, 64
1, 46219, Note_on_c, 4, 57, 125
1, 46290, Note_off_c, 4, 57, 64
1, 46294, Note_on_c, 4, 57, 125
1, 46359, Note_off_c, 2, 73, 64
1, 46368, Note_off_c, 4, 57, 64
1, 46372, Note_on_c, 2, 73, 127
1, 46373, Note_on_c, 2, 69, 127
1, 46373, Note_on_c, 4, 57, 125
1, 46437, Note_off_c, 4, 64, 64
1, 46442, Note_off_c, 2, 69, 64
1, 46443, Note_off_c, 2, 73, 64
1, 46443, Note_off_c, 4, 45, 64
1, 46447, Note_on_c, 2, 71, 127
1, 46448, Note_on_c, 4, 40, 124
1, 46448, Note_on_c, 2, 69, 127
1, 46449, Note_on_c, 4, 64, 127
1, 46453, Note_off_c, 2, 76, 64
1, 46501, Note_off_c, 4, 33, 64
1, 46524, Note_off_c, 4, 57, 64
1, 46524, Note_on_c, 4, 52, 125
1, 46596, Note_off_c, 4, 64, 64
1, 46602, Note_off_c, 2, 71, 64
1, 46602, Note_off_c, 2, 69, 64
1, 46603, Note_off_c, 4, 52, 64
1, 46605, Note_on_c, 2, 71, 127
1, 46605, Note_on_c, 2, 69, 127
1, 46608, Note_on_c, 4, 64, 127
1, 46608, Note_on_c, 4, 52, 125
1, 46680, Note_off_c, 4, 52, 64
1, 46683, Note_on_c, 4, 52, 125
1, 46747, Note_off_c, 4, 64, 64
1, 46752, Note_off_c, 2, 69, 64
1, 46754, Note_off_c, 4, 52, 64
1, 46758, Note_on_c, 2, 73, 127
1, 46759, Note_on_c, 2, 69, 127
1, 46759, Note_on_c, 4, 52, 125
1, 46760, Note_on_c, 4, 64, 127
1, 46774, Note_off_c, 2, 71, 64
1, 46829, Note_off_c, 4, 52, 64
1, 46833, Note_on_c, 4, 52, 125
1, 46895, Note_off_c, 4, 64, 64
1, 46900, Note_off_c, 2, 73, 64
1, 46901, Note_off_c, 4, 40, 64
1, 46903, Note_on_c, 2, 73, 127
1, 46904, Note_on_c, 4, 40, 124
1, 46904, Note_on_c, 2, 71, 127
1, 46906, Note_on_c, 4, 64, 127
1, 46920, Note_off_c, 2, 69, 64
1, 46968, Note_off_c, 4, 52, 64
1, 46981, Note_on_c, 4, 52, 125
1, 47052, Note_off_c, 2, 71, 64
1, 47054, Note_off_c, 4, 52, 64
1, 47056, Note_on_c, 2, 74, 127
1, 47056, Note_on_c, 2, 71, 127
1, 47057, Note_on_c, 4, 52, 125
1, 47061, Note_off_c, 2, 73, 64
1, 47130, Note_off_c, 4, 52, 64
1, 47134, Note_on_c, 4, 52, 125
1, 47199, Note_off_c, 4, 52, 64
1, 47203, Note_on_c, 4, 52, 125
1, 47262, Note_off_c, 2, 71, 64
1, 47272, Note_off_c, 4, 52, 64
1, 47274, Note_on_c, 2, 71, 127
1, 47274, Note_on_c, 2, 69, 127
1, 47275, Note_on_c, 4, 52, 125
1, 47352, Note_off_c, 2, 69, 64
1, 47355, Note_on_c, 2, 69, 127
1, 47356, Note_on_c, 4, 42, 124
1, 47361, Note_off_c, 2, 74, 64
1, 47368, Note_off_c, 4, 40, 64
1, 47368, Note_off_c, 2, 71, 64
1, 47438, Note_off_c, 4, 52, 64
1, 47438, Note_on_c, 4, 54, 125
1, 47512, Note_off_c, 4, 54, 64
1, 47512, Note_off_c, 2, 69, 64
1, 47516, Note_on_c, 2, 69, 127
1, 47517, Note_on_c, 4, 54, 125
1, 47592, Note_off_c, 4, 54, 64
1, 47596, Note_on_c, 4, 54, 125
1, 47671, Note_off_c, 2, 69, 64
1, 47676, Note_on_c, 2, 71, 127
1, 47676, Note_on_c, 4, 44, 124
1, 47682, Note_off_c, 4, 42, 64
1, 47755, Note_on_c, 2, 69, 127
1, 47756, Note_on_c, 4, 56, 125
1, 47769, Note_off_c, 2, 71, 64
1, 47772, Note_off_c, 4, 54, 64
1, 47794, Note_on_c, 2, 71, 127
1, 47807, Note_off_c, 2, 69, 64
1, 47832, Note_on_c, 2, 73, 127
1, 47834, Note_on_c, 4, 45, 124
1, 47845, Note_off_c, 2, 71, 64
1, 47851, Note_off_c, 4, 44, 64
1, 47914, Note_on_c, 4, 57, 125
1, 47931, Note_off_c, 4, 56, 64
1, 47989, Note_off_c, 2, 73, 64
1, 47991, Note_off_c, 4, 57, 64
1, 47993, Note_on_c, 2, 73, 127
1, 47995, Note_on_c, 4, 57, 125
1, 48072, Note_off_c, 4, 57, 64
1, 48075, Note_on_c, 4, 57, 125
1, 48151, Note_on_c, 2, 74, 127
1, 48151, Note_on_c, 2, 71, 127
1, 48152, Note_on_c, 4, 66, 127
1, 48152, Note_on_c, 4, 38, 124
1, 48158, Note_off_c, 4, 45, 64
1, 48168, Note_off_c, 2, 73, 64
1, 48180, Note_off_c, 4, 64, 64
1, 48229, Note_off_c, 4, 57, 64
1, 48230, Note_on_c, 4, 50, 125
1, 48307, Note_on_c, 2, 73, 127
1, 48308, Note_on_c, 4, 40, 124
1, 48308, Note_on_c, 2, 69, 127
1, 48309, Note_on_c, 4, 64, 127
1, 48323, Note_off_c, 2, 71, 64
1, 48323, Note_off_c, 4, 66, 64
1, 48324, Note_off_c, 2, 74, 64
1, 48324, Note_off_c, 4, 38, 64
1, 48384, Note_off_c, 4, 50, 64
1, 48384, Note_on_c, 4, 52, 125
1, 48452, Note_off_c, 2, 69, 64
1, 48453, Note_off_c, 4, 52, 64
1, 48453, Note_off_c, 2, 73, 64
1, 48454, Note_off_c, 4, 64, 64
1, 48456, Note_on_c, 2, 73, 127
1, 48456, Note_on_c, 2, 69, 127
1, 48457, Note_on_c, 4, 64, 127
1, 48457, Note_on_c, 4, 52, 125
1, 48531, Note_off_c, 4, 52, 64
1, 48535, Note_on_c, 4, 52, 125
1, 48594, Note_off_c, 4, 40, 64
1, 48604, Note_off_c, 2, 69, 64
1, 48604, Note_off_c, 2, 73, 64
1, 48605, Note_off_c, 4, 64, 64
1, 48607, Note_on_c, 2, 71, 127
1, 48607, Note_on_c, 2, 69, 127
1, 48608, Note_on_c, 4, 40, 124
1, 48610, Note_on_c, 4, 64, 127
1, 48610, Note_on_c, 4, 62, 125
1, 48687, Note_off_c, 4, 52, 64
1, 48691, Note_on_c, 4, 52, 125
1, 48764, Note_off_c, 2, 69, 64
1, 48766, Note_off_c, 4, 64, 64
1, 48767, Note_on_c, 2, 69, 127
1, 48768, Note_on_c, 4, 33, 120
1, 48768, Note_on_c, 4, 61, 125
1, 48769, Note_on_c, 4, 64, 127
1, 48780, Note_off_c, 2, 71, 64
1, 48782, Note_off_c, 4, 62, 64
1, 48785, Note_off_c, 4, 40, 64
1, 48921, Note_on_c, 4, 45, 124
1, 48986, Note_off_c, 4, 52, 64
1, 49159, Note_off_c, 2, 69, 64
1, 49159, Note_off_c, 4, 61, 64
1, 49161, Note_off_c, 4, 64, 64
1, 49238, Note_off_c, 4, 45, 64
1, 49239, Note_on_c, 2, 75, 125
1, 49324, Note_on_c, 2, 76, 125
1, 49332, Note_off_c, 2, 75, 64
1, 49408, Note_on_c, 4, 61, 123
1, 49409, Note_on_c, 4, 57, 121
1, 49480, Note_off_c, 2, 76, 64
1, 49484, Note_on_c, 2, 76, 125
1, 49561, Note_on_c, 2, 75, 125
1, 49569, Note_off_c, 2, 76, 64
1, 49629, Note_on_c, 2, 76, 125
1, 49635, Note_off_c, 2, 75, 64
1, 49703, Note_on_c, 2, 77, 125
1, 49710, Note_off_c, 2, 76, 64
1, 49775, Note_on_c, 1, 78, 125
1, 49783, Note_off_c, 2, 77, 64
1, 49843, Note_off_c, 4, 57, 64
1, 49854, Note_on_c, 4, 62, 122
1, 49855, Note_on_c, 4, 57, 121
1, 49869, Note_off_c, 4, 61, 64
1, 49930, Note_off_c, 1, 78, 64
1, 49934, Note_on_c, 1, 78, 125
1, 50011, Note_on_c, 2, 77, 125
1, 50018, Note_off_c, 1, 78, 64
1, 50088, Note_on_c, 1, 78, 125
1, 50095, Note_off_c, 2, 77, 64
1, 50156, Note_off_c, 4, 57, 64
1, 50164, Note_on_c, 1, 80, 125
1, 50165, Note_on_c, 4, 66, 127
1, 50165, Note_on_c, 4, 57, 121
1, 50171, Note_off_c, 4, 62, 64
1, 50172, Note_off_c, 1, 78, 64
1, 50240, Note_on_c, 1, 81, 125
1, 50250, Note_off_c, 1, 80, 64
1, 50305, Note_off_c, 4, 57, 64
1, 50319, Note_on_c, 1, 78, 125
1, 50319, Note_on_c, 4, 64, 123
1, 50320, Note_on_c, 4, 57, 121
1, 50328, Note_off_c, 1, 81, 64
1, 50333, Note_off_c, 4, 66, 64
1, 50397, Note_on_c, 1, 80, 125
1, 50406, Note_off_c, 1, 78, 64
1, 50464, Note_off_c, 4, 57, 64
1, 50475, Note_on_c, 2, 77, 125
1, 50476, Note_on_c, 4, 62, 122
1, 50476, Note_on_c, 4, 57, 121
1, 50484, Note_off_c, 1, 80, 64
1, 50490, Note_off_c, 4, 64, 64
1, 50549, Note_on_c, 1, 78, 125
1, 50559, Note_off_c, 2, 77, 64
1, 50632, Note_on_c, 2, 75, 125
1, 50640, Note_off_c, 1, 78, 64
1, 50707, Note_on_c, 2, 76, 125
1, 50714, Note_off_c, 2, 75, 64
1, 50772, Note_off_c, 4, 57, 64
1, 50785, Note_on_c, 4, 61, 123
1, 50786, Note_on_c, 4, 57, 121
1, 50792, Note_off_c, 4, 62, 64
1, 50861, Note_off_c, 2, 76, 64
1, 50865, Note_on_c, 2, 76, 125
1, 50932, Note_off_c, 2, 76, 64
1, 50940, Note_on_c, 2, 76, 125
1, 51009, Note_off_c, 2, 76, 64
1, 51017, Note_on_c, 2, 76, 125
1, 51079, Note_off_c, 4, 61, 64
1, 51079, Note_off_c, 4, 57, 64
1, 51084, Note_off_c, 2, 76, 64
1, 51092, Note_on_c, 2, 76, 125
1, 51094, Note_on_c, 4, 64, 123
1, 51094, Note_on_c, 4, 61, 123
1, 51095, Note_on_c, 4, 57, 121
1, 51171, Note_on_c, 2, 73, 125
1, 51179, Note_off_c, 2, 76, 64
1, 51250, Note_on_c, 2, 69, 127
1, 51258, Note_off_c, 2, 73, 64
1, 51329, Note_on_c, 2, 76, 125
1, 51356, Note_off_c, 2, 69, 64
1, 51400, Note_off_c, 2, 76, 64
1, 51408, Note_on_c, 2, 76, 125
1, 51477, Note_off_c, 2, 76, 64
1, 51484, Note_on_c, 2, 76, 125
1, 51553, Note_off_c, 2, 76, 64
1, 51559, Note_off_c, 4, 64, 64
1, 51561, Note_on_c, 2, 76, 125
1, 51562, Note_on_c, 4, 64, 123
1, 51562, Note_on_c, 4, 62, 122
1, 51563, Note_on_c, 4, 59, 123
1, 51576, Note_off_c, 4, 61, 64
1, 51577, Note_off_c, 4, 57, 64
1, 51641, Note_on_c, 2, 74, 125
1, 51648, Note_off_c, 2, 76, 64
1, 51721, Note_on_c, 2, 69, 127
1, 51729, Note_off_c, 2, 74, 64
1, 51800, Note_on_c, 2, 76, 125
1, 51827, Note_off_c, 2, 69, 64
1, 51871, Note_off_c, 2, 76, 64
1, 51879, Note_on_c, 2, 76, 125
1, 51948, Note_off_c, 2, 76, 64
1, 51954, Note_on_c, 2, 76, 125
1, 52021, Note_off_c, 2, 76, 64
1, 52025, Note_off_c, 4, 64, 64
1, 52029, Note_on_c, 4, 61, 123
1, 52029, Note_on_c, 2, 76, 125
1, 52030, Note_on_c, 4, 64, 123
1, 52041, Note_off_c, 4, 59, 64
1, 52042, Note_off_c, 4, 62, 64
1, 52108, Note_on_c, 2, 73, 125
1, 52116, Note_off_c, 2, 76, 64
1, 52184, Note_on_c, 2, 69, 127
1, 52189, Note_off_c, 2, 73, 64
1, 52257, Note_on_c, 2, 76, 125
1, 52284, Note_off_c, 2, 69, 64
1, 52335, Note_on_c, 2, 73, 125
1, 52336, Note_on_c, 4, 57, 121
1, 52337, Note_on_c, 4, 63, 121
1, 52337, Note_on_c, 4, 54, 121
1, 52342, Note_off_c, 2, 76, 64
1, 52342, Note_off_c, 4, 61, 64
1, 52343, Note_off_c, 4, 64, 64
1, 52418, Note_on_c, 2, 69, 127
1, 52443, Note_off_c, 2, 73, 64
1, 52492, Note_off_c, 2, 69, 64
1, 52497, Note_on_c, 2, 73, 125
1, 52497, Note_on_c, 2, 69, 127
1, 52498, Note_on_c, 4, 64, 123
1, 52498, Note_on_c, 4, 52, 123
1, 52512, Note_off_c, 4, 54, 64
1, 52512, Note_off_c, 4, 63, 64
1, 52512, Note_off_c, 4, 57, 64
1, 52776, Note_off_c, 2, 69, 64
1, 52776, Note_off_c, 2, 73, 64
1, 52779, Note_on_c, 2, 71, 125
1, 52779, Note_on_c, 2, 69, 127
1, 52928, Note_on_c, 2, 72, 125
1, 52941, Note_off_c, 2, 69, 64
1, 52942, Note_off_c, 2, 71, 64
1, 53011, Note_on_c, 2, 73, 125
1, 53019, Note_off_c, 2, 72, 64
1, 53082, Note_off_c, 4, 52, 64
1, 53083, Note_off_c, 4, 64, 64
1, 53087, Note_on_c, 4, 64, 123
1, 53088, Note_on_c, 4, 57, 123
1, 53165, Note_off_c, 2, 73, 64
1, 53169, Note_on_c, 2, 73, 125
1, 53247, Note_on_c, 2, 72, 125
1, 53255, Note_off_c, 2, 73, 64
1, 53321, Note_on_c, 2, 73, 125
1, 53329, Note_off_c, 2, 72, 64
1, 53398, Note_on_c, 2, 75, 125
1, 53406, Note_off_c, 2, 73, 64
1, 53473, Note_on_c, 2, 76, 125
1, 53481, Note_off_c, 2, 75, 64
1, 53546, Note_off_c, 4, 64, 64
1, 53554, Note_on_c, 4, 64, 123
1, 53554, Note_on_c, 4, 61, 125
1, 53566, Note_off_c, 4, 57, 64
1, 53624, Note_off_c, 2, 76, 64
1, 53628, Note_on_c, 2, 76, 125
1, 53702, Note_on_c, 1, 78, 125
1, 53710, Note_off_c, 2, 76, 64
1, 53779, Note_on_c, 2, 76, 125
1, 53787, Note_off_c, 1, 78, 64
1, 53846, Note_off_c, 2, 76, 64
1, 53854, Note_on_c, 2, 76, 125
1, 53935, Note_on_c, 2, 71, 125
1, 53942, Note_off_c, 2, 76, 64
1, 54008, Note_off_c, 4, 64, 64
1, 54015, Note_on_c, 4, 64, 123
1, 54016, Note_on_c, 4, 56, 123
1, 54028, Note_off_c, 4, 61, 64
1, 54080, Note_off_c, 2, 71, 64
1, 54093, Note_on_c, 2, 71, 125
1, 54160, Note_off_c, 2, 71, 64
1, 54168, Note_on_c, 2, 71, 125
1, 54231, Note_off_c, 2, 71, 64
1, 54239, Note_on_c, 2, 71, 125
1, 54318, Note_on_c, 2, 73, 125
1, 54332, Note_off_c, 2, 71, 64
1, 54397, Note_on_c, 2, 74, 125
1, 54410, Note_off_c, 2, 73, 64
1, 54468, Note_off_c, 4, 64, 64
1, 54474, Note_on_c, 4, 64, 123
1, 54474, Note_on_c, 4, 59, 125
1, 54488, Note_off_c, 4, 56, 64
1, 54550, Note_off_c, 2, 74, 64
1, 54554, Note_on_c, 2, 74, 125
1, 54631, Note_on_c, 2, 76, 125
1, 54636, Note_off_c, 2, 74, 64
1, 54704, Note_on_c, 2, 74, 125
1, 54711, Note_off_c, 2, 76, 64
1, 54767, Note_off_c, 2, 74, 64
1, 54775, Note_on_c, 2, 74, 125
1, 54851, Note_on_c, 2, 69, 127
1, 54860, Note_off_c, 2, 74, 64
1, 54921, Note_off_c, 4, 64, 64
1, 54927, Note_on_c, 4, 64, 123
1, 54927, Note_on_c, 4, 54, 123
1, 54941, Note_off_c, 4, 59, 64
1, 55002, Note_off_c, 2, 69, 64
1, 55007, Note_on_c, 2, 69, 127
1, 55077, Note_off_c, 4, 64, 64
1, 55081, Note_on_c, 2, 73, 125
1, 55082, Note_on_c, 4, 64, 123
1, 55082, Note_on_c, 4, 56, 123
1, 55090, Note_off_c, 2, 69, 64
1, 55096, Note_off_c, 4, 54, 64
1, 55155, Note_on_c, 2, 71, 125
1, 55161, Note_off_c, 2, 73, 64
1, 55228, Note_on_c, 2, 74, 125
1, 55236, Note_off_c, 2, 71, 64
1, 55303, Note_on_c, 2, 73, 125
1, 55311, Note_off_c, 2, 74, 64
1, 55370, Note_off_c, 4, 64, 64
1, 55384, Note_on_c, 4, 64, 123
1, 55384, Note_on_c, 4, 57, 123
1, 55389, Note_off_c, 4, 56, 64
1, 55458, Note_off_c, 2, 73, 64
1, 55462, Note_on_c, 2, 73, 125
1, 55535, Note_on_c, 4, 59, 125
1, 55535, Note_on_c, 2, 76, 125
1, 55536, Note_on_c, 4, 50, 123
1, 55541, Note_off_c, 2, 73, 64
1, 55551, Note_off_c, 4, 57, 64
1, 55551, Note_off_c, 4, 64, 64
1, 55608, Note_on_c, 2, 74, 125
1, 55613, Note_off_c, 2, 76, 64
1, 55680, Note_on_c, 2, 72, 125
1, 55688, Note_off_c, 2, 74, 64
1, 55761, Note_on_c, 2, 73, 125
1, 55769, Note_off_c, 2, 72, 64
1, 55840, Note_on_c, 4, 57, 123
1, 55840, Note_on_c, 4, 52, 123
1, 55845, Note_off_c, 4, 59, 64
1, 55845, Note_off_c, 4, 50, 64
1, 55913, Note_off_c, 2, 73, 64
1, 55917, Note_on_c, 2, 73, 125
1, 55988, Note_off_c, 4, 52, 64
1, 55990, Note_on_c, 2, 74, 125
1, 55990, Note_on_c, 4, 56, 123
1, 55991, Note_on_c, 4, 52, 123
1, 55998, Note_off_c, 2, 73, 64
1, 56002, Note_off_c, 4, 57, 64
1, 56064, Note_on_c, 2, 71, 125
1, 56070, Note_off_c, 2, 74, 64
1, 56128, Note_off_c, 2, 71, 64
1, 56136, Note_on_c, 2, 69, 127
1, 56136, Note_on_c, 2, 71, 125
1, 56136, Note_on_c, 4, 57, 123
1, 56148, Note_off_c, 4, 56, 64
1, 56273, Note_off_c, 4, 52, 64
1, 56286, Note_on_c, 4, 52, 125
1, 56300, Note_off_c, 4, 57, 64
1, 56361, Note_off_c, 2, 71, 64
1, 56365, Note_on_c, 2, 72, 125
1, 56440, Note_off_c, 2, 69, 64
1, 56444, Note_off_c, 4, 52, 64
1, 56444, Note_on_c, 2, 73, 125
1, 56445, Note_on_c, 2, 69, 127
1, 56445, Note_on_c, 4, 45, 125
1, 56446, Note_off_c, 4, 33, 64
1, 56457, Note_off_c, 2, 72, 64
1, 56599, Note_off_c, 2, 69, 64
1, 56600, Note_off_c, 2, 73, 64
1, 56602, Note_on_c, 2, 73, 125
1, 56603, Note_on_c, 2, 69, 127
1, 56603, Note_on_c, 4, 64, 125
1, 56604, Note_on_c, 4, 33, 127
1, 56621, Note_off_c, 4, 45, 64
1, 56681, Note_on_c, 4, 45, 125
1, 56746, Note_off_c, 4, 45, 64
1, 56754, Note_off_c, 4, 64, 64
1, 56754, Note_off_c, 2, 69, 64
1, 56755, Note_off_c, 2, 73, 64
1, 56759, Note_on_c, 2, 73, 125
1, 56759, Note_on_c, 2, 69, 127
1, 56760, Note_on_c, 4, 64, 125
1, 56760, Note_on_c, 4, 45, 125
1, 56828, Note_off_c, 4, 45, 64
1, 56843, Note_on_c, 4, 45, 125
1, 56868, Note_off_c, 4, 33, 64
1, 56918, Note_off_c, 2, 69, 64
1, 56918, Note_off_c, 4, 64, 64
1, 56919, Note_off_c, 2, 73, 64
1, 56921, Note_on_c, 2, 74, 125
1, 56921, Note_on_c, 2, 69, 127
1, 56922, Note_on_c, 4, 64, 125
1, 56922, Note_on_c, 4, 35, 125
1, 56960, Note_off_c, 4, 45, 64
1, 56996, Note_on_c, 4, 47, 125
1, 57035, Note_off_c, 4, 35, 64
1, 57069, Note_off_c, 4, 64, 64
1, 57069, Note_off_c, 2, 69, 64
1, 57070, Note_off_c, 2, 74, 64
1, 57074, Note_on_c, 2, 76, 125
1, 57074, Note_on_c, 2, 69, 127
1, 57075, Note_on_c, 4, 64, 125
1, 57075, Note_on_c, 4, 37, 125
1, 57116, Note_off_c, 4, 47, 64
1, 57156, Note_on_c, 4, 49, 125
1, 57218, Note_off_c, 4, 49, 64
1, 57225, Note_off_c, 2, 69, 64
1, 57226, Note_off_c, 2, 76, 64
1, 57228, Note_on_c, 2, 76, 125
1, 57229, Note_on_c, 2, 69, 127
1, 57229, Note_on_c, 4, 49, 125
1, 57289, Note_off_c, 4, 49, 64
1, 57302, Note_on_c, 4, 49, 125
1, 57327, Note_off_c, 4, 37, 64
1, 57375, Note_off_c, 2, 76, 64
1, 57375, Note_off_c, 2, 69, 64
1, 57380, Note_on_c, 1, 78, 125
1, 57381, Note_on_c, 2, 69, 127
1, 57381, Note_on_c, 4, 38, 125
1, 57421, Note_off_c, 4, 49, 64
1, 57464, Note_on_c, 1, 80, 125
1, 57464, Note_on_c, 4, 50, 125
1, 57476, Note_off_c, 1, 78, 64
1, 57503, Note_off_c, 4, 38, 64
1, 57504, Note_on_c, 1, 81, 125
1, 57517, Note_off_c, 1, 80, 64
1, 57535, Note_off_c, 4, 64, 64
1, 57539, Note_off_c, 2, 69, 64
1, 57542, Note_off_c, 4, 50, 64
1, 57543, Note_on_c, 2, 69, 127
1, 57543, Note_on_c, 4, 64, 125
1, 57544, Note_on_c, 4, 40, 125
1, 57544, Note_on_c, 4, 61, 125
1, 57592, Note_off_c, 1, 81, 64
1, 57619, Note_on_c, 4, 52, 125
1, 57695, Note_off_c, 4, 52, 64
1, 57696, Note_off_c, 4, 64, 64
1, 57696, Note_off_c, 2, 69, 64
1, 57696, Note_off_c, 4, 61, 64
1, 57699, Note_on_c, 2, 69, 127
1, 57700, Note_on_c, 4, 64, 125
1, 57700, Note_on_c, 4, 61, 125
1, 57701, Note_on_c, 4, 52, 125
1, 57773, Note_off_c, 4, 52, 64
1, 57777, Note_on_c, 4, 52, 125
1, 57842, Note_off_c, 4, 40, 64
1, 57846, Note_off_c, 2, 69, 64
1, 57846, Note_off_c, 4, 64, 64
1, 57849, Note_on_c, 2, 71, 125
1, 57849, Note_on_c, 2, 69, 127
1, 57850, Note_on_c, 4, 64, 125
1, 57850, Note_on_c, 4, 62, 125
1, 57851, Note_on_c, 4, 40, 125
1, 57868, Note_off_c, 4, 61, 64
1, 57916, Note_off_c, 4, 52, 64
1, 57927, Note_on_c, 4, 52, 125
1, 57995, Note_off_c, 4, 64, 64
1, 57995, Note_off_c, 2, 69, 64
1, 57999, Note_on_c, 2, 69, 127
1, 58000, Note_on_c, 4, 64, 125
1, 58000, Note_on_c, 4, 61, 125
1, 58001, Note_on_c, 4, 33, 127
1, 58013, Note_off_c, 2, 71, 64
1, 58015, Note_off_c, 4, 62, 64
1, 58017, Note_off_c, 4, 40, 64
1, 58170, Note_on_c, 4, 45, 125
1, 58262, Note_off_c, 4, 52, 64
1, 58426, Note_off_c, 4, 61, 64
1, 58426, Note_off_c, 4, 64, 64
1, 58427, Note_off_c, 2, 69, 64
1, 58511, Note_off_c, 4, 45, 64
1, 58512, Note_on_c, 2, 75, 125
1, 58600, Note_on_c, 2, 76, 125
1, 58608, Note_off_c, 2, 75, 64
1, 58685, Note_on_c, 4, 61, 125
1, 58685, Note_on_c, 4, 57, 123
1, 58755, Note_off_c, 2, 76, 64
1, 58761, Note_on_c, 2, 76, 125
1, 58836, Note_on_c, 2, 75, 125
1, 58843, Note_off_c, 2, 76, 64
1, 58905, Note_on_c, 2, 76, 125
1, 58910, Note_off_c, 2, 75, 64
1, 58980, Note_on_c, 2, 77, 125
1, 58985, Note_off_c, 2, 76, 64
1, 59051, Note_on_c, 1, 78, 125
1, 59058, Note_off_c, 2, 77, 64
1, 59118, Note_off_c, 4, 57, 64
1, 59131, Note_on_c, 4, 62, 124
1, 59132, Note_on_c, 4, 57, 123
1, 59144, Note_off_c, 4, 61, 64
1, 59205, Note_off_c, 1, 78, 64
1, 59209, Note_on_c, 1, 78, 125
1, 59286, Note_on_c, 2, 77, 125
1, 59293, Note_off_c, 1, 78, 64
1, 59363, Note_on_c, 1, 78, 125
1, 59370, Note_off_c, 2, 77, 64
1, 59432, Note_off_c, 4, 57, 64
1, 59440, Note_on_c, 1, 80, 125
1, 59440, Note_on_c, 4, 66, 127
1, 59441, Note_on_c, 4, 57, 123
1, 59446, Note_off_c, 4, 62, 64
1, 59448, Note_off_c, 1, 78, 64
1, 59518, Note_on_c, 1, 81, 125
1, 59525, Note_off_c, 1, 80, 64
1, 59583, Note_off_c, 4, 57, 64
1, 59596, Note_on_c, 1, 78, 125
1, 59597, Note_on_c, 4, 64, 123
1, 59597, Note_on_c, 4, 57, 123
1, 59603, Note_off_c, 1, 81, 64
1, 59609, Note_off_c, 4, 66, 64
1, 59672, Note_on_c, 1, 80, 125
1, 59681, Note_off_c, 1, 78, 64
1, 59739, Note_off_c, 4, 57, 64
1, 59751, Note_on_c, 4, 62, 124
1, 59751, Note_on_c, 2, 77, 125
1, 59752, Note_on_c, 4, 57, 123
1, 59759, Note_off_c, 1, 80, 64
1, 59765, Note_off_c, 4, 64, 64
1, 59827, Note_on_c, 1, 78, 125
1, 59834, Note_off_c, 2, 77, 64
1, 59909, Note_on_c, 2, 75, 125
1, 59916, Note_off_c, 1, 78, 64
1, 59982, Note_on_c, 2, 76, 125
1, 59990, Note_off_c, 2, 75, 64
1, 60049, Note_off_c, 4, 57, 64
1, 60063, Note_on_c, 4, 61, 125
1, 60063, Note_on_c, 4, 57, 123
1, 60068, Note_off_c, 4, 62, 64
1, 60137, Note_off_c, 2, 76, 64
1, 60141, Note_on_c, 2, 76, 125
1, 60210, Note_off_c, 2, 76, 64
1, 60216, Note_on_c, 2, 76, 125
1, 60285, Note_off_c, 2, 76, 64
1, 60292, Note_on_c, 2, 76, 125
1, 60356, Note_off_c, 4, 57, 64
1, 60356, Note_off_c, 4, 61, 64
1, 60360, Note_off_c, 2, 76, 64
1, 60368, Note_on_c, 2, 76, 125
1, 60369, Note_on_c, 4, 61, 125
1, 60371, Note_on_c, 4, 64, 123
1, 60372, Note_on_c, 4, 57, 123
1, 60447, Note_on_c, 2, 73, 125
1, 60456, Note_off_c, 2, 76, 64
1, 60526, Note_on_c, 2, 69, 127
1, 60533, Note_off_c, 2, 73, 64
1, 60604, Note_on_c, 2, 76, 125
1, 60631, Note_off_c, 2, 69, 64
1, 60675, Note_off_c, 2, 76, 64
1, 60683, Note_on_c, 2, 76, 125
1, 60752, Note_off_c, 2, 76, 64
1, 60760, Note_on_c, 2, 76, 125
1, 60829, Note_off_c, 2, 76, 64
1, 60835, Note_off_c, 4, 64, 64
1, 60837, Note_on_c, 2, 76, 125
1, 60838, Note_on_c, 4, 64, 123
1, 60838, Note_on_c, 4, 62, 124
1, 60839, Note_on_c, 4, 59, 125
1, 60852, Note_off_c, 4, 61, 64
1, 60852, Note_off_c, 4, 57, 64
1, 60917, Note_on_c, 2, 74, 125
1, 60925, Note_off_c, 2, 76, 64
1, 60996, Note_on_c, 2, 69, 127
1, 61006, Note_off_c, 2, 74, 64
1, 61077, Note_on_c, 2, 76, 125
1, 61104, Note_off_c, 2, 69, 64
1, 61148, Note_off_c, 2, 76, 64
1, 61155, Note_on_c, 2, 76, 125
1, 61223, Note_off_c, 2, 76, 64
1, 61230, Note_on_c, 2, 76, 125
1, 61296, Note_off_c, 2, 76, 64
1, 61299, Note_off_c, 4, 64, 64
1, 61304, Note_on_c, 2, 76, 125
1, 61305, Note_on_c, 4, 61, 125
1, 61306, Note_on_c, 4, 64, 123
1, 61317, Note_off_c, 4, 62, 64
1, 61317, Note_off_c, 4, 59, 64
1, 61383, Note_on_c, 2, 73, 125
1, 61391, Note_off_c, 2, 76, 64
1, 61458, Note_on_c, 2, 69, 127
1, 61465, Note_off_c, 2, 73, 64
1, 61533, Note_on_c, 2, 76, 125
1, 61560, Note_off_c, 2, 69, 64
1, 61612, Note_on_c, 2, 73, 125
1, 61612, Note_on_c, 4, 57, 123
1, 61613, Note_on_c, 4, 63, 123
1, 61613, Note_on_c, 4, 54, 123
1, 61617, Note_off_c, 4, 61, 64
1, 61618, Note_off_c, 2, 76, 64
1, 61618, Note_off_c, 4, 64, 64
1, 61692, Note_on_c, 2, 69, 127
1, 61719, Note_off_c, 2, 73, 64
1, 61769, Note_off_c, 2, 69, 64
1, 61773, Note_on_c, 2, 73, 125
1, 61774, Note_on_c, 4, 64, 123
1, 61774, Note_on_c, 2, 69, 127
1, 61775, Note_on_c, 4, 52, 123
1, 61787, Note_off_c, 4, 57, 64
1, 61789, Note_off_c, 4, 54, 64
1, 61789, Note_off_c, 4, 63, 64
1, 62053, Note_off_c, 2, 73, 64
1, 62053, Note_off_c, 2, 69, 64
1, 62056, Note_on_c, 2, 71, 125
1, 62057, Note_on_c, 2, 69, 127
1, 62203, Note_on_c, 2, 72, 125
1, 62217, Note_off_c, 2, 71, 64
1, 62217, Note_off_c, 2, 69, 64
1, 62287, Note_on_c, 2, 73, 125
1, 62294, Note_off_c, 2, 72, 64
1, 62358, Note_off_c, 4, 64, 64
1, 62358, Note_off_c, 4, 52, 64
1, 62363, Note_on_c, 4, 64, 123
1, 62363, Note_on_c, 4, 57, 123
1, 62440, Note_off_c, 2, 73, 64
1, 62444, Note_on_c, 2, 73, 125
1, 62523, Note_on_c, 2, 72, 125
1, 62531, Note_off_c, 2, 73, 64
1, 62596, Note_on_c, 2, 73, 125
1, 62604, Note_off_c, 2, 72, 64
1, 62673, Note_on_c, 2, 75, 125
1, 62682, Note_off_c, 2, 73, 64
1, 62749, Note_on_c, 2, 76, 125
1, 62757, Note_off_c, 2, 75, 64
1, 62822, Note_off_c, 4, 64, 64
1, 62828, Note_on_c, 4, 64, 123
1, 62829, Note_on_c, 4, 61, 125
1, 62843, Note_off_c, 4, 57, 64
1, 62900, Note_off_c, 2, 76, 64
1, 62904, Note_on_c, 2, 76, 125
1, 62979, Note_on_c, 1, 78, 125
1, 62987, Note_off_c, 2, 76, 64
1, 63054, Note_on_c, 2, 76, 125
1, 63061, Note_off_c, 1, 78, 64
1, 63123, Note_off_c, 2, 76, 64
1, 63131, Note_on_c, 2, 76, 125
1, 63211, Note_on_c, 2, 71, 125
1, 63219, Note_off_c, 2, 76, 64
1, 63283, Note_off_c, 4, 64, 64
1, 63291, Note_on_c, 4, 64, 123
1, 63291, Note_on_c, 4, 56, 123
1, 63303, Note_off_c, 4, 61, 64
1, 63357, Note_off_c, 2, 71, 64
1, 63369, Note_on_c, 2, 71, 125
1, 63437, Note_off_c, 2, 71, 64
1, 63444, Note_on_c, 2, 71, 125
1, 63507, Note_off_c, 2, 71, 64
1, 63515, Note_on_c, 2, 71, 125
1, 63593, Note_on_c, 2, 73, 125
1, 63607, Note_off_c, 2, 71, 64
1, 63672, Note_on_c, 2, 74, 125
1, 63686, Note_off_c, 2, 73, 64
1, 63744, Note_off_c, 4, 64, 64
1, 63750, Note_on_c, 4, 64, 123
1, 63750, Note_on_c, 4, 59, 125
1, 63762, Note_off_c, 4, 56, 64
1, 63826, Note_off_c, 2, 74, 64
1, 63829, Note_on_c, 2, 74, 125
1, 63906, Note_on_c, 2, 76, 125
1, 63914, Note_off_c, 2, 74, 64
1, 63980, Note_on_c, 2, 74, 125
1, 63987, Note_off_c, 2, 76, 64
1, 64044, Note_off_c, 2, 74, 64
1, 64051, Note_on_c, 2, 74, 125
1, 64128, Note_on_c, 2, 69, 127
1, 64135, Note_off_c, 2, 74, 64
1, 64196, Note_off_c, 4, 64, 64
1, 64202, Note_on_c, 4, 64, 123
1, 64203, Note_on_c, 4, 54, 123
1, 64217, Note_off_c, 4, 59, 64
1, 64280, Note_off_c, 2, 69, 64
1, 64282, Note_on_c, 2, 69, 127
1, 64355, Note_off_c, 4, 64, 64
1, 64359, Note_on_c, 4, 64, 123
1, 64359, Note_on_c, 2, 73, 125
1, 64360, Note_on_c, 4, 56, 123
1, 64365, Note_off_c, 2, 69, 64
1, 64371, Note_off_c, 4, 54, 64
1, 64430, Note_on_c, 2, 71, 125
1, 64437, Note_off_c, 2, 73, 64
1, 64505, Note_on_c, 2, 74, 125
1, 64512, Note_off_c, 2, 71, 64
1, 64580, Note_on_c, 2, 73, 125
1, 64587, Note_off_c, 2, 74, 64
1, 64646, Note_off_c, 4, 64, 64
1, 64659, Note_on_c, 4, 64, 123
1, 64660, Note_on_c, 4, 57, 123
1, 64664, Note_off_c, 4, 56, 64
1, 64733, Note_off_c, 2, 73, 64
1, 64737, Note_on_c, 2, 73, 125
1, 64810, Note_on_c, 2, 76, 125
1, 64811, Note_on_c, 4, 59, 125
1, 64811, Note_on_c, 4, 50, 123
1, 64819, Note_off_c, 2, 73, 64
1, 64826, Note_off_c, 4, 57, 64
1, 64827, Note_off_c, 4, 64, 64
1, 64883, Note_on_c, 2, 74, 125
1, 64889, Note_off_c, 2, 76, 64
1, 64956, Note_on_c, 2, 72, 125
1, 64964, Note_off_c, 2, 74, 64
1, 65037, Note_on_c, 2, 73, 125
1, 65044, Note_off_c, 2, 72, 64
1, 65117, Note_on_c, 4, 57, 123
1, 65118, Note_on_c, 4, 52, 123
1, 65120, Note_off_c, 4, 50, 64
1, 65121, Note_off_c, 4, 59, 64
1, 65188, Note_off_c, 2, 73, 64
1, 65194, Note_on_c, 2, 73, 125
1, 65263, Note_off_c, 4, 52, 64
1, 65267, Note_on_c, 2, 74, 125
1, 65268, Note_on_c, 4, 52, 123
1, 65268, Note_on_c, 4, 56, 123
1, 65274, Note_off_c, 2, 73, 64
1, 65278, Note_off_c, 4, 57, 64
1, 65339, Note_on_c, 2, 71, 125
1, 65347, Note_off_c, 2, 74, 64
1, 65404, Note_off_c, 2, 71, 64
1, 65412, Note_on_c, 2, 71, 125
1, 65412, Note_on_c, 2, 69, 127
1, 65413, Note_on_c, 4, 57, 123
1, 65424, Note_off_c, 4, 56, 64
1, 65549, Note_off_c, 4, 52, 64
1, 65561, Note_on_c, 4, 52, 125
1, 65574, Note_off_c, 4, 57, 64
1, 65638, Note_off_c, 2, 71, 64
1, 65641, Note_on_c, 2, 72, 125
1, 65716, Note_off_c, 2, 69, 64
1, 65720, Note_off_c, 4, 52, 64
1, 65721, Note_off_c, 4, 33, 64
1, 65721, Note_on_c, 2, 73, 125
1, 65722, Note_on_c, 2, 69, 127
1, 65722, Note_on_c, 4, 45, 125
1, 65734, Note_off_c, 2, 72, 64
1, 65875, Note_off_c, 2, 73, 64
1, 65875, Note_off_c, 2, 69, 64
1, 65878, Note_on_c, 2, 73, 125
1, 65878, Note_on_c, 2, 69, 127
1, 65879, Note_on_c, 4, 64, 125
1, 65879, Note_on_c, 4, 33, 127
1, 65897, Note_off_c, 4, 45, 64
1, 65956, Note_on_c, 4, 45, 125
1, 66022, Note_off_c, 4, 45, 64
1, 66031, Note_off_c, 4, 64, 64
1, 66032, Note_off_c, 2, 69, 64
1, 66032, Note_off_c, 2, 73, 64
1, 66034, Note_on_c, 2, 73, 125
1, 66035, Note_on_c, 2, 69, 127
1, 66035, Note_on_c, 4, 64, 125
1, 66036, Note_on_c, 4, 45, 125
1, 66105, Note_off_c, 4, 45, 64
1, 66119, Note_on_c, 4, 45, 125
1, 66145, Note_off_c, 4, 33, 64
1, 66193, Note_off_c, 4, 64, 64
1, 66194, Note_off_c, 2, 69, 64
1, 66194, Note_off_c, 2, 73, 64
1, 66197, Note_on_c, 2, 74, 125
1, 66197, Note_on_c, 2, 69, 127
1, 66197, Note_on_c, 4, 64, 125
1, 66198, Note_on_c, 4, 35, 125
1, 66235, Note_off_c, 4, 45, 64
1, 66274, Note_on_c, 4, 47, 125
1, 66310, Note_off_c, 4, 35, 64
1, 66346, Note_off_c, 4, 64, 64
1, 66347, Note_off_c, 2, 69, 64
1, 66347, Note_off_c, 2, 74, 64
1, 66349, Note_on_c, 2, 76, 125
1, 66350, Note_on_c, 4, 64, 125
1, 66350, Note_on_c, 2, 69, 127
1, 66351, Note_on_c, 4, 37, 125
1, 66392, Note_off_c, 4, 47, 64
1, 66432, Note_on_c, 4, 49, 125
1, 66493, Note_off_c, 4, 49, 64
1, 66501, Note_off_c, 2, 76, 64
1, 66501, Note_off_c, 2, 69, 64
1, 66506, Note_on_c, 2, 76, 125
1, 66506, Note_on_c, 2, 69, 127
1, 66507, Note_on_c, 4, 49, 125
1, 66565, Note_off_c, 4, 49, 64
1, 66577, Note_on_c, 4, 49, 125
1, 66604, Note_off_c, 4, 37, 64
1, 66651, Note_off_c, 2, 69, 64
1, 66652, Note_off_c, 2, 76, 64
1, 66655, Note_on_c, 1, 78, 125
1, 66655, Note_on_c, 2, 69, 127
1, 66656, Note_on_c, 4, 38, 125
1, 66698, Note_off_c, 4, 49, 64
1, 66738, Note_on_c, 1, 80, 125
1, 66739, Note_on_c, 4, 50, 125
1, 66753, Note_off_c, 1, 78, 64
1, 66780, Note_off_c, 4, 38, 64
1, 66780, Note_on_c, 1, 81, 125
1, 66792, Note_off_c, 1, 80, 64
1, 66811, Note_off_c, 4, 64, 64
1, 66813, Note_off_c, 2, 69, 64
1, 66817, Note_off_c, 4, 50, 64
1, 66817, Note_on_c, 2, 69, 127
1, 66818, Note_on_c, 4, 64, 125
1, 66818, Note_on_c, 4, 61, 125
1, 66819, Note_on_c, 4, 40, 125
1, 66870, Note_off_c, 1, 81, 64
1, 66897, Note_on_c, 4, 52, 125
1, 66971, Note_off_c, 4, 52, 64
1, 66972, Note_off_c, 2, 69, 64
1, 66972, Note_off_c, 4, 61, 64
1, 66972, Note_off_c, 4, 64, 64
1, 66975, Note_on_c, 2, 69, 127
1, 66976, Note_on_c, 4, 64, 125
1, 66976, Note_on_c, 4, 61, 125
1, 66977, Note_on_c, 4, 52, 125
1, 67048, Note_off_c, 4, 52, 64
1, 67052, Note_on_c, 4, 52, 125
1, 67117, Note_off_c, 4, 40, 64
1, 67121, Note_off_c, 4, 64, 64
1, 67122, Note_off_c, 2, 69, 64
1, 67126, Note_on_c, 2, 71, 127
1, 67127, Note_on_c, 2, 69, 127
1, 67127, Note_on_c, 4, 64, 125
1, 67128, Note_on_c, 4, 62, 125
1, 67128, Note_on_c, 4, 40, 125
1, 67143, Note_off_c, 4, 61, 64
1, 67191, Note_off_c, 4, 52, 64
1, 67203, Note_on_c, 4, 52, 125
1, 67272, Note_off_c, 4, 64, 64
1, 67272, Note_off_c, 2, 69, 64
1, 67275, Note_on_c, 2, 69, 127
1, 67275, Note_on_c, 4, 64, 125
1, 67276, Note_on_c, 4, 33, 127
1, 67276, Note_on_c, 4, 61, 125
1, 67288, Note_off_c, 2, 71, 64
1, 67292, Note_off_c, 4, 62, 64
1, 67293, Note_off_c, 4, 40, 64
1, 67446, Note_on_c, 4, 45, 124
1, 67536, Note_off_c, 4, 52, 64
1, 67699, Note_off_c, 4, 61, 64
1, 67700, Note_off_c, 4, 64, 64
1, 67700, Note_off_c, 2, 69, 64
1, 67785, Note_on_c, 2, 73, 127
1, 67785, Note_on_c, 4, 57, 117
1, 67845, Note_on_c, 4, 63, 119
1, 67901, Note_on_c, 4, 64, 119
1, 67912, Note_off_c, 4, 63, 64
1, 67949, Note_off_c, 4, 57, 64
1, 67949, Note_off_c, 2, 73, 64
1, 67952, Note_on_c, 2, 73, 127
1, 67952, Note_on_c, 4, 57, 119
1, 67964, Note_off_c, 4, 64, 64
1, 68003, Note_on_c, 4, 63, 119
1, 68060, Note_on_c, 4, 64, 119
1, 68076, Note_off_c, 4, 63, 64
1, 68116, Note_off_c, 4, 57, 64
1, 68117, Note_off_c, 2, 73, 64
1, 68122, Note_on_c, 2, 76, 125
1, 68122, Note_on_c, 4, 59, 121
1, 68140, Note_off_c, 4, 64, 64
1, 68159, Note_on_c, 2, 74, 125
1, 68165, Note_off_c, 2, 76, 64
1, 68194, Note_on_c, 2, 76, 125
1, 68194, Note_on_c, 4, 63, 119
1, 68198, Note_off_c, 2, 74, 64
1, 68225, Note_on_c, 2, 74, 125
1, 68231, Note_off_c, 2, 76, 64
1, 68256, Note_on_c, 2, 73, 125
1, 68256, Note_on_c, 4, 64, 119
1, 68261, Note_off_c, 2, 74, 64
1, 68272, Note_off_c, 4, 63, 64
1, 68290, Note_on_c, 2, 74, 125
1, 68293, Note_off_c, 2, 73, 64
1, 68315, Note_off_c, 4, 59, 64
1, 68320, Note_on_c, 2, 76, 125
1, 68321, Note_on_c, 4, 61, 121
1, 68323, Note_off_c, 2, 74, 64
1, 68333, Note_off_c, 4, 64, 64
1, 68373, Note_on_c, 4, 63, 119
1, 68427, Note_on_c, 4, 64, 119
1, 68440, Note_off_c, 4, 63, 64
1, 68475, Note_off_c, 4, 61, 64
1, 68481, Note_on_c, 4, 61, 121
1, 68492, Note_off_c, 4, 64, 64
1, 68531, Note_on_c, 4, 63, 119
1, 68583, Note_on_c, 4, 64, 119
1, 68594, Note_off_c, 4, 63, 64
1, 68621, Note_off_c, 2, 76, 64
1, 68630, Note_off_c, 4, 61, 64
1, 68634, Note_on_c, 1, 78, 127
1, 68635, Note_on_c, 4, 61, 121
1, 68651, Note_off_c, 4, 64, 64
1, 68682, Note_on_c, 2, 76, 127
1, 68695, Note_off_c, 1, 78, 64
1, 68696, Note_on_c, 4, 63, 119
1, 68723, Note_on_c, 2, 74, 127
1, 68737, Note_off_c, 2, 76, 64
1, 68753, Note_on_c, 4, 64, 119
1, 68768, Note_off_c, 4, 63, 64
1, 68769, Note_on_c, 2, 73, 127
1, 68784, Note_off_c, 2, 74, 64
1, 68811, Note_off_c, 4, 61, 64
1, 68817, Note_on_c, 2, 71, 127
1, 68818, Note_on_c, 4, 56, 119
1, 68832, Note_off_c, 2, 73, 64
1, 68832, Note_off_c, 4, 64, 64
1, 68875, Note_on_c, 4, 63, 119
1, 68932, Note_on_c, 4, 64, 119
1, 68948, Note_off_c, 4, 63, 64
1, 68982, Note_off_c, 4, 56, 64
1, 68983, Note_off_c, 2, 71, 64
1, 68987, Note_on_c, 2, 71, 127
1, 68987, Note_on_c, 4, 56, 119
1, 69000, Note_off_c, 4, 64, 64
1, 69038, Note_on_c, 4, 63, 119
1, 69086, Note_on_c, 4, 64, 119
1, 69099, Note_off_c, 4, 63, 64
1, 69132, Note_off_c, 4, 56, 64
1, 69132, Note_off_c, 2, 71, 64
1, 69137, Note_on_c, 2, 74, 125
1, 69137, Note_on_c, 4, 57, 119
1, 69153, Note_off_c, 4, 64, 64
1, 69170, Note_on_c, 2, 73, 125
1, 69174, Note_off_c, 2, 74, 64
1, 69203, Note_on_c, 2, 74, 125
1, 69204, Note_on_c, 4, 63, 119
1, 69207, Note_off_c, 2, 73, 64
1, 69235, Note_on_c, 2, 73, 125
1, 69241, Note_off_c, 2, 74, 64
1, 69265, Note_on_c, 2, 71, 125
1, 69266, Note_on_c, 4, 64, 119
1, 69270, Note_off_c, 2, 73, 64
1, 69282, Note_off_c, 4, 63, 64
1, 69297, Note_on_c, 2, 73, 125
1, 69301, Note_off_c, 2, 71, 64
1, 69322, Note_off_c, 4, 57, 64
1, 69326, Note_on_c, 2, 74, 125
1, 69326, Note_on_c, 4, 59, 121
1, 69329, Note_off_c, 2, 73, 64
1, 69338, Note_off_c, 4, 64, 64
1, 69379, Note_on_c, 4, 63, 119
1, 69432, Note_on_c, 4, 64, 119
1, 69446, Note_off_c, 4, 63, 64
1, 69479, Note_off_c, 4, 59, 64
1, 69482, Note_on_c, 4, 59, 121
1, 69496, Note_off_c, 4, 64, 64
1, 69534, Note_on_c, 4, 63, 119
1, 69585, Note_on_c, 4, 64, 119
1, 69599, Note_off_c, 4, 63, 64
1, 69622, Note_off_c, 2, 74, 64
1, 69631, Note_off_c, 4, 59, 64
1, 69635, Note_on_c, 2, 76, 127
1, 69636, Note_on_c, 4, 56, 119
1, 69648, Note_off_c, 4, 64, 64
1, 69678, Note_on_c, 2, 74, 127
1, 69684, Note_off_c, 2, 76, 64
1, 69694, Note_on_c, 4, 63, 119
1, 69722, Note_on_c, 2, 73, 127
1, 69728, Note_off_c, 2, 74, 64
1, 69752, Note_on_c, 4, 64, 119
1, 69767, Note_off_c, 4, 63, 64
1, 69767, Note_on_c, 2, 71, 127
1, 69773, Note_off_c, 2, 73, 64
1, 69804, Note_off_c, 4, 56, 64
1, 69810, Note_on_c, 2, 69, 127
1, 69810, Note_on_c, 4, 54, 119
1, 69815, Note_off_c, 2, 71, 64
1, 69822, Note_off_c, 4, 64, 64
1, 69864, Note_on_c, 4, 63, 119
1, 69918, Note_on_c, 4, 64, 119
1, 69932, Note_off_c, 4, 63, 64
1, 69968, Note_off_c, 4, 54, 64
1, 69969, Note_off_c, 2, 69, 64
1, 69973, Note_on_c, 2, 69, 127
1, 69973, Note_on_c, 4, 54, 119
1, 69985, Note_off_c, 4, 64, 64
1, 70024, Note_on_c, 4, 63, 119
1, 70076, Note_on_c, 4, 64, 119
1, 70089, Note_off_c, 4, 63, 64
1, 70124, Note_off_c, 4, 54, 64
1, 70124, Note_off_c, 2, 69, 64
1, 70128, Note_on_c, 2, 74, 125
1, 70129, Note_on_c, 4, 54, 119
1, 70141, Note_off_c, 4, 64, 64
1, 70156, Note_on_c, 2, 73, 125
1, 70162, Note_off_c, 2, 74, 64
1, 70191, Note_on_c, 2, 74, 125
1, 70191, Note_on_c, 4, 63, 119
1, 70196, Note_off_c, 2, 73, 64
1, 70223, Note_on_c, 2, 73, 125
1, 70228, Note_off_c, 2, 74, 64
1, 70253, Note_on_c, 2, 71, 125
1, 70254, Note_on_c, 4, 64, 119
1, 70258, Note_off_c, 2, 73, 64
1, 70270, Note_off_c, 4, 63, 64
1, 70284, Note_on_c, 2, 73, 125
1, 70287, Note_off_c, 2, 71, 64
1, 70306, Note_off_c, 4, 54, 64
1, 70310, Note_on_c, 2, 71, 125
1, 70310, Note_on_c, 4, 56, 119
1, 70315, Note_off_c, 2, 73, 64
1, 70324, Note_off_c, 4, 64, 64
1, 70367, Note_on_c, 4, 63, 119
1, 70416, Note_on_c, 4, 64, 119
1, 70430, Note_off_c, 4, 63, 64
1, 70464, Note_off_c, 4, 56, 64
1, 70465, Note_off_c, 2, 71, 64
1, 70469, Note_on_c, 2, 71, 127
1, 70470, Note_on_c, 4, 56, 119
1, 70482, Note_off_c, 4, 64, 64
1, 70521, Note_on_c, 4, 63, 119
1, 70572, Note_on_c, 4, 64, 119
1, 70584, Note_off_c, 4, 63, 64
1, 70624, Note_off_c, 2, 71, 64
1, 70624, Note_off_c, 4, 56, 64
1, 70629, Note_on_c, 2, 73, 125
1, 70629, Note_on_c, 4, 56, 119
1, 70641, Note_off_c, 4, 64, 64
1, 70658, Note_on_c, 2, 71, 125
1, 70664, Note_off_c, 2, 73, 64
1, 70689, Note_on_c, 2, 73, 125
1, 70690, Note_on_c, 4, 63, 119
1, 70692, Note_off_c, 2, 71, 64
1, 70717, Note_on_c, 2, 71, 125
1, 70721, Note_off_c, 2, 73, 64
1, 70744, Note_on_c, 4, 64, 119
1, 70744, Note_on_c, 2, 69, 125
1, 70747, Note_off_c, 2, 71, 64
1, 70757, Note_off_c, 4, 63, 64
1, 70772, Note_on_c, 2, 71, 125
1, 70776, Note_off_c, 2, 69, 64
1, 70795, Note_off_c, 4, 56, 64
1, 70799, Note_on_c, 2, 73, 125
1, 70799, Note_on_c, 4, 57, 119
1, 70801, Note_off_c, 2, 71, 64
1, 70812, Note_off_c, 4, 64, 64
1, 70851, Note_on_c, 4, 61, 121
1, 70906, Note_on_c, 4, 64, 119
1, 70919, Note_off_c, 4, 61, 64
1, 70961, Note_off_c, 2, 73, 64
1, 70965, Note_off_c, 4, 57, 64
1, 70966, Note_on_c, 2, 73, 127
1, 70966, Note_on_c, 4, 57, 119
1, 70978, Note_off_c, 4, 64, 64
1, 71016, Note_on_c, 4, 61, 121
1, 71064, Note_on_c, 4, 64, 119
1, 71077, Note_off_c, 4, 61, 64
1, 71112, Note_off_c, 2, 73, 64
1, 71113, Note_off_c, 4, 57, 64
1, 71116, Note_on_c, 2, 76, 127
1, 71116, Note_on_c, 2, 71, 127
1, 71116, Note_on_c, 4, 50, 119
1, 71134, Note_off_c, 4, 64, 64
1, 71161, Note_on_c, 2, 74, 127
1, 71171, Note_off_c, 2, 76, 64
1, 71171, Note_on_c, 4, 54, 119
1, 71221, Note_on_c, 4, 59, 121
1, 71235, Note_off_c, 4, 54, 64
1, 71271, Note_off_c, 2, 74, 64
1, 71271, Note_off_c, 2, 71, 64
1, 71272, Note_off_c, 4, 50, 64
1, 71274, Note_on_c, 2, 73, 127
1, 71275, Note_on_c, 2, 69, 127
1, 71275, Note_on_c, 4, 52, 119
1, 71289, Note_off_c, 4, 59, 64
1, 71328, Note_on_c, 4, 57, 119
1, 71382, Note_on_c, 4, 61, 121
1, 71395, Note_off_c, 4, 57, 64
1, 71435, Note_off_c, 4, 52, 64
1, 71436, Note_on_c, 4, 52, 119
1, 71451, Note_off_c, 4, 61, 64
1, 71489, Note_on_c, 4, 57, 121
1, 71541, Note_on_c, 4, 61, 123
1, 71555, Note_off_c, 4, 57, 64
1, 71592, Note_off_c, 2, 69, 64
1, 71593, Note_off_c, 2, 73, 64
1, 71595, Note_off_c, 4, 52, 64
1, 71596, Note_off_c, 4, 45, 64
1, 71597, Note_on_c, 2, 71, 127
1, 71597, Note_on_c, 2, 69, 127
1, 71598, Note_on_c, 4, 52, 121
1, 71610, Note_off_c, 4, 61, 64
1, 71652, Note_on_c, 4, 56, 121
1, 71710, Note_on_c, 4, 59, 123
1, 71725, Note_off_c, 4, 56, 64
1, 71766, Note_off_c, 2, 69, 64
1, 71766, Note_off_c, 2, 71, 64
1, 71769, Note_off_c, 4, 52, 64
1, 71769, Note_on_c, 2, 73, 127
1, 71770, Note_on_c, 4, 45, 127
1, 71824, Note_on_c, 2, 69, 127
1, 71859, Note_off_c, 2, 73, 64
1, 71874, Note_off_c, 4, 59, 64
1, 71876, Note_on_c, 4, 64, 125
1, 71908, Note_off_c, 2, 69, 64
1, 71926, Note_on_c, 2, 73, 127
1, 71927, Note_on_c, 4, 56, 127
1, 71965, Note_on_c, 4, 57, 127
1, 71979, Note_off_c, 4, 56, 64
1, 71979, Note_on_c, 2, 69, 127
1, 72009, Note_off_c, 2, 73, 64
1, 72024, Note_off_c, 4, 64, 64
1, 72024, Note_on_c, 4, 64, 121
1, 72058, Note_off_c, 2, 69, 64
1, 72075, Note_on_c, 2, 74, 127
1, 72131, Note_on_c, 2, 71, 127
1, 72156, Note_off_c, 4, 45, 64
1, 72163, Note_off_c, 2, 74, 64
1, 72179, Note_off_c, 4, 64, 64
1, 72180, Note_on_c, 4, 64, 121
1, 72213, Note_off_c, 2, 71, 64
1, 72231, Note_on_c, 4, 45, 127
1, 72231, Note_on_c, 2, 76, 127
1, 72254, Note_off_c, 4, 57, 64
1, 72285, Note_on_c, 2, 73, 127
1, 72320, Note_off_c, 2, 76, 64
1, 72337, Note_off_c, 4, 64, 64
1, 72339, Note_on_c, 4, 64, 121
1, 72373, Note_off_c, 2, 73, 64
1, 72393, Note_on_c, 2, 76, 127
1, 72393, Note_on_c, 4, 56, 127
1, 72436, Note_on_c, 4, 57, 127
1, 72449, Note_off_c, 4, 56, 64
1, 72450, Note_on_c, 2, 73, 127
1, 72483, Note_off_c, 2, 76, 64
1, 72500, Note_off_c, 4, 64, 64
1, 72501, Note_on_c, 4, 64, 121
1, 72534, Note_off_c, 2, 73, 64
1, 72551, Note_on_c, 1, 78, 127
1, 72591, Note_on_c, 2, 76, 127
1, 72595, Note_off_c, 1, 78, 64
1, 72628, Note_off_c, 4, 45, 64
1, 72629, Note_on_c, 2, 74, 127
1, 72642, Note_off_c, 2, 76, 64
1, 72654, Note_off_c, 4, 64, 64
1, 72669, Note_on_c, 2, 73, 127
1, 72683, Note_off_c, 2, 74, 64
1, 72709, Note_on_c, 2, 71, 127
1, 72710, Note_on_c, 4, 40, 127
1, 72722, Note_off_c, 2, 73, 64
1, 72735, Note_off_c, 4, 57, 64
1, 72762, Note_off_c, 4, 33, 64
1, 72763, Note_on_c, 2, 69, 127
1, 72796, Note_off_c, 2, 71, 64
1, 72815, Note_on_c, 4, 64, 125
1, 72846, Note_off_c, 2, 69, 64
1, 72861, Note_on_c, 2, 71, 127
1, 72862, Note_on_c, 4, 51, 127
1, 72899, Note_on_c, 4, 52, 127
1, 72912, Note_off_c, 4, 51, 64
1, 72912, Note_on_c, 2, 69, 127
1, 72946, Note_off_c, 2, 71, 64
1, 72960, Note_off_c, 4, 64, 64
1, 72961, Note_on_c, 4, 64, 121
1, 72995, Note_off_c, 2, 69, 64
1, 73014, Note_on_c, 2, 73, 127
1, 73068, Note_on_c, 2, 69, 127
1, 73093, Note_off_c, 4, 40, 64
1, 73101, Note_off_c, 2, 73, 64
1, 73116, Note_off_c, 4, 64, 64
1, 73118, Note_on_c, 4, 64, 121
1, 73151, Note_off_c, 2, 69, 64
1, 73169, Note_on_c, 4, 40, 127
1, 73169, Note_on_c, 2, 74, 127
1, 73195, Note_off_c, 4, 52, 64
1, 73223, Note_on_c, 2, 71, 127
1, 73258, Note_off_c, 2, 74, 64
1, 73275, Note_off_c, 4, 64, 64
1, 73275, Note_on_c, 4, 64, 121
1, 73309, Note_off_c, 2, 71, 64
1, 73327, Note_on_c, 2, 74, 127
1, 73327, Note_on_c, 4, 51, 127
1, 73367, Note_on_c, 4, 52, 127
1, 73382, Note_off_c, 4, 51, 64
1, 73382, Note_on_c, 2, 71, 127
1, 73417, Note_off_c, 2, 74, 64
1, 73432, Note_off_c, 4, 64, 64
1, 73435, Note_on_c, 4, 64, 121
1, 73465, Note_off_c, 2, 71, 64
1, 73481, Note_on_c, 2, 76, 127
1, 73519, Note_on_c, 2, 74, 127
1, 73531, Note_off_c, 2, 76, 64
1, 73556, Note_off_c, 4, 40, 64
1, 73556, Note_on_c, 2, 73, 127
1, 73568, Note_off_c, 2, 74, 64
1, 73579, Note_off_c, 4, 64, 64
1, 73595, Note_on_c, 2, 71, 127
1, 73608, Note_off_c, 2, 73, 64
1, 73637, Note_on_c, 2, 69, 127
1, 73638, Note_on_c, 4, 42, 127
1, 73654, Note_off_c, 2, 71, 64
1, 73669, Note_off_c, 4, 52, 64
1, 73696, Note_on_c, 4, 64, 121
1, 73730, Note_off_c, 2, 69, 64
1, 73748, Note_on_c, 4, 61, 127
1, 73782, Note_off_c, 4, 64, 64
1, 73801, Note_on_c, 2, 69, 127
1, 73802, Note_on_c, 4, 53, 127
1, 73843, Note_on_c, 4, 54, 127
1, 73858, Note_off_c, 4, 53, 64
1, 73859, Note_on_c, 4, 64, 121
1, 73892, Note_off_c, 2, 69, 64
1, 73908, Note_off_c, 4, 61, 64
1, 73909, Note_on_c, 4, 61, 127
1, 73943, Note_off_c, 4, 64, 64
1, 73958, Note_off_c, 4, 54, 64
1, 73963, Note_on_c, 2, 71, 127
1, 73963, Note_on_c, 4, 54, 127
1, 74006, Note_on_c, 4, 56, 127
1, 74021, Note_off_c, 4, 54, 64
1, 74022, Note_on_c, 4, 64, 121
1, 74047, Note_off_c, 4, 42, 64
1, 74053, Note_off_c, 2, 71, 64
1, 74070, Note_off_c, 4, 61, 64
1, 74071, Note_on_c, 4, 62, 122
1, 74104, Note_off_c, 4, 64, 64
1, 74122, Note_on_c, 2, 73, 127
1, 74123, Note_on_c, 4, 45, 127
1, 74165, Note_off_c, 4, 56, 64
1, 74177, Note_on_c, 2, 69, 127
1, 74209, Note_off_c, 2, 73, 64
1, 74227, Note_off_c, 4, 62, 64
1, 74229, Note_on_c, 4, 64, 121
1, 74263, Note_off_c, 2, 69, 64
1, 74282, Note_on_c, 2, 73, 127
1, 74283, Note_on_c, 4, 56, 127
1, 74324, Note_on_c, 4, 57, 127
1, 74337, Note_off_c, 4, 56, 64
1, 74338, Note_on_c, 2, 69, 127
1, 74371, Note_off_c, 2, 73, 64
1, 74388, Note_off_c, 4, 64, 64
1, 74390, Note_on_c, 4, 64, 121
1, 74423, Note_off_c, 2, 69, 64
1, 74438, Note_off_c, 4, 57, 64
1, 74440, Note_on_c, 2, 74, 127
1, 74440, Note_on_c, 4, 49, 127
1, 74477, Note_on_c, 4, 50, 127
1, 74491, Note_off_c, 4, 49, 64
1, 74491, Note_on_c, 2, 71, 127
1, 74515, Note_off_c, 4, 45, 64
1, 74522, Note_off_c, 2, 74, 64
1, 74538, Note_off_c, 4, 64, 64
1, 74540, Note_on_c, 4, 66, 127
1, 74572, Note_off_c, 2, 71, 64
1, 74588, Note_off_c, 4, 50, 64
1, 74590, Note_on_c, 4, 40, 127
1, 74590, Note_on_c, 2, 73, 127
1, 74646, Note_on_c, 2, 69, 127
1, 74681, Note_off_c, 2, 73, 64
1, 74696, Note_off_c, 4, 66, 64
1, 74698, Note_on_c, 4, 64, 121
1, 74731, Note_off_c, 2, 69, 64
1, 74748, Note_on_c, 2, 73, 127
1, 74748, Note_on_c, 4, 51, 127
1, 74785, Note_on_c, 4, 52, 127
1, 74801, Note_off_c, 4, 51, 64
1, 74801, Note_on_c, 2, 69, 127
1, 74832, Note_off_c, 2, 73, 64
1, 74848, Note_off_c, 4, 64, 64
1, 74850, Note_on_c, 4, 64, 121
1, 74880, Note_off_c, 2, 69, 64
1, 74894, Note_off_c, 4, 52, 64
1, 74898, Note_on_c, 2, 71, 127
1, 74898, Note_on_c, 4, 51, 127
1, 74933, Note_on_c, 4, 52, 127
1, 74947, Note_off_c, 4, 51, 64
1, 74948, Note_on_c, 2, 69, 127
1, 74973, Note_off_c, 4, 40, 64
1, 74981, Note_off_c, 2, 71, 64
1, 74999, Note_off_c, 4, 64, 64
1, 74999, Note_on_c, 4, 62, 122
1, 75034, Note_off_c, 2, 69, 64
1, 75053, Note_on_c, 2, 69, 127
1, 75054, Note_on_c, 4, 33, 127
1, 75089, Note_off_c, 4, 62, 64
1, 75095, Note_off_c, 4, 52, 64
1, 75106, Note_on_c, 4, 64, 121
1, 75139, Note_off_c, 2, 69, 64
1, 75156, Note_on_c, 4, 61, 127
1, 75168, Note_on_c, 4, 44, 127
1, 75189, Note_off_c, 4, 64, 64
1, 75208, Note_on_c, 4, 45, 127
1, 75208, Note_on_c, 4, 57, 127
1, 75220, Note_off_c, 4, 44, 64
1, 75241, Note_off_c, 4, 61, 64
1, 75507, Note_off_c, 4, 57, 64
1, 75516, Note_on_c, 2, 73, 125
1, 75517, Note_on_c, 4, 57, 119
1, 75578, Note_on_c, 4, 63, 119
1, 75634, Note_on_c, 4, 64, 119
1, 75646, Note_off_c, 4, 63, 64
1, 75680, Note_off_c, 4, 57, 64
1, 75681, Note_off_c, 2, 73, 64
1, 75685, Note_on_c, 2, 73, 125
1, 75686, Note_on_c, 4, 57, 119
1, 75697, Note_off_c, 4, 64, 64
1, 75736, Note_on_c, 4, 63, 119
1, 75793, Note_on_c, 4, 64, 119
1, 75808, Note_off_c, 4, 63, 64
1, 75850, Note_off_c, 4, 57, 64
1, 75851, Note_off_c, 2, 73, 64
1, 75855, Note_on_c, 2, 76, 123
1, 75856, Note_on_c, 4, 59, 121
1, 75872, Note_off_c, 4, 64, 64
1, 75893, Note_on_c, 2, 74, 123
1, 75897, Note_off_c, 2, 76, 64
1, 75925, Note_on_c, 2, 76, 123
1, 75926, Note_on_c, 4, 63, 119
1, 75932, Note_off_c, 2, 74, 64
1, 75959, Note_on_c, 2, 74, 123
1, 75962, Note_off_c, 2, 76, 64
1, 75990, Note_on_c, 2, 73, 123
1, 75990, Note_on_c, 4, 64, 119
1, 75994, Note_off_c, 2, 74, 64
1, 76006, Note_off_c, 4, 63, 64
1, 76021, Note_on_c, 2, 74, 123
1, 76027, Note_off_c, 2, 73, 64
1, 76048, Note_off_c, 4, 59, 64
1, 76052, Note_on_c, 2, 76, 123
1, 76053, Note_on_c, 4, 61, 121
1, 76055, Note_off_c, 2, 74, 64
1, 76067, Note_off_c, 4, 64, 64
1, 76105, Note_on_c, 4, 63, 119
1, 76159, Note_on_c, 4, 64, 119
1, 76172, Note_off_c, 4, 63, 64
1, 76208, Note_off_c, 4, 61, 64
1, 76212, Note_on_c, 4, 61, 121
1, 76225, Note_off_c, 4, 64, 64
1, 76263, Note_on_c, 4, 63, 119
1, 76315, Note_on_c, 4, 64, 119
1, 76327, Note_off_c, 4, 63, 64
1, 76354, Note_off_c, 2, 76, 64
1, 76363, Note_off_c, 4, 61, 64
1, 76367, Note_on_c, 1, 78, 125
1, 76368, Note_on_c, 4, 61, 121
1, 76383, Note_off_c, 4, 64, 64
1, 76414, Note_on_c, 2, 76, 125
1, 76428, Note_off_c, 1, 78, 64
1, 76428, Note_on_c, 4, 63, 119
1, 76455, Note_on_c, 2, 74, 125
1, 76471, Note_off_c, 2, 76, 64
1, 76486, Note_on_c, 4, 64, 119
1, 76501, Note_off_c, 4, 63, 64
1, 76502, Note_on_c, 2, 73, 125
1, 76516, Note_off_c, 2, 74, 64
1, 76545, Note_off_c, 4, 61, 64
1, 76548, Note_on_c, 2, 71, 125
1, 76549, Note_on_c, 4, 56, 119
1, 76563, Note_off_c, 2, 73, 64
1, 76563, Note_off_c, 4, 64, 64
1, 76606, Note_on_c, 4, 63, 119
1, 76666, Note_on_c, 4, 64, 119
1, 76679, Note_off_c, 4, 63, 64
1, 76714, Note_off_c, 2, 71, 64
1, 76714, Note_off_c, 4, 56, 64
1, 76718, Note_on_c, 2, 71, 125
1, 76719, Note_on_c, 4, 56, 119
1, 76731, Note_off_c, 4, 64, 64
1, 76767, Note_on_c, 4, 63, 119
1, 76815, Note_on_c, 4, 64, 119
1, 76829, Note_off_c, 4, 63, 64
1, 76861, Note_off_c, 4, 56, 64
1, 76862, Note_off_c, 2, 71, 64
1, 76866, Note_on_c, 2, 74, 123
1, 76867, Note_on_c, 4, 57, 119
1, 76883, Note_off_c, 4, 64, 64
1, 76900, Note_on_c, 2, 73, 123
1, 76904, Note_off_c, 2, 74, 64
1, 76934, Note_on_c, 2, 74, 123
1, 76935, Note_on_c, 4, 63, 119
1, 76939, Note_off_c, 2, 73, 64
1, 76968, Note_on_c, 2, 73, 123
1, 76974, Note_off_c, 2, 74, 64
1, 76999, Note_on_c, 4, 64, 119
1, 76999, Note_on_c, 2, 71, 123
1, 77004, Note_off_c, 2, 73, 64
1, 77015, Note_off_c, 4, 63, 64
1, 77028, Note_on_c, 2, 73, 123
1, 77034, Note_off_c, 2, 71, 64
1, 77053, Note_off_c, 4, 57, 64
1, 77059, Note_on_c, 2, 74, 123
1, 77060, Note_on_c, 4, 59, 121
1, 77062, Note_off_c, 2, 73, 64
1, 77072, Note_off_c, 4, 64, 64
1, 77112, Note_on_c, 4, 63, 119
1, 77166, Note_on_c, 4, 64, 119
1, 77177, Note_off_c, 4, 63, 64
1, 77212, Note_off_c, 4, 59, 64
1, 77216, Note_on_c, 4, 59, 121
1, 77229, Note_off_c, 4, 64, 64
1, 77268, Note_on_c, 4, 63, 119
1, 77318, Note_on_c, 4, 64, 119
1, 77330, Note_off_c, 4, 63, 64
1, 77355, Note_off_c, 2, 74, 64
1, 77363, Note_off_c, 4, 59, 64
1, 77366, Note_on_c, 2, 76, 125
1, 77367, Note_on_c, 4, 56, 119
1, 77381, Note_off_c, 4, 64, 64
1, 77412, Note_on_c, 2, 74, 125
1, 77417, Note_off_c, 2, 76, 64
1, 77425, Note_on_c, 4, 63, 119
1, 77454, Note_on_c, 2, 73, 125
1, 77461, Note_off_c, 2, 74, 64
1, 77484, Note_on_c, 4, 64, 119
1, 77496, Note_on_c, 2, 71, 125
1, 77500, Note_off_c, 4, 63, 64
1, 77506, Note_off_c, 2, 73, 64
1, 77538, Note_off_c, 4, 56, 64
1, 77542, Note_on_c, 2, 69, 125
1, 77543, Note_on_c, 4, 54, 119
1, 77545, Note_off_c, 2, 71, 64
1, 77556, Note_off_c, 4, 64, 64
1, 77597, Note_on_c, 4, 63, 119
1, 77651, Note_on_c, 4, 64, 119
1, 77664, Note_off_c, 4, 63, 64
1, 77700, Note_off_c, 4, 54, 64
1, 77701, Note_off_c, 2, 69, 64
1, 77705, Note_on_c, 2, 69, 125
1, 77706, Note_on_c, 4, 54, 119
1, 77718, Note_off_c, 4, 64, 64
1, 77758, Note_on_c, 4, 63, 119
1, 77808, Note_on_c, 4, 64, 119
1, 77822, Note_off_c, 4, 63, 64
1, 77857, Note_off_c, 2, 69, 64
1, 77857, Note_off_c, 4, 54, 64
1, 77860, Note_on_c, 4, 54, 119
1, 77860, Note_on_c, 2, 74, 121
1, 77875, Note_off_c, 4, 64, 64
1, 77889, Note_on_c, 2, 73, 121
1, 77894, Note_off_c, 2, 74, 64
1, 77924, Note_on_c, 4, 63, 119
1, 77924, Note_on_c, 2, 74, 121
1, 77928, Note_off_c, 2, 73, 64
1, 77957, Note_on_c, 2, 73, 121
1, 77961, Note_off_c, 2, 74, 64
1, 77988, Note_on_c, 2, 71, 121
1, 77988, Note_on_c, 4, 64, 119
1, 77990, Note_off_c, 2, 73, 64
1, 78002, Note_off_c, 4, 63, 64
1, 78016, Note_on_c, 2, 73, 121
1, 78021, Note_off_c, 2, 71, 64
1, 78038, Note_off_c, 4, 54, 64
1, 78044, Note_on_c, 2, 71, 121
1, 78045, Note_on_c, 4, 56, 119
1, 78047, Note_off_c, 2, 73, 64
1, 78057, Note_off_c, 4, 64, 64
1, 78099, Note_on_c, 4, 63, 119
1, 78149, Note_on_c, 4, 64, 119
1, 78163, Note_off_c, 4, 63, 64
1, 78197, Note_off_c, 4, 56, 64
1, 78197, Note_off_c, 2, 71, 64
1, 78202, Note_on_c, 2, 71, 125
1, 78203, Note_on_c, 4, 56, 119
1, 78216, Note_off_c, 4, 64, 64
1, 78255, Note_on_c, 4, 63, 119
1, 78305, Note_on_c, 4, 64, 119
1, 78318, Note_off_c, 4, 63, 64
1, 78356, Note_off_c, 4, 56, 64
1, 78357, Note_off_c, 2, 71, 64
1, 78361, Note_on_c, 2, 73, 121
1, 78362, Note_on_c, 4, 56, 119
1, 78374, Note_off_c, 4, 64, 64
1, 78393, Note_on_c, 2, 71, 121
1, 78396, Note_off_c, 2, 73, 64
1, 78422, Note_on_c, 4, 63, 119
1, 78422, Note_on_c, 2, 73, 121
1, 78426, Note_off_c, 2, 71, 64
1, 78452, Note_on_c, 2, 71, 121
1, 78455, Note_off_c, 2, 73, 64
1, 78477, Note_on_c, 2, 69, 121
1, 78477, Note_on_c, 4, 64, 119
1, 78481, Note_off_c, 2, 71, 64
1, 78491, Note_off_c, 4, 63, 64
1, 78504, Note_on_c, 2, 71, 121
1, 78508, Note_off_c, 2, 69, 64
1, 78527, Note_off_c, 4, 56, 64
1, 78531, Note_on_c, 2, 73, 121
1, 78532, Note_on_c, 4, 57, 119
1, 78534, Note_off_c, 2, 71, 64
1, 78544, Note_off_c, 4, 64, 64
1, 78584, Note_on_c, 4, 61, 121
1, 78638, Note_on_c, 4, 64, 119
1, 78653, Note_off_c, 4, 61, 64
1, 78695, Note_off_c, 2, 73, 64
1, 78697, Note_off_c, 4, 57, 64
1, 78698, Note_on_c, 2, 73, 127
1, 78698, Note_on_c, 4, 57, 119
1, 78712, Note_off_c, 4, 64, 64
1, 78748, Note_on_c, 4, 61, 121
1, 78796, Note_on_c, 4, 64, 119
1, 78810, Note_off_c, 4, 61, 64
1, 78844, Note_off_c, 2, 73, 64
1, 78846, Note_off_c, 4, 57, 64
1, 78848, Note_on_c, 2, 76, 127
1, 78849, Note_on_c, 2, 71, 127
1, 78849, Note_on_c, 4, 50, 119
1, 78866, Note_off_c, 4, 64, 64
1, 78893, Note_on_c, 2, 74, 127
1, 78903, Note_off_c, 2, 76, 64
1, 78903, Note_on_c, 4, 54, 119
1, 78954, Note_on_c, 4, 59, 121
1, 78967, Note_off_c, 4, 54, 64
1, 79004, Note_off_c, 2, 74, 64
1, 79004, Note_off_c, 2, 71, 64
1, 79007, Note_off_c, 4, 50, 64
1, 79007, Note_on_c, 2, 73, 127
1, 79008, Note_on_c, 2, 69, 127
1, 79008, Note_on_c, 4, 52, 121
1, 79022, Note_off_c, 4, 59, 64
1, 79060, Note_on_c, 4, 57, 121
1, 79114, Note_on_c, 4, 61, 123
1, 79127, Note_off_c, 4, 57, 64
1, 79169, Note_off_c, 4, 52, 64
1, 79169, Note_on_c, 4, 52, 121
1, 79182, Note_off_c, 4, 61, 64
1, 79223, Note_on_c, 4, 57, 121
1, 79274, Note_on_c, 4, 61, 123
1, 79288, Note_off_c, 4, 57, 64
1, 79325, Note_off_c, 2, 73, 64
1, 79325, Note_off_c, 2, 69, 64
1, 79328, Note_off_c, 4, 52, 64
1, 79330, Note_off_c, 4, 45, 64
1, 79331, Note_on_c, 2, 71, 127
1, 79331, Note_on_c, 2, 69, 127
1, 79332, Note_on_c, 4, 52, 121
1, 79344, Note_off_c, 4, 61, 64
1, 79386, Note_on_c, 4, 56, 121
1, 79443, Note_on_c, 4, 59, 123
1, 79459, Note_off_c, 4, 56, 64
1, 79499, Note_off_c, 2, 69, 64
1, 79500, Note_off_c, 2, 71, 64
1, 79502, Note_off_c, 4, 52, 64
1, 79502, Note_on_c, 2, 73, 127
1, 79503, Note_on_c, 4, 45, 127
1, 79559, Note_on_c, 2, 69, 127
1, 79592, Note_off_c, 2, 73, 64
1, 79608, Note_off_c, 4, 59, 64
1, 79609, Note_on_c, 4, 64, 125
1, 79642, Note_off_c, 2, 69, 64
1, 79659, Note_on_c, 2, 73, 127
1, 79660, Note_on_c, 4, 56, 127
1, 79697, Note_on_c, 4, 57, 127
1, 79710, Note_off_c, 4, 56, 64
1, 79711, Note_on_c, 2, 69, 127
1, 79742, Note_off_c, 2, 73, 64
1, 79757, Note_off_c, 4, 64, 64
1, 79758, Note_on_c, 4, 64, 121
1, 79791, Note_off_c, 2, 69, 64
1, 79808, Note_on_c, 2, 74, 127
1, 79864, Note_on_c, 2, 71, 127
1, 79889, Note_off_c, 4, 45, 64
1, 79895, Note_off_c, 2, 74, 64
1, 79912, Note_off_c, 4, 64, 64
1, 79912, Note_on_c, 4, 64, 121
1, 79944, Note_off_c, 2, 71, 64
1, 79964, Note_on_c, 4, 45, 127
1, 79964, Note_on_c, 2, 76, 127
1, 79988, Note_off_c, 4, 57, 64
1, 80018, Note_on_c, 2, 73, 127
1, 80053, Note_off_c, 2, 76, 64
1, 80070, Note_off_c, 4, 64, 64
1, 80071, Note_on_c, 4, 64, 121
1, 80107, Note_off_c, 2, 73, 64
1, 80124, Note_on_c, 2, 76, 127
1, 80124, Note_on_c, 4, 56, 127
1, 80167, Note_on_c, 4, 57, 127
1, 80183, Note_off_c, 4, 56, 64
1, 80183, Note_on_c, 2, 73, 127
1, 80216, Note_off_c, 2, 76, 64
1, 80233, Note_off_c, 4, 64, 64
1, 80234, Note_on_c, 4, 64, 121
1, 80267, Note_off_c, 2, 73, 64
1, 80284, Note_on_c, 1, 78, 127
1, 80323, Note_on_c, 2, 76, 127
1, 80328, Note_off_c, 1, 78, 64
1, 80361, Note_off_c, 4, 45, 64
1, 80362, Note_on_c, 2, 74, 127
1, 80374, Note_off_c, 2, 76, 64
1, 80387, Note_off_c, 4, 64, 64
1, 80403, Note_on_c, 2, 73, 127
1, 80416, Note_off_c, 2, 74, 64
1, 80441, Note_on_c, 2, 71, 127
1, 80442, Note_on_c, 4, 40, 127
1, 80456, Note_off_c, 2, 73, 64
1, 80469, Note_off_c, 4, 57, 64
1, 80496, Note_off_c, 4, 33, 64
1, 80496, Note_on_c, 2, 69, 127
1, 80529, Note_off_c, 2, 71, 64
1, 80549, Note_on_c, 4, 64, 125
1, 80579, Note_off_c, 2, 69, 64
1, 80595, Note_on_c, 2, 71, 127
1, 80595, Note_on_c, 4, 51, 127
1, 80632, Note_on_c, 4, 52, 127
1, 80646, Note_off_c, 4, 51, 64
1, 80646, Note_on_c, 2, 69, 127
1, 80677, Note_off_c, 2, 71, 64
1, 80694, Note_off_c, 4, 64, 64
1, 80695, Note_on_c, 4, 64, 121
1, 80728, Note_off_c, 2, 69, 64
1, 80746, Note_on_c, 2, 73, 127
1, 80801, Note_on_c, 2, 69, 127
1, 80826, Note_off_c, 4, 40, 64
1, 80833, Note_off_c, 2, 73, 64
1, 80851, Note_off_c, 4, 64, 64
1, 80852, Note_on_c, 4, 64, 121
1, 80884, Note_off_c, 2, 69, 64
1, 80902, Note_on_c, 2, 74, 127
1, 80903, Note_on_c, 4, 40, 127
1, 80928, Note_off_c, 4, 52, 64
1, 80957, Note_on_c, 2, 71, 127
1, 80991, Note_off_c, 2, 74, 64
1, 81009, Note_off_c, 4, 64, 64
1, 81009, Note_on_c, 4, 64, 121
1, 81042, Note_off_c, 2, 71, 64
1, 81060, Note_on_c, 2, 74, 127
1, 81060, Note_on_c, 4, 51, 127
1, 81099, Note_on_c, 4, 52, 127
1, 81116, Note_off_c, 4, 51, 64
1, 81117, Note_on_c, 2, 71, 127
1, 81150, Note_off_c, 2, 74, 64
1, 81167, Note_off_c, 4, 64, 64
1, 81168, Note_on_c, 4, 64, 121
1, 81199, Note_off_c, 2, 71, 64
1, 81214, Note_on_c, 2, 76, 127
1, 81252, Note_on_c, 2, 74, 127
1, 81264, Note_off_c, 2, 76, 64
1, 81289, Note_off_c, 4, 40, 64
1, 81289, Note_on_c, 2, 73, 127
1, 81301, Note_off_c, 2, 74, 64
1, 81313, Note_off_c, 4, 64, 64
1, 81328, Note_on_c, 2, 71, 127
1, 81342, Note_off_c, 2, 73, 64
1, 81371, Note_on_c, 4, 42, 127
1, 81371, Note_on_c, 2, 69, 127
1, 81387, Note_off_c, 2, 71, 64
1, 81402, Note_off_c, 4, 52, 64
1, 81429, Note_on_c, 4, 64, 121
1, 81462, Note_off_c, 2, 69, 64
1, 81481, Note_on_c, 4, 61, 127
1, 81516, Note_off_c, 4, 64, 64
1, 81535, Note_on_c, 2, 69, 127
1, 81535, Note_on_c, 4, 53, 127
1, 81576, Note_on_c, 4, 54, 127
1, 81591, Note_off_c, 4, 53, 64
1, 81592, Note_on_c, 4, 64, 121
1, 81625, Note_off_c, 2, 69, 64
1, 81642, Note_off_c, 4, 61, 64
1, 81643, Note_on_c, 4, 61, 127
1, 81678, Note_off_c, 4, 64, 64
1, 81693, Note_off_c, 4, 54, 64
1, 81695, Note_on_c, 2, 71, 127
1, 81696, Note_on_c, 4, 54, 127
1, 81738, Note_on_c, 4, 56, 127
1, 81754, Note_off_c, 4, 54, 64
1, 81754, Note_on_c, 4, 64, 121
1, 81780, Note_off_c, 4, 42, 64
1, 81787, Note_off_c, 2, 71, 64
1, 81803, Note_off_c, 4, 61, 64
1, 81804, Note_on_c, 4, 62, 122
1, 81837, Note_off_c, 4, 64, 64
1, 81854, Note_on_c, 2, 73, 127
1, 81855, Note_on_c, 4, 45, 127
1, 81898, Note_off_c, 4, 56, 64
1, 81910, Note_on_c, 2, 69, 127
1, 81944, Note_off_c, 2, 73, 64
1, 81961, Note_off_c, 4, 62, 64
1, 81961, Note_on_c, 4, 64, 121
1, 81996, Note_off_c, 2, 69, 64
1, 82016, Note_on_c, 2, 73, 127
1, 82016, Note_on_c, 4, 56, 127
1, 82057, Note_on_c, 4, 57, 127
1, 82070, Note_off_c, 4, 56, 64
1, 82071, Note_on_c, 2, 69, 127
1, 82104, Note_off_c, 2, 73, 64
1, 82121, Note_off_c, 4, 64, 64
1, 82123, Note_on_c, 4, 64, 121
1, 82156, Note_off_c, 2, 69, 64
1, 82171, Note_off_c, 4, 57, 64
1, 82174, Note_on_c, 2, 74, 127
1, 82174, Note_on_c, 4, 49, 127
1, 82209, Note_on_c, 4, 50, 127
1, 82224, Note_off_c, 4, 49, 64
1, 82224, Note_on_c, 2, 71, 127
1, 82248, Note_off_c, 4, 45, 64
1, 82256, Note_off_c, 2, 74, 64
1, 82271, Note_off_c, 4, 64, 64
1, 82273, Note_on_c, 4, 66, 127
1, 82306, Note_off_c, 2, 71, 64
1, 82321, Note_off_c, 4, 50, 64
1, 82323, Note_on_c, 4, 40, 127
1, 82323, Note_on_c, 2, 73, 127
1, 82380, Note_on_c, 2, 69, 127
1, 82413, Note_off_c, 2, 73, 64
1, 82430, Note_off_c, 4, 66, 64
1, 82431, Note_on_c, 4, 64, 121
1, 82464, Note_off_c, 2, 69, 64
1, 82481, Note_on_c, 2, 73, 127
1, 82482, Note_on_c, 4, 51, 127
1, 82519, Note_on_c, 4, 52, 127
1, 82535, Note_off_c, 4, 51, 64
1, 82535, Note_on_c, 2, 69, 127
1, 82566, Note_off_c, 2, 73, 64
1, 82581, Note_off_c, 4, 64, 64
1, 82583, Note_on_c, 4, 64, 121
1, 82614, Note_off_c, 2, 69, 64
1, 82627, Note_off_c, 4, 52, 64
1, 82629, Note_on_c, 2, 71, 127
1, 82630, Note_on_c, 4, 51, 127
1, 82667, Note_on_c, 4, 52, 127
1, 82679, Note_off_c, 4, 51, 64
1, 82679, Note_on_c, 2, 69, 127
1, 82706, Note_off_c, 4, 40, 64
1, 82714, Note_off_c, 2, 71, 64
1, 82731, Note_off_c, 4, 64, 64
1, 82731, Note_on_c, 4, 62, 122
1, 82768, Note_off_c, 2, 69, 64
1, 82785, Note_on_c, 2, 69, 127
1, 82786, Note_on_c, 4, 33, 127
1, 82822, Note_off_c, 4, 62, 64
1, 82826, Note_off_c, 4, 52, 64
1, 82840, Note_on_c, 4, 64, 121
1, 82872, Note_off_c, 2, 69, 64
1, 82890, Note_on_c, 4, 61, 127
1, 82901, Note_on_c, 4, 44, 127
1, 82922, Note_off_c, 4, 64, 64
1, 82940, Note_on_c, 4, 45, 127
1, 82940, Note_on_c, 4, 57, 127
1, 82954, Note_off_c, 4, 44, 64
1, 82973, Note_off_c, 4, 61, 64
1, 83240, Note_off_c, 4, 57, 64
1, 83250, Note_on_c, 2, 76, 125
1, 83250, Note_on_c, 4, 57, 121
1, 83308, Note_on_c, 4, 61, 123
1, 83337, Note_off_c, 4, 45, 64
1, 83366, Note_on_c, 4, 64, 121
1, 83408, Note_off_c, 4, 61, 64
1, 83420, Note_off_c, 4, 57, 64
1, 83425, Note_on_c, 2, 74, 125
1, 83426, Note_on_c, 4, 57, 121
1, 83442, Note_off_c, 2, 76, 64
1, 83465, Note_off_c, 4, 64, 64
1, 83478, Note_on_c, 4, 59, 123
1, 83530, Note_on_c, 4, 62, 125
1, 83570, Note_off_c, 4, 59, 64
1, 83582, Note_off_c, 4, 57, 64
1, 83586, Note_on_c, 2, 76, 125
1, 83586, Note_on_c, 4, 57, 124
1, 83602, Note_off_c, 2, 74, 64
1, 83625, Note_off_c, 4, 62, 64
1, 83639, Note_on_c, 4, 61, 126
1, 83688, Note_on_c, 4, 64, 124
1, 83729, Note_off_c, 4, 61, 64
1, 83739, Note_off_c, 4, 57, 64
1, 83743, Note_on_c, 1, 78, 125
1, 83744, Note_on_c, 4, 57, 124
1, 83760, Note_off_c, 2, 76, 64
1, 83781, Note_off_c, 4, 64, 64
1, 83794, Note_on_c, 4, 62, 125
1, 83844, Note_on_c, 4, 66, 127
1, 83882, Note_off_c, 4, 62, 64
1, 83892, Note_off_c, 4, 57, 64
1, 83898, Note_on_c, 4, 57, 124
1, 83934, Note_off_c, 4, 66, 64
1, 83946, Note_on_c, 4, 62, 125
1, 83996, Note_on_c, 4, 66, 127
1, 84033, Note_off_c, 4, 62, 64
1, 84034, Note_off_c, 1, 78, 64
1, 84044, Note_off_c, 4, 57, 64
1, 84049, Note_on_c, 1, 78, 125
1, 84050, Note_on_c, 4, 57, 124
1, 84085, Note_off_c, 1, 78, 64
1, 84085, Note_on_c, 1, 80, 125
1, 84101, Note_off_c, 4, 66, 64
1, 84115, Note_off_c, 1, 80, 64
1, 84115, Note_on_c, 1, 78, 125
1, 84116, Note_on_c, 4, 62, 125
1, 84144, Note_off_c, 1, 78, 64
1, 84144, Note_on_c, 2, 76, 125
1, 84171, Note_off_c, 2, 76, 64
1, 84172, Note_on_c, 4, 66, 127
1, 84172, Note_on_c, 1, 78, 125
1, 84199, Note_off_c, 1, 78, 64
1, 84200, Note_on_c, 1, 80, 125
1, 84212, Note_off_c, 4, 62, 64
1, 84221, Note_off_c, 4, 57, 64
1, 84225, Note_off_c, 1, 80, 64
1, 84226, Note_on_c, 1, 81, 125
1, 84226, Note_on_c, 4, 57, 124
1, 84264, Note_off_c, 4, 66, 64
1, 84278, Note_on_c, 4, 66, 127
1, 84330, Note_on_c, 2, 69, 127
1, 84378, Note_off_c, 4, 57, 64
1, 84384, Note_off_c, 4, 66, 64
1, 84384, Note_on_c, 1, 80, 125
1, 84384, Note_on_c, 4, 57, 124
1, 84398, Note_off_c, 1, 81, 64
1, 84436, Note_off_c, 2, 69, 64
1, 84437, Note_on_c, 4, 64, 124
1, 84489, Note_on_c, 2, 69, 127
1, 84543, Note_off_c, 4, 57, 64
1, 84547, Note_off_c, 4, 64, 64
1, 84548, Note_on_c, 1, 78, 125
1, 84548, Note_on_c, 4, 57, 124
1, 84560, Note_off_c, 1, 80, 64
1, 84599, Note_off_c, 2, 69, 64
1, 84599, Note_on_c, 4, 62, 125
1, 84649, Note_on_c, 4, 66, 127
1, 84699, Note_off_c, 4, 57, 64
1, 84706, Note_off_c, 4, 62, 64
1, 84706, Note_on_c, 2, 76, 125
1, 84707, Note_on_c, 4, 57, 124
1, 84719, Note_off_c, 1, 78, 64
1, 84755, Note_off_c, 4, 66, 64
1, 84756, Note_on_c, 4, 61, 124
1, 84808, Note_on_c, 4, 64, 122
1, 84856, Note_off_c, 4, 57, 64
1, 84860, Note_off_c, 4, 61, 64
1, 84860, Note_on_c, 4, 57, 124
1, 84909, Note_off_c, 4, 64, 64
1, 84909, Note_on_c, 4, 61, 124
1, 84961, Note_on_c, 4, 64, 122
1, 84990, Note_off_c, 2, 76, 64
1, 85013, Note_off_c, 4, 57, 64
1, 85017, Note_off_c, 4, 61, 64
1, 85018, Note_on_c, 2, 73, 125
1, 85018, Note_on_c, 4, 57, 124
1, 85055, Note_off_c, 2, 73, 64
1, 85056, Note_on_c, 2, 74, 125
1, 85080, Note_off_c, 2, 74, 64
1, 85081, Note_off_c, 4, 64, 64
1, 85081, Note_on_c, 2, 73, 125
1, 85082, Note_on_c, 4, 61, 124
1, 85111, Note_off_c, 2, 73, 64
1, 85112, Note_on_c, 2, 71, 125
1, 85140, Note_off_c, 2, 71, 64
1, 85140, Note_on_c, 4, 64, 122
1, 85140, Note_on_c, 2, 73, 125
1, 85171, Note_off_c, 2, 73, 64
1, 85172, Note_on_c, 2, 74, 125
1, 85186, Note_off_c, 4, 61, 64
1, 85195, Note_off_c, 4, 57, 64
1, 85199, Note_off_c, 2, 74, 64
1, 85200, Note_on_c, 2, 76, 125
1, 85200, Note_on_c, 4, 57, 124
1, 85236, Note_off_c, 4, 64, 64
1, 85250, Note_on_c, 4, 61, 124
1, 85300, Note_on_c, 4, 64, 122
1, 85341, Note_off_c, 4, 61, 64
1, 85342, Note_off_c, 2, 76, 64
1, 85352, Note_off_c, 4, 57, 64
1, 85356, Note_on_c, 2, 73, 125
1, 85357, Note_on_c, 4, 57, 124
1, 85396, Note_off_c, 4, 64, 64
1, 85407, Note_on_c, 4, 61, 124
1, 85459, Note_on_c, 4, 64, 122
1, 85498, Note_off_c, 4, 61, 64
1, 85509, Note_off_c, 4, 57, 64
1, 85513, Note_on_c, 4, 57, 124
1, 85549, Note_off_c, 4, 64, 64
1, 85562, Note_on_c, 4, 61, 124
1, 85610, Note_off_c, 2, 73, 64
1, 85610, Note_on_c, 4, 64, 122
1, 85624, Note_on_c, 2, 69, 127
1, 85653, Note_off_c, 4, 61, 64
1, 85666, Note_off_c, 4, 57, 64
1, 85672, Note_on_c, 2, 76, 125
1, 85673, Note_on_c, 4, 59, 126
1, 85712, Note_off_c, 4, 64, 64
1, 85725, Note_off_c, 2, 69, 64
1, 85726, Note_on_c, 4, 62, 123
1, 85780, Note_on_c, 4, 64, 122
1, 85820, Note_off_c, 4, 62, 64
1, 85821, Note_off_c, 2, 76, 64
1, 85832, Note_off_c, 4, 59, 64
1, 85836, Note_on_c, 2, 74, 125
1, 85836, Note_on_c, 4, 59, 126
1, 85875, Note_off_c, 4, 64, 64
1, 85886, Note_on_c, 4, 62, 123
1, 85938, Note_on_c, 4, 64, 122
1, 85975, Note_off_c, 4, 62, 64
1, 85982, Note_off_c, 4, 59, 64
1, 85986, Note_on_c, 4, 59, 126
1, 86023, Note_off_c, 4, 64, 64
1, 86034, Note_on_c, 4, 62, 123
1, 86090, Note_off_c, 2, 74, 64
1, 86090, Note_on_c, 4, 64, 122
1, 86104, Note_on_c, 2, 71, 125
1, 86135, Note_off_c, 4, 62, 64
1, 86145, Note_off_c, 4, 59, 64
1, 86150, Note_on_c, 2, 76, 125
1, 86151, Note_on_c, 4, 57, 124
1, 86190, Note_off_c, 4, 64, 64
1, 86190, Note_off_c, 2, 71, 64
1, 86204, Note_on_c, 4, 61, 124
1, 86256, Note_on_c, 4, 64, 122
1, 86300, Note_off_c, 4, 61, 64
1, 86301, Note_off_c, 2, 76, 64
1, 86309, Note_off_c, 4, 57, 64
1, 86311, Note_on_c, 2, 73, 125
1, 86311, Note_on_c, 4, 57, 124
1, 86348, Note_off_c, 4, 64, 64
1, 86360, Note_on_c, 4, 61, 124
1, 86410, Note_on_c, 4, 64, 122
1, 86444, Note_off_c, 4, 61, 64
1, 86454, Note_off_c, 4, 57, 64
1, 86458, Note_on_c, 4, 54, 124
1, 86492, Note_off_c, 4, 64, 64
1, 86506, Note_on_c, 4, 57, 124
1, 86515, Note_off_c, 4, 54, 64
1, 86556, Note_on_c, 2, 69, 127
1, 86557, Note_on_c, 4, 63, 122
1, 86569, Note_off_c, 4, 57, 64
1, 86605, Note_off_c, 2, 73, 64
1, 86607, Note_off_c, 2, 69, 64
1, 86611, Note_on_c, 2, 73, 127
1, 86613, Note_on_c, 4, 64, 122
1, 86614, Note_on_c, 2, 69, 127
1, 86614, Note_on_c, 4, 52, 124
1, 86625, Note_off_c, 4, 63, 64
1, 86894, Note_on_c, 2, 71, 127
1, 86894, Note_on_c, 2, 68, 127
1, 86898, Note_off_c, 2, 73, 64
1, 86900, Note_off_c, 2, 69, 64
1, 87088, Note_on_c, 2, 73, 127
1, 87089, Note_on_c, 4, 57, 124
1, 87101, Note_off_c, 2, 68, 64
1, 87101, Note_off_c, 2, 71, 64
1, 87102, Note_off_c, 4, 64, 64
1, 87117, Note_off_c, 4, 52, 64
1, 87138, Note_on_c, 4, 63, 122
1, 87185, Note_on_c, 4, 64, 122
1, 87197, Note_off_c, 4, 63, 64
1, 87233, Note_off_c, 2, 73, 64
1, 87238, Note_off_c, 4, 57, 64
1, 87238, Note_on_c, 2, 73, 127
1, 87239, Note_on_c, 4, 57, 124
1, 87251, Note_off_c, 4, 64, 64
1, 87289, Note_on_c, 4, 63, 122
1, 87340, Note_on_c, 4, 64, 122
1, 87352, Note_off_c, 4, 63, 64
1, 87386, Note_off_c, 2, 73, 64
1, 87390, Note_off_c, 4, 57, 64
1, 87390, Note_on_c, 2, 76, 127
1, 87391, Note_on_c, 4, 59, 126
1, 87405, Note_off_c, 4, 64, 64
1, 87422, Note_off_c, 2, 76, 64
1, 87422, Note_on_c, 2, 74, 127
1, 87452, Note_off_c, 2, 74, 64
1, 87452, Note_on_c, 2, 76, 127
1, 87452, Note_on_c, 4, 63, 122
1, 87483, Note_off_c, 2, 76, 64
1, 87484, Note_on_c, 2, 74, 127
1, 87511, Note_off_c, 2, 74, 64
1, 87511, Note_on_c, 2, 73, 127
1, 87512, Note_on_c, 4, 64, 122
1, 87525, Note_off_c, 4, 63, 64
1, 87539, Note_off_c, 2, 73, 64
1, 87540, Note_on_c, 2, 74, 127
1, 87563, Note_off_c, 4, 59, 64
1, 87565, Note_off_c, 2, 74, 64
1, 87565, Note_on_c, 2, 76, 127
1, 87566, Note_on_c, 4, 61, 124
1, 87577, Note_off_c, 4, 64, 64
1, 87616, Note_on_c, 4, 63, 122
1, 87666, Note_on_c, 4, 64, 122
1, 87677, Note_off_c, 4, 63, 64
1, 87715, Note_off_c, 4, 61, 64
1, 87718, Note_on_c, 4, 61, 124
1, 87731, Note_off_c, 4, 64, 64
1, 87768, Note_on_c, 4, 63, 122
1, 87815, Note_on_c, 4, 64, 122
1, 87827, Note_off_c, 4, 63, 64
1, 87852, Note_off_c, 2, 76, 64
1, 87864, Note_off_c, 4, 61, 64
1, 87866, Note_on_c, 1, 78, 127
1, 87867, Note_on_c, 4, 57, 124
1, 87879, Note_off_c, 4, 64, 64
1, 87912, Note_on_c, 2, 76, 127
1, 87917, Note_off_c, 1, 78, 64
1, 87924, Note_on_c, 4, 63, 122
1, 87950, Note_on_c, 2, 74, 127
1, 87956, Note_off_c, 2, 76, 64
1, 87979, Note_on_c, 4, 64, 122
1, 87992, Note_off_c, 4, 63, 64
1, 87993, Note_on_c, 2, 73, 127
1, 87997, Note_off_c, 2, 74, 64
1, 88033, Note_off_c, 4, 57, 64
1, 88035, Note_on_c, 2, 71, 127
1, 88036, Note_on_c, 4, 56, 124
1, 88040, Note_off_c, 2, 73, 64
1, 88048, Note_off_c, 4, 64, 64
1, 88088, Note_on_c, 4, 63, 122
1, 88142, Note_on_c, 4, 64, 122
1, 88155, Note_off_c, 4, 63, 64
1, 88193, Note_off_c, 2, 71, 64
1, 88196, Note_off_c, 4, 56, 64
1, 88198, Note_on_c, 2, 71, 125
1, 88198, Note_on_c, 4, 56, 124
1, 88210, Note_off_c, 4, 64, 64
1, 88248, Note_on_c, 4, 63, 122
1, 88298, Note_on_c, 4, 64, 122
1, 88312, Note_off_c, 4, 63, 64
1, 88344, Note_off_c, 2, 71, 64
1, 88346, Note_off_c, 4, 56, 64
1, 88347, Note_on_c, 2, 74, 125
1, 88347, Note_on_c, 4, 57, 124
1, 88364, Note_off_c, 4, 64, 64
1, 88383, Note_off_c, 2, 74, 64
1, 88383, Note_on_c, 2, 73, 125
1, 88413, Note_off_c, 2, 73, 64
1, 88413, Note_on_c, 2, 74, 125
1, 88414, Note_on_c, 4, 63, 122
1, 88440, Note_off_c, 2, 74, 64
1, 88441, Note_on_c, 2, 73, 125
1, 88468, Note_off_c, 2, 73, 64
1, 88469, Note_on_c, 2, 71, 125
1, 88469, Note_on_c, 4, 64, 122
1, 88481, Note_off_c, 4, 63, 64
1, 88492, Note_off_c, 2, 71, 64
1, 88493, Note_on_c, 2, 73, 125
1, 88516, Note_off_c, 2, 73, 64
1, 88518, Note_off_c, 4, 57, 64
1, 88520, Note_on_c, 2, 74, 125
1, 88521, Note_on_c, 4, 59, 126
1, 88533, Note_off_c, 4, 64, 64
1, 88573, Note_on_c, 4, 63, 122
1, 88623, Note_on_c, 4, 64, 122
1, 88635, Note_off_c, 4, 63, 64
1, 88675, Note_off_c, 4, 59, 64
1, 88675, Note_on_c, 4, 59, 126
1, 88688, Note_off_c, 4, 64, 64
1, 88725, Note_on_c, 4, 63, 122
1, 88773, Note_on_c, 4, 64, 122
1, 88786, Note_off_c, 4, 63, 64
1, 88811, Note_off_c, 2, 74, 64
1, 88821, Note_off_c, 4, 59, 64
1, 88823, Note_on_c, 2, 76, 125
1, 88823, Note_on_c, 4, 56, 124
1, 88833, Note_off_c, 4, 64, 64
1, 88862, Note_on_c, 2, 74, 125
1, 88866, Note_off_c, 2, 76, 64
1, 88873, Note_on_c, 4, 63, 122
1, 88900, Note_on_c, 2, 73, 125
1, 88906, Note_off_c, 2, 74, 64
1, 88927, Note_on_c, 4, 64, 122
1, 88943, Note_off_c, 4, 63, 64
1, 88943, Note_on_c, 2, 71, 125
1, 88947, Note_off_c, 2, 73, 64
1, 88987, Note_off_c, 4, 56, 64
1, 88989, Note_on_c, 2, 69, 125
1, 88989, Note_on_c, 4, 54, 124
1, 88995, Note_off_c, 2, 71, 64
1, 89003, Note_off_c, 4, 64, 64
1, 89043, Note_on_c, 4, 63, 122
1, 89093, Note_on_c, 4, 64, 122
1, 89107, Note_off_c, 4, 63, 64
1, 89147, Note_off_c, 2, 69, 64
1, 89149, Note_off_c, 4, 54, 64
1, 89151, Note_on_c, 2, 69, 125
1, 89151, Note_on_c, 4, 54, 124
1, 89165, Note_off_c, 4, 64, 64
1, 89202, Note_on_c, 4, 63, 122
1, 89252, Note_on_c, 4, 64, 122
1, 89265, Note_off_c, 4, 63, 64
1, 89300, Note_off_c, 2, 69, 64
1, 89302, Note_off_c, 4, 54, 64
1, 89304, Note_on_c, 2, 73, 125
1, 89304, Note_on_c, 4, 56, 124
1, 89320, Note_off_c, 4, 64, 64
1, 89338, Note_off_c, 2, 73, 64
1, 89339, Note_on_c, 2, 71, 125
1, 89366, Note_off_c, 2, 71, 64
1, 89366, Note_on_c, 2, 73, 125
1, 89367, Note_on_c, 4, 62, 123
1, 89392, Note_off_c, 2, 73, 64
1, 89392, Note_on_c, 2, 71, 125
1, 89420, Note_off_c, 2, 71, 64
1, 89420, Note_on_c, 2, 69, 125
1, 89421, Note_on_c, 4, 64, 122
1, 89432, Note_off_c, 4, 62, 64
1, 89444, Note_off_c, 2, 69, 64
1, 89444, Note_on_c, 2, 71, 125
1, 89468, Note_off_c, 4, 56, 64
1, 89470, Note_off_c, 2, 71, 64
1, 89470, Note_on_c, 2, 73, 125
1, 89471, Note_on_c, 4, 57, 124
1, 89484, Note_off_c, 4, 64, 64
1, 89522, Note_on_c, 4, 61, 124
1, 89574, Note_on_c, 4, 64, 122
1, 89588, Note_off_c, 4, 61, 64
1, 89624, Note_off_c, 2, 73, 64
1, 89628, Note_off_c, 4, 57, 64
1, 89630, Note_on_c, 2, 73, 125
1, 89630, Note_on_c, 4, 57, 124
1, 89642, Note_off_c, 4, 64, 64
1, 89683, Note_on_c, 4, 61, 124
1, 89735, Note_on_c, 4, 64, 122
1, 89748, Note_off_c, 4, 61, 64
1, 89783, Note_off_c, 2, 73, 64
1, 89784, Note_off_c, 4, 57, 64
1, 89786, Note_on_c, 2, 76, 125
1, 89787, Note_on_c, 4, 50, 124
1, 89803, Note_off_c, 4, 64, 64
1, 89822, Note_off_c, 2, 76, 64
1, 89822, Note_on_c, 2, 74, 125
1, 89850, Note_off_c, 2, 74, 64
1, 89851, Note_on_c, 2, 76, 125
1, 89851, Note_on_c, 4, 54, 124
1, 89880, Note_off_c, 2, 76, 64
1, 89880, Note_on_c, 2, 74, 125
1, 89906, Note_off_c, 2, 74, 64
1, 89906, Note_on_c, 2, 73, 125
1, 89906, Note_on_c, 4, 59, 126
1, 89918, Note_off_c, 4, 54, 64
1, 89934, Note_off_c, 2, 73, 64
1, 89934, Note_on_c, 2, 74, 125
1, 89957, Note_off_c, 4, 50, 64
1, 89962, Note_off_c, 2, 74, 64
1, 89962, Note_on_c, 2, 73, 125
1, 89962, Note_on_c, 4, 52, 124
1, 89974, Note_off_c, 4, 59, 64
1, 90014, Note_on_c, 4, 57, 124
1, 90066, Note_on_c, 4, 61, 124
1, 90078, Note_off_c, 4, 57, 64
1, 90107, Note_off_c, 2, 73, 64
1, 90118, Note_off_c, 4, 52, 64
1, 90122, Note_on_c, 2, 73, 125
1, 90122, Note_on_c, 4, 52, 124
1, 90134, Note_off_c, 4, 61, 64
1, 90171, Note_on_c, 4, 57, 124
1, 90228, Note_on_c, 4, 61, 124
1, 90240, Note_off_c, 4, 57, 64
1, 90252, Note_off_c, 2, 73, 64
1, 90272, Note_off_c, 4, 52, 64
1, 90276, Note_on_c, 2, 73, 125
1, 90280, Note_on_c, 4, 52, 124
1, 90299, Note_off_c, 4, 61, 64
1, 90315, Note_off_c, 2, 73, 64
1, 90315, Note_on_c, 2, 71, 125
1, 90345, Note_off_c, 2, 71, 64
1, 90345, Note_on_c, 2, 73, 125
1, 90346, Note_on_c, 4, 56, 124
1, 90376, Note_off_c, 2, 73, 64
1, 90377, Note_on_c, 2, 71, 125
1, 90406, Note_off_c, 2, 71, 64
1, 90407, Note_on_c, 2, 69, 125
1, 90408, Note_on_c, 4, 62, 123
1, 90424, Note_off_c, 4, 56, 64
1, 90432, Note_off_c, 2, 69, 64
1, 90436, Note_on_c, 2, 71, 125
1, 90459, Note_off_c, 2, 71, 64
1, 90460, Note_off_c, 4, 62, 64
1, 90461, Note_off_c, 4, 52, 64
1, 90464, Note_on_c, 4, 64, 115
1, 90464, Note_on_c, 2, 71, 127
1, 90465, Note_on_c, 4, 57, 117
1, 90465, Note_on_c, 2, 69, 127
1, 90466, Note_on_c, 4, 62, 116
1, 90633, Note_on_c, 2, 72, 127
1, 90644, Note_off_c, 2, 71, 64
1, 90798, Note_off_c, 2, 69, 64
1, 90798, Note_off_c, 4, 33, 64
1, 90799, Note_on_c, 2, 69, 127
1, 90799, Note_on_c, 2, 73, 127
1, 90800, Note_on_c, 4, 61, 124
1, 90806, Note_off_c, 4, 62, 64
1, 90810, Note_off_c, 2, 72, 64
1, 90956, Note_off_c, 2, 73, 64
1, 90957, Note_on_c, 4, 45, 122
1, 90957, Note_on_c, 2, 73, 127
1, 90985, Note_off_c, 2, 69, 64
1, 90985, Note_off_c, 4, 61, 64
1, 91017, Note_on_c, 2, 69, 127
1, 91019, Note_off_c, 4, 64, 64
1, 91019, Note_off_c, 4, 57, 64
1, 91071, Note_on_c, 4, 66, 127
1, 91098, Note_off_c, 2, 69, 64
1, 91121, Note_off_c, 2, 73, 64
1, 91125, Note_on_c, 2, 73, 127
1, 91126, Note_on_c, 4, 56, 124
1, 91168, Note_on_c, 4, 57, 124
1, 91182, Note_off_c, 4, 56, 64
1, 91182, Note_on_c, 2, 69, 127
1, 91231, Note_off_c, 4, 66, 64
1, 91233, Note_on_c, 4, 66, 127
1, 91258, Note_off_c, 2, 69, 64
1, 91281, Note_off_c, 2, 73, 64
1, 91283, Note_off_c, 4, 57, 64
1, 91284, Note_on_c, 2, 74, 127
1, 91285, Note_on_c, 4, 58, 124
1, 91322, Note_on_c, 4, 59, 126
1, 91337, Note_off_c, 4, 58, 64
1, 91338, Note_on_c, 2, 69, 127
1, 91363, Note_off_c, 4, 45, 64
1, 91388, Note_off_c, 4, 66, 64
1, 91389, Note_on_c, 4, 64, 122
1, 91414, Note_off_c, 2, 69, 64
1, 91437, Note_off_c, 2, 74, 64
1, 91443, Note_on_c, 4, 49, 124
1, 91443, Note_on_c, 2, 76, 127
1, 91480, Note_off_c, 4, 59, 64
1, 91494, Note_on_c, 2, 73, 127
1, 91505, Note_off_c, 2, 76, 64
1, 91542, Note_off_c, 4, 64, 64
1, 91542, Note_on_c, 2, 69, 127
1, 91598, Note_on_c, 2, 76, 127
1, 91599, Note_on_c, 4, 60, 126
1, 91638, Note_on_c, 4, 61, 124
1, 91647, Note_off_c, 2, 73, 64
1, 91653, Note_off_c, 4, 60, 64
1, 91654, Note_on_c, 2, 73, 127
1, 91666, Note_off_c, 2, 76, 64
1, 91696, Note_off_c, 2, 69, 64
1, 91700, Note_on_c, 2, 69, 127
1, 91747, Note_off_c, 4, 61, 64
1, 91748, Note_on_c, 1, 78, 127
1, 91749, Note_on_c, 4, 61, 126
1, 91788, Note_on_c, 4, 62, 125
1, 91793, Note_off_c, 4, 61, 64
1, 91800, Note_off_c, 2, 73, 64
1, 91801, Note_on_c, 2, 71, 127
1, 91826, Note_off_c, 4, 49, 64
1, 91848, Note_off_c, 2, 69, 64
1, 91852, Note_on_c, 2, 69, 127
1, 91864, Note_off_c, 1, 78, 64
1, 91899, Note_on_c, 4, 40, 122
1, 91899, Note_on_c, 2, 73, 127
1, 91911, Note_off_c, 2, 69, 64
1, 91912, Note_off_c, 2, 71, 64
1, 91941, Note_off_c, 4, 62, 64
1, 91955, Note_on_c, 2, 69, 127
1, 91966, Note_off_c, 2, 73, 64
1, 92004, Note_on_c, 4, 66, 127
1, 92016, Note_off_c, 2, 69, 64
1, 92052, Note_on_c, 2, 73, 127
1, 92053, Note_on_c, 4, 51, 124
1, 92092, Note_on_c, 4, 52, 124
1, 92106, Note_off_c, 4, 51, 64
1, 92106, Note_on_c, 2, 69, 127
1, 92120, Note_off_c, 2, 73, 64
1, 92154, Note_off_c, 4, 66, 64
1, 92159, Note_on_c, 4, 64, 124
1, 92172, Note_off_c, 2, 69, 64
1, 92206, Note_off_c, 4, 52, 64
1, 92210, Note_on_c, 2, 71, 127
1, 92211, Note_on_c, 4, 51, 124
1, 92248, Note_on_c, 4, 52, 124
1, 92262, Note_off_c, 4, 51, 64
1, 92262, Note_on_c, 2, 69, 127
1, 92275, Note_off_c, 2, 71, 64
1, 92289, Note_off_c, 4, 40, 64
1, 92312, Note_off_c, 4, 64, 64
1, 92316, Note_on_c, 4, 62, 125
1, 92328, Note_off_c, 2, 69, 64
1, 92365, Note_on_c, 4, 33, 122
1, 92365, Note_on_c, 2, 69, 127
1, 92396, Note_off_c, 4, 62, 64
1, 92416, Note_on_c, 4, 64, 124
1, 92431, Note_off_c, 2, 69, 64
1, 92472, Note_on_c, 4, 61, 126
1, 92485, Note_off_c, 4, 64, 64
1, 92485, Note_off_c, 4, 52, 64
1, 92486, Note_on_c, 4, 44, 122
1, 92529, Note_on_c, 4, 57, 126
1, 92530, Note_on_c, 4, 45, 122
1, 92545, Note_off_c, 4, 44, 64
1, 92572, Note_off_c, 4, 61, 64
1, 92797, Note_off_c, 4, 57, 64
1, 92812, Note_off_c, 4, 45, 64
1, 92813, Note_on_c, 2, 76, 127
1, 92813, Note_on_c, 4, 57, 124
1, 92814, Note_on_c, 4, 45, 122
1, 92871, Note_on_c, 4, 61, 124
1, 92902, Note_off_c, 4, 45, 64
1, 92930, Note_on_c, 4, 64, 122
1, 92973, Note_off_c, 4, 61, 64
1, 92984, Note_off_c, 4, 57, 64
1, 92988, Note_on_c, 2, 74, 127
1, 92988, Note_on_c, 4, 57, 124
1, 93006, Note_off_c, 2, 76, 64
1, 93027, Note_off_c, 4, 64, 64
1, 93041, Note_on_c, 4, 59, 126
1, 93092, Note_on_c, 4, 62, 123
1, 93134, Note_off_c, 4, 59, 64
1, 93145, Note_off_c, 4, 57, 64
1, 93149, Note_on_c, 2, 76, 127
1, 93150, Note_on_c, 4, 57, 124
1, 93166, Note_off_c, 2, 74, 64
1, 93189, Note_off_c, 4, 62, 64
1, 93201, Note_on_c, 4, 61, 124
1, 93253, Note_on_c, 4, 64, 122
1, 93293, Note_off_c, 4, 61, 64
1, 93303, Note_off_c, 4, 57, 64
1, 93307, Note_on_c, 1, 78, 127
1, 93307, Note_on_c, 4, 57, 124
1, 93323, Note_off_c, 2, 76, 64
1, 93344, Note_off_c, 4, 64, 64
1, 93358, Note_on_c, 4, 62, 123
1, 93408, Note_on_c, 4, 66, 127
1, 93446, Note_off_c, 4, 62, 64
1, 93456, Note_off_c, 4, 57, 64
1, 93462, Note_on_c, 4, 57, 124
1, 93497, Note_off_c, 4, 66, 64
1, 93510, Note_on_c, 4, 62, 123
1, 93558, Note_on_c, 4, 66, 127
1, 93597, Note_off_c, 4, 62, 64
1, 93597, Note_off_c, 1, 78, 64
1, 93607, Note_off_c, 4, 57, 64
1, 93613, Note_on_c, 1, 78, 123
1, 93613, Note_on_c, 4, 57, 124
1, 93648, Note_off_c, 1, 78, 64
1, 93649, Note_on_c, 1, 80, 123
1, 93663, Note_off_c, 4, 66, 64
1, 93678, Note_off_c, 1, 80, 64
1, 93679, Note_on_c, 1, 78, 123
1, 93679, Note_on_c, 4, 62, 123
1, 93708, Note_off_c, 1, 78, 64
1, 93708, Note_on_c, 2, 76, 123
1, 93736, Note_off_c, 2, 76, 64
1, 93736, Note_on_c, 1, 78, 123
1, 93737, Note_on_c, 4, 66, 127
1, 93762, Note_off_c, 1, 78, 64
1, 93762, Note_on_c, 1, 80, 123
1, 93774, Note_off_c, 4, 62, 64
1, 93784, Note_off_c, 4, 57, 64
1, 93788, Note_off_c, 1, 80, 64
1, 93788, Note_on_c, 1, 81, 123
1, 93789, Note_on_c, 4, 57, 124
1, 93829, Note_off_c, 4, 66, 64
1, 93842, Note_on_c, 4, 66, 127
1, 93892, Note_on_c, 2, 69, 127
1, 93940, Note_off_c, 4, 57, 64
1, 93946, Note_off_c, 4, 66, 64
1, 93947, Note_on_c, 1, 80, 125
1, 93947, Note_on_c, 4, 57, 124
1, 93960, Note_off_c, 1, 81, 64
1, 94001, Note_off_c, 2, 69, 64
1, 94001, Note_on_c, 4, 64, 122
1, 94054, Note_on_c, 2, 69, 127
1, 94105, Note_off_c, 4, 57, 64
1, 94109, Note_off_c, 4, 64, 64
1, 94110, Note_on_c, 1, 78, 125
1, 94110, Note_on_c, 4, 57, 124
1, 94124, Note_off_c, 1, 80, 64
1, 94162, Note_off_c, 2, 69, 64
1, 94163, Note_on_c, 4, 62, 123
1, 94213, Note_on_c, 4, 66, 127
1, 94263, Note_off_c, 4, 57, 64
1, 94269, Note_off_c, 4, 62, 64
1, 94269, Note_on_c, 2, 76, 125
1, 94270, Note_on_c, 4, 57, 124
1, 94282, Note_off_c, 1, 78, 64
1, 94320, Note_off_c, 4, 66, 64
1, 94320, Note_on_c, 4, 61, 124
1, 94370, Note_on_c, 4, 64, 122
1, 94418, Note_off_c, 4, 57, 64
1, 94423, Note_off_c, 4, 61, 64
1, 94423, Note_on_c, 4, 57, 124
1, 94473, Note_off_c, 4, 64, 64
1, 94474, Note_on_c, 4, 61, 124
1, 94524, Note_on_c, 4, 64, 122
1, 94555, Note_off_c, 2, 76, 64
1, 94576, Note_off_c, 4, 57, 64
1, 94580, Note_off_c, 4, 61, 64
1, 94581, Note_on_c, 2, 73, 123
1, 94581, Note_on_c, 4, 57, 124
1, 94617, Note_off_c, 2, 73, 64
1, 94618, Note_on_c, 2, 74, 123
1, 94644, Note_off_c, 2, 74, 64
1, 94644, Note_off_c, 4, 64, 64
1, 94644, Note_on_c, 2, 73, 123
1, 94644, Note_on_c, 4, 61, 124
1, 94674, Note_off_c, 2, 73, 64
1, 94675, Note_on_c, 2, 71, 123
1, 94702, Note_off_c, 2, 71, 64
1, 94703, Note_on_c, 4, 64, 122
1, 94703, Note_on_c, 2, 73, 123
1, 94735, Note_off_c, 2, 73, 64
1, 94735, Note_on_c, 2, 74, 123
1, 94749, Note_off_c, 4, 61, 64
1, 94758, Note_off_c, 4, 57, 64
1, 94763, Note_off_c, 2, 74, 64
1, 94763, Note_on_c, 2, 76, 123
1, 94764, Note_on_c, 4, 57, 124
1, 94800, Note_off_c, 4, 64, 64
1, 94813, Note_on_c, 4, 61, 124
1, 94863, Note_on_c, 4, 64, 122
1, 94904, Note_off_c, 4, 61, 64
1, 94905, Note_off_c, 2, 76, 64
1, 94915, Note_off_c, 4, 57, 64
1, 94921, Note_on_c, 2, 73, 125
1, 94921, Note_on_c, 4, 57, 124
1, 94958, Note_off_c, 4, 64, 64
1, 94970, Note_on_c, 4, 61, 124
1, 95022, Note_on_c, 4, 64, 122
1, 95060, Note_off_c, 4, 61, 64
1, 95071, Note_off_c, 4, 57, 64
1, 95076, Note_on_c, 4, 57, 124
1, 95112, Note_off_c, 4, 64, 64
1, 95125, Note_on_c, 4, 61, 124
1, 95173, Note_off_c, 2, 73, 64
1, 95174, Note_on_c, 4, 64, 122
1, 95186, Note_on_c, 2, 69, 127
1, 95217, Note_off_c, 4, 61, 64
1, 95228, Note_off_c, 4, 57, 64
1, 95236, Note_on_c, 2, 76, 125
1, 95236, Note_on_c, 4, 59, 126
1, 95275, Note_off_c, 4, 64, 64
1, 95289, Note_off_c, 2, 69, 64
1, 95289, Note_on_c, 4, 62, 123
1, 95343, Note_on_c, 4, 64, 122
1, 95384, Note_off_c, 4, 62, 64
1, 95384, Note_off_c, 2, 76, 64
1, 95394, Note_off_c, 4, 59, 64
1, 95400, Note_on_c, 2, 74, 125
1, 95400, Note_on_c, 4, 59, 126
1, 95437, Note_off_c, 4, 64, 64
1, 95451, Note_on_c, 4, 62, 123
1, 95501, Note_on_c, 4, 64, 122
1, 95537, Note_off_c, 4, 62, 64
1, 95545, Note_off_c, 4, 59, 64
1, 95549, Note_on_c, 4, 59, 126
1, 95585, Note_off_c, 4, 64, 64
1, 95599, Note_on_c, 4, 62, 123
1, 95652, Note_off_c, 2, 74, 64
1, 95653, Note_on_c, 4, 64, 122
1, 95669, Note_on_c, 2, 71, 125
1, 95698, Note_off_c, 4, 62, 64
1, 95709, Note_off_c, 4, 59, 64
1, 95713, Note_on_c, 2, 76, 125
1, 95713, Note_on_c, 4, 57, 124
1, 95752, Note_off_c, 4, 64, 64
1, 95753, Note_off_c, 2, 71, 64
1, 95767, Note_on_c, 4, 61, 124
1, 95820, Note_on_c, 4, 64, 122
1, 95863, Note_off_c, 4, 61, 64
1, 95863, Note_off_c, 2, 76, 64
1, 95870, Note_off_c, 4, 57, 64
1, 95874, Note_on_c, 2, 73, 125
1, 95875, Note_on_c, 4, 57, 124
1, 95912, Note_off_c, 4, 64, 64
1, 95923, Note_on_c, 4, 61, 124
1, 95973, Note_on_c, 4, 64, 122
1, 96008, Note_off_c, 4, 61, 64
1, 96015, Note_off_c, 4, 57, 64
1, 96021, Note_on_c, 4, 54, 124
1, 96056, Note_off_c, 4, 64, 64
1, 96069, Note_on_c, 4, 57, 124
1, 96079, Note_off_c, 4, 54, 64
1, 96119, Note_on_c, 2, 69, 127
1, 96121, Note_on_c, 4, 63, 122
1, 96132, Note_off_c, 4, 57, 64
1, 96169, Note_off_c, 2, 73, 64
1, 96171, Note_off_c, 2, 69, 64
1, 96175, Note_on_c, 2, 73, 125
1, 96177, Note_on_c, 4, 64, 122
1, 96177, Note_on_c, 2, 69, 127
1, 96178, Note_on_c, 4, 52, 124
1, 96189, Note_off_c, 4, 63, 64
1, 96458, Note_on_c, 2, 71, 127
1, 96458, Note_on_c, 2, 68, 127
1, 96463, Note_off_c, 2, 73, 64
1, 96465, Note_off_c, 2, 69, 64
1, 96652, Note_on_c, 2, 73, 127
1, 96653, Note_on_c, 4, 57, 124
1, 96665, Note_off_c, 2, 68, 64
1, 96665, Note_off_c, 2, 71, 64
1, 96667, Note_off_c, 4, 64, 64
1, 96681, Note_off_c, 4, 52, 64
1, 96702, Note_on_c, 4, 63, 122
1, 96750, Note_on_c, 4, 64, 122
1, 96761, Note_off_c, 4, 63, 64
1, 96798, Note_off_c, 2, 73, 64
1, 96800, Note_off_c, 4, 57, 64
1, 96802, Note_on_c, 2, 73, 127
1, 96802, Note_on_c, 4, 57, 124
1, 96815, Note_off_c, 4, 64, 64
1, 96852, Note_on_c, 4, 63, 122
1, 96903, Note_on_c, 4, 64, 122
1, 96916, Note_off_c, 4, 63, 64
1, 96949, Note_off_c, 2, 73, 64
1, 96953, Note_off_c, 4, 57, 64
1, 96954, Note_on_c, 2, 76, 123
1, 96955, Note_on_c, 4, 59, 126
1, 96969, Note_off_c, 4, 64, 64
1, 96987, Note_off_c, 2, 76, 64
1, 96987, Note_on_c, 2, 74, 123
1, 97015, Note_off_c, 2, 74, 64
1, 97016, Note_on_c, 2, 76, 123
1, 97016, Note_on_c, 4, 63, 122
1, 97047, Note_off_c, 2, 76, 64
1, 97047, Note_on_c, 2, 74, 123
1, 97076, Note_off_c, 2, 74, 64
1, 97076, Note_on_c, 2, 73, 123
1, 97076, Note_on_c, 4, 64, 122
1, 97089, Note_off_c, 4, 63, 64
1, 97103, Note_off_c, 2, 73, 64
1, 97103, Note_on_c, 2, 74, 123
1, 97126, Note_off_c, 4, 59, 64
1, 97128, Note_off_c, 2, 74, 64
1, 97129, Note_on_c, 2, 76, 123
1, 97129, Note_on_c, 4, 61, 124
1, 97141, Note_off_c, 4, 64, 64
1, 97179, Note_on_c, 4, 63, 122
1, 97229, Note_on_c, 4, 64, 122
1, 97241, Note_off_c, 4, 63, 64
1, 97280, Note_off_c, 4, 61, 64
1, 97282, Note_on_c, 4, 61, 124
1, 97294, Note_off_c, 4, 64, 64
1, 97332, Note_on_c, 4, 63, 122
1, 97380, Note_on_c, 4, 64, 122
1, 97392, Note_off_c, 4, 63, 64
1, 97416, Note_off_c, 2, 76, 64
1, 97429, Note_off_c, 4, 61, 64
1, 97430, Note_on_c, 1, 78, 125
1, 97431, Note_on_c, 4, 57, 124
1, 97442, Note_off_c, 4, 64, 64
1, 97477, Note_on_c, 2, 76, 125
1, 97481, Note_off_c, 1, 78, 64
1, 97488, Note_on_c, 4, 63, 122
1, 97515, Note_on_c, 2, 74, 125
1, 97521, Note_off_c, 2, 76, 64
1, 97542, Note_on_c, 4, 64, 122
1, 97556, Note_off_c, 4, 63, 64
1, 97556, Note_on_c, 2, 73, 125
1, 97562, Note_off_c, 2, 74, 64
1, 97597, Note_off_c, 4, 57, 64
1, 97599, Note_on_c, 2, 71, 125
1, 97599, Note_on_c, 4, 56, 124
1, 97603, Note_off_c, 2, 73, 64
1, 97613, Note_off_c, 4, 64, 64
1, 97652, Note_on_c, 4, 63, 122
1, 97705, Note_on_c, 4, 64, 122
1, 97719, Note_off_c, 4, 63, 64
1, 97757, Note_off_c, 2, 71, 64
1, 97759, Note_off_c, 4, 56, 64
1, 97761, Note_on_c, 2, 71, 125
1, 97762, Note_on_c, 4, 56, 124
1, 97774, Note_off_c, 4, 64, 64
1, 97812, Note_on_c, 4, 63, 122
1, 97862, Note_on_c, 4, 64, 122
1, 97875, Note_off_c, 4, 63, 64
1, 97908, Note_off_c, 2, 71, 64
1, 97910, Note_off_c, 4, 56, 64
1, 97912, Note_on_c, 2, 74, 119
1, 97912, Note_on_c, 4, 57, 124
1, 97928, Note_off_c, 4, 64, 64
1, 97947, Note_off_c, 2, 74, 64
1, 97948, Note_on_c, 2, 73, 119
1, 97977, Note_off_c, 2, 73, 64
1, 97978, Note_on_c, 2, 74, 119
1, 97978, Note_on_c, 4, 63, 122
1, 98006, Note_off_c, 2, 74, 64
1, 98006, Note_on_c, 2, 73, 119
1, 98032, Note_off_c, 2, 73, 64
1, 98032, Note_on_c, 2, 71, 119
1, 98033, Note_on_c, 4, 64, 122
1, 98044, Note_off_c, 4, 63, 64
1, 98058, Note_off_c, 2, 71, 64
1, 98058, Note_on_c, 2, 73, 119
1, 98080, Note_off_c, 2, 73, 64
1, 98082, Note_off_c, 4, 57, 64
1, 98084, Note_on_c, 2, 74, 119
1, 98084, Note_on_c, 4, 59, 126
1, 98099, Note_off_c, 4, 64, 64
1, 98136, Note_on_c, 4, 63, 122
1, 98188, Note_on_c, 4, 64, 122
1, 98200, Note_off_c, 4, 63, 64
1, 98238, Note_off_c, 4, 59, 64
1, 98239, Note_on_c, 4, 59, 126
1, 98252, Note_off_c, 4, 64, 64
1, 98288, Note_on_c, 4, 63, 122
1, 98338, Note_on_c, 4, 64, 122
1, 98350, Note_off_c, 4, 63, 64
1, 98375, Note_off_c, 2, 74, 64
1, 98386, Note_off_c, 4, 59, 64
1, 98387, Note_on_c, 2, 76, 123
1, 98387, Note_on_c, 4, 56, 124
1, 98399, Note_off_c, 4, 64, 64
1, 98425, Note_on_c, 2, 74, 123
1, 98429, Note_off_c, 2, 76, 64
1, 98437, Note_on_c, 4, 63, 122
1, 98464, Note_on_c, 2, 73, 123
1, 98470, Note_off_c, 2, 74, 64
1, 98493, Note_on_c, 4, 64, 122
1, 98506, Note_off_c, 4, 63, 64
1, 98507, Note_on_c, 2, 71, 123
1, 98511, Note_off_c, 2, 73, 64
1, 98542, Note_off_c, 4, 56, 64
1, 98544, Note_on_c, 2, 69, 123
1, 98544, Note_on_c, 4, 54, 124
1, 98550, Note_off_c, 2, 71, 64
1, 98558, Note_off_c, 4, 64, 64
1, 98598, Note_on_c, 4, 63, 122
1, 98648, Note_on_c, 4, 64, 122
1, 98662, Note_off_c, 4, 63, 64
1, 98702, Note_off_c, 2, 69, 64
1, 98704, Note_off_c, 4, 54, 64
1, 98706, Note_on_c, 2, 69, 123
1, 98706, Note_on_c, 4, 54, 124
1, 98720, Note_off_c, 4, 64, 64
1, 98757, Note_on_c, 4, 63, 122
1, 98807, Note_on_c, 4, 64, 122
1, 98820, Note_off_c, 4, 63, 64
1, 98855, Note_off_c, 2, 69, 64
1, 98856, Note_off_c, 4, 54, 64
1, 98858, Note_on_c, 2, 73, 121
1, 98859, Note_on_c, 4, 56, 124
1, 98875, Note_off_c, 4, 64, 64
1, 98892, Note_off_c, 2, 73, 64
1, 98892, Note_on_c, 2, 71, 121
1, 98920, Note_off_c, 2, 71, 64
1, 98921, Note_on_c, 2, 73, 121
1, 98921, Note_on_c, 4, 62, 123
1, 98947, Note_off_c, 2, 73, 64
1, 98948, Note_on_c, 2, 71, 121
1, 98975, Note_off_c, 2, 71, 64
1, 98975, Note_on_c, 2, 69, 121
1, 98976, Note_on_c, 4, 64, 122
1, 98987, Note_off_c, 4, 62, 64
1, 98999, Note_off_c, 2, 69, 64
1, 98999, Note_on_c, 2, 71, 121
1, 99023, Note_off_c, 4, 56, 64
1, 99024, Note_off_c, 2, 71, 64
1, 99025, Note_on_c, 2, 73, 121
1, 99025, Note_on_c, 4, 57, 124
1, 99039, Note_off_c, 4, 64, 64
1, 99078, Note_on_c, 4, 61, 124
1, 99130, Note_on_c, 4, 64, 122
1, 99143, Note_off_c, 4, 61, 64
1, 99179, Note_off_c, 2, 73, 64
1, 99183, Note_off_c, 4, 57, 64
1, 99185, Note_on_c, 2, 73, 123
1, 99185, Note_on_c, 4, 57, 124
1, 99197, Note_off_c, 4, 64, 64
1, 99238, Note_on_c, 4, 61, 124
1, 99289, Note_on_c, 4, 64, 122
1, 99302, Note_off_c, 4, 61, 64
1, 99336, Note_off_c, 2, 73, 64
1, 99340, Note_off_c, 4, 57, 64
1, 99341, Note_on_c, 2, 76, 121
1, 99342, Note_on_c, 4, 50, 124
1, 99358, Note_off_c, 4, 64, 64
1, 99377, Note_off_c, 2, 76, 64
1, 99378, Note_on_c, 2, 74, 121
1, 99405, Note_off_c, 2, 74, 64
1, 99406, Note_on_c, 2, 76, 121
1, 99406, Note_on_c, 4, 54, 124
1, 99435, Note_off_c, 2, 76, 64
1, 99435, Note_on_c, 2, 74, 121
1, 99461, Note_off_c, 2, 74, 64
1, 99461, Note_on_c, 2, 73, 121
1, 99462, Note_on_c, 4, 59, 126
1, 99473, Note_off_c, 4, 54, 64
1, 99489, Note_off_c, 2, 73, 64
1, 99489, Note_on_c, 2, 74, 121
1, 99512, Note_off_c, 4, 50, 64
1, 99516, Note_off_c, 2, 74, 64
1, 99517, Note_on_c, 2, 73, 121
1, 99517, Note_on_c, 4, 52, 124
1, 99529, Note_off_c, 4, 59, 64
1, 99569, Note_on_c, 4, 57, 124
1, 99621, Note_on_c, 4, 61, 124
1, 99633, Note_off_c, 4, 57, 64
1, 99660, Note_off_c, 2, 73, 64
1, 99673, Note_off_c, 4, 52, 64
1, 99676, Note_on_c, 2, 73, 123
1, 99676, Note_on_c, 4, 52, 124
1, 99688, Note_off_c, 4, 61, 64
1, 99727, Note_on_c, 4, 57, 124
1, 99784, Note_on_c, 4, 61, 126
1, 99794, Note_off_c, 4, 57, 64
1, 99807, Note_off_c, 2, 73, 64
1, 99828, Note_off_c, 4, 52, 64
1, 99832, Note_on_c, 2, 73, 121
1, 99834, Note_on_c, 4, 52, 124
1, 99855, Note_off_c, 4, 61, 64
1, 99869, Note_off_c, 2, 73, 64
1, 99869, Note_on_c, 2, 71, 121
1, 99900, Note_off_c, 2, 71, 64
1, 99901, Note_on_c, 2, 73, 121
1, 99901, Note_on_c, 4, 56, 124
1, 99930, Note_off_c, 2, 73, 64
1, 99931, Note_on_c, 2, 71, 121
1, 99962, Note_off_c, 2, 71, 64
1, 99962, Note_on_c, 2, 69, 123
1, 99963, Note_on_c, 4, 62, 125
1, 99978, Note_off_c, 4, 56, 64
1, 99986, Note_off_c, 2, 69, 64
1, 99990, Note_on_c, 2, 71, 123
1, 100015, Note_off_c, 2, 71, 64
1, 100015, Note_off_c, 4, 62, 64
1, 100015, Note_off_c, 4, 52, 64
1, 100018, Note_on_c, 2, 71, 127
1, 100020, Note_on_c, 4, 64, 117
1, 100020, Note_on_c, 4, 57, 117
1, 100020, Note_on_c, 2, 69, 127
1, 100020, Note_on_c, 4, 62, 118
1, 100187, Note_on_c, 2, 72, 127
1, 100200, Note_off_c, 2, 71, 64
1, 100354, Note_off_c, 2, 69, 64
1, 100354, Note_off_c, 4, 33, 64
1, 100355, Note_on_c, 2, 73, 127
1, 100355, Note_on_c, 2, 69, 127
1, 100356, Note_on_c, 4, 61, 126
1, 100360, Note_off_c, 4, 62, 64
1, 100366, Note_off_c, 2, 72, 64
1, 100510, Note_off_c, 2, 73, 64
1, 100512, Note_on_c, 4, 45, 122
1, 100512, Note_on_c, 2, 73, 127
1, 100540, Note_off_c, 4, 61, 64
1, 100540, Note_off_c, 2, 69, 64
1, 100572, Note_on_c, 2, 69, 127
1, 100573, Note_off_c, 4, 57, 64
1, 100574, Note_off_c, 4, 64, 64
1, 100626, Note_on_c, 4, 66, 127
1, 100653, Note_off_c, 2, 69, 64
1, 100676, Note_off_c, 2, 73, 64
1, 100680, Note_on_c, 2, 73, 127
1, 100680, Note_on_c, 4, 56, 124
1, 100723, Note_on_c, 4, 57, 124
1, 100737, Note_off_c, 4, 56, 64
1, 100737, Note_on_c, 2, 69, 127
1, 100786, Note_off_c, 4, 66, 64
1, 100788, Note_on_c, 4, 66, 127
1, 100812, Note_off_c, 2, 69, 64
1, 100836, Note_off_c, 2, 73, 64
1, 100837, Note_off_c, 4, 57, 64
1, 100839, Note_on_c, 2, 74, 127
1, 100840, Note_on_c, 4, 58, 124
1, 100877, Note_on_c, 4, 59, 126
1, 100892, Note_off_c, 4, 58, 64
1, 100893, Note_on_c, 2, 69, 127
1, 100919, Note_off_c, 4, 45, 64
1, 100943, Note_off_c, 4, 66, 64
1, 100944, Note_on_c, 4, 64, 124
1, 100969, Note_off_c, 2, 69, 64
1, 100992, Note_off_c, 2, 74, 64
1, 100998, Note_on_c, 4, 49, 124
1, 100998, Note_on_c, 2, 76, 127
1, 101035, Note_off_c, 4, 59, 64
1, 101049, Note_on_c, 2, 73, 127
1, 101060, Note_off_c, 2, 76, 64
1, 101097, Note_off_c, 4, 64, 64
1, 101097, Note_on_c, 2, 69, 127
1, 101154, Note_on_c, 2, 76, 127
1, 101154, Note_on_c, 4, 60, 126
1, 101193, Note_on_c, 4, 61, 126
1, 101202, Note_off_c, 2, 73, 64
1, 101208, Note_off_c, 4, 60, 64
1, 101208, Note_on_c, 2, 73, 127
1, 101220, Note_off_c, 2, 76, 64
1, 101251, Note_off_c, 2, 69, 64
1, 101255, Note_on_c, 2, 69, 127
1, 101301, Note_off_c, 4, 61, 64
1, 101303, Note_on_c, 1, 78, 127
1, 101304, Note_on_c, 4, 61, 127
1, 101343, Note_on_c, 4, 62, 127
1, 101348, Note_off_c, 4, 61, 64
1, 101354, Note_off_c, 2, 73, 64
1, 101356, Note_on_c, 2, 71, 127
1, 101381, Note_off_c, 4, 49, 64
1, 101404, Note_off_c, 2, 69, 64
1, 101408, Note_on_c, 2, 69, 127
1, 101419, Note_off_c, 1, 78, 64
1, 101454, Note_on_c, 4, 40, 122
1, 101454, Note_on_c, 2, 73, 127
1, 101466, Note_off_c, 2, 69, 64
1, 101467, Note_off_c, 2, 71, 64
1, 101496, Note_off_c, 4, 62, 64
1, 101509, Note_on_c, 2, 69, 127
1, 101521, Note_off_c, 2, 73, 64
1, 101559, Note_on_c, 4, 66, 127
1, 101571, Note_off_c, 2, 69, 64
1, 101607, Note_on_c, 2, 73, 127
1, 101608, Note_on_c, 4, 51, 124
1, 101647, Note_on_c, 4, 52, 124
1, 101661, Note_off_c, 4, 51, 64
1, 101661, Note_on_c, 2, 69, 127
1, 101675, Note_off_c, 2, 73, 64
1, 101709, Note_off_c, 4, 66, 64
1, 101713, Note_on_c, 4, 64, 126
1, 101727, Note_off_c, 2, 69, 64
1, 101761, Note_off_c, 4, 52, 64
1, 101765, Note_on_c, 2, 71, 127
1, 101766, Note_on_c, 4, 51, 124
1, 101803, Note_on_c, 4, 52, 124
1, 101816, Note_off_c, 4, 51, 64
1, 101817, Note_on_c, 2, 69, 127
1, 101830, Note_off_c, 2, 71, 64
1, 101843, Note_off_c, 4, 40, 64
1, 101866, Note_off_c, 4, 64, 64
1, 101870, Note_on_c, 4, 62, 127
1, 101883, Note_off_c, 2, 69, 64
1, 101920, Note_on_c, 4, 33, 122
1, 101920, Note_on_c, 2, 69, 127
1, 101951, Note_off_c, 4, 62, 64
1, 101971, Note_on_c, 4, 64, 126
1, 101986, Note_off_c, 2, 69, 64
1, 102026, Note_on_c, 4, 61, 127
1, 102040, Note_off_c, 4, 64, 64
1, 102040, Note_off_c, 4, 52, 64
1, 102041, Note_on_c, 4, 44, 122
1, 102085, Note_on_c, 4, 45, 122
1, 102085, Note_on_c, 4, 57, 126
1, 102101, Note_off_c, 4, 44, 64
1, 102128, Note_off_c, 4, 61, 64
1, 102351, Note_off_c, 4, 57, 64
1, 102368, Note_on_c, 2, 72, 127
1, 102369, Note_on_c, 4, 57, 127
1, 102459, Note_on_c, 2, 71, 127
1, 102460, Note_on_c, 4, 64, 124
1, 102472, Note_off_c, 2, 72, 64
1, 102533, Note_off_c, 4, 57, 64
1, 102534, Note_on_c, 2, 69, 127
1, 102534, Note_on_c, 4, 60, 127
1, 102543, Note_off_c, 4, 64, 64
1, 102545, Note_off_c, 2, 71, 64
1, 102616, Note_on_c, 2, 71, 127
1, 102616, Note_on_c, 4, 64, 124
1, 102628, Note_off_c, 2, 69, 64
1, 102692, Note_off_c, 4, 60, 64
1, 102693, Note_on_c, 2, 72, 127
1, 102693, Note_on_c, 4, 57, 127
1, 102701, Note_off_c, 4, 64, 64
1, 102705, Note_off_c, 2, 71, 64
1, 102776, Note_on_c, 2, 74, 127
1, 102777, Note_on_c, 4, 64, 124
1, 102789, Note_off_c, 2, 72, 64
1, 102854, Note_off_c, 4, 57, 64
1, 102854, Note_on_c, 2, 76, 127
1, 102855, Note_on_c, 4, 57, 127
1, 102863, Note_off_c, 4, 64, 64
1, 102866, Note_off_c, 2, 74, 64
1, 102934, Note_on_c, 2, 75, 127
1, 102934, Note_on_c, 4, 64, 124
1, 102943, Note_off_c, 2, 76, 64
1, 103007, Note_off_c, 4, 57, 64
1, 103007, Note_on_c, 2, 77, 127
1, 103008, Note_on_c, 4, 60, 127
1, 103017, Note_off_c, 4, 64, 64
1, 103021, Note_off_c, 2, 75, 64
1, 103086, Note_on_c, 2, 76, 127
1, 103088, Note_on_c, 4, 64, 124
1, 103100, Note_off_c, 2, 77, 64
1, 103163, Note_off_c, 4, 60, 64
1, 103164, Note_on_c, 2, 74, 127
1, 103164, Note_on_c, 4, 57, 127
1, 103172, Note_off_c, 4, 64, 64
1, 103176, Note_off_c, 2, 76, 64
1, 103239, Note_on_c, 2, 72, 127
1, 103239, Note_on_c, 4, 64, 124
1, 103251, Note_off_c, 2, 74, 64
1, 103315, Note_off_c, 4, 57, 64
1, 103315, Note_on_c, 2, 71, 127
1, 103316, Note_on_c, 4, 52, 127
1, 103323, Note_off_c, 4, 64, 64
1, 103327, Note_off_c, 2, 72, 64
1, 103394, Note_on_c, 2, 69, 127
1, 103395, Note_on_c, 4, 64, 124
1, 103410, Note_off_c, 2, 71, 64
1, 103473, Note_off_c, 2, 69, 64
1, 103481, Note_off_c, 4, 52, 64
1, 103481, Note_on_c, 2, 69, 127
1, 103482, Note_on_c, 4, 59, 127
1, 103489, Note_off_c, 4, 64, 64
1, 103555, Note_off_c, 2, 69, 64
1, 103560, Note_on_c, 2, 69, 127
1, 103561, Note_on_c, 4, 64, 124
1, 103630, Note_off_c, 2, 69, 64
1, 103635, Note_off_c, 4, 59, 64
1, 103636, Note_on_c, 2, 71, 127
1, 103638, Note_on_c, 4, 52, 127
1, 103644, Note_off_c, 4, 64, 64
1, 103711, Note_on_c, 2, 72, 127
1, 103713, Note_on_c, 4, 64, 124
1, 103725, Note_off_c, 2, 71, 64
1, 103784, Note_off_c, 4, 52, 64
1, 103785, Note_on_c, 4, 52, 127
1, 103785, Note_on_c, 2, 74, 127
1, 103793, Note_off_c, 4, 64, 64
1, 103797, Note_off_c, 2, 72, 64
1, 103864, Note_on_c, 2, 73, 127
1, 103864, Note_on_c, 4, 64, 124
1, 103877, Note_off_c, 2, 74, 64
1, 103939, Note_off_c, 4, 52, 64
1, 103939, Note_on_c, 2, 76, 127
1, 103940, Note_on_c, 4, 59, 127
1, 103945, Note_off_c, 4, 64, 64
1, 103949, Note_off_c, 2, 73, 64
1, 104021, Note_on_c, 2, 74, 127
1, 104022, Note_on_c, 4, 64, 124
1, 104032, Note_off_c, 2, 76, 64
1, 104092, Note_off_c, 4, 59, 64
1, 104092, Note_on_c, 2, 72, 127
1, 104094, Note_on_c, 4, 52, 127
1, 104100, Note_off_c, 4, 64, 64
1, 104104, Note_off_c, 2, 74, 64
1, 104173, Note_on_c, 2, 71, 127
1, 104174, Note_on_c, 4, 64, 124
1, 104186, Note_off_c, 2, 72, 64
1, 104257, Note_off_c, 4, 52, 64
1, 104257, Note_on_c, 2, 69, 127
1, 104259, Note_on_c, 4, 57, 124
1, 104267, Note_off_c, 4, 64, 64
1, 104271, Note_off_c, 2, 71, 64
1, 104339, Note_on_c, 2, 76, 127
1, 104340, Note_on_c, 4, 64, 124
1, 104352, Note_off_c, 2, 69, 64
1, 104415, Note_off_c, 4, 57, 64
1, 104416, Note_on_c, 2, 75, 127
1, 104416, Note_on_c, 4, 60, 127
1, 104424, Note_off_c, 4, 64, 64
1, 104428, Note_off_c, 2, 76, 64
1, 104493, Note_on_c, 2, 76, 127
1, 104494, Note_on_c, 4, 64, 124
1, 104505, Note_off_c, 2, 75, 64
1, 104570, Note_off_c, 4, 60, 64
1, 104570, Note_on_c, 2, 72, 127
1, 104571, Note_on_c, 4, 57, 127
1, 104579, Note_off_c, 4, 64, 64
1, 104582, Note_off_c, 2, 76, 64
1, 104644, Note_on_c, 2, 69, 127
1, 104644, Note_on_c, 4, 64, 124
1, 104656, Note_off_c, 2, 72, 64
1, 104710, Note_off_c, 2, 69, 64
1, 104716, Note_off_c, 4, 57, 64
1, 104716, Note_on_c, 2, 69, 127
1, 104719, Note_on_c, 4, 59, 127
1, 104726, Note_off_c, 4, 64, 64
1, 104786, Note_off_c, 2, 69, 64
1, 104794, Note_on_c, 2, 76, 127
1, 104796, Note_on_c, 4, 64, 124
1, 104876, Note_off_c, 4, 59, 64
1, 104877, Note_on_c, 2, 77, 127
1, 104877, Note_on_c, 4, 62, 127
1, 104883, Note_off_c, 4, 64, 64
1, 104887, Note_off_c, 2, 76, 64
1, 104952, Note_on_c, 2, 76, 127
1, 104954, Note_on_c, 4, 64, 124
1, 104965, Note_off_c, 2, 77, 64
1, 105025, Note_off_c, 4, 62, 64
1, 105025, Note_on_c, 2, 74, 127
1, 105026, Note_on_c, 4, 59, 127
1, 105034, Note_off_c, 4, 64, 64
1, 105037, Note_off_c, 2, 76, 64
1, 105105, Note_on_c, 2, 71, 127
1, 105105, Note_on_c, 4, 64, 124
1, 105118, Note_off_c, 2, 74, 64
1, 105173, Note_off_c, 2, 71, 64
1, 105182, Note_off_c, 4, 59, 64
1, 105183, Note_on_c, 2, 71, 127
1, 105183, Note_on_c, 4, 60, 127
1, 105191, Note_off_c, 4, 64, 64
1, 105260, Note_on_c, 2, 69, 127
1, 105262, Note_on_c, 4, 64, 124
1, 105268, Note_off_c, 2, 71, 64
1, 105331, Note_off_c, 2, 69, 64
1, 105339, Note_off_c, 4, 60, 64
1, 105339, Note_on_c, 2, 69, 127
1, 105340, Note_on_c, 4, 59, 127
1, 105348, Note_off_c, 4, 64, 64
1, 105407, Note_off_c, 2, 69, 64
1, 105413, Note_on_c, 2, 69, 127
1, 105413, Note_on_c, 4, 64, 124
1, 105488, Note_off_c, 2, 69, 64
1, 105495, Note_off_c, 4, 59, 64
1, 105496, Note_on_c, 4, 57, 127
1, 105496, Note_on_c, 2, 71, 127
1, 105504, Note_off_c, 4, 64, 64
1, 105575, Note_on_c, 2, 72, 127
1, 105576, Note_on_c, 4, 64, 124
1, 105583, Note_off_c, 2, 71, 64
1, 105656, Note_off_c, 2, 72, 64
1, 105660, Note_off_c, 4, 57, 64
1, 105660, Note_on_c, 2, 72, 127
1, 105660, Note_on_c, 2, 69, 127
1, 105661, Note_on_c, 4, 52, 127
1, 105669, Note_off_c, 4, 64, 64
1, 105748, Note_on_c, 4, 64, 124
1, 105828, Note_off_c, 4, 52, 64
1, 105829, Note_on_c, 4, 63, 127
1, 105835, Note_off_c, 4, 64, 64
1, 105908, Note_on_c, 4, 64, 124
1, 105916, Note_off_c, 4, 63, 64
1, 105975, Note_off_c, 2, 69, 64
1, 105976, Note_off_c, 2, 72, 64
1, 105978, Note_on_c, 2, 71, 127
1, 105979, Note_on_c, 2, 69, 127
1, 105979, Note_on_c, 4, 52, 127
1, 105989, Note_off_c, 4, 64, 64
1, 106050, Note_on_c, 4, 64, 126
1, 106121, Note_off_c, 2, 69, 64
1, 106122, Note_off_c, 2, 71, 64
1, 106128, Note_off_c, 4, 52, 64
1, 106128, Note_on_c, 1, 84, 127
1, 106129, Note_on_c, 3, 72, 127
1, 106129, Note_on_c, 4, 57, 127
1, 106140, Note_off_c, 4, 64, 64
1, 106212, Note_on_c, 1, 83, 127
1, 106213, Note_on_c, 3, 71, 127
1, 106213, Note_on_c, 4, 64, 126
1, 106225, Note_off_c, 3, 72, 64
1, 106225, Note_off_c, 1, 84, 64
1, 106287, Note_off_c, 4, 57, 64
1, 106288, Note_on_c, 1, 81, 127
1, 106288, Note_on_c, 3, 69, 127
1, 106289, Note_on_c, 4, 60, 127
1, 106297, Note_off_c, 4, 64, 64
1, 106301, Note_off_c, 3, 71, 64
1, 106301, Note_off_c, 1, 83, 64
1, 106366, Note_on_c, 1, 83, 127
1, 106367, Note_on_c, 3, 71, 127
1, 106368, Note_on_c, 4, 64, 126
1, 106378, Note_off_c, 1, 81, 64
1, 106380, Note_off_c, 3, 69, 64
1, 106445, Note_off_c, 4, 60, 64
1, 106446, Note_on_c, 1, 84, 127
1, 106446, Note_on_c, 3, 72, 127
1, 106447, Note_on_c, 4, 57, 127
1, 106454, Note_off_c, 4, 64, 64
1, 106459, Note_off_c, 3, 71, 64
1, 106459, Note_off_c, 1, 83, 64
1, 106523, Note_on_c, 1, 86, 127
1, 106524, Note_on_c, 3, 74, 127
1, 106525, Note_on_c, 4, 64, 126
1, 106536, Note_off_c, 1, 84, 64
1, 106537, Note_off_c, 3, 72, 64
1, 106599, Note_off_c, 4, 57, 64
1, 106599, Note_on_c, 1, 88, 127
1, 106601, Note_on_c, 3, 76, 127
1, 106602, Note_on_c, 4, 57, 127
1, 106608, Note_off_c, 4, 64, 64
1, 106612, Note_off_c, 1, 86, 64
1, 106613, Note_off_c, 3, 74, 64
1, 106680, Note_on_c, 1, 87, 127
1, 106681, Note_on_c, 3, 75, 127
1, 106681, Note_on_c, 4, 64, 126
1, 106694, Note_off_c, 3, 76, 64
1, 106694, Note_off_c, 1, 88, 64
1, 106757, Note_off_c, 4, 57, 64
1, 106758, Note_on_c, 1, 89, 127
1, 106758, Note_on_c, 3, 77, 127
1, 106759, Note_on_c, 4, 60, 127
1, 106764, Note_off_c, 4, 64, 64
1, 106769, Note_off_c, 3, 75, 64
1, 106769, Note_off_c, 1, 87, 64
1, 106835, Note_on_c, 1, 88, 127
1, 106836, Note_on_c, 3, 76, 127
1, 106837, Note_on_c, 4, 64, 126
1, 106848, Note_off_c, 3, 77, 64
1, 106848, Note_off_c, 1, 89, 64
1, 106910, Note_off_c, 4, 60, 64
1, 106910, Note_on_c, 1, 86, 127
1, 106911, Note_on_c, 4, 57, 127
1, 106911, Note_on_c, 3, 74, 127
1, 106918, Note_off_c, 4, 64, 64
1, 106921, Note_off_c, 1, 88, 64
1, 106922, Note_off_c, 3, 76, 64
1, 106985, Note_on_c, 1, 84, 127
1, 106985, Note_on_c, 3, 72, 127
1, 106986, Note_on_c, 4, 64, 126
1, 106997, Note_off_c, 1, 86, 64
1, 106998, Note_off_c, 3, 74, 64
1, 107062, Note_off_c, 4, 57, 64
1, 107062, Note_on_c, 1, 83, 127
1, 107063, Note_on_c, 3, 71, 127
1, 107063, Note_on_c, 4, 52, 127
1, 107069, Note_off_c, 4, 64, 64
1, 107075, Note_off_c, 1, 84, 64
1, 107076, Note_off_c, 3, 72, 64
1, 107139, Note_on_c, 1, 81, 127
1, 107140, Note_on_c, 3, 69, 127
1, 107140, Note_on_c, 4, 64, 126
1, 107152, Note_off_c, 3, 71, 64
1, 107152, Note_off_c, 1, 83, 64
1, 107212, Note_off_c, 3, 69, 64
1, 107218, Note_off_c, 4, 52, 64
1, 107219, Note_on_c, 3, 80, 127
1, 107219, Note_on_c, 3, 69, 127
1, 107220, Note_on_c, 4, 59, 127
1, 107228, Note_off_c, 4, 64, 64
1, 107232, Note_off_c, 1, 81, 64
1, 107287, Note_off_c, 3, 69, 64
1, 107293, Note_on_c, 1, 81, 127
1, 107295, Note_on_c, 3, 69, 127
1, 107295, Note_on_c, 4, 64, 126
1, 107305, Note_off_c, 3, 80, 64
1, 107363, Note_off_c, 3, 69, 64
1, 107369, Note_off_c, 4, 59, 64
1, 107369, Note_on_c, 1, 83, 127
1, 107370, Note_on_c, 4, 52, 127
1, 107370, Note_on_c, 3, 71, 127
1, 107378, Note_off_c, 4, 64, 64
1, 107382, Note_off_c, 1, 81, 64
1, 107448, Note_on_c, 1, 84, 127
1, 107448, Note_on_c, 3, 72, 127
1, 107448, Note_on_c, 4, 64, 126
1, 107461, Note_off_c, 3, 71, 64
1, 107461, Note_off_c, 1, 83, 64
1, 107520, Note_off_c, 4, 52, 64
1, 107520, Note_on_c, 1, 86, 127
1, 107520, Note_on_c, 3, 74, 127
1, 107521, Note_on_c, 4, 52, 127
1, 107529, Note_off_c, 4, 64, 64
1, 107531, Note_off_c, 1, 84, 64
1, 107533, Note_off_c, 3, 72, 64
1, 107600, Note_on_c, 1, 85, 127
1, 107601, Note_on_c, 3, 73, 127
1, 107601, Note_on_c, 4, 64, 126
1, 107613, Note_off_c, 3, 74, 64
1, 107613, Note_off_c, 1, 86, 64
1, 107676, Note_off_c, 4, 52, 64
1, 107677, Note_on_c, 1, 88, 127
1, 107677, Note_on_c, 3, 76, 127
1, 107677, Note_on_c, 4, 59, 127
1, 107684, Note_off_c, 4, 64, 64
1, 107688, Note_off_c, 1, 85, 64
1, 107689, Note_off_c, 3, 73, 64
1, 107753, Note_on_c, 1, 86, 127
1, 107755, Note_on_c, 3, 74, 127
1, 107755, Note_on_c, 4, 64, 126
1, 107765, Note_off_c, 1, 88, 64
1, 107766, Note_off_c, 3, 76, 64
1, 107825, Note_off_c, 4, 59, 64
1, 107825, Note_on_c, 1, 84, 127
1, 107826, Note_on_c, 3, 72, 127
1, 107826, Note_on_c, 4, 52, 127
1, 107832, Note_off_c, 4, 64, 64
1, 107836, Note_off_c, 1, 86, 64
1, 107838, Note_off_c, 3, 74, 64
1, 107904, Note_on_c, 1, 83, 127
1, 107904, Note_on_c, 3, 71, 127
1, 107904, Note_on_c, 4, 64, 126
1, 107916, Note_off_c, 1, 84, 64
1, 107918, Note_off_c, 3, 72, 64
1, 107977, Note_off_c, 4, 52, 64
1, 107978, Note_on_c, 1, 81, 127
1, 107980, Note_on_c, 3, 69, 127
1, 107981, Note_on_c, 4, 57, 127
1, 107987, Note_off_c, 4, 64, 64
1, 107991, Note_off_c, 1, 83, 64
1, 107993, Note_off_c, 3, 71, 64
1, 108050, Note_off_c, 3, 69, 64
1, 108056, Note_on_c, 3, 80, 127
1, 108058, Note_on_c, 3, 69, 127
1, 108059, Note_on_c, 4, 64, 126
1, 108069, Note_off_c, 1, 81, 64
1, 108124, Note_off_c, 3, 69, 64
1, 108130, Note_off_c, 4, 57, 64
1, 108131, Note_on_c, 1, 81, 127
1, 108131, Note_on_c, 3, 69, 127
1, 108132, Note_on_c, 4, 60, 127
1, 108140, Note_off_c, 4, 64, 64
1, 108144, Note_off_c, 3, 80, 64
1, 108199, Note_off_c, 3, 69, 64
1, 108205, Note_on_c, 1, 84, 127
1, 108205, Note_on_c, 3, 72, 127
1, 108206, Note_on_c, 4, 64, 126
1, 108217, Note_off_c, 1, 81, 64
1, 108288, Note_off_c, 4, 60, 64
1, 108289, Note_on_c, 1, 83, 127
1, 108289, Note_on_c, 3, 71, 127
1, 108290, Note_on_c, 4, 56, 127
1, 108298, Note_off_c, 4, 64, 64
1, 108302, Note_off_c, 3, 72, 64
1, 108302, Note_off_c, 1, 84, 64
1, 108360, Note_on_c, 1, 86, 127
1, 108361, Note_on_c, 3, 74, 127
1, 108361, Note_on_c, 4, 64, 126
1, 108374, Note_off_c, 3, 71, 64
1, 108374, Note_off_c, 1, 83, 64
1, 108440, Note_off_c, 4, 56, 64
1, 108441, Note_on_c, 1, 84, 127
1, 108441, Note_on_c, 3, 72, 127
1, 108442, Note_on_c, 4, 57, 127
1, 108448, Note_off_c, 4, 64, 64
1, 108452, Note_off_c, 1, 86, 64
1, 108454, Note_off_c, 3, 74, 64
1, 108513, Note_on_c, 1, 83, 127
1, 108514, Note_on_c, 3, 71, 127
1, 108514, Note_on_c, 4, 64, 126
1, 108525, Note_off_c, 1, 84, 64
1, 108527, Note_off_c, 3, 72, 64
1, 108539, Note_off_c, 4, 45, 64
1, 108594, Note_off_c, 4, 57, 64
1, 108595, Note_on_c, 4, 60, 127
1, 108595, Note_on_c, 1, 84, 127
1, 108595, Note_on_c, 3, 72, 127
1, 108603, Note_off_c, 4, 64, 64
1, 108608, Note_off_c, 3, 71, 64
1, 108608, Note_off_c, 1, 83, 64
1, 108667, Note_on_c, 1, 88, 127
1, 108669, Note_on_c, 3, 76, 127
1, 108669, Note_on_c, 4, 64, 126
1, 108680, Note_off_c, 1, 84, 64
1, 108681, Note_off_c, 3, 72, 64
1, 108745, Note_off_c, 1, 88, 64
1, 108745, Note_off_c, 4, 60, 64
1, 108746, Note_off_c, 3, 76, 64
1, 108746, Note_on_c, 1, 86, 127
1, 108747, Note_on_c, 3, 74, 127
1, 108747, Note_on_c, 4, 53, 127
1, 108753, Note_off_c, 4, 64, 64
1, 108817, Note_on_c, 1, 89, 127
1, 108817, Note_on_c, 3, 77, 127
1, 108818, Note_on_c, 4, 64, 126
1, 108829, Note_off_c, 1, 86, 64
1, 108830, Note_off_c, 3, 74, 64
1, 108892, Note_off_c, 1, 89, 64
1, 108892, Note_off_c, 4, 53, 64
1, 108893, Note_off_c, 4, 64, 64
1, 108893, Note_off_c, 3, 77, 64
1, 108893, Note_on_c, 1, 88, 127
1, 108894, Note_on_c, 3, 76, 127
1, 108894, Note_on_c, 4, 52, 127
1, 108970, Note_on_c, 1, 87, 127
1, 108971, Note_on_c, 3, 75, 127
1, 108972, Note_on_c, 4, 60, 127
1, 108980, Note_off_c, 3, 76, 64
1, 108984, Note_off_c, 1, 88, 64
1, 109049, Note_off_c, 4, 52, 64
1, 109050, Note_on_c, 1, 88, 127
1, 109050, Note_on_c, 3, 76, 127
1, 109051, Note_on_c, 4, 57, 127
1, 109059, Note_off_c, 4, 60, 64
1, 109059, Note_off_c, 3, 75, 64
1, 109062, Note_off_c, 1, 87, 64
1, 109121, Note_off_c, 3, 76, 64
1, 109128, Note_on_c, 3, 76, 127
1, 109129, Note_on_c, 4, 64, 126
1, 109129, Note_on_c, 4, 60, 127
1, 109140, Note_off_c, 1, 88, 64
1, 109197, Note_off_c, 3, 76, 64
1, 109203, Note_off_c, 4, 57, 64
1, 109203, Note_on_c, 4, 66, 127
1, 109204, Note_on_c, 1, 78, 127
1, 109204, Note_on_c, 4, 52, 127
1, 109212, Note_off_c, 4, 60, 64
1, 109212, Note_off_c, 4, 64, 64
1, 109281, Note_on_c, 2, 69, 127
1, 109281, Note_on_c, 1, 80, 127
1, 109282, Note_on_c, 4, 59, 127
1, 109289, Note_off_c, 4, 66, 64
1, 109295, Note_off_c, 1, 78, 64
1, 109353, Note_off_c, 4, 52, 64
1, 109353, Note_on_c, 2, 69, 127
1, 109354, Note_on_c, 1, 81, 127
1, 109354, Note_on_c, 4, 45, 127
1, 109366, Note_off_c, 1, 80, 64
1, 109426, Note_off_c, 4, 59, 64
1, 109426, Note_on_c, 4, 48, 127
1, 109435, Note_off_c, 4, 45, 64
1, 109502, Note_on_c, 4, 52, 127
1, 109512, Note_off_c, 4, 48, 64
1, 109581, Note_on_c, 4, 57, 127
1, 109589, Note_off_c, 4, 52, 64
1, 109654, Note_off_c, 4, 33, 64
1, 109655, Note_on_c, 4, 45, 127
1, 109722, Note_off_c, 4, 57, 64
1, 109725, Note_off_c, 1, 81, 64
1, 109768, Note_off_c, 2, 69, 64
1, 109768, Note_off_c, 2, 69, 64
1, 109797, Note_on_c, 2, 72, 127
1, 109801, Note_on_c, 4, 57, 127
1, 109895, Note_on_c, 2, 71, 127
1, 109896, Note_on_c, 4, 64, 124
1, 109908, Note_off_c, 2, 72, 64
1, 109969, Note_off_c, 4, 57, 64
1, 109969, Note_on_c, 2, 69, 127
1, 109970, Note_on_c, 4, 60, 127
1, 109978, Note_off_c, 4, 64, 64
1, 109981, Note_off_c, 2, 71, 64
1, 110051, Note_on_c, 2, 71, 127
1, 110051, Note_on_c, 4, 64, 124
1, 110063, Note_off_c, 2, 69, 64
1, 110126, Note_off_c, 4, 60, 64
1, 110127, Note_on_c, 2, 72, 127
1, 110129, Note_on_c, 4, 57, 127
1, 110137, Note_off_c, 4, 64, 64
1, 110141, Note_off_c, 2, 71, 64
1, 110208, Note_on_c, 2, 74, 127
1, 110210, Note_on_c, 4, 64, 124
1, 110223, Note_off_c, 2, 72, 64
1, 110287, Note_off_c, 4, 57, 64
1, 110287, Note_on_c, 2, 76, 127
1, 110288, Note_on_c, 4, 57, 127
1, 110296, Note_off_c, 4, 64, 64
1, 110300, Note_off_c, 2, 74, 64
1, 110367, Note_on_c, 2, 75, 127
1, 110368, Note_on_c, 4, 64, 124
1, 110377, Note_off_c, 2, 76, 64
1, 110436, Note_off_c, 4, 57, 64
1, 110437, Note_on_c, 2, 77, 127
1, 110439, Note_on_c, 4, 60, 127
1, 110447, Note_off_c, 4, 64, 64
1, 110451, Note_off_c, 2, 75, 64
1, 110518, Note_on_c, 2, 76, 127
1, 110519, Note_on_c, 4, 64, 124
1, 110531, Note_off_c, 2, 77, 64
1, 110592, Note_off_c, 4, 60, 64
1, 110592, Note_on_c, 2, 74, 127
1, 110593, Note_on_c, 4, 57, 127
1, 110601, Note_off_c, 4, 64, 64
1, 110604, Note_off_c, 2, 76, 64
1, 110668, Note_on_c, 2, 72, 127
1, 110670, Note_on_c, 4, 64, 124
1, 110681, Note_off_c, 2, 74, 64
1, 110745, Note_off_c, 4, 57, 64
1, 110745, Note_on_c, 2, 71, 127
1, 110746, Note_on_c, 4, 52, 127
1, 110753, Note_off_c, 4, 64, 64
1, 110758, Note_off_c, 2, 72, 64
1, 110823, Note_on_c, 2, 69, 127
1, 110823, Note_on_c, 4, 64, 124
1, 110838, Note_off_c, 2, 71, 64
1, 110899, Note_off_c, 2, 69, 64
1, 110907, Note_off_c, 4, 52, 64
1, 110908, Note_on_c, 2, 69, 127
1, 110910, Note_on_c, 4, 59, 127
1, 110917, Note_off_c, 4, 64, 64
1, 110981, Note_off_c, 2, 69, 64
1, 110987, Note_on_c, 2, 69, 127
1, 110988, Note_on_c, 4, 64, 124
1, 111057, Note_off_c, 2, 69, 64
1, 111062, Note_off_c, 4, 59, 64
1, 111063, Note_on_c, 2, 71, 127
1, 111063, Note_on_c, 4, 52, 127
1, 111071, Note_off_c, 4, 64, 64
1, 111137, Note_on_c, 2, 72, 127
1, 111138, Note_on_c, 4, 64, 124
1, 111148, Note_off_c, 2, 71, 64
1, 111212, Note_off_c, 4, 52, 64
1, 111212, Note_on_c, 2, 74, 127
1, 111213, Note_on_c, 4, 52, 127
1, 111220, Note_off_c, 4, 64, 64
1, 111224, Note_off_c, 2, 72, 64
1, 111288, Note_on_c, 2, 73, 127
1, 111289, Note_on_c, 4, 64, 124
1, 111301, Note_off_c, 2, 74, 64
1, 111362, Note_off_c, 4, 52, 64
1, 111363, Note_on_c, 2, 76, 127
1, 111363, Note_on_c, 4, 59, 127
1, 111369, Note_off_c, 4, 64, 64
1, 111373, Note_off_c, 2, 73, 64
1, 111444, Note_on_c, 2, 74, 127
1, 111446, Note_on_c, 4, 64, 124
1, 111458, Note_off_c, 2, 76, 64
1, 111522, Note_off_c, 4, 59, 64
1, 111522, Note_on_c, 2, 72, 127
1, 111523, Note_on_c, 4, 52, 127
1, 111529, Note_off_c, 4, 64, 64
1, 111533, Note_off_c, 2, 74, 64
1, 111602, Note_on_c, 2, 71, 127
1, 111603, Note_on_c, 4, 64, 124
1, 111616, Note_off_c, 2, 72, 64
1, 111688, Note_off_c, 4, 52, 64
1, 111688, Note_on_c, 2, 69, 127
1, 111689, Note_on_c, 4, 57, 120
1, 111698, Note_off_c, 4, 64, 64
1, 111702, Note_off_c, 2, 71, 64
1, 111769, Note_on_c, 2, 76, 127
1, 111770, Note_on_c, 4, 64, 124
1, 111781, Note_off_c, 2, 69, 64
1, 111844, Note_off_c, 4, 57, 64
1, 111845, Note_on_c, 2, 75, 127
1, 111847, Note_on_c, 4, 60, 127
1, 111855, Note_off_c, 4, 64, 64
1, 111859, Note_off_c, 2, 76, 64
1, 111922, Note_on_c, 2, 76, 127
1, 111924, Note_on_c, 4, 64, 124
1, 111934, Note_off_c, 2, 75, 64
1, 112001, Note_off_c, 4, 60, 64
1, 112001, Note_on_c, 2, 72, 127
1, 112002, Note_on_c, 4, 57, 127
1, 112008, Note_off_c, 4, 64, 64
1, 112012, Note_off_c, 2, 76, 64
1, 112074, Note_on_c, 2, 69, 127
1, 112076, Note_on_c, 4, 64, 124
1, 112087, Note_off_c, 2, 72, 64
1, 112139, Note_off_c, 2, 69, 64
1, 112147, Note_off_c, 4, 57, 64
1, 112147, Note_on_c, 2, 69, 127
1, 112148, Note_on_c, 4, 59, 127
1, 112155, Note_off_c, 4, 64, 64
1, 112216, Note_off_c, 2, 69, 64
1, 112224, Note_on_c, 2, 76, 127
1, 112225, Note_on_c, 4, 64, 124
1, 112306, Note_off_c, 4, 59, 64
1, 112307, Note_on_c, 2, 77, 127
1, 112307, Note_on_c, 4, 62, 127
1, 112313, Note_off_c, 4, 64, 64
1, 112317, Note_off_c, 2, 76, 64
1, 112382, Note_on_c, 2, 76, 127
1, 112384, Note_on_c, 4, 64, 124
1, 112393, Note_off_c, 2, 77, 64
1, 112455, Note_off_c, 4, 62, 64
1, 112455, Note_on_c, 2, 74, 127
1, 112456, Note_on_c, 4, 59, 127
1, 112464, Note_off_c, 4, 64, 64
1, 112467, Note_off_c, 2, 76, 64
1, 112534, Note_on_c, 2, 71, 127
1, 112536, Note_on_c, 4, 64, 124
1, 112547, Note_off_c, 2, 74, 64
1, 112603, Note_off_c, 2, 71, 64
1, 112610, Note_off_c, 4, 59, 64
1, 112611, Note_on_c, 2, 71, 127
1, 112613, Note_on_c, 4, 60, 127
1, 112621, Note_off_c, 4, 64, 64
1, 112690, Note_on_c, 2, 69, 127
1, 112691, Note_on_c, 4, 64, 124
1, 112698, Note_off_c, 2, 71, 64
1, 112761, Note_off_c, 2, 69, 64
1, 112769, Note_off_c, 4, 60, 64
1, 112769, Note_on_c, 2, 69, 127
1, 112770, Note_on_c, 4, 59, 127
1, 112777, Note_off_c, 4, 64, 64
1, 112837, Note_off_c, 2, 69, 64
1, 112843, Note_on_c, 2, 69, 127
1, 112843, Note_on_c, 4, 64, 124
1, 112917, Note_off_c, 2, 69, 64
1, 112925, Note_off_c, 4, 59, 64
1, 112925, Note_on_c, 2, 71, 127
1, 112926, Note_on_c, 4, 57, 127
1, 112933, Note_off_c, 4, 64, 64
1, 113004, Note_on_c, 2, 72, 127
1, 113005, Note_on_c, 4, 64, 124
1, 113013, Note_off_c, 2, 71, 64
1, 113086, Note_off_c, 2, 72, 64
1, 113089, Note_off_c, 4, 57, 64
1, 113090, Note_on_c, 2, 72, 127
1, 113090, Note_on_c, 2, 69, 127
1, 113091, Note_on_c, 4, 52, 127
1, 113099, Note_off_c, 4, 64, 64
1, 113178, Note_on_c, 4, 64, 124
1, 113257, Note_off_c, 4, 52, 64
1, 113258, Note_on_c, 4, 63, 127
1, 113266, Note_off_c, 4, 64, 64
1, 113337, Note_on_c, 4, 64, 124
1, 113345, Note_off_c, 4, 63, 64
1, 113404, Note_off_c, 2, 69, 64
1, 113405, Note_off_c, 2, 72, 64
1, 113410, Note_on_c, 2, 71, 127
1, 113410, Note_on_c, 2, 69, 127
1, 113410, Note_on_c, 4, 52, 127
1, 113418, Note_off_c, 4, 64, 64
1, 113481, Note_on_c, 4, 64, 124
1, 113550, Note_off_c, 2, 69, 64
1, 113551, Note_off_c, 2, 71, 64
1, 113557, Note_off_c, 4, 52, 64
1, 113558, Note_on_c, 1, 84, 127
1, 113558, Note_on_c, 3, 72, 127
1, 113559, Note_on_c, 4, 57, 127
1, 113568, Note_off_c, 4, 64, 64
1, 113642, Note_on_c, 1, 83, 127
1, 113642, Note_on_c, 3, 71, 127
1, 113643, Note_on_c, 4, 64, 126
1, 113653, Note_off_c, 1, 84, 64
1, 113655, Note_off_c, 3, 72, 64
1, 113717, Note_off_c, 4, 57, 64
1, 113717, Note_on_c, 1, 81, 127
1, 113718, Note_on_c, 3, 69, 127
1, 113718, Note_on_c, 4, 60, 127
1, 113726, Note_off_c, 4, 64, 64
1, 113730, Note_off_c, 1, 83, 64
1, 113731, Note_off_c, 3, 71, 64
1, 113796, Note_on_c, 1, 83, 127
1, 113796, Note_on_c, 3, 71, 127
1, 113796, Note_on_c, 4, 64, 126
1, 113809, Note_off_c, 1, 81, 64
1, 113809, Note_off_c, 3, 69, 64
1, 113873, Note_off_c, 4, 60, 64
1, 113874, Note_on_c, 1, 84, 127
1, 113874, Note_on_c, 3, 72, 127
1, 113875, Note_on_c, 4, 57, 127
1, 113882, Note_off_c, 4, 64, 64
1, 113887, Note_off_c, 1, 83, 64
1, 113888, Note_off_c, 3, 71, 64
1, 113954, Note_on_c, 1, 86, 127
1, 113954, Note_on_c, 3, 74, 127
1, 113955, Note_on_c, 4, 64, 126
1, 113965, Note_off_c, 1, 84, 64
1, 113966, Note_off_c, 3, 72, 64
1, 114029, Note_off_c, 4, 57, 64
1, 114029, Note_on_c, 1, 88, 127
1, 114030, Note_on_c, 3, 76, 127
1, 114030, Note_on_c, 4, 57, 127
1, 114038, Note_off_c, 4, 64, 64
1, 114042, Note_off_c, 1, 86, 64
1, 114043, Note_off_c, 3, 74, 64
1, 114110, Note_on_c, 1, 87, 127
1, 114111, Note_on_c, 3, 75, 127
1, 114111, Note_on_c, 4, 64, 126
1, 114122, Note_off_c, 1, 88, 64
1, 114123, Note_off_c, 3, 76, 64
1, 114185, Note_off_c, 4, 57, 64
1, 114186, Note_on_c, 1, 89, 127
1, 114186, Note_on_c, 3, 77, 127
1, 114187, Note_on_c, 4, 60, 127
1, 114195, Note_off_c, 4, 64, 64
1, 114197, Note_off_c, 1, 87, 64
1, 114199, Note_off_c, 3, 75, 64
1, 114266, Note_on_c, 1, 88, 127
1, 114266, Note_on_c, 3, 76, 127
1, 114267, Note_on_c, 4, 64, 126
1, 114276, Note_off_c, 1, 89, 64
1, 114277, Note_off_c, 3, 77, 64
1, 114336, Note_off_c, 4, 60, 64
1, 114336, Note_on_c, 1, 86, 127
1, 114337, Note_on_c, 4, 57, 127
1, 114337, Note_on_c, 3, 74, 127
1, 114344, Note_off_c, 4, 64, 64
1, 114348, Note_off_c, 1, 88, 64
1, 114349, Note_off_c, 3, 76, 64
1, 114411, Note_on_c, 1, 84, 127
1, 114413, Note_on_c, 3, 72, 127
1, 114413, Note_on_c, 4, 64, 126
1, 114423, Note_off_c, 1, 86, 64
1, 114425, Note_off_c, 3, 74, 64
1, 114489, Note_off_c, 4, 57, 64
1, 114489, Note_on_c, 1, 83, 127
1, 114490, Note_on_c, 3, 71, 127
1, 114490, Note_on_c, 4, 52, 127
1, 114498, Note_off_c, 4, 64, 64
1, 114502, Note_off_c, 1, 84, 64
1, 114504, Note_off_c, 3, 72, 64
1, 114567, Note_on_c, 1, 81, 127
1, 114568, Note_on_c, 3, 69, 127
1, 114568, Note_on_c, 4, 64, 126
1, 114580, Note_off_c, 3, 71, 64
1, 114580, Note_off_c, 1, 83, 64
1, 114641, Note_off_c, 3, 69, 64
1, 114647, Note_off_c, 4, 52, 64
1, 114648, Note_on_c, 3, 80, 127
1, 114648, Note_on_c, 4, 59, 127
1, 114648, Note_on_c, 3, 69, 127
1, 114657, Note_off_c, 4, 64, 64
1, 114660, Note_off_c, 1, 81, 64
1, 114716, Note_off_c, 3, 69, 64
1, 114722, Note_on_c, 1, 81, 127
1, 114722, Note_on_c, 3, 69, 127
1, 114723, Note_on_c, 4, 64, 126
1, 114733, Note_off_c, 3, 80, 64
1, 114791, Note_off_c, 3, 69, 64
1, 114797, Note_off_c, 4, 59, 64
1, 114798, Note_on_c, 1, 83, 127
1, 114798, Note_on_c, 3, 71, 127
1, 114799, Note_on_c, 4, 52, 127
1, 114806, Note_off_c, 4, 64, 64
1, 114810, Note_off_c, 1, 81, 64
1, 114852, Note_off_c, 4, 45, 64
1, 114877, Note_on_c, 1, 84, 127
1, 114878, Note_on_c, 3, 72, 127
1, 114879, Note_on_c, 4, 64, 126
1, 114889, Note_off_c, 1, 83, 64
1, 114891, Note_off_c, 3, 71, 64
1, 114950, Note_off_c, 4, 52, 64
1, 114951, Note_on_c, 1, 86, 127
1, 114953, Note_on_c, 3, 74, 127
1, 114954, Note_on_c, 4, 52, 127
1, 114960, Note_off_c, 4, 64, 64
1, 114964, Note_off_c, 1, 84, 64
1, 114964, Note_off_c, 3, 72, 64
1, 115031, Note_on_c, 1, 85, 127
1, 115032, Note_on_c, 3, 73, 127
1, 115032, Note_on_c, 4, 64, 126
1, 115044, Note_off_c, 1, 86, 64
1, 115045, Note_off_c, 3, 74, 64
1, 115108, Note_off_c, 4, 52, 64
1, 115108, Note_on_c, 1, 88, 127
1, 115109, Note_on_c, 4, 59, 127
1, 115109, Note_on_c, 3, 76, 127
1, 115116, Note_off_c, 4, 64, 64
1, 115119, Note_off_c, 1, 85, 64
1, 115121, Note_off_c, 3, 73, 64
1, 115185, Note_on_c, 1, 86, 127
1, 115187, Note_on_c, 3, 74, 127
1, 115187, Note_on_c, 4, 64, 126
1, 115197, Note_off_c, 1, 88, 64
1, 115198, Note_off_c, 3, 76, 64
1, 115256, Note_off_c, 4, 59, 64
1, 115256, Note_on_c, 1, 84, 127
1, 115257, Note_on_c, 3, 72, 127
1, 115257, Note_on_c, 4, 52, 127
1, 115265, Note_off_c, 4, 64, 64
1, 115269, Note_off_c, 1, 86, 64
1, 115270, Note_off_c, 3, 74, 64
1, 115333, Note_on_c, 1, 83, 127
1, 115335, Note_on_c, 3, 71, 127
1, 115336, Note_on_c, 4, 64, 126
1, 115348, Note_off_c, 1, 84, 64
1, 115350, Note_off_c, 3, 72, 64
1, 115410, Note_off_c, 4, 52, 64
1, 115410, Note_on_c, 1, 81, 127
1, 115411, Note_on_c, 3, 69, 127
1, 115411, Note_on_c, 4, 57, 127
1, 115419, Note_off_c, 4, 64, 64
1, 115423, Note_off_c, 1, 83, 64
1, 115425, Note_off_c, 3, 71, 64
1, 115482, Note_off_c, 3, 69, 64
1, 115488, Note_on_c, 3, 80, 127
1, 115488, Note_on_c, 3, 69, 127
1, 115489, Note_on_c, 4, 64, 126
1, 115500, Note_off_c, 1, 81, 64
1, 115555, Note_off_c, 3, 69, 64
1, 115561, Note_off_c, 4, 57, 64
1, 115561, Note_on_c, 1, 81, 127
1, 115562, Note_on_c, 3, 69, 127
1, 115563, Note_on_c, 4, 60, 127
1, 115571, Note_off_c, 4, 64, 64
1, 115574, Note_off_c, 3, 80, 64
1, 115630, Note_off_c, 3, 69, 64
1, 115636, Note_on_c, 1, 84, 127
1, 115636, Note_on_c, 3, 72, 127
1, 115637, Note_on_c, 4, 64, 126
1, 115647, Note_off_c, 1, 81, 64
1, 115721, Note_off_c, 4, 60, 64
1, 115721, Note_on_c, 1, 83, 127
1, 115722, Note_on_c, 3, 71, 127
1, 115722, Note_on_c, 4, 56, 127
1, 115728, Note_off_c, 4, 64, 64
1, 115732, Note_off_c, 1, 84, 64
1, 115734, Note_off_c, 3, 72, 64
1, 115792, Note_on_c, 1, 86, 127
1, 115793, Note_on_c, 3, 74, 127
1, 115794, Note_on_c, 4, 64, 126
1, 115806, Note_off_c, 3, 71, 64
1, 115806, Note_off_c, 1, 83, 64
1, 115872, Note_off_c, 4, 56, 64
1, 115872, Note_on_c, 1, 84, 127
1, 115873, Note_on_c, 3, 72, 127
1, 115873, Note_on_c, 4, 57, 127
1, 115880, Note_off_c, 4, 64, 64
1, 115884, Note_off_c, 3, 74, 64
1, 115884, Note_off_c, 1, 86, 64
1, 115945, Note_on_c, 1, 83, 127
1, 115946, Note_on_c, 3, 71, 127
1, 115946, Note_on_c, 4, 64, 126
1, 115957, Note_off_c, 1, 84, 64
1, 115958, Note_off_c, 3, 72, 64
1, 116026, Note_off_c, 4, 57, 64
1, 116027, Note_on_c, 4, 60, 127
1, 116027, Note_on_c, 1, 84, 127
1, 116027, Note_on_c, 3, 72, 127
1, 116036, Note_off_c, 4, 64, 64
1, 116040, Note_off_c, 3, 71, 64
1, 116040, Note_off_c, 1, 83, 64
1, 116100, Note_on_c, 1, 88, 127
1, 116100, Note_on_c, 3, 76, 127
1, 116101, Note_on_c, 4, 64, 126
1, 116112, Note_off_c, 1, 84, 64
1, 116113, Note_off_c, 3, 72, 64
1, 116177, Note_off_c, 1, 88, 64
1, 116177, Note_off_c, 4, 60, 64
1, 116178, Note_off_c, 3, 76, 64
1, 116178, Note_on_c, 1, 86, 127
1, 116179, Note_on_c, 3, 74, 127
1, 116179, Note_on_c, 4, 53, 127
1, 116183, Note_off_c, 4, 64, 64
1, 116249, Note_on_c, 1, 89, 127
1, 116249, Note_on_c, 3, 77, 127
1, 116250, Note_on_c, 4, 64, 126
1, 116261, Note_off_c, 1, 86, 64
1, 116262, Note_off_c, 3, 74, 64
1, 116324, Note_off_c, 1, 89, 64
1, 116324, Note_off_c, 4, 53, 64
1, 116325, Note_off_c, 4, 64, 64
1, 116325, Note_on_c, 1, 88, 127
1, 116326, Note_off_c, 3, 77, 64
1, 116326, Note_on_c, 3, 76, 127
1, 116326, Note_on_c, 4, 52, 127
1, 116401, Note_on_c, 1, 87, 127
1, 116402, Note_on_c, 3, 75, 127
1, 116402, Note_on_c, 4, 60, 127
1, 116411, Note_off_c, 3, 76, 64
1, 116415, Note_off_c, 1, 88, 64
1, 116482, Note_off_c, 4, 52, 64
1, 116483, Note_on_c, 1, 88, 127
1, 116483, Note_on_c, 3, 76, 127
1, 116484, Note_on_c, 4, 57, 127
1, 116490, Note_off_c, 4, 60, 64
1, 116490, Note_off_c, 3, 75, 64
1, 116493, Note_off_c, 1, 87, 64
1, 116552, Note_off_c, 3, 76, 64
1, 116560, Note_on_c, 4, 64, 126
1, 116560, Note_on_c, 3, 76, 127
1, 116561, Note_on_c, 4, 60, 127
1, 116572, Note_off_c, 1, 88, 64
1, 116628, Note_off_c, 3, 76, 64
1, 116636, Note_off_c, 4, 57, 64
1, 116636, Note_on_c, 4, 66, 127
1, 116637, Note_on_c, 3, 78, 127
1, 116637, Note_on_c, 4, 52, 127
1, 116643, Note_off_c, 4, 60, 64
1, 116644, Note_off_c, 4, 64, 64
1, 116712, Note_on_c, 2, 69, 127
1, 116713, Note_on_c, 1, 80, 127
1, 116714, Note_on_c, 4, 59, 127
1, 116720, Note_off_c, 4, 66, 64
1, 116728, Note_off_c, 3, 78, 64
1, 116785, Note_off_c, 4, 52, 64
1, 116786, Note_on_c, 1, 81, 127
1, 116786, Note_on_c, 2, 69, 127
1, 116787, Note_on_c, 4, 45, 127
1, 116797, Note_off_c, 1, 80, 64
1, 116856, Note_off_c, 4, 59, 64
1, 116858, Note_on_c, 4, 48, 127
1, 116866, Note_off_c, 4, 45, 64
1, 116935, Note_on_c, 4, 52, 127
1, 116943, Note_off_c, 4, 48, 64
1, 117014, Note_on_c, 4, 57, 127
1, 117022, Note_off_c, 4, 52, 64
1, 117087, Note_on_c, 4, 45, 127
1, 117154, Note_off_c, 4, 57, 64
1, 117156, Note_off_c, 1, 81, 64
1, 117192, Note_off_c, 2, 69, 64
1, 117192, Note_off_c, 2, 69, 64
1, 117230, Note_on_c, 4, 60, 126
1, 117230, Note_on_c, 2, 69, 127
1, 117231, Note_on_c, 4, 55, 124
1, 117306, Note_off_c, 2, 69, 64
1, 117315, Note_on_c, 2, 69, 127
1, 117394, Note_off_c, 2, 69, 64
1, 117402, Note_on_c, 2, 69, 127
1, 117477, Note_off_c, 2, 69, 64
1, 117482, Note_on_c, 1, 81, 127
1, 117552, Note_off_c, 4, 60, 64
1, 117555, Note_on_c, 1, 80, 127
1, 117556, Note_on_c, 4, 61, 126
1, 117563, Note_off_c, 1, 81, 64
1, 117632, Note_on_c, 1, 79, 127
1, 117640, Note_off_c, 1, 80, 64
1, 117707, Note_off_c, 1, 79, 64
1, 117709, Note_off_c, 4, 55, 64
1, 117709, Note_off_c, 4, 61, 64
1, 117712, Note_on_c, 4, 62, 125
1, 117712, Note_on_c, 1, 79, 127
1, 117713, Note_on_c, 4, 57, 124
1, 117785, Note_off_c, 1, 79, 64
1, 117791, Note_on_c, 2, 77, 127
1, 117864, Note_on_c, 2, 76, 127
1, 117871, Note_off_c, 2, 77, 64
1, 117939, Note_on_c, 2, 77, 127
1, 117946, Note_off_c, 2, 76, 64
1, 118016, Note_on_c, 2, 76, 127
1, 118023, Note_off_c, 2, 77, 64
1, 118092, Note_on_c, 2, 77, 127
1, 118100, Note_off_c, 2, 76, 64
1, 118169, Note_off_c, 4, 62, 64
1, 118169, Note_off_c, 4, 57, 64
1, 118170, Note_on_c, 1, 81, 127
1, 118172, Note_on_c, 4, 57, 124
1, 118172, Note_on_c, 4, 65, 127
1, 118178, Note_off_c, 2, 77, 64
1, 118252, Note_on_c, 1, 80, 127
1, 118253, Note_on_c, 4, 64, 124
1, 118260, Note_off_c, 1, 81, 64
1, 118262, Note_off_c, 4, 65, 64
1, 118330, Note_on_c, 1, 81, 127
1, 118332, Note_on_c, 4, 65, 127
1, 118337, Note_off_c, 1, 80, 64
1, 118339, Note_off_c, 4, 64, 64
1, 118413, Note_on_c, 1, 80, 127
1, 118414, Note_on_c, 4, 64, 124
1, 118419, Note_off_c, 1, 81, 64
1, 118420, Note_off_c, 4, 65, 64
1, 118486, Note_on_c, 1, 81, 127
1, 118487, Note_on_c, 4, 65, 127
1, 118495, Note_off_c, 4, 64, 64
1, 118495, Note_off_c, 1, 80, 64
1, 118563, Note_on_c, 2, 77, 127
1, 118564, Note_on_c, 4, 62, 125
1, 118570, Note_off_c, 1, 81, 64
1, 118571, Note_off_c, 4, 65, 64
1, 118626, Note_off_c, 2, 77, 64
1, 118628, Note_off_c, 4, 62, 64
1, 118632, Note_off_c, 4, 57, 64
1, 118634, Note_on_c, 2, 77, 127
1, 118634, Note_on_c, 4, 62, 125
1, 118635, Note_on_c, 4, 57, 124
1, 118699, Note_off_c, 2, 77, 64
1, 118701, Note_off_c, 4, 62, 64
1, 118707, Note_on_c, 2, 76, 127
1, 118708, Note_on_c, 4, 60, 126
1, 118780, Note_on_c, 2, 75, 127
1, 118781, Note_on_c, 4, 59, 126
1, 118788, Note_off_c, 4, 60, 64
1, 118788, Note_off_c, 2, 76, 64
1, 118852, Note_on_c, 2, 76, 127
1, 118852, Note_on_c, 4, 60, 126
1, 118859, Note_off_c, 2, 75, 64
1, 118860, Note_off_c, 4, 59, 64
1, 118939, Note_on_c, 2, 75, 127
1, 118940, Note_on_c, 4, 59, 126
1, 118944, Note_off_c, 2, 76, 64
1, 118946, Note_off_c, 4, 60, 64
1, 119002, Note_on_c, 2, 76, 127
1, 119002, Note_on_c, 4, 60, 126
1, 119009, Note_off_c, 2, 75, 64
1, 119010, Note_off_c, 4, 59, 64
1, 119068, Note_off_c, 2, 76, 64
1, 119070, Note_off_c, 4, 60, 64
1, 119079, Note_off_c, 4, 57, 64
1, 119085, Note_on_c, 2, 76, 127
1, 119087, Note_on_c, 4, 60, 126
1, 119088, Note_on_c, 4, 57, 124
1, 119165, Note_off_c, 4, 60, 64
1, 119165, Note_off_c, 2, 76, 64
1, 119172, Note_on_c, 2, 74, 127
1, 119172, Note_on_c, 4, 62, 125
1, 119245, Note_on_c, 2, 72, 127
1, 119246, Note_on_c, 4, 64, 124
1, 119251, Note_off_c, 2, 74, 64
1, 119253, Note_off_c, 4, 62, 64
1, 119318, Note_on_c, 2, 71, 127
1, 119319, Note_on_c, 4, 62, 125
1, 119325, Note_off_c, 2, 72, 64
1, 119327, Note_off_c, 4, 64, 64
1, 119392, Note_on_c, 2, 69, 127
1, 119393, Note_on_c, 4, 60, 126
1, 119399, Note_off_c, 2, 71, 64
1, 119400, Note_off_c, 4, 62, 64
1, 119466, Note_on_c, 2, 76, 127
1, 119472, Note_off_c, 2, 69, 64
1, 119539, Note_off_c, 4, 57, 64
1, 119541, Note_on_c, 2, 77, 127
1, 119543, Note_off_c, 4, 60, 64
1, 119544, Note_on_c, 4, 59, 126
1, 119544, Note_on_c, 4, 56, 124
1, 119550, Note_off_c, 2, 76, 64
1, 119617, Note_on_c, 2, 74, 127
1, 119617, Note_on_c, 4, 60, 126
1, 119618, Note_on_c, 4, 57, 124
1, 119625, Note_off_c, 4, 56, 64
1, 119625, Note_off_c, 2, 77, 64
1, 119626, Note_off_c, 4, 59, 64
1, 119687, Note_on_c, 2, 71, 127
1, 119689, Note_on_c, 4, 62, 125
1, 119689, Note_on_c, 4, 59, 126
1, 119696, Note_off_c, 2, 74, 64
1, 119698, Note_off_c, 4, 57, 64
1, 119698, Note_off_c, 4, 60, 64
1, 119770, Note_on_c, 2, 69, 127
1, 119772, Note_on_c, 4, 64, 124
1, 119772, Note_on_c, 4, 60, 126
1, 119778, Note_off_c, 2, 71, 64
1, 119779, Note_off_c, 4, 59, 64
1, 119779, Note_off_c, 4, 62, 64
1, 119843, Note_off_c, 2, 69, 64
1, 119850, Note_on_c, 2, 69, 127
1, 119852, Note_on_c, 4, 65, 127
1, 119853, Note_on_c, 4, 62, 125
1, 119859, Note_off_c, 4, 60, 64
1, 119859, Note_off_c, 4, 64, 64
1, 119919, Note_off_c, 2, 69, 64
1, 119927, Note_on_c, 2, 71, 127
1, 119992, Note_off_c, 2, 71, 64
1, 119996, Note_off_c, 4, 62, 64
1, 119997, Note_off_c, 4, 65, 64
1, 120000, Note_on_c, 2, 71, 127
1, 120001, Note_on_c, 4, 64, 124
1, 120001, Note_on_c, 4, 60, 126
1, 120079, Note_on_c, 2, 69, 127
1, 120086, Note_off_c, 2, 71, 64
1, 120138, Note_off_c, 4, 64, 64
1, 120148, Note_on_c, 2, 72, 127
1, 120150, Note_off_c, 4, 60, 64
1, 120150, Note_on_c, 4, 64, 124
1, 120151, Note_on_c, 4, 56, 124
1, 120156, Note_off_c, 2, 69, 64
1, 120224, Note_on_c, 2, 71, 127
1, 120231, Note_off_c, 2, 72, 64
1, 120291, Note_off_c, 4, 64, 64
1, 120304, Note_on_c, 2, 74, 127
1, 120305, Note_off_c, 4, 56, 64
1, 120305, Note_on_c, 4, 64, 124
1, 120306, Note_on_c, 4, 57, 124
1, 120312, Note_off_c, 2, 71, 64
1, 120373, Note_on_c, 2, 72, 127
1, 120379, Note_off_c, 2, 74, 64
1, 120435, Note_off_c, 2, 72, 64
1, 120441, Note_on_c, 3, 71, 127
1, 120463, Note_off_c, 3, 71, 64
1, 120464, Note_on_c, 3, 72, 127
1, 120485, Note_off_c, 3, 72, 64
1, 120485, Note_on_c, 3, 74, 127
1, 120509, Note_off_c, 3, 74, 64
1, 120510, Note_on_c, 3, 72, 127
1, 120510, Note_on_c, 3, 69, 127
1, 120510, Note_on_c, 4, 51, 124
1, 120586, Note_off_c, 4, 57, 64
1, 120738, Note_off_c, 3, 69, 64
1, 120747, Note_off_c, 3, 72, 64
1, 120749, Note_on_c, 3, 71, 127
1, 120750, Note_off_c, 4, 51, 64
1, 120750, Note_on_c, 3, 69, 127
1, 120751, Note_on_c, 4, 52, 124
1, 120885, Note_off_c, 4, 64, 64
1, 120890, Note_off_c, 3, 69, 64
1, 120890, Note_off_c, 3, 71, 64
1, 120893, Note_on_c, 2, 72, 127
1, 120895, Note_off_c, 4, 52, 64
1, 120895, Note_on_c, 4, 57, 124
1, 120971, Note_on_c, 2, 71, 127
1, 120973, Note_on_c, 4, 64, 124
1, 120978, Note_off_c, 2, 72, 64
1, 121046, Note_off_c, 4, 57, 64
1, 121046, Note_on_c, 2, 69, 127
1, 121047, Note_on_c, 4, 60, 126
1, 121052, Note_off_c, 2, 71, 64
1, 121054, Note_off_c, 4, 64, 64
1, 121122, Note_on_c, 2, 71, 127
1, 121122, Note_on_c, 4, 64, 124
1, 121128, Note_off_c, 2, 69, 64
1, 121198, Note_off_c, 4, 60, 64
1, 121198, Note_on_c, 2, 72, 127
1, 121199, Note_on_c, 4, 57, 124
1, 121204, Note_off_c, 2, 71, 64
1, 121206, Note_off_c, 4, 64, 64
1, 121273, Note_on_c, 2, 74, 127
1, 121275, Note_on_c, 4, 64, 124
1, 121281, Note_off_c, 2, 72, 64
1, 121350, Note_off_c, 4, 57, 64
1, 121351, Note_on_c, 2, 76, 127
1, 121351, Note_on_c, 4, 57, 124
1, 121357, Note_off_c, 4, 64, 64
1, 121357, Note_off_c, 2, 74, 64
1, 121437, Note_on_c, 2, 75, 127
1, 121437, Note_on_c, 4, 64, 124
1, 121443, Note_off_c, 2, 76, 64
1, 121507, Note_off_c, 4, 57, 64
1, 121507, Note_on_c, 2, 77, 127
1, 121508, Note_on_c, 4, 60, 126
1, 121515, Note_off_c, 2, 75, 64
1, 121516, Note_off_c, 4, 64, 64
1, 121590, Note_on_c, 2, 76, 127
1, 121591, Note_on_c, 4, 64, 124
1, 121596, Note_off_c, 2, 77, 64
1, 121661, Note_off_c, 4, 60, 64
1, 121662, Note_on_c, 2, 74, 127
1, 121662, Note_on_c, 4, 57, 124
1, 121670, Note_off_c, 4, 64, 64
1, 121670, Note_off_c, 2, 76, 64
1, 121736, Note_on_c, 2, 72, 127
1, 121737, Note_on_c, 4, 64, 124
1, 121743, Note_off_c, 2, 74, 64
1, 121816, Note_off_c, 4, 57, 64
1, 121816, Note_on_c, 2, 71, 127
1, 121817, Note_on_c, 4, 52, 124
1, 121824, Note_off_c, 2, 72, 64
1, 121825, Note_off_c, 4, 64, 64
1, 121892, Note_on_c, 2, 69, 127
1, 121893, Note_on_c, 4, 64, 124
1, 121900, Note_off_c, 2, 71, 64
1, 121962, Note_off_c, 2, 69, 64
1, 121971, Note_off_c, 4, 52, 64
1, 121972, Note_on_c, 2, 69, 127
1, 121974, Note_on_c, 4, 59, 126
1, 121982, Note_off_c, 4, 64, 64
1, 122043, Note_off_c, 2, 69, 64
1, 122053, Note_on_c, 2, 69, 127
1, 122053, Note_on_c, 4, 64, 124
1, 122118, Note_off_c, 2, 69, 64
1, 122128, Note_off_c, 4, 59, 64
1, 122128, Note_on_c, 2, 71, 127
1, 122129, Note_on_c, 4, 52, 124
1, 122137, Note_off_c, 4, 64, 64
1, 122207, Note_on_c, 2, 72, 127
1, 122207, Note_on_c, 4, 64, 124
1, 122213, Note_off_c, 2, 71, 64
1, 122282, Note_off_c, 4, 52, 64
1, 122283, Note_on_c, 4, 52, 124
1, 122283, Note_on_c, 2, 74, 127
1, 122289, Note_off_c, 2, 72, 64
1, 122290, Note_off_c, 4, 64, 64
1, 122363, Note_on_c, 2, 73, 127
1, 122365, Note_on_c, 4, 64, 124
1, 122371, Note_off_c, 2, 74, 64
1, 122438, Note_off_c, 4, 52, 64
1, 122438, Note_on_c, 2, 76, 127
1, 122439, Note_on_c, 4, 59, 126
1, 122447, Note_off_c, 2, 73, 64
1, 122447, Note_off_c, 4, 64, 64
1, 122521, Note_on_c, 2, 74, 127
1, 122521, Note_on_c, 4, 64, 124
1, 122527, Note_off_c, 2, 76, 64
1, 122591, Note_off_c, 4, 59, 64
1, 122592, Note_on_c, 2, 72, 127
1, 122593, Note_on_c, 4, 52, 124
1, 122599, Note_off_c, 2, 74, 64
1, 122600, Note_off_c, 4, 64, 64
1, 122669, Note_on_c, 2, 71, 127
1, 122670, Note_on_c, 4, 64, 124
1, 122678, Note_off_c, 2, 72, 64
1, 122743, Note_off_c, 4, 52, 64
1, 122744, Note_on_c, 4, 57, 124
1, 122744, Note_on_c, 2, 69, 127
1, 122752, Note_off_c, 4, 64, 64
1, 122752, Note_off_c, 2, 71, 64
1, 122809, Note_off_c, 2, 69, 64
1, 122822, Note_on_c, 2, 69, 127
1, 122822, Note_on_c, 4, 64, 124
1, 122890, Note_off_c, 2, 69, 64
1, 122894, Note_off_c, 4, 57, 64
1, 122895, Note_on_c, 2, 69, 127
1, 122896, Note_on_c, 4, 60, 126
1, 122904, Note_off_c, 4, 64, 64
1, 122967, Note_off_c, 2, 69, 64
1, 122971, Note_on_c, 2, 72, 127
1, 122973, Note_on_c, 4, 64, 124
1, 123046, Note_off_c, 4, 60, 64
1, 123047, Note_on_c, 2, 71, 127
1, 123047, Note_on_c, 4, 56, 124
1, 123054, Note_off_c, 2, 72, 64
1, 123055, Note_off_c, 4, 64, 64
1, 123120, Note_on_c, 2, 74, 127
1, 123121, Note_on_c, 4, 64, 124
1, 123127, Note_off_c, 2, 71, 64
1, 123197, Note_off_c, 4, 56, 64
1, 123197, Note_on_c, 2, 72, 127
1, 123198, Note_on_c, 4, 57, 124
1, 123205, Note_off_c, 4, 64, 64
1, 123205, Note_off_c, 2, 74, 64
1, 123273, Note_on_c, 2, 71, 127
1, 123273, Note_on_c, 4, 64, 124
1, 123280, Note_off_c, 2, 72, 64
1, 123349, Note_off_c, 4, 57, 64
1, 123350, Note_on_c, 2, 72, 127
1, 123350, Note_on_c, 4, 60, 126
1, 123358, Note_off_c, 4, 64, 64
1, 123358, Note_off_c, 2, 71, 64
1, 123426, Note_on_c, 2, 76, 127
1, 123427, Note_on_c, 4, 64, 124
1, 123433, Note_off_c, 2, 72, 64
1, 123452, Note_off_c, 4, 45, 64
1, 123500, Note_off_c, 4, 60, 64
1, 123501, Note_on_c, 4, 53, 124
1, 123501, Note_on_c, 2, 74, 127
1, 123507, Note_off_c, 2, 76, 64
1, 123508, Note_off_c, 4, 64, 64
1, 123582, Note_on_c, 2, 77, 127
1, 123582, Note_on_c, 4, 64, 124
1, 123589, Note_off_c, 2, 74, 64
1, 123659, Note_off_c, 4, 53, 64
1, 123659, Note_on_c, 2, 76, 127
1, 123660, Note_on_c, 4, 52, 124
1, 123665, Note_off_c, 2, 77, 64
1, 123667, Note_off_c, 4, 64, 64
1, 123738, Note_on_c, 2, 75, 127
1, 123739, Note_on_c, 4, 60, 126
1, 123745, Note_off_c, 2, 76, 64
1, 123814, Note_off_c, 4, 52, 64
1, 123815, Note_on_c, 2, 76, 127
1, 123817, Note_on_c, 4, 57, 124
1, 123823, Note_off_c, 2, 75, 64
1, 123825, Note_off_c, 4, 60, 64
1, 123892, Note_on_c, 4, 64, 124
1, 123892, Note_on_c, 4, 60, 126
1, 123900, Note_off_c, 4, 57, 64
1, 123968, Note_off_c, 2, 76, 64
1, 123970, Note_on_c, 4, 52, 124
1, 123970, Note_on_c, 4, 66, 127
1, 123976, Note_off_c, 4, 60, 64
1, 123977, Note_off_c, 4, 64, 64
1, 124046, Note_on_c, 2, 69, 127
1, 124047, Note_on_c, 4, 59, 126
1, 124055, Note_off_c, 4, 66, 64
1, 124120, Note_off_c, 2, 69, 64
1, 124128, Note_on_c, 4, 57, 124
1, 124128, Note_on_c, 2, 69, 127
1, 124129, Note_on_c, 4, 45, 122
1, 124137, Note_off_c, 4, 59, 64
1, 124198, Note_off_c, 2, 69, 64
1, 124206, Note_on_c, 2, 69, 127
1, 124231, Note_off_c, 4, 52, 64
1, 124279, Note_off_c, 2, 69, 64
1, 124284, Note_on_c, 2, 69, 127
1, 124354, Note_off_c, 2, 69, 64
1, 124361, Note_on_c, 4, 64, 124
1, 124440, Note_on_c, 4, 60, 126
1, 124448, Note_off_c, 4, 64, 64
1, 124517, Note_on_c, 3, 64, 124
1, 124524, Note_off_c, 4, 60, 64
1, 124580, Note_off_c, 4, 45, 64
1, 124581, Note_off_c, 4, 57, 64
1, 124593, Note_on_c, 1, 81, 127
1, 124593, Note_on_c, 3, 69, 127
1, 124594, Note_on_c, 4, 45, 122
1, 124603, Note_off_c, 3, 64, 64
1, 124678, Note_off_c, 3, 69, 64
1, 124682, Note_on_c, 1, 80, 127
1, 124682, Note_on_c, 3, 69, 127
1, 124683, Note_on_c, 4, 52, 124
1, 124687, Note_off_c, 4, 45, 64
1, 124687, Note_off_c, 1, 81, 64
1, 124740, Note_off_c, 3, 69, 64
1, 124746, Note_on_c, 1, 81, 127
1, 124747, Note_on_c, 3, 69, 127
1, 124749, Note_on_c, 4, 48, 122
1, 124757, Note_off_c, 1, 80, 64
1, 124759, Note_off_c, 4, 52, 64
1, 124826, Note_off_c, 3, 69, 64
1, 124832, Note_on_c, 1, 84, 127
1, 124833, Note_on_c, 3, 72, 127
1, 124833, Note_on_c, 4, 52, 124
1, 124838, Note_off_c, 1, 81, 64
1, 124840, Note_off_c, 4, 48, 64
1, 124913, Note_on_c, 1, 83, 127
1, 124914, Note_on_c, 3, 71, 127
1, 124914, Note_on_c, 4, 44, 122
1, 124920, Note_off_c, 3, 72, 64
1, 124920, Note_off_c, 1, 84, 64
1, 124921, Note_off_c, 4, 52, 64
1, 124992, Note_on_c, 1, 86, 127
1, 124992, Note_on_c, 3, 74, 127
1, 124993, Note_on_c, 4, 52, 124
1, 124999, Note_off_c, 3, 71, 64
1, 124999, Note_off_c, 1, 83, 64
1, 125000, Note_off_c, 4, 44, 64
1, 125069, Note_on_c, 1, 84, 127
1, 125070, Note_on_c, 3, 72, 127
1, 125070, Note_on_c, 4, 45, 122
1, 125076, Note_off_c, 3, 74, 64
1, 125076, Note_off_c, 1, 86, 64
1, 125078, Note_off_c, 4, 52, 64
1, 125152, Note_on_c, 1, 83, 127
1, 125152, Note_on_c, 3, 71, 127
1, 125152, Note_on_c, 4, 52, 124
1, 125158, Note_off_c, 3, 72, 64
1, 125159, Note_off_c, 4, 45, 64
1, 125159, Note_off_c, 1, 84, 64
1, 125226, Note_on_c, 1, 84, 127
1, 125227, Note_on_c, 3, 72, 127
1, 125227, Note_on_c, 4, 48, 122
1, 125234, Note_off_c, 3, 71, 64
1, 125234, Note_off_c, 1, 83, 64
1, 125235, Note_off_c, 4, 52, 64
1, 125301, Note_on_c, 1, 88, 127
1, 125301, Note_on_c, 3, 76, 127
1, 125301, Note_on_c, 4, 52, 124
1, 125309, Note_off_c, 1, 84, 64
1, 125309, Note_off_c, 3, 72, 64
1, 125310, Note_off_c, 4, 48, 64
1, 125381, Note_on_c, 1, 86, 127
1, 125382, Note_on_c, 3, 74, 127
1, 125382, Note_on_c, 4, 41, 122
1, 125389, Note_off_c, 3, 76, 64
1, 125390, Note_off_c, 4, 52, 64
1, 125390, Note_off_c, 1, 88, 64
1, 125456, Note_on_c, 1, 89, 127
1, 125457, Note_on_c, 3, 77, 127
1, 125457, Note_on_c, 4, 50, 124
1, 125464, Note_off_c, 3, 74, 64
1, 125465, Note_off_c, 4, 41, 64
1, 125465, Note_off_c, 1, 86, 64
1, 125537, Note_on_c, 1, 88, 127
1, 125537, Note_on_c, 3, 76, 127
1, 125538, Note_on_c, 4, 40, 122
1, 125543, Note_off_c, 3, 77, 64
1, 125544, Note_off_c, 1, 89, 64
1, 125546, Note_off_c, 4, 50, 64
1, 125617, Note_on_c, 1, 87, 127
1, 125618, Note_on_c, 3, 75, 127
1, 125618, Note_on_c, 4, 48, 122
1, 125626, Note_off_c, 3, 76, 64
1, 125626, Note_off_c, 1, 88, 64
1, 125627, Note_off_c, 4, 40, 64
1, 125696, Note_on_c, 1, 88, 127
1, 125697, Note_on_c, 3, 76, 127
1, 125697, Note_on_c, 4, 45, 122
1, 125700, Note_off_c, 3, 75, 64
1, 125701, Note_off_c, 4, 48, 64
1, 125701, Note_off_c, 1, 87, 64
1, 125763, Note_off_c, 3, 76, 64
1, 125767, Note_on_c, 3, 76, 127
1, 125769, Note_on_c, 3, 64, 124
1, 125770, Note_on_c, 4, 48, 122
1, 125775, Note_off_c, 1, 88, 64
1, 125776, Note_off_c, 4, 45, 64
1, 125845, Note_on_c, 3, 78, 127
1, 125845, Note_on_c, 3, 66, 127
1, 125846, Note_on_c, 4, 40, 122
1, 125853, Note_off_c, 3, 76, 64
1, 125855, Note_off_c, 4, 48, 64
1, 125855, Note_off_c, 3, 64, 64
1, 125923, Note_on_c, 1, 80, 127
1, 125923, Note_on_c, 3, 69, 127
1, 125924, Note_on_c, 4, 47, 122
1, 125931, Note_off_c, 3, 78, 64
1, 125932, Note_off_c, 4, 40, 64
1, 125932, Note_off_c, 3, 66, 64
1, 126004, Note_on_c, 1, 81, 127
1, 126005, Note_on_c, 3, 69, 127
1, 126005, Note_on_c, 4, 33, 122
1, 126011, Note_off_c, 3, 69, 64
1, 126012, Note_off_c, 1, 80, 64
1, 126012, Note_off_c, 4, 47, 64
1, 126079, Note_on_c, 4, 36, 122
1, 126087, Note_off_c, 4, 33, 64
1, 126152, Note_on_c, 4, 40, 122
1, 126160, Note_off_c, 4, 36, 64
1, 126231, Note_on_c, 4, 45, 122
1, 126240, Note_off_c, 4, 40, 64
1, 126308, Note_on_c, 4, 33, 122
1, 126440, Note_off_c, 1, 81, 64
1, 126441, Note_off_c, 3, 69, 64
1, 126451, Note_off_c, 4, 33, 64
1, 126451, Note_on_c, 2, 69, 127
1, 126452, Note_on_c, 4, 60, 126
1, 126452, Note_on_c, 4, 55, 124
1, 126528, Note_off_c, 2, 69, 64
1, 126537, Note_on_c, 2, 69, 127
1, 126616, Note_off_c, 2, 69, 64
1, 126622, Note_on_c, 2, 69, 127
1, 126696, Note_off_c, 2, 69, 64
1, 126704, Note_on_c, 1, 81, 127
1, 126773, Note_off_c, 4, 60, 64
1, 126777, Note_on_c, 1, 80, 127
1, 126778, Note_on_c, 4, 61, 126
1, 126784, Note_off_c, 1, 81, 64
1, 126854, Note_on_c, 1, 79, 127
1, 126866, Note_off_c, 1, 80, 64
1, 126929, Note_off_c, 1, 79, 64
1, 126931, Note_off_c, 4, 61, 64
1, 126931, Note_off_c, 4, 55, 64
1, 126934, Note_on_c, 4, 62, 125
1, 126934, Note_on_c, 1, 79, 127
1, 126935, Note_on_c, 4, 57, 124
1, 127007, Note_off_c, 1, 79, 64
1, 127012, Note_on_c, 2, 77, 127
1, 127085, Note_on_c, 2, 76, 127
1, 127093, Note_off_c, 2, 77, 64
1, 127160, Note_on_c, 2, 77, 127
1, 127168, Note_off_c, 2, 76, 64
1, 127237, Note_on_c, 2, 76, 127
1, 127245, Note_off_c, 2, 77, 64
1, 127314, Note_on_c, 2, 77, 127
1, 127321, Note_off_c, 2, 76, 64
1, 127389, Note_off_c, 4, 62, 64
1, 127389, Note_off_c, 4, 57, 64
1, 127392, Note_on_c, 1, 81, 127
1, 127393, Note_on_c, 4, 65, 127
1, 127394, Note_on_c, 4, 57, 124
1, 127400, Note_off_c, 2, 77, 64
1, 127474, Note_on_c, 1, 80, 127
1, 127475, Note_on_c, 4, 64, 124
1, 127481, Note_off_c, 1, 81, 64
1, 127483, Note_off_c, 4, 65, 64
1, 127552, Note_on_c, 1, 81, 127
1, 127553, Note_on_c, 4, 65, 127
1, 127559, Note_off_c, 1, 80, 64
1, 127560, Note_off_c, 4, 64, 64
1, 127634, Note_on_c, 1, 80, 127
1, 127635, Note_on_c, 4, 64, 124
1, 127642, Note_off_c, 4, 65, 64
1, 127642, Note_off_c, 1, 81, 64
1, 127708, Note_on_c, 1, 81, 127
1, 127708, Note_on_c, 4, 65, 127
1, 127716, Note_off_c, 1, 80, 64
1, 127716, Note_off_c, 4, 64, 64
1, 127785, Note_on_c, 2, 77, 127
1, 127786, Note_on_c, 4, 62, 125
1, 127792, Note_off_c, 4, 65, 64
1, 127792, Note_off_c, 1, 81, 64
1, 127848, Note_off_c, 2, 77, 64
1, 127849, Note_off_c, 4, 62, 64
1, 127853, Note_off_c, 4, 57, 64
1, 127857, Note_on_c, 2, 77, 127
1, 127857, Note_on_c, 4, 62, 125
1, 127858, Note_on_c, 4, 57, 124
1, 127921, Note_off_c, 2, 77, 64
1, 127922, Note_off_c, 4, 62, 64
1, 127929, Note_on_c, 2, 76, 127
1, 127930, Note_on_c, 4, 60, 126
1, 128004, Note_on_c, 2, 75, 127
1, 128004, Note_on_c, 4, 59, 126
1, 128008, Note_off_c, 2, 76, 64
1, 128010, Note_off_c, 4, 60, 64
1, 128074, Note_on_c, 2, 76, 127
1, 128074, Note_on_c, 4, 60, 126
1, 128081, Note_off_c, 4, 59, 64
1, 128081, Note_off_c, 2, 75, 64
1, 128161, Note_on_c, 2, 75, 127
1, 128161, Note_on_c, 4, 59, 126
1, 128166, Note_off_c, 4, 60, 64
1, 128166, Note_off_c, 2, 76, 64
1, 128223, Note_on_c, 2, 76, 127
1, 128224, Note_on_c, 4, 60, 126
1, 128231, Note_off_c, 4, 59, 64
1, 128231, Note_off_c, 2, 75, 64
1, 128290, Note_off_c, 2, 76, 64
1, 128292, Note_off_c, 4, 60, 64
1, 128299, Note_off_c, 4, 57, 64
1, 128305, Note_on_c, 2, 76, 127
1, 128309, Note_on_c, 4, 57, 124
1, 128309, Note_on_c, 4, 60, 126
1, 128387, Note_off_c, 4, 60, 64
1, 128387, Note_off_c, 2, 76, 64
1, 128393, Note_on_c, 2, 74, 127
1, 128394, Note_on_c, 4, 62, 125
1, 128467, Note_on_c, 2, 72, 127
1, 128468, Note_on_c, 4, 64, 124
1, 128473, Note_off_c, 2, 74, 64
1, 128475, Note_off_c, 4, 62, 64
1, 128539, Note_on_c, 2, 71, 127
1, 128540, Note_on_c, 4, 62, 125
1, 128548, Note_off_c, 4, 64, 64
1, 128548, Note_off_c, 2, 72, 64
1, 128614, Note_on_c, 2, 69, 127
1, 128615, Note_on_c, 4, 60, 126
1, 128621, Note_off_c, 4, 62, 64
1, 128621, Note_off_c, 2, 71, 64
1, 128686, Note_on_c, 2, 76, 127
1, 128694, Note_off_c, 2, 69, 64
1, 128761, Note_off_c, 4, 57, 64
1, 128763, Note_on_c, 2, 77, 127
1, 128765, Note_off_c, 4, 60, 64
1, 128765, Note_on_c, 4, 59, 126
1, 128766, Note_on_c, 4, 56, 124
1, 128772, Note_off_c, 2, 76, 64
1, 128839, Note_on_c, 2, 74, 127
1, 128839, Note_on_c, 4, 60, 126
1, 128840, Note_on_c, 4, 57, 124
1, 128846, Note_off_c, 2, 77, 64
1, 128847, Note_off_c, 4, 56, 64
1, 128847, Note_off_c, 4, 59, 64
1, 128909, Note_on_c, 2, 71, 127
1, 128911, Note_on_c, 4, 62, 125
1, 128911, Note_on_c, 4, 59, 126
1, 128917, Note_off_c, 2, 74, 64
1, 128919, Note_off_c, 4, 57, 64
1, 128920, Note_off_c, 4, 60, 64
1, 128991, Note_on_c, 2, 69, 127
1, 128992, Note_on_c, 4, 64, 124
1, 128992, Note_on_c, 4, 60, 126
1, 128999, Note_off_c, 2, 71, 64
1, 129001, Note_off_c, 4, 59, 64
1, 129001, Note_off_c, 4, 62, 64
1, 129063, Note_off_c, 2, 69, 64
1, 129073, Note_on_c, 2, 69, 127
1, 129073, Note_on_c, 4, 65, 127
1, 129074, Note_on_c, 4, 62, 125
1, 129082, Note_off_c, 4, 60, 64
1, 129082, Note_off_c, 4, 64, 64
1, 129142, Note_off_c, 2, 69, 64
1, 129150, Note_on_c, 2, 71, 127
1, 129213, Note_off_c, 2, 71, 64
1, 129219, Note_off_c, 4, 65, 64
1, 129219, Note_off_c, 4, 62, 64
1, 129222, Note_on_c, 2, 71, 127
1, 129222, Note_on_c, 4, 64, 124
1, 129223, Note_on_c, 4, 60, 126
1, 129301, Note_on_c, 2, 69, 127
1, 129307, Note_off_c, 2, 71, 64
1, 129359, Note_off_c, 4, 64, 64
1, 129371, Note_off_c, 4, 60, 64
1, 129371, Note_on_c, 2, 72, 127
1, 129372, Note_on_c, 4, 64, 124
1, 129372, Note_on_c, 4, 56, 124
1, 129378, Note_off_c, 2, 69, 64
1, 129444, Note_on_c, 2, 71, 127
1, 129453, Note_off_c, 2, 72, 64
1, 129513, Note_off_c, 4, 64, 64
1, 129526, Note_on_c, 2, 74, 127
1, 129527, Note_off_c, 4, 56, 64
1, 129527, Note_on_c, 4, 64, 124
1, 129528, Note_on_c, 4, 57, 124
1, 129534, Note_off_c, 2, 71, 64
1, 129595, Note_on_c, 2, 72, 127
1, 129601, Note_off_c, 2, 74, 64
1, 129657, Note_off_c, 2, 72, 64
1, 129662, Note_on_c, 3, 71, 127
1, 129684, Note_off_c, 3, 71, 64
1, 129684, Note_on_c, 3, 72, 127
1, 129706, Note_off_c, 3, 72, 64
1, 129706, Note_on_c, 3, 74, 127
1, 129732, Note_off_c, 3, 74, 64
1, 129732, Note_on_c, 3, 72, 127
1, 129732, Note_on_c, 3, 69, 127
1, 129733, Note_on_c, 4, 51, 124
1, 129808, Note_off_c, 4, 57, 64
1, 129959, Note_off_c, 3, 69, 64
1, 129969, Note_off_c, 3, 72, 64
1, 129971, Note_on_c, 2, 71, 127
1, 129972, Note_off_c, 4, 51, 64
1, 129972, Note_on_c, 2, 69, 127
1, 129972, Note_on_c, 4, 52, 124
1, 130105, Note_off_c, 4, 64, 64
1, 130111, Note_off_c, 2, 71, 64
1, 130111, Note_off_c, 2, 69, 64
1, 130114, Note_on_c, 2, 72, 127
1, 130116, Note_off_c, 4, 52, 64
1, 130116, Note_on_c, 4, 57, 124
1, 130194, Note_on_c, 2, 71, 127
1, 130194, Note_on_c, 4, 64, 124
1, 130200, Note_off_c, 2, 72, 64
1, 130266, Note_off_c, 4, 57, 64
1, 130266, Note_on_c, 2, 69, 127
1, 130268, Note_on_c, 4, 60, 126
1, 130274, Note_off_c, 2, 71, 64
1, 130276, Note_off_c, 4, 64, 64
1, 130344, Note_on_c, 2, 71, 127
1, 130344, Note_on_c, 4, 64, 124
1, 130350, Note_off_c, 2, 69, 64
1, 130419, Note_off_c, 4, 60, 64
1, 130420, Note_on_c, 4, 57, 124
1, 130420, Note_on_c, 2, 72, 127
1, 130426, Note_off_c, 2, 71, 64
1, 130428, Note_off_c, 4, 64, 64
1, 130495, Note_on_c, 2, 74, 127
1, 130497, Note_on_c, 4, 64, 124
1, 130502, Note_off_c, 2, 72, 64
1, 130570, Note_off_c, 4, 57, 64
1, 130571, Note_on_c, 2, 76, 127
1, 130573, Note_on_c, 4, 57, 124
1, 130578, Note_off_c, 2, 74, 64
1, 130579, Note_off_c, 4, 64, 64
1, 130656, Note_on_c, 2, 75, 127
1, 130658, Note_on_c, 4, 64, 124
1, 130664, Note_off_c, 2, 76, 64
1, 130729, Note_off_c, 4, 57, 64
1, 130730, Note_on_c, 2, 77, 127
1, 130730, Note_on_c, 4, 60, 126
1, 130736, Note_off_c, 2, 75, 64
1, 130738, Note_off_c, 4, 64, 64
1, 130811, Note_on_c, 2, 76, 127
1, 130813, Note_on_c, 4, 64, 124
1, 130819, Note_off_c, 2, 77, 64
1, 130882, Note_off_c, 4, 60, 64
1, 130883, Note_on_c, 2, 74, 127
1, 130885, Note_on_c, 4, 57, 124
1, 130891, Note_off_c, 2, 76, 64
1, 130893, Note_off_c, 4, 64, 64
1, 130958, Note_on_c, 2, 72, 127
1, 130958, Note_on_c, 4, 64, 124
1, 130965, Note_off_c, 2, 74, 64
1, 131038, Note_off_c, 4, 57, 64
1, 131038, Note_on_c, 2, 71, 127
1, 131039, Note_on_c, 4, 52, 124
1, 131046, Note_off_c, 2, 72, 64
1, 131047, Note_off_c, 4, 64, 64
1, 131113, Note_on_c, 2, 69, 127
1, 131115, Note_on_c, 4, 64, 124
1, 131121, Note_off_c, 2, 71, 64
1, 131183, Note_off_c, 2, 69, 64
1, 131194, Note_off_c, 4, 52, 64
1, 131195, Note_on_c, 4, 59, 126
1, 131195, Note_on_c, 2, 69, 127
1, 131203, Note_off_c, 4, 64, 64
1, 131264, Note_off_c, 2, 69, 64
1, 131274, Note_on_c, 2, 69, 127
1, 131276, Note_on_c, 4, 64, 124
1, 131341, Note_off_c, 2, 69, 64
1, 131351, Note_off_c, 4, 59, 64
1, 131351, Note_on_c, 2, 71, 127
1, 131352, Note_on_c, 4, 52, 124
1, 131359, Note_off_c, 4, 64, 64
1, 131426, Note_on_c, 2, 72, 127
1, 131428, Note_on_c, 4, 64, 124
1, 131434, Note_off_c, 2, 71, 64
1, 131503, Note_off_c, 4, 52, 64
1, 131504, Note_on_c, 2, 74, 127
1, 131504, Note_on_c, 4, 52, 124
1, 131510, Note_off_c, 2, 72, 64
1, 131512, Note_off_c, 4, 64, 64
1, 131585, Note_on_c, 2, 73, 127
1, 131585, Note_on_c, 4, 64, 124
1, 131592, Note_off_c, 2, 74, 64
1, 131660, Note_off_c, 4, 52, 64
1, 131660, Note_on_c, 2, 76, 127
1, 131661, Note_on_c, 4, 59, 126
1, 131668, Note_off_c, 2, 73, 64
1, 131669, Note_off_c, 4, 64, 64
1, 131740, Note_on_c, 2, 74, 127
1, 131742, Note_on_c, 4, 64, 124
1, 131748, Note_off_c, 2, 76, 64
1, 131813, Note_off_c, 4, 59, 64
1, 131814, Note_on_c, 2, 72, 127
1, 131814, Note_on_c, 4, 52, 124
1, 131820, Note_off_c, 2, 74, 64
1, 131822, Note_off_c, 4, 64, 64
1, 131891, Note_on_c, 2, 71, 127
1, 131892, Note_on_c, 4, 64, 124
1, 131900, Note_off_c, 2, 72, 64
1, 131965, Note_off_c, 4, 52, 64
1, 131965, Note_on_c, 2, 69, 127
1, 131966, Note_on_c, 4, 57, 124
1, 131972, Note_off_c, 2, 71, 64
1, 131974, Note_off_c, 4, 64, 64
1, 132031, Note_off_c, 2, 69, 64
1, 132043, Note_on_c, 2, 69, 127
1, 132044, Note_on_c, 4, 64, 124
1, 132112, Note_off_c, 2, 69, 64
1, 132118, Note_off_c, 4, 57, 64
1, 132118, Note_on_c, 2, 69, 127
1, 132119, Note_on_c, 4, 60, 126
1, 132125, Note_off_c, 4, 64, 64
1, 132187, Note_off_c, 2, 69, 64
1, 132192, Note_on_c, 2, 72, 127
1, 132193, Note_on_c, 4, 64, 124
1, 132268, Note_off_c, 4, 60, 64
1, 132268, Note_on_c, 2, 71, 127
1, 132268, Note_on_c, 4, 56, 124
1, 132276, Note_off_c, 2, 72, 64
1, 132276, Note_off_c, 4, 64, 64
1, 132343, Note_on_c, 2, 74, 127
1, 132343, Note_on_c, 4, 64, 124
1, 132349, Note_off_c, 2, 71, 64
1, 132419, Note_off_c, 4, 56, 64
1, 132419, Note_on_c, 2, 72, 127
1, 132420, Note_on_c, 4, 57, 124
1, 132427, Note_off_c, 4, 64, 64
1, 132427, Note_off_c, 2, 74, 64
1, 132494, Note_on_c, 2, 71, 127
1, 132495, Note_on_c, 4, 64, 124
1, 132501, Note_off_c, 2, 72, 64
1, 132572, Note_off_c, 4, 57, 64
1, 132573, Note_on_c, 4, 60, 126
1, 132573, Note_on_c, 2, 72, 127
1, 132579, Note_off_c, 2, 71, 64
1, 132580, Note_off_c, 4, 64, 64
1, 132598, Note_off_c, 4, 45, 64
1, 132648, Note_on_c, 2, 76, 127
1, 132648, Note_on_c, 4, 64, 124
1, 132654, Note_off_c, 2, 72, 64
1, 132722, Note_off_c, 4, 60, 64
1, 132722, Note_on_c, 2, 74, 127
1, 132723, Note_on_c, 4, 53, 124
1, 132728, Note_off_c, 2, 76, 64
1, 132729, Note_off_c, 4, 64, 64
1, 132804, Note_on_c, 2, 77, 127
1, 132804, Note_on_c, 4, 64, 124
1, 132810, Note_off_c, 2, 74, 64
1, 132879, Note_off_c, 4, 53, 64
1, 132880, Note_on_c, 2, 76, 127
1, 132882, Note_on_c, 4, 52, 124
1, 132888, Note_off_c, 4, 64, 64
1, 132888, Note_off_c, 2, 77, 64
1, 132960, Note_on_c, 2, 75, 127
1, 132960, Note_on_c, 4, 60, 126
1, 132967, Note_off_c, 2, 76, 64
1, 133036, Note_off_c, 4, 52, 64
1, 133036, Note_on_c, 2, 76, 127
1, 133039, Note_on_c, 4, 57, 124
1, 133044, Note_off_c, 2, 75, 64
1, 133046, Note_off_c, 4, 60, 64
1, 133114, Note_on_c, 4, 64, 124
1, 133114, Note_on_c, 4, 60, 126
1, 133122, Note_off_c, 4, 57, 64
1, 133189, Note_off_c, 2, 76, 64
1, 133191, Note_on_c, 4, 66, 127
1, 133192, Note_on_c, 4, 52, 124
1, 133198, Note_off_c, 4, 60, 64
1, 133199, Note_off_c, 4, 64, 64
1, 133266, Note_on_c, 2, 69, 127
1, 133268, Note_on_c, 4, 59, 126
1, 133276, Note_off_c, 4, 66, 64
1, 133341, Note_off_c, 2, 69, 64
1, 133349, Note_on_c, 4, 57, 124
1, 133349, Note_on_c, 2, 69, 127
1, 133350, Note_on_c, 4, 45, 122
1, 133358, Note_off_c, 4, 59, 64
1, 133420, Note_off_c, 2, 69, 64
1, 133428, Note_on_c, 2, 69, 127
1, 133452, Note_off_c, 4, 52, 64
1, 133500, Note_off_c, 2, 69, 64
1, 133506, Note_on_c, 2, 69, 127
1, 133575, Note_off_c, 2, 69, 64
1, 133583, Note_on_c, 4, 64, 124
1, 133662, Note_on_c, 4, 60, 126
1, 133669, Note_off_c, 4, 64, 64
1, 133739, Note_on_c, 3, 64, 124
1, 133746, Note_off_c, 4, 60, 64
1, 133802, Note_off_c, 4, 57, 64
1, 133802, Note_off_c, 4, 45, 64
1, 133813, Note_on_c, 1, 81, 127
1, 133813, Note_on_c, 3, 69, 127
1, 133816, Note_on_c, 4, 45, 122
1, 133826, Note_off_c, 3, 64, 64
1, 133899, Note_off_c, 3, 69, 64
1, 133903, Note_on_c, 1, 80, 127
1, 133903, Note_on_c, 3, 69, 127
1, 133904, Note_on_c, 4, 52, 124
1, 133908, Note_off_c, 1, 81, 64
1, 133909, Note_off_c, 4, 45, 64
1, 133963, Note_off_c, 3, 69, 64
1, 133969, Note_on_c, 1, 81, 127
1, 133969, Note_on_c, 3, 69, 127
1, 133970, Note_on_c, 4, 48, 122
1, 133980, Note_off_c, 1, 80, 64
1, 133980, Note_off_c, 4, 52, 64
1, 134048, Note_off_c, 3, 69, 64
1, 134052, Note_on_c, 1, 84, 127
1, 134052, Note_on_c, 3, 72, 127
1, 134054, Note_on_c, 4, 52, 124
1, 134060, Note_off_c, 1, 81, 64
1, 134062, Note_off_c, 4, 48, 64
1, 134135, Note_on_c, 1, 83, 127
1, 134136, Note_on_c, 3, 71, 127
1, 134136, Note_on_c, 4, 44, 122
1, 134142, Note_off_c, 3, 72, 64
1, 134142, Note_off_c, 1, 84, 64
1, 134143, Note_off_c, 4, 52, 64
1, 134212, Note_on_c, 1, 86, 127
1, 134212, Note_on_c, 3, 74, 127
1, 134215, Note_on_c, 4, 52, 124
1, 134220, Note_off_c, 3, 71, 64
1, 134221, Note_off_c, 1, 83, 64
1, 134221, Note_off_c, 4, 44, 64
1, 134291, Note_on_c, 1, 84, 127
1, 134291, Note_on_c, 3, 72, 127
1, 134292, Note_on_c, 4, 45, 122
1, 134297, Note_off_c, 3, 74, 64
1, 134298, Note_off_c, 1, 86, 64
1, 134300, Note_off_c, 4, 52, 64
1, 134372, Note_on_c, 1, 83, 127
1, 134373, Note_on_c, 3, 71, 127
1, 134375, Note_on_c, 4, 52, 124
1, 134381, Note_off_c, 3, 72, 64
1, 134381, Note_off_c, 1, 84, 64
1, 134382, Note_off_c, 4, 45, 64
1, 134447, Note_on_c, 1, 84, 127
1, 134448, Note_on_c, 3, 72, 127
1, 134448, Note_on_c, 4, 48, 122
1, 134456, Note_off_c, 1, 83, 64
1, 134456, Note_off_c, 3, 71, 64
1, 134457, Note_off_c, 4, 52, 64
1, 134522, Note_on_c, 1, 88, 127
1, 134523, Note_on_c, 3, 76, 127
1, 134523, Note_on_c, 4, 52, 124
1, 134531, Note_off_c, 3, 72, 64
1, 134531, Note_off_c, 1, 84, 64
1, 134532, Note_off_c, 4, 48, 64
1, 134603, Note_on_c, 1, 86, 127
1, 134604, Note_on_c, 3, 74, 127
1, 134604, Note_on_c, 4, 41, 122
1, 134610, Note_off_c, 3, 76, 64
1, 134611, Note_off_c, 4, 52, 64
1, 134611, Note_off_c, 1, 88, 64
1, 134679, Note_on_c, 1, 89, 127
1, 134679, Note_on_c, 3, 77, 127
1, 134679, Note_on_c, 4, 50, 124
1, 134685, Note_off_c, 3, 74, 64
1, 134686, Note_off_c, 1, 86, 64
1, 134686, Note_off_c, 4, 41, 64
1, 134758, Note_on_c, 1, 88, 127
1, 134758, Note_on_c, 3, 76, 127
1, 134760, Note_on_c, 4, 40, 122
1, 134766, Note_off_c, 3, 77, 64
1, 134766, Note_off_c, 1, 89, 64
1, 134767, Note_off_c, 4, 50, 64
1, 134838, Note_on_c, 1, 87, 127
1, 134839, Note_on_c, 3, 75, 127
1, 134841, Note_on_c, 4, 48, 122
1, 134846, Note_off_c, 3, 76, 64
1, 134847, Note_off_c, 4, 40, 64
1, 134847, Note_off_c, 1, 88, 64
1, 134917, Note_on_c, 1, 88, 127
1, 134917, Note_on_c, 3, 76, 127
1, 134918, Note_on_c, 4, 45, 122
1, 134923, Note_off_c, 3, 75, 64
1, 134924, Note_off_c, 1, 87, 64
1, 134924, Note_off_c, 4, 48, 64
1, 134984, Note_off_c, 3, 76, 64
1, 134990, Note_on_c, 3, 76, 127
1, 134990, Note_on_c, 3, 64, 124
1, 134991, Note_on_c, 4, 48, 122
1, 134998, Note_off_c, 4, 45, 64
1, 134998, Note_off_c, 1, 88, 64
1, 135067, Note_on_c, 3, 78, 127
1, 135067, Note_on_c, 3, 66, 127
1, 135068, Note_on_c, 4, 40, 122
1, 135074, Note_off_c, 3, 76, 64
1, 135076, Note_off_c, 4, 48, 64
1, 135076, Note_off_c, 3, 64, 64
1, 135144, Note_on_c, 1, 80, 127
1, 135145, Note_on_c, 3, 69, 127
1, 135145, Note_on_c, 4, 47, 122
1, 135153, Note_off_c, 3, 78, 64
1, 135154, Note_off_c, 3, 66, 64
1, 135154, Note_off_c, 4, 40, 64
1, 135227, Note_on_c, 1, 81, 127
1, 135228, Note_on_c, 3, 69, 127
1, 135228, Note_on_c, 4, 33, 122
1, 135233, Note_off_c, 3, 69, 64
1, 135234, Note_off_c, 4, 47, 64
1, 135234, Note_off_c, 1, 80, 64
1, 135300, Note_on_c, 4, 36, 122
1, 135310, Note_off_c, 4, 33, 64
1, 135373, Note_on_c, 4, 40, 122
1, 135383, Note_off_c, 4, 36, 64
1, 135454, Note_on_c, 4, 45, 122
1, 135461, Note_off_c, 4, 40, 64
1, 135530, Note_on_c, 4, 33, 122
1, 135538, Note_off_c, 4, 45, 64
1, 135662, Note_off_c, 1, 81, 64
1, 135662, Note_off_c, 3, 69, 64
1, 135672, Note_off_c, 4, 33, 64
1, 135673, Note_on_c, 2, 73, 127
1, 135673, Note_on_c, 2, 69, 127
1, 135674, Note_on_c, 4, 57, 124
1, 135674, Note_on_c, 4, 45, 122
1, 135755, Note_on_c, 4, 64, 124
1, 135822, Note_off_c, 2, 69, 64
1, 135823, Note_off_c, 2, 73, 64
1, 135835, Note_on_c, 1, 85, 127
1, 135835, Note_on_c, 1, 81, 127
1, 135836, Note_on_c, 2, 73, 127
1, 135836, Note_on_c, 2, 69, 127
1, 135902, Note_off_c, 4, 64, 64
1, 135915, Note_on_c, 4, 64, 124
1, 135990, Note_on_c, 1, 86, 127
1, 135991, Note_on_c, 1, 83, 127
1, 135991, Note_on_c, 2, 74, 127
1, 135992, Note_on_c, 2, 71, 127
1, 136002, Note_off_c, 2, 69, 64
1, 136003, Note_off_c, 1, 81, 64
1, 136003, Note_off_c, 2, 73, 64
1, 136004, Note_off_c, 1, 85, 64
1, 136054, Note_off_c, 4, 64, 64
1, 136068, Note_on_c, 4, 64, 124
1, 136145, Note_on_c, 1, 88, 127
1, 136145, Note_on_c, 1, 85, 127
1, 136146, Note_on_c, 2, 76, 127
1, 136146, Note_on_c, 2, 73, 127
1, 136156, Note_off_c, 2, 71, 64
1, 136157, Note_off_c, 2, 74, 64
1, 136157, Note_off_c, 1, 83, 64
1, 136158, Note_off_c, 1, 86, 64
1, 136208, Note_off_c, 4, 64, 64
1, 136222, Note_on_c, 4, 64, 124
1, 136296, Note_on_c, 1, 86, 127
1, 136297, Note_on_c, 1, 83, 127
1, 136297, Note_on_c, 2, 74, 127
1, 136298, Note_on_c, 2, 71, 127
1, 136312, Note_off_c, 2, 73, 64
1, 136312, Note_off_c, 2, 76, 64
1, 136313, Note_off_c, 1, 85, 64
1, 136313, Note_off_c, 1, 88, 64
1, 136366, Note_off_c, 4, 64, 64
1, 136379, Note_on_c, 4, 64, 124
1, 136458, Note_on_c, 1, 85, 127
1, 136458, Note_on_c, 1, 81, 127
1, 136459, Note_on_c, 2, 73, 127
1, 136459, Note_on_c, 2, 69, 127
1, 136471, Note_off_c, 2, 71, 64
1, 136472, Note_off_c, 2, 74, 64
1, 136472, Note_off_c, 1, 83, 64
1, 136473, Note_off_c, 1, 86, 64
1, 136524, Note_off_c, 4, 64, 64
1, 136538, Note_on_c, 4, 64, 124
1, 136594, Note_off_c, 4, 45, 64
1, 136595, Note_off_c, 4, 57, 64
1, 136607, Note_off_c, 2, 69, 64
1, 136620, Note_on_c, 2, 71, 127
1, 136620, Note_on_c, 2, 69, 127
1, 136621, Note_on_c, 4, 52, 124
1, 136621, Note_on_c, 4, 40, 122
1, 136688, Note_off_c, 4, 64, 64
1, 136700, Note_off_c, 1, 81, 64
1, 136700, Note_off_c, 1, 85, 64
1, 136701, Note_on_c, 4, 64, 124
1, 136766, Note_off_c, 2, 69, 64
1, 136767, Note_off_c, 2, 71, 64
1, 136771, Note_off_c, 2, 73, 64
1, 136778, Note_on_c, 1, 83, 127
1, 136779, Note_on_c, 1, 80, 127
1, 136779, Note_on_c, 2, 71, 127
1, 136780, Note_on_c, 2, 69, 127
1, 136844, Note_off_c, 4, 64, 64
1, 136858, Note_on_c, 4, 64, 124
1, 136925, Note_off_c, 2, 69, 64
1, 136937, Note_on_c, 1, 85, 127
1, 136937, Note_on_c, 1, 81, 127
1, 136938, Note_on_c, 2, 73, 127
1, 136938, Note_on_c, 2, 69, 127
1, 136951, Note_off_c, 2, 71, 64
1, 136951, Note_off_c, 1, 80, 64
1, 136952, Note_off_c, 1, 83, 64
1, 137000, Note_off_c, 4, 64, 64
1, 137014, Note_on_c, 4, 64, 124
1, 137090, Note_on_c, 1, 86, 127
1, 137090, Note_on_c, 1, 83, 127
1, 137091, Note_on_c, 2, 74, 127
1, 137091, Note_on_c, 2, 71, 127
1, 137103, Note_off_c, 2, 69, 64
1, 137104, Note_off_c, 1, 81, 64
1, 137104, Note_off_c, 1, 85, 64
1, 137104, Note_off_c, 2, 73, 64
1, 137153, Note_off_c, 4, 64, 64
1, 137165, Note_on_c, 4, 64, 124
1, 137242, Note_on_c, 1, 85, 127
1, 137242, Note_on_c, 1, 81, 127
1, 137243, Note_on_c, 2, 73, 127
1, 137243, Note_on_c, 2, 69, 127
1, 137253, Note_off_c, 2, 71, 64
1, 137254, Note_off_c, 2, 74, 64
1, 137254, Note_off_c, 1, 83, 64
1, 137255, Note_off_c, 1, 86, 64
1, 137311, Note_off_c, 4, 64, 64
1, 137324, Note_on_c, 4, 64, 124
1, 137393, Note_off_c, 2, 69, 64
1, 137407, Note_on_c, 1, 83, 127
1, 137407, Note_on_c, 1, 80, 127
1, 137408, Note_on_c, 2, 71, 127
1, 137408, Note_on_c, 2, 69, 127
1, 137420, Note_off_c, 2, 73, 64
1, 137421, Note_off_c, 1, 81, 64
1, 137421, Note_off_c, 1, 85, 64
1, 137471, Note_off_c, 4, 64, 64
1, 137484, Note_on_c, 4, 64, 124
1, 137534, Note_off_c, 4, 40, 64
1, 137535, Note_off_c, 4, 52, 64
1, 137546, Note_off_c, 2, 69, 64
1, 137551, Note_off_c, 4, 64, 64
1, 137559, Note_on_c, 2, 69, 127
1, 137560, Note_on_c, 4, 57, 124
1, 137560, Note_on_c, 4, 64, 124
1, 137561, Note_on_c, 4, 45, 122
1, 137573, Note_off_c, 2, 71, 64
1, 137640, Note_on_c, 4, 61, 126
1, 137665, Note_off_c, 1, 80, 64
1, 137665, Note_off_c, 1, 83, 64
1, 137704, Note_off_c, 4, 64, 64
1, 137705, Note_off_c, 2, 69, 64
1, 137717, Note_on_c, 1, 81, 127
1, 137717, Note_on_c, 2, 69, 127
1, 137718, Note_on_c, 4, 64, 124
1, 137779, Note_off_c, 4, 61, 64
1, 137791, Note_on_c, 4, 61, 126
1, 137852, Note_off_c, 4, 64, 64
1, 137853, Note_off_c, 2, 69, 64
1, 137853, Note_off_c, 4, 45, 64
1, 137854, Note_off_c, 4, 57, 64
1, 137866, Note_on_c, 2, 69, 127
1, 137866, Note_on_c, 4, 64, 124
1, 137867, Note_on_c, 4, 57, 124
1, 137867, Note_on_c, 4, 45, 122
1, 137929, Note_off_c, 4, 61, 64
1, 137940, Note_on_c, 4, 61, 126
1, 138006, Note_off_c, 4, 64, 64
1, 138006, Note_off_c, 2, 69, 64
1, 138018, Note_off_c, 4, 45, 64
1, 138019, Note_off_c, 4, 57, 64
1, 138019, Note_on_c, 2, 71, 127
1, 138020, Note_on_c, 4, 52, 124
1, 138020, Note_on_c, 2, 69, 127
1, 138021, Note_on_c, 4, 40, 122
1, 138079, Note_off_c, 4, 61, 64
1, 138090, Note_on_c, 4, 64, 124
1, 138156, Note_off_c, 2, 69, 64
1, 138156, Note_off_c, 2, 71, 64
1, 138170, Note_off_c, 1, 81, 64
1, 138170, Note_on_c, 1, 83, 127
1, 138171, Note_on_c, 2, 71, 127
1, 138171, Note_on_c, 2, 69, 127
1, 138237, Note_off_c, 4, 64, 64
1, 138251, Note_on_c, 4, 64, 124
1, 138322, Note_off_c, 2, 69, 64
1, 138322, Note_off_c, 2, 71, 64
1, 138323, Note_off_c, 4, 52, 64
1, 138323, Note_off_c, 4, 40, 64
1, 138335, Note_on_c, 2, 71, 127
1, 138336, Note_on_c, 4, 52, 124
1, 138336, Note_on_c, 4, 40, 122
1, 138336, Note_on_c, 2, 69, 127
1, 138402, Note_off_c, 4, 64, 64
1, 138414, Note_on_c, 4, 64, 124
1, 138475, Note_off_c, 2, 69, 64
1, 138487, Note_on_c, 1, 85, 127
1, 138487, Note_on_c, 1, 81, 127
1, 138488, Note_on_c, 2, 73, 127
1, 138488, Note_on_c, 2, 69, 127
1, 138492, Note_off_c, 1, 83, 64
1, 138500, Note_off_c, 2, 71, 64
1, 138560, Note_off_c, 4, 64, 64
1, 138565, Note_on_c, 4, 64, 124
1, 138644, Note_on_c, 1, 86, 127
1, 138645, Note_on_c, 1, 83, 127
1, 138645, Note_on_c, 2, 74, 127
1, 138646, Note_on_c, 2, 71, 127
1, 138658, Note_off_c, 2, 69, 64
1, 138658, Note_off_c, 2, 73, 64
1, 138659, Note_off_c, 1, 81, 64
1, 138659, Note_off_c, 1, 85, 64
1, 138709, Note_off_c, 4, 64, 64
1, 138721, Note_on_c, 4, 64, 124
1, 138800, Note_on_c, 1, 85, 127
1, 138801, Note_on_c, 1, 81, 127
1, 138801, Note_on_c, 2, 73, 127
1, 138802, Note_on_c, 2, 69, 127
1, 138813, Note_off_c, 2, 71, 64
1, 138814, Note_off_c, 2, 74, 64
1, 138814, Note_off_c, 1, 83, 64
1, 138815, Note_off_c, 1, 86, 64
1, 138863, Note_off_c, 4, 64, 64
1, 138875, Note_on_c, 4, 64, 124
1, 138942, Note_off_c, 2, 69, 64
1, 138953, Note_on_c, 1, 83, 127
1, 138954, Note_on_c, 1, 80, 127
1, 138954, Note_on_c, 2, 71, 127
1, 138955, Note_on_c, 2, 69, 127
1, 138967, Note_off_c, 2, 73, 64
1, 138967, Note_off_c, 1, 81, 64
1, 138968, Note_off_c, 1, 85, 64
1, 139018, Note_off_c, 4, 64, 64
1, 139031, Note_on_c, 4, 64, 124
1, 139098, Note_off_c, 4, 64, 64
1, 139106, Note_on_c, 4, 64, 124
1, 139106, Note_on_c, 2, 75, 127
1, 139120, Note_off_c, 2, 69, 64
1, 139121, Note_off_c, 2, 71, 64
1, 139183, Note_off_c, 1, 80, 64
1, 139184, Note_off_c, 1, 83, 64
1, 139184, Note_on_c, 2, 76, 127
1, 139191, Note_off_c, 2, 75, 64
1, 139234, Note_off_c, 4, 40, 64
1, 139234, Note_off_c, 4, 52, 64
1, 139258, Note_on_c, 2, 75, 127
1, 139258, Note_on_c, 4, 52, 124
1, 139266, Note_off_c, 2, 76, 64
1, 139334, Note_on_c, 2, 76, 127
1, 139341, Note_off_c, 2, 75, 64
1, 139406, Note_off_c, 4, 52, 64
1, 139411, Note_on_c, 4, 57, 124
1, 139411, Note_on_c, 2, 73, 127
1, 139411, Note_on_c, 2, 69, 127
1, 139412, Note_on_c, 4, 45, 122
1, 139418, Note_off_c, 2, 76, 64
1, 139424, Note_off_c, 4, 64, 64
1, 139489, Note_on_c, 4, 64, 124
1, 139556, Note_off_c, 2, 69, 64
1, 139557, Note_off_c, 2, 73, 64
1, 139571, Note_on_c, 1, 85, 127
1, 139572, Note_on_c, 1, 81, 127
1, 139572, Note_on_c, 2, 73, 127
1, 139572, Note_on_c, 2, 69, 127
1, 139639, Note_off_c, 4, 64, 64
1, 139653, Note_on_c, 4, 64, 124
1, 139731, Note_on_c, 1, 86, 127
1, 139732, Note_on_c, 1, 83, 127
1, 139732, Note_on_c, 2, 74, 127
1, 139733, Note_on_c, 2, 71, 127
1, 139745, Note_off_c, 2, 69, 64
1, 139745, Note_off_c, 2, 73, 64
1, 139746, Note_off_c, 1, 85, 64
1, 139746, Note_off_c, 1, 81, 64
1, 139799, Note_off_c, 4, 64, 64
1, 139812, Note_on_c, 4, 64, 124
1, 139886, Note_on_c, 1, 88, 127
1, 139886, Note_on_c, 1, 85, 127
1, 139887, Note_on_c, 2, 76, 127
1, 139887, Note_on_c, 2, 73, 127
1, 139899, Note_off_c, 2, 71, 64
1, 139900, Note_off_c, 2, 74, 64
1, 139900, Note_off_c, 1, 83, 64
1, 139901, Note_off_c, 1, 86, 64
1, 139949, Note_off_c, 4, 64, 64
1, 139963, Note_on_c, 4, 64, 124
1, 140040, Note_on_c, 1, 86, 127
1, 140040, Note_on_c, 1, 83, 127
1, 140040, Note_on_c, 2, 74, 127
1, 140041, Note_on_c, 2, 71, 127
1, 140051, Note_off_c, 2, 73, 64
1, 140052, Note_off_c, 1, 85, 64
1, 140052, Note_off_c, 1, 88, 64
1, 140052, Note_off_c, 2, 76, 64
1, 140103, Note_off_c, 4, 64, 64
1, 140116, Note_on_c, 4, 64, 124
1, 140192, Note_on_c, 1, 85, 127
1, 140193, Note_on_c, 1, 81, 127
1, 140193, Note_on_c, 2, 73, 127
1, 140194, Note_on_c, 2, 69, 127
1, 140206, Note_off_c, 2, 74, 64
1, 140206, Note_off_c, 2, 71, 64
1, 140207, Note_off_c, 1, 83, 64
1, 140207, Note_off_c, 1, 86, 64
1, 140257, Note_off_c, 4, 64, 64
1, 140273, Note_on_c, 4, 64, 124
1, 140328, Note_off_c, 4, 45, 64
1, 140329, Note_off_c, 4, 57, 64
1, 140341, Note_off_c, 2, 69, 64
1, 140352, Note_on_c, 2, 71, 127
1, 140353, Note_on_c, 4, 52, 124
1, 140353, Note_on_c, 2, 69, 127
1, 140354, Note_on_c, 4, 40, 122
1, 140366, Note_off_c, 2, 73, 64
1, 140420, Note_off_c, 4, 64, 64
1, 140433, Note_off_c, 1, 81, 64
1, 140434, Note_off_c, 1, 85, 64
1, 140434, Note_on_c, 4, 64, 124
1, 140497, Note_off_c, 2, 69, 64
1, 140498, Note_off_c, 2, 71, 64
1, 140510, Note_on_c, 1, 83, 127
1, 140510, Note_on_c, 1, 80, 127
1, 140511, Note_on_c, 2, 71, 127
1, 140511, Note_on_c, 2, 69, 127
1, 140571, Note_off_c, 4, 64, 64
1, 140585, Note_on_c, 4, 64, 124
1, 140654, Note_off_c, 2, 69, 64
1, 140667, Note_on_c, 1, 85, 127
1, 140668, Note_on_c, 1, 81, 127
1, 140668, Note_on_c, 2, 73, 127
1, 140669, Note_on_c, 2, 69, 127
1, 140679, Note_off_c, 1, 80, 64
1, 140679, Note_off_c, 2, 71, 64
1, 140680, Note_off_c, 1, 83, 64
1, 140730, Note_off_c, 4, 64, 64
1, 140743, Note_on_c, 4, 64, 124
1, 140824, Note_on_c, 1, 86, 127
1, 140824, Note_on_c, 1, 83, 127
1, 140825, Note_on_c, 2, 74, 127
1, 140825, Note_on_c, 2, 71, 127
1, 140833, Note_off_c, 2, 69, 64
1, 140834, Note_off_c, 2, 73, 64
1, 140836, Note_off_c, 1, 81, 64
1, 140837, Note_off_c, 1, 85, 64
1, 140887, Note_off_c, 4, 64, 64
1, 140901, Note_on_c, 4, 64, 124
1, 140977, Note_on_c, 1, 85, 127
1, 140978, Note_on_c, 1, 81, 127
1, 140978, Note_on_c, 2, 73, 127
1, 140979, Note_on_c, 2, 69, 127
1, 140989, Note_off_c, 2, 71, 64
1, 140989, Note_off_c, 2, 74, 64
1, 140992, Note_off_c, 1, 83, 64
1, 140992, Note_off_c, 1, 86, 64
1, 141047, Note_off_c, 4, 64, 64
1, 141060, Note_on_c, 4, 64, 124
1, 141121, Note_off_c, 2, 69, 64
1, 141135, Note_on_c, 1, 83, 127
1, 141135, Note_on_c, 1, 80, 127
1, 141136, Note_on_c, 2, 71, 127
1, 141136, Note_on_c, 2, 69, 127
1, 141144, Note_off_c, 2, 73, 64
1, 141146, Note_off_c, 1, 81, 64
1, 141147, Note_off_c, 1, 85, 64
1, 141199, Note_off_c, 4, 64, 64
1, 141213, Note_on_c, 4, 64, 124
1, 141266, Note_off_c, 4, 40, 64
1, 141267, Note_off_c, 4, 52, 64
1, 141279, Note_off_c, 2, 69, 64
1, 141285, Note_off_c, 4, 64, 64
1, 141292, Note_on_c, 2, 69, 127
1, 141293, Note_on_c, 4, 57, 124
1, 141293, Note_on_c, 4, 64, 124
1, 141294, Note_on_c, 4, 45, 122
1, 141302, Note_off_c, 2, 71, 64
1, 141371, Note_off_c, 1, 80, 64
1, 141372, Note_off_c, 1, 83, 64
1, 141372, Note_on_c, 4, 61, 126
1, 141432, Note_off_c, 4, 64, 64
1, 141433, Note_off_c, 2, 69, 64
1, 141447, Note_on_c, 1, 81, 127
1, 141447, Note_on_c, 2, 73, 127
1, 141448, Note_on_c, 2, 69, 127
1, 141448, Note_on_c, 4, 64, 124
1, 141515, Note_off_c, 4, 61, 64
1, 141526, Note_on_c, 4, 61, 126
1, 141589, Note_off_c, 4, 64, 64
1, 141589, Note_off_c, 2, 69, 64
1, 141602, Note_on_c, 1, 83, 127
1, 141602, Note_on_c, 2, 76, 127
1, 141602, Note_on_c, 2, 71, 127
1, 141603, Note_on_c, 2, 69, 127
1, 141615, Note_off_c, 2, 73, 64
1, 141616, Note_off_c, 1, 81, 64
1, 141683, Note_on_c, 4, 64, 124
1, 141700, Note_off_c, 4, 61, 64
1, 141747, Note_off_c, 2, 69, 64
1, 141758, Note_on_c, 1, 85, 127
1, 141759, Note_on_c, 1, 81, 127
1, 141759, Note_on_c, 2, 73, 127
1, 141760, Note_on_c, 2, 69, 127
1, 141771, Note_off_c, 2, 71, 64
1, 141772, Note_off_c, 2, 76, 64
1, 141772, Note_off_c, 1, 83, 64
1, 141821, Note_off_c, 4, 64, 64
1, 141834, Note_on_c, 4, 64, 124
1, 141898, Note_off_c, 2, 73, 64
1, 141898, Note_off_c, 2, 69, 64
1, 141910, Note_off_c, 4, 45, 64
1, 141911, Note_off_c, 4, 57, 64
1, 141911, Note_on_c, 2, 73, 127
1, 141912, Note_on_c, 4, 54, 124
1, 141912, Note_on_c, 4, 42, 122
1, 141912, Note_on_c, 2, 69, 127
1, 141974, Note_off_c, 4, 64, 64
1, 141988, Note_on_c, 4, 64, 124
1, 142068, Note_on_c, 2, 74, 127
1, 142069, Note_on_c, 2, 71, 127
1, 142069, Note_on_c, 4, 50, 124
1, 142070, Note_on_c, 4, 38, 122
1, 142080, Note_off_c, 4, 42, 64
1, 142080, Note_off_c, 4, 54, 64
1, 142081, Note_off_c, 2, 73, 64
1, 142081, Note_off_c, 2, 69, 64
1, 142140, Note_off_c, 4, 64, 64
1, 142153, Note_on_c, 4, 64, 124
1, 142230, Note_on_c, 2, 73, 127
1, 142230, Note_on_c, 2, 69, 127
1, 142231, Note_on_c, 4, 52, 124
1, 142231, Note_on_c, 4, 40, 122
1, 142243, Note_off_c, 4, 38, 64
1, 142244, Note_off_c, 4, 50, 64
1, 142244, Note_off_c, 2, 71, 64
1, 142245, Note_off_c, 2, 74, 64
1, 142293, Note_off_c, 4, 64, 64
1, 142305, Note_on_c, 4, 64, 124
1, 142367, Note_off_c, 2, 69, 64
1, 142368, Note_off_c, 1, 85, 64
1, 142368, Note_off_c, 1, 81, 64
1, 142368, Note_off_c, 2, 73, 64
1, 142380, Note_on_c, 1, 85, 127
1, 142381, Note_on_c, 1, 81, 127
1, 142381, Note_on_c, 2, 73, 127
1, 142382, Note_on_c, 2, 69, 127
1, 142442, Note_off_c, 4, 64, 64
1, 142453, Note_on_c, 4, 64, 124
1, 142523, Note_off_c, 2, 69, 64
1, 142536, Note_on_c, 1, 83, 127
1, 142536, Note_on_c, 1, 80, 127
1, 142537, Note_on_c, 2, 71, 127
1, 142537, Note_on_c, 2, 69, 127
1, 142549, Note_off_c, 2, 73, 64
1, 142550, Note_off_c, 1, 81, 64
1, 142550, Note_off_c, 1, 85, 64
1, 142601, Note_off_c, 4, 64, 64
1, 142615, Note_on_c, 4, 64, 124
1, 142676, Note_off_c, 2, 69, 64
1, 142688, Note_on_c, 1, 81, 127
1, 142688, Note_on_c, 2, 69, 127
1, 142701, Note_off_c, 1, 80, 64
1, 142701, Note_off_c, 1, 83, 64
1, 142701, Note_off_c, 2, 71, 64
1, 142752, Note_off_c, 4, 64, 64
1, 142767, Note_on_c, 4, 64, 124
1, 142838, Note_off_c, 4, 40, 64
1, 142839, Note_off_c, 4, 52, 64
1, 142839, Note_on_c, 4, 61, 126
1, 142840, Note_on_c, 4, 57, 124
1, 142848, Note_off_c, 2, 69, 64
1, 142896, Note_off_c, 4, 64, 64
1, 142909, Note_on_c, 4, 64, 124
1, 142988, Note_on_c, 2, 69, 127
1, 142989, Note_on_c, 4, 45, 122
1, 143012, Note_off_c, 4, 57, 64
1, 143013, Note_off_c, 4, 61, 64
1, 143052, Note_off_c, 4, 64, 64
1, 143090, Note_off_c, 1, 81, 64
1, 143130, Note_off_c, 4, 45, 64
1, 143131, Note_off_c, 2, 69, 64
1, 143143, Note_on_c, 2, 73, 127
1, 143143, Note_on_c, 2, 69, 127
1, 143144, Note_on_c, 4, 57, 124
1, 143144, Note_on_c, 4, 45, 122
1, 143225, Note_on_c, 4, 64, 124
1, 143293, Note_off_c, 2, 69, 64
1, 143294, Note_off_c, 2, 73, 64
1, 143306, Note_on_c, 1, 85, 127
1, 143306, Note_on_c, 1, 81, 127
1, 143307, Note_on_c, 2, 73, 127
1, 143307, Note_on_c, 2, 69, 127
1, 143372, Note_off_c, 4, 64, 64
1, 143386, Note_on_c, 4, 64, 124
1, 143466, Note_on_c, 1, 86, 127
1, 143467, Note_on_c, 1, 83, 127
1, 143467, Note_on_c, 2, 74, 127
1, 143468, Note_on_c, 2, 71, 127
1, 143480, Note_off_c, 2, 69, 64
1, 143480, Note_off_c, 2, 73, 64
1, 143481, Note_off_c, 1, 81, 64
1, 143481, Note_off_c, 1, 85, 64
1, 143532, Note_off_c, 4, 64, 64
1, 143543, Note_on_c, 4, 64, 124
1, 143620, Note_on_c, 1, 88, 127
1, 143620, Note_on_c, 1, 85, 127
1, 143621, Note_on_c, 2, 76, 127
1, 143621, Note_on_c, 2, 73, 127
1, 143633, Note_off_c, 2, 71, 64
1, 143634, Note_off_c, 2, 74, 64
1, 143634, Note_off_c, 1, 83, 64
1, 143635, Note_off_c, 1, 86, 64
1, 143686, Note_off_c, 4, 64, 64
1, 143697, Note_on_c, 4, 64, 124
1, 143773, Note_on_c, 1, 86, 127
1, 143774, Note_on_c, 1, 83, 127
1, 143774, Note_on_c, 2, 74, 127
1, 143775, Note_on_c, 2, 71, 127
1, 143787, Note_off_c, 2, 73, 64
1, 143787, Note_off_c, 2, 76, 64
1, 143788, Note_off_c, 1, 85, 64
1, 143788, Note_off_c, 1, 88, 64
1, 143843, Note_off_c, 4, 64, 64
1, 143856, Note_on_c, 4, 64, 124
1, 143939, Note_on_c, 1, 85, 127
1, 143939, Note_on_c, 1, 81, 127
1, 143940, Note_on_c, 2, 73, 127
1, 143940, Note_on_c, 2, 69, 127
1, 143952, Note_off_c, 2, 71, 64
1, 143953, Note_off_c, 2, 74, 64
1, 143953, Note_off_c, 1, 83, 64
1, 143953, Note_off_c, 1, 86, 64
1, 144010, Note_off_c, 4, 64, 64
1, 144023, Note_on_c, 4, 64, 124
1, 144079, Note_off_c, 4, 45, 64
1, 144080, Note_off_c, 4, 57, 64
1, 144094, Note_off_c, 2, 69, 64
1, 144107, Note_on_c, 2, 71, 127
1, 144107, Note_on_c, 2, 69, 127
1, 144108, Note_on_c, 4, 52, 124
1, 144108, Note_on_c, 4, 40, 122
1, 144172, Note_off_c, 4, 64, 64
1, 144186, Note_off_c, 1, 81, 64
1, 144186, Note_off_c, 1, 85, 64
1, 144187, Note_on_c, 4, 64, 124
1, 144253, Note_off_c, 2, 69, 64
1, 144253, Note_off_c, 2, 71, 64
1, 144257, Note_off_c, 2, 73, 64
1, 144265, Note_on_c, 1, 83, 127
1, 144266, Note_on_c, 1, 80, 127
1, 144266, Note_on_c, 2, 71, 127
1, 144267, Note_on_c, 2, 69, 127
1, 144329, Note_off_c, 4, 64, 64
1, 144342, Note_on_c, 4, 64, 124
1, 144409, Note_off_c, 2, 69, 64
1, 144423, Note_on_c, 1, 85, 127
1, 144423, Note_on_c, 1, 81, 127
1, 144424, Note_on_c, 2, 73, 127
1, 144424, Note_on_c, 2, 69, 127
1, 144436, Note_off_c, 2, 71, 64
1, 144437, Note_off_c, 1, 80, 64
1, 144437, Note_off_c, 1, 83, 64
1, 144485, Note_off_c, 4, 64, 64
1, 144499, Note_on_c, 4, 64, 124
1, 144576, Note_on_c, 1, 86, 127
1, 144576, Note_on_c, 1, 83, 127
1, 144576, Note_on_c, 2, 74, 127
1, 144577, Note_on_c, 2, 71, 127
1, 144589, Note_off_c, 2, 69, 64
1, 144589, Note_off_c, 2, 73, 64
1, 144590, Note_off_c, 1, 81, 64
1, 144590, Note_off_c, 1, 85, 64
1, 144637, Note_off_c, 4, 64, 64
1, 144650, Note_on_c, 4, 64, 124
1, 144725, Note_on_c, 1, 85, 127
1, 144726, Note_on_c, 1, 81, 127
1, 144726, Note_on_c, 2, 73, 127
1, 144727, Note_on_c, 2, 69, 127
1, 144739, Note_off_c, 2, 74, 64
1, 144739, Note_off_c, 2, 71, 64
1, 144740, Note_off_c, 1, 83, 64
1, 144740, Note_off_c, 1, 86, 64
1, 144796, Note_off_c, 4, 64, 64
1, 144810, Note_on_c, 4, 64, 124
1, 144877, Note_off_c, 2, 69, 64
1, 144892, Note_on_c, 1, 83, 127
1, 144893, Note_on_c, 1, 80, 127
1, 144893, Note_on_c, 2, 71, 127
1, 144894, Note_on_c, 2, 69, 127
1, 144904, Note_off_c, 2, 73, 64
1, 144904, Note_off_c, 1, 81, 64
1, 144905, Note_off_c, 1, 85, 64
1, 144959, Note_off_c, 4, 64, 64
1, 144970, Note_on_c, 4, 64, 124
1, 145020, Note_off_c, 4, 40, 64
1, 145020, Note_off_c, 4, 52, 64
1, 145032, Note_off_c, 2, 69, 64
1, 145038, Note_off_c, 4, 64, 64
1, 145046, Note_on_c, 2, 69, 127
1, 145046, Note_on_c, 4, 64, 124
1, 145047, Note_on_c, 4, 57, 124
1, 145047, Note_on_c, 4, 45, 122
1, 145059, Note_off_c, 2, 71, 64
1, 145125, Note_on_c, 4, 61, 126
1, 145152, Note_off_c, 1, 83, 64
1, 145152, Note_off_c, 1, 80, 64
1, 145191, Note_off_c, 4, 64, 64
1, 145191, Note_off_c, 2, 69, 64
1, 145203, Note_on_c, 1, 81, 127
1, 145204, Note_on_c, 2, 69, 127
1, 145204, Note_on_c, 4, 64, 124
1, 145265, Note_off_c, 4, 61, 64
1, 145276, Note_on_c, 4, 61, 126
1, 145338, Note_off_c, 4, 64, 64
1, 145339, Note_off_c, 2, 69, 64
1, 145339, Note_off_c, 4, 45, 64
1, 145340, Note_off_c, 4, 57, 64
1, 145351, Note_on_c, 2, 69, 127
1, 145352, Note_on_c, 4, 64, 124
1, 145352, Note_on_c, 4, 57, 124
1, 145353, Note_on_c, 4, 45, 122
1, 145415, Note_off_c, 4, 61, 64
1, 145428, Note_on_c, 4, 61, 126
1, 145491, Note_off_c, 4, 64, 64
1, 145492, Note_off_c, 2, 69, 64
1, 145504, Note_off_c, 4, 57, 64
1, 145504, Note_off_c, 4, 45, 64
1, 145505, Note_on_c, 2, 71, 127
1, 145505, Note_on_c, 2, 69, 127
1, 145506, Note_on_c, 4, 52, 124
1, 145506, Note_on_c, 4, 40, 122
1, 145564, Note_off_c, 4, 61, 64
1, 145576, Note_on_c, 4, 64, 124
1, 145641, Note_off_c, 2, 69, 64
1, 145642, Note_off_c, 2, 71, 64
1, 145656, Note_off_c, 1, 81, 64
1, 145656, Note_on_c, 1, 83, 127
1, 145656, Note_on_c, 2, 71, 127
1, 145657, Note_on_c, 2, 69, 127
1, 145723, Note_off_c, 4, 64, 64
1, 145738, Note_on_c, 4, 64, 124
1, 145807, Note_off_c, 2, 69, 64
1, 145808, Note_off_c, 2, 71, 64
1, 145808, Note_off_c, 4, 40, 64
1, 145809, Note_off_c, 4, 52, 64
1, 145821, Note_on_c, 2, 71, 127
1, 145821, Note_on_c, 2, 69, 127
1, 145822, Note_on_c, 4, 52, 124
1, 145822, Note_on_c, 4, 40, 122
1, 145888, Note_off_c, 4, 64, 64
1, 145900, Note_on_c, 4, 64, 124
1, 145961, Note_off_c, 2, 69, 64
1, 145972, Note_on_c, 1, 85, 127
1, 145973, Note_on_c, 1, 81, 127
1, 145973, Note_on_c, 2, 73, 127
1, 145974, Note_on_c, 2, 69, 127
1, 145978, Note_off_c, 1, 83, 64
1, 145986, Note_off_c, 2, 71, 64
1, 146047, Note_off_c, 4, 64, 64
1, 146051, Note_on_c, 4, 64, 124
1, 146132, Note_on_c, 1, 86, 127
1, 146132, Note_on_c, 1, 83, 127
1, 146133, Note_on_c, 2, 74, 127
1, 146133, Note_on_c, 2, 71, 127
1, 146145, Note_off_c, 2, 69, 64
1, 146146, Note_off_c, 2, 73, 64
1, 146146, Note_off_c, 1, 81, 64
1, 146147, Note_off_c, 1, 85, 64
1, 146195, Note_off_c, 4, 64, 64
1, 146207, Note_on_c, 4, 64, 124
1, 146286, Note_on_c, 1, 85, 127
1, 146286, Note_on_c, 1, 81, 127
1, 146287, Note_on_c, 2, 73, 127
1, 146287, Note_on_c, 2, 69, 127
1, 146299, Note_off_c, 2, 71, 64
1, 146300, Note_off_c, 1, 83, 64
1, 146300, Note_off_c, 2, 74, 64
1, 146301, Note_off_c, 1, 86, 64
1, 146349, Note_off_c, 4, 64, 64
1, 146363, Note_on_c, 4, 64, 124
1, 146427, Note_off_c, 2, 69, 64
1, 146441, Note_on_c, 1, 83, 127
1, 146441, Note_on_c, 1, 80, 127
1, 146442, Note_on_c, 2, 71, 127
1, 146442, Note_on_c, 2, 69, 127
1, 146455, Note_off_c, 1, 81, 64
1, 146455, Note_off_c, 2, 73, 64
1, 146456, Note_off_c, 1, 85, 64
1, 146506, Note_off_c, 4, 64, 64
1, 146517, Note_on_c, 4, 64, 124
1, 146586, Note_off_c, 4, 64, 64
1, 146594, Note_on_c, 4, 64, 124
1, 146594, Note_on_c, 2, 75, 127
1, 146606, Note_off_c, 2, 69, 64
1, 146607, Note_off_c, 2, 71, 64
1, 146671, Note_off_c, 1, 80, 64
1, 146671, Note_off_c, 1, 83, 64
1, 146672, Note_on_c, 2, 76, 127
1, 146677, Note_off_c, 2, 75, 64
1, 146722, Note_off_c, 4, 40, 64
1, 146722, Note_off_c, 4, 52, 64
1, 146744, Note_on_c, 4, 52, 124
1, 146744, Note_on_c, 2, 75, 127
1, 146752, Note_off_c, 2, 76, 64
1, 146821, Note_on_c, 2, 76, 127
1, 146829, Note_off_c, 2, 75, 64
1, 146892, Note_off_c, 4, 52, 64
1, 146896, Note_on_c, 2, 73, 127
1, 146897, Note_on_c, 4, 57, 124
1, 146897, Note_on_c, 2, 69, 127
1, 146898, Note_on_c, 4, 45, 122
1, 146904, Note_off_c, 2, 76, 64
1, 146910, Note_off_c, 4, 64, 64
1, 146975, Note_on_c, 4, 64, 124
1, 147042, Note_off_c, 2, 69, 64
1, 147043, Note_off_c, 2, 73, 64
1, 147057, Note_on_c, 1, 85, 127
1, 147057, Note_on_c, 1, 81, 127
1, 147058, Note_on_c, 2, 73, 127
1, 147058, Note_on_c, 2, 69, 127
1, 147126, Note_off_c, 4, 64, 64
1, 147139, Note_on_c, 4, 64, 124
1, 147217, Note_on_c, 1, 86, 127
1, 147217, Note_on_c, 1, 83, 127
1, 147218, Note_on_c, 2, 74, 127
1, 147218, Note_on_c, 2, 71, 127
1, 147230, Note_off_c, 2, 69, 64
1, 147231, Note_off_c, 1, 81, 64
1, 147231, Note_off_c, 2, 73, 64
1, 147232, Note_off_c, 1, 85, 64
1, 147284, Note_off_c, 4, 64, 64
1, 147298, Note_on_c, 4, 64, 124
1, 147372, Note_on_c, 1, 88, 127
1, 147373, Note_on_c, 1, 85, 127
1, 147373, Note_on_c, 2, 76, 127
1, 147374, Note_on_c, 2, 73, 127
1, 147384, Note_off_c, 2, 71, 64
1, 147384, Note_off_c, 2, 74, 64
1, 147385, Note_off_c, 1, 83, 64
1, 147385, Note_off_c, 1, 86, 64
1, 147436, Note_off_c, 4, 64, 64
1, 147448, Note_on_c, 4, 64, 124
1, 147524, Note_on_c, 1, 86, 127
1, 147525, Note_on_c, 1, 83, 127
1, 147525, Note_on_c, 2, 74, 127
1, 147526, Note_on_c, 2, 71, 127
1, 147538, Note_off_c, 2, 73, 64
1, 147538, Note_off_c, 2, 76, 64
1, 147539, Note_off_c, 1, 85, 64
1, 147539, Note_off_c, 1, 88, 64
1, 147589, Note_off_c, 4, 64, 64
1, 147601, Note_on_c, 4, 64, 124
1, 147680, Note_on_c, 1, 85, 127
1, 147680, Note_on_c, 1, 81, 127
1, 147681, Note_on_c, 2, 73, 127
1, 147681, Note_on_c, 2, 69, 127
1, 147691, Note_off_c, 2, 71, 64
1, 147692, Note_off_c, 2, 74, 64
1, 147692, Note_off_c, 1, 83, 64
1, 147693, Note_off_c, 1, 86, 64
1, 147745, Note_off_c, 4, 64, 64
1, 147758, Note_on_c, 4, 64, 124
1, 147814, Note_off_c, 4, 45, 64
1, 147815, Note_off_c, 4, 57, 64
1, 147827, Note_off_c, 2, 69, 64
1, 147838, Note_on_c, 2, 71, 127
1, 147839, Note_on_c, 4, 52, 124
1, 147839, Note_on_c, 2, 69, 127
1, 147840, Note_on_c, 4, 40, 122
1, 147852, Note_off_c, 2, 73, 64
1, 147905, Note_off_c, 4, 64, 64
1, 147919, Note_off_c, 1, 81, 64
1, 147919, Note_off_c, 1, 85, 64
1, 147920, Note_on_c, 4, 64, 124
1, 147985, Note_off_c, 2, 71, 64
1, 147985, Note_off_c, 2, 69, 64
1, 147996, Note_on_c, 1, 83, 127
1, 147996, Note_on_c, 1, 80, 127
1, 147996, Note_on_c, 2, 71, 127
1, 147997, Note_on_c, 2, 69, 127
1, 148059, Note_off_c, 4, 64, 64
1, 148070, Note_on_c, 4, 64, 124
1, 148140, Note_off_c, 2, 69, 64
1, 148153, Note_on_c, 1, 85, 127
1, 148153, Note_on_c, 1, 81, 127
1, 148154, Note_on_c, 2, 73, 127
1, 148154, Note_on_c, 2, 69, 127
1, 148166, Note_off_c, 2, 71, 64
1, 148167, Note_off_c, 1, 80, 64
1, 148167, Note_off_c, 1, 83, 64
1, 148215, Note_off_c, 4, 64, 64
1, 148229, Note_on_c, 4, 64, 124
1, 148309, Note_on_c, 1, 86, 127
1, 148310, Note_on_c, 1, 83, 127
1, 148310, Note_on_c, 2, 74, 127
1, 148311, Note_on_c, 2, 71, 127
1, 148319, Note_off_c, 2, 69, 64
1, 148320, Note_off_c, 2, 73, 64
1, 148322, Note_off_c, 1, 81, 64
1, 148322, Note_off_c, 1, 85, 64
1, 148375, Note_off_c, 4, 64, 64
1, 148386, Note_on_c, 4, 64, 124
1, 148464, Note_on_c, 1, 85, 127
1, 148464, Note_on_c, 1, 81, 127
1, 148464, Note_on_c, 2, 73, 127
1, 148464, Note_on_c, 2, 69, 127
1, 148475, Note_off_c, 2, 74, 64
1, 148475, Note_off_c, 2, 71, 64
1, 148477, Note_off_c, 1, 83, 64
1, 148478, Note_off_c, 1, 86, 64
1, 148533, Note_off_c, 4, 64, 64
1, 148546, Note_on_c, 4, 64, 124
1, 148607, Note_off_c, 2, 69, 64
1, 148620, Note_on_c, 1, 83, 127
1, 148621, Note_on_c, 1, 80, 127
1, 148621, Note_on_c, 2, 71, 127
1, 148622, Note_on_c, 2, 69, 127
1, 148630, Note_off_c, 2, 73, 64
1, 148634, Note_off_c, 1, 81, 64
1, 148635, Note_off_c, 1, 85, 64
1, 148685, Note_off_c, 4, 64, 64
1, 148699, Note_on_c, 4, 64, 124
1, 148752, Note_off_c, 4, 40, 64
1, 148752, Note_off_c, 4, 52, 64
1, 148765, Note_off_c, 2, 69, 64
1, 148770, Note_off_c, 4, 64, 64
1, 148778, Note_on_c, 2, 69, 127
1, 148778, Note_on_c, 4, 64, 124
1, 148779, Note_on_c, 4, 57, 124
1, 148779, Note_on_c, 4, 45, 122
1, 148788, Note_off_c, 2, 71, 64
1, 148857, Note_off_c, 1, 80, 64
1, 148858, Note_off_c, 1, 83, 64
1, 148858, Note_on_c, 4, 61, 126
1, 148920, Note_off_c, 4, 64, 64
1, 148920, Note_off_c, 2, 69, 64
1, 148932, Note_on_c, 1, 81, 127
1, 148932, Note_on_c, 2, 73, 127
1, 148933, Note_on_c, 2, 69, 127
1, 148933, Note_on_c, 4, 64, 124
1, 148999, Note_off_c, 4, 61, 64
1, 149013, Note_on_c, 4, 61, 126
1, 149074, Note_off_c, 4, 64, 64
1, 149075, Note_off_c, 2, 69, 64
1, 149088, Note_on_c, 1, 83, 127
1, 149089, Note_on_c, 2, 76, 127
1, 149089, Note_on_c, 2, 71, 127
1, 149090, Note_on_c, 2, 69, 127
1, 149101, Note_off_c, 2, 73, 64
1, 149101, Note_off_c, 1, 81, 64
1, 149169, Note_on_c, 4, 64, 124
1, 149188, Note_off_c, 4, 61, 64
1, 149232, Note_off_c, 2, 69, 64
1, 149246, Note_on_c, 1, 85, 127
1, 149246, Note_on_c, 1, 81, 127
1, 149247, Note_on_c, 2, 73, 127
1, 149247, Note_on_c, 2, 69, 127
1, 149257, Note_off_c, 2, 71, 64
1, 149258, Note_off_c, 2, 76, 64
1, 149258, Note_off_c, 1, 83, 64
1, 149308, Note_off_c, 4, 64, 64
1, 149320, Note_on_c, 4, 64, 124
1, 149385, Note_off_c, 2, 69, 64
1, 149386, Note_off_c, 2, 73, 64
1, 149396, Note_off_c, 4, 45, 64
1, 149396, Note_off_c, 4, 57, 64
1, 149397, Note_on_c, 2, 73, 127
1, 149397, Note_on_c, 2, 69, 127
1, 149398, Note_on_c, 4, 54, 124
1, 149398, Note_on_c, 4, 42, 122
1, 149460, Note_off_c, 4, 64, 64
1, 149475, Note_on_c, 4, 64, 124
1, 149554, Note_on_c, 2, 74, 127
1, 149555, Note_on_c, 2, 71, 127
1, 149555, Note_on_c, 4, 50, 124
1, 149556, Note_on_c, 4, 38, 122
1, 149568, Note_off_c, 2, 69, 64
1, 149568, Note_off_c, 4, 42, 64
1, 149568, Note_off_c, 4, 54, 64
1, 149569, Note_off_c, 2, 73, 64
1, 149625, Note_off_c, 4, 64, 64
1, 149639, Note_on_c, 4, 64, 124
1, 149715, Note_on_c, 2, 73, 127
1, 149716, Note_on_c, 4, 52, 124
1, 149716, Note_on_c, 2, 69, 127
1, 149717, Note_on_c, 4, 40, 122
1, 149729, Note_off_c, 4, 38, 64
1, 149729, Note_off_c, 4, 50, 64
1, 149730, Note_off_c, 2, 71, 64
1, 149730, Note_off_c, 2, 74, 64
1, 149779, Note_off_c, 4, 64, 64
1, 149792, Note_on_c, 4, 64, 124
1, 149854, Note_off_c, 2, 73, 64
1, 149854, Note_off_c, 2, 69, 64
1, 149855, Note_off_c, 1, 81, 64
1, 149855, Note_off_c, 1, 85, 64
1, 149865, Note_on_c, 1, 85, 127
1, 149866, Note_on_c, 1, 81, 127
1, 149866, Note_on_c, 2, 73, 127
1, 149867, Note_on_c, 2, 69, 127
1, 149928, Note_off_c, 4, 64, 64
1, 149940, Note_on_c, 4, 64, 124
1, 150009, Note_off_c, 2, 69, 64
1, 150023, Note_on_c, 1, 83, 127
1, 150023, Note_on_c, 1, 80, 127
1, 150024, Note_on_c, 2, 71, 127
1, 150024, Note_on_c, 2, 69, 127
1, 150034, Note_off_c, 2, 73, 64
1, 150035, Note_off_c, 1, 85, 64
1, 150035, Note_off_c, 1, 81, 64
1, 150087, Note_off_c, 4, 64, 64
1, 150100, Note_on_c, 4, 64, 124
1, 150162, Note_off_c, 2, 69, 64
1, 150175, Note_on_c, 1, 81, 127
1, 150176, Note_on_c, 2, 69, 127
1, 150188, Note_off_c, 2, 71, 64
1, 150188, Note_off_c, 1, 80, 64
1, 150189, Note_off_c, 1, 83, 64
1, 150239, Note_off_c, 4, 64, 64
1, 150252, Note_on_c, 4, 64, 124
1, 150325, Note_off_c, 4, 52, 64
1, 150325, Note_off_c, 4, 40, 64
1, 150326, Note_on_c, 4, 61, 126
1, 150326, Note_on_c, 4, 57, 124
1, 150333, Note_off_c, 2, 69, 64
1, 150383, Note_off_c, 4, 64, 64
1, 150396, Note_on_c, 4, 64, 124
1, 150475, Note_on_c, 4, 45, 122
1, 150475, Note_on_c, 2, 69, 127
1, 150499, Note_off_c, 4, 57, 64
1, 150499, Note_off_c, 4, 61, 64
1, 150538, Note_off_c, 4, 64, 64
1, 150577, Note_off_c, 1, 81, 64
1, 150617, Note_off_c, 2, 69, 64
1, 150630, Note_on_c, 2, 76, 127
1, 150631, Note_on_c, 4, 57, 124
1, 150714, Note_on_c, 4, 61, 126
1, 150794, Note_on_c, 4, 64, 124
1, 150806, Note_off_c, 4, 61, 64
1, 150862, Note_off_c, 2, 76, 64
1, 150865, Note_on_c, 1, 78, 127
1, 150866, Note_on_c, 4, 61, 126
1, 150880, Note_off_c, 4, 64, 64
1, 150907, Note_on_c, 2, 76, 127
1, 150921, Note_off_c, 1, 78, 64
1, 150945, Note_on_c, 2, 74, 127
1, 150946, Note_on_c, 4, 64, 124
1, 150958, Note_off_c, 2, 76, 64
1, 150958, Note_off_c, 4, 61, 64
1, 150982, Note_on_c, 2, 73, 127
1, 150994, Note_off_c, 2, 74, 64
1, 151020, Note_on_c, 2, 71, 127
1, 151020, Note_on_c, 4, 61, 126
1, 151031, Note_off_c, 2, 73, 64
1, 151031, Note_off_c, 4, 64, 64
1, 151061, Note_on_c, 2, 69, 127
1, 151075, Note_off_c, 2, 71, 64
1, 151098, Note_off_c, 4, 57, 64
1, 151104, Note_on_c, 4, 57, 124
1, 151104, Note_on_c, 2, 77, 127
1, 151170, Note_off_c, 4, 61, 64
1, 151176, Note_off_c, 2, 77, 64
1, 151180, Note_on_c, 1, 78, 127
1, 151180, Note_on_c, 4, 62, 125
1, 151219, Note_off_c, 2, 69, 64
1, 151252, Note_off_c, 1, 78, 64
1, 151257, Note_on_c, 1, 78, 127
1, 151257, Note_on_c, 4, 66, 127
1, 151325, Note_off_c, 4, 62, 64
1, 151334, Note_on_c, 4, 62, 125
1, 151401, Note_off_c, 4, 66, 64
1, 151413, Note_on_c, 4, 66, 127
1, 151478, Note_off_c, 4, 62, 64
1, 151488, Note_on_c, 4, 62, 125
1, 151553, Note_off_c, 1, 78, 64
1, 151555, Note_off_c, 4, 66, 64
1, 151559, Note_off_c, 4, 57, 64
1, 151565, Note_on_c, 4, 57, 124
1, 151565, Note_on_c, 1, 81, 125
1, 151648, Note_off_c, 4, 62, 64
1, 151656, Note_on_c, 1, 80, 125
1, 151656, Note_on_c, 4, 62, 125
1, 151662, Note_off_c, 1, 81, 64
1, 151724, Note_on_c, 1, 83, 125
1, 151725, Note_on_c, 4, 66, 127
1, 151731, Note_off_c, 1, 80, 64
1, 151735, Note_off_c, 4, 62, 64
1, 151808, Note_on_c, 1, 81, 125
1, 151808, Note_on_c, 4, 62, 125
1, 151814, Note_off_c, 1, 83, 64
1, 151818, Note_off_c, 4, 66, 64
1, 151884, Note_on_c, 1, 80, 125
1, 151884, Note_on_c, 4, 66, 127
1, 151892, Note_off_c, 1, 81, 64
1, 151898, Note_off_c, 4, 62, 64
1, 151961, Note_on_c, 1, 78, 125
1, 151962, Note_on_c, 4, 62, 125
1, 151968, Note_off_c, 1, 80, 64
1, 151974, Note_off_c, 4, 66, 64
1, 152031, Note_off_c, 4, 57, 64
1, 152037, Note_on_c, 2, 75, 125
1, 152038, Note_on_c, 4, 57, 124
1, 152046, Note_off_c, 1, 78, 64
1, 152117, Note_on_c, 2, 76, 125
1, 152117, Note_on_c, 4, 61, 126
1, 152125, Note_off_c, 2, 75, 64
1, 152141, Note_off_c, 4, 62, 64
1, 152195, Note_off_c, 2, 76, 64
1, 152198, Note_on_c, 2, 76, 125
1, 152199, Note_on_c, 4, 64, 124
1, 152211, Note_off_c, 4, 61, 64
1, 152275, Note_on_c, 4, 61, 126
1, 152287, Note_off_c, 4, 64, 64
1, 152352, Note_on_c, 4, 64, 124
1, 152365, Note_off_c, 4, 61, 64
1, 152431, Note_off_c, 4, 45, 64
1, 152431, Note_on_c, 4, 61, 126
1, 152445, Note_off_c, 4, 64, 64
1, 152497, Note_off_c, 2, 76, 64
1, 152503, Note_off_c, 4, 57, 64
1, 152510, Note_on_c, 2, 76, 127
1, 152511, Note_on_c, 4, 49, 124
1, 152511, Note_on_c, 4, 45, 122
1, 152579, Note_off_c, 4, 61, 64
1, 152671, Note_on_c, 4, 61, 126
1, 152671, Note_on_c, 4, 57, 124
1, 152747, Note_off_c, 2, 76, 64
1, 152750, Note_on_c, 1, 78, 127
1, 152793, Note_on_c, 2, 76, 127
1, 152802, Note_off_c, 1, 78, 64
1, 152827, Note_on_c, 2, 74, 127
1, 152839, Note_off_c, 2, 76, 64
1, 152866, Note_on_c, 2, 73, 127
1, 152879, Note_off_c, 2, 74, 64
1, 152902, Note_on_c, 2, 71, 127
1, 152916, Note_off_c, 2, 73, 64
1, 152940, Note_on_c, 2, 69, 127
1, 152954, Note_off_c, 2, 71, 64
1, 152979, Note_off_c, 4, 45, 64
1, 152979, Note_off_c, 4, 49, 64
1, 152980, Note_on_c, 4, 50, 124
1, 152980, Note_on_c, 2, 76, 127
1, 152981, Note_on_c, 4, 47, 122
1, 152993, Note_off_c, 2, 69, 64
1, 153055, Note_off_c, 2, 76, 64
1, 153060, Note_on_c, 2, 74, 127
1, 153137, Note_off_c, 4, 57, 64
1, 153138, Note_off_c, 4, 61, 64
1, 153138, Note_on_c, 4, 62, 125
1, 153139, Note_on_c, 4, 59, 126
1, 153212, Note_off_c, 2, 74, 64
1, 153214, Note_on_c, 2, 76, 127
1, 153256, Note_on_c, 2, 74, 127
1, 153270, Note_off_c, 2, 76, 64
1, 153286, Note_on_c, 2, 73, 127
1, 153299, Note_off_c, 2, 74, 64
1, 153316, Note_on_c, 2, 71, 127
1, 153331, Note_off_c, 2, 73, 64
1, 153351, Note_on_c, 2, 69, 127
1, 153370, Note_off_c, 2, 71, 64
1, 153387, Note_off_c, 2, 69, 64
1, 153391, Note_on_c, 2, 69, 127
1, 153431, Note_off_c, 2, 69, 64
1, 153435, Note_on_c, 2, 69, 127
1, 153436, Note_on_c, 4, 64, 124
1, 153436, Note_on_c, 4, 61, 126
1, 153442, Note_off_c, 4, 62, 64
1, 153442, Note_off_c, 4, 59, 64
1, 153593, Note_off_c, 2, 69, 64
1, 153607, Note_off_c, 4, 50, 64
1, 153608, Note_on_c, 2, 69, 127
1, 153608, Note_on_c, 4, 62, 125
1, 153608, Note_on_c, 4, 59, 126
1, 153628, Note_off_c, 4, 61, 64
1, 153628, Note_off_c, 4, 64, 64
1, 153760, Note_off_c, 2, 69, 64
1, 153771, Note_off_c, 4, 47, 64
1, 153772, Note_on_c, 2, 69, 127
1, 153772, Note_on_c, 4, 61, 126
1, 153773, Note_on_c, 4, 57, 124
1, 153791, Note_off_c, 4, 59, 64
1, 153791, Note_off_c, 4, 62, 64
1, 153926, Note_off_c, 2, 69, 64
1, 153933, Note_off_c, 4, 57, 64
1, 153934, Note_off_c, 4, 61, 64
1, 153938, Note_on_c, 2, 73, 127
1, 153939, Note_on_c, 2, 69, 127
1, 153939, Note_on_c, 4, 64, 124
1, 153940, Note_on_c, 4, 61, 126
1, 153940, Note_on_c, 4, 57, 124
1, 153941, Note_on_c, 4, 52, 124
1, 154257, Note_on_c, 2, 71, 127
1, 154258, Note_on_c, 4, 59, 126
1, 154260, Note_off_c, 4, 52, 64
1, 154260, Note_on_c, 2, 68, 127
1, 154260, Note_on_c, 4, 56, 124
1, 154261, Note_off_c, 4, 57, 64
1, 154261, Note_off_c, 4, 61, 64
1, 154262, Note_off_c, 4, 64, 64
1, 154262, Note_off_c, 2, 69, 64
1, 154263, Note_off_c, 2, 73, 64
1, 154416, Note_on_c, 4, 57, 124
1, 154416, Note_on_c, 4, 45, 122
1, 154416, Note_on_c, 2, 73, 127
1, 154417, Note_on_c, 2, 69, 127
1, 154429, Note_off_c, 2, 71, 64
1, 154429, Note_off_c, 4, 59, 64
1, 154432, Note_off_c, 4, 56, 64
1, 154432, Note_off_c, 2, 68, 64
1, 154496, Note_on_c, 4, 64, 124
1, 154558, Note_off_c, 2, 73, 64
1, 154561, Note_off_c, 2, 69, 64
1, 154571, Note_on_c, 1, 85, 125
1, 154572, Note_on_c, 1, 81, 125
1, 154572, Note_on_c, 2, 73, 127
1, 154572, Note_on_c, 2, 69, 127
1, 154634, Note_off_c, 4, 64, 64
1, 154648, Note_on_c, 4, 64, 124
1, 154728, Note_on_c, 1, 86, 125
1, 154728, Note_on_c, 1, 83, 125
1, 154728, Note_on_c, 2, 74, 127
1, 154729, Note_on_c, 2, 71, 127
1, 154741, Note_off_c, 2, 73, 64
1, 154741, Note_off_c, 1, 81, 64
1, 154742, Note_off_c, 2, 69, 64
1, 154742, Note_off_c, 1, 85, 64
1, 154797, Note_off_c, 4, 64, 64
1, 154810, Note_on_c, 4, 64, 124
1, 154889, Note_on_c, 1, 88, 125
1, 154889, Note_on_c, 1, 85, 125
1, 154890, Note_on_c, 2, 76, 127
1, 154890, Note_on_c, 2, 73, 127
1, 154902, Note_off_c, 2, 71, 64
1, 154903, Note_off_c, 2, 74, 64
1, 154903, Note_off_c, 1, 83, 64
1, 154904, Note_off_c, 1, 86, 64
1, 154954, Note_off_c, 4, 64, 64
1, 154967, Note_on_c, 4, 64, 124
1, 155041, Note_on_c, 1, 86, 125
1, 155042, Note_on_c, 1, 83, 125
1, 155042, Note_on_c, 2, 74, 127
1, 155043, Note_on_c, 2, 71, 127
1, 155055, Note_off_c, 2, 73, 64
1, 155055, Note_off_c, 2, 76, 64
1, 155056, Note_off_c, 1, 85, 64
1, 155056, Note_off_c, 1, 88, 64
1, 155109, Note_off_c, 4, 64, 64
1, 155123, Note_on_c, 4, 64, 124
1, 155202, Note_on_c, 1, 85, 125
1, 155203, Note_on_c, 1, 81, 125
1, 155203, Note_on_c, 2, 73, 127
1, 155204, Note_on_c, 2, 69, 127
1, 155215, Note_off_c, 2, 71, 64
1, 155216, Note_off_c, 2, 74, 64
1, 155216, Note_off_c, 1, 83, 64
1, 155217, Note_off_c, 1, 86, 64
1, 155267, Note_off_c, 4, 64, 64
1, 155281, Note_on_c, 4, 64, 124
1, 155337, Note_off_c, 4, 45, 64
1, 155338, Note_off_c, 4, 57, 64
1, 155357, Note_off_c, 2, 69, 64
1, 155363, Note_on_c, 2, 71, 127
1, 155364, Note_on_c, 4, 52, 124
1, 155364, Note_on_c, 4, 40, 122
1, 155364, Note_on_c, 2, 69, 127
1, 155377, Note_off_c, 2, 73, 64
1, 155435, Note_off_c, 4, 64, 64
1, 155450, Note_off_c, 1, 85, 64
1, 155450, Note_off_c, 1, 81, 64
1, 155450, Note_on_c, 4, 64, 124
1, 155516, Note_off_c, 2, 69, 64
1, 155516, Note_off_c, 2, 71, 64
1, 155526, Note_on_c, 1, 83, 125
1, 155527, Note_on_c, 1, 80, 125
1, 155527, Note_on_c, 2, 71, 127
1, 155528, Note_on_c, 2, 69, 127
1, 155588, Note_off_c, 4, 64, 64
1, 155601, Note_on_c, 4, 64, 124
1, 155669, Note_off_c, 2, 69, 64
1, 155682, Note_on_c, 1, 85, 125
1, 155682, Note_on_c, 1, 81, 125
1, 155683, Note_on_c, 2, 73, 127
1, 155683, Note_on_c, 2, 69, 127
1, 155695, Note_off_c, 2, 71, 64
1, 155696, Note_off_c, 1, 80, 64
1, 155696, Note_off_c, 1, 83, 64
1, 155747, Note_off_c, 4, 64, 64
1, 155760, Note_on_c, 4, 64, 124
1, 155841, Note_on_c, 1, 86, 125
1, 155841, Note_on_c, 1, 83, 125
1, 155841, Note_on_c, 2, 74, 127
1, 155842, Note_on_c, 2, 71, 127
1, 155854, Note_off_c, 2, 69, 64
1, 155855, Note_off_c, 1, 81, 64
1, 155855, Note_off_c, 1, 85, 64
1, 155855, Note_off_c, 2, 73, 64
1, 155906, Note_off_c, 4, 64, 64
1, 155919, Note_on_c, 4, 64, 124
1, 155994, Note_on_c, 1, 85, 125
1, 155995, Note_on_c, 1, 81, 125
1, 155995, Note_on_c, 2, 73, 127
1, 155995, Note_on_c, 2, 69, 127
1, 156006, Note_off_c, 2, 74, 64
1, 156006, Note_off_c, 2, 71, 64
1, 156007, Note_off_c, 1, 83, 64
1, 156007, Note_off_c, 1, 86, 64
1, 156056, Note_off_c, 4, 64, 64
1, 156069, Note_on_c, 4, 64, 124
1, 156132, Note_off_c, 2, 69, 64
1, 156146, Note_on_c, 1, 83, 125
1, 156146, Note_on_c, 1, 80, 125
1, 156147, Note_on_c, 2, 71, 127
1, 156147, Note_on_c, 2, 69, 127
1, 156159, Note_off_c, 2, 73, 64
1, 156160, Note_off_c, 1, 85, 64
1, 156160, Note_off_c, 1, 81, 64
1, 156210, Note_off_c, 4, 64, 64
1, 156224, Note_on_c, 4, 64, 124
1, 156276, Note_off_c, 4, 40, 64
1, 156276, Note_off_c, 4, 52, 64
1, 156288, Note_off_c, 2, 69, 64
1, 156294, Note_off_c, 4, 64, 64
1, 156301, Note_on_c, 2, 69, 127
1, 156302, Note_on_c, 4, 57, 124
1, 156302, Note_on_c, 4, 64, 124
1, 156303, Note_on_c, 4, 45, 122
1, 156380, Note_on_c, 4, 61, 126
1, 156407, Note_off_c, 1, 80, 64
1, 156408, Note_off_c, 1, 83, 64
1, 156443, Note_off_c, 4, 64, 64
1, 156443, Note_off_c, 2, 69, 64
1, 156447, Note_off_c, 2, 71, 64
1, 156455, Note_on_c, 1, 81, 125
1, 156456, Note_on_c, 2, 73, 127
1, 156456, Note_on_c, 2, 69, 127
1, 156456, Note_on_c, 4, 64, 124
1, 156524, Note_off_c, 4, 61, 64
1, 156538, Note_on_c, 4, 61, 126
1, 156601, Note_off_c, 4, 64, 64
1, 156601, Note_off_c, 2, 69, 64
1, 156615, Note_on_c, 1, 83, 125
1, 156616, Note_on_c, 2, 76, 127
1, 156616, Note_on_c, 2, 71, 127
1, 156617, Note_on_c, 2, 69, 127
1, 156631, Note_off_c, 1, 81, 64
1, 156631, Note_off_c, 2, 73, 64
1, 156701, Note_on_c, 4, 64, 124
1, 156720, Note_off_c, 4, 61, 64
1, 156766, Note_off_c, 2, 69, 64
1, 156778, Note_on_c, 1, 85, 125
1, 156778, Note_on_c, 1, 81, 125
1, 156779, Note_on_c, 2, 73, 127
1, 156779, Note_on_c, 2, 69, 127
1, 156789, Note_off_c, 2, 71, 64
1, 156790, Note_off_c, 1, 83, 64
1, 156790, Note_off_c, 2, 76, 64
1, 156839, Note_off_c, 4, 64, 64
1, 156851, Note_on_c, 4, 64, 124
1, 156916, Note_off_c, 2, 69, 64
1, 156916, Note_off_c, 2, 73, 64
1, 156930, Note_off_c, 4, 45, 64
1, 156931, Note_off_c, 4, 57, 64
1, 156931, Note_on_c, 2, 73, 127
1, 156932, Note_on_c, 2, 69, 127
1, 156932, Note_on_c, 4, 54, 124
1, 156933, Note_on_c, 4, 42, 122
1, 156995, Note_off_c, 4, 64, 64
1, 157008, Note_on_c, 4, 64, 124
1, 157091, Note_on_c, 2, 74, 127
1, 157091, Note_on_c, 2, 71, 127
1, 157092, Note_on_c, 4, 50, 124
1, 157092, Note_on_c, 4, 38, 122
1, 157104, Note_off_c, 4, 54, 64
1, 157104, Note_off_c, 4, 42, 64
1, 157105, Note_off_c, 2, 73, 64
1, 157105, Note_off_c, 2, 69, 64
1, 157156, Note_off_c, 4, 64, 64
1, 157169, Note_on_c, 4, 64, 124
1, 157248, Note_off_c, 1, 81, 64
1, 157248, Note_off_c, 1, 85, 64
1, 157249, Note_on_c, 2, 73, 127
1, 157249, Note_on_c, 2, 69, 127
1, 157250, Note_on_c, 4, 52, 124
1, 157250, Note_on_c, 4, 40, 122
1, 157262, Note_off_c, 4, 38, 64
1, 157263, Note_off_c, 2, 71, 64
1, 157263, Note_off_c, 4, 50, 64
1, 157264, Note_off_c, 2, 74, 64
1, 157322, Note_off_c, 4, 64, 64
1, 157333, Note_on_c, 4, 64, 124
1, 157397, Note_off_c, 2, 69, 64
1, 157397, Note_off_c, 2, 73, 64
1, 157411, Note_on_c, 1, 85, 125
1, 157412, Note_on_c, 1, 81, 125
1, 157412, Note_on_c, 2, 73, 127
1, 157413, Note_on_c, 2, 69, 127
1, 157476, Note_off_c, 4, 64, 64
1, 157492, Note_on_c, 4, 64, 124
1, 157553, Note_off_c, 2, 69, 64
1, 157567, Note_on_c, 1, 80, 125
1, 157567, Note_on_c, 2, 71, 127
1, 157568, Note_on_c, 2, 69, 127
1, 157576, Note_off_c, 2, 73, 64
1, 157576, Note_off_c, 1, 81, 64
1, 157577, Note_off_c, 1, 85, 64
1, 157627, Note_off_c, 4, 64, 64
1, 157641, Note_on_c, 4, 64, 124
1, 157704, Note_off_c, 2, 71, 64
1, 157704, Note_off_c, 2, 69, 64
1, 157713, Note_off_c, 1, 80, 64
1, 157716, Note_on_c, 1, 83, 125
1, 157717, Note_on_c, 1, 80, 125
1, 157717, Note_on_c, 2, 71, 127
1, 157718, Note_on_c, 2, 69, 127
1, 157786, Note_off_c, 4, 64, 64
1, 157800, Note_on_c, 4, 64, 124
1, 157871, Note_off_c, 2, 69, 64
1, 157883, Note_on_c, 1, 84, 125
1, 157883, Note_on_c, 2, 72, 127
1, 157884, Note_on_c, 2, 69, 127
1, 157896, Note_off_c, 2, 71, 64
1, 157896, Note_off_c, 1, 83, 64
1, 157946, Note_off_c, 4, 64, 64
1, 157958, Note_on_c, 4, 64, 124
1, 158023, Note_off_c, 2, 69, 64
1, 158024, Note_off_c, 1, 80, 64
1, 158036, Note_on_c, 1, 85, 125
1, 158036, Note_on_c, 1, 81, 125
1, 158037, Note_on_c, 2, 73, 127
1, 158037, Note_on_c, 2, 69, 127
1, 158049, Note_off_c, 2, 72, 64
1, 158049, Note_off_c, 1, 84, 64
1, 158100, Note_off_c, 4, 64, 64
1, 158113, Note_on_c, 4, 64, 124
1, 158188, Note_off_c, 2, 69, 64
1, 158188, Note_off_c, 2, 73, 64
1, 158202, Note_off_c, 4, 40, 64
1, 158203, Note_off_c, 4, 52, 64
1, 158203, Note_on_c, 2, 73, 127
1, 158204, Note_on_c, 4, 57, 124
1, 158204, Note_on_c, 2, 69, 127
1, 158205, Note_on_c, 4, 45, 122
1, 158269, Note_off_c, 4, 64, 64
1, 158282, Note_on_c, 4, 64, 124
1, 158350, Note_off_c, 2, 69, 64
1, 158350, Note_off_c, 2, 73, 64
1, 158354, Note_off_c, 1, 81, 64
1, 158354, Note_off_c, 1, 85, 64
1, 158363, Note_on_c, 1, 85, 125
1, 158364, Note_on_c, 1, 81, 125
1, 158364, Note_on_c, 2, 73, 127
1, 158364, Note_on_c, 2, 69, 127
1, 158428, Note_off_c, 4, 64, 64
1, 158444, Note_on_c, 4, 64, 124
1, 158526, Note_on_c, 1, 86, 125
1, 158527, Note_on_c, 1, 83, 125
1, 158527, Note_on_c, 2, 74, 127
1, 158528, Note_on_c, 2, 71, 127
1, 158540, Note_off_c, 2, 69, 64
1, 158540, Note_off_c, 2, 73, 64
1, 158541, Note_off_c, 1, 85, 64
1, 158541, Note_off_c, 1, 81, 64
1, 158593, Note_off_c, 4, 64, 64
1, 158607, Note_on_c, 4, 64, 124
1, 158684, Note_on_c, 1, 88, 125
1, 158684, Note_on_c, 1, 85, 125
1, 158685, Note_on_c, 2, 76, 127
1, 158685, Note_on_c, 2, 73, 127
1, 158697, Note_off_c, 2, 71, 64
1, 158698, Note_off_c, 2, 74, 64
1, 158698, Note_off_c, 1, 83, 64
1, 158699, Note_off_c, 1, 86, 64
1, 158760, Note_on_c, 2, 69, 127
1, 158777, Note_off_c, 4, 64, 64
1, 158808, Note_off_c, 4, 57, 64
1, 158808, Note_off_c, 4, 45, 64
1, 158820, Note_off_c, 2, 73, 64
1, 158820, Note_off_c, 2, 76, 64
1, 158834, Note_on_c, 2, 76, 127
1, 158835, Note_on_c, 2, 73, 127
1, 158835, Note_on_c, 4, 57, 124
1, 158836, Note_on_c, 4, 45, 122
1, 158898, Note_off_c, 2, 69, 64
1, 158909, Note_on_c, 2, 69, 127
1, 158978, Note_off_c, 2, 73, 64
1, 158990, Note_on_c, 1, 78, 127
1, 158990, Note_on_c, 2, 74, 127
1, 158991, Note_on_c, 4, 50, 124
1, 158991, Note_on_c, 4, 38, 122
1, 159003, Note_off_c, 4, 45, 64
1, 159004, Note_off_c, 2, 76, 64
1, 159004, Note_off_c, 4, 57, 64
1, 159053, Note_off_c, 2, 69, 64
1, 159068, Note_on_c, 2, 69, 127
1, 159133, Note_off_c, 2, 69, 64
1, 159141, Note_on_c, 2, 73, 127
1, 159141, Note_on_c, 2, 69, 127
1, 159142, Note_on_c, 4, 40, 122
1, 159142, Note_on_c, 4, 52, 124
1, 159154, Note_off_c, 4, 38, 64
1, 159155, Note_off_c, 2, 74, 64
1, 159155, Note_off_c, 4, 50, 64
1, 159156, Note_off_c, 1, 78, 64
1, 159219, Note_on_c, 4, 64, 124
1, 159287, Note_off_c, 2, 69, 64
1, 159287, Note_off_c, 2, 73, 64
1, 159293, Note_off_c, 1, 85, 64
1, 159294, Note_off_c, 1, 88, 64
1, 159298, Note_on_c, 1, 85, 125
1, 159299, Note_on_c, 1, 81, 125
1, 159299, Note_on_c, 2, 73, 127
1, 159300, Note_on_c, 2, 69, 127
1, 159361, Note_off_c, 4, 64, 64
1, 159375, Note_on_c, 4, 64, 124
1, 159442, Note_off_c, 2, 69, 64
1, 159456, Note_on_c, 1, 83, 125
1, 159456, Note_on_c, 1, 80, 125
1, 159456, Note_on_c, 2, 71, 127
1, 159457, Note_on_c, 2, 69, 127
1, 159467, Note_off_c, 2, 73, 64
1, 159468, Note_off_c, 1, 85, 64
1, 159468, Note_off_c, 1, 81, 64
1, 159516, Note_off_c, 4, 64, 64
1, 159529, Note_on_c, 4, 64, 124
1, 159600, Note_off_c, 2, 69, 64
1, 159617, Note_on_c, 1, 81, 125
1, 159617, Note_on_c, 2, 69, 127
1, 159631, Note_off_c, 2, 71, 64
1, 159632, Note_off_c, 1, 80, 64
1, 159632, Note_off_c, 1, 83, 64
1, 159681, Note_off_c, 4, 64, 64
1, 159693, Note_on_c, 4, 64, 124
1, 159718, Note_off_c, 4, 52, 64
1, 159769, Note_on_c, 4, 61, 126
1, 159770, Note_on_c, 4, 57, 124
1, 159836, Note_off_c, 4, 64, 64
1, 159849, Note_off_c, 4, 40, 64
1, 159850, Note_on_c, 4, 64, 124
1, 159912, Note_off_c, 2, 69, 64
1, 159912, Note_off_c, 4, 61, 64
1, 159924, Note_on_c, 2, 69, 127
1, 159925, Note_on_c, 4, 45, 122
1, 160019, Note_off_c, 1, 81, 64
1, 160057, Note_off_c, 4, 57, 64
1, 160065, Note_off_c, 2, 69, 64
1, 160069, Note_off_c, 4, 64, 64
1, 160069, Note_on_c, 2, 76, 127
1, 160070, Note_on_c, 4, 57, 124
1, 160152, Note_on_c, 4, 61, 126
1, 160235, Note_on_c, 4, 64, 124
1, 160247, Note_off_c, 4, 61, 64
1, 160300, Note_off_c, 2, 76, 64
1, 160305, Note_on_c, 1, 78, 127
1, 160305, Note_on_c, 4, 61, 126
1, 160319, Note_off_c, 4, 64, 64
1, 160347, Note_on_c, 2, 76, 127
1, 160361, Note_off_c, 1, 78, 64
1, 160386, Note_on_c, 2, 74, 127
1, 160386, Note_on_c, 4, 64, 124
1, 160398, Note_off_c, 2, 76, 64
1, 160399, Note_off_c, 4, 61, 64
1, 160422, Note_on_c, 2, 73, 127
1, 160434, Note_off_c, 2, 74, 64
1, 160459, Note_on_c, 2, 71, 127
1, 160460, Note_on_c, 4, 61, 126
1, 160471, Note_off_c, 2, 73, 64
1, 160472, Note_off_c, 4, 64, 64
1, 160500, Note_on_c, 2, 69, 127
1, 160516, Note_off_c, 2, 71, 64
1, 160537, Note_off_c, 4, 57, 64
1, 160546, Note_on_c, 4, 57, 124
1, 160546, Note_on_c, 2, 77, 127
1, 160609, Note_off_c, 4, 61, 64
1, 160615, Note_off_c, 2, 77, 64
1, 160620, Note_on_c, 1, 78, 127
1, 160620, Note_on_c, 4, 62, 125
1, 160659, Note_off_c, 2, 69, 64
1, 160693, Note_off_c, 1, 78, 64
1, 160697, Note_on_c, 1, 78, 127
1, 160698, Note_on_c, 4, 66, 127
1, 160765, Note_off_c, 4, 62, 64
1, 160775, Note_on_c, 4, 62, 125
1, 160842, Note_off_c, 4, 66, 64
1, 160852, Note_on_c, 4, 66, 127
1, 160917, Note_off_c, 4, 62, 64
1, 160927, Note_on_c, 4, 62, 125
1, 160994, Note_off_c, 1, 78, 64
1, 160995, Note_off_c, 4, 66, 64
1, 160999, Note_off_c, 4, 57, 64
1, 161005, Note_on_c, 1, 81, 125
1, 161006, Note_on_c, 4, 57, 124
1, 161088, Note_off_c, 4, 62, 64
1, 161097, Note_on_c, 1, 80, 125
1, 161097, Note_on_c, 4, 62, 125
1, 161101, Note_off_c, 1, 81, 64
1, 161165, Note_on_c, 1, 83, 125
1, 161165, Note_on_c, 4, 66, 127
1, 161169, Note_off_c, 1, 80, 64
1, 161175, Note_off_c, 4, 62, 64
1, 161246, Note_on_c, 1, 81, 125
1, 161247, Note_on_c, 4, 62, 125
1, 161255, Note_off_c, 1, 83, 64
1, 161259, Note_off_c, 4, 66, 64
1, 161324, Note_on_c, 1, 80, 125
1, 161325, Note_on_c, 4, 66, 127
1, 161333, Note_off_c, 1, 81, 64
1, 161339, Note_off_c, 4, 62, 64
1, 161400, Note_on_c, 4, 62, 125
1, 161400, Note_on_c, 1, 78, 125
1, 161409, Note_off_c, 1, 80, 64
1, 161414, Note_off_c, 4, 66, 64
1, 161470, Note_off_c, 4, 57, 64
1, 161478, Note_on_c, 4, 57, 124
1, 161478, Note_on_c, 2, 75, 125
1, 161484, Note_off_c, 1, 78, 64
1, 161558, Note_on_c, 2, 76, 125
1, 161558, Note_on_c, 4, 61, 126
1, 161564, Note_off_c, 2, 75, 64
1, 161581, Note_off_c, 4, 62, 64
1, 161635, Note_off_c, 2, 76, 64
1, 161638, Note_on_c, 2, 76, 125
1, 161638, Note_on_c, 4, 64, 124
1, 161651, Note_off_c, 4, 61, 64
1, 161716, Note_on_c, 4, 61, 126
1, 161728, Note_off_c, 4, 64, 64
1, 161792, Note_on_c, 4, 64, 124
1, 161805, Note_off_c, 4, 61, 64
1, 161870, Note_off_c, 4, 45, 64
1, 161871, Note_on_c, 4, 61, 126
1, 161885, Note_off_c, 4, 64, 64
1, 161937, Note_off_c, 2, 76, 64
1, 161944, Note_off_c, 4, 57, 64
1, 161950, Note_on_c, 2, 76, 127
1, 161951, Note_on_c, 4, 49, 124
1, 161951, Note_on_c, 4, 45, 122
1, 162020, Note_off_c, 4, 61, 64
1, 162110, Note_on_c, 4, 61, 126
1, 162111, Note_on_c, 4, 57, 124
1, 162186, Note_off_c, 2, 76, 64
1, 162191, Note_on_c, 1, 78, 127
1, 162231, Note_on_c, 2, 76, 127
1, 162243, Note_off_c, 1, 78, 64
1, 162267, Note_on_c, 2, 74, 127
1, 162278, Note_off_c, 2, 76, 64
1, 162305, Note_on_c, 2, 73, 127
1, 162319, Note_off_c, 2, 74, 64
1, 162344, Note_on_c, 2, 71, 127
1, 162355, Note_off_c, 2, 73, 64
1, 162380, Note_on_c, 2, 69, 127
1, 162394, Note_off_c, 2, 71, 64
1, 162420, Note_off_c, 4, 45, 64
1, 162421, Note_off_c, 4, 49, 64
1, 162421, Note_on_c, 2, 76, 127
1, 162422, Note_on_c, 4, 47, 122
1, 162422, Note_on_c, 4, 50, 124
1, 162432, Note_off_c, 2, 69, 64
1, 162495, Note_off_c, 2, 76, 64
1, 162499, Note_on_c, 2, 74, 127
1, 162578, Note_off_c, 4, 61, 64
1, 162578, Note_off_c, 4, 57, 64
1, 162579, Note_on_c, 4, 62, 125
1, 162579, Note_on_c, 4, 59, 126
1, 162652, Note_off_c, 2, 74, 64
1, 162656, Note_on_c, 2, 76, 127
1, 162696, Note_on_c, 2, 74, 127
1, 162709, Note_off_c, 2, 76, 64
1, 162725, Note_on_c, 2, 73, 127
1, 162740, Note_off_c, 2, 74, 64
1, 162756, Note_on_c, 2, 71, 127
1, 162771, Note_off_c, 2, 73, 64
1, 162788, Note_on_c, 2, 69, 127
1, 162804, Note_off_c, 2, 71, 64
1, 162823, Note_off_c, 2, 69, 64
1, 162827, Note_on_c, 2, 69, 127
1, 162865, Note_off_c, 2, 69, 64
1, 162869, Note_on_c, 2, 69, 127
1, 162869, Note_on_c, 4, 64, 124
1, 162870, Note_on_c, 4, 61, 126
1, 162874, Note_off_c, 4, 59, 64
1, 162874, Note_off_c, 4, 62, 64
1, 163029, Note_off_c, 2, 69, 64
1, 163042, Note_off_c, 4, 50, 64
1, 163043, Note_on_c, 4, 62, 125
1, 163043, Note_on_c, 4, 59, 126
1, 163043, Note_on_c, 2, 69, 127
1, 163061, Note_off_c, 4, 61, 64
1, 163062, Note_off_c, 4, 64, 64
1, 163194, Note_off_c, 2, 69, 64
1, 163207, Note_off_c, 4, 47, 64
1, 163208, Note_on_c, 2, 69, 127
1, 163208, Note_on_c, 4, 61, 126
1, 163208, Note_on_c, 4, 57, 124
1, 163226, Note_off_c, 4, 59, 64
1, 163226, Note_off_c, 4, 62, 64
1, 163360, Note_off_c, 2, 69, 64
1, 163369, Note_off_c, 4, 57, 64
1, 163369, Note_off_c, 4, 61, 64
1, 163374, Note_on_c, 2, 73, 127
1, 163375, Note_on_c, 2, 69, 127
1, 163375, Note_on_c, 4, 64, 124
1, 163376, Note_on_c, 4, 61, 126
1, 163376, Note_on_c, 4, 57, 124
1, 163376, Note_on_c, 4, 52, 124
1, 163692, Note_on_c, 2, 71, 127
1, 163692, Note_on_c, 4, 59, 126
1, 163695, Note_on_c, 2, 68, 127
1, 163695, Note_on_c, 4, 56, 124
1, 163696, Note_off_c, 4, 52, 64
1, 163696, Note_off_c, 4, 57, 64
1, 163696, Note_off_c, 4, 61, 64
1, 163697, Note_off_c, 4, 64, 64
1, 163697, Note_off_c, 2, 69, 64
1, 163698, Note_off_c, 2, 73, 64
1, 163850, Note_on_c, 2, 73, 127
1, 163851, Note_on_c, 4, 57, 124
1, 163851, Note_on_c, 4, 45, 122
1, 163852, Note_on_c, 2, 69, 127
1, 163864, Note_off_c, 4, 59, 64
1, 163864, Note_off_c, 2, 71, 64
1, 163866, Note_off_c, 4, 56, 64
1, 163866, Note_off_c, 2, 68, 64
1, 163930, Note_on_c, 4, 64, 124
1, 163993, Note_off_c, 2, 73, 64
1, 163995, Note_off_c, 2, 69, 64
1, 164005, Note_on_c, 1, 85, 125
1, 164005, Note_on_c, 1, 81, 125
1, 164006, Note_on_c, 2, 73, 127
1, 164006, Note_on_c, 2, 69, 127
1, 164068, Note_off_c, 4, 64, 64
1, 164082, Note_on_c, 4, 64, 124
1, 164162, Note_on_c, 1, 86, 125
1, 164163, Note_on_c, 1, 83, 125
1, 164163, Note_on_c, 2, 74, 127
1, 164164, Note_on_c, 2, 71, 127
1, 164176, Note_off_c, 1, 81, 64
1, 164176, Note_off_c, 2, 73, 64
1, 164177, Note_off_c, 1, 85, 64
1, 164177, Note_off_c, 2, 69, 64
1, 164232, Note_off_c, 4, 64, 64
1, 164245, Note_on_c, 4, 64, 124
1, 164324, Note_on_c, 1, 88, 125
1, 164324, Note_on_c, 1, 85, 125
1, 164325, Note_on_c, 2, 76, 127
1, 164325, Note_on_c, 2, 73, 127
1, 164337, Note_off_c, 2, 71, 64
1, 164338, Note_off_c, 2, 74, 64
1, 164338, Note_off_c, 1, 83, 64
1, 164339, Note_off_c, 1, 86, 64
1, 164389, Note_off_c, 4, 64, 64
1, 164402, Note_on_c, 4, 64, 124
1, 164477, Note_on_c, 1, 86, 125
1, 164478, Note_on_c, 1, 83, 125
1, 164478, Note_on_c, 2, 74, 127
1, 164479, Note_on_c, 2, 71, 127
1, 164489, Note_off_c, 2, 73, 64
1, 164489, Note_off_c, 2, 76, 64
1, 164490, Note_off_c, 1, 85, 64
1, 164490, Note_off_c, 1, 88, 64
1, 164544, Note_off_c, 4, 64, 64
1, 164557, Note_on_c, 4, 64, 124
1, 164636, Note_on_c, 1, 85, 125
1, 164636, Note_on_c, 1, 81, 125
1, 164637, Note_on_c, 2, 73, 127
1, 164637, Note_on_c, 2, 69, 127
1, 164649, Note_off_c, 2, 71, 64
1, 164650, Note_off_c, 2, 74, 64
1, 164650, Note_off_c, 1, 83, 64
1, 164651, Note_off_c, 1, 86, 64
1, 164703, Note_off_c, 4, 64, 64
1, 164716, Note_on_c, 4, 64, 124
1, 164772, Note_off_c, 4, 45, 64
1, 164772, Note_off_c, 4, 57, 64
1, 164792, Note_off_c, 2, 69, 64
1, 164798, Note_on_c, 2, 71, 127
1, 164798, Note_on_c, 2, 69, 127
1, 164799, Note_on_c, 4, 52, 124
1, 164799, Note_on_c, 4, 40, 122
1, 164811, Note_off_c, 2, 73, 64
1, 164869, Note_off_c, 4, 64, 64
1, 164884, Note_off_c, 1, 81, 64
1, 164885, Note_off_c, 1, 85, 64
1, 164885, Note_on_c, 4, 64, 124
1, 164951, Note_off_c, 2, 69, 64
1, 164951, Note_off_c, 2, 71, 64
1, 164961, Note_on_c, 1, 83, 125
1, 164962, Note_on_c, 1, 80, 125
1, 164962, Note_on_c, 2, 71, 127
1, 164963, Note_on_c, 2, 69, 127
1, 165023, Note_off_c, 4, 64, 64
1, 165036, Note_on_c, 4, 64, 124
1, 165103, Note_off_c, 2, 69, 64
1, 165117, Note_on_c, 1, 85, 125
1, 165117, Note_on_c, 1, 81, 125
1, 165118, Note_on_c, 2, 73, 127
1, 165118, Note_on_c, 2, 69, 127
1, 165131, Note_off_c, 2, 71, 64
1, 165131, Note_off_c, 1, 80, 64
1, 165132, Note_off_c, 1, 83, 64
1, 165181, Note_off_c, 4, 64, 64
1, 165194, Note_on_c, 4, 64, 124
1, 165276, Note_on_c, 1, 86, 125
1, 165276, Note_on_c, 1, 83, 125
1, 165276, Note_on_c, 2, 74, 127
1, 165277, Note_on_c, 2, 71, 127
1, 165289, Note_off_c, 2, 69, 64
1, 165289, Note_off_c, 2, 73, 64
1, 165290, Note_off_c, 1, 81, 64
1, 165290, Note_off_c, 1, 85, 64
1, 165342, Note_off_c, 4, 64, 64
1, 165353, Note_on_c, 4, 64, 124
1, 165428, Note_on_c, 1, 85, 125
1, 165429, Note_on_c, 1, 81, 125
1, 165429, Note_on_c, 2, 73, 127
1, 165430, Note_on_c, 2, 69, 127
1, 165442, Note_off_c, 2, 74, 64
1, 165442, Note_off_c, 1, 83, 64
1, 165442, Note_off_c, 2, 71, 64
1, 165443, Note_off_c, 1, 86, 64
1, 165492, Note_off_c, 4, 64, 64
1, 165503, Note_on_c, 4, 64, 124
1, 165568, Note_off_c, 2, 69, 64
1, 165582, Note_on_c, 1, 83, 125
1, 165582, Note_on_c, 1, 80, 125
1, 165583, Note_on_c, 2, 71, 127
1, 165583, Note_on_c, 2, 69, 127
1, 165593, Note_off_c, 2, 73, 64
1, 165594, Note_off_c, 1, 81, 64
1, 165594, Note_off_c, 1, 85, 64
1, 165645, Note_off_c, 4, 64, 64
1, 165659, Note_on_c, 4, 64, 124
1, 165710, Note_off_c, 4, 40, 64
1, 165711, Note_off_c, 4, 52, 64
1, 165723, Note_off_c, 2, 69, 64
1, 165728, Note_off_c, 4, 64, 64
1, 165736, Note_on_c, 2, 69, 127
1, 165737, Note_on_c, 4, 57, 124
1, 165737, Note_on_c, 4, 64, 124
1, 165738, Note_on_c, 4, 45, 122
1, 165815, Note_on_c, 4, 61, 126
1, 165842, Note_off_c, 1, 80, 64
1, 165842, Note_off_c, 1, 83, 64
1, 165877, Note_off_c, 4, 64, 64
1, 165878, Note_off_c, 2, 69, 64
1, 165882, Note_off_c, 2, 71, 64
1, 165890, Note_on_c, 1, 81, 125
1, 165890, Note_on_c, 2, 73, 127
1, 165891, Note_on_c, 2, 69, 127
1, 165891, Note_on_c, 4, 64, 124
1, 165961, Note_off_c, 4, 61, 64
1, 165972, Note_on_c, 4, 61, 126
1, 166036, Note_off_c, 4, 64, 64
1, 166036, Note_off_c, 2, 69, 64
1, 166052, Note_on_c, 1, 83, 125
1, 166053, Note_on_c, 2, 76, 127
1, 166053, Note_on_c, 2, 71, 127
1, 166054, Note_on_c, 2, 69, 127
1, 166066, Note_off_c, 2, 73, 64
1, 166066, Note_off_c, 1, 81, 64
1, 166136, Note_on_c, 4, 64, 124
1, 166155, Note_off_c, 4, 61, 64
1, 166201, Note_off_c, 2, 69, 64
1, 166212, Note_on_c, 1, 85, 125
1, 166213, Note_on_c, 1, 81, 125
1, 166213, Note_on_c, 2, 73, 127
1, 166214, Note_on_c, 2, 69, 127
1, 166224, Note_off_c, 2, 71, 64
1, 166224, Note_off_c, 2, 76, 64
1, 166225, Note_off_c, 1, 83, 64
1, 166275, Note_off_c, 4, 64, 64
1, 166286, Note_on_c, 4, 64, 124
1, 166350, Note_off_c, 2, 73, 64
1, 166350, Note_off_c, 2, 69, 64
1, 166364, Note_off_c, 4, 45, 64
1, 166365, Note_off_c, 4, 57, 64
1, 166365, Note_on_c, 2, 73, 127
1, 166366, Note_on_c, 2, 69, 127
1, 166366, Note_on_c, 4, 54, 124
1, 166367, Note_on_c, 4, 42, 122
1, 166430, Note_off_c, 4, 64, 64
1, 166444, Note_on_c, 4, 64, 124
1, 166525, Note_on_c, 2, 74, 127
1, 166526, Note_on_c, 2, 71, 127
1, 166526, Note_on_c, 4, 50, 124
1, 166527, Note_on_c, 4, 38, 122
1, 166539, Note_off_c, 4, 42, 64
1, 166539, Note_off_c, 4, 54, 64
1, 166540, Note_off_c, 2, 69, 64
1, 166540, Note_off_c, 2, 73, 64
1, 166591, Note_off_c, 4, 64, 64
1, 166604, Note_on_c, 4, 64, 124
1, 166683, Note_off_c, 1, 85, 64
1, 166683, Note_off_c, 1, 81, 64
1, 166684, Note_on_c, 2, 73, 127
1, 166684, Note_on_c, 2, 69, 127
1, 166685, Note_on_c, 4, 52, 124
1, 166685, Note_on_c, 4, 40, 122
1, 166697, Note_off_c, 4, 38, 64
1, 166698, Note_off_c, 4, 50, 64
1, 166698, Note_off_c, 2, 71, 64
1, 166699, Note_off_c, 2, 74, 64
1, 166757, Note_off_c, 4, 64, 64
1, 166768, Note_on_c, 4, 64, 124
1, 166832, Note_off_c, 2, 69, 64
1, 166832, Note_off_c, 2, 73, 64
1, 166846, Note_on_c, 1, 85, 125
1, 166847, Note_on_c, 1, 81, 125
1, 166847, Note_on_c, 2, 73, 127
1, 166848, Note_on_c, 2, 69, 127
1, 166912, Note_off_c, 4, 64, 64
1, 166928, Note_on_c, 4, 64, 124
1, 166989, Note_off_c, 2, 69, 64
1, 167001, Note_on_c, 1, 80, 125
1, 167001, Note_on_c, 2, 71, 127
1, 167002, Note_on_c, 2, 69, 127
1, 167012, Note_off_c, 2, 73, 64
1, 167013, Note_off_c, 1, 81, 64
1, 167013, Note_off_c, 1, 85, 64
1, 167063, Note_off_c, 4, 64, 64
1, 167075, Note_on_c, 4, 64, 124
1, 167140, Note_off_c, 2, 71, 64
1, 167140, Note_off_c, 2, 69, 64
1, 167147, Note_off_c, 1, 80, 64
1, 167150, Note_on_c, 1, 83, 125
1, 167151, Note_on_c, 1, 80, 125
1, 167151, Note_on_c, 2, 71, 127
1, 167152, Note_on_c, 2, 69, 127
1, 167221, Note_off_c, 4, 64, 64
1, 167235, Note_on_c, 4, 64, 124
1, 167306, Note_off_c, 2, 69, 64
1, 167318, Note_on_c, 1, 84, 125
1, 167318, Note_on_c, 2, 72, 127
1, 167319, Note_on_c, 2, 69, 127
1, 167330, Note_off_c, 1, 83, 64
1, 167330, Note_off_c, 2, 71, 64
1, 167381, Note_off_c, 4, 64, 64
1, 167393, Note_on_c, 4, 64, 124
1, 167458, Note_off_c, 2, 69, 64
1, 167458, Note_off_c, 1, 80, 64
1, 167471, Note_on_c, 1, 85, 125
1, 167471, Note_on_c, 1, 81, 125
1, 167471, Note_on_c, 2, 73, 127
1, 167472, Note_on_c, 2, 69, 127
1, 167484, Note_off_c, 2, 72, 64
1, 167484, Note_off_c, 1, 84, 64
1, 167535, Note_off_c, 4, 64, 64
1, 167548, Note_on_c, 4, 64, 124
1, 167623, Note_off_c, 2, 73, 64
1, 167623, Note_off_c, 2, 69, 64
1, 167638, Note_off_c, 4, 40, 64
1, 167638, Note_off_c, 4, 52, 64
1, 167638, Note_on_c, 2, 73, 127
1, 167639, Note_on_c, 4, 57, 124
1, 167639, Note_on_c, 2, 69, 127
1, 167640, Note_on_c, 4, 45, 122
1, 167704, Note_off_c, 4, 64, 64
1, 167717, Note_on_c, 4, 64, 124
1, 167784, Note_off_c, 2, 69, 64
1, 167785, Note_off_c, 2, 73, 64
1, 167789, Note_off_c, 1, 81, 64
1, 167789, Note_off_c, 1, 85, 64
1, 167798, Note_on_c, 1, 85, 125
1, 167798, Note_on_c, 1, 81, 125
1, 167798, Note_on_c, 2, 73, 127
1, 167799, Note_on_c, 2, 69, 127
1, 167863, Note_off_c, 4, 64, 64
1, 167879, Note_on_c, 4, 64, 124
1, 167961, Note_on_c, 1, 86, 125
1, 167962, Note_on_c, 1, 83, 125
1, 167962, Note_on_c, 2, 74, 127
1, 167963, Note_on_c, 2, 71, 127
1, 167975, Note_off_c, 2, 69, 64
1, 167975, Note_off_c, 2, 73, 64
1, 167976, Note_off_c, 1, 81, 64
1, 167976, Note_off_c, 1, 85, 64
1, 168028, Note_off_c, 4, 64, 64
1, 168042, Note_on_c, 4, 64, 124
1, 168119, Note_on_c, 1, 88, 125
1, 168119, Note_on_c, 1, 85, 125
1, 168120, Note_on_c, 2, 76, 127
1, 168120, Note_on_c, 2, 73, 127
1, 168132, Note_off_c, 2, 74, 64
1, 168132, Note_off_c, 2, 71, 64
1, 168133, Note_off_c, 1, 86, 64
1, 168133, Note_off_c, 1, 83, 64
1, 168193, Note_on_c, 2, 69, 127
1, 168210, Note_off_c, 4, 64, 64
1, 168243, Note_off_c, 4, 45, 64
1, 168244, Note_off_c, 4, 57, 64
1, 168256, Note_off_c, 2, 73, 64
1, 168256, Note_off_c, 2, 76, 64
1, 168268, Note_on_c, 2, 76, 127
1, 168269, Note_on_c, 2, 73, 127
1, 168269, Note_on_c, 4, 57, 124
1, 168270, Note_on_c, 4, 45, 122
1, 168332, Note_off_c, 2, 69, 64
1, 168345, Note_on_c, 2, 69, 127
1, 168413, Note_off_c, 2, 73, 64
1, 168425, Note_on_c, 1, 78, 127
1, 168425, Note_on_c, 2, 74, 127
1, 168426, Note_on_c, 4, 50, 124
1, 168426, Note_on_c, 4, 38, 122
1, 168438, Note_off_c, 4, 45, 64
1, 168439, Note_off_c, 4, 57, 64
1, 168439, Note_off_c, 2, 76, 64
1, 168489, Note_off_c, 2, 69, 64
1, 168503, Note_on_c, 2, 69, 127
1, 168568, Note_off_c, 2, 69, 64
1, 168576, Note_on_c, 4, 52, 124
1, 168576, Note_on_c, 2, 73, 127
1, 168576, Note_on_c, 2, 69, 127
1, 168577, Note_on_c, 4, 40, 122
1, 168589, Note_off_c, 4, 38, 64
1, 168589, Note_off_c, 4, 50, 64
1, 168590, Note_off_c, 2, 74, 64
1, 168590, Note_off_c, 1, 78, 64
1, 168654, Note_on_c, 4, 64, 124
1, 168721, Note_off_c, 2, 69, 64
1, 168722, Note_off_c, 2, 73, 64
1, 168728, Note_off_c, 1, 85, 64
1, 168729, Note_off_c, 1, 88, 64
1, 168733, Note_on_c, 1, 85, 125
1, 168733, Note_on_c, 1, 81, 125
1, 168734, Note_on_c, 2, 73, 127
1, 168734, Note_on_c, 2, 69, 127
1, 168796, Note_off_c, 4, 64, 64
1, 168810, Note_on_c, 4, 64, 124
1, 168877, Note_off_c, 2, 69, 64
1, 168890, Note_on_c, 1, 83, 125
1, 168891, Note_on_c, 1, 80, 125
1, 168891, Note_on_c, 2, 71, 127
1, 168892, Note_on_c, 2, 69, 127
1, 168902, Note_off_c, 2, 73, 64
1, 168902, Note_off_c, 1, 81, 64
1, 168903, Note_off_c, 1, 85, 64
1, 168952, Note_off_c, 4, 64, 64
1, 168963, Note_on_c, 4, 64, 124
1, 169036, Note_off_c, 2, 69, 64
1, 169052, Note_on_c, 1, 81, 125
1, 169052, Note_on_c, 2, 69, 127
1, 169066, Note_off_c, 2, 71, 64
1, 169067, Note_off_c, 1, 83, 64
1, 169067, Note_off_c, 1, 80, 64
1, 169117, Note_off_c, 4, 64, 64
1, 169128, Note_on_c, 4, 64, 124
1, 169152, Note_off_c, 4, 52, 64
1, 169203, Note_on_c, 4, 61, 126
1, 169204, Note_on_c, 4, 57, 124
1, 169272, Note_off_c, 4, 64, 64
1, 169285, Note_off_c, 4, 40, 64
1, 169286, Note_on_c, 4, 64, 124
1, 169347, Note_off_c, 4, 61, 64
1, 169348, Note_off_c, 2, 69, 64
1, 169360, Note_on_c, 4, 45, 122
1, 169360, Note_on_c, 2, 69, 127
1, 169453, Note_off_c, 1, 81, 64
1, 169492, Note_off_c, 4, 57, 64
1, 169501, Note_off_c, 2, 69, 64
1, 169505, Note_off_c, 4, 64, 64
1, 169505, Note_on_c, 2, 73, 127
1, 169506, Note_on_c, 4, 57, 124
1, 169560, Note_on_c, 4, 64, 124
1, 169608, Note_on_c, 4, 61, 126
1, 169621, Note_off_c, 4, 57, 64
1, 169634, Note_off_c, 4, 64, 64
1, 169652, Note_on_c, 4, 64, 124
1, 169682, Note_off_c, 4, 61, 64
1, 169692, Note_off_c, 2, 73, 64
1, 169696, Note_on_c, 2, 73, 127
1, 169696, Note_on_c, 4, 57, 124
1, 169726, Note_off_c, 4, 64, 64
1, 169743, Note_on_c, 4, 64, 124
1, 169793, Note_on_c, 4, 61, 126
1, 169809, Note_off_c, 4, 57, 64
1, 169824, Note_off_c, 4, 64, 64
1, 169837, Note_on_c, 4, 64, 124
1, 169868, Note_off_c, 4, 61, 64
1, 169883, Note_on_c, 4, 57, 124
1, 169912, Note_off_c, 4, 64, 64
1, 169927, Note_on_c, 4, 64, 124
1, 169966, Note_off_c, 2, 73, 64
1, 169970, Note_on_c, 2, 74, 127
1, 169970, Note_on_c, 4, 59, 126
1, 169986, Note_off_c, 4, 57, 64
1, 170000, Note_off_c, 4, 64, 64
1, 170013, Note_on_c, 4, 64, 124
1, 170057, Note_on_c, 1, 78, 127
1, 170057, Note_on_c, 4, 61, 126
1, 170064, Note_off_c, 2, 74, 64
1, 170070, Note_off_c, 4, 59, 64
1, 170087, Note_off_c, 4, 64, 64
1, 170102, Note_on_c, 4, 64, 124
1, 170131, Note_off_c, 4, 61, 64
1, 170147, Note_on_c, 2, 76, 127
1, 170147, Note_on_c, 4, 57, 124
1, 170155, Note_off_c, 1, 78, 64
1, 170178, Note_off_c, 4, 64, 64
1, 170194, Note_on_c, 4, 64, 124
1, 170240, Note_on_c, 4, 61, 126
1, 170257, Note_off_c, 4, 57, 64
1, 170270, Note_off_c, 4, 64, 64
1, 170286, Note_on_c, 4, 64, 124
1, 170314, Note_off_c, 4, 61, 64
1, 170314, Note_off_c, 2, 76, 64
1, 170331, Note_on_c, 2, 76, 127
1, 170331, Note_on_c, 4, 57, 124
1, 170361, Note_off_c, 4, 64, 64
1, 170374, Note_on_c, 4, 64, 124
1, 170401, Note_off_c, 2, 76, 64
1, 170416, Note_on_c, 1, 78, 127
1, 170417, Note_on_c, 4, 61, 126
1, 170431, Note_off_c, 4, 57, 64
1, 170448, Note_off_c, 4, 64, 64
1, 170463, Note_on_c, 2, 76, 127
1, 170464, Note_on_c, 4, 64, 124
1, 170468, Note_off_c, 1, 78, 64
1, 170487, Note_off_c, 4, 61, 64
1, 170499, Note_on_c, 2, 74, 127
1, 170499, Note_on_c, 4, 57, 124
1, 170504, Note_off_c, 2, 76, 64
1, 170526, Note_off_c, 4, 64, 64
1, 170539, Note_on_c, 2, 73, 127
1, 170540, Note_on_c, 4, 64, 124
1, 170545, Note_off_c, 2, 74, 64
1, 170577, Note_off_c, 2, 73, 64
1, 170582, Note_on_c, 2, 73, 127
1, 170583, Note_on_c, 4, 56, 124
1, 170597, Note_off_c, 4, 57, 64
1, 170610, Note_off_c, 4, 64, 64
1, 170624, Note_on_c, 4, 64, 124
1, 170666, Note_off_c, 2, 73, 64
1, 170672, Note_on_c, 2, 71, 127
1, 170672, Note_on_c, 4, 63, 124
1, 170700, Note_off_c, 4, 64, 64
1, 170715, Note_on_c, 4, 64, 124
1, 170748, Note_off_c, 4, 63, 64
1, 170759, Note_off_c, 2, 71, 64
1, 170760, Note_off_c, 4, 56, 64
1, 170762, Note_on_c, 2, 71, 127
1, 170762, Note_on_c, 4, 56, 124
1, 170795, Note_off_c, 4, 64, 64
1, 170810, Note_on_c, 4, 64, 124
1, 170856, Note_on_c, 4, 63, 124
1, 170887, Note_off_c, 4, 64, 64
1, 170900, Note_on_c, 4, 64, 124
1, 170927, Note_off_c, 4, 63, 64
1, 170937, Note_off_c, 4, 56, 64
1, 170942, Note_on_c, 4, 56, 124
1, 170971, Note_off_c, 4, 64, 64
1, 170987, Note_on_c, 4, 64, 124
1, 171028, Note_off_c, 2, 71, 64
1, 171034, Note_on_c, 2, 73, 127
1, 171034, Note_on_c, 4, 57, 124
1, 171048, Note_off_c, 4, 56, 64
1, 171064, Note_off_c, 4, 64, 64
1, 171079, Note_on_c, 4, 64, 124
1, 171122, Note_off_c, 2, 73, 64
1, 171124, Note_on_c, 2, 76, 127
1, 171124, Note_on_c, 4, 58, 124
1, 171138, Note_off_c, 4, 57, 64
1, 171154, Note_off_c, 4, 64, 64
1, 171167, Note_on_c, 4, 64, 124
1, 171211, Note_on_c, 4, 63, 124
1, 171242, Note_off_c, 4, 64, 64
1, 171255, Note_on_c, 4, 64, 124
1, 171284, Note_off_c, 4, 63, 64
1, 171294, Note_off_c, 4, 58, 64
1, 171294, Note_off_c, 2, 76, 64
1, 171299, Note_on_c, 2, 74, 127
1, 171299, Note_on_c, 4, 59, 126
1, 171326, Note_off_c, 4, 64, 64
1, 171340, Note_on_c, 4, 64, 124
1, 171382, Note_on_c, 4, 63, 124
1, 171392, Note_off_c, 2, 74, 64
1, 171411, Note_off_c, 4, 64, 64
1, 171424, Note_on_c, 2, 74, 127
1, 171425, Note_on_c, 4, 64, 124
1, 171454, Note_off_c, 4, 63, 64
1, 171466, Note_off_c, 4, 59, 64
1, 171469, Note_off_c, 2, 74, 64
1, 171470, Note_on_c, 2, 76, 127
1, 171470, Note_on_c, 4, 56, 124
1, 171499, Note_off_c, 4, 64, 64
1, 171515, Note_off_c, 2, 76, 64
1, 171515, Note_on_c, 2, 74, 127
1, 171516, Note_on_c, 4, 64, 124
1, 171558, Note_off_c, 2, 74, 64
1, 171558, Note_on_c, 2, 73, 127
1, 171559, Note_on_c, 4, 52, 124
1, 171572, Note_off_c, 4, 56, 64
1, 171586, Note_off_c, 4, 64, 64
1, 171599, Note_off_c, 2, 73, 64
1, 171600, Note_on_c, 2, 71, 127
1, 171600, Note_on_c, 4, 64, 124
1, 171636, Note_off_c, 2, 71, 64
1, 171640, Note_on_c, 2, 71, 127
1, 171641, Note_on_c, 4, 54, 124
1, 171659, Note_off_c, 4, 52, 64
1, 171675, Note_off_c, 4, 64, 64
1, 171692, Note_on_c, 4, 64, 124
1, 171732, Note_off_c, 2, 71, 64
1, 171736, Note_on_c, 2, 69, 127
1, 171737, Note_on_c, 4, 63, 124
1, 171743, Note_off_c, 4, 64, 64
1, 171781, Note_on_c, 4, 64, 124
1, 171787, Note_off_c, 4, 63, 64
1, 171812, Note_off_c, 4, 54, 64
1, 171826, Note_on_c, 4, 54, 124
1, 171856, Note_off_c, 2, 69, 64
1, 171874, Note_on_c, 2, 69, 127
1, 171912, Note_off_c, 2, 69, 64
1, 171918, Note_on_c, 2, 69, 127
1, 171958, Note_off_c, 2, 69, 64
1, 171966, Note_on_c, 2, 69, 127
1, 172012, Note_on_c, 2, 71, 127
1, 172016, Note_off_c, 2, 69, 64
1, 172058, Note_off_c, 2, 71, 64
1, 172064, Note_on_c, 2, 69, 127
1, 172096, Note_on_c, 2, 74, 127
1, 172116, Note_off_c, 2, 69, 64
1, 172143, Note_on_c, 2, 73, 127
1, 172148, Note_off_c, 2, 74, 64
1, 172173, Note_off_c, 4, 54, 64
1, 172188, Note_on_c, 2, 71, 127
1, 172189, Note_on_c, 4, 56, 124
1, 172193, Note_off_c, 2, 73, 64
1, 172203, Note_off_c, 4, 64, 64
1, 172234, Note_on_c, 4, 64, 124
1, 172275, Note_off_c, 2, 71, 64
1, 172279, Note_on_c, 2, 71, 127
1, 172279, Note_on_c, 4, 63, 124
1, 172285, Note_off_c, 4, 64, 64
1, 172324, Note_on_c, 4, 64, 124
1, 172332, Note_off_c, 4, 63, 64
1, 172355, Note_off_c, 4, 56, 64
1, 172372, Note_on_c, 4, 56, 124
1, 172403, Note_off_c, 2, 71, 64
1, 172416, Note_on_c, 2, 71, 127
1, 172458, Note_off_c, 2, 71, 64
1, 172461, Note_on_c, 2, 71, 127
1, 172503, Note_off_c, 2, 71, 64
1, 172505, Note_on_c, 2, 71, 127
1, 172548, Note_off_c, 2, 71, 64
1, 172553, Note_on_c, 2, 73, 127
1, 172603, Note_on_c, 2, 71, 127
1, 172608, Note_off_c, 2, 73, 64
1, 172645, Note_on_c, 2, 76, 127
1, 172650, Note_off_c, 2, 71, 64
1, 172689, Note_on_c, 2, 74, 127
1, 172694, Note_off_c, 2, 76, 64
1, 172722, Note_off_c, 4, 64, 64
1, 172722, Note_off_c, 4, 56, 64
1, 172732, Note_off_c, 2, 74, 64
1, 172736, Note_on_c, 2, 74, 127
1, 172737, Note_on_c, 4, 64, 124
1, 172737, Note_on_c, 4, 57, 124
1, 172783, Note_on_c, 2, 73, 127
1, 172788, Note_off_c, 2, 74, 64
1, 172827, Note_on_c, 2, 72, 127
1, 172833, Note_off_c, 2, 73, 64
1, 172873, Note_on_c, 2, 73, 127
1, 172879, Note_off_c, 2, 72, 64
1, 172920, Note_on_c, 4, 57, 124
1, 172920, Note_on_c, 4, 54, 124
1, 172920, Note_on_c, 2, 74, 127
1, 172924, Note_off_c, 2, 73, 64
1, 172967, Note_on_c, 2, 73, 127
1, 172972, Note_off_c, 2, 74, 64
1, 173011, Note_on_c, 2, 72, 127
1, 173016, Note_off_c, 2, 73, 64
1, 173055, Note_on_c, 2, 73, 127
1, 173062, Note_off_c, 2, 72, 64
1, 173086, Note_off_c, 4, 64, 64
1, 173100, Note_off_c, 4, 54, 64
1, 173101, Note_on_c, 4, 59, 126
1, 173101, Note_on_c, 2, 76, 127
1, 173102, Note_on_c, 4, 50, 124
1, 173106, Note_off_c, 2, 73, 64
1, 173148, Note_on_c, 2, 74, 127
1, 173154, Note_off_c, 2, 76, 64
1, 173192, Note_on_c, 2, 73, 127
1, 173198, Note_off_c, 2, 74, 64
1, 173236, Note_on_c, 2, 74, 127
1, 173242, Note_off_c, 2, 73, 64
1, 173252, Note_off_c, 4, 57, 64
1, 173252, Note_off_c, 4, 57, 64
1, 173284, Note_off_c, 4, 50, 64
1, 173285, Note_off_c, 4, 59, 64
1, 173285, Note_on_c, 2, 73, 127
1, 173286, Note_on_c, 4, 56, 124
1, 173286, Note_on_c, 4, 52, 124
1, 173290, Note_off_c, 2, 74, 64
1, 173328, Note_on_c, 2, 71, 127
1, 173334, Note_off_c, 2, 73, 64
1, 173365, Note_off_c, 2, 71, 64
1, 173373, Note_off_c, 4, 45, 64
1, 173374, Note_on_c, 2, 71, 127
1, 173408, Note_off_c, 2, 71, 64
1, 173418, Note_on_c, 2, 71, 127
1, 173454, Note_off_c, 2, 71, 64
1, 173464, Note_on_c, 2, 69, 127
1, 173498, Note_off_c, 2, 69, 64
1, 173506, Note_on_c, 2, 69, 127
1, 173543, Note_off_c, 2, 69, 64
1, 173554, Note_on_c, 3, 66, 127
1, 173596, Note_on_c, 2, 69, 127
1, 173602, Note_off_c, 3, 66, 64
1, 173642, Note_on_c, 3, 66, 127
1, 173650, Note_off_c, 2, 69, 64
1, 173685, Note_on_c, 3, 64, 127
1, 173690, Note_off_c, 3, 66, 64
1, 173723, Note_on_c, 4, 63, 127
1, 173729, Note_off_c, 3, 64, 64
1, 173767, Note_on_c, 3, 64, 127
1, 173773, Note_off_c, 4, 63, 64
1, 173808, Note_on_c, 4, 45, 122
1, 173808, Note_on_c, 2, 73, 127
1, 173808, Note_on_c, 2, 69, 127
1, 173812, Note_off_c, 3, 64, 64
1, 173822, Note_off_c, 4, 52, 64
1, 173822, Note_off_c, 4, 56, 64
1, 173850, Note_on_c, 4, 57, 124
1, 173888, Note_off_c, 4, 57, 64
1, 173889, Note_off_c, 2, 69, 64
1, 173889, Note_off_c, 2, 73, 64
1, 173893, Note_on_c, 2, 73, 127
1, 173893, Note_on_c, 2, 69, 127
1, 173894, Note_on_c, 4, 57, 124
1, 173932, Note_off_c, 4, 57, 64
1, 173936, Note_on_c, 4, 57, 124
1, 173980, Note_off_c, 4, 57, 64
1, 173984, Note_on_c, 4, 57, 124
1, 174026, Note_off_c, 4, 57, 64
1, 174033, Note_on_c, 4, 57, 124
1, 174075, Note_off_c, 4, 57, 64
1, 174076, Note_off_c, 2, 69, 64
1, 174076, Note_off_c, 2, 73, 64
1, 174080, Note_on_c, 2, 73, 127
1, 174081, Note_on_c, 2, 71, 127
1, 174081, Note_on_c, 4, 57, 124
1, 174121, Note_off_c, 4, 57, 64
1, 174127, Note_on_c, 4, 57, 124
1, 174169, Note_off_c, 4, 57, 64
1, 174170, Note_off_c, 2, 71, 64
1, 174170, Note_off_c, 2, 73, 64
1, 174174, Note_on_c, 2, 74, 127
1, 174175, Note_on_c, 2, 71, 127
1, 174175, Note_on_c, 4, 57, 124
1, 174212, Note_off_c, 4, 57, 64
1, 174217, Note_on_c, 4, 57, 124
1, 174256, Note_off_c, 2, 71, 64
1, 174256, Note_off_c, 4, 57, 64
1, 174257, Note_off_c, 2, 74, 64
1, 174259, Note_on_c, 2, 75, 127
1, 174259, Note_on_c, 2, 72, 127
1, 174260, Note_on_c, 4, 57, 124
1, 174298, Note_off_c, 4, 57, 64
1, 174302, Note_on_c, 4, 57, 124
1, 174341, Note_off_c, 4, 57, 64
1, 174342, Note_off_c, 2, 72, 64
1, 174342, Note_off_c, 2, 75, 64
1, 174346, Note_on_c, 2, 76, 127
1, 174347, Note_on_c, 4, 57, 124
1, 174347, Note_on_c, 2, 73, 127
1, 174387, Note_on_c, 3, 69, 127
1, 174418, Note_off_c, 2, 73, 64
1, 174419, Note_off_c, 2, 76, 64
1, 174433, Note_on_c, 3, 71, 127
1, 174440, Note_off_c, 3, 69, 64
1, 174477, Note_on_c, 3, 73, 127
1, 174482, Note_off_c, 3, 71, 64
1, 174523, Note_on_c, 3, 74, 127
1, 174528, Note_off_c, 3, 73, 64
1, 174569, Note_on_c, 3, 76, 127
1, 174575, Note_off_c, 3, 74, 64
1, 174613, Note_on_c, 3, 78, 127
1, 174619, Note_off_c, 3, 76, 64
1, 174653, Note_on_c, 3, 80, 127
1, 174659, Note_off_c, 3, 78, 64
1, 174698, Note_on_c, 3, 81, 127
1, 174701, Note_off_c, 3, 80, 64
1, 174736, Note_on_c, 1, 83, 127
1, 174740, Note_off_c, 3, 81, 64
1, 174777, Note_on_c, 1, 85, 127
1, 174780, Note_off_c, 1, 83, 64
1, 174850, Note_off_c, 4, 45, 64
1, 174850, Note_on_c, 2, 73, 127
1, 174851, Note_on_c, 4, 40, 122
1, 174851, Note_on_c, 2, 69, 127
1, 174865, Note_off_c, 4, 57, 64
1, 174880, Note_off_c, 1, 85, 64
1, 174896, Note_on_c, 2, 71, 127
1, 174896, Note_on_c, 2, 69, 127
1, 174897, Note_on_c, 4, 52, 124
1, 174900, Note_off_c, 2, 69, 64
1, 174900, Note_off_c, 2, 73, 64
1, 174934, Note_off_c, 4, 52, 64
1, 174934, Note_off_c, 2, 69, 64
1, 174935, Note_off_c, 2, 71, 64
1, 174939, Note_on_c, 2, 71, 127
1, 174939, Note_on_c, 2, 69, 127
1, 174940, Note_on_c, 4, 52, 124
1, 174980, Note_off_c, 4, 52, 64
1, 174986, Note_on_c, 4, 52, 124
1, 175027, Note_off_c, 4, 52, 64
1, 175033, Note_on_c, 4, 52, 124
1, 175075, Note_off_c, 4, 52, 64
1, 175079, Note_on_c, 4, 52, 124
1, 175123, Note_off_c, 4, 52, 64
1, 175123, Note_off_c, 2, 69, 64
1, 175124, Note_off_c, 2, 71, 64
1, 175128, Note_on_c, 2, 71, 127
1, 175128, Note_on_c, 2, 69, 127
1, 175129, Note_on_c, 4, 52, 124
1, 175165, Note_off_c, 4, 52, 64
1, 175169, Note_on_c, 4, 52, 124
1, 175205, Note_off_c, 4, 52, 64
1, 175206, Note_off_c, 2, 69, 64
1, 175206, Note_off_c, 2, 71, 64
1, 175209, Note_on_c, 2, 73, 127
1, 175209, Note_on_c, 2, 69, 127
1, 175210, Note_on_c, 4, 52, 124
1, 175248, Note_off_c, 4, 52, 64
1, 175252, Note_on_c, 4, 52, 124
1, 175290, Note_off_c, 4, 52, 64
1, 175290, Note_off_c, 2, 69, 64
1, 175291, Note_off_c, 2, 73, 64
1, 175295, Note_on_c, 2, 73, 127
1, 175296, Note_on_c, 2, 71, 127
1, 175296, Note_on_c, 4, 52, 124
1, 175333, Note_off_c, 4, 52, 64
1, 175337, Note_on_c, 4, 52, 124
1, 175375, Note_off_c, 4, 52, 64
1, 175376, Note_off_c, 2, 71, 64
1, 175376, Note_off_c, 2, 73, 64
1, 175380, Note_on_c, 2, 74, 127
1, 175381, Note_on_c, 4, 52, 124
1, 175381, Note_on_c, 2, 71, 127
1, 175424, Note_on_c, 2, 71, 127
1, 175470, Note_on_c, 3, 73, 127
1, 175480, Note_off_c, 2, 74, 64
1, 175511, Note_on_c, 3, 74, 127
1, 175517, Note_off_c, 3, 73, 64
1, 175553, Note_on_c, 3, 76, 127
1, 175559, Note_off_c, 3, 74, 64
1, 175590, Note_off_c, 2, 71, 64
1, 175590, Note_off_c, 2, 71, 64
1, 175594, Note_on_c, 3, 78, 127
1, 175599, Note_off_c, 3, 76, 64
1, 175634, Note_on_c, 3, 80, 127
1, 175640, Note_off_c, 3, 78, 64
1, 175674, Note_on_c, 3, 81, 127
1, 175680, Note_off_c, 3, 80, 64
1, 175715, Note_on_c, 3, 83, 127
1, 175720, Note_off_c, 3, 81, 64
1, 175757, Note_on_c, 1, 85, 127
1, 175763, Note_off_c, 3, 83, 64
1, 175799, Note_on_c, 1, 86, 127
1, 175804, Note_off_c, 1, 85, 64
1, 175873, Note_on_c, 2, 71, 127
1, 175909, Note_off_c, 1, 86, 64
1, 175921, Note_off_c, 2, 71, 64
1, 175925, Note_on_c, 2, 69, 127
1, 175969, Note_off_c, 2, 69, 64
1, 175975, Note_on_c, 2, 69, 127
1, 176073, Note_off_c, 2, 69, 64
1, 176078, Note_off_c, 4, 52, 64
1, 176079, Note_on_c, 4, 64, 124
1, 176079, Note_on_c, 2, 69, 127
1, 176080, Note_on_c, 4, 54, 124
1, 176119, Note_off_c, 2, 69, 64
1, 176123, Note_on_c, 2, 69, 127
1, 176165, Note_off_c, 2, 69, 64
1, 176169, Note_on_c, 2, 74, 127
1, 176216, Note_on_c, 2, 73, 127
1, 176221, Note_off_c, 2, 74, 64
1, 176258, Note_off_c, 4, 64, 64
1, 176258, Note_off_c, 4, 54, 64
1, 176263, Note_on_c, 4, 64, 124
1, 176263, Note_on_c, 2, 71, 127
1, 176264, Note_on_c, 4, 56, 124
1, 176269, Note_off_c, 2, 73, 64
1, 176309, Note_on_c, 2, 71, 127
1, 176313, Note_off_c, 2, 71, 64
1, 176351, Note_on_c, 2, 76, 127
1, 176360, Note_off_c, 2, 71, 64
1, 176396, Note_on_c, 2, 74, 127
1, 176400, Note_off_c, 2, 76, 64
1, 176438, Note_off_c, 4, 56, 64
1, 176439, Note_off_c, 4, 64, 64
1, 176443, Note_on_c, 2, 72, 127
1, 176444, Note_on_c, 4, 64, 124
1, 176444, Note_on_c, 4, 57, 124
1, 176450, Note_off_c, 2, 74, 64
1, 176488, Note_on_c, 2, 73, 127
1, 176493, Note_off_c, 2, 72, 64
1, 176535, Note_on_c, 1, 81, 127
1, 176580, Note_off_c, 1, 81, 64
1, 176583, Note_off_c, 2, 73, 64
1, 176584, Note_on_c, 1, 81, 127
1, 176630, Note_off_c, 1, 81, 64
1, 176636, Note_on_c, 1, 81, 127
1, 176682, Note_off_c, 1, 81, 64
1, 176688, Note_on_c, 1, 81, 127
1, 176730, Note_off_c, 1, 81, 64
1, 176734, Note_on_c, 1, 81, 127
1, 176776, Note_off_c, 1, 81, 64
1, 176783, Note_on_c, 1, 81, 127
1, 176817, Note_off_c, 4, 57, 64
1, 176817, Note_off_c, 4, 64, 64
1, 176827, Note_on_c, 1, 81, 127
1, 176828, Note_on_c, 4, 59, 126
1, 176828, Note_on_c, 4, 54, 124
1, 176829, Note_on_c, 4, 50, 124
1, 176831, Note_off_c, 1, 81, 64
1, 176871, Note_on_c, 1, 78, 127
1, 176879, Note_off_c, 1, 81, 64
1, 176924, Note_on_c, 2, 74, 127
1, 176931, Note_off_c, 1, 78, 64
1, 176973, Note_on_c, 2, 71, 127
1, 176979, Note_off_c, 2, 74, 64
1, 177021, Note_off_c, 4, 50, 64
1, 177022, Note_off_c, 4, 54, 64
1, 177022, Note_off_c, 4, 59, 64
1, 177028, Note_on_c, 4, 61, 126
1, 177028, Note_on_c, 2, 76, 127
1, 177029, Note_on_c, 4, 52, 124
1, 177029, Note_on_c, 4, 57, 124
1, 177034, Note_off_c, 2, 71, 64
1, 177066, Note_off_c, 2, 76, 64
1, 177071, Note_on_c, 1, 78, 127
1, 177089, Note_on_c, 2, 76, 127
1, 177095, Note_off_c, 1, 78, 64
1, 177119, Note_on_c, 2, 75, 127
1, 177125, Note_off_c, 2, 76, 64
1, 177150, Note_on_c, 2, 76, 127
1, 177157, Note_off_c, 2, 75, 64
1, 177200, Note_off_c, 2, 76, 64
1, 177204, Note_on_c, 1, 78, 127
1, 177244, Note_off_c, 1, 78, 64
1, 177248, Note_on_c, 2, 69, 127
1, 177426, Note_off_c, 4, 57, 64
1, 177427, Note_off_c, 4, 61, 64
1, 177432, Note_on_c, 4, 62, 125
1, 177432, Note_on_c, 4, 59, 126
1, 177526, Note_off_c, 2, 69, 64
1, 177530, Note_on_c, 2, 73, 127
1, 177531, Note_on_c, 2, 69, 127
1, 177579, Note_off_c, 2, 73, 64
1, 177587, Note_on_c, 2, 71, 127
1, 177638, Note_off_c, 2, 71, 64
1, 177639, Note_off_c, 4, 59, 64
1, 177639, Note_off_c, 2, 69, 64
1, 177640, Note_off_c, 4, 62, 64
1, 177647, Note_on_c, 2, 71, 127
1, 177647, Note_on_c, 2, 69, 127
1, 177648, Note_on_c, 4, 57, 124
1, 177648, Note_on_c, 4, 64, 124
1, 177648, Note_on_c, 4, 62, 125
1, 177828, Note_off_c, 2, 69, 64
1, 177863, Note_on_c, 4, 64, 124
1, 177863, Note_on_c, 2, 69, 127
1, 177988, Note_on_c, 4, 64, 124
1, 178152, Note_off_c, 2, 71, 64
1, 178152, Note_off_c, 2, 69, 64
1, 178152, Note_off_c, 4, 62, 64
1, 178157, Note_on_c, 4, 66, 127
1, 178158, Note_on_c, 4, 61, 126
1, 178303, Note_on_c, 2, 69, 127
1, 178317, Note_off_c, 4, 66, 64
1, 178399, Note_off_c, 2, 69, 64
1, 178416, Note_on_c, 2, 69, 127
1, 178493, Note_on_c, 3, 71, 127
1, 178503, Note_off_c, 2, 69, 64
1, 178563, Note_on_c, 3, 69, 127
1, 178571, Note_off_c, 3, 71, 64
1, 178638, Note_on_c, 3, 73, 127
1, 178648, Note_off_c, 3, 69, 64
1, 178696, Note_on_c, 3, 71, 127
1, 178704, Note_off_c, 3, 73, 64
1, 178722, Note_off_c, 4, 64, 64
1, 178722, Note_off_c, 4, 64, 64
1, 178722, Note_off_c, 4, 64, 64
1, 178769, Note_on_c, 2, 74, 127
1, 178776, Note_off_c, 3, 71, 64
1, 178807, Note_off_c, 4, 57, 64
1, 178813, Note_off_c, 2, 74, 64
1, 178815, Note_off_c, 4, 61, 64
1, 178815, Note_on_c, 3, 73, 127
1, 178816, Note_on_c, 4, 57, 124
1, 178872, Note_on_c, 4, 64, 124
1, 178920, Note_on_c, 4, 61, 126
1, 178935, Note_off_c, 4, 57, 64
1, 178948, Note_off_c, 4, 64, 64
1, 178964, Note_on_c, 4, 64, 124
1, 178997, Note_off_c, 4, 61, 64
1, 179009, Note_off_c, 3, 73, 64
1, 179013, Note_on_c, 3, 73, 127
1, 179013, Note_on_c, 4, 57, 124
1, 179046, Note_off_c, 4, 64, 64
1, 179064, Note_on_c, 4, 64, 124
1, 179115, Note_on_c, 4, 61, 126
1, 179133, Note_off_c, 4, 57, 64
1, 179148, Note_off_c, 4, 64, 64
1, 179165, Note_on_c, 4, 64, 124
1, 179198, Note_off_c, 4, 61, 64
1, 179213, Note_on_c, 4, 57, 124
1, 179246, Note_off_c, 4, 64, 64
1, 179259, Note_on_c, 4, 64, 124
1, 179298, Note_off_c, 3, 73, 64
1, 179304, Note_on_c, 2, 74, 127
1, 179304, Note_on_c, 4, 59, 126
1, 179318, Note_off_c, 4, 57, 64
1, 179334, Note_off_c, 4, 64, 64
1, 179348, Note_on_c, 4, 64, 124
1, 179390, Note_on_c, 1, 78, 127
1, 179390, Note_on_c, 4, 61, 126
1, 179399, Note_off_c, 2, 74, 64
1, 179405, Note_off_c, 4, 59, 64
1, 179420, Note_off_c, 4, 64, 64
1, 179436, Note_on_c, 4, 64, 124
1, 179464, Note_off_c, 4, 61, 64
1, 179480, Note_on_c, 2, 76, 127
1, 179480, Note_on_c, 4, 57, 124
1, 179490, Note_off_c, 1, 78, 64
1, 179511, Note_off_c, 4, 64, 64
1, 179527, Note_on_c, 4, 64, 124
1, 179573, Note_on_c, 4, 61, 126
1, 179590, Note_off_c, 4, 57, 64
1, 179605, Note_off_c, 4, 64, 64
1, 179619, Note_on_c, 4, 64, 124
1, 179648, Note_off_c, 4, 61, 64
1, 179648, Note_off_c, 2, 76, 64
1, 179664, Note_on_c, 4, 57, 124
1, 179664, Note_on_c, 2, 76, 127
1, 179696, Note_off_c, 4, 64, 64
1, 179709, Note_on_c, 4, 64, 124
1, 179738, Note_off_c, 2, 76, 64
1, 179753, Note_on_c, 1, 78, 127
1, 179754, Note_on_c, 4, 61, 126
1, 179768, Note_off_c, 4, 57, 64
1, 179785, Note_off_c, 4, 64, 64
1, 179800, Note_on_c, 2, 76, 127
1, 179801, Note_on_c, 4, 64, 124
1, 179805, Note_off_c, 1, 78, 64
1, 179826, Note_off_c, 4, 61, 64
1, 179840, Note_on_c, 2, 74, 127
1, 179840, Note_on_c, 4, 57, 124
1, 179844, Note_off_c, 2, 76, 64
1, 179866, Note_off_c, 4, 64, 64
1, 179879, Note_on_c, 2, 73, 127
1, 179880, Note_on_c, 4, 64, 124
1, 179883, Note_off_c, 2, 74, 64
1, 179918, Note_off_c, 2, 73, 64
1, 179922, Note_on_c, 2, 73, 127
1, 179923, Note_on_c, 4, 56, 124
1, 179937, Note_off_c, 4, 57, 64
1, 179950, Note_off_c, 4, 64, 64
1, 179965, Note_on_c, 4, 64, 124
1, 180006, Note_off_c, 2, 73, 64
1, 180012, Note_on_c, 2, 71, 127
1, 180013, Note_on_c, 4, 63, 124
1, 180042, Note_off_c, 4, 64, 64
1, 180058, Note_on_c, 4, 64, 124
1, 180088, Note_off_c, 4, 63, 64
1, 180098, Note_off_c, 2, 71, 64
1, 180098, Note_off_c, 4, 56, 64
1, 180104, Note_on_c, 2, 71, 127
1, 180104, Note_on_c, 4, 56, 124
1, 180135, Note_off_c, 4, 64, 64
1, 180151, Note_on_c, 4, 64, 124
1, 180196, Note_on_c, 4, 63, 124
1, 180227, Note_off_c, 4, 64, 64
1, 180242, Note_on_c, 4, 64, 124
1, 180269, Note_off_c, 4, 63, 64
1, 180278, Note_off_c, 4, 56, 64
1, 180284, Note_on_c, 4, 56, 124
1, 180313, Note_off_c, 4, 64, 64
1, 180328, Note_on_c, 4, 64, 124
1, 180369, Note_off_c, 2, 71, 64
1, 180374, Note_on_c, 2, 73, 127
1, 180375, Note_on_c, 4, 57, 124
1, 180389, Note_off_c, 4, 56, 64
1, 180405, Note_off_c, 4, 64, 64
1, 180420, Note_on_c, 4, 64, 124
1, 180463, Note_off_c, 2, 73, 64
1, 180467, Note_on_c, 2, 76, 127
1, 180467, Note_on_c, 4, 58, 124
1, 180481, Note_off_c, 4, 57, 64
1, 180494, Note_off_c, 4, 64, 64
1, 180508, Note_on_c, 4, 64, 124
1, 180523, Note_off_c, 4, 40, 64
1, 180554, Note_on_c, 4, 63, 124
1, 180583, Note_off_c, 4, 64, 64
1, 180596, Note_on_c, 4, 64, 124
1, 180625, Note_off_c, 4, 63, 64
1, 180635, Note_off_c, 4, 58, 64
1, 180635, Note_off_c, 2, 76, 64
1, 180639, Note_on_c, 2, 74, 127
1, 180640, Note_on_c, 4, 59, 126
1, 180667, Note_off_c, 4, 64, 64
1, 180681, Note_on_c, 4, 64, 124
1, 180723, Note_on_c, 4, 63, 124
1, 180732, Note_off_c, 2, 74, 64
1, 180752, Note_off_c, 4, 64, 64
1, 180752, Note_off_c, 4, 52, 64
1, 180766, Note_on_c, 2, 74, 127
1, 180767, Note_on_c, 4, 64, 124
1, 180794, Note_off_c, 4, 63, 64
1, 180805, Note_off_c, 4, 59, 64
1, 180811, Note_off_c, 2, 74, 64
1, 180812, Note_on_c, 2, 76, 127
1, 180812, Note_on_c, 4, 56, 124
1, 180841, Note_off_c, 4, 64, 64
1, 180854, Note_off_c, 2, 76, 64
1, 180855, Note_on_c, 2, 74, 127
1, 180855, Note_on_c, 4, 64, 124
1, 180898, Note_off_c, 2, 74, 64
1, 180898, Note_on_c, 2, 73, 127
1, 180899, Note_on_c, 4, 52, 124
1, 180914, Note_off_c, 4, 56, 64
1, 180927, Note_off_c, 4, 64, 64
1, 180941, Note_off_c, 2, 73, 64
1, 180941, Note_on_c, 2, 71, 127
1, 180942, Note_on_c, 4, 64, 124
1, 180978, Note_off_c, 2, 71, 64
1, 180982, Note_on_c, 2, 71, 127
1, 180983, Note_on_c, 4, 54, 124
1, 181000, Note_off_c, 4, 52, 64
1, 181016, Note_off_c, 4, 64, 64
1, 181033, Note_on_c, 4, 64, 124
1, 181073, Note_off_c, 2, 71, 64
1, 181077, Note_on_c, 2, 69, 127
1, 181078, Note_on_c, 4, 63, 124
1, 181084, Note_off_c, 4, 64, 64
1, 181122, Note_on_c, 4, 64, 124
1, 181130, Note_off_c, 4, 63, 64
1, 181153, Note_off_c, 4, 54, 64
1, 181167, Note_on_c, 4, 54, 124
1, 181198, Note_off_c, 2, 69, 64
1, 181215, Note_on_c, 2, 69, 127
1, 181254, Note_off_c, 2, 69, 64
1, 181260, Note_on_c, 2, 69, 127
1, 181300, Note_off_c, 2, 69, 64
1, 181306, Note_on_c, 2, 69, 127
1, 181352, Note_on_c, 2, 71, 127
1, 181357, Note_off_c, 2, 69, 64
1, 181400, Note_off_c, 2, 71, 64
1, 181405, Note_on_c, 2, 69, 127
1, 181438, Note_on_c, 2, 74, 127
1, 181457, Note_off_c, 2, 69, 64
1, 181484, Note_on_c, 2, 73, 127
1, 181490, Note_off_c, 2, 74, 64
1, 181515, Note_off_c, 4, 54, 64
1, 181529, Note_on_c, 4, 56, 124
1, 181529, Note_on_c, 2, 71, 127
1, 181535, Note_off_c, 2, 73, 64
1, 181545, Note_off_c, 4, 64, 64
1, 181576, Note_on_c, 4, 64, 124
1, 181617, Note_off_c, 2, 71, 64
1, 181620, Note_on_c, 2, 71, 127
1, 181621, Note_on_c, 4, 63, 124
1, 181627, Note_off_c, 4, 64, 64
1, 181666, Note_on_c, 4, 64, 124
1, 181671, Note_off_c, 4, 63, 64
1, 181697, Note_off_c, 4, 56, 64
1, 181712, Note_on_c, 4, 56, 124
1, 181744, Note_off_c, 2, 71, 64
1, 181758, Note_on_c, 2, 71, 127
1, 181798, Note_off_c, 2, 71, 64
1, 181802, Note_on_c, 2, 71, 127
1, 181844, Note_off_c, 2, 71, 64
1, 181847, Note_on_c, 2, 71, 127
1, 181890, Note_off_c, 2, 71, 64
1, 181893, Note_on_c, 2, 73, 127
1, 181944, Note_on_c, 2, 71, 127
1, 181951, Note_off_c, 2, 73, 64
1, 181988, Note_on_c, 2, 76, 127
1, 181991, Note_off_c, 2, 71, 64
1, 182030, Note_on_c, 2, 74, 127
1, 182037, Note_off_c, 2, 76, 64
1, 182063, Note_off_c, 4, 56, 64
1, 182063, Note_off_c, 4, 64, 64
1, 182073, Note_off_c, 2, 74, 64
1, 182079, Note_on_c, 4, 64, 124
1, 182079, Note_on_c, 2, 74, 127
1, 182080, Note_on_c, 4, 57, 124
1, 182126, Note_on_c, 2, 73, 127
1, 182131, Note_off_c, 2, 74, 64
1, 182168, Note_on_c, 2, 72, 127
1, 182174, Note_off_c, 2, 73, 64
1, 182214, Note_on_c, 2, 73, 127
1, 182221, Note_off_c, 2, 72, 64
1, 182260, Note_on_c, 2, 74, 127
1, 182261, Note_on_c, 4, 57, 124
1, 182261, Note_on_c, 4, 54, 124
1, 182267, Note_off_c, 2, 73, 64
1, 182307, Note_on_c, 2, 73, 127
1, 182313, Note_off_c, 2, 74, 64
1, 182352, Note_on_c, 2, 72, 127
1, 182357, Note_off_c, 2, 73, 64
1, 182398, Note_on_c, 2, 73, 127
1, 182403, Note_off_c, 2, 72, 64
1, 182427, Note_off_c, 4, 64, 64
1, 182441, Note_off_c, 4, 54, 64
1, 182442, Note_on_c, 2, 76, 127
1, 182442, Note_on_c, 4, 59, 126
1, 182443, Note_on_c, 4, 50, 124
1, 182446, Note_off_c, 2, 73, 64
1, 182491, Note_on_c, 2, 74, 127
1, 182496, Note_off_c, 2, 76, 64
1, 182533, Note_on_c, 2, 73, 127
1, 182534, Note_off_c, 4, 57, 64
1, 182534, Note_off_c, 4, 57, 64
1, 182539, Note_off_c, 2, 74, 64
1, 182577, Note_on_c, 2, 74, 127
1, 182584, Note_off_c, 2, 73, 64
1, 182626, Note_off_c, 4, 50, 64
1, 182627, Note_off_c, 4, 59, 64
1, 182627, Note_on_c, 2, 73, 127
1, 182628, Note_on_c, 4, 56, 124
1, 182628, Note_on_c, 4, 52, 124
1, 182632, Note_off_c, 2, 74, 64
1, 182670, Note_on_c, 2, 71, 127
1, 182676, Note_off_c, 2, 73, 64
1, 182707, Note_off_c, 2, 71, 64
1, 182714, Note_on_c, 2, 71, 127
1, 182751, Note_off_c, 2, 71, 64
1, 182759, Note_on_c, 2, 71, 127
1, 182795, Note_off_c, 2, 71, 64
1, 182805, Note_on_c, 2, 69, 127
1, 182839, Note_off_c, 2, 69, 64
1, 182847, Note_on_c, 2, 69, 127
1, 182885, Note_off_c, 2, 69, 64
1, 182895, Note_on_c, 3, 66, 127
1, 182937, Note_on_c, 2, 69, 127
1, 182943, Note_off_c, 3, 66, 64
1, 182985, Note_on_c, 3, 66, 127
1, 182991, Note_off_c, 2, 69, 64
1, 183026, Note_on_c, 3, 64, 127
1, 183030, Note_off_c, 3, 66, 64
1, 183065, Note_on_c, 4, 63, 127
1, 183071, Note_off_c, 3, 64, 64
1, 183107, Note_on_c, 3, 64, 127
1, 183113, Note_off_c, 4, 63, 64
1, 183147, Note_on_c, 2, 73, 127
1, 183148, Note_on_c, 4, 45, 122
1, 183148, Note_on_c, 2, 69, 127
1, 183154, Note_off_c, 3, 64, 64
1, 183162, Note_off_c, 4, 52, 64
1, 183162, Note_off_c, 4, 56, 64
1, 183192, Note_on_c, 4, 57, 124
1, 183230, Note_off_c, 4, 57, 64
1, 183230, Note_off_c, 2, 69, 64
1, 183231, Note_off_c, 2, 73, 64
1, 183235, Note_on_c, 2, 73, 127
1, 183235, Note_on_c, 2, 69, 127
1, 183236, Note_on_c, 4, 57, 124
1, 183273, Note_off_c, 4, 57, 64
1, 183279, Note_on_c, 4, 57, 124
1, 183321, Note_off_c, 4, 57, 64
1, 183325, Note_on_c, 4, 57, 124
1, 183369, Note_off_c, 4, 57, 64
1, 183373, Note_on_c, 4, 57, 124
1, 183415, Note_off_c, 4, 57, 64
1, 183416, Note_off_c, 2, 69, 64
1, 183416, Note_off_c, 2, 73, 64
1, 183420, Note_on_c, 2, 73, 127
1, 183420, Note_on_c, 2, 71, 127
1, 183421, Note_on_c, 4, 57, 124
1, 183462, Note_off_c, 4, 57, 64
1, 183468, Note_on_c, 4, 57, 124
1, 183510, Note_off_c, 4, 57, 64
1, 183511, Note_off_c, 2, 71, 64
1, 183511, Note_off_c, 2, 73, 64
1, 183515, Note_on_c, 2, 74, 127
1, 183516, Note_on_c, 2, 71, 127
1, 183516, Note_on_c, 4, 57, 124
1, 183554, Note_off_c, 4, 57, 64
1, 183558, Note_on_c, 4, 57, 124
1, 183597, Note_off_c, 4, 57, 64
1, 183597, Note_off_c, 2, 71, 64
1, 183598, Note_off_c, 2, 74, 64
1, 183601, Note_on_c, 2, 75, 127
1, 183602, Note_on_c, 2, 72, 127
1, 183602, Note_on_c, 4, 57, 124
1, 183639, Note_off_c, 4, 57, 64
1, 183645, Note_on_c, 4, 57, 124
1, 183683, Note_off_c, 4, 57, 64
1, 183684, Note_off_c, 2, 72, 64
1, 183684, Note_off_c, 2, 75, 64
1, 183686, Note_on_c, 2, 76, 127
1, 183686, Note_on_c, 2, 73, 127
1, 183687, Note_on_c, 4, 57, 124
1, 183728, Note_on_c, 3, 69, 127
1, 183759, Note_off_c, 2, 73, 64
1, 183759, Note_off_c, 2, 76, 64
1, 183775, Note_on_c, 3, 71, 127
1, 183781, Note_off_c, 3, 69, 64
1, 183817, Note_on_c, 3, 73, 127
1, 183825, Note_off_c, 3, 71, 64
1, 183864, Note_on_c, 3, 74, 127
1, 183870, Note_off_c, 3, 73, 64
1, 183910, Note_on_c, 3, 76, 127
1, 183915, Note_off_c, 3, 74, 64
1, 183954, Note_on_c, 3, 78, 127
1, 183960, Note_off_c, 3, 76, 64
1, 183995, Note_on_c, 3, 80, 127
1, 184000, Note_off_c, 3, 78, 64
1, 184038, Note_on_c, 3, 81, 127
1, 184042, Note_off_c, 3, 80, 64
1, 184077, Note_on_c, 1, 83, 127
1, 184081, Note_off_c, 3, 81, 64
1, 184117, Note_on_c, 1, 85, 127
1, 184123, Note_off_c, 1, 83, 64
1, 184190, Note_off_c, 4, 45, 64
1, 184191, Note_on_c, 2, 73, 127
1, 184191, Note_on_c, 2, 69, 127
1, 184192, Note_on_c, 4, 40, 122
1, 184206, Note_off_c, 4, 57, 64
1, 184223, Note_off_c, 1, 85, 64
1, 184236, Note_on_c, 2, 71, 127
1, 184237, Note_on_c, 2, 69, 127
1, 184237, Note_on_c, 4, 52, 124
1, 184243, Note_off_c, 2, 69, 64
1, 184243, Note_off_c, 2, 73, 64
1, 184274, Note_off_c, 4, 52, 64
1, 184275, Note_off_c, 2, 69, 64
1, 184275, Note_off_c, 2, 71, 64
1, 184280, Note_on_c, 4, 52, 124
1, 184280, Note_on_c, 2, 71, 127
1, 184280, Note_on_c, 2, 69, 127
1, 184320, Note_off_c, 4, 52, 64
1, 184327, Note_on_c, 4, 52, 124
1, 184368, Note_off_c, 4, 52, 64
1, 184373, Note_on_c, 4, 52, 124
1, 184416, Note_off_c, 4, 52, 64
1, 184421, Note_on_c, 4, 52, 124
1, 184463, Note_off_c, 4, 52, 64
1, 184463, Note_off_c, 2, 69, 64
1, 184464, Note_off_c, 2, 71, 64
1, 184468, Note_on_c, 2, 71, 127
1, 184468, Note_on_c, 2, 69, 127
1, 184469, Note_on_c, 4, 52, 124
1, 184507, Note_off_c, 4, 52, 64
1, 184511, Note_on_c, 4, 52, 124
1, 184548, Note_off_c, 4, 52, 64
1, 184548, Note_off_c, 2, 69, 64
1, 184548, Note_off_c, 2, 71, 64
1, 184551, Note_on_c, 2, 73, 127
1, 184551, Note_on_c, 2, 69, 127
1, 184551, Note_on_c, 4, 52, 124
1, 184589, Note_off_c, 4, 52, 64
1, 184596, Note_on_c, 4, 52, 124
1, 184632, Note_off_c, 4, 52, 64
1, 184632, Note_off_c, 2, 69, 64
1, 184632, Note_off_c, 2, 73, 64
1, 184637, Note_on_c, 2, 73, 127
1, 184637, Note_on_c, 2, 71, 127
1, 184638, Note_on_c, 4, 52, 124
1, 184674, Note_off_c, 4, 52, 64
1, 184680, Note_on_c, 4, 52, 124
1, 184716, Note_off_c, 4, 52, 64
1, 184716, Note_off_c, 2, 71, 64
1, 184717, Note_off_c, 2, 73, 64
1, 184721, Note_on_c, 2, 74, 127
1, 184722, Note_on_c, 4, 52, 124
1, 184722, Note_on_c, 2, 71, 127
1, 184764, Note_on_c, 3, 71, 127
1, 184811, Note_on_c, 3, 73, 127
1, 184820, Note_off_c, 2, 74, 64
1, 184854, Note_on_c, 3, 74, 127
1, 184860, Note_off_c, 3, 73, 64
1, 184872, Note_off_c, 2, 71, 64
1, 184872, Note_off_c, 3, 71, 64
1, 184894, Note_on_c, 3, 76, 127
1, 184902, Note_off_c, 3, 74, 64
1, 184936, Note_on_c, 3, 78, 127
1, 184940, Note_off_c, 3, 76, 64
1, 184977, Note_on_c, 3, 80, 127
1, 184980, Note_off_c, 3, 78, 64
1, 185015, Note_on_c, 3, 81, 127
1, 185021, Note_off_c, 3, 80, 64
1, 185055, Note_on_c, 3, 83, 127
1, 185061, Note_off_c, 3, 81, 64
1, 185098, Note_on_c, 1, 85, 127
1, 185103, Note_off_c, 3, 83, 64
1, 185140, Note_on_c, 1, 86, 127
1, 185146, Note_off_c, 1, 85, 64
1, 185215, Note_on_c, 2, 71, 127
1, 185252, Note_off_c, 1, 86, 64
1, 185262, Note_off_c, 2, 71, 64
1, 185268, Note_on_c, 2, 69, 127
1, 185311, Note_off_c, 2, 69, 64
1, 185316, Note_on_c, 2, 69, 127
1, 185414, Note_off_c, 2, 69, 64
1, 185418, Note_off_c, 4, 52, 64
1, 185419, Note_on_c, 4, 64, 124
1, 185419, Note_on_c, 2, 69, 127
1, 185420, Note_on_c, 4, 54, 124
1, 185460, Note_off_c, 2, 69, 64
1, 185464, Note_on_c, 2, 69, 127
1, 185505, Note_off_c, 2, 69, 64
1, 185510, Note_on_c, 2, 74, 127
1, 185556, Note_on_c, 2, 73, 127
1, 185562, Note_off_c, 2, 74, 64
1, 185599, Note_off_c, 4, 64, 64
1, 185599, Note_off_c, 4, 54, 64
1, 185604, Note_on_c, 4, 64, 124
1, 185604, Note_on_c, 4, 56, 124
1, 185604, Note_on_c, 2, 71, 127
1, 185610, Note_off_c, 2, 73, 64
1, 185649, Note_on_c, 2, 71, 127
1, 185654, Note_off_c, 2, 71, 64
1, 185693, Note_on_c, 2, 76, 127
1, 185700, Note_off_c, 2, 71, 64
1, 185737, Note_on_c, 2, 74, 127
1, 185743, Note_off_c, 2, 76, 64
1, 185779, Note_off_c, 4, 56, 64
1, 185780, Note_off_c, 4, 64, 64
1, 185784, Note_on_c, 4, 64, 124
1, 185784, Note_on_c, 2, 72, 127
1, 185785, Note_on_c, 4, 57, 124
1, 185791, Note_off_c, 2, 74, 64
1, 185829, Note_on_c, 2, 73, 127
1, 185835, Note_off_c, 2, 72, 64
1, 185877, Note_on_c, 1, 81, 127
1, 185919, Note_off_c, 1, 81, 64
1, 185925, Note_off_c, 2, 73, 64
1, 185926, Note_on_c, 1, 81, 127
1, 185972, Note_off_c, 1, 81, 64
1, 185976, Note_on_c, 1, 81, 127
1, 186024, Note_off_c, 1, 81, 64
1, 186030, Note_on_c, 1, 81, 127
1, 186070, Note_off_c, 1, 81, 64
1, 186076, Note_on_c, 1, 81, 127
1, 186118, Note_off_c, 1, 81, 64
1, 186122, Note_on_c, 1, 81, 127
1, 186158, Note_off_c, 4, 57, 64
1, 186159, Note_off_c, 4, 64, 64
1, 186167, Note_on_c, 1, 81, 127
1, 186168, Note_on_c, 4, 59, 126
1, 186168, Note_on_c, 4, 54, 124
1, 186168, Note_on_c, 4, 50, 124
1, 186173, Note_off_c, 1, 81, 64
1, 186214, Note_on_c, 1, 78, 127
1, 186221, Note_off_c, 1, 81, 64
1, 186265, Note_on_c, 2, 74, 127
1, 186271, Note_off_c, 1, 78, 64
1, 186313, Note_on_c, 2, 71, 127
1, 186321, Note_off_c, 2, 74, 64
1, 186363, Note_off_c, 4, 50, 64
1, 186363, Note_off_c, 4, 54, 64
1, 186364, Note_off_c, 4, 59, 64
1, 186368, Note_off_c, 2, 71, 64
1, 186368, Note_on_c, 2, 76, 127
1, 186369, Note_on_c, 4, 61, 126
1, 186369, Note_on_c, 2, 71, 127
1, 186370, Note_on_c, 4, 52, 124
1, 186370, Note_on_c, 4, 57, 124
1, 186374, Note_off_c, 2, 71, 64
1, 186411, Note_on_c, 1, 78, 127
1, 186419, Note_off_c, 2, 76, 64
1, 186436, Note_on_c, 2, 76, 127
1, 186447, Note_off_c, 1, 78, 64
1, 186467, Note_on_c, 2, 75, 127
1, 186472, Note_off_c, 2, 76, 64
1, 186498, Note_on_c, 2, 76, 127
1, 186499, Note_off_c, 2, 75, 64
1, 186540, Note_on_c, 1, 78, 127
1, 186545, Note_off_c, 2, 76, 64
1, 186578, Note_off_c, 1, 78, 64
1, 186582, Note_on_c, 2, 69, 127
1, 186755, Note_off_c, 4, 61, 64
1, 186755, Note_off_c, 4, 57, 64
1, 186760, Note_on_c, 4, 62, 125
1, 186760, Note_on_c, 4, 59, 126
1, 186838, Note_off_c, 2, 69, 64
1, 186841, Note_on_c, 2, 73, 127
1, 186842, Note_on_c, 2, 69, 127
1, 186892, Note_off_c, 2, 73, 64
1, 186898, Note_on_c, 2, 71, 127
1, 186956, Note_off_c, 2, 71, 64
1, 186956, Note_off_c, 2, 69, 64
1, 186957, Note_off_c, 4, 59, 64
1, 186957, Note_off_c, 4, 62, 64
1, 186963, Note_on_c, 2, 71, 127
1, 186964, Note_on_c, 2, 69, 127
1, 186964, Note_on_c, 4, 64, 124
1, 186965, Note_on_c, 4, 57, 124
1, 186965, Note_on_c, 4, 62, 125
1, 187149, Note_off_c, 4, 62, 64
1, 187149, Note_off_c, 4, 64, 64
1, 187150, Note_off_c, 2, 69, 64
1, 187150, Note_off_c, 2, 71, 64
1, 187151, Note_on_c, 4, 61, 126
1, 187151, Note_on_c, 2, 69, 127
1, 187453, Note_on_c, 3, 71, 127
1, 187499, Note_off_c, 2, 69, 64
1, 187551, Note_off_c, 3, 71, 64
1, 187562, Note_on_c, 3, 69, 127
1, 187620, Note_off_c, 3, 69, 64
1, 187635, Note_on_c, 3, 69, 127
1, 187674, Note_off_c, 3, 69, 64
1, 187688, Note_on_c, 3, 69, 127
1, 187723, Note_off_c, 3, 69, 64
1, 187730, Note_on_c, 3, 71, 127
1, 187805, Note_off_c, 4, 61, 64
1, 187806, Note_off_c, 4, 57, 64
1, 187814, Note_on_c, 3, 73, 127
1, 187824, Note_off_c, 3, 71, 64
1, 187887, Note_on_c, 3, 74, 127
1, 187896, Note_off_c, 3, 73, 64
1, 187929, Note_on_c, 3, 73, 127
1, 187950, Note_off_c, 3, 74, 64
1, 187977, Note_on_c, 3, 71, 127
1, 188000, Note_off_c, 3, 73, 64
1, 188025, Note_on_c, 3, 73, 127
1, 188044, Note_off_c, 3, 71, 64
1, 188064, Note_on_c, 3, 74, 127
1, 188087, Note_off_c, 3, 73, 64
1, 188156, Note_on_c, 2, 76, 127
1, 188156, Note_on_c, 4, 57, 124
1, 188160, Note_off_c, 3, 74, 64
1, 188226, Note_on_c, 3, 69, 127
1, 188289, Note_on_c, 4, 61, 126
1, 188310, Note_off_c, 4, 57, 64
1, 188334, Note_off_c, 3, 69, 64
1, 188340, Note_off_c, 2, 76, 64
1, 188344, Note_on_c, 3, 69, 127
1, 188344, Note_on_c, 1, 78, 127
1, 188372, Note_on_c, 2, 76, 127
1, 188374, Note_off_c, 1, 78, 64
1, 188399, Note_on_c, 3, 74, 127
1, 188399, Note_on_c, 4, 57, 124
1, 188401, Note_off_c, 2, 76, 64
1, 188419, Note_off_c, 4, 61, 64
1, 188442, Note_off_c, 3, 69, 64
1, 188451, Note_on_c, 3, 69, 127
1, 188501, Note_on_c, 3, 73, 127
1, 188502, Note_on_c, 4, 59, 126
1, 188512, Note_off_c, 3, 74, 64
1, 188520, Note_off_c, 4, 57, 64
1, 188544, Note_off_c, 3, 69, 64
1, 188556, Note_on_c, 3, 69, 127
1, 188610, Note_on_c, 3, 71, 127
1, 188610, Note_on_c, 4, 57, 124
1, 188622, Note_off_c, 3, 73, 64
1, 188630, Note_off_c, 4, 59, 64
1, 188653, Note_off_c, 3, 69, 64
1, 188663, Note_on_c, 3, 67, 127
1, 188715, Note_on_c, 3, 69, 127
1, 188715, Note_on_c, 4, 61, 126
1, 188725, Note_off_c, 3, 71, 64
1, 188733, Note_off_c, 4, 57, 64
1, 188760, Note_off_c, 3, 67, 64
1, 188771, Note_on_c, 3, 67, 127
1, 188817, Note_off_c, 3, 69, 64
1, 188823, Note_on_c, 3, 69, 127
1, 188824, Note_on_c, 4, 57, 124
1, 188839, Note_off_c, 4, 61, 64
1, 188862, Note_off_c, 3, 67, 64
1, 188872, Note_on_c, 3, 66, 127
1, 188926, Note_on_c, 4, 62, 125
1, 188943, Note_off_c, 4, 57, 64
1, 188968, Note_off_c, 3, 66, 64
1, 188978, Note_off_c, 3, 69, 64
1, 188978, Note_on_c, 1, 78, 127
1, 188978, Note_on_c, 3, 66, 127
1, 189028, Note_off_c, 1, 78, 64
1, 189035, Note_off_c, 4, 52, 64
1, 189035, Note_on_c, 1, 78, 127
1, 189036, Note_on_c, 4, 54, 124
1, 189051, Note_off_c, 4, 62, 64
1, 189085, Note_on_c, 4, 62, 125
1, 189103, Note_off_c, 3, 66, 64
1, 189135, Note_on_c, 4, 57, 124
1, 189149, Note_off_c, 4, 54, 64
1, 189169, Note_off_c, 4, 62, 64
1, 189180, Note_on_c, 4, 62, 125
1, 189219, Note_off_c, 4, 62, 64
1, 189224, Note_on_c, 4, 62, 125
1, 189224, Note_on_c, 4, 50, 124
1, 189240, Note_off_c, 4, 57, 64
1, 189269, Note_on_c, 4, 57, 124
1, 189315, Note_on_c, 4, 54, 124
1, 189330, Note_off_c, 4, 50, 64
1, 189351, Note_off_c, 4, 57, 64
1, 189359, Note_on_c, 4, 57, 124
1, 189405, Note_off_c, 4, 62, 64
1, 189411, Note_off_c, 1, 78, 64
1, 189411, Note_off_c, 4, 40, 64
1, 189412, Note_on_c, 4, 45, 122
1, 189412, Note_on_c, 4, 62, 125
1, 189442, Note_off_c, 4, 54, 64
1, 189461, Note_on_c, 4, 66, 127
1, 189476, Note_off_c, 4, 62, 64
1, 189486, Note_off_c, 4, 57, 64
1, 189505, Note_on_c, 4, 54, 124
1, 189505, Note_on_c, 4, 64, 127
1, 189521, Note_off_c, 4, 66, 64
1, 189558, Note_on_c, 4, 62, 125
1, 189575, Note_off_c, 4, 64, 64
1, 189602, Note_on_c, 4, 64, 127
1, 189602, Note_on_c, 4, 50, 124
1, 189613, Note_off_c, 4, 62, 64
1, 189627, Note_off_c, 4, 45, 64
1, 189640, Note_on_c, 4, 66, 127
1, 189654, Note_off_c, 4, 64, 64
1, 189663, Note_off_c, 4, 54, 64
1, 189677, Note_on_c, 3, 67, 127
1, 189677, Note_on_c, 4, 54, 124
1, 189689, Note_off_c, 4, 66, 64
1, 189712, Note_on_c, 3, 69, 127
1, 189724, Note_off_c, 3, 67, 64
1, 189747, Note_on_c, 4, 45, 122
1, 189747, Note_on_c, 3, 71, 127
1, 189757, Note_off_c, 3, 69, 64
1, 189769, Note_off_c, 4, 50, 64
1, 189780, Note_on_c, 3, 73, 127
1, 189792, Note_off_c, 3, 71, 64
1, 189802, Note_off_c, 4, 54, 64
1, 189815, Note_on_c, 3, 74, 127
1, 189816, Note_on_c, 4, 54, 124
1, 189826, Note_off_c, 3, 73, 64
1, 189849, Note_on_c, 3, 76, 127
1, 189860, Note_off_c, 3, 74, 64
1, 189881, Note_on_c, 3, 78, 127
1, 189882, Note_on_c, 4, 50, 124
1, 189892, Note_off_c, 3, 76, 64
1, 189901, Note_off_c, 4, 45, 64
1, 189921, Note_off_c, 3, 78, 64
1, 189921, Note_on_c, 3, 79, 127
1, 189929, Note_off_c, 4, 54, 64
1, 189941, Note_on_c, 4, 54, 124
1, 189960, Note_off_c, 3, 79, 64
1, 189960, Note_on_c, 3, 81, 127
1, 189997, Note_off_c, 3, 81, 64
1, 189998, Note_on_c, 4, 45, 122
1, 189998, Note_on_c, 3, 83, 127
1, 190016, Note_off_c, 4, 50, 64
1, 190041, Note_off_c, 4, 54, 64
1, 190050, Note_on_c, 1, 85, 127
1, 190051, Note_on_c, 4, 54, 124
1, 190063, Note_off_c, 3, 83, 64
1, 190097, Note_on_c, 1, 86, 127
1, 190098, Note_on_c, 4, 50, 124
1, 190108, Note_off_c, 1, 85, 64
1, 190112, Note_off_c, 4, 45, 64
1, 190133, Note_off_c, 4, 54, 64
1, 190140, Note_on_c, 4, 54, 124
1, 190152, Note_off_c, 1, 86, 64
1, 190156, Note_on_c, 1, 78, 127
1, 190185, Note_off_c, 4, 50, 64
1, 190221, Note_on_c, 1, 81, 127
1, 190222, Note_on_c, 4, 50, 124
1, 190222, Note_on_c, 4, 45, 122
1, 190262, Note_off_c, 1, 78, 64
1, 190276, Note_off_c, 4, 54, 64
1, 190374, Note_off_c, 1, 81, 64
1, 190380, Note_on_c, 1, 78, 127
1, 190428, Note_off_c, 4, 45, 64
1, 190428, Note_off_c, 4, 50, 64
1, 190432, Note_on_c, 2, 76, 127
1, 190433, Note_on_c, 4, 45, 122
1, 190433, Note_on_c, 4, 49, 124
1, 190439, Note_off_c, 1, 78, 64
1, 190529, Note_off_c, 2, 76, 64
1, 190535, Note_on_c, 2, 76, 127
1, 190635, Note_off_c, 2, 76, 64
1, 190641, Note_on_c, 2, 76, 127
1, 190742, Note_off_c, 2, 76, 64
1, 190746, Note_on_c, 2, 76, 127
1, 190838, Note_off_c, 2, 76, 64
1, 190843, Note_on_c, 4, 64, 127
1, 190843, Note_on_c, 1, 78, 127
1, 190844, Note_on_c, 4, 61, 127
1, 190844, Note_on_c, 4, 57, 127
1, 190856, Note_off_c, 4, 49, 64
1, 190886, Note_on_c, 2, 76, 127
1, 190894, Note_off_c, 1, 78, 64
1, 190935, Note_on_c, 2, 73, 127
1, 190942, Note_off_c, 2, 76, 64
1, 190991, Note_on_c, 3, 71, 127
1, 190997, Note_off_c, 2, 73, 64
1, 191037, Note_on_c, 3, 69, 127
1, 191043, Note_off_c, 3, 71, 64
1, 191134, Note_off_c, 3, 69, 64
1, 191134, Note_on_c, 2, 76, 127
1, 191222, Note_off_c, 2, 76, 64
1, 191227, Note_on_c, 2, 76, 127
1, 191316, Note_off_c, 2, 76, 64
1, 191323, Note_on_c, 2, 76, 127
1, 191413, Note_off_c, 2, 76, 64
1, 191413, Note_off_c, 4, 64, 64
1, 191418, Note_on_c, 4, 64, 127
1, 191418, Note_on_c, 1, 78, 127
1, 191419, Note_on_c, 4, 62, 127
1, 191419, Note_on_c, 4, 59, 127
1, 191431, Note_off_c, 4, 57, 64
1, 191432, Note_off_c, 4, 61, 64
1, 191459, Note_on_c, 2, 76, 127
1, 191466, Note_off_c, 1, 78, 64
1, 191507, Note_on_c, 2, 74, 127
1, 191516, Note_off_c, 2, 76, 64
1, 191562, Note_on_c, 3, 71, 127
1, 191571, Note_off_c, 2, 74, 64
1, 191617, Note_on_c, 3, 69, 127
1, 191625, Note_off_c, 3, 71, 64
1, 191713, Note_on_c, 2, 76, 127
1, 191729, Note_off_c, 3, 69, 64
1, 191805, Note_off_c, 2, 76, 64
1, 191809, Note_on_c, 2, 76, 127
1, 191902, Note_off_c, 2, 76, 64
1, 191905, Note_on_c, 2, 76, 127
1, 191998, Note_off_c, 2, 76, 64
1, 191998, Note_off_c, 4, 64, 64
1, 192002, Note_on_c, 1, 78, 127
1, 192003, Note_on_c, 4, 64, 127
1, 192003, Note_on_c, 4, 61, 127
1, 192004, Note_on_c, 4, 57, 127
1, 192016, Note_off_c, 4, 59, 64
1, 192016, Note_off_c, 4, 62, 64
1, 192046, Note_on_c, 2, 76, 127
1, 192054, Note_off_c, 1, 78, 64
1, 192091, Note_on_c, 2, 73, 127
1, 192100, Note_off_c, 2, 76, 64
1, 192139, Note_on_c, 3, 69, 127
1, 192150, Note_off_c, 2, 73, 64
1, 192183, Note_off_c, 4, 64, 64
1, 192187, Note_on_c, 4, 64, 127
1, 192187, Note_on_c, 1, 78, 127
1, 192188, Note_on_c, 4, 59, 127
1, 192188, Note_on_c, 4, 56, 127
1, 192206, Note_off_c, 4, 57, 64
1, 192206, Note_off_c, 4, 61, 64
1, 192216, Note_off_c, 3, 69, 64
1, 192230, Note_on_c, 2, 76, 127
1, 192239, Note_off_c, 1, 78, 64
1, 192275, Note_on_c, 2, 74, 127
1, 192285, Note_off_c, 2, 76, 64
1, 192327, Note_on_c, 3, 71, 127
1, 192338, Note_off_c, 2, 74, 64
1, 192371, Note_off_c, 4, 64, 64
1, 192375, Note_on_c, 4, 64, 127
1, 192375, Note_on_c, 1, 78, 127
1, 192376, Note_on_c, 4, 61, 127
1, 192376, Note_on_c, 4, 57, 127
1, 192394, Note_off_c, 4, 56, 64
1, 192395, Note_off_c, 4, 59, 64
1, 192405, Note_off_c, 3, 71, 64
1, 192418, Note_on_c, 2, 76, 127
1, 192428, Note_off_c, 1, 78, 64
1, 192464, Note_on_c, 2, 73, 127
1, 192474, Note_off_c, 2, 76, 64
1, 192510, Note_on_c, 3, 69, 127
1, 192520, Note_off_c, 2, 73, 64
1, 192528, Note_off_c, 4, 45, 64
1, 192556, Note_off_c, 4, 57, 64
1, 192557, Note_off_c, 4, 64, 64
1, 192557, Note_off_c, 4, 61, 64
1, 192561, Note_on_c, 2, 73, 127
1, 192562, Note_on_c, 4, 61, 127
1, 192562, Note_on_c, 4, 57, 127
1, 192563, Note_on_c, 4, 52, 127
1, 192569, Note_off_c, 3, 69, 64
1, 192784, Note_off_c, 2, 73, 64
1, 192790, Note_on_c, 4, 59, 126
1, 192790, Note_on_c, 3, 71, 127
1, 192791, Note_on_c, 4, 56, 124
1, 192814, Note_off_c, 4, 57, 64
1, 192814, Note_off_c, 4, 61, 64
1, 192853, Note_on_c, 4, 64, 124
1, 192924, Note_off_c, 3, 71, 64
1, 192924, Note_on_c, 2, 76, 127
1, 192975, Note_off_c, 4, 64, 64
1, 192984, Note_on_c, 4, 64, 124
1, 193044, Note_off_c, 2, 76, 64
1, 193044, Note_on_c, 2, 75, 127
1, 193085, Note_off_c, 4, 64, 64
1, 193097, Note_on_c, 4, 64, 124
1, 193149, Note_off_c, 2, 75, 64
1, 193149, Note_on_c, 2, 74, 127
1, 193188, Note_off_c, 4, 64, 64
1, 193200, Note_on_c, 4, 64, 124
1, 193251, Note_off_c, 2, 74, 64
1, 193252, Note_off_c, 4, 59, 64
1, 193252, Note_off_c, 4, 56, 64
1, 193253, Note_on_c, 2, 73, 127
1, 193253, Note_on_c, 4, 57, 124
1, 193297, Note_off_c, 4, 64, 64
1, 193302, Note_on_c, 4, 64, 124
1, 193354, Note_on_c, 4, 61, 126
1, 193359, Note_off_c, 4, 64, 64
1, 193368, Note_off_c, 4, 57, 64
1, 193401, Note_on_c, 4, 64, 124
1, 193407, Note_off_c, 4, 61, 64
1, 193436, Note_off_c, 2, 73, 64
1, 193444, Note_on_c, 2, 73, 127
1, 193444, Note_on_c, 4, 57, 124
1, 193482, Note_off_c, 4, 64, 64
1, 193491, Note_on_c, 4, 64, 124
1, 193536, Note_on_c, 4, 61, 126
1, 193543, Note_off_c, 4, 64, 64
1, 193551, Note_off_c, 4, 57, 64
1, 193586, Note_on_c, 4, 64, 124
1, 193591, Note_off_c, 4, 61, 64
1, 193630, Note_on_c, 4, 57, 124
1, 193663, Note_off_c, 2, 73, 64
1, 193670, Note_off_c, 4, 64, 64
1, 193678, Note_on_c, 2, 74, 127
1, 193679, Note_on_c, 4, 64, 124
1, 193707, Note_on_c, 2, 73, 127
1, 193725, Note_off_c, 2, 74, 64
1, 193740, Note_on_c, 3, 71, 127
1, 193741, Note_on_c, 4, 59, 126
1, 193754, Note_off_c, 2, 73, 64
1, 193761, Note_off_c, 4, 57, 64
1, 193770, Note_on_c, 2, 73, 127
1, 193785, Note_off_c, 3, 71, 64
1, 193787, Note_off_c, 4, 64, 64
1, 193795, Note_on_c, 2, 74, 127
1, 193796, Note_on_c, 4, 64, 124
1, 193807, Note_off_c, 2, 73, 64
1, 193848, Note_on_c, 1, 78, 127
1, 193848, Note_on_c, 4, 61, 126
1, 193854, Note_off_c, 4, 64, 64
1, 193862, Note_off_c, 2, 74, 64
1, 193863, Note_off_c, 4, 59, 64
1, 193896, Note_on_c, 4, 64, 124
1, 193901, Note_off_c, 4, 61, 64
1, 193942, Note_on_c, 2, 76, 127
1, 193943, Note_on_c, 4, 57, 124
1, 193952, Note_off_c, 1, 78, 64
1, 193983, Note_off_c, 4, 64, 64
1, 193995, Note_on_c, 4, 64, 124
1, 194035, Note_on_c, 1, 87, 127
1, 194036, Note_on_c, 4, 61, 126
1, 194043, Note_off_c, 2, 76, 64
1, 194050, Note_off_c, 4, 64, 64
1, 194050, Note_off_c, 4, 57, 64
1, 194077, Note_on_c, 4, 64, 124
1, 194093, Note_off_c, 4, 61, 64
1, 194120, Note_on_c, 1, 88, 127
1, 194120, Note_on_c, 4, 57, 124
1, 194128, Note_off_c, 1, 87, 64
1, 194155, Note_off_c, 4, 64, 64
1, 194163, Note_on_c, 2, 76, 127
1, 194163, Note_on_c, 4, 64, 124
1, 194167, Note_off_c, 1, 88, 64
1, 194204, Note_on_c, 1, 78, 127
1, 194205, Note_on_c, 4, 61, 126
1, 194211, Note_off_c, 4, 64, 64
1, 194211, Note_off_c, 2, 76, 64
1, 194219, Note_off_c, 4, 57, 64
1, 194253, Note_on_c, 2, 76, 127
1, 194261, Note_off_c, 1, 78, 64
1, 194267, Note_off_c, 4, 61, 64
1, 194267, Note_on_c, 4, 64, 124
1, 194294, Note_on_c, 2, 74, 127
1, 194295, Note_on_c, 4, 57, 124
1, 194303, Note_off_c, 2, 76, 64
1, 194324, Note_off_c, 4, 64, 64
1, 194340, Note_on_c, 4, 64, 124
1, 194340, Note_on_c, 2, 73, 127
1, 194348, Note_off_c, 2, 74, 64
1, 194381, Note_off_c, 2, 73, 64
1, 194387, Note_on_c, 2, 73, 127
1, 194387, Note_on_c, 4, 56, 124
1, 194401, Note_off_c, 4, 57, 64
1, 194420, Note_off_c, 4, 64, 64
1, 194432, Note_on_c, 4, 64, 124
1, 194472, Note_off_c, 2, 73, 64
1, 194478, Note_on_c, 3, 71, 127
1, 194478, Note_on_c, 4, 62, 125
1, 194483, Note_off_c, 4, 64, 64
1, 194492, Note_off_c, 4, 56, 64
1, 194521, Note_on_c, 4, 64, 124
1, 194527, Note_off_c, 4, 62, 64
1, 194565, Note_on_c, 4, 56, 124
1, 194598, Note_off_c, 4, 64, 64
1, 194607, Note_on_c, 4, 64, 124
1, 194652, Note_off_c, 3, 71, 64
1, 194655, Note_on_c, 3, 71, 127
1, 194656, Note_on_c, 4, 62, 125
1, 194664, Note_off_c, 4, 64, 64
1, 194672, Note_off_c, 4, 56, 64
1, 194700, Note_on_c, 4, 64, 124
1, 194706, Note_off_c, 4, 62, 64
1, 194741, Note_off_c, 3, 71, 64
1, 194747, Note_on_c, 2, 73, 127
1, 194747, Note_on_c, 4, 56, 124
1, 194774, Note_on_c, 3, 71, 127
1, 194780, Note_off_c, 2, 73, 64
1, 194792, Note_off_c, 4, 64, 64
1, 194797, Note_off_c, 3, 71, 64
1, 194801, Note_on_c, 3, 71, 127
1, 194802, Note_on_c, 4, 64, 124
1, 194844, Note_off_c, 3, 71, 64
1, 194848, Note_on_c, 3, 71, 127
1, 194849, Note_on_c, 4, 57, 124
1, 194865, Note_off_c, 4, 56, 64
1, 194888, Note_off_c, 4, 64, 64
1, 194897, Note_on_c, 2, 73, 127
1, 194898, Note_on_c, 4, 64, 124
1, 194908, Note_off_c, 3, 71, 64
1, 194944, Note_on_c, 2, 76, 127
1, 194945, Note_on_c, 4, 59, 126
1, 194955, Note_off_c, 2, 73, 64
1, 194963, Note_off_c, 4, 57, 64
1, 194988, Note_off_c, 4, 64, 64
1, 194997, Note_on_c, 4, 64, 124
1, 195037, Note_off_c, 2, 76, 64
1, 195041, Note_on_c, 2, 74, 127
1, 195042, Note_on_c, 4, 63, 124
1, 195046, Note_off_c, 4, 64, 64
1, 195056, Note_off_c, 4, 59, 64
1, 195084, Note_on_c, 4, 64, 124
1, 195092, Note_off_c, 4, 63, 64
1, 195129, Note_on_c, 1, 85, 127
1, 195129, Note_on_c, 4, 56, 124
1, 195143, Note_off_c, 2, 74, 64
1, 195164, Note_off_c, 4, 64, 64
1, 195174, Note_on_c, 4, 64, 124
1, 195187, Note_off_c, 4, 52, 64
1, 195214, Note_on_c, 1, 86, 127
1, 195215, Note_on_c, 4, 59, 126
1, 195227, Note_off_c, 4, 56, 64
1, 195227, Note_off_c, 1, 85, 64
1, 195252, Note_off_c, 4, 64, 64
1, 195260, Note_on_c, 2, 74, 127
1, 195261, Note_on_c, 4, 64, 124
1, 195265, Note_off_c, 1, 86, 64
1, 195303, Note_on_c, 2, 76, 127
1, 195304, Note_on_c, 4, 52, 124
1, 195316, Note_off_c, 2, 74, 64
1, 195317, Note_off_c, 4, 59, 64
1, 195340, Note_off_c, 4, 64, 64
1, 195348, Note_on_c, 2, 74, 127
1, 195348, Note_on_c, 4, 64, 124
1, 195360, Note_off_c, 2, 76, 64
1, 195389, Note_on_c, 2, 73, 127
1, 195389, Note_on_c, 4, 56, 124
1, 195404, Note_off_c, 2, 74, 64
1, 195405, Note_off_c, 4, 52, 64
1, 195422, Note_off_c, 4, 64, 64
1, 195432, Note_on_c, 3, 71, 127
1, 195432, Note_on_c, 4, 64, 124
1, 195444, Note_off_c, 2, 73, 64
1, 195473, Note_off_c, 3, 71, 64
1, 195479, Note_on_c, 3, 71, 127
1, 195480, Note_on_c, 4, 54, 124
1, 195495, Note_off_c, 4, 56, 64
1, 195515, Note_off_c, 4, 64, 64
1, 195524, Note_on_c, 4, 64, 124
1, 195564, Note_off_c, 3, 71, 64
1, 195566, Note_on_c, 3, 69, 127
1, 195567, Note_on_c, 4, 63, 124
1, 195571, Note_off_c, 4, 64, 64
1, 195579, Note_off_c, 4, 54, 64
1, 195610, Note_on_c, 4, 64, 124
1, 195615, Note_off_c, 4, 63, 64
1, 195650, Note_off_c, 3, 69, 64
1, 195654, Note_on_c, 3, 69, 127
1, 195654, Note_on_c, 4, 54, 124
1, 195691, Note_off_c, 4, 64, 64
1, 195695, Note_off_c, 3, 69, 64
1, 195697, Note_on_c, 3, 69, 127
1, 195697, Note_on_c, 4, 64, 124
1, 195736, Note_on_c, 2, 74, 127
1, 195737, Note_on_c, 4, 63, 124
1, 195743, Note_off_c, 4, 64, 64
1, 195744, Note_off_c, 3, 69, 64
1, 195752, Note_off_c, 4, 54, 64
1, 195785, Note_on_c, 4, 64, 124
1, 195785, Note_on_c, 2, 73, 127
1, 195791, Note_off_c, 4, 63, 64
1, 195792, Note_off_c, 2, 74, 64
1, 195825, Note_on_c, 3, 71, 127
1, 195825, Note_on_c, 4, 56, 124
1, 195829, Note_off_c, 2, 73, 64
1, 195864, Note_off_c, 4, 64, 64
1, 195872, Note_on_c, 3, 71, 127
1, 195873, Note_on_c, 4, 64, 124
1, 195876, Note_off_c, 3, 71, 64
1, 195915, Note_on_c, 2, 76, 127
1, 195916, Note_on_c, 4, 63, 124
1, 195922, Note_off_c, 4, 64, 64
1, 195922, Note_off_c, 3, 71, 64
1, 195933, Note_off_c, 4, 56, 64
1, 195969, Note_on_c, 2, 74, 127
1, 195969, Note_on_c, 4, 64, 124
1, 195973, Note_off_c, 4, 63, 64
1, 195974, Note_off_c, 2, 76, 64
1, 196009, Note_on_c, 2, 72, 127
1, 196010, Note_on_c, 4, 57, 124
1, 196016, Note_off_c, 2, 74, 64
1, 196050, Note_off_c, 4, 64, 64
1, 196060, Note_on_c, 2, 73, 127
1, 196066, Note_off_c, 2, 72, 64
1, 196110, Note_on_c, 1, 81, 127
1, 196116, Note_off_c, 2, 73, 64
1, 196154, Note_off_c, 1, 81, 64
1, 196158, Note_on_c, 1, 81, 127
1, 196204, Note_off_c, 1, 81, 64
1, 196210, Note_on_c, 1, 81, 127
1, 196252, Note_off_c, 1, 81, 64
1, 196256, Note_on_c, 1, 81, 127
1, 196297, Note_off_c, 1, 81, 64
1, 196303, Note_on_c, 1, 81, 127
1, 196345, Note_off_c, 1, 81, 64
1, 196351, Note_on_c, 1, 81, 127
1, 196393, Note_off_c, 1, 81, 64
1, 196397, Note_off_c, 4, 57, 64
1, 196398, Note_on_c, 4, 59, 126
1, 196398, Note_on_c, 1, 81, 127
1, 196399, Note_on_c, 4, 54, 124
1, 196399, Note_on_c, 4, 50, 124
1, 196448, Note_on_c, 1, 78, 127
1, 196464, Note_off_c, 1, 81, 64
1, 196496, Note_on_c, 2, 74, 127
1, 196513, Note_off_c, 1, 78, 64
1, 196540, Note_on_c, 3, 71, 127
1, 196556, Note_off_c, 2, 74, 64
1, 196586, Note_off_c, 4, 59, 64
1, 196592, Note_on_c, 2, 76, 127
1, 196593, Note_on_c, 4, 62, 125
1, 196593, Note_on_c, 4, 59, 126
1, 196594, Note_on_c, 4, 52, 124
1, 196609, Note_off_c, 3, 71, 64
1, 196615, Note_off_c, 4, 50, 64
1, 196616, Note_off_c, 4, 54, 64
1, 196647, Note_on_c, 1, 78, 127
1, 196655, Note_off_c, 2, 76, 64
1, 196678, Note_on_c, 2, 76, 127
1, 196691, Note_off_c, 1, 78, 64
1, 196708, Note_on_c, 2, 75, 127
1, 196726, Note_off_c, 2, 76, 64
1, 196745, Note_on_c, 2, 76, 127
1, 196762, Note_off_c, 2, 75, 64
1, 196781, Note_on_c, 1, 78, 127
1, 196793, Note_off_c, 2, 76, 64
1, 196822, Note_on_c, 3, 69, 127
1, 196854, Note_off_c, 1, 78, 64
1, 196983, Note_off_c, 4, 59, 64
1, 196983, Note_off_c, 4, 62, 64
1, 196988, Note_on_c, 4, 62, 125
1, 196988, Note_on_c, 4, 59, 126
1, 197079, Note_off_c, 3, 69, 64
1, 197083, Note_on_c, 2, 71, 127
1, 197083, Note_on_c, 2, 69, 127
1, 197189, Note_off_c, 2, 69, 64
1, 197190, Note_off_c, 2, 71, 64
1, 197190, Note_off_c, 4, 59, 64
1, 197191, Note_off_c, 4, 62, 64
1, 197191, Note_off_c, 4, 52, 64
1, 197193, Note_on_c, 2, 71, 127
1, 197194, Note_on_c, 4, 64, 124
1, 197194, Note_on_c, 2, 69, 127
1, 197195, Note_on_c, 4, 57, 124
1, 197195, Note_on_c, 4, 61, 126
1, 197355, Note_off_c, 2, 69, 64
1, 197356, Note_off_c, 2, 71, 64
1, 197358, Note_on_c, 2, 72, 127
1, 197408, Note_off_c, 4, 61, 64
1, 197412, Note_on_c, 2, 73, 127
1, 197412, Note_on_c, 2, 69, 127
1, 197413, Note_on_c, 4, 61, 126
1, 197424, Note_off_c, 2, 72, 64
1, 197606, Note_off_c, 4, 64, 64
1, 197610, Note_off_c, 4, 57, 64
1, 197611, Note_on_c, 4, 45, 118
1, 197611, Note_on_c, 4, 64, 124
1, 197644, Note_off_c, 4, 61, 64
1, 197645, Note_off_c, 2, 69, 64
1, 197645, Note_off_c, 2, 73, 64
1, 197672, Note_on_c, 2, 69, 127
1, 197673, Note_on_c, 4, 49, 124
1, 197679, Note_off_c, 4, 64, 64
1, 197719, Note_on_c, 2, 73, 127
1, 197720, Note_on_c, 4, 52, 124
1, 197726, Note_off_c, 2, 69, 64
1, 197736, Note_off_c, 4, 49, 64
1, 197766, Note_on_c, 4, 57, 124
1, 197785, Note_off_c, 4, 52, 64
1, 197808, Note_off_c, 2, 73, 64
1, 197820, Note_off_c, 4, 45, 64
1, 197820, Note_on_c, 2, 73, 127
1, 197821, Note_on_c, 4, 45, 122
1, 197838, Note_off_c, 4, 57, 64
1, 197857, Note_on_c, 2, 76, 127
1, 197863, Note_off_c, 2, 73, 64
1, 197875, Note_on_c, 4, 49, 124
1, 197894, Note_on_c, 2, 74, 127
1, 197902, Note_off_c, 2, 76, 64
1, 197927, Note_on_c, 2, 73, 127
1, 197928, Note_on_c, 4, 52, 124
1, 197933, Note_off_c, 2, 74, 64
1, 197943, Note_off_c, 4, 49, 64
1, 197962, Note_on_c, 2, 74, 127
1, 197968, Note_off_c, 2, 73, 64
1, 197977, Note_on_c, 4, 57, 124
1, 197995, Note_off_c, 4, 52, 64
1, 197995, Note_on_c, 2, 76, 127
1, 198001, Note_off_c, 2, 74, 64
1, 198033, Note_off_c, 4, 45, 64
1, 198033, Note_on_c, 2, 74, 127
1, 198034, Note_on_c, 4, 47, 122
1, 198038, Note_off_c, 2, 76, 64
1, 198048, Note_off_c, 4, 57, 64
1, 198065, Note_on_c, 1, 78, 127
1, 198071, Note_off_c, 2, 74, 64
1, 198084, Note_on_c, 4, 50, 124
1, 198105, Note_on_c, 2, 76, 127
1, 198111, Note_off_c, 1, 78, 64
1, 198138, Note_on_c, 2, 74, 127
1, 198139, Note_on_c, 4, 56, 124
1, 198146, Note_off_c, 2, 76, 64
1, 198158, Note_off_c, 4, 50, 64
1, 198179, Note_on_c, 2, 76, 127
1, 198187, Note_off_c, 2, 74, 64
1, 198200, Note_on_c, 4, 59, 126
1, 198220, Note_off_c, 4, 56, 64
1, 198220, Note_on_c, 1, 78, 127
1, 198230, Note_off_c, 2, 76, 64
1, 198272, Note_off_c, 4, 47, 64
1, 198273, Note_on_c, 4, 57, 124
1, 198273, Note_on_c, 2, 76, 127
1, 198274, Note_on_c, 4, 49, 124
1, 198286, Note_off_c, 4, 59, 64
1, 198286, Note_off_c, 1, 78, 64
1, 198312, Note_on_c, 3, 69, 127
1, 198336, Note_off_c, 2, 76, 64
1, 198356, Note_on_c, 3, 71, 127
1, 198379, Note_off_c, 3, 69, 64
1, 198400, Note_on_c, 3, 73, 127
1, 198419, Note_off_c, 3, 71, 64
1, 198443, Note_on_c, 3, 74, 127
1, 198459, Note_off_c, 3, 73, 64
1, 198479, Note_on_c, 3, 76, 127
1, 198496, Note_off_c, 3, 74, 64
1, 198517, Note_on_c, 3, 78, 127
1, 198534, Note_off_c, 3, 76, 64
1, 198552, Note_on_c, 3, 80, 127
1, 198565, Note_off_c, 3, 78, 64
1, 198583, Note_on_c, 3, 81, 127
1, 198596, Note_off_c, 3, 80, 64
1, 198613, Note_on_c, 1, 83, 127
1, 198624, Note_off_c, 3, 81, 64
1, 198642, Note_on_c, 1, 85, 127
1, 198661, Note_off_c, 1, 83, 64
1, 198675, Note_on_c, 1, 83, 127
1, 198690, Note_off_c, 1, 85, 64
1, 198709, Note_on_c, 1, 81, 127
1, 198726, Note_off_c, 1, 83, 64
1, 198745, Note_on_c, 1, 80, 127
1, 198765, Note_off_c, 1, 81, 64
1, 198788, Note_on_c, 1, 78, 127
1, 198807, Note_off_c, 1, 80, 64
1, 198828, Note_on_c, 2, 77, 127
1, 198846, Note_off_c, 1, 78, 64
1, 198857, Note_off_c, 4, 57, 64
1, 198857, Note_off_c, 4, 49, 64
1, 198864, Note_on_c, 4, 57, 124
1, 198864, Note_on_c, 1, 78, 127
1, 198865, Note_on_c, 4, 50, 124
1, 198882, Note_off_c, 2, 77, 64
1, 198901, Note_on_c, 1, 80, 127
1, 198918, Note_off_c, 1, 78, 64
1, 198936, Note_on_c, 1, 81, 127
1, 198951, Note_off_c, 1, 80, 64
1, 198972, Note_on_c, 1, 80, 127
1, 198988, Note_off_c, 1, 81, 64
1, 199007, Note_on_c, 1, 83, 127
1, 199022, Note_off_c, 1, 80, 64
1, 199044, Note_on_c, 1, 81, 127
1, 199059, Note_off_c, 1, 83, 64
1, 199080, Note_on_c, 1, 80, 127
1, 199099, Note_off_c, 1, 81, 64
1, 199122, Note_on_c, 1, 78, 127
1, 199145, Note_off_c, 1, 80, 64
1, 199164, Note_off_c, 4, 50, 64
1, 199165, Note_off_c, 4, 57, 64
1, 199185, Note_on_c, 2, 76, 127
1, 199185, Note_on_c, 4, 61, 126
1, 199186, Note_on_c, 4, 52, 124
1, 199203, Note_off_c, 1, 78, 64
1, 199248, Note_on_c, 1, 88, 127
1, 199269, Note_off_c, 2, 76, 64
1, 199308, Note_on_c, 1, 85, 127
1, 199315, Note_off_c, 1, 88, 64
1, 199361, Note_on_c, 1, 81, 127
1, 199369, Note_off_c, 1, 85, 64
1, 199419, Note_off_c, 4, 61, 64
1, 199419, Note_off_c, 4, 52, 64
1, 199426, Note_on_c, 2, 76, 127
1, 199426, Note_on_c, 4, 61, 126
1, 199427, Note_on_c, 4, 52, 124
1, 199435, Note_off_c, 1, 81, 64
1, 199487, Note_on_c, 1, 81, 127
1, 199493, Note_off_c, 2, 76, 64
1, 199543, Note_on_c, 2, 76, 127
1, 199550, Note_off_c, 1, 81, 64
1, 199600, Note_on_c, 2, 73, 127
1, 199608, Note_off_c, 2, 76, 64
1, 199648, Note_off_c, 4, 52, 64
1, 199649, Note_off_c, 4, 61, 64
1, 199653, Note_on_c, 2, 76, 127
1, 199654, Note_on_c, 4, 62, 125
1, 199654, Note_on_c, 4, 56, 124
1, 199655, Note_on_c, 4, 52, 124
1, 199661, Note_off_c, 2, 73, 64
1, 199705, Note_on_c, 2, 74, 127
1, 199713, Note_off_c, 2, 76, 64
1, 199761, Note_on_c, 2, 73, 127
1, 199770, Note_off_c, 2, 74, 64
1, 199832, Note_on_c, 3, 71, 127
1, 199839, Note_off_c, 2, 73, 64
1, 199887, Note_off_c, 3, 71, 64
1, 199888, Note_off_c, 4, 56, 64
1, 199888, Note_off_c, 4, 62, 64
1, 199894, Note_on_c, 3, 71, 127
1, 199895, Note_on_c, 4, 57, 124
1, 199895, Note_on_c, 3, 69, 127
1, 199912, Note_on_c, 4, 62, 125
1, 200122, Note_off_c, 3, 71, 64
1, 200122, Note_off_c, 3, 69, 64
1, 200132, Note_on_c, 3, 69, 127
1, 200133, Note_on_c, 4, 61, 126
1, 200158, Note_off_c, 4, 62, 64
1, 200273, Note_on_c, 3, 64, 127
1, 200287, Note_off_c, 3, 69, 64
1, 200408, Note_on_c, 3, 66, 127
1, 200423, Note_off_c, 3, 64, 64
1, 200524, Note_on_c, 3, 67, 127
1, 200535, Note_off_c, 3, 66, 64
1, 200620, Note_on_c, 3, 69, 127
1, 200626, Note_off_c, 3, 67, 64
1, 200691, Note_off_c, 3, 69, 64
1, 200699, Note_on_c, 3, 69, 127
1, 200734, Note_off_c, 4, 52, 64
1, 200760, Note_off_c, 4, 61, 64
1, 200760, Note_off_c, 4, 57, 64
1, 200769, Note_off_c, 3, 69, 64
1, 200770, Note_on_c, 3, 71, 127
1, 200829, Note_off_c, 3, 71, 64
1, 200835, Note_on_c, 3, 71, 127
1, 200897, Note_off_c, 3, 71, 64
1, 200897, Note_on_c, 3, 72, 127
1, 200955, Note_on_c, 3, 73, 127
1, 200961, Note_off_c, 3, 72, 64
1, 201009, Note_on_c, 3, 74, 127
1, 201014, Note_off_c, 3, 73, 64
1, 201061, Note_on_c, 3, 75, 127
1, 201066, Note_off_c, 3, 74, 64
1, 201113, Note_off_c, 3, 75, 64
1, 201113, Note_on_c, 2, 76, 127
1, 201114, Note_on_c, 4, 57, 124
1, 201184, Note_on_c, 2, 69, 127
1, 201247, Note_on_c, 4, 61, 126
1, 201266, Note_off_c, 4, 57, 64
1, 201293, Note_off_c, 2, 69, 64
1, 201297, Note_off_c, 2, 76, 64
1, 201303, Note_on_c, 2, 69, 127
1, 201303, Note_on_c, 1, 78, 127
1, 201329, Note_on_c, 2, 76, 127
1, 201330, Note_off_c, 1, 78, 64
1, 201356, Note_on_c, 2, 74, 127
1, 201356, Note_on_c, 4, 57, 124
1, 201358, Note_off_c, 2, 76, 64
1, 201376, Note_off_c, 4, 61, 64
1, 201401, Note_off_c, 2, 69, 64
1, 201408, Note_on_c, 2, 69, 127
1, 201459, Note_on_c, 2, 73, 127
1, 201460, Note_on_c, 4, 59, 126
1, 201470, Note_off_c, 2, 74, 64
1, 201478, Note_off_c, 4, 57, 64
1, 201503, Note_off_c, 2, 69, 64
1, 201514, Note_on_c, 2, 69, 127
1, 201567, Note_on_c, 2, 71, 127
1, 201568, Note_on_c, 4, 57, 124
1, 201580, Note_off_c, 2, 73, 64
1, 201586, Note_off_c, 4, 59, 64
1, 201611, Note_off_c, 2, 69, 64
1, 201621, Note_on_c, 2, 67, 127
1, 201672, Note_on_c, 2, 69, 127
1, 201673, Note_on_c, 4, 61, 126
1, 201683, Note_off_c, 2, 71, 64
1, 201691, Note_off_c, 4, 57, 64
1, 201718, Note_off_c, 2, 67, 64
1, 201729, Note_on_c, 2, 67, 127
1, 201775, Note_off_c, 2, 69, 64
1, 201781, Note_on_c, 2, 69, 127
1, 201781, Note_on_c, 4, 57, 124
1, 201797, Note_off_c, 4, 61, 64
1, 201820, Note_off_c, 2, 67, 64
1, 201830, Note_on_c, 4, 66, 127
1, 201883, Note_on_c, 4, 62, 125
1, 201901, Note_off_c, 4, 57, 64
1, 201926, Note_off_c, 4, 66, 64
1, 201936, Note_off_c, 2, 69, 64
1, 201936, Note_on_c, 1, 78, 127
1, 201937, Note_on_c, 4, 66, 127
1, 201985, Note_off_c, 1, 78, 64
1, 201991, Note_on_c, 1, 78, 127
1, 201992, Note_on_c, 4, 54, 124
1, 202009, Note_off_c, 4, 62, 64
1, 202044, Note_on_c, 4, 62, 125
1, 202059, Note_off_c, 4, 66, 64
1, 202092, Note_on_c, 4, 57, 124
1, 202107, Note_off_c, 4, 54, 64
1, 202128, Note_off_c, 4, 62, 64
1, 202136, Note_on_c, 4, 62, 125
1, 202178, Note_off_c, 4, 62, 64
1, 202182, Note_on_c, 4, 62, 125
1, 202183, Note_on_c, 4, 50, 124
1, 202197, Note_off_c, 4, 57, 64
1, 202227, Note_on_c, 4, 57, 124
1, 202272, Note_on_c, 4, 54, 124
1, 202287, Note_off_c, 4, 50, 64
1, 202308, Note_off_c, 4, 57, 64
1, 202318, Note_on_c, 4, 57, 124
1, 202364, Note_off_c, 4, 62, 64
1, 202368, Note_off_c, 1, 78, 64
1, 202368, Note_on_c, 4, 45, 122
1, 202368, Note_on_c, 4, 62, 125
1, 202399, Note_off_c, 4, 54, 64
1, 202416, Note_on_c, 4, 66, 127
1, 202434, Note_off_c, 4, 62, 64
1, 202443, Note_off_c, 4, 57, 64
1, 202463, Note_on_c, 4, 64, 127
1, 202464, Note_on_c, 4, 54, 124
1, 202477, Note_off_c, 4, 66, 64
1, 202516, Note_on_c, 4, 62, 125
1, 202533, Note_off_c, 4, 64, 64
1, 202560, Note_on_c, 4, 64, 127
1, 202560, Note_on_c, 4, 50, 124
1, 202572, Note_off_c, 4, 62, 64
1, 202584, Note_off_c, 4, 45, 64
1, 202597, Note_on_c, 4, 66, 127
1, 202612, Note_off_c, 4, 64, 64
1, 202620, Note_off_c, 4, 54, 64
1, 202635, Note_on_c, 3, 67, 127
1, 202636, Note_on_c, 4, 54, 124
1, 202648, Note_off_c, 4, 66, 64
1, 202670, Note_on_c, 3, 69, 127
1, 202681, Note_off_c, 3, 67, 64
1, 202704, Note_on_c, 3, 71, 127
1, 202705, Note_on_c, 4, 45, 122
1, 202715, Note_off_c, 3, 69, 64
1, 202727, Note_off_c, 4, 50, 64
1, 202737, Note_on_c, 3, 73, 127
1, 202749, Note_off_c, 3, 71, 64
1, 202758, Note_off_c, 4, 54, 64
1, 202772, Note_on_c, 3, 74, 127
1, 202772, Note_on_c, 4, 54, 124
1, 202784, Note_off_c, 3, 73, 64
1, 202806, Note_on_c, 3, 76, 127
1, 202817, Note_off_c, 3, 74, 64
1, 202840, Note_on_c, 3, 78, 127
1, 202841, Note_on_c, 4, 50, 124
1, 202848, Note_off_c, 3, 76, 64
1, 202859, Note_off_c, 4, 45, 64
1, 202880, Note_off_c, 3, 78, 64
1, 202880, Note_on_c, 3, 79, 127
1, 202886, Note_off_c, 4, 54, 64
1, 202898, Note_on_c, 4, 54, 124
1, 202919, Note_off_c, 3, 79, 64
1, 202920, Note_on_c, 3, 81, 127
1, 202954, Note_off_c, 3, 81, 64
1, 202955, Note_on_c, 4, 45, 122
1, 202955, Note_on_c, 3, 83, 127
1, 202973, Note_off_c, 4, 50, 64
1, 202999, Note_off_c, 4, 54, 64
1, 203009, Note_on_c, 1, 85, 127
1, 203009, Note_on_c, 4, 54, 124
1, 203021, Note_off_c, 3, 83, 64
1, 203054, Note_on_c, 1, 86, 127
1, 203055, Note_on_c, 4, 50, 124
1, 203066, Note_off_c, 1, 85, 64
1, 203069, Note_off_c, 4, 45, 64
1, 203089, Note_off_c, 4, 54, 64
1, 203100, Note_on_c, 4, 54, 124
1, 203111, Note_off_c, 1, 86, 64
1, 203113, Note_on_c, 1, 78, 127
1, 203141, Note_off_c, 4, 50, 64
1, 203180, Note_on_c, 1, 81, 127
1, 203181, Note_on_c, 4, 50, 124
1, 203181, Note_on_c, 4, 45, 122
1, 203220, Note_off_c, 1, 78, 64
1, 203234, Note_off_c, 4, 54, 64
1, 203332, Note_off_c, 1, 81, 64
1, 203337, Note_on_c, 1, 78, 127
1, 203387, Note_off_c, 4, 45, 64
1, 203387, Note_off_c, 4, 50, 64
1, 203391, Note_on_c, 2, 76, 127
1, 203392, Note_on_c, 4, 45, 122
1, 203392, Note_on_c, 4, 49, 124
1, 203398, Note_off_c, 1, 78, 64
1, 203486, Note_off_c, 2, 76, 64
1, 203492, Note_on_c, 2, 76, 127
1, 203592, Note_off_c, 2, 76, 64
1, 203597, Note_on_c, 2, 76, 127
1, 203700, Note_off_c, 2, 76, 64
1, 203704, Note_on_c, 2, 76, 127
1, 203796, Note_off_c, 2, 76, 64
1, 203800, Note_on_c, 1, 78, 127
1, 203801, Note_on_c, 4, 64, 127
1, 203801, Note_on_c, 4, 61, 127
1, 203802, Note_on_c, 4, 57, 127
1, 203814, Note_off_c, 4, 49, 64
1, 203844, Note_on_c, 2, 76, 127
1, 203850, Note_off_c, 1, 78, 64
1, 203892, Note_on_c, 2, 73, 127
1, 203900, Note_off_c, 2, 76, 64
1, 203948, Note_on_c, 3, 71, 127
1, 203954, Note_off_c, 2, 73, 64
1, 203996, Note_on_c, 3, 69, 127
1, 204002, Note_off_c, 3, 71, 64
1, 204090, Note_off_c, 3, 69, 64
1, 204091, Note_on_c, 2, 76, 127
1, 204180, Note_off_c, 2, 76, 64
1, 204185, Note_on_c, 2, 76, 127
1, 204276, Note_off_c, 2, 76, 64
1, 204279, Note_on_c, 2, 76, 127
1, 204370, Note_off_c, 2, 76, 64
1, 204370, Note_off_c, 4, 64, 64
1, 204374, Note_on_c, 1, 78, 127
1, 204375, Note_on_c, 4, 62, 127
1, 204375, Note_on_c, 4, 64, 127
1, 204376, Note_on_c, 4, 59, 127
1, 204388, Note_off_c, 4, 57, 64
1, 204389, Note_off_c, 4, 61, 64
1, 204418, Note_on_c, 2, 76, 127
1, 204425, Note_off_c, 1, 78, 64
1, 204466, Note_on_c, 2, 74, 127
1, 204475, Note_off_c, 2, 76, 64
1, 204519, Note_on_c, 3, 71, 127
1, 204529, Note_off_c, 2, 74, 64
1, 204574, Note_on_c, 3, 69, 127
1, 204583, Note_off_c, 3, 71, 64
1, 204671, Note_on_c, 2, 76, 127
1, 204688, Note_off_c, 3, 69, 64
1, 204763, Note_off_c, 2, 76, 64
1, 204767, Note_on_c, 2, 76, 127
1, 204859, Note_off_c, 2, 76, 64
1, 204864, Note_on_c, 2, 76, 127
1, 204954, Note_off_c, 2, 76, 64
1, 204955, Note_off_c, 4, 64, 64
1, 204959, Note_on_c, 1, 78, 127
1, 204960, Note_on_c, 4, 64, 127
1, 204960, Note_on_c, 4, 61, 127
1, 204960, Note_on_c, 4, 57, 127
1, 204974, Note_off_c, 4, 59, 64
1, 204975, Note_off_c, 4, 62, 64
1, 205002, Note_on_c, 2, 76, 127
1, 205012, Note_off_c, 1, 78, 64
1, 205048, Note_on_c, 2, 73, 127
1, 205058, Note_off_c, 2, 76, 64
1, 205096, Note_on_c, 3, 69, 127
1, 205108, Note_off_c, 2, 73, 64
1, 205140, Note_off_c, 4, 64, 64
1, 205145, Note_on_c, 4, 64, 127
1, 205145, Note_on_c, 4, 59, 127
1, 205145, Note_on_c, 1, 78, 127
1, 205146, Note_on_c, 4, 56, 127
1, 205164, Note_off_c, 4, 57, 64
1, 205164, Note_off_c, 4, 61, 64
1, 205174, Note_off_c, 3, 69, 64
1, 205188, Note_on_c, 2, 76, 127
1, 205195, Note_off_c, 1, 78, 64
1, 205232, Note_on_c, 2, 74, 127
1, 205242, Note_off_c, 2, 76, 64
1, 205285, Note_on_c, 3, 71, 127
1, 205295, Note_off_c, 2, 74, 64
1, 205328, Note_off_c, 4, 64, 64
1, 205334, Note_on_c, 4, 64, 127
1, 205334, Note_on_c, 1, 78, 127
1, 205335, Note_on_c, 4, 61, 127
1, 205335, Note_on_c, 4, 57, 127
1, 205351, Note_off_c, 4, 59, 64
1, 205351, Note_off_c, 4, 56, 64
1, 205362, Note_off_c, 3, 71, 64
1, 205377, Note_on_c, 2, 76, 127
1, 205386, Note_off_c, 1, 78, 64
1, 205423, Note_on_c, 2, 73, 127
1, 205432, Note_off_c, 2, 76, 64
1, 205469, Note_on_c, 3, 69, 127
1, 205478, Note_off_c, 2, 73, 64
1, 205485, Note_off_c, 4, 45, 64
1, 205513, Note_off_c, 4, 57, 64
1, 205513, Note_off_c, 4, 61, 64
1, 205514, Note_off_c, 4, 64, 64
1, 205518, Note_on_c, 2, 73, 127
1, 205519, Note_on_c, 4, 61, 127
1, 205519, Note_on_c, 4, 57, 127
1, 205520, Note_on_c, 4, 52, 127
1, 205527, Note_off_c, 3, 69, 64
1, 205742, Note_off_c, 2, 73, 64
1, 205747, Note_on_c, 4, 59, 127
1, 205747, Note_on_c, 3, 71, 127
1, 205748, Note_on_c, 4, 56, 127
1, 205770, Note_off_c, 4, 57, 64
1, 205771, Note_off_c, 4, 61, 64
1, 205810, Note_on_c, 4, 64, 127
1, 205881, Note_off_c, 3, 71, 64
1, 205882, Note_on_c, 2, 76, 127
1, 205932, Note_off_c, 4, 64, 64
1, 205942, Note_on_c, 4, 64, 127
1, 206001, Note_off_c, 2, 76, 64
1, 206002, Note_on_c, 2, 75, 127
1, 206042, Note_off_c, 4, 64, 64
1, 206054, Note_on_c, 4, 64, 124
1, 206108, Note_off_c, 2, 75, 64
1, 206108, Note_on_c, 2, 74, 127
1, 206147, Note_off_c, 4, 64, 64
1, 206159, Note_on_c, 4, 64, 124
1, 206209, Note_off_c, 4, 59, 64
1, 206209, Note_off_c, 2, 74, 64
1, 206209, Note_off_c, 4, 56, 64
1, 206210, Note_on_c, 2, 73, 127
1, 206210, Note_on_c, 4, 57, 124
1, 206256, Note_off_c, 4, 64, 64
1, 206259, Note_on_c, 4, 64, 124
1, 206311, Note_on_c, 4, 61, 126
1, 206317, Note_off_c, 4, 64, 64
1, 206327, Note_off_c, 4, 57, 64
1, 206359, Note_on_c, 4, 64, 124
1, 206365, Note_off_c, 4, 61, 64
1, 206394, Note_off_c, 2, 73, 64
1, 206401, Note_on_c, 2, 73, 127
1, 206402, Note_on_c, 4, 57, 124
1, 206441, Note_off_c, 4, 64, 64
1, 206450, Note_on_c, 4, 64, 124
1, 206495, Note_on_c, 4, 61, 126
1, 206500, Note_off_c, 4, 64, 64
1, 206510, Note_off_c, 4, 57, 64
1, 206543, Note_on_c, 4, 64, 124
1, 206548, Note_off_c, 4, 61, 64
1, 206589, Note_on_c, 4, 57, 124
1, 206621, Note_off_c, 2, 73, 64
1, 206627, Note_off_c, 4, 64, 64
1, 206637, Note_on_c, 2, 74, 127
1, 206637, Note_on_c, 4, 64, 124
1, 206666, Note_on_c, 2, 73, 127
1, 206682, Note_off_c, 2, 74, 64
1, 206699, Note_on_c, 2, 71, 127
1, 206700, Note_on_c, 4, 59, 126
1, 206713, Note_off_c, 2, 73, 64
1, 206717, Note_off_c, 4, 57, 64
1, 206727, Note_on_c, 2, 73, 127
1, 206742, Note_off_c, 2, 71, 64
1, 206744, Note_off_c, 4, 64, 64
1, 206754, Note_on_c, 2, 74, 127
1, 206754, Note_on_c, 4, 64, 124
1, 206766, Note_off_c, 2, 73, 64
1, 206805, Note_on_c, 1, 78, 127
1, 206805, Note_on_c, 4, 61, 126
1, 206811, Note_off_c, 4, 64, 64
1, 206821, Note_off_c, 2, 74, 64
1, 206821, Note_off_c, 4, 59, 64
1, 206853, Note_on_c, 4, 64, 124
1, 206860, Note_off_c, 4, 61, 64
1, 206901, Note_on_c, 2, 76, 127
1, 206901, Note_on_c, 4, 57, 124
1, 206909, Note_off_c, 1, 78, 64
1, 206942, Note_off_c, 4, 64, 64
1, 206952, Note_on_c, 4, 64, 124
1, 206994, Note_on_c, 1, 87, 127
1, 206994, Note_on_c, 4, 61, 126
1, 207002, Note_off_c, 2, 76, 64
1, 207006, Note_off_c, 4, 64, 64
1, 207007, Note_off_c, 4, 57, 64
1, 207036, Note_on_c, 4, 64, 124
1, 207049, Note_off_c, 4, 61, 64
1, 207076, Note_on_c, 1, 88, 127
1, 207077, Note_on_c, 4, 57, 124
1, 207087, Note_off_c, 1, 87, 64
1, 207112, Note_off_c, 4, 64, 64
1, 207120, Note_on_c, 2, 76, 127
1, 207120, Note_on_c, 4, 64, 124
1, 207124, Note_off_c, 1, 88, 64
1, 207161, Note_on_c, 1, 78, 127
1, 207161, Note_on_c, 4, 61, 126
1, 207168, Note_off_c, 4, 64, 64
1, 207169, Note_off_c, 2, 76, 64
1, 207175, Note_off_c, 4, 57, 64
1, 207210, Note_on_c, 2, 76, 127
1, 207218, Note_off_c, 1, 78, 64
1, 207224, Note_off_c, 4, 61, 64
1, 207225, Note_on_c, 4, 64, 124
1, 207252, Note_on_c, 2, 74, 127
1, 207252, Note_on_c, 4, 57, 124
1, 207261, Note_off_c, 2, 76, 64
1, 207282, Note_off_c, 4, 64, 64
1, 207297, Note_on_c, 2, 73, 127
1, 207298, Note_on_c, 4, 64, 124
1, 207306, Note_off_c, 2, 74, 64
1, 207338, Note_off_c, 2, 73, 64
1, 207343, Note_on_c, 2, 73, 127
1, 207343, Note_on_c, 4, 56, 124
1, 207358, Note_off_c, 4, 57, 64
1, 207377, Note_off_c, 4, 64, 64
1, 207388, Note_on_c, 4, 64, 124
1, 207431, Note_off_c, 2, 73, 64
1, 207434, Note_on_c, 2, 71, 127
1, 207435, Note_on_c, 4, 62, 125
1, 207441, Note_off_c, 4, 64, 64
1, 207449, Note_off_c, 4, 56, 64
1, 207480, Note_on_c, 4, 64, 124
1, 207485, Note_off_c, 4, 62, 64
1, 207524, Note_on_c, 4, 56, 124
1, 207556, Note_off_c, 4, 64, 64
1, 207566, Note_on_c, 4, 64, 124
1, 207608, Note_off_c, 2, 71, 64
1, 207614, Note_on_c, 2, 71, 127
1, 207614, Note_on_c, 4, 62, 125
1, 207621, Note_off_c, 4, 64, 64
1, 207631, Note_off_c, 4, 56, 64
1, 207658, Note_on_c, 4, 64, 124
1, 207665, Note_off_c, 4, 62, 64
1, 207697, Note_off_c, 2, 71, 64
1, 207706, Note_on_c, 2, 73, 127
1, 207706, Note_on_c, 4, 56, 124
1, 207731, Note_on_c, 2, 71, 127
1, 207737, Note_off_c, 2, 73, 64
1, 207750, Note_off_c, 4, 64, 64
1, 207754, Note_off_c, 2, 71, 64
1, 207758, Note_on_c, 2, 71, 127
1, 207759, Note_on_c, 4, 64, 124
1, 207803, Note_off_c, 2, 71, 64
1, 207805, Note_on_c, 2, 71, 127
1, 207805, Note_on_c, 4, 57, 124
1, 207822, Note_off_c, 4, 56, 64
1, 207844, Note_off_c, 4, 64, 64
1, 207856, Note_on_c, 2, 73, 127
1, 207857, Note_on_c, 4, 64, 124
1, 207864, Note_off_c, 2, 71, 64
1, 207903, Note_on_c, 2, 76, 127
1, 207904, Note_on_c, 4, 59, 126
1, 207913, Note_off_c, 2, 73, 64
1, 207920, Note_off_c, 4, 57, 64
1, 207945, Note_off_c, 4, 64, 64
1, 207954, Note_on_c, 4, 64, 124
1, 207994, Note_off_c, 2, 76, 64
1, 207998, Note_on_c, 2, 74, 127
1, 207999, Note_on_c, 4, 63, 124
1, 208005, Note_off_c, 4, 64, 64
1, 208013, Note_off_c, 4, 59, 64
1, 208044, Note_on_c, 4, 64, 124
1, 208049, Note_off_c, 4, 63, 64
1, 208086, Note_on_c, 1, 85, 127
1, 208086, Note_on_c, 4, 56, 124
1, 208102, Note_off_c, 2, 74, 64
1, 208123, Note_off_c, 4, 64, 64
1, 208131, Note_on_c, 4, 64, 124
1, 208146, Note_off_c, 4, 52, 64
1, 208171, Note_on_c, 1, 86, 127
1, 208172, Note_on_c, 4, 59, 126
1, 208184, Note_off_c, 4, 56, 64
1, 208184, Note_off_c, 1, 85, 64
1, 208211, Note_off_c, 4, 64, 64
1, 208219, Note_on_c, 2, 74, 127
1, 208220, Note_on_c, 4, 64, 124
1, 208224, Note_off_c, 1, 86, 64
1, 208260, Note_on_c, 2, 76, 127
1, 208261, Note_on_c, 4, 52, 124
1, 208273, Note_off_c, 2, 74, 64
1, 208273, Note_off_c, 4, 59, 64
1, 208299, Note_off_c, 4, 64, 64
1, 208305, Note_on_c, 2, 74, 127
1, 208305, Note_on_c, 4, 64, 124
1, 208319, Note_off_c, 2, 76, 64
1, 208348, Note_on_c, 2, 73, 127
1, 208348, Note_on_c, 4, 56, 124
1, 208362, Note_off_c, 2, 74, 64
1, 208363, Note_off_c, 4, 52, 64
1, 208380, Note_off_c, 4, 64, 64
1, 208388, Note_on_c, 2, 71, 127
1, 208389, Note_on_c, 4, 64, 124
1, 208403, Note_off_c, 2, 73, 64
1, 208431, Note_off_c, 2, 71, 64
1, 208437, Note_on_c, 2, 71, 127
1, 208438, Note_on_c, 4, 54, 124
1, 208453, Note_off_c, 4, 56, 64
1, 208473, Note_off_c, 4, 64, 64
1, 208482, Note_on_c, 4, 64, 124
1, 208523, Note_off_c, 2, 71, 64
1, 208524, Note_on_c, 2, 69, 127
1, 208525, Note_on_c, 4, 63, 124
1, 208529, Note_off_c, 4, 64, 64
1, 208537, Note_off_c, 4, 54, 64
1, 208568, Note_on_c, 4, 64, 124
1, 208573, Note_off_c, 4, 63, 64
1, 208608, Note_off_c, 2, 69, 64
1, 208612, Note_on_c, 2, 69, 127
1, 208612, Note_on_c, 4, 54, 124
1, 208649, Note_off_c, 4, 64, 64
1, 208653, Note_off_c, 2, 69, 64
1, 208654, Note_on_c, 2, 69, 127
1, 208654, Note_on_c, 4, 64, 124
1, 208695, Note_on_c, 2, 74, 127
1, 208696, Note_on_c, 4, 63, 124
1, 208700, Note_off_c, 4, 64, 64
1, 208701, Note_off_c, 2, 69, 64
1, 208711, Note_off_c, 4, 54, 64
1, 208743, Note_on_c, 2, 73, 127
1, 208744, Note_on_c, 4, 64, 124
1, 208748, Note_off_c, 4, 63, 64
1, 208749, Note_off_c, 2, 74, 64
1, 208782, Note_on_c, 2, 71, 127
1, 208782, Note_on_c, 4, 56, 124
1, 208787, Note_off_c, 2, 73, 64
1, 208821, Note_off_c, 4, 64, 64
1, 208829, Note_on_c, 2, 71, 127
1, 208829, Note_on_c, 4, 64, 124
1, 208836, Note_off_c, 2, 71, 64
1, 208872, Note_on_c, 2, 76, 127
1, 208873, Note_on_c, 4, 63, 124
1, 208881, Note_off_c, 4, 64, 64
1, 208881, Note_off_c, 2, 71, 64
1, 208891, Note_off_c, 4, 56, 64
1, 208926, Note_on_c, 2, 74, 127
1, 208926, Note_on_c, 4, 64, 124
1, 208931, Note_off_c, 4, 63, 64
1, 208931, Note_off_c, 2, 76, 64
1, 208966, Note_on_c, 2, 72, 127
1, 208967, Note_on_c, 4, 57, 124
1, 208973, Note_off_c, 2, 74, 64
1, 209009, Note_off_c, 4, 64, 64
1, 209017, Note_on_c, 2, 73, 127
1, 209025, Note_off_c, 2, 72, 64
1, 209067, Note_on_c, 1, 81, 127
1, 209073, Note_off_c, 2, 73, 64
1, 209111, Note_off_c, 1, 81, 64
1, 209117, Note_on_c, 1, 81, 127
1, 209161, Note_off_c, 1, 81, 64
1, 209167, Note_on_c, 1, 81, 127
1, 209209, Note_off_c, 1, 81, 64
1, 209215, Note_on_c, 1, 81, 127
1, 209256, Note_off_c, 1, 81, 64
1, 209260, Note_on_c, 1, 81, 127
1, 209302, Note_off_c, 1, 81, 64
1, 209308, Note_on_c, 1, 81, 127
1, 209350, Note_off_c, 1, 81, 64
1, 209356, Note_off_c, 4, 57, 64
1, 209356, Note_on_c, 1, 81, 127
1, 209357, Note_on_c, 4, 59, 126
1, 209357, Note_on_c, 4, 54, 124
1, 209358, Note_on_c, 4, 50, 124
1, 209406, Note_on_c, 1, 78, 127
1, 209421, Note_off_c, 1, 81, 64
1, 209454, Note_on_c, 2, 74, 127
1, 209471, Note_off_c, 1, 78, 64
1, 209498, Note_on_c, 2, 71, 127
1, 209515, Note_off_c, 2, 74, 64
1, 209544, Note_off_c, 4, 59, 64
1, 209550, Note_on_c, 4, 62, 125
1, 209550, Note_on_c, 2, 76, 127
1, 209551, Note_on_c, 4, 52, 124
1, 209551, Note_on_c, 4, 59, 126
1, 209567, Note_off_c, 2, 71, 64
1, 209573, Note_off_c, 4, 54, 64
1, 209573, Note_off_c, 4, 50, 64
1, 209604, Note_on_c, 1, 78, 127
1, 209612, Note_off_c, 2, 76, 64
1, 209635, Note_on_c, 2, 76, 127
1, 209649, Note_off_c, 1, 78, 64
1, 209666, Note_on_c, 2, 75, 127
1, 209681, Note_off_c, 2, 76, 64
1, 209702, Note_on_c, 2, 76, 127
1, 209720, Note_off_c, 2, 75, 64
1, 209739, Note_on_c, 1, 78, 127
1, 209750, Note_off_c, 2, 76, 64
1, 209779, Note_on_c, 2, 69, 127
1, 209812, Note_off_c, 1, 78, 64
1, 209940, Note_off_c, 4, 59, 64
1, 209941, Note_off_c, 4, 62, 64
1, 209945, Note_on_c, 4, 62, 125
1, 209946, Note_on_c, 4, 59, 126
1, 210036, Note_off_c, 2, 69, 64
1, 210041, Note_on_c, 2, 71, 127
1, 210041, Note_on_c, 2, 69, 127
1, 210147, Note_off_c, 2, 69, 64
1, 210147, Note_off_c, 2, 71, 64
1, 210148, Note_off_c, 4, 62, 64
1, 210148, Note_off_c, 4, 59, 64
1, 210149, Note_off_c, 4, 52, 64
1, 210151, Note_on_c, 2, 71, 127
1, 210152, Note_on_c, 4, 64, 124
1, 210152, Note_on_c, 2, 69, 127
1, 210152, Note_on_c, 4, 61, 126
1, 210153, Note_on_c, 4, 57, 124
1, 210313, Note_off_c, 2, 71, 64
1, 210313, Note_off_c, 2, 69, 64
1, 210316, Note_on_c, 2, 72, 127
1, 210366, Note_off_c, 4, 61, 64
1, 210370, Note_on_c, 2, 73, 127
1, 210371, Note_on_c, 2, 69, 127
1, 210371, Note_on_c, 4, 61, 126
1, 210383, Note_off_c, 2, 72, 64
1, 210563, Note_off_c, 4, 64, 64
1, 210567, Note_off_c, 4, 57, 64
1, 210567, Note_on_c, 4, 64, 124
1, 210568, Note_on_c, 4, 45, 122
1, 210568, Note_on_c, 4, 45, 118
1, 210603, Note_off_c, 4, 61, 64
1, 210603, Note_off_c, 2, 69, 64
1, 210604, Note_off_c, 2, 73, 64
1, 210629, Note_on_c, 2, 69, 127
1, 210630, Note_on_c, 4, 49, 124
1, 210636, Note_off_c, 4, 64, 64
1, 210678, Note_on_c, 2, 73, 127
1, 210679, Note_on_c, 4, 52, 124
1, 210684, Note_off_c, 2, 69, 64
1, 210693, Note_off_c, 4, 49, 64
1, 210725, Note_on_c, 4, 57, 124
1, 210743, Note_off_c, 4, 52, 64
1, 210767, Note_off_c, 2, 73, 64
1, 210778, Note_on_c, 2, 73, 127
1, 210779, Note_on_c, 4, 45, 122
1, 210796, Note_off_c, 4, 57, 64
1, 210816, Note_on_c, 2, 76, 127
1, 210821, Note_off_c, 2, 73, 64
1, 210832, Note_on_c, 4, 49, 124
1, 210853, Note_on_c, 2, 74, 127
1, 210859, Note_off_c, 2, 76, 64
1, 210886, Note_on_c, 2, 73, 127
1, 210886, Note_on_c, 4, 52, 124
1, 210890, Note_off_c, 2, 74, 64
1, 210902, Note_off_c, 4, 49, 64
1, 210919, Note_on_c, 2, 74, 127
1, 210927, Note_off_c, 2, 73, 64
1, 210936, Note_on_c, 4, 57, 124
1, 210950, Note_off_c, 4, 45, 64
1, 210950, Note_off_c, 4, 45, 64
1, 210952, Note_off_c, 4, 52, 64
1, 210952, Note_on_c, 2, 76, 127
1, 210959, Note_off_c, 2, 74, 64
1, 210989, Note_off_c, 4, 45, 64
1, 210990, Note_on_c, 4, 47, 122
1, 210990, Note_on_c, 2, 74, 127
1, 210996, Note_off_c, 2, 76, 64
1, 211006, Note_off_c, 4, 57, 64
1, 211021, Note_on_c, 1, 78, 127
1, 211029, Note_off_c, 2, 74, 64
1, 211042, Note_on_c, 4, 50, 124
1, 211063, Note_on_c, 2, 76, 127
1, 211069, Note_off_c, 1, 78, 64
1, 211096, Note_on_c, 2, 74, 127
1, 211096, Note_on_c, 4, 56, 124
1, 211104, Note_off_c, 2, 76, 64
1, 211116, Note_off_c, 4, 50, 64
1, 211137, Note_on_c, 2, 76, 127
1, 211145, Note_off_c, 2, 74, 64
1, 211158, Note_on_c, 4, 59, 126
1, 211177, Note_off_c, 4, 56, 64
1, 211178, Note_on_c, 1, 78, 127
1, 211188, Note_off_c, 2, 76, 64
1, 211230, Note_off_c, 4, 47, 64
1, 211231, Note_on_c, 4, 57, 124
1, 211231, Note_on_c, 3, 76, 127
1, 211232, Note_on_c, 4, 49, 124
1, 211242, Note_off_c, 4, 59, 64
1, 211242, Note_off_c, 1, 78, 64
1, 211270, Note_on_c, 3, 69, 127
1, 211287, Note_off_c, 3, 76, 64
1, 211306, Note_on_c, 3, 71, 127
1, 211329, Note_off_c, 3, 69, 64
1, 211348, Note_on_c, 3, 73, 127
1, 211369, Note_off_c, 3, 71, 64
1, 211392, Note_on_c, 3, 74, 127
1, 211408, Note_off_c, 3, 73, 64
1, 211429, Note_on_c, 3, 76, 127
1, 211446, Note_off_c, 3, 74, 64
1, 211465, Note_on_c, 3, 78, 127
1, 211483, Note_off_c, 3, 76, 64
1, 211502, Note_on_c, 3, 80, 127
1, 211515, Note_off_c, 3, 78, 64
1, 211533, Note_on_c, 1, 81, 127
1, 211546, Note_off_c, 3, 80, 64
1, 211561, Note_on_c, 1, 83, 127
1, 211575, Note_off_c, 1, 81, 64
1, 211592, Note_on_c, 1, 85, 127
1, 211609, Note_off_c, 1, 83, 64
1, 211625, Note_on_c, 1, 83, 127
1, 211640, Note_off_c, 1, 85, 64
1, 211659, Note_on_c, 1, 81, 127
1, 211677, Note_off_c, 1, 83, 64
1, 211694, Note_on_c, 1, 80, 127
1, 211715, Note_off_c, 1, 81, 64
1, 211736, Note_on_c, 1, 78, 127
1, 211755, Note_off_c, 1, 80, 64
1, 211776, Note_on_c, 2, 77, 127
1, 211794, Note_off_c, 1, 78, 64
1, 211807, Note_off_c, 4, 49, 64
1, 211808, Note_off_c, 4, 57, 64
1, 211814, Note_on_c, 4, 57, 124
1, 211814, Note_on_c, 1, 78, 127
1, 211815, Note_on_c, 4, 50, 124
1, 211830, Note_off_c, 2, 77, 64
1, 211851, Note_on_c, 1, 80, 127
1, 211867, Note_off_c, 1, 78, 64
1, 211886, Note_on_c, 1, 81, 127
1, 211901, Note_off_c, 1, 80, 64
1, 211920, Note_on_c, 1, 80, 127
1, 211938, Note_off_c, 1, 81, 64
1, 211955, Note_on_c, 1, 83, 127
1, 211972, Note_off_c, 1, 80, 64
1, 211993, Note_on_c, 1, 81, 127
1, 212009, Note_off_c, 1, 83, 64
1, 212026, Note_on_c, 1, 80, 127
1, 212043, Note_off_c, 1, 81, 64
1, 212063, Note_on_c, 1, 78, 127
1, 212086, Note_off_c, 1, 80, 64
1, 212103, Note_off_c, 4, 57, 64
1, 212103, Note_off_c, 4, 50, 64
1, 212113, Note_off_c, 1, 78, 64
1, 212114, Note_on_c, 2, 76, 127
1, 212114, Note_on_c, 1, 78, 127
1, 212115, Note_on_c, 4, 52, 124
1, 212115, Note_on_c, 4, 61, 126
1, 212116, Note_off_c, 1, 78, 64
1, 212170, Note_on_c, 1, 88, 127
1, 212189, Note_off_c, 2, 76, 64
1, 212228, Note_on_c, 1, 85, 127
1, 212247, Note_off_c, 1, 88, 64
1, 212283, Note_on_c, 1, 81, 127
1, 212301, Note_off_c, 1, 85, 64
1, 212334, Note_off_c, 4, 61, 64
1, 212342, Note_on_c, 2, 76, 127
1, 212342, Note_on_c, 4, 61, 126
1, 212343, Note_on_c, 4, 52, 124
1, 212363, Note_off_c, 1, 81, 64
1, 212393, Note_on_c, 1, 81, 127
1, 212407, Note_off_c, 2, 76, 64
1, 212443, Note_on_c, 2, 76, 127
1, 212459, Note_off_c, 1, 81, 64
1, 212492, Note_on_c, 2, 73, 127
1, 212499, Note_off_c, 2, 76, 64
1, 212538, Note_off_c, 4, 61, 64
1, 212543, Note_on_c, 2, 76, 127
1, 212544, Note_on_c, 4, 62, 125
1, 212545, Note_on_c, 4, 52, 124
1, 212547, Note_on_c, 4, 56, 124
1, 212552, Note_off_c, 2, 73, 64
1, 212603, Note_on_c, 2, 74, 127
1, 212612, Note_off_c, 2, 76, 64
1, 212666, Note_on_c, 2, 73, 127
1, 212671, Note_off_c, 2, 74, 64
1, 212722, Note_on_c, 2, 71, 127
1, 212727, Note_off_c, 2, 73, 64
1, 212768, Note_off_c, 2, 71, 64
1, 212769, Note_off_c, 4, 62, 64
1, 212771, Note_off_c, 4, 56, 64
1, 212773, Note_on_c, 2, 71, 127
1, 212776, Note_on_c, 4, 57, 124
1, 212776, Note_on_c, 4, 64, 124
1, 212777, Note_on_c, 2, 69, 127
1, 212777, Note_on_c, 4, 62, 125
1, 212875, Note_off_c, 4, 52, 64
1, 212875, Note_off_c, 4, 52, 64
1, 212875, Note_off_c, 4, 52, 64
1, 213100, Note_off_c, 2, 71, 64
1, 213103, Note_off_c, 4, 62, 64
1, 213104, Note_off_c, 2, 69, 64
1, 213105, Note_on_c, 3, 69, 127
1, 213106, Note_off_c, 4, 64, 64
1, 213107, Note_on_c, 4, 61, 126
1, 213399, Note_off_c, 4, 57, 64
1, 213403, Note_off_c, 3, 69, 64
1, 213405, Note_off_c, 4, 61, 64
1, 213411, Note_on_c, 3, 73, 127
1, 213413, Note_on_c, 4, 57, 127
1, 213557, Note_off_c, 3, 73, 64
1, 213561, Note_on_c, 2, 74, 127
1, 213561, Note_on_c, 4, 64, 127
1, 213621, Note_on_c, 3, 73, 127
1, 213631, Note_off_c, 2, 74, 64
1, 213673, Note_off_c, 4, 64, 64
1, 213681, Note_on_c, 4, 59, 127
1, 213681, Note_on_c, 3, 71, 127
1, 213685, Note_off_c, 4, 57, 64
1, 213691, Note_off_c, 3, 73, 64
1, 213737, Note_on_c, 3, 73, 127
1, 213747, Note_off_c, 3, 71, 64
1, 213795, Note_on_c, 2, 74, 127
1, 213795, Note_on_c, 4, 64, 127
1, 213804, Note_off_c, 3, 73, 64
1, 213900, Note_off_c, 4, 64, 64
1, 213910, Note_on_c, 4, 61, 127
1, 213910, Note_on_c, 1, 78, 127
1, 213912, Note_off_c, 4, 59, 64
1, 213918, Note_off_c, 2, 74, 64
1, 214033, Note_on_c, 2, 76, 127
1, 214033, Note_on_c, 4, 64, 127
1, 214044, Note_off_c, 1, 78, 64
1, 214149, Note_off_c, 4, 64, 64
1, 214159, Note_on_c, 4, 57, 127
1, 214159, Note_on_c, 2, 74, 127
1, 214164, Note_off_c, 4, 61, 64
1, 214169, Note_off_c, 2, 76, 64
1, 214283, Note_on_c, 3, 73, 127
1, 214283, Note_on_c, 4, 64, 127
1, 214293, Note_off_c, 2, 74, 64
1, 214393, Note_off_c, 4, 64, 64
1, 214403, Note_on_c, 4, 56, 127
1, 214403, Note_on_c, 3, 71, 127
1, 214407, Note_off_c, 4, 57, 64
1, 214415, Note_off_c, 3, 73, 64
1, 214527, Note_on_c, 3, 73, 127
1, 214527, Note_on_c, 4, 64, 127
1, 214537, Note_off_c, 3, 71, 64
1, 214585, Note_on_c, 3, 71, 127
1, 214591, Note_off_c, 3, 73, 64
1, 214633, Note_off_c, 4, 64, 64
1, 214637, Note_off_c, 3, 71, 64
1, 214643, Note_on_c, 4, 57, 127
1, 214643, Note_on_c, 3, 71, 127
1, 214645, Note_off_c, 4, 56, 64
1, 214694, Note_off_c, 3, 71, 64
1, 214701, Note_on_c, 3, 71, 127
1, 214761, Note_on_c, 3, 73, 127
1, 214761, Note_on_c, 4, 64, 127
1, 214767, Note_off_c, 3, 71, 64
1, 214863, Note_off_c, 4, 64, 64
1, 214872, Note_on_c, 4, 59, 127
1, 214872, Note_on_c, 2, 76, 127
1, 214876, Note_off_c, 4, 57, 64
1, 214882, Note_off_c, 3, 73, 64
1, 214999, Note_on_c, 2, 74, 127
1, 215000, Note_on_c, 4, 64, 127
1, 215010, Note_off_c, 2, 76, 64
1, 215109, Note_off_c, 4, 64, 64
1, 215119, Note_on_c, 3, 73, 127
1, 215120, Note_on_c, 4, 62, 127
1, 215122, Note_off_c, 4, 59, 64
1, 215128, Note_off_c, 2, 74, 64
1, 215239, Note_on_c, 3, 71, 127
1, 215240, Note_on_c, 4, 64, 127
1, 215250, Note_off_c, 3, 73, 64
1, 215353, Note_off_c, 4, 64, 64
1, 215363, Note_on_c, 3, 69, 127
1, 215364, Note_on_c, 4, 61, 127
1, 215367, Note_off_c, 4, 62, 64
1, 215374, Note_off_c, 3, 71, 64
1, 215484, Note_off_c, 3, 69, 64
1, 215489, Note_on_c, 3, 69, 127
1, 215489, Note_on_c, 4, 64, 127
1, 215601, Note_off_c, 4, 64, 64
1, 215609, Note_off_c, 4, 61, 64
1, 215611, Note_on_c, 4, 61, 127
1, 215734, Note_off_c, 3, 69, 64
1, 215734, Note_on_c, 3, 71, 127
1, 215735, Note_on_c, 4, 64, 127
1, 215842, Note_off_c, 4, 64, 64
1, 215848, Note_off_c, 4, 61, 64
1, 215850, Note_on_c, 4, 56, 127
1, 215963, Note_off_c, 3, 71, 64
1, 215969, Note_on_c, 3, 71, 127
1, 215969, Note_on_c, 4, 64, 127
1, 216079, Note_off_c, 4, 64, 64
1, 216085, Note_off_c, 4, 56, 64
1, 216087, Note_on_c, 4, 56, 127
1, 216202, Note_on_c, 3, 72, 127
1, 216203, Note_on_c, 4, 64, 127
1, 216207, Note_off_c, 3, 71, 64
1, 216305, Note_off_c, 4, 64, 64
1, 216311, Note_off_c, 3, 72, 64
1, 216312, Note_off_c, 4, 56, 64
1, 216314, Note_on_c, 2, 74, 127
1, 216315, Note_on_c, 4, 57, 127
1, 216342, Note_on_c, 3, 73, 127
1, 216365, Note_off_c, 2, 74, 64
1, 216440, Note_on_c, 3, 73, 127
1, 216441, Note_on_c, 4, 64, 127
1, 216455, Note_off_c, 3, 73, 64
1, 216549, Note_off_c, 4, 64, 64
1, 216554, Note_off_c, 3, 73, 64
1, 216556, Note_on_c, 2, 76, 127
1, 216557, Note_on_c, 4, 50, 127
1, 216561, Note_off_c, 4, 57, 64
1, 216578, Note_on_c, 2, 74, 127
1, 216600, Note_off_c, 2, 76, 64
1, 216677, Note_on_c, 2, 74, 127
1, 216678, Note_on_c, 4, 59, 127
1, 216694, Note_off_c, 2, 74, 64
1, 216793, Note_on_c, 3, 73, 127
1, 216794, Note_on_c, 4, 52, 127
1, 216794, Note_on_c, 4, 57, 127
1, 216798, Note_off_c, 4, 50, 64
1, 216804, Note_off_c, 4, 59, 64
1, 216817, Note_off_c, 2, 74, 64
1, 217032, Note_on_c, 3, 71, 127
1, 217032, Note_on_c, 4, 56, 127
1, 217036, Note_off_c, 4, 57, 64
1, 217037, Note_off_c, 3, 73, 64
1, 217264, Note_off_c, 4, 52, 64
1, 217265, Note_on_c, 4, 33, 126
1, 217265, Note_on_c, 3, 73, 127
1, 217267, Note_off_c, 4, 56, 64
1, 217267, Note_off_c, 3, 71, 64
1, 217270, Note_on_c, 4, 37, 126
1, 217281, Note_on_c, 4, 40, 126
1, 217291, Note_on_c, 4, 45, 126
1, 217322, Note_on_c, 3, 69, 127
1, 217327, Note_off_c, 3, 73, 64
1, 217380, Note_on_c, 4, 64, 127
1, 217385, Note_off_c, 3, 69, 64
1, 217439, Note_on_c, 3, 69, 127
1, 217444, Note_off_c, 4, 64, 64
1, 217497, Note_on_c, 3, 73, 127
1, 217503, Note_off_c, 3, 69, 64
1, 217551, Note_on_c, 3, 69, 127
1, 217557, Note_off_c, 3, 73, 64
1, 217609, Note_on_c, 2, 74, 127
1, 217615, Note_off_c, 3, 69, 64
1, 217663, Note_on_c, 3, 71, 127
1, 217668, Note_off_c, 2, 74, 64
1, 217707, Note_off_c, 4, 33, 64
1, 217715, Note_off_c, 4, 37, 64
1, 217718, Note_on_c, 2, 76, 127
1, 217719, Note_on_c, 4, 57, 127
1, 217723, Note_off_c, 3, 71, 64
1, 217725, Note_off_c, 4, 40, 64
1, 217725, Note_on_c, 4, 61, 127
1, 217734, Note_off_c, 4, 45, 64
1, 217734, Note_on_c, 4, 64, 127
1, 217742, Note_on_c, 3, 69, 127
1, 217773, Note_on_c, 3, 73, 127
1, 217779, Note_off_c, 2, 76, 64
1, 217829, Note_on_c, 2, 76, 127
1, 217835, Note_off_c, 3, 73, 64
1, 217883, Note_on_c, 3, 73, 127
1, 217888, Note_off_c, 2, 76, 64
1, 217936, Note_on_c, 1, 78, 127
1, 217942, Note_off_c, 3, 73, 64
1, 217996, Note_on_c, 2, 76, 127
1, 218002, Note_off_c, 1, 78, 64
1, 218050, Note_on_c, 2, 74, 127
1, 218054, Note_off_c, 2, 76, 64
1, 218102, Note_on_c, 3, 73, 127
1, 218107, Note_off_c, 2, 74, 64
1, 218146, Note_off_c, 4, 57, 64
1, 218151, Note_off_c, 4, 61, 64
1, 218156, Note_on_c, 4, 40, 126
1, 218156, Note_on_c, 3, 71, 127
1, 218162, Note_off_c, 3, 73, 64
1, 218162, Note_off_c, 4, 64, 64
1, 218163, Note_on_c, 4, 44, 126
1, 218172, Note_off_c, 3, 69, 64
1, 218173, Note_on_c, 4, 47, 126
1, 218181, Note_on_c, 4, 52, 127
1, 218214, Note_on_c, 3, 69, 127
1, 218220, Note_off_c, 3, 71, 64
1, 218271, Note_on_c, 4, 64, 127
1, 218277, Note_off_c, 3, 69, 64
1, 218327, Note_on_c, 3, 69, 127
1, 218333, Note_off_c, 4, 64, 64
1, 218379, Note_on_c, 3, 71, 127
1, 218385, Note_off_c, 3, 69, 64
1, 218435, Note_on_c, 3, 69, 127
1, 218438, Note_off_c, 3, 71, 64
1, 218489, Note_on_c, 3, 73, 127
1, 218493, Note_off_c, 3, 69, 64
1, 218542, Note_on_c, 3, 69, 127
1, 218548, Note_off_c, 3, 73, 64
1, 218588, Note_off_c, 4, 40, 64
1, 218594, Note_off_c, 4, 44, 64
1, 218594, Note_off_c, 4, 52, 64
1, 218597, Note_on_c, 4, 52, 127
1, 218597, Note_on_c, 2, 74, 127
1, 218602, Note_off_c, 3, 69, 64
1, 218602, Note_off_c, 4, 47, 64
1, 218603, Note_on_c, 4, 56, 127
1, 218611, Note_on_c, 4, 59, 127
1, 218621, Note_on_c, 4, 64, 127
1, 218652, Note_on_c, 3, 71, 127
1, 218655, Note_off_c, 2, 74, 64
1, 218703, Note_on_c, 2, 74, 127
1, 218709, Note_off_c, 3, 71, 64
1, 218752, Note_on_c, 3, 71, 127
1, 218758, Note_off_c, 2, 74, 64
1, 218808, Note_on_c, 2, 76, 127
1, 218816, Note_off_c, 3, 71, 64
1, 218866, Note_on_c, 2, 74, 127
1, 218871, Note_off_c, 2, 76, 64
1, 218921, Note_on_c, 3, 73, 127
1, 218927, Note_off_c, 2, 74, 64
1, 218977, Note_on_c, 3, 71, 127
1, 218981, Note_off_c, 3, 73, 64
1, 219023, Note_off_c, 4, 52, 64
1, 219029, Note_off_c, 4, 56, 64
1, 219031, Note_on_c, 4, 42, 126
1, 219031, Note_on_c, 3, 69, 127
1, 219037, Note_off_c, 3, 71, 64
1, 219038, Note_off_c, 4, 59, 64
1, 219049, Note_off_c, 4, 64, 64
1, 219089, Note_on_c, 3, 73, 127
1, 219095, Note_off_c, 3, 69, 64
1, 219145, Note_on_c, 4, 54, 127
1, 219145, Note_on_c, 3, 71, 127
1, 219152, Note_off_c, 3, 73, 64
1, 219200, Note_on_c, 3, 69, 127
1, 219205, Note_off_c, 3, 71, 64
1, 219254, Note_on_c, 4, 44, 126
1, 219254, Note_on_c, 3, 71, 127
1, 219258, Note_off_c, 4, 42, 64
1, 219259, Note_off_c, 3, 69, 64
1, 219316, Note_on_c, 2, 74, 127
1, 219323, Note_off_c, 3, 71, 64
1, 219376, Note_on_c, 3, 73, 127
1, 219377, Note_on_c, 4, 56, 127
1, 219379, Note_off_c, 4, 54, 64
1, 219381, Note_off_c, 2, 74, 64
1, 219432, Note_on_c, 3, 71, 127
1, 219437, Note_off_c, 3, 73, 64
1, 219487, Note_on_c, 3, 73, 127
1, 219488, Note_on_c, 4, 57, 127
1, 219492, Note_off_c, 3, 71, 64
1, 219499, Note_off_c, 4, 56, 64
1, 219544, Note_on_c, 2, 76, 127
1, 219549, Note_off_c, 3, 73, 64
1, 219600, Note_on_c, 1, 81, 127
1, 219600, Note_on_c, 4, 61, 127
1, 219606, Note_off_c, 2, 76, 64
1, 219613, Note_off_c, 4, 57, 64
1, 219660, Note_on_c, 2, 76, 127
1, 219665, Note_off_c, 1, 81, 64
1, 219720, Note_on_c, 4, 62, 127
1, 219720, Note_on_c, 1, 78, 127
1, 219724, Note_off_c, 2, 76, 64
1, 219732, Note_off_c, 4, 61, 64
1, 219776, Note_on_c, 1, 81, 127
1, 219782, Note_off_c, 1, 78, 64
1, 219836, Note_on_c, 3, 71, 127
1, 219836, Note_on_c, 4, 56, 127
1, 219842, Note_off_c, 1, 81, 64
1, 219848, Note_off_c, 4, 62, 64
1, 219894, Note_on_c, 2, 74, 127
1, 219900, Note_off_c, 3, 71, 64
1, 219950, Note_on_c, 3, 73, 127
1, 219950, Note_on_c, 4, 57, 127
1, 219954, Note_off_c, 2, 74, 64
1, 219962, Note_off_c, 4, 56, 64
1, 220005, Note_on_c, 2, 76, 127
1, 220010, Note_off_c, 3, 73, 64
1, 220060, Note_on_c, 3, 69, 127
1, 220061, Note_on_c, 4, 54, 127
1, 220067, Note_off_c, 2, 76, 64
1, 220072, Note_off_c, 4, 57, 64
1, 220117, Note_on_c, 3, 73, 127
1, 220123, Note_off_c, 3, 69, 64
1, 220176, Note_on_c, 3, 71, 127
1, 220177, Note_on_c, 4, 50, 127
1, 220181, Note_off_c, 3, 73, 64
1, 220188, Note_off_c, 4, 54, 64
1, 220229, Note_on_c, 2, 74, 127
1, 220235, Note_off_c, 3, 71, 64
1, 220289, Note_on_c, 3, 68, 127
1, 220289, Note_on_c, 4, 52, 127
1, 220296, Note_off_c, 2, 74, 64
1, 220303, Note_off_c, 4, 50, 64
1, 220347, Note_on_c, 3, 71, 127
1, 220351, Note_off_c, 3, 68, 64
1, 220405, Note_off_c, 4, 44, 64
1, 220405, Note_on_c, 3, 69, 127
1, 220406, Note_on_c, 4, 45, 126
1, 220410, Note_off_c, 3, 71, 64
1, 220416, Note_off_c, 4, 52, 64
1, 220457, Note_on_c, 4, 64, 127
1, 220463, Note_off_c, 3, 69, 64
1, 220512, Note_on_c, 4, 61, 127
1, 220518, Note_off_c, 4, 64, 64
1, 220570, Note_on_c, 4, 64, 127
1, 220576, Note_off_c, 4, 61, 64
1, 220626, Note_on_c, 3, 69, 127
1, 220632, Note_off_c, 4, 64, 64
1, 220852, Note_off_c, 3, 69, 64
1, 220854, Note_on_c, 3, 73, 127
1, 220856, Note_on_c, 4, 57, 127
1, 221000, Note_off_c, 3, 73, 64
1, 221004, Note_on_c, 2, 74, 127
1, 221005, Note_on_c, 4, 64, 127
1, 221064, Note_on_c, 3, 73, 127
1, 221074, Note_off_c, 2, 74, 64
1, 221114, Note_off_c, 4, 64, 64
1, 221122, Note_on_c, 3, 71, 127
1, 221123, Note_on_c, 4, 59, 127
1, 221127, Note_off_c, 4, 57, 64
1, 221133, Note_off_c, 3, 73, 64
1, 221181, Note_on_c, 3, 73, 127
1, 221189, Note_off_c, 3, 71, 64
1, 221238, Note_on_c, 2, 74, 127
1, 221238, Note_on_c, 4, 64, 127
1, 221246, Note_off_c, 3, 73, 64
1, 221342, Note_off_c, 4, 64, 64
1, 221350, Note_on_c, 4, 61, 127
1, 221350, Note_on_c, 1, 78, 127
1, 221354, Note_off_c, 4, 59, 64
1, 221360, Note_off_c, 2, 74, 64
1, 221474, Note_on_c, 2, 76, 127
1, 221474, Note_on_c, 4, 64, 127
1, 221484, Note_off_c, 1, 78, 64
1, 221590, Note_off_c, 4, 64, 64
1, 221600, Note_on_c, 4, 57, 127
1, 221600, Note_on_c, 2, 74, 127
1, 221604, Note_off_c, 4, 61, 64
1, 221610, Note_off_c, 2, 76, 64
1, 221724, Note_on_c, 3, 73, 127
1, 221724, Note_on_c, 4, 64, 127
1, 221733, Note_off_c, 2, 74, 64
1, 221834, Note_off_c, 4, 64, 64
1, 221844, Note_on_c, 4, 56, 127
1, 221844, Note_on_c, 3, 71, 127
1, 221849, Note_off_c, 4, 57, 64
1, 221856, Note_off_c, 3, 73, 64
1, 221968, Note_on_c, 3, 73, 127
1, 221969, Note_on_c, 4, 64, 127
1, 221977, Note_off_c, 3, 71, 64
1, 222027, Note_on_c, 3, 71, 127
1, 222033, Note_off_c, 3, 73, 64
1, 222075, Note_off_c, 4, 64, 64
1, 222077, Note_off_c, 3, 71, 64
1, 222084, Note_on_c, 4, 57, 127
1, 222084, Note_on_c, 3, 71, 127
1, 222086, Note_off_c, 4, 56, 64
1, 222136, Note_off_c, 3, 71, 64
1, 222140, Note_on_c, 3, 71, 127
1, 222202, Note_on_c, 3, 73, 127
1, 222202, Note_on_c, 4, 64, 127
1, 222208, Note_off_c, 3, 71, 64
1, 222304, Note_off_c, 4, 64, 64
1, 222314, Note_on_c, 4, 59, 127
1, 222314, Note_on_c, 2, 76, 127
1, 222316, Note_off_c, 4, 57, 64
1, 222323, Note_off_c, 3, 73, 64
1, 222443, Note_on_c, 2, 74, 127
1, 222443, Note_on_c, 4, 64, 127
1, 222453, Note_off_c, 2, 76, 64
1, 222554, Note_off_c, 4, 64, 64
1, 222564, Note_on_c, 3, 73, 127
1, 222565, Note_on_c, 4, 62, 127
1, 222567, Note_off_c, 4, 59, 64
1, 222573, Note_off_c, 2, 74, 64
1, 222684, Note_on_c, 3, 71, 127
1, 222685, Note_on_c, 4, 64, 127
1, 222695, Note_off_c, 3, 73, 64
1, 222705, Note_off_c, 4, 45, 64
1, 222799, Note_off_c, 4, 64, 64
1, 222808, Note_on_c, 3, 69, 127
1, 222809, Note_on_c, 4, 61, 127
1, 222811, Note_off_c, 4, 62, 64
1, 222819, Note_off_c, 3, 71, 64
1, 222928, Note_off_c, 3, 69, 64
1, 222934, Note_on_c, 3, 69, 127
1, 222935, Note_on_c, 4, 64, 127
1, 223046, Note_off_c, 4, 64, 64
1, 223054, Note_off_c, 4, 61, 64
1, 223056, Note_on_c, 4, 61, 127
1, 223179, Note_off_c, 3, 69, 64
1, 223179, Note_on_c, 3, 71, 127
1, 223180, Note_on_c, 4, 64, 127
1, 223287, Note_off_c, 4, 64, 64
1, 223293, Note_off_c, 4, 61, 64
1, 223295, Note_on_c, 4, 56, 127
1, 223408, Note_off_c, 3, 71, 64
1, 223414, Note_on_c, 3, 71, 127
1, 223415, Note_on_c, 4, 64, 127
1, 223524, Note_off_c, 4, 64, 64
1, 223530, Note_off_c, 4, 56, 64
1, 223532, Note_on_c, 4, 56, 127
1, 223647, Note_on_c, 3, 72, 127
1, 223648, Note_on_c, 4, 64, 127
1, 223650, Note_off_c, 3, 71, 64
1, 223750, Note_off_c, 4, 64, 64
1, 223756, Note_off_c, 4, 56, 64
1, 223756, Note_off_c, 3, 72, 64
1, 223760, Note_on_c, 4, 57, 127
1, 223760, Note_on_c, 2, 74, 127
1, 223788, Note_on_c, 3, 73, 127
1, 223809, Note_off_c, 2, 74, 64
1, 223884, Note_on_c, 3, 73, 127
1, 223884, Note_on_c, 4, 64, 127
1, 223900, Note_off_c, 3, 73, 64
1, 223994, Note_off_c, 4, 64, 64
1, 224000, Note_off_c, 3, 73, 64
1, 224002, Note_on_c, 4, 50, 127
1, 224002, Note_on_c, 2, 76, 127
1, 224006, Note_off_c, 4, 57, 64
1, 224024, Note_on_c, 2, 74, 127
1, 224045, Note_off_c, 2, 76, 64
1, 224122, Note_on_c, 2, 74, 127
1, 224122, Note_on_c, 4, 59, 127
1, 224140, Note_off_c, 2, 74, 64
1, 224240, Note_on_c, 3, 73, 127
1, 224240, Note_on_c, 4, 57, 127
1, 224241, Note_on_c, 4, 52, 127
1, 224243, Note_off_c, 4, 50, 64
1, 224249, Note_off_c, 4, 59, 64
1, 224264, Note_off_c, 2, 74, 64
1, 224477, Note_on_c, 3, 71, 127
1, 224478, Note_on_c, 4, 56, 127
1, 224482, Note_off_c, 4, 57, 64
1, 224482, Note_off_c, 3, 73, 64
1, 224708, Note_off_c, 4, 52, 64
1, 224708, Note_on_c, 3, 73, 127
1, 224709, Note_on_c, 4, 33, 126
1, 224712, Note_off_c, 3, 71, 64
1, 224712, Note_off_c, 4, 56, 64
1, 224715, Note_on_c, 4, 37, 126
1, 224724, Note_on_c, 4, 40, 126
1, 224736, Note_on_c, 4, 45, 126
1, 224767, Note_on_c, 3, 69, 127
1, 224772, Note_off_c, 3, 73, 64
1, 224825, Note_on_c, 4, 64, 127
1, 224830, Note_off_c, 3, 69, 64
1, 224884, Note_on_c, 3, 69, 127
1, 224890, Note_off_c, 4, 64, 64
1, 224942, Note_on_c, 3, 73, 127
1, 224947, Note_off_c, 3, 69, 64
1, 224996, Note_on_c, 3, 69, 127
1, 225001, Note_off_c, 3, 73, 64
1, 225053, Note_on_c, 2, 74, 127
1, 225059, Note_off_c, 3, 69, 64
1, 225109, Note_on_c, 3, 71, 127
1, 225113, Note_off_c, 2, 74, 64
1, 225153, Note_off_c, 4, 33, 64
1, 225161, Note_off_c, 4, 37, 64
1, 225163, Note_on_c, 4, 57, 127
1, 225163, Note_on_c, 2, 76, 127
1, 225169, Note_off_c, 3, 71, 64
1, 225170, Note_off_c, 4, 40, 64
1, 225170, Note_on_c, 4, 61, 127
1, 225178, Note_off_c, 4, 45, 64
1, 225179, Note_on_c, 4, 64, 127
1, 225189, Note_on_c, 3, 69, 127
1, 225217, Note_on_c, 3, 73, 127
1, 225223, Note_off_c, 2, 76, 64
1, 225273, Note_on_c, 2, 76, 127
1, 225279, Note_off_c, 3, 73, 64
1, 225329, Note_on_c, 3, 73, 127
1, 225334, Note_off_c, 2, 76, 64
1, 225382, Note_on_c, 1, 78, 127
1, 225386, Note_off_c, 3, 73, 64
1, 225440, Note_on_c, 2, 76, 127
1, 225446, Note_off_c, 1, 78, 64
1, 225494, Note_on_c, 2, 74, 127
1, 225500, Note_off_c, 2, 76, 64
1, 225546, Note_on_c, 3, 73, 127
1, 225552, Note_off_c, 2, 74, 64
1, 225590, Note_off_c, 4, 57, 64
1, 225598, Note_off_c, 4, 61, 64
1, 225600, Note_on_c, 4, 40, 126
1, 225600, Note_on_c, 3, 71, 127
1, 225606, Note_off_c, 3, 73, 64
1, 225607, Note_off_c, 4, 64, 64
1, 225607, Note_on_c, 4, 44, 126
1, 225617, Note_off_c, 3, 69, 64
1, 225617, Note_on_c, 4, 47, 126
1, 225627, Note_on_c, 4, 52, 127
1, 225658, Note_on_c, 3, 69, 127
1, 225664, Note_off_c, 3, 71, 64
1, 225716, Note_on_c, 4, 64, 127
1, 225721, Note_off_c, 3, 69, 64
1, 225771, Note_on_c, 3, 69, 127
1, 225777, Note_off_c, 4, 64, 64
1, 225823, Note_on_c, 3, 71, 127
1, 225829, Note_off_c, 3, 69, 64
1, 225878, Note_on_c, 3, 69, 127
1, 225884, Note_off_c, 3, 71, 64
1, 225934, Note_on_c, 3, 73, 127
1, 225939, Note_off_c, 3, 69, 64
1, 225987, Note_on_c, 3, 69, 127
1, 225993, Note_off_c, 3, 73, 64
1, 226033, Note_off_c, 4, 40, 64
1, 226039, Note_off_c, 4, 52, 64
1, 226040, Note_off_c, 4, 44, 64
1, 226042, Note_on_c, 2, 74, 127
1, 226043, Note_on_c, 4, 52, 127
1, 226047, Note_off_c, 3, 69, 64
1, 226047, Note_off_c, 4, 47, 64
1, 226048, Note_on_c, 4, 56, 127
1, 226057, Note_on_c, 4, 59, 127
1, 226065, Note_on_c, 4, 64, 127
1, 226096, Note_on_c, 3, 71, 127
1, 226101, Note_off_c, 2, 74, 64
1, 226149, Note_on_c, 2, 74, 127
1, 226152, Note_off_c, 3, 71, 64
1, 226199, Note_on_c, 3, 71, 127
1, 226202, Note_off_c, 2, 74, 64
1, 226255, Note_on_c, 2, 76, 127
1, 226260, Note_off_c, 3, 71, 64
1, 226312, Note_on_c, 2, 74, 127
1, 226316, Note_off_c, 2, 76, 64
1, 226366, Note_on_c, 3, 73, 127
1, 226371, Note_off_c, 2, 74, 64
1, 226422, Note_on_c, 3, 71, 127
1, 226427, Note_off_c, 3, 73, 64
1, 226468, Note_off_c, 4, 52, 64
1, 226473, Note_off_c, 4, 56, 64
1, 226477, Note_on_c, 4, 42, 126
1, 226477, Note_on_c, 3, 69, 127
1, 226482, Note_off_c, 3, 71, 64
1, 226484, Note_off_c, 4, 59, 64
1, 226493, Note_off_c, 4, 64, 64
1, 226534, Note_on_c, 3, 73, 127
1, 226539, Note_off_c, 3, 69, 64
1, 226592, Note_on_c, 4, 54, 127
1, 226592, Note_on_c, 3, 71, 127
1, 226596, Note_off_c, 3, 73, 64
1, 226646, Note_on_c, 3, 69, 127
1, 226652, Note_off_c, 3, 71, 64
1, 226700, Note_on_c, 3, 71, 127
1, 226701, Note_on_c, 4, 44, 126
1, 226703, Note_off_c, 4, 42, 64
1, 226704, Note_off_c, 3, 69, 64
1, 226761, Note_on_c, 2, 74, 127
1, 226766, Note_off_c, 3, 71, 64
1, 226820, Note_on_c, 3, 73, 127
1, 226821, Note_on_c, 4, 56, 127
1, 226824, Note_off_c, 4, 54, 64
1, 226825, Note_off_c, 2, 74, 64
1, 226877, Note_on_c, 3, 71, 127
1, 226882, Note_off_c, 3, 73, 64
1, 226932, Note_on_c, 3, 73, 127
1, 226933, Note_on_c, 4, 57, 127
1, 226937, Note_off_c, 3, 71, 64
1, 226943, Note_off_c, 4, 56, 64
1, 226989, Note_on_c, 2, 76, 127
1, 226995, Note_off_c, 3, 73, 64
1, 227045, Note_on_c, 1, 81, 127
1, 227045, Note_on_c, 4, 61, 127
1, 227051, Note_off_c, 2, 76, 64
1, 227059, Note_off_c, 4, 57, 64
1, 227105, Note_on_c, 2, 76, 127
1, 227111, Note_off_c, 1, 81, 64
1, 227165, Note_on_c, 4, 62, 127
1, 227165, Note_on_c, 1, 78, 127
1, 227169, Note_off_c, 2, 76, 64
1, 227175, Note_off_c, 4, 61, 64
1, 227221, Note_on_c, 1, 81, 127
1, 227227, Note_off_c, 1, 78, 64
1, 227281, Note_on_c, 3, 71, 127
1, 227281, Note_on_c, 4, 56, 127
1, 227287, Note_off_c, 1, 81, 64
1, 227293, Note_off_c, 4, 62, 64
1, 227338, Note_on_c, 2, 74, 127
1, 227343, Note_off_c, 3, 71, 64
1, 227395, Note_on_c, 3, 73, 127
1, 227396, Note_on_c, 4, 57, 127
1, 227400, Note_off_c, 2, 74, 64
1, 227406, Note_off_c, 4, 56, 64
1, 227448, Note_on_c, 2, 76, 127
1, 227456, Note_off_c, 3, 73, 64
1, 227506, Note_on_c, 3, 69, 127
1, 227506, Note_on_c, 4, 54, 127
1, 227510, Note_off_c, 2, 76, 64
1, 227518, Note_off_c, 4, 57, 64
1, 227562, Note_on_c, 3, 73, 127
1, 227568, Note_off_c, 3, 69, 64
1, 227622, Note_on_c, 3, 71, 127
1, 227622, Note_on_c, 4, 50, 127
1, 227627, Note_off_c, 3, 73, 64
1, 227634, Note_off_c, 4, 54, 64
1, 227675, Note_on_c, 2, 74, 127
1, 227680, Note_off_c, 3, 71, 64
1, 227734, Note_on_c, 3, 68, 127
1, 227735, Note_on_c, 4, 52, 127
1, 227741, Note_off_c, 2, 74, 64
1, 227747, Note_off_c, 4, 50, 64
1, 227791, Note_on_c, 3, 71, 127
1, 227796, Note_off_c, 3, 68, 64
1, 227850, Note_off_c, 4, 44, 64
1, 227851, Note_on_c, 4, 45, 126
1, 227851, Note_on_c, 3, 69, 127
1, 227855, Note_off_c, 3, 71, 64
1, 227861, Note_off_c, 4, 52, 64
1, 227903, Note_on_c, 4, 64, 127
1, 227909, Note_off_c, 3, 69, 64
1, 227957, Note_on_c, 4, 61, 127
1, 227963, Note_off_c, 4, 64, 64
1, 228014, Note_on_c, 4, 64, 127
1, 228020, Note_off_c, 4, 61, 64
1, 228070, Note_on_c, 3, 69, 127
1, 228076, Note_off_c, 4, 64, 64
1, 228297, Note_off_c, 3, 69, 64
1, 228299, Note_on_c, 4, 57, 119
1, 228299, Note_on_c, 3, 69, 121
1, 228363, Note_on_c, 3, 71, 127
1, 228374, Note_off_c, 3, 69, 64
1, 228424, Note_on_c, 3, 73, 127
1, 228425, Note_on_c, 4, 64, 124
1, 228435, Note_off_c, 3, 71, 64
1, 228485, Note_on_c, 3, 74, 127
1, 228494, Note_off_c, 3, 73, 64
1, 228539, Note_off_c, 4, 57, 64
1, 228547, Note_on_c, 4, 61, 126
1, 228547, Note_on_c, 3, 76, 127
1, 228555, Note_off_c, 3, 74, 64
1, 228607, Note_on_c, 1, 78, 127
1, 228616, Note_off_c, 3, 76, 64
1, 228660, Note_off_c, 4, 64, 64
1, 228666, Note_on_c, 1, 80, 127
1, 228667, Note_on_c, 4, 64, 124
1, 228677, Note_off_c, 1, 78, 64
1, 228725, Note_on_c, 1, 81, 127
1, 228733, Note_off_c, 1, 80, 64
1, 228779, Note_off_c, 4, 61, 64
1, 228787, Note_on_c, 4, 57, 124
1, 228787, Note_on_c, 1, 80, 127
1, 228795, Note_off_c, 1, 81, 64
1, 228845, Note_on_c, 1, 78, 127
1, 228854, Note_off_c, 1, 80, 64
1, 228895, Note_off_c, 4, 64, 64
1, 228901, Note_on_c, 3, 77, 127
1, 228901, Note_on_c, 4, 66, 127
1, 228913, Note_off_c, 1, 78, 64
1, 228961, Note_on_c, 1, 78, 127
1, 228971, Note_off_c, 3, 77, 64
1, 229017, Note_off_c, 4, 57, 64
1, 229023, Note_on_c, 4, 62, 125
1, 229023, Note_on_c, 3, 77, 127
1, 229033, Note_off_c, 1, 78, 64
1, 229081, Note_on_c, 1, 78, 127
1, 229091, Note_off_c, 3, 77, 64
1, 229135, Note_off_c, 4, 66, 64
1, 229143, Note_on_c, 3, 77, 127
1, 229143, Note_on_c, 4, 66, 127
1, 229152, Note_off_c, 1, 78, 64
1, 229200, Note_on_c, 1, 78, 127
1, 229211, Note_off_c, 3, 77, 64
1, 229253, Note_off_c, 4, 62, 64
1, 229259, Note_on_c, 1, 81, 127
1, 229260, Note_on_c, 4, 57, 124
1, 229272, Note_off_c, 1, 78, 64
1, 229321, Note_on_c, 1, 80, 127
1, 229331, Note_off_c, 1, 81, 64
1, 229373, Note_off_c, 4, 66, 64
1, 229379, Note_on_c, 1, 81, 127
1, 229380, Note_on_c, 4, 66, 127
1, 229390, Note_off_c, 1, 80, 64
1, 229441, Note_on_c, 1, 80, 127
1, 229451, Note_off_c, 1, 81, 64
1, 229491, Note_off_c, 4, 57, 64
1, 229497, Note_on_c, 1, 83, 127
1, 229498, Note_on_c, 4, 62, 125
1, 229508, Note_off_c, 1, 80, 64
1, 229558, Note_on_c, 1, 81, 127
1, 229567, Note_off_c, 1, 83, 64
1, 229609, Note_off_c, 4, 66, 64
1, 229615, Note_on_c, 1, 80, 127
1, 229616, Note_on_c, 4, 66, 127
1, 229624, Note_off_c, 1, 81, 64
1, 229674, Note_on_c, 1, 78, 127
1, 229685, Note_off_c, 1, 80, 64
1, 229726, Note_off_c, 4, 62, 64
1, 229729, Note_off_c, 1, 78, 64
1, 229731, Note_on_c, 1, 78, 127
1, 229732, Note_on_c, 4, 57, 124
1, 229792, Note_on_c, 3, 76, 127
1, 229801, Note_off_c, 1, 78, 64
1, 229844, Note_off_c, 4, 66, 64
1, 229849, Note_on_c, 3, 75, 127
1, 229850, Note_on_c, 4, 64, 124
1, 229858, Note_off_c, 3, 76, 64
1, 229904, Note_on_c, 3, 76, 127
1, 229914, Note_off_c, 3, 75, 64
1, 229958, Note_off_c, 4, 57, 64
1, 229964, Note_on_c, 4, 61, 126
1, 229964, Note_on_c, 3, 75, 127
1, 229972, Note_off_c, 3, 76, 64
1, 230020, Note_on_c, 3, 76, 127
1, 230030, Note_off_c, 3, 75, 64
1, 230074, Note_off_c, 4, 64, 64
1, 230080, Note_on_c, 4, 64, 124
1, 230080, Note_on_c, 3, 75, 127
1, 230089, Note_off_c, 3, 76, 64
1, 230099, Note_off_c, 4, 45, 64
1, 230134, Note_on_c, 3, 76, 127
1, 230143, Note_off_c, 3, 75, 64
1, 230185, Note_off_c, 4, 61, 64
1, 230189, Note_off_c, 3, 76, 64
1, 230191, Note_on_c, 3, 76, 127
1, 230192, Note_on_c, 4, 45, 122
1, 230202, Note_on_c, 4, 49, 124
1, 230215, Note_on_c, 4, 52, 124
1, 230227, Note_on_c, 4, 57, 124
1, 230257, Note_on_c, 1, 81, 127
1, 230267, Note_off_c, 3, 76, 64
1, 230307, Note_off_c, 4, 64, 64
1, 230311, Note_on_c, 1, 85, 127
1, 230321, Note_off_c, 1, 81, 64
1, 230371, Note_on_c, 1, 83, 127
1, 230378, Note_off_c, 1, 85, 64
1, 230423, Note_on_c, 1, 81, 127
1, 230430, Note_off_c, 1, 83, 64
1, 230476, Note_on_c, 1, 80, 127
1, 230486, Note_off_c, 1, 81, 64
1, 230532, Note_on_c, 1, 78, 127
1, 230542, Note_off_c, 1, 80, 64
1, 230588, Note_on_c, 3, 76, 127
1, 230597, Note_off_c, 1, 78, 64
1, 230624, Note_off_c, 4, 45, 64
1, 230630, Note_off_c, 4, 49, 64
1, 230640, Note_off_c, 4, 52, 64
1, 230641, Note_on_c, 3, 74, 127
1, 230642, Note_on_c, 4, 47, 122
1, 230648, Note_off_c, 4, 57, 64
1, 230649, Note_on_c, 4, 50, 124
1, 230651, Note_off_c, 3, 76, 64
1, 230657, Note_on_c, 4, 56, 124
1, 230666, Note_on_c, 4, 59, 126
1, 230695, Note_on_c, 1, 80, 127
1, 230703, Note_off_c, 3, 74, 64
1, 230747, Note_on_c, 1, 83, 127
1, 230757, Note_off_c, 1, 80, 64
1, 230805, Note_on_c, 1, 81, 127
1, 230812, Note_off_c, 1, 83, 64
1, 230856, Note_on_c, 1, 80, 127
1, 230864, Note_off_c, 1, 81, 64
1, 230910, Note_on_c, 1, 78, 127
1, 230920, Note_off_c, 1, 80, 64
1, 230965, Note_on_c, 3, 76, 127
1, 230973, Note_off_c, 1, 78, 64
1, 231021, Note_on_c, 3, 74, 127
1, 231030, Note_off_c, 3, 76, 64
1, 231059, Note_off_c, 4, 47, 64
1, 231065, Note_off_c, 4, 50, 64
1, 231074, Note_off_c, 4, 56, 64
1, 231079, Note_on_c, 3, 73, 127
1, 231079, Note_on_c, 4, 49, 124
1, 231087, Note_off_c, 4, 59, 64
1, 231087, Note_on_c, 4, 52, 124
1, 231090, Note_off_c, 3, 74, 64
1, 231097, Note_on_c, 4, 57, 124
1, 231107, Note_on_c, 4, 61, 126
1, 231140, Note_on_c, 3, 76, 127
1, 231150, Note_off_c, 3, 73, 64
1, 231198, Note_on_c, 1, 81, 127
1, 231207, Note_off_c, 3, 76, 64
1, 231253, Note_on_c, 1, 80, 127
1, 231261, Note_off_c, 1, 81, 64
1, 231304, Note_off_c, 4, 49, 64
1, 231308, Note_on_c, 1, 78, 127
1, 231308, Note_on_c, 4, 50, 124
1, 231312, Note_off_c, 4, 52, 64
1, 231314, Note_on_c, 4, 54, 124
1, 231317, Note_off_c, 1, 80, 64
1, 231322, Note_off_c, 4, 57, 64
1, 231323, Note_on_c, 4, 59, 126
1, 231332, Note_off_c, 4, 61, 64
1, 231334, Note_on_c, 4, 62, 125
1, 231365, Note_on_c, 3, 76, 127
1, 231374, Note_off_c, 1, 78, 64
1, 231420, Note_on_c, 3, 74, 127
1, 231428, Note_off_c, 3, 76, 64
1, 231474, Note_on_c, 3, 73, 127
1, 231483, Note_off_c, 3, 74, 64
1, 231525, Note_off_c, 4, 50, 64
1, 231529, Note_on_c, 4, 52, 124
1, 231529, Note_on_c, 3, 71, 127
1, 231533, Note_off_c, 4, 54, 64
1, 231535, Note_off_c, 4, 59, 64
1, 231536, Note_on_c, 4, 59, 126
1, 231539, Note_off_c, 3, 73, 64
1, 231542, Note_off_c, 4, 59, 64
1, 231544, Note_on_c, 4, 56, 124
1, 231552, Note_off_c, 4, 62, 64
1, 231553, Note_on_c, 4, 64, 124
1, 231585, Note_on_c, 3, 69, 127
1, 231594, Note_off_c, 3, 71, 64
1, 231642, Note_on_c, 3, 68, 127
1, 231652, Note_off_c, 3, 69, 64
1, 231698, Note_on_c, 4, 66, 127
1, 231705, Note_off_c, 4, 64, 64
1, 231708, Note_off_c, 3, 68, 64
1, 231756, Note_on_c, 4, 64, 124
1, 231765, Note_off_c, 4, 66, 64
1, 231813, Note_on_c, 4, 62, 125
1, 231823, Note_off_c, 4, 64, 64
1, 231869, Note_on_c, 4, 61, 126
1, 231878, Note_off_c, 4, 62, 64
1, 231903, Note_off_c, 4, 56, 64
1, 231924, Note_on_c, 4, 59, 126
1, 231934, Note_off_c, 4, 61, 64
1, 231984, Note_on_c, 3, 73, 127
1, 231984, Note_on_c, 4, 57, 124
1, 231995, Note_off_c, 4, 59, 64
1, 232102, Note_off_c, 3, 73, 64
1, 232104, Note_on_c, 4, 64, 124
1, 232104, Note_on_c, 3, 74, 127
1, 232164, Note_on_c, 3, 73, 127
1, 232174, Note_off_c, 3, 74, 64
1, 232222, Note_on_c, 3, 71, 127
1, 232223, Note_on_c, 4, 59, 126
1, 232231, Note_off_c, 3, 73, 64
1, 232233, Note_off_c, 4, 57, 64
1, 232279, Note_on_c, 3, 73, 127
1, 232286, Note_off_c, 3, 71, 64
1, 232327, Note_off_c, 4, 64, 64
1, 232332, Note_on_c, 3, 74, 127
1, 232333, Note_on_c, 4, 64, 124
1, 232341, Note_off_c, 3, 73, 64
1, 232443, Note_off_c, 3, 74, 64
1, 232447, Note_on_c, 1, 78, 127
1, 232447, Note_on_c, 4, 61, 126
1, 232455, Note_off_c, 4, 59, 64
1, 232557, Note_off_c, 4, 64, 64
1, 232561, Note_off_c, 1, 78, 64
1, 232563, Note_on_c, 3, 76, 127
1, 232563, Note_on_c, 4, 64, 124
1, 232679, Note_off_c, 3, 76, 64
1, 232681, Note_on_c, 4, 57, 124
1, 232681, Note_on_c, 3, 74, 127
1, 232692, Note_off_c, 4, 61, 64
1, 232791, Note_off_c, 4, 64, 64
1, 232795, Note_off_c, 3, 74, 64
1, 232797, Note_on_c, 3, 73, 127
1, 232798, Note_on_c, 4, 64, 124
1, 232911, Note_off_c, 3, 73, 64
1, 232915, Note_on_c, 3, 71, 127
1, 232916, Note_on_c, 4, 56, 124
1, 232924, Note_off_c, 4, 57, 64
1, 233029, Note_off_c, 4, 64, 64
1, 233033, Note_off_c, 3, 71, 64
1, 233035, Note_on_c, 3, 73, 127
1, 233036, Note_on_c, 4, 64, 124
1, 233092, Note_on_c, 3, 71, 127
1, 233098, Note_off_c, 3, 73, 64
1, 233144, Note_off_c, 3, 71, 64
1, 233148, Note_on_c, 4, 57, 124
1, 233148, Note_on_c, 3, 71, 127
1, 233158, Note_off_c, 4, 56, 64
1, 233191, Note_off_c, 3, 71, 64
1, 233206, Note_on_c, 3, 71, 127
1, 233260, Note_off_c, 3, 71, 64
1, 233260, Note_off_c, 4, 64, 64
1, 233266, Note_on_c, 3, 73, 127
1, 233266, Note_on_c, 4, 64, 124
1, 233378, Note_on_c, 4, 59, 126
1, 233378, Note_on_c, 3, 76, 127
1, 233387, Note_off_c, 4, 57, 64
1, 233388, Note_off_c, 3, 73, 64
1, 233488, Note_off_c, 4, 64, 64
1, 233494, Note_on_c, 3, 74, 127
1, 233495, Note_on_c, 4, 64, 124
1, 233507, Note_off_c, 3, 76, 64
1, 233615, Note_on_c, 4, 56, 124
1, 233615, Note_on_c, 3, 73, 127
1, 233625, Note_off_c, 4, 59, 64
1, 233626, Note_off_c, 3, 74, 64
1, 233726, Note_off_c, 4, 64, 64
1, 233733, Note_on_c, 3, 71, 127
1, 233733, Note_on_c, 4, 64, 124
1, 233743, Note_off_c, 3, 73, 64
1, 233841, Note_on_c, 3, 69, 127
1, 233842, Note_on_c, 4, 54, 124
1, 233852, Note_off_c, 4, 56, 64
1, 233853, Note_off_c, 3, 71, 64
1, 233959, Note_off_c, 4, 64, 64
1, 233961, Note_off_c, 3, 69, 64
1, 233965, Note_on_c, 3, 69, 127
1, 233965, Note_on_c, 4, 64, 124
1, 234083, Note_on_c, 4, 56, 124
1, 234095, Note_off_c, 4, 54, 64
1, 234196, Note_off_c, 3, 69, 64
1, 234200, Note_off_c, 4, 64, 64
1, 234206, Note_on_c, 3, 71, 127
1, 234206, Note_on_c, 4, 64, 124
1, 234326, Note_on_c, 4, 57, 124
1, 234334, Note_off_c, 4, 56, 64
1, 234428, Note_off_c, 3, 71, 64
1, 234431, Note_off_c, 4, 64, 64
1, 234436, Note_off_c, 4, 52, 64
1, 234437, Note_on_c, 3, 71, 127
1, 234437, Note_on_c, 4, 64, 124
1, 234474, Note_on_c, 3, 73, 127
1, 234483, Note_off_c, 3, 71, 64
1, 234556, Note_on_c, 4, 50, 124
1, 234566, Note_off_c, 4, 57, 64
1, 234658, Note_off_c, 3, 73, 64
1, 234660, Note_off_c, 4, 64, 64
1, 234666, Note_on_c, 4, 59, 126
1, 234666, Note_on_c, 3, 76, 127
1, 234701, Note_on_c, 3, 74, 127
1, 234711, Note_off_c, 3, 76, 64
1, 234784, Note_on_c, 4, 52, 124
1, 234792, Note_off_c, 4, 50, 64
1, 234882, Note_off_c, 3, 74, 64
1, 234889, Note_on_c, 3, 74, 127
1, 234890, Note_on_c, 4, 57, 124
1, 234900, Note_off_c, 4, 59, 64
1, 234925, Note_on_c, 3, 73, 127
1, 234935, Note_off_c, 3, 74, 64
1, 235002, Note_off_c, 4, 52, 64
1, 235008, Note_on_c, 4, 52, 124
1, 235109, Note_off_c, 3, 73, 64
1, 235118, Note_on_c, 4, 56, 124
1, 235118, Note_on_c, 3, 73, 127
1, 235127, Note_off_c, 4, 57, 64
1, 235152, Note_on_c, 3, 71, 127
1, 235159, Note_off_c, 3, 73, 64
1, 235228, Note_off_c, 4, 52, 64
1, 235232, Note_off_c, 4, 56, 64
1, 235236, Note_off_c, 3, 71, 64
1, 235236, Note_on_c, 3, 71, 127
1, 235237, Note_on_c, 3, 69, 127
1, 235237, Note_on_c, 4, 64, 124
1, 235238, Note_on_c, 4, 62, 125
1, 235238, Note_on_c, 4, 57, 124
1, 235350, Note_off_c, 3, 71, 64
1, 235354, Note_on_c, 3, 72, 127
1, 235475, Note_off_c, 3, 72, 64
1, 235476, Note_off_c, 4, 64, 64
1, 235476, Note_off_c, 4, 57, 64
1, 235476, Note_off_c, 4, 62, 64
1, 235477, Note_off_c, 3, 69, 64
1, 235479, Note_on_c, 3, 73, 127
1, 235479, Note_on_c, 3, 69, 127
1, 235480, Note_on_c, 4, 64, 124
1, 235480, Note_on_c, 4, 61, 126
1, 235481, Note_on_c, 4, 57, 124
1, 235695, Note_off_c, 4, 61, 64
1, 235695, Note_off_c, 4, 57, 64
1, 235696, Note_off_c, 3, 69, 64
1, 235696, Note_off_c, 4, 64, 64
1, 235697, Note_off_c, 3, 73, 64
1, 235705, Note_on_c, 4, 45, 122
1, 235705, Note_on_c, 3, 73, 127
1, 235767, Note_on_c, 3, 69, 127
1, 235767, Note_on_c, 4, 49, 124
1, 235776, Note_off_c, 3, 73, 64
1, 235824, Note_on_c, 3, 76, 127
1, 235824, Note_on_c, 4, 52, 124
1, 235835, Note_off_c, 4, 49, 64
1, 235835, Note_off_c, 3, 69, 64
1, 235883, Note_on_c, 3, 73, 127
1, 235883, Note_on_c, 4, 57, 124
1, 235893, Note_off_c, 4, 52, 64
1, 235894, Note_off_c, 3, 76, 64
1, 235934, Note_off_c, 4, 45, 64
1, 235940, Note_on_c, 3, 74, 127
1, 235941, Note_on_c, 4, 47, 122
1, 235950, Note_off_c, 3, 73, 64
1, 235999, Note_on_c, 3, 71, 127
1, 235999, Note_on_c, 4, 50, 124
1, 236009, Note_off_c, 3, 74, 64
1, 236011, Note_off_c, 4, 57, 64
1, 236055, Note_on_c, 1, 78, 127
1, 236055, Note_on_c, 4, 56, 124
1, 236064, Note_off_c, 4, 50, 64
1, 236064, Note_off_c, 3, 71, 64
1, 236113, Note_on_c, 3, 74, 127
1, 236113, Note_on_c, 4, 59, 126
1, 236122, Note_off_c, 4, 56, 64
1, 236122, Note_off_c, 1, 78, 64
1, 236162, Note_off_c, 4, 47, 64
1, 236169, Note_on_c, 3, 76, 127
1, 236169, Note_on_c, 4, 49, 124
1, 236179, Note_off_c, 3, 74, 64
1, 236225, Note_on_c, 3, 73, 127
1, 236226, Note_on_c, 4, 52, 124
1, 236236, Note_off_c, 3, 76, 64
1, 236237, Note_off_c, 4, 59, 64
1, 236280, Note_on_c, 1, 81, 127
1, 236280, Note_on_c, 4, 57, 124
1, 236289, Note_off_c, 4, 52, 64
1, 236289, Note_off_c, 3, 73, 64
1, 236340, Note_on_c, 3, 76, 127
1, 236340, Note_on_c, 4, 61, 126
1, 236350, Note_off_c, 4, 57, 64
1, 236351, Note_off_c, 1, 81, 64
1, 236391, Note_off_c, 4, 49, 64
1, 236397, Note_on_c, 1, 80, 127
1, 236398, Note_on_c, 4, 50, 124
1, 236406, Note_off_c, 3, 76, 64
1, 236457, Note_on_c, 1, 78, 127
1, 236457, Note_on_c, 4, 54, 124
1, 236465, Note_off_c, 1, 80, 64
1, 236467, Note_off_c, 4, 61, 64
1, 236511, Note_on_c, 3, 76, 127
1, 236512, Note_on_c, 4, 59, 126
1, 236522, Note_off_c, 4, 54, 64
1, 236522, Note_off_c, 1, 78, 64
1, 236569, Note_on_c, 4, 62, 125
1, 236569, Note_on_c, 3, 74, 127
1, 236578, Note_off_c, 4, 59, 64
1, 236578, Note_off_c, 3, 76, 64
1, 236621, Note_off_c, 4, 50, 64
1, 236627, Note_on_c, 3, 73, 127
1, 236627, Note_on_c, 4, 52, 124
1, 236637, Note_off_c, 3, 74, 64
1, 236683, Note_on_c, 3, 76, 127
1, 236684, Note_on_c, 4, 57, 124
1, 236692, Note_off_c, 3, 73, 64
1, 236696, Note_off_c, 4, 62, 64
1, 236744, Note_on_c, 3, 69, 127
1, 236744, Note_on_c, 4, 61, 126
1, 236752, Note_off_c, 4, 57, 64
1, 236753, Note_off_c, 3, 76, 64
1, 236801, Note_on_c, 3, 73, 127
1, 236802, Note_on_c, 4, 64, 124
1, 236812, Note_off_c, 4, 61, 64
1, 236812, Note_off_c, 3, 69, 64
1, 236853, Note_off_c, 4, 52, 64
1, 236857, Note_on_c, 3, 71, 127
1, 236857, Note_on_c, 4, 40, 122
1, 236868, Note_off_c, 3, 73, 64
1, 236914, Note_on_c, 3, 74, 127
1, 236914, Note_on_c, 4, 44, 122
1, 236922, Note_off_c, 3, 71, 64
1, 236926, Note_off_c, 4, 64, 64
1, 236974, Note_on_c, 3, 68, 127
1, 236975, Note_on_c, 4, 47, 122
1, 236983, Note_off_c, 4, 44, 64
1, 236983, Note_off_c, 3, 74, 64
1, 237030, Note_on_c, 4, 52, 124
1, 237030, Note_on_c, 3, 71, 127
1, 237039, Note_off_c, 4, 47, 64
1, 237039, Note_off_c, 3, 68, 64
1, 237084, Note_off_c, 4, 40, 64
1, 237092, Note_on_c, 3, 69, 127
1, 237092, Note_on_c, 4, 45, 122
1, 237102, Note_off_c, 3, 71, 64
1, 237148, Note_on_c, 4, 64, 124
1, 237148, Note_on_c, 4, 49, 124
1, 237158, Note_off_c, 3, 69, 64
1, 237160, Note_off_c, 4, 52, 64
1, 237204, Note_on_c, 4, 61, 126
1, 237205, Note_on_c, 4, 52, 124
1, 237215, Note_off_c, 4, 49, 64
1, 237216, Note_off_c, 4, 64, 64
1, 237266, Note_on_c, 4, 57, 124
1, 237266, Note_on_c, 4, 64, 124
1, 237275, Note_off_c, 4, 52, 64
1, 237275, Note_off_c, 4, 61, 64
1, 237320, Note_off_c, 4, 45, 64
1, 237325, Note_on_c, 3, 69, 127
1, 237326, Note_on_c, 4, 45, 122
1, 237334, Note_off_c, 4, 64, 64
1, 237399, Note_off_c, 4, 57, 64
1, 237563, Note_off_c, 3, 69, 64
1, 237564, Note_on_c, 3, 69, 127
1, 237565, Note_on_c, 4, 57, 124
1, 237629, Note_on_c, 3, 71, 127
1, 237638, Note_off_c, 3, 69, 64
1, 237690, Note_on_c, 3, 73, 127
1, 237691, Note_on_c, 4, 64, 124
1, 237701, Note_off_c, 3, 71, 64
1, 237751, Note_on_c, 3, 74, 127
1, 237761, Note_off_c, 3, 73, 64
1, 237805, Note_off_c, 4, 57, 64
1, 237811, Note_on_c, 3, 76, 127
1, 237812, Note_on_c, 4, 61, 126
1, 237822, Note_off_c, 3, 74, 64
1, 237872, Note_on_c, 1, 78, 127
1, 237881, Note_off_c, 3, 76, 64
1, 237925, Note_off_c, 4, 64, 64
1, 237931, Note_on_c, 1, 80, 127
1, 237932, Note_on_c, 4, 64, 124
1, 237942, Note_off_c, 1, 78, 64
1, 237990, Note_on_c, 1, 81, 127
1, 237999, Note_off_c, 1, 80, 64
1, 238045, Note_off_c, 4, 61, 64
1, 238051, Note_on_c, 1, 80, 127
1, 238052, Note_on_c, 4, 57, 124
1, 238062, Note_off_c, 1, 81, 64
1, 238110, Note_on_c, 1, 78, 127
1, 238120, Note_off_c, 1, 80, 64
1, 238162, Note_off_c, 4, 64, 64
1, 238167, Note_on_c, 3, 77, 127
1, 238168, Note_on_c, 4, 66, 127
1, 238180, Note_off_c, 1, 78, 64
1, 238226, Note_on_c, 1, 78, 127
1, 238236, Note_off_c, 3, 77, 64
1, 238282, Note_off_c, 4, 57, 64
1, 238290, Note_on_c, 3, 77, 127
1, 238290, Note_on_c, 4, 62, 125
1, 238298, Note_off_c, 1, 78, 64
1, 238348, Note_on_c, 1, 78, 127
1, 238358, Note_off_c, 3, 77, 64
1, 238401, Note_off_c, 4, 66, 64
1, 238409, Note_on_c, 4, 66, 127
1, 238409, Note_on_c, 3, 77, 127
1, 238417, Note_off_c, 1, 78, 64
1, 238467, Note_on_c, 1, 78, 127
1, 238477, Note_off_c, 3, 77, 64
1, 238521, Note_off_c, 4, 62, 64
1, 238527, Note_on_c, 1, 81, 127
1, 238527, Note_on_c, 4, 57, 124
1, 238537, Note_off_c, 1, 78, 64
1, 238587, Note_on_c, 1, 80, 127
1, 238597, Note_off_c, 1, 81, 64
1, 238641, Note_off_c, 4, 66, 64
1, 238647, Note_on_c, 4, 66, 127
1, 238647, Note_on_c, 1, 81, 127
1, 238657, Note_off_c, 1, 80, 64
1, 238709, Note_on_c, 1, 80, 127
1, 238717, Note_off_c, 1, 81, 64
1, 238759, Note_off_c, 4, 57, 64
1, 238765, Note_on_c, 1, 83, 127
1, 238765, Note_on_c, 4, 62, 125
1, 238776, Note_off_c, 1, 80, 64
1, 238825, Note_on_c, 1, 81, 127
1, 238833, Note_off_c, 1, 83, 64
1, 238877, Note_off_c, 4, 66, 64
1, 238883, Note_on_c, 1, 80, 127
1, 238884, Note_on_c, 4, 66, 127
1, 238892, Note_off_c, 1, 81, 64
1, 238942, Note_on_c, 1, 78, 127
1, 238953, Note_off_c, 1, 80, 64
1, 238993, Note_off_c, 4, 62, 64
1, 238997, Note_off_c, 1, 78, 64
1, 238999, Note_on_c, 1, 78, 127
1, 239000, Note_on_c, 4, 57, 124
1, 239060, Note_on_c, 3, 76, 127
1, 239069, Note_off_c, 1, 78, 64
1, 239111, Note_off_c, 4, 66, 64
1, 239116, Note_on_c, 3, 75, 127
1, 239117, Note_on_c, 4, 64, 124
1, 239125, Note_off_c, 3, 76, 64
1, 239171, Note_on_c, 3, 76, 127
1, 239181, Note_off_c, 3, 75, 64
1, 239225, Note_off_c, 4, 57, 64
1, 239231, Note_on_c, 3, 75, 127
1, 239231, Note_on_c, 4, 61, 126
1, 239239, Note_off_c, 3, 76, 64
1, 239285, Note_on_c, 3, 76, 127
1, 239295, Note_off_c, 3, 75, 64
1, 239339, Note_off_c, 4, 64, 64
1, 239347, Note_on_c, 4, 64, 124
1, 239347, Note_on_c, 3, 75, 127
1, 239355, Note_off_c, 3, 76, 64
1, 239400, Note_off_c, 4, 45, 64
1, 239400, Note_on_c, 3, 76, 127
1, 239410, Note_off_c, 3, 75, 64
1, 239450, Note_off_c, 4, 61, 64
1, 239454, Note_off_c, 3, 76, 64
1, 239456, Note_on_c, 3, 76, 127
1, 239457, Note_on_c, 4, 45, 122
1, 239466, Note_on_c, 4, 49, 124
1, 239480, Note_on_c, 4, 52, 124
1, 239492, Note_on_c, 4, 57, 124
1, 239522, Note_on_c, 1, 81, 127
1, 239534, Note_off_c, 3, 76, 64
1, 239572, Note_off_c, 4, 64, 64
1, 239578, Note_on_c, 1, 85, 127
1, 239586, Note_off_c, 1, 81, 64
1, 239636, Note_on_c, 1, 83, 127
1, 239643, Note_off_c, 1, 85, 64
1, 239688, Note_on_c, 1, 81, 127
1, 239697, Note_off_c, 1, 83, 64
1, 239744, Note_on_c, 1, 80, 127
1, 239752, Note_off_c, 1, 81, 64
1, 239798, Note_on_c, 1, 78, 127
1, 239808, Note_off_c, 1, 80, 64
1, 239854, Note_on_c, 3, 76, 127
1, 239863, Note_off_c, 1, 78, 64
1, 239891, Note_off_c, 4, 45, 64
1, 239898, Note_off_c, 4, 49, 64
1, 239905, Note_off_c, 4, 52, 64
1, 239909, Note_on_c, 3, 74, 127
1, 239910, Note_on_c, 4, 47, 122
1, 239914, Note_off_c, 4, 57, 64
1, 239915, Note_on_c, 4, 50, 124
1, 239917, Note_off_c, 3, 76, 64
1, 239925, Note_on_c, 4, 56, 124
1, 239932, Note_on_c, 4, 59, 126
1, 239961, Note_on_c, 1, 80, 127
1, 239971, Note_off_c, 3, 74, 64
1, 240013, Note_on_c, 1, 83, 127
1, 240023, Note_off_c, 1, 80, 64
1, 240071, Note_on_c, 1, 81, 127
1, 240080, Note_off_c, 1, 83, 64
1, 240122, Note_on_c, 1, 80, 127
1, 240132, Note_off_c, 1, 81, 64
1, 240176, Note_on_c, 1, 78, 127
1, 240186, Note_off_c, 1, 80, 64
1, 240230, Note_on_c, 3, 76, 127
1, 240240, Note_off_c, 1, 78, 64
1, 240287, Note_on_c, 3, 74, 127
1, 240296, Note_off_c, 3, 76, 64
1, 240325, Note_off_c, 4, 47, 64
1, 240333, Note_off_c, 4, 50, 64
1, 240342, Note_off_c, 4, 56, 64
1, 240344, Note_on_c, 3, 73, 127
1, 240345, Note_on_c, 4, 49, 124
1, 240353, Note_off_c, 4, 59, 64
1, 240353, Note_on_c, 4, 52, 124
1, 240356, Note_off_c, 3, 74, 64
1, 240363, Note_on_c, 4, 57, 124
1, 240373, Note_on_c, 4, 61, 126
1, 240408, Note_on_c, 3, 76, 127
1, 240417, Note_off_c, 3, 73, 64
1, 240464, Note_on_c, 1, 81, 127
1, 240473, Note_off_c, 3, 76, 64
1, 240519, Note_on_c, 1, 80, 127
1, 240529, Note_off_c, 1, 81, 64
1, 240571, Note_off_c, 4, 49, 64
1, 240573, Note_on_c, 1, 78, 127
1, 240574, Note_on_c, 4, 50, 124
1, 240578, Note_off_c, 4, 52, 64
1, 240580, Note_on_c, 4, 54, 124
1, 240583, Note_off_c, 1, 80, 64
1, 240588, Note_off_c, 4, 57, 64
1, 240590, Note_on_c, 4, 59, 126
1, 240598, Note_off_c, 4, 61, 64
1, 240600, Note_on_c, 4, 62, 125
1, 240631, Note_on_c, 3, 76, 127
1, 240640, Note_off_c, 1, 78, 64
1, 240686, Note_on_c, 3, 74, 127
1, 240696, Note_off_c, 3, 76, 64
1, 240740, Note_on_c, 3, 73, 127
1, 240750, Note_off_c, 3, 74, 64
1, 240792, Note_off_c, 4, 50, 64
1, 240796, Note_on_c, 4, 52, 124
1, 240796, Note_on_c, 3, 71, 127
1, 240800, Note_off_c, 4, 54, 64
1, 240801, Note_off_c, 4, 59, 64
1, 240801, Note_on_c, 4, 59, 126
1, 240804, Note_off_c, 3, 73, 64
1, 240810, Note_off_c, 4, 59, 64
1, 240811, Note_on_c, 4, 56, 124
1, 240819, Note_off_c, 4, 62, 64
1, 240820, Note_on_c, 4, 64, 124
1, 240851, Note_on_c, 3, 69, 127
1, 240860, Note_off_c, 3, 71, 64
1, 240908, Note_on_c, 3, 68, 127
1, 240918, Note_off_c, 3, 69, 64
1, 240965, Note_on_c, 4, 66, 127
1, 240971, Note_off_c, 4, 64, 64
1, 240975, Note_off_c, 3, 68, 64
1, 241021, Note_on_c, 4, 64, 124
1, 241033, Note_off_c, 4, 66, 64
1, 241081, Note_on_c, 4, 62, 125
1, 241091, Note_off_c, 4, 64, 64
1, 241135, Note_on_c, 4, 61, 126
1, 241144, Note_off_c, 4, 62, 64
1, 241169, Note_off_c, 4, 56, 64
1, 241192, Note_on_c, 4, 59, 126
1, 241202, Note_off_c, 4, 61, 64
1, 241250, Note_on_c, 4, 57, 124
1, 241250, Note_on_c, 3, 73, 127
1, 241260, Note_off_c, 4, 59, 64
1, 241367, Note_off_c, 3, 73, 64
1, 241371, Note_on_c, 4, 64, 124
1, 241371, Note_on_c, 3, 74, 127
1, 241431, Note_on_c, 3, 73, 127
1, 241439, Note_off_c, 3, 74, 64
1, 241489, Note_on_c, 4, 59, 126
1, 241489, Note_on_c, 3, 71, 127
1, 241498, Note_off_c, 4, 57, 64
1, 241498, Note_off_c, 3, 73, 64
1, 241544, Note_on_c, 3, 73, 127
1, 241553, Note_off_c, 3, 71, 64
1, 241594, Note_off_c, 4, 64, 64
1, 241599, Note_on_c, 3, 74, 127
1, 241600, Note_on_c, 4, 64, 124
1, 241608, Note_off_c, 3, 73, 64
1, 241710, Note_off_c, 3, 74, 64
1, 241712, Note_on_c, 4, 61, 126
1, 241712, Note_on_c, 1, 78, 127
1, 241722, Note_off_c, 4, 59, 64
1, 241824, Note_off_c, 4, 64, 64
1, 241828, Note_off_c, 1, 78, 64
1, 241830, Note_on_c, 3, 76, 127
1, 241830, Note_on_c, 4, 64, 124
1, 241946, Note_off_c, 3, 76, 64
1, 241950, Note_on_c, 4, 57, 124
1, 241950, Note_on_c, 3, 74, 127
1, 241958, Note_off_c, 4, 61, 64
1, 242058, Note_off_c, 4, 64, 64
1, 242062, Note_off_c, 3, 74, 64
1, 242064, Note_on_c, 3, 73, 127
1, 242064, Note_on_c, 4, 64, 124
1, 242178, Note_off_c, 3, 73, 64
1, 242183, Note_on_c, 4, 56, 124
1, 242183, Note_on_c, 3, 71, 127
1, 242193, Note_off_c, 4, 57, 64
1, 242296, Note_off_c, 4, 64, 64
1, 242300, Note_off_c, 3, 71, 64
1, 242302, Note_on_c, 3, 73, 127
1, 242303, Note_on_c, 4, 64, 124
1, 242359, Note_on_c, 3, 71, 127
1, 242364, Note_off_c, 3, 73, 64
1, 242411, Note_off_c, 3, 71, 64
1, 242415, Note_on_c, 4, 57, 124
1, 242415, Note_on_c, 3, 71, 127
1, 242425, Note_off_c, 4, 56, 64
1, 242458, Note_off_c, 3, 71, 64
1, 242473, Note_on_c, 3, 71, 127
1, 242525, Note_off_c, 4, 64, 64
1, 242529, Note_off_c, 3, 71, 64
1, 242533, Note_on_c, 3, 73, 127
1, 242533, Note_on_c, 4, 64, 124
1, 242645, Note_on_c, 4, 59, 126
1, 242645, Note_on_c, 3, 76, 127
1, 242655, Note_off_c, 4, 57, 64
1, 242656, Note_off_c, 3, 73, 64
1, 242759, Note_off_c, 4, 64, 64
1, 242765, Note_on_c, 3, 74, 127
1, 242765, Note_on_c, 4, 64, 124
1, 242777, Note_off_c, 3, 76, 64
1, 242883, Note_on_c, 4, 56, 124
1, 242883, Note_on_c, 3, 73, 127
1, 242894, Note_off_c, 4, 59, 64
1, 242896, Note_off_c, 3, 74, 64
1, 242996, Note_off_c, 4, 64, 64
1, 243002, Note_on_c, 3, 71, 127
1, 243002, Note_on_c, 4, 64, 124
1, 243012, Note_off_c, 3, 73, 64
1, 243111, Note_on_c, 4, 54, 124
1, 243111, Note_on_c, 3, 69, 127
1, 243121, Note_off_c, 4, 56, 64
1, 243123, Note_off_c, 3, 71, 64
1, 243228, Note_off_c, 4, 64, 64
1, 243230, Note_off_c, 3, 69, 64
1, 243235, Note_on_c, 3, 69, 127
1, 243235, Note_on_c, 4, 64, 124
1, 243355, Note_on_c, 4, 56, 124
1, 243364, Note_off_c, 4, 54, 64
1, 243466, Note_off_c, 3, 69, 64
1, 243469, Note_off_c, 4, 64, 64
1, 243476, Note_on_c, 3, 71, 127
1, 243476, Note_on_c, 4, 64, 124
1, 243595, Note_on_c, 4, 57, 124
1, 243604, Note_off_c, 4, 56, 64
1, 243696, Note_off_c, 3, 71, 64
1, 243700, Note_off_c, 4, 64, 64
1, 243706, Note_off_c, 4, 52, 64
1, 243707, Note_on_c, 4, 64, 124
1, 243707, Note_on_c, 3, 71, 127
1, 243744, Note_on_c, 3, 73, 127
1, 243753, Note_off_c, 3, 71, 64
1, 243826, Note_on_c, 4, 50, 124
1, 243836, Note_off_c, 4, 57, 64
1, 243928, Note_off_c, 3, 73, 64
1, 243930, Note_off_c, 4, 64, 64
1, 243936, Note_on_c, 4, 59, 126
1, 243936, Note_on_c, 3, 76, 127
1, 243971, Note_on_c, 3, 74, 127
1, 243981, Note_off_c, 3, 76, 64
1, 244052, Note_on_c, 4, 52, 124
1, 244061, Note_off_c, 4, 50, 64
1, 244152, Note_off_c, 3, 74, 64
1, 244159, Note_on_c, 3, 74, 127
1, 244160, Note_on_c, 4, 57, 124
1, 244170, Note_off_c, 4, 59, 64
1, 244195, Note_on_c, 3, 73, 127
1, 244204, Note_off_c, 3, 74, 64
1, 244272, Note_off_c, 4, 52, 64
1, 244277, Note_on_c, 4, 52, 124
1, 244379, Note_off_c, 3, 73, 64
1, 244387, Note_on_c, 3, 73, 127
1, 244387, Note_on_c, 4, 56, 124
1, 244398, Note_off_c, 4, 57, 64
1, 244422, Note_on_c, 3, 71, 127
1, 244430, Note_off_c, 3, 73, 64
1, 244497, Note_off_c, 4, 52, 64
1, 244501, Note_off_c, 4, 56, 64
1, 244505, Note_off_c, 3, 71, 64
1, 244505, Note_on_c, 3, 71, 127
1, 244506, Note_on_c, 3, 69, 127
1, 244506, Note_on_c, 4, 64, 124
1, 244507, Note_on_c, 4, 62, 125
1, 244507, Note_on_c, 4, 57, 124
1, 244621, Note_off_c, 3, 71, 64
1, 244623, Note_on_c, 3, 72, 127
1, 244746, Note_off_c, 3, 72, 64
1, 244746, Note_off_c, 4, 57, 64
1, 244747, Note_off_c, 4, 64, 64
1, 244747, Note_off_c, 4, 62, 64
1, 244748, Note_off_c, 3, 69, 64
1, 244748, Note_on_c, 3, 73, 127
1, 244749, Note_on_c, 3, 69, 127
1, 244749, Note_on_c, 4, 64, 124
1, 244750, Note_on_c, 4, 61, 126
1, 244750, Note_on_c, 4, 57, 124
1, 244966, Note_off_c, 4, 57, 64
1, 244966, Note_off_c, 4, 61, 64
1, 244967, Note_off_c, 4, 64, 64
1, 244967, Note_off_c, 3, 69, 64
1, 244968, Note_off_c, 3, 73, 64
1, 244975, Note_on_c, 3, 73, 127
1, 244976, Note_on_c, 4, 45, 122
1, 245036, Note_on_c, 3, 69, 127
1, 245037, Note_on_c, 4, 49, 124
1, 245046, Note_off_c, 3, 73, 64
1, 245093, Note_on_c, 3, 76, 127
1, 245093, Note_on_c, 4, 52, 124
1, 245103, Note_off_c, 3, 69, 64
1, 245103, Note_off_c, 4, 49, 64
1, 245154, Note_on_c, 4, 57, 124
1, 245154, Note_on_c, 3, 73, 127
1, 245162, Note_off_c, 4, 52, 64
1, 245163, Note_off_c, 3, 76, 64
1, 245204, Note_off_c, 4, 45, 64
1, 245209, Note_on_c, 3, 74, 127
1, 245210, Note_on_c, 4, 47, 122
1, 245220, Note_off_c, 3, 73, 64
1, 245268, Note_on_c, 3, 71, 127
1, 245269, Note_on_c, 4, 50, 124
1, 245279, Note_off_c, 3, 74, 64
1, 245280, Note_off_c, 4, 57, 64
1, 245325, Note_on_c, 1, 78, 127
1, 245325, Note_on_c, 4, 56, 124
1, 245333, Note_off_c, 4, 50, 64
1, 245334, Note_off_c, 3, 71, 64
1, 245382, Note_on_c, 3, 74, 127
1, 245383, Note_on_c, 4, 59, 126
1, 245391, Note_off_c, 4, 56, 64
1, 245392, Note_off_c, 1, 78, 64
1, 245432, Note_off_c, 4, 47, 64
1, 245438, Note_on_c, 3, 76, 127
1, 245439, Note_on_c, 4, 49, 124
1, 245449, Note_off_c, 3, 74, 64
1, 245495, Note_on_c, 3, 73, 127
1, 245496, Note_on_c, 4, 52, 124
1, 245506, Note_off_c, 3, 76, 64
1, 245508, Note_off_c, 4, 59, 64
1, 245550, Note_on_c, 1, 81, 127
1, 245550, Note_on_c, 4, 57, 124
1, 245558, Note_off_c, 4, 52, 64
1, 245559, Note_off_c, 3, 73, 64
1, 245609, Note_on_c, 3, 76, 127
1, 245610, Note_on_c, 4, 61, 126
1, 245620, Note_off_c, 4, 57, 64
1, 245620, Note_off_c, 1, 81, 64
1, 245661, Note_off_c, 4, 49, 64
1, 245667, Note_on_c, 4, 50, 124
1, 245667, Note_on_c, 1, 80, 127
1, 245676, Note_off_c, 3, 76, 64
1, 245725, Note_on_c, 1, 78, 127
1, 245726, Note_on_c, 4, 54, 124
1, 245736, Note_off_c, 1, 80, 64
1, 245737, Note_off_c, 4, 61, 64
1, 245782, Note_on_c, 3, 76, 127
1, 245783, Note_on_c, 4, 59, 126
1, 245793, Note_off_c, 1, 78, 64
1, 245793, Note_off_c, 4, 54, 64
1, 245838, Note_on_c, 3, 74, 127
1, 245838, Note_on_c, 4, 62, 125
1, 245848, Note_off_c, 4, 59, 64
1, 245849, Note_off_c, 3, 76, 64
1, 245891, Note_off_c, 4, 50, 64
1, 245897, Note_on_c, 3, 73, 127
1, 245898, Note_on_c, 4, 52, 124
1, 245906, Note_off_c, 3, 74, 64
1, 245952, Note_on_c, 3, 76, 127
1, 245952, Note_on_c, 4, 57, 124
1, 245963, Note_off_c, 3, 73, 64
1, 245964, Note_off_c, 4, 62, 64
1, 246014, Note_on_c, 3, 69, 127
1, 246015, Note_on_c, 4, 61, 126
1, 246023, Note_off_c, 4, 57, 64
1, 246024, Note_off_c, 3, 76, 64
1, 246070, Note_on_c, 3, 73, 127
1, 246071, Note_on_c, 4, 64, 124
1, 246081, Note_off_c, 4, 61, 64
1, 246081, Note_off_c, 3, 69, 64
1, 246122, Note_off_c, 4, 52, 64
1, 246128, Note_on_c, 4, 40, 122
1, 246128, Note_on_c, 3, 71, 127
1, 246136, Note_off_c, 3, 73, 64
1, 246184, Note_on_c, 3, 74, 127
1, 246185, Note_on_c, 4, 44, 122
1, 246193, Note_off_c, 3, 71, 64
1, 246195, Note_off_c, 4, 64, 64
1, 246243, Note_on_c, 3, 68, 127
1, 246243, Note_on_c, 4, 47, 122
1, 246253, Note_off_c, 4, 44, 64
1, 246254, Note_off_c, 3, 74, 64
1, 246300, Note_on_c, 3, 71, 127
1, 246301, Note_on_c, 4, 52, 124
1, 246309, Note_off_c, 4, 47, 64
1, 246310, Note_off_c, 3, 68, 64
1, 246354, Note_off_c, 4, 40, 64
1, 246360, Note_on_c, 4, 45, 122
1, 246360, Note_on_c, 3, 69, 127
1, 246371, Note_off_c, 3, 71, 64
1, 246419, Note_on_c, 4, 64, 124
1, 246419, Note_on_c, 4, 49, 124
1, 246427, Note_off_c, 3, 69, 64
1, 246431, Note_off_c, 4, 52, 64
1, 246475, Note_on_c, 4, 61, 126
1, 246476, Note_on_c, 4, 52, 124
1, 246486, Note_off_c, 4, 49, 64
1, 246486, Note_off_c, 4, 64, 64
1, 246537, Note_on_c, 4, 64, 124
1, 246537, Note_on_c, 4, 57, 124
1, 246545, Note_off_c, 4, 52, 64
1, 246546, Note_off_c, 4, 61, 64
1, 246590, Note_off_c, 4, 45, 64
1, 246596, Note_on_c, 3, 69, 127
1, 246597, Note_on_c, 4, 45, 122
1, 246605, Note_off_c, 4, 64, 64
1, 246668, Note_off_c, 4, 57, 64
1, 246831, Note_off_c, 3, 69, 64
1, 246835, Note_on_c, 2, 73, 127
1, 246836, Note_on_c, 4, 52, 124
1, 246898, Note_on_c, 2, 76, 127
1, 246898, Note_on_c, 4, 57, 124
1, 246906, Note_off_c, 2, 73, 64
1, 246960, Note_on_c, 3, 69, 127
1, 246960, Note_on_c, 4, 61, 126
1, 246971, Note_off_c, 4, 57, 64
1, 246971, Note_off_c, 2, 76, 64
1, 247016, Note_on_c, 2, 73, 127
1, 247016, Note_on_c, 4, 64, 124
1, 247024, Note_off_c, 4, 61, 64
1, 247025, Note_off_c, 3, 69, 64
1, 247071, Note_off_c, 4, 52, 64
1, 247079, Note_on_c, 3, 71, 127
1, 247080, Note_on_c, 4, 52, 124
1, 247088, Note_off_c, 2, 73, 64
1, 247130, Note_on_c, 2, 74, 127
1, 247130, Note_on_c, 4, 56, 124
1, 247140, Note_off_c, 3, 71, 64
1, 247144, Note_off_c, 4, 64, 64
1, 247190, Note_on_c, 3, 68, 127
1, 247191, Note_on_c, 4, 59, 126
1, 247201, Note_off_c, 4, 56, 64
1, 247201, Note_off_c, 2, 74, 64
1, 247245, Note_on_c, 3, 71, 127
1, 247257, Note_on_c, 4, 62, 125
1, 247261, Note_off_c, 4, 59, 64
1, 247262, Note_off_c, 3, 68, 64
1, 247272, Note_off_c, 4, 52, 64
1, 247310, Note_on_c, 3, 69, 127
1, 247310, Note_on_c, 4, 61, 126
1, 247311, Note_on_c, 4, 57, 124
1, 247312, Note_off_c, 3, 71, 64
1, 247324, Note_off_c, 4, 62, 64
1, 247373, Note_on_c, 3, 71, 127
1, 247384, Note_off_c, 3, 69, 64
1, 247434, Note_off_c, 4, 61, 64
1, 247438, Note_on_c, 2, 73, 127
1, 247439, Note_on_c, 4, 64, 124
1, 247439, Note_on_c, 4, 61, 126
1, 247447, Note_off_c, 3, 71, 64
1, 247494, Note_on_c, 2, 74, 127
1, 247503, Note_off_c, 2, 73, 64
1, 247549, Note_off_c, 4, 61, 64
1, 247550, Note_off_c, 4, 64, 64
1, 247552, Note_on_c, 2, 76, 127
1, 247553, Note_on_c, 4, 64, 124
1, 247553, Note_on_c, 4, 61, 126
1, 247564, Note_off_c, 2, 74, 64
1, 247612, Note_on_c, 1, 78, 127
1, 247620, Note_off_c, 2, 76, 64
1, 247666, Note_off_c, 4, 61, 64
1, 247666, Note_off_c, 4, 64, 64
1, 247668, Note_on_c, 1, 80, 127
1, 247669, Note_on_c, 4, 64, 124
1, 247669, Note_on_c, 4, 61, 126
1, 247678, Note_off_c, 1, 78, 64
1, 247725, Note_on_c, 1, 81, 127
1, 247735, Note_off_c, 1, 80, 64
1, 247774, Note_off_c, 4, 57, 64
1, 247785, Note_on_c, 4, 57, 124
1, 247785, Note_on_c, 1, 80, 127
1, 247794, Note_off_c, 1, 81, 64
1, 247842, Note_on_c, 1, 78, 127
1, 247851, Note_off_c, 1, 80, 64
1, 247901, Note_on_c, 2, 77, 127
1, 247902, Note_on_c, 3, 66, 127
1, 247902, Note_on_c, 4, 62, 125
1, 247906, Note_off_c, 4, 61, 64
1, 247906, Note_off_c, 4, 64, 64
1, 247911, Note_off_c, 1, 78, 64
1, 247963, Note_on_c, 1, 78, 127
1, 247972, Note_off_c, 2, 77, 64
1, 248016, Note_off_c, 4, 62, 64
1, 248017, Note_off_c, 3, 66, 64
1, 248019, Note_on_c, 1, 83, 127
1, 248020, Note_on_c, 3, 66, 127
1, 248020, Note_on_c, 4, 62, 125
1, 248028, Note_off_c, 1, 78, 64
1, 248078, Note_on_c, 1, 81, 127
1, 248088, Note_off_c, 1, 83, 64
1, 248135, Note_off_c, 4, 62, 64
1, 248136, Note_off_c, 3, 66, 64
1, 248138, Note_on_c, 1, 80, 127
1, 248139, Note_on_c, 3, 66, 127
1, 248139, Note_on_c, 4, 62, 125
1, 248149, Note_off_c, 1, 81, 64
1, 248197, Note_on_c, 1, 78, 127
1, 248207, Note_off_c, 1, 80, 64
1, 248245, Note_off_c, 4, 57, 64
1, 248254, Note_on_c, 4, 57, 124
1, 248254, Note_on_c, 2, 76, 127
1, 248264, Note_off_c, 1, 78, 64
1, 248312, Note_on_c, 1, 78, 127
1, 248322, Note_off_c, 2, 76, 64
1, 248374, Note_on_c, 2, 76, 127
1, 248374, Note_on_c, 4, 64, 124
1, 248375, Note_on_c, 4, 61, 126
1, 248378, Note_off_c, 4, 62, 64
1, 248378, Note_off_c, 3, 66, 64
1, 248383, Note_off_c, 1, 78, 64
1, 248431, Note_on_c, 2, 73, 127
1, 248441, Note_off_c, 2, 76, 64
1, 248485, Note_off_c, 4, 64, 64
1, 248485, Note_off_c, 4, 61, 64
1, 248488, Note_on_c, 3, 71, 127
1, 248488, Note_on_c, 4, 64, 124
1, 248489, Note_on_c, 4, 61, 126
1, 248498, Note_off_c, 2, 73, 64
1, 248548, Note_on_c, 2, 73, 127
1, 248558, Note_off_c, 3, 71, 64
1, 248602, Note_off_c, 4, 61, 64
1, 248603, Note_off_c, 4, 64, 64
1, 248605, Note_on_c, 2, 76, 127
1, 248605, Note_on_c, 4, 64, 124
1, 248606, Note_on_c, 4, 61, 126
1, 248616, Note_off_c, 2, 73, 64
1, 248662, Note_on_c, 1, 81, 127
1, 248670, Note_off_c, 2, 76, 64
1, 248708, Note_off_c, 4, 57, 64
1, 248719, Note_on_c, 1, 80, 127
1, 248720, Note_on_c, 4, 57, 124
1, 248728, Note_off_c, 1, 81, 64
1, 248774, Note_on_c, 1, 78, 127
1, 248784, Note_off_c, 1, 80, 64
1, 248833, Note_on_c, 2, 77, 127
1, 248834, Note_on_c, 3, 66, 127
1, 248834, Note_on_c, 4, 62, 125
1, 248836, Note_off_c, 4, 61, 64
1, 248837, Note_off_c, 4, 64, 64
1, 248843, Note_off_c, 1, 78, 64
1, 248891, Note_on_c, 1, 78, 127
1, 248901, Note_off_c, 2, 77, 64
1, 248947, Note_off_c, 4, 62, 64
1, 248947, Note_off_c, 3, 66, 64
1, 248950, Note_on_c, 1, 83, 127
1, 248950, Note_on_c, 3, 66, 127
1, 248951, Note_on_c, 4, 62, 125
1, 248958, Note_off_c, 1, 78, 64
1, 249004, Note_on_c, 1, 81, 127
1, 249014, Note_off_c, 1, 83, 64
1, 249062, Note_off_c, 4, 62, 64
1, 249062, Note_off_c, 3, 66, 64
1, 249065, Note_on_c, 1, 80, 127
1, 249066, Note_on_c, 3, 66, 127
1, 249066, Note_on_c, 4, 62, 125
1, 249074, Note_off_c, 1, 81, 64
1, 249122, Note_on_c, 1, 78, 127
1, 249132, Note_off_c, 1, 80, 64
1, 249171, Note_off_c, 4, 57, 64
1, 249177, Note_off_c, 4, 62, 64
1, 249178, Note_off_c, 3, 66, 64
1, 249182, Note_on_c, 4, 64, 124
1, 249182, Note_on_c, 2, 76, 127
1, 249183, Note_on_c, 4, 61, 126
1, 249183, Note_on_c, 4, 57, 124
1, 249192, Note_off_c, 1, 78, 64
1, 249353, Note_off_c, 2, 76, 64
1, 249355, Note_on_c, 2, 76, 127
1, 249407, Note_off_c, 2, 76, 64
1, 249408, Note_on_c, 1, 78, 127
1, 249437, Note_off_c, 1, 78, 64
1, 249438, Note_on_c, 2, 76, 127
1, 249465, Note_off_c, 2, 76, 64
1, 249467, Note_on_c, 2, 75, 127
1, 249494, Note_off_c, 2, 75, 64
1, 249498, Note_on_c, 2, 76, 127
1, 249538, Note_off_c, 4, 45, 64
1, 249659, Note_off_c, 4, 57, 64
1, 249660, Note_off_c, 4, 64, 64
1, 249660, Note_off_c, 4, 61, 64
1, 249660, Note_on_c, 4, 59, 126
1, 249661, Note_on_c, 4, 50, 124
1, 249818, Note_off_c, 2, 76, 64
1, 249838, Note_on_c, 3, 74, 127
1, 249895, Note_off_c, 3, 74, 64
1, 249899, Note_on_c, 2, 76, 127
1, 249926, Note_on_c, 3, 74, 127
1, 249936, Note_off_c, 2, 76, 64
1, 249955, Note_on_c, 3, 73, 127
1, 249962, Note_off_c, 3, 74, 64
1, 249984, Note_on_c, 3, 74, 127
1, 249991, Note_off_c, 3, 73, 64
1, 250145, Note_off_c, 4, 59, 64
1, 250145, Note_off_c, 4, 50, 64
1, 250146, Note_on_c, 4, 57, 124
1, 250146, Note_on_c, 4, 52, 124
1, 250306, Note_off_c, 3, 74, 64
1, 250325, Note_on_c, 3, 73, 127
1, 250384, Note_off_c, 3, 73, 64
1, 250388, Note_on_c, 3, 74, 127
1, 250416, Note_on_c, 3, 73, 127
1, 250428, Note_off_c, 3, 74, 64
1, 250447, Note_on_c, 3, 71, 127
1, 250455, Note_off_c, 3, 73, 64
1, 250478, Note_on_c, 3, 73, 127
1, 250484, Note_off_c, 3, 71, 64
1, 250640, Note_off_c, 4, 52, 64
1, 250640, Note_off_c, 4, 57, 64
1, 250641, Note_on_c, 4, 56, 124
1, 250641, Note_on_c, 4, 50, 124
1, 250799, Note_off_c, 3, 73, 64
1, 250818, Note_on_c, 3, 71, 127
1, 250878, Note_off_c, 3, 71, 64
1, 250882, Note_on_c, 3, 73, 127
1, 250910, Note_on_c, 3, 71, 127
1, 250920, Note_off_c, 3, 73, 64
1, 250939, Note_on_c, 3, 69, 127
1, 250947, Note_off_c, 3, 71, 64
1, 250968, Note_on_c, 3, 71, 127
1, 250974, Note_off_c, 3, 69, 64
1, 251124, Note_off_c, 4, 50, 64
1, 251124, Note_off_c, 4, 56, 64
1, 251124, Note_on_c, 4, 57, 124
1, 251125, Note_on_c, 4, 49, 124
1, 251179, Note_on_c, 2, 76, 127
1, 251196, Note_off_c, 3, 71, 64
1, 251233, Note_on_c, 2, 75, 127
1, 251243, Note_off_c, 2, 76, 64
1, 251285, Note_on_c, 2, 76, 127
1, 251292, Note_off_c, 2, 75, 64
1, 251344, Note_off_c, 2, 76, 64
1, 251345, Note_on_c, 1, 78, 127
1, 251391, Note_on_c, 2, 76, 127
1, 251407, Note_off_c, 1, 78, 64
1, 251445, Note_on_c, 2, 75, 127
1, 251455, Note_off_c, 2, 76, 64
1, 251507, Note_on_c, 2, 76, 127
1, 251516, Note_off_c, 2, 75, 64
1, 251570, Note_off_c, 4, 57, 64
1, 251570, Note_off_c, 4, 49, 64
1, 251571, Note_on_c, 4, 59, 126
1, 251571, Note_on_c, 4, 50, 124
1, 251626, Note_off_c, 2, 76, 64
1, 251626, Note_on_c, 3, 74, 127
1, 251682, Note_on_c, 3, 73, 127
1, 251692, Note_off_c, 3, 74, 64
1, 251740, Note_on_c, 3, 74, 127
1, 251749, Note_off_c, 3, 73, 64
1, 251794, Note_on_c, 2, 76, 127
1, 251803, Note_off_c, 3, 74, 64
1, 251853, Note_on_c, 3, 74, 127
1, 251861, Note_off_c, 2, 76, 64
1, 251907, Note_on_c, 3, 73, 127
1, 251915, Note_off_c, 3, 74, 64
1, 251963, Note_on_c, 3, 74, 127
1, 251972, Note_off_c, 3, 73, 64
1, 252022, Note_off_c, 4, 50, 64
1, 252023, Note_off_c, 4, 59, 64
1, 252023, Note_on_c, 4, 57, 124
1, 252024, Note_on_c, 4, 52, 124
1, 252078, Note_off_c, 3, 74, 64
1, 252078, Note_on_c, 3, 73, 127
1, 252133, Note_on_c, 3, 72, 127
1, 252140, Note_off_c, 3, 73, 64
1, 252187, Note_on_c, 3, 73, 127
1, 252196, Note_off_c, 3, 72, 64
1, 252242, Note_on_c, 3, 74, 127
1, 252252, Note_off_c, 3, 73, 64
1, 252302, Note_on_c, 3, 73, 127
1, 252310, Note_off_c, 3, 74, 64
1, 252359, Note_on_c, 3, 72, 127
1, 252369, Note_off_c, 3, 73, 64
1, 252417, Note_on_c, 3, 73, 127
1, 252429, Note_off_c, 3, 72, 64
1, 252475, Note_off_c, 4, 57, 64
1, 252475, Note_on_c, 4, 56, 124
1, 252476, Note_on_c, 4, 52, 124
1, 252535, Note_off_c, 3, 73, 64
1, 252536, Note_on_c, 3, 71, 127
1, 252591, Note_off_c, 3, 71, 64
1, 252596, Note_on_c, 3, 71, 127
1, 252651, Note_off_c, 3, 71, 64
1, 252655, Note_on_c, 3, 71, 127
1, 252715, Note_on_c, 3, 73, 127
1, 252726, Note_off_c, 3, 71, 64
1, 252776, Note_on_c, 3, 71, 127
1, 252786, Note_off_c, 3, 73, 64
1, 252831, Note_off_c, 3, 71, 64
1, 252836, Note_on_c, 3, 71, 127
1, 252893, Note_off_c, 3, 71, 64
1, 252895, Note_on_c, 3, 71, 127
1, 252954, Note_off_c, 3, 71, 64
1, 252957, Note_off_c, 4, 56, 64
1, 252958, Note_on_c, 4, 57, 124
1, 252958, Note_on_c, 3, 69, 127
1, 253074, Note_off_c, 3, 69, 64
1, 253078, Note_on_c, 3, 73, 127
1, 253137, Note_on_c, 3, 69, 127
1, 253147, Note_off_c, 3, 73, 64
1, 253193, Note_on_c, 2, 76, 127
1, 253202, Note_off_c, 3, 69, 64
1, 253253, Note_on_c, 3, 74, 127
1, 253263, Note_off_c, 2, 76, 64
1, 253311, Note_on_c, 3, 71, 127
1, 253320, Note_off_c, 3, 74, 64
1, 253370, Note_on_c, 3, 69, 127
1, 253380, Note_off_c, 3, 71, 64
1, 253426, Note_off_c, 3, 69, 64
1, 253428, Note_on_c, 3, 69, 127
1, 253658, Note_off_c, 3, 69, 64
1, 253668, Note_off_c, 4, 57, 64
1, 253668, Note_on_c, 3, 69, 127
1, 253669, Note_on_c, 4, 52, 124
1, 253684, Note_on_c, 3, 71, 127
1, 253685, Note_on_c, 2, 76, 127
1, 253685, Note_on_c, 4, 56, 124
1, 253688, Note_on_c, 4, 59, 126
1, 253696, Note_on_c, 4, 64, 124
1, 253838, Note_off_c, 4, 52, 64
1, 253838, Note_off_c, 4, 52, 64
1, 253911, Note_off_c, 3, 69, 64
1, 253911, Note_off_c, 4, 52, 64
1, 253914, Note_on_c, 4, 45, 122
1, 253914, Note_on_c, 1, 81, 127
1, 253922, Note_on_c, 2, 76, 127
1, 253923, Note_on_c, 4, 49, 124
1, 253933, Note_off_c, 3, 71, 64
1, 253933, Note_off_c, 4, 56, 64
1, 253934, Note_off_c, 2, 76, 64
1, 253937, Note_on_c, 4, 52, 124
1, 253937, Note_on_c, 3, 73, 127
1, 253940, Note_off_c, 4, 59, 64
1, 253949, Note_off_c, 4, 64, 64
1, 253951, Note_on_c, 3, 69, 127
1, 253952, Note_on_c, 4, 57, 124
1, 254039, Note_off_c, 3, 73, 64
1, 254039, Note_off_c, 1, 81, 64
1, 254041, Note_on_c, 3, 73, 127
1, 254045, Note_off_c, 2, 76, 64
1, 254066, Note_off_c, 3, 69, 64
1, 254101, Note_on_c, 3, 69, 127
1, 254111, Note_off_c, 3, 73, 64
1, 254164, Note_on_c, 2, 76, 127
1, 254174, Note_off_c, 3, 69, 64
1, 254224, Note_on_c, 3, 74, 127
1, 254233, Note_off_c, 2, 76, 64
1, 254283, Note_on_c, 3, 71, 127
1, 254295, Note_off_c, 3, 74, 64
1, 254345, Note_on_c, 3, 69, 127
1, 254355, Note_off_c, 3, 71, 64
1, 254406, Note_off_c, 3, 69, 64
1, 254410, Note_on_c, 3, 69, 127
1, 254598, Note_off_c, 4, 45, 64
1, 254606, Note_off_c, 4, 49, 64
1, 254617, Note_off_c, 4, 52, 64
1, 254627, Note_off_c, 4, 57, 64
1, 254643, Note_off_c, 3, 69, 64
1, 254654, Note_on_c, 3, 69, 127
1, 254654, Note_on_c, 4, 52, 124
1, 254663, Note_on_c, 3, 71, 127
1, 254663, Note_on_c, 4, 59, 126
1, 254677, Note_on_c, 2, 76, 127
1, 254677, Note_on_c, 4, 56, 124
1, 254691, Note_on_c, 4, 64, 124
1, 254955, Note_off_c, 3, 69, 64
1, 254968, Note_off_c, 4, 52, 64
1, 254974, Note_on_c, 3, 69, 127
1, 254975, Note_on_c, 4, 45, 122
1, 254990, Note_off_c, 2, 76, 64
1, 254990, Note_on_c, 3, 73, 127
1, 254991, Note_on_c, 4, 49, 124
1, 255004, Note_off_c, 4, 56, 64
1, 255006, Note_on_c, 2, 76, 127
1, 255007, Note_on_c, 4, 52, 124
1, 255019, Note_off_c, 4, 59, 64
1, 255019, Note_off_c, 3, 71, 64
1, 255020, Note_on_c, 1, 81, 127
1, 255020, Note_on_c, 4, 57, 124
1, 255042, Note_off_c, 4, 64, 64
1, 257974, Note_off_c, 4, 45, 64
1, 257975, Note_off_c, 3, 69, 64
1, 258009, Note_off_c, 4, 49, 64
1, 258010, Note_off_c, 3, 73, 64
1, 258062, Note_off_c, 4, 52, 64
1, 258065, Note_off_c, 2, 76, 64
1, 258115, Note_off_c, 4, 57, 64
1, 258116, Note_off_c, 1, 81, 64
1, 258523, Note_on_c, 4, 45, 121
1, 258523, Note_on_c, 4, 61, 125
1, 258526, Note_on_c, 4, 57, 123
1, 258558, Note_on_c, 4, 64, 124
1, 258568, Note_off_c, 4, 61, 64
1, 258579, Note_on_c, 3, 69, 127
1, 258595, Note_off_c, 4, 64, 64
1, 258948, Note_off_c, 4, 45, 64
1, 258948, Note_off_c, 4, 57, 64
1, 258949, Note_on_c, 4, 64, 124
1, 258949, Note_on_c, 4, 52, 123
1, 258950, Note_on_c, 4, 40, 121
1, 258996, Note_off_c, 3, 69, 64
1, 259296, Note_off_c, 4, 52, 64
1, 259296, Note_off_c, 4, 64, 64
1, 259296, Note_off_c, 4, 40, 64
1, 259297, Note_on_c, 4, 61, 125
1, 259297, Note_on_c, 3, 73, 127
1, 259298, Note_on_c, 4, 49, 123
1, 259406, Note_off_c, 3, 73, 64
1, 259408, Note_on_c, 3, 74, 127
1, 259442, Note_off_c, 3, 74, 64
1, 259451, Note_on_c, 3, 71, 127
1, 259496, Note_off_c, 3, 71, 64
1, 259506, Note_off_c, 4, 61, 64
1, 259506, Note_off_c, 4, 49, 64
1, 259509, Note_on_c, 3, 69, 127
1, 259510, Note_on_c, 4, 57, 123
1, 259510, Note_on_c, 4, 45, 121
1, 259851, Note_off_c, 3, 69, 64
1, 259851, Note_on_c, 2, 76, 127
1, 259963, Note_off_c, 2, 76, 64
1, 259967, Note_on_c, 1, 78, 127
1, 260015, Note_off_c, 1, 78, 64
1, 260017, Note_on_c, 3, 74, 127
1, 260063, Note_off_c, 3, 74, 64
1, 260067, Note_on_c, 3, 73, 127
1, 260240, Note_off_c, 4, 45, 64
1, 260240, Note_off_c, 4, 57, 64
1, 260254, Note_off_c, 3, 73, 64
1, 260256, Note_on_c, 1, 85, 127
1, 260256, Note_on_c, 4, 66, 127
1, 260257, Note_on_c, 4, 57, 123
1, 260457, Note_on_c, 3, 75, 127
1, 260457, Note_on_c, 3, 69, 127
1, 260458, Note_on_c, 4, 59, 125
1, 260460, Note_off_c, 4, 57, 64
1, 260461, Note_off_c, 4, 66, 64
1, 260461, Note_off_c, 1, 85, 64
1, 260663, Note_off_c, 3, 69, 64
1, 260667, Note_off_c, 4, 59, 64
1, 260671, Note_on_c, 3, 69, 127
1, 260671, Note_on_c, 2, 76, 127
1, 260672, Note_on_c, 4, 64, 124
1, 260674, Note_off_c, 3, 75, 64
1, 260972, Note_off_c, 2, 76, 64
1, 260974, Note_on_c, 2, 77, 115
1, 261078, Note_on_c, 1, 80, 115
1, 261087, Note_off_c, 2, 77, 64
1, 261170, Note_on_c, 1, 78, 115
1, 261178, Note_off_c, 1, 80, 64
1, 261260, Note_on_c, 2, 76, 121
1, 261266, Note_off_c, 1, 78, 64
1, 261348, Note_on_c, 3, 74, 121
1, 261356, Note_off_c, 2, 76, 64
1, 261412, Note_off_c, 3, 69, 64
1, 261444, Note_on_c, 3, 73, 127
1, 261452, Note_off_c, 3, 74, 64
1, 261542, Note_on_c, 3, 71, 127
1, 261550, Note_off_c, 3, 73, 64
1, 261643, Note_off_c, 4, 64, 64
1, 261643, Note_on_c, 3, 69, 127
1, 261644, Note_on_c, 4, 52, 123
1, 261651, Note_off_c, 3, 71, 64
1, 261743, Note_off_c, 3, 69, 64
1, 261745, Note_on_c, 4, 62, 124
1, 261745, Note_on_c, 3, 69, 127
1, 261813, Note_off_c, 4, 52, 64
1, 261836, Note_off_c, 3, 69, 64
1, 261838, Note_on_c, 2, 76, 127
1, 261839, Note_on_c, 4, 59, 125
1, 261901, Note_off_c, 4, 62, 64
1, 261936, Note_on_c, 3, 74, 127
1, 261936, Note_on_c, 4, 62, 124
1, 261944, Note_off_c, 2, 76, 64
1, 261998, Note_off_c, 4, 59, 64
1, 262031, Note_on_c, 4, 59, 125
1, 262090, Note_off_c, 4, 62, 64
1, 262121, Note_on_c, 4, 62, 124
1, 262184, Note_off_c, 4, 59, 64
1, 262209, Note_off_c, 3, 74, 64
1, 262217, Note_on_c, 3, 71, 127
1, 262217, Note_on_c, 4, 52, 123
1, 262281, Note_off_c, 4, 62, 64
1, 262312, Note_on_c, 3, 69, 127
1, 262312, Note_on_c, 4, 61, 125
1, 262320, Note_off_c, 3, 71, 64
1, 262378, Note_off_c, 4, 52, 64
1, 262413, Note_on_c, 4, 57, 123
1, 262413, Note_on_c, 1, 78, 127
1, 262473, Note_off_c, 4, 61, 64
1, 262504, Note_off_c, 3, 69, 64
1, 262504, Note_on_c, 2, 76, 127
1, 262505, Note_on_c, 4, 61, 125
1, 262512, Note_off_c, 1, 78, 64
1, 262568, Note_off_c, 4, 57, 64
1, 262596, Note_on_c, 4, 57, 123
1, 262657, Note_off_c, 4, 61, 64
1, 262690, Note_on_c, 4, 61, 125
1, 262755, Note_off_c, 4, 57, 64
1, 262779, Note_off_c, 2, 76, 64
1, 262788, Note_on_c, 3, 73, 127
1, 262788, Note_on_c, 4, 50, 123
1, 262854, Note_off_c, 4, 61, 64
1, 262889, Note_on_c, 3, 71, 127
1, 262889, Note_on_c, 4, 59, 125
1, 262896, Note_off_c, 3, 73, 64
1, 262947, Note_off_c, 4, 50, 64
1, 262980, Note_on_c, 1, 80, 127
1, 262980, Note_on_c, 4, 54, 123
1, 263044, Note_off_c, 4, 59, 64
1, 263075, Note_off_c, 3, 71, 64
1, 263076, Note_on_c, 1, 78, 127
1, 263076, Note_on_c, 4, 59, 125
1, 263084, Note_off_c, 1, 80, 64
1, 263137, Note_off_c, 4, 54, 64
1, 263170, Note_on_c, 4, 54, 123
1, 263233, Note_off_c, 4, 59, 64
1, 263264, Note_on_c, 4, 59, 125
1, 263326, Note_off_c, 4, 54, 64
1, 263358, Note_on_c, 4, 64, 124
1, 263359, Note_on_c, 4, 50, 123
1, 263424, Note_off_c, 4, 59, 64
1, 263536, Note_off_c, 1, 78, 64
1, 263551, Note_on_c, 2, 76, 127
1, 263651, Note_on_c, 3, 74, 127
1, 263659, Note_off_c, 2, 76, 64
1, 263749, Note_on_c, 3, 73, 127
1, 263759, Note_off_c, 3, 74, 64
1, 263849, Note_on_c, 3, 71, 127
1, 263858, Note_off_c, 3, 73, 64
1, 263947, Note_off_c, 4, 64, 64
1, 263947, Note_off_c, 4, 50, 64
1, 263948, Note_on_c, 3, 69, 127
1, 263948, Note_on_c, 4, 62, 124
1, 263949, Note_on_c, 4, 52, 123
1, 263956, Note_off_c, 3, 71, 64
1, 264043, Note_off_c, 3, 69, 64
1, 264050, Note_on_c, 3, 69, 127
1, 264135, Note_off_c, 3, 69, 64
1, 264151, Note_off_c, 4, 62, 64
1, 264151, Note_off_c, 4, 52, 64
1, 264152, Note_on_c, 4, 61, 125
1, 264152, Note_on_c, 3, 69, 127
1, 264153, Note_on_c, 4, 57, 123
1, 264323, Note_off_c, 3, 69, 64
1, 264564, Note_off_c, 4, 57, 64
1, 264565, Note_off_c, 4, 61, 64
1, 264565, Note_on_c, 3, 71, 127
1, 264566, Note_on_c, 4, 52, 123
1, 264591, Note_on_c, 2, 76, 127
1, 264620, Note_on_c, 1, 80, 127
1, 264626, Note_off_c, 3, 71, 64
1, 264644, Note_off_c, 2, 76, 64
1, 264644, Note_on_c, 1, 83, 127
1, 264668, Note_off_c, 1, 80, 64
1, 264675, Note_on_c, 4, 56, 123
1, 264684, Note_off_c, 4, 52, 64
1, 264778, Note_on_c, 4, 59, 125
1, 264787, Note_off_c, 4, 56, 64
1, 264879, Note_on_c, 4, 56, 123
1, 264887, Note_off_c, 4, 59, 64
1, 264977, Note_on_c, 4, 54, 123
1, 264985, Note_off_c, 4, 56, 64
1, 265073, Note_on_c, 4, 52, 123
1, 265083, Note_off_c, 4, 54, 64
1, 265165, Note_off_c, 1, 83, 64
1, 265173, Note_on_c, 1, 83, 127
1, 265174, Note_on_c, 4, 51, 123
1, 265182, Note_off_c, 4, 52, 64
1, 265222, Note_on_c, 1, 81, 127
1, 265228, Note_off_c, 1, 83, 64
1, 265272, Note_on_c, 1, 80, 127
1, 265272, Note_on_c, 4, 52, 123
1, 265277, Note_off_c, 1, 81, 64
1, 265281, Note_off_c, 4, 51, 64
1, 265323, Note_on_c, 1, 78, 127
1, 265329, Note_off_c, 1, 80, 64
1, 265367, Note_off_c, 1, 78, 64
1, 265373, Note_on_c, 4, 54, 123
1, 265373, Note_on_c, 1, 78, 127
1, 265381, Note_off_c, 4, 52, 64
1, 265422, Note_on_c, 2, 76, 127
1, 265428, Note_off_c, 1, 78, 64
1, 265472, Note_on_c, 3, 75, 127
1, 265472, Note_on_c, 4, 47, 121
1, 265476, Note_off_c, 2, 76, 64
1, 265480, Note_off_c, 4, 54, 64
1, 265521, Note_on_c, 3, 73, 127
1, 265524, Note_off_c, 3, 75, 64
1, 265571, Note_on_c, 3, 71, 127
1, 265571, Note_on_c, 4, 49, 123
1, 265576, Note_off_c, 3, 73, 64
1, 265580, Note_off_c, 4, 47, 64
1, 265619, Note_on_c, 3, 69, 127
1, 265624, Note_off_c, 3, 71, 64
1, 265665, Note_off_c, 3, 69, 64
1, 265668, Note_on_c, 3, 69, 127
1, 265669, Note_on_c, 4, 51, 123
1, 265678, Note_off_c, 4, 49, 64
1, 265716, Note_off_c, 3, 69, 64
1, 265722, Note_on_c, 3, 69, 127
1, 265763, Note_off_c, 3, 69, 64
1, 265764, Note_on_c, 3, 69, 127
1, 265772, Note_on_c, 4, 52, 123
1, 265782, Note_off_c, 4, 51, 64
1, 265809, Note_off_c, 3, 69, 64
1, 265812, Note_on_c, 3, 71, 127
1, 265860, Note_on_c, 2, 76, 127
1, 265864, Note_off_c, 3, 71, 64
1, 265868, Note_on_c, 4, 56, 123
1, 265908, Note_on_c, 1, 80, 127
1, 265912, Note_off_c, 2, 76, 64
1, 265956, Note_on_c, 1, 83, 127
1, 265960, Note_off_c, 1, 80, 64
1, 265962, Note_on_c, 4, 59, 125
1, 265970, Note_off_c, 4, 56, 64
1, 265972, Note_off_c, 4, 52, 64
1, 266058, Note_on_c, 4, 56, 123
1, 266066, Note_off_c, 4, 59, 64
1, 266156, Note_on_c, 4, 54, 123
1, 266166, Note_off_c, 4, 56, 64
1, 266256, Note_on_c, 4, 52, 123
1, 266264, Note_off_c, 4, 54, 64
1, 266340, Note_off_c, 1, 83, 64
1, 266350, Note_on_c, 1, 83, 127
1, 266358, Note_on_c, 4, 51, 123
1, 266365, Note_off_c, 4, 52, 64
1, 266400, Note_on_c, 1, 81, 127
1, 266406, Note_off_c, 1, 83, 64
1, 266450, Note_on_c, 1, 80, 127
1, 266456, Note_off_c, 1, 81, 64
1, 266460, Note_on_c, 4, 52, 123
1, 266467, Note_off_c, 4, 51, 64
1, 266504, Note_on_c, 1, 78, 127
1, 266509, Note_off_c, 1, 80, 64
1, 266548, Note_off_c, 1, 78, 64
1, 266552, Note_on_c, 1, 78, 127
1, 266559, Note_on_c, 4, 54, 123
1, 266568, Note_off_c, 4, 52, 64
1, 266602, Note_on_c, 2, 76, 127
1, 266605, Note_off_c, 1, 78, 64
1, 266652, Note_on_c, 3, 75, 127
1, 266657, Note_off_c, 2, 76, 64
1, 266659, Note_on_c, 4, 47, 121
1, 266667, Note_off_c, 4, 54, 64
1, 266700, Note_on_c, 3, 73, 127
1, 266705, Note_off_c, 3, 75, 64
1, 266748, Note_on_c, 3, 71, 127
1, 266752, Note_off_c, 3, 73, 64
1, 266756, Note_on_c, 4, 49, 123
1, 266762, Note_off_c, 4, 47, 64
1, 266796, Note_on_c, 3, 69, 127
1, 266802, Note_off_c, 3, 71, 64
1, 266831, Note_off_c, 3, 69, 64
1, 266848, Note_on_c, 3, 69, 127
1, 266855, Note_on_c, 4, 51, 123
1, 266864, Note_off_c, 4, 49, 64
1, 266881, Note_off_c, 3, 69, 64
1, 266899, Note_on_c, 3, 69, 127
1, 266931, Note_off_c, 3, 69, 64
1, 266948, Note_on_c, 3, 69, 127
1, 266956, Note_on_c, 4, 52, 123
1, 266965, Note_off_c, 4, 51, 64
1, 266983, Note_off_c, 3, 69, 64
1, 267002, Note_on_c, 3, 71, 127
1, 267052, Note_on_c, 3, 69, 127
1, 267059, Note_off_c, 3, 71, 64
1, 267096, Note_off_c, 3, 69, 64
1, 267105, Note_on_c, 3, 69, 127
1, 267153, Note_off_c, 3, 69, 64
1, 267158, Note_on_c, 3, 69, 127
1, 267206, Note_off_c, 3, 69, 64
1, 267211, Note_on_c, 3, 71, 121
1, 267264, Note_on_c, 3, 73, 121
1, 267269, Note_off_c, 3, 71, 64
1, 267312, Note_on_c, 3, 75, 121
1, 267315, Note_off_c, 3, 73, 64
1, 267361, Note_on_c, 2, 76, 113
1, 267365, Note_off_c, 3, 75, 64
1, 267409, Note_on_c, 1, 78, 113
1, 267413, Note_off_c, 2, 76, 64
1, 267456, Note_on_c, 1, 80, 113
1, 267461, Note_off_c, 1, 78, 64
1, 267505, Note_on_c, 1, 81, 113
1, 267511, Note_off_c, 1, 80, 64
1, 267553, Note_on_c, 1, 83, 113
1, 267558, Note_off_c, 1, 81, 64
1, 267604, Note_on_c, 1, 85, 113
1, 267608, Note_off_c, 1, 83, 64
1, 267654, Note_on_c, 1, 87, 113
1, 267658, Note_off_c, 1, 85, 64
1, 267702, Note_on_c, 1, 88, 113
1, 267706, Note_off_c, 1, 87, 64
1, 267748, Note_on_c, 1, 87, 113
1, 267754, Note_off_c, 1, 88, 64
1, 267796, Note_on_c, 1, 85, 119
1, 267802, Note_off_c, 1, 87, 64
1, 267846, Note_on_c, 1, 83, 115
1, 267852, Note_off_c, 1, 85, 64
1, 267896, Note_on_c, 1, 81, 115
1, 267900, Note_off_c, 1, 83, 64
1, 267946, Note_on_c, 1, 80, 115
1, 267950, Note_off_c, 1, 81, 64
1, 267996, Note_on_c, 1, 78, 115
1, 268002, Note_off_c, 1, 80, 64
1, 268048, Note_on_c, 2, 76, 115
1, 268052, Note_off_c, 1, 78, 64
1, 268098, Note_on_c, 3, 75, 123
1, 268104, Note_off_c, 2, 76, 64
1, 268125, Note_off_c, 4, 52, 64
1, 268155, Note_off_c, 3, 75, 64
1, 268156, Note_on_c, 3, 73, 123
1, 268157, Note_on_c, 4, 66, 127
1, 268158, Note_on_c, 4, 57, 123
1, 268310, Note_on_c, 1, 85, 123
1, 268356, Note_off_c, 3, 73, 64
1, 268356, Note_on_c, 2, 76, 123
1, 268357, Note_off_c, 4, 57, 64
1, 268357, Note_on_c, 3, 69, 127
1, 268358, Note_off_c, 4, 66, 64
1, 268358, Note_on_c, 4, 59, 125
1, 268361, Note_off_c, 1, 85, 64
1, 268558, Note_off_c, 3, 69, 64
1, 268558, Note_on_c, 3, 75, 123
1, 268564, Note_off_c, 2, 76, 64
1, 268568, Note_on_c, 1, 80, 123
1, 268569, Note_on_c, 3, 69, 127
1, 268667, Note_off_c, 1, 80, 64
1, 268671, Note_on_c, 1, 78, 123
1, 268765, Note_off_c, 3, 75, 64
1, 268769, Note_off_c, 3, 69, 64
1, 268775, Note_off_c, 1, 78, 64
1, 268775, Note_off_c, 4, 59, 64
1, 268777, Note_on_c, 2, 76, 123
1, 268778, Note_on_c, 3, 69, 127
1, 268988, Note_on_c, 4, 52, 123
1, 269197, Note_off_c, 3, 69, 64
1, 269198, Note_off_c, 2, 76, 64
1, 269377, Note_off_c, 4, 52, 64
1, 269377, Note_on_c, 4, 61, 125
1, 269378, Note_on_c, 4, 45, 121
1, 269379, Note_on_c, 4, 57, 123
1, 269412, Note_on_c, 4, 64, 124
1, 269424, Note_off_c, 4, 61, 64
1, 269434, Note_on_c, 3, 69, 127
1, 269451, Note_off_c, 4, 64, 64
1, 269802, Note_off_c, 4, 45, 64
1, 269803, Note_off_c, 4, 57, 64
1, 269804, Note_on_c, 4, 64, 124
1, 269805, Note_on_c, 4, 52, 123
1, 269805, Note_on_c, 4, 40, 121
1, 269851, Note_off_c, 3, 69, 64
1, 270151, Note_off_c, 4, 40, 64
1, 270151, Note_off_c, 4, 52, 64
1, 270152, Note_off_c, 4, 64, 64
1, 270152, Note_on_c, 3, 73, 127
1, 270153, Note_on_c, 4, 61, 125
1, 270153, Note_on_c, 4, 49, 123
1, 270261, Note_off_c, 3, 73, 64
1, 270262, Note_on_c, 3, 74, 127
1, 270296, Note_off_c, 3, 74, 64
1, 270305, Note_on_c, 3, 71, 127
1, 270349, Note_off_c, 3, 71, 64
1, 270359, Note_off_c, 4, 49, 64
1, 270360, Note_off_c, 4, 61, 64
1, 270364, Note_on_c, 4, 57, 123
1, 270364, Note_on_c, 3, 69, 127
1, 270365, Note_on_c, 4, 45, 121
1, 270704, Note_off_c, 3, 69, 64
1, 270705, Note_on_c, 2, 76, 127
1, 270818, Note_off_c, 2, 76, 64
1, 270820, Note_on_c, 1, 78, 127
1, 270868, Note_off_c, 1, 78, 64
1, 270870, Note_on_c, 3, 74, 127
1, 270917, Note_off_c, 3, 74, 64
1, 270920, Note_on_c, 3, 73, 127
1, 271093, Note_off_c, 4, 57, 64
1, 271093, Note_off_c, 4, 45, 64
1, 271107, Note_off_c, 3, 73, 64
1, 271111, Note_on_c, 1, 85, 127
1, 271111, Note_on_c, 4, 66, 127
1, 271112, Note_on_c, 4, 57, 123
1, 271312, Note_on_c, 3, 75, 127
1, 271312, Note_on_c, 3, 69, 127
1, 271313, Note_on_c, 4, 59, 125
1, 271314, Note_off_c, 4, 57, 64
1, 271315, Note_off_c, 4, 66, 64
1, 271315, Note_off_c, 1, 85, 64
1, 271518, Note_off_c, 3, 69, 64
1, 271522, Note_off_c, 4, 59, 64
1, 271524, Note_on_c, 3, 69, 127
1, 271524, Note_on_c, 2, 76, 127
1, 271525, Note_on_c, 4, 64, 124
1, 271526, Note_off_c, 3, 75, 64
1, 271824, Note_off_c, 2, 76, 64
1, 271828, Note_on_c, 2, 77, 115
1, 271932, Note_on_c, 1, 80, 115
1, 271942, Note_off_c, 2, 77, 64
1, 272024, Note_on_c, 1, 78, 121
1, 272032, Note_off_c, 1, 80, 64
1, 272113, Note_on_c, 2, 76, 121
1, 272119, Note_off_c, 1, 78, 64
1, 272204, Note_on_c, 3, 74, 121
1, 272209, Note_off_c, 2, 76, 64
1, 272265, Note_off_c, 3, 69, 64
1, 272298, Note_on_c, 3, 73, 127
1, 272305, Note_off_c, 3, 74, 64
1, 272396, Note_on_c, 3, 71, 127
1, 272403, Note_off_c, 3, 73, 64
1, 272494, Note_off_c, 4, 64, 64
1, 272494, Note_on_c, 3, 69, 127
1, 272495, Note_on_c, 4, 52, 123
1, 272502, Note_off_c, 3, 71, 64
1, 272594, Note_off_c, 3, 69, 64
1, 272596, Note_on_c, 3, 69, 127
1, 272597, Note_on_c, 4, 62, 124
1, 272661, Note_off_c, 4, 52, 64
1, 272688, Note_off_c, 3, 69, 64
1, 272689, Note_on_c, 2, 76, 127
1, 272690, Note_on_c, 4, 59, 125
1, 272752, Note_off_c, 4, 62, 64
1, 272784, Note_on_c, 3, 74, 127
1, 272785, Note_on_c, 4, 62, 124
1, 272791, Note_off_c, 2, 76, 64
1, 272847, Note_off_c, 4, 59, 64
1, 272878, Note_on_c, 4, 59, 125
1, 272939, Note_off_c, 4, 62, 64
1, 272970, Note_on_c, 4, 62, 124
1, 273033, Note_off_c, 4, 59, 64
1, 273056, Note_off_c, 3, 74, 64
1, 273066, Note_on_c, 3, 71, 127
1, 273066, Note_on_c, 4, 52, 123
1, 273128, Note_off_c, 4, 62, 64
1, 273159, Note_on_c, 3, 69, 127
1, 273159, Note_on_c, 4, 61, 125
1, 273168, Note_off_c, 3, 71, 64
1, 273225, Note_off_c, 4, 52, 64
1, 273258, Note_on_c, 4, 57, 123
1, 273258, Note_on_c, 1, 78, 127
1, 273316, Note_off_c, 4, 61, 64
1, 273347, Note_off_c, 3, 69, 64
1, 273348, Note_on_c, 2, 76, 127
1, 273348, Note_on_c, 4, 61, 125
1, 273356, Note_off_c, 1, 78, 64
1, 273409, Note_off_c, 4, 57, 64
1, 273438, Note_on_c, 4, 57, 123
1, 273500, Note_off_c, 4, 61, 64
1, 273532, Note_on_c, 4, 61, 125
1, 273599, Note_off_c, 4, 57, 64
1, 273622, Note_off_c, 2, 76, 64
1, 273630, Note_on_c, 3, 73, 127
1, 273630, Note_on_c, 4, 50, 123
1, 273697, Note_off_c, 4, 61, 64
1, 273732, Note_on_c, 3, 71, 127
1, 273732, Note_on_c, 4, 59, 125
1, 273738, Note_off_c, 3, 73, 64
1, 273790, Note_off_c, 4, 50, 64
1, 273823, Note_on_c, 1, 80, 127
1, 273823, Note_on_c, 4, 54, 123
1, 273887, Note_off_c, 4, 59, 64
1, 273918, Note_off_c, 3, 71, 64
1, 273918, Note_on_c, 1, 78, 127
1, 273919, Note_on_c, 4, 59, 125
1, 273925, Note_off_c, 1, 80, 64
1, 273981, Note_off_c, 4, 54, 64
1, 274012, Note_on_c, 4, 54, 123
1, 274075, Note_off_c, 4, 59, 64
1, 274106, Note_on_c, 4, 59, 125
1, 274169, Note_off_c, 4, 54, 64
1, 274200, Note_on_c, 4, 64, 124
1, 274200, Note_on_c, 4, 50, 123
1, 274266, Note_off_c, 4, 59, 64
1, 274378, Note_off_c, 1, 78, 64
1, 274393, Note_on_c, 2, 76, 127
1, 274494, Note_on_c, 3, 74, 127
1, 274501, Note_off_c, 2, 76, 64
1, 274592, Note_on_c, 3, 73, 127
1, 274601, Note_off_c, 3, 74, 64
1, 274692, Note_on_c, 3, 71, 127
1, 274701, Note_off_c, 3, 73, 64
1, 274789, Note_off_c, 4, 50, 64
1, 274790, Note_off_c, 4, 64, 64
1, 274790, Note_on_c, 3, 69, 127
1, 274791, Note_on_c, 4, 62, 124
1, 274791, Note_on_c, 4, 52, 123
1, 274799, Note_off_c, 3, 71, 64
1, 274885, Note_off_c, 3, 69, 64
1, 274893, Note_on_c, 3, 69, 127
1, 274978, Note_off_c, 3, 69, 64
1, 274995, Note_off_c, 4, 52, 64
1, 274995, Note_off_c, 4, 62, 64
1, 274996, Note_on_c, 4, 61, 125
1, 274996, Note_on_c, 3, 69, 127
1, 274997, Note_on_c, 4, 57, 123
1, 275165, Note_off_c, 3, 69, 64
1, 275407, Note_off_c, 4, 61, 64
1, 275407, Note_off_c, 4, 57, 64
1, 275408, Note_on_c, 4, 52, 123
1, 275408, Note_on_c, 3, 71, 127
1, 275434, Note_on_c, 2, 76, 127
1, 275462, Note_on_c, 1, 80, 127
1, 275468, Note_off_c, 3, 71, 64
1, 275485, Note_off_c, 2, 76, 64
1, 275486, Note_on_c, 1, 83, 127
1, 275511, Note_off_c, 1, 80, 64
1, 275517, Note_on_c, 4, 56, 123
1, 275527, Note_off_c, 4, 52, 64
1, 275621, Note_on_c, 4, 59, 125
1, 275628, Note_off_c, 4, 56, 64
1, 275721, Note_on_c, 4, 56, 123
1, 275729, Note_off_c, 4, 59, 64
1, 275818, Note_on_c, 4, 54, 123
1, 275827, Note_off_c, 4, 56, 64
1, 275916, Note_on_c, 4, 52, 123
1, 275924, Note_off_c, 4, 54, 64
1, 276008, Note_off_c, 1, 83, 64
1, 276015, Note_on_c, 1, 83, 127
1, 276016, Note_on_c, 4, 51, 123
1, 276024, Note_off_c, 4, 52, 64
1, 276065, Note_on_c, 1, 81, 127
1, 276070, Note_off_c, 1, 83, 64
1, 276115, Note_on_c, 1, 80, 127
1, 276115, Note_on_c, 4, 52, 123
1, 276119, Note_off_c, 1, 81, 64
1, 276123, Note_off_c, 4, 51, 64
1, 276166, Note_on_c, 1, 78, 127
1, 276171, Note_off_c, 1, 80, 64
1, 276209, Note_off_c, 1, 78, 64
1, 276216, Note_on_c, 1, 78, 127
1, 276216, Note_on_c, 4, 54, 123
1, 276224, Note_off_c, 4, 52, 64
1, 276264, Note_on_c, 2, 76, 127
1, 276270, Note_off_c, 1, 78, 64
1, 276314, Note_on_c, 3, 75, 127
1, 276315, Note_on_c, 4, 47, 121
1, 276319, Note_off_c, 2, 76, 64
1, 276323, Note_off_c, 4, 54, 64
1, 276362, Note_on_c, 3, 73, 127
1, 276368, Note_off_c, 3, 75, 64
1, 276414, Note_on_c, 3, 71, 127
1, 276415, Note_on_c, 4, 49, 123
1, 276419, Note_off_c, 3, 73, 64
1, 276422, Note_off_c, 4, 47, 64
1, 276461, Note_on_c, 3, 69, 127
1, 276467, Note_off_c, 3, 71, 64
1, 276507, Note_off_c, 3, 69, 64
1, 276511, Note_on_c, 3, 69, 127
1, 276512, Note_on_c, 4, 51, 123
1, 276521, Note_off_c, 4, 49, 64
1, 276559, Note_off_c, 3, 69, 64
1, 276565, Note_on_c, 3, 69, 127
1, 276605, Note_off_c, 3, 69, 64
1, 276607, Note_on_c, 3, 69, 127
1, 276615, Note_on_c, 4, 52, 123
1, 276624, Note_off_c, 4, 51, 64
1, 276651, Note_off_c, 3, 69, 64
1, 276655, Note_on_c, 3, 71, 127
1, 276703, Note_on_c, 2, 76, 127
1, 276707, Note_off_c, 3, 71, 64
1, 276711, Note_on_c, 4, 56, 123
1, 276751, Note_on_c, 1, 80, 127
1, 276755, Note_off_c, 2, 76, 64
1, 276799, Note_on_c, 1, 83, 127
1, 276803, Note_off_c, 1, 80, 64
1, 276805, Note_on_c, 4, 59, 125
1, 276813, Note_off_c, 4, 56, 64
1, 276815, Note_off_c, 4, 52, 64
1, 276901, Note_on_c, 4, 56, 123
1, 276909, Note_off_c, 4, 59, 64
1, 276999, Note_on_c, 4, 54, 123
1, 277008, Note_off_c, 4, 56, 64
1, 277099, Note_on_c, 4, 52, 123
1, 277106, Note_off_c, 4, 54, 64
1, 277183, Note_off_c, 1, 83, 64
1, 277193, Note_on_c, 1, 83, 127
1, 277200, Note_on_c, 4, 51, 123
1, 277208, Note_off_c, 4, 52, 64
1, 277243, Note_on_c, 1, 81, 127
1, 277248, Note_off_c, 1, 83, 64
1, 277293, Note_on_c, 1, 80, 127
1, 277298, Note_off_c, 1, 81, 64
1, 277302, Note_on_c, 4, 52, 123
1, 277310, Note_off_c, 4, 51, 64
1, 277346, Note_on_c, 1, 78, 127
1, 277352, Note_off_c, 1, 80, 64
1, 277391, Note_off_c, 1, 78, 64
1, 277394, Note_on_c, 1, 78, 127
1, 277402, Note_on_c, 4, 54, 123
1, 277410, Note_off_c, 4, 52, 64
1, 277444, Note_on_c, 2, 76, 127
1, 277448, Note_off_c, 1, 78, 64
1, 277494, Note_on_c, 3, 75, 127
1, 277500, Note_off_c, 2, 76, 64
1, 277502, Note_on_c, 4, 47, 121
1, 277510, Note_off_c, 4, 54, 64
1, 277542, Note_on_c, 3, 73, 127
1, 277548, Note_off_c, 3, 75, 64
1, 277590, Note_on_c, 3, 71, 127
1, 277596, Note_off_c, 3, 73, 64
1, 277598, Note_on_c, 4, 49, 123
1, 277606, Note_off_c, 4, 47, 64
1, 277640, Note_on_c, 3, 69, 127
1, 277644, Note_off_c, 3, 71, 64
1, 277675, Note_off_c, 3, 69, 64
1, 277690, Note_on_c, 3, 69, 127
1, 277698, Note_on_c, 4, 51, 123
1, 277705, Note_off_c, 4, 49, 64
1, 277725, Note_off_c, 3, 69, 64
1, 277742, Note_on_c, 3, 69, 127
1, 277775, Note_off_c, 3, 69, 64
1, 277792, Note_on_c, 3, 69, 127
1, 277800, Note_on_c, 4, 52, 123
1, 277807, Note_off_c, 4, 51, 64
1, 277826, Note_off_c, 3, 69, 64
1, 277844, Note_on_c, 3, 71, 127
1, 277896, Note_on_c, 3, 69, 127
1, 277901, Note_off_c, 3, 71, 64
1, 277940, Note_off_c, 3, 69, 64
1, 277947, Note_on_c, 3, 69, 127
1, 277995, Note_off_c, 3, 69, 64
1, 277999, Note_on_c, 3, 69, 127
1, 278049, Note_off_c, 3, 69, 64
1, 278053, Note_on_c, 3, 71, 127
1, 278105, Note_on_c, 3, 73, 127
1, 278111, Note_off_c, 3, 71, 64
1, 278155, Note_on_c, 3, 75, 127
1, 278159, Note_off_c, 3, 73, 64
1, 278203, Note_on_c, 2, 76, 115
1, 278208, Note_off_c, 3, 75, 64
1, 278251, Note_on_c, 1, 78, 115
1, 278256, Note_off_c, 2, 76, 64
1, 278299, Note_on_c, 1, 80, 115
1, 278303, Note_off_c, 1, 78, 64
1, 278349, Note_on_c, 1, 81, 115
1, 278352, Note_off_c, 1, 80, 64
1, 278397, Note_on_c, 1, 83, 115
1, 278400, Note_off_c, 1, 81, 64
1, 278447, Note_on_c, 1, 85, 115
1, 278450, Note_off_c, 1, 83, 64
1, 278496, Note_on_c, 1, 87, 115
1, 278500, Note_off_c, 1, 85, 64
1, 278544, Note_on_c, 1, 88, 115
1, 278548, Note_off_c, 1, 87, 64
1, 278591, Note_on_c, 1, 87, 115
1, 278596, Note_off_c, 1, 88, 64
1, 278639, Note_on_c, 1, 85, 115
1, 278644, Note_off_c, 1, 87, 64
1, 278688, Note_on_c, 1, 83, 115
1, 278694, Note_off_c, 1, 85, 64
1, 278738, Note_on_c, 1, 81, 115
1, 278742, Note_off_c, 1, 83, 64
1, 278789, Note_on_c, 1, 80, 115
1, 278793, Note_off_c, 1, 81, 64
1, 278839, Note_on_c, 1, 78, 115
1, 278844, Note_off_c, 1, 80, 64
1, 278890, Note_on_c, 2, 76, 115
1, 278894, Note_off_c, 1, 78, 64
1, 278940, Note_on_c, 3, 75, 127
1, 278946, Note_off_c, 2, 76, 64
1, 278967, Note_off_c, 4, 52, 64
1, 278998, Note_off_c, 3, 75, 64
1, 278999, Note_on_c, 3, 73, 127
1, 279000, Note_on_c, 4, 66, 127
1, 279000, Note_on_c, 4, 57, 123
1, 279153, Note_on_c, 1, 85, 127
1, 279199, Note_off_c, 3, 73, 64
1, 279199, Note_on_c, 2, 76, 123
1, 279200, Note_off_c, 4, 57, 64
1, 279200, Note_on_c, 3, 69, 127
1, 279201, Note_off_c, 4, 66, 64
1, 279201, Note_on_c, 4, 59, 125
1, 279204, Note_off_c, 1, 85, 64
1, 279401, Note_off_c, 3, 69, 64
1, 279402, Note_on_c, 3, 75, 123
1, 279408, Note_off_c, 2, 76, 64
1, 279410, Note_on_c, 3, 69, 127
1, 279410, Note_on_c, 1, 80, 123
1, 279511, Note_off_c, 1, 80, 64
1, 279513, Note_on_c, 1, 78, 123
1, 279609, Note_off_c, 3, 75, 64
1, 279611, Note_off_c, 3, 69, 64
1, 279616, Note_off_c, 1, 78, 64
1, 279617, Note_off_c, 4, 59, 64
1, 279620, Note_on_c, 2, 76, 123
1, 279621, Note_on_c, 3, 69, 127
1, 279830, Note_on_c, 4, 52, 123
1, 280040, Note_off_c, 2, 76, 64
1, 280040, Note_off_c, 3, 69, 64
1, 280219, Note_off_c, 4, 52, 64
1, 280220, Note_on_c, 4, 64, 124
1, 280247, Note_on_c, 2, 76, 119
1, 280424, Note_on_c, 4, 66, 127
1, 280433, Note_off_c, 4, 64, 64
1, 280442, Note_on_c, 1, 78, 119
1, 280450, Note_off_c, 2, 76, 64
1, 280631, Note_on_c, 3, 67, 127
1, 280640, Note_off_c, 4, 66, 64
1, 280648, Note_off_c, 1, 78, 64
1, 280648, Note_on_c, 1, 79, 119
1, 280824, Note_on_c, 4, 54, 123
1, 280824, Note_on_c, 3, 71, 127
1, 280830, Note_off_c, 3, 67, 64
1, 280840, Note_off_c, 1, 79, 64
1, 280919, Note_on_c, 4, 61, 125
1, 281012, Note_off_c, 3, 71, 64
1, 281020, Note_on_c, 3, 71, 127
1, 281020, Note_on_c, 4, 66, 127
1, 281027, Note_off_c, 4, 61, 64
1, 281121, Note_on_c, 4, 64, 124
1, 281128, Note_off_c, 4, 66, 64
1, 281213, Note_on_c, 4, 62, 124
1, 281222, Note_off_c, 4, 64, 64
1, 281311, Note_on_c, 4, 61, 125
1, 281318, Note_off_c, 4, 62, 64
1, 281334, Note_off_c, 3, 71, 64
1, 281357, Note_on_c, 3, 71, 127
1, 281394, Note_off_c, 4, 54, 64
1, 281400, Note_off_c, 3, 71, 64
1, 281401, Note_on_c, 4, 54, 123
1, 281401, Note_on_c, 3, 73, 125
1, 281410, Note_off_c, 4, 61, 64
1, 281502, Note_on_c, 4, 62, 124
1, 281591, Note_off_c, 3, 73, 64
1, 281591, Note_on_c, 3, 71, 127
1, 281592, Note_on_c, 4, 66, 127
1, 281599, Note_off_c, 4, 62, 64
1, 281689, Note_on_c, 4, 62, 124
1, 281697, Note_off_c, 4, 66, 64
1, 281784, Note_on_c, 4, 61, 125
1, 281792, Note_off_c, 4, 62, 64
1, 281879, Note_on_c, 4, 59, 125
1, 281886, Note_off_c, 4, 61, 64
1, 281904, Note_off_c, 3, 71, 64
1, 281927, Note_on_c, 3, 71, 127
1, 281968, Note_off_c, 4, 54, 64
1, 281974, Note_off_c, 3, 71, 64
1, 281976, Note_on_c, 4, 54, 123
1, 281976, Note_on_c, 3, 74, 125
1, 281984, Note_off_c, 4, 59, 64
1, 282076, Note_on_c, 4, 58, 123
1, 282168, Note_off_c, 3, 74, 64
1, 282170, Note_on_c, 3, 73, 125
1, 282171, Note_on_c, 4, 64, 124
1, 282179, Note_off_c, 4, 58, 64
1, 282264, Note_on_c, 4, 61, 125
1, 282271, Note_off_c, 4, 64, 64
1, 282360, Note_on_c, 4, 59, 125
1, 282367, Note_off_c, 4, 61, 64
1, 282454, Note_on_c, 4, 58, 123
1, 282462, Note_off_c, 4, 59, 64
1, 282478, Note_off_c, 3, 73, 64
1, 282499, Note_on_c, 3, 73, 125
1, 282541, Note_on_c, 2, 76, 125
1, 282542, Note_on_c, 4, 59, 125
1, 282547, Note_off_c, 3, 73, 64
1, 282551, Note_off_c, 4, 58, 64
1, 282629, Note_on_c, 3, 74, 125
1, 282637, Note_off_c, 2, 76, 64
1, 282720, Note_on_c, 2, 77, 125
1, 282727, Note_off_c, 3, 74, 64
1, 282812, Note_on_c, 2, 76, 125
1, 282817, Note_off_c, 2, 77, 64
1, 282896, Note_on_c, 1, 79, 125
1, 282904, Note_off_c, 2, 76, 64
1, 282986, Note_on_c, 2, 77, 125
1, 282995, Note_off_c, 1, 79, 64
1, 283054, Note_off_c, 4, 54, 64
1, 283086, Note_off_c, 4, 59, 64
1, 283087, Note_on_c, 4, 52, 123
1, 283087, Note_on_c, 3, 69, 127
1, 283093, Note_off_c, 2, 77, 64
1, 283187, Note_on_c, 4, 59, 125
1, 283274, Note_off_c, 3, 69, 64
1, 283282, Note_on_c, 3, 69, 127
1, 283282, Note_on_c, 4, 64, 124
1, 283288, Note_off_c, 4, 59, 64
1, 283375, Note_on_c, 4, 62, 124
1, 283382, Note_off_c, 4, 64, 64
1, 283469, Note_on_c, 4, 60, 125
1, 283476, Note_off_c, 4, 62, 64
1, 283557, Note_on_c, 4, 59, 125
1, 283565, Note_off_c, 4, 60, 64
1, 283582, Note_off_c, 3, 69, 64
1, 283603, Note_on_c, 3, 69, 127
1, 283642, Note_off_c, 4, 52, 64
1, 283647, Note_on_c, 3, 71, 127
1, 283648, Note_on_c, 4, 52, 123
1, 283653, Note_off_c, 3, 69, 64
1, 283657, Note_off_c, 4, 59, 64
1, 283740, Note_on_c, 4, 61, 125
1, 283836, Note_off_c, 3, 71, 64
1, 283836, Note_on_c, 3, 69, 127
1, 283836, Note_on_c, 4, 64, 124
1, 283842, Note_off_c, 4, 61, 64
1, 283931, Note_on_c, 4, 61, 125
1, 283938, Note_off_c, 4, 64, 64
1, 284025, Note_on_c, 4, 59, 125
1, 284032, Note_off_c, 4, 61, 64
1, 284121, Note_on_c, 4, 57, 123
1, 284128, Note_off_c, 4, 59, 64
1, 284151, Note_off_c, 3, 69, 64
1, 284167, Note_on_c, 3, 69, 127
1, 284203, Note_off_c, 4, 52, 64
1, 284209, Note_on_c, 4, 52, 123
1, 284209, Note_on_c, 3, 73, 125
1, 284216, Note_off_c, 3, 69, 64
1, 284218, Note_off_c, 4, 57, 64
1, 284301, Note_on_c, 4, 56, 123
1, 284385, Note_off_c, 3, 73, 64
1, 284392, Note_on_c, 3, 71, 127
1, 284393, Note_on_c, 4, 62, 124
1, 284401, Note_off_c, 4, 56, 64
1, 284485, Note_off_c, 4, 62, 64
1, 284487, Note_on_c, 4, 59, 125
1, 284572, Note_off_c, 4, 59, 64
1, 284574, Note_on_c, 4, 57, 123
1, 284662, Note_off_c, 4, 57, 64
1, 284666, Note_on_c, 4, 56, 123
1, 284687, Note_off_c, 3, 71, 64
1, 284710, Note_on_c, 3, 71, 127
1, 284752, Note_off_c, 3, 71, 64
1, 284753, Note_off_c, 4, 56, 64
1, 284753, Note_on_c, 3, 74, 125
1, 284754, Note_on_c, 4, 57, 123
1, 284846, Note_on_c, 3, 72, 125
1, 284854, Note_off_c, 3, 74, 64
1, 284935, Note_on_c, 3, 71, 127
1, 284942, Note_off_c, 3, 72, 64
1, 285025, Note_on_c, 3, 69, 127
1, 285033, Note_off_c, 3, 71, 64
1, 285121, Note_off_c, 4, 57, 64
1, 285125, Note_on_c, 1, 81, 125
1, 285125, Note_on_c, 4, 55, 127
1, 285126, Note_on_c, 4, 43, 125
1, 285199, Note_off_c, 4, 52, 64
1, 285206, Note_off_c, 1, 81, 64
1, 285216, Note_on_c, 1, 81, 125
1, 285306, Note_off_c, 4, 43, 64
1, 285307, Note_off_c, 4, 55, 64
1, 285309, Note_on_c, 1, 83, 125
1, 285310, Note_on_c, 4, 53, 127
1, 285310, Note_on_c, 4, 41, 125
1, 285318, Note_off_c, 1, 81, 64
1, 285325, Note_off_c, 3, 69, 64
1, 285401, Note_on_c, 1, 81, 125
1, 285408, Note_off_c, 1, 83, 64
1, 285488, Note_on_c, 1, 79, 125
1, 285496, Note_off_c, 1, 81, 64
1, 285580, Note_on_c, 2, 77, 125
1, 285586, Note_off_c, 1, 79, 64
1, 285669, Note_on_c, 2, 76, 125
1, 285676, Note_off_c, 2, 77, 64
1, 285759, Note_on_c, 3, 75, 125
1, 285765, Note_off_c, 2, 76, 64
1, 285841, Note_off_c, 4, 53, 64
1, 285849, Note_on_c, 1, 84, 125
1, 285850, Note_on_c, 4, 53, 127
1, 285850, Note_on_c, 4, 57, 127
1, 285851, Note_off_c, 4, 41, 64
1, 285857, Note_off_c, 3, 75, 64
1, 285942, Note_on_c, 4, 56, 127
1, 285950, Note_off_c, 4, 57, 64
1, 286035, Note_on_c, 4, 57, 127
1, 286041, Note_off_c, 4, 56, 64
1, 286117, Note_on_c, 4, 60, 127
1, 286125, Note_off_c, 4, 57, 64
1, 286207, Note_off_c, 1, 84, 64
1, 286209, Note_on_c, 3, 75, 125
1, 286210, Note_on_c, 4, 59, 127
1, 286218, Note_off_c, 4, 60, 64
1, 286304, Note_on_c, 4, 57, 127
1, 286312, Note_off_c, 4, 59, 64
1, 286400, Note_off_c, 3, 75, 64
1, 286402, Note_off_c, 4, 53, 64
1, 286403, Note_on_c, 4, 56, 127
1, 286403, Note_on_c, 2, 76, 125
1, 286404, Note_on_c, 4, 52, 127
1, 286410, Note_off_c, 4, 57, 64
1, 286688, Note_off_c, 2, 76, 64
1, 286690, Note_on_c, 1, 78, 125
1, 286744, Note_off_c, 1, 78, 64
1, 286748, Note_on_c, 2, 76, 125
1, 286786, Note_off_c, 2, 76, 64
1, 286787, Note_on_c, 2, 76, 125
1, 286839, Note_on_c, 3, 74, 125
1, 286845, Note_off_c, 2, 76, 64
1, 286891, Note_on_c, 3, 73, 125
1, 286896, Note_off_c, 3, 74, 64
1, 286944, Note_on_c, 3, 71, 127
1, 286950, Note_off_c, 3, 73, 64
1, 286992, Note_off_c, 4, 52, 64
1, 286993, Note_off_c, 4, 56, 64
1, 286999, Note_off_c, 3, 71, 64
1, 287001, Note_on_c, 4, 61, 125
1, 287002, Note_on_c, 4, 57, 123
1, 287002, Note_on_c, 4, 45, 121
1, 287027, Note_on_c, 4, 64, 124
1, 287037, Note_off_c, 4, 61, 64
1, 287046, Note_on_c, 3, 69, 127
1, 287062, Note_off_c, 4, 64, 64
1, 287410, Note_off_c, 4, 45, 64
1, 287412, Note_off_c, 4, 57, 64
1, 287413, Note_on_c, 4, 64, 124
1, 287413, Note_on_c, 4, 52, 123
1, 287414, Note_on_c, 4, 40, 121
1, 287462, Note_off_c, 3, 69, 64
1, 287760, Note_off_c, 4, 40, 64
1, 287761, Note_off_c, 4, 52, 64
1, 287761, Note_off_c, 4, 64, 64
1, 287764, Note_on_c, 3, 73, 125
1, 287764, Note_on_c, 4, 61, 125
1, 287765, Note_on_c, 4, 49, 123
1, 287880, Note_off_c, 3, 73, 64
1, 287885, Note_on_c, 3, 74, 125
1, 287921, Note_off_c, 3, 74, 64
1, 287923, Note_on_c, 3, 71, 127
1, 287976, Note_off_c, 3, 71, 64
1, 287976, Note_off_c, 4, 49, 64
1, 287976, Note_off_c, 4, 61, 64
1, 287979, Note_on_c, 4, 57, 123
1, 287979, Note_on_c, 4, 45, 121
1, 287979, Note_on_c, 3, 69, 127
1, 288292, Note_off_c, 3, 69, 64
1, 288292, Note_on_c, 2, 76, 125
1, 288389, Note_off_c, 2, 76, 64
1, 288391, Note_on_c, 1, 78, 125
1, 288429, Note_off_c, 1, 78, 64
1, 288441, Note_on_c, 3, 74, 125
1, 288476, Note_off_c, 3, 74, 64
1, 288488, Note_on_c, 3, 73, 125
1, 288645, Note_off_c, 4, 45, 64
1, 288646, Note_off_c, 4, 57, 64
1, 288660, Note_off_c, 3, 73, 64
1, 288663, Note_on_c, 1, 85, 125
1, 288664, Note_on_c, 4, 66, 127
1, 288664, Note_on_c, 4, 57, 123
1, 288858, Note_off_c, 4, 57, 64
1, 288859, Note_off_c, 1, 85, 64
1, 288859, Note_off_c, 4, 66, 64
1, 288861, Note_on_c, 3, 75, 125
1, 288862, Note_on_c, 3, 69, 127
1, 288862, Note_on_c, 4, 59, 125
1, 289061, Note_off_c, 3, 69, 64
1, 289063, Note_off_c, 3, 75, 64
1, 289063, Note_off_c, 4, 59, 64
1, 289066, Note_on_c, 3, 69, 127
1, 289066, Note_on_c, 2, 76, 125
1, 289067, Note_on_c, 4, 64, 124
1, 289358, Note_off_c, 2, 76, 64
1, 289360, Note_on_c, 2, 77, 113
1, 289458, Note_on_c, 1, 80, 113
1, 289466, Note_off_c, 2, 77, 64
1, 289549, Note_on_c, 1, 78, 113
1, 289558, Note_off_c, 1, 80, 64
1, 289639, Note_on_c, 2, 76, 113
1, 289644, Note_off_c, 1, 78, 64
1, 289731, Note_on_c, 3, 74, 121
1, 289739, Note_off_c, 2, 76, 64
1, 289794, Note_off_c, 4, 64, 64
1, 289795, Note_off_c, 3, 69, 64
1, 289826, Note_on_c, 3, 73, 121
1, 289834, Note_off_c, 3, 74, 64
1, 289920, Note_on_c, 3, 71, 123
1, 289928, Note_off_c, 3, 73, 64
1, 290013, Note_on_c, 3, 69, 127
1, 290014, Note_on_c, 4, 52, 123
1, 290022, Note_off_c, 3, 71, 64
1, 290099, Note_off_c, 3, 69, 64
1, 290106, Note_on_c, 3, 69, 127
1, 290107, Note_on_c, 4, 62, 124
1, 290197, Note_off_c, 3, 69, 64
1, 290204, Note_on_c, 2, 76, 125
1, 290204, Note_on_c, 4, 59, 125
1, 290270, Note_off_c, 4, 62, 64
1, 290306, Note_on_c, 3, 74, 125
1, 290307, Note_on_c, 4, 62, 124
1, 290315, Note_off_c, 2, 76, 64
1, 290373, Note_off_c, 4, 59, 64
1, 290407, Note_on_c, 4, 59, 125
1, 290469, Note_off_c, 4, 62, 64
1, 290499, Note_on_c, 4, 62, 124
1, 290561, Note_off_c, 4, 59, 64
1, 290587, Note_off_c, 4, 52, 64
1, 290593, Note_off_c, 3, 74, 64
1, 290594, Note_on_c, 3, 71, 127
1, 290596, Note_on_c, 4, 52, 123
1, 290656, Note_off_c, 4, 62, 64
1, 290683, Note_on_c, 3, 69, 127
1, 290683, Note_on_c, 4, 61, 125
1, 290709, Note_off_c, 3, 71, 64
1, 290782, Note_on_c, 1, 78, 125
1, 290782, Note_on_c, 4, 57, 123
1, 290808, Note_off_c, 3, 69, 64
1, 290846, Note_off_c, 4, 61, 64
1, 290884, Note_on_c, 2, 76, 125
1, 290885, Note_on_c, 4, 61, 125
1, 290893, Note_off_c, 1, 78, 64
1, 290952, Note_off_c, 4, 57, 64
1, 290981, Note_on_c, 4, 57, 123
1, 291039, Note_off_c, 4, 61, 64
1, 291068, Note_on_c, 4, 61, 125
1, 291127, Note_off_c, 4, 57, 64
1, 291150, Note_off_c, 4, 52, 64
1, 291156, Note_off_c, 2, 76, 64
1, 291156, Note_off_c, 4, 61, 64
1, 291157, Note_on_c, 3, 71, 127
1, 291157, Note_on_c, 4, 61, 125
1, 291158, Note_on_c, 4, 52, 123
1, 291220, Note_off_c, 4, 61, 64
1, 291253, Note_on_c, 3, 69, 127
1, 291253, Note_on_c, 4, 61, 125
1, 291279, Note_off_c, 3, 71, 64
1, 291356, Note_on_c, 1, 81, 125
1, 291356, Note_on_c, 4, 57, 123
1, 291382, Note_off_c, 3, 69, 64
1, 291424, Note_off_c, 4, 61, 64
1, 291455, Note_on_c, 1, 79, 125
1, 291455, Note_on_c, 4, 61, 125
1, 291463, Note_off_c, 1, 81, 64
1, 291515, Note_off_c, 4, 57, 64
1, 291544, Note_on_c, 4, 57, 123
1, 291601, Note_off_c, 4, 61, 64
1, 291633, Note_on_c, 4, 61, 125
1, 291696, Note_off_c, 4, 57, 64
1, 291719, Note_off_c, 1, 79, 64
1, 291719, Note_off_c, 4, 52, 64
1, 291727, Note_on_c, 1, 79, 125
1, 291728, Note_on_c, 4, 62, 124
1, 291728, Note_on_c, 4, 57, 123
1, 291729, Note_on_c, 4, 50, 123
1, 291735, Note_off_c, 4, 61, 64
1, 291816, Note_on_c, 1, 78, 125
1, 291823, Note_off_c, 1, 79, 64
1, 291910, Note_on_c, 2, 76, 125
1, 291917, Note_off_c, 1, 78, 64
1, 292000, Note_on_c, 3, 74, 125
1, 292008, Note_off_c, 2, 76, 64
1, 292090, Note_on_c, 3, 73, 125
1, 292098, Note_off_c, 3, 74, 64
1, 292175, Note_on_c, 3, 71, 127
1, 292190, Note_off_c, 3, 73, 64
1, 292281, Note_off_c, 3, 71, 64
1, 292281, Note_on_c, 2, 76, 125
1, 292281, Note_on_c, 4, 49, 123
1, 292282, Note_off_c, 4, 50, 64
1, 292328, Note_off_c, 2, 76, 64
1, 292332, Note_on_c, 1, 78, 125
1, 292357, Note_off_c, 1, 78, 64
1, 292357, Note_on_c, 2, 76, 125
1, 292381, Note_off_c, 2, 76, 64
1, 292381, Note_on_c, 3, 74, 125
1, 292399, Note_off_c, 3, 74, 64
1, 292400, Note_on_c, 2, 76, 125
1, 292448, Note_off_c, 2, 76, 64
1, 292449, Note_off_c, 4, 49, 64
1, 292451, Note_on_c, 1, 78, 125
1, 292452, Note_on_c, 4, 50, 123
1, 292493, Note_off_c, 4, 57, 64
1, 292493, Note_off_c, 4, 62, 64
1, 292501, Note_on_c, 3, 69, 127
1, 292501, Note_on_c, 4, 61, 125
1, 292506, Note_off_c, 1, 78, 64
1, 292510, Note_off_c, 4, 50, 64
1, 292511, Note_on_c, 4, 52, 123
1, 292686, Note_off_c, 3, 69, 64
1, 292691, Note_off_c, 4, 61, 64
1, 292693, Note_on_c, 3, 69, 127
1, 292694, Note_on_c, 4, 59, 125
1, 292856, Note_off_c, 4, 59, 64
1, 292879, Note_off_c, 3, 69, 64
1, 292886, Note_on_c, 3, 69, 127
1, 292887, Note_on_c, 4, 57, 123
1, 292922, Note_off_c, 4, 52, 64
1, 292922, Note_on_c, 3, 73, 125
1, 292932, Note_on_c, 2, 76, 125
1, 292951, Note_off_c, 3, 69, 64
1, 292977, Note_off_c, 3, 73, 64
1, 292996, Note_on_c, 4, 61, 125
1, 293057, Note_off_c, 4, 57, 64
1, 293082, Note_off_c, 2, 76, 64
1, 293090, Note_on_c, 2, 76, 125
1, 293090, Note_on_c, 4, 64, 124
1, 293148, Note_off_c, 4, 61, 64
1, 293183, Note_on_c, 4, 61, 125
1, 293191, Note_off_c, 4, 64, 64
1, 293279, Note_on_c, 4, 59, 125
1, 293287, Note_off_c, 4, 61, 64
1, 293371, Note_on_c, 4, 57, 123
1, 293379, Note_off_c, 4, 59, 64
1, 293460, Note_off_c, 2, 76, 64
1, 293469, Note_on_c, 2, 76, 125
1, 293470, Note_on_c, 4, 56, 123
1, 293476, Note_off_c, 4, 57, 64
1, 293516, Note_on_c, 3, 74, 125
1, 293520, Note_off_c, 2, 76, 64
1, 293564, Note_on_c, 3, 73, 125
1, 293565, Note_on_c, 4, 57, 123
1, 293569, Note_off_c, 3, 74, 64
1, 293571, Note_off_c, 4, 56, 64
1, 293609, Note_on_c, 3, 71, 127
1, 293615, Note_off_c, 3, 73, 64
1, 293653, Note_off_c, 3, 71, 64
1, 293655, Note_on_c, 3, 71, 127
1, 293656, Note_on_c, 4, 59, 125
1, 293664, Note_off_c, 4, 57, 64
1, 293702, Note_on_c, 3, 69, 127
1, 293708, Note_off_c, 3, 71, 64
1, 293747, Note_off_c, 3, 69, 64
1, 293750, Note_on_c, 3, 69, 127
1, 293751, Note_on_c, 4, 52, 123
1, 293757, Note_off_c, 4, 59, 64
1, 293796, Note_on_c, 4, 66, 127
1, 293801, Note_off_c, 3, 69, 64
1, 293845, Note_on_c, 4, 64, 127
1, 293846, Note_on_c, 4, 54, 123
1, 293850, Note_off_c, 4, 66, 64
1, 293854, Note_off_c, 4, 52, 64
1, 293894, Note_on_c, 4, 62, 127
1, 293900, Note_off_c, 4, 64, 64
1, 293948, Note_on_c, 4, 61, 127
1, 293949, Note_on_c, 4, 56, 123
1, 293953, Note_off_c, 4, 62, 64
1, 293955, Note_off_c, 4, 54, 64
1, 293995, Note_on_c, 4, 62, 127
1, 294001, Note_off_c, 4, 61, 64
1, 294047, Note_on_c, 4, 61, 127
1, 294048, Note_on_c, 4, 57, 123
1, 294052, Note_off_c, 4, 62, 64
1, 294056, Note_off_c, 4, 56, 64
1, 294096, Note_on_c, 4, 64, 127
1, 294102, Note_off_c, 4, 61, 64
1, 294146, Note_on_c, 4, 61, 125
1, 294146, Note_on_c, 3, 69, 127
1, 294151, Note_off_c, 4, 64, 64
1, 294193, Note_on_c, 3, 73, 125
1, 294199, Note_off_c, 3, 69, 64
1, 294243, Note_on_c, 2, 76, 125
1, 294244, Note_on_c, 4, 64, 124
1, 294248, Note_off_c, 3, 73, 64
1, 294252, Note_off_c, 4, 61, 64
1, 294340, Note_on_c, 4, 61, 125
1, 294348, Note_off_c, 4, 64, 64
1, 294428, Note_off_c, 4, 57, 64
1, 294429, Note_on_c, 4, 59, 125
1, 294436, Note_off_c, 4, 61, 64
1, 294524, Note_off_c, 2, 76, 64
1, 294526, Note_on_c, 1, 88, 125
1, 294527, Note_on_c, 4, 57, 123
1, 294533, Note_off_c, 4, 59, 64
1, 294625, Note_off_c, 1, 88, 64
1, 294635, Note_on_c, 1, 88, 125
1, 294636, Note_on_c, 4, 56, 123
1, 294643, Note_off_c, 4, 57, 64
1, 294688, Note_on_c, 1, 86, 125
1, 294692, Note_off_c, 1, 88, 64
1, 294737, Note_on_c, 1, 85, 125
1, 294738, Note_on_c, 4, 57, 123
1, 294742, Note_off_c, 1, 86, 64
1, 294744, Note_off_c, 4, 56, 64
1, 294787, Note_on_c, 1, 83, 125
1, 294792, Note_off_c, 1, 85, 64
1, 294830, Note_off_c, 1, 83, 64
1, 294837, Note_on_c, 1, 83, 125
1, 294837, Note_on_c, 4, 59, 125
1, 294843, Note_off_c, 4, 57, 64
1, 294879, Note_off_c, 1, 83, 64
1, 294884, Note_on_c, 1, 81, 125
1, 294934, Note_on_c, 1, 80, 125
1, 294934, Note_on_c, 4, 52, 123
1, 294938, Note_off_c, 1, 81, 64
1, 294942, Note_off_c, 4, 59, 64
1, 294983, Note_on_c, 1, 78, 125
1, 294986, Note_off_c, 1, 80, 64
1, 295029, Note_on_c, 2, 76, 125
1, 295029, Note_on_c, 4, 54, 123
1, 295033, Note_off_c, 1, 78, 64
1, 295037, Note_off_c, 4, 52, 64
1, 295076, Note_on_c, 3, 74, 125
1, 295081, Note_off_c, 2, 76, 64
1, 295124, Note_on_c, 4, 56, 123
1, 295124, Note_on_c, 3, 73, 125
1, 295128, Note_off_c, 3, 74, 64
1, 295132, Note_off_c, 4, 54, 64
1, 295173, Note_on_c, 3, 74, 125
1, 295176, Note_off_c, 3, 73, 64
1, 295219, Note_on_c, 3, 73, 125
1, 295219, Note_on_c, 4, 57, 123
1, 295223, Note_off_c, 3, 74, 64
1, 295227, Note_off_c, 4, 56, 64
1, 295268, Note_on_c, 2, 76, 125
1, 295272, Note_off_c, 3, 73, 64
1, 295318, Note_on_c, 3, 74, 125
1, 295321, Note_off_c, 2, 76, 64
1, 295368, Note_on_c, 3, 73, 125
1, 295373, Note_off_c, 3, 74, 64
1, 295412, Note_off_c, 4, 57, 64
1, 295416, Note_on_c, 3, 74, 125
1, 295417, Note_on_c, 4, 57, 123
1, 295417, Note_on_c, 4, 54, 123
1, 295421, Note_off_c, 3, 73, 64
1, 295467, Note_on_c, 2, 76, 125
1, 295471, Note_off_c, 3, 74, 64
1, 295517, Note_on_c, 1, 78, 125
1, 295523, Note_off_c, 2, 76, 64
1, 295567, Note_on_c, 1, 80, 125
1, 295573, Note_off_c, 1, 78, 64
1, 295611, Note_off_c, 4, 54, 64
1, 295612, Note_off_c, 4, 57, 64
1, 295616, Note_on_c, 1, 81, 125
1, 295617, Note_on_c, 4, 57, 123
1, 295617, Note_on_c, 4, 54, 123
1, 295618, Note_on_c, 4, 50, 123
1, 295622, Note_off_c, 1, 80, 64
1, 295665, Note_on_c, 1, 83, 125
1, 295669, Note_off_c, 1, 81, 64
1, 295713, Note_on_c, 1, 85, 125
1, 295717, Note_off_c, 1, 83, 64
1, 295759, Note_on_c, 1, 86, 125
1, 295763, Note_off_c, 1, 85, 64
1, 295803, Note_off_c, 4, 54, 64
1, 295804, Note_off_c, 4, 57, 64
1, 295806, Note_off_c, 4, 50, 64
1, 295808, Note_on_c, 1, 88, 125
1, 295809, Note_on_c, 4, 57, 123
1, 295809, Note_on_c, 4, 52, 123
1, 295810, Note_on_c, 4, 49, 123
1, 295814, Note_off_c, 1, 86, 64
1, 295858, Note_on_c, 1, 86, 125
1, 295862, Note_off_c, 1, 88, 64
1, 295906, Note_on_c, 1, 85, 125
1, 295910, Note_off_c, 1, 86, 64
1, 295952, Note_on_c, 1, 83, 125
1, 295958, Note_off_c, 1, 85, 64
1, 296000, Note_on_c, 1, 81, 125
1, 296004, Note_off_c, 1, 83, 64
1, 296048, Note_on_c, 1, 80, 125
1, 296054, Note_off_c, 1, 81, 64
1, 296094, Note_on_c, 1, 78, 125
1, 296100, Note_off_c, 1, 80, 64
1, 296143, Note_on_c, 2, 76, 125
1, 296147, Note_off_c, 1, 78, 64
1, 296189, Note_on_c, 3, 74, 125
1, 296195, Note_off_c, 2, 76, 64
1, 296239, Note_on_c, 3, 73, 125
1, 296243, Note_off_c, 3, 74, 64
1, 296287, Note_on_c, 3, 71, 127
1, 296291, Note_off_c, 3, 73, 64
1, 296337, Note_on_c, 3, 69, 127
1, 296343, Note_off_c, 3, 71, 64
1, 296377, Note_off_c, 4, 49, 64
1, 296378, Note_off_c, 4, 52, 64
1, 296378, Note_off_c, 4, 57, 64
1, 296386, Note_on_c, 1, 78, 125
1, 296387, Note_on_c, 4, 57, 123
1, 296387, Note_on_c, 4, 50, 123
1, 296392, Note_off_c, 3, 69, 64
1, 296417, Note_on_c, 1, 80, 125
1, 296421, Note_off_c, 1, 78, 64
1, 296444, Note_on_c, 1, 78, 125
1, 296448, Note_off_c, 1, 80, 64
1, 296476, Note_on_c, 2, 76, 125
1, 296480, Note_off_c, 1, 78, 64
1, 296505, Note_on_c, 1, 78, 125
1, 296509, Note_off_c, 2, 76, 64
1, 296538, Note_on_c, 1, 80, 125
1, 296560, Note_off_c, 1, 78, 64
1, 296569, Note_on_c, 1, 81, 125
1, 296591, Note_off_c, 1, 80, 64
1, 296600, Note_off_c, 4, 50, 64
1, 296601, Note_off_c, 4, 57, 64
1, 296603, Note_on_c, 3, 69, 127
1, 296604, Note_on_c, 4, 52, 127
1, 296604, Note_on_c, 4, 61, 127
1, 296625, Note_off_c, 1, 81, 64
1, 296790, Note_off_c, 3, 69, 64
1, 296796, Note_off_c, 4, 61, 64
1, 296798, Note_on_c, 3, 73, 125
1, 296798, Note_on_c, 3, 69, 127
1, 296799, Note_on_c, 4, 62, 127
1, 296891, Note_off_c, 3, 73, 64
1, 296895, Note_on_c, 3, 71, 127
1, 296993, Note_off_c, 3, 69, 64
1, 296999, Note_off_c, 3, 71, 64
1, 296999, Note_off_c, 4, 62, 64
1, 297000, Note_off_c, 4, 52, 64
1, 297000, Note_on_c, 3, 69, 127
1, 297000, Note_on_c, 4, 61, 127
1, 297001, Note_on_c, 4, 57, 127
1, 297200, Note_on_c, 4, 45, 125
1, 297403, Note_off_c, 4, 57, 64
1, 297404, Note_off_c, 4, 61, 64
1, 297404, Note_off_c, 3, 69, 64
1, 297617, Note_off_c, 4, 45, 64
1, 297627, Note_on_c, 4, 64, 124
1, 297654, Note_on_c, 2, 76, 117
1, 297830, Note_on_c, 4, 66, 127
1, 297839, Note_off_c, 4, 64, 64
1, 297849, Note_on_c, 1, 78, 117
1, 297856, Note_off_c, 2, 76, 64
1, 298037, Note_on_c, 3, 67, 127
1, 298046, Note_off_c, 4, 66, 64
1, 298054, Note_off_c, 1, 78, 64
1, 298055, Note_on_c, 1, 79, 117
1, 298230, Note_on_c, 4, 54, 123
1, 298230, Note_on_c, 3, 71, 127
1, 298238, Note_off_c, 3, 67, 64
1, 298246, Note_off_c, 1, 79, 64
1, 298325, Note_on_c, 4, 61, 125
1, 298419, Note_off_c, 3, 71, 64
1, 298427, Note_on_c, 3, 71, 127
1, 298427, Note_on_c, 4, 66, 127
1, 298435, Note_off_c, 4, 61, 64
1, 298527, Note_on_c, 4, 64, 124
1, 298535, Note_off_c, 4, 66, 64
1, 298621, Note_on_c, 4, 62, 124
1, 298629, Note_off_c, 4, 64, 64
1, 298717, Note_on_c, 4, 61, 125
1, 298725, Note_off_c, 4, 62, 64
1, 298740, Note_off_c, 3, 71, 64
1, 298764, Note_on_c, 3, 71, 127
1, 298800, Note_off_c, 4, 54, 64
1, 298806, Note_off_c, 3, 71, 64
1, 298808, Note_on_c, 4, 54, 123
1, 298808, Note_on_c, 3, 73, 125
1, 298816, Note_off_c, 4, 61, 64
1, 298908, Note_on_c, 4, 62, 124
1, 298997, Note_off_c, 3, 73, 64
1, 298997, Note_on_c, 3, 71, 127
1, 298998, Note_on_c, 4, 66, 127
1, 299006, Note_off_c, 4, 62, 64
1, 299095, Note_on_c, 4, 62, 124
1, 299102, Note_off_c, 4, 66, 64
1, 299191, Note_on_c, 4, 61, 125
1, 299198, Note_off_c, 4, 62, 64
1, 299285, Note_on_c, 4, 59, 125
1, 299293, Note_off_c, 4, 61, 64
1, 299310, Note_off_c, 3, 71, 64
1, 299333, Note_on_c, 3, 71, 127
1, 299373, Note_off_c, 4, 54, 64
1, 299379, Note_off_c, 3, 71, 64
1, 299383, Note_on_c, 4, 54, 123
1, 299383, Note_on_c, 3, 74, 125
1, 299391, Note_off_c, 4, 59, 64
1, 299482, Note_on_c, 4, 58, 123
1, 299574, Note_off_c, 3, 74, 64
1, 299578, Note_on_c, 3, 73, 125
1, 299578, Note_on_c, 4, 64, 124
1, 299586, Note_off_c, 4, 58, 64
1, 299671, Note_on_c, 4, 61, 125
1, 299679, Note_off_c, 4, 64, 64
1, 299767, Note_on_c, 4, 59, 125
1, 299775, Note_off_c, 4, 61, 64
1, 299861, Note_on_c, 4, 58, 123
1, 299869, Note_off_c, 4, 59, 64
1, 299884, Note_off_c, 3, 73, 64
1, 299907, Note_on_c, 3, 73, 125
1, 299949, Note_on_c, 2, 76, 119
1, 299950, Note_on_c, 4, 59, 125
1, 299954, Note_off_c, 3, 73, 64
1, 299958, Note_off_c, 4, 58, 64
1, 300037, Note_on_c, 3, 74, 125
1, 300044, Note_off_c, 2, 76, 64
1, 300127, Note_on_c, 2, 77, 119
1, 300133, Note_off_c, 3, 74, 64
1, 300217, Note_on_c, 2, 76, 119
1, 300223, Note_off_c, 2, 77, 64
1, 300304, Note_on_c, 1, 79, 119
1, 300310, Note_off_c, 2, 76, 64
1, 300392, Note_on_c, 2, 77, 119
1, 300402, Note_off_c, 1, 79, 64
1, 300459, Note_off_c, 4, 54, 64
1, 300492, Note_off_c, 4, 59, 64
1, 300492, Note_on_c, 3, 69, 127
1, 300493, Note_on_c, 4, 52, 123
1, 300501, Note_off_c, 2, 77, 64
1, 300595, Note_on_c, 4, 59, 125
1, 300681, Note_off_c, 3, 69, 64
1, 300689, Note_on_c, 3, 69, 127
1, 300689, Note_on_c, 4, 64, 124
1, 300696, Note_off_c, 4, 59, 64
1, 300782, Note_on_c, 4, 62, 124
1, 300790, Note_off_c, 4, 64, 64
1, 300876, Note_on_c, 4, 60, 125
1, 300884, Note_off_c, 4, 62, 64
1, 300962, Note_on_c, 4, 59, 125
1, 300972, Note_off_c, 4, 60, 64
1, 300987, Note_off_c, 3, 69, 64
1, 301008, Note_on_c, 3, 69, 127
1, 301047, Note_off_c, 4, 52, 64
1, 301055, Note_on_c, 4, 52, 123
1, 301055, Note_on_c, 3, 71, 127
1, 301059, Note_off_c, 3, 69, 64
1, 301063, Note_off_c, 4, 59, 64
1, 301146, Note_on_c, 4, 61, 125
1, 301242, Note_off_c, 3, 71, 64
1, 301242, Note_on_c, 3, 69, 127
1, 301243, Note_on_c, 4, 64, 124
1, 301250, Note_off_c, 4, 61, 64
1, 301337, Note_on_c, 4, 61, 125
1, 301344, Note_off_c, 4, 64, 64
1, 301432, Note_on_c, 4, 59, 125
1, 301440, Note_off_c, 4, 61, 64
1, 301528, Note_on_c, 4, 57, 123
1, 301536, Note_off_c, 4, 59, 64
1, 301559, Note_off_c, 3, 69, 64
1, 301574, Note_on_c, 3, 69, 127
1, 301610, Note_off_c, 4, 52, 64
1, 301617, Note_on_c, 4, 52, 123
1, 301617, Note_on_c, 3, 73, 125
1, 301621, Note_off_c, 3, 69, 64
1, 301625, Note_off_c, 4, 57, 64
1, 301707, Note_on_c, 4, 56, 123
1, 301792, Note_off_c, 3, 73, 64
1, 301800, Note_on_c, 3, 71, 127
1, 301800, Note_on_c, 4, 62, 124
1, 301806, Note_off_c, 4, 56, 64
1, 301893, Note_off_c, 4, 62, 64
1, 301895, Note_on_c, 4, 59, 125
1, 301980, Note_off_c, 4, 59, 64
1, 301981, Note_on_c, 4, 57, 123
1, 302069, Note_off_c, 4, 57, 64
1, 302072, Note_on_c, 4, 56, 123
1, 302095, Note_off_c, 3, 71, 64
1, 302118, Note_on_c, 3, 71, 127
1, 302158, Note_off_c, 3, 71, 64
1, 302158, Note_off_c, 4, 56, 64
1, 302161, Note_on_c, 4, 57, 123
1, 302161, Note_on_c, 3, 74, 125
1, 302254, Note_on_c, 3, 72, 125
1, 302260, Note_off_c, 3, 74, 64
1, 302340, Note_on_c, 3, 71, 127
1, 302349, Note_off_c, 3, 72, 64
1, 302432, Note_on_c, 3, 69, 127
1, 302441, Note_off_c, 3, 71, 64
1, 302529, Note_off_c, 4, 57, 64
1, 302531, Note_on_c, 1, 81, 125
1, 302532, Note_on_c, 4, 55, 127
1, 302532, Note_on_c, 4, 43, 125
1, 302605, Note_off_c, 4, 52, 64
1, 302613, Note_off_c, 1, 81, 64
1, 302623, Note_on_c, 1, 81, 125
1, 302713, Note_off_c, 4, 43, 64
1, 302713, Note_off_c, 4, 55, 64
1, 302716, Note_on_c, 4, 53, 127
1, 302716, Note_on_c, 1, 83, 125
1, 302717, Note_on_c, 4, 41, 125
1, 302724, Note_off_c, 1, 81, 64
1, 302732, Note_off_c, 3, 69, 64
1, 302807, Note_on_c, 1, 81, 125
1, 302815, Note_off_c, 1, 83, 64
1, 302895, Note_on_c, 1, 79, 125
1, 302903, Note_off_c, 1, 81, 64
1, 302987, Note_on_c, 2, 77, 125
1, 302992, Note_off_c, 1, 79, 64
1, 303075, Note_on_c, 2, 76, 125
1, 303083, Note_off_c, 2, 77, 64
1, 303165, Note_on_c, 3, 75, 125
1, 303173, Note_off_c, 2, 76, 64
1, 303250, Note_off_c, 4, 53, 64
1, 303255, Note_on_c, 1, 84, 125
1, 303256, Note_on_c, 4, 53, 127
1, 303256, Note_on_c, 4, 57, 127
1, 303257, Note_off_c, 4, 41, 64
1, 303264, Note_off_c, 3, 75, 64
1, 303348, Note_on_c, 4, 56, 127
1, 303355, Note_off_c, 4, 57, 64
1, 303442, Note_on_c, 4, 57, 127
1, 303448, Note_off_c, 4, 56, 64
1, 303523, Note_on_c, 4, 60, 127
1, 303531, Note_off_c, 4, 57, 64
1, 303613, Note_off_c, 1, 84, 64
1, 303617, Note_on_c, 3, 75, 125
1, 303618, Note_on_c, 4, 59, 127
1, 303624, Note_off_c, 4, 60, 64
1, 303710, Note_on_c, 4, 57, 127
1, 303718, Note_off_c, 4, 59, 64
1, 303806, Note_off_c, 3, 75, 64
1, 303808, Note_off_c, 4, 53, 64
1, 303809, Note_on_c, 4, 56, 127
1, 303809, Note_on_c, 2, 76, 125
1, 303810, Note_on_c, 4, 52, 127
1, 303816, Note_off_c, 4, 57, 64
1, 304094, Note_off_c, 2, 76, 64
1, 304096, Note_on_c, 1, 78, 125
1, 304152, Note_off_c, 1, 78, 64
1, 304154, Note_on_c, 2, 76, 125
1, 304193, Note_off_c, 2, 76, 64
1, 304193, Note_on_c, 2, 76, 125
1, 304246, Note_on_c, 3, 74, 125
1, 304251, Note_off_c, 2, 76, 64
1, 304299, Note_on_c, 3, 73, 125
1, 304303, Note_off_c, 3, 74, 64
1, 304353, Note_on_c, 3, 71, 127
1, 304358, Note_off_c, 3, 73, 64
1, 304399, Note_off_c, 4, 52, 64
1, 304400, Note_off_c, 4, 56, 64
1, 304405, Note_off_c, 3, 71, 64
1, 304408, Note_on_c, 4, 45, 121
1, 304408, Note_on_c, 4, 61, 125
1, 304409, Note_on_c, 4, 57, 123
1, 304435, Note_on_c, 4, 64, 124
1, 304444, Note_off_c, 4, 61, 64
1, 304453, Note_on_c, 3, 69, 127
1, 304467, Note_off_c, 4, 64, 64
1, 304817, Note_off_c, 4, 45, 64
1, 304819, Note_off_c, 4, 57, 64
1, 304821, Note_on_c, 4, 64, 124
1, 304821, Note_on_c, 4, 52, 123
1, 304822, Note_on_c, 4, 40, 121
1, 304870, Note_off_c, 3, 69, 64
1, 305167, Note_off_c, 4, 40, 64
1, 305168, Note_off_c, 4, 52, 64
1, 305168, Note_off_c, 4, 64, 64
1, 305170, Note_on_c, 3, 73, 125
1, 305171, Note_on_c, 4, 61, 125
1, 305171, Note_on_c, 4, 49, 123
1, 305288, Note_off_c, 3, 73, 64
1, 305290, Note_on_c, 3, 74, 125
1, 305329, Note_off_c, 3, 74, 64
1, 305330, Note_on_c, 3, 71, 127
1, 305382, Note_off_c, 3, 71, 64
1, 305383, Note_off_c, 4, 49, 64
1, 305383, Note_off_c, 4, 61, 64
1, 305385, Note_on_c, 3, 69, 127
1, 305386, Note_on_c, 4, 57, 123
1, 305386, Note_on_c, 4, 45, 121
1, 305699, Note_off_c, 3, 69, 64
1, 305700, Note_on_c, 2, 76, 125
1, 305796, Note_off_c, 2, 76, 64
1, 305798, Note_on_c, 1, 78, 125
1, 305834, Note_off_c, 1, 78, 64
1, 305848, Note_on_c, 3, 74, 125
1, 305883, Note_off_c, 3, 74, 64
1, 305895, Note_on_c, 3, 73, 125
1, 306053, Note_off_c, 4, 45, 64
1, 306053, Note_off_c, 4, 57, 64
1, 306067, Note_off_c, 3, 73, 64
1, 306069, Note_on_c, 1, 85, 125
1, 306069, Note_on_c, 4, 66, 127
1, 306070, Note_on_c, 4, 57, 123
1, 306265, Note_off_c, 4, 57, 64
1, 306266, Note_off_c, 4, 66, 64
1, 306266, Note_off_c, 1, 85, 64
1, 306268, Note_on_c, 3, 75, 125
1, 306269, Note_on_c, 3, 69, 127
1, 306269, Note_on_c, 4, 59, 125
1, 306466, Note_off_c, 3, 69, 64
1, 306470, Note_off_c, 4, 59, 64
1, 306470, Note_off_c, 3, 75, 64
1, 306473, Note_on_c, 3, 69, 127
1, 306473, Note_on_c, 2, 76, 125
1, 306474, Note_on_c, 4, 64, 124
1, 306765, Note_off_c, 2, 76, 64
1, 306767, Note_on_c, 2, 77, 111
1, 306865, Note_on_c, 1, 80, 111
1, 306873, Note_off_c, 2, 77, 64
1, 306955, Note_on_c, 1, 78, 111
1, 306965, Note_off_c, 1, 80, 64
1, 307045, Note_on_c, 2, 76, 111
1, 307053, Note_off_c, 1, 78, 64
1, 307138, Note_on_c, 3, 74, 121
1, 307147, Note_off_c, 2, 76, 64
1, 307201, Note_off_c, 3, 69, 64
1, 307201, Note_off_c, 4, 64, 64
1, 307233, Note_on_c, 3, 73, 121
1, 307240, Note_off_c, 3, 74, 64
1, 307327, Note_on_c, 3, 71, 123
1, 307334, Note_off_c, 3, 73, 64
1, 307419, Note_on_c, 3, 69, 127
1, 307421, Note_on_c, 4, 52, 123
1, 307428, Note_off_c, 3, 71, 64
1, 307505, Note_off_c, 3, 69, 64
1, 307513, Note_on_c, 3, 69, 127
1, 307513, Note_on_c, 4, 62, 124
1, 307604, Note_off_c, 3, 69, 64
1, 307610, Note_on_c, 2, 76, 125
1, 307610, Note_on_c, 4, 59, 125
1, 307676, Note_off_c, 4, 62, 64
1, 307713, Note_on_c, 3, 74, 125
1, 307713, Note_on_c, 4, 62, 124
1, 307721, Note_off_c, 2, 76, 64
1, 307781, Note_off_c, 4, 59, 64
1, 307813, Note_on_c, 4, 59, 125
1, 307875, Note_off_c, 4, 62, 64
1, 307908, Note_on_c, 4, 62, 124
1, 307969, Note_off_c, 4, 59, 64
1, 307994, Note_off_c, 4, 52, 64
1, 308002, Note_off_c, 3, 74, 64
1, 308002, Note_on_c, 3, 71, 127
1, 308003, Note_on_c, 4, 52, 123
1, 308062, Note_off_c, 4, 62, 64
1, 308089, Note_on_c, 3, 69, 127
1, 308090, Note_on_c, 4, 61, 125
1, 308114, Note_off_c, 3, 71, 64
1, 308187, Note_on_c, 1, 78, 125
1, 308187, Note_on_c, 4, 57, 123
1, 308213, Note_off_c, 3, 69, 64
1, 308251, Note_off_c, 4, 61, 64
1, 308290, Note_on_c, 2, 76, 125
1, 308290, Note_on_c, 4, 61, 125
1, 308298, Note_off_c, 1, 78, 64
1, 308348, Note_off_c, 4, 57, 64
1, 308377, Note_on_c, 4, 57, 123
1, 308438, Note_off_c, 4, 61, 64
1, 308469, Note_on_c, 4, 61, 125
1, 308529, Note_off_c, 4, 57, 64
1, 308552, Note_off_c, 4, 52, 64
1, 308557, Note_off_c, 4, 61, 64
1, 308558, Note_off_c, 2, 76, 64
1, 308558, Note_on_c, 3, 71, 127
1, 308559, Note_on_c, 4, 52, 123
1, 308559, Note_on_c, 4, 61, 125
1, 308622, Note_off_c, 4, 61, 64
1, 308654, Note_on_c, 3, 69, 127
1, 308655, Note_on_c, 4, 61, 125
1, 308680, Note_off_c, 3, 71, 64
1, 308757, Note_on_c, 1, 81, 125
1, 308758, Note_on_c, 4, 57, 123
1, 308784, Note_off_c, 3, 69, 64
1, 308825, Note_off_c, 4, 61, 64
1, 308858, Note_on_c, 1, 79, 125
1, 308858, Note_on_c, 4, 61, 125
1, 308867, Note_off_c, 1, 81, 64
1, 308918, Note_off_c, 4, 57, 64
1, 308947, Note_on_c, 4, 57, 123
1, 309007, Note_off_c, 4, 61, 64
1, 309038, Note_on_c, 4, 61, 125
1, 309099, Note_off_c, 4, 57, 64
1, 309122, Note_off_c, 1, 79, 64
1, 309123, Note_off_c, 4, 52, 64
1, 309130, Note_on_c, 1, 79, 125
1, 309131, Note_on_c, 4, 62, 124
1, 309131, Note_on_c, 4, 57, 123
1, 309131, Note_on_c, 4, 50, 123
1, 309140, Note_off_c, 4, 61, 64
1, 309220, Note_on_c, 1, 78, 125
1, 309226, Note_off_c, 1, 79, 64
1, 309314, Note_on_c, 2, 76, 125
1, 309322, Note_off_c, 1, 78, 64
1, 309405, Note_on_c, 3, 74, 125
1, 309410, Note_off_c, 2, 76, 64
1, 309493, Note_on_c, 3, 73, 125
1, 309501, Note_off_c, 3, 74, 64
1, 309579, Note_on_c, 3, 71, 127
1, 309595, Note_off_c, 3, 73, 64
1, 309685, Note_off_c, 3, 71, 64
1, 309685, Note_on_c, 2, 76, 123
1, 309686, Note_off_c, 4, 50, 64
1, 309686, Note_on_c, 4, 49, 123
1, 309733, Note_off_c, 2, 76, 64
1, 309737, Note_on_c, 1, 78, 123
1, 309762, Note_off_c, 1, 78, 64
1, 309762, Note_on_c, 2, 76, 123
1, 309786, Note_off_c, 2, 76, 64
1, 309786, Note_on_c, 3, 74, 123
1, 309802, Note_off_c, 3, 74, 64
1, 309803, Note_on_c, 2, 76, 123
1, 309851, Note_off_c, 2, 76, 64
1, 309852, Note_off_c, 4, 49, 64
1, 309854, Note_on_c, 1, 78, 123
1, 309854, Note_on_c, 4, 50, 123
1, 309895, Note_off_c, 4, 57, 64
1, 309896, Note_off_c, 4, 62, 64
1, 309904, Note_on_c, 3, 69, 127
1, 309904, Note_on_c, 4, 61, 125
1, 309909, Note_off_c, 1, 78, 64
1, 309912, Note_off_c, 4, 50, 64
1, 309913, Note_on_c, 4, 52, 123
1, 310088, Note_off_c, 3, 69, 64
1, 310094, Note_off_c, 4, 61, 64
1, 310096, Note_on_c, 3, 69, 127
1, 310096, Note_on_c, 4, 59, 125
1, 310258, Note_off_c, 4, 59, 64
1, 310281, Note_off_c, 3, 69, 64
1, 310289, Note_on_c, 3, 69, 127
1, 310289, Note_on_c, 4, 57, 123
1, 310324, Note_off_c, 4, 52, 64
1, 310325, Note_on_c, 3, 73, 125
1, 310335, Note_on_c, 2, 76, 125
1, 310354, Note_off_c, 3, 69, 64
1, 310379, Note_off_c, 3, 73, 64
1, 310398, Note_on_c, 4, 61, 125
1, 310460, Note_off_c, 4, 57, 64
1, 310485, Note_off_c, 2, 76, 64
1, 310492, Note_on_c, 2, 76, 125
1, 310493, Note_on_c, 4, 64, 124
1, 310551, Note_off_c, 4, 61, 64
1, 310585, Note_on_c, 4, 61, 125
1, 310593, Note_off_c, 4, 64, 64
1, 310681, Note_on_c, 4, 59, 125
1, 310689, Note_off_c, 4, 61, 64
1, 310774, Note_on_c, 4, 57, 123
1, 310781, Note_off_c, 4, 59, 64
1, 310862, Note_off_c, 2, 76, 64
1, 310872, Note_on_c, 2, 76, 125
1, 310872, Note_on_c, 4, 56, 123
1, 310878, Note_off_c, 4, 57, 64
1, 310919, Note_on_c, 3, 74, 125
1, 310922, Note_off_c, 2, 76, 64
1, 310967, Note_on_c, 4, 57, 123
1, 310967, Note_on_c, 3, 73, 125
1, 310971, Note_off_c, 3, 74, 64
1, 310973, Note_off_c, 4, 56, 64
1, 311012, Note_on_c, 3, 71, 127
1, 311017, Note_off_c, 3, 73, 64
1, 311055, Note_off_c, 3, 71, 64
1, 311059, Note_on_c, 3, 71, 127
1, 311059, Note_on_c, 4, 59, 125
1, 311065, Note_off_c, 4, 57, 64
1, 311106, Note_on_c, 3, 69, 127
1, 311110, Note_off_c, 3, 71, 64
1, 311148, Note_off_c, 3, 69, 64
1, 311152, Note_on_c, 3, 69, 127
1, 311152, Note_on_c, 4, 52, 123
1, 311160, Note_off_c, 4, 59, 64
1, 311199, Note_on_c, 4, 66, 127
1, 311203, Note_off_c, 3, 69, 64
1, 311247, Note_on_c, 4, 64, 127
1, 311248, Note_on_c, 4, 54, 123
1, 311252, Note_off_c, 4, 66, 64
1, 311256, Note_off_c, 4, 52, 64
1, 311298, Note_on_c, 4, 62, 127
1, 311304, Note_off_c, 4, 64, 64
1, 311350, Note_on_c, 4, 61, 127
1, 311351, Note_on_c, 4, 56, 123
1, 311354, Note_off_c, 4, 62, 64
1, 311359, Note_off_c, 4, 54, 64
1, 311399, Note_on_c, 4, 62, 127
1, 311404, Note_off_c, 4, 61, 64
1, 311449, Note_on_c, 4, 57, 123
1, 311449, Note_on_c, 4, 61, 127
1, 311453, Note_off_c, 4, 62, 64
1, 311458, Note_off_c, 4, 56, 64
1, 311500, Note_on_c, 4, 64, 127
1, 311503, Note_off_c, 4, 61, 64
1, 311550, Note_on_c, 3, 69, 127
1, 311550, Note_on_c, 4, 61, 125
1, 311554, Note_off_c, 4, 64, 64
1, 311597, Note_on_c, 3, 73, 125
1, 311601, Note_off_c, 3, 69, 64
1, 311646, Note_on_c, 2, 76, 125
1, 311646, Note_on_c, 4, 64, 124
1, 311650, Note_off_c, 3, 73, 64
1, 311654, Note_off_c, 4, 61, 64
1, 311743, Note_on_c, 4, 61, 125
1, 311750, Note_off_c, 4, 64, 64
1, 311831, Note_off_c, 4, 57, 64
1, 311832, Note_on_c, 4, 59, 125
1, 311839, Note_off_c, 4, 61, 64
1, 311927, Note_off_c, 2, 76, 64
1, 311929, Note_on_c, 1, 88, 125
1, 311929, Note_on_c, 4, 57, 123
1, 311938, Note_off_c, 4, 59, 64
1, 312028, Note_off_c, 1, 88, 64
1, 312037, Note_on_c, 1, 88, 125
1, 312038, Note_on_c, 4, 56, 123
1, 312046, Note_off_c, 4, 57, 64
1, 312090, Note_on_c, 1, 86, 125
1, 312096, Note_off_c, 1, 88, 64
1, 312140, Note_on_c, 1, 85, 125
1, 312141, Note_on_c, 4, 57, 123
1, 312145, Note_off_c, 1, 86, 64
1, 312149, Note_off_c, 4, 56, 64
1, 312189, Note_on_c, 1, 83, 125
1, 312195, Note_off_c, 1, 85, 64
1, 312233, Note_off_c, 1, 83, 64
1, 312239, Note_on_c, 1, 83, 125
1, 312240, Note_on_c, 4, 59, 125
1, 312246, Note_off_c, 4, 57, 64
1, 312282, Note_off_c, 1, 83, 64
1, 312286, Note_on_c, 1, 81, 119
1, 312336, Note_on_c, 1, 80, 119
1, 312336, Note_on_c, 4, 52, 123
1, 312341, Note_off_c, 1, 81, 64
1, 312345, Note_off_c, 4, 59, 64
1, 312385, Note_on_c, 1, 78, 119
1, 312389, Note_off_c, 1, 80, 64
1, 312431, Note_on_c, 2, 76, 119
1, 312432, Note_on_c, 4, 54, 123
1, 312436, Note_off_c, 1, 78, 64
1, 312440, Note_off_c, 4, 52, 64
1, 312478, Note_on_c, 3, 74, 125
1, 312484, Note_off_c, 2, 76, 64
1, 312526, Note_on_c, 3, 73, 125
1, 312527, Note_on_c, 4, 56, 123
1, 312531, Note_off_c, 3, 74, 64
1, 312535, Note_off_c, 4, 54, 64
1, 312573, Note_on_c, 3, 74, 125
1, 312578, Note_off_c, 3, 73, 64
1, 312620, Note_on_c, 3, 73, 125
1, 312621, Note_on_c, 4, 57, 123
1, 312625, Note_off_c, 3, 74, 64
1, 312629, Note_off_c, 4, 56, 64
1, 312669, Note_on_c, 2, 76, 119
1, 312675, Note_off_c, 3, 73, 64
1, 312719, Note_on_c, 3, 74, 125
1, 312725, Note_off_c, 2, 76, 64
1, 312771, Note_on_c, 3, 73, 125
1, 312775, Note_off_c, 3, 74, 64
1, 312815, Note_off_c, 4, 57, 64
1, 312819, Note_on_c, 4, 57, 123
1, 312819, Note_on_c, 3, 74, 125
1, 312820, Note_on_c, 4, 54, 123
1, 312824, Note_off_c, 3, 73, 64
1, 312870, Note_on_c, 2, 76, 119
1, 312874, Note_off_c, 3, 74, 64
1, 312920, Note_on_c, 1, 78, 119
1, 312925, Note_off_c, 2, 76, 64
1, 312970, Note_on_c, 1, 80, 115
1, 312974, Note_off_c, 1, 78, 64
1, 313015, Note_off_c, 4, 57, 64
1, 313015, Note_off_c, 4, 54, 64
1, 313020, Note_on_c, 4, 57, 123
1, 313020, Note_on_c, 4, 54, 123
1, 313020, Note_on_c, 1, 81, 115
1, 313021, Note_on_c, 4, 50, 123
1, 313023, Note_off_c, 1, 80, 64
1, 313068, Note_on_c, 1, 83, 115
1, 313071, Note_off_c, 1, 81, 64
1, 313116, Note_on_c, 1, 85, 115
1, 313119, Note_off_c, 1, 83, 64
1, 313162, Note_on_c, 1, 86, 115
1, 313165, Note_off_c, 1, 85, 64
1, 313206, Note_off_c, 4, 54, 64
1, 313206, Note_off_c, 4, 57, 64
1, 313209, Note_off_c, 4, 50, 64
1, 313211, Note_on_c, 4, 57, 123
1, 313211, Note_on_c, 1, 88, 115
1, 313212, Note_on_c, 4, 52, 123
1, 313212, Note_on_c, 4, 49, 123
1, 313216, Note_off_c, 1, 86, 64
1, 313259, Note_on_c, 1, 86, 115
1, 313264, Note_off_c, 1, 88, 64
1, 313308, Note_on_c, 1, 85, 115
1, 313312, Note_off_c, 1, 86, 64
1, 313355, Note_on_c, 1, 83, 115
1, 313360, Note_off_c, 1, 85, 64
1, 313403, Note_on_c, 1, 81, 115
1, 313406, Note_off_c, 1, 83, 64
1, 313451, Note_on_c, 1, 80, 115
1, 313456, Note_off_c, 1, 81, 64
1, 313497, Note_on_c, 1, 78, 119
1, 313502, Note_off_c, 1, 80, 64
1, 313545, Note_on_c, 2, 76, 119
1, 313549, Note_off_c, 1, 78, 64
1, 313593, Note_on_c, 3, 74, 125
1, 313596, Note_off_c, 2, 76, 64
1, 313641, Note_on_c, 3, 73, 125
1, 313646, Note_off_c, 3, 74, 64
1, 313689, Note_on_c, 3, 71, 127
1, 313694, Note_off_c, 3, 73, 64
1, 313741, Note_on_c, 3, 69, 127
1, 313744, Note_off_c, 3, 71, 64
1, 313779, Note_off_c, 4, 49, 64
1, 313780, Note_off_c, 4, 57, 64
1, 313780, Note_off_c, 4, 52, 64
1, 313788, Note_on_c, 4, 57, 123
1, 313788, Note_on_c, 4, 50, 123
1, 313788, Note_on_c, 1, 78, 119
1, 313794, Note_off_c, 3, 69, 64
1, 313820, Note_on_c, 1, 80, 119
1, 313823, Note_off_c, 1, 78, 64
1, 313847, Note_on_c, 1, 78, 119
1, 313850, Note_off_c, 1, 80, 64
1, 313879, Note_on_c, 2, 76, 119
1, 313883, Note_off_c, 1, 78, 64
1, 313908, Note_on_c, 1, 78, 119
1, 313911, Note_off_c, 2, 76, 64
1, 313941, Note_on_c, 1, 80, 119
1, 313961, Note_off_c, 1, 78, 64
1, 313973, Note_on_c, 1, 81, 119
1, 313994, Note_off_c, 1, 80, 64
1, 314004, Note_off_c, 4, 50, 64
1, 314004, Note_off_c, 4, 57, 64
1, 314005, Note_on_c, 4, 52, 127
1, 314005, Note_on_c, 3, 69, 127
1, 314005, Note_on_c, 4, 61, 127
1, 314028, Note_off_c, 1, 81, 64
1, 314193, Note_off_c, 3, 69, 64
1, 314198, Note_off_c, 4, 61, 64
1, 314201, Note_on_c, 3, 73, 125
1, 314201, Note_on_c, 3, 69, 127
1, 314202, Note_on_c, 4, 62, 127
1, 314293, Note_off_c, 3, 73, 64
1, 314298, Note_on_c, 3, 71, 127
1, 314396, Note_off_c, 3, 69, 64
1, 314401, Note_off_c, 3, 71, 64
1, 314401, Note_off_c, 4, 62, 64
1, 314402, Note_off_c, 4, 52, 64
1, 314403, Note_on_c, 3, 69, 127
1, 314403, Note_on_c, 4, 61, 127
1, 314404, Note_on_c, 4, 57, 127
1, 314602, Note_on_c, 4, 45, 125
1, 314806, Note_off_c, 4, 61, 64
1, 314806, Note_off_c, 4, 57, 64
1, 314807, Note_off_c, 3, 69, 64
1, 315020, Note_off_c, 4, 45, 64
1, 315029, Note_on_c, 2, 69, 127
1, 315030, Note_on_c, 3, 66, 127
1, 315030, Note_on_c, 3, 66, 127
1, 315031, Note_on_c, 4, 50, 127
1, 315031, Note_on_c, 4, 38, 125
1, 315130, Note_on_c, 4, 57, 127
1, 315225, Note_off_c, 2, 69, 64
1, 315233, Note_off_c, 4, 57, 64
1, 315233, Note_on_c, 3, 66, 127
1, 315234, Note_on_c, 4, 62, 127
1, 315337, Note_off_c, 4, 62, 64
1, 315338, Note_on_c, 4, 57, 127
1, 315423, Note_off_c, 3, 66, 64
1, 315431, Note_off_c, 4, 57, 64
1, 315431, Note_on_c, 2, 67, 127
1, 315432, Note_on_c, 3, 64, 124
1, 315531, Note_off_c, 3, 64, 64
1, 315532, Note_on_c, 4, 57, 127
1, 315538, Note_off_c, 3, 66, 64
1, 315538, Note_off_c, 3, 66, 64
1, 315624, Note_off_c, 2, 67, 64
1, 315625, Note_off_c, 4, 38, 64
1, 315625, Note_off_c, 4, 50, 64
1, 315631, Note_off_c, 4, 57, 64
1, 315632, Note_on_c, 4, 50, 123
1, 315632, Note_on_c, 2, 69, 127
1, 315633, Note_on_c, 4, 38, 121
1, 315633, Note_on_c, 3, 66, 127
1, 315729, Note_on_c, 4, 57, 127
1, 315814, Note_off_c, 3, 66, 64
1, 315814, Note_off_c, 2, 69, 64
1, 315820, Note_off_c, 4, 57, 64
1, 315821, Note_on_c, 3, 66, 127
1, 315821, Note_on_c, 4, 62, 127
1, 315912, Note_off_c, 4, 62, 64
1, 315913, Note_off_c, 3, 66, 64
1, 315915, Note_on_c, 3, 64, 124
1, 315916, Note_on_c, 4, 61, 127
1, 316007, Note_off_c, 4, 61, 64
1, 316007, Note_off_c, 3, 64, 64
1, 316009, Note_on_c, 3, 66, 127
1, 316010, Note_on_c, 4, 62, 127
1, 316107, Note_off_c, 3, 66, 64
1, 316107, Note_off_c, 4, 62, 64
1, 316108, Note_on_c, 2, 67, 127
1, 316108, Note_on_c, 3, 64, 124
1, 316204, Note_off_c, 3, 64, 64
1, 316205, Note_off_c, 2, 67, 64
1, 316208, Note_on_c, 2, 69, 127
1, 316208, Note_on_c, 3, 66, 127
1, 316305, Note_off_c, 3, 66, 64
1, 316305, Note_on_c, 4, 62, 127
1, 316391, Note_off_c, 2, 69, 64
1, 316399, Note_off_c, 4, 62, 64
1, 316399, Note_on_c, 2, 71, 127
1, 316400, Note_on_c, 2, 67, 127
1, 316498, Note_off_c, 2, 67, 64
1, 316498, Note_on_c, 4, 62, 127
1, 316514, Note_off_c, 4, 50, 64
1, 316589, Note_off_c, 2, 71, 64
1, 316596, Note_off_c, 4, 62, 64
1, 316597, Note_on_c, 3, 73, 125
1, 316597, Note_on_c, 2, 67, 127
1, 316598, Note_on_c, 4, 57, 127
1, 316598, Note_on_c, 4, 45, 121
1, 316694, Note_off_c, 2, 67, 64
1, 316694, Note_on_c, 3, 64, 124
1, 316757, Note_off_c, 4, 38, 64
1, 316782, Note_off_c, 3, 73, 64
1, 316788, Note_off_c, 4, 45, 64
1, 316788, Note_off_c, 4, 57, 64
1, 316790, Note_off_c, 3, 64, 64
1, 316791, Note_on_c, 4, 50, 115
1, 316791, Note_on_c, 3, 74, 125
1, 316791, Note_on_c, 3, 66, 127
1, 316792, Note_on_c, 4, 38, 117
1, 316890, Note_off_c, 3, 66, 64
1, 316891, Note_on_c, 2, 69, 127
1, 316977, Note_off_c, 3, 74, 64
1, 316984, Note_off_c, 2, 69, 64
1, 316985, Note_on_c, 1, 78, 125
1, 316985, Note_on_c, 3, 66, 127
1, 316986, Note_on_c, 4, 62, 127
1, 317088, Note_off_c, 3, 66, 64
1, 317088, Note_off_c, 4, 62, 64
1, 317089, Note_off_c, 1, 78, 64
1, 317089, Note_on_c, 2, 76, 125
1, 317089, Note_on_c, 3, 64, 124
1, 317090, Note_on_c, 4, 61, 127
1, 317181, Note_off_c, 4, 61, 64
1, 317182, Note_off_c, 3, 64, 64
1, 317182, Note_off_c, 2, 76, 64
1, 317183, Note_on_c, 1, 78, 125
1, 317183, Note_on_c, 3, 66, 127
1, 317184, Note_on_c, 4, 62, 127
1, 317278, Note_off_c, 4, 62, 64
1, 317279, Note_off_c, 3, 66, 64
1, 317279, Note_off_c, 1, 78, 64
1, 317280, Note_on_c, 1, 79, 125
1, 317280, Note_on_c, 2, 67, 127
1, 317280, Note_on_c, 3, 64, 124
1, 317375, Note_off_c, 3, 64, 64
1, 317376, Note_off_c, 2, 67, 64
1, 317376, Note_off_c, 1, 79, 64
1, 317376, Note_on_c, 1, 81, 125
1, 317377, Note_on_c, 1, 81, 125
1, 317377, Note_on_c, 2, 69, 127
1, 317378, Note_on_c, 3, 66, 127
1, 317476, Note_off_c, 3, 66, 64
1, 317476, Note_on_c, 4, 62, 127
1, 317565, Note_off_c, 2, 69, 64
1, 317572, Note_off_c, 4, 62, 64
1, 317572, Note_on_c, 1, 83, 125
1, 317573, Note_on_c, 2, 71, 127
1, 317573, Note_on_c, 2, 67, 127
1, 317666, Note_off_c, 2, 67, 64
1, 317666, Note_on_c, 4, 62, 127
1, 317704, Note_off_c, 1, 81, 64
1, 317704, Note_off_c, 1, 81, 64
1, 317757, Note_off_c, 2, 71, 64
1, 317758, Note_off_c, 1, 83, 64
1, 317764, Note_off_c, 4, 62, 64
1, 317764, Note_on_c, 1, 85, 125
1, 317765, Note_on_c, 3, 73, 125
1, 317765, Note_on_c, 2, 67, 127
1, 317864, Note_off_c, 2, 67, 64
1, 317864, Note_on_c, 3, 64, 124
1, 317951, Note_off_c, 3, 73, 64
1, 317952, Note_off_c, 1, 85, 64
1, 317960, Note_off_c, 3, 64, 64
1, 317960, Note_on_c, 1, 86, 125
1, 317961, Note_on_c, 3, 74, 125
1, 317961, Note_on_c, 3, 66, 127
1, 318060, Note_off_c, 3, 66, 64
1, 318060, Note_on_c, 2, 69, 127
1, 318143, Note_off_c, 3, 74, 64
1, 318151, Note_off_c, 2, 69, 64
1, 318151, Note_on_c, 3, 74, 125
1, 318152, Note_on_c, 3, 66, 127
1, 318246, Note_off_c, 3, 74, 64
1, 318246, Note_off_c, 3, 66, 64
1, 318247, Note_on_c, 3, 73, 125
1, 318247, Note_on_c, 3, 64, 124
1, 318340, Note_off_c, 3, 64, 64
1, 318341, Note_off_c, 3, 73, 64
1, 318341, Note_on_c, 2, 71, 127
1, 318341, Note_on_c, 4, 62, 127
1, 318438, Note_off_c, 4, 62, 64
1, 318438, Note_off_c, 2, 71, 64
1, 318439, Note_on_c, 2, 69, 127
1, 318439, Note_on_c, 4, 61, 127
1, 318528, Note_off_c, 2, 69, 64
1, 318528, Note_off_c, 4, 38, 64
1, 318529, Note_off_c, 4, 50, 64
1, 318537, Note_off_c, 1, 86, 64
1, 318537, Note_off_c, 4, 61, 64
1, 318538, Note_on_c, 2, 69, 127
1, 318538, Note_on_c, 4, 59, 127
1, 318539, Note_on_c, 4, 52, 127
1, 318633, Note_on_c, 3, 64, 127
1, 318718, Note_off_c, 4, 52, 64
1, 318719, Note_off_c, 4, 59, 64
1, 318719, Note_off_c, 2, 69, 64
1, 318725, Note_off_c, 3, 64, 64
1, 318726, Note_on_c, 2, 69, 127
1, 318726, Note_on_c, 4, 61, 127
1, 318727, Note_on_c, 4, 49, 127
1, 318825, Note_off_c, 4, 61, 64
1, 318826, Note_on_c, 3, 64, 127
1, 318914, Note_off_c, 2, 69, 64
1, 318924, Note_off_c, 3, 64, 64
1, 318924, Note_off_c, 4, 49, 64
1, 318924, Note_on_c, 3, 73, 125
1, 318925, Note_on_c, 2, 69, 127
1, 318925, Note_on_c, 4, 45, 127
1, 319024, Note_on_c, 3, 64, 127
1, 319114, Note_off_c, 2, 69, 64
1, 319115, Note_off_c, 3, 73, 64
1, 319123, Note_off_c, 3, 64, 64
1, 319123, Note_off_c, 4, 45, 64
1, 319123, Note_on_c, 2, 71, 127
1, 319124, Note_on_c, 4, 52, 127
1, 319124, Note_on_c, 2, 69, 127
1, 319223, Note_on_c, 3, 64, 127
1, 319308, Note_off_c, 2, 71, 64
1, 319308, Note_off_c, 2, 69, 64
1, 319317, Note_off_c, 3, 64, 64
1, 319317, Note_on_c, 1, 86, 119
1, 319317, Note_on_c, 3, 74, 125
1, 319318, Note_on_c, 3, 66, 127
1, 319413, Note_off_c, 3, 66, 64
1, 319413, Note_off_c, 3, 74, 64
1, 319414, Note_off_c, 1, 86, 64
1, 319414, Note_on_c, 1, 85, 123
1, 319415, Note_on_c, 3, 73, 125
1, 319415, Note_on_c, 3, 64, 127
1, 319511, Note_off_c, 3, 64, 64
1, 319511, Note_off_c, 3, 73, 64
1, 319512, Note_off_c, 1, 85, 64
1, 319512, Note_on_c, 1, 83, 125
1, 319512, Note_on_c, 2, 71, 127
1, 319513, Note_on_c, 4, 62, 127
1, 319606, Note_off_c, 4, 62, 64
1, 319606, Note_off_c, 2, 71, 64
1, 319607, Note_off_c, 1, 83, 64
1, 319607, Note_on_c, 1, 81, 125
1, 319608, Note_on_c, 2, 69, 127
1, 319608, Note_on_c, 4, 61, 127
1, 319695, Note_off_c, 2, 69, 64
1, 319704, Note_off_c, 4, 61, 64
1, 319705, Note_off_c, 1, 81, 64
1, 319705, Note_on_c, 1, 87, 112
1, 319706, Note_on_c, 2, 69, 127
1, 319706, Note_on_c, 4, 59, 127
1, 319724, Note_on_c, 1, 88, 108
1, 319729, Note_off_c, 1, 87, 64
1, 319805, Note_on_c, 3, 64, 127
1, 319871, Note_off_c, 4, 59, 64
1, 319896, Note_off_c, 2, 69, 64
1, 319903, Note_off_c, 1, 88, 64
1, 319904, Note_off_c, 3, 64, 64
1, 319904, Note_on_c, 1, 87, 110
1, 319905, Note_on_c, 2, 69, 127
1, 319905, Note_on_c, 4, 61, 127
1, 319922, Note_on_c, 1, 88, 110
1, 319930, Note_off_c, 1, 87, 64
1, 320003, Note_off_c, 4, 61, 64
1, 320004, Note_on_c, 3, 64, 127
1, 320094, Note_off_c, 2, 69, 64
1, 320102, Note_off_c, 3, 64, 64
1, 320102, Note_off_c, 1, 88, 64
1, 320103, Note_on_c, 3, 73, 125
1, 320103, Note_on_c, 1, 87, 112
1, 320104, Note_on_c, 2, 69, 127
1, 320123, Note_on_c, 1, 88, 112
1, 320129, Note_off_c, 1, 87, 64
1, 320202, Note_on_c, 3, 64, 127
1, 320292, Note_off_c, 3, 73, 64
1, 320292, Note_off_c, 2, 69, 64
1, 320301, Note_off_c, 3, 64, 64
1, 320301, Note_off_c, 1, 88, 64
1, 320302, Note_on_c, 2, 71, 127
1, 320302, Note_on_c, 1, 87, 114
1, 320303, Note_on_c, 2, 69, 127
1, 320329, Note_off_c, 1, 87, 64
1, 320330, Note_on_c, 1, 88, 114
1, 320355, Note_off_c, 4, 52, 64
1, 320403, Note_on_c, 3, 64, 127
1, 320486, Note_off_c, 2, 71, 64
1, 320486, Note_off_c, 2, 69, 64
1, 320491, Note_off_c, 3, 64, 64
1, 320493, Note_on_c, 3, 64, 127
1, 320493, Note_on_c, 3, 73, 125
1, 320494, Note_on_c, 4, 45, 127
1, 320592, Note_off_c, 4, 45, 64
1, 320593, Note_off_c, 3, 73, 64
1, 320593, Note_on_c, 2, 71, 127
1, 320594, Note_on_c, 4, 44, 127
1, 320686, Note_off_c, 2, 71, 64
1, 320686, Note_off_c, 4, 44, 64
1, 320687, Note_on_c, 3, 73, 125
1, 320687, Note_on_c, 4, 45, 127
1, 320782, Note_off_c, 4, 45, 64
1, 320782, Note_off_c, 3, 73, 64
1, 320783, Note_on_c, 3, 74, 125
1, 320783, Note_on_c, 4, 47, 127
1, 320876, Note_off_c, 3, 64, 64
1, 320878, Note_off_c, 4, 47, 64
1, 320878, Note_off_c, 3, 74, 64
1, 320879, Note_on_c, 2, 76, 125
1, 320879, Note_on_c, 3, 64, 127
1, 320880, Note_on_c, 4, 49, 127
1, 320884, Note_off_c, 1, 88, 64
1, 320973, Note_off_c, 3, 64, 64
1, 320975, Note_on_c, 2, 69, 127
1, 321058, Note_off_c, 2, 76, 64
1, 321061, Note_off_c, 2, 69, 64
1, 321065, Note_on_c, 3, 73, 125
1, 321066, Note_on_c, 2, 69, 127
1, 321066, Note_on_c, 4, 52, 127
1, 321157, Note_off_c, 2, 69, 64
1, 321161, Note_on_c, 3, 64, 127
1, 321253, Note_off_c, 3, 73, 64
1, 321259, Note_off_c, 4, 49, 64
1, 321261, Note_off_c, 3, 64, 64
1, 321262, Note_off_c, 4, 52, 64
1, 321262, Note_on_c, 2, 71, 127
1, 321263, Note_on_c, 4, 40, 127
1, 321263, Note_on_c, 2, 69, 127
1, 321356, Note_off_c, 2, 69, 64
1, 321360, Note_on_c, 3, 64, 127
1, 321446, Note_off_c, 2, 71, 64
1, 321454, Note_off_c, 4, 40, 64
1, 321455, Note_off_c, 3, 64, 64
1, 321455, Note_on_c, 2, 69, 127
1, 321456, Note_on_c, 4, 45, 127
1, 321550, Note_off_c, 2, 69, 64
1, 321556, Note_on_c, 3, 64, 127
1, 321646, Note_off_c, 3, 64, 64
1, 321647, Note_on_c, 1, 85, 95
1, 321647, Note_on_c, 3, 73, 125
1, 321648, Note_on_c, 2, 69, 127
1, 321740, Note_off_c, 2, 69, 64
1, 321746, Note_off_c, 3, 73, 64
1, 321746, Note_off_c, 1, 85, 64
1, 321747, Note_on_c, 1, 83, 95
1, 321747, Note_on_c, 2, 71, 127
1, 321748, Note_on_c, 2, 69, 127
1, 321836, Note_off_c, 2, 69, 64
1, 321840, Note_off_c, 2, 71, 64
1, 321840, Note_off_c, 1, 83, 64
1, 321841, Note_on_c, 1, 85, 98
1, 321841, Note_on_c, 3, 73, 125
1, 321842, Note_on_c, 2, 69, 127
1, 321929, Note_off_c, 2, 69, 64
1, 321933, Note_off_c, 3, 73, 64
1, 321934, Note_off_c, 1, 85, 64
1, 321934, Note_on_c, 1, 86, 98
1, 321935, Note_on_c, 3, 74, 125
1, 321935, Note_on_c, 2, 71, 127
1, 322024, Note_off_c, 2, 71, 64
1, 322024, Note_off_c, 3, 74, 64
1, 322024, Note_off_c, 1, 86, 64
1, 322025, Note_on_c, 1, 88, 115
1, 322026, Note_on_c, 2, 76, 125
1, 322026, Note_on_c, 3, 73, 125
1, 322123, Note_off_c, 3, 73, 64
1, 322124, Note_on_c, 3, 64, 127
1, 322209, Note_off_c, 2, 76, 64
1, 322210, Note_off_c, 1, 88, 64
1, 322217, Note_off_c, 3, 64, 64
1, 322218, Note_on_c, 1, 85, 98
1, 322218, Note_on_c, 3, 73, 125
1, 322219, Note_on_c, 2, 69, 127
1, 322313, Note_off_c, 2, 69, 64
1, 322314, Note_on_c, 3, 64, 127
1, 322401, Note_off_c, 3, 73, 64
1, 322401, Note_off_c, 1, 85, 64
1, 322409, Note_off_c, 3, 64, 64
1, 322410, Note_on_c, 1, 83, 116
1, 322410, Note_on_c, 2, 71, 127
1, 322411, Note_on_c, 2, 69, 127
1, 322503, Note_off_c, 2, 69, 64
1, 322504, Note_on_c, 3, 64, 127
1, 322593, Note_off_c, 2, 71, 64
1, 322593, Note_off_c, 1, 83, 64
1, 322601, Note_off_c, 3, 64, 64
1, 322602, Note_on_c, 1, 81, 120
1, 322602, Note_on_c, 2, 69, 127
1, 322697, Note_off_c, 2, 69, 64
1, 322698, Note_on_c, 3, 64, 127
1, 322798, Note_off_c, 3, 64, 64
1, 322799, Note_on_c, 3, 66, 127
1, 322799, Note_on_c, 4, 59, 127
1, 322800, Note_on_c, 4, 50, 127
1, 322815, Note_off_c, 4, 45, 64
1, 322888, Note_off_c, 1, 81, 64
1, 322896, Note_on_c, 3, 74, 125
1, 322908, Note_off_c, 3, 66, 64
1, 322989, Note_off_c, 3, 74, 64
1, 322989, Note_off_c, 4, 50, 64
1, 322990, Note_off_c, 4, 59, 64
1, 322990, Note_on_c, 2, 71, 127
1, 322991, Note_on_c, 4, 62, 127
1, 322991, Note_on_c, 4, 52, 127
1, 323077, Note_off_c, 2, 71, 64
1, 323078, Note_on_c, 2, 69, 127
1, 323171, Note_off_c, 2, 69, 64
1, 323180, Note_off_c, 4, 52, 64
1, 323181, Note_off_c, 4, 62, 64
1, 323181, Note_on_c, 2, 69, 127
1, 323182, Note_on_c, 4, 61, 127
1, 323182, Note_on_c, 4, 57, 127
1, 323279, Note_off_c, 2, 69, 64
1, 323279, Note_on_c, 3, 64, 127
1, 323371, Note_off_c, 3, 64, 64
1, 323372, Note_off_c, 4, 57, 64
1, 323372, Note_off_c, 4, 61, 64
1, 323373, Note_on_c, 4, 59, 127
1, 323373, Note_on_c, 3, 66, 127
1, 323374, Note_on_c, 4, 50, 127
1, 323463, Note_off_c, 3, 66, 64
1, 323463, Note_on_c, 3, 74, 125
1, 323560, Note_off_c, 3, 74, 64
1, 323560, Note_off_c, 4, 50, 64
1, 323561, Note_off_c, 4, 59, 64
1, 323561, Note_on_c, 2, 71, 127
1, 323562, Note_on_c, 4, 62, 127
1, 323562, Note_on_c, 4, 52, 127
1, 323653, Note_off_c, 2, 71, 64
1, 323653, Note_on_c, 2, 69, 127
1, 323744, Note_off_c, 2, 69, 64
1, 323751, Note_off_c, 4, 52, 64
1, 323752, Note_off_c, 4, 62, 64
1, 323752, Note_on_c, 2, 69, 127
1, 323753, Note_on_c, 4, 61, 127
1, 323753, Note_on_c, 4, 57, 127
1, 323846, Note_off_c, 2, 69, 64
1, 323848, Note_on_c, 2, 69, 127
1, 323940, Note_off_c, 2, 69, 64
1, 323942, Note_on_c, 2, 69, 127
1, 324038, Note_off_c, 2, 69, 64
1, 324038, Note_on_c, 2, 71, 127
1, 324134, Note_off_c, 2, 71, 64
1, 324134, Note_on_c, 2, 67, 127
1, 324231, Note_off_c, 2, 67, 64
1, 324231, Note_on_c, 3, 64, 124
1, 324324, Note_off_c, 4, 57, 64
1, 324324, Note_off_c, 4, 61, 64
1, 324331, Note_off_c, 3, 64, 64
1, 324333, Note_on_c, 3, 66, 127
1, 324333, Note_on_c, 2, 69, 127
1, 324334, Note_on_c, 3, 66, 127
1, 324334, Note_on_c, 4, 50, 127
1, 324335, Note_on_c, 4, 38, 125
1, 324432, Note_on_c, 4, 57, 127
1, 324527, Note_off_c, 2, 69, 64
1, 324536, Note_off_c, 4, 57, 64
1, 324537, Note_on_c, 3, 66, 127
1, 324537, Note_on_c, 4, 62, 127
1, 324572, Note_off_c, 3, 66, 64
1, 324640, Note_off_c, 4, 62, 64
1, 324640, Note_on_c, 4, 57, 127
1, 324725, Note_off_c, 3, 66, 64
1, 324725, Note_off_c, 3, 66, 64
1, 324733, Note_off_c, 4, 57, 64
1, 324733, Note_on_c, 2, 67, 127
1, 324734, Note_on_c, 3, 64, 124
1, 324834, Note_off_c, 3, 64, 64
1, 324834, Note_on_c, 4, 57, 127
1, 324927, Note_off_c, 2, 67, 64
1, 324927, Note_off_c, 4, 38, 64
1, 324928, Note_off_c, 4, 50, 64
1, 324932, Note_on_c, 2, 69, 127
1, 324934, Note_off_c, 4, 57, 64
1, 324934, Note_on_c, 3, 66, 127
1, 324935, Note_on_c, 4, 38, 121
1, 324935, Note_on_c, 4, 50, 123
1, 325032, Note_on_c, 4, 57, 127
1, 325114, Note_off_c, 2, 69, 64
1, 325114, Note_off_c, 3, 66, 64
1, 325123, Note_off_c, 4, 57, 64
1, 325123, Note_on_c, 3, 66, 127
1, 325124, Note_on_c, 4, 62, 127
1, 325214, Note_off_c, 3, 66, 64
1, 325214, Note_off_c, 4, 62, 64
1, 325217, Note_on_c, 3, 64, 124
1, 325217, Note_on_c, 4, 61, 127
1, 325308, Note_off_c, 4, 61, 64
1, 325308, Note_off_c, 3, 64, 64
1, 325311, Note_on_c, 3, 66, 127
1, 325312, Note_on_c, 4, 62, 127
1, 325408, Note_off_c, 4, 62, 64
1, 325408, Note_off_c, 3, 66, 64
1, 325411, Note_on_c, 2, 67, 127
1, 325411, Note_on_c, 3, 64, 124
1, 325508, Note_off_c, 3, 64, 64
1, 325508, Note_off_c, 2, 67, 64
1, 325509, Note_on_c, 2, 69, 127
1, 325511, Note_on_c, 3, 66, 127
1, 325607, Note_on_c, 4, 62, 127
1, 325608, Note_off_c, 3, 66, 64
1, 325693, Note_off_c, 2, 69, 64
1, 325701, Note_off_c, 4, 62, 64
1, 325702, Note_on_c, 2, 71, 127
1, 325702, Note_on_c, 2, 67, 127
1, 325800, Note_off_c, 2, 67, 64
1, 325800, Note_on_c, 4, 62, 127
1, 325816, Note_off_c, 4, 50, 64
1, 325891, Note_off_c, 2, 71, 64
1, 325899, Note_off_c, 4, 62, 64
1, 325899, Note_on_c, 3, 73, 125
1, 325900, Note_on_c, 2, 67, 127
1, 325900, Note_on_c, 4, 57, 127
1, 325900, Note_on_c, 4, 45, 121
1, 325997, Note_off_c, 2, 67, 64
1, 325997, Note_on_c, 3, 64, 124
1, 326059, Note_off_c, 4, 38, 64
1, 326084, Note_off_c, 3, 73, 64
1, 326090, Note_off_c, 4, 45, 64
1, 326090, Note_off_c, 4, 57, 64
1, 326093, Note_off_c, 3, 64, 64
1, 326093, Note_on_c, 3, 74, 125
1, 326093, Note_on_c, 3, 66, 127
1, 326094, Note_on_c, 4, 50, 115
1, 326094, Note_on_c, 4, 38, 117
1, 326193, Note_off_c, 3, 66, 64
1, 326193, Note_on_c, 2, 69, 127
1, 326280, Note_off_c, 3, 74, 64
1, 326288, Note_off_c, 2, 69, 64
1, 326288, Note_on_c, 1, 78, 125
1, 326289, Note_on_c, 3, 66, 127
1, 326289, Note_on_c, 4, 62, 127
1, 326389, Note_off_c, 4, 62, 64
1, 326390, Note_off_c, 3, 66, 64
1, 326390, Note_off_c, 1, 78, 64
1, 326391, Note_on_c, 2, 76, 125
1, 326391, Note_on_c, 3, 64, 124
1, 326392, Note_on_c, 4, 61, 127
1, 326484, Note_off_c, 3, 64, 64
1, 326484, Note_off_c, 2, 76, 64
1, 326484, Note_off_c, 4, 61, 64
1, 326485, Note_on_c, 1, 78, 125
1, 326485, Note_on_c, 3, 66, 127
1, 326486, Note_on_c, 4, 62, 127
1, 326580, Note_off_c, 4, 62, 64
1, 326581, Note_off_c, 3, 66, 64
1, 326581, Note_off_c, 1, 78, 64
1, 326582, Note_on_c, 1, 79, 125
1, 326582, Note_on_c, 2, 67, 127
1, 326583, Note_on_c, 3, 64, 124
1, 326677, Note_off_c, 3, 64, 64
1, 326678, Note_off_c, 2, 67, 64
1, 326678, Note_off_c, 1, 79, 64
1, 326679, Note_on_c, 1, 81, 125
1, 326679, Note_on_c, 1, 81, 125
1, 326680, Note_on_c, 2, 69, 127
1, 326680, Note_on_c, 3, 66, 127
1, 326778, Note_off_c, 3, 66, 64
1, 326779, Note_on_c, 4, 62, 127
1, 326868, Note_off_c, 2, 69, 64
1, 326868, Note_off_c, 1, 81, 64
1, 326868, Note_off_c, 1, 81, 64
1, 326875, Note_off_c, 4, 62, 64
1, 326876, Note_on_c, 1, 83, 125
1, 326876, Note_on_c, 2, 71, 127
1, 326877, Note_on_c, 2, 67, 127
1, 326967, Note_off_c, 2, 67, 64
1, 326968, Note_on_c, 4, 62, 127
1, 327059, Note_off_c, 2, 71, 64
1, 327059, Note_off_c, 1, 83, 64
1, 327067, Note_off_c, 4, 62, 64
1, 327068, Note_on_c, 1, 85, 125
1, 327068, Note_on_c, 3, 73, 125
1, 327069, Note_on_c, 2, 67, 127
1, 327165, Note_off_c, 2, 67, 64
1, 327166, Note_on_c, 3, 64, 124
1, 327254, Note_off_c, 3, 73, 64
1, 327255, Note_off_c, 1, 85, 64
1, 327261, Note_off_c, 3, 64, 64
1, 327262, Note_on_c, 1, 86, 125
1, 327262, Note_on_c, 3, 74, 125
1, 327263, Note_on_c, 3, 66, 127
1, 327361, Note_off_c, 3, 66, 64
1, 327361, Note_on_c, 2, 69, 127
1, 327444, Note_off_c, 3, 74, 64
1, 327452, Note_off_c, 2, 69, 64
1, 327453, Note_on_c, 3, 74, 125
1, 327453, Note_on_c, 3, 66, 127
1, 327547, Note_off_c, 3, 66, 64
1, 327548, Note_off_c, 3, 74, 64
1, 327548, Note_on_c, 3, 73, 125
1, 327549, Note_on_c, 3, 64, 124
1, 327643, Note_off_c, 3, 64, 64
1, 327644, Note_off_c, 3, 73, 64
1, 327644, Note_on_c, 2, 71, 127
1, 327645, Note_on_c, 4, 62, 127
1, 327740, Note_off_c, 4, 62, 64
1, 327740, Note_off_c, 2, 71, 64
1, 327740, Note_on_c, 2, 69, 127
1, 327741, Note_on_c, 4, 61, 127
1, 327829, Note_off_c, 2, 69, 64
1, 327830, Note_off_c, 4, 38, 64
1, 327830, Note_off_c, 4, 50, 64
1, 327838, Note_off_c, 4, 61, 64
1, 327839, Note_off_c, 1, 86, 64
1, 327839, Note_on_c, 2, 69, 127
1, 327840, Note_on_c, 4, 59, 127
1, 327840, Note_on_c, 4, 52, 127
1, 327935, Note_on_c, 3, 64, 127
1, 328021, Note_off_c, 4, 52, 64
1, 328021, Note_off_c, 4, 59, 64
1, 328022, Note_off_c, 2, 69, 64
1, 328028, Note_off_c, 3, 64, 64
1, 328028, Note_on_c, 2, 69, 127
1, 328029, Note_on_c, 4, 61, 127
1, 328029, Note_on_c, 4, 49, 127
1, 328128, Note_off_c, 4, 61, 64
1, 328128, Note_on_c, 3, 64, 127
1, 328217, Note_off_c, 2, 69, 64
1, 328226, Note_off_c, 3, 64, 64
1, 328226, Note_off_c, 4, 49, 64
1, 328227, Note_on_c, 3, 73, 125
1, 328227, Note_on_c, 2, 69, 127
1, 328228, Note_on_c, 4, 45, 127
1, 328326, Note_on_c, 3, 64, 127
1, 328416, Note_off_c, 2, 69, 64
1, 328416, Note_off_c, 3, 73, 64
1, 328424, Note_off_c, 4, 45, 64
1, 328425, Note_off_c, 3, 64, 64
1, 328425, Note_on_c, 2, 71, 127
1, 328426, Note_on_c, 4, 52, 127
1, 328426, Note_on_c, 2, 69, 127
1, 328524, Note_on_c, 3, 64, 127
1, 328609, Note_off_c, 2, 69, 64
1, 328610, Note_off_c, 2, 71, 64
1, 328618, Note_off_c, 3, 64, 64
1, 328619, Note_on_c, 1, 86, 119
1, 328619, Note_on_c, 3, 74, 125
1, 328620, Note_on_c, 3, 66, 127
1, 328714, Note_off_c, 3, 66, 64
1, 328715, Note_off_c, 3, 74, 64
1, 328715, Note_off_c, 1, 86, 64
1, 328716, Note_on_c, 1, 85, 123
1, 328716, Note_on_c, 3, 73, 125
1, 328716, Note_on_c, 3, 64, 127
1, 328813, Note_off_c, 3, 64, 64
1, 328813, Note_off_c, 3, 73, 64
1, 328814, Note_off_c, 1, 85, 64
1, 328814, Note_on_c, 1, 83, 125
1, 328815, Note_on_c, 2, 71, 127
1, 328815, Note_on_c, 4, 62, 127
1, 328908, Note_off_c, 4, 62, 64
1, 328908, Note_off_c, 2, 71, 64
1, 328909, Note_off_c, 1, 83, 64
1, 328909, Note_on_c, 1, 81, 125
1, 328910, Note_on_c, 2, 69, 127
1, 328910, Note_on_c, 4, 61, 127
1, 328997, Note_off_c, 2, 69, 64
1, 329007, Note_off_c, 4, 61, 64
1, 329007, Note_off_c, 1, 81, 64
1, 329008, Note_on_c, 2, 69, 127
1, 329008, Note_on_c, 1, 87, 112
1, 329009, Note_on_c, 4, 59, 127
1, 329028, Note_on_c, 1, 88, 108
1, 329032, Note_off_c, 1, 87, 64
1, 329107, Note_on_c, 3, 64, 127
1, 329172, Note_off_c, 4, 59, 64
1, 329197, Note_off_c, 2, 69, 64
1, 329204, Note_off_c, 1, 88, 64
1, 329205, Note_off_c, 3, 64, 64
1, 329206, Note_on_c, 2, 69, 127
1, 329206, Note_on_c, 1, 87, 110
1, 329207, Note_on_c, 4, 61, 127
1, 329226, Note_on_c, 1, 88, 110
1, 329232, Note_off_c, 1, 87, 64
1, 329306, Note_off_c, 4, 61, 64
1, 329307, Note_on_c, 3, 64, 127
1, 329396, Note_off_c, 2, 69, 64
1, 329403, Note_off_c, 1, 88, 64
1, 329405, Note_off_c, 3, 64, 64
1, 329406, Note_on_c, 3, 73, 125
1, 329406, Note_on_c, 1, 87, 112
1, 329407, Note_on_c, 2, 69, 127
1, 329424, Note_on_c, 1, 88, 112
1, 329432, Note_off_c, 1, 87, 64
1, 329505, Note_on_c, 3, 64, 127
1, 329595, Note_off_c, 2, 69, 64
1, 329596, Note_off_c, 3, 73, 64
1, 329602, Note_off_c, 1, 88, 64
1, 329603, Note_off_c, 3, 64, 64
1, 329603, Note_on_c, 1, 87, 114
1, 329604, Note_on_c, 2, 71, 127
1, 329604, Note_on_c, 2, 69, 127
1, 329631, Note_off_c, 1, 87, 64
1, 329631, Note_on_c, 1, 88, 114
1, 329659, Note_off_c, 4, 52, 64
1, 329705, Note_on_c, 3, 64, 127
1, 329787, Note_off_c, 2, 69, 64
1, 329788, Note_off_c, 2, 71, 64
1, 329794, Note_off_c, 3, 64, 64
1, 329796, Note_on_c, 3, 64, 127
1, 329796, Note_on_c, 3, 73, 125
1, 329797, Note_on_c, 4, 45, 127
1, 329895, Note_off_c, 4, 45, 64
1, 329896, Note_off_c, 3, 73, 64
1, 329896, Note_on_c, 2, 71, 127
1, 329896, Note_on_c, 4, 44, 127
1, 329987, Note_off_c, 4, 44, 64
1, 329988, Note_off_c, 2, 71, 64
1, 329988, Note_on_c, 3, 73, 125
1, 329988, Note_on_c, 4, 45, 127
1, 330085, Note_off_c, 4, 45, 64
1, 330086, Note_off_c, 3, 73, 64
1, 330086, Note_on_c, 3, 74, 125
1, 330087, Note_on_c, 4, 47, 127
1, 330177, Note_off_c, 3, 64, 64
1, 330180, Note_off_c, 4, 47, 64
1, 330180, Note_off_c, 3, 74, 64
1, 330180, Note_on_c, 2, 76, 125
1, 330181, Note_on_c, 4, 49, 127
1, 330181, Note_on_c, 3, 64, 127
1, 330187, Note_off_c, 1, 88, 64
1, 330275, Note_off_c, 3, 64, 64
1, 330277, Note_on_c, 2, 69, 127
1, 330360, Note_off_c, 2, 76, 64
1, 330364, Note_off_c, 2, 69, 64
1, 330368, Note_on_c, 3, 73, 125
1, 330369, Note_on_c, 4, 52, 127
1, 330369, Note_on_c, 2, 69, 127
1, 330459, Note_off_c, 2, 69, 64
1, 330464, Note_on_c, 3, 64, 127
1, 330556, Note_off_c, 3, 73, 64
1, 330561, Note_off_c, 4, 49, 64
1, 330564, Note_off_c, 4, 52, 64
1, 330564, Note_off_c, 3, 64, 64
1, 330564, Note_on_c, 2, 71, 127
1, 330564, Note_on_c, 2, 69, 127
1, 330565, Note_on_c, 4, 40, 127
1, 330657, Note_off_c, 2, 69, 64
1, 330661, Note_on_c, 3, 64, 127
1, 330749, Note_off_c, 2, 71, 64
1, 330757, Note_off_c, 4, 40, 64
1, 330758, Note_off_c, 3, 64, 64
1, 330758, Note_on_c, 2, 69, 127
1, 330759, Note_on_c, 4, 45, 127
1, 330853, Note_off_c, 2, 69, 64
1, 330857, Note_on_c, 3, 64, 127
1, 330949, Note_off_c, 3, 64, 64
1, 330949, Note_on_c, 1, 85, 95
1, 330950, Note_on_c, 3, 73, 125
1, 330950, Note_on_c, 2, 69, 127
1, 331044, Note_off_c, 2, 69, 64
1, 331047, Note_off_c, 3, 73, 64
1, 331048, Note_off_c, 1, 85, 64
1, 331048, Note_on_c, 1, 83, 95
1, 331049, Note_on_c, 2, 71, 127
1, 331049, Note_on_c, 2, 69, 127
1, 331140, Note_off_c, 2, 69, 64
1, 331143, Note_off_c, 2, 71, 64
1, 331144, Note_off_c, 1, 83, 64
1, 331144, Note_on_c, 1, 85, 98
1, 331144, Note_on_c, 3, 73, 125
1, 331145, Note_on_c, 2, 69, 127
1, 331232, Note_off_c, 2, 69, 64
1, 331236, Note_off_c, 3, 73, 64
1, 331236, Note_off_c, 1, 85, 64
1, 331236, Note_on_c, 1, 86, 98
1, 331236, Note_on_c, 3, 74, 125
1, 331237, Note_on_c, 2, 71, 127
1, 331326, Note_off_c, 2, 71, 64
1, 331326, Note_off_c, 3, 74, 64
1, 331327, Note_off_c, 1, 86, 64
1, 331328, Note_on_c, 1, 88, 119
1, 331328, Note_on_c, 2, 76, 125
1, 331329, Note_on_c, 3, 73, 125
1, 331425, Note_off_c, 3, 73, 64
1, 331425, Note_on_c, 3, 64, 127
1, 331511, Note_off_c, 2, 76, 64
1, 331512, Note_off_c, 1, 88, 64
1, 331520, Note_off_c, 3, 64, 64
1, 331520, Note_on_c, 1, 85, 98
1, 331521, Note_on_c, 3, 73, 125
1, 331521, Note_on_c, 2, 69, 127
1, 331616, Note_off_c, 2, 69, 64
1, 331616, Note_on_c, 3, 64, 127
1, 331703, Note_off_c, 3, 73, 64
1, 331704, Note_off_c, 1, 85, 64
1, 331712, Note_off_c, 3, 64, 64
1, 331712, Note_on_c, 1, 83, 116
1, 331713, Note_on_c, 2, 71, 127
1, 331713, Note_on_c, 2, 69, 127
1, 331806, Note_off_c, 2, 69, 64
1, 331806, Note_on_c, 3, 64, 127
1, 331895, Note_off_c, 2, 71, 64
1, 331896, Note_off_c, 1, 83, 64
1, 331904, Note_off_c, 3, 64, 64
1, 331904, Note_on_c, 1, 81, 120
1, 331905, Note_on_c, 2, 69, 127
1, 332001, Note_off_c, 2, 69, 64
1, 332001, Note_on_c, 3, 64, 127
1, 332100, Note_off_c, 3, 64, 64
1, 332100, Note_on_c, 3, 66, 127
1, 332100, Note_on_c, 4, 59, 127
1, 332101, Note_on_c, 4, 50, 127
1, 332116, Note_off_c, 4, 45, 64
1, 332191, Note_off_c, 1, 81, 64
1, 332198, Note_on_c, 3, 74, 125
1, 332210, Note_off_c, 3, 66, 64
1, 332292, Note_off_c, 3, 74, 64
1, 332292, Note_off_c, 4, 59, 64
1, 332292, Note_off_c, 4, 50, 64
1, 332293, Note_on_c, 4, 62, 127
1, 332293, Note_on_c, 2, 71, 127
1, 332294, Note_on_c, 4, 52, 127
1, 332381, Note_off_c, 2, 71, 64
1, 332381, Note_on_c, 2, 69, 127
1, 332474, Note_off_c, 2, 69, 64
1, 332482, Note_off_c, 4, 62, 64
1, 332482, Note_off_c, 4, 52, 64
1, 332483, Note_on_c, 4, 61, 127
1, 332483, Note_on_c, 2, 69, 127
1, 332484, Note_on_c, 4, 57, 127
1, 332580, Note_off_c, 2, 69, 64
1, 332581, Note_on_c, 3, 64, 127
1, 332674, Note_off_c, 3, 64, 64
1, 332674, Note_off_c, 4, 57, 64
1, 332675, Note_off_c, 4, 61, 64
1, 332675, Note_on_c, 3, 66, 127
1, 332676, Note_on_c, 4, 59, 127
1, 332676, Note_on_c, 4, 50, 127
1, 332765, Note_off_c, 3, 66, 64
1, 332766, Note_on_c, 3, 74, 125
1, 332862, Note_off_c, 3, 74, 64
1, 332863, Note_off_c, 4, 50, 64
1, 332863, Note_off_c, 4, 59, 64
1, 332863, Note_on_c, 2, 71, 127
1, 332864, Note_on_c, 4, 62, 127
1, 332864, Note_on_c, 4, 52, 127
1, 332955, Note_off_c, 2, 71, 64
1, 332956, Note_on_c, 2, 69, 127
1, 333046, Note_off_c, 2, 69, 64
1, 333054, Note_off_c, 4, 52, 64
1, 333054, Note_off_c, 4, 62, 64
1, 333055, Note_on_c, 4, 61, 127
1, 333055, Note_on_c, 2, 69, 127
1, 333056, Note_on_c, 4, 57, 127
1, 333148, Note_off_c, 2, 69, 64
1, 333150, Note_on_c, 2, 69, 127
1, 333242, Note_off_c, 2, 69, 64
1, 333244, Note_on_c, 2, 69, 127
1, 333338, Note_off_c, 2, 69, 64
1, 333342, Note_on_c, 2, 71, 127
1, 333436, Note_off_c, 2, 71, 64
1, 333436, Note_on_c, 2, 67, 127
1, 333533, Note_off_c, 2, 67, 64
1, 333534, Note_on_c, 3, 64, 124
1, 333626, Note_off_c, 4, 57, 64
1, 333627, Note_off_c, 4, 61, 64
1, 333633, Note_off_c, 3, 64, 64
1, 333634, Note_on_c, 2, 69, 127
1, 333634, Note_on_c, 3, 66, 127
1, 333635, Note_on_c, 4, 47, 127
1, 333635, Note_on_c, 4, 35, 121
1, 333735, Note_off_c, 3, 66, 64
1, 333737, Note_on_c, 4, 59, 125
1, 333835, Note_off_c, 4, 59, 64
1, 333837, Note_off_c, 2, 69, 64
1, 333837, Note_on_c, 3, 66, 127
1, 333838, Note_on_c, 4, 63, 124
1, 333934, Note_off_c, 4, 63, 64
1, 333936, Note_on_c, 4, 59, 125
1, 334032, Note_off_c, 4, 59, 64
1, 334034, Note_off_c, 3, 66, 64
1, 334035, Note_on_c, 2, 67, 127
1, 334035, Note_on_c, 3, 64, 124
1, 334129, Note_off_c, 3, 64, 64
1, 334131, Note_on_c, 4, 59, 125
1, 334221, Note_off_c, 4, 35, 64
1, 334226, Note_off_c, 4, 59, 64
1, 334227, Note_on_c, 2, 69, 127
1, 334227, Note_on_c, 3, 66, 127
1, 334228, Note_off_c, 2, 67, 64
1, 334230, Note_on_c, 4, 35, 121
1, 334230, Note_on_c, 4, 47, 121
1, 334325, Note_off_c, 3, 66, 64
1, 334328, Note_on_c, 4, 59, 125
1, 334419, Note_off_c, 2, 69, 64
1, 334420, Note_off_c, 4, 59, 64
1, 334421, Note_on_c, 1, 84, 121
1, 334422, Note_on_c, 3, 66, 127
1, 334422, Note_on_c, 4, 63, 124
1, 334517, Note_off_c, 4, 63, 64
1, 334517, Note_off_c, 1, 84, 64
1, 334518, Note_on_c, 1, 83, 121
1, 334518, Note_on_c, 4, 59, 125
1, 334607, Note_off_c, 4, 59, 64
1, 334608, Note_off_c, 3, 66, 64
1, 334608, Note_off_c, 1, 83, 64
1, 334608, Note_on_c, 2, 67, 127
1, 334608, Note_on_c, 1, 81, 121
1, 334609, Note_on_c, 3, 64, 124
1, 334708, Note_off_c, 3, 64, 64
1, 334708, Note_off_c, 1, 81, 64
1, 334708, Note_on_c, 1, 79, 125
1, 334709, Note_on_c, 4, 59, 125
1, 334804, Note_off_c, 1, 79, 64
1, 334804, Note_off_c, 4, 59, 64
1, 334805, Note_off_c, 2, 67, 64
1, 334805, Note_on_c, 1, 78, 125
1, 334806, Note_on_c, 2, 69, 127
1, 334806, Note_on_c, 3, 66, 127
1, 334904, Note_off_c, 3, 66, 64
1, 334905, Note_on_c, 4, 59, 125
1, 334998, Note_off_c, 4, 59, 64
1, 334998, Note_off_c, 2, 69, 64
1, 334998, Note_off_c, 1, 78, 64
1, 334999, Note_on_c, 1, 81, 125
1, 334999, Note_on_c, 3, 66, 127
1, 335000, Note_on_c, 4, 63, 124
1, 335089, Note_off_c, 1, 81, 64
1, 335089, Note_off_c, 4, 63, 64
1, 335090, Note_on_c, 1, 79, 125
1, 335090, Note_on_c, 4, 59, 125
1, 335183, Note_off_c, 4, 59, 64
1, 335184, Note_off_c, 1, 79, 64
1, 335184, Note_off_c, 3, 66, 64
1, 335184, Note_on_c, 1, 78, 125
1, 335185, Note_on_c, 2, 67, 127
1, 335185, Note_on_c, 3, 64, 124
1, 335278, Note_off_c, 3, 64, 64
1, 335279, Note_off_c, 1, 78, 64
1, 335279, Note_on_c, 2, 76, 125
1, 335280, Note_on_c, 4, 59, 125
1, 335368, Note_off_c, 4, 59, 64
1, 335369, Note_off_c, 2, 76, 64
1, 335369, Note_off_c, 2, 67, 64
1, 335370, Note_on_c, 3, 75, 125
1, 335370, Note_on_c, 2, 69, 127
1, 335370, Note_on_c, 3, 66, 127
1, 335563, Note_off_c, 3, 66, 64
1, 335564, Note_off_c, 2, 69, 64
1, 335564, Note_off_c, 3, 75, 64
1, 335565, Note_on_c, 1, 83, 125
1, 335565, Note_on_c, 2, 71, 127
1, 335566, Note_on_c, 4, 59, 127
1, 335566, Note_on_c, 4, 47, 125
1, 335660, Note_off_c, 4, 47, 64
1, 335661, Note_off_c, 4, 59, 64
1, 335661, Note_off_c, 2, 71, 64
1, 335662, Note_off_c, 1, 83, 64
1, 335662, Note_on_c, 1, 81, 125
1, 335663, Note_on_c, 2, 69, 127
1, 335663, Note_on_c, 4, 57, 127
1, 335664, Note_on_c, 4, 45, 125
1, 335688, Note_off_c, 4, 47, 64
1, 335688, Note_off_c, 4, 47, 64
1, 335752, Note_off_c, 4, 45, 64
1, 335753, Note_off_c, 4, 57, 64
1, 335753, Note_off_c, 2, 69, 64
1, 335754, Note_off_c, 1, 81, 64
1, 335754, Note_on_c, 1, 79, 125
1, 335755, Note_on_c, 2, 67, 127
1, 335755, Note_on_c, 4, 55, 127
1, 335756, Note_on_c, 4, 43, 125
1, 335850, Note_off_c, 4, 43, 64
1, 335851, Note_off_c, 4, 55, 64
1, 335851, Note_off_c, 2, 67, 64
1, 335852, Note_off_c, 1, 79, 64
1, 335852, Note_on_c, 1, 78, 125
1, 335853, Note_on_c, 3, 66, 127
1, 335853, Note_on_c, 4, 54, 127
1, 335854, Note_on_c, 4, 42, 125
1, 335896, Note_off_c, 4, 35, 64
1, 335942, Note_off_c, 4, 42, 64
1, 335943, Note_off_c, 4, 54, 64
1, 335943, Note_off_c, 3, 66, 64
1, 335944, Note_off_c, 1, 78, 64
1, 335944, Note_on_c, 2, 76, 125
1, 335945, Note_on_c, 3, 64, 127
1, 335945, Note_on_c, 4, 52, 127
1, 335946, Note_on_c, 4, 40, 125
1, 336135, Note_off_c, 4, 40, 64
1, 336136, Note_off_c, 4, 52, 64
1, 336136, Note_off_c, 3, 64, 64
1, 336137, Note_off_c, 2, 76, 64
1, 336143, Note_on_c, 2, 76, 125
1, 336144, Note_on_c, 3, 64, 127
1, 336144, Note_on_c, 4, 52, 127
1, 336144, Note_on_c, 4, 40, 125
1, 336327, Note_off_c, 4, 40, 64
1, 336328, Note_off_c, 4, 52, 64
1, 336328, Note_off_c, 3, 64, 64
1, 336329, Note_off_c, 2, 76, 64
1, 336329, Note_on_c, 1, 83, 125
1, 336330, Note_on_c, 2, 71, 127
1, 336330, Note_on_c, 4, 59, 127
1, 336331, Note_on_c, 4, 47, 125
1, 336521, Note_off_c, 4, 47, 64
1, 336522, Note_off_c, 4, 59, 64
1, 336522, Note_off_c, 2, 71, 64
1, 336523, Note_off_c, 1, 83, 64
1, 336523, Note_on_c, 2, 76, 125
1, 336524, Note_on_c, 3, 64, 127
1, 336524, Note_on_c, 4, 52, 127
1, 336525, Note_on_c, 4, 40, 125
1, 336711, Note_off_c, 4, 40, 64
1, 336712, Note_off_c, 4, 52, 64
1, 336712, Note_off_c, 3, 64, 64
1, 336713, Note_off_c, 2, 76, 64
1, 336713, Note_on_c, 1, 83, 125
1, 336714, Note_on_c, 2, 71, 127
1, 336714, Note_on_c, 4, 59, 127
1, 336715, Note_on_c, 4, 47, 125
1, 336809, Note_off_c, 4, 47, 64
1, 336810, Note_off_c, 4, 59, 64
1, 336810, Note_off_c, 2, 71, 64
1, 336811, Note_off_c, 1, 83, 64
1, 336811, Note_on_c, 1, 81, 125
1, 336812, Note_on_c, 2, 69, 127
1, 336812, Note_on_c, 4, 57, 127
1, 336813, Note_on_c, 4, 45, 125
1, 336896, Note_off_c, 4, 45, 64
1, 336896, Note_off_c, 4, 57, 64
1, 336897, Note_off_c, 2, 69, 64
1, 336897, Note_off_c, 1, 81, 64
1, 336898, Note_on_c, 1, 79, 125
1, 336898, Note_on_c, 2, 67, 127
1, 336899, Note_on_c, 4, 55, 127
1, 336899, Note_on_c, 4, 43, 125
1, 336990, Note_off_c, 4, 43, 64
1, 336990, Note_off_c, 4, 55, 64
1, 336991, Note_off_c, 2, 67, 64
1, 336991, Note_off_c, 1, 79, 64
1, 336992, Note_on_c, 1, 78, 125
1, 336992, Note_on_c, 3, 66, 127
1, 336993, Note_on_c, 4, 54, 127
1, 336993, Note_on_c, 4, 42, 125
1, 337084, Note_off_c, 4, 42, 64
1, 337085, Note_off_c, 4, 54, 64
1, 337085, Note_off_c, 3, 66, 64
1, 337085, Note_off_c, 1, 78, 64
1, 337086, Note_on_c, 2, 76, 125
1, 337086, Note_on_c, 3, 64, 127
1, 337087, Note_on_c, 4, 52, 127
1, 337087, Note_on_c, 4, 40, 125
1, 337280, Note_off_c, 4, 40, 64
1, 337280, Note_off_c, 4, 52, 64
1, 337281, Note_off_c, 3, 64, 64
1, 337281, Note_off_c, 2, 76, 64
1, 337286, Note_on_c, 2, 76, 125
1, 337286, Note_on_c, 3, 64, 127
1, 337287, Note_on_c, 4, 52, 127
1, 337287, Note_on_c, 4, 40, 125
1, 337476, Note_off_c, 4, 40, 64
1, 337476, Note_off_c, 4, 52, 64
1, 337477, Note_off_c, 3, 64, 64
1, 337477, Note_off_c, 2, 76, 64
1, 337477, Note_on_c, 1, 83, 125
1, 337478, Note_on_c, 2, 71, 127
1, 337478, Note_on_c, 4, 59, 127
1, 337479, Note_on_c, 4, 47, 125
1, 337666, Note_off_c, 4, 47, 64
1, 337667, Note_off_c, 4, 59, 64
1, 337667, Note_off_c, 2, 71, 64
1, 337668, Note_off_c, 1, 83, 64
1, 337668, Note_on_c, 3, 64, 124
1, 337668, Note_on_c, 2, 76, 125
1, 337669, Note_on_c, 4, 40, 121
1, 337669, Note_on_c, 4, 52, 123
1, 337860, Note_off_c, 2, 76, 64
1, 337866, Note_on_c, 2, 76, 125
1, 337960, Note_off_c, 2, 76, 64
1, 337960, Note_on_c, 3, 74, 125
1, 338061, Note_off_c, 3, 74, 64
1, 338061, Note_on_c, 2, 76, 125
1, 338158, Note_off_c, 2, 76, 64
1, 338158, Note_on_c, 2, 77, 125
1, 338243, Note_off_c, 4, 52, 64
1, 338244, Note_off_c, 3, 64, 64
1, 338250, Note_off_c, 2, 77, 64
1, 338250, Note_on_c, 1, 79, 121
1, 338251, Note_on_c, 4, 60, 125
1, 338352, Note_off_c, 4, 60, 64
1, 338353, Note_on_c, 3, 64, 127
1, 338446, Note_off_c, 1, 79, 64
1, 338452, Note_off_c, 3, 64, 64
1, 338453, Note_on_c, 1, 79, 121
1, 338453, Note_on_c, 2, 67, 127
1, 338549, Note_off_c, 2, 67, 64
1, 338550, Note_on_c, 3, 64, 127
1, 338644, Note_off_c, 3, 64, 64
1, 338645, Note_on_c, 3, 65, 127
1, 338645, Note_on_c, 4, 59, 127
1, 338732, Note_off_c, 1, 79, 64
1, 338741, Note_off_c, 4, 59, 64
1, 338742, Note_off_c, 3, 65, 64
1, 338742, Note_on_c, 1, 79, 121
1, 338743, Note_on_c, 4, 62, 127
1, 338830, Note_off_c, 4, 62, 64
1, 338830, Note_off_c, 1, 79, 64
1, 338831, Note_on_c, 1, 84, 121
1, 338831, Note_on_c, 4, 60, 127
1, 338933, Note_off_c, 4, 60, 64
1, 338934, Note_on_c, 3, 64, 127
1, 339026, Note_off_c, 1, 84, 64
1, 339032, Note_off_c, 3, 64, 64
1, 339033, Note_on_c, 1, 79, 121
1, 339033, Note_on_c, 2, 67, 127
1, 339132, Note_off_c, 2, 67, 64
1, 339132, Note_on_c, 3, 64, 127
1, 339226, Note_off_c, 3, 64, 64
1, 339227, Note_on_c, 3, 65, 127
1, 339227, Note_on_c, 4, 59, 127
1, 339320, Note_off_c, 4, 59, 64
1, 339320, Note_off_c, 3, 65, 64
1, 339320, Note_on_c, 4, 62, 127
1, 339407, Note_off_c, 1, 79, 64
1, 339415, Note_off_c, 4, 62, 64
1, 339415, Note_on_c, 1, 79, 121
1, 339415, Note_on_c, 4, 60, 127
1, 339519, Note_off_c, 4, 60, 64
1, 339519, Note_on_c, 3, 64, 127
1, 339610, Note_off_c, 1, 79, 64
1, 339618, Note_off_c, 3, 64, 64
1, 339618, Note_on_c, 1, 79, 119
1, 339619, Note_on_c, 2, 67, 127
1, 339715, Note_off_c, 2, 67, 64
1, 339716, Note_on_c, 3, 64, 127
1, 339810, Note_off_c, 3, 64, 64
1, 339811, Note_on_c, 3, 65, 127
1, 339811, Note_on_c, 4, 59, 127
1, 339896, Note_off_c, 1, 79, 64
1, 339904, Note_off_c, 4, 59, 64
1, 339905, Note_off_c, 3, 65, 64
1, 339905, Note_on_c, 1, 79, 119
1, 339906, Note_on_c, 4, 62, 127
1, 339991, Note_off_c, 4, 62, 64
1, 339991, Note_off_c, 1, 79, 64
1, 339992, Note_on_c, 1, 84, 119
1, 339992, Note_on_c, 4, 60, 127
1, 340094, Note_off_c, 4, 60, 64
1, 340095, Note_on_c, 3, 64, 127
1, 340186, Note_off_c, 1, 84, 64
1, 340194, Note_off_c, 3, 64, 64
1, 340195, Note_on_c, 1, 79, 119
1, 340195, Note_on_c, 2, 67, 127
1, 340285, Note_off_c, 2, 67, 64
1, 340286, Note_on_c, 3, 64, 127
1, 340380, Note_off_c, 3, 64, 64
1, 340381, Note_on_c, 4, 60, 127
1, 340477, Note_off_c, 4, 60, 64
1, 340478, Note_on_c, 3, 64, 127
1, 340501, Note_off_c, 1, 79, 64
1, 340524, Note_on_c, 1, 79, 119
1, 340571, Note_off_c, 3, 64, 64
1, 340571, Note_off_c, 1, 79, 64
1, 340572, Note_on_c, 1, 88, 116
1, 340572, Note_on_c, 4, 58, 127
1, 340674, Note_off_c, 4, 58, 64
1, 340675, Note_on_c, 4, 60, 127
1, 340773, Note_off_c, 1, 88, 64
1, 340774, Note_off_c, 4, 60, 64
1, 340774, Note_on_c, 1, 79, 119
1, 340775, Note_on_c, 3, 64, 127
1, 340871, Note_off_c, 3, 64, 64
1, 340872, Note_on_c, 2, 67, 127
1, 340964, Note_off_c, 2, 67, 64
1, 340965, Note_on_c, 3, 64, 127
1, 341059, Note_off_c, 3, 64, 64
1, 341060, Note_on_c, 4, 60, 127
1, 341083, Note_off_c, 1, 79, 64
1, 341106, Note_on_c, 1, 79, 119
1, 341154, Note_off_c, 1, 79, 64
1, 341155, Note_off_c, 4, 60, 64
1, 341155, Note_on_c, 1, 88, 116
1, 341156, Note_on_c, 4, 57, 127
1, 341256, Note_off_c, 4, 57, 64
1, 341256, Note_on_c, 4, 61, 127
1, 341353, Note_off_c, 1, 88, 64
1, 341353, Note_off_c, 4, 61, 64
1, 341354, Note_on_c, 1, 79, 119
1, 341354, Note_on_c, 3, 64, 127
1, 341447, Note_off_c, 3, 64, 64
1, 341448, Note_on_c, 2, 67, 127
1, 341542, Note_off_c, 2, 67, 64
1, 341543, Note_on_c, 3, 64, 127
1, 341635, Note_off_c, 3, 64, 64
1, 341636, Note_on_c, 4, 61, 127
1, 341657, Note_off_c, 1, 79, 64
1, 341680, Note_on_c, 1, 79, 119
1, 341696, Note_off_c, 4, 40, 64
1, 341719, Note_off_c, 1, 79, 64
1, 341725, Note_off_c, 4, 61, 64
1, 341725, Note_on_c, 1, 79, 119
1, 341726, Note_on_c, 4, 62, 124
1, 341726, Note_on_c, 4, 57, 123
1, 341815, Note_off_c, 1, 79, 64
1, 341816, Note_on_c, 3, 77, 123
1, 341903, Note_off_c, 3, 77, 64
1, 341903, Note_on_c, 3, 76, 125
1, 342000, Note_off_c, 3, 76, 64
1, 342000, Note_on_c, 3, 77, 123
1, 342092, Note_off_c, 4, 57, 64
1, 342093, Note_off_c, 3, 77, 64
1, 342093, Note_off_c, 4, 62, 64
1, 342094, Note_on_c, 3, 76, 125
1, 342094, Note_on_c, 3, 64, 124
1, 342095, Note_on_c, 4, 56, 123
1, 342188, Note_off_c, 3, 64, 64
1, 342188, Note_off_c, 3, 76, 64
1, 342189, Note_on_c, 3, 74, 125
1, 342189, Note_on_c, 3, 65, 127
1, 342280, Note_off_c, 3, 65, 64
1, 342280, Note_off_c, 3, 74, 64
1, 342281, Note_off_c, 4, 56, 64
1, 342281, Note_on_c, 3, 73, 125
1, 342282, Note_on_c, 3, 64, 124
1, 342282, Note_on_c, 4, 57, 123
1, 342371, Note_off_c, 3, 73, 64
1, 342372, Note_on_c, 1, 80, 113
1, 342464, Note_off_c, 1, 80, 64
1, 342465, Note_on_c, 1, 81, 113
1, 342557, Note_off_c, 1, 81, 64
1, 342558, Note_on_c, 1, 80, 113
1, 342648, Note_off_c, 1, 80, 64
1, 342649, Note_on_c, 1, 81, 113
1, 342742, Note_off_c, 1, 81, 64
1, 342742, Note_on_c, 3, 76, 125
1, 342831, Note_off_c, 4, 57, 64
1, 342831, Note_off_c, 3, 64, 64
1, 342836, Note_off_c, 3, 76, 64
1, 342836, Note_on_c, 1, 79, 119
1, 342837, Note_on_c, 2, 69, 127
1, 342837, Note_on_c, 4, 62, 124
1, 342838, Note_on_c, 4, 58, 123
1, 342924, Note_off_c, 1, 79, 64
1, 342924, Note_on_c, 3, 77, 123
1, 343017, Note_off_c, 3, 77, 64
1, 343018, Note_on_c, 3, 76, 125
1, 343116, Note_off_c, 3, 76, 64
1, 343116, Note_on_c, 3, 77, 123
1, 343207, Note_off_c, 3, 77, 64
1, 343208, Note_on_c, 3, 76, 125
1, 343302, Note_off_c, 3, 76, 64
1, 343303, Note_on_c, 3, 74, 125
1, 343392, Note_off_c, 4, 62, 64
1, 343392, Note_off_c, 2, 69, 64
1, 343392, Note_off_c, 4, 58, 64
1, 343398, Note_off_c, 3, 74, 64
1, 343399, Note_on_c, 2, 69, 127
1, 343399, Note_on_c, 1, 81, 117
1, 343400, Note_on_c, 4, 61, 125
1, 343400, Note_on_c, 4, 57, 123
1, 343492, Note_off_c, 1, 81, 64
1, 343493, Note_on_c, 1, 80, 117
1, 343585, Note_off_c, 1, 80, 64
1, 343586, Note_on_c, 1, 81, 117
1, 343679, Note_off_c, 1, 81, 64
1, 343679, Note_on_c, 3, 76, 125
1, 343770, Note_off_c, 4, 57, 64
1, 343770, Note_off_c, 4, 61, 64
1, 343771, Note_off_c, 2, 69, 64
1, 343773, Note_off_c, 3, 76, 64
1, 343774, Note_on_c, 3, 65, 127
1, 343774, Note_on_c, 3, 77, 123
1, 343775, Note_on_c, 4, 62, 124
1, 343775, Note_on_c, 4, 57, 123
1, 343869, Note_off_c, 3, 77, 64
1, 343869, Note_on_c, 3, 74, 125
1, 343954, Note_off_c, 4, 57, 64
1, 343955, Note_off_c, 3, 65, 64
1, 343955, Note_off_c, 4, 62, 64
1, 343963, Note_off_c, 3, 74, 64
1, 343963, Note_on_c, 1, 81, 117
1, 343964, Note_on_c, 3, 64, 124
1, 343964, Note_on_c, 4, 61, 125
1, 343965, Note_on_c, 4, 57, 123
1, 344059, Note_off_c, 1, 81, 64
1, 344059, Note_on_c, 1, 80, 117
1, 344156, Note_off_c, 1, 80, 64
1, 344157, Note_on_c, 1, 81, 117
1, 344251, Note_off_c, 1, 81, 64
1, 344251, Note_on_c, 3, 76, 125
1, 344335, Note_off_c, 4, 57, 64
1, 344338, Note_off_c, 4, 61, 64
1, 344339, Note_off_c, 3, 64, 64
1, 344341, Note_off_c, 3, 76, 64
1, 344341, Note_on_c, 3, 77, 123
1, 344342, Note_on_c, 3, 65, 127
1, 344342, Note_on_c, 4, 62, 124
1, 344343, Note_on_c, 4, 57, 123
1, 344430, Note_off_c, 3, 77, 64
1, 344430, Note_on_c, 3, 74, 125
1, 344521, Note_off_c, 4, 62, 64
1, 344521, Note_off_c, 4, 57, 64
1, 344522, Note_off_c, 3, 65, 64
1, 344528, Note_off_c, 3, 74, 64
1, 344528, Note_on_c, 2, 69, 127
1, 344529, Note_on_c, 3, 64, 124
1, 344529, Note_on_c, 4, 61, 125
1, 344530, Note_on_c, 4, 57, 123
1, 344629, Note_off_c, 2, 69, 64
1, 344633, Note_on_c, 2, 69, 127
1, 344731, Note_off_c, 2, 69, 64
1, 344737, Note_on_c, 2, 69, 127
1, 344832, Note_off_c, 2, 69, 64
1, 344837, Note_on_c, 2, 69, 127
1, 344932, Note_off_c, 2, 69, 64
1, 344937, Note_on_c, 2, 69, 127
1, 345028, Note_off_c, 2, 69, 64
1, 345034, Note_on_c, 2, 69, 127
1, 345122, Note_off_c, 4, 61, 64
1, 345122, Note_off_c, 4, 57, 64
1, 345123, Note_off_c, 2, 69, 64
1, 345123, Note_off_c, 3, 64, 64
1, 345128, Note_on_c, 2, 69, 127
1, 345128, Note_on_c, 3, 66, 127
1, 345129, Note_on_c, 4, 50, 127
1, 345129, Note_on_c, 4, 38, 125
1, 345224, Note_off_c, 3, 66, 64
1, 345225, Note_on_c, 4, 57, 127
1, 345325, Note_off_c, 4, 57, 64
1, 345326, Note_off_c, 2, 69, 64
1, 345326, Note_on_c, 3, 66, 127
1, 345327, Note_on_c, 4, 62, 127
1, 345421, Note_off_c, 4, 62, 64
1, 345422, Note_on_c, 4, 57, 127
1, 345513, Note_off_c, 3, 66, 64
1, 345516, Note_off_c, 4, 57, 64
1, 345517, Note_on_c, 2, 67, 127
1, 345517, Note_on_c, 3, 64, 127
1, 345615, Note_off_c, 3, 64, 64
1, 345616, Note_on_c, 4, 57, 127
1, 345707, Note_off_c, 2, 67, 64
1, 345707, Note_off_c, 4, 38, 64
1, 345708, Note_off_c, 4, 50, 64
1, 345711, Note_off_c, 4, 57, 64
1, 345712, Note_on_c, 2, 69, 127
1, 345712, Note_on_c, 3, 66, 127
1, 345713, Note_on_c, 4, 50, 127
1, 345713, Note_on_c, 4, 38, 125
1, 345814, Note_off_c, 3, 66, 64
1, 345815, Note_on_c, 4, 62, 127
1, 345907, Note_off_c, 4, 62, 64
1, 345908, Note_off_c, 2, 69, 64
1, 345908, Note_on_c, 3, 74, 125
1, 345909, Note_on_c, 2, 71, 127
1, 345997, Note_off_c, 2, 71, 64
1, 345998, Note_off_c, 3, 74, 64
1, 345998, Note_on_c, 3, 73, 125
1, 345999, Note_on_c, 2, 69, 127
1, 346090, Note_off_c, 3, 73, 64
1, 346090, Note_off_c, 2, 69, 64
1, 346091, Note_on_c, 2, 71, 127
1, 346091, Note_on_c, 2, 67, 127
1, 346188, Note_off_c, 2, 67, 64
1, 346188, Note_off_c, 2, 71, 64
1, 346189, Note_on_c, 2, 69, 127
1, 346189, Note_on_c, 3, 66, 127
1, 346283, Note_off_c, 4, 38, 64
1, 346283, Note_off_c, 4, 50, 64
1, 346287, Note_off_c, 3, 66, 64
1, 346288, Note_off_c, 2, 69, 64
1, 346289, Note_on_c, 4, 47, 121
1, 346289, Note_on_c, 2, 67, 127
1, 346387, Note_on_c, 4, 62, 122
1, 346487, Note_off_c, 4, 62, 64
1, 346488, Note_off_c, 4, 47, 64
1, 346489, Note_on_c, 2, 69, 127
1, 346489, Note_on_c, 3, 66, 127
1, 346490, Note_on_c, 4, 45, 127
1, 346501, Note_off_c, 2, 67, 64
1, 346584, Note_off_c, 3, 66, 64
1, 346585, Note_on_c, 4, 62, 122
1, 346681, Note_off_c, 4, 62, 64
1, 346681, Note_off_c, 4, 45, 64
1, 346682, Note_off_c, 2, 69, 64
1, 346682, Note_on_c, 2, 71, 127
1, 346683, Note_on_c, 4, 43, 127
1, 346683, Note_on_c, 2, 67, 127
1, 346773, Note_off_c, 2, 67, 64
1, 346773, Note_on_c, 4, 62, 122
1, 346868, Note_off_c, 2, 71, 64
1, 346868, Note_off_c, 4, 43, 64
1, 346868, Note_off_c, 4, 62, 64
1, 346869, Note_on_c, 2, 69, 127
1, 346869, Note_on_c, 3, 66, 127
1, 346870, Note_on_c, 4, 50, 127
1, 346967, Note_off_c, 3, 66, 64
1, 346967, Note_on_c, 4, 62, 122
1, 347062, Note_off_c, 2, 69, 64
1, 347062, Note_off_c, 4, 62, 64
1, 347063, Note_on_c, 1, 86, 113
1, 347063, Note_on_c, 3, 74, 125
1, 347064, Note_on_c, 2, 71, 127
1, 347156, Note_off_c, 2, 71, 64
1, 347156, Note_off_c, 3, 74, 64
1, 347157, Note_off_c, 1, 86, 64
1, 347157, Note_on_c, 1, 85, 113
1, 347158, Note_on_c, 3, 73, 125
1, 347158, Note_on_c, 2, 69, 127
1, 347246, Note_off_c, 4, 50, 64
1, 347249, Note_off_c, 2, 69, 64
1, 347249, Note_off_c, 3, 73, 64
1, 347250, Note_off_c, 1, 85, 64
1, 347250, Note_on_c, 1, 83, 113
1, 347251, Note_on_c, 2, 71, 127
1, 347251, Note_on_c, 2, 67, 127
1, 347346, Note_off_c, 2, 67, 64
1, 347346, Note_off_c, 2, 71, 64
1, 347347, Note_off_c, 1, 83, 64
1, 347347, Note_on_c, 1, 81, 117
1, 347348, Note_on_c, 2, 69, 127
1, 347348, Note_on_c, 3, 66, 127
1, 347447, Note_off_c, 3, 66, 64
1, 347447, Note_off_c, 2, 69, 64
1, 347448, Note_off_c, 1, 81, 64
1, 347448, Note_on_c, 1, 79, 117
1, 347448, Note_on_c, 2, 67, 127
1, 347449, Note_on_c, 3, 64, 124
1, 347545, Note_off_c, 3, 64, 64
1, 347546, Note_on_c, 4, 62, 124
1, 347644, Note_off_c, 4, 62, 64
1, 347645, Note_off_c, 2, 67, 64
1, 347645, Note_off_c, 1, 79, 64
1, 347646, Note_on_c, 1, 81, 117
1, 347646, Note_on_c, 2, 69, 127
1, 347647, Note_on_c, 3, 66, 127
1, 347740, Note_off_c, 3, 66, 64
1, 347741, Note_on_c, 4, 62, 124
1, 347835, Note_off_c, 4, 62, 64
1, 347836, Note_off_c, 2, 69, 64
1, 347836, Note_off_c, 1, 81, 64
1, 347837, Note_on_c, 1, 83, 117
1, 347837, Note_on_c, 2, 71, 127
1, 347838, Note_on_c, 2, 67, 127
1, 347927, Note_off_c, 2, 67, 64
1, 347927, Note_on_c, 4, 62, 124
1, 348022, Note_off_c, 2, 71, 64
1, 348022, Note_off_c, 4, 62, 64
1, 348023, Note_off_c, 1, 83, 64
1, 348023, Note_on_c, 1, 81, 117
1, 348024, Note_on_c, 2, 69, 127
1, 348024, Note_on_c, 3, 66, 127
1, 348119, Note_off_c, 3, 66, 64
1, 348122, Note_on_c, 4, 62, 126
1, 348218, Note_off_c, 4, 62, 64
1, 348220, Note_off_c, 2, 69, 64
1, 348221, Note_on_c, 2, 71, 127
1, 348221, Note_on_c, 2, 67, 127
1, 348313, Note_off_c, 2, 67, 64
1, 348314, Note_off_c, 2, 71, 64
1, 348314, Note_on_c, 2, 69, 127
1, 348315, Note_on_c, 3, 66, 127
1, 348409, Note_off_c, 3, 66, 64
1, 348410, Note_off_c, 2, 69, 64
1, 348410, Note_on_c, 2, 67, 127
1, 348411, Note_on_c, 3, 64, 126
1, 348505, Note_off_c, 3, 64, 64
1, 348506, Note_off_c, 2, 67, 64
1, 348506, Note_on_c, 3, 66, 127
1, 348507, Note_on_c, 4, 62, 126
1, 348603, Note_off_c, 4, 62, 64
1, 348604, Note_off_c, 3, 66, 64
1, 348604, Note_on_c, 3, 64, 127
1, 348605, Note_on_c, 4, 45, 121
1, 348605, Note_on_c, 4, 61, 127
1, 348703, Note_off_c, 4, 61, 64
1, 348704, Note_on_c, 4, 57, 127
1, 348766, Note_off_c, 1, 81, 64
1, 348800, Note_off_c, 4, 57, 64
1, 348801, Note_off_c, 3, 64, 64
1, 348801, Note_off_c, 4, 45, 64
1, 348802, Note_on_c, 2, 69, 127
1, 348802, Note_on_c, 4, 62, 127
1, 348803, Note_on_c, 4, 42, 127
1, 348898, Note_off_c, 4, 62, 64
1, 348898, Note_on_c, 4, 57, 127
1, 348991, Note_off_c, 4, 57, 64
1, 348991, Note_off_c, 4, 42, 64
1, 348992, Note_off_c, 2, 69, 64
1, 348992, Note_on_c, 3, 66, 127
1, 348992, Note_on_c, 4, 62, 127
1, 348993, Note_on_c, 4, 38, 125
1, 349086, Note_off_c, 4, 62, 64
1, 349086, Note_on_c, 4, 57, 127
1, 349177, Note_off_c, 4, 57, 64
1, 349177, Note_off_c, 4, 38, 64
1, 349178, Note_off_c, 3, 66, 64
1, 349178, Note_on_c, 3, 64, 127
1, 349178, Note_on_c, 4, 61, 127
1, 349179, Note_on_c, 4, 45, 127
1, 349274, Note_off_c, 4, 61, 64
1, 349274, Note_on_c, 4, 57, 127
1, 349365, Note_off_c, 4, 57, 64
1, 349366, Note_off_c, 3, 64, 64
1, 349366, Note_on_c, 1, 83, 123
1, 349366, Note_on_c, 2, 71, 127
1, 349367, Note_on_c, 2, 67, 127
1, 349455, Note_off_c, 2, 67, 64
1, 349456, Note_off_c, 2, 71, 64
1, 349456, Note_off_c, 1, 83, 64
1, 349456, Note_on_c, 1, 81, 123
1, 349457, Note_on_c, 2, 69, 127
1, 349458, Note_on_c, 3, 66, 127
1, 349550, Note_off_c, 3, 66, 64
1, 349551, Note_off_c, 2, 69, 64
1, 349551, Note_off_c, 1, 81, 64
1, 349552, Note_on_c, 1, 79, 123
1, 349552, Note_on_c, 2, 67, 127
1, 349553, Note_on_c, 3, 64, 124
1, 349649, Note_off_c, 3, 64, 64
1, 349650, Note_off_c, 2, 67, 64
1, 349650, Note_off_c, 1, 79, 64
1, 349651, Note_on_c, 1, 78, 123
1, 349651, Note_on_c, 3, 66, 127
1, 349652, Note_on_c, 4, 62, 124
1, 349746, Note_off_c, 4, 62, 64
1, 349747, Note_off_c, 3, 66, 64
1, 349747, Note_off_c, 1, 78, 64
1, 349748, Note_on_c, 3, 64, 124
1, 349748, Note_on_c, 1, 80, 117
1, 349749, Note_on_c, 4, 61, 125
1, 349772, Note_on_c, 1, 81, 117
1, 349776, Note_off_c, 1, 80, 64
1, 349850, Note_off_c, 4, 61, 64
1, 349851, Note_on_c, 4, 57, 127
1, 349936, Note_off_c, 1, 81, 64
1, 349944, Note_off_c, 3, 64, 64
1, 349944, Note_off_c, 4, 57, 64
1, 349945, Note_on_c, 1, 80, 117
1, 349945, Note_on_c, 2, 69, 127
1, 349946, Note_on_c, 3, 66, 127
1, 349964, Note_on_c, 1, 81, 117
1, 349970, Note_off_c, 1, 80, 64
1, 350045, Note_off_c, 3, 66, 64
1, 350045, Note_on_c, 4, 57, 127
1, 350132, Note_off_c, 1, 81, 64
1, 350140, Note_off_c, 4, 57, 64
1, 350140, Note_off_c, 2, 69, 64
1, 350141, Note_on_c, 1, 80, 117
1, 350141, Note_on_c, 3, 66, 127
1, 350142, Note_on_c, 4, 62, 124
1, 350167, Note_off_c, 1, 80, 64
1, 350167, Note_on_c, 1, 81, 117
1, 350239, Note_off_c, 4, 62, 64
1, 350239, Note_on_c, 4, 57, 127
1, 350326, Note_off_c, 1, 81, 64
1, 350330, Note_on_c, 3, 64, 127
1, 350330, Note_on_c, 1, 80, 117
1, 350331, Note_off_c, 4, 57, 64
1, 350331, Note_on_c, 4, 61, 127
1, 350332, Note_off_c, 3, 66, 64
1, 350359, Note_off_c, 1, 80, 64
1, 350359, Note_on_c, 1, 81, 117
1, 350437, Note_off_c, 3, 64, 64
1, 350438, Note_on_c, 2, 69, 127
1, 350525, Note_off_c, 4, 61, 64
1, 350530, Note_off_c, 1, 81, 64
1, 350533, Note_off_c, 2, 69, 64
1, 350534, Note_on_c, 4, 62, 127
1, 350534, Note_on_c, 3, 74, 125
1, 350535, Note_on_c, 4, 59, 127
1, 350631, Note_off_c, 4, 59, 64
1, 350632, Note_off_c, 3, 74, 64
1, 350632, Note_on_c, 3, 73, 125
1, 350633, Note_on_c, 4, 58, 127
1, 350725, Note_off_c, 4, 58, 64
1, 350726, Note_off_c, 3, 73, 64
1, 350726, Note_on_c, 3, 74, 125
1, 350727, Note_on_c, 4, 59, 127
1, 350821, Note_off_c, 4, 59, 64
1, 350822, Note_off_c, 3, 74, 64
1, 350822, Note_on_c, 2, 71, 127
1, 350823, Note_on_c, 4, 55, 127
1, 350914, Note_off_c, 4, 62, 64
1, 350917, Note_off_c, 4, 55, 64
1, 350918, Note_off_c, 2, 71, 64
1, 350918, Note_on_c, 2, 69, 127
1, 350919, Note_on_c, 4, 62, 127
1, 350919, Note_on_c, 4, 54, 125
1, 351013, Note_off_c, 4, 62, 64
1, 351014, Note_on_c, 4, 57, 127
1, 351111, Note_off_c, 4, 57, 64
1, 351111, Note_off_c, 4, 54, 64
1, 351111, Note_off_c, 4, 45, 64
1, 351112, Note_off_c, 2, 69, 64
1, 351112, Note_on_c, 2, 67, 127
1, 351113, Note_on_c, 3, 64, 127
1, 351113, Note_on_c, 4, 52, 127
1, 351209, Note_off_c, 3, 64, 64
1, 351210, Note_on_c, 4, 59, 127
1, 351311, Note_off_c, 4, 59, 64
1, 351311, Note_off_c, 4, 52, 64
1, 351312, Note_off_c, 2, 67, 64
1, 351312, Note_on_c, 3, 64, 127
1, 351312, Note_on_c, 4, 61, 127
1, 351312, Note_on_c, 4, 45, 125
1, 351403, Note_off_c, 4, 61, 64
1, 351405, Note_on_c, 4, 57, 127
1, 351503, Note_off_c, 4, 57, 64
1, 351507, Note_off_c, 4, 45, 64
1, 351508, Note_off_c, 3, 64, 64
1, 351508, Note_on_c, 4, 62, 127
1, 351508, Note_on_c, 3, 66, 127
1, 351509, Note_on_c, 4, 50, 127
1, 351607, Note_off_c, 3, 66, 64
1, 351608, Note_on_c, 2, 69, 127
1, 351698, Note_off_c, 2, 69, 64
1, 351699, Note_on_c, 1, 86, 119
1, 351699, Note_on_c, 3, 74, 125
1, 351700, Note_on_c, 2, 71, 127
1, 351789, Note_off_c, 2, 71, 64
1, 351796, Note_off_c, 3, 74, 64
1, 351797, Note_off_c, 1, 86, 64
1, 351797, Note_on_c, 1, 85, 119
1, 351798, Note_on_c, 3, 73, 125
1, 351798, Note_on_c, 2, 71, 127
1, 351883, Note_off_c, 2, 71, 64
1, 351892, Note_off_c, 3, 73, 64
1, 351893, Note_off_c, 1, 85, 64
1, 351893, Note_on_c, 1, 86, 119
1, 351894, Note_on_c, 3, 74, 125
1, 351894, Note_on_c, 2, 71, 127
1, 351982, Note_off_c, 2, 71, 64
1, 351989, Note_off_c, 3, 74, 64
1, 351990, Note_off_c, 1, 86, 64
1, 351990, Note_off_c, 4, 62, 64
1, 351991, Note_on_c, 1, 83, 119
1, 351991, Note_on_c, 2, 71, 127
1, 351992, Note_on_c, 2, 67, 127
1, 352079, Note_off_c, 2, 71, 64
1, 352086, Note_off_c, 2, 67, 64
1, 352087, Note_off_c, 1, 83, 64
1, 352087, Note_on_c, 1, 81, 119
1, 352088, Note_on_c, 2, 69, 127
1, 352088, Note_on_c, 3, 66, 127
1, 352177, Note_off_c, 3, 66, 64
1, 352178, Note_on_c, 4, 62, 124
1, 352274, Note_off_c, 4, 62, 64
1, 352275, Note_off_c, 2, 69, 64
1, 352275, Note_off_c, 1, 81, 64
1, 352276, Note_on_c, 1, 79, 125
1, 352276, Note_on_c, 2, 67, 127
1, 352277, Note_on_c, 3, 64, 124
1, 352369, Note_off_c, 3, 64, 64
1, 352370, Note_on_c, 4, 59, 127
1, 352466, Note_off_c, 4, 59, 64
1, 352467, Note_off_c, 2, 67, 64
1, 352467, Note_off_c, 1, 79, 64
1, 352468, Note_on_c, 2, 76, 125
1, 352468, Note_on_c, 3, 64, 124
1, 352469, Note_on_c, 4, 61, 125
1, 352563, Note_off_c, 4, 61, 64
1, 352564, Note_on_c, 4, 57, 127
1, 352658, Note_off_c, 4, 57, 64
1, 352659, Note_off_c, 3, 64, 64
1, 352659, Note_off_c, 2, 76, 64
1, 352660, Note_on_c, 1, 78, 125
1, 352661, Note_on_c, 4, 62, 127
1, 352661, Note_on_c, 3, 66, 127
1, 352755, Note_on_c, 2, 69, 127
1, 352756, Note_off_c, 3, 66, 64
1, 352756, Note_on_c, 4, 59, 127
1, 352787, Note_off_c, 4, 50, 64
1, 352841, Note_off_c, 2, 69, 64
1, 352848, Note_on_c, 2, 69, 127
1, 352849, Note_on_c, 4, 43, 125
1, 352945, Note_off_c, 2, 69, 64
1, 352946, Note_on_c, 2, 67, 127
1, 353039, Note_off_c, 2, 67, 64
1, 353039, Note_off_c, 4, 43, 64
1, 353040, Note_off_c, 4, 59, 64
1, 353040, Note_on_c, 3, 64, 127
1, 353040, Note_on_c, 4, 55, 127
1, 353041, Note_off_c, 4, 62, 64
1, 353041, Note_on_c, 4, 45, 125
1, 353134, Note_off_c, 3, 64, 64
1, 353134, Note_on_c, 4, 61, 127
1, 353225, Note_off_c, 4, 61, 64
1, 353226, Note_off_c, 4, 45, 64
1, 353226, Note_off_c, 4, 55, 64
1, 353226, Note_on_c, 4, 54, 127
1, 353227, Note_on_c, 4, 62, 127
1, 353227, Note_on_c, 4, 50, 127
1, 353326, Note_on_c, 3, 66, 127
1, 353328, Note_off_c, 4, 62, 64
1, 353420, Note_off_c, 3, 66, 64
1, 353420, Note_on_c, 2, 69, 127
1, 353421, Note_on_c, 4, 59, 127
1, 353421, Note_on_c, 4, 43, 125
1, 353422, Note_off_c, 4, 54, 64
1, 353422, Note_off_c, 4, 50, 64
1, 353512, Note_off_c, 2, 69, 64
1, 353512, Note_on_c, 2, 67, 127
1, 353605, Note_off_c, 2, 67, 64
1, 353606, Note_off_c, 4, 43, 64
1, 353606, Note_off_c, 4, 59, 64
1, 353606, Note_on_c, 3, 64, 127
1, 353607, Note_on_c, 4, 55, 127
1, 353607, Note_on_c, 4, 45, 125
1, 353697, Note_off_c, 3, 64, 64
1, 353697, Note_on_c, 4, 61, 127
1, 353755, Note_off_c, 1, 78, 64
1, 353791, Note_off_c, 4, 61, 64
1, 353792, Note_off_c, 4, 45, 64
1, 353792, Note_off_c, 4, 55, 64
1, 353793, Note_on_c, 4, 54, 127
1, 353793, Note_on_c, 4, 62, 124
1, 353794, Note_on_c, 4, 50, 127
1, 353885, Note_off_c, 4, 62, 64
1, 353885, Note_on_c, 4, 61, 125
1, 353978, Note_off_c, 4, 61, 64
1, 353978, Note_on_c, 4, 62, 124
1, 354067, Note_off_c, 4, 62, 64
1, 354068, Note_on_c, 3, 64, 124
1, 354164, Note_off_c, 3, 64, 64
1, 354165, Note_on_c, 3, 66, 127
1, 354261, Note_off_c, 3, 66, 64
1, 354262, Note_on_c, 2, 67, 127
1, 354352, Note_off_c, 4, 54, 64
1, 354352, Note_off_c, 4, 50, 64
1, 354357, Note_off_c, 2, 67, 64
1, 354358, Note_on_c, 2, 69, 127
1, 354358, Note_on_c, 3, 66, 127
1, 354359, Note_on_c, 4, 47, 127
1, 354359, Note_on_c, 4, 35, 121
1, 354459, Note_off_c, 3, 66, 64
1, 354461, Note_on_c, 4, 59, 125
1, 354559, Note_off_c, 4, 59, 64
1, 354561, Note_off_c, 2, 69, 64
1, 354561, Note_on_c, 3, 66, 127
1, 354562, Note_on_c, 4, 63, 124
1, 354658, Note_off_c, 4, 63, 64
1, 354660, Note_on_c, 4, 59, 125
1, 354756, Note_off_c, 4, 59, 64
1, 354759, Note_off_c, 3, 66, 64
1, 354760, Note_on_c, 2, 67, 127
1, 354760, Note_on_c, 3, 64, 124
1, 354852, Note_off_c, 3, 64, 64
1, 354856, Note_on_c, 4, 59, 125
1, 354945, Note_off_c, 4, 35, 64
1, 354950, Note_off_c, 4, 59, 64
1, 354952, Note_off_c, 2, 67, 64
1, 354953, Note_on_c, 2, 69, 127
1, 354953, Note_on_c, 3, 66, 127
1, 354954, Note_on_c, 4, 35, 121
1, 354954, Note_on_c, 4, 47, 121
1, 355051, Note_off_c, 3, 66, 64
1, 355052, Note_on_c, 4, 59, 125
1, 355144, Note_off_c, 4, 59, 64
1, 355145, Note_off_c, 2, 69, 64
1, 355145, Note_on_c, 1, 84, 121
1, 355146, Note_on_c, 3, 66, 127
1, 355146, Note_on_c, 4, 63, 124
1, 355241, Note_off_c, 4, 63, 64
1, 355242, Note_off_c, 1, 84, 64
1, 355242, Note_on_c, 1, 83, 121
1, 355243, Note_on_c, 4, 59, 125
1, 355332, Note_off_c, 4, 59, 64
1, 355332, Note_off_c, 1, 83, 64
1, 355332, Note_off_c, 3, 66, 64
1, 355333, Note_on_c, 2, 67, 127
1, 355333, Note_on_c, 1, 81, 121
1, 355334, Note_on_c, 3, 64, 124
1, 355430, Note_off_c, 3, 64, 64
1, 355430, Note_off_c, 1, 81, 64
1, 355431, Note_on_c, 1, 79, 125
1, 355431, Note_on_c, 4, 59, 125
1, 355528, Note_off_c, 2, 67, 64
1, 355528, Note_off_c, 4, 59, 64
1, 355528, Note_off_c, 1, 79, 64
1, 355529, Note_on_c, 1, 78, 125
1, 355529, Note_on_c, 2, 69, 127
1, 355530, Note_on_c, 3, 66, 127
1, 355628, Note_off_c, 3, 66, 64
1, 355629, Note_on_c, 4, 59, 125
1, 355721, Note_off_c, 4, 59, 64
1, 355722, Note_off_c, 2, 69, 64
1, 355722, Note_off_c, 1, 78, 64
1, 355723, Note_on_c, 1, 81, 125
1, 355723, Note_on_c, 3, 66, 127
1, 355724, Note_on_c, 4, 63, 124
1, 355812, Note_off_c, 4, 63, 64
1, 355813, Note_off_c, 1, 81, 64
1, 355813, Note_on_c, 1, 79, 125
1, 355814, Note_on_c, 4, 59, 125
1, 355907, Note_off_c, 4, 59, 64
1, 355908, Note_off_c, 1, 79, 64
1, 355908, Note_off_c, 3, 66, 64
1, 355908, Note_on_c, 1, 78, 125
1, 355908, Note_on_c, 2, 67, 127
1, 355909, Note_on_c, 3, 64, 124
1, 356002, Note_off_c, 1, 78, 64
1, 356002, Note_off_c, 3, 64, 64
1, 356003, Note_on_c, 2, 76, 125
1, 356003, Note_on_c, 4, 59, 125
1, 356092, Note_off_c, 4, 59, 64
1, 356093, Note_off_c, 2, 76, 64
1, 356093, Note_off_c, 2, 67, 64
1, 356094, Note_on_c, 3, 75, 125
1, 356094, Note_on_c, 2, 69, 127
1, 356094, Note_on_c, 3, 66, 127
1, 356256, Note_off_c, 4, 47, 64
1, 356256, Note_off_c, 4, 47, 64
1, 356287, Note_off_c, 3, 66, 64
1, 356288, Note_off_c, 2, 69, 64
1, 356288, Note_off_c, 3, 75, 64
1, 356288, Note_on_c, 1, 83, 125
1, 356289, Note_on_c, 2, 71, 127
1, 356289, Note_on_c, 4, 59, 127
1, 356290, Note_on_c, 4, 47, 125
1, 356384, Note_off_c, 4, 47, 64
1, 356385, Note_off_c, 4, 59, 64
1, 356385, Note_off_c, 2, 71, 64
1, 356386, Note_off_c, 1, 83, 64
1, 356386, Note_on_c, 1, 81, 125
1, 356387, Note_on_c, 2, 69, 127
1, 356387, Note_on_c, 4, 57, 127
1, 356387, Note_on_c, 4, 45, 125
1, 356476, Note_off_c, 4, 45, 64
1, 356477, Note_off_c, 4, 57, 64
1, 356477, Note_off_c, 2, 69, 64
1, 356478, Note_off_c, 1, 81, 64
1, 356478, Note_on_c, 1, 79, 125
1, 356479, Note_on_c, 2, 67, 127
1, 356479, Note_on_c, 4, 55, 127
1, 356480, Note_on_c, 4, 43, 125
1, 356574, Note_off_c, 4, 43, 64
1, 356575, Note_off_c, 4, 55, 64
1, 356575, Note_off_c, 2, 67, 64
1, 356576, Note_off_c, 1, 79, 64
1, 356576, Note_on_c, 1, 78, 125
1, 356576, Note_on_c, 3, 66, 127
1, 356577, Note_on_c, 4, 54, 127
1, 356577, Note_on_c, 4, 42, 125
1, 356620, Note_off_c, 4, 35, 64
1, 356666, Note_off_c, 4, 42, 64
1, 356667, Note_off_c, 3, 66, 64
1, 356667, Note_off_c, 4, 54, 64
1, 356668, Note_off_c, 1, 78, 64
1, 356668, Note_on_c, 2, 76, 125
1, 356669, Note_on_c, 3, 64, 124
1, 356669, Note_on_c, 4, 52, 127
1, 356670, Note_on_c, 4, 40, 125
1, 356858, Note_off_c, 4, 40, 64
1, 356859, Note_off_c, 4, 52, 64
1, 356859, Note_off_c, 3, 64, 64
1, 356860, Note_off_c, 2, 76, 64
1, 356868, Note_on_c, 2, 76, 125
1, 356868, Note_on_c, 3, 64, 124
1, 356869, Note_on_c, 4, 52, 127
1, 356869, Note_on_c, 4, 40, 125
1, 357052, Note_off_c, 4, 40, 64
1, 357053, Note_off_c, 3, 64, 64
1, 357053, Note_off_c, 4, 52, 64
1, 357054, Note_off_c, 2, 76, 64
1, 357054, Note_on_c, 1, 83, 125
1, 357055, Note_on_c, 2, 71, 127
1, 357055, Note_on_c, 4, 59, 127
1, 357056, Note_on_c, 4, 47, 125
1, 357244, Note_off_c, 4, 47, 64
1, 357245, Note_off_c, 4, 59, 64
1, 357245, Note_off_c, 2, 71, 64
1, 357246, Note_off_c, 1, 83, 64
1, 357246, Note_on_c, 2, 76, 125
1, 357247, Note_on_c, 3, 64, 124
1, 357247, Note_on_c, 4, 52, 127
1, 357248, Note_on_c, 4, 40, 125
1, 357435, Note_off_c, 4, 52, 64
1, 357435, Note_off_c, 4, 40, 64
1, 357436, Note_off_c, 2, 76, 64
1, 357436, Note_off_c, 3, 64, 64
1, 357436, Note_on_c, 1, 83, 125
1, 357437, Note_on_c, 2, 71, 127
1, 357437, Note_on_c, 4, 59, 127
1, 357438, Note_on_c, 4, 47, 125
1, 357532, Note_off_c, 4, 47, 64
1, 357533, Note_off_c, 4, 59, 64
1, 357533, Note_off_c, 2, 71, 64
1, 357534, Note_off_c, 1, 83, 64
1, 357534, Note_on_c, 1, 81, 125
1, 357535, Note_on_c, 2, 69, 127
1, 357535, Note_on_c, 4, 57, 127
1, 357536, Note_on_c, 4, 45, 125
1, 357619, Note_off_c, 4, 45, 64
1, 357620, Note_off_c, 4, 57, 64
1, 357620, Note_off_c, 2, 69, 64
1, 357621, Note_off_c, 1, 81, 64
1, 357621, Note_on_c, 1, 79, 125
1, 357621, Note_on_c, 2, 67, 127
1, 357622, Note_on_c, 4, 55, 127
1, 357622, Note_on_c, 4, 43, 125
1, 357715, Note_off_c, 4, 43, 64
1, 357715, Note_off_c, 4, 55, 64
1, 357716, Note_off_c, 2, 67, 64
1, 357716, Note_off_c, 1, 79, 64
1, 357717, Note_on_c, 1, 78, 125
1, 357717, Note_on_c, 3, 66, 127
1, 357718, Note_on_c, 4, 54, 127
1, 357718, Note_on_c, 4, 42, 125
1, 357809, Note_off_c, 4, 42, 64
1, 357809, Note_off_c, 4, 54, 64
1, 357810, Note_off_c, 3, 66, 64
1, 357810, Note_off_c, 1, 78, 64
1, 357811, Note_on_c, 2, 76, 125
1, 357811, Note_on_c, 3, 64, 124
1, 357812, Note_on_c, 4, 52, 127
1, 357812, Note_on_c, 4, 40, 125
1, 358003, Note_off_c, 4, 40, 64
1, 358003, Note_off_c, 4, 52, 64
1, 358004, Note_off_c, 3, 64, 64
1, 358004, Note_off_c, 2, 76, 64
1, 358009, Note_on_c, 2, 76, 125
1, 358009, Note_on_c, 3, 64, 124
1, 358009, Note_on_c, 4, 52, 127
1, 358010, Note_on_c, 4, 40, 125
1, 358199, Note_off_c, 4, 40, 64
1, 358200, Note_off_c, 4, 52, 64
1, 358200, Note_off_c, 3, 64, 64
1, 358200, Note_off_c, 2, 76, 64
1, 358201, Note_on_c, 1, 83, 125
1, 358201, Note_on_c, 2, 71, 127
1, 358202, Note_on_c, 4, 59, 127
1, 358202, Note_on_c, 4, 47, 125
1, 358391, Note_off_c, 4, 47, 64
1, 358392, Note_off_c, 2, 71, 64
1, 358392, Note_off_c, 1, 83, 64
1, 358392, Note_off_c, 4, 59, 64
1, 358392, Note_on_c, 2, 76, 125
1, 358393, Note_on_c, 3, 64, 124
1, 358393, Note_on_c, 4, 52, 123
1, 358394, Note_on_c, 4, 40, 121
1, 358584, Note_off_c, 2, 76, 64
1, 358591, Note_on_c, 2, 76, 125
1, 358685, Note_off_c, 2, 76, 64
1, 358685, Note_on_c, 3, 74, 125
1, 358786, Note_off_c, 3, 74, 64
1, 358786, Note_on_c, 2, 76, 125
1, 358881, Note_off_c, 2, 76, 64
1, 358881, Note_on_c, 2, 77, 125
1, 358968, Note_off_c, 4, 52, 64
1, 358968, Note_off_c, 3, 64, 64
1, 358975, Note_off_c, 2, 77, 64
1, 358975, Note_on_c, 1, 79, 123
1, 358976, Note_on_c, 4, 60, 125
1, 359077, Note_off_c, 4, 60, 64
1, 359078, Note_on_c, 3, 64, 127
1, 359169, Note_off_c, 1, 79, 64
1, 359178, Note_off_c, 3, 64, 64
1, 359179, Note_on_c, 1, 79, 123
1, 359179, Note_on_c, 2, 67, 127
1, 359273, Note_off_c, 2, 67, 64
1, 359274, Note_on_c, 3, 64, 127
1, 359368, Note_off_c, 3, 64, 64
1, 359369, Note_on_c, 3, 65, 127
1, 359369, Note_on_c, 4, 59, 127
1, 359456, Note_off_c, 1, 79, 64
1, 359466, Note_off_c, 4, 59, 64
1, 359466, Note_off_c, 3, 65, 64
1, 359466, Note_on_c, 1, 79, 123
1, 359467, Note_on_c, 4, 62, 127
1, 359554, Note_off_c, 1, 79, 64
1, 359554, Note_off_c, 4, 62, 64
1, 359555, Note_on_c, 1, 84, 123
1, 359555, Note_on_c, 4, 60, 127
1, 359657, Note_off_c, 4, 60, 64
1, 359658, Note_on_c, 3, 64, 127
1, 359752, Note_off_c, 1, 84, 64
1, 359758, Note_off_c, 3, 64, 64
1, 359759, Note_on_c, 1, 79, 123
1, 359759, Note_on_c, 2, 67, 127
1, 359855, Note_off_c, 2, 67, 64
1, 359856, Note_on_c, 3, 64, 127
1, 359950, Note_off_c, 3, 64, 64
1, 359951, Note_on_c, 3, 65, 127
1, 359951, Note_on_c, 4, 59, 127
1, 360043, Note_off_c, 4, 59, 64
1, 360044, Note_off_c, 3, 65, 64
1, 360044, Note_on_c, 4, 62, 127
1, 360131, Note_off_c, 1, 79, 64
1, 360138, Note_off_c, 4, 62, 64
1, 360139, Note_on_c, 1, 79, 123
1, 360139, Note_on_c, 4, 60, 127
1, 360243, Note_off_c, 4, 60, 64
1, 360243, Note_on_c, 3, 64, 127
1, 360334, Note_off_c, 1, 79, 64
1, 360342, Note_off_c, 3, 64, 64
1, 360342, Note_on_c, 1, 79, 123
1, 360343, Note_on_c, 2, 67, 127
1, 360439, Note_off_c, 2, 67, 64
1, 360439, Note_on_c, 3, 64, 127
1, 360534, Note_off_c, 3, 64, 64
1, 360534, Note_on_c, 3, 65, 127
1, 360535, Note_on_c, 4, 59, 127
1, 360620, Note_off_c, 1, 79, 64
1, 360627, Note_off_c, 4, 59, 64
1, 360627, Note_off_c, 3, 65, 64
1, 360628, Note_on_c, 1, 79, 123
1, 360628, Note_on_c, 4, 62, 127
1, 360715, Note_off_c, 4, 62, 64
1, 360716, Note_off_c, 1, 79, 64
1, 360716, Note_on_c, 1, 84, 123
1, 360717, Note_on_c, 4, 60, 127
1, 360817, Note_off_c, 4, 60, 64
1, 360818, Note_on_c, 3, 64, 127
1, 360911, Note_off_c, 1, 84, 64
1, 360918, Note_off_c, 3, 64, 64
1, 360919, Note_on_c, 1, 79, 119
1, 360919, Note_on_c, 2, 67, 127
1, 361009, Note_off_c, 2, 67, 64
1, 361010, Note_on_c, 3, 64, 127
1, 361104, Note_off_c, 3, 64, 64
1, 361104, Note_on_c, 4, 60, 127
1, 361201, Note_off_c, 4, 60, 64
1, 361202, Note_on_c, 3, 64, 127
1, 361225, Note_off_c, 1, 79, 64
1, 361248, Note_on_c, 1, 79, 119
1, 361295, Note_off_c, 1, 79, 64
1, 361295, Note_off_c, 3, 64, 64
1, 361296, Note_on_c, 1, 88, 116
1, 361296, Note_on_c, 4, 58, 127
1, 361398, Note_off_c, 4, 58, 64
1, 361399, Note_on_c, 4, 60, 127
1, 361497, Note_off_c, 1, 88, 64
1, 361499, Note_off_c, 4, 60, 64
1, 361500, Note_on_c, 1, 79, 119
1, 361500, Note_on_c, 3, 64, 127
1, 361596, Note_off_c, 3, 64, 64
1, 361596, Note_on_c, 2, 67, 127
1, 361689, Note_off_c, 2, 67, 64
1, 361690, Note_on_c, 3, 64, 127
1, 361784, Note_off_c, 3, 64, 64
1, 361785, Note_on_c, 4, 60, 127
1, 361806, Note_off_c, 1, 79, 64
1, 361831, Note_on_c, 1, 79, 119
1, 361877, Note_off_c, 1, 79, 64
1, 361878, Note_off_c, 4, 60, 64
1, 361878, Note_on_c, 1, 88, 116
1, 361879, Note_on_c, 4, 57, 127
1, 361981, Note_off_c, 4, 57, 64
1, 361981, Note_on_c, 4, 61, 127
1, 362078, Note_off_c, 4, 61, 64
1, 362078, Note_off_c, 1, 88, 64
1, 362079, Note_on_c, 1, 79, 119
1, 362079, Note_on_c, 3, 64, 127
1, 362170, Note_off_c, 3, 64, 64
1, 362171, Note_on_c, 2, 67, 127
1, 362267, Note_off_c, 2, 67, 64
1, 362268, Note_on_c, 3, 64, 127
1, 362358, Note_off_c, 3, 64, 64
1, 362359, Note_on_c, 4, 61, 127
1, 362382, Note_off_c, 1, 79, 64
1, 362405, Note_on_c, 1, 79, 119
1, 362421, Note_off_c, 4, 40, 64
1, 362442, Note_off_c, 1, 79, 64
1, 362449, Note_off_c, 4, 61, 64
1, 362450, Note_on_c, 4, 62, 124
1, 362450, Note_on_c, 1, 79, 119
1, 362451, Note_on_c, 4, 57, 123
1, 362540, Note_off_c, 1, 79, 64
1, 362540, Note_on_c, 3, 77, 123
1, 362626, Note_off_c, 3, 77, 64
1, 362626, Note_on_c, 3, 76, 123
1, 362724, Note_off_c, 3, 76, 64
1, 362724, Note_on_c, 3, 77, 123
1, 362815, Note_off_c, 4, 57, 64
1, 362816, Note_off_c, 4, 62, 64
1, 362818, Note_off_c, 3, 77, 64
1, 362819, Note_on_c, 3, 76, 123
1, 362819, Note_on_c, 3, 64, 124
1, 362820, Note_on_c, 4, 56, 123
1, 362913, Note_off_c, 3, 64, 64
1, 362913, Note_off_c, 3, 76, 64
1, 362913, Note_on_c, 3, 74, 125
1, 362914, Note_on_c, 3, 65, 127
1, 363005, Note_off_c, 3, 65, 64
1, 363005, Note_off_c, 3, 74, 64
1, 363006, Note_off_c, 4, 56, 64
1, 363006, Note_on_c, 3, 64, 124
1, 363006, Note_on_c, 3, 73, 125
1, 363007, Note_on_c, 4, 57, 123
1, 363096, Note_off_c, 3, 73, 64
1, 363096, Note_on_c, 1, 80, 111
1, 363188, Note_off_c, 1, 80, 64
1, 363189, Note_on_c, 1, 81, 111
1, 363281, Note_off_c, 1, 81, 64
1, 363282, Note_on_c, 1, 80, 111
1, 363372, Note_off_c, 1, 80, 64
1, 363373, Note_on_c, 1, 81, 111
1, 363466, Note_off_c, 1, 81, 64
1, 363466, Note_on_c, 3, 76, 123
1, 363554, Note_off_c, 4, 57, 64
1, 363555, Note_off_c, 3, 64, 64
1, 363560, Note_off_c, 3, 76, 64
1, 363560, Note_on_c, 1, 79, 115
1, 363561, Note_on_c, 2, 69, 127
1, 363561, Note_on_c, 4, 62, 124
1, 363562, Note_on_c, 4, 58, 123
1, 363650, Note_off_c, 1, 79, 64
1, 363650, Note_on_c, 3, 77, 123
1, 363743, Note_off_c, 3, 77, 64
1, 363744, Note_on_c, 3, 76, 123
1, 363840, Note_off_c, 3, 76, 64
1, 363840, Note_on_c, 3, 77, 123
1, 363933, Note_off_c, 3, 77, 64
1, 363934, Note_on_c, 3, 76, 123
1, 364026, Note_off_c, 3, 76, 64
1, 364027, Note_on_c, 3, 74, 125
1, 364116, Note_off_c, 4, 62, 64
1, 364116, Note_off_c, 2, 69, 64
1, 364116, Note_off_c, 4, 58, 64
1, 364122, Note_off_c, 3, 74, 64
1, 364123, Note_on_c, 2, 69, 127
1, 364123, Note_on_c, 1, 81, 115
1, 364124, Note_on_c, 4, 61, 125
1, 364124, Note_on_c, 4, 57, 123
1, 364216, Note_off_c, 1, 81, 64
1, 364217, Note_on_c, 1, 80, 115
1, 364309, Note_off_c, 1, 80, 64
1, 364310, Note_on_c, 1, 81, 115
1, 364404, Note_off_c, 1, 81, 64
1, 364405, Note_on_c, 3, 76, 123
1, 364494, Note_off_c, 4, 57, 64
1, 364494, Note_off_c, 4, 61, 64
1, 364495, Note_off_c, 2, 69, 64
1, 364497, Note_off_c, 3, 76, 64
1, 364497, Note_on_c, 3, 77, 123
1, 364498, Note_on_c, 3, 65, 127
1, 364498, Note_on_c, 4, 62, 124
1, 364499, Note_on_c, 4, 57, 123
1, 364593, Note_off_c, 3, 77, 64
1, 364593, Note_on_c, 3, 74, 125
1, 364678, Note_off_c, 4, 57, 64
1, 364679, Note_off_c, 4, 62, 64
1, 364679, Note_off_c, 3, 65, 64
1, 364687, Note_off_c, 3, 74, 64
1, 364688, Note_on_c, 3, 64, 124
1, 364688, Note_on_c, 4, 61, 125
1, 364688, Note_on_c, 1, 81, 115
1, 364689, Note_on_c, 4, 57, 123
1, 364784, Note_off_c, 1, 81, 64
1, 364784, Note_on_c, 1, 80, 115
1, 364879, Note_off_c, 1, 80, 64
1, 364879, Note_on_c, 1, 81, 115
1, 364974, Note_off_c, 1, 81, 64
1, 364974, Note_on_c, 3, 76, 123
1, 365057, Note_off_c, 4, 57, 64
1, 365063, Note_off_c, 4, 61, 64
1, 365064, Note_off_c, 3, 64, 64
1, 365066, Note_off_c, 3, 76, 64
1, 365066, Note_on_c, 3, 77, 123
1, 365067, Note_on_c, 3, 65, 127
1, 365067, Note_on_c, 4, 62, 124
1, 365068, Note_on_c, 4, 57, 123
1, 365154, Note_off_c, 3, 77, 64
1, 365155, Note_on_c, 3, 74, 125
1, 365244, Note_off_c, 4, 57, 64
1, 365244, Note_off_c, 4, 62, 64
1, 365244, Note_off_c, 3, 65, 64
1, 365253, Note_off_c, 3, 74, 64
1, 365253, Note_on_c, 3, 64, 124
1, 365253, Note_on_c, 2, 69, 127
1, 365254, Note_on_c, 4, 61, 125
1, 365254, Note_on_c, 4, 57, 123
1, 365352, Note_off_c, 2, 69, 64
1, 365358, Note_on_c, 2, 69, 127
1, 365456, Note_off_c, 2, 69, 64
1, 365460, Note_on_c, 2, 69, 127
1, 365556, Note_off_c, 2, 69, 64
1, 365561, Note_on_c, 2, 69, 127
1, 365655, Note_off_c, 2, 69, 64
1, 365662, Note_on_c, 2, 69, 127
1, 365751, Note_off_c, 2, 69, 64
1, 365758, Note_on_c, 2, 69, 127
1, 365845, Note_off_c, 4, 57, 64
1, 365846, Note_off_c, 3, 64, 64
1, 365846, Note_off_c, 4, 61, 64
1, 365847, Note_off_c, 2, 69, 64
1, 365852, Note_on_c, 2, 69, 127
1, 365852, Note_on_c, 3, 66, 127
1, 365853, Note_on_c, 4, 50, 127
1, 365853, Note_on_c, 4, 38, 125
1, 365950, Note_off_c, 3, 66, 64
1, 365950, Note_on_c, 4, 57, 127
1, 366050, Note_off_c, 2, 69, 64
1, 366050, Note_off_c, 4, 57, 64
1, 366051, Note_on_c, 3, 66, 127
1, 366052, Note_on_c, 4, 62, 127
1, 366146, Note_off_c, 4, 62, 64
1, 366147, Note_on_c, 4, 57, 127
1, 366236, Note_off_c, 3, 66, 64
1, 366241, Note_off_c, 4, 57, 64
1, 366242, Note_on_c, 2, 67, 127
1, 366242, Note_on_c, 3, 64, 127
1, 366339, Note_off_c, 3, 64, 64
1, 366340, Note_on_c, 4, 57, 127
1, 366431, Note_off_c, 2, 67, 64
1, 366431, Note_off_c, 4, 38, 64
1, 366432, Note_off_c, 4, 50, 64
1, 366435, Note_off_c, 4, 57, 64
1, 366436, Note_on_c, 2, 69, 127
1, 366436, Note_on_c, 3, 66, 127
1, 366437, Note_on_c, 4, 50, 127
1, 366437, Note_on_c, 4, 38, 125
1, 366537, Note_off_c, 3, 66, 64
1, 366538, Note_on_c, 4, 62, 127
1, 366632, Note_off_c, 4, 62, 64
1, 366633, Note_off_c, 2, 69, 64
1, 366633, Note_on_c, 3, 74, 125
1, 366634, Note_on_c, 2, 71, 127
1, 366722, Note_off_c, 2, 71, 64
1, 366723, Note_off_c, 3, 74, 64
1, 366723, Note_on_c, 3, 73, 125
1, 366724, Note_on_c, 2, 69, 127
1, 366815, Note_off_c, 2, 69, 64
1, 366815, Note_off_c, 3, 73, 64
1, 366816, Note_on_c, 2, 71, 127
1, 366816, Note_on_c, 2, 67, 127
1, 366912, Note_off_c, 2, 67, 64
1, 366913, Note_off_c, 2, 71, 64
1, 366913, Note_on_c, 2, 69, 127
1, 366914, Note_on_c, 3, 66, 127
1, 367007, Note_off_c, 4, 38, 64
1, 367007, Note_off_c, 4, 50, 64
1, 367011, Note_off_c, 3, 66, 64
1, 367012, Note_off_c, 2, 69, 64
1, 367012, Note_on_c, 2, 67, 127
1, 367013, Note_on_c, 4, 47, 121
1, 367111, Note_on_c, 4, 62, 122
1, 367211, Note_off_c, 4, 62, 64
1, 367212, Note_off_c, 2, 67, 64
1, 367212, Note_off_c, 4, 47, 64
1, 367212, Note_on_c, 2, 69, 127
1, 367213, Note_on_c, 3, 66, 127
1, 367213, Note_on_c, 4, 45, 127
1, 367308, Note_off_c, 3, 66, 64
1, 367308, Note_on_c, 4, 62, 122
1, 367405, Note_off_c, 4, 62, 64
1, 367405, Note_off_c, 4, 45, 64
1, 367406, Note_off_c, 2, 69, 64
1, 367406, Note_on_c, 2, 71, 127
1, 367407, Note_on_c, 2, 67, 127
1, 367407, Note_on_c, 4, 43, 127
1, 367496, Note_off_c, 2, 67, 64
1, 367497, Note_on_c, 4, 62, 122
1, 367591, Note_off_c, 4, 62, 64
1, 367592, Note_off_c, 2, 71, 64
1, 367592, Note_off_c, 4, 43, 64
1, 367593, Note_on_c, 2, 69, 127
1, 367593, Note_on_c, 3, 66, 127
1, 367594, Note_on_c, 4, 50, 127
1, 367690, Note_off_c, 3, 66, 64
1, 367691, Note_on_c, 4, 62, 122
1, 367785, Note_off_c, 4, 62, 64
1, 367786, Note_off_c, 2, 69, 64
1, 367786, Note_on_c, 1, 86, 103
1, 367787, Note_on_c, 3, 74, 125
1, 367787, Note_on_c, 2, 71, 127
1, 367879, Note_off_c, 2, 71, 64
1, 367879, Note_off_c, 3, 74, 64
1, 367880, Note_off_c, 1, 86, 64
1, 367880, Note_on_c, 1, 85, 103
1, 367881, Note_on_c, 3, 73, 125
1, 367881, Note_on_c, 2, 69, 127
1, 367971, Note_off_c, 4, 50, 64
1, 367974, Note_off_c, 1, 85, 64
1, 367974, Note_off_c, 2, 69, 64
1, 367974, Note_off_c, 3, 73, 64
1, 367975, Note_on_c, 1, 83, 103
1, 367975, Note_on_c, 2, 71, 127
1, 367976, Note_on_c, 2, 67, 127
1, 368071, Note_off_c, 2, 67, 64
1, 368071, Note_off_c, 2, 71, 64
1, 368072, Note_off_c, 1, 83, 64
1, 368072, Note_on_c, 1, 81, 115
1, 368072, Note_on_c, 2, 69, 127
1, 368073, Note_on_c, 3, 66, 127
1, 368172, Note_off_c, 2, 69, 64
1, 368172, Note_off_c, 1, 81, 64
1, 368172, Note_off_c, 3, 66, 64
1, 368173, Note_on_c, 1, 79, 115
1, 368173, Note_on_c, 2, 67, 127
1, 368174, Note_on_c, 3, 64, 124
1, 368268, Note_off_c, 3, 64, 64
1, 368269, Note_on_c, 4, 62, 124
1, 368369, Note_off_c, 4, 62, 64
1, 368370, Note_off_c, 2, 67, 64
1, 368370, Note_off_c, 1, 79, 64
1, 368371, Note_on_c, 1, 81, 115
1, 368371, Note_on_c, 2, 69, 127
1, 368372, Note_on_c, 3, 66, 127
1, 368464, Note_off_c, 3, 66, 64
1, 368465, Note_on_c, 4, 62, 124
1, 368559, Note_off_c, 4, 62, 64
1, 368560, Note_off_c, 2, 69, 64
1, 368560, Note_off_c, 1, 81, 64
1, 368561, Note_on_c, 1, 83, 107
1, 368561, Note_on_c, 2, 71, 127
1, 368562, Note_on_c, 2, 67, 127
1, 368651, Note_off_c, 2, 67, 64
1, 368651, Note_on_c, 4, 62, 124
1, 368746, Note_off_c, 4, 62, 64
1, 368746, Note_off_c, 2, 71, 64
1, 368747, Note_off_c, 1, 83, 64
1, 368747, Note_on_c, 1, 81, 115
1, 368748, Note_on_c, 2, 69, 127
1, 368748, Note_on_c, 3, 66, 127
1, 368844, Note_off_c, 3, 66, 64
1, 368846, Note_on_c, 4, 62, 126
1, 368942, Note_off_c, 4, 62, 64
1, 368944, Note_off_c, 2, 69, 64
1, 368945, Note_on_c, 2, 71, 127
1, 368945, Note_on_c, 2, 67, 127
1, 369037, Note_off_c, 2, 67, 64
1, 369038, Note_off_c, 2, 71, 64
1, 369038, Note_on_c, 2, 69, 127
1, 369039, Note_on_c, 3, 66, 127
1, 369133, Note_off_c, 3, 66, 64
1, 369134, Note_off_c, 2, 69, 64
1, 369134, Note_on_c, 2, 67, 127
1, 369135, Note_on_c, 3, 64, 126
1, 369229, Note_off_c, 3, 64, 64
1, 369230, Note_off_c, 2, 67, 64
1, 369230, Note_on_c, 3, 66, 127
1, 369231, Note_on_c, 4, 62, 126
1, 369327, Note_off_c, 4, 62, 64
1, 369328, Note_off_c, 3, 66, 64
1, 369328, Note_on_c, 3, 64, 127
1, 369329, Note_on_c, 4, 61, 127
1, 369329, Note_on_c, 4, 45, 121
1, 369426, Note_off_c, 4, 61, 64
1, 369427, Note_on_c, 4, 57, 127
1, 369491, Note_off_c, 1, 81, 64
1, 369523, Note_off_c, 4, 57, 64
1, 369524, Note_off_c, 3, 64, 64
1, 369524, Note_off_c, 4, 45, 64
1, 369525, Note_on_c, 2, 69, 127
1, 369525, Note_on_c, 4, 62, 127
1, 369526, Note_on_c, 4, 42, 127
1, 369622, Note_off_c, 4, 62, 64
1, 369623, Note_on_c, 4, 57, 127
1, 369715, Note_off_c, 4, 57, 64
1, 369716, Note_off_c, 2, 69, 64
1, 369716, Note_off_c, 4, 42, 64
1, 369717, Note_on_c, 3, 66, 127
1, 369717, Note_on_c, 4, 62, 127
1, 369718, Note_on_c, 4, 38, 125
1, 369808, Note_off_c, 4, 62, 64
1, 369809, Note_on_c, 4, 57, 127
1, 369900, Note_off_c, 4, 57, 64
1, 369900, Note_off_c, 4, 38, 64
1, 369901, Note_off_c, 3, 66, 64
1, 369901, Note_on_c, 3, 64, 127
1, 369902, Note_on_c, 4, 45, 127
1, 369902, Note_on_c, 4, 61, 127
1, 369997, Note_off_c, 4, 61, 64
1, 369997, Note_on_c, 4, 57, 127
1, 370088, Note_off_c, 3, 64, 64
1, 370088, Note_off_c, 4, 57, 64
1, 370089, Note_on_c, 1, 83, 115
1, 370089, Note_on_c, 2, 71, 127
1, 370090, Note_on_c, 2, 67, 127
1, 370178, Note_off_c, 2, 67, 64
1, 370179, Note_off_c, 2, 71, 64
1, 370179, Note_off_c, 1, 83, 64
1, 370179, Note_on_c, 1, 81, 119
1, 370180, Note_on_c, 2, 69, 127
1, 370180, Note_on_c, 3, 66, 127
1, 370275, Note_off_c, 3, 66, 64
1, 370276, Note_off_c, 2, 69, 64
1, 370276, Note_off_c, 1, 81, 64
1, 370276, Note_on_c, 1, 79, 121
1, 370277, Note_on_c, 2, 67, 127
1, 370277, Note_on_c, 3, 64, 124
1, 370372, Note_off_c, 3, 64, 64
1, 370373, Note_off_c, 1, 79, 64
1, 370373, Note_off_c, 2, 67, 64
1, 370373, Note_on_c, 1, 78, 121
1, 370374, Note_on_c, 3, 66, 127
1, 370374, Note_on_c, 4, 62, 124
1, 370471, Note_off_c, 4, 62, 64
1, 370472, Note_off_c, 3, 66, 64
1, 370472, Note_off_c, 1, 78, 64
1, 370473, Note_on_c, 3, 64, 124
1, 370473, Note_on_c, 4, 61, 125
1, 370473, Note_on_c, 1, 80, 115
1, 370497, Note_on_c, 1, 81, 115
1, 370499, Note_off_c, 1, 80, 64
1, 370574, Note_off_c, 4, 61, 64
1, 370574, Note_on_c, 4, 57, 127
1, 370661, Note_off_c, 1, 81, 64
1, 370668, Note_off_c, 4, 57, 64
1, 370669, Note_off_c, 3, 64, 64
1, 370669, Note_on_c, 1, 80, 115
1, 370670, Note_on_c, 2, 69, 127
1, 370670, Note_on_c, 3, 66, 127
1, 370688, Note_on_c, 1, 81, 115
1, 370693, Note_off_c, 1, 80, 64
1, 370770, Note_off_c, 3, 66, 64
1, 370771, Note_on_c, 4, 57, 127
1, 370856, Note_off_c, 1, 81, 64
1, 370864, Note_off_c, 4, 57, 64
1, 370864, Note_off_c, 2, 69, 64
1, 370865, Note_on_c, 3, 66, 127
1, 370865, Note_on_c, 1, 80, 115
1, 370866, Note_on_c, 4, 62, 124
1, 370890, Note_off_c, 1, 80, 64
1, 370891, Note_on_c, 1, 81, 115
1, 370963, Note_off_c, 4, 62, 64
1, 370963, Note_on_c, 4, 57, 127
1, 371050, Note_off_c, 1, 81, 64
1, 371054, Note_on_c, 1, 80, 115
1, 371054, Note_on_c, 3, 64, 127
1, 371055, Note_off_c, 4, 57, 64
1, 371055, Note_on_c, 4, 61, 127
1, 371056, Note_off_c, 3, 66, 64
1, 371083, Note_off_c, 1, 80, 64
1, 371083, Note_on_c, 1, 81, 115
1, 371161, Note_off_c, 3, 64, 64
1, 371162, Note_on_c, 2, 69, 127
1, 371249, Note_off_c, 4, 61, 64
1, 371253, Note_off_c, 1, 81, 64
1, 371256, Note_off_c, 2, 69, 64
1, 371257, Note_on_c, 4, 62, 127
1, 371257, Note_on_c, 3, 74, 125
1, 371258, Note_on_c, 4, 59, 127
1, 371354, Note_off_c, 4, 59, 64
1, 371355, Note_off_c, 3, 74, 64
1, 371355, Note_on_c, 3, 73, 125
1, 371356, Note_on_c, 4, 58, 127
1, 371448, Note_off_c, 4, 58, 64
1, 371449, Note_off_c, 3, 73, 64
1, 371449, Note_on_c, 3, 74, 125
1, 371450, Note_on_c, 4, 59, 127
1, 371545, Note_off_c, 3, 74, 64
1, 371545, Note_off_c, 4, 59, 64
1, 371546, Note_on_c, 2, 71, 127
1, 371546, Note_on_c, 4, 55, 127
1, 371639, Note_off_c, 4, 62, 64
1, 371640, Note_off_c, 4, 55, 64
1, 371641, Note_off_c, 2, 71, 64
1, 371641, Note_on_c, 2, 69, 127
1, 371642, Note_on_c, 4, 54, 125
1, 371642, Note_on_c, 4, 62, 127
1, 371737, Note_off_c, 4, 62, 64
1, 371738, Note_on_c, 4, 57, 127
1, 371835, Note_off_c, 4, 45, 64
1, 371835, Note_off_c, 4, 57, 64
1, 371836, Note_off_c, 2, 69, 64
1, 371836, Note_off_c, 4, 54, 64
1, 371837, Note_on_c, 2, 67, 127
1, 371837, Note_on_c, 3, 64, 127
1, 371838, Note_on_c, 4, 52, 127
1, 371932, Note_off_c, 3, 64, 64
1, 371933, Note_on_c, 4, 59, 127
1, 372033, Note_off_c, 4, 59, 64
1, 372034, Note_off_c, 2, 67, 64
1, 372034, Note_off_c, 4, 52, 64
1, 372035, Note_on_c, 3, 64, 127
1, 372035, Note_on_c, 4, 61, 127
1, 372036, Note_on_c, 4, 45, 125
1, 372126, Note_off_c, 4, 61, 64
1, 372128, Note_on_c, 4, 57, 127
1, 372228, Note_off_c, 4, 57, 64
1, 372230, Note_off_c, 4, 45, 64
1, 372231, Note_off_c, 3, 64, 64
1, 372231, Note_on_c, 3, 66, 127
1, 372232, Note_on_c, 4, 50, 127
1, 372232, Note_on_c, 4, 62, 127
1, 372331, Note_off_c, 3, 66, 64
1, 372331, Note_on_c, 2, 69, 127
1, 372422, Note_off_c, 2, 69, 64
1, 372422, Note_on_c, 1, 86, 115
1, 372423, Note_on_c, 3, 74, 125
1, 372423, Note_on_c, 2, 71, 127
1, 372512, Note_off_c, 2, 71, 64
1, 372520, Note_off_c, 3, 74, 64
1, 372521, Note_off_c, 1, 86, 64
1, 372521, Note_on_c, 1, 85, 115
1, 372522, Note_on_c, 3, 73, 125
1, 372522, Note_on_c, 2, 71, 127
1, 372608, Note_off_c, 2, 71, 64
1, 372615, Note_off_c, 3, 73, 64
1, 372616, Note_off_c, 1, 85, 64
1, 372616, Note_on_c, 1, 86, 115
1, 372616, Note_on_c, 3, 74, 125
1, 372617, Note_on_c, 2, 71, 127
1, 372706, Note_off_c, 2, 71, 64
1, 372713, Note_off_c, 3, 74, 64
1, 372714, Note_off_c, 1, 86, 64
1, 372714, Note_off_c, 4, 62, 64
1, 372714, Note_on_c, 1, 83, 121
1, 372715, Note_on_c, 2, 71, 127
1, 372715, Note_on_c, 2, 67, 127
1, 372803, Note_off_c, 2, 71, 64
1, 372810, Note_off_c, 2, 67, 64
1, 372811, Note_off_c, 1, 83, 64
1, 372811, Note_on_c, 1, 81, 117
1, 372812, Note_on_c, 2, 69, 127
1, 372812, Note_on_c, 3, 66, 127
1, 372903, Note_off_c, 3, 66, 64
1, 372904, Note_on_c, 4, 62, 124
1, 372998, Note_off_c, 4, 62, 64
1, 372999, Note_off_c, 1, 81, 64
1, 372999, Note_off_c, 2, 69, 64
1, 373000, Note_on_c, 1, 79, 117
1, 373000, Note_on_c, 2, 67, 127
1, 373000, Note_on_c, 3, 64, 124
1, 373093, Note_off_c, 3, 64, 64
1, 373094, Note_on_c, 4, 59, 127
1, 373190, Note_off_c, 4, 59, 64
1, 373191, Note_off_c, 2, 67, 64
1, 373191, Note_off_c, 1, 79, 64
1, 373192, Note_on_c, 2, 76, 119
1, 373192, Note_on_c, 3, 64, 124
1, 373193, Note_on_c, 4, 61, 125
1, 373287, Note_off_c, 4, 61, 64
1, 373288, Note_on_c, 4, 57, 127
1, 373384, Note_off_c, 4, 57, 64
1, 373385, Note_off_c, 3, 64, 64
1, 373385, Note_off_c, 2, 76, 64
1, 373386, Note_on_c, 1, 78, 119
1, 373386, Note_on_c, 4, 62, 127
1, 373387, Note_on_c, 3, 66, 127
1, 373479, Note_on_c, 2, 69, 127
1, 373480, Note_off_c, 3, 66, 64
1, 373480, Note_on_c, 4, 59, 127
1, 373511, Note_off_c, 4, 50, 64
1, 373565, Note_off_c, 2, 69, 64
1, 373572, Note_on_c, 2, 69, 127
1, 373573, Note_on_c, 4, 43, 125
1, 373669, Note_off_c, 2, 69, 64
1, 373670, Note_on_c, 2, 67, 127
1, 373763, Note_off_c, 2, 67, 64
1, 373763, Note_off_c, 4, 43, 64
1, 373764, Note_off_c, 4, 59, 64
1, 373764, Note_on_c, 4, 55, 127
1, 373764, Note_on_c, 3, 64, 127
1, 373765, Note_off_c, 4, 62, 64
1, 373765, Note_on_c, 4, 45, 125
1, 373858, Note_off_c, 3, 64, 64
1, 373858, Note_on_c, 4, 61, 127
1, 373951, Note_off_c, 4, 61, 64
1, 373951, Note_off_c, 4, 45, 64
1, 373952, Note_off_c, 4, 55, 64
1, 373954, Note_on_c, 4, 54, 127
1, 373954, Note_on_c, 4, 62, 127
1, 373955, Note_on_c, 4, 50, 127
1, 374064, Note_off_c, 4, 62, 64
1, 374064, Note_on_c, 3, 66, 127
1, 374179, Note_off_c, 3, 66, 64
1, 374180, Note_on_c, 2, 69, 127
1, 374181, Note_on_c, 4, 59, 127
1, 374181, Note_on_c, 4, 43, 125
1, 374182, Note_off_c, 4, 54, 64
1, 374182, Note_off_c, 4, 50, 64
1, 374284, Note_off_c, 2, 69, 64
1, 374284, Note_on_c, 2, 67, 127
1, 374398, Note_off_c, 2, 67, 64
1, 374399, Note_off_c, 4, 43, 64
1, 374399, Note_off_c, 4, 59, 64
1, 374400, Note_on_c, 4, 57, 127
1, 374400, Note_on_c, 4, 45, 125
1, 374400, Note_on_c, 3, 64, 127
1, 374477, Note_off_c, 1, 78, 64
1, 374514, Note_off_c, 3, 64, 64
1, 374515, Note_on_c, 4, 61, 127
1, 374661, Note_off_c, 4, 61, 64
1, 374662, Note_off_c, 4, 45, 64
1, 374662, Note_off_c, 4, 57, 64
1, 374663, Note_on_c, 4, 62, 127
1, 374663, Note_on_c, 4, 54, 127
1, 374664, Note_on_c, 4, 50, 127
1, 374964, Note_on_c, 4, 38, 125
1, 375050, Note_off_c, 4, 54, 64
1, 375050, Note_off_c, 4, 50, 64
1, 375051, Note_off_c, 4, 62, 64
1, 377331, Note_off_c, 4, 38, 64
1, 377347, Note_on_c, 2, 71, 127
1, 377412, Note_on_c, 2, 69, 127
1, 377413, Note_off_c, 2, 71, 64
1, 377457, Note_on_c, 2, 68, 127
1, 377472, Note_off_c, 2, 69, 64
1, 377510, Note_on_c, 2, 69, 127
1, 377518, Note_off_c, 2, 68, 64
1, 377564, Note_on_c, 2, 72, 127
1, 377565, Note_on_c, 4, 57, 126
1, 377573, Note_off_c, 2, 69, 64
1, 377671, Note_on_c, 4, 64, 127
1, 377671, Note_on_c, 4, 60, 127
1, 377699, Note_off_c, 4, 57, 64
1, 377770, Note_off_c, 2, 72, 64
1, 377775, Note_off_c, 4, 60, 64
1, 377775, Note_off_c, 4, 64, 64
1, 377778, Note_on_c, 2, 74, 127
1, 377779, Note_on_c, 4, 64, 127
1, 377779, Note_on_c, 4, 60, 127
1, 377833, Note_on_c, 2, 72, 127
1, 377843, Note_off_c, 2, 74, 64
1, 377884, Note_off_c, 4, 60, 64
1, 377885, Note_off_c, 4, 64, 64
1, 377888, Note_on_c, 2, 71, 127
1, 377888, Note_on_c, 4, 64, 127
1, 377889, Note_on_c, 4, 60, 127
1, 377896, Note_off_c, 2, 72, 64
1, 377940, Note_on_c, 2, 72, 127
1, 377950, Note_off_c, 2, 71, 64
1, 377990, Note_off_c, 4, 60, 64
1, 377991, Note_off_c, 4, 64, 64
1, 377993, Note_on_c, 2, 76, 127
1, 377994, Note_on_c, 4, 57, 126
1, 377996, Note_off_c, 2, 72, 64
1, 378102, Note_on_c, 4, 64, 127
1, 378102, Note_on_c, 4, 60, 127
1, 378128, Note_off_c, 4, 57, 64
1, 378199, Note_off_c, 2, 76, 64
1, 378205, Note_off_c, 4, 60, 64
1, 378206, Note_off_c, 4, 64, 64
1, 378208, Note_on_c, 2, 77, 127
1, 378209, Note_on_c, 4, 64, 127
1, 378209, Note_on_c, 4, 60, 127
1, 378263, Note_on_c, 2, 76, 127
1, 378273, Note_off_c, 2, 77, 64
1, 378313, Note_off_c, 4, 60, 64
1, 378313, Note_off_c, 4, 64, 64
1, 378316, Note_on_c, 2, 75, 127
1, 378316, Note_on_c, 4, 64, 127
1, 378317, Note_on_c, 4, 60, 127
1, 378324, Note_off_c, 2, 76, 64
1, 378369, Note_on_c, 2, 76, 127
1, 378378, Note_off_c, 2, 75, 64
1, 378419, Note_off_c, 4, 60, 64
1, 378419, Note_off_c, 4, 64, 64
1, 378421, Note_on_c, 1, 83, 127
1, 378422, Note_on_c, 4, 57, 126
1, 378430, Note_off_c, 2, 76, 64
1, 378472, Note_on_c, 3, 81, 127
1, 378480, Note_off_c, 1, 83, 64
1, 378525, Note_on_c, 3, 80, 127
1, 378526, Note_on_c, 4, 64, 127
1, 378526, Note_on_c, 4, 60, 127
1, 378534, Note_off_c, 3, 81, 64
1, 378553, Note_off_c, 4, 57, 64
1, 378580, Note_on_c, 3, 81, 127
1, 378588, Note_off_c, 3, 80, 64
1, 378632, Note_on_c, 4, 57, 126
1, 378632, Note_on_c, 1, 83, 127
1, 378640, Note_off_c, 3, 81, 64
1, 378658, Note_off_c, 4, 60, 64
1, 378658, Note_off_c, 4, 64, 64
1, 378684, Note_on_c, 3, 81, 127
1, 378692, Note_off_c, 1, 83, 64
1, 378737, Note_on_c, 4, 64, 127
1, 378737, Note_on_c, 4, 60, 127
1, 378738, Note_on_c, 3, 80, 127
1, 378745, Note_off_c, 3, 81, 64
1, 378762, Note_off_c, 4, 57, 64
1, 378791, Note_on_c, 3, 81, 127
1, 378801, Note_off_c, 3, 80, 64
1, 378843, Note_on_c, 1, 84, 127
1, 378843, Note_on_c, 4, 57, 126
1, 378854, Note_off_c, 3, 81, 64
1, 378869, Note_off_c, 4, 60, 64
1, 378869, Note_off_c, 4, 64, 64
1, 378950, Note_on_c, 4, 64, 127
1, 378951, Note_on_c, 4, 60, 127
1, 378976, Note_off_c, 4, 57, 64
1, 379055, Note_off_c, 4, 60, 64
1, 379056, Note_off_c, 4, 64, 64
1, 379056, Note_off_c, 1, 84, 64
1, 379056, Note_on_c, 3, 81, 127
1, 379057, Note_on_c, 4, 64, 127
1, 379057, Note_on_c, 4, 60, 127
1, 379162, Note_off_c, 4, 60, 64
1, 379162, Note_off_c, 4, 64, 64
1, 379163, Note_off_c, 3, 81, 64
1, 379164, Note_on_c, 1, 84, 127
1, 379165, Note_on_c, 4, 64, 127
1, 379165, Note_on_c, 4, 60, 127
1, 379269, Note_off_c, 4, 60, 64
1, 379270, Note_off_c, 1, 84, 64
1, 379270, Note_off_c, 4, 64, 64
1, 379272, Note_on_c, 3, 79, 127
1, 379272, Note_on_c, 4, 52, 126
1, 379289, Note_off_c, 3, 79, 64
1, 379290, Note_on_c, 3, 81, 127
1, 379308, Note_off_c, 3, 81, 64
1, 379308, Note_on_c, 1, 83, 127
1, 379378, Note_on_c, 3, 81, 127
1, 379378, Note_on_c, 1, 78, 127
1, 379379, Note_on_c, 4, 64, 127
1, 379379, Note_on_c, 4, 59, 127
1, 379404, Note_off_c, 4, 52, 64
1, 379412, Note_off_c, 1, 83, 64
1, 379483, Note_off_c, 4, 59, 64
1, 379484, Note_off_c, 1, 78, 64
1, 379484, Note_off_c, 4, 64, 64
1, 379485, Note_off_c, 3, 81, 64
1, 379486, Note_on_c, 3, 79, 127
1, 379486, Note_on_c, 2, 76, 127
1, 379487, Note_on_c, 4, 64, 127
1, 379487, Note_on_c, 4, 59, 127
1, 379587, Note_off_c, 4, 59, 64
1, 379587, Note_off_c, 4, 64, 64
1, 379588, Note_off_c, 2, 76, 64
1, 379588, Note_off_c, 3, 79, 64
1, 379591, Note_on_c, 3, 81, 127
1, 379592, Note_on_c, 1, 78, 127
1, 379592, Note_on_c, 4, 64, 127
1, 379593, Note_on_c, 4, 59, 127
1, 379692, Note_off_c, 4, 59, 64
1, 379693, Note_off_c, 4, 64, 64
1, 379693, Note_off_c, 1, 78, 64
1, 379694, Note_off_c, 3, 81, 64
1, 379695, Note_on_c, 3, 79, 127
1, 379695, Note_on_c, 4, 52, 126
1, 379713, Note_off_c, 3, 79, 64
1, 379714, Note_on_c, 3, 81, 127
1, 379731, Note_off_c, 3, 81, 64
1, 379732, Note_on_c, 1, 83, 127
1, 379801, Note_on_c, 3, 81, 127
1, 379802, Note_on_c, 1, 78, 127
1, 379802, Note_on_c, 4, 64, 127
1, 379802, Note_on_c, 4, 59, 127
1, 379828, Note_off_c, 4, 52, 64
1, 379835, Note_off_c, 1, 83, 64
1, 379905, Note_off_c, 4, 59, 64
1, 379906, Note_off_c, 4, 64, 64
1, 379906, Note_off_c, 1, 78, 64
1, 379907, Note_off_c, 3, 81, 64
1, 379909, Note_on_c, 3, 79, 127
1, 379909, Note_on_c, 2, 76, 127
1, 379910, Note_on_c, 4, 64, 127
1, 379910, Note_on_c, 4, 59, 127
1, 380011, Note_off_c, 4, 59, 64
1, 380011, Note_off_c, 4, 64, 64
1, 380012, Note_off_c, 2, 76, 64
1, 380012, Note_off_c, 3, 79, 64
1, 380015, Note_on_c, 3, 81, 127
1, 380015, Note_on_c, 1, 78, 127
1, 380016, Note_on_c, 4, 64, 127
1, 380016, Note_on_c, 4, 59, 127
1, 380116, Note_off_c, 4, 59, 64
1, 380116, Note_off_c, 4, 64, 64
1, 380117, Note_off_c, 1, 78, 64
1, 380117, Note_off_c, 3, 81, 64
1, 380120, Note_on_c, 3, 79, 127
1, 380121, Note_on_c, 4, 52, 126
1, 380136, Note_off_c, 3, 79, 64
1, 380137, Note_on_c, 3, 81, 127
1, 380155, Note_off_c, 3, 81, 64
1, 380155, Note_on_c, 1, 83, 127
1, 380225, Note_on_c, 3, 81, 127
1, 380225, Note_on_c, 1, 78, 127
1, 380226, Note_on_c, 4, 64, 127
1, 380226, Note_on_c, 4, 59, 127
1, 380252, Note_off_c, 4, 52, 64
1, 380259, Note_off_c, 1, 83, 64
1, 380330, Note_off_c, 1, 78, 64
1, 380331, Note_off_c, 3, 81, 64
1, 380333, Note_on_c, 3, 79, 127
1, 380334, Note_on_c, 2, 76, 127
1, 380334, Note_on_c, 4, 47, 124
1, 380359, Note_off_c, 4, 59, 64
1, 380360, Note_off_c, 4, 64, 64
1, 380437, Note_off_c, 3, 79, 64
1, 380437, Note_off_c, 2, 76, 64
1, 380439, Note_on_c, 1, 78, 127
1, 380439, Note_on_c, 2, 75, 127
1, 380440, Note_on_c, 4, 59, 127
1, 380466, Note_off_c, 4, 47, 64
1, 380543, Note_off_c, 2, 75, 64
1, 380543, Note_off_c, 1, 78, 64
1, 380545, Note_on_c, 2, 76, 127
1, 380546, Note_on_c, 4, 52, 126
1, 380571, Note_off_c, 4, 59, 64
1, 380756, Note_off_c, 2, 76, 64
1, 380760, Note_on_c, 2, 71, 127
1, 380815, Note_on_c, 2, 69, 127
1, 380823, Note_off_c, 2, 71, 64
1, 380865, Note_on_c, 2, 68, 127
1, 380875, Note_off_c, 2, 69, 64
1, 380919, Note_on_c, 2, 69, 127
1, 380927, Note_off_c, 2, 68, 64
1, 380972, Note_off_c, 2, 69, 64
1, 380972, Note_off_c, 4, 52, 64
1, 380973, Note_on_c, 2, 72, 127
1, 380973, Note_on_c, 2, 69, 127
1, 380974, Note_on_c, 4, 57, 126
1, 380979, Note_off_c, 2, 69, 64
1, 381079, Note_on_c, 4, 64, 127
1, 381080, Note_on_c, 4, 60, 127
1, 381105, Note_off_c, 4, 57, 64
1, 381176, Note_off_c, 2, 72, 64
1, 381182, Note_off_c, 4, 64, 64
1, 381182, Note_off_c, 4, 60, 64
1, 381185, Note_on_c, 2, 74, 127
1, 381185, Note_on_c, 4, 64, 127
1, 381186, Note_on_c, 4, 60, 127
1, 381240, Note_on_c, 2, 72, 127
1, 381250, Note_off_c, 2, 74, 64
1, 381290, Note_off_c, 4, 60, 64
1, 381291, Note_off_c, 4, 64, 64
1, 381293, Note_on_c, 2, 71, 127
1, 381294, Note_on_c, 4, 64, 127
1, 381294, Note_on_c, 4, 60, 127
1, 381302, Note_off_c, 2, 72, 64
1, 381348, Note_on_c, 2, 72, 127
1, 381358, Note_off_c, 2, 71, 64
1, 381398, Note_off_c, 4, 60, 64
1, 381398, Note_off_c, 4, 64, 64
1, 381401, Note_on_c, 2, 76, 127
1, 381401, Note_on_c, 4, 57, 126
1, 381404, Note_off_c, 2, 72, 64
1, 381509, Note_on_c, 4, 64, 127
1, 381510, Note_on_c, 4, 60, 127
1, 381535, Note_off_c, 4, 57, 64
1, 381606, Note_off_c, 2, 76, 64
1, 381612, Note_off_c, 4, 64, 64
1, 381612, Note_off_c, 4, 60, 64
1, 381615, Note_on_c, 2, 77, 127
1, 381615, Note_on_c, 4, 64, 127
1, 381616, Note_on_c, 4, 60, 127
1, 381672, Note_on_c, 2, 76, 127
1, 381680, Note_off_c, 2, 77, 64
1, 381720, Note_off_c, 4, 60, 64
1, 381721, Note_off_c, 4, 64, 64
1, 381723, Note_on_c, 2, 75, 127
1, 381724, Note_on_c, 4, 64, 127
1, 381724, Note_on_c, 4, 60, 127
1, 381732, Note_off_c, 2, 76, 64
1, 381776, Note_on_c, 2, 76, 127
1, 381786, Note_off_c, 2, 75, 64
1, 381826, Note_off_c, 4, 60, 64
1, 381827, Note_off_c, 4, 64, 64
1, 381827, Note_on_c, 1, 83, 127
1, 381828, Note_on_c, 4, 57, 126
1, 381836, Note_off_c, 2, 76, 64
1, 381880, Note_on_c, 3, 81, 127
1, 381888, Note_off_c, 1, 83, 64
1, 381932, Note_on_c, 3, 80, 127
1, 381932, Note_on_c, 4, 64, 127
1, 381933, Note_on_c, 4, 60, 127
1, 381941, Note_off_c, 3, 81, 64
1, 381960, Note_off_c, 4, 57, 64
1, 381987, Note_on_c, 3, 81, 127
1, 381996, Note_off_c, 3, 80, 64
1, 382041, Note_on_c, 1, 83, 127
1, 382041, Note_on_c, 4, 57, 126
1, 382049, Note_off_c, 3, 81, 64
1, 382066, Note_off_c, 4, 60, 64
1, 382067, Note_off_c, 4, 64, 64
1, 382091, Note_on_c, 3, 81, 127
1, 382098, Note_off_c, 1, 83, 64
1, 382144, Note_on_c, 3, 80, 127
1, 382144, Note_on_c, 4, 64, 127
1, 382145, Note_on_c, 4, 60, 127
1, 382153, Note_off_c, 3, 81, 64
1, 382170, Note_off_c, 4, 57, 64
1, 382197, Note_on_c, 3, 81, 127
1, 382207, Note_off_c, 3, 80, 64
1, 382251, Note_on_c, 1, 84, 127
1, 382251, Note_on_c, 4, 57, 126
1, 382259, Note_off_c, 3, 81, 64
1, 382277, Note_off_c, 4, 60, 64
1, 382277, Note_off_c, 4, 64, 64
1, 382356, Note_on_c, 4, 64, 127
1, 382357, Note_on_c, 4, 60, 127
1, 382384, Note_off_c, 4, 57, 64
1, 382463, Note_off_c, 4, 60, 64
1, 382464, Note_off_c, 4, 64, 64
1, 382464, Note_off_c, 1, 84, 64
1, 382464, Note_on_c, 3, 81, 127
1, 382465, Note_on_c, 4, 64, 127
1, 382465, Note_on_c, 4, 60, 127
1, 382570, Note_off_c, 3, 81, 64
1, 382570, Note_off_c, 4, 60, 64
1, 382570, Note_off_c, 4, 64, 64
1, 382572, Note_on_c, 1, 84, 127
1, 382573, Note_on_c, 4, 64, 127
1, 382573, Note_on_c, 4, 60, 127
1, 382678, Note_off_c, 4, 60, 64
1, 382678, Note_off_c, 4, 64, 64
1, 382679, Note_off_c, 1, 84, 64
1, 382680, Note_on_c, 4, 52, 126
1, 382680, Note_on_c, 3, 79, 127
1, 382698, Note_off_c, 3, 79, 64
1, 382699, Note_on_c, 3, 81, 127
1, 382716, Note_off_c, 3, 81, 64
1, 382717, Note_on_c, 1, 83, 127
1, 382787, Note_on_c, 3, 81, 127
1, 382787, Note_on_c, 1, 78, 127
1, 382788, Note_on_c, 4, 64, 127
1, 382788, Note_on_c, 4, 59, 127
1, 382813, Note_off_c, 4, 52, 64
1, 382819, Note_off_c, 1, 83, 64
1, 382890, Note_off_c, 4, 59, 64
1, 382891, Note_off_c, 1, 78, 64
1, 382891, Note_off_c, 3, 81, 64
1, 382891, Note_off_c, 4, 64, 64
1, 382894, Note_on_c, 3, 79, 127
1, 382895, Note_on_c, 2, 76, 127
1, 382895, Note_on_c, 4, 64, 127
1, 382896, Note_on_c, 4, 59, 127
1, 382996, Note_off_c, 4, 59, 64
1, 382996, Note_off_c, 4, 64, 64
1, 382997, Note_off_c, 2, 76, 64
1, 382997, Note_off_c, 3, 79, 64
1, 382998, Note_on_c, 3, 81, 127
1, 382998, Note_on_c, 1, 78, 127
1, 382999, Note_on_c, 4, 64, 127
1, 382999, Note_on_c, 4, 59, 127
1, 383100, Note_off_c, 1, 78, 64
1, 383100, Note_off_c, 4, 59, 64
1, 383100, Note_off_c, 4, 64, 64
1, 383101, Note_off_c, 3, 81, 64
1, 383101, Note_on_c, 3, 79, 127
1, 383102, Note_on_c, 4, 52, 126
1, 383120, Note_off_c, 3, 79, 64
1, 383120, Note_on_c, 3, 81, 127
1, 383138, Note_off_c, 3, 81, 64
1, 383138, Note_on_c, 1, 83, 127
1, 383208, Note_on_c, 3, 81, 127
1, 383208, Note_on_c, 1, 78, 127
1, 383209, Note_on_c, 4, 64, 127
1, 383209, Note_on_c, 4, 59, 127
1, 383235, Note_off_c, 4, 52, 64
1, 383243, Note_off_c, 1, 83, 64
1, 383314, Note_off_c, 4, 59, 64
1, 383314, Note_off_c, 4, 64, 64
1, 383315, Note_off_c, 1, 78, 64
1, 383315, Note_off_c, 3, 81, 64
1, 383316, Note_on_c, 3, 79, 127
1, 383316, Note_on_c, 2, 76, 127
1, 383316, Note_on_c, 4, 64, 127
1, 383317, Note_on_c, 4, 59, 127
1, 383419, Note_off_c, 4, 59, 64
1, 383420, Note_off_c, 4, 64, 64
1, 383420, Note_off_c, 2, 76, 64
1, 383421, Note_off_c, 3, 79, 64
1, 383421, Note_on_c, 3, 81, 127
1, 383422, Note_on_c, 1, 78, 127
1, 383422, Note_on_c, 4, 64, 127
1, 383423, Note_on_c, 4, 59, 127
1, 383525, Note_off_c, 4, 64, 64
1, 383525, Note_off_c, 4, 59, 64
1, 383526, Note_off_c, 3, 81, 64
1, 383526, Note_off_c, 1, 78, 64
1, 383527, Note_on_c, 3, 79, 127
1, 383527, Note_on_c, 4, 52, 126
1, 383545, Note_off_c, 3, 79, 64
1, 383545, Note_on_c, 3, 81, 127
1, 383563, Note_off_c, 3, 81, 64
1, 383564, Note_on_c, 1, 83, 127
1, 383633, Note_on_c, 3, 81, 127
1, 383634, Note_on_c, 4, 64, 127
1, 383634, Note_on_c, 1, 78, 127
1, 383635, Note_on_c, 4, 59, 127
1, 383660, Note_off_c, 4, 52, 64
1, 383666, Note_off_c, 1, 83, 64
1, 383737, Note_off_c, 1, 78, 64
1, 383737, Note_off_c, 3, 81, 64
1, 383740, Note_on_c, 3, 79, 127
1, 383740, Note_on_c, 2, 76, 127
1, 383741, Note_on_c, 4, 47, 124
1, 383768, Note_off_c, 4, 64, 64
1, 383768, Note_off_c, 4, 59, 64
1, 383844, Note_off_c, 2, 76, 64
1, 383844, Note_off_c, 3, 79, 64
1, 383846, Note_on_c, 1, 78, 127
1, 383847, Note_on_c, 2, 75, 127
1, 383847, Note_on_c, 4, 59, 127
1, 383872, Note_off_c, 4, 47, 64
1, 383949, Note_off_c, 2, 75, 64
1, 383950, Note_off_c, 1, 78, 64
1, 383952, Note_off_c, 4, 59, 64
1, 383952, Note_on_c, 2, 76, 127
1, 383953, Note_on_c, 4, 52, 126
1, 384164, Note_off_c, 2, 76, 64
1, 384168, Note_on_c, 2, 76, 127
1, 384168, Note_on_c, 2, 72, 127
1, 384273, Note_off_c, 2, 72, 64
1, 384273, Note_off_c, 2, 76, 64
1, 384276, Note_on_c, 2, 77, 127
1, 384276, Note_on_c, 2, 74, 127
1, 384380, Note_off_c, 2, 74, 64
1, 384381, Note_off_c, 2, 77, 64
1, 384381, Note_off_c, 4, 52, 64
1, 384382, Note_on_c, 3, 79, 127
1, 384382, Note_on_c, 2, 76, 127
1, 384383, Note_on_c, 4, 48, 124
1, 384487, Note_off_c, 2, 76, 64
1, 384487, Note_off_c, 3, 79, 64
1, 384490, Note_on_c, 3, 79, 127
1, 384491, Note_on_c, 2, 76, 127
1, 384491, Note_on_c, 4, 60, 127
1, 384516, Note_off_c, 4, 48, 64
1, 384594, Note_off_c, 2, 76, 64
1, 384595, Note_off_c, 3, 79, 64
1, 384598, Note_on_c, 4, 52, 126
1, 384598, Note_on_c, 3, 81, 127
1, 384623, Note_off_c, 4, 60, 64
1, 384648, Note_on_c, 3, 79, 127
1, 384657, Note_off_c, 3, 81, 64
1, 384697, Note_on_c, 2, 77, 127
1, 384698, Note_on_c, 4, 64, 127
1, 384706, Note_off_c, 3, 79, 64
1, 384723, Note_off_c, 4, 52, 64
1, 384748, Note_on_c, 2, 76, 127
1, 384758, Note_off_c, 2, 77, 64
1, 384801, Note_on_c, 2, 74, 127
1, 384802, Note_on_c, 4, 55, 126
1, 384802, Note_on_c, 2, 71, 127
1, 384810, Note_off_c, 2, 76, 64
1, 384829, Note_off_c, 4, 64, 64
1, 384905, Note_off_c, 2, 71, 64
1, 384910, Note_on_c, 2, 67, 127
1, 385013, Note_off_c, 2, 74, 64
1, 385017, Note_on_c, 2, 76, 127
1, 385018, Note_on_c, 2, 72, 127
1, 385043, Note_off_c, 2, 67, 64
1, 385122, Note_off_c, 2, 72, 64
1, 385122, Note_off_c, 2, 76, 64
1, 385125, Note_on_c, 2, 77, 127
1, 385125, Note_on_c, 2, 74, 127
1, 385229, Note_off_c, 2, 74, 64
1, 385229, Note_off_c, 2, 77, 64
1, 385230, Note_off_c, 4, 55, 64
1, 385232, Note_on_c, 3, 79, 127
1, 385233, Note_on_c, 2, 76, 127
1, 385233, Note_on_c, 4, 48, 124
1, 385336, Note_off_c, 2, 76, 64
1, 385336, Note_off_c, 3, 79, 64
1, 385339, Note_on_c, 3, 79, 127
1, 385339, Note_on_c, 2, 76, 127
1, 385340, Note_on_c, 4, 60, 127
1, 385367, Note_off_c, 4, 48, 64
1, 385444, Note_off_c, 2, 76, 64
1, 385445, Note_off_c, 3, 79, 64
1, 385445, Note_on_c, 3, 81, 127
1, 385446, Note_on_c, 4, 52, 126
1, 385471, Note_off_c, 4, 60, 64
1, 385497, Note_on_c, 3, 79, 127
1, 385505, Note_off_c, 3, 81, 64
1, 385545, Note_on_c, 2, 77, 127
1, 385546, Note_on_c, 4, 64, 127
1, 385554, Note_off_c, 3, 79, 64
1, 385569, Note_off_c, 4, 52, 64
1, 385594, Note_on_c, 2, 76, 127
1, 385602, Note_off_c, 2, 77, 64
1, 385644, Note_on_c, 2, 74, 127
1, 385644, Note_on_c, 2, 71, 127
1, 385645, Note_on_c, 4, 55, 126
1, 385653, Note_off_c, 2, 76, 64
1, 385670, Note_off_c, 4, 64, 64
1, 385856, Note_off_c, 2, 71, 64
1, 385857, Note_off_c, 2, 74, 64
1, 385859, Note_on_c, 2, 72, 127
1, 385860, Note_on_c, 2, 69, 127
1, 385964, Note_off_c, 2, 72, 64
1, 385964, Note_off_c, 2, 69, 64
1, 385967, Note_on_c, 2, 74, 127
1, 385967, Note_on_c, 2, 71, 127
1, 386071, Note_off_c, 2, 71, 64
1, 386072, Note_off_c, 2, 74, 64
1, 386072, Note_off_c, 4, 55, 64
1, 386073, Note_on_c, 2, 76, 127
1, 386073, Note_on_c, 2, 72, 127
1, 386074, Note_on_c, 4, 45, 124
1, 386178, Note_off_c, 2, 72, 64
1, 386178, Note_off_c, 2, 76, 64
1, 386181, Note_on_c, 2, 76, 127
1, 386181, Note_on_c, 2, 72, 127
1, 386182, Note_on_c, 4, 57, 126
1, 386208, Note_off_c, 4, 45, 64
1, 386284, Note_off_c, 2, 72, 64
1, 386285, Note_off_c, 2, 76, 64
1, 386288, Note_on_c, 4, 48, 124
1, 386288, Note_on_c, 2, 77, 127
1, 386314, Note_off_c, 4, 57, 64
1, 386337, Note_on_c, 2, 76, 127
1, 386345, Note_off_c, 2, 77, 64
1, 386386, Note_on_c, 2, 74, 127
1, 386386, Note_on_c, 4, 60, 127
1, 386392, Note_off_c, 2, 76, 64
1, 386409, Note_off_c, 4, 48, 64
1, 386434, Note_on_c, 2, 72, 127
1, 386442, Note_off_c, 2, 74, 64
1, 386484, Note_on_c, 2, 71, 127
1, 386485, Note_on_c, 4, 52, 126
1, 386485, Note_on_c, 2, 68, 127
1, 386493, Note_off_c, 2, 72, 64
1, 386512, Note_off_c, 4, 60, 64
1, 386589, Note_off_c, 2, 68, 64
1, 386592, Note_on_c, 4, 64, 127
1, 386697, Note_off_c, 2, 71, 64
1, 386700, Note_on_c, 2, 72, 127
1, 386700, Note_on_c, 2, 69, 127
1, 386726, Note_off_c, 4, 64, 64
1, 386807, Note_on_c, 2, 74, 127
1, 386808, Note_on_c, 2, 71, 127
1, 386819, Note_off_c, 2, 69, 64
1, 386820, Note_off_c, 2, 72, 64
1, 386912, Note_off_c, 4, 52, 64
1, 386915, Note_on_c, 2, 76, 127
1, 386915, Note_on_c, 2, 72, 127
1, 386915, Note_on_c, 4, 45, 124
1, 386927, Note_off_c, 2, 74, 64
1, 386927, Note_off_c, 2, 71, 64
1, 387020, Note_off_c, 2, 72, 64
1, 387020, Note_off_c, 2, 76, 64
1, 387023, Note_on_c, 2, 76, 127
1, 387024, Note_on_c, 2, 72, 127
1, 387024, Note_on_c, 4, 57, 126
1, 387049, Note_off_c, 4, 45, 64
1, 387127, Note_off_c, 2, 72, 64
1, 387128, Note_off_c, 2, 76, 64
1, 387129, Note_on_c, 2, 77, 127
1, 387129, Note_on_c, 4, 48, 124
1, 387155, Note_off_c, 4, 57, 64
1, 387181, Note_on_c, 2, 76, 127
1, 387191, Note_off_c, 2, 77, 64
1, 387231, Note_on_c, 2, 74, 127
1, 387232, Note_on_c, 4, 60, 127
1, 387238, Note_off_c, 2, 76, 64
1, 387255, Note_off_c, 4, 48, 64
1, 387278, Note_on_c, 2, 72, 127
1, 387286, Note_off_c, 2, 74, 64
1, 387328, Note_on_c, 2, 71, 127
1, 387329, Note_on_c, 4, 52, 126
1, 387329, Note_on_c, 2, 68, 127
1, 387336, Note_off_c, 2, 72, 64
1, 387355, Note_off_c, 4, 60, 64
1, 387538, Note_off_c, 2, 71, 64
1, 387538, Note_off_c, 2, 68, 64
1, 387546, Note_on_c, 2, 71, 127
1, 387598, Note_on_c, 2, 69, 127
1, 387610, Note_off_c, 2, 71, 64
1, 387652, Note_on_c, 2, 68, 127
1, 387658, Note_off_c, 2, 69, 64
1, 387704, Note_on_c, 2, 69, 127
1, 387711, Note_off_c, 2, 68, 64
1, 387753, Note_off_c, 4, 52, 64
1, 387756, Note_on_c, 2, 72, 127
1, 387757, Note_on_c, 4, 57, 126
1, 387765, Note_off_c, 2, 69, 64
1, 387863, Note_on_c, 4, 64, 127
1, 387864, Note_on_c, 4, 60, 127
1, 387891, Note_off_c, 4, 57, 64
1, 387962, Note_off_c, 2, 72, 64
1, 387968, Note_off_c, 4, 60, 64
1, 387968, Note_off_c, 4, 64, 64
1, 387971, Note_on_c, 2, 74, 127
1, 387971, Note_on_c, 4, 64, 127
1, 387972, Note_on_c, 4, 60, 127
1, 388023, Note_on_c, 2, 72, 127
1, 388033, Note_off_c, 2, 74, 64
1, 388073, Note_off_c, 4, 60, 64
1, 388074, Note_off_c, 4, 64, 64
1, 388076, Note_on_c, 2, 71, 127
1, 388077, Note_on_c, 4, 64, 127
1, 388077, Note_on_c, 4, 60, 127
1, 388085, Note_off_c, 2, 72, 64
1, 388129, Note_on_c, 2, 72, 127
1, 388137, Note_off_c, 2, 71, 64
1, 388181, Note_off_c, 4, 60, 64
1, 388181, Note_off_c, 4, 64, 64
1, 388186, Note_on_c, 2, 76, 127
1, 388187, Note_on_c, 4, 57, 126
1, 388194, Note_off_c, 2, 72, 64
1, 388292, Note_on_c, 4, 64, 127
1, 388293, Note_on_c, 4, 60, 127
1, 388319, Note_off_c, 4, 57, 64
1, 388391, Note_off_c, 2, 76, 64
1, 388397, Note_off_c, 4, 64, 64
1, 388397, Note_off_c, 4, 60, 64
1, 388400, Note_on_c, 2, 77, 127
1, 388400, Note_on_c, 4, 64, 127
1, 388401, Note_on_c, 4, 60, 127
1, 388454, Note_on_c, 2, 76, 127
1, 388464, Note_off_c, 2, 77, 64
1, 388506, Note_off_c, 4, 60, 64
1, 388507, Note_off_c, 4, 64, 64
1, 388509, Note_on_c, 2, 75, 127
1, 388510, Note_on_c, 4, 64, 127
1, 388510, Note_on_c, 4, 60, 127
1, 388518, Note_off_c, 2, 76, 64
1, 388562, Note_on_c, 2, 76, 127
1, 388570, Note_off_c, 2, 75, 64
1, 388612, Note_off_c, 4, 60, 64
1, 388612, Note_off_c, 4, 64, 64
1, 388615, Note_on_c, 1, 83, 127
1, 388615, Note_on_c, 4, 57, 126
1, 388623, Note_off_c, 2, 76, 64
1, 388668, Note_on_c, 3, 81, 127
1, 388677, Note_off_c, 1, 83, 64
1, 388719, Note_on_c, 3, 80, 127
1, 388720, Note_on_c, 4, 64, 127
1, 388720, Note_on_c, 4, 60, 127
1, 388728, Note_off_c, 3, 81, 64
1, 388745, Note_off_c, 4, 57, 64
1, 388772, Note_on_c, 3, 81, 127
1, 388780, Note_off_c, 3, 80, 64
1, 388822, Note_on_c, 1, 83, 127
1, 388823, Note_on_c, 4, 57, 126
1, 388831, Note_off_c, 3, 81, 64
1, 388846, Note_off_c, 4, 60, 64
1, 388847, Note_off_c, 4, 64, 64
1, 388872, Note_on_c, 3, 81, 127
1, 388882, Note_off_c, 1, 83, 64
1, 388922, Note_on_c, 3, 80, 127
1, 388923, Note_on_c, 4, 64, 127
1, 388923, Note_on_c, 4, 60, 127
1, 388932, Note_off_c, 3, 81, 64
1, 388947, Note_off_c, 4, 57, 64
1, 388972, Note_on_c, 3, 81, 127
1, 388981, Note_off_c, 3, 80, 64
1, 389024, Note_on_c, 1, 84, 127
1, 389025, Note_on_c, 4, 53, 126
1, 389032, Note_off_c, 3, 81, 64
1, 389050, Note_off_c, 4, 60, 64
1, 389050, Note_off_c, 4, 64, 64
1, 389132, Note_on_c, 4, 63, 127
1, 389132, Note_on_c, 4, 57, 126
1, 389158, Note_off_c, 4, 53, 64
1, 389236, Note_off_c, 4, 57, 64
1, 389236, Note_off_c, 4, 63, 64
1, 389237, Note_off_c, 1, 84, 64
1, 389237, Note_on_c, 3, 81, 127
1, 389238, Note_on_c, 4, 63, 127
1, 389238, Note_on_c, 4, 57, 126
1, 389342, Note_off_c, 4, 57, 64
1, 389343, Note_off_c, 4, 63, 64
1, 389346, Note_on_c, 1, 83, 127
1, 389346, Note_on_c, 4, 63, 127
1, 389347, Note_on_c, 4, 57, 126
1, 389358, Note_off_c, 3, 81, 64
1, 389452, Note_on_c, 1, 84, 127
1, 389453, Note_on_c, 4, 53, 126
1, 389465, Note_off_c, 1, 83, 64
1, 389481, Note_off_c, 4, 57, 64
1, 389482, Note_off_c, 4, 63, 64
1, 389562, Note_on_c, 1, 83, 127
1, 389562, Note_on_c, 4, 64, 127
1, 389563, Note_on_c, 4, 57, 126
1, 389572, Note_off_c, 1, 84, 64
1, 389588, Note_off_c, 4, 53, 64
1, 389668, Note_on_c, 3, 81, 127
1, 389669, Note_on_c, 4, 50, 126
1, 389680, Note_off_c, 1, 83, 64
1, 389694, Note_off_c, 4, 57, 64
1, 389695, Note_off_c, 4, 64, 64
1, 389776, Note_on_c, 3, 80, 127
1, 389776, Note_on_c, 4, 59, 127
1, 389777, Note_on_c, 4, 53, 126
1, 389788, Note_off_c, 3, 81, 64
1, 389802, Note_off_c, 4, 50, 64
1, 389883, Note_on_c, 3, 81, 127
1, 389884, Note_on_c, 4, 48, 124
1, 389894, Note_off_c, 3, 80, 64
1, 389909, Note_off_c, 4, 53, 64
1, 389910, Note_off_c, 4, 59, 64
1, 389991, Note_on_c, 2, 76, 127
1, 389991, Note_on_c, 4, 57, 126
1, 389992, Note_on_c, 4, 52, 126
1, 390001, Note_off_c, 3, 81, 64
1, 390017, Note_off_c, 4, 48, 64
1, 390097, Note_off_c, 4, 52, 64
1, 390098, Note_off_c, 4, 57, 64
1, 390098, Note_on_c, 2, 77, 127
1, 390099, Note_on_c, 4, 50, 126
1, 390109, Note_off_c, 2, 76, 64
1, 390205, Note_off_c, 4, 50, 64
1, 390205, Note_on_c, 2, 74, 127
1, 390206, Note_on_c, 4, 59, 127
1, 390206, Note_on_c, 4, 53, 126
1, 390216, Note_off_c, 2, 77, 64
1, 390312, Note_off_c, 4, 53, 64
1, 390313, Note_off_c, 4, 59, 64
1, 390313, Note_on_c, 2, 72, 127
1, 390314, Note_on_c, 4, 57, 126
1, 390314, Note_on_c, 4, 52, 126
1, 390324, Note_off_c, 2, 74, 64
1, 390416, Note_off_c, 4, 52, 64
1, 390417, Note_off_c, 4, 57, 64
1, 390419, Note_on_c, 4, 57, 126
1, 390420, Note_on_c, 4, 52, 126
1, 390517, Note_off_c, 2, 72, 64
1, 390525, Note_off_c, 4, 57, 64
1, 390525, Note_off_c, 4, 52, 64
1, 390526, Note_on_c, 4, 56, 126
1, 390526, Note_on_c, 4, 52, 126
1, 390527, Note_on_c, 2, 72, 127
1, 390582, Note_on_c, 2, 71, 127
1, 390592, Note_off_c, 2, 72, 64
1, 390624, Note_off_c, 4, 52, 64
1, 390625, Note_off_c, 4, 56, 64
1, 390625, Note_on_c, 4, 56, 126
1, 390626, Note_on_c, 4, 52, 126
1, 390626, Note_on_c, 2, 69, 127
1, 390632, Note_off_c, 2, 71, 64
1, 390671, Note_on_c, 2, 71, 127
1, 390680, Note_off_c, 2, 69, 64
1, 390730, Note_off_c, 4, 52, 64
1, 390731, Note_off_c, 4, 56, 64
1, 390733, Note_off_c, 2, 71, 64
1, 390733, Note_on_c, 2, 69, 127
1, 390734, Note_on_c, 4, 57, 126
1, 390734, Note_on_c, 4, 45, 124
1, 390946, Note_off_c, 2, 69, 64
1, 390948, Note_on_c, 2, 76, 127
1, 390948, Note_on_c, 2, 72, 127
1, 391053, Note_off_c, 2, 72, 64
1, 391053, Note_off_c, 2, 76, 64
1, 391056, Note_on_c, 2, 77, 127
1, 391056, Note_on_c, 2, 74, 127
1, 391160, Note_off_c, 2, 74, 64
1, 391161, Note_off_c, 2, 77, 64
1, 391163, Note_off_c, 4, 45, 64
1, 391164, Note_off_c, 4, 57, 64
1, 391164, Note_on_c, 3, 79, 127
1, 391164, Note_on_c, 2, 76, 127
1, 391165, Note_on_c, 4, 48, 124
1, 391267, Note_off_c, 2, 76, 64
1, 391267, Note_off_c, 3, 79, 64
1, 391270, Note_on_c, 3, 79, 127
1, 391270, Note_on_c, 2, 76, 127
1, 391271, Note_on_c, 4, 60, 127
1, 391298, Note_off_c, 4, 48, 64
1, 391375, Note_off_c, 2, 76, 64
1, 391376, Note_off_c, 3, 79, 64
1, 391378, Note_on_c, 3, 81, 127
1, 391379, Note_on_c, 4, 52, 126
1, 391404, Note_off_c, 4, 60, 64
1, 391429, Note_on_c, 3, 79, 127
1, 391437, Note_off_c, 3, 81, 64
1, 391479, Note_on_c, 2, 77, 127
1, 391479, Note_on_c, 4, 64, 127
1, 391488, Note_off_c, 3, 79, 64
1, 391503, Note_off_c, 4, 52, 64
1, 391528, Note_on_c, 2, 76, 127
1, 391537, Note_off_c, 2, 77, 64
1, 391582, Note_on_c, 2, 74, 127
1, 391583, Note_on_c, 4, 55, 126
1, 391583, Note_on_c, 2, 71, 127
1, 391591, Note_off_c, 2, 76, 64
1, 391610, Note_off_c, 4, 64, 64
1, 391686, Note_off_c, 2, 71, 64
1, 391691, Note_on_c, 2, 67, 127
1, 391794, Note_off_c, 2, 74, 64
1, 391798, Note_on_c, 2, 76, 127
1, 391799, Note_on_c, 2, 72, 127
1, 391824, Note_off_c, 2, 67, 64
1, 391902, Note_off_c, 2, 72, 64
1, 391903, Note_off_c, 2, 76, 64
1, 391906, Note_on_c, 2, 77, 127
1, 391906, Note_on_c, 2, 74, 127
1, 392010, Note_off_c, 2, 74, 64
1, 392011, Note_off_c, 2, 77, 64
1, 392011, Note_off_c, 4, 55, 64
1, 392012, Note_on_c, 3, 79, 127
1, 392012, Note_on_c, 2, 76, 127
1, 392013, Note_on_c, 4, 48, 124
1, 392116, Note_off_c, 2, 76, 64
1, 392117, Note_off_c, 3, 79, 64
1, 392120, Note_on_c, 3, 79, 127
1, 392120, Note_on_c, 2, 76, 127
1, 392121, Note_on_c, 4, 60, 127
1, 392146, Note_off_c, 4, 48, 64
1, 392224, Note_off_c, 2, 76, 64
1, 392224, Note_off_c, 3, 79, 64
1, 392227, Note_on_c, 3, 81, 127
1, 392228, Note_on_c, 4, 52, 126
1, 392251, Note_off_c, 4, 60, 64
1, 392276, Note_on_c, 3, 79, 127
1, 392286, Note_off_c, 3, 81, 64
1, 392326, Note_on_c, 2, 77, 127
1, 392327, Note_on_c, 4, 64, 127
1, 392333, Note_off_c, 3, 79, 64
1, 392350, Note_off_c, 4, 52, 64
1, 392375, Note_on_c, 2, 76, 127
1, 392383, Note_off_c, 2, 77, 64
1, 392423, Note_on_c, 2, 74, 127
1, 392424, Note_on_c, 4, 55, 126
1, 392424, Note_on_c, 2, 71, 127
1, 392433, Note_off_c, 2, 76, 64
1, 392450, Note_off_c, 4, 64, 64
1, 392636, Note_off_c, 2, 71, 64
1, 392637, Note_off_c, 2, 74, 64
1, 392639, Note_on_c, 2, 72, 127
1, 392640, Note_on_c, 2, 69, 127
1, 392744, Note_off_c, 2, 69, 64
1, 392744, Note_off_c, 2, 72, 64
1, 392747, Note_on_c, 2, 74, 127
1, 392747, Note_on_c, 2, 71, 127
1, 392851, Note_off_c, 2, 71, 64
1, 392852, Note_off_c, 2, 74, 64
1, 392852, Note_off_c, 4, 55, 64
1, 392855, Note_on_c, 2, 76, 127
1, 392855, Note_on_c, 2, 72, 127
1, 392856, Note_on_c, 4, 45, 124
1, 392958, Note_off_c, 2, 72, 64
1, 392958, Note_off_c, 2, 76, 64
1, 392961, Note_on_c, 2, 76, 127
1, 392961, Note_on_c, 2, 72, 127
1, 392962, Note_on_c, 4, 57, 126
1, 392988, Note_off_c, 4, 45, 64
1, 393063, Note_off_c, 2, 72, 64
1, 393064, Note_off_c, 2, 76, 64
1, 393066, Note_on_c, 2, 77, 127
1, 393067, Note_on_c, 4, 48, 124
1, 393094, Note_off_c, 4, 57, 64
1, 393117, Note_on_c, 2, 76, 127
1, 393127, Note_off_c, 2, 77, 64
1, 393165, Note_on_c, 2, 74, 127
1, 393166, Note_on_c, 4, 60, 127
1, 393174, Note_off_c, 2, 76, 64
1, 393190, Note_off_c, 4, 48, 64
1, 393214, Note_on_c, 2, 72, 127
1, 393222, Note_off_c, 2, 74, 64
1, 393264, Note_on_c, 2, 71, 127
1, 393264, Note_on_c, 2, 68, 127
1, 393265, Note_on_c, 4, 52, 126
1, 393275, Note_off_c, 2, 72, 64
1, 393292, Note_off_c, 4, 60, 64
1, 393369, Note_off_c, 2, 68, 64
1, 393372, Note_on_c, 4, 64, 127
1, 393476, Note_off_c, 2, 71, 64
1, 393480, Note_on_c, 2, 72, 127
1, 393480, Note_on_c, 2, 69, 127
1, 393506, Note_off_c, 4, 64, 64
1, 393587, Note_on_c, 2, 74, 127
1, 393587, Note_on_c, 2, 71, 127
1, 393599, Note_off_c, 2, 69, 64
1, 393600, Note_off_c, 2, 72, 64
1, 393692, Note_off_c, 4, 52, 64
1, 393695, Note_on_c, 2, 76, 127
1, 393695, Note_on_c, 2, 72, 127
1, 393695, Note_on_c, 4, 45, 124
1, 393707, Note_off_c, 2, 71, 64
1, 393707, Note_off_c, 2, 74, 64
1, 393800, Note_off_c, 2, 72, 64
1, 393800, Note_off_c, 2, 76, 64
1, 393803, Note_on_c, 2, 76, 127
1, 393803, Note_on_c, 2, 72, 127
1, 393804, Note_on_c, 4, 57, 126
1, 393829, Note_off_c, 4, 45, 64
1, 393907, Note_off_c, 2, 72, 64
1, 393908, Note_off_c, 2, 76, 64
1, 393911, Note_on_c, 2, 77, 127
1, 393911, Note_on_c, 4, 48, 124
1, 393936, Note_off_c, 4, 57, 64
1, 393962, Note_on_c, 2, 76, 127
1, 393972, Note_off_c, 2, 77, 64
1, 394012, Note_on_c, 2, 74, 127
1, 394013, Note_on_c, 4, 60, 127
1, 394019, Note_off_c, 2, 76, 64
1, 394034, Note_off_c, 4, 48, 64
1, 394059, Note_on_c, 2, 72, 127
1, 394067, Note_off_c, 2, 74, 64
1, 394108, Note_on_c, 2, 71, 127
1, 394109, Note_on_c, 4, 52, 126
1, 394109, Note_on_c, 2, 68, 127
1, 394117, Note_off_c, 2, 72, 64
1, 394134, Note_off_c, 4, 60, 64
1, 394319, Note_off_c, 2, 68, 64
1, 394319, Note_off_c, 2, 71, 64
1, 394327, Note_on_c, 2, 71, 127
1, 394377, Note_on_c, 2, 69, 127
1, 394391, Note_off_c, 2, 71, 64
1, 394433, Note_on_c, 2, 68, 127
1, 394437, Note_off_c, 2, 69, 64
1, 394485, Note_on_c, 2, 69, 127
1, 394492, Note_off_c, 2, 68, 64
1, 394533, Note_off_c, 4, 52, 64
1, 394536, Note_on_c, 2, 72, 127
1, 394537, Note_on_c, 4, 57, 126
1, 394545, Note_off_c, 2, 69, 64
1, 394643, Note_on_c, 4, 64, 127
1, 394644, Note_on_c, 4, 60, 127
1, 394671, Note_off_c, 4, 57, 64
1, 394742, Note_off_c, 2, 72, 64
1, 394748, Note_off_c, 4, 60, 64
1, 394748, Note_off_c, 4, 64, 64
1, 394751, Note_on_c, 2, 74, 127
1, 394751, Note_on_c, 4, 64, 127
1, 394752, Note_on_c, 4, 60, 127
1, 394803, Note_on_c, 2, 72, 127
1, 394813, Note_off_c, 2, 74, 64
1, 394855, Note_off_c, 4, 60, 64
1, 394856, Note_off_c, 4, 64, 64
1, 394856, Note_on_c, 2, 71, 127
1, 394857, Note_on_c, 4, 64, 127
1, 394857, Note_on_c, 4, 60, 127
1, 394867, Note_off_c, 2, 72, 64
1, 394909, Note_on_c, 2, 72, 127
1, 394917, Note_off_c, 2, 71, 64
1, 394963, Note_off_c, 4, 60, 64
1, 394963, Note_off_c, 4, 64, 64
1, 394966, Note_on_c, 2, 76, 127
1, 394966, Note_on_c, 4, 57, 126
1, 394974, Note_off_c, 2, 72, 64
1, 395072, Note_on_c, 4, 64, 127
1, 395073, Note_on_c, 4, 60, 127
1, 395100, Note_off_c, 4, 57, 64
1, 395171, Note_off_c, 2, 76, 64
1, 395177, Note_off_c, 4, 60, 64
1, 395177, Note_off_c, 4, 64, 64
1, 395180, Note_on_c, 4, 64, 127
1, 395180, Note_on_c, 2, 77, 127
1, 395181, Note_on_c, 4, 60, 127
1, 395235, Note_on_c, 2, 76, 127
1, 395245, Note_off_c, 2, 77, 64
1, 395285, Note_off_c, 4, 60, 64
1, 395286, Note_off_c, 4, 64, 64
1, 395288, Note_on_c, 2, 75, 127
1, 395289, Note_on_c, 4, 64, 127
1, 395289, Note_on_c, 4, 60, 127
1, 395297, Note_off_c, 2, 76, 64
1, 395341, Note_on_c, 2, 76, 127
1, 395351, Note_off_c, 2, 75, 64
1, 395393, Note_off_c, 4, 60, 64
1, 395393, Note_off_c, 4, 64, 64
1, 395396, Note_on_c, 4, 57, 126
1, 395396, Note_on_c, 1, 83, 127
1, 395404, Note_off_c, 2, 76, 64
1, 395448, Note_on_c, 3, 81, 127
1, 395458, Note_off_c, 1, 83, 64
1, 395500, Note_on_c, 3, 80, 127
1, 395501, Note_on_c, 4, 64, 127
1, 395501, Note_on_c, 4, 60, 127
1, 395507, Note_off_c, 3, 81, 64
1, 395526, Note_off_c, 4, 57, 64
1, 395551, Note_on_c, 3, 81, 127
1, 395561, Note_off_c, 3, 80, 64
1, 395603, Note_on_c, 1, 83, 127
1, 395604, Note_on_c, 4, 57, 126
1, 395610, Note_off_c, 3, 81, 64
1, 395627, Note_off_c, 4, 60, 64
1, 395628, Note_off_c, 4, 64, 64
1, 395653, Note_on_c, 3, 81, 127
1, 395663, Note_off_c, 1, 83, 64
1, 395703, Note_on_c, 3, 80, 127
1, 395703, Note_on_c, 4, 64, 127
1, 395704, Note_on_c, 4, 60, 127
1, 395712, Note_off_c, 3, 81, 64
1, 395729, Note_off_c, 4, 57, 64
1, 395753, Note_on_c, 3, 81, 127
1, 395760, Note_off_c, 3, 80, 64
1, 395803, Note_on_c, 1, 84, 127
1, 395803, Note_on_c, 4, 53, 126
1, 395813, Note_off_c, 3, 81, 64
1, 395831, Note_off_c, 4, 64, 64
1, 395831, Note_off_c, 4, 60, 64
1, 395910, Note_on_c, 4, 63, 127
1, 395911, Note_on_c, 4, 57, 126
1, 395938, Note_off_c, 4, 53, 64
1, 396015, Note_off_c, 4, 63, 64
1, 396015, Note_off_c, 4, 57, 64
1, 396016, Note_off_c, 1, 84, 64
1, 396018, Note_on_c, 3, 81, 127
1, 396018, Note_on_c, 4, 63, 127
1, 396019, Note_on_c, 4, 57, 126
1, 396122, Note_off_c, 4, 57, 64
1, 396123, Note_off_c, 4, 63, 64
1, 396126, Note_on_c, 1, 83, 127
1, 396126, Note_on_c, 4, 63, 127
1, 396127, Note_on_c, 4, 57, 126
1, 396138, Note_off_c, 3, 81, 64
1, 396234, Note_on_c, 1, 84, 127
1, 396234, Note_on_c, 4, 53, 126
1, 396244, Note_off_c, 1, 83, 64
1, 396260, Note_off_c, 4, 57, 64
1, 396261, Note_off_c, 4, 63, 64
1, 396342, Note_on_c, 1, 83, 127
1, 396342, Note_on_c, 4, 64, 127
1, 396342, Note_on_c, 4, 57, 126
1, 396352, Note_off_c, 1, 84, 64
1, 396368, Note_off_c, 4, 53, 64
1, 396448, Note_on_c, 3, 81, 127
1, 396449, Note_on_c, 4, 50, 126
1, 396461, Note_off_c, 1, 83, 64
1, 396476, Note_off_c, 4, 57, 64
1, 396477, Note_off_c, 4, 64, 64
1, 396556, Note_on_c, 3, 80, 127
1, 396556, Note_on_c, 4, 59, 127
1, 396557, Note_on_c, 4, 53, 126
1, 396568, Note_off_c, 3, 81, 64
1, 396584, Note_off_c, 4, 50, 64
1, 396664, Note_on_c, 3, 81, 127
1, 396665, Note_on_c, 4, 48, 124
1, 396675, Note_off_c, 3, 80, 64
1, 396690, Note_off_c, 4, 53, 64
1, 396691, Note_off_c, 4, 59, 64
1, 396772, Note_on_c, 2, 76, 127
1, 396772, Note_on_c, 4, 57, 126
1, 396773, Note_on_c, 4, 52, 126
1, 396782, Note_off_c, 3, 81, 64
1, 396798, Note_off_c, 4, 48, 64
1, 396878, Note_off_c, 4, 52, 64
1, 396879, Note_off_c, 4, 57, 64
1, 396879, Note_on_c, 2, 77, 127
1, 396880, Note_on_c, 4, 50, 126
1, 396889, Note_off_c, 2, 76, 64
1, 396986, Note_off_c, 4, 50, 64
1, 396986, Note_on_c, 2, 74, 127
1, 396987, Note_on_c, 4, 59, 127
1, 396987, Note_on_c, 4, 53, 126
1, 396997, Note_off_c, 2, 77, 64
1, 397093, Note_off_c, 4, 53, 64
1, 397094, Note_off_c, 4, 59, 64
1, 397094, Note_off_c, 2, 74, 64
1, 397095, Note_on_c, 2, 72, 127
1, 397095, Note_on_c, 4, 57, 126
1, 397096, Note_on_c, 4, 52, 126
1, 397198, Note_off_c, 4, 52, 64
1, 397199, Note_off_c, 4, 57, 64
1, 397201, Note_on_c, 4, 57, 126
1, 397201, Note_on_c, 4, 52, 126
1, 397300, Note_off_c, 4, 52, 64
1, 397300, Note_off_c, 4, 57, 64
1, 397301, Note_off_c, 2, 72, 64
1, 397303, Note_on_c, 4, 56, 126
1, 397303, Note_on_c, 4, 52, 126
1, 397304, Note_on_c, 2, 72, 127
1, 397336, Note_on_c, 2, 71, 127
1, 397348, Note_off_c, 2, 72, 64
1, 397369, Note_on_c, 2, 72, 127
1, 397382, Note_off_c, 2, 71, 64
1, 397407, Note_off_c, 4, 52, 64
1, 397408, Note_off_c, 4, 56, 64
1, 397410, Note_on_c, 2, 71, 127
1, 397411, Note_on_c, 4, 56, 126
1, 397411, Note_on_c, 4, 52, 126
1, 397417, Note_off_c, 2, 72, 64
1, 397449, Note_on_c, 2, 69, 127
1, 397460, Note_off_c, 2, 71, 64
1, 397483, Note_on_c, 2, 71, 127
1, 397493, Note_off_c, 2, 69, 64
1, 397520, Note_off_c, 4, 52, 64
1, 397520, Note_off_c, 4, 56, 64
1, 397524, Note_on_c, 2, 69, 127
1, 397525, Note_on_c, 4, 57, 126
1, 397525, Note_on_c, 4, 45, 124
1, 397529, Note_off_c, 2, 71, 64
1, 397752, Note_off_c, 2, 69, 64
1, 397754, Note_on_c, 3, 81, 127
1, 397754, Note_on_c, 2, 69, 127
1, 397861, Note_off_c, 2, 69, 64
1, 397862, Note_off_c, 3, 81, 64
1, 397862, Note_on_c, 1, 83, 127
1, 397863, Note_on_c, 2, 71, 127
1, 397954, Note_off_c, 4, 45, 64
1, 397959, Note_on_c, 4, 45, 124
1, 397961, Note_off_c, 2, 71, 64
1, 397962, Note_off_c, 1, 83, 64
1, 397962, Note_on_c, 2, 73, 127
1, 397976, Note_on_c, 4, 49, 126
1, 397980, Note_on_c, 1, 85, 127
1, 397989, Note_on_c, 4, 52, 126
1, 397997, Note_off_c, 4, 57, 64
1, 398013, Note_on_c, 4, 57, 126
1, 398021, Note_off_c, 4, 45, 64
1, 398053, Note_off_c, 4, 49, 64
1, 398065, Note_off_c, 4, 57, 64
1, 398069, Note_on_c, 4, 57, 126
1, 398148, Note_off_c, 4, 52, 64
1, 398165, Note_off_c, 4, 57, 64
1, 398174, Note_off_c, 2, 73, 64
1, 398175, Note_on_c, 3, 81, 127
1, 398175, Note_on_c, 2, 69, 127
1, 398176, Note_on_c, 4, 57, 126
1, 398192, Note_off_c, 1, 85, 64
1, 398270, Note_off_c, 4, 57, 64
1, 398280, Note_off_c, 2, 69, 64
1, 398280, Note_off_c, 3, 81, 64
1, 398281, Note_on_c, 1, 83, 127
1, 398281, Note_on_c, 2, 71, 127
1, 398282, Note_on_c, 4, 57, 126
1, 398380, Note_on_c, 4, 45, 124
1, 398382, Note_off_c, 2, 71, 64
1, 398382, Note_off_c, 1, 83, 64
1, 398383, Note_on_c, 2, 73, 127
1, 398396, Note_on_c, 4, 49, 126
1, 398400, Note_on_c, 1, 85, 127
1, 398410, Note_on_c, 4, 52, 126
1, 398418, Note_off_c, 4, 57, 64
1, 398436, Note_on_c, 4, 57, 126
1, 398441, Note_off_c, 4, 45, 64
1, 398474, Note_off_c, 4, 49, 64
1, 398485, Note_off_c, 4, 57, 64
1, 398487, Note_off_c, 2, 73, 64
1, 398488, Note_on_c, 1, 83, 127
1, 398488, Note_on_c, 2, 71, 127
1, 398489, Note_on_c, 4, 57, 126
1, 398507, Note_off_c, 1, 85, 64
1, 398572, Note_off_c, 4, 52, 64
1, 398587, Note_off_c, 4, 57, 64
1, 398597, Note_off_c, 2, 71, 64
1, 398597, Note_off_c, 1, 83, 64
1, 398598, Note_on_c, 3, 81, 127
1, 398598, Note_on_c, 2, 69, 127
1, 398599, Note_on_c, 4, 57, 126
1, 398691, Note_off_c, 2, 69, 64
1, 398691, Note_off_c, 4, 57, 64
1, 398700, Note_off_c, 3, 81, 64
1, 398700, Note_on_c, 3, 80, 127
1, 398700, Note_on_c, 2, 69, 127
1, 398701, Note_on_c, 4, 57, 126
1, 398804, Note_on_c, 4, 38, 124
1, 398805, Note_off_c, 2, 69, 64
1, 398806, Note_off_c, 3, 80, 64
1, 398806, Note_on_c, 1, 78, 127
1, 398807, Note_on_c, 4, 66, 127
1, 398823, Note_on_c, 4, 42, 124
1, 398840, Note_on_c, 4, 45, 124
1, 398841, Note_off_c, 4, 57, 64
1, 398859, Note_on_c, 4, 50, 126
1, 398867, Note_off_c, 4, 38, 64
1, 398903, Note_off_c, 4, 42, 64
1, 398908, Note_off_c, 4, 50, 64
1, 398912, Note_off_c, 4, 66, 64
1, 398913, Note_off_c, 1, 78, 64
1, 398913, Note_on_c, 3, 80, 127
1, 398914, Note_on_c, 2, 69, 127
1, 398914, Note_on_c, 4, 50, 126
1, 399000, Note_off_c, 4, 45, 64
1, 399010, Note_off_c, 2, 69, 64
1, 399016, Note_on_c, 4, 39, 124
1, 399017, Note_off_c, 3, 80, 64
1, 399018, Note_on_c, 3, 81, 127
1, 399018, Note_on_c, 2, 69, 127
1, 399034, Note_on_c, 4, 42, 124
1, 399042, Note_off_c, 4, 50, 64
1, 399049, Note_on_c, 4, 45, 124
1, 399069, Note_on_c, 4, 51, 126
1, 399076, Note_off_c, 4, 39, 64
1, 399111, Note_off_c, 4, 42, 64
1, 399116, Note_off_c, 4, 51, 64
1, 399120, Note_off_c, 2, 69, 64
1, 399120, Note_off_c, 3, 81, 64
1, 399121, Note_on_c, 1, 83, 127
1, 399121, Note_on_c, 2, 71, 127
1, 399122, Note_on_c, 4, 51, 126
1, 399206, Note_off_c, 4, 45, 64
1, 399223, Note_on_c, 4, 40, 124
1, 399224, Note_off_c, 2, 71, 64
1, 399224, Note_off_c, 1, 83, 64
1, 399225, Note_on_c, 3, 80, 127
1, 399225, Note_on_c, 2, 69, 127
1, 399240, Note_on_c, 4, 44, 124
1, 399250, Note_off_c, 4, 51, 64
1, 399260, Note_on_c, 4, 47, 124
1, 399277, Note_on_c, 4, 52, 126
1, 399287, Note_off_c, 4, 40, 64
1, 399321, Note_off_c, 4, 44, 64
1, 399328, Note_off_c, 4, 52, 64
1, 399332, Note_off_c, 2, 69, 64
1, 399332, Note_off_c, 3, 80, 64
1, 399333, Note_on_c, 2, 76, 127
1, 399333, Note_on_c, 4, 64, 127
1, 399334, Note_on_c, 4, 52, 126
1, 399420, Note_off_c, 4, 47, 64
1, 399430, Note_off_c, 4, 52, 64
1, 399439, Note_off_c, 4, 64, 64
1, 399440, Note_off_c, 2, 76, 64
1, 399440, Note_on_c, 3, 81, 127
1, 399440, Note_on_c, 2, 69, 127
1, 399441, Note_on_c, 4, 52, 126
1, 399532, Note_off_c, 4, 52, 64
1, 399540, Note_off_c, 2, 69, 64
1, 399540, Note_off_c, 3, 81, 64
1, 399541, Note_on_c, 1, 83, 127
1, 399541, Note_on_c, 2, 71, 127
1, 399542, Note_on_c, 4, 52, 126
1, 399644, Note_off_c, 2, 71, 64
1, 399644, Note_on_c, 4, 45, 124
1, 399645, Note_off_c, 1, 83, 64
1, 399645, Note_on_c, 2, 73, 127
1, 399655, Note_off_c, 4, 52, 64
1, 399659, Note_on_c, 1, 85, 127
1, 399661, Note_on_c, 4, 49, 126
1, 399678, Note_on_c, 4, 52, 126
1, 399696, Note_on_c, 4, 57, 126
1, 399703, Note_off_c, 4, 45, 64
1, 399738, Note_off_c, 4, 49, 64
1, 399745, Note_off_c, 4, 57, 64
1, 399749, Note_on_c, 4, 57, 126
1, 399838, Note_off_c, 4, 52, 64
1, 399847, Note_off_c, 4, 57, 64
1, 399855, Note_off_c, 2, 73, 64
1, 399855, Note_on_c, 3, 81, 127
1, 399856, Note_on_c, 2, 69, 127
1, 399856, Note_on_c, 4, 57, 126
1, 399868, Note_off_c, 1, 85, 64
1, 399949, Note_off_c, 4, 57, 64
1, 399957, Note_off_c, 2, 69, 64
1, 399957, Note_off_c, 3, 81, 64
1, 399958, Note_on_c, 1, 83, 127
1, 399958, Note_on_c, 2, 71, 127
1, 399959, Note_on_c, 4, 57, 126
1, 400059, Note_on_c, 4, 45, 124
1, 400060, Note_off_c, 2, 71, 64
1, 400060, Note_off_c, 1, 83, 64
1, 400061, Note_on_c, 2, 73, 127
1, 400073, Note_on_c, 1, 85, 127
1, 400077, Note_on_c, 4, 49, 126
1, 400094, Note_off_c, 4, 57, 64
1, 400094, Note_on_c, 4, 52, 126
1, 400110, Note_on_c, 4, 57, 126
1, 400118, Note_off_c, 4, 45, 64
1, 400154, Note_off_c, 4, 49, 64
1, 400160, Note_off_c, 4, 57, 64
1, 400164, Note_off_c, 2, 73, 64
1, 400164, Note_on_c, 1, 83, 127
1, 400165, Note_on_c, 2, 71, 127
1, 400165, Note_on_c, 4, 57, 126
1, 400179, Note_off_c, 1, 85, 64
1, 400252, Note_off_c, 4, 52, 64
1, 400262, Note_off_c, 4, 57, 64
1, 400270, Note_off_c, 2, 71, 64
1, 400270, Note_off_c, 1, 83, 64
1, 400271, Note_on_c, 3, 81, 127
1, 400271, Note_on_c, 2, 69, 127
1, 400272, Note_on_c, 4, 57, 126
1, 400364, Note_off_c, 2, 69, 64
1, 400364, Note_off_c, 4, 57, 64
1, 400371, Note_off_c, 3, 81, 64
1, 400371, Note_on_c, 3, 80, 127
1, 400372, Note_on_c, 2, 69, 127
1, 400372, Note_on_c, 4, 57, 126
1, 400472, Note_on_c, 4, 38, 124
1, 400473, Note_off_c, 2, 69, 64
1, 400473, Note_off_c, 3, 80, 64
1, 400474, Note_on_c, 1, 78, 127
1, 400474, Note_on_c, 4, 66, 127
1, 400489, Note_on_c, 4, 42, 124
1, 400507, Note_on_c, 4, 45, 124
1, 400509, Note_off_c, 4, 57, 64
1, 400526, Note_on_c, 4, 50, 126
1, 400534, Note_off_c, 4, 38, 64
1, 400570, Note_off_c, 4, 42, 64
1, 400576, Note_off_c, 4, 50, 64
1, 400580, Note_off_c, 4, 66, 64
1, 400580, Note_off_c, 1, 78, 64
1, 400581, Note_on_c, 1, 83, 127
1, 400581, Note_on_c, 2, 71, 127
1, 400582, Note_on_c, 4, 50, 126
1, 400668, Note_off_c, 4, 45, 64
1, 400686, Note_on_c, 4, 40, 124
1, 400688, Note_off_c, 2, 71, 64
1, 400688, Note_off_c, 1, 83, 64
1, 400689, Note_on_c, 3, 80, 127
1, 400689, Note_on_c, 2, 69, 127
1, 400703, Note_on_c, 4, 44, 124
1, 400712, Note_off_c, 4, 50, 64
1, 400720, Note_on_c, 4, 47, 124
1, 400738, Note_on_c, 4, 52, 126
1, 400745, Note_off_c, 4, 40, 64
1, 400778, Note_off_c, 4, 44, 64
1, 400785, Note_off_c, 4, 52, 64
1, 400787, Note_off_c, 2, 69, 64
1, 400788, Note_off_c, 3, 80, 64
1, 400788, Note_on_c, 2, 76, 127
1, 400788, Note_on_c, 4, 64, 127
1, 400789, Note_on_c, 4, 52, 126
1, 400872, Note_off_c, 4, 47, 64
1, 400888, Note_off_c, 4, 64, 64
1, 400888, Note_off_c, 4, 52, 64
1, 400889, Note_off_c, 2, 76, 64
1, 400889, Note_on_c, 3, 81, 127
1, 400890, Note_on_c, 4, 45, 124
1, 400890, Note_on_c, 2, 69, 127
1, 401112, Note_off_c, 3, 81, 64
1, 401115, Note_off_c, 2, 69, 64
1, 401119, Note_on_c, 3, 81, 127
1, 401120, Note_on_c, 2, 69, 127
1, 401226, Note_off_c, 2, 69, 64
1, 401226, Note_off_c, 3, 81, 64
1, 401227, Note_on_c, 1, 83, 127
1, 401227, Note_on_c, 2, 71, 127
1, 401318, Note_off_c, 4, 45, 64
1, 401324, Note_off_c, 2, 71, 64
1, 401325, Note_off_c, 1, 83, 64
1, 401325, Note_on_c, 1, 83, 127
1, 401326, Note_on_c, 2, 71, 127
1, 401326, Note_on_c, 4, 45, 124
1, 401327, Note_off_c, 2, 71, 64
1, 401327, Note_off_c, 1, 83, 64
1, 401328, Note_on_c, 2, 73, 127
1, 401339, Note_on_c, 4, 49, 126
1, 401343, Note_on_c, 1, 85, 127
1, 401354, Note_on_c, 4, 52, 126
1, 401378, Note_on_c, 4, 57, 126
1, 401387, Note_off_c, 4, 45, 64
1, 401419, Note_off_c, 4, 49, 64
1, 401429, Note_off_c, 4, 57, 64
1, 401432, Note_on_c, 4, 57, 126
1, 401513, Note_off_c, 4, 52, 64
1, 401529, Note_off_c, 4, 57, 64
1, 401538, Note_off_c, 2, 73, 64
1, 401539, Note_on_c, 3, 81, 127
1, 401539, Note_on_c, 2, 69, 127
1, 401540, Note_on_c, 4, 57, 126
1, 401556, Note_off_c, 1, 85, 64
1, 401636, Note_off_c, 4, 57, 64
1, 401643, Note_off_c, 2, 69, 64
1, 401644, Note_off_c, 3, 81, 64
1, 401644, Note_on_c, 1, 83, 127
1, 401645, Note_on_c, 4, 57, 126
1, 401645, Note_on_c, 2, 71, 127
1, 401746, Note_off_c, 2, 71, 64
1, 401746, Note_on_c, 4, 45, 124
1, 401747, Note_off_c, 1, 83, 64
1, 401747, Note_on_c, 2, 73, 127
1, 401759, Note_on_c, 4, 49, 126
1, 401765, Note_on_c, 1, 85, 127
1, 401774, Note_on_c, 4, 52, 126
1, 401782, Note_off_c, 4, 57, 64
1, 401799, Note_on_c, 4, 57, 126
1, 401807, Note_off_c, 4, 45, 64
1, 401840, Note_off_c, 4, 49, 64
1, 401849, Note_off_c, 4, 57, 64
1, 401853, Note_off_c, 2, 73, 64
1, 401854, Note_on_c, 1, 83, 127
1, 401854, Note_on_c, 2, 71, 127
1, 401854, Note_on_c, 4, 57, 126
1, 401870, Note_off_c, 1, 85, 64
1, 401936, Note_off_c, 4, 52, 64
1, 401953, Note_off_c, 4, 57, 64
1, 401961, Note_off_c, 2, 71, 64
1, 401961, Note_off_c, 1, 83, 64
1, 401962, Note_on_c, 3, 81, 127
1, 401962, Note_on_c, 2, 69, 127
1, 401963, Note_on_c, 4, 57, 126
1, 402055, Note_off_c, 2, 69, 64
1, 402055, Note_off_c, 4, 57, 64
1, 402063, Note_off_c, 3, 81, 64
1, 402064, Note_on_c, 3, 80, 127
1, 402064, Note_on_c, 2, 69, 127
1, 402065, Note_on_c, 4, 57, 126
1, 402169, Note_off_c, 2, 69, 64
1, 402169, Note_on_c, 4, 38, 124
1, 402170, Note_off_c, 3, 80, 64
1, 402170, Note_on_c, 1, 78, 127
1, 402171, Note_on_c, 4, 66, 127
1, 402186, Note_on_c, 4, 42, 124
1, 402204, Note_on_c, 4, 45, 124
1, 402205, Note_off_c, 4, 57, 64
1, 402223, Note_on_c, 4, 50, 126
1, 402230, Note_off_c, 4, 38, 64
1, 402267, Note_off_c, 4, 42, 64
1, 402273, Note_off_c, 4, 50, 64
1, 402276, Note_off_c, 4, 66, 64
1, 402277, Note_off_c, 1, 78, 64
1, 402277, Note_on_c, 3, 80, 127
1, 402278, Note_on_c, 2, 69, 127
1, 402278, Note_on_c, 4, 50, 126
1, 402365, Note_off_c, 4, 45, 64
1, 402372, Note_off_c, 2, 69, 64
1, 402380, Note_on_c, 4, 39, 124
1, 402382, Note_off_c, 3, 80, 64
1, 402383, Note_on_c, 3, 81, 127
1, 402383, Note_on_c, 2, 69, 127
1, 402398, Note_on_c, 4, 42, 124
1, 402406, Note_off_c, 4, 50, 64
1, 402414, Note_on_c, 4, 45, 124
1, 402431, Note_on_c, 4, 51, 126
1, 402439, Note_off_c, 4, 39, 64
1, 402475, Note_off_c, 4, 42, 64
1, 402481, Note_off_c, 4, 51, 64
1, 402485, Note_off_c, 2, 69, 64
1, 402485, Note_off_c, 3, 81, 64
1, 402486, Note_on_c, 1, 83, 127
1, 402486, Note_on_c, 2, 71, 127
1, 402487, Note_on_c, 4, 51, 126
1, 402569, Note_off_c, 4, 45, 64
1, 402587, Note_on_c, 4, 40, 124
1, 402588, Note_off_c, 2, 71, 64
1, 402589, Note_off_c, 1, 83, 64
1, 402589, Note_on_c, 3, 80, 127
1, 402590, Note_on_c, 2, 69, 127
1, 402606, Note_on_c, 4, 44, 124
1, 402615, Note_off_c, 4, 51, 64
1, 402623, Note_on_c, 4, 47, 124
1, 402642, Note_on_c, 4, 52, 126
1, 402650, Note_off_c, 4, 40, 64
1, 402686, Note_off_c, 4, 44, 64
1, 402692, Note_off_c, 4, 52, 64
1, 402696, Note_off_c, 2, 69, 64
1, 402696, Note_off_c, 3, 80, 64
1, 402697, Note_on_c, 2, 76, 127
1, 402697, Note_on_c, 4, 64, 127
1, 402698, Note_on_c, 4, 52, 126
1, 402785, Note_off_c, 4, 47, 64
1, 402795, Note_off_c, 4, 52, 64
1, 402803, Note_off_c, 4, 64, 64
1, 402803, Note_off_c, 2, 76, 64
1, 402804, Note_on_c, 3, 81, 127
1, 402804, Note_on_c, 2, 69, 127
1, 402804, Note_on_c, 4, 52, 126
1, 402897, Note_off_c, 4, 52, 64
1, 402904, Note_off_c, 2, 69, 64
1, 402905, Note_off_c, 3, 81, 64
1, 402905, Note_on_c, 1, 83, 127
1, 402906, Note_on_c, 2, 71, 127
1, 402906, Note_on_c, 4, 52, 126
1, 403008, Note_on_c, 4, 45, 124
1, 403009, Note_off_c, 1, 83, 64
1, 403009, Note_off_c, 2, 71, 64
1, 403010, Note_on_c, 2, 73, 127
1, 403020, Note_off_c, 4, 52, 64
1, 403021, Note_on_c, 1, 85, 127
1, 403025, Note_on_c, 4, 49, 126
1, 403044, Note_on_c, 4, 52, 126
1, 403059, Note_on_c, 4, 57, 126
1, 403068, Note_off_c, 4, 45, 64
1, 403104, Note_off_c, 4, 49, 64
1, 403109, Note_off_c, 4, 57, 64
1, 403113, Note_on_c, 4, 57, 126
1, 403202, Note_off_c, 4, 52, 64
1, 403212, Note_off_c, 4, 57, 64
1, 403220, Note_off_c, 2, 73, 64
1, 403220, Note_on_c, 3, 81, 127
1, 403220, Note_on_c, 2, 69, 127
1, 403221, Note_on_c, 4, 57, 126
1, 403233, Note_off_c, 1, 85, 64
1, 403313, Note_off_c, 4, 57, 64
1, 403321, Note_off_c, 2, 69, 64
1, 403321, Note_off_c, 3, 81, 64
1, 403322, Note_on_c, 1, 83, 127
1, 403322, Note_on_c, 2, 71, 127
1, 403323, Note_on_c, 4, 57, 126
1, 403422, Note_on_c, 4, 45, 124
1, 403424, Note_off_c, 2, 71, 64
1, 403424, Note_off_c, 1, 83, 64
1, 403425, Note_on_c, 2, 73, 127
1, 403438, Note_on_c, 1, 85, 127
1, 403440, Note_on_c, 4, 49, 126
1, 403458, Note_off_c, 4, 57, 64
1, 403458, Note_on_c, 4, 52, 126
1, 403475, Note_on_c, 4, 57, 126
1, 403483, Note_off_c, 4, 45, 64
1, 403518, Note_off_c, 4, 49, 64
1, 403525, Note_off_c, 4, 57, 64
1, 403529, Note_off_c, 2, 73, 64
1, 403530, Note_on_c, 1, 83, 127
1, 403530, Note_on_c, 2, 71, 127
1, 403531, Note_on_c, 4, 57, 126
1, 403543, Note_off_c, 1, 85, 64
1, 403617, Note_off_c, 4, 52, 64
1, 403626, Note_off_c, 4, 57, 64
1, 403634, Note_off_c, 2, 71, 64
1, 403635, Note_off_c, 1, 83, 64
1, 403635, Note_on_c, 3, 81, 127
1, 403636, Note_on_c, 2, 69, 127
1, 403636, Note_on_c, 4, 57, 126
1, 403727, Note_off_c, 4, 57, 64
1, 403727, Note_off_c, 2, 69, 64
1, 403735, Note_off_c, 3, 81, 64
1, 403736, Note_on_c, 3, 80, 127
1, 403736, Note_on_c, 2, 69, 127
1, 403737, Note_on_c, 4, 57, 126
1, 403837, Note_off_c, 2, 69, 64
1, 403837, Note_on_c, 4, 38, 124
1, 403838, Note_off_c, 3, 80, 64
1, 403838, Note_on_c, 1, 78, 127
1, 403839, Note_on_c, 4, 66, 127
1, 403854, Note_on_c, 4, 42, 124
1, 403872, Note_on_c, 4, 45, 124
1, 403873, Note_off_c, 4, 57, 64
1, 403891, Note_on_c, 4, 50, 126
1, 403898, Note_off_c, 4, 38, 64
1, 403935, Note_off_c, 4, 42, 64
1, 403941, Note_off_c, 4, 50, 64
1, 403944, Note_off_c, 1, 78, 64
1, 403944, Note_off_c, 4, 66, 64
1, 403945, Note_on_c, 1, 83, 127
1, 403946, Note_on_c, 2, 71, 127
1, 403946, Note_on_c, 4, 50, 126
1, 404033, Note_off_c, 4, 45, 64
1, 404050, Note_on_c, 4, 40, 124
1, 404051, Note_off_c, 2, 71, 64
1, 404051, Note_off_c, 1, 83, 64
1, 404052, Note_on_c, 3, 80, 127
1, 404052, Note_on_c, 2, 69, 127
1, 404068, Note_on_c, 4, 44, 124
1, 404076, Note_off_c, 4, 50, 64
1, 404084, Note_on_c, 4, 47, 124
1, 404101, Note_on_c, 4, 52, 126
1, 404109, Note_off_c, 4, 40, 64
1, 404143, Note_off_c, 4, 44, 64
1, 404149, Note_off_c, 4, 52, 64
1, 404153, Note_off_c, 2, 69, 64
1, 404153, Note_off_c, 3, 80, 64
1, 404153, Note_on_c, 2, 76, 127
1, 404154, Note_on_c, 4, 64, 127
1, 404154, Note_on_c, 4, 52, 126
1, 404234, Note_off_c, 4, 47, 64
1, 404252, Note_off_c, 4, 52, 64
1, 404252, Note_off_c, 4, 64, 64
1, 404253, Note_off_c, 2, 76, 64
1, 404253, Note_on_c, 3, 81, 127
1, 404254, Note_on_c, 2, 69, 127
1, 404254, Note_on_c, 4, 52, 126
1, 404255, Note_on_c, 4, 45, 124
1, 404470, Note_off_c, 3, 81, 64
1, 404472, Note_on_c, 1, 85, 127
1, 404527, Note_on_c, 1, 86, 127
1, 404533, Note_off_c, 1, 85, 64
1, 404581, Note_on_c, 1, 85, 127
1, 404587, Note_off_c, 1, 86, 64
1, 404633, Note_on_c, 1, 83, 127
1, 404639, Note_off_c, 1, 85, 64
1, 404688, Note_off_c, 4, 45, 64
1, 404689, Note_off_c, 4, 52, 64
1, 404689, Note_off_c, 2, 69, 64
1, 404690, Note_on_c, 3, 81, 127
1, 404690, Note_on_c, 4, 54, 126
1, 404692, Note_off_c, 1, 83, 64
1, 404740, Note_on_c, 1, 83, 127
1, 404744, Note_off_c, 3, 81, 64
1, 404792, Note_on_c, 3, 81, 127
1, 404793, Note_on_c, 4, 61, 127
1, 404793, Note_on_c, 4, 57, 126
1, 404797, Note_off_c, 1, 83, 64
1, 404818, Note_off_c, 4, 54, 64
1, 404845, Note_on_c, 3, 80, 127
1, 404851, Note_off_c, 3, 81, 64
1, 404889, Note_off_c, 4, 57, 64
1, 404890, Note_off_c, 4, 61, 64
1, 404898, Note_on_c, 1, 78, 127
1, 404898, Note_on_c, 4, 61, 127
1, 404899, Note_on_c, 4, 57, 126
1, 404904, Note_off_c, 3, 80, 64
1, 404952, Note_on_c, 3, 81, 127
1, 404958, Note_off_c, 1, 78, 64
1, 404997, Note_off_c, 4, 57, 64
1, 404997, Note_off_c, 4, 61, 64
1, 405005, Note_on_c, 3, 80, 127
1, 405006, Note_on_c, 4, 61, 127
1, 405006, Note_on_c, 4, 57, 126
1, 405010, Note_off_c, 3, 81, 64
1, 405058, Note_on_c, 1, 78, 127
1, 405064, Note_off_c, 3, 80, 64
1, 405102, Note_off_c, 4, 57, 64
1, 405103, Note_off_c, 4, 61, 64
1, 405113, Note_on_c, 2, 77, 127
1, 405113, Note_on_c, 4, 56, 126
1, 405118, Note_off_c, 1, 78, 64
1, 405166, Note_on_c, 1, 78, 127
1, 405171, Note_off_c, 2, 77, 64
1, 405219, Note_on_c, 3, 80, 127
1, 405220, Note_on_c, 4, 61, 127
1, 405220, Note_on_c, 4, 59, 127
1, 405224, Note_off_c, 1, 78, 64
1, 405243, Note_off_c, 4, 56, 64
1, 405268, Note_on_c, 2, 77, 127
1, 405278, Note_off_c, 3, 80, 64
1, 405320, Note_off_c, 4, 59, 64
1, 405321, Note_off_c, 4, 61, 64
1, 405323, Note_on_c, 2, 73, 127
1, 405324, Note_on_c, 4, 61, 127
1, 405324, Note_on_c, 4, 59, 127
1, 405332, Note_off_c, 2, 77, 64
1, 405376, Note_off_c, 2, 73, 64
1, 405376, Note_on_c, 2, 75, 127
1, 405427, Note_off_c, 4, 59, 64
1, 405427, Note_off_c, 4, 61, 64
1, 405430, Note_off_c, 2, 75, 64
1, 405430, Note_on_c, 2, 77, 127
1, 405431, Note_on_c, 4, 61, 127
1, 405431, Note_on_c, 4, 59, 127
1, 405478, Note_on_c, 2, 73, 127
1, 405488, Note_off_c, 2, 77, 64
1, 405529, Note_off_c, 4, 59, 64
1, 405530, Note_off_c, 4, 61, 64
1, 405530, Note_on_c, 1, 78, 127
1, 405531, Note_on_c, 4, 54, 126
1, 405540, Note_off_c, 2, 73, 64
1, 405585, Note_on_c, 2, 77, 127
1, 405591, Note_off_c, 1, 78, 64
1, 405639, Note_on_c, 1, 78, 127
1, 405639, Note_on_c, 4, 61, 127
1, 405640, Note_on_c, 4, 57, 126
1, 405644, Note_off_c, 2, 77, 64
1, 405665, Note_off_c, 4, 54, 64
1, 405692, Note_on_c, 3, 80, 127
1, 405698, Note_off_c, 1, 78, 64
1, 405744, Note_off_c, 4, 57, 64
1, 405744, Note_off_c, 4, 61, 64
1, 405747, Note_on_c, 4, 61, 127
1, 405747, Note_on_c, 3, 81, 127
1, 405748, Note_on_c, 4, 57, 126
1, 405751, Note_off_c, 3, 80, 64
1, 405800, Note_on_c, 3, 80, 127
1, 405804, Note_off_c, 3, 81, 64
1, 405849, Note_off_c, 4, 57, 64
1, 405850, Note_off_c, 4, 61, 64
1, 405852, Note_on_c, 3, 81, 127
1, 405853, Note_on_c, 4, 61, 127
1, 405853, Note_on_c, 4, 57, 126
1, 405857, Note_off_c, 3, 80, 64
1, 405905, Note_on_c, 1, 83, 127
1, 405911, Note_off_c, 3, 81, 64
1, 405957, Note_off_c, 4, 57, 64
1, 405957, Note_off_c, 4, 61, 64
1, 405958, Note_on_c, 1, 85, 127
1, 405959, Note_on_c, 4, 53, 126
1, 405964, Note_off_c, 1, 83, 64
1, 406012, Note_on_c, 1, 84, 127
1, 406017, Note_off_c, 1, 85, 64
1, 406066, Note_on_c, 1, 85, 127
1, 406066, Note_on_c, 4, 61, 127
1, 406067, Note_on_c, 4, 56, 126
1, 406072, Note_off_c, 1, 84, 64
1, 406093, Note_off_c, 4, 53, 64
1, 406119, Note_on_c, 1, 84, 127
1, 406125, Note_off_c, 1, 85, 64
1, 406164, Note_off_c, 4, 61, 64
1, 406164, Note_off_c, 4, 56, 64
1, 406172, Note_on_c, 1, 85, 127
1, 406173, Note_on_c, 4, 61, 127
1, 406173, Note_on_c, 4, 56, 126
1, 406176, Note_off_c, 1, 84, 64
1, 406223, Note_on_c, 1, 86, 127
1, 406229, Note_off_c, 1, 85, 64
1, 406267, Note_off_c, 4, 56, 64
1, 406268, Note_off_c, 4, 61, 64
1, 406274, Note_on_c, 1, 85, 127
1, 406274, Note_on_c, 4, 61, 127
1, 406275, Note_on_c, 4, 56, 126
1, 406279, Note_off_c, 1, 86, 64
1, 406325, Note_on_c, 1, 83, 127
1, 406331, Note_off_c, 1, 85, 64
1, 406377, Note_off_c, 4, 61, 64
1, 406377, Note_off_c, 4, 56, 64
1, 406378, Note_on_c, 3, 81, 127
1, 406378, Note_on_c, 4, 54, 126
1, 406384, Note_off_c, 1, 83, 64
1, 406432, Note_on_c, 1, 83, 127
1, 406436, Note_off_c, 3, 81, 64
1, 406484, Note_on_c, 3, 81, 127
1, 406485, Note_on_c, 4, 61, 127
1, 406485, Note_on_c, 4, 57, 126
1, 406489, Note_off_c, 1, 83, 64
1, 406510, Note_off_c, 4, 54, 64
1, 406537, Note_on_c, 3, 80, 127
1, 406543, Note_off_c, 3, 81, 64
1, 406589, Note_off_c, 4, 57, 64
1, 406589, Note_off_c, 4, 61, 64
1, 406592, Note_on_c, 1, 78, 127
1, 406592, Note_on_c, 4, 61, 127
1, 406593, Note_on_c, 4, 57, 126
1, 406596, Note_off_c, 3, 80, 64
1, 406644, Note_on_c, 3, 81, 127
1, 406650, Note_off_c, 1, 78, 64
1, 406694, Note_off_c, 4, 57, 64
1, 406695, Note_off_c, 4, 61, 64
1, 406697, Note_on_c, 3, 80, 127
1, 406698, Note_on_c, 4, 61, 127
1, 406698, Note_on_c, 4, 57, 126
1, 406702, Note_off_c, 3, 81, 64
1, 406750, Note_on_c, 1, 78, 127
1, 406754, Note_off_c, 3, 80, 64
1, 406800, Note_off_c, 4, 57, 64
1, 406800, Note_off_c, 4, 61, 64
1, 406803, Note_on_c, 2, 76, 127
1, 406803, Note_on_c, 4, 56, 126
1, 406808, Note_off_c, 1, 78, 64
1, 406856, Note_on_c, 1, 78, 127
1, 406861, Note_off_c, 2, 76, 64
1, 406909, Note_on_c, 3, 80, 127
1, 406910, Note_on_c, 4, 64, 127
1, 406910, Note_on_c, 4, 61, 127
1, 406914, Note_off_c, 1, 78, 64
1, 406935, Note_off_c, 4, 56, 64
1, 406962, Note_on_c, 2, 76, 127
1, 406968, Note_off_c, 3, 80, 64
1, 407012, Note_off_c, 4, 61, 64
1, 407013, Note_off_c, 4, 64, 64
1, 407015, Note_on_c, 2, 73, 127
1, 407016, Note_on_c, 4, 64, 127
1, 407016, Note_on_c, 4, 61, 127
1, 407020, Note_off_c, 2, 76, 64
1, 407068, Note_on_c, 2, 75, 127
1, 407074, Note_off_c, 2, 73, 64
1, 407120, Note_off_c, 4, 61, 64
1, 407120, Note_off_c, 4, 64, 64
1, 407123, Note_on_c, 2, 76, 127
1, 407123, Note_on_c, 4, 64, 127
1, 407124, Note_on_c, 4, 61, 127
1, 407127, Note_off_c, 2, 75, 64
1, 407173, Note_on_c, 2, 73, 127
1, 407179, Note_off_c, 2, 76, 64
1, 407223, Note_off_c, 4, 61, 64
1, 407224, Note_off_c, 4, 64, 64
1, 407226, Note_on_c, 2, 75, 127
1, 407227, Note_on_c, 4, 56, 126
1, 407231, Note_off_c, 2, 73, 64
1, 407279, Note_on_c, 2, 76, 127
1, 407285, Note_off_c, 2, 75, 64
1, 407332, Note_on_c, 1, 78, 127
1, 407332, Note_on_c, 4, 66, 127
1, 407333, Note_on_c, 4, 63, 127
1, 407340, Note_off_c, 2, 76, 64
1, 407358, Note_off_c, 4, 56, 64
1, 407385, Note_on_c, 2, 75, 127
1, 407392, Note_off_c, 1, 78, 64
1, 407435, Note_off_c, 4, 63, 64
1, 407435, Note_off_c, 4, 66, 64
1, 407437, Note_on_c, 2, 72, 127
1, 407438, Note_on_c, 4, 66, 127
1, 407438, Note_on_c, 4, 63, 127
1, 407446, Note_off_c, 2, 75, 64
1, 407492, Note_on_c, 2, 73, 127
1, 407501, Note_off_c, 2, 72, 64
1, 407543, Note_off_c, 4, 63, 64
1, 407544, Note_off_c, 4, 66, 64
1, 407546, Note_on_c, 2, 75, 127
1, 407546, Note_on_c, 4, 66, 127
1, 407547, Note_on_c, 4, 63, 127
1, 407555, Note_off_c, 2, 73, 64
1, 407597, Note_on_c, 2, 72, 127
1, 407605, Note_off_c, 2, 75, 64
1, 407646, Note_off_c, 4, 63, 64
1, 407646, Note_off_c, 4, 66, 64
1, 407649, Note_on_c, 2, 73, 127
1, 407650, Note_on_c, 4, 64, 127
1, 407650, Note_on_c, 4, 61, 127
1, 407656, Note_off_c, 2, 72, 64
1, 407860, Note_off_c, 2, 73, 64
1, 407864, Note_on_c, 1, 85, 127
1, 407912, Note_off_c, 1, 85, 64
1, 407916, Note_on_c, 1, 86, 127
1, 407964, Note_off_c, 1, 86, 64
1, 407966, Note_on_c, 1, 85, 127
1, 408017, Note_off_c, 1, 85, 64
1, 408020, Note_on_c, 1, 83, 127
1, 408072, Note_off_c, 1, 83, 64
1, 408073, Note_off_c, 4, 61, 64
1, 408074, Note_off_c, 4, 64, 64
1, 408074, Note_on_c, 3, 81, 127
1, 408075, Note_on_c, 4, 54, 126
1, 408125, Note_off_c, 3, 81, 64
1, 408127, Note_on_c, 1, 83, 127
1, 408177, Note_off_c, 1, 83, 64
1, 408179, Note_on_c, 3, 81, 127
1, 408180, Note_on_c, 4, 61, 127
1, 408180, Note_on_c, 4, 57, 126
1, 408205, Note_off_c, 4, 54, 64
1, 408228, Note_off_c, 3, 81, 64
1, 408232, Note_on_c, 3, 80, 127
1, 408283, Note_off_c, 3, 80, 64
1, 408284, Note_off_c, 4, 57, 64
1, 408284, Note_off_c, 4, 61, 64
1, 408285, Note_on_c, 1, 78, 127
1, 408285, Note_on_c, 4, 61, 127
1, 408286, Note_on_c, 4, 57, 126
1, 408336, Note_off_c, 1, 78, 64
1, 408340, Note_on_c, 3, 81, 127
1, 408390, Note_off_c, 3, 81, 64
1, 408390, Note_off_c, 4, 57, 64
1, 408391, Note_off_c, 4, 61, 64
1, 408392, Note_on_c, 4, 61, 127
1, 408392, Note_on_c, 4, 57, 126
1, 408392, Note_on_c, 3, 80, 127
1, 408443, Note_off_c, 3, 80, 64
1, 408445, Note_on_c, 1, 78, 127
1, 408497, Note_off_c, 4, 57, 64
1, 408497, Note_off_c, 4, 61, 64
1, 408497, Note_off_c, 1, 78, 64
1, 408500, Note_on_c, 2, 77, 127
1, 408500, Note_on_c, 4, 56, 126
1, 408551, Note_off_c, 2, 77, 64
1, 408554, Note_on_c, 1, 78, 127
1, 408604, Note_off_c, 1, 78, 64
1, 408606, Note_on_c, 3, 80, 127
1, 408607, Note_on_c, 4, 61, 127
1, 408607, Note_on_c, 4, 59, 127
1, 408632, Note_off_c, 4, 56, 64
1, 408659, Note_on_c, 2, 77, 127
1, 408667, Note_off_c, 3, 80, 64
1, 408708, Note_off_c, 4, 59, 64
1, 408709, Note_off_c, 4, 61, 64
1, 408710, Note_on_c, 2, 73, 127
1, 408710, Note_on_c, 4, 61, 127
1, 408711, Note_on_c, 4, 59, 127
1, 408719, Note_off_c, 2, 77, 64
1, 408765, Note_off_c, 2, 73, 64
1, 408765, Note_on_c, 2, 75, 127
1, 408814, Note_off_c, 4, 61, 64
1, 408814, Note_off_c, 4, 59, 64
1, 408816, Note_off_c, 2, 75, 64
1, 408817, Note_on_c, 2, 77, 127
1, 408817, Note_on_c, 4, 61, 127
1, 408818, Note_on_c, 4, 59, 127
1, 408866, Note_on_c, 2, 73, 127
1, 408876, Note_off_c, 2, 77, 64
1, 408916, Note_off_c, 4, 59, 64
1, 408917, Note_off_c, 4, 61, 64
1, 408919, Note_on_c, 1, 78, 127
1, 408920, Note_on_c, 4, 54, 126
1, 408928, Note_off_c, 2, 73, 64
1, 408970, Note_off_c, 1, 78, 64
1, 408972, Note_on_c, 2, 77, 127
1, 409024, Note_off_c, 2, 77, 64
1, 409026, Note_on_c, 1, 78, 127
1, 409026, Note_on_c, 4, 61, 127
1, 409027, Note_on_c, 4, 57, 126
1, 409054, Note_off_c, 4, 54, 64
1, 409077, Note_off_c, 1, 78, 64
1, 409080, Note_on_c, 3, 80, 127
1, 409130, Note_off_c, 3, 80, 64
1, 409131, Note_off_c, 4, 57, 64
1, 409131, Note_off_c, 4, 61, 64
1, 409132, Note_on_c, 4, 61, 127
1, 409132, Note_on_c, 3, 81, 127
1, 409133, Note_on_c, 4, 57, 126
1, 409183, Note_off_c, 3, 81, 64
1, 409185, Note_on_c, 3, 80, 127
1, 409237, Note_off_c, 3, 80, 64
1, 409237, Note_off_c, 4, 57, 64
1, 409238, Note_off_c, 4, 61, 64
1, 409238, Note_on_c, 3, 81, 127
1, 409239, Note_on_c, 4, 61, 127
1, 409239, Note_on_c, 4, 57, 126
1, 409290, Note_off_c, 3, 81, 64
1, 409294, Note_on_c, 1, 83, 127
1, 409344, Note_off_c, 1, 83, 64
1, 409344, Note_off_c, 4, 57, 64
1, 409344, Note_off_c, 4, 61, 64
1, 409345, Note_on_c, 4, 53, 126
1, 409345, Note_on_c, 1, 85, 127
1, 409396, Note_off_c, 1, 85, 64
1, 409398, Note_on_c, 1, 84, 127
1, 409450, Note_off_c, 1, 84, 64
1, 409452, Note_on_c, 1, 85, 127
1, 409452, Note_on_c, 4, 61, 127
1, 409453, Note_on_c, 4, 56, 126
1, 409480, Note_off_c, 4, 53, 64
1, 409503, Note_off_c, 1, 85, 64
1, 409507, Note_on_c, 1, 84, 127
1, 409551, Note_off_c, 4, 56, 64
1, 409551, Note_off_c, 4, 61, 64
1, 409556, Note_off_c, 1, 84, 64
1, 409560, Note_on_c, 1, 85, 127
1, 409560, Note_on_c, 4, 61, 127
1, 409560, Note_on_c, 4, 56, 126
1, 409608, Note_off_c, 1, 85, 64
1, 409611, Note_on_c, 1, 86, 127
1, 409654, Note_off_c, 4, 56, 64
1, 409655, Note_off_c, 4, 61, 64
1, 409660, Note_off_c, 1, 86, 64
1, 409662, Note_on_c, 1, 85, 127
1, 409663, Note_on_c, 4, 61, 127
1, 409663, Note_on_c, 4, 56, 126
1, 409713, Note_off_c, 1, 85, 64
1, 409715, Note_on_c, 1, 83, 127
1, 409760, Note_off_c, 4, 56, 64
1, 409760, Note_off_c, 4, 61, 64
1, 409766, Note_off_c, 1, 83, 64
1, 409768, Note_on_c, 3, 81, 127
1, 409768, Note_on_c, 4, 54, 126
1, 409819, Note_off_c, 3, 81, 64
1, 409821, Note_on_c, 1, 83, 127
1, 409871, Note_off_c, 1, 83, 64
1, 409872, Note_on_c, 3, 81, 127
1, 409873, Note_on_c, 4, 61, 127
1, 409873, Note_on_c, 4, 57, 126
1, 409900, Note_off_c, 4, 54, 64
1, 409923, Note_off_c, 3, 81, 64
1, 409927, Note_on_c, 3, 80, 127
1, 409977, Note_off_c, 3, 80, 64
1, 409978, Note_off_c, 4, 57, 64
1, 409978, Note_off_c, 4, 61, 64
1, 409980, Note_on_c, 1, 78, 127
1, 409980, Note_on_c, 4, 61, 127
1, 409981, Note_on_c, 4, 57, 126
1, 410031, Note_off_c, 1, 78, 64
1, 410035, Note_on_c, 3, 81, 127
1, 410085, Note_off_c, 3, 81, 64
1, 410085, Note_off_c, 4, 57, 64
1, 410086, Note_off_c, 4, 61, 64
1, 410086, Note_on_c, 3, 80, 127
1, 410087, Note_on_c, 4, 61, 127
1, 410087, Note_on_c, 4, 57, 126
1, 410137, Note_off_c, 3, 80, 64
1, 410139, Note_on_c, 1, 78, 127
1, 410191, Note_off_c, 1, 78, 64
1, 410192, Note_off_c, 4, 57, 64
1, 410192, Note_off_c, 4, 61, 64
1, 410195, Note_on_c, 2, 76, 127
1, 410195, Note_on_c, 4, 56, 126
1, 410245, Note_off_c, 2, 76, 64
1, 410249, Note_on_c, 1, 78, 127
1, 410299, Note_off_c, 1, 78, 64
1, 410303, Note_on_c, 4, 64, 127
1, 410303, Note_on_c, 3, 80, 127
1, 410304, Note_on_c, 4, 61, 127
1, 410329, Note_off_c, 4, 56, 64
1, 410352, Note_off_c, 3, 80, 64
1, 410354, Note_on_c, 2, 76, 127
1, 410403, Note_off_c, 2, 76, 64
1, 410404, Note_off_c, 4, 64, 64
1, 410404, Note_off_c, 4, 61, 64
1, 410407, Note_on_c, 2, 73, 127
1, 410407, Note_on_c, 4, 64, 127
1, 410408, Note_on_c, 4, 61, 127
1, 410457, Note_off_c, 2, 73, 64
1, 410460, Note_on_c, 2, 75, 127
1, 410511, Note_off_c, 2, 75, 64
1, 410511, Note_off_c, 4, 61, 64
1, 410512, Note_off_c, 4, 64, 64
1, 410513, Note_on_c, 2, 76, 127
1, 410513, Note_on_c, 4, 64, 127
1, 410514, Note_on_c, 4, 61, 127
1, 410564, Note_off_c, 2, 76, 64
1, 410566, Note_on_c, 2, 73, 127
1, 410616, Note_off_c, 2, 73, 64
1, 410616, Note_off_c, 4, 61, 64
1, 410616, Note_off_c, 4, 64, 64
1, 410619, Note_on_c, 2, 75, 127
1, 410619, Note_on_c, 4, 56, 126
1, 410670, Note_off_c, 2, 75, 64
1, 410674, Note_on_c, 2, 76, 127
1, 410725, Note_on_c, 1, 78, 127
1, 410726, Note_on_c, 4, 66, 127
1, 410726, Note_on_c, 4, 63, 127
1, 410734, Note_off_c, 2, 76, 64
1, 410753, Note_off_c, 4, 56, 64
1, 410780, Note_on_c, 2, 75, 127
1, 410792, Note_off_c, 1, 78, 64
1, 410833, Note_off_c, 4, 63, 64
1, 410834, Note_off_c, 4, 66, 64
1, 410837, Note_on_c, 2, 72, 127
1, 410837, Note_on_c, 4, 66, 127
1, 410838, Note_on_c, 4, 63, 127
1, 410843, Note_off_c, 2, 75, 64
1, 410892, Note_on_c, 2, 73, 127
1, 410899, Note_off_c, 2, 72, 64
1, 410940, Note_off_c, 4, 66, 64
1, 410940, Note_off_c, 4, 63, 64
1, 410940, Note_on_c, 2, 75, 127
1, 410941, Note_on_c, 4, 66, 127
1, 410941, Note_on_c, 4, 63, 127
1, 410949, Note_off_c, 2, 73, 64
1, 410993, Note_on_c, 2, 72, 127
1, 411001, Note_off_c, 2, 75, 64
1, 411043, Note_off_c, 4, 63, 64
1, 411043, Note_off_c, 4, 66, 64
1, 411046, Note_on_c, 2, 73, 127
1, 411047, Note_on_c, 4, 64, 127
1, 411047, Note_on_c, 4, 61, 127
1, 411055, Note_off_c, 2, 72, 64
1, 411259, Note_off_c, 4, 61, 64
1, 411260, Note_off_c, 2, 73, 64
1, 411260, Note_off_c, 4, 64, 64
1, 411261, Note_on_c, 2, 76, 127
1, 411311, Note_off_c, 2, 76, 64
1, 411313, Note_on_c, 2, 74, 127
1, 411363, Note_off_c, 2, 74, 64
1, 411365, Note_on_c, 2, 71, 127
1, 411415, Note_off_c, 2, 71, 64
1, 411415, Note_on_c, 2, 68, 127
1, 411467, Note_off_c, 2, 68, 64
1, 411472, Note_on_c, 2, 69, 127
1, 411473, Note_on_c, 4, 57, 126
1, 411523, Note_off_c, 2, 69, 64
1, 411527, Note_on_c, 2, 71, 127
1, 411577, Note_off_c, 2, 71, 64
1, 411579, Note_on_c, 2, 73, 127
1, 411580, Note_on_c, 4, 64, 127
1, 411580, Note_on_c, 4, 61, 127
1, 411606, Note_off_c, 4, 57, 64
1, 411630, Note_off_c, 2, 73, 64
1, 411632, Note_on_c, 2, 74, 127
1, 411684, Note_off_c, 2, 74, 64
1, 411684, Note_off_c, 4, 61, 64
1, 411684, Note_off_c, 4, 64, 64
1, 411686, Note_on_c, 2, 76, 127
1, 411687, Note_on_c, 4, 64, 127
1, 411687, Note_on_c, 4, 61, 127
1, 411735, Note_off_c, 2, 76, 64
1, 411739, Note_on_c, 1, 78, 127
1, 411789, Note_off_c, 1, 78, 64
1, 411790, Note_off_c, 4, 61, 64
1, 411790, Note_off_c, 4, 64, 64
1, 411792, Note_on_c, 3, 80, 127
1, 411792, Note_on_c, 4, 64, 127
1, 411793, Note_on_c, 4, 61, 127
1, 411843, Note_off_c, 3, 80, 64
1, 411845, Note_on_c, 3, 81, 127
1, 411897, Note_off_c, 3, 81, 64
1, 411897, Note_off_c, 4, 61, 64
1, 411898, Note_off_c, 4, 64, 64
1, 411898, Note_on_c, 3, 81, 127
1, 411899, Note_on_c, 4, 59, 127
1, 411947, Note_off_c, 3, 81, 64
1, 411949, Note_on_c, 3, 80, 127
1, 411998, Note_off_c, 3, 80, 64
1, 412000, Note_on_c, 1, 78, 127
1, 412001, Note_on_c, 4, 64, 127
1, 412001, Note_on_c, 4, 62, 127
1, 412026, Note_off_c, 4, 59, 64
1, 412049, Note_off_c, 1, 78, 64
1, 412053, Note_on_c, 2, 76, 127
1, 412103, Note_off_c, 2, 76, 64
1, 412104, Note_off_c, 4, 62, 64
1, 412104, Note_off_c, 4, 64, 64
1, 412106, Note_on_c, 2, 76, 127
1, 412106, Note_on_c, 4, 56, 126
1, 412157, Note_off_c, 2, 76, 64
1, 412159, Note_on_c, 2, 74, 127
1, 412209, Note_off_c, 2, 74, 64
1, 412213, Note_on_c, 4, 64, 127
1, 412213, Note_on_c, 2, 73, 127
1, 412214, Note_on_c, 4, 62, 127
1, 412239, Note_off_c, 4, 56, 64
1, 412264, Note_off_c, 2, 73, 64
1, 412268, Note_on_c, 2, 71, 127
1, 412320, Note_off_c, 2, 71, 64
1, 412320, Note_off_c, 4, 62, 64
1, 412321, Note_off_c, 4, 64, 64
1, 412323, Note_on_c, 2, 69, 127
1, 412323, Note_on_c, 4, 57, 126
1, 412374, Note_off_c, 2, 69, 64
1, 412376, Note_on_c, 2, 71, 127
1, 412428, Note_off_c, 2, 71, 64
1, 412429, Note_on_c, 2, 73, 127
1, 412430, Note_on_c, 4, 64, 127
1, 412430, Note_on_c, 4, 61, 127
1, 412457, Note_off_c, 4, 57, 64
1, 412480, Note_off_c, 2, 73, 64
1, 412482, Note_on_c, 2, 74, 127
1, 412532, Note_off_c, 2, 74, 64
1, 412533, Note_off_c, 4, 61, 64
1, 412533, Note_off_c, 4, 64, 64
1, 412535, Note_on_c, 2, 76, 127
1, 412536, Note_on_c, 4, 64, 127
1, 412536, Note_on_c, 4, 61, 127
1, 412584, Note_off_c, 2, 76, 64
1, 412588, Note_on_c, 1, 78, 127
1, 412636, Note_off_c, 1, 78, 64
1, 412636, Note_off_c, 4, 61, 64
1, 412637, Note_off_c, 4, 64, 64
1, 412639, Note_on_c, 3, 80, 127
1, 412639, Note_on_c, 4, 64, 127
1, 412640, Note_on_c, 4, 61, 127
1, 412687, Note_off_c, 3, 80, 64
1, 412691, Note_on_c, 3, 81, 127
1, 412739, Note_off_c, 3, 81, 64
1, 412739, Note_off_c, 4, 61, 64
1, 412740, Note_off_c, 4, 64, 64
1, 412742, Note_on_c, 3, 82, 127
1, 412742, Note_on_c, 4, 52, 126
1, 412852, Note_off_c, 3, 82, 64
1, 412856, Note_on_c, 1, 83, 127
1, 412857, Note_on_c, 4, 62, 127
1, 412857, Note_on_c, 4, 56, 126
1, 412884, Note_off_c, 4, 52, 64
1, 412960, Note_off_c, 4, 56, 64
1, 412961, Note_off_c, 4, 62, 64
1, 412961, Note_off_c, 1, 83, 64
1, 412962, Note_on_c, 4, 62, 127
1, 412962, Note_on_c, 2, 76, 127
1, 412963, Note_on_c, 4, 56, 126
1, 413011, Note_off_c, 2, 76, 64
1, 413014, Note_on_c, 2, 74, 127
1, 413065, Note_off_c, 2, 74, 64
1, 413065, Note_off_c, 4, 56, 64
1, 413066, Note_off_c, 4, 62, 64
1, 413067, Note_on_c, 2, 73, 127
1, 413067, Note_on_c, 4, 62, 127
1, 413067, Note_on_c, 4, 56, 126
1, 413118, Note_off_c, 2, 73, 64
1, 413122, Note_on_c, 2, 71, 127
1, 413173, Note_off_c, 2, 71, 64
1, 413174, Note_off_c, 4, 56, 64
1, 413174, Note_off_c, 4, 62, 64
1, 413177, Note_on_c, 4, 57, 126
1, 413177, Note_on_c, 2, 69, 127
1, 413231, Note_off_c, 2, 69, 64
1, 413234, Note_on_c, 2, 71, 127
1, 413288, Note_off_c, 2, 71, 64
1, 413290, Note_on_c, 2, 73, 127
1, 413291, Note_on_c, 4, 64, 127
1, 413291, Note_on_c, 4, 61, 127
1, 413319, Note_off_c, 4, 57, 64
1, 413343, Note_off_c, 2, 73, 64
1, 413346, Note_on_c, 2, 74, 127
1, 413396, Note_off_c, 2, 74, 64
1, 413396, Note_off_c, 4, 61, 64
1, 413396, Note_off_c, 4, 64, 64
1, 413399, Note_on_c, 2, 76, 127
1, 413399, Note_on_c, 4, 64, 127
1, 413400, Note_on_c, 4, 61, 127
1, 413449, Note_off_c, 2, 76, 64
1, 413453, Note_on_c, 1, 78, 127
1, 413503, Note_off_c, 1, 78, 64
1, 413504, Note_off_c, 4, 61, 64
1, 413504, Note_off_c, 4, 64, 64
1, 413506, Note_on_c, 3, 80, 127
1, 413507, Note_on_c, 4, 64, 127
1, 413507, Note_on_c, 4, 61, 127
1, 413555, Note_off_c, 3, 80, 64
1, 413557, Note_on_c, 3, 81, 127
1, 413606, Note_off_c, 3, 81, 64
1, 413606, Note_off_c, 4, 61, 64
1, 413607, Note_off_c, 4, 64, 64
1, 413609, Note_on_c, 3, 81, 127
1, 413609, Note_on_c, 4, 59, 127
1, 413658, Note_off_c, 3, 81, 64
1, 413660, Note_on_c, 3, 80, 127
1, 413710, Note_off_c, 3, 80, 64
1, 413712, Note_on_c, 1, 78, 127
1, 413712, Note_on_c, 4, 64, 127
1, 413712, Note_on_c, 4, 62, 127
1, 413737, Note_off_c, 4, 59, 64
1, 413762, Note_off_c, 1, 78, 64
1, 413764, Note_on_c, 2, 76, 127
1, 413816, Note_off_c, 2, 76, 64
1, 413818, Note_on_c, 2, 76, 127
1, 413819, Note_on_c, 4, 56, 126
1, 413844, Note_off_c, 4, 62, 64
1, 413844, Note_off_c, 4, 64, 64
1, 413868, Note_off_c, 2, 76, 64
1, 413872, Note_on_c, 2, 74, 127
1, 413924, Note_off_c, 2, 74, 64
1, 413926, Note_on_c, 4, 64, 127
1, 413926, Note_on_c, 2, 73, 127
1, 413927, Note_on_c, 4, 62, 127
1, 413953, Note_off_c, 4, 56, 64
1, 413978, Note_off_c, 2, 73, 64
1, 413980, Note_on_c, 2, 71, 127
1, 414032, Note_off_c, 2, 71, 64
1, 414036, Note_on_c, 2, 73, 127
1, 414036, Note_on_c, 4, 57, 126
1, 414064, Note_off_c, 4, 64, 64
1, 414064, Note_off_c, 4, 62, 64
1, 414086, Note_off_c, 2, 73, 64
1, 414090, Note_on_c, 2, 76, 127
1, 414142, Note_on_c, 4, 54, 126
1, 414142, Note_on_c, 2, 69, 127
1, 414150, Note_off_c, 2, 76, 64
1, 414166, Note_off_c, 4, 57, 64
1, 414191, Note_on_c, 2, 73, 127
1, 414199, Note_off_c, 2, 69, 64
1, 414244, Note_on_c, 2, 71, 127
1, 414244, Note_on_c, 4, 50, 126
1, 414252, Note_off_c, 2, 73, 64
1, 414270, Note_off_c, 4, 54, 64
1, 414296, Note_on_c, 2, 74, 127
1, 414304, Note_off_c, 2, 71, 64
1, 414346, Note_on_c, 2, 68, 127
1, 414347, Note_on_c, 4, 52, 126
1, 414355, Note_off_c, 2, 74, 64
1, 414374, Note_off_c, 4, 50, 64
1, 414401, Note_on_c, 2, 71, 127
1, 414409, Note_off_c, 2, 68, 64
1, 414454, Note_on_c, 2, 69, 127
1, 414455, Note_on_c, 4, 45, 124
1, 414462, Note_off_c, 2, 71, 64
1, 414481, Note_off_c, 4, 52, 64
1, 414562, Note_on_c, 4, 57, 126
1, 414670, Note_off_c, 2, 69, 64
1, 414672, Note_off_c, 4, 45, 64
1, 414672, Note_on_c, 1, 85, 127
1, 414724, Note_off_c, 1, 85, 64
1, 414728, Note_on_c, 1, 86, 127
1, 414776, Note_off_c, 1, 86, 64
1, 414780, Note_on_c, 1, 85, 127
1, 414830, Note_off_c, 1, 85, 64
1, 414832, Note_on_c, 1, 83, 127
1, 414876, Note_off_c, 4, 57, 64
1, 414883, Note_off_c, 1, 83, 64
1, 414885, Note_on_c, 3, 81, 127
1, 414886, Note_on_c, 4, 54, 126
1, 414936, Note_off_c, 3, 81, 64
1, 414940, Note_on_c, 1, 83, 127
1, 414989, Note_off_c, 1, 83, 64
1, 414991, Note_on_c, 3, 81, 127
1, 414992, Note_on_c, 4, 61, 127
1, 414992, Note_on_c, 4, 57, 126
1, 415019, Note_off_c, 4, 54, 64
1, 415042, Note_off_c, 3, 81, 64
1, 415046, Note_on_c, 3, 80, 127
1, 415096, Note_off_c, 3, 80, 64
1, 415096, Note_off_c, 4, 57, 64
1, 415097, Note_off_c, 4, 61, 64
1, 415099, Note_on_c, 4, 61, 127
1, 415099, Note_on_c, 1, 78, 127
1, 415100, Note_on_c, 4, 57, 126
1, 415150, Note_off_c, 1, 78, 64
1, 415152, Note_on_c, 3, 81, 127
1, 415201, Note_off_c, 3, 81, 64
1, 415202, Note_off_c, 4, 61, 64
1, 415202, Note_off_c, 4, 57, 64
1, 415205, Note_on_c, 3, 80, 127
1, 415205, Note_on_c, 4, 61, 127
1, 415206, Note_on_c, 4, 57, 126
1, 415255, Note_off_c, 3, 80, 64
1, 415258, Note_on_c, 1, 78, 127
1, 415309, Note_off_c, 1, 78, 64
1, 415309, Note_off_c, 4, 57, 64
1, 415310, Note_off_c, 4, 61, 64
1, 415312, Note_on_c, 2, 77, 127
1, 415313, Note_on_c, 4, 56, 126
1, 415363, Note_off_c, 2, 77, 64
1, 415367, Note_on_c, 1, 78, 127
1, 415416, Note_off_c, 4, 56, 64
1, 415419, Note_on_c, 3, 80, 127
1, 415419, Note_on_c, 4, 61, 127
1, 415420, Note_on_c, 4, 59, 127
1, 415428, Note_off_c, 1, 78, 64
1, 415470, Note_on_c, 2, 77, 127
1, 415479, Note_off_c, 3, 80, 64
1, 415519, Note_off_c, 4, 59, 64
1, 415520, Note_off_c, 4, 61, 64
1, 415523, Note_on_c, 2, 73, 127
1, 415523, Note_on_c, 4, 61, 127
1, 415524, Note_on_c, 4, 59, 127
1, 415531, Note_off_c, 2, 77, 64
1, 415579, Note_off_c, 2, 73, 64
1, 415580, Note_on_c, 2, 75, 127
1, 415630, Note_off_c, 4, 59, 64
1, 415631, Note_off_c, 4, 61, 64
1, 415633, Note_off_c, 2, 75, 64
1, 415633, Note_on_c, 2, 77, 127
1, 415634, Note_on_c, 4, 61, 127
1, 415634, Note_on_c, 4, 59, 127
1, 415687, Note_on_c, 2, 73, 127
1, 415695, Note_off_c, 2, 77, 64
1, 415737, Note_off_c, 4, 59, 64
1, 415738, Note_off_c, 4, 61, 64
1, 415740, Note_on_c, 1, 78, 127
1, 415740, Note_on_c, 4, 54, 126
1, 415749, Note_off_c, 2, 73, 64
1, 415791, Note_off_c, 1, 78, 64
1, 415793, Note_on_c, 2, 77, 127
1, 415845, Note_off_c, 2, 77, 64
1, 415847, Note_on_c, 1, 78, 127
1, 415848, Note_on_c, 4, 61, 127
1, 415848, Note_on_c, 4, 57, 126
1, 415875, Note_off_c, 4, 54, 64
1, 415898, Note_off_c, 1, 78, 64
1, 415902, Note_on_c, 3, 80, 127
1, 415952, Note_off_c, 3, 80, 64
1, 415952, Note_off_c, 4, 57, 64
1, 415953, Note_off_c, 4, 61, 64
1, 415955, Note_on_c, 3, 81, 127
1, 415955, Note_on_c, 4, 61, 127
1, 415956, Note_on_c, 4, 57, 126
1, 416004, Note_off_c, 3, 81, 64
1, 416005, Note_on_c, 3, 80, 127
1, 416055, Note_off_c, 3, 80, 64
1, 416056, Note_off_c, 4, 57, 64
1, 416056, Note_off_c, 4, 61, 64
1, 416058, Note_on_c, 3, 81, 127
1, 416059, Note_on_c, 4, 61, 127
1, 416059, Note_on_c, 4, 57, 126
1, 416109, Note_off_c, 3, 81, 64
1, 416111, Note_on_c, 1, 83, 127
1, 416160, Note_off_c, 1, 83, 64
1, 416161, Note_off_c, 4, 57, 64
1, 416162, Note_off_c, 4, 61, 64
1, 416162, Note_on_c, 1, 85, 127
1, 416163, Note_on_c, 4, 49, 126
1, 416216, Note_off_c, 1, 85, 64
1, 416218, Note_on_c, 1, 84, 127
1, 416271, Note_off_c, 1, 84, 64
1, 416273, Note_on_c, 1, 85, 127
1, 416274, Note_on_c, 4, 61, 127
1, 416275, Note_on_c, 4, 56, 126
1, 416302, Note_off_c, 4, 49, 64
1, 416327, Note_off_c, 1, 85, 64
1, 416331, Note_on_c, 1, 84, 127
1, 416385, Note_off_c, 1, 84, 64
1, 416385, Note_off_c, 4, 56, 64
1, 416386, Note_off_c, 4, 61, 64
1, 416388, Note_on_c, 1, 85, 127
1, 416388, Note_on_c, 4, 61, 127
1, 416388, Note_on_c, 4, 56, 126
1, 416438, Note_off_c, 1, 85, 64
1, 416442, Note_on_c, 1, 84, 127
1, 416494, Note_off_c, 1, 84, 64
1, 416495, Note_off_c, 4, 56, 64
1, 416495, Note_off_c, 4, 61, 64
1, 416497, Note_on_c, 1, 85, 127
1, 416497, Note_on_c, 4, 61, 127
1, 416498, Note_on_c, 4, 56, 126
1, 416542, Note_off_c, 1, 85, 64
1, 416552, Note_on_c, 1, 84, 127
1, 416605, Note_off_c, 1, 84, 64
1, 416606, Note_off_c, 4, 56, 64
1, 416606, Note_off_c, 4, 61, 64
1, 416607, Note_on_c, 1, 86, 127
1, 416607, Note_on_c, 4, 47, 124
1, 416660, Note_off_c, 1, 86, 64
1, 416662, Note_on_c, 1, 85, 127
1, 416716, Note_off_c, 1, 85, 64
1, 416718, Note_on_c, 1, 86, 127
1, 416718, Note_on_c, 4, 59, 127
1, 416719, Note_on_c, 4, 54, 126
1, 416746, Note_off_c, 4, 47, 64
1, 416771, Note_off_c, 1, 86, 64
1, 416772, Note_on_c, 1, 85, 127
1, 416824, Note_off_c, 1, 85, 64
1, 416825, Note_off_c, 4, 54, 64
1, 416825, Note_off_c, 4, 59, 64
1, 416826, Note_on_c, 4, 59, 127
1, 416826, Note_on_c, 1, 86, 127
1, 416827, Note_on_c, 4, 54, 126
1, 416879, Note_off_c, 1, 86, 64
1, 416881, Note_on_c, 1, 85, 127
1, 416932, Note_off_c, 1, 85, 64
1, 416932, Note_off_c, 4, 54, 64
1, 416933, Note_off_c, 4, 59, 64
1, 416934, Note_on_c, 1, 86, 127
1, 416934, Note_on_c, 4, 59, 127
1, 416934, Note_on_c, 4, 54, 126
1, 416985, Note_off_c, 1, 86, 64
1, 416987, Note_on_c, 1, 85, 127
1, 417039, Note_off_c, 1, 85, 64
1, 417039, Note_off_c, 4, 54, 64
1, 417040, Note_off_c, 4, 59, 64
1, 417042, Note_on_c, 1, 86, 127
1, 417043, Note_on_c, 4, 47, 124
1, 417092, Note_off_c, 1, 86, 64
1, 417095, Note_on_c, 1, 85, 127
1, 417144, Note_off_c, 1, 85, 64
1, 417146, Note_on_c, 1, 83, 127
1, 417146, Note_on_c, 4, 59, 127
1, 417147, Note_on_c, 4, 56, 126
1, 417174, Note_off_c, 4, 47, 64
1, 417199, Note_off_c, 1, 83, 64
1, 417203, Note_on_c, 3, 81, 127
1, 417254, Note_off_c, 3, 81, 64
1, 417255, Note_off_c, 4, 56, 64
1, 417255, Note_off_c, 4, 59, 64
1, 417256, Note_on_c, 4, 59, 127
1, 417256, Note_on_c, 3, 80, 127
1, 417257, Note_on_c, 4, 56, 126
1, 417309, Note_off_c, 3, 80, 64
1, 417313, Note_on_c, 3, 81, 127
1, 417363, Note_off_c, 3, 81, 64
1, 417363, Note_off_c, 4, 56, 64
1, 417364, Note_off_c, 4, 59, 64
1, 417366, Note_on_c, 1, 83, 127
1, 417366, Note_on_c, 4, 59, 127
1, 417367, Note_on_c, 4, 56, 126
1, 417415, Note_off_c, 1, 83, 64
1, 417419, Note_on_c, 3, 80, 127
1, 417468, Note_off_c, 3, 80, 64
1, 417468, Note_off_c, 4, 56, 64
1, 417468, Note_off_c, 4, 59, 64
1, 417469, Note_on_c, 3, 81, 127
1, 417471, Note_on_c, 4, 49, 126
1, 417521, Note_off_c, 3, 81, 64
1, 417524, Note_on_c, 1, 83, 127
1, 417576, Note_off_c, 1, 83, 64
1, 417577, Note_on_c, 1, 85, 127
1, 417578, Note_on_c, 4, 57, 126
1, 417578, Note_on_c, 4, 54, 126
1, 417603, Note_off_c, 4, 49, 64
1, 417626, Note_off_c, 1, 85, 64
1, 417628, Note_on_c, 3, 81, 127
1, 417678, Note_off_c, 3, 81, 64
1, 417678, Note_off_c, 4, 54, 64
1, 417679, Note_off_c, 4, 57, 64
1, 417681, Note_on_c, 1, 78, 127
1, 417682, Note_on_c, 4, 57, 126
1, 417682, Note_on_c, 4, 54, 126
1, 417730, Note_off_c, 1, 78, 64
1, 417734, Note_on_c, 2, 76, 127
1, 417781, Note_off_c, 2, 76, 64
1, 417782, Note_off_c, 4, 54, 64
1, 417782, Note_off_c, 4, 57, 64
1, 417783, Note_on_c, 3, 80, 127
1, 417785, Note_on_c, 4, 57, 126
1, 417786, Note_on_c, 4, 54, 126
1, 417832, Note_off_c, 3, 80, 64
1, 417835, Note_on_c, 2, 77, 127
1, 417883, Note_off_c, 2, 77, 64
1, 417883, Note_off_c, 4, 54, 64
1, 417884, Note_off_c, 4, 57, 64
1, 417884, Note_on_c, 1, 78, 127
1, 417885, Note_on_c, 4, 57, 126
1, 417885, Note_on_c, 4, 54, 126
1, 418095, Note_off_c, 1, 78, 64
1, 418095, Note_off_c, 4, 54, 64
1, 418095, Note_off_c, 4, 57, 64
1, 418098, Note_on_c, 2, 76, 127
1, 418146, Note_off_c, 2, 76, 64
1, 418148, Note_on_c, 2, 74, 127
1, 418198, Note_off_c, 2, 74, 64
1, 418200, Note_on_c, 2, 73, 127
1, 418250, Note_off_c, 2, 73, 64
1, 418254, Note_on_c, 2, 71, 127
1, 418306, Note_off_c, 2, 71, 64
1, 418308, Note_on_c, 2, 69, 127
1, 418308, Note_on_c, 4, 57, 126
1, 418361, Note_off_c, 2, 69, 64
1, 418365, Note_on_c, 2, 71, 127
1, 418416, Note_off_c, 2, 71, 64
1, 418418, Note_on_c, 2, 73, 127
1, 418419, Note_on_c, 4, 64, 127
1, 418419, Note_on_c, 4, 61, 127
1, 418446, Note_off_c, 4, 57, 64
1, 418471, Note_off_c, 2, 73, 64
1, 418473, Note_on_c, 2, 74, 127
1, 418525, Note_off_c, 2, 74, 64
1, 418525, Note_off_c, 4, 61, 64
1, 418526, Note_off_c, 4, 64, 64
1, 418526, Note_on_c, 2, 76, 127
1, 418527, Note_on_c, 4, 64, 127
1, 418527, Note_on_c, 4, 61, 127
1, 418578, Note_off_c, 2, 76, 64
1, 418580, Note_on_c, 1, 78, 127
1, 418632, Note_off_c, 1, 78, 64
1, 418632, Note_off_c, 4, 61, 64
1, 418632, Note_off_c, 4, 64, 64
1, 418633, Note_on_c, 3, 80, 127
1, 418633, Note_on_c, 4, 64, 127
1, 418634, Note_on_c, 4, 61, 127
1, 418684, Note_off_c, 3, 80, 64
1, 418686, Note_on_c, 3, 81, 127
1, 418738, Note_off_c, 3, 81, 64
1, 418739, Note_off_c, 4, 61, 64
1, 418739, Note_off_c, 4, 64, 64
1, 418740, Note_on_c, 4, 59, 127
1, 418740, Note_on_c, 3, 81, 127
1, 418789, Note_off_c, 3, 81, 64
1, 418791, Note_on_c, 3, 80, 127
1, 418841, Note_off_c, 3, 80, 64
1, 418843, Note_on_c, 1, 78, 127
1, 418843, Note_on_c, 4, 64, 127
1, 418844, Note_on_c, 4, 62, 127
1, 418869, Note_off_c, 4, 59, 64
1, 418894, Note_off_c, 1, 78, 64
1, 418896, Note_on_c, 2, 76, 127
1, 418945, Note_off_c, 2, 76, 64
1, 418946, Note_off_c, 4, 62, 64
1, 418946, Note_off_c, 4, 64, 64
1, 418947, Note_on_c, 4, 56, 126
1, 418947, Note_on_c, 2, 76, 127
1, 418997, Note_off_c, 2, 76, 64
1, 419001, Note_on_c, 2, 74, 127
1, 419051, Note_off_c, 2, 74, 64
1, 419053, Note_on_c, 2, 73, 127
1, 419053, Note_on_c, 4, 64, 127
1, 419054, Note_on_c, 4, 62, 127
1, 419079, Note_off_c, 4, 56, 64
1, 419104, Note_off_c, 2, 73, 64
1, 419106, Note_on_c, 2, 71, 127
1, 419156, Note_off_c, 2, 71, 64
1, 419156, Note_off_c, 4, 62, 64
1, 419157, Note_off_c, 4, 64, 64
1, 419159, Note_on_c, 4, 57, 126
1, 419159, Note_on_c, 2, 69, 127
1, 419213, Note_off_c, 2, 69, 64
1, 419215, Note_on_c, 2, 71, 127
1, 419267, Note_off_c, 2, 71, 64
1, 419269, Note_on_c, 2, 73, 127
1, 419269, Note_on_c, 4, 64, 127
1, 419270, Note_on_c, 4, 61, 127
1, 419295, Note_off_c, 4, 57, 64
1, 419320, Note_off_c, 2, 73, 64
1, 419322, Note_on_c, 2, 74, 127
1, 419374, Note_off_c, 2, 74, 64
1, 419374, Note_off_c, 4, 61, 64
1, 419375, Note_off_c, 4, 64, 64
1, 419376, Note_on_c, 2, 76, 127
1, 419377, Note_on_c, 4, 64, 127
1, 419377, Note_on_c, 4, 61, 127
1, 419428, Note_off_c, 2, 76, 64
1, 419430, Note_on_c, 1, 78, 127
1, 419480, Note_off_c, 1, 78, 64
1, 419481, Note_off_c, 4, 61, 64
1, 419481, Note_off_c, 4, 64, 64
1, 419483, Note_on_c, 3, 80, 127
1, 419484, Note_on_c, 4, 64, 127
1, 419484, Note_on_c, 4, 61, 127
1, 419532, Note_off_c, 3, 80, 64
1, 419534, Note_on_c, 3, 81, 127
1, 419584, Note_off_c, 3, 81, 64
1, 419584, Note_off_c, 4, 61, 64
1, 419585, Note_off_c, 4, 64, 64
1, 419585, Note_on_c, 3, 82, 127
1, 419586, Note_on_c, 4, 52, 126
1, 419712, Note_off_c, 3, 82, 64
1, 419714, Note_on_c, 1, 83, 127
1, 419714, Note_on_c, 4, 62, 127
1, 419714, Note_on_c, 4, 56, 126
1, 419742, Note_off_c, 4, 52, 64
1, 419820, Note_off_c, 4, 56, 64
1, 419820, Note_off_c, 4, 62, 64
1, 419821, Note_off_c, 1, 83, 64
1, 419823, Note_on_c, 2, 76, 127
1, 419823, Note_on_c, 4, 62, 127
1, 419824, Note_on_c, 4, 56, 126
1, 419874, Note_off_c, 2, 76, 64
1, 419876, Note_on_c, 2, 74, 127
1, 419928, Note_off_c, 2, 74, 64
1, 419928, Note_off_c, 4, 56, 64
1, 419928, Note_off_c, 4, 62, 64
1, 419931, Note_on_c, 4, 62, 127
1, 419931, Note_on_c, 4, 56, 126
1, 419931, Note_on_c, 2, 73, 127
1, 419981, Note_off_c, 2, 73, 64
1, 419984, Note_on_c, 2, 71, 127
1, 420037, Note_off_c, 4, 56, 64
1, 420037, Note_off_c, 2, 71, 64
1, 420038, Note_off_c, 4, 62, 64
1, 420039, Note_on_c, 2, 69, 127
1, 420039, Note_on_c, 4, 57, 126
1, 420095, Note_off_c, 2, 69, 64
1, 420097, Note_on_c, 2, 71, 127
1, 420151, Note_off_c, 2, 71, 64
1, 420153, Note_on_c, 4, 64, 127
1, 420153, Note_on_c, 2, 73, 127
1, 420154, Note_on_c, 4, 61, 127
1, 420180, Note_off_c, 4, 57, 64
1, 420205, Note_off_c, 2, 73, 64
1, 420207, Note_on_c, 2, 74, 127
1, 420259, Note_off_c, 2, 74, 64
1, 420259, Note_off_c, 4, 61, 64
1, 420260, Note_off_c, 4, 64, 64
1, 420262, Note_on_c, 2, 76, 127
1, 420263, Note_on_c, 4, 64, 127
1, 420263, Note_on_c, 4, 61, 127
1, 420313, Note_off_c, 2, 76, 64
1, 420315, Note_on_c, 1, 78, 127
1, 420365, Note_off_c, 1, 78, 64
1, 420365, Note_off_c, 4, 61, 64
1, 420365, Note_off_c, 4, 64, 64
1, 420368, Note_on_c, 4, 64, 127
1, 420368, Note_on_c, 3, 80, 127
1, 420369, Note_on_c, 4, 61, 127
1, 420415, Note_off_c, 3, 80, 64
1, 420419, Note_on_c, 3, 81, 127
1, 420467, Note_off_c, 3, 81, 64
1, 420468, Note_on_c, 3, 81, 127
1, 420469, Note_on_c, 4, 59, 127
1, 420494, Note_off_c, 4, 61, 64
1, 420495, Note_off_c, 4, 64, 64
1, 420518, Note_off_c, 3, 81, 64
1, 420520, Note_on_c, 3, 80, 127
1, 420569, Note_off_c, 3, 80, 64
1, 420571, Note_on_c, 1, 78, 127
1, 420572, Note_on_c, 4, 64, 127
1, 420572, Note_on_c, 4, 62, 127
1, 420599, Note_off_c, 4, 59, 64
1, 420623, Note_off_c, 1, 78, 64
1, 420627, Note_on_c, 2, 76, 127
1, 420677, Note_off_c, 2, 76, 64
1, 420681, Note_on_c, 2, 76, 127
1, 420681, Note_on_c, 4, 56, 126
1, 420707, Note_off_c, 4, 62, 64
1, 420707, Note_off_c, 4, 64, 64
1, 420731, Note_off_c, 2, 76, 64
1, 420734, Note_on_c, 2, 74, 127
1, 420784, Note_off_c, 2, 74, 64
1, 420786, Note_on_c, 2, 73, 127
1, 420787, Note_on_c, 4, 64, 127
1, 420787, Note_on_c, 4, 62, 127
1, 420814, Note_off_c, 4, 56, 64
1, 420839, Note_off_c, 2, 73, 64
1, 420843, Note_on_c, 2, 71, 127
1, 420895, Note_off_c, 2, 71, 64
1, 420897, Note_on_c, 2, 73, 127
1, 420897, Note_on_c, 4, 57, 126
1, 420924, Note_off_c, 4, 62, 64
1, 420925, Note_off_c, 4, 64, 64
1, 420949, Note_on_c, 2, 76, 127
1, 420967, Note_off_c, 2, 73, 64
1, 421001, Note_on_c, 2, 69, 127
1, 421002, Note_on_c, 4, 54, 126
1, 421018, Note_off_c, 2, 76, 64
1, 421027, Note_off_c, 4, 57, 64
1, 421054, Note_on_c, 2, 73, 127
1, 421071, Note_off_c, 2, 69, 64
1, 421108, Note_on_c, 4, 50, 126
1, 421108, Note_on_c, 2, 71, 127
1, 421127, Note_off_c, 2, 73, 64
1, 421133, Note_off_c, 4, 54, 64
1, 421160, Note_on_c, 2, 74, 127
1, 421175, Note_off_c, 2, 71, 64
1, 421206, Note_off_c, 4, 50, 64
1, 421210, Note_on_c, 2, 68, 127
1, 421210, Note_on_c, 4, 52, 126
1, 421226, Note_off_c, 2, 74, 64
1, 421260, Note_on_c, 2, 71, 127
1, 421278, Note_off_c, 2, 68, 64
1, 421310, Note_off_c, 4, 52, 64
1, 421312, Note_on_c, 2, 69, 127
1, 421313, Note_on_c, 4, 45, 124
1, 421331, Note_off_c, 2, 71, 64
1, 421421, Note_on_c, 4, 57, 126
1, 421448, Note_off_c, 4, 45, 64
1, 421528, Note_off_c, 2, 69, 64
1, 421530, Note_on_c, 1, 85, 127
1, 421582, Note_off_c, 1, 85, 64
1, 421586, Note_on_c, 1, 86, 127
1, 421634, Note_off_c, 1, 86, 64
1, 421638, Note_on_c, 1, 85, 127
1, 421688, Note_off_c, 1, 85, 64
1, 421690, Note_on_c, 1, 83, 127
1, 421741, Note_off_c, 4, 57, 64
1, 421743, Note_off_c, 1, 83, 64
1, 421745, Note_on_c, 3, 81, 127
1, 421746, Note_on_c, 4, 54, 126
1, 421796, Note_off_c, 3, 81, 64
1, 421800, Note_on_c, 1, 83, 127
1, 421850, Note_off_c, 1, 83, 64
1, 421852, Note_on_c, 4, 61, 127
1, 421852, Note_on_c, 3, 81, 127
1, 421853, Note_on_c, 4, 57, 126
1, 421878, Note_off_c, 4, 54, 64
1, 421903, Note_off_c, 3, 81, 64
1, 421907, Note_on_c, 3, 80, 127
1, 421959, Note_off_c, 3, 80, 64
1, 421960, Note_off_c, 4, 61, 64
1, 421960, Note_off_c, 4, 57, 64
1, 421961, Note_on_c, 1, 78, 127
1, 421961, Note_on_c, 4, 61, 127
1, 421962, Note_on_c, 4, 57, 126
1, 422014, Note_off_c, 1, 78, 64
1, 422018, Note_on_c, 3, 81, 127
1, 422068, Note_off_c, 3, 81, 64
1, 422068, Note_off_c, 4, 57, 64
1, 422069, Note_off_c, 4, 61, 64
1, 422071, Note_on_c, 4, 61, 127
1, 422071, Note_on_c, 3, 80, 127
1, 422072, Note_on_c, 4, 57, 126
1, 422122, Note_off_c, 3, 80, 64
1, 422124, Note_on_c, 1, 78, 127
1, 422175, Note_off_c, 1, 78, 64
1, 422176, Note_off_c, 4, 61, 64
1, 422176, Note_off_c, 4, 57, 64
1, 422179, Note_on_c, 2, 77, 127
1, 422179, Note_on_c, 4, 56, 126
1, 422231, Note_off_c, 2, 77, 64
1, 422233, Note_on_c, 1, 78, 127
1, 422283, Note_off_c, 1, 78, 64
1, 422287, Note_on_c, 3, 80, 127
1, 422288, Note_on_c, 4, 61, 127
1, 422288, Note_on_c, 4, 59, 127
1, 422312, Note_off_c, 4, 56, 64
1, 422335, Note_off_c, 3, 80, 64
1, 422337, Note_on_c, 2, 77, 127
1, 422387, Note_off_c, 2, 77, 64
1, 422387, Note_off_c, 4, 59, 64
1, 422388, Note_off_c, 4, 61, 64
1, 422388, Note_on_c, 2, 73, 127
1, 422388, Note_on_c, 4, 61, 127
1, 422389, Note_on_c, 4, 59, 127
1, 422441, Note_off_c, 2, 73, 64
1, 422444, Note_on_c, 2, 75, 127
1, 422493, Note_off_c, 2, 75, 64
1, 422494, Note_off_c, 4, 61, 64
1, 422494, Note_off_c, 4, 59, 64
1, 422495, Note_on_c, 2, 77, 127
1, 422496, Note_on_c, 4, 61, 127
1, 422496, Note_on_c, 4, 59, 127
1, 422544, Note_off_c, 2, 77, 64
1, 422548, Note_on_c, 2, 73, 127
1, 422598, Note_off_c, 2, 73, 64
1, 422598, Note_off_c, 4, 59, 64
1, 422599, Note_off_c, 4, 61, 64
1, 422601, Note_on_c, 1, 78, 127
1, 422602, Note_on_c, 4, 54, 126
1, 422652, Note_off_c, 1, 78, 64
1, 422654, Note_on_c, 2, 77, 127
1, 422704, Note_off_c, 2, 77, 64
1, 422708, Note_on_c, 1, 78, 127
1, 422708, Note_on_c, 4, 61, 127
1, 422709, Note_on_c, 4, 57, 126
1, 422734, Note_off_c, 4, 54, 64
1, 422759, Note_off_c, 1, 78, 64
1, 422762, Note_on_c, 3, 80, 127
1, 422810, Note_off_c, 3, 80, 64
1, 422810, Note_off_c, 4, 57, 64
1, 422811, Note_off_c, 4, 61, 64
1, 422813, Note_on_c, 3, 81, 127
1, 422814, Note_on_c, 4, 61, 127
1, 422814, Note_on_c, 4, 57, 126
1, 422863, Note_off_c, 3, 81, 64
1, 422865, Note_on_c, 3, 80, 127
1, 422916, Note_off_c, 3, 80, 64
1, 422916, Note_off_c, 4, 57, 64
1, 422917, Note_off_c, 4, 61, 64
1, 422919, Note_on_c, 3, 81, 127
1, 422919, Note_on_c, 4, 61, 127
1, 422920, Note_on_c, 4, 57, 126
1, 422970, Note_off_c, 3, 81, 64
1, 422972, Note_on_c, 1, 83, 127
1, 423024, Note_off_c, 1, 83, 64
1, 423024, Note_off_c, 4, 57, 64
1, 423024, Note_off_c, 4, 61, 64
1, 423026, Note_on_c, 1, 85, 127
1, 423027, Note_on_c, 4, 49, 126
1, 423079, Note_off_c, 1, 85, 64
1, 423083, Note_on_c, 1, 84, 127
1, 423135, Note_off_c, 1, 84, 64
1, 423139, Note_on_c, 1, 85, 127
1, 423139, Note_on_c, 4, 61, 127
1, 423140, Note_on_c, 4, 56, 126
1, 423167, Note_off_c, 4, 49, 64
1, 423192, Note_off_c, 1, 85, 64
1, 423195, Note_on_c, 1, 84, 127
1, 423247, Note_off_c, 1, 84, 64
1, 423248, Note_off_c, 4, 56, 64
1, 423248, Note_off_c, 4, 61, 64
1, 423250, Note_on_c, 1, 85, 127
1, 423251, Note_on_c, 4, 61, 127
1, 423251, Note_on_c, 4, 56, 126
1, 423303, Note_off_c, 1, 85, 64
1, 423307, Note_on_c, 1, 84, 127
1, 423360, Note_off_c, 1, 84, 64
1, 423361, Note_off_c, 4, 56, 64
1, 423361, Note_off_c, 4, 61, 64
1, 423362, Note_on_c, 1, 85, 127
1, 423362, Note_on_c, 4, 61, 127
1, 423363, Note_on_c, 4, 56, 126
1, 423417, Note_off_c, 1, 85, 64
1, 423419, Note_on_c, 1, 84, 127
1, 423473, Note_off_c, 1, 84, 64
1, 423473, Note_off_c, 4, 56, 64
1, 423474, Note_off_c, 4, 61, 64
1, 423474, Note_on_c, 1, 86, 127
1, 423475, Note_on_c, 4, 47, 124
1, 423527, Note_off_c, 1, 86, 64
1, 423530, Note_on_c, 1, 85, 127
1, 423582, Note_off_c, 1, 85, 64
1, 423586, Note_on_c, 1, 86, 127
1, 423587, Note_on_c, 4, 59, 127
1, 423587, Note_on_c, 4, 54, 126
1, 423614, Note_off_c, 4, 47, 64
1, 423637, Note_off_c, 1, 86, 64
1, 423641, Note_on_c, 1, 85, 127
1, 423693, Note_off_c, 1, 85, 64
1, 423693, Note_off_c, 4, 54, 64
1, 423694, Note_off_c, 4, 59, 64
1, 423696, Note_on_c, 1, 86, 127
1, 423696, Note_on_c, 4, 59, 127
1, 423696, Note_on_c, 4, 54, 126
1, 423750, Note_off_c, 1, 86, 64
1, 423752, Note_on_c, 1, 85, 127
1, 423806, Note_off_c, 1, 85, 64
1, 423806, Note_off_c, 4, 54, 64
1, 423807, Note_off_c, 4, 59, 64
1, 423807, Note_on_c, 1, 86, 127
1, 423808, Note_on_c, 4, 59, 127
1, 423808, Note_on_c, 4, 54, 126
1, 423861, Note_off_c, 1, 86, 64
1, 423863, Note_on_c, 1, 85, 127
1, 423916, Note_off_c, 1, 85, 64
1, 423917, Note_off_c, 4, 54, 64
1, 423917, Note_off_c, 4, 59, 64
1, 423918, Note_on_c, 1, 86, 127
1, 423918, Note_on_c, 4, 47, 124
1, 423968, Note_off_c, 1, 86, 64
1, 423970, Note_on_c, 1, 85, 127
1, 424020, Note_off_c, 1, 85, 64
1, 424024, Note_on_c, 4, 59, 127
1, 424024, Note_on_c, 1, 83, 127
1, 424025, Note_on_c, 4, 56, 126
1, 424052, Note_off_c, 4, 47, 64
1, 424077, Note_off_c, 1, 83, 64
1, 424079, Note_on_c, 3, 81, 127
1, 424130, Note_off_c, 3, 81, 64
1, 424131, Note_off_c, 4, 59, 64
1, 424131, Note_off_c, 4, 56, 64
1, 424134, Note_on_c, 3, 80, 127
1, 424134, Note_on_c, 4, 59, 127
1, 424135, Note_on_c, 4, 56, 126
1, 424181, Note_off_c, 3, 80, 64
1, 424185, Note_on_c, 3, 81, 127
1, 424233, Note_off_c, 3, 81, 64
1, 424234, Note_off_c, 4, 56, 64
1, 424234, Note_off_c, 4, 59, 64
1, 424236, Note_on_c, 4, 59, 127
1, 424236, Note_on_c, 1, 83, 127
1, 424237, Note_on_c, 4, 56, 126
1, 424284, Note_off_c, 1, 83, 64
1, 424286, Note_on_c, 3, 80, 127
1, 424340, Note_off_c, 3, 80, 64
1, 424340, Note_off_c, 4, 56, 64
1, 424341, Note_off_c, 4, 59, 64
1, 424341, Note_on_c, 3, 81, 127
1, 424344, Note_on_c, 4, 49, 126
1, 424393, Note_off_c, 3, 81, 64
1, 424395, Note_on_c, 1, 83, 127
1, 424447, Note_off_c, 1, 83, 64
1, 424450, Note_on_c, 1, 85, 127
1, 424450, Note_on_c, 4, 57, 126
1, 424451, Note_on_c, 4, 54, 126
1, 424476, Note_off_c, 4, 49, 64
1, 424497, Note_off_c, 1, 85, 64
1, 424501, Note_on_c, 3, 81, 127
1, 424549, Note_off_c, 3, 81, 64
1, 424549, Note_off_c, 4, 54, 64
1, 424550, Note_off_c, 4, 57, 64
1, 424553, Note_on_c, 1, 78, 127
1, 424554, Note_on_c, 4, 57, 126
1, 424554, Note_on_c, 4, 54, 126
1, 424602, Note_off_c, 1, 78, 64
1, 424604, Note_on_c, 2, 76, 127
1, 424654, Note_off_c, 2, 76, 64
1, 424654, Note_off_c, 4, 54, 64
1, 424655, Note_off_c, 4, 57, 64
1, 424657, Note_on_c, 3, 80, 127
1, 424657, Note_on_c, 4, 57, 126
1, 424657, Note_on_c, 4, 54, 126
1, 424704, Note_off_c, 3, 80, 64
1, 424708, Note_on_c, 2, 77, 127
1, 424753, Note_off_c, 2, 77, 64
1, 424755, Note_off_c, 4, 54, 64
1, 424756, Note_off_c, 4, 57, 64
1, 424757, Note_on_c, 4, 57, 126
1, 424757, Note_on_c, 4, 54, 126
1, 424757, Note_on_c, 1, 78, 127
1, 424986, Note_off_c, 1, 78, 64
1, 424988, Note_on_c, 3, 81, 127
1, 424989, Note_on_c, 2, 69, 127
1, 425099, Note_off_c, 3, 81, 64
1, 425099, Note_off_c, 2, 69, 64
1, 425100, Note_on_c, 1, 83, 127
1, 425100, Note_on_c, 2, 71, 127
1, 425193, Note_off_c, 4, 54, 64
1, 425193, Note_off_c, 4, 57, 64
1, 425203, Note_off_c, 2, 71, 64
1, 425204, Note_off_c, 1, 83, 64
1, 425204, Note_on_c, 4, 45, 124
1, 425205, Note_on_c, 2, 73, 127
1, 425217, Note_on_c, 4, 49, 126
1, 425220, Note_on_c, 1, 85, 127
1, 425230, Note_on_c, 4, 52, 126
1, 425255, Note_on_c, 4, 57, 126
1, 425263, Note_off_c, 4, 45, 64
1, 425295, Note_off_c, 4, 49, 64
1, 425305, Note_off_c, 4, 57, 64
1, 425309, Note_on_c, 4, 57, 126
1, 425391, Note_off_c, 4, 52, 64
1, 425409, Note_off_c, 4, 57, 64
1, 425416, Note_off_c, 2, 73, 64
1, 425417, Note_on_c, 3, 81, 127
1, 425417, Note_on_c, 2, 69, 127
1, 425418, Note_on_c, 4, 57, 126
1, 425436, Note_off_c, 1, 85, 64
1, 425512, Note_off_c, 4, 57, 64
1, 425522, Note_off_c, 2, 69, 64
1, 425522, Note_off_c, 3, 81, 64
1, 425523, Note_on_c, 1, 83, 127
1, 425523, Note_on_c, 2, 71, 127
1, 425524, Note_on_c, 4, 57, 126
1, 425624, Note_off_c, 2, 71, 64
1, 425624, Note_on_c, 4, 45, 124
1, 425625, Note_off_c, 1, 83, 64
1, 425625, Note_on_c, 2, 73, 127
1, 425637, Note_on_c, 4, 49, 126
1, 425643, Note_on_c, 1, 85, 127
1, 425652, Note_on_c, 4, 52, 126
1, 425660, Note_off_c, 4, 57, 64
1, 425677, Note_on_c, 4, 57, 126
1, 425685, Note_off_c, 4, 45, 64
1, 425716, Note_off_c, 4, 49, 64
1, 425727, Note_off_c, 4, 57, 64
1, 425729, Note_off_c, 2, 73, 64
1, 425730, Note_on_c, 1, 83, 127
1, 425730, Note_on_c, 2, 71, 127
1, 425731, Note_on_c, 4, 57, 126
1, 425748, Note_off_c, 1, 85, 64
1, 425812, Note_off_c, 4, 52, 64
1, 425829, Note_off_c, 4, 57, 64
1, 425837, Note_off_c, 2, 71, 64
1, 425837, Note_off_c, 1, 83, 64
1, 425838, Note_on_c, 3, 81, 127
1, 425838, Note_on_c, 2, 69, 127
1, 425839, Note_on_c, 4, 57, 126
1, 425931, Note_off_c, 4, 57, 64
1, 425931, Note_off_c, 2, 69, 64
1, 425940, Note_off_c, 3, 81, 64
1, 425940, Note_on_c, 3, 80, 127
1, 425940, Note_on_c, 2, 69, 127
1, 425941, Note_on_c, 4, 57, 126
1, 426038, Note_on_c, 4, 38, 124
1, 426039, Note_off_c, 2, 69, 64
1, 426040, Note_off_c, 3, 80, 64
1, 426040, Note_on_c, 1, 78, 127
1, 426041, Note_on_c, 4, 66, 127
1, 426057, Note_on_c, 4, 42, 124
1, 426074, Note_off_c, 4, 57, 64
1, 426074, Note_on_c, 4, 45, 124
1, 426091, Note_on_c, 4, 50, 126
1, 426100, Note_off_c, 4, 38, 64
1, 426134, Note_off_c, 4, 42, 64
1, 426142, Note_off_c, 4, 50, 64
1, 426144, Note_off_c, 4, 66, 64
1, 426144, Note_off_c, 1, 78, 64
1, 426145, Note_on_c, 3, 80, 127
1, 426145, Note_on_c, 2, 69, 127
1, 426146, Note_on_c, 4, 50, 126
1, 426233, Note_off_c, 4, 45, 64
1, 426243, Note_off_c, 2, 69, 64
1, 426252, Note_off_c, 3, 80, 64
1, 426252, Note_on_c, 3, 81, 127
1, 426252, Note_on_c, 4, 39, 124
1, 426253, Note_on_c, 2, 69, 127
1, 426269, Note_on_c, 4, 42, 124
1, 426277, Note_off_c, 4, 50, 64
1, 426285, Note_on_c, 4, 45, 124
1, 426304, Note_on_c, 4, 51, 126
1, 426312, Note_off_c, 4, 39, 64
1, 426345, Note_off_c, 4, 42, 64
1, 426350, Note_off_c, 4, 51, 64
1, 426355, Note_off_c, 2, 69, 64
1, 426355, Note_off_c, 3, 81, 64
1, 426355, Note_on_c, 1, 83, 127
1, 426356, Note_on_c, 4, 51, 126
1, 426356, Note_on_c, 2, 71, 127
1, 426440, Note_off_c, 4, 45, 64
1, 426455, Note_on_c, 4, 40, 124
1, 426457, Note_off_c, 2, 71, 64
1, 426457, Note_off_c, 1, 83, 64
1, 426458, Note_on_c, 3, 80, 127
1, 426458, Note_on_c, 2, 69, 127
1, 426474, Note_on_c, 4, 44, 124
1, 426484, Note_off_c, 4, 51, 64
1, 426492, Note_on_c, 4, 47, 124
1, 426511, Note_on_c, 4, 52, 126
1, 426519, Note_off_c, 4, 40, 64
1, 426555, Note_off_c, 4, 44, 64
1, 426561, Note_off_c, 4, 52, 64
1, 426564, Note_off_c, 2, 69, 64
1, 426565, Note_off_c, 3, 80, 64
1, 426565, Note_on_c, 2, 76, 127
1, 426566, Note_on_c, 4, 64, 127
1, 426566, Note_on_c, 4, 52, 126
1, 426653, Note_off_c, 4, 47, 64
1, 426662, Note_off_c, 4, 52, 64
1, 426670, Note_off_c, 4, 64, 64
1, 426671, Note_off_c, 2, 76, 64
1, 426671, Note_on_c, 3, 81, 127
1, 426672, Note_on_c, 2, 69, 127
1, 426672, Note_on_c, 4, 52, 126
1, 426764, Note_off_c, 4, 52, 64
1, 426772, Note_off_c, 3, 81, 64
1, 426772, Note_off_c, 2, 69, 64
1, 426773, Note_on_c, 1, 83, 127
1, 426773, Note_on_c, 2, 71, 127
1, 426774, Note_on_c, 4, 52, 126
1, 426874, Note_off_c, 2, 71, 64
1, 426874, Note_on_c, 4, 45, 124
1, 426875, Note_off_c, 1, 83, 64
1, 426875, Note_on_c, 2, 73, 127
1, 426883, Note_off_c, 4, 52, 64
1, 426891, Note_on_c, 4, 49, 126
1, 426892, Note_on_c, 1, 85, 127
1, 426909, Note_on_c, 4, 52, 126
1, 426926, Note_on_c, 4, 57, 126
1, 426934, Note_off_c, 4, 45, 64
1, 426970, Note_off_c, 4, 49, 64
1, 426975, Note_off_c, 4, 57, 64
1, 426980, Note_on_c, 4, 57, 126
1, 427068, Note_off_c, 4, 52, 64
1, 427079, Note_off_c, 4, 57, 64
1, 427087, Note_off_c, 2, 73, 64
1, 427088, Note_on_c, 3, 81, 127
1, 427088, Note_on_c, 2, 69, 127
1, 427089, Note_on_c, 4, 57, 126
1, 427104, Note_off_c, 1, 85, 64
1, 427181, Note_off_c, 4, 57, 64
1, 427190, Note_off_c, 2, 69, 64
1, 427191, Note_off_c, 3, 81, 64
1, 427191, Note_on_c, 1, 83, 127
1, 427192, Note_on_c, 2, 71, 127
1, 427192, Note_on_c, 4, 57, 126
1, 427291, Note_off_c, 2, 71, 64
1, 427291, Note_on_c, 4, 45, 124
1, 427292, Note_off_c, 1, 83, 64
1, 427292, Note_on_c, 2, 73, 127
1, 427308, Note_on_c, 1, 85, 127
1, 427308, Note_on_c, 4, 49, 126
1, 427324, Note_on_c, 4, 52, 126
1, 427326, Note_off_c, 4, 57, 64
1, 427343, Note_on_c, 4, 57, 126
1, 427351, Note_off_c, 4, 45, 64
1, 427387, Note_off_c, 4, 49, 64
1, 427392, Note_off_c, 4, 57, 64
1, 427396, Note_off_c, 2, 73, 64
1, 427397, Note_on_c, 1, 83, 127
1, 427397, Note_on_c, 2, 71, 127
1, 427398, Note_on_c, 4, 57, 126
1, 427414, Note_off_c, 1, 85, 64
1, 427485, Note_off_c, 4, 52, 64
1, 427494, Note_off_c, 4, 57, 64
1, 427503, Note_off_c, 2, 71, 64
1, 427504, Note_off_c, 1, 83, 64
1, 427505, Note_on_c, 3, 81, 127
1, 427505, Note_on_c, 2, 69, 127
1, 427505, Note_on_c, 4, 57, 126
1, 427596, Note_off_c, 4, 57, 64
1, 427596, Note_off_c, 2, 69, 64
1, 427605, Note_off_c, 3, 81, 64
1, 427605, Note_on_c, 3, 80, 127
1, 427606, Note_on_c, 2, 69, 127
1, 427606, Note_on_c, 4, 57, 126
1, 427706, Note_on_c, 4, 38, 124
1, 427707, Note_off_c, 3, 80, 64
1, 427707, Note_off_c, 2, 69, 64
1, 427708, Note_on_c, 1, 78, 127
1, 427708, Note_on_c, 4, 66, 127
1, 427724, Note_on_c, 4, 42, 124
1, 427743, Note_off_c, 4, 57, 64
1, 427743, Note_on_c, 4, 45, 124
1, 427761, Note_on_c, 4, 50, 126
1, 427769, Note_off_c, 4, 38, 64
1, 427805, Note_off_c, 4, 42, 64
1, 427811, Note_off_c, 4, 50, 64
1, 427815, Note_off_c, 4, 66, 64
1, 427815, Note_off_c, 1, 78, 64
1, 427816, Note_on_c, 1, 83, 127
1, 427816, Note_on_c, 2, 71, 127
1, 427816, Note_on_c, 4, 50, 126
1, 427903, Note_off_c, 4, 45, 64
1, 427920, Note_on_c, 4, 40, 124
1, 427922, Note_off_c, 2, 71, 64
1, 427923, Note_off_c, 1, 83, 64
1, 427923, Note_on_c, 3, 80, 127
1, 427924, Note_on_c, 2, 69, 127
1, 427938, Note_on_c, 4, 44, 124
1, 427947, Note_off_c, 4, 50, 64
1, 427955, Note_on_c, 4, 47, 124
1, 427972, Note_on_c, 4, 52, 126
1, 427980, Note_off_c, 4, 40, 64
1, 428013, Note_off_c, 4, 44, 64
1, 428018, Note_off_c, 4, 52, 64
1, 428022, Note_off_c, 2, 69, 64
1, 428023, Note_off_c, 3, 80, 64
1, 428023, Note_on_c, 2, 76, 127
1, 428024, Note_on_c, 4, 64, 127
1, 428024, Note_on_c, 4, 52, 126
1, 428104, Note_off_c, 4, 47, 64
1, 428121, Note_off_c, 4, 52, 64
1, 428122, Note_off_c, 4, 64, 64
1, 428122, Note_off_c, 2, 76, 64
1, 428123, Note_on_c, 3, 81, 127
1, 428123, Note_on_c, 2, 69, 127
1, 428124, Note_on_c, 4, 45, 124
1, 428326, Note_off_c, 2, 69, 64
1, 428326, Note_off_c, 3, 81, 64
1, 428332, Note_on_c, 3, 81, 127
1, 428333, Note_on_c, 2, 69, 127
1, 428427, Note_off_c, 2, 69, 64
1, 428428, Note_off_c, 3, 81, 64
1, 428436, Note_on_c, 1, 83, 127
1, 428436, Note_on_c, 2, 71, 127
1, 428527, Note_off_c, 4, 45, 64
1, 428535, Note_off_c, 2, 71, 64
1, 428535, Note_off_c, 1, 83, 64
1, 428536, Note_on_c, 2, 73, 127
1, 428536, Note_on_c, 4, 45, 124
1, 428550, Note_on_c, 4, 49, 126
1, 428554, Note_on_c, 1, 85, 127
1, 428564, Note_on_c, 4, 52, 126
1, 428589, Note_on_c, 4, 57, 126
1, 428596, Note_off_c, 4, 45, 64
1, 428629, Note_off_c, 4, 49, 64
1, 428639, Note_off_c, 4, 57, 64
1, 428643, Note_on_c, 4, 57, 126
1, 428724, Note_off_c, 4, 52, 64
1, 428741, Note_off_c, 4, 57, 64
1, 428749, Note_off_c, 2, 73, 64
1, 428749, Note_on_c, 3, 81, 127
1, 428750, Note_on_c, 2, 69, 127
1, 428750, Note_on_c, 4, 57, 126
1, 428766, Note_off_c, 1, 85, 64
1, 428843, Note_off_c, 4, 57, 64
1, 428853, Note_off_c, 2, 69, 64
1, 428853, Note_off_c, 3, 81, 64
1, 428854, Note_on_c, 1, 83, 127
1, 428854, Note_on_c, 2, 71, 127
1, 428855, Note_on_c, 4, 57, 126
1, 428955, Note_on_c, 4, 45, 124
1, 428956, Note_off_c, 2, 71, 64
1, 428957, Note_off_c, 1, 83, 64
1, 428957, Note_on_c, 2, 73, 127
1, 428969, Note_on_c, 4, 49, 126
1, 428975, Note_on_c, 1, 85, 127
1, 428982, Note_on_c, 4, 52, 126
1, 428990, Note_off_c, 4, 57, 64
1, 429008, Note_on_c, 4, 57, 126
1, 429016, Note_off_c, 4, 45, 64
1, 429050, Note_off_c, 4, 49, 64
1, 429060, Note_off_c, 4, 57, 64
1, 429064, Note_off_c, 2, 73, 64
1, 429064, Note_on_c, 1, 83, 127
1, 429065, Note_on_c, 2, 71, 127
1, 429065, Note_on_c, 4, 57, 126
1, 429081, Note_off_c, 1, 85, 64
1, 429146, Note_off_c, 4, 52, 64
1, 429162, Note_off_c, 4, 57, 64
1, 429171, Note_off_c, 2, 71, 64
1, 429172, Note_off_c, 1, 83, 64
1, 429172, Note_on_c, 3, 81, 127
1, 429173, Note_on_c, 2, 69, 127
1, 429173, Note_on_c, 4, 57, 126
1, 429267, Note_off_c, 4, 57, 64
1, 429268, Note_off_c, 2, 69, 64
1, 429276, Note_off_c, 3, 81, 64
1, 429277, Note_on_c, 3, 80, 127
1, 429277, Note_on_c, 2, 69, 127
1, 429278, Note_on_c, 4, 57, 126
1, 429378, Note_on_c, 4, 38, 124
1, 429379, Note_off_c, 2, 69, 64
1, 429379, Note_off_c, 3, 80, 64
1, 429379, Note_on_c, 1, 78, 127
1, 429380, Note_on_c, 4, 66, 127
1, 429396, Note_on_c, 4, 42, 124
1, 429413, Note_off_c, 4, 57, 64
1, 429413, Note_on_c, 4, 45, 124
1, 429429, Note_on_c, 4, 50, 126
1, 429437, Note_off_c, 4, 38, 64
1, 429473, Note_off_c, 4, 42, 64
1, 429479, Note_off_c, 4, 50, 64
1, 429483, Note_off_c, 4, 66, 64
1, 429483, Note_off_c, 1, 78, 64
1, 429484, Note_on_c, 3, 80, 127
1, 429484, Note_on_c, 2, 69, 127
1, 429485, Note_on_c, 4, 50, 126
1, 429572, Note_off_c, 4, 45, 64
1, 429581, Note_off_c, 2, 69, 64
1, 429589, Note_on_c, 4, 39, 124
1, 429590, Note_off_c, 3, 80, 64
1, 429590, Note_on_c, 3, 81, 127
1, 429591, Note_on_c, 2, 69, 127
1, 429607, Note_on_c, 4, 42, 124
1, 429614, Note_off_c, 4, 50, 64
1, 429622, Note_on_c, 4, 45, 124
1, 429641, Note_on_c, 4, 51, 126
1, 429649, Note_off_c, 4, 39, 64
1, 429684, Note_off_c, 4, 42, 64
1, 429689, Note_off_c, 4, 51, 64
1, 429693, Note_off_c, 2, 69, 64
1, 429694, Note_off_c, 3, 81, 64
1, 429694, Note_on_c, 1, 83, 127
1, 429694, Note_on_c, 2, 71, 127
1, 429695, Note_on_c, 4, 51, 126
1, 429778, Note_off_c, 4, 45, 64
1, 429796, Note_off_c, 2, 71, 64
1, 429796, Note_on_c, 4, 40, 124
1, 429797, Note_off_c, 1, 83, 64
1, 429797, Note_on_c, 3, 80, 127
1, 429798, Note_on_c, 2, 69, 127
1, 429813, Note_on_c, 4, 44, 124
1, 429823, Note_off_c, 4, 51, 64
1, 429830, Note_on_c, 4, 47, 124
1, 429849, Note_on_c, 4, 52, 126
1, 429857, Note_off_c, 4, 40, 64
1, 429892, Note_off_c, 4, 44, 64
1, 429898, Note_off_c, 4, 52, 64
1, 429901, Note_off_c, 2, 69, 64
1, 429902, Note_off_c, 3, 80, 64
1, 429902, Note_on_c, 2, 76, 127
1, 429903, Note_on_c, 4, 64, 127
1, 429903, Note_on_c, 4, 52, 126
1, 429990, Note_off_c, 4, 47, 64
1, 429999, Note_off_c, 4, 52, 64
1, 430009, Note_off_c, 4, 64, 64
1, 430009, Note_off_c, 2, 76, 64
1, 430010, Note_on_c, 3, 81, 127
1, 430010, Note_on_c, 2, 69, 127
1, 430010, Note_on_c, 4, 52, 126
1, 430101, Note_off_c, 4, 52, 64
1, 430111, Note_off_c, 2, 69, 64
1, 430111, Note_off_c, 3, 81, 64
1, 430111, Note_on_c, 1, 83, 127
1, 430112, Note_on_c, 2, 71, 127
1, 430112, Note_on_c, 4, 52, 126
1, 430209, Note_off_c, 2, 71, 64
1, 430209, Note_on_c, 4, 45, 124
1, 430210, Note_off_c, 1, 83, 64
1, 430210, Note_on_c, 2, 73, 127
1, 430218, Note_off_c, 4, 52, 64
1, 430226, Note_on_c, 1, 85, 127
1, 430226, Note_on_c, 4, 49, 126
1, 430244, Note_on_c, 4, 52, 126
1, 430261, Note_on_c, 4, 57, 126
1, 430267, Note_off_c, 4, 45, 64
1, 430304, Note_off_c, 4, 49, 64
1, 430309, Note_off_c, 4, 57, 64
1, 430313, Note_on_c, 4, 57, 126
1, 430402, Note_off_c, 4, 52, 64
1, 430411, Note_off_c, 4, 57, 64
1, 430421, Note_off_c, 2, 73, 64
1, 430421, Note_on_c, 3, 81, 127
1, 430422, Note_on_c, 2, 69, 127
1, 430422, Note_on_c, 4, 57, 126
1, 430437, Note_off_c, 1, 85, 64
1, 430515, Note_off_c, 4, 57, 64
1, 430523, Note_off_c, 2, 69, 64
1, 430523, Note_off_c, 3, 81, 64
1, 430524, Note_on_c, 1, 83, 127
1, 430524, Note_on_c, 2, 71, 127
1, 430524, Note_on_c, 4, 57, 126
1, 430621, Note_off_c, 2, 71, 64
1, 430621, Note_on_c, 4, 45, 124
1, 430622, Note_off_c, 1, 83, 64
1, 430622, Note_on_c, 2, 73, 127
1, 430638, Note_on_c, 1, 85, 127
1, 430638, Note_on_c, 4, 49, 126
1, 430656, Note_off_c, 4, 57, 64
1, 430656, Note_on_c, 4, 52, 126
1, 430672, Note_on_c, 4, 57, 126
1, 430680, Note_off_c, 4, 45, 64
1, 430716, Note_off_c, 4, 49, 64
1, 430722, Note_off_c, 4, 57, 64
1, 430726, Note_off_c, 2, 73, 64
1, 430727, Note_on_c, 1, 83, 127
1, 430727, Note_on_c, 2, 71, 127
1, 430728, Note_on_c, 4, 57, 126
1, 430743, Note_off_c, 1, 85, 64
1, 430814, Note_off_c, 4, 52, 64
1, 430824, Note_off_c, 4, 57, 64
1, 430832, Note_off_c, 2, 71, 64
1, 430833, Note_off_c, 1, 83, 64
1, 430833, Note_on_c, 3, 81, 127
1, 430834, Note_on_c, 2, 69, 127
1, 430834, Note_on_c, 4, 57, 126
1, 430925, Note_off_c, 4, 57, 64
1, 430925, Note_off_c, 2, 69, 64
1, 430933, Note_off_c, 3, 81, 64
1, 430934, Note_on_c, 3, 80, 127
1, 430934, Note_on_c, 2, 69, 127
1, 430935, Note_on_c, 4, 57, 126
1, 431037, Note_on_c, 4, 38, 124
1, 431039, Note_off_c, 2, 69, 64
1, 431040, Note_off_c, 3, 80, 64
1, 431040, Note_on_c, 1, 78, 127
1, 431040, Note_on_c, 4, 66, 127
1, 431056, Note_on_c, 4, 42, 124
1, 431074, Note_off_c, 4, 57, 64
1, 431074, Note_on_c, 4, 45, 124
1, 431093, Note_on_c, 4, 50, 126
1, 431100, Note_off_c, 4, 38, 64
1, 431137, Note_off_c, 4, 42, 64
1, 431143, Note_off_c, 4, 50, 64
1, 431147, Note_off_c, 4, 66, 64
1, 431147, Note_off_c, 1, 78, 64
1, 431148, Note_on_c, 1, 83, 127
1, 431148, Note_on_c, 2, 71, 127
1, 431148, Note_on_c, 4, 50, 126
1, 431235, Note_off_c, 4, 45, 64
1, 431252, Note_on_c, 4, 40, 124
1, 431253, Note_off_c, 2, 71, 64
1, 431253, Note_off_c, 1, 83, 64
1, 431254, Note_on_c, 3, 80, 127
1, 431254, Note_on_c, 2, 69, 127
1, 431270, Note_on_c, 4, 44, 124
1, 431279, Note_off_c, 4, 50, 64
1, 431287, Note_on_c, 4, 47, 124
1, 431304, Note_on_c, 4, 52, 126
1, 431312, Note_off_c, 4, 40, 64
1, 431346, Note_off_c, 4, 44, 64
1, 431352, Note_off_c, 4, 52, 64
1, 431356, Note_off_c, 2, 69, 64
1, 431356, Note_off_c, 3, 80, 64
1, 431357, Note_on_c, 2, 76, 127
1, 431357, Note_on_c, 4, 64, 127
1, 431358, Note_on_c, 4, 52, 126
1, 431441, Note_off_c, 4, 47, 64
1, 431459, Note_off_c, 4, 52, 64
1, 431459, Note_off_c, 4, 64, 64
1, 431460, Note_off_c, 2, 76, 64
1, 431460, Note_on_c, 3, 81, 127
1, 431460, Note_on_c, 2, 69, 127
1, 431461, Note_on_c, 4, 45, 124
1, 431690, Note_off_c, 2, 69, 64
1, 431691, Note_off_c, 3, 81, 64
1, 431691, Note_on_c, 2, 71, 127
1, 431745, Note_on_c, 2, 69, 127
1, 431755, Note_off_c, 2, 71, 64
1, 431795, Note_on_c, 2, 68, 127
1, 431805, Note_off_c, 2, 69, 64
1, 431847, Note_on_c, 2, 69, 127
1, 431856, Note_off_c, 2, 68, 64
1, 431901, Note_off_c, 4, 45, 64
1, 431901, Note_on_c, 2, 72, 127
1, 431902, Note_on_c, 4, 57, 126
1, 431909, Note_off_c, 2, 69, 64
1, 432007, Note_on_c, 4, 64, 127
1, 432008, Note_on_c, 4, 60, 127
1, 432035, Note_off_c, 4, 57, 64
1, 432106, Note_off_c, 2, 72, 64
1, 432112, Note_off_c, 4, 60, 64
1, 432112, Note_off_c, 4, 64, 64
1, 432115, Note_on_c, 2, 74, 127
1, 432115, Note_on_c, 4, 64, 127
1, 432116, Note_on_c, 4, 60, 127
1, 432169, Note_on_c, 2, 72, 127
1, 432179, Note_off_c, 2, 74, 64
1, 432219, Note_off_c, 4, 60, 64
1, 432220, Note_off_c, 4, 64, 64
1, 432222, Note_on_c, 2, 71, 127
1, 432223, Note_on_c, 4, 64, 127
1, 432223, Note_on_c, 4, 60, 127
1, 432229, Note_off_c, 2, 72, 64
1, 432271, Note_on_c, 2, 72, 127
1, 432281, Note_off_c, 2, 71, 64
1, 432321, Note_off_c, 4, 60, 64
1, 432321, Note_off_c, 4, 64, 64
1, 432322, Note_on_c, 2, 76, 127
1, 432323, Note_on_c, 4, 57, 126
1, 432333, Note_off_c, 2, 72, 64
1, 432431, Note_on_c, 4, 64, 127
1, 432431, Note_on_c, 4, 60, 127
1, 432456, Note_off_c, 4, 57, 64
1, 432529, Note_off_c, 2, 76, 64
1, 432535, Note_off_c, 4, 60, 64
1, 432536, Note_off_c, 4, 64, 64
1, 432538, Note_on_c, 2, 77, 127
1, 432539, Note_on_c, 4, 64, 127
1, 432539, Note_on_c, 4, 60, 127
1, 432591, Note_on_c, 2, 76, 127
1, 432599, Note_off_c, 2, 77, 64
1, 432638, Note_off_c, 4, 60, 64
1, 432638, Note_off_c, 4, 64, 64
1, 432641, Note_on_c, 4, 64, 127
1, 432641, Note_on_c, 2, 75, 127
1, 432642, Note_on_c, 4, 60, 127
1, 432649, Note_off_c, 2, 76, 64
1, 432692, Note_on_c, 2, 76, 127
1, 432700, Note_off_c, 2, 75, 64
1, 432741, Note_off_c, 4, 64, 64
1, 432741, Note_off_c, 4, 60, 64
1, 432744, Note_on_c, 1, 83, 127
1, 432744, Note_on_c, 4, 57, 126
1, 432752, Note_off_c, 2, 76, 64
1, 432794, Note_on_c, 3, 81, 127
1, 432804, Note_off_c, 1, 83, 64
1, 432848, Note_on_c, 3, 80, 127
1, 432849, Note_on_c, 4, 64, 127
1, 432849, Note_on_c, 4, 60, 127
1, 432857, Note_off_c, 3, 81, 64
1, 432876, Note_off_c, 4, 57, 64
1, 432903, Note_on_c, 3, 81, 127
1, 432912, Note_off_c, 3, 80, 64
1, 432959, Note_on_c, 1, 83, 127
1, 432959, Note_on_c, 4, 57, 126
1, 432967, Note_off_c, 3, 81, 64
1, 432983, Note_off_c, 4, 60, 64
1, 432983, Note_off_c, 4, 64, 64
1, 433008, Note_on_c, 3, 81, 127
1, 433016, Note_off_c, 1, 83, 64
1, 433058, Note_on_c, 3, 80, 127
1, 433059, Note_on_c, 4, 64, 127
1, 433059, Note_on_c, 4, 60, 127
1, 433067, Note_off_c, 3, 81, 64
1, 433086, Note_off_c, 4, 57, 64
1, 433111, Note_on_c, 3, 81, 127
1, 433121, Note_off_c, 3, 80, 64
1, 433163, Note_on_c, 1, 84, 127
1, 433164, Note_on_c, 4, 57, 126
1, 433172, Note_off_c, 3, 81, 64
1, 433189, Note_off_c, 4, 60, 64
1, 433189, Note_off_c, 4, 64, 64
1, 433271, Note_on_c, 4, 64, 127
1, 433271, Note_on_c, 4, 60, 127
1, 433296, Note_off_c, 4, 57, 64
1, 433375, Note_off_c, 4, 60, 64
1, 433376, Note_off_c, 4, 64, 64
1, 433376, Note_off_c, 1, 84, 64
1, 433379, Note_on_c, 3, 81, 127
1, 433379, Note_on_c, 4, 64, 127
1, 433379, Note_on_c, 4, 60, 127
1, 433483, Note_off_c, 4, 60, 64
1, 433483, Note_off_c, 4, 64, 64
1, 433484, Note_off_c, 3, 81, 64
1, 433486, Note_on_c, 1, 84, 127
1, 433486, Note_on_c, 4, 64, 127
1, 433487, Note_on_c, 4, 60, 127
1, 433590, Note_off_c, 4, 60, 64
1, 433591, Note_off_c, 4, 64, 64
1, 433591, Note_off_c, 1, 84, 64
1, 433593, Note_on_c, 3, 79, 127
1, 433594, Note_on_c, 4, 52, 126
1, 433611, Note_off_c, 3, 79, 64
1, 433612, Note_on_c, 3, 81, 127
1, 433628, Note_off_c, 3, 81, 64
1, 433629, Note_on_c, 1, 83, 127
1, 433698, Note_on_c, 3, 81, 127
1, 433699, Note_on_c, 1, 78, 127
1, 433699, Note_on_c, 4, 64, 127
1, 433699, Note_on_c, 4, 59, 127
1, 433725, Note_off_c, 4, 52, 64
1, 433732, Note_off_c, 1, 83, 64
1, 433803, Note_off_c, 4, 59, 64
1, 433804, Note_off_c, 4, 64, 64
1, 433804, Note_off_c, 1, 78, 64
1, 433805, Note_off_c, 3, 81, 64
1, 433805, Note_on_c, 3, 79, 127
1, 433806, Note_on_c, 2, 76, 127
1, 433806, Note_on_c, 4, 64, 127
1, 433807, Note_on_c, 4, 59, 127
1, 433907, Note_off_c, 4, 59, 64
1, 433908, Note_off_c, 4, 64, 64
1, 433908, Note_off_c, 2, 76, 64
1, 433908, Note_off_c, 3, 79, 64
1, 433911, Note_on_c, 3, 81, 127
1, 433911, Note_on_c, 1, 78, 127
1, 433912, Note_on_c, 4, 64, 127
1, 433912, Note_on_c, 4, 59, 127
1, 434013, Note_off_c, 4, 59, 64
1, 434013, Note_off_c, 4, 64, 64
1, 434014, Note_off_c, 1, 78, 64
1, 434014, Note_off_c, 3, 81, 64
1, 434015, Note_on_c, 3, 79, 127
1, 434016, Note_on_c, 4, 52, 126
1, 434033, Note_off_c, 3, 79, 64
1, 434034, Note_on_c, 3, 81, 127
1, 434052, Note_off_c, 3, 81, 64
1, 434052, Note_on_c, 1, 83, 127
1, 434122, Note_on_c, 3, 81, 127
1, 434122, Note_on_c, 1, 78, 127
1, 434123, Note_on_c, 4, 64, 127
1, 434123, Note_on_c, 4, 59, 127
1, 434148, Note_off_c, 4, 52, 64
1, 434156, Note_off_c, 1, 83, 64
1, 434227, Note_off_c, 4, 59, 64
1, 434227, Note_off_c, 4, 64, 64
1, 434228, Note_off_c, 1, 78, 64
1, 434228, Note_off_c, 3, 81, 64
1, 434229, Note_on_c, 3, 79, 127
1, 434229, Note_on_c, 2, 76, 127
1, 434230, Note_on_c, 4, 64, 127
1, 434230, Note_on_c, 4, 59, 127
1, 434332, Note_off_c, 4, 59, 64
1, 434333, Note_off_c, 4, 64, 64
1, 434333, Note_off_c, 2, 76, 64
1, 434334, Note_off_c, 3, 79, 64
1, 434335, Note_on_c, 3, 81, 127
1, 434335, Note_on_c, 1, 78, 127
1, 434335, Note_on_c, 4, 64, 127
1, 434336, Note_on_c, 4, 59, 127
1, 434437, Note_off_c, 4, 64, 64
1, 434437, Note_off_c, 4, 59, 64
1, 434438, Note_off_c, 1, 78, 64
1, 434438, Note_off_c, 3, 81, 64
1, 434441, Note_on_c, 3, 79, 127
1, 434442, Note_on_c, 4, 52, 126
1, 434460, Note_off_c, 3, 79, 64
1, 434460, Note_on_c, 3, 81, 127
1, 434476, Note_off_c, 3, 81, 64
1, 434476, Note_on_c, 1, 83, 127
1, 434546, Note_on_c, 3, 81, 127
1, 434546, Note_on_c, 1, 78, 127
1, 434547, Note_on_c, 4, 64, 127
1, 434547, Note_on_c, 4, 59, 127
1, 434573, Note_off_c, 4, 52, 64
1, 434579, Note_off_c, 1, 83, 64
1, 434652, Note_off_c, 1, 78, 64
1, 434652, Note_off_c, 3, 81, 64
1, 434652, Note_on_c, 3, 79, 127
1, 434653, Note_on_c, 2, 76, 127
1, 434653, Note_on_c, 4, 47, 124
1, 434679, Note_off_c, 4, 59, 64
1, 434680, Note_off_c, 4, 64, 64
1, 434755, Note_off_c, 2, 76, 64
1, 434756, Note_off_c, 3, 79, 64
1, 434758, Note_on_c, 1, 78, 127
1, 434759, Note_on_c, 4, 59, 127
1, 434759, Note_on_c, 2, 75, 127
1, 434784, Note_off_c, 4, 47, 64
1, 434861, Note_off_c, 2, 75, 64
1, 434861, Note_off_c, 1, 78, 64
1, 434864, Note_on_c, 4, 52, 126
1, 434864, Note_on_c, 2, 76, 127
1, 434890, Note_off_c, 4, 59, 64
1, 435077, Note_off_c, 2, 76, 64
1, 435079, Note_on_c, 2, 71, 127
1, 435132, Note_on_c, 2, 69, 127
1, 435142, Note_off_c, 2, 71, 64
1, 435184, Note_on_c, 2, 68, 127
1, 435194, Note_off_c, 2, 69, 64
1, 435237, Note_on_c, 2, 69, 127
1, 435245, Note_off_c, 2, 68, 64
1, 435289, Note_off_c, 4, 52, 64
1, 435290, Note_on_c, 2, 72, 127
1, 435290, Note_on_c, 4, 57, 126
1, 435299, Note_off_c, 2, 69, 64
1, 435396, Note_on_c, 4, 64, 127
1, 435397, Note_on_c, 4, 60, 127
1, 435424, Note_off_c, 4, 57, 64
1, 435495, Note_off_c, 2, 72, 64
1, 435501, Note_off_c, 4, 60, 64
1, 435502, Note_off_c, 4, 64, 64
1, 435504, Note_on_c, 4, 64, 127
1, 435504, Note_on_c, 2, 74, 127
1, 435505, Note_on_c, 4, 60, 127
1, 435558, Note_on_c, 2, 72, 127
1, 435565, Note_off_c, 2, 74, 64
1, 435606, Note_off_c, 4, 64, 64
1, 435606, Note_off_c, 4, 60, 64
1, 435609, Note_on_c, 2, 71, 127
1, 435609, Note_on_c, 4, 64, 127
1, 435610, Note_on_c, 4, 60, 127
1, 435617, Note_off_c, 2, 72, 64
1, 435660, Note_on_c, 2, 72, 127
1, 435667, Note_off_c, 2, 71, 64
1, 435709, Note_off_c, 4, 60, 64
1, 435710, Note_off_c, 4, 64, 64
1, 435712, Note_on_c, 2, 76, 127
1, 435713, Note_on_c, 4, 57, 126
1, 435721, Note_off_c, 2, 72, 64
1, 435819, Note_on_c, 4, 64, 127
1, 435819, Note_on_c, 4, 60, 127
1, 435847, Note_off_c, 4, 57, 64
1, 435918, Note_off_c, 2, 76, 64
1, 435924, Note_off_c, 4, 60, 64
1, 435924, Note_off_c, 4, 64, 64
1, 435926, Note_on_c, 2, 77, 127
1, 435927, Note_on_c, 4, 64, 127
1, 435927, Note_on_c, 4, 60, 127
1, 435983, Note_on_c, 2, 76, 127
1, 435993, Note_off_c, 2, 77, 64
1, 436031, Note_off_c, 4, 60, 64
1, 436032, Note_off_c, 4, 64, 64
1, 436034, Note_on_c, 2, 75, 127
1, 436034, Note_on_c, 4, 64, 127
1, 436035, Note_on_c, 4, 60, 127
1, 436043, Note_off_c, 2, 76, 64
1, 436085, Note_on_c, 2, 76, 127
1, 436092, Note_off_c, 2, 75, 64
1, 436136, Note_off_c, 4, 64, 64
1, 436136, Note_off_c, 4, 60, 64
1, 436139, Note_on_c, 1, 83, 127
1, 436139, Note_on_c, 4, 57, 126
1, 436147, Note_off_c, 2, 76, 64
1, 436190, Note_on_c, 3, 81, 127
1, 436200, Note_off_c, 1, 83, 64
1, 436243, Note_on_c, 3, 80, 127
1, 436244, Note_on_c, 4, 64, 127
1, 436244, Note_on_c, 4, 60, 127
1, 436252, Note_off_c, 3, 81, 64
1, 436268, Note_off_c, 4, 57, 64
1, 436296, Note_on_c, 3, 81, 127
1, 436304, Note_off_c, 3, 80, 64
1, 436348, Note_on_c, 1, 83, 127
1, 436349, Note_on_c, 4, 57, 126
1, 436355, Note_off_c, 3, 81, 64
1, 436372, Note_off_c, 4, 60, 64
1, 436373, Note_off_c, 4, 64, 64
1, 436398, Note_on_c, 3, 81, 127
1, 436408, Note_off_c, 1, 83, 64
1, 436448, Note_on_c, 3, 80, 127
1, 436449, Note_on_c, 4, 64, 127
1, 436449, Note_on_c, 4, 60, 127
1, 436457, Note_off_c, 3, 81, 64
1, 436472, Note_off_c, 4, 57, 64
1, 436499, Note_on_c, 3, 81, 127
1, 436507, Note_off_c, 3, 80, 64
1, 436549, Note_on_c, 1, 84, 127
1, 436549, Note_on_c, 4, 57, 126
1, 436558, Note_off_c, 3, 81, 64
1, 436575, Note_off_c, 4, 60, 64
1, 436575, Note_off_c, 4, 64, 64
1, 436656, Note_on_c, 4, 64, 127
1, 436657, Note_on_c, 4, 60, 127
1, 436682, Note_off_c, 4, 57, 64
1, 436761, Note_off_c, 4, 60, 64
1, 436761, Note_off_c, 4, 64, 64
1, 436762, Note_off_c, 1, 84, 64
1, 436764, Note_on_c, 3, 81, 127
1, 436764, Note_on_c, 4, 64, 127
1, 436765, Note_on_c, 4, 60, 127
1, 436868, Note_off_c, 4, 60, 64
1, 436869, Note_off_c, 4, 64, 64
1, 436869, Note_off_c, 3, 81, 64
1, 436870, Note_on_c, 1, 84, 127
1, 436871, Note_on_c, 4, 64, 127
1, 436871, Note_on_c, 4, 60, 127
1, 436973, Note_off_c, 4, 60, 64
1, 436973, Note_off_c, 4, 64, 64
1, 436974, Note_off_c, 1, 84, 64
1, 436976, Note_on_c, 3, 79, 127
1, 436977, Note_on_c, 4, 52, 126
1, 436994, Note_off_c, 3, 79, 64
1, 436995, Note_on_c, 3, 81, 127
1, 437011, Note_off_c, 3, 81, 64
1, 437011, Note_on_c, 1, 83, 127
1, 437081, Note_on_c, 3, 81, 127
1, 437081, Note_on_c, 1, 78, 127
1, 437082, Note_on_c, 4, 64, 127
1, 437082, Note_on_c, 4, 59, 127
1, 437108, Note_off_c, 4, 52, 64
1, 437113, Note_off_c, 1, 83, 64
1, 437186, Note_off_c, 4, 59, 64
1, 437187, Note_off_c, 4, 64, 64
1, 437187, Note_off_c, 1, 78, 64
1, 437188, Note_off_c, 3, 81, 64
1, 437188, Note_on_c, 3, 79, 127
1, 437189, Note_on_c, 2, 76, 127
1, 437189, Note_on_c, 4, 64, 127
1, 437190, Note_on_c, 4, 59, 127
1, 437292, Note_off_c, 4, 64, 64
1, 437292, Note_off_c, 4, 59, 64
1, 437293, Note_off_c, 3, 79, 64
1, 437293, Note_off_c, 2, 76, 64
1, 437294, Note_on_c, 3, 81, 127
1, 437294, Note_on_c, 1, 78, 127
1, 437295, Note_on_c, 4, 64, 127
1, 437295, Note_on_c, 4, 59, 127
1, 437396, Note_off_c, 4, 59, 64
1, 437396, Note_off_c, 4, 64, 64
1, 437397, Note_off_c, 1, 78, 64
1, 437397, Note_off_c, 3, 81, 64
1, 437400, Note_on_c, 4, 52, 126
1, 437400, Note_on_c, 3, 79, 127
1, 437416, Note_off_c, 3, 79, 64
1, 437416, Note_on_c, 3, 81, 127
1, 437434, Note_off_c, 3, 81, 64
1, 437435, Note_on_c, 1, 83, 127
1, 437505, Note_on_c, 3, 81, 127
1, 437505, Note_on_c, 1, 78, 127
1, 437505, Note_on_c, 4, 64, 127
1, 437506, Note_on_c, 4, 59, 127
1, 437531, Note_off_c, 4, 52, 64
1, 437537, Note_off_c, 1, 83, 64
1, 437608, Note_off_c, 4, 64, 64
1, 437608, Note_off_c, 4, 59, 64
1, 437609, Note_off_c, 1, 78, 64
1, 437609, Note_off_c, 3, 81, 64
1, 437612, Note_on_c, 3, 79, 127
1, 437612, Note_on_c, 2, 76, 127
1, 437613, Note_on_c, 4, 64, 127
1, 437613, Note_on_c, 4, 59, 127
1, 437715, Note_off_c, 4, 59, 64
1, 437716, Note_off_c, 4, 64, 64
1, 437716, Note_off_c, 2, 76, 64
1, 437717, Note_off_c, 3, 79, 64
1, 437717, Note_on_c, 3, 81, 127
1, 437718, Note_on_c, 1, 78, 127
1, 437718, Note_on_c, 4, 64, 127
1, 437719, Note_on_c, 4, 59, 127
1, 437821, Note_off_c, 4, 64, 64
1, 437821, Note_off_c, 4, 59, 64
1, 437822, Note_off_c, 3, 81, 64
1, 437822, Note_off_c, 1, 78, 64
1, 437823, Note_on_c, 3, 79, 127
1, 437824, Note_on_c, 4, 52, 126
1, 437841, Note_off_c, 3, 79, 64
1, 437842, Note_on_c, 3, 81, 127
1, 437859, Note_off_c, 3, 81, 64
1, 437860, Note_on_c, 1, 83, 127
1, 437928, Note_on_c, 3, 81, 127
1, 437928, Note_on_c, 1, 78, 127
1, 437928, Note_on_c, 4, 64, 127
1, 437929, Note_on_c, 4, 59, 127
1, 437954, Note_off_c, 4, 52, 64
1, 437962, Note_off_c, 1, 83, 64
1, 438033, Note_off_c, 1, 78, 64
1, 438034, Note_off_c, 3, 81, 64
1, 438036, Note_on_c, 3, 79, 127
1, 438036, Note_on_c, 2, 76, 127
1, 438037, Note_on_c, 4, 47, 124
1, 438062, Note_off_c, 4, 64, 64
1, 438062, Note_off_c, 4, 59, 64
1, 438138, Note_off_c, 2, 76, 64
1, 438139, Note_off_c, 3, 79, 64
1, 438142, Note_on_c, 2, 75, 127
1, 438142, Note_on_c, 1, 78, 127
1, 438143, Note_on_c, 4, 59, 127
1, 438168, Note_off_c, 4, 47, 64
1, 438240, Note_off_c, 2, 75, 64
1, 438241, Note_off_c, 1, 78, 64
1, 438243, Note_on_c, 2, 76, 127
1, 438244, Note_on_c, 4, 52, 126
1, 438270, Note_off_c, 4, 59, 64
1, 438454, Note_off_c, 2, 76, 64
1, 438457, Note_on_c, 2, 76, 127
1, 438458, Note_on_c, 2, 72, 127
1, 438558, Note_off_c, 2, 72, 64
1, 438559, Note_off_c, 2, 76, 64
1, 438562, Note_on_c, 2, 77, 127
1, 438562, Note_on_c, 2, 74, 127
1, 438666, Note_off_c, 2, 74, 64
1, 438666, Note_off_c, 2, 77, 64
1, 438667, Note_off_c, 4, 52, 64
1, 438668, Note_on_c, 3, 79, 127
1, 438668, Note_on_c, 2, 76, 127
1, 438668, Note_on_c, 4, 48, 124
1, 438772, Note_off_c, 2, 76, 64
1, 438773, Note_off_c, 3, 79, 64
1, 438776, Note_on_c, 3, 79, 127
1, 438776, Note_on_c, 2, 76, 127
1, 438776, Note_on_c, 4, 60, 127
1, 438802, Note_off_c, 4, 48, 64
1, 438880, Note_off_c, 2, 76, 64
1, 438880, Note_off_c, 3, 79, 64
1, 438883, Note_on_c, 3, 81, 127
1, 438884, Note_on_c, 4, 52, 126
1, 438909, Note_off_c, 4, 60, 64
1, 438934, Note_off_c, 3, 81, 64
1, 438936, Note_on_c, 3, 79, 127
1, 438982, Note_off_c, 3, 79, 64
1, 438984, Note_on_c, 2, 77, 127
1, 438984, Note_on_c, 4, 64, 127
1, 439008, Note_off_c, 4, 52, 64
1, 439030, Note_off_c, 2, 77, 64
1, 439032, Note_on_c, 2, 76, 127
1, 439080, Note_off_c, 2, 76, 64
1, 439082, Note_on_c, 2, 74, 127
1, 439082, Note_on_c, 2, 71, 127
1, 439083, Note_on_c, 4, 55, 126
1, 439109, Note_off_c, 4, 64, 64
1, 439186, Note_off_c, 2, 71, 64
1, 439190, Note_on_c, 2, 67, 127
1, 439294, Note_off_c, 2, 74, 64
1, 439298, Note_on_c, 2, 76, 127
1, 439298, Note_on_c, 2, 72, 127
1, 439324, Note_off_c, 2, 67, 64
1, 439401, Note_off_c, 2, 72, 64
1, 439401, Note_off_c, 2, 76, 64
1, 439404, Note_on_c, 2, 77, 127
1, 439404, Note_on_c, 2, 74, 127
1, 439507, Note_off_c, 2, 74, 64
1, 439508, Note_off_c, 2, 77, 64
1, 439508, Note_off_c, 4, 55, 64
1, 439509, Note_on_c, 3, 79, 127
1, 439509, Note_on_c, 2, 76, 127
1, 439510, Note_on_c, 4, 48, 124
1, 439614, Note_off_c, 2, 76, 64
1, 439614, Note_off_c, 3, 79, 64
1, 439617, Note_on_c, 3, 79, 127
1, 439617, Note_on_c, 2, 76, 127
1, 439618, Note_on_c, 4, 60, 127
1, 439643, Note_off_c, 4, 48, 64
1, 439721, Note_off_c, 2, 76, 64
1, 439722, Note_off_c, 3, 79, 64
1, 439724, Note_on_c, 3, 81, 127
1, 439725, Note_on_c, 4, 52, 126
1, 439750, Note_off_c, 4, 60, 64
1, 439777, Note_off_c, 3, 81, 64
1, 439779, Note_on_c, 3, 79, 127
1, 439825, Note_off_c, 3, 79, 64
1, 439827, Note_on_c, 4, 64, 127
1, 439827, Note_on_c, 2, 77, 127
1, 439849, Note_off_c, 4, 52, 64
1, 439870, Note_off_c, 2, 77, 64
1, 439874, Note_on_c, 2, 76, 127
1, 439918, Note_off_c, 2, 76, 64
1, 439922, Note_on_c, 2, 74, 127
1, 439922, Note_on_c, 2, 71, 127
1, 439923, Note_on_c, 4, 55, 126
1, 439948, Note_off_c, 4, 64, 64
1, 440134, Note_off_c, 2, 71, 64
1, 440135, Note_off_c, 2, 74, 64
1, 440135, Note_on_c, 2, 72, 127
1, 440136, Note_on_c, 2, 69, 127
1, 440241, Note_off_c, 2, 72, 64
1, 440241, Note_off_c, 2, 69, 64
1, 440244, Note_on_c, 2, 74, 127
1, 440244, Note_on_c, 2, 71, 127
1, 440346, Note_off_c, 2, 71, 64
1, 440347, Note_off_c, 2, 74, 64
1, 440347, Note_off_c, 4, 55, 64
1, 440350, Note_on_c, 2, 76, 127
1, 440350, Note_on_c, 2, 72, 127
1, 440350, Note_on_c, 4, 45, 124
1, 440453, Note_off_c, 2, 72, 64
1, 440453, Note_off_c, 2, 76, 64
1, 440456, Note_on_c, 2, 76, 127
1, 440456, Note_on_c, 2, 72, 127
1, 440457, Note_on_c, 4, 57, 126
1, 440484, Note_off_c, 4, 45, 64
1, 440561, Note_off_c, 2, 72, 64
1, 440562, Note_off_c, 2, 76, 64
1, 440564, Note_on_c, 2, 77, 127
1, 440565, Note_on_c, 4, 48, 124
1, 440591, Note_off_c, 4, 57, 64
1, 440617, Note_off_c, 2, 77, 64
1, 440619, Note_on_c, 2, 76, 127
1, 440665, Note_off_c, 2, 76, 64
1, 440667, Note_on_c, 2, 74, 127
1, 440668, Note_on_c, 4, 60, 127
1, 440691, Note_off_c, 4, 48, 64
1, 440712, Note_off_c, 2, 74, 64
1, 440714, Note_on_c, 2, 72, 127
1, 440760, Note_off_c, 2, 72, 64
1, 440764, Note_on_c, 2, 71, 127
1, 440764, Note_on_c, 2, 68, 127
1, 440765, Note_on_c, 4, 52, 126
1, 440790, Note_off_c, 4, 60, 64
1, 440868, Note_off_c, 2, 68, 64
1, 440870, Note_on_c, 4, 64, 127
1, 440976, Note_off_c, 2, 71, 64
1, 440978, Note_on_c, 2, 72, 127
1, 440978, Note_on_c, 2, 69, 127
1, 441006, Note_off_c, 4, 64, 64
1, 441083, Note_off_c, 2, 69, 64
1, 441083, Note_off_c, 2, 72, 64
1, 441086, Note_on_c, 2, 74, 127
1, 441086, Note_on_c, 2, 71, 127
1, 441188, Note_off_c, 2, 71, 64
1, 441189, Note_off_c, 2, 74, 64
1, 441189, Note_off_c, 4, 52, 64
1, 441192, Note_on_c, 2, 76, 127
1, 441192, Note_on_c, 2, 72, 127
1, 441192, Note_on_c, 4, 45, 124
1, 441296, Note_off_c, 2, 72, 64
1, 441296, Note_off_c, 2, 76, 64
1, 441299, Note_on_c, 2, 76, 127
1, 441300, Note_on_c, 2, 72, 127
1, 441300, Note_on_c, 4, 57, 126
1, 441326, Note_off_c, 4, 45, 64
1, 441402, Note_off_c, 2, 72, 64
1, 441403, Note_off_c, 2, 76, 64
1, 441406, Note_on_c, 2, 77, 127
1, 441406, Note_on_c, 4, 48, 124
1, 441433, Note_off_c, 4, 57, 64
1, 441460, Note_on_c, 2, 76, 127
1, 441469, Note_off_c, 2, 77, 64
1, 441507, Note_on_c, 2, 74, 127
1, 441508, Note_on_c, 4, 60, 127
1, 441516, Note_off_c, 2, 76, 64
1, 441531, Note_off_c, 4, 48, 64
1, 441554, Note_on_c, 2, 72, 127
1, 441562, Note_off_c, 2, 74, 64
1, 441602, Note_on_c, 2, 71, 127
1, 441603, Note_on_c, 4, 52, 126
1, 441603, Note_on_c, 2, 68, 127
1, 441611, Note_off_c, 2, 72, 64
1, 441632, Note_off_c, 4, 60, 64
1, 441833, Note_off_c, 2, 68, 64
1, 441833, Note_off_c, 2, 71, 64
1, 441836, Note_on_c, 2, 71, 127
1, 441889, Note_on_c, 2, 69, 127
1, 441899, Note_off_c, 2, 71, 64
1, 441941, Note_on_c, 2, 68, 127
1, 441947, Note_off_c, 2, 69, 64
1, 441991, Note_on_c, 2, 69, 127
1, 441999, Note_off_c, 2, 68, 64
1, 442042, Note_off_c, 4, 52, 64
1, 442044, Note_on_c, 2, 72, 127
1, 442044, Note_on_c, 4, 57, 126
1, 442055, Note_off_c, 2, 69, 64
1, 442152, Note_on_c, 4, 64, 127
1, 442153, Note_on_c, 4, 60, 127
1, 442178, Note_off_c, 4, 57, 64
1, 442249, Note_off_c, 2, 72, 64
1, 442257, Note_off_c, 4, 60, 64
1, 442258, Note_off_c, 4, 64, 64
1, 442258, Note_on_c, 2, 74, 127
1, 442259, Note_on_c, 4, 64, 127
1, 442259, Note_on_c, 4, 60, 127
1, 442311, Note_on_c, 2, 72, 127
1, 442319, Note_off_c, 2, 74, 64
1, 442359, Note_off_c, 4, 60, 64
1, 442359, Note_off_c, 4, 64, 64
1, 442362, Note_on_c, 2, 71, 127
1, 442362, Note_on_c, 4, 64, 127
1, 442363, Note_on_c, 4, 60, 127
1, 442368, Note_off_c, 2, 72, 64
1, 442413, Note_on_c, 2, 72, 127
1, 442420, Note_off_c, 2, 71, 64
1, 442463, Note_off_c, 4, 60, 64
1, 442464, Note_off_c, 4, 64, 64
1, 442465, Note_on_c, 2, 76, 127
1, 442466, Note_on_c, 4, 57, 126
1, 442474, Note_off_c, 2, 72, 64
1, 442572, Note_on_c, 4, 64, 127
1, 442572, Note_on_c, 4, 60, 127
1, 442600, Note_off_c, 4, 57, 64
1, 442671, Note_off_c, 2, 76, 64
1, 442679, Note_off_c, 4, 60, 64
1, 442679, Note_off_c, 4, 64, 64
1, 442680, Note_on_c, 2, 77, 127
1, 442680, Note_on_c, 4, 64, 127
1, 442680, Note_on_c, 4, 60, 127
1, 442734, Note_on_c, 2, 76, 127
1, 442742, Note_off_c, 2, 77, 64
1, 442782, Note_off_c, 4, 60, 64
1, 442783, Note_off_c, 4, 64, 64
1, 442785, Note_on_c, 2, 75, 127
1, 442786, Note_on_c, 4, 64, 127
1, 442786, Note_on_c, 4, 60, 127
1, 442795, Note_off_c, 2, 76, 64
1, 442835, Note_on_c, 2, 76, 127
1, 442845, Note_off_c, 2, 75, 64
1, 442885, Note_off_c, 4, 60, 64
1, 442886, Note_off_c, 4, 64, 64
1, 442889, Note_on_c, 1, 83, 127
1, 442889, Note_on_c, 4, 57, 126
1, 442897, Note_off_c, 2, 76, 64
1, 442942, Note_on_c, 3, 81, 127
1, 442949, Note_off_c, 1, 83, 64
1, 442992, Note_on_c, 3, 80, 127
1, 442992, Note_on_c, 4, 64, 127
1, 442992, Note_on_c, 4, 60, 127
1, 443000, Note_off_c, 3, 81, 64
1, 443017, Note_off_c, 4, 57, 64
1, 443044, Note_on_c, 3, 81, 127
1, 443054, Note_off_c, 3, 80, 64
1, 443097, Note_on_c, 1, 83, 127
1, 443098, Note_on_c, 4, 57, 126
1, 443106, Note_off_c, 3, 81, 64
1, 443124, Note_off_c, 4, 60, 64
1, 443124, Note_off_c, 4, 64, 64
1, 443148, Note_on_c, 3, 81, 127
1, 443155, Note_off_c, 1, 83, 64
1, 443199, Note_on_c, 4, 64, 127
1, 443199, Note_on_c, 3, 80, 127
1, 443200, Note_on_c, 4, 60, 127
1, 443208, Note_off_c, 3, 81, 64
1, 443225, Note_off_c, 4, 57, 64
1, 443254, Note_on_c, 3, 81, 127
1, 443263, Note_off_c, 3, 80, 64
1, 443304, Note_on_c, 1, 84, 127
1, 443305, Note_on_c, 4, 53, 126
1, 443313, Note_off_c, 3, 81, 64
1, 443331, Note_off_c, 4, 64, 64
1, 443331, Note_off_c, 4, 60, 64
1, 443412, Note_on_c, 4, 63, 127
1, 443413, Note_on_c, 4, 57, 126
1, 443438, Note_off_c, 4, 53, 64
1, 443516, Note_off_c, 4, 57, 64
1, 443516, Note_off_c, 4, 63, 64
1, 443517, Note_off_c, 1, 84, 64
1, 443519, Note_on_c, 3, 81, 127
1, 443520, Note_on_c, 4, 63, 127
1, 443520, Note_on_c, 4, 57, 126
1, 443624, Note_off_c, 4, 57, 64
1, 443625, Note_off_c, 4, 63, 64
1, 443625, Note_off_c, 3, 81, 64
1, 443626, Note_on_c, 1, 83, 127
1, 443627, Note_on_c, 4, 63, 127
1, 443627, Note_on_c, 4, 57, 126
1, 443731, Note_off_c, 1, 83, 64
1, 443735, Note_on_c, 1, 84, 127
1, 443736, Note_on_c, 4, 53, 126
1, 443761, Note_off_c, 4, 57, 64
1, 443761, Note_off_c, 4, 63, 64
1, 443838, Note_off_c, 1, 84, 64
1, 443843, Note_on_c, 1, 83, 127
1, 443843, Note_on_c, 4, 64, 127
1, 443844, Note_on_c, 4, 57, 126
1, 443868, Note_off_c, 4, 53, 64
1, 443947, Note_off_c, 1, 83, 64
1, 443949, Note_on_c, 3, 81, 127
1, 443950, Note_on_c, 4, 50, 126
1, 443977, Note_off_c, 4, 57, 64
1, 443977, Note_off_c, 4, 64, 64
1, 444054, Note_off_c, 3, 81, 64
1, 444058, Note_on_c, 3, 80, 127
1, 444058, Note_on_c, 4, 59, 127
1, 444059, Note_on_c, 4, 53, 126
1, 444084, Note_off_c, 4, 50, 64
1, 444162, Note_off_c, 3, 80, 64
1, 444164, Note_on_c, 3, 81, 127
1, 444165, Note_on_c, 4, 48, 124
1, 444192, Note_off_c, 4, 53, 64
1, 444192, Note_off_c, 4, 59, 64
1, 444272, Note_on_c, 2, 76, 127
1, 444272, Note_on_c, 4, 57, 126
1, 444273, Note_on_c, 4, 52, 126
1, 444297, Note_off_c, 4, 48, 64
1, 444298, Note_off_c, 3, 81, 64
1, 444379, Note_off_c, 4, 52, 64
1, 444380, Note_off_c, 4, 57, 64
1, 444380, Note_on_c, 2, 77, 127
1, 444381, Note_on_c, 4, 50, 126
1, 444406, Note_off_c, 2, 76, 64
1, 444487, Note_off_c, 4, 50, 64
1, 444487, Note_on_c, 2, 74, 127
1, 444488, Note_on_c, 4, 59, 127
1, 444488, Note_on_c, 4, 53, 126
1, 444514, Note_off_c, 2, 77, 64
1, 444594, Note_off_c, 4, 53, 64
1, 444595, Note_off_c, 4, 59, 64
1, 444595, Note_on_c, 2, 72, 127
1, 444596, Note_on_c, 4, 57, 126
1, 444596, Note_on_c, 4, 52, 126
1, 444621, Note_off_c, 2, 74, 64
1, 444698, Note_off_c, 4, 52, 64
1, 444698, Note_off_c, 4, 57, 64
1, 444701, Note_on_c, 4, 57, 126
1, 444701, Note_on_c, 4, 52, 126
1, 444800, Note_off_c, 2, 72, 64
1, 444805, Note_off_c, 4, 52, 64
1, 444806, Note_off_c, 4, 57, 64
1, 444808, Note_on_c, 4, 56, 126
1, 444809, Note_on_c, 2, 72, 127
1, 444809, Note_on_c, 4, 52, 126
1, 444859, Note_off_c, 2, 72, 64
1, 444860, Note_on_c, 2, 71, 127
1, 444900, Note_off_c, 4, 52, 64
1, 444901, Note_off_c, 4, 56, 64
1, 444903, Note_on_c, 4, 56, 126
1, 444904, Note_off_c, 2, 71, 64
1, 444904, Note_on_c, 4, 52, 126
1, 444905, Note_on_c, 2, 69, 127
1, 444951, Note_off_c, 2, 69, 64
1, 444952, Note_on_c, 2, 71, 127
1, 445008, Note_off_c, 4, 56, 64
1, 445008, Note_off_c, 4, 52, 64
1, 445011, Note_on_c, 4, 57, 126
1, 445011, Note_on_c, 2, 69, 127
1, 445012, Note_off_c, 2, 71, 64
1, 445012, Note_on_c, 4, 45, 124
1, 445239, Note_off_c, 2, 69, 64
1, 445241, Note_on_c, 2, 76, 127
1, 445242, Note_on_c, 2, 72, 127
1, 445346, Note_off_c, 2, 72, 64
1, 445346, Note_off_c, 2, 76, 64
1, 445349, Note_on_c, 2, 77, 127
1, 445349, Note_on_c, 2, 74, 127
1, 445450, Note_off_c, 2, 74, 64
1, 445450, Note_off_c, 2, 77, 64
1, 445452, Note_off_c, 4, 45, 64
1, 445453, Note_off_c, 4, 57, 64
1, 445453, Note_on_c, 3, 79, 127
1, 445454, Note_on_c, 2, 76, 127
1, 445454, Note_on_c, 4, 48, 124
1, 445558, Note_off_c, 2, 76, 64
1, 445559, Note_off_c, 3, 79, 64
1, 445561, Note_on_c, 3, 79, 127
1, 445561, Note_on_c, 2, 76, 127
1, 445562, Note_on_c, 4, 60, 127
1, 445587, Note_off_c, 4, 48, 64
1, 445666, Note_off_c, 2, 76, 64
1, 445666, Note_off_c, 3, 79, 64
1, 445669, Note_on_c, 3, 81, 127
1, 445669, Note_on_c, 4, 52, 126
1, 445696, Note_off_c, 4, 60, 64
1, 445721, Note_off_c, 3, 81, 64
1, 445726, Note_on_c, 3, 79, 127
1, 445769, Note_off_c, 3, 79, 64
1, 445773, Note_on_c, 2, 77, 127
1, 445774, Note_on_c, 4, 64, 127
1, 445796, Note_off_c, 4, 52, 64
1, 445816, Note_off_c, 2, 77, 64
1, 445821, Note_on_c, 2, 76, 127
1, 445865, Note_off_c, 2, 76, 64
1, 445869, Note_on_c, 2, 74, 127
1, 445869, Note_on_c, 2, 71, 127
1, 445870, Note_on_c, 4, 55, 126
1, 445895, Note_off_c, 4, 64, 64
1, 445973, Note_off_c, 2, 71, 64
1, 445975, Note_on_c, 2, 67, 127
1, 446080, Note_off_c, 2, 67, 64
1, 446080, Note_off_c, 2, 74, 64
1, 446083, Note_on_c, 2, 76, 127
1, 446083, Note_on_c, 2, 72, 127
1, 446187, Note_off_c, 2, 72, 64
1, 446188, Note_off_c, 2, 76, 64
1, 446190, Note_on_c, 2, 77, 127
1, 446191, Note_on_c, 2, 74, 127
1, 446295, Note_off_c, 2, 74, 64
1, 446295, Note_off_c, 2, 77, 64
1, 446296, Note_off_c, 4, 55, 64
1, 446298, Note_on_c, 3, 79, 127
1, 446298, Note_on_c, 2, 76, 127
1, 446299, Note_on_c, 4, 48, 124
1, 446402, Note_off_c, 2, 76, 64
1, 446403, Note_off_c, 3, 79, 64
1, 446405, Note_on_c, 3, 79, 127
1, 446406, Note_on_c, 2, 76, 127
1, 446406, Note_on_c, 4, 60, 127
1, 446433, Note_off_c, 4, 48, 64
1, 446510, Note_off_c, 2, 76, 64
1, 446510, Note_off_c, 3, 79, 64
1, 446513, Note_on_c, 4, 52, 126
1, 446513, Note_on_c, 3, 81, 127
1, 446541, Note_off_c, 4, 60, 64
1, 446566, Note_off_c, 3, 81, 64
1, 446568, Note_on_c, 3, 79, 127
1, 446614, Note_off_c, 3, 79, 64
1, 446616, Note_on_c, 2, 77, 127
1, 446616, Note_on_c, 4, 64, 127
1, 446640, Note_off_c, 4, 52, 64
1, 446661, Note_off_c, 2, 77, 64
1, 446663, Note_on_c, 2, 76, 127
1, 446707, Note_off_c, 2, 76, 64
1, 446709, Note_on_c, 2, 74, 127
1, 446710, Note_on_c, 4, 55, 126
1, 446710, Note_on_c, 2, 71, 127
1, 446736, Note_off_c, 4, 64, 64
1, 446921, Note_off_c, 2, 74, 64
1, 446921, Note_off_c, 2, 71, 64
1, 446924, Note_on_c, 2, 72, 127
1, 446924, Note_on_c, 2, 69, 127
1, 447028, Note_off_c, 2, 69, 64
1, 447029, Note_off_c, 2, 72, 64
1, 447031, Note_on_c, 2, 74, 127
1, 447032, Note_on_c, 2, 71, 127
1, 447136, Note_off_c, 2, 74, 64
1, 447136, Note_off_c, 2, 71, 64
1, 447137, Note_off_c, 4, 55, 64
1, 447139, Note_on_c, 2, 76, 127
1, 447139, Note_on_c, 2, 72, 127
1, 447140, Note_on_c, 4, 45, 124
1, 447243, Note_off_c, 2, 72, 64
1, 447244, Note_off_c, 2, 76, 64
1, 447246, Note_on_c, 2, 76, 127
1, 447247, Note_on_c, 4, 57, 126
1, 447247, Note_on_c, 2, 72, 127
1, 447274, Note_off_c, 4, 45, 64
1, 447351, Note_off_c, 2, 72, 64
1, 447351, Note_off_c, 2, 76, 64
1, 447354, Note_on_c, 2, 77, 127
1, 447354, Note_on_c, 4, 48, 124
1, 447382, Note_off_c, 4, 57, 64
1, 447407, Note_off_c, 2, 77, 64
1, 447408, Note_on_c, 2, 76, 127
1, 447455, Note_off_c, 2, 76, 64
1, 447457, Note_on_c, 2, 74, 127
1, 447457, Note_on_c, 4, 60, 127
1, 447481, Note_off_c, 4, 48, 64
1, 447503, Note_off_c, 2, 74, 64
1, 447506, Note_on_c, 2, 72, 127
1, 447552, Note_off_c, 2, 72, 64
1, 447554, Note_on_c, 2, 71, 127
1, 447555, Note_on_c, 4, 52, 126
1, 447555, Note_on_c, 2, 68, 127
1, 447582, Note_off_c, 4, 60, 64
1, 447659, Note_off_c, 2, 68, 64
1, 447663, Note_on_c, 4, 64, 127
1, 447767, Note_off_c, 4, 64, 64
1, 447767, Note_off_c, 2, 71, 64
1, 447769, Note_on_c, 2, 72, 127
1, 447770, Note_on_c, 2, 69, 127
1, 447874, Note_off_c, 2, 69, 64
1, 447875, Note_off_c, 2, 72, 64
1, 447877, Note_on_c, 2, 74, 127
1, 447877, Note_on_c, 2, 71, 127
1, 447983, Note_off_c, 2, 71, 64
1, 447983, Note_off_c, 2, 74, 64
1, 447984, Note_off_c, 4, 52, 64
1, 447984, Note_on_c, 2, 76, 127
1, 447984, Note_on_c, 2, 72, 127
1, 447985, Note_on_c, 4, 45, 124
1, 448089, Note_off_c, 2, 72, 64
1, 448090, Note_off_c, 2, 76, 64
1, 448092, Note_on_c, 2, 76, 127
1, 448092, Note_on_c, 2, 72, 127
1, 448093, Note_on_c, 4, 57, 126
1, 448118, Note_off_c, 4, 45, 64
1, 448197, Note_off_c, 2, 72, 64
1, 448197, Note_off_c, 2, 76, 64
1, 448200, Note_on_c, 4, 48, 124
1, 448200, Note_on_c, 2, 77, 127
1, 448228, Note_off_c, 4, 57, 64
1, 448250, Note_off_c, 2, 77, 64
1, 448252, Note_on_c, 2, 76, 127
1, 448296, Note_off_c, 2, 76, 64
1, 448301, Note_on_c, 2, 74, 127
1, 448301, Note_on_c, 4, 60, 127
1, 448325, Note_off_c, 4, 48, 64
1, 448345, Note_off_c, 2, 74, 64
1, 448350, Note_on_c, 2, 72, 127
1, 448395, Note_off_c, 2, 72, 64
1, 448400, Note_on_c, 2, 71, 127
1, 448400, Note_on_c, 2, 68, 127
1, 448401, Note_on_c, 4, 52, 126
1, 448428, Note_off_c, 4, 60, 64
1, 448618, Note_off_c, 2, 71, 64
1, 448623, Note_off_c, 2, 68, 64
1, 448627, Note_on_c, 2, 71, 127
1, 448679, Note_on_c, 2, 69, 127
1, 448687, Note_off_c, 2, 71, 64
1, 448729, Note_on_c, 2, 68, 127
1, 448737, Note_off_c, 2, 69, 64
1, 448781, Note_on_c, 2, 69, 127
1, 448788, Note_off_c, 2, 68, 64
1, 448830, Note_off_c, 4, 52, 64
1, 448833, Note_on_c, 2, 72, 127
1, 448833, Note_on_c, 4, 57, 126
1, 448841, Note_off_c, 2, 69, 64
1, 448941, Note_on_c, 4, 64, 127
1, 448942, Note_on_c, 4, 60, 127
1, 448967, Note_off_c, 4, 57, 64
1, 449038, Note_off_c, 2, 72, 64
1, 449044, Note_off_c, 4, 64, 64
1, 449044, Note_off_c, 4, 60, 64
1, 449047, Note_on_c, 2, 74, 127
1, 449047, Note_on_c, 4, 64, 127
1, 449048, Note_on_c, 4, 60, 127
1, 449100, Note_on_c, 2, 72, 127
1, 449110, Note_off_c, 2, 74, 64
1, 449150, Note_off_c, 4, 60, 64
1, 449151, Note_off_c, 4, 64, 64
1, 449153, Note_on_c, 2, 71, 127
1, 449154, Note_on_c, 4, 64, 127
1, 449154, Note_on_c, 4, 60, 127
1, 449162, Note_off_c, 2, 72, 64
1, 449205, Note_on_c, 2, 72, 127
1, 449214, Note_off_c, 2, 71, 64
1, 449256, Note_off_c, 4, 60, 64
1, 449256, Note_off_c, 4, 64, 64
1, 449257, Note_on_c, 2, 76, 127
1, 449257, Note_on_c, 4, 57, 126
1, 449268, Note_off_c, 2, 72, 64
1, 449364, Note_on_c, 4, 64, 127
1, 449365, Note_on_c, 4, 60, 127
1, 449392, Note_off_c, 4, 57, 64
1, 449463, Note_off_c, 2, 76, 64
1, 449469, Note_off_c, 4, 60, 64
1, 449470, Note_off_c, 4, 64, 64
1, 449472, Note_on_c, 2, 77, 127
1, 449472, Note_on_c, 4, 64, 127
1, 449473, Note_on_c, 4, 60, 127
1, 449525, Note_on_c, 2, 76, 127
1, 449532, Note_off_c, 2, 77, 64
1, 449573, Note_off_c, 4, 64, 64
1, 449573, Note_off_c, 4, 60, 64
1, 449576, Note_on_c, 2, 75, 127
1, 449576, Note_on_c, 4, 64, 127
1, 449577, Note_on_c, 4, 60, 127
1, 449584, Note_off_c, 2, 76, 64
1, 449627, Note_on_c, 2, 76, 127
1, 449634, Note_off_c, 2, 75, 64
1, 449675, Note_off_c, 4, 60, 64
1, 449675, Note_off_c, 4, 64, 64
1, 449677, Note_on_c, 1, 83, 127
1, 449678, Note_on_c, 4, 57, 126
1, 449686, Note_off_c, 2, 76, 64
1, 449728, Note_on_c, 3, 81, 127
1, 449736, Note_off_c, 1, 83, 64
1, 449780, Note_on_c, 3, 80, 127
1, 449781, Note_on_c, 4, 64, 127
1, 449781, Note_on_c, 4, 60, 127
1, 449789, Note_off_c, 3, 81, 64
1, 449804, Note_off_c, 4, 57, 64
1, 449831, Note_on_c, 3, 81, 127
1, 449839, Note_off_c, 3, 80, 64
1, 449882, Note_on_c, 4, 57, 126
1, 449882, Note_on_c, 1, 83, 127
1, 449891, Note_off_c, 3, 81, 64
1, 449908, Note_off_c, 4, 60, 64
1, 449909, Note_off_c, 4, 64, 64
1, 449934, Note_on_c, 3, 81, 127
1, 449941, Note_off_c, 1, 83, 64
1, 449986, Note_on_c, 3, 80, 127
1, 449986, Note_on_c, 4, 64, 127
1, 449987, Note_on_c, 4, 60, 127
1, 449995, Note_off_c, 3, 81, 64
1, 450012, Note_off_c, 4, 57, 64
1, 450039, Note_on_c, 3, 81, 127
1, 450048, Note_off_c, 3, 80, 64
1, 450089, Note_on_c, 1, 84, 127
1, 450090, Note_on_c, 4, 53, 126
1, 450098, Note_off_c, 3, 81, 64
1, 450115, Note_off_c, 4, 60, 64
1, 450116, Note_off_c, 4, 64, 64
1, 450197, Note_on_c, 4, 63, 127
1, 450197, Note_on_c, 4, 57, 126
1, 450223, Note_off_c, 4, 53, 64
1, 450301, Note_off_c, 4, 57, 64
1, 450302, Note_off_c, 1, 84, 64
1, 450302, Note_off_c, 4, 63, 64
1, 450303, Note_on_c, 3, 81, 127
1, 450303, Note_on_c, 4, 63, 127
1, 450304, Note_on_c, 4, 57, 126
1, 450408, Note_off_c, 4, 57, 64
1, 450408, Note_off_c, 4, 63, 64
1, 450409, Note_off_c, 3, 81, 64
1, 450411, Note_on_c, 1, 83, 127
1, 450411, Note_on_c, 4, 63, 127
1, 450412, Note_on_c, 4, 57, 126
1, 450514, Note_off_c, 1, 83, 64
1, 450518, Note_on_c, 1, 84, 127
1, 450518, Note_on_c, 4, 52, 126
1, 450544, Note_off_c, 4, 63, 64
1, 450544, Note_off_c, 4, 57, 64
1, 450621, Note_off_c, 1, 84, 64
1, 450625, Note_on_c, 1, 83, 127
1, 450626, Note_on_c, 4, 64, 127
1, 450626, Note_on_c, 4, 57, 126
1, 450651, Note_off_c, 4, 52, 64
1, 450730, Note_off_c, 1, 83, 64
1, 450732, Note_on_c, 3, 81, 127
1, 450732, Note_on_c, 4, 50, 126
1, 450760, Note_off_c, 4, 57, 64
1, 450760, Note_off_c, 4, 64, 64
1, 450837, Note_off_c, 3, 81, 64
1, 450840, Note_on_c, 4, 59, 127
1, 450840, Note_on_c, 4, 53, 126
1, 450840, Note_on_c, 3, 80, 127
1, 450866, Note_off_c, 4, 50, 64
1, 450945, Note_off_c, 3, 80, 64
1, 450947, Note_on_c, 3, 81, 127
1, 450948, Note_on_c, 4, 48, 124
1, 450973, Note_off_c, 4, 53, 64
1, 450973, Note_off_c, 4, 59, 64
1, 451052, Note_off_c, 3, 81, 64
1, 451055, Note_on_c, 2, 76, 127
1, 451055, Note_on_c, 4, 57, 126
1, 451056, Note_on_c, 4, 52, 126
1, 451080, Note_off_c, 4, 48, 64
1, 451161, Note_off_c, 4, 52, 64
1, 451161, Note_off_c, 4, 57, 64
1, 451162, Note_off_c, 2, 76, 64
1, 451164, Note_on_c, 2, 77, 127
1, 451164, Note_on_c, 4, 50, 126
1, 451269, Note_off_c, 4, 50, 64
1, 451269, Note_off_c, 2, 77, 64
1, 451272, Note_on_c, 2, 74, 127
1, 451272, Note_on_c, 4, 59, 127
1, 451272, Note_on_c, 4, 53, 126
1, 451377, Note_off_c, 4, 53, 64
1, 451378, Note_off_c, 4, 59, 64
1, 451378, Note_off_c, 2, 74, 64
1, 451379, Note_on_c, 2, 72, 127
1, 451380, Note_on_c, 4, 57, 126
1, 451380, Note_on_c, 4, 52, 126
1, 451486, Note_off_c, 4, 52, 64
1, 451486, Note_off_c, 4, 57, 64
1, 451487, Note_on_c, 4, 57, 126
1, 451487, Note_on_c, 4, 52, 126
1, 451593, Note_off_c, 4, 52, 64
1, 451594, Note_off_c, 4, 57, 64
1, 451594, Note_off_c, 2, 72, 64
1, 451595, Note_on_c, 4, 56, 126
1, 451595, Note_on_c, 4, 52, 126
1, 451597, Note_on_c, 2, 72, 127
1, 451632, Note_on_c, 2, 71, 127
1, 451633, Note_off_c, 2, 72, 64
1, 451664, Note_on_c, 2, 72, 127
1, 451668, Note_off_c, 2, 71, 64
1, 451701, Note_off_c, 2, 72, 64
1, 451703, Note_off_c, 4, 52, 64
1, 451703, Note_off_c, 4, 56, 64
1, 451705, Note_on_c, 2, 71, 127
1, 451706, Note_on_c, 4, 56, 126
1, 451706, Note_on_c, 4, 52, 126
1, 451741, Note_on_c, 2, 69, 127
1, 451743, Note_off_c, 2, 71, 64
1, 451776, Note_on_c, 2, 71, 127
1, 451778, Note_off_c, 2, 69, 64
1, 451815, Note_off_c, 2, 71, 64
1, 451815, Note_off_c, 4, 52, 64
1, 451816, Note_off_c, 4, 56, 64
1, 451820, Note_on_c, 2, 69, 127
1, 451820, Note_on_c, 4, 52, 126
1, 451821, Note_on_c, 4, 45, 124
1, 452039, Note_on_c, 1, 85, 127
1, 452094, Note_on_c, 1, 86, 127
1, 452100, Note_off_c, 1, 85, 64
1, 452148, Note_on_c, 1, 85, 127
1, 452154, Note_off_c, 1, 86, 64
1, 452200, Note_on_c, 1, 83, 127
1, 452206, Note_off_c, 1, 85, 64
1, 452256, Note_off_c, 4, 52, 64
1, 452256, Note_off_c, 2, 69, 64
1, 452256, Note_off_c, 4, 45, 64
1, 452257, Note_on_c, 3, 81, 127
1, 452257, Note_on_c, 4, 54, 126
1, 452260, Note_off_c, 1, 83, 64
1, 452306, Note_on_c, 1, 83, 127
1, 452312, Note_off_c, 3, 81, 64
1, 452359, Note_on_c, 3, 81, 127
1, 452359, Note_on_c, 4, 61, 127
1, 452359, Note_on_c, 4, 57, 126
1, 452365, Note_off_c, 1, 83, 64
1, 452386, Note_off_c, 4, 54, 64
1, 452411, Note_on_c, 3, 80, 127
1, 452417, Note_off_c, 3, 81, 64
1, 452457, Note_off_c, 4, 57, 64
1, 452458, Note_off_c, 4, 61, 64
1, 452466, Note_on_c, 1, 78, 127
1, 452466, Note_on_c, 4, 61, 127
1, 452467, Note_on_c, 4, 57, 126
1, 452471, Note_off_c, 3, 80, 64
1, 452519, Note_on_c, 3, 81, 127
1, 452524, Note_off_c, 1, 78, 64
1, 452563, Note_off_c, 4, 57, 64
1, 452564, Note_off_c, 4, 61, 64
1, 452572, Note_on_c, 4, 61, 127
1, 452572, Note_on_c, 4, 57, 126
1, 452572, Note_on_c, 3, 80, 127
1, 452578, Note_off_c, 3, 81, 64
1, 452627, Note_on_c, 1, 78, 127
1, 452630, Note_off_c, 3, 80, 64
1, 452671, Note_off_c, 4, 57, 64
1, 452671, Note_off_c, 4, 61, 64
1, 452679, Note_on_c, 2, 77, 127
1, 452679, Note_on_c, 4, 56, 126
1, 452684, Note_off_c, 1, 78, 64
1, 452734, Note_on_c, 1, 78, 127
1, 452737, Note_off_c, 2, 77, 64
1, 452786, Note_on_c, 4, 61, 127
1, 452786, Note_on_c, 3, 80, 127
1, 452787, Note_on_c, 4, 59, 127
1, 452790, Note_off_c, 1, 78, 64
1, 452811, Note_off_c, 4, 56, 64
1, 452837, Note_on_c, 2, 77, 127
1, 452844, Note_off_c, 3, 80, 64
1, 452886, Note_off_c, 4, 59, 64
1, 452887, Note_off_c, 4, 61, 64
1, 452890, Note_on_c, 2, 73, 127
1, 452890, Note_on_c, 4, 61, 127
1, 452891, Note_on_c, 4, 59, 127
1, 452898, Note_off_c, 2, 77, 64
1, 452943, Note_off_c, 2, 73, 64
1, 452944, Note_on_c, 2, 75, 127
1, 452994, Note_off_c, 4, 59, 64
1, 452994, Note_off_c, 4, 61, 64
1, 452995, Note_off_c, 2, 75, 64
1, 452995, Note_on_c, 2, 77, 127
1, 452996, Note_on_c, 4, 61, 127
1, 452996, Note_on_c, 4, 59, 127
1, 453045, Note_on_c, 2, 73, 127
1, 453055, Note_off_c, 2, 77, 64
1, 453096, Note_off_c, 4, 59, 64
1, 453097, Note_off_c, 4, 61, 64
1, 453098, Note_on_c, 1, 78, 127
1, 453098, Note_on_c, 4, 54, 126
1, 453108, Note_off_c, 2, 73, 64
1, 453153, Note_on_c, 2, 77, 127
1, 453158, Note_off_c, 1, 78, 64
1, 453206, Note_on_c, 1, 78, 127
1, 453207, Note_on_c, 4, 61, 127
1, 453207, Note_on_c, 4, 57, 126
1, 453211, Note_off_c, 2, 77, 64
1, 453232, Note_off_c, 4, 54, 64
1, 453259, Note_on_c, 3, 80, 127
1, 453264, Note_off_c, 1, 78, 64
1, 453311, Note_off_c, 4, 57, 64
1, 453311, Note_off_c, 4, 61, 64
1, 453314, Note_on_c, 3, 81, 127
1, 453314, Note_on_c, 4, 61, 127
1, 453315, Note_on_c, 4, 57, 126
1, 453318, Note_off_c, 3, 80, 64
1, 453367, Note_on_c, 3, 80, 127
1, 453371, Note_off_c, 3, 81, 64
1, 453417, Note_off_c, 4, 61, 64
1, 453417, Note_off_c, 4, 57, 64
1, 453420, Note_on_c, 3, 81, 127
1, 453420, Note_on_c, 4, 61, 127
1, 453420, Note_on_c, 4, 57, 126
1, 453424, Note_off_c, 3, 80, 64
1, 453472, Note_on_c, 1, 83, 127
1, 453478, Note_off_c, 3, 81, 64
1, 453522, Note_off_c, 4, 57, 64
1, 453523, Note_off_c, 4, 61, 64
1, 453525, Note_on_c, 1, 85, 127
1, 453526, Note_on_c, 4, 53, 126
1, 453531, Note_off_c, 1, 83, 64
1, 453580, Note_on_c, 1, 84, 127
1, 453586, Note_off_c, 1, 85, 64
1, 453634, Note_on_c, 1, 85, 127
1, 453634, Note_on_c, 4, 61, 127
1, 453635, Note_on_c, 4, 56, 126
1, 453638, Note_off_c, 1, 84, 64
1, 453660, Note_off_c, 4, 53, 64
1, 453687, Note_on_c, 1, 84, 127
1, 453692, Note_off_c, 1, 85, 64
1, 453731, Note_off_c, 4, 56, 64
1, 453731, Note_off_c, 4, 61, 64
1, 453739, Note_on_c, 1, 85, 127
1, 453740, Note_on_c, 4, 61, 127
1, 453740, Note_on_c, 4, 56, 126
1, 453744, Note_off_c, 1, 84, 64
1, 453790, Note_on_c, 1, 86, 127
1, 453796, Note_off_c, 1, 85, 64
1, 453834, Note_off_c, 4, 56, 64
1, 453835, Note_off_c, 4, 61, 64
1, 453841, Note_on_c, 1, 85, 127
1, 453841, Note_on_c, 4, 61, 127
1, 453842, Note_on_c, 4, 56, 126
1, 453847, Note_off_c, 1, 86, 64
1, 453893, Note_on_c, 1, 83, 127
1, 453897, Note_off_c, 1, 85, 64
1, 453943, Note_off_c, 4, 56, 64
1, 453943, Note_off_c, 4, 61, 64
1, 453946, Note_on_c, 3, 81, 127
1, 453946, Note_on_c, 4, 54, 126
1, 453950, Note_off_c, 1, 83, 64
1, 453998, Note_on_c, 1, 83, 127
1, 454004, Note_off_c, 3, 81, 64
1, 454052, Note_on_c, 3, 81, 127
1, 454053, Note_on_c, 4, 61, 127
1, 454053, Note_on_c, 4, 57, 126
1, 454056, Note_off_c, 1, 83, 64
1, 454077, Note_off_c, 4, 54, 64
1, 454104, Note_on_c, 3, 80, 127
1, 454110, Note_off_c, 3, 81, 64
1, 454156, Note_off_c, 4, 57, 64
1, 454156, Note_off_c, 4, 61, 64
1, 454159, Note_on_c, 1, 78, 127
1, 454159, Note_on_c, 4, 61, 127
1, 454160, Note_on_c, 4, 57, 126
1, 454164, Note_off_c, 3, 80, 64
1, 454212, Note_on_c, 3, 81, 127
1, 454217, Note_off_c, 1, 78, 64
1, 454261, Note_off_c, 4, 57, 64
1, 454262, Note_off_c, 4, 61, 64
1, 454264, Note_on_c, 3, 80, 127
1, 454265, Note_on_c, 4, 61, 127
1, 454265, Note_on_c, 4, 57, 126
1, 454269, Note_off_c, 3, 81, 64
1, 454317, Note_on_c, 1, 78, 127
1, 454321, Note_off_c, 3, 80, 64
1, 454367, Note_off_c, 4, 57, 64
1, 454368, Note_off_c, 4, 61, 64
1, 454370, Note_on_c, 2, 76, 127
1, 454370, Note_on_c, 4, 56, 126
1, 454375, Note_off_c, 1, 78, 64
1, 454423, Note_on_c, 1, 78, 127
1, 454428, Note_off_c, 2, 76, 64
1, 454476, Note_on_c, 3, 80, 127
1, 454477, Note_on_c, 4, 64, 127
1, 454477, Note_on_c, 4, 61, 127
1, 454481, Note_off_c, 1, 78, 64
1, 454503, Note_off_c, 4, 56, 64
1, 454529, Note_on_c, 2, 76, 127
1, 454535, Note_off_c, 3, 80, 64
1, 454579, Note_off_c, 4, 61, 64
1, 454580, Note_off_c, 4, 64, 64
1, 454582, Note_on_c, 2, 73, 127
1, 454583, Note_on_c, 4, 64, 127
1, 454583, Note_on_c, 4, 61, 127
1, 454587, Note_off_c, 2, 76, 64
1, 454635, Note_on_c, 2, 75, 127
1, 454641, Note_off_c, 2, 73, 64
1, 454687, Note_off_c, 4, 61, 64
1, 454687, Note_off_c, 4, 64, 64
1, 454690, Note_on_c, 2, 76, 127
1, 454691, Note_on_c, 4, 64, 127
1, 454691, Note_on_c, 4, 61, 127
1, 454694, Note_off_c, 2, 75, 64
1, 454741, Note_on_c, 2, 73, 127
1, 454746, Note_off_c, 2, 76, 64
1, 454790, Note_off_c, 4, 61, 64
1, 454791, Note_off_c, 4, 64, 64
1, 454793, Note_on_c, 2, 75, 127
1, 454794, Note_on_c, 4, 56, 126
1, 454798, Note_off_c, 2, 73, 64
1, 454847, Note_on_c, 2, 76, 127
1, 454852, Note_off_c, 2, 75, 64
1, 454900, Note_on_c, 1, 78, 127
1, 454900, Note_on_c, 4, 66, 127
1, 454901, Note_on_c, 4, 63, 127
1, 454909, Note_off_c, 2, 76, 64
1, 454926, Note_off_c, 4, 56, 64
1, 454951, Note_on_c, 2, 75, 127
1, 454960, Note_off_c, 1, 78, 64
1, 455003, Note_off_c, 4, 63, 64
1, 455003, Note_off_c, 4, 66, 64
1, 455005, Note_on_c, 2, 72, 127
1, 455006, Note_on_c, 4, 66, 127
1, 455006, Note_on_c, 4, 63, 127
1, 455014, Note_off_c, 2, 75, 64
1, 455060, Note_on_c, 2, 73, 127
1, 455068, Note_off_c, 2, 72, 64
1, 455110, Note_off_c, 4, 63, 64
1, 455111, Note_off_c, 4, 66, 64
1, 455113, Note_on_c, 2, 75, 127
1, 455113, Note_on_c, 4, 66, 127
1, 455114, Note_on_c, 4, 63, 127
1, 455122, Note_off_c, 2, 73, 64
1, 455163, Note_on_c, 2, 72, 127
1, 455173, Note_off_c, 2, 75, 64
1, 455213, Note_off_c, 4, 63, 64
1, 455213, Note_off_c, 4, 66, 64
1, 455216, Note_on_c, 2, 73, 127
1, 455217, Note_on_c, 4, 64, 127
1, 455217, Note_on_c, 4, 61, 127
1, 455225, Note_off_c, 2, 72, 64
1, 455427, Note_off_c, 2, 73, 64
1, 455431, Note_on_c, 1, 85, 127
1, 455479, Note_off_c, 1, 85, 64
1, 455483, Note_on_c, 1, 86, 127
1, 455531, Note_off_c, 1, 86, 64
1, 455535, Note_on_c, 1, 85, 127
1, 455584, Note_off_c, 1, 85, 64
1, 455587, Note_on_c, 1, 83, 127
1, 455639, Note_off_c, 1, 83, 64
1, 455640, Note_off_c, 4, 61, 64
1, 455641, Note_off_c, 4, 64, 64
1, 455641, Note_on_c, 3, 81, 127
1, 455642, Note_on_c, 4, 54, 126
1, 455692, Note_off_c, 3, 81, 64
1, 455694, Note_on_c, 1, 83, 127
1, 455744, Note_off_c, 1, 83, 64
1, 455746, Note_on_c, 3, 81, 127
1, 455747, Note_on_c, 4, 61, 127
1, 455747, Note_on_c, 4, 57, 126
1, 455772, Note_off_c, 4, 54, 64
1, 455795, Note_off_c, 3, 81, 64
1, 455799, Note_on_c, 3, 80, 127
1, 455851, Note_off_c, 3, 80, 64
1, 455851, Note_off_c, 4, 57, 64
1, 455851, Note_off_c, 4, 61, 64
1, 455852, Note_on_c, 1, 78, 127
1, 455853, Note_on_c, 4, 61, 127
1, 455853, Note_on_c, 4, 57, 126
1, 455904, Note_off_c, 1, 78, 64
1, 455907, Note_on_c, 3, 81, 127
1, 455957, Note_off_c, 3, 81, 64
1, 455957, Note_off_c, 4, 57, 64
1, 455958, Note_off_c, 4, 61, 64
1, 455959, Note_on_c, 3, 80, 127
1, 455959, Note_on_c, 4, 61, 127
1, 455960, Note_on_c, 4, 57, 126
1, 456010, Note_off_c, 3, 80, 64
1, 456012, Note_on_c, 1, 78, 127
1, 456064, Note_off_c, 1, 78, 64
1, 456064, Note_off_c, 4, 57, 64
1, 456065, Note_off_c, 4, 61, 64
1, 456067, Note_on_c, 2, 77, 127
1, 456067, Note_on_c, 4, 56, 126
1, 456118, Note_off_c, 2, 77, 64
1, 456121, Note_on_c, 1, 78, 127
1, 456171, Note_off_c, 1, 78, 64
1, 456173, Note_on_c, 3, 80, 127
1, 456174, Note_on_c, 4, 61, 127
1, 456174, Note_on_c, 4, 59, 127
1, 456199, Note_off_c, 4, 56, 64
1, 456226, Note_on_c, 2, 77, 127
1, 456234, Note_off_c, 3, 80, 64
1, 456276, Note_off_c, 4, 59, 64
1, 456276, Note_off_c, 4, 61, 64
1, 456277, Note_on_c, 2, 73, 127
1, 456277, Note_on_c, 4, 61, 127
1, 456278, Note_on_c, 4, 59, 127
1, 456286, Note_off_c, 2, 77, 64
1, 456332, Note_off_c, 2, 73, 64
1, 456332, Note_on_c, 2, 75, 127
1, 456381, Note_off_c, 4, 59, 64
1, 456381, Note_off_c, 4, 61, 64
1, 456384, Note_off_c, 2, 75, 64
1, 456384, Note_on_c, 4, 61, 127
1, 456384, Note_on_c, 2, 77, 127
1, 456385, Note_on_c, 4, 59, 127
1, 456433, Note_on_c, 2, 73, 127
1, 456442, Note_off_c, 2, 77, 64
1, 456483, Note_off_c, 4, 59, 64
1, 456484, Note_off_c, 4, 61, 64
1, 456486, Note_on_c, 1, 78, 127
1, 456487, Note_on_c, 4, 54, 126
1, 456495, Note_off_c, 2, 73, 64
1, 456537, Note_off_c, 1, 78, 64
1, 456539, Note_on_c, 2, 77, 127
1, 456591, Note_off_c, 2, 77, 64
1, 456593, Note_on_c, 1, 78, 127
1, 456593, Note_on_c, 4, 61, 127
1, 456594, Note_on_c, 4, 57, 126
1, 456621, Note_off_c, 4, 54, 64
1, 456644, Note_off_c, 1, 78, 64
1, 456648, Note_on_c, 3, 80, 127
1, 456697, Note_off_c, 3, 80, 64
1, 456698, Note_off_c, 4, 57, 64
1, 456698, Note_off_c, 4, 61, 64
1, 456699, Note_on_c, 3, 81, 127
1, 456699, Note_on_c, 4, 61, 127
1, 456700, Note_on_c, 4, 57, 126
1, 456748, Note_off_c, 3, 81, 64
1, 456752, Note_on_c, 3, 80, 127
1, 456802, Note_off_c, 3, 80, 64
1, 456803, Note_off_c, 4, 61, 64
1, 456803, Note_off_c, 4, 57, 64
1, 456805, Note_on_c, 3, 81, 127
1, 456805, Note_on_c, 4, 61, 127
1, 456806, Note_on_c, 4, 57, 126
1, 456857, Note_off_c, 3, 81, 64
1, 456861, Note_on_c, 1, 83, 127
1, 456911, Note_off_c, 1, 83, 64
1, 456911, Note_off_c, 4, 57, 64
1, 456912, Note_off_c, 4, 61, 64
1, 456912, Note_on_c, 1, 85, 127
1, 456912, Note_on_c, 4, 53, 126
1, 456964, Note_off_c, 1, 85, 64
1, 456966, Note_on_c, 1, 84, 127
1, 457018, Note_off_c, 1, 84, 64
1, 457020, Note_on_c, 1, 85, 127
1, 457020, Note_on_c, 4, 61, 127
1, 457021, Note_on_c, 4, 56, 126
1, 457046, Note_off_c, 4, 53, 64
1, 457071, Note_off_c, 1, 85, 64
1, 457073, Note_on_c, 1, 84, 127
1, 457117, Note_off_c, 4, 56, 64
1, 457118, Note_off_c, 4, 61, 64
1, 457124, Note_off_c, 1, 84, 64
1, 457126, Note_on_c, 4, 61, 127
1, 457126, Note_on_c, 1, 85, 127
1, 457127, Note_on_c, 4, 56, 126
1, 457175, Note_off_c, 1, 85, 64
1, 457178, Note_on_c, 1, 86, 127
1, 457221, Note_off_c, 4, 61, 64
1, 457221, Note_off_c, 4, 56, 64
1, 457227, Note_off_c, 1, 86, 64
1, 457230, Note_on_c, 1, 85, 127
1, 457230, Note_on_c, 4, 61, 127
1, 457230, Note_on_c, 4, 56, 126
1, 457278, Note_off_c, 1, 85, 64
1, 457282, Note_on_c, 1, 83, 127
1, 457327, Note_off_c, 4, 56, 64
1, 457327, Note_off_c, 4, 61, 64
1, 457333, Note_off_c, 1, 83, 64
1, 457335, Note_on_c, 3, 81, 127
1, 457336, Note_on_c, 4, 54, 126
1, 457386, Note_off_c, 3, 81, 64
1, 457388, Note_on_c, 1, 83, 127
1, 457438, Note_off_c, 1, 83, 64
1, 457440, Note_on_c, 3, 81, 127
1, 457440, Note_on_c, 4, 61, 127
1, 457441, Note_on_c, 4, 57, 126
1, 457468, Note_off_c, 4, 54, 64
1, 457490, Note_off_c, 3, 81, 64
1, 457493, Note_on_c, 3, 80, 127
1, 457544, Note_off_c, 3, 80, 64
1, 457545, Note_off_c, 4, 57, 64
1, 457545, Note_off_c, 4, 61, 64
1, 457547, Note_on_c, 1, 78, 127
1, 457548, Note_on_c, 4, 61, 127
1, 457548, Note_on_c, 4, 57, 126
1, 457598, Note_off_c, 1, 78, 64
1, 457602, Note_on_c, 3, 81, 127
1, 457652, Note_off_c, 3, 81, 64
1, 457652, Note_off_c, 4, 57, 64
1, 457653, Note_off_c, 4, 61, 64
1, 457653, Note_on_c, 3, 80, 127
1, 457654, Note_on_c, 4, 61, 127
1, 457654, Note_on_c, 4, 57, 126
1, 457704, Note_off_c, 3, 80, 64
1, 457707, Note_on_c, 1, 78, 127
1, 457760, Note_off_c, 1, 78, 64
1, 457760, Note_off_c, 4, 57, 64
1, 457761, Note_off_c, 4, 61, 64
1, 457761, Note_on_c, 2, 76, 127
1, 457762, Note_on_c, 4, 56, 126
1, 457812, Note_off_c, 2, 76, 64
1, 457816, Note_on_c, 1, 78, 127
1, 457866, Note_off_c, 1, 78, 64
1, 457870, Note_on_c, 3, 80, 127
1, 457871, Note_on_c, 4, 64, 127
1, 457871, Note_on_c, 4, 61, 127
1, 457896, Note_off_c, 4, 56, 64
1, 457919, Note_off_c, 3, 80, 64
1, 457921, Note_on_c, 2, 76, 127
1, 457971, Note_off_c, 2, 76, 64
1, 457971, Note_off_c, 4, 61, 64
1, 457972, Note_off_c, 4, 64, 64
1, 457974, Note_on_c, 2, 73, 127
1, 457974, Note_on_c, 4, 64, 127
1, 457975, Note_on_c, 4, 61, 127
1, 458024, Note_off_c, 2, 73, 64
1, 458027, Note_on_c, 2, 75, 127
1, 458077, Note_off_c, 2, 75, 64
1, 458078, Note_off_c, 4, 61, 64
1, 458078, Note_off_c, 4, 64, 64
1, 458080, Note_on_c, 2, 76, 127
1, 458081, Note_on_c, 4, 64, 127
1, 458081, Note_on_c, 4, 61, 127
1, 458131, Note_off_c, 2, 76, 64
1, 458133, Note_on_c, 2, 73, 127
1, 458183, Note_off_c, 2, 73, 64
1, 458184, Note_off_c, 4, 61, 64
1, 458184, Note_off_c, 4, 64, 64
1, 458186, Note_on_c, 2, 75, 127
1, 458186, Note_on_c, 4, 56, 126
1, 458237, Note_off_c, 2, 75, 64
1, 458241, Note_on_c, 2, 76, 127
1, 458292, Note_on_c, 1, 78, 127
1, 458293, Note_on_c, 4, 66, 127
1, 458293, Note_on_c, 4, 63, 127
1, 458301, Note_off_c, 2, 76, 64
1, 458320, Note_off_c, 4, 56, 64
1, 458349, Note_on_c, 2, 75, 127
1, 458359, Note_off_c, 1, 78, 64
1, 458401, Note_off_c, 4, 63, 64
1, 458401, Note_off_c, 4, 66, 64
1, 458404, Note_on_c, 2, 72, 127
1, 458404, Note_on_c, 4, 66, 127
1, 458405, Note_on_c, 4, 63, 127
1, 458412, Note_off_c, 2, 75, 64
1, 458459, Note_on_c, 2, 73, 127
1, 458466, Note_off_c, 2, 72, 64
1, 458507, Note_off_c, 4, 63, 64
1, 458507, Note_off_c, 4, 66, 64
1, 458508, Note_on_c, 2, 75, 127
1, 458508, Note_on_c, 4, 66, 127
1, 458508, Note_on_c, 4, 63, 127
1, 458516, Note_off_c, 2, 73, 64
1, 458558, Note_on_c, 2, 72, 127
1, 458568, Note_off_c, 2, 75, 64
1, 458610, Note_off_c, 4, 63, 64
1, 458611, Note_off_c, 4, 66, 64
1, 458613, Note_on_c, 2, 73, 127
1, 458614, Note_on_c, 4, 64, 127
1, 458614, Note_on_c, 4, 61, 127
1, 458622, Note_off_c, 2, 72, 64
1, 458825, Note_off_c, 4, 61, 64
1, 458826, Note_off_c, 2, 73, 64
1, 458826, Note_off_c, 4, 64, 64
1, 458828, Note_on_c, 2, 76, 127
1, 458878, Note_off_c, 2, 76, 64
1, 458880, Note_on_c, 2, 74, 127
1, 458930, Note_off_c, 2, 74, 64
1, 458932, Note_on_c, 2, 71, 127
1, 458982, Note_off_c, 2, 71, 64
1, 458982, Note_on_c, 2, 68, 127
1, 459033, Note_off_c, 2, 68, 64
1, 459040, Note_on_c, 2, 69, 127
1, 459041, Note_on_c, 4, 57, 126
1, 459091, Note_off_c, 2, 69, 64
1, 459093, Note_on_c, 2, 71, 127
1, 459145, Note_off_c, 2, 71, 64
1, 459147, Note_on_c, 2, 73, 127
1, 459147, Note_on_c, 4, 64, 127
1, 459148, Note_on_c, 4, 61, 127
1, 459173, Note_off_c, 4, 57, 64
1, 459198, Note_off_c, 2, 73, 64
1, 459200, Note_on_c, 2, 74, 127
1, 459250, Note_off_c, 2, 74, 64
1, 459250, Note_off_c, 4, 61, 64
1, 459251, Note_off_c, 4, 64, 64
1, 459252, Note_on_c, 2, 76, 127
1, 459253, Note_on_c, 4, 64, 127
1, 459253, Note_on_c, 4, 61, 127
1, 459303, Note_off_c, 2, 76, 64
1, 459305, Note_on_c, 1, 78, 127
1, 459357, Note_off_c, 1, 78, 64
1, 459358, Note_off_c, 4, 61, 64
1, 459358, Note_off_c, 4, 64, 64
1, 459359, Note_on_c, 3, 80, 127
1, 459359, Note_on_c, 4, 64, 127
1, 459360, Note_on_c, 4, 61, 127
1, 459410, Note_off_c, 3, 80, 64
1, 459412, Note_on_c, 3, 81, 127
1, 459464, Note_off_c, 3, 81, 64
1, 459464, Note_off_c, 4, 61, 64
1, 459465, Note_off_c, 4, 64, 64
1, 459465, Note_on_c, 3, 81, 127
1, 459466, Note_on_c, 4, 59, 127
1, 459514, Note_off_c, 3, 81, 64
1, 459517, Note_on_c, 3, 80, 127
1, 459565, Note_off_c, 3, 80, 64
1, 459567, Note_on_c, 1, 78, 127
1, 459568, Note_on_c, 4, 64, 127
1, 459568, Note_on_c, 4, 62, 127
1, 459593, Note_off_c, 4, 59, 64
1, 459616, Note_off_c, 1, 78, 64
1, 459620, Note_on_c, 2, 76, 127
1, 459670, Note_off_c, 2, 76, 64
1, 459671, Note_off_c, 4, 62, 64
1, 459671, Note_off_c, 4, 64, 64
1, 459673, Note_on_c, 2, 76, 127
1, 459673, Note_on_c, 4, 56, 126
1, 459724, Note_off_c, 2, 76, 64
1, 459726, Note_on_c, 2, 74, 127
1, 459776, Note_off_c, 2, 74, 64
1, 459780, Note_on_c, 4, 64, 127
1, 459780, Note_on_c, 4, 62, 127
1, 459780, Note_on_c, 2, 73, 127
1, 459807, Note_off_c, 4, 56, 64
1, 459832, Note_off_c, 2, 73, 64
1, 459834, Note_on_c, 2, 71, 127
1, 459886, Note_off_c, 2, 71, 64
1, 459887, Note_off_c, 4, 62, 64
1, 459887, Note_off_c, 4, 64, 64
1, 459889, Note_on_c, 2, 69, 127
1, 459890, Note_on_c, 4, 57, 126
1, 459940, Note_off_c, 2, 69, 64
1, 459944, Note_on_c, 2, 71, 127
1, 459994, Note_off_c, 2, 71, 64
1, 459998, Note_on_c, 4, 64, 127
1, 459998, Note_on_c, 2, 73, 127
1, 459999, Note_on_c, 4, 61, 127
1, 460024, Note_off_c, 4, 57, 64
1, 460046, Note_off_c, 2, 73, 64
1, 460051, Note_on_c, 2, 74, 127
1, 460101, Note_off_c, 2, 74, 64
1, 460101, Note_off_c, 4, 61, 64
1, 460102, Note_off_c, 4, 64, 64
1, 460102, Note_on_c, 2, 76, 127
1, 460103, Note_on_c, 4, 64, 127
1, 460103, Note_on_c, 4, 61, 127
1, 460151, Note_off_c, 2, 76, 64
1, 460155, Note_on_c, 1, 78, 127
1, 460203, Note_off_c, 1, 78, 64
1, 460203, Note_off_c, 4, 61, 64
1, 460204, Note_off_c, 4, 64, 64
1, 460205, Note_on_c, 3, 80, 127
1, 460205, Note_on_c, 4, 64, 127
1, 460205, Note_on_c, 4, 61, 127
1, 460254, Note_off_c, 3, 80, 64
1, 460256, Note_on_c, 3, 81, 127
1, 460306, Note_off_c, 3, 81, 64
1, 460306, Note_off_c, 4, 61, 64
1, 460307, Note_off_c, 4, 64, 64
1, 460309, Note_on_c, 3, 82, 127
1, 460309, Note_on_c, 4, 52, 126
1, 460419, Note_off_c, 3, 82, 64
1, 460423, Note_on_c, 1, 83, 127
1, 460424, Note_on_c, 4, 62, 127
1, 460424, Note_on_c, 4, 56, 126
1, 460450, Note_off_c, 4, 52, 64
1, 460526, Note_off_c, 4, 56, 64
1, 460526, Note_off_c, 4, 62, 64
1, 460527, Note_off_c, 1, 83, 64
1, 460529, Note_on_c, 2, 76, 127
1, 460529, Note_on_c, 4, 62, 127
1, 460530, Note_on_c, 4, 56, 126
1, 460579, Note_off_c, 2, 76, 64
1, 460581, Note_on_c, 2, 74, 127
1, 460632, Note_off_c, 2, 74, 64
1, 460632, Note_off_c, 4, 56, 64
1, 460633, Note_off_c, 4, 62, 64
1, 460634, Note_on_c, 2, 73, 127
1, 460634, Note_on_c, 4, 62, 127
1, 460635, Note_on_c, 4, 56, 126
1, 460685, Note_off_c, 2, 73, 64
1, 460688, Note_on_c, 2, 71, 127
1, 460741, Note_off_c, 2, 71, 64
1, 460741, Note_off_c, 4, 56, 64
1, 460742, Note_off_c, 4, 62, 64
1, 460744, Note_on_c, 4, 57, 126
1, 460744, Note_on_c, 2, 69, 127
1, 460799, Note_off_c, 2, 69, 64
1, 460800, Note_on_c, 2, 71, 127
1, 460854, Note_off_c, 2, 71, 64
1, 460858, Note_on_c, 2, 73, 127
1, 460859, Note_on_c, 4, 64, 127
1, 460859, Note_on_c, 4, 61, 127
1, 460886, Note_off_c, 4, 57, 64
1, 460909, Note_off_c, 2, 73, 64
1, 460913, Note_on_c, 2, 74, 127
1, 460963, Note_off_c, 2, 74, 64
1, 460963, Note_off_c, 4, 61, 64
1, 460964, Note_off_c, 4, 64, 64
1, 460966, Note_on_c, 4, 64, 127
1, 460966, Note_on_c, 2, 76, 127
1, 460967, Note_on_c, 4, 61, 127
1, 461016, Note_off_c, 2, 76, 64
1, 461020, Note_on_c, 1, 78, 127
1, 461070, Note_off_c, 1, 78, 64
1, 461071, Note_off_c, 4, 64, 64
1, 461071, Note_off_c, 4, 61, 64
1, 461073, Note_on_c, 3, 80, 127
1, 461074, Note_on_c, 4, 64, 127
1, 461074, Note_on_c, 4, 61, 127
1, 461122, Note_off_c, 3, 80, 64
1, 461124, Note_on_c, 3, 81, 127
1, 461174, Note_off_c, 3, 81, 64
1, 461174, Note_off_c, 4, 61, 64
1, 461175, Note_off_c, 4, 64, 64
1, 461175, Note_on_c, 3, 81, 127
1, 461176, Note_on_c, 4, 59, 127
1, 461224, Note_off_c, 3, 81, 64
1, 461226, Note_on_c, 3, 80, 127
1, 461276, Note_off_c, 3, 80, 64
1, 461278, Note_on_c, 1, 78, 127
1, 461278, Note_on_c, 4, 64, 127
1, 461279, Note_on_c, 4, 62, 127
1, 461305, Note_off_c, 4, 59, 64
1, 461328, Note_off_c, 1, 78, 64
1, 461332, Note_on_c, 2, 76, 127
1, 461382, Note_off_c, 2, 76, 64
1, 461386, Note_on_c, 2, 76, 127
1, 461387, Note_on_c, 4, 56, 126
1, 461412, Note_off_c, 4, 64, 64
1, 461412, Note_off_c, 4, 62, 64
1, 461436, Note_off_c, 2, 76, 64
1, 461438, Note_on_c, 2, 74, 127
1, 461490, Note_off_c, 2, 74, 64
1, 461494, Note_on_c, 2, 73, 127
1, 461494, Note_on_c, 4, 64, 127
1, 461495, Note_on_c, 4, 62, 127
1, 461520, Note_off_c, 4, 56, 64
1, 461544, Note_off_c, 2, 73, 64
1, 461548, Note_on_c, 2, 71, 127
1, 461600, Note_off_c, 2, 71, 64
1, 461602, Note_on_c, 2, 73, 127
1, 461603, Note_on_c, 4, 57, 126
1, 461630, Note_off_c, 4, 64, 64
1, 461630, Note_off_c, 4, 62, 64
1, 461654, Note_off_c, 2, 73, 64
1, 461656, Note_on_c, 2, 76, 127
1, 461708, Note_on_c, 2, 69, 127
1, 461708, Note_on_c, 4, 54, 126
1, 461716, Note_off_c, 2, 76, 64
1, 461734, Note_off_c, 4, 57, 64
1, 461759, Note_on_c, 2, 73, 127
1, 461766, Note_off_c, 2, 69, 64
1, 461810, Note_on_c, 2, 71, 127
1, 461811, Note_on_c, 4, 50, 126
1, 461819, Note_off_c, 2, 73, 64
1, 461836, Note_off_c, 4, 54, 64
1, 461861, Note_on_c, 2, 74, 127
1, 461871, Note_off_c, 2, 71, 64
1, 461913, Note_on_c, 2, 68, 127
1, 461914, Note_on_c, 4, 52, 126
1, 461922, Note_off_c, 2, 74, 64
1, 461941, Note_off_c, 4, 50, 64
1, 461968, Note_on_c, 2, 71, 127
1, 461976, Note_off_c, 2, 68, 64
1, 462022, Note_on_c, 4, 45, 124
1, 462022, Note_on_c, 2, 69, 127
1, 462031, Note_off_c, 2, 71, 64
1, 462048, Note_off_c, 4, 52, 64
1, 462129, Note_on_c, 4, 57, 126
1, 462236, Note_off_c, 2, 69, 64
1, 462240, Note_off_c, 4, 45, 64
1, 462240, Note_on_c, 1, 85, 127
1, 462292, Note_off_c, 1, 85, 64
1, 462295, Note_on_c, 1, 86, 127
1, 462344, Note_off_c, 1, 86, 64
1, 462347, Note_on_c, 1, 85, 127
1, 462396, Note_off_c, 1, 85, 64
1, 462398, Note_on_c, 1, 83, 127
1, 462444, Note_off_c, 4, 57, 64
1, 462450, Note_off_c, 1, 83, 64
1, 462452, Note_on_c, 3, 81, 127
1, 462453, Note_on_c, 4, 54, 126
1, 462503, Note_off_c, 3, 81, 64
1, 462507, Note_on_c, 1, 83, 127
1, 462557, Note_off_c, 1, 83, 64
1, 462560, Note_on_c, 3, 81, 127
1, 462560, Note_on_c, 4, 61, 127
1, 462561, Note_on_c, 4, 57, 126
1, 462587, Note_off_c, 4, 54, 64
1, 462609, Note_off_c, 3, 81, 64
1, 462613, Note_on_c, 3, 80, 127
1, 462663, Note_off_c, 3, 80, 64
1, 462663, Note_off_c, 4, 57, 64
1, 462664, Note_off_c, 4, 61, 64
1, 462666, Note_on_c, 1, 78, 127
1, 462667, Note_on_c, 4, 61, 127
1, 462667, Note_on_c, 4, 57, 126
1, 462717, Note_off_c, 1, 78, 64
1, 462719, Note_on_c, 3, 81, 127
1, 462768, Note_off_c, 3, 81, 64
1, 462769, Note_off_c, 4, 57, 64
1, 462769, Note_off_c, 4, 61, 64
1, 462772, Note_on_c, 3, 80, 127
1, 462772, Note_on_c, 4, 61, 127
1, 462773, Note_on_c, 4, 57, 126
1, 462821, Note_off_c, 3, 80, 64
1, 462824, Note_on_c, 1, 78, 127
1, 462876, Note_off_c, 1, 78, 64
1, 462876, Note_off_c, 4, 57, 64
1, 462877, Note_off_c, 4, 61, 64
1, 462879, Note_on_c, 2, 77, 127
1, 462880, Note_on_c, 4, 56, 126
1, 462930, Note_off_c, 2, 77, 64
1, 462934, Note_on_c, 1, 78, 127
1, 462984, Note_off_c, 4, 56, 64
1, 462986, Note_on_c, 3, 80, 127
1, 462986, Note_on_c, 4, 61, 127
1, 462987, Note_on_c, 4, 59, 127
1, 462995, Note_off_c, 1, 78, 64
1, 463037, Note_on_c, 2, 77, 127
1, 463046, Note_off_c, 3, 80, 64
1, 463087, Note_off_c, 4, 59, 64
1, 463087, Note_off_c, 4, 61, 64
1, 463090, Note_on_c, 2, 73, 127
1, 463090, Note_on_c, 4, 61, 127
1, 463091, Note_on_c, 4, 59, 127
1, 463098, Note_off_c, 2, 77, 64
1, 463146, Note_off_c, 2, 73, 64
1, 463147, Note_on_c, 2, 75, 127
1, 463197, Note_off_c, 4, 59, 64
1, 463198, Note_off_c, 4, 61, 64
1, 463200, Note_off_c, 2, 75, 64
1, 463200, Note_on_c, 2, 77, 127
1, 463201, Note_on_c, 4, 61, 127
1, 463201, Note_on_c, 4, 59, 127
1, 463254, Note_on_c, 2, 73, 127
1, 463263, Note_off_c, 2, 77, 64
1, 463304, Note_off_c, 4, 59, 64
1, 463304, Note_off_c, 4, 61, 64
1, 463307, Note_on_c, 4, 54, 126
1, 463307, Note_on_c, 1, 78, 127
1, 463315, Note_off_c, 2, 73, 64
1, 463357, Note_off_c, 1, 78, 64
1, 463361, Note_on_c, 2, 77, 127
1, 463411, Note_off_c, 2, 77, 64
1, 463415, Note_on_c, 1, 78, 127
1, 463416, Note_on_c, 4, 61, 127
1, 463416, Note_on_c, 4, 57, 126
1, 463441, Note_off_c, 4, 54, 64
1, 463466, Note_off_c, 1, 78, 64
1, 463468, Note_on_c, 3, 80, 127
1, 463518, Note_off_c, 3, 80, 64
1, 463518, Note_off_c, 4, 57, 64
1, 463519, Note_off_c, 4, 61, 64
1, 463521, Note_on_c, 3, 81, 127
1, 463521, Note_on_c, 4, 61, 127
1, 463522, Note_on_c, 4, 57, 126
1, 463572, Note_off_c, 3, 81, 64
1, 463573, Note_on_c, 3, 80, 127
1, 463623, Note_off_c, 3, 80, 64
1, 463624, Note_off_c, 4, 57, 64
1, 463624, Note_off_c, 4, 61, 64
1, 463626, Note_on_c, 3, 81, 127
1, 463627, Note_on_c, 4, 61, 127
1, 463627, Note_on_c, 4, 57, 126
1, 463675, Note_off_c, 3, 81, 64
1, 463677, Note_on_c, 1, 83, 127
1, 463727, Note_off_c, 1, 83, 64
1, 463728, Note_off_c, 4, 57, 64
1, 463728, Note_off_c, 4, 61, 64
1, 463730, Note_on_c, 1, 85, 127
1, 463730, Note_on_c, 4, 49, 126
1, 463783, Note_off_c, 1, 85, 64
1, 463785, Note_on_c, 1, 84, 127
1, 463838, Note_off_c, 1, 84, 64
1, 463840, Note_on_c, 1, 85, 127
1, 463841, Note_on_c, 4, 61, 127
1, 463841, Note_on_c, 4, 56, 126
1, 463870, Note_off_c, 4, 49, 64
1, 463895, Note_off_c, 1, 85, 64
1, 463897, Note_on_c, 1, 84, 127
1, 463951, Note_off_c, 1, 84, 64
1, 463951, Note_off_c, 4, 56, 64
1, 463952, Note_off_c, 4, 61, 64
1, 463954, Note_on_c, 1, 85, 127
1, 463954, Note_on_c, 4, 61, 127
1, 463955, Note_on_c, 4, 56, 126
1, 464005, Note_off_c, 1, 85, 64
1, 464009, Note_on_c, 1, 84, 127
1, 464061, Note_off_c, 1, 84, 64
1, 464062, Note_off_c, 4, 56, 64
1, 464062, Note_off_c, 4, 61, 64
1, 464064, Note_on_c, 4, 61, 127
1, 464064, Note_on_c, 1, 85, 127
1, 464065, Note_on_c, 4, 56, 126
1, 464109, Note_off_c, 1, 85, 64
1, 464119, Note_on_c, 1, 84, 127
1, 464172, Note_off_c, 1, 84, 64
1, 464173, Note_off_c, 4, 61, 64
1, 464173, Note_off_c, 4, 56, 64
1, 464174, Note_on_c, 1, 86, 127
1, 464174, Note_on_c, 4, 47, 124
1, 464226, Note_off_c, 1, 86, 64
1, 464230, Note_on_c, 1, 85, 127
1, 464282, Note_off_c, 1, 85, 64
1, 464286, Note_on_c, 1, 86, 127
1, 464286, Note_on_c, 4, 59, 127
1, 464287, Note_on_c, 4, 54, 126
1, 464312, Note_off_c, 4, 47, 64
1, 464337, Note_off_c, 1, 86, 64
1, 464339, Note_on_c, 1, 85, 127
1, 464390, Note_off_c, 1, 85, 64
1, 464391, Note_off_c, 4, 54, 64
1, 464391, Note_off_c, 4, 59, 64
1, 464393, Note_on_c, 1, 86, 127
1, 464394, Note_on_c, 4, 59, 127
1, 464394, Note_on_c, 4, 54, 126
1, 464446, Note_off_c, 1, 86, 64
1, 464448, Note_on_c, 1, 85, 127
1, 464498, Note_off_c, 1, 85, 64
1, 464498, Note_off_c, 4, 54, 64
1, 464499, Note_off_c, 4, 59, 64
1, 464501, Note_on_c, 1, 86, 127
1, 464501, Note_on_c, 4, 59, 127
1, 464502, Note_on_c, 4, 54, 126
1, 464553, Note_off_c, 1, 86, 64
1, 464555, Note_on_c, 1, 85, 127
1, 464606, Note_off_c, 1, 85, 64
1, 464607, Note_off_c, 4, 54, 64
1, 464607, Note_off_c, 4, 59, 64
1, 464609, Note_on_c, 1, 86, 127
1, 464610, Note_on_c, 4, 47, 124
1, 464658, Note_off_c, 1, 86, 64
1, 464663, Note_on_c, 1, 85, 127
1, 464712, Note_off_c, 1, 85, 64
1, 464714, Note_on_c, 1, 83, 127
1, 464715, Note_on_c, 4, 59, 127
1, 464715, Note_on_c, 4, 56, 126
1, 464742, Note_off_c, 4, 47, 64
1, 464767, Note_off_c, 1, 83, 64
1, 464769, Note_on_c, 3, 81, 127
1, 464820, Note_off_c, 3, 81, 64
1, 464821, Note_off_c, 4, 56, 64
1, 464821, Note_off_c, 4, 59, 64
1, 464824, Note_on_c, 4, 59, 127
1, 464824, Note_on_c, 3, 80, 127
1, 464825, Note_on_c, 4, 56, 126
1, 464876, Note_off_c, 3, 80, 64
1, 464879, Note_on_c, 3, 81, 127
1, 464930, Note_off_c, 3, 81, 64
1, 464930, Note_off_c, 4, 56, 64
1, 464931, Note_off_c, 4, 59, 64
1, 464933, Note_on_c, 1, 83, 127
1, 464934, Note_on_c, 4, 59, 127
1, 464934, Note_on_c, 4, 56, 126
1, 464983, Note_off_c, 1, 83, 64
1, 464985, Note_on_c, 3, 80, 127
1, 465035, Note_off_c, 3, 80, 64
1, 465035, Note_off_c, 4, 56, 64
1, 465036, Note_off_c, 4, 59, 64
1, 465036, Note_on_c, 3, 81, 127
1, 465037, Note_on_c, 4, 49, 126
1, 465089, Note_off_c, 3, 81, 64
1, 465091, Note_on_c, 1, 83, 127
1, 465140, Note_off_c, 1, 83, 64
1, 465144, Note_on_c, 1, 85, 127
1, 465145, Note_on_c, 4, 57, 126
1, 465145, Note_on_c, 4, 54, 126
1, 465171, Note_off_c, 4, 49, 64
1, 465192, Note_off_c, 1, 85, 64
1, 465194, Note_on_c, 3, 81, 127
1, 465244, Note_off_c, 3, 81, 64
1, 465246, Note_off_c, 4, 54, 64
1, 465246, Note_off_c, 4, 57, 64
1, 465247, Note_on_c, 1, 78, 127
1, 465249, Note_on_c, 4, 57, 126
1, 465250, Note_on_c, 4, 54, 126
1, 465298, Note_off_c, 1, 78, 64
1, 465300, Note_on_c, 2, 76, 127
1, 465348, Note_off_c, 2, 76, 64
1, 465350, Note_off_c, 4, 54, 64
1, 465350, Note_off_c, 4, 57, 64
1, 465351, Note_on_c, 3, 80, 127
1, 465351, Note_on_c, 4, 57, 126
1, 465352, Note_on_c, 4, 54, 126
1, 465399, Note_off_c, 3, 80, 64
1, 465403, Note_on_c, 2, 77, 127
1, 465449, Note_off_c, 2, 77, 64
1, 465451, Note_off_c, 4, 57, 64
1, 465451, Note_off_c, 4, 54, 64
1, 465452, Note_on_c, 1, 78, 127
1, 465452, Note_on_c, 4, 57, 126
1, 465453, Note_on_c, 4, 54, 126
1, 465662, Note_off_c, 4, 57, 64
1, 465662, Note_off_c, 4, 54, 64
1, 465663, Note_off_c, 1, 78, 64
1, 465665, Note_on_c, 2, 76, 127
1, 465713, Note_off_c, 2, 76, 64
1, 465715, Note_on_c, 2, 74, 127
1, 465765, Note_off_c, 2, 74, 64
1, 465767, Note_on_c, 2, 73, 127
1, 465818, Note_off_c, 2, 73, 64
1, 465820, Note_on_c, 2, 71, 127
1, 465872, Note_off_c, 2, 71, 64
1, 465876, Note_on_c, 2, 69, 127
1, 465876, Note_on_c, 4, 57, 126
1, 465929, Note_off_c, 2, 69, 64
1, 465931, Note_on_c, 2, 71, 127
1, 465983, Note_off_c, 2, 71, 64
1, 465986, Note_on_c, 2, 73, 127
1, 465987, Note_on_c, 4, 64, 127
1, 465987, Note_on_c, 4, 61, 127
1, 466012, Note_off_c, 4, 57, 64
1, 466037, Note_off_c, 2, 73, 64
1, 466039, Note_on_c, 2, 74, 127
1, 466091, Note_off_c, 2, 74, 64
1, 466092, Note_off_c, 4, 61, 64
1, 466092, Note_off_c, 4, 64, 64
1, 466094, Note_on_c, 2, 76, 127
1, 466094, Note_on_c, 4, 64, 127
1, 466095, Note_on_c, 4, 61, 127
1, 466144, Note_off_c, 2, 76, 64
1, 466146, Note_on_c, 1, 78, 127
1, 466198, Note_off_c, 1, 78, 64
1, 466198, Note_off_c, 4, 61, 64
1, 466199, Note_off_c, 4, 64, 64
1, 466200, Note_on_c, 3, 80, 127
1, 466201, Note_on_c, 4, 64, 127
1, 466201, Note_on_c, 4, 61, 127
1, 466249, Note_off_c, 3, 80, 64
1, 466253, Note_on_c, 3, 81, 127
1, 466305, Note_off_c, 3, 81, 64
1, 466306, Note_off_c, 4, 61, 64
1, 466306, Note_off_c, 4, 64, 64
1, 466307, Note_on_c, 3, 81, 127
1, 466307, Note_on_c, 4, 59, 127
1, 466355, Note_off_c, 3, 81, 64
1, 466357, Note_on_c, 3, 80, 127
1, 466407, Note_off_c, 3, 80, 64
1, 466411, Note_on_c, 1, 78, 127
1, 466411, Note_on_c, 4, 64, 127
1, 466412, Note_on_c, 4, 62, 127
1, 466437, Note_off_c, 4, 59, 64
1, 466460, Note_off_c, 1, 78, 64
1, 466462, Note_on_c, 2, 76, 127
1, 466512, Note_off_c, 2, 76, 64
1, 466512, Note_off_c, 4, 62, 64
1, 466512, Note_off_c, 4, 64, 64
1, 466514, Note_on_c, 2, 76, 127
1, 466515, Note_on_c, 4, 56, 126
1, 466565, Note_off_c, 2, 76, 64
1, 466567, Note_on_c, 2, 74, 127
1, 466617, Note_off_c, 2, 74, 64
1, 466620, Note_on_c, 2, 73, 127
1, 466620, Note_on_c, 4, 64, 127
1, 466620, Note_on_c, 4, 62, 127
1, 466645, Note_off_c, 4, 56, 64
1, 466670, Note_off_c, 2, 73, 64
1, 466672, Note_on_c, 2, 71, 127
1, 466724, Note_off_c, 2, 71, 64
1, 466724, Note_off_c, 4, 62, 64
1, 466725, Note_off_c, 4, 64, 64
1, 466725, Note_on_c, 2, 69, 127
1, 466726, Note_on_c, 4, 57, 126
1, 466780, Note_off_c, 2, 69, 64
1, 466782, Note_on_c, 2, 71, 127
1, 466833, Note_off_c, 2, 71, 64
1, 466837, Note_on_c, 2, 73, 127
1, 466837, Note_on_c, 4, 64, 127
1, 466838, Note_on_c, 4, 61, 127
1, 466863, Note_off_c, 4, 57, 64
1, 466886, Note_off_c, 2, 73, 64
1, 466890, Note_on_c, 2, 74, 127
1, 466942, Note_off_c, 2, 74, 64
1, 466942, Note_off_c, 4, 61, 64
1, 466943, Note_off_c, 4, 64, 64
1, 466944, Note_on_c, 4, 64, 127
1, 466944, Note_on_c, 4, 61, 127
1, 466944, Note_on_c, 2, 76, 127
1, 466994, Note_off_c, 2, 76, 64
1, 466999, Note_on_c, 1, 78, 127
1, 467046, Note_off_c, 1, 78, 64
1, 467047, Note_off_c, 4, 61, 64
1, 467047, Note_off_c, 4, 64, 64
1, 467050, Note_on_c, 3, 80, 127
1, 467050, Note_on_c, 4, 64, 127
1, 467051, Note_on_c, 4, 61, 127
1, 467099, Note_off_c, 3, 80, 64
1, 467102, Note_on_c, 3, 81, 127
1, 467150, Note_off_c, 3, 81, 64
1, 467150, Note_off_c, 4, 61, 64
1, 467151, Note_off_c, 4, 64, 64
1, 467153, Note_on_c, 3, 82, 127
1, 467154, Note_on_c, 4, 52, 126
1, 467279, Note_off_c, 3, 82, 64
1, 467281, Note_on_c, 1, 83, 127
1, 467281, Note_on_c, 4, 62, 127
1, 467282, Note_on_c, 4, 56, 126
1, 467310, Note_off_c, 4, 52, 64
1, 467386, Note_off_c, 4, 56, 64
1, 467387, Note_off_c, 4, 62, 64
1, 467387, Note_off_c, 1, 83, 64
1, 467389, Note_on_c, 2, 76, 127
1, 467390, Note_on_c, 4, 62, 127
1, 467390, Note_on_c, 4, 56, 126
1, 467440, Note_off_c, 2, 76, 64
1, 467444, Note_on_c, 2, 74, 127
1, 467494, Note_off_c, 2, 74, 64
1, 467495, Note_off_c, 4, 56, 64
1, 467495, Note_off_c, 4, 62, 64
1, 467497, Note_on_c, 2, 73, 127
1, 467497, Note_on_c, 4, 62, 127
1, 467498, Note_on_c, 4, 56, 126
1, 467548, Note_off_c, 2, 73, 64
1, 467551, Note_on_c, 2, 71, 127
1, 467604, Note_off_c, 2, 71, 64
1, 467604, Note_off_c, 4, 56, 64
1, 467605, Note_off_c, 4, 62, 64
1, 467606, Note_on_c, 2, 69, 127
1, 467606, Note_on_c, 4, 57, 126
1, 467662, Note_off_c, 2, 69, 64
1, 467664, Note_on_c, 2, 71, 127
1, 467717, Note_off_c, 2, 71, 64
1, 467721, Note_on_c, 2, 73, 127
1, 467721, Note_on_c, 4, 64, 127
1, 467722, Note_on_c, 4, 61, 127
1, 467748, Note_off_c, 4, 57, 64
1, 467773, Note_off_c, 2, 73, 64
1, 467775, Note_on_c, 2, 74, 127
1, 467827, Note_off_c, 2, 74, 64
1, 467828, Note_off_c, 4, 64, 64
1, 467828, Note_off_c, 4, 61, 64
1, 467829, Note_on_c, 2, 76, 127
1, 467829, Note_on_c, 4, 64, 127
1, 467830, Note_on_c, 4, 61, 127
1, 467880, Note_off_c, 2, 76, 64
1, 467882, Note_on_c, 1, 78, 127
1, 467932, Note_off_c, 1, 78, 64
1, 467932, Note_off_c, 4, 61, 64
1, 467933, Note_off_c, 4, 64, 64
1, 467933, Note_on_c, 3, 80, 127
1, 467934, Note_on_c, 4, 64, 127
1, 467934, Note_on_c, 4, 61, 127
1, 467983, Note_off_c, 3, 80, 64
1, 467985, Note_on_c, 3, 81, 127
1, 468033, Note_off_c, 3, 81, 64
1, 468035, Note_on_c, 3, 81, 127
1, 468035, Note_on_c, 4, 59, 127
1, 468060, Note_off_c, 4, 61, 64
1, 468061, Note_off_c, 4, 64, 64
1, 468084, Note_off_c, 3, 81, 64
1, 468086, Note_on_c, 3, 80, 127
1, 468136, Note_off_c, 3, 80, 64
1, 468138, Note_on_c, 1, 78, 127
1, 468139, Note_on_c, 4, 64, 127
1, 468139, Note_on_c, 4, 62, 127
1, 468166, Note_off_c, 4, 59, 64
1, 468191, Note_off_c, 1, 78, 64
1, 468193, Note_on_c, 2, 76, 127
1, 468245, Note_off_c, 2, 76, 64
1, 468247, Note_on_c, 2, 76, 127
1, 468247, Note_on_c, 4, 56, 126
1, 468275, Note_off_c, 4, 62, 64
1, 468275, Note_off_c, 4, 64, 64
1, 468299, Note_off_c, 2, 76, 64
1, 468300, Note_on_c, 2, 74, 127
1, 468350, Note_off_c, 2, 74, 64
1, 468354, Note_on_c, 2, 73, 127
1, 468355, Note_on_c, 4, 64, 127
1, 468355, Note_on_c, 4, 62, 127
1, 468382, Note_off_c, 4, 56, 64
1, 468407, Note_off_c, 2, 73, 64
1, 468409, Note_on_c, 2, 71, 127
1, 468461, Note_off_c, 2, 71, 64
1, 468465, Note_on_c, 2, 73, 127
1, 468465, Note_on_c, 4, 57, 126
1, 468491, Note_off_c, 4, 62, 64
1, 468491, Note_off_c, 4, 64, 64
1, 468516, Note_on_c, 2, 76, 127
1, 468534, Note_off_c, 2, 73, 64
1, 468568, Note_on_c, 2, 69, 127
1, 468569, Note_on_c, 4, 54, 126
1, 468585, Note_off_c, 2, 76, 64
1, 468594, Note_off_c, 4, 57, 64
1, 468621, Note_on_c, 2, 73, 127
1, 468638, Note_off_c, 2, 69, 64
1, 468675, Note_on_c, 2, 71, 127
1, 468675, Note_on_c, 4, 50, 126
1, 468691, Note_off_c, 2, 73, 64
1, 468701, Note_off_c, 4, 54, 64
1, 468726, Note_on_c, 2, 74, 127
1, 468743, Note_off_c, 2, 71, 64
1, 468774, Note_off_c, 4, 50, 64
1, 468776, Note_on_c, 2, 68, 127
1, 468776, Note_on_c, 4, 52, 126
1, 468794, Note_off_c, 2, 74, 64
1, 468828, Note_on_c, 2, 71, 127
1, 468846, Note_off_c, 2, 68, 64
1, 468876, Note_off_c, 4, 52, 64
1, 468880, Note_on_c, 2, 69, 127
1, 468881, Note_on_c, 4, 45, 124
1, 468899, Note_off_c, 2, 71, 64
1, 468987, Note_on_c, 4, 57, 126
1, 469014, Note_off_c, 4, 45, 64
1, 469094, Note_off_c, 2, 69, 64
1, 469097, Note_on_c, 1, 85, 127
1, 469150, Note_off_c, 1, 85, 64
1, 469152, Note_on_c, 1, 86, 127
1, 469202, Note_off_c, 1, 86, 64
1, 469204, Note_on_c, 1, 85, 127
1, 469254, Note_off_c, 1, 85, 64
1, 469258, Note_on_c, 1, 83, 127
1, 469308, Note_off_c, 4, 57, 64
1, 469311, Note_off_c, 1, 83, 64
1, 469313, Note_on_c, 4, 54, 126
1, 469313, Note_on_c, 3, 81, 127
1, 469364, Note_off_c, 3, 81, 64
1, 469367, Note_on_c, 1, 83, 127
1, 469416, Note_off_c, 1, 83, 64
1, 469420, Note_on_c, 3, 81, 127
1, 469421, Note_on_c, 4, 61, 127
1, 469421, Note_on_c, 4, 57, 126
1, 469445, Note_off_c, 4, 54, 64
1, 469470, Note_off_c, 3, 81, 64
1, 469472, Note_on_c, 3, 80, 127
1, 469525, Note_off_c, 3, 80, 64
1, 469526, Note_off_c, 4, 57, 64
1, 469526, Note_off_c, 4, 61, 64
1, 469529, Note_on_c, 1, 78, 127
1, 469529, Note_on_c, 4, 61, 127
1, 469530, Note_on_c, 4, 57, 126
1, 469581, Note_off_c, 1, 78, 64
1, 469585, Note_on_c, 3, 81, 127
1, 469635, Note_off_c, 3, 81, 64
1, 469635, Note_off_c, 4, 57, 64
1, 469636, Note_off_c, 4, 61, 64
1, 469638, Note_on_c, 3, 80, 127
1, 469639, Note_on_c, 4, 61, 127
1, 469639, Note_on_c, 4, 57, 126
1, 469689, Note_off_c, 3, 80, 64
1, 469691, Note_on_c, 1, 78, 127
1, 469742, Note_off_c, 1, 78, 64
1, 469743, Note_off_c, 4, 57, 64
1, 469743, Note_off_c, 4, 61, 64
1, 469746, Note_on_c, 2, 77, 127
1, 469746, Note_on_c, 4, 56, 126
1, 469797, Note_off_c, 2, 77, 64
1, 469800, Note_on_c, 1, 78, 127
1, 469850, Note_off_c, 1, 78, 64
1, 469854, Note_on_c, 3, 80, 127
1, 469855, Note_on_c, 4, 61, 127
1, 469855, Note_on_c, 4, 59, 127
1, 469878, Note_off_c, 4, 56, 64
1, 469901, Note_off_c, 3, 80, 64
1, 469905, Note_on_c, 2, 77, 127
1, 469953, Note_off_c, 2, 77, 64
1, 469953, Note_off_c, 4, 59, 64
1, 469954, Note_off_c, 4, 61, 64
1, 469956, Note_on_c, 2, 73, 127
1, 469956, Note_on_c, 4, 61, 127
1, 469957, Note_on_c, 4, 59, 127
1, 470009, Note_off_c, 2, 73, 64
1, 470011, Note_on_c, 2, 75, 127
1, 470061, Note_off_c, 2, 75, 64
1, 470061, Note_off_c, 4, 59, 64
1, 470061, Note_off_c, 4, 61, 64
1, 470062, Note_on_c, 2, 77, 127
1, 470063, Note_on_c, 4, 61, 127
1, 470063, Note_on_c, 4, 59, 127
1, 470112, Note_off_c, 2, 77, 64
1, 470115, Note_on_c, 2, 73, 127
1, 470165, Note_off_c, 2, 73, 64
1, 470166, Note_off_c, 4, 59, 64
1, 470166, Note_off_c, 4, 61, 64
1, 470168, Note_on_c, 1, 78, 127
1, 470169, Note_on_c, 4, 54, 126
1, 470219, Note_off_c, 1, 78, 64
1, 470221, Note_on_c, 2, 77, 127
1, 470271, Note_off_c, 2, 77, 64
1, 470275, Note_on_c, 1, 78, 127
1, 470275, Note_on_c, 4, 61, 127
1, 470276, Note_on_c, 4, 57, 126
1, 470301, Note_off_c, 4, 54, 64
1, 470326, Note_off_c, 1, 78, 64
1, 470329, Note_on_c, 3, 80, 127
1, 470377, Note_off_c, 3, 80, 64
1, 470378, Note_off_c, 4, 57, 64
1, 470378, Note_off_c, 4, 61, 64
1, 470380, Note_on_c, 3, 81, 127
1, 470381, Note_on_c, 4, 61, 127
1, 470381, Note_on_c, 4, 57, 126
1, 470431, Note_off_c, 3, 81, 64
1, 470433, Note_on_c, 3, 80, 127
1, 470483, Note_off_c, 3, 80, 64
1, 470484, Note_off_c, 4, 57, 64
1, 470484, Note_off_c, 4, 61, 64
1, 470486, Note_on_c, 3, 81, 127
1, 470486, Note_on_c, 4, 61, 127
1, 470487, Note_on_c, 4, 57, 126
1, 470536, Note_off_c, 3, 81, 64
1, 470540, Note_on_c, 1, 83, 127
1, 470592, Note_off_c, 1, 83, 64
1, 470592, Note_off_c, 4, 57, 64
1, 470592, Note_off_c, 4, 61, 64
1, 470593, Note_on_c, 1, 85, 127
1, 470593, Note_on_c, 4, 49, 126
1, 470647, Note_off_c, 1, 85, 64
1, 470649, Note_on_c, 1, 84, 127
1, 470703, Note_off_c, 1, 84, 64
1, 470705, Note_on_c, 1, 85, 127
1, 470705, Note_on_c, 4, 61, 127
1, 470706, Note_on_c, 4, 56, 126
1, 470733, Note_off_c, 4, 49, 64
1, 470760, Note_off_c, 1, 85, 64
1, 470762, Note_on_c, 1, 84, 127
1, 470814, Note_off_c, 1, 84, 64
1, 470815, Note_off_c, 4, 56, 64
1, 470815, Note_off_c, 4, 61, 64
1, 470816, Note_on_c, 1, 85, 127
1, 470817, Note_on_c, 4, 61, 127
1, 470817, Note_on_c, 4, 56, 126
1, 470871, Note_off_c, 1, 85, 64
1, 470873, Note_on_c, 1, 84, 127
1, 470927, Note_off_c, 1, 84, 64
1, 470927, Note_off_c, 4, 56, 64
1, 470928, Note_off_c, 4, 61, 64
1, 470929, Note_on_c, 1, 85, 127
1, 470930, Note_on_c, 4, 61, 127
1, 470930, Note_on_c, 4, 56, 126
1, 470984, Note_off_c, 1, 85, 64
1, 470986, Note_on_c, 1, 84, 127
1, 471040, Note_off_c, 1, 84, 64
1, 471040, Note_off_c, 4, 56, 64
1, 471041, Note_off_c, 4, 61, 64
1, 471041, Note_on_c, 1, 86, 127
1, 471042, Note_on_c, 4, 47, 124
1, 471096, Note_off_c, 1, 86, 64
1, 471097, Note_on_c, 1, 85, 127
1, 471149, Note_off_c, 1, 85, 64
1, 471153, Note_on_c, 1, 86, 127
1, 471154, Note_on_c, 4, 59, 127
1, 471154, Note_on_c, 4, 54, 126
1, 471181, Note_off_c, 4, 47, 64
1, 471204, Note_off_c, 1, 86, 64
1, 471208, Note_on_c, 1, 85, 127
1, 471260, Note_off_c, 1, 85, 64
1, 471260, Note_off_c, 4, 54, 64
1, 471261, Note_off_c, 4, 59, 64
1, 471263, Note_on_c, 1, 86, 127
1, 471264, Note_on_c, 4, 59, 127
1, 471264, Note_on_c, 4, 54, 126
1, 471316, Note_off_c, 1, 86, 64
1, 471320, Note_on_c, 1, 85, 127
1, 471372, Note_off_c, 1, 85, 64
1, 471372, Note_off_c, 4, 54, 64
1, 471373, Note_off_c, 4, 59, 64
1, 471375, Note_on_c, 1, 86, 127
1, 471375, Note_on_c, 4, 59, 127
1, 471376, Note_on_c, 4, 54, 126
1, 471428, Note_off_c, 1, 86, 64
1, 471430, Note_on_c, 1, 85, 127
1, 471483, Note_off_c, 1, 85, 64
1, 471484, Note_off_c, 4, 54, 64
1, 471484, Note_off_c, 4, 59, 64
1, 471485, Note_on_c, 4, 47, 124
1, 471485, Note_on_c, 1, 86, 127
1, 471533, Note_off_c, 1, 86, 64
1, 471538, Note_on_c, 1, 85, 127
1, 471588, Note_off_c, 1, 85, 64
1, 471590, Note_on_c, 1, 83, 127
1, 471591, Note_on_c, 4, 59, 127
1, 471591, Note_on_c, 4, 56, 126
1, 471618, Note_off_c, 4, 47, 64
1, 471643, Note_off_c, 1, 83, 64
1, 471645, Note_on_c, 3, 81, 127
1, 471696, Note_off_c, 3, 81, 64
1, 471697, Note_off_c, 4, 56, 64
1, 471697, Note_off_c, 4, 59, 64
1, 471700, Note_on_c, 3, 80, 127
1, 471700, Note_on_c, 4, 59, 127
1, 471700, Note_on_c, 4, 56, 126
1, 471748, Note_off_c, 3, 80, 64
1, 471753, Note_on_c, 3, 81, 127
1, 471800, Note_off_c, 3, 81, 64
1, 471801, Note_off_c, 4, 56, 64
1, 471801, Note_off_c, 4, 59, 64
1, 471804, Note_on_c, 1, 83, 127
1, 471804, Note_on_c, 4, 59, 127
1, 471804, Note_on_c, 4, 56, 126
1, 471851, Note_off_c, 1, 83, 64
1, 471853, Note_on_c, 3, 80, 127
1, 471907, Note_off_c, 3, 80, 64
1, 471907, Note_off_c, 4, 56, 64
1, 471908, Note_off_c, 4, 59, 64
1, 471908, Note_on_c, 3, 81, 127
1, 471911, Note_on_c, 4, 49, 126
1, 471960, Note_off_c, 3, 81, 64
1, 471963, Note_on_c, 1, 83, 127
1, 472014, Note_off_c, 1, 83, 64
1, 472017, Note_on_c, 4, 57, 126
1, 472017, Note_on_c, 1, 85, 127
1, 472018, Note_on_c, 4, 54, 126
1, 472043, Note_off_c, 4, 49, 64
1, 472065, Note_off_c, 1, 85, 64
1, 472068, Note_on_c, 3, 81, 127
1, 472117, Note_off_c, 3, 81, 64
1, 472117, Note_off_c, 4, 54, 64
1, 472118, Note_off_c, 4, 57, 64
1, 472119, Note_on_c, 1, 78, 127
1, 472121, Note_on_c, 4, 57, 126
1, 472121, Note_on_c, 4, 54, 126
1, 472168, Note_off_c, 1, 78, 64
1, 472172, Note_on_c, 2, 76, 127
1, 472220, Note_off_c, 2, 76, 64
1, 472222, Note_off_c, 4, 54, 64
1, 472222, Note_off_c, 4, 57, 64
1, 472223, Note_on_c, 3, 80, 127
1, 472224, Note_on_c, 4, 57, 126
1, 472224, Note_on_c, 4, 54, 126
1, 472271, Note_off_c, 3, 80, 64
1, 472275, Note_on_c, 2, 77, 127
1, 472321, Note_off_c, 2, 77, 64
1, 472323, Note_off_c, 4, 54, 64
1, 472323, Note_off_c, 4, 57, 64
1, 472324, Note_on_c, 4, 57, 126
1, 472324, Note_on_c, 1, 78, 127
1, 472325, Note_on_c, 4, 54, 126
1, 472553, Note_off_c, 1, 78, 64
1, 472555, Note_on_c, 3, 81, 127
1, 472556, Note_on_c, 2, 69, 127
1, 472666, Note_off_c, 3, 81, 64
1, 472666, Note_off_c, 2, 69, 64
1, 472667, Note_on_c, 1, 83, 127
1, 472667, Note_on_c, 2, 71, 127
1, 472760, Note_off_c, 4, 57, 64
1, 472760, Note_off_c, 4, 54, 64
1, 472770, Note_off_c, 2, 71, 64
1, 472771, Note_off_c, 1, 83, 64
1, 472771, Note_on_c, 4, 45, 124
1, 472772, Note_on_c, 2, 73, 127
1, 472784, Note_on_c, 4, 49, 126
1, 472788, Note_on_c, 1, 85, 127
1, 472797, Note_on_c, 4, 52, 126
1, 472822, Note_on_c, 4, 57, 126
1, 472830, Note_off_c, 4, 45, 64
1, 472862, Note_off_c, 4, 49, 64
1, 472872, Note_off_c, 4, 57, 64
1, 472876, Note_on_c, 4, 57, 126
1, 472958, Note_off_c, 4, 52, 64
1, 472976, Note_off_c, 4, 57, 64
1, 472983, Note_off_c, 2, 73, 64
1, 472984, Note_on_c, 3, 81, 127
1, 472984, Note_on_c, 2, 69, 127
1, 472984, Note_on_c, 4, 57, 126
1, 473003, Note_off_c, 1, 85, 64
1, 473079, Note_off_c, 4, 57, 64
1, 473089, Note_off_c, 2, 69, 64
1, 473089, Note_off_c, 3, 81, 64
1, 473090, Note_on_c, 1, 83, 127
1, 473090, Note_on_c, 2, 71, 127
1, 473091, Note_on_c, 4, 57, 126
1, 473191, Note_off_c, 2, 71, 64
1, 473191, Note_on_c, 4, 45, 124
1, 473192, Note_off_c, 1, 83, 64
1, 473192, Note_on_c, 2, 73, 127
1, 473205, Note_on_c, 4, 49, 126
1, 473209, Note_on_c, 1, 85, 127
1, 473220, Note_on_c, 4, 52, 126
1, 473227, Note_off_c, 4, 57, 64
1, 473243, Note_on_c, 4, 57, 126
1, 473252, Note_off_c, 4, 45, 64
1, 473283, Note_off_c, 4, 49, 64
1, 473294, Note_off_c, 4, 57, 64
1, 473296, Note_off_c, 2, 73, 64
1, 473297, Note_on_c, 1, 83, 127
1, 473297, Note_on_c, 2, 71, 127
1, 473298, Note_on_c, 4, 57, 126
1, 473316, Note_off_c, 1, 85, 64
1, 473379, Note_off_c, 4, 52, 64
1, 473394, Note_off_c, 4, 57, 64
1, 473404, Note_off_c, 2, 71, 64
1, 473404, Note_off_c, 1, 83, 64
1, 473405, Note_on_c, 3, 81, 127
1, 473405, Note_on_c, 2, 69, 127
1, 473406, Note_on_c, 4, 57, 126
1, 473498, Note_off_c, 4, 57, 64
1, 473498, Note_off_c, 2, 69, 64
1, 473507, Note_off_c, 3, 81, 64
1, 473507, Note_on_c, 3, 80, 127
1, 473508, Note_on_c, 2, 69, 127
1, 473508, Note_on_c, 4, 57, 126
1, 473604, Note_on_c, 4, 38, 124
1, 473606, Note_off_c, 2, 69, 64
1, 473607, Note_off_c, 3, 80, 64
1, 473607, Note_on_c, 1, 78, 127
1, 473608, Note_on_c, 4, 66, 127
1, 473624, Note_on_c, 4, 42, 124
1, 473641, Note_off_c, 4, 57, 64
1, 473641, Note_on_c, 4, 45, 124
1, 473657, Note_on_c, 4, 50, 126
1, 473667, Note_off_c, 4, 38, 64
1, 473702, Note_off_c, 4, 42, 64
1, 473708, Note_off_c, 4, 50, 64
1, 473712, Note_off_c, 4, 66, 64
1, 473712, Note_off_c, 1, 78, 64
1, 473713, Note_on_c, 3, 80, 127
1, 473713, Note_on_c, 2, 69, 127
1, 473714, Note_on_c, 4, 50, 126
1, 473801, Note_off_c, 4, 45, 64
1, 473810, Note_off_c, 2, 69, 64
1, 473818, Note_on_c, 4, 39, 124
1, 473820, Note_off_c, 3, 80, 64
1, 473820, Note_on_c, 3, 81, 127
1, 473820, Note_on_c, 2, 69, 127
1, 473836, Note_on_c, 4, 42, 124
1, 473845, Note_off_c, 4, 50, 64
1, 473854, Note_on_c, 4, 45, 124
1, 473870, Note_on_c, 4, 51, 126
1, 473879, Note_off_c, 4, 39, 64
1, 473913, Note_off_c, 4, 42, 64
1, 473918, Note_off_c, 4, 51, 64
1, 473922, Note_off_c, 2, 69, 64
1, 473923, Note_off_c, 3, 81, 64
1, 473923, Note_on_c, 1, 83, 127
1, 473924, Note_on_c, 2, 71, 127
1, 473924, Note_on_c, 4, 51, 126
1, 474005, Note_off_c, 4, 45, 64
1, 474023, Note_on_c, 4, 40, 124
1, 474024, Note_off_c, 1, 83, 64
1, 474024, Note_off_c, 2, 71, 64
1, 474024, Note_on_c, 3, 80, 127
1, 474025, Note_on_c, 2, 69, 127
1, 474041, Note_on_c, 4, 44, 124
1, 474050, Note_off_c, 4, 51, 64
1, 474058, Note_on_c, 4, 47, 124
1, 474078, Note_on_c, 4, 52, 126
1, 474086, Note_off_c, 4, 40, 64
1, 474122, Note_off_c, 4, 44, 64
1, 474128, Note_off_c, 4, 52, 64
1, 474132, Note_off_c, 2, 69, 64
1, 474132, Note_off_c, 3, 80, 64
1, 474132, Note_on_c, 2, 76, 127
1, 474133, Note_on_c, 4, 64, 127
1, 474133, Note_on_c, 4, 52, 126
1, 474220, Note_off_c, 4, 47, 64
1, 474229, Note_off_c, 4, 52, 64
1, 474238, Note_off_c, 4, 64, 64
1, 474238, Note_off_c, 2, 76, 64
1, 474239, Note_on_c, 3, 81, 127
1, 474239, Note_on_c, 2, 69, 127
1, 474240, Note_on_c, 4, 52, 126
1, 474331, Note_off_c, 4, 52, 64
1, 474339, Note_off_c, 2, 69, 64
1, 474340, Note_off_c, 3, 81, 64
1, 474340, Note_on_c, 1, 83, 127
1, 474341, Note_on_c, 2, 71, 127
1, 474341, Note_on_c, 4, 52, 126
1, 474441, Note_off_c, 2, 71, 64
1, 474441, Note_on_c, 4, 45, 124
1, 474442, Note_off_c, 1, 83, 64
1, 474443, Note_on_c, 2, 73, 127
1, 474450, Note_off_c, 4, 52, 64
1, 474458, Note_on_c, 4, 49, 126
1, 474459, Note_on_c, 1, 85, 127
1, 474477, Note_on_c, 4, 52, 126
1, 474492, Note_on_c, 4, 57, 126
1, 474502, Note_off_c, 4, 45, 64
1, 474538, Note_off_c, 4, 49, 64
1, 474543, Note_off_c, 4, 57, 64
1, 474548, Note_on_c, 4, 57, 126
1, 474636, Note_off_c, 4, 52, 64
1, 474646, Note_off_c, 4, 57, 64
1, 474653, Note_off_c, 2, 73, 64
1, 474654, Note_on_c, 3, 81, 127
1, 474654, Note_on_c, 2, 69, 127
1, 474655, Note_on_c, 4, 57, 126
1, 474672, Note_off_c, 1, 85, 64
1, 474749, Note_off_c, 4, 57, 64
1, 474757, Note_off_c, 2, 69, 64
1, 474757, Note_off_c, 3, 81, 64
1, 474758, Note_on_c, 1, 83, 127
1, 474758, Note_on_c, 2, 71, 127
1, 474759, Note_on_c, 4, 57, 126
1, 474857, Note_off_c, 2, 71, 64
1, 474857, Note_on_c, 4, 45, 124
1, 474858, Note_off_c, 1, 83, 64
1, 474858, Note_on_c, 2, 73, 127
1, 474874, Note_on_c, 4, 49, 126
1, 474876, Note_on_c, 1, 85, 127
1, 474893, Note_on_c, 4, 52, 126
1, 474894, Note_off_c, 4, 57, 64
1, 474910, Note_on_c, 4, 57, 126
1, 474918, Note_off_c, 4, 45, 64
1, 474953, Note_off_c, 4, 49, 64
1, 474960, Note_off_c, 4, 57, 64
1, 474964, Note_off_c, 2, 73, 64
1, 474965, Note_on_c, 1, 83, 127
1, 474965, Note_on_c, 2, 71, 127
1, 474965, Note_on_c, 4, 57, 126
1, 474982, Note_off_c, 1, 85, 64
1, 475053, Note_off_c, 4, 52, 64
1, 475061, Note_off_c, 4, 57, 64
1, 475070, Note_off_c, 2, 71, 64
1, 475070, Note_off_c, 1, 83, 64
1, 475071, Note_on_c, 3, 81, 127
1, 475071, Note_on_c, 2, 69, 127
1, 475072, Note_on_c, 4, 57, 126
1, 475163, Note_off_c, 4, 57, 64
1, 475164, Note_off_c, 2, 69, 64
1, 475172, Note_off_c, 3, 81, 64
1, 475172, Note_on_c, 3, 80, 127
1, 475173, Note_on_c, 2, 69, 127
1, 475173, Note_on_c, 4, 57, 126
1, 475273, Note_on_c, 4, 38, 124
1, 475274, Note_off_c, 3, 80, 64
1, 475274, Note_off_c, 2, 69, 64
1, 475275, Note_on_c, 1, 78, 127
1, 475275, Note_on_c, 4, 66, 127
1, 475291, Note_on_c, 4, 42, 124
1, 475310, Note_off_c, 4, 57, 64
1, 475310, Note_on_c, 4, 45, 124
1, 475328, Note_on_c, 4, 50, 126
1, 475336, Note_off_c, 4, 38, 64
1, 475372, Note_off_c, 4, 42, 64
1, 475378, Note_off_c, 4, 50, 64
1, 475382, Note_off_c, 4, 66, 64
1, 475382, Note_off_c, 1, 78, 64
1, 475383, Note_on_c, 1, 83, 127
1, 475383, Note_on_c, 2, 71, 127
1, 475384, Note_on_c, 4, 50, 126
1, 475470, Note_off_c, 4, 45, 64
1, 475488, Note_on_c, 4, 40, 124
1, 475489, Note_off_c, 2, 71, 64
1, 475489, Note_off_c, 1, 83, 64
1, 475490, Note_on_c, 3, 80, 127
1, 475490, Note_on_c, 2, 69, 127
1, 475506, Note_on_c, 4, 44, 124
1, 475515, Note_off_c, 4, 50, 64
1, 475522, Note_on_c, 4, 47, 124
1, 475540, Note_on_c, 4, 52, 126
1, 475548, Note_off_c, 4, 40, 64
1, 475581, Note_off_c, 4, 44, 64
1, 475586, Note_off_c, 4, 52, 64
1, 475589, Note_off_c, 2, 69, 64
1, 475589, Note_off_c, 3, 80, 64
1, 475590, Note_on_c, 2, 76, 127
1, 475590, Note_on_c, 4, 64, 127
1, 475591, Note_on_c, 4, 52, 126
1, 475672, Note_off_c, 4, 47, 64
1, 475689, Note_off_c, 4, 52, 64
1, 475690, Note_off_c, 4, 64, 64
1, 475690, Note_off_c, 2, 76, 64
1, 475691, Note_on_c, 3, 81, 127
1, 475691, Note_on_c, 2, 69, 127
1, 475692, Note_on_c, 4, 45, 124
1, 475892, Note_off_c, 2, 69, 64
1, 475892, Note_off_c, 3, 81, 64
1, 475900, Note_on_c, 3, 81, 127
1, 475901, Note_on_c, 2, 69, 127
1, 475995, Note_off_c, 2, 69, 64
1, 475996, Note_off_c, 3, 81, 64
1, 476004, Note_on_c, 1, 83, 127
1, 476004, Note_on_c, 2, 71, 127
1, 476094, Note_off_c, 4, 45, 64
1, 476103, Note_off_c, 2, 71, 64
1, 476103, Note_off_c, 1, 83, 64
1, 476104, Note_on_c, 2, 73, 127
1, 476104, Note_on_c, 4, 45, 124
1, 476116, Note_on_c, 4, 49, 126
1, 476122, Note_on_c, 1, 85, 127
1, 476132, Note_on_c, 4, 52, 126
1, 476155, Note_on_c, 4, 57, 126
1, 476164, Note_off_c, 4, 45, 64
1, 476195, Note_off_c, 4, 49, 64
1, 476207, Note_off_c, 4, 57, 64
1, 476209, Note_on_c, 4, 57, 126
1, 476290, Note_off_c, 4, 52, 64
1, 476307, Note_off_c, 4, 57, 64
1, 476317, Note_off_c, 2, 73, 64
1, 476317, Note_on_c, 3, 81, 127
1, 476318, Note_on_c, 2, 69, 127
1, 476318, Note_on_c, 4, 57, 126
1, 476334, Note_off_c, 1, 85, 64
1, 476411, Note_off_c, 4, 57, 64
1, 476419, Note_off_c, 2, 69, 64
1, 476420, Note_off_c, 3, 81, 64
1, 476420, Note_on_c, 1, 83, 127
1, 476421, Note_on_c, 2, 71, 127
1, 476421, Note_on_c, 4, 57, 126
1, 476522, Note_on_c, 4, 45, 124
1, 476523, Note_off_c, 2, 71, 64
1, 476524, Note_off_c, 1, 83, 64
1, 476524, Note_on_c, 2, 73, 127
1, 476536, Note_on_c, 4, 49, 126
1, 476542, Note_on_c, 1, 85, 127
1, 476550, Note_on_c, 4, 52, 126
1, 476557, Note_off_c, 4, 57, 64
1, 476576, Note_on_c, 4, 57, 126
1, 476584, Note_off_c, 4, 45, 64
1, 476617, Note_off_c, 4, 49, 64
1, 476626, Note_off_c, 4, 57, 64
1, 476630, Note_off_c, 2, 73, 64
1, 476631, Note_on_c, 1, 83, 127
1, 476631, Note_on_c, 2, 71, 127
1, 476632, Note_on_c, 4, 57, 126
1, 476649, Note_off_c, 1, 85, 64
1, 476714, Note_off_c, 4, 52, 64
1, 476730, Note_off_c, 4, 57, 64
1, 476738, Note_off_c, 2, 71, 64
1, 476738, Note_off_c, 1, 83, 64
1, 476739, Note_on_c, 3, 81, 127
1, 476739, Note_on_c, 2, 69, 127
1, 476739, Note_on_c, 4, 57, 126
1, 476834, Note_off_c, 4, 57, 64
1, 476834, Note_off_c, 2, 69, 64
1, 476843, Note_off_c, 3, 81, 64
1, 476843, Note_on_c, 3, 80, 127
1, 476844, Note_on_c, 2, 69, 127
1, 476844, Note_on_c, 4, 57, 126
1, 476944, Note_on_c, 4, 38, 124
1, 476945, Note_off_c, 3, 80, 64
1, 476945, Note_off_c, 2, 69, 64
1, 476946, Note_on_c, 1, 78, 127
1, 476946, Note_on_c, 4, 66, 127
1, 476964, Note_on_c, 4, 42, 124
1, 476979, Note_off_c, 4, 57, 64
1, 476979, Note_on_c, 4, 45, 124
1, 476996, Note_on_c, 4, 50, 126
1, 477004, Note_off_c, 4, 38, 64
1, 477040, Note_off_c, 4, 42, 64
1, 477046, Note_off_c, 4, 50, 64
1, 477050, Note_off_c, 4, 66, 64
1, 477050, Note_off_c, 1, 78, 64
1, 477051, Note_on_c, 3, 80, 127
1, 477051, Note_on_c, 2, 69, 127
1, 477052, Note_on_c, 4, 50, 126
1, 477138, Note_off_c, 4, 45, 64
1, 477148, Note_off_c, 2, 69, 64
1, 477156, Note_off_c, 3, 80, 64
1, 477156, Note_on_c, 3, 81, 127
1, 477156, Note_on_c, 4, 39, 124
1, 477157, Note_on_c, 2, 69, 127
1, 477173, Note_on_c, 4, 42, 124
1, 477182, Note_off_c, 4, 50, 64
1, 477190, Note_on_c, 4, 45, 124
1, 477207, Note_on_c, 4, 51, 126
1, 477215, Note_off_c, 4, 39, 64
1, 477250, Note_off_c, 4, 42, 64
1, 477256, Note_off_c, 4, 51, 64
1, 477260, Note_off_c, 2, 69, 64
1, 477261, Note_off_c, 3, 81, 64
1, 477261, Note_on_c, 1, 83, 127
1, 477261, Note_on_c, 2, 71, 127
1, 477262, Note_on_c, 4, 51, 126
1, 477345, Note_off_c, 4, 45, 64
1, 477362, Note_off_c, 2, 71, 64
1, 477362, Note_on_c, 4, 40, 124
1, 477363, Note_off_c, 1, 83, 64
1, 477363, Note_on_c, 3, 80, 127
1, 477364, Note_on_c, 2, 69, 127
1, 477381, Note_on_c, 4, 44, 124
1, 477390, Note_off_c, 4, 51, 64
1, 477397, Note_on_c, 4, 47, 124
1, 477417, Note_on_c, 4, 52, 126
1, 477424, Note_off_c, 4, 40, 64
1, 477459, Note_off_c, 4, 44, 64
1, 477465, Note_off_c, 4, 52, 64
1, 477468, Note_off_c, 2, 69, 64
1, 477469, Note_off_c, 3, 80, 64
1, 477469, Note_on_c, 2, 76, 127
1, 477470, Note_on_c, 4, 64, 127
1, 477470, Note_on_c, 4, 52, 126
1, 477557, Note_off_c, 4, 47, 64
1, 477567, Note_off_c, 4, 52, 64
1, 477575, Note_off_c, 4, 64, 64
1, 477576, Note_off_c, 2, 76, 64
1, 477576, Note_on_c, 3, 81, 127
1, 477576, Note_on_c, 2, 69, 127
1, 477577, Note_on_c, 4, 52, 126
1, 477669, Note_off_c, 4, 52, 64
1, 477677, Note_off_c, 2, 69, 64
1, 477677, Note_off_c, 3, 81, 64
1, 477678, Note_on_c, 1, 83, 127
1, 477678, Note_on_c, 2, 71, 127
1, 477679, Note_on_c, 4, 52, 126
1, 477775, Note_off_c, 2, 71, 64
1, 477775, Note_on_c, 4, 45, 124
1, 477776, Note_off_c, 1, 83, 64
1, 477776, Note_on_c, 2, 73, 127
1, 477784, Note_off_c, 4, 52, 64
1, 477792, Note_on_c, 4, 49, 126
1, 477794, Note_on_c, 1, 85, 127
1, 477811, Note_on_c, 4, 52, 126
1, 477828, Note_on_c, 4, 57, 126
1, 477834, Note_off_c, 4, 45, 64
1, 477871, Note_off_c, 4, 49, 64
1, 477876, Note_off_c, 4, 57, 64
1, 477880, Note_on_c, 4, 57, 126
1, 477969, Note_off_c, 4, 52, 64
1, 477978, Note_off_c, 4, 57, 64
1, 477988, Note_off_c, 2, 73, 64
1, 477988, Note_on_c, 3, 81, 127
1, 477989, Note_on_c, 2, 69, 127
1, 477989, Note_on_c, 4, 57, 126
1, 478004, Note_off_c, 1, 85, 64
1, 478082, Note_off_c, 4, 57, 64
1, 478090, Note_off_c, 3, 81, 64
1, 478090, Note_off_c, 2, 69, 64
1, 478091, Note_on_c, 1, 83, 127
1, 478091, Note_on_c, 2, 71, 127
1, 478092, Note_on_c, 4, 57, 126
1, 478186, Note_on_c, 4, 45, 124
1, 478188, Note_off_c, 2, 71, 64
1, 478188, Note_off_c, 1, 83, 64
1, 478188, Note_on_c, 2, 73, 127
1, 478204, Note_on_c, 4, 49, 126
1, 478206, Note_on_c, 1, 85, 127
1, 478223, Note_on_c, 4, 52, 126
1, 478224, Note_off_c, 4, 57, 64
1, 478239, Note_on_c, 4, 57, 126
1, 478247, Note_off_c, 4, 45, 64
1, 478284, Note_off_c, 4, 49, 64
1, 478289, Note_off_c, 4, 57, 64
1, 478293, Note_off_c, 2, 73, 64
1, 478294, Note_on_c, 1, 83, 127
1, 478294, Note_on_c, 2, 71, 127
1, 478295, Note_on_c, 4, 57, 126
1, 478310, Note_off_c, 1, 85, 64
1, 478381, Note_off_c, 4, 52, 64
1, 478391, Note_off_c, 4, 57, 64
1, 478399, Note_off_c, 2, 71, 64
1, 478399, Note_off_c, 1, 83, 64
1, 478400, Note_on_c, 3, 81, 127
1, 478400, Note_on_c, 2, 69, 127
1, 478401, Note_on_c, 4, 57, 126
1, 478493, Note_off_c, 4, 57, 64
1, 478493, Note_off_c, 2, 69, 64
1, 478501, Note_off_c, 3, 81, 64
1, 478502, Note_on_c, 3, 80, 127
1, 478502, Note_on_c, 2, 69, 127
1, 478503, Note_on_c, 4, 57, 126
1, 478606, Note_off_c, 2, 69, 64
1, 478606, Note_on_c, 4, 38, 124
1, 478607, Note_off_c, 3, 80, 64
1, 478607, Note_on_c, 1, 78, 127
1, 478607, Note_on_c, 4, 66, 127
1, 478622, Note_on_c, 4, 42, 124
1, 478642, Note_off_c, 4, 57, 64
1, 478642, Note_on_c, 4, 45, 124
1, 478660, Note_on_c, 4, 50, 126
1, 478668, Note_off_c, 4, 38, 64
1, 478704, Note_off_c, 4, 42, 64
1, 478710, Note_off_c, 4, 50, 64
1, 478714, Note_off_c, 4, 66, 64
1, 478714, Note_off_c, 1, 78, 64
1, 478715, Note_on_c, 1, 83, 127
1, 478715, Note_on_c, 2, 71, 127
1, 478716, Note_on_c, 4, 50, 126
1, 478803, Note_off_c, 4, 45, 64
1, 478821, Note_off_c, 2, 71, 64
1, 478821, Note_off_c, 1, 83, 64
1, 478821, Note_on_c, 4, 40, 124
1, 478822, Note_on_c, 3, 80, 127
1, 478822, Note_on_c, 2, 69, 127
1, 478836, Note_on_c, 4, 44, 124
1, 478846, Note_off_c, 4, 50, 64
1, 478853, Note_on_c, 4, 47, 124
1, 478872, Note_on_c, 4, 52, 126
1, 478880, Note_off_c, 4, 40, 64
1, 478915, Note_off_c, 4, 44, 64
1, 478920, Note_off_c, 4, 52, 64
1, 478924, Note_off_c, 2, 69, 64
1, 478924, Note_off_c, 3, 80, 64
1, 478925, Note_on_c, 2, 76, 127
1, 478925, Note_on_c, 4, 64, 127
1, 478926, Note_on_c, 4, 52, 126
1, 479008, Note_off_c, 4, 47, 64
1, 479025, Note_off_c, 4, 52, 64
1, 479026, Note_off_c, 4, 64, 64
1, 479026, Note_off_c, 2, 76, 64
1, 479027, Note_on_c, 3, 81, 127
1, 479027, Note_on_c, 2, 69, 127
1, 479028, Note_on_c, 4, 45, 124
1, 479258, Note_off_c, 2, 69, 64
1, 479259, Note_off_c, 3, 81, 64
1, 479259, Note_on_c, 2, 71, 127
1, 479313, Note_on_c, 2, 69, 127
1, 479321, Note_off_c, 2, 71, 64
1, 479363, Note_on_c, 2, 68, 127
1, 479371, Note_off_c, 2, 69, 64
1, 479413, Note_on_c, 2, 69, 127
1, 479423, Note_off_c, 2, 68, 64
1, 479468, Note_off_c, 4, 45, 64
1, 479468, Note_on_c, 2, 72, 127
1, 479469, Note_on_c, 4, 57, 126
1, 479476, Note_off_c, 2, 69, 64
1, 479574, Note_on_c, 4, 64, 127
1, 479575, Note_on_c, 4, 60, 127
1, 479602, Note_off_c, 4, 57, 64
1, 479673, Note_off_c, 2, 72, 64
1, 479679, Note_off_c, 4, 60, 64
1, 479679, Note_off_c, 4, 64, 64
1, 479682, Note_on_c, 4, 64, 127
1, 479682, Note_on_c, 2, 74, 127
1, 479683, Note_on_c, 4, 60, 127
1, 479736, Note_on_c, 2, 72, 127
1, 479746, Note_off_c, 2, 74, 64
1, 479786, Note_off_c, 4, 60, 64
1, 479787, Note_off_c, 4, 64, 64
1, 479787, Note_on_c, 2, 71, 127
1, 479788, Note_on_c, 4, 64, 127
1, 479788, Note_on_c, 4, 60, 127
1, 479796, Note_off_c, 2, 72, 64
1, 479838, Note_on_c, 2, 72, 127
1, 479846, Note_off_c, 2, 71, 64
1, 479888, Note_off_c, 4, 60, 64
1, 479889, Note_off_c, 4, 64, 64
1, 479889, Note_on_c, 2, 76, 127
1, 479890, Note_on_c, 4, 57, 126
1, 479898, Note_off_c, 2, 72, 64
1, 479998, Note_on_c, 4, 64, 127
1, 479998, Note_on_c, 4, 60, 127
1, 480024, Note_off_c, 4, 57, 64
1, 480096, Note_off_c, 2, 76, 64
1, 480102, Note_off_c, 4, 60, 64
1, 480103, Note_off_c, 4, 64, 64
1, 480105, Note_on_c, 2, 77, 127
1, 480106, Note_on_c, 4, 64, 127
1, 480106, Note_on_c, 4, 60, 127
1, 480158, Note_on_c, 2, 76, 127
1, 480166, Note_off_c, 2, 77, 64
1, 480206, Note_off_c, 4, 60, 64
1, 480206, Note_off_c, 4, 64, 64
1, 480209, Note_on_c, 2, 75, 127
1, 480209, Note_on_c, 4, 64, 127
1, 480210, Note_on_c, 4, 60, 127
1, 480216, Note_off_c, 2, 76, 64
1, 480260, Note_on_c, 2, 76, 127
1, 480267, Note_off_c, 2, 75, 64
1, 480308, Note_off_c, 4, 64, 64
1, 480308, Note_off_c, 4, 60, 64
1, 480311, Note_on_c, 1, 83, 127
1, 480311, Note_on_c, 4, 57, 126
1, 480319, Note_off_c, 2, 76, 64
1, 480362, Note_on_c, 3, 81, 127
1, 480370, Note_off_c, 1, 83, 64
1, 480415, Note_on_c, 3, 80, 127
1, 480415, Note_on_c, 4, 64, 127
1, 480416, Note_on_c, 4, 60, 127
1, 480424, Note_off_c, 3, 81, 64
1, 480443, Note_off_c, 4, 57, 64
1, 480470, Note_on_c, 3, 81, 127
1, 480480, Note_off_c, 3, 80, 64
1, 480526, Note_on_c, 1, 83, 127
1, 480526, Note_on_c, 4, 57, 126
1, 480534, Note_off_c, 3, 81, 64
1, 480550, Note_off_c, 4, 64, 64
1, 480550, Note_off_c, 4, 60, 64
1, 480576, Note_on_c, 3, 81, 127
1, 480583, Note_off_c, 1, 83, 64
1, 480626, Note_on_c, 4, 64, 127
1, 480626, Note_on_c, 3, 80, 127
1, 480627, Note_on_c, 4, 60, 127
1, 480635, Note_off_c, 3, 81, 64
1, 480652, Note_off_c, 4, 57, 64
1, 480679, Note_on_c, 3, 81, 127
1, 480687, Note_off_c, 3, 80, 64
1, 480730, Note_on_c, 1, 84, 127
1, 480730, Note_on_c, 4, 57, 126
1, 480740, Note_off_c, 3, 81, 64
1, 480757, Note_off_c, 4, 60, 64
1, 480758, Note_off_c, 4, 64, 64
1, 480837, Note_on_c, 4, 64, 127
1, 480837, Note_on_c, 4, 60, 127
1, 480864, Note_off_c, 4, 57, 64
1, 480942, Note_off_c, 4, 60, 64
1, 480942, Note_off_c, 4, 64, 64
1, 480943, Note_off_c, 1, 84, 64
1, 480944, Note_on_c, 3, 81, 127
1, 480945, Note_on_c, 4, 64, 127
1, 480945, Note_on_c, 4, 60, 127
1, 481049, Note_off_c, 4, 60, 64
1, 481049, Note_off_c, 4, 64, 64
1, 481050, Note_off_c, 3, 81, 64
1, 481052, Note_on_c, 1, 84, 127
1, 481053, Note_on_c, 4, 64, 127
1, 481053, Note_on_c, 4, 60, 127
1, 481157, Note_off_c, 4, 60, 64
1, 481158, Note_off_c, 4, 64, 64
1, 481158, Note_off_c, 1, 84, 64
1, 481161, Note_on_c, 4, 52, 126
1, 481161, Note_on_c, 3, 79, 127
1, 481179, Note_off_c, 3, 79, 64
1, 481179, Note_on_c, 3, 81, 127
1, 481195, Note_off_c, 3, 81, 64
1, 481196, Note_on_c, 1, 83, 127
1, 481265, Note_on_c, 3, 81, 127
1, 481266, Note_on_c, 1, 78, 127
1, 481266, Note_on_c, 4, 64, 127
1, 481266, Note_on_c, 4, 59, 127
1, 481292, Note_off_c, 4, 52, 64
1, 481297, Note_off_c, 1, 83, 64
1, 481370, Note_off_c, 4, 59, 64
1, 481371, Note_off_c, 4, 64, 64
1, 481371, Note_off_c, 1, 78, 64
1, 481372, Note_off_c, 3, 81, 64
1, 481373, Note_on_c, 3, 79, 127
1, 481373, Note_on_c, 2, 76, 127
1, 481373, Note_on_c, 4, 64, 127
1, 481374, Note_on_c, 4, 59, 127
1, 481475, Note_off_c, 4, 64, 64
1, 481475, Note_off_c, 4, 59, 64
1, 481476, Note_off_c, 2, 76, 64
1, 481476, Note_off_c, 3, 79, 64
1, 481478, Note_on_c, 3, 81, 127
1, 481479, Note_on_c, 1, 78, 127
1, 481479, Note_on_c, 4, 64, 127
1, 481480, Note_on_c, 4, 59, 127
1, 481580, Note_off_c, 4, 59, 64
1, 481580, Note_off_c, 4, 64, 64
1, 481581, Note_off_c, 1, 78, 64
1, 481581, Note_off_c, 3, 81, 64
1, 481582, Note_on_c, 3, 79, 127
1, 481583, Note_on_c, 4, 52, 126
1, 481600, Note_off_c, 3, 79, 64
1, 481601, Note_on_c, 3, 81, 127
1, 481619, Note_off_c, 3, 81, 64
1, 481619, Note_on_c, 1, 83, 127
1, 481689, Note_on_c, 3, 81, 127
1, 481689, Note_on_c, 1, 78, 127
1, 481690, Note_on_c, 4, 64, 127
1, 481690, Note_on_c, 4, 59, 127
1, 481716, Note_off_c, 4, 52, 64
1, 481721, Note_off_c, 1, 83, 64
1, 481794, Note_off_c, 4, 59, 64
1, 481794, Note_off_c, 4, 64, 64
1, 481795, Note_off_c, 1, 78, 64
1, 481795, Note_off_c, 3, 81, 64
1, 481796, Note_on_c, 3, 79, 127
1, 481797, Note_on_c, 2, 76, 127
1, 481797, Note_on_c, 4, 64, 127
1, 481798, Note_on_c, 4, 59, 127
1, 481900, Note_off_c, 4, 59, 64
1, 481900, Note_off_c, 4, 64, 64
1, 481900, Note_off_c, 2, 76, 64
1, 481901, Note_off_c, 3, 79, 64
1, 481902, Note_on_c, 3, 81, 127
1, 481902, Note_on_c, 1, 78, 127
1, 481903, Note_on_c, 4, 64, 127
1, 481903, Note_on_c, 4, 59, 127
1, 482005, Note_off_c, 4, 59, 64
1, 482006, Note_off_c, 1, 78, 64
1, 482006, Note_off_c, 3, 81, 64
1, 482006, Note_off_c, 4, 64, 64
1, 482007, Note_on_c, 3, 79, 127
1, 482008, Note_on_c, 4, 52, 126
1, 482026, Note_off_c, 3, 79, 64
1, 482026, Note_on_c, 3, 81, 127
1, 482044, Note_off_c, 3, 81, 64
1, 482044, Note_on_c, 1, 83, 127
1, 482114, Note_on_c, 3, 81, 127
1, 482114, Note_on_c, 1, 78, 127
1, 482115, Note_on_c, 4, 64, 127
1, 482115, Note_on_c, 4, 59, 127
1, 482141, Note_off_c, 4, 52, 64
1, 482147, Note_off_c, 1, 83, 64
1, 482218, Note_off_c, 1, 78, 64
1, 482218, Note_off_c, 3, 81, 64
1, 482220, Note_on_c, 3, 79, 127
1, 482221, Note_on_c, 2, 76, 127
1, 482221, Note_on_c, 4, 47, 124
1, 482246, Note_off_c, 4, 59, 64
1, 482247, Note_off_c, 4, 64, 64
1, 482322, Note_off_c, 2, 76, 64
1, 482323, Note_off_c, 3, 79, 64
1, 482325, Note_on_c, 1, 78, 127
1, 482326, Note_on_c, 2, 75, 127
1, 482326, Note_on_c, 4, 59, 127
1, 482351, Note_off_c, 4, 47, 64
1, 482428, Note_off_c, 1, 78, 64
1, 482428, Note_off_c, 2, 75, 64
1, 482431, Note_on_c, 2, 76, 127
1, 482431, Note_on_c, 4, 52, 126
1, 482457, Note_off_c, 4, 59, 64
1, 482642, Note_off_c, 2, 76, 64
1, 482646, Note_on_c, 2, 71, 127
1, 482700, Note_on_c, 2, 69, 127
1, 482710, Note_off_c, 2, 71, 64
1, 482750, Note_on_c, 2, 68, 127
1, 482760, Note_off_c, 2, 69, 64
1, 482802, Note_on_c, 2, 69, 127
1, 482812, Note_off_c, 2, 68, 64
1, 482856, Note_off_c, 4, 52, 64
1, 482856, Note_on_c, 2, 72, 127
1, 482857, Note_on_c, 4, 57, 126
1, 482865, Note_off_c, 2, 69, 64
1, 482964, Note_on_c, 4, 64, 127
1, 482965, Note_on_c, 4, 60, 127
1, 482990, Note_off_c, 4, 57, 64
1, 483062, Note_off_c, 2, 72, 64
1, 483069, Note_off_c, 4, 60, 64
1, 483070, Note_off_c, 4, 64, 64
1, 483072, Note_on_c, 2, 74, 127
1, 483072, Note_on_c, 4, 64, 127
1, 483073, Note_on_c, 4, 60, 127
1, 483124, Note_on_c, 2, 72, 127
1, 483133, Note_off_c, 2, 74, 64
1, 483174, Note_off_c, 4, 64, 64
1, 483174, Note_off_c, 4, 60, 64
1, 483177, Note_on_c, 2, 71, 127
1, 483177, Note_on_c, 4, 64, 127
1, 483178, Note_on_c, 4, 60, 127
1, 483185, Note_off_c, 2, 72, 64
1, 483228, Note_on_c, 2, 72, 127
1, 483235, Note_off_c, 2, 71, 64
1, 483276, Note_off_c, 4, 60, 64
1, 483276, Note_off_c, 4, 64, 64
1, 483279, Note_on_c, 2, 76, 127
1, 483279, Note_on_c, 4, 57, 126
1, 483287, Note_off_c, 2, 72, 64
1, 483387, Note_on_c, 4, 64, 127
1, 483387, Note_on_c, 4, 60, 127
1, 483413, Note_off_c, 4, 57, 64
1, 483484, Note_off_c, 2, 76, 64
1, 483492, Note_off_c, 4, 60, 64
1, 483492, Note_off_c, 4, 64, 64
1, 483495, Note_on_c, 2, 77, 127
1, 483495, Note_on_c, 4, 64, 127
1, 483496, Note_on_c, 4, 60, 127
1, 483551, Note_on_c, 2, 76, 127
1, 483560, Note_off_c, 2, 77, 64
1, 483598, Note_off_c, 4, 60, 64
1, 483599, Note_off_c, 4, 64, 64
1, 483601, Note_on_c, 2, 75, 127
1, 483602, Note_on_c, 4, 64, 127
1, 483602, Note_on_c, 4, 60, 127
1, 483609, Note_off_c, 2, 76, 64
1, 483651, Note_on_c, 2, 76, 127
1, 483661, Note_off_c, 2, 75, 64
1, 483703, Note_off_c, 4, 60, 64
1, 483703, Note_off_c, 4, 64, 64
1, 483706, Note_on_c, 1, 83, 127
1, 483707, Note_on_c, 4, 57, 126
1, 483715, Note_off_c, 2, 76, 64
1, 483757, Note_on_c, 3, 81, 127
1, 483767, Note_off_c, 1, 83, 64
1, 483811, Note_on_c, 3, 80, 127
1, 483811, Note_on_c, 4, 64, 127
1, 483812, Note_on_c, 4, 60, 127
1, 483817, Note_off_c, 3, 81, 64
1, 483835, Note_off_c, 4, 57, 64
1, 483864, Note_on_c, 3, 81, 127
1, 483871, Note_off_c, 3, 80, 64
1, 483915, Note_on_c, 1, 83, 127
1, 483916, Note_on_c, 4, 57, 126
1, 483922, Note_off_c, 3, 81, 64
1, 483940, Note_off_c, 4, 60, 64
1, 483941, Note_off_c, 4, 64, 64
1, 483966, Note_on_c, 3, 81, 127
1, 483974, Note_off_c, 1, 83, 64
1, 484014, Note_on_c, 3, 80, 127
1, 484015, Note_on_c, 4, 64, 127
1, 484015, Note_on_c, 4, 60, 127
1, 484023, Note_off_c, 3, 81, 64
1, 484040, Note_off_c, 4, 57, 64
1, 484065, Note_on_c, 3, 81, 127
1, 484075, Note_off_c, 3, 80, 64
1, 484115, Note_on_c, 1, 84, 127
1, 484116, Note_on_c, 4, 57, 126
1, 484126, Note_off_c, 3, 81, 64
1, 484143, Note_off_c, 4, 60, 64
1, 484143, Note_off_c, 4, 64, 64
1, 484223, Note_on_c, 4, 64, 127
1, 484223, Note_on_c, 4, 60, 127
1, 484250, Note_off_c, 4, 57, 64
1, 484327, Note_off_c, 4, 60, 64
1, 484328, Note_off_c, 1, 84, 64
1, 484328, Note_off_c, 4, 64, 64
1, 484330, Note_on_c, 3, 81, 127
1, 484331, Note_on_c, 4, 64, 127
1, 484331, Note_on_c, 4, 60, 127
1, 484435, Note_off_c, 4, 60, 64
1, 484435, Note_off_c, 4, 64, 64
1, 484436, Note_off_c, 3, 81, 64
1, 484438, Note_on_c, 1, 84, 127
1, 484438, Note_on_c, 4, 64, 127
1, 484439, Note_on_c, 4, 60, 127
1, 484539, Note_off_c, 4, 60, 64
1, 484540, Note_off_c, 4, 64, 64
1, 484540, Note_off_c, 1, 84, 64
1, 484542, Note_on_c, 3, 79, 127
1, 484543, Note_on_c, 4, 52, 126
1, 484560, Note_off_c, 3, 79, 64
1, 484561, Note_on_c, 3, 81, 127
1, 484577, Note_off_c, 3, 81, 64
1, 484577, Note_on_c, 1, 83, 127
1, 484649, Note_on_c, 3, 81, 127
1, 484649, Note_on_c, 1, 78, 127
1, 484650, Note_on_c, 4, 64, 127
1, 484650, Note_on_c, 4, 59, 127
1, 484676, Note_off_c, 4, 52, 64
1, 484681, Note_off_c, 1, 83, 64
1, 484752, Note_off_c, 4, 59, 64
1, 484753, Note_off_c, 4, 64, 64
1, 484753, Note_off_c, 1, 78, 64
1, 484754, Note_off_c, 3, 81, 64
1, 484754, Note_on_c, 3, 79, 127
1, 484755, Note_on_c, 2, 76, 127
1, 484755, Note_on_c, 4, 64, 127
1, 484756, Note_on_c, 4, 59, 127
1, 484858, Note_off_c, 4, 59, 64
1, 484859, Note_off_c, 4, 64, 64
1, 484859, Note_off_c, 2, 76, 64
1, 484860, Note_off_c, 3, 79, 64
1, 484860, Note_on_c, 3, 81, 127
1, 484860, Note_on_c, 1, 78, 127
1, 484861, Note_on_c, 4, 64, 127
1, 484861, Note_on_c, 4, 59, 127
1, 484964, Note_off_c, 4, 59, 64
1, 484964, Note_off_c, 4, 64, 64
1, 484965, Note_off_c, 1, 78, 64
1, 484965, Note_off_c, 3, 81, 64
1, 484966, Note_on_c, 4, 52, 126
1, 484966, Note_on_c, 3, 79, 127
1, 484984, Note_off_c, 3, 79, 64
1, 484984, Note_on_c, 3, 81, 127
1, 485002, Note_off_c, 3, 81, 64
1, 485003, Note_on_c, 1, 83, 127
1, 485070, Note_on_c, 3, 81, 127
1, 485071, Note_on_c, 1, 78, 127
1, 485071, Note_on_c, 4, 64, 127
1, 485072, Note_on_c, 4, 59, 127
1, 485097, Note_off_c, 4, 52, 64
1, 485103, Note_off_c, 1, 83, 64
1, 485176, Note_off_c, 4, 59, 64
1, 485176, Note_off_c, 4, 64, 64
1, 485177, Note_off_c, 1, 78, 64
1, 485177, Note_off_c, 3, 81, 64
1, 485178, Note_on_c, 3, 79, 127
1, 485178, Note_on_c, 2, 76, 127
1, 485179, Note_on_c, 4, 64, 127
1, 485179, Note_on_c, 4, 59, 127
1, 485281, Note_off_c, 4, 59, 64
1, 485282, Note_off_c, 2, 76, 64
1, 485282, Note_off_c, 4, 64, 64
1, 485283, Note_off_c, 3, 79, 64
1, 485283, Note_on_c, 3, 81, 127
1, 485284, Note_on_c, 1, 78, 127
1, 485284, Note_on_c, 4, 64, 127
1, 485285, Note_on_c, 4, 59, 127
1, 485387, Note_off_c, 4, 59, 64
1, 485388, Note_off_c, 4, 64, 64
1, 485388, Note_off_c, 1, 78, 64
1, 485388, Note_off_c, 3, 81, 64
1, 485391, Note_on_c, 4, 52, 126
1, 485391, Note_on_c, 3, 79, 127
1, 485407, Note_off_c, 3, 79, 64
1, 485408, Note_on_c, 3, 81, 127
1, 485426, Note_off_c, 3, 81, 64
1, 485426, Note_on_c, 1, 83, 127
1, 485496, Note_on_c, 3, 81, 127
1, 485496, Note_on_c, 1, 78, 127
1, 485496, Note_on_c, 4, 64, 127
1, 485497, Note_on_c, 4, 59, 127
1, 485522, Note_off_c, 4, 52, 64
1, 485528, Note_off_c, 1, 83, 64
1, 485599, Note_off_c, 1, 78, 64
1, 485600, Note_off_c, 3, 81, 64
1, 485603, Note_on_c, 3, 79, 127
1, 485603, Note_on_c, 2, 76, 127
1, 485603, Note_on_c, 4, 47, 124
1, 485628, Note_off_c, 4, 59, 64
1, 485629, Note_off_c, 4, 64, 64
1, 485706, Note_off_c, 2, 76, 64
1, 485706, Note_off_c, 3, 79, 64
1, 485709, Note_on_c, 1, 78, 127
1, 485709, Note_on_c, 2, 75, 127
1, 485710, Note_on_c, 4, 59, 127
1, 485735, Note_off_c, 4, 47, 64
1, 485808, Note_off_c, 2, 75, 64
1, 485808, Note_off_c, 1, 78, 64
1, 485811, Note_on_c, 2, 76, 127
1, 485811, Note_on_c, 4, 52, 126
1, 485839, Note_off_c, 4, 59, 64
1, 486021, Note_off_c, 2, 76, 64
1, 486025, Note_on_c, 2, 76, 127
1, 486025, Note_on_c, 2, 72, 127
1, 486125, Note_off_c, 2, 72, 64
1, 486126, Note_off_c, 2, 76, 64
1, 486128, Note_on_c, 2, 77, 127
1, 486129, Note_on_c, 2, 74, 127
1, 486233, Note_off_c, 2, 74, 64
1, 486233, Note_off_c, 2, 77, 64
1, 486234, Note_off_c, 4, 52, 64
1, 486235, Note_on_c, 3, 79, 127
1, 486235, Note_on_c, 2, 76, 127
1, 486236, Note_on_c, 4, 48, 124
1, 486339, Note_off_c, 2, 76, 64
1, 486340, Note_off_c, 3, 79, 64
1, 486343, Note_on_c, 3, 79, 127
1, 486343, Note_on_c, 2, 76, 127
1, 486344, Note_on_c, 4, 60, 127
1, 486369, Note_off_c, 4, 48, 64
1, 486447, Note_off_c, 2, 76, 64
1, 486447, Note_off_c, 3, 79, 64
1, 486450, Note_on_c, 3, 81, 127
1, 486451, Note_on_c, 4, 52, 126
1, 486476, Note_off_c, 4, 60, 64
1, 486501, Note_off_c, 3, 81, 64
1, 486503, Note_on_c, 3, 79, 127
1, 486549, Note_off_c, 3, 79, 64
1, 486551, Note_on_c, 2, 77, 127
1, 486552, Note_on_c, 4, 64, 127
1, 486575, Note_off_c, 4, 52, 64
1, 486596, Note_off_c, 2, 77, 64
1, 486600, Note_on_c, 2, 76, 127
1, 486646, Note_off_c, 2, 76, 64
1, 486650, Note_on_c, 2, 74, 127
1, 486650, Note_on_c, 2, 71, 127
1, 486651, Note_on_c, 4, 55, 126
1, 486676, Note_off_c, 4, 64, 64
1, 486755, Note_off_c, 2, 71, 64
1, 486756, Note_on_c, 2, 67, 127
1, 486862, Note_off_c, 2, 74, 64
1, 486864, Note_on_c, 2, 76, 127
1, 486864, Note_on_c, 2, 72, 127
1, 486890, Note_off_c, 2, 67, 64
1, 486969, Note_off_c, 2, 72, 64
1, 486969, Note_off_c, 2, 76, 64
1, 486972, Note_on_c, 2, 77, 127
1, 486972, Note_on_c, 2, 74, 127
1, 487072, Note_off_c, 2, 74, 64
1, 487073, Note_off_c, 2, 77, 64
1, 487073, Note_off_c, 4, 55, 64
1, 487075, Note_on_c, 3, 79, 127
1, 487076, Note_on_c, 4, 48, 124
1, 487076, Note_on_c, 2, 76, 127
1, 487180, Note_off_c, 2, 76, 64
1, 487180, Note_off_c, 3, 79, 64
1, 487183, Note_on_c, 3, 79, 127
1, 487183, Note_on_c, 2, 76, 127
1, 487184, Note_on_c, 4, 60, 127
1, 487211, Note_off_c, 4, 48, 64
1, 487287, Note_off_c, 2, 76, 64
1, 487288, Note_off_c, 3, 79, 64
1, 487290, Note_on_c, 3, 81, 127
1, 487291, Note_on_c, 4, 52, 126
1, 487318, Note_off_c, 4, 60, 64
1, 487343, Note_off_c, 3, 81, 64
1, 487345, Note_on_c, 3, 79, 127
1, 487392, Note_off_c, 3, 79, 64
1, 487394, Note_on_c, 4, 64, 127
1, 487394, Note_on_c, 2, 77, 127
1, 487416, Note_off_c, 4, 52, 64
1, 487437, Note_off_c, 2, 77, 64
1, 487441, Note_on_c, 2, 76, 127
1, 487485, Note_off_c, 2, 76, 64
1, 487487, Note_on_c, 2, 74, 127
1, 487488, Note_on_c, 2, 71, 127
1, 487488, Note_on_c, 4, 55, 126
1, 487515, Note_off_c, 4, 64, 64
1, 487699, Note_off_c, 2, 71, 64
1, 487700, Note_off_c, 2, 74, 64
1, 487702, Note_on_c, 2, 72, 127
1, 487703, Note_on_c, 2, 69, 127
1, 487807, Note_off_c, 2, 69, 64
1, 487807, Note_off_c, 2, 72, 64
1, 487810, Note_on_c, 2, 74, 127
1, 487810, Note_on_c, 2, 71, 127
1, 487912, Note_off_c, 2, 71, 64
1, 487913, Note_off_c, 2, 74, 64
1, 487913, Note_off_c, 4, 55, 64
1, 487916, Note_on_c, 2, 76, 127
1, 487916, Note_on_c, 2, 72, 127
1, 487916, Note_on_c, 4, 45, 124
1, 488021, Note_off_c, 2, 72, 64
1, 488021, Note_off_c, 2, 76, 64
1, 488024, Note_on_c, 2, 76, 127
1, 488024, Note_on_c, 2, 72, 127
1, 488025, Note_on_c, 4, 57, 126
1, 488050, Note_off_c, 4, 45, 64
1, 488128, Note_off_c, 2, 72, 64
1, 488129, Note_off_c, 2, 76, 64
1, 488131, Note_on_c, 2, 77, 127
1, 488132, Note_on_c, 4, 48, 124
1, 488158, Note_off_c, 4, 57, 64
1, 488183, Note_off_c, 2, 77, 64
1, 488187, Note_on_c, 2, 76, 127
1, 488231, Note_off_c, 2, 76, 64
1, 488235, Note_on_c, 2, 74, 127
1, 488236, Note_on_c, 4, 60, 127
1, 488257, Note_off_c, 4, 48, 64
1, 488278, Note_off_c, 2, 74, 64
1, 488282, Note_on_c, 2, 72, 127
1, 488328, Note_off_c, 2, 72, 64
1, 488330, Note_on_c, 2, 71, 127
1, 488331, Note_on_c, 4, 52, 126
1, 488331, Note_on_c, 2, 68, 127
1, 488358, Note_off_c, 4, 60, 64
1, 488435, Note_off_c, 2, 68, 64
1, 488439, Note_on_c, 4, 64, 127
1, 488542, Note_off_c, 2, 71, 64
1, 488546, Note_on_c, 2, 72, 127
1, 488547, Note_on_c, 2, 69, 127
1, 488572, Note_off_c, 4, 64, 64
1, 488649, Note_off_c, 2, 72, 64
1, 488649, Note_off_c, 2, 69, 64
1, 488652, Note_on_c, 2, 74, 127
1, 488652, Note_on_c, 2, 71, 127
1, 488754, Note_off_c, 2, 71, 64
1, 488755, Note_off_c, 2, 74, 64
1, 488755, Note_off_c, 4, 52, 64
1, 488758, Note_on_c, 2, 76, 127
1, 488758, Note_on_c, 2, 72, 127
1, 488759, Note_on_c, 4, 45, 124
1, 488862, Note_off_c, 2, 72, 64
1, 488862, Note_off_c, 2, 76, 64
1, 488865, Note_on_c, 2, 76, 127
1, 488866, Note_on_c, 2, 72, 127
1, 488866, Note_on_c, 4, 57, 126
1, 488893, Note_off_c, 4, 45, 64
1, 488970, Note_off_c, 2, 76, 64
1, 488970, Note_off_c, 2, 72, 64
1, 488973, Note_on_c, 2, 77, 127
1, 488973, Note_on_c, 4, 48, 124
1, 489000, Note_off_c, 4, 57, 64
1, 489027, Note_on_c, 2, 76, 127
1, 489035, Note_off_c, 2, 77, 64
1, 489075, Note_on_c, 2, 74, 127
1, 489076, Note_on_c, 4, 60, 127
1, 489082, Note_off_c, 2, 76, 64
1, 489097, Note_off_c, 4, 48, 64
1, 489120, Note_on_c, 2, 72, 127
1, 489128, Note_off_c, 2, 74, 64
1, 489168, Note_on_c, 2, 71, 127
1, 489169, Note_on_c, 4, 52, 126
1, 489169, Note_on_c, 2, 68, 127
1, 489178, Note_off_c, 2, 72, 64
1, 489199, Note_off_c, 4, 60, 64
1, 489401, Note_off_c, 2, 71, 64
1, 489401, Note_off_c, 2, 68, 64
1, 489404, Note_on_c, 2, 71, 127
1, 489456, Note_on_c, 2, 69, 127
1, 489467, Note_off_c, 2, 71, 64
1, 489507, Note_on_c, 2, 68, 127
1, 489513, Note_off_c, 2, 69, 64
1, 489559, Note_on_c, 2, 69, 127
1, 489567, Note_off_c, 2, 68, 64
1, 489609, Note_off_c, 4, 52, 64
1, 489611, Note_on_c, 2, 72, 127
1, 489612, Note_on_c, 4, 57, 126
1, 489622, Note_off_c, 2, 69, 64
1, 489720, Note_on_c, 4, 64, 127
1, 489720, Note_on_c, 4, 60, 127
1, 489745, Note_off_c, 4, 57, 64
1, 489816, Note_off_c, 2, 72, 64
1, 489822, Note_off_c, 4, 60, 64
1, 489823, Note_off_c, 4, 64, 64
1, 489825, Note_on_c, 2, 74, 127
1, 489826, Note_on_c, 4, 64, 127
1, 489826, Note_on_c, 4, 60, 127
1, 489878, Note_on_c, 2, 72, 127
1, 489886, Note_off_c, 2, 74, 64
1, 489926, Note_off_c, 4, 60, 64
1, 489926, Note_off_c, 4, 64, 64
1, 489929, Note_on_c, 2, 71, 127
1, 489929, Note_on_c, 4, 64, 127
1, 489930, Note_on_c, 4, 60, 127
1, 489936, Note_off_c, 2, 72, 64
1, 489980, Note_on_c, 2, 72, 127
1, 489988, Note_off_c, 2, 71, 64
1, 490029, Note_off_c, 4, 60, 64
1, 490029, Note_off_c, 4, 64, 64
1, 490032, Note_on_c, 2, 76, 127
1, 490032, Note_on_c, 4, 57, 126
1, 490041, Note_off_c, 2, 72, 64
1, 490140, Note_on_c, 4, 64, 127
1, 490140, Note_on_c, 4, 60, 127
1, 490166, Note_off_c, 4, 57, 64
1, 490239, Note_off_c, 2, 76, 64
1, 490245, Note_off_c, 4, 60, 64
1, 490245, Note_off_c, 4, 64, 64
1, 490248, Note_on_c, 4, 64, 127
1, 490248, Note_on_c, 4, 60, 127
1, 490248, Note_on_c, 2, 77, 127
1, 490300, Note_on_c, 2, 76, 127
1, 490310, Note_off_c, 2, 77, 64
1, 490350, Note_off_c, 4, 60, 64
1, 490351, Note_off_c, 4, 64, 64
1, 490351, Note_on_c, 2, 75, 127
1, 490352, Note_on_c, 4, 64, 127
1, 490352, Note_on_c, 4, 60, 127
1, 490362, Note_off_c, 2, 76, 64
1, 490403, Note_on_c, 2, 76, 127
1, 490411, Note_off_c, 2, 75, 64
1, 490453, Note_off_c, 4, 60, 64
1, 490453, Note_off_c, 4, 64, 64
1, 490456, Note_on_c, 1, 83, 127
1, 490457, Note_on_c, 4, 57, 126
1, 490465, Note_off_c, 2, 76, 64
1, 490509, Note_on_c, 3, 81, 127
1, 490517, Note_off_c, 1, 83, 64
1, 490559, Note_on_c, 3, 80, 127
1, 490560, Note_on_c, 4, 64, 127
1, 490560, Note_on_c, 4, 60, 127
1, 490568, Note_off_c, 3, 81, 64
1, 490585, Note_off_c, 4, 57, 64
1, 490612, Note_on_c, 3, 81, 127
1, 490621, Note_off_c, 3, 80, 64
1, 490665, Note_on_c, 1, 83, 127
1, 490665, Note_on_c, 4, 57, 126
1, 490673, Note_off_c, 3, 81, 64
1, 490691, Note_off_c, 4, 60, 64
1, 490691, Note_off_c, 4, 64, 64
1, 490715, Note_on_c, 3, 81, 127
1, 490722, Note_off_c, 1, 83, 64
1, 490766, Note_on_c, 3, 80, 127
1, 490767, Note_on_c, 4, 64, 127
1, 490767, Note_on_c, 4, 60, 127
1, 490775, Note_off_c, 3, 81, 64
1, 490792, Note_off_c, 4, 57, 64
1, 490821, Note_on_c, 3, 81, 127
1, 490831, Note_off_c, 3, 80, 64
1, 490871, Note_on_c, 1, 84, 127
1, 490872, Note_on_c, 4, 53, 126
1, 490880, Note_off_c, 3, 81, 64
1, 490899, Note_off_c, 4, 60, 64
1, 490899, Note_off_c, 4, 64, 64
1, 490979, Note_on_c, 4, 63, 127
1, 490979, Note_on_c, 4, 57, 126
1, 491006, Note_off_c, 4, 53, 64
1, 491083, Note_off_c, 4, 57, 64
1, 491083, Note_off_c, 4, 63, 64
1, 491084, Note_off_c, 1, 84, 64
1, 491086, Note_on_c, 3, 81, 127
1, 491087, Note_on_c, 4, 63, 127
1, 491087, Note_on_c, 4, 57, 126
1, 491191, Note_off_c, 4, 57, 64
1, 491192, Note_off_c, 4, 63, 64
1, 491192, Note_off_c, 3, 81, 64
1, 491193, Note_on_c, 1, 83, 127
1, 491194, Note_on_c, 4, 63, 127
1, 491194, Note_on_c, 4, 57, 126
1, 491298, Note_off_c, 1, 83, 64
1, 491302, Note_on_c, 1, 84, 127
1, 491303, Note_on_c, 4, 53, 126
1, 491328, Note_off_c, 4, 57, 64
1, 491328, Note_off_c, 4, 63, 64
1, 491406, Note_off_c, 1, 84, 64
1, 491410, Note_on_c, 4, 64, 127
1, 491410, Note_on_c, 1, 83, 127
1, 491411, Note_on_c, 4, 57, 126
1, 491436, Note_off_c, 4, 53, 64
1, 491514, Note_off_c, 1, 83, 64
1, 491516, Note_on_c, 3, 81, 127
1, 491517, Note_on_c, 4, 50, 126
1, 491544, Note_off_c, 4, 64, 64
1, 491544, Note_off_c, 4, 57, 64
1, 491622, Note_off_c, 3, 81, 64
1, 491624, Note_on_c, 3, 80, 127
1, 491624, Note_on_c, 4, 59, 127
1, 491625, Note_on_c, 4, 53, 126
1, 491650, Note_off_c, 4, 50, 64
1, 491729, Note_off_c, 3, 80, 64
1, 491731, Note_on_c, 3, 81, 127
1, 491732, Note_on_c, 4, 48, 124
1, 491757, Note_off_c, 4, 53, 64
1, 491758, Note_off_c, 4, 59, 64
1, 491839, Note_on_c, 2, 76, 127
1, 491839, Note_on_c, 4, 57, 126
1, 491840, Note_on_c, 4, 52, 126
1, 491866, Note_off_c, 3, 81, 64
1, 491866, Note_off_c, 4, 48, 64
1, 491945, Note_off_c, 4, 52, 64
1, 491946, Note_off_c, 4, 57, 64
1, 491946, Note_on_c, 2, 77, 127
1, 491947, Note_on_c, 4, 50, 126
1, 491972, Note_off_c, 2, 76, 64
1, 492053, Note_off_c, 4, 50, 64
1, 492053, Note_on_c, 2, 74, 127
1, 492054, Note_on_c, 4, 59, 127
1, 492054, Note_on_c, 4, 53, 126
1, 492080, Note_off_c, 2, 77, 64
1, 492160, Note_off_c, 4, 53, 64
1, 492161, Note_off_c, 4, 59, 64
1, 492161, Note_on_c, 2, 72, 127
1, 492162, Note_on_c, 4, 57, 126
1, 492162, Note_on_c, 4, 52, 126
1, 492187, Note_off_c, 2, 74, 64
1, 492266, Note_off_c, 4, 52, 64
1, 492266, Note_off_c, 4, 57, 64
1, 492269, Note_on_c, 4, 57, 126
1, 492269, Note_on_c, 4, 52, 126
1, 492367, Note_off_c, 2, 72, 64
1, 492372, Note_off_c, 4, 52, 64
1, 492373, Note_off_c, 4, 57, 64
1, 492375, Note_on_c, 4, 56, 126
1, 492376, Note_on_c, 2, 72, 127
1, 492376, Note_on_c, 4, 52, 126
1, 492426, Note_off_c, 2, 72, 64
1, 492427, Note_on_c, 2, 71, 127
1, 492468, Note_off_c, 4, 52, 64
1, 492468, Note_off_c, 4, 56, 64
1, 492470, Note_on_c, 4, 56, 126
1, 492471, Note_off_c, 2, 71, 64
1, 492471, Note_on_c, 4, 52, 126
1, 492472, Note_on_c, 2, 69, 127
1, 492518, Note_off_c, 2, 69, 64
1, 492519, Note_on_c, 2, 71, 127
1, 492575, Note_off_c, 4, 52, 64
1, 492576, Note_off_c, 4, 56, 64
1, 492578, Note_on_c, 4, 57, 126
1, 492578, Note_on_c, 2, 69, 127
1, 492579, Note_off_c, 2, 71, 64
1, 492579, Note_on_c, 4, 45, 124
1, 492806, Note_off_c, 2, 69, 64
1, 492809, Note_on_c, 2, 76, 127
1, 492809, Note_on_c, 2, 72, 127
1, 492913, Note_off_c, 2, 72, 64
1, 492913, Note_off_c, 2, 76, 64
1, 492916, Note_on_c, 2, 77, 127
1, 492916, Note_on_c, 2, 74, 127
1, 493017, Note_off_c, 2, 74, 64
1, 493017, Note_off_c, 2, 77, 64
1, 493020, Note_off_c, 4, 45, 64
1, 493020, Note_off_c, 4, 57, 64
1, 493021, Note_on_c, 3, 79, 127
1, 493021, Note_on_c, 2, 76, 127
1, 493022, Note_on_c, 4, 48, 124
1, 493125, Note_off_c, 2, 76, 64
1, 493126, Note_off_c, 3, 79, 64
1, 493127, Note_on_c, 3, 79, 127
1, 493127, Note_on_c, 2, 76, 127
1, 493128, Note_on_c, 4, 60, 127
1, 493155, Note_off_c, 4, 48, 64
1, 493234, Note_off_c, 2, 76, 64
1, 493234, Note_off_c, 3, 79, 64
1, 493237, Note_on_c, 3, 81, 127
1, 493237, Note_on_c, 4, 52, 126
1, 493263, Note_off_c, 4, 60, 64
1, 493289, Note_off_c, 3, 81, 64
1, 493292, Note_on_c, 3, 79, 127
1, 493338, Note_off_c, 3, 79, 64
1, 493340, Note_on_c, 4, 64, 127
1, 493340, Note_on_c, 2, 77, 127
1, 493364, Note_off_c, 4, 52, 64
1, 493383, Note_off_c, 2, 77, 64
1, 493388, Note_on_c, 2, 76, 127
1, 493432, Note_off_c, 2, 76, 64
1, 493436, Note_on_c, 2, 74, 127
1, 493436, Note_on_c, 2, 71, 127
1, 493437, Note_on_c, 4, 55, 126
1, 493462, Note_off_c, 4, 64, 64
1, 493540, Note_off_c, 2, 71, 64
1, 493542, Note_on_c, 2, 67, 127
1, 493648, Note_off_c, 2, 67, 64
1, 493648, Note_off_c, 2, 74, 64
1, 493651, Note_on_c, 2, 76, 127
1, 493651, Note_on_c, 2, 72, 127
1, 493755, Note_off_c, 2, 72, 64
1, 493756, Note_off_c, 2, 76, 64
1, 493758, Note_on_c, 2, 77, 127
1, 493759, Note_on_c, 2, 74, 127
1, 493863, Note_off_c, 2, 74, 64
1, 493863, Note_off_c, 2, 77, 64
1, 493864, Note_off_c, 4, 55, 64
1, 493864, Note_on_c, 3, 79, 127
1, 493865, Note_on_c, 2, 76, 127
1, 493865, Note_on_c, 4, 48, 124
1, 493970, Note_off_c, 2, 76, 64
1, 493971, Note_off_c, 3, 79, 64
1, 493973, Note_on_c, 3, 79, 127
1, 493974, Note_on_c, 2, 76, 127
1, 493974, Note_on_c, 4, 60, 127
1, 494000, Note_off_c, 4, 48, 64
1, 494077, Note_off_c, 2, 76, 64
1, 494077, Note_off_c, 3, 79, 64
1, 494080, Note_on_c, 4, 52, 126
1, 494080, Note_on_c, 3, 81, 127
1, 494108, Note_off_c, 4, 60, 64
1, 494133, Note_off_c, 3, 81, 64
1, 494135, Note_on_c, 3, 79, 127
1, 494181, Note_off_c, 3, 79, 64
1, 494183, Note_on_c, 2, 77, 127
1, 494183, Note_on_c, 4, 64, 127
1, 494207, Note_off_c, 4, 52, 64
1, 494228, Note_off_c, 2, 77, 64
1, 494230, Note_on_c, 2, 76, 127
1, 494274, Note_off_c, 2, 76, 64
1, 494276, Note_on_c, 2, 74, 127
1, 494276, Note_on_c, 2, 71, 127
1, 494277, Note_on_c, 4, 55, 126
1, 494304, Note_off_c, 4, 64, 64
1, 494488, Note_off_c, 2, 71, 64
1, 494488, Note_off_c, 2, 74, 64
1, 494491, Note_on_c, 2, 72, 127
1, 494491, Note_on_c, 2, 69, 127
1, 494595, Note_off_c, 2, 69, 64
1, 494596, Note_off_c, 2, 72, 64
1, 494599, Note_on_c, 2, 74, 127
1, 494599, Note_on_c, 2, 71, 127
1, 494703, Note_off_c, 2, 71, 64
1, 494703, Note_off_c, 2, 74, 64
1, 494704, Note_off_c, 4, 55, 64
1, 494706, Note_on_c, 2, 76, 127
1, 494706, Note_on_c, 2, 72, 127
1, 494707, Note_on_c, 4, 45, 124
1, 494811, Note_off_c, 2, 72, 64
1, 494812, Note_off_c, 2, 76, 64
1, 494815, Note_on_c, 2, 76, 127
1, 494815, Note_on_c, 2, 72, 127
1, 494816, Note_on_c, 4, 57, 126
1, 494841, Note_off_c, 4, 45, 64
1, 494918, Note_off_c, 2, 72, 64
1, 494918, Note_off_c, 2, 76, 64
1, 494921, Note_on_c, 2, 77, 127
1, 494921, Note_on_c, 4, 48, 124
1, 494949, Note_off_c, 4, 57, 64
1, 494974, Note_off_c, 2, 77, 64
1, 494976, Note_on_c, 2, 76, 127
1, 495022, Note_off_c, 2, 76, 64
1, 495024, Note_on_c, 4, 60, 127
1, 495024, Note_on_c, 2, 74, 127
1, 495048, Note_off_c, 4, 48, 64
1, 495071, Note_off_c, 2, 74, 64
1, 495072, Note_on_c, 2, 72, 127
1, 495119, Note_off_c, 2, 72, 64
1, 495121, Note_on_c, 2, 71, 127
1, 495121, Note_on_c, 2, 68, 127
1, 495122, Note_on_c, 4, 52, 126
1, 495149, Note_off_c, 4, 60, 64
1, 495227, Note_off_c, 2, 68, 64
1, 495229, Note_on_c, 4, 64, 127
1, 495335, Note_off_c, 4, 64, 64
1, 495335, Note_off_c, 2, 71, 64
1, 495336, Note_on_c, 2, 72, 127
1, 495336, Note_on_c, 2, 69, 127
1, 495440, Note_off_c, 2, 69, 64
1, 495441, Note_off_c, 2, 72, 64
1, 495444, Note_on_c, 2, 74, 127
1, 495444, Note_on_c, 2, 71, 127
1, 495548, Note_off_c, 2, 71, 64
1, 495548, Note_off_c, 2, 74, 64
1, 495549, Note_off_c, 4, 52, 64
1, 495551, Note_on_c, 2, 76, 127
1, 495552, Note_on_c, 2, 72, 127
1, 495552, Note_on_c, 4, 45, 124
1, 495656, Note_off_c, 2, 76, 64
1, 495656, Note_off_c, 2, 72, 64
1, 495659, Note_on_c, 2, 76, 127
1, 495659, Note_on_c, 2, 72, 127
1, 495660, Note_on_c, 4, 57, 126
1, 495685, Note_off_c, 4, 45, 64
1, 495764, Note_off_c, 2, 72, 64
1, 495765, Note_off_c, 2, 76, 64
1, 495767, Note_on_c, 2, 77, 127
1, 495768, Note_on_c, 4, 48, 124
1, 495795, Note_off_c, 4, 57, 64
1, 495818, Note_off_c, 2, 77, 64
1, 495820, Note_on_c, 2, 76, 127
1, 495864, Note_off_c, 2, 76, 64
1, 495866, Note_on_c, 2, 74, 127
1, 495866, Note_on_c, 4, 60, 127
1, 495892, Note_off_c, 4, 48, 64
1, 495913, Note_off_c, 2, 74, 64
1, 495917, Note_on_c, 2, 72, 127
1, 495963, Note_off_c, 2, 72, 64
1, 495967, Note_on_c, 2, 71, 127
1, 495967, Note_on_c, 2, 68, 127
1, 495968, Note_on_c, 4, 52, 126
1, 495995, Note_off_c, 4, 60, 64
1, 496184, Note_off_c, 2, 71, 64
1, 496191, Note_off_c, 2, 68, 64
1, 496193, Note_on_c, 2, 71, 127
1, 496247, Note_on_c, 2, 69, 127
1, 496255, Note_off_c, 2, 71, 64
1, 496295, Note_on_c, 2, 68, 127
1, 496305, Note_off_c, 2, 69, 64
1, 496347, Note_on_c, 2, 69, 127
1, 496356, Note_off_c, 2, 68, 64
1, 496397, Note_off_c, 4, 52, 64
1, 496401, Note_on_c, 2, 72, 127
1, 496401, Note_on_c, 4, 57, 126
1, 496409, Note_off_c, 2, 69, 64
1, 496507, Note_on_c, 4, 64, 127
1, 496508, Note_on_c, 4, 60, 127
1, 496535, Note_off_c, 4, 57, 64
1, 496606, Note_off_c, 2, 72, 64
1, 496612, Note_off_c, 4, 64, 64
1, 496612, Note_off_c, 4, 60, 64
1, 496615, Note_on_c, 2, 74, 127
1, 496615, Note_on_c, 4, 64, 127
1, 496616, Note_on_c, 4, 60, 127
1, 496668, Note_on_c, 2, 72, 127
1, 496675, Note_off_c, 2, 74, 64
1, 496717, Note_off_c, 4, 60, 64
1, 496718, Note_off_c, 4, 64, 64
1, 496720, Note_on_c, 2, 71, 127
1, 496721, Note_on_c, 4, 64, 127
1, 496721, Note_on_c, 4, 60, 127
1, 496729, Note_off_c, 2, 72, 64
1, 496773, Note_on_c, 2, 72, 127
1, 496781, Note_off_c, 2, 71, 64
1, 496823, Note_off_c, 4, 60, 64
1, 496824, Note_off_c, 4, 64, 64
1, 496824, Note_on_c, 2, 76, 127
1, 496824, Note_on_c, 4, 57, 126
1, 496835, Note_off_c, 2, 72, 64
1, 496932, Note_on_c, 4, 64, 127
1, 496933, Note_on_c, 4, 60, 127
1, 496958, Note_off_c, 4, 57, 64
1, 497030, Note_off_c, 2, 76, 64
1, 497037, Note_off_c, 4, 60, 64
1, 497038, Note_off_c, 4, 64, 64
1, 497040, Note_on_c, 2, 77, 127
1, 497040, Note_on_c, 4, 64, 127
1, 497041, Note_on_c, 4, 60, 127
1, 497092, Note_on_c, 2, 76, 127
1, 497100, Note_off_c, 2, 77, 64
1, 497140, Note_off_c, 4, 60, 64
1, 497140, Note_off_c, 4, 64, 64
1, 497143, Note_on_c, 2, 75, 127
1, 497143, Note_on_c, 4, 64, 127
1, 497144, Note_on_c, 4, 60, 127
1, 497151, Note_off_c, 2, 76, 64
1, 497194, Note_on_c, 2, 76, 127
1, 497201, Note_off_c, 2, 75, 64
1, 497242, Note_off_c, 4, 60, 64
1, 497242, Note_off_c, 4, 64, 64
1, 497245, Note_on_c, 1, 83, 127
1, 497245, Note_on_c, 4, 57, 126
1, 497253, Note_off_c, 2, 76, 64
1, 497294, Note_on_c, 3, 81, 127
1, 497303, Note_off_c, 1, 83, 64
1, 497347, Note_on_c, 3, 80, 127
1, 497347, Note_on_c, 4, 64, 127
1, 497348, Note_on_c, 4, 60, 127
1, 497354, Note_off_c, 3, 81, 64
1, 497372, Note_off_c, 4, 57, 64
1, 497398, Note_on_c, 3, 81, 127
1, 497406, Note_off_c, 3, 80, 64
1, 497450, Note_on_c, 4, 57, 126
1, 497450, Note_on_c, 1, 83, 127
1, 497459, Note_off_c, 3, 81, 64
1, 497476, Note_off_c, 4, 60, 64
1, 497476, Note_off_c, 4, 64, 64
1, 497500, Note_on_c, 3, 81, 127
1, 497510, Note_off_c, 1, 83, 64
1, 497554, Note_on_c, 3, 80, 127
1, 497554, Note_on_c, 4, 64, 127
1, 497555, Note_on_c, 4, 60, 127
1, 497563, Note_off_c, 3, 81, 64
1, 497580, Note_off_c, 4, 57, 64
1, 497606, Note_on_c, 3, 81, 127
1, 497615, Note_off_c, 3, 80, 64
1, 497657, Note_on_c, 1, 84, 127
1, 497657, Note_on_c, 4, 53, 126
1, 497665, Note_off_c, 3, 81, 64
1, 497683, Note_off_c, 4, 60, 64
1, 497683, Note_off_c, 4, 64, 64
1, 497764, Note_on_c, 4, 63, 127
1, 497765, Note_on_c, 4, 57, 126
1, 497790, Note_off_c, 4, 53, 64
1, 497868, Note_off_c, 4, 57, 64
1, 497869, Note_off_c, 4, 63, 64
1, 497869, Note_off_c, 1, 84, 64
1, 497870, Note_on_c, 3, 81, 127
1, 497870, Note_on_c, 4, 63, 127
1, 497871, Note_on_c, 4, 57, 126
1, 497975, Note_off_c, 4, 57, 64
1, 497976, Note_off_c, 4, 63, 64
1, 497976, Note_off_c, 3, 81, 64
1, 497978, Note_on_c, 1, 83, 127
1, 497979, Note_on_c, 4, 63, 127
1, 497979, Note_on_c, 4, 57, 126
1, 498082, Note_off_c, 1, 83, 64
1, 498084, Note_on_c, 1, 84, 127
1, 498084, Note_on_c, 4, 52, 126
1, 498112, Note_off_c, 4, 57, 64
1, 498112, Note_off_c, 4, 63, 64
1, 498190, Note_off_c, 1, 84, 64
1, 498192, Note_on_c, 1, 83, 127
1, 498192, Note_on_c, 4, 64, 127
1, 498192, Note_on_c, 4, 57, 126
1, 498219, Note_off_c, 4, 52, 64
1, 498296, Note_off_c, 1, 83, 64
1, 498300, Note_on_c, 3, 81, 127
1, 498300, Note_on_c, 4, 50, 126
1, 498326, Note_off_c, 4, 57, 64
1, 498326, Note_off_c, 4, 64, 64
1, 498404, Note_off_c, 3, 81, 64
1, 498406, Note_on_c, 3, 80, 127
1, 498406, Note_on_c, 4, 59, 127
1, 498407, Note_on_c, 4, 53, 126
1, 498433, Note_off_c, 4, 50, 64
1, 498512, Note_off_c, 3, 80, 64
1, 498514, Note_on_c, 3, 81, 127
1, 498515, Note_on_c, 4, 48, 124
1, 498540, Note_off_c, 4, 59, 64
1, 498540, Note_off_c, 4, 53, 64
1, 498620, Note_off_c, 3, 81, 64
1, 498622, Note_on_c, 2, 76, 127
1, 498622, Note_on_c, 4, 57, 126
1, 498623, Note_on_c, 4, 52, 126
1, 498648, Note_off_c, 4, 48, 64
1, 498728, Note_off_c, 4, 52, 64
1, 498729, Note_off_c, 4, 57, 64
1, 498729, Note_off_c, 2, 76, 64
1, 498731, Note_on_c, 2, 77, 127
1, 498732, Note_on_c, 4, 50, 126
1, 498836, Note_off_c, 4, 50, 64
1, 498836, Note_off_c, 2, 77, 64
1, 498839, Note_on_c, 2, 74, 127
1, 498839, Note_on_c, 4, 59, 127
1, 498840, Note_on_c, 4, 53, 126
1, 498945, Note_off_c, 4, 53, 64
1, 498946, Note_off_c, 4, 59, 64
1, 498946, Note_off_c, 2, 74, 64
1, 498947, Note_on_c, 2, 72, 127
1, 498947, Note_on_c, 4, 57, 126
1, 498948, Note_on_c, 4, 52, 126
1, 499052, Note_off_c, 4, 57, 64
1, 499052, Note_off_c, 4, 52, 64
1, 499055, Note_on_c, 4, 57, 126
1, 499055, Note_on_c, 4, 52, 126
1, 499159, Note_off_c, 4, 52, 64
1, 499160, Note_off_c, 4, 57, 64
1, 499160, Note_off_c, 2, 72, 64
1, 499162, Note_on_c, 4, 56, 126
1, 499163, Note_on_c, 2, 72, 127
1, 499163, Note_on_c, 4, 52, 126
1, 499200, Note_on_c, 2, 71, 127
1, 499201, Note_off_c, 2, 72, 64
1, 499230, Note_on_c, 2, 72, 127
1, 499234, Note_off_c, 2, 71, 64
1, 499269, Note_off_c, 2, 72, 64
1, 499269, Note_off_c, 4, 52, 64
1, 499270, Note_off_c, 4, 56, 64
1, 499272, Note_on_c, 2, 71, 127
1, 499272, Note_on_c, 4, 56, 126
1, 499273, Note_on_c, 4, 52, 126
1, 499308, Note_on_c, 2, 69, 127
1, 499310, Note_off_c, 2, 71, 64
1, 499344, Note_on_c, 2, 71, 127
1, 499345, Note_off_c, 2, 69, 64
1, 499381, Note_off_c, 2, 71, 64
1, 499383, Note_off_c, 4, 52, 64
1, 499383, Note_off_c, 4, 56, 64
1, 499388, Note_on_c, 4, 57, 126
1, 499388, Note_on_c, 2, 69, 127
1, 499389, Note_on_c, 4, 45, 124
1, 499617, Note_off_c, 2, 69, 64
1, 499619, Note_on_c, 3, 81, 127
1, 499620, Note_on_c, 2, 69, 127
1, 499724, Note_off_c, 3, 81, 64
1, 499724, Note_off_c, 2, 69, 64
1, 499725, Note_on_c, 1, 83, 127
1, 499725, Note_on_c, 2, 71, 127
1, 499820, Note_off_c, 4, 45, 64
1, 499828, Note_off_c, 2, 71, 64
1, 499828, Note_off_c, 1, 83, 64
1, 499828, Note_on_c, 4, 45, 124
1, 499829, Note_on_c, 2, 73, 127
1, 499843, Note_on_c, 4, 49, 126
1, 499847, Note_on_c, 1, 85, 127
1, 499856, Note_off_c, 4, 57, 64
1, 499857, Note_on_c, 4, 52, 126
1, 499883, Note_on_c, 4, 57, 126
1, 499890, Note_off_c, 4, 45, 64
1, 499922, Note_off_c, 4, 49, 64
1, 499932, Note_off_c, 4, 57, 64
1, 499936, Note_on_c, 4, 57, 126
1, 500034, Note_off_c, 4, 57, 64
1, 500043, Note_off_c, 2, 73, 64
1, 500044, Note_on_c, 3, 81, 127
1, 500044, Note_on_c, 2, 69, 127
1, 500045, Note_on_c, 4, 57, 126
1, 500059, Note_off_c, 1, 85, 64
1, 500139, Note_off_c, 4, 57, 64
1, 500148, Note_off_c, 2, 69, 64
1, 500148, Note_off_c, 3, 81, 64
1, 500148, Note_on_c, 1, 83, 127
1, 500148, Note_on_c, 2, 71, 127
1, 500149, Note_on_c, 4, 57, 126
1, 500237, Note_off_c, 4, 52, 64
1, 500252, Note_on_c, 4, 45, 124
1, 500253, Note_off_c, 2, 71, 64
1, 500253, Note_off_c, 1, 83, 64
1, 500254, Note_on_c, 2, 73, 127
1, 500265, Note_on_c, 4, 49, 126
1, 500271, Note_on_c, 1, 85, 127
1, 500280, Note_on_c, 4, 52, 126
1, 500289, Note_off_c, 4, 57, 64
1, 500306, Note_on_c, 4, 57, 126
1, 500316, Note_off_c, 4, 45, 64
1, 500346, Note_off_c, 4, 49, 64
1, 500355, Note_off_c, 4, 57, 64
1, 500360, Note_off_c, 2, 73, 64
1, 500360, Note_on_c, 1, 83, 127
1, 500361, Note_on_c, 2, 71, 127
1, 500361, Note_on_c, 4, 57, 126
1, 500379, Note_off_c, 1, 85, 64
1, 500458, Note_off_c, 4, 57, 64
1, 500467, Note_off_c, 2, 71, 64
1, 500468, Note_off_c, 1, 83, 64
1, 500468, Note_on_c, 3, 81, 127
1, 500468, Note_on_c, 2, 69, 127
1, 500469, Note_on_c, 4, 57, 126
1, 500562, Note_off_c, 4, 57, 64
1, 500562, Note_off_c, 2, 69, 64
1, 500570, Note_off_c, 3, 81, 64
1, 500571, Note_on_c, 3, 80, 127
1, 500571, Note_on_c, 2, 69, 127
1, 500572, Note_on_c, 4, 57, 126
1, 500659, Note_off_c, 4, 52, 64
1, 500675, Note_off_c, 2, 69, 64
1, 500675, Note_on_c, 4, 38, 124
1, 500676, Note_off_c, 3, 80, 64
1, 500676, Note_on_c, 1, 78, 127
1, 500676, Note_on_c, 4, 66, 127
1, 500692, Note_on_c, 4, 42, 124
1, 500709, Note_on_c, 4, 45, 124
1, 500711, Note_off_c, 4, 57, 64
1, 500728, Note_on_c, 4, 50, 126
1, 500736, Note_off_c, 4, 38, 64
1, 500772, Note_off_c, 4, 42, 64
1, 500778, Note_off_c, 4, 50, 64
1, 500782, Note_off_c, 4, 66, 64
1, 500783, Note_off_c, 1, 78, 64
1, 500783, Note_on_c, 3, 80, 127
1, 500784, Note_on_c, 2, 69, 127
1, 500784, Note_on_c, 4, 50, 126
1, 500870, Note_off_c, 4, 45, 64
1, 500880, Note_off_c, 2, 69, 64
1, 500890, Note_off_c, 3, 80, 64
1, 500890, Note_on_c, 4, 39, 124
1, 500891, Note_on_c, 3, 81, 127
1, 500891, Note_on_c, 2, 69, 127
1, 500907, Note_on_c, 4, 42, 124
1, 500916, Note_off_c, 4, 50, 64
1, 500923, Note_on_c, 4, 45, 124
1, 500940, Note_on_c, 4, 51, 126
1, 500948, Note_off_c, 4, 39, 64
1, 500983, Note_off_c, 4, 42, 64
1, 500988, Note_off_c, 4, 51, 64
1, 500990, Note_off_c, 2, 69, 64
1, 500991, Note_off_c, 3, 81, 64
1, 500991, Note_on_c, 1, 83, 127
1, 500992, Note_on_c, 2, 71, 127
1, 500992, Note_on_c, 4, 51, 126
1, 501075, Note_off_c, 4, 45, 64
1, 501092, Note_on_c, 4, 40, 124
1, 501093, Note_off_c, 2, 71, 64
1, 501093, Note_off_c, 1, 83, 64
1, 501094, Note_on_c, 3, 80, 127
1, 501094, Note_on_c, 2, 69, 127
1, 501109, Note_on_c, 4, 44, 124
1, 501119, Note_off_c, 4, 51, 64
1, 501127, Note_on_c, 4, 47, 124
1, 501146, Note_on_c, 4, 52, 126
1, 501154, Note_off_c, 4, 40, 64
1, 501190, Note_off_c, 4, 44, 64
1, 501196, Note_off_c, 4, 52, 64
1, 501200, Note_off_c, 2, 69, 64
1, 501200, Note_off_c, 3, 80, 64
1, 501201, Note_on_c, 2, 76, 127
1, 501201, Note_on_c, 4, 64, 127
1, 501202, Note_on_c, 4, 52, 126
1, 501298, Note_off_c, 4, 52, 64
1, 501305, Note_off_c, 4, 64, 64
1, 501306, Note_off_c, 2, 76, 64
1, 501306, Note_on_c, 3, 81, 127
1, 501307, Note_on_c, 2, 69, 127
1, 501307, Note_on_c, 4, 52, 126
1, 501397, Note_off_c, 4, 52, 64
1, 501407, Note_off_c, 2, 69, 64
1, 501408, Note_off_c, 3, 81, 64
1, 501408, Note_on_c, 1, 83, 127
1, 501408, Note_on_c, 2, 71, 127
1, 501409, Note_on_c, 4, 52, 126
1, 501497, Note_off_c, 4, 47, 64
1, 501505, Note_off_c, 2, 71, 64
1, 501505, Note_on_c, 4, 45, 124
1, 501506, Note_off_c, 1, 83, 64
1, 501506, Note_on_c, 2, 73, 127
1, 501515, Note_off_c, 4, 52, 64
1, 501522, Note_on_c, 4, 49, 126
1, 501523, Note_on_c, 1, 85, 127
1, 501540, Note_on_c, 4, 52, 126
1, 501560, Note_on_c, 4, 57, 126
1, 501567, Note_off_c, 4, 45, 64
1, 501604, Note_off_c, 4, 49, 64
1, 501610, Note_off_c, 4, 57, 64
1, 501613, Note_on_c, 4, 57, 126
1, 501711, Note_off_c, 4, 57, 64
1, 501719, Note_off_c, 2, 73, 64
1, 501720, Note_on_c, 3, 81, 127
1, 501720, Note_on_c, 2, 69, 127
1, 501720, Note_on_c, 4, 57, 126
1, 501736, Note_off_c, 1, 85, 64
1, 501813, Note_off_c, 4, 57, 64
1, 501821, Note_off_c, 2, 69, 64
1, 501822, Note_off_c, 3, 81, 64
1, 501822, Note_on_c, 1, 83, 127
1, 501823, Note_on_c, 2, 71, 127
1, 501823, Note_on_c, 4, 57, 126
1, 501913, Note_off_c, 4, 52, 64
1, 501921, Note_on_c, 4, 45, 124
1, 501922, Note_off_c, 1, 83, 64
1, 501922, Note_off_c, 2, 71, 64
1, 501922, Note_on_c, 2, 73, 127
1, 501938, Note_on_c, 4, 49, 126
1, 501940, Note_on_c, 1, 85, 127
1, 501957, Note_on_c, 4, 52, 126
1, 501958, Note_off_c, 4, 57, 64
1, 501977, Note_on_c, 4, 57, 126
1, 501983, Note_off_c, 4, 45, 64
1, 502020, Note_off_c, 4, 49, 64
1, 502025, Note_off_c, 4, 57, 64
1, 502029, Note_off_c, 2, 73, 64
1, 502030, Note_on_c, 1, 83, 127
1, 502030, Note_on_c, 2, 71, 127
1, 502031, Note_on_c, 4, 57, 126
1, 502046, Note_off_c, 1, 85, 64
1, 502127, Note_off_c, 4, 57, 64
1, 502135, Note_off_c, 2, 71, 64
1, 502135, Note_off_c, 1, 83, 64
1, 502136, Note_on_c, 3, 81, 127
1, 502136, Note_on_c, 2, 69, 127
1, 502137, Note_on_c, 4, 57, 126
1, 502229, Note_off_c, 4, 57, 64
1, 502229, Note_off_c, 2, 69, 64
1, 502237, Note_off_c, 3, 81, 64
1, 502238, Note_on_c, 3, 80, 127
1, 502238, Note_on_c, 2, 69, 127
1, 502239, Note_on_c, 4, 57, 126
1, 502330, Note_off_c, 4, 52, 64
1, 502338, Note_off_c, 2, 69, 64
1, 502338, Note_on_c, 4, 38, 124
1, 502339, Note_off_c, 3, 80, 64
1, 502339, Note_on_c, 1, 78, 127
1, 502340, Note_on_c, 4, 66, 127
1, 502357, Note_on_c, 4, 42, 124
1, 502373, Note_on_c, 4, 45, 124
1, 502374, Note_off_c, 4, 57, 64
1, 502392, Note_on_c, 4, 50, 126
1, 502400, Note_off_c, 4, 38, 64
1, 502437, Note_off_c, 4, 42, 64
1, 502442, Note_off_c, 4, 50, 64
1, 502446, Note_off_c, 4, 66, 64
1, 502446, Note_off_c, 1, 78, 64
1, 502447, Note_on_c, 1, 83, 127
1, 502447, Note_on_c, 2, 71, 127
1, 502448, Note_on_c, 4, 50, 126
1, 502535, Note_off_c, 4, 45, 64
1, 502552, Note_off_c, 2, 71, 64
1, 502552, Note_on_c, 4, 40, 124
1, 502553, Note_off_c, 1, 83, 64
1, 502553, Note_on_c, 3, 80, 127
1, 502553, Note_on_c, 2, 69, 127
1, 502569, Note_on_c, 4, 44, 124
1, 502578, Note_off_c, 4, 50, 64
1, 502586, Note_on_c, 4, 47, 124
1, 502604, Note_on_c, 4, 52, 126
1, 502611, Note_off_c, 4, 40, 64
1, 502646, Note_off_c, 4, 44, 64
1, 502651, Note_off_c, 4, 52, 64
1, 502655, Note_off_c, 2, 69, 64
1, 502656, Note_off_c, 3, 80, 64
1, 502656, Note_on_c, 2, 76, 127
1, 502656, Note_on_c, 4, 64, 127
1, 502657, Note_on_c, 4, 52, 126
1, 502740, Note_off_c, 4, 47, 64
1, 502757, Note_on_c, 4, 45, 124
1, 502758, Note_off_c, 4, 64, 64
1, 502758, Note_off_c, 2, 76, 64
1, 502759, Note_on_c, 3, 81, 127
1, 502759, Note_on_c, 2, 69, 127
1, 502785, Note_off_c, 4, 52, 64
1, 502964, Note_off_c, 2, 69, 64
1, 502964, Note_off_c, 3, 81, 64
1, 502974, Note_on_c, 3, 81, 127
1, 502974, Note_on_c, 2, 69, 127
1, 503079, Note_off_c, 2, 69, 64
1, 503079, Note_off_c, 3, 81, 64
1, 503080, Note_on_c, 1, 83, 127
1, 503080, Note_on_c, 2, 71, 127
1, 503175, Note_off_c, 4, 45, 64
1, 503184, Note_off_c, 2, 71, 64
1, 503184, Note_off_c, 1, 83, 64
1, 503184, Note_on_c, 4, 45, 124
1, 503185, Note_on_c, 2, 73, 127
1, 503197, Note_on_c, 4, 49, 126
1, 503203, Note_on_c, 1, 85, 127
1, 503212, Note_on_c, 4, 52, 126
1, 503237, Note_on_c, 4, 57, 126
1, 503247, Note_off_c, 4, 45, 64
1, 503278, Note_off_c, 4, 49, 64
1, 503289, Note_off_c, 4, 57, 64
1, 503291, Note_on_c, 4, 57, 126
1, 503391, Note_off_c, 4, 57, 64
1, 503399, Note_off_c, 2, 73, 64
1, 503399, Note_on_c, 3, 81, 127
1, 503400, Note_on_c, 2, 69, 127
1, 503400, Note_on_c, 4, 57, 126
1, 503416, Note_off_c, 1, 85, 64
1, 503495, Note_off_c, 4, 57, 64
1, 503504, Note_off_c, 2, 69, 64
1, 503505, Note_off_c, 3, 81, 64
1, 503505, Note_on_c, 1, 83, 127
1, 503506, Note_on_c, 2, 71, 127
1, 503506, Note_on_c, 4, 57, 126
1, 503589, Note_off_c, 4, 52, 64
1, 503604, Note_off_c, 2, 71, 64
1, 503604, Note_on_c, 4, 45, 124
1, 503605, Note_off_c, 1, 83, 64
1, 503605, Note_on_c, 2, 73, 127
1, 503619, Note_on_c, 4, 49, 126
1, 503624, Note_on_c, 1, 85, 127
1, 503634, Note_on_c, 4, 52, 126
1, 503641, Note_off_c, 4, 57, 64
1, 503659, Note_on_c, 4, 57, 126
1, 503666, Note_off_c, 4, 45, 64
1, 503699, Note_off_c, 4, 49, 64
1, 503709, Note_off_c, 4, 57, 64
1, 503712, Note_off_c, 2, 73, 64
1, 503713, Note_on_c, 1, 83, 127
1, 503713, Note_on_c, 2, 71, 127
1, 503714, Note_on_c, 4, 57, 126
1, 503732, Note_off_c, 1, 85, 64
1, 503811, Note_off_c, 4, 57, 64
1, 503821, Note_off_c, 2, 71, 64
1, 503821, Note_off_c, 1, 83, 64
1, 503822, Note_on_c, 3, 81, 127
1, 503822, Note_on_c, 2, 69, 127
1, 503823, Note_on_c, 4, 57, 126
1, 503913, Note_off_c, 4, 57, 64
1, 503914, Note_off_c, 2, 69, 64
1, 503922, Note_off_c, 3, 81, 64
1, 503922, Note_on_c, 3, 80, 127
1, 503923, Note_on_c, 2, 69, 127
1, 503923, Note_on_c, 4, 57, 126
1, 504006, Note_off_c, 4, 52, 64
1, 504022, Note_on_c, 4, 38, 124
1, 504023, Note_off_c, 3, 80, 64
1, 504023, Note_off_c, 2, 69, 64
1, 504023, Note_on_c, 1, 78, 127
1, 504024, Note_on_c, 4, 66, 127
1, 504040, Note_on_c, 4, 42, 124
1, 504057, Note_on_c, 4, 45, 124
1, 504058, Note_off_c, 4, 57, 64
1, 504076, Note_on_c, 4, 50, 126
1, 504084, Note_off_c, 4, 38, 64
1, 504122, Note_off_c, 4, 42, 64
1, 504128, Note_off_c, 4, 50, 64
1, 504132, Note_off_c, 4, 66, 64
1, 504132, Note_off_c, 1, 78, 64
1, 504133, Note_on_c, 3, 80, 127
1, 504133, Note_on_c, 2, 69, 127
1, 504134, Note_on_c, 4, 50, 126
1, 504220, Note_off_c, 4, 45, 64
1, 504230, Note_off_c, 2, 69, 64
1, 504238, Note_off_c, 3, 80, 64
1, 504238, Note_on_c, 4, 39, 124
1, 504239, Note_on_c, 3, 81, 127
1, 504239, Note_on_c, 2, 69, 127
1, 504255, Note_on_c, 4, 42, 124
1, 504264, Note_off_c, 4, 50, 64
1, 504272, Note_on_c, 4, 45, 124
1, 504289, Note_on_c, 4, 51, 126
1, 504297, Note_off_c, 4, 39, 64
1, 504330, Note_off_c, 4, 42, 64
1, 504337, Note_off_c, 4, 51, 64
1, 504339, Note_off_c, 2, 69, 64
1, 504340, Note_off_c, 3, 81, 64
1, 504340, Note_on_c, 1, 83, 127
1, 504341, Note_on_c, 2, 71, 127
1, 504341, Note_on_c, 4, 51, 126
1, 504422, Note_off_c, 4, 45, 64
1, 504438, Note_off_c, 2, 71, 64
1, 504438, Note_on_c, 4, 40, 124
1, 504439, Note_off_c, 1, 83, 64
1, 504439, Note_on_c, 3, 80, 127
1, 504439, Note_on_c, 2, 69, 127
1, 504454, Note_on_c, 4, 44, 124
1, 504464, Note_off_c, 4, 51, 64
1, 504471, Note_on_c, 4, 47, 124
1, 504489, Note_on_c, 4, 52, 126
1, 504496, Note_off_c, 4, 40, 64
1, 504533, Note_off_c, 4, 44, 64
1, 504538, Note_off_c, 4, 52, 64
1, 504542, Note_off_c, 2, 69, 64
1, 504542, Note_off_c, 3, 80, 64
1, 504543, Note_on_c, 2, 76, 127
1, 504543, Note_on_c, 4, 64, 127
1, 504544, Note_on_c, 4, 52, 126
1, 504642, Note_off_c, 4, 52, 64
1, 504652, Note_off_c, 4, 64, 64
1, 504652, Note_off_c, 2, 76, 64
1, 504653, Note_on_c, 3, 81, 127
1, 504653, Note_on_c, 2, 69, 127
1, 504654, Note_on_c, 4, 52, 126
1, 504742, Note_off_c, 4, 52, 64
1, 504751, Note_off_c, 2, 69, 64
1, 504752, Note_off_c, 3, 81, 64
1, 504752, Note_on_c, 1, 83, 127
1, 504753, Note_on_c, 2, 71, 127
1, 504753, Note_on_c, 4, 52, 126
1, 504842, Note_off_c, 4, 52, 64
1, 504842, Note_off_c, 4, 47, 64
1, 504851, Note_off_c, 2, 71, 64
1, 504851, Note_off_c, 1, 83, 64
1, 504851, Note_on_c, 4, 45, 124
1, 504852, Note_on_c, 2, 73, 127
1, 504868, Note_on_c, 1, 85, 127
1, 504868, Note_on_c, 4, 49, 126
1, 504886, Note_on_c, 4, 52, 126
1, 504905, Note_on_c, 4, 57, 126
1, 504913, Note_off_c, 4, 45, 64
1, 504948, Note_off_c, 4, 49, 64
1, 504955, Note_off_c, 4, 57, 64
1, 504959, Note_on_c, 4, 57, 126
1, 505055, Note_off_c, 4, 57, 64
1, 505064, Note_off_c, 2, 73, 64
1, 505065, Note_on_c, 3, 81, 127
1, 505065, Note_on_c, 2, 69, 127
1, 505066, Note_on_c, 4, 57, 126
1, 505081, Note_off_c, 1, 85, 64
1, 505159, Note_off_c, 4, 57, 64
1, 505166, Note_off_c, 2, 69, 64
1, 505167, Note_off_c, 3, 81, 64
1, 505167, Note_on_c, 1, 83, 127
1, 505168, Note_on_c, 2, 71, 127
1, 505168, Note_on_c, 4, 57, 126
1, 505257, Note_off_c, 4, 52, 64
1, 505264, Note_on_c, 4, 45, 124
1, 505265, Note_off_c, 1, 83, 64
1, 505265, Note_off_c, 2, 71, 64
1, 505265, Note_on_c, 2, 73, 127
1, 505282, Note_on_c, 4, 49, 126
1, 505283, Note_on_c, 1, 85, 127
1, 505301, Note_off_c, 4, 57, 64
1, 505301, Note_on_c, 4, 52, 126
1, 505319, Note_on_c, 4, 57, 126
1, 505327, Note_off_c, 4, 45, 64
1, 505361, Note_off_c, 4, 49, 64
1, 505367, Note_off_c, 4, 57, 64
1, 505371, Note_off_c, 2, 73, 64
1, 505371, Note_on_c, 1, 83, 127
1, 505372, Note_on_c, 2, 71, 127
1, 505372, Note_on_c, 4, 57, 126
1, 505388, Note_off_c, 1, 85, 64
1, 505465, Note_off_c, 4, 57, 64
1, 505475, Note_off_c, 1, 83, 64
1, 505475, Note_off_c, 2, 71, 64
1, 505476, Note_on_c, 3, 81, 127
1, 505476, Note_on_c, 2, 69, 127
1, 505476, Note_on_c, 4, 57, 126
1, 505567, Note_off_c, 4, 57, 64
1, 505567, Note_off_c, 2, 69, 64
1, 505577, Note_off_c, 3, 81, 64
1, 505578, Note_on_c, 3, 80, 127
1, 505578, Note_on_c, 2, 69, 127
1, 505578, Note_on_c, 4, 57, 126
1, 505671, Note_off_c, 4, 52, 64
1, 505681, Note_off_c, 2, 69, 64
1, 505681, Note_on_c, 4, 38, 124
1, 505682, Note_off_c, 3, 80, 64
1, 505682, Note_on_c, 1, 78, 127
1, 505683, Note_on_c, 4, 66, 127
1, 505698, Note_on_c, 4, 42, 124
1, 505716, Note_on_c, 4, 45, 124
1, 505717, Note_off_c, 4, 57, 64
1, 505736, Note_on_c, 4, 50, 126
1, 505743, Note_off_c, 4, 38, 64
1, 505780, Note_off_c, 4, 42, 64
1, 505786, Note_off_c, 4, 50, 64
1, 505789, Note_off_c, 4, 66, 64
1, 505790, Note_off_c, 1, 78, 64
1, 505790, Note_on_c, 1, 83, 127
1, 505791, Note_on_c, 2, 71, 127
1, 505791, Note_on_c, 4, 50, 126
1, 505872, Note_off_c, 4, 45, 64
1, 505887, Note_on_c, 4, 40, 124
1, 505888, Note_off_c, 2, 71, 64
1, 505888, Note_off_c, 1, 83, 64
1, 505889, Note_on_c, 3, 80, 127
1, 505889, Note_on_c, 2, 69, 127
1, 505905, Note_on_c, 4, 44, 124
1, 505914, Note_off_c, 4, 50, 64
1, 505922, Note_on_c, 4, 47, 124
1, 505939, Note_on_c, 4, 52, 126
1, 505947, Note_off_c, 4, 40, 64
1, 505981, Note_off_c, 4, 44, 64
1, 505987, Note_off_c, 4, 52, 64
1, 505991, Note_off_c, 2, 69, 64
1, 505992, Note_off_c, 3, 80, 64
1, 505992, Note_on_c, 2, 76, 127
1, 505992, Note_on_c, 4, 64, 127
1, 505993, Note_on_c, 4, 52, 126
1, 506079, Note_off_c, 4, 47, 64
1, 506103, Note_off_c, 4, 52, 64
1, 506103, Note_off_c, 4, 64, 64
1, 506104, Note_off_c, 2, 76, 64
1, 506104, Note_on_c, 2, 69, 127
1, 506104, Note_on_c, 4, 45, 124
1, 506119, Note_on_c, 3, 81, 127
1, 506123, Note_on_c, 4, 49, 126
1, 506138, Note_on_c, 4, 52, 126
1, 506153, Note_on_c, 4, 57, 126
1, 506154, Note_on_c, 4, 57, 126
1, 506162, Note_off_c, 4, 45, 64
1, 506207, Note_on_c, 4, 57, 126
1, 506249, Note_off_c, 4, 57, 64
1, 506315, Note_off_c, 2, 69, 64
1, 506318, Note_on_c, 1, 85, 127
1, 506319, Note_on_c, 2, 73, 127
1, 506319, Note_on_c, 4, 57, 126
1, 506329, Note_off_c, 3, 81, 64
1, 506387, Note_off_c, 4, 49, 64
1, 506398, Note_off_c, 4, 57, 64
1, 506398, Note_off_c, 4, 57, 64
1, 506412, Note_off_c, 4, 57, 64
1, 506421, Note_on_c, 4, 57, 126
1, 506454, Note_off_c, 1, 85, 64
1, 506472, Note_on_c, 1, 85, 127
1, 506516, Note_off_c, 2, 73, 64
1, 506520, Note_off_c, 1, 85, 64
1, 506524, Note_off_c, 4, 52, 64
1, 506525, Note_on_c, 2, 73, 127
1, 506525, Note_on_c, 4, 45, 124
1, 506530, Note_on_c, 2, 76, 127
1, 506539, Note_on_c, 3, 81, 127
1, 506543, Note_on_c, 4, 49, 126
1, 506549, Note_on_c, 1, 85, 127
1, 506560, Note_off_c, 4, 57, 64
1, 506561, Note_on_c, 4, 52, 126
1, 506577, Note_on_c, 4, 57, 126
1, 506578, Note_on_c, 4, 57, 126
1, 506586, Note_off_c, 4, 45, 64
1, 506628, Note_off_c, 4, 57, 64
1, 506629, Note_off_c, 4, 57, 64
1, 506632, Note_on_c, 4, 57, 126
1, 506730, Note_off_c, 4, 57, 64
1, 506739, Note_on_c, 4, 57, 126
1, 506812, Note_off_c, 4, 49, 64
1, 506841, Note_off_c, 4, 57, 64
1, 506849, Note_on_c, 4, 57, 126
1, 506934, Note_off_c, 2, 73, 64
1, 506940, Note_off_c, 2, 76, 64
1, 506949, Note_off_c, 3, 81, 64
1, 506952, Note_off_c, 4, 52, 64
1, 506952, Note_on_c, 2, 73, 127
1, 506952, Note_on_c, 4, 45, 124
1, 506958, Note_off_c, 1, 85, 64
1, 506958, Note_on_c, 2, 76, 127
1, 506966, Note_on_c, 3, 81, 127
1, 506971, Note_on_c, 4, 49, 126
1, 506976, Note_on_c, 1, 85, 127
1, 506988, Note_off_c, 4, 57, 64
1, 506988, Note_on_c, 4, 52, 126
1, 507004, Note_on_c, 4, 57, 126
1, 507004, Note_on_c, 4, 57, 126
1, 507011, Note_off_c, 4, 45, 64
1, 507049, Note_off_c, 4, 57, 64
1, 507049, Note_off_c, 4, 57, 64
1, 507052, Note_on_c, 4, 57, 126
1, 507153, Note_off_c, 4, 57, 64
1, 507161, Note_on_c, 4, 57, 126
1, 507228, Note_off_c, 4, 49, 64
1, 507257, Note_off_c, 4, 57, 64
1, 507266, Note_on_c, 4, 57, 126
1, 507366, Note_off_c, 3, 81, 64
1, 507368, Note_off_c, 4, 52, 64
1, 507369, Note_on_c, 1, 86, 127
1, 507369, Note_on_c, 4, 45, 124
1, 507374, Note_off_c, 1, 85, 64
1, 507385, Note_on_c, 4, 49, 126
1, 507401, Note_off_c, 4, 57, 64
1, 507401, Note_on_c, 4, 52, 126
1, 507415, Note_on_c, 1, 85, 127
1, 507416, Note_on_c, 4, 57, 126
1, 507416, Note_on_c, 4, 57, 126
1, 507424, Note_off_c, 4, 45, 64
1, 507424, Note_off_c, 1, 86, 64
1, 507459, Note_off_c, 4, 57, 64
1, 507459, Note_off_c, 4, 57, 64
1, 507462, Note_on_c, 1, 83, 127
1, 507463, Note_on_c, 4, 57, 126
1, 507469, Note_off_c, 1, 85, 64
1, 507511, Note_on_c, 1, 85, 127
1, 507519, Note_off_c, 1, 83, 64
1, 507553, Note_off_c, 4, 57, 64
1, 507561, Note_on_c, 1, 86, 127
1, 507562, Note_on_c, 4, 57, 126
1, 507570, Note_off_c, 1, 85, 64
1, 507610, Note_on_c, 1, 85, 127
1, 507618, Note_off_c, 1, 86, 64
1, 507624, Note_off_c, 4, 49, 64
1, 507650, Note_off_c, 4, 57, 64
1, 507658, Note_on_c, 1, 83, 127
1, 507659, Note_on_c, 4, 57, 126
1, 507667, Note_off_c, 1, 85, 64
1, 507711, Note_on_c, 1, 85, 127
1, 507718, Note_off_c, 1, 83, 64
1, 507752, Note_off_c, 2, 76, 64
1, 507762, Note_off_c, 2, 73, 64
1, 507762, Note_off_c, 4, 52, 64
1, 507763, Note_on_c, 1, 78, 127
1, 507763, Note_on_c, 4, 38, 124
1, 507771, Note_off_c, 1, 85, 64
1, 507773, Note_on_c, 3, 81, 127
1, 507781, Note_on_c, 1, 86, 127
1, 507781, Note_on_c, 4, 42, 124
1, 507797, Note_off_c, 4, 57, 64
1, 507798, Note_on_c, 4, 45, 124
1, 507814, Note_on_c, 4, 50, 126
1, 507814, Note_on_c, 4, 50, 126
1, 507822, Note_off_c, 4, 38, 64
1, 507865, Note_on_c, 4, 50, 126
1, 507886, Note_off_c, 4, 50, 64
1, 507971, Note_on_c, 4, 50, 126
1, 508007, Note_off_c, 4, 50, 64
1, 508007, Note_off_c, 4, 50, 64
1, 508040, Note_off_c, 4, 42, 64
1, 508067, Note_off_c, 4, 50, 64
1, 508077, Note_on_c, 4, 50, 126
1, 508169, Note_off_c, 4, 50, 64
1, 508169, Note_off_c, 4, 45, 64
1, 508170, Note_off_c, 3, 81, 64
1, 508170, Note_off_c, 1, 86, 64
1, 508171, Note_off_c, 1, 78, 64
1, 508178, Note_on_c, 1, 86, 127
1, 508179, Note_on_c, 2, 76, 127
1, 508179, Note_on_c, 4, 45, 124
1, 508181, Note_on_c, 3, 81, 127
1, 508197, Note_on_c, 1, 85, 127
1, 508199, Note_on_c, 4, 49, 126
1, 508210, Note_off_c, 1, 86, 64
1, 508216, Note_on_c, 4, 52, 126
1, 508231, Note_on_c, 4, 57, 126
1, 508232, Note_on_c, 4, 57, 126
1, 508240, Note_off_c, 4, 45, 64
1, 508280, Note_off_c, 4, 57, 64
1, 508281, Note_off_c, 4, 57, 64
1, 508281, Note_off_c, 2, 76, 64
1, 508282, Note_off_c, 1, 85, 64
1, 508282, Note_off_c, 3, 81, 64
1, 508283, Note_on_c, 4, 57, 126
1, 508283, Note_on_c, 1, 86, 127
1, 508285, Note_on_c, 3, 81, 127
1, 508285, Note_on_c, 2, 76, 127
1, 508300, Note_on_c, 1, 85, 127
1, 508316, Note_off_c, 1, 86, 64
1, 508379, Note_off_c, 4, 57, 64
1, 508385, Note_off_c, 2, 76, 64
1, 508385, Note_off_c, 1, 85, 64
1, 508387, Note_off_c, 3, 81, 64
1, 508389, Note_on_c, 1, 86, 127
1, 508389, Note_on_c, 4, 57, 126
1, 508390, Note_on_c, 2, 76, 127
1, 508392, Note_on_c, 3, 81, 127
1, 508407, Note_on_c, 1, 85, 127
1, 508422, Note_off_c, 1, 86, 64
1, 508461, Note_off_c, 4, 49, 64
1, 508488, Note_off_c, 4, 57, 64
1, 508491, Note_off_c, 1, 85, 64
1, 508493, Note_off_c, 2, 76, 64
1, 508494, Note_off_c, 3, 81, 64
1, 508496, Note_on_c, 1, 86, 127
1, 508497, Note_on_c, 2, 76, 127
1, 508497, Note_on_c, 4, 57, 126
1, 508498, Note_on_c, 3, 81, 127
1, 508512, Note_on_c, 1, 85, 127
1, 508528, Note_off_c, 1, 86, 64
1, 508580, Note_off_c, 2, 76, 64
1, 508595, Note_off_c, 4, 52, 64
1, 508601, Note_off_c, 3, 81, 64
1, 508601, Note_off_c, 1, 85, 64
1, 508605, Note_on_c, 1, 83, 127
1, 508605, Note_on_c, 4, 40, 124
1, 508606, Note_on_c, 3, 80, 127
1, 508606, Note_on_c, 2, 76, 127
1, 508622, Note_on_c, 4, 44, 124
1, 508639, Note_off_c, 4, 57, 64
1, 508640, Note_on_c, 4, 47, 124
1, 508657, Note_on_c, 4, 52, 126
1, 508658, Note_on_c, 4, 52, 126
1, 508666, Note_off_c, 4, 40, 64
1, 508703, Note_off_c, 4, 52, 64
1, 508703, Note_off_c, 4, 52, 64
1, 508705, Note_on_c, 4, 52, 126
1, 508807, Note_off_c, 4, 52, 64
1, 508815, Note_on_c, 4, 52, 126
1, 508882, Note_off_c, 4, 44, 64
1, 508907, Note_off_c, 4, 52, 64
1, 508917, Note_on_c, 1, 88, 127
1, 508917, Note_on_c, 4, 52, 126
1, 509010, Note_off_c, 4, 52, 64
1, 509010, Note_off_c, 4, 47, 64
1, 509011, Note_off_c, 2, 76, 64
1, 509018, Note_off_c, 1, 88, 64
1, 509019, Note_off_c, 3, 80, 64
1, 509019, Note_on_c, 4, 45, 124
1, 509020, Note_off_c, 1, 83, 64
1, 509021, Note_on_c, 2, 73, 127
1, 509030, Note_on_c, 2, 76, 127
1, 509038, Note_on_c, 4, 49, 126
1, 509043, Note_on_c, 3, 81, 127
1, 509051, Note_on_c, 1, 85, 127
1, 509053, Note_on_c, 4, 52, 126
1, 509070, Note_on_c, 4, 57, 126
1, 509071, Note_on_c, 4, 57, 126
1, 509081, Note_off_c, 4, 45, 64
1, 509123, Note_off_c, 4, 57, 64
1, 509124, Note_off_c, 4, 57, 64
1, 509126, Note_on_c, 4, 57, 126
1, 509226, Note_off_c, 4, 57, 64
1, 509234, Note_on_c, 4, 57, 126
1, 509303, Note_off_c, 4, 49, 64
1, 509329, Note_off_c, 4, 57, 64
1, 509337, Note_on_c, 4, 57, 126
1, 509416, Note_off_c, 2, 73, 64
1, 509429, Note_off_c, 3, 81, 64
1, 509434, Note_off_c, 4, 52, 64
1, 509435, Note_off_c, 2, 76, 64
1, 509437, Note_off_c, 1, 85, 64
1, 509441, Note_on_c, 2, 73, 127
1, 509441, Note_on_c, 4, 45, 124
1, 509452, Note_on_c, 3, 81, 127
1, 509453, Note_on_c, 2, 76, 127
1, 509458, Note_on_c, 4, 49, 126
1, 509461, Note_on_c, 1, 85, 127
1, 509477, Note_off_c, 4, 57, 64
1, 509477, Note_on_c, 4, 52, 126
1, 509495, Note_on_c, 4, 57, 126
1, 509496, Note_on_c, 4, 57, 126
1, 509504, Note_off_c, 4, 45, 64
1, 509545, Note_on_c, 4, 57, 126
1, 509560, Note_off_c, 4, 57, 64
1, 509652, Note_on_c, 4, 57, 126
1, 509682, Note_off_c, 4, 57, 64
1, 509682, Note_off_c, 4, 57, 64
1, 509724, Note_off_c, 4, 49, 64
1, 509748, Note_off_c, 4, 57, 64
1, 509755, Note_on_c, 4, 57, 126
1, 509839, Note_off_c, 1, 85, 64
1, 509844, Note_off_c, 4, 52, 64
1, 509851, Note_on_c, 1, 86, 127
1, 509852, Note_on_c, 4, 45, 124
1, 509866, Note_on_c, 4, 49, 126
1, 509879, Note_off_c, 4, 57, 64
1, 509880, Note_on_c, 4, 52, 126
1, 509895, Note_on_c, 1, 85, 127
1, 509896, Note_on_c, 4, 57, 126
1, 509896, Note_on_c, 4, 57, 126
1, 509904, Note_off_c, 4, 45, 64
1, 509904, Note_off_c, 1, 86, 64
1, 509915, Note_off_c, 3, 81, 64
1, 509938, Note_off_c, 4, 57, 64
1, 509938, Note_off_c, 4, 57, 64
1, 509940, Note_on_c, 1, 83, 127
1, 509941, Note_on_c, 4, 57, 126
1, 509949, Note_off_c, 1, 85, 64
1, 509988, Note_on_c, 1, 85, 127
1, 509997, Note_off_c, 1, 83, 64
1, 510032, Note_off_c, 4, 57, 64
1, 510040, Note_on_c, 1, 86, 127
1, 510041, Note_on_c, 4, 57, 126
1, 510047, Note_off_c, 1, 85, 64
1, 510089, Note_on_c, 1, 85, 127
1, 510097, Note_off_c, 1, 86, 64
1, 510103, Note_off_c, 4, 49, 64
1, 510130, Note_off_c, 4, 57, 64
1, 510137, Note_on_c, 1, 83, 127
1, 510138, Note_on_c, 4, 57, 126
1, 510146, Note_off_c, 1, 85, 64
1, 510184, Note_on_c, 1, 85, 127
1, 510192, Note_off_c, 1, 83, 64
1, 510219, Note_off_c, 2, 73, 64
1, 510225, Note_off_c, 4, 52, 64
1, 510227, Note_off_c, 2, 76, 64
1, 510232, Note_on_c, 4, 38, 124
1, 510233, Note_on_c, 1, 78, 127
1, 510241, Note_off_c, 1, 85, 64
1, 510243, Note_on_c, 3, 81, 127
1, 510249, Note_on_c, 4, 42, 124
1, 510252, Note_on_c, 1, 86, 127
1, 510268, Note_off_c, 4, 57, 64
1, 510268, Note_on_c, 4, 45, 124
1, 510286, Note_on_c, 4, 50, 126
1, 510287, Note_on_c, 4, 50, 126
1, 510293, Note_off_c, 4, 38, 64
1, 510331, Note_off_c, 4, 50, 64
1, 510332, Note_off_c, 4, 50, 64
1, 510334, Note_on_c, 4, 50, 126
1, 510432, Note_off_c, 4, 50, 64
1, 510442, Note_on_c, 4, 50, 126
1, 510508, Note_off_c, 4, 42, 64
1, 510533, Note_off_c, 4, 50, 64
1, 510542, Note_on_c, 4, 50, 126
1, 510612, Note_off_c, 1, 78, 64
1, 510625, Note_off_c, 3, 81, 64
1, 510635, Note_off_c, 1, 86, 64
1, 510640, Note_off_c, 4, 50, 64
1, 510641, Note_off_c, 4, 45, 64
1, 510649, Note_on_c, 2, 76, 127
1, 510649, Note_on_c, 4, 45, 124
1, 510660, Note_on_c, 3, 81, 127
1, 510663, Note_on_c, 1, 86, 127
1, 510667, Note_on_c, 4, 49, 126
1, 510683, Note_on_c, 1, 85, 127
1, 510683, Note_on_c, 4, 52, 126
1, 510692, Note_off_c, 1, 86, 64
1, 510700, Note_on_c, 4, 57, 126
1, 510700, Note_on_c, 4, 57, 126
1, 510707, Note_off_c, 4, 45, 64
1, 510750, Note_on_c, 4, 57, 126
1, 510774, Note_off_c, 4, 57, 64
1, 510855, Note_on_c, 4, 57, 126
1, 510902, Note_off_c, 4, 57, 64
1, 510902, Note_off_c, 4, 57, 64
1, 510926, Note_off_c, 4, 49, 64
1, 510951, Note_off_c, 4, 57, 64
1, 510961, Note_on_c, 4, 57, 126
1, 511030, Note_off_c, 2, 76, 64
1, 511042, Note_off_c, 3, 81, 64
1, 511057, Note_off_c, 4, 52, 64
1, 511065, Note_off_c, 1, 85, 64
1, 511067, Note_on_c, 1, 85, 127
1, 511067, Note_on_c, 4, 40, 124
1, 511068, Note_on_c, 3, 80, 127
1, 511068, Note_on_c, 2, 76, 127
1, 511084, Note_on_c, 1, 83, 127
1, 511088, Note_on_c, 4, 44, 124
1, 511099, Note_off_c, 1, 85, 64
1, 511103, Note_off_c, 4, 57, 64
1, 511104, Note_on_c, 4, 47, 124
1, 511119, Note_on_c, 4, 52, 126
1, 511120, Note_on_c, 4, 52, 126
1, 511128, Note_off_c, 4, 40, 64
1, 511166, Note_off_c, 4, 52, 64
1, 511167, Note_off_c, 4, 52, 64
1, 511167, Note_off_c, 1, 83, 64
1, 511168, Note_off_c, 2, 76, 64
1, 511168, Note_off_c, 3, 80, 64
1, 511170, Note_on_c, 1, 85, 127
1, 511171, Note_on_c, 3, 80, 127
1, 511171, Note_on_c, 4, 52, 126
1, 511172, Note_on_c, 2, 76, 127
1, 511191, Note_on_c, 1, 83, 127
1, 511205, Note_off_c, 1, 85, 64
1, 511271, Note_off_c, 4, 52, 64
1, 511276, Note_off_c, 3, 80, 64
1, 511276, Note_off_c, 2, 76, 64
1, 511279, Note_off_c, 1, 83, 64
1, 511279, Note_on_c, 1, 85, 127
1, 511280, Note_on_c, 4, 52, 126
1, 511281, Note_on_c, 3, 80, 127
1, 511281, Note_on_c, 2, 76, 127
1, 511301, Note_on_c, 1, 83, 127
1, 511314, Note_off_c, 1, 85, 64
1, 511351, Note_off_c, 4, 44, 64
1, 511379, Note_off_c, 4, 52, 64
1, 511384, Note_off_c, 2, 76, 64
1, 511385, Note_off_c, 3, 80, 64
1, 511387, Note_off_c, 1, 83, 64
1, 511388, Note_on_c, 4, 52, 126
1, 511388, Note_on_c, 1, 85, 127
1, 511389, Note_on_c, 3, 80, 127
1, 511389, Note_on_c, 2, 76, 127
1, 511406, Note_on_c, 1, 83, 127
1, 511422, Note_off_c, 1, 85, 64
1, 511491, Note_off_c, 4, 47, 64
1, 511499, Note_off_c, 2, 76, 64
1, 511499, Note_off_c, 1, 83, 64
1, 511500, Note_off_c, 3, 80, 64
1, 511501, Note_on_c, 4, 57, 126
1, 511502, Note_on_c, 3, 81, 127
1, 511519, Note_off_c, 4, 52, 64
1, 511555, Note_on_c, 4, 64, 127
1, 511599, Note_off_c, 4, 57, 64
1, 511608, Note_on_c, 4, 61, 127
1, 511653, Note_off_c, 4, 64, 64
1, 511661, Note_on_c, 4, 64, 127
1, 511707, Note_off_c, 4, 61, 64
1, 511707, Note_off_c, 3, 81, 64
1, 511714, Note_on_c, 2, 76, 127
1, 511715, Note_on_c, 4, 57, 126
1, 511733, Note_on_c, 3, 81, 127
1, 511754, Note_on_c, 1, 85, 127
1, 511758, Note_off_c, 2, 76, 64
1, 511758, Note_off_c, 4, 64, 64
1, 511767, Note_on_c, 4, 64, 127
1, 511776, Note_off_c, 3, 81, 64
1, 511809, Note_off_c, 4, 57, 64
1, 511817, Note_on_c, 4, 61, 127
1, 511847, Note_off_c, 1, 85, 64
1, 511862, Note_off_c, 4, 64, 64
1, 511871, Note_on_c, 1, 85, 127
1, 511871, Note_on_c, 4, 64, 127
1, 511912, Note_off_c, 4, 61, 64
1, 511920, Note_on_c, 2, 76, 127
1, 511920, Note_on_c, 4, 57, 126
1, 511924, Note_off_c, 1, 85, 64
1, 511939, Note_on_c, 3, 81, 127
1, 511961, Note_on_c, 1, 85, 127
1, 511964, Note_off_c, 2, 76, 64
1, 511965, Note_off_c, 4, 64, 64
1, 511973, Note_on_c, 4, 64, 127
1, 511983, Note_off_c, 3, 81, 64
1, 512017, Note_off_c, 4, 57, 64
1, 512025, Note_on_c, 4, 61, 127
1, 512069, Note_off_c, 4, 64, 64
1, 512077, Note_on_c, 4, 64, 127
1, 512121, Note_off_c, 4, 61, 64
1, 512129, Note_on_c, 4, 57, 126
1, 512171, Note_off_c, 4, 64, 64
1, 512179, Note_on_c, 4, 64, 127
1, 512222, Note_off_c, 4, 57, 64
1, 512231, Note_on_c, 4, 61, 127
1, 512273, Note_off_c, 4, 64, 64
1, 512280, Note_on_c, 4, 64, 127
1, 512324, Note_off_c, 4, 61, 64
1, 512331, Note_on_c, 2, 76, 127
1, 512332, Note_on_c, 4, 57, 126
1, 512345, Note_off_c, 1, 85, 64
1, 512352, Note_on_c, 3, 81, 127
1, 512373, Note_on_c, 1, 85, 127
1, 512376, Note_off_c, 2, 76, 64
1, 512377, Note_off_c, 4, 64, 64
1, 512385, Note_on_c, 4, 64, 127
1, 512396, Note_off_c, 3, 81, 64
1, 512431, Note_off_c, 4, 57, 64
1, 512439, Note_on_c, 4, 61, 127
1, 512485, Note_off_c, 4, 64, 64
1, 512493, Note_on_c, 4, 64, 127
1, 512537, Note_off_c, 4, 61, 64
1, 512544, Note_on_c, 4, 57, 126
1, 512587, Note_off_c, 4, 64, 64
1, 512594, Note_on_c, 4, 64, 127
1, 512639, Note_off_c, 4, 57, 64
1, 512646, Note_on_c, 4, 61, 127
1, 512690, Note_off_c, 4, 64, 64
1, 512698, Note_on_c, 4, 64, 127
1, 512740, Note_off_c, 4, 61, 64
1, 512746, Note_on_c, 1, 86, 127
1, 512747, Note_on_c, 4, 57, 126
1, 512757, Note_off_c, 1, 85, 64
1, 512768, Note_off_c, 4, 64, 64
1, 512776, Note_on_c, 4, 64, 127
1, 512791, Note_on_c, 1, 85, 127
1, 512799, Note_off_c, 1, 86, 64
1, 512832, Note_off_c, 4, 57, 64
1, 512839, Note_on_c, 1, 83, 127
1, 512840, Note_on_c, 4, 61, 127
1, 512846, Note_off_c, 1, 85, 64
1, 512863, Note_off_c, 4, 64, 64
1, 512886, Note_on_c, 1, 85, 127
1, 512887, Note_on_c, 4, 64, 127
1, 512895, Note_off_c, 1, 83, 64
1, 512926, Note_off_c, 4, 61, 64
1, 512934, Note_on_c, 1, 86, 127
1, 512934, Note_on_c, 4, 57, 126
1, 512942, Note_off_c, 1, 85, 64
1, 512973, Note_off_c, 4, 64, 64
1, 512980, Note_on_c, 1, 85, 127
1, 512981, Note_on_c, 4, 64, 127
1, 512989, Note_off_c, 1, 86, 64
1, 513022, Note_off_c, 4, 57, 64
1, 513027, Note_on_c, 1, 83, 127
1, 513028, Note_on_c, 4, 61, 127
1, 513036, Note_off_c, 1, 85, 64
1, 513071, Note_off_c, 4, 64, 64
1, 513076, Note_on_c, 1, 85, 127
1, 513077, Note_on_c, 4, 64, 127
1, 513085, Note_off_c, 1, 83, 64
1, 513118, Note_off_c, 4, 61, 64
1, 513126, Note_on_c, 1, 86, 127
1, 513126, Note_on_c, 4, 57, 126
1, 513136, Note_off_c, 1, 85, 64
1, 513171, Note_off_c, 4, 64, 64
1, 513171, Note_on_c, 4, 66, 127
1, 513225, Note_off_c, 4, 57, 64
1, 513233, Note_on_c, 4, 62, 127
1, 513271, Note_off_c, 4, 66, 64
1, 513287, Note_on_c, 4, 66, 127
1, 513331, Note_off_c, 4, 62, 64
1, 513338, Note_on_c, 4, 57, 126
1, 513383, Note_off_c, 4, 66, 64
1, 513390, Note_on_c, 4, 66, 127
1, 513432, Note_off_c, 4, 57, 64
1, 513440, Note_on_c, 4, 62, 127
1, 513486, Note_off_c, 4, 66, 64
1, 513494, Note_on_c, 4, 66, 127
1, 513534, Note_off_c, 1, 86, 64
1, 513535, Note_off_c, 4, 62, 64
1, 513543, Note_on_c, 4, 57, 126
1, 513543, Note_on_c, 1, 86, 127
1, 513561, Note_on_c, 1, 85, 127
1, 513573, Note_off_c, 1, 86, 64
1, 513586, Note_off_c, 4, 66, 64
1, 513592, Note_on_c, 4, 64, 127
1, 513632, Note_off_c, 4, 57, 64
1, 513640, Note_off_c, 1, 85, 64
1, 513640, Note_on_c, 1, 86, 127
1, 513641, Note_on_c, 4, 61, 127
1, 513660, Note_on_c, 1, 85, 127
1, 513672, Note_off_c, 1, 86, 64
1, 513685, Note_off_c, 4, 64, 64
1, 513693, Note_on_c, 4, 64, 127
1, 513733, Note_off_c, 4, 61, 64
1, 513739, Note_on_c, 1, 86, 127
1, 513739, Note_on_c, 4, 57, 126
1, 513742, Note_off_c, 1, 85, 64
1, 513759, Note_on_c, 1, 85, 127
1, 513770, Note_off_c, 1, 86, 64
1, 513786, Note_off_c, 4, 64, 64
1, 513792, Note_on_c, 4, 64, 127
1, 513830, Note_off_c, 4, 57, 64
1, 513837, Note_off_c, 1, 85, 64
1, 513837, Note_on_c, 1, 86, 127
1, 513838, Note_on_c, 4, 61, 127
1, 513857, Note_on_c, 1, 85, 127
1, 513868, Note_off_c, 1, 86, 64
1, 513882, Note_off_c, 4, 64, 64
1, 513889, Note_on_c, 4, 64, 127
1, 513930, Note_off_c, 4, 61, 64
1, 513938, Note_on_c, 1, 83, 127
1, 513938, Note_on_c, 4, 52, 126
1, 513939, Note_off_c, 1, 85, 64
1, 513983, Note_off_c, 4, 64, 64
1, 513990, Note_on_c, 4, 64, 127
1, 514032, Note_off_c, 4, 52, 64
1, 514041, Note_on_c, 4, 56, 126
1, 514081, Note_off_c, 4, 64, 64
1, 514090, Note_on_c, 4, 64, 127
1, 514131, Note_off_c, 4, 56, 64
1, 514140, Note_on_c, 4, 52, 126
1, 514182, Note_off_c, 4, 64, 64
1, 514189, Note_on_c, 4, 64, 127
1, 514232, Note_off_c, 4, 52, 64
1, 514232, Note_off_c, 1, 83, 64
1, 514241, Note_on_c, 1, 88, 127
1, 514242, Note_on_c, 4, 56, 126
1, 514281, Note_off_c, 4, 64, 64
1, 514288, Note_on_c, 4, 64, 127
1, 514329, Note_off_c, 4, 56, 64
1, 514336, Note_off_c, 1, 88, 64
1, 514337, Note_on_c, 2, 73, 127
1, 514337, Note_on_c, 4, 45, 127
1, 514357, Note_on_c, 3, 81, 127
1, 514359, Note_on_c, 2, 76, 127
1, 514360, Note_on_c, 4, 49, 127
1, 514367, Note_on_c, 1, 85, 127
1, 514379, Note_on_c, 4, 52, 127
1, 514388, Note_off_c, 4, 64, 64
1, 514396, Note_on_c, 4, 57, 127
1, 514396, Note_on_c, 4, 57, 127
1, 514404, Note_off_c, 4, 45, 64
1, 514446, Note_off_c, 4, 57, 64
1, 514447, Note_off_c, 4, 57, 64
1, 514450, Note_on_c, 4, 57, 127
1, 514548, Note_off_c, 4, 57, 64
1, 514559, Note_on_c, 4, 57, 127
1, 514628, Note_off_c, 4, 49, 64
1, 514653, Note_off_c, 4, 57, 64
1, 514661, Note_on_c, 4, 57, 127
1, 514741, Note_off_c, 2, 73, 64
1, 514754, Note_off_c, 3, 81, 64
1, 514757, Note_off_c, 2, 76, 64
1, 514759, Note_off_c, 4, 52, 64
1, 514766, Note_off_c, 1, 85, 64
1, 514770, Note_on_c, 2, 73, 127
1, 514771, Note_on_c, 4, 45, 127
1, 514788, Note_on_c, 3, 81, 127
1, 514788, Note_on_c, 2, 76, 127
1, 514790, Note_on_c, 4, 49, 127
1, 514796, Note_on_c, 1, 85, 127
1, 514806, Note_off_c, 4, 57, 64
1, 514806, Note_on_c, 4, 52, 127
1, 514826, Note_on_c, 4, 57, 127
1, 514826, Note_on_c, 4, 57, 127
1, 514833, Note_off_c, 4, 45, 64
1, 514869, Note_off_c, 4, 57, 64
1, 514870, Note_off_c, 4, 57, 64
1, 514874, Note_on_c, 4, 57, 127
1, 514970, Note_off_c, 4, 57, 64
1, 514980, Note_on_c, 4, 57, 127
1, 515049, Note_off_c, 4, 49, 64
1, 515074, Note_off_c, 4, 57, 64
1, 515081, Note_on_c, 4, 57, 127
1, 515175, Note_off_c, 4, 52, 64
1, 515181, Note_off_c, 1, 85, 64
1, 515183, Note_off_c, 2, 73, 64
1, 515184, Note_on_c, 1, 86, 127
1, 515184, Note_on_c, 4, 45, 127
1, 515197, Note_off_c, 3, 81, 64
1, 515198, Note_off_c, 2, 76, 64
1, 515199, Note_on_c, 4, 49, 127
1, 515213, Note_off_c, 4, 57, 64
1, 515213, Note_on_c, 4, 52, 127
1, 515229, Note_on_c, 1, 85, 127
1, 515230, Note_on_c, 4, 57, 127
1, 515230, Note_on_c, 4, 57, 127
1, 515238, Note_off_c, 4, 45, 64
1, 515238, Note_off_c, 1, 86, 64
1, 515273, Note_off_c, 4, 57, 64
1, 515274, Note_off_c, 4, 57, 64
1, 515276, Note_on_c, 1, 83, 127
1, 515277, Note_on_c, 4, 57, 127
1, 515285, Note_off_c, 1, 85, 64
1, 515327, Note_on_c, 1, 85, 127
1, 515335, Note_off_c, 1, 83, 64
1, 515367, Note_off_c, 4, 57, 64
1, 515377, Note_on_c, 1, 86, 127
1, 515377, Note_on_c, 4, 57, 127
1, 515386, Note_off_c, 1, 85, 64
1, 515425, Note_on_c, 1, 85, 127
1, 515435, Note_off_c, 1, 86, 64
1, 515443, Note_off_c, 4, 49, 64
1, 515465, Note_off_c, 4, 57, 64
1, 515471, Note_on_c, 1, 83, 127
1, 515472, Note_on_c, 4, 57, 126
1, 515482, Note_off_c, 1, 85, 64
1, 515520, Note_on_c, 1, 85, 127
1, 515530, Note_off_c, 1, 83, 64
1, 515564, Note_off_c, 4, 52, 64
1, 515572, Note_on_c, 1, 78, 127
1, 515572, Note_on_c, 4, 38, 124
1, 515580, Note_off_c, 1, 85, 64
1, 515590, Note_on_c, 3, 81, 127
1, 515591, Note_on_c, 4, 42, 124
1, 515601, Note_on_c, 1, 86, 127
1, 515608, Note_off_c, 4, 57, 64
1, 515609, Note_on_c, 4, 45, 124
1, 515625, Note_on_c, 4, 50, 126
1, 515625, Note_on_c, 4, 50, 126
1, 515633, Note_off_c, 4, 38, 64
1, 515676, Note_off_c, 4, 50, 64
1, 515676, Note_off_c, 4, 50, 64
1, 515678, Note_on_c, 4, 50, 126
1, 515776, Note_off_c, 4, 50, 64
1, 515784, Note_on_c, 4, 50, 126
1, 515855, Note_off_c, 4, 42, 64
1, 515880, Note_off_c, 4, 50, 64
1, 515890, Note_on_c, 4, 50, 126
1, 515982, Note_off_c, 4, 50, 64
1, 515982, Note_off_c, 4, 45, 64
1, 515983, Note_off_c, 1, 78, 64
1, 515983, Note_off_c, 1, 86, 64
1, 515989, Note_on_c, 1, 86, 127
1, 515990, Note_on_c, 4, 45, 124
1, 516000, Note_off_c, 3, 81, 64
1, 516010, Note_on_c, 3, 81, 127
1, 516011, Note_on_c, 2, 76, 127
1, 516011, Note_on_c, 4, 49, 126
1, 516012, Note_off_c, 1, 86, 64
1, 516020, Note_on_c, 1, 85, 127
1, 516028, Note_on_c, 4, 52, 126
1, 516046, Note_on_c, 4, 57, 126
1, 516046, Note_on_c, 4, 57, 126
1, 516056, Note_off_c, 4, 45, 64
1, 516098, Note_off_c, 4, 57, 64
1, 516099, Note_off_c, 4, 57, 64
1, 516103, Note_on_c, 4, 57, 126
1, 516209, Note_off_c, 4, 57, 64
1, 516218, Note_on_c, 4, 57, 126
1, 516291, Note_off_c, 4, 49, 64
1, 516318, Note_off_c, 4, 57, 64
1, 516328, Note_on_c, 4, 57, 126
1, 516422, Note_off_c, 2, 76, 64
1, 516422, Note_off_c, 4, 52, 64
1, 516429, Note_off_c, 3, 81, 64
1, 516429, Note_on_c, 1, 85, 127
1, 516430, Note_on_c, 2, 76, 127
1, 516430, Note_on_c, 4, 40, 124
1, 516431, Note_off_c, 1, 85, 64
1, 516450, Note_on_c, 3, 80, 127
1, 516450, Note_on_c, 4, 44, 124
1, 516460, Note_on_c, 1, 83, 127
1, 516462, Note_off_c, 1, 85, 64
1, 516466, Note_off_c, 4, 57, 64
1, 516467, Note_on_c, 4, 47, 124
1, 516482, Note_on_c, 4, 52, 126
1, 516483, Note_on_c, 4, 52, 126
1, 516491, Note_off_c, 4, 40, 64
1, 516529, Note_off_c, 1, 83, 64
1, 516533, Note_off_c, 4, 52, 64
1, 516533, Note_off_c, 4, 52, 64
1, 516534, Note_off_c, 2, 76, 64
1, 516536, Note_off_c, 3, 80, 64
1, 516537, Note_on_c, 1, 85, 127
1, 516537, Note_on_c, 3, 80, 127
1, 516537, Note_on_c, 4, 52, 126
1, 516538, Note_on_c, 2, 76, 127
1, 516559, Note_on_c, 1, 83, 127
1, 516570, Note_off_c, 1, 85, 64
1, 516634, Note_off_c, 4, 52, 64
1, 516643, Note_off_c, 2, 76, 64
1, 516644, Note_off_c, 3, 80, 64
1, 516645, Note_on_c, 3, 80, 127
1, 516645, Note_on_c, 4, 52, 126
1, 516645, Note_on_c, 1, 85, 127
1, 516646, Note_off_c, 1, 83, 64
1, 516646, Note_on_c, 2, 76, 127
1, 516662, Note_on_c, 1, 83, 127
1, 516673, Note_off_c, 1, 85, 64
1, 516712, Note_off_c, 4, 44, 64
1, 516739, Note_off_c, 4, 52, 64
1, 516748, Note_off_c, 3, 80, 64
1, 516748, Note_off_c, 2, 76, 64
1, 516749, Note_off_c, 1, 83, 64
1, 516750, Note_on_c, 1, 85, 127
1, 516750, Note_on_c, 3, 80, 127
1, 516750, Note_on_c, 4, 52, 126
1, 516751, Note_on_c, 2, 76, 127
1, 516772, Note_on_c, 1, 83, 127
1, 516784, Note_off_c, 1, 85, 64
1, 516847, Note_off_c, 4, 52, 64
1, 516848, Note_off_c, 4, 47, 64
1, 516855, Note_off_c, 2, 76, 64
1, 516856, Note_off_c, 3, 80, 64
1, 516857, Note_on_c, 2, 69, 127
1, 516857, Note_on_c, 4, 45, 126
1, 516858, Note_off_c, 1, 83, 64
1, 516869, Note_on_c, 2, 73, 127
1, 516876, Note_on_c, 4, 49, 127
1, 516880, Note_on_c, 2, 76, 127
1, 516888, Note_on_c, 3, 81, 127
1, 516894, Note_on_c, 4, 52, 127
1, 516913, Note_on_c, 4, 57, 127
1, 516914, Note_on_c, 4, 57, 127
1, 516922, Note_off_c, 4, 45, 64
1, 516958, Note_off_c, 4, 57, 64
1, 516959, Note_off_c, 4, 57, 64
1, 516961, Note_on_c, 4, 57, 127
1, 517054, Note_off_c, 4, 57, 64
1, 517063, Note_on_c, 4, 57, 127
1, 517127, Note_off_c, 4, 49, 64
1, 517147, Note_off_c, 2, 73, 64
1, 517152, Note_off_c, 4, 57, 64
1, 517159, Note_on_c, 4, 57, 127
1, 517161, Note_on_c, 2, 73, 127
1, 517161, Note_on_c, 1, 85, 127
1, 517248, Note_off_c, 2, 76, 64
1, 517254, Note_off_c, 4, 52, 64
1, 517255, Note_off_c, 2, 69, 64
1, 517255, Note_off_c, 3, 81, 64
1, 517261, Note_on_c, 2, 69, 127
1, 517261, Note_on_c, 4, 45, 126
1, 517280, Note_on_c, 4, 49, 127
1, 517292, Note_on_c, 3, 81, 127
1, 517299, Note_off_c, 4, 57, 64
1, 517299, Note_on_c, 4, 52, 127
1, 517316, Note_on_c, 4, 57, 127
1, 517316, Note_on_c, 4, 57, 127
1, 517324, Note_off_c, 4, 45, 64
1, 517332, Note_off_c, 1, 85, 64
1, 517363, Note_on_c, 4, 57, 127
1, 517407, Note_off_c, 4, 57, 64
1, 517407, Note_off_c, 4, 57, 64
1, 517456, Note_off_c, 4, 57, 64
1, 517464, Note_on_c, 4, 57, 127
1, 517535, Note_off_c, 4, 49, 64
1, 517558, Note_off_c, 4, 57, 64
1, 517567, Note_on_c, 4, 57, 127
1, 517568, Note_on_c, 2, 76, 127
1, 517568, Note_on_c, 1, 88, 127
1, 517576, Note_off_c, 2, 73, 64
1, 517653, Note_off_c, 3, 81, 64
1, 517658, Note_off_c, 4, 52, 64
1, 517660, Note_off_c, 2, 69, 64
1, 517668, Note_on_c, 2, 69, 127
1, 517668, Note_on_c, 4, 45, 126
1, 517684, Note_on_c, 4, 49, 127
1, 517696, Note_on_c, 3, 81, 127
1, 517704, Note_off_c, 4, 57, 64
1, 517704, Note_on_c, 4, 52, 127
1, 517720, Note_on_c, 4, 57, 127
1, 517720, Note_on_c, 4, 57, 127
1, 517730, Note_off_c, 4, 45, 64
1, 517740, Note_off_c, 1, 88, 64
1, 517767, Note_off_c, 4, 57, 64
1, 517767, Note_off_c, 4, 57, 64
1, 517770, Note_on_c, 4, 57, 127
1, 517866, Note_off_c, 4, 57, 64
1, 517873, Note_on_c, 4, 57, 127
1, 517941, Note_off_c, 4, 49, 64
1, 517964, Note_off_c, 4, 57, 64
1, 517971, Note_on_c, 4, 57, 127
1, 517972, Note_on_c, 1, 85, 127
1, 517972, Note_on_c, 2, 73, 127
1, 517980, Note_off_c, 2, 76, 64
1, 518057, Note_off_c, 3, 81, 64
1, 518063, Note_off_c, 4, 52, 64
1, 518064, Note_off_c, 2, 69, 64
1, 518072, Note_on_c, 4, 45, 126
1, 518073, Note_off_c, 1, 85, 64
1, 518073, Note_on_c, 2, 69, 127
1, 518085, Note_on_c, 3, 81, 127
1, 518090, Note_on_c, 4, 49, 127
1, 518108, Note_off_c, 4, 57, 64
1, 518108, Note_on_c, 4, 52, 127
1, 518126, Note_on_c, 4, 57, 127
1, 518136, Note_off_c, 4, 45, 64
1, 518145, Note_off_c, 2, 73, 64
1, 518168, Note_off_c, 4, 49, 64
1, 518174, Note_off_c, 4, 57, 64
1, 518178, Note_on_c, 1, 85, 127
1, 518178, Note_on_c, 4, 57, 127
1, 518179, Note_on_c, 2, 73, 127
1, 518188, Note_off_c, 3, 81, 64
1, 518250, Note_off_c, 2, 69, 64
1, 518265, Note_off_c, 4, 52, 64
1, 518280, Note_on_c, 4, 45, 126
1, 518281, Note_off_c, 1, 85, 64
1, 518281, Note_on_c, 2, 69, 127
1, 518291, Note_on_c, 3, 81, 127
1, 518297, Note_on_c, 4, 49, 127
1, 518304, Note_off_c, 4, 57, 64
1, 518314, Note_on_c, 4, 52, 127
1, 518329, Note_on_c, 4, 57, 127
1, 518340, Note_off_c, 4, 45, 64
1, 518348, Note_off_c, 2, 73, 64
1, 518373, Note_off_c, 4, 49, 64
1, 518378, Note_off_c, 4, 57, 64
1, 518380, Note_on_c, 1, 88, 127
1, 518381, Note_on_c, 4, 57, 127
1, 518381, Note_on_c, 2, 76, 127
1, 518391, Note_off_c, 3, 81, 64
1, 518445, Note_off_c, 2, 69, 64
1, 518459, Note_off_c, 4, 52, 64
1, 518475, Note_on_c, 4, 45, 127
1, 518488, Note_on_c, 2, 69, 127
1, 518492, Note_off_c, 1, 88, 64
1, 518499, Note_on_c, 3, 81, 127
1, 518542, Note_off_c, 2, 76, 64
1, 518653, Note_off_c, 2, 69, 64
1, 518665, Note_off_c, 4, 45, 64
1, 518668, Note_off_c, 4, 57, 64
1, 518675, Note_off_c, 3, 81, 64
1, 518676, Note_on_c, 4, 45, 120
1, 518686, Note_on_c, 4, 49, 118
1, 518695, Note_on_c, 4, 52, 118
1, 518703, Note_on_c, 4, 57, 118
1, 518714, Note_on_c, 2, 69, 127
1, 518722, Note_on_c, 2, 73, 127
1, 518734, Note_on_c, 2, 76, 127
1, 518739, Note_on_c, 3, 81, 127
1, 519072, Note_off_c, 4, 45, 64
1, 519082, Note_off_c, 4, 49, 64
1, 519082, Note_off_c, 4, 52, 64
1, 519088, Note_on_c, 4, 45, 120
1, 519108, Note_on_c, 4, 49, 122
1, 519122, Note_off_c, 4, 57, 64
1, 519131, Note_on_c, 4, 52, 122
1, 519145, Note_off_c, 2, 69, 64
1, 519146, Note_on_c, 4, 57, 124
1, 519150, Note_off_c, 2, 73, 64
1, 519152, Note_on_c, 2, 69, 127
1, 519158, Note_off_c, 2, 76, 64
1, 519158, Note_on_c, 2, 73, 127
1, 519161, Note_off_c, 3, 81, 64
1, 519165, Note_on_c, 2, 76, 127
1, 519168, Note_on_c, 3, 81, 127
1, 522762, Note_off_c, 4, 45, 64
1, 522777, Note_off_c, 4, 49, 64
1, 522798, Note_off_c, 4, 52, 64
1, 522816, Note_off_c, 4, 57, 64
1, 522835, Note_off_c, 2, 69, 64
1, 522852, Note_off_c, 2, 73, 64
1, 522873, Note_off_c, 2, 76, 64
1, 522887, Note_off_c, 3, 81, 64
1, 522887, End_track
0, 0, End_of_file
