0, 0, Header, 0, 1, 240
1, 0, Start_track
1, 0, Time_signature, 1, 2, 24, 8
1, 0, Tempo, 500000
1, 0, Program_c, 0, 0
1, 0, Control_c, 0, 7, 127
1, 0, Control_c, 0, 10, 76
1, 0, Program_c, 1, 0
1, 0, Control_c, 1, 7, 127
1, 0, Control_c, 1, 10, 75
1, 0, Program_c, 2, 0
1, 0, Control_c, 2, 7, 127
1, 0, Control_c, 2, 10, 74
1, 0, Program_c, 3, 0
1, 0, Control_c, 3, 7, 127
1, 0, Control_c, 3, 10, 66
1, 0, Program_c, 4, 0
1, 0, Control_c, 4, 7, 127
1, 0, Control_c, 4, 10, 58
1, 108, Marker_t, "Mozart PS No.4 in EfM, K.282 (189g) Interpreted/Copyright 1998-99 S D Rodrian"
1, 120, Control_c, 0, 32, 0
1, 120, Control_c, 0, 10, 77
1, 120, Control_c, 0, 7, 127
1, 120, Control_c, 0, 91, 91
1, 120, Control_c, 0, 64, 0
1, 120, Control_c, 0, 93, 28
1, 120, Control_c, 0, 0, 0
1, 360, Control_c, 1, 32, 0
1, 360, Control_c, 1, 10, 76
1, 360, Control_c, 1, 7, 127
1, 360, Control_c, 1, 91, 91
1, 360, Control_c, 1, 64, 0
1, 360, Control_c, 1, 93, 28
1, 360, Control_c, 1, 0, 0
1, 636, Control_c, 2, 32, 0
1, 636, Control_c, 2, 10, 75
1, 636, Control_c, 2, 93, 28
1, 636, Control_c, 2, 64, 0
1, 636, Control_c, 2, 91, 91
1, 636, Control_c, 2, 7, 127
1, 636, Control_c, 2, 0, 0
1, 888, Control_c, 3, 32, 0
1, 888, Control_c, 3, 10, 67
1, 888, Control_c, 3, 93, 28
1, 888, Control_c, 3, 64, 0
1, 888, Control_c, 3, 91, 91
1, 888, Control_c, 3, 7, 127
1, 888, Control_c, 3, 0, 0
1, 1116, Control_c, 4, 32, 0
1, 1116, Control_c, 4, 10, 58
1, 1116, Control_c, 4, 93, 28
1, 1116, Control_c, 4, 91, 91
1, 1116, Control_c, 4, 64, 0
1, 1116, Control_c, 4, 7, 127
1, 1116, Control_c, 4, 0, 0
1, 2354, Note_on_c, 4, 67, 121
1, 2354, Note_on_c, 2, 70, 119
1, 2355, Note_on_c, 4, 63, 127
1, 2700, Note_on_c, 2, 72, 120
1, 2796, Note_off_c, 2, 70, 64
1, 2796, Note_off_c, 4, 67, 64
1, 2796, Note_off_c, 4, 63, 64
1, 2814, Note_on_c, 2, 70, 119
1, 2815, Note_on_c, 4, 63, 127
1, 2817, Note_on_c, 4, 67, 121
1, 2832, Note_off_c, 2, 72, 64
1, 3270, Note_off_c, 2, 70, 64
1, 3272, Note_off_c, 4, 63, 64
1, 3274, Note_off_c, 4, 67, 64
1, 3274, Note_on_c, 4, 62, 127
1, 3276, Note_on_c, 4, 65, 127
1, 3494, Note_on_c, 2, 70, 119
1, 3712, Note_on_c, 2, 75, 120
1, 3714, Note_on_c, 4, 67, 121
1, 3715, Note_on_c, 4, 60, 127
1, 3734, Note_off_c, 2, 70, 64
1, 3919, Note_off_c, 2, 75, 64
1, 3922, Note_off_c, 4, 67, 64
1, 3924, Note_on_c, 2, 75, 120
1, 3928, Note_on_c, 2, 69, 119
1, 4136, Note_off_c, 2, 75, 64
1, 4140, Note_off_c, 2, 69, 64
1, 4141, Note_on_c, 2, 75, 120
1, 4145, Note_off_c, 4, 60, 64
1, 4145, Note_on_c, 4, 58, 127
1, 4145, Note_on_c, 2, 70, 119
1, 4254, Note_on_c, 2, 74, 120
1, 4261, Note_off_c, 2, 75, 64
1, 4357, Note_off_c, 2, 74, 64
1, 4357, Note_on_c, 2, 72, 120
1, 4452, Note_off_c, 2, 70, 64
1, 4466, Note_off_c, 2, 72, 64
1, 4467, Note_on_c, 2, 70, 119
1, 4560, Note_off_c, 4, 58, 64
1, 4566, Note_off_c, 2, 70, 64
1, 4567, Note_on_c, 2, 70, 119
1, 4569, Note_off_c, 4, 62, 64
1, 4571, Note_off_c, 4, 65, 64
1, 4572, Note_on_c, 4, 58, 127
1, 4572, Note_on_c, 4, 62, 127
1, 4908, Marker_t, "Copyright 1998-99 (P) S.D.Rodrian -  NOT to be reproduced or sold sans permission !"
1, 4969, Note_off_c, 4, 62, 64
1, 4981, Note_on_c, 2, 74, 120
1, 4985, Note_on_c, 4, 64, 127
1, 5094, Note_on_c, 2, 72, 120
1, 5101, Note_off_c, 2, 74, 64
1, 5131, Note_off_c, 2, 70, 64
1, 5187, Note_off_c, 2, 72, 64
1, 5201, Note_on_c, 2, 72, 120
1, 5423, Note_off_c, 4, 64, 64
1, 5423, Note_on_c, 4, 65, 127
1, 5424, Note_off_c, 4, 58, 64
1, 5424, Note_on_c, 4, 56, 127
1, 5637, Note_off_c, 2, 72, 64
1, 5638, Note_on_c, 2, 77, 120
1, 5752, Note_on_c, 2, 74, 120
1, 5772, Note_off_c, 2, 77, 64
1, 5855, Note_on_c, 2, 72, 120
1, 5858, Note_on_c, 4, 62, 127
1, 5871, Note_off_c, 2, 74, 64
1, 5953, Note_on_c, 2, 70, 119
1, 5971, Note_off_c, 2, 72, 64
1, 6043, Note_off_c, 2, 70, 64
1, 6057, Note_on_c, 2, 70, 119
1, 6281, Note_off_c, 4, 56, 64
1, 6281, Note_off_c, 4, 62, 64
1, 6282, Note_off_c, 4, 65, 64
1, 6282, Note_on_c, 4, 63, 127
1, 6283, Note_on_c, 4, 55, 127
1, 6502, Note_on_c, 2, 75, 120
1, 6506, Note_off_c, 2, 70, 64
1, 6629, Note_off_c, 2, 75, 64
1, 6629, Note_on_c, 2, 70, 119
1, 6729, Note_off_c, 2, 70, 64
1, 6736, Note_on_c, 2, 70, 119
1, 6741, Note_off_c, 4, 55, 64
1, 6743, Note_on_c, 4, 53, 127
1, 7139, Note_on_c, 4, 62, 127
1, 7140, Note_off_c, 4, 63, 64
1, 7141, Note_on_c, 4, 58, 127
1, 7142, Note_off_c, 4, 53, 64
1, 7332, Note_off_c, 2, 70, 64
1, 7350, Note_on_c, 2, 70, 119
1, 7409, Note_on_c, 2, 68, 119
1, 7415, Note_off_c, 2, 70, 64
1, 7459, Note_on_c, 2, 70, 119
1, 7466, Note_off_c, 2, 68, 64
1, 7512, Note_on_c, 2, 68, 119
1, 7519, Note_off_c, 2, 70, 64
1, 7549, Note_off_c, 4, 62, 64
1, 7551, Note_off_c, 4, 58, 64
1, 7564, Note_on_c, 4, 67, 121
1, 7565, Note_on_c, 4, 51, 127
1, 7571, Note_off_c, 2, 68, 64
1, 7678, Note_on_c, 4, 55, 127
1, 7790, Note_on_c, 4, 58, 127
1, 7814, Note_off_c, 4, 51, 64
1, 7902, Note_on_c, 4, 63, 127
1, 7925, Note_off_c, 4, 55, 64
1, 8008, Note_off_c, 4, 67, 64
1, 8008, Note_on_c, 2, 70, 123
1, 8009, Note_on_c, 4, 51, 127
1, 8032, Note_off_c, 4, 58, 64
1, 8117, Note_on_c, 4, 55, 127
1, 8140, Note_off_c, 4, 63, 64
1, 8224, Note_on_c, 4, 58, 127
1, 8247, Note_off_c, 4, 51, 64
1, 8332, Note_on_c, 4, 63, 127
1, 8355, Note_off_c, 4, 55, 64
1, 8440, Note_on_c, 4, 51, 127
1, 8462, Note_off_c, 4, 58, 64
1, 8547, Note_on_c, 4, 55, 127
1, 8570, Note_off_c, 4, 63, 64
1, 8657, Note_off_c, 2, 70, 64
1, 8657, Note_on_c, 4, 58, 127
1, 8657, Note_on_c, 2, 75, 120
1, 8682, Note_off_c, 4, 51, 64
1, 8712, Note_on_c, 2, 77, 120
1, 8720, Note_off_c, 2, 75, 64
1, 8769, Note_on_c, 1, 79, 117
1, 8771, Note_on_c, 4, 63, 127
1, 8777, Note_off_c, 2, 77, 64
1, 8795, Note_off_c, 4, 55, 64
1, 8879, Note_on_c, 2, 77, 120
1, 8880, Note_on_c, 4, 51, 127
1, 8904, Note_off_c, 4, 58, 64
1, 8904, Note_off_c, 1, 79, 64
1, 8988, Note_on_c, 4, 55, 127
1, 9011, Note_off_c, 4, 63, 64
1, 9094, Note_off_c, 2, 77, 64
1, 9094, Note_on_c, 2, 75, 120
1, 9096, Note_on_c, 4, 58, 127
1, 9119, Note_off_c, 4, 51, 64
1, 9207, Note_on_c, 4, 63, 127
1, 9231, Note_off_c, 4, 55, 64
1, 9311, Note_off_c, 2, 75, 64
1, 9311, Note_on_c, 2, 77, 120
1, 9316, Note_on_c, 4, 53, 127
1, 9364, Note_off_c, 4, 58, 64
1, 9392, Note_on_c, 2, 75, 120
1, 9398, Note_off_c, 2, 77, 64
1, 9440, Note_on_c, 4, 56, 127
1, 9440, Note_on_c, 2, 77, 120
1, 9445, Note_off_c, 2, 75, 64
1, 9463, Note_off_c, 4, 63, 64
1, 9490, Note_on_c, 2, 75, 120
1, 9497, Note_off_c, 2, 77, 64
1, 9539, Note_on_c, 2, 77, 120
1, 9541, Note_on_c, 4, 62, 127
1, 9548, Note_off_c, 2, 75, 64
1, 9567, Note_off_c, 4, 53, 64
1, 9593, Note_on_c, 2, 75, 120
1, 9600, Note_off_c, 2, 77, 64
1, 9645, Note_on_c, 4, 65, 127
1, 9645, Note_on_c, 2, 77, 120
1, 9653, Note_off_c, 2, 75, 64
1, 9674, Note_off_c, 4, 56, 64
1, 9700, Note_on_c, 2, 75, 120
1, 9707, Note_off_c, 2, 77, 64
1, 9753, Note_on_c, 2, 74, 120
1, 9755, Note_on_c, 4, 53, 127
1, 9760, Note_off_c, 2, 75, 64
1, 9777, Note_off_c, 4, 62, 64
1, 9862, Note_on_c, 4, 56, 127
1, 9883, Note_off_c, 4, 65, 64
1, 9973, Note_on_c, 4, 62, 127
1, 9997, Note_off_c, 4, 53, 64
1, 10084, Note_on_c, 4, 65, 127
1, 10111, Note_off_c, 4, 56, 64
1, 10200, Note_on_c, 4, 53, 127
1, 10225, Note_off_c, 4, 62, 64
1, 10315, Note_on_c, 4, 56, 127
1, 10337, Note_off_c, 4, 65, 64
1, 10406, Note_off_c, 2, 74, 64
1, 10426, Note_on_c, 2, 77, 115
1, 10427, Note_on_c, 4, 62, 127
1, 10451, Note_off_c, 4, 53, 64
1, 10482, Note_on_c, 1, 79, 112
1, 10488, Note_off_c, 2, 77, 64
1, 10538, Note_on_c, 4, 65, 127
1, 10538, Note_on_c, 1, 80, 112
1, 10545, Note_off_c, 1, 79, 64
1, 10563, Note_off_c, 4, 56, 64
1, 10645, Note_on_c, 1, 79, 112
1, 10647, Note_on_c, 4, 53, 127
1, 10670, Note_off_c, 4, 62, 64
1, 10677, Note_off_c, 1, 80, 64
1, 10680, Marker_t, "This file may be freely distributed on the WWW, as long as it's not modified. SDR"
1, 10752, Note_on_c, 4, 56, 127
1, 10774, Note_off_c, 4, 65, 64
1, 10857, Note_off_c, 1, 79, 64
1, 10857, Note_on_c, 2, 77, 115
1, 10858, Note_on_c, 4, 62, 127
1, 10881, Note_off_c, 4, 53, 64
1, 10965, Note_on_c, 4, 65, 127
1, 10992, Note_off_c, 4, 56, 64
1, 11078, Note_off_c, 2, 77, 64
1, 11079, Note_on_c, 1, 79, 112
1, 11081, Note_on_c, 4, 55, 127
1, 11117, Note_off_c, 4, 62, 64
1, 11152, Note_on_c, 2, 77, 115
1, 11159, Note_off_c, 1, 79, 64
1, 11200, Note_on_c, 1, 79, 112
1, 11202, Note_on_c, 4, 58, 127
1, 11208, Note_off_c, 2, 77, 64
1, 11226, Note_off_c, 4, 65, 64
1, 11257, Note_on_c, 2, 77, 115
1, 11263, Note_off_c, 1, 79, 64
1, 11305, Note_on_c, 1, 79, 112
1, 11306, Note_on_c, 4, 63, 127
1, 11312, Note_off_c, 2, 77, 64
1, 11329, Note_off_c, 4, 55, 64
1, 11360, Note_on_c, 2, 77, 115
1, 11366, Note_off_c, 1, 79, 64
1, 11405, Note_on_c, 4, 67, 121
1, 11405, Note_on_c, 1, 79, 112
1, 11412, Note_off_c, 2, 77, 64
1, 11428, Note_off_c, 4, 58, 64
1, 11457, Note_on_c, 2, 77, 115
1, 11463, Note_off_c, 1, 79, 64
1, 11508, Note_on_c, 2, 75, 115
1, 11509, Note_on_c, 4, 55, 127
1, 11515, Note_off_c, 2, 77, 64
1, 11532, Note_off_c, 4, 63, 64
1, 11618, Note_on_c, 4, 58, 127
1, 11639, Note_off_c, 4, 67, 64
1, 11726, Note_on_c, 4, 63, 127
1, 11750, Note_off_c, 4, 55, 64
1, 11834, Note_on_c, 4, 67, 121
1, 11859, Note_off_c, 4, 58, 64
1, 11945, Note_on_c, 4, 54, 127
1, 11968, Note_off_c, 4, 63, 64
1, 12054, Note_on_c, 4, 58, 127
1, 12076, Note_off_c, 4, 67, 64
1, 12162, Note_off_c, 2, 75, 64
1, 12163, Note_on_c, 2, 77, 115
1, 12164, Note_on_c, 4, 63, 127
1, 12188, Note_off_c, 4, 54, 64
1, 12218, Note_on_c, 2, 75, 115
1, 12226, Note_off_c, 2, 77, 64
1, 12274, Note_on_c, 4, 66, 125
1, 12274, Note_on_c, 2, 74, 115
1, 12280, Note_off_c, 2, 75, 64
1, 12300, Note_off_c, 4, 58, 64
1, 12328, Note_on_c, 2, 75, 115
1, 12336, Note_off_c, 2, 74, 64
1, 12384, Note_on_c, 2, 77, 115
1, 12386, Note_on_c, 4, 54, 127
1, 12392, Note_off_c, 2, 75, 64
1, 12410, Note_off_c, 4, 63, 64
1, 12495, Note_on_c, 4, 58, 127
1, 12516, Note_off_c, 4, 66, 64
1, 12600, Note_on_c, 1, 78, 112
1, 12602, Note_on_c, 4, 63, 127
1, 12623, Note_off_c, 2, 77, 64
1, 12624, Note_off_c, 4, 54, 64
1, 12706, Note_on_c, 4, 66, 125
1, 12731, Note_off_c, 4, 58, 64
1, 12809, Note_on_c, 2, 70, 119
1, 12810, Note_on_c, 4, 53, 127
1, 12831, Note_off_c, 1, 78, 64
1, 12833, Note_off_c, 4, 63, 64
1, 12918, Note_on_c, 4, 57, 127
1, 12939, Note_off_c, 4, 66, 64
1, 12970, Note_off_c, 2, 70, 64
1, 13024, Note_on_c, 2, 69, 119
1, 13026, Note_on_c, 4, 60, 127
1, 13048, Note_off_c, 4, 53, 64
1, 13133, Note_on_c, 4, 63, 127
1, 13156, Note_off_c, 4, 57, 64
1, 13241, Note_on_c, 4, 53, 127
1, 13264, Note_off_c, 4, 60, 64
1, 13348, Note_off_c, 2, 69, 64
1, 13350, Note_on_c, 4, 57, 127
1, 13374, Note_off_c, 4, 63, 64
1, 13458, Note_on_c, 2, 72, 120
1, 13460, Note_on_c, 4, 60, 127
1, 13483, Note_off_c, 4, 53, 64
1, 13568, Note_on_c, 4, 63, 127
1, 13592, Note_off_c, 4, 57, 64
1, 13676, Note_on_c, 2, 75, 120
1, 13678, Note_on_c, 4, 52, 127
1, 13700, Note_off_c, 2, 72, 64
1, 13702, Note_off_c, 4, 60, 64
1, 13787, Note_on_c, 4, 55, 127
1, 13810, Note_off_c, 4, 63, 64
1, 13891, Note_on_c, 2, 73, 120
1, 13893, Note_on_c, 4, 58, 127
1, 13914, Note_off_c, 2, 75, 64
1, 13916, Note_off_c, 4, 52, 64
1, 13998, Note_on_c, 4, 61, 127
1, 14021, Note_off_c, 4, 55, 64
1, 14106, Note_on_c, 4, 52, 127
1, 14127, Note_off_c, 4, 58, 64
1, 14212, Note_on_c, 4, 55, 127
1, 14233, Note_off_c, 4, 61, 64
1, 14314, Note_off_c, 2, 73, 64
1, 14315, Note_on_c, 2, 70, 119
1, 14318, Note_on_c, 4, 58, 127
1, 14341, Note_off_c, 4, 52, 64
1, 14424, Note_on_c, 4, 61, 127
1, 14447, Note_off_c, 4, 55, 64
1, 14455, Note_off_c, 2, 70, 64
1, 14523, Note_on_c, 2, 69, 119
1, 14527, Note_off_c, 4, 61, 64
1, 14530, Note_on_c, 4, 53, 127
1, 14531, Note_on_c, 4, 60, 127
1, 14551, Note_off_c, 4, 58, 64
1, 14636, Note_on_c, 2, 70, 119
1, 14640, Note_on_c, 4, 61, 127
1, 14655, Note_off_c, 2, 69, 64
1, 14662, Note_off_c, 4, 60, 64
1, 14741, Note_on_c, 2, 69, 119
1, 14745, Note_on_c, 4, 60, 127
1, 14760, Note_off_c, 2, 70, 64
1, 14763, Note_off_c, 4, 61, 64
1, 14854, Note_on_c, 2, 73, 120
1, 14857, Note_on_c, 4, 58, 127
1, 14873, Note_off_c, 2, 69, 64
1, 14876, Note_off_c, 4, 60, 64
1, 14960, Note_on_c, 2, 72, 120
1, 14964, Note_on_c, 4, 57, 127
1, 14978, Note_off_c, 2, 73, 64
1, 14981, Note_off_c, 4, 58, 64
1, 15070, Note_on_c, 2, 70, 119
1, 15070, Note_on_c, 2, 76, 120
1, 15073, Note_on_c, 4, 61, 127
1, 15089, Note_off_c, 2, 72, 64
1, 15093, Note_off_c, 4, 57, 64
1, 15179, Note_on_c, 2, 77, 120
1, 15179, Note_on_c, 2, 69, 119
1, 15182, Note_on_c, 4, 60, 127
1, 15197, Note_off_c, 2, 76, 64
1, 15197, Note_off_c, 2, 70, 64
1, 15200, Note_off_c, 4, 61, 64
1, 15295, Note_on_c, 2, 73, 120
1, 15298, Note_on_c, 4, 58, 127
1, 15300, Note_on_c, 4, 64, 127
1, 15313, Note_off_c, 2, 69, 64
1, 15313, Note_off_c, 2, 77, 64
1, 15316, Note_off_c, 4, 60, 64
1, 15395, Note_off_c, 2, 73, 64
1, 15397, Note_off_c, 4, 58, 64
1, 15405, Note_off_c, 4, 64, 64
1, 15407, Note_on_c, 2, 73, 120
1, 15408, Note_on_c, 4, 58, 127
1, 15411, Note_on_c, 4, 64, 127
1, 15504, Marker_t, "SDRodrian@aol.com  626 Lalor Trenton NJ 08611 http://members.aol.com/sdrodrian"
1, 15832, Note_off_c, 2, 73, 64
1, 15833, Note_on_c, 2, 72, 113
1, 15834, Note_off_c, 4, 58, 64
1, 15834, Note_on_c, 4, 57, 125
1, 15836, Note_off_c, 4, 64, 64
1, 15836, Note_on_c, 4, 65, 122
1, 16282, Note_off_c, 2, 72, 64
1, 16284, Note_off_c, 4, 57, 64
1, 16284, Note_on_c, 4, 58, 125
1, 16285, Note_off_c, 4, 65, 64
1, 16306, Note_off_c, 4, 53, 64
1, 16398, Note_on_c, 4, 65, 122
1, 16400, Note_on_c, 4, 62, 126
1, 16476, Note_off_c, 4, 65, 64
1, 16516, Note_on_c, 4, 65, 122
1, 16591, Note_off_c, 4, 65, 64
1, 16612, Note_off_c, 4, 62, 64
1, 16629, Note_on_c, 4, 65, 122
1, 16630, Note_on_c, 4, 62, 126
1, 16732, Note_off_c, 4, 58, 64
1, 16743, Note_on_c, 4, 58, 125
1, 16828, Note_off_c, 4, 65, 64
1, 16830, Note_off_c, 4, 62, 64
1, 16845, Note_on_c, 3, 70, 119
1, 16846, Note_on_c, 4, 65, 127
1, 16847, Note_on_c, 4, 62, 127
1, 16914, Note_off_c, 4, 65, 64
1, 16915, Note_off_c, 4, 62, 64
1, 16951, Note_on_c, 2, 74, 120
1, 16951, Note_on_c, 4, 65, 127
1, 16953, Note_on_c, 4, 62, 127
1, 16969, Note_off_c, 3, 70, 64
1, 17023, Note_off_c, 4, 65, 64
1, 17025, Note_off_c, 4, 62, 64
1, 17059, Note_on_c, 2, 77, 120
1, 17060, Note_on_c, 4, 65, 127
1, 17062, Note_on_c, 4, 62, 127
1, 17076, Note_off_c, 2, 74, 64
1, 17130, Note_off_c, 4, 65, 64
1, 17131, Note_off_c, 4, 62, 64
1, 17157, Note_off_c, 2, 77, 64
1, 17158, Note_off_c, 4, 58, 64
1, 17168, Note_on_c, 2, 77, 120
1, 17170, Note_on_c, 4, 60, 127
1, 17281, Note_on_c, 2, 75, 116
1, 17281, Note_on_c, 4, 65, 127
1, 17283, Note_on_c, 4, 63, 127
1, 17297, Note_off_c, 2, 77, 64
1, 17349, Note_off_c, 4, 65, 64
1, 17350, Note_off_c, 4, 63, 64
1, 17383, Note_on_c, 3, 72, 112
1, 17383, Note_on_c, 4, 65, 120
1, 17385, Note_on_c, 4, 63, 124
1, 17401, Note_off_c, 2, 75, 64
1, 17457, Note_off_c, 4, 65, 64
1, 17459, Note_off_c, 4, 63, 64
1, 17496, Note_on_c, 4, 65, 120
1, 17496, Note_on_c, 3, 69, 115
1, 17498, Note_on_c, 4, 63, 124
1, 17515, Note_off_c, 3, 72, 64
1, 17599, Note_off_c, 4, 60, 64
1, 17610, Note_on_c, 4, 60, 127
1, 17629, Note_off_c, 3, 69, 64
1, 17702, Note_off_c, 4, 65, 64
1, 17703, Note_off_c, 4, 63, 64
1, 17720, Note_on_c, 3, 69, 119
1, 17721, Note_on_c, 4, 65, 127
1, 17722, Note_on_c, 4, 63, 127
1, 17794, Note_off_c, 4, 65, 64
1, 17796, Note_off_c, 4, 63, 64
1, 17830, Note_on_c, 2, 72, 120
1, 17830, Note_on_c, 4, 65, 127
1, 17832, Note_on_c, 4, 63, 127
1, 17847, Note_off_c, 3, 69, 64
1, 17899, Note_off_c, 4, 65, 64
1, 17900, Note_off_c, 4, 63, 64
1, 17934, Note_on_c, 2, 75, 120
1, 17935, Note_on_c, 4, 65, 127
1, 17936, Note_on_c, 4, 63, 127
1, 17951, Note_off_c, 2, 72, 64
1, 18003, Note_off_c, 4, 65, 64
1, 18005, Note_off_c, 4, 63, 64
1, 18031, Note_off_c, 4, 60, 64
1, 18041, Note_on_c, 1, 79, 117
1, 18042, Note_on_c, 4, 58, 127
1, 18060, Note_off_c, 2, 75, 64
1, 18153, Note_on_c, 2, 77, 120
1, 18154, Note_on_c, 4, 62, 127
1, 18155, Note_on_c, 4, 65, 127
1, 18171, Note_off_c, 1, 79, 64
1, 18221, Note_off_c, 4, 62, 64
1, 18222, Note_off_c, 4, 65, 64
1, 18259, Note_on_c, 3, 74, 120
1, 18259, Note_on_c, 4, 65, 127
1, 18260, Note_on_c, 4, 62, 127
1, 18274, Note_off_c, 2, 77, 64
1, 18330, Note_off_c, 4, 65, 64
1, 18332, Note_off_c, 4, 62, 64
1, 18364, Note_on_c, 3, 70, 119
1, 18366, Note_on_c, 4, 65, 127
1, 18370, Note_on_c, 4, 62, 127
1, 18384, Note_off_c, 3, 74, 64
1, 18467, Note_off_c, 4, 58, 64
1, 18479, Note_on_c, 4, 58, 127
1, 18495, Note_off_c, 3, 70, 64
1, 18570, Note_off_c, 4, 65, 64
1, 18573, Note_off_c, 4, 62, 64
1, 18587, Note_on_c, 3, 70, 119
1, 18588, Note_on_c, 4, 65, 127
1, 18589, Note_on_c, 4, 62, 127
1, 18663, Note_off_c, 4, 65, 64
1, 18664, Note_off_c, 4, 62, 64
1, 18695, Note_on_c, 4, 65, 127
1, 18695, Note_on_c, 2, 74, 120
1, 18696, Note_on_c, 4, 62, 127
1, 18713, Note_off_c, 3, 70, 64
1, 18763, Note_off_c, 4, 65, 64
1, 18765, Note_off_c, 4, 62, 64
1, 18796, Note_on_c, 2, 77, 120
1, 18797, Note_on_c, 4, 65, 127
1, 18798, Note_on_c, 4, 62, 127
1, 18814, Note_off_c, 2, 74, 64
1, 18866, Note_off_c, 4, 65, 64
1, 18868, Note_off_c, 4, 62, 64
1, 18893, Note_off_c, 2, 77, 64
1, 18894, Note_off_c, 4, 58, 64
1, 18903, Note_on_c, 2, 77, 120
1, 18905, Note_on_c, 4, 60, 127
1, 19014, Note_on_c, 2, 75, 120
1, 19015, Note_on_c, 4, 65, 127
1, 19016, Note_on_c, 4, 63, 127
1, 19032, Note_off_c, 2, 77, 64
1, 19083, Note_off_c, 4, 65, 64
1, 19084, Note_off_c, 4, 63, 64
1, 19117, Note_on_c, 3, 72, 120
1, 19117, Note_on_c, 4, 65, 127
1, 19119, Note_on_c, 4, 63, 127
1, 19133, Note_off_c, 2, 75, 64
1, 19186, Note_off_c, 4, 65, 64
1, 19188, Note_off_c, 4, 63, 64
1, 19222, Note_on_c, 3, 69, 119
1, 19222, Note_on_c, 4, 65, 127
1, 19224, Note_on_c, 4, 63, 127
1, 19239, Note_off_c, 3, 72, 64
1, 19320, Note_off_c, 4, 60, 64
1, 19332, Note_on_c, 4, 60, 127
1, 19348, Note_off_c, 3, 69, 64
1, 19420, Note_off_c, 4, 65, 64
1, 19422, Note_off_c, 4, 63, 64
1, 19439, Note_on_c, 4, 65, 127
1, 19439, Note_on_c, 3, 69, 119
1, 19440, Note_on_c, 4, 63, 127
1, 19512, Note_off_c, 4, 65, 64
1, 19514, Note_off_c, 4, 63, 64
1, 19548, Note_on_c, 2, 72, 120
1, 19548, Note_on_c, 4, 65, 127
1, 19550, Note_on_c, 4, 63, 127
1, 19567, Note_off_c, 3, 69, 64
1, 19621, Note_off_c, 4, 65, 64
1, 19623, Note_off_c, 4, 63, 64
1, 19656, Note_on_c, 4, 65, 127
1, 19656, Note_on_c, 2, 75, 120
1, 19657, Note_on_c, 4, 63, 127
1, 19673, Note_off_c, 2, 72, 64
1, 19723, Note_off_c, 4, 65, 64
1, 19725, Note_off_c, 4, 63, 64
1, 19748, Note_off_c, 4, 60, 64
1, 19757, Note_on_c, 1, 79, 117
1, 19758, Note_on_c, 4, 58, 127
1, 19775, Note_off_c, 2, 75, 64
1, 19866, Note_on_c, 4, 65, 127
1, 19866, Note_on_c, 2, 77, 120
1, 19870, Note_on_c, 4, 62, 127
1, 19884, Note_off_c, 1, 79, 64
1, 19933, Note_off_c, 4, 65, 64
1, 19936, Note_off_c, 4, 62, 64
1, 19966, Note_on_c, 3, 74, 120
1, 19967, Note_on_c, 4, 65, 127
1, 19969, Note_on_c, 4, 62, 127
1, 19981, Note_off_c, 2, 77, 64
1, 20036, Note_off_c, 4, 65, 64
1, 20040, Note_off_c, 4, 62, 64
1, 20075, Note_on_c, 4, 65, 127
1, 20075, Note_on_c, 3, 70, 119
1, 20077, Note_on_c, 4, 62, 127
1, 20094, Note_off_c, 3, 74, 64
1, 20184, Note_off_c, 4, 58, 64
1, 20198, Note_on_c, 4, 46, 127
1, 20215, Note_off_c, 3, 70, 64
1, 20308, Note_off_c, 4, 65, 64
1, 20308, Note_on_c, 2, 77, 120
1, 20310, Note_on_c, 4, 50, 127
1, 20311, Note_off_c, 4, 62, 64
1, 20330, Note_off_c, 4, 46, 64
1, 20384, Note_off_c, 2, 77, 64
1, 20418, Note_on_c, 2, 76, 120
1, 20420, Note_on_c, 4, 48, 127
1, 20437, Note_off_c, 4, 50, 64
1, 20471, Note_on_c, 2, 77, 120
1, 20488, Note_off_c, 2, 76, 64
1, 20521, Note_on_c, 1, 81, 117
1, 20522, Note_on_c, 4, 51, 127
1, 20537, Note_off_c, 2, 77, 64
1, 20539, Note_off_c, 4, 48, 64
1, 20574, Note_on_c, 2, 77, 120
1, 20592, Note_off_c, 1, 81, 64
1, 20625, Note_on_c, 1, 82, 117
1, 20628, Note_on_c, 4, 50, 127
1, 20644, Note_off_c, 2, 77, 64
1, 20646, Note_off_c, 4, 51, 64
1, 20737, Note_on_c, 2, 77, 120
1, 20741, Note_on_c, 4, 53, 127
1, 20756, Note_off_c, 1, 82, 64
1, 20772, Marker_t, "1121 Deutz Ave Trenton NJ 08611 http://www.geocities.com/Paris/LeftBank/3214"
1, 20831, Note_off_c, 2, 77, 64
1, 20850, Note_on_c, 2, 77, 120
1, 20852, Note_on_c, 4, 58, 127
1, 20878, Note_off_c, 4, 50, 64
1, 20964, Note_on_c, 4, 62, 127
1, 20990, Note_off_c, 4, 53, 64
1, 21077, Note_on_c, 4, 50, 127
1, 21101, Note_off_c, 4, 58, 64
1, 21187, Note_off_c, 2, 77, 64
1, 21188, Note_on_c, 2, 74, 120
1, 21189, Note_on_c, 4, 53, 127
1, 21214, Note_off_c, 4, 62, 64
1, 21300, Note_on_c, 2, 77, 120
1, 21301, Note_on_c, 4, 58, 127
1, 21318, Note_off_c, 2, 74, 64
1, 21325, Note_off_c, 4, 50, 64
1, 21357, Note_on_c, 2, 74, 120
1, 21374, Note_off_c, 2, 77, 64
1, 21405, Note_on_c, 2, 77, 120
1, 21407, Note_on_c, 4, 62, 127
1, 21423, Note_off_c, 2, 74, 64
1, 21430, Note_off_c, 4, 53, 64
1, 21458, Note_on_c, 2, 74, 120
1, 21474, Note_off_c, 2, 77, 64
1, 21509, Note_on_c, 1, 79, 117
1, 21511, Note_on_c, 4, 51, 127
1, 21527, Note_off_c, 2, 74, 64
1, 21534, Note_off_c, 4, 58, 64
1, 21618, Note_on_c, 2, 75, 120
1, 21620, Note_on_c, 4, 55, 127
1, 21636, Note_off_c, 1, 79, 64
1, 21643, Note_off_c, 4, 62, 64
1, 21716, Note_off_c, 2, 75, 64
1, 21726, Note_on_c, 2, 75, 120
1, 21728, Note_on_c, 4, 60, 127
1, 21752, Note_off_c, 4, 51, 64
1, 21840, Note_on_c, 4, 63, 127
1, 21864, Note_off_c, 4, 55, 64
1, 21952, Note_on_c, 4, 51, 127
1, 21976, Note_off_c, 4, 60, 64
1, 22063, Note_on_c, 2, 72, 120
1, 22065, Note_on_c, 4, 55, 127
1, 22074, Note_off_c, 2, 75, 64
1, 22090, Note_off_c, 4, 63, 64
1, 22171, Note_off_c, 2, 72, 64
1, 22171, Note_on_c, 2, 75, 120
1, 22172, Note_on_c, 4, 60, 127
1, 22194, Note_off_c, 4, 51, 64
1, 22224, Note_on_c, 2, 72, 120
1, 22241, Note_off_c, 2, 75, 64
1, 22273, Note_on_c, 2, 75, 120
1, 22275, Note_on_c, 4, 63, 127
1, 22292, Note_off_c, 2, 72, 64
1, 22299, Note_off_c, 4, 55, 64
1, 22327, Note_on_c, 2, 72, 120
1, 22345, Note_off_c, 2, 75, 64
1, 22377, Note_on_c, 2, 77, 120
1, 22379, Note_on_c, 4, 53, 127
1, 22395, Note_off_c, 2, 72, 64
1, 22402, Note_off_c, 4, 60, 64
1, 22488, Note_off_c, 2, 77, 64
1, 22489, Note_on_c, 2, 74, 120
1, 22490, Note_on_c, 4, 58, 127
1, 22514, Note_off_c, 4, 63, 64
1, 22603, Note_on_c, 4, 62, 127
1, 22626, Note_off_c, 4, 53, 64
1, 22657, Note_on_c, 2, 70, 119
1, 22672, Note_off_c, 2, 74, 64
1, 22706, Note_on_c, 2, 74, 120
1, 22707, Note_on_c, 4, 65, 127
1, 22726, Note_off_c, 2, 70, 64
1, 22733, Note_off_c, 4, 58, 64
1, 22765, Note_on_c, 2, 70, 119
1, 22783, Note_off_c, 2, 74, 64
1, 22814, Note_on_c, 2, 75, 120
1, 22816, Note_on_c, 4, 53, 127
1, 22832, Note_off_c, 2, 70, 64
1, 22839, Note_off_c, 4, 62, 64
1, 22924, Note_off_c, 2, 75, 64
1, 22925, Note_on_c, 2, 72, 120
1, 22926, Note_on_c, 4, 57, 127
1, 22948, Note_off_c, 4, 65, 64
1, 23040, Note_on_c, 4, 60, 127
1, 23064, Note_off_c, 4, 53, 64
1, 23095, Note_on_c, 2, 69, 119
1, 23108, Note_off_c, 2, 72, 64
1, 23150, Note_on_c, 2, 72, 120
1, 23151, Note_off_c, 4, 60, 64
1, 23151, Note_on_c, 4, 63, 127
1, 23156, Note_off_c, 2, 69, 64
1, 23175, Note_off_c, 4, 57, 64
1, 23207, Note_on_c, 2, 69, 119
1, 23214, Note_off_c, 2, 72, 64
1, 23256, Note_on_c, 2, 72, 120
1, 23257, Note_off_c, 4, 63, 64
1, 23258, Note_on_c, 4, 62, 124
1, 23259, Note_on_c, 4, 55, 125
1, 23263, Note_off_c, 2, 69, 64
1, 23312, Note_on_c, 2, 70, 119
1, 23320, Note_off_c, 2, 72, 64
1, 23368, Note_on_c, 2, 69, 119
1, 23376, Note_off_c, 2, 70, 64
1, 23422, Note_on_c, 2, 70, 119
1, 23429, Note_off_c, 2, 69, 64
1, 23475, Note_on_c, 2, 72, 120
1, 23483, Note_off_c, 2, 70, 64
1, 23580, Note_on_c, 2, 74, 115
1, 23596, Note_off_c, 2, 72, 64
1, 23702, Note_on_c, 2, 75, 115
1, 23721, Note_off_c, 2, 74, 64
1, 23814, Note_on_c, 2, 74, 115
1, 23833, Note_off_c, 2, 75, 64
1, 23869, Note_on_c, 2, 77, 115
1, 23922, Note_on_c, 2, 75, 115
1, 23940, Note_off_c, 2, 74, 64
1, 23976, Note_on_c, 1, 79, 112
1, 23995, Note_off_c, 2, 77, 64
1, 24032, Note_on_c, 2, 77, 115
1, 24050, Note_off_c, 2, 75, 64
1, 24084, Note_on_c, 1, 81, 112
1, 24101, Note_off_c, 1, 79, 64
1, 24130, Note_off_c, 4, 62, 64
1, 24135, Note_on_c, 2, 70, 119
1, 24135, Note_on_c, 1, 82, 112
1, 24137, Note_on_c, 4, 62, 127
1, 24139, Note_off_c, 4, 55, 64
1, 24152, Note_off_c, 1, 81, 64
1, 24153, Note_off_c, 2, 77, 64
1, 24188, Note_on_c, 2, 77, 115
1, 24207, Note_off_c, 1, 82, 64
1, 24243, Note_on_c, 2, 76, 115
1, 24262, Note_off_c, 2, 77, 64
1, 24298, Note_on_c, 2, 77, 115
1, 24314, Note_off_c, 2, 76, 64
1, 24347, Note_on_c, 1, 79, 112
1, 24363, Note_off_c, 2, 77, 64
1, 24396, Note_on_c, 2, 77, 115
1, 24416, Note_off_c, 1, 79, 64
1, 24453, Note_on_c, 2, 76, 115
1, 24471, Note_off_c, 2, 77, 64
1, 24508, Note_on_c, 2, 77, 115
1, 24525, Note_off_c, 2, 76, 64
1, 24545, Note_off_c, 4, 62, 64
1, 24550, Note_off_c, 2, 70, 64
1, 24561, Note_on_c, 2, 70, 112
1, 24562, Note_on_c, 4, 62, 124
1, 24580, Note_off_c, 2, 77, 64
1, 24617, Note_on_c, 2, 77, 115
1, 24673, Note_on_c, 2, 76, 115
1, 24692, Note_off_c, 2, 77, 64
1, 24730, Note_on_c, 2, 77, 115
1, 24748, Note_off_c, 2, 76, 64
1, 24768, Note_off_c, 4, 62, 64
1, 24774, Note_off_c, 2, 70, 64
1, 24784, Note_on_c, 2, 70, 119
1, 24786, Note_on_c, 4, 62, 127
1, 24803, Note_off_c, 2, 77, 64
1, 24838, Note_on_c, 2, 76, 115
1, 24893, Note_on_c, 2, 77, 115
1, 24910, Note_off_c, 2, 76, 64
1, 24945, Note_on_c, 1, 78, 112
1, 24963, Note_off_c, 2, 77, 64
1, 24982, Note_off_c, 4, 62, 64
1, 24987, Note_off_c, 2, 70, 64
1, 24996, Note_on_c, 1, 79, 112
1, 24996, Note_on_c, 2, 70, 112
1, 24997, Note_on_c, 4, 63, 124
1, 25014, Note_off_c, 1, 78, 64
1, 25049, Note_on_c, 2, 72, 120
1, 25068, Note_off_c, 1, 79, 64
1, 25105, Note_off_c, 2, 70, 64
1, 25105, Note_on_c, 2, 71, 119
1, 25121, Note_off_c, 2, 72, 64
1, 25156, Note_on_c, 2, 72, 120
1, 25172, Note_off_c, 2, 71, 64
1, 25205, Note_on_c, 2, 74, 120
1, 25222, Note_off_c, 2, 72, 64
1, 25259, Note_on_c, 2, 72, 120
1, 25277, Note_off_c, 2, 74, 64
1, 25311, Note_on_c, 2, 71, 119
1, 25331, Note_off_c, 2, 72, 64
1, 25367, Note_on_c, 2, 72, 120
1, 25385, Note_off_c, 2, 71, 64
1, 25412, Note_off_c, 4, 63, 64
1, 25421, Note_on_c, 2, 70, 119
1, 25422, Note_on_c, 4, 63, 127
1, 25436, Note_off_c, 2, 72, 64
1, 25471, Note_on_c, 2, 72, 120
1, 25489, Note_off_c, 2, 70, 64
1, 25527, Note_on_c, 2, 71, 119
1, 25544, Note_off_c, 2, 72, 64
1, 25576, Note_on_c, 2, 72, 120
1, 25594, Note_off_c, 2, 71, 64
1, 25629, Note_on_c, 2, 70, 119
1, 25631, Note_on_c, 4, 64, 127
1, 25647, Note_off_c, 2, 72, 64
1, 25654, Note_off_c, 4, 63, 64
1, 25683, Note_on_c, 2, 71, 119
1, 25702, Note_off_c, 2, 70, 64
1, 25740, Note_on_c, 2, 72, 120
1, 25759, Note_off_c, 2, 71, 64
1, 25796, Note_on_c, 2, 73, 120
1, 25814, Note_off_c, 2, 72, 64
1, 25852, Note_on_c, 2, 70, 119
1, 25852, Note_on_c, 2, 74, 120
1, 25854, Note_on_c, 4, 65, 127
1, 25871, Note_off_c, 2, 73, 64
1, 25879, Note_off_c, 4, 64, 64
1, 25964, Note_on_c, 2, 75, 120
1, 25983, Note_off_c, 2, 74, 64
1, 26077, Note_on_c, 2, 76, 120
1, 26096, Note_off_c, 2, 75, 64
1, 26190, Note_on_c, 2, 77, 120
1, 26207, Note_off_c, 2, 76, 64
1, 26300, Note_off_c, 2, 70, 64
1, 26301, Note_on_c, 2, 74, 120
1, 26338, Note_off_c, 2, 77, 64
1, 26380, Note_on_c, 2, 72, 120
1, 26402, Note_off_c, 2, 74, 64
1, 26442, Note_on_c, 2, 74, 120
1, 26460, Note_off_c, 2, 72, 64
1, 26494, Note_on_c, 2, 72, 120
1, 26517, Note_off_c, 2, 74, 64
1, 26548, Note_on_c, 4, 63, 127
1, 26548, Note_on_c, 2, 74, 120
1, 26550, Note_off_c, 4, 65, 64
1, 26550, Note_on_c, 4, 57, 127
1, 26551, Note_on_c, 4, 53, 127
1, 26566, Note_off_c, 2, 72, 64
1, 26609, Note_on_c, 2, 72, 120
1, 26623, Note_off_c, 2, 74, 64
1, 26652, Note_on_c, 2, 74, 120
1, 26669, Note_off_c, 2, 72, 64
1, 26722, Note_on_c, 2, 72, 120
1, 26741, Note_off_c, 2, 74, 64
1, 26784, Note_on_c, 2, 70, 112
1, 26788, Note_on_c, 4, 62, 124
1, 26790, Note_on_c, 4, 58, 125
1, 26802, Note_off_c, 2, 72, 64
1, 26808, Note_off_c, 4, 63, 64
1, 26809, Note_off_c, 4, 57, 64
1, 26809, Note_off_c, 4, 53, 64
1, 26890, Note_on_c, 4, 65, 127
1, 26891, Note_on_c, 4, 62, 127
1, 26910, Note_off_c, 2, 70, 64
1, 27001, Note_on_c, 4, 63, 127
1, 27002, Note_on_c, 4, 60, 127
1, 27005, Note_off_c, 4, 62, 64
1, 27020, Note_off_c, 4, 65, 64
1, 27029, Note_off_c, 4, 62, 64
1, 27031, Note_off_c, 4, 58, 64
1, 27119, Note_on_c, 4, 62, 127
1, 27120, Note_on_c, 4, 58, 127
1, 27137, Note_off_c, 4, 63, 64
1, 27137, Note_off_c, 4, 60, 64
1, 27230, Note_on_c, 2, 69, 119
1, 27266, Note_on_c, 2, 72, 120
1, 27300, Note_on_c, 2, 75, 120
1, 27318, Note_off_c, 2, 69, 64
1, 27344, Note_off_c, 2, 72, 64
1, 27355, Note_on_c, 4, 60, 127
1, 27356, Note_on_c, 4, 57, 127
1, 27378, Note_off_c, 4, 62, 64
1, 27379, Note_off_c, 4, 58, 64
1, 27469, Note_on_c, 4, 58, 127
1, 27471, Note_on_c, 4, 55, 127
1, 27488, Note_off_c, 4, 60, 64
1, 27490, Note_off_c, 4, 57, 64
1, 27589, Note_on_c, 4, 57, 127
1, 27591, Note_on_c, 4, 53, 127
1, 27611, Note_off_c, 4, 58, 64
1, 27613, Note_off_c, 4, 55, 64
1, 27707, Note_on_c, 2, 74, 120
1, 27708, Note_on_c, 4, 58, 127
1, 27709, Note_on_c, 4, 46, 127
1, 27725, Note_off_c, 4, 57, 64
1, 27727, Note_off_c, 4, 53, 64
1, 27751, Note_off_c, 2, 75, 64
1, 27781, Note_off_c, 4, 58, 64
1, 27816, Note_on_c, 4, 58, 127
1, 27869, Note_on_c, 4, 62, 127
1, 27887, Note_off_c, 4, 58, 64
1, 27918, Note_on_c, 4, 60, 127
1, 27936, Note_off_c, 4, 62, 64
1, 27972, Note_on_c, 4, 63, 127
1, 27989, Note_off_c, 4, 60, 64
1, 28020, Note_on_c, 4, 62, 127
1, 28036, Note_off_c, 4, 63, 64
1, 28073, Note_on_c, 3, 65, 127
1, 28091, Note_off_c, 4, 62, 64
1, 28123, Note_on_c, 4, 63, 127
1, 28142, Note_off_c, 3, 65, 64
1, 28179, Note_on_c, 3, 67, 121
1, 28198, Note_off_c, 4, 63, 64
1, 28230, Note_on_c, 3, 65, 127
1, 28248, Note_off_c, 3, 67, 64
1, 28288, Note_on_c, 3, 68, 119
1, 28304, Note_off_c, 3, 65, 64
1, 28336, Note_on_c, 3, 67, 121
1, 28354, Note_off_c, 3, 68, 64
1, 28392, Note_on_c, 3, 70, 119
1, 28411, Note_off_c, 3, 67, 64
1, 28442, Note_on_c, 3, 68, 119
1, 28459, Note_off_c, 3, 70, 64
1, 28491, Note_on_c, 2, 72, 120
1, 28507, Note_off_c, 3, 68, 64
1, 28545, Note_off_c, 2, 72, 64
1, 28546, Note_off_c, 2, 74, 64
1, 28546, Note_on_c, 2, 70, 119
1, 28547, Note_on_c, 4, 63, 127
1, 28547, Note_on_c, 4, 67, 121
1, 28892, Note_on_c, 2, 72, 120
1, 28987, Note_off_c, 4, 67, 64
1, 28987, Note_off_c, 4, 63, 64
1, 28988, Note_off_c, 2, 70, 64
1, 29005, Note_on_c, 2, 70, 119
1, 29007, Note_on_c, 4, 63, 127
1, 29009, Note_on_c, 4, 67, 121
1, 29024, Note_off_c, 2, 72, 64
1, 29462, Note_off_c, 2, 70, 64
1, 29464, Note_off_c, 4, 63, 64
1, 29466, Note_off_c, 4, 67, 64
1, 29466, Note_on_c, 4, 62, 127
1, 29468, Note_on_c, 4, 65, 127
1, 29685, Note_on_c, 2, 70, 119
1, 29903, Note_on_c, 2, 75, 120
1, 29907, Note_on_c, 4, 60, 127
1, 29907, Note_on_c, 4, 67, 121
1, 29926, Note_off_c, 2, 70, 64
1, 30110, Note_off_c, 2, 75, 64
1, 30114, Note_off_c, 4, 67, 64
1, 30116, Note_on_c, 2, 75, 120
1, 30119, Note_on_c, 2, 69, 119
1, 30327, Note_off_c, 2, 75, 64
1, 30331, Note_off_c, 2, 69, 64
1, 30333, Note_on_c, 2, 75, 120
1, 30337, Note_off_c, 4, 60, 64
1, 30337, Note_on_c, 2, 70, 119
1, 30338, Note_on_c, 4, 58, 127
1, 30445, Note_on_c, 2, 74, 120
1, 30453, Note_off_c, 2, 75, 64
1, 30549, Note_off_c, 2, 74, 64
1, 30550, Note_on_c, 2, 72, 120
1, 30643, Note_off_c, 2, 70, 64
1, 30659, Note_off_c, 2, 72, 64
1, 30659, Note_on_c, 2, 70, 119
1, 30752, Note_off_c, 4, 58, 64
1, 30758, Note_off_c, 2, 70, 64
1, 30759, Note_on_c, 2, 70, 119
1, 30761, Note_off_c, 4, 62, 64
1, 30762, Note_off_c, 4, 65, 64
1, 30763, Note_on_c, 4, 58, 127
1, 30764, Note_on_c, 4, 62, 127
1, 31162, Note_off_c, 4, 62, 64
1, 31173, Note_on_c, 2, 74, 120
1, 31177, Note_on_c, 4, 64, 127
1, 31285, Note_on_c, 2, 72, 120
1, 31293, Note_off_c, 2, 74, 64
1, 31323, Note_off_c, 2, 70, 64
1, 31379, Note_off_c, 2, 72, 64
1, 31393, Note_on_c, 2, 72, 120
1, 31615, Note_off_c, 4, 64, 64
1, 31615, Note_on_c, 4, 65, 127
1, 31616, Note_off_c, 4, 58, 64
1, 31616, Note_on_c, 4, 56, 127
1, 31829, Note_off_c, 2, 72, 64
1, 31830, Note_on_c, 2, 77, 120
1, 31865, Note_off_c, 4, 46, 64
1, 31944, Note_on_c, 2, 74, 120
1, 31963, Note_off_c, 2, 77, 64
1, 32047, Note_on_c, 2, 72, 120
1, 32050, Note_on_c, 4, 62, 127
1, 32064, Note_off_c, 2, 74, 64
1, 32145, Note_on_c, 2, 70, 119
1, 32162, Note_off_c, 2, 72, 64
1, 32235, Note_off_c, 2, 70, 64
1, 32249, Note_on_c, 2, 70, 119
1, 32472, Note_off_c, 4, 62, 64
1, 32473, Note_off_c, 4, 65, 64
1, 32473, Note_off_c, 4, 56, 64
1, 32474, Note_on_c, 4, 63, 127
1, 32475, Note_on_c, 4, 55, 127
1, 32694, Note_on_c, 2, 75, 120
1, 32698, Note_off_c, 2, 70, 64
1, 32821, Note_off_c, 2, 75, 64
1, 32821, Note_on_c, 2, 70, 119
1, 32921, Note_off_c, 2, 70, 64
1, 32928, Note_on_c, 2, 70, 119
1, 32933, Note_off_c, 4, 55, 64
1, 32935, Note_on_c, 4, 53, 127
1, 33331, Note_on_c, 4, 62, 127
1, 33333, Note_off_c, 4, 63, 64
1, 33333, Note_on_c, 4, 58, 127
1, 33334, Note_off_c, 4, 53, 64
1, 33524, Note_off_c, 2, 70, 64
1, 33542, Note_on_c, 2, 70, 119
1, 33600, Note_on_c, 2, 68, 119
1, 33607, Note_off_c, 2, 70, 64
1, 33650, Note_on_c, 2, 70, 119
1, 33657, Note_off_c, 2, 68, 64
1, 33704, Note_on_c, 2, 68, 119
1, 33710, Note_off_c, 2, 70, 64
1, 33742, Note_off_c, 4, 62, 64
1, 33743, Note_off_c, 4, 58, 64
1, 33756, Note_on_c, 4, 67, 121
1, 33757, Note_on_c, 4, 51, 127
1, 33763, Note_off_c, 2, 68, 64
1, 33869, Note_on_c, 4, 55, 127
1, 33982, Note_on_c, 4, 58, 127
1, 34007, Note_off_c, 4, 51, 64
1, 34094, Note_on_c, 4, 63, 127
1, 34117, Note_off_c, 4, 55, 64
1, 34200, Note_off_c, 4, 67, 64
1, 34200, Note_on_c, 2, 70, 123
1, 34201, Note_on_c, 4, 51, 123
1, 34224, Note_off_c, 4, 58, 64
1, 34308, Note_on_c, 4, 55, 127
1, 34332, Note_off_c, 4, 63, 64
1, 34416, Note_on_c, 4, 58, 127
1, 34440, Note_off_c, 4, 51, 64
1, 34524, Note_on_c, 4, 63, 127
1, 34547, Note_off_c, 4, 55, 64
1, 34631, Note_on_c, 4, 51, 127
1, 34654, Note_off_c, 4, 58, 64
1, 34739, Note_on_c, 4, 55, 127
1, 34763, Note_off_c, 4, 63, 64
1, 34848, Note_off_c, 2, 70, 64
1, 34848, Note_on_c, 2, 75, 120
1, 34850, Note_on_c, 4, 58, 127
1, 34875, Note_off_c, 4, 51, 64
1, 34905, Note_on_c, 2, 77, 120
1, 34912, Note_off_c, 2, 75, 64
1, 34961, Note_on_c, 1, 79, 117
1, 34963, Note_on_c, 4, 63, 127
1, 34968, Note_off_c, 2, 77, 64
1, 34987, Note_off_c, 4, 55, 64
1, 35071, Note_on_c, 2, 77, 120
1, 35073, Note_on_c, 4, 51, 127
1, 35096, Note_off_c, 1, 79, 64
1, 35096, Note_off_c, 4, 58, 64
1, 35179, Note_on_c, 4, 55, 127
1, 35203, Note_off_c, 4, 63, 64
1, 35286, Note_off_c, 2, 77, 64
1, 35286, Note_on_c, 2, 75, 120
1, 35287, Note_on_c, 4, 58, 127
1, 35311, Note_off_c, 4, 51, 64
1, 35399, Note_on_c, 4, 63, 127
1, 35423, Note_off_c, 4, 55, 64
1, 35503, Note_off_c, 2, 75, 64
1, 35503, Note_on_c, 2, 77, 120
1, 35508, Note_on_c, 4, 53, 127
1, 35556, Note_off_c, 4, 58, 64
1, 35583, Note_on_c, 2, 75, 120
1, 35590, Note_off_c, 2, 77, 64
1, 35630, Note_on_c, 2, 77, 120
1, 35632, Note_on_c, 4, 56, 127
1, 35637, Note_off_c, 2, 75, 64
1, 35655, Note_off_c, 4, 63, 64
1, 35682, Note_on_c, 2, 75, 120
1, 35689, Note_off_c, 2, 77, 64
1, 35731, Note_on_c, 2, 77, 120
1, 35733, Note_on_c, 4, 62, 127
1, 35739, Note_off_c, 2, 75, 64
1, 35759, Note_off_c, 4, 53, 64
1, 35785, Note_on_c, 2, 75, 120
1, 35792, Note_off_c, 2, 77, 64
1, 35836, Note_on_c, 4, 65, 127
1, 35836, Note_on_c, 2, 77, 120
1, 35845, Note_off_c, 2, 75, 64
1, 35866, Note_off_c, 4, 56, 64
1, 35892, Note_on_c, 2, 75, 120
1, 35898, Note_off_c, 2, 77, 64
1, 35945, Note_on_c, 2, 74, 120
1, 35947, Note_on_c, 4, 53, 127
1, 35952, Note_off_c, 2, 75, 64
1, 35969, Note_off_c, 4, 62, 64
1, 36054, Note_on_c, 4, 56, 127
1, 36075, Note_off_c, 4, 65, 64
1, 36164, Note_on_c, 4, 62, 127
1, 36189, Note_off_c, 4, 53, 64
1, 36277, Note_on_c, 4, 65, 127
1, 36302, Note_off_c, 4, 56, 64
1, 36393, Note_on_c, 4, 53, 127
1, 36417, Note_off_c, 4, 62, 64
1, 36506, Note_on_c, 4, 56, 127
1, 36529, Note_off_c, 4, 65, 64
1, 36599, Note_off_c, 2, 74, 64
1, 36618, Note_on_c, 4, 62, 127
1, 36618, Note_on_c, 2, 77, 115
1, 36643, Note_off_c, 4, 53, 64
1, 36673, Note_on_c, 1, 79, 112
1, 36681, Note_off_c, 2, 77, 64
1, 36730, Note_on_c, 1, 80, 112
1, 36731, Note_on_c, 4, 65, 127
1, 36737, Note_off_c, 1, 79, 64
1, 36756, Note_off_c, 4, 56, 64
1, 36837, Note_on_c, 1, 79, 112
1, 36839, Note_on_c, 4, 53, 127
1, 36862, Note_off_c, 4, 62, 64
1, 36868, Note_off_c, 1, 80, 64
1, 36945, Note_on_c, 4, 56, 127
1, 36966, Note_off_c, 4, 65, 64
1, 37049, Note_off_c, 1, 79, 64
1, 37049, Note_on_c, 2, 77, 115
1, 37051, Note_on_c, 4, 62, 127
1, 37074, Note_off_c, 4, 53, 64
1, 37157, Note_on_c, 4, 65, 127
1, 37183, Note_off_c, 4, 56, 64
1, 37267, Note_on_c, 1, 79, 112
1, 37270, Note_off_c, 2, 77, 64
1, 37272, Note_on_c, 4, 55, 127
1, 37309, Note_off_c, 4, 62, 64
1, 37344, Note_on_c, 2, 77, 115
1, 37348, Note_off_c, 1, 79, 64
1, 37392, Note_on_c, 1, 79, 112
1, 37394, Note_on_c, 4, 58, 127
1, 37400, Note_off_c, 2, 77, 64
1, 37418, Note_off_c, 4, 65, 64
1, 37449, Note_on_c, 2, 77, 115
1, 37455, Note_off_c, 1, 79, 64
1, 37496, Note_on_c, 1, 79, 112
1, 37498, Note_on_c, 4, 63, 127
1, 37504, Note_off_c, 2, 77, 64
1, 37521, Note_off_c, 4, 55, 64
1, 37552, Note_on_c, 2, 77, 115
1, 37558, Note_off_c, 1, 79, 64
1, 37596, Note_on_c, 4, 67, 121
1, 37596, Note_on_c, 1, 79, 112
1, 37604, Note_off_c, 2, 77, 64
1, 37620, Note_off_c, 4, 58, 64
1, 37648, Note_on_c, 2, 77, 115
1, 37656, Note_off_c, 1, 79, 64
1, 37700, Note_on_c, 2, 75, 115
1, 37702, Note_on_c, 4, 55, 127
1, 37706, Note_off_c, 2, 77, 64
1, 37725, Note_off_c, 4, 63, 64
1, 37809, Note_on_c, 4, 58, 127
1, 37831, Note_off_c, 4, 67, 64
1, 37919, Note_on_c, 4, 63, 127
1, 37942, Note_off_c, 4, 55, 64
1, 38026, Note_on_c, 4, 67, 121
1, 38051, Note_off_c, 4, 58, 64
1, 38136, Note_on_c, 4, 54, 127
1, 38160, Note_off_c, 4, 63, 64
1, 38246, Note_on_c, 4, 58, 127
1, 38268, Note_off_c, 4, 67, 64
1, 38354, Note_off_c, 2, 75, 64
1, 38355, Note_on_c, 2, 77, 115
1, 38356, Note_on_c, 4, 63, 127
1, 38380, Note_off_c, 4, 54, 64
1, 38411, Note_on_c, 2, 75, 115
1, 38417, Note_off_c, 2, 77, 64
1, 38465, Note_on_c, 4, 66, 125
1, 38465, Note_on_c, 2, 74, 115
1, 38472, Note_off_c, 2, 75, 64
1, 38491, Note_off_c, 4, 58, 64
1, 38521, Note_on_c, 2, 75, 115
1, 38528, Note_off_c, 2, 74, 64
1, 38577, Note_on_c, 2, 77, 115
1, 38578, Note_on_c, 4, 54, 127
1, 38583, Note_off_c, 2, 75, 64
1, 38602, Note_off_c, 4, 63, 64
1, 38688, Note_on_c, 4, 58, 127
1, 38709, Note_off_c, 4, 66, 64
1, 38792, Note_on_c, 1, 78, 112
1, 38793, Note_on_c, 4, 63, 127
1, 38814, Note_off_c, 2, 77, 64
1, 38816, Note_off_c, 4, 54, 64
1, 38898, Note_on_c, 4, 66, 125
1, 38922, Note_off_c, 4, 58, 64
1, 39001, Note_on_c, 2, 70, 119
1, 39002, Note_on_c, 4, 53, 127
1, 39024, Note_off_c, 1, 78, 64
1, 39025, Note_off_c, 4, 63, 64
1, 39110, Note_on_c, 4, 57, 127
1, 39131, Note_off_c, 4, 66, 64
1, 39162, Note_off_c, 2, 70, 64
1, 39216, Note_on_c, 2, 69, 119
1, 39217, Note_on_c, 4, 60, 127
1, 39241, Note_off_c, 4, 53, 64
1, 39325, Note_on_c, 4, 63, 127
1, 39348, Note_off_c, 4, 57, 64
1, 39433, Note_on_c, 4, 53, 127
1, 39457, Note_off_c, 4, 60, 64
1, 39540, Note_off_c, 2, 69, 64
1, 39542, Note_on_c, 4, 57, 127
1, 39565, Note_off_c, 4, 63, 64
1, 39650, Note_on_c, 2, 72, 120
1, 39651, Note_on_c, 4, 60, 127
1, 39675, Note_off_c, 4, 53, 64
1, 39760, Note_on_c, 4, 63, 127
1, 39784, Note_off_c, 4, 57, 64
1, 39868, Note_on_c, 2, 75, 120
1, 39870, Note_on_c, 4, 52, 127
1, 39891, Note_off_c, 2, 72, 64
1, 39893, Note_off_c, 4, 60, 64
1, 39978, Note_on_c, 4, 55, 127
1, 40001, Note_off_c, 4, 63, 64
1, 40083, Note_on_c, 2, 73, 120
1, 40085, Note_on_c, 4, 58, 127
1, 40106, Note_off_c, 2, 75, 64
1, 40107, Note_off_c, 4, 52, 64
1, 40190, Note_on_c, 4, 61, 127
1, 40213, Note_off_c, 4, 55, 64
1, 40298, Note_on_c, 4, 52, 127
1, 40319, Note_off_c, 4, 58, 64
1, 40404, Note_on_c, 4, 55, 127
1, 40425, Note_off_c, 4, 61, 64
1, 40506, Note_off_c, 2, 73, 64
1, 40507, Note_on_c, 2, 70, 119
1, 40510, Note_on_c, 4, 58, 127
1, 40532, Note_off_c, 4, 52, 64
1, 40616, Note_on_c, 4, 61, 127
1, 40639, Note_off_c, 4, 55, 64
1, 40647, Note_off_c, 2, 70, 64
1, 40715, Note_on_c, 2, 69, 119
1, 40719, Note_off_c, 4, 61, 64
1, 40720, Note_on_c, 4, 53, 127
1, 40722, Note_on_c, 4, 60, 127
1, 40743, Note_off_c, 4, 58, 64
1, 40828, Note_on_c, 2, 70, 119
1, 40832, Note_on_c, 4, 61, 127
1, 40846, Note_off_c, 2, 69, 64
1, 40854, Note_off_c, 4, 60, 64
1, 40933, Note_on_c, 2, 69, 119
1, 40936, Note_on_c, 4, 60, 127
1, 40952, Note_off_c, 2, 70, 64
1, 40956, Note_off_c, 4, 61, 64
1, 41046, Note_on_c, 2, 73, 120
1, 41050, Note_on_c, 4, 58, 127
1, 41064, Note_off_c, 2, 69, 64
1, 41068, Note_off_c, 4, 60, 64
1, 41153, Note_on_c, 2, 72, 120
1, 41156, Note_on_c, 4, 57, 127
1, 41170, Note_off_c, 2, 73, 64
1, 41173, Note_off_c, 4, 58, 64
1, 41262, Note_on_c, 2, 76, 120
1, 41263, Note_on_c, 2, 70, 119
1, 41266, Note_on_c, 4, 61, 127
1, 41280, Note_off_c, 2, 72, 64
1, 41284, Note_off_c, 4, 57, 64
1, 41371, Note_on_c, 2, 77, 120
1, 41371, Note_on_c, 2, 69, 119
1, 41373, Note_on_c, 4, 60, 127
1, 41389, Note_off_c, 2, 76, 64
1, 41389, Note_off_c, 2, 70, 64
1, 41392, Note_off_c, 4, 61, 64
1, 41486, Note_on_c, 2, 73, 120
1, 41489, Note_on_c, 4, 58, 127
1, 41491, Note_on_c, 4, 64, 127
1, 41505, Note_off_c, 2, 69, 64
1, 41506, Note_off_c, 2, 77, 64
1, 41509, Note_off_c, 4, 60, 64
1, 41587, Note_off_c, 2, 73, 64
1, 41589, Note_off_c, 4, 58, 64
1, 41597, Note_off_c, 4, 64, 64
1, 41599, Note_on_c, 2, 73, 120
1, 41601, Note_on_c, 4, 58, 127
1, 41603, Note_on_c, 4, 64, 127
1, 42024, Note_off_c, 2, 73, 64
1, 42024, Note_on_c, 2, 72, 113
1, 42025, Note_off_c, 4, 58, 64
1, 42026, Note_on_c, 4, 57, 125
1, 42027, Note_off_c, 4, 64, 64
1, 42028, Note_on_c, 4, 65, 122
1, 42473, Note_off_c, 2, 72, 64
1, 42475, Note_off_c, 4, 57, 64
1, 42475, Note_on_c, 4, 58, 125
1, 42477, Note_off_c, 4, 65, 64
1, 42498, Note_off_c, 4, 53, 64
1, 42590, Note_on_c, 4, 65, 122
1, 42592, Note_on_c, 4, 62, 126
1, 42669, Note_off_c, 4, 65, 64
1, 42708, Note_on_c, 4, 65, 122
1, 42783, Note_off_c, 4, 65, 64
1, 42804, Note_off_c, 4, 62, 64
1, 42820, Note_on_c, 4, 65, 122
1, 42822, Note_on_c, 4, 62, 126
1, 42924, Note_off_c, 4, 58, 64
1, 42935, Note_on_c, 4, 58, 125
1, 43020, Note_off_c, 4, 65, 64
1, 43022, Note_off_c, 4, 62, 64
1, 43037, Note_on_c, 3, 70, 119
1, 43038, Note_on_c, 4, 65, 127
1, 43040, Note_on_c, 4, 62, 127
1, 43105, Note_off_c, 4, 65, 64
1, 43107, Note_off_c, 4, 62, 64
1, 43143, Note_on_c, 4, 65, 127
1, 43143, Note_on_c, 2, 74, 120
1, 43145, Note_on_c, 4, 62, 127
1, 43161, Note_off_c, 3, 70, 64
1, 43215, Note_off_c, 4, 65, 64
1, 43217, Note_off_c, 4, 62, 64
1, 43251, Note_on_c, 2, 77, 120
1, 43252, Note_on_c, 4, 65, 127
1, 43253, Note_on_c, 4, 62, 127
1, 43268, Note_off_c, 2, 74, 64
1, 43322, Note_off_c, 4, 65, 64
1, 43323, Note_off_c, 4, 62, 64
1, 43349, Note_off_c, 2, 77, 64
1, 43350, Note_off_c, 4, 58, 64
1, 43359, Note_on_c, 2, 77, 120
1, 43361, Note_on_c, 4, 60, 127
1, 43473, Note_on_c, 2, 75, 116
1, 43473, Note_on_c, 4, 65, 127
1, 43474, Note_on_c, 4, 63, 127
1, 43489, Note_off_c, 2, 77, 64
1, 43541, Note_off_c, 4, 65, 64
1, 43542, Note_off_c, 4, 63, 64
1, 43575, Note_on_c, 3, 72, 112
1, 43576, Note_on_c, 4, 65, 120
1, 43577, Note_on_c, 4, 63, 124
1, 43594, Note_off_c, 2, 75, 64
1, 43648, Note_off_c, 4, 65, 64
1, 43650, Note_off_c, 4, 63, 64
1, 43688, Note_on_c, 3, 69, 115
1, 43688, Note_on_c, 4, 65, 120
1, 43689, Note_on_c, 4, 63, 124
1, 43707, Note_off_c, 3, 72, 64
1, 43791, Note_off_c, 4, 60, 64
1, 43802, Note_on_c, 4, 60, 127
1, 43821, Note_off_c, 3, 69, 64
1, 43894, Note_off_c, 4, 65, 64
1, 43896, Note_off_c, 4, 63, 64
1, 43912, Note_on_c, 3, 69, 119
1, 43913, Note_on_c, 4, 65, 127
1, 43914, Note_on_c, 4, 63, 127
1, 43986, Note_off_c, 4, 65, 64
1, 43988, Note_off_c, 4, 63, 64
1, 44021, Note_on_c, 2, 72, 120
1, 44021, Note_on_c, 4, 65, 127
1, 44023, Note_on_c, 4, 63, 127
1, 44039, Note_off_c, 3, 69, 64
1, 44091, Note_off_c, 4, 63, 64
1, 44091, Note_off_c, 4, 65, 64
1, 44126, Note_on_c, 2, 75, 120
1, 44127, Note_on_c, 4, 65, 127
1, 44128, Note_on_c, 4, 63, 127
1, 44143, Note_off_c, 2, 72, 64
1, 44196, Note_off_c, 4, 65, 64
1, 44197, Note_off_c, 4, 63, 64
1, 44223, Note_off_c, 4, 60, 64
1, 44233, Note_on_c, 1, 79, 117
1, 44235, Note_on_c, 4, 58, 127
1, 44251, Note_off_c, 2, 75, 64
1, 44345, Note_on_c, 2, 77, 120
1, 44346, Note_on_c, 4, 62, 127
1, 44347, Note_on_c, 4, 65, 127
1, 44363, Note_off_c, 1, 79, 64
1, 44412, Note_off_c, 4, 62, 64
1, 44414, Note_off_c, 4, 65, 64
1, 44450, Note_on_c, 3, 74, 120
1, 44450, Note_on_c, 4, 65, 127
1, 44452, Note_on_c, 4, 62, 127
1, 44466, Note_off_c, 2, 77, 64
1, 44521, Note_off_c, 4, 65, 64
1, 44523, Note_off_c, 4, 62, 64
1, 44556, Note_on_c, 3, 70, 119
1, 44558, Note_on_c, 4, 65, 127
1, 44562, Note_on_c, 4, 62, 127
1, 44577, Note_off_c, 3, 74, 64
1, 44659, Note_off_c, 4, 58, 64
1, 44671, Note_on_c, 4, 58, 127
1, 44687, Note_off_c, 3, 70, 64
1, 44761, Note_off_c, 4, 65, 64
1, 44765, Note_off_c, 4, 62, 64
1, 44778, Note_on_c, 3, 70, 119
1, 44779, Note_on_c, 4, 65, 127
1, 44781, Note_on_c, 4, 62, 127
1, 44854, Note_off_c, 4, 65, 64
1, 44856, Note_off_c, 4, 62, 64
1, 44887, Note_on_c, 2, 74, 120
1, 44887, Note_on_c, 4, 65, 127
1, 44889, Note_on_c, 4, 62, 127
1, 44904, Note_off_c, 3, 70, 64
1, 44955, Note_off_c, 4, 65, 64
1, 44957, Note_off_c, 4, 62, 64
1, 44988, Note_on_c, 2, 77, 120
1, 44989, Note_on_c, 4, 65, 127
1, 44990, Note_on_c, 4, 62, 127
1, 45006, Note_off_c, 2, 74, 64
1, 45058, Note_off_c, 4, 65, 64
1, 45060, Note_off_c, 4, 62, 64
1, 45085, Note_off_c, 2, 77, 64
1, 45086, Note_off_c, 4, 58, 64
1, 45094, Note_on_c, 2, 77, 120
1, 45096, Note_on_c, 4, 60, 127
1, 45206, Note_on_c, 2, 75, 120
1, 45207, Note_on_c, 4, 65, 127
1, 45208, Note_on_c, 4, 63, 127
1, 45224, Note_off_c, 2, 77, 64
1, 45275, Note_off_c, 4, 65, 64
1, 45276, Note_off_c, 4, 63, 64
1, 45308, Note_on_c, 3, 72, 120
1, 45309, Note_on_c, 4, 65, 127
1, 45310, Note_on_c, 4, 63, 127
1, 45326, Note_off_c, 2, 75, 64
1, 45378, Note_off_c, 4, 65, 64
1, 45379, Note_off_c, 4, 63, 64
1, 45413, Note_on_c, 3, 69, 119
1, 45414, Note_on_c, 4, 65, 127
1, 45415, Note_on_c, 4, 63, 127
1, 45431, Note_off_c, 3, 72, 64
1, 45513, Note_off_c, 4, 60, 64
1, 45523, Note_on_c, 4, 60, 127
1, 45540, Note_off_c, 3, 69, 64
1, 45612, Note_off_c, 4, 65, 64
1, 45614, Note_off_c, 4, 63, 64
1, 45631, Note_on_c, 3, 69, 119
1, 45631, Note_on_c, 4, 65, 127
1, 45633, Note_on_c, 4, 63, 127
1, 45704, Note_off_c, 4, 65, 64
1, 45706, Note_off_c, 4, 63, 64
1, 45741, Note_on_c, 2, 72, 120
1, 45741, Note_on_c, 4, 65, 127
1, 45742, Note_on_c, 4, 63, 127
1, 45759, Note_off_c, 3, 69, 64
1, 45814, Note_off_c, 4, 65, 64
1, 45815, Note_off_c, 4, 63, 64
1, 45847, Note_on_c, 2, 75, 120
1, 45848, Note_on_c, 4, 65, 127
1, 45849, Note_on_c, 4, 63, 127
1, 45864, Note_off_c, 2, 72, 64
1, 45915, Note_off_c, 4, 65, 64
1, 45917, Note_off_c, 4, 63, 64
1, 45940, Note_off_c, 4, 60, 64
1, 45948, Note_on_c, 1, 79, 117
1, 45949, Note_on_c, 4, 58, 127
1, 45967, Note_off_c, 2, 75, 64
1, 46058, Note_on_c, 2, 77, 120
1, 46059, Note_on_c, 4, 65, 127
1, 46061, Note_on_c, 4, 62, 127
1, 46075, Note_off_c, 1, 79, 64
1, 46125, Note_off_c, 4, 65, 64
1, 46128, Note_off_c, 4, 62, 64
1, 46158, Note_on_c, 3, 74, 120
1, 46159, Note_on_c, 4, 65, 127
1, 46161, Note_on_c, 4, 62, 127
1, 46174, Note_off_c, 2, 77, 64
1, 46228, Note_off_c, 4, 65, 64
1, 46232, Note_off_c, 4, 62, 64
1, 46266, Note_on_c, 4, 65, 127
1, 46266, Note_on_c, 3, 70, 119
1, 46269, Note_on_c, 4, 62, 127
1, 46285, Note_off_c, 3, 74, 64
1, 46375, Note_off_c, 4, 58, 64
1, 46391, Note_on_c, 4, 46, 127
1, 46406, Note_off_c, 3, 70, 64
1, 46500, Note_off_c, 4, 65, 64
1, 46500, Note_on_c, 2, 77, 120
1, 46502, Note_on_c, 4, 50, 127
1, 46504, Note_off_c, 4, 62, 64
1, 46522, Note_off_c, 4, 46, 64
1, 46575, Note_off_c, 2, 77, 64
1, 46610, Note_on_c, 2, 76, 120
1, 46612, Note_on_c, 4, 48, 127
1, 46630, Note_off_c, 4, 50, 64
1, 46662, Note_on_c, 2, 77, 120
1, 46680, Note_off_c, 2, 76, 64
1, 46712, Note_on_c, 1, 81, 117
1, 46714, Note_on_c, 4, 51, 127
1, 46729, Note_off_c, 2, 77, 64
1, 46731, Note_off_c, 4, 48, 64
1, 46766, Note_on_c, 2, 77, 120
1, 46784, Note_off_c, 1, 81, 64
1, 46817, Note_on_c, 1, 82, 117
1, 46821, Note_on_c, 4, 50, 127
1, 46835, Note_off_c, 2, 77, 64
1, 46837, Note_off_c, 4, 51, 64
1, 46929, Note_on_c, 2, 77, 120
1, 46933, Note_on_c, 4, 53, 127
1, 46948, Note_off_c, 1, 82, 64
1, 47023, Note_off_c, 2, 77, 64
1, 47041, Note_on_c, 2, 77, 120
1, 47047, Note_on_c, 4, 58, 127
1, 47070, Note_off_c, 4, 50, 64
1, 47156, Note_on_c, 4, 62, 127
1, 47183, Note_off_c, 4, 53, 64
1, 47269, Note_on_c, 4, 50, 127
1, 47293, Note_off_c, 4, 58, 64
1, 47379, Note_off_c, 2, 77, 64
1, 47380, Note_on_c, 2, 74, 120
1, 47381, Note_on_c, 4, 53, 127
1, 47405, Note_off_c, 4, 62, 64
1, 47492, Note_on_c, 2, 77, 120
1, 47494, Note_on_c, 4, 58, 127
1, 47510, Note_off_c, 2, 74, 64
1, 47517, Note_off_c, 4, 50, 64
1, 47549, Note_on_c, 2, 74, 120
1, 47567, Note_off_c, 2, 77, 64
1, 47597, Note_on_c, 2, 77, 120
1, 47599, Note_on_c, 4, 62, 127
1, 47615, Note_off_c, 2, 74, 64
1, 47622, Note_off_c, 4, 53, 64
1, 47650, Note_on_c, 2, 74, 120
1, 47666, Note_off_c, 2, 77, 64
1, 47700, Note_on_c, 1, 79, 117
1, 47702, Note_on_c, 4, 51, 127
1, 47719, Note_off_c, 2, 74, 64
1, 47726, Note_off_c, 4, 58, 64
1, 47809, Note_on_c, 2, 75, 120
1, 47811, Note_on_c, 4, 55, 127
1, 47828, Note_off_c, 1, 79, 64
1, 47835, Note_off_c, 4, 62, 64
1, 47908, Note_off_c, 2, 75, 64
1, 47917, Note_on_c, 2, 75, 120
1, 47919, Note_on_c, 4, 60, 127
1, 47944, Note_off_c, 4, 51, 64
1, 48032, Note_on_c, 4, 63, 127
1, 48056, Note_off_c, 4, 55, 64
1, 48144, Note_on_c, 4, 51, 127
1, 48168, Note_off_c, 4, 60, 64
1, 48255, Note_on_c, 2, 72, 120
1, 48257, Note_on_c, 4, 55, 127
1, 48266, Note_off_c, 2, 75, 64
1, 48281, Note_off_c, 4, 63, 64
1, 48362, Note_off_c, 2, 72, 64
1, 48362, Note_on_c, 2, 75, 120
1, 48363, Note_on_c, 4, 60, 127
1, 48386, Note_off_c, 4, 51, 64
1, 48415, Note_on_c, 2, 72, 120
1, 48433, Note_off_c, 2, 75, 64
1, 48466, Note_on_c, 2, 75, 120
1, 48467, Note_on_c, 4, 63, 127
1, 48484, Note_off_c, 2, 72, 64
1, 48490, Note_off_c, 4, 55, 64
1, 48519, Note_on_c, 2, 72, 120
1, 48538, Note_off_c, 2, 75, 64
1, 48569, Note_on_c, 2, 77, 120
1, 48571, Note_on_c, 4, 53, 127
1, 48587, Note_off_c, 2, 72, 64
1, 48594, Note_off_c, 4, 60, 64
1, 48680, Note_off_c, 2, 77, 64
1, 48680, Note_on_c, 2, 74, 120
1, 48682, Note_on_c, 4, 58, 127
1, 48707, Note_off_c, 4, 63, 64
1, 48795, Note_on_c, 4, 62, 127
1, 48819, Note_off_c, 4, 53, 64
1, 48849, Note_on_c, 2, 70, 119
1, 48864, Note_off_c, 2, 74, 64
1, 48899, Note_on_c, 4, 65, 127
1, 48899, Note_on_c, 2, 74, 120
1, 48917, Note_off_c, 2, 70, 64
1, 48924, Note_off_c, 4, 58, 64
1, 48956, Note_on_c, 2, 70, 119
1, 48975, Note_off_c, 2, 74, 64
1, 49006, Note_on_c, 2, 75, 120
1, 49007, Note_on_c, 4, 53, 127
1, 49024, Note_off_c, 2, 70, 64
1, 49031, Note_off_c, 4, 62, 64
1, 49116, Note_off_c, 2, 75, 64
1, 49117, Note_on_c, 2, 72, 120
1, 49118, Note_on_c, 4, 57, 127
1, 49140, Note_off_c, 4, 65, 64
1, 49233, Note_on_c, 4, 60, 127
1, 49257, Note_off_c, 4, 53, 64
1, 49287, Note_on_c, 2, 69, 119
1, 49299, Note_off_c, 2, 72, 64
1, 49341, Note_on_c, 2, 72, 120
1, 49343, Note_off_c, 4, 60, 64
1, 49344, Note_on_c, 4, 63, 127
1, 49348, Note_off_c, 2, 69, 64
1, 49367, Note_off_c, 4, 57, 64
1, 49398, Note_on_c, 2, 69, 119
1, 49405, Note_off_c, 2, 72, 64
1, 49448, Note_on_c, 2, 72, 120
1, 49450, Note_off_c, 4, 63, 64
1, 49450, Note_on_c, 4, 62, 124
1, 49452, Note_on_c, 4, 55, 125
1, 49455, Note_off_c, 2, 69, 64
1, 49503, Note_on_c, 2, 70, 119
1, 49511, Note_off_c, 2, 72, 64
1, 49560, Note_on_c, 2, 69, 119
1, 49567, Note_off_c, 2, 70, 64
1, 49614, Note_on_c, 2, 70, 119
1, 49620, Note_off_c, 2, 69, 64
1, 49668, Note_on_c, 2, 72, 120
1, 49674, Note_off_c, 2, 70, 64
1, 49771, Note_on_c, 2, 74, 115
1, 49788, Note_off_c, 2, 72, 64
1, 49894, Note_on_c, 2, 75, 115
1, 49912, Note_off_c, 2, 74, 64
1, 50006, Note_on_c, 2, 74, 115
1, 50025, Note_off_c, 2, 75, 64
1, 50060, Note_on_c, 2, 77, 115
1, 50114, Note_on_c, 2, 75, 115
1, 50131, Note_off_c, 2, 74, 64
1, 50169, Note_on_c, 1, 79, 112
1, 50187, Note_off_c, 2, 77, 64
1, 50223, Note_on_c, 2, 77, 115
1, 50243, Note_off_c, 2, 75, 64
1, 50276, Note_on_c, 1, 81, 112
1, 50294, Note_off_c, 1, 79, 64
1, 50322, Note_off_c, 4, 62, 64
1, 50328, Note_on_c, 2, 70, 119
1, 50328, Note_on_c, 1, 82, 112
1, 50329, Note_on_c, 4, 62, 127
1, 50330, Note_off_c, 4, 55, 64
1, 50345, Note_off_c, 1, 81, 64
1, 50345, Note_off_c, 2, 77, 64
1, 50380, Note_on_c, 2, 77, 115
1, 50399, Note_off_c, 1, 82, 64
1, 50436, Note_on_c, 2, 76, 115
1, 50454, Note_off_c, 2, 77, 64
1, 50491, Note_on_c, 2, 77, 115
1, 50507, Note_off_c, 2, 76, 64
1, 50539, Note_on_c, 1, 79, 112
1, 50555, Note_off_c, 2, 77, 64
1, 50589, Note_on_c, 2, 77, 115
1, 50607, Note_off_c, 1, 79, 64
1, 50644, Note_on_c, 2, 76, 115
1, 50664, Note_off_c, 2, 77, 64
1, 50700, Note_on_c, 2, 77, 115
1, 50717, Note_off_c, 2, 76, 64
1, 50736, Note_off_c, 4, 62, 64
1, 50742, Note_off_c, 2, 70, 64
1, 50753, Note_on_c, 2, 70, 112
1, 50754, Note_on_c, 4, 62, 124
1, 50771, Note_off_c, 2, 77, 64
1, 50808, Note_on_c, 2, 77, 115
1, 50865, Note_on_c, 2, 76, 115
1, 50884, Note_off_c, 2, 77, 64
1, 50921, Note_on_c, 2, 77, 115
1, 50939, Note_off_c, 2, 76, 64
1, 50959, Note_off_c, 4, 62, 64
1, 50966, Note_off_c, 2, 70, 64
1, 50976, Note_on_c, 2, 70, 119
1, 50977, Note_on_c, 4, 62, 127
1, 50994, Note_off_c, 2, 77, 64
1, 51030, Note_on_c, 2, 76, 115
1, 51084, Note_on_c, 2, 77, 115
1, 51101, Note_off_c, 2, 76, 64
1, 51136, Note_on_c, 1, 78, 112
1, 51154, Note_off_c, 2, 77, 64
1, 51173, Note_off_c, 4, 62, 64
1, 51180, Note_off_c, 2, 70, 64
1, 51188, Note_on_c, 1, 79, 112
1, 51188, Note_on_c, 2, 70, 112
1, 51190, Note_on_c, 4, 63, 124
1, 51205, Note_off_c, 1, 78, 64
1, 51241, Note_on_c, 2, 72, 120
1, 51261, Note_off_c, 1, 79, 64
1, 51296, Note_off_c, 2, 70, 64
1, 51297, Note_on_c, 2, 71, 119
1, 51313, Note_off_c, 2, 72, 64
1, 51348, Note_on_c, 2, 72, 120
1, 51363, Note_off_c, 2, 71, 64
1, 51396, Note_on_c, 2, 74, 120
1, 51413, Note_off_c, 2, 72, 64
1, 51450, Note_on_c, 2, 72, 120
1, 51469, Note_off_c, 2, 74, 64
1, 51504, Note_on_c, 2, 71, 119
1, 51522, Note_off_c, 2, 72, 64
1, 51559, Note_on_c, 2, 72, 120
1, 51577, Note_off_c, 2, 71, 64
1, 51604, Note_off_c, 4, 63, 64
1, 51612, Note_on_c, 2, 70, 119
1, 51614, Note_on_c, 4, 63, 127
1, 51628, Note_off_c, 2, 72, 64
1, 51662, Note_on_c, 2, 72, 120
1, 51681, Note_off_c, 2, 70, 64
1, 51719, Note_on_c, 2, 71, 119
1, 51736, Note_off_c, 2, 72, 64
1, 51769, Note_on_c, 2, 72, 120
1, 51786, Note_off_c, 2, 71, 64
1, 51822, Note_on_c, 2, 70, 119
1, 51823, Note_on_c, 4, 64, 127
1, 51839, Note_off_c, 2, 72, 64
1, 51846, Note_off_c, 4, 63, 64
1, 51875, Note_on_c, 2, 71, 119
1, 51894, Note_off_c, 2, 70, 64
1, 51932, Note_on_c, 2, 72, 120
1, 51950, Note_off_c, 2, 71, 64
1, 51987, Note_on_c, 2, 73, 120
1, 52007, Note_off_c, 2, 72, 64
1, 52044, Note_on_c, 2, 70, 119
1, 52044, Note_on_c, 2, 74, 120
1, 52046, Note_on_c, 4, 65, 127
1, 52062, Note_off_c, 2, 73, 64
1, 52070, Note_off_c, 4, 64, 64
1, 52156, Note_on_c, 2, 75, 120
1, 52176, Note_off_c, 2, 74, 64
1, 52269, Note_on_c, 2, 76, 120
1, 52288, Note_off_c, 2, 75, 64
1, 52381, Note_on_c, 2, 77, 120
1, 52399, Note_off_c, 2, 76, 64
1, 52492, Note_off_c, 2, 70, 64
1, 52493, Note_on_c, 2, 74, 120
1, 52530, Note_off_c, 2, 77, 64
1, 52572, Note_on_c, 2, 72, 120
1, 52594, Note_off_c, 2, 74, 64
1, 52634, Note_on_c, 2, 74, 120
1, 52651, Note_off_c, 2, 72, 64
1, 52686, Note_on_c, 2, 72, 120
1, 52709, Note_off_c, 2, 74, 64
1, 52740, Note_on_c, 2, 74, 120
1, 52741, Note_on_c, 4, 63, 127
1, 52742, Note_off_c, 4, 65, 64
1, 52742, Note_on_c, 4, 57, 127
1, 52743, Note_on_c, 4, 53, 127
1, 52758, Note_off_c, 2, 72, 64
1, 52801, Note_on_c, 2, 72, 120
1, 52814, Note_off_c, 2, 74, 64
1, 52844, Note_on_c, 2, 74, 120
1, 52861, Note_off_c, 2, 72, 64
1, 52914, Note_on_c, 2, 72, 120
1, 52932, Note_off_c, 2, 74, 64
1, 52977, Note_on_c, 2, 70, 112
1, 52980, Note_on_c, 4, 62, 124
1, 52982, Note_on_c, 4, 58, 125
1, 52995, Note_off_c, 2, 72, 64
1, 52999, Note_off_c, 4, 63, 64
1, 53001, Note_off_c, 4, 53, 64
1, 53002, Note_off_c, 4, 57, 64
1, 53082, Note_on_c, 4, 65, 127
1, 53083, Note_on_c, 4, 62, 127
1, 53102, Note_off_c, 2, 70, 64
1, 53193, Note_on_c, 4, 60, 127
1, 53193, Note_on_c, 4, 63, 127
1, 53196, Note_off_c, 4, 62, 64
1, 53212, Note_off_c, 4, 65, 64
1, 53221, Note_off_c, 4, 62, 64
1, 53223, Note_off_c, 4, 58, 64
1, 53311, Note_on_c, 4, 62, 127
1, 53312, Note_on_c, 4, 58, 127
1, 53328, Note_off_c, 4, 63, 64
1, 53328, Note_off_c, 4, 60, 64
1, 53422, Note_on_c, 2, 69, 119
1, 53459, Note_on_c, 2, 72, 120
1, 53492, Note_on_c, 2, 75, 120
1, 53510, Note_off_c, 2, 69, 64
1, 53535, Note_off_c, 2, 72, 64
1, 53547, Note_on_c, 4, 60, 127
1, 53548, Note_on_c, 4, 57, 127
1, 53570, Note_off_c, 4, 62, 64
1, 53572, Note_off_c, 4, 58, 64
1, 53661, Note_on_c, 4, 58, 127
1, 53663, Note_on_c, 4, 55, 127
1, 53680, Note_off_c, 4, 60, 64
1, 53682, Note_off_c, 4, 57, 64
1, 53781, Note_on_c, 4, 57, 127
1, 53783, Note_on_c, 4, 53, 127
1, 53802, Note_off_c, 4, 58, 64
1, 53804, Note_off_c, 4, 55, 64
1, 53899, Note_on_c, 2, 74, 120
1, 53900, Note_on_c, 4, 58, 127
1, 53901, Note_on_c, 4, 46, 127
1, 53917, Note_off_c, 4, 57, 64
1, 53919, Note_off_c, 4, 53, 64
1, 53943, Note_off_c, 2, 75, 64
1, 53973, Note_off_c, 4, 58, 64
1, 54008, Note_on_c, 4, 58, 127
1, 54061, Note_on_c, 4, 62, 127
1, 54078, Note_off_c, 4, 58, 64
1, 54110, Note_on_c, 4, 60, 127
1, 54128, Note_off_c, 4, 62, 64
1, 54163, Note_on_c, 4, 63, 127
1, 54181, Note_off_c, 4, 60, 64
1, 54212, Note_on_c, 4, 62, 127
1, 54228, Note_off_c, 4, 63, 64
1, 54265, Note_on_c, 4, 65, 127
1, 54283, Note_off_c, 4, 62, 64
1, 54315, Note_on_c, 4, 63, 127
1, 54333, Note_off_c, 4, 65, 64
1, 54372, Note_on_c, 4, 67, 121
1, 54390, Note_off_c, 4, 63, 64
1, 54421, Note_on_c, 4, 65, 127
1, 54440, Note_off_c, 4, 67, 64
1, 54479, Note_on_c, 2, 68, 119
1, 54496, Note_off_c, 4, 65, 64
1, 54528, Note_on_c, 4, 67, 121
1, 54545, Note_off_c, 2, 68, 64
1, 54584, Note_on_c, 2, 70, 119
1, 54602, Note_off_c, 4, 67, 64
1, 54635, Note_on_c, 2, 68, 119
1, 54650, Note_off_c, 2, 70, 64
1, 54683, Note_on_c, 2, 72, 120
1, 54698, Note_off_c, 2, 68, 64
1, 54737, Note_off_c, 2, 72, 64
1, 54738, Note_off_c, 2, 74, 64
1, 54740, Note_on_c, 4, 64, 127
1, 54744, Note_on_c, 4, 61, 127
1, 54747, Note_on_c, 4, 67, 121
1, 54747, Note_on_c, 2, 70, 119
1, 54924, Note_on_c, 2, 72, 120
1, 54968, Note_off_c, 2, 70, 64
1, 54981, Note_on_c, 2, 70, 119
1, 55001, Note_off_c, 2, 72, 64
1, 55205, Note_off_c, 4, 64, 64
1, 55207, Note_off_c, 4, 61, 64
1, 55208, Note_off_c, 4, 67, 64
1, 55213, Note_on_c, 4, 64, 127
1, 55213, Note_on_c, 4, 67, 121
1, 55214, Note_on_c, 4, 61, 127
1, 55409, Note_off_c, 2, 70, 64
1, 55424, Note_on_c, 1, 82, 117
1, 55625, Note_off_c, 4, 67, 64
1, 55625, Note_off_c, 4, 64, 64
1, 55627, Note_off_c, 4, 61, 64
1, 55635, Note_on_c, 4, 67, 121
1, 55636, Note_on_c, 4, 64, 127
1, 55637, Note_on_c, 4, 60, 127
1, 55839, Note_off_c, 1, 82, 64
1, 55840, Note_on_c, 1, 79, 114
1, 56037, Note_off_c, 4, 67, 64
1, 56037, Note_off_c, 4, 64, 64
1, 56039, Note_off_c, 4, 60, 64
1, 56048, Note_on_c, 2, 76, 117
1, 56049, Note_on_c, 4, 64, 127
1, 56049, Note_on_c, 4, 67, 121
1, 56051, Note_on_c, 4, 60, 127
1, 56068, Note_off_c, 1, 79, 64
1, 56266, Note_on_c, 2, 70, 116
1, 56282, Note_off_c, 2, 76, 64
1, 56460, Note_off_c, 2, 70, 64
1, 56467, Note_off_c, 4, 67, 64
1, 56467, Note_off_c, 4, 64, 64
1, 56468, Note_off_c, 4, 60, 64
1, 56476, Note_on_c, 2, 70, 116
1, 56477, Note_on_c, 4, 65, 127
1, 56478, Note_on_c, 4, 60, 127
1, 56582, Note_off_c, 2, 70, 64
1, 56582, Note_on_c, 2, 69, 116
1, 56689, Note_off_c, 2, 69, 64
1, 56690, Note_on_c, 2, 69, 116
1, 56883, Note_off_c, 4, 65, 64
1, 56886, Note_off_c, 4, 60, 64
1, 56903, Note_on_c, 4, 65, 127
1, 56904, Note_on_c, 4, 60, 127
1, 57121, Note_on_c, 2, 68, 119
1, 57129, Note_off_c, 2, 69, 64
1, 57314, Note_off_c, 4, 65, 64
1, 57316, Note_off_c, 4, 60, 64
1, 57334, Note_on_c, 4, 63, 127
1, 57335, Note_on_c, 4, 60, 127
1, 57538, Note_off_c, 2, 68, 64
1, 57538, Note_on_c, 4, 67, 121
1, 57647, Note_on_c, 2, 68, 119
1, 57664, Note_off_c, 4, 67, 64
1, 57737, Note_off_c, 4, 63, 64
1, 57737, Note_off_c, 4, 60, 64
1, 57753, Note_on_c, 4, 63, 127
1, 57754, Note_on_c, 4, 59, 127
1, 57955, Note_on_c, 4, 67, 121
1, 57971, Note_off_c, 2, 68, 64
1, 57993, Note_off_c, 4, 46, 64
1, 58052, Note_on_c, 2, 68, 119
1, 58069, Note_off_c, 4, 67, 64
1, 58138, Note_off_c, 4, 59, 64
1, 58139, Note_off_c, 4, 63, 64
1, 58155, Note_on_c, 4, 62, 127
1, 58155, Note_on_c, 4, 58, 127
1, 58255, Note_on_c, 1, 80, 117
1, 58354, Note_on_c, 1, 79, 117
1, 58370, Note_off_c, 1, 80, 64
1, 58449, Note_on_c, 1, 80, 117
1, 58466, Note_off_c, 1, 79, 64
1, 58540, Note_off_c, 4, 58, 64
1, 58555, Note_on_c, 2, 68, 119
1, 58557, Note_on_c, 4, 58, 127
1, 58657, Note_on_c, 2, 77, 120
1, 58679, Note_off_c, 1, 80, 64
1, 58757, Note_on_c, 2, 76, 120
1, 58771, Note_off_c, 2, 77, 64
1, 58848, Note_on_c, 2, 77, 120
1, 58865, Note_off_c, 2, 76, 64
1, 58896, Note_off_c, 2, 68, 64
1, 58896, Note_off_c, 2, 68, 64
1, 58939, Note_off_c, 4, 58, 64
1, 58955, Note_on_c, 4, 65, 127
1, 58956, Note_on_c, 4, 58, 127
1, 59057, Note_on_c, 2, 74, 120
1, 59080, Note_off_c, 2, 77, 64
1, 59152, Note_on_c, 2, 73, 120
1, 59169, Note_off_c, 2, 74, 64
1, 59244, Note_on_c, 2, 74, 120
1, 59257, Note_off_c, 2, 73, 64
1, 59312, Note_off_c, 4, 62, 64
1, 59327, Note_off_c, 4, 65, 64
1, 59329, Note_off_c, 4, 58, 64
1, 59342, Note_on_c, 4, 65, 127
1, 59344, Note_on_c, 4, 62, 127
1, 59345, Note_on_c, 4, 58, 127
1, 59447, Note_on_c, 2, 68, 119
1, 59471, Note_off_c, 2, 74, 64
1, 59545, Note_on_c, 4, 67, 121
1, 59561, Note_off_c, 2, 68, 64
1, 59634, Note_on_c, 2, 68, 119
1, 59650, Note_off_c, 4, 67, 64
1, 59715, Note_off_c, 4, 65, 64
1, 59717, Note_off_c, 4, 62, 64
1, 59717, Note_off_c, 4, 58, 64
1, 59732, Note_on_c, 4, 67, 121
1, 59748, Note_off_c, 2, 68, 64
1, 59830, Note_on_c, 4, 63, 127
1, 59931, Note_on_c, 4, 62, 127
1, 59947, Note_off_c, 4, 63, 64
1, 60024, Note_on_c, 4, 63, 127
1, 60040, Note_off_c, 4, 62, 64
1, 60107, Note_off_c, 4, 67, 64
1, 60124, Note_off_c, 4, 63, 64
1, 60125, Note_on_c, 4, 63, 127
1, 60125, Note_on_c, 4, 67, 121
1, 60225, Note_on_c, 4, 61, 127
1, 60324, Note_on_c, 4, 60, 127
1, 60341, Note_off_c, 4, 61, 64
1, 60417, Note_on_c, 4, 61, 127
1, 60434, Note_off_c, 4, 60, 64
1, 60499, Note_off_c, 4, 63, 64
1, 60514, Note_off_c, 4, 67, 64
1, 60515, Note_on_c, 4, 63, 127
1, 60515, Note_on_c, 2, 68, 119
1, 60619, Note_on_c, 4, 60, 127
1, 60640, Note_off_c, 4, 61, 64
1, 60714, Note_on_c, 4, 59, 127
1, 60729, Note_off_c, 4, 60, 64
1, 60809, Note_on_c, 4, 60, 127
1, 60823, Note_off_c, 4, 59, 64
1, 60888, Note_off_c, 4, 63, 64
1, 60908, Note_off_c, 2, 68, 64
1, 60908, Note_on_c, 2, 69, 119
1, 60909, Note_on_c, 4, 63, 127
1, 61009, Note_on_c, 4, 59, 127
1, 61029, Note_off_c, 4, 60, 64
1, 61102, Note_on_c, 4, 58, 127
1, 61117, Note_off_c, 4, 59, 64
1, 61196, Note_on_c, 4, 59, 127
1, 61209, Note_off_c, 4, 58, 64
1, 61288, Note_on_c, 4, 58, 127
1, 61288, Note_on_c, 4, 62, 127
1, 61292, Note_off_c, 2, 69, 64
1, 61292, Note_off_c, 4, 63, 64
1, 61301, Note_off_c, 4, 59, 64
1, 61341, Note_on_c, 2, 70, 119
1, 61400, Note_on_c, 3, 69, 119
1, 61416, Note_off_c, 2, 70, 64
1, 61450, Note_on_c, 2, 70, 119
1, 61469, Note_off_c, 3, 69, 64
1, 61505, Note_on_c, 3, 69, 119
1, 61520, Note_off_c, 2, 70, 64
1, 61553, Note_on_c, 2, 70, 119
1, 61568, Note_off_c, 3, 69, 64
1, 61603, Note_on_c, 2, 72, 120
1, 61620, Note_off_c, 2, 70, 64
1, 61656, Note_on_c, 2, 70, 119
1, 61673, Note_off_c, 2, 72, 64
1, 61691, Note_off_c, 4, 58, 64
1, 61692, Note_off_c, 4, 62, 64
1, 61707, Note_on_c, 4, 60, 127
1, 61708, Note_on_c, 4, 58, 127
1, 61756, Note_on_c, 2, 75, 120
1, 61773, Note_off_c, 2, 70, 64
1, 61810, Note_on_c, 2, 74, 120
1, 61828, Note_off_c, 2, 75, 64
1, 61860, Note_on_c, 2, 75, 120
1, 61877, Note_off_c, 2, 74, 64
1, 61912, Note_on_c, 2, 74, 120
1, 61914, Note_on_c, 4, 63, 127
1, 61928, Note_off_c, 2, 75, 64
1, 61935, Note_off_c, 4, 60, 64
1, 61959, Note_on_c, 2, 72, 120
1, 61976, Note_off_c, 2, 74, 64
1, 62007, Note_on_c, 2, 70, 119
1, 62023, Note_off_c, 2, 72, 64
1, 62056, Note_on_c, 3, 69, 119
1, 62072, Note_off_c, 2, 70, 64
1, 62088, Note_off_c, 4, 58, 64
1, 62106, Note_on_c, 4, 58, 127
1, 62106, Note_on_c, 4, 62, 127
1, 62125, Note_off_c, 4, 63, 64
1, 62149, Note_on_c, 2, 70, 119
1, 62165, Note_off_c, 3, 69, 64
1, 62199, Note_on_c, 3, 69, 119
1, 62219, Note_off_c, 2, 70, 64
1, 62251, Note_on_c, 2, 70, 119
1, 62268, Note_off_c, 3, 69, 64
1, 62300, Note_on_c, 3, 69, 119
1, 62318, Note_off_c, 2, 70, 64
1, 62351, Note_on_c, 2, 70, 119
1, 62367, Note_off_c, 3, 69, 64
1, 62399, Note_on_c, 2, 72, 120
1, 62415, Note_off_c, 2, 70, 64
1, 62453, Note_on_c, 2, 70, 119
1, 62471, Note_off_c, 2, 72, 64
1, 62488, Note_off_c, 4, 62, 64
1, 62488, Note_off_c, 4, 58, 64
1, 62504, Note_on_c, 4, 60, 127
1, 62505, Note_on_c, 4, 58, 127
1, 62553, Note_on_c, 2, 75, 120
1, 62571, Note_off_c, 2, 70, 64
1, 62609, Note_on_c, 2, 74, 120
1, 62626, Note_off_c, 2, 75, 64
1, 62658, Note_on_c, 2, 75, 120
1, 62675, Note_off_c, 2, 74, 64
1, 62708, Note_on_c, 2, 74, 120
1, 62710, Note_on_c, 4, 63, 127
1, 62725, Note_off_c, 2, 75, 64
1, 62731, Note_off_c, 4, 60, 64
1, 62758, Note_on_c, 2, 72, 120
1, 62775, Note_off_c, 2, 74, 64
1, 62810, Note_on_c, 2, 70, 119
1, 62827, Note_off_c, 2, 72, 64
1, 62863, Note_on_c, 3, 69, 119
1, 62882, Note_off_c, 2, 70, 64
1, 62901, Note_off_c, 4, 63, 64
1, 62901, Note_off_c, 4, 58, 64
1, 62917, Note_on_c, 2, 70, 119
1, 62918, Note_on_c, 4, 58, 127
1, 62918, Note_on_c, 4, 63, 127
1, 62935, Note_off_c, 3, 69, 64
1, 62970, Note_on_c, 3, 69, 119
1, 62988, Note_off_c, 2, 70, 64
1, 63025, Note_on_c, 2, 70, 119
1, 63042, Note_off_c, 3, 69, 64
1, 63079, Note_on_c, 3, 69, 119
1, 63096, Note_off_c, 2, 70, 64
1, 63135, Note_on_c, 2, 72, 120
1, 63154, Note_off_c, 3, 69, 64
1, 63296, Note_on_c, 2, 70, 119
1, 63318, Note_off_c, 2, 72, 64
1, 63342, Note_off_c, 4, 63, 64
1, 63342, Note_off_c, 4, 58, 64
1, 63355, Note_off_c, 2, 70, 64
1, 63358, Note_on_c, 2, 70, 119
1, 63360, Note_on_c, 4, 58, 127
1, 63360, Note_on_c, 4, 62, 127
1, 63784, Note_off_c, 2, 70, 64
1, 63785, Note_on_c, 2, 71, 119
1, 63896, Note_on_c, 2, 72, 120
1, 63911, Note_off_c, 2, 71, 64
1, 64005, Note_on_c, 2, 74, 120
1, 64022, Note_off_c, 2, 72, 64
1, 64126, Note_on_c, 2, 72, 120
1, 64146, Note_off_c, 2, 74, 64
1, 64231, Note_on_c, 2, 70, 119
1, 64247, Note_off_c, 2, 72, 64
1, 64329, Note_on_c, 2, 68, 119
1, 64347, Note_off_c, 2, 70, 64
1, 64443, Note_on_c, 4, 67, 121
1, 64462, Note_off_c, 2, 68, 64
1, 64550, Note_on_c, 4, 65, 127
1, 64567, Note_off_c, 4, 67, 64
1, 64657, Note_on_c, 4, 67, 121
1, 64658, Note_on_c, 4, 51, 127
1, 64659, Note_off_c, 4, 62, 64
1, 64659, Note_off_c, 4, 58, 64
1, 64676, Note_off_c, 4, 65, 64
1, 64767, Note_on_c, 4, 55, 127
1, 64875, Note_on_c, 4, 58, 127
1, 64899, Note_off_c, 4, 51, 64
1, 64985, Note_on_c, 4, 63, 127
1, 65009, Note_off_c, 4, 55, 64
1, 65094, Note_off_c, 4, 67, 64
1, 65095, Note_on_c, 2, 70, 119
1, 65095, Note_on_c, 4, 51, 127
1, 65117, Note_off_c, 4, 58, 64
1, 65203, Note_on_c, 4, 55, 127
1, 65225, Note_off_c, 4, 63, 64
1, 65308, Note_on_c, 4, 58, 127
1, 65331, Note_off_c, 4, 51, 64
1, 65414, Note_on_c, 4, 63, 127
1, 65437, Note_off_c, 4, 55, 64
1, 65520, Note_on_c, 4, 49, 127
1, 65543, Note_off_c, 4, 58, 64
1, 65626, Note_on_c, 4, 55, 127
1, 65649, Note_off_c, 4, 63, 64
1, 65733, Note_on_c, 4, 58, 127
1, 65733, Note_on_c, 2, 77, 120
1, 65754, Note_off_c, 2, 70, 64
1, 65760, Note_off_c, 4, 49, 64
1, 65781, Note_on_c, 2, 75, 120
1, 65801, Note_off_c, 2, 77, 64
1, 65828, Note_on_c, 2, 74, 120
1, 65847, Note_off_c, 2, 75, 64
1, 65852, Note_on_c, 4, 61, 127
1, 65878, Note_on_c, 2, 75, 120
1, 65879, Note_off_c, 4, 55, 64
1, 65897, Note_off_c, 2, 74, 64
1, 65928, Note_on_c, 2, 77, 120
1, 65947, Note_off_c, 2, 75, 64
1, 65976, Note_on_c, 4, 49, 127
1, 65976, Note_on_c, 2, 75, 120
1, 65996, Note_off_c, 2, 77, 64
1, 66001, Note_off_c, 4, 58, 64
1, 66082, Note_on_c, 4, 55, 127
1, 66104, Note_off_c, 4, 61, 64
1, 66185, Note_off_c, 2, 75, 64
1, 66185, Note_on_c, 4, 67, 125
1, 66187, Note_on_c, 4, 58, 127
1, 66206, Note_off_c, 4, 49, 64
1, 66286, Note_on_c, 4, 61, 127
1, 66310, Note_off_c, 4, 55, 64
1, 66381, Note_off_c, 4, 67, 64
1, 66392, Note_on_c, 2, 70, 123
1, 66393, Note_on_c, 4, 48, 127
1, 66420, Note_off_c, 4, 58, 64
1, 66501, Note_on_c, 4, 51, 127
1, 66501, Note_on_c, 2, 68, 123
1, 66520, Note_off_c, 2, 70, 64
1, 66527, Note_off_c, 4, 61, 64
1, 66593, Note_off_c, 2, 68, 64
1, 66608, Note_on_c, 2, 68, 123
1, 66609, Note_on_c, 4, 56, 127
1, 66633, Note_off_c, 4, 48, 64
1, 66717, Note_on_c, 4, 60, 127
1, 66741, Note_off_c, 4, 51, 64
1, 66826, Note_on_c, 4, 48, 127
1, 66847, Note_off_c, 4, 56, 64
1, 66930, Note_on_c, 4, 51, 127
1, 66952, Note_off_c, 4, 60, 64
1, 67034, Note_on_c, 4, 56, 127
1, 67056, Note_off_c, 4, 48, 64
1, 67139, Note_on_c, 4, 60, 127
1, 67161, Note_off_c, 4, 51, 64
1, 67244, Note_on_c, 4, 55, 127
1, 67267, Note_off_c, 4, 56, 64
1, 67352, Note_on_c, 4, 58, 127
1, 67374, Note_off_c, 4, 60, 64
1, 67456, Note_off_c, 2, 68, 64
1, 67457, Note_on_c, 4, 63, 127
1, 67457, Note_on_c, 2, 77, 110
1, 67478, Note_off_c, 4, 55, 64
1, 67497, Note_on_c, 2, 75, 110
1, 67514, Note_off_c, 2, 77, 64
1, 67541, Note_on_c, 2, 74, 110
1, 67560, Note_off_c, 2, 75, 64
1, 67565, Note_on_c, 4, 67, 121
1, 67587, Note_on_c, 2, 75, 110
1, 67588, Note_off_c, 4, 58, 64
1, 67607, Note_off_c, 2, 74, 64
1, 67636, Note_on_c, 2, 77, 110
1, 67655, Note_off_c, 2, 75, 64
1, 67681, Note_on_c, 2, 75, 110
1, 67681, Note_on_c, 4, 55, 127
1, 67698, Note_off_c, 2, 77, 64
1, 67703, Note_off_c, 4, 63, 64
1, 67780, Note_on_c, 4, 58, 127
1, 67803, Note_off_c, 4, 67, 64
1, 67885, Note_on_c, 2, 73, 123
1, 67886, Note_on_c, 4, 63, 127
1, 67908, Note_off_c, 4, 55, 64
1, 67909, Note_off_c, 2, 75, 64
1, 67991, Note_on_c, 4, 67, 121
1, 68014, Note_off_c, 4, 58, 64
1, 68098, Note_on_c, 4, 56, 127
1, 68098, Note_on_c, 2, 71, 123
1, 68121, Note_off_c, 2, 73, 64
1, 68121, Note_off_c, 4, 63, 64
1, 68204, Note_on_c, 4, 60, 127
1, 68225, Note_off_c, 4, 67, 64
1, 68313, Note_on_c, 2, 72, 123
1, 68313, Note_on_c, 4, 63, 127
1, 68336, Note_off_c, 2, 71, 64
1, 68336, Note_off_c, 4, 56, 64
1, 68419, Note_on_c, 2, 68, 119
1, 68441, Note_off_c, 4, 60, 64
1, 68520, Note_on_c, 4, 56, 127
1, 68542, Note_off_c, 4, 63, 64
1, 68623, Note_on_c, 4, 60, 127
1, 68645, Note_off_c, 2, 68, 64
1, 68708, Note_off_c, 2, 72, 64
1, 68724, Note_on_c, 2, 72, 123
1, 68725, Note_on_c, 4, 63, 127
1, 68747, Note_off_c, 4, 56, 64
1, 68834, Note_on_c, 2, 68, 119
1, 68858, Note_off_c, 4, 60, 64
1, 68944, Note_on_c, 4, 56, 127
1, 68944, Note_on_c, 2, 75, 123
1, 68966, Note_off_c, 4, 63, 64
1, 68967, Note_off_c, 2, 72, 64
1, 69049, Note_on_c, 4, 58, 127
1, 69072, Note_off_c, 2, 68, 64
1, 69155, Note_on_c, 4, 62, 127
1, 69155, Note_on_c, 2, 74, 123
1, 69178, Note_off_c, 2, 75, 64
1, 69178, Note_off_c, 4, 56, 64
1, 69262, Note_on_c, 4, 65, 127
1, 69283, Note_off_c, 4, 58, 64
1, 69366, Note_on_c, 4, 56, 127
1, 69388, Note_off_c, 4, 62, 64
1, 69469, Note_on_c, 4, 58, 127
1, 69492, Note_off_c, 4, 65, 64
1, 69572, Note_off_c, 2, 74, 64
1, 69572, Note_on_c, 2, 70, 123
1, 69573, Note_on_c, 4, 62, 127
1, 69595, Note_off_c, 4, 56, 64
1, 69678, Note_on_c, 4, 65, 127
1, 69701, Note_off_c, 4, 58, 64
1, 69790, Note_on_c, 4, 55, 127
1, 69790, Note_on_c, 2, 77, 115
1, 69814, Note_off_c, 2, 70, 64
1, 69814, Note_off_c, 4, 62, 64
1, 69901, Note_on_c, 4, 58, 127
1, 69925, Note_off_c, 4, 65, 64
1, 70012, Note_on_c, 2, 75, 115
1, 70013, Note_on_c, 4, 63, 127
1, 70035, Note_off_c, 2, 77, 64
1, 70035, Note_off_c, 4, 55, 64
1, 70120, Note_on_c, 4, 67, 121
1, 70143, Note_off_c, 4, 58, 64
1, 70224, Note_on_c, 4, 55, 127
1, 70248, Note_off_c, 4, 63, 64
1, 70329, Note_on_c, 4, 58, 127
1, 70351, Note_off_c, 4, 67, 64
1, 70416, Note_off_c, 2, 75, 64
1, 70433, Note_on_c, 4, 63, 127
1, 70433, Note_on_c, 2, 75, 115
1, 70455, Note_off_c, 4, 55, 64
1, 70536, Note_on_c, 4, 67, 121
1, 70558, Note_off_c, 4, 58, 64
1, 70637, Note_on_c, 2, 77, 115
1, 70638, Note_on_c, 4, 57, 127
1, 70659, Note_off_c, 4, 63, 64
1, 70660, Note_off_c, 2, 75, 64
1, 70739, Note_on_c, 4, 60, 127
1, 70760, Note_off_c, 4, 67, 64
1, 70843, Note_on_c, 4, 63, 127
1, 70843, Note_on_c, 1, 78, 112
1, 70866, Note_off_c, 2, 77, 64
1, 70866, Note_off_c, 4, 57, 64
1, 70950, Note_on_c, 4, 66, 125
1, 70973, Note_off_c, 4, 60, 64
1, 71058, Note_on_c, 4, 57, 127
1, 71081, Note_off_c, 4, 63, 64
1, 71165, Note_on_c, 4, 60, 127
1, 71188, Note_off_c, 4, 66, 64
1, 71270, Note_off_c, 1, 78, 64
1, 71270, Note_on_c, 2, 75, 115
1, 71271, Note_on_c, 4, 63, 127
1, 71292, Note_off_c, 4, 57, 64
1, 71367, Note_off_c, 4, 60, 64
1, 71369, Note_on_c, 4, 66, 125
1, 71468, Note_off_c, 2, 75, 64
1, 71472, Note_off_c, 4, 66, 64
1, 71472, Note_off_c, 4, 63, 64
1, 71472, Note_on_c, 2, 74, 120
1, 71474, Note_on_c, 4, 65, 127
1, 71475, Note_on_c, 4, 58, 127
1, 71586, Note_on_c, 2, 75, 120
1, 71588, Note_on_c, 4, 66, 125
1, 71602, Note_off_c, 2, 74, 64
1, 71603, Note_off_c, 4, 65, 64
1, 71693, Note_on_c, 2, 74, 120
1, 71694, Note_on_c, 4, 65, 127
1, 71713, Note_off_c, 2, 75, 64
1, 71714, Note_off_c, 4, 66, 64
1, 71807, Note_on_c, 1, 78, 117
1, 71808, Note_on_c, 4, 63, 127
1, 71824, Note_off_c, 2, 74, 64
1, 71826, Note_off_c, 4, 65, 64
1, 71905, Note_on_c, 2, 77, 120
1, 71906, Note_on_c, 4, 62, 127
1, 71923, Note_off_c, 1, 78, 64
1, 71925, Note_off_c, 4, 63, 64
1, 72014, Note_on_c, 1, 81, 113
1, 72015, Note_on_c, 2, 75, 116
1, 72015, Note_on_c, 4, 66, 121
1, 72029, Note_off_c, 2, 77, 64
1, 72029, Note_off_c, 4, 62, 64
1, 72112, Note_on_c, 1, 82, 113
1, 72113, Note_on_c, 2, 74, 116
1, 72114, Note_on_c, 4, 65, 123
1, 72131, Note_off_c, 2, 75, 64
1, 72131, Note_off_c, 1, 81, 64
1, 72132, Note_off_c, 4, 66, 64
1, 72233, Note_on_c, 1, 78, 113
1, 72236, Note_on_c, 2, 69, 115
1, 72237, Note_on_c, 4, 63, 127
1, 72256, Note_off_c, 2, 74, 64
1, 72257, Note_off_c, 1, 82, 64
1, 72258, Note_off_c, 4, 65, 64
1, 72337, Note_off_c, 1, 78, 64
1, 72339, Note_off_c, 2, 69, 64
1, 72339, Note_off_c, 4, 63, 64
1, 72347, Note_on_c, 2, 69, 119
1, 72347, Note_on_c, 1, 78, 117
1, 72348, Note_on_c, 4, 63, 127
1, 72768, Note_off_c, 1, 78, 64
1, 72770, Note_off_c, 2, 69, 64
1, 72770, Note_off_c, 4, 63, 64
1, 72790, Note_on_c, 2, 77, 113
1, 72792, Note_on_c, 4, 62, 126
1, 72792, Note_on_c, 2, 70, 112
1, 73234, Note_on_c, 4, 51, 121
1, 73271, Note_off_c, 2, 77, 64
1, 73272, Note_off_c, 4, 62, 64
1, 73272, Note_off_c, 4, 58, 64
1, 73273, Note_off_c, 2, 70, 64
1, 73344, Note_on_c, 4, 58, 121
1, 73344, Note_on_c, 4, 55, 121
1, 73437, Note_off_c, 4, 55, 64
1, 73438, Note_off_c, 4, 58, 64
1, 73455, Note_on_c, 4, 58, 121
1, 73456, Note_on_c, 4, 55, 121
1, 73548, Note_off_c, 4, 55, 64
1, 73548, Note_off_c, 4, 58, 64
1, 73566, Note_on_c, 4, 58, 121
1, 73566, Note_on_c, 4, 55, 121
1, 73657, Note_off_c, 4, 51, 64
1, 73675, Note_off_c, 4, 55, 64
1, 73676, Note_off_c, 4, 58, 64
1, 73676, Note_on_c, 4, 51, 121
1, 73777, Note_on_c, 4, 63, 127
1, 73784, Note_on_c, 4, 58, 121
1, 73786, Note_on_c, 4, 55, 121
1, 73877, Note_off_c, 4, 58, 64
1, 73879, Note_off_c, 4, 55, 64
1, 73888, Note_on_c, 4, 67, 125
1, 73896, Note_on_c, 4, 58, 127
1, 73898, Note_on_c, 4, 55, 127
1, 73908, Note_off_c, 4, 63, 64
1, 73986, Note_off_c, 4, 58, 64
1, 73987, Note_off_c, 4, 55, 64
1, 73996, Note_on_c, 2, 70, 123
1, 74001, Note_on_c, 4, 58, 127
1, 74002, Note_on_c, 4, 55, 127
1, 74012, Note_off_c, 4, 67, 64
1, 74087, Note_off_c, 4, 51, 64
1, 74090, Note_off_c, 2, 70, 64
1, 74105, Note_off_c, 4, 55, 64
1, 74105, Note_off_c, 4, 58, 64
1, 74106, Note_on_c, 4, 53, 127
1, 74108, Note_on_c, 2, 70, 123
1, 74214, Note_on_c, 2, 68, 123
1, 74217, Note_on_c, 4, 58, 127
1, 74219, Note_on_c, 4, 56, 127
1, 74235, Note_off_c, 2, 70, 64
1, 74301, Note_off_c, 4, 58, 64
1, 74303, Note_off_c, 4, 56, 64
1, 74318, Note_on_c, 4, 65, 127
1, 74319, Note_on_c, 4, 58, 127
1, 74321, Note_on_c, 4, 56, 127
1, 74334, Note_off_c, 2, 68, 64
1, 74405, Note_off_c, 4, 58, 64
1, 74407, Note_off_c, 4, 56, 64
1, 74423, Note_on_c, 4, 62, 127
1, 74424, Note_on_c, 4, 58, 127
1, 74426, Note_on_c, 4, 56, 127
1, 74443, Note_off_c, 4, 65, 64
1, 74522, Note_off_c, 4, 53, 64
1, 74543, Note_on_c, 4, 53, 127
1, 74563, Note_off_c, 4, 62, 64
1, 74641, Note_off_c, 4, 58, 64
1, 74643, Note_off_c, 4, 56, 64
1, 74659, Note_on_c, 4, 62, 127
1, 74659, Note_on_c, 4, 58, 127
1, 74660, Note_on_c, 4, 56, 127
1, 74754, Note_off_c, 4, 56, 64
1, 74754, Note_off_c, 4, 58, 64
1, 74772, Note_on_c, 4, 65, 127
1, 74772, Note_on_c, 4, 58, 127
1, 74773, Note_on_c, 4, 56, 127
1, 74788, Note_off_c, 4, 62, 64
1, 74857, Note_off_c, 4, 56, 64
1, 74858, Note_off_c, 4, 58, 64
1, 74875, Note_on_c, 4, 58, 127
1, 74875, Note_on_c, 2, 68, 123
1, 74876, Note_on_c, 4, 56, 127
1, 74892, Note_off_c, 4, 65, 64
1, 74958, Note_off_c, 4, 53, 64
1, 74976, Note_off_c, 4, 58, 64
1, 74976, Note_off_c, 4, 56, 64
1, 74976, Note_on_c, 2, 72, 123
1, 74977, Note_on_c, 4, 51, 127
1, 74994, Note_off_c, 2, 68, 64
1, 75086, Note_on_c, 4, 58, 127
1, 75086, Note_on_c, 2, 70, 123
1, 75087, Note_on_c, 4, 55, 127
1, 75104, Note_off_c, 2, 72, 64
1, 75172, Note_off_c, 4, 55, 64
1, 75173, Note_off_c, 4, 58, 64
1, 75190, Note_on_c, 4, 67, 125
1, 75190, Note_on_c, 4, 58, 127
1, 75191, Note_on_c, 4, 55, 127
1, 75207, Note_off_c, 2, 70, 64
1, 75276, Note_off_c, 4, 55, 64
1, 75276, Note_off_c, 4, 58, 64
1, 75295, Note_on_c, 4, 55, 127
1, 75295, Note_on_c, 4, 58, 127
1, 75295, Note_on_c, 4, 63, 127
1, 75312, Note_off_c, 4, 67, 64
1, 75403, Note_off_c, 4, 63, 64
1, 75403, Note_on_c, 4, 63, 127
1, 75512, Note_on_c, 3, 75, 120
1, 75514, Note_off_c, 4, 55, 64
1, 75515, Note_off_c, 4, 58, 64
1, 75515, Note_on_c, 3, 70, 114
1, 75516, Note_on_c, 4, 67, 121
1, 75551, Note_off_c, 4, 51, 64
1, 75606, Note_off_c, 3, 70, 64
1, 75608, Note_off_c, 4, 67, 64
1, 75625, Note_on_c, 1, 79, 117
1, 75626, Note_on_c, 3, 70, 114
1, 75626, Note_on_c, 4, 67, 121
1, 75642, Note_off_c, 3, 75, 64
1, 75712, Note_off_c, 4, 67, 64
1, 75712, Note_off_c, 3, 70, 64
1, 75726, Note_on_c, 1, 82, 117
1, 75728, Note_on_c, 3, 70, 114
1, 75729, Note_on_c, 4, 67, 121
1, 75744, Note_off_c, 1, 79, 64
1, 75816, Note_off_c, 4, 63, 64
1, 75822, Note_off_c, 1, 82, 64
1, 75833, Note_off_c, 4, 67, 64
1, 75833, Note_off_c, 3, 70, 64
1, 75834, Note_on_c, 4, 65, 127
1, 75834, Note_on_c, 1, 82, 117
1, 75943, Note_on_c, 1, 80, 117
1, 75945, Note_on_c, 3, 70, 114
1, 75946, Note_on_c, 3, 68, 119
1, 75967, Note_off_c, 1, 82, 64
1, 76035, Note_off_c, 3, 68, 64
1, 76036, Note_off_c, 3, 70, 64
1, 76051, Note_on_c, 2, 77, 120
1, 76053, Note_on_c, 3, 68, 119
1, 76053, Note_on_c, 3, 70, 114
1, 76070, Note_off_c, 1, 80, 64
1, 76145, Note_off_c, 3, 68, 64
1, 76146, Note_off_c, 3, 70, 64
1, 76162, Note_on_c, 3, 74, 120
1, 76164, Note_on_c, 3, 70, 114
1, 76165, Note_on_c, 3, 68, 119
1, 76180, Note_off_c, 2, 77, 64
1, 76251, Note_off_c, 4, 65, 64
1, 76270, Note_on_c, 4, 65, 127
1, 76287, Note_off_c, 3, 74, 64
1, 76360, Note_off_c, 3, 70, 64
1, 76360, Note_off_c, 3, 68, 64
1, 76379, Note_on_c, 3, 74, 120
1, 76379, Note_on_c, 3, 70, 114
1, 76379, Note_on_c, 3, 68, 119
1, 76469, Note_off_c, 3, 68, 64
1, 76469, Note_off_c, 3, 70, 64
1, 76487, Note_on_c, 2, 77, 114
1, 76488, Note_on_c, 3, 68, 119
1, 76488, Note_on_c, 3, 70, 114
1, 76503, Note_off_c, 3, 74, 64
1, 76573, Note_off_c, 3, 68, 64
1, 76574, Note_off_c, 3, 70, 64
1, 76591, Note_on_c, 1, 80, 111
1, 76591, Note_on_c, 3, 70, 114
1, 76592, Note_on_c, 3, 68, 119
1, 76609, Note_off_c, 2, 77, 64
1, 76679, Note_off_c, 4, 65, 64
1, 76698, Note_off_c, 3, 68, 64
1, 76699, Note_off_c, 3, 70, 64
1, 76699, Note_on_c, 1, 84, 113
1, 76700, Note_on_c, 4, 63, 127
1, 76716, Note_off_c, 1, 80, 64
1, 76806, Note_on_c, 1, 82, 105
1, 76806, Note_on_c, 3, 70, 114
1, 76807, Note_on_c, 4, 67, 121
1, 76824, Note_off_c, 1, 84, 64
1, 76890, Note_off_c, 4, 67, 64
1, 76891, Note_off_c, 3, 70, 64
1, 76908, Note_on_c, 1, 79, 105
1, 76909, Note_on_c, 3, 70, 114
1, 76909, Note_on_c, 4, 67, 121
1, 76926, Note_off_c, 1, 82, 64
1, 76998, Note_off_c, 4, 67, 64
1, 76998, Note_off_c, 3, 70, 64
1, 77016, Note_on_c, 3, 70, 114
1, 77016, Note_on_c, 3, 75, 114
1, 77017, Note_on_c, 4, 67, 121
1, 77034, Note_off_c, 1, 79, 64
1, 77111, Note_off_c, 4, 63, 64
1, 77130, Note_off_c, 4, 67, 64
1, 77131, Note_off_c, 3, 70, 64
1, 77131, Note_on_c, 4, 51, 127
1, 77248, Note_on_c, 2, 70, 119
1, 77249, Note_on_c, 4, 55, 127
1, 77268, Note_off_c, 4, 51, 64
1, 77273, Note_off_c, 3, 75, 64
1, 77363, Note_on_c, 2, 69, 119
1, 77363, Note_on_c, 4, 53, 127
1, 77381, Note_off_c, 2, 70, 64
1, 77381, Note_off_c, 4, 55, 64
1, 77417, Note_on_c, 2, 70, 119
1, 77436, Note_off_c, 2, 69, 64
1, 77466, Note_on_c, 2, 74, 120
1, 77467, Note_on_c, 4, 56, 127
1, 77485, Note_off_c, 2, 70, 64
1, 77486, Note_off_c, 4, 53, 64
1, 77524, Note_on_c, 2, 70, 119
1, 77540, Note_off_c, 2, 74, 64
1, 77576, Note_on_c, 4, 55, 127
1, 77578, Note_on_c, 2, 75, 120
1, 77594, Note_off_c, 2, 70, 64
1, 77594, Note_off_c, 4, 56, 64
1, 77676, Note_off_c, 2, 75, 64
1, 77682, Note_on_c, 2, 70, 123
1, 77683, Note_on_c, 4, 58, 127
1, 77701, Note_off_c, 4, 55, 64
1, 77770, Note_off_c, 2, 70, 64
1, 77796, Note_on_c, 2, 70, 119
1, 77796, Note_on_c, 4, 63, 127
1, 77811, Note_off_c, 4, 58, 64
1, 77906, Note_on_c, 4, 67, 121
1, 77925, Note_off_c, 4, 63, 64
1, 78019, Note_on_c, 4, 43, 127
1, 78037, Note_off_c, 4, 67, 64
1, 78130, Note_on_c, 4, 67, 121
1, 78132, Note_on_c, 4, 46, 127
1, 78169, Note_off_c, 2, 70, 64
1, 78236, Note_on_c, 2, 70, 119
1, 78238, Note_on_c, 4, 51, 127
1, 78254, Note_off_c, 4, 67, 64
1, 78262, Note_off_c, 4, 43, 64
1, 78293, Note_on_c, 4, 67, 121
1, 78308, Note_off_c, 2, 70, 64
1, 78339, Note_on_c, 2, 70, 119
1, 78341, Note_on_c, 4, 55, 127
1, 78358, Note_off_c, 4, 67, 64
1, 78364, Note_off_c, 4, 46, 64
1, 78395, Note_on_c, 4, 67, 121
1, 78409, Note_off_c, 2, 70, 64
1, 78440, Note_on_c, 4, 44, 127
1, 78440, Note_on_c, 2, 72, 120
1, 78458, Note_off_c, 4, 67, 64
1, 78463, Note_off_c, 4, 51, 64
1, 78535, Note_off_c, 2, 72, 64
1, 78544, Note_on_c, 2, 68, 119
1, 78545, Note_on_c, 4, 48, 127
1, 78565, Note_off_c, 4, 55, 64
1, 78613, Note_off_c, 2, 68, 64
1, 78644, Note_on_c, 2, 68, 119
1, 78644, Note_on_c, 4, 53, 127
1, 78667, Note_off_c, 4, 44, 64
1, 78754, Note_on_c, 4, 56, 127
1, 78778, Note_off_c, 4, 48, 64
1, 78865, Note_on_c, 4, 44, 127
1, 78889, Note_off_c, 4, 53, 64
1, 78973, Note_off_c, 2, 68, 64
1, 78973, Note_on_c, 4, 65, 127
1, 78974, Note_on_c, 4, 48, 127
1, 78996, Note_off_c, 4, 56, 64
1, 79080, Note_on_c, 4, 53, 127
1, 79080, Note_on_c, 2, 68, 119
1, 79097, Note_off_c, 4, 65, 64
1, 79102, Note_off_c, 4, 44, 64
1, 79134, Note_on_c, 4, 65, 127
1, 79153, Note_off_c, 2, 68, 64
1, 79185, Note_on_c, 2, 68, 119
1, 79186, Note_on_c, 4, 56, 127
1, 79203, Note_off_c, 4, 65, 64
1, 79209, Note_off_c, 4, 48, 64
1, 79239, Note_on_c, 4, 65, 127
1, 79257, Note_off_c, 2, 68, 64
1, 79290, Note_on_c, 4, 46, 127
1, 79290, Note_on_c, 2, 70, 119
1, 79306, Note_off_c, 4, 65, 64
1, 79310, Note_off_c, 4, 53, 64
1, 79395, Note_on_c, 4, 67, 121
1, 79396, Note_on_c, 4, 51, 127
1, 79414, Note_off_c, 2, 70, 64
1, 79418, Note_off_c, 4, 56, 64
1, 79503, Note_on_c, 4, 55, 127
1, 79526, Note_off_c, 4, 46, 64
1, 79558, Note_on_c, 4, 63, 127
1, 79593, Note_off_c, 4, 67, 64
1, 79608, Note_on_c, 4, 67, 121
1, 79609, Note_on_c, 4, 58, 127
1, 79626, Note_off_c, 4, 63, 64
1, 79631, Note_off_c, 4, 51, 64
1, 79663, Note_on_c, 4, 63, 127
1, 79681, Note_off_c, 4, 67, 64
1, 79713, Note_on_c, 2, 68, 119
1, 79714, Note_on_c, 4, 46, 127
1, 79730, Note_off_c, 4, 63, 64
1, 79736, Note_off_c, 4, 55, 64
1, 79821, Note_off_c, 2, 68, 64
1, 79821, Note_on_c, 4, 65, 127
1, 79822, Note_on_c, 4, 50, 127
1, 79844, Note_off_c, 4, 58, 64
1, 79929, Note_on_c, 4, 53, 127
1, 79953, Note_off_c, 4, 46, 64
1, 79987, Note_on_c, 4, 62, 127
1, 80021, Note_off_c, 4, 65, 64
1, 80040, Note_on_c, 4, 65, 127
1, 80040, Note_on_c, 4, 56, 127
1, 80058, Note_off_c, 4, 62, 64
1, 80064, Note_off_c, 4, 50, 64
1, 80078, Note_off_c, 4, 53, 64
1, 80098, Note_on_c, 4, 62, 127
1, 80116, Note_off_c, 4, 65, 64
1, 80153, Note_off_c, 4, 56, 64
1, 80153, Note_on_c, 4, 65, 127
1, 80154, Note_on_c, 4, 48, 127
1, 80154, Note_on_c, 4, 55, 127
1, 80171, Note_off_c, 4, 62, 64
1, 80208, Note_on_c, 4, 63, 127
1, 80219, Note_off_c, 4, 65, 64
1, 80263, Note_on_c, 4, 62, 127
1, 80273, Note_off_c, 4, 63, 64
1, 80319, Note_on_c, 4, 63, 127
1, 80329, Note_off_c, 4, 62, 64
1, 80375, Note_on_c, 4, 65, 127
1, 80384, Note_off_c, 4, 63, 64
1, 80482, Note_on_c, 4, 67, 121
1, 80486, Note_off_c, 4, 65, 64
1, 80589, Note_on_c, 2, 68, 119
1, 80594, Note_off_c, 4, 67, 64
1, 80696, Note_on_c, 4, 67, 121
1, 80702, Note_off_c, 2, 68, 64
1, 80750, Note_on_c, 2, 70, 119
1, 80768, Note_off_c, 4, 67, 64
1, 80804, Note_on_c, 2, 68, 119
1, 80822, Note_off_c, 2, 70, 64
1, 80857, Note_on_c, 2, 72, 120
1, 80876, Note_off_c, 2, 68, 64
1, 80912, Note_on_c, 2, 70, 119
1, 80929, Note_off_c, 2, 72, 64
1, 80965, Note_on_c, 2, 74, 120
1, 80983, Note_off_c, 2, 70, 64
1, 81019, Note_on_c, 2, 75, 120
1, 81020, Note_on_c, 3, 70, 119
1, 81020, Note_on_c, 4, 67, 121
1, 81037, Note_off_c, 2, 74, 64
1, 81073, Note_on_c, 1, 82, 112
1, 81127, Note_on_c, 1, 81, 112
1, 81145, Note_off_c, 1, 82, 64
1, 81181, Note_on_c, 1, 82, 112
1, 81200, Note_off_c, 1, 81, 64
1, 81233, Note_on_c, 1, 84, 114
1, 81250, Note_off_c, 1, 82, 64
1, 81282, Note_on_c, 1, 82, 112
1, 81300, Note_off_c, 1, 84, 64
1, 81336, Note_on_c, 1, 81, 112
1, 81354, Note_off_c, 1, 82, 64
1, 81391, Note_on_c, 1, 82, 112
1, 81409, Note_off_c, 1, 81, 64
1, 81434, Note_off_c, 4, 67, 64
1, 81435, Note_off_c, 2, 75, 64
1, 81445, Note_on_c, 2, 75, 120
1, 81446, Note_on_c, 4, 67, 121
1, 81490, Note_off_c, 1, 82, 64
1, 81500, Note_on_c, 1, 82, 112
1, 81555, Note_on_c, 1, 81, 112
1, 81573, Note_off_c, 1, 82, 64
1, 81610, Note_on_c, 1, 82, 112
1, 81629, Note_off_c, 1, 81, 64
1, 81647, Note_off_c, 4, 67, 64
1, 81650, Note_off_c, 2, 75, 64
1, 81665, Note_on_c, 2, 75, 120
1, 81666, Note_on_c, 4, 67, 121
1, 81711, Note_off_c, 1, 82, 64
1, 81721, Note_on_c, 1, 81, 112
1, 81776, Note_on_c, 1, 82, 112
1, 81795, Note_off_c, 1, 81, 64
1, 81830, Note_on_c, 1, 83, 112
1, 81848, Note_off_c, 1, 82, 64
1, 81864, Note_off_c, 4, 67, 64
1, 81868, Note_off_c, 2, 75, 64
1, 81881, Note_off_c, 3, 70, 64
1, 81882, Note_on_c, 1, 84, 114
1, 81882, Note_on_c, 2, 75, 115
1, 81883, Note_on_c, 3, 68, 119
1, 81900, Note_off_c, 1, 83, 64
1, 81937, Note_on_c, 2, 77, 110
1, 81955, Note_off_c, 2, 75, 64
1, 81956, Note_off_c, 1, 84, 64
1, 81992, Note_on_c, 2, 76, 110
1, 82009, Note_off_c, 2, 77, 64
1, 82043, Note_on_c, 2, 77, 110
1, 82059, Note_off_c, 2, 76, 64
1, 82092, Note_on_c, 1, 79, 112
1, 82108, Note_off_c, 2, 77, 64
1, 82143, Note_on_c, 2, 77, 110
1, 82161, Note_off_c, 1, 79, 64
1, 82196, Note_on_c, 2, 76, 110
1, 82213, Note_off_c, 2, 77, 64
1, 82249, Note_on_c, 2, 77, 110
1, 82266, Note_off_c, 2, 76, 64
1, 82284, Note_off_c, 3, 68, 64
1, 82302, Note_on_c, 3, 68, 119
1, 82302, Note_on_c, 2, 75, 110
1, 82319, Note_off_c, 2, 77, 64
1, 82355, Note_on_c, 2, 77, 110
1, 82373, Note_off_c, 2, 75, 64
1, 82407, Note_on_c, 2, 76, 110
1, 82426, Note_off_c, 2, 77, 64
1, 82461, Note_on_c, 2, 77, 110
1, 82478, Note_off_c, 2, 76, 64
1, 82515, Note_on_c, 3, 69, 119
1, 82515, Note_on_c, 2, 75, 110
1, 82534, Note_off_c, 2, 77, 64
1, 82539, Note_off_c, 3, 68, 64
1, 82570, Note_on_c, 2, 76, 110
1, 82589, Note_off_c, 2, 75, 64
1, 82626, Note_on_c, 2, 77, 115
1, 82644, Note_off_c, 2, 76, 64
1, 82681, Note_on_c, 1, 78, 117
1, 82699, Note_off_c, 2, 77, 64
1, 82736, Note_on_c, 2, 75, 120
1, 82736, Note_on_c, 1, 79, 117
1, 82737, Note_on_c, 3, 70, 119
1, 82755, Note_off_c, 1, 78, 64
1, 82760, Note_off_c, 3, 69, 64
1, 82847, Note_on_c, 1, 80, 117
1, 82865, Note_off_c, 1, 79, 64
1, 82957, Note_on_c, 1, 81, 117
1, 82976, Note_off_c, 1, 80, 64
1, 83069, Note_on_c, 1, 82, 112
1, 83087, Note_off_c, 1, 81, 64
1, 83180, Note_off_c, 2, 75, 64
1, 83180, Note_on_c, 1, 79, 107
1, 83200, Note_off_c, 1, 82, 64
1, 83255, Note_on_c, 2, 77, 110
1, 83273, Note_off_c, 1, 79, 64
1, 83310, Note_on_c, 1, 79, 107
1, 83333, Note_off_c, 2, 77, 64
1, 83373, Note_on_c, 2, 77, 110
1, 83391, Note_off_c, 1, 79, 64
1, 83423, Note_off_c, 4, 48, 64
1, 83423, Note_off_c, 3, 70, 64
1, 83424, Note_off_c, 4, 55, 64
1, 83424, Note_on_c, 3, 68, 119
1, 83424, Note_on_c, 1, 79, 107
1, 83425, Note_on_c, 4, 58, 127
1, 83425, Note_on_c, 4, 62, 127
1, 83440, Note_off_c, 2, 77, 64
1, 83476, Note_on_c, 2, 77, 110
1, 83495, Note_off_c, 1, 79, 64
1, 83532, Note_on_c, 2, 75, 115
1, 83550, Note_off_c, 2, 77, 64
1, 83585, Note_on_c, 2, 77, 110
1, 83602, Note_off_c, 2, 75, 64
1, 83640, Note_off_c, 4, 58, 64
1, 83641, Note_off_c, 3, 68, 64
1, 83641, Note_off_c, 4, 62, 64
1, 83641, Note_on_c, 2, 75, 115
1, 83642, Note_on_c, 4, 63, 127
1, 83642, Note_on_c, 4, 67, 121
1, 83660, Note_off_c, 2, 77, 64
1, 83741, Note_off_c, 4, 67, 64
1, 83750, Note_on_c, 4, 67, 121
1, 83750, Note_on_c, 3, 70, 119
1, 83768, Note_off_c, 2, 75, 64
1, 83857, Note_on_c, 3, 68, 119
1, 83858, Note_on_c, 4, 65, 127
1, 83876, Note_off_c, 3, 70, 64
1, 83876, Note_off_c, 4, 67, 64
1, 83881, Note_off_c, 4, 63, 64
1, 83970, Note_on_c, 4, 63, 127
1, 83970, Note_on_c, 4, 67, 121
1, 83989, Note_off_c, 4, 65, 64
1, 83989, Note_off_c, 3, 68, 64
1, 84084, Note_on_c, 2, 74, 120
1, 84123, Note_on_c, 2, 77, 120
1, 84172, Note_on_c, 1, 80, 117
1, 84192, Note_off_c, 2, 74, 64
1, 84219, Note_off_c, 2, 77, 64
1, 84231, Note_on_c, 4, 62, 127
1, 84231, Note_on_c, 4, 65, 127
1, 84253, Note_off_c, 4, 67, 64
1, 84253, Note_off_c, 4, 63, 64
1, 84343, Note_on_c, 4, 63, 127
1, 84344, Note_on_c, 4, 60, 127
1, 84362, Note_off_c, 4, 62, 64
1, 84363, Note_off_c, 4, 65, 64
1, 84456, Note_on_c, 4, 62, 127
1, 84457, Note_on_c, 4, 58, 127
1, 84475, Note_off_c, 4, 60, 64
1, 84475, Note_off_c, 4, 63, 64
1, 84564, Note_on_c, 4, 51, 127
1, 84564, Note_on_c, 4, 63, 127
1, 84581, Note_off_c, 4, 58, 64
1, 84582, Note_off_c, 4, 62, 64
1, 84670, Note_on_c, 1, 79, 117
1, 84687, Note_off_c, 1, 80, 64
1, 84726, Note_on_c, 1, 82, 117
1, 84744, Note_off_c, 1, 79, 64
1, 84778, Note_on_c, 1, 80, 117
1, 84793, Note_off_c, 1, 82, 64
1, 84825, Note_on_c, 2, 77, 120
1, 84840, Note_off_c, 1, 80, 64
1, 84875, Note_on_c, 2, 75, 120
1, 84890, Note_off_c, 2, 77, 64
1, 84924, Note_on_c, 1, 79, 117
1, 84979, Note_on_c, 2, 77, 120
1, 84996, Note_off_c, 1, 79, 64
1, 84996, Note_off_c, 2, 75, 64
1, 85034, Note_on_c, 2, 74, 120
1, 85086, Note_on_c, 2, 72, 120
1, 85102, Note_off_c, 2, 77, 64
1, 85106, Note_off_c, 2, 74, 64
1, 85136, Note_on_c, 2, 75, 120
1, 85159, Note_off_c, 2, 72, 64
1, 85191, Note_on_c, 2, 74, 120
1, 85209, Note_off_c, 2, 75, 64
1, 85248, Note_on_c, 2, 70, 119
1, 85286, Note_off_c, 2, 74, 64
1, 85304, Note_on_c, 2, 68, 119
1, 85320, Note_off_c, 2, 70, 64
1, 85359, Note_on_c, 2, 72, 120
1, 85415, Note_off_c, 2, 72, 64
1, 85415, Note_off_c, 2, 68, 64
1, 85416, Note_off_c, 4, 63, 64
1, 85417, Note_on_c, 4, 64, 127
1, 85422, Note_on_c, 4, 61, 127
1, 85424, Note_on_c, 2, 70, 119
1, 85425, Note_on_c, 4, 67, 121
1, 85601, Note_on_c, 2, 72, 120
1, 85645, Note_off_c, 2, 70, 64
1, 85659, Note_on_c, 2, 70, 119
1, 85679, Note_off_c, 2, 72, 64
1, 85882, Note_off_c, 4, 64, 64
1, 85884, Note_off_c, 4, 61, 64
1, 85885, Note_off_c, 4, 67, 64
1, 85890, Note_on_c, 4, 67, 121
1, 85891, Note_on_c, 4, 64, 127
1, 85892, Note_on_c, 4, 61, 127
1, 86088, Note_off_c, 2, 70, 64
1, 86101, Note_on_c, 1, 82, 117
1, 86302, Note_off_c, 4, 64, 64
1, 86303, Note_off_c, 4, 67, 64
1, 86304, Note_off_c, 4, 61, 64
1, 86313, Note_on_c, 4, 64, 127
1, 86313, Note_on_c, 4, 67, 121
1, 86314, Note_on_c, 4, 60, 127
1, 86517, Note_off_c, 1, 82, 64
1, 86518, Note_on_c, 1, 79, 114
1, 86714, Note_off_c, 4, 67, 64
1, 86714, Note_off_c, 4, 64, 64
1, 86716, Note_off_c, 4, 60, 64
1, 86725, Note_on_c, 2, 76, 117
1, 86726, Note_on_c, 4, 64, 127
1, 86726, Note_on_c, 4, 67, 121
1, 86728, Note_on_c, 4, 60, 127
1, 86747, Note_off_c, 1, 79, 64
1, 86943, Note_on_c, 2, 70, 116
1, 86960, Note_off_c, 2, 76, 64
1, 87137, Note_off_c, 2, 70, 64
1, 87144, Note_off_c, 4, 67, 64
1, 87144, Note_off_c, 4, 64, 64
1, 87145, Note_off_c, 4, 60, 64
1, 87154, Note_on_c, 4, 65, 127
1, 87154, Note_on_c, 2, 70, 116
1, 87156, Note_on_c, 4, 60, 127
1, 87259, Note_off_c, 2, 70, 64
1, 87260, Note_on_c, 2, 69, 116
1, 87367, Note_off_c, 2, 69, 64
1, 87367, Note_on_c, 2, 69, 116
1, 87561, Note_off_c, 4, 65, 64
1, 87563, Note_off_c, 4, 60, 64
1, 87580, Note_on_c, 4, 65, 127
1, 87582, Note_on_c, 4, 60, 127
1, 87800, Note_on_c, 2, 68, 119
1, 87806, Note_off_c, 2, 69, 64
1, 87992, Note_off_c, 4, 65, 64
1, 87994, Note_off_c, 4, 60, 64
1, 88011, Note_on_c, 4, 60, 127
1, 88011, Note_on_c, 4, 63, 127
1, 88215, Note_off_c, 2, 68, 64
1, 88215, Note_on_c, 4, 67, 121
1, 88324, Note_on_c, 2, 68, 119
1, 88342, Note_off_c, 4, 67, 64
1, 88414, Note_off_c, 4, 60, 64
1, 88415, Note_off_c, 4, 63, 64
1, 88430, Note_on_c, 4, 63, 127
1, 88431, Note_on_c, 4, 59, 127
1, 88632, Note_on_c, 4, 67, 121
1, 88648, Note_off_c, 2, 68, 64
1, 88668, Note_off_c, 4, 51, 64
1, 88729, Note_on_c, 2, 68, 119
1, 88747, Note_off_c, 4, 67, 64
1, 88815, Note_off_c, 4, 59, 64
1, 88816, Note_off_c, 4, 63, 64
1, 88833, Note_on_c, 4, 62, 127
1, 88834, Note_on_c, 4, 58, 127
1, 88933, Note_on_c, 1, 80, 117
1, 89032, Note_on_c, 1, 79, 117
1, 89047, Note_off_c, 1, 80, 64
1, 89126, Note_on_c, 1, 80, 117
1, 89144, Note_off_c, 1, 79, 64
1, 89217, Note_off_c, 4, 58, 64
1, 89232, Note_on_c, 2, 68, 119
1, 89234, Note_on_c, 4, 58, 127
1, 89334, Note_on_c, 2, 77, 120
1, 89356, Note_off_c, 1, 80, 64
1, 89434, Note_on_c, 2, 76, 120
1, 89448, Note_off_c, 2, 77, 64
1, 89526, Note_on_c, 2, 77, 120
1, 89530, Note_off_c, 2, 68, 64
1, 89530, Note_off_c, 2, 68, 64
1, 89544, Note_off_c, 2, 76, 64
1, 89616, Note_off_c, 4, 58, 64
1, 89632, Note_on_c, 4, 65, 127
1, 89634, Note_on_c, 4, 58, 127
1, 89735, Note_on_c, 2, 74, 120
1, 89759, Note_off_c, 2, 77, 64
1, 89830, Note_on_c, 2, 73, 120
1, 89846, Note_off_c, 2, 74, 64
1, 89921, Note_on_c, 2, 74, 120
1, 89934, Note_off_c, 2, 73, 64
1, 89989, Note_off_c, 4, 62, 64
1, 90004, Note_off_c, 4, 65, 64
1, 90006, Note_off_c, 4, 58, 64
1, 90021, Note_on_c, 4, 65, 127
1, 90022, Note_on_c, 4, 58, 127
1, 90022, Note_on_c, 4, 62, 127
1, 90124, Note_on_c, 2, 68, 119
1, 90148, Note_off_c, 2, 74, 64
1, 90222, Note_on_c, 4, 67, 121
1, 90238, Note_off_c, 2, 68, 64
1, 90312, Note_on_c, 2, 68, 119
1, 90327, Note_off_c, 4, 67, 64
1, 90392, Note_off_c, 4, 65, 64
1, 90394, Note_off_c, 4, 58, 64
1, 90395, Note_off_c, 4, 62, 64
1, 90408, Note_on_c, 4, 67, 121
1, 90425, Note_off_c, 2, 68, 64
1, 90508, Note_on_c, 4, 63, 127
1, 90609, Note_on_c, 4, 62, 127
1, 90624, Note_off_c, 4, 63, 64
1, 90701, Note_on_c, 4, 63, 127
1, 90717, Note_off_c, 4, 62, 64
1, 90784, Note_off_c, 4, 67, 64
1, 90802, Note_off_c, 4, 63, 64
1, 90802, Note_on_c, 4, 67, 121
1, 90803, Note_on_c, 4, 63, 127
1, 90902, Note_on_c, 4, 61, 127
1, 91001, Note_on_c, 4, 60, 127
1, 91019, Note_off_c, 4, 61, 64
1, 91095, Note_on_c, 4, 61, 127
1, 91112, Note_off_c, 4, 60, 64
1, 91176, Note_off_c, 4, 63, 64
1, 91191, Note_off_c, 4, 67, 64
1, 91192, Note_on_c, 4, 63, 127
1, 91192, Note_on_c, 2, 68, 119
1, 91296, Note_on_c, 4, 60, 127
1, 91317, Note_off_c, 4, 61, 64
1, 91391, Note_on_c, 4, 59, 127
1, 91406, Note_off_c, 4, 60, 64
1, 91486, Note_on_c, 4, 60, 127
1, 91500, Note_off_c, 4, 59, 64
1, 91566, Note_off_c, 4, 63, 64
1, 91585, Note_off_c, 2, 68, 64
1, 91585, Note_on_c, 2, 69, 119
1, 91586, Note_on_c, 4, 63, 127
1, 91687, Note_on_c, 4, 59, 127
1, 91706, Note_off_c, 4, 60, 64
1, 91780, Note_on_c, 4, 58, 127
1, 91794, Note_off_c, 4, 59, 64
1, 91873, Note_on_c, 4, 59, 127
1, 91886, Note_off_c, 4, 58, 64
1, 91965, Note_on_c, 4, 62, 127
1, 91966, Note_on_c, 4, 58, 127
1, 91969, Note_off_c, 2, 69, 64
1, 91969, Note_off_c, 4, 63, 64
1, 91979, Note_off_c, 4, 59, 64
1, 92019, Note_on_c, 2, 70, 119
1, 92078, Note_on_c, 3, 69, 119
1, 92093, Note_off_c, 2, 70, 64
1, 92127, Note_on_c, 2, 70, 119
1, 92147, Note_off_c, 3, 69, 64
1, 92182, Note_on_c, 3, 69, 119
1, 92198, Note_off_c, 2, 70, 64
1, 92230, Note_on_c, 2, 70, 119
1, 92245, Note_off_c, 3, 69, 64
1, 92280, Note_on_c, 2, 72, 120
1, 92297, Note_off_c, 2, 70, 64
1, 92334, Note_on_c, 2, 70, 119
1, 92351, Note_off_c, 2, 72, 64
1, 92368, Note_off_c, 4, 58, 64
1, 92369, Note_off_c, 4, 62, 64
1, 92385, Note_on_c, 4, 58, 127
1, 92385, Note_on_c, 4, 60, 127
1, 92434, Note_on_c, 2, 75, 120
1, 92450, Note_off_c, 2, 70, 64
1, 92487, Note_on_c, 2, 74, 120
1, 92506, Note_off_c, 2, 75, 64
1, 92537, Note_on_c, 2, 75, 120
1, 92555, Note_off_c, 2, 74, 64
1, 92589, Note_on_c, 2, 74, 120
1, 92591, Note_on_c, 4, 63, 127
1, 92605, Note_off_c, 2, 75, 64
1, 92612, Note_off_c, 4, 60, 64
1, 92637, Note_on_c, 2, 72, 120
1, 92652, Note_off_c, 2, 74, 64
1, 92684, Note_on_c, 2, 70, 119
1, 92701, Note_off_c, 2, 72, 64
1, 92733, Note_on_c, 3, 69, 119
1, 92750, Note_off_c, 2, 70, 64
1, 92766, Note_off_c, 4, 58, 64
1, 92783, Note_on_c, 4, 62, 127
1, 92784, Note_on_c, 4, 58, 127
1, 92803, Note_off_c, 4, 63, 64
1, 92827, Note_on_c, 2, 70, 119
1, 92843, Note_off_c, 3, 69, 64
1, 92876, Note_on_c, 3, 69, 119
1, 92896, Note_off_c, 2, 70, 64
1, 92928, Note_on_c, 2, 70, 119
1, 92945, Note_off_c, 3, 69, 64
1, 92977, Note_on_c, 3, 69, 119
1, 92996, Note_off_c, 2, 70, 64
1, 93028, Note_on_c, 2, 70, 119
1, 93045, Note_off_c, 3, 69, 64
1, 93076, Note_on_c, 2, 72, 120
1, 93093, Note_off_c, 2, 70, 64
1, 93130, Note_on_c, 2, 70, 119
1, 93148, Note_off_c, 2, 72, 64
1, 93165, Note_off_c, 4, 58, 64
1, 93166, Note_off_c, 4, 62, 64
1, 93181, Note_on_c, 4, 60, 127
1, 93182, Note_on_c, 4, 58, 127
1, 93230, Note_on_c, 2, 75, 120
1, 93248, Note_off_c, 2, 70, 64
1, 93287, Note_on_c, 2, 74, 120
1, 93304, Note_off_c, 2, 75, 64
1, 93336, Note_on_c, 2, 75, 120
1, 93352, Note_off_c, 2, 74, 64
1, 93386, Note_on_c, 2, 74, 120
1, 93387, Note_on_c, 4, 63, 127
1, 93403, Note_off_c, 2, 75, 64
1, 93409, Note_off_c, 4, 60, 64
1, 93435, Note_on_c, 2, 72, 120
1, 93453, Note_off_c, 2, 74, 64
1, 93487, Note_on_c, 2, 70, 119
1, 93504, Note_off_c, 2, 72, 64
1, 93540, Note_on_c, 3, 69, 119
1, 93559, Note_off_c, 2, 70, 64
1, 93578, Note_off_c, 4, 63, 64
1, 93578, Note_off_c, 4, 58, 64
1, 93595, Note_on_c, 2, 70, 119
1, 93597, Note_on_c, 4, 58, 127
1, 93597, Note_on_c, 4, 63, 127
1, 93613, Note_off_c, 3, 69, 64
1, 93648, Note_on_c, 3, 69, 119
1, 93666, Note_off_c, 2, 70, 64
1, 93702, Note_on_c, 2, 70, 119
1, 93720, Note_off_c, 3, 69, 64
1, 93756, Note_on_c, 3, 69, 119
1, 93774, Note_off_c, 2, 70, 64
1, 93813, Note_on_c, 2, 72, 120
1, 93831, Note_off_c, 3, 69, 64
1, 93973, Note_on_c, 2, 70, 119
1, 93995, Note_off_c, 2, 72, 64
1, 94019, Note_off_c, 4, 58, 64
1, 94020, Note_off_c, 4, 63, 64
1, 94032, Note_off_c, 2, 70, 64
1, 94036, Note_on_c, 2, 70, 119
1, 94037, Note_on_c, 4, 62, 127
1, 94038, Note_on_c, 4, 58, 127
1, 94462, Note_off_c, 2, 70, 64
1, 94462, Note_on_c, 2, 71, 119
1, 94573, Note_on_c, 2, 72, 120
1, 94588, Note_off_c, 2, 71, 64
1, 94682, Note_on_c, 2, 74, 120
1, 94700, Note_off_c, 2, 72, 64
1, 94804, Note_on_c, 2, 72, 120
1, 94824, Note_off_c, 2, 74, 64
1, 94909, Note_on_c, 2, 70, 119
1, 94925, Note_off_c, 2, 72, 64
1, 95007, Note_on_c, 2, 68, 119
1, 95026, Note_off_c, 2, 70, 64
1, 95122, Note_on_c, 4, 67, 121
1, 95140, Note_off_c, 2, 68, 64
1, 95228, Note_on_c, 4, 65, 127
1, 95245, Note_off_c, 4, 67, 64
1, 95336, Note_on_c, 4, 67, 121
1, 95336, Note_on_c, 4, 51, 127
1, 95338, Note_off_c, 4, 62, 64
1, 95338, Note_off_c, 4, 58, 64
1, 95354, Note_off_c, 4, 65, 64
1, 95445, Note_on_c, 4, 55, 127
1, 95555, Note_on_c, 4, 58, 127
1, 95578, Note_off_c, 4, 51, 64
1, 95663, Note_on_c, 4, 63, 127
1, 95687, Note_off_c, 4, 55, 64
1, 95772, Note_off_c, 4, 67, 64
1, 95773, Note_on_c, 2, 70, 119
1, 95773, Note_on_c, 4, 51, 127
1, 95796, Note_off_c, 4, 58, 64
1, 95881, Note_on_c, 4, 55, 127
1, 95904, Note_off_c, 4, 63, 64
1, 95987, Note_on_c, 4, 58, 127
1, 96010, Note_off_c, 4, 51, 64
1, 96092, Note_on_c, 4, 63, 127
1, 96115, Note_off_c, 4, 55, 64
1, 96199, Note_on_c, 4, 49, 127
1, 96222, Note_off_c, 4, 58, 64
1, 96304, Note_on_c, 4, 55, 127
1, 96327, Note_off_c, 4, 63, 64
1, 96412, Note_on_c, 4, 58, 127
1, 96412, Note_on_c, 2, 77, 120
1, 96432, Note_off_c, 2, 70, 64
1, 96438, Note_off_c, 4, 49, 64
1, 96459, Note_on_c, 2, 75, 120
1, 96479, Note_off_c, 2, 77, 64
1, 96506, Note_on_c, 2, 74, 120
1, 96525, Note_off_c, 2, 75, 64
1, 96530, Note_on_c, 4, 61, 127
1, 96556, Note_on_c, 2, 75, 120
1, 96558, Note_off_c, 4, 55, 64
1, 96575, Note_off_c, 2, 74, 64
1, 96606, Note_on_c, 2, 77, 120
1, 96625, Note_off_c, 2, 75, 64
1, 96655, Note_on_c, 4, 49, 127
1, 96655, Note_on_c, 2, 75, 120
1, 96674, Note_off_c, 2, 77, 64
1, 96680, Note_off_c, 4, 58, 64
1, 96760, Note_on_c, 4, 55, 127
1, 96782, Note_off_c, 4, 61, 64
1, 96863, Note_off_c, 2, 75, 64
1, 96864, Note_on_c, 4, 67, 125
1, 96865, Note_on_c, 4, 58, 127
1, 96884, Note_off_c, 4, 49, 64
1, 96964, Note_on_c, 4, 61, 127
1, 96987, Note_off_c, 4, 55, 64
1, 97059, Note_off_c, 4, 67, 64
1, 97070, Note_on_c, 2, 70, 123
1, 97072, Note_on_c, 4, 48, 127
1, 97098, Note_off_c, 4, 58, 64
1, 97179, Note_on_c, 4, 51, 127
1, 97179, Note_on_c, 2, 68, 123
1, 97199, Note_off_c, 2, 70, 64
1, 97205, Note_off_c, 4, 61, 64
1, 97272, Note_off_c, 2, 68, 64
1, 97286, Note_on_c, 2, 68, 123
1, 97287, Note_on_c, 4, 56, 127
1, 97311, Note_off_c, 4, 48, 64
1, 97395, Note_on_c, 4, 60, 127
1, 97419, Note_off_c, 4, 51, 64
1, 97503, Note_on_c, 4, 48, 127
1, 97527, Note_off_c, 4, 56, 64
1, 97608, Note_on_c, 4, 51, 127
1, 97630, Note_off_c, 4, 60, 64
1, 97713, Note_on_c, 4, 56, 127
1, 97735, Note_off_c, 4, 48, 64
1, 97817, Note_on_c, 4, 60, 127
1, 97839, Note_off_c, 4, 51, 64
1, 97922, Note_on_c, 4, 55, 127
1, 97946, Note_off_c, 4, 56, 64
1, 98030, Note_on_c, 4, 58, 127
1, 98052, Note_off_c, 4, 60, 64
1, 98135, Note_off_c, 2, 68, 64
1, 98135, Note_on_c, 2, 77, 110
1, 98136, Note_on_c, 4, 63, 127
1, 98156, Note_off_c, 4, 55, 64
1, 98175, Note_on_c, 2, 75, 110
1, 98194, Note_off_c, 2, 77, 64
1, 98220, Note_on_c, 2, 74, 110
1, 98239, Note_off_c, 2, 75, 64
1, 98243, Note_on_c, 4, 67, 121
1, 98266, Note_on_c, 2, 75, 110
1, 98268, Note_off_c, 4, 58, 64
1, 98285, Note_off_c, 2, 74, 64
1, 98314, Note_on_c, 2, 77, 110
1, 98333, Note_off_c, 2, 75, 64
1, 98359, Note_on_c, 2, 75, 110
1, 98360, Note_on_c, 4, 55, 127
1, 98377, Note_off_c, 2, 77, 64
1, 98382, Note_off_c, 4, 63, 64
1, 98458, Note_on_c, 4, 58, 127
1, 98481, Note_off_c, 4, 67, 64
1, 98564, Note_on_c, 4, 63, 127
1, 98564, Note_on_c, 2, 73, 123
1, 98586, Note_off_c, 4, 55, 64
1, 98587, Note_off_c, 2, 75, 64
1, 98670, Note_on_c, 4, 67, 121
1, 98693, Note_off_c, 4, 58, 64
1, 98776, Note_on_c, 4, 56, 127
1, 98776, Note_on_c, 2, 71, 123
1, 98800, Note_off_c, 2, 73, 64
1, 98800, Note_off_c, 4, 63, 64
1, 98882, Note_on_c, 4, 60, 127
1, 98904, Note_off_c, 4, 67, 64
1, 98992, Note_on_c, 2, 72, 123
1, 98992, Note_on_c, 4, 63, 127
1, 99015, Note_off_c, 2, 71, 64
1, 99015, Note_off_c, 4, 56, 64
1, 99097, Note_on_c, 2, 68, 119
1, 99120, Note_off_c, 4, 60, 64
1, 99199, Note_on_c, 4, 56, 127
1, 99220, Note_off_c, 4, 63, 64
1, 99301, Note_on_c, 4, 60, 127
1, 99323, Note_off_c, 2, 68, 64
1, 99386, Note_off_c, 2, 72, 64
1, 99403, Note_on_c, 4, 63, 127
1, 99403, Note_on_c, 2, 72, 123
1, 99425, Note_off_c, 4, 56, 64
1, 99512, Note_on_c, 2, 68, 119
1, 99536, Note_off_c, 4, 60, 64
1, 99622, Note_on_c, 4, 56, 127
1, 99622, Note_on_c, 2, 75, 123
1, 99645, Note_off_c, 2, 72, 64
1, 99645, Note_off_c, 4, 63, 64
1, 99727, Note_on_c, 4, 58, 127
1, 99750, Note_off_c, 2, 68, 64
1, 99833, Note_on_c, 2, 74, 123
1, 99834, Note_on_c, 4, 62, 127
1, 99856, Note_off_c, 2, 75, 64
1, 99856, Note_off_c, 4, 56, 64
1, 99940, Note_on_c, 4, 65, 127
1, 99962, Note_off_c, 4, 58, 64
1, 100044, Note_on_c, 4, 56, 127
1, 100067, Note_off_c, 4, 62, 64
1, 100148, Note_on_c, 4, 58, 127
1, 100170, Note_off_c, 4, 65, 64
1, 100251, Note_off_c, 2, 74, 64
1, 100251, Note_on_c, 2, 70, 123
1, 100252, Note_on_c, 4, 62, 127
1, 100272, Note_off_c, 4, 56, 64
1, 100356, Note_on_c, 4, 65, 127
1, 100379, Note_off_c, 4, 58, 64
1, 100468, Note_on_c, 4, 55, 127
1, 100468, Note_on_c, 2, 77, 115
1, 100491, Note_off_c, 4, 62, 64
1, 100492, Note_off_c, 2, 70, 64
1, 100580, Note_on_c, 4, 58, 127
1, 100604, Note_off_c, 4, 65, 64
1, 100691, Note_on_c, 2, 75, 115
1, 100691, Note_on_c, 4, 63, 127
1, 100715, Note_off_c, 2, 77, 64
1, 100715, Note_off_c, 4, 55, 64
1, 100799, Note_on_c, 4, 67, 121
1, 100821, Note_off_c, 4, 58, 64
1, 100903, Note_on_c, 4, 55, 127
1, 100926, Note_off_c, 4, 63, 64
1, 101007, Note_on_c, 4, 58, 127
1, 101030, Note_off_c, 4, 67, 64
1, 101094, Note_off_c, 2, 75, 64
1, 101111, Note_on_c, 2, 75, 115
1, 101112, Note_on_c, 4, 63, 127
1, 101133, Note_off_c, 4, 55, 64
1, 101214, Note_on_c, 4, 67, 121
1, 101236, Note_off_c, 4, 58, 64
1, 101316, Note_on_c, 4, 57, 127
1, 101316, Note_on_c, 2, 77, 115
1, 101338, Note_off_c, 2, 75, 64
1, 101338, Note_off_c, 4, 63, 64
1, 101417, Note_on_c, 4, 60, 127
1, 101439, Note_off_c, 4, 67, 64
1, 101521, Note_on_c, 1, 78, 112
1, 101521, Note_on_c, 4, 63, 127
1, 101544, Note_off_c, 2, 77, 64
1, 101544, Note_off_c, 4, 57, 64
1, 101628, Note_on_c, 4, 66, 125
1, 101652, Note_off_c, 4, 60, 64
1, 101736, Note_on_c, 4, 57, 127
1, 101759, Note_off_c, 4, 63, 64
1, 101844, Note_on_c, 4, 60, 127
1, 101867, Note_off_c, 4, 66, 64
1, 101948, Note_off_c, 1, 78, 64
1, 101949, Note_on_c, 4, 63, 127
1, 101949, Note_on_c, 2, 75, 115
1, 101971, Note_off_c, 4, 57, 64
1, 102045, Note_off_c, 4, 60, 64
1, 102047, Note_on_c, 4, 66, 125
1, 102146, Note_off_c, 2, 75, 64
1, 102150, Note_off_c, 4, 66, 64
1, 102150, Note_off_c, 4, 63, 64
1, 102151, Note_on_c, 2, 74, 120
1, 102153, Note_on_c, 4, 58, 127
1, 102153, Note_on_c, 4, 65, 127
1, 102265, Note_on_c, 2, 75, 120
1, 102266, Note_on_c, 4, 66, 125
1, 102280, Note_off_c, 2, 74, 64
1, 102281, Note_off_c, 4, 65, 64
1, 102372, Note_on_c, 2, 74, 120
1, 102373, Note_on_c, 4, 65, 127
1, 102391, Note_off_c, 2, 75, 64
1, 102393, Note_off_c, 4, 66, 64
1, 102486, Note_on_c, 1, 78, 117
1, 102487, Note_on_c, 4, 63, 127
1, 102503, Note_off_c, 2, 74, 64
1, 102504, Note_off_c, 4, 65, 64
1, 102583, Note_on_c, 2, 77, 120
1, 102585, Note_on_c, 4, 62, 127
1, 102601, Note_off_c, 1, 78, 64
1, 102603, Note_off_c, 4, 63, 64
1, 102693, Note_on_c, 2, 75, 116
1, 102693, Note_on_c, 1, 81, 113
1, 102694, Note_on_c, 4, 66, 121
1, 102707, Note_off_c, 2, 77, 64
1, 102708, Note_off_c, 4, 62, 64
1, 102791, Note_on_c, 1, 82, 113
1, 102791, Note_on_c, 2, 74, 116
1, 102792, Note_on_c, 4, 65, 123
1, 102810, Note_off_c, 1, 81, 64
1, 102810, Note_off_c, 2, 75, 64
1, 102811, Note_off_c, 4, 66, 64
1, 102912, Note_on_c, 1, 78, 113
1, 102914, Note_on_c, 2, 69, 115
1, 102915, Note_on_c, 4, 63, 127
1, 102935, Note_off_c, 2, 74, 64
1, 102935, Note_off_c, 1, 82, 64
1, 102937, Note_off_c, 4, 65, 64
1, 103015, Note_off_c, 1, 78, 64
1, 103017, Note_off_c, 2, 69, 64
1, 103017, Note_off_c, 4, 63, 64
1, 103025, Note_on_c, 1, 78, 117
1, 103027, Note_on_c, 4, 63, 127
1, 103027, Note_on_c, 2, 69, 119
1, 103462, Note_off_c, 1, 78, 64
1, 103465, Note_off_c, 4, 63, 64
1, 103466, Note_off_c, 2, 69, 64
1, 103468, Note_on_c, 2, 77, 113
1, 103470, Note_on_c, 2, 70, 112
1, 103471, Note_on_c, 4, 62, 126
1, 103912, Note_on_c, 4, 51, 121
1, 103949, Note_off_c, 2, 77, 64
1, 103951, Note_off_c, 4, 58, 64
1, 103952, Note_off_c, 2, 70, 64
1, 103952, Note_off_c, 4, 62, 64
1, 104023, Note_on_c, 4, 58, 121
1, 104024, Note_on_c, 4, 55, 121
1, 104115, Note_off_c, 4, 55, 64
1, 104116, Note_off_c, 4, 58, 64
1, 104134, Note_on_c, 4, 55, 121
1, 104134, Note_on_c, 4, 58, 121
1, 104226, Note_off_c, 4, 55, 64
1, 104227, Note_off_c, 4, 58, 64
1, 104244, Note_on_c, 4, 58, 121
1, 104244, Note_on_c, 4, 55, 121
1, 104335, Note_off_c, 4, 51, 64
1, 104353, Note_off_c, 4, 55, 64
1, 104354, Note_off_c, 4, 58, 64
1, 104354, Note_on_c, 4, 51, 121
1, 104455, Note_on_c, 4, 63, 127
1, 104463, Note_on_c, 4, 58, 121
1, 104464, Note_on_c, 4, 55, 121
1, 104555, Note_off_c, 4, 58, 64
1, 104557, Note_off_c, 4, 55, 64
1, 104567, Note_on_c, 4, 67, 125
1, 104574, Note_on_c, 4, 58, 127
1, 104576, Note_on_c, 4, 55, 127
1, 104586, Note_off_c, 4, 63, 64
1, 104664, Note_off_c, 4, 58, 64
1, 104666, Note_off_c, 4, 55, 64
1, 104675, Note_on_c, 2, 70, 123
1, 104680, Note_on_c, 4, 58, 127
1, 104680, Note_on_c, 4, 55, 127
1, 104691, Note_off_c, 4, 67, 64
1, 104765, Note_off_c, 4, 51, 64
1, 104768, Note_off_c, 2, 70, 64
1, 104783, Note_off_c, 4, 55, 64
1, 104784, Note_off_c, 4, 58, 64
1, 104784, Note_on_c, 4, 53, 127
1, 104785, Note_on_c, 2, 70, 123
1, 104892, Note_on_c, 2, 68, 123
1, 104896, Note_on_c, 4, 58, 127
1, 104898, Note_on_c, 4, 56, 127
1, 104914, Note_off_c, 2, 70, 64
1, 104979, Note_off_c, 4, 58, 64
1, 104981, Note_off_c, 4, 56, 64
1, 104996, Note_on_c, 4, 65, 127
1, 104998, Note_on_c, 4, 58, 127
1, 105000, Note_on_c, 4, 56, 127
1, 105012, Note_off_c, 2, 68, 64
1, 105084, Note_off_c, 4, 58, 64
1, 105086, Note_off_c, 4, 56, 64
1, 105101, Note_on_c, 4, 62, 127
1, 105102, Note_on_c, 4, 58, 127
1, 105104, Note_on_c, 4, 56, 127
1, 105121, Note_off_c, 4, 65, 64
1, 105201, Note_off_c, 4, 53, 64
1, 105221, Note_on_c, 4, 53, 127
1, 105241, Note_off_c, 4, 62, 64
1, 105320, Note_off_c, 4, 58, 64
1, 105322, Note_off_c, 4, 56, 64
1, 105337, Note_on_c, 4, 58, 127
1, 105337, Note_on_c, 4, 62, 127
1, 105338, Note_on_c, 4, 56, 127
1, 105433, Note_off_c, 4, 58, 64
1, 105433, Note_off_c, 4, 56, 64
1, 105450, Note_on_c, 4, 65, 127
1, 105451, Note_on_c, 4, 58, 127
1, 105451, Note_on_c, 4, 56, 127
1, 105467, Note_off_c, 4, 62, 64
1, 105536, Note_off_c, 4, 56, 64
1, 105536, Note_off_c, 4, 58, 64
1, 105554, Note_on_c, 4, 58, 127
1, 105554, Note_on_c, 2, 68, 123
1, 105555, Note_on_c, 4, 56, 127
1, 105570, Note_off_c, 4, 65, 64
1, 105637, Note_off_c, 4, 53, 64
1, 105654, Note_off_c, 4, 58, 64
1, 105654, Note_off_c, 4, 56, 64
1, 105655, Note_on_c, 4, 51, 127
1, 105655, Note_on_c, 2, 72, 123
1, 105672, Note_off_c, 2, 68, 64
1, 105765, Note_on_c, 2, 70, 123
1, 105766, Note_on_c, 4, 55, 127
1, 105766, Note_on_c, 4, 58, 127
1, 105782, Note_off_c, 2, 72, 64
1, 105851, Note_off_c, 4, 58, 64
1, 105851, Note_off_c, 4, 55, 64
1, 105868, Note_on_c, 4, 67, 125
1, 105868, Note_on_c, 4, 58, 127
1, 105869, Note_on_c, 4, 55, 127
1, 105885, Note_off_c, 2, 70, 64
1, 105955, Note_off_c, 4, 55, 64
1, 105956, Note_off_c, 4, 58, 64
1, 105972, Note_on_c, 4, 63, 127
1, 105973, Note_on_c, 4, 55, 127
1, 105973, Note_on_c, 4, 58, 127
1, 105991, Note_off_c, 4, 67, 64
1, 106082, Note_off_c, 4, 63, 64
1, 106082, Note_on_c, 4, 63, 127
1, 106190, Note_on_c, 3, 75, 120
1, 106193, Note_off_c, 4, 58, 64
1, 106193, Note_off_c, 4, 55, 64
1, 106193, Note_on_c, 3, 70, 114
1, 106194, Note_on_c, 4, 67, 121
1, 106229, Note_off_c, 4, 51, 64
1, 106285, Note_off_c, 3, 70, 64
1, 106287, Note_off_c, 4, 67, 64
1, 106304, Note_on_c, 3, 70, 114
1, 106304, Note_on_c, 1, 79, 117
1, 106305, Note_on_c, 4, 67, 121
1, 106320, Note_off_c, 3, 75, 64
1, 106391, Note_off_c, 4, 67, 64
1, 106392, Note_off_c, 3, 70, 64
1, 106405, Note_on_c, 1, 82, 117
1, 106406, Note_on_c, 3, 70, 114
1, 106407, Note_on_c, 4, 67, 121
1, 106424, Note_off_c, 1, 79, 64
1, 106494, Note_off_c, 4, 63, 64
1, 106500, Note_off_c, 1, 82, 64
1, 106511, Note_off_c, 4, 67, 64
1, 106512, Note_off_c, 3, 70, 64
1, 106512, Note_on_c, 4, 65, 127
1, 106514, Note_on_c, 1, 82, 117
1, 106621, Note_on_c, 1, 80, 117
1, 106623, Note_on_c, 3, 70, 114
1, 106624, Note_on_c, 3, 68, 119
1, 106645, Note_off_c, 1, 82, 64
1, 106714, Note_off_c, 3, 68, 64
1, 106714, Note_off_c, 3, 70, 64
1, 106729, Note_on_c, 2, 77, 120
1, 106731, Note_on_c, 3, 70, 114
1, 106732, Note_on_c, 3, 68, 119
1, 106749, Note_off_c, 1, 80, 64
1, 106824, Note_off_c, 3, 70, 64
1, 106824, Note_off_c, 3, 68, 64
1, 106840, Note_on_c, 3, 74, 120
1, 106842, Note_on_c, 3, 70, 114
1, 106843, Note_on_c, 3, 68, 119
1, 106859, Note_off_c, 2, 77, 64
1, 106931, Note_off_c, 4, 65, 64
1, 106949, Note_on_c, 4, 65, 127
1, 106965, Note_off_c, 3, 74, 64
1, 107040, Note_off_c, 3, 68, 64
1, 107040, Note_off_c, 3, 70, 64
1, 107057, Note_on_c, 3, 74, 120
1, 107057, Note_on_c, 3, 70, 114
1, 107057, Note_on_c, 3, 68, 119
1, 107147, Note_off_c, 3, 68, 64
1, 107148, Note_off_c, 3, 70, 64
1, 107165, Note_on_c, 2, 77, 114
1, 107166, Note_on_c, 3, 70, 114
1, 107166, Note_on_c, 3, 68, 119
1, 107182, Note_off_c, 3, 74, 64
1, 107252, Note_off_c, 3, 68, 64
1, 107252, Note_off_c, 3, 70, 64
1, 107269, Note_on_c, 3, 70, 114
1, 107269, Note_on_c, 1, 80, 111
1, 107270, Note_on_c, 3, 68, 119
1, 107287, Note_off_c, 2, 77, 64
1, 107357, Note_off_c, 4, 65, 64
1, 107376, Note_off_c, 3, 68, 64
1, 107377, Note_off_c, 3, 70, 64
1, 107377, Note_on_c, 1, 84, 113
1, 107378, Note_on_c, 4, 63, 127
1, 107395, Note_off_c, 1, 80, 64
1, 107484, Note_on_c, 3, 70, 114
1, 107484, Note_on_c, 1, 82, 105
1, 107485, Note_on_c, 4, 67, 121
1, 107502, Note_off_c, 1, 84, 64
1, 107568, Note_off_c, 4, 67, 64
1, 107569, Note_off_c, 3, 70, 64
1, 107587, Note_on_c, 1, 79, 105
1, 107587, Note_on_c, 3, 70, 114
1, 107588, Note_on_c, 4, 67, 121
1, 107604, Note_off_c, 1, 82, 64
1, 107676, Note_off_c, 4, 67, 64
1, 107676, Note_off_c, 3, 70, 64
1, 107694, Note_on_c, 3, 75, 114
1, 107695, Note_on_c, 4, 67, 121
1, 107695, Note_on_c, 3, 70, 114
1, 107712, Note_off_c, 1, 79, 64
1, 107789, Note_off_c, 4, 63, 64
1, 107809, Note_off_c, 4, 67, 64
1, 107810, Note_off_c, 3, 70, 64
1, 107810, Note_on_c, 4, 51, 127
1, 107927, Note_on_c, 4, 55, 127
1, 107927, Note_on_c, 2, 70, 119
1, 107946, Note_off_c, 4, 51, 64
1, 107952, Note_off_c, 3, 75, 64
1, 108041, Note_on_c, 2, 69, 119
1, 108041, Note_on_c, 4, 53, 127
1, 108059, Note_off_c, 4, 55, 64
1, 108060, Note_off_c, 2, 70, 64
1, 108096, Note_on_c, 2, 70, 119
1, 108114, Note_off_c, 2, 69, 64
1, 108144, Note_on_c, 2, 74, 120
1, 108146, Note_on_c, 4, 56, 127
1, 108164, Note_off_c, 2, 70, 64
1, 108164, Note_off_c, 4, 53, 64
1, 108202, Note_on_c, 2, 70, 119
1, 108218, Note_off_c, 2, 74, 64
1, 108254, Note_on_c, 4, 55, 127
1, 108256, Note_on_c, 2, 75, 120
1, 108273, Note_off_c, 2, 70, 64
1, 108274, Note_off_c, 4, 56, 64
1, 108354, Note_off_c, 2, 75, 64
1, 108362, Note_on_c, 2, 70, 119
1, 108363, Note_on_c, 4, 58, 127
1, 108380, Note_off_c, 4, 55, 64
1, 108450, Note_off_c, 2, 70, 64
1, 108474, Note_on_c, 2, 70, 119
1, 108474, Note_on_c, 4, 63, 127
1, 108491, Note_off_c, 4, 58, 64
1, 108585, Note_on_c, 4, 67, 121
1, 108604, Note_off_c, 4, 63, 64
1, 108697, Note_on_c, 4, 43, 127
1, 108716, Note_off_c, 4, 67, 64
1, 108808, Note_on_c, 4, 67, 121
1, 108810, Note_on_c, 4, 46, 127
1, 108847, Note_off_c, 2, 70, 64
1, 108915, Note_on_c, 2, 70, 119
1, 108917, Note_on_c, 4, 51, 127
1, 108934, Note_off_c, 4, 67, 64
1, 108940, Note_off_c, 4, 43, 64
1, 108971, Note_on_c, 4, 67, 121
1, 108986, Note_off_c, 2, 70, 64
1, 109017, Note_on_c, 2, 70, 119
1, 109019, Note_on_c, 4, 55, 127
1, 109037, Note_off_c, 4, 67, 64
1, 109042, Note_off_c, 4, 46, 64
1, 109073, Note_on_c, 4, 67, 121
1, 109088, Note_off_c, 2, 70, 64
1, 109119, Note_on_c, 4, 44, 127
1, 109119, Note_on_c, 2, 72, 120
1, 109136, Note_off_c, 4, 67, 64
1, 109142, Note_off_c, 4, 51, 64
1, 109213, Note_off_c, 2, 72, 64
1, 109223, Note_on_c, 2, 68, 119
1, 109224, Note_on_c, 4, 48, 127
1, 109245, Note_off_c, 4, 55, 64
1, 109292, Note_off_c, 2, 68, 64
1, 109322, Note_on_c, 4, 53, 127
1, 109322, Note_on_c, 2, 68, 119
1, 109345, Note_off_c, 4, 44, 64
1, 109433, Note_on_c, 4, 56, 127
1, 109457, Note_off_c, 4, 48, 64
1, 109544, Note_on_c, 4, 44, 127
1, 109567, Note_off_c, 4, 53, 64
1, 109652, Note_off_c, 2, 68, 64
1, 109653, Note_on_c, 4, 48, 127
1, 109653, Note_on_c, 4, 65, 127
1, 109675, Note_off_c, 4, 56, 64
1, 109758, Note_on_c, 4, 53, 127
1, 109758, Note_on_c, 2, 68, 119
1, 109776, Note_off_c, 4, 65, 64
1, 109781, Note_off_c, 4, 44, 64
1, 109813, Note_on_c, 4, 65, 127
1, 109832, Note_off_c, 2, 68, 64
1, 109864, Note_on_c, 2, 68, 119
1, 109865, Note_on_c, 4, 56, 127
1, 109882, Note_off_c, 4, 65, 64
1, 109887, Note_off_c, 4, 48, 64
1, 109918, Note_on_c, 4, 65, 127
1, 109936, Note_off_c, 2, 68, 64
1, 109968, Note_on_c, 4, 46, 127
1, 109968, Note_on_c, 2, 70, 119
1, 109984, Note_off_c, 4, 65, 64
1, 109990, Note_off_c, 4, 53, 64
1, 110074, Note_on_c, 4, 51, 127
1, 110074, Note_on_c, 4, 67, 121
1, 110092, Note_off_c, 2, 70, 64
1, 110098, Note_off_c, 4, 56, 64
1, 110181, Note_on_c, 4, 55, 127
1, 110205, Note_off_c, 4, 46, 64
1, 110236, Note_on_c, 4, 63, 127
1, 110271, Note_off_c, 4, 67, 64
1, 110287, Note_on_c, 4, 58, 127
1, 110287, Note_on_c, 4, 67, 121
1, 110304, Note_off_c, 4, 63, 64
1, 110310, Note_off_c, 4, 51, 64
1, 110341, Note_on_c, 4, 63, 127
1, 110360, Note_off_c, 4, 67, 64
1, 110391, Note_on_c, 2, 68, 119
1, 110392, Note_on_c, 4, 46, 127
1, 110410, Note_off_c, 4, 63, 64
1, 110414, Note_off_c, 4, 55, 64
1, 110499, Note_off_c, 2, 68, 64
1, 110499, Note_on_c, 4, 65, 127
1, 110500, Note_on_c, 4, 50, 127
1, 110522, Note_off_c, 4, 58, 64
1, 110607, Note_on_c, 4, 53, 127
1, 110631, Note_off_c, 4, 46, 64
1, 110665, Note_on_c, 4, 62, 127
1, 110700, Note_off_c, 4, 65, 64
1, 110718, Note_on_c, 4, 65, 127
1, 110718, Note_on_c, 4, 56, 127
1, 110737, Note_off_c, 4, 62, 64
1, 110743, Note_off_c, 4, 50, 64
1, 110756, Note_off_c, 4, 53, 64
1, 110776, Note_on_c, 4, 62, 127
1, 110795, Note_off_c, 4, 65, 64
1, 110831, Note_off_c, 4, 56, 64
1, 110832, Note_on_c, 4, 48, 127
1, 110832, Note_on_c, 4, 55, 127
1, 110832, Note_on_c, 4, 65, 127
1, 110849, Note_off_c, 4, 62, 64
1, 110887, Note_on_c, 4, 63, 127
1, 110905, Note_off_c, 4, 65, 64
1, 110941, Note_on_c, 4, 62, 127
1, 110961, Note_off_c, 4, 63, 64
1, 110997, Note_on_c, 4, 63, 127
1, 111015, Note_off_c, 4, 62, 64
1, 111053, Note_on_c, 4, 65, 127
1, 111070, Note_off_c, 4, 63, 64
1, 111160, Note_on_c, 4, 67, 121
1, 111178, Note_off_c, 4, 65, 64
1, 111268, Note_on_c, 2, 68, 119
1, 111285, Note_off_c, 4, 67, 64
1, 111375, Note_on_c, 4, 67, 121
1, 111393, Note_off_c, 2, 68, 64
1, 111429, Note_on_c, 2, 70, 119
1, 111446, Note_off_c, 4, 67, 64
1, 111483, Note_on_c, 2, 68, 119
1, 111501, Note_off_c, 2, 70, 64
1, 111537, Note_on_c, 2, 72, 120
1, 111554, Note_off_c, 2, 68, 64
1, 111590, Note_on_c, 2, 70, 119
1, 111608, Note_off_c, 2, 72, 64
1, 111644, Note_on_c, 2, 74, 120
1, 111661, Note_off_c, 2, 70, 64
1, 111697, Note_on_c, 2, 75, 120
1, 111698, Note_on_c, 3, 70, 119
1, 111698, Note_on_c, 4, 67, 121
1, 111716, Note_off_c, 2, 74, 64
1, 111751, Note_on_c, 1, 82, 112
1, 111805, Note_on_c, 1, 81, 112
1, 111823, Note_off_c, 1, 82, 64
1, 111860, Note_on_c, 1, 82, 112
1, 111878, Note_off_c, 1, 81, 64
1, 111912, Note_on_c, 1, 84, 114
1, 111928, Note_off_c, 1, 82, 64
1, 111960, Note_on_c, 1, 82, 112
1, 111979, Note_off_c, 1, 84, 64
1, 112015, Note_on_c, 1, 81, 112
1, 112033, Note_off_c, 1, 82, 64
1, 112069, Note_on_c, 1, 82, 112
1, 112087, Note_off_c, 1, 81, 64
1, 112113, Note_off_c, 2, 75, 64
1, 112113, Note_off_c, 4, 67, 64
1, 112124, Note_on_c, 4, 67, 121
1, 112124, Note_on_c, 2, 75, 120
1, 112169, Note_off_c, 1, 82, 64
1, 112178, Note_on_c, 1, 82, 112
1, 112233, Note_on_c, 1, 81, 112
1, 112251, Note_off_c, 1, 82, 64
1, 112289, Note_on_c, 1, 82, 112
1, 112307, Note_off_c, 1, 81, 64
1, 112325, Note_off_c, 4, 67, 64
1, 112329, Note_off_c, 2, 75, 64
1, 112344, Note_on_c, 2, 75, 120
1, 112344, Note_on_c, 4, 67, 121
1, 112389, Note_off_c, 1, 82, 64
1, 112399, Note_on_c, 1, 81, 112
1, 112455, Note_on_c, 1, 82, 112
1, 112473, Note_off_c, 1, 81, 64
1, 112509, Note_on_c, 1, 83, 112
1, 112526, Note_off_c, 1, 82, 64
1, 112543, Note_off_c, 4, 67, 64
1, 112546, Note_off_c, 2, 75, 64
1, 112560, Note_off_c, 3, 70, 64
1, 112561, Note_on_c, 1, 84, 114
1, 112561, Note_on_c, 2, 75, 115
1, 112562, Note_on_c, 3, 68, 119
1, 112579, Note_off_c, 1, 83, 64
1, 112615, Note_on_c, 2, 77, 110
1, 112633, Note_off_c, 2, 75, 64
1, 112634, Note_off_c, 1, 84, 64
1, 112670, Note_on_c, 2, 76, 110
1, 112688, Note_off_c, 2, 77, 64
1, 112721, Note_on_c, 2, 77, 110
1, 112737, Note_off_c, 2, 76, 64
1, 112770, Note_on_c, 1, 79, 112
1, 112786, Note_off_c, 2, 77, 64
1, 112822, Note_on_c, 2, 77, 110
1, 112839, Note_off_c, 1, 79, 64
1, 112874, Note_on_c, 2, 76, 110
1, 112892, Note_off_c, 2, 77, 64
1, 112927, Note_on_c, 2, 77, 110
1, 112945, Note_off_c, 2, 76, 64
1, 112963, Note_off_c, 3, 68, 64
1, 112980, Note_on_c, 3, 68, 119
1, 112980, Note_on_c, 2, 75, 110
1, 112998, Note_off_c, 2, 77, 64
1, 113033, Note_on_c, 2, 77, 110
1, 113051, Note_off_c, 2, 75, 64
1, 113087, Note_on_c, 2, 76, 110
1, 113104, Note_off_c, 2, 77, 64
1, 113139, Note_on_c, 2, 77, 110
1, 113157, Note_off_c, 2, 76, 64
1, 113194, Note_on_c, 3, 69, 119
1, 113194, Note_on_c, 2, 75, 110
1, 113211, Note_off_c, 2, 77, 64
1, 113217, Note_off_c, 3, 68, 64
1, 113249, Note_on_c, 2, 76, 110
1, 113267, Note_off_c, 2, 75, 64
1, 113304, Note_on_c, 2, 77, 115
1, 113323, Note_off_c, 2, 76, 64
1, 113359, Note_on_c, 1, 78, 117
1, 113378, Note_off_c, 2, 77, 64
1, 113415, Note_on_c, 2, 75, 120
1, 113415, Note_on_c, 1, 79, 117
1, 113416, Note_on_c, 3, 70, 119
1, 113433, Note_off_c, 1, 78, 64
1, 113439, Note_off_c, 3, 69, 64
1, 113525, Note_on_c, 1, 80, 117
1, 113544, Note_off_c, 1, 79, 64
1, 113636, Note_on_c, 1, 81, 117
1, 113655, Note_off_c, 1, 80, 64
1, 113747, Note_on_c, 1, 82, 112
1, 113766, Note_off_c, 1, 81, 64
1, 113858, Note_off_c, 2, 75, 64
1, 113858, Note_on_c, 1, 79, 107
1, 113880, Note_off_c, 1, 82, 64
1, 113935, Note_on_c, 2, 77, 110
1, 113952, Note_off_c, 1, 79, 64
1, 113988, Note_on_c, 1, 79, 107
1, 114011, Note_off_c, 2, 77, 64
1, 114052, Note_on_c, 2, 77, 110
1, 114069, Note_off_c, 1, 79, 64
1, 114102, Note_off_c, 4, 48, 64
1, 114102, Note_off_c, 3, 70, 64
1, 114103, Note_off_c, 4, 55, 64
1, 114103, Note_on_c, 3, 68, 119
1, 114103, Note_on_c, 1, 79, 107
1, 114104, Note_on_c, 4, 58, 127
1, 114104, Note_on_c, 4, 62, 127
1, 114118, Note_off_c, 2, 77, 64
1, 114155, Note_on_c, 2, 77, 110
1, 114173, Note_off_c, 1, 79, 64
1, 114210, Note_on_c, 2, 75, 115
1, 114228, Note_off_c, 2, 77, 64
1, 114263, Note_on_c, 2, 77, 110
1, 114280, Note_off_c, 2, 75, 64
1, 114319, Note_off_c, 4, 62, 64
1, 114319, Note_off_c, 4, 58, 64
1, 114320, Note_off_c, 3, 68, 64
1, 114320, Note_on_c, 2, 75, 115
1, 114320, Note_on_c, 4, 67, 121
1, 114321, Note_on_c, 4, 63, 127
1, 114338, Note_off_c, 2, 77, 64
1, 114419, Note_off_c, 4, 67, 64
1, 114429, Note_on_c, 3, 70, 119
1, 114430, Note_on_c, 4, 67, 121
1, 114446, Note_off_c, 2, 75, 64
1, 114536, Note_on_c, 3, 68, 119
1, 114536, Note_on_c, 4, 65, 127
1, 114555, Note_off_c, 3, 70, 64
1, 114555, Note_off_c, 4, 67, 64
1, 114559, Note_off_c, 4, 63, 64
1, 114649, Note_on_c, 4, 63, 127
1, 114649, Note_on_c, 4, 67, 121
1, 114667, Note_off_c, 4, 65, 64
1, 114668, Note_off_c, 3, 68, 64
1, 114762, Note_on_c, 2, 74, 120
1, 114802, Note_on_c, 2, 77, 120
1, 114852, Note_on_c, 1, 80, 117
1, 114870, Note_off_c, 2, 74, 64
1, 114898, Note_off_c, 2, 77, 64
1, 114909, Note_on_c, 4, 65, 127
1, 114910, Note_on_c, 4, 62, 127
1, 114932, Note_off_c, 4, 63, 64
1, 114933, Note_off_c, 4, 67, 64
1, 115021, Note_on_c, 4, 63, 127
1, 115022, Note_on_c, 4, 60, 127
1, 115041, Note_off_c, 4, 65, 64
1, 115041, Note_off_c, 4, 62, 64
1, 115135, Note_on_c, 4, 58, 127
1, 115135, Note_on_c, 4, 62, 127
1, 115153, Note_off_c, 4, 60, 64
1, 115153, Note_off_c, 4, 63, 64
1, 115242, Note_on_c, 4, 63, 127
1, 115243, Note_on_c, 4, 51, 127
1, 115260, Note_off_c, 4, 62, 64
1, 115260, Note_off_c, 4, 58, 64
1, 115348, Note_on_c, 1, 79, 117
1, 115366, Note_off_c, 1, 80, 64
1, 115404, Note_on_c, 1, 82, 117
1, 115423, Note_off_c, 1, 79, 64
1, 115457, Note_on_c, 1, 80, 117
1, 115472, Note_off_c, 1, 82, 64
1, 115503, Note_on_c, 2, 77, 120
1, 115520, Note_off_c, 1, 80, 64
1, 115553, Note_on_c, 2, 75, 120
1, 115569, Note_off_c, 2, 77, 64
1, 115603, Note_on_c, 1, 79, 117
1, 115658, Note_on_c, 2, 77, 120
1, 115674, Note_off_c, 1, 79, 64
1, 115675, Note_off_c, 2, 75, 64
1, 115713, Note_on_c, 2, 74, 120
1, 115764, Note_on_c, 2, 72, 120
1, 115780, Note_off_c, 2, 77, 64
1, 115785, Note_off_c, 2, 74, 64
1, 115815, Note_on_c, 2, 75, 120
1, 115837, Note_off_c, 2, 72, 64
1, 115869, Note_on_c, 2, 74, 120
1, 115887, Note_off_c, 2, 75, 64
1, 115926, Note_on_c, 2, 70, 119
1, 115964, Note_off_c, 2, 74, 64
1, 115982, Note_on_c, 2, 68, 119
1, 115998, Note_off_c, 2, 70, 64
1, 116034, Note_on_c, 2, 72, 120
1, 116090, Note_off_c, 2, 72, 64
1, 116093, Note_off_c, 2, 68, 64
1, 116094, Note_off_c, 4, 63, 64
1, 116094, Note_on_c, 2, 70, 119
1, 116095, Note_on_c, 4, 63, 127
1, 116097, Note_on_c, 4, 67, 121
1, 116414, Note_on_c, 2, 72, 120
1, 116509, Note_off_c, 2, 70, 64
1, 116510, Note_off_c, 4, 63, 64
1, 116512, Note_off_c, 4, 67, 64
1, 116528, Note_on_c, 2, 70, 119
1, 116529, Note_on_c, 4, 63, 127
1, 116529, Note_on_c, 4, 67, 121
1, 116532, Note_off_c, 2, 72, 64
1, 116734, Note_off_c, 2, 70, 64
1, 116747, Note_on_c, 2, 70, 119
1, 116965, Note_off_c, 4, 67, 64
1, 116965, Note_off_c, 4, 63, 64
1, 116966, Note_on_c, 4, 62, 127
1, 116966, Note_on_c, 4, 65, 127
1, 117072, Note_off_c, 2, 70, 64
1, 117072, Note_on_c, 2, 71, 119
1, 117182, Note_on_c, 2, 72, 120
1, 117200, Note_off_c, 2, 71, 64
1, 117292, Note_on_c, 2, 74, 120
1, 117310, Note_off_c, 2, 72, 64
1, 117400, Note_off_c, 4, 65, 64
1, 117400, Note_off_c, 4, 62, 64
1, 117401, Note_on_c, 4, 67, 121
1, 117401, Note_on_c, 2, 75, 120
1, 117402, Note_on_c, 4, 60, 127
1, 117419, Note_off_c, 2, 74, 64
1, 117508, Note_on_c, 2, 77, 120
1, 117526, Note_off_c, 2, 75, 64
1, 117611, Note_on_c, 1, 79, 117
1, 117626, Note_off_c, 2, 77, 64
1, 117719, Note_on_c, 2, 75, 120
1, 117735, Note_off_c, 1, 79, 64
1, 117824, Note_off_c, 4, 60, 64
1, 117825, Note_off_c, 4, 67, 64
1, 117825, Note_on_c, 2, 77, 120
1, 117826, Note_on_c, 4, 58, 127
1, 117826, Note_on_c, 2, 70, 119
1, 117841, Note_off_c, 2, 75, 64
1, 117939, Note_on_c, 2, 75, 120
1, 117958, Note_off_c, 2, 77, 64
1, 118046, Note_on_c, 2, 74, 120
1, 118063, Note_off_c, 2, 75, 64
1, 118257, Note_off_c, 4, 58, 64
1, 118258, Note_off_c, 2, 70, 64
1, 118258, Note_on_c, 2, 68, 119
1, 118259, Note_on_c, 4, 62, 127
1, 118461, Note_off_c, 2, 74, 64
1, 118461, Note_on_c, 2, 72, 116
1, 118668, Note_off_c, 2, 68, 64
1, 118668, Note_off_c, 4, 62, 64
1, 118669, Note_on_c, 4, 63, 127
1, 118669, Note_on_c, 4, 67, 121
1, 118739, Note_on_c, 2, 70, 115
1, 118758, Note_off_c, 2, 72, 64
1, 118811, Note_on_c, 2, 74, 116
1, 118818, Note_off_c, 2, 70, 64
1, 118876, Note_on_c, 2, 75, 116
1, 118884, Note_off_c, 2, 74, 64
1, 118936, Note_on_c, 1, 79, 117
1, 118945, Note_off_c, 2, 75, 64
1, 119004, Note_on_c, 2, 71, 115
1, 119010, Note_off_c, 1, 79, 64
1, 119059, Note_off_c, 4, 63, 64
1, 119060, Note_off_c, 4, 67, 64
1, 119060, Note_on_c, 2, 72, 116
1, 119060, Note_on_c, 2, 68, 119
1, 119061, Note_on_c, 4, 56, 127
1, 119065, Note_off_c, 2, 71, 64
1, 119114, Note_on_c, 2, 75, 116
1, 119119, Note_off_c, 2, 72, 64
1, 119163, Note_off_c, 2, 68, 64
1, 119184, Note_on_c, 4, 67, 121
1, 119193, Note_off_c, 2, 75, 64
1, 119252, Note_on_c, 2, 68, 119
1, 119259, Note_off_c, 4, 67, 64
1, 119284, Note_off_c, 4, 51, 64
1, 119313, Note_on_c, 2, 72, 116
1, 119319, Note_off_c, 2, 68, 64
1, 119375, Note_on_c, 4, 65, 127
1, 119383, Note_off_c, 2, 72, 64
1, 119453, Note_on_c, 4, 63, 127
1, 119462, Note_off_c, 4, 65, 64
1, 119685, Note_off_c, 4, 56, 64
1, 119686, Note_on_c, 4, 46, 127
1, 119686, Note_on_c, 4, 55, 127
1, 119898, Note_off_c, 4, 46, 64
1, 119899, Note_off_c, 4, 55, 64
1, 119918, Note_on_c, 4, 55, 127
1, 119919, Note_on_c, 4, 46, 127
1, 120119, Note_off_c, 4, 46, 64
1, 120132, Note_on_c, 4, 67, 121
1, 120133, Note_on_c, 4, 56, 127
1, 120133, Note_on_c, 4, 62, 127
1, 120134, Note_on_c, 4, 46, 127
1, 120156, Note_off_c, 4, 63, 64
1, 120163, Note_off_c, 4, 55, 64
1, 120232, Note_off_c, 4, 67, 64
1, 120234, Note_on_c, 4, 65, 127
1, 120376, Note_off_c, 4, 62, 64
1, 120378, Note_off_c, 4, 65, 64
1, 120383, Note_off_c, 4, 56, 64
1, 120387, Note_off_c, 4, 46, 64
1, 120400, Note_on_c, 4, 62, 127
1, 120400, Note_on_c, 4, 65, 127
1, 120401, Note_on_c, 4, 51, 127
1, 120401, Note_on_c, 4, 56, 127
1, 120994, Note_on_c, 4, 63, 127
1, 120995, Note_on_c, 4, 55, 127
1, 121041, Note_off_c, 4, 51, 64
1, 121042, Note_off_c, 4, 62, 64
1, 121042, Note_off_c, 4, 56, 64
1, 121043, Note_off_c, 4, 65, 64
1, 122981, Note_off_c, 4, 55, 64
1, 122982, Note_off_c, 4, 63, 64
1, 123024, Note_on_c, 2, 74, 121
1, 123173, Note_off_c, 2, 74, 64
1, 123174, Note_on_c, 2, 75, 121
1, 123224, Note_off_c, 2, 75, 64
1, 123224, Note_on_c, 2, 72, 121
1, 123315, Note_off_c, 2, 72, 64
1, 123322, Note_on_c, 2, 70, 123
1, 123414, Note_off_c, 2, 70, 64
1, 123422, Note_on_c, 4, 65, 123
1, 123422, Note_on_c, 2, 70, 123
1, 123423, Note_on_c, 4, 62, 127
1, 123612, Note_off_c, 4, 62, 64
1, 123613, Note_off_c, 2, 70, 64
1, 123613, Note_off_c, 4, 65, 64
1, 123621, Note_on_c, 2, 70, 123
1, 123621, Note_on_c, 4, 65, 123
1, 123621, Note_on_c, 4, 62, 127
1, 123811, Note_off_c, 4, 62, 64
1, 123812, Note_off_c, 4, 65, 64
1, 123812, Note_off_c, 2, 70, 64
1, 123820, Note_on_c, 4, 65, 123
1, 123820, Note_on_c, 2, 69, 115
1, 123821, Note_on_c, 4, 63, 127
1, 124117, Note_off_c, 2, 69, 64
1, 124118, Note_off_c, 4, 65, 64
1, 124119, Note_off_c, 4, 63, 64
1, 124216, Note_on_c, 2, 75, 121
1, 124366, Note_off_c, 2, 75, 64
1, 124367, Note_on_c, 2, 77, 121
1, 124415, Note_on_c, 2, 74, 121
1, 124424, Note_off_c, 2, 77, 64
1, 124515, Note_on_c, 2, 72, 121
1, 124525, Note_off_c, 2, 74, 64
1, 124606, Note_off_c, 2, 72, 64
1, 124614, Note_on_c, 4, 65, 123
1, 124614, Note_on_c, 2, 72, 121
1, 124615, Note_on_c, 4, 63, 127
1, 124804, Note_off_c, 4, 65, 64
1, 124804, Note_off_c, 4, 63, 64
1, 124805, Note_off_c, 2, 72, 64
1, 124812, Note_on_c, 2, 72, 121
1, 124813, Note_on_c, 4, 65, 123
1, 124813, Note_on_c, 4, 63, 127
1, 125003, Note_off_c, 4, 63, 64
1, 125003, Note_off_c, 4, 65, 64
1, 125011, Note_off_c, 2, 72, 64
1, 125012, Note_on_c, 4, 65, 123
1, 125012, Note_on_c, 2, 70, 115
1, 125013, Note_on_c, 4, 62, 127
1, 125277, Note_off_c, 2, 70, 64
1, 125277, Note_off_c, 4, 65, 64
1, 125278, Note_off_c, 4, 62, 64
1, 125409, Note_on_c, 4, 58, 127
1, 125409, Note_on_c, 2, 74, 112
1, 125557, Note_off_c, 4, 58, 64
1, 125558, Note_off_c, 2, 74, 64
1, 125558, Note_on_c, 2, 75, 112
1, 125559, Note_on_c, 4, 60, 127
1, 125605, Note_on_c, 2, 77, 112
1, 125606, Note_on_c, 4, 53, 127
1, 125606, Note_on_c, 4, 62, 127
1, 125613, Note_off_c, 4, 60, 64
1, 125614, Note_off_c, 2, 75, 64
1, 125697, Note_on_c, 4, 63, 127
1, 125697, Note_on_c, 1, 79, 111
1, 125706, Note_off_c, 4, 62, 64
1, 125707, Note_off_c, 2, 77, 64
1, 125794, Note_on_c, 2, 75, 112
1, 125794, Note_on_c, 4, 60, 127
1, 125803, Note_off_c, 4, 63, 64
1, 125804, Note_off_c, 1, 79, 64
1, 125884, Note_on_c, 2, 72, 112
1, 125884, Note_on_c, 4, 57, 127
1, 125893, Note_off_c, 4, 60, 64
1, 125894, Note_off_c, 2, 75, 64
1, 125976, Note_on_c, 4, 58, 127
1, 125976, Note_on_c, 2, 74, 112
1, 125986, Note_off_c, 4, 57, 64
1, 125986, Note_off_c, 2, 72, 64
1, 126070, Note_on_c, 2, 75, 112
1, 126070, Note_on_c, 4, 60, 127
1, 126080, Note_off_c, 2, 74, 64
1, 126080, Note_off_c, 4, 58, 64
1, 126163, Note_on_c, 4, 62, 127
1, 126163, Note_on_c, 2, 77, 112
1, 126172, Note_off_c, 4, 60, 64
1, 126172, Note_off_c, 2, 75, 64
1, 126252, Note_on_c, 1, 79, 111
1, 126252, Note_on_c, 4, 63, 127
1, 126261, Note_off_c, 4, 62, 64
1, 126262, Note_off_c, 2, 77, 64
1, 126344, Note_on_c, 2, 75, 112
1, 126345, Note_on_c, 4, 60, 127
1, 126354, Note_off_c, 4, 63, 64
1, 126354, Note_off_c, 1, 79, 64
1, 126433, Note_on_c, 2, 72, 112
1, 126434, Note_on_c, 4, 57, 127
1, 126444, Note_off_c, 4, 60, 64
1, 126444, Note_off_c, 2, 75, 64
1, 126528, Note_on_c, 2, 74, 112
1, 126528, Note_on_c, 4, 58, 127
1, 126538, Note_off_c, 4, 57, 64
1, 126539, Note_off_c, 2, 72, 64
1, 126619, Note_on_c, 2, 75, 112
1, 126619, Note_on_c, 4, 60, 127
1, 126628, Note_off_c, 4, 58, 64
1, 126629, Note_off_c, 2, 74, 64
1, 126710, Note_on_c, 4, 62, 127
1, 126710, Note_on_c, 2, 77, 112
1, 126720, Note_off_c, 4, 60, 64
1, 126720, Note_off_c, 2, 75, 64
1, 126799, Note_on_c, 1, 82, 111
1, 126809, Note_off_c, 2, 77, 64
1, 126890, Note_on_c, 1, 81, 111
1, 126901, Note_off_c, 1, 82, 64
1, 126912, Note_off_c, 4, 53, 64
1, 126982, Note_on_c, 1, 79, 111
1, 126991, Note_off_c, 1, 81, 64
1, 127070, Note_on_c, 2, 77, 112
1, 127080, Note_off_c, 1, 79, 64
1, 127159, Note_on_c, 2, 76, 112
1, 127169, Note_off_c, 2, 77, 64
1, 127248, Note_on_c, 2, 74, 112
1, 127258, Note_off_c, 2, 76, 64
1, 127339, Note_on_c, 2, 72, 112
1, 127348, Note_off_c, 2, 74, 64
1, 127429, Note_on_c, 2, 71, 111
1, 127440, Note_off_c, 2, 72, 64
1, 127519, Note_on_c, 2, 70, 113
1, 127530, Note_off_c, 2, 71, 64
1, 127613, Note_on_c, 2, 69, 113
1, 127624, Note_off_c, 2, 70, 64
1, 127706, Note_on_c, 4, 67, 115
1, 127717, Note_off_c, 2, 69, 64
1, 127801, Note_on_c, 2, 72, 112
1, 127812, Note_off_c, 4, 67, 64
1, 127945, Note_off_c, 2, 72, 64
1, 127945, Note_on_c, 2, 74, 112
1, 127992, Note_on_c, 4, 65, 127
1, 127993, Note_on_c, 4, 57, 126
1, 127993, Note_on_c, 4, 60, 126
1, 127994, Note_on_c, 4, 48, 126
1, 128001, Note_off_c, 2, 74, 64
1, 128009, Note_off_c, 4, 62, 64
1, 128164, Note_off_c, 4, 48, 64
1, 128165, Note_off_c, 4, 60, 64
1, 128165, Note_off_c, 4, 57, 64
1, 128166, Note_off_c, 4, 65, 64
1, 128189, Note_on_c, 4, 64, 127
1, 128189, Note_on_c, 4, 55, 126
1, 128190, Note_on_c, 4, 58, 126
1, 128190, Note_on_c, 4, 48, 126
1, 128364, Note_off_c, 4, 48, 64
1, 128364, Note_off_c, 4, 58, 64
1, 128364, Note_off_c, 4, 55, 64
1, 128364, Note_off_c, 4, 64, 64
1, 128388, Note_on_c, 4, 53, 126
1, 128388, Note_on_c, 4, 57, 126
1, 128388, Note_on_c, 4, 65, 127
1, 128583, Note_on_c, 4, 41, 127
1, 128650, Note_off_c, 4, 57, 64
1, 128650, Note_off_c, 4, 53, 64
1, 128651, Note_off_c, 4, 65, 64
1, 128782, Note_on_c, 2, 74, 118
1, 128783, Note_on_c, 2, 70, 119
1, 128931, Note_off_c, 2, 74, 64
1, 128931, Note_off_c, 2, 70, 64
1, 128932, Note_on_c, 2, 72, 118
1, 128932, Note_on_c, 2, 69, 119
1, 128981, Note_off_c, 2, 69, 64
1, 128981, Note_off_c, 2, 72, 64
1, 128982, Note_on_c, 2, 69, 119
1, 128982, Note_on_c, 2, 72, 118
1, 129171, Note_off_c, 2, 72, 64
1, 129171, Note_off_c, 2, 69, 64
1, 129180, Note_on_c, 4, 65, 127
1, 129366, Note_off_c, 4, 65, 64
1, 129373, Note_on_c, 2, 76, 118
1, 129374, Note_on_c, 2, 70, 119
1, 129522, Note_off_c, 2, 70, 64
1, 129523, Note_off_c, 2, 76, 64
1, 129523, Note_on_c, 2, 77, 118
1, 129524, Note_on_c, 2, 69, 119
1, 129572, Note_off_c, 2, 69, 64
1, 129573, Note_off_c, 2, 77, 64
1, 129573, Note_on_c, 2, 77, 118
1, 129574, Note_on_c, 2, 69, 119
1, 129771, Note_on_c, 4, 53, 127
1, 129877, Note_off_c, 2, 69, 64
1, 129878, Note_off_c, 2, 77, 64
1, 129954, Note_on_c, 2, 74, 121
1, 130105, Note_off_c, 2, 74, 64
1, 130105, Note_on_c, 2, 75, 121
1, 130156, Note_off_c, 2, 75, 64
1, 130156, Note_on_c, 2, 72, 121
1, 130222, Note_off_c, 4, 41, 64
1, 130248, Note_off_c, 2, 72, 64
1, 130256, Note_on_c, 2, 70, 123
1, 130349, Note_off_c, 2, 70, 64
1, 130356, Note_off_c, 4, 53, 64
1, 130357, Note_on_c, 2, 70, 123
1, 130357, Note_on_c, 4, 65, 123
1, 130358, Note_on_c, 4, 62, 127
1, 130548, Note_off_c, 4, 62, 64
1, 130548, Note_off_c, 4, 65, 64
1, 130548, Note_off_c, 2, 70, 64
1, 130556, Note_on_c, 4, 62, 127
1, 130556, Note_on_c, 4, 65, 123
1, 130556, Note_on_c, 2, 70, 123
1, 130746, Note_off_c, 4, 65, 64
1, 130746, Note_off_c, 4, 62, 64
1, 130747, Note_off_c, 2, 70, 64
1, 130754, Note_on_c, 2, 69, 115
1, 130755, Note_on_c, 4, 65, 123
1, 130756, Note_on_c, 4, 63, 127
1, 131052, Note_off_c, 2, 69, 64
1, 131052, Note_off_c, 4, 65, 64
1, 131053, Note_off_c, 4, 63, 64
1, 131152, Note_on_c, 2, 75, 121
1, 131301, Note_off_c, 2, 75, 64
1, 131301, Note_on_c, 2, 77, 121
1, 131351, Note_on_c, 2, 74, 121
1, 131358, Note_off_c, 2, 77, 64
1, 131449, Note_on_c, 2, 72, 121
1, 131460, Note_off_c, 2, 74, 64
1, 131541, Note_off_c, 2, 72, 64
1, 131549, Note_on_c, 2, 72, 121
1, 131550, Note_on_c, 4, 65, 123
1, 131550, Note_on_c, 4, 63, 127
1, 131739, Note_off_c, 4, 63, 64
1, 131740, Note_off_c, 4, 65, 64
1, 131740, Note_off_c, 2, 72, 64
1, 131748, Note_on_c, 2, 72, 121
1, 131748, Note_on_c, 4, 65, 123
1, 131749, Note_on_c, 4, 63, 127
1, 131938, Note_off_c, 4, 63, 64
1, 131939, Note_off_c, 4, 65, 64
1, 131946, Note_off_c, 2, 72, 64
1, 131946, Note_on_c, 2, 70, 113
1, 131947, Note_on_c, 4, 65, 123
1, 131948, Note_on_c, 4, 62, 127
1, 132211, Note_off_c, 2, 70, 64
1, 132212, Note_off_c, 4, 65, 64
1, 132213, Note_off_c, 4, 62, 64
1, 132343, Note_on_c, 2, 74, 112
1, 132344, Note_on_c, 4, 58, 127
1, 132492, Note_off_c, 4, 58, 64
1, 132493, Note_off_c, 2, 74, 64
1, 132493, Note_on_c, 2, 75, 112
1, 132494, Note_on_c, 4, 60, 127
1, 132540, Note_on_c, 2, 77, 112
1, 132540, Note_on_c, 4, 62, 127
1, 132541, Note_on_c, 4, 53, 127
1, 132548, Note_off_c, 4, 60, 64
1, 132548, Note_off_c, 2, 75, 64
1, 132632, Note_on_c, 1, 79, 111
1, 132633, Note_on_c, 4, 63, 127
1, 132642, Note_off_c, 4, 62, 64
1, 132642, Note_off_c, 2, 77, 64
1, 132730, Note_on_c, 2, 75, 112
1, 132730, Note_on_c, 4, 60, 127
1, 132739, Note_off_c, 1, 79, 64
1, 132739, Note_off_c, 4, 63, 64
1, 132820, Note_on_c, 2, 72, 112
1, 132820, Note_on_c, 4, 57, 127
1, 132829, Note_off_c, 4, 60, 64
1, 132829, Note_off_c, 2, 75, 64
1, 132911, Note_on_c, 2, 74, 112
1, 132911, Note_on_c, 4, 58, 127
1, 132921, Note_off_c, 4, 57, 64
1, 132922, Note_off_c, 2, 72, 64
1, 133005, Note_on_c, 2, 75, 112
1, 133005, Note_on_c, 4, 60, 127
1, 133015, Note_off_c, 4, 58, 64
1, 133016, Note_off_c, 2, 74, 64
1, 133097, Note_on_c, 2, 77, 112
1, 133098, Note_on_c, 4, 62, 127
1, 133106, Note_off_c, 4, 60, 64
1, 133107, Note_off_c, 2, 75, 64
1, 133187, Note_on_c, 1, 79, 111
1, 133187, Note_on_c, 4, 63, 127
1, 133197, Note_off_c, 4, 62, 64
1, 133197, Note_off_c, 2, 77, 64
1, 133279, Note_on_c, 2, 75, 112
1, 133279, Note_on_c, 4, 60, 127
1, 133289, Note_off_c, 4, 63, 64
1, 133290, Note_off_c, 1, 79, 64
1, 133368, Note_on_c, 2, 72, 112
1, 133368, Note_on_c, 4, 57, 127
1, 133378, Note_off_c, 4, 60, 64
1, 133379, Note_off_c, 2, 75, 64
1, 133463, Note_on_c, 2, 74, 112
1, 133464, Note_on_c, 4, 58, 127
1, 133472, Note_off_c, 4, 57, 64
1, 133473, Note_off_c, 2, 72, 64
1, 133553, Note_on_c, 2, 75, 112
1, 133554, Note_on_c, 4, 60, 127
1, 133563, Note_off_c, 4, 58, 64
1, 133564, Note_off_c, 2, 74, 64
1, 133645, Note_on_c, 2, 77, 112
1, 133646, Note_on_c, 4, 62, 127
1, 133655, Note_off_c, 4, 60, 64
1, 133656, Note_off_c, 2, 75, 64
1, 133734, Note_on_c, 1, 82, 111
1, 133743, Note_off_c, 2, 77, 64
1, 133826, Note_on_c, 1, 81, 111
1, 133836, Note_off_c, 1, 82, 64
1, 133846, Note_off_c, 4, 53, 64
1, 133917, Note_on_c, 1, 79, 111
1, 133927, Note_off_c, 1, 81, 64
1, 134005, Note_on_c, 2, 77, 112
1, 134015, Note_off_c, 1, 79, 64
1, 134094, Note_on_c, 2, 76, 112
1, 134103, Note_off_c, 2, 77, 64
1, 134183, Note_on_c, 2, 74, 112
1, 134193, Note_off_c, 2, 76, 64
1, 134273, Note_on_c, 2, 72, 112
1, 134283, Note_off_c, 2, 74, 64
1, 134364, Note_on_c, 2, 71, 111
1, 134373, Note_off_c, 2, 72, 64
1, 134454, Note_on_c, 2, 70, 113
1, 134464, Note_off_c, 2, 71, 64
1, 134548, Note_on_c, 2, 69, 113
1, 134557, Note_off_c, 2, 70, 64
1, 134641, Note_on_c, 4, 67, 115
1, 134652, Note_off_c, 2, 69, 64
1, 134736, Note_on_c, 2, 72, 112
1, 134747, Note_off_c, 4, 67, 64
1, 134879, Note_off_c, 2, 72, 64
1, 134880, Note_on_c, 2, 74, 112
1, 134927, Note_on_c, 4, 65, 127
1, 134928, Note_on_c, 4, 60, 126
1, 134928, Note_on_c, 4, 57, 126
1, 134928, Note_on_c, 4, 48, 126
1, 134935, Note_off_c, 2, 74, 64
1, 134943, Note_off_c, 4, 62, 64
1, 135098, Note_off_c, 4, 48, 64
1, 135098, Note_off_c, 4, 57, 64
1, 135099, Note_off_c, 4, 65, 64
1, 135101, Note_off_c, 4, 60, 64
1, 135123, Note_on_c, 4, 64, 127
1, 135124, Note_on_c, 4, 58, 126
1, 135124, Note_on_c, 4, 55, 126
1, 135124, Note_on_c, 4, 48, 126
1, 135298, Note_off_c, 4, 48, 64
1, 135298, Note_off_c, 4, 55, 64
1, 135299, Note_off_c, 4, 58, 64
1, 135299, Note_off_c, 4, 64, 64
1, 135322, Note_on_c, 4, 65, 127
1, 135323, Note_on_c, 4, 57, 126
1, 135323, Note_on_c, 4, 53, 126
1, 135518, Note_on_c, 4, 41, 127
1, 135584, Note_off_c, 4, 53, 64
1, 135585, Note_off_c, 4, 65, 64
1, 135585, Note_off_c, 4, 57, 64
1, 135717, Note_on_c, 2, 74, 118
1, 135717, Note_on_c, 2, 70, 119
1, 135865, Note_off_c, 2, 70, 64
1, 135866, Note_off_c, 2, 74, 64
1, 135866, Note_on_c, 2, 72, 118
1, 135867, Note_on_c, 2, 69, 119
1, 135915, Note_off_c, 2, 69, 64
1, 135916, Note_off_c, 2, 72, 64
1, 135916, Note_on_c, 2, 72, 118
1, 135917, Note_on_c, 2, 69, 119
1, 136105, Note_off_c, 2, 69, 64
1, 136106, Note_off_c, 2, 72, 64
1, 136114, Note_on_c, 4, 65, 127
1, 136299, Note_off_c, 4, 65, 64
1, 136308, Note_on_c, 2, 76, 118
1, 136308, Note_on_c, 2, 70, 119
1, 136457, Note_off_c, 2, 70, 64
1, 136457, Note_off_c, 2, 76, 64
1, 136458, Note_on_c, 2, 77, 118
1, 136458, Note_on_c, 2, 69, 119
1, 136507, Note_off_c, 2, 69, 64
1, 136507, Note_off_c, 2, 77, 64
1, 136508, Note_on_c, 2, 77, 118
1, 136508, Note_on_c, 2, 69, 119
1, 136704, Note_off_c, 2, 69, 64
1, 136705, Note_off_c, 2, 77, 64
1, 136705, Note_on_c, 4, 53, 127
1, 136896, Note_off_c, 4, 53, 64
1, 136906, Note_on_c, 2, 71, 117
1, 136907, Note_on_c, 4, 65, 127
1, 136907, Note_on_c, 4, 53, 127
1, 136920, Note_on_c, 2, 74, 109
1, 136926, Note_off_c, 4, 41, 64
1, 136934, Note_on_c, 1, 80, 108
1, 137055, Note_off_c, 2, 71, 64
1, 137066, Note_off_c, 2, 74, 64
1, 137078, Note_off_c, 1, 80, 64
1, 137107, Note_off_c, 4, 53, 64
1, 137107, Note_off_c, 4, 65, 64
1, 137108, Note_on_c, 4, 64, 127
1, 137108, Note_on_c, 2, 72, 109
1, 137109, Note_on_c, 4, 52, 127
1, 137121, Note_on_c, 2, 76, 109
1, 137135, Note_on_c, 1, 79, 108
1, 137256, Note_off_c, 2, 72, 64
1, 137267, Note_off_c, 2, 76, 64
1, 137279, Note_off_c, 1, 79, 64
1, 137304, Note_off_c, 4, 52, 64
1, 137305, Note_off_c, 4, 64, 64
1, 137305, Note_on_c, 2, 69, 119
1, 137306, Note_on_c, 4, 63, 127
1, 137306, Note_on_c, 4, 51, 127
1, 137319, Note_on_c, 2, 72, 109
1, 137332, Note_on_c, 1, 78, 108
1, 137454, Note_off_c, 2, 69, 64
1, 137466, Note_off_c, 2, 72, 64
1, 137477, Note_off_c, 1, 78, 64
1, 137507, Note_off_c, 4, 51, 64
1, 137507, Note_off_c, 4, 63, 64
1, 137508, Note_on_c, 2, 70, 119
1, 137508, Note_on_c, 4, 62, 127
1, 137508, Note_on_c, 4, 50, 127
1, 137520, Note_on_c, 2, 74, 109
1, 137534, Note_on_c, 2, 77, 109
1, 137654, Note_off_c, 2, 70, 64
1, 137665, Note_off_c, 2, 74, 64
1, 137677, Note_off_c, 2, 77, 64
1, 137706, Note_off_c, 4, 50, 64
1, 137706, Note_off_c, 4, 62, 64
1, 137707, Note_on_c, 4, 67, 121
1, 137707, Note_on_c, 4, 55, 127
1, 137708, Note_on_c, 4, 43, 127
1, 137719, Note_on_c, 2, 70, 119
1, 137733, Note_on_c, 2, 76, 109
1, 137855, Note_off_c, 4, 67, 64
1, 137867, Note_off_c, 2, 70, 64
1, 137878, Note_off_c, 2, 76, 64
1, 137904, Note_off_c, 4, 55, 64
1, 137904, Note_off_c, 4, 43, 64
1, 137905, Note_on_c, 4, 66, 125
1, 137905, Note_on_c, 4, 57, 127
1, 137906, Note_on_c, 4, 45, 127
1, 137917, Note_on_c, 2, 72, 109
1, 137929, Note_on_c, 2, 75, 109
1, 138045, Note_off_c, 4, 66, 64
1, 138056, Note_off_c, 2, 72, 64
1, 138068, Note_off_c, 2, 75, 64
1, 138093, Note_off_c, 4, 45, 64
1, 138094, Note_off_c, 4, 57, 64
1, 138094, Note_on_c, 4, 65, 127
1, 138095, Note_on_c, 4, 58, 127
1, 138095, Note_on_c, 4, 46, 127
1, 138105, Note_on_c, 2, 70, 119
1, 138117, Note_on_c, 2, 74, 109
1, 138285, Note_off_c, 4, 46, 64
1, 138286, Note_on_c, 4, 51, 127
1, 138333, Note_off_c, 4, 58, 64
1, 138334, Note_off_c, 4, 65, 64
1, 138345, Note_off_c, 2, 70, 64
1, 138356, Note_off_c, 2, 74, 64
1, 138478, Note_on_c, 2, 72, 118
1, 138670, Note_off_c, 4, 51, 64
1, 138671, Note_off_c, 2, 72, 64
1, 138671, Note_on_c, 2, 73, 118
1, 138672, Note_on_c, 4, 52, 127
1, 138862, Note_off_c, 4, 52, 64
1, 138863, Note_off_c, 2, 73, 64
1, 138863, Note_on_c, 2, 70, 119
1, 138864, Note_on_c, 4, 53, 127
1, 138957, Note_on_c, 2, 69, 119
1, 138967, Note_off_c, 2, 70, 64
1, 139050, Note_off_c, 4, 53, 64
1, 139051, Note_on_c, 4, 51, 127
1, 139051, Note_on_c, 4, 67, 121
1, 139060, Note_off_c, 2, 69, 64
1, 139142, Note_on_c, 4, 65, 127
1, 139153, Note_off_c, 4, 67, 64
1, 139238, Note_off_c, 4, 51, 64
1, 139239, Note_on_c, 2, 70, 119
1, 139239, Note_on_c, 4, 50, 127
1, 139249, Note_off_c, 4, 65, 64
1, 139433, Note_off_c, 4, 50, 64
1, 139434, Note_off_c, 2, 70, 64
1, 139434, Note_on_c, 2, 75, 109
1, 139435, Note_on_c, 2, 72, 109
1, 139435, Note_on_c, 4, 57, 127
1, 139627, Note_off_c, 4, 57, 64
1, 139628, Note_off_c, 2, 75, 64
1, 139628, Note_off_c, 2, 72, 64
1, 139629, Note_on_c, 2, 74, 109
1, 139629, Note_on_c, 2, 70, 119
1, 139630, Note_on_c, 4, 58, 127
1, 139772, Note_off_c, 2, 70, 64
1, 139773, Note_off_c, 2, 74, 64
1, 139773, Note_on_c, 2, 72, 109
1, 139774, Note_on_c, 2, 69, 119
1, 139820, Note_off_c, 4, 58, 64
1, 139821, Note_on_c, 2, 74, 109
1, 139821, Note_on_c, 2, 70, 119
1, 139822, Note_on_c, 4, 52, 127
1, 139828, Note_off_c, 2, 69, 64
1, 139828, Note_off_c, 2, 72, 64
1, 139967, Note_off_c, 2, 70, 64
1, 139967, Note_off_c, 2, 74, 64
1, 139968, Note_on_c, 2, 75, 109
1, 139968, Note_on_c, 2, 72, 109
1, 140013, Note_off_c, 4, 52, 64
1, 140014, Note_on_c, 2, 74, 109
1, 140015, Note_on_c, 4, 53, 127
1, 140015, Note_on_c, 2, 70, 119
1, 140021, Note_off_c, 2, 72, 64
1, 140022, Note_off_c, 2, 75, 64
1, 140205, Note_off_c, 2, 74, 64
1, 140205, Note_off_c, 2, 70, 64
1, 140206, Note_on_c, 2, 72, 109
1, 140206, Note_on_c, 2, 69, 119
1, 140403, Note_off_c, 4, 53, 64
1, 140404, Note_off_c, 2, 69, 64
1, 140404, Note_off_c, 2, 72, 64
1, 140405, Note_on_c, 4, 62, 127
1, 140553, Note_off_c, 4, 62, 64
1, 140554, Note_on_c, 4, 63, 127
1, 140602, Note_off_c, 4, 63, 64
1, 140603, Note_on_c, 4, 60, 127
1, 140693, Note_off_c, 4, 60, 64
1, 140702, Note_on_c, 4, 58, 127
1, 140793, Note_off_c, 4, 58, 64
1, 140801, Note_on_c, 2, 77, 103
1, 140801, Note_on_c, 2, 74, 107
1, 140802, Note_on_c, 4, 58, 127
1, 140975, Note_off_c, 2, 74, 64
1, 140975, Note_off_c, 4, 58, 64
1, 140976, Note_off_c, 2, 77, 64
1, 141000, Note_on_c, 2, 77, 103
1, 141000, Note_on_c, 2, 74, 107
1, 141000, Note_on_c, 4, 58, 127
1, 141173, Note_off_c, 4, 58, 64
1, 141174, Note_off_c, 2, 74, 64
1, 141174, Note_off_c, 2, 77, 64
1, 141198, Note_on_c, 2, 77, 103
1, 141199, Note_on_c, 2, 75, 107
1, 141199, Note_on_c, 4, 57, 127
1, 141496, Note_off_c, 4, 57, 64
1, 141496, Note_off_c, 2, 75, 64
1, 141497, Note_off_c, 2, 77, 64
1, 141596, Note_on_c, 4, 63, 127
1, 141744, Note_off_c, 4, 63, 64
1, 141745, Note_on_c, 4, 65, 127
1, 141794, Note_off_c, 4, 65, 64
1, 141795, Note_on_c, 4, 62, 127
1, 141885, Note_off_c, 4, 62, 64
1, 141893, Note_on_c, 4, 60, 127
1, 141984, Note_off_c, 4, 60, 64
1, 141993, Note_on_c, 1, 87, 104
1, 141994, Note_on_c, 1, 81, 102
1, 141994, Note_on_c, 4, 60, 127
1, 142167, Note_off_c, 4, 60, 64
1, 142167, Note_off_c, 1, 81, 64
1, 142168, Note_off_c, 1, 87, 64
1, 142191, Note_on_c, 1, 87, 104
1, 142191, Note_on_c, 1, 81, 102
1, 142192, Note_on_c, 4, 60, 127
1, 142365, Note_off_c, 4, 60, 64
1, 142366, Note_off_c, 1, 81, 64
1, 142366, Note_off_c, 1, 87, 64
1, 142390, Note_on_c, 1, 86, 104
1, 142390, Note_on_c, 1, 82, 102
1, 142391, Note_on_c, 4, 58, 127
1, 142685, Note_off_c, 1, 82, 64
1, 142685, Note_off_c, 4, 58, 64
1, 142686, Note_off_c, 1, 86, 64
1, 142781, Note_on_c, 2, 74, 118
1, 142781, Note_on_c, 4, 58, 127
1, 142923, Note_off_c, 4, 58, 64
1, 142923, Note_off_c, 2, 74, 64
1, 142924, Note_on_c, 2, 75, 118
1, 142924, Note_on_c, 4, 60, 127
1, 142968, Note_on_c, 2, 77, 118
1, 142968, Note_on_c, 4, 62, 127
1, 142969, Note_on_c, 4, 53, 127
1, 142976, Note_off_c, 4, 60, 64
1, 142976, Note_off_c, 2, 75, 64
1, 143058, Note_on_c, 1, 79, 117
1, 143059, Note_on_c, 4, 63, 127
1, 143068, Note_off_c, 4, 62, 64
1, 143068, Note_off_c, 2, 77, 64
1, 143150, Note_on_c, 2, 75, 118
1, 143151, Note_on_c, 4, 60, 127
1, 143161, Note_off_c, 4, 63, 64
1, 143161, Note_off_c, 1, 79, 64
1, 143246, Note_on_c, 2, 72, 118
1, 143247, Note_on_c, 4, 57, 127
1, 143257, Note_off_c, 4, 60, 64
1, 143257, Note_off_c, 2, 75, 64
1, 143340, Note_on_c, 2, 74, 118
1, 143340, Note_on_c, 4, 58, 127
1, 143350, Note_off_c, 4, 57, 64
1, 143351, Note_off_c, 2, 72, 64
1, 143433, Note_on_c, 2, 75, 118
1, 143433, Note_on_c, 4, 60, 127
1, 143442, Note_off_c, 4, 58, 64
1, 143443, Note_off_c, 2, 74, 64
1, 143524, Note_on_c, 2, 77, 118
1, 143524, Note_on_c, 4, 62, 127
1, 143533, Note_off_c, 4, 60, 64
1, 143534, Note_off_c, 2, 75, 64
1, 143613, Note_on_c, 1, 79, 117
1, 143614, Note_on_c, 4, 63, 127
1, 143623, Note_off_c, 4, 62, 64
1, 143623, Note_off_c, 2, 77, 64
1, 143704, Note_on_c, 2, 75, 118
1, 143705, Note_on_c, 4, 60, 127
1, 143714, Note_off_c, 4, 63, 64
1, 143714, Note_off_c, 1, 79, 64
1, 143798, Note_on_c, 2, 72, 118
1, 143799, Note_on_c, 4, 57, 127
1, 143809, Note_off_c, 2, 75, 64
1, 143809, Note_off_c, 4, 60, 64
1, 143893, Note_on_c, 2, 74, 118
1, 143894, Note_on_c, 4, 58, 127
1, 143904, Note_off_c, 4, 57, 64
1, 143904, Note_off_c, 2, 72, 64
1, 143988, Note_on_c, 2, 75, 118
1, 143988, Note_on_c, 4, 60, 127
1, 143997, Note_off_c, 4, 58, 64
1, 143998, Note_off_c, 2, 74, 64
1, 144079, Note_on_c, 4, 62, 127
1, 144079, Note_on_c, 2, 77, 118
1, 144088, Note_off_c, 4, 60, 64
1, 144089, Note_off_c, 2, 75, 64
1, 144170, Note_on_c, 1, 87, 119
1, 144180, Note_off_c, 2, 77, 64
1, 144264, Note_on_c, 1, 86, 119
1, 144275, Note_off_c, 1, 87, 64
1, 144298, Note_off_c, 4, 53, 64
1, 144356, Note_on_c, 1, 84, 119
1, 144366, Note_off_c, 1, 86, 64
1, 144447, Note_on_c, 1, 82, 117
1, 144458, Note_off_c, 1, 84, 64
1, 144540, Note_on_c, 1, 81, 117
1, 144550, Note_off_c, 1, 82, 64
1, 144635, Note_on_c, 1, 79, 117
1, 144645, Note_off_c, 1, 81, 64
1, 144729, Note_on_c, 2, 77, 118
1, 144739, Note_off_c, 1, 79, 64
1, 144822, Note_on_c, 2, 76, 118
1, 144832, Note_off_c, 2, 77, 64
1, 144916, Note_on_c, 2, 75, 118
1, 144925, Note_off_c, 2, 76, 64
1, 145008, Note_on_c, 2, 74, 118
1, 145018, Note_off_c, 2, 75, 64
1, 145101, Note_on_c, 2, 72, 118
1, 145110, Note_off_c, 2, 74, 64
1, 145193, Note_on_c, 2, 77, 118
1, 145203, Note_off_c, 2, 72, 64
1, 145333, Note_off_c, 2, 77, 64
1, 145333, Note_on_c, 1, 79, 117
1, 145357, Note_off_c, 4, 62, 64
1, 145382, Note_on_c, 2, 70, 119
1, 145382, Note_on_c, 4, 65, 127
1, 145383, Note_on_c, 4, 62, 127
1, 145383, Note_on_c, 4, 53, 127
1, 145390, Note_off_c, 1, 79, 64
1, 145550, Note_off_c, 4, 53, 64
1, 145550, Note_off_c, 4, 62, 64
1, 145551, Note_off_c, 4, 65, 64
1, 145551, Note_off_c, 2, 70, 64
1, 145574, Note_on_c, 2, 69, 119
1, 145574, Note_on_c, 4, 63, 127
1, 145575, Note_on_c, 4, 60, 127
1, 145575, Note_on_c, 4, 53, 127
1, 145743, Note_off_c, 4, 53, 64
1, 145743, Note_off_c, 4, 60, 64
1, 145744, Note_off_c, 4, 63, 64
1, 145744, Note_off_c, 2, 69, 64
1, 145768, Note_on_c, 2, 70, 119
1, 145768, Note_on_c, 4, 62, 127
1, 145769, Note_on_c, 4, 58, 127
1, 145960, Note_on_c, 4, 46, 127
1, 146010, Note_off_c, 4, 62, 64
1, 146010, Note_off_c, 4, 58, 64
1, 146011, Note_off_c, 2, 70, 64
1, 146155, Note_on_c, 1, 79, 117
1, 146155, Note_on_c, 2, 75, 118
1, 146352, Note_off_c, 2, 75, 64
1, 146352, Note_off_c, 1, 79, 64
1, 146352, Note_on_c, 2, 77, 118
1, 146353, Note_on_c, 2, 74, 118
1, 146546, Note_off_c, 2, 74, 64
1, 146547, Note_off_c, 2, 77, 64
1, 146547, Note_on_c, 2, 70, 119
1, 146738, Note_off_c, 2, 70, 64
1, 146739, Note_on_c, 1, 81, 117
1, 146740, Note_on_c, 2, 75, 118
1, 146939, Note_off_c, 2, 75, 64
1, 146940, Note_off_c, 1, 81, 64
1, 146940, Note_on_c, 1, 82, 117
1, 146940, Note_on_c, 2, 74, 118
1, 147134, Note_on_c, 4, 58, 127
1, 147142, Note_off_c, 4, 46, 64
1, 147183, Note_off_c, 2, 74, 64
1, 147184, Note_off_c, 1, 82, 64
1, 147333, Note_off_c, 4, 58, 64
1, 147334, Note_on_c, 2, 74, 118
1, 147334, Note_on_c, 4, 55, 127
1, 147482, Note_off_c, 2, 74, 64
1, 147482, Note_on_c, 2, 70, 119
1, 147534, Note_off_c, 4, 55, 64
1, 147534, Note_on_c, 2, 75, 118
1, 147535, Note_on_c, 4, 67, 121
1, 147535, Note_on_c, 4, 51, 127
1, 147542, Note_off_c, 2, 70, 64
1, 147736, Note_off_c, 4, 51, 64
1, 147737, Note_on_c, 4, 48, 127
1, 147852, Note_off_c, 4, 67, 64
1, 147853, Note_off_c, 2, 75, 64
1, 147935, Note_off_c, 4, 48, 64
1, 147936, Note_on_c, 2, 72, 118
1, 147936, Note_on_c, 4, 63, 127
1, 147936, Note_on_c, 4, 53, 127
1, 148084, Note_off_c, 4, 63, 64
1, 148084, Note_off_c, 2, 72, 64
1, 148085, Note_on_c, 2, 69, 119
1, 148136, Note_off_c, 4, 53, 64
1, 148136, Note_on_c, 2, 70, 119
1, 148137, Note_on_c, 4, 62, 127
1, 148137, Note_on_c, 4, 58, 127
1, 148144, Note_off_c, 2, 69, 64
1, 148337, Note_off_c, 4, 58, 64
1, 148338, Note_off_c, 2, 70, 64
1, 148338, Note_off_c, 4, 62, 64
1, 148339, Note_on_c, 4, 46, 127
1, 148542, Note_off_c, 4, 46, 64
1, 148542, Note_on_c, 2, 71, 117
1, 148543, Note_on_c, 4, 65, 127
1, 148543, Note_on_c, 4, 53, 127
1, 148555, Note_on_c, 2, 74, 109
1, 148569, Note_on_c, 1, 80, 108
1, 148689, Note_off_c, 2, 71, 64
1, 148699, Note_off_c, 2, 74, 64
1, 148710, Note_off_c, 1, 80, 64
1, 148739, Note_off_c, 4, 53, 64
1, 148739, Note_off_c, 4, 65, 64
1, 148740, Note_on_c, 2, 72, 109
1, 148740, Note_on_c, 4, 64, 127
1, 148740, Note_on_c, 4, 52, 127
1, 148753, Note_on_c, 2, 76, 109
1, 148766, Note_on_c, 1, 79, 108
1, 148888, Note_off_c, 2, 72, 64
1, 148899, Note_off_c, 2, 76, 64
1, 148910, Note_off_c, 1, 79, 64
1, 148936, Note_off_c, 4, 52, 64
1, 148937, Note_off_c, 4, 64, 64
1, 148937, Note_on_c, 2, 69, 119
1, 148938, Note_on_c, 4, 63, 127
1, 148938, Note_on_c, 4, 51, 127
1, 148951, Note_on_c, 2, 72, 109
1, 148964, Note_on_c, 1, 78, 108
1, 149086, Note_off_c, 2, 69, 64
1, 149098, Note_off_c, 2, 72, 64
1, 149109, Note_off_c, 1, 78, 64
1, 149138, Note_off_c, 4, 51, 64
1, 149138, Note_off_c, 4, 63, 64
1, 149139, Note_on_c, 2, 70, 119
1, 149139, Note_on_c, 4, 62, 127
1, 149140, Note_on_c, 4, 50, 127
1, 149152, Note_on_c, 2, 74, 109
1, 149166, Note_on_c, 2, 77, 109
1, 149286, Note_off_c, 2, 70, 64
1, 149297, Note_off_c, 2, 74, 64
1, 149309, Note_off_c, 2, 77, 64
1, 149338, Note_off_c, 4, 62, 64
1, 149338, Note_off_c, 4, 50, 64
1, 149339, Note_on_c, 4, 55, 127
1, 149339, Note_on_c, 4, 67, 121
1, 149340, Note_on_c, 4, 43, 127
1, 149352, Note_on_c, 2, 70, 119
1, 149364, Note_on_c, 2, 76, 109
1, 149487, Note_off_c, 4, 67, 64
1, 149498, Note_off_c, 2, 70, 64
1, 149509, Note_off_c, 2, 76, 64
1, 149536, Note_off_c, 4, 55, 64
1, 149536, Note_off_c, 4, 43, 64
1, 149537, Note_on_c, 4, 66, 125
1, 149537, Note_on_c, 4, 57, 127
1, 149538, Note_on_c, 4, 45, 127
1, 149549, Note_on_c, 2, 72, 109
1, 149562, Note_on_c, 2, 75, 109
1, 149677, Note_off_c, 4, 66, 64
1, 149688, Note_off_c, 2, 72, 64
1, 149700, Note_off_c, 2, 75, 64
1, 149725, Note_off_c, 4, 45, 64
1, 149725, Note_off_c, 4, 57, 64
1, 149726, Note_on_c, 4, 65, 127
1, 149726, Note_on_c, 4, 58, 127
1, 149727, Note_on_c, 4, 46, 127
1, 149737, Note_on_c, 2, 70, 119
1, 149749, Note_on_c, 2, 74, 109
1, 149917, Note_off_c, 4, 46, 64
1, 149917, Note_on_c, 4, 51, 127
1, 149965, Note_off_c, 4, 58, 64
1, 149965, Note_off_c, 4, 65, 64
1, 149976, Note_off_c, 2, 70, 64
1, 149988, Note_off_c, 2, 74, 64
1, 150110, Note_on_c, 2, 72, 118
1, 150302, Note_off_c, 4, 51, 64
1, 150302, Note_off_c, 2, 72, 64
1, 150303, Note_on_c, 2, 73, 118
1, 150303, Note_on_c, 4, 52, 127
1, 150494, Note_off_c, 4, 52, 64
1, 150494, Note_off_c, 2, 73, 64
1, 150495, Note_on_c, 2, 70, 119
1, 150495, Note_on_c, 4, 53, 127
1, 150589, Note_on_c, 2, 69, 119
1, 150600, Note_off_c, 2, 70, 64
1, 150682, Note_off_c, 4, 53, 64
1, 150683, Note_on_c, 4, 67, 121
1, 150683, Note_on_c, 4, 51, 127
1, 150692, Note_off_c, 2, 69, 64
1, 150774, Note_on_c, 4, 65, 127
1, 150785, Note_off_c, 4, 67, 64
1, 150870, Note_off_c, 4, 51, 64
1, 150871, Note_on_c, 2, 70, 119
1, 150871, Note_on_c, 4, 50, 127
1, 150881, Note_off_c, 4, 65, 64
1, 151066, Note_off_c, 4, 50, 64
1, 151066, Note_off_c, 2, 70, 64
1, 151067, Note_on_c, 2, 75, 109
1, 151067, Note_on_c, 2, 72, 109
1, 151068, Note_on_c, 4, 57, 127
1, 151259, Note_off_c, 4, 57, 64
1, 151260, Note_off_c, 2, 72, 64
1, 151260, Note_off_c, 2, 75, 64
1, 151260, Note_on_c, 2, 74, 109
1, 151261, Note_on_c, 4, 58, 127
1, 151261, Note_on_c, 2, 70, 119
1, 151404, Note_off_c, 2, 70, 64
1, 151404, Note_off_c, 2, 74, 64
1, 151405, Note_on_c, 2, 72, 109
1, 151405, Note_on_c, 2, 69, 119
1, 151452, Note_off_c, 4, 58, 64
1, 151452, Note_on_c, 2, 74, 109
1, 151453, Note_on_c, 2, 70, 119
1, 151453, Note_on_c, 4, 52, 127
1, 151460, Note_off_c, 2, 69, 64
1, 151460, Note_off_c, 2, 72, 64
1, 151598, Note_off_c, 2, 70, 64
1, 151599, Note_off_c, 2, 74, 64
1, 151599, Note_on_c, 2, 75, 109
1, 151599, Note_on_c, 2, 72, 109
1, 151645, Note_off_c, 4, 52, 64
1, 151646, Note_on_c, 2, 74, 109
1, 151646, Note_on_c, 2, 70, 119
1, 151647, Note_on_c, 4, 53, 127
1, 151653, Note_off_c, 2, 72, 64
1, 151653, Note_off_c, 2, 75, 64
1, 151837, Note_off_c, 2, 70, 64
1, 151838, Note_off_c, 2, 74, 64
1, 151838, Note_on_c, 2, 72, 109
1, 151839, Note_on_c, 2, 69, 119
1, 152035, Note_off_c, 4, 53, 64
1, 152036, Note_off_c, 2, 72, 64
1, 152036, Note_off_c, 2, 69, 64
1, 152037, Note_on_c, 4, 62, 127
1, 152185, Note_off_c, 4, 62, 64
1, 152185, Note_on_c, 4, 63, 127
1, 152234, Note_off_c, 4, 63, 64
1, 152234, Note_on_c, 4, 60, 127
1, 152325, Note_off_c, 4, 60, 64
1, 152334, Note_on_c, 4, 58, 127
1, 152425, Note_off_c, 4, 58, 64
1, 152433, Note_on_c, 2, 77, 103
1, 152433, Note_on_c, 2, 74, 107
1, 152434, Note_on_c, 4, 58, 127
1, 152606, Note_off_c, 4, 58, 64
1, 152607, Note_off_c, 2, 74, 64
1, 152607, Note_off_c, 2, 77, 64
1, 152631, Note_on_c, 2, 77, 103
1, 152632, Note_on_c, 2, 74, 107
1, 152632, Note_on_c, 4, 58, 127
1, 152805, Note_off_c, 4, 58, 64
1, 152806, Note_off_c, 2, 77, 64
1, 152806, Note_off_c, 2, 74, 64
1, 152830, Note_on_c, 2, 77, 103
1, 152831, Note_on_c, 2, 75, 107
1, 152831, Note_on_c, 4, 57, 127
1, 153128, Note_off_c, 4, 57, 64
1, 153128, Note_off_c, 2, 75, 64
1, 153129, Note_off_c, 2, 77, 64
1, 153228, Note_on_c, 4, 63, 127
1, 153376, Note_off_c, 4, 63, 64
1, 153377, Note_on_c, 4, 65, 127
1, 153426, Note_off_c, 4, 65, 64
1, 153427, Note_on_c, 4, 62, 127
1, 153518, Note_off_c, 4, 62, 64
1, 153525, Note_on_c, 4, 60, 127
1, 153617, Note_off_c, 4, 60, 64
1, 153625, Note_on_c, 1, 87, 104
1, 153625, Note_on_c, 1, 81, 102
1, 153626, Note_on_c, 4, 60, 127
1, 153799, Note_off_c, 4, 60, 64
1, 153799, Note_off_c, 1, 81, 64
1, 153800, Note_off_c, 1, 87, 64
1, 153823, Note_on_c, 1, 87, 104
1, 153823, Note_on_c, 1, 81, 102
1, 153824, Note_on_c, 4, 60, 127
1, 153998, Note_off_c, 1, 81, 64
1, 153998, Note_off_c, 4, 60, 64
1, 153999, Note_off_c, 1, 87, 64
1, 154021, Note_on_c, 1, 86, 104
1, 154022, Note_on_c, 1, 82, 102
1, 154022, Note_on_c, 4, 58, 127
1, 154317, Note_off_c, 1, 86, 64
1, 154317, Note_off_c, 4, 58, 64
1, 154317, Note_off_c, 1, 82, 64
1, 154413, Note_on_c, 2, 74, 118
1, 154413, Note_on_c, 4, 58, 127
1, 154555, Note_off_c, 4, 58, 64
1, 154555, Note_off_c, 2, 74, 64
1, 154556, Note_on_c, 2, 75, 118
1, 154556, Note_on_c, 4, 60, 127
1, 154600, Note_on_c, 2, 77, 118
1, 154600, Note_on_c, 4, 62, 127
1, 154601, Note_on_c, 4, 53, 127
1, 154608, Note_off_c, 4, 60, 64
1, 154608, Note_off_c, 2, 75, 64
1, 154690, Note_on_c, 1, 79, 117
1, 154691, Note_on_c, 4, 63, 127
1, 154700, Note_off_c, 4, 62, 64
1, 154700, Note_off_c, 2, 77, 64
1, 154782, Note_on_c, 2, 75, 118
1, 154783, Note_on_c, 4, 60, 127
1, 154792, Note_off_c, 4, 63, 64
1, 154793, Note_off_c, 1, 79, 64
1, 154878, Note_on_c, 2, 72, 118
1, 154879, Note_on_c, 4, 57, 127
1, 154889, Note_off_c, 2, 75, 64
1, 154889, Note_off_c, 4, 60, 64
1, 154971, Note_on_c, 2, 74, 118
1, 154972, Note_on_c, 4, 58, 127
1, 154982, Note_off_c, 4, 57, 64
1, 154982, Note_off_c, 2, 72, 64
1, 155064, Note_on_c, 2, 75, 118
1, 155065, Note_on_c, 4, 60, 127
1, 155075, Note_off_c, 4, 58, 64
1, 155076, Note_off_c, 2, 74, 64
1, 155156, Note_on_c, 2, 77, 118
1, 155156, Note_on_c, 4, 62, 127
1, 155165, Note_off_c, 4, 60, 64
1, 155166, Note_off_c, 2, 75, 64
1, 155245, Note_on_c, 1, 79, 117
1, 155245, Note_on_c, 4, 63, 127
1, 155255, Note_off_c, 4, 62, 64
1, 155255, Note_off_c, 2, 77, 64
1, 155336, Note_on_c, 2, 75, 118
1, 155337, Note_on_c, 4, 60, 127
1, 155346, Note_off_c, 4, 63, 64
1, 155346, Note_off_c, 1, 79, 64
1, 155430, Note_on_c, 2, 72, 118
1, 155431, Note_on_c, 4, 57, 127
1, 155441, Note_off_c, 4, 60, 64
1, 155441, Note_off_c, 2, 75, 64
1, 155525, Note_on_c, 2, 74, 118
1, 155526, Note_on_c, 4, 58, 127
1, 155536, Note_off_c, 2, 72, 64
1, 155536, Note_off_c, 4, 57, 64
1, 155619, Note_on_c, 2, 75, 118
1, 155620, Note_on_c, 4, 60, 127
1, 155629, Note_off_c, 4, 58, 64
1, 155629, Note_off_c, 2, 74, 64
1, 155711, Note_on_c, 4, 62, 127
1, 155711, Note_on_c, 2, 77, 118
1, 155721, Note_off_c, 4, 60, 64
1, 155722, Note_off_c, 2, 75, 64
1, 155802, Note_on_c, 1, 87, 119
1, 155812, Note_off_c, 2, 77, 64
1, 155896, Note_on_c, 1, 86, 119
1, 155906, Note_off_c, 1, 87, 64
1, 155929, Note_off_c, 4, 53, 64
1, 155988, Note_on_c, 1, 84, 119
1, 155998, Note_off_c, 1, 86, 64
1, 156080, Note_on_c, 1, 82, 117
1, 156090, Note_off_c, 1, 84, 64
1, 156171, Note_on_c, 1, 81, 117
1, 156182, Note_off_c, 1, 82, 64
1, 156266, Note_on_c, 1, 79, 117
1, 156277, Note_off_c, 1, 81, 64
1, 156360, Note_on_c, 2, 77, 118
1, 156371, Note_off_c, 1, 79, 64
1, 156455, Note_on_c, 2, 76, 118
1, 156464, Note_off_c, 2, 77, 64
1, 156548, Note_on_c, 2, 75, 118
1, 156557, Note_off_c, 2, 76, 64
1, 156640, Note_on_c, 2, 74, 118
1, 156649, Note_off_c, 2, 75, 64
1, 156732, Note_on_c, 2, 72, 118
1, 156742, Note_off_c, 2, 74, 64
1, 156825, Note_on_c, 2, 77, 118
1, 156835, Note_off_c, 2, 72, 64
1, 156966, Note_off_c, 2, 77, 64
1, 156966, Note_on_c, 1, 79, 117
1, 156989, Note_off_c, 4, 62, 64
1, 157014, Note_on_c, 2, 70, 119
1, 157014, Note_on_c, 4, 65, 127
1, 157015, Note_on_c, 4, 62, 127
1, 157015, Note_on_c, 4, 53, 127
1, 157021, Note_off_c, 1, 79, 64
1, 157182, Note_off_c, 4, 53, 64
1, 157182, Note_off_c, 4, 62, 64
1, 157183, Note_off_c, 4, 65, 64
1, 157183, Note_off_c, 2, 70, 64
1, 157206, Note_on_c, 2, 69, 119
1, 157206, Note_on_c, 4, 63, 127
1, 157207, Note_on_c, 4, 60, 127
1, 157207, Note_on_c, 4, 53, 127
1, 157375, Note_off_c, 4, 53, 64
1, 157375, Note_off_c, 4, 60, 64
1, 157376, Note_off_c, 4, 63, 64
1, 157376, Note_off_c, 2, 69, 64
1, 157400, Note_on_c, 2, 70, 119
1, 157400, Note_on_c, 4, 62, 127
1, 157401, Note_on_c, 4, 58, 127
1, 157592, Note_on_c, 4, 46, 127
1, 157642, Note_off_c, 4, 62, 64
1, 157642, Note_off_c, 4, 58, 64
1, 157643, Note_off_c, 2, 70, 64
1, 157787, Note_on_c, 1, 79, 117
1, 157787, Note_on_c, 2, 75, 118
1, 157983, Note_off_c, 2, 75, 64
1, 157984, Note_off_c, 1, 79, 64
1, 157984, Note_on_c, 2, 77, 118
1, 157985, Note_on_c, 2, 74, 118
1, 158178, Note_off_c, 2, 74, 64
1, 158179, Note_off_c, 2, 77, 64
1, 158179, Note_on_c, 2, 70, 119
1, 158371, Note_off_c, 2, 70, 64
1, 158371, Note_on_c, 1, 81, 117
1, 158372, Note_on_c, 2, 75, 118
1, 158571, Note_off_c, 1, 81, 64
1, 158571, Note_off_c, 2, 75, 64
1, 158572, Note_on_c, 1, 82, 117
1, 158572, Note_on_c, 2, 74, 118
1, 158766, Note_on_c, 4, 58, 127
1, 158774, Note_off_c, 4, 46, 64
1, 158815, Note_off_c, 2, 74, 64
1, 158816, Note_off_c, 1, 82, 64
1, 158965, Note_off_c, 4, 58, 64
1, 158965, Note_on_c, 4, 55, 127
1, 158965, Note_on_c, 2, 74, 118
1, 159114, Note_off_c, 2, 74, 64
1, 159114, Note_on_c, 2, 70, 119
1, 159166, Note_off_c, 4, 55, 64
1, 159166, Note_on_c, 2, 75, 118
1, 159167, Note_on_c, 4, 67, 121
1, 159167, Note_on_c, 4, 51, 127
1, 159174, Note_off_c, 2, 70, 64
1, 159368, Note_off_c, 4, 51, 64
1, 159369, Note_on_c, 4, 48, 127
1, 159484, Note_off_c, 4, 67, 64
1, 159485, Note_off_c, 2, 75, 64
1, 159567, Note_off_c, 4, 48, 64
1, 159567, Note_on_c, 2, 72, 118
1, 159568, Note_on_c, 4, 63, 127
1, 159568, Note_on_c, 4, 53, 127
1, 159716, Note_off_c, 2, 72, 64
1, 159716, Note_off_c, 4, 63, 64
1, 159717, Note_on_c, 2, 69, 119
1, 159768, Note_off_c, 4, 53, 64
1, 159768, Note_on_c, 2, 70, 119
1, 159768, Note_on_c, 4, 62, 127
1, 159769, Note_on_c, 4, 58, 127
1, 159776, Note_off_c, 2, 69, 64
1, 159976, Note_off_c, 4, 62, 64
1, 159976, Note_off_c, 4, 58, 64
1, 159977, Note_off_c, 2, 70, 64
1, 159977, Note_on_c, 4, 46, 127
1, 160307, Note_on_c, 2, 70, 119
1, 160374, Note_on_c, 2, 72, 118
1, 160382, Note_off_c, 2, 70, 64
1, 160429, Note_on_c, 2, 70, 119
1, 160441, Note_off_c, 2, 72, 64
1, 160481, Note_off_c, 2, 70, 64
1, 160481, Note_on_c, 2, 69, 119
1, 160535, Note_off_c, 2, 69, 64
1, 160542, Note_on_c, 2, 70, 119
1, 160544, Note_on_c, 4, 63, 125
1, 160545, Note_on_c, 4, 67, 119
1, 160652, Note_on_c, 4, 58, 125
1, 160752, Note_off_c, 4, 63, 64
1, 160753, Note_off_c, 4, 67, 64
1, 160762, Note_on_c, 4, 67, 119
1, 160763, Note_on_c, 4, 63, 125
1, 160865, Note_off_c, 4, 58, 64
1, 160871, Note_on_c, 4, 58, 125
1, 160924, Note_off_c, 2, 70, 64
1, 160937, Note_on_c, 2, 70, 122
1, 160976, Note_off_c, 4, 63, 64
1, 160977, Note_off_c, 4, 67, 64
1, 160987, Note_on_c, 2, 75, 121
1, 160987, Note_on_c, 4, 67, 119
1, 160988, Note_on_c, 4, 63, 125
1, 160990, Note_off_c, 4, 46, 64
1, 160997, Note_off_c, 2, 70, 64
1, 161090, Note_off_c, 4, 58, 64
1, 161096, Note_on_c, 4, 58, 125
1, 161152, Note_off_c, 2, 75, 64
1, 161155, Note_on_c, 2, 75, 121
1, 161196, Note_off_c, 4, 67, 64
1, 161196, Note_off_c, 4, 63, 64
1, 161199, Note_off_c, 2, 75, 64
1, 161204, Note_on_c, 2, 75, 121
1, 161207, Note_on_c, 2, 68, 119
1, 161208, Note_on_c, 4, 65, 125
1, 161306, Note_off_c, 4, 58, 64
1, 161313, Note_on_c, 4, 58, 125
1, 161414, Note_off_c, 2, 68, 64
1, 161415, Note_off_c, 4, 65, 64
1, 161421, Note_off_c, 2, 75, 64
1, 161424, Note_on_c, 2, 74, 121
1, 161425, Note_on_c, 2, 68, 119
1, 161425, Note_on_c, 4, 65, 125
1, 161531, Note_off_c, 4, 58, 64
1, 161536, Note_on_c, 4, 58, 125
1, 161579, Note_off_c, 2, 74, 64
1, 161635, Note_off_c, 4, 65, 64
1, 161636, Note_off_c, 2, 68, 64
1, 161644, Note_on_c, 2, 70, 119
1, 161645, Note_on_c, 2, 68, 119
1, 161645, Note_on_c, 4, 65, 125
1, 161701, Note_on_c, 2, 72, 118
1, 161711, Note_off_c, 2, 70, 64
1, 161751, Note_on_c, 2, 70, 119
1, 161755, Note_off_c, 4, 58, 64
1, 161761, Note_on_c, 4, 58, 125
1, 161767, Note_off_c, 2, 72, 64
1, 161803, Note_off_c, 2, 70, 64
1, 161808, Note_on_c, 2, 69, 119
1, 161859, Note_off_c, 2, 69, 64
1, 161861, Note_off_c, 4, 65, 64
1, 161861, Note_off_c, 2, 68, 64
1, 161868, Note_on_c, 2, 70, 119
1, 161869, Note_on_c, 4, 63, 125
1, 161870, Note_on_c, 4, 67, 119
1, 161967, Note_off_c, 4, 58, 64
1, 161973, Note_on_c, 4, 58, 125
1, 162071, Note_off_c, 4, 63, 64
1, 162072, Note_off_c, 4, 67, 64
1, 162081, Note_on_c, 4, 67, 119
1, 162081, Note_on_c, 4, 63, 125
1, 162183, Note_off_c, 4, 58, 64
1, 162189, Note_on_c, 4, 58, 125
1, 162225, Note_off_c, 2, 70, 64
1, 162236, Note_on_c, 2, 70, 119
1, 162291, Note_off_c, 4, 63, 64
1, 162291, Note_off_c, 4, 67, 64
1, 162298, Note_on_c, 1, 79, 117
1, 162300, Note_on_c, 4, 67, 119
1, 162300, Note_on_c, 4, 63, 125
1, 162310, Note_off_c, 2, 70, 64
1, 162404, Note_off_c, 4, 58, 64
1, 162410, Note_on_c, 4, 58, 125
1, 162456, Note_off_c, 1, 79, 64
1, 162468, Note_on_c, 1, 79, 117
1, 162514, Note_off_c, 4, 67, 64
1, 162515, Note_off_c, 4, 63, 64
1, 162522, Note_on_c, 1, 82, 117
1, 162524, Note_on_c, 4, 65, 125
1, 162525, Note_on_c, 4, 62, 125
1, 162534, Note_off_c, 1, 79, 64
1, 162627, Note_off_c, 4, 58, 64
1, 162633, Note_on_c, 4, 58, 125
1, 162735, Note_off_c, 4, 62, 64
1, 162736, Note_off_c, 4, 65, 64
1, 162741, Note_on_c, 1, 80, 117
1, 162742, Note_off_c, 1, 82, 64
1, 162743, Note_on_c, 4, 65, 125
1, 162744, Note_on_c, 4, 62, 125
1, 162847, Note_off_c, 4, 58, 64
1, 162852, Note_on_c, 4, 58, 125
1, 162954, Note_off_c, 4, 65, 64
1, 162955, Note_off_c, 4, 62, 64
1, 162956, Note_off_c, 1, 80, 64
1, 162963, Note_on_c, 1, 80, 117
1, 162963, Note_on_c, 4, 65, 125
1, 162965, Note_on_c, 4, 62, 125
1, 163015, Note_on_c, 1, 82, 117
1, 163028, Note_off_c, 1, 80, 64
1, 163070, Note_off_c, 4, 58, 64
1, 163073, Note_on_c, 1, 80, 117
1, 163075, Note_on_c, 4, 58, 125
1, 163080, Note_off_c, 1, 82, 64
1, 163128, Note_on_c, 2, 77, 114
1, 163137, Note_off_c, 1, 80, 64
1, 163177, Note_off_c, 4, 65, 64
1, 163179, Note_off_c, 4, 62, 64
1, 163185, Note_on_c, 1, 79, 113
1, 163187, Note_on_c, 4, 63, 125
1, 163192, Note_off_c, 2, 77, 64
1, 163198, Note_off_c, 4, 58, 64
1, 163236, Note_on_c, 1, 80, 113
1, 163249, Note_off_c, 1, 79, 64
1, 163287, Note_on_c, 1, 79, 113
1, 163301, Note_off_c, 1, 80, 64
1, 163342, Note_on_c, 2, 75, 118
1, 163352, Note_off_c, 1, 79, 64
1, 163406, Note_on_c, 1, 82, 113
1, 163426, Note_off_c, 2, 75, 64
1, 163480, Note_on_c, 1, 80, 113
1, 163491, Note_off_c, 1, 82, 64
1, 163546, Note_on_c, 1, 79, 113
1, 163560, Note_off_c, 1, 80, 64
1, 163615, Note_on_c, 2, 77, 114
1, 163624, Note_on_c, 4, 55, 127
1, 163624, Note_on_c, 4, 43, 127
1, 163625, Note_off_c, 1, 79, 64
1, 163626, Note_off_c, 4, 63, 64
1, 163686, Note_on_c, 2, 75, 118
1, 163695, Note_off_c, 2, 77, 64
1, 163756, Note_on_c, 2, 73, 118
1, 163765, Note_off_c, 2, 75, 64
1, 163823, Note_on_c, 2, 72, 118
1, 163836, Note_off_c, 2, 73, 64
1, 163836, Note_off_c, 4, 55, 64
1, 163837, Note_off_c, 4, 43, 64
1, 163837, Note_on_c, 4, 56, 127
1, 163838, Note_on_c, 4, 44, 127
1, 163884, Note_on_c, 2, 73, 118
1, 163885, Note_off_c, 2, 72, 64
1, 163940, Note_on_c, 2, 72, 118
1, 163948, Note_off_c, 2, 73, 64
1, 163991, Note_on_c, 2, 68, 119
1, 164004, Note_off_c, 2, 72, 64
1, 164075, Note_on_c, 1, 84, 115
1, 164101, Note_off_c, 2, 68, 64
1, 164138, Note_off_c, 1, 84, 64
1, 164138, Note_on_c, 1, 82, 113
1, 164206, Note_off_c, 1, 82, 64
1, 164210, Note_on_c, 1, 80, 113
1, 164262, Note_off_c, 4, 56, 64
1, 164263, Note_off_c, 4, 44, 64
1, 164263, Note_on_c, 4, 61, 127
1, 164264, Note_on_c, 4, 58, 127
1, 164278, Note_on_c, 1, 79, 113
1, 164280, Note_off_c, 1, 80, 64
1, 164344, Note_on_c, 2, 77, 114
1, 164348, Note_off_c, 1, 79, 64
1, 164410, Note_on_c, 2, 76, 114
1, 164415, Note_off_c, 2, 77, 64
1, 164466, Note_off_c, 4, 61, 64
1, 164467, Note_off_c, 4, 58, 64
1, 164474, Note_on_c, 2, 77, 114
1, 164475, Note_on_c, 4, 60, 127
1, 164475, Note_on_c, 4, 56, 127
1, 164483, Note_off_c, 2, 76, 64
1, 164529, Note_on_c, 1, 79, 113
1, 164542, Note_off_c, 2, 77, 64
1, 164576, Note_on_c, 2, 77, 114
1, 164585, Note_off_c, 1, 79, 64
1, 164628, Note_on_c, 2, 72, 118
1, 164630, Note_off_c, 2, 77, 64
1, 164688, Note_on_c, 1, 84, 115
1, 164721, Note_off_c, 2, 72, 64
1, 164763, Note_on_c, 1, 82, 113
1, 164782, Note_off_c, 1, 84, 64
1, 164830, Note_on_c, 1, 80, 113
1, 164851, Note_off_c, 1, 82, 64
1, 164914, Note_on_c, 1, 79, 113
1, 164915, Note_off_c, 4, 60, 64
1, 164916, Note_off_c, 4, 56, 64
1, 164916, Note_on_c, 4, 63, 127
1, 164917, Note_on_c, 4, 57, 127
1, 164919, Note_off_c, 1, 80, 64
1, 164970, Note_on_c, 4, 65, 127
1, 164985, Note_on_c, 2, 77, 114
1, 164988, Note_off_c, 1, 79, 64
1, 164998, Note_off_c, 4, 63, 64
1, 165048, Note_on_c, 4, 67, 125
1, 165049, Note_on_c, 2, 75, 118
1, 165052, Note_off_c, 4, 65, 64
1, 165058, Note_off_c, 2, 77, 64
1, 165114, Note_off_c, 4, 67, 64
1, 165122, Note_off_c, 2, 75, 64
1, 165126, Note_on_c, 2, 75, 118
1, 165127, Note_on_c, 4, 67, 125
1, 165129, Note_on_c, 4, 58, 127
1, 165130, Note_off_c, 4, 57, 64
1, 165336, Note_off_c, 2, 75, 64
1, 165337, Note_off_c, 4, 67, 64
1, 165352, Note_on_c, 2, 74, 118
1, 165357, Note_on_c, 4, 65, 127
1, 165559, Note_off_c, 4, 58, 64
1, 165562, Note_off_c, 2, 74, 64
1, 165577, Note_on_c, 4, 58, 125
1, 165578, Note_on_c, 2, 77, 105
1, 165633, Note_on_c, 1, 79, 104
1, 165644, Note_off_c, 2, 77, 64
1, 165672, Note_off_c, 4, 65, 64
1, 165687, Note_on_c, 2, 77, 105
1, 165691, Note_on_c, 4, 65, 125
1, 165699, Note_off_c, 1, 79, 64
1, 165742, Note_on_c, 2, 74, 109
1, 165748, Note_off_c, 2, 77, 64
1, 165788, Note_off_c, 2, 74, 64
1, 165795, Note_off_c, 4, 58, 64
1, 165795, Note_on_c, 2, 75, 109
1, 165796, Note_on_c, 4, 60, 125
1, 165892, Note_off_c, 4, 65, 64
1, 165902, Note_on_c, 4, 65, 125
1, 166004, Note_off_c, 2, 75, 64
1, 166014, Note_off_c, 4, 60, 64
1, 166014, Note_on_c, 2, 72, 109
1, 166015, Note_on_c, 4, 63, 125
1, 166116, Note_off_c, 4, 65, 64
1, 166126, Note_on_c, 4, 65, 125
1, 166224, Note_on_c, 1, 81, 104
1, 166228, Note_off_c, 2, 72, 64
1, 166228, Note_off_c, 4, 63, 64
1, 166237, Note_on_c, 4, 63, 125
1, 166279, Note_on_c, 1, 82, 104
1, 166290, Note_off_c, 1, 81, 64
1, 166338, Note_on_c, 1, 81, 104
1, 166341, Note_off_c, 4, 65, 64
1, 166343, Note_off_c, 1, 82, 64
1, 166349, Note_on_c, 4, 65, 125
1, 166393, Note_on_c, 2, 77, 105
1, 166399, Note_off_c, 1, 81, 64
1, 166449, Note_on_c, 1, 82, 104
1, 166455, Note_off_c, 2, 77, 64
1, 166456, Note_off_c, 4, 63, 64
1, 166456, Note_on_c, 4, 62, 125
1, 166557, Note_off_c, 4, 65, 64
1, 166567, Note_on_c, 4, 65, 125
1, 166633, Note_off_c, 1, 82, 64
1, 166664, Note_on_c, 1, 86, 106
1, 166677, Note_off_c, 4, 62, 64
1, 166677, Note_on_c, 4, 58, 125
1, 166748, Note_off_c, 4, 65, 64
1, 166757, Note_on_c, 4, 65, 125
1, 166884, Note_off_c, 1, 86, 64
1, 166884, Note_off_c, 4, 58, 64
1, 166884, Note_on_c, 2, 77, 105
1, 166895, Note_on_c, 4, 58, 125
1, 166942, Note_on_c, 1, 79, 104
1, 166949, Note_off_c, 2, 77, 64
1, 166969, Note_off_c, 4, 65, 64
1, 166979, Note_on_c, 4, 65, 125
1, 166992, Note_on_c, 2, 77, 105
1, 167004, Note_off_c, 1, 79, 64
1, 167038, Note_on_c, 2, 74, 109
1, 167050, Note_off_c, 2, 77, 64
1, 167096, Note_off_c, 2, 74, 64
1, 167102, Note_on_c, 2, 75, 109
1, 167104, Note_on_c, 4, 60, 125
1, 167107, Note_off_c, 4, 58, 64
1, 167196, Note_off_c, 4, 65, 64
1, 167214, Note_on_c, 4, 65, 125
1, 167308, Note_on_c, 2, 72, 109
1, 167312, Note_off_c, 2, 75, 64
1, 167322, Note_off_c, 4, 60, 64
1, 167323, Note_on_c, 4, 63, 125
1, 167419, Note_off_c, 4, 65, 64
1, 167428, Note_on_c, 4, 65, 125
1, 167513, Note_off_c, 2, 72, 64
1, 167528, Note_off_c, 4, 63, 64
1, 167532, Note_on_c, 1, 81, 104
1, 167536, Note_on_c, 4, 63, 125
1, 167580, Note_on_c, 1, 82, 104
1, 167598, Note_off_c, 1, 81, 64
1, 167630, Note_on_c, 1, 81, 104
1, 167637, Note_off_c, 4, 65, 64
1, 167643, Note_off_c, 1, 82, 64
1, 167646, Note_on_c, 4, 65, 125
1, 167681, Note_on_c, 2, 77, 105
1, 167692, Note_off_c, 1, 81, 64
1, 167739, Note_on_c, 1, 82, 104
1, 167744, Note_off_c, 2, 77, 64
1, 167744, Note_off_c, 4, 63, 64
1, 167753, Note_on_c, 4, 62, 125
1, 167849, Note_off_c, 4, 65, 64
1, 167858, Note_on_c, 4, 65, 125
1, 167915, Note_off_c, 1, 82, 64
1, 167943, Note_on_c, 1, 86, 110
1, 167956, Note_off_c, 4, 62, 64
1, 167965, Note_on_c, 4, 58, 127
1, 168065, Note_off_c, 4, 65, 64
1, 168163, Note_off_c, 1, 86, 64
1, 168174, Note_on_c, 1, 84, 110
1, 168231, Note_on_c, 1, 82, 108
1, 168239, Note_off_c, 1, 84, 64
1, 168283, Note_on_c, 1, 81, 108
1, 168292, Note_off_c, 1, 82, 64
1, 168336, Note_on_c, 1, 79, 108
1, 168347, Note_off_c, 1, 81, 64
1, 168392, Note_off_c, 1, 79, 64
1, 168397, Note_on_c, 1, 79, 108
1, 168514, Note_on_c, 2, 77, 109
1, 168517, Note_off_c, 1, 79, 64
1, 168601, Note_off_c, 4, 58, 64
1, 168612, Note_off_c, 2, 77, 64
1, 168618, Note_on_c, 2, 77, 109
1, 168619, Note_on_c, 4, 50, 127
1, 168620, Note_on_c, 4, 58, 127
1, 168828, Note_off_c, 2, 77, 64
1, 168829, Note_off_c, 4, 50, 64
1, 168830, Note_off_c, 4, 58, 64
1, 168838, Note_on_c, 4, 58, 127
1, 168838, Note_on_c, 4, 50, 127
1, 168846, Note_on_c, 1, 79, 108
1, 168900, Note_on_c, 2, 77, 109
1, 168912, Note_off_c, 1, 79, 64
1, 168949, Note_on_c, 2, 75, 109
1, 168961, Note_off_c, 2, 77, 64
1, 168995, Note_on_c, 2, 74, 109
1, 169011, Note_off_c, 2, 75, 64
1, 169039, Note_off_c, 2, 74, 64
1, 169050, Note_on_c, 2, 74, 109
1, 169150, Note_off_c, 2, 74, 64
1, 169157, Note_on_c, 2, 72, 109
1, 169256, Note_off_c, 2, 72, 64
1, 169267, Note_off_c, 4, 50, 64
1, 169267, Note_off_c, 4, 58, 64
1, 169269, Note_on_c, 2, 72, 109
1, 169270, Note_on_c, 4, 51, 127
1, 169271, Note_on_c, 4, 58, 127
1, 169491, Note_off_c, 2, 72, 64
1, 169492, Note_off_c, 4, 51, 64
1, 169493, Note_off_c, 4, 58, 64
1, 169499, Note_on_c, 2, 72, 109
1, 169500, Note_on_c, 4, 58, 127
1, 169500, Note_on_c, 4, 52, 127
1, 169706, Note_off_c, 4, 58, 64
1, 169712, Note_on_c, 4, 53, 127
1, 169712, Note_on_c, 4, 58, 127
1, 169713, Note_on_c, 2, 74, 109
1, 169714, Note_off_c, 4, 52, 64
1, 169715, Note_off_c, 2, 72, 64
1, 169768, Note_on_c, 4, 60, 127
1, 169770, Note_on_c, 2, 75, 109
1, 169775, Note_off_c, 4, 58, 64
1, 169776, Note_off_c, 2, 74, 64
1, 169815, Note_off_c, 4, 60, 64
1, 169816, Note_off_c, 2, 75, 64
1, 169817, Note_on_c, 2, 77, 109
1, 169818, Note_on_c, 4, 62, 127
1, 170149, Note_off_c, 2, 77, 64
1, 170150, Note_off_c, 4, 62, 64
1, 170160, Note_off_c, 4, 53, 64
1, 170161, Note_on_c, 2, 77, 109
1, 170162, Note_on_c, 4, 62, 127
1, 170162, Note_on_c, 4, 53, 127
1, 170219, Note_on_c, 4, 60, 127
1, 170220, Note_on_c, 2, 75, 109
1, 170228, Note_off_c, 4, 62, 64
1, 170228, Note_off_c, 2, 77, 64
1, 170273, Note_on_c, 4, 58, 127
1, 170274, Note_on_c, 2, 74, 109
1, 170281, Note_off_c, 4, 60, 64
1, 170282, Note_off_c, 2, 75, 64
1, 170327, Note_on_c, 4, 57, 127
1, 170328, Note_on_c, 2, 72, 118
1, 170336, Note_off_c, 4, 58, 64
1, 170337, Note_off_c, 2, 74, 64
1, 170375, Note_off_c, 4, 53, 64
1, 170385, Note_off_c, 2, 72, 64
1, 170386, Note_off_c, 4, 57, 64
1, 170386, Note_on_c, 2, 70, 119
1, 170387, Note_on_c, 4, 58, 127
1, 170597, Note_off_c, 2, 70, 64
1, 170598, Note_off_c, 4, 58, 64
1, 170606, Note_on_c, 4, 46, 127
1, 170825, Note_on_c, 2, 70, 119
1, 170894, Note_on_c, 2, 72, 118
1, 170903, Note_off_c, 2, 70, 64
1, 170949, Note_on_c, 2, 70, 119
1, 170962, Note_off_c, 2, 72, 64
1, 171001, Note_off_c, 2, 70, 64
1, 171002, Note_on_c, 2, 69, 119
1, 171056, Note_off_c, 2, 69, 64
1, 171066, Note_on_c, 2, 70, 119
1, 171067, Note_off_c, 2, 70, 64
1, 171068, Note_on_c, 2, 70, 119
1, 171068, Note_on_c, 4, 63, 125
1, 171069, Note_on_c, 4, 67, 119
1, 171176, Note_on_c, 4, 58, 125
1, 171276, Note_off_c, 4, 63, 64
1, 171277, Note_off_c, 4, 67, 64
1, 171285, Note_on_c, 4, 67, 119
1, 171285, Note_on_c, 4, 63, 125
1, 171388, Note_off_c, 4, 58, 64
1, 171395, Note_on_c, 4, 58, 125
1, 171448, Note_off_c, 2, 70, 64
1, 171461, Note_on_c, 2, 70, 122
1, 171500, Note_off_c, 4, 63, 64
1, 171501, Note_off_c, 4, 67, 64
1, 171511, Note_on_c, 2, 75, 121
1, 171511, Note_on_c, 4, 67, 119
1, 171512, Note_on_c, 4, 63, 125
1, 171520, Note_off_c, 2, 70, 64
1, 171614, Note_off_c, 4, 58, 64
1, 171620, Note_on_c, 4, 58, 125
1, 171676, Note_off_c, 2, 75, 64
1, 171678, Note_on_c, 2, 75, 121
1, 171721, Note_off_c, 4, 67, 64
1, 171721, Note_off_c, 4, 63, 64
1, 171724, Note_off_c, 2, 75, 64
1, 171729, Note_off_c, 4, 46, 64
1, 171729, Note_on_c, 2, 75, 121
1, 171732, Note_on_c, 2, 68, 117
1, 171732, Note_on_c, 4, 65, 125
1, 171830, Note_off_c, 4, 58, 64
1, 171837, Note_on_c, 4, 58, 125
1, 171935, Note_off_c, 2, 68, 64
1, 171936, Note_off_c, 4, 65, 64
1, 171942, Note_off_c, 2, 75, 64
1, 171945, Note_on_c, 2, 74, 121
1, 171946, Note_on_c, 2, 68, 117
1, 171946, Note_on_c, 4, 65, 125
1, 172052, Note_off_c, 4, 58, 64
1, 172058, Note_on_c, 4, 58, 125
1, 172101, Note_off_c, 2, 74, 64
1, 172157, Note_off_c, 4, 65, 64
1, 172157, Note_off_c, 2, 68, 64
1, 172164, Note_on_c, 2, 70, 119
1, 172165, Note_on_c, 2, 68, 117
1, 172166, Note_on_c, 4, 65, 125
1, 172222, Note_on_c, 2, 72, 118
1, 172233, Note_off_c, 2, 70, 64
1, 172273, Note_on_c, 2, 70, 119
1, 172277, Note_off_c, 4, 58, 64
1, 172283, Note_on_c, 4, 58, 125
1, 172289, Note_off_c, 2, 72, 64
1, 172325, Note_off_c, 2, 70, 64
1, 172330, Note_on_c, 2, 69, 119
1, 172381, Note_off_c, 2, 69, 64
1, 172382, Note_off_c, 2, 68, 64
1, 172383, Note_off_c, 4, 65, 64
1, 172390, Note_on_c, 2, 70, 119
1, 172391, Note_on_c, 4, 63, 125
1, 172392, Note_on_c, 4, 67, 119
1, 172490, Note_off_c, 4, 58, 64
1, 172495, Note_on_c, 4, 58, 125
1, 172593, Note_off_c, 4, 63, 64
1, 172594, Note_off_c, 4, 67, 64
1, 172602, Note_on_c, 4, 67, 119
1, 172603, Note_on_c, 4, 63, 125
1, 172705, Note_off_c, 4, 58, 64
1, 172711, Note_on_c, 4, 58, 125
1, 172746, Note_off_c, 2, 70, 64
1, 172759, Note_on_c, 2, 70, 119
1, 172812, Note_off_c, 4, 63, 64
1, 172813, Note_off_c, 4, 67, 64
1, 172820, Note_on_c, 1, 79, 117
1, 172822, Note_on_c, 4, 67, 119
1, 172824, Note_on_c, 4, 63, 125
1, 172832, Note_off_c, 2, 70, 64
1, 172927, Note_off_c, 4, 58, 64
1, 172932, Note_on_c, 4, 58, 125
1, 172978, Note_off_c, 1, 79, 64
1, 172990, Note_on_c, 1, 79, 117
1, 173035, Note_off_c, 4, 67, 64
1, 173036, Note_off_c, 4, 63, 64
1, 173044, Note_on_c, 1, 82, 117
1, 173046, Note_on_c, 4, 65, 125
1, 173046, Note_on_c, 4, 62, 125
1, 173055, Note_off_c, 1, 79, 64
1, 173148, Note_off_c, 4, 58, 64
1, 173155, Note_on_c, 4, 58, 125
1, 173257, Note_off_c, 4, 62, 64
1, 173257, Note_off_c, 4, 65, 64
1, 173264, Note_on_c, 1, 80, 117
1, 173265, Note_off_c, 1, 82, 64
1, 173265, Note_on_c, 4, 65, 125
1, 173266, Note_on_c, 4, 62, 125
1, 173368, Note_off_c, 4, 58, 64
1, 173375, Note_on_c, 4, 58, 125
1, 173476, Note_off_c, 4, 65, 64
1, 173477, Note_off_c, 1, 80, 64
1, 173477, Note_off_c, 4, 62, 64
1, 173485, Note_on_c, 1, 80, 117
1, 173485, Note_on_c, 4, 65, 125
1, 173486, Note_on_c, 4, 62, 125
1, 173536, Note_on_c, 1, 82, 117
1, 173551, Note_off_c, 1, 80, 64
1, 173592, Note_off_c, 4, 58, 64
1, 173596, Note_on_c, 1, 80, 117
1, 173597, Note_on_c, 4, 58, 125
1, 173603, Note_off_c, 1, 82, 64
1, 173650, Note_on_c, 2, 77, 114
1, 173659, Note_off_c, 1, 80, 64
1, 173699, Note_off_c, 4, 65, 64
1, 173700, Note_off_c, 4, 62, 64
1, 173708, Note_on_c, 1, 79, 113
1, 173709, Note_on_c, 4, 63, 127
1, 173714, Note_off_c, 2, 77, 64
1, 173719, Note_off_c, 4, 58, 64
1, 173759, Note_on_c, 1, 80, 113
1, 173771, Note_off_c, 1, 79, 64
1, 173809, Note_on_c, 1, 79, 113
1, 173823, Note_off_c, 1, 80, 64
1, 173865, Note_on_c, 2, 75, 118
1, 173874, Note_off_c, 1, 79, 64
1, 173928, Note_on_c, 1, 82, 113
1, 173948, Note_off_c, 2, 75, 64
1, 174002, Note_on_c, 1, 80, 113
1, 174014, Note_off_c, 1, 82, 64
1, 174068, Note_on_c, 1, 79, 113
1, 174082, Note_off_c, 1, 80, 64
1, 174138, Note_on_c, 2, 77, 114
1, 174146, Note_on_c, 4, 55, 127
1, 174147, Note_on_c, 4, 43, 127
1, 174148, Note_off_c, 1, 79, 64
1, 174149, Note_off_c, 4, 63, 64
1, 174208, Note_on_c, 2, 75, 118
1, 174216, Note_off_c, 2, 77, 64
1, 174279, Note_on_c, 2, 73, 118
1, 174288, Note_off_c, 2, 75, 64
1, 174345, Note_on_c, 2, 72, 118
1, 174358, Note_off_c, 2, 73, 64
1, 174358, Note_off_c, 4, 55, 64
1, 174359, Note_off_c, 4, 43, 64
1, 174359, Note_on_c, 4, 56, 127
1, 174360, Note_on_c, 4, 44, 127
1, 174407, Note_on_c, 2, 73, 118
1, 174408, Note_off_c, 2, 72, 64
1, 174463, Note_on_c, 2, 72, 118
1, 174470, Note_off_c, 2, 73, 64
1, 174513, Note_on_c, 2, 68, 119
1, 174526, Note_off_c, 2, 72, 64
1, 174597, Note_on_c, 1, 84, 115
1, 174624, Note_off_c, 2, 68, 64
1, 174660, Note_off_c, 1, 84, 64
1, 174660, Note_on_c, 1, 82, 113
1, 174728, Note_off_c, 1, 82, 64
1, 174734, Note_on_c, 1, 80, 113
1, 174785, Note_off_c, 4, 56, 64
1, 174785, Note_on_c, 4, 61, 127
1, 174786, Note_off_c, 4, 44, 64
1, 174786, Note_on_c, 4, 58, 127
1, 174801, Note_on_c, 1, 79, 113
1, 174802, Note_off_c, 1, 80, 64
1, 174867, Note_on_c, 2, 77, 114
1, 174871, Note_off_c, 1, 79, 64
1, 174933, Note_on_c, 2, 76, 114
1, 174938, Note_off_c, 2, 77, 64
1, 174988, Note_off_c, 4, 61, 64
1, 174989, Note_off_c, 4, 58, 64
1, 174998, Note_on_c, 4, 60, 127
1, 174998, Note_on_c, 2, 77, 114
1, 174999, Note_on_c, 4, 56, 127
1, 175006, Note_off_c, 2, 76, 64
1, 175052, Note_on_c, 1, 79, 113
1, 175066, Note_off_c, 2, 77, 64
1, 175099, Note_on_c, 2, 77, 114
1, 175108, Note_off_c, 1, 79, 64
1, 175152, Note_on_c, 2, 72, 118
1, 175153, Note_off_c, 2, 77, 64
1, 175211, Note_on_c, 1, 84, 115
1, 175245, Note_off_c, 2, 72, 64
1, 175287, Note_on_c, 1, 82, 113
1, 175304, Note_off_c, 1, 84, 64
1, 175353, Note_on_c, 1, 80, 113
1, 175373, Note_off_c, 1, 82, 64
1, 175437, Note_on_c, 1, 79, 113
1, 175438, Note_off_c, 4, 60, 64
1, 175438, Note_on_c, 4, 63, 127
1, 175439, Note_off_c, 4, 56, 64
1, 175440, Note_on_c, 4, 57, 127
1, 175441, Note_off_c, 1, 80, 64
1, 175494, Note_on_c, 4, 65, 127
1, 175508, Note_on_c, 2, 77, 114
1, 175511, Note_off_c, 1, 79, 64
1, 175522, Note_off_c, 4, 63, 64
1, 175572, Note_on_c, 2, 75, 118
1, 175572, Note_on_c, 4, 67, 125
1, 175576, Note_off_c, 4, 65, 64
1, 175582, Note_off_c, 2, 77, 64
1, 175636, Note_off_c, 4, 67, 64
1, 175645, Note_off_c, 2, 75, 64
1, 175649, Note_on_c, 2, 75, 118
1, 175650, Note_on_c, 4, 67, 125
1, 175652, Note_on_c, 4, 58, 127
1, 175653, Note_off_c, 4, 57, 64
1, 175860, Note_off_c, 2, 75, 64
1, 175861, Note_off_c, 4, 67, 64
1, 175874, Note_on_c, 2, 74, 118
1, 175881, Note_on_c, 4, 65, 127
1, 176083, Note_off_c, 4, 58, 64
1, 176086, Note_off_c, 2, 74, 64
1, 176101, Note_on_c, 4, 58, 125
1, 176102, Note_on_c, 2, 77, 105
1, 176157, Note_on_c, 1, 79, 104
1, 176167, Note_off_c, 2, 77, 64
1, 176196, Note_off_c, 4, 65, 64
1, 176211, Note_on_c, 2, 77, 105
1, 176214, Note_on_c, 4, 65, 125
1, 176222, Note_off_c, 1, 79, 64
1, 176265, Note_on_c, 2, 74, 109
1, 176271, Note_off_c, 2, 77, 64
1, 176311, Note_off_c, 2, 74, 64
1, 176317, Note_on_c, 2, 75, 109
1, 176318, Note_off_c, 4, 58, 64
1, 176319, Note_on_c, 4, 60, 125
1, 176416, Note_off_c, 4, 65, 64
1, 176426, Note_on_c, 4, 65, 125
1, 176528, Note_off_c, 2, 75, 64
1, 176536, Note_on_c, 2, 72, 109
1, 176537, Note_off_c, 4, 60, 64
1, 176538, Note_on_c, 4, 63, 125
1, 176639, Note_off_c, 4, 65, 64
1, 176649, Note_on_c, 4, 65, 125
1, 176748, Note_on_c, 1, 81, 104
1, 176751, Note_off_c, 2, 72, 64
1, 176752, Note_off_c, 4, 63, 64
1, 176761, Note_on_c, 4, 63, 125
1, 176802, Note_on_c, 1, 82, 104
1, 176813, Note_off_c, 1, 81, 64
1, 176861, Note_on_c, 1, 81, 104
1, 176864, Note_off_c, 4, 65, 64
1, 176867, Note_off_c, 1, 82, 64
1, 176872, Note_on_c, 4, 65, 125
1, 176916, Note_on_c, 2, 77, 105
1, 176923, Note_off_c, 1, 81, 64
1, 176971, Note_on_c, 1, 82, 104
1, 176979, Note_off_c, 2, 77, 64
1, 176980, Note_off_c, 4, 63, 64
1, 176980, Note_on_c, 4, 62, 125
1, 177081, Note_off_c, 4, 65, 64
1, 177089, Note_on_c, 4, 65, 125
1, 177156, Note_off_c, 1, 82, 64
1, 177187, Note_on_c, 1, 86, 106
1, 177201, Note_off_c, 4, 62, 64
1, 177201, Note_on_c, 4, 58, 125
1, 177272, Note_off_c, 4, 65, 64
1, 177281, Note_on_c, 4, 65, 125
1, 177407, Note_off_c, 1, 86, 64
1, 177408, Note_off_c, 4, 58, 64
1, 177408, Note_on_c, 2, 77, 105
1, 177418, Note_on_c, 4, 58, 125
1, 177466, Note_on_c, 1, 79, 104
1, 177472, Note_off_c, 2, 77, 64
1, 177492, Note_off_c, 4, 65, 64
1, 177501, Note_on_c, 4, 65, 125
1, 177514, Note_on_c, 2, 77, 105
1, 177527, Note_off_c, 1, 79, 64
1, 177560, Note_on_c, 2, 74, 109
1, 177571, Note_off_c, 2, 77, 64
1, 177617, Note_off_c, 2, 74, 64
1, 177625, Note_on_c, 2, 75, 109
1, 177626, Note_on_c, 4, 60, 125
1, 177629, Note_off_c, 4, 58, 64
1, 177717, Note_off_c, 4, 65, 64
1, 177735, Note_on_c, 4, 65, 125
1, 177830, Note_on_c, 2, 72, 109
1, 177834, Note_off_c, 2, 75, 64
1, 177844, Note_off_c, 4, 60, 64
1, 177844, Note_on_c, 4, 63, 125
1, 177941, Note_off_c, 4, 65, 64
1, 177950, Note_on_c, 4, 65, 125
1, 178035, Note_off_c, 2, 72, 64
1, 178049, Note_off_c, 4, 63, 64
1, 178055, Note_on_c, 1, 81, 104
1, 178059, Note_on_c, 4, 63, 125
1, 178102, Note_on_c, 1, 82, 104
1, 178119, Note_off_c, 1, 81, 64
1, 178153, Note_on_c, 1, 81, 104
1, 178159, Note_off_c, 4, 65, 64
1, 178165, Note_off_c, 1, 82, 64
1, 178167, Note_on_c, 4, 65, 125
1, 178204, Note_on_c, 2, 77, 105
1, 178214, Note_off_c, 1, 81, 64
1, 178260, Note_on_c, 1, 82, 104
1, 178266, Note_off_c, 2, 77, 64
1, 178267, Note_off_c, 4, 63, 64
1, 178275, Note_on_c, 4, 62, 125
1, 178371, Note_off_c, 4, 65, 64
1, 178380, Note_on_c, 4, 65, 125
1, 178437, Note_off_c, 1, 82, 64
1, 178465, Note_on_c, 1, 86, 110
1, 178477, Note_off_c, 4, 62, 64
1, 178488, Note_on_c, 4, 58, 127
1, 178587, Note_off_c, 4, 65, 64
1, 178685, Note_off_c, 1, 86, 64
1, 178696, Note_on_c, 1, 84, 110
1, 178753, Note_on_c, 1, 82, 108
1, 178761, Note_off_c, 1, 84, 64
1, 178806, Note_on_c, 1, 81, 108
1, 178815, Note_off_c, 1, 82, 64
1, 178858, Note_on_c, 1, 79, 108
1, 178870, Note_off_c, 1, 81, 64
1, 178914, Note_off_c, 1, 79, 64
1, 178920, Note_on_c, 1, 79, 108
1, 179036, Note_on_c, 2, 77, 109
1, 179040, Note_off_c, 1, 79, 64
1, 179123, Note_off_c, 4, 58, 64
1, 179135, Note_off_c, 2, 77, 64
1, 179139, Note_on_c, 2, 77, 109
1, 179141, Note_on_c, 4, 50, 127
1, 179142, Note_on_c, 4, 58, 127
1, 179351, Note_off_c, 2, 77, 64
1, 179352, Note_off_c, 4, 50, 64
1, 179353, Note_off_c, 4, 58, 64
1, 179359, Note_on_c, 4, 58, 127
1, 179360, Note_on_c, 4, 50, 127
1, 179369, Note_on_c, 1, 79, 108
1, 179424, Note_on_c, 2, 77, 109
1, 179433, Note_off_c, 1, 79, 64
1, 179472, Note_on_c, 2, 75, 109
1, 179484, Note_off_c, 2, 77, 64
1, 179518, Note_on_c, 2, 74, 109
1, 179534, Note_off_c, 2, 75, 64
1, 179562, Note_off_c, 2, 74, 64
1, 179572, Note_on_c, 2, 74, 109
1, 179672, Note_off_c, 2, 74, 64
1, 179679, Note_on_c, 2, 72, 109
1, 179778, Note_off_c, 2, 72, 64
1, 179789, Note_off_c, 4, 50, 64
1, 179790, Note_off_c, 4, 58, 64
1, 179791, Note_on_c, 2, 72, 109
1, 179792, Note_on_c, 4, 51, 127
1, 179793, Note_on_c, 4, 58, 127
1, 180014, Note_off_c, 2, 72, 64
1, 180015, Note_off_c, 4, 51, 64
1, 180016, Note_off_c, 4, 58, 64
1, 180022, Note_on_c, 2, 72, 109
1, 180023, Note_on_c, 4, 58, 127
1, 180023, Note_on_c, 4, 52, 127
1, 180229, Note_off_c, 4, 58, 64
1, 180233, Note_on_c, 4, 58, 127
1, 180234, Note_on_c, 4, 53, 127
1, 180236, Note_on_c, 2, 74, 109
1, 180237, Note_off_c, 4, 52, 64
1, 180237, Note_off_c, 2, 72, 64
1, 180290, Note_on_c, 4, 60, 127
1, 180291, Note_on_c, 2, 75, 109
1, 180297, Note_off_c, 4, 58, 64
1, 180299, Note_off_c, 2, 74, 64
1, 180336, Note_off_c, 4, 60, 64
1, 180337, Note_off_c, 2, 75, 64
1, 180339, Note_on_c, 2, 77, 109
1, 180340, Note_on_c, 4, 62, 127
1, 180671, Note_off_c, 2, 77, 64
1, 180672, Note_off_c, 4, 62, 64
1, 180682, Note_off_c, 4, 53, 64
1, 180684, Note_on_c, 2, 77, 109
1, 180685, Note_on_c, 4, 62, 127
1, 180685, Note_on_c, 4, 53, 127
1, 180742, Note_on_c, 4, 60, 127
1, 180743, Note_on_c, 2, 75, 109
1, 180751, Note_off_c, 2, 77, 64
1, 180751, Note_off_c, 4, 62, 64
1, 180796, Note_on_c, 4, 58, 127
1, 180797, Note_on_c, 2, 74, 109
1, 180804, Note_off_c, 4, 60, 64
1, 180805, Note_off_c, 2, 75, 64
1, 180850, Note_on_c, 2, 72, 118
1, 180850, Note_on_c, 4, 57, 127
1, 180858, Note_off_c, 4, 58, 64
1, 180859, Note_off_c, 2, 74, 64
1, 180896, Note_off_c, 4, 53, 64
1, 180906, Note_off_c, 2, 72, 64
1, 180907, Note_off_c, 4, 57, 64
1, 180907, Note_on_c, 2, 70, 119
1, 180908, Note_on_c, 4, 58, 127
1, 181117, Note_off_c, 2, 70, 64
1, 181118, Note_off_c, 4, 58, 64
1, 181127, Note_on_c, 4, 46, 127
1, 181346, Note_on_c, 2, 70, 119
1, 181347, Note_on_c, 4, 62, 127
1, 181431, Note_off_c, 2, 70, 64
1, 181460, Note_on_c, 2, 70, 122
1, 181461, Note_on_c, 4, 58, 127
1, 181482, Note_off_c, 4, 62, 64
1, 181584, Note_off_c, 2, 70, 64
1, 181592, Note_on_c, 4, 63, 127
1, 181592, Note_on_c, 2, 71, 108
1, 181648, Note_off_c, 2, 71, 64
1, 181648, Note_on_c, 2, 72, 101
1, 181692, Note_off_c, 4, 58, 64
1, 181704, Note_on_c, 4, 58, 127
1, 181800, Note_off_c, 4, 63, 64
1, 181814, Note_on_c, 4, 63, 127
1, 181916, Note_off_c, 4, 58, 64
1, 181922, Note_on_c, 4, 58, 127
1, 182029, Note_off_c, 4, 63, 64
1, 182030, Note_on_c, 4, 65, 127
1, 182035, Note_on_c, 2, 74, 110
1, 182037, Note_off_c, 2, 72, 64
1, 182112, Note_off_c, 2, 74, 64
1, 182137, Note_off_c, 4, 58, 64
1, 182138, Note_on_c, 2, 74, 113
1, 182143, Note_on_c, 4, 58, 127
1, 182238, Note_off_c, 2, 74, 64
1, 182250, Note_on_c, 2, 74, 113
1, 182251, Note_on_c, 4, 67, 121
1, 182252, Note_off_c, 4, 65, 64
1, 182305, Note_off_c, 2, 74, 64
1, 182307, Note_on_c, 2, 75, 113
1, 182355, Note_off_c, 4, 58, 64
1, 182361, Note_on_c, 4, 58, 127
1, 182463, Note_off_c, 4, 67, 64
1, 182470, Note_on_c, 4, 67, 121
1, 182573, Note_off_c, 4, 58, 64
1, 182578, Note_on_c, 4, 58, 127
1, 182651, Note_off_c, 2, 75, 64
1, 182683, Note_on_c, 2, 77, 98
1, 182686, Note_off_c, 4, 67, 64
1, 182688, Note_on_c, 4, 62, 127
1, 182704, Note_off_c, 4, 46, 64
1, 182767, Note_off_c, 2, 77, 64
1, 182786, Note_on_c, 2, 77, 98
1, 182793, Note_off_c, 4, 58, 64
1, 182798, Note_on_c, 4, 58, 127
1, 182888, Note_off_c, 2, 77, 64
1, 182904, Note_on_c, 1, 78, 99
1, 182908, Note_on_c, 4, 63, 127
1, 182909, Note_off_c, 4, 62, 64
1, 182959, Note_off_c, 1, 78, 64
1, 182964, Note_on_c, 1, 79, 99
1, 183012, Note_off_c, 4, 58, 64
1, 183018, Note_on_c, 4, 58, 127
1, 183121, Note_off_c, 4, 63, 64
1, 183127, Note_on_c, 4, 63, 127
1, 183229, Note_off_c, 4, 58, 64
1, 183234, Note_on_c, 4, 58, 127
1, 183341, Note_off_c, 4, 63, 64
1, 183342, Note_off_c, 1, 79, 64
1, 183343, Note_on_c, 1, 81, 102
1, 183343, Note_on_c, 4, 60, 127
1, 183432, Note_off_c, 1, 81, 64
1, 183442, Note_on_c, 1, 81, 102
1, 183444, Note_off_c, 4, 58, 64
1, 183450, Note_on_c, 4, 58, 127
1, 183534, Note_off_c, 1, 81, 64
1, 183556, Note_on_c, 1, 81, 105
1, 183561, Note_on_c, 4, 62, 127
1, 183562, Note_off_c, 4, 60, 64
1, 183617, Note_on_c, 1, 82, 105
1, 183623, Note_off_c, 1, 81, 64
1, 183668, Note_off_c, 4, 58, 64
1, 183673, Note_on_c, 4, 58, 127
1, 183776, Note_off_c, 4, 62, 64
1, 183781, Note_on_c, 4, 65, 127
1, 183888, Note_on_c, 4, 62, 127
1, 183901, Note_off_c, 4, 65, 64
1, 183981, Note_off_c, 4, 58, 64
1, 184000, Note_on_c, 2, 70, 113
1, 184001, Note_on_c, 4, 58, 127
1, 184011, Note_off_c, 4, 62, 64
1, 184095, Note_off_c, 2, 70, 64
1, 184112, Note_on_c, 2, 70, 113
1, 184173, Note_off_c, 1, 82, 64
1, 184231, Note_on_c, 4, 59, 127
1, 184232, Note_on_c, 4, 47, 127
1, 184233, Note_off_c, 4, 58, 64
1, 184234, Note_on_c, 2, 75, 100
1, 184239, Note_off_c, 2, 70, 64
1, 184340, Note_on_c, 2, 77, 100
1, 184355, Note_off_c, 2, 75, 64
1, 184442, Note_on_c, 1, 78, 99
1, 184454, Note_off_c, 2, 77, 64
1, 184543, Note_on_c, 2, 77, 100
1, 184560, Note_off_c, 1, 78, 64
1, 184650, Note_on_c, 2, 75, 100
1, 184657, Note_off_c, 2, 77, 64
1, 184755, Note_on_c, 2, 74, 100
1, 184767, Note_off_c, 2, 75, 64
1, 184869, Note_on_c, 2, 75, 100
1, 184874, Note_off_c, 2, 74, 64
1, 184968, Note_on_c, 2, 77, 100
1, 184986, Note_off_c, 2, 75, 64
1, 185079, Note_on_c, 1, 78, 99
1, 185083, Note_off_c, 2, 77, 64
1, 185184, Note_on_c, 1, 79, 99
1, 185193, Note_off_c, 1, 78, 64
1, 185295, Note_on_c, 1, 80, 105
1, 185302, Note_off_c, 1, 79, 64
1, 185389, Note_off_c, 1, 80, 64
1, 185397, Note_on_c, 1, 81, 112
1, 185495, Note_off_c, 1, 81, 64
1, 185501, Note_off_c, 4, 47, 64
1, 185504, Note_off_c, 4, 59, 64
1, 185506, Note_on_c, 1, 82, 123
1, 185506, Note_on_c, 4, 46, 123
1, 185508, Note_on_c, 4, 58, 127
1, 185836, Note_off_c, 1, 82, 64
1, 185837, Note_off_c, 4, 46, 64
1, 185838, Note_off_c, 4, 58, 64
1, 185945, Note_on_c, 4, 67, 125
1, 185953, Note_on_c, 4, 58, 127
1, 185999, Note_on_c, 4, 59, 127
1, 186005, Note_on_c, 2, 68, 123
1, 186013, Note_off_c, 4, 67, 64
1, 186021, Note_off_c, 4, 58, 64
1, 186060, Note_on_c, 4, 67, 125
1, 186060, Note_on_c, 4, 58, 127
1, 186064, Note_off_c, 4, 59, 64
1, 186070, Note_off_c, 2, 68, 64
1, 186108, Note_on_c, 4, 57, 127
1, 186114, Note_on_c, 4, 65, 127
1, 186122, Note_off_c, 4, 58, 64
1, 186124, Note_off_c, 4, 67, 64
1, 186169, Note_on_c, 4, 58, 127
1, 186171, Note_on_c, 4, 67, 125
1, 186175, Note_off_c, 4, 57, 64
1, 186180, Note_off_c, 4, 65, 64
1, 186499, Note_off_c, 4, 58, 64
1, 186501, Note_off_c, 4, 67, 64
1, 186614, Note_on_c, 2, 70, 113
1, 186675, Note_on_c, 2, 72, 115
1, 186683, Note_off_c, 2, 70, 64
1, 186729, Note_on_c, 2, 70, 113
1, 186744, Note_off_c, 2, 72, 64
1, 186790, Note_on_c, 2, 69, 113
1, 186796, Note_off_c, 2, 70, 64
1, 186841, Note_on_c, 4, 67, 110
1, 186842, Note_on_c, 4, 63, 127
1, 186845, Note_on_c, 2, 70, 113
1, 186855, Note_off_c, 2, 69, 64
1, 186951, Note_on_c, 4, 58, 127
1, 187052, Note_off_c, 4, 67, 64
1, 187053, Note_off_c, 4, 63, 64
1, 187062, Note_on_c, 4, 67, 110
1, 187063, Note_on_c, 4, 63, 127
1, 187167, Note_off_c, 4, 58, 64
1, 187174, Note_on_c, 4, 58, 127
1, 187214, Note_off_c, 2, 70, 64
1, 187233, Note_on_c, 2, 70, 116
1, 187276, Note_off_c, 4, 67, 64
1, 187277, Note_off_c, 4, 63, 64
1, 187285, Note_on_c, 4, 67, 110
1, 187285, Note_on_c, 4, 63, 127
1, 187286, Note_off_c, 2, 70, 64
1, 187287, Note_on_c, 2, 75, 118
1, 187391, Note_off_c, 4, 58, 64
1, 187397, Note_on_c, 4, 58, 127
1, 187436, Note_off_c, 2, 75, 64
1, 187451, Note_on_c, 2, 75, 118
1, 187496, Note_off_c, 2, 75, 64
1, 187498, Note_off_c, 4, 67, 64
1, 187499, Note_off_c, 4, 63, 64
1, 187507, Note_on_c, 4, 65, 126
1, 187508, Note_on_c, 2, 75, 118
1, 187509, Note_on_c, 2, 68, 120
1, 187610, Note_off_c, 4, 58, 64
1, 187615, Note_on_c, 4, 58, 127
1, 187713, Note_off_c, 4, 65, 64
1, 187714, Note_off_c, 2, 68, 64
1, 187721, Note_on_c, 2, 74, 118
1, 187721, Note_on_c, 4, 65, 127
1, 187722, Note_off_c, 2, 75, 64
1, 187723, Note_on_c, 2, 68, 123
1, 187824, Note_off_c, 4, 58, 64
1, 187829, Note_on_c, 4, 58, 127
1, 187930, Note_off_c, 4, 65, 64
1, 187931, Note_off_c, 2, 68, 64
1, 187939, Note_off_c, 2, 74, 64
1, 187940, Note_on_c, 4, 65, 126
1, 187941, Note_on_c, 2, 68, 120
1, 187945, Note_on_c, 2, 70, 116
1, 188004, Note_on_c, 2, 72, 118
1, 188010, Note_off_c, 2, 70, 64
1, 188042, Note_off_c, 4, 58, 64
1, 188048, Note_on_c, 4, 58, 127
1, 188052, Note_on_c, 2, 70, 116
1, 188067, Note_off_c, 2, 72, 64
1, 188105, Note_on_c, 2, 69, 116
1, 188113, Note_off_c, 2, 70, 64
1, 188148, Note_off_c, 4, 65, 64
1, 188149, Note_off_c, 2, 68, 64
1, 188157, Note_on_c, 2, 70, 116
1, 188158, Note_on_c, 4, 63, 127
1, 188159, Note_on_c, 4, 67, 114
1, 188169, Note_off_c, 2, 69, 64
1, 188260, Note_off_c, 4, 58, 64
1, 188266, Note_on_c, 4, 58, 127
1, 188367, Note_off_c, 4, 63, 64
1, 188368, Note_off_c, 4, 67, 64
1, 188375, Note_on_c, 4, 67, 114
1, 188376, Note_on_c, 4, 63, 127
1, 188478, Note_off_c, 4, 58, 64
1, 188484, Note_on_c, 4, 58, 127
1, 188520, Note_off_c, 2, 70, 64
1, 188544, Note_on_c, 2, 70, 116
1, 188585, Note_off_c, 4, 67, 64
1, 188586, Note_off_c, 4, 63, 64
1, 188595, Note_on_c, 4, 67, 114
1, 188595, Note_on_c, 4, 63, 127
1, 188602, Note_on_c, 1, 79, 112
1, 188609, Note_off_c, 2, 70, 64
1, 188700, Note_off_c, 4, 58, 64
1, 188706, Note_on_c, 4, 58, 127
1, 188750, Note_off_c, 1, 79, 64
1, 188762, Note_on_c, 1, 79, 112
1, 188807, Note_off_c, 4, 67, 64
1, 188808, Note_off_c, 4, 63, 64
1, 188816, Note_on_c, 4, 62, 127
1, 188817, Note_on_c, 4, 65, 126
1, 188819, Note_on_c, 1, 82, 112
1, 188827, Note_off_c, 1, 79, 64
1, 188920, Note_off_c, 4, 58, 64
1, 188926, Note_on_c, 4, 58, 127
1, 189027, Note_off_c, 4, 62, 64
1, 189028, Note_off_c, 4, 65, 64
1, 189030, Note_off_c, 1, 82, 64
1, 189033, Note_on_c, 1, 80, 112
1, 189036, Note_on_c, 4, 62, 127
1, 189037, Note_on_c, 4, 65, 126
1, 189140, Note_off_c, 4, 58, 64
1, 189145, Note_on_c, 4, 58, 127
1, 189244, Note_off_c, 1, 80, 64
1, 189247, Note_off_c, 4, 62, 64
1, 189248, Note_off_c, 4, 65, 64
1, 189255, Note_on_c, 1, 80, 117
1, 189256, Note_on_c, 4, 65, 127
1, 189256, Note_on_c, 4, 62, 127
1, 189317, Note_on_c, 1, 82, 117
1, 189322, Note_off_c, 1, 80, 64
1, 189363, Note_off_c, 4, 58, 64
1, 189370, Note_on_c, 4, 58, 127
1, 189374, Note_on_c, 1, 80, 117
1, 189384, Note_off_c, 1, 82, 64
1, 189429, Note_on_c, 2, 77, 118
1, 189435, Note_off_c, 1, 80, 64
1, 189467, Note_off_c, 4, 62, 64
1, 189468, Note_off_c, 4, 65, 64
1, 189477, Note_on_c, 4, 63, 127
1, 189481, Note_on_c, 1, 79, 117
1, 189489, Note_off_c, 4, 58, 64
1, 189492, Note_off_c, 2, 77, 64
1, 189537, Note_on_c, 1, 80, 117
1, 189547, Note_off_c, 1, 79, 64
1, 189598, Note_on_c, 1, 79, 117
1, 189604, Note_off_c, 1, 80, 64
1, 189654, Note_on_c, 2, 75, 121
1, 189659, Note_off_c, 1, 79, 64
1, 189716, Note_on_c, 1, 82, 112
1, 189736, Note_off_c, 2, 75, 64
1, 189795, Note_on_c, 1, 80, 112
1, 189804, Note_off_c, 1, 82, 64
1, 189852, Note_on_c, 1, 79, 112
1, 189880, Note_off_c, 1, 80, 64
1, 189927, Note_on_c, 2, 77, 113
1, 189928, Note_on_c, 4, 55, 127
1, 189928, Note_on_c, 4, 43, 127
1, 189929, Note_off_c, 4, 63, 64
1, 189938, Note_off_c, 1, 79, 64
1, 190001, Note_on_c, 2, 75, 117
1, 190014, Note_off_c, 2, 77, 64
1, 190084, Note_off_c, 2, 75, 64
1, 190087, Note_on_c, 2, 73, 117
1, 190140, Note_off_c, 4, 43, 64
1, 190140, Note_off_c, 4, 55, 64
1, 190147, Note_off_c, 2, 73, 64
1, 190148, Note_on_c, 2, 72, 117
1, 190149, Note_on_c, 4, 56, 127
1, 190149, Note_on_c, 4, 44, 127
1, 190212, Note_off_c, 2, 72, 64
1, 190219, Note_on_c, 2, 73, 117
1, 190272, Note_on_c, 2, 72, 117
1, 190286, Note_off_c, 2, 73, 64
1, 190325, Note_on_c, 2, 68, 119
1, 190334, Note_off_c, 2, 72, 64
1, 190385, Note_on_c, 1, 84, 114
1, 190437, Note_off_c, 2, 68, 64
1, 190464, Note_on_c, 1, 82, 112
1, 190469, Note_off_c, 1, 84, 64
1, 190531, Note_on_c, 1, 80, 112
1, 190544, Note_off_c, 1, 82, 64
1, 190588, Note_off_c, 4, 44, 64
1, 190588, Note_off_c, 4, 56, 64
1, 190589, Note_on_c, 4, 61, 127
1, 190589, Note_on_c, 1, 79, 112
1, 190590, Note_on_c, 4, 58, 127
1, 190612, Note_off_c, 1, 80, 64
1, 190668, Note_on_c, 2, 77, 113
1, 190669, Note_off_c, 1, 79, 64
1, 190748, Note_on_c, 2, 76, 117
1, 190752, Note_off_c, 2, 77, 64
1, 190802, Note_off_c, 4, 61, 64
1, 190802, Note_off_c, 4, 58, 64
1, 190812, Note_on_c, 4, 60, 127
1, 190812, Note_on_c, 4, 56, 127
1, 190812, Note_on_c, 2, 77, 113
1, 190816, Note_off_c, 2, 76, 64
1, 190877, Note_on_c, 1, 79, 112
1, 190879, Note_off_c, 2, 77, 64
1, 190928, Note_on_c, 2, 77, 113
1, 190943, Note_off_c, 1, 79, 64
1, 190987, Note_on_c, 2, 72, 117
1, 190992, Note_off_c, 2, 77, 64
1, 191046, Note_on_c, 1, 84, 114
1, 191070, Note_off_c, 2, 72, 64
1, 191124, Note_on_c, 1, 82, 112
1, 191129, Note_off_c, 1, 84, 64
1, 191190, Note_on_c, 1, 80, 112
1, 191204, Note_off_c, 1, 82, 64
1, 191246, Note_off_c, 4, 56, 64
1, 191247, Note_off_c, 4, 60, 64
1, 191257, Note_on_c, 1, 79, 112
1, 191257, Note_on_c, 4, 57, 127
1, 191259, Note_on_c, 4, 63, 127
1, 191273, Note_off_c, 1, 80, 64
1, 191323, Note_on_c, 2, 77, 113
1, 191341, Note_off_c, 1, 79, 64
1, 191342, Note_on_c, 4, 65, 127
1, 191344, Note_off_c, 4, 63, 64
1, 191398, Note_on_c, 4, 67, 121
1, 191402, Note_on_c, 2, 75, 117
1, 191411, Note_off_c, 2, 77, 64
1, 191428, Note_off_c, 4, 65, 64
1, 191475, Note_off_c, 4, 67, 64
1, 191475, Note_off_c, 4, 57, 64
1, 191478, Note_off_c, 2, 75, 64
1, 191483, Note_on_c, 2, 75, 117
1, 191484, Note_on_c, 4, 58, 127
1, 191484, Note_on_c, 4, 67, 121
1, 191692, Note_off_c, 2, 75, 64
1, 191693, Note_off_c, 4, 67, 64
1, 191700, Note_on_c, 2, 74, 117
1, 191701, Note_on_c, 4, 65, 127
1, 191912, Note_off_c, 2, 74, 64
1, 191921, Note_on_c, 4, 51, 127
1, 191921, Note_on_c, 2, 70, 123
1, 191922, Note_off_c, 4, 58, 64
1, 191984, Note_on_c, 2, 72, 121
1, 191988, Note_off_c, 2, 70, 64
1, 192014, Note_off_c, 4, 65, 64
1, 192033, Note_on_c, 2, 70, 123
1, 192033, Note_on_c, 4, 58, 127
1, 192045, Note_off_c, 4, 51, 64
1, 192048, Note_off_c, 2, 72, 64
1, 192089, Note_on_c, 4, 67, 121
1, 192095, Note_off_c, 2, 70, 64
1, 192141, Note_on_c, 2, 68, 119
1, 192141, Note_on_c, 4, 53, 127
1, 192152, Note_off_c, 4, 58, 64
1, 192153, Note_off_c, 4, 67, 64
1, 192246, Note_on_c, 4, 58, 127
1, 192257, Note_off_c, 4, 53, 64
1, 192349, Note_on_c, 4, 65, 127
1, 192354, Note_off_c, 2, 68, 64
1, 192354, Note_on_c, 4, 56, 127
1, 192365, Note_off_c, 4, 58, 64
1, 192463, Note_on_c, 4, 58, 127
1, 192475, Note_off_c, 4, 56, 64
1, 192569, Note_off_c, 4, 65, 64
1, 192574, Note_on_c, 2, 74, 118
1, 192574, Note_on_c, 4, 56, 127
1, 192585, Note_off_c, 4, 58, 64
1, 192629, Note_on_c, 2, 75, 118
1, 192640, Note_off_c, 2, 74, 64
1, 192689, Note_on_c, 4, 58, 127
1, 192691, Note_on_c, 2, 74, 118
1, 192696, Note_off_c, 2, 75, 64
1, 192700, Note_off_c, 4, 56, 64
1, 192735, Note_on_c, 2, 70, 119
1, 192755, Note_off_c, 2, 74, 64
1, 192798, Note_on_c, 2, 75, 118
1, 192799, Note_off_c, 2, 70, 64
1, 192800, Note_on_c, 4, 55, 127
1, 192812, Note_off_c, 4, 58, 64
1, 192910, Note_on_c, 4, 58, 127
1, 192921, Note_off_c, 4, 55, 64
1, 193008, Note_off_c, 2, 75, 64
1, 193009, Note_on_c, 1, 79, 117
1, 193017, Note_on_c, 4, 51, 127
1, 193029, Note_off_c, 4, 58, 64
1, 193123, Note_on_c, 4, 58, 127
1, 193134, Note_off_c, 4, 51, 64
1, 193214, Note_off_c, 1, 79, 64
1, 193230, Note_on_c, 4, 51, 127
1, 193234, Note_on_c, 2, 70, 123
1, 193242, Note_off_c, 4, 58, 64
1, 193291, Note_on_c, 2, 72, 121
1, 193300, Note_off_c, 2, 70, 64
1, 193338, Note_on_c, 2, 70, 123
1, 193344, Note_on_c, 4, 58, 127
1, 193357, Note_off_c, 2, 72, 64
1, 193357, Note_off_c, 4, 51, 64
1, 193389, Note_on_c, 4, 67, 125
1, 193401, Note_off_c, 2, 70, 64
1, 193447, Note_on_c, 2, 68, 123
1, 193448, Note_on_c, 4, 53, 127
1, 193452, Note_off_c, 4, 67, 64
1, 193464, Note_off_c, 4, 58, 64
1, 193562, Note_on_c, 4, 58, 127
1, 193569, Note_off_c, 4, 53, 64
1, 193666, Note_off_c, 2, 68, 64
1, 193672, Note_on_c, 4, 65, 127
1, 193672, Note_on_c, 4, 56, 127
1, 193683, Note_off_c, 4, 58, 64
1, 193780, Note_on_c, 4, 58, 127
1, 193792, Note_off_c, 4, 56, 64
1, 193890, Note_off_c, 4, 65, 64
1, 193890, Note_on_c, 4, 56, 127
1, 193894, Note_on_c, 2, 74, 121
1, 193902, Note_off_c, 4, 58, 64
1, 193946, Note_on_c, 2, 75, 121
1, 193960, Note_off_c, 2, 74, 64
1, 194003, Note_on_c, 2, 74, 121
1, 194004, Note_on_c, 4, 58, 127
1, 194012, Note_off_c, 2, 75, 64
1, 194016, Note_off_c, 4, 56, 64
1, 194046, Note_on_c, 2, 70, 123
1, 194065, Note_off_c, 2, 74, 64
1, 194111, Note_on_c, 2, 75, 121
1, 194112, Note_off_c, 2, 70, 64
1, 194112, Note_on_c, 4, 55, 127
1, 194126, Note_off_c, 4, 58, 64
1, 194225, Note_on_c, 4, 58, 127
1, 194234, Note_off_c, 4, 55, 64
1, 194329, Note_off_c, 2, 75, 64
1, 194334, Note_on_c, 4, 51, 127
1, 194334, Note_on_c, 1, 79, 117
1, 194345, Note_off_c, 4, 58, 64
1, 194548, Note_off_c, 1, 79, 64
1, 194557, Note_on_c, 1, 89, 119
1, 194614, Note_on_c, 1, 87, 119
1, 194629, Note_off_c, 1, 89, 64
1, 194665, Note_on_c, 1, 86, 119
1, 194677, Note_off_c, 1, 87, 64
1, 194719, Note_on_c, 1, 84, 119
1, 194730, Note_off_c, 1, 86, 64
1, 194776, Note_off_c, 1, 84, 64
1, 194780, Note_on_c, 1, 84, 119
1, 194880, Note_off_c, 1, 84, 64
1, 194887, Note_on_c, 1, 82, 117
1, 194977, Note_off_c, 4, 51, 64
1, 194985, Note_off_c, 1, 82, 64
1, 194993, Note_on_c, 1, 82, 117
1, 194995, Note_on_c, 4, 63, 127
1, 194996, Note_on_c, 4, 55, 127
1, 195198, Note_off_c, 1, 82, 64
1, 195200, Note_off_c, 4, 63, 64
1, 195200, Note_off_c, 4, 55, 64
1, 195209, Note_on_c, 4, 63, 127
1, 195210, Note_on_c, 4, 55, 127
1, 195210, Note_on_c, 1, 84, 119
1, 195267, Note_on_c, 1, 82, 117
1, 195276, Note_off_c, 1, 84, 64
1, 195324, Note_on_c, 1, 80, 114
1, 195329, Note_off_c, 1, 82, 64
1, 195375, Note_on_c, 1, 79, 114
1, 195389, Note_off_c, 1, 80, 64
1, 195424, Note_off_c, 1, 79, 64
1, 195435, Note_on_c, 1, 79, 114
1, 195536, Note_off_c, 1, 79, 64
1, 195543, Note_on_c, 2, 77, 115
1, 195642, Note_off_c, 4, 55, 64
1, 195643, Note_off_c, 4, 63, 64
1, 195644, Note_off_c, 2, 77, 64
1, 195652, Note_on_c, 2, 77, 115
1, 195653, Note_on_c, 4, 63, 127
1, 195654, Note_on_c, 4, 56, 127
1, 195862, Note_off_c, 2, 77, 64
1, 195863, Note_off_c, 4, 63, 64
1, 195864, Note_off_c, 4, 56, 64
1, 195872, Note_on_c, 2, 77, 115
1, 195873, Note_on_c, 4, 63, 127
1, 195874, Note_on_c, 4, 57, 127
1, 196082, Note_off_c, 2, 77, 64
1, 196083, Note_off_c, 4, 63, 64
1, 196084, Note_off_c, 4, 57, 64
1, 196092, Note_on_c, 4, 58, 127
1, 196092, Note_on_c, 1, 79, 117
1, 196092, Note_on_c, 4, 63, 127
1, 196137, Note_on_c, 4, 65, 127
1, 196140, Note_on_c, 1, 80, 117
1, 196143, Note_off_c, 1, 79, 64
1, 196145, Note_off_c, 4, 63, 64
1, 196199, Note_on_c, 1, 82, 117
1, 196200, Note_on_c, 4, 67, 116
1, 196201, Note_off_c, 4, 65, 64
1, 196203, Note_off_c, 1, 80, 64
1, 196485, Note_off_c, 1, 82, 64
1, 196486, Note_off_c, 4, 67, 64
1, 196500, Note_off_c, 4, 58, 64
1, 196511, Note_on_c, 1, 82, 117
1, 196512, Note_on_c, 4, 67, 116
1, 196512, Note_on_c, 4, 58, 127
1, 196568, Note_on_c, 1, 80, 117
1, 196569, Note_on_c, 4, 65, 127
1, 196577, Note_off_c, 1, 82, 64
1, 196577, Note_off_c, 4, 67, 64
1, 196621, Note_on_c, 1, 79, 117
1, 196622, Note_on_c, 4, 63, 127
1, 196632, Note_off_c, 1, 80, 64
1, 196633, Note_off_c, 4, 65, 64
1, 196678, Note_on_c, 2, 77, 118
1, 196678, Note_on_c, 4, 62, 127
1, 196685, Note_off_c, 1, 79, 64
1, 196686, Note_off_c, 4, 63, 64
1, 196733, Note_off_c, 4, 62, 64
1, 196734, Note_off_c, 2, 77, 64
1, 196734, Note_off_c, 4, 58, 64
1, 196734, Note_on_c, 2, 75, 117
1, 196735, Note_on_c, 4, 63, 127
1, 196954, Note_on_c, 4, 46, 127
1, 197008, Note_off_c, 2, 75, 64
1, 197009, Note_off_c, 4, 63, 64
1, 197173, Note_on_c, 4, 62, 127
1, 197173, Note_on_c, 2, 70, 119
1, 197257, Note_off_c, 2, 70, 64
1, 197286, Note_on_c, 2, 70, 122
1, 197288, Note_on_c, 4, 58, 127
1, 197309, Note_off_c, 4, 62, 64
1, 197411, Note_off_c, 2, 70, 64
1, 197418, Note_on_c, 4, 63, 127
1, 197418, Note_on_c, 2, 71, 108
1, 197474, Note_off_c, 2, 71, 64
1, 197475, Note_on_c, 2, 72, 101
1, 197519, Note_off_c, 4, 58, 64
1, 197531, Note_on_c, 4, 58, 127
1, 197626, Note_off_c, 4, 63, 64
1, 197640, Note_on_c, 4, 63, 127
1, 197743, Note_off_c, 4, 58, 64
1, 197749, Note_on_c, 4, 58, 127
1, 197856, Note_off_c, 4, 63, 64
1, 197856, Note_on_c, 4, 65, 127
1, 197862, Note_on_c, 2, 74, 110
1, 197864, Note_off_c, 2, 72, 64
1, 197938, Note_off_c, 2, 74, 64
1, 197964, Note_off_c, 4, 58, 64
1, 197965, Note_on_c, 2, 74, 113
1, 197969, Note_on_c, 4, 58, 127
1, 198064, Note_off_c, 2, 74, 64
1, 198076, Note_on_c, 2, 74, 113
1, 198077, Note_on_c, 4, 67, 121
1, 198078, Note_off_c, 4, 65, 64
1, 198132, Note_off_c, 2, 74, 64
1, 198133, Note_on_c, 2, 75, 113
1, 198182, Note_off_c, 4, 58, 64
1, 198188, Note_on_c, 4, 58, 127
1, 198289, Note_off_c, 4, 67, 64
1, 198295, Note_on_c, 4, 67, 121
1, 198399, Note_off_c, 4, 58, 64
1, 198405, Note_on_c, 4, 58, 127
1, 198478, Note_off_c, 2, 75, 64
1, 198510, Note_on_c, 2, 77, 98
1, 198512, Note_off_c, 4, 67, 64
1, 198514, Note_on_c, 4, 62, 127
1, 198531, Note_off_c, 4, 46, 64
1, 198594, Note_off_c, 2, 77, 64
1, 198613, Note_on_c, 2, 77, 98
1, 198619, Note_off_c, 4, 58, 64
1, 198624, Note_on_c, 4, 58, 127
1, 198714, Note_off_c, 2, 77, 64
1, 198730, Note_on_c, 1, 78, 99
1, 198735, Note_on_c, 4, 63, 127
1, 198736, Note_off_c, 4, 62, 64
1, 198785, Note_off_c, 1, 78, 64
1, 198791, Note_on_c, 1, 79, 99
1, 198840, Note_off_c, 4, 58, 64
1, 198844, Note_on_c, 4, 58, 127
1, 198948, Note_off_c, 4, 63, 64
1, 198953, Note_on_c, 4, 63, 127
1, 199055, Note_off_c, 4, 58, 64
1, 199060, Note_on_c, 4, 58, 127
1, 199168, Note_off_c, 4, 63, 64
1, 199169, Note_off_c, 1, 79, 64
1, 199169, Note_on_c, 1, 81, 102
1, 199170, Note_on_c, 4, 60, 127
1, 199258, Note_off_c, 1, 81, 64
1, 199268, Note_on_c, 1, 81, 102
1, 199271, Note_off_c, 4, 58, 64
1, 199276, Note_on_c, 4, 58, 127
1, 199360, Note_off_c, 1, 81, 64
1, 199382, Note_on_c, 1, 81, 105
1, 199387, Note_on_c, 4, 62, 127
1, 199388, Note_off_c, 4, 60, 64
1, 199444, Note_on_c, 1, 82, 105
1, 199448, Note_off_c, 1, 81, 64
1, 199493, Note_off_c, 4, 58, 64
1, 199499, Note_on_c, 4, 58, 127
1, 199602, Note_off_c, 4, 62, 64
1, 199608, Note_on_c, 4, 65, 127
1, 199716, Note_on_c, 4, 62, 127
1, 199727, Note_off_c, 4, 65, 64
1, 199807, Note_off_c, 4, 58, 64
1, 199826, Note_on_c, 2, 70, 113
1, 199827, Note_on_c, 4, 58, 127
1, 199837, Note_off_c, 4, 62, 64
1, 199925, Note_off_c, 2, 70, 64
1, 199939, Note_on_c, 2, 70, 113
1, 199999, Note_off_c, 1, 82, 64
1, 200057, Note_on_c, 4, 59, 127
1, 200058, Note_on_c, 4, 47, 127
1, 200059, Note_off_c, 4, 58, 64
1, 200060, Note_on_c, 2, 75, 100
1, 200065, Note_off_c, 2, 70, 64
1, 200167, Note_on_c, 2, 77, 100
1, 200181, Note_off_c, 2, 75, 64
1, 200269, Note_on_c, 1, 78, 99
1, 200280, Note_off_c, 2, 77, 64
1, 200369, Note_on_c, 2, 77, 100
1, 200388, Note_off_c, 1, 78, 64
1, 200476, Note_on_c, 2, 75, 100
1, 200484, Note_off_c, 2, 77, 64
1, 200581, Note_on_c, 2, 74, 100
1, 200593, Note_off_c, 2, 75, 64
1, 200696, Note_on_c, 2, 75, 100
1, 200701, Note_off_c, 2, 74, 64
1, 200794, Note_on_c, 2, 77, 100
1, 200813, Note_off_c, 2, 75, 64
1, 200905, Note_on_c, 1, 78, 99
1, 200910, Note_off_c, 2, 77, 64
1, 201011, Note_on_c, 1, 79, 99
1, 201020, Note_off_c, 1, 78, 64
1, 201122, Note_on_c, 1, 80, 105
1, 201128, Note_off_c, 1, 79, 64
1, 201216, Note_off_c, 1, 80, 64
1, 201224, Note_on_c, 1, 81, 112
1, 201322, Note_off_c, 1, 81, 64
1, 201327, Note_off_c, 4, 47, 64
1, 201331, Note_off_c, 4, 59, 64
1, 201332, Note_on_c, 1, 82, 123
1, 201334, Note_on_c, 4, 58, 127
1, 201334, Note_on_c, 4, 46, 123
1, 201663, Note_off_c, 1, 82, 64
1, 201663, Note_off_c, 4, 46, 64
1, 201664, Note_off_c, 4, 58, 64
1, 201772, Note_on_c, 4, 67, 125
1, 201780, Note_on_c, 4, 58, 127
1, 201825, Note_on_c, 4, 59, 127
1, 201832, Note_on_c, 2, 68, 123
1, 201840, Note_off_c, 4, 67, 64
1, 201848, Note_off_c, 4, 58, 64
1, 201886, Note_on_c, 4, 58, 127
1, 201888, Note_on_c, 4, 67, 125
1, 201891, Note_off_c, 4, 59, 64
1, 201896, Note_off_c, 2, 68, 64
1, 201936, Note_on_c, 4, 57, 127
1, 201941, Note_on_c, 4, 65, 127
1, 201948, Note_off_c, 4, 58, 64
1, 201951, Note_off_c, 4, 67, 64
1, 201996, Note_on_c, 4, 58, 127
1, 201998, Note_on_c, 4, 67, 125
1, 202001, Note_off_c, 4, 57, 64
1, 202007, Note_off_c, 4, 65, 64
1, 202325, Note_off_c, 4, 58, 64
1, 202327, Note_off_c, 4, 67, 64
1, 202441, Note_on_c, 2, 70, 113
1, 202502, Note_on_c, 2, 72, 115
1, 202510, Note_off_c, 2, 70, 64
1, 202556, Note_on_c, 2, 70, 113
1, 202570, Note_off_c, 2, 72, 64
1, 202616, Note_on_c, 2, 69, 113
1, 202622, Note_off_c, 2, 70, 64
1, 202668, Note_off_c, 2, 69, 64
1, 202668, Note_on_c, 4, 67, 108
1, 202669, Note_on_c, 4, 63, 125
1, 202672, Note_on_c, 2, 70, 113
1, 202777, Note_on_c, 4, 58, 125
1, 202879, Note_off_c, 4, 67, 64
1, 202880, Note_off_c, 4, 63, 64
1, 202888, Note_on_c, 4, 67, 108
1, 202889, Note_on_c, 4, 63, 125
1, 202995, Note_off_c, 4, 58, 64
1, 203000, Note_on_c, 4, 58, 125
1, 203040, Note_off_c, 2, 70, 64
1, 203060, Note_on_c, 2, 70, 116
1, 203102, Note_off_c, 4, 67, 64
1, 203103, Note_off_c, 4, 63, 64
1, 203112, Note_on_c, 4, 67, 108
1, 203112, Note_on_c, 4, 63, 125
1, 203113, Note_off_c, 2, 70, 64
1, 203114, Note_on_c, 2, 75, 118
1, 203218, Note_off_c, 4, 58, 64
1, 203224, Note_on_c, 4, 58, 125
1, 203263, Note_off_c, 2, 75, 64
1, 203278, Note_on_c, 2, 75, 118
1, 203323, Note_off_c, 2, 75, 64
1, 203325, Note_off_c, 4, 67, 64
1, 203326, Note_off_c, 4, 63, 64
1, 203334, Note_on_c, 4, 65, 124
1, 203335, Note_on_c, 2, 75, 118
1, 203336, Note_on_c, 2, 68, 118
1, 203436, Note_off_c, 4, 58, 64
1, 203442, Note_on_c, 4, 58, 125
1, 203540, Note_off_c, 4, 65, 64
1, 203541, Note_off_c, 2, 68, 64
1, 203547, Note_on_c, 2, 74, 118
1, 203549, Note_off_c, 2, 75, 64
1, 203549, Note_on_c, 4, 65, 125
1, 203550, Note_on_c, 2, 68, 121
1, 203650, Note_off_c, 4, 58, 64
1, 203656, Note_on_c, 4, 58, 125
1, 203757, Note_off_c, 4, 65, 64
1, 203758, Note_off_c, 2, 68, 64
1, 203765, Note_off_c, 2, 74, 64
1, 203765, Note_on_c, 4, 65, 124
1, 203766, Note_on_c, 2, 68, 118
1, 203772, Note_on_c, 2, 70, 116
1, 203831, Note_on_c, 2, 72, 118
1, 203835, Note_off_c, 2, 70, 64
1, 203868, Note_off_c, 4, 58, 64
1, 203875, Note_on_c, 4, 58, 125
1, 203878, Note_on_c, 2, 70, 116
1, 203894, Note_off_c, 2, 72, 64
1, 203930, Note_on_c, 2, 69, 116
1, 203940, Note_off_c, 2, 70, 64
1, 203975, Note_off_c, 4, 65, 64
1, 203976, Note_off_c, 2, 68, 64
1, 203983, Note_on_c, 2, 70, 116
1, 203983, Note_on_c, 4, 63, 125
1, 203984, Note_on_c, 4, 67, 112
1, 203995, Note_off_c, 2, 69, 64
1, 204087, Note_off_c, 4, 58, 64
1, 204093, Note_on_c, 4, 58, 125
1, 204192, Note_off_c, 4, 63, 64
1, 204193, Note_off_c, 4, 67, 64
1, 204202, Note_on_c, 4, 67, 112
1, 204202, Note_on_c, 4, 63, 125
1, 204305, Note_off_c, 4, 58, 64
1, 204310, Note_on_c, 4, 58, 125
1, 204348, Note_off_c, 2, 70, 64
1, 204371, Note_on_c, 2, 70, 116
1, 204412, Note_off_c, 4, 67, 64
1, 204413, Note_off_c, 4, 63, 64
1, 204420, Note_on_c, 4, 67, 112
1, 204421, Note_on_c, 4, 63, 125
1, 204428, Note_on_c, 1, 79, 112
1, 204436, Note_off_c, 2, 70, 64
1, 204527, Note_off_c, 4, 58, 64
1, 204532, Note_on_c, 4, 58, 125
1, 204576, Note_off_c, 1, 79, 64
1, 204589, Note_on_c, 1, 79, 112
1, 204633, Note_off_c, 4, 67, 64
1, 204634, Note_off_c, 4, 63, 64
1, 204643, Note_on_c, 4, 62, 125
1, 204644, Note_on_c, 4, 65, 124
1, 204646, Note_on_c, 1, 82, 112
1, 204653, Note_off_c, 1, 79, 64
1, 204747, Note_off_c, 4, 58, 64
1, 204752, Note_on_c, 4, 58, 125
1, 204853, Note_off_c, 4, 62, 64
1, 204854, Note_off_c, 4, 65, 64
1, 204856, Note_off_c, 1, 82, 64
1, 204860, Note_on_c, 1, 80, 112
1, 204863, Note_on_c, 4, 62, 125
1, 204864, Note_on_c, 4, 65, 124
1, 204967, Note_off_c, 4, 58, 64
1, 204972, Note_on_c, 4, 58, 125
1, 205070, Note_off_c, 1, 80, 64
1, 205073, Note_off_c, 4, 62, 64
1, 205074, Note_off_c, 4, 65, 64
1, 205082, Note_on_c, 1, 80, 117
1, 205083, Note_on_c, 4, 65, 125
1, 205083, Note_on_c, 4, 62, 125
1, 205143, Note_on_c, 1, 82, 117
1, 205149, Note_off_c, 1, 80, 64
1, 205190, Note_off_c, 4, 58, 64
1, 205196, Note_on_c, 4, 58, 125
1, 205201, Note_on_c, 1, 80, 117
1, 205210, Note_off_c, 1, 82, 64
1, 205255, Note_on_c, 2, 77, 118
1, 205262, Note_off_c, 1, 80, 64
1, 205294, Note_off_c, 4, 62, 64
1, 205295, Note_off_c, 4, 65, 64
1, 205303, Note_on_c, 4, 63, 125
1, 205308, Note_on_c, 1, 79, 117
1, 205315, Note_off_c, 4, 58, 64
1, 205319, Note_off_c, 2, 77, 64
1, 205364, Note_on_c, 1, 80, 117
1, 205373, Note_off_c, 1, 79, 64
1, 205424, Note_on_c, 1, 79, 117
1, 205431, Note_off_c, 1, 80, 64
1, 205480, Note_on_c, 2, 75, 121
1, 205486, Note_off_c, 1, 79, 64
1, 205543, Note_on_c, 1, 82, 112
1, 205563, Note_off_c, 2, 75, 64
1, 205621, Note_on_c, 1, 80, 112
1, 205629, Note_off_c, 1, 82, 64
1, 205677, Note_on_c, 1, 79, 112
1, 205706, Note_off_c, 1, 80, 64
1, 205753, Note_on_c, 4, 55, 127
1, 205753, Note_on_c, 2, 77, 113
1, 205754, Note_off_c, 4, 63, 64
1, 205754, Note_on_c, 4, 43, 127
1, 205764, Note_off_c, 1, 79, 64
1, 205827, Note_on_c, 2, 75, 117
1, 205839, Note_off_c, 2, 77, 64
1, 205910, Note_off_c, 2, 75, 64
1, 205912, Note_on_c, 2, 73, 117
1, 205966, Note_off_c, 4, 55, 64
1, 205966, Note_off_c, 4, 43, 64
1, 205973, Note_off_c, 2, 73, 64
1, 205974, Note_on_c, 2, 72, 117
1, 205975, Note_on_c, 4, 56, 127
1, 205975, Note_on_c, 4, 44, 127
1, 206039, Note_off_c, 2, 72, 64
1, 206046, Note_on_c, 2, 73, 117
1, 206098, Note_on_c, 2, 72, 117
1, 206112, Note_off_c, 2, 73, 64
1, 206150, Note_on_c, 2, 68, 119
1, 206160, Note_off_c, 2, 72, 64
1, 206211, Note_on_c, 1, 84, 114
1, 206263, Note_off_c, 2, 68, 64
1, 206290, Note_on_c, 1, 82, 112
1, 206294, Note_off_c, 1, 84, 64
1, 206357, Note_on_c, 1, 80, 112
1, 206370, Note_off_c, 1, 82, 64
1, 206414, Note_off_c, 4, 44, 64
1, 206414, Note_off_c, 4, 56, 64
1, 206415, Note_on_c, 1, 79, 112
1, 206415, Note_on_c, 4, 61, 127
1, 206415, Note_on_c, 4, 58, 127
1, 206437, Note_off_c, 1, 80, 64
1, 206493, Note_on_c, 2, 77, 113
1, 206496, Note_off_c, 1, 79, 64
1, 206575, Note_on_c, 2, 76, 117
1, 206578, Note_off_c, 2, 77, 64
1, 206628, Note_off_c, 4, 58, 64
1, 206628, Note_off_c, 4, 61, 64
1, 206638, Note_on_c, 4, 60, 127
1, 206638, Note_on_c, 2, 77, 113
1, 206639, Note_on_c, 4, 56, 127
1, 206642, Note_off_c, 2, 76, 64
1, 206703, Note_on_c, 1, 79, 112
1, 206705, Note_off_c, 2, 77, 64
1, 206754, Note_on_c, 2, 77, 113
1, 206769, Note_off_c, 1, 79, 64
1, 206813, Note_on_c, 2, 72, 117
1, 206819, Note_off_c, 2, 77, 64
1, 206872, Note_on_c, 1, 84, 114
1, 206896, Note_off_c, 2, 72, 64
1, 206950, Note_on_c, 1, 82, 112
1, 206955, Note_off_c, 1, 84, 64
1, 207016, Note_on_c, 1, 80, 112
1, 207030, Note_off_c, 1, 82, 64
1, 207072, Note_off_c, 4, 56, 64
1, 207073, Note_off_c, 4, 60, 64
1, 207083, Note_on_c, 1, 79, 112
1, 207084, Note_on_c, 4, 57, 127
1, 207085, Note_on_c, 4, 63, 127
1, 207099, Note_off_c, 1, 80, 64
1, 207150, Note_on_c, 2, 77, 113
1, 207168, Note_off_c, 1, 79, 64
1, 207168, Note_on_c, 4, 65, 127
1, 207170, Note_off_c, 4, 63, 64
1, 207224, Note_on_c, 4, 67, 121
1, 207229, Note_on_c, 2, 75, 117
1, 207237, Note_off_c, 2, 77, 64
1, 207254, Note_off_c, 4, 65, 64
1, 207301, Note_off_c, 4, 67, 64
1, 207301, Note_off_c, 4, 57, 64
1, 207304, Note_off_c, 2, 75, 64
1, 207309, Note_on_c, 2, 75, 117
1, 207310, Note_on_c, 4, 67, 121
1, 207311, Note_on_c, 4, 58, 127
1, 207518, Note_off_c, 2, 75, 64
1, 207519, Note_off_c, 4, 67, 64
1, 207528, Note_on_c, 4, 65, 127
1, 207528, Note_on_c, 2, 74, 117
1, 207738, Note_off_c, 2, 74, 64
1, 207746, Note_on_c, 2, 70, 123
1, 207747, Note_on_c, 4, 51, 127
1, 207748, Note_off_c, 4, 58, 64
1, 207810, Note_on_c, 2, 72, 121
1, 207814, Note_off_c, 2, 70, 64
1, 207840, Note_off_c, 4, 65, 64
1, 207860, Note_on_c, 2, 70, 123
1, 207860, Note_on_c, 4, 58, 127
1, 207871, Note_off_c, 4, 51, 64
1, 207874, Note_off_c, 2, 72, 64
1, 207915, Note_on_c, 4, 67, 121
1, 207920, Note_off_c, 2, 70, 64
1, 207966, Note_on_c, 2, 68, 119
1, 207967, Note_on_c, 4, 53, 127
1, 207978, Note_off_c, 4, 58, 64
1, 207979, Note_off_c, 4, 67, 64
1, 208073, Note_on_c, 4, 58, 127
1, 208085, Note_off_c, 4, 53, 64
1, 208176, Note_on_c, 4, 65, 127
1, 208179, Note_off_c, 2, 68, 64
1, 208180, Note_on_c, 4, 56, 127
1, 208191, Note_off_c, 4, 58, 64
1, 208289, Note_on_c, 4, 58, 127
1, 208301, Note_off_c, 4, 56, 64
1, 208395, Note_off_c, 4, 65, 64
1, 208400, Note_on_c, 2, 74, 118
1, 208400, Note_on_c, 4, 56, 127
1, 208411, Note_off_c, 4, 58, 64
1, 208455, Note_on_c, 2, 75, 118
1, 208466, Note_off_c, 2, 74, 64
1, 208515, Note_on_c, 4, 58, 127
1, 208516, Note_on_c, 2, 74, 118
1, 208521, Note_off_c, 2, 75, 64
1, 208526, Note_off_c, 4, 56, 64
1, 208561, Note_on_c, 2, 70, 119
1, 208581, Note_off_c, 2, 74, 64
1, 208624, Note_on_c, 2, 75, 118
1, 208625, Note_off_c, 2, 70, 64
1, 208626, Note_on_c, 4, 55, 127
1, 208637, Note_off_c, 4, 58, 64
1, 208736, Note_on_c, 4, 58, 127
1, 208747, Note_off_c, 4, 55, 64
1, 208833, Note_off_c, 2, 75, 64
1, 208836, Note_on_c, 1, 79, 117
1, 208843, Note_on_c, 4, 51, 127
1, 208854, Note_off_c, 4, 58, 64
1, 208949, Note_on_c, 4, 58, 127
1, 208960, Note_off_c, 4, 51, 64
1, 209040, Note_off_c, 1, 79, 64
1, 209056, Note_on_c, 4, 51, 127
1, 209060, Note_on_c, 2, 70, 123
1, 209068, Note_off_c, 4, 58, 64
1, 209117, Note_on_c, 2, 72, 121
1, 209126, Note_off_c, 2, 70, 64
1, 209164, Note_on_c, 2, 70, 123
1, 209170, Note_on_c, 4, 58, 127
1, 209183, Note_off_c, 2, 72, 64
1, 209183, Note_off_c, 4, 51, 64
1, 209215, Note_on_c, 4, 67, 125
1, 209228, Note_off_c, 2, 70, 64
1, 209273, Note_on_c, 2, 68, 123
1, 209274, Note_on_c, 4, 53, 127
1, 209278, Note_off_c, 4, 67, 64
1, 209291, Note_off_c, 4, 58, 64
1, 209388, Note_on_c, 4, 58, 127
1, 209395, Note_off_c, 4, 53, 64
1, 209493, Note_off_c, 2, 68, 64
1, 209498, Note_on_c, 4, 65, 127
1, 209498, Note_on_c, 4, 56, 127
1, 209509, Note_off_c, 4, 58, 64
1, 209606, Note_on_c, 4, 58, 127
1, 209618, Note_off_c, 4, 56, 64
1, 209716, Note_off_c, 4, 65, 64
1, 209716, Note_on_c, 4, 56, 127
1, 209720, Note_on_c, 2, 74, 121
1, 209728, Note_off_c, 4, 58, 64
1, 209772, Note_on_c, 2, 75, 121
1, 209787, Note_off_c, 2, 74, 64
1, 209829, Note_on_c, 2, 74, 121
1, 209830, Note_on_c, 4, 58, 127
1, 209838, Note_off_c, 2, 75, 64
1, 209842, Note_off_c, 4, 56, 64
1, 209872, Note_on_c, 2, 70, 123
1, 209892, Note_off_c, 2, 74, 64
1, 209937, Note_on_c, 2, 75, 121
1, 209938, Note_on_c, 4, 55, 127
1, 209939, Note_off_c, 2, 70, 64
1, 209953, Note_off_c, 4, 58, 64
1, 210051, Note_on_c, 4, 58, 127
1, 210060, Note_off_c, 4, 55, 64
1, 210156, Note_off_c, 2, 75, 64
1, 210159, Note_on_c, 1, 79, 117
1, 210160, Note_on_c, 4, 51, 127
1, 210171, Note_off_c, 4, 58, 64
1, 210373, Note_off_c, 1, 79, 64
1, 210383, Note_on_c, 1, 89, 119
1, 210440, Note_on_c, 1, 87, 119
1, 210455, Note_off_c, 1, 89, 64
1, 210491, Note_on_c, 1, 86, 119
1, 210503, Note_off_c, 1, 87, 64
1, 210544, Note_on_c, 1, 84, 119
1, 210556, Note_off_c, 1, 86, 64
1, 210602, Note_off_c, 1, 84, 64
1, 210606, Note_on_c, 1, 84, 119
1, 210707, Note_off_c, 1, 84, 64
1, 210712, Note_on_c, 1, 82, 117
1, 210803, Note_off_c, 4, 51, 64
1, 210811, Note_off_c, 1, 82, 64
1, 210819, Note_on_c, 1, 82, 117
1, 210821, Note_on_c, 4, 63, 127
1, 210821, Note_on_c, 4, 55, 127
1, 211023, Note_off_c, 1, 82, 64
1, 211026, Note_off_c, 4, 55, 64
1, 211026, Note_off_c, 4, 63, 64
1, 211035, Note_on_c, 4, 63, 127
1, 211036, Note_on_c, 4, 55, 127
1, 211037, Note_on_c, 1, 84, 119
1, 211093, Note_on_c, 1, 82, 117
1, 211102, Note_off_c, 1, 84, 64
1, 211150, Note_on_c, 1, 80, 114
1, 211155, Note_off_c, 1, 82, 64
1, 211201, Note_on_c, 1, 79, 114
1, 211214, Note_off_c, 1, 80, 64
1, 211250, Note_off_c, 1, 79, 64
1, 211261, Note_on_c, 1, 79, 114
1, 211362, Note_off_c, 1, 79, 64
1, 211369, Note_on_c, 2, 77, 115
1, 211468, Note_off_c, 4, 55, 64
1, 211469, Note_off_c, 4, 63, 64
1, 211470, Note_off_c, 2, 77, 64
1, 211478, Note_on_c, 2, 77, 115
1, 211479, Note_on_c, 4, 63, 127
1, 211480, Note_on_c, 4, 56, 127
1, 211688, Note_off_c, 2, 77, 64
1, 211689, Note_off_c, 4, 63, 64
1, 211690, Note_off_c, 4, 56, 64
1, 211698, Note_on_c, 2, 77, 115
1, 211698, Note_on_c, 4, 63, 127
1, 211700, Note_on_c, 4, 57, 127
1, 211908, Note_off_c, 2, 77, 64
1, 211909, Note_off_c, 4, 63, 64
1, 211910, Note_off_c, 4, 57, 64
1, 211918, Note_on_c, 4, 58, 127
1, 211918, Note_on_c, 1, 79, 117
1, 211919, Note_on_c, 4, 63, 127
1, 211963, Note_on_c, 4, 65, 127
1, 211967, Note_on_c, 1, 80, 117
1, 211969, Note_off_c, 1, 79, 64
1, 211971, Note_off_c, 4, 63, 64
1, 212025, Note_on_c, 1, 82, 117
1, 212026, Note_on_c, 4, 67, 116
1, 212027, Note_off_c, 4, 65, 64
1, 212029, Note_off_c, 1, 80, 64
1, 212311, Note_off_c, 1, 82, 64
1, 212312, Note_off_c, 4, 67, 64
1, 212328, Note_off_c, 4, 58, 64
1, 212337, Note_on_c, 1, 82, 117
1, 212338, Note_on_c, 4, 67, 116
1, 212338, Note_on_c, 4, 58, 127
1, 212394, Note_on_c, 1, 80, 117
1, 212395, Note_on_c, 4, 65, 127
1, 212403, Note_off_c, 1, 82, 64
1, 212404, Note_off_c, 4, 67, 64
1, 212448, Note_on_c, 1, 79, 117
1, 212448, Note_on_c, 4, 63, 127
1, 212458, Note_off_c, 1, 80, 64
1, 212459, Note_off_c, 4, 65, 64
1, 212503, Note_on_c, 2, 77, 118
1, 212504, Note_on_c, 4, 62, 127
1, 212511, Note_off_c, 1, 79, 64
1, 212512, Note_off_c, 4, 63, 64
1, 212559, Note_off_c, 4, 62, 64
1, 212559, Note_off_c, 2, 77, 64
1, 212560, Note_off_c, 4, 58, 64
1, 212560, Note_on_c, 2, 75, 118
1, 212561, Note_on_c, 4, 63, 127
1, 212779, Note_on_c, 4, 51, 127
1, 212852, Note_off_c, 2, 75, 64
1, 212853, Note_off_c, 4, 63, 64
1, 212999, Note_on_c, 2, 74, 118
1, 213072, Note_off_c, 4, 51, 64
1, 213157, Note_on_c, 2, 75, 118
1, 213163, Note_off_c, 2, 74, 64
1, 213218, Note_on_c, 2, 72, 118
1, 213221, Note_off_c, 2, 75, 64
1, 213320, Note_on_c, 2, 70, 123
1, 213338, Note_off_c, 2, 72, 64
1, 213421, Note_off_c, 2, 70, 64
1, 213437, Note_on_c, 2, 70, 123
1, 213437, Note_on_c, 4, 65, 127
1, 213438, Note_on_c, 4, 62, 127
1, 213629, Note_off_c, 4, 65, 64
1, 213629, Note_off_c, 4, 62, 64
1, 213630, Note_off_c, 2, 70, 64
1, 213657, Note_on_c, 2, 70, 123
1, 213657, Note_on_c, 4, 65, 127
1, 213658, Note_on_c, 4, 62, 127
1, 213849, Note_off_c, 4, 65, 64
1, 213849, Note_off_c, 4, 62, 64
1, 213850, Note_off_c, 2, 70, 64
1, 213876, Note_on_c, 2, 69, 123
1, 213877, Note_on_c, 4, 65, 127
1, 213877, Note_on_c, 4, 63, 127
1, 214151, Note_off_c, 4, 63, 64
1, 214152, Note_off_c, 2, 69, 64
1, 214152, Note_off_c, 4, 65, 64
1, 214314, Note_on_c, 2, 75, 118
1, 214479, Note_off_c, 2, 75, 64
1, 214483, Note_on_c, 2, 77, 118
1, 214535, Note_on_c, 2, 74, 118
1, 214539, Note_off_c, 2, 77, 64
1, 214643, Note_on_c, 2, 72, 118
1, 214654, Note_off_c, 2, 74, 64
1, 214743, Note_off_c, 2, 72, 64
1, 214753, Note_on_c, 2, 72, 118
1, 214754, Note_on_c, 4, 65, 127
1, 214754, Note_on_c, 4, 63, 127
1, 214946, Note_off_c, 2, 72, 64
1, 214947, Note_off_c, 4, 63, 64
1, 214947, Note_off_c, 4, 65, 64
1, 214974, Note_on_c, 2, 72, 118
1, 214974, Note_on_c, 4, 65, 127
1, 214975, Note_on_c, 4, 63, 127
1, 215167, Note_off_c, 4, 65, 64
1, 215167, Note_off_c, 4, 63, 64
1, 215168, Note_off_c, 2, 72, 64
1, 215194, Note_on_c, 2, 70, 119
1, 215195, Note_on_c, 4, 65, 127
1, 215195, Note_on_c, 4, 62, 127
1, 215468, Note_off_c, 4, 62, 64
1, 215469, Note_off_c, 4, 65, 64
1, 215470, Note_off_c, 2, 70, 64
1, 215631, Note_on_c, 2, 74, 118
1, 215634, Note_on_c, 4, 58, 127
1, 215794, Note_off_c, 2, 74, 64
1, 215796, Note_off_c, 4, 58, 64
1, 215796, Note_on_c, 2, 75, 118
1, 215797, Note_on_c, 4, 60, 127
1, 215848, Note_on_c, 4, 53, 127
1, 215848, Note_on_c, 4, 62, 127
1, 215851, Note_on_c, 2, 77, 118
1, 215857, Note_off_c, 4, 60, 64
1, 215858, Note_off_c, 2, 75, 64
1, 215941, Note_on_c, 1, 79, 117
1, 215945, Note_on_c, 4, 63, 127
1, 215956, Note_off_c, 4, 62, 64
1, 215960, Note_off_c, 2, 77, 64
1, 216040, Note_on_c, 2, 75, 118
1, 216047, Note_on_c, 4, 60, 127
1, 216053, Note_off_c, 1, 79, 64
1, 216056, Note_off_c, 4, 63, 64
1, 216137, Note_on_c, 2, 72, 118
1, 216143, Note_on_c, 4, 57, 127
1, 216146, Note_off_c, 2, 75, 64
1, 216153, Note_off_c, 4, 60, 64
1, 216238, Note_on_c, 2, 74, 118
1, 216240, Note_on_c, 4, 58, 127
1, 216246, Note_off_c, 2, 72, 64
1, 216251, Note_off_c, 4, 57, 64
1, 216335, Note_on_c, 2, 75, 118
1, 216339, Note_on_c, 4, 60, 127
1, 216347, Note_off_c, 2, 74, 64
1, 216351, Note_off_c, 4, 58, 64
1, 216434, Note_on_c, 2, 77, 118
1, 216435, Note_on_c, 4, 62, 127
1, 216440, Note_off_c, 2, 75, 64
1, 216445, Note_off_c, 4, 60, 64
1, 216531, Note_on_c, 1, 79, 117
1, 216532, Note_on_c, 4, 63, 127
1, 216542, Note_off_c, 2, 77, 64
1, 216542, Note_off_c, 4, 62, 64
1, 216627, Note_on_c, 2, 75, 118
1, 216630, Note_on_c, 4, 60, 127
1, 216641, Note_off_c, 4, 63, 64
1, 216641, Note_off_c, 1, 79, 64
1, 216723, Note_on_c, 2, 72, 118
1, 216731, Note_on_c, 4, 57, 127
1, 216739, Note_off_c, 2, 75, 64
1, 216743, Note_off_c, 4, 60, 64
1, 216832, Note_on_c, 2, 74, 118
1, 216837, Note_on_c, 4, 58, 127
1, 216840, Note_off_c, 2, 72, 64
1, 216848, Note_off_c, 4, 57, 64
1, 216936, Note_on_c, 2, 75, 118
1, 216938, Note_on_c, 4, 60, 127
1, 216944, Note_off_c, 2, 74, 64
1, 216949, Note_off_c, 4, 58, 64
1, 217029, Note_on_c, 2, 77, 118
1, 217035, Note_on_c, 4, 62, 127
1, 217042, Note_off_c, 2, 75, 64
1, 217045, Note_off_c, 4, 60, 64
1, 217125, Note_on_c, 1, 82, 117
1, 217132, Note_off_c, 2, 77, 64
1, 217227, Note_on_c, 1, 81, 117
1, 217239, Note_off_c, 1, 82, 64
1, 217242, Note_off_c, 4, 53, 64
1, 217319, Note_on_c, 1, 79, 117
1, 217332, Note_off_c, 1, 81, 64
1, 217425, Note_on_c, 2, 77, 118
1, 217426, Note_off_c, 1, 79, 64
1, 217520, Note_on_c, 2, 76, 118
1, 217534, Note_off_c, 2, 77, 64
1, 217622, Note_on_c, 2, 74, 118
1, 217632, Note_off_c, 2, 76, 64
1, 217716, Note_on_c, 2, 72, 118
1, 217738, Note_off_c, 2, 74, 64
1, 217816, Note_on_c, 2, 71, 117
1, 217828, Note_off_c, 2, 72, 64
1, 217920, Note_on_c, 2, 70, 119
1, 217929, Note_off_c, 2, 71, 64
1, 218025, Note_on_c, 2, 69, 119
1, 218031, Note_off_c, 2, 70, 64
1, 218124, Note_on_c, 4, 67, 125
1, 218136, Note_off_c, 2, 69, 64
1, 218225, Note_off_c, 4, 67, 64
1, 218232, Note_on_c, 2, 72, 118
1, 218331, Note_off_c, 4, 62, 64
1, 218386, Note_off_c, 2, 72, 64
1, 218398, Note_on_c, 2, 74, 118
1, 218447, Note_on_c, 4, 65, 127
1, 218448, Note_on_c, 4, 60, 127
1, 218448, Note_on_c, 4, 57, 127
1, 218449, Note_on_c, 4, 48, 127
1, 218459, Note_off_c, 2, 74, 64
1, 218632, Note_off_c, 4, 65, 64
1, 218633, Note_off_c, 4, 57, 64
1, 218634, Note_off_c, 4, 48, 64
1, 218635, Note_off_c, 4, 60, 64
1, 218659, Note_on_c, 4, 64, 127
1, 218660, Note_on_c, 4, 55, 127
1, 218661, Note_on_c, 4, 58, 127
1, 218662, Note_on_c, 4, 48, 127
1, 218844, Note_off_c, 4, 64, 64
1, 218845, Note_off_c, 4, 55, 64
1, 218846, Note_off_c, 4, 48, 64
1, 218846, Note_off_c, 4, 58, 64
1, 218871, Note_on_c, 4, 65, 127
1, 218872, Note_on_c, 4, 57, 127
1, 218872, Note_on_c, 4, 53, 127
1, 219083, Note_on_c, 4, 41, 127
1, 219136, Note_off_c, 4, 65, 64
1, 219136, Note_off_c, 4, 53, 64
1, 219137, Note_off_c, 4, 57, 64
1, 219290, Note_on_c, 2, 70, 119
1, 219294, Note_on_c, 2, 74, 118
1, 219446, Note_off_c, 2, 70, 64
1, 219449, Note_off_c, 2, 74, 64
1, 219455, Note_on_c, 2, 72, 118
1, 219457, Note_on_c, 2, 69, 119
1, 219491, Note_off_c, 2, 72, 64
1, 219492, Note_off_c, 2, 69, 64
1, 219500, Note_on_c, 2, 72, 118
1, 219501, Note_on_c, 2, 69, 119
1, 219704, Note_off_c, 2, 72, 64
1, 219704, Note_off_c, 2, 69, 64
1, 219716, Note_on_c, 4, 65, 127
1, 219917, Note_off_c, 4, 65, 64
1, 219927, Note_on_c, 2, 70, 119
1, 219927, Note_on_c, 2, 76, 118
1, 220080, Note_off_c, 2, 76, 64
1, 220080, Note_off_c, 2, 70, 64
1, 220088, Note_on_c, 2, 77, 118
1, 220088, Note_on_c, 2, 69, 119
1, 220133, Note_off_c, 2, 69, 64
1, 220134, Note_off_c, 2, 77, 64
1, 220139, Note_on_c, 2, 77, 118
1, 220139, Note_on_c, 2, 69, 119
1, 220343, Note_on_c, 4, 53, 127
1, 220394, Note_off_c, 4, 41, 64
1, 220416, Note_off_c, 2, 69, 64
1, 220416, Note_off_c, 2, 77, 64
1, 220534, Note_off_c, 4, 53, 64
1, 220541, Note_on_c, 4, 65, 127
1, 220542, Note_on_c, 4, 53, 127
1, 220543, Note_on_c, 2, 71, 117
1, 220551, Note_on_c, 2, 74, 118
1, 220572, Note_on_c, 1, 80, 117
1, 220697, Note_off_c, 2, 71, 64
1, 220705, Note_off_c, 2, 74, 64
1, 220722, Note_off_c, 1, 80, 64
1, 220733, Note_on_c, 2, 72, 118
1, 220755, Note_off_c, 4, 53, 64
1, 220756, Note_off_c, 4, 65, 64
1, 220756, Note_on_c, 2, 76, 118
1, 220757, Note_on_c, 4, 64, 127
1, 220757, Note_on_c, 4, 52, 127
1, 220776, Note_on_c, 1, 79, 117
1, 220888, Note_off_c, 2, 72, 64
1, 220903, Note_off_c, 2, 76, 64
1, 220920, Note_off_c, 1, 79, 64
1, 220939, Note_on_c, 2, 69, 119
1, 220958, Note_off_c, 4, 52, 64
1, 220958, Note_off_c, 4, 64, 64
1, 220959, Note_on_c, 2, 72, 118
1, 220959, Note_on_c, 4, 63, 127
1, 220960, Note_on_c, 4, 51, 127
1, 220969, Note_on_c, 1, 78, 117
1, 221092, Note_off_c, 2, 69, 64
1, 221104, Note_off_c, 2, 72, 64
1, 221115, Note_off_c, 1, 78, 64
1, 221134, Note_on_c, 2, 70, 119
1, 221154, Note_on_c, 2, 74, 118
1, 221156, Note_off_c, 4, 63, 64
1, 221156, Note_off_c, 4, 51, 64
1, 221157, Note_on_c, 4, 62, 127
1, 221157, Note_on_c, 4, 50, 127
1, 221171, Note_on_c, 2, 77, 118
1, 221287, Note_off_c, 2, 70, 64
1, 221303, Note_off_c, 2, 74, 64
1, 221318, Note_off_c, 2, 77, 64
1, 221340, Note_on_c, 4, 67, 125
1, 221360, Note_off_c, 4, 50, 64
1, 221361, Note_off_c, 4, 62, 64
1, 221361, Note_on_c, 4, 55, 127
1, 221362, Note_on_c, 4, 43, 127
1, 221362, Note_on_c, 2, 70, 119
1, 221380, Note_on_c, 2, 76, 118
1, 221493, Note_off_c, 4, 67, 64
1, 221506, Note_off_c, 2, 70, 64
1, 221521, Note_off_c, 2, 76, 64
1, 221538, Note_on_c, 4, 66, 125
1, 221554, Note_off_c, 4, 43, 64
1, 221555, Note_off_c, 4, 55, 64
1, 221555, Note_on_c, 4, 57, 127
1, 221556, Note_on_c, 2, 72, 118
1, 221556, Note_on_c, 4, 45, 127
1, 221570, Note_on_c, 2, 75, 118
1, 221687, Note_off_c, 4, 66, 64
1, 221703, Note_off_c, 2, 72, 64
1, 221713, Note_off_c, 2, 75, 64
1, 221737, Note_on_c, 4, 65, 127
1, 221748, Note_off_c, 4, 45, 64
1, 221748, Note_off_c, 4, 57, 64
1, 221749, Note_on_c, 4, 58, 127
1, 221749, Note_on_c, 4, 46, 127
1, 221753, Note_on_c, 2, 70, 119
1, 221767, Note_on_c, 2, 74, 118
1, 221932, Note_off_c, 4, 65, 64
1, 221939, Note_on_c, 4, 51, 127
1, 221943, Note_off_c, 2, 70, 64
1, 221954, Note_off_c, 4, 46, 64
1, 221955, Note_off_c, 2, 74, 64
1, 221985, Note_off_c, 4, 58, 64
1, 222126, Note_on_c, 2, 72, 118
1, 222335, Note_on_c, 2, 73, 118
1, 222336, Note_on_c, 4, 52, 127
1, 222343, Note_off_c, 4, 51, 64
1, 222344, Note_off_c, 2, 72, 64
1, 222525, Note_off_c, 4, 52, 64
1, 222526, Note_off_c, 2, 73, 64
1, 222526, Note_on_c, 2, 70, 119
1, 222527, Note_on_c, 4, 53, 127
1, 222627, Note_on_c, 2, 69, 119
1, 222637, Note_off_c, 2, 70, 64
1, 222724, Note_on_c, 4, 67, 125
1, 222724, Note_on_c, 4, 51, 127
1, 222726, Note_off_c, 4, 53, 64
1, 222734, Note_off_c, 2, 69, 64
1, 222818, Note_on_c, 4, 65, 127
1, 222834, Note_off_c, 4, 67, 64
1, 222919, Note_on_c, 2, 70, 119
1, 222920, Note_on_c, 4, 50, 127
1, 222923, Note_off_c, 4, 51, 64
1, 222925, Note_off_c, 4, 65, 64
1, 223116, Note_off_c, 2, 70, 64
1, 223116, Note_on_c, 4, 57, 127
1, 223117, Note_on_c, 2, 72, 118
1, 223119, Note_off_c, 4, 50, 64
1, 223119, Note_on_c, 2, 75, 118
1, 223305, Note_on_c, 2, 74, 118
1, 223307, Note_on_c, 2, 70, 119
1, 223315, Note_on_c, 4, 58, 127
1, 223317, Note_off_c, 2, 72, 64
1, 223319, Note_off_c, 2, 75, 64
1, 223320, Note_off_c, 4, 57, 64
1, 223464, Note_off_c, 2, 74, 64
1, 223466, Note_off_c, 2, 70, 64
1, 223469, Note_on_c, 2, 69, 119
1, 223471, Note_on_c, 2, 72, 118
1, 223515, Note_on_c, 4, 52, 127
1, 223516, Note_on_c, 2, 74, 118
1, 223516, Note_on_c, 2, 70, 119
1, 223518, Note_off_c, 4, 58, 64
1, 223526, Note_off_c, 2, 69, 64
1, 223527, Note_off_c, 2, 72, 64
1, 223659, Note_on_c, 2, 75, 118
1, 223659, Note_on_c, 2, 72, 118
1, 223661, Note_off_c, 2, 70, 64
1, 223661, Note_off_c, 2, 74, 64
1, 223708, Note_on_c, 2, 70, 119
1, 223709, Note_on_c, 4, 53, 127
1, 223709, Note_on_c, 2, 74, 118
1, 223713, Note_off_c, 4, 52, 64
1, 223715, Note_off_c, 2, 72, 64
1, 223715, Note_off_c, 2, 75, 64
1, 223912, Note_off_c, 2, 70, 64
1, 223914, Note_off_c, 2, 74, 64
1, 223915, Note_on_c, 2, 72, 118
1, 223915, Note_on_c, 2, 69, 119
1, 224070, Note_off_c, 4, 53, 64
1, 224123, Note_off_c, 2, 69, 64
1, 224123, Note_off_c, 2, 72, 64
1, 224124, Note_on_c, 4, 62, 127
1, 224275, Note_off_c, 4, 62, 64
1, 224276, Note_on_c, 4, 63, 127
1, 224327, Note_on_c, 4, 60, 127
1, 224336, Note_off_c, 4, 63, 64
1, 224427, Note_off_c, 4, 60, 64
1, 224437, Note_on_c, 4, 58, 127
1, 224533, Note_off_c, 4, 58, 64
1, 224549, Note_on_c, 2, 77, 118
1, 224549, Note_on_c, 2, 74, 118
1, 224550, Note_on_c, 4, 58, 127
1, 224734, Note_off_c, 4, 58, 64
1, 224735, Note_off_c, 2, 74, 64
1, 224735, Note_off_c, 2, 77, 64
1, 224748, Note_on_c, 2, 77, 118
1, 224748, Note_on_c, 2, 74, 118
1, 224748, Note_on_c, 4, 58, 127
1, 224934, Note_off_c, 4, 58, 64
1, 224958, Note_off_c, 2, 74, 64
1, 224958, Note_off_c, 2, 77, 64
1, 224963, Note_on_c, 2, 77, 118
1, 224964, Note_on_c, 4, 57, 127
1, 224964, Note_on_c, 2, 75, 118
1, 225239, Note_off_c, 2, 77, 64
1, 225239, Note_off_c, 2, 75, 64
1, 225403, Note_off_c, 4, 57, 64
1, 225403, Note_on_c, 4, 63, 127
1, 225567, Note_off_c, 4, 63, 64
1, 225567, Note_on_c, 4, 65, 127
1, 225620, Note_on_c, 4, 62, 127
1, 225628, Note_off_c, 4, 65, 64
1, 225717, Note_off_c, 4, 62, 64
1, 225725, Note_on_c, 4, 60, 127
1, 225824, Note_off_c, 4, 60, 64
1, 225826, Note_on_c, 1, 87, 114
1, 225827, Note_on_c, 1, 81, 112
1, 225833, Note_on_c, 4, 60, 127
1, 226011, Note_off_c, 1, 87, 64
1, 226012, Note_off_c, 1, 81, 64
1, 226018, Note_off_c, 4, 60, 64
1, 226035, Note_on_c, 1, 81, 112
1, 226037, Note_on_c, 1, 87, 114
1, 226044, Note_on_c, 4, 60, 127
1, 226235, Note_off_c, 4, 60, 64
1, 226249, Note_off_c, 1, 81, 64
1, 226251, Note_off_c, 1, 87, 64
1, 226254, Note_on_c, 1, 86, 119
1, 226255, Note_on_c, 1, 82, 117
1, 226261, Note_on_c, 4, 58, 127
1, 226527, Note_off_c, 1, 86, 64
1, 226527, Note_off_c, 1, 82, 64
1, 226653, Note_off_c, 4, 58, 64
1, 226695, Note_on_c, 2, 74, 118
1, 226697, Note_on_c, 4, 58, 127
1, 226849, Note_on_c, 2, 75, 118
1, 226853, Note_off_c, 2, 74, 64
1, 226854, Note_off_c, 4, 58, 64
1, 226855, Note_on_c, 4, 60, 127
1, 226905, Note_on_c, 2, 77, 118
1, 226906, Note_on_c, 4, 53, 127
1, 226906, Note_on_c, 4, 62, 127
1, 226909, Note_off_c, 2, 75, 64
1, 226914, Note_off_c, 4, 60, 64
1, 227004, Note_on_c, 1, 79, 117
1, 227004, Note_on_c, 4, 63, 127
1, 227015, Note_off_c, 4, 62, 64
1, 227015, Note_off_c, 2, 77, 64
1, 227099, Note_on_c, 2, 75, 118
1, 227100, Note_on_c, 4, 60, 127
1, 227110, Note_off_c, 4, 63, 64
1, 227110, Note_off_c, 1, 79, 64
1, 227195, Note_on_c, 2, 72, 118
1, 227195, Note_on_c, 4, 57, 127
1, 227205, Note_off_c, 4, 60, 64
1, 227205, Note_off_c, 2, 75, 64
1, 227296, Note_on_c, 2, 74, 118
1, 227297, Note_on_c, 4, 58, 127
1, 227306, Note_off_c, 4, 57, 64
1, 227307, Note_off_c, 2, 72, 64
1, 227393, Note_on_c, 2, 75, 118
1, 227394, Note_on_c, 4, 60, 127
1, 227403, Note_off_c, 4, 58, 64
1, 227404, Note_off_c, 2, 74, 64
1, 227490, Note_on_c, 2, 77, 118
1, 227491, Note_on_c, 4, 62, 127
1, 227500, Note_off_c, 4, 60, 64
1, 227501, Note_off_c, 2, 75, 64
1, 227583, Note_on_c, 1, 79, 117
1, 227584, Note_on_c, 4, 63, 127
1, 227592, Note_off_c, 4, 62, 64
1, 227593, Note_off_c, 2, 77, 64
1, 227680, Note_on_c, 2, 75, 118
1, 227681, Note_on_c, 4, 60, 127
1, 227690, Note_off_c, 4, 63, 64
1, 227691, Note_off_c, 1, 79, 64
1, 227779, Note_on_c, 2, 72, 118
1, 227780, Note_on_c, 4, 57, 127
1, 227790, Note_off_c, 2, 75, 64
1, 227790, Note_off_c, 4, 60, 64
1, 227877, Note_on_c, 2, 74, 118
1, 227878, Note_on_c, 4, 58, 127
1, 227887, Note_off_c, 4, 57, 64
1, 227888, Note_off_c, 2, 72, 64
1, 227976, Note_on_c, 2, 75, 118
1, 227976, Note_on_c, 4, 60, 127
1, 227986, Note_off_c, 4, 58, 64
1, 227987, Note_off_c, 2, 74, 64
1, 228065, Note_on_c, 2, 77, 118
1, 228070, Note_on_c, 4, 62, 127
1, 228080, Note_off_c, 4, 60, 64
1, 228080, Note_off_c, 2, 75, 64
1, 228160, Note_on_c, 1, 87, 119
1, 228174, Note_off_c, 2, 77, 64
1, 228262, Note_off_c, 4, 53, 64
1, 228270, Note_on_c, 1, 86, 119
1, 228276, Note_off_c, 1, 87, 64
1, 228363, Note_on_c, 1, 84, 119
1, 228378, Note_off_c, 1, 86, 64
1, 228460, Note_on_c, 1, 82, 113
1, 228472, Note_off_c, 1, 84, 64
1, 228561, Note_on_c, 1, 81, 113
1, 228570, Note_off_c, 1, 82, 64
1, 228664, Note_on_c, 1, 79, 113
1, 228672, Note_off_c, 1, 81, 64
1, 228756, Note_on_c, 2, 77, 114
1, 228774, Note_off_c, 1, 79, 64
1, 228847, Note_on_c, 2, 76, 114
1, 228868, Note_off_c, 2, 77, 64
1, 228955, Note_on_c, 2, 75, 114
1, 228958, Note_off_c, 2, 76, 64
1, 229060, Note_on_c, 2, 74, 114
1, 229068, Note_off_c, 2, 75, 64
1, 229162, Note_on_c, 2, 72, 114
1, 229173, Note_off_c, 2, 74, 64
1, 229264, Note_off_c, 2, 72, 64
1, 229268, Note_on_c, 2, 77, 114
1, 229328, Note_off_c, 4, 62, 64
1, 229427, Note_off_c, 2, 77, 64
1, 229430, Note_on_c, 1, 79, 117
1, 229487, Note_on_c, 2, 70, 119
1, 229488, Note_on_c, 4, 65, 127
1, 229488, Note_on_c, 4, 53, 127
1, 229489, Note_on_c, 4, 62, 127
1, 229492, Note_off_c, 1, 79, 64
1, 229673, Note_off_c, 4, 53, 64
1, 229673, Note_off_c, 2, 70, 64
1, 229674, Note_off_c, 4, 62, 64
1, 229674, Note_off_c, 4, 65, 64
1, 229690, Note_on_c, 2, 69, 119
1, 229691, Note_on_c, 4, 63, 127
1, 229691, Note_on_c, 4, 53, 127
1, 229692, Note_on_c, 4, 60, 127
1, 229875, Note_off_c, 2, 69, 64
1, 229876, Note_off_c, 4, 53, 64
1, 229876, Note_off_c, 4, 63, 64
1, 229877, Note_off_c, 4, 60, 64
1, 229903, Note_on_c, 2, 70, 119
1, 229905, Note_on_c, 4, 62, 127
1, 229906, Note_on_c, 4, 58, 127
1, 230122, Note_on_c, 4, 46, 127
1, 230168, Note_off_c, 2, 70, 64
1, 230170, Note_off_c, 4, 62, 64
1, 230171, Note_off_c, 4, 58, 64
1, 230330, Note_on_c, 1, 79, 117
1, 230330, Note_on_c, 2, 75, 118
1, 230488, Note_off_c, 2, 75, 64
1, 230488, Note_off_c, 1, 79, 64
1, 230493, Note_on_c, 2, 77, 118
1, 230493, Note_on_c, 2, 74, 118
1, 230537, Note_off_c, 2, 74, 64
1, 230537, Note_off_c, 2, 77, 64
1, 230545, Note_on_c, 2, 77, 118
1, 230549, Note_on_c, 2, 74, 118
1, 230756, Note_off_c, 2, 77, 64
1, 230760, Note_off_c, 2, 74, 64
1, 230763, Note_on_c, 2, 70, 119
1, 230966, Note_off_c, 2, 70, 64
1, 230976, Note_on_c, 1, 81, 117
1, 230976, Note_on_c, 2, 75, 118
1, 231131, Note_off_c, 1, 81, 64
1, 231133, Note_off_c, 2, 75, 64
1, 231134, Note_on_c, 1, 82, 117
1, 231135, Note_on_c, 2, 74, 118
1, 231177, Note_off_c, 1, 82, 64
1, 231178, Note_off_c, 2, 74, 64
1, 231184, Note_on_c, 1, 82, 117
1, 231190, Note_on_c, 2, 74, 118
1, 231394, Note_off_c, 1, 82, 64
1, 231400, Note_off_c, 2, 74, 64
1, 231404, Note_on_c, 4, 58, 127
1, 231458, Note_off_c, 4, 46, 64
1, 231624, Note_off_c, 4, 58, 64
1, 231624, Note_on_c, 4, 55, 127
1, 231624, Note_on_c, 2, 74, 121
1, 231783, Note_on_c, 2, 70, 122
1, 231796, Note_off_c, 2, 74, 64
1, 231845, Note_on_c, 4, 67, 125
1, 231846, Note_on_c, 2, 75, 121
1, 231851, Note_off_c, 4, 55, 64
1, 231852, Note_on_c, 4, 51, 127
1, 231856, Note_off_c, 2, 70, 64
1, 232071, Note_off_c, 4, 51, 64
1, 232071, Note_on_c, 4, 48, 127
1, 232287, Note_off_c, 4, 67, 64
1, 232289, Note_off_c, 2, 75, 64
1, 232294, Note_off_c, 4, 48, 64
1, 232295, Note_on_c, 4, 53, 127
1, 232296, Note_on_c, 2, 72, 121
1, 232296, Note_on_c, 4, 63, 127
1, 232469, Note_on_c, 2, 69, 122
1, 232477, Note_off_c, 4, 63, 64
1, 232477, Note_off_c, 2, 72, 64
1, 232524, Note_off_c, 4, 53, 64
1, 232531, Note_on_c, 2, 70, 122
1, 232531, Note_on_c, 4, 58, 127
1, 232533, Note_on_c, 4, 62, 127
1, 232537, Note_off_c, 2, 69, 64
1, 232780, Note_on_c, 4, 46, 127
1, 232856, Note_off_c, 4, 58, 64
1, 232856, Note_off_c, 2, 70, 64
1, 232858, Note_off_c, 4, 62, 64
1, 233471, Note_off_c, 4, 46, 64
1, 233704, Note_on_c, 2, 70, 119
1, 233758, Note_off_c, 2, 70, 64
1, 233785, Note_on_c, 2, 70, 119
1, 233867, Note_on_c, 4, 67, 121
1, 233867, Note_on_c, 4, 63, 127
1, 233921, Note_off_c, 4, 63, 64
1, 233922, Note_off_c, 4, 67, 64
1, 233949, Note_on_c, 4, 67, 121
1, 233950, Note_on_c, 4, 63, 127
1, 234032, Note_on_c, 1, 82, 113
1, 234088, Note_off_c, 1, 82, 64
1, 234117, Note_on_c, 1, 82, 113
1, 234158, Note_off_c, 4, 67, 64
1, 234158, Note_off_c, 4, 63, 64
1, 234201, Note_on_c, 4, 65, 127
1, 234201, Note_on_c, 4, 62, 127
1, 234263, Note_off_c, 4, 62, 64
1, 234264, Note_off_c, 4, 65, 64
1, 234283, Note_on_c, 4, 65, 127
1, 234284, Note_on_c, 4, 62, 127
1, 234360, Note_off_c, 1, 82, 64
1, 234366, Note_on_c, 1, 80, 113
1, 234437, Note_off_c, 1, 80, 64
1, 234451, Note_on_c, 1, 80, 113
1, 234451, Note_on_c, 4, 63, 127
1, 234453, Note_off_c, 4, 62, 64
1, 234454, Note_off_c, 4, 65, 64
1, 234480, Note_off_c, 2, 70, 64
1, 234494, Note_on_c, 1, 79, 113
1, 234506, Note_off_c, 1, 80, 64
1, 234534, Note_on_c, 2, 77, 114
1, 234535, Note_on_c, 4, 55, 127
1, 234542, Note_off_c, 4, 63, 64
1, 234548, Note_off_c, 1, 79, 64
1, 234575, Note_on_c, 2, 75, 114
1, 234589, Note_off_c, 2, 77, 64
1, 234616, Note_on_c, 2, 72, 114
1, 234616, Note_on_c, 4, 56, 127
1, 234625, Note_off_c, 4, 55, 64
1, 234630, Note_off_c, 2, 75, 64
1, 234656, Note_on_c, 2, 75, 114
1, 234670, Note_off_c, 2, 72, 64
1, 234698, Note_on_c, 2, 74, 114
1, 234699, Note_on_c, 4, 58, 127
1, 234708, Note_off_c, 4, 56, 64
1, 234713, Note_off_c, 2, 75, 64
1, 234740, Note_on_c, 2, 77, 114
1, 234753, Note_off_c, 2, 74, 64
1, 234781, Note_on_c, 2, 75, 114
1, 234781, Note_on_c, 4, 60, 127
1, 234789, Note_off_c, 4, 58, 64
1, 234794, Note_off_c, 2, 77, 64
1, 234821, Note_on_c, 1, 79, 113
1, 234835, Note_off_c, 2, 75, 64
1, 234863, Note_on_c, 2, 77, 114
1, 234863, Note_on_c, 4, 62, 127
1, 234871, Note_off_c, 4, 60, 64
1, 234876, Note_off_c, 1, 79, 64
1, 234903, Note_on_c, 1, 80, 113
1, 234916, Note_off_c, 2, 77, 64
1, 234944, Note_on_c, 1, 79, 113
1, 234945, Note_on_c, 4, 63, 127
1, 234953, Note_off_c, 4, 62, 64
1, 234959, Note_off_c, 1, 80, 64
1, 235027, Note_on_c, 2, 70, 119
1, 235081, Note_off_c, 4, 63, 64
1, 235082, Note_off_c, 1, 79, 64
1, 235095, Note_off_c, 2, 70, 64
1, 235108, Note_on_c, 2, 70, 119
1, 235189, Note_on_c, 4, 67, 121
1, 235189, Note_on_c, 4, 63, 127
1, 235258, Note_off_c, 4, 63, 64
1, 235259, Note_off_c, 4, 67, 64
1, 235272, Note_on_c, 4, 67, 121
1, 235272, Note_on_c, 4, 63, 127
1, 235357, Note_on_c, 1, 82, 113
1, 235429, Note_off_c, 1, 82, 64
1, 235444, Note_on_c, 1, 82, 113
1, 235489, Note_off_c, 4, 63, 64
1, 235490, Note_off_c, 4, 67, 64
1, 235533, Note_on_c, 4, 65, 127
1, 235533, Note_on_c, 4, 62, 127
1, 235601, Note_off_c, 4, 62, 64
1, 235601, Note_off_c, 4, 65, 64
1, 235615, Note_on_c, 4, 65, 127
1, 235616, Note_on_c, 4, 62, 127
1, 235691, Note_off_c, 1, 82, 64
1, 235698, Note_on_c, 1, 80, 113
1, 235767, Note_off_c, 1, 80, 64
1, 235774, Note_off_c, 4, 65, 64
1, 235774, Note_off_c, 4, 62, 64
1, 235780, Note_on_c, 1, 80, 113
1, 235781, Note_on_c, 4, 63, 127
1, 235807, Note_off_c, 2, 70, 64
1, 235821, Note_off_c, 1, 80, 64
1, 235821, Note_on_c, 1, 79, 113
1, 235861, Note_off_c, 1, 79, 64
1, 235861, Note_on_c, 2, 77, 114
1, 235862, Note_on_c, 2, 70, 119
1, 235862, Note_on_c, 4, 67, 121
1, 235870, Note_off_c, 4, 63, 64
1, 235902, Note_off_c, 2, 77, 64
1, 235903, Note_on_c, 2, 75, 114
1, 235930, Note_off_c, 2, 70, 64
1, 235945, Note_off_c, 2, 75, 64
1, 235946, Note_on_c, 1, 80, 113
1, 235946, Note_on_c, 2, 74, 114
1, 235947, Note_on_c, 2, 70, 119
1, 235947, Note_on_c, 4, 65, 127
1, 235954, Note_off_c, 4, 67, 64
1, 236024, Note_off_c, 2, 70, 64
1, 236032, Note_on_c, 1, 79, 113
1, 236032, Note_on_c, 2, 75, 114
1, 236033, Note_on_c, 2, 70, 119
1, 236033, Note_on_c, 4, 63, 127
1, 236041, Note_off_c, 4, 65, 64
1, 236042, Note_off_c, 2, 74, 64
1, 236042, Note_off_c, 1, 80, 64
1, 236112, Note_off_c, 2, 70, 64
1, 236112, Note_off_c, 2, 75, 64
1, 236112, Note_off_c, 1, 79, 64
1, 236119, Note_on_c, 1, 79, 113
1, 236120, Note_on_c, 2, 75, 114
1, 236120, Note_on_c, 4, 58, 127
1, 236129, Note_off_c, 4, 63, 64
1, 236196, Note_off_c, 1, 79, 64
1, 236196, Note_off_c, 2, 75, 64
1, 236204, Note_on_c, 2, 77, 114
1, 236204, Note_on_c, 2, 74, 114
1, 236205, Note_on_c, 2, 70, 119
1, 236280, Note_off_c, 4, 58, 64
1, 236287, Note_on_c, 4, 58, 127
1, 236363, Note_off_c, 2, 70, 64
1, 236364, Note_off_c, 2, 74, 64
1, 236364, Note_off_c, 2, 77, 64
1, 236370, Note_on_c, 2, 77, 105
1, 236445, Note_off_c, 4, 58, 64
1, 236452, Note_off_c, 2, 77, 64
1, 236453, Note_on_c, 2, 76, 101
1, 236453, Note_on_c, 4, 58, 127
1, 236494, Note_on_c, 4, 65, 127
1, 236496, Note_on_c, 2, 77, 101
1, 236502, Note_off_c, 2, 76, 64
1, 236534, Note_on_c, 4, 62, 127
1, 236535, Note_on_c, 2, 76, 101
1, 236542, Note_off_c, 2, 77, 64
1, 236543, Note_off_c, 4, 58, 64
1, 236546, Note_off_c, 4, 65, 64
1, 236573, Note_on_c, 4, 65, 127
1, 236574, Note_on_c, 2, 77, 101
1, 236581, Note_off_c, 2, 76, 64
1, 236612, Note_on_c, 4, 58, 127
1, 236614, Note_on_c, 2, 76, 101
1, 236620, Note_off_c, 2, 77, 64
1, 236621, Note_off_c, 4, 62, 64
1, 236625, Note_off_c, 4, 65, 64
1, 236652, Note_on_c, 4, 65, 127
1, 236653, Note_on_c, 2, 77, 101
1, 236660, Note_off_c, 2, 76, 64
1, 236682, Note_on_c, 2, 76, 101
1, 236691, Note_on_c, 4, 62, 127
1, 236699, Note_off_c, 2, 77, 64
1, 236700, Note_off_c, 4, 58, 64
1, 236704, Note_off_c, 4, 65, 64
1, 236730, Note_on_c, 4, 65, 127
1, 236731, Note_on_c, 2, 77, 101
1, 236740, Note_off_c, 2, 76, 64
1, 236757, Note_off_c, 2, 77, 64
1, 236768, Note_on_c, 1, 87, 121
1, 236768, Note_on_c, 4, 57, 127
1, 236776, Note_off_c, 4, 62, 64
1, 236781, Note_off_c, 4, 65, 64
1, 236808, Note_on_c, 4, 65, 127
1, 236848, Note_on_c, 4, 60, 127
1, 236858, Note_off_c, 4, 57, 64
1, 236862, Note_off_c, 4, 65, 64
1, 236889, Note_on_c, 1, 84, 115
1, 236889, Note_on_c, 4, 65, 127
1, 236890, Note_off_c, 1, 87, 64
1, 236930, Note_on_c, 1, 81, 113
1, 236930, Note_on_c, 4, 57, 127
1, 236931, Note_off_c, 1, 84, 64
1, 236938, Note_off_c, 4, 60, 64
1, 236943, Note_off_c, 4, 65, 64
1, 236970, Note_on_c, 4, 65, 127
1, 236984, Note_off_c, 1, 81, 64
1, 237010, Note_on_c, 2, 77, 101
1, 237011, Note_on_c, 4, 60, 127
1, 237019, Note_off_c, 4, 57, 64
1, 237024, Note_off_c, 4, 65, 64
1, 237051, Note_on_c, 4, 65, 127
1, 237091, Note_on_c, 4, 58, 127
1, 237093, Note_on_c, 2, 76, 101
1, 237100, Note_off_c, 4, 60, 64
1, 237101, Note_off_c, 2, 77, 64
1, 237106, Note_off_c, 4, 65, 64
1, 237132, Note_on_c, 4, 65, 127
1, 237134, Note_on_c, 2, 77, 101
1, 237141, Note_off_c, 2, 76, 64
1, 237174, Note_on_c, 4, 62, 127
1, 237175, Note_on_c, 2, 76, 101
1, 237181, Note_off_c, 2, 77, 64
1, 237182, Note_off_c, 4, 58, 64
1, 237187, Note_off_c, 4, 65, 64
1, 237213, Note_on_c, 4, 65, 127
1, 237215, Note_on_c, 2, 77, 101
1, 237221, Note_off_c, 2, 76, 64
1, 237252, Note_on_c, 4, 58, 127
1, 237254, Note_on_c, 2, 76, 101
1, 237260, Note_off_c, 2, 77, 64
1, 237261, Note_off_c, 4, 62, 64
1, 237266, Note_off_c, 4, 65, 64
1, 237293, Note_on_c, 2, 77, 105
1, 237293, Note_on_c, 4, 65, 127
1, 237300, Note_off_c, 2, 76, 64
1, 237330, Note_on_c, 2, 76, 105
1, 237331, Note_on_c, 4, 62, 127
1, 237339, Note_off_c, 2, 77, 64
1, 237340, Note_off_c, 4, 58, 64
1, 237345, Note_off_c, 4, 65, 64
1, 237372, Note_on_c, 4, 65, 127
1, 237373, Note_on_c, 2, 77, 110
1, 237377, Note_off_c, 2, 76, 64
1, 237412, Note_off_c, 2, 77, 64
1, 237412, Note_on_c, 1, 87, 121
1, 237413, Note_on_c, 1, 87, 121
1, 237413, Note_on_c, 4, 57, 127
1, 237414, Note_off_c, 1, 87, 64
1, 237421, Note_off_c, 4, 62, 64
1, 237425, Note_off_c, 4, 65, 64
1, 237453, Note_on_c, 4, 65, 127
1, 237495, Note_on_c, 4, 60, 127
1, 237506, Note_off_c, 4, 57, 64
1, 237510, Note_off_c, 4, 65, 64
1, 237538, Note_on_c, 1, 84, 115
1, 237538, Note_on_c, 4, 65, 127
1, 237541, Note_off_c, 1, 87, 64
1, 237578, Note_on_c, 1, 81, 113
1, 237578, Note_on_c, 4, 57, 127
1, 237580, Note_off_c, 1, 84, 64
1, 237588, Note_off_c, 4, 60, 64
1, 237592, Note_off_c, 4, 65, 64
1, 237621, Note_on_c, 4, 65, 127
1, 237635, Note_off_c, 1, 81, 64
1, 237665, Note_on_c, 2, 77, 110
1, 237666, Note_on_c, 4, 60, 127
1, 237678, Note_off_c, 4, 57, 64
1, 237684, Note_off_c, 4, 65, 64
1, 237693, Note_on_c, 2, 75, 114
1, 237704, Note_off_c, 2, 77, 64
1, 237722, Note_on_c, 2, 77, 110
1, 237722, Note_on_c, 4, 65, 127
1, 237732, Note_off_c, 2, 75, 64
1, 237749, Note_on_c, 2, 75, 114
1, 237756, Note_off_c, 2, 77, 64
1, 237772, Note_off_c, 2, 75, 64
1, 237772, Note_on_c, 2, 74, 114
1, 237773, Note_on_c, 4, 58, 127
1, 237781, Note_off_c, 4, 60, 64
1, 237787, Note_off_c, 4, 65, 64
1, 237817, Note_on_c, 2, 75, 114
1, 237825, Note_off_c, 2, 74, 64
1, 237861, Note_on_c, 2, 77, 110
1, 237869, Note_off_c, 2, 75, 64
1, 237904, Note_on_c, 1, 79, 109
1, 237911, Note_off_c, 2, 77, 64
1, 237947, Note_on_c, 4, 62, 127
1, 237947, Note_on_c, 2, 77, 110
1, 237949, Note_off_c, 4, 58, 64
1, 237954, Note_off_c, 1, 79, 64
1, 237990, Note_on_c, 1, 79, 109
1, 237997, Note_off_c, 2, 77, 64
1, 238034, Note_on_c, 1, 81, 109
1, 238042, Note_off_c, 1, 79, 64
1, 238075, Note_on_c, 1, 82, 109
1, 238083, Note_off_c, 1, 81, 64
1, 238117, Note_on_c, 1, 78, 109
1, 238118, Note_on_c, 4, 63, 127
1, 238120, Note_off_c, 4, 62, 64
1, 238125, Note_off_c, 1, 82, 64
1, 238160, Note_on_c, 1, 79, 109
1, 238166, Note_off_c, 1, 78, 64
1, 238202, Note_on_c, 2, 74, 114
1, 238209, Note_off_c, 1, 79, 64
1, 238245, Note_on_c, 2, 75, 114
1, 238253, Note_off_c, 2, 74, 64
1, 238289, Note_on_c, 2, 71, 113
1, 238296, Note_off_c, 2, 75, 64
1, 238334, Note_on_c, 2, 72, 114
1, 238342, Note_off_c, 2, 71, 64
1, 238375, Note_off_c, 4, 63, 64
1, 238380, Note_on_c, 4, 67, 121
1, 238380, Note_on_c, 4, 63, 127
1, 238380, Note_on_c, 4, 51, 127
1, 238389, Note_off_c, 2, 72, 64
1, 238428, Note_on_c, 2, 72, 114
1, 238436, Note_off_c, 4, 67, 64
1, 238478, Note_off_c, 4, 51, 64
1, 238479, Note_off_c, 4, 63, 64
1, 238479, Note_on_c, 2, 70, 123
1, 238480, Note_on_c, 4, 62, 127
1, 238480, Note_on_c, 4, 53, 127
1, 238487, Note_off_c, 2, 72, 64
1, 238569, Note_off_c, 4, 62, 64
1, 238570, Note_off_c, 2, 70, 64
1, 238575, Note_on_c, 2, 69, 123
1, 238576, Note_on_c, 4, 60, 127
1, 238658, Note_off_c, 4, 53, 64
1, 238665, Note_on_c, 4, 53, 127
1, 238708, Note_on_c, 4, 55, 127
1, 238716, Note_off_c, 4, 53, 64
1, 238752, Note_on_c, 4, 51, 127
1, 238758, Note_off_c, 4, 55, 64
1, 238794, Note_on_c, 4, 53, 127
1, 238801, Note_off_c, 4, 51, 64
1, 238837, Note_on_c, 4, 50, 127
1, 238844, Note_off_c, 4, 53, 64
1, 238922, Note_on_c, 2, 77, 114
1, 239012, Note_off_c, 2, 77, 64
1, 239012, Note_on_c, 2, 75, 114
1, 239095, Note_off_c, 4, 60, 64
1, 239096, Note_off_c, 2, 69, 64
1, 239103, Note_off_c, 2, 75, 64
1, 239103, Note_on_c, 2, 74, 114
1, 239103, Note_on_c, 4, 65, 127
1, 239104, Note_on_c, 4, 62, 127
1, 239191, Note_off_c, 4, 62, 64
1, 239192, Note_off_c, 4, 65, 64
1, 239192, Note_on_c, 4, 67, 121
1, 239193, Note_on_c, 4, 63, 127
1, 239277, Note_off_c, 2, 74, 64
1, 239277, Note_on_c, 2, 71, 113
1, 239351, Note_off_c, 2, 71, 64
1, 239366, Note_on_c, 2, 71, 113
1, 239449, Note_off_c, 4, 63, 64
1, 239450, Note_off_c, 4, 67, 64
1, 239457, Note_off_c, 2, 71, 64
1, 239458, Note_on_c, 2, 72, 114
1, 239458, Note_on_c, 4, 67, 121
1, 239459, Note_on_c, 4, 63, 127
1, 239544, Note_off_c, 4, 63, 64
1, 239545, Note_off_c, 4, 67, 64
1, 239545, Note_on_c, 2, 69, 119
1, 239546, Note_on_c, 4, 65, 127
1, 239628, Note_off_c, 2, 72, 64
1, 239633, Note_on_c, 1, 79, 113
1, 239721, Note_on_c, 2, 77, 114
1, 239730, Note_off_c, 1, 79, 64
1, 239805, Note_off_c, 2, 69, 64
1, 239805, Note_off_c, 4, 65, 64
1, 239808, Note_on_c, 2, 75, 114
1, 239809, Note_on_c, 2, 69, 119
1, 239809, Note_on_c, 4, 65, 127
1, 239818, Note_off_c, 2, 77, 64
1, 239896, Note_off_c, 4, 65, 64
1, 239896, Note_off_c, 2, 69, 64
1, 239897, Note_on_c, 2, 70, 119
1, 239897, Note_on_c, 4, 67, 121
1, 239976, Note_off_c, 2, 75, 64
1, 239983, Note_on_c, 2, 73, 114
1, 240056, Note_off_c, 2, 73, 64
1, 240071, Note_on_c, 2, 73, 114
1, 240150, Note_off_c, 2, 73, 64
1, 240151, Note_off_c, 4, 67, 64
1, 240151, Note_off_c, 2, 70, 64
1, 240158, Note_on_c, 2, 70, 119
1, 240158, Note_on_c, 2, 74, 114
1, 240159, Note_on_c, 4, 67, 121
1, 240232, Note_off_c, 4, 50, 64
1, 240240, Note_off_c, 4, 67, 64
1, 240240, Note_off_c, 2, 74, 64
1, 240240, Note_off_c, 2, 70, 64
1, 240248, Note_on_c, 2, 70, 123
1, 240249, Note_on_c, 4, 50, 127
1, 240261, Note_on_c, 2, 74, 121
1, 240270, Note_on_c, 2, 77, 121
1, 240281, Note_on_c, 1, 82, 123
1, 240293, Note_on_c, 4, 58, 127
1, 240335, Note_on_c, 4, 53, 127
1, 240344, Note_off_c, 4, 50, 64
1, 240349, Note_off_c, 4, 58, 64
1, 240377, Note_on_c, 4, 58, 127
1, 240418, Note_on_c, 4, 50, 127
1, 240428, Note_off_c, 4, 53, 64
1, 240432, Note_off_c, 4, 58, 64
1, 240460, Note_on_c, 4, 58, 127
1, 240503, Note_on_c, 4, 53, 127
1, 240511, Note_off_c, 4, 50, 64
1, 240516, Note_off_c, 4, 58, 64
1, 240521, Note_off_c, 2, 70, 64
1, 240530, Note_off_c, 2, 74, 64
1, 240541, Note_off_c, 2, 77, 64
1, 240544, Note_on_c, 4, 58, 127
1, 240551, Note_off_c, 1, 82, 64
1, 240586, Note_on_c, 4, 67, 125
1, 240587, Note_on_c, 4, 51, 127
1, 240598, Note_off_c, 4, 53, 64
1, 240599, Note_on_c, 2, 72, 121
1, 240604, Note_off_c, 4, 58, 64
1, 240609, Note_on_c, 2, 75, 121
1, 240619, Note_on_c, 1, 79, 123
1, 240631, Note_on_c, 4, 60, 127
1, 240673, Note_on_c, 4, 55, 127
1, 240682, Note_off_c, 4, 51, 64
1, 240687, Note_off_c, 4, 60, 64
1, 240716, Note_on_c, 4, 60, 127
1, 240757, Note_on_c, 4, 51, 127
1, 240767, Note_off_c, 4, 55, 64
1, 240771, Note_off_c, 4, 60, 64
1, 240799, Note_on_c, 4, 60, 127
1, 240841, Note_on_c, 4, 55, 127
1, 240850, Note_off_c, 4, 51, 64
1, 240855, Note_off_c, 4, 60, 64
1, 240883, Note_on_c, 4, 60, 127
1, 240887, Note_off_c, 4, 67, 64
1, 240896, Note_off_c, 2, 72, 64
1, 240906, Note_off_c, 2, 75, 64
1, 240915, Note_off_c, 1, 79, 64
1, 240925, Note_on_c, 1, 79, 117
1, 240925, Note_on_c, 4, 53, 127
1, 240934, Note_off_c, 4, 55, 64
1, 240938, Note_off_c, 4, 60, 64
1, 240967, Note_on_c, 2, 77, 118
1, 240968, Note_on_c, 4, 62, 127
1, 240974, Note_off_c, 1, 79, 64
1, 241008, Note_on_c, 2, 75, 118
1, 241008, Note_on_c, 4, 58, 127
1, 241015, Note_off_c, 2, 77, 64
1, 241017, Note_off_c, 4, 53, 64
1, 241022, Note_off_c, 4, 62, 64
1, 241049, Note_on_c, 2, 74, 118
1, 241049, Note_on_c, 4, 62, 127
1, 241056, Note_off_c, 2, 75, 64
1, 241083, Note_off_c, 2, 74, 64
1, 241090, Note_on_c, 2, 74, 118
1, 241091, Note_on_c, 4, 53, 127
1, 241100, Note_off_c, 4, 58, 64
1, 241105, Note_off_c, 4, 62, 64
1, 241132, Note_on_c, 2, 72, 118
1, 241133, Note_on_c, 4, 63, 127
1, 241140, Note_off_c, 2, 74, 64
1, 241176, Note_on_c, 2, 70, 119
1, 241176, Note_on_c, 4, 60, 127
1, 241182, Note_off_c, 2, 72, 64
1, 241184, Note_off_c, 4, 53, 64
1, 241190, Note_off_c, 4, 63, 64
1, 241218, Note_on_c, 2, 69, 119
1, 241218, Note_on_c, 4, 63, 127
1, 241226, Note_off_c, 2, 70, 64
1, 241232, Note_off_c, 4, 60, 64
1, 241260, Note_on_c, 4, 62, 127
1, 241260, Note_on_c, 2, 72, 118
1, 241261, Note_on_c, 4, 58, 127
1, 241268, Note_off_c, 2, 69, 64
1, 241276, Note_off_c, 4, 63, 64
1, 241306, Note_on_c, 2, 70, 119
1, 241312, Note_off_c, 2, 72, 64
1, 241347, Note_on_c, 2, 74, 118
1, 241355, Note_off_c, 2, 70, 64
1, 241392, Note_on_c, 2, 72, 118
1, 241398, Note_off_c, 2, 74, 64
1, 241433, Note_on_c, 2, 75, 118
1, 241440, Note_off_c, 2, 72, 64
1, 241476, Note_on_c, 2, 74, 118
1, 241483, Note_off_c, 2, 75, 64
1, 241518, Note_on_c, 2, 77, 118
1, 241525, Note_off_c, 2, 74, 64
1, 241562, Note_on_c, 2, 75, 118
1, 241570, Note_off_c, 2, 77, 64
1, 241604, Note_on_c, 1, 79, 117
1, 241611, Note_off_c, 2, 75, 64
1, 241688, Note_off_c, 1, 79, 64
1, 241688, Note_on_c, 2, 77, 118
1, 241766, Note_off_c, 4, 58, 64
1, 241767, Note_off_c, 4, 62, 64
1, 241773, Note_on_c, 4, 65, 127
1, 241774, Note_on_c, 4, 62, 127
1, 241860, Note_on_c, 2, 74, 118
1, 241871, Note_off_c, 2, 77, 64
1, 241951, Note_off_c, 2, 74, 64
1, 241951, Note_on_c, 2, 71, 117
1, 242034, Note_off_c, 2, 71, 64
1, 242035, Note_on_c, 2, 74, 118
1, 242120, Note_off_c, 4, 65, 64
1, 242120, Note_off_c, 4, 62, 64
1, 242121, Note_on_c, 4, 67, 121
1, 242121, Note_on_c, 4, 63, 127
1, 242205, Note_off_c, 2, 74, 64
1, 242208, Note_on_c, 2, 72, 118
1, 242296, Note_off_c, 2, 72, 64
1, 242297, Note_on_c, 1, 78, 117
1, 242380, Note_off_c, 1, 78, 64
1, 242380, Note_on_c, 1, 79, 117
1, 242465, Note_off_c, 4, 63, 64
1, 242466, Note_off_c, 4, 67, 64
1, 242466, Note_on_c, 2, 69, 119
1, 242467, Note_on_c, 4, 65, 127
1, 242554, Note_on_c, 2, 75, 118
1, 242557, Note_off_c, 1, 79, 64
1, 242642, Note_off_c, 2, 75, 64
1, 242642, Note_on_c, 2, 73, 118
1, 242726, Note_off_c, 2, 73, 64
1, 242727, Note_on_c, 2, 75, 118
1, 242810, Note_off_c, 2, 69, 64
1, 242810, Note_off_c, 4, 65, 64
1, 242811, Note_on_c, 2, 70, 119
1, 242811, Note_on_c, 4, 67, 121
1, 242890, Note_off_c, 2, 75, 64
1, 242897, Note_on_c, 2, 74, 118
1, 242980, Note_off_c, 4, 67, 64
1, 242980, Note_off_c, 2, 70, 64
1, 242982, Note_off_c, 2, 74, 64
1, 242988, Note_on_c, 2, 70, 123
1, 242988, Note_on_c, 4, 50, 127
1, 243000, Note_on_c, 2, 74, 121
1, 243011, Note_on_c, 2, 77, 121
1, 243020, Note_on_c, 1, 82, 123
1, 243033, Note_on_c, 4, 58, 127
1, 243075, Note_on_c, 4, 53, 127
1, 243084, Note_off_c, 4, 50, 64
1, 243088, Note_off_c, 4, 58, 64
1, 243116, Note_on_c, 4, 58, 127
1, 243158, Note_on_c, 4, 50, 127
1, 243167, Note_off_c, 4, 53, 64
1, 243172, Note_off_c, 4, 58, 64
1, 243201, Note_on_c, 4, 58, 127
1, 243244, Note_on_c, 4, 53, 127
1, 243252, Note_off_c, 4, 50, 64
1, 243258, Note_off_c, 4, 58, 64
1, 243263, Note_off_c, 2, 70, 64
1, 243273, Note_off_c, 2, 74, 64
1, 243283, Note_off_c, 2, 77, 64
1, 243286, Note_on_c, 4, 58, 127
1, 243293, Note_off_c, 1, 82, 64
1, 243329, Note_on_c, 4, 67, 125
1, 243330, Note_on_c, 4, 51, 127
1, 243341, Note_off_c, 4, 53, 64
1, 243342, Note_on_c, 2, 72, 121
1, 243347, Note_off_c, 4, 58, 64
1, 243352, Note_on_c, 2, 75, 121
1, 243362, Note_on_c, 1, 79, 123
1, 243374, Note_on_c, 4, 60, 127
1, 243417, Note_on_c, 4, 55, 127
1, 243426, Note_off_c, 4, 51, 64
1, 243430, Note_off_c, 4, 60, 64
1, 243458, Note_on_c, 4, 60, 127
1, 243501, Note_on_c, 4, 51, 127
1, 243510, Note_off_c, 4, 55, 64
1, 243515, Note_off_c, 4, 60, 64
1, 243543, Note_on_c, 4, 60, 127
1, 243587, Note_on_c, 4, 55, 127
1, 243595, Note_off_c, 4, 51, 64
1, 243601, Note_off_c, 4, 60, 64
1, 243630, Note_on_c, 4, 60, 127
1, 243634, Note_off_c, 4, 67, 64
1, 243643, Note_off_c, 2, 72, 64
1, 243654, Note_off_c, 2, 75, 64
1, 243663, Note_off_c, 1, 79, 64
1, 243673, Note_on_c, 1, 79, 117
1, 243673, Note_on_c, 4, 53, 127
1, 243683, Note_off_c, 4, 55, 64
1, 243688, Note_off_c, 4, 60, 64
1, 243717, Note_off_c, 1, 79, 64
1, 243717, Note_on_c, 2, 77, 118
1, 243718, Note_on_c, 4, 62, 127
1, 243758, Note_off_c, 2, 77, 64
1, 243758, Note_on_c, 2, 75, 118
1, 243759, Note_on_c, 4, 58, 127
1, 243766, Note_off_c, 4, 53, 64
1, 243771, Note_off_c, 4, 62, 64
1, 243799, Note_off_c, 2, 75, 64
1, 243800, Note_on_c, 4, 62, 127
1, 243800, Note_on_c, 2, 74, 118
1, 243828, Note_off_c, 2, 74, 64
1, 243841, Note_on_c, 2, 74, 118
1, 243841, Note_on_c, 4, 53, 127
1, 243851, Note_off_c, 4, 58, 64
1, 243856, Note_off_c, 4, 62, 64
1, 243885, Note_off_c, 2, 74, 64
1, 243885, Note_on_c, 2, 72, 118
1, 243885, Note_on_c, 4, 63, 127
1, 243927, Note_off_c, 2, 72, 64
1, 243927, Note_on_c, 2, 70, 119
1, 243928, Note_on_c, 4, 60, 127
1, 243936, Note_off_c, 4, 53, 64
1, 243941, Note_off_c, 4, 63, 64
1, 243970, Note_off_c, 2, 70, 64
1, 243971, Note_on_c, 2, 69, 119
1, 243971, Note_on_c, 4, 63, 127
1, 243984, Note_off_c, 4, 60, 64
1, 244006, Note_off_c, 2, 69, 64
1, 244012, Note_on_c, 2, 69, 119
1, 244013, Note_on_c, 4, 62, 127
1, 244013, Note_on_c, 4, 55, 127
1, 244026, Note_off_c, 4, 63, 64
1, 244057, Note_on_c, 2, 70, 119
1, 244065, Note_off_c, 2, 69, 64
1, 244101, Note_on_c, 2, 72, 118
1, 244108, Note_off_c, 2, 70, 64
1, 244144, Note_on_c, 2, 74, 114
1, 244152, Note_off_c, 2, 72, 64
1, 244187, Note_on_c, 2, 75, 114
1, 244195, Note_off_c, 2, 74, 64
1, 244230, Note_on_c, 2, 77, 114
1, 244237, Note_off_c, 2, 75, 64
1, 244272, Note_on_c, 1, 79, 113
1, 244279, Note_off_c, 2, 77, 64
1, 244314, Note_on_c, 1, 81, 113
1, 244320, Note_off_c, 1, 79, 64
1, 244355, Note_off_c, 4, 55, 64
1, 244356, Note_off_c, 4, 62, 64
1, 244356, Note_on_c, 1, 82, 113
1, 244356, Note_on_c, 4, 50, 127
1, 244363, Note_off_c, 1, 81, 64
1, 244397, Note_on_c, 1, 84, 115
1, 244398, Note_on_c, 4, 58, 127
1, 244403, Note_off_c, 1, 82, 64
1, 244437, Note_on_c, 1, 86, 115
1, 244437, Note_on_c, 4, 53, 127
1, 244443, Note_off_c, 1, 84, 64
1, 244445, Note_off_c, 4, 50, 64
1, 244450, Note_off_c, 4, 58, 64
1, 244480, Note_on_c, 1, 81, 113
1, 244480, Note_on_c, 4, 58, 127
1, 244487, Note_off_c, 1, 86, 64
1, 244522, Note_on_c, 1, 82, 113
1, 244523, Note_on_c, 4, 50, 127
1, 244529, Note_off_c, 1, 81, 64
1, 244531, Note_off_c, 4, 53, 64
1, 244536, Note_off_c, 4, 58, 64
1, 244564, Note_on_c, 4, 58, 127
1, 244606, Note_on_c, 4, 53, 127
1, 244615, Note_off_c, 4, 50, 64
1, 244620, Note_off_c, 4, 58, 64
1, 244648, Note_on_c, 4, 58, 127
1, 244682, Note_off_c, 1, 82, 64
1, 244689, Note_on_c, 1, 79, 113
1, 244690, Note_on_c, 4, 51, 127
1, 244699, Note_off_c, 4, 53, 64
1, 244704, Note_off_c, 4, 58, 64
1, 244732, Note_on_c, 1, 81, 113
1, 244733, Note_on_c, 4, 58, 127
1, 244739, Note_off_c, 1, 79, 64
1, 244773, Note_on_c, 1, 82, 113
1, 244773, Note_on_c, 4, 55, 127
1, 244779, Note_off_c, 1, 81, 64
1, 244781, Note_off_c, 4, 51, 64
1, 244786, Note_off_c, 4, 58, 64
1, 244815, Note_on_c, 1, 78, 113
1, 244815, Note_on_c, 4, 58, 127
1, 244823, Note_off_c, 1, 82, 64
1, 244856, Note_on_c, 1, 79, 113
1, 244857, Note_on_c, 4, 51, 127
1, 244863, Note_off_c, 1, 78, 64
1, 244865, Note_off_c, 4, 55, 64
1, 244870, Note_off_c, 4, 58, 64
1, 244897, Note_on_c, 4, 58, 127
1, 244939, Note_on_c, 4, 55, 127
1, 244947, Note_off_c, 4, 51, 64
1, 244952, Note_off_c, 4, 58, 64
1, 244980, Note_on_c, 4, 58, 127
1, 245014, Note_off_c, 1, 79, 64
1, 245020, Note_on_c, 1, 79, 113
1, 245021, Note_on_c, 4, 53, 127
1, 245030, Note_off_c, 4, 55, 64
1, 245036, Note_off_c, 4, 58, 64
1, 245064, Note_off_c, 1, 79, 64
1, 245064, Note_on_c, 2, 77, 114
1, 245064, Note_on_c, 4, 62, 127
1, 245105, Note_off_c, 2, 77, 64
1, 245105, Note_on_c, 2, 75, 114
1, 245106, Note_on_c, 4, 58, 127
1, 245113, Note_off_c, 4, 53, 64
1, 245118, Note_off_c, 4, 62, 64
1, 245146, Note_off_c, 2, 75, 64
1, 245147, Note_on_c, 2, 74, 114
1, 245147, Note_on_c, 4, 62, 127
1, 245174, Note_off_c, 2, 74, 64
1, 245188, Note_on_c, 2, 74, 114
1, 245189, Note_on_c, 4, 53, 127
1, 245197, Note_off_c, 4, 58, 64
1, 245202, Note_off_c, 4, 62, 64
1, 245231, Note_off_c, 2, 74, 64
1, 245231, Note_on_c, 2, 72, 118
1, 245232, Note_on_c, 4, 63, 127
1, 245273, Note_off_c, 2, 72, 64
1, 245273, Note_on_c, 2, 70, 119
1, 245274, Note_on_c, 4, 60, 127
1, 245281, Note_off_c, 4, 53, 64
1, 245286, Note_off_c, 4, 63, 64
1, 245315, Note_off_c, 2, 70, 64
1, 245316, Note_on_c, 2, 69, 119
1, 245316, Note_on_c, 4, 63, 127
1, 245328, Note_off_c, 4, 60, 64
1, 245356, Note_off_c, 4, 63, 64
1, 245357, Note_off_c, 2, 69, 64
1, 245358, Note_on_c, 4, 62, 127
1, 245358, Note_on_c, 2, 70, 119
1, 245359, Note_on_c, 4, 58, 127
1, 245402, Note_on_c, 2, 72, 118
1, 245408, Note_off_c, 2, 70, 64
1, 245444, Note_on_c, 2, 74, 114
1, 245451, Note_off_c, 2, 72, 64
1, 245487, Note_on_c, 2, 75, 114
1, 245495, Note_off_c, 2, 74, 64
1, 245531, Note_on_c, 2, 77, 114
1, 245537, Note_off_c, 2, 75, 64
1, 245571, Note_on_c, 1, 79, 113
1, 245579, Note_off_c, 2, 77, 64
1, 245612, Note_on_c, 1, 81, 113
1, 245618, Note_off_c, 1, 79, 64
1, 245651, Note_on_c, 1, 82, 113
1, 245658, Note_off_c, 1, 81, 64
1, 245688, Note_on_c, 1, 78, 113
1, 245695, Note_off_c, 1, 82, 64
1, 245731, Note_on_c, 1, 79, 113
1, 245738, Note_off_c, 1, 78, 64
1, 245775, Note_off_c, 4, 62, 64
1, 245775, Note_off_c, 4, 58, 64
1, 245776, Note_on_c, 2, 75, 114
1, 245776, Note_on_c, 4, 63, 127
1, 245782, Note_off_c, 1, 79, 64
1, 245816, Note_on_c, 2, 72, 118
1, 245823, Note_off_c, 2, 75, 64
1, 245857, Note_off_c, 4, 63, 64
1, 245858, Note_on_c, 2, 74, 114
1, 245858, Note_on_c, 4, 60, 127
1, 245865, Note_off_c, 2, 72, 64
1, 245901, Note_on_c, 2, 75, 114
1, 245908, Note_off_c, 2, 74, 64
1, 245946, Note_off_c, 4, 60, 64
1, 245946, Note_on_c, 2, 72, 118
1, 245947, Note_on_c, 4, 65, 127
1, 245952, Note_off_c, 2, 75, 64
1, 245988, Note_on_c, 2, 69, 119
1, 245996, Note_off_c, 2, 72, 64
1, 246032, Note_off_c, 4, 65, 64
1, 246032, Note_on_c, 2, 70, 119
1, 246033, Note_on_c, 4, 62, 127
1, 246039, Note_off_c, 2, 69, 64
1, 246076, Note_on_c, 2, 72, 118
1, 246083, Note_off_c, 2, 70, 64
1, 246118, Note_on_c, 2, 74, 114
1, 246126, Note_off_c, 2, 72, 64
1, 246162, Note_on_c, 2, 75, 114
1, 246169, Note_off_c, 2, 74, 64
1, 246204, Note_on_c, 2, 77, 114
1, 246210, Note_off_c, 2, 75, 64
1, 246244, Note_on_c, 1, 79, 113
1, 246251, Note_off_c, 2, 77, 64
1, 246284, Note_on_c, 1, 81, 113
1, 246292, Note_off_c, 1, 79, 64
1, 246324, Note_on_c, 1, 82, 113
1, 246329, Note_off_c, 1, 81, 64
1, 246361, Note_on_c, 1, 78, 113
1, 246369, Note_off_c, 1, 82, 64
1, 246405, Note_on_c, 1, 79, 113
1, 246413, Note_off_c, 1, 78, 64
1, 246449, Note_off_c, 4, 62, 64
1, 246450, Note_on_c, 2, 75, 114
1, 246450, Note_on_c, 4, 51, 127
1, 246457, Note_off_c, 1, 79, 64
1, 246492, Note_on_c, 2, 72, 118
1, 246498, Note_off_c, 2, 75, 64
1, 246534, Note_off_c, 4, 51, 64
1, 246534, Note_on_c, 2, 74, 114
1, 246535, Note_on_c, 4, 48, 127
1, 246541, Note_off_c, 2, 72, 64
1, 246577, Note_on_c, 2, 75, 114
1, 246584, Note_off_c, 2, 74, 64
1, 246622, Note_off_c, 4, 48, 64
1, 246623, Note_on_c, 2, 72, 118
1, 246623, Note_on_c, 4, 53, 127
1, 246629, Note_off_c, 2, 75, 64
1, 246663, Note_on_c, 2, 69, 119
1, 246671, Note_off_c, 2, 72, 64
1, 246707, Note_off_c, 2, 69, 64
1, 246707, Note_off_c, 4, 53, 64
1, 246708, Note_on_c, 2, 70, 119
1, 246708, Note_on_c, 4, 58, 126
1, 246792, Note_off_c, 4, 58, 64
1, 246792, Note_on_c, 4, 53, 126
1, 246875, Note_on_c, 4, 46, 124
1, 246876, Note_off_c, 4, 53, 64
1, 246931, Note_off_c, 2, 70, 64
1, 246962, Note_on_c, 2, 70, 119
1, 247018, Note_off_c, 2, 70, 64
1, 247044, Note_off_c, 4, 46, 64
1, 247045, Note_on_c, 2, 70, 119
1, 247128, Note_on_c, 4, 67, 121
1, 247128, Note_on_c, 4, 63, 127
1, 247184, Note_off_c, 4, 63, 64
1, 247184, Note_off_c, 4, 67, 64
1, 247211, Note_on_c, 4, 67, 121
1, 247211, Note_on_c, 4, 63, 127
1, 247294, Note_on_c, 1, 82, 113
1, 247350, Note_off_c, 1, 82, 64
1, 247378, Note_on_c, 1, 82, 113
1, 247420, Note_off_c, 4, 63, 64
1, 247420, Note_off_c, 4, 67, 64
1, 247463, Note_on_c, 4, 65, 127
1, 247464, Note_on_c, 4, 62, 127
1, 247524, Note_off_c, 4, 62, 64
1, 247525, Note_off_c, 4, 65, 64
1, 247546, Note_on_c, 4, 65, 127
1, 247546, Note_on_c, 4, 62, 127
1, 247621, Note_off_c, 1, 82, 64
1, 247628, Note_on_c, 1, 80, 113
1, 247699, Note_off_c, 1, 80, 64
1, 247713, Note_on_c, 1, 80, 113
1, 247713, Note_on_c, 4, 63, 127
1, 247716, Note_off_c, 4, 62, 64
1, 247716, Note_off_c, 4, 65, 64
1, 247741, Note_off_c, 2, 70, 64
1, 247755, Note_on_c, 1, 79, 113
1, 247768, Note_off_c, 1, 80, 64
1, 247795, Note_on_c, 2, 77, 114
1, 247796, Note_on_c, 4, 55, 127
1, 247805, Note_off_c, 4, 63, 64
1, 247810, Note_off_c, 1, 79, 64
1, 247836, Note_on_c, 2, 75, 114
1, 247850, Note_off_c, 2, 77, 64
1, 247878, Note_on_c, 2, 72, 114
1, 247878, Note_on_c, 4, 56, 127
1, 247886, Note_off_c, 4, 55, 64
1, 247891, Note_off_c, 2, 75, 64
1, 247918, Note_on_c, 2, 75, 114
1, 247932, Note_off_c, 2, 72, 64
1, 247960, Note_on_c, 2, 74, 114
1, 247961, Note_on_c, 4, 58, 127
1, 247969, Note_off_c, 4, 56, 64
1, 247975, Note_off_c, 2, 75, 64
1, 248002, Note_on_c, 2, 77, 114
1, 248015, Note_off_c, 2, 74, 64
1, 248043, Note_on_c, 2, 75, 114
1, 248043, Note_on_c, 4, 60, 127
1, 248052, Note_off_c, 4, 58, 64
1, 248056, Note_off_c, 2, 77, 64
1, 248083, Note_on_c, 1, 79, 113
1, 248097, Note_off_c, 2, 75, 64
1, 248124, Note_on_c, 2, 77, 114
1, 248124, Note_on_c, 4, 62, 127
1, 248133, Note_off_c, 4, 60, 64
1, 248137, Note_off_c, 1, 79, 64
1, 248165, Note_on_c, 1, 80, 113
1, 248178, Note_off_c, 2, 77, 64
1, 248206, Note_on_c, 1, 79, 113
1, 248207, Note_on_c, 4, 63, 127
1, 248216, Note_off_c, 4, 62, 64
1, 248220, Note_off_c, 1, 80, 64
1, 248289, Note_on_c, 2, 70, 119
1, 248342, Note_off_c, 4, 63, 64
1, 248343, Note_off_c, 1, 79, 64
1, 248357, Note_off_c, 2, 70, 64
1, 248370, Note_on_c, 2, 70, 119
1, 248451, Note_on_c, 4, 67, 121
1, 248451, Note_on_c, 4, 63, 127
1, 248520, Note_off_c, 4, 63, 64
1, 248520, Note_off_c, 4, 67, 64
1, 248534, Note_on_c, 4, 67, 121
1, 248534, Note_on_c, 4, 63, 127
1, 248619, Note_on_c, 1, 82, 113
1, 248691, Note_off_c, 1, 82, 64
1, 248707, Note_on_c, 1, 82, 113
1, 248752, Note_off_c, 4, 63, 64
1, 248752, Note_off_c, 4, 67, 64
1, 248795, Note_on_c, 4, 65, 127
1, 248796, Note_on_c, 4, 62, 127
1, 248863, Note_off_c, 4, 62, 64
1, 248864, Note_off_c, 4, 65, 64
1, 248877, Note_on_c, 4, 65, 127
1, 248877, Note_on_c, 4, 62, 127
1, 248952, Note_off_c, 1, 82, 64
1, 248960, Note_on_c, 1, 80, 113
1, 249028, Note_off_c, 1, 80, 64
1, 249036, Note_off_c, 4, 62, 64
1, 249036, Note_off_c, 4, 65, 64
1, 249043, Note_on_c, 4, 63, 127
1, 249043, Note_on_c, 1, 80, 113
1, 249070, Note_off_c, 2, 70, 64
1, 249083, Note_off_c, 1, 80, 64
1, 249084, Note_on_c, 1, 79, 113
1, 249123, Note_off_c, 1, 79, 64
1, 249124, Note_on_c, 2, 77, 114
1, 249124, Note_on_c, 2, 70, 119
1, 249125, Note_on_c, 4, 67, 121
1, 249132, Note_off_c, 4, 63, 64
1, 249165, Note_off_c, 2, 77, 64
1, 249165, Note_on_c, 2, 75, 114
1, 249192, Note_off_c, 2, 70, 64
1, 249207, Note_off_c, 2, 75, 64
1, 249207, Note_on_c, 1, 80, 113
1, 249208, Note_on_c, 2, 74, 114
1, 249208, Note_on_c, 2, 70, 119
1, 249209, Note_on_c, 4, 65, 127
1, 249216, Note_off_c, 4, 67, 64
1, 249287, Note_off_c, 2, 70, 64
1, 249293, Note_on_c, 1, 79, 113
1, 249294, Note_on_c, 2, 75, 114
1, 249294, Note_on_c, 2, 70, 119
1, 249295, Note_on_c, 4, 63, 127
1, 249303, Note_off_c, 4, 65, 64
1, 249303, Note_off_c, 2, 74, 64
1, 249304, Note_off_c, 1, 80, 64
1, 249374, Note_off_c, 2, 70, 64
1, 249374, Note_off_c, 2, 75, 64
1, 249375, Note_off_c, 1, 79, 64
1, 249382, Note_on_c, 1, 79, 113
1, 249382, Note_on_c, 2, 75, 114
1, 249383, Note_on_c, 4, 58, 127
1, 249390, Note_off_c, 4, 63, 64
1, 249458, Note_off_c, 2, 75, 64
1, 249459, Note_off_c, 1, 79, 64
1, 249465, Note_on_c, 2, 77, 114
1, 249466, Note_on_c, 2, 74, 114
1, 249466, Note_on_c, 2, 70, 119
1, 249542, Note_off_c, 4, 58, 64
1, 249550, Note_on_c, 4, 58, 127
1, 249625, Note_off_c, 2, 70, 64
1, 249626, Note_off_c, 2, 77, 64
1, 249626, Note_off_c, 2, 74, 64
1, 249632, Note_on_c, 2, 77, 105
1, 249707, Note_off_c, 4, 58, 64
1, 249714, Note_off_c, 2, 77, 64
1, 249714, Note_on_c, 4, 58, 127
1, 249716, Note_on_c, 2, 76, 101
1, 249756, Note_on_c, 4, 65, 127
1, 249757, Note_on_c, 2, 77, 101
1, 249764, Note_off_c, 2, 76, 64
1, 249795, Note_on_c, 4, 62, 127
1, 249797, Note_on_c, 2, 76, 101
1, 249803, Note_off_c, 2, 77, 64
1, 249804, Note_off_c, 4, 58, 64
1, 249809, Note_off_c, 4, 65, 64
1, 249835, Note_on_c, 4, 65, 127
1, 249837, Note_on_c, 2, 77, 101
1, 249843, Note_off_c, 2, 76, 64
1, 249874, Note_on_c, 4, 58, 127
1, 249875, Note_on_c, 2, 76, 101
1, 249882, Note_off_c, 2, 77, 64
1, 249883, Note_off_c, 4, 62, 64
1, 249888, Note_off_c, 4, 65, 64
1, 249914, Note_on_c, 4, 65, 127
1, 249915, Note_on_c, 2, 77, 101
1, 249921, Note_off_c, 2, 76, 64
1, 249943, Note_on_c, 2, 76, 101
1, 249953, Note_on_c, 4, 62, 127
1, 249960, Note_off_c, 2, 77, 64
1, 249961, Note_off_c, 4, 58, 64
1, 249967, Note_off_c, 4, 65, 64
1, 249993, Note_on_c, 2, 77, 101
1, 249993, Note_on_c, 4, 65, 127
1, 250002, Note_off_c, 2, 76, 64
1, 250018, Note_off_c, 2, 77, 64
1, 250030, Note_on_c, 1, 87, 121
1, 250030, Note_on_c, 4, 57, 127
1, 250038, Note_off_c, 4, 62, 64
1, 250043, Note_off_c, 4, 65, 64
1, 250070, Note_on_c, 4, 65, 127
1, 250110, Note_on_c, 4, 60, 127
1, 250120, Note_off_c, 4, 57, 64
1, 250124, Note_off_c, 4, 65, 64
1, 250151, Note_on_c, 1, 84, 115
1, 250152, Note_off_c, 1, 87, 64
1, 250152, Note_on_c, 4, 65, 127
1, 250191, Note_on_c, 1, 81, 113
1, 250191, Note_on_c, 4, 57, 127
1, 250194, Note_off_c, 1, 84, 64
1, 250200, Note_off_c, 4, 60, 64
1, 250204, Note_off_c, 4, 65, 64
1, 250231, Note_on_c, 4, 65, 127
1, 250245, Note_off_c, 1, 81, 64
1, 250272, Note_on_c, 2, 77, 101
1, 250272, Note_on_c, 4, 60, 127
1, 250281, Note_off_c, 4, 57, 64
1, 250285, Note_off_c, 4, 65, 64
1, 250313, Note_on_c, 4, 65, 127
1, 250354, Note_on_c, 2, 76, 101
1, 250354, Note_on_c, 4, 58, 127
1, 250362, Note_off_c, 4, 60, 64
1, 250362, Note_off_c, 2, 77, 64
1, 250367, Note_off_c, 4, 65, 64
1, 250394, Note_on_c, 4, 65, 127
1, 250395, Note_on_c, 2, 77, 101
1, 250403, Note_off_c, 2, 76, 64
1, 250436, Note_on_c, 4, 62, 127
1, 250437, Note_on_c, 2, 76, 101
1, 250443, Note_off_c, 2, 77, 64
1, 250444, Note_off_c, 4, 58, 64
1, 250449, Note_off_c, 4, 65, 64
1, 250475, Note_on_c, 4, 65, 127
1, 250476, Note_on_c, 2, 77, 101
1, 250483, Note_off_c, 2, 76, 64
1, 250514, Note_on_c, 4, 58, 127
1, 250515, Note_on_c, 2, 76, 101
1, 250522, Note_off_c, 2, 77, 64
1, 250523, Note_off_c, 4, 62, 64
1, 250527, Note_off_c, 4, 65, 64
1, 250554, Note_on_c, 4, 65, 127
1, 250556, Note_on_c, 2, 77, 105
1, 250561, Note_off_c, 2, 76, 64
1, 250592, Note_on_c, 2, 76, 105
1, 250594, Note_on_c, 4, 62, 127
1, 250602, Note_off_c, 2, 77, 64
1, 250602, Note_off_c, 4, 58, 64
1, 250607, Note_off_c, 4, 65, 64
1, 250633, Note_on_c, 4, 65, 127
1, 250635, Note_on_c, 2, 77, 110
1, 250639, Note_off_c, 2, 76, 64
1, 250674, Note_off_c, 2, 77, 64
1, 250674, Note_on_c, 1, 87, 121
1, 250675, Note_on_c, 1, 87, 121
1, 250675, Note_on_c, 4, 57, 127
1, 250676, Note_off_c, 1, 87, 64
1, 250682, Note_off_c, 4, 62, 64
1, 250687, Note_off_c, 4, 65, 64
1, 250714, Note_on_c, 4, 65, 127
1, 250758, Note_on_c, 4, 60, 127
1, 250767, Note_off_c, 4, 57, 64
1, 250772, Note_off_c, 4, 65, 64
1, 250799, Note_on_c, 1, 84, 115
1, 250799, Note_on_c, 4, 65, 127
1, 250802, Note_off_c, 1, 87, 64
1, 250840, Note_on_c, 1, 81, 113
1, 250840, Note_on_c, 4, 57, 127
1, 250842, Note_off_c, 1, 84, 64
1, 250849, Note_off_c, 4, 60, 64
1, 250855, Note_off_c, 4, 65, 64
1, 250883, Note_on_c, 4, 65, 127
1, 250897, Note_off_c, 1, 81, 64
1, 250928, Note_on_c, 4, 60, 127
1, 250928, Note_on_c, 2, 77, 110
1, 250940, Note_off_c, 4, 57, 64
1, 250947, Note_off_c, 4, 65, 64
1, 250956, Note_on_c, 2, 75, 114
1, 250966, Note_off_c, 2, 77, 64
1, 250984, Note_on_c, 2, 77, 110
1, 250985, Note_on_c, 4, 65, 127
1, 250994, Note_off_c, 2, 75, 64
1, 251011, Note_on_c, 2, 75, 114
1, 251019, Note_off_c, 2, 77, 64
1, 251034, Note_off_c, 2, 75, 64
1, 251035, Note_on_c, 2, 74, 114
1, 251035, Note_on_c, 4, 58, 127
1, 251043, Note_off_c, 4, 60, 64
1, 251050, Note_off_c, 4, 65, 64
1, 251079, Note_on_c, 2, 75, 114
1, 251087, Note_off_c, 2, 74, 64
1, 251124, Note_on_c, 2, 77, 110
1, 251130, Note_off_c, 2, 75, 64
1, 251166, Note_on_c, 1, 79, 109
1, 251173, Note_off_c, 2, 77, 64
1, 251209, Note_on_c, 4, 62, 127
1, 251209, Note_on_c, 2, 77, 110
1, 251211, Note_off_c, 4, 58, 64
1, 251216, Note_off_c, 1, 79, 64
1, 251252, Note_on_c, 1, 79, 109
1, 251259, Note_off_c, 2, 77, 64
1, 251296, Note_on_c, 1, 81, 109
1, 251304, Note_off_c, 1, 79, 64
1, 251338, Note_on_c, 1, 82, 109
1, 251344, Note_off_c, 1, 81, 64
1, 251380, Note_on_c, 4, 63, 127
1, 251380, Note_on_c, 1, 78, 109
1, 251382, Note_off_c, 4, 62, 64
1, 251388, Note_off_c, 1, 82, 64
1, 251422, Note_on_c, 1, 79, 109
1, 251428, Note_off_c, 1, 78, 64
1, 251464, Note_on_c, 2, 74, 114
1, 251471, Note_off_c, 1, 79, 64
1, 251507, Note_on_c, 2, 75, 114
1, 251514, Note_off_c, 2, 74, 64
1, 251552, Note_on_c, 2, 71, 113
1, 251558, Note_off_c, 2, 75, 64
1, 251597, Note_on_c, 2, 72, 114
1, 251604, Note_off_c, 2, 71, 64
1, 251637, Note_off_c, 4, 63, 64
1, 251642, Note_on_c, 4, 67, 121
1, 251642, Note_on_c, 4, 63, 127
1, 251643, Note_on_c, 4, 51, 127
1, 251651, Note_off_c, 2, 72, 64
1, 251690, Note_on_c, 2, 72, 114
1, 251699, Note_off_c, 4, 67, 64
1, 251741, Note_off_c, 4, 51, 64
1, 251741, Note_off_c, 4, 63, 64
1, 251742, Note_on_c, 2, 70, 123
1, 251742, Note_on_c, 4, 62, 127
1, 251743, Note_on_c, 4, 53, 127
1, 251748, Note_off_c, 2, 72, 64
1, 251830, Note_off_c, 4, 62, 64
1, 251831, Note_off_c, 2, 70, 64
1, 251838, Note_on_c, 2, 69, 123
1, 251838, Note_on_c, 4, 60, 127
1, 251919, Note_off_c, 4, 53, 64
1, 251927, Note_on_c, 4, 53, 127
1, 251970, Note_on_c, 4, 55, 127
1, 251977, Note_off_c, 4, 53, 64
1, 252013, Note_on_c, 4, 51, 127
1, 252020, Note_off_c, 4, 55, 64
1, 252056, Note_on_c, 4, 53, 127
1, 252063, Note_off_c, 4, 51, 64
1, 252099, Note_on_c, 4, 50, 127
1, 252106, Note_off_c, 4, 53, 64
1, 252183, Note_on_c, 2, 77, 114
1, 252274, Note_off_c, 2, 77, 64
1, 252274, Note_on_c, 2, 75, 114
1, 252357, Note_off_c, 4, 60, 64
1, 252358, Note_off_c, 2, 69, 64
1, 252365, Note_off_c, 2, 75, 64
1, 252365, Note_on_c, 2, 74, 114
1, 252366, Note_on_c, 4, 65, 127
1, 252366, Note_on_c, 4, 62, 127
1, 252453, Note_off_c, 4, 62, 64
1, 252454, Note_off_c, 4, 65, 64
1, 252454, Note_on_c, 4, 67, 121
1, 252455, Note_on_c, 4, 63, 127
1, 252538, Note_off_c, 2, 74, 64
1, 252538, Note_on_c, 2, 71, 113
1, 252612, Note_off_c, 2, 71, 64
1, 252627, Note_on_c, 2, 71, 113
1, 252710, Note_off_c, 4, 63, 64
1, 252711, Note_off_c, 4, 67, 64
1, 252718, Note_off_c, 2, 71, 64
1, 252719, Note_on_c, 2, 72, 114
1, 252719, Note_on_c, 4, 67, 121
1, 252720, Note_on_c, 4, 63, 127
1, 252806, Note_off_c, 4, 63, 64
1, 252807, Note_off_c, 4, 67, 64
1, 252807, Note_on_c, 2, 69, 119
1, 252808, Note_on_c, 4, 65, 127
1, 252890, Note_off_c, 2, 72, 64
1, 252895, Note_on_c, 1, 79, 113
1, 252982, Note_on_c, 2, 77, 114
1, 252992, Note_off_c, 1, 79, 64
1, 253066, Note_off_c, 2, 69, 64
1, 253066, Note_off_c, 4, 65, 64
1, 253069, Note_on_c, 2, 75, 114
1, 253070, Note_on_c, 2, 69, 119
1, 253070, Note_on_c, 4, 65, 127
1, 253079, Note_off_c, 2, 77, 64
1, 253158, Note_off_c, 4, 65, 64
1, 253159, Note_off_c, 2, 69, 64
1, 253159, Note_on_c, 2, 70, 119
1, 253159, Note_on_c, 4, 67, 121
1, 253238, Note_off_c, 2, 75, 64
1, 253246, Note_on_c, 2, 73, 114
1, 253319, Note_off_c, 2, 73, 64
1, 253332, Note_on_c, 2, 73, 114
1, 253413, Note_off_c, 2, 73, 64
1, 253413, Note_off_c, 4, 67, 64
1, 253414, Note_off_c, 2, 70, 64
1, 253419, Note_on_c, 2, 74, 114
1, 253420, Note_on_c, 2, 70, 119
1, 253420, Note_on_c, 4, 67, 121
1, 253494, Note_off_c, 4, 50, 64
1, 253502, Note_off_c, 4, 67, 64
1, 253502, Note_off_c, 2, 70, 64
1, 253503, Note_off_c, 2, 74, 64
1, 253510, Note_on_c, 2, 70, 123
1, 253510, Note_on_c, 4, 50, 127
1, 253522, Note_on_c, 2, 74, 121
1, 253532, Note_on_c, 2, 77, 121
1, 253542, Note_on_c, 1, 82, 123
1, 253555, Note_on_c, 4, 58, 127
1, 253597, Note_on_c, 4, 53, 127
1, 253606, Note_off_c, 4, 50, 64
1, 253610, Note_off_c, 4, 58, 64
1, 253638, Note_on_c, 4, 58, 127
1, 253680, Note_on_c, 4, 50, 127
1, 253689, Note_off_c, 4, 53, 64
1, 253695, Note_off_c, 4, 58, 64
1, 253723, Note_on_c, 4, 58, 127
1, 253764, Note_on_c, 4, 53, 127
1, 253773, Note_off_c, 4, 50, 64
1, 253778, Note_off_c, 4, 58, 64
1, 253783, Note_off_c, 2, 70, 64
1, 253792, Note_off_c, 2, 74, 64
1, 253802, Note_off_c, 2, 77, 64
1, 253806, Note_on_c, 4, 58, 127
1, 253812, Note_off_c, 1, 82, 64
1, 253848, Note_on_c, 4, 67, 125
1, 253848, Note_on_c, 4, 51, 127
1, 253860, Note_off_c, 4, 53, 64
1, 253860, Note_on_c, 2, 72, 121
1, 253865, Note_off_c, 4, 58, 64
1, 253872, Note_on_c, 2, 75, 121
1, 253881, Note_on_c, 1, 79, 123
1, 253894, Note_on_c, 4, 60, 127
1, 253936, Note_on_c, 4, 55, 127
1, 253944, Note_off_c, 4, 51, 64
1, 253949, Note_off_c, 4, 60, 64
1, 253977, Note_on_c, 4, 60, 127
1, 254019, Note_on_c, 4, 51, 127
1, 254028, Note_off_c, 4, 55, 64
1, 254033, Note_off_c, 4, 60, 64
1, 254061, Note_on_c, 4, 60, 127
1, 254103, Note_on_c, 4, 55, 127
1, 254112, Note_off_c, 4, 51, 64
1, 254116, Note_off_c, 4, 60, 64
1, 254145, Note_on_c, 4, 60, 127
1, 254148, Note_off_c, 4, 67, 64
1, 254158, Note_off_c, 2, 72, 64
1, 254168, Note_off_c, 2, 75, 64
1, 254178, Note_off_c, 1, 79, 64
1, 254186, Note_on_c, 1, 79, 117
1, 254187, Note_on_c, 4, 53, 127
1, 254195, Note_off_c, 4, 55, 64
1, 254201, Note_off_c, 4, 60, 64
1, 254229, Note_on_c, 2, 77, 118
1, 254229, Note_on_c, 4, 62, 127
1, 254235, Note_off_c, 1, 79, 64
1, 254270, Note_on_c, 2, 75, 118
1, 254270, Note_on_c, 4, 58, 127
1, 254277, Note_off_c, 2, 77, 64
1, 254279, Note_off_c, 4, 53, 64
1, 254283, Note_off_c, 4, 62, 64
1, 254311, Note_on_c, 2, 74, 118
1, 254312, Note_on_c, 4, 62, 127
1, 254318, Note_off_c, 2, 75, 64
1, 254346, Note_off_c, 2, 74, 64
1, 254352, Note_on_c, 2, 74, 118
1, 254353, Note_on_c, 4, 53, 127
1, 254361, Note_off_c, 4, 58, 64
1, 254366, Note_off_c, 4, 62, 64
1, 254395, Note_on_c, 2, 72, 118
1, 254395, Note_on_c, 4, 63, 127
1, 254401, Note_off_c, 2, 74, 64
1, 254437, Note_on_c, 2, 70, 119
1, 254437, Note_on_c, 4, 60, 127
1, 254445, Note_off_c, 2, 72, 64
1, 254447, Note_off_c, 4, 53, 64
1, 254451, Note_off_c, 4, 63, 64
1, 254480, Note_on_c, 2, 69, 119
1, 254481, Note_on_c, 4, 63, 127
1, 254487, Note_off_c, 2, 70, 64
1, 254495, Note_off_c, 4, 60, 64
1, 254522, Note_on_c, 2, 72, 118
1, 254523, Note_on_c, 4, 62, 127
1, 254523, Note_on_c, 4, 58, 127
1, 254530, Note_off_c, 2, 69, 64
1, 254538, Note_off_c, 4, 63, 64
1, 254567, Note_on_c, 2, 70, 119
1, 254574, Note_off_c, 2, 72, 64
1, 254609, Note_on_c, 2, 74, 118
1, 254616, Note_off_c, 2, 70, 64
1, 254653, Note_on_c, 2, 72, 118
1, 254661, Note_off_c, 2, 74, 64
1, 254695, Note_on_c, 2, 75, 118
1, 254702, Note_off_c, 2, 72, 64
1, 254738, Note_on_c, 2, 74, 118
1, 254745, Note_off_c, 2, 75, 64
1, 254780, Note_on_c, 2, 77, 118
1, 254786, Note_off_c, 2, 74, 64
1, 254824, Note_on_c, 2, 75, 118
1, 254831, Note_off_c, 2, 77, 64
1, 254865, Note_on_c, 1, 79, 117
1, 254873, Note_off_c, 2, 75, 64
1, 254950, Note_on_c, 2, 77, 118
1, 254951, Note_off_c, 1, 79, 64
1, 255027, Note_off_c, 4, 58, 64
1, 255028, Note_off_c, 4, 62, 64
1, 255035, Note_on_c, 4, 65, 127
1, 255036, Note_on_c, 4, 62, 127
1, 255122, Note_on_c, 2, 74, 118
1, 255133, Note_off_c, 2, 77, 64
1, 255213, Note_off_c, 2, 74, 64
1, 255213, Note_on_c, 2, 71, 117
1, 255296, Note_off_c, 2, 71, 64
1, 255297, Note_on_c, 2, 74, 118
1, 255381, Note_off_c, 4, 65, 64
1, 255381, Note_off_c, 4, 62, 64
1, 255382, Note_on_c, 4, 67, 121
1, 255383, Note_on_c, 4, 63, 127
1, 255467, Note_off_c, 2, 74, 64
1, 255470, Note_on_c, 2, 72, 118
1, 255558, Note_off_c, 2, 72, 64
1, 255559, Note_on_c, 1, 78, 117
1, 255642, Note_off_c, 1, 78, 64
1, 255642, Note_on_c, 1, 79, 117
1, 255728, Note_off_c, 4, 67, 64
1, 255728, Note_off_c, 4, 63, 64
1, 255728, Note_on_c, 2, 69, 119
1, 255729, Note_on_c, 4, 65, 127
1, 255815, Note_on_c, 2, 75, 118
1, 255819, Note_off_c, 1, 79, 64
1, 255904, Note_off_c, 2, 75, 64
1, 255905, Note_on_c, 2, 73, 118
1, 255988, Note_off_c, 2, 73, 64
1, 255988, Note_on_c, 2, 75, 118
1, 256072, Note_off_c, 4, 65, 64
1, 256073, Note_off_c, 2, 69, 64
1, 256073, Note_on_c, 2, 70, 119
1, 256074, Note_on_c, 4, 67, 121
1, 256151, Note_off_c, 2, 75, 64
1, 256159, Note_on_c, 2, 74, 118
1, 256242, Note_off_c, 4, 67, 64
1, 256243, Note_off_c, 2, 74, 64
1, 256243, Note_off_c, 2, 70, 64
1, 256250, Note_on_c, 2, 70, 123
1, 256250, Note_on_c, 4, 50, 127
1, 256262, Note_on_c, 2, 74, 121
1, 256272, Note_on_c, 2, 77, 121
1, 256283, Note_on_c, 1, 82, 123
1, 256295, Note_on_c, 4, 58, 127
1, 256336, Note_on_c, 4, 53, 127
1, 256346, Note_off_c, 4, 50, 64
1, 256351, Note_off_c, 4, 58, 64
1, 256379, Note_on_c, 4, 58, 127
1, 256421, Note_on_c, 4, 50, 127
1, 256429, Note_off_c, 4, 53, 64
1, 256434, Note_off_c, 4, 58, 64
1, 256463, Note_on_c, 4, 58, 127
1, 256505, Note_on_c, 4, 53, 127
1, 256515, Note_off_c, 4, 50, 64
1, 256520, Note_off_c, 4, 58, 64
1, 256525, Note_off_c, 2, 70, 64
1, 256535, Note_off_c, 2, 74, 64
1, 256545, Note_off_c, 2, 77, 64
1, 256548, Note_on_c, 4, 58, 127
1, 256555, Note_off_c, 1, 82, 64
1, 256592, Note_on_c, 4, 67, 125
1, 256592, Note_on_c, 4, 51, 127
1, 256603, Note_off_c, 4, 53, 64
1, 256604, Note_on_c, 2, 72, 121
1, 256609, Note_off_c, 4, 58, 64
1, 256615, Note_on_c, 2, 75, 121
1, 256624, Note_on_c, 1, 79, 123
1, 256637, Note_on_c, 4, 60, 127
1, 256678, Note_on_c, 4, 55, 127
1, 256688, Note_off_c, 4, 51, 64
1, 256692, Note_off_c, 4, 60, 64
1, 256720, Note_on_c, 4, 60, 127
1, 256763, Note_on_c, 4, 51, 127
1, 256772, Note_off_c, 4, 55, 64
1, 256777, Note_off_c, 4, 60, 64
1, 256805, Note_on_c, 4, 60, 127
1, 256848, Note_on_c, 4, 55, 127
1, 256858, Note_off_c, 4, 51, 64
1, 256862, Note_off_c, 4, 60, 64
1, 256891, Note_on_c, 4, 60, 127
1, 256895, Note_off_c, 4, 67, 64
1, 256906, Note_off_c, 2, 72, 64
1, 256915, Note_off_c, 2, 75, 64
1, 256926, Note_off_c, 1, 79, 64
1, 256935, Note_on_c, 1, 79, 117
1, 256936, Note_on_c, 4, 53, 127
1, 256944, Note_off_c, 4, 55, 64
1, 256951, Note_off_c, 4, 60, 64
1, 256979, Note_off_c, 1, 79, 64
1, 256979, Note_on_c, 2, 77, 118
1, 256980, Note_on_c, 4, 62, 127
1, 257019, Note_off_c, 2, 77, 64
1, 257019, Note_on_c, 2, 75, 118
1, 257020, Note_on_c, 4, 58, 127
1, 257028, Note_off_c, 4, 53, 64
1, 257033, Note_off_c, 4, 62, 64
1, 257061, Note_off_c, 2, 75, 64
1, 257062, Note_on_c, 2, 74, 118
1, 257062, Note_on_c, 4, 62, 127
1, 257089, Note_off_c, 2, 74, 64
1, 257103, Note_on_c, 2, 74, 118
1, 257104, Note_on_c, 4, 53, 127
1, 257113, Note_off_c, 4, 58, 64
1, 257118, Note_off_c, 4, 62, 64
1, 257146, Note_off_c, 2, 74, 64
1, 257146, Note_on_c, 2, 72, 118
1, 257147, Note_on_c, 4, 63, 127
1, 257189, Note_off_c, 2, 72, 64
1, 257189, Note_on_c, 2, 70, 119
1, 257190, Note_on_c, 4, 60, 127
1, 257197, Note_off_c, 4, 53, 64
1, 257202, Note_off_c, 4, 63, 64
1, 257232, Note_off_c, 2, 70, 64
1, 257232, Note_on_c, 4, 63, 127
1, 257232, Note_on_c, 2, 69, 119
1, 257246, Note_off_c, 4, 60, 64
1, 257268, Note_off_c, 2, 69, 64
1, 257274, Note_on_c, 2, 69, 119
1, 257275, Note_on_c, 4, 62, 127
1, 257275, Note_on_c, 4, 55, 127
1, 257289, Note_off_c, 4, 63, 64
1, 257319, Note_on_c, 2, 70, 119
1, 257326, Note_off_c, 2, 69, 64
1, 257363, Note_on_c, 2, 72, 118
1, 257370, Note_off_c, 2, 70, 64
1, 257406, Note_on_c, 2, 74, 114
1, 257413, Note_off_c, 2, 72, 64
1, 257449, Note_on_c, 2, 75, 114
1, 257456, Note_off_c, 2, 74, 64
1, 257492, Note_on_c, 2, 77, 114
1, 257499, Note_off_c, 2, 75, 64
1, 257533, Note_on_c, 1, 79, 113
1, 257541, Note_off_c, 2, 77, 64
1, 257576, Note_on_c, 1, 81, 113
1, 257582, Note_off_c, 1, 79, 64
1, 257617, Note_off_c, 4, 55, 64
1, 257617, Note_off_c, 4, 62, 64
1, 257618, Note_on_c, 1, 82, 113
1, 257618, Note_on_c, 4, 50, 127
1, 257624, Note_off_c, 1, 81, 64
1, 257658, Note_on_c, 1, 84, 115
1, 257659, Note_on_c, 4, 58, 127
1, 257665, Note_off_c, 1, 82, 64
1, 257699, Note_on_c, 1, 86, 115
1, 257700, Note_on_c, 4, 53, 127
1, 257705, Note_off_c, 1, 84, 64
1, 257707, Note_off_c, 4, 50, 64
1, 257712, Note_off_c, 4, 58, 64
1, 257741, Note_on_c, 1, 81, 113
1, 257741, Note_on_c, 4, 58, 127
1, 257748, Note_off_c, 1, 86, 64
1, 257784, Note_on_c, 1, 82, 113
1, 257784, Note_on_c, 4, 50, 127
1, 257791, Note_off_c, 1, 81, 64
1, 257793, Note_off_c, 4, 53, 64
1, 257797, Note_off_c, 4, 58, 64
1, 257826, Note_on_c, 4, 58, 127
1, 257868, Note_on_c, 4, 53, 127
1, 257876, Note_off_c, 4, 50, 64
1, 257881, Note_off_c, 4, 58, 64
1, 257909, Note_on_c, 4, 58, 127
1, 257945, Note_off_c, 1, 82, 64
1, 257952, Note_on_c, 1, 79, 113
1, 257952, Note_on_c, 4, 51, 127
1, 257961, Note_off_c, 4, 53, 64
1, 257966, Note_off_c, 4, 58, 64
1, 257995, Note_on_c, 1, 81, 113
1, 257995, Note_on_c, 4, 58, 127
1, 258001, Note_off_c, 1, 79, 64
1, 258035, Note_on_c, 1, 82, 113
1, 258036, Note_on_c, 4, 55, 127
1, 258041, Note_off_c, 1, 81, 64
1, 258043, Note_off_c, 4, 51, 64
1, 258048, Note_off_c, 4, 58, 64
1, 258077, Note_on_c, 1, 78, 113
1, 258078, Note_on_c, 4, 58, 127
1, 258084, Note_off_c, 1, 82, 64
1, 258119, Note_on_c, 1, 79, 113
1, 258119, Note_on_c, 4, 51, 127
1, 258125, Note_off_c, 1, 78, 64
1, 258127, Note_off_c, 4, 55, 64
1, 258132, Note_off_c, 4, 58, 64
1, 258159, Note_on_c, 4, 58, 127
1, 258200, Note_on_c, 4, 55, 127
1, 258209, Note_off_c, 4, 51, 64
1, 258215, Note_off_c, 4, 58, 64
1, 258241, Note_on_c, 4, 58, 127
1, 258276, Note_off_c, 1, 79, 64
1, 258283, Note_on_c, 1, 79, 113
1, 258283, Note_on_c, 4, 53, 127
1, 258292, Note_off_c, 4, 55, 64
1, 258297, Note_off_c, 4, 58, 64
1, 258325, Note_off_c, 1, 79, 64
1, 258325, Note_on_c, 2, 77, 114
1, 258326, Note_on_c, 4, 62, 127
1, 258366, Note_off_c, 2, 77, 64
1, 258367, Note_on_c, 2, 75, 114
1, 258367, Note_on_c, 4, 58, 127
1, 258375, Note_off_c, 4, 53, 64
1, 258381, Note_off_c, 4, 62, 64
1, 258408, Note_off_c, 2, 75, 64
1, 258409, Note_on_c, 2, 74, 114
1, 258409, Note_on_c, 4, 62, 127
1, 258436, Note_off_c, 2, 74, 64
1, 258451, Note_on_c, 2, 74, 114
1, 258451, Note_on_c, 4, 53, 127
1, 258459, Note_off_c, 4, 58, 64
1, 258464, Note_off_c, 4, 62, 64
1, 258492, Note_off_c, 2, 74, 64
1, 258492, Note_on_c, 2, 72, 118
1, 258493, Note_on_c, 4, 63, 127
1, 258534, Note_off_c, 2, 72, 64
1, 258535, Note_on_c, 2, 70, 119
1, 258535, Note_on_c, 4, 60, 127
1, 258543, Note_off_c, 4, 53, 64
1, 258549, Note_off_c, 4, 63, 64
1, 258576, Note_off_c, 2, 70, 64
1, 258577, Note_on_c, 2, 69, 119
1, 258577, Note_on_c, 4, 63, 127
1, 258591, Note_off_c, 4, 60, 64
1, 258619, Note_off_c, 4, 63, 64
1, 258619, Note_off_c, 2, 69, 64
1, 258620, Note_on_c, 4, 62, 127
1, 258620, Note_on_c, 2, 70, 119
1, 258621, Note_on_c, 4, 58, 127
1, 258663, Note_on_c, 2, 72, 118
1, 258671, Note_off_c, 2, 70, 64
1, 258706, Note_on_c, 2, 74, 114
1, 258713, Note_off_c, 2, 72, 64
1, 258749, Note_on_c, 2, 75, 114
1, 258757, Note_off_c, 2, 74, 64
1, 258792, Note_on_c, 2, 77, 114
1, 258799, Note_off_c, 2, 75, 64
1, 258834, Note_on_c, 1, 79, 113
1, 258840, Note_off_c, 2, 77, 64
1, 258874, Note_on_c, 1, 81, 113
1, 258881, Note_off_c, 1, 79, 64
1, 258912, Note_on_c, 1, 82, 113
1, 258919, Note_off_c, 1, 81, 64
1, 258951, Note_on_c, 1, 78, 113
1, 258957, Note_off_c, 1, 82, 64
1, 258993, Note_on_c, 1, 79, 113
1, 259001, Note_off_c, 1, 78, 64
1, 259037, Note_off_c, 4, 58, 64
1, 259038, Note_off_c, 4, 62, 64
1, 259038, Note_on_c, 2, 75, 114
1, 259039, Note_on_c, 4, 63, 127
1, 259044, Note_off_c, 1, 79, 64
1, 259079, Note_on_c, 2, 72, 118
1, 259085, Note_off_c, 2, 75, 64
1, 259120, Note_off_c, 4, 63, 64
1, 259120, Note_on_c, 2, 74, 114
1, 259121, Note_on_c, 4, 60, 127
1, 259128, Note_off_c, 2, 72, 64
1, 259163, Note_on_c, 2, 75, 114
1, 259170, Note_off_c, 2, 74, 64
1, 259208, Note_off_c, 4, 60, 64
1, 259209, Note_on_c, 2, 72, 118
1, 259209, Note_on_c, 4, 65, 127
1, 259215, Note_off_c, 2, 75, 64
1, 259250, Note_on_c, 2, 69, 119
1, 259257, Note_off_c, 2, 72, 64
1, 259294, Note_off_c, 4, 65, 64
1, 259294, Note_on_c, 2, 70, 119
1, 259295, Note_on_c, 4, 62, 127
1, 259301, Note_off_c, 2, 69, 64
1, 259338, Note_on_c, 2, 72, 118
1, 259344, Note_off_c, 2, 70, 64
1, 259380, Note_on_c, 2, 74, 114
1, 259388, Note_off_c, 2, 72, 64
1, 259423, Note_on_c, 2, 75, 114
1, 259431, Note_off_c, 2, 74, 64
1, 259466, Note_on_c, 2, 77, 114
1, 259473, Note_off_c, 2, 75, 64
1, 259507, Note_on_c, 1, 79, 113
1, 259514, Note_off_c, 2, 77, 64
1, 259547, Note_on_c, 1, 81, 113
1, 259553, Note_off_c, 1, 79, 64
1, 259584, Note_on_c, 1, 82, 113
1, 259591, Note_off_c, 1, 81, 64
1, 259623, Note_on_c, 1, 78, 113
1, 259630, Note_off_c, 1, 82, 64
1, 259666, Note_on_c, 1, 79, 113
1, 259674, Note_off_c, 1, 78, 64
1, 259710, Note_off_c, 4, 62, 64
1, 259711, Note_on_c, 2, 75, 114
1, 259711, Note_on_c, 4, 51, 127
1, 259718, Note_off_c, 1, 79, 64
1, 259752, Note_on_c, 2, 72, 118
1, 259759, Note_off_c, 2, 75, 64
1, 259795, Note_off_c, 4, 51, 64
1, 259795, Note_on_c, 2, 74, 114
1, 259796, Note_on_c, 4, 48, 127
1, 259802, Note_off_c, 2, 72, 64
1, 259838, Note_on_c, 2, 75, 114
1, 259846, Note_off_c, 2, 74, 64
1, 259883, Note_off_c, 4, 48, 64
1, 259884, Note_on_c, 2, 72, 118
1, 259884, Note_on_c, 4, 53, 127
1, 259890, Note_off_c, 2, 75, 64
1, 259925, Note_on_c, 2, 69, 119
1, 259932, Note_off_c, 2, 72, 64
1, 259967, Note_on_c, 2, 70, 119
1, 259968, Note_off_c, 2, 70, 64
1, 259968, Note_off_c, 2, 69, 64
1, 259968, Note_off_c, 4, 53, 64
1, 259969, Note_on_c, 2, 70, 119
1, 259969, Note_on_c, 2, 69, 119
1, 259970, Note_off_c, 2, 69, 64
1, 259971, Note_on_c, 4, 58, 127
1, 260053, Note_off_c, 4, 58, 64
1, 260054, Note_on_c, 4, 53, 127
1, 260139, Note_on_c, 4, 46, 127
1, 260140, Note_off_c, 4, 53, 64
1, 260194, Note_off_c, 2, 70, 64
1, 260227, Note_on_c, 2, 70, 119
1, 260284, Note_off_c, 2, 70, 64
1, 260313, Note_on_c, 2, 70, 119
1, 260396, Note_on_c, 4, 61, 127
1, 260396, Note_on_c, 4, 53, 127
1, 260461, Note_off_c, 4, 53, 64
1, 260462, Note_off_c, 4, 61, 64
1, 260483, Note_on_c, 4, 61, 127
1, 260483, Note_on_c, 4, 53, 127
1, 260567, Note_on_c, 1, 82, 117
1, 260634, Note_off_c, 1, 82, 64
1, 260656, Note_on_c, 1, 82, 117
1, 260742, Note_off_c, 4, 53, 64
1, 260742, Note_off_c, 4, 61, 64
1, 260743, Note_on_c, 4, 60, 127
1, 260743, Note_on_c, 4, 52, 127
1, 260806, Note_off_c, 4, 52, 64
1, 260807, Note_off_c, 4, 60, 64
1, 260827, Note_on_c, 4, 60, 127
1, 260828, Note_on_c, 4, 52, 127
1, 260883, Note_off_c, 2, 70, 64
1, 260911, Note_on_c, 2, 72, 118
1, 260988, Note_off_c, 2, 72, 64
1, 260995, Note_on_c, 2, 73, 118
1, 261038, Note_on_c, 2, 72, 118
1, 261045, Note_off_c, 2, 73, 64
1, 261080, Note_on_c, 2, 74, 118
1, 261080, Note_on_c, 4, 65, 127
1, 261087, Note_off_c, 2, 72, 64
1, 261123, Note_on_c, 2, 72, 118
1, 261131, Note_off_c, 2, 74, 64
1, 261165, Note_on_c, 2, 75, 118
1, 261166, Note_on_c, 4, 67, 121
1, 261172, Note_off_c, 2, 72, 64
1, 261174, Note_off_c, 4, 65, 64
1, 261206, Note_on_c, 2, 72, 118
1, 261213, Note_off_c, 2, 75, 64
1, 261247, Note_off_c, 4, 60, 64
1, 261247, Note_off_c, 4, 52, 64
1, 261248, Note_on_c, 2, 76, 118
1, 261248, Note_on_c, 2, 70, 119
1, 261254, Note_off_c, 2, 72, 64
1, 261256, Note_off_c, 4, 67, 64
1, 261290, Note_off_c, 1, 82, 64
1, 261290, Note_on_c, 2, 72, 118
1, 261297, Note_off_c, 2, 76, 64
1, 261330, Note_on_c, 2, 77, 118
1, 261331, Note_on_c, 2, 68, 119
1, 261337, Note_off_c, 2, 72, 64
1, 261339, Note_off_c, 2, 70, 64
1, 261373, Note_on_c, 2, 72, 118
1, 261380, Note_off_c, 2, 77, 64
1, 261415, Note_on_c, 1, 79, 117
1, 261415, Note_on_c, 4, 64, 127
1, 261422, Note_off_c, 2, 72, 64
1, 261424, Note_off_c, 2, 68, 64
1, 261456, Note_on_c, 2, 72, 118
1, 261464, Note_off_c, 1, 79, 64
1, 261499, Note_on_c, 1, 80, 117
1, 261500, Note_on_c, 4, 65, 127
1, 261506, Note_off_c, 2, 72, 64
1, 261508, Note_off_c, 4, 64, 64
1, 261555, Note_off_c, 4, 46, 64
1, 261583, Note_on_c, 2, 68, 119
1, 261591, Note_off_c, 4, 65, 64
1, 261659, Note_off_c, 2, 68, 64
1, 261665, Note_on_c, 2, 68, 119
1, 261735, Note_off_c, 1, 80, 64
1, 261749, Note_on_c, 4, 59, 127
1, 261749, Note_on_c, 4, 52, 127
1, 261822, Note_off_c, 4, 52, 64
1, 261822, Note_off_c, 4, 59, 64
1, 261836, Note_on_c, 4, 59, 127
1, 261837, Note_on_c, 4, 52, 127
1, 261920, Note_on_c, 1, 80, 117
1, 261990, Note_off_c, 1, 80, 64
1, 262003, Note_on_c, 1, 80, 117
1, 262046, Note_off_c, 4, 59, 64
1, 262046, Note_off_c, 4, 52, 64
1, 262088, Note_on_c, 4, 58, 127
1, 262088, Note_on_c, 4, 50, 127
1, 262159, Note_off_c, 4, 50, 64
1, 262159, Note_off_c, 4, 58, 64
1, 262173, Note_on_c, 4, 58, 127
1, 262174, Note_on_c, 4, 50, 127
1, 262230, Note_off_c, 2, 68, 64
1, 262258, Note_on_c, 2, 70, 119
1, 262334, Note_off_c, 2, 70, 64
1, 262340, Note_on_c, 2, 71, 117
1, 262382, Note_on_c, 2, 70, 119
1, 262397, Note_off_c, 2, 71, 64
1, 262426, Note_on_c, 2, 72, 118
1, 262427, Note_on_c, 4, 63, 127
1, 262440, Note_off_c, 2, 70, 64
1, 262469, Note_on_c, 2, 70, 119
1, 262483, Note_off_c, 2, 72, 64
1, 262512, Note_off_c, 4, 63, 64
1, 262512, Note_on_c, 2, 73, 118
1, 262512, Note_on_c, 4, 65, 127
1, 262524, Note_off_c, 2, 70, 64
1, 262553, Note_on_c, 2, 70, 119
1, 262567, Note_off_c, 1, 80, 64
1, 262567, Note_off_c, 2, 73, 64
1, 262595, Note_off_c, 4, 65, 64
1, 262595, Note_on_c, 2, 74, 118
1, 262596, Note_on_c, 2, 68, 119
1, 262608, Note_off_c, 2, 70, 64
1, 262637, Note_on_c, 2, 70, 119
1, 262651, Note_off_c, 2, 74, 64
1, 262679, Note_off_c, 2, 68, 64
1, 262679, Note_on_c, 2, 75, 118
1, 262680, Note_on_c, 4, 67, 121
1, 262693, Note_off_c, 2, 70, 64
1, 262722, Note_on_c, 2, 70, 119
1, 262735, Note_off_c, 2, 75, 64
1, 262764, Note_off_c, 4, 67, 64
1, 262764, Note_on_c, 2, 77, 118
1, 262764, Note_on_c, 4, 62, 127
1, 262778, Note_off_c, 2, 70, 64
1, 262806, Note_on_c, 2, 70, 119
1, 262821, Note_off_c, 2, 77, 64
1, 262848, Note_off_c, 4, 62, 64
1, 262849, Note_on_c, 1, 79, 117
1, 262849, Note_on_c, 4, 63, 127
1, 262863, Note_off_c, 2, 70, 64
1, 262932, Note_on_c, 4, 51, 127
1, 262946, Note_off_c, 4, 50, 64
1, 262947, Note_off_c, 4, 58, 64
1, 263005, Note_off_c, 4, 51, 64
1, 263019, Note_on_c, 4, 51, 127
1, 263061, Note_off_c, 1, 79, 64
1, 263103, Note_on_c, 2, 73, 118
1, 263103, Note_on_c, 4, 67, 121
1, 263176, Note_off_c, 4, 67, 64
1, 263176, Note_off_c, 2, 73, 64
1, 263189, Note_on_c, 2, 73, 118
1, 263190, Note_on_c, 4, 67, 121
1, 263239, Note_off_c, 4, 63, 64
1, 263274, Note_on_c, 4, 63, 127
1, 263353, Note_off_c, 4, 63, 64
1, 263359, Note_on_c, 4, 63, 127
1, 263433, Note_off_c, 2, 73, 64
1, 263433, Note_off_c, 4, 67, 64
1, 263444, Note_on_c, 2, 72, 118
1, 263444, Note_on_c, 2, 68, 119
1, 263516, Note_off_c, 2, 68, 64
1, 263516, Note_off_c, 2, 72, 64
1, 263530, Note_on_c, 2, 72, 118
1, 263531, Note_on_c, 2, 68, 119
1, 263610, Note_off_c, 4, 51, 64
1, 263616, Note_on_c, 4, 51, 127
1, 263617, Note_on_c, 4, 39, 127
1, 263688, Note_off_c, 4, 39, 64
1, 263689, Note_off_c, 4, 51, 64
1, 263703, Note_on_c, 4, 39, 127
1, 263703, Note_on_c, 4, 51, 127
1, 263745, Note_off_c, 2, 68, 64
1, 263746, Note_off_c, 2, 72, 64
1, 263787, Note_off_c, 4, 63, 64
1, 263788, Note_on_c, 2, 70, 119
1, 263788, Note_on_c, 4, 66, 125
1, 263859, Note_off_c, 4, 66, 64
1, 263860, Note_off_c, 2, 70, 64
1, 263874, Note_on_c, 2, 70, 119
1, 263874, Note_on_c, 4, 66, 125
1, 263954, Note_off_c, 4, 51, 64
1, 263961, Note_on_c, 4, 63, 127
1, 263962, Note_on_c, 4, 51, 127
1, 264020, Note_off_c, 4, 63, 64
1, 264020, Note_off_c, 4, 51, 64
1, 264048, Note_on_c, 4, 63, 127
1, 264048, Note_on_c, 4, 51, 127
1, 264090, Note_off_c, 4, 66, 64
1, 264090, Note_off_c, 2, 70, 64
1, 264132, Note_on_c, 2, 69, 119
1, 264132, Note_on_c, 4, 65, 127
1, 264206, Note_off_c, 4, 65, 64
1, 264206, Note_off_c, 2, 69, 64
1, 264221, Note_on_c, 2, 69, 119
1, 264222, Note_on_c, 4, 65, 127
1, 264309, Note_off_c, 4, 51, 64
1, 264309, Note_on_c, 4, 53, 127
1, 264390, Note_off_c, 4, 53, 64
1, 264397, Note_on_c, 4, 53, 127
1, 264467, Note_off_c, 4, 65, 64
1, 264468, Note_off_c, 2, 69, 64
1, 264481, Note_off_c, 4, 63, 64
1, 264482, Note_on_c, 2, 75, 118
1, 264482, Note_on_c, 2, 69, 119
1, 264553, Note_off_c, 2, 69, 64
1, 264554, Note_off_c, 2, 75, 64
1, 264568, Note_on_c, 2, 75, 118
1, 264568, Note_on_c, 2, 69, 119
1, 264657, Note_on_c, 4, 65, 127
1, 264739, Note_off_c, 4, 65, 64
1, 264746, Note_on_c, 4, 65, 127
1, 264816, Note_off_c, 2, 69, 64
1, 264816, Note_off_c, 2, 75, 64
1, 264830, Note_on_c, 2, 73, 118
1, 264830, Note_on_c, 2, 70, 119
1, 264902, Note_off_c, 2, 70, 64
1, 264902, Note_off_c, 2, 73, 64
1, 264916, Note_on_c, 2, 73, 118
1, 264917, Note_on_c, 2, 70, 119
1, 264931, Note_off_c, 4, 39, 64
1, 264973, Note_off_c, 4, 53, 64
1, 265002, Note_on_c, 4, 53, 127
1, 265003, Note_on_c, 4, 41, 127
1, 265082, Note_off_c, 4, 41, 64
1, 265082, Note_off_c, 4, 53, 64
1, 265089, Note_on_c, 4, 41, 127
1, 265089, Note_on_c, 4, 53, 127
1, 265158, Note_off_c, 2, 73, 64
1, 265158, Note_off_c, 2, 70, 64
1, 265171, Note_off_c, 4, 65, 64
1, 265172, Note_on_c, 2, 72, 118
1, 265172, Note_on_c, 2, 68, 119
1, 265226, Note_off_c, 2, 68, 64
1, 265226, Note_off_c, 2, 72, 64
1, 265247, Note_off_c, 4, 53, 64
1, 265255, Note_on_c, 2, 72, 118
1, 265255, Note_on_c, 2, 68, 119
1, 265341, Note_on_c, 4, 65, 127
1, 265342, Note_on_c, 4, 53, 127
1, 265414, Note_off_c, 4, 53, 64
1, 265415, Note_off_c, 4, 65, 64
1, 265428, Note_on_c, 4, 65, 127
1, 265429, Note_on_c, 4, 53, 127
1, 265505, Note_off_c, 2, 68, 64
1, 265506, Note_off_c, 2, 72, 64
1, 265513, Note_on_c, 2, 71, 117
1, 265513, Note_on_c, 4, 67, 121
1, 265556, Note_off_c, 4, 65, 64
1, 265594, Note_off_c, 4, 67, 64
1, 265594, Note_off_c, 2, 71, 64
1, 265600, Note_on_c, 2, 71, 117
1, 265601, Note_on_c, 4, 67, 121
1, 265680, Note_off_c, 4, 67, 64
1, 265680, Note_off_c, 2, 71, 64
1, 265687, Note_on_c, 2, 71, 117
1, 265687, Note_on_c, 4, 65, 127
1, 265730, Note_on_c, 4, 67, 121
1, 265775, Note_on_c, 2, 72, 118
1, 265776, Note_on_c, 4, 63, 127
1, 265786, Note_off_c, 4, 65, 64
1, 265786, Note_off_c, 2, 71, 64
1, 265791, Note_off_c, 4, 67, 64
1, 265824, Note_on_c, 4, 67, 121
1, 265869, Note_on_c, 2, 74, 118
1, 265870, Note_on_c, 4, 62, 127
1, 265880, Note_off_c, 4, 63, 64
1, 265880, Note_off_c, 2, 72, 64
1, 265884, Note_off_c, 4, 67, 64
1, 265913, Note_on_c, 4, 67, 121
1, 265941, Note_off_c, 4, 53, 64
1, 265956, Note_on_c, 2, 75, 118
1, 265956, Note_on_c, 4, 60, 127
1, 265965, Note_off_c, 4, 62, 64
1, 265966, Note_off_c, 2, 74, 64
1, 265970, Note_off_c, 4, 67, 64
1, 266000, Note_on_c, 4, 67, 121
1, 266043, Note_on_c, 2, 77, 118
1, 266043, Note_on_c, 4, 59, 127
1, 266052, Note_off_c, 4, 60, 64
1, 266053, Note_off_c, 2, 75, 64
1, 266057, Note_off_c, 4, 67, 64
1, 266087, Note_on_c, 4, 67, 121
1, 266131, Note_on_c, 4, 60, 127
1, 266138, Note_on_c, 2, 75, 118
1, 266140, Note_off_c, 4, 59, 64
1, 266140, Note_off_c, 2, 77, 64
1, 266146, Note_off_c, 4, 67, 64
1, 266175, Note_on_c, 4, 67, 121
1, 266218, Note_on_c, 2, 74, 118
1, 266219, Note_on_c, 4, 62, 127
1, 266227, Note_off_c, 4, 60, 64
1, 266233, Note_off_c, 4, 67, 64
1, 266234, Note_off_c, 2, 75, 64
1, 266262, Note_on_c, 4, 67, 121
1, 266306, Note_on_c, 2, 72, 118
1, 266306, Note_on_c, 4, 63, 127
1, 266316, Note_off_c, 4, 62, 64
1, 266316, Note_off_c, 2, 74, 64
1, 266321, Note_off_c, 4, 67, 64
1, 266351, Note_on_c, 4, 67, 121
1, 266394, Note_on_c, 2, 71, 117
1, 266395, Note_on_c, 4, 65, 127
1, 266405, Note_off_c, 4, 63, 64
1, 266405, Note_off_c, 2, 72, 64
1, 266410, Note_off_c, 4, 67, 64
1, 266440, Note_on_c, 4, 67, 121
1, 266485, Note_on_c, 2, 72, 118
1, 266486, Note_on_c, 4, 63, 127
1, 266494, Note_off_c, 4, 65, 64
1, 266495, Note_off_c, 2, 71, 64
1, 266500, Note_off_c, 4, 67, 64
1, 266530, Note_on_c, 4, 67, 121
1, 266572, Note_on_c, 2, 74, 118
1, 266572, Note_on_c, 4, 62, 127
1, 266581, Note_off_c, 4, 63, 64
1, 266582, Note_off_c, 2, 72, 64
1, 266586, Note_off_c, 4, 67, 64
1, 266615, Note_on_c, 4, 67, 121
1, 266658, Note_on_c, 2, 75, 118
1, 266659, Note_on_c, 4, 60, 127
1, 266668, Note_off_c, 4, 62, 64
1, 266668, Note_off_c, 2, 74, 64
1, 266673, Note_off_c, 4, 67, 64
1, 266702, Note_on_c, 4, 67, 121
1, 266744, Note_on_c, 2, 77, 118
1, 266745, Note_on_c, 4, 59, 127
1, 266753, Note_off_c, 4, 60, 64
1, 266754, Note_off_c, 2, 75, 64
1, 266758, Note_off_c, 4, 67, 64
1, 266788, Note_on_c, 4, 67, 121
1, 266832, Note_off_c, 4, 41, 64
1, 266832, Note_on_c, 2, 75, 118
1, 266833, Note_on_c, 4, 60, 127
1, 266842, Note_off_c, 4, 59, 64
1, 266842, Note_off_c, 2, 77, 64
1, 266847, Note_off_c, 4, 67, 64
1, 266920, Note_on_c, 1, 84, 119
1, 266921, Note_on_c, 2, 77, 118
1, 266921, Note_on_c, 2, 68, 119
1, 266922, Note_on_c, 4, 56, 127
1, 266930, Note_off_c, 2, 75, 64
1, 266930, Note_off_c, 4, 60, 64
1, 267010, Note_on_c, 1, 83, 117
1, 267010, Note_on_c, 1, 79, 117
1, 267011, Note_on_c, 4, 67, 121
1, 267011, Note_on_c, 4, 55, 127
1, 267019, Note_off_c, 4, 56, 64
1, 267020, Note_off_c, 2, 68, 64
1, 267020, Note_off_c, 2, 77, 64
1, 267021, Note_off_c, 1, 84, 64
1, 267179, Note_on_c, 2, 72, 118
1, 267180, Note_on_c, 4, 62, 127
1, 267180, Note_on_c, 4, 54, 127
1, 267182, Note_off_c, 4, 55, 64
1, 267183, Note_off_c, 4, 67, 64
1, 267230, Note_off_c, 1, 79, 64
1, 267231, Note_off_c, 1, 83, 64
1, 267266, Note_off_c, 2, 72, 64
1, 267274, Note_on_c, 2, 71, 117
1, 267275, Note_on_c, 4, 55, 127
1, 267282, Note_off_c, 4, 54, 64
1, 267359, Note_on_c, 4, 56, 127
1, 267369, Note_off_c, 4, 55, 64
1, 267440, Note_off_c, 2, 71, 64
1, 267447, Note_on_c, 2, 71, 117
1, 267448, Note_on_c, 4, 55, 127
1, 267457, Note_off_c, 4, 56, 64
1, 267524, Note_off_c, 2, 71, 64
1, 267531, Note_off_c, 4, 55, 64
1, 267539, Note_on_c, 2, 71, 117
1, 267540, Note_on_c, 4, 55, 127
1, 267623, Note_off_c, 2, 71, 64
1, 267629, Note_on_c, 2, 70, 119
1, 267630, Note_on_c, 4, 56, 127
1, 267638, Note_off_c, 4, 55, 64
1, 267715, Note_on_c, 4, 58, 127
1, 267724, Note_off_c, 4, 56, 64
1, 267772, Note_off_c, 2, 70, 64
1, 267802, Note_on_c, 2, 70, 119
1, 267803, Note_on_c, 4, 56, 127
1, 267811, Note_off_c, 4, 58, 64
1, 267876, Note_off_c, 2, 70, 64
1, 267892, Note_on_c, 2, 70, 119
1, 267893, Note_on_c, 4, 55, 127
1, 267893, Note_on_c, 4, 63, 127
1, 267900, Note_off_c, 4, 56, 64
1, 267907, Note_off_c, 4, 62, 64
1, 267966, Note_off_c, 4, 63, 64
1, 267980, Note_on_c, 4, 67, 121
1, 267980, Note_on_c, 4, 63, 127
1, 268053, Note_off_c, 4, 63, 64
1, 268053, Note_off_c, 4, 67, 64
1, 268067, Note_on_c, 4, 67, 121
1, 268068, Note_on_c, 4, 63, 127
1, 268108, Note_off_c, 2, 70, 64
1, 268151, Note_on_c, 1, 82, 123
1, 268224, Note_off_c, 1, 82, 64
1, 268240, Note_on_c, 1, 82, 123
1, 268300, Note_off_c, 4, 63, 64
1, 268301, Note_off_c, 4, 67, 64
1, 268329, Note_on_c, 4, 65, 127
1, 268330, Note_on_c, 4, 62, 127
1, 268398, Note_off_c, 4, 62, 64
1, 268398, Note_off_c, 4, 65, 64
1, 268414, Note_on_c, 4, 65, 127
1, 268414, Note_on_c, 4, 62, 127
1, 268469, Note_off_c, 1, 82, 64
1, 268497, Note_on_c, 1, 80, 109
1, 268569, Note_off_c, 1, 80, 64
1, 268577, Note_off_c, 4, 62, 64
1, 268577, Note_off_c, 4, 65, 64
1, 268584, Note_on_c, 1, 80, 109
1, 268584, Note_on_c, 4, 63, 127
1, 268606, Note_off_c, 4, 55, 64
1, 268626, Note_on_c, 1, 79, 109
1, 268632, Note_off_c, 1, 80, 64
1, 268667, Note_on_c, 2, 77, 110
1, 268668, Note_on_c, 4, 55, 127
1, 268675, Note_off_c, 1, 79, 64
1, 268677, Note_off_c, 4, 63, 64
1, 268709, Note_on_c, 2, 75, 110
1, 268716, Note_off_c, 2, 77, 64
1, 268752, Note_on_c, 2, 72, 110
1, 268752, Note_on_c, 4, 56, 127
1, 268758, Note_off_c, 2, 75, 64
1, 268760, Note_off_c, 4, 55, 64
1, 268793, Note_on_c, 2, 75, 110
1, 268800, Note_off_c, 2, 72, 64
1, 268836, Note_on_c, 2, 74, 110
1, 268836, Note_on_c, 4, 58, 127
1, 268843, Note_off_c, 2, 75, 64
1, 268845, Note_off_c, 4, 56, 64
1, 268877, Note_on_c, 2, 77, 110
1, 268884, Note_off_c, 2, 74, 64
1, 268921, Note_on_c, 2, 75, 110
1, 268922, Note_on_c, 4, 60, 127
1, 268928, Note_off_c, 2, 77, 64
1, 268930, Note_off_c, 4, 58, 64
1, 268963, Note_on_c, 1, 79, 109
1, 268970, Note_off_c, 2, 75, 64
1, 269006, Note_on_c, 2, 77, 110
1, 269006, Note_on_c, 4, 62, 127
1, 269013, Note_off_c, 1, 79, 64
1, 269016, Note_off_c, 4, 60, 64
1, 269047, Note_on_c, 1, 80, 109
1, 269055, Note_off_c, 2, 77, 64
1, 269090, Note_on_c, 1, 79, 109
1, 269091, Note_on_c, 4, 63, 127
1, 269098, Note_off_c, 1, 80, 64
1, 269100, Note_off_c, 4, 62, 64
1, 269175, Note_on_c, 2, 70, 119
1, 269188, Note_off_c, 1, 79, 64
1, 269244, Note_off_c, 2, 70, 64
1, 269258, Note_on_c, 2, 70, 119
1, 269300, Note_off_c, 4, 63, 64
1, 269342, Note_on_c, 4, 67, 121
1, 269342, Note_on_c, 4, 63, 127
1, 269413, Note_off_c, 4, 63, 64
1, 269414, Note_off_c, 4, 67, 64
1, 269427, Note_on_c, 4, 67, 121
1, 269428, Note_on_c, 4, 63, 127
1, 269470, Note_off_c, 2, 70, 64
1, 269512, Note_on_c, 1, 82, 120
1, 269584, Note_off_c, 1, 82, 64
1, 269598, Note_on_c, 1, 82, 120
1, 269644, Note_off_c, 4, 67, 64
1, 269644, Note_off_c, 4, 63, 64
1, 269688, Note_on_c, 4, 62, 127
1, 269688, Note_on_c, 4, 65, 127
1, 269760, Note_off_c, 4, 65, 64
1, 269760, Note_off_c, 4, 62, 64
1, 269774, Note_on_c, 4, 65, 127
1, 269775, Note_on_c, 4, 62, 127
1, 269817, Note_off_c, 1, 82, 64
1, 269860, Note_on_c, 1, 80, 109
1, 269932, Note_off_c, 1, 80, 64
1, 269946, Note_off_c, 4, 62, 64
1, 269947, Note_off_c, 4, 65, 64
1, 269947, Note_on_c, 1, 80, 109
1, 269948, Note_on_c, 4, 63, 127
1, 269988, Note_off_c, 1, 80, 64
1, 269989, Note_on_c, 1, 79, 109
1, 270030, Note_off_c, 1, 79, 64
1, 270030, Note_on_c, 2, 77, 110
1, 270031, Note_on_c, 4, 67, 121
1, 270039, Note_off_c, 4, 63, 64
1, 270072, Note_off_c, 2, 77, 64
1, 270072, Note_on_c, 2, 75, 110
1, 270114, Note_off_c, 2, 75, 64
1, 270115, Note_on_c, 1, 80, 109
1, 270115, Note_on_c, 2, 74, 110
1, 270116, Note_on_c, 4, 65, 127
1, 270123, Note_off_c, 4, 67, 64
1, 270193, Note_off_c, 2, 74, 64
1, 270193, Note_off_c, 1, 80, 64
1, 270201, Note_on_c, 1, 79, 109
1, 270201, Note_on_c, 2, 75, 110
1, 270202, Note_on_c, 4, 63, 127
1, 270210, Note_off_c, 4, 65, 64
1, 270279, Note_off_c, 2, 75, 64
1, 270280, Note_off_c, 1, 79, 64
1, 270287, Note_on_c, 1, 79, 109
1, 270288, Note_on_c, 2, 75, 110
1, 270288, Note_on_c, 4, 58, 127
1, 270296, Note_off_c, 4, 63, 64
1, 270364, Note_off_c, 2, 75, 64
1, 270364, Note_off_c, 1, 79, 64
1, 270371, Note_on_c, 2, 77, 110
1, 270371, Note_on_c, 2, 74, 110
1, 270372, Note_on_c, 2, 70, 119
1, 270450, Note_off_c, 4, 58, 64
1, 270454, Note_on_c, 4, 58, 127
1, 270510, Note_off_c, 2, 74, 64
1, 270510, Note_off_c, 2, 70, 64
1, 270511, Note_off_c, 2, 77, 64
1, 270538, Note_on_c, 2, 70, 121
1, 270608, Note_off_c, 2, 70, 64
1, 270617, Note_off_c, 4, 58, 64
1, 270622, Note_on_c, 4, 51, 127
1, 270623, Note_on_c, 2, 69, 121
1, 270663, Note_on_c, 4, 58, 127
1, 270665, Note_on_c, 2, 70, 121
1, 270672, Note_off_c, 2, 69, 64
1, 270706, Note_on_c, 4, 55, 127
1, 270707, Note_on_c, 2, 69, 121
1, 270713, Note_off_c, 2, 70, 64
1, 270714, Note_off_c, 4, 51, 64
1, 270719, Note_off_c, 4, 58, 64
1, 270747, Note_on_c, 4, 58, 127
1, 270748, Note_on_c, 2, 70, 121
1, 270755, Note_off_c, 2, 69, 64
1, 270787, Note_on_c, 4, 51, 127
1, 270788, Note_on_c, 2, 69, 121
1, 270795, Note_off_c, 2, 70, 64
1, 270796, Note_off_c, 4, 55, 64
1, 270800, Note_off_c, 4, 58, 64
1, 270826, Note_on_c, 4, 58, 127
1, 270827, Note_on_c, 2, 70, 121
1, 270833, Note_off_c, 2, 69, 64
1, 270856, Note_on_c, 2, 69, 121
1, 270866, Note_on_c, 4, 55, 127
1, 270875, Note_off_c, 2, 70, 64
1, 270876, Note_off_c, 4, 51, 64
1, 270880, Note_off_c, 4, 58, 64
1, 270909, Note_on_c, 4, 58, 127
1, 270911, Note_on_c, 2, 70, 121
1, 270921, Note_off_c, 2, 69, 64
1, 270941, Note_off_c, 2, 70, 64
1, 270950, Note_on_c, 1, 80, 114
1, 270951, Note_on_c, 4, 50, 127
1, 270959, Note_off_c, 4, 55, 64
1, 270965, Note_off_c, 4, 58, 64
1, 270993, Note_on_c, 4, 58, 127
1, 271034, Note_on_c, 4, 53, 127
1, 271044, Note_off_c, 4, 50, 64
1, 271048, Note_off_c, 4, 58, 64
1, 271076, Note_on_c, 2, 77, 115
1, 271077, Note_off_c, 1, 80, 64
1, 271077, Note_on_c, 4, 58, 127
1, 271118, Note_on_c, 2, 74, 115
1, 271118, Note_on_c, 4, 50, 127
1, 271120, Note_off_c, 2, 77, 64
1, 271127, Note_off_c, 4, 53, 64
1, 271132, Note_off_c, 4, 58, 64
1, 271160, Note_on_c, 4, 58, 127
1, 271202, Note_off_c, 2, 74, 64
1, 271202, Note_on_c, 2, 70, 121
1, 271203, Note_on_c, 4, 53, 127
1, 271211, Note_off_c, 4, 50, 64
1, 271215, Note_off_c, 4, 58, 64
1, 271243, Note_on_c, 4, 58, 127
1, 271284, Note_on_c, 4, 51, 127
1, 271285, Note_on_c, 2, 69, 121
1, 271293, Note_off_c, 4, 53, 64
1, 271294, Note_off_c, 2, 70, 64
1, 271298, Note_off_c, 4, 58, 64
1, 271326, Note_on_c, 4, 58, 127
1, 271328, Note_on_c, 2, 70, 121
1, 271334, Note_off_c, 2, 69, 64
1, 271368, Note_on_c, 4, 55, 127
1, 271369, Note_on_c, 2, 69, 121
1, 271377, Note_off_c, 2, 70, 64
1, 271377, Note_off_c, 4, 51, 64
1, 271382, Note_off_c, 4, 58, 64
1, 271410, Note_on_c, 4, 58, 127
1, 271411, Note_on_c, 2, 70, 121
1, 271418, Note_off_c, 2, 69, 64
1, 271450, Note_on_c, 4, 51, 127
1, 271452, Note_on_c, 2, 69, 121
1, 271458, Note_off_c, 2, 70, 64
1, 271459, Note_off_c, 4, 55, 64
1, 271463, Note_off_c, 4, 58, 64
1, 271490, Note_on_c, 4, 58, 127
1, 271492, Note_on_c, 2, 70, 121
1, 271498, Note_off_c, 2, 69, 64
1, 271527, Note_on_c, 2, 69, 121
1, 271529, Note_on_c, 4, 55, 127
1, 271538, Note_off_c, 2, 70, 64
1, 271539, Note_off_c, 4, 51, 64
1, 271544, Note_off_c, 4, 58, 64
1, 271572, Note_on_c, 2, 70, 121
1, 271572, Note_on_c, 4, 58, 127
1, 271577, Note_off_c, 2, 69, 64
1, 271607, Note_off_c, 2, 70, 64
1, 271612, Note_on_c, 4, 50, 127
1, 271614, Note_on_c, 1, 80, 114
1, 271621, Note_off_c, 4, 55, 64
1, 271626, Note_off_c, 4, 58, 64
1, 271654, Note_on_c, 4, 58, 127
1, 271697, Note_on_c, 4, 53, 127
1, 271705, Note_off_c, 4, 50, 64
1, 271710, Note_off_c, 4, 58, 64
1, 271732, Note_off_c, 1, 80, 64
1, 271738, Note_on_c, 2, 77, 115
1, 271738, Note_on_c, 4, 58, 127
1, 271780, Note_on_c, 2, 74, 115
1, 271780, Note_on_c, 4, 50, 127
1, 271781, Note_off_c, 2, 77, 64
1, 271788, Note_off_c, 4, 53, 64
1, 271793, Note_off_c, 4, 58, 64
1, 271822, Note_on_c, 4, 58, 127
1, 271842, Note_off_c, 2, 74, 64
1, 271864, Note_on_c, 2, 70, 119
1, 271865, Note_on_c, 4, 53, 127
1, 271878, Note_off_c, 4, 50, 64
1, 271884, Note_off_c, 4, 58, 64
1, 271895, Note_on_c, 2, 68, 119
1, 271904, Note_off_c, 2, 70, 64
1, 271924, Note_on_c, 2, 70, 119
1, 271924, Note_on_c, 4, 58, 127
1, 271933, Note_off_c, 2, 68, 64
1, 271943, Note_off_c, 4, 53, 64
1, 271953, Note_on_c, 2, 68, 119
1, 271955, Note_off_c, 2, 70, 64
1, 271976, Note_off_c, 2, 68, 64
1, 271979, Note_on_c, 4, 51, 127
1, 271979, Note_on_c, 4, 67, 121
1, 271994, Note_off_c, 4, 58, 64
1, 272026, Note_on_c, 2, 70, 119
1, 272034, Note_off_c, 4, 67, 64
1, 272071, Note_on_c, 2, 75, 115
1, 272079, Note_off_c, 2, 70, 64
1, 272116, Note_on_c, 1, 79, 114
1, 272123, Note_off_c, 2, 75, 64
1, 272160, Note_off_c, 4, 51, 64
1, 272160, Note_on_c, 1, 82, 114
1, 272160, Note_on_c, 4, 55, 127
1, 272167, Note_off_c, 1, 79, 64
1, 272205, Note_on_c, 1, 79, 114
1, 272211, Note_off_c, 1, 82, 64
1, 272246, Note_on_c, 2, 75, 115
1, 272252, Note_off_c, 1, 79, 64
1, 272288, Note_on_c, 2, 70, 119
1, 272295, Note_off_c, 2, 75, 64
1, 272331, Note_off_c, 4, 55, 64
1, 272332, Note_on_c, 4, 56, 127
1, 272332, Note_on_c, 2, 72, 115
1, 272338, Note_off_c, 2, 70, 64
1, 272373, Note_on_c, 1, 84, 111
1, 272380, Note_off_c, 2, 72, 64
1, 272418, Note_on_c, 1, 83, 109
1, 272425, Note_off_c, 1, 84, 64
1, 272461, Note_on_c, 1, 84, 111
1, 272468, Note_off_c, 1, 83, 64
1, 272504, Note_on_c, 1, 79, 109
1, 272511, Note_off_c, 1, 84, 64
1, 272547, Note_on_c, 1, 80, 109
1, 272555, Note_off_c, 1, 79, 64
1, 272586, Note_off_c, 4, 56, 64
1, 272592, Note_on_c, 2, 76, 110
1, 272593, Note_on_c, 2, 68, 119
1, 272593, Note_on_c, 4, 56, 127
1, 272600, Note_off_c, 1, 80, 64
1, 272640, Note_on_c, 2, 77, 110
1, 272650, Note_off_c, 2, 76, 64
1, 272683, Note_off_c, 4, 56, 64
1, 272683, Note_off_c, 2, 68, 64
1, 272690, Note_on_c, 2, 75, 110
1, 272691, Note_on_c, 4, 67, 121
1, 272691, Note_on_c, 4, 58, 127
1, 272697, Note_off_c, 2, 77, 64
1, 272783, Note_off_c, 4, 67, 64
1, 272783, Note_off_c, 2, 75, 64
1, 272784, Note_on_c, 2, 74, 115
1, 272784, Note_on_c, 4, 65, 127
1, 272840, Note_off_c, 4, 58, 64
1, 272869, Note_on_c, 4, 58, 127
1, 272914, Note_on_c, 4, 60, 127
1, 272921, Note_off_c, 4, 58, 64
1, 272956, Note_on_c, 4, 56, 127
1, 272963, Note_off_c, 4, 60, 64
1, 273001, Note_on_c, 4, 58, 127
1, 273009, Note_off_c, 4, 56, 64
1, 273045, Note_on_c, 4, 55, 127
1, 273052, Note_off_c, 4, 58, 64
1, 273129, Note_on_c, 1, 82, 109
1, 273218, Note_off_c, 1, 82, 64
1, 273219, Note_on_c, 1, 80, 109
1, 273292, Note_off_c, 4, 65, 64
1, 273293, Note_off_c, 2, 74, 64
1, 273307, Note_off_c, 1, 80, 64
1, 273307, Note_on_c, 1, 79, 109
1, 273308, Note_on_c, 2, 70, 119
1, 273308, Note_on_c, 4, 67, 121
1, 273396, Note_off_c, 4, 67, 64
1, 273396, Note_off_c, 2, 70, 64
1, 273397, Note_on_c, 2, 72, 115
1, 273397, Note_on_c, 2, 68, 119
1, 273485, Note_off_c, 1, 79, 64
1, 273486, Note_on_c, 2, 76, 110
1, 273543, Note_off_c, 2, 76, 64
1, 273572, Note_on_c, 2, 76, 110
1, 273650, Note_off_c, 2, 68, 64
1, 273650, Note_off_c, 2, 72, 64
1, 273657, Note_off_c, 2, 76, 64
1, 273658, Note_on_c, 2, 77, 110
1, 273658, Note_on_c, 2, 72, 115
1, 273659, Note_on_c, 2, 68, 119
1, 273745, Note_off_c, 2, 68, 64
1, 273746, Note_off_c, 2, 72, 64
1, 273746, Note_on_c, 2, 74, 115
1, 273747, Note_on_c, 2, 70, 119
1, 273835, Note_off_c, 2, 77, 64
1, 273835, Note_on_c, 1, 84, 111
1, 273925, Note_off_c, 1, 84, 64
1, 273925, Note_on_c, 1, 82, 109
1, 274007, Note_off_c, 2, 74, 64
1, 274007, Note_off_c, 2, 70, 64
1, 274013, Note_off_c, 1, 82, 64
1, 274014, Note_on_c, 1, 80, 112
1, 274014, Note_on_c, 2, 74, 118
1, 274015, Note_on_c, 2, 70, 119
1, 274105, Note_off_c, 2, 74, 64
1, 274105, Note_off_c, 2, 70, 64
1, 274105, Note_on_c, 2, 75, 118
1, 274106, Note_on_c, 2, 72, 118
1, 274190, Note_off_c, 1, 80, 64
1, 274190, Note_on_c, 1, 78, 117
1, 274271, Note_off_c, 1, 78, 64
1, 274278, Note_on_c, 1, 78, 117
1, 274359, Note_off_c, 2, 75, 64
1, 274359, Note_off_c, 2, 72, 64
1, 274367, Note_on_c, 1, 79, 117
1, 274368, Note_on_c, 2, 75, 118
1, 274368, Note_on_c, 2, 72, 118
1, 274376, Note_off_c, 1, 78, 64
1, 274441, Note_off_c, 4, 55, 64
1, 274455, Note_off_c, 2, 72, 64
1, 274456, Note_off_c, 2, 75, 64
1, 274456, Note_on_c, 4, 63, 127
1, 274457, Note_on_c, 4, 43, 127
1, 274468, Note_off_c, 1, 79, 64
1, 274468, Note_on_c, 4, 67, 125
1, 274479, Note_on_c, 2, 70, 123
1, 274488, Note_on_c, 2, 75, 121
1, 274501, Note_on_c, 4, 51, 127
1, 274544, Note_on_c, 4, 46, 127
1, 274552, Note_off_c, 4, 43, 64
1, 274558, Note_off_c, 4, 51, 64
1, 274587, Note_on_c, 4, 51, 127
1, 274630, Note_on_c, 4, 43, 127
1, 274639, Note_off_c, 4, 46, 64
1, 274644, Note_off_c, 4, 51, 64
1, 274673, Note_on_c, 4, 51, 127
1, 274716, Note_on_c, 4, 46, 127
1, 274726, Note_off_c, 4, 43, 64
1, 274732, Note_off_c, 4, 51, 64
1, 274736, Note_off_c, 4, 63, 64
1, 274747, Note_off_c, 4, 67, 64
1, 274756, Note_off_c, 2, 70, 64
1, 274761, Note_on_c, 4, 51, 127
1, 274767, Note_off_c, 2, 75, 64
1, 274805, Note_on_c, 4, 60, 127
1, 274805, Note_on_c, 4, 44, 127
1, 274815, Note_off_c, 4, 46, 64
1, 274816, Note_on_c, 4, 65, 127
1, 274820, Note_off_c, 4, 51, 64
1, 274825, Note_on_c, 2, 68, 123
1, 274835, Note_on_c, 2, 72, 121
1, 274849, Note_on_c, 4, 53, 127
1, 274890, Note_on_c, 4, 48, 127
1, 274899, Note_off_c, 4, 44, 64
1, 274905, Note_off_c, 4, 53, 64
1, 274932, Note_on_c, 4, 53, 127
1, 274974, Note_on_c, 4, 44, 127
1, 274983, Note_off_c, 4, 48, 64
1, 274988, Note_off_c, 4, 53, 64
1, 275017, Note_on_c, 4, 53, 127
1, 275060, Note_on_c, 4, 48, 127
1, 275069, Note_off_c, 4, 44, 64
1, 275075, Note_off_c, 4, 53, 64
1, 275103, Note_on_c, 4, 53, 127
1, 275106, Note_off_c, 4, 60, 64
1, 275117, Note_off_c, 4, 65, 64
1, 275126, Note_off_c, 2, 68, 64
1, 275137, Note_off_c, 2, 72, 64
1, 275146, Note_on_c, 2, 72, 121
1, 275146, Note_on_c, 4, 46, 127
1, 275156, Note_off_c, 4, 48, 64
1, 275161, Note_off_c, 4, 53, 64
1, 275189, Note_off_c, 2, 72, 64
1, 275189, Note_on_c, 2, 70, 123
1, 275190, Note_on_c, 4, 55, 127
1, 275231, Note_off_c, 2, 70, 64
1, 275232, Note_on_c, 4, 51, 127
1, 275232, Note_on_c, 2, 68, 123
1, 275240, Note_off_c, 4, 46, 64
1, 275244, Note_off_c, 4, 55, 64
1, 275272, Note_off_c, 2, 68, 64
1, 275273, Note_on_c, 4, 67, 125
1, 275273, Note_on_c, 4, 55, 127
1, 275301, Note_off_c, 4, 67, 64
1, 275316, Note_on_c, 4, 67, 125
1, 275316, Note_on_c, 4, 46, 127
1, 275324, Note_off_c, 4, 51, 64
1, 275329, Note_off_c, 4, 55, 64
1, 275358, Note_off_c, 4, 67, 64
1, 275358, Note_on_c, 4, 65, 127
1, 275359, Note_on_c, 4, 56, 127
1, 275400, Note_off_c, 4, 65, 64
1, 275400, Note_on_c, 4, 63, 127
1, 275401, Note_on_c, 4, 53, 127
1, 275410, Note_off_c, 4, 46, 64
1, 275414, Note_off_c, 4, 56, 64
1, 275443, Note_off_c, 4, 63, 64
1, 275444, Note_on_c, 4, 62, 127
1, 275444, Note_on_c, 4, 56, 127
1, 275458, Note_off_c, 4, 53, 64
1, 275484, Note_off_c, 4, 56, 64
1, 275486, Note_off_c, 4, 62, 64
1, 275487, Note_on_c, 4, 55, 127
1, 275487, Note_on_c, 4, 65, 127
1, 275488, Note_on_c, 4, 51, 127
1, 275530, Note_on_c, 4, 63, 127
1, 275536, Note_off_c, 4, 65, 64
1, 275571, Note_on_c, 4, 67, 125
1, 275579, Note_off_c, 4, 63, 64
1, 275614, Note_on_c, 4, 65, 127
1, 275622, Note_off_c, 4, 67, 64
1, 275656, Note_on_c, 2, 68, 123
1, 275663, Note_off_c, 4, 65, 64
1, 275699, Note_on_c, 4, 67, 125
1, 275707, Note_off_c, 2, 68, 64
1, 275741, Note_on_c, 2, 70, 123
1, 275748, Note_off_c, 4, 67, 64
1, 275786, Note_on_c, 2, 68, 123
1, 275793, Note_off_c, 2, 70, 64
1, 275829, Note_on_c, 2, 72, 121
1, 275836, Note_off_c, 2, 68, 64
1, 275916, Note_off_c, 2, 72, 64
1, 275916, Note_on_c, 2, 70, 123
1, 275993, Note_off_c, 4, 51, 64
1, 275994, Note_off_c, 4, 55, 64
1, 276001, Note_on_c, 4, 58, 127
1, 276001, Note_on_c, 4, 55, 127
1, 276080, Note_off_c, 2, 70, 64
1, 276087, Note_on_c, 4, 67, 125
1, 276177, Note_off_c, 4, 67, 64
1, 276177, Note_on_c, 4, 64, 127
1, 276265, Note_on_c, 4, 67, 125
1, 276270, Note_off_c, 4, 64, 64
1, 276352, Note_off_c, 4, 55, 64
1, 276353, Note_off_c, 4, 58, 64
1, 276353, Note_on_c, 4, 60, 127
1, 276354, Note_on_c, 4, 56, 127
1, 276432, Note_off_c, 4, 67, 64
1, 276438, Note_on_c, 4, 65, 127
1, 276527, Note_on_c, 2, 71, 121
1, 276530, Note_off_c, 4, 65, 64
1, 276613, Note_on_c, 2, 72, 121
1, 276616, Note_off_c, 2, 71, 64
1, 276699, Note_off_c, 4, 60, 64
1, 276699, Note_off_c, 4, 56, 64
1, 276700, Note_on_c, 4, 62, 127
1, 276700, Note_on_c, 4, 58, 127
1, 276786, Note_on_c, 2, 68, 123
1, 276790, Note_off_c, 2, 72, 64
1, 276877, Note_off_c, 2, 68, 64
1, 276877, Note_on_c, 4, 66, 125
1, 276961, Note_off_c, 4, 66, 64
1, 276962, Note_on_c, 2, 68, 123
1, 277048, Note_off_c, 4, 58, 64
1, 277048, Note_off_c, 4, 62, 64
1, 277049, Note_on_c, 4, 63, 127
1, 277049, Note_on_c, 4, 60, 127
1, 277121, Note_off_c, 2, 68, 64
1, 277133, Note_on_c, 4, 67, 125
1, 277204, Note_off_c, 4, 67, 64
1, 277213, Note_off_c, 4, 60, 64
1, 277213, Note_off_c, 4, 63, 64
1, 277220, Note_on_c, 4, 63, 127
1, 277220, Note_on_c, 4, 43, 127
1, 277232, Note_on_c, 4, 67, 125
1, 277243, Note_on_c, 2, 70, 123
1, 277252, Note_on_c, 2, 75, 121
1, 277265, Note_on_c, 4, 51, 127
1, 277306, Note_on_c, 4, 46, 127
1, 277316, Note_off_c, 4, 43, 64
1, 277320, Note_off_c, 4, 51, 64
1, 277348, Note_on_c, 4, 51, 127
1, 277391, Note_on_c, 4, 43, 127
1, 277399, Note_off_c, 4, 46, 64
1, 277404, Note_off_c, 4, 51, 64
1, 277432, Note_on_c, 4, 51, 127
1, 277445, Note_off_c, 4, 63, 64
1, 277454, Note_off_c, 4, 67, 64
1, 277464, Note_off_c, 2, 70, 64
1, 277472, Note_on_c, 4, 46, 127
1, 277473, Note_off_c, 2, 75, 64
1, 277481, Note_off_c, 4, 43, 64
1, 277486, Note_off_c, 4, 51, 64
1, 277514, Note_on_c, 4, 51, 127
1, 277554, Note_on_c, 4, 60, 127
1, 277554, Note_on_c, 4, 44, 127
1, 277565, Note_off_c, 4, 46, 64
1, 277565, Note_on_c, 4, 65, 127
1, 277570, Note_off_c, 4, 51, 64
1, 277576, Note_on_c, 2, 68, 123
1, 277585, Note_on_c, 2, 72, 121
1, 277598, Note_on_c, 4, 53, 127
1, 277639, Note_on_c, 4, 48, 127
1, 277649, Note_off_c, 4, 44, 64
1, 277654, Note_off_c, 4, 53, 64
1, 277681, Note_on_c, 4, 53, 127
1, 277724, Note_on_c, 4, 44, 127
1, 277732, Note_off_c, 4, 48, 64
1, 277737, Note_off_c, 4, 53, 64
1, 277765, Note_on_c, 4, 53, 127
1, 277779, Note_off_c, 4, 60, 64
1, 277789, Note_off_c, 4, 65, 64
1, 277799, Note_off_c, 2, 68, 64
1, 277806, Note_on_c, 4, 48, 127
1, 277808, Note_off_c, 2, 72, 64
1, 277815, Note_off_c, 4, 44, 64
1, 277820, Note_off_c, 4, 53, 64
1, 277848, Note_on_c, 4, 53, 127
1, 277888, Note_on_c, 2, 72, 118
1, 277888, Note_on_c, 4, 46, 127
1, 277897, Note_off_c, 4, 48, 64
1, 277902, Note_off_c, 4, 53, 64
1, 277929, Note_off_c, 2, 72, 64
1, 277930, Note_on_c, 2, 70, 119
1, 277930, Note_on_c, 4, 55, 127
1, 277969, Note_off_c, 2, 70, 64
1, 277970, Note_on_c, 2, 68, 119
1, 277970, Note_on_c, 4, 51, 127
1, 277978, Note_off_c, 4, 46, 64
1, 277983, Note_off_c, 4, 55, 64
1, 278011, Note_off_c, 2, 68, 64
1, 278011, Note_on_c, 4, 67, 121
1, 278012, Note_on_c, 4, 55, 127
1, 278038, Note_off_c, 4, 67, 64
1, 278051, Note_on_c, 4, 67, 121
1, 278052, Note_on_c, 4, 46, 127
1, 278061, Note_off_c, 4, 51, 64
1, 278065, Note_off_c, 4, 55, 64
1, 278092, Note_off_c, 4, 67, 64
1, 278093, Note_on_c, 4, 65, 127
1, 278093, Note_on_c, 4, 56, 127
1, 278135, Note_off_c, 4, 65, 64
1, 278135, Note_on_c, 4, 63, 127
1, 278136, Note_on_c, 4, 53, 127
1, 278144, Note_off_c, 4, 46, 64
1, 278149, Note_off_c, 4, 56, 64
1, 278177, Note_off_c, 4, 63, 64
1, 278177, Note_on_c, 4, 62, 127
1, 278178, Note_on_c, 4, 56, 127
1, 278192, Note_off_c, 4, 53, 64
1, 278220, Note_off_c, 4, 62, 64
1, 278220, Note_on_c, 4, 63, 127
1, 278221, Note_on_c, 4, 55, 127
1, 278221, Note_on_c, 4, 48, 127
1, 278226, Note_off_c, 4, 56, 64
1, 278262, Note_on_c, 2, 75, 108
1, 278270, Note_off_c, 4, 63, 64
1, 278307, Note_on_c, 2, 77, 108
1, 278314, Note_off_c, 2, 75, 64
1, 278351, Note_on_c, 1, 79, 107
1, 278358, Note_off_c, 2, 77, 64
1, 278394, Note_on_c, 1, 80, 107
1, 278401, Note_off_c, 1, 79, 64
1, 278436, Note_on_c, 1, 82, 107
1, 278443, Note_off_c, 1, 80, 64
1, 278478, Note_on_c, 1, 84, 109
1, 278485, Note_off_c, 1, 82, 64
1, 278520, Note_on_c, 1, 86, 109
1, 278527, Note_off_c, 1, 84, 64
1, 278556, Note_off_c, 4, 55, 64
1, 278561, Note_off_c, 4, 48, 64
1, 278563, Note_on_c, 4, 55, 127
1, 278563, Note_on_c, 1, 87, 109
1, 278569, Note_off_c, 1, 86, 64
1, 278607, Note_on_c, 1, 82, 107
1, 278607, Note_on_c, 4, 63, 127
1, 278614, Note_off_c, 1, 87, 64
1, 278648, Note_on_c, 1, 79, 107
1, 278649, Note_on_c, 4, 58, 127
1, 278656, Note_off_c, 1, 82, 64
1, 278658, Note_off_c, 4, 55, 64
1, 278663, Note_off_c, 4, 63, 64
1, 278693, Note_on_c, 2, 75, 102
1, 278694, Note_on_c, 4, 63, 127
1, 278700, Note_off_c, 1, 79, 64
1, 278740, Note_on_c, 2, 77, 102
1, 278740, Note_on_c, 4, 55, 127
1, 278748, Note_off_c, 2, 75, 64
1, 278751, Note_off_c, 4, 58, 64
1, 278757, Note_off_c, 4, 63, 64
1, 278764, Note_on_c, 2, 75, 102
1, 278773, Note_off_c, 2, 77, 64
1, 278789, Note_on_c, 2, 77, 102
1, 278790, Note_on_c, 4, 63, 127
1, 278798, Note_off_c, 2, 75, 64
1, 278815, Note_on_c, 2, 75, 102
1, 278823, Note_off_c, 2, 77, 64
1, 278840, Note_on_c, 4, 58, 127
1, 278840, Note_on_c, 2, 77, 102
1, 278849, Note_off_c, 2, 75, 64
1, 278851, Note_off_c, 4, 55, 64
1, 278857, Note_off_c, 4, 63, 64
1, 278865, Note_on_c, 2, 75, 102
1, 278873, Note_off_c, 2, 77, 64
1, 278884, Note_off_c, 2, 75, 64
1, 278889, Note_on_c, 2, 74, 102
1, 278890, Note_on_c, 4, 63, 127
1, 278910, Note_off_c, 2, 74, 64
1, 278914, Note_on_c, 2, 75, 102
1, 278936, Note_off_c, 2, 75, 64
1, 278938, Note_on_c, 2, 72, 113
1, 278939, Note_on_c, 4, 56, 127
1, 278947, Note_off_c, 4, 58, 64
1, 278952, Note_off_c, 4, 63, 64
1, 278980, Note_on_c, 2, 77, 102
1, 278981, Note_on_c, 4, 65, 127
1, 278990, Note_off_c, 2, 72, 64
1, 279022, Note_on_c, 1, 80, 107
1, 279023, Note_on_c, 4, 60, 127
1, 279027, Note_off_c, 2, 77, 64
1, 279030, Note_off_c, 4, 56, 64
1, 279036, Note_off_c, 4, 65, 64
1, 279063, Note_on_c, 1, 84, 109
1, 279064, Note_on_c, 4, 65, 127
1, 279067, Note_off_c, 1, 80, 64
1, 279106, Note_on_c, 1, 86, 109
1, 279106, Note_on_c, 4, 56, 127
1, 279110, Note_off_c, 1, 84, 64
1, 279116, Note_off_c, 4, 60, 64
1, 279122, Note_off_c, 4, 65, 64
1, 279129, Note_on_c, 1, 84, 109
1, 279137, Note_off_c, 1, 86, 64
1, 279154, Note_on_c, 1, 86, 109
1, 279154, Note_on_c, 4, 65, 127
1, 279161, Note_off_c, 1, 84, 64
1, 279178, Note_on_c, 1, 84, 109
1, 279184, Note_off_c, 1, 86, 64
1, 279200, Note_on_c, 1, 86, 109
1, 279200, Note_on_c, 4, 60, 127
1, 279208, Note_off_c, 1, 84, 64
1, 279210, Note_off_c, 4, 56, 64
1, 279216, Note_off_c, 4, 65, 64
1, 279224, Note_on_c, 1, 84, 109
1, 279231, Note_off_c, 1, 86, 64
1, 279246, Note_on_c, 1, 82, 107
1, 279246, Note_on_c, 4, 65, 127
1, 279253, Note_off_c, 1, 84, 64
1, 279269, Note_off_c, 1, 82, 64
1, 279269, Note_on_c, 1, 84, 109
1, 279283, Note_off_c, 1, 84, 64
1, 279290, Note_on_c, 4, 58, 127
1, 279290, Note_on_c, 1, 84, 109
1, 279299, Note_off_c, 4, 60, 64
1, 279305, Note_off_c, 4, 65, 64
1, 279335, Note_off_c, 1, 84, 64
1, 279336, Note_on_c, 1, 82, 107
1, 279336, Note_on_c, 4, 67, 121
1, 279378, Note_on_c, 1, 80, 107
1, 279379, Note_on_c, 4, 63, 127
1, 279386, Note_off_c, 1, 82, 64
1, 279387, Note_off_c, 4, 58, 64
1, 279393, Note_off_c, 4, 67, 64
1, 279421, Note_on_c, 1, 79, 107
1, 279422, Note_on_c, 4, 67, 121
1, 279429, Note_off_c, 1, 80, 64
1, 279450, Note_off_c, 1, 79, 64
1, 279464, Note_on_c, 1, 79, 107
1, 279464, Note_on_c, 4, 58, 127
1, 279473, Note_off_c, 4, 63, 64
1, 279478, Note_off_c, 4, 67, 64
1, 279506, Note_on_c, 2, 77, 102
1, 279506, Note_on_c, 2, 68, 119
1, 279514, Note_off_c, 1, 79, 64
1, 279548, Note_on_c, 2, 75, 102
1, 279549, Note_on_c, 4, 65, 127
1, 279555, Note_off_c, 2, 77, 64
1, 279556, Note_off_c, 4, 58, 64
1, 279562, Note_off_c, 2, 68, 64
1, 279589, Note_on_c, 2, 74, 102
1, 279590, Note_on_c, 2, 68, 119
1, 279597, Note_off_c, 2, 75, 64
1, 279604, Note_off_c, 4, 65, 64
1, 279633, Note_on_c, 4, 67, 121
1, 279633, Note_on_c, 2, 75, 104
1, 279634, Note_on_c, 4, 63, 127
1, 279640, Note_off_c, 2, 68, 64
1, 279641, Note_off_c, 2, 74, 64
1, 279677, Note_on_c, 2, 77, 104
1, 279684, Note_off_c, 2, 75, 64
1, 279721, Note_on_c, 1, 79, 109
1, 279729, Note_off_c, 2, 77, 64
1, 279765, Note_on_c, 1, 80, 109
1, 279772, Note_off_c, 1, 79, 64
1, 279808, Note_on_c, 1, 82, 109
1, 279816, Note_off_c, 1, 80, 64
1, 279852, Note_on_c, 1, 84, 111
1, 279859, Note_off_c, 1, 82, 64
1, 279893, Note_on_c, 1, 86, 111
1, 279900, Note_off_c, 1, 84, 64
1, 279932, Note_on_c, 1, 87, 111
1, 279939, Note_off_c, 1, 86, 64
1, 279972, Note_on_c, 1, 83, 109
1, 279979, Note_off_c, 1, 87, 64
1, 280014, Note_on_c, 1, 84, 111
1, 280020, Note_off_c, 1, 83, 64
1, 280055, Note_off_c, 4, 63, 64
1, 280056, Note_off_c, 4, 67, 64
1, 280056, Note_on_c, 1, 80, 109
1, 280056, Note_on_c, 2, 68, 119
1, 280062, Note_off_c, 1, 84, 64
1, 280099, Note_on_c, 2, 77, 104
1, 280106, Note_off_c, 1, 80, 64
1, 280141, Note_on_c, 1, 79, 109
1, 280142, Note_on_c, 4, 65, 127
1, 280149, Note_off_c, 2, 77, 64
1, 280151, Note_off_c, 2, 68, 64
1, 280186, Note_on_c, 1, 80, 109
1, 280192, Note_off_c, 1, 79, 64
1, 280229, Note_on_c, 2, 70, 119
1, 280229, Note_on_c, 2, 77, 104
1, 280236, Note_off_c, 1, 80, 64
1, 280238, Note_off_c, 4, 65, 64
1, 280272, Note_on_c, 2, 74, 102
1, 280280, Note_off_c, 2, 77, 64
1, 280315, Note_on_c, 2, 75, 104
1, 280316, Note_on_c, 4, 67, 121
1, 280322, Note_off_c, 2, 74, 64
1, 280324, Note_off_c, 2, 70, 64
1, 280356, Note_on_c, 2, 77, 104
1, 280364, Note_off_c, 2, 75, 64
1, 280400, Note_on_c, 1, 79, 109
1, 280406, Note_off_c, 2, 77, 64
1, 280440, Note_on_c, 1, 80, 109
1, 280447, Note_off_c, 1, 79, 64
1, 280481, Note_on_c, 1, 82, 109
1, 280487, Note_off_c, 1, 80, 64
1, 280525, Note_on_c, 1, 79, 109
1, 280532, Note_off_c, 1, 82, 64
1, 280566, Note_on_c, 2, 75, 107
1, 280572, Note_off_c, 1, 79, 64
1, 280606, Note_on_c, 2, 70, 119
1, 280613, Note_off_c, 2, 75, 64
1, 280650, Note_on_c, 2, 71, 109
1, 280657, Note_off_c, 2, 70, 64
1, 280692, Note_on_c, 2, 72, 110
1, 280699, Note_off_c, 4, 67, 64
1, 280700, Note_off_c, 2, 71, 64
1, 280734, Note_on_c, 4, 56, 127
1, 280734, Note_on_c, 2, 68, 119
1, 280740, Note_off_c, 2, 72, 64
1, 280774, Note_on_c, 4, 65, 127
1, 280782, Note_off_c, 2, 68, 64
1, 280817, Note_on_c, 4, 67, 121
1, 280818, Note_on_c, 4, 53, 127
1, 280824, Note_off_c, 4, 65, 64
1, 280826, Note_off_c, 4, 56, 64
1, 280860, Note_on_c, 2, 68, 119
1, 280866, Note_off_c, 4, 67, 64
1, 280903, Note_on_c, 4, 65, 127
1, 280903, Note_on_c, 4, 58, 127
1, 280909, Note_off_c, 2, 68, 64
1, 280911, Note_off_c, 4, 53, 64
1, 280944, Note_on_c, 4, 62, 127
1, 280950, Note_off_c, 4, 65, 64
1, 280986, Note_on_c, 4, 63, 127
1, 280987, Note_on_c, 4, 51, 127
1, 280993, Note_off_c, 4, 62, 64
1, 280995, Note_off_c, 4, 58, 64
1, 281028, Note_on_c, 2, 70, 119
1, 281035, Note_off_c, 4, 63, 64
1, 281070, Note_on_c, 2, 69, 119
1, 281076, Note_off_c, 2, 70, 64
1, 281113, Note_on_c, 2, 70, 119
1, 281120, Note_off_c, 2, 69, 64
1, 281155, Note_on_c, 2, 72, 115
1, 281162, Note_off_c, 2, 70, 64
1, 281197, Note_on_c, 2, 70, 119
1, 281205, Note_off_c, 2, 72, 64
1, 281240, Note_off_c, 4, 51, 64
1, 281240, Note_on_c, 2, 74, 110
1, 281241, Note_on_c, 2, 68, 119
1, 281241, Note_on_c, 4, 65, 127
1, 281242, Note_on_c, 4, 58, 127
1, 281247, Note_off_c, 2, 70, 64
1, 281285, Note_on_c, 2, 70, 119
1, 281321, Note_off_c, 4, 65, 64
1, 281322, Note_off_c, 2, 74, 64
1, 281322, Note_off_c, 2, 68, 64
1, 281328, Note_on_c, 2, 75, 110
1, 281329, Note_on_c, 4, 63, 127
1, 281329, Note_on_c, 4, 67, 121
1, 281336, Note_off_c, 2, 70, 64
1, 281338, Note_off_c, 4, 58, 64
1, 281370, Note_on_c, 2, 70, 119
1, 281413, Note_off_c, 4, 67, 64
1, 281413, Note_on_c, 2, 69, 119
1, 281416, Note_off_c, 2, 70, 64
1, 281458, Note_on_c, 2, 70, 119
1, 281461, Note_off_c, 2, 69, 64
1, 281500, Note_off_c, 2, 75, 64
1, 281500, Note_on_c, 2, 72, 115
1, 281505, Note_off_c, 2, 70, 64
1, 281545, Note_on_c, 2, 70, 119
1, 281589, Note_off_c, 4, 63, 64
1, 281592, Note_off_c, 2, 72, 64
1, 281593, Note_on_c, 2, 74, 115
1, 281593, Note_on_c, 2, 68, 119
1, 281593, Note_on_c, 4, 65, 127
1, 281597, Note_off_c, 2, 70, 64
1, 281634, Note_off_c, 2, 68, 64
1, 281639, Note_on_c, 2, 70, 119
1, 281675, Note_off_c, 2, 70, 64
1, 281682, Note_off_c, 2, 74, 64
1, 281682, Note_on_c, 2, 70, 119
1, 281683, Note_on_c, 4, 58, 127
1, 281738, Note_off_c, 4, 65, 64
1, 281766, Note_off_c, 4, 58, 64
1, 281767, Note_on_c, 4, 53, 127
1, 281850, Note_off_c, 4, 53, 64
1, 281850, Note_on_c, 4, 46, 127
1, 281903, Note_off_c, 2, 70, 64
1, 281934, Note_on_c, 2, 70, 119
1, 281991, Note_off_c, 2, 70, 64
1, 282020, Note_on_c, 2, 70, 119
1, 282103, Note_on_c, 4, 61, 127
1, 282104, Note_on_c, 4, 53, 127
1, 282168, Note_off_c, 4, 53, 64
1, 282169, Note_off_c, 4, 61, 64
1, 282190, Note_on_c, 4, 61, 127
1, 282190, Note_on_c, 4, 53, 127
1, 282274, Note_on_c, 1, 82, 117
1, 282341, Note_off_c, 1, 82, 64
1, 282363, Note_on_c, 1, 82, 117
1, 282449, Note_off_c, 4, 53, 64
1, 282449, Note_off_c, 4, 61, 64
1, 282450, Note_on_c, 4, 60, 127
1, 282450, Note_on_c, 4, 52, 127
1, 282513, Note_off_c, 4, 52, 64
1, 282514, Note_off_c, 4, 60, 64
1, 282534, Note_on_c, 4, 60, 127
1, 282535, Note_on_c, 4, 52, 127
1, 282590, Note_off_c, 2, 70, 64
1, 282618, Note_on_c, 2, 72, 118
1, 282696, Note_off_c, 2, 72, 64
1, 282702, Note_on_c, 2, 73, 118
1, 282745, Note_on_c, 2, 72, 118
1, 282752, Note_off_c, 2, 73, 64
1, 282787, Note_on_c, 2, 74, 118
1, 282787, Note_on_c, 4, 65, 127
1, 282794, Note_off_c, 2, 72, 64
1, 282830, Note_on_c, 2, 72, 118
1, 282837, Note_off_c, 2, 74, 64
1, 282872, Note_on_c, 2, 75, 118
1, 282873, Note_on_c, 4, 67, 121
1, 282879, Note_off_c, 2, 72, 64
1, 282881, Note_off_c, 4, 65, 64
1, 282913, Note_on_c, 2, 72, 118
1, 282920, Note_off_c, 2, 75, 64
1, 282954, Note_off_c, 4, 60, 64
1, 282954, Note_off_c, 4, 52, 64
1, 282955, Note_on_c, 2, 76, 118
1, 282955, Note_on_c, 2, 70, 119
1, 282961, Note_off_c, 2, 72, 64
1, 282963, Note_off_c, 4, 67, 64
1, 282997, Note_off_c, 1, 82, 64
1, 282997, Note_on_c, 2, 72, 118
1, 283004, Note_off_c, 2, 76, 64
1, 283037, Note_on_c, 2, 77, 118
1, 283038, Note_on_c, 2, 68, 119
1, 283044, Note_off_c, 2, 72, 64
1, 283046, Note_off_c, 2, 70, 64
1, 283080, Note_on_c, 2, 72, 118
1, 283087, Note_off_c, 2, 77, 64
1, 283122, Note_on_c, 4, 64, 127
1, 283122, Note_on_c, 1, 79, 117
1, 283129, Note_off_c, 2, 72, 64
1, 283131, Note_off_c, 2, 68, 64
1, 283163, Note_on_c, 2, 72, 118
1, 283171, Note_off_c, 1, 79, 64
1, 283206, Note_on_c, 1, 80, 117
1, 283207, Note_on_c, 4, 65, 127
1, 283213, Note_off_c, 2, 72, 64
1, 283215, Note_off_c, 4, 64, 64
1, 283262, Note_off_c, 4, 46, 64
1, 283290, Note_on_c, 2, 68, 119
1, 283298, Note_off_c, 4, 65, 64
1, 283366, Note_off_c, 2, 68, 64
1, 283373, Note_on_c, 2, 68, 119
1, 283441, Note_off_c, 1, 80, 64
1, 283456, Note_on_c, 4, 59, 127
1, 283456, Note_on_c, 4, 52, 127
1, 283529, Note_off_c, 4, 52, 64
1, 283529, Note_off_c, 4, 59, 64
1, 283544, Note_on_c, 4, 59, 127
1, 283544, Note_on_c, 4, 52, 127
1, 283626, Note_on_c, 1, 80, 117
1, 283697, Note_off_c, 1, 80, 64
1, 283710, Note_on_c, 1, 80, 117
1, 283752, Note_off_c, 4, 52, 64
1, 283753, Note_off_c, 4, 59, 64
1, 283795, Note_on_c, 4, 58, 127
1, 283796, Note_on_c, 4, 50, 127
1, 283866, Note_off_c, 4, 50, 64
1, 283867, Note_off_c, 4, 58, 64
1, 283881, Note_on_c, 4, 58, 127
1, 283881, Note_on_c, 4, 50, 127
1, 283937, Note_off_c, 2, 68, 64
1, 283965, Note_on_c, 2, 70, 119
1, 284041, Note_off_c, 2, 70, 64
1, 284048, Note_on_c, 2, 71, 117
1, 284090, Note_on_c, 2, 70, 119
1, 284104, Note_off_c, 2, 71, 64
1, 284133, Note_on_c, 2, 72, 118
1, 284134, Note_on_c, 4, 63, 127
1, 284148, Note_off_c, 2, 70, 64
1, 284176, Note_on_c, 2, 70, 119
1, 284191, Note_off_c, 2, 72, 64
1, 284218, Note_off_c, 4, 63, 64
1, 284218, Note_on_c, 2, 73, 118
1, 284219, Note_on_c, 4, 65, 127
1, 284232, Note_off_c, 2, 70, 64
1, 284260, Note_on_c, 2, 70, 119
1, 284274, Note_off_c, 2, 73, 64
1, 284275, Note_off_c, 1, 80, 64
1, 284302, Note_off_c, 4, 65, 64
1, 284303, Note_on_c, 2, 74, 118
1, 284303, Note_on_c, 2, 68, 119
1, 284316, Note_off_c, 2, 70, 64
1, 284344, Note_on_c, 2, 70, 119
1, 284358, Note_off_c, 2, 74, 64
1, 284386, Note_off_c, 2, 68, 64
1, 284386, Note_on_c, 2, 75, 118
1, 284387, Note_on_c, 4, 67, 121
1, 284400, Note_off_c, 2, 70, 64
1, 284429, Note_on_c, 2, 70, 119
1, 284442, Note_off_c, 2, 75, 64
1, 284471, Note_off_c, 4, 67, 64
1, 284472, Note_on_c, 2, 77, 118
1, 284472, Note_on_c, 4, 62, 127
1, 284485, Note_off_c, 2, 70, 64
1, 284513, Note_on_c, 2, 70, 119
1, 284527, Note_off_c, 2, 77, 64
1, 284556, Note_off_c, 4, 62, 64
1, 284556, Note_on_c, 4, 63, 127
1, 284556, Note_on_c, 1, 79, 117
1, 284570, Note_off_c, 2, 70, 64
1, 284639, Note_on_c, 4, 51, 127
1, 284653, Note_off_c, 4, 50, 64
1, 284654, Note_off_c, 4, 58, 64
1, 284711, Note_off_c, 4, 51, 64
1, 284726, Note_on_c, 4, 51, 127
1, 284768, Note_off_c, 1, 79, 64
1, 284810, Note_on_c, 2, 73, 118
1, 284810, Note_on_c, 4, 67, 121
1, 284883, Note_off_c, 4, 67, 64
1, 284883, Note_off_c, 2, 73, 64
1, 284896, Note_on_c, 2, 73, 118
1, 284897, Note_on_c, 4, 67, 121
1, 284945, Note_off_c, 4, 63, 64
1, 284981, Note_on_c, 4, 63, 127
1, 285060, Note_off_c, 4, 63, 64
1, 285066, Note_on_c, 4, 63, 127
1, 285140, Note_off_c, 4, 67, 64
1, 285141, Note_off_c, 2, 73, 64
1, 285151, Note_on_c, 2, 72, 118
1, 285151, Note_on_c, 2, 68, 119
1, 285223, Note_off_c, 2, 68, 64
1, 285223, Note_off_c, 2, 72, 64
1, 285237, Note_on_c, 2, 72, 118
1, 285238, Note_on_c, 2, 68, 119
1, 285316, Note_off_c, 4, 51, 64
1, 285324, Note_on_c, 4, 51, 127
1, 285324, Note_on_c, 4, 39, 127
1, 285396, Note_off_c, 4, 39, 64
1, 285396, Note_off_c, 4, 51, 64
1, 285410, Note_on_c, 4, 39, 127
1, 285410, Note_on_c, 4, 51, 127
1, 285452, Note_off_c, 2, 68, 64
1, 285453, Note_off_c, 2, 72, 64
1, 285494, Note_off_c, 4, 63, 64
1, 285495, Note_on_c, 2, 70, 119
1, 285495, Note_on_c, 4, 66, 125
1, 285565, Note_off_c, 4, 66, 64
1, 285566, Note_off_c, 2, 70, 64
1, 285580, Note_on_c, 2, 70, 119
1, 285580, Note_on_c, 4, 66, 125
1, 285660, Note_off_c, 4, 51, 64
1, 285668, Note_on_c, 4, 63, 127
1, 285669, Note_on_c, 4, 51, 127
1, 285727, Note_off_c, 4, 51, 64
1, 285727, Note_off_c, 4, 63, 64
1, 285755, Note_on_c, 4, 63, 127
1, 285756, Note_on_c, 4, 51, 127
1, 285797, Note_off_c, 4, 66, 64
1, 285797, Note_off_c, 2, 70, 64
1, 285839, Note_on_c, 2, 69, 119
1, 285840, Note_on_c, 4, 65, 127
1, 285913, Note_off_c, 4, 65, 64
1, 285914, Note_off_c, 2, 69, 64
1, 285928, Note_on_c, 2, 69, 119
1, 285929, Note_on_c, 4, 65, 127
1, 286016, Note_off_c, 4, 51, 64
1, 286016, Note_on_c, 4, 53, 127
1, 286098, Note_off_c, 4, 53, 64
1, 286104, Note_on_c, 4, 53, 127
1, 286175, Note_off_c, 2, 69, 64
1, 286175, Note_off_c, 4, 65, 64
1, 286189, Note_off_c, 4, 63, 64
1, 286189, Note_on_c, 2, 75, 118
1, 286190, Note_on_c, 2, 69, 119
1, 286261, Note_off_c, 2, 69, 64
1, 286261, Note_off_c, 2, 75, 64
1, 286275, Note_on_c, 2, 75, 118
1, 286275, Note_on_c, 2, 69, 119
1, 286364, Note_on_c, 4, 65, 127
1, 286446, Note_off_c, 4, 65, 64
1, 286453, Note_on_c, 4, 65, 127
1, 286523, Note_off_c, 2, 69, 64
1, 286524, Note_off_c, 2, 75, 64
1, 286537, Note_on_c, 2, 73, 118
1, 286538, Note_on_c, 2, 70, 119
1, 286608, Note_off_c, 2, 70, 64
1, 286609, Note_off_c, 2, 73, 64
1, 286623, Note_on_c, 2, 73, 118
1, 286623, Note_on_c, 2, 70, 119
1, 286637, Note_off_c, 4, 39, 64
1, 286680, Note_off_c, 4, 53, 64
1, 286709, Note_on_c, 4, 53, 127
1, 286710, Note_on_c, 4, 41, 127
1, 286789, Note_off_c, 4, 41, 64
1, 286789, Note_off_c, 4, 53, 64
1, 286796, Note_on_c, 4, 41, 127
1, 286796, Note_on_c, 4, 53, 127
1, 286865, Note_off_c, 2, 70, 64
1, 286865, Note_off_c, 2, 73, 64
1, 286878, Note_off_c, 4, 65, 64
1, 286879, Note_on_c, 2, 72, 118
1, 286879, Note_on_c, 2, 68, 119
1, 286933, Note_off_c, 2, 68, 64
1, 286933, Note_off_c, 2, 72, 64
1, 286954, Note_off_c, 4, 53, 64
1, 286962, Note_on_c, 2, 72, 118
1, 286962, Note_on_c, 2, 68, 119
1, 287047, Note_on_c, 4, 65, 127
1, 287048, Note_on_c, 4, 53, 127
1, 287121, Note_off_c, 4, 53, 64
1, 287122, Note_off_c, 4, 65, 64
1, 287136, Note_on_c, 4, 53, 127
1, 287136, Note_on_c, 4, 65, 127
1, 287212, Note_off_c, 2, 68, 64
1, 287213, Note_off_c, 2, 72, 64
1, 287220, Note_on_c, 2, 71, 117
1, 287220, Note_on_c, 4, 67, 121
1, 287263, Note_off_c, 4, 65, 64
1, 287300, Note_off_c, 4, 67, 64
1, 287300, Note_off_c, 2, 71, 64
1, 287307, Note_on_c, 2, 71, 117
1, 287308, Note_on_c, 4, 67, 121
1, 287386, Note_off_c, 4, 67, 64
1, 287387, Note_off_c, 2, 71, 64
1, 287394, Note_on_c, 2, 71, 117
1, 287394, Note_on_c, 4, 65, 127
1, 287437, Note_on_c, 4, 67, 121
1, 287482, Note_on_c, 2, 72, 118
1, 287483, Note_on_c, 4, 63, 127
1, 287493, Note_off_c, 4, 65, 64
1, 287493, Note_off_c, 2, 71, 64
1, 287498, Note_off_c, 4, 67, 64
1, 287530, Note_on_c, 4, 67, 121
1, 287576, Note_on_c, 2, 74, 118
1, 287577, Note_on_c, 4, 62, 127
1, 287586, Note_off_c, 2, 72, 64
1, 287586, Note_off_c, 4, 63, 64
1, 287592, Note_off_c, 4, 67, 64
1, 287620, Note_on_c, 4, 67, 121
1, 287648, Note_off_c, 4, 53, 64
1, 287663, Note_on_c, 4, 60, 127
1, 287663, Note_on_c, 2, 75, 118
1, 287672, Note_off_c, 4, 62, 64
1, 287673, Note_off_c, 2, 74, 64
1, 287677, Note_off_c, 4, 67, 64
1, 287707, Note_on_c, 4, 67, 121
1, 287750, Note_on_c, 2, 77, 118
1, 287750, Note_on_c, 4, 59, 127
1, 287760, Note_off_c, 2, 75, 64
1, 287760, Note_off_c, 4, 60, 64
1, 287764, Note_off_c, 4, 67, 64
1, 287794, Note_on_c, 4, 67, 121
1, 287837, Note_on_c, 4, 60, 127
1, 287845, Note_on_c, 2, 75, 118
1, 287847, Note_off_c, 4, 59, 64
1, 287847, Note_off_c, 2, 77, 64
1, 287853, Note_off_c, 4, 67, 64
1, 287882, Note_on_c, 4, 67, 121
1, 287925, Note_on_c, 2, 74, 118
1, 287926, Note_on_c, 4, 62, 127
1, 287934, Note_off_c, 4, 60, 64
1, 287940, Note_off_c, 4, 67, 64
1, 287941, Note_off_c, 2, 75, 64
1, 287969, Note_on_c, 4, 67, 121
1, 288012, Note_on_c, 2, 72, 118
1, 288012, Note_on_c, 4, 63, 127
1, 288023, Note_off_c, 2, 74, 64
1, 288024, Note_off_c, 4, 62, 64
1, 288027, Note_off_c, 4, 67, 64
1, 288058, Note_on_c, 4, 67, 121
1, 288101, Note_on_c, 2, 71, 117
1, 288102, Note_on_c, 4, 65, 127
1, 288111, Note_off_c, 4, 63, 64
1, 288111, Note_off_c, 2, 72, 64
1, 288117, Note_off_c, 4, 67, 64
1, 288146, Note_on_c, 4, 67, 121
1, 288192, Note_on_c, 2, 72, 118
1, 288192, Note_on_c, 4, 63, 127
1, 288201, Note_off_c, 4, 65, 64
1, 288202, Note_off_c, 2, 71, 64
1, 288207, Note_off_c, 4, 67, 64
1, 288236, Note_on_c, 4, 67, 121
1, 288279, Note_on_c, 2, 74, 118
1, 288279, Note_on_c, 4, 62, 127
1, 288288, Note_off_c, 4, 63, 64
1, 288289, Note_off_c, 2, 72, 64
1, 288293, Note_off_c, 4, 67, 64
1, 288322, Note_on_c, 4, 67, 121
1, 288365, Note_on_c, 2, 75, 118
1, 288366, Note_on_c, 4, 60, 127
1, 288375, Note_off_c, 4, 62, 64
1, 288375, Note_off_c, 2, 74, 64
1, 288380, Note_off_c, 4, 67, 64
1, 288410, Note_on_c, 4, 67, 121
1, 288451, Note_on_c, 2, 77, 118
1, 288451, Note_on_c, 4, 59, 127
1, 288460, Note_off_c, 4, 60, 64
1, 288461, Note_off_c, 2, 75, 64
1, 288465, Note_off_c, 4, 67, 64
1, 288495, Note_on_c, 4, 67, 121
1, 288539, Note_off_c, 4, 41, 64
1, 288540, Note_on_c, 2, 75, 118
1, 288540, Note_on_c, 4, 60, 127
1, 288549, Note_off_c, 4, 59, 64
1, 288549, Note_off_c, 2, 77, 64
1, 288554, Note_off_c, 4, 67, 64
1, 288628, Note_on_c, 1, 84, 119
1, 288628, Note_on_c, 2, 77, 118
1, 288629, Note_on_c, 2, 68, 119
1, 288629, Note_on_c, 4, 56, 127
1, 288637, Note_off_c, 4, 60, 64
1, 288637, Note_off_c, 2, 75, 64
1, 288717, Note_on_c, 1, 83, 117
1, 288718, Note_on_c, 1, 79, 117
1, 288718, Note_on_c, 4, 67, 121
1, 288718, Note_on_c, 4, 55, 127
1, 288726, Note_off_c, 4, 56, 64
1, 288727, Note_off_c, 2, 77, 64
1, 288727, Note_off_c, 2, 68, 64
1, 288728, Note_off_c, 1, 84, 64
1, 288886, Note_on_c, 2, 72, 118
1, 288887, Note_on_c, 4, 62, 127
1, 288887, Note_on_c, 4, 54, 127
1, 288889, Note_off_c, 4, 55, 64
1, 288890, Note_off_c, 4, 67, 64
1, 288938, Note_off_c, 1, 83, 64
1, 288938, Note_off_c, 1, 79, 64
1, 288973, Note_off_c, 2, 72, 64
1, 288980, Note_on_c, 2, 71, 117
1, 288981, Note_on_c, 4, 55, 127
1, 288989, Note_off_c, 4, 54, 64
1, 289067, Note_on_c, 4, 56, 127
1, 289076, Note_off_c, 4, 55, 64
1, 289147, Note_off_c, 2, 71, 64
1, 289155, Note_on_c, 2, 71, 117
1, 289155, Note_on_c, 4, 55, 127
1, 289164, Note_off_c, 4, 56, 64
1, 289231, Note_off_c, 2, 71, 64
1, 289238, Note_off_c, 4, 55, 64
1, 289246, Note_on_c, 2, 71, 117
1, 289247, Note_on_c, 4, 55, 127
1, 289330, Note_off_c, 2, 71, 64
1, 289336, Note_on_c, 2, 70, 119
1, 289337, Note_on_c, 4, 56, 127
1, 289345, Note_off_c, 4, 55, 64
1, 289422, Note_on_c, 4, 58, 127
1, 289431, Note_off_c, 4, 56, 64
1, 289479, Note_off_c, 2, 70, 64
1, 289509, Note_on_c, 2, 70, 119
1, 289510, Note_on_c, 4, 56, 127
1, 289518, Note_off_c, 4, 58, 64
1, 289583, Note_off_c, 2, 70, 64
1, 289598, Note_on_c, 2, 70, 119
1, 289599, Note_on_c, 4, 55, 127
1, 289600, Note_on_c, 4, 63, 127
1, 289608, Note_off_c, 4, 56, 64
1, 289613, Note_off_c, 4, 62, 64
1, 289672, Note_off_c, 4, 63, 64
1, 289686, Note_on_c, 4, 67, 121
1, 289686, Note_on_c, 4, 63, 127
1, 289760, Note_off_c, 4, 63, 64
1, 289760, Note_off_c, 4, 67, 64
1, 289774, Note_on_c, 4, 67, 121
1, 289775, Note_on_c, 4, 63, 127
1, 289815, Note_off_c, 2, 70, 64
1, 289858, Note_on_c, 1, 82, 123
1, 289932, Note_off_c, 1, 82, 64
1, 289947, Note_on_c, 1, 82, 123
1, 290007, Note_off_c, 4, 63, 64
1, 290008, Note_off_c, 4, 67, 64
1, 290036, Note_on_c, 4, 65, 127
1, 290037, Note_on_c, 4, 62, 127
1, 290107, Note_off_c, 4, 62, 64
1, 290107, Note_off_c, 4, 65, 64
1, 290121, Note_on_c, 4, 65, 127
1, 290121, Note_on_c, 4, 62, 127
1, 290176, Note_off_c, 1, 82, 64
1, 290204, Note_on_c, 1, 80, 109
1, 290276, Note_off_c, 1, 80, 64
1, 290283, Note_off_c, 4, 62, 64
1, 290283, Note_off_c, 4, 65, 64
1, 290291, Note_on_c, 1, 80, 109
1, 290292, Note_on_c, 4, 63, 127
1, 290313, Note_off_c, 4, 55, 64
1, 290333, Note_on_c, 1, 79, 109
1, 290340, Note_off_c, 1, 80, 64
1, 290374, Note_on_c, 2, 77, 110
1, 290375, Note_on_c, 4, 55, 127
1, 290381, Note_off_c, 1, 79, 64
1, 290384, Note_off_c, 4, 63, 64
1, 290416, Note_on_c, 2, 75, 110
1, 290424, Note_off_c, 2, 77, 64
1, 290458, Note_on_c, 2, 72, 110
1, 290458, Note_on_c, 4, 56, 127
1, 290465, Note_off_c, 2, 75, 64
1, 290467, Note_off_c, 4, 55, 64
1, 290500, Note_on_c, 2, 75, 110
1, 290507, Note_off_c, 2, 72, 64
1, 290542, Note_on_c, 2, 74, 110
1, 290543, Note_on_c, 4, 58, 127
1, 290550, Note_off_c, 2, 75, 64
1, 290552, Note_off_c, 4, 56, 64
1, 290584, Note_on_c, 2, 77, 110
1, 290591, Note_off_c, 2, 74, 64
1, 290628, Note_on_c, 2, 75, 110
1, 290628, Note_on_c, 4, 60, 127
1, 290635, Note_off_c, 2, 77, 64
1, 290637, Note_off_c, 4, 58, 64
1, 290670, Note_on_c, 1, 79, 109
1, 290677, Note_off_c, 2, 75, 64
1, 290713, Note_on_c, 2, 77, 110
1, 290714, Note_on_c, 4, 62, 127
1, 290720, Note_off_c, 1, 79, 64
1, 290722, Note_off_c, 4, 60, 64
1, 290755, Note_on_c, 1, 80, 109
1, 290761, Note_off_c, 2, 77, 64
1, 290798, Note_on_c, 1, 79, 109
1, 290798, Note_on_c, 4, 63, 127
1, 290804, Note_off_c, 1, 80, 64
1, 290807, Note_off_c, 4, 62, 64
1, 290881, Note_on_c, 2, 70, 119
1, 290895, Note_off_c, 1, 79, 64
1, 290952, Note_off_c, 2, 70, 64
1, 290966, Note_on_c, 2, 70, 119
1, 291007, Note_off_c, 4, 63, 64
1, 291049, Note_on_c, 4, 67, 121
1, 291050, Note_on_c, 4, 63, 127
1, 291120, Note_off_c, 4, 63, 64
1, 291121, Note_off_c, 4, 67, 64
1, 291135, Note_on_c, 4, 67, 121
1, 291135, Note_on_c, 4, 63, 127
1, 291177, Note_off_c, 2, 70, 64
1, 291219, Note_on_c, 1, 82, 120
1, 291290, Note_off_c, 1, 82, 64
1, 291306, Note_on_c, 1, 82, 120
1, 291351, Note_off_c, 4, 63, 64
1, 291351, Note_off_c, 4, 67, 64
1, 291395, Note_on_c, 4, 65, 127
1, 291396, Note_on_c, 4, 62, 127
1, 291467, Note_off_c, 4, 62, 64
1, 291468, Note_off_c, 4, 65, 64
1, 291481, Note_on_c, 4, 65, 127
1, 291482, Note_on_c, 4, 62, 127
1, 291524, Note_off_c, 1, 82, 64
1, 291567, Note_on_c, 1, 80, 109
1, 291639, Note_off_c, 1, 80, 64
1, 291653, Note_off_c, 4, 62, 64
1, 291654, Note_off_c, 4, 65, 64
1, 291654, Note_on_c, 1, 80, 109
1, 291655, Note_on_c, 4, 63, 127
1, 291696, Note_off_c, 1, 80, 64
1, 291696, Note_on_c, 1, 79, 109
1, 291737, Note_off_c, 1, 79, 64
1, 291737, Note_on_c, 2, 77, 110
1, 291738, Note_on_c, 4, 67, 121
1, 291746, Note_off_c, 4, 63, 64
1, 291779, Note_off_c, 2, 77, 64
1, 291780, Note_on_c, 2, 75, 110
1, 291821, Note_off_c, 2, 75, 64
1, 291822, Note_on_c, 1, 80, 109
1, 291822, Note_on_c, 2, 74, 110
1, 291823, Note_on_c, 4, 65, 127
1, 291831, Note_off_c, 4, 67, 64
1, 291900, Note_off_c, 2, 74, 64
1, 291900, Note_off_c, 1, 80, 64
1, 291908, Note_on_c, 1, 79, 109
1, 291908, Note_on_c, 2, 75, 110
1, 291909, Note_on_c, 4, 63, 127
1, 291916, Note_off_c, 4, 65, 64
1, 291986, Note_off_c, 2, 75, 64
1, 291987, Note_off_c, 1, 79, 64
1, 291994, Note_on_c, 1, 79, 109
1, 291995, Note_on_c, 4, 58, 127
1, 291995, Note_on_c, 2, 75, 110
1, 292003, Note_off_c, 4, 63, 64
1, 292070, Note_off_c, 2, 75, 64
1, 292070, Note_off_c, 1, 79, 64
1, 292078, Note_on_c, 2, 77, 110
1, 292078, Note_on_c, 2, 74, 110
1, 292079, Note_on_c, 2, 70, 119
1, 292157, Note_off_c, 4, 58, 64
1, 292161, Note_on_c, 4, 58, 127
1, 292217, Note_off_c, 2, 74, 64
1, 292217, Note_off_c, 2, 70, 64
1, 292218, Note_off_c, 2, 77, 64
1, 292245, Note_on_c, 2, 70, 121
1, 292315, Note_off_c, 2, 70, 64
1, 292324, Note_off_c, 4, 58, 64
1, 292328, Note_on_c, 4, 51, 127
1, 292330, Note_on_c, 2, 69, 121
1, 292370, Note_on_c, 4, 58, 127
1, 292371, Note_on_c, 2, 70, 121
1, 292379, Note_off_c, 2, 69, 64
1, 292413, Note_on_c, 4, 55, 127
1, 292414, Note_on_c, 2, 69, 121
1, 292420, Note_off_c, 2, 70, 64
1, 292421, Note_off_c, 4, 51, 64
1, 292426, Note_off_c, 4, 58, 64
1, 292454, Note_on_c, 4, 58, 127
1, 292455, Note_on_c, 2, 70, 121
1, 292462, Note_off_c, 2, 69, 64
1, 292493, Note_on_c, 4, 51, 127
1, 292495, Note_on_c, 2, 69, 121
1, 292502, Note_off_c, 2, 70, 64
1, 292502, Note_off_c, 4, 55, 64
1, 292507, Note_off_c, 4, 58, 64
1, 292533, Note_on_c, 4, 58, 127
1, 292534, Note_on_c, 2, 70, 121
1, 292540, Note_off_c, 2, 69, 64
1, 292563, Note_on_c, 2, 69, 121
1, 292573, Note_on_c, 4, 55, 127
1, 292582, Note_off_c, 2, 70, 64
1, 292583, Note_off_c, 4, 51, 64
1, 292587, Note_off_c, 4, 58, 64
1, 292616, Note_on_c, 4, 58, 127
1, 292618, Note_on_c, 2, 70, 121
1, 292628, Note_off_c, 2, 69, 64
1, 292648, Note_off_c, 2, 70, 64
1, 292657, Note_on_c, 1, 80, 114
1, 292658, Note_on_c, 4, 50, 127
1, 292666, Note_off_c, 4, 55, 64
1, 292671, Note_off_c, 4, 58, 64
1, 292699, Note_on_c, 4, 58, 127
1, 292741, Note_on_c, 4, 53, 127
1, 292751, Note_off_c, 4, 50, 64
1, 292755, Note_off_c, 4, 58, 64
1, 292783, Note_on_c, 2, 77, 115
1, 292784, Note_off_c, 1, 80, 64
1, 292784, Note_on_c, 4, 58, 127
1, 292824, Note_on_c, 2, 74, 115
1, 292825, Note_on_c, 4, 50, 127
1, 292827, Note_off_c, 2, 77, 64
1, 292834, Note_off_c, 4, 53, 64
1, 292839, Note_off_c, 4, 58, 64
1, 292867, Note_on_c, 4, 58, 127
1, 292908, Note_off_c, 2, 74, 64
1, 292908, Note_on_c, 2, 70, 121
1, 292909, Note_on_c, 4, 53, 127
1, 292918, Note_off_c, 4, 50, 64
1, 292922, Note_off_c, 4, 58, 64
1, 292950, Note_on_c, 4, 58, 127
1, 292992, Note_on_c, 2, 69, 121
1, 292992, Note_on_c, 4, 51, 127
1, 293000, Note_off_c, 4, 53, 64
1, 293001, Note_off_c, 2, 70, 64
1, 293005, Note_off_c, 4, 58, 64
1, 293033, Note_on_c, 4, 58, 127
1, 293035, Note_on_c, 2, 70, 121
1, 293041, Note_off_c, 2, 69, 64
1, 293075, Note_on_c, 4, 55, 127
1, 293076, Note_on_c, 2, 69, 121
1, 293084, Note_off_c, 2, 70, 64
1, 293084, Note_off_c, 4, 51, 64
1, 293089, Note_off_c, 4, 58, 64
1, 293117, Note_on_c, 4, 58, 127
1, 293118, Note_on_c, 2, 70, 121
1, 293125, Note_off_c, 2, 69, 64
1, 293157, Note_on_c, 4, 51, 127
1, 293159, Note_on_c, 2, 69, 121
1, 293165, Note_off_c, 2, 70, 64
1, 293166, Note_off_c, 4, 55, 64
1, 293170, Note_off_c, 4, 58, 64
1, 293197, Note_on_c, 4, 58, 127
1, 293198, Note_on_c, 2, 70, 121
1, 293204, Note_off_c, 2, 69, 64
1, 293234, Note_on_c, 2, 69, 121
1, 293236, Note_on_c, 4, 55, 127
1, 293245, Note_off_c, 2, 70, 64
1, 293246, Note_off_c, 4, 51, 64
1, 293251, Note_off_c, 4, 58, 64
1, 293279, Note_on_c, 4, 58, 127
1, 293280, Note_on_c, 2, 70, 121
1, 293284, Note_off_c, 2, 69, 64
1, 293314, Note_off_c, 2, 70, 64
1, 293319, Note_on_c, 4, 50, 127
1, 293321, Note_on_c, 1, 80, 114
1, 293328, Note_off_c, 4, 55, 64
1, 293334, Note_off_c, 4, 58, 64
1, 293362, Note_on_c, 4, 58, 127
1, 293403, Note_on_c, 4, 53, 127
1, 293412, Note_off_c, 4, 50, 64
1, 293417, Note_off_c, 4, 58, 64
1, 293439, Note_off_c, 1, 80, 64
1, 293445, Note_on_c, 2, 77, 115
1, 293446, Note_on_c, 4, 58, 127
1, 293487, Note_on_c, 2, 74, 115
1, 293488, Note_off_c, 2, 77, 64
1, 293488, Note_on_c, 4, 50, 127
1, 293496, Note_off_c, 4, 53, 64
1, 293501, Note_off_c, 4, 58, 64
1, 293529, Note_on_c, 4, 58, 127
1, 293550, Note_off_c, 2, 74, 64
1, 293572, Note_on_c, 2, 70, 119
1, 293572, Note_on_c, 4, 53, 127
1, 293585, Note_off_c, 4, 50, 64
1, 293592, Note_off_c, 4, 58, 64
1, 293602, Note_on_c, 2, 68, 119
1, 293611, Note_off_c, 2, 70, 64
1, 293631, Note_on_c, 2, 70, 119
1, 293632, Note_on_c, 4, 58, 127
1, 293641, Note_off_c, 2, 68, 64
1, 293651, Note_off_c, 4, 53, 64
1, 293660, Note_on_c, 2, 68, 119
1, 293662, Note_off_c, 2, 70, 64
1, 293683, Note_off_c, 2, 68, 64
1, 293686, Note_on_c, 4, 67, 121
1, 293687, Note_on_c, 4, 51, 127
1, 293701, Note_off_c, 4, 58, 64
1, 293733, Note_on_c, 2, 70, 119
1, 293741, Note_off_c, 4, 67, 64
1, 293778, Note_on_c, 2, 75, 115
1, 293786, Note_off_c, 2, 70, 64
1, 293823, Note_on_c, 1, 79, 114
1, 293830, Note_off_c, 2, 75, 64
1, 293867, Note_off_c, 4, 51, 64
1, 293867, Note_on_c, 1, 82, 114
1, 293868, Note_on_c, 4, 55, 127
1, 293874, Note_off_c, 1, 79, 64
1, 293912, Note_on_c, 1, 79, 114
1, 293918, Note_off_c, 1, 82, 64
1, 293952, Note_on_c, 2, 75, 115
1, 293959, Note_off_c, 1, 79, 64
1, 293994, Note_on_c, 2, 70, 119
1, 294002, Note_off_c, 2, 75, 64
1, 294038, Note_off_c, 4, 55, 64
1, 294039, Note_on_c, 4, 56, 127
1, 294039, Note_on_c, 2, 72, 115
1, 294045, Note_off_c, 2, 70, 64
1, 294080, Note_on_c, 1, 84, 111
1, 294087, Note_off_c, 2, 72, 64
1, 294125, Note_on_c, 1, 83, 109
1, 294132, Note_off_c, 1, 84, 64
1, 294168, Note_on_c, 1, 84, 111
1, 294175, Note_off_c, 1, 83, 64
1, 294211, Note_on_c, 1, 79, 109
1, 294218, Note_off_c, 1, 84, 64
1, 294254, Note_on_c, 1, 80, 109
1, 294261, Note_off_c, 1, 79, 64
1, 294293, Note_off_c, 4, 56, 64
1, 294300, Note_on_c, 2, 76, 110
1, 294300, Note_on_c, 2, 68, 119
1, 294300, Note_on_c, 4, 56, 127
1, 294307, Note_off_c, 1, 80, 64
1, 294348, Note_on_c, 2, 77, 110
1, 294356, Note_off_c, 2, 76, 64
1, 294390, Note_off_c, 4, 56, 64
1, 294390, Note_off_c, 2, 68, 64
1, 294396, Note_on_c, 2, 75, 110
1, 294397, Note_on_c, 4, 67, 121
1, 294397, Note_on_c, 4, 58, 127
1, 294404, Note_off_c, 2, 77, 64
1, 294489, Note_off_c, 2, 75, 64
1, 294489, Note_off_c, 4, 67, 64
1, 294490, Note_on_c, 2, 74, 115
1, 294490, Note_on_c, 4, 65, 127
1, 294547, Note_off_c, 4, 58, 64
1, 294575, Note_on_c, 4, 58, 127
1, 294621, Note_on_c, 4, 60, 127
1, 294628, Note_off_c, 4, 58, 64
1, 294662, Note_on_c, 4, 56, 127
1, 294670, Note_off_c, 4, 60, 64
1, 294708, Note_on_c, 4, 58, 127
1, 294715, Note_off_c, 4, 56, 64
1, 294752, Note_on_c, 4, 55, 127
1, 294758, Note_off_c, 4, 58, 64
1, 294836, Note_on_c, 1, 82, 109
1, 294925, Note_off_c, 1, 82, 64
1, 294926, Note_on_c, 1, 80, 109
1, 294999, Note_off_c, 4, 65, 64
1, 295000, Note_off_c, 2, 74, 64
1, 295014, Note_off_c, 1, 80, 64
1, 295014, Note_on_c, 1, 79, 109
1, 295015, Note_on_c, 2, 70, 119
1, 295015, Note_on_c, 4, 67, 121
1, 295102, Note_off_c, 4, 67, 64
1, 295103, Note_off_c, 2, 70, 64
1, 295103, Note_on_c, 2, 72, 115
1, 295104, Note_on_c, 2, 68, 119
1, 295192, Note_off_c, 1, 79, 64
1, 295193, Note_on_c, 2, 76, 110
1, 295250, Note_off_c, 2, 76, 64
1, 295278, Note_on_c, 2, 76, 110
1, 295357, Note_off_c, 2, 72, 64
1, 295357, Note_off_c, 2, 68, 64
1, 295364, Note_off_c, 2, 76, 64
1, 295365, Note_on_c, 2, 77, 110
1, 295365, Note_on_c, 2, 72, 115
1, 295366, Note_on_c, 2, 68, 119
1, 295452, Note_off_c, 2, 72, 64
1, 295452, Note_off_c, 2, 68, 64
1, 295452, Note_on_c, 2, 74, 115
1, 295453, Note_on_c, 2, 70, 119
1, 295542, Note_off_c, 2, 77, 64
1, 295542, Note_on_c, 1, 84, 111
1, 295632, Note_off_c, 1, 84, 64
1, 295632, Note_on_c, 1, 82, 109
1, 295714, Note_off_c, 2, 70, 64
1, 295715, Note_off_c, 2, 74, 64
1, 295721, Note_off_c, 1, 82, 64
1, 295721, Note_on_c, 1, 80, 112
1, 295721, Note_on_c, 2, 74, 118
1, 295722, Note_on_c, 2, 70, 119
1, 295812, Note_off_c, 2, 70, 64
1, 295812, Note_off_c, 2, 74, 64
1, 295813, Note_on_c, 2, 75, 118
1, 295813, Note_on_c, 2, 72, 118
1, 295897, Note_off_c, 1, 80, 64
1, 295898, Note_on_c, 1, 78, 117
1, 295978, Note_off_c, 1, 78, 64
1, 295985, Note_on_c, 1, 78, 117
1, 296066, Note_off_c, 2, 72, 64
1, 296067, Note_off_c, 2, 75, 64
1, 296074, Note_on_c, 1, 79, 117
1, 296075, Note_on_c, 2, 75, 118
1, 296075, Note_on_c, 2, 72, 118
1, 296083, Note_off_c, 1, 78, 64
1, 296148, Note_off_c, 4, 55, 64
1, 296162, Note_off_c, 2, 72, 64
1, 296163, Note_off_c, 2, 75, 64
1, 296163, Note_on_c, 4, 63, 127
1, 296164, Note_on_c, 4, 43, 127
1, 296174, Note_off_c, 1, 79, 64
1, 296175, Note_on_c, 4, 67, 125
1, 296186, Note_on_c, 2, 70, 123
1, 296196, Note_on_c, 2, 75, 121
1, 296208, Note_on_c, 4, 51, 127
1, 296250, Note_on_c, 4, 46, 127
1, 296259, Note_off_c, 4, 43, 64
1, 296264, Note_off_c, 4, 51, 64
1, 296294, Note_on_c, 4, 51, 127
1, 296337, Note_on_c, 4, 43, 127
1, 296346, Note_off_c, 4, 46, 64
1, 296352, Note_off_c, 4, 51, 64
1, 296380, Note_on_c, 4, 51, 127
1, 296424, Note_on_c, 4, 46, 127
1, 296433, Note_off_c, 4, 43, 64
1, 296438, Note_off_c, 4, 51, 64
1, 296444, Note_off_c, 4, 63, 64
1, 296453, Note_off_c, 4, 67, 64
1, 296464, Note_off_c, 2, 70, 64
1, 296468, Note_on_c, 4, 51, 127
1, 296474, Note_off_c, 2, 75, 64
1, 296512, Note_on_c, 4, 60, 127
1, 296512, Note_on_c, 4, 44, 127
1, 296522, Note_off_c, 4, 46, 64
1, 296523, Note_on_c, 4, 65, 127
1, 296527, Note_off_c, 4, 51, 64
1, 296533, Note_on_c, 2, 68, 123
1, 296543, Note_on_c, 2, 72, 121
1, 296555, Note_on_c, 4, 53, 127
1, 296597, Note_on_c, 4, 48, 127
1, 296606, Note_off_c, 4, 44, 64
1, 296612, Note_off_c, 4, 53, 64
1, 296640, Note_on_c, 4, 53, 127
1, 296681, Note_on_c, 4, 44, 127
1, 296690, Note_off_c, 4, 48, 64
1, 296695, Note_off_c, 4, 53, 64
1, 296724, Note_on_c, 4, 53, 127
1, 296766, Note_on_c, 4, 48, 127
1, 296776, Note_off_c, 4, 44, 64
1, 296781, Note_off_c, 4, 53, 64
1, 296809, Note_on_c, 4, 53, 127
1, 296813, Note_off_c, 4, 60, 64
1, 296824, Note_off_c, 4, 65, 64
1, 296833, Note_off_c, 2, 68, 64
1, 296844, Note_off_c, 2, 72, 64
1, 296853, Note_on_c, 2, 72, 121
1, 296853, Note_on_c, 4, 46, 127
1, 296862, Note_off_c, 4, 48, 64
1, 296868, Note_off_c, 4, 53, 64
1, 296896, Note_off_c, 2, 72, 64
1, 296896, Note_on_c, 2, 70, 123
1, 296897, Note_on_c, 4, 55, 127
1, 296938, Note_off_c, 2, 70, 64
1, 296938, Note_on_c, 2, 68, 123
1, 296939, Note_on_c, 4, 51, 127
1, 296947, Note_off_c, 4, 46, 64
1, 296952, Note_off_c, 4, 55, 64
1, 296979, Note_off_c, 2, 68, 64
1, 296980, Note_on_c, 4, 67, 125
1, 296980, Note_on_c, 4, 55, 127
1, 297008, Note_off_c, 4, 67, 64
1, 297022, Note_on_c, 4, 67, 125
1, 297022, Note_on_c, 4, 46, 127
1, 297031, Note_off_c, 4, 51, 64
1, 297036, Note_off_c, 4, 55, 64
1, 297064, Note_off_c, 4, 67, 64
1, 297064, Note_on_c, 4, 65, 127
1, 297065, Note_on_c, 4, 56, 127
1, 297107, Note_off_c, 4, 65, 64
1, 297108, Note_on_c, 4, 63, 127
1, 297108, Note_on_c, 4, 53, 127
1, 297115, Note_off_c, 4, 46, 64
1, 297124, Note_off_c, 4, 56, 64
1, 297150, Note_off_c, 4, 63, 64
1, 297151, Note_on_c, 4, 62, 127
1, 297151, Note_on_c, 4, 56, 127
1, 297165, Note_off_c, 4, 53, 64
1, 297192, Note_off_c, 4, 56, 64
1, 297192, Note_off_c, 4, 62, 64
1, 297192, Note_on_c, 4, 65, 127
1, 297193, Note_on_c, 4, 55, 127
1, 297194, Note_on_c, 4, 51, 127
1, 297237, Note_on_c, 4, 63, 127
1, 297243, Note_off_c, 4, 65, 64
1, 297278, Note_on_c, 4, 67, 125
1, 297286, Note_off_c, 4, 63, 64
1, 297321, Note_on_c, 4, 65, 127
1, 297329, Note_off_c, 4, 67, 64
1, 297363, Note_on_c, 2, 68, 123
1, 297370, Note_off_c, 4, 65, 64
1, 297406, Note_on_c, 4, 67, 125
1, 297413, Note_off_c, 2, 68, 64
1, 297448, Note_on_c, 2, 70, 123
1, 297455, Note_off_c, 4, 67, 64
1, 297493, Note_on_c, 2, 68, 123
1, 297500, Note_off_c, 2, 70, 64
1, 297536, Note_on_c, 2, 72, 121
1, 297543, Note_off_c, 2, 68, 64
1, 297623, Note_off_c, 2, 72, 64
1, 297624, Note_on_c, 2, 70, 123
1, 297700, Note_off_c, 4, 51, 64
1, 297701, Note_off_c, 4, 55, 64
1, 297708, Note_on_c, 4, 58, 127
1, 297708, Note_on_c, 4, 55, 127
1, 297787, Note_off_c, 2, 70, 64
1, 297794, Note_on_c, 4, 67, 125
1, 297884, Note_off_c, 4, 67, 64
1, 297885, Note_on_c, 4, 64, 127
1, 297972, Note_on_c, 4, 67, 125
1, 297977, Note_off_c, 4, 64, 64
1, 298060, Note_off_c, 4, 55, 64
1, 298060, Note_off_c, 4, 58, 64
1, 298061, Note_on_c, 4, 60, 127
1, 298061, Note_on_c, 4, 56, 127
1, 298138, Note_off_c, 4, 67, 64
1, 298145, Note_on_c, 4, 65, 127
1, 298234, Note_on_c, 2, 71, 121
1, 298237, Note_off_c, 4, 65, 64
1, 298321, Note_on_c, 2, 72, 121
1, 298323, Note_off_c, 2, 71, 64
1, 298406, Note_off_c, 4, 56, 64
1, 298407, Note_off_c, 4, 60, 64
1, 298407, Note_on_c, 4, 62, 127
1, 298407, Note_on_c, 4, 58, 127
1, 298493, Note_on_c, 2, 68, 123
1, 298496, Note_off_c, 2, 72, 64
1, 298584, Note_off_c, 2, 68, 64
1, 298584, Note_on_c, 4, 66, 125
1, 298668, Note_off_c, 4, 66, 64
1, 298669, Note_on_c, 2, 68, 123
1, 298755, Note_off_c, 4, 58, 64
1, 298755, Note_off_c, 4, 62, 64
1, 298756, Note_on_c, 4, 63, 127
1, 298756, Note_on_c, 4, 60, 127
1, 298829, Note_off_c, 2, 68, 64
1, 298840, Note_on_c, 4, 67, 125
1, 298910, Note_off_c, 4, 67, 64
1, 298920, Note_off_c, 4, 60, 64
1, 298920, Note_off_c, 4, 63, 64
1, 298927, Note_on_c, 4, 63, 127
1, 298927, Note_on_c, 4, 43, 127
1, 298939, Note_on_c, 4, 67, 125
1, 298949, Note_on_c, 2, 70, 123
1, 298959, Note_on_c, 2, 75, 123
1, 298972, Note_on_c, 4, 51, 127
1, 299013, Note_on_c, 4, 46, 127
1, 299023, Note_off_c, 4, 43, 64
1, 299028, Note_off_c, 4, 51, 64
1, 299055, Note_on_c, 4, 51, 127
1, 299097, Note_on_c, 4, 43, 127
1, 299106, Note_off_c, 4, 46, 64
1, 299111, Note_off_c, 4, 51, 64
1, 299139, Note_on_c, 4, 51, 127
1, 299152, Note_off_c, 4, 63, 64
1, 299162, Note_off_c, 4, 67, 64
1, 299171, Note_off_c, 2, 70, 64
1, 299179, Note_on_c, 4, 46, 127
1, 299180, Note_off_c, 2, 75, 64
1, 299188, Note_off_c, 4, 43, 64
1, 299193, Note_off_c, 4, 51, 64
1, 299220, Note_on_c, 4, 51, 127
1, 299261, Note_on_c, 4, 60, 127
1, 299261, Note_on_c, 4, 44, 127
1, 299272, Note_off_c, 4, 46, 64
1, 299273, Note_on_c, 4, 65, 127
1, 299277, Note_off_c, 4, 51, 64
1, 299282, Note_on_c, 2, 68, 123
1, 299292, Note_on_c, 2, 72, 123
1, 299305, Note_on_c, 4, 53, 127
1, 299346, Note_on_c, 4, 48, 127
1, 299356, Note_off_c, 4, 44, 64
1, 299361, Note_off_c, 4, 53, 64
1, 299388, Note_on_c, 4, 53, 127
1, 299431, Note_on_c, 4, 44, 127
1, 299439, Note_off_c, 4, 48, 64
1, 299444, Note_off_c, 4, 53, 64
1, 299472, Note_on_c, 4, 53, 127
1, 299486, Note_off_c, 4, 60, 64
1, 299496, Note_off_c, 4, 65, 64
1, 299506, Note_off_c, 2, 68, 64
1, 299513, Note_on_c, 4, 48, 127
1, 299514, Note_off_c, 2, 72, 64
1, 299522, Note_off_c, 4, 44, 64
1, 299527, Note_off_c, 4, 53, 64
1, 299554, Note_on_c, 4, 53, 127
1, 299595, Note_on_c, 2, 72, 118
1, 299595, Note_on_c, 4, 46, 127
1, 299604, Note_off_c, 4, 48, 64
1, 299609, Note_off_c, 4, 53, 64
1, 299636, Note_off_c, 2, 72, 64
1, 299637, Note_on_c, 2, 70, 119
1, 299637, Note_on_c, 4, 55, 127
1, 299676, Note_off_c, 2, 70, 64
1, 299677, Note_on_c, 4, 51, 127
1, 299677, Note_on_c, 2, 68, 119
1, 299685, Note_off_c, 4, 46, 64
1, 299690, Note_off_c, 4, 55, 64
1, 299717, Note_off_c, 2, 68, 64
1, 299717, Note_on_c, 4, 67, 121
1, 299718, Note_on_c, 4, 55, 127
1, 299745, Note_off_c, 4, 67, 64
1, 299758, Note_on_c, 4, 67, 121
1, 299759, Note_on_c, 4, 46, 127
1, 299767, Note_off_c, 4, 51, 64
1, 299772, Note_off_c, 4, 55, 64
1, 299799, Note_off_c, 4, 67, 64
1, 299800, Note_on_c, 4, 65, 127
1, 299800, Note_on_c, 4, 56, 127
1, 299842, Note_off_c, 4, 65, 64
1, 299842, Note_on_c, 4, 63, 127
1, 299843, Note_on_c, 4, 53, 127
1, 299851, Note_off_c, 4, 46, 64
1, 299856, Note_off_c, 4, 56, 64
1, 299884, Note_off_c, 4, 63, 64
1, 299884, Note_on_c, 4, 62, 127
1, 299885, Note_on_c, 4, 56, 127
1, 299898, Note_off_c, 4, 53, 64
1, 299927, Note_off_c, 4, 62, 64
1, 299928, Note_on_c, 4, 55, 127
1, 299928, Note_on_c, 4, 48, 127
1, 299928, Note_on_c, 4, 63, 127
1, 299933, Note_off_c, 4, 56, 64
1, 299971, Note_on_c, 2, 75, 108
1, 299977, Note_off_c, 4, 63, 64
1, 300014, Note_on_c, 2, 77, 108
1, 300022, Note_off_c, 2, 75, 64
1, 300059, Note_on_c, 1, 79, 107
1, 300065, Note_off_c, 2, 77, 64
1, 300102, Note_on_c, 1, 80, 107
1, 300108, Note_off_c, 1, 79, 64
1, 300143, Note_on_c, 1, 82, 107
1, 300151, Note_off_c, 1, 80, 64
1, 300185, Note_on_c, 1, 84, 109
1, 300193, Note_off_c, 1, 82, 64
1, 300228, Note_on_c, 1, 86, 109
1, 300235, Note_off_c, 1, 84, 64
1, 300264, Note_off_c, 4, 55, 64
1, 300268, Note_off_c, 4, 48, 64
1, 300270, Note_on_c, 1, 87, 109
1, 300270, Note_on_c, 4, 55, 127
1, 300277, Note_off_c, 1, 86, 64
1, 300314, Note_on_c, 1, 82, 107
1, 300314, Note_on_c, 4, 63, 127
1, 300321, Note_off_c, 1, 87, 64
1, 300356, Note_on_c, 1, 79, 107
1, 300356, Note_on_c, 4, 58, 127
1, 300363, Note_off_c, 1, 82, 64
1, 300365, Note_off_c, 4, 55, 64
1, 300370, Note_off_c, 4, 63, 64
1, 300401, Note_on_c, 2, 75, 102
1, 300401, Note_on_c, 4, 63, 127
1, 300408, Note_off_c, 1, 79, 64
1, 300448, Note_on_c, 2, 77, 102
1, 300448, Note_on_c, 4, 55, 127
1, 300456, Note_off_c, 2, 75, 64
1, 300458, Note_off_c, 4, 58, 64
1, 300464, Note_off_c, 4, 63, 64
1, 300472, Note_on_c, 2, 75, 102
1, 300480, Note_off_c, 2, 77, 64
1, 300497, Note_on_c, 2, 77, 102
1, 300497, Note_on_c, 4, 63, 127
1, 300505, Note_off_c, 2, 75, 64
1, 300523, Note_on_c, 2, 75, 102
1, 300530, Note_off_c, 2, 77, 64
1, 300548, Note_on_c, 2, 77, 102
1, 300548, Note_on_c, 4, 58, 127
1, 300556, Note_off_c, 2, 75, 64
1, 300558, Note_off_c, 4, 55, 64
1, 300565, Note_off_c, 4, 63, 64
1, 300573, Note_on_c, 2, 75, 102
1, 300581, Note_off_c, 2, 77, 64
1, 300591, Note_off_c, 2, 75, 64
1, 300598, Note_on_c, 2, 74, 102
1, 300598, Note_on_c, 4, 63, 127
1, 300617, Note_off_c, 2, 74, 64
1, 300622, Note_on_c, 2, 75, 102
1, 300644, Note_off_c, 2, 75, 64
1, 300646, Note_on_c, 4, 56, 127
1, 300646, Note_on_c, 2, 72, 113
1, 300655, Note_off_c, 4, 58, 64
1, 300660, Note_off_c, 4, 63, 64
1, 300688, Note_on_c, 2, 77, 102
1, 300688, Note_on_c, 4, 65, 127
1, 300697, Note_off_c, 2, 72, 64
1, 300729, Note_on_c, 1, 80, 107
1, 300730, Note_on_c, 4, 60, 127
1, 300734, Note_off_c, 2, 77, 64
1, 300738, Note_off_c, 4, 56, 64
1, 300744, Note_off_c, 4, 65, 64
1, 300770, Note_on_c, 1, 84, 109
1, 300771, Note_on_c, 4, 65, 127
1, 300774, Note_off_c, 1, 80, 64
1, 300813, Note_on_c, 1, 86, 109
1, 300813, Note_on_c, 4, 56, 127
1, 300817, Note_off_c, 1, 84, 64
1, 300823, Note_off_c, 4, 60, 64
1, 300829, Note_off_c, 4, 65, 64
1, 300837, Note_on_c, 1, 84, 109
1, 300844, Note_off_c, 1, 86, 64
1, 300862, Note_on_c, 1, 86, 109
1, 300862, Note_on_c, 4, 65, 127
1, 300868, Note_off_c, 1, 84, 64
1, 300885, Note_on_c, 1, 84, 109
1, 300891, Note_off_c, 1, 86, 64
1, 300908, Note_on_c, 4, 60, 127
1, 300908, Note_on_c, 1, 86, 109
1, 300915, Note_off_c, 1, 84, 64
1, 300917, Note_off_c, 4, 56, 64
1, 300923, Note_off_c, 4, 65, 64
1, 300931, Note_on_c, 1, 84, 109
1, 300938, Note_off_c, 1, 86, 64
1, 300953, Note_on_c, 1, 82, 107
1, 300953, Note_on_c, 4, 65, 127
1, 300960, Note_off_c, 1, 84, 64
1, 300976, Note_off_c, 1, 82, 64
1, 300976, Note_on_c, 1, 84, 109
1, 300990, Note_off_c, 1, 84, 64
1, 300997, Note_on_c, 1, 84, 109
1, 300997, Note_on_c, 4, 58, 127
1, 301006, Note_off_c, 4, 60, 64
1, 301012, Note_off_c, 4, 65, 64
1, 301042, Note_off_c, 1, 84, 64
1, 301043, Note_on_c, 1, 82, 107
1, 301043, Note_on_c, 4, 67, 121
1, 301086, Note_on_c, 1, 80, 107
1, 301087, Note_on_c, 4, 63, 127
1, 301093, Note_off_c, 1, 82, 64
1, 301095, Note_off_c, 4, 58, 64
1, 301100, Note_off_c, 4, 67, 64
1, 301128, Note_on_c, 1, 79, 107
1, 301129, Note_on_c, 4, 67, 121
1, 301136, Note_off_c, 1, 80, 64
1, 301158, Note_off_c, 1, 79, 64
1, 301171, Note_on_c, 1, 79, 107
1, 301171, Note_on_c, 4, 58, 127
1, 301180, Note_off_c, 4, 63, 64
1, 301185, Note_off_c, 4, 67, 64
1, 301214, Note_on_c, 2, 77, 102
1, 301214, Note_on_c, 2, 68, 119
1, 301221, Note_off_c, 1, 79, 64
1, 301255, Note_on_c, 2, 75, 102
1, 301256, Note_on_c, 4, 65, 127
1, 301262, Note_off_c, 2, 77, 64
1, 301264, Note_off_c, 4, 58, 64
1, 301269, Note_off_c, 2, 68, 64
1, 301297, Note_on_c, 2, 74, 102
1, 301298, Note_on_c, 2, 68, 119
1, 301304, Note_off_c, 2, 75, 64
1, 301311, Note_off_c, 4, 65, 64
1, 301341, Note_on_c, 4, 67, 121
1, 301341, Note_on_c, 2, 75, 104
1, 301342, Note_on_c, 4, 63, 127
1, 301347, Note_off_c, 2, 68, 64
1, 301348, Note_off_c, 2, 74, 64
1, 301384, Note_on_c, 2, 77, 104
1, 301392, Note_off_c, 2, 75, 64
1, 301428, Note_on_c, 1, 79, 109
1, 301436, Note_off_c, 2, 77, 64
1, 301472, Note_on_c, 1, 80, 109
1, 301480, Note_off_c, 1, 79, 64
1, 301515, Note_on_c, 1, 82, 109
1, 301523, Note_off_c, 1, 80, 64
1, 301559, Note_on_c, 1, 84, 111
1, 301566, Note_off_c, 1, 82, 64
1, 301600, Note_on_c, 1, 86, 111
1, 301607, Note_off_c, 1, 84, 64
1, 301640, Note_on_c, 1, 87, 111
1, 301646, Note_off_c, 1, 86, 64
1, 301679, Note_on_c, 1, 83, 109
1, 301686, Note_off_c, 1, 87, 64
1, 301721, Note_on_c, 1, 84, 111
1, 301728, Note_off_c, 1, 83, 64
1, 301762, Note_off_c, 4, 63, 64
1, 301763, Note_off_c, 4, 67, 64
1, 301763, Note_on_c, 1, 80, 109
1, 301764, Note_on_c, 2, 68, 119
1, 301769, Note_off_c, 1, 84, 64
1, 301806, Note_on_c, 2, 77, 104
1, 301814, Note_off_c, 1, 80, 64
1, 301848, Note_on_c, 1, 79, 109
1, 301849, Note_on_c, 4, 65, 127
1, 301857, Note_off_c, 2, 77, 64
1, 301858, Note_off_c, 2, 68, 64
1, 301893, Note_on_c, 1, 80, 109
1, 301899, Note_off_c, 1, 79, 64
1, 301936, Note_on_c, 2, 77, 104
1, 301936, Note_on_c, 2, 70, 119
1, 301944, Note_off_c, 1, 80, 64
1, 301945, Note_off_c, 4, 65, 64
1, 301979, Note_on_c, 2, 74, 102
1, 301987, Note_off_c, 2, 77, 64
1, 302022, Note_on_c, 2, 75, 104
1, 302023, Note_on_c, 4, 67, 121
1, 302029, Note_off_c, 2, 74, 64
1, 302031, Note_off_c, 2, 70, 64
1, 302064, Note_on_c, 2, 77, 104
1, 302071, Note_off_c, 2, 75, 64
1, 302107, Note_on_c, 1, 79, 109
1, 302113, Note_off_c, 2, 77, 64
1, 302147, Note_on_c, 1, 80, 109
1, 302154, Note_off_c, 1, 79, 64
1, 302187, Note_on_c, 1, 82, 109
1, 302194, Note_off_c, 1, 80, 64
1, 302232, Note_on_c, 1, 79, 109
1, 302239, Note_off_c, 1, 82, 64
1, 302273, Note_on_c, 2, 75, 107
1, 302280, Note_off_c, 1, 79, 64
1, 302314, Note_on_c, 2, 70, 119
1, 302321, Note_off_c, 2, 75, 64
1, 302357, Note_on_c, 2, 71, 109
1, 302364, Note_off_c, 2, 70, 64
1, 302400, Note_on_c, 2, 72, 110
1, 302406, Note_off_c, 4, 67, 64
1, 302407, Note_off_c, 2, 71, 64
1, 302441, Note_on_c, 2, 68, 119
1, 302441, Note_on_c, 4, 56, 127
1, 302448, Note_off_c, 2, 72, 64
1, 302481, Note_on_c, 4, 65, 127
1, 302489, Note_off_c, 2, 68, 64
1, 302524, Note_on_c, 4, 67, 121
1, 302525, Note_on_c, 4, 53, 127
1, 302532, Note_off_c, 4, 65, 64
1, 302534, Note_off_c, 4, 56, 64
1, 302567, Note_on_c, 2, 68, 119
1, 302573, Note_off_c, 4, 67, 64
1, 302610, Note_on_c, 4, 65, 127
1, 302611, Note_on_c, 4, 58, 127
1, 302616, Note_off_c, 2, 68, 64
1, 302618, Note_off_c, 4, 53, 64
1, 302650, Note_on_c, 4, 62, 127
1, 302657, Note_off_c, 4, 65, 64
1, 302694, Note_off_c, 4, 62, 64
1, 302694, Note_off_c, 4, 58, 64
1, 302694, Note_on_c, 4, 63, 127
1, 302695, Note_on_c, 4, 51, 127
1, 302695, Note_on_c, 4, 58, 127
1, 302702, Note_off_c, 4, 58, 64
1, 302735, Note_on_c, 2, 70, 119
1, 302743, Note_off_c, 4, 63, 64
1, 302777, Note_on_c, 2, 69, 119
1, 302784, Note_off_c, 2, 70, 64
1, 302820, Note_on_c, 2, 70, 119
1, 302827, Note_off_c, 2, 69, 64
1, 302863, Note_on_c, 2, 72, 115
1, 302869, Note_off_c, 2, 70, 64
1, 302906, Note_on_c, 2, 70, 119
1, 302913, Note_off_c, 2, 72, 64
1, 302947, Note_off_c, 4, 51, 64
1, 302948, Note_on_c, 2, 74, 110
1, 302948, Note_on_c, 2, 68, 119
1, 302948, Note_on_c, 4, 65, 127
1, 302949, Note_on_c, 4, 58, 127
1, 302955, Note_off_c, 2, 70, 64
1, 302992, Note_on_c, 2, 70, 119
1, 303030, Note_off_c, 4, 65, 64
1, 303030, Note_off_c, 2, 68, 64
1, 303031, Note_off_c, 2, 74, 64
1, 303036, Note_off_c, 2, 70, 64
1, 303036, Note_off_c, 4, 58, 64
1, 303036, Note_on_c, 2, 75, 118
1, 303037, Note_on_c, 4, 67, 121
1, 303037, Note_on_c, 2, 70, 119
1, 303038, Note_on_c, 4, 63, 127
1, 303072, Note_off_c, 2, 70, 64
1, 303078, Note_on_c, 2, 70, 119
1, 303120, Note_on_c, 2, 69, 119
1, 303124, Note_off_c, 2, 70, 64
1, 303165, Note_on_c, 2, 70, 119
1, 303169, Note_off_c, 2, 69, 64
1, 303208, Note_off_c, 2, 75, 64
1, 303209, Note_on_c, 2, 72, 118
1, 303213, Note_off_c, 2, 70, 64
1, 303256, Note_on_c, 2, 70, 119
1, 303261, Note_off_c, 2, 72, 64
1, 303301, Note_off_c, 4, 67, 64
1, 303301, Note_off_c, 4, 63, 64
1, 303305, Note_on_c, 2, 74, 118
1, 303306, Note_on_c, 4, 65, 127
1, 303306, Note_on_c, 2, 68, 119
1, 303307, Note_on_c, 4, 58, 127
1, 303311, Note_off_c, 2, 70, 64
1, 303350, Note_off_c, 2, 68, 64
1, 303356, Note_on_c, 2, 70, 119
1, 303400, Note_off_c, 4, 65, 64
1, 303400, Note_off_c, 4, 58, 64
1, 303401, Note_off_c, 2, 74, 64
1, 303401, Note_off_c, 2, 70, 64
1, 303409, Note_on_c, 2, 75, 120
1, 303409, Note_on_c, 4, 67, 121
1, 303409, Note_on_c, 4, 63, 127
1, 306372, Note_off_c, 4, 67, 64
1, 306380, Note_off_c, 2, 75, 64
1, 306386, Note_off_c, 4, 63, 64
1, 306386, End_track
0, 0, End_of_file
