0, 0, Header, 0, 1, 240
1, 0, Start_track
1, 0, Time_signature, 1, 2, 24, 8
1, 0, Tempo, 500000
1, 0, Program_c, 0, 0
1, 0, Control_c, 0, 7, 127
1, 0, Control_c, 0, 10, 76
1, 0, Program_c, 1, 0
1, 0, Control_c, 1, 7, 127
1, 0, Control_c, 1, 10, 75
1, 0, Program_c, 2, 0
1, 0, Control_c, 2, 7, 127
1, 0, Control_c, 2, 10, 74
1, 0, Program_c, 3, 0
1, 0, Control_c, 3, 7, 127
1, 0, Control_c, 3, 10, 66
1, 0, Program_c, 4, 0
1, 0, Control_c, 4, 7, 127
1, 0, Control_c, 4, 10, 58
1, 108, Marker_t, "Mozart PS No.14 in cm, K.457 (457) Interpreted/Copyright 1998-99 S D Rodrian"
1, 120, Control_c, 0, 32, 0
1, 120, Control_c, 0, 10, 77
1, 120, Control_c, 0, 7, 127
1, 120, Control_c, 0, 91, 91
1, 120, Control_c, 0, 64, 0
1, 120, Control_c, 0, 93, 28
1, 120, Control_c, 0, 0, 0
1, 360, Control_c, 1, 32, 0
1, 360, Control_c, 1, 10, 76
1, 360, Control_c, 1, 7, 127
1, 360, Control_c, 1, 91, 91
1, 360, Control_c, 1, 64, 0
1, 360, Control_c, 1, 93, 28
1, 360, Control_c, 1, 0, 0
1, 636, Control_c, 2, 32, 0
1, 636, Control_c, 2, 10, 75
1, 636, Control_c, 2, 93, 28
1, 636, Control_c, 2, 64, 0
1, 636, Control_c, 2, 91, 91
1, 636, Control_c, 2, 7, 127
1, 636, Control_c, 2, 0, 0
1, 888, Control_c, 3, 32, 0
1, 888, Control_c, 3, 10, 67
1, 888, Control_c, 3, 93, 28
1, 888, Control_c, 3, 64, 0
1, 888, Control_c, 3, 91, 91
1, 888, Control_c, 3, 7, 127
1, 888, Control_c, 3, 0, 0
1, 1116, Control_c, 4, 32, 0
1, 1116, Control_c, 4, 10, 58
1, 1116, Control_c, 4, 93, 28
1, 1116, Control_c, 4, 91, 91
1, 1116, Control_c, 4, 64, 0
1, 1116, Control_c, 4, 7, 127
1, 1116, Control_c, 4, 0, 0
1, 1909, Note_on_c, 4, 60, 127
1, 1910, Note_on_c, 4, 36, 127
1, 1910, Note_on_c, 4, 48, 127
1, 2188, Note_off_c, 4, 48, 64
1, 2188, Note_off_c, 4, 36, 64
1, 2189, Note_off_c, 4, 60, 64
1, 2189, Note_on_c, 4, 63, 127
1, 2190, Note_on_c, 4, 51, 127
1, 2190, Note_on_c, 4, 39, 127
1, 2329, Note_off_c, 4, 39, 64
1, 2329, Note_off_c, 4, 51, 64
1, 2330, Note_off_c, 4, 63, 64
1, 2330, Note_on_c, 4, 67, 121
1, 2331, Note_on_c, 4, 43, 127
1, 2331, Note_on_c, 4, 55, 127
1, 2470, Note_off_c, 4, 43, 64
1, 2471, Note_off_c, 4, 67, 64
1, 2471, Note_off_c, 4, 55, 64
1, 2472, Note_on_c, 2, 72, 122
1, 2472, Note_on_c, 4, 60, 127
1, 2613, Note_off_c, 4, 60, 64
1, 2614, Note_off_c, 2, 72, 64
1, 2614, Note_on_c, 2, 75, 122
1, 2615, Note_on_c, 4, 63, 127
1, 2820, Note_off_c, 2, 75, 64
1, 2855, Note_on_c, 2, 75, 119
1, 2884, Note_off_c, 2, 75, 64
1, 2893, Note_on_c, 2, 75, 119
1, 2915, Note_on_c, 2, 77, 119
1, 2916, Note_off_c, 2, 75, 64
1, 2934, Note_on_c, 2, 75, 119
1, 2938, Note_off_c, 2, 77, 64
1, 2955, Note_on_c, 2, 77, 119
1, 2959, Note_off_c, 2, 75, 64
1, 2976, Note_on_c, 2, 74, 119
1, 2978, Note_off_c, 2, 77, 64
1, 3007, Note_off_c, 2, 74, 64
1, 3014, Note_on_c, 2, 75, 119
1, 3051, Note_on_c, 1, 79, 118
1, 3055, Note_off_c, 2, 75, 64
1, 3185, Note_off_c, 4, 63, 64
1, 3191, Note_off_c, 1, 79, 64
1, 3192, Note_on_c, 2, 72, 122
1, 3192, Note_on_c, 4, 67, 121
1, 3192, Note_on_c, 4, 63, 127
1, 3325, Note_off_c, 4, 63, 64
1, 3326, Note_off_c, 4, 67, 64
1, 3326, Note_off_c, 2, 72, 64
1, 3329, Note_on_c, 4, 67, 121
1, 3329, Note_on_c, 2, 72, 122
1, 3330, Note_on_c, 4, 63, 127
1, 3461, Note_off_c, 4, 67, 64
1, 3461, Note_off_c, 4, 63, 64
1, 3462, Note_off_c, 2, 72, 64
1, 3464, Note_on_c, 4, 67, 121
1, 3464, Note_on_c, 2, 72, 122
1, 3465, Note_on_c, 4, 63, 127
1, 3607, Note_on_c, 1, 80, 123
1, 3609, Note_off_c, 2, 72, 64
1, 3609, Note_off_c, 4, 67, 64
1, 3742, Note_off_c, 4, 63, 64
1, 3743, Note_off_c, 1, 80, 64
1, 3743, Note_on_c, 2, 71, 123
1, 3744, Note_on_c, 4, 62, 127
1, 3744, Note_on_c, 4, 65, 123
1, 3744, Note_on_c, 2, 68, 121
1, 3879, Note_off_c, 4, 62, 64
1, 3880, Note_off_c, 2, 68, 64
1, 3880, Note_off_c, 4, 65, 64
1, 3881, Note_off_c, 2, 71, 64
1, 3883, Note_on_c, 2, 71, 123
1, 3884, Note_on_c, 4, 65, 123
1, 3884, Note_on_c, 2, 68, 121
1, 3885, Note_on_c, 4, 62, 127
1, 4164, Note_off_c, 2, 68, 64
1, 4164, Note_off_c, 4, 65, 64
1, 4164, Note_off_c, 4, 62, 64
1, 4165, Note_off_c, 2, 71, 64
1, 4165, Note_on_c, 4, 55, 127
1, 4166, Note_on_c, 4, 31, 127
1, 4166, Note_on_c, 4, 43, 127
1, 4441, Note_off_c, 4, 43, 64
1, 4441, Note_off_c, 4, 31, 64
1, 4442, Note_off_c, 4, 55, 64
1, 4442, Note_on_c, 4, 59, 127
1, 4443, Note_on_c, 4, 35, 127
1, 4443, Note_on_c, 4, 47, 127
1, 4581, Note_off_c, 4, 47, 64
1, 4581, Note_off_c, 4, 35, 64
1, 4582, Note_off_c, 4, 59, 64
1, 4582, Note_on_c, 4, 62, 127
1, 4582, Note_on_c, 4, 50, 127
1, 4583, Note_on_c, 4, 38, 127
1, 4722, Note_off_c, 4, 38, 64
1, 4722, Note_off_c, 4, 50, 64
1, 4723, Note_off_c, 4, 62, 64
1, 4723, Note_on_c, 4, 55, 127
1, 4723, Note_on_c, 4, 67, 121
1, 4724, Note_on_c, 4, 43, 127
1, 4853, Note_off_c, 4, 43, 64
1, 4854, Note_off_c, 4, 67, 64
1, 4854, Note_off_c, 4, 55, 64
1, 4855, Note_on_c, 4, 59, 127
1, 4855, Note_on_c, 2, 71, 123
1, 4856, Note_on_c, 4, 47, 127
1, 4908, Marker_t, "Copyright 1998-99 (P) S.D.Rodrian -  NOT to be reproduced or sold sans permission !"
1, 5060, Note_off_c, 2, 71, 64
1, 5094, Note_on_c, 2, 74, 127
1, 5123, Note_off_c, 2, 74, 64
1, 5131, Note_off_c, 4, 59, 64
1, 5131, Note_on_c, 2, 74, 127
1, 5145, Note_off_c, 2, 74, 64
1, 5151, Note_on_c, 2, 75, 127
1, 5164, Note_off_c, 2, 75, 64
1, 5170, Note_on_c, 2, 74, 127
1, 5182, Note_off_c, 2, 74, 64
1, 5187, Note_on_c, 2, 75, 127
1, 5207, Note_on_c, 2, 72, 127
1, 5210, Note_off_c, 2, 75, 64
1, 5235, Note_off_c, 2, 72, 64
1, 5243, Note_on_c, 2, 74, 127
1, 5272, Note_off_c, 2, 74, 64
1, 5280, Note_off_c, 4, 47, 64
1, 5280, Note_on_c, 2, 77, 125
1, 5419, Note_off_c, 2, 77, 64
1, 5419, Note_on_c, 2, 71, 125
1, 5420, Note_on_c, 4, 65, 123
1, 5420, Note_on_c, 2, 68, 123
1, 5421, Note_on_c, 4, 62, 127
1, 5550, Note_off_c, 4, 62, 64
1, 5551, Note_off_c, 2, 68, 64
1, 5551, Note_off_c, 4, 65, 64
1, 5552, Note_off_c, 2, 71, 64
1, 5552, Note_on_c, 2, 71, 125
1, 5553, Note_on_c, 2, 68, 123
1, 5553, Note_on_c, 4, 65, 123
1, 5554, Note_on_c, 4, 62, 127
1, 5687, Note_off_c, 4, 62, 64
1, 5687, Note_off_c, 4, 65, 64
1, 5688, Note_off_c, 2, 68, 64
1, 5688, Note_off_c, 2, 71, 64
1, 5690, Note_on_c, 2, 71, 125
1, 5691, Note_on_c, 4, 65, 123
1, 5691, Note_on_c, 2, 68, 123
1, 5692, Note_on_c, 4, 62, 127
1, 5831, Note_on_c, 1, 79, 121
1, 5832, Note_off_c, 4, 62, 64
1, 5833, Note_off_c, 2, 68, 64
1, 5833, Note_off_c, 4, 65, 64
1, 5834, Note_off_c, 2, 71, 64
1, 5967, Note_off_c, 1, 79, 64
1, 5967, Note_on_c, 2, 72, 124
1, 5968, Note_on_c, 4, 63, 127
1, 5968, Note_on_c, 4, 67, 123
1, 6101, Note_off_c, 4, 63, 64
1, 6102, Note_off_c, 2, 72, 64
1, 6102, Note_off_c, 4, 67, 64
1, 6104, Note_on_c, 2, 72, 124
1, 6105, Note_on_c, 4, 63, 127
1, 6105, Note_on_c, 4, 67, 123
1, 6376, Note_off_c, 4, 67, 64
1, 6376, Note_off_c, 4, 63, 64
1, 6377, Note_off_c, 2, 72, 64
1, 6383, Note_on_c, 4, 67, 123
1, 6383, Note_on_c, 4, 43, 127
1, 6453, Note_on_c, 4, 55, 127
1, 6518, Note_off_c, 4, 43, 64
1, 6524, Note_on_c, 4, 43, 127
1, 6589, Note_off_c, 4, 55, 64
1, 6593, Note_on_c, 4, 55, 127
1, 6658, Note_off_c, 4, 43, 64
1, 6662, Note_on_c, 4, 43, 127
1, 6731, Note_off_c, 4, 55, 64
1, 6735, Note_on_c, 4, 55, 127
1, 6803, Note_off_c, 4, 67, 64
1, 6803, Note_off_c, 4, 43, 64
1, 6808, Note_on_c, 2, 75, 127
1, 6809, Note_on_c, 4, 67, 127
1, 6809, Note_on_c, 4, 43, 127
1, 6874, Note_off_c, 4, 55, 64
1, 6878, Note_on_c, 4, 55, 127
1, 6945, Note_off_c, 4, 43, 64
1, 6949, Note_off_c, 4, 67, 64
1, 6950, Note_on_c, 4, 43, 127
1, 6950, Note_on_c, 4, 66, 127
1, 7014, Note_off_c, 4, 55, 64
1, 7017, Note_on_c, 4, 55, 127
1, 7082, Note_off_c, 4, 43, 64
1, 7087, Note_off_c, 2, 75, 64
1, 7087, Note_off_c, 4, 66, 64
1, 7088, Note_on_c, 2, 74, 127
1, 7088, Note_on_c, 4, 65, 127
1, 7089, Note_on_c, 4, 43, 127
1, 7152, Note_off_c, 4, 55, 64
1, 7156, Note_on_c, 4, 55, 127
1, 7222, Note_off_c, 4, 43, 64
1, 7226, Note_off_c, 4, 65, 64
1, 7226, Note_on_c, 4, 64, 127
1, 7227, Note_on_c, 4, 43, 127
1, 7290, Note_off_c, 4, 55, 64
1, 7294, Note_on_c, 4, 55, 127
1, 7357, Note_off_c, 4, 43, 64
1, 7361, Note_off_c, 4, 64, 64
1, 7362, Note_off_c, 2, 74, 64
1, 7362, Note_on_c, 2, 72, 127
1, 7363, Note_on_c, 4, 43, 127
1, 7363, Note_on_c, 4, 63, 127
1, 7426, Note_off_c, 4, 55, 64
1, 7429, Note_on_c, 4, 55, 127
1, 7493, Note_off_c, 4, 43, 64
1, 7497, Note_off_c, 4, 63, 64
1, 7497, Note_on_c, 4, 62, 127
1, 7498, Note_on_c, 4, 43, 127
1, 7562, Note_off_c, 4, 55, 64
1, 7566, Note_on_c, 4, 55, 127
1, 7631, Note_off_c, 4, 43, 64
1, 7635, Note_off_c, 2, 72, 64
1, 7635, Note_on_c, 2, 71, 127
1, 7636, Note_on_c, 4, 43, 127
1, 7701, Note_off_c, 4, 55, 64
1, 7705, Note_on_c, 4, 55, 127
1, 7770, Note_off_c, 4, 43, 64
1, 7774, Note_on_c, 4, 43, 127
1, 7837, Note_off_c, 4, 55, 64
1, 7841, Note_on_c, 4, 55, 127
1, 7905, Note_off_c, 4, 43, 64
1, 7910, Note_off_c, 2, 71, 64
1, 7911, Note_on_c, 2, 75, 126
1, 7911, Note_on_c, 1, 79, 123
1, 7912, Note_on_c, 4, 43, 127
1, 7974, Note_off_c, 4, 55, 64
1, 7978, Note_on_c, 4, 55, 127
1, 8041, Note_off_c, 2, 75, 64
1, 8041, Note_off_c, 4, 43, 64
1, 8046, Note_off_c, 4, 62, 64
1, 8046, Note_off_c, 1, 79, 64
1, 8047, Note_on_c, 2, 75, 126
1, 8047, Note_on_c, 1, 78, 121
1, 8048, Note_on_c, 4, 43, 127
1, 8110, Note_off_c, 4, 55, 64
1, 8114, Note_on_c, 4, 55, 127
1, 8177, Note_off_c, 4, 43, 64
1, 8182, Note_off_c, 1, 78, 64
1, 8182, Note_off_c, 2, 75, 64
1, 8183, Note_on_c, 2, 74, 126
1, 8183, Note_on_c, 2, 77, 126
1, 8184, Note_on_c, 4, 43, 127
1, 8245, Note_off_c, 4, 55, 64
1, 8249, Note_on_c, 4, 55, 127
1, 8311, Note_off_c, 4, 43, 64
1, 8315, Note_off_c, 2, 77, 64
1, 8315, Note_on_c, 2, 76, 126
1, 8316, Note_on_c, 4, 43, 127
1, 8377, Note_off_c, 4, 55, 64
1, 8383, Note_on_c, 4, 55, 127
1, 8445, Note_off_c, 4, 43, 64
1, 8450, Note_off_c, 2, 74, 64
1, 8450, Note_off_c, 2, 76, 64
1, 8451, Note_on_c, 2, 75, 126
1, 8451, Note_on_c, 2, 72, 126
1, 8452, Note_on_c, 4, 43, 127
1, 8513, Note_off_c, 4, 55, 64
1, 8517, Note_on_c, 4, 55, 127
1, 8580, Note_off_c, 4, 43, 64
1, 8581, Note_off_c, 2, 72, 64
1, 8583, Note_off_c, 2, 75, 64
1, 8584, Note_on_c, 2, 74, 126
1, 8584, Note_on_c, 2, 72, 126
1, 8585, Note_on_c, 4, 43, 127
1, 8649, Note_off_c, 4, 55, 64
1, 8652, Note_on_c, 4, 55, 127
1, 8709, Note_off_c, 4, 55, 64
1, 8722, Note_off_c, 2, 72, 64
1, 8722, Note_on_c, 2, 71, 127
1, 8723, Note_on_c, 4, 55, 127
1, 8778, Note_off_c, 4, 55, 64
1, 8792, Note_on_c, 4, 55, 127
1, 8861, Note_off_c, 4, 43, 64
1, 8861, Note_on_c, 4, 41, 127
1, 8923, Note_off_c, 4, 55, 64
1, 8928, Note_on_c, 4, 53, 127
1, 8981, Note_off_c, 4, 53, 64
1, 8989, Note_off_c, 2, 71, 64
1, 8989, Note_off_c, 2, 74, 64
1, 8996, Note_on_c, 2, 71, 127
1, 8996, Note_on_c, 2, 74, 126
1, 8996, Note_on_c, 1, 80, 125
1, 8997, Note_on_c, 4, 53, 127
1, 9049, Note_off_c, 4, 53, 64
1, 9063, Note_on_c, 4, 53, 127
1, 9130, Note_off_c, 4, 41, 64
1, 9131, Note_on_c, 4, 39, 127
1, 9197, Note_off_c, 4, 53, 64
1, 9201, Note_on_c, 4, 51, 127
1, 9255, Note_off_c, 4, 51, 64
1, 9269, Note_off_c, 2, 71, 64
1, 9270, Note_off_c, 1, 80, 64
1, 9270, Note_off_c, 2, 74, 64
1, 9270, Note_on_c, 1, 79, 123
1, 9271, Note_on_c, 2, 72, 126
1, 9271, Note_on_c, 2, 75, 126
1, 9272, Note_on_c, 4, 51, 127
1, 9324, Note_off_c, 4, 51, 64
1, 9337, Note_on_c, 4, 51, 127
1, 9408, Note_off_c, 4, 39, 64
1, 9409, Note_on_c, 4, 35, 127
1, 9472, Note_off_c, 4, 51, 64
1, 9477, Note_on_c, 4, 47, 127
1, 9488, Note_off_c, 2, 72, 64
1, 9489, Note_off_c, 1, 79, 64
1, 9489, Note_off_c, 2, 75, 64
1, 9510, Note_on_c, 4, 67, 123
1, 9529, Note_off_c, 4, 47, 64
1, 9545, Note_on_c, 2, 74, 126
1, 9545, Note_on_c, 4, 47, 127
1, 9547, Note_off_c, 4, 67, 64
1, 9597, Note_off_c, 4, 47, 64
1, 9613, Note_on_c, 4, 47, 127
1, 9648, Note_off_c, 2, 74, 64
1, 9648, Note_on_c, 2, 77, 126
1, 9675, Note_off_c, 2, 77, 64
1, 9675, Note_on_c, 2, 75, 126
1, 9684, Note_off_c, 4, 35, 64
1, 9684, Note_on_c, 4, 36, 127
1, 9702, Note_on_c, 2, 77, 126
1, 9708, Note_off_c, 2, 75, 64
1, 9721, Note_on_c, 2, 74, 126
1, 9733, Note_off_c, 2, 77, 64
1, 9754, Note_off_c, 4, 47, 64
1, 9758, Note_on_c, 2, 75, 126
1, 9758, Note_on_c, 4, 48, 127
1, 9761, Note_off_c, 2, 74, 64
1, 9795, Note_on_c, 2, 77, 126
1, 9797, Note_off_c, 2, 75, 64
1, 9815, Note_off_c, 4, 48, 64
1, 9828, Note_on_c, 1, 79, 123
1, 9828, Note_on_c, 4, 48, 127
1, 9831, Note_off_c, 2, 77, 64
1, 9883, Note_off_c, 4, 48, 64
1, 9896, Note_on_c, 4, 48, 127
1, 9965, Note_off_c, 4, 36, 64
1, 9966, Note_on_c, 4, 41, 127
1, 10032, Note_off_c, 4, 48, 64
1, 10032, Note_on_c, 4, 53, 127
1, 10084, Note_off_c, 4, 53, 64
1, 10098, Note_off_c, 1, 79, 64
1, 10098, Note_on_c, 1, 80, 125
1, 10099, Note_on_c, 2, 71, 127
1, 10099, Note_on_c, 2, 74, 126
1, 10100, Note_on_c, 4, 53, 127
1, 10151, Note_off_c, 4, 53, 64
1, 10166, Note_on_c, 4, 53, 127
1, 10234, Note_off_c, 4, 41, 64
1, 10235, Note_on_c, 4, 39, 127
1, 10300, Note_off_c, 4, 53, 64
1, 10304, Note_on_c, 4, 51, 127
1, 10358, Note_off_c, 4, 51, 64
1, 10373, Note_off_c, 2, 71, 64
1, 10374, Note_off_c, 1, 80, 64
1, 10374, Note_off_c, 2, 74, 64
1, 10375, Note_on_c, 2, 75, 126
1, 10375, Note_on_c, 1, 79, 123
1, 10376, Note_on_c, 2, 72, 126
1, 10376, Note_on_c, 4, 51, 127
1, 10427, Note_off_c, 4, 51, 64
1, 10440, Note_on_c, 4, 51, 127
1, 10508, Note_off_c, 4, 39, 64
1, 10508, Note_on_c, 4, 38, 127
1, 10574, Note_off_c, 4, 51, 64
1, 10578, Note_on_c, 4, 50, 127
1, 10589, Note_off_c, 2, 72, 64
1, 10590, Note_off_c, 1, 79, 64
1, 10590, Note_off_c, 2, 75, 64
1, 10611, Note_on_c, 2, 77, 124
1, 10632, Note_off_c, 4, 50, 64
1, 10648, Note_on_c, 1, 83, 123
1, 10648, Note_on_c, 4, 50, 127
1, 10651, Note_off_c, 2, 77, 64
1, 10680, Marker_t, "This file may be freely distributed on the WWW, as long as it's not modified. SDR"
1, 10703, Note_off_c, 4, 50, 64
1, 10716, Note_on_c, 4, 50, 127
1, 10729, Note_off_c, 1, 83, 64
1, 10751, Note_on_c, 1, 86, 123
1, 10772, Note_off_c, 4, 50, 64
1, 10779, Note_off_c, 1, 86, 64
1, 10787, Note_off_c, 4, 38, 64
1, 10788, Note_on_c, 4, 48, 127
1, 10788, Note_on_c, 1, 87, 123
1, 10855, Note_on_c, 1, 79, 121
1, 10920, Note_off_c, 1, 87, 64
1, 10924, Note_on_c, 1, 84, 123
1, 10930, Note_off_c, 1, 79, 64
1, 10990, Note_on_c, 1, 79, 121
1, 11055, Note_off_c, 1, 84, 64
1, 11059, Note_off_c, 4, 48, 64
1, 11059, Note_on_c, 4, 53, 127
1, 11123, Note_off_c, 1, 79, 64
1, 11127, Note_on_c, 2, 77, 124
1, 11196, Note_on_c, 1, 80, 123
1, 11202, Note_off_c, 2, 77, 64
1, 11263, Note_on_c, 2, 74, 124
1, 11327, Note_off_c, 1, 80, 64
1, 11331, Note_off_c, 4, 53, 64
1, 11331, Note_on_c, 4, 55, 127
1, 11397, Note_off_c, 2, 74, 64
1, 11399, Note_on_c, 2, 75, 124
1, 11470, Note_on_c, 1, 79, 121
1, 11476, Note_off_c, 2, 75, 64
1, 11539, Note_on_c, 2, 72, 124
1, 11604, Note_off_c, 1, 79, 64
1, 11608, Note_off_c, 4, 55, 64
1, 11609, Note_on_c, 4, 43, 127
1, 11672, Note_off_c, 2, 72, 64
1, 11676, Note_on_c, 2, 74, 124
1, 11746, Note_on_c, 2, 77, 124
1, 11751, Note_off_c, 2, 74, 64
1, 11815, Note_on_c, 2, 71, 125
1, 11880, Note_off_c, 2, 77, 64
1, 11884, Note_off_c, 4, 43, 64
1, 11884, Note_on_c, 2, 72, 124
1, 11885, Note_on_c, 4, 60, 127
1, 11891, Note_off_c, 2, 71, 64
1, 12154, Note_off_c, 2, 72, 64
1, 12154, Note_off_c, 4, 60, 64
1, 12155, Note_on_c, 4, 63, 127
1, 12155, Note_on_c, 2, 75, 124
1, 12290, Note_off_c, 2, 75, 64
1, 12290, Note_off_c, 4, 63, 64
1, 12291, Note_on_c, 1, 79, 121
1, 12291, Note_on_c, 4, 67, 123
1, 12428, Note_off_c, 4, 67, 64
1, 12429, Note_off_c, 1, 79, 64
1, 12429, Note_on_c, 1, 84, 123
1, 12430, Note_on_c, 2, 72, 124
1, 12566, Note_off_c, 2, 72, 64
1, 12567, Note_off_c, 1, 84, 64
1, 12567, Note_on_c, 1, 87, 123
1, 12568, Note_on_c, 2, 75, 124
1, 12781, Note_off_c, 2, 75, 64
1, 12782, Note_off_c, 1, 87, 64
1, 12804, Note_on_c, 2, 75, 121
1, 12834, Note_off_c, 2, 75, 64
1, 12842, Note_on_c, 2, 75, 121
1, 12863, Note_on_c, 2, 77, 124
1, 12875, Note_off_c, 2, 75, 64
1, 12882, Note_on_c, 2, 75, 121
1, 12894, Note_off_c, 2, 77, 64
1, 12900, Note_on_c, 2, 77, 124
1, 12913, Note_off_c, 2, 75, 64
1, 12919, Note_on_c, 2, 74, 121
1, 12930, Note_off_c, 2, 77, 64
1, 12955, Note_on_c, 2, 75, 121
1, 12967, Note_off_c, 2, 74, 64
1, 12990, Note_on_c, 4, 46, 127
1, 12990, Note_on_c, 1, 80, 123
1, 12991, Note_on_c, 4, 34, 127
1, 13001, Note_off_c, 2, 75, 64
1, 13036, Note_off_c, 1, 80, 64
1, 13036, Note_on_c, 1, 82, 123
1, 13081, Note_off_c, 1, 82, 64
1, 13081, Note_on_c, 1, 84, 123
1, 13126, Note_off_c, 1, 84, 64
1, 13127, Note_on_c, 1, 82, 123
1, 13167, Note_off_c, 1, 82, 64
1, 13168, Note_on_c, 1, 80, 123
1, 13214, Note_off_c, 1, 80, 64
1, 13215, Note_on_c, 1, 79, 121
1, 13258, Note_off_c, 1, 79, 64
1, 13258, Note_off_c, 4, 34, 64
1, 13259, Note_off_c, 4, 46, 64
1, 13259, Note_on_c, 2, 77, 124
1, 13260, Note_on_c, 4, 50, 127
1, 13260, Note_on_c, 4, 38, 127
1, 13303, Note_off_c, 2, 77, 64
1, 13303, Note_on_c, 1, 79, 121
1, 13346, Note_off_c, 1, 79, 64
1, 13346, Note_on_c, 1, 80, 123
1, 13391, Note_off_c, 1, 80, 64
1, 13392, Note_off_c, 4, 38, 64
1, 13392, Note_off_c, 4, 50, 64
1, 13392, Note_on_c, 1, 79, 121
1, 13393, Note_on_c, 4, 41, 127
1, 13393, Note_on_c, 4, 53, 127
1, 13432, Note_off_c, 1, 79, 64
1, 13433, Note_on_c, 2, 77, 124
1, 13477, Note_off_c, 2, 77, 64
1, 13478, Note_on_c, 2, 75, 124
1, 13521, Note_off_c, 2, 75, 64
1, 13522, Note_off_c, 4, 53, 64
1, 13522, Note_off_c, 4, 41, 64
1, 13522, Note_on_c, 2, 74, 124
1, 13523, Note_on_c, 4, 58, 127
1, 13523, Note_on_c, 4, 46, 127
1, 13568, Note_off_c, 2, 74, 64
1, 13568, Note_on_c, 2, 75, 124
1, 13611, Note_off_c, 2, 75, 64
1, 13612, Note_on_c, 2, 77, 124
1, 13654, Note_off_c, 2, 77, 64
1, 13655, Note_off_c, 4, 46, 64
1, 13655, Note_off_c, 4, 58, 64
1, 13656, Note_on_c, 4, 50, 127
1, 13656, Note_on_c, 4, 62, 127
1, 13656, Note_on_c, 2, 75, 124
1, 13698, Note_off_c, 2, 75, 64
1, 13698, Note_on_c, 2, 74, 124
1, 13741, Note_off_c, 2, 74, 64
1, 13741, Note_on_c, 2, 72, 127
1, 13786, Note_off_c, 2, 72, 64
1, 13787, Note_on_c, 2, 70, 127
1, 13831, Note_off_c, 2, 70, 64
1, 13832, Note_on_c, 2, 72, 127
1, 13874, Note_off_c, 2, 72, 64
1, 13875, Note_on_c, 2, 70, 127
1, 13918, Note_off_c, 2, 70, 64
1, 13918, Note_on_c, 2, 68, 127
1, 13961, Note_off_c, 2, 68, 64
1, 13961, Note_on_c, 2, 70, 127
1, 14002, Note_off_c, 2, 70, 64
1, 14003, Note_on_c, 2, 68, 127
1, 14043, Note_off_c, 4, 62, 64
1, 14047, Note_off_c, 2, 68, 64
1, 14048, Note_off_c, 4, 50, 64
1, 14049, Note_on_c, 4, 51, 127
1, 14049, Note_on_c, 3, 67, 127
1, 14117, Note_on_c, 4, 58, 127
1, 14161, Note_off_c, 4, 51, 64
1, 14184, Note_on_c, 4, 55, 127
1, 14231, Note_off_c, 4, 58, 64
1, 14254, Note_on_c, 2, 68, 127
1, 14254, Note_on_c, 4, 58, 127
1, 14260, Note_off_c, 3, 67, 64
1, 14268, Note_off_c, 2, 68, 64
1, 14274, Note_on_c, 3, 67, 127
1, 14288, Note_off_c, 3, 67, 64
1, 14294, Note_on_c, 3, 65, 127
1, 14307, Note_off_c, 4, 55, 64
1, 14309, Note_off_c, 3, 65, 64
1, 14315, Note_on_c, 3, 67, 127
1, 14328, Note_off_c, 3, 67, 64
1, 14334, Note_on_c, 2, 68, 127
1, 14335, Note_on_c, 4, 53, 127
1, 14381, Note_off_c, 4, 58, 64
1, 14404, Note_on_c, 4, 58, 127
1, 14448, Note_off_c, 4, 53, 64
1, 14472, Note_off_c, 2, 68, 64
1, 14472, Note_on_c, 3, 62, 127
1, 14472, Note_on_c, 4, 56, 127
1, 14519, Note_off_c, 4, 58, 64
1, 14542, Note_on_c, 4, 58, 127
1, 14586, Note_off_c, 4, 56, 64
1, 14611, Note_off_c, 3, 62, 64
1, 14611, Note_on_c, 3, 63, 127
1, 14612, Note_on_c, 4, 55, 127
1, 14656, Note_off_c, 4, 58, 64
1, 14679, Note_on_c, 3, 67, 127
1, 14679, Note_on_c, 4, 58, 127
1, 14686, Note_off_c, 3, 63, 64
1, 14724, Note_off_c, 4, 55, 64
1, 14747, Note_on_c, 2, 70, 127
1, 14748, Note_on_c, 4, 51, 127
1, 14752, Note_off_c, 3, 67, 64
1, 14790, Note_off_c, 4, 58, 64
1, 14813, Note_on_c, 4, 58, 127
1, 14859, Note_off_c, 4, 51, 64
1, 14882, Note_on_c, 4, 50, 127
1, 14927, Note_off_c, 4, 58, 64
1, 14948, Note_off_c, 2, 70, 64
1, 14948, Note_on_c, 2, 69, 127
1, 14949, Note_on_c, 4, 58, 127
1, 14991, Note_off_c, 4, 50, 64
1, 15012, Note_on_c, 2, 68, 127
1, 15013, Note_on_c, 4, 46, 127
1, 15020, Note_off_c, 2, 69, 64
1, 15058, Note_off_c, 4, 58, 64
1, 15079, Note_on_c, 3, 66, 127
1, 15080, Note_on_c, 4, 58, 127
1, 15086, Note_off_c, 2, 68, 64
1, 15124, Note_off_c, 4, 46, 64
1, 15147, Note_on_c, 3, 67, 127
1, 15148, Note_on_c, 4, 51, 127
1, 15152, Note_off_c, 3, 66, 64
1, 15192, Note_off_c, 4, 58, 64
1, 15216, Note_on_c, 4, 58, 127
1, 15260, Note_off_c, 4, 51, 64
1, 15283, Note_on_c, 4, 55, 127
1, 15327, Note_off_c, 4, 58, 64
1, 15349, Note_off_c, 3, 67, 64
1, 15349, Note_on_c, 2, 68, 127
1, 15350, Note_on_c, 4, 58, 127
1, 15363, Note_off_c, 2, 68, 64
1, 15369, Note_on_c, 3, 67, 127
1, 15383, Note_off_c, 3, 67, 64
1, 15388, Note_on_c, 3, 65, 127
1, 15400, Note_off_c, 4, 55, 64
1, 15402, Note_off_c, 3, 65, 64
1, 15408, Note_on_c, 3, 67, 127
1, 15420, Note_off_c, 3, 67, 64
1, 15426, Note_on_c, 2, 68, 127
1, 15426, Note_on_c, 4, 53, 127
1, 15471, Note_off_c, 4, 58, 64
1, 15495, Note_on_c, 4, 58, 127
1, 15504, Marker_t, "SDRodrian@aol.com  626 Lalor Trenton NJ 08611 http://members.aol.com/sdrodrian"
1, 15540, Note_off_c, 4, 53, 64
1, 15562, Note_off_c, 2, 68, 64
1, 15563, Note_on_c, 4, 56, 127
1, 15563, Note_on_c, 3, 62, 127
1, 15607, Note_off_c, 4, 58, 64
1, 15630, Note_on_c, 4, 58, 127
1, 15674, Note_off_c, 4, 56, 64
1, 15696, Note_off_c, 3, 62, 64
1, 15696, Note_on_c, 3, 63, 127
1, 15696, Note_on_c, 4, 55, 127
1, 15742, Note_off_c, 4, 58, 64
1, 15765, Note_on_c, 2, 75, 127
1, 15765, Note_on_c, 4, 58, 127
1, 15771, Note_off_c, 3, 63, 64
1, 15810, Note_off_c, 4, 55, 64
1, 15833, Note_on_c, 4, 51, 127
1, 15833, Note_on_c, 2, 74, 127
1, 15840, Note_off_c, 2, 75, 64
1, 15878, Note_off_c, 4, 58, 64
1, 15899, Note_on_c, 2, 72, 127
1, 15900, Note_on_c, 4, 58, 127
1, 15906, Note_off_c, 2, 74, 64
1, 15945, Note_off_c, 4, 51, 64
1, 15967, Note_on_c, 2, 71, 127
1, 15968, Note_on_c, 4, 50, 127
1, 15972, Note_off_c, 2, 72, 64
1, 16012, Note_off_c, 4, 58, 64
1, 16033, Note_on_c, 2, 69, 127
1, 16034, Note_on_c, 4, 58, 127
1, 16041, Note_off_c, 2, 71, 64
1, 16078, Note_off_c, 4, 50, 64
1, 16101, Note_on_c, 2, 68, 127
1, 16102, Note_on_c, 4, 46, 127
1, 16106, Note_off_c, 2, 69, 64
1, 16144, Note_off_c, 4, 58, 64
1, 16165, Note_on_c, 3, 66, 127
1, 16166, Note_on_c, 4, 58, 127
1, 16172, Note_off_c, 2, 68, 64
1, 16212, Note_off_c, 4, 46, 64
1, 16233, Note_on_c, 4, 51, 127
1, 16233, Note_on_c, 3, 67, 127
1, 16239, Note_off_c, 3, 66, 64
1, 16278, Note_off_c, 4, 58, 64
1, 16300, Note_on_c, 4, 58, 127
1, 16344, Note_off_c, 4, 51, 64
1, 16367, Note_off_c, 3, 67, 64
1, 16368, Note_on_c, 2, 70, 127
1, 16368, Note_on_c, 4, 55, 127
1, 16414, Note_off_c, 4, 58, 64
1, 16437, Note_on_c, 4, 58, 127
1, 16481, Note_off_c, 4, 55, 64
1, 16504, Note_on_c, 4, 50, 127
1, 16548, Note_off_c, 4, 58, 64
1, 16572, Note_on_c, 2, 70, 127
1, 16572, Note_on_c, 4, 58, 127
1, 16584, Note_off_c, 2, 70, 64
1, 16619, Note_off_c, 4, 50, 64
1, 16628, Note_off_c, 2, 70, 64
1, 16641, Note_on_c, 2, 70, 127
1, 16641, Note_on_c, 4, 53, 127
1, 16689, Note_off_c, 4, 58, 64
1, 16709, Note_off_c, 2, 70, 64
1, 16714, Note_on_c, 4, 58, 127
1, 16714, Note_on_c, 2, 70, 127
1, 16759, Note_off_c, 4, 53, 64
1, 16784, Note_on_c, 4, 48, 127
1, 16784, Note_on_c, 2, 77, 127
1, 16790, Note_off_c, 2, 70, 64
1, 16831, Note_off_c, 4, 58, 64
1, 16856, Note_on_c, 2, 75, 127
1, 16856, Note_on_c, 4, 58, 127
1, 16860, Note_off_c, 2, 77, 64
1, 16901, Note_off_c, 4, 48, 64
1, 16920, Note_off_c, 2, 75, 64
1, 16924, Note_on_c, 4, 55, 127
1, 16924, Note_on_c, 2, 75, 127
1, 16972, Note_off_c, 4, 58, 64
1, 16994, Note_on_c, 4, 58, 127
1, 17040, Note_off_c, 4, 55, 64
1, 17063, Note_on_c, 4, 48, 127
1, 17107, Note_off_c, 4, 58, 64
1, 17124, Note_off_c, 2, 75, 64
1, 17130, Note_on_c, 2, 75, 127
1, 17131, Note_on_c, 4, 58, 127
1, 17175, Note_off_c, 4, 48, 64
1, 17195, Note_off_c, 2, 75, 64
1, 17198, Note_on_c, 2, 75, 125
1, 17199, Note_on_c, 4, 55, 127
1, 17244, Note_off_c, 4, 58, 64
1, 17265, Note_off_c, 2, 75, 64
1, 17268, Note_on_c, 2, 75, 125
1, 17269, Note_on_c, 4, 58, 127
1, 17316, Note_off_c, 4, 55, 64
1, 17335, Note_off_c, 2, 75, 64
1, 17339, Note_on_c, 4, 57, 127
1, 17339, Note_on_c, 2, 75, 125
1, 17340, Note_on_c, 4, 48, 127
1, 17340, Note_on_c, 4, 53, 127
1, 17344, Note_off_c, 4, 58, 64
1, 17405, Note_off_c, 2, 75, 64
1, 17407, Note_on_c, 2, 77, 125
1, 17443, Note_on_c, 1, 79, 122
1, 17449, Note_off_c, 2, 77, 64
1, 17478, Note_on_c, 2, 77, 125
1, 17484, Note_off_c, 1, 79, 64
1, 17547, Note_on_c, 2, 75, 127
1, 17553, Note_off_c, 2, 77, 64
1, 17614, Note_on_c, 2, 74, 127
1, 17620, Note_off_c, 2, 75, 64
1, 17681, Note_on_c, 2, 72, 127
1, 17685, Note_off_c, 2, 74, 64
1, 17748, Note_on_c, 2, 70, 127
1, 17755, Note_off_c, 2, 72, 64
1, 17817, Note_on_c, 2, 69, 127
1, 17822, Note_off_c, 2, 70, 64
1, 17884, Note_on_c, 2, 72, 127
1, 17890, Note_off_c, 2, 69, 64
1, 17997, Note_off_c, 4, 48, 64
1, 17998, Note_off_c, 4, 57, 64
1, 17998, Note_off_c, 4, 53, 64
1, 18025, Note_off_c, 2, 72, 64
1, 18025, Note_on_c, 2, 70, 125
1, 18026, Note_on_c, 4, 62, 127
1, 18026, Note_on_c, 4, 58, 127
1, 18163, Note_off_c, 4, 58, 64
1, 18163, Note_off_c, 4, 62, 64
1, 18164, Note_off_c, 2, 70, 64
1, 18165, Note_on_c, 4, 59, 127
1, 18165, Note_on_c, 4, 63, 127
1, 18301, Note_on_c, 2, 75, 124
1, 18367, Note_off_c, 2, 75, 64
1, 18371, Note_on_c, 2, 75, 124
1, 18440, Note_on_c, 0, 82, 123
1, 18447, Note_off_c, 2, 75, 64
1, 18546, Note_off_c, 4, 63, 64
1, 18546, Note_off_c, 4, 59, 64
1, 18579, Note_on_c, 4, 62, 127
1, 18579, Note_on_c, 4, 58, 127
1, 18719, Note_off_c, 4, 58, 64
1, 18719, Note_off_c, 4, 62, 64
1, 18719, Note_on_c, 4, 63, 127
1, 18720, Note_on_c, 4, 59, 127
1, 18816, Note_off_c, 0, 82, 64
1, 18857, Note_on_c, 2, 75, 124
1, 18920, Note_off_c, 2, 75, 64
1, 18926, Note_on_c, 2, 75, 124
1, 18996, Note_on_c, 0, 82, 123
1, 19002, Note_off_c, 2, 75, 64
1, 19100, Note_off_c, 4, 59, 64
1, 19100, Note_off_c, 4, 63, 64
1, 19133, Note_on_c, 4, 62, 127
1, 19134, Note_on_c, 4, 58, 127
1, 19272, Note_off_c, 4, 58, 64
1, 19273, Note_off_c, 4, 62, 64
1, 19273, Note_on_c, 4, 63, 127
1, 19274, Note_on_c, 4, 59, 127
1, 19370, Note_off_c, 0, 82, 64
1, 19411, Note_on_c, 2, 75, 124
1, 19476, Note_off_c, 2, 75, 64
1, 19480, Note_on_c, 2, 75, 124
1, 19547, Note_off_c, 4, 59, 64
1, 19548, Note_off_c, 4, 63, 64
1, 19548, Note_on_c, 4, 62, 127
1, 19548, Note_on_c, 0, 82, 123
1, 19549, Note_on_c, 4, 58, 127
1, 19554, Note_off_c, 2, 75, 64
1, 19688, Note_off_c, 4, 58, 64
1, 19689, Note_off_c, 0, 82, 64
1, 19689, Note_off_c, 4, 62, 64
1, 19690, Note_on_c, 2, 75, 124
1, 19690, Note_on_c, 4, 63, 127
1, 19691, Note_on_c, 4, 59, 127
1, 19751, Note_off_c, 2, 75, 64
1, 19756, Note_on_c, 2, 75, 124
1, 19824, Note_off_c, 4, 59, 64
1, 19824, Note_off_c, 4, 63, 64
1, 19824, Note_on_c, 0, 82, 123
1, 19825, Note_on_c, 4, 58, 127
1, 19825, Note_on_c, 4, 62, 127
1, 19829, Note_off_c, 2, 75, 64
1, 19962, Note_off_c, 4, 62, 64
1, 19962, Note_off_c, 4, 58, 64
1, 19963, Note_off_c, 0, 82, 64
1, 19963, Note_on_c, 2, 75, 124
1, 19964, Note_on_c, 4, 63, 127
1, 19964, Note_on_c, 4, 59, 127
1, 20026, Note_off_c, 2, 75, 64
1, 20030, Note_on_c, 2, 75, 124
1, 20101, Note_off_c, 4, 59, 64
1, 20101, Note_off_c, 4, 63, 64
1, 20102, Note_on_c, 4, 62, 127
1, 20102, Note_on_c, 1, 82, 123
1, 20103, Note_on_c, 4, 58, 127
1, 20107, Note_off_c, 2, 75, 64
1, 20236, Note_off_c, 1, 82, 64
1, 20238, Note_on_c, 1, 82, 123
1, 20375, Note_off_c, 1, 82, 64
1, 20376, Note_on_c, 1, 82, 123
1, 20513, Note_off_c, 1, 82, 64
1, 20517, Note_on_c, 1, 82, 121
1, 20650, Note_off_c, 1, 82, 64
1, 20654, Note_on_c, 1, 82, 115
1, 20719, Note_on_c, 1, 81, 115
1, 20725, Note_off_c, 1, 82, 64
1, 20772, Marker_t, "1121 Deutz Ave Trenton NJ 08611 http://www.geocities.com/Paris/LeftBank/3214"
1, 20786, Note_on_c, 1, 80, 115
1, 20791, Note_off_c, 1, 81, 64
1, 20856, Note_on_c, 2, 77, 118
1, 20862, Note_off_c, 1, 80, 64
1, 20923, Note_on_c, 1, 82, 115
1, 20929, Note_off_c, 2, 77, 64
1, 20990, Note_on_c, 1, 81, 115
1, 20996, Note_off_c, 1, 82, 64
1, 21056, Note_on_c, 1, 80, 115
1, 21061, Note_off_c, 1, 81, 64
1, 21121, Note_on_c, 2, 77, 118
1, 21127, Note_off_c, 1, 80, 64
1, 21179, Note_off_c, 4, 62, 64
1, 21179, Note_off_c, 4, 58, 64
1, 21189, Note_on_c, 2, 75, 117
1, 21190, Note_on_c, 4, 67, 123
1, 21196, Note_off_c, 2, 77, 64
1, 21259, Note_on_c, 2, 70, 125
1, 21322, Note_off_c, 4, 67, 64
1, 21326, Note_on_c, 4, 67, 123
1, 21391, Note_off_c, 2, 70, 64
1, 21396, Note_off_c, 2, 75, 64
1, 21396, Note_on_c, 2, 77, 117
1, 21396, Note_on_c, 2, 70, 125
1, 21431, Note_on_c, 2, 75, 117
1, 21432, Note_off_c, 2, 77, 64
1, 21459, Note_off_c, 4, 67, 64
1, 21464, Note_on_c, 2, 74, 117
1, 21464, Note_on_c, 4, 65, 123
1, 21467, Note_off_c, 2, 75, 64
1, 21529, Note_off_c, 2, 70, 64
1, 21534, Note_on_c, 2, 70, 125
1, 21597, Note_off_c, 4, 65, 64
1, 21603, Note_off_c, 2, 74, 64
1, 21603, Note_on_c, 2, 75, 120
1, 21604, Note_on_c, 4, 67, 123
1, 21667, Note_off_c, 2, 70, 64
1, 21671, Note_on_c, 2, 70, 125
1, 21736, Note_off_c, 4, 67, 64
1, 21740, Note_off_c, 2, 75, 64
1, 21741, Note_on_c, 4, 67, 123
1, 21741, Note_on_c, 2, 76, 120
1, 21804, Note_off_c, 2, 70, 64
1, 21808, Note_on_c, 2, 70, 125
1, 21872, Note_off_c, 4, 67, 64
1, 21876, Note_on_c, 4, 67, 123
1, 21939, Note_off_c, 2, 70, 64
1, 21943, Note_on_c, 2, 70, 125
1, 21984, Note_off_c, 2, 76, 64
1, 22008, Note_off_c, 4, 67, 64
1, 22012, Note_on_c, 2, 77, 124
1, 22013, Note_on_c, 2, 68, 123
1, 22076, Note_off_c, 2, 70, 64
1, 22080, Note_on_c, 2, 70, 125
1, 22146, Note_off_c, 2, 68, 64
1, 22150, Note_on_c, 2, 68, 123
1, 22215, Note_off_c, 2, 70, 64
1, 22219, Note_on_c, 2, 70, 125
1, 22283, Note_off_c, 2, 68, 64
1, 22286, Note_on_c, 4, 65, 123
1, 22287, Note_on_c, 3, 56, 127
1, 22297, Note_off_c, 2, 77, 64
1, 22351, Note_off_c, 2, 70, 64
1, 22355, Note_on_c, 2, 70, 125
1, 22420, Note_off_c, 4, 65, 64
1, 22424, Note_on_c, 4, 65, 123
1, 22487, Note_off_c, 2, 70, 64
1, 22493, Note_off_c, 3, 56, 64
1, 22493, Note_on_c, 2, 70, 125
1, 22494, Note_on_c, 3, 55, 127
1, 22529, Note_on_c, 3, 56, 127
1, 22531, Note_off_c, 3, 55, 64
1, 22558, Note_off_c, 4, 65, 64
1, 22564, Note_on_c, 4, 65, 123
1, 22564, Note_on_c, 3, 58, 127
1, 22567, Note_off_c, 3, 56, 64
1, 22626, Note_off_c, 2, 70, 64
1, 22630, Note_on_c, 2, 70, 125
1, 22631, Note_on_c, 3, 56, 127
1, 22637, Note_off_c, 3, 58, 64
1, 22698, Note_off_c, 4, 65, 64
1, 22702, Note_on_c, 4, 67, 123
1, 22703, Note_on_c, 3, 55, 127
1, 22707, Note_off_c, 3, 56, 64
1, 22768, Note_off_c, 2, 70, 64
1, 22772, Note_on_c, 2, 70, 125
1, 22773, Note_on_c, 3, 53, 127
1, 22777, Note_off_c, 3, 55, 64
1, 22836, Note_off_c, 4, 67, 64
1, 22842, Note_on_c, 2, 68, 123
1, 22843, Note_on_c, 3, 51, 127
1, 22847, Note_off_c, 3, 53, 64
1, 22907, Note_off_c, 2, 70, 64
1, 22911, Note_on_c, 2, 70, 125
1, 22974, Note_off_c, 2, 68, 64
1, 22978, Note_on_c, 4, 65, 123
1, 23043, Note_off_c, 2, 70, 64
1, 23049, Note_on_c, 2, 70, 125
1, 23114, Note_off_c, 4, 65, 64
1, 23118, Note_off_c, 3, 51, 64
1, 23118, Note_on_c, 2, 68, 123
1, 23119, Note_on_c, 3, 50, 127
1, 23182, Note_off_c, 2, 70, 64
1, 23188, Note_on_c, 2, 70, 125
1, 23251, Note_off_c, 2, 68, 64
1, 23256, Note_on_c, 4, 65, 123
1, 23320, Note_off_c, 2, 70, 64
1, 23325, Note_on_c, 2, 70, 125
1, 23391, Note_off_c, 4, 65, 64
1, 23396, Note_off_c, 3, 50, 64
1, 23396, Note_on_c, 2, 77, 116
1, 23397, Note_on_c, 4, 62, 127
1, 23461, Note_off_c, 2, 70, 64
1, 23466, Note_on_c, 2, 70, 125
1, 23532, Note_off_c, 4, 62, 64
1, 23537, Note_on_c, 4, 62, 127
1, 23602, Note_off_c, 2, 70, 64
1, 23606, Note_off_c, 2, 77, 64
1, 23606, Note_on_c, 1, 79, 113
1, 23607, Note_on_c, 2, 70, 125
1, 23641, Note_on_c, 2, 77, 116
1, 23645, Note_off_c, 1, 79, 64
1, 23674, Note_off_c, 4, 62, 64
1, 23678, Note_on_c, 4, 60, 127
1, 23678, Note_on_c, 2, 75, 116
1, 23682, Note_off_c, 2, 77, 64
1, 23744, Note_off_c, 2, 70, 64
1, 23748, Note_on_c, 2, 70, 125
1, 23811, Note_off_c, 4, 60, 64
1, 23815, Note_off_c, 2, 75, 64
1, 23816, Note_on_c, 2, 77, 116
1, 23816, Note_on_c, 4, 62, 127
1, 23879, Note_off_c, 2, 70, 64
1, 23884, Note_on_c, 2, 70, 125
1, 23946, Note_off_c, 4, 62, 64
1, 23950, Note_off_c, 2, 77, 64
1, 23950, Note_on_c, 1, 78, 115
1, 23951, Note_on_c, 4, 62, 127
1, 24016, Note_off_c, 2, 70, 64
1, 24020, Note_on_c, 2, 70, 125
1, 24085, Note_off_c, 4, 62, 64
1, 24089, Note_on_c, 4, 62, 127
1, 24152, Note_off_c, 2, 70, 64
1, 24156, Note_on_c, 2, 70, 125
1, 24195, Note_off_c, 1, 78, 64
1, 24219, Note_off_c, 4, 62, 64
1, 24224, Note_on_c, 1, 79, 117
1, 24224, Note_on_c, 4, 63, 127
1, 24288, Note_off_c, 2, 70, 64
1, 24291, Note_on_c, 2, 70, 125
1, 24357, Note_off_c, 4, 63, 64
1, 24360, Note_on_c, 4, 63, 127
1, 24424, Note_off_c, 2, 70, 64
1, 24428, Note_on_c, 2, 70, 125
1, 24491, Note_off_c, 4, 63, 64
1, 24495, Note_off_c, 1, 79, 64
1, 24495, Note_on_c, 4, 67, 123
1, 24496, Note_on_c, 3, 58, 127
1, 24561, Note_off_c, 2, 70, 64
1, 24565, Note_on_c, 2, 70, 125
1, 24630, Note_off_c, 4, 67, 64
1, 24634, Note_on_c, 4, 63, 127
1, 24699, Note_off_c, 2, 70, 64
1, 24703, Note_off_c, 3, 58, 64
1, 24704, Note_on_c, 3, 57, 127
1, 24704, Note_on_c, 2, 70, 125
1, 24739, Note_on_c, 3, 58, 127
1, 24743, Note_off_c, 3, 57, 64
1, 24770, Note_off_c, 4, 63, 64
1, 24773, Note_on_c, 4, 67, 123
1, 24774, Note_on_c, 3, 60, 127
1, 24778, Note_off_c, 3, 58, 64
1, 24838, Note_off_c, 2, 70, 64
1, 24841, Note_on_c, 2, 70, 125
1, 24842, Note_on_c, 3, 58, 127
1, 24848, Note_off_c, 3, 60, 64
1, 24906, Note_off_c, 4, 67, 64
1, 24910, Note_on_c, 3, 56, 127
1, 24910, Note_on_c, 4, 63, 127
1, 24914, Note_off_c, 3, 58, 64
1, 24974, Note_off_c, 2, 70, 64
1, 24978, Note_on_c, 2, 70, 125
1, 24978, Note_on_c, 3, 55, 127
1, 24984, Note_off_c, 3, 56, 64
1, 25046, Note_off_c, 4, 63, 64
1, 25050, Note_on_c, 3, 53, 127
1, 25050, Note_on_c, 2, 68, 123
1, 25055, Note_off_c, 3, 55, 64
1, 25114, Note_off_c, 2, 70, 64
1, 25118, Note_on_c, 2, 70, 125
1, 25183, Note_off_c, 2, 68, 64
1, 25188, Note_on_c, 4, 65, 123
1, 25252, Note_off_c, 2, 70, 64
1, 25256, Note_on_c, 2, 70, 125
1, 25321, Note_off_c, 4, 65, 64
1, 25325, Note_off_c, 3, 53, 64
1, 25326, Note_on_c, 3, 51, 127
1, 25326, Note_on_c, 4, 67, 123
1, 25392, Note_off_c, 2, 70, 64
1, 25395, Note_on_c, 2, 70, 125
1, 25461, Note_off_c, 4, 67, 64
1, 25464, Note_on_c, 4, 63, 127
1, 25528, Note_off_c, 2, 70, 64
1, 25532, Note_on_c, 2, 70, 125
1, 25597, Note_off_c, 2, 70, 64
1, 25597, Note_off_c, 4, 63, 64
1, 25600, Note_off_c, 3, 51, 64
1, 25601, Note_on_c, 2, 70, 125
1, 25601, Note_on_c, 1, 82, 123
1, 25602, Note_on_c, 4, 63, 127
1, 25669, Note_on_c, 4, 67, 123
1, 25734, Note_off_c, 4, 63, 64
1, 25739, Note_on_c, 4, 63, 127
1, 25805, Note_off_c, 4, 67, 64
1, 25810, Note_on_c, 4, 67, 123
1, 25876, Note_off_c, 4, 63, 64
1, 25881, Note_off_c, 1, 82, 64
1, 25881, Note_off_c, 2, 70, 64
1, 25882, Note_on_c, 4, 61, 127
1, 25882, Note_on_c, 2, 71, 125
1, 25882, Note_on_c, 1, 83, 123
1, 25944, Note_off_c, 4, 67, 64
1, 25948, Note_on_c, 4, 65, 123
1, 26012, Note_off_c, 4, 61, 64
1, 26016, Note_on_c, 4, 61, 127
1, 26081, Note_off_c, 4, 65, 64
1, 26085, Note_on_c, 4, 65, 123
1, 26150, Note_off_c, 4, 61, 64
1, 26154, Note_off_c, 2, 71, 64
1, 26155, Note_off_c, 1, 83, 64
1, 26155, Note_on_c, 1, 84, 123
1, 26156, Note_on_c, 4, 60, 127
1, 26156, Note_on_c, 2, 72, 124
1, 26221, Note_off_c, 4, 65, 64
1, 26225, Note_on_c, 4, 64, 127
1, 26229, Note_off_c, 4, 60, 64
1, 26277, Note_off_c, 1, 84, 64
1, 26287, Note_off_c, 4, 64, 64
1, 26291, Note_off_c, 2, 72, 64
1, 26292, Note_on_c, 4, 64, 127
1, 26292, Note_on_c, 2, 73, 124
1, 26292, Note_on_c, 1, 85, 123
1, 26293, Note_on_c, 4, 58, 127
1, 26669, Note_off_c, 4, 64, 64
1, 26669, Note_off_c, 4, 58, 64
1, 26670, Note_off_c, 1, 85, 64
1, 26670, Note_off_c, 2, 73, 64
1, 26684, Note_on_c, 4, 65, 123
1, 26685, Note_on_c, 4, 56, 127
1, 26752, Note_on_c, 1, 84, 123
1, 26821, Note_on_c, 1, 82, 123
1, 26828, Note_off_c, 1, 84, 64
1, 26886, Note_on_c, 1, 80, 123
1, 26892, Note_off_c, 1, 82, 64
1, 26951, Note_on_c, 1, 79, 121
1, 26957, Note_off_c, 1, 80, 64
1, 27018, Note_on_c, 2, 77, 124
1, 27024, Note_off_c, 1, 79, 64
1, 27085, Note_on_c, 1, 79, 121
1, 27091, Note_off_c, 2, 77, 64
1, 27151, Note_on_c, 1, 80, 123
1, 27156, Note_off_c, 1, 79, 64
1, 27216, Note_on_c, 2, 75, 124
1, 27222, Note_off_c, 1, 80, 64
1, 27358, Note_off_c, 4, 56, 64
1, 27359, Note_off_c, 4, 65, 64
1, 27359, Note_on_c, 4, 67, 123
1, 27360, Note_on_c, 4, 58, 127
1, 27494, Note_off_c, 4, 67, 64
1, 27495, Note_on_c, 2, 68, 123
1, 27634, Note_off_c, 4, 58, 64
1, 27634, Note_off_c, 2, 75, 64
1, 27635, Note_on_c, 1, 79, 121
1, 27635, Note_on_c, 2, 74, 124
1, 27636, Note_on_c, 4, 59, 127
1, 27708, Note_on_c, 2, 77, 124
1, 27714, Note_off_c, 1, 79, 64
1, 27775, Note_off_c, 4, 59, 64
1, 27776, Note_off_c, 2, 74, 64
1, 27776, Note_off_c, 2, 68, 64
1, 27777, Note_on_c, 4, 67, 123
1, 27777, Note_on_c, 2, 75, 124
1, 27778, Note_on_c, 4, 60, 127
1, 27781, Note_off_c, 2, 77, 64
1, 27974, Note_off_c, 2, 75, 64
1, 27980, Note_on_c, 2, 75, 124
1, 27991, Note_off_c, 4, 67, 64
1, 28047, Note_on_c, 2, 74, 124
1, 28053, Note_off_c, 2, 75, 64
1, 28112, Note_on_c, 2, 73, 124
1, 28118, Note_off_c, 2, 74, 64
1, 28170, Note_off_c, 4, 60, 64
1, 28181, Note_on_c, 2, 72, 127
1, 28185, Note_off_c, 2, 73, 64
1, 28247, Note_on_c, 2, 71, 127
1, 28252, Note_off_c, 2, 72, 64
1, 28312, Note_on_c, 2, 70, 127
1, 28312, Note_on_c, 4, 51, 127
1, 28319, Note_off_c, 2, 71, 64
1, 28378, Note_on_c, 4, 55, 127
1, 28441, Note_off_c, 4, 51, 64
1, 28445, Note_on_c, 4, 51, 127
1, 28509, Note_off_c, 4, 55, 64
1, 28512, Note_on_c, 4, 55, 127
1, 28576, Note_off_c, 4, 51, 64
1, 28580, Note_off_c, 2, 70, 64
1, 28580, Note_on_c, 2, 71, 127
1, 28581, Note_on_c, 4, 59, 127
1, 28581, Note_on_c, 4, 49, 127
1, 28643, Note_off_c, 4, 55, 64
1, 28647, Note_on_c, 4, 53, 127
1, 28711, Note_off_c, 4, 49, 64
1, 28715, Note_on_c, 4, 49, 127
1, 28780, Note_off_c, 4, 53, 64
1, 28784, Note_on_c, 4, 53, 127
1, 28848, Note_off_c, 4, 49, 64
1, 28851, Note_off_c, 4, 59, 64
1, 28852, Note_off_c, 2, 71, 64
1, 28852, Note_on_c, 2, 72, 127
1, 28853, Note_on_c, 4, 60, 127
1, 28853, Note_on_c, 4, 48, 127
1, 28920, Note_off_c, 4, 53, 64
1, 28923, Note_on_c, 4, 52, 127
1, 28991, Note_off_c, 4, 52, 64
1, 28991, Note_off_c, 4, 48, 64
1, 28993, Note_off_c, 4, 60, 64
1, 28994, Note_off_c, 2, 72, 64
1, 28994, Note_on_c, 2, 73, 127
1, 28995, Note_on_c, 4, 52, 127
1, 28995, Note_on_c, 4, 61, 127
1, 28996, Note_on_c, 4, 46, 127
1, 29371, Note_off_c, 4, 52, 64
1, 29371, Note_off_c, 4, 46, 64
1, 29372, Note_off_c, 2, 73, 64
1, 29372, Note_off_c, 4, 61, 64
1, 29376, Note_on_c, 2, 72, 124
1, 29377, Note_on_c, 4, 48, 127
1, 29377, Note_on_c, 4, 53, 127
1, 29378, Note_on_c, 4, 44, 127
1, 29423, Note_off_c, 2, 72, 64
1, 29423, Note_on_c, 2, 77, 124
1, 29468, Note_on_c, 4, 67, 123
1, 29496, Note_off_c, 2, 77, 64
1, 29514, Note_off_c, 4, 67, 64
1, 29514, Note_on_c, 2, 68, 123
1, 29559, Note_off_c, 2, 68, 64
1, 29559, Note_on_c, 2, 72, 124
1, 29604, Note_on_c, 4, 64, 127
1, 29631, Note_off_c, 2, 72, 64
1, 29648, Note_off_c, 4, 64, 64
1, 29649, Note_on_c, 4, 65, 123
1, 29693, Note_off_c, 4, 65, 64
1, 29694, Note_on_c, 2, 68, 123
1, 29736, Note_on_c, 4, 59, 127
1, 29765, Note_off_c, 2, 68, 64
1, 29781, Note_off_c, 4, 59, 64
1, 29782, Note_on_c, 4, 60, 127
1, 29807, Note_off_c, 4, 53, 64
1, 29824, Note_off_c, 4, 60, 64
1, 29824, Note_on_c, 4, 65, 123
1, 29869, Note_on_c, 4, 55, 127
1, 29879, Note_off_c, 4, 48, 64
1, 29896, Note_off_c, 4, 65, 64
1, 29913, Note_off_c, 4, 55, 64
1, 29914, Note_on_c, 4, 41, 127
1, 29914, Note_on_c, 4, 56, 127
1, 29915, Note_on_c, 4, 29, 127
1, 29925, Note_off_c, 4, 44, 64
1, 29959, Note_off_c, 4, 56, 64
1, 29960, Note_on_c, 4, 60, 127
1, 30002, Note_on_c, 4, 52, 127
1, 30032, Note_off_c, 4, 60, 64
1, 30048, Note_off_c, 4, 52, 64
1, 30049, Note_on_c, 4, 53, 127
1, 30094, Note_off_c, 4, 53, 64
1, 30094, Note_on_c, 4, 56, 127
1, 30139, Note_on_c, 4, 47, 127
1, 30166, Note_off_c, 4, 56, 64
1, 30183, Note_off_c, 4, 47, 64
1, 30183, Note_on_c, 4, 48, 127
1, 30228, Note_off_c, 4, 48, 64
1, 30228, Note_on_c, 4, 53, 127
1, 30272, Note_on_c, 4, 43, 127
1, 30299, Note_off_c, 4, 53, 64
1, 30315, Note_off_c, 4, 43, 64
1, 30316, Note_on_c, 4, 44, 127
1, 30359, Note_off_c, 4, 44, 64
1, 30360, Note_on_c, 4, 48, 127
1, 30404, Note_on_c, 4, 40, 127
1, 30414, Note_off_c, 4, 41, 64
1, 30431, Note_off_c, 4, 48, 64
1, 30448, Note_off_c, 4, 40, 64
1, 30449, Note_on_c, 4, 41, 127
1, 30586, Note_off_c, 4, 29, 64
1, 30657, Note_off_c, 4, 41, 64
1, 30657, Note_on_c, 4, 36, 127
1, 30725, Note_on_c, 4, 44, 127
1, 30792, Note_off_c, 4, 36, 64
1, 30792, Note_on_c, 4, 41, 127
1, 30799, Note_off_c, 4, 44, 64
1, 30860, Note_on_c, 4, 48, 127
1, 30928, Note_off_c, 4, 41, 64
1, 30929, Note_on_c, 4, 44, 127
1, 30933, Note_off_c, 4, 48, 64
1, 30995, Note_on_c, 4, 53, 127
1, 31065, Note_off_c, 4, 44, 64
1, 31065, Note_on_c, 4, 48, 127
1, 31069, Note_off_c, 4, 53, 64
1, 31133, Note_on_c, 4, 56, 127
1, 31200, Note_off_c, 4, 48, 64
1, 31200, Note_on_c, 4, 53, 127
1, 31205, Note_off_c, 4, 56, 64
1, 31269, Note_on_c, 4, 60, 127
1, 31336, Note_off_c, 4, 53, 64
1, 31337, Note_on_c, 4, 56, 127
1, 31343, Note_off_c, 4, 60, 64
1, 31404, Note_on_c, 4, 65, 123
1, 31470, Note_off_c, 4, 56, 64
1, 31470, Note_on_c, 4, 60, 127
1, 31476, Note_off_c, 4, 65, 64
1, 31536, Note_on_c, 2, 68, 123
1, 31603, Note_off_c, 4, 60, 64
1, 31604, Note_on_c, 4, 65, 123
1, 31610, Note_off_c, 2, 68, 64
1, 31671, Note_on_c, 2, 72, 124
1, 31739, Note_off_c, 4, 65, 64
1, 31739, Note_on_c, 2, 68, 123
1, 31743, Note_off_c, 2, 72, 64
1, 31805, Note_on_c, 2, 77, 124
1, 31872, Note_off_c, 2, 68, 64
1, 31872, Note_on_c, 2, 72, 124
1, 31877, Note_off_c, 2, 77, 64
1, 31938, Note_on_c, 1, 80, 123
1, 32004, Note_off_c, 2, 72, 64
1, 32004, Note_on_c, 2, 77, 124
1, 32008, Note_off_c, 1, 80, 64
1, 32070, Note_on_c, 1, 84, 123
1, 32076, Note_off_c, 2, 77, 64
1, 32208, Note_on_c, 4, 56, 127
1, 32208, Note_on_c, 4, 60, 127
1, 32208, Note_on_c, 4, 65, 123
1, 32347, Note_off_c, 1, 84, 64
1, 32348, Note_on_c, 1, 87, 123
1, 32477, Note_off_c, 4, 60, 64
1, 32483, Note_off_c, 4, 65, 64
1, 32483, Note_off_c, 4, 56, 64
1, 32484, Note_on_c, 4, 66, 123
1, 32484, Note_on_c, 4, 60, 127
1, 32484, Note_on_c, 4, 57, 127
1, 32621, Note_off_c, 4, 57, 64
1, 32622, Note_off_c, 4, 60, 64
1, 32622, Note_off_c, 4, 66, 64
1, 32622, Note_off_c, 1, 87, 64
1, 32623, Note_on_c, 4, 63, 127
1, 32623, Note_on_c, 4, 67, 123
1, 32624, Note_on_c, 4, 58, 127
1, 32691, Note_on_c, 2, 70, 125
1, 32697, Note_off_c, 4, 67, 64
1, 32759, Note_on_c, 1, 82, 121
1, 32764, Note_off_c, 2, 70, 64
1, 32826, Note_on_c, 1, 81, 115
1, 32832, Note_off_c, 1, 82, 64
1, 32889, Note_on_c, 1, 80, 115
1, 32895, Note_off_c, 1, 81, 64
1, 32954, Note_on_c, 1, 79, 117
1, 32960, Note_off_c, 1, 80, 64
1, 33022, Note_on_c, 1, 78, 119
1, 33025, Note_off_c, 1, 79, 64
1, 33089, Note_on_c, 2, 77, 124
1, 33095, Note_off_c, 1, 78, 64
1, 33142, Note_off_c, 2, 77, 64
1, 33158, Note_on_c, 2, 77, 124
1, 33227, Note_on_c, 2, 75, 120
1, 33233, Note_off_c, 2, 77, 64
1, 33277, Note_off_c, 4, 58, 64
1, 33286, Note_off_c, 2, 75, 64
1, 33300, Note_on_c, 2, 75, 120
1, 33301, Note_on_c, 4, 58, 127
1, 33301, Note_on_c, 4, 67, 123
1, 33302, Note_off_c, 4, 63, 64
1, 33442, Note_off_c, 4, 67, 64
1, 33444, Note_on_c, 2, 68, 123
1, 33585, Note_off_c, 2, 75, 64
1, 33588, Note_on_c, 2, 74, 120
1, 33588, Note_on_c, 1, 79, 115
1, 33659, Note_on_c, 2, 77, 120
1, 33667, Note_off_c, 1, 79, 64
1, 33727, Note_off_c, 4, 58, 64
1, 33728, Note_off_c, 2, 74, 64
1, 33729, Note_off_c, 2, 68, 64
1, 33730, Note_on_c, 4, 63, 127
1, 33730, Note_on_c, 2, 75, 120
1, 33735, Note_off_c, 2, 77, 64
1, 33798, Note_on_c, 2, 70, 125
1, 33863, Note_off_c, 4, 63, 64
1, 33866, Note_on_c, 4, 67, 127
1, 33930, Note_off_c, 2, 70, 64
1, 33930, Note_off_c, 2, 75, 64
1, 33935, Note_on_c, 2, 75, 120
1, 33935, Note_on_c, 2, 70, 125
1, 33999, Note_off_c, 4, 67, 64
1, 34001, Note_on_c, 2, 76, 120
1, 34002, Note_on_c, 4, 62, 127
1, 34008, Note_off_c, 2, 75, 64
1, 34066, Note_off_c, 2, 70, 64
1, 34070, Note_on_c, 2, 70, 125
1, 34070, Note_on_c, 2, 77, 120
1, 34077, Note_off_c, 2, 76, 64
1, 34136, Note_off_c, 4, 62, 64
1, 34140, Note_on_c, 2, 68, 123
1, 34203, Note_off_c, 2, 70, 64
1, 34204, Note_off_c, 2, 77, 64
1, 34208, Note_on_c, 2, 77, 120
1, 34209, Note_on_c, 2, 70, 125
1, 34272, Note_off_c, 2, 68, 64
1, 34276, Note_on_c, 1, 78, 115
1, 34277, Note_on_c, 4, 63, 127
1, 34283, Note_off_c, 2, 77, 64
1, 34341, Note_off_c, 2, 70, 64
1, 34344, Note_on_c, 1, 79, 115
1, 34345, Note_on_c, 2, 70, 125
1, 34349, Note_off_c, 1, 78, 64
1, 34409, Note_off_c, 4, 63, 64
1, 34413, Note_on_c, 4, 67, 127
1, 34478, Note_off_c, 2, 70, 64
1, 34478, Note_off_c, 1, 79, 64
1, 34483, Note_on_c, 2, 70, 125
1, 34483, Note_on_c, 1, 79, 115
1, 34547, Note_off_c, 4, 67, 64
1, 34551, Note_on_c, 4, 53, 127
1, 34551, Note_on_c, 1, 82, 117
1, 34558, Note_off_c, 1, 79, 64
1, 34617, Note_off_c, 2, 70, 64
1, 34621, Note_on_c, 1, 80, 117
1, 34621, Note_on_c, 4, 62, 125
1, 34628, Note_off_c, 1, 82, 64
1, 34685, Note_off_c, 4, 53, 64
1, 34689, Note_on_c, 4, 56, 127
1, 34752, Note_off_c, 4, 62, 64
1, 34753, Note_off_c, 1, 80, 64
1, 34757, Note_on_c, 1, 80, 117
1, 34758, Note_on_c, 4, 62, 125
1, 34820, Note_off_c, 4, 56, 64
1, 34824, Note_on_c, 1, 81, 117
1, 34824, Note_on_c, 4, 55, 127
1, 34828, Note_off_c, 1, 80, 64
1, 34890, Note_off_c, 4, 62, 64
1, 34894, Note_on_c, 1, 82, 117
1, 34894, Note_on_c, 4, 63, 125
1, 34900, Note_off_c, 1, 81, 64
1, 34958, Note_off_c, 4, 55, 64
1, 34962, Note_on_c, 4, 58, 127
1, 35027, Note_off_c, 4, 63, 64
1, 35028, Note_off_c, 1, 82, 64
1, 35032, Note_on_c, 4, 63, 125
1, 35032, Note_on_c, 1, 82, 117
1, 35096, Note_off_c, 4, 58, 64
1, 35100, Note_on_c, 1, 83, 117
1, 35101, Note_on_c, 4, 56, 127
1, 35107, Note_off_c, 1, 82, 64
1, 35166, Note_off_c, 4, 63, 64
1, 35171, Note_on_c, 4, 63, 125
1, 35171, Note_on_c, 1, 84, 117
1, 35175, Note_off_c, 1, 83, 64
1, 35234, Note_off_c, 4, 56, 64
1, 35239, Note_on_c, 4, 60, 127
1, 35304, Note_off_c, 1, 84, 64
1, 35304, Note_off_c, 4, 63, 64
1, 35309, Note_on_c, 1, 87, 117
1, 35309, Note_on_c, 4, 63, 125
1, 35369, Note_off_c, 1, 87, 64
1, 35371, Note_off_c, 4, 60, 64
1, 35375, Note_on_c, 1, 87, 121
1, 35376, Note_on_c, 4, 58, 127
1, 35439, Note_off_c, 4, 63, 64
1, 35443, Note_on_c, 2, 75, 124
1, 35444, Note_on_c, 4, 67, 127
1, 35449, Note_off_c, 1, 87, 64
1, 35508, Note_off_c, 2, 75, 64
1, 35509, Note_off_c, 4, 58, 64
1, 35513, Note_on_c, 2, 75, 124
1, 35514, Note_on_c, 4, 63, 125
1, 35578, Note_off_c, 4, 67, 64
1, 35583, Note_on_c, 4, 67, 127
1, 35647, Note_off_c, 4, 63, 64
1, 35652, Note_on_c, 4, 58, 127
1, 35716, Note_off_c, 4, 67, 64
1, 35721, Note_on_c, 2, 68, 123
1, 35786, Note_off_c, 4, 58, 64
1, 35790, Note_off_c, 2, 75, 64
1, 35790, Note_on_c, 1, 79, 121
1, 35791, Note_on_c, 4, 62, 125
1, 35858, Note_off_c, 2, 68, 64
1, 35862, Note_on_c, 2, 77, 124
1, 35862, Note_on_c, 2, 68, 123
1, 35868, Note_off_c, 1, 79, 64
1, 35924, Note_off_c, 4, 62, 64
1, 35928, Note_on_c, 4, 51, 127
1, 35928, Note_on_c, 2, 75, 124
1, 35933, Note_off_c, 2, 77, 64
1, 35973, Note_off_c, 2, 68, 64
1, 35983, Note_off_c, 2, 75, 64
1, 35996, Note_on_c, 2, 75, 124
1, 35997, Note_on_c, 4, 58, 127
1, 36049, Note_off_c, 2, 75, 64
1, 36060, Note_off_c, 4, 51, 64
1, 36064, Note_on_c, 2, 75, 124
1, 36065, Note_on_c, 4, 55, 127
1, 36069, Note_off_c, 4, 58, 64
1, 36081, Note_on_c, 2, 77, 124
1, 36083, Note_off_c, 2, 75, 64
1, 36098, Note_on_c, 2, 75, 124
1, 36102, Note_off_c, 2, 77, 64
1, 36117, Note_on_c, 2, 77, 124
1, 36119, Note_off_c, 2, 75, 64
1, 36134, Note_on_c, 2, 74, 124
1, 36135, Note_on_c, 4, 58, 127
1, 36137, Note_off_c, 2, 77, 64
1, 36168, Note_on_c, 2, 75, 124
1, 36174, Note_off_c, 2, 74, 64
1, 36199, Note_off_c, 4, 55, 64
1, 36203, Note_on_c, 4, 50, 127
1, 36203, Note_on_c, 2, 77, 124
1, 36209, Note_off_c, 2, 75, 64
1, 36210, Note_off_c, 4, 58, 64
1, 36258, Note_off_c, 2, 77, 64
1, 36272, Note_on_c, 2, 77, 124
1, 36272, Note_on_c, 4, 58, 127
1, 36324, Note_off_c, 2, 77, 64
1, 36336, Note_off_c, 4, 50, 64
1, 36340, Note_on_c, 2, 77, 124
1, 36340, Note_on_c, 4, 56, 127
1, 36345, Note_off_c, 4, 58, 64
1, 36356, Note_on_c, 1, 79, 121
1, 36358, Note_off_c, 2, 77, 64
1, 36373, Note_on_c, 2, 77, 124
1, 36375, Note_off_c, 1, 79, 64
1, 36391, Note_on_c, 1, 79, 121
1, 36393, Note_off_c, 2, 77, 64
1, 36408, Note_on_c, 4, 58, 127
1, 36408, Note_on_c, 2, 75, 124
1, 36411, Note_off_c, 1, 79, 64
1, 36444, Note_on_c, 2, 77, 124
1, 36447, Note_off_c, 2, 75, 64
1, 36472, Note_off_c, 4, 56, 64
1, 36476, Note_on_c, 1, 79, 121
1, 36477, Note_on_c, 4, 51, 127
1, 36481, Note_off_c, 2, 77, 64
1, 36523, Note_off_c, 4, 58, 64
1, 36533, Note_off_c, 1, 79, 64
1, 36546, Note_on_c, 1, 79, 121
1, 36547, Note_on_c, 4, 58, 127
1, 36601, Note_off_c, 1, 79, 64
1, 36611, Note_off_c, 4, 51, 64
1, 36614, Note_on_c, 1, 79, 121
1, 36615, Note_on_c, 4, 55, 127
1, 36621, Note_off_c, 4, 58, 64
1, 36633, Note_on_c, 1, 80, 123
1, 36635, Note_off_c, 1, 79, 64
1, 36650, Note_on_c, 1, 79, 121
1, 36654, Note_off_c, 1, 80, 64
1, 36669, Note_on_c, 1, 80, 123
1, 36671, Note_off_c, 1, 79, 64
1, 36686, Note_on_c, 2, 77, 124
1, 36687, Note_on_c, 4, 58, 127
1, 36693, Note_off_c, 1, 80, 64
1, 36722, Note_on_c, 1, 79, 121
1, 36726, Note_off_c, 2, 77, 64
1, 36753, Note_off_c, 4, 55, 64
1, 36756, Note_on_c, 1, 80, 123
1, 36757, Note_on_c, 4, 53, 127
1, 36761, Note_off_c, 1, 79, 64
1, 36786, Note_off_c, 4, 58, 64
1, 36811, Note_off_c, 1, 80, 64
1, 36825, Note_on_c, 1, 80, 123
1, 36825, Note_on_c, 4, 62, 125
1, 36877, Note_off_c, 1, 80, 64
1, 36889, Note_off_c, 4, 53, 64
1, 36893, Note_on_c, 4, 58, 127
1, 36893, Note_on_c, 1, 80, 123
1, 36898, Note_off_c, 4, 62, 64
1, 36909, Note_on_c, 1, 82, 123
1, 36919, Note_off_c, 1, 80, 64
1, 36929, Note_on_c, 1, 80, 123
1, 36935, Note_off_c, 1, 82, 64
1, 36945, Note_on_c, 1, 82, 123
1, 36954, Note_off_c, 1, 80, 64
1, 36964, Note_on_c, 1, 79, 121
1, 36964, Note_on_c, 4, 62, 125
1, 36969, Note_off_c, 4, 58, 64
1, 36972, Note_off_c, 1, 82, 64
1, 36982, Note_on_c, 1, 80, 123
1, 36984, Note_off_c, 1, 79, 64
1, 37032, Note_on_c, 4, 63, 127
1, 37032, Note_on_c, 1, 82, 123
1, 37033, Note_on_c, 4, 58, 127
1, 37034, Note_on_c, 4, 55, 127
1, 37040, Note_off_c, 1, 80, 64
1, 37040, Note_off_c, 4, 62, 64
1, 37081, Note_on_c, 1, 84, 123
1, 37087, Note_off_c, 1, 82, 64
1, 37129, Note_on_c, 1, 86, 123
1, 37135, Note_off_c, 1, 84, 64
1, 37174, Note_on_c, 1, 87, 123
1, 37179, Note_off_c, 1, 86, 64
1, 37220, Note_on_c, 1, 86, 123
1, 37225, Note_off_c, 1, 87, 64
1, 37261, Note_on_c, 1, 84, 123
1, 37268, Note_off_c, 1, 86, 64
1, 37308, Note_on_c, 1, 82, 123
1, 37312, Note_off_c, 1, 84, 64
1, 37350, Note_on_c, 1, 80, 123
1, 37356, Note_off_c, 1, 82, 64
1, 37397, Note_on_c, 1, 79, 121
1, 37403, Note_off_c, 1, 80, 64
1, 37444, Note_on_c, 2, 77, 124
1, 37450, Note_off_c, 1, 79, 64
1, 37490, Note_on_c, 2, 75, 124
1, 37496, Note_off_c, 2, 77, 64
1, 37535, Note_on_c, 2, 74, 124
1, 37541, Note_off_c, 2, 75, 64
1, 37582, Note_on_c, 2, 72, 124
1, 37587, Note_off_c, 2, 74, 64
1, 37594, Note_off_c, 4, 55, 64
1, 37595, Note_off_c, 4, 63, 64
1, 37595, Note_off_c, 4, 58, 64
1, 37720, Note_off_c, 2, 72, 64
1, 37720, Note_on_c, 1, 84, 123
1, 37721, Note_on_c, 1, 80, 123
1, 37721, Note_on_c, 2, 75, 124
1, 37722, Note_on_c, 4, 56, 127
1, 37855, Note_off_c, 2, 75, 64
1, 37859, Note_off_c, 4, 56, 64
1, 37860, Note_off_c, 1, 80, 64
1, 37860, Note_off_c, 1, 84, 64
1, 37860, Note_on_c, 1, 82, 123
1, 37861, Note_on_c, 4, 58, 127
1, 37861, Note_on_c, 2, 75, 124
1, 37861, Note_on_c, 1, 79, 121
1, 37996, Note_off_c, 4, 58, 64
1, 37997, Note_off_c, 1, 79, 64
1, 37997, Note_off_c, 2, 75, 64
1, 37998, Note_off_c, 1, 82, 64
1, 37998, Note_on_c, 2, 74, 124
1, 37999, Note_on_c, 2, 68, 123
1, 37999, Note_on_c, 4, 65, 123
1, 38000, Note_on_c, 4, 46, 127
1, 38136, Note_off_c, 4, 46, 64
1, 38137, Note_off_c, 4, 65, 64
1, 38137, Note_off_c, 2, 68, 64
1, 38138, Note_off_c, 2, 74, 64
1, 38138, Note_on_c, 2, 75, 124
1, 38139, Note_on_c, 4, 51, 127
1, 38139, Note_on_c, 4, 67, 123
1, 38274, Note_off_c, 2, 75, 64
1, 38274, Note_off_c, 4, 67, 64
1, 38275, Note_on_c, 1, 82, 123
1, 38309, Note_on_c, 1, 80, 123
1, 38327, Note_off_c, 1, 82, 64
1, 38376, Note_on_c, 1, 79, 121
1, 38382, Note_off_c, 1, 80, 64
1, 38409, Note_on_c, 2, 77, 124
1, 38426, Note_off_c, 1, 79, 64
1, 38444, Note_on_c, 2, 75, 124
1, 38461, Note_off_c, 2, 77, 64
1, 38513, Note_on_c, 2, 74, 124
1, 38519, Note_off_c, 2, 75, 64
1, 38547, Note_off_c, 4, 51, 64
1, 38548, Note_on_c, 4, 67, 123
1, 38548, Note_on_c, 2, 75, 124
1, 38549, Note_on_c, 4, 63, 127
1, 38565, Note_off_c, 2, 74, 64
1, 38584, Note_on_c, 2, 73, 124
1, 38601, Note_off_c, 2, 75, 64
1, 38653, Note_on_c, 2, 71, 125
1, 38659, Note_off_c, 2, 73, 64
1, 38684, Note_off_c, 4, 63, 64
1, 38688, Note_off_c, 4, 67, 64
1, 38688, Note_on_c, 2, 68, 123
1, 38688, Note_on_c, 2, 72, 124
1, 38689, Note_on_c, 4, 63, 127
1, 38705, Note_off_c, 2, 71, 64
1, 38826, Note_off_c, 2, 72, 64
1, 38826, Note_on_c, 1, 84, 123
1, 38861, Note_on_c, 1, 82, 123
1, 38879, Note_off_c, 1, 84, 64
1, 38928, Note_on_c, 1, 80, 123
1, 38933, Note_off_c, 1, 82, 64
1, 38961, Note_off_c, 2, 68, 64
1, 38962, Note_on_c, 1, 79, 121
1, 38977, Note_off_c, 1, 80, 64
1, 38995, Note_on_c, 2, 77, 124
1, 39012, Note_off_c, 1, 79, 64
1, 39064, Note_on_c, 2, 75, 124
1, 39069, Note_off_c, 2, 77, 64
1, 39094, Note_off_c, 4, 63, 64
1, 39099, Note_on_c, 2, 74, 124
1, 39100, Note_on_c, 4, 65, 123
1, 39100, Note_on_c, 2, 68, 123
1, 39101, Note_on_c, 4, 63, 127
1, 39117, Note_off_c, 2, 75, 64
1, 39133, Note_on_c, 1, 80, 123
1, 39173, Note_off_c, 2, 74, 64
1, 39204, Note_on_c, 2, 77, 124
1, 39210, Note_off_c, 1, 80, 64
1, 39233, Note_off_c, 4, 63, 64
1, 39239, Note_off_c, 2, 68, 64
1, 39239, Note_off_c, 4, 65, 64
1, 39240, Note_on_c, 4, 63, 127
1, 39240, Note_on_c, 4, 67, 123
1, 39240, Note_on_c, 2, 75, 124
1, 39256, Note_off_c, 2, 77, 64
1, 39377, Note_off_c, 2, 75, 64
1, 39377, Note_off_c, 4, 67, 64
1, 39378, Note_on_c, 2, 70, 125
1, 39410, Note_on_c, 2, 68, 127
1, 39428, Note_off_c, 2, 70, 64
1, 39445, Note_off_c, 4, 63, 64
1, 39480, Note_on_c, 3, 67, 127
1, 39483, Note_off_c, 2, 68, 64
1, 39513, Note_on_c, 3, 65, 127
1, 39530, Note_off_c, 3, 67, 64
1, 39548, Note_on_c, 3, 63, 127
1, 39564, Note_off_c, 3, 65, 64
1, 39617, Note_on_c, 3, 62, 127
1, 39623, Note_off_c, 3, 63, 64
1, 39651, Note_on_c, 3, 63, 127
1, 39652, Note_on_c, 4, 55, 127
1, 39652, Note_on_c, 4, 51, 127
1, 39670, Note_off_c, 3, 62, 64
1, 39689, Note_on_c, 3, 61, 127
1, 39706, Note_off_c, 3, 63, 64
1, 39758, Note_on_c, 3, 59, 127
1, 39764, Note_off_c, 3, 61, 64
1, 39789, Note_off_c, 4, 51, 64
1, 39793, Note_off_c, 4, 55, 64
1, 39793, Note_on_c, 4, 56, 127
1, 39793, Note_on_c, 3, 60, 127
1, 39794, Note_on_c, 4, 51, 127
1, 39810, Note_off_c, 3, 59, 64
1, 39931, Note_off_c, 3, 60, 64
1, 39932, Note_on_c, 2, 72, 127
1, 39967, Note_on_c, 2, 70, 127
1, 39982, Note_off_c, 2, 72, 64
1, 40032, Note_on_c, 2, 68, 127
1, 40038, Note_off_c, 2, 70, 64
1, 40067, Note_off_c, 4, 56, 64
1, 40067, Note_on_c, 4, 67, 127
1, 40083, Note_off_c, 2, 68, 64
1, 40100, Note_on_c, 3, 65, 127
1, 40117, Note_off_c, 4, 67, 64
1, 40169, Note_on_c, 3, 63, 127
1, 40175, Note_off_c, 3, 65, 64
1, 40198, Note_off_c, 4, 51, 64
1, 40201, Note_off_c, 3, 63, 64
1, 40206, Note_on_c, 4, 56, 127
1, 40206, Note_on_c, 3, 62, 127
1, 40207, Note_on_c, 4, 51, 127
1, 40207, Note_on_c, 4, 53, 127
1, 40240, Note_on_c, 2, 68, 127
1, 40244, Note_off_c, 3, 62, 64
1, 40300, Note_off_c, 2, 68, 64
1, 40311, Note_on_c, 3, 65, 127
1, 40344, Note_off_c, 4, 51, 64
1, 40346, Note_off_c, 3, 65, 64
1, 40348, Note_off_c, 4, 56, 64
1, 40348, Note_off_c, 4, 53, 64
1, 40349, Note_on_c, 4, 55, 127
1, 40349, Note_on_c, 3, 63, 127
1, 40350, Note_on_c, 4, 51, 127
1, 40621, Note_off_c, 3, 63, 64
1, 40622, Note_on_c, 4, 67, 123
1, 40763, Note_off_c, 4, 67, 64
1, 40763, Note_on_c, 2, 70, 127
1, 40900, Note_off_c, 4, 51, 64
1, 40906, Note_off_c, 2, 70, 64
1, 40906, Note_on_c, 2, 75, 127
1, 40907, Note_on_c, 4, 39, 127
1, 40907, Note_on_c, 4, 51, 127
1, 40917, Note_off_c, 4, 55, 64
1, 41041, Note_off_c, 2, 75, 64
1, 41041, Note_on_c, 1, 79, 125
1, 41178, Note_off_c, 4, 39, 64
1, 41179, Note_off_c, 4, 51, 64
1, 41179, Note_on_c, 4, 55, 127
1, 41180, Note_on_c, 4, 43, 127
1, 41274, Note_off_c, 1, 79, 64
1, 41278, Note_on_c, 1, 79, 121
1, 41305, Note_off_c, 1, 79, 64
1, 41313, Note_off_c, 4, 55, 64
1, 41313, Note_off_c, 4, 43, 64
1, 41314, Note_on_c, 1, 79, 121
1, 41314, Note_on_c, 4, 58, 127
1, 41315, Note_on_c, 4, 46, 127
1, 41328, Note_off_c, 1, 79, 64
1, 41334, Note_on_c, 1, 80, 123
1, 41351, Note_off_c, 1, 80, 64
1, 41357, Note_on_c, 1, 79, 121
1, 41372, Note_off_c, 1, 79, 64
1, 41378, Note_on_c, 1, 80, 123
1, 41397, Note_on_c, 2, 77, 124
1, 41401, Note_off_c, 1, 80, 64
1, 41430, Note_on_c, 1, 79, 121
1, 41441, Note_off_c, 2, 77, 64
1, 41464, Note_off_c, 4, 46, 64
1, 41465, Note_off_c, 4, 58, 64
1, 41465, Note_on_c, 1, 82, 123
1, 41466, Note_on_c, 4, 51, 127
1, 41466, Note_on_c, 3, 63, 127
1, 41476, Note_off_c, 1, 79, 64
1, 41599, Note_off_c, 3, 63, 64
1, 41599, Note_off_c, 4, 51, 64
1, 41600, Note_off_c, 1, 82, 64
1, 41600, Note_on_c, 2, 75, 124
1, 41601, Note_on_c, 4, 55, 127
1, 41601, Note_on_c, 4, 67, 123
1, 41730, Note_off_c, 2, 75, 64
1, 41734, Note_on_c, 2, 75, 124
1, 41874, Note_off_c, 2, 75, 64
1, 41879, Note_on_c, 2, 75, 124
1, 42011, Note_off_c, 4, 55, 64
1, 42017, Note_off_c, 4, 67, 64
1, 42017, Note_off_c, 2, 75, 64
1, 42017, Note_on_c, 1, 80, 123
1, 42018, Note_on_c, 4, 62, 127
1, 42018, Note_on_c, 4, 65, 123
1, 42019, Note_on_c, 4, 55, 127
1, 42160, Note_off_c, 1, 80, 64
1, 42160, Note_on_c, 2, 71, 125
1, 42299, Note_off_c, 2, 71, 64
1, 42303, Note_on_c, 2, 71, 125
1, 42579, Note_off_c, 2, 71, 64
1, 42580, Note_on_c, 4, 48, 127
1, 42580, Note_on_c, 4, 60, 127
1, 42581, Note_off_c, 4, 62, 64
1, 42581, Note_on_c, 4, 36, 127
1, 42582, Note_off_c, 4, 65, 64
1, 42582, Note_off_c, 4, 55, 64
1, 42859, Note_off_c, 4, 48, 64
1, 42859, Note_off_c, 4, 36, 64
1, 42860, Note_off_c, 4, 60, 64
1, 42860, Note_on_c, 4, 63, 127
1, 42861, Note_on_c, 4, 39, 127
1, 42861, Note_on_c, 4, 51, 127
1, 43000, Note_off_c, 4, 63, 64
1, 43000, Note_off_c, 4, 51, 64
1, 43000, Note_off_c, 4, 39, 64
1, 43001, Note_on_c, 4, 67, 127
1, 43002, Note_on_c, 4, 55, 127
1, 43002, Note_on_c, 4, 43, 127
1, 43141, Note_off_c, 4, 43, 64
1, 43141, Note_off_c, 4, 55, 64
1, 43142, Note_off_c, 4, 67, 64
1, 43142, Note_on_c, 2, 72, 127
1, 43143, Note_on_c, 4, 60, 127
1, 43282, Note_off_c, 4, 60, 64
1, 43283, Note_off_c, 2, 72, 64
1, 43283, Note_on_c, 2, 75, 127
1, 43284, Note_on_c, 4, 63, 127
1, 43489, Note_off_c, 2, 75, 64
1, 43524, Note_on_c, 2, 75, 121
1, 43555, Note_off_c, 2, 75, 64
1, 43562, Note_on_c, 2, 75, 121
1, 43584, Note_on_c, 2, 77, 121
1, 43585, Note_off_c, 2, 75, 64
1, 43605, Note_on_c, 2, 75, 121
1, 43607, Note_off_c, 2, 77, 64
1, 43624, Note_on_c, 2, 77, 121
1, 43628, Note_off_c, 2, 75, 64
1, 43645, Note_on_c, 2, 74, 121
1, 43649, Note_off_c, 2, 77, 64
1, 43676, Note_off_c, 2, 74, 64
1, 43683, Note_on_c, 2, 75, 121
1, 43720, Note_on_c, 1, 79, 118
1, 43724, Note_off_c, 2, 75, 64
1, 43854, Note_off_c, 4, 63, 64
1, 43860, Note_off_c, 1, 79, 64
1, 43860, Note_on_c, 2, 72, 124
1, 43861, Note_on_c, 4, 63, 127
1, 43861, Note_on_c, 4, 67, 123
1, 43994, Note_off_c, 4, 63, 64
1, 43995, Note_off_c, 2, 72, 64
1, 43995, Note_off_c, 4, 67, 64
1, 43999, Note_on_c, 2, 72, 124
1, 44000, Note_on_c, 4, 67, 123
1, 44000, Note_on_c, 4, 63, 127
1, 44131, Note_off_c, 4, 63, 64
1, 44131, Note_off_c, 4, 67, 64
1, 44132, Note_off_c, 2, 72, 64
1, 44134, Note_on_c, 4, 67, 123
1, 44134, Note_on_c, 2, 72, 124
1, 44135, Note_on_c, 4, 63, 127
1, 44275, Note_on_c, 1, 80, 123
1, 44279, Note_off_c, 2, 72, 64
1, 44279, Note_off_c, 4, 67, 64
1, 44412, Note_off_c, 1, 80, 64
1, 44412, Note_off_c, 4, 63, 64
1, 44413, Note_on_c, 2, 71, 125
1, 44413, Note_on_c, 2, 68, 123
1, 44414, Note_on_c, 4, 65, 123
1, 44414, Note_on_c, 4, 62, 127
1, 44548, Note_off_c, 4, 62, 64
1, 44548, Note_off_c, 4, 65, 64
1, 44549, Note_off_c, 2, 68, 64
1, 44549, Note_off_c, 2, 71, 64
1, 44552, Note_on_c, 2, 68, 123
1, 44552, Note_on_c, 2, 71, 125
1, 44553, Note_on_c, 4, 62, 127
1, 44553, Note_on_c, 4, 65, 123
1, 44834, Note_off_c, 4, 65, 64
1, 44834, Note_off_c, 4, 62, 64
1, 44835, Note_off_c, 2, 71, 64
1, 44835, Note_off_c, 2, 68, 64
1, 44835, Note_on_c, 4, 55, 127
1, 44836, Note_on_c, 4, 31, 127
1, 44836, Note_on_c, 4, 43, 127
1, 45110, Note_off_c, 4, 31, 64
1, 45111, Note_off_c, 4, 55, 64
1, 45111, Note_off_c, 4, 43, 64
1, 45112, Note_on_c, 4, 47, 127
1, 45112, Note_on_c, 4, 59, 127
1, 45113, Note_on_c, 4, 35, 127
1, 45250, Note_off_c, 4, 47, 64
1, 45250, Note_off_c, 4, 35, 64
1, 45251, Note_off_c, 4, 59, 64
1, 45251, Note_on_c, 4, 62, 127
1, 45252, Note_on_c, 4, 38, 127
1, 45252, Note_on_c, 4, 50, 127
1, 45390, Note_off_c, 4, 38, 64
1, 45391, Note_off_c, 4, 50, 64
1, 45392, Note_off_c, 4, 62, 64
1, 45392, Note_on_c, 4, 67, 123
1, 45392, Note_on_c, 4, 55, 127
1, 45393, Note_on_c, 4, 43, 127
1, 45525, Note_off_c, 4, 43, 64
1, 45525, Note_off_c, 4, 55, 64
1, 45525, Note_off_c, 4, 67, 64
1, 45526, Note_on_c, 4, 47, 127
1, 45526, Note_on_c, 4, 59, 127
1, 45526, Note_on_c, 2, 71, 125
1, 45731, Note_off_c, 2, 71, 64
1, 45765, Note_on_c, 2, 74, 121
1, 45792, Note_off_c, 2, 74, 64
1, 45802, Note_off_c, 4, 59, 64
1, 45802, Note_on_c, 2, 74, 121
1, 45814, Note_off_c, 2, 74, 64
1, 45818, Note_on_c, 2, 75, 121
1, 45833, Note_off_c, 2, 75, 64
1, 45840, Note_on_c, 2, 74, 121
1, 45853, Note_off_c, 2, 74, 64
1, 45857, Note_on_c, 2, 75, 121
1, 45878, Note_on_c, 2, 72, 121
1, 45880, Note_off_c, 2, 75, 64
1, 45909, Note_off_c, 2, 72, 64
1, 45915, Note_on_c, 2, 74, 121
1, 45942, Note_off_c, 2, 74, 64
1, 45949, Note_off_c, 4, 47, 64
1, 45950, Note_on_c, 2, 77, 121
1, 46088, Note_off_c, 2, 77, 64
1, 46089, Note_on_c, 2, 71, 125
1, 46090, Note_on_c, 2, 68, 123
1, 46090, Note_on_c, 4, 65, 123
1, 46091, Note_on_c, 4, 62, 127
1, 46220, Note_off_c, 4, 62, 64
1, 46221, Note_off_c, 4, 65, 64
1, 46221, Note_off_c, 2, 68, 64
1, 46222, Note_off_c, 2, 71, 64
1, 46224, Note_on_c, 2, 68, 123
1, 46224, Note_on_c, 2, 71, 125
1, 46225, Note_on_c, 4, 62, 127
1, 46225, Note_on_c, 4, 65, 123
1, 46356, Note_off_c, 4, 62, 64
1, 46357, Note_off_c, 2, 68, 64
1, 46357, Note_off_c, 4, 65, 64
1, 46358, Note_off_c, 2, 71, 64
1, 46361, Note_on_c, 2, 71, 125
1, 46361, Note_on_c, 2, 68, 123
1, 46361, Note_on_c, 4, 65, 123
1, 46362, Note_on_c, 4, 62, 127
1, 46502, Note_on_c, 1, 79, 121
1, 46503, Note_off_c, 4, 62, 64
1, 46505, Note_off_c, 4, 65, 64
1, 46505, Note_off_c, 2, 68, 64
1, 46506, Note_off_c, 2, 71, 64
1, 46639, Note_off_c, 1, 79, 64
1, 46639, Note_on_c, 2, 72, 124
1, 46640, Note_on_c, 4, 67, 123
1, 46640, Note_on_c, 4, 63, 127
1, 46773, Note_off_c, 4, 63, 64
1, 46774, Note_off_c, 4, 67, 64
1, 46774, Note_off_c, 2, 72, 64
1, 46776, Note_on_c, 4, 67, 123
1, 46776, Note_on_c, 2, 72, 124
1, 46777, Note_on_c, 4, 63, 127
1, 47047, Note_off_c, 4, 63, 64
1, 47048, Note_off_c, 2, 72, 64
1, 47048, Note_off_c, 4, 67, 64
1, 47054, Note_on_c, 4, 67, 123
1, 47054, Note_on_c, 4, 43, 127
1, 47124, Note_on_c, 4, 55, 127
1, 47191, Note_off_c, 4, 43, 64
1, 47195, Note_on_c, 4, 43, 127
1, 47260, Note_off_c, 4, 55, 64
1, 47264, Note_on_c, 4, 55, 127
1, 47330, Note_off_c, 4, 43, 64
1, 47334, Note_on_c, 4, 43, 127
1, 47401, Note_off_c, 4, 55, 64
1, 47407, Note_on_c, 4, 55, 127
1, 47472, Note_off_c, 4, 67, 64
1, 47474, Note_off_c, 4, 43, 64
1, 47478, Note_on_c, 0, 75, 124
1, 47479, Note_on_c, 4, 43, 127
1, 47479, Note_on_c, 4, 67, 123
1, 47544, Note_off_c, 4, 55, 64
1, 47550, Note_on_c, 4, 55, 127
1, 47616, Note_off_c, 4, 43, 64
1, 47619, Note_off_c, 4, 67, 64
1, 47620, Note_on_c, 4, 66, 123
1, 47620, Note_on_c, 4, 43, 127
1, 47686, Note_off_c, 4, 55, 64
1, 47689, Note_on_c, 4, 55, 127
1, 47755, Note_off_c, 4, 43, 64
1, 47759, Note_off_c, 4, 66, 64
1, 47759, Note_off_c, 0, 75, 64
1, 47760, Note_on_c, 0, 74, 124
1, 47760, Note_on_c, 4, 65, 123
1, 47760, Note_on_c, 4, 43, 127
1, 47824, Note_off_c, 4, 55, 64
1, 47828, Note_on_c, 4, 55, 127
1, 47893, Note_off_c, 4, 43, 64
1, 47897, Note_off_c, 4, 65, 64
1, 47897, Note_on_c, 4, 64, 127
1, 47898, Note_on_c, 4, 43, 127
1, 47960, Note_off_c, 4, 55, 64
1, 47964, Note_on_c, 4, 55, 127
1, 48028, Note_off_c, 4, 43, 64
1, 48032, Note_off_c, 4, 64, 64
1, 48033, Note_off_c, 0, 74, 64
1, 48033, Note_on_c, 0, 72, 124
1, 48034, Note_on_c, 4, 63, 127
1, 48034, Note_on_c, 4, 43, 127
1, 48096, Note_off_c, 4, 55, 64
1, 48101, Note_on_c, 4, 55, 127
1, 48165, Note_off_c, 4, 43, 64
1, 48168, Note_off_c, 4, 63, 64
1, 48169, Note_on_c, 4, 62, 127
1, 48169, Note_on_c, 4, 43, 127
1, 48233, Note_off_c, 4, 55, 64
1, 48237, Note_on_c, 4, 55, 127
1, 48302, Note_off_c, 4, 43, 64
1, 48308, Note_off_c, 0, 72, 64
1, 48308, Note_on_c, 0, 71, 125
1, 48309, Note_on_c, 4, 43, 127
1, 48372, Note_off_c, 4, 55, 64
1, 48376, Note_on_c, 4, 55, 127
1, 48441, Note_off_c, 4, 43, 64
1, 48445, Note_on_c, 4, 43, 127
1, 48508, Note_off_c, 4, 55, 64
1, 48512, Note_on_c, 4, 55, 127
1, 48577, Note_off_c, 4, 43, 64
1, 48582, Note_on_c, 1, 79, 121
1, 48582, Note_on_c, 2, 75, 124
1, 48583, Note_on_c, 4, 43, 127
1, 48645, Note_off_c, 4, 55, 64
1, 48648, Note_on_c, 4, 55, 127
1, 48679, Note_off_c, 0, 71, 64
1, 48712, Note_off_c, 4, 43, 64
1, 48712, Note_off_c, 2, 75, 64
1, 48717, Note_off_c, 1, 79, 64
1, 48717, Note_off_c, 4, 62, 64
1, 48718, Note_on_c, 2, 75, 124
1, 48718, Note_on_c, 1, 78, 119
1, 48719, Note_on_c, 4, 43, 127
1, 48782, Note_off_c, 4, 55, 64
1, 48786, Note_on_c, 4, 55, 127
1, 48848, Note_off_c, 4, 43, 64
1, 48852, Note_off_c, 1, 78, 64
1, 48852, Note_off_c, 2, 75, 64
1, 48853, Note_on_c, 2, 74, 124
1, 48853, Note_on_c, 2, 77, 124
1, 48854, Note_on_c, 4, 43, 127
1, 48917, Note_off_c, 4, 55, 64
1, 48921, Note_on_c, 4, 55, 127
1, 48983, Note_off_c, 4, 43, 64
1, 48986, Note_off_c, 2, 77, 64
1, 48987, Note_on_c, 2, 76, 124
1, 48987, Note_on_c, 4, 43, 127
1, 49049, Note_off_c, 4, 55, 64
1, 49053, Note_on_c, 4, 55, 127
1, 49116, Note_off_c, 4, 43, 64
1, 49120, Note_off_c, 2, 76, 64
1, 49120, Note_off_c, 2, 74, 64
1, 49121, Note_on_c, 2, 72, 124
1, 49121, Note_on_c, 2, 75, 124
1, 49122, Note_on_c, 4, 43, 127
1, 49184, Note_off_c, 4, 55, 64
1, 49188, Note_on_c, 4, 55, 127
1, 49251, Note_off_c, 4, 43, 64
1, 49252, Note_off_c, 2, 72, 64
1, 49256, Note_off_c, 2, 75, 64
1, 49257, Note_on_c, 2, 74, 124
1, 49257, Note_on_c, 2, 72, 124
1, 49258, Note_on_c, 4, 43, 127
1, 49320, Note_off_c, 4, 55, 64
1, 49325, Note_on_c, 4, 55, 127
1, 49379, Note_off_c, 4, 55, 64
1, 49395, Note_off_c, 2, 72, 64
1, 49395, Note_on_c, 4, 55, 127
1, 49395, Note_on_c, 2, 71, 125
1, 49449, Note_off_c, 4, 55, 64
1, 49463, Note_on_c, 4, 55, 127
1, 49532, Note_off_c, 4, 43, 64
1, 49533, Note_on_c, 4, 41, 127
1, 49594, Note_off_c, 4, 55, 64
1, 49598, Note_on_c, 4, 53, 127
1, 49652, Note_off_c, 4, 53, 64
1, 49662, Note_off_c, 2, 74, 64
1, 49662, Note_off_c, 2, 71, 64
1, 49667, Note_on_c, 2, 74, 124
1, 49667, Note_on_c, 1, 80, 123
1, 49668, Note_on_c, 2, 71, 125
1, 49668, Note_on_c, 4, 53, 127
1, 49720, Note_off_c, 4, 53, 64
1, 49734, Note_on_c, 4, 53, 127
1, 49803, Note_off_c, 4, 41, 64
1, 49803, Note_on_c, 4, 39, 127
1, 49867, Note_off_c, 4, 53, 64
1, 49871, Note_on_c, 4, 51, 127
1, 49927, Note_off_c, 4, 51, 64
1, 49940, Note_off_c, 2, 71, 64
1, 49941, Note_off_c, 1, 80, 64
1, 49941, Note_off_c, 2, 74, 64
1, 49942, Note_on_c, 1, 79, 121
1, 49942, Note_on_c, 2, 75, 124
1, 49943, Note_on_c, 2, 72, 124
1, 49943, Note_on_c, 4, 51, 127
1, 49995, Note_off_c, 4, 51, 64
1, 50010, Note_on_c, 4, 51, 127
1, 50079, Note_off_c, 4, 39, 64
1, 50080, Note_on_c, 4, 35, 127
1, 50144, Note_off_c, 4, 51, 64
1, 50148, Note_on_c, 4, 47, 127
1, 50159, Note_off_c, 2, 72, 64
1, 50160, Note_off_c, 2, 75, 64
1, 50160, Note_off_c, 1, 79, 64
1, 50182, Note_on_c, 4, 67, 123
1, 50201, Note_off_c, 4, 47, 64
1, 50215, Note_on_c, 2, 74, 124
1, 50215, Note_on_c, 4, 47, 127
1, 50218, Note_off_c, 4, 67, 64
1, 50269, Note_off_c, 4, 47, 64
1, 50285, Note_on_c, 4, 47, 127
1, 50319, Note_off_c, 2, 74, 64
1, 50320, Note_on_c, 2, 77, 124
1, 50347, Note_off_c, 2, 77, 64
1, 50348, Note_on_c, 2, 75, 124
1, 50354, Note_off_c, 4, 35, 64
1, 50354, Note_on_c, 4, 36, 127
1, 50374, Note_on_c, 2, 77, 124
1, 50378, Note_off_c, 2, 75, 64
1, 50393, Note_on_c, 2, 74, 124
1, 50405, Note_off_c, 2, 77, 64
1, 50426, Note_off_c, 4, 47, 64
1, 50430, Note_on_c, 2, 75, 124
1, 50430, Note_on_c, 4, 48, 127
1, 50433, Note_off_c, 2, 74, 64
1, 50465, Note_on_c, 2, 77, 124
1, 50469, Note_off_c, 2, 75, 64
1, 50486, Note_off_c, 4, 48, 64
1, 50500, Note_on_c, 1, 79, 121
1, 50500, Note_on_c, 4, 48, 127
1, 50503, Note_off_c, 2, 77, 64
1, 50553, Note_off_c, 4, 48, 64
1, 50568, Note_on_c, 4, 48, 127
1, 50635, Note_off_c, 4, 36, 64
1, 50636, Note_on_c, 4, 41, 127
1, 50703, Note_off_c, 4, 48, 64
1, 50704, Note_on_c, 4, 53, 127
1, 50756, Note_off_c, 4, 53, 64
1, 50770, Note_off_c, 1, 79, 64
1, 50770, Note_on_c, 1, 80, 123
1, 50771, Note_on_c, 2, 71, 125
1, 50771, Note_on_c, 2, 74, 124
1, 50772, Note_on_c, 4, 53, 127
1, 50822, Note_off_c, 4, 53, 64
1, 50836, Note_on_c, 4, 53, 127
1, 50905, Note_off_c, 4, 41, 64
1, 50905, Note_on_c, 4, 39, 127
1, 50971, Note_off_c, 4, 53, 64
1, 50976, Note_on_c, 4, 51, 127
1, 51029, Note_off_c, 4, 51, 64
1, 51044, Note_off_c, 2, 71, 64
1, 51045, Note_off_c, 1, 80, 64
1, 51045, Note_off_c, 2, 74, 64
1, 51046, Note_on_c, 2, 75, 124
1, 51046, Note_on_c, 1, 79, 121
1, 51047, Note_on_c, 2, 72, 124
1, 51047, Note_on_c, 4, 51, 127
1, 51097, Note_off_c, 4, 51, 64
1, 51112, Note_on_c, 4, 51, 127
1, 51180, Note_off_c, 4, 39, 64
1, 51180, Note_on_c, 4, 38, 127
1, 51244, Note_off_c, 4, 51, 64
1, 51248, Note_on_c, 4, 50, 127
1, 51259, Note_off_c, 2, 72, 64
1, 51260, Note_off_c, 1, 79, 64
1, 51260, Note_off_c, 2, 75, 64
1, 51283, Note_on_c, 2, 77, 124
1, 51304, Note_off_c, 4, 50, 64
1, 51318, Note_on_c, 4, 50, 127
1, 51318, Note_on_c, 1, 83, 123
1, 51321, Note_off_c, 2, 77, 64
1, 51372, Note_off_c, 4, 50, 64
1, 51388, Note_on_c, 4, 50, 127
1, 51401, Note_off_c, 1, 83, 64
1, 51422, Note_on_c, 1, 86, 123
1, 51444, Note_off_c, 4, 50, 64
1, 51451, Note_off_c, 1, 86, 64
1, 51459, Note_off_c, 4, 38, 64
1, 51459, Note_on_c, 1, 87, 123
1, 51460, Note_on_c, 4, 48, 127
1, 51526, Note_on_c, 1, 79, 121
1, 51590, Note_off_c, 1, 87, 64
1, 51595, Note_on_c, 1, 84, 123
1, 51600, Note_off_c, 1, 79, 64
1, 51662, Note_on_c, 1, 79, 121
1, 51727, Note_off_c, 1, 84, 64
1, 51731, Note_off_c, 4, 48, 64
1, 51732, Note_on_c, 4, 53, 127
1, 51793, Note_off_c, 1, 79, 64
1, 51797, Note_on_c, 2, 77, 124
1, 51868, Note_on_c, 1, 80, 123
1, 51874, Note_off_c, 2, 77, 64
1, 51936, Note_on_c, 2, 74, 124
1, 51998, Note_off_c, 1, 80, 64
1, 52003, Note_off_c, 4, 53, 64
1, 52003, Note_on_c, 4, 55, 127
1, 52067, Note_off_c, 2, 74, 64
1, 52071, Note_on_c, 2, 75, 124
1, 52140, Note_on_c, 1, 79, 121
1, 52148, Note_off_c, 2, 75, 64
1, 52211, Note_on_c, 2, 72, 124
1, 52274, Note_off_c, 1, 79, 64
1, 52278, Note_off_c, 4, 55, 64
1, 52279, Note_on_c, 4, 43, 127
1, 52344, Note_off_c, 2, 72, 64
1, 52348, Note_on_c, 2, 74, 124
1, 52417, Note_on_c, 2, 77, 124
1, 52423, Note_off_c, 2, 74, 64
1, 52487, Note_on_c, 2, 71, 125
1, 52552, Note_off_c, 2, 77, 64
1, 52556, Note_off_c, 4, 43, 64
1, 52556, Note_on_c, 2, 72, 124
1, 52557, Note_on_c, 4, 60, 127
1, 52560, Note_off_c, 2, 71, 64
1, 52825, Note_off_c, 4, 60, 64
1, 52826, Note_off_c, 2, 72, 64
1, 52826, Note_on_c, 2, 75, 124
1, 52827, Note_on_c, 4, 63, 127
1, 52960, Note_off_c, 4, 63, 64
1, 52961, Note_off_c, 2, 75, 64
1, 52961, Note_on_c, 1, 79, 121
1, 52962, Note_on_c, 4, 67, 123
1, 53100, Note_off_c, 1, 79, 64
1, 53100, Note_off_c, 4, 67, 64
1, 53101, Note_on_c, 1, 84, 123
1, 53101, Note_on_c, 2, 72, 124
1, 53238, Note_off_c, 2, 72, 64
1, 53239, Note_off_c, 1, 84, 64
1, 53239, Note_on_c, 1, 87, 123
1, 53240, Note_on_c, 2, 75, 124
1, 53453, Note_off_c, 2, 75, 64
1, 53454, Note_off_c, 1, 87, 64
1, 53475, Note_on_c, 2, 75, 121
1, 53504, Note_off_c, 2, 75, 64
1, 53514, Note_on_c, 2, 75, 121
1, 53532, Note_on_c, 2, 77, 121
1, 53544, Note_off_c, 2, 75, 64
1, 53551, Note_on_c, 2, 75, 121
1, 53563, Note_off_c, 2, 77, 64
1, 53569, Note_on_c, 2, 77, 121
1, 53582, Note_off_c, 2, 75, 64
1, 53588, Note_on_c, 2, 74, 121
1, 53599, Note_off_c, 2, 77, 64
1, 53625, Note_on_c, 2, 75, 121
1, 53636, Note_off_c, 2, 74, 64
1, 53659, Note_on_c, 1, 80, 120
1, 53660, Note_on_c, 4, 34, 127
1, 53660, Note_on_c, 4, 46, 127
1, 53670, Note_off_c, 2, 75, 64
1, 53705, Note_off_c, 1, 80, 64
1, 53705, Note_on_c, 1, 82, 123
1, 53750, Note_off_c, 1, 82, 64
1, 53750, Note_on_c, 1, 84, 123
1, 53795, Note_off_c, 1, 84, 64
1, 53796, Note_on_c, 1, 82, 123
1, 53836, Note_off_c, 1, 82, 64
1, 53837, Note_on_c, 1, 80, 123
1, 53884, Note_off_c, 1, 80, 64
1, 53884, Note_on_c, 1, 79, 121
1, 53927, Note_off_c, 1, 79, 64
1, 53927, Note_off_c, 4, 34, 64
1, 53928, Note_off_c, 4, 46, 64
1, 53928, Note_on_c, 4, 50, 127
1, 53928, Note_on_c, 2, 77, 124
1, 53929, Note_on_c, 4, 38, 127
1, 53972, Note_off_c, 2, 77, 64
1, 53973, Note_on_c, 1, 79, 121
1, 54015, Note_off_c, 1, 79, 64
1, 54016, Note_on_c, 1, 80, 123
1, 54060, Note_off_c, 1, 80, 64
1, 54060, Note_off_c, 4, 38, 64
1, 54061, Note_off_c, 4, 50, 64
1, 54061, Note_on_c, 1, 79, 121
1, 54062, Note_on_c, 4, 53, 127
1, 54062, Note_on_c, 4, 41, 127
1, 54102, Note_off_c, 1, 79, 64
1, 54102, Note_on_c, 2, 77, 124
1, 54147, Note_off_c, 2, 77, 64
1, 54147, Note_on_c, 2, 75, 124
1, 54190, Note_off_c, 2, 75, 64
1, 54191, Note_off_c, 4, 41, 64
1, 54191, Note_off_c, 4, 53, 64
1, 54192, Note_on_c, 4, 46, 127
1, 54192, Note_on_c, 4, 58, 127
1, 54192, Note_on_c, 2, 74, 124
1, 54237, Note_off_c, 2, 74, 64
1, 54238, Note_on_c, 2, 75, 124
1, 54280, Note_off_c, 2, 75, 64
1, 54281, Note_on_c, 2, 77, 124
1, 54324, Note_off_c, 2, 77, 64
1, 54324, Note_off_c, 4, 58, 64
1, 54324, Note_off_c, 4, 46, 64
1, 54324, Note_on_c, 2, 75, 124
1, 54325, Note_on_c, 4, 50, 127
1, 54325, Note_on_c, 4, 62, 127
1, 54367, Note_off_c, 2, 75, 64
1, 54367, Note_on_c, 2, 74, 124
1, 54410, Note_off_c, 2, 74, 64
1, 54410, Note_on_c, 2, 72, 124
1, 54455, Note_off_c, 2, 72, 64
1, 54456, Note_on_c, 2, 70, 125
1, 54498, Note_off_c, 2, 70, 64
1, 54499, Note_on_c, 2, 72, 124
1, 54543, Note_off_c, 2, 72, 64
1, 54544, Note_on_c, 2, 70, 125
1, 54587, Note_off_c, 2, 70, 64
1, 54587, Note_on_c, 3, 68, 123
1, 54630, Note_off_c, 3, 68, 64
1, 54630, Note_on_c, 2, 70, 125
1, 54671, Note_off_c, 2, 70, 64
1, 54672, Note_on_c, 3, 68, 123
1, 54716, Note_off_c, 3, 68, 64
1, 54716, Note_off_c, 4, 62, 64
1, 54717, Note_off_c, 4, 50, 64
1, 54718, Note_on_c, 4, 51, 127
1, 54718, Note_on_c, 3, 67, 123
1, 54786, Note_on_c, 4, 58, 127
1, 54830, Note_off_c, 4, 51, 64
1, 54853, Note_on_c, 4, 55, 127
1, 54900, Note_off_c, 4, 58, 64
1, 54923, Note_on_c, 4, 58, 127
1, 54923, Note_on_c, 3, 68, 127
1, 54929, Note_off_c, 3, 67, 64
1, 54937, Note_off_c, 3, 68, 64
1, 54943, Note_on_c, 3, 67, 127
1, 54958, Note_off_c, 3, 67, 64
1, 54962, Note_on_c, 3, 65, 127
1, 54977, Note_off_c, 4, 55, 64
1, 54978, Note_off_c, 3, 65, 64
1, 54984, Note_on_c, 3, 67, 127
1, 54997, Note_off_c, 3, 67, 64
1, 55003, Note_on_c, 3, 68, 127
1, 55004, Note_on_c, 4, 53, 127
1, 55050, Note_off_c, 4, 58, 64
1, 55073, Note_on_c, 4, 58, 127
1, 55117, Note_off_c, 4, 53, 64
1, 55140, Note_off_c, 3, 68, 64
1, 55141, Note_on_c, 4, 56, 127
1, 55141, Note_on_c, 3, 62, 127
1, 55186, Note_off_c, 4, 58, 64
1, 55209, Note_on_c, 4, 58, 127
1, 55255, Note_off_c, 4, 56, 64
1, 55279, Note_off_c, 3, 62, 64
1, 55279, Note_on_c, 3, 63, 127
1, 55280, Note_on_c, 4, 55, 127
1, 55326, Note_off_c, 4, 58, 64
1, 55349, Note_on_c, 4, 58, 127
1, 55349, Note_on_c, 3, 67, 127
1, 55354, Note_off_c, 3, 63, 64
1, 55393, Note_off_c, 4, 55, 64
1, 55416, Note_on_c, 4, 51, 127
1, 55416, Note_on_c, 2, 70, 127
1, 55421, Note_off_c, 3, 67, 64
1, 55459, Note_off_c, 4, 58, 64
1, 55482, Note_on_c, 4, 58, 127
1, 55528, Note_off_c, 4, 51, 64
1, 55549, Note_on_c, 4, 50, 127
1, 55596, Note_off_c, 4, 58, 64
1, 55617, Note_off_c, 2, 70, 64
1, 55617, Note_on_c, 2, 69, 127
1, 55618, Note_on_c, 4, 58, 127
1, 55660, Note_off_c, 4, 50, 64
1, 55683, Note_on_c, 3, 68, 127
1, 55683, Note_on_c, 4, 46, 127
1, 55688, Note_off_c, 2, 69, 64
1, 55726, Note_off_c, 4, 58, 64
1, 55749, Note_on_c, 3, 66, 127
1, 55750, Note_on_c, 4, 58, 127
1, 55754, Note_off_c, 3, 68, 64
1, 55792, Note_off_c, 4, 46, 64
1, 55816, Note_on_c, 4, 51, 127
1, 55816, Note_on_c, 3, 67, 127
1, 55822, Note_off_c, 3, 66, 64
1, 55862, Note_off_c, 4, 58, 64
1, 55884, Note_on_c, 4, 58, 127
1, 55928, Note_off_c, 4, 51, 64
1, 55951, Note_on_c, 4, 55, 127
1, 55995, Note_off_c, 4, 58, 64
1, 56018, Note_off_c, 3, 67, 64
1, 56018, Note_on_c, 3, 68, 127
1, 56019, Note_on_c, 4, 58, 127
1, 56033, Note_off_c, 3, 68, 64
1, 56037, Note_on_c, 3, 67, 127
1, 56052, Note_off_c, 3, 67, 64
1, 56057, Note_on_c, 3, 65, 127
1, 56070, Note_off_c, 3, 65, 64
1, 56070, Note_off_c, 4, 55, 64
1, 56076, Note_on_c, 3, 67, 127
1, 56090, Note_off_c, 3, 67, 64
1, 56094, Note_on_c, 4, 53, 127
1, 56094, Note_on_c, 3, 68, 127
1, 56141, Note_off_c, 4, 58, 64
1, 56164, Note_on_c, 4, 58, 127
1, 56210, Note_off_c, 4, 53, 64
1, 56231, Note_off_c, 3, 68, 64
1, 56232, Note_on_c, 3, 62, 127
1, 56232, Note_on_c, 4, 56, 127
1, 56277, Note_off_c, 4, 58, 64
1, 56298, Note_on_c, 4, 58, 127
1, 56344, Note_off_c, 4, 56, 64
1, 56365, Note_off_c, 3, 62, 64
1, 56365, Note_on_c, 3, 63, 127
1, 56366, Note_on_c, 4, 55, 127
1, 56412, Note_off_c, 4, 58, 64
1, 56435, Note_on_c, 2, 75, 127
1, 56435, Note_on_c, 4, 58, 127
1, 56440, Note_off_c, 3, 63, 64
1, 56478, Note_off_c, 4, 55, 64
1, 56503, Note_on_c, 2, 74, 127
1, 56504, Note_on_c, 4, 51, 127
1, 56508, Note_off_c, 2, 75, 64
1, 56546, Note_off_c, 4, 58, 64
1, 56569, Note_on_c, 2, 72, 127
1, 56570, Note_on_c, 4, 58, 127
1, 56574, Note_off_c, 2, 74, 64
1, 56613, Note_off_c, 4, 51, 64
1, 56636, Note_on_c, 4, 50, 127
1, 56636, Note_on_c, 2, 71, 127
1, 56642, Note_off_c, 2, 72, 64
1, 56681, Note_off_c, 4, 58, 64
1, 56704, Note_on_c, 2, 69, 127
1, 56704, Note_on_c, 4, 58, 127
1, 56709, Note_off_c, 2, 71, 64
1, 56747, Note_off_c, 4, 50, 64
1, 56770, Note_on_c, 3, 68, 127
1, 56771, Note_on_c, 4, 46, 127
1, 56775, Note_off_c, 2, 69, 64
1, 56813, Note_off_c, 4, 58, 64
1, 56834, Note_on_c, 3, 66, 127
1, 56835, Note_on_c, 4, 58, 127
1, 56841, Note_off_c, 3, 68, 64
1, 56880, Note_off_c, 4, 46, 64
1, 56903, Note_on_c, 3, 67, 127
1, 56903, Note_on_c, 4, 51, 127
1, 56907, Note_off_c, 3, 66, 64
1, 56948, Note_off_c, 4, 58, 64
1, 56969, Note_on_c, 4, 58, 127
1, 57014, Note_off_c, 4, 51, 64
1, 57037, Note_off_c, 3, 67, 64
1, 57037, Note_on_c, 2, 70, 127
1, 57038, Note_on_c, 4, 55, 127
1, 57082, Note_off_c, 4, 58, 64
1, 57105, Note_on_c, 4, 58, 127
1, 57149, Note_off_c, 4, 55, 64
1, 57172, Note_on_c, 4, 50, 127
1, 57218, Note_off_c, 4, 58, 64
1, 57240, Note_on_c, 2, 70, 127
1, 57240, Note_on_c, 4, 58, 127
1, 57252, Note_off_c, 2, 70, 64
1, 57288, Note_off_c, 4, 50, 64
1, 57296, Note_off_c, 2, 70, 64
1, 57310, Note_on_c, 4, 53, 127
1, 57310, Note_on_c, 2, 70, 127
1, 57357, Note_off_c, 4, 58, 64
1, 57380, Note_off_c, 2, 70, 64
1, 57382, Note_on_c, 2, 70, 127
1, 57382, Note_on_c, 4, 58, 127
1, 57429, Note_off_c, 4, 53, 64
1, 57452, Note_on_c, 2, 77, 124
1, 57452, Note_on_c, 4, 48, 127
1, 57458, Note_off_c, 2, 70, 64
1, 57499, Note_off_c, 4, 58, 64
1, 57524, Note_on_c, 4, 58, 127
1, 57524, Note_on_c, 2, 75, 124
1, 57528, Note_off_c, 2, 77, 64
1, 57569, Note_off_c, 4, 48, 64
1, 57588, Note_off_c, 2, 75, 64
1, 57592, Note_on_c, 4, 55, 127
1, 57592, Note_on_c, 2, 75, 124
1, 57639, Note_off_c, 4, 58, 64
1, 57662, Note_on_c, 4, 58, 127
1, 57708, Note_off_c, 4, 55, 64
1, 57731, Note_on_c, 4, 48, 127
1, 57775, Note_off_c, 4, 58, 64
1, 57792, Note_off_c, 2, 75, 64
1, 57798, Note_on_c, 2, 75, 124
1, 57799, Note_on_c, 4, 58, 127
1, 57843, Note_off_c, 4, 48, 64
1, 57863, Note_off_c, 2, 75, 64
1, 57866, Note_on_c, 2, 75, 124
1, 57867, Note_on_c, 4, 55, 127
1, 57913, Note_off_c, 4, 58, 64
1, 57933, Note_off_c, 2, 75, 64
1, 57936, Note_on_c, 2, 75, 124
1, 57937, Note_on_c, 4, 58, 127
1, 57984, Note_off_c, 4, 55, 64
1, 58005, Note_off_c, 2, 75, 64
1, 58007, Note_on_c, 4, 57, 127
1, 58007, Note_on_c, 2, 75, 124
1, 58008, Note_on_c, 4, 48, 127
1, 58008, Note_on_c, 4, 53, 127
1, 58012, Note_off_c, 4, 58, 64
1, 58074, Note_off_c, 2, 75, 64
1, 58076, Note_on_c, 2, 77, 124
1, 58112, Note_on_c, 1, 79, 121
1, 58118, Note_off_c, 2, 77, 64
1, 58147, Note_on_c, 2, 77, 124
1, 58152, Note_off_c, 1, 79, 64
1, 58214, Note_on_c, 2, 75, 124
1, 58220, Note_off_c, 2, 77, 64
1, 58281, Note_on_c, 2, 74, 124
1, 58287, Note_off_c, 2, 75, 64
1, 58348, Note_on_c, 2, 72, 124
1, 58354, Note_off_c, 2, 74, 64
1, 58416, Note_on_c, 2, 70, 125
1, 58421, Note_off_c, 2, 72, 64
1, 58485, Note_on_c, 2, 69, 124
1, 58490, Note_off_c, 2, 70, 64
1, 58552, Note_on_c, 2, 72, 124
1, 58558, Note_off_c, 2, 69, 64
1, 58665, Note_off_c, 4, 48, 64
1, 58666, Note_off_c, 4, 57, 64
1, 58666, Note_off_c, 4, 53, 64
1, 58693, Note_off_c, 2, 72, 64
1, 58694, Note_on_c, 4, 58, 127
1, 58694, Note_on_c, 4, 62, 127
1, 58694, Note_on_c, 2, 70, 125
1, 58832, Note_off_c, 4, 62, 64
1, 58832, Note_off_c, 4, 58, 64
1, 58833, Note_off_c, 2, 70, 64
1, 58833, Note_on_c, 4, 63, 127
1, 58834, Note_on_c, 4, 59, 127
1, 58972, Note_on_c, 2, 75, 124
1, 59035, Note_off_c, 2, 75, 64
1, 59041, Note_on_c, 2, 75, 124
1, 59110, Note_on_c, 0, 82, 123
1, 59116, Note_off_c, 2, 75, 64
1, 59214, Note_off_c, 4, 63, 64
1, 59214, Note_off_c, 4, 59, 64
1, 59247, Note_on_c, 4, 62, 127
1, 59248, Note_on_c, 4, 58, 127
1, 59387, Note_off_c, 4, 62, 64
1, 59387, Note_off_c, 4, 58, 64
1, 59388, Note_on_c, 4, 59, 127
1, 59388, Note_on_c, 4, 63, 127
1, 59484, Note_off_c, 0, 82, 64
1, 59525, Note_on_c, 2, 75, 124
1, 59588, Note_off_c, 2, 75, 64
1, 59594, Note_on_c, 2, 75, 124
1, 59663, Note_on_c, 0, 82, 123
1, 59669, Note_off_c, 2, 75, 64
1, 59767, Note_off_c, 4, 63, 64
1, 59767, Note_off_c, 4, 59, 64
1, 59802, Note_on_c, 4, 62, 127
1, 59803, Note_on_c, 4, 58, 127
1, 59940, Note_off_c, 4, 58, 64
1, 59940, Note_off_c, 4, 62, 64
1, 59940, Note_on_c, 4, 63, 127
1, 59941, Note_on_c, 4, 59, 127
1, 60037, Note_off_c, 0, 82, 64
1, 60080, Note_on_c, 2, 75, 124
1, 60143, Note_off_c, 2, 75, 64
1, 60149, Note_on_c, 2, 75, 124
1, 60216, Note_off_c, 4, 63, 64
1, 60216, Note_off_c, 4, 59, 64
1, 60217, Note_on_c, 4, 62, 127
1, 60217, Note_on_c, 0, 82, 123
1, 60218, Note_on_c, 4, 58, 127
1, 60224, Note_off_c, 2, 75, 64
1, 60356, Note_off_c, 4, 58, 64
1, 60357, Note_off_c, 0, 82, 64
1, 60357, Note_off_c, 4, 62, 64
1, 60358, Note_on_c, 4, 63, 127
1, 60358, Note_on_c, 2, 75, 124
1, 60359, Note_on_c, 4, 59, 127
1, 60420, Note_off_c, 2, 75, 64
1, 60425, Note_on_c, 2, 75, 124
1, 60492, Note_off_c, 4, 59, 64
1, 60493, Note_off_c, 4, 63, 64
1, 60493, Note_on_c, 0, 82, 123
1, 60494, Note_on_c, 4, 62, 127
1, 60494, Note_on_c, 4, 58, 127
1, 60498, Note_off_c, 2, 75, 64
1, 60630, Note_off_c, 4, 58, 64
1, 60630, Note_off_c, 4, 62, 64
1, 60631, Note_off_c, 0, 82, 64
1, 60631, Note_on_c, 2, 75, 124
1, 60632, Note_on_c, 4, 59, 127
1, 60632, Note_on_c, 4, 63, 127
1, 60694, Note_off_c, 2, 75, 64
1, 60698, Note_on_c, 2, 75, 124
1, 60769, Note_off_c, 4, 63, 64
1, 60769, Note_off_c, 4, 59, 64
1, 60770, Note_on_c, 4, 62, 127
1, 60770, Note_on_c, 1, 82, 123
1, 60771, Note_on_c, 4, 58, 127
1, 60775, Note_off_c, 2, 75, 64
1, 60904, Note_off_c, 1, 82, 64
1, 60908, Note_on_c, 1, 82, 123
1, 61043, Note_off_c, 1, 82, 64
1, 61046, Note_on_c, 1, 82, 123
1, 61181, Note_off_c, 1, 82, 64
1, 61185, Note_on_c, 1, 82, 120
1, 61319, Note_off_c, 1, 82, 64
1, 61323, Note_on_c, 1, 82, 120
1, 61387, Note_on_c, 1, 81, 120
1, 61392, Note_off_c, 1, 82, 64
1, 61454, Note_on_c, 1, 80, 120
1, 61460, Note_off_c, 1, 81, 64
1, 61525, Note_on_c, 2, 77, 121
1, 61531, Note_off_c, 1, 80, 64
1, 61592, Note_on_c, 1, 82, 120
1, 61598, Note_off_c, 2, 77, 64
1, 61657, Note_on_c, 1, 81, 120
1, 61663, Note_off_c, 1, 82, 64
1, 61723, Note_on_c, 1, 80, 120
1, 61728, Note_off_c, 1, 81, 64
1, 61790, Note_on_c, 2, 77, 121
1, 61796, Note_off_c, 1, 80, 64
1, 61847, Note_off_c, 4, 62, 64
1, 61847, Note_off_c, 4, 58, 64
1, 61857, Note_on_c, 2, 75, 121
1, 61858, Note_on_c, 4, 67, 123
1, 61864, Note_off_c, 2, 77, 64
1, 61927, Note_on_c, 2, 70, 125
1, 61990, Note_off_c, 4, 67, 64
1, 61993, Note_on_c, 4, 67, 123
1, 62059, Note_off_c, 2, 70, 64
1, 62064, Note_off_c, 2, 75, 64
1, 62065, Note_on_c, 2, 70, 125
1, 62065, Note_on_c, 2, 77, 125
1, 62098, Note_on_c, 2, 75, 125
1, 62102, Note_off_c, 2, 77, 64
1, 62129, Note_off_c, 4, 67, 64
1, 62133, Note_on_c, 4, 65, 123
1, 62133, Note_on_c, 2, 74, 125
1, 62136, Note_off_c, 2, 75, 64
1, 62197, Note_off_c, 2, 70, 64
1, 62201, Note_on_c, 2, 70, 125
1, 62266, Note_off_c, 4, 65, 64
1, 62270, Note_off_c, 2, 74, 64
1, 62271, Note_on_c, 4, 67, 123
1, 62271, Note_on_c, 2, 75, 127
1, 62335, Note_off_c, 2, 70, 64
1, 62339, Note_on_c, 2, 70, 125
1, 62404, Note_off_c, 4, 67, 64
1, 62408, Note_off_c, 2, 75, 64
1, 62409, Note_on_c, 2, 76, 127
1, 62409, Note_on_c, 4, 67, 123
1, 62473, Note_off_c, 2, 70, 64
1, 62477, Note_on_c, 2, 70, 125
1, 62539, Note_off_c, 4, 67, 64
1, 62543, Note_on_c, 4, 67, 123
1, 62607, Note_off_c, 2, 70, 64
1, 62611, Note_on_c, 2, 70, 125
1, 62652, Note_off_c, 2, 76, 64
1, 62676, Note_off_c, 4, 67, 64
1, 62680, Note_on_c, 2, 77, 127
1, 62681, Note_on_c, 2, 68, 123
1, 62746, Note_off_c, 2, 70, 64
1, 62749, Note_on_c, 2, 70, 125
1, 62814, Note_off_c, 2, 68, 64
1, 62818, Note_on_c, 2, 68, 123
1, 62883, Note_off_c, 2, 70, 64
1, 62887, Note_on_c, 2, 70, 125
1, 62951, Note_off_c, 2, 68, 64
1, 62954, Note_on_c, 4, 65, 123
1, 62955, Note_on_c, 3, 56, 127
1, 62965, Note_off_c, 2, 77, 64
1, 63019, Note_off_c, 2, 70, 64
1, 63023, Note_on_c, 2, 70, 125
1, 63088, Note_off_c, 4, 65, 64
1, 63092, Note_on_c, 4, 65, 123
1, 63157, Note_off_c, 2, 70, 64
1, 63161, Note_off_c, 3, 56, 64
1, 63161, Note_on_c, 2, 70, 125
1, 63162, Note_on_c, 3, 55, 127
1, 63196, Note_on_c, 3, 56, 127
1, 63200, Note_off_c, 3, 55, 64
1, 63227, Note_off_c, 4, 65, 64
1, 63231, Note_on_c, 4, 65, 123
1, 63231, Note_on_c, 3, 58, 127
1, 63236, Note_off_c, 3, 56, 64
1, 63295, Note_off_c, 2, 70, 64
1, 63300, Note_on_c, 3, 56, 127
1, 63300, Note_on_c, 2, 70, 125
1, 63306, Note_off_c, 3, 58, 64
1, 63365, Note_off_c, 4, 65, 64
1, 63370, Note_on_c, 4, 67, 123
1, 63370, Note_on_c, 3, 55, 127
1, 63376, Note_off_c, 3, 56, 64
1, 63435, Note_off_c, 2, 70, 64
1, 63440, Note_on_c, 2, 70, 125
1, 63440, Note_on_c, 3, 53, 127
1, 63446, Note_off_c, 3, 55, 64
1, 63505, Note_off_c, 4, 67, 64
1, 63510, Note_on_c, 3, 51, 127
1, 63510, Note_on_c, 2, 68, 123
1, 63516, Note_off_c, 3, 53, 64
1, 63576, Note_off_c, 2, 70, 64
1, 63580, Note_on_c, 2, 70, 125
1, 63643, Note_off_c, 2, 68, 64
1, 63647, Note_on_c, 4, 65, 123
1, 63712, Note_off_c, 2, 70, 64
1, 63716, Note_on_c, 2, 70, 125
1, 63781, Note_off_c, 4, 65, 64
1, 63785, Note_off_c, 3, 51, 64
1, 63786, Note_on_c, 3, 50, 127
1, 63786, Note_on_c, 2, 68, 123
1, 63852, Note_off_c, 2, 70, 64
1, 63855, Note_on_c, 2, 70, 125
1, 63920, Note_off_c, 2, 68, 64
1, 63924, Note_on_c, 4, 65, 123
1, 63988, Note_off_c, 2, 70, 64
1, 63994, Note_on_c, 2, 70, 125
1, 64058, Note_off_c, 4, 65, 64
1, 64063, Note_off_c, 3, 50, 64
1, 64063, Note_on_c, 2, 77, 117
1, 64064, Note_on_c, 4, 62, 127
1, 64130, Note_off_c, 2, 70, 64
1, 64134, Note_on_c, 2, 70, 125
1, 64201, Note_off_c, 4, 62, 64
1, 64205, Note_on_c, 4, 62, 127
1, 64270, Note_off_c, 2, 70, 64
1, 64274, Note_off_c, 2, 77, 64
1, 64274, Note_on_c, 1, 79, 114
1, 64275, Note_on_c, 2, 70, 125
1, 64311, Note_on_c, 2, 77, 117
1, 64315, Note_off_c, 1, 79, 64
1, 64342, Note_off_c, 4, 62, 64
1, 64348, Note_on_c, 2, 75, 117
1, 64348, Note_on_c, 4, 60, 127
1, 64351, Note_off_c, 2, 77, 64
1, 64414, Note_off_c, 2, 70, 64
1, 64418, Note_on_c, 2, 70, 125
1, 64479, Note_off_c, 4, 60, 64
1, 64483, Note_off_c, 2, 75, 64
1, 64484, Note_on_c, 4, 62, 127
1, 64484, Note_on_c, 2, 77, 117
1, 64548, Note_off_c, 2, 70, 64
1, 64551, Note_on_c, 2, 70, 125
1, 64615, Note_off_c, 4, 62, 64
1, 64619, Note_off_c, 2, 77, 64
1, 64619, Note_on_c, 1, 78, 111
1, 64620, Note_on_c, 4, 62, 127
1, 64683, Note_off_c, 2, 70, 64
1, 64687, Note_on_c, 2, 70, 125
1, 64752, Note_off_c, 4, 62, 64
1, 64756, Note_on_c, 4, 62, 127
1, 64821, Note_off_c, 2, 70, 64
1, 64825, Note_on_c, 2, 70, 125
1, 64864, Note_off_c, 1, 78, 64
1, 64888, Note_off_c, 4, 62, 64
1, 64893, Note_on_c, 1, 79, 121
1, 64893, Note_on_c, 4, 63, 127
1, 64956, Note_off_c, 2, 70, 64
1, 64961, Note_on_c, 2, 70, 125
1, 65025, Note_off_c, 4, 63, 64
1, 65028, Note_on_c, 4, 63, 127
1, 65092, Note_off_c, 2, 70, 64
1, 65096, Note_on_c, 2, 70, 125
1, 65159, Note_off_c, 4, 63, 64
1, 65163, Note_off_c, 1, 79, 64
1, 65164, Note_on_c, 3, 58, 127
1, 65164, Note_on_c, 4, 67, 123
1, 65228, Note_off_c, 2, 70, 64
1, 65234, Note_on_c, 2, 70, 125
1, 65299, Note_off_c, 4, 67, 64
1, 65304, Note_on_c, 4, 63, 127
1, 65367, Note_off_c, 2, 70, 64
1, 65371, Note_off_c, 3, 58, 64
1, 65372, Note_on_c, 2, 70, 125
1, 65372, Note_on_c, 3, 57, 127
1, 65407, Note_on_c, 3, 58, 127
1, 65411, Note_off_c, 3, 57, 64
1, 65437, Note_off_c, 4, 63, 64
1, 65443, Note_on_c, 4, 67, 123
1, 65444, Note_on_c, 4, 60, 127
1, 65446, Note_off_c, 3, 58, 64
1, 65506, Note_off_c, 2, 70, 64
1, 65509, Note_on_c, 2, 70, 125
1, 65510, Note_on_c, 3, 58, 127
1, 65515, Note_off_c, 4, 60, 64
1, 65574, Note_off_c, 4, 67, 64
1, 65578, Note_on_c, 4, 63, 127
1, 65579, Note_on_c, 3, 56, 127
1, 65582, Note_off_c, 3, 58, 64
1, 65644, Note_off_c, 2, 70, 64
1, 65648, Note_on_c, 2, 70, 125
1, 65648, Note_on_c, 3, 55, 127
1, 65654, Note_off_c, 3, 56, 64
1, 65716, Note_off_c, 4, 63, 64
1, 65720, Note_on_c, 2, 68, 123
1, 65721, Note_on_c, 3, 53, 127
1, 65725, Note_off_c, 3, 55, 64
1, 65785, Note_off_c, 2, 70, 64
1, 65789, Note_on_c, 2, 70, 125
1, 65854, Note_off_c, 2, 68, 64
1, 65858, Note_on_c, 4, 65, 123
1, 65923, Note_off_c, 2, 70, 64
1, 65928, Note_on_c, 2, 70, 125
1, 65992, Note_off_c, 4, 65, 64
1, 65997, Note_off_c, 3, 53, 64
1, 65997, Note_on_c, 4, 67, 123
1, 65998, Note_on_c, 3, 51, 127
1, 66061, Note_off_c, 2, 70, 64
1, 66067, Note_on_c, 2, 70, 125
1, 66130, Note_off_c, 4, 67, 64
1, 66134, Note_on_c, 4, 63, 127
1, 66199, Note_off_c, 2, 70, 64
1, 66203, Note_on_c, 2, 70, 125
1, 66266, Note_off_c, 4, 63, 64
1, 66268, Note_off_c, 2, 70, 64
1, 66270, Note_off_c, 3, 51, 64
1, 66271, Note_on_c, 2, 70, 125
1, 66271, Note_on_c, 1, 82, 123
1, 66272, Note_on_c, 4, 63, 127
1, 66341, Note_on_c, 4, 67, 123
1, 66406, Note_off_c, 4, 63, 64
1, 66410, Note_on_c, 4, 63, 127
1, 66476, Note_off_c, 4, 67, 64
1, 66481, Note_on_c, 4, 67, 123
1, 66547, Note_off_c, 4, 63, 64
1, 66551, Note_off_c, 1, 82, 64
1, 66551, Note_off_c, 2, 70, 64
1, 66552, Note_on_c, 2, 71, 125
1, 66552, Note_on_c, 1, 83, 123
1, 66552, Note_on_c, 4, 61, 127
1, 66614, Note_off_c, 4, 67, 64
1, 66618, Note_on_c, 4, 65, 123
1, 66683, Note_off_c, 4, 61, 64
1, 66687, Note_on_c, 4, 61, 127
1, 66752, Note_off_c, 4, 65, 64
1, 66755, Note_on_c, 4, 65, 123
1, 66821, Note_off_c, 4, 61, 64
1, 66825, Note_off_c, 2, 71, 64
1, 66826, Note_off_c, 1, 83, 64
1, 66826, Note_on_c, 1, 84, 123
1, 66827, Note_on_c, 2, 72, 124
1, 66827, Note_on_c, 4, 60, 127
1, 66891, Note_off_c, 4, 65, 64
1, 66895, Note_on_c, 4, 64, 127
1, 66900, Note_off_c, 4, 60, 64
1, 66948, Note_off_c, 1, 84, 64
1, 66958, Note_off_c, 4, 64, 64
1, 66961, Note_off_c, 2, 72, 64
1, 66962, Note_on_c, 1, 85, 123
1, 66963, Note_on_c, 4, 64, 127
1, 66963, Note_on_c, 2, 73, 124
1, 66964, Note_on_c, 4, 58, 127
1, 67339, Note_off_c, 4, 64, 64
1, 67339, Note_off_c, 4, 58, 64
1, 67340, Note_off_c, 1, 85, 64
1, 67340, Note_off_c, 2, 73, 64
1, 67354, Note_on_c, 4, 65, 123
1, 67355, Note_on_c, 4, 56, 127
1, 67422, Note_on_c, 1, 84, 123
1, 67491, Note_on_c, 1, 82, 123
1, 67497, Note_off_c, 1, 84, 64
1, 67557, Note_on_c, 1, 80, 123
1, 67562, Note_off_c, 1, 82, 64
1, 67622, Note_on_c, 1, 79, 121
1, 67628, Note_off_c, 1, 80, 64
1, 67687, Note_on_c, 2, 77, 124
1, 67693, Note_off_c, 1, 79, 64
1, 67754, Note_on_c, 1, 79, 121
1, 67758, Note_off_c, 2, 77, 64
1, 67820, Note_on_c, 1, 80, 123
1, 67825, Note_off_c, 1, 79, 64
1, 67885, Note_on_c, 2, 75, 124
1, 67891, Note_off_c, 1, 80, 64
1, 68025, Note_off_c, 4, 56, 64
1, 68026, Note_off_c, 4, 65, 64
1, 68026, Note_on_c, 4, 67, 123
1, 68027, Note_on_c, 4, 58, 127
1, 68164, Note_off_c, 4, 67, 64
1, 68164, Note_on_c, 2, 68, 123
1, 68303, Note_off_c, 4, 58, 64
1, 68303, Note_off_c, 2, 75, 64
1, 68304, Note_on_c, 4, 59, 127
1, 68304, Note_on_c, 2, 74, 124
1, 68304, Note_on_c, 1, 79, 121
1, 68377, Note_on_c, 2, 77, 124
1, 68383, Note_off_c, 1, 79, 64
1, 68444, Note_off_c, 4, 59, 64
1, 68445, Note_off_c, 2, 68, 64
1, 68445, Note_off_c, 2, 74, 64
1, 68445, Note_on_c, 2, 75, 124
1, 68446, Note_on_c, 4, 60, 127
1, 68446, Note_on_c, 4, 67, 123
1, 68449, Note_off_c, 2, 77, 64
1, 68643, Note_off_c, 2, 75, 64
1, 68649, Note_on_c, 2, 75, 124
1, 68658, Note_off_c, 4, 67, 64
1, 68716, Note_on_c, 2, 74, 127
1, 68722, Note_off_c, 2, 75, 64
1, 68781, Note_on_c, 2, 73, 127
1, 68787, Note_off_c, 2, 74, 64
1, 68848, Note_on_c, 2, 72, 127
1, 68854, Note_off_c, 2, 73, 64
1, 68916, Note_on_c, 2, 71, 127
1, 68921, Note_off_c, 2, 72, 64
1, 68981, Note_on_c, 2, 70, 127
1, 68981, Note_on_c, 4, 51, 127
1, 68986, Note_off_c, 2, 71, 64
1, 68991, Note_off_c, 4, 60, 64
1, 69045, Note_on_c, 4, 55, 127
1, 69110, Note_off_c, 4, 51, 64
1, 69114, Note_on_c, 4, 51, 127
1, 69178, Note_off_c, 4, 55, 64
1, 69181, Note_on_c, 4, 55, 127
1, 69245, Note_off_c, 4, 51, 64
1, 69249, Note_off_c, 2, 70, 64
1, 69249, Note_on_c, 2, 71, 127
1, 69250, Note_on_c, 4, 49, 127
1, 69250, Note_on_c, 4, 59, 127
1, 69312, Note_off_c, 4, 55, 64
1, 69316, Note_on_c, 4, 53, 127
1, 69381, Note_off_c, 4, 49, 64
1, 69385, Note_on_c, 4, 49, 127
1, 69448, Note_off_c, 4, 53, 64
1, 69452, Note_on_c, 4, 53, 127
1, 69517, Note_off_c, 4, 49, 64
1, 69521, Note_off_c, 4, 59, 64
1, 69522, Note_off_c, 2, 71, 64
1, 69522, Note_on_c, 2, 72, 127
1, 69523, Note_on_c, 4, 48, 127
1, 69523, Note_on_c, 4, 60, 127
1, 69588, Note_off_c, 4, 53, 64
1, 69591, Note_on_c, 4, 52, 127
1, 69647, Note_off_c, 4, 60, 64
1, 69648, Note_off_c, 2, 72, 64
1, 69657, Note_off_c, 4, 52, 64
1, 69657, Note_off_c, 4, 48, 64
1, 69662, Note_on_c, 2, 73, 127
1, 69663, Note_on_c, 4, 52, 127
1, 69663, Note_on_c, 4, 61, 127
1, 69664, Note_on_c, 4, 46, 127
1, 70039, Note_off_c, 4, 52, 64
1, 70039, Note_off_c, 4, 46, 64
1, 70040, Note_off_c, 2, 73, 64
1, 70040, Note_off_c, 4, 61, 64
1, 70043, Note_on_c, 4, 53, 127
1, 70043, Note_on_c, 2, 72, 124
1, 70044, Note_on_c, 4, 44, 127
1, 70044, Note_on_c, 4, 48, 127
1, 70089, Note_off_c, 2, 72, 64
1, 70089, Note_on_c, 2, 77, 124
1, 70136, Note_on_c, 4, 67, 123
1, 70163, Note_off_c, 2, 77, 64
1, 70180, Note_off_c, 4, 67, 64
1, 70181, Note_on_c, 2, 68, 123
1, 70225, Note_off_c, 2, 68, 64
1, 70225, Note_on_c, 2, 72, 124
1, 70271, Note_on_c, 4, 64, 127
1, 70299, Note_off_c, 2, 72, 64
1, 70315, Note_off_c, 4, 64, 64
1, 70315, Note_on_c, 4, 65, 123
1, 70360, Note_off_c, 4, 65, 64
1, 70360, Note_on_c, 2, 68, 123
1, 70404, Note_on_c, 4, 59, 127
1, 70431, Note_off_c, 2, 68, 64
1, 70449, Note_off_c, 4, 59, 64
1, 70449, Note_on_c, 4, 60, 127
1, 70473, Note_off_c, 4, 53, 64
1, 70492, Note_off_c, 4, 60, 64
1, 70493, Note_on_c, 4, 65, 123
1, 70536, Note_on_c, 4, 55, 127
1, 70547, Note_off_c, 4, 48, 64
1, 70562, Note_off_c, 4, 65, 64
1, 70579, Note_off_c, 4, 55, 64
1, 70580, Note_on_c, 4, 41, 127
1, 70580, Note_on_c, 4, 56, 127
1, 70581, Note_on_c, 4, 29, 127
1, 70591, Note_off_c, 4, 44, 64
1, 70626, Note_off_c, 4, 56, 64
1, 70626, Note_on_c, 4, 60, 127
1, 70671, Note_on_c, 4, 52, 127
1, 70698, Note_off_c, 4, 60, 64
1, 70715, Note_off_c, 4, 52, 64
1, 70716, Note_on_c, 4, 53, 127
1, 70760, Note_off_c, 4, 53, 64
1, 70761, Note_on_c, 4, 56, 127
1, 70805, Note_on_c, 4, 47, 127
1, 70834, Note_off_c, 4, 56, 64
1, 70849, Note_off_c, 4, 47, 64
1, 70850, Note_on_c, 4, 48, 127
1, 70895, Note_off_c, 4, 48, 64
1, 70895, Note_on_c, 4, 53, 127
1, 70940, Note_on_c, 4, 43, 127
1, 70967, Note_off_c, 4, 53, 64
1, 70982, Note_off_c, 4, 43, 64
1, 70982, Note_on_c, 4, 44, 127
1, 71027, Note_off_c, 4, 44, 64
1, 71028, Note_on_c, 4, 48, 127
1, 71070, Note_on_c, 4, 40, 127
1, 71082, Note_off_c, 4, 41, 64
1, 71099, Note_off_c, 4, 48, 64
1, 71114, Note_off_c, 4, 40, 64
1, 71115, Note_on_c, 4, 41, 127
1, 71254, Note_off_c, 4, 29, 64
1, 71323, Note_off_c, 4, 41, 64
1, 71323, Note_on_c, 4, 36, 127
1, 71391, Note_on_c, 4, 44, 127
1, 71460, Note_off_c, 4, 36, 64
1, 71460, Note_on_c, 4, 41, 127
1, 71465, Note_off_c, 4, 44, 64
1, 71526, Note_on_c, 4, 48, 127
1, 71593, Note_off_c, 4, 41, 64
1, 71594, Note_on_c, 4, 44, 127
1, 71600, Note_off_c, 4, 48, 64
1, 71662, Note_on_c, 4, 53, 127
1, 71731, Note_off_c, 4, 44, 64
1, 71731, Note_on_c, 4, 48, 127
1, 71737, Note_off_c, 4, 53, 64
1, 71801, Note_on_c, 4, 56, 127
1, 71868, Note_off_c, 4, 48, 64
1, 71868, Note_on_c, 4, 53, 127
1, 71873, Note_off_c, 4, 56, 64
1, 71934, Note_on_c, 4, 60, 127
1, 72003, Note_off_c, 4, 53, 64
1, 72004, Note_on_c, 4, 56, 127
1, 72008, Note_off_c, 4, 60, 64
1, 72072, Note_on_c, 4, 65, 123
1, 72137, Note_off_c, 4, 56, 64
1, 72137, Note_on_c, 4, 60, 127
1, 72144, Note_off_c, 4, 65, 64
1, 72203, Note_on_c, 2, 68, 123
1, 72270, Note_off_c, 4, 60, 64
1, 72271, Note_on_c, 4, 65, 123
1, 72277, Note_off_c, 2, 68, 64
1, 72338, Note_on_c, 2, 72, 124
1, 72406, Note_off_c, 4, 65, 64
1, 72406, Note_on_c, 2, 68, 123
1, 72410, Note_off_c, 2, 72, 64
1, 72472, Note_on_c, 2, 77, 124
1, 72539, Note_off_c, 2, 68, 64
1, 72540, Note_on_c, 2, 72, 124
1, 72544, Note_off_c, 2, 77, 64
1, 72605, Note_on_c, 1, 80, 123
1, 72671, Note_off_c, 2, 72, 64
1, 72672, Note_on_c, 2, 77, 124
1, 72675, Note_off_c, 1, 80, 64
1, 72737, Note_on_c, 1, 84, 123
1, 72743, Note_off_c, 2, 77, 64
1, 72875, Note_on_c, 3, 65, 123
1, 72876, Note_on_c, 4, 56, 127
1, 72876, Note_on_c, 4, 60, 127
1, 73014, Note_off_c, 1, 84, 64
1, 73014, Note_on_c, 1, 87, 123
1, 73143, Note_off_c, 4, 60, 64
1, 73149, Note_off_c, 4, 56, 64
1, 73150, Note_off_c, 3, 65, 64
1, 73150, Note_on_c, 3, 66, 123
1, 73151, Note_on_c, 4, 57, 127
1, 73151, Note_on_c, 4, 60, 127
1, 73288, Note_off_c, 4, 57, 64
1, 73289, Note_off_c, 3, 66, 64
1, 73289, Note_off_c, 4, 60, 64
1, 73290, Note_off_c, 1, 87, 64
1, 73290, Note_on_c, 3, 67, 123
1, 73291, Note_on_c, 4, 58, 127
1, 73291, Note_on_c, 3, 63, 127
1, 73358, Note_on_c, 3, 70, 125
1, 73364, Note_off_c, 3, 67, 64
1, 73426, Note_on_c, 1, 82, 118
1, 73431, Note_off_c, 3, 70, 64
1, 73493, Note_on_c, 1, 81, 113
1, 73499, Note_off_c, 1, 82, 64
1, 73556, Note_on_c, 1, 80, 113
1, 73562, Note_off_c, 1, 81, 64
1, 73621, Note_on_c, 1, 79, 116
1, 73627, Note_off_c, 1, 80, 64
1, 73687, Note_on_c, 1, 78, 114
1, 73692, Note_off_c, 1, 79, 64
1, 73756, Note_on_c, 2, 77, 124
1, 73762, Note_off_c, 1, 78, 64
1, 73810, Note_off_c, 2, 77, 64
1, 73825, Note_on_c, 2, 77, 124
1, 73894, Note_on_c, 2, 75, 120
1, 73900, Note_off_c, 2, 77, 64
1, 73944, Note_off_c, 4, 58, 64
1, 73954, Note_off_c, 2, 75, 64
1, 73968, Note_off_c, 3, 63, 64
1, 73969, Note_on_c, 2, 75, 120
1, 73970, Note_on_c, 4, 58, 127
1, 73970, Note_on_c, 4, 67, 123
1, 74111, Note_off_c, 4, 67, 64
1, 74112, Note_on_c, 2, 68, 123
1, 74252, Note_off_c, 2, 75, 64
1, 74252, Note_on_c, 1, 79, 117
1, 74253, Note_on_c, 2, 74, 120
1, 74326, Note_on_c, 2, 77, 120
1, 74334, Note_off_c, 1, 79, 64
1, 74395, Note_off_c, 2, 74, 64
1, 74396, Note_off_c, 4, 58, 64
1, 74396, Note_off_c, 2, 68, 64
1, 74397, Note_on_c, 4, 63, 127
1, 74397, Note_on_c, 2, 75, 120
1, 74401, Note_off_c, 2, 77, 64
1, 74464, Note_on_c, 2, 70, 125
1, 74530, Note_off_c, 4, 63, 64
1, 74534, Note_on_c, 4, 67, 123
1, 74596, Note_off_c, 2, 75, 64
1, 74598, Note_off_c, 2, 70, 64
1, 74602, Note_on_c, 2, 70, 125
1, 74602, Note_on_c, 2, 75, 120
1, 74666, Note_off_c, 4, 67, 64
1, 74670, Note_on_c, 2, 76, 120
1, 74670, Note_on_c, 4, 62, 127
1, 74675, Note_off_c, 2, 75, 64
1, 74734, Note_off_c, 2, 70, 64
1, 74738, Note_on_c, 2, 77, 120
1, 74738, Note_on_c, 2, 70, 125
1, 74743, Note_off_c, 2, 76, 64
1, 74802, Note_off_c, 4, 62, 64
1, 74806, Note_on_c, 2, 68, 123
1, 74871, Note_off_c, 2, 70, 64
1, 74872, Note_off_c, 2, 77, 64
1, 74874, Note_on_c, 2, 77, 120
1, 74875, Note_on_c, 2, 70, 125
1, 74939, Note_off_c, 2, 68, 64
1, 74943, Note_on_c, 1, 78, 115
1, 74943, Note_on_c, 4, 63, 127
1, 74949, Note_off_c, 2, 77, 64
1, 75007, Note_off_c, 2, 70, 64
1, 75011, Note_on_c, 2, 70, 125
1, 75011, Note_on_c, 1, 79, 117
1, 75017, Note_off_c, 1, 78, 64
1, 75077, Note_off_c, 4, 63, 64
1, 75081, Note_on_c, 4, 67, 123
1, 75144, Note_off_c, 2, 70, 64
1, 75145, Note_off_c, 1, 79, 64
1, 75150, Note_on_c, 1, 79, 117
1, 75150, Note_on_c, 2, 70, 125
1, 75214, Note_off_c, 4, 67, 64
1, 75218, Note_on_c, 1, 82, 119
1, 75218, Note_on_c, 4, 53, 127
1, 75225, Note_off_c, 1, 79, 64
1, 75284, Note_off_c, 2, 70, 64
1, 75288, Note_on_c, 1, 80, 119
1, 75289, Note_on_c, 4, 62, 127
1, 75295, Note_off_c, 1, 82, 64
1, 75352, Note_off_c, 4, 53, 64
1, 75357, Note_on_c, 4, 56, 127
1, 75420, Note_off_c, 1, 80, 64
1, 75420, Note_off_c, 4, 62, 64
1, 75425, Note_on_c, 1, 80, 119
1, 75425, Note_on_c, 4, 62, 127
1, 75487, Note_off_c, 4, 56, 64
1, 75491, Note_on_c, 1, 81, 119
1, 75492, Note_on_c, 4, 55, 127
1, 75496, Note_off_c, 1, 80, 64
1, 75557, Note_off_c, 4, 62, 64
1, 75561, Note_on_c, 1, 82, 119
1, 75562, Note_on_c, 4, 63, 127
1, 75566, Note_off_c, 1, 81, 64
1, 75625, Note_off_c, 4, 55, 64
1, 75629, Note_on_c, 4, 58, 127
1, 75695, Note_off_c, 1, 82, 64
1, 75695, Note_off_c, 4, 63, 64
1, 75699, Note_on_c, 1, 82, 119
1, 75700, Note_on_c, 4, 63, 127
1, 75763, Note_off_c, 4, 58, 64
1, 75768, Note_on_c, 4, 56, 127
1, 75768, Note_on_c, 1, 83, 119
1, 75774, Note_off_c, 1, 82, 64
1, 75833, Note_off_c, 4, 63, 64
1, 75838, Note_on_c, 4, 63, 127
1, 75838, Note_on_c, 1, 84, 119
1, 75842, Note_off_c, 1, 83, 64
1, 75902, Note_off_c, 4, 56, 64
1, 75906, Note_on_c, 4, 60, 127
1, 75970, Note_off_c, 4, 63, 64
1, 75971, Note_off_c, 1, 84, 64
1, 75974, Note_on_c, 4, 63, 127
1, 75974, Note_on_c, 1, 87, 123
1, 76036, Note_off_c, 1, 87, 64
1, 76038, Note_off_c, 4, 60, 64
1, 76042, Note_on_c, 1, 87, 123
1, 76043, Note_on_c, 4, 58, 127
1, 76106, Note_off_c, 4, 63, 64
1, 76110, Note_on_c, 2, 75, 124
1, 76111, Note_on_c, 4, 67, 123
1, 76117, Note_off_c, 1, 87, 64
1, 76175, Note_off_c, 2, 75, 64
1, 76176, Note_off_c, 4, 58, 64
1, 76180, Note_on_c, 2, 75, 124
1, 76181, Note_on_c, 4, 63, 127
1, 76245, Note_off_c, 4, 67, 64
1, 76249, Note_on_c, 4, 67, 123
1, 76314, Note_off_c, 4, 63, 64
1, 76320, Note_on_c, 4, 58, 127
1, 76385, Note_off_c, 4, 67, 64
1, 76389, Note_on_c, 2, 68, 123
1, 76454, Note_off_c, 4, 58, 64
1, 76458, Note_off_c, 2, 75, 64
1, 76458, Note_on_c, 1, 79, 117
1, 76459, Note_on_c, 4, 62, 127
1, 76525, Note_off_c, 2, 68, 64
1, 76529, Note_on_c, 2, 68, 123
1, 76529, Note_on_c, 2, 77, 120
1, 76536, Note_off_c, 1, 79, 64
1, 76591, Note_off_c, 4, 62, 64
1, 76595, Note_on_c, 2, 75, 120
1, 76596, Note_on_c, 4, 51, 127
1, 76602, Note_off_c, 2, 77, 64
1, 76642, Note_off_c, 2, 68, 64
1, 76650, Note_off_c, 2, 75, 64
1, 76665, Note_on_c, 2, 75, 120
1, 76666, Note_on_c, 4, 58, 127
1, 76718, Note_off_c, 2, 75, 64
1, 76728, Note_off_c, 4, 51, 64
1, 76731, Note_on_c, 2, 75, 120
1, 76732, Note_on_c, 4, 55, 127
1, 76736, Note_off_c, 4, 58, 64
1, 76748, Note_on_c, 2, 77, 120
1, 76750, Note_off_c, 2, 75, 64
1, 76767, Note_on_c, 2, 75, 120
1, 76769, Note_off_c, 2, 77, 64
1, 76784, Note_on_c, 2, 77, 120
1, 76786, Note_off_c, 2, 75, 64
1, 76801, Note_on_c, 2, 74, 120
1, 76802, Note_on_c, 4, 58, 127
1, 76804, Note_off_c, 2, 77, 64
1, 76837, Note_on_c, 2, 75, 120
1, 76843, Note_off_c, 2, 74, 64
1, 76868, Note_off_c, 4, 55, 64
1, 76872, Note_on_c, 2, 77, 120
1, 76872, Note_on_c, 4, 50, 127
1, 76876, Note_off_c, 2, 75, 64
1, 76877, Note_off_c, 4, 58, 64
1, 76925, Note_off_c, 2, 77, 64
1, 76939, Note_on_c, 2, 77, 120
1, 76939, Note_on_c, 4, 58, 127
1, 76993, Note_off_c, 2, 77, 64
1, 77003, Note_off_c, 4, 50, 64
1, 77007, Note_on_c, 4, 56, 127
1, 77007, Note_on_c, 2, 77, 120
1, 77012, Note_off_c, 4, 58, 64
1, 77023, Note_on_c, 1, 79, 117
1, 77025, Note_off_c, 2, 77, 64
1, 77040, Note_on_c, 2, 77, 120
1, 77042, Note_off_c, 1, 79, 64
1, 77058, Note_on_c, 1, 79, 117
1, 77062, Note_off_c, 2, 77, 64
1, 77077, Note_on_c, 2, 75, 120
1, 77077, Note_on_c, 4, 58, 127
1, 77078, Note_off_c, 1, 79, 64
1, 77111, Note_on_c, 2, 77, 120
1, 77114, Note_off_c, 2, 75, 64
1, 77141, Note_off_c, 4, 56, 64
1, 77146, Note_on_c, 1, 79, 117
1, 77146, Note_on_c, 4, 51, 127
1, 77148, Note_off_c, 2, 77, 64
1, 77190, Note_off_c, 4, 58, 64
1, 77200, Note_off_c, 1, 79, 64
1, 77213, Note_on_c, 1, 79, 117
1, 77214, Note_on_c, 4, 58, 127
1, 77268, Note_off_c, 1, 79, 64
1, 77278, Note_off_c, 4, 51, 64
1, 77281, Note_on_c, 1, 79, 117
1, 77282, Note_on_c, 4, 55, 127
1, 77288, Note_off_c, 4, 58, 64
1, 77300, Note_on_c, 1, 80, 119
1, 77302, Note_off_c, 1, 79, 64
1, 77319, Note_on_c, 1, 79, 117
1, 77321, Note_off_c, 1, 80, 64
1, 77337, Note_on_c, 1, 80, 119
1, 77338, Note_off_c, 1, 79, 64
1, 77353, Note_on_c, 2, 77, 120
1, 77354, Note_on_c, 4, 58, 127
1, 77360, Note_off_c, 1, 80, 64
1, 77389, Note_on_c, 1, 79, 117
1, 77393, Note_off_c, 2, 77, 64
1, 77420, Note_off_c, 4, 55, 64
1, 77424, Note_on_c, 4, 53, 127
1, 77424, Note_on_c, 1, 80, 119
1, 77428, Note_off_c, 1, 79, 64
1, 77454, Note_off_c, 4, 58, 64
1, 77478, Note_off_c, 1, 80, 64
1, 77492, Note_on_c, 1, 80, 119
1, 77493, Note_on_c, 4, 62, 127
1, 77546, Note_off_c, 1, 80, 64
1, 77556, Note_off_c, 4, 53, 64
1, 77560, Note_on_c, 1, 80, 123
1, 77560, Note_on_c, 4, 58, 127
1, 77565, Note_off_c, 4, 62, 64
1, 77579, Note_on_c, 1, 82, 123
1, 77586, Note_off_c, 1, 80, 64
1, 77595, Note_on_c, 1, 80, 123
1, 77603, Note_off_c, 1, 82, 64
1, 77613, Note_on_c, 1, 82, 123
1, 77622, Note_off_c, 1, 80, 64
1, 77632, Note_on_c, 1, 79, 121
1, 77633, Note_on_c, 4, 62, 127
1, 77637, Note_off_c, 4, 58, 64
1, 77639, Note_off_c, 1, 82, 64
1, 77649, Note_on_c, 1, 80, 123
1, 77652, Note_off_c, 1, 79, 64
1, 77700, Note_on_c, 1, 82, 123
1, 77701, Note_on_c, 4, 58, 127
1, 77701, Note_on_c, 4, 63, 127
1, 77702, Note_off_c, 4, 62, 64
1, 77702, Note_on_c, 4, 55, 127
1, 77707, Note_off_c, 1, 80, 64
1, 77749, Note_on_c, 1, 84, 123
1, 77755, Note_off_c, 1, 82, 64
1, 77797, Note_on_c, 1, 86, 123
1, 77803, Note_off_c, 1, 84, 64
1, 77842, Note_on_c, 1, 87, 123
1, 77847, Note_off_c, 1, 86, 64
1, 77888, Note_on_c, 1, 86, 123
1, 77893, Note_off_c, 1, 87, 64
1, 77930, Note_on_c, 1, 84, 123
1, 77936, Note_off_c, 1, 86, 64
1, 77974, Note_on_c, 1, 82, 123
1, 77980, Note_off_c, 1, 84, 64
1, 78018, Note_on_c, 1, 80, 123
1, 78024, Note_off_c, 1, 82, 64
1, 78064, Note_on_c, 1, 79, 121
1, 78070, Note_off_c, 1, 80, 64
1, 78110, Note_on_c, 2, 77, 124
1, 78116, Note_off_c, 1, 79, 64
1, 78156, Note_on_c, 2, 75, 124
1, 78162, Note_off_c, 2, 77, 64
1, 78202, Note_on_c, 2, 74, 124
1, 78207, Note_off_c, 2, 75, 64
1, 78246, Note_on_c, 2, 72, 124
1, 78255, Note_off_c, 2, 74, 64
1, 78261, Note_off_c, 4, 55, 64
1, 78262, Note_off_c, 4, 63, 64
1, 78262, Note_off_c, 4, 58, 64
1, 78383, Note_off_c, 2, 72, 64
1, 78387, Note_on_c, 1, 84, 123
1, 78388, Note_on_c, 2, 75, 124
1, 78388, Note_on_c, 1, 80, 123
1, 78389, Note_on_c, 4, 56, 127
1, 78522, Note_off_c, 2, 75, 64
1, 78526, Note_off_c, 4, 56, 64
1, 78527, Note_off_c, 1, 84, 64
1, 78527, Note_off_c, 1, 80, 64
1, 78528, Note_on_c, 1, 82, 123
1, 78528, Note_on_c, 1, 79, 121
1, 78528, Note_on_c, 2, 75, 124
1, 78529, Note_on_c, 4, 58, 127
1, 78665, Note_off_c, 4, 58, 64
1, 78666, Note_off_c, 2, 75, 64
1, 78666, Note_off_c, 1, 79, 64
1, 78667, Note_off_c, 1, 82, 64
1, 78667, Note_on_c, 2, 74, 124
1, 78668, Note_on_c, 4, 65, 123
1, 78668, Note_on_c, 2, 68, 123
1, 78669, Note_on_c, 4, 46, 127
1, 78804, Note_off_c, 2, 68, 64
1, 78804, Note_off_c, 4, 65, 64
1, 78804, Note_off_c, 4, 46, 64
1, 78805, Note_off_c, 2, 74, 64
1, 78805, Note_on_c, 2, 75, 124
1, 78806, Note_on_c, 4, 51, 127
1, 78806, Note_on_c, 4, 67, 123
1, 78942, Note_off_c, 4, 67, 64
1, 78942, Note_off_c, 2, 75, 64
1, 78943, Note_on_c, 1, 82, 123
1, 78977, Note_on_c, 1, 80, 123
1, 78993, Note_off_c, 1, 82, 64
1, 79044, Note_on_c, 1, 79, 121
1, 79050, Note_off_c, 1, 80, 64
1, 79077, Note_on_c, 2, 77, 124
1, 79094, Note_off_c, 1, 79, 64
1, 79112, Note_on_c, 2, 75, 124
1, 79129, Note_off_c, 2, 77, 64
1, 79182, Note_on_c, 2, 74, 124
1, 79188, Note_off_c, 2, 75, 64
1, 79216, Note_off_c, 4, 51, 64
1, 79217, Note_on_c, 2, 75, 124
1, 79217, Note_on_c, 4, 67, 123
1, 79218, Note_on_c, 4, 63, 127
1, 79234, Note_off_c, 2, 74, 64
1, 79251, Note_on_c, 2, 73, 124
1, 79268, Note_off_c, 2, 75, 64
1, 79320, Note_on_c, 2, 71, 125
1, 79326, Note_off_c, 2, 73, 64
1, 79351, Note_off_c, 4, 63, 64
1, 79355, Note_off_c, 4, 67, 64
1, 79355, Note_on_c, 2, 72, 124
1, 79356, Note_on_c, 4, 63, 127
1, 79356, Note_on_c, 2, 68, 123
1, 79372, Note_off_c, 2, 71, 64
1, 79493, Note_off_c, 2, 72, 64
1, 79493, Note_on_c, 1, 84, 123
1, 79528, Note_on_c, 1, 82, 123
1, 79546, Note_off_c, 1, 84, 64
1, 79596, Note_on_c, 1, 80, 123
1, 79601, Note_off_c, 1, 82, 64
1, 79628, Note_off_c, 2, 68, 64
1, 79629, Note_on_c, 1, 79, 121
1, 79645, Note_off_c, 1, 80, 64
1, 79664, Note_on_c, 2, 77, 124
1, 79680, Note_off_c, 1, 79, 64
1, 79731, Note_on_c, 2, 75, 124
1, 79737, Note_off_c, 2, 77, 64
1, 79762, Note_off_c, 4, 63, 64
1, 79768, Note_on_c, 2, 74, 124
1, 79768, Note_on_c, 2, 68, 123
1, 79768, Note_on_c, 4, 65, 123
1, 79769, Note_on_c, 4, 63, 127
1, 79785, Note_off_c, 2, 75, 64
1, 79800, Note_on_c, 1, 80, 123
1, 79841, Note_off_c, 2, 74, 64
1, 79872, Note_on_c, 2, 77, 124
1, 79877, Note_off_c, 1, 80, 64
1, 79902, Note_off_c, 4, 63, 64
1, 79906, Note_off_c, 4, 65, 64
1, 79907, Note_off_c, 2, 68, 64
1, 79907, Note_on_c, 4, 67, 123
1, 79907, Note_on_c, 2, 75, 124
1, 79908, Note_on_c, 4, 63, 127
1, 79923, Note_off_c, 2, 77, 64
1, 80044, Note_off_c, 4, 67, 64
1, 80045, Note_off_c, 2, 75, 64
1, 80045, Note_on_c, 3, 70, 125
1, 80079, Note_on_c, 3, 68, 123
1, 80096, Note_off_c, 3, 70, 64
1, 80113, Note_off_c, 4, 63, 64
1, 80146, Note_on_c, 3, 67, 123
1, 80152, Note_off_c, 3, 68, 64
1, 80180, Note_on_c, 3, 65, 123
1, 80197, Note_off_c, 3, 67, 64
1, 80214, Note_on_c, 3, 63, 127
1, 80232, Note_off_c, 3, 65, 64
1, 80283, Note_on_c, 4, 62, 127
1, 80289, Note_off_c, 3, 63, 64
1, 80320, Note_on_c, 4, 55, 127
1, 80320, Note_on_c, 3, 63, 127
1, 80321, Note_on_c, 4, 51, 127
1, 80337, Note_off_c, 4, 62, 64
1, 80356, Note_on_c, 4, 61, 127
1, 80373, Note_off_c, 3, 63, 64
1, 80425, Note_on_c, 4, 59, 127
1, 80432, Note_off_c, 4, 61, 64
1, 80455, Note_off_c, 4, 51, 64
1, 80459, Note_off_c, 4, 55, 64
1, 80460, Note_on_c, 4, 51, 127
1, 80460, Note_on_c, 4, 56, 127
1, 80460, Note_on_c, 4, 60, 127
1, 80476, Note_off_c, 4, 59, 64
1, 80597, Note_off_c, 4, 60, 64
1, 80598, Note_on_c, 2, 72, 124
1, 80635, Note_on_c, 3, 70, 125
1, 80650, Note_off_c, 2, 72, 64
1, 80700, Note_on_c, 3, 68, 123
1, 80706, Note_off_c, 3, 70, 64
1, 80734, Note_off_c, 4, 56, 64
1, 80734, Note_on_c, 3, 67, 123
1, 80750, Note_off_c, 3, 68, 64
1, 80767, Note_on_c, 3, 65, 123
1, 80784, Note_off_c, 3, 67, 64
1, 80837, Note_on_c, 3, 63, 127
1, 80844, Note_off_c, 3, 65, 64
1, 80867, Note_off_c, 4, 51, 64
1, 80873, Note_on_c, 4, 56, 127
1, 80873, Note_on_c, 4, 62, 127
1, 80874, Note_on_c, 4, 51, 127
1, 80874, Note_on_c, 4, 53, 127
1, 80890, Note_off_c, 3, 63, 64
1, 80908, Note_on_c, 3, 68, 123
1, 80949, Note_off_c, 4, 62, 64
1, 80979, Note_on_c, 3, 65, 123
1, 80985, Note_off_c, 3, 68, 64
1, 81012, Note_off_c, 4, 51, 64
1, 81016, Note_off_c, 4, 56, 64
1, 81016, Note_off_c, 4, 53, 64
1, 81017, Note_on_c, 4, 55, 127
1, 81017, Note_on_c, 4, 63, 127
1, 81018, Note_on_c, 4, 51, 127
1, 81033, Note_off_c, 3, 65, 64
1, 81288, Note_off_c, 4, 63, 64
1, 81288, Note_on_c, 4, 67, 127
1, 81431, Note_off_c, 4, 67, 64
1, 81431, Note_on_c, 2, 70, 127
1, 81566, Note_off_c, 4, 51, 64
1, 81572, Note_off_c, 2, 70, 64
1, 81572, Note_on_c, 2, 75, 127
1, 81573, Note_on_c, 4, 39, 127
1, 81573, Note_on_c, 4, 51, 127
1, 81583, Note_off_c, 4, 55, 64
1, 81712, Note_off_c, 2, 75, 64
1, 81712, Note_on_c, 1, 79, 125
1, 81849, Note_off_c, 4, 39, 64
1, 81850, Note_off_c, 4, 51, 64
1, 81850, Note_on_c, 4, 55, 127
1, 81851, Note_on_c, 4, 43, 127
1, 81943, Note_off_c, 1, 79, 64
1, 81949, Note_on_c, 1, 79, 121
1, 81976, Note_off_c, 1, 79, 64
1, 81984, Note_off_c, 4, 43, 64
1, 81984, Note_off_c, 4, 55, 64
1, 81984, Note_on_c, 1, 79, 121
1, 81985, Note_on_c, 4, 46, 127
1, 81985, Note_on_c, 4, 58, 127
1, 81999, Note_off_c, 1, 79, 64
1, 82005, Note_on_c, 1, 80, 123
1, 82020, Note_off_c, 1, 80, 64
1, 82028, Note_on_c, 1, 79, 121
1, 82043, Note_off_c, 1, 79, 64
1, 82047, Note_on_c, 1, 80, 123
1, 82066, Note_on_c, 2, 77, 124
1, 82072, Note_off_c, 1, 80, 64
1, 82101, Note_on_c, 1, 79, 121
1, 82112, Note_off_c, 2, 77, 64
1, 82135, Note_off_c, 4, 46, 64
1, 82136, Note_off_c, 4, 58, 64
1, 82136, Note_on_c, 1, 82, 123
1, 82137, Note_on_c, 4, 63, 127
1, 82137, Note_on_c, 4, 51, 127
1, 82147, Note_off_c, 1, 79, 64
1, 82269, Note_off_c, 4, 51, 64
1, 82269, Note_off_c, 4, 63, 64
1, 82270, Note_off_c, 1, 82, 64
1, 82270, Note_on_c, 2, 75, 124
1, 82271, Note_on_c, 4, 55, 127
1, 82271, Note_on_c, 4, 67, 123
1, 82398, Note_off_c, 2, 75, 64
1, 82404, Note_on_c, 2, 75, 124
1, 82542, Note_off_c, 2, 75, 64
1, 82547, Note_on_c, 2, 75, 124
1, 82679, Note_off_c, 4, 55, 64
1, 82685, Note_off_c, 4, 67, 64
1, 82685, Note_off_c, 2, 75, 64
1, 82686, Note_on_c, 4, 62, 127
1, 82686, Note_on_c, 4, 65, 123
1, 82686, Note_on_c, 1, 80, 123
1, 82687, Note_on_c, 4, 55, 127
1, 82828, Note_off_c, 1, 80, 64
1, 82828, Note_on_c, 2, 71, 125
1, 82967, Note_off_c, 2, 71, 64
1, 82971, Note_on_c, 2, 71, 125
1, 83247, Note_off_c, 2, 71, 64
1, 83248, Note_off_c, 4, 62, 64
1, 83248, Note_off_c, 4, 55, 64
1, 83249, Note_off_c, 4, 65, 64
1, 83249, Note_on_c, 4, 60, 127
1, 83250, Note_on_c, 4, 36, 127
1, 83250, Note_on_c, 4, 48, 127
1, 83528, Note_off_c, 4, 36, 64
1, 83529, Note_off_c, 4, 60, 64
1, 83529, Note_off_c, 4, 48, 64
1, 83530, Note_on_c, 4, 64, 127
1, 83530, Note_on_c, 4, 52, 127
1, 83530, Note_on_c, 4, 40, 127
1, 83671, Note_off_c, 4, 40, 64
1, 83671, Note_off_c, 4, 52, 64
1, 83672, Note_off_c, 4, 64, 64
1, 83672, Note_on_c, 4, 67, 127
1, 83673, Note_on_c, 4, 43, 127
1, 83673, Note_on_c, 4, 55, 127
1, 83816, Note_off_c, 4, 55, 64
1, 83816, Note_off_c, 4, 43, 64
1, 83817, Note_off_c, 4, 67, 64
1, 83817, Note_on_c, 2, 72, 127
1, 83818, Note_on_c, 4, 60, 127
1, 83818, Note_on_c, 4, 48, 127
1, 83951, Note_off_c, 4, 48, 64
1, 83952, Note_off_c, 4, 60, 64
1, 83952, Note_off_c, 2, 72, 64
1, 83952, Note_on_c, 2, 76, 127
1, 83953, Note_on_c, 4, 52, 127
1, 83953, Note_on_c, 4, 64, 127
1, 84171, Note_off_c, 2, 76, 64
1, 84194, Note_on_c, 1, 79, 121
1, 84223, Note_off_c, 1, 79, 64
1, 84231, Note_off_c, 4, 64, 64
1, 84232, Note_on_c, 1, 79, 121
1, 84248, Note_off_c, 1, 79, 64
1, 84253, Note_on_c, 1, 80, 123
1, 84271, Note_off_c, 1, 80, 64
1, 84276, Note_on_c, 1, 79, 121
1, 84292, Note_off_c, 1, 79, 64
1, 84296, Note_on_c, 1, 80, 123
1, 84315, Note_on_c, 2, 77, 124
1, 84323, Note_off_c, 1, 80, 64
1, 84353, Note_on_c, 1, 79, 121
1, 84371, Note_off_c, 2, 77, 64
1, 84390, Note_off_c, 4, 52, 64
1, 84390, Note_on_c, 1, 82, 123
1, 84391, Note_on_c, 4, 34, 127
1, 84391, Note_on_c, 4, 46, 127
1, 84408, Note_off_c, 1, 79, 64
1, 84436, Note_on_c, 1, 84, 123
1, 84444, Note_off_c, 1, 82, 64
1, 84486, Note_on_c, 1, 85, 123
1, 84492, Note_off_c, 1, 84, 64
1, 84532, Note_on_c, 1, 84, 123
1, 84538, Note_off_c, 1, 85, 64
1, 84576, Note_on_c, 1, 82, 123
1, 84582, Note_off_c, 1, 84, 64
1, 84621, Note_on_c, 1, 80, 123
1, 84625, Note_off_c, 1, 82, 64
1, 84663, Note_off_c, 4, 34, 64
1, 84664, Note_off_c, 4, 46, 64
1, 84664, Note_on_c, 1, 79, 121
1, 84665, Note_on_c, 4, 40, 127
1, 84665, Note_on_c, 4, 52, 127
1, 84669, Note_off_c, 1, 80, 64
1, 84708, Note_on_c, 1, 80, 123
1, 84713, Note_off_c, 1, 79, 64
1, 84752, Note_on_c, 1, 82, 123
1, 84757, Note_off_c, 1, 80, 64
1, 84797, Note_off_c, 4, 40, 64
1, 84798, Note_off_c, 4, 52, 64
1, 84798, Note_on_c, 1, 80, 123
1, 84799, Note_on_c, 4, 55, 127
1, 84799, Note_on_c, 4, 43, 127
1, 84803, Note_off_c, 1, 82, 64
1, 84841, Note_on_c, 1, 79, 121
1, 84845, Note_off_c, 1, 80, 64
1, 84886, Note_on_c, 2, 77, 124
1, 84891, Note_off_c, 1, 79, 64
1, 84928, Note_off_c, 4, 43, 64
1, 84928, Note_off_c, 4, 55, 64
1, 84929, Note_on_c, 4, 58, 127
1, 84929, Note_on_c, 2, 76, 124
1, 84930, Note_on_c, 4, 46, 127
1, 84934, Note_off_c, 2, 77, 64
1, 84974, Note_on_c, 1, 79, 121
1, 84978, Note_off_c, 2, 76, 64
1, 85018, Note_on_c, 2, 76, 124
1, 85024, Note_off_c, 1, 79, 64
1, 85064, Note_off_c, 4, 46, 64
1, 85065, Note_off_c, 4, 58, 64
1, 85065, Note_on_c, 2, 73, 127
1, 85066, Note_on_c, 4, 49, 127
1, 85066, Note_on_c, 4, 61, 127
1, 85070, Note_off_c, 2, 76, 64
1, 85108, Note_on_c, 2, 76, 124
1, 85115, Note_off_c, 2, 73, 64
1, 85155, Note_on_c, 2, 73, 127
1, 85161, Note_off_c, 2, 76, 64
1, 85200, Note_on_c, 2, 70, 127
1, 85205, Note_off_c, 2, 73, 64
1, 85242, Note_on_c, 2, 73, 127
1, 85248, Note_off_c, 2, 70, 64
1, 85288, Note_on_c, 2, 70, 127
1, 85294, Note_off_c, 2, 73, 64
1, 85332, Note_on_c, 4, 67, 127
1, 85336, Note_off_c, 2, 70, 64
1, 85374, Note_on_c, 2, 70, 127
1, 85378, Note_off_c, 4, 67, 64
1, 85416, Note_on_c, 4, 67, 127
1, 85422, Note_off_c, 2, 70, 64
1, 85459, Note_off_c, 4, 61, 64
1, 85459, Note_off_c, 4, 49, 64
1, 85460, Note_on_c, 2, 68, 127
1, 85460, Note_on_c, 4, 53, 127
1, 85464, Note_off_c, 4, 67, 64
1, 85528, Note_on_c, 4, 60, 127
1, 85595, Note_off_c, 4, 53, 64
1, 85596, Note_on_c, 4, 56, 127
1, 85619, Note_off_c, 4, 60, 64
1, 85663, Note_off_c, 2, 68, 64
1, 85664, Note_on_c, 4, 60, 127
1, 85664, Note_on_c, 2, 70, 127
1, 85679, Note_off_c, 2, 70, 64
1, 85684, Note_on_c, 2, 68, 127
1, 85700, Note_off_c, 2, 68, 64
1, 85705, Note_on_c, 4, 67, 127
1, 85721, Note_off_c, 4, 67, 64
1, 85727, Note_on_c, 2, 68, 127
1, 85746, Note_off_c, 4, 56, 64
1, 85746, Note_on_c, 2, 70, 127
1, 85747, Note_on_c, 4, 55, 127
1, 85751, Note_off_c, 2, 68, 64
1, 85768, Note_off_c, 4, 60, 64
1, 85814, Note_on_c, 4, 60, 127
1, 85883, Note_off_c, 4, 55, 64
1, 85884, Note_off_c, 2, 70, 64
1, 85884, Note_on_c, 4, 58, 127
1, 85884, Note_on_c, 4, 64, 127
1, 85906, Note_off_c, 4, 60, 64
1, 85952, Note_on_c, 4, 60, 127
1, 86019, Note_off_c, 4, 58, 64
1, 86020, Note_off_c, 4, 64, 64
1, 86020, Note_on_c, 4, 65, 127
1, 86021, Note_on_c, 4, 56, 127
1, 86042, Note_off_c, 4, 60, 64
1, 86088, Note_on_c, 2, 68, 127
1, 86089, Note_on_c, 4, 60, 127
1, 86095, Note_off_c, 4, 65, 64
1, 86159, Note_off_c, 4, 56, 64
1, 86159, Note_on_c, 2, 72, 127
1, 86160, Note_on_c, 4, 53, 127
1, 86165, Note_off_c, 2, 68, 64
1, 86183, Note_off_c, 4, 60, 64
1, 86229, Note_on_c, 4, 60, 127
1, 86296, Note_off_c, 4, 53, 64
1, 86296, Note_on_c, 4, 52, 127
1, 86320, Note_off_c, 4, 60, 64
1, 86364, Note_off_c, 2, 72, 64
1, 86364, Note_on_c, 2, 71, 127
1, 86365, Note_on_c, 4, 60, 127
1, 86430, Note_off_c, 4, 52, 64
1, 86431, Note_on_c, 2, 70, 127
1, 86431, Note_on_c, 4, 48, 127
1, 86437, Note_off_c, 2, 71, 64
1, 86455, Note_off_c, 4, 60, 64
1, 86497, Note_on_c, 4, 67, 127
1, 86498, Note_on_c, 4, 60, 127
1, 86504, Note_off_c, 2, 70, 64
1, 86559, Note_off_c, 4, 67, 64
1, 86566, Note_off_c, 4, 48, 64
1, 86566, Note_on_c, 2, 68, 127
1, 86567, Note_on_c, 4, 53, 127
1, 86589, Note_off_c, 4, 60, 64
1, 86635, Note_on_c, 4, 60, 127
1, 86704, Note_off_c, 4, 53, 64
1, 86704, Note_on_c, 4, 56, 127
1, 86726, Note_off_c, 4, 60, 64
1, 86772, Note_off_c, 2, 68, 64
1, 86772, Note_on_c, 2, 70, 127
1, 86773, Note_on_c, 4, 60, 127
1, 86792, Note_off_c, 2, 70, 64
1, 86794, Note_on_c, 2, 68, 127
1, 86813, Note_off_c, 2, 68, 64
1, 86816, Note_on_c, 4, 67, 127
1, 86831, Note_off_c, 4, 67, 64
1, 86832, Note_on_c, 2, 68, 127
1, 86850, Note_off_c, 4, 56, 64
1, 86851, Note_on_c, 4, 55, 127
1, 86851, Note_on_c, 2, 70, 127
1, 86856, Note_off_c, 2, 68, 64
1, 86873, Note_off_c, 4, 60, 64
1, 86917, Note_on_c, 4, 60, 127
1, 86983, Note_off_c, 2, 70, 64
1, 86983, Note_off_c, 4, 55, 64
1, 86984, Note_on_c, 4, 64, 127
1, 86984, Note_on_c, 4, 58, 127
1, 87006, Note_off_c, 4, 60, 64
1, 87052, Note_on_c, 4, 60, 127
1, 87119, Note_off_c, 4, 58, 64
1, 87120, Note_off_c, 4, 64, 64
1, 87120, Note_on_c, 4, 65, 127
1, 87120, Note_on_c, 4, 56, 127
1, 87142, Note_off_c, 4, 60, 64
1, 87188, Note_on_c, 2, 77, 124
1, 87189, Note_on_c, 4, 60, 127
1, 87193, Note_off_c, 4, 65, 64
1, 87257, Note_off_c, 4, 56, 64
1, 87258, Note_on_c, 4, 53, 127
1, 87258, Note_on_c, 2, 75, 127
1, 87264, Note_off_c, 2, 77, 64
1, 87279, Note_off_c, 4, 60, 64
1, 87324, Note_on_c, 4, 60, 127
1, 87324, Note_on_c, 2, 73, 127
1, 87328, Note_off_c, 2, 75, 64
1, 87390, Note_off_c, 4, 53, 64
1, 87390, Note_on_c, 2, 72, 127
1, 87390, Note_on_c, 4, 52, 127
1, 87395, Note_off_c, 2, 73, 64
1, 87410, Note_off_c, 4, 60, 64
1, 87454, Note_on_c, 2, 71, 127
1, 87455, Note_on_c, 4, 60, 127
1, 87461, Note_off_c, 2, 72, 64
1, 87522, Note_off_c, 4, 52, 64
1, 87523, Note_on_c, 4, 48, 127
1, 87523, Note_on_c, 2, 70, 127
1, 87527, Note_off_c, 2, 71, 64
1, 87544, Note_off_c, 4, 60, 64
1, 87588, Note_on_c, 4, 67, 127
1, 87589, Note_on_c, 4, 60, 127
1, 87595, Note_off_c, 2, 70, 64
1, 87649, Note_off_c, 4, 67, 64
1, 87657, Note_off_c, 4, 48, 64
1, 87657, Note_on_c, 2, 68, 127
1, 87658, Note_on_c, 4, 53, 127
1, 87681, Note_off_c, 4, 60, 64
1, 87704, Note_on_c, 4, 56, 127
1, 87709, Note_off_c, 4, 53, 64
1, 87752, Note_on_c, 4, 60, 127
1, 87757, Note_off_c, 4, 56, 64
1, 87800, Note_on_c, 4, 58, 127
1, 87806, Note_off_c, 4, 60, 64
1, 87845, Note_on_c, 4, 56, 127
1, 87851, Note_off_c, 4, 58, 64
1, 87891, Note_on_c, 4, 55, 127
1, 87897, Note_off_c, 4, 56, 64
1, 87937, Note_off_c, 2, 68, 64
1, 87937, Note_on_c, 2, 72, 127
1, 87938, Note_on_c, 4, 53, 127
1, 87942, Note_off_c, 4, 55, 64
1, 87980, Note_on_c, 4, 56, 127
1, 87986, Note_off_c, 4, 53, 64
1, 88024, Note_on_c, 4, 60, 127
1, 88030, Note_off_c, 4, 56, 64
1, 88072, Note_off_c, 2, 72, 64
1, 88073, Note_on_c, 4, 58, 127
1, 88073, Note_on_c, 2, 77, 127
1, 88079, Note_off_c, 4, 60, 64
1, 88119, Note_on_c, 4, 56, 127
1, 88125, Note_off_c, 4, 58, 64
1, 88164, Note_on_c, 4, 55, 127
1, 88170, Note_off_c, 4, 56, 64
1, 88209, Note_off_c, 2, 77, 64
1, 88209, Note_on_c, 1, 80, 127
1, 88210, Note_on_c, 4, 53, 127
1, 88215, Note_off_c, 4, 55, 64
1, 88256, Note_on_c, 4, 56, 127
1, 88261, Note_off_c, 4, 53, 64
1, 88302, Note_on_c, 4, 60, 127
1, 88308, Note_off_c, 4, 56, 64
1, 88350, Note_off_c, 1, 80, 64
1, 88350, Note_on_c, 1, 84, 123
1, 88351, Note_on_c, 4, 58, 127
1, 88355, Note_off_c, 4, 60, 64
1, 88395, Note_on_c, 4, 56, 127
1, 88401, Note_off_c, 4, 58, 64
1, 88439, Note_on_c, 4, 55, 127
1, 88445, Note_off_c, 4, 56, 64
1, 88486, Note_on_c, 4, 53, 127
1, 88490, Note_off_c, 4, 55, 64
1, 88528, Note_on_c, 4, 55, 127
1, 88534, Note_off_c, 4, 53, 64
1, 88574, Note_on_c, 4, 53, 127
1, 88580, Note_off_c, 4, 55, 64
1, 88620, Note_on_c, 4, 51, 127
1, 88625, Note_off_c, 4, 53, 64
1, 88664, Note_on_c, 4, 53, 127
1, 88669, Note_off_c, 4, 51, 64
1, 88710, Note_on_c, 4, 51, 127
1, 88716, Note_off_c, 4, 53, 64
1, 88750, Note_off_c, 1, 84, 64
1, 88756, Note_on_c, 4, 50, 127
1, 88756, Note_on_c, 1, 84, 119
1, 88757, Note_on_c, 4, 38, 127
1, 88761, Note_off_c, 4, 51, 64
1, 88801, Note_on_c, 1, 86, 119
1, 88807, Note_off_c, 1, 84, 64
1, 88847, Note_on_c, 1, 87, 119
1, 88853, Note_off_c, 1, 86, 64
1, 88895, Note_on_c, 1, 86, 119
1, 88899, Note_off_c, 1, 87, 64
1, 88937, Note_on_c, 1, 84, 119
1, 88943, Note_off_c, 1, 86, 64
1, 88981, Note_on_c, 1, 82, 119
1, 88987, Note_off_c, 1, 84, 64
1, 89028, Note_off_c, 4, 50, 64
1, 89028, Note_off_c, 4, 38, 64
1, 89028, Note_on_c, 1, 81, 119
1, 89029, Note_on_c, 4, 42, 127
1, 89029, Note_on_c, 4, 54, 127
1, 89034, Note_off_c, 1, 82, 64
1, 89074, Note_on_c, 1, 82, 119
1, 89079, Note_off_c, 1, 81, 64
1, 89120, Note_on_c, 1, 84, 119
1, 89124, Note_off_c, 1, 82, 64
1, 89166, Note_off_c, 4, 54, 64
1, 89166, Note_off_c, 4, 42, 64
1, 89167, Note_on_c, 4, 57, 127
1, 89167, Note_on_c, 1, 82, 119
1, 89168, Note_on_c, 4, 45, 127
1, 89172, Note_off_c, 1, 84, 64
1, 89210, Note_on_c, 1, 81, 119
1, 89216, Note_off_c, 1, 82, 64
1, 89256, Note_on_c, 1, 79, 117
1, 89262, Note_off_c, 1, 81, 64
1, 89301, Note_off_c, 4, 57, 64
1, 89301, Note_off_c, 4, 45, 64
1, 89302, Note_on_c, 1, 78, 115
1, 89302, Note_on_c, 4, 62, 127
1, 89303, Note_on_c, 4, 50, 127
1, 89307, Note_off_c, 1, 79, 64
1, 89346, Note_on_c, 1, 81, 119
1, 89352, Note_off_c, 1, 78, 64
1, 89392, Note_on_c, 1, 78, 115
1, 89398, Note_off_c, 1, 81, 64
1, 89436, Note_off_c, 4, 50, 64
1, 89436, Note_off_c, 4, 62, 64
1, 89436, Note_on_c, 2, 75, 124
1, 89437, Note_on_c, 4, 54, 127
1, 89437, Note_on_c, 4, 66, 123
1, 89441, Note_off_c, 1, 78, 64
1, 89479, Note_on_c, 1, 81, 119
1, 89485, Note_off_c, 2, 75, 64
1, 89527, Note_on_c, 2, 75, 124
1, 89531, Note_off_c, 1, 81, 64
1, 89571, Note_on_c, 2, 74, 124
1, 89577, Note_off_c, 2, 75, 64
1, 89616, Note_on_c, 1, 81, 119
1, 89621, Note_off_c, 2, 74, 64
1, 89662, Note_on_c, 2, 74, 124
1, 89667, Note_off_c, 1, 81, 64
1, 89706, Note_on_c, 2, 72, 127
1, 89712, Note_off_c, 2, 74, 64
1, 89750, Note_on_c, 1, 81, 119
1, 89756, Note_off_c, 2, 72, 64
1, 89796, Note_on_c, 2, 72, 127
1, 89802, Note_off_c, 1, 81, 64
1, 89840, Note_off_c, 4, 54, 64
1, 89841, Note_off_c, 4, 66, 64
1, 89841, Note_on_c, 2, 70, 127
1, 89842, Note_on_c, 4, 55, 127
1, 89846, Note_off_c, 2, 72, 64
1, 89886, Note_on_c, 4, 58, 127
1, 89892, Note_off_c, 4, 55, 64
1, 89932, Note_on_c, 4, 62, 127
1, 89938, Note_off_c, 4, 58, 64
1, 89978, Note_on_c, 4, 60, 127
1, 89984, Note_off_c, 4, 62, 64
1, 90024, Note_on_c, 4, 58, 127
1, 90029, Note_off_c, 4, 60, 64
1, 90068, Note_on_c, 4, 57, 127
1, 90074, Note_off_c, 4, 58, 64
1, 90111, Note_off_c, 2, 70, 64
1, 90111, Note_on_c, 2, 74, 127
1, 90112, Note_on_c, 4, 55, 127
1, 90118, Note_off_c, 4, 57, 64
1, 90156, Note_on_c, 4, 58, 127
1, 90162, Note_off_c, 4, 55, 64
1, 90200, Note_on_c, 4, 62, 127
1, 90207, Note_off_c, 4, 58, 64
1, 90245, Note_off_c, 2, 74, 64
1, 90246, Note_on_c, 2, 77, 124
1, 90246, Note_on_c, 4, 60, 127
1, 90252, Note_off_c, 4, 62, 64
1, 90288, Note_on_c, 4, 58, 127
1, 90294, Note_off_c, 4, 60, 64
1, 90331, Note_on_c, 4, 57, 127
1, 90336, Note_off_c, 4, 58, 64
1, 90371, Note_off_c, 2, 77, 64
1, 90372, Note_on_c, 1, 82, 123
1, 90372, Note_on_c, 4, 55, 127
1, 90378, Note_off_c, 4, 57, 64
1, 90418, Note_on_c, 4, 58, 127
1, 90424, Note_off_c, 4, 55, 64
1, 90462, Note_on_c, 4, 62, 127
1, 90468, Note_off_c, 4, 58, 64
1, 90507, Note_on_c, 1, 86, 123
1, 90510, Note_off_c, 1, 82, 64
1, 90511, Note_on_c, 4, 60, 127
1, 90515, Note_off_c, 4, 62, 64
1, 90553, Note_on_c, 4, 58, 127
1, 90559, Note_off_c, 4, 60, 64
1, 90598, Note_on_c, 4, 57, 127
1, 90603, Note_off_c, 4, 58, 64
1, 90644, Note_on_c, 4, 55, 127
1, 90649, Note_off_c, 4, 57, 64
1, 90690, Note_on_c, 4, 58, 127
1, 90707, Note_off_c, 4, 55, 64
1, 90736, Note_on_c, 4, 62, 127
1, 90753, Note_off_c, 4, 58, 64
1, 90782, Note_on_c, 4, 55, 127
1, 90828, Note_on_c, 4, 58, 127
1, 90834, Note_off_c, 4, 62, 64
1, 90845, Note_off_c, 4, 55, 64
1, 90872, Note_on_c, 4, 62, 127
1, 90889, Note_off_c, 4, 58, 64
1, 90914, Note_off_c, 1, 86, 64
1, 90919, Note_on_c, 4, 53, 127
1, 90919, Note_on_c, 2, 71, 127
1, 90963, Note_on_c, 4, 59, 127
1, 90969, Note_off_c, 4, 62, 64
1, 90983, Note_off_c, 4, 53, 64
1, 91009, Note_on_c, 4, 62, 127
1, 91029, Note_off_c, 4, 59, 64
1, 91056, Note_on_c, 4, 55, 127
1, 91102, Note_on_c, 4, 59, 127
1, 91108, Note_off_c, 4, 62, 64
1, 91121, Note_off_c, 4, 55, 64
1, 91148, Note_on_c, 4, 62, 127
1, 91167, Note_off_c, 4, 59, 64
1, 91194, Note_off_c, 2, 71, 64
1, 91194, Note_on_c, 2, 74, 127
1, 91195, Note_on_c, 4, 56, 127
1, 91239, Note_on_c, 4, 59, 127
1, 91245, Note_off_c, 4, 62, 64
1, 91256, Note_off_c, 4, 56, 64
1, 91282, Note_on_c, 4, 62, 127
1, 91300, Note_off_c, 4, 59, 64
1, 91325, Note_off_c, 2, 74, 64
1, 91326, Note_on_c, 2, 77, 127
1, 91326, Note_on_c, 4, 55, 127
1, 91370, Note_on_c, 4, 59, 127
1, 91376, Note_off_c, 4, 62, 64
1, 91387, Note_off_c, 4, 55, 64
1, 91416, Note_on_c, 4, 62, 127
1, 91433, Note_off_c, 4, 59, 64
1, 91460, Note_off_c, 2, 77, 64
1, 91460, Note_on_c, 1, 83, 127
1, 91461, Note_on_c, 4, 53, 127
1, 91507, Note_on_c, 4, 59, 127
1, 91512, Note_off_c, 4, 62, 64
1, 91524, Note_off_c, 4, 53, 64
1, 91553, Note_on_c, 4, 62, 127
1, 91570, Note_off_c, 4, 59, 64
1, 91599, Note_off_c, 1, 83, 64
1, 91599, Note_on_c, 1, 86, 123
1, 91600, Note_on_c, 4, 55, 127
1, 91644, Note_on_c, 4, 59, 127
1, 91650, Note_off_c, 4, 62, 64
1, 91662, Note_off_c, 4, 55, 64
1, 91691, Note_on_c, 4, 62, 127
1, 91708, Note_off_c, 4, 59, 64
1, 91737, Note_on_c, 4, 56, 127
1, 91782, Note_on_c, 4, 59, 127
1, 91788, Note_off_c, 4, 62, 64
1, 91800, Note_off_c, 4, 56, 64
1, 91828, Note_on_c, 4, 62, 127
1, 91845, Note_off_c, 4, 59, 64
1, 91874, Note_on_c, 4, 53, 127
1, 91918, Note_on_c, 4, 59, 127
1, 91924, Note_off_c, 4, 62, 64
1, 91935, Note_off_c, 4, 53, 64
1, 91964, Note_on_c, 4, 62, 127
1, 91981, Note_off_c, 4, 59, 64
1, 92008, Note_off_c, 1, 86, 64
1, 92009, Note_on_c, 2, 72, 127
1, 92009, Note_on_c, 4, 51, 127
1, 92055, Note_on_c, 4, 55, 127
1, 92061, Note_off_c, 4, 62, 64
1, 92073, Note_off_c, 4, 51, 64
1, 92100, Note_on_c, 4, 60, 127
1, 92118, Note_off_c, 4, 55, 64
1, 92147, Note_on_c, 4, 53, 127
1, 92191, Note_on_c, 4, 56, 127
1, 92196, Note_off_c, 4, 60, 64
1, 92208, Note_off_c, 4, 53, 64
1, 92235, Note_on_c, 4, 60, 127
1, 92254, Note_off_c, 4, 56, 64
1, 92281, Note_off_c, 2, 72, 64
1, 92281, Note_on_c, 2, 75, 127
1, 92282, Note_on_c, 4, 51, 127
1, 92326, Note_on_c, 4, 55, 127
1, 92332, Note_off_c, 4, 60, 64
1, 92345, Note_off_c, 4, 51, 64
1, 92372, Note_on_c, 4, 60, 127
1, 92389, Note_off_c, 4, 55, 64
1, 92416, Note_off_c, 2, 75, 64
1, 92417, Note_on_c, 1, 79, 125
1, 92417, Note_on_c, 4, 50, 127
1, 92460, Note_on_c, 4, 53, 127
1, 92465, Note_off_c, 4, 60, 64
1, 92477, Note_off_c, 4, 50, 64
1, 92504, Note_on_c, 4, 60, 127
1, 92519, Note_off_c, 4, 53, 64
1, 92546, Note_off_c, 1, 79, 64
1, 92546, Note_on_c, 1, 84, 127
1, 92547, Note_on_c, 4, 51, 127
1, 92590, Note_on_c, 4, 55, 127
1, 92596, Note_off_c, 4, 60, 64
1, 92607, Note_off_c, 4, 51, 64
1, 92634, Note_on_c, 4, 60, 127
1, 92652, Note_off_c, 4, 55, 64
1, 92680, Note_off_c, 1, 84, 64
1, 92681, Note_on_c, 1, 87, 123
1, 92681, Note_on_c, 4, 50, 127
1, 92724, Note_on_c, 4, 53, 127
1, 92729, Note_off_c, 4, 60, 64
1, 92741, Note_off_c, 4, 50, 64
1, 92770, Note_on_c, 4, 60, 127
1, 92787, Note_off_c, 4, 53, 64
1, 92814, Note_on_c, 4, 51, 127
1, 92860, Note_on_c, 4, 55, 127
1, 92864, Note_off_c, 4, 60, 64
1, 92877, Note_off_c, 4, 51, 64
1, 92904, Note_on_c, 4, 60, 127
1, 92921, Note_off_c, 4, 55, 64
1, 92950, Note_on_c, 4, 48, 127
1, 92992, Note_on_c, 4, 51, 127
1, 92998, Note_off_c, 4, 60, 64
1, 93010, Note_off_c, 4, 48, 64
1, 93036, Note_on_c, 4, 55, 127
1, 93054, Note_off_c, 4, 51, 64
1, 93081, Note_off_c, 1, 87, 64
1, 93081, Note_on_c, 2, 74, 127
1, 93082, Note_on_c, 4, 62, 127
1, 93082, Note_on_c, 4, 47, 127
1, 93100, Note_off_c, 4, 55, 64
1, 93129, Note_on_c, 4, 50, 127
1, 93148, Note_off_c, 4, 47, 64
1, 93177, Note_on_c, 4, 55, 127
1, 93194, Note_off_c, 4, 50, 64
1, 93223, Note_on_c, 4, 48, 127
1, 93242, Note_off_c, 4, 55, 64
1, 93271, Note_on_c, 4, 50, 127
1, 93288, Note_off_c, 4, 48, 64
1, 93316, Note_on_c, 4, 55, 127
1, 93335, Note_off_c, 4, 50, 64
1, 93364, Note_off_c, 2, 74, 64
1, 93364, Note_off_c, 4, 62, 64
1, 93365, Note_on_c, 2, 77, 124
1, 93365, Note_on_c, 4, 65, 123
1, 93366, Note_on_c, 4, 47, 127
1, 93382, Note_off_c, 4, 55, 64
1, 93409, Note_on_c, 4, 50, 127
1, 93426, Note_off_c, 4, 47, 64
1, 93453, Note_on_c, 4, 55, 127
1, 93471, Note_off_c, 4, 50, 64
1, 93499, Note_off_c, 4, 65, 64
1, 93500, Note_off_c, 2, 77, 64
1, 93500, Note_on_c, 1, 79, 121
1, 93501, Note_on_c, 4, 67, 123
1, 93501, Note_on_c, 4, 45, 127
1, 93516, Note_off_c, 4, 55, 64
1, 93545, Note_on_c, 4, 50, 127
1, 93564, Note_off_c, 4, 45, 64
1, 93591, Note_on_c, 4, 55, 127
1, 93611, Note_off_c, 4, 50, 64
1, 93639, Note_off_c, 4, 67, 64
1, 93640, Note_off_c, 1, 79, 64
1, 93640, Note_on_c, 1, 86, 123
1, 93641, Note_on_c, 2, 74, 127
1, 93641, Note_on_c, 4, 47, 127
1, 93657, Note_off_c, 4, 55, 64
1, 93685, Note_on_c, 4, 50, 127
1, 93703, Note_off_c, 4, 47, 64
1, 93732, Note_on_c, 4, 55, 127
1, 93751, Note_off_c, 4, 50, 64
1, 93780, Note_off_c, 2, 74, 64
1, 93780, Note_off_c, 1, 86, 64
1, 93780, Note_on_c, 1, 89, 123
1, 93781, Note_on_c, 4, 43, 127
1, 93781, Note_on_c, 2, 77, 124
1, 93797, Note_off_c, 4, 55, 64
1, 94160, Note_off_c, 1, 89, 64
1, 94161, Note_off_c, 2, 77, 64
1, 94164, Note_on_c, 2, 77, 124
1, 94303, Note_off_c, 2, 77, 64
1, 94303, Note_on_c, 1, 80, 123
1, 94439, Note_off_c, 1, 80, 64
1, 94439, Note_on_c, 2, 71, 125
1, 94440, Note_off_c, 4, 43, 64
1, 94440, Note_on_c, 4, 62, 127
1, 94712, Note_off_c, 2, 71, 64
1, 94713, Note_on_c, 2, 74, 124
1, 94848, Note_off_c, 2, 74, 64
1, 94848, Note_on_c, 2, 77, 124
1, 94983, Note_off_c, 2, 77, 64
1, 94983, Note_on_c, 2, 68, 123
1, 94984, Note_on_c, 4, 59, 127
1, 94993, Note_off_c, 4, 62, 64
1, 95261, Note_off_c, 2, 68, 64
1, 95262, Note_on_c, 2, 71, 125
1, 95399, Note_off_c, 2, 71, 64
1, 95399, Note_on_c, 2, 74, 124
1, 95538, Note_off_c, 2, 74, 64
1, 95538, Note_on_c, 3, 62, 127
1, 95548, Note_off_c, 4, 59, 64
1, 95675, Note_off_c, 3, 62, 64
1, 95676, Note_on_c, 3, 65, 123
1, 95812, Note_off_c, 3, 65, 64
1, 95813, Note_on_c, 4, 53, 127
1, 95813, Note_on_c, 4, 56, 127
1, 95814, Note_on_c, 4, 46, 127
1, 95814, Note_on_c, 4, 50, 127
1, 95815, Note_on_c, 4, 34, 127
1, 96359, Note_off_c, 4, 46, 64
1, 96359, Note_off_c, 4, 34, 64
1, 96360, Note_off_c, 4, 56, 64
1, 96360, Note_off_c, 4, 53, 64
1, 96360, Note_off_c, 4, 50, 64
1, 96361, Note_on_c, 4, 55, 127
1, 96782, Note_off_c, 4, 55, 64
1, 96815, Note_on_c, 4, 60, 127
1, 96816, Note_on_c, 4, 36, 127
1, 96816, Note_on_c, 4, 48, 127
1, 97092, Note_off_c, 4, 36, 64
1, 97093, Note_off_c, 4, 60, 64
1, 97093, Note_off_c, 4, 48, 64
1, 97094, Note_on_c, 4, 51, 127
1, 97094, Note_on_c, 4, 63, 127
1, 97095, Note_on_c, 4, 39, 127
1, 97232, Note_off_c, 4, 51, 64
1, 97232, Note_off_c, 4, 39, 64
1, 97233, Note_off_c, 4, 63, 64
1, 97233, Note_on_c, 4, 67, 123
1, 97234, Note_on_c, 4, 55, 127
1, 97234, Note_on_c, 4, 43, 127
1, 97367, Note_off_c, 4, 43, 64
1, 97368, Note_off_c, 4, 55, 64
1, 97368, Note_off_c, 4, 67, 64
1, 97368, Note_on_c, 2, 72, 120
1, 97369, Note_on_c, 4, 60, 127
1, 97501, Note_off_c, 4, 60, 64
1, 97502, Note_off_c, 2, 72, 64
1, 97502, Note_on_c, 2, 75, 120
1, 97503, Note_on_c, 4, 63, 127
1, 97701, Note_off_c, 2, 75, 64
1, 97734, Note_on_c, 2, 75, 116
1, 97764, Note_off_c, 2, 75, 64
1, 97772, Note_on_c, 2, 75, 116
1, 97791, Note_on_c, 2, 77, 116
1, 97793, Note_off_c, 2, 75, 64
1, 97811, Note_on_c, 2, 75, 116
1, 97812, Note_off_c, 2, 77, 64
1, 97828, Note_on_c, 2, 77, 116
1, 97832, Note_off_c, 2, 75, 64
1, 97847, Note_on_c, 2, 74, 116
1, 97849, Note_off_c, 2, 77, 64
1, 97876, Note_off_c, 2, 74, 64
1, 97884, Note_on_c, 2, 75, 116
1, 97916, Note_off_c, 4, 63, 64
1, 97917, Note_on_c, 1, 79, 113
1, 97921, Note_off_c, 2, 75, 64
1, 98055, Note_off_c, 1, 79, 64
1, 98056, Note_on_c, 4, 67, 123
1, 98056, Note_on_c, 2, 72, 116
1, 98057, Note_on_c, 4, 63, 127
1, 98188, Note_off_c, 4, 67, 64
1, 98188, Note_off_c, 4, 63, 64
1, 98189, Note_off_c, 2, 72, 64
1, 98191, Note_on_c, 2, 72, 116
1, 98192, Note_on_c, 4, 67, 123
1, 98192, Note_on_c, 4, 63, 127
1, 98321, Note_off_c, 4, 63, 64
1, 98322, Note_off_c, 4, 67, 64
1, 98322, Note_off_c, 2, 72, 64
1, 98326, Note_on_c, 2, 72, 116
1, 98327, Note_on_c, 4, 63, 127
1, 98327, Note_on_c, 4, 67, 123
1, 98463, Note_on_c, 1, 80, 115
1, 98464, Note_off_c, 4, 63, 64
1, 98465, Note_off_c, 2, 72, 64
1, 98465, Note_off_c, 4, 67, 64
1, 98601, Note_off_c, 1, 80, 64
1, 98601, Note_on_c, 2, 71, 117
1, 98602, Note_on_c, 4, 65, 127
1, 98602, Note_on_c, 2, 68, 123
1, 98603, Note_on_c, 4, 62, 127
1, 98731, Note_off_c, 4, 62, 64
1, 98732, Note_off_c, 2, 68, 64
1, 98732, Note_off_c, 4, 65, 64
1, 98733, Note_off_c, 2, 71, 64
1, 98735, Note_on_c, 2, 71, 117
1, 98736, Note_on_c, 4, 62, 127
1, 98736, Note_on_c, 4, 65, 127
1, 98736, Note_on_c, 2, 68, 123
1, 99012, Note_off_c, 4, 65, 64
1, 99012, Note_off_c, 4, 62, 64
1, 99013, Note_off_c, 2, 71, 64
1, 99013, Note_off_c, 2, 68, 64
1, 99014, Note_on_c, 4, 43, 127
1, 99014, Note_on_c, 4, 55, 127
1, 99015, Note_on_c, 4, 31, 127
1, 99293, Note_off_c, 4, 31, 64
1, 99294, Note_off_c, 4, 55, 64
1, 99294, Note_off_c, 4, 43, 64
1, 99295, Note_on_c, 4, 47, 127
1, 99295, Note_on_c, 4, 59, 127
1, 99296, Note_on_c, 4, 35, 127
1, 99436, Note_off_c, 4, 35, 64
1, 99437, Note_off_c, 4, 59, 64
1, 99437, Note_off_c, 4, 47, 64
1, 99438, Note_on_c, 4, 62, 127
1, 99438, Note_on_c, 4, 50, 127
1, 99439, Note_on_c, 4, 38, 127
1, 99577, Note_off_c, 4, 38, 64
1, 99578, Note_off_c, 4, 50, 64
1, 99578, Note_off_c, 4, 62, 64
1, 99579, Note_on_c, 4, 55, 127
1, 99579, Note_on_c, 4, 67, 123
1, 99580, Note_on_c, 4, 43, 127
1, 99713, Note_off_c, 4, 55, 64
1, 99713, Note_off_c, 4, 43, 64
1, 99714, Note_off_c, 4, 67, 64
1, 99714, Note_on_c, 2, 71, 125
1, 99715, Note_on_c, 4, 47, 127
1, 99715, Note_on_c, 4, 59, 127
1, 99919, Note_off_c, 2, 71, 64
1, 99952, Note_on_c, 2, 74, 124
1, 99981, Note_off_c, 2, 74, 64
1, 99989, Note_off_c, 4, 59, 64
1, 99990, Note_on_c, 2, 74, 124
1, 100005, Note_off_c, 2, 74, 64
1, 100008, Note_on_c, 2, 75, 124
1, 100024, Note_off_c, 2, 75, 64
1, 100030, Note_on_c, 2, 74, 124
1, 100043, Note_off_c, 2, 74, 64
1, 100049, Note_on_c, 2, 75, 124
1, 100070, Note_on_c, 2, 72, 124
1, 100078, Note_off_c, 2, 75, 64
1, 100104, Note_on_c, 2, 74, 124
1, 100108, Note_off_c, 2, 72, 64
1, 100137, Note_off_c, 4, 47, 64
1, 100138, Note_on_c, 2, 77, 124
1, 100140, Note_off_c, 2, 74, 64
1, 100272, Note_off_c, 2, 77, 64
1, 100273, Note_on_c, 2, 68, 123
1, 100273, Note_on_c, 2, 71, 125
1, 100274, Note_on_c, 4, 62, 127
1, 100274, Note_on_c, 4, 65, 127
1, 100408, Note_off_c, 4, 65, 64
1, 100408, Note_off_c, 4, 62, 64
1, 100409, Note_off_c, 2, 71, 64
1, 100409, Note_off_c, 2, 68, 64
1, 100412, Note_on_c, 2, 71, 125
1, 100412, Note_on_c, 2, 68, 123
1, 100413, Note_on_c, 4, 65, 127
1, 100413, Note_on_c, 4, 62, 127
1, 100550, Note_off_c, 4, 62, 64
1, 100550, Note_off_c, 4, 65, 64
1, 100551, Note_off_c, 2, 68, 64
1, 100551, Note_off_c, 2, 71, 64
1, 100554, Note_on_c, 2, 68, 123
1, 100554, Note_on_c, 2, 71, 125
1, 100555, Note_on_c, 4, 62, 127
1, 100555, Note_on_c, 4, 65, 127
1, 100690, Note_on_c, 1, 79, 121
1, 100692, Note_off_c, 4, 65, 64
1, 100692, Note_off_c, 4, 62, 64
1, 100693, Note_off_c, 2, 71, 64
1, 100693, Note_off_c, 2, 68, 64
1, 100829, Note_off_c, 1, 79, 64
1, 100829, Note_on_c, 2, 72, 124
1, 100829, Note_on_c, 4, 67, 127
1, 100830, Note_on_c, 4, 63, 127
1, 100965, Note_off_c, 4, 63, 64
1, 100965, Note_off_c, 4, 67, 64
1, 100966, Note_off_c, 2, 72, 64
1, 100968, Note_on_c, 4, 63, 127
1, 100968, Note_on_c, 4, 67, 127
1, 100968, Note_on_c, 2, 72, 124
1, 101240, Note_off_c, 2, 72, 64
1, 101240, Note_off_c, 4, 67, 64
1, 101240, Note_off_c, 4, 63, 64
1, 101246, Note_on_c, 3, 67, 127
1, 101247, Note_on_c, 4, 43, 127
1, 101315, Note_on_c, 4, 55, 127
1, 101377, Note_off_c, 4, 43, 64
1, 101382, Note_on_c, 4, 43, 127
1, 101443, Note_off_c, 4, 55, 64
1, 101447, Note_on_c, 4, 55, 127
1, 101512, Note_off_c, 4, 43, 64
1, 101516, Note_on_c, 4, 43, 127
1, 101581, Note_off_c, 4, 55, 64
1, 101585, Note_on_c, 4, 55, 127
1, 101649, Note_off_c, 3, 67, 64
1, 101650, Note_off_c, 4, 43, 64
1, 101654, Note_on_c, 0, 75, 124
1, 101655, Note_on_c, 4, 43, 127
1, 101655, Note_on_c, 3, 67, 123
1, 101720, Note_off_c, 4, 55, 64
1, 101724, Note_on_c, 4, 55, 127
1, 101792, Note_off_c, 4, 43, 64
1, 101796, Note_off_c, 3, 67, 64
1, 101796, Note_on_c, 3, 66, 123
1, 101796, Note_on_c, 4, 43, 127
1, 101861, Note_off_c, 4, 55, 64
1, 101866, Note_on_c, 4, 55, 127
1, 101930, Note_off_c, 4, 43, 64
1, 101935, Note_off_c, 3, 66, 64
1, 101935, Note_off_c, 0, 75, 64
1, 101936, Note_on_c, 3, 65, 123
1, 101936, Note_on_c, 0, 74, 124
1, 101937, Note_on_c, 4, 43, 127
1, 102000, Note_off_c, 4, 55, 64
1, 102004, Note_on_c, 4, 55, 127
1, 102069, Note_off_c, 4, 43, 64
1, 102073, Note_off_c, 3, 65, 64
1, 102073, Note_on_c, 3, 64, 127
1, 102074, Note_on_c, 4, 43, 127
1, 102137, Note_off_c, 4, 55, 64
1, 102141, Note_on_c, 4, 55, 127
1, 102204, Note_off_c, 4, 43, 64
1, 102208, Note_off_c, 3, 64, 64
1, 102209, Note_off_c, 0, 74, 64
1, 102209, Note_on_c, 0, 72, 124
1, 102210, Note_on_c, 4, 43, 127
1, 102210, Note_on_c, 3, 63, 127
1, 102272, Note_off_c, 4, 55, 64
1, 102276, Note_on_c, 4, 55, 127
1, 102335, Note_off_c, 3, 63, 64
1, 102339, Note_off_c, 4, 43, 64
1, 102343, Note_on_c, 3, 62, 127
1, 102344, Note_on_c, 4, 43, 127
1, 102407, Note_off_c, 4, 55, 64
1, 102411, Note_on_c, 4, 55, 127
1, 102476, Note_off_c, 4, 43, 64
1, 102476, Note_off_c, 0, 72, 64
1, 102480, Note_on_c, 2, 71, 125
1, 102481, Note_on_c, 4, 43, 127
1, 102546, Note_off_c, 4, 55, 64
1, 102550, Note_on_c, 4, 55, 127
1, 102616, Note_off_c, 4, 43, 64
1, 102620, Note_on_c, 4, 43, 127
1, 102685, Note_off_c, 4, 55, 64
1, 102689, Note_on_c, 4, 55, 127
1, 102755, Note_off_c, 4, 43, 64
1, 102758, Note_off_c, 2, 71, 64
1, 102759, Note_on_c, 1, 79, 121
1, 102759, Note_on_c, 2, 75, 124
1, 102760, Note_on_c, 4, 43, 127
1, 102824, Note_off_c, 4, 55, 64
1, 102828, Note_on_c, 4, 55, 127
1, 102884, Note_off_c, 3, 62, 64
1, 102893, Note_off_c, 4, 43, 64
1, 102893, Note_off_c, 2, 75, 64
1, 102896, Note_off_c, 1, 79, 64
1, 102897, Note_on_c, 2, 75, 124
1, 102897, Note_on_c, 1, 78, 119
1, 102898, Note_on_c, 4, 43, 127
1, 102959, Note_off_c, 4, 55, 64
1, 102965, Note_on_c, 4, 55, 127
1, 103026, Note_off_c, 4, 43, 64
1, 103030, Note_off_c, 2, 75, 64
1, 103031, Note_off_c, 1, 78, 64
1, 103031, Note_on_c, 2, 77, 124
1, 103032, Note_on_c, 2, 74, 124
1, 103032, Note_on_c, 4, 43, 127
1, 103094, Note_off_c, 4, 55, 64
1, 103097, Note_on_c, 4, 55, 127
1, 103161, Note_off_c, 4, 43, 64
1, 103164, Note_off_c, 2, 77, 64
1, 103165, Note_on_c, 4, 43, 127
1, 103165, Note_on_c, 2, 76, 124
1, 103226, Note_off_c, 4, 55, 64
1, 103233, Note_on_c, 4, 55, 127
1, 103296, Note_off_c, 4, 43, 64
1, 103300, Note_off_c, 2, 76, 64
1, 103300, Note_off_c, 2, 74, 64
1, 103301, Note_on_c, 2, 75, 124
1, 103301, Note_on_c, 2, 72, 124
1, 103302, Note_on_c, 4, 43, 127
1, 103362, Note_off_c, 4, 55, 64
1, 103366, Note_on_c, 4, 55, 127
1, 103428, Note_off_c, 4, 43, 64
1, 103428, Note_off_c, 2, 72, 64
1, 103433, Note_off_c, 2, 75, 64
1, 103434, Note_on_c, 2, 74, 124
1, 103435, Note_on_c, 4, 43, 127
1, 103435, Note_on_c, 2, 72, 124
1, 103497, Note_off_c, 4, 55, 64
1, 103503, Note_on_c, 4, 55, 127
1, 103556, Note_off_c, 4, 55, 64
1, 103572, Note_off_c, 2, 72, 64
1, 103572, Note_on_c, 2, 71, 125
1, 103573, Note_on_c, 4, 55, 127
1, 103624, Note_off_c, 4, 55, 64
1, 103638, Note_on_c, 4, 55, 127
1, 103705, Note_off_c, 4, 43, 64
1, 103706, Note_on_c, 4, 41, 127
1, 103767, Note_off_c, 4, 55, 64
1, 103772, Note_on_c, 4, 53, 127
1, 103825, Note_off_c, 4, 53, 64
1, 103833, Note_off_c, 2, 71, 64
1, 103834, Note_off_c, 2, 74, 64
1, 103838, Note_on_c, 2, 74, 124
1, 103838, Note_on_c, 1, 80, 123
1, 103839, Note_on_c, 2, 71, 125
1, 103839, Note_on_c, 4, 53, 127
1, 103891, Note_off_c, 4, 53, 64
1, 103907, Note_on_c, 4, 53, 127
1, 103976, Note_off_c, 4, 41, 64
1, 103977, Note_on_c, 4, 39, 127
1, 104040, Note_off_c, 4, 53, 64
1, 104046, Note_on_c, 4, 51, 127
1, 104098, Note_off_c, 4, 51, 64
1, 104113, Note_off_c, 2, 71, 64
1, 104114, Note_off_c, 1, 80, 64
1, 104114, Note_off_c, 2, 74, 64
1, 104115, Note_on_c, 2, 75, 124
1, 104115, Note_on_c, 1, 79, 121
1, 104116, Note_on_c, 4, 51, 127
1, 104116, Note_on_c, 2, 72, 124
1, 104164, Note_off_c, 4, 51, 64
1, 104180, Note_on_c, 4, 51, 127
1, 104245, Note_off_c, 4, 39, 64
1, 104245, Note_on_c, 4, 35, 127
1, 104307, Note_off_c, 4, 51, 64
1, 104311, Note_on_c, 4, 47, 127
1, 104323, Note_off_c, 2, 75, 64
1, 104323, Note_off_c, 2, 72, 64
1, 104324, Note_off_c, 1, 79, 64
1, 104345, Note_on_c, 4, 67, 123
1, 104365, Note_off_c, 4, 47, 64
1, 104379, Note_on_c, 2, 74, 124
1, 104380, Note_on_c, 4, 47, 127
1, 104382, Note_off_c, 4, 67, 64
1, 104434, Note_off_c, 4, 47, 64
1, 104448, Note_on_c, 4, 47, 127
1, 104480, Note_off_c, 2, 74, 64
1, 104481, Note_on_c, 2, 77, 124
1, 104516, Note_off_c, 4, 35, 64
1, 104516, Note_on_c, 2, 75, 124
1, 104517, Note_on_c, 4, 36, 127
1, 104521, Note_off_c, 2, 77, 64
1, 104533, Note_on_c, 2, 77, 124
1, 104552, Note_on_c, 2, 74, 124
1, 104558, Note_off_c, 2, 75, 64
1, 104575, Note_off_c, 2, 77, 64
1, 104583, Note_off_c, 4, 47, 64
1, 104589, Note_on_c, 4, 48, 127
1, 104589, Note_on_c, 2, 75, 124
1, 104593, Note_off_c, 2, 74, 64
1, 104624, Note_on_c, 2, 77, 124
1, 104630, Note_off_c, 2, 75, 64
1, 104645, Note_off_c, 4, 48, 64
1, 104659, Note_on_c, 1, 79, 121
1, 104659, Note_on_c, 4, 48, 127
1, 104665, Note_off_c, 2, 77, 64
1, 104715, Note_off_c, 4, 48, 64
1, 104729, Note_on_c, 4, 48, 127
1, 104799, Note_off_c, 4, 36, 64
1, 104799, Note_on_c, 4, 41, 127
1, 104867, Note_off_c, 4, 48, 64
1, 104868, Note_on_c, 4, 53, 127
1, 104922, Note_off_c, 4, 53, 64
1, 104937, Note_off_c, 1, 79, 64
1, 104938, Note_on_c, 2, 74, 124
1, 104938, Note_on_c, 1, 80, 123
1, 104939, Note_on_c, 2, 71, 125
1, 104939, Note_on_c, 4, 53, 127
1, 104992, Note_off_c, 4, 53, 64
1, 105005, Note_on_c, 4, 53, 127
1, 105076, Note_off_c, 4, 41, 64
1, 105077, Note_on_c, 4, 39, 127
1, 105143, Note_off_c, 4, 53, 64
1, 105146, Note_on_c, 4, 51, 127
1, 105204, Note_off_c, 4, 51, 64
1, 105217, Note_off_c, 2, 71, 64
1, 105218, Note_off_c, 1, 80, 64
1, 105218, Note_off_c, 2, 74, 64
1, 105219, Note_on_c, 2, 75, 124
1, 105219, Note_on_c, 1, 79, 121
1, 105220, Note_on_c, 2, 72, 124
1, 105220, Note_on_c, 4, 51, 127
1, 105274, Note_off_c, 4, 51, 64
1, 105288, Note_on_c, 4, 51, 127
1, 105357, Note_off_c, 4, 39, 64
1, 105357, Note_on_c, 4, 38, 127
1, 105423, Note_off_c, 4, 51, 64
1, 105427, Note_on_c, 4, 50, 127
1, 105438, Note_off_c, 2, 72, 64
1, 105439, Note_off_c, 1, 79, 64
1, 105439, Note_off_c, 2, 75, 64
1, 105462, Note_on_c, 2, 77, 124
1, 105483, Note_off_c, 4, 50, 64
1, 105499, Note_on_c, 1, 83, 123
1, 105499, Note_on_c, 4, 50, 127
1, 105502, Note_off_c, 2, 77, 64
1, 105553, Note_off_c, 4, 50, 64
1, 105567, Note_on_c, 4, 50, 127
1, 105580, Note_off_c, 1, 83, 64
1, 105601, Note_on_c, 1, 86, 123
1, 105623, Note_off_c, 4, 50, 64
1, 105630, Note_off_c, 1, 86, 64
1, 105638, Note_off_c, 4, 38, 64
1, 105638, Note_on_c, 1, 87, 123
1, 105639, Note_on_c, 4, 48, 127
1, 105707, Note_on_c, 1, 79, 121
1, 105772, Note_off_c, 1, 87, 64
1, 105776, Note_on_c, 1, 84, 123
1, 105782, Note_off_c, 1, 79, 64
1, 105845, Note_on_c, 1, 79, 121
1, 105907, Note_off_c, 1, 84, 64
1, 105911, Note_off_c, 4, 48, 64
1, 105911, Note_on_c, 4, 53, 127
1, 105973, Note_off_c, 1, 79, 64
1, 105977, Note_on_c, 2, 77, 124
1, 106046, Note_on_c, 1, 80, 123
1, 106052, Note_off_c, 2, 77, 64
1, 106116, Note_on_c, 2, 74, 124
1, 106182, Note_off_c, 1, 80, 64
1, 106187, Note_off_c, 4, 53, 64
1, 106187, Note_on_c, 4, 55, 127
1, 106250, Note_off_c, 2, 74, 64
1, 106255, Note_on_c, 2, 75, 124
1, 106324, Note_on_c, 1, 79, 121
1, 106330, Note_off_c, 2, 75, 64
1, 106395, Note_on_c, 2, 72, 124
1, 106460, Note_off_c, 1, 79, 64
1, 106464, Note_off_c, 4, 55, 64
1, 106464, Note_on_c, 4, 43, 127
1, 106530, Note_off_c, 2, 72, 64
1, 106534, Note_on_c, 2, 74, 124
1, 106601, Note_on_c, 2, 77, 124
1, 106608, Note_off_c, 2, 74, 64
1, 106669, Note_on_c, 2, 71, 125
1, 106726, Note_off_c, 2, 71, 64
1, 106732, Note_off_c, 2, 77, 64
1, 106738, Note_on_c, 2, 72, 124
1, 106998, Note_off_c, 2, 72, 64
1, 106998, Note_on_c, 2, 75, 124
1, 106999, Note_on_c, 4, 60, 127
1, 107010, Note_off_c, 4, 43, 64
1, 107137, Note_off_c, 2, 75, 64
1, 107137, Note_on_c, 1, 79, 121
1, 107276, Note_off_c, 1, 79, 64
1, 107277, Note_off_c, 4, 60, 64
1, 107277, Note_on_c, 1, 84, 123
1, 107278, Note_on_c, 4, 63, 127
1, 107414, Note_off_c, 4, 63, 64
1, 107415, Note_off_c, 1, 84, 64
1, 107415, Note_on_c, 1, 87, 123
1, 107416, Note_on_c, 4, 67, 123
1, 107551, Note_off_c, 4, 67, 64
1, 107552, Note_off_c, 1, 87, 64
1, 107552, Note_on_c, 1, 80, 123
1, 107553, Note_on_c, 4, 44, 127
1, 107553, Note_on_c, 2, 72, 124
1, 107554, Note_on_c, 4, 32, 127
1, 107683, Note_off_c, 2, 72, 64
1, 107683, Note_off_c, 1, 80, 64
1, 107684, Note_on_c, 2, 75, 124
1, 107684, Note_on_c, 1, 84, 123
1, 107817, Note_off_c, 1, 84, 64
1, 107817, Note_off_c, 2, 75, 64
1, 107818, Note_off_c, 4, 44, 64
1, 107818, Note_off_c, 4, 32, 64
1, 107819, Note_on_c, 2, 77, 124
1, 107819, Note_on_c, 2, 68, 123
1, 107820, Note_on_c, 4, 48, 127
1, 107820, Note_on_c, 4, 36, 127
1, 107951, Note_off_c, 4, 36, 64
1, 107952, Note_off_c, 4, 48, 64
1, 107952, Note_off_c, 2, 68, 64
1, 107952, Note_off_c, 2, 77, 64
1, 107953, Note_on_c, 2, 72, 124
1, 107953, Note_on_c, 1, 80, 123
1, 107954, Note_on_c, 4, 41, 127
1, 107954, Note_on_c, 4, 53, 127
1, 108080, Note_off_c, 4, 53, 64
1, 108080, Note_off_c, 4, 41, 64
1, 108081, Note_off_c, 1, 80, 64
1, 108081, Note_off_c, 2, 72, 64
1, 108082, Note_on_c, 2, 73, 124
1, 108082, Note_on_c, 4, 65, 123
1, 108083, Note_on_c, 4, 44, 127
1, 108083, Note_on_c, 4, 56, 127
1, 108215, Note_off_c, 4, 65, 64
1, 108215, Note_off_c, 2, 73, 64
1, 108216, Note_on_c, 2, 68, 123
1, 108216, Note_on_c, 2, 77, 124
1, 108349, Note_off_c, 2, 77, 64
1, 108349, Note_off_c, 2, 68, 64
1, 108350, Note_on_c, 2, 72, 124
1, 108419, Note_on_c, 4, 66, 121
1, 108484, Note_on_c, 4, 63, 125
1, 108505, Note_off_c, 4, 66, 64
1, 108552, Note_on_c, 4, 66, 121
1, 108586, Note_off_c, 4, 56, 64
1, 108621, Note_on_c, 4, 56, 127
1, 108644, Note_off_c, 4, 66, 64
1, 108688, Note_on_c, 4, 66, 121
1, 108748, Note_off_c, 4, 63, 64
1, 108754, Note_off_c, 2, 72, 64
1, 108755, Note_on_c, 4, 63, 125
1, 108755, Note_on_c, 1, 80, 123
1, 108775, Note_off_c, 4, 66, 64
1, 108819, Note_on_c, 4, 66, 121
1, 108865, Note_off_c, 4, 44, 64
1, 108883, Note_off_c, 1, 80, 64
1, 108883, Note_off_c, 4, 56, 64
1, 108888, Note_on_c, 4, 56, 127
1, 108888, Note_on_c, 1, 80, 123
1, 108910, Note_off_c, 4, 66, 64
1, 108956, Note_on_c, 4, 65, 121
1, 109017, Note_off_c, 4, 63, 64
1, 109023, Note_on_c, 4, 61, 125
1, 109046, Note_off_c, 4, 65, 64
1, 109088, Note_off_c, 1, 80, 64
1, 109089, Note_on_c, 2, 77, 124
1, 109089, Note_on_c, 4, 65, 121
1, 109151, Note_off_c, 4, 56, 64
1, 109156, Note_on_c, 2, 73, 124
1, 109157, Note_on_c, 4, 56, 127
1, 109161, Note_off_c, 2, 77, 64
1, 109178, Note_off_c, 4, 65, 64
1, 109223, Note_on_c, 4, 65, 121
1, 109280, Note_off_c, 4, 61, 64
1, 109286, Note_on_c, 4, 61, 125
1, 109307, Note_off_c, 4, 65, 64
1, 109353, Note_on_c, 4, 65, 121
1, 109415, Note_off_c, 4, 56, 64
1, 109420, Note_off_c, 2, 73, 64
1, 109421, Note_on_c, 4, 56, 127
1, 109421, Note_on_c, 2, 72, 124
1, 109442, Note_off_c, 4, 65, 64
1, 109488, Note_on_c, 4, 66, 121
1, 109548, Note_off_c, 4, 61, 64
1, 109554, Note_on_c, 4, 63, 125
1, 109577, Note_off_c, 4, 66, 64
1, 109623, Note_on_c, 4, 66, 121
1, 109682, Note_off_c, 4, 56, 64
1, 109683, Note_off_c, 2, 72, 64
1, 109688, Note_on_c, 2, 72, 124
1, 109689, Note_on_c, 4, 56, 127
1, 109710, Note_off_c, 4, 66, 64
1, 109754, Note_on_c, 1, 80, 123
1, 109755, Note_on_c, 4, 66, 121
1, 109759, Note_off_c, 2, 72, 64
1, 109815, Note_off_c, 4, 63, 64
1, 109819, Note_on_c, 1, 82, 123
1, 109820, Note_on_c, 4, 63, 125
1, 109824, Note_off_c, 1, 80, 64
1, 109842, Note_off_c, 4, 66, 64
1, 109884, Note_on_c, 4, 66, 121
1, 109884, Note_on_c, 1, 80, 123
1, 109891, Note_off_c, 1, 82, 64
1, 109935, Note_off_c, 1, 80, 64
1, 109944, Note_off_c, 4, 56, 64
1, 109951, Note_on_c, 4, 56, 127
1, 109951, Note_on_c, 1, 80, 123
1, 109972, Note_off_c, 4, 66, 64
1, 110018, Note_on_c, 4, 65, 121
1, 110078, Note_off_c, 4, 63, 64
1, 110084, Note_on_c, 4, 61, 125
1, 110107, Note_off_c, 4, 65, 64
1, 110153, Note_off_c, 1, 80, 64
1, 110153, Note_on_c, 2, 77, 124
1, 110154, Note_on_c, 4, 65, 121
1, 110213, Note_off_c, 4, 56, 64
1, 110219, Note_on_c, 2, 73, 124
1, 110220, Note_on_c, 4, 56, 127
1, 110224, Note_off_c, 2, 77, 64
1, 110239, Note_off_c, 4, 65, 64
1, 110283, Note_on_c, 4, 65, 121
1, 110345, Note_off_c, 2, 73, 64
1, 110345, Note_off_c, 4, 61, 64
1, 110351, Note_on_c, 4, 61, 125
1, 110351, Note_on_c, 2, 73, 124
1, 110373, Note_off_c, 4, 65, 64
1, 110418, Note_on_c, 4, 65, 121
1, 110484, Note_off_c, 4, 65, 64
1, 110484, Note_off_c, 2, 73, 64
1, 110484, Note_off_c, 4, 56, 64
1, 110490, Note_on_c, 4, 66, 121
1, 110490, Note_on_c, 2, 73, 124
1, 110491, Note_on_c, 4, 60, 127
1, 110491, Note_on_c, 4, 63, 125
1, 110492, Note_off_c, 4, 61, 64
1, 110492, Note_on_c, 4, 57, 127
1, 110556, Note_on_c, 2, 71, 125
1, 110562, Note_off_c, 2, 73, 64
1, 110623, Note_on_c, 2, 72, 124
1, 110627, Note_off_c, 2, 71, 64
1, 110683, Note_on_c, 2, 74, 124
1, 110689, Note_off_c, 2, 72, 64
1, 110747, Note_on_c, 2, 77, 124
1, 110751, Note_off_c, 2, 74, 64
1, 110811, Note_on_c, 2, 75, 124
1, 110817, Note_off_c, 2, 77, 64
1, 110876, Note_on_c, 2, 74, 124
1, 110882, Note_off_c, 2, 75, 64
1, 110941, Note_on_c, 2, 72, 124
1, 110947, Note_off_c, 2, 74, 64
1, 111011, Note_on_c, 1, 79, 121
1, 111016, Note_off_c, 2, 72, 64
1, 111149, Note_off_c, 4, 60, 64
1, 111149, Note_off_c, 4, 57, 64
1, 111150, Note_off_c, 4, 66, 64
1, 111150, Note_off_c, 4, 63, 64
1, 111151, Note_on_c, 4, 59, 127
1, 111151, Note_on_c, 4, 55, 127
1, 111288, Note_off_c, 4, 55, 64
1, 111288, Note_off_c, 4, 59, 64
1, 111289, Note_on_c, 4, 56, 127
1, 111289, Note_on_c, 4, 60, 127
1, 111422, Note_off_c, 1, 79, 64
1, 111423, Note_on_c, 2, 72, 120
1, 111481, Note_off_c, 2, 72, 64
1, 111492, Note_on_c, 2, 72, 120
1, 111562, Note_on_c, 1, 79, 121
1, 111567, Note_off_c, 2, 72, 64
1, 111694, Note_off_c, 4, 56, 64
1, 111695, Note_off_c, 4, 60, 64
1, 111699, Note_on_c, 4, 59, 127
1, 111699, Note_on_c, 4, 55, 127
1, 111839, Note_off_c, 4, 55, 64
1, 111840, Note_off_c, 4, 59, 64
1, 111840, Note_on_c, 4, 56, 127
1, 111840, Note_on_c, 4, 60, 127
1, 111973, Note_off_c, 1, 79, 64
1, 111974, Note_on_c, 2, 72, 120
1, 112034, Note_off_c, 2, 72, 64
1, 112042, Note_on_c, 2, 72, 120
1, 112111, Note_off_c, 4, 60, 64
1, 112111, Note_off_c, 4, 56, 64
1, 112112, Note_on_c, 1, 79, 121
1, 112112, Note_on_c, 4, 59, 127
1, 112113, Note_on_c, 4, 55, 127
1, 112116, Note_off_c, 2, 72, 64
1, 112251, Note_off_c, 4, 55, 64
1, 112251, Note_off_c, 4, 59, 64
1, 112252, Note_on_c, 4, 60, 127
1, 112252, Note_on_c, 2, 72, 120
1, 112253, Note_on_c, 4, 56, 127
1, 112310, Note_off_c, 2, 72, 64
1, 112320, Note_on_c, 2, 72, 120
1, 112384, Note_off_c, 1, 79, 64
1, 112388, Note_off_c, 4, 56, 64
1, 112389, Note_off_c, 4, 60, 64
1, 112389, Note_on_c, 1, 79, 121
1, 112390, Note_on_c, 4, 59, 127
1, 112390, Note_on_c, 4, 55, 127
1, 112394, Note_off_c, 2, 72, 64
1, 112526, Note_off_c, 4, 55, 64
1, 112527, Note_off_c, 4, 59, 64
1, 112527, Note_on_c, 2, 72, 120
1, 112528, Note_on_c, 4, 56, 127
1, 112528, Note_on_c, 4, 60, 127
1, 112584, Note_off_c, 2, 72, 64
1, 112596, Note_on_c, 2, 72, 120
1, 112660, Note_off_c, 1, 79, 64
1, 112666, Note_off_c, 4, 60, 64
1, 112666, Note_off_c, 4, 56, 64
1, 112667, Note_on_c, 4, 59, 127
1, 112667, Note_on_c, 1, 79, 121
1, 112668, Note_off_c, 2, 72, 64
1, 112668, Note_on_c, 4, 55, 127
1, 112800, Note_off_c, 1, 79, 64
1, 112803, Note_on_c, 1, 79, 116
1, 112937, Note_off_c, 1, 79, 64
1, 112942, Note_on_c, 1, 79, 116
1, 113076, Note_off_c, 1, 79, 64
1, 113079, Note_on_c, 1, 79, 116
1, 113214, Note_off_c, 1, 79, 64
1, 113218, Note_on_c, 1, 79, 112
1, 113285, Note_on_c, 1, 78, 115
1, 113291, Note_off_c, 1, 79, 64
1, 113349, Note_on_c, 2, 77, 120
1, 113354, Note_off_c, 1, 78, 64
1, 113414, Note_on_c, 2, 74, 120
1, 113420, Note_off_c, 2, 77, 64
1, 113479, Note_on_c, 1, 79, 117
1, 113485, Note_off_c, 2, 74, 64
1, 113545, Note_on_c, 1, 78, 115
1, 113549, Note_off_c, 1, 79, 64
1, 113607, Note_on_c, 2, 77, 120
1, 113613, Note_off_c, 1, 78, 64
1, 113670, Note_on_c, 2, 74, 120
1, 113674, Note_off_c, 2, 77, 64
1, 113724, Note_off_c, 4, 55, 64
1, 113724, Note_off_c, 4, 59, 64
1, 113735, Note_on_c, 4, 63, 127
1, 113735, Note_on_c, 2, 72, 127
1, 113741, Note_off_c, 2, 74, 64
1, 113805, Note_on_c, 3, 67, 123
1, 113868, Note_off_c, 4, 63, 64
1, 113872, Note_on_c, 4, 63, 127
1, 113935, Note_off_c, 3, 67, 64
1, 113939, Note_off_c, 2, 72, 64
1, 113940, Note_on_c, 3, 67, 123
1, 113940, Note_on_c, 2, 74, 127
1, 113973, Note_on_c, 2, 72, 127
1, 113975, Note_off_c, 2, 74, 64
1, 114003, Note_off_c, 4, 63, 64
1, 114007, Note_on_c, 2, 71, 127
1, 114008, Note_on_c, 4, 62, 127
1, 114012, Note_off_c, 2, 72, 64
1, 114073, Note_off_c, 3, 67, 64
1, 114077, Note_on_c, 3, 67, 123
1, 114143, Note_off_c, 4, 62, 64
1, 114145, Note_off_c, 2, 71, 64
1, 114145, Note_on_c, 2, 72, 127
1, 114146, Note_on_c, 4, 63, 127
1, 114208, Note_off_c, 3, 67, 64
1, 114212, Note_on_c, 3, 67, 123
1, 114275, Note_off_c, 4, 63, 64
1, 114281, Note_off_c, 2, 72, 64
1, 114281, Note_on_c, 2, 73, 127
1, 114282, Note_on_c, 4, 64, 127
1, 114345, Note_off_c, 3, 67, 64
1, 114349, Note_on_c, 3, 67, 123
1, 114414, Note_off_c, 4, 64, 64
1, 114418, Note_on_c, 4, 64, 127
1, 114481, Note_off_c, 3, 67, 64
1, 114485, Note_on_c, 3, 67, 123
1, 114551, Note_off_c, 4, 64, 64
1, 114554, Note_off_c, 2, 73, 64
1, 114555, Note_on_c, 2, 74, 127
1, 114555, Note_on_c, 3, 65, 123
1, 114619, Note_off_c, 3, 67, 64
1, 114623, Note_on_c, 3, 67, 123
1, 114688, Note_off_c, 3, 65, 64
1, 114692, Note_on_c, 3, 65, 123
1, 114755, Note_off_c, 3, 67, 64
1, 114761, Note_on_c, 3, 67, 123
1, 114824, Note_off_c, 3, 65, 64
1, 114828, Note_off_c, 2, 74, 64
1, 114828, Note_on_c, 4, 62, 127
1, 114829, Note_on_c, 3, 53, 127
1, 114892, Note_off_c, 3, 67, 64
1, 114896, Note_on_c, 3, 67, 123
1, 114962, Note_off_c, 4, 62, 64
1, 114965, Note_on_c, 4, 62, 127
1, 115029, Note_off_c, 3, 67, 64
1, 115032, Note_off_c, 3, 53, 64
1, 115033, Note_on_c, 3, 67, 123
1, 115033, Note_on_c, 3, 52, 127
1, 115068, Note_on_c, 3, 53, 127
1, 115072, Note_off_c, 3, 52, 64
1, 115101, Note_off_c, 4, 62, 64
1, 115104, Note_on_c, 4, 62, 127
1, 115105, Note_on_c, 3, 55, 127
1, 115107, Note_off_c, 3, 53, 64
1, 115171, Note_off_c, 3, 67, 64
1, 115175, Note_on_c, 3, 53, 127
1, 115175, Note_on_c, 3, 67, 123
1, 115180, Note_off_c, 3, 55, 64
1, 115239, Note_off_c, 4, 62, 64
1, 115243, Note_on_c, 4, 63, 127
1, 115244, Note_on_c, 3, 51, 127
1, 115250, Note_off_c, 3, 53, 64
1, 115307, Note_off_c, 3, 67, 64
1, 115311, Note_on_c, 3, 67, 123
1, 115311, Note_on_c, 3, 50, 127
1, 115318, Note_off_c, 3, 51, 64
1, 115379, Note_off_c, 4, 63, 64
1, 115383, Note_on_c, 3, 65, 123
1, 115384, Note_on_c, 3, 48, 127
1, 115390, Note_off_c, 3, 50, 64
1, 115449, Note_off_c, 3, 67, 64
1, 115453, Note_on_c, 3, 67, 123
1, 115516, Note_off_c, 3, 65, 64
1, 115521, Note_on_c, 4, 62, 127
1, 115585, Note_off_c, 3, 67, 64
1, 115590, Note_on_c, 3, 67, 123
1, 115655, Note_off_c, 4, 62, 64
1, 115659, Note_off_c, 3, 48, 64
1, 115659, Note_on_c, 3, 65, 123
1, 115660, Note_on_c, 3, 47, 127
1, 115725, Note_off_c, 3, 67, 64
1, 115729, Note_on_c, 3, 67, 123
1, 115792, Note_off_c, 3, 65, 64
1, 115796, Note_on_c, 4, 62, 127
1, 115863, Note_off_c, 3, 67, 64
1, 115867, Note_on_c, 3, 67, 123
1, 115934, Note_off_c, 4, 62, 64
1, 115938, Note_off_c, 3, 47, 64
1, 115939, Note_on_c, 2, 74, 127
1, 115939, Note_on_c, 4, 59, 127
1, 116003, Note_off_c, 3, 67, 64
1, 116007, Note_on_c, 3, 67, 123
1, 116071, Note_off_c, 4, 59, 64
1, 116075, Note_on_c, 4, 59, 127
1, 116134, Note_off_c, 3, 67, 64
1, 116138, Note_off_c, 2, 74, 64
1, 116138, Note_on_c, 2, 75, 127
1, 116139, Note_on_c, 3, 67, 123
1, 116150, Note_off_c, 2, 75, 64
1, 116154, Note_on_c, 2, 74, 127
1, 116168, Note_off_c, 2, 74, 64
1, 116173, Note_on_c, 2, 72, 127
1, 116193, Note_on_c, 2, 74, 127
1, 116198, Note_off_c, 2, 72, 64
1, 116206, Note_off_c, 2, 74, 64
1, 116206, Note_off_c, 4, 59, 64
1, 116211, Note_on_c, 2, 75, 127
1, 116211, Note_on_c, 4, 60, 127
1, 116271, Note_off_c, 3, 67, 64
1, 116275, Note_on_c, 3, 67, 123
1, 116337, Note_off_c, 4, 60, 64
1, 116340, Note_off_c, 2, 75, 64
1, 116341, Note_on_c, 4, 62, 127
1, 116341, Note_on_c, 2, 77, 124
1, 116407, Note_off_c, 3, 67, 64
1, 116411, Note_on_c, 3, 67, 123
1, 116478, Note_off_c, 4, 62, 64
1, 116482, Note_off_c, 2, 77, 64
1, 116482, Note_on_c, 1, 78, 119
1, 116483, Note_on_c, 4, 62, 127
1, 116548, Note_off_c, 3, 67, 64
1, 116552, Note_on_c, 3, 67, 123
1, 116617, Note_off_c, 4, 62, 64
1, 116623, Note_on_c, 4, 62, 127
1, 116688, Note_off_c, 3, 67, 64
1, 116692, Note_on_c, 3, 67, 123
1, 116757, Note_off_c, 4, 62, 64
1, 116761, Note_off_c, 1, 78, 64
1, 116761, Note_on_c, 1, 79, 121
1, 116762, Note_on_c, 4, 63, 127
1, 116827, Note_off_c, 3, 67, 64
1, 116831, Note_on_c, 3, 67, 123
1, 116896, Note_off_c, 4, 63, 64
1, 116900, Note_on_c, 4, 63, 127
1, 116965, Note_off_c, 3, 67, 64
1, 116969, Note_on_c, 3, 67, 123
1, 117035, Note_off_c, 4, 63, 64
1, 117038, Note_off_c, 1, 79, 64
1, 117039, Note_on_c, 3, 55, 127
1, 117039, Note_on_c, 4, 63, 127
1, 117105, Note_off_c, 3, 67, 64
1, 117108, Note_on_c, 3, 67, 123
1, 117174, Note_off_c, 4, 63, 64
1, 117178, Note_on_c, 4, 60, 127
1, 117241, Note_off_c, 3, 67, 64
1, 117245, Note_off_c, 3, 55, 64
1, 117245, Note_on_c, 3, 67, 123
1, 117246, Note_on_c, 3, 54, 127
1, 117280, Note_on_c, 3, 55, 127
1, 117282, Note_off_c, 3, 54, 64
1, 117313, Note_off_c, 4, 60, 64
1, 117317, Note_on_c, 3, 56, 127
1, 117317, Note_on_c, 4, 63, 127
1, 117320, Note_off_c, 3, 55, 64
1, 117383, Note_off_c, 3, 67, 64
1, 117387, Note_on_c, 3, 67, 123
1, 117387, Note_on_c, 3, 55, 127
1, 117394, Note_off_c, 3, 56, 64
1, 117452, Note_off_c, 4, 63, 64
1, 117456, Note_on_c, 4, 60, 127
1, 117456, Note_on_c, 3, 53, 127
1, 117461, Note_off_c, 3, 55, 64
1, 117520, Note_off_c, 3, 67, 64
1, 117524, Note_on_c, 3, 67, 123
1, 117525, Note_on_c, 3, 51, 127
1, 117529, Note_off_c, 3, 53, 64
1, 117588, Note_off_c, 4, 60, 64
1, 117593, Note_on_c, 3, 50, 127
1, 117593, Note_on_c, 3, 65, 123
1, 117600, Note_off_c, 3, 51, 64
1, 117658, Note_off_c, 3, 67, 64
1, 117662, Note_on_c, 3, 67, 123
1, 117727, Note_off_c, 3, 65, 64
1, 117731, Note_on_c, 4, 62, 127
1, 117797, Note_off_c, 3, 67, 64
1, 117801, Note_on_c, 3, 67, 123
1, 117866, Note_off_c, 4, 62, 64
1, 117870, Note_off_c, 3, 50, 64
1, 117871, Note_on_c, 3, 48, 127
1, 117871, Note_on_c, 4, 63, 127
1, 117933, Note_off_c, 3, 67, 64
1, 117936, Note_on_c, 3, 67, 123
1, 118001, Note_off_c, 4, 63, 64
1, 118006, Note_on_c, 4, 60, 127
1, 118070, Note_off_c, 3, 67, 64
1, 118075, Note_on_c, 3, 67, 123
1, 118140, Note_off_c, 4, 60, 64
1, 118144, Note_off_c, 3, 48, 64
1, 118144, Note_on_c, 1, 84, 123
1, 118145, Note_on_c, 2, 72, 124
1, 118145, Note_on_c, 4, 63, 127
1, 118146, Note_on_c, 4, 60, 127
1, 118207, Note_off_c, 3, 67, 64
1, 118213, Note_on_c, 3, 67, 123
1, 118276, Note_off_c, 4, 60, 64
1, 118277, Note_off_c, 4, 63, 64
1, 118283, Note_on_c, 4, 63, 127
1, 118284, Note_on_c, 4, 60, 127
1, 118349, Note_off_c, 3, 67, 64
1, 118355, Note_on_c, 3, 67, 123
1, 118419, Note_off_c, 4, 60, 64
1, 118420, Note_off_c, 4, 63, 64
1, 118424, Note_off_c, 2, 72, 64
1, 118425, Note_off_c, 1, 84, 64
1, 118425, Note_on_c, 1, 85, 127
1, 118426, Note_on_c, 2, 73, 127
1, 118426, Note_on_c, 4, 64, 127
1, 118427, Note_on_c, 4, 58, 127
1, 118487, Note_off_c, 3, 67, 64
1, 118492, Note_on_c, 3, 67, 123
1, 118554, Note_off_c, 4, 58, 64
1, 118554, Note_off_c, 4, 64, 64
1, 118559, Note_on_c, 4, 58, 127
1, 118559, Note_on_c, 4, 64, 127
1, 118623, Note_off_c, 3, 67, 64
1, 118629, Note_on_c, 3, 67, 123
1, 118692, Note_off_c, 4, 64, 64
1, 118692, Note_off_c, 4, 58, 64
1, 118697, Note_off_c, 1, 85, 64
1, 118697, Note_off_c, 2, 73, 64
1, 118698, Note_on_c, 2, 72, 127
1, 118698, Note_on_c, 1, 84, 127
1, 118699, Note_on_c, 4, 57, 127
1, 118699, Note_on_c, 4, 60, 127
1, 118761, Note_off_c, 3, 67, 64
1, 118767, Note_on_c, 3, 65, 123
1, 118830, Note_off_c, 4, 57, 64
1, 118831, Note_off_c, 4, 60, 64
1, 118837, Note_off_c, 1, 84, 64
1, 118837, Note_off_c, 2, 72, 64
1, 118838, Note_on_c, 2, 75, 127
1, 118838, Note_on_c, 1, 87, 127
1, 118839, Note_on_c, 4, 60, 127
1, 118839, Note_on_c, 3, 66, 123
1, 118840, Note_on_c, 4, 56, 127
1, 118841, Note_off_c, 3, 65, 64
1, 119035, Note_off_c, 1, 87, 64
1, 119040, Note_on_c, 1, 87, 123
1, 119106, Note_on_c, 1, 86, 123
1, 119112, Note_off_c, 1, 87, 64
1, 119171, Note_on_c, 1, 84, 123
1, 119177, Note_off_c, 1, 86, 64
1, 119239, Note_on_c, 1, 83, 123
1, 119245, Note_off_c, 1, 84, 64
1, 119306, Note_on_c, 1, 86, 123
1, 119312, Note_off_c, 1, 83, 64
1, 119374, Note_on_c, 2, 77, 124
1, 119374, Note_on_c, 4, 59, 127
1, 119375, Note_on_c, 4, 55, 127
1, 119378, Note_off_c, 1, 86, 64
1, 119384, Note_off_c, 4, 56, 64
1, 119385, Note_off_c, 3, 66, 64
1, 119385, Note_off_c, 4, 60, 64
1, 119386, Note_off_c, 2, 75, 64
1, 119507, Note_off_c, 4, 59, 64
1, 119511, Note_off_c, 4, 55, 64
1, 119511, Note_on_c, 4, 62, 127
1, 119512, Note_on_c, 4, 59, 127
1, 119573, Note_off_c, 2, 77, 64
1, 119574, Note_on_c, 1, 80, 123
1, 119638, Note_on_c, 1, 79, 121
1, 119643, Note_off_c, 1, 80, 64
1, 119703, Note_on_c, 2, 77, 124
1, 119709, Note_off_c, 1, 79, 64
1, 119769, Note_on_c, 2, 76, 124
1, 119775, Note_off_c, 2, 77, 64
1, 119834, Note_on_c, 1, 79, 121
1, 119841, Note_off_c, 2, 76, 64
1, 119903, Note_off_c, 4, 62, 64
1, 119903, Note_off_c, 4, 59, 64
1, 119904, Note_on_c, 4, 48, 127
1, 119904, Note_on_c, 4, 52, 127
1, 119904, Note_on_c, 2, 70, 125
1, 119908, Note_off_c, 1, 79, 64
1, 120038, Note_off_c, 4, 52, 64
1, 120038, Note_off_c, 4, 48, 64
1, 120041, Note_on_c, 4, 52, 127
1, 120041, Note_on_c, 4, 55, 127
1, 120103, Note_off_c, 2, 70, 64
1, 120109, Note_on_c, 2, 73, 124
1, 120176, Note_on_c, 2, 72, 124
1, 120180, Note_off_c, 2, 73, 64
1, 120240, Note_on_c, 2, 70, 125
1, 120246, Note_off_c, 2, 72, 64
1, 120305, Note_off_c, 4, 52, 64
1, 120306, Note_off_c, 4, 55, 64
1, 120306, Note_on_c, 2, 68, 123
1, 120307, Note_on_c, 4, 53, 127
1, 120311, Note_off_c, 2, 70, 64
1, 120372, Note_on_c, 1, 80, 123
1, 120377, Note_off_c, 2, 68, 64
1, 120437, Note_on_c, 1, 79, 121
1, 120441, Note_off_c, 1, 80, 64
1, 120496, Note_on_c, 2, 77, 124
1, 120502, Note_off_c, 1, 79, 64
1, 120560, Note_on_c, 2, 75, 124
1, 120565, Note_off_c, 2, 77, 64
1, 120625, Note_on_c, 2, 74, 124
1, 120631, Note_off_c, 2, 75, 64
1, 120690, Note_on_c, 2, 75, 124
1, 120696, Note_off_c, 2, 74, 64
1, 120754, Note_on_c, 2, 77, 124
1, 120757, Note_off_c, 2, 75, 64
1, 120815, Note_off_c, 4, 53, 64
1, 120816, Note_on_c, 2, 72, 124
1, 120816, Note_on_c, 3, 55, 127
1, 120821, Note_off_c, 2, 77, 64
1, 120953, Note_off_c, 3, 55, 64
1, 120954, Note_off_c, 2, 72, 64
1, 120954, Note_on_c, 3, 67, 123
1, 120955, Note_on_c, 3, 63, 127
1, 121090, Note_off_c, 3, 67, 64
1, 121090, Note_off_c, 3, 63, 64
1, 121091, Note_on_c, 3, 62, 127
1, 121091, Note_on_c, 3, 65, 123
1, 121222, Note_on_c, 2, 75, 124
1, 121223, Note_on_c, 2, 71, 125
1, 121290, Note_on_c, 2, 74, 124
1, 121296, Note_off_c, 2, 75, 64
1, 121357, Note_off_c, 2, 71, 64
1, 121358, Note_off_c, 3, 65, 64
1, 121358, Note_off_c, 3, 62, 64
1, 121359, Note_on_c, 3, 60, 127
1, 121359, Note_on_c, 2, 72, 124
1, 121360, Note_on_c, 4, 48, 127
1, 121360, Note_on_c, 4, 51, 127
1, 121363, Note_off_c, 2, 74, 64
1, 121427, Note_on_c, 3, 55, 127
1, 121492, Note_off_c, 4, 51, 64
1, 121492, Note_off_c, 4, 48, 64
1, 121497, Note_on_c, 4, 51, 127
1, 121497, Note_on_c, 4, 48, 127
1, 121559, Note_off_c, 3, 55, 64
1, 121565, Note_on_c, 3, 55, 127
1, 121630, Note_off_c, 4, 48, 64
1, 121631, Note_off_c, 4, 51, 64
1, 121633, Note_off_c, 2, 72, 64
1, 121633, Note_off_c, 3, 60, 64
1, 121634, Note_on_c, 3, 61, 127
1, 121634, Note_on_c, 2, 73, 124
1, 121635, Note_on_c, 4, 46, 127
1, 121635, Note_on_c, 4, 52, 127
1, 121695, Note_off_c, 3, 55, 64
1, 121699, Note_on_c, 3, 55, 127
1, 121763, Note_off_c, 4, 52, 64
1, 121763, Note_off_c, 4, 46, 64
1, 121767, Note_on_c, 4, 52, 127
1, 121768, Note_on_c, 4, 46, 127
1, 121832, Note_off_c, 3, 55, 64
1, 121836, Note_on_c, 3, 55, 127
1, 121899, Note_off_c, 4, 46, 64
1, 121899, Note_off_c, 4, 52, 64
1, 121904, Note_off_c, 2, 73, 64
1, 121904, Note_off_c, 3, 61, 64
1, 121905, Note_on_c, 3, 60, 127
1, 121905, Note_on_c, 2, 72, 124
1, 121906, Note_on_c, 4, 45, 127
1, 121906, Note_on_c, 4, 48, 127
1, 121968, Note_off_c, 3, 55, 64
1, 121972, Note_on_c, 3, 53, 127
1, 122035, Note_off_c, 4, 45, 64
1, 122036, Note_off_c, 4, 48, 64
1, 122038, Note_off_c, 3, 60, 64
1, 122039, Note_off_c, 2, 72, 64
1, 122039, Note_on_c, 2, 75, 124
1, 122040, Note_on_c, 4, 48, 127
1, 122040, Note_on_c, 3, 63, 127
1, 122041, Note_on_c, 4, 44, 127
1, 122044, Note_off_c, 3, 53, 64
1, 122228, Note_off_c, 2, 75, 64
1, 122240, Note_on_c, 2, 75, 127
1, 122309, Note_on_c, 2, 74, 127
1, 122315, Note_off_c, 2, 75, 64
1, 122373, Note_on_c, 2, 72, 127
1, 122377, Note_off_c, 2, 74, 64
1, 122435, Note_on_c, 2, 71, 127
1, 122441, Note_off_c, 2, 72, 64
1, 122502, Note_on_c, 2, 74, 127
1, 122508, Note_off_c, 2, 71, 64
1, 122555, Note_off_c, 3, 63, 64
1, 122568, Note_on_c, 4, 43, 127
1, 122568, Note_on_c, 4, 47, 127
1, 122568, Note_on_c, 4, 65, 123
1, 122572, Note_off_c, 2, 74, 64
1, 122578, Note_off_c, 4, 48, 64
1, 122578, Note_off_c, 4, 44, 64
1, 122697, Note_off_c, 4, 47, 64
1, 122697, Note_off_c, 4, 43, 64
1, 122700, Note_on_c, 4, 47, 127
1, 122700, Note_on_c, 4, 50, 127
1, 122770, Note_off_c, 4, 65, 64
1, 122771, Note_on_c, 2, 68, 127
1, 122840, Note_on_c, 4, 67, 127
1, 122846, Note_off_c, 2, 68, 64
1, 122904, Note_on_c, 4, 65, 127
1, 122909, Note_off_c, 4, 67, 64
1, 122969, Note_on_c, 4, 64, 127
1, 122975, Note_off_c, 4, 65, 64
1, 123038, Note_on_c, 4, 67, 127
1, 123042, Note_off_c, 4, 64, 64
1, 123103, Note_off_c, 4, 47, 64
1, 123104, Note_off_c, 4, 50, 64
1, 123104, Note_on_c, 4, 58, 127
1, 123105, Note_on_c, 4, 36, 127
1, 123105, Note_on_c, 4, 40, 127
1, 123109, Note_off_c, 4, 67, 64
1, 123238, Note_off_c, 4, 40, 64
1, 123238, Note_off_c, 4, 36, 64
1, 123242, Note_on_c, 4, 43, 127
1, 123243, Note_on_c, 4, 40, 127
1, 123303, Note_off_c, 4, 58, 64
1, 123309, Note_on_c, 4, 61, 127
1, 123376, Note_on_c, 4, 60, 127
1, 123382, Note_off_c, 4, 61, 64
1, 123441, Note_on_c, 4, 58, 127
1, 123447, Note_off_c, 4, 60, 64
1, 123507, Note_off_c, 4, 43, 64
1, 123507, Note_off_c, 4, 40, 64
1, 123507, Note_on_c, 4, 56, 127
1, 123508, Note_on_c, 4, 29, 127
1, 123508, Note_on_c, 4, 41, 127
1, 123511, Note_off_c, 4, 58, 64
1, 123552, Note_on_c, 4, 60, 127
1, 123557, Note_off_c, 4, 56, 64
1, 123600, Note_on_c, 4, 52, 127
1, 123630, Note_off_c, 4, 60, 64
1, 123648, Note_on_c, 4, 53, 127
1, 123653, Note_off_c, 4, 52, 64
1, 123694, Note_on_c, 4, 56, 127
1, 123699, Note_off_c, 4, 53, 64
1, 123740, Note_on_c, 4, 47, 127
1, 123767, Note_off_c, 4, 56, 64
1, 123784, Note_on_c, 4, 48, 127
1, 123790, Note_off_c, 4, 47, 64
1, 123830, Note_on_c, 4, 53, 127
1, 123836, Note_off_c, 4, 48, 64
1, 123874, Note_on_c, 4, 43, 127
1, 123903, Note_off_c, 4, 53, 64
1, 123920, Note_on_c, 4, 44, 127
1, 123924, Note_off_c, 4, 43, 64
1, 123945, Note_off_c, 4, 29, 64
1, 123946, Note_off_c, 4, 41, 64
1, 123963, Note_on_c, 4, 48, 127
1, 123969, Note_off_c, 4, 44, 64
1, 124008, Note_on_c, 4, 40, 127
1, 124035, Note_off_c, 4, 48, 64
1, 124053, Note_on_c, 4, 41, 127
1, 124058, Note_off_c, 4, 40, 64
1, 124099, Note_on_c, 4, 36, 127
1, 124128, Note_off_c, 4, 41, 64
1, 124145, Note_on_c, 4, 41, 127
1, 124173, Note_off_c, 4, 36, 64
1, 124190, Note_on_c, 4, 44, 127
1, 124219, Note_off_c, 4, 41, 64
1, 124237, Note_on_c, 4, 41, 127
1, 124266, Note_off_c, 4, 44, 64
1, 124283, Note_on_c, 4, 44, 127
1, 124312, Note_off_c, 4, 41, 64
1, 124327, Note_on_c, 4, 48, 127
1, 124356, Note_off_c, 4, 44, 64
1, 124373, Note_on_c, 4, 44, 127
1, 124402, Note_off_c, 4, 48, 64
1, 124419, Note_on_c, 4, 48, 127
1, 124446, Note_off_c, 4, 44, 64
1, 124464, Note_on_c, 4, 53, 127
1, 124492, Note_off_c, 4, 48, 64
1, 124510, Note_on_c, 4, 48, 127
1, 124536, Note_off_c, 4, 53, 64
1, 124554, Note_on_c, 4, 53, 127
1, 124583, Note_off_c, 4, 48, 64
1, 124600, Note_on_c, 4, 56, 127
1, 124627, Note_off_c, 4, 53, 64
1, 124644, Note_on_c, 4, 53, 127
1, 124671, Note_off_c, 4, 56, 64
1, 124689, Note_on_c, 4, 56, 127
1, 124715, Note_off_c, 4, 53, 64
1, 124732, Note_on_c, 4, 60, 127
1, 124759, Note_off_c, 4, 56, 64
1, 124776, Note_on_c, 4, 56, 127
1, 124804, Note_off_c, 4, 60, 64
1, 124821, Note_on_c, 4, 60, 127
1, 124848, Note_off_c, 4, 56, 64
1, 124865, Note_on_c, 4, 65, 123
1, 124894, Note_off_c, 4, 60, 64
1, 124909, Note_on_c, 4, 60, 127
1, 124938, Note_off_c, 4, 65, 64
1, 124954, Note_on_c, 4, 65, 123
1, 124982, Note_off_c, 4, 60, 64
1, 124998, Note_on_c, 2, 68, 123
1, 125027, Note_off_c, 4, 65, 64
1, 125042, Note_on_c, 4, 65, 123
1, 125071, Note_off_c, 2, 68, 64
1, 125086, Note_on_c, 2, 68, 123
1, 125115, Note_off_c, 4, 65, 64
1, 125130, Note_on_c, 2, 72, 124
1, 125157, Note_off_c, 2, 68, 64
1, 125174, Note_on_c, 2, 68, 123
1, 125201, Note_off_c, 2, 72, 64
1, 125219, Note_on_c, 2, 72, 124
1, 125245, Note_off_c, 2, 68, 64
1, 125261, Note_on_c, 2, 77, 120
1, 125288, Note_off_c, 2, 72, 64
1, 125305, Note_on_c, 2, 72, 124
1, 125332, Note_off_c, 2, 77, 64
1, 125347, Note_on_c, 2, 77, 120
1, 125376, Note_off_c, 2, 72, 64
1, 125391, Note_on_c, 1, 80, 119
1, 125418, Note_off_c, 2, 77, 64
1, 125436, Note_on_c, 2, 77, 120
1, 125462, Note_off_c, 1, 80, 64
1, 125478, Note_on_c, 1, 80, 119
1, 125505, Note_off_c, 2, 77, 64
1, 125520, Note_on_c, 1, 84, 119
1, 125591, Note_on_c, 1, 79, 117
1, 125595, Note_off_c, 1, 84, 64
1, 125612, Note_off_c, 1, 80, 64
1, 125656, Note_on_c, 1, 80, 119
1, 125662, Note_off_c, 1, 79, 64
1, 125727, Note_on_c, 2, 76, 124
1, 125791, Note_off_c, 1, 80, 64
1, 125795, Note_on_c, 2, 77, 120
1, 125802, Note_off_c, 2, 76, 64
1, 125866, Note_on_c, 2, 73, 127
1, 125931, Note_off_c, 2, 77, 64
1, 125935, Note_on_c, 2, 74, 127
1, 125940, Note_off_c, 2, 73, 64
1, 126004, Note_on_c, 1, 80, 119
1, 126008, Note_off_c, 2, 74, 64
1, 126069, Note_on_c, 2, 77, 120
1, 126075, Note_off_c, 1, 80, 64
1, 126133, Note_on_c, 2, 74, 127
1, 126139, Note_off_c, 2, 77, 64
1, 126203, Note_on_c, 4, 60, 127
1, 126203, Note_on_c, 3, 63, 127
1, 126204, Note_on_c, 4, 55, 127
1, 126269, Note_off_c, 2, 74, 64
1, 126273, Note_on_c, 3, 67, 123
1, 126342, Note_on_c, 1, 79, 117
1, 126348, Note_off_c, 3, 67, 64
1, 126411, Note_on_c, 1, 78, 115
1, 126417, Note_off_c, 1, 79, 64
1, 126474, Note_on_c, 2, 77, 120
1, 126480, Note_off_c, 1, 78, 64
1, 126540, Note_on_c, 2, 76, 124
1, 126546, Note_off_c, 2, 77, 64
1, 126608, Note_on_c, 2, 75, 127
1, 126613, Note_off_c, 2, 76, 64
1, 126675, Note_on_c, 2, 74, 127
1, 126681, Note_off_c, 2, 75, 64
1, 126738, Note_off_c, 2, 74, 64
1, 126739, Note_off_c, 4, 60, 64
1, 126739, Note_off_c, 4, 55, 64
1, 126740, Note_off_c, 3, 63, 64
1, 126744, Note_on_c, 2, 74, 127
1, 126744, Note_on_c, 3, 63, 127
1, 126745, Note_on_c, 4, 55, 127
1, 126816, Note_on_c, 2, 72, 127
1, 126816, Note_on_c, 3, 67, 123
1, 126821, Note_off_c, 2, 74, 64
1, 126873, Note_off_c, 3, 63, 64
1, 126876, Note_off_c, 2, 72, 64
1, 126883, Note_on_c, 3, 63, 127
1, 126883, Note_on_c, 2, 72, 127
1, 126912, Note_off_c, 3, 67, 64
1, 126952, Note_on_c, 3, 67, 123
1, 127012, Note_off_c, 3, 63, 64
1, 127021, Note_on_c, 3, 65, 123
1, 127050, Note_off_c, 3, 67, 64
1, 127091, Note_on_c, 3, 67, 123
1, 127152, Note_off_c, 3, 65, 64
1, 127156, Note_off_c, 2, 72, 64
1, 127156, Note_on_c, 2, 75, 127
1, 127157, Note_on_c, 3, 65, 123
1, 127157, Note_on_c, 2, 71, 127
1, 127183, Note_off_c, 3, 67, 64
1, 127224, Note_on_c, 2, 74, 127
1, 127224, Note_on_c, 3, 67, 123
1, 127230, Note_off_c, 2, 75, 64
1, 127285, Note_off_c, 3, 65, 64
1, 127290, Note_off_c, 2, 71, 64
1, 127290, Note_off_c, 4, 55, 64
1, 127291, Note_on_c, 2, 72, 127
1, 127291, Note_on_c, 4, 60, 127
1, 127296, Note_off_c, 2, 74, 64
1, 127319, Note_off_c, 3, 67, 64
1, 127359, Note_on_c, 3, 67, 123
1, 127424, Note_off_c, 4, 60, 64
1, 127428, Note_on_c, 3, 63, 127
1, 127457, Note_off_c, 3, 67, 64
1, 127491, Note_off_c, 2, 72, 64
1, 127497, Note_on_c, 2, 72, 127
1, 127498, Note_on_c, 3, 67, 123
1, 127565, Note_off_c, 3, 63, 64
1, 127566, Note_on_c, 4, 59, 127
1, 127566, Note_on_c, 2, 73, 127
1, 127572, Note_off_c, 2, 72, 64
1, 127595, Note_off_c, 3, 67, 64
1, 127634, Note_on_c, 2, 74, 127
1, 127635, Note_on_c, 3, 67, 123
1, 127639, Note_off_c, 2, 73, 64
1, 127701, Note_off_c, 4, 59, 64
1, 127701, Note_on_c, 3, 65, 123
1, 127729, Note_off_c, 3, 67, 64
1, 127760, Note_off_c, 2, 74, 64
1, 127770, Note_on_c, 2, 74, 127
1, 127770, Note_on_c, 3, 67, 123
1, 127834, Note_off_c, 3, 65, 64
1, 127835, Note_on_c, 4, 60, 127
1, 127835, Note_on_c, 2, 77, 124
1, 127841, Note_off_c, 2, 74, 64
1, 127898, Note_off_c, 3, 67, 64
1, 127904, Note_on_c, 2, 75, 127
1, 127905, Note_on_c, 3, 67, 123
1, 127909, Note_off_c, 2, 77, 64
1, 127972, Note_off_c, 4, 60, 64
1, 127973, Note_on_c, 3, 63, 127
1, 128000, Note_off_c, 3, 67, 64
1, 128037, Note_off_c, 2, 75, 64
1, 128040, Note_on_c, 2, 75, 127
1, 128041, Note_on_c, 3, 67, 123
1, 128109, Note_off_c, 3, 63, 64
1, 128109, Note_on_c, 2, 76, 127
1, 128110, Note_on_c, 4, 50, 127
1, 128113, Note_off_c, 2, 75, 64
1, 128175, Note_off_c, 3, 67, 64
1, 128175, Note_on_c, 2, 77, 124
1, 128176, Note_on_c, 4, 59, 127
1, 128181, Note_off_c, 2, 76, 64
1, 128242, Note_off_c, 4, 50, 64
1, 128243, Note_on_c, 4, 53, 127
1, 128270, Note_off_c, 4, 59, 64
1, 128301, Note_off_c, 2, 77, 64
1, 128312, Note_on_c, 2, 77, 124
1, 128313, Note_on_c, 4, 59, 127
1, 128380, Note_off_c, 4, 53, 64
1, 128381, Note_on_c, 4, 51, 127
1, 128381, Note_on_c, 1, 78, 119
1, 128385, Note_off_c, 2, 77, 64
1, 128408, Note_off_c, 4, 59, 64
1, 128448, Note_on_c, 1, 79, 121
1, 128449, Note_on_c, 4, 60, 127
1, 128455, Note_off_c, 1, 78, 64
1, 128518, Note_off_c, 4, 51, 64
1, 128519, Note_on_c, 4, 52, 127
1, 128545, Note_off_c, 4, 60, 64
1, 128576, Note_off_c, 1, 79, 64
1, 128586, Note_on_c, 4, 60, 127
1, 128586, Note_on_c, 1, 79, 121
1, 128654, Note_off_c, 4, 52, 64
1, 128654, Note_on_c, 1, 82, 123
1, 128655, Note_on_c, 4, 53, 127
1, 128659, Note_off_c, 1, 79, 64
1, 128682, Note_off_c, 4, 60, 64
1, 128720, Note_on_c, 1, 80, 123
1, 128721, Note_on_c, 4, 60, 127
1, 128727, Note_off_c, 1, 82, 64
1, 128786, Note_off_c, 4, 53, 64
1, 128787, Note_on_c, 4, 54, 127
1, 128816, Note_off_c, 4, 60, 64
1, 128851, Note_off_c, 1, 80, 64
1, 128855, Note_on_c, 3, 63, 127
1, 128855, Note_on_c, 1, 84, 123
1, 128921, Note_off_c, 1, 84, 64
1, 128927, Note_off_c, 4, 54, 64
1, 128927, Note_on_c, 1, 84, 123
1, 128928, Note_on_c, 4, 55, 127
1, 128958, Note_off_c, 3, 63, 64
1, 129002, Note_on_c, 2, 72, 127
1, 129003, Note_on_c, 3, 63, 127
1, 129009, Note_off_c, 1, 84, 64
1, 129071, Note_off_c, 2, 72, 64
1, 129076, Note_off_c, 4, 55, 64
1, 129077, Note_on_c, 4, 60, 127
1, 129077, Note_on_c, 2, 72, 127
1, 129104, Note_off_c, 3, 63, 64
1, 129144, Note_on_c, 3, 63, 127
1, 129214, Note_off_c, 4, 60, 64
1, 129215, Note_on_c, 4, 55, 127
1, 129240, Note_off_c, 3, 63, 64
1, 129280, Note_on_c, 3, 65, 123
1, 129343, Note_off_c, 4, 55, 64
1, 129344, Note_off_c, 2, 72, 64
1, 129344, Note_on_c, 2, 75, 124
1, 129345, Note_on_c, 3, 62, 127
1, 129370, Note_off_c, 3, 65, 64
1, 129410, Note_on_c, 2, 74, 124
1, 129411, Note_on_c, 3, 65, 123
1, 129417, Note_off_c, 2, 75, 64
1, 129477, Note_off_c, 3, 62, 64
1, 129478, Note_on_c, 4, 48, 127
1, 129478, Note_on_c, 2, 72, 127
1, 129484, Note_off_c, 2, 74, 64
1, 129506, Note_off_c, 3, 65, 64
1, 129541, Note_off_c, 2, 72, 64
1, 129547, Note_on_c, 2, 72, 127
1, 129548, Note_on_c, 4, 55, 127
1, 129600, Note_off_c, 2, 72, 64
1, 129615, Note_off_c, 4, 48, 64
1, 129615, Note_on_c, 2, 72, 127
1, 129616, Note_on_c, 4, 51, 127
1, 129632, Note_on_c, 2, 74, 124
1, 129637, Note_off_c, 2, 72, 64
1, 129643, Note_off_c, 4, 55, 64
1, 129649, Note_on_c, 2, 72, 127
1, 129655, Note_off_c, 2, 74, 64
1, 129668, Note_on_c, 2, 74, 124
1, 129675, Note_off_c, 2, 72, 64
1, 129689, Note_on_c, 2, 71, 127
1, 129689, Note_on_c, 4, 55, 127
1, 129694, Note_off_c, 2, 74, 64
1, 129725, Note_on_c, 2, 72, 127
1, 129731, Note_off_c, 2, 71, 64
1, 129759, Note_off_c, 4, 51, 64
1, 129760, Note_on_c, 4, 47, 127
1, 129760, Note_on_c, 2, 74, 124
1, 129765, Note_off_c, 2, 72, 64
1, 129788, Note_off_c, 4, 55, 64
1, 129823, Note_off_c, 2, 74, 64
1, 129828, Note_on_c, 2, 74, 124
1, 129829, Note_on_c, 4, 55, 127
1, 129891, Note_off_c, 2, 74, 64
1, 129897, Note_off_c, 4, 47, 64
1, 129897, Note_on_c, 2, 74, 124
1, 129898, Note_on_c, 4, 53, 127
1, 129909, Note_off_c, 2, 74, 64
1, 129913, Note_on_c, 2, 75, 124
1, 129924, Note_off_c, 4, 55, 64
1, 129926, Note_off_c, 2, 75, 64
1, 129932, Note_on_c, 2, 74, 124
1, 129945, Note_off_c, 2, 74, 64
1, 129949, Note_on_c, 2, 75, 124
1, 129969, Note_on_c, 2, 72, 127
1, 129969, Note_on_c, 4, 55, 127
1, 129975, Note_off_c, 2, 75, 64
1, 130002, Note_on_c, 2, 74, 124
1, 130008, Note_off_c, 2, 72, 64
1, 130037, Note_off_c, 4, 53, 64
1, 130037, Note_on_c, 2, 75, 124
1, 130038, Note_on_c, 4, 48, 127
1, 130043, Note_off_c, 2, 74, 64
1, 130066, Note_off_c, 4, 55, 64
1, 130100, Note_off_c, 2, 75, 64
1, 130105, Note_on_c, 2, 75, 124
1, 130105, Note_on_c, 4, 55, 127
1, 130167, Note_off_c, 2, 75, 64
1, 130173, Note_off_c, 4, 48, 64
1, 130174, Note_on_c, 2, 75, 124
1, 130174, Note_on_c, 4, 51, 127
1, 130189, Note_on_c, 2, 77, 124
1, 130195, Note_off_c, 2, 75, 64
1, 130203, Note_off_c, 4, 55, 64
1, 130209, Note_on_c, 2, 75, 124
1, 130214, Note_off_c, 2, 77, 64
1, 130228, Note_on_c, 2, 77, 124
1, 130234, Note_off_c, 2, 75, 64
1, 130247, Note_on_c, 2, 74, 124
1, 130248, Note_on_c, 4, 55, 127
1, 130254, Note_off_c, 2, 77, 64
1, 130283, Note_on_c, 2, 75, 124
1, 130288, Note_off_c, 2, 74, 64
1, 130315, Note_off_c, 4, 51, 64
1, 130316, Note_on_c, 4, 50, 127
1, 130316, Note_on_c, 2, 77, 124
1, 130322, Note_off_c, 2, 75, 64
1, 130345, Note_off_c, 4, 55, 64
1, 130378, Note_off_c, 2, 77, 64
1, 130383, Note_on_c, 2, 77, 124
1, 130384, Note_on_c, 4, 59, 127
1, 130444, Note_off_c, 2, 77, 64
1, 130450, Note_off_c, 4, 50, 64
1, 130450, Note_on_c, 2, 77, 124
1, 130451, Note_on_c, 4, 55, 127
1, 130468, Note_on_c, 1, 79, 121
1, 130476, Note_off_c, 4, 59, 64
1, 130477, Note_off_c, 2, 77, 64
1, 130487, Note_on_c, 2, 77, 124
1, 130495, Note_off_c, 1, 79, 64
1, 130506, Note_on_c, 1, 79, 121
1, 130514, Note_off_c, 2, 77, 64
1, 130524, Note_on_c, 4, 59, 127
1, 130524, Note_on_c, 2, 75, 124
1, 130532, Note_off_c, 1, 79, 64
1, 130553, Note_off_c, 4, 55, 64
1, 130557, Note_on_c, 2, 77, 124
1, 130569, Note_off_c, 2, 75, 64
1, 130592, Note_on_c, 4, 60, 127
1, 130592, Note_on_c, 1, 79, 121
1, 130593, Note_on_c, 4, 48, 127
1, 130603, Note_off_c, 4, 59, 64
1, 130604, Note_off_c, 2, 77, 64
1, 130637, Note_off_c, 1, 79, 64
1, 130637, Note_on_c, 1, 84, 123
1, 130680, Note_on_c, 1, 82, 123
1, 130686, Note_off_c, 1, 84, 64
1, 130724, Note_on_c, 1, 80, 123
1, 130730, Note_off_c, 1, 82, 64
1, 130768, Note_on_c, 1, 79, 121
1, 130772, Note_off_c, 1, 80, 64
1, 130811, Note_on_c, 2, 77, 124
1, 130816, Note_off_c, 1, 79, 64
1, 130857, Note_on_c, 2, 75, 124
1, 130862, Note_off_c, 2, 77, 64
1, 130901, Note_on_c, 2, 74, 124
1, 130907, Note_off_c, 2, 75, 64
1, 130945, Note_on_c, 3, 72, 127
1, 130949, Note_off_c, 2, 74, 64
1, 130987, Note_off_c, 4, 48, 64
1, 130988, Note_off_c, 4, 60, 64
1, 130988, Note_on_c, 3, 70, 127
1, 130989, Note_on_c, 4, 52, 127
1, 130993, Note_off_c, 3, 72, 64
1, 131031, Note_on_c, 3, 68, 127
1, 131035, Note_off_c, 3, 70, 64
1, 131074, Note_on_c, 3, 67, 127
1, 131079, Note_off_c, 3, 68, 64
1, 131118, Note_off_c, 4, 52, 64
1, 131118, Note_on_c, 3, 68, 127
1, 131119, Note_on_c, 4, 60, 127
1, 131119, Note_on_c, 4, 53, 127
1, 131124, Note_off_c, 3, 67, 64
1, 131252, Note_off_c, 4, 53, 64
1, 131253, Note_off_c, 4, 60, 64
1, 131253, Note_off_c, 3, 68, 64
1, 131255, Note_on_c, 1, 80, 123
1, 131256, Note_on_c, 4, 53, 127
1, 131256, Note_on_c, 2, 72, 127
1, 131256, Note_on_c, 2, 77, 124
1, 131389, Note_off_c, 2, 72, 64
1, 131393, Note_off_c, 4, 53, 64
1, 131394, Note_off_c, 1, 80, 64
1, 131394, Note_off_c, 2, 77, 64
1, 131395, Note_on_c, 2, 75, 124
1, 131395, Note_on_c, 1, 79, 121
1, 131396, Note_on_c, 4, 55, 127
1, 131396, Note_on_c, 2, 72, 127
1, 131529, Note_off_c, 2, 72, 64
1, 131529, Note_off_c, 4, 55, 64
1, 131530, Note_off_c, 1, 79, 64
1, 131530, Note_off_c, 2, 75, 64
1, 131531, Note_on_c, 2, 71, 127
1, 131531, Note_on_c, 3, 65, 123
1, 131532, Note_on_c, 3, 62, 127
1, 131532, Note_on_c, 4, 43, 127
1, 131663, Note_off_c, 4, 43, 64
1, 131664, Note_off_c, 3, 62, 64
1, 131664, Note_off_c, 3, 65, 64
1, 131664, Note_off_c, 2, 71, 64
1, 131665, Note_on_c, 3, 63, 127
1, 131665, Note_on_c, 2, 72, 127
1, 131666, Note_on_c, 4, 48, 127
1, 131801, Note_off_c, 2, 72, 64
1, 131801, Note_on_c, 1, 79, 121
1, 131854, Note_on_c, 1, 78, 119
1, 131861, Note_off_c, 1, 79, 64
1, 131902, Note_on_c, 1, 80, 123
1, 131906, Note_off_c, 1, 78, 64
1, 131951, Note_off_c, 3, 63, 64
1, 131951, Note_on_c, 1, 79, 121
1, 131955, Note_off_c, 1, 80, 64
1, 131992, Note_on_c, 2, 77, 124
1, 131998, Note_off_c, 1, 79, 64
1, 132034, Note_on_c, 2, 75, 124
1, 132039, Note_off_c, 2, 77, 64
1, 132076, Note_on_c, 2, 74, 124
1, 132077, Note_on_c, 3, 63, 127
1, 132077, Note_on_c, 3, 60, 127
1, 132082, Note_off_c, 2, 75, 64
1, 132120, Note_off_c, 2, 74, 64
1, 132120, Note_on_c, 2, 75, 124
1, 132167, Note_on_c, 2, 72, 127
1, 132172, Note_off_c, 2, 75, 64
1, 132209, Note_off_c, 3, 60, 64
1, 132209, Note_off_c, 3, 63, 64
1, 132210, Note_off_c, 4, 48, 64
1, 132210, Note_on_c, 2, 71, 127
1, 132211, Note_on_c, 3, 62, 127
1, 132211, Note_on_c, 3, 65, 123
1, 132212, Note_on_c, 4, 55, 127
1, 132215, Note_off_c, 2, 72, 64
1, 132343, Note_off_c, 2, 71, 64
1, 132344, Note_on_c, 2, 77, 124
1, 132396, Note_on_c, 2, 76, 124
1, 132402, Note_off_c, 2, 77, 64
1, 132440, Note_on_c, 1, 79, 121
1, 132446, Note_off_c, 2, 76, 64
1, 132490, Note_on_c, 2, 77, 124
1, 132494, Note_off_c, 1, 79, 64
1, 132530, Note_on_c, 2, 75, 124
1, 132536, Note_off_c, 2, 77, 64
1, 132573, Note_on_c, 2, 74, 124
1, 132578, Note_off_c, 2, 75, 64
1, 132609, Note_off_c, 4, 55, 64
1, 132610, Note_off_c, 3, 65, 64
1, 132610, Note_off_c, 3, 62, 64
1, 132616, Note_on_c, 3, 65, 123
1, 132616, Note_on_c, 2, 72, 127
1, 132617, Note_on_c, 4, 56, 127
1, 132617, Note_on_c, 3, 62, 127
1, 132620, Note_off_c, 2, 74, 64
1, 132658, Note_on_c, 2, 71, 127
1, 132665, Note_off_c, 2, 72, 64
1, 132705, Note_on_c, 2, 74, 124
1, 132711, Note_off_c, 2, 71, 64
1, 132750, Note_off_c, 4, 56, 64
1, 132751, Note_off_c, 3, 65, 64
1, 132751, Note_off_c, 3, 62, 64
1, 132752, Note_on_c, 3, 63, 127
1, 132752, Note_on_c, 2, 72, 127
1, 132753, Note_on_c, 3, 60, 127
1, 132755, Note_off_c, 2, 74, 64
1, 132884, Note_off_c, 2, 72, 64
1, 132884, Note_on_c, 1, 79, 121
1, 132931, Note_on_c, 1, 78, 119
1, 132938, Note_off_c, 1, 79, 64
1, 132983, Note_on_c, 1, 80, 123
1, 132988, Note_off_c, 1, 78, 64
1, 133034, Note_on_c, 1, 79, 121
1, 133042, Note_off_c, 1, 80, 64
1, 133081, Note_on_c, 2, 77, 124
1, 133085, Note_off_c, 1, 79, 64
1, 133122, Note_on_c, 2, 75, 124
1, 133128, Note_off_c, 2, 77, 64
1, 133168, Note_off_c, 3, 63, 64
1, 133168, Note_off_c, 3, 60, 64
1, 133169, Note_on_c, 4, 51, 127
1, 133169, Note_on_c, 2, 74, 124
1, 133170, Note_on_c, 4, 48, 127
1, 133174, Note_off_c, 2, 75, 64
1, 133210, Note_on_c, 2, 75, 124
1, 133216, Note_off_c, 2, 74, 64
1, 133256, Note_on_c, 2, 72, 127
1, 133262, Note_off_c, 2, 75, 64
1, 133300, Note_off_c, 4, 48, 64
1, 133301, Note_off_c, 4, 51, 64
1, 133301, Note_on_c, 1, 80, 123
1, 133302, Note_on_c, 4, 50, 127
1, 133302, Note_on_c, 4, 53, 127
1, 133303, Note_on_c, 4, 43, 127
1, 133303, Note_on_c, 4, 47, 127
1, 133308, Note_off_c, 2, 72, 64
1, 133345, Note_on_c, 1, 79, 121
1, 133351, Note_off_c, 1, 80, 64
1, 133388, Note_on_c, 2, 77, 124
1, 133392, Note_off_c, 1, 79, 64
1, 133428, Note_on_c, 2, 75, 124
1, 133434, Note_off_c, 2, 77, 64
1, 133470, Note_on_c, 2, 74, 124
1, 133476, Note_off_c, 2, 75, 64
1, 133512, Note_on_c, 2, 72, 124
1, 133515, Note_off_c, 2, 74, 64
1, 133552, Note_on_c, 2, 71, 125
1, 133558, Note_off_c, 2, 72, 64
1, 133596, Note_on_c, 3, 68, 123
1, 133602, Note_off_c, 2, 71, 64
1, 133640, Note_on_c, 3, 67, 123
1, 133646, Note_off_c, 3, 68, 64
1, 133684, Note_on_c, 3, 65, 123
1, 133690, Note_off_c, 3, 67, 64
1, 133730, Note_on_c, 3, 63, 127
1, 133736, Note_off_c, 3, 65, 64
1, 133778, Note_on_c, 3, 62, 127
1, 133784, Note_off_c, 3, 63, 64
1, 133830, Note_off_c, 3, 62, 64
1, 133830, Note_off_c, 4, 47, 64
1, 133830, Note_off_c, 4, 43, 64
1, 133831, Note_off_c, 4, 53, 64
1, 133831, Note_off_c, 4, 50, 64
1, 133832, Note_on_c, 4, 48, 127
1, 133832, Note_on_c, 4, 60, 127
1, 133833, Note_on_c, 4, 36, 127
1, 134110, Note_off_c, 4, 48, 64
1, 134110, Note_off_c, 4, 36, 64
1, 134111, Note_off_c, 4, 60, 64
1, 134111, Note_on_c, 4, 64, 127
1, 134112, Note_on_c, 4, 40, 127
1, 134112, Note_on_c, 4, 52, 127
1, 134255, Note_off_c, 4, 52, 64
1, 134255, Note_off_c, 4, 40, 64
1, 134256, Note_off_c, 4, 64, 64
1, 134256, Note_on_c, 4, 67, 123
1, 134256, Note_on_c, 4, 55, 127
1, 134257, Note_on_c, 4, 43, 127
1, 134398, Note_off_c, 4, 43, 64
1, 134399, Note_off_c, 4, 55, 64
1, 134399, Note_off_c, 4, 67, 64
1, 134400, Note_on_c, 2, 72, 124
1, 134400, Note_on_c, 4, 60, 127
1, 134400, Note_on_c, 4, 48, 127
1, 134533, Note_off_c, 4, 48, 64
1, 134534, Note_off_c, 4, 60, 64
1, 134534, Note_off_c, 2, 72, 64
1, 134534, Note_on_c, 2, 76, 124
1, 134535, Note_on_c, 4, 52, 127
1, 134535, Note_on_c, 4, 64, 127
1, 134753, Note_off_c, 2, 76, 64
1, 134778, Note_on_c, 1, 79, 121
1, 134805, Note_off_c, 1, 79, 64
1, 134815, Note_off_c, 4, 64, 64
1, 134815, Note_on_c, 1, 79, 121
1, 134831, Note_off_c, 1, 79, 64
1, 134837, Note_on_c, 1, 80, 123
1, 134852, Note_off_c, 1, 80, 64
1, 134858, Note_on_c, 1, 79, 121
1, 134871, Note_off_c, 1, 79, 64
1, 134877, Note_on_c, 1, 80, 123
1, 134896, Note_on_c, 2, 77, 124
1, 134902, Note_off_c, 1, 80, 64
1, 134933, Note_on_c, 1, 79, 121
1, 134952, Note_off_c, 2, 77, 64
1, 134971, Note_off_c, 4, 52, 64
1, 134972, Note_on_c, 4, 46, 127
1, 134972, Note_on_c, 1, 82, 123
1, 134973, Note_on_c, 4, 34, 127
1, 134988, Note_off_c, 1, 79, 64
1, 135017, Note_on_c, 1, 84, 123
1, 135023, Note_off_c, 1, 82, 64
1, 135061, Note_on_c, 1, 85, 123
1, 135067, Note_off_c, 1, 84, 64
1, 135108, Note_on_c, 1, 84, 123
1, 135112, Note_off_c, 1, 85, 64
1, 135152, Note_on_c, 1, 82, 123
1, 135157, Note_off_c, 1, 84, 64
1, 135198, Note_on_c, 1, 80, 123
1, 135204, Note_off_c, 1, 82, 64
1, 135242, Note_off_c, 4, 46, 64
1, 135242, Note_off_c, 4, 34, 64
1, 135243, Note_on_c, 4, 52, 127
1, 135243, Note_on_c, 1, 79, 121
1, 135244, Note_on_c, 4, 40, 127
1, 135247, Note_off_c, 1, 80, 64
1, 135285, Note_on_c, 1, 80, 123
1, 135291, Note_off_c, 1, 79, 64
1, 135331, Note_on_c, 1, 82, 123
1, 135337, Note_off_c, 1, 80, 64
1, 135377, Note_off_c, 4, 40, 64
1, 135378, Note_off_c, 4, 52, 64
1, 135378, Note_on_c, 1, 80, 123
1, 135379, Note_on_c, 4, 55, 127
1, 135379, Note_on_c, 4, 43, 127
1, 135383, Note_off_c, 1, 82, 64
1, 135421, Note_on_c, 1, 79, 121
1, 135427, Note_off_c, 1, 80, 64
1, 135465, Note_on_c, 2, 77, 124
1, 135470, Note_off_c, 1, 79, 64
1, 135509, Note_off_c, 4, 43, 64
1, 135509, Note_off_c, 4, 55, 64
1, 135510, Note_on_c, 4, 58, 127
1, 135510, Note_on_c, 2, 76, 124
1, 135511, Note_on_c, 4, 46, 127
1, 135515, Note_off_c, 2, 77, 64
1, 135553, Note_on_c, 1, 79, 121
1, 135559, Note_off_c, 2, 76, 64
1, 135599, Note_on_c, 2, 76, 124
1, 135605, Note_off_c, 1, 79, 64
1, 135643, Note_off_c, 4, 46, 64
1, 135644, Note_off_c, 4, 58, 64
1, 135644, Note_on_c, 2, 73, 127
1, 135645, Note_on_c, 4, 49, 127
1, 135645, Note_on_c, 4, 61, 127
1, 135649, Note_off_c, 2, 76, 64
1, 135688, Note_on_c, 2, 76, 124
1, 135694, Note_off_c, 2, 73, 64
1, 135734, Note_on_c, 2, 73, 127
1, 135740, Note_off_c, 2, 76, 64
1, 135779, Note_on_c, 2, 70, 127
1, 135784, Note_off_c, 2, 73, 64
1, 135823, Note_on_c, 2, 73, 127
1, 135828, Note_off_c, 2, 70, 64
1, 135868, Note_on_c, 2, 70, 127
1, 135874, Note_off_c, 2, 73, 64
1, 135912, Note_on_c, 3, 67, 127
1, 135916, Note_off_c, 2, 70, 64
1, 135954, Note_on_c, 2, 70, 127
1, 135958, Note_off_c, 3, 67, 64
1, 135996, Note_on_c, 3, 67, 127
1, 136002, Note_off_c, 2, 70, 64
1, 136039, Note_off_c, 4, 61, 64
1, 136039, Note_off_c, 4, 49, 64
1, 136040, Note_on_c, 4, 53, 127
1, 136040, Note_on_c, 3, 68, 127
1, 136044, Note_off_c, 3, 67, 64
1, 136108, Note_on_c, 4, 60, 127
1, 136175, Note_off_c, 4, 53, 64
1, 136176, Note_on_c, 4, 56, 127
1, 136199, Note_off_c, 4, 60, 64
1, 136244, Note_off_c, 3, 68, 64
1, 136244, Note_on_c, 2, 70, 127
1, 136245, Note_on_c, 4, 60, 127
1, 136259, Note_off_c, 2, 70, 64
1, 136264, Note_on_c, 3, 68, 127
1, 136280, Note_off_c, 3, 68, 64
1, 136285, Note_on_c, 3, 67, 127
1, 136301, Note_off_c, 3, 67, 64
1, 136307, Note_on_c, 3, 68, 127
1, 136324, Note_off_c, 4, 56, 64
1, 136325, Note_on_c, 2, 70, 127
1, 136325, Note_on_c, 4, 55, 127
1, 136330, Note_off_c, 3, 68, 64
1, 136347, Note_off_c, 4, 60, 64
1, 136393, Note_on_c, 4, 60, 127
1, 136462, Note_off_c, 4, 55, 64
1, 136463, Note_off_c, 2, 70, 64
1, 136463, Note_on_c, 3, 64, 127
1, 136464, Note_on_c, 4, 58, 127
1, 136485, Note_off_c, 4, 60, 64
1, 136531, Note_on_c, 4, 60, 127
1, 136599, Note_off_c, 3, 64, 64
1, 136599, Note_off_c, 4, 58, 64
1, 136599, Note_on_c, 3, 65, 127
1, 136600, Note_on_c, 4, 56, 127
1, 136621, Note_off_c, 4, 60, 64
1, 136668, Note_on_c, 3, 68, 127
1, 136668, Note_on_c, 4, 60, 127
1, 136675, Note_off_c, 3, 65, 64
1, 136738, Note_off_c, 4, 56, 64
1, 136739, Note_on_c, 4, 53, 127
1, 136739, Note_on_c, 2, 72, 127
1, 136745, Note_off_c, 3, 68, 64
1, 136762, Note_off_c, 4, 60, 64
1, 136806, Note_on_c, 4, 60, 127
1, 136875, Note_off_c, 4, 53, 64
1, 136876, Note_on_c, 4, 52, 127
1, 136897, Note_off_c, 4, 60, 64
1, 136944, Note_off_c, 2, 72, 64
1, 136944, Note_on_c, 2, 71, 127
1, 136944, Note_on_c, 4, 60, 127
1, 137010, Note_off_c, 4, 52, 64
1, 137010, Note_on_c, 2, 70, 127
1, 137011, Note_on_c, 4, 48, 127
1, 137014, Note_off_c, 2, 71, 64
1, 137031, Note_off_c, 4, 60, 64
1, 137075, Note_on_c, 3, 67, 127
1, 137076, Note_on_c, 4, 60, 127
1, 137082, Note_off_c, 2, 70, 64
1, 137143, Note_off_c, 4, 48, 64
1, 137144, Note_on_c, 4, 53, 127
1, 137144, Note_on_c, 3, 68, 127
1, 137150, Note_off_c, 3, 67, 64
1, 137167, Note_off_c, 4, 60, 64
1, 137213, Note_on_c, 4, 60, 127
1, 137280, Note_off_c, 4, 53, 64
1, 137281, Note_on_c, 4, 56, 127
1, 137303, Note_off_c, 4, 60, 64
1, 137351, Note_off_c, 3, 68, 64
1, 137351, Note_on_c, 2, 70, 127
1, 137352, Note_on_c, 4, 60, 127
1, 137369, Note_off_c, 2, 70, 64
1, 137371, Note_on_c, 3, 68, 127
1, 137390, Note_off_c, 3, 68, 64
1, 137392, Note_on_c, 3, 67, 127
1, 137409, Note_off_c, 3, 67, 64
1, 137410, Note_on_c, 3, 68, 127
1, 137427, Note_off_c, 4, 56, 64
1, 137428, Note_on_c, 4, 55, 127
1, 137428, Note_on_c, 2, 70, 127
1, 137432, Note_off_c, 3, 68, 64
1, 137448, Note_off_c, 4, 60, 64
1, 137495, Note_on_c, 4, 60, 127
1, 137560, Note_off_c, 2, 70, 64
1, 137560, Note_off_c, 4, 55, 64
1, 137561, Note_on_c, 3, 64, 127
1, 137561, Note_on_c, 4, 58, 127
1, 137583, Note_off_c, 4, 60, 64
1, 137630, Note_on_c, 4, 60, 127
1, 137696, Note_off_c, 4, 58, 64
1, 137697, Note_off_c, 3, 64, 64
1, 137697, Note_on_c, 3, 65, 127
1, 137698, Note_on_c, 4, 56, 127
1, 137718, Note_off_c, 4, 60, 64
1, 137764, Note_on_c, 2, 77, 124
1, 137765, Note_on_c, 4, 60, 127
1, 137771, Note_off_c, 3, 65, 64
1, 137834, Note_off_c, 4, 56, 64
1, 137835, Note_on_c, 2, 75, 124
1, 137835, Note_on_c, 4, 53, 127
1, 137839, Note_off_c, 2, 77, 64
1, 137856, Note_off_c, 4, 60, 64
1, 137901, Note_on_c, 2, 73, 124
1, 137901, Note_on_c, 4, 60, 127
1, 137905, Note_off_c, 2, 75, 64
1, 137967, Note_off_c, 4, 53, 64
1, 137967, Note_on_c, 2, 72, 124
1, 137968, Note_on_c, 4, 52, 127
1, 137972, Note_off_c, 2, 73, 64
1, 137989, Note_off_c, 4, 60, 64
1, 138033, Note_on_c, 2, 71, 125
1, 138034, Note_on_c, 4, 60, 127
1, 138038, Note_off_c, 2, 72, 64
1, 138099, Note_off_c, 4, 52, 64
1, 138100, Note_on_c, 2, 70, 125
1, 138100, Note_on_c, 4, 48, 127
1, 138106, Note_off_c, 2, 71, 64
1, 138123, Note_off_c, 4, 60, 64
1, 138168, Note_on_c, 3, 67, 123
1, 138168, Note_on_c, 4, 60, 127
1, 138172, Note_off_c, 2, 70, 64
1, 138234, Note_off_c, 4, 48, 64
1, 138234, Note_on_c, 3, 68, 127
1, 138235, Note_on_c, 4, 53, 127
1, 138240, Note_off_c, 3, 67, 64
1, 138258, Note_off_c, 4, 60, 64
1, 138281, Note_on_c, 4, 56, 127
1, 138287, Note_off_c, 4, 53, 64
1, 138327, Note_on_c, 4, 60, 127
1, 138333, Note_off_c, 4, 56, 64
1, 138375, Note_on_c, 4, 58, 127
1, 138381, Note_off_c, 4, 60, 64
1, 138421, Note_on_c, 4, 56, 127
1, 138425, Note_off_c, 4, 58, 64
1, 138465, Note_on_c, 4, 55, 127
1, 138471, Note_off_c, 4, 56, 64
1, 138511, Note_off_c, 3, 68, 64
1, 138512, Note_on_c, 2, 72, 127
1, 138512, Note_on_c, 4, 53, 127
1, 138516, Note_off_c, 4, 55, 64
1, 138556, Note_on_c, 4, 56, 127
1, 138563, Note_off_c, 4, 53, 64
1, 138602, Note_on_c, 4, 60, 127
1, 138608, Note_off_c, 4, 56, 64
1, 138650, Note_off_c, 2, 72, 64
1, 138651, Note_on_c, 2, 77, 127
1, 138651, Note_on_c, 4, 58, 127
1, 138657, Note_off_c, 4, 60, 64
1, 138696, Note_on_c, 4, 56, 127
1, 138701, Note_off_c, 4, 58, 64
1, 138742, Note_on_c, 4, 55, 127
1, 138747, Note_off_c, 4, 56, 64
1, 138788, Note_off_c, 2, 77, 64
1, 138788, Note_on_c, 1, 80, 127
1, 138789, Note_on_c, 4, 53, 127
1, 138792, Note_off_c, 4, 55, 64
1, 138833, Note_on_c, 4, 56, 127
1, 138839, Note_off_c, 4, 53, 64
1, 138879, Note_on_c, 4, 60, 127
1, 138885, Note_off_c, 4, 56, 64
1, 138927, Note_off_c, 1, 80, 64
1, 138927, Note_on_c, 1, 84, 123
1, 138928, Note_on_c, 4, 58, 127
1, 138932, Note_off_c, 4, 60, 64
1, 138972, Note_on_c, 4, 56, 127
1, 138978, Note_off_c, 4, 58, 64
1, 139019, Note_on_c, 4, 55, 127
1, 139024, Note_off_c, 4, 56, 64
1, 139063, Note_on_c, 4, 53, 127
1, 139068, Note_off_c, 4, 55, 64
1, 139107, Note_on_c, 4, 55, 127
1, 139113, Note_off_c, 4, 53, 64
1, 139153, Note_on_c, 4, 53, 127
1, 139159, Note_off_c, 4, 55, 64
1, 139197, Note_on_c, 4, 51, 127
1, 139203, Note_off_c, 4, 53, 64
1, 139241, Note_on_c, 4, 53, 127
1, 139247, Note_off_c, 4, 51, 64
1, 139289, Note_on_c, 4, 51, 127
1, 139295, Note_off_c, 4, 53, 64
1, 139328, Note_off_c, 1, 84, 64
1, 139333, Note_on_c, 1, 84, 123
1, 139334, Note_on_c, 4, 38, 127
1, 139334, Note_on_c, 4, 50, 127
1, 139339, Note_off_c, 4, 51, 64
1, 139380, Note_on_c, 1, 86, 123
1, 139385, Note_off_c, 1, 84, 64
1, 139426, Note_on_c, 1, 87, 123
1, 139431, Note_off_c, 1, 86, 64
1, 139474, Note_on_c, 1, 86, 123
1, 139479, Note_off_c, 1, 87, 64
1, 139518, Note_on_c, 1, 84, 123
1, 139524, Note_off_c, 1, 86, 64
1, 139562, Note_on_c, 1, 82, 123
1, 139568, Note_off_c, 1, 84, 64
1, 139607, Note_off_c, 4, 38, 64
1, 139608, Note_off_c, 4, 50, 64
1, 139608, Note_on_c, 4, 54, 127
1, 139608, Note_on_c, 1, 81, 123
1, 139609, Note_on_c, 4, 42, 127
1, 139613, Note_off_c, 1, 82, 64
1, 139653, Note_on_c, 1, 82, 123
1, 139661, Note_off_c, 1, 81, 64
1, 139699, Note_on_c, 1, 84, 123
1, 139705, Note_off_c, 1, 82, 64
1, 139745, Note_off_c, 4, 42, 64
1, 139746, Note_off_c, 4, 54, 64
1, 139746, Note_on_c, 1, 82, 123
1, 139747, Note_on_c, 4, 57, 127
1, 139747, Note_on_c, 4, 45, 127
1, 139751, Note_off_c, 1, 84, 64
1, 139790, Note_on_c, 1, 81, 123
1, 139796, Note_off_c, 1, 82, 64
1, 139836, Note_on_c, 1, 79, 121
1, 139842, Note_off_c, 1, 81, 64
1, 139881, Note_off_c, 4, 45, 64
1, 139881, Note_off_c, 4, 57, 64
1, 139882, Note_on_c, 4, 62, 127
1, 139882, Note_on_c, 1, 78, 119
1, 139883, Note_on_c, 4, 50, 127
1, 139886, Note_off_c, 1, 79, 64
1, 139927, Note_on_c, 1, 81, 123
1, 139932, Note_off_c, 1, 78, 64
1, 139973, Note_on_c, 1, 78, 119
1, 139979, Note_off_c, 1, 81, 64
1, 140015, Note_off_c, 4, 50, 64
1, 140016, Note_off_c, 4, 62, 64
1, 140016, Note_on_c, 4, 66, 123
1, 140016, Note_on_c, 2, 75, 124
1, 140017, Note_on_c, 4, 54, 127
1, 140022, Note_off_c, 1, 78, 64
1, 140060, Note_on_c, 1, 81, 123
1, 140066, Note_off_c, 2, 75, 64
1, 140106, Note_on_c, 2, 75, 124
1, 140112, Note_off_c, 1, 81, 64
1, 140150, Note_on_c, 2, 74, 124
1, 140156, Note_off_c, 2, 75, 64
1, 140195, Note_on_c, 1, 81, 123
1, 140200, Note_off_c, 2, 74, 64
1, 140241, Note_on_c, 2, 74, 124
1, 140246, Note_off_c, 1, 81, 64
1, 140285, Note_on_c, 2, 72, 124
1, 140291, Note_off_c, 2, 74, 64
1, 140329, Note_on_c, 1, 81, 123
1, 140335, Note_off_c, 2, 72, 64
1, 140375, Note_on_c, 2, 72, 124
1, 140381, Note_off_c, 1, 81, 64
1, 140419, Note_off_c, 4, 54, 64
1, 140420, Note_off_c, 4, 66, 64
1, 140420, Note_on_c, 2, 70, 127
1, 140421, Note_on_c, 4, 55, 123
1, 140425, Note_off_c, 2, 72, 64
1, 140466, Note_on_c, 4, 58, 123
1, 140472, Note_off_c, 4, 55, 64
1, 140510, Note_on_c, 4, 62, 121
1, 140516, Note_off_c, 4, 58, 64
1, 140558, Note_on_c, 4, 60, 123
1, 140562, Note_off_c, 4, 62, 64
1, 140603, Note_on_c, 4, 58, 123
1, 140606, Note_off_c, 4, 60, 64
1, 140645, Note_on_c, 4, 57, 123
1, 140651, Note_off_c, 4, 58, 64
1, 140689, Note_off_c, 2, 70, 64
1, 140689, Note_on_c, 2, 74, 127
1, 140690, Note_on_c, 4, 55, 123
1, 140696, Note_off_c, 4, 57, 64
1, 140734, Note_on_c, 4, 58, 123
1, 140740, Note_off_c, 4, 55, 64
1, 140778, Note_on_c, 4, 62, 121
1, 140784, Note_off_c, 4, 58, 64
1, 140824, Note_off_c, 2, 74, 64
1, 140825, Note_on_c, 2, 77, 124
1, 140825, Note_on_c, 4, 60, 123
1, 140829, Note_off_c, 4, 62, 64
1, 140866, Note_on_c, 4, 58, 123
1, 140871, Note_off_c, 4, 60, 64
1, 140910, Note_on_c, 4, 57, 123
1, 140914, Note_off_c, 4, 58, 64
1, 140949, Note_off_c, 2, 77, 64
1, 140950, Note_on_c, 1, 82, 123
1, 140950, Note_on_c, 4, 55, 123
1, 140956, Note_off_c, 4, 57, 64
1, 140994, Note_on_c, 4, 58, 123
1, 141000, Note_off_c, 4, 55, 64
1, 141040, Note_on_c, 4, 62, 121
1, 141046, Note_off_c, 4, 58, 64
1, 141086, Note_off_c, 1, 82, 64
1, 141087, Note_on_c, 1, 86, 123
1, 141087, Note_on_c, 4, 60, 123
1, 141091, Note_off_c, 4, 62, 64
1, 141130, Note_on_c, 4, 58, 123
1, 141135, Note_off_c, 4, 60, 64
1, 141176, Note_on_c, 4, 57, 123
1, 141180, Note_off_c, 4, 58, 64
1, 141220, Note_on_c, 4, 55, 123
1, 141226, Note_off_c, 4, 57, 64
1, 141266, Note_on_c, 4, 58, 123
1, 141284, Note_off_c, 4, 55, 64
1, 141312, Note_on_c, 4, 62, 121
1, 141331, Note_off_c, 4, 58, 64
1, 141359, Note_on_c, 4, 55, 123
1, 141404, Note_on_c, 4, 58, 123
1, 141410, Note_off_c, 4, 62, 64
1, 141422, Note_off_c, 4, 55, 64
1, 141449, Note_on_c, 4, 62, 121
1, 141468, Note_off_c, 4, 58, 64
1, 141495, Note_off_c, 1, 86, 64
1, 141495, Note_on_c, 2, 71, 127
1, 141496, Note_on_c, 4, 53, 123
1, 141540, Note_on_c, 4, 59, 123
1, 141546, Note_off_c, 4, 62, 64
1, 141559, Note_off_c, 4, 53, 64
1, 141586, Note_on_c, 4, 62, 121
1, 141603, Note_off_c, 4, 59, 64
1, 141632, Note_on_c, 4, 55, 123
1, 141678, Note_on_c, 4, 59, 123
1, 141683, Note_off_c, 4, 62, 64
1, 141696, Note_off_c, 4, 55, 64
1, 141724, Note_on_c, 4, 62, 121
1, 141742, Note_off_c, 4, 59, 64
1, 141770, Note_off_c, 2, 71, 64
1, 141771, Note_on_c, 2, 74, 127
1, 141771, Note_on_c, 4, 56, 123
1, 141815, Note_on_c, 4, 59, 123
1, 141820, Note_off_c, 4, 62, 64
1, 141832, Note_off_c, 4, 56, 64
1, 141859, Note_on_c, 4, 62, 121
1, 141876, Note_off_c, 4, 59, 64
1, 141905, Note_off_c, 2, 74, 64
1, 141905, Note_on_c, 2, 77, 127
1, 141906, Note_on_c, 4, 55, 123
1, 141950, Note_on_c, 4, 59, 123
1, 141954, Note_off_c, 4, 62, 64
1, 141967, Note_off_c, 4, 55, 64
1, 141994, Note_on_c, 4, 62, 121
1, 142011, Note_off_c, 4, 59, 64
1, 142038, Note_off_c, 2, 77, 64
1, 142039, Note_on_c, 4, 53, 123
1, 142039, Note_on_c, 1, 83, 127
1, 142085, Note_on_c, 4, 59, 123
1, 142091, Note_off_c, 4, 62, 64
1, 142103, Note_off_c, 4, 53, 64
1, 142131, Note_on_c, 4, 62, 121
1, 142149, Note_off_c, 4, 59, 64
1, 142177, Note_off_c, 1, 83, 64
1, 142178, Note_on_c, 1, 86, 123
1, 142178, Note_on_c, 4, 55, 123
1, 142223, Note_on_c, 4, 59, 123
1, 142228, Note_off_c, 4, 62, 64
1, 142240, Note_off_c, 4, 55, 64
1, 142269, Note_on_c, 4, 62, 121
1, 142286, Note_off_c, 4, 59, 64
1, 142313, Note_on_c, 4, 56, 123
1, 142359, Note_on_c, 4, 59, 123
1, 142365, Note_off_c, 4, 62, 64
1, 142376, Note_off_c, 4, 56, 64
1, 142405, Note_on_c, 4, 62, 121
1, 142422, Note_off_c, 4, 59, 64
1, 142449, Note_on_c, 4, 53, 123
1, 142495, Note_on_c, 4, 59, 123
1, 142501, Note_off_c, 4, 62, 64
1, 142512, Note_off_c, 4, 53, 64
1, 142539, Note_on_c, 4, 62, 121
1, 142559, Note_off_c, 4, 59, 64
1, 142585, Note_off_c, 1, 86, 64
1, 142586, Note_on_c, 2, 72, 127
1, 142586, Note_on_c, 4, 51, 123
1, 142632, Note_on_c, 4, 55, 123
1, 142638, Note_off_c, 4, 62, 64
1, 142650, Note_off_c, 4, 51, 64
1, 142679, Note_on_c, 4, 60, 123
1, 142695, Note_off_c, 4, 55, 64
1, 142724, Note_on_c, 4, 53, 123
1, 142770, Note_on_c, 4, 56, 123
1, 142776, Note_off_c, 4, 60, 64
1, 142787, Note_off_c, 4, 53, 64
1, 142816, Note_on_c, 4, 60, 123
1, 142833, Note_off_c, 4, 56, 64
1, 142860, Note_off_c, 2, 72, 64
1, 142860, Note_on_c, 2, 75, 127
1, 142861, Note_on_c, 4, 51, 123
1, 142905, Note_on_c, 4, 55, 123
1, 142911, Note_off_c, 4, 60, 64
1, 142922, Note_off_c, 4, 51, 64
1, 142949, Note_on_c, 4, 60, 123
1, 142968, Note_off_c, 4, 55, 64
1, 142995, Note_off_c, 2, 75, 64
1, 142996, Note_on_c, 4, 50, 123
1, 142996, Note_on_c, 1, 79, 125
1, 143039, Note_on_c, 4, 53, 123
1, 143044, Note_off_c, 4, 60, 64
1, 143054, Note_off_c, 4, 50, 64
1, 143081, Note_on_c, 4, 60, 123
1, 143098, Note_off_c, 4, 53, 64
1, 143124, Note_off_c, 1, 79, 64
1, 143124, Note_on_c, 1, 84, 127
1, 143124, Note_on_c, 4, 51, 123
1, 143170, Note_on_c, 4, 55, 123
1, 143175, Note_off_c, 4, 60, 64
1, 143186, Note_off_c, 4, 51, 64
1, 143213, Note_on_c, 4, 60, 123
1, 143231, Note_off_c, 4, 55, 64
1, 143257, Note_off_c, 1, 84, 64
1, 143258, Note_on_c, 1, 87, 123
1, 143258, Note_on_c, 4, 50, 123
1, 143301, Note_on_c, 4, 53, 123
1, 143306, Note_off_c, 4, 60, 64
1, 143318, Note_off_c, 4, 50, 64
1, 143347, Note_on_c, 4, 60, 125
1, 143364, Note_off_c, 4, 53, 64
1, 143391, Note_on_c, 4, 51, 125
1, 143437, Note_on_c, 4, 55, 125
1, 143443, Note_off_c, 4, 60, 64
1, 143454, Note_off_c, 4, 51, 64
1, 143481, Note_on_c, 4, 60, 125
1, 143498, Note_off_c, 4, 55, 64
1, 143528, Note_on_c, 4, 48, 125
1, 143569, Note_on_c, 4, 51, 125
1, 143576, Note_off_c, 4, 60, 64
1, 143587, Note_off_c, 4, 48, 64
1, 143614, Note_on_c, 4, 55, 125
1, 143631, Note_off_c, 4, 51, 64
1, 143660, Note_off_c, 1, 87, 64
1, 143660, Note_on_c, 2, 74, 127
1, 143661, Note_on_c, 4, 62, 123
1, 143661, Note_on_c, 4, 47, 125
1, 143677, Note_off_c, 4, 55, 64
1, 143706, Note_on_c, 4, 50, 125
1, 143725, Note_off_c, 4, 47, 64
1, 143754, Note_on_c, 4, 55, 125
1, 143773, Note_off_c, 4, 50, 64
1, 143802, Note_on_c, 4, 48, 125
1, 143819, Note_off_c, 4, 55, 64
1, 143848, Note_on_c, 4, 50, 125
1, 143866, Note_off_c, 4, 48, 64
1, 143894, Note_on_c, 4, 55, 125
1, 143913, Note_off_c, 4, 50, 64
1, 143940, Note_off_c, 4, 62, 64
1, 143941, Note_off_c, 2, 74, 64
1, 143941, Note_on_c, 4, 65, 127
1, 143941, Note_on_c, 2, 77, 124
1, 143942, Note_on_c, 4, 47, 125
1, 143959, Note_off_c, 4, 55, 64
1, 143987, Note_on_c, 4, 50, 125
1, 144004, Note_off_c, 4, 47, 64
1, 144033, Note_on_c, 4, 55, 125
1, 144049, Note_off_c, 4, 50, 64
1, 144076, Note_off_c, 4, 65, 64
1, 144077, Note_off_c, 2, 77, 64
1, 144078, Note_on_c, 1, 79, 121
1, 144078, Note_on_c, 4, 67, 127
1, 144079, Note_on_c, 4, 45, 125
1, 144096, Note_off_c, 4, 55, 64
1, 144123, Note_on_c, 4, 50, 125
1, 144142, Note_off_c, 4, 45, 64
1, 144171, Note_on_c, 4, 55, 125
1, 144188, Note_off_c, 4, 50, 64
1, 144217, Note_off_c, 4, 67, 64
1, 144217, Note_off_c, 1, 79, 64
1, 144218, Note_on_c, 4, 47, 125
1, 144218, Note_on_c, 2, 74, 127
1, 144218, Note_on_c, 1, 86, 123
1, 144234, Note_off_c, 4, 55, 64
1, 144263, Note_on_c, 4, 50, 125
1, 144281, Note_off_c, 4, 47, 64
1, 144310, Note_on_c, 4, 55, 125
1, 144329, Note_off_c, 4, 50, 64
1, 144358, Note_off_c, 1, 86, 64
1, 144358, Note_off_c, 2, 74, 64
1, 144359, Note_on_c, 1, 89, 123
1, 144360, Note_on_c, 4, 43, 125
1, 144360, Note_on_c, 2, 77, 124
1, 144376, Note_off_c, 4, 55, 64
1, 144737, Note_off_c, 1, 89, 64
1, 144738, Note_off_c, 2, 77, 64
1, 144742, Note_on_c, 2, 77, 124
1, 144880, Note_off_c, 2, 77, 64
1, 144881, Note_on_c, 1, 80, 123
1, 145016, Note_off_c, 1, 80, 64
1, 145016, Note_on_c, 2, 71, 125
1, 145017, Note_off_c, 4, 43, 64
1, 145017, Note_on_c, 4, 62, 127
1, 145290, Note_off_c, 2, 71, 64
1, 145291, Note_on_c, 2, 74, 124
1, 145426, Note_off_c, 2, 74, 64
1, 145426, Note_on_c, 2, 77, 124
1, 145559, Note_off_c, 2, 77, 64
1, 145560, Note_on_c, 4, 59, 127
1, 145560, Note_on_c, 2, 68, 123
1, 145572, Note_off_c, 4, 62, 64
1, 145838, Note_off_c, 2, 68, 64
1, 145839, Note_on_c, 2, 71, 125
1, 145976, Note_off_c, 2, 71, 64
1, 145976, Note_on_c, 2, 74, 124
1, 146115, Note_off_c, 2, 74, 64
1, 146115, Note_on_c, 3, 62, 127
1, 146126, Note_off_c, 4, 59, 64
1, 146253, Note_off_c, 3, 62, 64
1, 146254, Note_on_c, 3, 65, 123
1, 146389, Note_off_c, 3, 65, 64
1, 146389, Note_on_c, 4, 56, 127
1, 146390, Note_on_c, 4, 50, 127
1, 146390, Note_on_c, 4, 53, 127
1, 146391, Note_on_c, 4, 34, 127
1, 146391, Note_on_c, 4, 46, 127
1, 146960, Note_off_c, 4, 34, 64
1, 146961, Note_off_c, 4, 50, 64
1, 146961, Note_off_c, 4, 46, 64
1, 146962, Note_off_c, 4, 56, 64
1, 146962, Note_off_c, 4, 53, 64
1, 146963, Note_on_c, 4, 55, 127
1, 147384, Note_off_c, 4, 55, 64
1, 147417, Note_on_c, 4, 60, 127
1, 147418, Note_on_c, 4, 36, 127
1, 147418, Note_on_c, 4, 48, 127
1, 147695, Note_off_c, 4, 48, 64
1, 147695, Note_off_c, 4, 36, 64
1, 147696, Note_off_c, 4, 60, 64
1, 147696, Note_on_c, 4, 63, 127
1, 147696, Note_on_c, 4, 51, 127
1, 147697, Note_on_c, 4, 39, 127
1, 147834, Note_off_c, 4, 39, 64
1, 147834, Note_off_c, 4, 51, 64
1, 147835, Note_off_c, 4, 63, 64
1, 147835, Note_on_c, 4, 67, 127
1, 147836, Note_on_c, 4, 43, 127
1, 147836, Note_on_c, 4, 55, 127
1, 147968, Note_off_c, 4, 55, 64
1, 147968, Note_off_c, 4, 43, 64
1, 147969, Note_off_c, 4, 67, 64
1, 147969, Note_on_c, 4, 60, 127
1, 147969, Note_on_c, 2, 72, 127
1, 148103, Note_off_c, 2, 72, 64
1, 148103, Note_off_c, 4, 60, 64
1, 148104, Note_on_c, 4, 63, 127
1, 148104, Note_on_c, 2, 75, 127
1, 148303, Note_off_c, 2, 75, 64
1, 148337, Note_on_c, 2, 75, 120
1, 148366, Note_off_c, 2, 75, 64
1, 148373, Note_on_c, 2, 75, 120
1, 148392, Note_on_c, 2, 77, 120
1, 148394, Note_off_c, 2, 75, 64
1, 148412, Note_on_c, 2, 75, 120
1, 148414, Note_off_c, 2, 77, 64
1, 148431, Note_on_c, 2, 77, 120
1, 148433, Note_off_c, 2, 75, 64
1, 148449, Note_on_c, 2, 74, 120
1, 148450, Note_off_c, 2, 77, 64
1, 148477, Note_off_c, 2, 74, 64
1, 148485, Note_on_c, 2, 75, 120
1, 148519, Note_off_c, 4, 63, 64
1, 148520, Note_on_c, 1, 79, 117
1, 148522, Note_off_c, 2, 75, 64
1, 148657, Note_off_c, 1, 79, 64
1, 148657, Note_on_c, 2, 72, 120
1, 148657, Note_on_c, 4, 67, 123
1, 148658, Note_on_c, 4, 63, 127
1, 148788, Note_off_c, 4, 63, 64
1, 148788, Note_off_c, 4, 67, 64
1, 148789, Note_off_c, 2, 72, 64
1, 148791, Note_on_c, 2, 72, 120
1, 148792, Note_on_c, 4, 63, 127
1, 148792, Note_on_c, 4, 67, 123
1, 148922, Note_off_c, 4, 63, 64
1, 148923, Note_off_c, 2, 72, 64
1, 148923, Note_off_c, 4, 67, 64
1, 148928, Note_on_c, 4, 67, 123
1, 148928, Note_on_c, 2, 72, 120
1, 148929, Note_on_c, 4, 63, 127
1, 149064, Note_on_c, 1, 80, 119
1, 149067, Note_off_c, 2, 72, 64
1, 149067, Note_off_c, 4, 67, 64
1, 149067, Note_off_c, 4, 63, 64
1, 149202, Note_off_c, 1, 80, 64
1, 149203, Note_on_c, 2, 68, 123
1, 149203, Note_on_c, 2, 71, 125
1, 149204, Note_on_c, 4, 62, 127
1, 149204, Note_on_c, 4, 65, 123
1, 149337, Note_off_c, 4, 62, 64
1, 149338, Note_off_c, 2, 68, 64
1, 149338, Note_off_c, 4, 65, 64
1, 149339, Note_off_c, 2, 71, 64
1, 149340, Note_on_c, 4, 65, 123
1, 149340, Note_on_c, 2, 68, 123
1, 149340, Note_on_c, 2, 71, 125
1, 149341, Note_on_c, 4, 62, 127
1, 149618, Note_off_c, 4, 65, 64
1, 149618, Note_off_c, 4, 62, 64
1, 149619, Note_off_c, 2, 71, 64
1, 149619, Note_off_c, 2, 68, 64
1, 149620, Note_on_c, 4, 43, 127
1, 149620, Note_on_c, 4, 55, 127
1, 149621, Note_on_c, 4, 31, 127
1, 149897, Note_off_c, 4, 31, 64
1, 149898, Note_off_c, 4, 55, 64
1, 149898, Note_off_c, 4, 43, 64
1, 149899, Note_on_c, 4, 47, 127
1, 149899, Note_on_c, 4, 59, 127
1, 149900, Note_on_c, 4, 35, 127
1, 150040, Note_off_c, 4, 35, 64
1, 150041, Note_off_c, 4, 59, 64
1, 150041, Note_off_c, 4, 47, 64
1, 150042, Note_on_c, 4, 62, 127
1, 150042, Note_on_c, 4, 50, 127
1, 150043, Note_on_c, 4, 38, 127
1, 150181, Note_off_c, 4, 38, 64
1, 150182, Note_off_c, 4, 50, 64
1, 150182, Note_off_c, 4, 62, 64
1, 150183, Note_on_c, 4, 55, 127
1, 150183, Note_on_c, 4, 67, 123
1, 150184, Note_on_c, 4, 43, 127
1, 150317, Note_off_c, 4, 55, 64
1, 150317, Note_off_c, 4, 43, 64
1, 150318, Note_off_c, 4, 67, 64
1, 150318, Note_on_c, 2, 71, 125
1, 150319, Note_on_c, 4, 47, 127
1, 150319, Note_on_c, 4, 59, 127
1, 150524, Note_off_c, 2, 71, 64
1, 150558, Note_on_c, 2, 74, 120
1, 150585, Note_off_c, 2, 74, 64
1, 150594, Note_off_c, 4, 59, 64
1, 150595, Note_on_c, 2, 74, 120
1, 150609, Note_off_c, 2, 74, 64
1, 150612, Note_on_c, 2, 75, 120
1, 150628, Note_off_c, 2, 75, 64
1, 150632, Note_on_c, 2, 74, 120
1, 150646, Note_off_c, 2, 74, 64
1, 150651, Note_on_c, 2, 75, 120
1, 150671, Note_on_c, 2, 72, 120
1, 150680, Note_off_c, 2, 75, 64
1, 150707, Note_on_c, 2, 74, 120
1, 150710, Note_off_c, 2, 72, 64
1, 150740, Note_off_c, 4, 47, 64
1, 150740, Note_on_c, 2, 77, 120
1, 150742, Note_off_c, 2, 74, 64
1, 150875, Note_off_c, 2, 77, 64
1, 150876, Note_on_c, 4, 62, 127
1, 150876, Note_on_c, 4, 65, 123
1, 150876, Note_on_c, 2, 68, 123
1, 150876, Note_on_c, 2, 71, 125
1, 151011, Note_off_c, 4, 65, 64
1, 151011, Note_off_c, 4, 62, 64
1, 151012, Note_off_c, 2, 71, 64
1, 151012, Note_off_c, 2, 68, 64
1, 151015, Note_on_c, 2, 71, 125
1, 151015, Note_on_c, 2, 68, 123
1, 151016, Note_on_c, 4, 65, 123
1, 151017, Note_on_c, 4, 62, 127
1, 151152, Note_off_c, 4, 62, 64
1, 151152, Note_off_c, 4, 65, 64
1, 151152, Note_off_c, 2, 68, 64
1, 151153, Note_off_c, 2, 71, 64
1, 151155, Note_on_c, 2, 71, 125
1, 151156, Note_on_c, 4, 62, 127
1, 151156, Note_on_c, 4, 65, 123
1, 151156, Note_on_c, 2, 68, 123
1, 151294, Note_on_c, 1, 79, 117
1, 151295, Note_off_c, 4, 62, 64
1, 151296, Note_off_c, 2, 71, 64
1, 151296, Note_off_c, 2, 68, 64
1, 151296, Note_off_c, 4, 65, 64
1, 151432, Note_off_c, 1, 79, 64
1, 151432, Note_on_c, 2, 72, 124
1, 151433, Note_on_c, 4, 63, 127
1, 151433, Note_on_c, 4, 67, 123
1, 151562, Note_off_c, 4, 63, 64
1, 151563, Note_off_c, 2, 72, 64
1, 151563, Note_off_c, 4, 67, 64
1, 151569, Note_on_c, 2, 72, 124
1, 151570, Note_on_c, 4, 67, 123
1, 151570, Note_on_c, 4, 63, 127
1, 151841, Note_off_c, 4, 63, 64
1, 151844, Note_off_c, 2, 72, 64
1, 151848, Note_on_c, 3, 67, 123
1, 151848, Note_on_c, 4, 43, 127
1, 151918, Note_on_c, 4, 55, 127
1, 151979, Note_off_c, 4, 43, 64
1, 151983, Note_on_c, 4, 43, 127
1, 152046, Note_off_c, 4, 55, 64
1, 152050, Note_on_c, 4, 55, 127
1, 152115, Note_off_c, 4, 43, 64
1, 152119, Note_on_c, 4, 43, 127
1, 152184, Note_off_c, 4, 55, 64
1, 152188, Note_on_c, 4, 55, 127
1, 152252, Note_off_c, 4, 43, 64
1, 152252, Note_off_c, 3, 67, 64
1, 152252, Note_off_c, 4, 67, 64
1, 152257, Note_on_c, 0, 75, 124
1, 152258, Note_on_c, 3, 67, 123
1, 152258, Note_on_c, 4, 43, 127
1, 152324, Note_off_c, 4, 55, 64
1, 152328, Note_on_c, 4, 55, 127
1, 152395, Note_off_c, 4, 43, 64
1, 152399, Note_off_c, 3, 67, 64
1, 152399, Note_on_c, 3, 66, 123
1, 152400, Note_on_c, 4, 43, 127
1, 152463, Note_off_c, 4, 55, 64
1, 152467, Note_on_c, 4, 55, 127
1, 152532, Note_off_c, 4, 43, 64
1, 152536, Note_off_c, 0, 75, 64
1, 152536, Note_off_c, 3, 66, 64
1, 152537, Note_on_c, 3, 65, 123
1, 152537, Note_on_c, 0, 74, 124
1, 152538, Note_on_c, 4, 43, 127
1, 152601, Note_off_c, 4, 55, 64
1, 152605, Note_on_c, 4, 55, 127
1, 152670, Note_off_c, 4, 43, 64
1, 152674, Note_off_c, 3, 65, 64
1, 152675, Note_on_c, 3, 64, 127
1, 152675, Note_on_c, 4, 43, 127
1, 152739, Note_off_c, 4, 55, 64
1, 152743, Note_on_c, 4, 55, 127
1, 152807, Note_off_c, 4, 43, 64
1, 152810, Note_off_c, 3, 64, 64
1, 152811, Note_off_c, 0, 74, 64
1, 152811, Note_on_c, 0, 72, 124
1, 152812, Note_on_c, 4, 43, 127
1, 152812, Note_on_c, 3, 63, 127
1, 152874, Note_off_c, 4, 55, 64
1, 152878, Note_on_c, 4, 55, 127
1, 152936, Note_off_c, 3, 63, 64
1, 152940, Note_off_c, 4, 43, 64
1, 152945, Note_on_c, 3, 62, 127
1, 152945, Note_on_c, 4, 43, 127
1, 153010, Note_off_c, 4, 55, 64
1, 153014, Note_on_c, 4, 55, 127
1, 153075, Note_off_c, 0, 72, 64
1, 153078, Note_off_c, 4, 43, 64
1, 153083, Note_on_c, 2, 71, 125
1, 153083, Note_on_c, 4, 43, 127
1, 153148, Note_off_c, 4, 55, 64
1, 153153, Note_on_c, 4, 55, 127
1, 153217, Note_off_c, 4, 43, 64
1, 153222, Note_on_c, 4, 43, 127
1, 153287, Note_off_c, 4, 55, 64
1, 153291, Note_on_c, 4, 55, 127
1, 153356, Note_off_c, 4, 43, 64
1, 153360, Note_on_c, 1, 79, 121
1, 153361, Note_off_c, 2, 71, 64
1, 153361, Note_on_c, 2, 75, 124
1, 153361, Note_on_c, 4, 43, 127
1, 153425, Note_off_c, 4, 55, 64
1, 153429, Note_on_c, 4, 55, 127
1, 153494, Note_off_c, 4, 43, 64
1, 153494, Note_off_c, 2, 75, 64
1, 153496, Note_off_c, 3, 62, 64
1, 153499, Note_off_c, 1, 79, 64
1, 153500, Note_on_c, 1, 78, 119
1, 153501, Note_on_c, 4, 43, 127
1, 153501, Note_on_c, 2, 75, 124
1, 153562, Note_off_c, 4, 55, 64
1, 153566, Note_on_c, 4, 55, 127
1, 153627, Note_off_c, 4, 43, 64
1, 153632, Note_off_c, 1, 78, 64
1, 153632, Note_off_c, 2, 75, 64
1, 153633, Note_on_c, 2, 74, 124
1, 153633, Note_on_c, 2, 77, 124
1, 153634, Note_on_c, 4, 43, 127
1, 153696, Note_off_c, 4, 55, 64
1, 153701, Note_on_c, 4, 55, 127
1, 153764, Note_off_c, 4, 43, 64
1, 153768, Note_off_c, 2, 77, 64
1, 153768, Note_on_c, 2, 76, 124
1, 153769, Note_on_c, 4, 43, 127
1, 153830, Note_off_c, 4, 55, 64
1, 153834, Note_on_c, 4, 55, 127
1, 153898, Note_off_c, 4, 43, 64
1, 153901, Note_off_c, 2, 76, 64
1, 153902, Note_off_c, 2, 74, 64
1, 153902, Note_on_c, 2, 75, 124
1, 153903, Note_on_c, 2, 72, 124
1, 153903, Note_on_c, 4, 43, 127
1, 153965, Note_off_c, 4, 55, 64
1, 153969, Note_on_c, 4, 55, 127
1, 154031, Note_off_c, 4, 43, 64
1, 154032, Note_off_c, 2, 72, 64
1, 154034, Note_off_c, 2, 75, 64
1, 154034, Note_on_c, 2, 74, 124
1, 154035, Note_on_c, 4, 43, 127
1, 154035, Note_on_c, 2, 72, 124
1, 154099, Note_off_c, 4, 55, 64
1, 154103, Note_on_c, 4, 55, 127
1, 154159, Note_off_c, 4, 55, 64
1, 154174, Note_off_c, 2, 72, 64
1, 154175, Note_on_c, 2, 71, 125
1, 154175, Note_on_c, 4, 55, 127
1, 154227, Note_off_c, 4, 55, 64
1, 154240, Note_on_c, 4, 55, 127
1, 154308, Note_off_c, 4, 43, 64
1, 154308, Note_on_c, 4, 41, 127
1, 154370, Note_off_c, 4, 55, 64
1, 154374, Note_on_c, 4, 53, 127
1, 154426, Note_off_c, 4, 53, 64
1, 154435, Note_off_c, 2, 71, 64
1, 154436, Note_off_c, 2, 74, 64
1, 154440, Note_on_c, 2, 74, 124
1, 154440, Note_on_c, 1, 80, 123
1, 154441, Note_on_c, 2, 71, 125
1, 154441, Note_on_c, 4, 53, 127
1, 154494, Note_off_c, 4, 53, 64
1, 154509, Note_on_c, 4, 53, 127
1, 154578, Note_off_c, 4, 41, 64
1, 154579, Note_on_c, 4, 39, 127
1, 154643, Note_off_c, 4, 53, 64
1, 154646, Note_on_c, 4, 51, 127
1, 154700, Note_off_c, 4, 51, 64
1, 154716, Note_off_c, 1, 80, 64
1, 154716, Note_off_c, 2, 74, 64
1, 154716, Note_off_c, 2, 71, 64
1, 154717, Note_on_c, 2, 75, 124
1, 154717, Note_on_c, 1, 79, 121
1, 154718, Note_on_c, 2, 72, 124
1, 154718, Note_on_c, 4, 51, 127
1, 154766, Note_off_c, 4, 51, 64
1, 154780, Note_on_c, 4, 51, 127
1, 154846, Note_off_c, 4, 39, 64
1, 154847, Note_on_c, 4, 35, 127
1, 154908, Note_off_c, 4, 51, 64
1, 154912, Note_on_c, 4, 47, 127
1, 154924, Note_off_c, 2, 75, 64
1, 154924, Note_off_c, 2, 72, 64
1, 154925, Note_off_c, 1, 79, 64
1, 154948, Note_on_c, 4, 67, 123
1, 154967, Note_off_c, 4, 47, 64
1, 154980, Note_on_c, 2, 74, 124
1, 154981, Note_on_c, 4, 47, 127
1, 154985, Note_off_c, 4, 67, 64
1, 155035, Note_off_c, 4, 47, 64
1, 155049, Note_on_c, 4, 47, 127
1, 155083, Note_off_c, 2, 74, 64
1, 155084, Note_on_c, 2, 77, 124
1, 155117, Note_off_c, 4, 35, 64
1, 155117, Note_on_c, 2, 75, 124
1, 155118, Note_on_c, 4, 36, 127
1, 155124, Note_off_c, 2, 77, 64
1, 155135, Note_on_c, 2, 77, 124
1, 155154, Note_on_c, 2, 74, 124
1, 155160, Note_off_c, 2, 75, 64
1, 155177, Note_off_c, 2, 77, 64
1, 155185, Note_off_c, 4, 47, 64
1, 155189, Note_on_c, 2, 75, 124
1, 155189, Note_on_c, 4, 48, 127
1, 155196, Note_off_c, 2, 74, 64
1, 155226, Note_on_c, 2, 77, 124
1, 155232, Note_off_c, 2, 75, 64
1, 155245, Note_off_c, 4, 48, 64
1, 155261, Note_on_c, 1, 79, 121
1, 155262, Note_on_c, 4, 48, 127
1, 155268, Note_off_c, 2, 77, 64
1, 155317, Note_off_c, 4, 48, 64
1, 155331, Note_on_c, 4, 48, 127
1, 155400, Note_off_c, 4, 36, 64
1, 155400, Note_on_c, 4, 41, 127
1, 155471, Note_off_c, 4, 48, 64
1, 155471, Note_on_c, 4, 53, 127
1, 155525, Note_off_c, 4, 53, 64
1, 155539, Note_off_c, 1, 79, 64
1, 155539, Note_on_c, 1, 80, 123
1, 155540, Note_on_c, 2, 71, 125
1, 155540, Note_on_c, 2, 74, 124
1, 155540, Note_on_c, 4, 53, 127
1, 155594, Note_off_c, 4, 53, 64
1, 155608, Note_on_c, 4, 53, 127
1, 155679, Note_off_c, 4, 41, 64
1, 155679, Note_on_c, 4, 39, 127
1, 155745, Note_off_c, 4, 53, 64
1, 155749, Note_on_c, 4, 51, 127
1, 155804, Note_off_c, 4, 51, 64
1, 155820, Note_off_c, 2, 74, 64
1, 155820, Note_off_c, 2, 71, 64
1, 155821, Note_off_c, 1, 80, 64
1, 155821, Note_on_c, 2, 75, 124
1, 155821, Note_on_c, 1, 79, 121
1, 155822, Note_on_c, 2, 72, 124
1, 155822, Note_on_c, 4, 51, 127
1, 155874, Note_off_c, 4, 51, 64
1, 155890, Note_on_c, 4, 51, 127
1, 155959, Note_off_c, 4, 39, 64
1, 155960, Note_on_c, 4, 38, 127
1, 156025, Note_off_c, 4, 51, 64
1, 156029, Note_on_c, 4, 50, 127
1, 156041, Note_off_c, 2, 75, 64
1, 156041, Note_off_c, 2, 72, 64
1, 156042, Note_off_c, 1, 79, 64
1, 156065, Note_on_c, 2, 77, 124
1, 156085, Note_off_c, 4, 50, 64
1, 156101, Note_on_c, 1, 83, 123
1, 156102, Note_on_c, 4, 50, 127
1, 156104, Note_off_c, 2, 77, 64
1, 156156, Note_off_c, 4, 50, 64
1, 156169, Note_on_c, 4, 50, 127
1, 156182, Note_off_c, 1, 83, 64
1, 156204, Note_on_c, 1, 86, 123
1, 156225, Note_off_c, 4, 50, 64
1, 156232, Note_off_c, 1, 86, 64
1, 156237, Note_off_c, 4, 38, 64
1, 156238, Note_on_c, 4, 48, 127
1, 156238, Note_on_c, 1, 87, 123
1, 156307, Note_on_c, 1, 79, 121
1, 156371, Note_off_c, 1, 87, 64
1, 156374, Note_on_c, 1, 84, 123
1, 156380, Note_off_c, 1, 79, 64
1, 156444, Note_on_c, 1, 79, 121
1, 156505, Note_off_c, 1, 84, 64
1, 156509, Note_off_c, 4, 48, 64
1, 156509, Note_on_c, 4, 53, 127
1, 156573, Note_off_c, 1, 79, 64
1, 156577, Note_on_c, 2, 77, 124
1, 156646, Note_on_c, 1, 80, 123
1, 156652, Note_off_c, 2, 77, 64
1, 156715, Note_on_c, 2, 74, 124
1, 156780, Note_off_c, 1, 80, 64
1, 156784, Note_off_c, 4, 53, 64
1, 156785, Note_on_c, 4, 55, 127
1, 156851, Note_off_c, 2, 74, 64
1, 156854, Note_on_c, 2, 75, 124
1, 156924, Note_on_c, 1, 79, 121
1, 156929, Note_off_c, 2, 75, 64
1, 156994, Note_on_c, 2, 72, 124
1, 157059, Note_off_c, 1, 79, 64
1, 157063, Note_off_c, 4, 55, 64
1, 157063, Note_on_c, 4, 43, 127
1, 157127, Note_off_c, 2, 72, 64
1, 157133, Note_on_c, 2, 74, 124
1, 157200, Note_on_c, 2, 77, 124
1, 157206, Note_off_c, 2, 74, 64
1, 157267, Note_on_c, 2, 71, 125
1, 157324, Note_off_c, 2, 71, 64
1, 157332, Note_off_c, 2, 77, 64
1, 157335, Note_on_c, 2, 72, 124
1, 157596, Note_off_c, 2, 72, 64
1, 157597, Note_on_c, 4, 60, 127
1, 157597, Note_on_c, 2, 75, 124
1, 157609, Note_off_c, 4, 43, 64
1, 157736, Note_off_c, 2, 75, 64
1, 157737, Note_on_c, 1, 79, 121
1, 157875, Note_off_c, 1, 79, 64
1, 157875, Note_off_c, 4, 60, 64
1, 157876, Note_on_c, 3, 63, 127
1, 157876, Note_on_c, 1, 84, 123
1, 158014, Note_off_c, 1, 84, 64
1, 158014, Note_off_c, 3, 63, 64
1, 158014, Note_on_c, 1, 87, 123
1, 158015, Note_on_c, 3, 67, 123
1, 158150, Note_off_c, 3, 67, 64
1, 158150, Note_off_c, 1, 87, 64
1, 158150, Note_on_c, 1, 80, 123
1, 158151, Note_on_c, 4, 44, 127
1, 158151, Note_on_c, 2, 72, 124
1, 158152, Note_on_c, 4, 32, 127
1, 158283, Note_off_c, 2, 72, 64
1, 158284, Note_off_c, 1, 80, 64
1, 158284, Note_on_c, 2, 75, 124
1, 158284, Note_on_c, 1, 84, 123
1, 158416, Note_off_c, 1, 84, 64
1, 158416, Note_off_c, 2, 75, 64
1, 158417, Note_off_c, 4, 44, 64
1, 158417, Note_off_c, 4, 32, 64
1, 158418, Note_on_c, 2, 77, 124
1, 158418, Note_on_c, 3, 68, 123
1, 158419, Note_on_c, 4, 48, 127
1, 158419, Note_on_c, 4, 36, 127
1, 158550, Note_off_c, 4, 36, 64
1, 158551, Note_off_c, 4, 48, 64
1, 158551, Note_off_c, 3, 68, 64
1, 158552, Note_off_c, 2, 77, 64
1, 158552, Note_on_c, 1, 80, 123
1, 158553, Note_on_c, 4, 53, 127
1, 158553, Note_on_c, 2, 72, 124
1, 158554, Note_on_c, 4, 41, 127
1, 158680, Note_off_c, 4, 53, 64
1, 158680, Note_off_c, 4, 41, 64
1, 158681, Note_off_c, 1, 80, 64
1, 158681, Note_off_c, 2, 72, 64
1, 158682, Note_on_c, 2, 73, 124
1, 158682, Note_on_c, 3, 65, 123
1, 158683, Note_on_c, 4, 44, 127
1, 158683, Note_on_c, 4, 56, 127
1, 158814, Note_off_c, 3, 65, 64
1, 158815, Note_off_c, 2, 73, 64
1, 158815, Note_on_c, 2, 77, 124
1, 158816, Note_on_c, 3, 68, 123
1, 158948, Note_off_c, 2, 77, 64
1, 158948, Note_off_c, 3, 68, 64
1, 158949, Note_on_c, 2, 72, 124
1, 159017, Note_on_c, 3, 66, 123
1, 159082, Note_on_c, 3, 63, 127
1, 159105, Note_off_c, 3, 66, 64
1, 159151, Note_on_c, 3, 66, 123
1, 159186, Note_off_c, 4, 56, 64
1, 159220, Note_on_c, 4, 56, 127
1, 159243, Note_off_c, 3, 66, 64
1, 159286, Note_on_c, 3, 66, 123
1, 159346, Note_off_c, 3, 63, 64
1, 159352, Note_off_c, 2, 72, 64
1, 159352, Note_on_c, 1, 80, 123
1, 159353, Note_on_c, 3, 63, 127
1, 159374, Note_off_c, 3, 66, 64
1, 159418, Note_on_c, 3, 66, 123
1, 159480, Note_off_c, 4, 56, 64
1, 159482, Note_off_c, 1, 80, 64
1, 159486, Note_on_c, 1, 80, 123
1, 159487, Note_on_c, 4, 56, 127
1, 159508, Note_off_c, 3, 66, 64
1, 159554, Note_on_c, 3, 65, 123
1, 159616, Note_off_c, 3, 63, 64
1, 159622, Note_on_c, 3, 61, 127
1, 159645, Note_off_c, 3, 65, 64
1, 159687, Note_off_c, 1, 80, 64
1, 159687, Note_on_c, 2, 77, 124
1, 159688, Note_on_c, 3, 65, 123
1, 159749, Note_off_c, 4, 56, 64
1, 159755, Note_on_c, 2, 73, 124
1, 159756, Note_on_c, 4, 56, 127
1, 159760, Note_off_c, 2, 77, 64
1, 159777, Note_off_c, 3, 65, 64
1, 159820, Note_on_c, 3, 65, 123
1, 159880, Note_off_c, 3, 61, 64
1, 159886, Note_on_c, 3, 61, 127
1, 159907, Note_off_c, 3, 65, 64
1, 159951, Note_on_c, 3, 65, 123
1, 160012, Note_off_c, 4, 56, 64
1, 160019, Note_off_c, 2, 73, 64
1, 160019, Note_on_c, 4, 56, 127
1, 160019, Note_on_c, 2, 72, 124
1, 160040, Note_off_c, 3, 65, 64
1, 160087, Note_on_c, 3, 66, 123
1, 160148, Note_off_c, 3, 61, 64
1, 160153, Note_on_c, 3, 63, 127
1, 160175, Note_off_c, 3, 66, 64
1, 160221, Note_on_c, 3, 66, 123
1, 160282, Note_off_c, 4, 56, 64
1, 160283, Note_off_c, 2, 72, 64
1, 160287, Note_on_c, 4, 56, 127
1, 160287, Note_on_c, 2, 72, 124
1, 160309, Note_off_c, 3, 66, 64
1, 160354, Note_on_c, 1, 80, 123
1, 160354, Note_on_c, 3, 66, 123
1, 160358, Note_off_c, 2, 72, 64
1, 160414, Note_off_c, 3, 63, 64
1, 160420, Note_on_c, 3, 63, 127
1, 160420, Note_on_c, 1, 82, 123
1, 160425, Note_off_c, 1, 80, 64
1, 160440, Note_off_c, 3, 66, 64
1, 160463, Note_off_c, 4, 44, 64
1, 160484, Note_on_c, 1, 80, 123
1, 160485, Note_on_c, 3, 66, 123
1, 160489, Note_off_c, 1, 82, 64
1, 160535, Note_off_c, 1, 80, 64
1, 160543, Note_off_c, 4, 56, 64
1, 160548, Note_on_c, 1, 80, 123
1, 160549, Note_on_c, 4, 56, 127
1, 160572, Note_off_c, 3, 66, 64
1, 160617, Note_on_c, 3, 65, 123
1, 160678, Note_off_c, 3, 63, 64
1, 160684, Note_on_c, 3, 61, 127
1, 160707, Note_off_c, 3, 65, 64
1, 160751, Note_off_c, 1, 80, 64
1, 160752, Note_on_c, 3, 65, 123
1, 160752, Note_on_c, 2, 77, 124
1, 160812, Note_off_c, 4, 56, 64
1, 160817, Note_on_c, 2, 73, 124
1, 160818, Note_on_c, 4, 56, 127
1, 160822, Note_off_c, 2, 77, 64
1, 160838, Note_off_c, 3, 65, 64
1, 160883, Note_on_c, 3, 65, 123
1, 160944, Note_off_c, 2, 73, 64
1, 160944, Note_off_c, 3, 61, 64
1, 160950, Note_on_c, 3, 61, 127
1, 160950, Note_on_c, 2, 73, 124
1, 160972, Note_off_c, 3, 65, 64
1, 161018, Note_on_c, 3, 65, 123
1, 161081, Note_off_c, 4, 56, 64
1, 161082, Note_off_c, 3, 65, 64
1, 161083, Note_off_c, 2, 73, 64
1, 161087, Note_on_c, 2, 73, 124
1, 161088, Note_on_c, 4, 60, 127
1, 161088, Note_on_c, 3, 63, 127
1, 161088, Note_on_c, 3, 66, 123
1, 161089, Note_off_c, 3, 61, 64
1, 161089, Note_on_c, 4, 57, 127
1, 161155, Note_on_c, 3, 71, 125
1, 161161, Note_off_c, 2, 73, 64
1, 161220, Note_on_c, 2, 72, 124
1, 161226, Note_off_c, 3, 71, 64
1, 161280, Note_on_c, 2, 74, 124
1, 161288, Note_off_c, 2, 72, 64
1, 161343, Note_on_c, 2, 77, 124
1, 161347, Note_off_c, 2, 74, 64
1, 161408, Note_on_c, 2, 75, 124
1, 161413, Note_off_c, 2, 77, 64
1, 161473, Note_on_c, 2, 74, 124
1, 161479, Note_off_c, 2, 75, 64
1, 161534, Note_on_c, 2, 72, 124
1, 161544, Note_off_c, 2, 74, 64
1, 161607, Note_on_c, 1, 79, 121
1, 161610, Note_off_c, 2, 72, 64
1, 161747, Note_off_c, 4, 60, 64
1, 161747, Note_off_c, 4, 57, 64
1, 161748, Note_off_c, 3, 66, 64
1, 161748, Note_off_c, 3, 63, 64
1, 161748, Note_on_c, 4, 59, 127
1, 161749, Note_on_c, 4, 55, 127
1, 161886, Note_off_c, 4, 59, 64
1, 161886, Note_off_c, 4, 55, 64
1, 161887, Note_on_c, 4, 56, 127
1, 161887, Note_on_c, 4, 60, 127
1, 162020, Note_off_c, 1, 79, 64
1, 162021, Note_on_c, 2, 72, 124
1, 162083, Note_off_c, 2, 72, 64
1, 162088, Note_on_c, 2, 72, 124
1, 162157, Note_on_c, 1, 79, 121
1, 162163, Note_off_c, 2, 72, 64
1, 162290, Note_off_c, 4, 60, 64
1, 162290, Note_off_c, 4, 56, 64
1, 162297, Note_on_c, 4, 59, 127
1, 162297, Note_on_c, 4, 55, 127
1, 162436, Note_off_c, 4, 55, 64
1, 162437, Note_off_c, 4, 59, 64
1, 162437, Note_on_c, 4, 56, 127
1, 162437, Note_on_c, 4, 60, 127
1, 162570, Note_off_c, 1, 79, 64
1, 162571, Note_on_c, 2, 72, 124
1, 162633, Note_off_c, 2, 72, 64
1, 162638, Note_on_c, 2, 72, 124
1, 162709, Note_off_c, 4, 60, 64
1, 162709, Note_off_c, 4, 56, 64
1, 162710, Note_on_c, 1, 79, 121
1, 162710, Note_on_c, 4, 55, 127
1, 162710, Note_on_c, 4, 59, 127
1, 162714, Note_off_c, 2, 72, 64
1, 162847, Note_off_c, 4, 55, 64
1, 162848, Note_off_c, 4, 59, 64
1, 162848, Note_on_c, 2, 72, 124
1, 162849, Note_on_c, 4, 56, 127
1, 162849, Note_on_c, 4, 60, 127
1, 162911, Note_off_c, 2, 72, 64
1, 162916, Note_on_c, 2, 72, 124
1, 162982, Note_off_c, 1, 79, 64
1, 162985, Note_off_c, 4, 56, 64
1, 162986, Note_off_c, 4, 60, 64
1, 162986, Note_on_c, 1, 79, 121
1, 162987, Note_on_c, 4, 59, 127
1, 162987, Note_on_c, 4, 55, 127
1, 162991, Note_off_c, 2, 72, 64
1, 163124, Note_off_c, 4, 55, 64
1, 163124, Note_off_c, 4, 59, 64
1, 163125, Note_on_c, 4, 60, 127
1, 163125, Note_on_c, 2, 72, 124
1, 163126, Note_on_c, 4, 56, 127
1, 163187, Note_off_c, 2, 72, 64
1, 163193, Note_on_c, 2, 72, 124
1, 163256, Note_off_c, 1, 79, 64
1, 163257, Note_off_c, 2, 72, 64
1, 163262, Note_off_c, 4, 60, 64
1, 163262, Note_off_c, 4, 56, 64
1, 163263, Note_on_c, 4, 59, 127
1, 163263, Note_on_c, 1, 79, 117
1, 163264, Note_on_c, 4, 55, 127
1, 163395, Note_off_c, 1, 79, 64
1, 163399, Note_on_c, 1, 79, 117
1, 163534, Note_off_c, 1, 79, 64
1, 163537, Note_on_c, 1, 79, 117
1, 163672, Note_off_c, 1, 79, 64
1, 163676, Note_on_c, 1, 79, 117
1, 163810, Note_off_c, 1, 79, 64
1, 163816, Note_on_c, 1, 79, 117
1, 163882, Note_on_c, 1, 78, 115
1, 163887, Note_off_c, 1, 79, 64
1, 163946, Note_on_c, 2, 77, 120
1, 163950, Note_off_c, 1, 78, 64
1, 164010, Note_on_c, 2, 74, 124
1, 164016, Note_off_c, 2, 77, 64
1, 164077, Note_on_c, 1, 79, 117
1, 164083, Note_off_c, 2, 74, 64
1, 164142, Note_on_c, 1, 78, 115
1, 164146, Note_off_c, 1, 79, 64
1, 164204, Note_on_c, 2, 77, 120
1, 164209, Note_off_c, 1, 78, 64
1, 164267, Note_on_c, 2, 74, 124
1, 164271, Note_off_c, 2, 77, 64
1, 164321, Note_off_c, 4, 59, 64
1, 164321, Note_off_c, 4, 55, 64
1, 164331, Note_on_c, 2, 72, 124
1, 164332, Note_on_c, 4, 63, 127
1, 164338, Note_off_c, 2, 74, 64
1, 164401, Note_on_c, 3, 67, 123
1, 164451, Note_off_c, 4, 63, 64
1, 164469, Note_on_c, 4, 63, 127
1, 164532, Note_off_c, 3, 67, 64
1, 164536, Note_off_c, 2, 72, 64
1, 164536, Note_on_c, 2, 74, 124
1, 164537, Note_on_c, 3, 67, 123
1, 164569, Note_on_c, 2, 72, 124
1, 164571, Note_off_c, 2, 74, 64
1, 164593, Note_off_c, 4, 63, 64
1, 164604, Note_on_c, 4, 62, 127
1, 164604, Note_on_c, 2, 71, 125
1, 164609, Note_off_c, 2, 72, 64
1, 164670, Note_off_c, 3, 67, 64
1, 164674, Note_on_c, 3, 67, 123
1, 164732, Note_off_c, 4, 62, 64
1, 164743, Note_off_c, 2, 71, 64
1, 164744, Note_on_c, 2, 72, 124
1, 164744, Note_on_c, 4, 63, 127
1, 164806, Note_off_c, 3, 67, 64
1, 164809, Note_on_c, 3, 67, 123
1, 164866, Note_off_c, 4, 63, 64
1, 164877, Note_off_c, 2, 72, 64
1, 164877, Note_on_c, 2, 73, 124
1, 164878, Note_on_c, 4, 64, 127
1, 164943, Note_off_c, 3, 67, 64
1, 164947, Note_on_c, 3, 67, 123
1, 165003, Note_off_c, 4, 64, 64
1, 165016, Note_on_c, 4, 64, 127
1, 165079, Note_off_c, 3, 67, 64
1, 165084, Note_on_c, 3, 67, 123
1, 165139, Note_off_c, 4, 64, 64
1, 165151, Note_off_c, 2, 73, 64
1, 165151, Note_on_c, 2, 74, 124
1, 165152, Note_on_c, 3, 65, 123
1, 165216, Note_off_c, 3, 67, 64
1, 165221, Note_on_c, 3, 67, 123
1, 165286, Note_off_c, 3, 65, 64
1, 165290, Note_on_c, 3, 65, 123
1, 165353, Note_off_c, 3, 67, 64
1, 165357, Note_on_c, 3, 67, 123
1, 165420, Note_off_c, 3, 65, 64
1, 165424, Note_off_c, 2, 74, 64
1, 165425, Note_on_c, 3, 53, 127
1, 165425, Note_on_c, 4, 62, 127
1, 165491, Note_off_c, 3, 67, 64
1, 165494, Note_on_c, 3, 67, 123
1, 165558, Note_off_c, 4, 62, 64
1, 165562, Note_on_c, 4, 62, 127
1, 165626, Note_off_c, 3, 67, 64
1, 165631, Note_off_c, 3, 53, 64
1, 165631, Note_on_c, 3, 67, 123
1, 165632, Note_on_c, 3, 52, 127
1, 165666, Note_on_c, 3, 53, 127
1, 165670, Note_off_c, 3, 52, 64
1, 165697, Note_off_c, 4, 62, 64
1, 165701, Note_on_c, 4, 62, 127
1, 165701, Note_on_c, 3, 55, 127
1, 165704, Note_off_c, 3, 53, 64
1, 165768, Note_off_c, 3, 67, 64
1, 165772, Note_on_c, 3, 53, 127
1, 165772, Note_on_c, 3, 67, 123
1, 165777, Note_off_c, 3, 55, 64
1, 165836, Note_off_c, 4, 62, 64
1, 165840, Note_on_c, 4, 63, 127
1, 165840, Note_on_c, 3, 51, 127
1, 165847, Note_off_c, 3, 53, 64
1, 165904, Note_off_c, 3, 67, 64
1, 165908, Note_on_c, 3, 67, 123
1, 165909, Note_on_c, 3, 50, 127
1, 165915, Note_off_c, 3, 51, 64
1, 165976, Note_off_c, 4, 63, 64
1, 165980, Note_on_c, 3, 65, 123
1, 165981, Note_on_c, 3, 48, 127
1, 165987, Note_off_c, 3, 50, 64
1, 166046, Note_off_c, 3, 67, 64
1, 166050, Note_on_c, 3, 67, 123
1, 166114, Note_off_c, 3, 65, 64
1, 166117, Note_on_c, 4, 62, 127
1, 166183, Note_off_c, 3, 67, 64
1, 166187, Note_on_c, 3, 67, 123
1, 166252, Note_off_c, 4, 62, 64
1, 166256, Note_off_c, 3, 48, 64
1, 166256, Note_on_c, 3, 65, 123
1, 166257, Note_on_c, 3, 47, 127
1, 166322, Note_off_c, 3, 67, 64
1, 166326, Note_on_c, 3, 67, 123
1, 166389, Note_off_c, 3, 65, 64
1, 166393, Note_on_c, 4, 62, 127
1, 166460, Note_off_c, 3, 67, 64
1, 166464, Note_on_c, 3, 67, 123
1, 166531, Note_off_c, 4, 62, 64
1, 166535, Note_off_c, 3, 47, 64
1, 166536, Note_on_c, 4, 59, 127
1, 166536, Note_on_c, 2, 74, 127
1, 166601, Note_off_c, 3, 67, 64
1, 166603, Note_on_c, 3, 67, 123
1, 166667, Note_off_c, 4, 59, 64
1, 166670, Note_on_c, 4, 59, 127
1, 166731, Note_off_c, 3, 67, 64
1, 166735, Note_off_c, 2, 74, 64
1, 166735, Note_on_c, 2, 75, 124
1, 166736, Note_on_c, 3, 67, 123
1, 166747, Note_off_c, 2, 75, 64
1, 166751, Note_on_c, 2, 74, 124
1, 166764, Note_off_c, 2, 74, 64
1, 166770, Note_on_c, 2, 72, 124
1, 166789, Note_on_c, 2, 74, 124
1, 166797, Note_off_c, 2, 72, 64
1, 166803, Note_off_c, 4, 59, 64
1, 166803, Note_off_c, 2, 74, 64
1, 166809, Note_on_c, 2, 75, 124
1, 166810, Note_on_c, 4, 60, 127
1, 166869, Note_off_c, 3, 67, 64
1, 166873, Note_on_c, 3, 67, 123
1, 166936, Note_off_c, 4, 60, 64
1, 166941, Note_off_c, 2, 75, 64
1, 166941, Note_on_c, 2, 77, 124
1, 166942, Note_on_c, 4, 62, 127
1, 167004, Note_off_c, 3, 67, 64
1, 167009, Note_on_c, 3, 67, 123
1, 167075, Note_off_c, 4, 62, 64
1, 167080, Note_off_c, 2, 77, 64
1, 167081, Note_on_c, 1, 78, 119
1, 167081, Note_on_c, 4, 62, 127
1, 167146, Note_off_c, 3, 67, 64
1, 167149, Note_on_c, 3, 67, 123
1, 167217, Note_off_c, 4, 62, 64
1, 167220, Note_on_c, 4, 62, 127
1, 167286, Note_off_c, 3, 67, 64
1, 167290, Note_on_c, 3, 67, 123
1, 167355, Note_off_c, 4, 62, 64
1, 167359, Note_off_c, 1, 78, 64
1, 167360, Note_on_c, 1, 79, 121
1, 167360, Note_on_c, 4, 63, 127
1, 167425, Note_off_c, 3, 67, 64
1, 167429, Note_on_c, 3, 67, 123
1, 167495, Note_off_c, 4, 63, 64
1, 167498, Note_on_c, 4, 63, 127
1, 167565, Note_off_c, 3, 67, 64
1, 167569, Note_on_c, 3, 67, 123
1, 167634, Note_off_c, 4, 63, 64
1, 167639, Note_off_c, 1, 79, 64
1, 167639, Note_on_c, 4, 63, 127
1, 167640, Note_on_c, 3, 55, 127
1, 167702, Note_off_c, 3, 67, 64
1, 167707, Note_on_c, 3, 67, 123
1, 167772, Note_off_c, 4, 63, 64
1, 167776, Note_on_c, 4, 60, 127
1, 167839, Note_off_c, 3, 67, 64
1, 167843, Note_off_c, 3, 55, 64
1, 167844, Note_on_c, 3, 67, 123
1, 167844, Note_on_c, 3, 54, 127
1, 167879, Note_on_c, 3, 55, 127
1, 167882, Note_off_c, 3, 54, 64
1, 167911, Note_off_c, 4, 60, 64
1, 167915, Note_on_c, 4, 63, 127
1, 167916, Note_on_c, 3, 56, 127
1, 167919, Note_off_c, 3, 55, 64
1, 167983, Note_off_c, 3, 67, 64
1, 167987, Note_on_c, 3, 67, 123
1, 167988, Note_on_c, 3, 55, 127
1, 167992, Note_off_c, 3, 56, 64
1, 168049, Note_off_c, 4, 63, 64
1, 168053, Note_on_c, 4, 60, 127
1, 168054, Note_on_c, 3, 53, 127
1, 168060, Note_off_c, 3, 55, 64
1, 168119, Note_off_c, 3, 67, 64
1, 168123, Note_on_c, 3, 67, 123
1, 168124, Note_on_c, 3, 51, 127
1, 168128, Note_off_c, 3, 53, 64
1, 168188, Note_off_c, 4, 60, 64
1, 168192, Note_on_c, 3, 50, 127
1, 168192, Note_on_c, 3, 65, 123
1, 168198, Note_off_c, 3, 51, 64
1, 168258, Note_off_c, 3, 67, 64
1, 168260, Note_on_c, 3, 67, 123
1, 168327, Note_off_c, 3, 65, 64
1, 168331, Note_on_c, 4, 62, 127
1, 168396, Note_off_c, 3, 67, 64
1, 168400, Note_on_c, 3, 67, 123
1, 168465, Note_off_c, 4, 62, 64
1, 168469, Note_off_c, 3, 50, 64
1, 168469, Note_on_c, 4, 63, 127
1, 168470, Note_on_c, 4, 48, 127
1, 168532, Note_off_c, 3, 67, 64
1, 168536, Note_on_c, 3, 67, 123
1, 168600, Note_off_c, 4, 63, 64
1, 168603, Note_on_c, 4, 60, 127
1, 168669, Note_off_c, 3, 67, 64
1, 168672, Note_on_c, 3, 67, 123
1, 168738, Note_off_c, 4, 60, 64
1, 168742, Note_off_c, 4, 48, 64
1, 168742, Note_on_c, 1, 84, 123
1, 168743, Note_on_c, 3, 72, 124
1, 168743, Note_on_c, 4, 63, 127
1, 168744, Note_on_c, 4, 60, 127
1, 168805, Note_off_c, 3, 67, 64
1, 168811, Note_on_c, 3, 67, 123
1, 168876, Note_off_c, 4, 60, 64
1, 168876, Note_off_c, 4, 63, 64
1, 168881, Note_on_c, 4, 60, 127
1, 168881, Note_on_c, 4, 63, 127
1, 168947, Note_off_c, 3, 67, 64
1, 168953, Note_on_c, 3, 67, 123
1, 169016, Note_off_c, 4, 60, 64
1, 169017, Note_off_c, 4, 63, 64
1, 169023, Note_off_c, 1, 84, 64
1, 169023, Note_off_c, 3, 72, 64
1, 169024, Note_on_c, 3, 73, 127
1, 169024, Note_on_c, 1, 85, 127
1, 169025, Note_on_c, 4, 64, 127
1, 169025, Note_on_c, 4, 58, 127
1, 169085, Note_off_c, 3, 67, 64
1, 169091, Note_on_c, 3, 67, 123
1, 169152, Note_off_c, 4, 58, 64
1, 169153, Note_off_c, 4, 64, 64
1, 169157, Note_on_c, 4, 64, 127
1, 169158, Note_on_c, 4, 58, 127
1, 169222, Note_off_c, 3, 67, 64
1, 169227, Note_on_c, 3, 67, 123
1, 169291, Note_off_c, 4, 64, 64
1, 169291, Note_off_c, 4, 58, 64
1, 169296, Note_off_c, 1, 85, 64
1, 169296, Note_off_c, 3, 73, 64
1, 169296, Note_on_c, 1, 84, 127
1, 169297, Note_on_c, 3, 72, 127
1, 169297, Note_on_c, 4, 60, 127
1, 169298, Note_on_c, 4, 57, 127
1, 169360, Note_off_c, 3, 67, 64
1, 169366, Note_on_c, 3, 65, 123
1, 169429, Note_off_c, 4, 57, 64
1, 169429, Note_off_c, 4, 60, 64
1, 169436, Note_off_c, 3, 72, 64
1, 169436, Note_off_c, 1, 84, 64
1, 169437, Note_on_c, 3, 75, 127
1, 169437, Note_on_c, 1, 87, 127
1, 169438, Note_on_c, 4, 60, 127
1, 169438, Note_on_c, 3, 66, 123
1, 169439, Note_on_c, 4, 56, 127
1, 169440, Note_off_c, 3, 65, 64
1, 169632, Note_off_c, 1, 87, 64
1, 169638, Note_on_c, 1, 87, 123
1, 169705, Note_on_c, 1, 86, 123
1, 169710, Note_off_c, 1, 87, 64
1, 169770, Note_on_c, 1, 84, 123
1, 169776, Note_off_c, 1, 86, 64
1, 169837, Note_on_c, 1, 83, 123
1, 169843, Note_off_c, 1, 84, 64
1, 169905, Note_on_c, 1, 86, 123
1, 169910, Note_off_c, 1, 83, 64
1, 169972, Note_on_c, 2, 77, 124
1, 169972, Note_on_c, 4, 59, 127
1, 169973, Note_on_c, 4, 55, 127
1, 169979, Note_off_c, 1, 86, 64
1, 169982, Note_off_c, 3, 75, 64
1, 169984, Note_off_c, 4, 56, 64
1, 169985, Note_off_c, 3, 66, 64
1, 169985, Note_off_c, 4, 60, 64
1, 170105, Note_off_c, 4, 59, 64
1, 170109, Note_off_c, 4, 55, 64
1, 170110, Note_on_c, 4, 59, 127
1, 170110, Note_on_c, 4, 62, 127
1, 170173, Note_off_c, 2, 77, 64
1, 170174, Note_on_c, 1, 80, 123
1, 170238, Note_on_c, 1, 79, 121
1, 170243, Note_off_c, 1, 80, 64
1, 170302, Note_on_c, 2, 77, 124
1, 170308, Note_off_c, 1, 79, 64
1, 170367, Note_on_c, 2, 76, 124
1, 170373, Note_off_c, 2, 77, 64
1, 170435, Note_on_c, 1, 79, 121
1, 170438, Note_off_c, 2, 76, 64
1, 170502, Note_off_c, 4, 62, 64
1, 170502, Note_off_c, 4, 59, 64
1, 170503, Note_on_c, 2, 70, 127
1, 170503, Note_on_c, 4, 52, 127
1, 170504, Note_on_c, 4, 48, 127
1, 170508, Note_off_c, 1, 79, 64
1, 170636, Note_off_c, 4, 48, 64
1, 170637, Note_off_c, 4, 52, 64
1, 170641, Note_on_c, 4, 52, 127
1, 170641, Note_on_c, 4, 55, 127
1, 170703, Note_off_c, 2, 70, 64
1, 170707, Note_on_c, 2, 73, 127
1, 170774, Note_on_c, 2, 72, 127
1, 170780, Note_off_c, 2, 73, 64
1, 170838, Note_on_c, 2, 70, 127
1, 170844, Note_off_c, 2, 72, 64
1, 170904, Note_off_c, 4, 55, 64
1, 170904, Note_off_c, 4, 52, 64
1, 170905, Note_on_c, 4, 53, 127
1, 170905, Note_on_c, 2, 68, 127
1, 170910, Note_off_c, 2, 70, 64
1, 170969, Note_on_c, 1, 80, 123
1, 170975, Note_off_c, 2, 68, 64
1, 171035, Note_on_c, 1, 79, 121
1, 171040, Note_off_c, 1, 80, 64
1, 171096, Note_on_c, 2, 77, 124
1, 171100, Note_off_c, 1, 79, 64
1, 171159, Note_on_c, 2, 75, 127
1, 171163, Note_off_c, 2, 77, 64
1, 171223, Note_on_c, 2, 74, 127
1, 171228, Note_off_c, 2, 75, 64
1, 171288, Note_on_c, 2, 75, 127
1, 171294, Note_off_c, 2, 74, 64
1, 171351, Note_on_c, 2, 77, 124
1, 171357, Note_off_c, 2, 75, 64
1, 171415, Note_off_c, 4, 53, 64
1, 171415, Note_on_c, 2, 72, 127
1, 171416, Note_on_c, 4, 55, 127
1, 171421, Note_off_c, 2, 77, 64
1, 171552, Note_off_c, 2, 72, 64
1, 171552, Note_on_c, 3, 67, 127
1, 171553, Note_on_c, 3, 63, 127
1, 171689, Note_off_c, 3, 63, 64
1, 171690, Note_off_c, 3, 67, 64
1, 171690, Note_on_c, 3, 65, 123
1, 171691, Note_on_c, 3, 62, 127
1, 171822, Note_on_c, 2, 71, 125
1, 171822, Note_on_c, 2, 75, 124
1, 171890, Note_on_c, 2, 74, 124
1, 171896, Note_off_c, 2, 75, 64
1, 171958, Note_off_c, 3, 65, 64
1, 171958, Note_off_c, 3, 62, 64
1, 171958, Note_off_c, 2, 71, 64
1, 171959, Note_off_c, 4, 55, 64
1, 171959, Note_on_c, 2, 72, 124
1, 171960, Note_on_c, 4, 48, 127
1, 171960, Note_on_c, 4, 51, 127
1, 171960, Note_on_c, 3, 60, 127
1, 171963, Note_off_c, 2, 74, 64
1, 172026, Note_on_c, 4, 55, 127
1, 172092, Note_off_c, 4, 51, 64
1, 172092, Note_off_c, 4, 48, 64
1, 172096, Note_on_c, 4, 51, 127
1, 172097, Note_on_c, 4, 48, 127
1, 172161, Note_off_c, 4, 55, 64
1, 172165, Note_on_c, 4, 55, 127
1, 172229, Note_off_c, 4, 48, 64
1, 172229, Note_off_c, 4, 51, 64
1, 172234, Note_off_c, 3, 60, 64
1, 172235, Note_off_c, 2, 72, 64
1, 172235, Note_on_c, 3, 61, 127
1, 172235, Note_on_c, 2, 73, 124
1, 172236, Note_on_c, 4, 46, 127
1, 172236, Note_on_c, 4, 52, 127
1, 172295, Note_off_c, 4, 55, 64
1, 172298, Note_on_c, 4, 55, 127
1, 172362, Note_off_c, 4, 52, 64
1, 172362, Note_off_c, 4, 46, 64
1, 172367, Note_on_c, 4, 52, 127
1, 172367, Note_on_c, 4, 46, 127
1, 172430, Note_off_c, 4, 55, 64
1, 172435, Note_on_c, 4, 55, 127
1, 172500, Note_off_c, 4, 46, 64
1, 172500, Note_off_c, 4, 52, 64
1, 172503, Note_off_c, 2, 73, 64
1, 172503, Note_off_c, 3, 61, 64
1, 172504, Note_on_c, 3, 60, 127
1, 172504, Note_on_c, 2, 72, 124
1, 172505, Note_on_c, 4, 45, 127
1, 172505, Note_on_c, 4, 48, 127
1, 172569, Note_off_c, 4, 55, 64
1, 172573, Note_on_c, 4, 53, 127
1, 172634, Note_off_c, 4, 48, 64
1, 172634, Note_off_c, 4, 45, 64
1, 172637, Note_off_c, 3, 60, 64
1, 172638, Note_off_c, 2, 72, 64
1, 172638, Note_on_c, 2, 75, 124
1, 172639, Note_on_c, 4, 54, 127
1, 172639, Note_on_c, 3, 63, 127
1, 172640, Note_on_c, 4, 44, 127
1, 172640, Note_on_c, 4, 48, 127
1, 172643, Note_off_c, 4, 53, 64
1, 172839, Note_off_c, 2, 75, 64
1, 172839, Note_on_c, 2, 75, 124
1, 172909, Note_on_c, 2, 74, 127
1, 172913, Note_off_c, 2, 75, 64
1, 172970, Note_on_c, 2, 72, 127
1, 172976, Note_off_c, 2, 74, 64
1, 173036, Note_on_c, 2, 71, 127
1, 173041, Note_off_c, 2, 72, 64
1, 173101, Note_on_c, 2, 74, 127
1, 173107, Note_off_c, 2, 71, 64
1, 173166, Note_on_c, 4, 65, 123
1, 173167, Note_on_c, 4, 43, 127
1, 173167, Note_on_c, 4, 47, 127
1, 173173, Note_off_c, 2, 74, 64
1, 173177, Note_off_c, 4, 48, 64
1, 173177, Note_off_c, 4, 44, 64
1, 173178, Note_off_c, 3, 63, 64
1, 173178, Note_off_c, 4, 54, 64
1, 173296, Note_off_c, 4, 47, 64
1, 173296, Note_off_c, 4, 43, 64
1, 173301, Note_on_c, 4, 47, 127
1, 173301, Note_on_c, 4, 50, 127
1, 173369, Note_off_c, 4, 65, 64
1, 173369, Note_on_c, 2, 68, 127
1, 173441, Note_on_c, 4, 67, 127
1, 173447, Note_off_c, 2, 68, 64
1, 173504, Note_on_c, 4, 65, 127
1, 173508, Note_off_c, 4, 67, 64
1, 173568, Note_on_c, 4, 64, 127
1, 173573, Note_off_c, 4, 65, 64
1, 173637, Note_on_c, 4, 67, 127
1, 173642, Note_off_c, 4, 64, 64
1, 173704, Note_off_c, 4, 50, 64
1, 173704, Note_off_c, 4, 47, 64
1, 173705, Note_on_c, 4, 40, 127
1, 173705, Note_on_c, 4, 58, 127
1, 173706, Note_on_c, 4, 36, 127
1, 173710, Note_off_c, 4, 67, 64
1, 173838, Note_off_c, 4, 36, 64
1, 173839, Note_off_c, 4, 40, 64
1, 173841, Note_on_c, 4, 43, 127
1, 173842, Note_on_c, 4, 40, 127
1, 173904, Note_off_c, 4, 58, 64
1, 173908, Note_on_c, 4, 61, 127
1, 173976, Note_on_c, 4, 60, 127
1, 173981, Note_off_c, 4, 61, 64
1, 174041, Note_on_c, 4, 58, 127
1, 174047, Note_off_c, 4, 60, 64
1, 174107, Note_off_c, 4, 43, 64
1, 174107, Note_off_c, 4, 40, 64
1, 174107, Note_on_c, 4, 56, 127
1, 174108, Note_on_c, 4, 29, 127
1, 174108, Note_on_c, 4, 41, 127
1, 174111, Note_off_c, 4, 58, 64
1, 174151, Note_on_c, 4, 60, 127
1, 174157, Note_off_c, 4, 56, 64
1, 174199, Note_on_c, 4, 52, 127
1, 174230, Note_off_c, 4, 60, 64
1, 174247, Note_on_c, 4, 53, 127
1, 174253, Note_off_c, 4, 52, 64
1, 174293, Note_on_c, 4, 56, 127
1, 174300, Note_off_c, 4, 53, 64
1, 174338, Note_on_c, 4, 47, 127
1, 174367, Note_off_c, 4, 56, 64
1, 174384, Note_on_c, 4, 48, 127
1, 174390, Note_off_c, 4, 47, 64
1, 174429, Note_on_c, 4, 53, 127
1, 174435, Note_off_c, 4, 48, 64
1, 174475, Note_on_c, 4, 43, 127
1, 174502, Note_off_c, 4, 53, 64
1, 174519, Note_on_c, 4, 44, 127
1, 174525, Note_off_c, 4, 43, 64
1, 174544, Note_off_c, 4, 41, 64
1, 174544, Note_off_c, 4, 29, 64
1, 174563, Note_on_c, 4, 48, 127
1, 174569, Note_off_c, 4, 44, 64
1, 174608, Note_on_c, 4, 40, 127
1, 174635, Note_off_c, 4, 48, 64
1, 174652, Note_on_c, 4, 41, 127
1, 174658, Note_off_c, 4, 40, 64
1, 174698, Note_on_c, 4, 36, 127
1, 174727, Note_off_c, 4, 41, 64
1, 174744, Note_on_c, 4, 41, 127
1, 174773, Note_off_c, 4, 36, 64
1, 174790, Note_on_c, 4, 44, 127
1, 174819, Note_off_c, 4, 41, 64
1, 174836, Note_on_c, 4, 41, 127
1, 174865, Note_off_c, 4, 44, 64
1, 174882, Note_on_c, 4, 44, 127
1, 174911, Note_off_c, 4, 41, 64
1, 174928, Note_on_c, 4, 48, 127
1, 174957, Note_off_c, 4, 44, 64
1, 174972, Note_on_c, 4, 44, 127
1, 175001, Note_off_c, 4, 48, 64
1, 175019, Note_on_c, 4, 48, 127
1, 175047, Note_off_c, 4, 44, 64
1, 175065, Note_on_c, 4, 53, 127
1, 175092, Note_off_c, 4, 48, 64
1, 175109, Note_on_c, 4, 48, 127
1, 175138, Note_off_c, 4, 53, 64
1, 175155, Note_on_c, 4, 53, 127
1, 175182, Note_off_c, 4, 48, 64
1, 175199, Note_on_c, 4, 56, 127
1, 175228, Note_off_c, 4, 53, 64
1, 175243, Note_on_c, 4, 53, 127
1, 175272, Note_off_c, 4, 56, 64
1, 175287, Note_on_c, 4, 56, 127
1, 175316, Note_off_c, 4, 53, 64
1, 175332, Note_on_c, 4, 60, 127
1, 175360, Note_off_c, 4, 56, 64
1, 175376, Note_on_c, 4, 56, 127
1, 175404, Note_off_c, 4, 60, 64
1, 175420, Note_on_c, 4, 60, 127
1, 175449, Note_off_c, 4, 56, 64
1, 175466, Note_on_c, 4, 65, 123
1, 175493, Note_off_c, 4, 60, 64
1, 175510, Note_on_c, 4, 60, 127
1, 175537, Note_off_c, 4, 65, 64
1, 175554, Note_on_c, 4, 65, 123
1, 175581, Note_off_c, 4, 60, 64
1, 175598, Note_on_c, 2, 68, 123
1, 175625, Note_off_c, 4, 65, 64
1, 175643, Note_on_c, 4, 65, 123
1, 175669, Note_off_c, 2, 68, 64
1, 175687, Note_on_c, 2, 68, 123
1, 175714, Note_off_c, 4, 65, 64
1, 175731, Note_on_c, 2, 72, 124
1, 175758, Note_off_c, 2, 68, 64
1, 175773, Note_on_c, 2, 68, 123
1, 175802, Note_off_c, 2, 72, 64
1, 175818, Note_on_c, 2, 72, 124
1, 175845, Note_off_c, 2, 68, 64
1, 175860, Note_on_c, 2, 77, 124
1, 175887, Note_off_c, 2, 72, 64
1, 175905, Note_on_c, 2, 72, 124
1, 175932, Note_off_c, 2, 77, 64
1, 175947, Note_on_c, 2, 77, 124
1, 175976, Note_off_c, 2, 72, 64
1, 175991, Note_on_c, 1, 80, 118
1, 176018, Note_off_c, 2, 77, 64
1, 176035, Note_on_c, 2, 77, 124
1, 176062, Note_off_c, 1, 80, 64
1, 176077, Note_on_c, 1, 80, 118
1, 176104, Note_off_c, 2, 77, 64
1, 176120, Note_on_c, 1, 84, 118
1, 176189, Note_on_c, 1, 79, 116
1, 176195, Note_off_c, 1, 84, 64
1, 176212, Note_off_c, 1, 80, 64
1, 176256, Note_on_c, 1, 80, 118
1, 176262, Note_off_c, 1, 79, 64
1, 176327, Note_on_c, 2, 76, 124
1, 176390, Note_off_c, 1, 80, 64
1, 176394, Note_on_c, 2, 77, 124
1, 176400, Note_off_c, 2, 76, 64
1, 176465, Note_on_c, 2, 73, 124
1, 176531, Note_off_c, 2, 77, 64
1, 176535, Note_on_c, 2, 74, 124
1, 176541, Note_off_c, 2, 73, 64
1, 176603, Note_on_c, 1, 80, 118
1, 176608, Note_off_c, 2, 74, 64
1, 176668, Note_on_c, 2, 77, 124
1, 176674, Note_off_c, 1, 80, 64
1, 176733, Note_on_c, 2, 74, 124
1, 176739, Note_off_c, 2, 77, 64
1, 176803, Note_on_c, 3, 60, 127
1, 176803, Note_on_c, 3, 63, 127
1, 176804, Note_on_c, 4, 55, 127
1, 176869, Note_off_c, 2, 74, 64
1, 176872, Note_on_c, 3, 67, 123
1, 176941, Note_on_c, 1, 79, 121
1, 176947, Note_off_c, 3, 67, 64
1, 177012, Note_on_c, 1, 78, 119
1, 177016, Note_off_c, 1, 79, 64
1, 177074, Note_on_c, 2, 77, 124
1, 177080, Note_off_c, 1, 78, 64
1, 177140, Note_on_c, 2, 76, 124
1, 177145, Note_off_c, 2, 77, 64
1, 177209, Note_on_c, 2, 75, 124
1, 177213, Note_off_c, 2, 76, 64
1, 177274, Note_on_c, 2, 74, 124
1, 177280, Note_off_c, 2, 75, 64
1, 177339, Note_off_c, 2, 74, 64
1, 177340, Note_off_c, 3, 60, 64
1, 177340, Note_off_c, 4, 55, 64
1, 177341, Note_off_c, 3, 63, 64
1, 177345, Note_on_c, 2, 74, 124
1, 177346, Note_on_c, 4, 55, 127
1, 177346, Note_on_c, 3, 63, 127
1, 177415, Note_on_c, 2, 72, 124
1, 177416, Note_on_c, 3, 67, 123
1, 177422, Note_off_c, 2, 74, 64
1, 177473, Note_off_c, 3, 63, 64
1, 177478, Note_off_c, 2, 72, 64
1, 177483, Note_on_c, 2, 72, 124
1, 177484, Note_on_c, 3, 63, 127
1, 177511, Note_off_c, 3, 67, 64
1, 177552, Note_on_c, 3, 67, 123
1, 177611, Note_off_c, 3, 63, 64
1, 177621, Note_on_c, 3, 65, 123
1, 177649, Note_off_c, 3, 67, 64
1, 177690, Note_on_c, 3, 67, 123
1, 177751, Note_off_c, 3, 65, 64
1, 177755, Note_off_c, 2, 72, 64
1, 177756, Note_on_c, 3, 65, 123
1, 177756, Note_on_c, 2, 71, 125
1, 177756, Note_on_c, 2, 75, 124
1, 177784, Note_off_c, 3, 67, 64
1, 177824, Note_on_c, 2, 74, 124
1, 177825, Note_on_c, 3, 67, 123
1, 177829, Note_off_c, 2, 75, 64
1, 177887, Note_off_c, 3, 65, 64
1, 177890, Note_off_c, 2, 71, 64
1, 177891, Note_off_c, 4, 55, 64
1, 177891, Note_on_c, 2, 72, 124
1, 177892, Note_on_c, 3, 60, 127
1, 177896, Note_off_c, 2, 74, 64
1, 177919, Note_off_c, 3, 67, 64
1, 177960, Note_on_c, 3, 67, 123
1, 178025, Note_off_c, 3, 60, 64
1, 178029, Note_on_c, 3, 63, 127
1, 178057, Note_off_c, 3, 67, 64
1, 178092, Note_off_c, 2, 72, 64
1, 178098, Note_on_c, 2, 72, 124
1, 178098, Note_on_c, 3, 67, 123
1, 178165, Note_off_c, 3, 63, 64
1, 178165, Note_on_c, 2, 73, 124
1, 178166, Note_on_c, 4, 59, 127
1, 178172, Note_off_c, 2, 72, 64
1, 178195, Note_off_c, 3, 67, 64
1, 178233, Note_on_c, 2, 74, 124
1, 178234, Note_on_c, 3, 67, 123
1, 178240, Note_off_c, 2, 73, 64
1, 178301, Note_off_c, 4, 59, 64
1, 178302, Note_on_c, 3, 65, 123
1, 178329, Note_off_c, 3, 67, 64
1, 178360, Note_off_c, 2, 74, 64
1, 178368, Note_on_c, 2, 74, 124
1, 178368, Note_on_c, 3, 67, 123
1, 178434, Note_off_c, 3, 65, 64
1, 178434, Note_on_c, 2, 77, 124
1, 178435, Note_on_c, 3, 60, 127
1, 178440, Note_off_c, 2, 74, 64
1, 178498, Note_off_c, 3, 67, 64
1, 178504, Note_on_c, 3, 67, 123
1, 178504, Note_on_c, 2, 75, 124
1, 178509, Note_off_c, 2, 77, 64
1, 178572, Note_off_c, 3, 60, 64
1, 178572, Note_on_c, 3, 63, 127
1, 178600, Note_off_c, 3, 67, 64
1, 178636, Note_off_c, 2, 75, 64
1, 178640, Note_on_c, 2, 75, 124
1, 178641, Note_on_c, 3, 67, 123
1, 178708, Note_off_c, 3, 63, 64
1, 178709, Note_on_c, 4, 50, 127
1, 178709, Note_on_c, 2, 76, 124
1, 178713, Note_off_c, 2, 75, 64
1, 178775, Note_off_c, 3, 67, 64
1, 178775, Note_on_c, 2, 77, 124
1, 178776, Note_on_c, 4, 59, 127
1, 178781, Note_off_c, 2, 76, 64
1, 178843, Note_off_c, 4, 50, 64
1, 178843, Note_on_c, 4, 53, 127
1, 178871, Note_off_c, 4, 59, 64
1, 178901, Note_off_c, 2, 77, 64
1, 178911, Note_on_c, 2, 77, 124
1, 178912, Note_on_c, 4, 59, 127
1, 178980, Note_off_c, 4, 53, 64
1, 178980, Note_on_c, 4, 51, 127
1, 178980, Note_on_c, 1, 78, 119
1, 178985, Note_off_c, 2, 77, 64
1, 179008, Note_off_c, 4, 59, 64
1, 179049, Note_on_c, 1, 79, 121
1, 179049, Note_on_c, 3, 60, 127
1, 179055, Note_off_c, 1, 78, 64
1, 179118, Note_off_c, 4, 51, 64
1, 179119, Note_on_c, 4, 52, 127
1, 179146, Note_off_c, 3, 60, 64
1, 179177, Note_off_c, 1, 79, 64
1, 179184, Note_on_c, 1, 79, 121
1, 179185, Note_on_c, 3, 60, 127
1, 179253, Note_off_c, 4, 52, 64
1, 179254, Note_on_c, 4, 53, 127
1, 179254, Note_on_c, 1, 82, 123
1, 179259, Note_off_c, 1, 79, 64
1, 179282, Note_off_c, 3, 60, 64
1, 179320, Note_on_c, 1, 80, 123
1, 179321, Note_on_c, 3, 60, 127
1, 179325, Note_off_c, 1, 82, 64
1, 179387, Note_off_c, 4, 53, 64
1, 179387, Note_on_c, 4, 54, 127
1, 179414, Note_off_c, 3, 60, 64
1, 179450, Note_off_c, 1, 80, 64
1, 179455, Note_on_c, 3, 63, 127
1, 179455, Note_on_c, 1, 84, 123
1, 179521, Note_off_c, 1, 84, 64
1, 179526, Note_off_c, 4, 54, 64
1, 179526, Note_on_c, 1, 84, 123
1, 179527, Note_on_c, 4, 55, 127
1, 179556, Note_off_c, 3, 63, 64
1, 179598, Note_on_c, 2, 72, 124
1, 179598, Note_on_c, 3, 63, 127
1, 179606, Note_off_c, 1, 84, 64
1, 179668, Note_off_c, 2, 72, 64
1, 179674, Note_off_c, 4, 55, 64
1, 179674, Note_on_c, 2, 72, 124
1, 179675, Note_on_c, 3, 60, 127
1, 179699, Note_off_c, 3, 63, 64
1, 179742, Note_on_c, 3, 63, 127
1, 179811, Note_off_c, 3, 60, 64
1, 179811, Note_on_c, 4, 55, 127
1, 179839, Note_off_c, 3, 63, 64
1, 179877, Note_on_c, 3, 65, 123
1, 179940, Note_off_c, 4, 55, 64
1, 179941, Note_off_c, 2, 72, 64
1, 179941, Note_on_c, 2, 75, 124
1, 179942, Note_on_c, 3, 62, 127
1, 179967, Note_off_c, 3, 65, 64
1, 180008, Note_on_c, 2, 74, 124
1, 180008, Note_on_c, 3, 65, 123
1, 180014, Note_off_c, 2, 75, 64
1, 180075, Note_off_c, 3, 62, 64
1, 180076, Note_on_c, 2, 72, 124
1, 180076, Note_on_c, 4, 48, 127
1, 180081, Note_off_c, 2, 74, 64
1, 180104, Note_off_c, 3, 65, 64
1, 180138, Note_off_c, 2, 72, 64
1, 180144, Note_on_c, 4, 55, 127
1, 180144, Note_on_c, 2, 72, 124
1, 180197, Note_off_c, 2, 72, 64
1, 180212, Note_off_c, 4, 48, 64
1, 180213, Note_on_c, 4, 51, 127
1, 180213, Note_on_c, 2, 72, 124
1, 180228, Note_on_c, 2, 74, 124
1, 180233, Note_off_c, 2, 72, 64
1, 180240, Note_off_c, 4, 55, 64
1, 180246, Note_on_c, 2, 72, 124
1, 180252, Note_off_c, 2, 74, 64
1, 180265, Note_on_c, 2, 74, 124
1, 180273, Note_off_c, 2, 72, 64
1, 180286, Note_on_c, 2, 71, 125
1, 180287, Note_on_c, 4, 55, 127
1, 180293, Note_off_c, 2, 74, 64
1, 180322, Note_on_c, 2, 72, 124
1, 180327, Note_off_c, 2, 71, 64
1, 180356, Note_off_c, 4, 51, 64
1, 180357, Note_on_c, 4, 47, 127
1, 180357, Note_on_c, 2, 74, 124
1, 180363, Note_off_c, 2, 72, 64
1, 180386, Note_off_c, 4, 55, 64
1, 180420, Note_off_c, 2, 74, 64
1, 180426, Note_on_c, 2, 74, 124
1, 180427, Note_on_c, 4, 55, 127
1, 180489, Note_off_c, 2, 74, 64
1, 180494, Note_off_c, 4, 47, 64
1, 180495, Note_on_c, 2, 74, 124
1, 180495, Note_on_c, 4, 53, 127
1, 180506, Note_off_c, 2, 74, 64
1, 180510, Note_on_c, 2, 75, 124
1, 180521, Note_off_c, 4, 55, 64
1, 180523, Note_off_c, 2, 75, 64
1, 180529, Note_on_c, 2, 74, 124
1, 180542, Note_off_c, 2, 74, 64
1, 180548, Note_on_c, 2, 75, 124
1, 180565, Note_on_c, 2, 72, 124
1, 180566, Note_on_c, 4, 55, 127
1, 180572, Note_off_c, 2, 75, 64
1, 180599, Note_on_c, 2, 74, 124
1, 180605, Note_off_c, 2, 72, 64
1, 180634, Note_off_c, 4, 53, 64
1, 180634, Note_on_c, 2, 75, 124
1, 180635, Note_on_c, 4, 48, 127
1, 180640, Note_off_c, 2, 74, 64
1, 180663, Note_off_c, 4, 55, 64
1, 180696, Note_off_c, 2, 75, 64
1, 180702, Note_on_c, 4, 55, 127
1, 180702, Note_on_c, 2, 75, 124
1, 180764, Note_off_c, 2, 75, 64
1, 180770, Note_off_c, 4, 48, 64
1, 180770, Note_on_c, 2, 75, 124
1, 180771, Note_on_c, 4, 51, 127
1, 180787, Note_on_c, 2, 77, 124
1, 180793, Note_off_c, 2, 75, 64
1, 180799, Note_off_c, 4, 55, 64
1, 180806, Note_on_c, 2, 75, 124
1, 180813, Note_off_c, 2, 77, 64
1, 180825, Note_on_c, 2, 77, 124
1, 180830, Note_off_c, 2, 75, 64
1, 180844, Note_on_c, 2, 74, 124
1, 180844, Note_on_c, 4, 55, 127
1, 180851, Note_off_c, 2, 77, 64
1, 180879, Note_on_c, 2, 75, 124
1, 180885, Note_off_c, 2, 74, 64
1, 180914, Note_off_c, 4, 51, 64
1, 180914, Note_on_c, 2, 77, 124
1, 180915, Note_on_c, 4, 50, 127
1, 180919, Note_off_c, 2, 75, 64
1, 180941, Note_off_c, 4, 55, 64
1, 180975, Note_off_c, 2, 77, 64
1, 180981, Note_on_c, 2, 77, 124
1, 180982, Note_on_c, 4, 59, 127
1, 181042, Note_off_c, 2, 77, 64
1, 181047, Note_off_c, 4, 50, 64
1, 181048, Note_on_c, 2, 77, 124
1, 181048, Note_on_c, 4, 55, 127
1, 181066, Note_on_c, 1, 79, 121
1, 181071, Note_off_c, 4, 59, 64
1, 181073, Note_off_c, 2, 77, 64
1, 181085, Note_on_c, 2, 77, 124
1, 181092, Note_off_c, 1, 79, 64
1, 181102, Note_on_c, 1, 79, 121
1, 181112, Note_off_c, 2, 77, 64
1, 181121, Note_on_c, 2, 75, 124
1, 181122, Note_on_c, 4, 59, 127
1, 181128, Note_off_c, 1, 79, 64
1, 181149, Note_off_c, 4, 55, 64
1, 181155, Note_on_c, 2, 77, 124
1, 181167, Note_off_c, 2, 75, 64
1, 181189, Note_on_c, 1, 79, 121
1, 181190, Note_on_c, 4, 48, 127
1, 181190, Note_on_c, 4, 60, 127
1, 181200, Note_off_c, 2, 77, 64
1, 181200, Note_off_c, 4, 59, 64
1, 181234, Note_off_c, 1, 79, 64
1, 181235, Note_on_c, 1, 84, 123
1, 181279, Note_on_c, 1, 82, 123
1, 181283, Note_off_c, 1, 84, 64
1, 181321, Note_on_c, 1, 80, 123
1, 181327, Note_off_c, 1, 82, 64
1, 181365, Note_on_c, 1, 79, 121
1, 181371, Note_off_c, 1, 80, 64
1, 181408, Note_on_c, 2, 77, 124
1, 181413, Note_off_c, 1, 79, 64
1, 181453, Note_on_c, 2, 75, 124
1, 181459, Note_off_c, 2, 77, 64
1, 181498, Note_on_c, 2, 74, 124
1, 181504, Note_off_c, 2, 75, 64
1, 181542, Note_on_c, 2, 72, 124
1, 181546, Note_off_c, 2, 74, 64
1, 181583, Note_on_c, 2, 70, 125
1, 181584, Note_off_c, 4, 60, 64
1, 181584, Note_off_c, 4, 48, 64
1, 181585, Note_on_c, 4, 52, 127
1, 181590, Note_off_c, 2, 72, 64
1, 181627, Note_on_c, 2, 68, 123
1, 181632, Note_off_c, 2, 70, 64
1, 181669, Note_on_c, 4, 67, 123
1, 181674, Note_off_c, 2, 68, 64
1, 181715, Note_off_c, 4, 52, 64
1, 181715, Note_on_c, 2, 68, 123
1, 181716, Note_on_c, 4, 60, 127
1, 181716, Note_on_c, 4, 53, 127
1, 181719, Note_off_c, 4, 67, 64
1, 181848, Note_off_c, 4, 53, 64
1, 181848, Note_off_c, 4, 60, 64
1, 181849, Note_off_c, 2, 68, 64
1, 181853, Note_on_c, 1, 80, 123
1, 181854, Note_on_c, 4, 53, 127
1, 181854, Note_on_c, 2, 72, 124
1, 181854, Note_on_c, 2, 77, 124
1, 181986, Note_off_c, 2, 72, 64
1, 181991, Note_off_c, 2, 77, 64
1, 181991, Note_off_c, 4, 53, 64
1, 181992, Note_off_c, 1, 80, 64
1, 181992, Note_on_c, 1, 79, 121
1, 181992, Note_on_c, 2, 75, 124
1, 181992, Note_on_c, 2, 72, 124
1, 181993, Note_on_c, 4, 55, 127
1, 182126, Note_off_c, 4, 55, 64
1, 182126, Note_off_c, 2, 72, 64
1, 182127, Note_off_c, 2, 75, 64
1, 182127, Note_off_c, 1, 79, 64
1, 182128, Note_on_c, 3, 65, 123
1, 182128, Note_on_c, 2, 71, 125
1, 182129, Note_on_c, 4, 43, 127
1, 182129, Note_on_c, 3, 62, 127
1, 182260, Note_off_c, 4, 43, 64
1, 182261, Note_off_c, 3, 65, 64
1, 182261, Note_off_c, 3, 62, 64
1, 182262, Note_off_c, 2, 71, 64
1, 182262, Note_on_c, 2, 72, 124
1, 182263, Note_on_c, 4, 48, 127
1, 182263, Note_on_c, 3, 63, 127
1, 182399, Note_off_c, 2, 72, 64
1, 182399, Note_on_c, 1, 79, 121
1, 182457, Note_on_c, 1, 78, 119
1, 182463, Note_off_c, 1, 79, 64
1, 182503, Note_on_c, 1, 80, 123
1, 182509, Note_off_c, 1, 78, 64
1, 182553, Note_off_c, 3, 63, 64
1, 182554, Note_on_c, 1, 79, 121
1, 182558, Note_off_c, 1, 80, 64
1, 182594, Note_on_c, 2, 77, 124
1, 182600, Note_off_c, 1, 79, 64
1, 182637, Note_on_c, 2, 75, 124
1, 182640, Note_off_c, 2, 77, 64
1, 182679, Note_on_c, 2, 74, 124
1, 182679, Note_on_c, 3, 63, 127
1, 182680, Note_on_c, 3, 60, 127
1, 182684, Note_off_c, 2, 75, 64
1, 182722, Note_on_c, 2, 75, 124
1, 182728, Note_off_c, 2, 74, 64
1, 182768, Note_on_c, 2, 72, 124
1, 182774, Note_off_c, 2, 75, 64
1, 182812, Note_off_c, 3, 60, 64
1, 182813, Note_off_c, 3, 63, 64
1, 182813, Note_off_c, 4, 48, 64
1, 182814, Note_on_c, 3, 65, 123
1, 182814, Note_on_c, 2, 71, 125
1, 182815, Note_on_c, 4, 55, 127
1, 182815, Note_on_c, 3, 62, 127
1, 182818, Note_off_c, 2, 72, 64
1, 182947, Note_off_c, 2, 71, 64
1, 182947, Note_on_c, 2, 77, 124
1, 183000, Note_on_c, 2, 76, 124
1, 183005, Note_off_c, 2, 77, 64
1, 183044, Note_on_c, 1, 79, 121
1, 183049, Note_off_c, 2, 76, 64
1, 183092, Note_on_c, 2, 77, 124
1, 183097, Note_off_c, 1, 79, 64
1, 183134, Note_on_c, 2, 75, 124
1, 183139, Note_off_c, 2, 77, 64
1, 183175, Note_on_c, 2, 74, 124
1, 183181, Note_off_c, 2, 75, 64
1, 183214, Note_off_c, 3, 62, 64
1, 183214, Note_off_c, 4, 55, 64
1, 183215, Note_off_c, 3, 65, 64
1, 183217, Note_on_c, 2, 72, 124
1, 183218, Note_on_c, 3, 65, 123
1, 183218, Note_on_c, 3, 62, 127
1, 183219, Note_on_c, 3, 56, 127
1, 183223, Note_off_c, 2, 74, 64
1, 183262, Note_on_c, 2, 71, 125
1, 183267, Note_off_c, 2, 72, 64
1, 183308, Note_on_c, 2, 74, 124
1, 183313, Note_off_c, 2, 71, 64
1, 183354, Note_off_c, 3, 56, 64
1, 183354, Note_off_c, 3, 62, 64
1, 183355, Note_off_c, 3, 65, 64
1, 183355, Note_on_c, 2, 72, 124
1, 183356, Note_on_c, 3, 60, 127
1, 183356, Note_on_c, 3, 63, 127
1, 183359, Note_off_c, 2, 74, 64
1, 183485, Note_off_c, 2, 72, 64
1, 183486, Note_on_c, 1, 79, 121
1, 183538, Note_on_c, 1, 78, 119
1, 183544, Note_off_c, 1, 79, 64
1, 183580, Note_on_c, 1, 80, 123
1, 183586, Note_off_c, 1, 78, 64
1, 183632, Note_on_c, 1, 79, 121
1, 183642, Note_off_c, 1, 80, 64
1, 183678, Note_on_c, 2, 77, 124
1, 183684, Note_off_c, 1, 79, 64
1, 183720, Note_on_c, 2, 75, 124
1, 183726, Note_off_c, 2, 77, 64
1, 183765, Note_off_c, 3, 60, 64
1, 183766, Note_off_c, 3, 63, 64
1, 183766, Note_on_c, 4, 51, 127
1, 183766, Note_on_c, 2, 74, 124
1, 183767, Note_on_c, 4, 48, 127
1, 183771, Note_off_c, 2, 75, 64
1, 183809, Note_on_c, 2, 75, 124
1, 183815, Note_off_c, 2, 74, 64
1, 183854, Note_on_c, 2, 72, 124
1, 183860, Note_off_c, 2, 75, 64
1, 183899, Note_off_c, 4, 51, 64
1, 183899, Note_off_c, 4, 48, 64
1, 183900, Note_on_c, 4, 50, 127
1, 183900, Note_on_c, 4, 53, 127
1, 183900, Note_on_c, 1, 80, 123
1, 183901, Note_on_c, 4, 43, 127
1, 183901, Note_on_c, 4, 47, 127
1, 183905, Note_off_c, 2, 72, 64
1, 183944, Note_on_c, 1, 79, 121
1, 183949, Note_off_c, 1, 80, 64
1, 183986, Note_on_c, 2, 77, 124
1, 183991, Note_off_c, 1, 79, 64
1, 184027, Note_on_c, 2, 75, 124
1, 184031, Note_off_c, 2, 77, 64
1, 184068, Note_on_c, 2, 74, 124
1, 184074, Note_off_c, 2, 75, 64
1, 184109, Note_on_c, 2, 72, 124
1, 184116, Note_off_c, 2, 74, 64
1, 184152, Note_on_c, 2, 71, 125
1, 184156, Note_off_c, 2, 72, 64
1, 184194, Note_on_c, 3, 68, 123
1, 184200, Note_off_c, 2, 71, 64
1, 184238, Note_on_c, 3, 67, 123
1, 184244, Note_off_c, 3, 68, 64
1, 184283, Note_on_c, 3, 65, 123
1, 184288, Note_off_c, 3, 67, 64
1, 184329, Note_on_c, 3, 63, 127
1, 184334, Note_off_c, 3, 65, 64
1, 184375, Note_on_c, 3, 62, 127
1, 184380, Note_off_c, 3, 63, 64
1, 184423, Note_off_c, 3, 62, 64
1, 184423, Note_off_c, 4, 43, 64
1, 184424, Note_off_c, 4, 50, 64
1, 184424, Note_off_c, 4, 47, 64
1, 184425, Note_off_c, 4, 53, 64
1, 184425, Note_on_c, 4, 60, 127
1, 184426, Note_on_c, 4, 36, 127
1, 184426, Note_on_c, 4, 48, 127
1, 184710, Note_off_c, 4, 48, 64
1, 184710, Note_off_c, 4, 36, 64
1, 184711, Note_off_c, 4, 60, 64
1, 184711, Note_on_c, 4, 51, 127
1, 184712, Note_on_c, 4, 39, 127
1, 184852, Note_off_c, 4, 51, 64
1, 184852, Note_off_c, 4, 39, 64
1, 184853, Note_on_c, 4, 55, 127
1, 184853, Note_on_c, 4, 43, 127
1, 184986, Note_off_c, 4, 43, 64
1, 184987, Note_off_c, 4, 55, 64
1, 184987, Note_on_c, 2, 72, 127
1, 184988, Note_on_c, 4, 48, 127
1, 184988, Note_on_c, 4, 60, 127
1, 185130, Note_off_c, 4, 48, 64
1, 185131, Note_off_c, 4, 60, 64
1, 185131, Note_on_c, 4, 63, 127
1, 185132, Note_on_c, 4, 51, 127
1, 185274, Note_off_c, 2, 72, 64
1, 185275, Note_on_c, 2, 75, 127
1, 185408, Note_off_c, 2, 75, 64
1, 185408, Note_on_c, 1, 79, 125
1, 185543, Note_off_c, 1, 79, 64
1, 185544, Note_off_c, 4, 63, 64
1, 185544, Note_off_c, 4, 51, 64
1, 185544, Note_on_c, 1, 84, 127
1, 185545, Note_on_c, 4, 32, 127
1, 185545, Note_on_c, 4, 44, 127
1, 185680, Note_off_c, 1, 84, 64
1, 185681, Note_on_c, 1, 87, 127
1, 185821, Note_off_c, 4, 32, 64
1, 185822, Note_off_c, 4, 44, 64
1, 185822, Note_on_c, 4, 48, 127
1, 185823, Note_on_c, 4, 36, 127
1, 185956, Note_off_c, 4, 36, 64
1, 185957, Note_off_c, 4, 48, 64
1, 185957, Note_on_c, 4, 51, 127
1, 185958, Note_on_c, 4, 39, 127
1, 186088, Note_off_c, 4, 39, 64
1, 186089, Note_off_c, 4, 51, 64
1, 186089, Note_off_c, 1, 87, 64
1, 186090, Note_on_c, 2, 68, 127
1, 186090, Note_on_c, 4, 56, 127
1, 186091, Note_on_c, 4, 44, 127
1, 186228, Note_off_c, 4, 44, 64
1, 186228, Note_off_c, 4, 56, 64
1, 186228, Note_on_c, 4, 60, 127
1, 186229, Note_on_c, 4, 48, 127
1, 186366, Note_off_c, 2, 68, 64
1, 186367, Note_on_c, 2, 72, 127
1, 186497, Note_off_c, 2, 72, 64
1, 186497, Note_on_c, 2, 75, 127
1, 186624, Note_off_c, 2, 75, 64
1, 186625, Note_off_c, 4, 60, 64
1, 186625, Note_off_c, 4, 48, 64
1, 186626, Note_on_c, 4, 42, 127
1, 186626, Note_on_c, 1, 81, 127
1, 186627, Note_on_c, 4, 30, 127
1, 186762, Note_off_c, 1, 81, 64
1, 186762, Note_on_c, 1, 84, 127
1, 186893, Note_off_c, 4, 30, 64
1, 186894, Note_off_c, 4, 42, 64
1, 186894, Note_on_c, 4, 45, 127
1, 186895, Note_on_c, 4, 33, 127
1, 187016, Note_off_c, 1, 84, 64
1, 187022, Note_off_c, 4, 45, 64
1, 187022, Note_off_c, 4, 33, 64
1, 187023, Note_on_c, 1, 84, 123
1, 187023, Note_on_c, 4, 48, 127
1, 187024, Note_on_c, 4, 36, 127
1, 187065, Note_on_c, 1, 87, 123
1, 187093, Note_off_c, 1, 84, 64
1, 187108, Note_on_c, 1, 84, 123
1, 187135, Note_off_c, 1, 87, 64
1, 187152, Note_off_c, 4, 36, 64
1, 187153, Note_off_c, 4, 48, 64
1, 187153, Note_on_c, 1, 81, 123
1, 187154, Note_on_c, 4, 42, 127
1, 187154, Note_on_c, 4, 54, 127
1, 187181, Note_off_c, 1, 84, 64
1, 187199, Note_on_c, 1, 84, 123
1, 187227, Note_off_c, 1, 81, 64
1, 187245, Note_on_c, 1, 81, 123
1, 187272, Note_off_c, 1, 84, 64
1, 187287, Note_off_c, 4, 54, 64
1, 187287, Note_off_c, 4, 42, 64
1, 187288, Note_on_c, 1, 78, 119
1, 187288, Note_on_c, 4, 57, 127
1, 187289, Note_on_c, 4, 45, 127
1, 187316, Note_off_c, 1, 81, 64
1, 187331, Note_on_c, 1, 81, 123
1, 187358, Note_off_c, 1, 78, 64
1, 187375, Note_on_c, 1, 78, 119
1, 187402, Note_off_c, 1, 81, 64
1, 187419, Note_off_c, 4, 45, 64
1, 187420, Note_off_c, 4, 57, 64
1, 187420, Note_on_c, 2, 75, 124
1, 187421, Note_on_c, 4, 48, 127
1, 187421, Note_on_c, 3, 60, 127
1, 187447, Note_off_c, 1, 78, 64
1, 187463, Note_on_c, 1, 78, 119
1, 187489, Note_off_c, 2, 75, 64
1, 187505, Note_on_c, 2, 75, 124
1, 187532, Note_off_c, 1, 78, 64
1, 187547, Note_off_c, 4, 48, 64
1, 187548, Note_off_c, 3, 60, 64
1, 187548, Note_on_c, 2, 72, 124
1, 187548, Note_on_c, 3, 63, 127
1, 187549, Note_on_c, 4, 51, 127
1, 187574, Note_off_c, 2, 75, 64
1, 187589, Note_on_c, 2, 75, 124
1, 187616, Note_off_c, 2, 72, 64
1, 187632, Note_on_c, 2, 72, 124
1, 187658, Note_off_c, 2, 75, 64
1, 187674, Note_off_c, 4, 51, 64
1, 187674, Note_off_c, 3, 63, 64
1, 187675, Note_on_c, 4, 55, 127
1, 187675, Note_on_c, 3, 67, 123
1, 187701, Note_off_c, 2, 72, 64
1, 187718, Note_on_c, 3, 60, 127
1, 187762, Note_on_c, 3, 63, 127
1, 187766, Note_off_c, 4, 55, 64
1, 187806, Note_off_c, 3, 67, 64
1, 187807, Note_on_c, 1, 79, 121
1, 187807, Note_on_c, 4, 55, 127
1, 187811, Note_off_c, 3, 60, 64
1, 187849, Note_on_c, 3, 60, 127
1, 187856, Note_off_c, 3, 63, 64
1, 187893, Note_on_c, 3, 63, 127
1, 187898, Note_off_c, 4, 55, 64
1, 187937, Note_on_c, 4, 55, 127
1, 187943, Note_off_c, 3, 60, 64
1, 187981, Note_on_c, 3, 60, 127
1, 187987, Note_off_c, 3, 63, 64
1, 188026, Note_on_c, 3, 63, 127
1, 188032, Note_off_c, 4, 55, 64
1, 188064, Note_off_c, 1, 79, 64
1, 188070, Note_on_c, 2, 77, 124
1, 188071, Note_on_c, 4, 55, 127
1, 188075, Note_off_c, 3, 60, 64
1, 188106, Note_on_c, 2, 75, 124
1, 188112, Note_off_c, 2, 77, 64
1, 188117, Note_on_c, 3, 60, 127
1, 188123, Note_off_c, 3, 63, 64
1, 188141, Note_on_c, 2, 74, 124
1, 188148, Note_off_c, 2, 75, 64
1, 188165, Note_on_c, 3, 63, 127
1, 188172, Note_off_c, 4, 55, 64
1, 188178, Note_on_c, 2, 72, 124
1, 188184, Note_off_c, 2, 74, 64
1, 188214, Note_on_c, 2, 74, 124
1, 188215, Note_on_c, 4, 55, 127
1, 188221, Note_off_c, 2, 72, 64
1, 188221, Note_off_c, 3, 60, 64
1, 188256, Note_off_c, 2, 74, 64
1, 188257, Note_on_c, 2, 75, 124
1, 188262, Note_on_c, 3, 59, 127
1, 188270, Note_off_c, 3, 63, 64
1, 188301, Note_off_c, 2, 75, 64
1, 188306, Note_on_c, 2, 74, 124
1, 188312, Note_on_c, 3, 65, 123
1, 188318, Note_off_c, 4, 55, 64
1, 188347, Note_on_c, 2, 75, 124
1, 188349, Note_off_c, 2, 74, 64
1, 188361, Note_on_c, 4, 55, 127
1, 188366, Note_off_c, 3, 59, 64
1, 188385, Note_on_c, 2, 74, 124
1, 188389, Note_off_c, 2, 75, 64
1, 188409, Note_on_c, 3, 59, 127
1, 188416, Note_off_c, 3, 65, 64
1, 188427, Note_off_c, 2, 74, 64
1, 188428, Note_on_c, 2, 75, 124
1, 188458, Note_on_c, 3, 65, 123
1, 188464, Note_off_c, 4, 55, 64
1, 188472, Note_off_c, 2, 75, 64
1, 188472, Note_on_c, 2, 74, 124
1, 188507, Note_on_c, 4, 55, 127
1, 188511, Note_on_c, 2, 75, 124
1, 188513, Note_off_c, 3, 59, 64
1, 188515, Note_off_c, 2, 74, 64
1, 188555, Note_off_c, 2, 75, 64
1, 188556, Note_on_c, 3, 59, 127
1, 188556, Note_on_c, 2, 74, 124
1, 188562, Note_off_c, 3, 65, 64
1, 188594, Note_on_c, 2, 75, 124
1, 188599, Note_off_c, 2, 74, 64
1, 188604, Note_on_c, 3, 65, 123
1, 188610, Note_off_c, 4, 55, 64
1, 188637, Note_off_c, 2, 75, 64
1, 188639, Note_on_c, 2, 74, 124
1, 188652, Note_on_c, 4, 55, 127
1, 188658, Note_off_c, 3, 59, 64
1, 188681, Note_off_c, 2, 74, 64
1, 188687, Note_on_c, 2, 75, 124
1, 188700, Note_on_c, 3, 59, 127
1, 188706, Note_off_c, 3, 65, 64
1, 188724, Note_on_c, 2, 72, 127
1, 188727, Note_off_c, 2, 75, 64
1, 188748, Note_on_c, 3, 65, 123
1, 188754, Note_off_c, 4, 55, 64
1, 188760, Note_on_c, 2, 74, 127
1, 188766, Note_off_c, 2, 72, 64
1, 188796, Note_on_c, 3, 60, 127
1, 188802, Note_off_c, 3, 59, 64
1, 188838, Note_off_c, 2, 74, 64
1, 188844, Note_on_c, 2, 72, 127
1, 188850, Note_off_c, 3, 65, 64
1, 188892, Note_on_c, 1, 84, 123
1, 188939, Note_off_c, 3, 60, 64
1, 188939, Note_on_c, 3, 59, 127
1, 188986, Note_off_c, 2, 72, 64
1, 188986, Note_on_c, 2, 71, 127
1, 189033, Note_off_c, 1, 84, 64
1, 189033, Note_on_c, 1, 83, 123
1, 189078, Note_off_c, 3, 59, 64
1, 189078, Note_on_c, 3, 60, 127
1, 189125, Note_off_c, 2, 71, 64
1, 189125, Note_on_c, 2, 72, 127
1, 189170, Note_off_c, 1, 83, 64
1, 189170, Note_on_c, 1, 84, 123
1, 189215, Note_off_c, 3, 60, 64
1, 189216, Note_on_c, 4, 55, 127
1, 189262, Note_off_c, 2, 72, 64
1, 189263, Note_on_c, 3, 67, 127
1, 189306, Note_off_c, 1, 84, 64
1, 189306, Note_on_c, 1, 79, 121
1, 189351, Note_off_c, 4, 55, 64
1, 189352, Note_on_c, 4, 56, 127
1, 189398, Note_off_c, 3, 67, 64
1, 189399, Note_on_c, 3, 68, 127
1, 189444, Note_off_c, 1, 79, 64
1, 189444, Note_on_c, 1, 80, 123
1, 189491, Note_off_c, 4, 56, 64
1, 189491, Note_on_c, 4, 55, 127
1, 189538, Note_off_c, 3, 68, 64
1, 189538, Note_on_c, 3, 67, 127
1, 189585, Note_off_c, 1, 80, 64
1, 189585, Note_on_c, 1, 79, 121
1, 189630, Note_off_c, 4, 55, 64
1, 189630, Note_on_c, 4, 56, 127
1, 189675, Note_off_c, 3, 67, 64
1, 189675, Note_on_c, 3, 68, 127
1, 189721, Note_off_c, 1, 79, 64
1, 189721, Note_on_c, 1, 80, 123
1, 189766, Note_off_c, 4, 56, 64
1, 189767, Note_on_c, 4, 51, 127
1, 189811, Note_off_c, 3, 68, 64
1, 189812, Note_on_c, 3, 63, 127
1, 189858, Note_off_c, 1, 80, 64
1, 189859, Note_on_c, 2, 75, 124
1, 189903, Note_off_c, 4, 51, 64
1, 189904, Note_on_c, 4, 53, 127
1, 189952, Note_off_c, 3, 63, 64
1, 189953, Note_on_c, 3, 65, 127
1, 189997, Note_off_c, 2, 75, 64
1, 189998, Note_on_c, 2, 77, 124
1, 190044, Note_off_c, 4, 53, 64
1, 190045, Note_on_c, 4, 54, 127
1, 190092, Note_off_c, 3, 65, 64
1, 190092, Note_on_c, 3, 66, 127
1, 190139, Note_off_c, 2, 77, 64
1, 190139, Note_on_c, 1, 78, 119
1, 190186, Note_off_c, 4, 54, 64
1, 190186, Note_on_c, 4, 55, 127
1, 190233, Note_off_c, 3, 66, 64
1, 190233, Note_on_c, 3, 67, 127
1, 190278, Note_off_c, 1, 78, 64
1, 190278, Note_on_c, 1, 79, 121
1, 190325, Note_on_c, 4, 43, 127
1, 190359, Note_off_c, 4, 55, 64
1, 190373, Note_on_c, 4, 55, 127
1, 190405, Note_off_c, 3, 67, 64
1, 190417, Note_on_c, 3, 67, 127
1, 190453, Note_off_c, 1, 79, 64
1, 190465, Note_off_c, 4, 43, 64
1, 190465, Note_on_c, 4, 48, 127
1, 190512, Note_off_c, 4, 55, 64
1, 190512, Note_on_c, 3, 60, 127
1, 190557, Note_off_c, 3, 67, 64
1, 190558, Note_on_c, 2, 72, 124
1, 190602, Note_off_c, 4, 48, 64
1, 190603, Note_on_c, 4, 47, 127
1, 190649, Note_off_c, 3, 60, 64
1, 190650, Note_on_c, 3, 59, 127
1, 190695, Note_off_c, 2, 72, 64
1, 190695, Note_on_c, 2, 71, 125
1, 190741, Note_off_c, 4, 47, 64
1, 190742, Note_on_c, 4, 48, 127
1, 190788, Note_off_c, 3, 59, 64
1, 190789, Note_on_c, 3, 60, 127
1, 190832, Note_off_c, 2, 71, 64
1, 190833, Note_on_c, 2, 72, 124
1, 190877, Note_off_c, 4, 48, 64
1, 190878, Note_on_c, 4, 43, 127
1, 190922, Note_off_c, 3, 60, 64
1, 190922, Note_on_c, 3, 55, 127
1, 190968, Note_off_c, 2, 72, 64
1, 190968, Note_on_c, 4, 67, 123
1, 191013, Note_off_c, 4, 43, 64
1, 191013, Note_on_c, 4, 44, 127
1, 191059, Note_off_c, 3, 55, 64
1, 191060, Note_on_c, 3, 56, 127
1, 191105, Note_off_c, 4, 67, 64
1, 191105, Note_on_c, 2, 68, 123
1, 191152, Note_off_c, 4, 44, 64
1, 191152, Note_on_c, 4, 43, 127
1, 191197, Note_off_c, 3, 56, 64
1, 191197, Note_on_c, 3, 55, 127
1, 191244, Note_off_c, 2, 68, 64
1, 191244, Note_on_c, 4, 67, 123
1, 191289, Note_off_c, 4, 43, 64
1, 191290, Note_on_c, 4, 44, 127
1, 191334, Note_off_c, 3, 55, 64
1, 191335, Note_on_c, 3, 56, 127
1, 191379, Note_off_c, 4, 67, 64
1, 191380, Note_on_c, 2, 68, 123
1, 191424, Note_off_c, 4, 44, 64
1, 191425, Note_on_c, 4, 39, 127
1, 191472, Note_off_c, 3, 56, 64
1, 191472, Note_on_c, 4, 51, 127
1, 191517, Note_off_c, 2, 68, 64
1, 191517, Note_on_c, 4, 63, 127
1, 191562, Note_off_c, 4, 39, 64
1, 191562, Note_on_c, 4, 41, 127
1, 191607, Note_off_c, 4, 51, 64
1, 191607, Note_on_c, 3, 53, 127
1, 191654, Note_off_c, 4, 63, 64
1, 191654, Note_on_c, 4, 65, 123
1, 191701, Note_off_c, 4, 41, 64
1, 191701, Note_on_c, 4, 42, 127
1, 191750, Note_off_c, 3, 53, 64
1, 191750, Note_on_c, 3, 54, 127
1, 191797, Note_off_c, 4, 65, 64
1, 191797, Note_on_c, 4, 66, 123
1, 191842, Note_off_c, 4, 42, 64
1, 191843, Note_on_c, 4, 43, 127
1, 191889, Note_off_c, 3, 54, 64
1, 191890, Note_on_c, 3, 55, 127
1, 191936, Note_off_c, 4, 66, 64
1, 191937, Note_on_c, 4, 67, 123
1, 191985, Note_on_c, 4, 31, 127
1, 192022, Note_off_c, 4, 43, 64
1, 192034, Note_on_c, 4, 43, 127
1, 192072, Note_off_c, 3, 55, 64
1, 192084, Note_on_c, 3, 55, 127
1, 192122, Note_off_c, 4, 67, 64
1, 192138, Note_off_c, 4, 31, 64
1, 192138, Note_on_c, 4, 36, 127
1, 192181, Note_off_c, 3, 55, 64
1, 192187, Note_off_c, 4, 43, 64
1, 192187, Note_on_c, 4, 48, 127
1, 192236, Note_on_c, 4, 51, 127
1, 192264, Note_off_c, 4, 48, 64
1, 192282, Note_on_c, 3, 55, 127
1, 192309, Note_off_c, 4, 51, 64
1, 192328, Note_on_c, 4, 51, 127
1, 192357, Note_off_c, 3, 55, 64
1, 192376, Note_on_c, 4, 48, 127
1, 192405, Note_off_c, 4, 51, 64
1, 192422, Note_on_c, 3, 55, 127
1, 192449, Note_off_c, 4, 48, 64
1, 192466, Note_on_c, 4, 51, 127
1, 192495, Note_off_c, 3, 55, 64
1, 192512, Note_on_c, 4, 48, 127
1, 192543, Note_off_c, 4, 51, 64
1, 192560, Note_off_c, 4, 36, 64
1, 192561, Note_on_c, 3, 53, 127
1, 192561, Note_on_c, 4, 31, 127
1, 192586, Note_off_c, 4, 48, 64
1, 192605, Note_on_c, 4, 50, 127
1, 192634, Note_off_c, 3, 53, 64
1, 192651, Note_on_c, 4, 47, 127
1, 192680, Note_off_c, 4, 50, 64
1, 192697, Note_off_c, 4, 31, 64
1, 192698, Note_on_c, 4, 36, 127
1, 192744, Note_on_c, 4, 43, 127
1, 192756, Note_off_c, 4, 47, 64
1, 192791, Note_on_c, 4, 48, 127
1, 192817, Note_off_c, 4, 43, 64
1, 192835, Note_on_c, 4, 51, 127
1, 192864, Note_off_c, 4, 48, 64
1, 192881, Note_on_c, 4, 48, 127
1, 192910, Note_off_c, 4, 51, 64
1, 192927, Note_on_c, 4, 43, 127
1, 192956, Note_off_c, 4, 48, 64
1, 192973, Note_on_c, 4, 51, 127
1, 193002, Note_off_c, 4, 43, 64
1, 193017, Note_on_c, 4, 48, 127
1, 193048, Note_off_c, 4, 51, 64
1, 193065, Note_on_c, 4, 43, 127
1, 193094, Note_off_c, 4, 48, 64
1, 193110, Note_off_c, 4, 36, 64
1, 193110, Note_on_c, 4, 31, 127
1, 193110, Note_on_c, 4, 50, 127
1, 193137, Note_off_c, 4, 43, 64
1, 193154, Note_on_c, 4, 47, 127
1, 193183, Note_off_c, 4, 50, 64
1, 193200, Note_on_c, 4, 43, 127
1, 193229, Note_off_c, 4, 47, 64
1, 193247, Note_off_c, 4, 31, 64
1, 193247, Note_on_c, 4, 48, 127
1, 193248, Note_on_c, 4, 36, 127
1, 193277, Note_off_c, 4, 43, 64
1, 193622, Note_off_c, 4, 36, 64
1, 193623, Note_off_c, 4, 48, 64
1, 193631, Note_on_c, 4, 48, 127
1, 193632, Note_on_c, 4, 36, 127
1, 193632, Note_on_c, 4, 39, 127
1, 193632, Note_on_c, 4, 43, 127
1, 194338, Note_off_c, 4, 48, 64
1, 194338, Note_off_c, 4, 39, 64
1, 194339, Note_off_c, 4, 43, 64
1, 194339, Note_off_c, 4, 36, 64
1, 194345, Note_on_c, 4, 48, 127
1, 194346, Note_on_c, 4, 39, 127
1, 194346, Note_on_c, 4, 43, 127
1, 194347, Note_on_c, 4, 36, 127
1, 198162, Note_off_c, 4, 48, 64
1, 198164, Note_off_c, 4, 39, 64
1, 198169, Note_off_c, 4, 43, 64
1, 198169, Note_off_c, 4, 36, 64
1, 198710, Note_on_c, 2, 70, 106
1, 198711, Note_on_c, 4, 51, 124
1, 198852, Note_on_c, 4, 55, 127
1, 198925, Note_off_c, 4, 51, 64
1, 198991, Note_on_c, 4, 58, 127
1, 199060, Note_off_c, 4, 55, 64
1, 199133, Note_on_c, 4, 55, 127
1, 199198, Note_off_c, 4, 58, 64
1, 199271, Note_off_c, 2, 70, 64
1, 199272, Note_on_c, 2, 67, 116
1, 199274, Note_on_c, 4, 51, 127
1, 199343, Note_off_c, 4, 55, 64
1, 199423, Note_on_c, 4, 55, 127
1, 199498, Note_off_c, 4, 51, 64
1, 199544, Note_off_c, 2, 67, 64
1, 199566, Note_on_c, 4, 58, 127
1, 199566, Note_on_c, 2, 67, 124
1, 199631, Note_off_c, 4, 55, 64
1, 199700, Note_on_c, 4, 55, 127
1, 199772, Note_off_c, 4, 58, 64
1, 199820, Note_off_c, 2, 67, 64
1, 199836, Note_on_c, 2, 67, 124
1, 199838, Note_on_c, 3, 63, 127
1, 199839, Note_on_c, 4, 46, 127
1, 199908, Note_off_c, 4, 55, 64
1, 199981, Note_on_c, 4, 51, 127
1, 200056, Note_off_c, 4, 46, 64
1, 200127, Note_on_c, 4, 55, 127
1, 200196, Note_off_c, 4, 51, 64
1, 200264, Note_on_c, 4, 51, 127
1, 200317, Note_off_c, 2, 67, 64
1, 200342, Note_off_c, 4, 55, 64
1, 200343, Note_on_c, 2, 68, 124
1, 200395, Note_off_c, 2, 68, 64
1, 200411, Note_on_c, 3, 62, 127
1, 200411, Note_on_c, 3, 65, 122
1, 200412, Note_on_c, 4, 46, 127
1, 200413, Note_off_c, 3, 63, 64
1, 200481, Note_off_c, 4, 51, 64
1, 200550, Note_on_c, 4, 50, 127
1, 200619, Note_off_c, 4, 46, 64
1, 200688, Note_on_c, 4, 53, 127
1, 200759, Note_off_c, 4, 50, 64
1, 200841, Note_on_c, 4, 50, 127
1, 200918, Note_off_c, 4, 53, 64
1, 200965, Note_off_c, 4, 50, 64
1, 200974, Note_off_c, 3, 65, 64
1, 200974, Note_off_c, 3, 62, 64
1, 200975, Note_on_c, 3, 63, 127
1, 200975, Note_on_c, 4, 55, 127
1, 200976, Note_on_c, 4, 51, 127
1, 201118, Note_on_c, 4, 58, 127
1, 201242, Note_off_c, 4, 55, 64
1, 201255, Note_on_c, 4, 55, 127
1, 201387, Note_off_c, 4, 58, 64
1, 201401, Note_on_c, 4, 58, 127
1, 201531, Note_off_c, 4, 55, 64
1, 201545, Note_off_c, 3, 63, 64
1, 201545, Note_off_c, 4, 51, 64
1, 201546, Note_on_c, 3, 65, 122
1, 201546, Note_on_c, 3, 62, 127
1, 201547, Note_on_c, 4, 46, 127
1, 201675, Note_off_c, 4, 58, 64
1, 201689, Note_on_c, 4, 58, 127
1, 201806, Note_off_c, 3, 62, 64
1, 201819, Note_on_c, 3, 62, 127
1, 201952, Note_off_c, 4, 58, 64
1, 201967, Note_on_c, 4, 58, 127
1, 202098, Note_off_c, 3, 62, 64
1, 202111, Note_off_c, 4, 46, 64
1, 202112, Note_off_c, 3, 65, 64
1, 202112, Note_on_c, 2, 67, 124
1, 202113, Note_on_c, 4, 39, 127
1, 202256, Note_off_c, 4, 58, 64
1, 202297, Note_off_c, 2, 67, 64
1, 202299, Note_on_c, 2, 68, 124
1, 202328, Note_off_c, 2, 68, 64
1, 202332, Note_on_c, 2, 67, 124
1, 202355, Note_on_c, 3, 65, 122
1, 202361, Note_off_c, 2, 67, 64
1, 202376, Note_on_c, 2, 67, 124
1, 202382, Note_off_c, 3, 65, 64
1, 202401, Note_off_c, 2, 67, 64
1, 202409, Note_on_c, 2, 68, 124
1, 202470, Note_on_c, 2, 70, 126
1, 202491, Note_off_c, 2, 68, 64
1, 202522, Note_on_c, 2, 72, 125
1, 202541, Note_off_c, 2, 70, 64
1, 202578, Note_on_c, 2, 74, 125
1, 202601, Note_off_c, 2, 72, 64
1, 202640, Note_on_c, 2, 75, 125
1, 202660, Note_off_c, 2, 74, 64
1, 202703, Note_on_c, 2, 70, 126
1, 202723, Note_off_c, 2, 75, 64
1, 202888, Note_off_c, 2, 70, 64
1, 202889, Note_on_c, 2, 75, 125
1, 202889, Note_on_c, 1, 79, 122
1, 203030, Note_on_c, 2, 77, 125
1, 203031, Note_on_c, 2, 74, 125
1, 203044, Note_off_c, 2, 75, 64
1, 203045, Note_off_c, 1, 79, 64
1, 203163, Note_on_c, 2, 72, 125
1, 203163, Note_on_c, 2, 75, 125
1, 203175, Note_off_c, 2, 77, 64
1, 203175, Note_off_c, 2, 74, 64
1, 203295, Note_on_c, 2, 74, 125
1, 203296, Note_on_c, 2, 70, 126
1, 203307, Note_off_c, 2, 72, 64
1, 203308, Note_off_c, 2, 75, 64
1, 203430, Note_off_c, 4, 39, 64
1, 203430, Note_on_c, 2, 72, 125
1, 203431, Note_on_c, 4, 50, 127
1, 203431, Note_on_c, 2, 68, 124
1, 203443, Note_off_c, 2, 70, 64
1, 203443, Note_off_c, 2, 74, 64
1, 203571, Note_on_c, 2, 70, 126
1, 203571, Note_on_c, 2, 67, 124
1, 203572, Note_on_c, 4, 51, 127
1, 203585, Note_off_c, 2, 68, 64
1, 203585, Note_off_c, 4, 50, 64
1, 203586, Note_off_c, 2, 72, 64
1, 203707, Note_on_c, 2, 68, 124
1, 203708, Note_on_c, 4, 53, 127
1, 203708, Note_on_c, 3, 65, 122
1, 203722, Note_off_c, 4, 51, 64
1, 203722, Note_off_c, 2, 67, 64
1, 203722, Note_off_c, 2, 70, 64
1, 203847, Note_on_c, 2, 67, 124
1, 203848, Note_on_c, 3, 63, 127
1, 203848, Note_on_c, 4, 55, 127
1, 203858, Note_off_c, 2, 68, 64
1, 203858, Note_off_c, 3, 65, 64
1, 203858, Note_off_c, 4, 53, 64
1, 203984, Note_on_c, 2, 68, 124
1, 203984, Note_on_c, 2, 72, 125
1, 203985, Note_on_c, 4, 56, 127
1, 203994, Note_off_c, 4, 55, 64
1, 203995, Note_off_c, 3, 63, 64
1, 203995, Note_off_c, 2, 67, 64
1, 204110, Note_off_c, 2, 68, 64
1, 204122, Note_on_c, 3, 65, 122
1, 204122, Note_on_c, 2, 68, 124
1, 204123, Note_on_c, 4, 53, 127
1, 204136, Note_off_c, 4, 56, 64
1, 204137, Note_off_c, 2, 72, 64
1, 204254, Note_on_c, 2, 67, 124
1, 204255, Note_on_c, 3, 63, 127
1, 204255, Note_on_c, 4, 57, 127
1, 204267, Note_off_c, 3, 65, 64
1, 204267, Note_off_c, 4, 53, 64
1, 204268, Note_off_c, 2, 68, 64
1, 204381, Note_on_c, 4, 58, 127
1, 204393, Note_off_c, 4, 57, 64
1, 204517, Note_on_c, 4, 55, 127
1, 204546, Note_off_c, 4, 58, 64
1, 204654, Note_on_c, 4, 51, 127
1, 204675, Note_off_c, 4, 55, 64
1, 204784, Note_off_c, 3, 63, 64
1, 204785, Note_off_c, 2, 67, 64
1, 204785, Note_on_c, 3, 65, 122
1, 204786, Note_on_c, 4, 46, 127
1, 204786, Note_on_c, 3, 62, 127
1, 204809, Note_off_c, 4, 51, 64
1, 204924, Note_on_c, 2, 67, 124
1, 204940, Note_off_c, 3, 65, 64
1, 205070, Note_on_c, 2, 68, 124
1, 205086, Note_off_c, 2, 67, 64
1, 205202, Note_on_c, 2, 69, 125
1, 205213, Note_off_c, 2, 68, 64
1, 205339, Note_off_c, 3, 62, 64
1, 205339, Note_off_c, 4, 46, 64
1, 205339, Note_on_c, 2, 70, 126
1, 205340, Note_on_c, 4, 51, 127
1, 205354, Note_off_c, 2, 69, 64
1, 205478, Note_on_c, 4, 55, 127
1, 205491, Note_off_c, 4, 51, 64
1, 205616, Note_on_c, 4, 58, 127
1, 205629, Note_off_c, 4, 55, 64
1, 205669, Note_off_c, 2, 70, 64
1, 205685, Note_on_c, 2, 74, 125
1, 205751, Note_on_c, 2, 75, 125
1, 205751, Note_on_c, 4, 55, 127
1, 205773, Note_off_c, 2, 74, 64
1, 205773, Note_off_c, 4, 58, 64
1, 205814, Note_on_c, 2, 70, 126
1, 205835, Note_off_c, 2, 75, 64
1, 205877, Note_on_c, 2, 67, 124
1, 205878, Note_on_c, 4, 51, 127
1, 205899, Note_off_c, 2, 70, 64
1, 205900, Note_off_c, 4, 55, 64
1, 206009, Note_off_c, 2, 67, 64
1, 206017, Note_on_c, 2, 67, 124
1, 206018, Note_on_c, 4, 55, 127
1, 206030, Note_off_c, 4, 51, 64
1, 206139, Note_off_c, 2, 67, 64
1, 206149, Note_on_c, 4, 58, 127
1, 206149, Note_on_c, 2, 67, 124
1, 206163, Note_off_c, 4, 55, 64
1, 206279, Note_off_c, 2, 67, 64
1, 206288, Note_on_c, 2, 67, 124
1, 206289, Note_on_c, 4, 55, 127
1, 206301, Note_off_c, 4, 58, 64
1, 206418, Note_off_c, 2, 67, 64
1, 206427, Note_on_c, 2, 67, 124
1, 206428, Note_on_c, 3, 63, 100
1, 206428, Note_on_c, 4, 46, 102
1, 206451, Note_off_c, 4, 55, 64
1, 206570, Note_on_c, 4, 51, 127
1, 206586, Note_off_c, 4, 46, 64
1, 206703, Note_on_c, 4, 55, 127
1, 206714, Note_off_c, 4, 51, 64
1, 206799, Note_off_c, 2, 67, 64
1, 206799, Note_off_c, 3, 63, 64
1, 206811, Note_on_c, 2, 68, 124
1, 206836, Note_off_c, 2, 68, 64
1, 206842, Note_on_c, 2, 67, 124
1, 206843, Note_on_c, 4, 51, 127
1, 206856, Note_on_c, 3, 65, 122
1, 206858, Note_off_c, 2, 67, 64
1, 206868, Note_off_c, 4, 55, 64
1, 206878, Note_off_c, 3, 65, 64
1, 206878, Note_on_c, 2, 67, 124
1, 206909, Note_on_c, 2, 68, 124
1, 206919, Note_off_c, 2, 67, 64
1, 206971, Note_off_c, 2, 68, 64
1, 206975, Note_on_c, 3, 62, 127
1, 206975, Note_on_c, 3, 65, 122
1, 206976, Note_on_c, 4, 46, 127
1, 206999, Note_off_c, 4, 51, 64
1, 207113, Note_on_c, 4, 50, 127
1, 207128, Note_off_c, 4, 46, 64
1, 207245, Note_on_c, 4, 53, 127
1, 207259, Note_off_c, 4, 50, 64
1, 207315, Note_on_c, 2, 70, 127
1, 207339, Note_off_c, 3, 65, 64
1, 207339, Note_off_c, 3, 62, 64
1, 207384, Note_on_c, 2, 68, 127
1, 207384, Note_on_c, 4, 50, 127
1, 207392, Note_off_c, 2, 70, 64
1, 207398, Note_off_c, 4, 53, 64
1, 207452, Note_on_c, 3, 65, 127
1, 207459, Note_off_c, 2, 68, 64
1, 207515, Note_on_c, 3, 63, 127
1, 207516, Note_on_c, 4, 51, 127
1, 207526, Note_off_c, 3, 65, 64
1, 207530, Note_off_c, 4, 50, 64
1, 207654, Note_on_c, 4, 55, 127
1, 207793, Note_on_c, 4, 58, 127
1, 207917, Note_off_c, 4, 55, 64
1, 207931, Note_on_c, 4, 55, 127
1, 208069, Note_off_c, 4, 51, 64
1, 208070, Note_off_c, 3, 63, 64
1, 208070, Note_on_c, 3, 65, 127
1, 208071, Note_on_c, 4, 46, 127
1, 208172, Note_off_c, 4, 58, 64
1, 208195, Note_off_c, 4, 55, 64
1, 208209, Note_on_c, 4, 58, 127
1, 208347, Note_on_c, 3, 62, 127
1, 208473, Note_off_c, 4, 58, 64
1, 208484, Note_on_c, 4, 58, 127
1, 208617, Note_off_c, 3, 62, 64
1, 208617, Note_off_c, 4, 46, 64
1, 208618, Note_off_c, 3, 65, 64
1, 208618, Note_on_c, 2, 67, 124
1, 208619, Note_on_c, 4, 39, 127
1, 208717, Note_off_c, 2, 67, 64
1, 208734, Note_on_c, 2, 68, 124
1, 208774, Note_off_c, 4, 58, 64
1, 208775, Note_on_c, 2, 67, 124
1, 208783, Note_off_c, 2, 68, 64
1, 208808, Note_off_c, 2, 67, 64
1, 208808, Note_on_c, 3, 65, 122
1, 208832, Note_on_c, 2, 67, 124
1, 208841, Note_off_c, 3, 65, 64
1, 208864, Note_off_c, 2, 67, 64
1, 208872, Note_on_c, 2, 68, 124
1, 208933, Note_on_c, 2, 70, 126
1, 208941, Note_off_c, 2, 68, 64
1, 208990, Note_on_c, 2, 72, 125
1, 208998, Note_off_c, 2, 70, 64
1, 209052, Note_on_c, 2, 74, 125
1, 209059, Note_off_c, 2, 72, 64
1, 209110, Note_on_c, 2, 75, 125
1, 209118, Note_off_c, 2, 74, 64
1, 209172, Note_on_c, 2, 70, 126
1, 209179, Note_off_c, 2, 75, 64
1, 209396, Note_off_c, 2, 70, 64
1, 209397, Note_on_c, 2, 75, 125
1, 209466, Note_on_c, 2, 74, 125
1, 209474, Note_off_c, 2, 75, 64
1, 209526, Note_on_c, 2, 73, 125
1, 209532, Note_off_c, 2, 74, 64
1, 209585, Note_on_c, 2, 72, 125
1, 209593, Note_off_c, 2, 73, 64
1, 209656, Note_on_c, 2, 71, 126
1, 209666, Note_off_c, 2, 72, 64
1, 209795, Note_on_c, 3, 63, 127
1, 209796, Note_on_c, 4, 55, 127
1, 209933, Note_off_c, 2, 71, 64
1, 209933, Note_on_c, 2, 75, 125
1, 209999, Note_on_c, 2, 74, 125
1, 210007, Note_off_c, 2, 75, 64
1, 210053, Note_on_c, 2, 73, 125
1, 210059, Note_off_c, 2, 74, 64
1, 210109, Note_on_c, 2, 72, 125
1, 210115, Note_off_c, 2, 73, 64
1, 210165, Note_on_c, 2, 71, 126
1, 210172, Note_off_c, 2, 72, 64
1, 210276, Note_off_c, 3, 63, 64
1, 210277, Note_off_c, 4, 55, 64
1, 210289, Note_on_c, 3, 63, 127
1, 210290, Note_on_c, 4, 55, 127
1, 210420, Note_off_c, 2, 71, 64
1, 210420, Note_on_c, 2, 75, 125
1, 210488, Note_on_c, 2, 74, 125
1, 210495, Note_off_c, 2, 75, 64
1, 210542, Note_on_c, 2, 73, 125
1, 210549, Note_off_c, 2, 74, 64
1, 210600, Note_on_c, 2, 72, 125
1, 210607, Note_off_c, 2, 73, 64
1, 210638, Note_off_c, 3, 63, 64
1, 210640, Note_off_c, 4, 55, 64
1, 210657, Note_on_c, 2, 71, 126
1, 210659, Note_on_c, 3, 63, 127
1, 210659, Note_on_c, 4, 55, 127
1, 210665, Note_off_c, 2, 72, 64
1, 211118, Note_off_c, 2, 71, 64
1, 211118, Note_on_c, 2, 72, 125
1, 211119, Note_on_c, 4, 56, 127
1, 211121, Note_off_c, 4, 55, 64
1, 211390, Note_off_c, 2, 72, 64
1, 211390, Note_on_c, 3, 65, 122
1, 211392, Note_off_c, 3, 63, 64
1, 211454, Note_on_c, 2, 67, 124
1, 211462, Note_off_c, 3, 65, 64
1, 211515, Note_on_c, 2, 68, 124
1, 211525, Note_off_c, 2, 67, 64
1, 211577, Note_on_c, 2, 69, 125
1, 211584, Note_off_c, 2, 68, 64
1, 211634, Note_on_c, 2, 70, 126
1, 211644, Note_off_c, 2, 69, 64
1, 211863, Note_off_c, 4, 39, 64
1, 211886, Note_on_c, 4, 43, 127
1, 211886, Note_on_c, 4, 51, 127
1, 211935, Note_off_c, 2, 70, 64
1, 211950, Note_on_c, 2, 72, 125
1, 212016, Note_on_c, 2, 74, 125
1, 212023, Note_off_c, 2, 72, 64
1, 212077, Note_on_c, 2, 75, 125
1, 212085, Note_off_c, 2, 74, 64
1, 212138, Note_off_c, 4, 56, 64
1, 212139, Note_on_c, 3, 63, 127
1, 212141, Note_on_c, 4, 58, 127
1, 212142, Note_on_c, 4, 46, 127
1, 212142, Note_on_c, 4, 55, 127
1, 212148, Note_off_c, 2, 75, 64
1, 212161, Note_off_c, 4, 43, 64
1, 212162, Note_off_c, 4, 51, 64
1, 212439, Note_on_c, 4, 56, 127
1, 212460, Note_off_c, 4, 55, 64
1, 212568, Note_off_c, 3, 63, 64
1, 212568, Note_on_c, 2, 67, 127
1, 212569, Note_off_c, 4, 58, 64
1, 212569, Note_on_c, 3, 62, 127
1, 212666, Note_on_c, 3, 65, 127
1, 212679, Note_off_c, 2, 67, 64
1, 212679, Note_off_c, 3, 62, 64
1, 212734, Note_on_c, 3, 63, 127
1, 212736, Note_on_c, 4, 51, 127
1, 212737, Note_on_c, 4, 55, 127
1, 212741, Note_off_c, 3, 65, 64
1, 212757, Note_off_c, 4, 56, 64
1, 213005, Note_off_c, 3, 63, 64
1, 213008, Note_off_c, 4, 51, 64
1, 213009, Note_off_c, 4, 55, 64
1, 213015, Note_on_c, 3, 63, 127
1, 213016, Note_on_c, 4, 51, 127
1, 213018, Note_on_c, 4, 55, 127
1, 213527, Note_off_c, 3, 63, 64
1, 213528, Note_on_c, 4, 58, 127
1, 213528, Note_on_c, 2, 74, 125
1, 213528, Note_on_c, 2, 77, 125
1, 213529, Note_off_c, 4, 51, 64
1, 213531, Note_off_c, 4, 55, 64
1, 213683, Note_on_c, 3, 65, 122
1, 213794, Note_off_c, 2, 77, 64
1, 213794, Note_off_c, 2, 74, 64
1, 213812, Note_on_c, 2, 74, 125
1, 213921, Note_off_c, 3, 65, 64
1, 213940, Note_on_c, 3, 65, 122
1, 214055, Note_off_c, 2, 74, 64
1, 214076, Note_on_c, 2, 74, 125
1, 214077, Note_on_c, 2, 70, 126
1, 214190, Note_off_c, 3, 65, 64
1, 214210, Note_on_c, 3, 65, 122
1, 214325, Note_off_c, 2, 74, 64
1, 214325, Note_off_c, 2, 70, 64
1, 214349, Note_on_c, 2, 70, 126
1, 214468, Note_off_c, 3, 65, 64
1, 214487, Note_on_c, 3, 65, 122
1, 214589, Note_off_c, 2, 70, 64
1, 214606, Note_off_c, 4, 58, 64
1, 214607, Note_on_c, 2, 74, 125
1, 214607, Note_on_c, 2, 77, 125
1, 214608, Note_off_c, 4, 46, 64
1, 214608, Note_on_c, 4, 41, 127
1, 214608, Note_on_c, 4, 53, 127
1, 214718, Note_off_c, 3, 65, 64
1, 214917, Note_off_c, 2, 74, 64
1, 214918, Note_off_c, 2, 77, 64
1, 214934, Note_on_c, 2, 76, 126
1, 214934, Note_on_c, 2, 73, 125
1, 214998, Note_on_c, 2, 75, 125
1, 214999, Note_on_c, 2, 72, 125
1, 215006, Note_off_c, 2, 73, 64
1, 215007, Note_off_c, 2, 76, 64
1, 215062, Note_on_c, 2, 74, 125
1, 215062, Note_on_c, 2, 70, 126
1, 215070, Note_off_c, 2, 75, 64
1, 215070, Note_off_c, 2, 72, 64
1, 215127, Note_on_c, 2, 69, 125
1, 215127, Note_on_c, 2, 72, 125
1, 215135, Note_off_c, 2, 70, 64
1, 215136, Note_off_c, 2, 74, 64
1, 215386, Note_off_c, 2, 69, 64
1, 215387, Note_off_c, 2, 72, 64
1, 215387, Note_on_c, 1, 78, 106
1, 215388, Note_on_c, 2, 74, 111
1, 215455, Note_on_c, 1, 79, 108
1, 215456, Note_on_c, 2, 75, 111
1, 215463, Note_off_c, 2, 74, 64
1, 215464, Note_off_c, 1, 78, 64
1, 215505, Note_on_c, 1, 78, 106
1, 215506, Note_on_c, 2, 74, 111
1, 215518, Note_off_c, 2, 75, 64
1, 215518, Note_off_c, 1, 79, 64
1, 215575, Note_on_c, 1, 79, 108
1, 215576, Note_on_c, 2, 75, 111
1, 215590, Note_off_c, 1, 78, 64
1, 215590, Note_off_c, 2, 74, 64
1, 215639, Note_on_c, 2, 69, 125
1, 215639, Note_on_c, 2, 72, 125
1, 215640, Note_on_c, 3, 66, 127
1, 215653, Note_off_c, 2, 75, 64
1, 215653, Note_off_c, 1, 79, 64
1, 215708, Note_on_c, 3, 65, 126
1, 215723, Note_off_c, 3, 66, 64
1, 215781, Note_on_c, 3, 66, 127
1, 215794, Note_off_c, 3, 65, 64
1, 215846, Note_on_c, 3, 65, 126
1, 215859, Note_off_c, 3, 66, 64
1, 215914, Note_off_c, 2, 72, 64
1, 215914, Note_off_c, 2, 69, 64
1, 215915, Note_on_c, 1, 78, 106
1, 215915, Note_on_c, 2, 74, 111
1, 215928, Note_off_c, 3, 65, 64
1, 215976, Note_on_c, 1, 79, 108
1, 215977, Note_on_c, 2, 75, 111
1, 215983, Note_off_c, 2, 74, 64
1, 215984, Note_off_c, 1, 78, 64
1, 216038, Note_on_c, 1, 78, 106
1, 216038, Note_on_c, 2, 74, 111
1, 216048, Note_off_c, 2, 75, 64
1, 216049, Note_off_c, 1, 79, 64
1, 216107, Note_on_c, 1, 79, 108
1, 216108, Note_on_c, 2, 75, 111
1, 216118, Note_off_c, 2, 74, 64
1, 216118, Note_off_c, 1, 78, 64
1, 216165, Note_on_c, 2, 69, 125
1, 216165, Note_on_c, 2, 72, 125
1, 216166, Note_on_c, 3, 66, 127
1, 216174, Note_off_c, 2, 75, 64
1, 216175, Note_off_c, 1, 79, 64
1, 216235, Note_on_c, 3, 65, 126
1, 216244, Note_off_c, 3, 66, 64
1, 216290, Note_on_c, 3, 66, 127
1, 216300, Note_off_c, 3, 65, 64
1, 216354, Note_on_c, 3, 65, 126
1, 216365, Note_off_c, 3, 66, 64
1, 216415, Note_off_c, 2, 69, 64
1, 216416, Note_off_c, 2, 72, 64
1, 216416, Note_on_c, 2, 71, 126
1, 216424, Note_off_c, 3, 65, 64
1, 216476, Note_on_c, 2, 72, 125
1, 216483, Note_off_c, 2, 71, 64
1, 216541, Note_on_c, 2, 74, 125
1, 216549, Note_off_c, 2, 72, 64
1, 216608, Note_on_c, 2, 75, 125
1, 216616, Note_off_c, 2, 74, 64
1, 216677, Note_off_c, 4, 53, 64
1, 216678, Note_on_c, 2, 77, 125
1, 216678, Note_on_c, 4, 58, 127
1, 216686, Note_off_c, 2, 75, 64
1, 216816, Note_on_c, 3, 60, 127
1, 216829, Note_off_c, 4, 58, 64
1, 216950, Note_on_c, 3, 63, 127
1, 216961, Note_off_c, 3, 60, 64
1, 216994, Note_on_c, 1, 79, 108
1, 216998, Note_off_c, 2, 77, 64
1, 217027, Note_on_c, 2, 77, 111
1, 217040, Note_off_c, 1, 79, 64
1, 217052, Note_on_c, 2, 76, 112
1, 217070, Note_off_c, 2, 77, 64
1, 217083, Note_on_c, 2, 77, 111
1, 217087, Note_off_c, 2, 76, 64
1, 217120, Note_on_c, 2, 69, 125
1, 217120, Note_on_c, 1, 79, 108
1, 217121, Note_off_c, 2, 77, 64
1, 217128, Note_off_c, 3, 63, 64
1, 217189, Note_on_c, 2, 75, 117
1, 217198, Note_off_c, 1, 79, 64
1, 217269, Note_on_c, 2, 74, 125
1, 217270, Note_on_c, 4, 58, 127
1, 217270, Note_on_c, 2, 70, 126
1, 217279, Note_off_c, 2, 75, 64
1, 217283, Note_off_c, 2, 69, 64
1, 217537, Note_on_c, 2, 77, 125
1, 217564, Note_off_c, 2, 74, 64
1, 217564, Note_off_c, 2, 70, 64
1, 217653, Note_on_c, 2, 74, 125
1, 217667, Note_off_c, 2, 77, 64
1, 217693, Note_on_c, 2, 77, 125
1, 217714, Note_off_c, 2, 74, 64
1, 217801, Note_on_c, 2, 74, 127
1, 217814, Note_off_c, 2, 77, 64
1, 217844, Note_on_c, 4, 50, 127
1, 217844, Note_on_c, 1, 82, 126
1, 217847, Note_off_c, 4, 58, 64
1, 217865, Note_off_c, 2, 74, 64
1, 217867, Note_off_c, 4, 41, 64
1, 217982, Note_on_c, 4, 53, 127
1, 218005, Note_off_c, 4, 50, 64
1, 218096, Note_off_c, 1, 82, 64
1, 218119, Note_on_c, 1, 82, 126
1, 218119, Note_on_c, 4, 58, 127
1, 218139, Note_off_c, 4, 53, 64
1, 218254, Note_on_c, 4, 53, 127
1, 218277, Note_off_c, 4, 58, 64
1, 218390, Note_on_c, 4, 50, 127
1, 218412, Note_off_c, 4, 53, 64
1, 218519, Note_on_c, 4, 53, 127
1, 218542, Note_off_c, 4, 50, 64
1, 218636, Note_off_c, 1, 82, 64
1, 218652, Note_on_c, 1, 82, 126
1, 218653, Note_on_c, 4, 58, 127
1, 218692, Note_off_c, 4, 53, 64
1, 218730, Note_on_c, 1, 84, 126
1, 218738, Note_off_c, 1, 82, 64
1, 218799, Note_on_c, 1, 86, 126
1, 218800, Note_on_c, 4, 53, 127
1, 218806, Note_off_c, 1, 84, 64
1, 218827, Note_off_c, 4, 58, 64
1, 218879, Note_on_c, 1, 82, 126
1, 218887, Note_off_c, 1, 86, 64
1, 218942, Note_on_c, 1, 81, 126
1, 218943, Note_on_c, 4, 51, 127
1, 218948, Note_off_c, 1, 82, 64
1, 218963, Note_off_c, 4, 53, 64
1, 219076, Note_on_c, 4, 55, 127
1, 219076, Note_on_c, 1, 79, 126
1, 219088, Note_off_c, 1, 81, 64
1, 219096, Note_off_c, 4, 51, 64
1, 219204, Note_off_c, 1, 79, 64
1, 219213, Note_on_c, 1, 79, 126
1, 219214, Note_on_c, 4, 58, 127
1, 219235, Note_off_c, 4, 55, 64
1, 219343, Note_on_c, 4, 55, 127
1, 219366, Note_off_c, 4, 58, 64
1, 219480, Note_on_c, 4, 51, 127
1, 219501, Note_off_c, 4, 55, 64
1, 219615, Note_on_c, 4, 55, 127
1, 219638, Note_off_c, 4, 51, 64
1, 219735, Note_off_c, 1, 79, 64
1, 219751, Note_on_c, 1, 79, 126
1, 219752, Note_on_c, 4, 58, 127
1, 219777, Note_off_c, 4, 55, 64
1, 219825, Note_on_c, 1, 81, 126
1, 219830, Note_off_c, 1, 79, 64
1, 219879, Note_on_c, 1, 82, 126
1, 219879, Note_on_c, 4, 55, 127
1, 219887, Note_off_c, 1, 81, 64
1, 219889, Note_off_c, 4, 58, 64
1, 219949, Note_on_c, 1, 79, 126
1, 219957, Note_off_c, 1, 82, 64
1, 220011, Note_on_c, 2, 77, 127
1, 220012, Note_on_c, 4, 53, 127
1, 220022, Note_off_c, 1, 79, 64
1, 220025, Note_off_c, 4, 55, 64
1, 220143, Note_on_c, 2, 75, 127
1, 220143, Note_on_c, 4, 57, 127
1, 220159, Note_off_c, 2, 77, 64
1, 220159, Note_off_c, 4, 53, 64
1, 220266, Note_off_c, 2, 75, 64
1, 220279, Note_on_c, 2, 75, 125
1, 220280, Note_on_c, 3, 60, 127
1, 220292, Note_off_c, 4, 57, 64
1, 220418, Note_on_c, 4, 57, 127
1, 220432, Note_off_c, 3, 60, 64
1, 220554, Note_on_c, 4, 53, 127
1, 220567, Note_off_c, 4, 57, 64
1, 220663, Note_off_c, 2, 75, 64
1, 220686, Note_on_c, 2, 75, 125
1, 220687, Note_on_c, 4, 57, 127
1, 220701, Note_off_c, 4, 53, 64
1, 220804, Note_off_c, 2, 75, 64
1, 220814, Note_on_c, 2, 75, 125
1, 220814, Note_on_c, 3, 60, 127
1, 220828, Note_off_c, 4, 57, 64
1, 220938, Note_off_c, 2, 75, 64
1, 220947, Note_on_c, 2, 75, 125
1, 220948, Note_on_c, 4, 57, 127
1, 220960, Note_off_c, 3, 60, 64
1, 221088, Note_on_c, 2, 73, 125
1, 221089, Note_on_c, 4, 55, 127
1, 221103, Note_off_c, 2, 75, 64
1, 221103, Note_off_c, 4, 57, 64
1, 221236, Note_on_c, 4, 58, 127
1, 221250, Note_off_c, 4, 55, 64
1, 221376, Note_on_c, 2, 74, 125
1, 221377, Note_on_c, 3, 62, 127
1, 221391, Note_off_c, 4, 58, 64
1, 221400, Note_off_c, 2, 73, 64
1, 221520, Note_on_c, 4, 58, 127
1, 221533, Note_off_c, 3, 62, 64
1, 221667, Note_on_c, 4, 55, 127
1, 221683, Note_off_c, 4, 58, 64
1, 221692, Note_off_c, 2, 74, 64
1, 221743, Note_on_c, 2, 70, 126
1, 221817, Note_on_c, 2, 72, 125
1, 221817, Note_on_c, 4, 58, 127
1, 221825, Note_off_c, 2, 70, 64
1, 221829, Note_off_c, 4, 55, 64
1, 221883, Note_on_c, 2, 74, 125
1, 221892, Note_off_c, 2, 72, 64
1, 221946, Note_on_c, 2, 75, 125
1, 221947, Note_on_c, 3, 62, 127
1, 221954, Note_off_c, 2, 74, 64
1, 221958, Note_off_c, 4, 58, 64
1, 222011, Note_on_c, 2, 77, 125
1, 222018, Note_off_c, 2, 75, 64
1, 222070, Note_on_c, 1, 79, 122
1, 222071, Note_on_c, 4, 58, 127
1, 222078, Note_off_c, 2, 77, 64
1, 222082, Note_off_c, 3, 62, 64
1, 222134, Note_on_c, 1, 81, 122
1, 222142, Note_off_c, 1, 79, 64
1, 222198, Note_on_c, 4, 50, 127
1, 222198, Note_on_c, 1, 82, 122
1, 222208, Note_off_c, 1, 81, 64
1, 222212, Note_off_c, 4, 58, 64
1, 222302, Note_on_c, 2, 77, 125
1, 222314, Note_off_c, 1, 82, 64
1, 222337, Note_on_c, 4, 53, 127
1, 222337, Note_on_c, 1, 86, 122
1, 222351, Note_off_c, 4, 50, 64
1, 222380, Note_off_c, 2, 77, 64
1, 222444, Note_on_c, 1, 82, 122
1, 222456, Note_off_c, 1, 86, 64
1, 222483, Note_on_c, 1, 89, 124
1, 222483, Note_on_c, 4, 58, 127
1, 222497, Note_off_c, 4, 53, 64
1, 222526, Note_off_c, 1, 82, 64
1, 222616, Note_on_c, 4, 53, 127
1, 222632, Note_off_c, 4, 58, 64
1, 222739, Note_off_c, 1, 89, 64
1, 222755, Note_on_c, 1, 89, 124
1, 222755, Note_on_c, 4, 50, 127
1, 222767, Note_off_c, 4, 53, 64
1, 222816, Note_on_c, 1, 86, 122
1, 222824, Note_off_c, 1, 89, 64
1, 222883, Note_on_c, 1, 83, 122
1, 222884, Note_on_c, 4, 53, 127
1, 222892, Note_off_c, 1, 86, 64
1, 222896, Note_off_c, 4, 50, 64
1, 222953, Note_on_c, 1, 80, 122
1, 222963, Note_off_c, 1, 83, 64
1, 223024, Note_on_c, 2, 77, 125
1, 223025, Note_on_c, 4, 56, 127
1, 223033, Note_off_c, 1, 80, 64
1, 223037, Note_off_c, 4, 53, 64
1, 223092, Note_on_c, 2, 74, 125
1, 223100, Note_off_c, 2, 77, 64
1, 223152, Note_on_c, 4, 53, 127
1, 223152, Note_on_c, 2, 71, 126
1, 223161, Note_off_c, 2, 74, 64
1, 223164, Note_off_c, 4, 56, 64
1, 223216, Note_on_c, 2, 68, 124
1, 223224, Note_off_c, 2, 71, 64
1, 223276, Note_on_c, 2, 67, 124
1, 223276, Note_on_c, 4, 51, 127
1, 223284, Note_off_c, 2, 68, 64
1, 223288, Note_off_c, 4, 53, 64
1, 223363, Note_off_c, 2, 67, 64
1, 223409, Note_on_c, 1, 78, 112
1, 223410, Note_on_c, 4, 55, 127
1, 223424, Note_off_c, 4, 51, 64
1, 223550, Note_on_c, 3, 60, 127
1, 223562, Note_off_c, 4, 55, 64
1, 223598, Note_off_c, 1, 78, 64
1, 223602, Note_on_c, 1, 78, 112
1, 223620, Note_on_c, 2, 75, 117
1, 223623, Note_off_c, 1, 78, 64
1, 223652, Note_off_c, 2, 75, 64
1, 223653, Note_on_c, 2, 74, 117
1, 223686, Note_off_c, 2, 74, 64
1, 223686, Note_on_c, 2, 75, 117
1, 223700, Note_on_c, 1, 79, 114
1, 223701, Note_on_c, 4, 55, 127
1, 223715, Note_off_c, 3, 60, 64
1, 223720, Note_off_c, 2, 75, 64
1, 223820, Note_on_c, 4, 52, 127
1, 223834, Note_off_c, 4, 55, 64
1, 223893, Note_off_c, 1, 79, 64
1, 223899, Note_on_c, 1, 79, 114
1, 223932, Note_off_c, 1, 79, 64
1, 223935, Note_on_c, 1, 78, 112
1, 223949, Note_on_c, 4, 55, 127
1, 223962, Note_off_c, 4, 52, 64
1, 223963, Note_on_c, 2, 76, 118
1, 223967, Note_off_c, 1, 78, 64
1, 223986, Note_on_c, 1, 78, 112
1, 224000, Note_off_c, 2, 76, 64
1, 224019, Note_off_c, 1, 78, 64
1, 224021, Note_on_c, 1, 81, 114
1, 224088, Note_on_c, 3, 61, 127
1, 224103, Note_off_c, 4, 55, 64
1, 224219, Note_on_c, 4, 55, 127
1, 224234, Note_off_c, 3, 61, 64
1, 224268, Note_off_c, 1, 81, 64
1, 224290, Note_on_c, 1, 82, 114
1, 224348, Note_on_c, 1, 82, 122
1, 224348, Note_on_c, 4, 53, 127
1, 224365, Note_off_c, 4, 55, 64
1, 224491, Note_on_c, 1, 86, 122
1, 224492, Note_on_c, 4, 58, 127
1, 224501, Note_off_c, 4, 53, 64
1, 224555, Note_on_c, 1, 89, 124
1, 224565, Note_off_c, 1, 86, 64
1, 224626, Note_on_c, 2, 77, 125
1, 224627, Note_on_c, 3, 62, 127
1, 224634, Note_off_c, 1, 89, 64
1, 224640, Note_off_c, 4, 58, 64
1, 224694, Note_off_c, 1, 82, 64
1, 224694, Note_off_c, 1, 82, 64
1, 224763, Note_on_c, 4, 58, 127
1, 224778, Note_off_c, 3, 62, 64
1, 224884, Note_off_c, 2, 77, 64
1, 224902, Note_on_c, 2, 77, 121
1, 224902, Note_on_c, 4, 53, 127
1, 224914, Note_off_c, 4, 58, 64
1, 224974, Note_on_c, 1, 78, 116
1, 224983, Note_off_c, 2, 77, 64
1, 225031, Note_on_c, 1, 79, 118
1, 225032, Note_on_c, 4, 57, 127
1, 225040, Note_off_c, 1, 78, 64
1, 225044, Note_off_c, 4, 53, 64
1, 225112, Note_on_c, 2, 77, 121
1, 225120, Note_off_c, 1, 79, 64
1, 225162, Note_off_c, 2, 77, 64
1, 225168, Note_on_c, 2, 77, 121
1, 225168, Note_on_c, 3, 60, 127
1, 225180, Note_off_c, 4, 57, 64
1, 225234, Note_on_c, 2, 75, 121
1, 225243, Note_off_c, 2, 77, 64
1, 225299, Note_on_c, 2, 74, 121
1, 225300, Note_on_c, 4, 57, 127
1, 225308, Note_off_c, 2, 75, 64
1, 225313, Note_off_c, 3, 60, 64
1, 225365, Note_on_c, 2, 72, 121
1, 225375, Note_off_c, 2, 74, 64
1, 225435, Note_on_c, 2, 70, 126
1, 225435, Note_on_c, 4, 58, 127
1, 225443, Note_off_c, 2, 72, 64
1, 225449, Note_off_c, 4, 57, 64
1, 225503, Note_on_c, 3, 62, 127
1, 225531, Note_off_c, 4, 58, 64
1, 225568, Note_on_c, 3, 65, 126
1, 225600, Note_off_c, 3, 62, 64
1, 225637, Note_on_c, 3, 62, 127
1, 225670, Note_off_c, 3, 65, 64
1, 225704, Note_on_c, 3, 65, 126
1, 225735, Note_off_c, 3, 62, 64
1, 225768, Note_on_c, 3, 62, 127
1, 225798, Note_off_c, 3, 65, 64
1, 225835, Note_on_c, 3, 65, 126
1, 225865, Note_off_c, 3, 62, 64
1, 225900, Note_on_c, 3, 62, 127
1, 225931, Note_off_c, 3, 65, 64
1, 225944, Note_off_c, 2, 70, 64
1, 225965, Note_on_c, 2, 69, 125
1, 225966, Note_on_c, 4, 53, 127
1, 225966, Note_on_c, 3, 63, 127
1, 225976, Note_off_c, 3, 62, 64
1, 226033, Note_on_c, 2, 72, 121
1, 226043, Note_off_c, 2, 69, 64
1, 226103, Note_on_c, 1, 79, 114
1, 226110, Note_off_c, 2, 72, 64
1, 226170, Note_on_c, 2, 77, 117
1, 226179, Note_off_c, 1, 79, 64
1, 226235, Note_on_c, 1, 79, 114
1, 226245, Note_off_c, 2, 77, 64
1, 226298, Note_on_c, 2, 77, 117
1, 226308, Note_off_c, 1, 79, 64
1, 226365, Note_on_c, 1, 79, 114
1, 226374, Note_off_c, 2, 77, 64
1, 226430, Note_on_c, 2, 77, 117
1, 226440, Note_off_c, 1, 79, 64
1, 226493, Note_off_c, 2, 77, 64
1, 226500, Note_off_c, 3, 63, 64
1, 226500, Note_off_c, 4, 53, 64
1, 226500, Note_on_c, 4, 58, 127
1, 226500, Note_on_c, 2, 77, 117
1, 226569, Note_on_c, 3, 62, 127
1, 226600, Note_off_c, 4, 58, 64
1, 226638, Note_on_c, 3, 65, 126
1, 226668, Note_off_c, 3, 62, 64
1, 226703, Note_on_c, 3, 62, 127
1, 226735, Note_off_c, 3, 65, 64
1, 226774, Note_on_c, 1, 82, 118
1, 226775, Note_on_c, 3, 65, 126
1, 226798, Note_off_c, 2, 77, 64
1, 226806, Note_off_c, 3, 62, 64
1, 226842, Note_on_c, 3, 62, 127
1, 226872, Note_off_c, 3, 65, 64
1, 226906, Note_on_c, 3, 65, 126
1, 226936, Note_off_c, 3, 62, 64
1, 226971, Note_on_c, 3, 62, 127
1, 227001, Note_off_c, 3, 65, 64
1, 227038, Note_on_c, 2, 69, 125
1, 227039, Note_on_c, 4, 53, 127
1, 227039, Note_on_c, 3, 63, 127
1, 227046, Note_off_c, 3, 62, 64
1, 227060, Note_off_c, 1, 82, 64
1, 227106, Note_on_c, 2, 72, 121
1, 227113, Note_off_c, 2, 69, 64
1, 227173, Note_on_c, 1, 79, 114
1, 227183, Note_off_c, 2, 72, 64
1, 227239, Note_on_c, 2, 77, 117
1, 227246, Note_off_c, 1, 79, 64
1, 227306, Note_on_c, 1, 79, 114
1, 227315, Note_off_c, 2, 77, 64
1, 227371, Note_on_c, 2, 77, 117
1, 227379, Note_off_c, 1, 79, 64
1, 227433, Note_on_c, 1, 79, 114
1, 227440, Note_off_c, 2, 77, 64
1, 227490, Note_on_c, 2, 77, 117
1, 227498, Note_off_c, 1, 79, 64
1, 227542, Note_off_c, 2, 77, 64
1, 227550, Note_off_c, 3, 63, 64
1, 227550, Note_off_c, 4, 53, 64
1, 227550, Note_on_c, 2, 77, 123
1, 227551, Note_on_c, 4, 58, 127
1, 227611, Note_on_c, 3, 62, 127
1, 227640, Note_off_c, 4, 58, 64
1, 227673, Note_on_c, 3, 65, 126
1, 227703, Note_off_c, 3, 62, 64
1, 227738, Note_on_c, 3, 62, 127
1, 227771, Note_off_c, 3, 65, 64
1, 227807, Note_on_c, 2, 70, 126
1, 227808, Note_on_c, 3, 65, 126
1, 227828, Note_off_c, 2, 77, 64
1, 227839, Note_off_c, 3, 62, 64
1, 227873, Note_on_c, 3, 62, 127
1, 227904, Note_off_c, 3, 65, 64
1, 227939, Note_on_c, 3, 65, 126
1, 227969, Note_off_c, 3, 62, 64
1, 228008, Note_on_c, 3, 62, 127
1, 228038, Note_off_c, 3, 65, 64
1, 228056, Note_off_c, 2, 70, 64
1, 228077, Note_on_c, 3, 63, 127
1, 228077, Note_on_c, 2, 69, 125
1, 228078, Note_on_c, 4, 53, 127
1, 228085, Note_off_c, 3, 62, 64
1, 228145, Note_on_c, 2, 72, 121
1, 228155, Note_off_c, 2, 69, 64
1, 228212, Note_on_c, 1, 79, 114
1, 228222, Note_off_c, 2, 72, 64
1, 228276, Note_on_c, 2, 77, 117
1, 228286, Note_off_c, 1, 79, 64
1, 228342, Note_on_c, 1, 79, 114
1, 228349, Note_off_c, 2, 77, 64
1, 228405, Note_on_c, 2, 77, 117
1, 228415, Note_off_c, 1, 79, 64
1, 228467, Note_on_c, 1, 79, 114
1, 228474, Note_off_c, 2, 77, 64
1, 228526, Note_on_c, 2, 77, 117
1, 228536, Note_off_c, 1, 79, 64
1, 228589, Note_off_c, 2, 77, 64
1, 228593, Note_off_c, 4, 53, 64
1, 228594, Note_off_c, 3, 63, 64
1, 228594, Note_on_c, 2, 77, 125
1, 228595, Note_on_c, 4, 58, 127
1, 228595, Note_on_c, 3, 62, 127
1, 228662, Note_on_c, 2, 70, 126
1, 228726, Note_on_c, 1, 82, 122
1, 228739, Note_off_c, 2, 77, 64
1, 228778, Note_off_c, 1, 82, 64
1, 228793, Note_on_c, 1, 82, 122
1, 228847, Note_off_c, 1, 82, 64
1, 228864, Note_on_c, 1, 82, 122
1, 228935, Note_on_c, 2, 74, 125
1, 228958, Note_off_c, 2, 70, 64
1, 229001, Note_on_c, 1, 86, 122
1, 229014, Note_off_c, 1, 82, 64
1, 229052, Note_off_c, 1, 86, 64
1, 229070, Note_on_c, 1, 86, 122
1, 229123, Note_off_c, 1, 86, 64
1, 229139, Note_on_c, 1, 86, 122
1, 229206, Note_on_c, 2, 77, 125
1, 229226, Note_off_c, 2, 74, 64
1, 229269, Note_on_c, 1, 89, 124
1, 229282, Note_off_c, 1, 86, 64
1, 229318, Note_off_c, 1, 89, 64
1, 229334, Note_on_c, 1, 89, 124
1, 229383, Note_off_c, 1, 89, 64
1, 229399, Note_off_c, 2, 77, 64
1, 229400, Note_on_c, 2, 75, 125
1, 229400, Note_on_c, 1, 89, 124
1, 229401, Note_on_c, 3, 65, 122
1, 229401, Note_on_c, 2, 69, 125
1, 229449, Note_off_c, 1, 89, 64
1, 229464, Note_on_c, 1, 89, 124
1, 229516, Note_off_c, 1, 89, 64
1, 229532, Note_on_c, 1, 89, 124
1, 229585, Note_off_c, 1, 89, 64
1, 229601, Note_on_c, 1, 89, 124
1, 229668, Note_off_c, 2, 69, 64
1, 229668, Note_off_c, 3, 65, 64
1, 229669, Note_off_c, 2, 75, 64
1, 229669, Note_on_c, 1, 82, 122
1, 229670, Note_on_c, 2, 70, 126
1, 229670, Note_on_c, 2, 74, 125
1, 229750, Note_off_c, 1, 89, 64
1, 229934, Note_off_c, 2, 74, 64
1, 229934, Note_off_c, 2, 70, 64
1, 229935, Note_off_c, 1, 82, 64
1, 229935, Note_on_c, 1, 89, 124
1, 229936, Note_on_c, 2, 69, 125
1, 229936, Note_on_c, 2, 75, 125
1, 229937, Note_on_c, 3, 65, 122
1, 229981, Note_off_c, 1, 89, 64
1, 229996, Note_on_c, 1, 89, 124
1, 230044, Note_off_c, 1, 89, 64
1, 230060, Note_on_c, 1, 89, 124
1, 230113, Note_off_c, 1, 89, 64
1, 230129, Note_on_c, 1, 89, 124
1, 230197, Note_off_c, 2, 69, 64
1, 230197, Note_off_c, 3, 65, 64
1, 230198, Note_off_c, 2, 75, 64
1, 230198, Note_on_c, 1, 82, 122
1, 230199, Note_on_c, 2, 70, 126
1, 230199, Note_on_c, 2, 74, 125
1, 230279, Note_off_c, 1, 89, 64
1, 230464, Note_off_c, 2, 74, 64
1, 230464, Note_off_c, 2, 70, 64
1, 230465, Note_off_c, 1, 82, 64
1, 230465, Note_on_c, 1, 89, 124
1, 230466, Note_on_c, 2, 69, 125
1, 230466, Note_on_c, 2, 75, 125
1, 230467, Note_on_c, 3, 65, 122
1, 230517, Note_off_c, 1, 89, 64
1, 230532, Note_on_c, 1, 89, 124
1, 230582, Note_off_c, 1, 89, 64
1, 230597, Note_on_c, 1, 89, 124
1, 230647, Note_off_c, 1, 89, 64
1, 230663, Note_on_c, 1, 89, 124
1, 230726, Note_off_c, 2, 69, 64
1, 230726, Note_off_c, 3, 65, 64
1, 230727, Note_off_c, 2, 75, 64
1, 230727, Note_on_c, 1, 82, 122
1, 230728, Note_on_c, 2, 70, 126
1, 230728, Note_on_c, 2, 74, 125
1, 230809, Note_off_c, 1, 89, 64
1, 231004, Note_on_c, 4, 36, 127
1, 231004, Note_on_c, 4, 48, 127
1, 231281, Note_off_c, 3, 62, 64
1, 231281, Note_off_c, 4, 58, 64
1, 231282, Note_off_c, 2, 74, 64
1, 231282, Note_off_c, 2, 70, 64
1, 231283, Note_off_c, 1, 82, 64
1, 231283, Note_on_c, 4, 56, 127
1, 231284, Note_on_c, 4, 51, 127
1, 231284, Note_on_c, 4, 53, 127
1, 231581, Note_off_c, 4, 48, 64
1, 231581, Note_off_c, 4, 36, 64
1, 231582, Note_on_c, 4, 35, 127
1, 231582, Note_on_c, 4, 47, 127
1, 231875, Note_off_c, 4, 51, 64
1, 231876, Note_off_c, 4, 56, 64
1, 231876, Note_off_c, 4, 53, 64
1, 231890, Note_on_c, 4, 53, 127
1, 231890, Note_on_c, 4, 56, 127
1, 231891, Note_on_c, 4, 46, 127
1, 231891, Note_on_c, 4, 50, 127
1, 231892, Note_on_c, 4, 34, 127
1, 231915, Note_off_c, 4, 47, 64
1, 231915, Note_off_c, 4, 35, 64
1, 232169, Note_off_c, 4, 50, 64
1, 232170, Note_off_c, 4, 56, 64
1, 232170, Note_off_c, 4, 53, 64
1, 232171, Note_on_c, 4, 51, 127
1, 232252, Note_on_c, 4, 50, 127
1, 232267, Note_off_c, 4, 51, 64
1, 232331, Note_on_c, 4, 53, 127
1, 232344, Note_off_c, 4, 50, 64
1, 232394, Note_on_c, 4, 56, 127
1, 232405, Note_off_c, 4, 53, 64
1, 232455, Note_on_c, 3, 62, 127
1, 232469, Note_off_c, 4, 56, 64
1, 232526, Note_on_c, 3, 65, 122
1, 232544, Note_off_c, 3, 62, 64
1, 232599, Note_on_c, 2, 68, 124
1, 232615, Note_off_c, 3, 65, 64
1, 232668, Note_on_c, 2, 74, 125
1, 232684, Note_off_c, 2, 68, 64
1, 232752, Note_on_c, 2, 77, 125
1, 232792, Note_off_c, 2, 74, 64
1, 232856, Note_on_c, 1, 80, 122
1, 232963, Note_off_c, 2, 77, 64
1, 233309, Note_off_c, 1, 80, 64
1, 233321, Note_off_c, 4, 46, 64
1, 233321, Note_off_c, 4, 34, 64
1, 233322, Note_on_c, 2, 70, 106
1, 233322, Note_on_c, 4, 51, 127
1, 233468, Note_on_c, 4, 55, 127
1, 233484, Note_off_c, 4, 51, 64
1, 233618, Note_on_c, 4, 58, 127
1, 233633, Note_off_c, 4, 55, 64
1, 233683, Note_off_c, 2, 70, 64
1, 233684, Note_on_c, 2, 69, 125
1, 233726, Note_on_c, 2, 70, 126
1, 233734, Note_off_c, 2, 69, 64
1, 233763, Note_on_c, 2, 72, 125
1, 233763, Note_on_c, 4, 55, 127
1, 233768, Note_off_c, 2, 70, 64
1, 233779, Note_off_c, 4, 58, 64
1, 233808, Note_on_c, 2, 70, 126
1, 233814, Note_off_c, 2, 72, 64
1, 233843, Note_on_c, 2, 69, 125
1, 233850, Note_off_c, 2, 70, 64
1, 233881, Note_on_c, 2, 70, 126
1, 233889, Note_off_c, 2, 69, 64
1, 233918, Note_on_c, 4, 51, 127
1, 233918, Note_on_c, 2, 67, 124
1, 233924, Note_off_c, 2, 70, 64
1, 233932, Note_off_c, 4, 55, 64
1, 234057, Note_on_c, 4, 55, 127
1, 234072, Note_off_c, 4, 51, 64
1, 234185, Note_off_c, 2, 67, 64
1, 234203, Note_on_c, 2, 67, 124
1, 234204, Note_on_c, 4, 58, 127
1, 234217, Note_off_c, 4, 55, 64
1, 234346, Note_on_c, 4, 55, 127
1, 234361, Note_off_c, 4, 58, 64
1, 234477, Note_off_c, 2, 67, 64
1, 234494, Note_on_c, 3, 63, 127
1, 234494, Note_on_c, 2, 67, 124
1, 234495, Note_on_c, 4, 46, 127
1, 234508, Note_off_c, 4, 55, 64
1, 234639, Note_on_c, 4, 51, 127
1, 234654, Note_off_c, 4, 46, 64
1, 234783, Note_on_c, 4, 55, 127
1, 234796, Note_off_c, 4, 51, 64
1, 234890, Note_off_c, 3, 63, 64
1, 234891, Note_off_c, 2, 67, 64
1, 234897, Note_on_c, 3, 63, 127
1, 234920, Note_on_c, 3, 65, 122
1, 234921, Note_on_c, 4, 51, 127
1, 234935, Note_off_c, 4, 55, 64
1, 234935, Note_on_c, 3, 65, 122
1, 234943, Note_off_c, 3, 63, 64
1, 234968, Note_on_c, 2, 67, 124
1, 235008, Note_on_c, 2, 68, 124
1, 235018, Note_off_c, 2, 67, 64
1, 235062, Note_off_c, 3, 65, 64
1, 235062, Note_off_c, 3, 65, 64
1, 235081, Note_on_c, 3, 62, 127
1, 235082, Note_on_c, 4, 58, 127
1, 235082, Note_on_c, 4, 46, 127
1, 235092, Note_off_c, 4, 51, 64
1, 235100, Note_off_c, 2, 68, 64
1, 235219, Note_on_c, 4, 50, 127
1, 235234, Note_off_c, 4, 46, 64
1, 235367, Note_on_c, 4, 53, 127
1, 235382, Note_off_c, 4, 50, 64
1, 235440, Note_off_c, 3, 62, 64
1, 235440, Note_off_c, 4, 58, 64
1, 235440, Note_on_c, 2, 70, 126
1, 235504, Note_on_c, 2, 68, 124
1, 235504, Note_on_c, 4, 50, 127
1, 235516, Note_off_c, 4, 53, 64
1, 235524, Note_off_c, 2, 70, 64
1, 235566, Note_on_c, 3, 65, 122
1, 235587, Note_off_c, 2, 68, 64
1, 235632, Note_off_c, 4, 50, 64
1, 235632, Note_on_c, 3, 63, 127
1, 235632, Note_on_c, 3, 63, 127
1, 235632, Note_on_c, 4, 55, 127
1, 235633, Note_on_c, 4, 51, 127
1, 235642, Note_off_c, 3, 65, 64
1, 235779, Note_on_c, 4, 58, 127
1, 235908, Note_off_c, 4, 55, 64
1, 235924, Note_on_c, 4, 55, 127
1, 236054, Note_off_c, 4, 58, 64
1, 236070, Note_on_c, 4, 58, 127
1, 236196, Note_off_c, 4, 55, 64
1, 236204, Note_off_c, 4, 58, 64
1, 236214, Note_on_c, 4, 46, 127
1, 236214, Note_on_c, 3, 65, 122
1, 236214, Note_on_c, 4, 58, 127
1, 236259, Note_off_c, 4, 51, 64
1, 236351, Note_on_c, 4, 62, 127
1, 236461, Note_off_c, 3, 63, 64
1, 236461, Note_off_c, 3, 63, 64
1, 236468, Note_off_c, 4, 58, 64
1, 236482, Note_on_c, 4, 58, 127
1, 236600, Note_off_c, 4, 62, 64
1, 236629, Note_on_c, 4, 62, 127
1, 236760, Note_off_c, 4, 58, 64
1, 236773, Note_off_c, 4, 46, 64
1, 236774, Note_off_c, 3, 65, 64
1, 236774, Note_on_c, 2, 67, 124
1, 236775, Note_on_c, 4, 39, 127
1, 236775, Note_on_c, 3, 63, 127
1, 236775, Note_on_c, 3, 63, 127
1, 236791, Note_off_c, 4, 62, 64
1, 236866, Note_off_c, 2, 67, 64
1, 236871, Note_on_c, 2, 68, 124
1, 236904, Note_off_c, 2, 68, 64
1, 236912, Note_on_c, 2, 67, 124
1, 236939, Note_off_c, 2, 67, 64
1, 236939, Note_on_c, 3, 65, 122
1, 236965, Note_off_c, 3, 65, 64
1, 236967, Note_on_c, 2, 67, 124
1, 236996, Note_off_c, 2, 67, 64
1, 237004, Note_on_c, 2, 68, 124
1, 237075, Note_on_c, 2, 70, 126
1, 237083, Note_off_c, 2, 68, 64
1, 237146, Note_on_c, 2, 72, 125
1, 237154, Note_off_c, 2, 70, 64
1, 237205, Note_on_c, 2, 74, 125
1, 237213, Note_off_c, 2, 72, 64
1, 237261, Note_on_c, 2, 75, 125
1, 237273, Note_off_c, 2, 74, 64
1, 237333, Note_on_c, 2, 70, 126
1, 237339, Note_off_c, 2, 75, 64
1, 237516, Note_off_c, 3, 63, 64
1, 237516, Note_off_c, 3, 63, 64
1, 237610, Note_on_c, 1, 79, 122
1, 237610, Note_on_c, 2, 75, 125
1, 237634, Note_off_c, 2, 70, 64
1, 237751, Note_on_c, 2, 77, 125
1, 237752, Note_on_c, 2, 74, 125
1, 237765, Note_off_c, 2, 75, 64
1, 237766, Note_off_c, 1, 79, 64
1, 237887, Note_on_c, 2, 75, 125
1, 237888, Note_on_c, 2, 72, 125
1, 237900, Note_off_c, 2, 77, 64
1, 237900, Note_off_c, 2, 74, 64
1, 238020, Note_on_c, 2, 70, 126
1, 238020, Note_on_c, 2, 74, 125
1, 238032, Note_off_c, 2, 72, 64
1, 238032, Note_off_c, 2, 75, 64
1, 238160, Note_off_c, 4, 39, 64
1, 238161, Note_on_c, 4, 38, 127
1, 238161, Note_on_c, 4, 50, 127
1, 238230, Note_on_c, 2, 68, 124
1, 238230, Note_on_c, 2, 72, 125
1, 238252, Note_off_c, 2, 70, 64
1, 238253, Note_off_c, 2, 74, 64
1, 238302, Note_on_c, 4, 39, 127
1, 238302, Note_on_c, 4, 51, 127
1, 238326, Note_off_c, 4, 50, 64
1, 238326, Note_off_c, 4, 38, 64
1, 238369, Note_on_c, 2, 70, 126
1, 238369, Note_on_c, 2, 67, 124
1, 238392, Note_off_c, 2, 72, 64
1, 238392, Note_off_c, 2, 68, 64
1, 238437, Note_on_c, 4, 41, 127
1, 238437, Note_on_c, 4, 53, 127
1, 238461, Note_off_c, 4, 51, 64
1, 238461, Note_off_c, 4, 39, 64
1, 238510, Note_on_c, 3, 65, 122
1, 238510, Note_on_c, 2, 68, 124
1, 238534, Note_off_c, 2, 67, 64
1, 238534, Note_off_c, 2, 70, 64
1, 238579, Note_on_c, 4, 55, 127
1, 238579, Note_on_c, 4, 43, 127
1, 238601, Note_off_c, 4, 53, 64
1, 238601, Note_off_c, 4, 41, 64
1, 238644, Note_on_c, 3, 63, 127
1, 238644, Note_on_c, 2, 67, 124
1, 238666, Note_off_c, 3, 65, 64
1, 238667, Note_off_c, 2, 68, 64
1, 238717, Note_on_c, 4, 44, 127
1, 238717, Note_on_c, 4, 56, 127
1, 238745, Note_off_c, 4, 43, 64
1, 238745, Note_off_c, 4, 55, 64
1, 238794, Note_on_c, 3, 60, 127
1, 238794, Note_on_c, 2, 72, 125
1, 238818, Note_off_c, 2, 67, 64
1, 238818, Note_off_c, 3, 63, 64
1, 238867, Note_on_c, 4, 43, 127
1, 238867, Note_on_c, 4, 53, 127
1, 238893, Note_off_c, 4, 56, 64
1, 238893, Note_off_c, 4, 44, 64
1, 238940, Note_on_c, 2, 68, 124
1, 238940, Note_on_c, 3, 65, 122
1, 238964, Note_off_c, 2, 72, 64
1, 238964, Note_off_c, 3, 60, 64
1, 239013, Note_on_c, 3, 63, 127
1, 239013, Note_on_c, 2, 67, 124
1, 239014, Note_on_c, 4, 57, 127
1, 239025, Note_off_c, 3, 65, 64
1, 239025, Note_off_c, 2, 68, 64
1, 239041, Note_off_c, 4, 53, 64
1, 239156, Note_on_c, 4, 58, 127
1, 239167, Note_off_c, 4, 57, 64
1, 239294, Note_on_c, 4, 55, 127
1, 239307, Note_off_c, 4, 58, 64
1, 239415, Note_off_c, 4, 43, 64
1, 239426, Note_on_c, 4, 51, 127
1, 239440, Note_off_c, 4, 55, 64
1, 239555, Note_off_c, 3, 63, 64
1, 239556, Note_off_c, 2, 67, 64
1, 239556, Note_on_c, 3, 65, 122
1, 239556, Note_on_c, 3, 62, 127
1, 239557, Note_on_c, 4, 46, 127
1, 239568, Note_off_c, 4, 51, 64
1, 239709, Note_on_c, 2, 67, 124
1, 239722, Note_off_c, 3, 62, 64
1, 239723, Note_off_c, 3, 65, 64
1, 239847, Note_on_c, 2, 68, 124
1, 239860, Note_off_c, 2, 67, 64
1, 239976, Note_on_c, 2, 69, 125
1, 239991, Note_off_c, 2, 68, 64
1, 240120, Note_off_c, 4, 46, 64
1, 240120, Note_on_c, 4, 51, 127
1, 240120, Note_on_c, 2, 70, 126
1, 240134, Note_off_c, 2, 69, 64
1, 240259, Note_on_c, 4, 55, 127
1, 240282, Note_off_c, 4, 51, 64
1, 240397, Note_on_c, 4, 58, 127
1, 240420, Note_off_c, 4, 55, 64
1, 240420, Note_off_c, 2, 70, 64
1, 240468, Note_on_c, 2, 74, 125
1, 240531, Note_on_c, 2, 75, 125
1, 240532, Note_on_c, 4, 55, 127
1, 240540, Note_off_c, 2, 74, 64
1, 240552, Note_off_c, 4, 58, 64
1, 240594, Note_on_c, 2, 70, 126
1, 240603, Note_off_c, 2, 75, 64
1, 240657, Note_on_c, 2, 67, 124
1, 240658, Note_on_c, 4, 51, 127
1, 240668, Note_off_c, 2, 70, 64
1, 240681, Note_off_c, 4, 55, 64
1, 240789, Note_off_c, 2, 67, 64
1, 240799, Note_on_c, 4, 55, 127
1, 240799, Note_on_c, 2, 67, 124
1, 240823, Note_off_c, 4, 51, 64
1, 240932, Note_off_c, 2, 67, 64
1, 240942, Note_on_c, 4, 58, 127
1, 240942, Note_on_c, 2, 67, 124
1, 240966, Note_off_c, 4, 55, 64
1, 241073, Note_off_c, 2, 67, 64
1, 241083, Note_on_c, 4, 55, 127
1, 241083, Note_on_c, 2, 67, 124
1, 241105, Note_off_c, 4, 58, 64
1, 241218, Note_off_c, 2, 67, 64
1, 241228, Note_on_c, 3, 63, 127
1, 241228, Note_on_c, 2, 67, 124
1, 241229, Note_on_c, 4, 46, 127
1, 241252, Note_off_c, 4, 55, 64
1, 241371, Note_on_c, 4, 51, 127
1, 241392, Note_off_c, 4, 46, 64
1, 241505, Note_on_c, 4, 55, 127
1, 241528, Note_off_c, 4, 51, 64
1, 241647, Note_on_c, 4, 51, 127
1, 241674, Note_off_c, 4, 55, 64
1, 241722, Note_off_c, 2, 67, 64
1, 241723, Note_on_c, 2, 68, 124
1, 241788, Note_off_c, 3, 63, 64
1, 241789, Note_on_c, 3, 62, 127
1, 241789, Note_on_c, 3, 65, 122
1, 241790, Note_on_c, 4, 46, 127
1, 241798, Note_off_c, 2, 68, 64
1, 241812, Note_off_c, 4, 51, 64
1, 241927, Note_on_c, 4, 50, 127
1, 241950, Note_off_c, 4, 46, 64
1, 242059, Note_on_c, 4, 53, 127
1, 242080, Note_off_c, 4, 50, 64
1, 242124, Note_off_c, 3, 62, 64
1, 242125, Note_off_c, 3, 65, 64
1, 242125, Note_on_c, 4, 58, 127
1, 242133, Note_off_c, 4, 53, 64
1, 242193, Note_on_c, 3, 60, 127
1, 242193, Note_on_c, 4, 46, 127
1, 242201, Note_off_c, 4, 58, 64
1, 242245, Note_on_c, 3, 62, 127
1, 242268, Note_off_c, 3, 60, 64
1, 242324, Note_on_c, 3, 63, 127
1, 242325, Note_on_c, 4, 51, 127
1, 242333, Note_off_c, 3, 62, 64
1, 242339, Note_off_c, 4, 46, 64
1, 242461, Note_on_c, 4, 58, 127
1, 242602, Note_on_c, 4, 55, 127
1, 242724, Note_off_c, 4, 58, 64
1, 242740, Note_on_c, 4, 58, 127
1, 242861, Note_off_c, 3, 63, 64
1, 242865, Note_off_c, 4, 55, 64
1, 242878, Note_off_c, 4, 51, 64
1, 242879, Note_on_c, 4, 46, 127
1, 242879, Note_on_c, 3, 65, 122
1, 242996, Note_off_c, 4, 58, 64
1, 243015, Note_on_c, 4, 58, 127
1, 243134, Note_off_c, 3, 65, 64
1, 243156, Note_on_c, 3, 62, 127
1, 243273, Note_off_c, 4, 58, 64
1, 243292, Note_on_c, 4, 58, 127
1, 243403, Note_off_c, 3, 62, 64
1, 243425, Note_off_c, 4, 46, 64
1, 243425, Note_on_c, 2, 67, 124
1, 243426, Note_on_c, 4, 39, 127
1, 243426, Note_on_c, 3, 63, 127
1, 243446, Note_off_c, 4, 58, 64
1, 243653, Note_off_c, 3, 63, 64
1, 243654, Note_off_c, 2, 67, 64
1, 243654, Note_on_c, 2, 68, 124
1, 243712, Note_on_c, 2, 70, 126
1, 243718, Note_off_c, 2, 68, 64
1, 243766, Note_on_c, 2, 72, 125
1, 243773, Note_off_c, 2, 70, 64
1, 243827, Note_on_c, 2, 74, 125
1, 243835, Note_off_c, 2, 72, 64
1, 243887, Note_on_c, 2, 75, 125
1, 243894, Note_off_c, 2, 74, 64
1, 243950, Note_on_c, 2, 70, 126
1, 243960, Note_off_c, 2, 75, 64
1, 244207, Note_off_c, 2, 70, 64
1, 244208, Note_on_c, 2, 75, 125
1, 244273, Note_on_c, 2, 74, 125
1, 244281, Note_off_c, 2, 75, 64
1, 244327, Note_on_c, 2, 73, 125
1, 244335, Note_off_c, 2, 74, 64
1, 244389, Note_on_c, 2, 72, 125
1, 244396, Note_off_c, 2, 73, 64
1, 244452, Note_on_c, 2, 71, 126
1, 244462, Note_off_c, 2, 72, 64
1, 244590, Note_on_c, 3, 63, 127
1, 244594, Note_on_c, 4, 55, 127
1, 244727, Note_off_c, 2, 71, 64
1, 244727, Note_on_c, 2, 75, 125
1, 244787, Note_on_c, 2, 74, 125
1, 244793, Note_off_c, 2, 75, 64
1, 244839, Note_on_c, 2, 73, 125
1, 244847, Note_off_c, 2, 74, 64
1, 244895, Note_on_c, 2, 72, 125
1, 244900, Note_off_c, 2, 73, 64
1, 244948, Note_on_c, 2, 71, 126
1, 244958, Note_off_c, 2, 72, 64
1, 245056, Note_off_c, 3, 63, 64
1, 245060, Note_off_c, 4, 55, 64
1, 245075, Note_on_c, 3, 63, 127
1, 245076, Note_on_c, 4, 55, 127
1, 245210, Note_on_c, 2, 75, 125
1, 245232, Note_off_c, 2, 71, 64
1, 245280, Note_on_c, 2, 74, 125
1, 245285, Note_off_c, 2, 75, 64
1, 245331, Note_on_c, 2, 73, 125
1, 245339, Note_off_c, 2, 74, 64
1, 245389, Note_on_c, 2, 72, 125
1, 245397, Note_off_c, 2, 73, 64
1, 245433, Note_off_c, 4, 55, 64
1, 245434, Note_off_c, 3, 63, 64
1, 245453, Note_on_c, 2, 71, 126
1, 245455, Note_on_c, 3, 63, 127
1, 245456, Note_on_c, 4, 55, 127
1, 245456, Note_on_c, 3, 61, 127
1, 245462, Note_off_c, 2, 72, 64
1, 245930, Note_off_c, 2, 71, 64
1, 245930, Note_on_c, 2, 72, 125
1, 245932, Note_off_c, 4, 55, 64
1, 245933, Note_off_c, 3, 63, 64
1, 245933, Note_off_c, 3, 61, 64
1, 245934, Note_on_c, 4, 56, 127
1, 245934, Note_on_c, 3, 60, 127
1, 246213, Note_on_c, 3, 65, 122
1, 246236, Note_off_c, 2, 72, 64
1, 246282, Note_on_c, 2, 67, 124
1, 246290, Note_off_c, 3, 65, 64
1, 246342, Note_on_c, 2, 68, 124
1, 246349, Note_off_c, 2, 67, 64
1, 246401, Note_on_c, 2, 69, 125
1, 246410, Note_off_c, 2, 68, 64
1, 246464, Note_on_c, 2, 70, 126
1, 246473, Note_off_c, 2, 69, 64
1, 246692, Note_off_c, 4, 39, 64
1, 246711, Note_on_c, 4, 51, 127
1, 246712, Note_on_c, 4, 43, 127
1, 246714, Note_off_c, 4, 56, 64
1, 246715, Note_off_c, 3, 60, 64
1, 246782, Note_off_c, 2, 70, 64
1, 246783, Note_on_c, 2, 74, 125
1, 246837, Note_on_c, 2, 72, 125
1, 246852, Note_off_c, 2, 74, 64
1, 246883, Note_on_c, 2, 75, 125
1, 246897, Note_off_c, 2, 72, 64
1, 246927, Note_on_c, 2, 74, 125
1, 246939, Note_off_c, 2, 75, 64
1, 246966, Note_on_c, 2, 77, 125
1, 246977, Note_off_c, 2, 74, 64
1, 247002, Note_on_c, 2, 75, 125
1, 247014, Note_off_c, 2, 77, 64
1, 247037, Note_on_c, 4, 58, 127
1, 247037, Note_on_c, 3, 63, 127
1, 247038, Note_on_c, 4, 46, 127
1, 247038, Note_on_c, 4, 55, 127
1, 247060, Note_off_c, 4, 51, 64
1, 247060, Note_off_c, 4, 43, 64
1, 247076, Note_off_c, 2, 75, 64
1, 247279, Note_on_c, 4, 56, 127
1, 247299, Note_off_c, 3, 63, 64
1, 247299, Note_off_c, 4, 58, 64
1, 247299, Note_off_c, 4, 55, 64
1, 247405, Note_on_c, 2, 67, 124
1, 247406, Note_on_c, 3, 62, 127
1, 247520, Note_on_c, 3, 65, 122
1, 247543, Note_off_c, 2, 67, 64
1, 247614, Note_off_c, 4, 46, 64
1, 247615, Note_on_c, 4, 51, 127
1, 247615, Note_on_c, 4, 55, 127
1, 247615, Note_on_c, 3, 63, 127
1, 247623, Note_off_c, 3, 65, 64
1, 247637, Note_off_c, 4, 56, 64
1, 247637, Note_off_c, 3, 62, 64
1, 247870, Note_off_c, 4, 51, 64
1, 247871, Note_off_c, 3, 63, 64
1, 247871, Note_off_c, 4, 55, 64
1, 247891, Note_on_c, 4, 55, 127
1, 247891, Note_on_c, 3, 63, 127
1, 247892, Note_on_c, 4, 51, 127
1, 248454, Note_off_c, 4, 51, 64
1, 248455, Note_off_c, 3, 63, 64
1, 248455, Note_off_c, 4, 55, 64
1, 248465, Note_on_c, 4, 51, 127
1, 248465, Note_on_c, 3, 60, 127
1, 248466, Note_on_c, 4, 32, 127
1, 248604, Note_on_c, 4, 44, 127
1, 248733, Note_off_c, 4, 44, 64
1, 248742, Note_on_c, 4, 44, 127
1, 248873, Note_off_c, 4, 44, 64
1, 248880, Note_on_c, 4, 44, 127
1, 249010, Note_off_c, 4, 44, 64
1, 249020, Note_off_c, 3, 60, 64
1, 249020, Note_off_c, 4, 51, 64
1, 249021, Note_on_c, 4, 49, 127
1, 249021, Note_on_c, 3, 58, 127
1, 249022, Note_on_c, 4, 44, 127
1, 249148, Note_off_c, 4, 44, 64
1, 249158, Note_on_c, 4, 44, 127
1, 249287, Note_off_c, 4, 44, 64
1, 249296, Note_on_c, 4, 44, 127
1, 249419, Note_off_c, 4, 44, 64
1, 249427, Note_on_c, 4, 44, 127
1, 249547, Note_off_c, 4, 44, 64
1, 249556, Note_off_c, 4, 49, 64
1, 249557, Note_off_c, 3, 58, 64
1, 249557, Note_on_c, 3, 63, 127
1, 249558, Note_on_c, 4, 48, 127
1, 249558, Note_on_c, 3, 56, 127
1, 249559, Note_on_c, 4, 44, 127
1, 249684, Note_off_c, 4, 44, 64
1, 249694, Note_on_c, 4, 44, 127
1, 249822, Note_off_c, 4, 44, 64
1, 249832, Note_on_c, 4, 44, 127
1, 249960, Note_off_c, 4, 44, 64
1, 249970, Note_on_c, 4, 44, 127
1, 250101, Note_off_c, 4, 44, 64
1, 250109, Note_off_c, 3, 63, 64
1, 250109, Note_off_c, 3, 56, 64
1, 250109, Note_off_c, 4, 48, 64
1, 250110, Note_off_c, 4, 32, 64
1, 250110, Note_on_c, 3, 55, 127
1, 250111, Note_on_c, 4, 46, 127
1, 250111, Note_on_c, 4, 39, 127
1, 250179, Note_on_c, 2, 65, 127
1, 250230, Note_off_c, 4, 39, 64
1, 250240, Note_on_c, 2, 63, 127
1, 250241, Note_on_c, 4, 39, 127
1, 250248, Note_off_c, 2, 65, 64
1, 250310, Note_on_c, 2, 65, 127
1, 250318, Note_off_c, 2, 63, 64
1, 250364, Note_off_c, 4, 39, 64
1, 250371, Note_on_c, 2, 61, 127
1, 250372, Note_on_c, 4, 39, 127
1, 250382, Note_off_c, 2, 65, 64
1, 250438, Note_on_c, 2, 63, 127
1, 250447, Note_off_c, 2, 61, 64
1, 250489, Note_off_c, 4, 39, 64
1, 250498, Note_on_c, 4, 39, 127
1, 250498, Note_on_c, 2, 61, 127
1, 250506, Note_off_c, 2, 63, 64
1, 250560, Note_on_c, 2, 63, 127
1, 250567, Note_off_c, 2, 61, 64
1, 250609, Note_off_c, 4, 39, 64
1, 250617, Note_off_c, 3, 55, 64
1, 250620, Note_off_c, 4, 46, 64
1, 250620, Note_on_c, 2, 60, 127
1, 250621, Note_on_c, 4, 32, 127
1, 250621, Note_on_c, 4, 51, 127
1, 250629, Note_off_c, 2, 63, 64
1, 250756, Note_on_c, 4, 44, 127
1, 250881, Note_off_c, 4, 44, 64
1, 250888, Note_on_c, 4, 44, 127
1, 251013, Note_off_c, 4, 44, 64
1, 251023, Note_on_c, 4, 44, 127
1, 251146, Note_off_c, 4, 44, 64
1, 251155, Note_off_c, 4, 51, 64
1, 251156, Note_off_c, 2, 60, 64
1, 251156, Note_on_c, 3, 58, 127
1, 251157, Note_on_c, 4, 49, 127
1, 251157, Note_on_c, 4, 44, 127
1, 251280, Note_off_c, 4, 44, 64
1, 251288, Note_on_c, 4, 44, 127
1, 251413, Note_off_c, 4, 44, 64
1, 251421, Note_on_c, 4, 44, 127
1, 251544, Note_off_c, 4, 44, 64
1, 251552, Note_on_c, 4, 44, 127
1, 251673, Note_off_c, 4, 44, 64
1, 251680, Note_off_c, 4, 49, 64
1, 251681, Note_off_c, 3, 58, 64
1, 251681, Note_on_c, 2, 63, 127
1, 251682, Note_on_c, 4, 48, 127
1, 251682, Note_on_c, 3, 56, 127
1, 251683, Note_on_c, 4, 44, 127
1, 251800, Note_off_c, 4, 44, 64
1, 251810, Note_on_c, 4, 44, 127
1, 251939, Note_off_c, 4, 44, 64
1, 251948, Note_on_c, 4, 44, 127
1, 252077, Note_off_c, 4, 44, 64
1, 252087, Note_on_c, 4, 44, 127
1, 252215, Note_off_c, 4, 44, 64
1, 252225, Note_off_c, 3, 56, 64
1, 252225, Note_off_c, 4, 48, 64
1, 252226, Note_off_c, 2, 63, 64
1, 252226, Note_off_c, 4, 32, 64
1, 252227, Note_on_c, 4, 46, 127
1, 252227, Note_on_c, 3, 55, 127
1, 252228, Note_on_c, 4, 39, 127
1, 252293, Note_on_c, 2, 65, 127
1, 252348, Note_off_c, 4, 39, 64
1, 252358, Note_on_c, 2, 63, 127
1, 252359, Note_on_c, 4, 39, 127
1, 252367, Note_off_c, 2, 65, 64
1, 252426, Note_on_c, 2, 65, 127
1, 252436, Note_off_c, 2, 63, 64
1, 252480, Note_off_c, 4, 39, 64
1, 252490, Note_on_c, 2, 61, 127
1, 252490, Note_on_c, 4, 39, 127
1, 252498, Note_off_c, 2, 65, 64
1, 252554, Note_on_c, 2, 63, 127
1, 252562, Note_off_c, 2, 61, 64
1, 252606, Note_off_c, 4, 39, 64
1, 252613, Note_on_c, 2, 61, 127
1, 252614, Note_on_c, 4, 39, 127
1, 252622, Note_off_c, 2, 63, 64
1, 252680, Note_on_c, 2, 63, 127
1, 252689, Note_off_c, 2, 61, 64
1, 252735, Note_off_c, 4, 39, 64
1, 252744, Note_off_c, 3, 55, 64
1, 252744, Note_off_c, 4, 46, 64
1, 252744, Note_on_c, 3, 56, 127
1, 252745, Note_on_c, 4, 44, 127
1, 252753, Note_off_c, 2, 63, 64
1, 252872, Note_off_c, 3, 56, 64
1, 252882, Note_on_c, 3, 56, 127
1, 253012, Note_off_c, 3, 56, 64
1, 253020, Note_on_c, 2, 68, 127
1, 253023, Note_on_c, 3, 60, 127
1, 253024, Note_on_c, 3, 56, 127
1, 253152, Note_off_c, 3, 56, 64
1, 253161, Note_on_c, 3, 56, 127
1, 253290, Note_off_c, 3, 56, 64
1, 253299, Note_on_c, 3, 56, 127
1, 253426, Note_off_c, 3, 56, 64
1, 253434, Note_on_c, 3, 56, 127
1, 253559, Note_off_c, 3, 56, 64
1, 253566, Note_off_c, 2, 68, 64
1, 253567, Note_off_c, 3, 60, 64
1, 253567, Note_on_c, 2, 67, 127
1, 253568, Note_on_c, 3, 56, 127
1, 253568, Note_on_c, 3, 63, 127
1, 253687, Note_off_c, 3, 56, 64
1, 253697, Note_on_c, 3, 56, 127
1, 253799, Note_off_c, 2, 67, 64
1, 253800, Note_off_c, 3, 63, 64
1, 253812, Note_off_c, 3, 56, 64
1, 253818, Note_on_c, 2, 67, 127
1, 253820, Note_on_c, 3, 56, 127
1, 253820, Note_on_c, 3, 63, 127
1, 253951, Note_on_c, 3, 65, 125
1, 253952, Note_on_c, 3, 61, 127
1, 253963, Note_off_c, 2, 67, 64
1, 253965, Note_off_c, 3, 63, 64
1, 254095, Note_on_c, 3, 63, 127
1, 254097, Note_on_c, 3, 60, 127
1, 254109, Note_off_c, 3, 65, 64
1, 254112, Note_off_c, 3, 61, 64
1, 254370, Note_on_c, 2, 74, 125
1, 254504, Note_on_c, 2, 75, 125
1, 254516, Note_off_c, 2, 74, 64
1, 254625, Note_on_c, 2, 77, 125
1, 254639, Note_off_c, 2, 75, 64
1, 254752, Note_on_c, 2, 75, 125
1, 254763, Note_off_c, 2, 77, 64
1, 254869, Note_off_c, 2, 75, 64
1, 254877, Note_off_c, 3, 56, 64
1, 254879, Note_on_c, 2, 75, 125
1, 254881, Note_on_c, 4, 51, 127
1, 254906, Note_off_c, 3, 63, 64
1, 254908, Note_off_c, 3, 60, 64
1, 254928, Note_off_c, 4, 44, 64
1, 255020, Note_on_c, 2, 67, 124
1, 255021, Note_on_c, 4, 58, 127
1, 255046, Note_off_c, 4, 51, 64
1, 255136, Note_off_c, 2, 67, 64
1, 255144, Note_on_c, 2, 67, 124
1, 255144, Note_on_c, 3, 61, 127
1, 255166, Note_off_c, 4, 58, 64
1, 255167, Note_off_c, 2, 75, 64
1, 255277, Note_on_c, 4, 58, 127
1, 255302, Note_off_c, 3, 61, 64
1, 255390, Note_off_c, 2, 67, 64
1, 255412, Note_on_c, 2, 67, 124
1, 255412, Note_on_c, 4, 51, 127
1, 255434, Note_off_c, 4, 58, 64
1, 255534, Note_off_c, 2, 67, 64
1, 255544, Note_on_c, 2, 67, 124
1, 255545, Note_on_c, 4, 58, 127
1, 255564, Note_off_c, 4, 51, 64
1, 255674, Note_on_c, 2, 68, 124
1, 255674, Note_on_c, 3, 61, 127
1, 255684, Note_off_c, 2, 67, 64
1, 255692, Note_off_c, 4, 58, 64
1, 255804, Note_on_c, 4, 58, 127
1, 255804, Note_on_c, 2, 70, 126
1, 255816, Note_off_c, 2, 68, 64
1, 255826, Note_off_c, 3, 61, 64
1, 255924, Note_off_c, 2, 70, 64
1, 255924, Note_off_c, 4, 58, 64
1, 255932, Note_on_c, 2, 70, 126
1, 255933, Note_on_c, 4, 58, 127
1, 256066, Note_on_c, 4, 51, 127
1, 256087, Note_off_c, 4, 58, 64
1, 256107, Note_off_c, 2, 70, 64
1, 256130, Note_on_c, 2, 72, 125
1, 256209, Note_on_c, 4, 56, 127
1, 256209, Note_on_c, 2, 68, 124
1, 256217, Note_off_c, 2, 72, 64
1, 256229, Note_off_c, 4, 51, 64
1, 256332, Note_on_c, 3, 60, 127
1, 256352, Note_off_c, 4, 56, 64
1, 256434, Note_off_c, 2, 68, 64
1, 256453, Note_on_c, 2, 74, 125
1, 256454, Note_on_c, 4, 56, 127
1, 256476, Note_off_c, 3, 60, 64
1, 256529, Note_on_c, 2, 75, 125
1, 256535, Note_off_c, 2, 74, 64
1, 256595, Note_on_c, 2, 74, 125
1, 256595, Note_on_c, 4, 51, 127
1, 256603, Note_off_c, 2, 75, 64
1, 256613, Note_off_c, 4, 56, 64
1, 256659, Note_on_c, 2, 75, 125
1, 256668, Note_off_c, 2, 74, 64
1, 256716, Note_on_c, 2, 74, 125
1, 256717, Note_on_c, 4, 56, 127
1, 256723, Note_off_c, 2, 75, 64
1, 256735, Note_off_c, 4, 51, 64
1, 256779, Note_on_c, 2, 75, 125
1, 256787, Note_off_c, 2, 74, 64
1, 256836, Note_on_c, 2, 77, 125
1, 256837, Note_on_c, 3, 60, 127
1, 256843, Note_off_c, 2, 75, 64
1, 256855, Note_off_c, 4, 56, 64
1, 256895, Note_on_c, 2, 75, 125
1, 256903, Note_off_c, 2, 77, 64
1, 256957, Note_off_c, 2, 75, 64
1, 256959, Note_on_c, 4, 56, 127
1, 256962, Note_on_c, 2, 75, 125
1, 256988, Note_off_c, 3, 60, 64
1, 257097, Note_on_c, 2, 70, 126
1, 257102, Note_on_c, 4, 51, 127
1, 257118, Note_off_c, 2, 75, 64
1, 257124, Note_off_c, 4, 56, 64
1, 257222, Note_off_c, 2, 70, 64
1, 257228, Note_on_c, 2, 70, 126
1, 257234, Note_on_c, 4, 55, 127
1, 257256, Note_off_c, 4, 51, 64
1, 257368, Note_on_c, 4, 58, 127
1, 257391, Note_off_c, 4, 55, 64
1, 257475, Note_off_c, 2, 70, 64
1, 257496, Note_on_c, 2, 70, 126
1, 257503, Note_on_c, 4, 55, 127
1, 257524, Note_off_c, 4, 58, 64
1, 257616, Note_off_c, 2, 70, 64
1, 257624, Note_on_c, 2, 70, 126
1, 257630, Note_on_c, 4, 51, 127
1, 257650, Note_off_c, 4, 55, 64
1, 257761, Note_on_c, 2, 72, 125
1, 257764, Note_on_c, 4, 55, 127
1, 257769, Note_off_c, 2, 70, 64
1, 257784, Note_off_c, 4, 51, 64
1, 257897, Note_on_c, 4, 58, 127
1, 257897, Note_on_c, 2, 73, 125
1, 257907, Note_off_c, 2, 72, 64
1, 257919, Note_off_c, 4, 55, 64
1, 258024, Note_on_c, 2, 71, 126
1, 258025, Note_on_c, 4, 55, 127
1, 258036, Note_off_c, 2, 73, 64
1, 258047, Note_off_c, 4, 58, 64
1, 258160, Note_on_c, 4, 56, 127
1, 258181, Note_off_c, 4, 55, 64
1, 258285, Note_off_c, 2, 71, 64
1, 258287, Note_on_c, 2, 72, 125
1, 258288, Note_on_c, 3, 60, 127
1, 258307, Note_off_c, 4, 56, 64
1, 258410, Note_on_c, 4, 56, 127
1, 258432, Note_off_c, 3, 60, 64
1, 258543, Note_off_c, 2, 72, 64
1, 258543, Note_on_c, 2, 71, 126
1, 258544, Note_on_c, 4, 51, 127
1, 258571, Note_off_c, 4, 56, 64
1, 258624, Note_on_c, 2, 72, 125
1, 258636, Note_off_c, 2, 71, 64
1, 258686, Note_on_c, 2, 71, 126
1, 258697, Note_off_c, 2, 72, 64
1, 258755, Note_on_c, 2, 72, 125
1, 258763, Note_off_c, 2, 71, 64
1, 258811, Note_on_c, 2, 71, 126
1, 258820, Note_off_c, 2, 72, 64
1, 258884, Note_on_c, 2, 72, 125
1, 258891, Note_off_c, 2, 71, 64
1, 258945, Note_on_c, 2, 73, 125
1, 258955, Note_off_c, 2, 72, 64
1, 259008, Note_on_c, 2, 72, 125
1, 259018, Note_off_c, 2, 73, 64
1, 259076, Note_off_c, 4, 51, 64
1, 259076, Note_on_c, 1, 80, 122
1, 259077, Note_on_c, 2, 74, 125
1, 259077, Note_on_c, 2, 77, 125
1, 259078, Note_on_c, 2, 70, 126
1, 259078, Note_on_c, 4, 50, 127
1, 259084, Note_off_c, 2, 72, 64
1, 259209, Note_on_c, 4, 53, 127
1, 259232, Note_off_c, 4, 50, 64
1, 259355, Note_on_c, 4, 58, 127
1, 259378, Note_off_c, 4, 53, 64
1, 259484, Note_on_c, 4, 53, 127
1, 259503, Note_off_c, 4, 58, 64
1, 259615, Note_off_c, 1, 80, 64
1, 259630, Note_off_c, 2, 70, 64
1, 259631, Note_off_c, 2, 77, 64
1, 259631, Note_off_c, 2, 74, 64
1, 259632, Note_on_c, 4, 50, 127
1, 259632, Note_on_c, 1, 80, 122
1, 259657, Note_off_c, 4, 53, 64
1, 260191, Note_off_c, 1, 80, 64
1, 260204, Note_on_c, 1, 79, 102
1, 260285, Note_on_c, 1, 80, 97
1, 260292, Note_off_c, 1, 79, 64
1, 260342, Note_on_c, 1, 82, 97
1, 260350, Note_off_c, 1, 80, 64
1, 260417, Note_on_c, 1, 80, 101
1, 260424, Note_off_c, 1, 82, 64
1, 260475, Note_on_c, 1, 79, 96
1, 260483, Note_off_c, 1, 80, 64
1, 260538, Note_on_c, 2, 77, 115
1, 260548, Note_off_c, 1, 79, 64
1, 260588, Note_on_c, 2, 75, 115
1, 260602, Note_off_c, 2, 77, 64
1, 260653, Note_on_c, 2, 74, 115
1, 260667, Note_off_c, 2, 75, 64
1, 260721, Note_on_c, 2, 72, 115
1, 260732, Note_off_c, 2, 74, 64
1, 260780, Note_on_c, 2, 70, 126
1, 260792, Note_off_c, 2, 72, 64
1, 260840, Note_on_c, 2, 68, 124
1, 260851, Note_off_c, 2, 70, 64
1, 260899, Note_on_c, 2, 67, 124
1, 260911, Note_off_c, 2, 68, 64
1, 260955, Note_on_c, 3, 65, 122
1, 260964, Note_off_c, 2, 67, 64
1, 261013, Note_on_c, 3, 63, 127
1, 261027, Note_off_c, 3, 65, 64
1, 261083, Note_on_c, 3, 62, 127
1, 261094, Note_off_c, 3, 63, 64
1, 261150, Note_on_c, 3, 60, 127
1, 261167, Note_off_c, 3, 62, 64
1, 261232, Note_on_c, 3, 58, 127
1, 261248, Note_off_c, 3, 60, 64
1, 261296, Note_on_c, 3, 56, 127
1, 261307, Note_off_c, 3, 58, 64
1, 261351, Note_on_c, 3, 55, 127
1, 261356, Note_off_c, 3, 56, 64
1, 261518, Note_off_c, 3, 55, 64
1, 261519, Note_on_c, 4, 53, 127
1, 261589, Note_on_c, 4, 51, 127
1, 261601, Note_off_c, 4, 53, 64
1, 261659, Note_off_c, 4, 50, 64
1, 261672, Note_on_c, 4, 50, 127
1, 261684, Note_off_c, 4, 51, 64
1, 261745, Note_on_c, 4, 51, 127
1, 261756, Note_off_c, 4, 50, 64
1, 261814, Note_on_c, 4, 53, 127
1, 261822, Note_off_c, 4, 51, 64
1, 261881, Note_on_c, 3, 55, 127
1, 261889, Note_off_c, 4, 53, 64
1, 261948, Note_on_c, 3, 56, 127
1, 261954, Note_off_c, 3, 55, 64
1, 262014, Note_on_c, 3, 58, 127
1, 262019, Note_off_c, 3, 56, 64
1, 262081, Note_on_c, 3, 60, 127
1, 262092, Note_off_c, 3, 58, 64
1, 262129, Note_on_c, 3, 62, 127
1, 262144, Note_off_c, 3, 60, 64
1, 262183, Note_on_c, 3, 63, 127
1, 262202, Note_off_c, 3, 62, 64
1, 262241, Note_on_c, 3, 65, 122
1, 262260, Note_off_c, 3, 63, 64
1, 262298, Note_on_c, 3, 67, 124
1, 262318, Note_off_c, 3, 65, 64
1, 262354, Note_on_c, 3, 68, 124
1, 262373, Note_off_c, 3, 67, 64
1, 262415, Note_on_c, 3, 70, 126
1, 262437, Note_off_c, 3, 68, 64
1, 262481, Note_on_c, 3, 72, 125
1, 262501, Note_off_c, 3, 70, 64
1, 262540, Note_on_c, 3, 74, 125
1, 262560, Note_off_c, 3, 72, 64
1, 262598, Note_on_c, 3, 75, 125
1, 262619, Note_off_c, 3, 74, 64
1, 262661, Note_on_c, 2, 77, 125
1, 262682, Note_off_c, 3, 75, 64
1, 262721, Note_on_c, 1, 79, 122
1, 262736, Note_off_c, 2, 77, 64
1, 262778, Note_on_c, 1, 80, 110
1, 262800, Note_off_c, 1, 79, 64
1, 262838, Note_on_c, 1, 82, 110
1, 262855, Note_off_c, 1, 80, 64
1, 262892, Note_on_c, 1, 84, 110
1, 262911, Note_off_c, 1, 82, 64
1, 262946, Note_on_c, 1, 86, 110
1, 262967, Note_off_c, 1, 84, 64
1, 263044, Note_on_c, 1, 87, 122
1, 263044, Note_on_c, 4, 48, 127
1, 263053, Note_off_c, 1, 86, 64
1, 263179, Note_on_c, 4, 51, 127
1, 263200, Note_off_c, 4, 48, 64
1, 263290, Note_off_c, 1, 87, 64
1, 263311, Note_on_c, 1, 87, 122
1, 263312, Note_on_c, 3, 57, 127
1, 263335, Note_off_c, 4, 51, 64
1, 263452, Note_on_c, 4, 51, 127
1, 263475, Note_off_c, 3, 57, 64
1, 263589, Note_on_c, 4, 48, 127
1, 263612, Note_off_c, 4, 51, 64
1, 263842, Note_off_c, 1, 87, 64
1, 263856, Note_on_c, 1, 86, 122
1, 263930, Note_on_c, 1, 87, 122
1, 263940, Note_off_c, 1, 86, 64
1, 263994, Note_on_c, 1, 89, 124
1, 264001, Note_off_c, 1, 87, 64
1, 264063, Note_on_c, 1, 87, 122
1, 264071, Note_off_c, 1, 89, 64
1, 264120, Note_on_c, 1, 86, 122
1, 264128, Note_off_c, 1, 87, 64
1, 264178, Note_on_c, 1, 84, 122
1, 264186, Note_off_c, 1, 86, 64
1, 264238, Note_on_c, 1, 82, 122
1, 264247, Note_off_c, 1, 84, 64
1, 264314, Note_on_c, 1, 81, 122
1, 264326, Note_off_c, 1, 82, 64
1, 264374, Note_on_c, 1, 79, 122
1, 264397, Note_off_c, 1, 81, 64
1, 264436, Note_on_c, 2, 77, 125
1, 264456, Note_off_c, 1, 79, 64
1, 264495, Note_on_c, 2, 75, 125
1, 264516, Note_off_c, 2, 77, 64
1, 264559, Note_on_c, 2, 74, 127
1, 264577, Note_off_c, 2, 75, 64
1, 264614, Note_on_c, 2, 72, 127
1, 264636, Note_off_c, 2, 74, 64
1, 264676, Note_on_c, 2, 70, 127
1, 264696, Note_off_c, 2, 72, 64
1, 264741, Note_on_c, 2, 69, 127
1, 264762, Note_off_c, 2, 70, 64
1, 264812, Note_on_c, 2, 67, 127
1, 264837, Note_off_c, 2, 69, 64
1, 264888, Note_on_c, 3, 65, 126
1, 264921, Note_off_c, 2, 67, 64
1, 264984, Note_on_c, 3, 62, 127
1, 265024, Note_off_c, 3, 65, 64
1, 265138, Note_on_c, 3, 65, 126
1, 265149, Note_off_c, 3, 62, 64
1, 265264, Note_on_c, 2, 70, 127
1, 265278, Note_off_c, 3, 65, 64
1, 265525, Note_off_c, 2, 70, 64
1, 265545, Note_on_c, 2, 70, 127
1, 265777, Note_off_c, 2, 70, 64
1, 265796, Note_on_c, 2, 75, 125
1, 265946, Note_on_c, 2, 72, 125
1, 265957, Note_off_c, 2, 75, 64
1, 266069, Note_on_c, 3, 65, 122
1, 266069, Note_on_c, 2, 70, 126
1, 266070, Note_on_c, 3, 62, 127
1, 266089, Note_off_c, 2, 72, 64
1, 266210, Note_on_c, 2, 75, 125
1, 266227, Note_off_c, 2, 70, 64
1, 266325, Note_off_c, 3, 62, 64
1, 266326, Note_off_c, 3, 65, 64
1, 266326, Note_on_c, 2, 71, 126
1, 266327, Note_on_c, 3, 63, 127
1, 266327, Note_on_c, 3, 66, 124
1, 266342, Note_off_c, 2, 75, 64
1, 266450, Note_on_c, 2, 69, 125
1, 266472, Note_off_c, 2, 71, 64
1, 266578, Note_off_c, 3, 66, 64
1, 266578, Note_off_c, 3, 63, 64
1, 266579, Note_on_c, 3, 65, 122
1, 266579, Note_on_c, 2, 70, 126
1, 266580, Note_on_c, 3, 62, 127
1, 266599, Note_off_c, 2, 69, 64
1, 266712, Note_on_c, 2, 75, 125
1, 266734, Note_off_c, 2, 70, 64
1, 266832, Note_off_c, 3, 65, 64
1, 266832, Note_off_c, 3, 62, 64
1, 266833, Note_on_c, 3, 66, 124
1, 266833, Note_on_c, 2, 71, 126
1, 266834, Note_on_c, 3, 63, 127
1, 266854, Note_off_c, 2, 75, 64
1, 266962, Note_on_c, 2, 69, 125
1, 266987, Note_off_c, 2, 71, 64
1, 267095, Note_off_c, 3, 66, 64
1, 267095, Note_off_c, 3, 63, 64
1, 267096, Note_on_c, 3, 65, 122
1, 267096, Note_on_c, 3, 62, 127
1, 267096, Note_on_c, 2, 70, 126
1, 267121, Note_off_c, 2, 69, 64
1, 267206, Note_off_c, 2, 70, 64
1, 267216, Note_on_c, 2, 70, 126
1, 267339, Note_on_c, 2, 69, 125
1, 267351, Note_off_c, 2, 70, 64
1, 267462, Note_on_c, 2, 70, 126
1, 267474, Note_off_c, 2, 69, 64
1, 267585, Note_on_c, 2, 69, 125
1, 267595, Note_off_c, 2, 70, 64
1, 267702, Note_on_c, 2, 70, 126
1, 267711, Note_off_c, 2, 69, 64
1, 267821, Note_on_c, 2, 71, 126
1, 267833, Note_off_c, 2, 70, 64
1, 267960, Note_on_c, 2, 70, 126
1, 267973, Note_off_c, 2, 71, 64
1, 268036, Note_off_c, 4, 48, 64
1, 268071, Note_off_c, 2, 70, 64
1, 268079, Note_off_c, 3, 62, 64
1, 268079, Note_off_c, 3, 65, 64
1, 268080, Note_on_c, 4, 42, 127
1, 268080, Note_on_c, 2, 70, 126
1, 268080, Note_on_c, 3, 61, 127
1, 268221, Note_on_c, 4, 54, 127
1, 268339, Note_off_c, 4, 54, 64
1, 268345, Note_on_c, 4, 54, 127
1, 268463, Note_off_c, 4, 54, 64
1, 268472, Note_on_c, 4, 54, 127
1, 268582, Note_off_c, 3, 61, 64
1, 268583, Note_off_c, 2, 70, 64
1, 268594, Note_off_c, 4, 54, 64
1, 268602, Note_on_c, 2, 68, 127
1, 268602, Note_on_c, 3, 59, 127
1, 268603, Note_on_c, 4, 54, 127
1, 268716, Note_off_c, 4, 54, 64
1, 268724, Note_on_c, 4, 54, 127
1, 268837, Note_off_c, 4, 54, 64
1, 268845, Note_on_c, 4, 54, 127
1, 268963, Note_off_c, 4, 54, 64
1, 268971, Note_on_c, 4, 54, 127
1, 269078, Note_off_c, 3, 59, 64
1, 269079, Note_off_c, 2, 68, 64
1, 269090, Note_off_c, 4, 54, 64
1, 269098, Note_on_c, 2, 73, 127
1, 269099, Note_on_c, 3, 66, 127
1, 269099, Note_on_c, 4, 58, 127
1, 269100, Note_on_c, 4, 54, 127
1, 269215, Note_off_c, 4, 54, 64
1, 269223, Note_on_c, 4, 54, 127
1, 269334, Note_off_c, 4, 54, 64
1, 269342, Note_on_c, 4, 54, 127
1, 269454, Note_off_c, 4, 54, 64
1, 269464, Note_on_c, 4, 54, 127
1, 269589, Note_off_c, 4, 54, 64
1, 269597, Note_off_c, 4, 58, 64
1, 269597, Note_off_c, 3, 66, 64
1, 269598, Note_off_c, 2, 73, 64
1, 269598, Note_off_c, 4, 42, 64
1, 269599, Note_on_c, 3, 65, 126
1, 269599, Note_on_c, 4, 56, 127
1, 269599, Note_on_c, 4, 49, 127
1, 269659, Note_on_c, 2, 75, 127
1, 269717, Note_off_c, 4, 49, 64
1, 269726, Note_on_c, 2, 73, 127
1, 269727, Note_on_c, 4, 49, 127
1, 269738, Note_off_c, 2, 75, 64
1, 269795, Note_on_c, 2, 75, 127
1, 269801, Note_off_c, 2, 73, 64
1, 269847, Note_off_c, 4, 49, 64
1, 269855, Note_on_c, 2, 71, 127
1, 269856, Note_on_c, 4, 49, 127
1, 269861, Note_off_c, 2, 75, 64
1, 269914, Note_on_c, 2, 73, 127
1, 269921, Note_off_c, 2, 71, 64
1, 269962, Note_off_c, 4, 49, 64
1, 269969, Note_on_c, 2, 71, 127
1, 269970, Note_on_c, 4, 49, 127
1, 269978, Note_off_c, 2, 73, 64
1, 270030, Note_on_c, 2, 73, 127
1, 270037, Note_off_c, 2, 71, 64
1, 270089, Note_off_c, 4, 56, 64
1, 270090, Note_off_c, 3, 65, 64
1, 270090, Note_on_c, 2, 70, 127
1, 270091, Note_on_c, 4, 42, 127
1, 270091, Note_on_c, 3, 61, 127
1, 270099, Note_off_c, 2, 73, 64
1, 270103, Note_off_c, 4, 49, 64
1, 270217, Note_on_c, 4, 54, 127
1, 270333, Note_off_c, 4, 54, 64
1, 270341, Note_on_c, 4, 54, 127
1, 270455, Note_off_c, 4, 54, 64
1, 270464, Note_on_c, 4, 54, 127
1, 270585, Note_off_c, 4, 54, 64
1, 270592, Note_off_c, 3, 61, 64
1, 270593, Note_off_c, 2, 70, 64
1, 270593, Note_on_c, 2, 68, 127
1, 270594, Note_on_c, 3, 59, 127
1, 270594, Note_on_c, 4, 54, 127
1, 270710, Note_off_c, 4, 54, 64
1, 270719, Note_on_c, 4, 54, 127
1, 270841, Note_off_c, 4, 54, 64
1, 270851, Note_on_c, 4, 54, 127
1, 270968, Note_off_c, 4, 54, 64
1, 270975, Note_on_c, 4, 54, 127
1, 271092, Note_off_c, 4, 54, 64
1, 271100, Note_off_c, 2, 68, 64
1, 271100, Note_off_c, 3, 59, 64
1, 271100, Note_on_c, 2, 73, 127
1, 271101, Note_on_c, 3, 66, 127
1, 271101, Note_on_c, 4, 58, 127
1, 271102, Note_on_c, 4, 54, 127
1, 271215, Note_off_c, 4, 54, 64
1, 271223, Note_on_c, 4, 54, 127
1, 271340, Note_off_c, 4, 54, 64
1, 271348, Note_on_c, 4, 54, 127
1, 271458, Note_off_c, 4, 54, 64
1, 271468, Note_on_c, 4, 54, 127
1, 271591, Note_off_c, 4, 54, 64
1, 271599, Note_off_c, 2, 73, 64
1, 271599, Note_off_c, 4, 58, 64
1, 271599, Note_off_c, 3, 66, 64
1, 271600, Note_off_c, 4, 42, 64
1, 271600, Note_on_c, 2, 73, 127
1, 271601, Note_on_c, 3, 65, 126
1, 271601, Note_on_c, 4, 56, 127
1, 271602, Note_on_c, 4, 49, 127
1, 271672, Note_on_c, 2, 75, 127
1, 271679, Note_off_c, 2, 73, 64
1, 271729, Note_off_c, 4, 49, 64
1, 271737, Note_on_c, 2, 73, 127
1, 271738, Note_on_c, 4, 49, 127
1, 271745, Note_off_c, 2, 75, 64
1, 271801, Note_on_c, 2, 75, 127
1, 271811, Note_off_c, 2, 73, 64
1, 271859, Note_off_c, 4, 49, 64
1, 271869, Note_on_c, 2, 71, 127
1, 271869, Note_on_c, 4, 49, 127
1, 271877, Note_off_c, 2, 75, 64
1, 271931, Note_on_c, 2, 73, 127
1, 271939, Note_off_c, 2, 71, 64
1, 271981, Note_off_c, 4, 49, 64
1, 271989, Note_on_c, 2, 71, 127
1, 271989, Note_on_c, 4, 49, 127
1, 271995, Note_off_c, 2, 73, 64
1, 272049, Note_on_c, 2, 73, 127
1, 272056, Note_off_c, 2, 71, 64
1, 272112, Note_off_c, 4, 56, 64
1, 272113, Note_off_c, 3, 65, 64
1, 272113, Note_on_c, 2, 70, 127
1, 272114, Note_on_c, 4, 54, 127
1, 272120, Note_off_c, 2, 73, 64
1, 272125, Note_off_c, 4, 49, 64
1, 272255, Note_on_c, 3, 61, 127
1, 272383, Note_on_c, 2, 73, 127
1, 272384, Note_on_c, 4, 58, 127
1, 272403, Note_off_c, 4, 54, 64
1, 272404, Note_off_c, 2, 70, 64
1, 272491, Note_off_c, 3, 61, 64
1, 272508, Note_on_c, 3, 61, 127
1, 272634, Note_on_c, 4, 53, 127
1, 272655, Note_off_c, 4, 58, 64
1, 272739, Note_off_c, 3, 61, 64
1, 272757, Note_on_c, 3, 61, 127
1, 272874, Note_off_c, 2, 73, 64
1, 272874, Note_on_c, 2, 71, 127
1, 272875, Note_on_c, 4, 52, 127
1, 272896, Note_off_c, 4, 53, 64
1, 272984, Note_off_c, 3, 61, 64
1, 273003, Note_on_c, 2, 70, 127
1, 273004, Note_on_c, 3, 61, 127
1, 273016, Note_off_c, 2, 71, 64
1, 273131, Note_on_c, 2, 68, 127
1, 273132, Note_on_c, 4, 51, 127
1, 273142, Note_off_c, 2, 70, 64
1, 273149, Note_off_c, 4, 52, 64
1, 273241, Note_off_c, 3, 61, 64
1, 273261, Note_on_c, 2, 67, 127
1, 273261, Note_on_c, 3, 61, 127
1, 273273, Note_off_c, 2, 68, 64
1, 273367, Note_off_c, 4, 51, 64
1, 273388, Note_on_c, 4, 51, 127
1, 273511, Note_off_c, 3, 61, 64
1, 273531, Note_on_c, 3, 61, 127
1, 273576, Note_off_c, 2, 67, 64
1, 273597, Note_on_c, 2, 67, 127
1, 273635, Note_off_c, 4, 51, 64
1, 273650, Note_on_c, 2, 70, 127
1, 273651, Note_on_c, 4, 51, 127
1, 273657, Note_off_c, 2, 67, 64
1, 273748, Note_off_c, 3, 61, 64
1, 273768, Note_on_c, 3, 59, 127
1, 273834, Note_off_c, 2, 70, 64
1, 273835, Note_on_c, 2, 68, 127
1, 273875, Note_off_c, 4, 51, 64
1, 273893, Note_on_c, 2, 71, 127
1, 273893, Note_on_c, 4, 51, 127
1, 273899, Note_off_c, 2, 68, 64
1, 274017, Note_on_c, 2, 70, 127
1, 274017, Note_on_c, 4, 55, 127
1, 274032, Note_off_c, 4, 51, 64
1, 274033, Note_off_c, 2, 71, 64
1, 274042, Note_off_c, 3, 59, 64
1, 274145, Note_on_c, 2, 73, 127
1, 274146, Note_on_c, 4, 56, 127
1, 274157, Note_off_c, 4, 55, 64
1, 274165, Note_off_c, 2, 70, 64
1, 274279, Note_on_c, 3, 63, 127
1, 274344, Note_off_c, 2, 73, 64
1, 274344, Note_on_c, 2, 71, 127
1, 274401, Note_on_c, 2, 75, 125
1, 274401, Note_on_c, 3, 59, 127
1, 274428, Note_off_c, 4, 56, 64
1, 274436, Note_off_c, 2, 71, 64
1, 274515, Note_off_c, 3, 63, 64
1, 274532, Note_on_c, 3, 63, 127
1, 274645, Note_on_c, 4, 55, 127
1, 274665, Note_off_c, 3, 59, 64
1, 274740, Note_off_c, 3, 63, 64
1, 274761, Note_off_c, 2, 75, 64
1, 274761, Note_on_c, 2, 74, 125
1, 274762, Note_on_c, 3, 63, 127
1, 274821, Note_on_c, 2, 75, 125
1, 274829, Note_off_c, 2, 74, 64
1, 274861, Note_off_c, 4, 55, 64
1, 274879, Note_on_c, 4, 54, 127
1, 274879, Note_on_c, 2, 77, 125
1, 274887, Note_off_c, 2, 75, 64
1, 274945, Note_on_c, 2, 75, 125
1, 274951, Note_off_c, 2, 77, 64
1, 274981, Note_off_c, 3, 63, 64
1, 274997, Note_on_c, 2, 73, 125
1, 274997, Note_on_c, 3, 63, 127
1, 275005, Note_off_c, 2, 75, 64
1, 275053, Note_on_c, 2, 72, 125
1, 275063, Note_off_c, 2, 73, 64
1, 275096, Note_off_c, 4, 54, 64
1, 275115, Note_on_c, 4, 53, 127
1, 275115, Note_on_c, 2, 70, 126
1, 275120, Note_off_c, 2, 72, 64
1, 275216, Note_off_c, 3, 63, 64
1, 275235, Note_on_c, 2, 69, 125
1, 275235, Note_on_c, 3, 63, 127
1, 275247, Note_off_c, 2, 70, 64
1, 275338, Note_off_c, 4, 53, 64
1, 275357, Note_on_c, 4, 53, 127
1, 275461, Note_off_c, 3, 63, 64
1, 275477, Note_on_c, 3, 63, 127
1, 275536, Note_on_c, 2, 68, 124
1, 275559, Note_off_c, 2, 69, 64
1, 275580, Note_off_c, 4, 53, 64
1, 275600, Note_on_c, 2, 72, 127
1, 275600, Note_on_c, 4, 53, 127
1, 275628, Note_off_c, 2, 68, 64
1, 275722, Note_off_c, 3, 63, 64
1, 275722, Note_on_c, 3, 61, 127
1, 275782, Note_off_c, 2, 72, 64
1, 275783, Note_on_c, 2, 70, 126
1, 275820, Note_off_c, 4, 53, 64
1, 275837, Note_on_c, 2, 73, 127
1, 275837, Note_on_c, 4, 53, 127
1, 275865, Note_off_c, 2, 70, 64
1, 275955, Note_off_c, 3, 61, 64
1, 275955, Note_on_c, 4, 57, 127
1, 275967, Note_off_c, 4, 53, 64
1, 276016, Note_off_c, 2, 73, 64
1, 276016, Note_on_c, 2, 72, 125
1, 276074, Note_on_c, 2, 75, 127
1, 276074, Note_on_c, 4, 58, 127
1, 276086, Note_off_c, 4, 57, 64
1, 276100, Note_off_c, 2, 72, 64
1, 276194, Note_on_c, 3, 65, 122
1, 276254, Note_off_c, 2, 75, 64
1, 276254, Note_on_c, 2, 73, 125
1, 276318, Note_off_c, 4, 58, 64
1, 276319, Note_on_c, 2, 77, 127
1, 276319, Note_on_c, 3, 61, 127
1, 276344, Note_off_c, 2, 73, 64
1, 276415, Note_off_c, 3, 65, 64
1, 276432, Note_on_c, 3, 65, 122
1, 276551, Note_off_c, 3, 61, 64
1, 276551, Note_on_c, 4, 57, 127
1, 276651, Note_off_c, 3, 65, 64
1, 276667, Note_off_c, 2, 77, 64
1, 276667, Note_on_c, 2, 76, 126
1, 276668, Note_on_c, 3, 65, 122
1, 276715, Note_off_c, 2, 76, 64
1, 276727, Note_on_c, 2, 77, 125
1, 276771, Note_off_c, 2, 77, 64
1, 276785, Note_off_c, 4, 57, 64
1, 276785, Note_on_c, 1, 79, 122
1, 276786, Note_on_c, 4, 56, 127
1, 276828, Note_off_c, 1, 79, 64
1, 276841, Note_on_c, 2, 77, 125
1, 276879, Note_off_c, 3, 65, 64
1, 276884, Note_off_c, 2, 77, 64
1, 276895, Note_on_c, 2, 75, 125
1, 276896, Note_on_c, 3, 65, 122
1, 276938, Note_off_c, 2, 75, 64
1, 276952, Note_on_c, 2, 74, 127
1, 276998, Note_off_c, 2, 74, 64
1, 277013, Note_off_c, 4, 56, 64
1, 277014, Note_on_c, 4, 55, 127
1, 277014, Note_on_c, 2, 72, 127
1, 277145, Note_off_c, 3, 65, 64
1, 277145, Note_on_c, 2, 71, 127
1, 277146, Note_on_c, 2, 67, 124
1, 277155, Note_off_c, 2, 72, 64
1, 277267, Note_on_c, 3, 65, 122
1, 277280, Note_off_c, 2, 67, 64
1, 277281, Note_off_c, 2, 71, 64
1, 277389, Note_on_c, 2, 67, 124
1, 277400, Note_off_c, 3, 65, 64
1, 277449, Note_on_c, 2, 71, 127
1, 277459, Note_off_c, 2, 67, 64
1, 277511, Note_on_c, 3, 63, 127
1, 277511, Note_on_c, 2, 74, 125
1, 277515, Note_off_c, 2, 71, 64
1, 277529, Note_off_c, 4, 55, 64
1, 277621, Note_on_c, 2, 67, 124
1, 277657, Note_off_c, 2, 74, 64
1, 277677, Note_on_c, 2, 72, 125
1, 277736, Note_off_c, 3, 63, 64
1, 277737, Note_on_c, 3, 59, 127
1, 277737, Note_on_c, 2, 75, 125
1, 277743, Note_off_c, 2, 72, 64
1, 277833, Note_off_c, 2, 67, 64
1, 277848, Note_on_c, 2, 67, 124
1, 277893, Note_off_c, 2, 75, 64
1, 277912, Note_on_c, 2, 74, 125
1, 277981, Note_off_c, 3, 59, 64
1, 277981, Note_on_c, 2, 77, 125
1, 277982, Note_on_c, 3, 60, 127
1, 278005, Note_off_c, 2, 74, 64
1, 278072, Note_off_c, 2, 67, 64
1, 278091, Note_on_c, 2, 67, 124
1, 278132, Note_off_c, 2, 77, 64
1, 278149, Note_on_c, 2, 75, 125
1, 278222, Note_off_c, 3, 60, 64
1, 278222, Note_on_c, 1, 79, 122
1, 278223, Note_on_c, 3, 63, 127
1, 278254, Note_off_c, 2, 75, 64
1, 278332, Note_off_c, 2, 67, 64
1, 278353, Note_on_c, 2, 67, 124
1, 278469, Note_off_c, 3, 63, 64
1, 278470, Note_on_c, 4, 58, 127
1, 278560, Note_off_c, 1, 79, 64
1, 278568, Note_off_c, 2, 67, 64
1, 278587, Note_on_c, 1, 78, 120
1, 278587, Note_on_c, 2, 67, 124
1, 278642, Note_on_c, 1, 79, 122
1, 278649, Note_off_c, 1, 78, 64
1, 278698, Note_off_c, 4, 58, 64
1, 278698, Note_on_c, 1, 80, 122
1, 278699, Note_on_c, 3, 62, 127
1, 278706, Note_off_c, 1, 79, 64
1, 278758, Note_on_c, 1, 79, 122
1, 278763, Note_off_c, 1, 80, 64
1, 278794, Note_off_c, 2, 67, 64
1, 278812, Note_on_c, 2, 67, 124
1, 278812, Note_on_c, 2, 77, 125
1, 278818, Note_off_c, 1, 79, 64
1, 278870, Note_on_c, 2, 75, 125
1, 278878, Note_off_c, 2, 77, 64
1, 278930, Note_off_c, 3, 62, 64
1, 278930, Note_on_c, 2, 74, 125
1, 278931, Note_on_c, 4, 56, 127
1, 278936, Note_off_c, 2, 75, 64
1, 279033, Note_off_c, 2, 67, 64
1, 279050, Note_on_c, 2, 67, 124
1, 279088, Note_off_c, 2, 74, 64
1, 279109, Note_on_c, 2, 72, 125
1, 279179, Note_off_c, 4, 56, 64
1, 279179, Note_on_c, 1, 84, 122
1, 279180, Note_on_c, 3, 63, 127
1, 279187, Note_off_c, 2, 72, 64
1, 279272, Note_off_c, 2, 67, 64
1, 279287, Note_on_c, 2, 67, 124
1, 279393, Note_off_c, 1, 84, 64
1, 279410, Note_off_c, 3, 63, 64
1, 279410, Note_on_c, 1, 84, 122
1, 279411, Note_on_c, 4, 56, 127
1, 279518, Note_off_c, 2, 67, 64
1, 279519, Note_on_c, 3, 66, 124
1, 279583, Note_off_c, 1, 84, 64
1, 279583, Note_on_c, 1, 86, 122
1, 279641, Note_on_c, 1, 87, 122
1, 279642, Note_on_c, 3, 63, 127
1, 279648, Note_off_c, 1, 86, 64
1, 279652, Note_off_c, 3, 66, 64
1, 279765, Note_on_c, 3, 60, 127
1, 279782, Note_off_c, 3, 63, 64
1, 279850, Note_off_c, 1, 87, 64
1, 279850, Note_on_c, 1, 78, 124
1, 279910, Note_on_c, 1, 79, 122
1, 279924, Note_off_c, 1, 78, 64
1, 279941, Note_off_c, 4, 56, 64
1, 279948, Note_off_c, 3, 60, 64
1, 279991, Note_on_c, 4, 55, 127
1, 280041, Note_on_c, 3, 59, 127
1, 280094, Note_on_c, 3, 62, 127
1, 280146, Note_on_c, 2, 67, 124
1, 280156, Note_off_c, 3, 62, 64
1, 280164, Note_off_c, 3, 59, 64
1, 280198, Note_off_c, 4, 55, 64
1, 280199, Note_on_c, 2, 71, 126
1, 280209, Note_off_c, 2, 67, 64
1, 280248, Note_on_c, 2, 74, 125
1, 280256, Note_off_c, 2, 71, 64
1, 280283, Note_off_c, 1, 79, 64
1, 280306, Note_on_c, 1, 79, 122
1, 280319, Note_off_c, 2, 74, 64
1, 280365, Note_on_c, 1, 78, 120
1, 280375, Note_off_c, 1, 79, 64
1, 280415, Note_on_c, 4, 55, 127
1, 280465, Note_on_c, 3, 60, 127
1, 280519, Note_on_c, 3, 63, 127
1, 280569, Note_on_c, 3, 66, 124
1, 280579, Note_off_c, 3, 63, 64
1, 280586, Note_off_c, 3, 60, 64
1, 280620, Note_off_c, 4, 55, 64
1, 280621, Note_on_c, 2, 69, 125
1, 280632, Note_off_c, 3, 66, 64
1, 280668, Note_on_c, 2, 72, 125
1, 280677, Note_off_c, 2, 69, 64
1, 280701, Note_off_c, 1, 78, 64
1, 280723, Note_on_c, 1, 78, 120
1, 280737, Note_off_c, 2, 72, 64
1, 280781, Note_on_c, 1, 79, 122
1, 280790, Note_off_c, 1, 78, 64
1, 280831, Note_on_c, 4, 55, 127
1, 280881, Note_on_c, 3, 59, 127
1, 280934, Note_on_c, 3, 62, 127
1, 280992, Note_on_c, 2, 67, 124
1, 281004, Note_off_c, 3, 62, 64
1, 281012, Note_off_c, 3, 59, 64
1, 281043, Note_on_c, 2, 71, 126
1, 281044, Note_off_c, 4, 55, 64
1, 281052, Note_off_c, 2, 67, 64
1, 281091, Note_on_c, 2, 74, 125
1, 281102, Note_off_c, 2, 71, 64
1, 281130, Note_off_c, 1, 79, 64
1, 281153, Note_on_c, 1, 79, 122
1, 281164, Note_off_c, 2, 74, 64
1, 281214, Note_on_c, 1, 78, 120
1, 281224, Note_off_c, 1, 79, 64
1, 281266, Note_on_c, 4, 55, 127
1, 281318, Note_on_c, 3, 60, 127
1, 281370, Note_on_c, 3, 63, 127
1, 281425, Note_on_c, 3, 66, 124
1, 281433, Note_off_c, 3, 63, 64
1, 281441, Note_off_c, 3, 60, 64
1, 281475, Note_off_c, 4, 55, 64
1, 281476, Note_on_c, 2, 69, 125
1, 281485, Note_off_c, 3, 66, 64
1, 281528, Note_on_c, 2, 72, 125
1, 281538, Note_off_c, 2, 69, 64
1, 281560, Note_off_c, 1, 78, 64
1, 281575, Note_on_c, 1, 78, 120
1, 281584, Note_off_c, 2, 72, 64
1, 281637, Note_on_c, 1, 79, 122
1, 281648, Note_off_c, 1, 78, 64
1, 281690, Note_on_c, 4, 55, 127
1, 281742, Note_on_c, 3, 59, 127
1, 281788, Note_on_c, 3, 62, 127
1, 281842, Note_on_c, 2, 67, 124
1, 281852, Note_off_c, 3, 62, 64
1, 281859, Note_off_c, 3, 59, 64
1, 281892, Note_off_c, 4, 55, 64
1, 281892, Note_on_c, 2, 71, 126
1, 281901, Note_off_c, 2, 67, 64
1, 281945, Note_on_c, 2, 74, 125
1, 281954, Note_off_c, 2, 71, 64
1, 281977, Note_off_c, 1, 79, 64
1, 281999, Note_on_c, 1, 78, 120
1, 282008, Note_off_c, 2, 74, 64
1, 282054, Note_on_c, 1, 79, 122
1, 282062, Note_off_c, 1, 78, 64
1, 282108, Note_on_c, 4, 55, 127
1, 282157, Note_on_c, 3, 59, 127
1, 282212, Note_on_c, 3, 62, 127
1, 282263, Note_on_c, 2, 67, 124
1, 282270, Note_off_c, 3, 62, 64
1, 282278, Note_off_c, 3, 59, 64
1, 282314, Note_off_c, 4, 55, 64
1, 282315, Note_on_c, 2, 71, 126
1, 282323, Note_off_c, 2, 67, 64
1, 282363, Note_on_c, 2, 74, 125
1, 282369, Note_off_c, 2, 71, 64
1, 282392, Note_off_c, 1, 79, 64
1, 282411, Note_on_c, 1, 79, 122
1, 282423, Note_off_c, 2, 74, 64
1, 282465, Note_on_c, 1, 80, 122
1, 282473, Note_off_c, 1, 79, 64
1, 282513, Note_on_c, 4, 53, 127
1, 282565, Note_on_c, 3, 59, 127
1, 282615, Note_on_c, 3, 62, 127
1, 282663, Note_on_c, 3, 65, 122
1, 282671, Note_off_c, 3, 62, 64
1, 282679, Note_off_c, 3, 59, 64
1, 282719, Note_off_c, 4, 53, 64
1, 282719, Note_on_c, 2, 71, 126
1, 282727, Note_off_c, 3, 65, 64
1, 282773, Note_on_c, 2, 74, 125
1, 282781, Note_off_c, 2, 71, 64
1, 282812, Note_off_c, 1, 80, 64
1, 282835, Note_on_c, 1, 80, 122
1, 282844, Note_off_c, 2, 74, 64
1, 282888, Note_on_c, 1, 81, 122
1, 282896, Note_off_c, 1, 80, 64
1, 282936, Note_on_c, 4, 51, 127
1, 282986, Note_on_c, 4, 57, 127
1, 283034, Note_on_c, 3, 60, 127
1, 283090, Note_on_c, 3, 63, 127
1, 283102, Note_off_c, 3, 60, 64
1, 283111, Note_off_c, 4, 57, 64
1, 283143, Note_on_c, 2, 72, 125
1, 283144, Note_off_c, 4, 51, 64
1, 283199, Note_on_c, 2, 77, 125
1, 283205, Note_off_c, 2, 72, 64
1, 283214, Note_off_c, 3, 63, 64
1, 283236, Note_off_c, 1, 81, 64
1, 283255, Note_on_c, 1, 80, 122
1, 283267, Note_off_c, 2, 77, 64
1, 283315, Note_on_c, 1, 82, 122
1, 283316, Note_on_c, 4, 50, 127
1, 283327, Note_off_c, 1, 80, 64
1, 283383, Note_on_c, 1, 83, 122
1, 283391, Note_off_c, 1, 82, 64
1, 283437, Note_on_c, 1, 84, 122
1, 283442, Note_off_c, 1, 83, 64
1, 283502, Note_on_c, 1, 82, 122
1, 283510, Note_off_c, 1, 84, 64
1, 283556, Note_on_c, 1, 80, 122
1, 283563, Note_off_c, 1, 82, 64
1, 283610, Note_on_c, 1, 79, 122
1, 283617, Note_off_c, 1, 80, 64
1, 283666, Note_on_c, 2, 77, 125
1, 283671, Note_off_c, 1, 79, 64
1, 283717, Note_on_c, 3, 75, 125
1, 283724, Note_off_c, 2, 77, 64
1, 283768, Note_on_c, 3, 74, 125
1, 283776, Note_off_c, 3, 75, 64
1, 283822, Note_on_c, 3, 72, 125
1, 283829, Note_off_c, 3, 74, 64
1, 283876, Note_on_c, 3, 70, 126
1, 283882, Note_off_c, 3, 72, 64
1, 283929, Note_on_c, 3, 69, 125
1, 283934, Note_off_c, 3, 70, 64
1, 283980, Note_on_c, 3, 68, 124
1, 283987, Note_off_c, 3, 69, 64
1, 284033, Note_on_c, 3, 67, 124
1, 284040, Note_off_c, 3, 68, 64
1, 284084, Note_on_c, 3, 65, 127
1, 284091, Note_off_c, 3, 67, 64
1, 284140, Note_on_c, 3, 63, 127
1, 284148, Note_off_c, 3, 65, 64
1, 284192, Note_off_c, 4, 50, 64
1, 284193, Note_on_c, 4, 56, 127
1, 284193, Note_on_c, 4, 53, 127
1, 284193, Note_on_c, 3, 62, 127
1, 284194, Note_on_c, 4, 46, 127
1, 284200, Note_off_c, 3, 63, 64
1, 284250, Note_on_c, 3, 60, 127
1, 284258, Note_off_c, 3, 62, 64
1, 284306, Note_on_c, 4, 58, 127
1, 284314, Note_off_c, 3, 60, 64
1, 284365, Note_on_c, 3, 60, 127
1, 284373, Note_off_c, 4, 58, 64
1, 284423, Note_on_c, 3, 62, 123
1, 284429, Note_off_c, 3, 60, 64
1, 284481, Note_on_c, 3, 63, 123
1, 284488, Note_off_c, 3, 62, 64
1, 284535, Note_on_c, 3, 65, 123
1, 284543, Note_off_c, 3, 63, 64
1, 284589, Note_on_c, 3, 67, 127
1, 284597, Note_off_c, 3, 65, 64
1, 284641, Note_on_c, 3, 68, 124
1, 284647, Note_off_c, 3, 67, 64
1, 284693, Note_on_c, 3, 67, 124
1, 284700, Note_off_c, 3, 68, 64
1, 284740, Note_on_c, 3, 65, 123
1, 284746, Note_off_c, 3, 67, 64
1, 284792, Note_on_c, 3, 64, 123
1, 284797, Note_off_c, 3, 65, 64
1, 284845, Note_on_c, 3, 65, 123
1, 284853, Note_off_c, 3, 64, 64
1, 284903, Note_on_c, 3, 67, 124
1, 284911, Note_off_c, 3, 65, 64
1, 284957, Note_on_c, 3, 68, 124
1, 284964, Note_off_c, 3, 67, 64
1, 285013, Note_on_c, 3, 69, 125
1, 285021, Note_off_c, 3, 68, 64
1, 285077, Note_off_c, 4, 53, 64
1, 285077, Note_off_c, 4, 46, 64
1, 285078, Note_off_c, 4, 56, 64
1, 285078, Note_on_c, 2, 70, 126
1, 285081, Note_on_c, 4, 51, 127
1, 285086, Note_off_c, 3, 69, 64
1, 285215, Note_on_c, 4, 55, 127
1, 285275, Note_off_c, 4, 51, 64
1, 285346, Note_on_c, 4, 58, 127
1, 285411, Note_off_c, 4, 55, 64
1, 285411, Note_off_c, 2, 70, 64
1, 285412, Note_on_c, 2, 72, 127
1, 285473, Note_on_c, 2, 74, 127
1, 285474, Note_on_c, 4, 55, 127
1, 285482, Note_off_c, 2, 72, 64
1, 285543, Note_off_c, 4, 58, 64
1, 285544, Note_on_c, 2, 75, 127
1, 285554, Note_off_c, 2, 74, 64
1, 285608, Note_off_c, 2, 75, 64
1, 285612, Note_on_c, 2, 75, 127
1, 285612, Note_on_c, 4, 51, 127
1, 285682, Note_off_c, 4, 55, 64
1, 285745, Note_on_c, 2, 70, 126
1, 285745, Note_on_c, 4, 55, 127
1, 285757, Note_off_c, 2, 75, 64
1, 285814, Note_off_c, 4, 51, 64
1, 285870, Note_off_c, 2, 70, 64
1, 285880, Note_on_c, 4, 58, 127
1, 285880, Note_on_c, 2, 70, 126
1, 285950, Note_off_c, 4, 55, 64
1, 286009, Note_off_c, 2, 70, 64
1, 286017, Note_on_c, 2, 70, 126
1, 286018, Note_on_c, 4, 55, 127
1, 286087, Note_off_c, 4, 58, 64
1, 286156, Note_on_c, 2, 67, 124
1, 286157, Note_on_c, 3, 63, 127
1, 286157, Note_on_c, 4, 46, 127
1, 286171, Note_off_c, 2, 70, 64
1, 286227, Note_off_c, 4, 55, 64
1, 286299, Note_on_c, 4, 51, 127
1, 286365, Note_off_c, 4, 46, 64
1, 286430, Note_on_c, 3, 55, 127
1, 286495, Note_off_c, 4, 51, 64
1, 286555, Note_on_c, 4, 51, 127
1, 286616, Note_off_c, 3, 55, 64
1, 286617, Note_on_c, 2, 68, 124
1, 286642, Note_off_c, 2, 67, 64
1, 286688, Note_off_c, 3, 63, 64
1, 286689, Note_on_c, 3, 65, 127
1, 286689, Note_on_c, 3, 62, 127
1, 286690, Note_on_c, 4, 46, 127
1, 286698, Note_off_c, 2, 68, 64
1, 286759, Note_off_c, 4, 51, 64
1, 286838, Note_on_c, 4, 50, 127
1, 286915, Note_off_c, 4, 46, 64
1, 286978, Note_on_c, 4, 53, 127
1, 287020, Note_on_c, 2, 70, 126
1, 287040, Note_off_c, 4, 50, 64
1, 287068, Note_on_c, 2, 69, 125
1, 287097, Note_off_c, 2, 70, 64
1, 287116, Note_off_c, 3, 65, 64
1, 287117, Note_on_c, 2, 68, 124
1, 287117, Note_on_c, 4, 50, 127
1, 287138, Note_off_c, 2, 69, 64
1, 287139, Note_off_c, 4, 53, 64
1, 287160, Note_on_c, 2, 67, 124
1, 287182, Note_off_c, 2, 68, 64
1, 287207, Note_on_c, 3, 65, 127
1, 287232, Note_off_c, 2, 67, 64
1, 287247, Note_off_c, 4, 50, 64
1, 287258, Note_off_c, 3, 62, 64
1, 287259, Note_on_c, 3, 55, 127
1, 287261, Note_on_c, 4, 51, 127
1, 287288, Note_off_c, 3, 65, 64
1, 287392, Note_on_c, 3, 58, 127
1, 287517, Note_off_c, 3, 55, 64
1, 287520, Note_on_c, 3, 55, 127
1, 287651, Note_off_c, 3, 58, 64
1, 287655, Note_on_c, 3, 58, 127
1, 287784, Note_off_c, 3, 55, 64
1, 287787, Note_on_c, 3, 62, 127
1, 287788, Note_off_c, 4, 51, 64
1, 287788, Note_on_c, 4, 46, 127
1, 287913, Note_off_c, 3, 58, 64
1, 287917, Note_on_c, 3, 58, 127
1, 288053, Note_off_c, 3, 62, 64
1, 288060, Note_on_c, 3, 62, 127
1, 288184, Note_off_c, 3, 58, 64
1, 288188, Note_on_c, 3, 58, 127
1, 288314, Note_off_c, 3, 62, 64
1, 288319, Note_off_c, 4, 46, 64
1, 288319, Note_on_c, 2, 67, 124
1, 288320, Note_on_c, 4, 39, 127
1, 288320, Note_on_c, 3, 63, 127
1, 288447, Note_off_c, 3, 58, 64
1, 288518, Note_off_c, 2, 67, 64
1, 288519, Note_on_c, 2, 68, 124
1, 288583, Note_on_c, 2, 70, 126
1, 288592, Note_off_c, 2, 68, 64
1, 288644, Note_on_c, 2, 72, 125
1, 288652, Note_off_c, 2, 70, 64
1, 288694, Note_on_c, 2, 74, 125
1, 288704, Note_off_c, 2, 72, 64
1, 288761, Note_on_c, 2, 75, 125
1, 288771, Note_off_c, 2, 74, 64
1, 288828, Note_off_c, 3, 63, 64
1, 288829, Note_on_c, 2, 70, 126
1, 288837, Note_off_c, 2, 75, 64
1, 289094, Note_on_c, 2, 75, 125
1, 289164, Note_on_c, 1, 79, 122
1, 289231, Note_on_c, 2, 74, 125
1, 289242, Note_off_c, 2, 75, 64
1, 289290, Note_on_c, 2, 77, 125
1, 289302, Note_off_c, 1, 79, 64
1, 289356, Note_off_c, 2, 70, 64
1, 289356, Note_on_c, 2, 72, 125
1, 289368, Note_off_c, 2, 74, 64
1, 289418, Note_on_c, 2, 75, 125
1, 289429, Note_off_c, 2, 77, 64
1, 289478, Note_on_c, 2, 70, 126
1, 289490, Note_off_c, 2, 72, 64
1, 289536, Note_on_c, 2, 74, 125
1, 289546, Note_off_c, 2, 75, 64
1, 289574, Note_off_c, 4, 39, 64
1, 289594, Note_on_c, 2, 68, 124
1, 289594, Note_on_c, 4, 38, 127
1, 289604, Note_off_c, 2, 70, 64
1, 289652, Note_on_c, 2, 72, 125
1, 289653, Note_on_c, 4, 50, 127
1, 289667, Note_off_c, 2, 74, 64
1, 289720, Note_on_c, 2, 67, 124
1, 289721, Note_on_c, 4, 39, 127
1, 289733, Note_off_c, 4, 38, 64
1, 289733, Note_off_c, 2, 68, 64
1, 289786, Note_on_c, 2, 70, 126
1, 289786, Note_on_c, 4, 51, 127
1, 289796, Note_off_c, 4, 50, 64
1, 289797, Note_off_c, 2, 72, 64
1, 289843, Note_on_c, 3, 65, 122
1, 289844, Note_on_c, 4, 41, 127
1, 289856, Note_off_c, 4, 39, 64
1, 289856, Note_off_c, 2, 67, 64
1, 289903, Note_on_c, 2, 68, 124
1, 289903, Note_on_c, 4, 53, 127
1, 289915, Note_off_c, 4, 51, 64
1, 289915, Note_off_c, 2, 70, 64
1, 289968, Note_on_c, 3, 63, 127
1, 289968, Note_on_c, 4, 43, 127
1, 289982, Note_off_c, 4, 41, 64
1, 289983, Note_off_c, 3, 65, 64
1, 290035, Note_on_c, 2, 67, 124
1, 290036, Note_on_c, 4, 55, 127
1, 290046, Note_off_c, 4, 53, 64
1, 290046, Note_off_c, 2, 68, 64
1, 290091, Note_on_c, 3, 60, 127
1, 290091, Note_on_c, 4, 44, 127
1, 290103, Note_off_c, 4, 43, 64
1, 290104, Note_off_c, 3, 63, 64
1, 290153, Note_on_c, 2, 72, 125
1, 290153, Note_on_c, 3, 56, 127
1, 290165, Note_off_c, 2, 67, 64
1, 290165, Note_off_c, 4, 55, 64
1, 290220, Note_on_c, 4, 41, 127
1, 290220, Note_on_c, 3, 65, 122
1, 290232, Note_off_c, 4, 44, 64
1, 290232, Note_off_c, 3, 60, 64
1, 290283, Note_on_c, 2, 68, 124
1, 290284, Note_on_c, 4, 53, 127
1, 290292, Note_off_c, 3, 65, 64
1, 290295, Note_off_c, 3, 56, 64
1, 290296, Note_off_c, 2, 72, 64
1, 290352, Note_on_c, 2, 67, 124
1, 290353, Note_on_c, 3, 57, 127
1, 290359, Note_off_c, 4, 53, 64
1, 290359, Note_off_c, 2, 68, 64
1, 290414, Note_on_c, 3, 58, 127
1, 290423, Note_off_c, 3, 57, 64
1, 290475, Note_on_c, 3, 60, 127
1, 290484, Note_off_c, 3, 58, 64
1, 290548, Note_on_c, 3, 58, 127
1, 290556, Note_off_c, 3, 60, 64
1, 290611, Note_off_c, 4, 41, 64
1, 290611, Note_on_c, 3, 57, 127
1, 290619, Note_off_c, 3, 58, 64
1, 290675, Note_on_c, 3, 58, 127
1, 290680, Note_off_c, 3, 57, 64
1, 290738, Note_on_c, 4, 55, 127
1, 290746, Note_off_c, 3, 58, 64
1, 290792, Note_on_c, 4, 51, 127
1, 290799, Note_off_c, 4, 55, 64
1, 290852, Note_off_c, 2, 67, 64
1, 290853, Note_on_c, 3, 65, 122
1, 290853, Note_on_c, 3, 62, 127
1, 290854, Note_on_c, 4, 46, 127
1, 290861, Note_off_c, 4, 51, 64
1, 290925, Note_on_c, 3, 63, 127
1, 290934, Note_off_c, 3, 62, 64
1, 290934, Note_off_c, 3, 65, 64
1, 290995, Note_on_c, 3, 62, 127
1, 291004, Note_off_c, 3, 63, 64
1, 291060, Note_on_c, 3, 63, 127
1, 291068, Note_off_c, 3, 62, 64
1, 291120, Note_on_c, 3, 65, 122
1, 291127, Note_off_c, 3, 63, 64
1, 291177, Note_on_c, 3, 67, 124
1, 291185, Note_off_c, 3, 65, 64
1, 291237, Note_on_c, 3, 68, 125
1, 291244, Note_off_c, 3, 67, 64
1, 291298, Note_on_c, 3, 69, 126
1, 291299, Note_off_c, 3, 68, 64
1, 291355, Note_off_c, 3, 69, 64
1, 291360, Note_off_c, 4, 46, 64
1, 291360, Note_on_c, 2, 70, 127
1, 291360, Note_on_c, 4, 51, 127
1, 291493, Note_on_c, 4, 55, 127
1, 291560, Note_off_c, 4, 51, 64
1, 291627, Note_on_c, 3, 58, 127
1, 291672, Note_off_c, 2, 70, 64
1, 291685, Note_off_c, 4, 55, 64
1, 291685, Note_on_c, 2, 74, 125
1, 291724, Note_on_c, 2, 72, 126
1, 291732, Note_off_c, 2, 74, 64
1, 291763, Note_on_c, 4, 55, 127
1, 291763, Note_on_c, 2, 75, 125
1, 291775, Note_off_c, 2, 72, 64
1, 291812, Note_on_c, 2, 74, 125
1, 291819, Note_off_c, 2, 75, 64
1, 291855, Note_off_c, 3, 58, 64
1, 291855, Note_on_c, 2, 77, 125
1, 291865, Note_off_c, 2, 74, 64
1, 291888, Note_on_c, 2, 75, 125
1, 291894, Note_off_c, 2, 77, 64
1, 291913, Note_off_c, 2, 75, 64
1, 291923, Note_on_c, 2, 75, 125
1, 291924, Note_on_c, 4, 51, 127
1, 291978, Note_off_c, 4, 55, 64
1, 292051, Note_on_c, 2, 67, 125
1, 292052, Note_on_c, 4, 55, 127
1, 292063, Note_off_c, 2, 75, 64
1, 292115, Note_off_c, 4, 51, 64
1, 292175, Note_off_c, 2, 67, 64
1, 292185, Note_on_c, 3, 58, 127
1, 292185, Note_on_c, 2, 67, 125
1, 292250, Note_off_c, 4, 55, 64
1, 292312, Note_off_c, 2, 67, 64
1, 292323, Note_on_c, 2, 67, 125
1, 292324, Note_on_c, 4, 55, 127
1, 292386, Note_off_c, 3, 58, 64
1, 292445, Note_off_c, 2, 67, 64
1, 292453, Note_on_c, 3, 63, 127
1, 292453, Note_on_c, 2, 67, 125
1, 292454, Note_on_c, 4, 46, 127
1, 292519, Note_off_c, 4, 55, 64
1, 292586, Note_on_c, 4, 51, 127
1, 292658, Note_off_c, 4, 46, 64
1, 292726, Note_off_c, 2, 67, 64
1, 292726, Note_on_c, 2, 70, 127
1, 292727, Note_on_c, 4, 55, 127
1, 292796, Note_off_c, 4, 51, 64
1, 292861, Note_on_c, 4, 51, 127
1, 292927, Note_off_c, 4, 55, 64
1, 292968, Note_off_c, 2, 70, 64
1, 292986, Note_off_c, 3, 63, 64
1, 292987, Note_on_c, 3, 62, 127
1, 292987, Note_on_c, 2, 70, 127
1, 292988, Note_on_c, 4, 46, 127
1, 293067, Note_off_c, 4, 51, 64
1, 293067, Note_on_c, 2, 69, 126
1, 293073, Note_off_c, 2, 70, 64
1, 293122, Note_on_c, 4, 50, 127
1, 293122, Note_on_c, 2, 68, 125
1, 293130, Note_off_c, 2, 69, 64
1, 293184, Note_off_c, 4, 46, 64
1, 293184, Note_on_c, 2, 67, 125
1, 293192, Note_off_c, 2, 68, 64
1, 293252, Note_on_c, 2, 70, 127
1, 293253, Note_on_c, 4, 53, 127
1, 293260, Note_off_c, 2, 67, 64
1, 293320, Note_off_c, 4, 50, 64
1, 293321, Note_on_c, 2, 68, 125
1, 293325, Note_off_c, 2, 70, 64
1, 293369, Note_on_c, 2, 67, 125
1, 293370, Note_on_c, 4, 50, 127
1, 293374, Note_off_c, 2, 68, 64
1, 293386, Note_off_c, 4, 53, 64
1, 293430, Note_on_c, 3, 65, 123
1, 293437, Note_off_c, 2, 67, 64
1, 293493, Note_off_c, 3, 62, 64
1, 293494, Note_on_c, 4, 51, 127
1, 293494, Note_on_c, 3, 63, 127
1, 293495, Note_on_c, 4, 39, 127
1, 293503, Note_off_c, 3, 65, 64
1, 293516, Note_off_c, 4, 50, 64
1, 293910, Note_on_c, 3, 64, 127
1, 293914, Note_off_c, 3, 63, 64
1, 294034, Note_off_c, 4, 51, 64
1, 294034, Note_off_c, 4, 39, 64
1, 294035, Note_on_c, 4, 46, 127
1, 294035, Note_on_c, 3, 65, 123
1, 294036, Note_on_c, 4, 34, 127
1, 294082, Note_off_c, 3, 64, 64
1, 294449, Note_on_c, 3, 66, 125
1, 294453, Note_off_c, 3, 65, 64
1, 294561, Note_off_c, 4, 34, 64
1, 294562, Note_off_c, 4, 46, 64
1, 294562, Note_on_c, 2, 67, 125
1, 294563, Note_on_c, 4, 39, 127
1, 294563, Note_on_c, 3, 63, 127
1, 294563, Note_on_c, 4, 51, 127
1, 294565, Note_off_c, 3, 66, 64
1, 294711, Note_off_c, 2, 67, 64
1, 294712, Note_on_c, 2, 68, 125
1, 294767, Note_on_c, 2, 69, 126
1, 294778, Note_off_c, 2, 68, 64
1, 294855, Note_on_c, 2, 68, 125
1, 294862, Note_off_c, 2, 69, 64
1, 294916, Note_on_c, 2, 71, 127
1, 294920, Note_off_c, 2, 68, 64
1, 294979, Note_on_c, 2, 72, 126
1, 294985, Note_off_c, 2, 71, 64
1, 295025, Note_on_c, 2, 73, 125
1, 295032, Note_off_c, 2, 72, 64
1, 295071, Note_on_c, 2, 74, 125
1, 295077, Note_off_c, 2, 73, 64
1, 295120, Note_on_c, 2, 75, 125
1, 295127, Note_off_c, 2, 74, 64
1, 295176, Note_on_c, 2, 70, 127
1, 295183, Note_off_c, 2, 75, 64
1, 295387, Note_off_c, 3, 63, 64
1, 295408, Note_off_c, 2, 70, 64
1, 295408, Note_on_c, 2, 71, 127
1, 295409, Note_on_c, 3, 63, 127
1, 295438, Note_off_c, 4, 51, 64
1, 295478, Note_on_c, 3, 62, 127
1, 295483, Note_off_c, 3, 63, 64
1, 295536, Note_on_c, 3, 61, 127
1, 295545, Note_off_c, 3, 62, 64
1, 295603, Note_on_c, 3, 60, 127
1, 295610, Note_off_c, 3, 61, 64
1, 295672, Note_on_c, 4, 55, 127
1, 295672, Note_on_c, 3, 59, 127
1, 295680, Note_off_c, 3, 60, 64
1, 295797, Note_off_c, 2, 71, 64
1, 295797, Note_on_c, 2, 75, 125
1, 295869, Note_on_c, 2, 74, 125
1, 295876, Note_off_c, 2, 75, 64
1, 295913, Note_off_c, 3, 59, 64
1, 295932, Note_on_c, 2, 73, 125
1, 295932, Note_on_c, 3, 63, 127
1, 295939, Note_off_c, 2, 74, 64
1, 295989, Note_on_c, 2, 72, 126
1, 295989, Note_on_c, 3, 62, 127
1, 295995, Note_off_c, 3, 63, 64
1, 295996, Note_off_c, 2, 73, 64
1, 296046, Note_on_c, 3, 61, 127
1, 296054, Note_off_c, 3, 62, 64
1, 296102, Note_on_c, 3, 60, 127
1, 296110, Note_off_c, 3, 61, 64
1, 296142, Note_off_c, 4, 55, 64
1, 296152, Note_off_c, 2, 72, 64
1, 296152, Note_on_c, 2, 75, 125
1, 296153, Note_on_c, 3, 59, 127
1, 296153, Note_on_c, 4, 55, 127
1, 296160, Note_off_c, 3, 60, 64
1, 296211, Note_on_c, 2, 74, 125
1, 296219, Note_off_c, 2, 75, 64
1, 296263, Note_on_c, 2, 73, 125
1, 296271, Note_off_c, 2, 74, 64
1, 296323, Note_on_c, 2, 72, 125
1, 296328, Note_off_c, 2, 73, 64
1, 296365, Note_off_c, 4, 55, 64
1, 296365, Note_off_c, 3, 59, 64
1, 296381, Note_on_c, 2, 71, 126
1, 296382, Note_on_c, 4, 55, 127
1, 296384, Note_on_c, 3, 63, 127
1, 296386, Note_off_c, 2, 72, 64
1, 296718, Note_off_c, 2, 71, 64
1, 296719, Note_on_c, 2, 74, 125
1, 296838, Note_off_c, 2, 74, 64
1, 296840, Note_on_c, 2, 72, 125
1, 296873, Note_off_c, 2, 72, 64
1, 296890, Note_on_c, 2, 72, 125
1, 296891, Note_on_c, 4, 56, 127
1, 296895, Note_off_c, 4, 55, 64
1, 297020, Note_off_c, 3, 63, 64
1, 297171, Note_off_c, 2, 72, 64
1, 297192, Note_on_c, 3, 65, 122
1, 297269, Note_on_c, 2, 67, 124
1, 297277, Note_off_c, 3, 65, 64
1, 297323, Note_on_c, 2, 68, 124
1, 297333, Note_off_c, 2, 67, 64
1, 297384, Note_on_c, 2, 69, 125
1, 297392, Note_off_c, 2, 68, 64
1, 297446, Note_on_c, 2, 70, 126
1, 297456, Note_off_c, 2, 69, 64
1, 297695, Note_off_c, 4, 39, 64
1, 297696, Note_off_c, 4, 56, 64
1, 297697, Note_off_c, 2, 70, 64
1, 297723, Note_on_c, 4, 51, 127
1, 297723, Note_on_c, 4, 43, 127
1, 297723, Note_on_c, 2, 70, 127
1, 297801, Note_on_c, 2, 71, 127
1, 297820, Note_off_c, 2, 70, 64
1, 297848, Note_on_c, 2, 72, 126
1, 297863, Note_off_c, 2, 71, 64
1, 297892, Note_on_c, 2, 73, 126
1, 297911, Note_off_c, 2, 72, 64
1, 297946, Note_on_c, 2, 74, 126
1, 297964, Note_off_c, 2, 73, 64
1, 298009, Note_on_c, 2, 75, 126
1, 298033, Note_off_c, 2, 74, 64
1, 298082, Note_off_c, 4, 43, 64
1, 298082, Note_off_c, 4, 51, 64
1, 298083, Note_on_c, 3, 63, 127
1, 298083, Note_on_c, 4, 55, 127
1, 298084, Note_on_c, 4, 46, 127
1, 298116, Note_off_c, 2, 75, 64
1, 298363, Note_off_c, 4, 55, 64
1, 298364, Note_on_c, 4, 56, 127
1, 298506, Note_off_c, 3, 63, 64
1, 298507, Note_on_c, 2, 67, 125
1, 298507, Note_on_c, 3, 62, 127
1, 298617, Note_on_c, 3, 65, 123
1, 298623, Note_off_c, 2, 67, 64
1, 298648, Note_off_c, 3, 62, 64
1, 298670, Note_off_c, 3, 65, 64
1, 298671, Note_off_c, 4, 56, 64
1, 298671, Note_on_c, 3, 63, 127
1, 298672, Note_on_c, 4, 51, 127
1, 298814, Note_on_c, 4, 55, 127
1, 298839, Note_off_c, 4, 51, 64
1, 298956, Note_on_c, 4, 58, 127
1, 298981, Note_off_c, 4, 55, 64
1, 299099, Note_on_c, 4, 55, 127
1, 299122, Note_off_c, 4, 58, 64
1, 299239, Note_off_c, 3, 63, 64
1, 299239, Note_on_c, 2, 72, 127
1, 299240, Note_on_c, 4, 51, 127
1, 299265, Note_off_c, 4, 55, 64
1, 299372, Note_on_c, 4, 56, 127
1, 299393, Note_off_c, 4, 51, 64
1, 299503, Note_on_c, 3, 60, 127
1, 299526, Note_off_c, 4, 56, 64
1, 299631, Note_off_c, 2, 72, 64
1, 299632, Note_on_c, 4, 56, 127
1, 299632, Note_on_c, 2, 75, 126
1, 299659, Note_off_c, 3, 60, 64
1, 299709, Note_on_c, 2, 72, 127
1, 299719, Note_off_c, 2, 75, 64
1, 299779, Note_on_c, 2, 70, 127
1, 299779, Note_on_c, 4, 51, 127
1, 299787, Note_off_c, 2, 72, 64
1, 299803, Note_off_c, 4, 56, 64
1, 299855, Note_on_c, 1, 79, 123
1, 299864, Note_off_c, 2, 70, 64
1, 299918, Note_on_c, 4, 55, 127
1, 299918, Note_on_c, 2, 77, 126
1, 299926, Note_off_c, 1, 79, 64
1, 299940, Note_off_c, 4, 51, 64
1, 299978, Note_on_c, 2, 75, 126
1, 299988, Note_off_c, 2, 77, 64
1, 300046, Note_on_c, 2, 74, 126
1, 300046, Note_on_c, 4, 58, 127
1, 300052, Note_off_c, 2, 75, 64
1, 300066, Note_off_c, 4, 55, 64
1, 300102, Note_on_c, 2, 75, 126
1, 300109, Note_off_c, 2, 74, 64
1, 300160, Note_on_c, 4, 55, 127
1, 300160, Note_on_c, 2, 77, 126
1, 300166, Note_off_c, 2, 75, 64
1, 300178, Note_off_c, 4, 58, 64
1, 300224, Note_on_c, 2, 75, 126
1, 300233, Note_off_c, 2, 77, 64
1, 300293, Note_on_c, 2, 72, 127
1, 300294, Note_on_c, 4, 51, 127
1, 300301, Note_off_c, 2, 75, 64
1, 300315, Note_off_c, 4, 55, 64
1, 300434, Note_on_c, 4, 56, 127
1, 300457, Note_off_c, 4, 51, 64
1, 300575, Note_on_c, 3, 60, 127
1, 300598, Note_off_c, 4, 56, 64
1, 300711, Note_off_c, 2, 72, 64
1, 300711, Note_on_c, 2, 75, 126
1, 300712, Note_on_c, 4, 56, 127
1, 300733, Note_off_c, 3, 60, 64
1, 300783, Note_on_c, 2, 72, 127
1, 300791, Note_off_c, 2, 75, 64
1, 300844, Note_off_c, 4, 46, 64
1, 300845, Note_on_c, 4, 58, 127
1, 300845, Note_on_c, 2, 70, 127
1, 300846, Note_on_c, 4, 55, 127
1, 300846, Note_on_c, 4, 51, 127
1, 300852, Note_off_c, 2, 72, 64
1, 300864, Note_off_c, 4, 56, 64
1, 300906, Note_on_c, 1, 79, 123
1, 300915, Note_off_c, 2, 70, 64
1, 300970, Note_on_c, 2, 77, 126
1, 300980, Note_off_c, 1, 79, 64
1, 301028, Note_on_c, 2, 75, 126
1, 301033, Note_off_c, 2, 77, 64
1, 301083, Note_on_c, 2, 74, 126
1, 301089, Note_off_c, 2, 75, 64
1, 301139, Note_on_c, 2, 75, 126
1, 301149, Note_off_c, 2, 74, 64
1, 301198, Note_on_c, 2, 77, 126
1, 301208, Note_off_c, 2, 75, 64
1, 301266, Note_on_c, 2, 75, 126
1, 301270, Note_off_c, 2, 77, 64
1, 301325, Note_off_c, 4, 51, 64
1, 301326, Note_off_c, 4, 58, 64
1, 301326, Note_off_c, 4, 55, 64
1, 301327, Note_on_c, 4, 53, 127
1, 301327, Note_on_c, 4, 48, 127
1, 301328, Note_on_c, 4, 44, 127
1, 301376, Note_off_c, 2, 75, 64
1, 301386, Note_on_c, 2, 75, 126
1, 301451, Note_on_c, 2, 74, 126
1, 301461, Note_off_c, 2, 75, 64
1, 301508, Note_on_c, 2, 72, 127
1, 301517, Note_off_c, 2, 74, 64
1, 301575, Note_on_c, 2, 71, 127
1, 301583, Note_off_c, 2, 72, 64
1, 301636, Note_on_c, 2, 72, 127
1, 301646, Note_off_c, 2, 71, 64
1, 301697, Note_on_c, 2, 74, 126
1, 301704, Note_off_c, 2, 72, 64
1, 301770, Note_on_c, 2, 72, 127
1, 301775, Note_off_c, 2, 74, 64
1, 301824, Note_off_c, 4, 48, 64
1, 301824, Note_off_c, 4, 53, 64
1, 301824, Note_off_c, 4, 44, 64
1, 301825, Note_on_c, 4, 55, 127
1, 301825, Note_on_c, 4, 46, 127
1, 301881, Note_off_c, 2, 72, 64
1, 301888, Note_on_c, 2, 70, 127
1, 301940, Note_on_c, 2, 75, 126
1, 301947, Note_off_c, 2, 70, 64
1, 302005, Note_on_c, 2, 70, 127
1, 302013, Note_off_c, 2, 75, 64
1, 302045, Note_off_c, 4, 46, 64
1, 302065, Note_off_c, 4, 55, 64
1, 302065, Note_on_c, 4, 51, 127
1, 302065, Note_on_c, 4, 46, 127
1, 302115, Note_off_c, 2, 70, 64
1, 302123, Note_on_c, 2, 67, 127
1, 302177, Note_on_c, 2, 70, 127
1, 302183, Note_off_c, 2, 67, 64
1, 302240, Note_on_c, 2, 67, 127
1, 302248, Note_off_c, 2, 70, 64
1, 302280, Note_off_c, 4, 46, 64
1, 302300, Note_off_c, 4, 51, 64
1, 302301, Note_on_c, 4, 53, 127
1, 302301, Note_on_c, 4, 46, 127
1, 302356, Note_off_c, 2, 67, 64
1, 302366, Note_on_c, 2, 68, 127
1, 302434, Note_on_c, 2, 72, 127
1, 302441, Note_off_c, 2, 68, 64
1, 302505, Note_on_c, 2, 68, 127
1, 302512, Note_off_c, 2, 72, 64
1, 302543, Note_off_c, 4, 46, 64
1, 302560, Note_off_c, 4, 53, 64
1, 302561, Note_on_c, 4, 56, 127
1, 302561, Note_on_c, 4, 46, 127
1, 302609, Note_off_c, 2, 68, 64
1, 302617, Note_on_c, 3, 62, 127
1, 302673, Note_on_c, 3, 65, 127
1, 302680, Note_off_c, 3, 62, 64
1, 302732, Note_on_c, 3, 62, 127
1, 302739, Note_off_c, 3, 65, 64
1, 302770, Note_off_c, 4, 46, 64
1, 302788, Note_off_c, 4, 56, 64
1, 302788, Note_on_c, 3, 63, 127
1, 302789, Note_on_c, 4, 51, 127
1, 302796, Note_off_c, 3, 62, 64
1, 302910, Note_on_c, 4, 55, 127
1, 302933, Note_off_c, 4, 51, 64
1, 303040, Note_on_c, 4, 58, 127
1, 303061, Note_off_c, 4, 55, 64
1, 303106, Note_off_c, 3, 63, 64
1, 303106, Note_on_c, 2, 75, 126
1, 303180, Note_on_c, 2, 74, 126
1, 303180, Note_on_c, 4, 55, 127
1, 303190, Note_off_c, 2, 75, 64
1, 303202, Note_off_c, 4, 58, 64
1, 303240, Note_on_c, 2, 73, 126
1, 303248, Note_off_c, 2, 74, 64
1, 303303, Note_on_c, 2, 71, 127
1, 303304, Note_on_c, 4, 51, 127
1, 303312, Note_off_c, 2, 73, 64
1, 303325, Note_off_c, 4, 55, 64
1, 303425, Note_off_c, 2, 71, 64
1, 303435, Note_on_c, 2, 72, 126
1, 303435, Note_on_c, 4, 56, 127
1, 303459, Note_off_c, 4, 51, 64
1, 303564, Note_off_c, 2, 72, 64
1, 303574, Note_on_c, 2, 72, 126
1, 303575, Note_on_c, 3, 60, 127
1, 303596, Note_off_c, 4, 56, 64
1, 303627, Note_off_c, 2, 72, 64
1, 303642, Note_on_c, 2, 75, 126
1, 303684, Note_on_c, 2, 74, 126
1, 303694, Note_off_c, 2, 75, 64
1, 303715, Note_on_c, 2, 77, 126
1, 303716, Note_on_c, 4, 56, 127
1, 303728, Note_off_c, 2, 74, 64
1, 303747, Note_off_c, 3, 60, 64
1, 303760, Note_on_c, 2, 75, 126
1, 303774, Note_off_c, 2, 77, 64
1, 303801, Note_on_c, 2, 74, 126
1, 303814, Note_off_c, 2, 75, 64
1, 303841, Note_on_c, 2, 72, 126
1, 303856, Note_off_c, 2, 74, 64
1, 303876, Note_on_c, 2, 70, 127
1, 303876, Note_on_c, 4, 51, 127
1, 303886, Note_off_c, 2, 72, 64
1, 303896, Note_off_c, 4, 56, 64
1, 303944, Note_on_c, 1, 79, 123
1, 303951, Note_off_c, 2, 70, 64
1, 304017, Note_on_c, 2, 77, 126
1, 304017, Note_on_c, 4, 55, 127
1, 304023, Note_off_c, 1, 79, 64
1, 304037, Note_off_c, 4, 51, 64
1, 304078, Note_on_c, 2, 75, 126
1, 304085, Note_off_c, 2, 77, 64
1, 304142, Note_on_c, 2, 74, 126
1, 304143, Note_on_c, 4, 58, 127
1, 304151, Note_off_c, 2, 75, 64
1, 304164, Note_off_c, 4, 55, 64
1, 304205, Note_on_c, 2, 75, 126
1, 304212, Note_off_c, 2, 74, 64
1, 304264, Note_on_c, 2, 77, 126
1, 304265, Note_on_c, 4, 55, 127
1, 304275, Note_off_c, 2, 75, 64
1, 304286, Note_off_c, 4, 58, 64
1, 304329, Note_on_c, 2, 75, 126
1, 304336, Note_off_c, 2, 77, 64
1, 304386, Note_on_c, 2, 74, 126
1, 304387, Note_on_c, 4, 51, 127
1, 304395, Note_off_c, 2, 75, 64
1, 304408, Note_off_c, 4, 55, 64
1, 304487, Note_off_c, 2, 74, 64
1, 304489, Note_on_c, 2, 72, 126
1, 304526, Note_on_c, 1, 84, 123
1, 304526, Note_on_c, 4, 56, 127
1, 304553, Note_off_c, 4, 51, 64
1, 304571, Note_off_c, 2, 72, 64
1, 304663, Note_on_c, 3, 60, 127
1, 304676, Note_off_c, 1, 84, 64
1, 304686, Note_off_c, 4, 56, 64
1, 304699, Note_on_c, 1, 82, 116
1, 304738, Note_on_c, 1, 80, 116
1, 304749, Note_off_c, 1, 82, 64
1, 304774, Note_on_c, 1, 79, 116
1, 304790, Note_off_c, 1, 80, 64
1, 304818, Note_on_c, 2, 77, 119
1, 304818, Note_on_c, 4, 56, 127
1, 304832, Note_off_c, 1, 79, 64
1, 304846, Note_off_c, 3, 60, 64
1, 304860, Note_on_c, 2, 75, 126
1, 304874, Note_off_c, 2, 77, 64
1, 304899, Note_on_c, 2, 74, 126
1, 304910, Note_off_c, 2, 75, 64
1, 304933, Note_on_c, 2, 72, 126
1, 304945, Note_off_c, 2, 74, 64
1, 304972, Note_on_c, 2, 70, 127
1, 304973, Note_on_c, 4, 58, 127
1, 304973, Note_on_c, 4, 55, 127
1, 304974, Note_on_c, 4, 51, 127
1, 304984, Note_off_c, 2, 72, 64
1, 304993, Note_off_c, 4, 56, 64
1, 305032, Note_on_c, 1, 79, 116
1, 305041, Note_off_c, 2, 70, 64
1, 305101, Note_on_c, 2, 77, 119
1, 305109, Note_off_c, 1, 79, 64
1, 305159, Note_on_c, 2, 75, 126
1, 305165, Note_off_c, 2, 77, 64
1, 305225, Note_on_c, 2, 74, 126
1, 305232, Note_off_c, 2, 75, 64
1, 305280, Note_on_c, 2, 75, 126
1, 305288, Note_off_c, 2, 74, 64
1, 305338, Note_on_c, 2, 77, 126
1, 305344, Note_off_c, 2, 75, 64
1, 305396, Note_on_c, 2, 75, 126
1, 305405, Note_off_c, 2, 77, 64
1, 305443, Note_off_c, 4, 58, 64
1, 305460, Note_off_c, 4, 55, 64
1, 305460, Note_off_c, 4, 51, 64
1, 305461, Note_on_c, 3, 62, 127
1, 305461, Note_on_c, 4, 58, 127
1, 305462, Note_on_c, 4, 56, 127
1, 305462, Note_on_c, 4, 53, 127
1, 305513, Note_on_c, 1, 80, 123
1, 305529, Note_off_c, 2, 75, 64
1, 305578, Note_on_c, 1, 79, 123
1, 305586, Note_off_c, 1, 80, 64
1, 305634, Note_on_c, 2, 77, 126
1, 305643, Note_off_c, 1, 79, 64
1, 305695, Note_on_c, 2, 76, 127
1, 305705, Note_off_c, 2, 77, 64
1, 305754, Note_on_c, 2, 77, 126
1, 305760, Note_off_c, 2, 76, 64
1, 305819, Note_on_c, 1, 79, 123
1, 305827, Note_off_c, 2, 77, 64
1, 305880, Note_on_c, 2, 77, 126
1, 305888, Note_off_c, 1, 79, 64
1, 305950, Note_on_c, 1, 82, 123
1, 305960, Note_off_c, 2, 77, 64
1, 306039, Note_off_c, 4, 53, 64
1, 306039, Note_off_c, 4, 56, 64
1, 306040, Note_off_c, 4, 58, 64
1, 306040, Note_off_c, 3, 62, 64
1, 306087, Note_on_c, 4, 55, 127
1, 306223, Note_on_c, 4, 58, 127
1, 306240, Note_off_c, 4, 55, 64
1, 306344, Note_on_c, 3, 63, 127
1, 306367, Note_off_c, 4, 58, 64
1, 306471, Note_off_c, 1, 82, 64
1, 306471, Note_on_c, 4, 55, 127
1, 306489, Note_off_c, 3, 63, 64
1, 306584, Note_on_c, 4, 36, 127
1, 306712, Note_on_c, 4, 39, 127
1, 306735, Note_off_c, 4, 36, 64
1, 306847, Note_on_c, 4, 48, 127
1, 306864, Note_off_c, 4, 39, 64
1, 306963, Note_off_c, 4, 55, 64
1, 306963, Note_on_c, 4, 53, 127
1, 306987, Note_off_c, 4, 48, 64
1, 307083, Note_on_c, 4, 32, 127
1, 307202, Note_on_c, 4, 36, 127
1, 307223, Note_off_c, 4, 32, 64
1, 307325, Note_on_c, 4, 41, 127
1, 307344, Note_off_c, 4, 36, 64
1, 307446, Note_off_c, 4, 53, 64
1, 307446, Note_on_c, 4, 51, 127
1, 307468, Note_off_c, 4, 41, 64
1, 307573, Note_on_c, 4, 33, 127
1, 307712, Note_on_c, 4, 36, 127
1, 307733, Note_off_c, 4, 33, 64
1, 307836, Note_on_c, 4, 39, 127
1, 307854, Note_off_c, 4, 36, 64
1, 307973, Note_on_c, 4, 34, 127
1, 307994, Note_off_c, 4, 39, 64
1, 308057, Note_off_c, 4, 51, 64
1, 308090, Note_on_c, 4, 50, 127
1, 308215, Note_off_c, 4, 34, 64
1, 308215, Note_on_c, 4, 39, 127
1, 308331, Note_off_c, 4, 50, 64
1, 308331, Note_on_c, 4, 48, 127
1, 308447, Note_off_c, 4, 39, 64
1, 308448, Note_on_c, 4, 38, 127
1, 308565, Note_off_c, 4, 48, 64
1, 308566, Note_on_c, 4, 46, 127
1, 308697, Note_off_c, 4, 38, 64
1, 308697, Note_on_c, 4, 36, 127
1, 308799, Note_off_c, 4, 46, 64
1, 308800, Note_on_c, 4, 45, 127
1, 308919, Note_off_c, 4, 36, 64
1, 308920, Note_on_c, 4, 44, 127
1, 308920, Note_on_c, 4, 41, 127
1, 308921, Note_on_c, 4, 38, 127
1, 308921, Note_on_c, 4, 34, 127
1, 308931, Note_off_c, 4, 45, 64
1, 309471, Note_off_c, 4, 34, 64
1, 309471, Note_off_c, 4, 38, 64
1, 309472, Note_off_c, 4, 41, 64
1, 309472, Note_off_c, 4, 44, 64
1, 309473, Note_on_c, 4, 46, 127
1, 309563, Note_on_c, 4, 44, 127
1, 309588, Note_off_c, 4, 46, 64
1, 309638, Note_on_c, 4, 43, 127
1, 309660, Note_off_c, 4, 44, 64
1, 309697, Note_on_c, 4, 44, 127
1, 309717, Note_off_c, 4, 43, 64
1, 309763, Note_on_c, 4, 46, 127
1, 309781, Note_off_c, 4, 44, 64
1, 309818, Note_on_c, 4, 48, 127
1, 309837, Note_off_c, 4, 46, 64
1, 309879, Note_on_c, 4, 50, 127
1, 309896, Note_off_c, 4, 48, 64
1, 309933, Note_on_c, 4, 51, 127
1, 309948, Note_off_c, 4, 50, 64
1, 309981, Note_on_c, 4, 53, 127
1, 309997, Note_off_c, 4, 51, 64
1, 310031, Note_on_c, 4, 55, 127
1, 310048, Note_off_c, 4, 53, 64
1, 310079, Note_on_c, 4, 56, 127
1, 310096, Note_off_c, 4, 55, 64
1, 310128, Note_on_c, 4, 58, 127
1, 310144, Note_off_c, 4, 56, 64
1, 310174, Note_on_c, 3, 60, 127
1, 310189, Note_off_c, 4, 58, 64
1, 310218, Note_on_c, 3, 62, 127
1, 310233, Note_off_c, 3, 60, 64
1, 310262, Note_on_c, 3, 63, 127
1, 310275, Note_off_c, 3, 62, 64
1, 310300, Note_on_c, 3, 65, 123
1, 310314, Note_off_c, 3, 63, 64
1, 310341, Note_on_c, 2, 67, 125
1, 310354, Note_off_c, 3, 65, 64
1, 310379, Note_on_c, 2, 68, 125
1, 310392, Note_off_c, 2, 67, 64
1, 310419, Note_on_c, 2, 70, 127
1, 310431, Note_off_c, 2, 68, 64
1, 310456, Note_on_c, 3, 72, 126
1, 310469, Note_off_c, 2, 70, 64
1, 310494, Note_on_c, 3, 74, 126
1, 310506, Note_off_c, 3, 72, 64
1, 310531, Note_on_c, 3, 75, 126
1, 310544, Note_off_c, 3, 74, 64
1, 310569, Note_on_c, 3, 77, 126
1, 310581, Note_off_c, 3, 75, 64
1, 310604, Note_on_c, 3, 79, 123
1, 310615, Note_off_c, 3, 77, 64
1, 310638, Note_on_c, 3, 80, 123
1, 310650, Note_off_c, 3, 79, 64
1, 310673, Note_on_c, 3, 82, 123
1, 310684, Note_off_c, 3, 80, 64
1, 310707, Note_on_c, 3, 84, 123
1, 310719, Note_off_c, 3, 82, 64
1, 310742, Note_on_c, 3, 86, 123
1, 310752, Note_off_c, 3, 84, 64
1, 310775, Note_on_c, 1, 87, 123
1, 310786, Note_off_c, 3, 86, 64
1, 310807, Note_on_c, 1, 89, 125
1, 310819, Note_off_c, 1, 87, 64
1, 310871, Note_on_c, 1, 86, 123
1, 310878, Note_off_c, 1, 89, 64
1, 310949, Note_on_c, 1, 82, 123
1, 310963, Note_off_c, 1, 86, 64
1, 311022, Note_on_c, 3, 81, 123
1, 311030, Note_off_c, 1, 82, 64
1, 311131, Note_on_c, 3, 80, 123
1, 311137, Note_off_c, 3, 81, 64
1, 311447, Note_on_c, 4, 51, 127
1, 311458, Note_off_c, 3, 80, 64
1, 311514, Note_on_c, 1, 79, 123
1, 311579, Note_on_c, 1, 82, 123
1, 311589, Note_off_c, 1, 79, 64
1, 311647, Note_on_c, 1, 79, 123
1, 311655, Note_off_c, 1, 82, 64
1, 311711, Note_on_c, 4, 55, 127
1, 311730, Note_off_c, 4, 51, 64
1, 311771, Note_on_c, 2, 75, 126
1, 311794, Note_off_c, 1, 79, 64
1, 311836, Note_on_c, 1, 79, 123
1, 311845, Note_off_c, 2, 75, 64
1, 311901, Note_on_c, 2, 75, 126
1, 311911, Note_off_c, 1, 79, 64
1, 311966, Note_on_c, 4, 56, 127
1, 311988, Note_off_c, 4, 55, 64
1, 312025, Note_on_c, 2, 72, 126
1, 312045, Note_off_c, 2, 75, 64
1, 312089, Note_on_c, 2, 75, 126
1, 312098, Note_off_c, 2, 72, 64
1, 312155, Note_on_c, 2, 72, 126
1, 312164, Note_off_c, 2, 75, 64
1, 312216, Note_on_c, 3, 60, 127
1, 312235, Note_off_c, 4, 56, 64
1, 312274, Note_on_c, 2, 68, 127
1, 312295, Note_off_c, 2, 72, 64
1, 312339, Note_on_c, 2, 72, 126
1, 312348, Note_off_c, 2, 68, 64
1, 312400, Note_on_c, 2, 68, 127
1, 312408, Note_off_c, 2, 72, 64
1, 312458, Note_on_c, 2, 67, 127
1, 312458, Note_on_c, 4, 46, 127
1, 312465, Note_off_c, 2, 68, 64
1, 312476, Note_off_c, 3, 60, 64
1, 312516, Note_on_c, 2, 70, 127
1, 312524, Note_off_c, 2, 67, 64
1, 312578, Note_on_c, 4, 55, 127
1, 312636, Note_on_c, 2, 69, 127
1, 312645, Note_off_c, 2, 70, 64
1, 312691, Note_on_c, 4, 51, 127
1, 312710, Note_off_c, 4, 46, 64
1, 312747, Note_on_c, 2, 68, 127
1, 312758, Note_off_c, 2, 69, 64
1, 312789, Note_off_c, 4, 55, 64
1, 312806, Note_on_c, 4, 55, 127
1, 312868, Note_on_c, 2, 67, 127
1, 312879, Note_off_c, 2, 68, 64
1, 312917, Note_off_c, 2, 67, 64
1, 312938, Note_on_c, 4, 46, 127
1, 312938, Note_on_c, 3, 65, 127
1, 312972, Note_off_c, 4, 51, 64
1, 312989, Note_on_c, 2, 67, 127
1, 313008, Note_off_c, 3, 65, 64
1, 313029, Note_on_c, 3, 65, 127
1, 313046, Note_off_c, 2, 67, 64
1, 313070, Note_on_c, 2, 67, 127
1, 313083, Note_off_c, 4, 55, 64
1, 313085, Note_off_c, 3, 65, 64
1, 313104, Note_on_c, 4, 56, 127
1, 313104, Note_on_c, 3, 65, 127
1, 313120, Note_off_c, 2, 67, 64
1, 313141, Note_on_c, 2, 67, 127
1, 313159, Note_off_c, 3, 65, 64
1, 313174, Note_on_c, 3, 65, 127
1, 313189, Note_off_c, 2, 67, 64
1, 313209, Note_on_c, 2, 67, 127
1, 313224, Note_off_c, 3, 65, 64
1, 313243, Note_on_c, 3, 65, 127
1, 313244, Note_on_c, 4, 53, 127
1, 313260, Note_off_c, 2, 67, 64
1, 313265, Note_off_c, 4, 46, 64
1, 313277, Note_on_c, 2, 67, 127
1, 313290, Note_off_c, 3, 65, 64
1, 313308, Note_on_c, 3, 65, 127
1, 313325, Note_off_c, 2, 67, 64
1, 313344, Note_on_c, 2, 67, 127
1, 313359, Note_off_c, 4, 56, 64
1, 313363, Note_off_c, 3, 65, 64
1, 313384, Note_on_c, 3, 63, 127
1, 313385, Note_on_c, 4, 56, 127
1, 313399, Note_off_c, 4, 53, 64
1, 313401, Note_off_c, 2, 67, 64
1, 313449, Note_on_c, 3, 65, 127
1, 313456, Note_off_c, 3, 63, 64
1, 313508, Note_on_c, 3, 63, 127
1, 313509, Note_on_c, 4, 51, 127
1, 313517, Note_off_c, 3, 65, 64
1, 313521, Note_off_c, 4, 56, 64
1, 313574, Note_on_c, 4, 55, 127
1, 313582, Note_off_c, 4, 51, 64
1, 313634, Note_on_c, 4, 58, 127
1, 313642, Note_off_c, 4, 55, 64
1, 313707, Note_on_c, 4, 55, 127
1, 313715, Note_off_c, 4, 58, 64
1, 313764, Note_on_c, 4, 58, 127
1, 313772, Note_off_c, 4, 55, 64
1, 313836, Note_on_c, 4, 55, 127
1, 313844, Note_off_c, 4, 58, 64
1, 313896, Note_on_c, 4, 58, 127
1, 313904, Note_off_c, 4, 55, 64
1, 313965, Note_on_c, 4, 55, 127
1, 313975, Note_off_c, 4, 58, 64
1, 313988, Note_off_c, 3, 63, 64
1, 314033, Note_on_c, 4, 56, 127
1, 314033, Note_on_c, 4, 46, 127
1, 314033, Note_on_c, 3, 62, 127
1, 314041, Note_off_c, 4, 55, 64
1, 314097, Note_on_c, 3, 65, 127
1, 314102, Note_off_c, 3, 62, 64
1, 314154, Note_on_c, 2, 72, 126
1, 314161, Note_off_c, 3, 65, 64
1, 314225, Note_on_c, 3, 70, 127
1, 314232, Note_off_c, 2, 72, 64
1, 314279, Note_on_c, 2, 72, 126
1, 314286, Note_off_c, 3, 70, 64
1, 314350, Note_on_c, 3, 70, 127
1, 314355, Note_off_c, 2, 72, 64
1, 314405, Note_on_c, 2, 72, 126
1, 314412, Note_off_c, 3, 70, 64
1, 314469, Note_on_c, 3, 70, 127
1, 314477, Note_off_c, 2, 72, 64
1, 314527, Note_off_c, 3, 70, 64
1, 314531, Note_off_c, 4, 46, 64
1, 314532, Note_off_c, 4, 56, 64
1, 314532, Note_on_c, 3, 70, 127
1, 314532, Note_on_c, 4, 51, 127
1, 314596, Note_on_c, 4, 55, 127
1, 314604, Note_off_c, 4, 51, 64
1, 314652, Note_on_c, 4, 58, 127
1, 314658, Note_off_c, 4, 55, 64
1, 314718, Note_on_c, 4, 55, 127
1, 314725, Note_off_c, 3, 70, 64
1, 314727, Note_off_c, 4, 58, 64
1, 314780, Note_on_c, 2, 75, 126
1, 314780, Note_on_c, 4, 58, 127
1, 314786, Note_off_c, 4, 55, 64
1, 314842, Note_on_c, 4, 55, 127
1, 314852, Note_off_c, 4, 58, 64
1, 314904, Note_on_c, 4, 58, 127
1, 314911, Note_off_c, 4, 55, 64
1, 314967, Note_on_c, 4, 55, 127
1, 314975, Note_off_c, 4, 58, 64
1, 315023, Note_on_c, 3, 62, 127
1, 315024, Note_on_c, 4, 56, 127
1, 315024, Note_on_c, 4, 46, 127
1, 315032, Note_off_c, 4, 55, 64
1, 315046, Note_off_c, 2, 75, 64
1, 315088, Note_on_c, 3, 65, 127
1, 315096, Note_off_c, 3, 62, 64
1, 315145, Note_on_c, 2, 72, 126
1, 315153, Note_off_c, 3, 65, 64
1, 315211, Note_on_c, 3, 70, 127
1, 315218, Note_off_c, 2, 72, 64
1, 315270, Note_on_c, 2, 72, 126
1, 315278, Note_off_c, 3, 70, 64
1, 315336, Note_on_c, 3, 70, 127
1, 315341, Note_off_c, 2, 72, 64
1, 315393, Note_on_c, 2, 72, 126
1, 315401, Note_off_c, 3, 70, 64
1, 315460, Note_on_c, 3, 70, 127
1, 315468, Note_off_c, 2, 72, 64
1, 315498, Note_off_c, 3, 70, 64
1, 315518, Note_off_c, 4, 46, 64
1, 315518, Note_off_c, 4, 56, 64
1, 315519, Note_on_c, 3, 70, 127
1, 315519, Note_on_c, 4, 51, 127
1, 315585, Note_on_c, 4, 55, 127
1, 315593, Note_off_c, 4, 51, 64
1, 315648, Note_on_c, 4, 58, 127
1, 315656, Note_off_c, 4, 55, 64
1, 315714, Note_on_c, 4, 55, 127
1, 315719, Note_off_c, 3, 70, 64
1, 315721, Note_off_c, 4, 58, 64
1, 315775, Note_on_c, 3, 63, 127
1, 315776, Note_on_c, 4, 58, 127
1, 315782, Note_off_c, 4, 55, 64
1, 315845, Note_on_c, 4, 55, 127
1, 315853, Note_off_c, 4, 58, 64
1, 315907, Note_on_c, 4, 58, 127
1, 315914, Note_off_c, 4, 55, 64
1, 315972, Note_on_c, 4, 55, 127
1, 315981, Note_off_c, 4, 58, 64
1, 316031, Note_off_c, 3, 63, 64
1, 316031, Note_on_c, 3, 62, 127
1, 316032, Note_on_c, 4, 56, 127
1, 316032, Note_on_c, 4, 46, 127
1, 316038, Note_off_c, 4, 55, 64
1, 316090, Note_on_c, 3, 65, 127
1, 316098, Note_off_c, 3, 62, 64
1, 316150, Note_on_c, 2, 72, 126
1, 316157, Note_off_c, 3, 65, 64
1, 316215, Note_on_c, 3, 70, 127
1, 316224, Note_off_c, 2, 72, 64
1, 316271, Note_on_c, 2, 72, 126
1, 316276, Note_off_c, 3, 70, 64
1, 316334, Note_on_c, 3, 70, 127
1, 316342, Note_off_c, 2, 72, 64
1, 316390, Note_on_c, 2, 72, 126
1, 316394, Note_off_c, 3, 70, 64
1, 316453, Note_on_c, 3, 70, 127
1, 316463, Note_off_c, 2, 72, 64
1, 316505, Note_off_c, 3, 70, 64
1, 316509, Note_off_c, 4, 46, 64
1, 316510, Note_off_c, 4, 56, 64
1, 316510, Note_on_c, 3, 70, 127
1, 316511, Note_on_c, 4, 55, 127
1, 316511, Note_on_c, 4, 51, 127
1, 316572, Note_on_c, 3, 63, 127
1, 316620, Note_off_c, 3, 70, 64
1, 316630, Note_on_c, 2, 75, 127
1, 316689, Note_off_c, 2, 75, 64
1, 316699, Note_on_c, 2, 75, 127
1, 316762, Note_off_c, 2, 75, 64
1, 316766, Note_on_c, 2, 75, 127
1, 316832, Note_off_c, 3, 63, 64
1, 316832, Note_on_c, 3, 67, 127
1, 316882, Note_off_c, 2, 75, 64
1, 316890, Note_on_c, 1, 79, 112
1, 316935, Note_off_c, 1, 79, 64
1, 316949, Note_on_c, 1, 79, 108
1, 317004, Note_off_c, 1, 79, 64
1, 317014, Note_on_c, 1, 79, 112
1, 317079, Note_off_c, 3, 67, 64
1, 317080, Note_on_c, 3, 70, 115
1, 317130, Note_off_c, 1, 79, 64
1, 317138, Note_on_c, 1, 82, 125
1, 317184, Note_off_c, 1, 82, 64
1, 317199, Note_on_c, 1, 82, 125
1, 317238, Note_off_c, 4, 51, 64
1, 317239, Note_off_c, 4, 55, 64
1, 317255, Note_off_c, 1, 82, 64
1, 317259, Note_off_c, 3, 70, 64
1, 317259, Note_on_c, 1, 82, 125
1, 317260, Note_on_c, 2, 68, 127
1, 317260, Note_on_c, 3, 62, 127
1, 317261, Note_on_c, 4, 58, 127
1, 317307, Note_off_c, 1, 82, 64
1, 317322, Note_on_c, 1, 82, 125
1, 317388, Note_off_c, 1, 82, 64
1, 317392, Note_on_c, 1, 82, 125
1, 317442, Note_off_c, 1, 82, 64
1, 317458, Note_on_c, 1, 82, 125
1, 317523, Note_off_c, 3, 62, 64
1, 317523, Note_off_c, 4, 58, 64
1, 317524, Note_off_c, 2, 68, 64
1, 317524, Note_on_c, 2, 75, 127
1, 317525, Note_on_c, 2, 67, 127
1, 317525, Note_on_c, 3, 63, 127
1, 317581, Note_off_c, 1, 82, 64
1, 317791, Note_off_c, 3, 63, 64
1, 317791, Note_off_c, 2, 67, 64
1, 317792, Note_off_c, 2, 75, 64
1, 317792, Note_on_c, 1, 82, 125
1, 317793, Note_on_c, 2, 68, 127
1, 317793, Note_on_c, 3, 62, 127
1, 317794, Note_on_c, 4, 58, 127
1, 317842, Note_off_c, 1, 82, 64
1, 317857, Note_on_c, 1, 82, 125
1, 317918, Note_off_c, 1, 82, 64
1, 317924, Note_on_c, 1, 82, 125
1, 317972, Note_off_c, 1, 82, 64
1, 317988, Note_on_c, 1, 82, 125
1, 318049, Note_off_c, 3, 62, 64
1, 318049, Note_off_c, 4, 58, 64
1, 318050, Note_off_c, 2, 68, 64
1, 318050, Note_on_c, 2, 75, 127
1, 318051, Note_on_c, 2, 67, 127
1, 318051, Note_on_c, 3, 63, 127
1, 318104, Note_off_c, 1, 82, 64
1, 318298, Note_off_c, 3, 63, 64
1, 318298, Note_off_c, 2, 67, 64
1, 318299, Note_off_c, 2, 75, 64
1, 318299, Note_on_c, 1, 82, 125
1, 318300, Note_on_c, 2, 68, 127
1, 318300, Note_on_c, 3, 62, 127
1, 318300, Note_on_c, 4, 58, 127
1, 318350, Note_off_c, 1, 82, 64
1, 318370, Note_on_c, 1, 82, 125
1, 318444, Note_off_c, 1, 82, 64
1, 318450, Note_on_c, 1, 82, 125
1, 318514, Note_off_c, 1, 82, 64
1, 318533, Note_on_c, 1, 82, 125
1, 318614, Note_off_c, 4, 58, 64
1, 318614, Note_off_c, 3, 62, 64
1, 318614, Note_off_c, 2, 68, 64
1, 318615, Note_on_c, 1, 87, 125
1, 318615, Note_on_c, 2, 67, 127
1, 318616, Note_on_c, 3, 63, 127
1, 318624, Note_off_c, 1, 82, 64
1, 318982, Note_off_c, 2, 67, 64
1, 318982, Note_off_c, 3, 63, 64
1, 318983, Note_off_c, 1, 87, 64
1, 318983, Note_on_c, 3, 62, 127
1, 318983, Note_on_c, 4, 58, 127
1, 318984, Note_on_c, 4, 56, 127
1, 318984, Note_on_c, 4, 48, 127
1, 319015, Note_on_c, 4, 46, 127
1, 319022, Note_off_c, 4, 48, 64
1, 319086, Note_on_c, 4, 48, 127
1, 319105, Note_off_c, 4, 46, 64
1, 319171, Note_on_c, 4, 46, 127
1, 319190, Note_off_c, 4, 48, 64
1, 319238, Note_on_c, 4, 48, 127
1, 319247, Note_off_c, 4, 46, 64
1, 319293, Note_on_c, 4, 46, 127
1, 319303, Note_off_c, 4, 48, 64
1, 319353, Note_on_c, 4, 48, 127
1, 319372, Note_off_c, 4, 46, 64
1, 319397, Note_on_c, 4, 46, 127
1, 319424, Note_off_c, 4, 48, 64
1, 319474, Note_on_c, 4, 43, 127
1, 319493, Note_off_c, 4, 46, 64
1, 319516, Note_off_c, 4, 58, 64
1, 319537, Note_off_c, 4, 56, 64
1, 319538, Note_off_c, 3, 62, 64
1, 319538, Note_on_c, 3, 63, 127
1, 319539, Note_on_c, 4, 58, 127
1, 319539, Note_on_c, 4, 55, 127
1, 319540, Note_on_c, 4, 39, 127
1, 319586, Note_off_c, 4, 43, 64
1, 319825, Note_off_c, 4, 58, 64
1, 319829, Note_off_c, 4, 39, 64
1, 319830, Note_off_c, 3, 63, 64
1, 319830, Note_off_c, 4, 55, 64
1, 319831, Note_on_c, 3, 65, 127
1, 319831, Note_on_c, 3, 62, 127
1, 319832, Note_on_c, 4, 58, 127
1, 319832, Note_on_c, 4, 56, 127
1, 319833, Note_on_c, 4, 46, 127
1, 319877, Note_off_c, 4, 46, 64
1, 319895, Note_on_c, 4, 46, 127
1, 319958, Note_off_c, 4, 46, 64
1, 319962, Note_on_c, 4, 46, 127
1, 320010, Note_off_c, 4, 46, 64
1, 320025, Note_on_c, 4, 46, 127
1, 320085, Note_off_c, 4, 58, 64
1, 320090, Note_off_c, 4, 56, 64
1, 320091, Note_off_c, 3, 62, 64
1, 320091, Note_off_c, 3, 65, 64
1, 320092, Note_on_c, 3, 63, 127
1, 320092, Note_on_c, 4, 58, 127
1, 320093, Note_on_c, 4, 55, 127
1, 320093, Note_on_c, 4, 39, 127
1, 320124, Note_off_c, 4, 46, 64
1, 320347, Note_off_c, 4, 58, 64
1, 320354, Note_off_c, 4, 39, 64
1, 320355, Note_off_c, 3, 63, 64
1, 320355, Note_off_c, 4, 55, 64
1, 320356, Note_on_c, 3, 65, 127
1, 320356, Note_on_c, 3, 62, 127
1, 320357, Note_on_c, 4, 58, 127
1, 320357, Note_on_c, 4, 56, 127
1, 320358, Note_on_c, 4, 34, 127
1, 320403, Note_off_c, 4, 34, 64
1, 320430, Note_on_c, 4, 34, 127
1, 320488, Note_off_c, 4, 34, 64
1, 320515, Note_on_c, 4, 34, 127
1, 320568, Note_off_c, 4, 34, 64
1, 320592, Note_on_c, 4, 34, 127
1, 320676, Note_off_c, 4, 58, 64
1, 320684, Note_off_c, 3, 62, 64
1, 320684, Note_off_c, 4, 56, 64
1, 320685, Note_off_c, 3, 65, 64
1, 320685, Note_on_c, 3, 63, 127
1, 320686, Note_on_c, 4, 58, 127
1, 320686, Note_on_c, 4, 55, 127
1, 320687, Note_on_c, 4, 39, 127
1, 320712, Note_off_c, 4, 34, 64
1, 323592, Note_off_c, 4, 55, 64
1, 323592, Note_off_c, 4, 58, 64
1, 323593, Note_off_c, 3, 63, 64
1, 323751, Note_on_c, 1, 79, 107
1, 323766, Note_off_c, 4, 39, 64
1, 323872, Note_on_c, 4, 63, 127
1, 323872, Note_on_c, 4, 60, 127
1, 323994, Note_off_c, 1, 79, 64
1, 323994, Note_on_c, 2, 75, 127
1, 324110, Note_off_c, 2, 75, 64
1, 324110, Note_on_c, 2, 72, 127
1, 324224, Note_off_c, 4, 60, 64
1, 324225, Note_off_c, 4, 63, 64
1, 324225, Note_on_c, 4, 65, 127
1, 324226, Note_on_c, 4, 62, 127
1, 324346, Note_off_c, 2, 72, 64
1, 324347, Note_on_c, 2, 71, 127
1, 324465, Note_off_c, 2, 71, 64
1, 324465, Note_on_c, 1, 80, 122
1, 324577, Note_off_c, 4, 62, 64
1, 324581, Note_off_c, 4, 65, 64
1, 324582, Note_on_c, 4, 62, 127
1, 324582, Note_on_c, 4, 59, 127
1, 324698, Note_off_c, 1, 80, 64
1, 324699, Note_on_c, 1, 79, 122
1, 324815, Note_off_c, 1, 79, 64
1, 324815, Note_on_c, 2, 77, 127
1, 324929, Note_off_c, 4, 59, 64
1, 324929, Note_off_c, 4, 62, 64
1, 324930, Note_on_c, 2, 67, 127
1, 324930, Note_on_c, 4, 60, 127
1, 325050, Note_off_c, 2, 77, 64
1, 325050, Note_on_c, 2, 75, 127
1, 325166, Note_off_c, 2, 75, 64
1, 325166, Note_on_c, 1, 79, 122
1, 325278, Note_off_c, 2, 67, 64
1, 325284, Note_off_c, 4, 60, 64
1, 325284, Note_on_c, 2, 67, 127
1, 325285, Note_on_c, 4, 63, 127
1, 325402, Note_off_c, 1, 79, 64
1, 325403, Note_on_c, 1, 84, 124
1, 325522, Note_off_c, 1, 84, 64
1, 325523, Note_off_c, 2, 67, 64
1, 325523, Note_off_c, 4, 63, 64
1, 325524, Note_on_c, 1, 82, 124
1, 325524, Note_on_c, 4, 64, 127
1, 325640, Note_off_c, 4, 64, 64
1, 325640, Note_on_c, 3, 68, 127
1, 325640, Note_on_c, 3, 65, 127
1, 325762, Note_off_c, 1, 82, 64
1, 325762, Note_on_c, 1, 80, 122
1, 325880, Note_off_c, 1, 80, 64
1, 325880, Note_off_c, 3, 65, 64
1, 325881, Note_off_c, 3, 68, 64
1, 325881, Note_on_c, 1, 79, 122
1, 325881, Note_on_c, 3, 70, 127
1, 325882, Note_on_c, 3, 67, 127
1, 325998, Note_off_c, 3, 70, 64
1, 325998, Note_off_c, 3, 67, 64
1, 325999, Note_on_c, 2, 72, 127
1, 325999, Note_on_c, 3, 68, 127
1, 326115, Note_off_c, 1, 79, 64
1, 326115, Note_on_c, 2, 77, 127
1, 326235, Note_off_c, 3, 68, 64
1, 326235, Note_off_c, 2, 77, 64
1, 326236, Note_off_c, 2, 72, 64
1, 326236, Note_on_c, 1, 78, 120
1, 326237, Note_on_c, 3, 69, 127
1, 326356, Note_off_c, 3, 69, 64
1, 326356, Note_on_c, 2, 72, 127
1, 326357, Note_on_c, 3, 67, 127
1, 326477, Note_off_c, 2, 72, 64
1, 326477, Note_off_c, 3, 67, 64
1, 326478, Note_off_c, 1, 78, 64
1, 326478, Note_on_c, 1, 79, 122
1, 326479, Note_on_c, 3, 71, 127
1, 326597, Note_off_c, 3, 71, 64
1, 326597, Note_off_c, 1, 79, 64
1, 326598, Note_on_c, 3, 67, 127
1, 326715, Note_on_c, 4, 51, 127
1, 326715, Note_on_c, 4, 48, 127
1, 326837, Note_off_c, 3, 67, 64
1, 326837, Note_on_c, 3, 63, 127
1, 326953, Note_off_c, 3, 63, 64
1, 326953, Note_on_c, 3, 60, 127
1, 327065, Note_off_c, 4, 48, 64
1, 327066, Note_off_c, 4, 51, 64
1, 327066, Note_on_c, 4, 53, 127
1, 327067, Note_on_c, 4, 50, 127
1, 327181, Note_off_c, 3, 60, 64
1, 327181, Note_on_c, 4, 59, 127
1, 327299, Note_off_c, 4, 59, 64
1, 327299, Note_on_c, 3, 68, 127
1, 327409, Note_off_c, 4, 50, 64
1, 327410, Note_off_c, 4, 53, 64
1, 327410, Note_on_c, 4, 50, 127
1, 327411, Note_on_c, 4, 47, 127
1, 327526, Note_off_c, 3, 68, 64
1, 327527, Note_on_c, 3, 67, 127
1, 327635, Note_off_c, 3, 67, 64
1, 327635, Note_on_c, 3, 65, 127
1, 327745, Note_off_c, 4, 50, 64
1, 327745, Note_off_c, 4, 47, 64
1, 327746, Note_on_c, 4, 49, 127
1, 327746, Note_on_c, 4, 46, 127
1, 327861, Note_off_c, 3, 65, 64
1, 327861, Note_on_c, 3, 64, 127
1, 327972, Note_off_c, 3, 64, 64
1, 327973, Note_on_c, 2, 73, 127
1, 328085, Note_off_c, 4, 46, 64
1, 328086, Note_off_c, 4, 49, 64
1, 328086, Note_on_c, 4, 55, 127
1, 328087, Note_on_c, 4, 52, 127
1, 328199, Note_off_c, 2, 73, 64
1, 328199, Note_on_c, 2, 72, 127
1, 328313, Note_off_c, 2, 72, 64
1, 328313, Note_off_c, 4, 52, 64
1, 328313, Note_off_c, 4, 55, 64
1, 328314, Note_on_c, 2, 70, 127
1, 328315, Note_on_c, 4, 60, 127
1, 328425, Note_off_c, 4, 60, 64
1, 328426, Note_off_c, 2, 70, 64
1, 328426, Note_on_c, 2, 68, 127
1, 328427, Note_on_c, 4, 53, 127
1, 328541, Note_off_c, 4, 53, 64
1, 328542, Note_off_c, 2, 68, 64
1, 328542, Note_on_c, 2, 67, 127
1, 328543, Note_on_c, 4, 55, 127
1, 328656, Note_off_c, 4, 55, 64
1, 328657, Note_off_c, 2, 67, 64
1, 328657, Note_on_c, 4, 66, 127
1, 328658, Note_on_c, 4, 56, 127
1, 328772, Note_off_c, 4, 56, 64
1, 328772, Note_off_c, 4, 66, 64
1, 328773, Note_on_c, 2, 67, 127
1, 328773, Note_on_c, 4, 63, 127
1, 328774, Note_on_c, 4, 55, 127
1, 328882, Note_off_c, 4, 63, 64
1, 328886, Note_off_c, 2, 67, 64
1, 328886, Note_off_c, 4, 55, 64
1, 328887, Note_on_c, 4, 63, 127
1, 328887, Note_on_c, 4, 60, 127
1, 328999, Note_off_c, 4, 60, 64
1, 329000, Note_off_c, 4, 63, 64
1, 329000, Note_on_c, 4, 62, 127
1, 329001, Note_on_c, 4, 59, 127
1, 329001, Note_on_c, 4, 53, 127
1, 329002, Note_on_c, 4, 43, 127
1, 329114, Note_off_c, 4, 43, 64
1, 329115, Note_off_c, 4, 53, 64
1, 329115, Note_off_c, 4, 59, 64
1, 329116, Note_off_c, 4, 62, 64
1, 329117, Note_on_c, 4, 51, 127
1, 329117, Note_on_c, 4, 48, 127
1, 329346, Note_on_c, 1, 77, 127
1, 329353, Note_on_c, 1, 75, 127
1, 329363, Note_off_c, 1, 77, 64
1, 329411, Note_off_c, 1, 75, 64
1, 329412, Note_off_c, 4, 48, 64
1, 329412, Note_off_c, 4, 51, 64
1, 329413, Note_on_c, 1, 74, 127
1, 329439, Note_on_c, 1, 72, 127
1, 329445, Note_off_c, 1, 74, 64
1, 329468, Note_on_c, 0, 79, 127
1, 329468, Note_on_c, 3, 62, 127
1, 329469, Note_on_c, 4, 59, 127
1, 329473, Note_off_c, 1, 72, 64
1, 329529, Note_on_c, 4, 55, 127
1, 329583, Note_off_c, 3, 62, 64
1, 329583, Note_off_c, 4, 59, 64
1, 329584, Note_off_c, 0, 79, 64
1, 329588, Note_on_c, 0, 79, 127
1, 329588, Note_on_c, 3, 67, 127
1, 329589, Note_on_c, 3, 63, 127
1, 329589, Note_on_c, 3, 60, 127
1, 329643, Note_off_c, 4, 55, 64
1, 329645, Note_on_c, 4, 55, 127
1, 329701, Note_off_c, 3, 60, 64
1, 329701, Note_off_c, 3, 63, 64
1, 329702, Note_off_c, 3, 67, 64
1, 329702, Note_off_c, 0, 79, 64
1, 329705, Note_on_c, 0, 79, 127
1, 329705, Note_on_c, 3, 67, 127
1, 329706, Note_on_c, 3, 65, 127
1, 329706, Note_on_c, 3, 62, 127
1, 329759, Note_off_c, 4, 55, 64
1, 329763, Note_on_c, 4, 55, 127
1, 329817, Note_off_c, 3, 62, 64
1, 329818, Note_off_c, 0, 79, 64
1, 329818, Note_off_c, 3, 65, 64
1, 329819, Note_off_c, 3, 67, 64
1, 329821, Note_on_c, 0, 79, 127
1, 329821, Note_on_c, 3, 67, 127
1, 329822, Note_on_c, 3, 63, 127
1, 329822, Note_on_c, 3, 60, 127
1, 329877, Note_off_c, 4, 55, 64
1, 329880, Note_on_c, 4, 55, 127
1, 329938, Note_off_c, 3, 60, 64
1, 329939, Note_off_c, 3, 63, 64
1, 329941, Note_on_c, 3, 63, 127
1, 329942, Note_on_c, 3, 60, 127
1, 329996, Note_off_c, 4, 55, 64
1, 330000, Note_on_c, 4, 55, 127
1, 330038, Note_off_c, 0, 79, 64
1, 330053, Note_on_c, 1, 77, 127
1, 330056, Note_off_c, 3, 60, 64
1, 330057, Note_off_c, 3, 63, 64
1, 330059, Note_on_c, 1, 75, 127
1, 330060, Note_on_c, 3, 63, 127
1, 330060, Note_on_c, 3, 60, 127
1, 330070, Note_off_c, 1, 77, 64
1, 330116, Note_off_c, 1, 75, 64
1, 330116, Note_off_c, 4, 55, 64
1, 330119, Note_off_c, 3, 67, 64
1, 330119, Note_on_c, 1, 74, 127
1, 330120, Note_on_c, 4, 55, 127
1, 330148, Note_on_c, 1, 72, 127
1, 330150, Note_off_c, 1, 74, 64
1, 330173, Note_off_c, 3, 60, 64
1, 330174, Note_off_c, 3, 63, 64
1, 330177, Note_on_c, 0, 79, 127
1, 330177, Note_on_c, 3, 62, 127
1, 330178, Note_on_c, 4, 59, 127
1, 330180, Note_off_c, 1, 72, 64
1, 330234, Note_off_c, 4, 55, 64
1, 330238, Note_on_c, 4, 55, 127
1, 330293, Note_off_c, 4, 59, 64
1, 330294, Note_off_c, 3, 62, 64
1, 330294, Note_off_c, 0, 79, 64
1, 330296, Note_on_c, 0, 79, 127
1, 330297, Note_on_c, 3, 67, 127
1, 330297, Note_on_c, 3, 63, 127
1, 330298, Note_on_c, 3, 60, 127
1, 330354, Note_off_c, 4, 55, 64
1, 330358, Note_on_c, 4, 55, 127
1, 330410, Note_off_c, 3, 60, 64
1, 330410, Note_off_c, 0, 79, 64
1, 330411, Note_off_c, 3, 63, 64
1, 330411, Note_off_c, 3, 67, 64
1, 330415, Note_on_c, 0, 79, 127
1, 330415, Note_on_c, 3, 67, 127
1, 330415, Note_on_c, 3, 65, 127
1, 330416, Note_on_c, 3, 62, 127
1, 330471, Note_off_c, 4, 55, 64
1, 330472, Note_on_c, 4, 55, 127
1, 330527, Note_off_c, 0, 79, 64
1, 330528, Note_off_c, 3, 65, 64
1, 330528, Note_off_c, 3, 67, 64
1, 330528, Note_off_c, 3, 62, 64
1, 330529, Note_on_c, 0, 79, 127
1, 330530, Note_on_c, 3, 67, 116
1, 330530, Note_on_c, 3, 63, 116
1, 330531, Note_on_c, 3, 60, 114
1, 330587, Note_off_c, 4, 55, 64
1, 330591, Note_on_c, 4, 55, 114
1, 330591, Note_on_c, 4, 55, 114
1, 330647, Note_off_c, 3, 60, 64
1, 330647, Note_off_c, 3, 63, 64
1, 330650, Note_on_c, 3, 63, 116
1, 330650, Note_on_c, 3, 60, 114
1, 330707, Note_off_c, 4, 55, 64
1, 330707, Note_off_c, 4, 55, 64
1, 330710, Note_on_c, 4, 55, 114
1, 330764, Note_on_c, 1, 77, 127
1, 330768, Note_off_c, 0, 79, 64
1, 330768, Note_off_c, 3, 60, 64
1, 330768, Note_off_c, 3, 63, 64
1, 330771, Note_on_c, 3, 63, 116
1, 330772, Note_on_c, 3, 60, 114
1, 330773, Note_on_c, 1, 75, 127
1, 330781, Note_off_c, 1, 77, 64
1, 330823, Note_off_c, 1, 75, 64
1, 330829, Note_off_c, 4, 55, 64
1, 330832, Note_off_c, 3, 67, 64
1, 330833, Note_on_c, 4, 55, 127
1, 330833, Note_on_c, 1, 74, 127
1, 330864, Note_on_c, 1, 72, 127
1, 330865, Note_off_c, 1, 74, 64
1, 330888, Note_off_c, 3, 60, 64
1, 330889, Note_off_c, 3, 63, 64
1, 330892, Note_on_c, 0, 80, 122
1, 330892, Note_on_c, 1, 74, 127
1, 330893, Note_on_c, 1, 71, 127
1, 330895, Note_off_c, 1, 72, 64
1, 330992, Note_off_c, 4, 55, 64
1, 331011, Note_on_c, 4, 53, 127
1, 331011, Note_on_c, 4, 41, 127
1, 331127, Note_off_c, 1, 71, 64
1, 331128, Note_off_c, 1, 74, 64
1, 331128, Note_off_c, 0, 80, 64
1, 331128, Note_on_c, 3, 65, 127
1, 331129, Note_on_c, 4, 53, 127
1, 331240, Note_on_c, 0, 79, 122
1, 331240, Note_on_c, 1, 75, 127
1, 331241, Note_on_c, 1, 72, 127
1, 331268, Note_off_c, 3, 65, 64
1, 331357, Note_on_c, 4, 51, 127
1, 331357, Note_on_c, 4, 39, 127
1, 331381, Note_off_c, 4, 41, 64
1, 331471, Note_off_c, 4, 51, 64
1, 331473, Note_off_c, 1, 75, 64
1, 331473, Note_off_c, 1, 72, 64
1, 331474, Note_off_c, 0, 79, 64
1, 331474, Note_on_c, 3, 63, 127
1, 331475, Note_on_c, 4, 51, 127
1, 331552, Note_off_c, 4, 39, 64
1, 331589, Note_off_c, 4, 51, 64
1, 331589, Note_off_c, 3, 63, 64
1, 331590, Note_off_c, 4, 53, 64
1, 331590, Note_off_c, 4, 53, 64
1, 331590, Note_on_c, 4, 50, 127
1, 331590, Note_on_c, 3, 62, 127
1, 331710, Note_on_c, 1, 83, 124
1, 331710, Note_on_c, 1, 77, 127
1, 331711, Note_on_c, 1, 74, 127
1, 331792, Note_off_c, 3, 62, 64
1, 331833, Note_off_c, 1, 83, 64
1, 331836, Note_off_c, 1, 74, 64
1, 331837, Note_off_c, 1, 77, 64
1, 331837, Note_on_c, 1, 86, 124
1, 331838, Note_on_c, 1, 83, 124
1, 331838, Note_on_c, 2, 77, 127
1, 331968, Note_off_c, 1, 86, 64
1, 331972, Note_off_c, 2, 77, 64
1, 331972, Note_off_c, 1, 83, 64
1, 331973, Note_on_c, 1, 89, 124
1, 331973, Note_on_c, 1, 86, 124
1, 331974, Note_on_c, 4, 59, 127
1, 331974, Note_on_c, 1, 79, 122
1, 331975, Note_on_c, 4, 47, 127
1, 331981, Note_off_c, 4, 50, 64
1, 332534, Note_off_c, 1, 79, 64
1, 332535, Note_off_c, 1, 86, 64
1, 332535, Note_off_c, 1, 89, 64
1, 332639, Note_on_c, 2, 75, 127
1, 332669, Note_off_c, 4, 59, 64
1, 332729, Note_off_c, 4, 47, 64
1, 332948, Note_off_c, 2, 75, 64
1, 332948, Note_on_c, 3, 66, 127
1, 332949, Note_on_c, 3, 63, 127
1, 332949, Note_on_c, 3, 60, 127
1, 333291, Note_off_c, 3, 60, 64
1, 333292, Note_off_c, 3, 66, 64
1, 333292, Note_off_c, 3, 63, 64
1, 333293, Note_on_c, 3, 67, 127
1, 333293, Note_on_c, 3, 65, 127
1, 333294, Note_on_c, 3, 62, 127
1, 333294, Note_on_c, 4, 59, 127
1, 333466, Note_on_c, 3, 68, 127
1, 333476, Note_off_c, 3, 67, 64
1, 333524, Note_off_c, 3, 68, 64
1, 333524, Note_off_c, 4, 59, 64
1, 333525, Note_off_c, 3, 65, 64
1, 333525, Note_off_c, 3, 62, 64
1, 333526, Note_on_c, 3, 67, 127
1, 333526, Note_on_c, 3, 63, 127
1, 333526, Note_on_c, 3, 60, 127
1, 333632, Note_off_c, 3, 63, 64
1, 333633, Note_off_c, 3, 67, 64
1, 333635, Note_off_c, 3, 60, 64
1, 333636, Note_on_c, 3, 67, 127
1, 333636, Note_on_c, 3, 63, 127
1, 333655, Note_on_c, 3, 65, 127
1, 333656, Note_on_c, 3, 62, 127
1, 333656, Note_on_c, 4, 53, 127
1, 333657, Note_off_c, 3, 63, 64
1, 333657, Note_off_c, 3, 67, 64
1, 333763, Note_on_c, 3, 63, 127
1, 333763, Note_on_c, 4, 55, 127
1, 333764, Note_on_c, 3, 60, 127
1, 333767, Note_off_c, 4, 53, 64
1, 333767, Note_off_c, 3, 62, 64
1, 333768, Note_off_c, 3, 65, 64
1, 333881, Note_off_c, 4, 55, 64
1, 333881, Note_on_c, 4, 43, 127
1, 333882, Note_off_c, 3, 63, 64
1, 333882, Note_off_c, 3, 60, 64
1, 333882, Note_on_c, 3, 62, 127
1, 333883, Note_on_c, 4, 59, 127
1, 334005, Note_on_c, 3, 60, 127
1, 334005, Note_on_c, 4, 48, 127
1, 334006, Note_off_c, 4, 43, 64
1, 334008, Note_off_c, 4, 59, 64
1, 334008, Note_off_c, 3, 62, 64
1, 334237, Note_on_c, 2, 77, 127
1, 334241, Note_on_c, 2, 75, 127
1, 334251, Note_off_c, 2, 77, 64
1, 334300, Note_off_c, 2, 75, 64
1, 334301, Note_off_c, 4, 48, 64
1, 334301, Note_off_c, 3, 60, 64
1, 334302, Note_on_c, 2, 74, 127
1, 334331, Note_on_c, 2, 72, 127
1, 334335, Note_off_c, 2, 74, 64
1, 334364, Note_on_c, 0, 79, 122
1, 334364, Note_on_c, 3, 62, 127
1, 334365, Note_off_c, 2, 72, 64
1, 334365, Note_on_c, 4, 59, 127
1, 334423, Note_on_c, 4, 55, 127
1, 334475, Note_off_c, 4, 59, 64
1, 334476, Note_off_c, 3, 62, 64
1, 334476, Note_off_c, 0, 79, 64
1, 334478, Note_on_c, 0, 79, 126
1, 334478, Note_on_c, 3, 63, 127
1, 334479, Note_on_c, 3, 60, 127
1, 334533, Note_off_c, 4, 55, 64
1, 334536, Note_on_c, 4, 55, 127
1, 334590, Note_off_c, 0, 79, 64
1, 334591, Note_off_c, 3, 60, 64
1, 334592, Note_off_c, 3, 63, 64
1, 334594, Note_on_c, 0, 79, 126
1, 334595, Note_on_c, 3, 65, 127
1, 334595, Note_on_c, 3, 62, 127
1, 334648, Note_off_c, 4, 55, 64
1, 334652, Note_on_c, 4, 55, 127
1, 334702, Note_off_c, 0, 79, 64
1, 334705, Note_off_c, 3, 62, 64
1, 334706, Note_off_c, 3, 65, 64
1, 334707, Note_on_c, 0, 79, 126
1, 334707, Note_on_c, 3, 63, 127
1, 334708, Note_on_c, 3, 60, 127
1, 334764, Note_off_c, 4, 55, 64
1, 334768, Note_on_c, 4, 55, 127
1, 334824, Note_off_c, 3, 63, 64
1, 334824, Note_off_c, 3, 60, 64
1, 334827, Note_on_c, 3, 63, 127
1, 334827, Note_on_c, 3, 60, 127
1, 334884, Note_off_c, 4, 55, 64
1, 334888, Note_on_c, 4, 55, 127
1, 334936, Note_off_c, 0, 79, 64
1, 334938, Note_on_c, 2, 77, 127
1, 334944, Note_off_c, 3, 60, 64
1, 334944, Note_off_c, 3, 63, 64
1, 334946, Note_on_c, 2, 75, 127
1, 334947, Note_on_c, 3, 63, 127
1, 334947, Note_on_c, 3, 60, 127
1, 334955, Note_off_c, 2, 77, 64
1, 335003, Note_off_c, 4, 55, 64
1, 335007, Note_off_c, 2, 75, 64
1, 335007, Note_on_c, 2, 74, 127
1, 335008, Note_on_c, 4, 55, 127
1, 335035, Note_on_c, 2, 72, 127
1, 335037, Note_off_c, 2, 74, 64
1, 335060, Note_off_c, 3, 60, 64
1, 335060, Note_off_c, 3, 63, 64
1, 335063, Note_on_c, 0, 79, 126
1, 335064, Note_on_c, 3, 62, 127
1, 335064, Note_on_c, 4, 59, 127
1, 335066, Note_off_c, 2, 72, 64
1, 335120, Note_off_c, 4, 55, 64
1, 335124, Note_on_c, 4, 55, 127
1, 335180, Note_off_c, 4, 59, 64
1, 335180, Note_off_c, 3, 62, 64
1, 335181, Note_off_c, 0, 79, 64
1, 335183, Note_on_c, 0, 79, 126
1, 335184, Note_on_c, 3, 63, 127
1, 335184, Note_on_c, 3, 60, 127
1, 335240, Note_off_c, 4, 55, 64
1, 335243, Note_on_c, 4, 55, 127
1, 335299, Note_off_c, 3, 60, 64
1, 335299, Note_off_c, 3, 63, 64
1, 335300, Note_off_c, 0, 79, 64
1, 335302, Note_on_c, 0, 79, 126
1, 335303, Note_on_c, 3, 65, 127
1, 335303, Note_on_c, 3, 62, 127
1, 335356, Note_off_c, 4, 55, 64
1, 335359, Note_on_c, 4, 55, 127
1, 335410, Note_off_c, 0, 79, 64
1, 335412, Note_off_c, 3, 62, 64
1, 335412, Note_off_c, 3, 65, 64
1, 335415, Note_on_c, 0, 79, 126
1, 335416, Note_on_c, 3, 63, 127
1, 335416, Note_on_c, 3, 60, 127
1, 335472, Note_off_c, 4, 55, 64
1, 335475, Note_on_c, 4, 55, 127
1, 335532, Note_off_c, 3, 60, 64
1, 335532, Note_off_c, 3, 63, 64
1, 335535, Note_on_c, 3, 63, 127
1, 335536, Note_on_c, 3, 60, 127
1, 335590, Note_off_c, 4, 55, 64
1, 335594, Note_on_c, 4, 55, 127
1, 335642, Note_off_c, 0, 79, 64
1, 335644, Note_on_c, 2, 77, 127
1, 335649, Note_off_c, 3, 60, 64
1, 335650, Note_off_c, 3, 63, 64
1, 335652, Note_on_c, 2, 75, 127
1, 335653, Note_on_c, 3, 63, 127
1, 335653, Note_on_c, 3, 60, 127
1, 335661, Note_off_c, 2, 77, 64
1, 335707, Note_off_c, 4, 55, 64
1, 335711, Note_off_c, 2, 75, 64
1, 335711, Note_on_c, 2, 74, 127
1, 335712, Note_on_c, 4, 55, 127
1, 335741, Note_on_c, 2, 72, 127
1, 335742, Note_off_c, 2, 74, 64
1, 335764, Note_off_c, 3, 60, 64
1, 335764, Note_off_c, 3, 63, 64
1, 335769, Note_on_c, 0, 80, 122
1, 335769, Note_on_c, 2, 74, 127
1, 335770, Note_off_c, 2, 72, 64
1, 335770, Note_on_c, 2, 71, 127
1, 335888, Note_on_c, 4, 53, 127
1, 335888, Note_on_c, 4, 41, 127
1, 335896, Note_off_c, 4, 55, 64
1, 335964, Note_off_c, 2, 71, 64
1, 335964, Note_off_c, 2, 74, 64
1, 335964, Note_off_c, 0, 80, 64
1, 336005, Note_on_c, 3, 65, 127
1, 336005, Note_on_c, 4, 53, 127
1, 336121, Note_off_c, 4, 53, 64
1, 336121, Note_off_c, 3, 65, 64
1, 336122, Note_on_c, 0, 79, 122
1, 336122, Note_on_c, 2, 75, 127
1, 336123, Note_on_c, 2, 72, 127
1, 336240, Note_off_c, 4, 53, 64
1, 336240, Note_on_c, 4, 51, 127
1, 336241, Note_on_c, 4, 39, 127
1, 336268, Note_off_c, 4, 41, 64
1, 336318, Note_off_c, 2, 75, 64
1, 336318, Note_off_c, 2, 72, 64
1, 336319, Note_off_c, 0, 79, 64
1, 336353, Note_off_c, 4, 51, 64
1, 336355, Note_on_c, 3, 63, 127
1, 336356, Note_on_c, 4, 51, 127
1, 336435, Note_off_c, 4, 39, 64
1, 336476, Note_off_c, 4, 51, 64
1, 336477, Note_off_c, 3, 63, 64
1, 336477, Note_on_c, 3, 62, 127
1, 336478, Note_on_c, 4, 50, 127
1, 336596, Note_on_c, 1, 83, 124
1, 336596, Note_on_c, 2, 77, 127
1, 336596, Note_on_c, 2, 74, 127
1, 336682, Note_off_c, 3, 62, 64
1, 336723, Note_off_c, 1, 83, 64
1, 336727, Note_off_c, 2, 74, 64
1, 336727, Note_off_c, 2, 77, 64
1, 336728, Note_on_c, 1, 86, 124
1, 336728, Note_on_c, 1, 83, 124
1, 336729, Note_on_c, 2, 77, 127
1, 336857, Note_off_c, 1, 86, 64
1, 336861, Note_off_c, 2, 77, 64
1, 336862, Note_off_c, 1, 83, 64
1, 336862, Note_on_c, 1, 89, 124
1, 336863, Note_on_c, 1, 86, 124
1, 336863, Note_on_c, 1, 79, 122
1, 336864, Note_on_c, 4, 59, 127
1, 336864, Note_on_c, 4, 47, 127
1, 336875, Note_off_c, 4, 50, 64
1, 337412, Note_off_c, 1, 89, 64
1, 337412, Note_off_c, 1, 79, 64
1, 337412, Note_off_c, 1, 86, 64
1, 337466, Note_on_c, 2, 75, 127
1, 337497, Note_off_c, 4, 59, 64
1, 337584, Note_off_c, 4, 47, 64
1, 337783, Note_off_c, 2, 75, 64
1, 337784, Note_on_c, 3, 66, 127
1, 337784, Note_on_c, 3, 63, 127
1, 337785, Note_on_c, 3, 60, 127
1, 338124, Note_off_c, 3, 63, 64
1, 338124, Note_off_c, 3, 60, 64
1, 338125, Note_off_c, 3, 66, 64
1, 338125, Note_on_c, 3, 67, 127
1, 338126, Note_on_c, 3, 65, 127
1, 338126, Note_on_c, 3, 62, 127
1, 338127, Note_on_c, 4, 59, 127
1, 338303, Note_on_c, 3, 68, 127
1, 338312, Note_off_c, 3, 67, 64
1, 338356, Note_off_c, 3, 68, 64
1, 338357, Note_off_c, 3, 62, 64
1, 338357, Note_off_c, 4, 59, 64
1, 338358, Note_off_c, 3, 65, 64
1, 338358, Note_on_c, 3, 67, 127
1, 338359, Note_on_c, 3, 63, 127
1, 338359, Note_on_c, 3, 60, 127
1, 338465, Note_off_c, 3, 60, 64
1, 338465, Note_off_c, 3, 63, 64
1, 338466, Note_off_c, 3, 67, 64
1, 338468, Note_on_c, 3, 67, 127
1, 338468, Note_on_c, 3, 63, 127
1, 338488, Note_on_c, 3, 65, 127
1, 338488, Note_on_c, 3, 62, 127
1, 338489, Note_off_c, 3, 63, 64
1, 338489, Note_on_c, 4, 53, 127
1, 338490, Note_off_c, 3, 67, 64
1, 338601, Note_on_c, 3, 63, 127
1, 338602, Note_on_c, 3, 60, 127
1, 338602, Note_on_c, 4, 55, 127
1, 338603, Note_off_c, 4, 53, 64
1, 338603, Note_off_c, 3, 62, 64
1, 338604, Note_off_c, 3, 65, 64
1, 338721, Note_off_c, 4, 55, 64
1, 338722, Note_off_c, 3, 63, 64
1, 338722, Note_off_c, 3, 60, 64
1, 338723, Note_on_c, 3, 62, 127
1, 338723, Note_on_c, 4, 59, 127
1, 338723, Note_on_c, 4, 43, 127
1, 338837, Note_on_c, 3, 60, 127
1, 338838, Note_on_c, 4, 48, 127
1, 338840, Note_off_c, 4, 43, 64
1, 338841, Note_off_c, 4, 59, 64
1, 338841, Note_off_c, 3, 62, 64
1, 339181, Note_off_c, 3, 60, 64
1, 339181, Note_off_c, 4, 48, 64
1, 339182, Note_on_c, 3, 62, 127
1, 339182, Note_on_c, 4, 58, 127
1, 339183, Note_on_c, 4, 56, 127
1, 339183, Note_on_c, 4, 53, 127
1, 339184, Note_on_c, 4, 46, 127
1, 339184, Note_on_c, 4, 34, 127
1, 339535, Note_off_c, 4, 34, 64
1, 339536, Note_off_c, 4, 53, 64
1, 339536, Note_off_c, 4, 46, 64
1, 339537, Note_off_c, 4, 58, 64
1, 339537, Note_off_c, 4, 56, 64
1, 339538, Note_off_c, 3, 62, 64
1, 339538, Note_on_c, 4, 51, 125
1, 339595, Note_on_c, 4, 55, 125
1, 339650, Note_off_c, 4, 51, 64
1, 339655, Note_on_c, 4, 58, 125
1, 339710, Note_off_c, 4, 55, 64
1, 339714, Note_on_c, 4, 55, 125
1, 339769, Note_off_c, 4, 58, 64
1, 339773, Note_on_c, 4, 58, 125
1, 339827, Note_off_c, 4, 55, 64
1, 339831, Note_on_c, 4, 55, 125
1, 339885, Note_off_c, 4, 58, 64
1, 339887, Note_on_c, 4, 51, 125
1, 339944, Note_off_c, 4, 55, 64
1, 339948, Note_on_c, 4, 55, 125
1, 340002, Note_off_c, 4, 51, 64
1, 340004, Note_on_c, 1, 70, 127
1, 340005, Note_on_c, 4, 58, 125
1, 340059, Note_off_c, 4, 55, 64
1, 340064, Note_on_c, 4, 55, 125
1, 340117, Note_off_c, 1, 70, 64
1, 340117, Note_off_c, 4, 58, 64
1, 340120, Note_on_c, 1, 70, 127
1, 340121, Note_on_c, 4, 58, 125
1, 340171, Note_off_c, 4, 55, 64
1, 340173, Note_on_c, 4, 55, 125
1, 340226, Note_off_c, 4, 58, 64
1, 340227, Note_off_c, 1, 70, 64
1, 340230, Note_on_c, 1, 70, 127
1, 340230, Note_on_c, 4, 51, 125
1, 340286, Note_off_c, 4, 55, 64
1, 340290, Note_on_c, 4, 53, 125
1, 340346, Note_off_c, 4, 51, 64
1, 340350, Note_on_c, 4, 56, 125
1, 340403, Note_off_c, 4, 53, 64
1, 340407, Note_off_c, 1, 70, 64
1, 340408, Note_on_c, 1, 72, 127
1, 340408, Note_on_c, 4, 53, 125
1, 340462, Note_off_c, 4, 56, 64
1, 340466, Note_off_c, 1, 72, 64
1, 340466, Note_on_c, 1, 70, 127
1, 340467, Note_on_c, 4, 56, 125
1, 340520, Note_off_c, 4, 53, 64
1, 340523, Note_on_c, 4, 53, 125
1, 340575, Note_off_c, 4, 56, 64
1, 340579, Note_off_c, 1, 70, 64
1, 340580, Note_on_c, 1, 80, 127
1, 340580, Note_on_c, 4, 51, 125
1, 340636, Note_off_c, 4, 53, 64
1, 340641, Note_on_c, 4, 53, 125
1, 340696, Note_off_c, 4, 51, 64
1, 340700, Note_on_c, 4, 56, 125
1, 340754, Note_off_c, 4, 53, 64
1, 340758, Note_on_c, 4, 53, 125
1, 340813, Note_off_c, 4, 56, 64
1, 340817, Note_off_c, 1, 80, 64
1, 340818, Note_on_c, 1, 74, 127
1, 340818, Note_on_c, 4, 56, 125
1, 340868, Note_off_c, 4, 53, 64
1, 340872, Note_on_c, 4, 53, 125
1, 340926, Note_off_c, 4, 56, 64
1, 340930, Note_off_c, 1, 74, 64
1, 340930, Note_on_c, 1, 77, 127
1, 340931, Note_on_c, 4, 51, 125
1, 340980, Note_off_c, 4, 53, 64
1, 340982, Note_on_c, 4, 55, 125
1, 341036, Note_off_c, 4, 51, 64
1, 341040, Note_on_c, 4, 58, 125
1, 341096, Note_off_c, 4, 55, 64
1, 341100, Note_on_c, 4, 55, 125
1, 341155, Note_off_c, 4, 58, 64
1, 341157, Note_off_c, 1, 77, 64
1, 341158, Note_on_c, 1, 75, 127
1, 341158, Note_on_c, 4, 58, 125
1, 341208, Note_off_c, 4, 55, 64
1, 341212, Note_on_c, 4, 55, 125
1, 341266, Note_off_c, 4, 58, 64
1, 341268, Note_on_c, 4, 51, 125
1, 341325, Note_off_c, 4, 55, 64
1, 341329, Note_on_c, 4, 55, 125
1, 341385, Note_off_c, 4, 51, 64
1, 341388, Note_off_c, 1, 75, 64
1, 341389, Note_on_c, 1, 70, 127
1, 341389, Note_on_c, 4, 58, 125
1, 341441, Note_off_c, 4, 55, 64
1, 341445, Note_on_c, 4, 55, 125
1, 341501, Note_off_c, 4, 58, 64
1, 341501, Note_off_c, 1, 70, 64
1, 341504, Note_on_c, 1, 70, 127
1, 341504, Note_on_c, 4, 58, 125
1, 341558, Note_off_c, 4, 55, 64
1, 341562, Note_on_c, 4, 55, 125
1, 341616, Note_off_c, 4, 58, 64
1, 341616, Note_off_c, 1, 70, 64
1, 341621, Note_on_c, 1, 69, 127
1, 341621, Note_on_c, 4, 51, 125
1, 341676, Note_off_c, 4, 55, 64
1, 341680, Note_on_c, 4, 53, 125
1, 341680, Note_on_c, 1, 70, 127
1, 341685, Note_off_c, 1, 69, 64
1, 341734, Note_off_c, 4, 51, 64
1, 341737, Note_on_c, 1, 72, 127
1, 341737, Note_on_c, 4, 56, 125
1, 341742, Note_off_c, 1, 70, 64
1, 341792, Note_off_c, 4, 53, 64
1, 341796, Note_on_c, 1, 73, 127
1, 341796, Note_on_c, 4, 53, 125
1, 341802, Note_off_c, 1, 72, 64
1, 341847, Note_off_c, 4, 56, 64
1, 341852, Note_on_c, 1, 74, 127
1, 341852, Note_on_c, 4, 56, 125
1, 341857, Note_off_c, 1, 73, 64
1, 341904, Note_off_c, 4, 53, 64
1, 341908, Note_on_c, 1, 75, 127
1, 341909, Note_on_c, 4, 53, 125
1, 341914, Note_off_c, 1, 74, 64
1, 341962, Note_off_c, 4, 56, 64
1, 341966, Note_on_c, 1, 76, 127
1, 341966, Note_on_c, 4, 51, 125
1, 341971, Note_off_c, 1, 75, 64
1, 342019, Note_off_c, 4, 53, 64
1, 342022, Note_on_c, 1, 77, 127
1, 342022, Note_on_c, 4, 53, 125
1, 342028, Note_off_c, 1, 76, 64
1, 342074, Note_off_c, 4, 51, 64
1, 342078, Note_on_c, 1, 78, 127
1, 342079, Note_on_c, 4, 56, 125
1, 342084, Note_off_c, 1, 77, 64
1, 342131, Note_off_c, 4, 53, 64
1, 342133, Note_on_c, 4, 53, 125
1, 342133, Note_on_c, 1, 79, 127
1, 342136, Note_off_c, 1, 78, 64
1, 342186, Note_off_c, 4, 56, 64
1, 342190, Note_on_c, 1, 80, 127
1, 342191, Note_on_c, 4, 56, 125
1, 342193, Note_off_c, 1, 79, 64
1, 342242, Note_off_c, 4, 53, 64
1, 342247, Note_on_c, 1, 74, 127
1, 342247, Note_on_c, 4, 53, 125
1, 342249, Note_off_c, 1, 80, 64
1, 342300, Note_off_c, 4, 56, 64
1, 342304, Note_off_c, 1, 74, 64
1, 342304, Note_on_c, 1, 77, 127
1, 342304, Note_on_c, 4, 51, 125
1, 342358, Note_off_c, 4, 53, 64
1, 342362, Note_on_c, 4, 55, 125
1, 342416, Note_off_c, 4, 51, 64
1, 342420, Note_on_c, 4, 58, 125
1, 342473, Note_off_c, 4, 55, 64
1, 342478, Note_on_c, 4, 55, 125
1, 342531, Note_off_c, 4, 58, 64
1, 342535, Note_off_c, 1, 77, 64
1, 342536, Note_on_c, 1, 75, 127
1, 342536, Note_on_c, 4, 58, 125
1, 342588, Note_off_c, 4, 55, 64
1, 342591, Note_on_c, 4, 55, 125
1, 342645, Note_off_c, 4, 58, 64
1, 342648, Note_on_c, 4, 51, 125
1, 342705, Note_off_c, 4, 55, 64
1, 342709, Note_on_c, 4, 55, 125
1, 342763, Note_off_c, 1, 75, 64
1, 342763, Note_off_c, 4, 51, 64
1, 342767, Note_on_c, 1, 75, 127
1, 342767, Note_on_c, 4, 58, 125
1, 342823, Note_off_c, 4, 55, 64
1, 342827, Note_on_c, 4, 55, 125
1, 342881, Note_off_c, 4, 58, 64
1, 342881, Note_off_c, 1, 75, 64
1, 342884, Note_on_c, 1, 75, 127
1, 342884, Note_on_c, 4, 58, 125
1, 342936, Note_off_c, 4, 55, 64
1, 342940, Note_on_c, 4, 55, 125
1, 342992, Note_off_c, 4, 58, 64
1, 342993, Note_off_c, 1, 75, 64
1, 342997, Note_on_c, 1, 75, 127
1, 342997, Note_on_c, 4, 47, 125
1, 343052, Note_off_c, 4, 55, 64
1, 343056, Note_on_c, 4, 51, 125
1, 343111, Note_off_c, 4, 47, 64
1, 343115, Note_on_c, 4, 57, 125
1, 343169, Note_off_c, 4, 51, 64
1, 343171, Note_off_c, 1, 75, 64
1, 343171, Note_on_c, 1, 77, 127
1, 343172, Note_on_c, 4, 51, 125
1, 343187, Note_off_c, 1, 77, 64
1, 343191, Note_on_c, 1, 75, 127
1, 343206, Note_off_c, 1, 75, 64
1, 343210, Note_on_c, 1, 74, 127
1, 343224, Note_off_c, 1, 74, 64
1, 343225, Note_off_c, 4, 57, 64
1, 343229, Note_on_c, 1, 75, 127
1, 343230, Note_on_c, 4, 57, 125
1, 343284, Note_off_c, 4, 51, 64
1, 343286, Note_off_c, 1, 75, 64
1, 343286, Note_on_c, 1, 77, 127
1, 343287, Note_on_c, 4, 51, 125
1, 343341, Note_off_c, 4, 57, 64
1, 343343, Note_off_c, 1, 77, 64
1, 343343, Note_on_c, 1, 78, 127
1, 343344, Note_on_c, 4, 47, 125
1, 343394, Note_off_c, 4, 51, 64
1, 343398, Note_on_c, 4, 51, 125
1, 343450, Note_off_c, 4, 47, 64
1, 343455, Note_on_c, 4, 54, 125
1, 343508, Note_off_c, 4, 51, 64
1, 343512, Note_on_c, 4, 51, 125
1, 343565, Note_off_c, 4, 54, 64
1, 343569, Note_off_c, 1, 78, 64
1, 343570, Note_on_c, 1, 69, 127
1, 343570, Note_on_c, 4, 54, 125
1, 343624, Note_off_c, 4, 51, 64
1, 343626, Note_on_c, 4, 51, 125
1, 343681, Note_off_c, 4, 54, 64
1, 343683, Note_off_c, 4, 51, 64
1, 343684, Note_off_c, 1, 69, 64
1, 343684, Note_on_c, 1, 70, 127
1, 343685, Note_on_c, 4, 50, 125
1, 343685, Note_on_c, 4, 46, 125
1, 343799, Note_on_c, 4, 58, 127
1, 343852, Note_off_c, 1, 70, 64
1, 343856, Note_on_c, 1, 70, 127
1, 343913, Note_on_c, 1, 69, 127
1, 343917, Note_off_c, 1, 70, 64
1, 343968, Note_on_c, 1, 70, 127
1, 343974, Note_off_c, 1, 69, 64
1, 344024, Note_on_c, 1, 71, 127
1, 344030, Note_off_c, 1, 70, 64
1, 344082, Note_on_c, 1, 72, 127
1, 344086, Note_off_c, 1, 71, 64
1, 344139, Note_on_c, 1, 73, 127
1, 344143, Note_off_c, 1, 72, 64
1, 344193, Note_on_c, 1, 74, 127
1, 344197, Note_off_c, 1, 73, 64
1, 344243, Note_off_c, 4, 58, 64
1, 344249, Note_off_c, 4, 46, 64
1, 344249, Note_off_c, 4, 50, 64
1, 344250, Note_on_c, 1, 75, 127
1, 344250, Note_on_c, 3, 63, 127
1, 344251, Note_on_c, 4, 59, 127
1, 344255, Note_off_c, 1, 74, 64
1, 344310, Note_on_c, 1, 69, 127
1, 344314, Note_off_c, 1, 75, 64
1, 344368, Note_off_c, 4, 59, 64
1, 344369, Note_off_c, 3, 63, 64
1, 344369, Note_on_c, 1, 70, 127
1, 344369, Note_on_c, 3, 62, 127
1, 344370, Note_on_c, 4, 58, 127
1, 344373, Note_off_c, 1, 69, 64
1, 344484, Note_on_c, 4, 46, 127
1, 344536, Note_off_c, 4, 58, 64
1, 344542, Note_off_c, 3, 62, 64
1, 344542, Note_off_c, 1, 70, 64
1, 344543, Note_on_c, 4, 58, 127
1, 344600, Note_on_c, 4, 57, 127
1, 344604, Note_off_c, 4, 58, 64
1, 344655, Note_on_c, 4, 58, 127
1, 344659, Note_off_c, 4, 57, 64
1, 344711, Note_on_c, 4, 59, 127
1, 344717, Note_off_c, 4, 58, 64
1, 344770, Note_on_c, 3, 60, 127
1, 344774, Note_off_c, 4, 59, 64
1, 344824, Note_on_c, 3, 61, 127
1, 344830, Note_off_c, 3, 60, 64
1, 344884, Note_on_c, 3, 62, 127
1, 344888, Note_off_c, 3, 61, 64
1, 344938, Note_on_c, 3, 63, 127
1, 344938, Note_on_c, 4, 51, 127
1, 344939, Note_on_c, 4, 47, 127
1, 344942, Note_off_c, 3, 62, 64
1, 344948, Note_off_c, 4, 46, 64
1, 344996, Note_on_c, 4, 57, 127
1, 345002, Note_off_c, 3, 63, 64
1, 345054, Note_off_c, 4, 47, 64
1, 345054, Note_off_c, 4, 51, 64
1, 345055, Note_on_c, 4, 58, 127
1, 345055, Note_on_c, 4, 50, 127
1, 345056, Note_on_c, 4, 46, 127
1, 345059, Note_off_c, 4, 57, 64
1, 345174, Note_on_c, 4, 34, 127
1, 345231, Note_on_c, 1, 81, 123
1, 345291, Note_off_c, 1, 81, 64
1, 345291, Note_on_c, 1, 82, 125
1, 345346, Note_off_c, 1, 82, 64
1, 345346, Note_on_c, 1, 81, 123
1, 345402, Note_off_c, 1, 81, 64
1, 345403, Note_off_c, 4, 50, 64
1, 345403, Note_off_c, 4, 46, 64
1, 345404, Note_off_c, 4, 58, 64
1, 345404, Note_on_c, 1, 82, 125
1, 345518, Note_on_c, 4, 58, 127
1, 345574, Note_on_c, 2, 69, 127
1, 345632, Note_off_c, 1, 82, 64
1, 345632, Note_on_c, 2, 70, 127
1, 345636, Note_off_c, 2, 69, 64
1, 345690, Note_on_c, 2, 69, 127
1, 345694, Note_off_c, 2, 70, 64
1, 345744, Note_on_c, 2, 70, 127
1, 345750, Note_off_c, 2, 69, 64
1, 345860, Note_off_c, 4, 58, 64
1, 345861, Note_on_c, 4, 46, 127
1, 345917, Note_on_c, 4, 57, 127
1, 345976, Note_off_c, 2, 70, 64
1, 345977, Note_on_c, 4, 58, 127
1, 345981, Note_off_c, 4, 57, 64
1, 346033, Note_on_c, 4, 57, 127
1, 346037, Note_off_c, 4, 58, 64
1, 346091, Note_on_c, 4, 58, 127
1, 346094, Note_off_c, 4, 57, 64
1, 346202, Note_off_c, 4, 34, 64
1, 346206, Note_off_c, 4, 46, 64
1, 346206, Note_on_c, 4, 34, 127
1, 346266, Note_on_c, 4, 45, 127
1, 346270, Note_off_c, 4, 34, 64
1, 346322, Note_off_c, 4, 58, 64
1, 346322, Note_on_c, 4, 46, 127
1, 346327, Note_off_c, 4, 45, 64
1, 346379, Note_on_c, 4, 45, 127
1, 346384, Note_off_c, 4, 46, 64
1, 346436, Note_on_c, 4, 46, 127
1, 346442, Note_off_c, 4, 45, 64
1, 346494, Note_on_c, 4, 47, 127
1, 346500, Note_off_c, 4, 46, 64
1, 346551, Note_on_c, 4, 48, 127
1, 346555, Note_off_c, 4, 47, 64
1, 346609, Note_on_c, 4, 46, 127
1, 346615, Note_off_c, 4, 48, 64
1, 346666, Note_on_c, 4, 44, 127
1, 346669, Note_off_c, 4, 46, 64
1, 346723, Note_on_c, 4, 43, 127
1, 346727, Note_off_c, 4, 44, 64
1, 346779, Note_on_c, 4, 41, 127
1, 346783, Note_off_c, 4, 43, 64
1, 346836, Note_on_c, 4, 39, 127
1, 346842, Note_off_c, 4, 41, 64
1, 346895, Note_on_c, 4, 38, 127
1, 346900, Note_off_c, 4, 39, 64
1, 346952, Note_on_c, 4, 36, 127
1, 346956, Note_off_c, 4, 38, 64
1, 347007, Note_on_c, 4, 34, 127
1, 347012, Note_off_c, 4, 36, 64
1, 347062, Note_on_c, 4, 32, 127
1, 347067, Note_off_c, 4, 34, 64
1, 347117, Note_on_c, 4, 31, 127
1, 347121, Note_off_c, 4, 32, 64
1, 347444, Note_off_c, 4, 31, 64
1, 347444, Note_on_c, 0, 87, 125
1, 347445, Note_on_c, 2, 75, 127
1, 347445, Note_on_c, 4, 43, 127
1, 347766, Note_off_c, 4, 43, 64
1, 347767, Note_off_c, 0, 87, 64
1, 347767, Note_off_c, 2, 75, 64
1, 347771, Note_on_c, 0, 87, 125
1, 347772, Note_on_c, 4, 44, 127
1, 347772, Note_on_c, 2, 75, 127
1, 347886, Note_off_c, 2, 75, 64
1, 347887, Note_off_c, 0, 87, 64
1, 347887, Note_on_c, 0, 83, 125
1, 347888, Note_on_c, 2, 71, 127
1, 347998, Note_off_c, 2, 71, 64
1, 347998, Note_off_c, 0, 83, 64
1, 347999, Note_on_c, 0, 84, 125
1, 347999, Note_on_c, 2, 72, 127
1, 348111, Note_off_c, 2, 72, 64
1, 348111, Note_off_c, 0, 84, 64
1, 348112, Note_on_c, 2, 76, 127
1, 348112, Note_on_c, 3, 64, 127
1, 348113, Note_on_c, 3, 60, 127
1, 348113, Note_on_c, 4, 56, 127
1, 348217, Note_off_c, 3, 64, 64
1, 348217, Note_off_c, 2, 76, 64
1, 348230, Note_on_c, 2, 77, 127
1, 348230, Note_on_c, 3, 65, 127
1, 348329, Note_off_c, 3, 65, 64
1, 348329, Note_off_c, 2, 77, 64
1, 348341, Note_on_c, 0, 80, 125
1, 348342, Note_on_c, 3, 68, 127
1, 348431, Note_off_c, 0, 80, 64
1, 348432, Note_off_c, 3, 68, 64
1, 348455, Note_on_c, 2, 75, 127
1, 348456, Note_on_c, 3, 65, 127
1, 348673, Note_off_c, 4, 56, 64
1, 348673, Note_off_c, 3, 60, 64
1, 348674, Note_on_c, 3, 66, 127
1, 348674, Note_on_c, 4, 57, 127
1, 348676, Note_off_c, 3, 65, 64
1, 348775, Note_off_c, 4, 44, 64
1, 348776, Note_off_c, 2, 75, 64
1, 348779, Note_off_c, 4, 57, 64
1, 348779, Note_off_c, 3, 66, 64
1, 348780, Note_on_c, 3, 67, 127
1, 348780, Note_on_c, 4, 58, 127
1, 349003, Note_off_c, 4, 58, 64
1, 349003, Note_off_c, 3, 67, 64
1, 349004, Note_on_c, 0, 79, 125
1, 349004, Note_on_c, 2, 72, 127
1, 349005, Note_on_c, 3, 68, 127
1, 349062, Note_on_c, 2, 77, 127
1, 349066, Note_off_c, 0, 79, 64
1, 349116, Note_off_c, 3, 68, 64
1, 349116, Note_off_c, 2, 72, 64
1, 349117, Note_on_c, 2, 75, 127
1, 349117, Note_on_c, 4, 51, 127
1, 349120, Note_off_c, 2, 77, 64
1, 349173, Note_on_c, 4, 58, 127
1, 349228, Note_on_c, 4, 55, 127
1, 349232, Note_off_c, 4, 58, 64
1, 349282, Note_off_c, 2, 75, 64
1, 349286, Note_on_c, 2, 75, 127
1, 349287, Note_on_c, 4, 58, 127
1, 349291, Note_off_c, 4, 55, 64
1, 349335, Note_off_c, 4, 51, 64
1, 349339, Note_on_c, 2, 74, 127
1, 349340, Note_on_c, 4, 51, 127
1, 349344, Note_off_c, 2, 75, 64
1, 349384, Note_off_c, 4, 58, 64
1, 349393, Note_on_c, 2, 75, 127
1, 349393, Note_on_c, 4, 58, 127
1, 349398, Note_off_c, 2, 74, 64
1, 349438, Note_off_c, 4, 51, 64
1, 349446, Note_on_c, 2, 76, 127
1, 349446, Note_on_c, 4, 50, 127
1, 349452, Note_off_c, 2, 75, 64
1, 349495, Note_off_c, 4, 58, 64
1, 349504, Note_on_c, 2, 77, 127
1, 349505, Note_on_c, 4, 58, 127
1, 349509, Note_off_c, 2, 76, 64
1, 349559, Note_on_c, 4, 56, 127
1, 349563, Note_off_c, 4, 58, 64
1, 349611, Note_off_c, 2, 77, 64
1, 349615, Note_on_c, 4, 58, 127
1, 349615, Note_on_c, 2, 77, 127
1, 349620, Note_off_c, 4, 56, 64
1, 349664, Note_off_c, 4, 50, 64
1, 349669, Note_on_c, 2, 76, 127
1, 349670, Note_on_c, 4, 50, 127
1, 349674, Note_off_c, 2, 77, 64
1, 349722, Note_off_c, 4, 58, 64
1, 349726, Note_on_c, 2, 77, 127
1, 349727, Note_on_c, 4, 58, 127
1, 349731, Note_off_c, 2, 76, 64
1, 349773, Note_off_c, 4, 50, 64
1, 349775, Note_on_c, 0, 78, 123
1, 349776, Note_on_c, 4, 49, 127
1, 349780, Note_off_c, 2, 77, 64
1, 349832, Note_off_c, 4, 58, 64
1, 349836, Note_on_c, 0, 79, 125
1, 349836, Note_on_c, 4, 58, 127
1, 349840, Note_off_c, 0, 78, 64
1, 349888, Note_off_c, 4, 49, 64
1, 349890, Note_on_c, 4, 51, 127
1, 349944, Note_off_c, 4, 58, 64
1, 349944, Note_off_c, 0, 79, 64
1, 349949, Note_on_c, 0, 79, 125
1, 349949, Note_on_c, 4, 58, 127
1, 349998, Note_off_c, 4, 51, 64
1, 350002, Note_on_c, 0, 78, 123
1, 350002, Note_on_c, 4, 49, 127
1, 350006, Note_off_c, 0, 79, 64
1, 350054, Note_off_c, 4, 58, 64
1, 350058, Note_on_c, 0, 79, 125
1, 350059, Note_on_c, 4, 58, 127
1, 350061, Note_off_c, 0, 78, 64
1, 350107, Note_off_c, 0, 79, 64
1, 350109, Note_off_c, 4, 49, 64
1, 350111, Note_on_c, 0, 79, 125
1, 350112, Note_on_c, 4, 48, 127
1, 350162, Note_off_c, 4, 58, 64
1, 350166, Note_on_c, 0, 80, 125
1, 350166, Note_on_c, 4, 56, 127
1, 350171, Note_off_c, 0, 79, 64
1, 350217, Note_off_c, 4, 48, 64
1, 350220, Note_on_c, 4, 51, 127
1, 350276, Note_off_c, 4, 56, 64
1, 350277, Note_off_c, 0, 80, 64
1, 350279, Note_on_c, 0, 80, 125
1, 350280, Note_on_c, 4, 56, 127
1, 350330, Note_off_c, 4, 51, 64
1, 350334, Note_on_c, 4, 48, 127
1, 350334, Note_on_c, 0, 79, 125
1, 350339, Note_off_c, 0, 80, 64
1, 350387, Note_off_c, 4, 56, 64
1, 350388, Note_on_c, 0, 80, 125
1, 350389, Note_on_c, 4, 56, 127
1, 350393, Note_off_c, 0, 79, 64
1, 350441, Note_off_c, 4, 48, 64
1, 350445, Note_on_c, 0, 82, 125
1, 350446, Note_on_c, 4, 43, 127
1, 350450, Note_off_c, 0, 80, 64
1, 350502, Note_off_c, 4, 56, 64
1, 350504, Note_on_c, 0, 79, 125
1, 350509, Note_off_c, 0, 82, 64
1, 350559, Note_on_c, 0, 87, 125
1, 350565, Note_off_c, 0, 79, 64
1, 350615, Note_off_c, 0, 87, 64
1, 350619, Note_on_c, 0, 87, 125
1, 350671, Note_off_c, 0, 87, 64
1, 350675, Note_on_c, 0, 87, 125
1, 350728, Note_off_c, 0, 87, 64
1, 350734, Note_on_c, 0, 87, 125
1, 350791, Note_off_c, 4, 43, 64
1, 350791, Note_on_c, 3, 65, 127
1, 350792, Note_on_c, 4, 56, 127
1, 350830, Note_off_c, 0, 87, 64
1, 350851, Note_on_c, 2, 77, 127
1, 350907, Note_on_c, 0, 84, 125
1, 350962, Note_off_c, 0, 84, 64
1, 350965, Note_on_c, 0, 84, 125
1, 351017, Note_off_c, 0, 84, 64
1, 351023, Note_on_c, 0, 84, 125
1, 351077, Note_off_c, 0, 84, 64
1, 351081, Note_on_c, 0, 84, 125
1, 351136, Note_off_c, 4, 56, 64
1, 351137, Note_off_c, 3, 65, 64
1, 351137, Note_on_c, 3, 67, 127
1, 351138, Note_on_c, 4, 58, 127
1, 351177, Note_off_c, 0, 84, 64
1, 351196, Note_off_c, 2, 77, 64
1, 351197, Note_on_c, 2, 75, 127
1, 351254, Note_on_c, 0, 82, 125
1, 351308, Note_off_c, 0, 82, 64
1, 351314, Note_on_c, 0, 82, 125
1, 351366, Note_off_c, 0, 82, 64
1, 351372, Note_on_c, 0, 82, 125
1, 351425, Note_off_c, 0, 82, 64
1, 351429, Note_on_c, 0, 82, 125
1, 351487, Note_off_c, 4, 58, 64
1, 351488, Note_off_c, 3, 67, 64
1, 351488, Note_on_c, 3, 65, 127
1, 351488, Note_on_c, 4, 58, 127
1, 351526, Note_off_c, 0, 82, 64
1, 351548, Note_off_c, 2, 75, 64
1, 351548, Note_on_c, 3, 68, 127
1, 351602, Note_on_c, 2, 74, 127
1, 351608, Note_off_c, 3, 68, 64
1, 351656, Note_off_c, 2, 74, 64
1, 351660, Note_on_c, 2, 74, 127
1, 351712, Note_off_c, 2, 74, 64
1, 351716, Note_on_c, 2, 74, 127
1, 351769, Note_off_c, 2, 74, 64
1, 351773, Note_on_c, 2, 74, 127
1, 351831, Note_off_c, 4, 58, 64
1, 351831, Note_off_c, 3, 65, 64
1, 351832, Note_on_c, 2, 75, 127
1, 351832, Note_on_c, 2, 70, 127
1, 351832, Note_on_c, 3, 67, 127
1, 351833, Note_on_c, 4, 51, 127
1, 351836, Note_off_c, 2, 74, 64
1, 351891, Note_on_c, 4, 58, 127
1, 351895, Note_off_c, 4, 51, 64
1, 351947, Note_on_c, 4, 55, 127
1, 351953, Note_off_c, 4, 58, 64
1, 352005, Note_on_c, 4, 58, 127
1, 352005, Note_on_c, 3, 63, 127
1, 352009, Note_off_c, 4, 55, 64
1, 352015, Note_off_c, 3, 67, 64
1, 352016, Note_off_c, 2, 70, 64
1, 352016, Note_off_c, 2, 75, 64
1, 352063, Note_on_c, 3, 62, 127
1, 352064, Note_on_c, 4, 51, 127
1, 352068, Note_off_c, 3, 63, 64
1, 352110, Note_off_c, 4, 58, 64
1, 352120, Note_on_c, 3, 63, 127
1, 352120, Note_on_c, 4, 58, 127
1, 352125, Note_off_c, 3, 62, 64
1, 352165, Note_off_c, 4, 51, 64
1, 352175, Note_on_c, 3, 64, 127
1, 352175, Note_on_c, 4, 50, 127
1, 352179, Note_off_c, 3, 63, 64
1, 352222, Note_off_c, 4, 58, 64
1, 352229, Note_on_c, 3, 65, 127
1, 352230, Note_on_c, 4, 58, 127
1, 352234, Note_off_c, 3, 64, 64
1, 352274, Note_off_c, 4, 50, 64
1, 352284, Note_on_c, 4, 56, 127
1, 352290, Note_off_c, 4, 58, 64
1, 352336, Note_off_c, 3, 65, 64
1, 352340, Note_on_c, 3, 65, 127
1, 352340, Note_on_c, 4, 58, 127
1, 352344, Note_off_c, 4, 56, 64
1, 352396, Note_on_c, 3, 64, 127
1, 352397, Note_on_c, 4, 50, 127
1, 352401, Note_off_c, 3, 65, 64
1, 352449, Note_off_c, 4, 58, 64
1, 352451, Note_on_c, 3, 65, 127
1, 352452, Note_on_c, 4, 58, 127
1, 352456, Note_off_c, 3, 64, 64
1, 352504, Note_off_c, 4, 50, 64
1, 352508, Note_on_c, 3, 66, 127
1, 352508, Note_on_c, 4, 49, 127
1, 352512, Note_off_c, 3, 65, 64
1, 352562, Note_off_c, 4, 58, 64
1, 352564, Note_on_c, 3, 67, 127
1, 352565, Note_on_c, 4, 58, 127
1, 352569, Note_off_c, 3, 66, 64
1, 352617, Note_off_c, 4, 49, 64
1, 352621, Note_on_c, 4, 51, 127
1, 352675, Note_off_c, 4, 58, 64
1, 352675, Note_off_c, 3, 67, 64
1, 352678, Note_on_c, 3, 67, 127
1, 352678, Note_on_c, 4, 58, 127
1, 352730, Note_off_c, 4, 51, 64
1, 352735, Note_on_c, 4, 49, 127
1, 352735, Note_on_c, 3, 66, 127
1, 352739, Note_off_c, 3, 67, 64
1, 352787, Note_off_c, 4, 58, 64
1, 352791, Note_on_c, 3, 67, 127
1, 352791, Note_on_c, 4, 58, 127
1, 352796, Note_off_c, 3, 66, 64
1, 352842, Note_off_c, 3, 67, 64
1, 352844, Note_off_c, 4, 49, 64
1, 352846, Note_on_c, 3, 67, 127
1, 352846, Note_on_c, 4, 48, 127
1, 352902, Note_off_c, 4, 58, 64
1, 352906, Note_on_c, 3, 68, 127
1, 352907, Note_on_c, 4, 56, 127
1, 352909, Note_off_c, 3, 67, 64
1, 352959, Note_off_c, 4, 48, 64
1, 352963, Note_on_c, 4, 51, 127
1, 353016, Note_off_c, 4, 56, 64
1, 353017, Note_off_c, 3, 68, 64
1, 353019, Note_on_c, 3, 68, 127
1, 353020, Note_on_c, 4, 56, 127
1, 353074, Note_off_c, 4, 51, 64
1, 353078, Note_on_c, 3, 67, 127
1, 353078, Note_on_c, 4, 48, 127
1, 353083, Note_off_c, 3, 68, 64
1, 353131, Note_off_c, 4, 56, 64
1, 353135, Note_on_c, 3, 68, 127
1, 353135, Note_on_c, 4, 56, 127
1, 353139, Note_off_c, 3, 67, 64
1, 353185, Note_off_c, 4, 48, 64
1, 353189, Note_on_c, 2, 70, 127
1, 353190, Note_on_c, 4, 43, 127
1, 353194, Note_off_c, 3, 68, 64
1, 353244, Note_off_c, 4, 56, 64
1, 353248, Note_on_c, 3, 67, 127
1, 353252, Note_off_c, 2, 70, 64
1, 353304, Note_on_c, 2, 75, 127
1, 353307, Note_off_c, 3, 67, 64
1, 353355, Note_off_c, 2, 75, 64
1, 353361, Note_on_c, 2, 75, 127
1, 353411, Note_off_c, 2, 75, 64
1, 353415, Note_on_c, 2, 75, 127
1, 353467, Note_off_c, 2, 75, 64
1, 353471, Note_on_c, 2, 75, 127
1, 353526, Note_off_c, 4, 43, 64
1, 353527, Note_on_c, 4, 53, 127
1, 353527, Note_on_c, 4, 44, 127
1, 353585, Note_off_c, 2, 75, 64
1, 353585, Note_on_c, 3, 65, 127
1, 353641, Note_on_c, 2, 72, 127
1, 353693, Note_off_c, 2, 72, 64
1, 353697, Note_on_c, 2, 72, 127
1, 353749, Note_off_c, 2, 72, 64
1, 353753, Note_on_c, 2, 72, 127
1, 353805, Note_off_c, 2, 72, 64
1, 353809, Note_on_c, 2, 72, 127
1, 353865, Note_off_c, 4, 44, 64
1, 353865, Note_off_c, 4, 53, 64
1, 353866, Note_on_c, 4, 55, 127
1, 353866, Note_on_c, 4, 46, 127
1, 353924, Note_off_c, 3, 65, 64
1, 353925, Note_off_c, 2, 72, 64
1, 353925, Note_on_c, 3, 63, 127
1, 353981, Note_on_c, 2, 70, 127
1, 354035, Note_off_c, 2, 70, 64
1, 354038, Note_on_c, 2, 70, 127
1, 354089, Note_off_c, 2, 70, 64
1, 354095, Note_on_c, 2, 70, 127
1, 354146, Note_off_c, 2, 70, 64
1, 354151, Note_on_c, 2, 70, 127
1, 354201, Note_off_c, 4, 46, 64
1, 354206, Note_off_c, 4, 55, 64
1, 354206, Note_on_c, 4, 53, 127
1, 354207, Note_on_c, 4, 46, 127
1, 354266, Note_off_c, 3, 63, 64
1, 354266, Note_off_c, 2, 70, 64
1, 354267, Note_on_c, 4, 56, 127
1, 354300, Note_off_c, 4, 53, 64
1, 354323, Note_on_c, 3, 62, 127
1, 354328, Note_off_c, 4, 56, 64
1, 354376, Note_off_c, 3, 62, 64
1, 354380, Note_on_c, 3, 62, 127
1, 354434, Note_off_c, 3, 62, 64
1, 354440, Note_on_c, 3, 62, 127
1, 354492, Note_off_c, 3, 62, 64
1, 354495, Note_on_c, 3, 62, 127
1, 354549, Note_off_c, 3, 62, 64
1, 354553, Note_off_c, 4, 46, 64
1, 354553, Note_on_c, 3, 63, 127
1, 354554, Note_on_c, 4, 51, 127
1, 354612, Note_on_c, 4, 58, 127
1, 354618, Note_off_c, 3, 63, 64
1, 354670, Note_on_c, 4, 55, 127
1, 354676, Note_off_c, 4, 58, 64
1, 354730, Note_on_c, 4, 58, 127
1, 354733, Note_off_c, 4, 55, 64
1, 354787, Note_on_c, 4, 55, 127
1, 354792, Note_off_c, 4, 58, 64
1, 354845, Note_on_c, 4, 58, 127
1, 354849, Note_off_c, 4, 55, 64
1, 354900, Note_off_c, 4, 51, 64
1, 354901, Note_on_c, 4, 56, 127
1, 354901, Note_on_c, 3, 46, 127
1, 354907, Note_off_c, 4, 58, 64
1, 354961, Note_on_c, 4, 58, 127
1, 354965, Note_off_c, 4, 56, 64
1, 355017, Note_off_c, 3, 46, 64
1, 355017, Note_on_c, 4, 56, 127
1, 355018, Note_on_c, 3, 48, 127
1, 355021, Note_off_c, 4, 58, 64
1, 355075, Note_on_c, 4, 58, 127
1, 355081, Note_off_c, 4, 56, 64
1, 355130, Note_off_c, 3, 48, 64
1, 355130, Note_on_c, 4, 56, 127
1, 355131, Note_on_c, 3, 50, 127
1, 355135, Note_off_c, 4, 58, 64
1, 355187, Note_on_c, 4, 58, 127
1, 355191, Note_off_c, 4, 56, 64
1, 355245, Note_off_c, 3, 50, 64
1, 355246, Note_on_c, 4, 55, 127
1, 355246, Note_on_c, 3, 51, 127
1, 355250, Note_off_c, 4, 58, 64
1, 355302, Note_on_c, 4, 51, 127
1, 355308, Note_off_c, 4, 55, 64
1, 355352, Note_off_c, 3, 51, 64
1, 355363, Note_off_c, 4, 51, 64
1, 355364, Note_on_c, 4, 46, 127
1, 355420, Note_on_c, 4, 51, 127
1, 355424, Note_off_c, 4, 46, 64
1, 355475, Note_on_c, 4, 43, 127
1, 355480, Note_off_c, 4, 51, 64
1, 355534, Note_on_c, 4, 46, 127
1, 355538, Note_off_c, 4, 43, 64
1, 355590, Note_on_c, 3, 58, 127
1, 355590, Note_on_c, 4, 44, 127
1, 355595, Note_off_c, 4, 46, 64
1, 355648, Note_on_c, 4, 46, 127
1, 355652, Note_off_c, 4, 44, 64
1, 355704, Note_off_c, 3, 58, 64
1, 355704, Note_on_c, 3, 60, 127
1, 355705, Note_on_c, 4, 44, 127
1, 355709, Note_off_c, 4, 46, 64
1, 355763, Note_on_c, 4, 46, 127
1, 355767, Note_off_c, 4, 44, 64
1, 355821, Note_off_c, 3, 60, 64
1, 355822, Note_on_c, 3, 62, 127
1, 355822, Note_on_c, 4, 44, 127
1, 355826, Note_off_c, 4, 46, 64
1, 355878, Note_on_c, 4, 46, 127
1, 355884, Note_off_c, 4, 44, 64
1, 355935, Note_off_c, 3, 62, 64
1, 355936, Note_on_c, 3, 63, 127
1, 355936, Note_on_c, 4, 43, 127
1, 355940, Note_off_c, 4, 46, 64
1, 355994, Note_on_c, 4, 39, 127
1, 356000, Note_off_c, 4, 43, 64
1, 356052, Note_on_c, 4, 34, 127
1, 356055, Note_off_c, 4, 39, 64
1, 356110, Note_on_c, 4, 39, 127
1, 356114, Note_off_c, 4, 34, 64
1, 356166, Note_on_c, 4, 34, 127
1, 356172, Note_off_c, 4, 39, 64
1, 356222, Note_on_c, 4, 39, 127
1, 356227, Note_off_c, 4, 34, 64
1, 356280, Note_off_c, 3, 63, 64
1, 356280, Note_on_c, 2, 70, 127
1, 356280, Note_on_c, 4, 32, 127
1, 356286, Note_off_c, 4, 39, 64
1, 356340, Note_on_c, 4, 34, 127
1, 356346, Note_off_c, 4, 32, 64
1, 356396, Note_off_c, 2, 70, 64
1, 356396, Note_on_c, 2, 72, 127
1, 356397, Note_on_c, 4, 32, 127
1, 356400, Note_off_c, 4, 34, 64
1, 356454, Note_on_c, 4, 34, 127
1, 356458, Note_off_c, 4, 32, 64
1, 356509, Note_off_c, 2, 72, 64
1, 356510, Note_on_c, 2, 74, 127
1, 356510, Note_on_c, 4, 32, 127
1, 356515, Note_off_c, 4, 34, 64
1, 356567, Note_on_c, 4, 34, 127
1, 356570, Note_off_c, 4, 32, 64
1, 356622, Note_off_c, 2, 74, 64
1, 356623, Note_on_c, 2, 75, 127
1, 356623, Note_on_c, 4, 31, 127
1, 356627, Note_off_c, 4, 34, 64
1, 356796, Note_on_c, 4, 34, 127
1, 356809, Note_off_c, 4, 31, 64
1, 356852, Note_on_c, 4, 39, 127
1, 356903, Note_off_c, 4, 34, 64
1, 356911, Note_on_c, 4, 34, 127
1, 356965, Note_off_c, 4, 39, 64
1, 356965, Note_on_c, 4, 43, 127
1, 357024, Note_off_c, 4, 34, 64
1, 357024, Note_on_c, 4, 39, 127
1, 357078, Note_off_c, 4, 43, 64
1, 357079, Note_on_c, 4, 46, 127
1, 357137, Note_off_c, 4, 39, 64
1, 357137, Note_on_c, 4, 43, 127
1, 357190, Note_off_c, 4, 46, 64
1, 357190, Note_on_c, 4, 51, 127
1, 357246, Note_off_c, 4, 43, 64
1, 357247, Note_on_c, 4, 46, 127
1, 357295, Note_off_c, 4, 51, 64
1, 357301, Note_on_c, 4, 45, 127
1, 357301, Note_on_c, 4, 51, 127
1, 357302, Note_on_c, 4, 41, 127
1, 357302, Note_on_c, 4, 39, 127
1, 357307, Note_off_c, 4, 46, 64
1, 357359, Note_on_c, 4, 48, 127
1, 357405, Note_off_c, 4, 51, 64
1, 357412, Note_on_c, 3, 57, 127
1, 357472, Note_off_c, 4, 48, 64
1, 357472, Note_on_c, 4, 51, 127
1, 357528, Note_off_c, 3, 57, 64
1, 357529, Note_on_c, 3, 60, 127
1, 357564, Note_off_c, 2, 75, 64
1, 357583, Note_off_c, 4, 51, 64
1, 357584, Note_on_c, 3, 57, 127
1, 357638, Note_off_c, 3, 57, 64
1, 357644, Note_off_c, 3, 60, 64
1, 357644, Note_off_c, 4, 39, 64
1, 357645, Note_off_c, 4, 45, 64
1, 357645, Note_off_c, 4, 41, 64
1, 357646, Note_on_c, 3, 57, 127
1, 357646, Note_on_c, 3, 65, 127
1, 357647, Note_on_c, 3, 53, 127
1, 357647, Note_on_c, 4, 51, 127
1, 357701, Note_on_c, 3, 60, 127
1, 357757, Note_off_c, 3, 65, 64
1, 357757, Note_on_c, 3, 69, 127
1, 357814, Note_off_c, 3, 60, 64
1, 357814, Note_on_c, 3, 65, 127
1, 357872, Note_off_c, 3, 69, 64
1, 357873, Note_on_c, 2, 72, 127
1, 357927, Note_off_c, 3, 65, 64
1, 357927, Note_on_c, 3, 69, 127
1, 357978, Note_off_c, 3, 53, 64
1, 357982, Note_off_c, 2, 72, 64
1, 357983, Note_off_c, 3, 57, 64
1, 357983, Note_off_c, 4, 51, 64
1, 357984, Note_on_c, 3, 59, 127
1, 357984, Note_on_c, 3, 53, 127
1, 357984, Note_on_c, 3, 68, 127
1, 357985, Note_on_c, 4, 50, 127
1, 357987, Note_off_c, 3, 69, 64
1, 358039, Note_on_c, 3, 65, 127
1, 358095, Note_off_c, 3, 68, 64
1, 358095, Note_on_c, 3, 71, 127
1, 358153, Note_off_c, 3, 65, 64
1, 358154, Note_on_c, 3, 68, 127
1, 358212, Note_off_c, 3, 71, 64
1, 358212, Note_on_c, 2, 74, 127
1, 358265, Note_off_c, 3, 68, 64
1, 358265, Note_on_c, 3, 71, 127
1, 358316, Note_off_c, 4, 50, 64
1, 358321, Note_off_c, 2, 74, 64
1, 358322, Note_off_c, 3, 53, 64
1, 358322, Note_off_c, 3, 59, 64
1, 358323, Note_on_c, 2, 77, 127
1, 358324, Note_on_c, 4, 50, 127
1, 358324, Note_on_c, 4, 48, 127
1, 358379, Note_off_c, 3, 71, 64
1, 358380, Note_on_c, 2, 74, 127
1, 358434, Note_off_c, 2, 77, 64
1, 358434, Note_on_c, 1, 80, 125
1, 358489, Note_off_c, 2, 74, 64
1, 358489, Note_on_c, 2, 77, 127
1, 358548, Note_off_c, 1, 80, 64
1, 358548, Note_on_c, 1, 86, 125
1, 358602, Note_off_c, 2, 77, 64
1, 358602, Note_on_c, 1, 80, 125
1, 358653, Note_off_c, 4, 50, 64
1, 358658, Note_off_c, 1, 86, 64
1, 358659, Note_off_c, 4, 48, 64
1, 358660, Note_on_c, 1, 89, 125
1, 358660, Note_on_c, 3, 55, 127
1, 358661, Note_on_c, 4, 50, 127
1, 358661, Note_on_c, 4, 47, 127
1, 358716, Note_off_c, 1, 80, 64
1, 359208, Note_on_c, 1, 79, 125
1, 359256, Note_off_c, 4, 47, 64
1, 359256, Note_off_c, 4, 50, 64
1, 359257, Note_off_c, 3, 55, 64
1, 359257, Note_off_c, 1, 89, 64
1, 359325, Note_on_c, 3, 63, 127
1, 359326, Note_on_c, 3, 60, 127
1, 359439, Note_off_c, 1, 79, 64
1, 359440, Note_on_c, 3, 75, 127
1, 359554, Note_off_c, 3, 75, 64
1, 359554, Note_on_c, 3, 72, 127
1, 359666, Note_off_c, 3, 63, 64
1, 359666, Note_off_c, 3, 60, 64
1, 359667, Note_on_c, 3, 65, 127
1, 359667, Note_on_c, 3, 62, 127
1, 359781, Note_off_c, 3, 72, 64
1, 359782, Note_on_c, 3, 71, 127
1, 359892, Note_off_c, 3, 71, 64
1, 359892, Note_on_c, 1, 80, 125
1, 360002, Note_off_c, 3, 62, 64
1, 360006, Note_off_c, 3, 65, 64
1, 360006, Note_on_c, 3, 62, 127
1, 360007, Note_on_c, 4, 59, 127
1, 360122, Note_off_c, 1, 80, 64
1, 360122, Note_on_c, 1, 79, 125
1, 360234, Note_off_c, 1, 79, 64
1, 360235, Note_on_c, 3, 77, 127
1, 360348, Note_off_c, 4, 59, 64
1, 360349, Note_off_c, 3, 62, 64
1, 360349, Note_on_c, 3, 67, 127
1, 360350, Note_on_c, 3, 60, 127
1, 360466, Note_off_c, 3, 77, 64
1, 360466, Note_on_c, 3, 75, 127
1, 360578, Note_off_c, 3, 75, 64
1, 360578, Note_on_c, 1, 79, 125
1, 360684, Note_off_c, 3, 67, 64
1, 360688, Note_off_c, 3, 60, 64
1, 360689, Note_on_c, 3, 67, 127
1, 360689, Note_on_c, 3, 63, 127
1, 360803, Note_off_c, 1, 79, 64
1, 360803, Note_on_c, 1, 84, 125
1, 360915, Note_off_c, 1, 84, 64
1, 360915, Note_off_c, 3, 63, 64
1, 360916, Note_off_c, 3, 67, 64
1, 360916, Note_on_c, 1, 82, 125
1, 360917, Note_on_c, 3, 64, 127
1, 361024, Note_off_c, 3, 64, 64
1, 361024, Note_on_c, 3, 68, 127
1, 361024, Note_on_c, 3, 65, 127
1, 361140, Note_off_c, 1, 82, 64
1, 361140, Note_on_c, 1, 80, 125
1, 361252, Note_off_c, 1, 80, 64
1, 361253, Note_off_c, 3, 65, 64
1, 361253, Note_off_c, 3, 68, 64
1, 361254, Note_on_c, 3, 79, 125
1, 361254, Note_on_c, 2, 70, 127
1, 361255, Note_on_c, 3, 67, 127
1, 361365, Note_off_c, 3, 67, 64
1, 361365, Note_off_c, 2, 70, 64
1, 361366, Note_on_c, 2, 72, 127
1, 361366, Note_on_c, 3, 68, 127
1, 361478, Note_off_c, 3, 79, 64
1, 361478, Note_on_c, 3, 77, 127
1, 361590, Note_off_c, 3, 77, 64
1, 361591, Note_off_c, 3, 68, 64
1, 361591, Note_off_c, 2, 72, 64
1, 361592, Note_on_c, 3, 78, 123
1, 361592, Note_on_c, 2, 69, 127
1, 361700, Note_off_c, 2, 69, 64
1, 361700, Note_on_c, 2, 72, 127
1, 361701, Note_on_c, 3, 67, 127
1, 361813, Note_off_c, 3, 67, 64
1, 361813, Note_off_c, 2, 72, 64
1, 361814, Note_off_c, 3, 78, 64
1, 361814, Note_on_c, 3, 79, 125
1, 361815, Note_on_c, 2, 71, 127
1, 361924, Note_off_c, 2, 71, 64
1, 361925, Note_off_c, 3, 79, 64
1, 361925, Note_on_c, 3, 67, 127
1, 362033, Note_on_c, 4, 51, 127
1, 362033, Note_on_c, 4, 48, 127
1, 362149, Note_off_c, 3, 67, 64
1, 362149, Note_on_c, 3, 63, 127
1, 362259, Note_off_c, 3, 63, 64
1, 362260, Note_on_c, 3, 60, 127
1, 362368, Note_off_c, 4, 48, 64
1, 362368, Note_off_c, 4, 51, 64
1, 362369, Note_on_c, 4, 53, 127
1, 362369, Note_on_c, 4, 50, 127
1, 362479, Note_off_c, 3, 60, 64
1, 362480, Note_on_c, 4, 59, 127
1, 362592, Note_off_c, 4, 59, 64
1, 362592, Note_on_c, 3, 68, 127
1, 362704, Note_off_c, 4, 50, 64
1, 362704, Note_off_c, 4, 53, 64
1, 362705, Note_on_c, 4, 50, 127
1, 362705, Note_on_c, 4, 47, 127
1, 362817, Note_off_c, 3, 68, 64
1, 362818, Note_on_c, 3, 67, 127
1, 362928, Note_off_c, 3, 67, 64
1, 362928, Note_on_c, 3, 65, 127
1, 363036, Note_off_c, 4, 47, 64
1, 363036, Note_off_c, 4, 50, 64
1, 363037, Note_on_c, 4, 49, 127
1, 363037, Note_on_c, 4, 46, 127
1, 363147, Note_off_c, 3, 65, 64
1, 363148, Note_on_c, 3, 64, 127
1, 363256, Note_off_c, 3, 64, 64
1, 363258, Note_on_c, 2, 73, 127
1, 363369, Note_off_c, 4, 46, 64
1, 363369, Note_off_c, 4, 49, 64
1, 363370, Note_on_c, 4, 55, 127
1, 363370, Note_on_c, 4, 52, 127
1, 363480, Note_off_c, 2, 73, 64
1, 363480, Note_on_c, 2, 72, 127
1, 363592, Note_off_c, 2, 72, 64
1, 363593, Note_off_c, 4, 52, 64
1, 363593, Note_off_c, 4, 55, 64
1, 363594, Note_on_c, 2, 70, 127
1, 363594, Note_on_c, 3, 60, 127
1, 363700, Note_off_c, 3, 60, 64
1, 363700, Note_off_c, 2, 70, 64
1, 363701, Note_on_c, 3, 68, 127
1, 363701, Note_on_c, 4, 53, 127
1, 363815, Note_off_c, 4, 53, 64
1, 363816, Note_off_c, 3, 68, 64
1, 363816, Note_on_c, 3, 67, 127
1, 363816, Note_on_c, 4, 55, 127
1, 363926, Note_off_c, 4, 55, 64
1, 363927, Note_off_c, 3, 67, 64
1, 363927, Note_on_c, 3, 66, 127
1, 363928, Note_on_c, 4, 56, 127
1, 364038, Note_off_c, 4, 56, 64
1, 364038, Note_off_c, 3, 66, 64
1, 364039, Note_on_c, 3, 67, 127
1, 364039, Note_on_c, 3, 63, 127
1, 364040, Note_on_c, 4, 55, 127
1, 364150, Note_off_c, 3, 63, 64
1, 364154, Note_off_c, 3, 67, 64
1, 364154, Note_off_c, 4, 55, 64
1, 364155, Note_on_c, 3, 63, 127
1, 364155, Note_on_c, 3, 60, 127
1, 364264, Note_off_c, 3, 60, 64
1, 364265, Note_off_c, 3, 63, 64
1, 364265, Note_on_c, 3, 62, 127
1, 364266, Note_on_c, 4, 59, 127
1, 364266, Note_on_c, 4, 53, 127
1, 364267, Note_on_c, 4, 43, 127
1, 364375, Note_off_c, 4, 53, 64
1, 364375, Note_off_c, 4, 43, 64
1, 364376, Note_off_c, 3, 62, 64
1, 364376, Note_off_c, 4, 59, 64
1, 364377, Note_on_c, 3, 60, 127
1, 364377, Note_on_c, 4, 51, 127
1, 364378, Note_on_c, 4, 48, 127
1, 364594, Note_on_c, 1, 77, 127
1, 364601, Note_on_c, 1, 75, 127
1, 364611, Note_off_c, 1, 77, 64
1, 364657, Note_off_c, 1, 75, 64
1, 364657, Note_off_c, 4, 48, 64
1, 364658, Note_off_c, 4, 51, 64
1, 364658, Note_off_c, 3, 60, 64
1, 364659, Note_on_c, 1, 74, 127
1, 364686, Note_on_c, 1, 72, 127
1, 364690, Note_off_c, 1, 74, 64
1, 364713, Note_on_c, 0, 79, 125
1, 364713, Note_on_c, 3, 62, 127
1, 364714, Note_on_c, 4, 59, 127
1, 364717, Note_off_c, 1, 72, 64
1, 364771, Note_on_c, 4, 55, 127
1, 364825, Note_off_c, 3, 62, 64
1, 364825, Note_off_c, 4, 59, 64
1, 364826, Note_off_c, 0, 79, 64
1, 364828, Note_on_c, 0, 79, 127
1, 364828, Note_on_c, 3, 67, 127
1, 364829, Note_on_c, 3, 63, 127
1, 364829, Note_on_c, 3, 60, 127
1, 364882, Note_off_c, 4, 55, 64
1, 364885, Note_on_c, 4, 55, 127
1, 364937, Note_off_c, 3, 60, 64
1, 364938, Note_off_c, 3, 63, 64
1, 364938, Note_off_c, 0, 79, 64
1, 364939, Note_off_c, 3, 67, 64
1, 364939, Note_on_c, 0, 79, 127
1, 364940, Note_on_c, 3, 67, 127
1, 364940, Note_on_c, 3, 65, 127
1, 364941, Note_on_c, 3, 62, 127
1, 364991, Note_off_c, 4, 55, 64
1, 364993, Note_on_c, 4, 55, 127
1, 365047, Note_off_c, 3, 65, 64
1, 365047, Note_off_c, 3, 62, 64
1, 365048, Note_off_c, 0, 79, 64
1, 365048, Note_off_c, 3, 67, 64
1, 365049, Note_on_c, 3, 67, 127
1, 365049, Note_on_c, 0, 79, 127
1, 365050, Note_on_c, 3, 63, 127
1, 365050, Note_on_c, 3, 60, 127
1, 365104, Note_off_c, 4, 55, 64
1, 365107, Note_on_c, 4, 55, 127
1, 365161, Note_off_c, 3, 60, 64
1, 365161, Note_off_c, 3, 63, 64
1, 365166, Note_on_c, 3, 63, 127
1, 365166, Note_on_c, 3, 60, 127
1, 365219, Note_off_c, 4, 55, 64
1, 365220, Note_on_c, 4, 55, 127
1, 365268, Note_off_c, 0, 79, 64
1, 365270, Note_on_c, 1, 77, 127
1, 365274, Note_off_c, 3, 60, 64
1, 365275, Note_off_c, 3, 63, 64
1, 365279, Note_on_c, 1, 75, 127
1, 365280, Note_on_c, 3, 63, 127
1, 365280, Note_on_c, 3, 60, 127
1, 365288, Note_off_c, 1, 77, 64
1, 365329, Note_off_c, 1, 75, 64
1, 365329, Note_off_c, 4, 55, 64
1, 365333, Note_off_c, 3, 67, 64
1, 365333, Note_on_c, 1, 74, 127
1, 365334, Note_on_c, 4, 55, 127
1, 365361, Note_on_c, 1, 72, 127
1, 365364, Note_off_c, 1, 74, 64
1, 365386, Note_off_c, 3, 60, 64
1, 365386, Note_off_c, 3, 63, 64
1, 365388, Note_on_c, 0, 79, 127
1, 365389, Note_on_c, 3, 62, 127
1, 365389, Note_on_c, 4, 59, 127
1, 365391, Note_off_c, 1, 72, 64
1, 365443, Note_off_c, 4, 55, 64
1, 365447, Note_on_c, 4, 55, 127
1, 365499, Note_off_c, 4, 59, 64
1, 365500, Note_off_c, 3, 62, 64
1, 365500, Note_off_c, 0, 79, 64
1, 365503, Note_on_c, 0, 79, 127
1, 365503, Note_on_c, 3, 67, 127
1, 365504, Note_on_c, 3, 63, 127
1, 365504, Note_on_c, 3, 60, 127
1, 365555, Note_off_c, 4, 55, 64
1, 365558, Note_on_c, 4, 55, 127
1, 365612, Note_off_c, 3, 60, 64
1, 365613, Note_off_c, 3, 67, 64
1, 365613, Note_off_c, 3, 63, 64
1, 365614, Note_off_c, 0, 79, 64
1, 365617, Note_on_c, 0, 79, 127
1, 365617, Note_on_c, 3, 67, 127
1, 365618, Note_on_c, 3, 65, 127
1, 365667, Note_off_c, 4, 55, 64
1, 365671, Note_on_c, 4, 55, 127
1, 365725, Note_off_c, 3, 65, 64
1, 365725, Note_off_c, 3, 67, 64
1, 365726, Note_off_c, 0, 79, 64
1, 365729, Note_on_c, 3, 67, 127
1, 365729, Note_on_c, 0, 79, 127
1, 365729, Note_on_c, 3, 63, 127
1, 365730, Note_on_c, 3, 60, 127
1, 365784, Note_off_c, 4, 55, 64
1, 365786, Note_on_c, 4, 55, 127
1, 365838, Note_off_c, 3, 63, 64
1, 365838, Note_off_c, 3, 60, 64
1, 365843, Note_on_c, 3, 63, 127
1, 365844, Note_on_c, 3, 60, 127
1, 365895, Note_off_c, 4, 55, 64
1, 365900, Note_on_c, 4, 55, 127
1, 365942, Note_off_c, 0, 79, 64
1, 365949, Note_on_c, 1, 77, 127
1, 365953, Note_off_c, 3, 60, 64
1, 365953, Note_off_c, 3, 63, 64
1, 365956, Note_on_c, 1, 75, 127
1, 365956, Note_on_c, 3, 63, 127
1, 365957, Note_on_c, 3, 60, 127
1, 365964, Note_off_c, 1, 77, 64
1, 366007, Note_off_c, 1, 75, 64
1, 366009, Note_off_c, 4, 55, 64
1, 366011, Note_off_c, 3, 67, 64
1, 366012, Note_on_c, 1, 74, 127
1, 366012, Note_on_c, 4, 55, 127
1, 366040, Note_on_c, 1, 72, 127
1, 366041, Note_off_c, 1, 74, 64
1, 366062, Note_off_c, 3, 60, 64
1, 366063, Note_off_c, 3, 63, 64
1, 366066, Note_on_c, 0, 80, 125
1, 366066, Note_on_c, 1, 74, 127
1, 366067, Note_on_c, 1, 71, 127
1, 366068, Note_off_c, 1, 72, 64
1, 366161, Note_off_c, 4, 55, 64
1, 366180, Note_on_c, 4, 41, 127
1, 366291, Note_on_c, 3, 65, 127
1, 366292, Note_on_c, 4, 53, 127
1, 366348, Note_off_c, 1, 74, 64
1, 366348, Note_off_c, 1, 71, 64
1, 366349, Note_off_c, 0, 80, 64
1, 366405, Note_on_c, 0, 79, 125
1, 366405, Note_on_c, 1, 75, 127
1, 366406, Note_on_c, 1, 72, 127
1, 366432, Note_off_c, 4, 53, 64
1, 366433, Note_off_c, 3, 65, 64
1, 366507, Note_off_c, 4, 41, 64
1, 366518, Note_on_c, 4, 51, 127
1, 366518, Note_on_c, 4, 39, 127
1, 366626, Note_off_c, 4, 51, 64
1, 366628, Note_on_c, 3, 63, 127
1, 366629, Note_on_c, 4, 51, 127
1, 366683, Note_off_c, 1, 72, 64
1, 366684, Note_off_c, 1, 75, 64
1, 366684, Note_off_c, 0, 79, 64
1, 366702, Note_off_c, 4, 39, 64
1, 366741, Note_off_c, 3, 63, 64
1, 366741, Note_off_c, 4, 51, 64
1, 366742, Note_on_c, 4, 50, 127
1, 366742, Note_on_c, 3, 62, 127
1, 366856, Note_on_c, 1, 83, 125
1, 366856, Note_on_c, 1, 77, 127
1, 366857, Note_on_c, 1, 74, 127
1, 366939, Note_off_c, 3, 62, 64
1, 366974, Note_off_c, 1, 83, 64
1, 366976, Note_off_c, 1, 74, 64
1, 366977, Note_off_c, 1, 77, 64
1, 366977, Note_on_c, 1, 86, 125
1, 366977, Note_on_c, 1, 83, 125
1, 366978, Note_on_c, 1, 77, 127
1, 367069, Note_off_c, 4, 50, 64
1, 367106, Note_off_c, 1, 86, 64
1, 367110, Note_off_c, 1, 77, 64
1, 367111, Note_off_c, 1, 83, 64
1, 367111, Note_on_c, 1, 89, 125
1, 367112, Note_on_c, 1, 86, 125
1, 367112, Note_on_c, 1, 79, 125
1, 367113, Note_on_c, 4, 47, 127
1, 367113, Note_on_c, 4, 59, 127
1, 367642, Note_off_c, 1, 79, 64
1, 367643, Note_off_c, 1, 89, 64
1, 367643, Note_off_c, 1, 86, 64
1, 367699, Note_on_c, 2, 75, 127
1, 367724, Note_off_c, 4, 59, 64
1, 367964, Note_off_c, 4, 47, 64
1, 368003, Note_off_c, 2, 75, 64
1, 368004, Note_on_c, 3, 66, 127
1, 368004, Note_on_c, 3, 63, 127
1, 368004, Note_on_c, 3, 60, 127
1, 368318, Note_off_c, 3, 60, 64
1, 368319, Note_off_c, 3, 63, 64
1, 368319, Note_off_c, 3, 66, 64
1, 368320, Note_on_c, 3, 67, 127
1, 368320, Note_on_c, 3, 65, 127
1, 368321, Note_on_c, 3, 62, 127
1, 368321, Note_on_c, 4, 59, 127
1, 368485, Note_on_c, 3, 68, 127
1, 368495, Note_off_c, 3, 67, 64
1, 368539, Note_off_c, 3, 68, 64
1, 368540, Note_off_c, 4, 59, 64
1, 368540, Note_off_c, 3, 62, 64
1, 368541, Note_off_c, 3, 65, 64
1, 368541, Note_on_c, 3, 67, 127
1, 368541, Note_on_c, 3, 63, 127
1, 368542, Note_on_c, 3, 60, 127
1, 368652, Note_off_c, 3, 63, 64
1, 368652, Note_off_c, 3, 67, 64
1, 368654, Note_off_c, 3, 60, 64
1, 368655, Note_on_c, 3, 67, 127
1, 368655, Note_on_c, 3, 63, 127
1, 368670, Note_on_c, 3, 65, 127
1, 368671, Note_on_c, 3, 62, 127
1, 368671, Note_on_c, 4, 53, 127
1, 368672, Note_off_c, 3, 63, 64
1, 368672, Note_off_c, 3, 67, 64
1, 368777, Note_on_c, 4, 55, 127
1, 368779, Note_on_c, 3, 63, 127
1, 368779, Note_on_c, 3, 60, 127
1, 368782, Note_off_c, 4, 53, 64
1, 368783, Note_off_c, 3, 62, 64
1, 368783, Note_off_c, 3, 65, 64
1, 368893, Note_off_c, 4, 55, 64
1, 368893, Note_on_c, 4, 43, 127
1, 368894, Note_off_c, 3, 60, 64
1, 368894, Note_off_c, 3, 63, 64
1, 368895, Note_on_c, 3, 62, 127
1, 368895, Note_on_c, 4, 59, 127
1, 369009, Note_on_c, 3, 60, 127
1, 369009, Note_on_c, 4, 48, 127
1, 369010, Note_off_c, 4, 43, 64
1, 369011, Note_off_c, 4, 59, 64
1, 369012, Note_off_c, 3, 62, 64
1, 369228, Note_on_c, 1, 77, 127
1, 369236, Note_on_c, 1, 75, 127
1, 369244, Note_off_c, 1, 77, 64
1, 369292, Note_off_c, 1, 75, 64
1, 369292, Note_off_c, 4, 48, 64
1, 369293, Note_off_c, 3, 60, 64
1, 369293, Note_on_c, 1, 74, 127
1, 369319, Note_on_c, 1, 72, 127
1, 369323, Note_off_c, 1, 74, 64
1, 369347, Note_on_c, 0, 79, 125
1, 369347, Note_on_c, 3, 62, 127
1, 369348, Note_on_c, 4, 59, 127
1, 369349, Note_off_c, 1, 72, 64
1, 369401, Note_on_c, 4, 55, 127
1, 369453, Note_off_c, 4, 59, 64
1, 369454, Note_off_c, 3, 62, 64
1, 369454, Note_off_c, 0, 79, 64
1, 369456, Note_on_c, 0, 79, 127
1, 369456, Note_on_c, 3, 63, 127
1, 369457, Note_on_c, 3, 60, 127
1, 369511, Note_off_c, 4, 55, 64
1, 369515, Note_on_c, 4, 55, 127
1, 369568, Note_off_c, 3, 60, 64
1, 369569, Note_off_c, 3, 63, 64
1, 369569, Note_off_c, 0, 79, 64
1, 369571, Note_on_c, 0, 79, 127
1, 369572, Note_on_c, 3, 65, 127
1, 369572, Note_on_c, 3, 62, 127
1, 369624, Note_off_c, 4, 55, 64
1, 369628, Note_on_c, 4, 55, 127
1, 369680, Note_off_c, 3, 62, 64
1, 369680, Note_off_c, 3, 65, 64
1, 369681, Note_off_c, 0, 79, 64
1, 369683, Note_on_c, 0, 79, 127
1, 369683, Note_on_c, 3, 63, 127
1, 369684, Note_on_c, 3, 60, 127
1, 369737, Note_off_c, 4, 55, 64
1, 369741, Note_on_c, 4, 55, 127
1, 369795, Note_off_c, 3, 60, 64
1, 369795, Note_off_c, 3, 63, 64
1, 369798, Note_on_c, 3, 63, 127
1, 369799, Note_on_c, 3, 60, 127
1, 369851, Note_off_c, 4, 55, 64
1, 369854, Note_on_c, 4, 55, 127
1, 369900, Note_off_c, 0, 79, 64
1, 369904, Note_on_c, 1, 77, 127
1, 369908, Note_off_c, 3, 60, 64
1, 369909, Note_off_c, 3, 63, 64
1, 369911, Note_on_c, 1, 75, 127
1, 369912, Note_on_c, 3, 63, 127
1, 369912, Note_on_c, 3, 60, 127
1, 369920, Note_off_c, 1, 77, 64
1, 369964, Note_off_c, 4, 55, 64
1, 369968, Note_off_c, 1, 75, 64
1, 369968, Note_on_c, 1, 74, 127
1, 369969, Note_on_c, 4, 55, 127
1, 369996, Note_on_c, 1, 72, 127
1, 369997, Note_off_c, 1, 74, 64
1, 370020, Note_off_c, 3, 60, 64
1, 370021, Note_off_c, 3, 63, 64
1, 370023, Note_on_c, 0, 79, 127
1, 370024, Note_on_c, 4, 59, 127
1, 370027, Note_off_c, 1, 72, 64
1, 370078, Note_off_c, 4, 55, 64
1, 370081, Note_on_c, 4, 55, 127
1, 370133, Note_off_c, 4, 59, 64
1, 370134, Note_off_c, 0, 79, 64
1, 370136, Note_on_c, 0, 79, 127
1, 370136, Note_on_c, 3, 63, 127
1, 370137, Note_on_c, 3, 60, 127
1, 370188, Note_off_c, 4, 55, 64
1, 370192, Note_on_c, 4, 55, 127
1, 370244, Note_off_c, 3, 60, 64
1, 370245, Note_off_c, 3, 63, 64
1, 370245, Note_off_c, 0, 79, 64
1, 370247, Note_on_c, 0, 79, 127
1, 370248, Note_on_c, 3, 65, 127
1, 370248, Note_on_c, 3, 62, 127
1, 370300, Note_off_c, 4, 55, 64
1, 370302, Note_on_c, 4, 55, 127
1, 370354, Note_off_c, 3, 62, 64
1, 370354, Note_off_c, 3, 65, 64
1, 370355, Note_off_c, 0, 79, 64
1, 370357, Note_on_c, 0, 79, 127
1, 370357, Note_on_c, 3, 63, 127
1, 370357, Note_on_c, 3, 60, 127
1, 370413, Note_off_c, 4, 55, 64
1, 370417, Note_on_c, 4, 55, 127
1, 370469, Note_off_c, 3, 60, 64
1, 370469, Note_off_c, 3, 63, 64
1, 370474, Note_on_c, 3, 63, 127
1, 370475, Note_on_c, 3, 60, 127
1, 370524, Note_off_c, 4, 55, 64
1, 370529, Note_on_c, 4, 55, 127
1, 370572, Note_off_c, 0, 79, 64
1, 370578, Note_on_c, 1, 77, 127
1, 370582, Note_off_c, 3, 60, 64
1, 370583, Note_off_c, 3, 63, 64
1, 370585, Note_on_c, 1, 75, 127
1, 370585, Note_on_c, 3, 63, 127
1, 370586, Note_on_c, 3, 60, 127
1, 370594, Note_off_c, 1, 77, 64
1, 370638, Note_off_c, 4, 55, 64
1, 370642, Note_off_c, 1, 75, 64
1, 370643, Note_on_c, 4, 55, 127
1, 370643, Note_on_c, 1, 74, 127
1, 370669, Note_on_c, 1, 72, 127
1, 370672, Note_off_c, 1, 74, 64
1, 370695, Note_off_c, 3, 60, 64
1, 370696, Note_off_c, 3, 63, 64
1, 370701, Note_on_c, 0, 80, 125
1, 370701, Note_on_c, 1, 74, 127
1, 370701, Note_on_c, 1, 71, 127
1, 370702, Note_off_c, 1, 72, 64
1, 370812, Note_on_c, 4, 41, 127
1, 370812, Note_on_c, 4, 53, 127
1, 370823, Note_off_c, 4, 55, 64
1, 370924, Note_off_c, 4, 53, 64
1, 370928, Note_on_c, 3, 65, 127
1, 370929, Note_on_c, 4, 53, 127
1, 370985, Note_off_c, 1, 71, 64
1, 370985, Note_off_c, 1, 74, 64
1, 370986, Note_off_c, 0, 80, 64
1, 371044, Note_off_c, 4, 53, 64
1, 371045, Note_off_c, 3, 65, 64
1, 371045, Note_on_c, 0, 79, 125
1, 371046, Note_on_c, 1, 75, 127
1, 371046, Note_on_c, 1, 72, 127
1, 371088, Note_off_c, 4, 41, 64
1, 371160, Note_on_c, 4, 39, 127
1, 371160, Note_on_c, 4, 51, 127
1, 371268, Note_off_c, 4, 51, 64
1, 371272, Note_on_c, 3, 63, 127
1, 371272, Note_on_c, 4, 51, 127
1, 371328, Note_off_c, 1, 72, 64
1, 371329, Note_off_c, 0, 79, 64
1, 371329, Note_off_c, 1, 75, 64
1, 371349, Note_off_c, 4, 39, 64
1, 371389, Note_off_c, 4, 51, 64
1, 371389, Note_off_c, 3, 63, 64
1, 371390, Note_on_c, 4, 50, 127
1, 371390, Note_on_c, 3, 62, 127
1, 371506, Note_on_c, 0, 83, 125
1, 371507, Note_on_c, 1, 77, 127
1, 371507, Note_on_c, 1, 74, 127
1, 371586, Note_off_c, 3, 62, 64
1, 371625, Note_off_c, 0, 83, 64
1, 371629, Note_off_c, 1, 74, 64
1, 371629, Note_off_c, 1, 77, 64
1, 371630, Note_on_c, 1, 86, 125
1, 371630, Note_on_c, 1, 83, 125
1, 371631, Note_on_c, 1, 77, 127
1, 371760, Note_off_c, 1, 86, 64
1, 371764, Note_off_c, 1, 77, 64
1, 371765, Note_off_c, 1, 83, 64
1, 371765, Note_on_c, 1, 89, 125
1, 371766, Note_on_c, 1, 86, 125
1, 371766, Note_on_c, 1, 79, 125
1, 371767, Note_on_c, 4, 59, 127
1, 371767, Note_on_c, 4, 47, 127
1, 371784, Note_off_c, 4, 50, 64
1, 372290, Note_off_c, 1, 79, 64
1, 372291, Note_off_c, 1, 89, 64
1, 372291, Note_off_c, 1, 86, 64
1, 372307, Note_off_c, 4, 59, 64
1, 372348, Note_on_c, 3, 61, 127
1, 372348, Note_on_c, 4, 49, 127
1, 372384, Note_off_c, 4, 47, 64
1, 372462, Note_off_c, 4, 49, 64
1, 372463, Note_off_c, 3, 61, 64
1, 372463, Note_on_c, 1, 76, 127
1, 372464, Note_on_c, 2, 70, 127
1, 372464, Note_on_c, 3, 67, 127
1, 372465, Note_on_c, 4, 46, 127
1, 372586, Note_off_c, 2, 70, 64
1, 372587, Note_off_c, 1, 76, 64
1, 372589, Note_off_c, 4, 46, 64
1, 372590, Note_off_c, 3, 67, 64
1, 372590, Note_on_c, 1, 79, 125
1, 372591, Note_on_c, 2, 76, 127
1, 372591, Note_on_c, 2, 70, 127
1, 372592, Note_on_c, 4, 55, 127
1, 372592, Note_on_c, 4, 43, 127
1, 372712, Note_off_c, 1, 79, 64
1, 372714, Note_off_c, 4, 43, 64
1, 372714, Note_off_c, 4, 55, 64
1, 372715, Note_off_c, 2, 70, 64
1, 372715, Note_off_c, 2, 76, 64
1, 372716, Note_on_c, 1, 82, 125
1, 372716, Note_on_c, 1, 79, 125
1, 372717, Note_on_c, 2, 73, 127
1, 372717, Note_on_c, 4, 52, 127
1, 372718, Note_on_c, 4, 40, 127
1, 373240, Note_off_c, 2, 73, 64
1, 373241, Note_off_c, 1, 79, 64
1, 373241, Note_off_c, 1, 82, 64
1, 373270, Note_off_c, 4, 52, 64
1, 373270, Note_off_c, 4, 40, 64
1, 373296, Note_on_c, 4, 53, 119
1, 373411, Note_off_c, 4, 53, 64
1, 373412, Note_on_c, 4, 56, 119
1, 373525, Note_off_c, 4, 56, 64
1, 373526, Note_on_c, 3, 60, 119
1, 373636, Note_off_c, 3, 60, 64
1, 373636, Note_on_c, 4, 52, 119
1, 373752, Note_off_c, 4, 52, 64
1, 373752, Note_on_c, 4, 55, 119
1, 373866, Note_off_c, 4, 55, 64
1, 373867, Note_on_c, 4, 58, 119
1, 373977, Note_off_c, 4, 58, 64
1, 373977, Note_on_c, 2, 72, 127
1, 373978, Note_on_c, 4, 53, 119
1, 374092, Note_off_c, 4, 53, 64
1, 374092, Note_on_c, 4, 56, 119
1, 374206, Note_off_c, 4, 56, 64
1, 374207, Note_on_c, 3, 60, 119
1, 374309, Note_off_c, 2, 72, 64
1, 374315, Note_off_c, 3, 60, 64
1, 374315, Note_on_c, 2, 72, 127
1, 374316, Note_on_c, 4, 52, 119
1, 374429, Note_off_c, 4, 52, 64
1, 374429, Note_on_c, 4, 55, 119
1, 374543, Note_off_c, 4, 55, 64
1, 374544, Note_on_c, 4, 58, 119
1, 374596, Note_off_c, 2, 72, 64
1, 374600, Note_on_c, 2, 72, 127
1, 374653, Note_off_c, 4, 58, 64
1, 374654, Note_on_c, 2, 73, 127
1, 374654, Note_on_c, 4, 53, 119
1, 374658, Note_off_c, 2, 72, 64
1, 374770, Note_off_c, 4, 53, 64
1, 374770, Note_on_c, 4, 56, 119
1, 374882, Note_off_c, 4, 56, 64
1, 374883, Note_off_c, 2, 73, 64
1, 374883, Note_on_c, 2, 72, 127
1, 374883, Note_on_c, 3, 60, 119
1, 374994, Note_off_c, 3, 60, 64
1, 374994, Note_on_c, 4, 52, 119
1, 375109, Note_off_c, 4, 52, 64
1, 375110, Note_on_c, 4, 55, 119
1, 375224, Note_off_c, 2, 72, 64
1, 375224, Note_off_c, 4, 55, 64
1, 375225, Note_on_c, 4, 58, 119
1, 375280, Note_on_c, 1, 84, 127
1, 375334, Note_off_c, 4, 58, 64
1, 375334, Note_on_c, 1, 85, 127
1, 375335, Note_on_c, 4, 53, 119
1, 375338, Note_off_c, 1, 84, 64
1, 375450, Note_off_c, 4, 53, 64
1, 375450, Note_on_c, 4, 56, 119
1, 375562, Note_off_c, 4, 56, 64
1, 375563, Note_off_c, 1, 85, 64
1, 375563, Note_on_c, 1, 84, 127
1, 375564, Note_on_c, 3, 60, 119
1, 375673, Note_off_c, 3, 60, 64
1, 375674, Note_on_c, 4, 51, 119
1, 375792, Note_off_c, 4, 51, 64
1, 375792, Note_on_c, 4, 55, 119
1, 375898, Note_off_c, 4, 55, 64
1, 375899, Note_on_c, 3, 60, 125
1, 376005, Note_off_c, 3, 60, 64
1, 376005, Note_on_c, 3, 62, 127
1, 376006, Note_on_c, 4, 50, 125
1, 376015, Note_off_c, 1, 84, 64
1, 376117, Note_off_c, 3, 62, 64
1, 376117, Note_off_c, 4, 50, 64
1, 376118, Note_on_c, 1, 78, 127
1, 376118, Note_on_c, 2, 72, 127
1, 376119, Note_on_c, 2, 69, 127
1, 376119, Note_on_c, 3, 60, 125
1, 376120, Note_on_c, 4, 48, 125
1, 376229, Note_off_c, 2, 72, 64
1, 376230, Note_off_c, 1, 78, 64
1, 376234, Note_off_c, 4, 48, 64
1, 376235, Note_off_c, 3, 60, 64
1, 376235, Note_off_c, 2, 69, 64
1, 376236, Note_on_c, 1, 81, 127
1, 376236, Note_on_c, 1, 78, 127
1, 376236, Note_on_c, 2, 72, 127
1, 376237, Note_on_c, 4, 57, 125
1, 376237, Note_on_c, 4, 45, 125
1, 376357, Note_off_c, 1, 81, 64
1, 376361, Note_off_c, 4, 45, 64
1, 376361, Note_off_c, 4, 57, 64
1, 376362, Note_off_c, 2, 72, 64
1, 376362, Note_off_c, 1, 78, 64
1, 376363, Note_on_c, 1, 84, 127
1, 376363, Note_on_c, 1, 81, 127
1, 376364, Note_on_c, 4, 54, 125
1, 376364, Note_on_c, 2, 75, 127
1, 376365, Note_on_c, 4, 42, 125
1, 376756, Note_off_c, 2, 75, 64
1, 376757, Note_off_c, 1, 81, 64
1, 376757, Note_off_c, 1, 84, 64
1, 376829, Note_off_c, 4, 54, 64
1, 376830, Note_off_c, 4, 42, 64
1, 376943, Note_on_c, 4, 55, 119
1, 377058, Note_off_c, 4, 55, 64
1, 377058, Note_on_c, 4, 58, 119
1, 377174, Note_off_c, 4, 58, 64
1, 377174, Note_on_c, 3, 62, 121
1, 377287, Note_off_c, 3, 62, 64
1, 377287, Note_on_c, 4, 54, 119
1, 377400, Note_off_c, 4, 54, 64
1, 377401, Note_on_c, 4, 57, 119
1, 377515, Note_off_c, 4, 57, 64
1, 377516, Note_on_c, 3, 60, 119
1, 377628, Note_off_c, 3, 60, 64
1, 377628, Note_on_c, 2, 74, 127
1, 377628, Note_on_c, 4, 55, 119
1, 377744, Note_off_c, 4, 55, 64
1, 377744, Note_on_c, 4, 58, 119
1, 377856, Note_off_c, 4, 58, 64
1, 377856, Note_on_c, 3, 62, 121
1, 377966, Note_off_c, 2, 74, 64
1, 377970, Note_off_c, 3, 62, 64
1, 377971, Note_on_c, 2, 74, 127
1, 377971, Note_on_c, 4, 54, 119
1, 378085, Note_off_c, 4, 54, 64
1, 378086, Note_on_c, 4, 57, 119
1, 378202, Note_off_c, 4, 57, 64
1, 378202, Note_on_c, 3, 60, 119
1, 378252, Note_off_c, 2, 74, 64
1, 378258, Note_on_c, 2, 74, 127
1, 378314, Note_off_c, 3, 60, 64
1, 378314, Note_on_c, 2, 75, 127
1, 378315, Note_on_c, 4, 55, 119
1, 378318, Note_off_c, 2, 74, 64
1, 378429, Note_off_c, 4, 55, 64
1, 378430, Note_on_c, 4, 58, 119
1, 378543, Note_off_c, 4, 58, 64
1, 378544, Note_off_c, 2, 75, 64
1, 378544, Note_on_c, 2, 74, 127
1, 378545, Note_on_c, 3, 62, 121
1, 378655, Note_off_c, 3, 62, 64
1, 378655, Note_on_c, 4, 54, 119
1, 378773, Note_off_c, 4, 54, 64
1, 378773, Note_on_c, 4, 57, 119
1, 378885, Note_off_c, 4, 57, 64
1, 378886, Note_off_c, 2, 74, 64
1, 378886, Note_on_c, 3, 60, 119
1, 378942, Note_on_c, 1, 86, 127
1, 378997, Note_off_c, 3, 60, 64
1, 378998, Note_on_c, 1, 87, 127
1, 378998, Note_on_c, 4, 55, 119
1, 379003, Note_off_c, 1, 86, 64
1, 379115, Note_off_c, 4, 55, 64
1, 379115, Note_on_c, 4, 58, 119
1, 379229, Note_off_c, 1, 87, 64
1, 379229, Note_off_c, 4, 58, 64
1, 379230, Note_on_c, 1, 86, 127
1, 379230, Note_on_c, 3, 62, 121
1, 379342, Note_off_c, 3, 62, 64
1, 379343, Note_on_c, 4, 55, 121
1, 379458, Note_off_c, 4, 55, 64
1, 379459, Note_on_c, 4, 59, 121
1, 379572, Note_off_c, 4, 59, 64
1, 379573, Note_off_c, 1, 86, 64
1, 379573, Note_on_c, 3, 62, 123
1, 379627, Note_on_c, 1, 79, 127
1, 379628, Note_on_c, 3, 67, 127
1, 379659, Note_off_c, 3, 62, 64
1, 379682, Note_on_c, 1, 80, 127
1, 379682, Note_on_c, 3, 68, 127
1, 379683, Note_on_c, 3, 65, 127
1, 379683, Note_on_c, 3, 62, 127
1, 379684, Note_on_c, 4, 59, 125
1, 379687, Note_off_c, 1, 79, 64
1, 379687, Note_off_c, 3, 67, 64
1, 380025, Note_off_c, 4, 59, 64
1, 380026, Note_off_c, 3, 68, 64
1, 380026, Note_off_c, 3, 62, 64
1, 380026, Note_off_c, 3, 65, 64
1, 380027, Note_off_c, 1, 80, 64
1, 380027, Note_on_c, 1, 79, 127
1, 380028, Note_on_c, 3, 67, 127
1, 380345, Note_on_c, 4, 48, 121
1, 380402, Note_on_c, 4, 51, 121
1, 380460, Note_off_c, 4, 48, 64
1, 380460, Note_on_c, 4, 55, 121
1, 380469, Note_off_c, 1, 79, 64
1, 380469, Note_off_c, 3, 67, 64
1, 380512, Note_off_c, 4, 51, 64
1, 380516, Note_on_c, 4, 51, 121
1, 380571, Note_off_c, 4, 55, 64
1, 380575, Note_on_c, 4, 55, 121
1, 380628, Note_off_c, 4, 51, 64
1, 380631, Note_on_c, 4, 51, 121
1, 380686, Note_off_c, 4, 55, 64
1, 380690, Note_on_c, 4, 48, 121
1, 380744, Note_off_c, 4, 51, 64
1, 380746, Note_on_c, 4, 51, 121
1, 380806, Note_off_c, 4, 48, 64
1, 380806, Note_on_c, 1, 67, 127
1, 380807, Note_on_c, 4, 55, 121
1, 380856, Note_off_c, 4, 51, 64
1, 380860, Note_on_c, 4, 51, 123
1, 380914, Note_off_c, 4, 55, 64
1, 380915, Note_off_c, 1, 67, 64
1, 380917, Note_on_c, 1, 67, 127
1, 380917, Note_on_c, 4, 55, 123
1, 380970, Note_off_c, 4, 51, 64
1, 380974, Note_on_c, 4, 51, 123
1, 381025, Note_off_c, 4, 55, 64
1, 381026, Note_off_c, 1, 67, 64
1, 381028, Note_on_c, 1, 67, 127
1, 381029, Note_on_c, 4, 48, 123
1, 381085, Note_off_c, 4, 51, 64
1, 381089, Note_on_c, 4, 50, 123
1, 381144, Note_off_c, 4, 48, 64
1, 381145, Note_on_c, 4, 53, 123
1, 381197, Note_off_c, 1, 67, 64
1, 381198, Note_off_c, 4, 50, 64
1, 381202, Note_on_c, 1, 68, 127
1, 381203, Note_on_c, 4, 50, 123
1, 381255, Note_off_c, 4, 53, 64
1, 381259, Note_on_c, 1, 67, 127
1, 381259, Note_on_c, 4, 53, 123
1, 381262, Note_off_c, 1, 68, 64
1, 381310, Note_off_c, 4, 50, 64
1, 381312, Note_on_c, 4, 50, 123
1, 381363, Note_off_c, 4, 53, 64
1, 381367, Note_off_c, 1, 67, 64
1, 381368, Note_on_c, 1, 77, 127
1, 381368, Note_on_c, 4, 48, 123
1, 381420, Note_off_c, 4, 50, 64
1, 381422, Note_on_c, 4, 50, 123
1, 381478, Note_off_c, 4, 48, 64
1, 381478, Note_on_c, 4, 53, 123
1, 381530, Note_off_c, 4, 50, 64
1, 381534, Note_on_c, 4, 50, 123
1, 381586, Note_off_c, 4, 53, 64
1, 381589, Note_off_c, 1, 77, 64
1, 381589, Note_on_c, 1, 71, 127
1, 381590, Note_on_c, 4, 53, 123
1, 381639, Note_off_c, 4, 50, 64
1, 381643, Note_on_c, 4, 50, 123
1, 381695, Note_off_c, 4, 53, 64
1, 381696, Note_off_c, 1, 71, 64
1, 381697, Note_on_c, 1, 74, 127
1, 381697, Note_on_c, 4, 48, 123
1, 381752, Note_off_c, 4, 50, 64
1, 381754, Note_on_c, 4, 51, 123
1, 381810, Note_off_c, 4, 48, 64
1, 381810, Note_on_c, 4, 55, 123
1, 381863, Note_off_c, 4, 51, 64
1, 381866, Note_on_c, 4, 51, 123
1, 381918, Note_off_c, 4, 55, 64
1, 381920, Note_off_c, 1, 74, 64
1, 381921, Note_on_c, 1, 72, 127
1, 381921, Note_on_c, 4, 55, 123
1, 381972, Note_off_c, 4, 51, 64
1, 381975, Note_on_c, 4, 51, 123
1, 382027, Note_off_c, 4, 55, 64
1, 382031, Note_on_c, 4, 48, 123
1, 382086, Note_off_c, 4, 51, 64
1, 382090, Note_on_c, 4, 51, 123
1, 382146, Note_off_c, 1, 72, 64
1, 382146, Note_off_c, 4, 48, 64
1, 382147, Note_on_c, 1, 79, 127
1, 382147, Note_on_c, 4, 55, 123
1, 382198, Note_off_c, 4, 51, 64
1, 382200, Note_on_c, 4, 51, 123
1, 382255, Note_off_c, 4, 55, 64
1, 382256, Note_off_c, 1, 79, 64
1, 382259, Note_on_c, 1, 79, 127
1, 382259, Note_on_c, 4, 55, 123
1, 382311, Note_off_c, 4, 51, 64
1, 382315, Note_on_c, 4, 51, 123
1, 382367, Note_off_c, 4, 55, 64
1, 382371, Note_off_c, 1, 79, 64
1, 382371, Note_on_c, 1, 78, 127
1, 382372, Note_on_c, 4, 48, 123
1, 382425, Note_off_c, 4, 51, 64
1, 382428, Note_on_c, 1, 79, 127
1, 382428, Note_on_c, 4, 50, 123
1, 382432, Note_off_c, 1, 78, 64
1, 382484, Note_off_c, 4, 48, 64
1, 382485, Note_on_c, 4, 53, 123
1, 382485, Note_on_c, 1, 80, 127
1, 382489, Note_off_c, 1, 79, 64
1, 382537, Note_off_c, 4, 50, 64
1, 382541, Note_on_c, 1, 79, 127
1, 382541, Note_on_c, 4, 50, 123
1, 382546, Note_off_c, 1, 80, 64
1, 382594, Note_off_c, 4, 53, 64
1, 382596, Note_on_c, 1, 77, 127
1, 382596, Note_on_c, 4, 53, 123
1, 382600, Note_off_c, 1, 79, 64
1, 382646, Note_off_c, 4, 50, 64
1, 382650, Note_on_c, 1, 75, 127
1, 382651, Note_on_c, 4, 50, 123
1, 382655, Note_off_c, 1, 77, 64
1, 382699, Note_off_c, 4, 53, 64
1, 382703, Note_on_c, 1, 74, 127
1, 382704, Note_on_c, 4, 48, 123
1, 382708, Note_off_c, 1, 75, 64
1, 382757, Note_off_c, 4, 50, 64
1, 382760, Note_on_c, 1, 72, 127
1, 382760, Note_on_c, 4, 50, 123
1, 382764, Note_off_c, 1, 74, 64
1, 382814, Note_off_c, 4, 48, 64
1, 382815, Note_on_c, 1, 71, 127
1, 382815, Note_on_c, 4, 53, 123
1, 382819, Note_off_c, 1, 72, 64
1, 382867, Note_off_c, 4, 50, 64
1, 382871, Note_on_c, 1, 74, 127
1, 382872, Note_on_c, 4, 50, 123
1, 382876, Note_off_c, 1, 71, 64
1, 382922, Note_off_c, 4, 53, 64
1, 382926, Note_on_c, 1, 77, 127
1, 382926, Note_on_c, 4, 53, 123
1, 382931, Note_off_c, 1, 74, 64
1, 382978, Note_off_c, 4, 50, 64
1, 382980, Note_on_c, 1, 71, 127
1, 382981, Note_on_c, 4, 50, 123
1, 382985, Note_off_c, 1, 77, 64
1, 383033, Note_off_c, 4, 53, 64
1, 383035, Note_on_c, 1, 74, 127
1, 383036, Note_on_c, 4, 48, 123
1, 383040, Note_off_c, 1, 71, 64
1, 383090, Note_off_c, 4, 50, 64
1, 383092, Note_on_c, 4, 51, 123
1, 383148, Note_off_c, 4, 48, 64
1, 383148, Note_on_c, 4, 55, 123
1, 383200, Note_off_c, 4, 51, 64
1, 383204, Note_on_c, 4, 51, 123
1, 383258, Note_off_c, 4, 55, 64
1, 383260, Note_off_c, 1, 74, 64
1, 383260, Note_on_c, 1, 72, 127
1, 383261, Note_on_c, 4, 55, 123
1, 383311, Note_off_c, 4, 51, 64
1, 383315, Note_on_c, 4, 51, 123
1, 383366, Note_off_c, 4, 55, 64
1, 383368, Note_on_c, 4, 46, 123
1, 383424, Note_off_c, 4, 51, 64
1, 383426, Note_on_c, 4, 52, 123
1, 383478, Note_off_c, 1, 72, 64
1, 383482, Note_off_c, 4, 46, 64
1, 383482, Note_on_c, 1, 72, 127
1, 383483, Note_on_c, 4, 55, 123
1, 383532, Note_off_c, 4, 52, 64
1, 383536, Note_on_c, 4, 52, 123
1, 383586, Note_off_c, 4, 55, 64
1, 383587, Note_off_c, 1, 72, 64
1, 383589, Note_on_c, 1, 72, 127
1, 383590, Note_on_c, 4, 55, 123
1, 383644, Note_off_c, 4, 52, 64
1, 383646, Note_on_c, 4, 52, 123
1, 383698, Note_off_c, 4, 55, 64
1, 383698, Note_off_c, 1, 72, 64
1, 383700, Note_on_c, 1, 72, 127
1, 383701, Note_on_c, 4, 45, 123
1, 383755, Note_off_c, 4, 52, 64
1, 383759, Note_on_c, 4, 48, 123
1, 383815, Note_off_c, 4, 45, 64
1, 383815, Note_on_c, 4, 53, 123
1, 383868, Note_off_c, 1, 72, 64
1, 383869, Note_off_c, 4, 48, 64
1, 383873, Note_on_c, 1, 74, 127
1, 383874, Note_on_c, 4, 48, 123
1, 383892, Note_on_c, 1, 72, 127
1, 383893, Note_off_c, 1, 74, 64
1, 383911, Note_on_c, 1, 71, 127
1, 383913, Note_off_c, 1, 72, 64
1, 383926, Note_off_c, 4, 53, 64
1, 383930, Note_on_c, 4, 53, 123
1, 383930, Note_on_c, 1, 72, 127
1, 383933, Note_off_c, 1, 71, 64
1, 383985, Note_off_c, 4, 48, 64
1, 383987, Note_on_c, 1, 74, 127
1, 383988, Note_on_c, 4, 48, 123
1, 383991, Note_off_c, 1, 72, 64
1, 384040, Note_off_c, 4, 53, 64
1, 384044, Note_on_c, 1, 75, 127
1, 384045, Note_on_c, 4, 44, 123
1, 384049, Note_off_c, 1, 74, 64
1, 384099, Note_off_c, 4, 48, 64
1, 384103, Note_on_c, 4, 48, 123
1, 384158, Note_off_c, 4, 44, 64
1, 384159, Note_on_c, 4, 51, 123
1, 384211, Note_off_c, 4, 48, 64
1, 384215, Note_on_c, 4, 48, 125
1, 384269, Note_off_c, 4, 51, 64
1, 384271, Note_off_c, 1, 75, 64
1, 384271, Note_on_c, 1, 66, 127
1, 384272, Note_on_c, 4, 51, 125
1, 384325, Note_off_c, 4, 48, 64
1, 384330, Note_on_c, 4, 48, 125
1, 384379, Note_off_c, 4, 51, 64
1, 384383, Note_off_c, 1, 66, 64
1, 384384, Note_on_c, 4, 47, 125
1, 384384, Note_on_c, 4, 43, 125
1, 384384, Note_on_c, 1, 67, 127
1, 384389, Note_off_c, 4, 48, 64
1, 384498, Note_on_c, 4, 53, 127
1, 384551, Note_off_c, 1, 67, 64
1, 384556, Note_on_c, 1, 67, 127
1, 384612, Note_on_c, 1, 66, 127
1, 384617, Note_off_c, 1, 67, 64
1, 384667, Note_on_c, 1, 67, 127
1, 384672, Note_off_c, 1, 66, 64
1, 384721, Note_on_c, 1, 68, 127
1, 384725, Note_off_c, 1, 67, 64
1, 384775, Note_on_c, 1, 69, 127
1, 384779, Note_off_c, 1, 68, 64
1, 384831, Note_on_c, 1, 70, 127
1, 384836, Note_off_c, 1, 69, 64
1, 384888, Note_on_c, 1, 71, 127
1, 384892, Note_off_c, 1, 70, 64
1, 384942, Note_on_c, 1, 72, 127
1, 384943, Note_on_c, 3, 60, 127
1, 384943, Note_on_c, 4, 56, 127
1, 384948, Note_off_c, 1, 71, 64
1, 384952, Note_off_c, 4, 53, 64
1, 384998, Note_on_c, 1, 66, 127
1, 385003, Note_off_c, 1, 72, 64
1, 385054, Note_off_c, 4, 56, 64
1, 385054, Note_off_c, 3, 60, 64
1, 385055, Note_on_c, 1, 67, 127
1, 385055, Note_on_c, 4, 59, 127
1, 385056, Note_on_c, 4, 55, 127
1, 385057, Note_off_c, 1, 66, 64
1, 385132, Note_off_c, 4, 43, 64
1, 385133, Note_off_c, 4, 47, 64
1, 385170, Note_on_c, 4, 43, 127
1, 385220, Note_off_c, 4, 59, 64
1, 385220, Note_off_c, 4, 55, 64
1, 385221, Note_off_c, 1, 67, 64
1, 385224, Note_on_c, 4, 55, 127
1, 385282, Note_on_c, 4, 54, 127
1, 385286, Note_off_c, 4, 55, 64
1, 385338, Note_on_c, 4, 55, 127
1, 385342, Note_off_c, 4, 54, 64
1, 385392, Note_on_c, 4, 56, 127
1, 385395, Note_off_c, 4, 55, 64
1, 385447, Note_on_c, 4, 57, 127
1, 385451, Note_off_c, 4, 56, 64
1, 385503, Note_on_c, 4, 58, 127
1, 385507, Note_off_c, 4, 57, 64
1, 385559, Note_on_c, 4, 59, 127
1, 385562, Note_off_c, 4, 58, 64
1, 385614, Note_on_c, 3, 60, 127
1, 385615, Note_on_c, 4, 48, 127
1, 385615, Note_on_c, 4, 44, 127
1, 385619, Note_off_c, 4, 59, 64
1, 385625, Note_off_c, 4, 43, 64
1, 385673, Note_on_c, 4, 54, 127
1, 385679, Note_off_c, 3, 60, 64
1, 385730, Note_off_c, 4, 44, 64
1, 385731, Note_off_c, 4, 48, 64
1, 385731, Note_on_c, 4, 55, 127
1, 385732, Note_on_c, 4, 47, 127
1, 385732, Note_on_c, 4, 43, 127
1, 385734, Note_off_c, 4, 54, 64
1, 385838, Note_on_c, 4, 31, 127
1, 385894, Note_on_c, 1, 78, 123
1, 385951, Note_on_c, 1, 79, 125
1, 385955, Note_off_c, 1, 78, 64
1, 386007, Note_on_c, 1, 78, 123
1, 386013, Note_off_c, 1, 79, 64
1, 386063, Note_on_c, 1, 79, 125
1, 386066, Note_off_c, 1, 78, 64
1, 386172, Note_off_c, 4, 55, 64
1, 386176, Note_on_c, 4, 55, 127
1, 386232, Note_on_c, 2, 66, 127
1, 386265, Note_off_c, 4, 55, 64
1, 386288, Note_off_c, 1, 79, 64
1, 386289, Note_on_c, 2, 67, 127
1, 386293, Note_off_c, 2, 66, 64
1, 386342, Note_on_c, 2, 66, 127
1, 386348, Note_off_c, 2, 67, 64
1, 386398, Note_on_c, 2, 67, 127
1, 386403, Note_off_c, 2, 66, 64
1, 386425, Note_off_c, 4, 43, 64
1, 386452, Note_off_c, 4, 47, 64
1, 386513, Note_on_c, 4, 43, 127
1, 386568, Note_on_c, 4, 54, 127
1, 386626, Note_off_c, 2, 67, 64
1, 386627, Note_on_c, 4, 55, 127
1, 386631, Note_off_c, 4, 54, 64
1, 386678, Note_on_c, 4, 54, 127
1, 386682, Note_off_c, 4, 55, 64
1, 386732, Note_on_c, 4, 55, 127
1, 386737, Note_off_c, 4, 54, 64
1, 386838, Note_off_c, 4, 31, 64
1, 386843, Note_on_c, 4, 31, 127
1, 386897, Note_on_c, 4, 42, 127
1, 386901, Note_off_c, 4, 43, 64
1, 386901, Note_off_c, 4, 31, 64
1, 386954, Note_off_c, 4, 55, 64
1, 386954, Note_on_c, 4, 43, 127
1, 386958, Note_off_c, 4, 42, 64
1, 387006, Note_on_c, 4, 42, 127
1, 387010, Note_off_c, 4, 43, 64
1, 387060, Note_on_c, 4, 43, 127
1, 387066, Note_off_c, 4, 42, 64
1, 387120, Note_on_c, 4, 38, 127
1, 387124, Note_off_c, 4, 43, 64
1, 387175, Note_on_c, 4, 39, 127
1, 387180, Note_off_c, 4, 38, 64
1, 387231, Note_on_c, 4, 35, 127
1, 387235, Note_off_c, 4, 39, 64
1, 387287, Note_on_c, 4, 36, 127
1, 387293, Note_off_c, 4, 35, 64
1, 387341, Note_on_c, 4, 30, 127
1, 387345, Note_off_c, 4, 36, 64
1, 387395, Note_on_c, 4, 31, 127
1, 387400, Note_off_c, 4, 30, 64
1, 387454, Note_on_c, 4, 30, 127
1, 387460, Note_off_c, 4, 31, 64
1, 387512, Note_on_c, 4, 31, 127
1, 387517, Note_off_c, 4, 30, 64
1, 387566, Note_on_c, 4, 30, 127
1, 387571, Note_off_c, 4, 31, 64
1, 387624, Note_on_c, 4, 31, 127
1, 387628, Note_off_c, 4, 30, 64
1, 387680, Note_on_c, 4, 30, 127
1, 387684, Note_off_c, 4, 31, 64
1, 387733, Note_on_c, 4, 31, 127
1, 387739, Note_off_c, 4, 30, 64
1, 387792, Note_on_c, 4, 35, 127
1, 387798, Note_off_c, 4, 31, 64
1, 387850, Note_on_c, 4, 38, 127
1, 387855, Note_off_c, 4, 35, 64
1, 387905, Note_on_c, 4, 43, 127
1, 387909, Note_off_c, 4, 38, 64
1, 387963, Note_on_c, 4, 47, 127
1, 387967, Note_off_c, 4, 43, 64
1, 388019, Note_on_c, 4, 50, 127
1, 388023, Note_off_c, 4, 47, 64
1, 388073, Note_on_c, 4, 55, 127
1, 388077, Note_off_c, 4, 50, 64
1, 388133, Note_on_c, 4, 59, 127
1, 388137, Note_off_c, 4, 55, 64
1, 388188, Note_on_c, 3, 62, 127
1, 388192, Note_off_c, 4, 59, 64
1, 388245, Note_on_c, 3, 67, 127
1, 388249, Note_off_c, 3, 62, 64
1, 388299, Note_on_c, 3, 71, 127
1, 388303, Note_off_c, 3, 67, 64
1, 388351, Note_on_c, 3, 74, 127
1, 388356, Note_off_c, 3, 71, 64
1, 388406, Note_on_c, 1, 89, 125
1, 388407, Note_on_c, 2, 77, 127
1, 388411, Note_off_c, 3, 74, 64
1, 388517, Note_on_c, 4, 32, 127
1, 388517, Note_on_c, 4, 44, 127
1, 388621, Note_off_c, 4, 44, 64
1, 388626, Note_on_c, 4, 56, 127
1, 388626, Note_on_c, 4, 44, 127
1, 388668, Note_off_c, 1, 89, 64
1, 388732, Note_off_c, 4, 44, 64
1, 388734, Note_off_c, 4, 56, 64
1, 388738, Note_off_c, 2, 77, 64
1, 388738, Note_on_c, 1, 83, 125
1, 388739, Note_on_c, 2, 71, 127
1, 388739, Note_on_c, 4, 56, 127
1, 388740, Note_on_c, 4, 44, 127
1, 388853, Note_off_c, 4, 56, 64
1, 388853, Note_off_c, 4, 44, 64
1, 388854, Note_on_c, 4, 55, 127
1, 388854, Note_on_c, 4, 43, 127
1, 388964, Note_off_c, 4, 43, 64
1, 388965, Note_off_c, 4, 55, 64
1, 388965, Note_on_c, 4, 53, 127
1, 388966, Note_on_c, 4, 41, 127
1, 389081, Note_off_c, 4, 41, 64
1, 389082, Note_off_c, 4, 53, 64
1, 389082, Note_off_c, 4, 32, 64
1, 389083, Note_on_c, 4, 52, 127
1, 389083, Note_on_c, 4, 40, 127
1, 389195, Note_on_c, 1, 84, 125
1, 389195, Note_on_c, 2, 72, 127
1, 389203, Note_off_c, 2, 71, 64
1, 389204, Note_off_c, 1, 83, 64
1, 389303, Note_off_c, 2, 72, 64
1, 389304, Note_off_c, 4, 40, 64
1, 389304, Note_off_c, 4, 52, 64
1, 389304, Note_off_c, 1, 84, 64
1, 389305, Note_on_c, 2, 76, 127
1, 389305, Note_on_c, 3, 64, 127
1, 389306, Note_on_c, 4, 58, 127
1, 389306, Note_on_c, 4, 46, 127
1, 389409, Note_off_c, 4, 46, 64
1, 389410, Note_off_c, 4, 58, 64
1, 389410, Note_on_c, 4, 45, 127
1, 389410, Note_on_c, 4, 57, 127
1, 389522, Note_off_c, 3, 64, 64
1, 389523, Note_off_c, 2, 76, 64
1, 389523, Note_on_c, 2, 77, 127
1, 389524, Note_on_c, 3, 65, 127
1, 389636, Note_off_c, 2, 77, 64
1, 389636, Note_off_c, 4, 57, 64
1, 389636, Note_on_c, 1, 78, 123
1, 389637, Note_on_c, 4, 56, 127
1, 389743, Note_off_c, 4, 56, 64
1, 389744, Note_off_c, 3, 65, 64
1, 389744, Note_on_c, 4, 55, 127
1, 389856, Note_off_c, 1, 78, 64
1, 389856, Note_on_c, 1, 79, 125
1, 389947, Note_off_c, 4, 55, 64
1, 389970, Note_off_c, 1, 79, 64
1, 389970, Note_on_c, 1, 81, 123
1, 389971, Note_on_c, 2, 72, 127
1, 389971, Note_on_c, 3, 63, 127
1, 389972, Note_on_c, 4, 54, 127
1, 390082, Note_off_c, 3, 63, 64
1, 390082, Note_off_c, 4, 54, 64
1, 390083, Note_off_c, 1, 81, 64
1, 390083, Note_off_c, 2, 72, 64
1, 390086, Note_on_c, 2, 72, 127
1, 390086, Note_on_c, 3, 67, 127
1, 390087, Note_on_c, 3, 63, 127
1, 390087, Note_on_c, 4, 55, 127
1, 390304, Note_off_c, 4, 55, 64
1, 390304, Note_off_c, 3, 63, 64
1, 390305, Note_off_c, 3, 67, 64
1, 390305, Note_off_c, 2, 72, 64
1, 390306, Note_on_c, 2, 75, 127
1, 390306, Note_on_c, 2, 71, 127
1, 390307, Note_on_c, 3, 65, 127
1, 390362, Note_on_c, 2, 74, 127
1, 390366, Note_off_c, 2, 75, 64
1, 390419, Note_off_c, 3, 65, 64
1, 390420, Note_off_c, 2, 71, 64
1, 390420, Note_on_c, 2, 72, 127
1, 390420, Note_on_c, 4, 48, 125
1, 390423, Note_off_c, 2, 74, 64
1, 390438, Note_off_c, 4, 45, 64
1, 390477, Note_on_c, 4, 55, 125
1, 390530, Note_off_c, 4, 48, 64
1, 390532, Note_on_c, 4, 51, 125
1, 390582, Note_off_c, 2, 72, 64
1, 390586, Note_off_c, 4, 55, 64
1, 390588, Note_on_c, 2, 72, 127
1, 390588, Note_on_c, 4, 55, 125
1, 390643, Note_off_c, 4, 51, 64
1, 390645, Note_on_c, 4, 48, 125
1, 390645, Note_on_c, 2, 71, 127
1, 390649, Note_off_c, 2, 72, 64
1, 390697, Note_off_c, 4, 55, 64
1, 390698, Note_on_c, 2, 72, 127
1, 390698, Note_on_c, 4, 55, 125
1, 390702, Note_off_c, 2, 71, 64
1, 390748, Note_off_c, 4, 48, 64
1, 390749, Note_on_c, 2, 73, 127
1, 390749, Note_on_c, 4, 47, 125
1, 390754, Note_off_c, 2, 72, 64
1, 390806, Note_off_c, 4, 55, 64
1, 390808, Note_on_c, 2, 74, 127
1, 390808, Note_on_c, 4, 55, 125
1, 390813, Note_off_c, 2, 73, 64
1, 390861, Note_off_c, 4, 47, 64
1, 390863, Note_on_c, 4, 53, 125
1, 390916, Note_off_c, 2, 74, 64
1, 390918, Note_off_c, 4, 55, 64
1, 390921, Note_on_c, 2, 74, 127
1, 390921, Note_on_c, 4, 55, 125
1, 390975, Note_off_c, 4, 53, 64
1, 390977, Note_on_c, 2, 73, 127
1, 390977, Note_on_c, 4, 47, 125
1, 390982, Note_off_c, 2, 74, 64
1, 391030, Note_off_c, 4, 55, 64
1, 391032, Note_on_c, 2, 74, 127
1, 391032, Note_on_c, 4, 55, 125
1, 391036, Note_off_c, 2, 73, 64
1, 391082, Note_off_c, 4, 47, 64
1, 391083, Note_on_c, 2, 75, 127
1, 391083, Note_on_c, 4, 46, 125
1, 391089, Note_off_c, 2, 74, 64
1, 391139, Note_off_c, 4, 55, 64
1, 391141, Note_on_c, 2, 76, 127
1, 391141, Note_on_c, 4, 55, 125
1, 391146, Note_off_c, 2, 75, 64
1, 391192, Note_off_c, 4, 46, 64
1, 391194, Note_on_c, 4, 48, 125
1, 391246, Note_off_c, 2, 76, 64
1, 391248, Note_off_c, 4, 55, 64
1, 391249, Note_on_c, 2, 76, 127
1, 391250, Note_on_c, 4, 55, 125
1, 391302, Note_off_c, 4, 48, 64
1, 391303, Note_on_c, 2, 75, 127
1, 391303, Note_on_c, 4, 46, 125
1, 391308, Note_off_c, 2, 76, 64
1, 391358, Note_off_c, 4, 55, 64
1, 391360, Note_on_c, 4, 55, 125
1, 391360, Note_on_c, 2, 76, 127
1, 391365, Note_off_c, 2, 75, 64
1, 391413, Note_off_c, 2, 76, 64
1, 391415, Note_off_c, 4, 46, 64
1, 391416, Note_on_c, 2, 76, 127
1, 391417, Note_on_c, 4, 44, 125
1, 391474, Note_off_c, 4, 55, 64
1, 391475, Note_on_c, 2, 77, 127
1, 391476, Note_on_c, 4, 53, 125
1, 391480, Note_off_c, 2, 76, 64
1, 391528, Note_off_c, 4, 44, 64
1, 391530, Note_on_c, 4, 48, 125
1, 391582, Note_off_c, 2, 77, 64
1, 391584, Note_off_c, 4, 53, 64
1, 391585, Note_on_c, 2, 77, 127
1, 391586, Note_on_c, 4, 53, 125
1, 391639, Note_off_c, 4, 48, 64
1, 391640, Note_on_c, 2, 76, 127
1, 391641, Note_on_c, 4, 44, 125
1, 391645, Note_off_c, 2, 77, 64
1, 391693, Note_off_c, 4, 53, 64
1, 391693, Note_on_c, 2, 77, 127
1, 391694, Note_on_c, 4, 53, 125
1, 391698, Note_off_c, 2, 76, 64
1, 391746, Note_off_c, 4, 44, 64
1, 391746, Note_on_c, 1, 79, 125
1, 391747, Note_on_c, 4, 39, 125
1, 391752, Note_off_c, 2, 77, 64
1, 391804, Note_off_c, 4, 53, 64
1, 391805, Note_on_c, 2, 72, 127
1, 391860, Note_off_c, 1, 79, 64
1, 391860, Note_on_c, 1, 84, 125
1, 391909, Note_off_c, 1, 84, 64
1, 391913, Note_off_c, 2, 72, 64
1, 391914, Note_on_c, 1, 84, 125
1, 391966, Note_off_c, 1, 84, 64
1, 391970, Note_on_c, 1, 84, 125
1, 392020, Note_off_c, 1, 84, 64
1, 392024, Note_on_c, 1, 84, 125
1, 392077, Note_off_c, 4, 39, 64
1, 392078, Note_on_c, 3, 62, 127
1, 392078, Note_on_c, 4, 53, 125
1, 392138, Note_off_c, 1, 84, 64
1, 392138, Note_on_c, 2, 74, 127
1, 392193, Note_on_c, 1, 80, 125
1, 392243, Note_off_c, 1, 80, 64
1, 392246, Note_off_c, 2, 74, 64
1, 392247, Note_on_c, 1, 80, 125
1, 392299, Note_off_c, 1, 80, 64
1, 392305, Note_on_c, 1, 80, 125
1, 392357, Note_off_c, 1, 80, 64
1, 392361, Note_on_c, 1, 80, 125
1, 392414, Note_off_c, 4, 53, 64
1, 392415, Note_off_c, 3, 62, 64
1, 392415, Note_on_c, 3, 63, 127
1, 392416, Note_on_c, 4, 55, 125
1, 392474, Note_off_c, 1, 80, 64
1, 392474, Note_on_c, 2, 72, 127
1, 392531, Note_on_c, 1, 79, 125
1, 392580, Note_off_c, 1, 79, 64
1, 392586, Note_off_c, 2, 72, 64
1, 392587, Note_on_c, 1, 79, 125
1, 392639, Note_off_c, 1, 79, 64
1, 392643, Note_on_c, 1, 79, 125
1, 392693, Note_off_c, 1, 79, 64
1, 392699, Note_on_c, 1, 79, 125
1, 392750, Note_off_c, 4, 55, 64
1, 392754, Note_off_c, 3, 63, 64
1, 392755, Note_on_c, 3, 62, 127
1, 392755, Note_on_c, 4, 55, 125
1, 392815, Note_off_c, 1, 79, 64
1, 392815, Note_on_c, 3, 65, 127
1, 392869, Note_on_c, 2, 71, 127
1, 392921, Note_off_c, 2, 71, 64
1, 392925, Note_off_c, 3, 65, 64
1, 392926, Note_on_c, 2, 71, 127
1, 392978, Note_off_c, 2, 71, 64
1, 392982, Note_on_c, 2, 71, 127
1, 393034, Note_off_c, 2, 71, 64
1, 393037, Note_on_c, 2, 71, 127
1, 393082, Note_off_c, 2, 71, 64
1, 393093, Note_off_c, 4, 55, 64
1, 393094, Note_off_c, 3, 62, 64
1, 393094, Note_on_c, 2, 72, 127
1, 393095, Note_on_c, 3, 67, 127
1, 393095, Note_on_c, 3, 63, 127
1, 393096, Note_on_c, 4, 48, 123
1, 393152, Note_on_c, 4, 55, 123
1, 393205, Note_off_c, 4, 48, 64
1, 393207, Note_on_c, 4, 51, 123
1, 393259, Note_off_c, 3, 63, 64
1, 393260, Note_off_c, 2, 72, 64
1, 393260, Note_off_c, 3, 67, 64
1, 393261, Note_off_c, 4, 55, 64
1, 393265, Note_on_c, 4, 55, 123
1, 393265, Note_on_c, 3, 60, 127
1, 393318, Note_off_c, 4, 51, 64
1, 393322, Note_on_c, 3, 59, 127
1, 393322, Note_on_c, 4, 48, 123
1, 393326, Note_off_c, 3, 60, 64
1, 393372, Note_off_c, 4, 55, 64
1, 393376, Note_on_c, 3, 60, 127
1, 393377, Note_on_c, 4, 55, 123
1, 393381, Note_off_c, 3, 59, 64
1, 393427, Note_off_c, 4, 48, 64
1, 393431, Note_on_c, 3, 61, 127
1, 393432, Note_on_c, 4, 47, 123
1, 393436, Note_off_c, 3, 60, 64
1, 393482, Note_off_c, 4, 55, 64
1, 393486, Note_on_c, 3, 62, 127
1, 393486, Note_on_c, 4, 55, 123
1, 393491, Note_off_c, 3, 61, 64
1, 393537, Note_off_c, 4, 47, 64
1, 393540, Note_on_c, 4, 53, 123
1, 393592, Note_off_c, 4, 55, 64
1, 393593, Note_off_c, 3, 62, 64
1, 393595, Note_on_c, 3, 62, 127
1, 393596, Note_on_c, 4, 55, 123
1, 393646, Note_off_c, 4, 53, 64
1, 393650, Note_on_c, 3, 61, 127
1, 393650, Note_on_c, 4, 47, 123
1, 393653, Note_off_c, 3, 62, 64
1, 393701, Note_off_c, 4, 55, 64
1, 393705, Note_on_c, 3, 62, 127
1, 393705, Note_on_c, 4, 55, 123
1, 393709, Note_off_c, 3, 61, 64
1, 393756, Note_off_c, 4, 47, 64
1, 393759, Note_on_c, 3, 63, 127
1, 393760, Note_on_c, 4, 46, 123
1, 393764, Note_off_c, 3, 62, 64
1, 393812, Note_off_c, 4, 55, 64
1, 393816, Note_on_c, 2, 64, 127
1, 393816, Note_on_c, 4, 55, 123
1, 393819, Note_off_c, 3, 63, 64
1, 393867, Note_off_c, 4, 46, 64
1, 393871, Note_on_c, 4, 48, 123
1, 393923, Note_off_c, 4, 55, 64
1, 393923, Note_off_c, 2, 64, 64
1, 393925, Note_on_c, 2, 64, 127
1, 393926, Note_on_c, 4, 55, 123
1, 393978, Note_off_c, 4, 48, 64
1, 393981, Note_on_c, 4, 46, 123
1, 393981, Note_on_c, 3, 63, 127
1, 393985, Note_off_c, 2, 64, 64
1, 394034, Note_off_c, 4, 55, 64
1, 394038, Note_on_c, 2, 64, 127
1, 394038, Note_on_c, 4, 55, 123
1, 394043, Note_off_c, 3, 63, 64
1, 394089, Note_off_c, 2, 64, 64
1, 394091, Note_off_c, 4, 46, 64
1, 394093, Note_on_c, 2, 64, 127
1, 394093, Note_on_c, 4, 45, 123
1, 394149, Note_off_c, 4, 55, 64
1, 394153, Note_on_c, 2, 65, 127
1, 394153, Note_on_c, 4, 53, 123
1, 394156, Note_off_c, 2, 64, 64
1, 394204, Note_off_c, 4, 45, 64
1, 394206, Note_on_c, 4, 48, 123
1, 394258, Note_off_c, 4, 53, 64
1, 394258, Note_off_c, 2, 65, 64
1, 394261, Note_on_c, 2, 65, 127
1, 394261, Note_on_c, 4, 53, 123
1, 394315, Note_off_c, 4, 48, 64
1, 394318, Note_on_c, 2, 64, 127
1, 394318, Note_on_c, 4, 45, 123
1, 394322, Note_off_c, 2, 65, 64
1, 394368, Note_off_c, 4, 53, 64
1, 394371, Note_on_c, 2, 65, 127
1, 394372, Note_on_c, 4, 53, 123
1, 394376, Note_off_c, 2, 64, 64
1, 394422, Note_off_c, 2, 65, 64
1, 394423, Note_off_c, 4, 45, 64
1, 394425, Note_on_c, 2, 65, 127
1, 394426, Note_on_c, 4, 44, 123
1, 394481, Note_off_c, 4, 53, 64
1, 394486, Note_on_c, 2, 66, 127
1, 394486, Note_on_c, 4, 51, 123
1, 394490, Note_off_c, 2, 65, 64
1, 394536, Note_off_c, 4, 44, 64
1, 394540, Note_on_c, 4, 48, 123
1, 394594, Note_off_c, 4, 51, 64
1, 394594, Note_off_c, 2, 66, 64
1, 394597, Note_on_c, 2, 66, 127
1, 394597, Note_on_c, 4, 51, 123
1, 394650, Note_off_c, 4, 48, 64
1, 394654, Note_on_c, 2, 65, 127
1, 394654, Note_on_c, 4, 44, 123
1, 394658, Note_off_c, 2, 66, 64
1, 394706, Note_off_c, 4, 51, 64
1, 394710, Note_on_c, 2, 66, 127
1, 394711, Note_on_c, 4, 51, 123
1, 394715, Note_off_c, 2, 65, 64
1, 394759, Note_off_c, 2, 66, 64
1, 394761, Note_off_c, 4, 44, 64
1, 394765, Note_on_c, 2, 66, 127
1, 394765, Note_on_c, 4, 43, 123
1, 394818, Note_off_c, 4, 51, 64
1, 394822, Note_on_c, 2, 67, 127
1, 394822, Note_on_c, 4, 51, 123
1, 394826, Note_off_c, 2, 66, 64
1, 394872, Note_off_c, 4, 43, 64
1, 394876, Note_on_c, 4, 48, 123
1, 394929, Note_off_c, 4, 51, 64
1, 394930, Note_off_c, 2, 67, 64
1, 394932, Note_on_c, 4, 51, 123
1, 394932, Note_on_c, 2, 67, 127
1, 394987, Note_off_c, 4, 48, 64
1, 394991, Note_on_c, 2, 66, 127
1, 394991, Note_on_c, 4, 43, 123
1, 394995, Note_off_c, 2, 67, 64
1, 395041, Note_off_c, 4, 51, 64
1, 395045, Note_on_c, 2, 67, 127
1, 395046, Note_on_c, 4, 51, 123
1, 395050, Note_off_c, 2, 66, 64
1, 395096, Note_off_c, 4, 43, 64
1, 395100, Note_on_c, 4, 42, 123
1, 395100, Note_on_c, 2, 69, 127
1, 395105, Note_off_c, 2, 67, 64
1, 395155, Note_off_c, 4, 51, 64
1, 395208, Note_off_c, 2, 69, 64
1, 395209, Note_on_c, 1, 72, 127
1, 395321, Note_off_c, 1, 72, 64
1, 395321, Note_on_c, 1, 75, 127
1, 395433, Note_off_c, 4, 42, 64
1, 395434, Note_on_c, 4, 54, 127
1, 395544, Note_off_c, 1, 75, 64
1, 395544, Note_on_c, 1, 74, 127
1, 395654, Note_off_c, 1, 74, 64
1, 395654, Note_on_c, 1, 72, 127
1, 395766, Note_off_c, 4, 54, 64
1, 395767, Note_on_c, 3, 65, 127
1, 395767, Note_on_c, 3, 62, 127
1, 395768, Note_on_c, 4, 55, 127
1, 395878, Note_off_c, 1, 72, 64
1, 395879, Note_on_c, 1, 71, 127
1, 395988, Note_off_c, 1, 71, 64
1, 395988, Note_on_c, 1, 77, 127
1, 396093, Note_off_c, 3, 62, 64
1, 396093, Note_off_c, 4, 55, 64
1, 396094, Note_off_c, 3, 65, 64
1, 396097, Note_on_c, 3, 65, 127
1, 396098, Note_on_c, 3, 62, 127
1, 396098, Note_on_c, 4, 56, 127
1, 396209, Note_off_c, 1, 77, 64
1, 396209, Note_on_c, 1, 74, 127
1, 396323, Note_off_c, 1, 74, 64
1, 396324, Note_on_c, 1, 83, 126
1, 396432, Note_off_c, 4, 56, 64
1, 396432, Note_off_c, 3, 62, 64
1, 396433, Note_off_c, 3, 65, 64
1, 396437, Note_on_c, 3, 65, 127
1, 396438, Note_on_c, 3, 62, 127
1, 396438, Note_on_c, 4, 55, 127
1, 396552, Note_off_c, 1, 83, 64
1, 396552, Note_on_c, 1, 77, 127
1, 396662, Note_off_c, 1, 77, 64
1, 396663, Note_on_c, 1, 86, 126
1, 396771, Note_off_c, 4, 55, 64
1, 396771, Note_off_c, 3, 62, 64
1, 396772, Note_off_c, 3, 65, 64
1, 396774, Note_on_c, 3, 65, 127
1, 396774, Note_on_c, 3, 62, 127
1, 396775, Note_on_c, 4, 56, 127
1, 396885, Note_off_c, 1, 86, 64
1, 396886, Note_on_c, 1, 83, 126
1, 396996, Note_off_c, 1, 83, 64
1, 396996, Note_on_c, 1, 89, 126
1, 397098, Note_off_c, 4, 56, 64
1, 397099, Note_off_c, 3, 62, 64
1, 397099, Note_off_c, 3, 65, 64
1, 397100, Note_off_c, 1, 89, 64
1, 397104, Note_on_c, 3, 65, 127
1, 397104, Note_on_c, 1, 89, 126
1, 397105, Note_on_c, 3, 62, 127
1, 397105, Note_on_c, 4, 55, 127
1, 397160, Note_on_c, 1, 86, 126
1, 397164, Note_off_c, 1, 89, 64
1, 397213, Note_on_c, 1, 83, 126
1, 397219, Note_off_c, 1, 86, 64
1, 397267, Note_on_c, 1, 80, 126
1, 397273, Note_off_c, 1, 83, 64
1, 397321, Note_on_c, 2, 77, 127
1, 397325, Note_off_c, 1, 80, 64
1, 397375, Note_on_c, 2, 74, 127
1, 397379, Note_off_c, 2, 77, 64
1, 397425, Note_off_c, 4, 55, 64
1, 397425, Note_off_c, 3, 62, 64
1, 397426, Note_off_c, 3, 65, 64
1, 397429, Note_on_c, 2, 71, 127
1, 397433, Note_off_c, 2, 74, 64
1, 397483, Note_on_c, 3, 68, 127
1, 397487, Note_off_c, 2, 71, 64
1, 397538, Note_on_c, 3, 65, 127
1, 397542, Note_off_c, 3, 68, 64
1, 397592, Note_on_c, 3, 62, 127
1, 397596, Note_off_c, 3, 65, 64
1, 397647, Note_on_c, 4, 59, 127
1, 397653, Note_off_c, 3, 62, 64
1, 397705, Note_on_c, 4, 56, 127
1, 397709, Note_off_c, 4, 59, 64
1, 397764, Note_on_c, 4, 55, 127
1, 397770, Note_off_c, 4, 56, 64
1, 397820, Note_on_c, 3, 67, 127
1, 397874, Note_off_c, 4, 55, 64
1, 397874, Note_on_c, 3, 68, 127
1, 397879, Note_off_c, 3, 67, 64
1, 397929, Note_on_c, 3, 69, 127
1, 397932, Note_off_c, 3, 68, 64
1, 397982, Note_on_c, 3, 70, 127
1, 397986, Note_off_c, 3, 69, 64
1, 398036, Note_on_c, 3, 71, 127
1, 398042, Note_off_c, 3, 70, 64
1, 398092, Note_on_c, 3, 72, 127
1, 398094, Note_off_c, 3, 71, 64
1, 398145, Note_on_c, 3, 74, 127
1, 398149, Note_off_c, 3, 72, 64
1, 398198, Note_on_c, 1, 75, 127
1, 398204, Note_off_c, 3, 74, 64
1, 398252, Note_on_c, 1, 76, 127
1, 398256, Note_off_c, 1, 75, 64
1, 398306, Note_on_c, 1, 77, 127
1, 398311, Note_off_c, 1, 76, 64
1, 398359, Note_on_c, 1, 78, 124
1, 398364, Note_off_c, 1, 77, 64
1, 398410, Note_on_c, 3, 63, 127
1, 398411, Note_on_c, 3, 60, 127
1, 398522, Note_off_c, 1, 78, 64
1, 398524, Note_on_c, 1, 75, 127
1, 398633, Note_off_c, 1, 75, 64
1, 398634, Note_on_c, 2, 72, 127
1, 398738, Note_off_c, 3, 63, 64
1, 398738, Note_off_c, 3, 60, 64
1, 398741, Note_on_c, 3, 65, 127
1, 398741, Note_on_c, 3, 62, 127
1, 398857, Note_off_c, 2, 72, 64
1, 398857, Note_on_c, 2, 71, 127
1, 398972, Note_off_c, 2, 71, 64
1, 398972, Note_on_c, 1, 80, 126
1, 399074, Note_off_c, 3, 62, 64
1, 399075, Note_off_c, 3, 65, 64
1, 399079, Note_on_c, 3, 62, 127
1, 399080, Note_on_c, 4, 59, 127
1, 399195, Note_off_c, 1, 80, 64
1, 399196, Note_on_c, 1, 79, 126
1, 399310, Note_off_c, 1, 79, 64
1, 399310, Note_on_c, 1, 77, 127
1, 399416, Note_off_c, 4, 59, 64
1, 399417, Note_off_c, 3, 62, 64
1, 399421, Note_on_c, 3, 67, 127
1, 399421, Note_on_c, 3, 60, 127
1, 399533, Note_off_c, 1, 77, 64
1, 399534, Note_on_c, 1, 75, 127
1, 399648, Note_off_c, 1, 75, 64
1, 399648, Note_on_c, 1, 79, 126
1, 399754, Note_off_c, 3, 60, 64
1, 399755, Note_off_c, 3, 67, 64
1, 399759, Note_on_c, 3, 67, 127
1, 399759, Note_on_c, 3, 63, 127
1, 399873, Note_off_c, 1, 79, 64
1, 399874, Note_on_c, 1, 84, 126
1, 399985, Note_off_c, 1, 84, 64
1, 399986, Note_off_c, 3, 63, 64
1, 399986, Note_off_c, 3, 67, 64
1, 399987, Note_on_c, 1, 82, 126
1, 399987, Note_on_c, 3, 64, 127
1, 400099, Note_off_c, 3, 64, 64
1, 400099, Note_on_c, 3, 68, 127
1, 400100, Note_on_c, 3, 65, 127
1, 400211, Note_off_c, 1, 82, 64
1, 400212, Note_on_c, 1, 80, 126
1, 400325, Note_off_c, 1, 80, 64
1, 400326, Note_off_c, 3, 68, 64
1, 400326, Note_off_c, 3, 65, 64
1, 400327, Note_on_c, 1, 79, 126
1, 400327, Note_on_c, 2, 70, 127
1, 400328, Note_on_c, 3, 67, 127
1, 400434, Note_off_c, 3, 67, 64
1, 400434, Note_off_c, 2, 70, 64
1, 400435, Note_on_c, 2, 72, 127
1, 400435, Note_on_c, 3, 68, 127
1, 400651, Note_off_c, 3, 68, 64
1, 400651, Note_off_c, 2, 72, 64
1, 400652, Note_off_c, 1, 79, 64
1, 400652, Note_on_c, 1, 78, 124
1, 400653, Note_on_c, 2, 69, 127
1, 400769, Note_off_c, 2, 69, 64
1, 400769, Note_off_c, 1, 78, 64
1, 400770, Note_on_c, 2, 72, 127
1, 400770, Note_on_c, 3, 67, 127
1, 400886, Note_off_c, 2, 72, 64
1, 400886, Note_on_c, 1, 79, 126
1, 400887, Note_on_c, 2, 71, 127
1, 400998, Note_off_c, 3, 67, 64
1, 401002, Note_off_c, 2, 71, 64
1, 401003, Note_off_c, 1, 79, 64
1, 401003, Note_on_c, 3, 67, 127
1, 401114, Note_on_c, 4, 51, 127
1, 401115, Note_on_c, 4, 48, 127
1, 401227, Note_off_c, 3, 67, 64
1, 401227, Note_on_c, 3, 63, 127
1, 401336, Note_off_c, 3, 63, 64
1, 401336, Note_on_c, 3, 60, 127
1, 401444, Note_off_c, 4, 48, 64
1, 401445, Note_off_c, 3, 60, 64
1, 401445, Note_off_c, 4, 51, 64
1, 401449, Note_on_c, 3, 60, 127
1, 401449, Note_on_c, 4, 56, 127
1, 401450, Note_on_c, 4, 53, 127
1, 401450, Note_on_c, 4, 50, 127
1, 401791, Note_off_c, 3, 60, 64
1, 401791, Note_on_c, 4, 59, 127
1, 401995, Note_off_c, 4, 50, 64
1, 401996, Note_off_c, 4, 56, 64
1, 401996, Note_off_c, 4, 53, 64
1, 402195, Note_off_c, 4, 59, 64
1, 402283, Note_on_c, 2, 68, 127
1, 402396, Note_on_c, 4, 50, 127
1, 402397, Note_on_c, 4, 47, 127
1, 402507, Note_off_c, 2, 68, 64
1, 402507, Note_on_c, 2, 67, 127
1, 402621, Note_off_c, 2, 67, 64
1, 402622, Note_on_c, 4, 65, 127
1, 402724, Note_off_c, 4, 50, 64
1, 402724, Note_off_c, 4, 47, 64
1, 402725, Note_off_c, 4, 65, 64
1, 402729, Note_on_c, 4, 65, 127
1, 402730, Note_on_c, 4, 55, 127
1, 402730, Note_on_c, 4, 49, 127
1, 402731, Note_on_c, 4, 46, 127
1, 403077, Note_off_c, 4, 65, 64
1, 403083, Note_on_c, 3, 64, 127
1, 403362, Note_off_c, 4, 55, 64
1, 403400, Note_off_c, 4, 49, 64
1, 403450, Note_off_c, 4, 46, 64
1, 403554, Note_off_c, 3, 64, 64
1, 403658, Note_on_c, 2, 70, 127
1, 403762, Note_on_c, 3, 60, 127
1, 403763, Note_on_c, 4, 52, 127
1, 403872, Note_off_c, 2, 70, 64
1, 403873, Note_on_c, 2, 68, 127
1, 403991, Note_off_c, 2, 68, 64
1, 403991, Note_on_c, 2, 67, 127
1, 404101, Note_off_c, 2, 67, 64
1, 404101, Note_off_c, 3, 60, 64
1, 404107, Note_off_c, 4, 52, 64
1, 404107, Note_on_c, 2, 67, 127
1, 404108, Note_on_c, 3, 60, 127
1, 404108, Note_on_c, 4, 53, 127
1, 404437, Note_off_c, 2, 67, 64
1, 404437, Note_on_c, 2, 68, 127
1, 404670, Note_off_c, 4, 53, 64
1, 404671, Note_off_c, 3, 60, 64
1, 404838, Note_off_c, 2, 68, 64
1, 404927, Note_on_c, 2, 71, 127
1, 405040, Note_on_c, 4, 56, 127
1, 405040, Note_on_c, 4, 53, 127
1, 405158, Note_off_c, 2, 71, 64
1, 405158, Note_on_c, 2, 72, 127
1, 405266, Note_off_c, 2, 72, 64
1, 405267, Note_on_c, 2, 74, 127
1, 405371, Note_off_c, 2, 74, 64
1, 405373, Note_off_c, 4, 53, 64
1, 405374, Note_off_c, 4, 56, 64
1, 405374, Note_on_c, 2, 74, 127
1, 405375, Note_on_c, 4, 57, 127
1, 405375, Note_on_c, 4, 54, 127
1, 405703, Note_off_c, 2, 74, 64
1, 405704, Note_on_c, 2, 77, 127
1, 405725, Note_off_c, 2, 77, 64
1, 405729, Note_on_c, 2, 75, 127
1, 405968, Note_off_c, 4, 57, 64
1, 406079, Note_off_c, 4, 54, 64
1, 406166, Note_off_c, 2, 75, 64
1, 406249, Note_on_c, 2, 72, 127
1, 406355, Note_off_c, 2, 72, 64
1, 406355, Note_on_c, 2, 74, 127
1, 406356, Note_on_c, 2, 66, 127
1, 406356, Note_on_c, 2, 63, 127
1, 406356, Note_on_c, 4, 56, 127
1, 406374, Note_on_c, 2, 72, 127
1, 406375, Note_off_c, 2, 74, 64
1, 406472, Note_on_c, 2, 71, 127
1, 406477, Note_off_c, 2, 72, 64
1, 406585, Note_off_c, 2, 71, 64
1, 406585, Note_on_c, 2, 72, 127
1, 406692, Note_off_c, 4, 56, 64
1, 406692, Note_off_c, 2, 63, 64
1, 406692, Note_off_c, 2, 66, 64
1, 406697, Note_off_c, 2, 72, 64
1, 406698, Note_on_c, 2, 67, 127
1, 406698, Note_on_c, 2, 63, 127
1, 406699, Note_on_c, 4, 55, 127
1, 407024, Note_off_c, 2, 63, 64
1, 407024, Note_off_c, 4, 55, 64
1, 407025, Note_off_c, 2, 67, 64
1, 407028, Note_on_c, 4, 59, 127
1, 407029, Note_on_c, 4, 53, 127
1, 407029, Note_on_c, 4, 50, 127
1, 407030, Note_on_c, 4, 43, 127
1, 407364, Note_off_c, 4, 50, 64
1, 407364, Note_off_c, 4, 53, 64
1, 407364, Note_off_c, 4, 43, 64
1, 407365, Note_off_c, 4, 59, 64
1, 407369, Note_on_c, 3, 60, 127
1, 407370, Note_on_c, 4, 51, 127
1, 407370, Note_on_c, 4, 48, 127
1, 407371, Note_on_c, 4, 36, 127
1, 407673, Note_off_c, 4, 48, 64
1, 407673, Note_off_c, 4, 36, 64
1, 407674, Note_off_c, 3, 60, 64
1, 407674, Note_off_c, 4, 51, 64
1, 407676, Note_on_c, 0, 77, 127
1, 407686, Note_on_c, 1, 75, 127
1, 407696, Note_off_c, 0, 77, 64
1, 407746, Note_off_c, 1, 75, 64
1, 407746, Note_on_c, 1, 74, 127
1, 407775, Note_on_c, 1, 72, 127
1, 407781, Note_off_c, 1, 74, 64
1, 407799, Note_on_c, 3, 62, 127
1, 407799, Note_on_c, 4, 59, 127
1, 407807, Note_on_c, 0, 79, 127
1, 407811, Note_off_c, 1, 72, 64
1, 407859, Note_on_c, 4, 55, 127
1, 407909, Note_off_c, 4, 59, 64
1, 407909, Note_off_c, 3, 62, 64
1, 407917, Note_on_c, 3, 67, 127
1, 407918, Note_on_c, 3, 63, 122
1, 407918, Note_on_c, 3, 60, 127
1, 407921, Note_off_c, 0, 79, 64
1, 407925, Note_on_c, 0, 79, 127
1, 407964, Note_off_c, 4, 55, 64
1, 407977, Note_on_c, 4, 55, 127
1, 408027, Note_off_c, 3, 67, 64
1, 408027, Note_off_c, 3, 60, 64
1, 408027, Note_off_c, 3, 63, 64
1, 408036, Note_on_c, 0, 79, 127
1, 408036, Note_on_c, 3, 67, 122
1, 408037, Note_on_c, 3, 65, 122
1, 408037, Note_on_c, 4, 62, 122
1, 408039, Note_off_c, 0, 79, 64
1, 408085, Note_off_c, 4, 55, 64
1, 408096, Note_on_c, 4, 55, 127
1, 408144, Note_off_c, 3, 67, 64
1, 408149, Note_off_c, 4, 62, 64
1, 408149, Note_off_c, 0, 79, 64
1, 408154, Note_off_c, 3, 65, 64
1, 408154, Note_on_c, 0, 79, 127
1, 408155, Note_on_c, 3, 67, 127
1, 408155, Note_on_c, 3, 63, 127
1, 408156, Note_on_c, 3, 60, 127
1, 408207, Note_off_c, 4, 55, 64
1, 408212, Note_on_c, 4, 55, 127
1, 408265, Note_off_c, 3, 63, 64
1, 408265, Note_off_c, 3, 60, 64
1, 408270, Note_on_c, 3, 63, 127
1, 408270, Note_on_c, 3, 60, 127
1, 408324, Note_off_c, 4, 55, 64
1, 408327, Note_on_c, 4, 55, 127
1, 408371, Note_off_c, 0, 79, 64
1, 408378, Note_on_c, 0, 77, 127
1, 408382, Note_off_c, 3, 60, 64
1, 408383, Note_off_c, 3, 63, 64
1, 408385, Note_off_c, 3, 67, 64
1, 408386, Note_on_c, 3, 63, 127
1, 408386, Note_on_c, 3, 60, 127
1, 408394, Note_on_c, 1, 75, 127
1, 408396, Note_off_c, 0, 77, 64
1, 408445, Note_off_c, 4, 55, 64
1, 408448, Note_on_c, 1, 74, 127
1, 408448, Note_on_c, 4, 55, 127
1, 408456, Note_off_c, 1, 75, 64
1, 408480, Note_on_c, 1, 72, 127
1, 408483, Note_off_c, 1, 74, 64
1, 408504, Note_off_c, 3, 60, 64
1, 408504, Note_off_c, 3, 63, 64
1, 408509, Note_on_c, 0, 79, 127
1, 408509, Note_on_c, 3, 62, 127
1, 408510, Note_on_c, 4, 59, 127
1, 408514, Note_off_c, 1, 72, 64
1, 408562, Note_off_c, 4, 55, 64
1, 408566, Note_on_c, 4, 55, 127
1, 408621, Note_off_c, 4, 59, 64
1, 408622, Note_off_c, 3, 62, 64
1, 408622, Note_off_c, 0, 79, 64
1, 408624, Note_on_c, 0, 79, 127
1, 408625, Note_on_c, 3, 67, 127
1, 408625, Note_on_c, 3, 63, 127
1, 408626, Note_on_c, 3, 60, 127
1, 408682, Note_off_c, 4, 55, 64
1, 408686, Note_on_c, 4, 55, 127
1, 408734, Note_off_c, 3, 67, 64
1, 408741, Note_off_c, 3, 60, 64
1, 408742, Note_off_c, 0, 79, 64
1, 408742, Note_off_c, 3, 63, 64
1, 408744, Note_on_c, 0, 79, 127
1, 408745, Note_on_c, 3, 67, 127
1, 408745, Note_on_c, 3, 65, 127
1, 408746, Note_on_c, 3, 62, 127
1, 408800, Note_off_c, 4, 55, 64
1, 408804, Note_on_c, 4, 55, 127
1, 408854, Note_off_c, 3, 67, 64
1, 408860, Note_off_c, 3, 62, 64
1, 408861, Note_off_c, 3, 65, 64
1, 408861, Note_off_c, 0, 79, 64
1, 408865, Note_on_c, 0, 79, 127
1, 408866, Note_on_c, 3, 67, 127
1, 408866, Note_on_c, 3, 63, 127
1, 408866, Note_on_c, 3, 60, 127
1, 408915, Note_off_c, 4, 55, 64
1, 408923, Note_on_c, 4, 55, 127
1, 408978, Note_off_c, 3, 60, 64
1, 408979, Note_off_c, 3, 63, 64
1, 408982, Note_on_c, 3, 63, 127
1, 408982, Note_on_c, 3, 60, 127
1, 409034, Note_off_c, 4, 55, 64
1, 409036, Note_on_c, 4, 55, 127
1, 409048, Note_off_c, 3, 67, 64
1, 409084, Note_off_c, 0, 79, 64
1, 409086, Note_on_c, 0, 77, 127
1, 409090, Note_off_c, 3, 60, 64
1, 409091, Note_off_c, 3, 63, 64
1, 409093, Note_on_c, 3, 63, 127
1, 409093, Note_on_c, 1, 75, 127
1, 409094, Note_on_c, 3, 60, 127
1, 409104, Note_off_c, 0, 77, 64
1, 409152, Note_off_c, 4, 55, 64
1, 409155, Note_on_c, 1, 74, 127
1, 409156, Note_on_c, 4, 55, 127
1, 409160, Note_off_c, 1, 75, 64
1, 409185, Note_on_c, 1, 72, 127
1, 409191, Note_off_c, 1, 74, 64
1, 409212, Note_off_c, 3, 63, 64
1, 409212, Note_off_c, 3, 60, 64
1, 409217, Note_on_c, 0, 80, 126
1, 409217, Note_on_c, 1, 74, 127
1, 409218, Note_on_c, 1, 71, 127
1, 409222, Note_off_c, 1, 72, 64
1, 409329, Note_off_c, 4, 55, 64
1, 409334, Note_on_c, 4, 41, 127
1, 409334, Note_on_c, 4, 53, 127
1, 409447, Note_off_c, 4, 53, 64
1, 409451, Note_off_c, 1, 71, 64
1, 409452, Note_off_c, 1, 74, 64
1, 409452, Note_off_c, 0, 80, 64
1, 409452, Note_on_c, 3, 65, 127
1, 409453, Note_on_c, 4, 53, 127
1, 409571, Note_off_c, 3, 65, 64
1, 409572, Note_on_c, 0, 79, 126
1, 409572, Note_on_c, 1, 75, 127
1, 409572, Note_on_c, 1, 72, 127
1, 409688, Note_off_c, 4, 41, 64
1, 409689, Note_off_c, 4, 53, 64
1, 409689, Note_on_c, 4, 51, 127
1, 409690, Note_on_c, 4, 39, 127
1, 409809, Note_off_c, 4, 51, 64
1, 409810, Note_off_c, 1, 72, 64
1, 409810, Note_off_c, 1, 75, 64
1, 409811, Note_off_c, 0, 79, 64
1, 409811, Note_on_c, 3, 63, 127
1, 409812, Note_on_c, 4, 51, 127
1, 409929, Note_off_c, 4, 39, 64
1, 409930, Note_off_c, 3, 63, 64
1, 409930, Note_off_c, 4, 51, 64
1, 409931, Note_on_c, 3, 62, 127
1, 409931, Note_on_c, 4, 50, 127
1, 410046, Note_on_c, 1, 83, 126
1, 410047, Note_on_c, 2, 77, 127
1, 410047, Note_on_c, 1, 74, 127
1, 410160, Note_off_c, 2, 77, 64
1, 410160, Note_off_c, 1, 83, 64
1, 410169, Note_off_c, 1, 74, 64
1, 410170, Note_on_c, 1, 86, 126
1, 410170, Note_on_c, 1, 83, 126
1, 410171, Note_on_c, 1, 77, 127
1, 410296, Note_off_c, 1, 86, 64
1, 410300, Note_off_c, 4, 50, 64
1, 410300, Note_off_c, 3, 62, 64
1, 410301, Note_off_c, 1, 77, 64
1, 410301, Note_off_c, 1, 83, 64
1, 410302, Note_on_c, 1, 89, 126
1, 410302, Note_on_c, 1, 86, 126
1, 410303, Note_on_c, 1, 79, 126
1, 410303, Note_on_c, 4, 59, 127
1, 410304, Note_on_c, 4, 47, 127
1, 410777, Note_off_c, 1, 86, 64
1, 410778, Note_off_c, 1, 89, 64
1, 410880, Note_off_c, 1, 79, 64
1, 410880, Note_on_c, 2, 75, 127
1, 411021, Note_off_c, 4, 47, 64
1, 411022, Note_off_c, 4, 59, 64
1, 411212, Note_off_c, 2, 75, 64
1, 411213, Note_on_c, 3, 66, 127
1, 411213, Note_on_c, 3, 63, 127
1, 411214, Note_on_c, 3, 60, 127
1, 411549, Note_off_c, 3, 60, 64
1, 411550, Note_off_c, 3, 63, 64
1, 411550, Note_off_c, 3, 66, 64
1, 411551, Note_on_c, 3, 67, 127
1, 411551, Note_on_c, 3, 65, 127
1, 411552, Note_on_c, 3, 62, 127
1, 411552, Note_on_c, 4, 59, 127
1, 411716, Note_off_c, 3, 67, 64
1, 411720, Note_on_c, 3, 68, 127
1, 411778, Note_off_c, 4, 59, 64
1, 411778, Note_off_c, 3, 62, 64
1, 411779, Note_off_c, 3, 65, 64
1, 411779, Note_on_c, 3, 67, 127
1, 411780, Note_on_c, 3, 63, 127
1, 411780, Note_on_c, 3, 60, 127
1, 411782, Note_off_c, 3, 68, 64
1, 411884, Note_off_c, 3, 60, 64
1, 411885, Note_off_c, 3, 67, 64
1, 411885, Note_off_c, 3, 63, 64
1, 411886, Note_on_c, 3, 65, 127
1, 411886, Note_on_c, 3, 62, 127
1, 411887, Note_on_c, 4, 53, 127
1, 412000, Note_off_c, 4, 53, 64
1, 412001, Note_off_c, 3, 62, 64
1, 412001, Note_off_c, 3, 65, 64
1, 412002, Note_on_c, 3, 63, 127
1, 412002, Note_on_c, 3, 60, 127
1, 412003, Note_on_c, 4, 55, 127
1, 412118, Note_off_c, 4, 55, 64
1, 412119, Note_off_c, 3, 60, 64
1, 412119, Note_off_c, 3, 63, 64
1, 412120, Note_on_c, 3, 62, 127
1, 412120, Note_on_c, 4, 59, 127
1, 412121, Note_on_c, 4, 43, 127
1, 412238, Note_off_c, 4, 43, 64
1, 412239, Note_off_c, 4, 59, 64
1, 412239, Note_off_c, 3, 62, 64
1, 412240, Note_on_c, 3, 60, 127
1, 412240, Note_on_c, 4, 48, 127
1, 412461, Note_on_c, 1, 77, 127
1, 412467, Note_on_c, 1, 75, 127
1, 412476, Note_off_c, 1, 77, 64
1, 412523, Note_off_c, 1, 75, 64
1, 412526, Note_off_c, 4, 48, 64
1, 412527, Note_off_c, 3, 60, 64
1, 412527, Note_on_c, 1, 74, 127
1, 412554, Note_on_c, 1, 72, 127
1, 412558, Note_off_c, 1, 74, 64
1, 412581, Note_on_c, 0, 79, 127
1, 412582, Note_on_c, 3, 62, 127
1, 412582, Note_on_c, 4, 59, 127
1, 412584, Note_off_c, 1, 72, 64
1, 412638, Note_on_c, 4, 55, 127
1, 412692, Note_off_c, 4, 59, 64
1, 412692, Note_off_c, 3, 62, 64
1, 412692, Note_off_c, 0, 79, 64
1, 412694, Note_on_c, 0, 79, 127
1, 412695, Note_on_c, 3, 63, 127
1, 412695, Note_on_c, 3, 60, 127
1, 412747, Note_off_c, 4, 55, 64
1, 412751, Note_on_c, 4, 55, 127
1, 412807, Note_off_c, 3, 60, 64
1, 412807, Note_off_c, 3, 63, 64
1, 412808, Note_off_c, 0, 79, 64
1, 412810, Note_on_c, 0, 79, 127
1, 412811, Note_on_c, 3, 65, 127
1, 412811, Note_on_c, 3, 62, 127
1, 412865, Note_off_c, 4, 55, 64
1, 412868, Note_on_c, 4, 55, 127
1, 412917, Note_off_c, 0, 79, 64
1, 412919, Note_off_c, 3, 62, 64
1, 412920, Note_off_c, 3, 65, 64
1, 412922, Note_on_c, 0, 79, 127
1, 412922, Note_on_c, 3, 63, 127
1, 412923, Note_on_c, 3, 60, 127
1, 412979, Note_off_c, 4, 55, 64
1, 412983, Note_on_c, 4, 55, 127
1, 413039, Note_off_c, 3, 60, 64
1, 413039, Note_off_c, 3, 63, 64
1, 413043, Note_on_c, 3, 63, 127
1, 413044, Note_on_c, 3, 60, 127
1, 413098, Note_off_c, 4, 55, 64
1, 413102, Note_on_c, 4, 55, 127
1, 413146, Note_off_c, 0, 79, 64
1, 413153, Note_on_c, 1, 77, 127
1, 413157, Note_off_c, 3, 60, 64
1, 413158, Note_off_c, 3, 63, 64
1, 413160, Note_on_c, 1, 75, 127
1, 413161, Note_on_c, 3, 63, 127
1, 413161, Note_on_c, 3, 60, 127
1, 413171, Note_off_c, 1, 77, 64
1, 413215, Note_off_c, 4, 55, 64
1, 413219, Note_on_c, 4, 55, 127
1, 413219, Note_on_c, 1, 74, 127
1, 413220, Note_off_c, 1, 75, 64
1, 413247, Note_on_c, 1, 72, 127
1, 413251, Note_off_c, 1, 74, 64
1, 413271, Note_off_c, 3, 60, 64
1, 413272, Note_off_c, 3, 63, 64
1, 413275, Note_on_c, 0, 79, 127
1, 413275, Note_on_c, 3, 62, 127
1, 413276, Note_on_c, 4, 59, 127
1, 413279, Note_off_c, 1, 72, 64
1, 413331, Note_off_c, 4, 55, 64
1, 413335, Note_on_c, 4, 55, 127
1, 413388, Note_off_c, 4, 59, 64
1, 413389, Note_off_c, 3, 62, 64
1, 413389, Note_off_c, 0, 79, 64
1, 413392, Note_on_c, 0, 79, 127
1, 413392, Note_on_c, 3, 63, 127
1, 413393, Note_on_c, 3, 60, 127
1, 413446, Note_off_c, 4, 55, 64
1, 413450, Note_on_c, 4, 55, 127
1, 413504, Note_off_c, 3, 60, 64
1, 413504, Note_off_c, 3, 63, 64
1, 413505, Note_off_c, 0, 79, 64
1, 413507, Note_on_c, 0, 79, 127
1, 413508, Note_on_c, 3, 65, 127
1, 413508, Note_on_c, 3, 62, 127
1, 413559, Note_off_c, 4, 55, 64
1, 413562, Note_on_c, 4, 55, 127
1, 413610, Note_off_c, 0, 79, 64
1, 413614, Note_off_c, 3, 62, 64
1, 413614, Note_off_c, 3, 65, 64
1, 413618, Note_on_c, 0, 79, 127
1, 413619, Note_on_c, 3, 63, 127
1, 413619, Note_on_c, 3, 60, 127
1, 413673, Note_off_c, 4, 55, 64
1, 413677, Note_on_c, 4, 55, 127
1, 413730, Note_off_c, 3, 60, 64
1, 413731, Note_off_c, 3, 63, 64
1, 413734, Note_on_c, 3, 63, 127
1, 413734, Note_on_c, 3, 60, 127
1, 413785, Note_off_c, 4, 55, 64
1, 413789, Note_on_c, 4, 55, 127
1, 413833, Note_off_c, 0, 79, 64
1, 413841, Note_on_c, 1, 77, 127
1, 413845, Note_off_c, 3, 60, 64
1, 413845, Note_off_c, 3, 63, 64
1, 413848, Note_on_c, 1, 75, 127
1, 413848, Note_on_c, 3, 63, 127
1, 413849, Note_on_c, 3, 60, 127
1, 413858, Note_off_c, 1, 77, 64
1, 413903, Note_off_c, 4, 55, 64
1, 413906, Note_on_c, 1, 74, 127
1, 413907, Note_on_c, 4, 55, 127
1, 413911, Note_off_c, 1, 75, 64
1, 413934, Note_on_c, 1, 72, 127
1, 413936, Note_off_c, 1, 74, 64
1, 413959, Note_off_c, 3, 60, 64
1, 413960, Note_off_c, 3, 63, 64
1, 413962, Note_on_c, 0, 80, 126
1, 413963, Note_on_c, 1, 74, 127
1, 413963, Note_on_c, 1, 71, 127
1, 413964, Note_off_c, 1, 72, 64
1, 414073, Note_off_c, 4, 55, 64
1, 414077, Note_on_c, 4, 53, 127
1, 414078, Note_on_c, 4, 41, 127
1, 414193, Note_off_c, 1, 71, 64
1, 414194, Note_off_c, 0, 80, 64
1, 414194, Note_off_c, 1, 74, 64
1, 414195, Note_on_c, 4, 53, 127
1, 414195, Note_on_c, 3, 65, 127
1, 414305, Note_off_c, 3, 65, 64
1, 414306, Note_on_c, 0, 79, 126
1, 414306, Note_on_c, 1, 75, 127
1, 414307, Note_on_c, 1, 72, 127
1, 414425, Note_off_c, 4, 41, 64
1, 414426, Note_off_c, 1, 72, 64
1, 414426, Note_off_c, 1, 75, 64
1, 414427, Note_off_c, 0, 79, 64
1, 414427, Note_on_c, 4, 51, 127
1, 414428, Note_on_c, 4, 39, 127
1, 414500, Note_off_c, 4, 53, 64
1, 414500, Note_off_c, 4, 53, 64
1, 414534, Note_off_c, 4, 51, 64
1, 414538, Note_on_c, 3, 63, 127
1, 414539, Note_on_c, 4, 51, 127
1, 414650, Note_off_c, 4, 51, 64
1, 414651, Note_off_c, 3, 63, 64
1, 414651, Note_off_c, 4, 39, 64
1, 414652, Note_on_c, 4, 50, 127
1, 414652, Note_on_c, 3, 62, 127
1, 414771, Note_on_c, 0, 83, 126
1, 414772, Note_on_c, 1, 77, 127
1, 414772, Note_on_c, 1, 74, 127
1, 414832, Note_off_c, 3, 62, 64
1, 414907, Note_off_c, 1, 74, 64
1, 414907, Note_off_c, 1, 77, 64
1, 414908, Note_off_c, 0, 83, 64
1, 414908, Note_on_c, 1, 86, 126
1, 414909, Note_on_c, 1, 83, 126
1, 414909, Note_on_c, 1, 77, 127
1, 415038, Note_off_c, 1, 77, 64
1, 415039, Note_off_c, 1, 86, 64
1, 415039, Note_off_c, 1, 83, 64
1, 415040, Note_off_c, 4, 50, 64
1, 415040, Note_on_c, 1, 89, 126
1, 415041, Note_on_c, 1, 86, 126
1, 415041, Note_on_c, 1, 79, 126
1, 415042, Note_on_c, 4, 59, 127
1, 415042, Note_on_c, 4, 47, 127
1, 415583, Note_off_c, 1, 79, 64
1, 415584, Note_off_c, 1, 89, 64
1, 415584, Note_off_c, 1, 86, 64
1, 415640, Note_on_c, 3, 61, 127
1, 415640, Note_on_c, 4, 49, 127
1, 415669, Note_off_c, 4, 47, 64
1, 415670, Note_off_c, 4, 59, 64
1, 415759, Note_off_c, 4, 49, 64
1, 415759, Note_off_c, 3, 61, 64
1, 415760, Note_on_c, 2, 76, 127
1, 415760, Note_on_c, 2, 70, 127
1, 415760, Note_on_c, 3, 67, 127
1, 415761, Note_on_c, 4, 58, 127
1, 415761, Note_on_c, 4, 46, 127
1, 415879, Note_off_c, 2, 70, 64
1, 415879, Note_off_c, 2, 76, 64
1, 415884, Note_off_c, 4, 46, 64
1, 415884, Note_off_c, 4, 58, 64
1, 415884, Note_off_c, 3, 67, 64
1, 415885, Note_on_c, 1, 79, 126
1, 415885, Note_on_c, 2, 76, 127
1, 415885, Note_on_c, 2, 70, 127
1, 415886, Note_on_c, 4, 55, 127
1, 415886, Note_on_c, 4, 43, 127
1, 416012, Note_off_c, 1, 79, 64
1, 416016, Note_off_c, 4, 43, 64
1, 416016, Note_off_c, 4, 55, 64
1, 416017, Note_off_c, 2, 70, 64
1, 416017, Note_off_c, 2, 76, 64
1, 416018, Note_on_c, 1, 82, 126
1, 416018, Note_on_c, 1, 79, 126
1, 416019, Note_on_c, 2, 73, 127
1, 416019, Note_on_c, 4, 52, 127
1, 416020, Note_on_c, 4, 40, 127
1, 416512, Note_off_c, 2, 73, 64
1, 416513, Note_off_c, 1, 79, 64
1, 416513, Note_off_c, 1, 82, 64
1, 416588, Note_off_c, 4, 40, 64
1, 416589, Note_off_c, 4, 52, 64
1, 416618, Note_on_c, 4, 53, 119
1, 416735, Note_off_c, 4, 53, 64
1, 416736, Note_on_c, 4, 56, 119
1, 416847, Note_off_c, 4, 56, 64
1, 416848, Note_on_c, 3, 60, 119
1, 416960, Note_off_c, 3, 60, 64
1, 416960, Note_on_c, 4, 52, 119
1, 417078, Note_off_c, 4, 52, 64
1, 417078, Note_on_c, 4, 55, 119
1, 417191, Note_off_c, 4, 55, 64
1, 417192, Note_on_c, 4, 58, 119
1, 417301, Note_off_c, 4, 58, 64
1, 417302, Note_on_c, 2, 72, 127
1, 417302, Note_on_c, 4, 53, 121
1, 417416, Note_off_c, 4, 53, 64
1, 417416, Note_on_c, 4, 56, 121
1, 417530, Note_off_c, 4, 56, 64
1, 417530, Note_on_c, 3, 60, 121
1, 417637, Note_off_c, 2, 72, 64
1, 417642, Note_off_c, 3, 60, 64
1, 417642, Note_on_c, 2, 72, 127
1, 417643, Note_on_c, 4, 52, 121
1, 417757, Note_off_c, 4, 52, 64
1, 417757, Note_on_c, 4, 55, 121
1, 417873, Note_off_c, 4, 55, 64
1, 417874, Note_on_c, 4, 58, 121
1, 417924, Note_off_c, 2, 72, 64
1, 417928, Note_on_c, 2, 72, 127
1, 417984, Note_off_c, 4, 58, 64
1, 417984, Note_on_c, 2, 73, 127
1, 417984, Note_on_c, 4, 53, 121
1, 417989, Note_off_c, 2, 72, 64
1, 418101, Note_off_c, 4, 53, 64
1, 418101, Note_on_c, 4, 56, 121
1, 418215, Note_off_c, 4, 56, 64
1, 418215, Note_off_c, 2, 73, 64
1, 418216, Note_on_c, 2, 72, 127
1, 418216, Note_on_c, 3, 60, 121
1, 418328, Note_off_c, 3, 60, 64
1, 418329, Note_on_c, 4, 52, 121
1, 418444, Note_off_c, 4, 52, 64
1, 418445, Note_on_c, 4, 55, 121
1, 418559, Note_off_c, 4, 55, 64
1, 418559, Note_off_c, 2, 72, 64
1, 418560, Note_on_c, 4, 58, 121
1, 418614, Note_on_c, 1, 84, 127
1, 418670, Note_off_c, 4, 58, 64
1, 418670, Note_on_c, 1, 85, 127
1, 418671, Note_on_c, 4, 53, 121
1, 418676, Note_off_c, 1, 84, 64
1, 418787, Note_off_c, 4, 53, 64
1, 418788, Note_on_c, 4, 56, 121
1, 418903, Note_off_c, 4, 56, 64
1, 418904, Note_off_c, 1, 85, 64
1, 418904, Note_on_c, 1, 84, 127
1, 418905, Note_on_c, 3, 60, 121
1, 419016, Note_off_c, 3, 60, 64
1, 419017, Note_on_c, 4, 52, 121
1, 419131, Note_off_c, 4, 52, 64
1, 419131, Note_on_c, 4, 55, 121
1, 419246, Note_off_c, 4, 55, 64
1, 419246, Note_off_c, 1, 84, 64
1, 419247, Note_on_c, 4, 58, 123
1, 419301, Note_on_c, 3, 60, 127
1, 419333, Note_off_c, 4, 58, 64
1, 419358, Note_on_c, 3, 61, 127
1, 419359, Note_on_c, 4, 53, 123
1, 419363, Note_off_c, 3, 60, 64
1, 419472, Note_off_c, 4, 53, 64
1, 419473, Note_on_c, 4, 56, 123
1, 419587, Note_off_c, 4, 56, 64
1, 419587, Note_off_c, 3, 61, 64
1, 419588, Note_on_c, 3, 60, 127
1, 419588, Note_on_c, 4, 53, 123
1, 419696, Note_off_c, 4, 53, 64
1, 419697, Note_on_c, 4, 54, 123
1, 419810, Note_off_c, 4, 54, 64
1, 419811, Note_on_c, 4, 57, 123
1, 419923, Note_off_c, 4, 57, 64
1, 419923, Note_off_c, 3, 60, 64
1, 419924, Note_on_c, 3, 63, 127
1, 419977, Note_on_c, 1, 84, 127
1, 420037, Note_off_c, 3, 63, 64
1, 420037, Note_on_c, 2, 72, 127
1, 420038, Note_on_c, 4, 55, 123
1, 420042, Note_off_c, 1, 84, 64
1, 420152, Note_off_c, 4, 55, 64
1, 420152, Note_on_c, 3, 60, 123
1, 420266, Note_off_c, 3, 60, 64
1, 420266, Note_on_c, 3, 63, 127
1, 420378, Note_off_c, 3, 63, 64
1, 420378, Note_off_c, 2, 72, 64
1, 420379, Note_on_c, 2, 74, 117
1, 420380, Note_on_c, 4, 55, 123
1, 420407, Note_on_c, 2, 75, 117
1, 420408, Note_off_c, 2, 74, 64
1, 420436, Note_on_c, 2, 74, 117
1, 420437, Note_off_c, 2, 75, 64
1, 420465, Note_on_c, 2, 75, 117
1, 420466, Note_off_c, 2, 74, 64
1, 420492, Note_off_c, 4, 55, 64
1, 420492, Note_on_c, 2, 74, 117
1, 420492, Note_on_c, 3, 62, 125
1, 420494, Note_off_c, 2, 75, 64
1, 420519, Note_on_c, 2, 75, 117
1, 420523, Note_off_c, 2, 74, 64
1, 420550, Note_on_c, 2, 74, 117
1, 420552, Note_off_c, 2, 75, 64
1, 420579, Note_on_c, 2, 75, 117
1, 420580, Note_off_c, 2, 74, 64
1, 420606, Note_off_c, 3, 62, 64
1, 420606, Note_on_c, 2, 74, 117
1, 420607, Note_on_c, 3, 65, 127
1, 420608, Note_off_c, 2, 75, 64
1, 420634, Note_on_c, 2, 75, 117
1, 420637, Note_off_c, 2, 74, 64
1, 420662, Note_on_c, 2, 72, 117
1, 420664, Note_off_c, 2, 75, 64
1, 420691, Note_on_c, 2, 74, 117
1, 420693, Note_off_c, 2, 72, 64
1, 420720, Note_off_c, 3, 65, 64
1, 420720, Note_on_c, 2, 72, 117
1, 420721, Note_on_c, 3, 60, 125
1, 420721, Note_on_c, 3, 63, 127
1, 420722, Note_off_c, 2, 74, 64
1, 420780, Note_on_c, 3, 67, 127
1, 420784, Note_off_c, 2, 72, 64
1, 420830, Note_off_c, 3, 63, 64
1, 420834, Note_on_c, 3, 63, 127
1, 420840, Note_off_c, 3, 67, 64
1, 420893, Note_on_c, 3, 67, 127
1, 420896, Note_off_c, 3, 63, 64
1, 420949, Note_on_c, 3, 63, 127
1, 420955, Note_off_c, 3, 67, 64
1, 421007, Note_on_c, 3, 67, 127
1, 421013, Note_off_c, 3, 63, 64
1, 421066, Note_off_c, 3, 60, 64
1, 421066, Note_on_c, 3, 65, 127
1, 421067, Note_on_c, 4, 55, 125
1, 421070, Note_off_c, 3, 67, 64
1, 421124, Note_on_c, 3, 67, 127
1, 421130, Note_off_c, 3, 65, 64
1, 421184, Note_off_c, 4, 55, 64
1, 421184, Note_on_c, 3, 65, 127
1, 421184, Note_on_c, 4, 57, 125
1, 421188, Note_off_c, 3, 67, 64
1, 421240, Note_on_c, 3, 67, 127
1, 421244, Note_off_c, 3, 65, 64
1, 421296, Note_off_c, 4, 57, 64
1, 421296, Note_on_c, 3, 65, 127
1, 421297, Note_on_c, 4, 59, 125
1, 421304, Note_off_c, 3, 67, 64
1, 421351, Note_on_c, 3, 67, 127
1, 421355, Note_off_c, 3, 65, 64
1, 421408, Note_off_c, 4, 59, 64
1, 421408, Note_on_c, 3, 63, 127
1, 421409, Note_on_c, 3, 60, 125
1, 421413, Note_off_c, 3, 67, 64
1, 421463, Note_on_c, 3, 60, 125
1, 421469, Note_off_c, 3, 63, 64
1, 421509, Note_off_c, 3, 60, 64
1, 421521, Note_on_c, 4, 55, 125
1, 421571, Note_off_c, 3, 60, 64
1, 421576, Note_on_c, 3, 60, 125
1, 421630, Note_on_c, 4, 51, 125
1, 421682, Note_off_c, 4, 55, 64
1, 421686, Note_off_c, 3, 60, 64
1, 421686, Note_on_c, 4, 55, 125
1, 421744, Note_off_c, 4, 51, 64
1, 421745, Note_on_c, 3, 67, 127
1, 421745, Note_on_c, 4, 53, 125
1, 421751, Note_off_c, 4, 55, 64
1, 421803, Note_on_c, 4, 55, 125
1, 421809, Note_off_c, 4, 53, 64
1, 421862, Note_off_c, 3, 67, 64
1, 421863, Note_on_c, 2, 69, 127
1, 421863, Note_on_c, 4, 53, 125
1, 421867, Note_off_c, 4, 55, 64
1, 421921, Note_on_c, 4, 55, 125
1, 421925, Note_off_c, 4, 53, 64
1, 421977, Note_off_c, 2, 69, 64
1, 421977, Note_on_c, 2, 71, 127
1, 421978, Note_on_c, 4, 53, 125
1, 421980, Note_off_c, 4, 55, 64
1, 422032, Note_on_c, 4, 55, 125
1, 422036, Note_off_c, 4, 53, 64
1, 422088, Note_off_c, 2, 71, 64
1, 422088, Note_on_c, 2, 72, 127
1, 422089, Note_on_c, 4, 51, 125
1, 422143, Note_off_c, 4, 55, 64
1, 422147, Note_on_c, 4, 55, 125
1, 422199, Note_off_c, 4, 51, 64
1, 422202, Note_on_c, 4, 51, 125
1, 422256, Note_off_c, 4, 55, 64
1, 422260, Note_on_c, 4, 55, 125
1, 422314, Note_off_c, 4, 51, 64
1, 422317, Note_on_c, 4, 51, 125
1, 422369, Note_off_c, 4, 55, 64
1, 422371, Note_on_c, 4, 55, 125
1, 422425, Note_off_c, 4, 51, 64
1, 422429, Note_off_c, 2, 72, 64
1, 422429, Note_on_c, 1, 79, 126
1, 422430, Note_on_c, 4, 53, 125
1, 422434, Note_off_c, 4, 55, 64
1, 422488, Note_on_c, 4, 55, 125
1, 422491, Note_off_c, 4, 53, 64
1, 422544, Note_off_c, 1, 79, 64
1, 422544, Note_on_c, 1, 81, 124
1, 422544, Note_on_c, 4, 53, 125
1, 422548, Note_off_c, 4, 55, 64
1, 422602, Note_on_c, 4, 55, 125
1, 422606, Note_off_c, 4, 53, 64
1, 422658, Note_off_c, 1, 81, 64
1, 422658, Note_on_c, 1, 83, 126
1, 422658, Note_on_c, 4, 53, 125
1, 422663, Note_off_c, 4, 55, 64
1, 422714, Note_on_c, 4, 55, 125
1, 422718, Note_off_c, 4, 53, 64
1, 422770, Note_off_c, 1, 83, 64
1, 422771, Note_on_c, 4, 51, 125
1, 422771, Note_on_c, 1, 84, 126
1, 422824, Note_off_c, 4, 55, 64
1, 422827, Note_on_c, 4, 55, 125
1, 422880, Note_off_c, 4, 51, 64
1, 422882, Note_on_c, 4, 51, 125
1, 422937, Note_off_c, 4, 55, 64
1, 422939, Note_on_c, 4, 55, 125
1, 422994, Note_off_c, 4, 51, 64
1, 422999, Note_on_c, 4, 51, 125
1, 423052, Note_off_c, 4, 55, 64
1, 423054, Note_on_c, 4, 55, 125
1, 423108, Note_off_c, 4, 51, 64
1, 423111, Note_off_c, 1, 84, 64
1, 423111, Note_on_c, 1, 82, 127
1, 423112, Note_on_c, 4, 52, 125
1, 423168, Note_off_c, 4, 55, 64
1, 423172, Note_on_c, 3, 60, 125
1, 423224, Note_off_c, 4, 52, 64
1, 423228, Note_on_c, 4, 52, 125
1, 423281, Note_off_c, 3, 60, 64
1, 423286, Note_on_c, 3, 60, 125
1, 423339, Note_off_c, 4, 52, 64
1, 423343, Note_on_c, 4, 52, 125
1, 423395, Note_off_c, 3, 60, 64
1, 423397, Note_on_c, 3, 60, 125
1, 423453, Note_off_c, 4, 52, 64
1, 423455, Note_off_c, 1, 82, 64
1, 423455, Note_on_c, 1, 80, 127
1, 423456, Note_on_c, 4, 53, 125
1, 423511, Note_off_c, 3, 60, 64
1, 423515, Note_on_c, 3, 60, 125
1, 423569, Note_off_c, 4, 53, 64
1, 423571, Note_on_c, 4, 53, 125
1, 423627, Note_off_c, 3, 60, 64
1, 423629, Note_on_c, 3, 60, 125
1, 423681, Note_off_c, 4, 53, 64
1, 423685, Note_on_c, 4, 53, 125
1, 423739, Note_off_c, 3, 60, 64
1, 423741, Note_on_c, 3, 60, 125
1, 423794, Note_off_c, 4, 53, 64
1, 423798, Note_off_c, 1, 80, 64
1, 423799, Note_on_c, 2, 77, 127
1, 423799, Note_on_c, 4, 55, 125
1, 423851, Note_off_c, 3, 60, 64
1, 423855, Note_on_c, 4, 59, 125
1, 423907, Note_off_c, 4, 55, 64
1, 423911, Note_on_c, 4, 55, 125
1, 423962, Note_off_c, 4, 59, 64
1, 423967, Note_on_c, 4, 59, 125
1, 424019, Note_off_c, 4, 55, 64
1, 424021, Note_on_c, 4, 55, 125
1, 424075, Note_off_c, 4, 59, 64
1, 424079, Note_on_c, 4, 59, 125
1, 424132, Note_off_c, 4, 55, 64
1, 424136, Note_off_c, 2, 77, 64
1, 424137, Note_on_c, 2, 75, 127
1, 424137, Note_on_c, 4, 56, 125
1, 424193, Note_off_c, 4, 59, 64
1, 424197, Note_on_c, 3, 60, 125
1, 424248, Note_off_c, 4, 56, 64
1, 424252, Note_on_c, 4, 56, 125
1, 424306, Note_off_c, 3, 60, 64
1, 424310, Note_on_c, 3, 60, 125
1, 424362, Note_off_c, 4, 56, 64
1, 424368, Note_on_c, 4, 56, 125
1, 424417, Note_off_c, 3, 60, 64
1, 424422, Note_on_c, 3, 60, 125
1, 424477, Note_off_c, 4, 56, 64
1, 424481, Note_off_c, 2, 75, 64
1, 424481, Note_on_c, 3, 73, 127
1, 424482, Note_on_c, 4, 53, 125
1, 424534, Note_off_c, 3, 60, 64
1, 424537, Note_on_c, 4, 56, 125
1, 424591, Note_off_c, 4, 53, 64
1, 424595, Note_on_c, 4, 53, 125
1, 424647, Note_off_c, 4, 56, 64
1, 424651, Note_on_c, 4, 56, 125
1, 424705, Note_off_c, 4, 53, 64
1, 424709, Note_on_c, 4, 53, 125
1, 424760, Note_off_c, 4, 56, 64
1, 424764, Note_on_c, 4, 56, 127
1, 424816, Note_off_c, 4, 53, 64
1, 424820, Note_off_c, 3, 73, 64
1, 424821, Note_on_c, 3, 72, 127
1, 424821, Note_on_c, 4, 55, 127
1, 424825, Note_off_c, 4, 56, 64
1, 424876, Note_on_c, 3, 63, 127
1, 424927, Note_off_c, 4, 55, 64
1, 424932, Note_on_c, 4, 55, 127
1, 424985, Note_off_c, 3, 63, 64
1, 424987, Note_on_c, 3, 63, 127
1, 425041, Note_off_c, 4, 55, 64
1, 425045, Note_on_c, 4, 55, 127
1, 425098, Note_off_c, 3, 63, 64
1, 425102, Note_on_c, 3, 63, 127
1, 425154, Note_off_c, 4, 55, 64
1, 425158, Note_off_c, 3, 72, 64
1, 425159, Note_on_c, 3, 71, 127
1, 425159, Note_on_c, 4, 55, 127
1, 425212, Note_off_c, 3, 63, 64
1, 425215, Note_on_c, 3, 62, 127
1, 425268, Note_off_c, 4, 55, 64
1, 425272, Note_on_c, 4, 55, 127
1, 425324, Note_off_c, 3, 62, 64
1, 425328, Note_on_c, 3, 62, 127
1, 425381, Note_off_c, 4, 55, 64
1, 425386, Note_on_c, 4, 55, 127
1, 425437, Note_off_c, 3, 62, 64
1, 425441, Note_on_c, 3, 62, 127
1, 425495, Note_off_c, 4, 55, 64
1, 425499, Note_off_c, 3, 71, 64
1, 425499, Note_on_c, 3, 63, 127
1, 425500, Note_on_c, 4, 56, 127
1, 425503, Note_off_c, 3, 62, 64
1, 425558, Note_on_c, 2, 72, 127
1, 425612, Note_off_c, 3, 63, 64
1, 425614, Note_on_c, 3, 63, 127
1, 425668, Note_off_c, 2, 72, 64
1, 425672, Note_on_c, 2, 72, 127
1, 425727, Note_off_c, 3, 63, 64
1, 425729, Note_on_c, 3, 63, 127
1, 425781, Note_off_c, 2, 72, 64
1, 425785, Note_on_c, 2, 72, 127
1, 425839, Note_off_c, 3, 63, 64
1, 425841, Note_on_c, 1, 84, 126
1, 425841, Note_on_c, 3, 63, 127
1, 425895, Note_off_c, 2, 72, 64
1, 425899, Note_on_c, 2, 72, 127
1, 425951, Note_off_c, 3, 63, 64
1, 425955, Note_on_c, 3, 63, 127
1, 426009, Note_off_c, 2, 72, 64
1, 426011, Note_on_c, 2, 72, 127
1, 426066, Note_off_c, 3, 63, 64
1, 426068, Note_on_c, 3, 63, 127
1, 426120, Note_off_c, 2, 72, 64
1, 426122, Note_on_c, 2, 72, 127
1, 426176, Note_off_c, 3, 63, 64
1, 426180, Note_off_c, 1, 84, 64
1, 426180, Note_on_c, 1, 87, 126
1, 426180, Note_on_c, 3, 63, 127
1, 426231, Note_off_c, 2, 72, 64
1, 426235, Note_on_c, 2, 72, 127
1, 426287, Note_off_c, 3, 63, 64
1, 426291, Note_on_c, 3, 63, 127
1, 426345, Note_off_c, 2, 72, 64
1, 426348, Note_off_c, 4, 56, 64
1, 426349, Note_on_c, 2, 72, 127
1, 426403, Note_off_c, 3, 63, 64
1, 426407, Note_on_c, 3, 63, 127
1, 426459, Note_off_c, 2, 72, 64
1, 426461, Note_on_c, 2, 72, 127
1, 426515, Note_off_c, 3, 63, 64
1, 426516, Note_off_c, 1, 87, 64
1, 426517, Note_on_c, 4, 42, 127
1, 426517, Note_on_c, 3, 63, 127
1, 426571, Note_off_c, 2, 72, 64
1, 426573, Note_on_c, 2, 72, 127
1, 426627, Note_off_c, 3, 63, 64
1, 426631, Note_on_c, 3, 63, 127
1, 426683, Note_off_c, 2, 72, 64
1, 426686, Note_on_c, 2, 72, 127
1, 426740, Note_off_c, 3, 63, 64
1, 426742, Note_on_c, 3, 63, 127
1, 426795, Note_off_c, 2, 72, 64
1, 426799, Note_on_c, 2, 72, 127
1, 426852, Note_off_c, 3, 63, 64
1, 426855, Note_off_c, 4, 42, 64
1, 426855, Note_on_c, 3, 63, 127
1, 426855, Note_on_c, 4, 43, 127
1, 426912, Note_off_c, 2, 72, 64
1, 426914, Note_on_c, 2, 72, 127
1, 426966, Note_off_c, 3, 63, 64
1, 426970, Note_on_c, 3, 63, 127
1, 427023, Note_off_c, 2, 72, 64
1, 427026, Note_on_c, 2, 72, 127
1, 427082, Note_off_c, 3, 63, 64
1, 427084, Note_on_c, 3, 63, 127
1, 427138, Note_off_c, 2, 72, 64
1, 427140, Note_on_c, 2, 72, 127
1, 427195, Note_off_c, 3, 63, 64
1, 427198, Note_off_c, 4, 43, 64
1, 427198, Note_on_c, 3, 63, 127
1, 427199, Note_on_c, 4, 44, 127
1, 427256, Note_off_c, 2, 72, 64
1, 427258, Note_on_c, 2, 72, 127
1, 427309, Note_off_c, 3, 63, 64
1, 427314, Note_on_c, 3, 63, 127
1, 427367, Note_off_c, 2, 72, 64
1, 427369, Note_on_c, 2, 72, 127
1, 427425, Note_off_c, 3, 63, 64
1, 427427, Note_on_c, 3, 63, 127
1, 427478, Note_off_c, 2, 72, 64
1, 427483, Note_on_c, 2, 72, 127
1, 427536, Note_off_c, 3, 63, 64
1, 427538, Note_off_c, 4, 44, 64
1, 427539, Note_on_c, 4, 45, 127
1, 427539, Note_on_c, 3, 62, 127
1, 427595, Note_off_c, 2, 72, 64
1, 427599, Note_on_c, 2, 72, 127
1, 427650, Note_off_c, 3, 62, 64
1, 427655, Note_on_c, 3, 62, 127
1, 427708, Note_off_c, 2, 72, 64
1, 427710, Note_on_c, 2, 72, 127
1, 427765, Note_off_c, 3, 62, 64
1, 427768, Note_on_c, 3, 62, 127
1, 427819, Note_off_c, 2, 72, 64
1, 427824, Note_on_c, 2, 72, 127
1, 427875, Note_off_c, 3, 62, 64
1, 427879, Note_off_c, 4, 45, 64
1, 427880, Note_on_c, 4, 43, 127
1, 427880, Note_on_c, 3, 62, 127
1, 427935, Note_off_c, 2, 72, 64
1, 427938, Note_on_c, 2, 71, 127
1, 427992, Note_off_c, 3, 62, 64
1, 427995, Note_on_c, 3, 62, 127
1, 428047, Note_off_c, 2, 71, 64
1, 428051, Note_on_c, 2, 71, 127
1, 428105, Note_off_c, 3, 62, 64
1, 428107, Note_on_c, 3, 62, 127
1, 428160, Note_off_c, 2, 71, 64
1, 428161, Note_on_c, 2, 71, 127
1, 428215, Note_off_c, 3, 62, 64
1, 428217, Note_off_c, 4, 43, 64
1, 428218, Note_on_c, 4, 48, 127
1, 428218, Note_on_c, 3, 63, 127
1, 428222, Note_off_c, 2, 71, 64
1, 428276, Note_on_c, 2, 72, 127
1, 428281, Note_off_c, 3, 63, 64
1, 428331, Note_on_c, 3, 67, 127
1, 428335, Note_off_c, 2, 72, 64
1, 428387, Note_on_c, 3, 63, 127
1, 428393, Note_off_c, 3, 67, 64
1, 428445, Note_on_c, 3, 67, 127
1, 428450, Note_off_c, 3, 63, 64
1, 428500, Note_on_c, 3, 63, 127
1, 428504, Note_off_c, 3, 67, 64
1, 428556, Note_on_c, 3, 62, 127
1, 428562, Note_off_c, 3, 63, 64
1, 428614, Note_on_c, 3, 65, 127
1, 428619, Note_off_c, 3, 62, 64
1, 428671, Note_on_c, 1, 79, 118
1, 428672, Note_on_c, 3, 67, 127
1, 428676, Note_off_c, 3, 65, 64
1, 428727, Note_on_c, 1, 81, 116
1, 428727, Note_on_c, 3, 65, 127
1, 428732, Note_off_c, 3, 67, 64
1, 428732, Note_off_c, 1, 79, 64
1, 428784, Note_on_c, 1, 83, 118
1, 428787, Note_on_c, 3, 67, 127
1, 428791, Note_off_c, 3, 65, 64
1, 428792, Note_off_c, 1, 81, 64
1, 428842, Note_on_c, 1, 79, 118
1, 428843, Note_on_c, 3, 65, 127
1, 428845, Note_off_c, 1, 83, 64
1, 428847, Note_off_c, 3, 67, 64
1, 428894, Note_on_c, 1, 84, 118
1, 428899, Note_on_c, 3, 60, 127
1, 428903, Note_off_c, 1, 79, 64
1, 428903, Note_off_c, 3, 65, 64
1, 428957, Note_on_c, 3, 63, 127
1, 428961, Note_off_c, 3, 60, 64
1, 429012, Note_on_c, 3, 72, 127
1, 429012, Note_on_c, 3, 67, 127
1, 429016, Note_off_c, 3, 63, 64
1, 429068, Note_on_c, 2, 74, 127
1, 429068, Note_on_c, 3, 63, 127
1, 429072, Note_off_c, 3, 67, 64
1, 429073, Note_off_c, 3, 72, 64
1, 429125, Note_on_c, 2, 75, 127
1, 429126, Note_on_c, 3, 67, 127
1, 429130, Note_off_c, 3, 63, 64
1, 429131, Note_off_c, 2, 74, 64
1, 429183, Note_on_c, 3, 72, 127
1, 429183, Note_on_c, 3, 63, 127
1, 429188, Note_off_c, 3, 67, 64
1, 429189, Note_off_c, 2, 75, 64
1, 429235, Note_off_c, 1, 84, 64
1, 429239, Note_on_c, 1, 79, 124
1, 429240, Note_on_c, 3, 62, 127
1, 429244, Note_off_c, 3, 63, 64
1, 429245, Note_off_c, 3, 72, 64
1, 429299, Note_on_c, 3, 65, 127
1, 429303, Note_off_c, 3, 62, 64
1, 429355, Note_on_c, 3, 71, 127
1, 429355, Note_on_c, 3, 67, 127
1, 429360, Note_off_c, 3, 65, 64
1, 429413, Note_on_c, 3, 72, 127
1, 429414, Note_on_c, 3, 65, 127
1, 429418, Note_off_c, 3, 67, 64
1, 429419, Note_off_c, 3, 71, 64
1, 429469, Note_on_c, 2, 74, 127
1, 429469, Note_on_c, 3, 67, 127
1, 429474, Note_off_c, 3, 65, 64
1, 429475, Note_off_c, 3, 72, 64
1, 429525, Note_on_c, 3, 71, 127
1, 429526, Note_on_c, 3, 65, 127
1, 429529, Note_off_c, 3, 67, 64
1, 429530, Note_off_c, 2, 74, 64
1, 429581, Note_off_c, 1, 79, 64
1, 429581, Note_on_c, 3, 72, 127
1, 429581, Note_on_c, 3, 60, 127
1, 429586, Note_off_c, 3, 65, 64
1, 429587, Note_off_c, 3, 71, 64
1, 429639, Note_on_c, 3, 63, 127
1, 429645, Note_off_c, 3, 60, 64
1, 429696, Note_on_c, 3, 67, 127
1, 429701, Note_off_c, 3, 63, 64
1, 429751, Note_on_c, 3, 63, 127
1, 429756, Note_off_c, 3, 67, 64
1, 429809, Note_on_c, 3, 67, 127
1, 429813, Note_off_c, 3, 63, 64
1, 429863, Note_on_c, 3, 63, 127
1, 429869, Note_off_c, 3, 67, 64
1, 429919, Note_on_c, 3, 62, 127
1, 429924, Note_off_c, 3, 63, 64
1, 429980, Note_on_c, 3, 65, 127
1, 429984, Note_off_c, 3, 62, 64
1, 430017, Note_off_c, 4, 48, 64
1, 430036, Note_on_c, 3, 67, 127
1, 430036, Note_on_c, 4, 43, 127
1, 430041, Note_off_c, 3, 65, 64
1, 430044, Note_off_c, 3, 72, 64
1, 430092, Note_on_c, 3, 65, 127
1, 430093, Note_on_c, 4, 45, 127
1, 430097, Note_off_c, 4, 43, 64
1, 430098, Note_off_c, 3, 67, 64
1, 430148, Note_on_c, 3, 67, 127
1, 430149, Note_on_c, 4, 47, 127
1, 430153, Note_off_c, 4, 45, 64
1, 430153, Note_off_c, 3, 65, 64
1, 430206, Note_on_c, 3, 65, 127
1, 430206, Note_on_c, 4, 43, 127
1, 430211, Note_off_c, 4, 47, 64
1, 430211, Note_off_c, 3, 67, 64
1, 430261, Note_on_c, 3, 60, 127
1, 430262, Note_on_c, 4, 48, 127
1, 430266, Note_off_c, 4, 43, 64
1, 430267, Note_off_c, 3, 65, 64
1, 430321, Note_on_c, 3, 63, 127
1, 430325, Note_off_c, 3, 60, 64
1, 430379, Note_on_c, 3, 67, 127
1, 430379, Note_on_c, 4, 36, 127
1, 430383, Note_off_c, 3, 63, 64
1, 430435, Note_on_c, 3, 63, 127
1, 430436, Note_on_c, 4, 38, 127
1, 430440, Note_off_c, 4, 36, 64
1, 430440, Note_off_c, 3, 67, 64
1, 430493, Note_on_c, 3, 67, 127
1, 430493, Note_on_c, 4, 39, 127
1, 430498, Note_off_c, 4, 38, 64
1, 430498, Note_off_c, 3, 63, 64
1, 430548, Note_on_c, 3, 63, 127
1, 430549, Note_on_c, 4, 36, 127
1, 430553, Note_off_c, 4, 39, 64
1, 430554, Note_off_c, 3, 67, 64
1, 430596, Note_off_c, 4, 48, 64
1, 430606, Note_on_c, 3, 62, 127
1, 430607, Note_on_c, 4, 43, 127
1, 430613, Note_off_c, 3, 63, 64
1, 430613, Note_off_c, 4, 36, 64
1, 430668, Note_on_c, 3, 65, 127
1, 430671, Note_off_c, 3, 62, 64
1, 430725, Note_on_c, 3, 67, 127
1, 430726, Note_on_c, 4, 31, 127
1, 430730, Note_off_c, 3, 65, 64
1, 430784, Note_on_c, 3, 65, 127
1, 430784, Note_on_c, 4, 33, 127
1, 430788, Note_off_c, 4, 31, 64
1, 430789, Note_off_c, 3, 67, 64
1, 430841, Note_on_c, 3, 67, 127
1, 430842, Note_on_c, 4, 35, 127
1, 430846, Note_off_c, 4, 33, 64
1, 430847, Note_off_c, 3, 65, 64
1, 430901, Note_on_c, 3, 65, 127
1, 430901, Note_on_c, 4, 31, 127
1, 430906, Note_off_c, 4, 35, 64
1, 430906, Note_off_c, 3, 67, 64
1, 430949, Note_off_c, 4, 43, 64
1, 430953, Note_off_c, 4, 31, 64
1, 430953, Note_off_c, 3, 65, 64
1, 430957, Note_on_c, 3, 63, 127
1, 430958, Note_on_c, 3, 60, 127
1, 430958, Note_on_c, 4, 36, 127
1, 431303, Note_off_c, 4, 36, 64
1, 431307, Note_off_c, 3, 60, 64
1, 431313, Note_off_c, 3, 63, 64
1, 431313, Note_on_c, 1, 79, 127
1, 431314, Note_on_c, 2, 75, 127
1, 431314, Note_on_c, 2, 72, 127
1, 431315, Note_on_c, 3, 67, 127
1, 431315, Note_on_c, 3, 60, 127
1, 431316, Note_on_c, 4, 51, 127
1, 431316, Note_on_c, 4, 48, 127
1, 431746, Note_off_c, 4, 48, 64
1, 431747, Note_off_c, 4, 51, 64
1, 431748, Note_off_c, 2, 72, 64
1, 431748, Note_off_c, 3, 60, 64
1, 431748, Note_off_c, 3, 67, 64
1, 431749, Note_off_c, 1, 79, 64
1, 431749, Note_off_c, 2, 75, 64
1, 431750, Note_on_c, 1, 84, 126
1, 431750, Note_on_c, 1, 79, 127
1, 431751, Note_on_c, 2, 75, 127
1, 431751, Note_on_c, 2, 72, 127
1, 431752, Note_on_c, 4, 43, 127
1, 431752, Note_on_c, 4, 48, 127
1, 431753, Note_on_c, 4, 39, 127
1, 431753, Note_on_c, 4, 36, 127
1, 434210, Note_off_c, 4, 48, 64
1, 436351, Note_off_c, 4, 43, 64
1, 437341, Note_off_c, 4, 36, 64
1, 437341, Note_off_c, 4, 39, 64
1, 437342, Note_off_c, 2, 72, 64
1, 437342, Note_off_c, 2, 75, 64
1, 437343, Note_off_c, 1, 79, 64
1, 437343, Note_off_c, 1, 84, 64
1, 437343, End_track
0, 0, End_of_file
