0, 0, Header, 1, 2, 500
1, 0, Start_track
1, 0, Title_t, "example"
1, 0, Tempo, 500000
1, 0, Time_signature, 4, 2, 24, 8
1, 0, End_track
2, 0, Start_track
2, 0, Title_t, "Instrument Track 01"
2, 0, Note_on_c, 0, 48, 100
2, 500, Note_off_c, 0, 48, 64
2, 500, Note_on_c, 0, 49, 100
2, 1000, Note_off_c, 0, 49, 64
2, 1000, Note_on_c, 0, 50, 100
2, 1500, Note_off_c, 0, 50, 64
2, 1500, Note_on_c, 0, 51, 100
2, 2000, Note_off_c, 0, 51, 64
2, 2000, Note_on_c, 0, 52, 100
2, 2500, Note_off_c, 0, 52, 64
2, 2500, Note_on_c, 0, 53, 100
2, 3000, Note_off_c, 0, 53, 64
2, 3000, Note_on_c, 0, 54, 100
2, 3500, Note_off_c, 0, 54, 64
2, 3500, Note_on_c, 0, 55, 100
2, 4000, Note_off_c, 0, 55, 64
2, 4000, Note_on_c, 0, 56, 100
2, 4500, Note_off_c, 0, 56, 64
2, 4500, Note_on_c, 0, 57, 100
2, 5000, Note_off_c, 0, 57, 64
2, 5000, Note_on_c, 0, 58, 100
2, 5500, Note_off_c, 0, 58, 64
2, 5500, Note_on_c, 0, 59, 100
2, 6000, Note_off_c, 0, 59, 64
2, 6000, Note_on_c, 0, 60, 100
2, 6500, Note_off_c, 0, 60, 64
2, 6500, Note_on_c, 0, 61, 100
2, 7000, Note_off_c, 0, 61, 64
2, 7000, Note_on_c, 0, 62, 100
2, 7500, Note_off_c, 0, 62, 64
2, 7500, Note_on_c, 0, 63, 100
2, 8000, Note_off_c, 0, 63, 64
2, 8000, Note_on_c, 0, 64, 100
2, 8500, Note_off_c, 0, 64, 64
2, 8500, Note_on_c, 0, 65, 100
2, 9000, Note_off_c, 0, 65, 64
2, 9000, Note_on_c, 0, 66, 100
2, 9500, Note_off_c, 0, 66, 64
2, 9500, Note_on_c, 0, 67, 100
2, 10000, Note_off_c, 0, 67, 64
2, 10000, Note_on_c, 0, 68, 100
2, 10500, Note_off_c, 0, 68, 64
2, 10500, Note_on_c, 0, 69, 100
2, 11000, Note_off_c, 0, 69, 64
2, 11000, Note_on_c, 0, 70, 100
2, 11500, Note_off_c, 0, 70, 64
2, 11500, Note_on_c, 0, 71, 100
2, 12000, Note_off_c, 0, 71, 64
2, 12000, Note_on_c, 0, 72, 100
2, 12500, Note_off_c, 0, 72, 64
2, 12500, Note_on_c, 0, 73, 100
2, 13000, Note_off_c, 0, 73, 64
2, 13000, Note_on_c, 0, 74, 100
2, 13500, Note_off_c, 0, 74, 64
2, 13500, Note_on_c, 0, 75, 100
2, 14000, Note_off_c, 0, 75, 64
2, 14000, Note_on_c, 0, 76, 100
2, 14500, Note_off_c, 0, 76, 64
2, 14500, Note_on_c, 0, 77, 100
2, 15000, Note_off_c, 0, 77, 64
2, 15000, Note_on_c, 0, 78, 100
2, 15500, Note_off_c, 0, 78, 64
2, 15500, Note_on_c, 0, 79, 100
2, 16000, Note_off_c, 0, 79, 64
2, 16000, Note_on_c, 0, 80, 100
2, 16500, Note_off_c, 0, 80, 64
2, 16500, Note_on_c, 0, 81, 100
2, 17000, Note_off_c, 0, 81, 64
2, 17000, Note_on_c, 0, 82, 100
2, 17500, Note_on_c, 0, 83, 100
2, 17500, Note_off_c, 0, 82, 64
2, 18000, Note_on_c, 0, 84, 100
2, 18000, Note_off_c, 0, 83, 64
2, 18500, Note_off_c, 0, 84, 64
2, 18500, End_track
0, 0, End_of_file
