0, 0, Header, 1, 8, 120
1, 0, Start_track
1, 0, MIDI_port, 0
1, 0, System_exclusive, 5, 126, 127, 9, 1, 247
1, 0, MIDI_port, 0
1, 0, Time_signature, 3, 2, 24, 8
1, 0, Key_signature, 1, "major"
1, 0, Tempo, 545455
1, 360, Marker_t, "1st Mov't. ""Allegro"""
1, 65887, Tempo, 545455
1, 65910, Tempo, 550459
1, 65934, Tempo, 555556
1, 65958, Tempo, 560748
1, 65982, Tempo, 566038
1, 66005, Tempo, 571429
1, 66029, Tempo, 576923
1, 66053, Tempo, 582524
1, 66077, Tempo, 588235
1, 66100, Tempo, 594059
1, 66124, Tempo, 600000
1, 66148, Tempo, 606061
1, 66172, Tempo, 612245
1, 66195, Tempo, 618557
1, 66219, Tempo, 625000
1, 66243, Tempo, 631579
1, 66267, Tempo, 638298
1, 66291, Tempo, 645161
1, 66314, Tempo, 652174
1, 66338, Tempo, 659341
1, 66362, Tempo, 666667
1, 66386, Tempo, 674157
1, 66409, Tempo, 681818
1, 66433, Tempo, 689655
1, 66457, Tempo, 697674
1, 66481, Tempo, 705882
1, 66504, Tempo, 714286
1, 66528, Tempo, 722892
1, 66552, Tempo, 731707
1, 66576, Tempo, 740741
1, 66600, Tempo, 750000
1, 66601, Tempo, 545455
1, 75240, Time_signature, 2, 2, 24, 8
1, 75240, Tempo, 789474
1, 75240, Marker_t, "2nd Mov't. ""Andante"""
1, 91560, Tempo, 789474
1, 91608, Tempo, 800000
1, 91656, Tempo, 810811
1, 91704, Tempo, 821918
1, 91752, Tempo, 833333
1, 91800, Tempo, 845070
1, 91848, Tempo, 857143
1, 91896, Tempo, 869565
1, 91944, Tempo, 882353
1, 91992, Tempo, 895522
1, 92040, Tempo, 909091
1, 92041, Tempo, 789474
1, 92070, Tempo, 6000000
1, 92100, Tempo, 789474
1, 100921, Tempo, 789474
1, 100944, Tempo, 800000
1, 100968, Tempo, 810811
1, 100992, Tempo, 821918
1, 101016, Tempo, 833333
1, 101040, Tempo, 845070
1, 101064, Tempo, 857143
1, 101088, Tempo, 869565
1, 101112, Tempo, 882353
1, 101136, Tempo, 895522
1, 101160, Tempo, 909091
1, 101161, Tempo, 789474
1, 101340, Tempo, 789474
1, 101355, Tempo, 800000
1, 101370, Tempo, 810811
1, 101385, Tempo, 821918
1, 101400, Tempo, 833333
1, 101415, Tempo, 845070
1, 101430, Tempo, 857143
1, 101445, Tempo, 869565
1, 101460, Tempo, 882353
1, 101475, Tempo, 895522
1, 101491, Tempo, 909091
1, 101506, Tempo, 923077
1, 101521, Tempo, 937500
1, 101536, Tempo, 952381
1, 101551, Tempo, 967742
1, 101566, Tempo, 983607
1, 101581, Tempo, 1000000
1, 101596, Tempo, 1016949
1, 101611, Tempo, 1034483
1, 101626, Tempo, 1052632
1, 101639, Tempo, 1071429
1, 101652, Tempo, 1090909
1, 101665, Tempo, 1111111
1, 101679, Tempo, 1132075
1, 101692, Tempo, 1153846
1, 101705, Tempo, 1176471
1, 101719, Tempo, 1200000
1, 101732, Tempo, 1224490
1, 101745, Tempo, 1250000
1, 101759, Tempo, 1276596
1, 101772, Tempo, 1304348
1, 101785, Tempo, 1333333
1, 101799, Tempo, 1363636
1, 101812, Tempo, 1395349
1, 101826, Tempo, 1428571
1, 101839, Tempo, 1463415
1, 101852, Tempo, 1500000
1, 101866, Tempo, 1538462
1, 101879, Tempo, 1578947
1, 101892, Tempo, 1621622
1, 101906, Tempo, 1666667
1, 101919, Tempo, 1714286
1, 101932, Tempo, 1764706
1, 101946, Tempo, 1818182
1, 101959, Tempo, 1875000
1, 101973, Tempo, 1935484
1, 101986, Tempo, 2000000
1, 101999, Tempo, 2068966
1, 102013, Tempo, 2142857
1, 102026, Tempo, 2222222
1, 102039, Tempo, 2307692
1, 102053, Tempo, 2400000
1, 102066, Tempo, 2500000
1, 102079, Tempo, 2608696
1, 102093, Tempo, 2727273
1, 102106, Tempo, 2857143
1, 102120, Key_signature, 0, "major"
1, 102120, Tempo, 3000000
1, 102121, Tempo, 789474
1, 111540, Tempo, 3000000
1, 111600, Tempo, 1500000
1, 111610, Tempo, 1463415
1, 111620, Tempo, 1428571
1, 111630, Tempo, 1395349
1, 111640, Tempo, 1363636
1, 111650, Tempo, 1333333
1, 111660, Tempo, 1304348
1, 111670, Tempo, 1276596
1, 111680, Tempo, 1250000
1, 111690, Tempo, 1224490
1, 111700, Tempo, 1200000
1, 111710, Tempo, 1176471
1, 111720, Tempo, 1153846
1, 111730, Tempo, 1132075
1, 111740, Tempo, 1111111
1, 111750, Tempo, 1090909
1, 111760, Tempo, 1071429
1, 111770, Tempo, 1052632
1, 111780, Tempo, 1034483
1, 111790, Tempo, 1016949
1, 111800, Tempo, 1000000
1, 111810, Tempo, 983607
1, 111820, Tempo, 967742
1, 111830, Tempo, 952381
1, 111840, Tempo, 937500
1, 111850, Tempo, 923077
1, 111860, Tempo, 909091
1, 111870, Tempo, 895522
1, 111880, Tempo, 882353
1, 111890, Tempo, 869565
1, 111900, Tempo, 857143
1, 111910, Tempo, 789474
1, 123480, Tempo, 789474
1, 123504, Tempo, 800000
1, 123528, Tempo, 810811
1, 123552, Tempo, 821918
1, 123576, Tempo, 833333
1, 123600, Tempo, 845070
1, 123624, Tempo, 857143
1, 123648, Tempo, 869565
1, 123672, Tempo, 882353
1, 123696, Tempo, 895522
1, 123721, Tempo, 909091
1, 123722, Tempo, 845070
1, 123780, Tempo, 3000000
1, 123840, Tempo, 3000000
1, 123846, Tempo, 2857143
1, 123852, Tempo, 2727273
1, 123859, Tempo, 2608696
1, 123865, Tempo, 2500000
1, 123872, Tempo, 2400000
1, 123878, Tempo, 2307692
1, 123885, Tempo, 2222222
1, 123891, Tempo, 2142857
1, 123897, Tempo, 2068966
1, 123904, Tempo, 2000000
1, 123910, Tempo, 1935484
1, 123917, Tempo, 1875000
1, 123923, Tempo, 1818182
1, 123930, Tempo, 1764706
1, 123936, Tempo, 1714286
1, 123942, Tempo, 1666667
1, 123949, Tempo, 1621622
1, 123955, Tempo, 1578947
1, 123962, Tempo, 1538462
1, 123968, Tempo, 1500000
1, 123975, Tempo, 1463415
1, 123981, Tempo, 1428571
1, 123987, Tempo, 1395349
1, 123994, Tempo, 1363636
1, 124000, Tempo, 1333333
1, 124007, Tempo, 1304348
1, 124013, Tempo, 1276596
1, 124020, Tempo, 1250000
1, 124026, Tempo, 1224490
1, 124032, Tempo, 1200000
1, 124039, Tempo, 1176471
1, 124045, Tempo, 1153846
1, 124052, Tempo, 1132075
1, 124058, Tempo, 1111111
1, 124065, Tempo, 1090909
1, 124071, Tempo, 1071429
1, 124077, Tempo, 1052632
1, 124084, Tempo, 1034483
1, 124090, Tempo, 1016949
1, 124097, Tempo, 1000000
1, 124103, Tempo, 983607
1, 124110, Tempo, 967742
1, 124116, Tempo, 952381
1, 124122, Tempo, 937500
1, 124129, Tempo, 923077
1, 124135, Tempo, 909091
1, 124142, Tempo, 895522
1, 124148, Tempo, 882353
1, 124155, Tempo, 789474
1, 128040, Key_signature, 1, "major"
1, 128040, Marker_t, "3rd Mov't. ""Poco Allegretto"""
1, 128220, Tempo, 705882
1, 133980, Tempo, 705882
1, 134049, Tempo, 714286
1, 134118, Tempo, 722892
1, 134187, Tempo, 731707
1, 134256, Tempo, 740741
1, 134325, Tempo, 750000
1, 134394, Tempo, 759494
1, 134463, Tempo, 769231
1, 134532, Tempo, 779221
1, 134601, Tempo, 789474
1, 134670, Tempo, 800000
1, 134739, Tempo, 810811
1, 134808, Tempo, 821918
1, 134877, Tempo, 833333
1, 134946, Tempo, 845070
1, 135015, Tempo, 857143
1, 135084, Tempo, 869565
1, 135153, Tempo, 882353
1, 135222, Tempo, 895522
1, 135291, Tempo, 909091
1, 135360, Tempo, 923077
1, 135361, Tempo, 705882
1, 135361, End_track
2, 0, Start_track
2, 0, MIDI_port, 0
2, 0, Title_t, "Primo"
2, 0, Program_c, 0, 0
2, 0, Control_c, 0, 121, 0
2, 0, Control_c, 0, 7, 127
2, 0, Control_c, 0, 10, 84
2, 0, Control_c, 0, 91, 101
2, 360, Note_on_c, 0, 79, 93
2, 360, Note_on_c, 0, 67, 93
2, 373, Note_on_c, 0, 67, 0
2, 373, Note_on_c, 0, 79, 0
2, 480, Note_on_c, 0, 83, 98
2, 480, Note_on_c, 0, 71, 93
2, 493, Note_on_c, 0, 83, 0
2, 494, Note_on_c, 0, 71, 0
2, 600, Note_on_c, 0, 75, 93
2, 600, Note_on_c, 0, 63, 85
2, 614, Note_on_c, 0, 63, 0
2, 616, Note_on_c, 0, 75, 0
2, 720, Note_on_c, 0, 76, 98
2, 720, Note_on_c, 0, 64, 98
2, 734, Note_on_c, 0, 64, 0
2, 736, Note_on_c, 0, 76, 0
2, 840, Note_on_c, 0, 84, 93
2, 840, Note_on_c, 0, 72, 93
2, 854, Note_on_c, 0, 72, 0
2, 855, Note_on_c, 0, 84, 0
2, 1050, Note_on_c, 0, 69, 93
2, 1050, Note_on_c, 0, 81, 93
2, 1060, Note_on_c, 0, 81, 0
2, 1060, Note_on_c, 0, 69, 0
2, 1080, Note_on_c, 0, 78, 98
2, 1080, Note_on_c, 0, 66, 89
2, 1093, Note_on_c, 0, 66, 0
2, 1099, Note_on_c, 0, 78, 0
2, 1200, Note_on_c, 0, 86, 102
2, 1200, Note_on_c, 0, 74, 93
2, 1212, Note_on_c, 0, 74, 0
2, 1212, Note_on_c, 0, 86, 0
2, 1410, Note_on_c, 0, 72, 76
2, 1410, Note_on_c, 0, 84, 80
2, 1439, Note_on_c, 0, 72, 0
2, 1440, Note_on_c, 0, 71, 76
2, 1440, Note_on_c, 0, 83, 89
2, 1441, Note_on_c, 0, 84, 0
2, 1468, Note_on_c, 0, 83, 0
2, 1470, Note_on_c, 0, 72, 80
2, 1470, Note_on_c, 0, 84, 76
2, 1474, Note_on_c, 0, 71, 0
2, 1499, Note_on_c, 0, 84, 0
2, 1500, Note_on_c, 0, 74, 76
2, 1500, Note_on_c, 0, 86, 76
2, 1501, Note_on_c, 0, 72, 0
2, 1525, Note_on_c, 0, 86, 0
2, 1530, Note_on_c, 0, 71, 76
2, 1530, Note_on_c, 0, 83, 76
2, 1531, Note_on_c, 0, 74, 0
2, 1558, Note_on_c, 0, 83, 0
2, 1560, Note_on_c, 0, 71, 0
2, 1560, Note_on_c, 0, 79, 80
2, 1560, Note_on_c, 0, 67, 85
2, 1574, Control_c, 0, 64, 127
2, 1582, Note_on_c, 0, 67, 0
2, 1593, Note_on_c, 0, 79, 0
2, 1619, Control_c, 0, 64, 0
2, 1620, Note_on_c, 0, 64, 72
2, 1620, Note_on_c, 0, 84, 72
2, 1620, Note_on_c, 0, 67, 68
2, 1620, Note_on_c, 0, 72, 76
2, 1655, Control_c, 0, 64, 127
2, 1666, Note_on_c, 0, 67, 0
2, 1669, Note_on_c, 0, 72, 0
2, 1670, Note_on_c, 0, 64, 0
2, 1672, Note_on_c, 0, 84, 0
2, 1680, Note_on_c, 0, 72, 76
2, 1680, Note_on_c, 0, 84, 89
2, 1680, Note_on_c, 0, 64, 80
2, 1680, Note_on_c, 0, 67, 76
2, 1712, Note_on_c, 0, 67, 0
2, 1716, Note_on_c, 0, 64, 0
2, 1717, Note_on_c, 0, 72, 0
2, 1721, Note_on_c, 0, 84, 0
2, 1740, Note_on_c, 0, 84, 93
2, 1740, Note_on_c, 0, 72, 102
2, 1740, Note_on_c, 0, 64, 76
2, 1740, Note_on_c, 0, 67, 89
2, 1770, Note_on_c, 0, 67, 0
2, 1774, Note_on_c, 0, 64, 0
2, 1777, Note_on_c, 0, 72, 0
2, 1778, Note_on_c, 0, 84, 0
2, 1800, Note_on_c, 0, 84, 89
2, 1800, Note_on_c, 0, 72, 80
2, 1800, Note_on_c, 0, 64, 80
2, 1800, Note_on_c, 0, 67, 89
2, 1805, Control_c, 0, 64, 0
2, 1833, Control_c, 0, 64, 127
2, 1918, Note_on_c, 0, 84, 0
2, 1925, Note_on_c, 0, 72, 0
2, 1925, Note_on_c, 0, 64, 0
2, 1928, Note_on_c, 0, 67, 0
2, 1974, Control_c, 0, 64, 0
2, 1980, Note_on_c, 0, 83, 80
2, 1980, Note_on_c, 0, 71, 68
2, 1980, Note_on_c, 0, 62, 62
2, 1980, Note_on_c, 0, 66, 62
2, 1989, Control_c, 0, 64, 127
2, 2006, Note_on_c, 0, 83, 0
2, 2011, Note_on_c, 0, 66, 0
2, 2011, Note_on_c, 0, 62, 0
2, 2012, Note_on_c, 0, 71, 0
2, 2035, Control_c, 0, 64, 0
2, 2040, Note_on_c, 0, 81, 68
2, 2040, Note_on_c, 0, 69, 64
2, 2040, Note_on_c, 0, 64, 72
2, 2040, Note_on_c, 0, 60, 62
2, 2050, Control_c, 0, 64, 127
2, 2058, Note_on_c, 0, 64, 0
2, 2059, Note_on_c, 0, 60, 0
2, 2064, Note_on_c, 0, 81, 0
2, 2070, Note_on_c, 0, 69, 0
2, 2096, Control_c, 0, 64, 0
2, 2100, Note_on_c, 0, 79, 64
2, 2100, Note_on_c, 0, 67, 72
2, 2100, Note_on_c, 0, 59, 85
2, 2100, Note_on_c, 0, 62, 47
2, 2113, Control_c, 0, 64, 127
2, 2117, Note_on_c, 0, 62, 0
2, 2121, Note_on_c, 0, 67, 0
2, 2122, Note_on_c, 0, 59, 0
2, 2125, Note_on_c, 0, 79, 0
2, 2160, Note_on_c, 0, 83, 93
2, 2160, Note_on_c, 0, 60, 76
2, 2160, Note_on_c, 0, 71, 93
2, 2160, Note_on_c, 0, 62, 76
2, 2162, Control_c, 0, 64, 0
2, 2188, Control_c, 0, 64, 127
2, 2193, Note_on_c, 0, 83, 0
2, 2195, Note_on_c, 0, 71, 0
2, 2220, Note_on_c, 0, 81, 62
2, 2220, Note_on_c, 0, 69, 72
2, 2242, Note_on_c, 0, 81, 0
2, 2242, Note_on_c, 0, 62, 0
2, 2243, Note_on_c, 0, 60, 0
2, 2243, Note_on_c, 0, 69, 0
2, 2278, Control_c, 0, 64, 0
2, 2280, Note_on_c, 0, 59, 68
2, 2280, Note_on_c, 0, 67, 62
2, 2280, Note_on_c, 0, 79, 64
2, 2280, Note_on_c, 0, 62, 50
2, 2295, Control_c, 0, 64, 127
2, 2298, Note_on_c, 0, 67, 0
2, 2301, Note_on_c, 0, 59, 0
2, 2301, Note_on_c, 0, 62, 0
2, 2304, Note_on_c, 0, 79, 0
2, 2335, Control_c, 0, 64, 0
2, 2340, Note_on_c, 0, 72, 93
2, 2340, Note_on_c, 0, 84, 98
2, 2340, Note_on_c, 0, 64, 76
2, 2340, Note_on_c, 0, 67, 80
2, 2361, Control_c, 0, 64, 127
2, 2373, Note_on_c, 0, 67, 0
2, 2377, Note_on_c, 0, 72, 0
2, 2378, Note_on_c, 0, 64, 0
2, 2379, Note_on_c, 0, 84, 0
2, 2400, Note_on_c, 0, 72, 89
2, 2400, Note_on_c, 0, 64, 68
2, 2400, Note_on_c, 0, 84, 107
2, 2400, Note_on_c, 0, 67, 76
2, 2429, Note_on_c, 0, 67, 0
2, 2433, Note_on_c, 0, 64, 0
2, 2434, Note_on_c, 0, 72, 0
2, 2435, Note_on_c, 0, 84, 0
2, 2460, Note_on_c, 0, 84, 93
2, 2460, Note_on_c, 0, 72, 89
2, 2460, Note_on_c, 0, 64, 64
2, 2460, Note_on_c, 0, 67, 89
2, 2485, Note_on_c, 0, 64, 0
2, 2486, Note_on_c, 0, 67, 0
2, 2491, Note_on_c, 0, 72, 0
2, 2493, Note_on_c, 0, 84, 0
2, 2520, Note_on_c, 0, 64, 76
2, 2520, Note_on_c, 0, 72, 89
2, 2520, Note_on_c, 0, 67, 80
2, 2520, Note_on_c, 0, 84, 107
2, 2528, Control_c, 0, 64, 0
2, 2551, Control_c, 0, 64, 127
2, 2626, Note_on_c, 0, 84, 0
2, 2632, Note_on_c, 0, 72, 0
2, 2635, Note_on_c, 0, 67, 0
2, 2636, Note_on_c, 0, 64, 0
2, 2692, Control_c, 0, 64, 0
2, 2700, Note_on_c, 0, 83, 80
2, 2700, Note_on_c, 0, 71, 76
2, 2700, Note_on_c, 0, 62, 72
2, 2700, Note_on_c, 0, 66, 62
2, 2707, Control_c, 0, 64, 127
2, 2722, Note_on_c, 0, 62, 0
2, 2723, Note_on_c, 0, 66, 0
2, 2723, Note_on_c, 0, 83, 0
2, 2728, Note_on_c, 0, 71, 0
2, 2757, Control_c, 0, 64, 0
2, 2760, Note_on_c, 0, 81, 68
2, 2760, Note_on_c, 0, 60, 64
2, 2760, Note_on_c, 0, 64, 76
2, 2760, Note_on_c, 0, 69, 62
2, 2771, Control_c, 0, 64, 127
2, 2787, Note_on_c, 0, 81, 0
2, 2791, Note_on_c, 0, 69, 0
2, 2792, Note_on_c, 0, 60, 0
2, 2793, Note_on_c, 0, 64, 0
2, 2816, Control_c, 0, 64, 0
2, 2820, Note_on_c, 0, 67, 59
2, 2820, Note_on_c, 0, 79, 62
2, 2820, Note_on_c, 0, 59, 72
2, 2820, Note_on_c, 0, 62, 62
2, 2832, Control_c, 0, 64, 127
2, 2839, Note_on_c, 0, 67, 0
2, 2841, Note_on_c, 0, 62, 0
2, 2842, Note_on_c, 0, 79, 0
2, 2845, Note_on_c, 0, 59, 0
2, 2878, Control_c, 0, 64, 0
2, 2880, Note_on_c, 0, 60, 76
2, 2880, Note_on_c, 0, 62, 68
2, 2880, Note_on_c, 0, 83, 93
2, 2880, Note_on_c, 0, 71, 76
2, 2896, Control_c, 0, 64, 127
2, 2913, Note_on_c, 0, 83, 0
2, 2914, Note_on_c, 0, 71, 0
2, 2940, Note_on_c, 0, 81, 72
2, 2940, Note_on_c, 0, 69, 68
2, 2958, Note_on_c, 0, 81, 0
2, 2961, Note_on_c, 0, 69, 0
2, 2964, Note_on_c, 0, 60, 0
2, 2966, Note_on_c, 0, 62, 0
2, 2996, Control_c, 0, 64, 0
2, 3000, Note_on_c, 0, 59, 57
2, 3000, Note_on_c, 0, 67, 64
2, 3000, Note_on_c, 0, 79, 62
2, 3000, Note_on_c, 0, 62, 55
2, 3010, Control_c, 0, 64, 127
2, 3023, Note_on_c, 0, 67, 0
2, 3027, Note_on_c, 0, 79, 0
2, 3031, Note_on_c, 0, 59, 0
2, 3031, Note_on_c, 0, 62, 0
2, 3060, Note_on_c, 0, 79, 76
2, 3064, Control_c, 0, 64, 0
2, 3102, Control_c, 0, 64, 127
2, 3120, Note_on_c, 0, 81, 76
2, 3121, Control_c, 0, 64, 0
2, 3122, Note_on_c, 0, 79, 0
2, 3176, Note_on_c, 0, 81, 0
2, 3180, Note_on_c, 0, 83, 76
2, 3194, Control_c, 0, 64, 127
2, 3239, Control_c, 0, 64, 0
2, 3240, Note_on_c, 0, 83, 0
2, 3240, Note_on_c, 0, 75, 68
2, 3300, Note_on_c, 0, 60, 64
2, 3326, Control_c, 0, 64, 127
2, 3356, Control_c, 0, 64, 0
2, 3360, Note_on_c, 0, 67, 76
2, 3382, Control_c, 0, 64, 127
2, 3420, Note_on_c, 0, 76, 85
2, 3424, Control_c, 0, 64, 0
2, 3426, Note_on_c, 0, 75, 0
2, 3480, Note_on_c, 0, 78, 68
2, 3487, Note_on_c, 0, 76, 0
2, 3533, Note_on_c, 0, 78, 0
2, 3536, Control_c, 0, 64, 127
2, 3540, Note_on_c, 0, 79, 76
2, 3554, Note_on_c, 0, 79, 0
2, 3580, Note_on_c, 0, 67, 0
2, 3583, Note_on_c, 0, 60, 0
2, 3600, Note_on_c, 0, 68, 72
2, 3601, Control_c, 0, 64, 0
2, 3660, Note_on_c, 0, 60, 64
2, 3674, Control_c, 0, 64, 127
2, 3720, Note_on_c, 0, 62, 60
2, 3720, Note_on_c, 0, 66, 60
2, 3722, Note_on_c, 0, 68, 0
2, 3726, Control_c, 0, 64, 0
2, 3780, Note_on_c, 0, 69, 76
2, 3840, Note_on_c, 0, 71, 80
2, 3844, Note_on_c, 0, 69, 0
2, 3875, Control_c, 0, 64, 127
2, 3899, Note_on_c, 0, 71, 0
2, 3900, Note_on_c, 0, 72, 76
2, 3913, Note_on_c, 0, 72, 0
2, 3917, Note_on_c, 0, 62, 0
2, 3919, Note_on_c, 0, 66, 0
2, 3921, Note_on_c, 0, 60, 0
2, 3960, Note_on_c, 0, 74, 80
2, 3960, Note_on_c, 0, 59, 72
2, 3960, Note_on_c, 0, 67, 55
2, 3960, Control_c, 0, 64, 0
2, 3981, Control_c, 0, 64, 127
2, 4020, Note_on_c, 0, 74, 0
2, 4020, Note_on_c, 0, 79, 64
2, 4022, Note_on_c, 0, 59, 0
2, 4025, Note_on_c, 0, 67, 0
2, 4025, Control_c, 0, 64, 0
2, 4080, Note_on_c, 0, 76, 85
2, 4080, Note_on_c, 0, 60, 52
2, 4080, Note_on_c, 0, 72, 60
2, 4081, Note_on_c, 0, 79, 0
2, 4125, Control_c, 0, 64, 127
2, 4134, Control_c, 0, 64, 0
2, 4140, Note_on_c, 0, 72, 0
2, 4140, Note_on_c, 0, 81, 72
2, 4141, Note_on_c, 0, 60, 0
2, 4143, Note_on_c, 0, 76, 0
2, 4167, Control_c, 0, 64, 127
2, 4192, Control_c, 0, 64, 0
2, 4198, Note_on_c, 0, 81, 0
2, 4200, Note_on_c, 0, 78, 80
2, 4200, Note_on_c, 0, 62, 80
2, 4200, Note_on_c, 0, 69, 76
2, 4242, Control_c, 0, 64, 127
2, 4260, Note_on_c, 0, 86, 93
2, 4263, Note_on_c, 0, 78, 0
2, 4268, Note_on_c, 0, 69, 0
2, 4269, Note_on_c, 0, 62, 0
2, 4316, Note_on_c, 0, 86, 0
2, 4320, Note_on_c, 0, 78, 80
2, 4320, Control_c, 0, 64, 0
2, 4320, Note_on_c, 0, 75, 76
2, 4320, Note_on_c, 0, 84, 89
2, 4375, Control_c, 0, 64, 127
2, 4440, Note_on_c, 0, 79, 57
2, 4440, Note_on_c, 0, 83, 85
2, 4440, Note_on_c, 0, 76, 55
2, 4443, Note_on_c, 0, 78, 0
2, 4446, Note_on_c, 0, 75, 0
2, 4446, Control_c, 0, 64, 0
2, 4447, Note_on_c, 0, 84, 0
2, 4481, Control_c, 0, 64, 127
2, 4557, Note_on_c, 0, 83, 0
2, 4559, Note_on_c, 0, 76, 0
2, 4559, Note_on_c, 0, 79, 0
2, 4560, Control_c, 0, 64, 0
2, 5220, Note_on_c, 0, 74, 98
2, 5280, Note_on_c, 0, 86, 93
2, 5282, Note_on_c, 0, 74, 0
2, 5330, Note_on_c, 0, 86, 0
2, 5340, Note_on_c, 0, 86, 93
2, 5353, Note_on_c, 0, 86, 0
2, 5400, Note_on_c, 0, 85, 93
2, 5400, Note_on_c, 0, 67, 76
2, 5429, Note_on_c, 0, 85, 0
2, 5430, Note_on_c, 0, 86, 80
2, 5458, Note_on_c, 0, 86, 0
2, 5460, Note_on_c, 0, 83, 76
2, 5488, Note_on_c, 0, 83, 0
2, 5490, Note_on_c, 0, 79, 76
2, 5519, Note_on_c, 0, 79, 0
2, 5520, Note_on_c, 0, 78, 76
2, 5520, Note_on_c, 0, 69, 72
2, 5521, Note_on_c, 0, 67, 0
2, 5645, Note_on_c, 0, 78, 0
2, 5758, Note_on_c, 0, 69, 0
2, 5760, Note_on_c, 0, 67, 72
2, 5764, Note_on_c, 0, 85, 89
2, 5775, Control_c, 0, 64, 127
2, 5790, Note_on_c, 0, 86, 89
2, 5792, Note_on_c, 0, 85, 0
2, 5807, Control_c, 0, 64, 0
2, 5818, Note_on_c, 0, 86, 0
2, 5820, Note_on_c, 0, 83, 80
2, 5850, Note_on_c, 0, 79, 76
2, 5851, Note_on_c, 0, 83, 0
2, 5853, Control_c, 0, 64, 127
2, 5875, Control_c, 0, 64, 0
2, 5878, Note_on_c, 0, 79, 0
2, 5879, Note_on_c, 0, 69, 76
2, 5883, Note_on_c, 0, 78, 76
2, 5885, Note_on_c, 0, 67, 0
2, 6000, Note_on_c, 0, 78, 0
2, 6075, Note_on_c, 0, 69, 0
2, 6120, Note_on_c, 0, 86, 68
2, 6120, Note_on_c, 0, 74, 57
2, 6138, Control_c, 0, 64, 127
2, 6172, Note_on_c, 0, 74, 0
2, 6172, Note_on_c, 0, 86, 0
2, 6176, Control_c, 0, 64, 0
2, 6240, Note_on_c, 0, 88, 78
2, 6240, Note_on_c, 0, 76, 78
2, 6253, Control_c, 0, 64, 127
2, 6288, Note_on_c, 0, 88, 0
2, 6292, Note_on_c, 0, 76, 0
2, 6312, Control_c, 0, 64, 0
2, 6360, Note_on_c, 0, 78, 89
2, 6364, Note_on_c, 0, 66, 89
2, 6379, Control_c, 0, 64, 127
2, 6412, Note_on_c, 0, 78, 0
2, 6415, Note_on_c, 0, 66, 0
2, 6430, Control_c, 0, 64, 0
2, 6480, Note_on_c, 0, 67, 100
2, 6480, Note_on_c, 0, 79, 100
2, 6496, Note_on_c, 0, 79, 0
2, 6499, Note_on_c, 0, 67, 0
2, 6600, Note_on_c, 0, 83, 98
2, 6600, Note_on_c, 0, 71, 98
2, 6615, Note_on_c, 0, 83, 0
2, 6617, Note_on_c, 0, 71, 0
2, 6720, Note_on_c, 0, 63, 89
2, 6720, Note_on_c, 0, 75, 102
2, 6733, Note_on_c, 0, 75, 0
2, 6741, Note_on_c, 0, 63, 0
2, 6840, Note_on_c, 0, 64, 93
2, 6840, Note_on_c, 0, 76, 107
2, 6855, Note_on_c, 0, 76, 0
2, 6859, Note_on_c, 0, 64, 0
2, 6960, Note_on_c, 0, 84, 93
2, 6960, Note_on_c, 0, 72, 98
2, 6975, Note_on_c, 0, 84, 0
2, 6977, Note_on_c, 0, 72, 0
2, 7170, Note_on_c, 0, 81, 85
2, 7170, Note_on_c, 0, 69, 93
2, 7183, Note_on_c, 0, 81, 0
2, 7187, Note_on_c, 0, 69, 0
2, 7201, Note_on_c, 0, 66, 89
2, 7204, Note_on_c, 0, 78, 107
2, 7223, Note_on_c, 0, 66, 0
2, 7224, Note_on_c, 0, 78, 0
2, 7324, Note_on_c, 0, 74, 93
2, 7324, Note_on_c, 0, 86, 107
2, 7344, Note_on_c, 0, 74, 0
2, 7346, Note_on_c, 0, 86, 0
2, 7530, Note_on_c, 0, 71, 85
2, 7530, Note_on_c, 0, 83, 89
2, 7545, Note_on_c, 0, 83, 0
2, 7547, Note_on_c, 0, 71, 0
2, 7560, Note_on_c, 0, 68, 89
2, 7560, Note_on_c, 0, 80, 107
2, 7576, Note_on_c, 0, 80, 0
2, 7576, Note_on_c, 0, 68, 0
2, 7680, Note_on_c, 0, 88, 107
2, 7680, Note_on_c, 0, 76, 89
2, 7696, Note_on_c, 0, 88, 0
2, 7703, Note_on_c, 0, 76, 0
2, 7920, Note_on_c, 0, 69, 55
2, 7920, Note_on_c, 0, 72, 60
2, 7920, Note_on_c, 0, 76, 93
2, 7932, Note_on_c, 0, 76, 0
2, 7979, Note_on_c, 0, 72, 0
2, 7980, Note_on_c, 0, 69, 0
2, 7980, Note_on_c, 0, 64, 72
2, 8040, Note_on_c, 0, 88, 93
2, 8040, Note_on_c, 0, 72, 62
2, 8040, Note_on_c, 0, 69, 62
2, 8043, Note_on_c, 0, 64, 0
2, 8051, Note_on_c, 0, 88, 0
2, 8098, Note_on_c, 0, 69, 0
2, 8100, Note_on_c, 0, 64, 64
2, 8138, Note_on_c, 0, 64, 0
2, 8153, Note_on_c, 0, 72, 0
2, 8160, Note_on_c, 0, 69, 76
2, 8160, Note_on_c, 0, 72, 68
2, 8160, Note_on_c, 0, 81, 89
2, 8175, Note_on_c, 0, 81, 0
2, 8220, Note_on_c, 0, 64, 62
2, 8223, Note_on_c, 0, 69, 0
2, 8279, Note_on_c, 0, 64, 0
2, 8280, Note_on_c, 0, 68, 62
2, 8280, Note_on_c, 0, 71, 64
2, 8280, Note_on_c, 0, 89, 89
2, 8281, Note_on_c, 0, 72, 0
2, 8290, Note_on_c, 0, 89, 0
2, 8400, Note_on_c, 0, 80, 93
2, 8411, Note_on_c, 0, 80, 0
2, 8608, Note_on_c, 0, 68, 0
2, 8609, Note_on_c, 0, 71, 0
2, 8640, Note_on_c, 0, 72, 60
2, 8640, Note_on_c, 0, 69, 47
2, 8640, Note_on_c, 0, 76, 76
2, 8651, Note_on_c, 0, 76, 0
2, 8700, Note_on_c, 0, 64, 76
2, 8706, Note_on_c, 0, 69, 0
2, 8743, Note_on_c, 0, 64, 0
2, 8745, Note_on_c, 0, 72, 0
2, 8760, Note_on_c, 0, 69, 56
2, 8760, Note_on_c, 0, 72, 49
2, 8760, Note_on_c, 0, 88, 89
2, 8776, Note_on_c, 0, 88, 0
2, 8820, Note_on_c, 0, 64, 62
2, 8823, Note_on_c, 0, 69, 0
2, 8863, Note_on_c, 0, 72, 0
2, 8866, Note_on_c, 0, 64, 0
2, 8880, Note_on_c, 0, 69, 56
2, 8880, Note_on_c, 0, 72, 62
2, 8880, Note_on_c, 0, 81, 89
2, 8890, Note_on_c, 0, 81, 0
2, 8939, Note_on_c, 0, 69, 0
2, 8940, Note_on_c, 0, 64, 76
2, 8991, Note_on_c, 0, 64, 0
2, 8992, Note_on_c, 0, 72, 0
2, 9000, Note_on_c, 0, 68, 72
2, 9000, Note_on_c, 0, 71, 76
2, 9000, Note_on_c, 0, 89, 85
2, 9011, Note_on_c, 0, 89, 0
2, 9120, Note_on_c, 0, 80, 76
2, 9132, Note_on_c, 0, 80, 0
2, 9327, Note_on_c, 0, 68, 0
2, 9330, Note_on_c, 0, 71, 0
2, 9360, Note_on_c, 0, 72, 62
2, 9360, Note_on_c, 0, 69, 53
2, 9383, Control_c, 0, 64, 127
2, 9420, Note_on_c, 0, 81, 85
2, 9421, Control_c, 0, 64, 0
2, 9436, Control_c, 0, 64, 127
2, 9450, Note_on_c, 0, 80, 72
2, 9453, Note_on_c, 0, 81, 0
2, 9473, Note_on_c, 0, 69, 0
2, 9474, Note_on_c, 0, 72, 0
2, 9478, Note_on_c, 0, 80, 0
2, 9480, Note_on_c, 0, 83, 93
2, 9482, Control_c, 0, 64, 0
2, 9509, Note_on_c, 0, 83, 0
2, 9510, Note_on_c, 0, 81, 64
2, 9540, Note_on_c, 0, 84, 76
2, 9542, Note_on_c, 0, 81, 0
2, 9570, Note_on_c, 0, 83, 80
2, 9572, Note_on_c, 0, 84, 0
2, 9600, Note_on_c, 0, 86, 80
2, 9603, Note_on_c, 0, 83, 0
2, 9630, Note_on_c, 0, 84, 80
2, 9632, Note_on_c, 0, 86, 0
2, 9652, Control_c, 0, 64, 127
2, 9660, Note_on_c, 0, 88, 89
2, 9661, Note_on_c, 0, 84, 0
2, 9690, Note_on_c, 0, 88, 0
2, 9690, Note_on_c, 0, 86, 62
2, 9720, Note_on_c, 0, 84, 76
2, 9720, Note_on_c, 0, 62, 60
2, 9720, Note_on_c, 0, 72, 57
2, 9720, Note_on_c, 0, 69, 57
2, 9721, Note_on_c, 0, 86, 0
2, 9721, Control_c, 0, 64, 0
2, 9750, Note_on_c, 0, 83, 89
2, 9758, Note_on_c, 0, 84, 0
2, 9780, Note_on_c, 0, 81, 76
2, 9781, Note_on_c, 0, 83, 0
2, 9791, Control_c, 0, 64, 127
2, 9807, Note_on_c, 0, 81, 0
2, 9810, Note_on_c, 0, 79, 93
2, 9840, Note_on_c, 0, 78, 76
2, 9842, Note_on_c, 0, 79, 0
2, 9845, Control_c, 0, 64, 0
2, 9870, Note_on_c, 0, 79, 89
2, 9873, Note_on_c, 0, 78, 0
2, 9900, Note_on_c, 0, 81, 76
2, 9907, Note_on_c, 0, 79, 0
2, 9930, Note_on_c, 0, 83, 80
2, 9933, Note_on_c, 0, 81, 0
2, 9938, Control_c, 0, 64, 127
2, 9958, Note_on_c, 0, 83, 0
2, 9960, Note_on_c, 0, 86, 80
2, 9960, Control_c, 0, 64, 0
2, 9990, Note_on_c, 0, 84, 76
2, 9991, Note_on_c, 0, 86, 0
2, 10020, Note_on_c, 0, 81, 76
2, 10024, Control_c, 0, 64, 127
2, 10025, Note_on_c, 0, 84, 0
2, 10048, Note_on_c, 0, 81, 0
2, 10050, Note_on_c, 0, 78, 76
2, 10067, Note_on_c, 0, 72, 0
2, 10075, Note_on_c, 0, 69, 0
2, 10075, Note_on_c, 0, 62, 0
2, 10078, Note_on_c, 0, 78, 0
2, 10080, Note_on_c, 0, 71, 52
2, 10080, Note_on_c, 0, 79, 93
2, 10080, Note_on_c, 0, 64, 72
2, 10083, Control_c, 0, 64, 0
2, 10118, Control_c, 0, 64, 127
2, 10137, Note_on_c, 0, 79, 0
2, 10140, Note_on_c, 0, 76, 80
2, 10170, Note_on_c, 0, 75, 64
2, 10171, Control_c, 0, 64, 0
2, 10173, Note_on_c, 0, 76, 0
2, 10200, Note_on_c, 0, 78, 76
2, 10202, Note_on_c, 0, 75, 0
2, 10216, Note_on_c, 0, 71, 0
2, 10216, Note_on_c, 0, 64, 0
2, 10229, Note_on_c, 0, 78, 0
2, 10230, Note_on_c, 0, 76, 85
2, 10260, Note_on_c, 0, 76, 0
2, 10260, Note_on_c, 0, 79, 72
2, 10290, Note_on_c, 0, 78, 62
2, 10297, Note_on_c, 0, 79, 0
2, 10320, Note_on_c, 0, 81, 85
2, 10324, Note_on_c, 0, 78, 0
2, 10349, Note_on_c, 0, 81, 0
2, 10350, Note_on_c, 0, 79, 76
2, 10380, Note_on_c, 0, 83, 80
2, 10381, Note_on_c, 0, 79, 0
2, 10410, Note_on_c, 0, 81, 80
2, 10412, Note_on_c, 0, 83, 0
2, 10416, Control_c, 0, 64, 127
2, 10432, Control_c, 0, 64, 0
2, 10440, Note_on_c, 0, 81, 0
2, 10440, Note_on_c, 0, 57, 76
2, 10440, Note_on_c, 0, 67, 64
2, 10440, Note_on_c, 0, 64, 62
2, 10440, Note_on_c, 0, 79, 80
2, 10440, Note_on_c, 0, 64, 62
2, 10440, Note_on_c, 0, 57, 64
2, 10440, Note_on_c, 0, 67, 59
2, 10463, Control_c, 0, 64, 127
2, 10470, Note_on_c, 0, 78, 64
2, 10474, Note_on_c, 0, 79, 0
2, 10482, Control_c, 0, 64, 0
2, 10500, Note_on_c, 0, 76, 85
2, 10501, Note_on_c, 0, 78, 0
2, 10527, Control_c, 0, 64, 127
2, 10529, Note_on_c, 0, 76, 0
2, 10530, Note_on_c, 0, 74, 76
2, 10556, Control_c, 0, 64, 0
2, 10559, Note_on_c, 0, 74, 0
2, 10560, Note_on_c, 0, 73, 76
2, 10588, Note_on_c, 0, 73, 0
2, 10590, Note_on_c, 0, 74, 80
2, 10620, Note_on_c, 0, 74, 0
2, 10620, Note_on_c, 0, 76, 80
2, 10648, Note_on_c, 0, 76, 0
2, 10650, Note_on_c, 0, 78, 62
2, 10679, Note_on_c, 0, 78, 0
2, 10680, Note_on_c, 0, 81, 89
2, 10709, Note_on_c, 0, 81, 0
2, 10710, Note_on_c, 0, 79, 72
2, 10740, Note_on_c, 0, 76, 80
2, 10740, Control_c, 0, 64, 127
2, 10744, Note_on_c, 0, 79, 0
2, 10762, Note_on_c, 0, 57, 0
2, 10764, Note_on_c, 0, 64, 0
2, 10770, Note_on_c, 0, 73, 76
2, 10771, Note_on_c, 0, 76, 0
2, 10774, Note_on_c, 0, 67, 0
2, 10791, Note_on_c, 0, 73, 0
2, 10800, Note_on_c, 0, 66, 72
2, 10800, Note_on_c, 0, 59, 89
2, 10802, Control_c, 0, 64, 0
2, 10804, Note_on_c, 0, 64, 0
2, 10806, Note_on_c, 0, 67, 0
2, 10820, Note_on_c, 0, 57, 0
2, 10830, Note_on_c, 0, 74, 76
2, 10860, Note_on_c, 0, 76, 93
2, 10861, Note_on_c, 0, 74, 0
2, 10874, Control_c, 0, 64, 127
2, 10890, Note_on_c, 0, 76, 0
2, 10890, Note_on_c, 0, 78, 80
2, 10916, Note_on_c, 0, 78, 0
2, 10920, Note_on_c, 0, 79, 85
2, 10923, Note_on_c, 0, 66, 0
2, 10923, Control_c, 0, 64, 0
2, 10924, Note_on_c, 0, 59, 0
2, 10950, Note_on_c, 0, 81, 93
2, 10952, Note_on_c, 0, 79, 0
2, 10980, Note_on_c, 0, 83, 85
2, 10984, Note_on_c, 0, 81, 0
2, 11002, Control_c, 0, 64, 127
2, 11010, Note_on_c, 0, 83, 0
2, 11010, Note_on_c, 0, 85, 85
2, 11040, Note_on_c, 0, 85, 0
2, 11040, Note_on_c, 0, 86, 76
2, 11042, Control_c, 0, 64, 0
2, 11068, Note_on_c, 0, 86, 0
2, 11070, Note_on_c, 0, 85, 80
2, 11100, Note_on_c, 0, 85, 0
2, 11100, Note_on_c, 0, 86, 62
2, 11103, Control_c, 0, 64, 127
2, 11130, Note_on_c, 0, 85, 72
2, 11132, Note_on_c, 0, 86, 0
2, 11160, Note_on_c, 0, 68, 68
2, 11160, Note_on_c, 0, 64, 80
2, 11160, Note_on_c, 0, 88, 93
2, 11162, Note_on_c, 0, 85, 0
2, 11190, Note_on_c, 0, 88, 0
2, 11190, Note_on_c, 0, 86, 85
2, 11191, Control_c, 0, 64, 127
2, 11195, Control_c, 0, 64, 0
2, 11220, Note_on_c, 0, 85, 68
2, 11224, Note_on_c, 0, 86, 0
2, 11248, Note_on_c, 0, 85, 0
2, 11250, Note_on_c, 0, 86, 93
2, 11254, Control_c, 0, 64, 127
2, 11280, Note_on_c, 0, 85, 80
2, 11280, Note_on_c, 0, 71, 76
2, 11282, Note_on_c, 0, 68, 0
2, 11284, Note_on_c, 0, 86, 0
2, 11289, Control_c, 0, 64, 0
2, 11310, Note_on_c, 0, 83, 80
2, 11312, Note_on_c, 0, 85, 0
2, 11334, Control_c, 0, 64, 127
2, 11340, Note_on_c, 0, 82, 64
2, 11341, Note_on_c, 0, 83, 0
2, 11366, Note_on_c, 0, 82, 0
2, 11370, Note_on_c, 0, 83, 80
2, 11399, Note_on_c, 0, 71, 0
2, 11400, Note_on_c, 0, 83, 0
2, 11400, Note_on_c, 0, 81, 85
2, 11400, Note_on_c, 0, 74, 59
2, 11410, Control_c, 0, 64, 0
2, 11435, Note_on_c, 0, 81, 0
2, 11436, Note_on_c, 0, 80, 72
2, 11460, Control_c, 0, 64, 127
2, 11460, Note_on_c, 0, 78, 64
2, 11465, Note_on_c, 0, 80, 0
2, 11489, Note_on_c, 0, 78, 0
2, 11490, Note_on_c, 0, 80, 72
2, 11513, Note_on_c, 0, 80, 0
2, 11516, Note_on_c, 0, 74, 0
2, 11520, Note_on_c, 0, 81, 89
2, 11520, Note_on_c, 0, 73, 85
2, 11521, Note_on_c, 0, 64, 0
2, 11548, Control_c, 0, 64, 127
2, 11640, Note_on_c, 0, 81, 0
2, 11641, Control_c, 0, 64, 0
2, 11642, Note_on_c, 0, 73, 0
2, 11760, Note_on_c, 0, 78, 72
2, 11760, Note_on_c, 0, 86, 93
2, 11775, Note_on_c, 0, 86, 0
2, 11775, Note_on_c, 0, 76, 64
2, 11775, Note_on_c, 0, 85, 93
2, 11776, Note_on_c, 0, 78, 0
2, 11789, Note_on_c, 0, 85, 0
2, 11790, Note_on_c, 0, 78, 64
2, 11790, Note_on_c, 0, 86, 93
2, 11791, Note_on_c, 0, 76, 0
2, 11804, Note_on_c, 0, 86, 0
2, 11805, Note_on_c, 0, 76, 68
2, 11807, Note_on_c, 0, 85, 72
2, 11808, Note_on_c, 0, 78, 0
2, 11821, Note_on_c, 0, 76, 0
2, 11821, Note_on_c, 0, 78, 57
2, 11822, Note_on_c, 0, 85, 0
2, 11824, Note_on_c, 0, 86, 89
2, 11836, Note_on_c, 0, 85, 80
2, 11836, Note_on_c, 0, 76, 72
2, 11840, Note_on_c, 0, 86, 0
2, 11840, Note_on_c, 0, 78, 0
2, 11849, Note_on_c, 0, 74, 68
2, 11851, Note_on_c, 0, 85, 0
2, 11852, Note_on_c, 0, 76, 0
2, 11854, Note_on_c, 0, 83, 76
2, 11862, Note_on_c, 0, 76, 76
2, 11866, Note_on_c, 0, 74, 0
2, 11869, Note_on_c, 0, 85, 68
2, 11870, Note_on_c, 0, 76, 0
2, 11871, Note_on_c, 0, 83, 0
2, 11881, Note_on_c, 0, 85, 0
2, 11883, Note_on_c, 0, 78, 76
2, 11886, Note_on_c, 0, 86, 102
2, 11914, Note_on_c, 0, 78, 0
2, 11915, Note_on_c, 0, 86, 0
2, 12000, Note_on_c, 0, 79, 89
2, 12000, Note_on_c, 0, 76, 85
2, 12022, Note_on_c, 0, 76, 0
2, 12025, Note_on_c, 0, 79, 0
2, 12120, Note_on_c, 0, 78, 80
2, 12120, Note_on_c, 0, 74, 76
2, 12145, Note_on_c, 0, 74, 0
2, 12145, Note_on_c, 0, 78, 0
2, 12240, Note_on_c, 0, 76, 93
2, 12241, Note_on_c, 0, 73, 76
2, 12357, Note_on_c, 0, 76, 0
2, 12358, Note_on_c, 0, 73, 0
2, 12480, Note_on_c, 0, 78, 72
2, 12480, Note_on_c, 0, 86, 98
2, 12495, Note_on_c, 0, 76, 76
2, 12495, Note_on_c, 0, 85, 89
2, 12496, Note_on_c, 0, 86, 0
2, 12497, Note_on_c, 0, 78, 0
2, 12507, Note_on_c, 0, 85, 0
2, 12510, Note_on_c, 0, 78, 62
2, 12510, Note_on_c, 0, 86, 98
2, 12512, Note_on_c, 0, 76, 0
2, 12524, Note_on_c, 0, 86, 0
2, 12525, Note_on_c, 0, 85, 72
2, 12525, Note_on_c, 0, 76, 76
2, 12528, Note_on_c, 0, 78, 0
2, 12538, Note_on_c, 0, 85, 0
2, 12540, Note_on_c, 0, 76, 0
2, 12540, Note_on_c, 0, 78, 64
2, 12540, Note_on_c, 0, 86, 85
2, 12554, Note_on_c, 0, 76, 80
2, 12555, Note_on_c, 0, 86, 0
2, 12556, Note_on_c, 0, 85, 76
2, 12559, Note_on_c, 0, 78, 0
2, 12569, Note_on_c, 0, 76, 0
2, 12570, Note_on_c, 0, 85, 0
2, 12570, Note_on_c, 0, 74, 76
2, 12570, Note_on_c, 0, 83, 80
2, 12584, Note_on_c, 0, 76, 70
2, 12585, Note_on_c, 0, 85, 62
2, 12587, Note_on_c, 0, 83, 0
2, 12588, Note_on_c, 0, 74, 0
2, 12597, Note_on_c, 0, 85, 0
2, 12599, Note_on_c, 0, 76, 0
2, 12600, Note_on_c, 0, 78, 35
2, 12600, Note_on_c, 0, 86, 98
2, 12615, Note_on_c, 0, 78, 0
2, 12623, Note_on_c, 0, 86, 0
2, 12722, Note_on_c, 0, 76, 44
2, 12724, Note_on_c, 0, 79, 89
2, 12740, Note_on_c, 0, 76, 0
2, 12741, Note_on_c, 0, 79, 0
2, 12840, Note_on_c, 0, 78, 76
2, 12840, Note_on_c, 0, 74, 76
2, 12858, Note_on_c, 0, 78, 0
2, 12859, Note_on_c, 0, 74, 0
2, 12960, Note_on_c, 0, 76, 89
2, 12960, Note_on_c, 0, 73, 68
2, 12986, Control_c, 0, 64, 127
2, 13029, Note_on_c, 0, 73, 0
2, 13031, Note_on_c, 0, 76, 0
2, 13077, Control_c, 0, 64, 0
2, 13080, Note_on_c, 0, 81, 85
2, 13080, Note_on_c, 0, 73, 62
2, 13080, Note_on_c, 0, 76, 80
2, 13100, Control_c, 0, 64, 127
2, 13151, Note_on_c, 0, 76, 0
2, 13152, Note_on_c, 0, 73, 0
2, 13154, Note_on_c, 0, 81, 0
2, 13212, Control_c, 0, 64, 0
2, 13320, Note_on_c, 0, 86, 76
2, 13320, Note_on_c, 0, 62, 68
2, 13327, Control_c, 0, 64, 127
2, 13350, Note_on_c, 0, 78, 55
2, 13350, Note_on_c, 0, 74, 57
2, 13352, Note_on_c, 0, 62, 0
2, 13352, Note_on_c, 0, 86, 0
2, 13380, Note_on_c, 0, 74, 0
2, 13380, Note_on_c, 0, 66, 52
2, 13380, Note_on_c, 0, 86, 68
2, 13383, Note_on_c, 0, 78, 0
2, 13407, Note_on_c, 0, 86, 0
2, 13407, Note_on_c, 0, 66, 0
2, 13410, Note_on_c, 0, 78, 51
2, 13410, Note_on_c, 0, 74, 55
2, 13438, Note_on_c, 0, 74, 0
2, 13440, Note_on_c, 0, 78, 0
2, 13440, Note_on_c, 0, 62, 72
2, 13440, Note_on_c, 0, 86, 62
2, 13467, Note_on_c, 0, 86, 0
2, 13470, Note_on_c, 0, 62, 0
2, 13470, Note_on_c, 0, 78, 49
2, 13470, Note_on_c, 0, 74, 51
2, 13500, Note_on_c, 0, 74, 0
2, 13500, Note_on_c, 0, 78, 0
2, 13500, Note_on_c, 0, 66, 55
2, 13500, Note_on_c, 0, 86, 62
2, 13526, Note_on_c, 0, 66, 0
2, 13527, Note_on_c, 0, 86, 0
2, 13530, Note_on_c, 0, 78, 52
2, 13530, Note_on_c, 0, 74, 55
2, 13558, Note_on_c, 0, 74, 0
2, 13558, Note_on_c, 0, 78, 0
2, 13560, Note_on_c, 0, 62, 60
2, 13560, Note_on_c, 0, 86, 76
2, 13562, Control_c, 0, 64, 0
2, 13582, Control_c, 0, 64, 127
2, 13588, Note_on_c, 0, 86, 0
2, 13590, Note_on_c, 0, 62, 0
2, 13590, Note_on_c, 0, 78, 50
2, 13590, Note_on_c, 0, 74, 56
2, 13619, Note_on_c, 0, 74, 0
2, 13620, Note_on_c, 0, 66, 56
2, 13620, Note_on_c, 0, 86, 59
2, 13621, Note_on_c, 0, 78, 0
2, 13645, Note_on_c, 0, 66, 0
2, 13646, Note_on_c, 0, 86, 0
2, 13650, Note_on_c, 0, 74, 50
2, 13650, Note_on_c, 0, 78, 39
2, 13677, Note_on_c, 0, 78, 0
2, 13679, Note_on_c, 0, 74, 0
2, 13680, Note_on_c, 0, 86, 76
2, 13680, Note_on_c, 0, 62, 62
2, 13684, Control_c, 0, 64, 0
2, 13703, Control_c, 0, 64, 127
2, 13708, Note_on_c, 0, 86, 0
2, 13709, Note_on_c, 0, 62, 0
2, 13710, Note_on_c, 0, 78, 50
2, 13710, Note_on_c, 0, 74, 50
2, 13738, Note_on_c, 0, 74, 0
2, 13738, Note_on_c, 0, 78, 0
2, 13740, Note_on_c, 0, 66, 50
2, 13740, Note_on_c, 0, 86, 57
2, 13765, Note_on_c, 0, 86, 0
2, 13767, Note_on_c, 0, 66, 0
2, 13770, Note_on_c, 0, 78, 46
2, 13770, Note_on_c, 0, 74, 55
2, 13796, Note_on_c, 0, 74, 0
2, 13797, Note_on_c, 0, 78, 0
2, 13800, Note_on_c, 0, 86, 76
2, 13800, Note_on_c, 0, 62, 60
2, 13803, Control_c, 0, 64, 0
2, 13822, Control_c, 0, 64, 127
2, 13827, Note_on_c, 0, 86, 0
2, 13830, Note_on_c, 0, 62, 0
2, 13830, Note_on_c, 0, 78, 51
2, 13830, Note_on_c, 0, 74, 56
2, 13857, Note_on_c, 0, 74, 0
2, 13857, Note_on_c, 0, 78, 0
2, 13860, Note_on_c, 0, 66, 46
2, 13860, Note_on_c, 0, 86, 64
2, 13884, Note_on_c, 0, 86, 0
2, 13887, Note_on_c, 0, 66, 0
2, 13890, Note_on_c, 0, 74, 55
2, 13890, Note_on_c, 0, 78, 47
2, 13914, Note_on_c, 0, 78, 0
2, 13914, Note_on_c, 0, 74, 0
2, 13919, Control_c, 0, 64, 0
2, 13920, Note_on_c, 0, 86, 72
2, 13920, Note_on_c, 0, 62, 60
2, 13939, Control_c, 0, 64, 127
2, 13949, Note_on_c, 0, 86, 0
2, 13950, Note_on_c, 0, 62, 0
2, 13950, Note_on_c, 0, 74, 60
2, 13950, Note_on_c, 0, 78, 52
2, 13974, Note_on_c, 0, 78, 0
2, 13977, Note_on_c, 0, 74, 0
2, 13980, Note_on_c, 0, 66, 56
2, 13980, Note_on_c, 0, 86, 64
2, 14009, Note_on_c, 0, 86, 0
2, 14010, Note_on_c, 0, 74, 52
2, 14010, Note_on_c, 0, 78, 52
2, 14011, Note_on_c, 0, 66, 0
2, 14034, Note_on_c, 0, 78, 0
2, 14035, Note_on_c, 0, 74, 0
2, 14039, Control_c, 0, 64, 0
2, 14040, Note_on_c, 0, 62, 68
2, 14040, Note_on_c, 0, 86, 76
2, 14060, Control_c, 0, 64, 127
2, 14066, Note_on_c, 0, 86, 0
2, 14069, Note_on_c, 0, 62, 0
2, 14070, Note_on_c, 0, 78, 50
2, 14070, Note_on_c, 0, 72, 50
2, 14099, Note_on_c, 0, 78, 0
2, 14100, Note_on_c, 0, 72, 0
2, 14100, Note_on_c, 0, 86, 72
2, 14100, Note_on_c, 0, 66, 53
2, 14128, Note_on_c, 0, 66, 0
2, 14130, Note_on_c, 0, 86, 0
2, 14130, Note_on_c, 0, 72, 57
2, 14130, Note_on_c, 0, 78, 45
2, 14158, Note_on_c, 0, 78, 0
2, 14158, Note_on_c, 0, 72, 0
2, 14160, Note_on_c, 0, 86, 80
2, 14160, Note_on_c, 0, 62, 72
2, 14161, Control_c, 0, 64, 0
2, 14179, Control_c, 0, 64, 127
2, 14186, Note_on_c, 0, 86, 0
2, 14190, Note_on_c, 0, 62, 0
2, 14190, Note_on_c, 0, 78, 38
2, 14190, Note_on_c, 0, 72, 53
2, 14217, Note_on_c, 0, 78, 0
2, 14220, Note_on_c, 0, 66, 48
2, 14220, Note_on_c, 0, 86, 62
2, 14221, Note_on_c, 0, 72, 0
2, 14243, Note_on_c, 0, 86, 0
2, 14245, Note_on_c, 0, 66, 0
2, 14250, Note_on_c, 0, 72, 55
2, 14250, Note_on_c, 0, 78, 33
2, 14274, Note_on_c, 0, 78, 0
2, 14277, Note_on_c, 0, 72, 0
2, 14280, Note_on_c, 0, 62, 59
2, 14280, Note_on_c, 0, 86, 68
2, 14282, Control_c, 0, 64, 0
2, 14300, Control_c, 0, 64, 127
2, 14307, Note_on_c, 0, 86, 0
2, 14309, Note_on_c, 0, 62, 0
2, 14310, Note_on_c, 0, 72, 55
2, 14310, Note_on_c, 0, 78, 46
2, 14338, Note_on_c, 0, 72, 0
2, 14340, Note_on_c, 0, 78, 0
2, 14340, Note_on_c, 0, 66, 55
2, 14340, Note_on_c, 0, 86, 62
2, 14364, Note_on_c, 0, 86, 0
2, 14368, Note_on_c, 0, 66, 0
2, 14370, Note_on_c, 0, 72, 56
2, 14370, Note_on_c, 0, 78, 52
2, 14390, Note_on_c, 0, 78, 0
2, 14394, Note_on_c, 0, 72, 0
2, 14400, Note_on_c, 0, 86, 68
2, 14400, Control_c, 0, 64, 0
2, 14400, Note_on_c, 0, 62, 56
2, 14419, Control_c, 0, 64, 127
2, 14427, Note_on_c, 0, 86, 0
2, 14430, Note_on_c, 0, 62, 0
2, 14430, Note_on_c, 0, 71, 56
2, 14430, Note_on_c, 0, 79, 55
2, 14456, Note_on_c, 0, 79, 0
2, 14457, Note_on_c, 0, 71, 0
2, 14460, Note_on_c, 0, 67, 47
2, 14460, Note_on_c, 0, 86, 62
2, 14488, Note_on_c, 0, 86, 0
2, 14490, Note_on_c, 0, 71, 59
2, 14490, Note_on_c, 0, 79, 47
2, 14492, Note_on_c, 0, 67, 0
2, 14515, Note_on_c, 0, 79, 0
2, 14518, Note_on_c, 0, 71, 0
2, 14520, Note_on_c, 0, 62, 55
2, 14520, Note_on_c, 0, 86, 72
2, 14520, Control_c, 0, 64, 0
2, 14539, Control_c, 0, 64, 127
2, 14546, Note_on_c, 0, 86, 0
2, 14550, Note_on_c, 0, 71, 60
2, 14550, Note_on_c, 0, 79, 56
2, 14552, Note_on_c, 0, 62, 0
2, 14573, Note_on_c, 0, 79, 0
2, 14573, Note_on_c, 0, 71, 0
2, 14580, Note_on_c, 0, 67, 31
2, 14580, Note_on_c, 0, 86, 59
2, 14606, Note_on_c, 0, 86, 0
2, 14610, Note_on_c, 0, 71, 56
2, 14610, Note_on_c, 0, 79, 55
2, 14611, Note_on_c, 0, 67, 0
2, 14632, Control_c, 0, 64, 0
2, 14637, Note_on_c, 0, 79, 0
2, 14639, Note_on_c, 0, 71, 0
2, 14640, Note_on_c, 0, 86, 72
2, 14640, Note_on_c, 0, 62, 64
2, 14653, Control_c, 0, 64, 127
2, 14668, Note_on_c, 0, 86, 0
2, 14670, Note_on_c, 0, 79, 60
2, 14670, Note_on_c, 0, 70, 59
2, 14671, Note_on_c, 0, 62, 0
2, 14692, Note_on_c, 0, 70, 0
2, 14696, Note_on_c, 0, 79, 0
2, 14700, Note_on_c, 0, 67, 60
2, 14700, Note_on_c, 0, 86, 72
2, 14728, Note_on_c, 0, 86, 0
2, 14728, Note_on_c, 0, 67, 0
2, 14730, Note_on_c, 0, 70, 47
2, 14730, Note_on_c, 0, 79, 56
2, 14751, Note_on_c, 0, 79, 0
2, 14752, Note_on_c, 0, 70, 0
2, 14758, Control_c, 0, 64, 0
2, 14760, Note_on_c, 0, 62, 62
2, 14760, Note_on_c, 0, 86, 72
2, 14777, Control_c, 0, 64, 127
2, 14786, Note_on_c, 0, 86, 0
2, 14786, Note_on_c, 0, 62, 0
2, 14790, Note_on_c, 0, 69, 45
2, 14790, Note_on_c, 0, 81, 62
2, 14818, Note_on_c, 0, 81, 0
2, 14820, Note_on_c, 0, 66, 56
2, 14820, Note_on_c, 0, 86, 68
2, 14821, Note_on_c, 0, 69, 0
2, 14850, Note_on_c, 0, 69, 62
2, 14850, Note_on_c, 0, 81, 59
2, 14851, Note_on_c, 0, 86, 0
2, 14852, Note_on_c, 0, 66, 0
2, 14877, Note_on_c, 0, 81, 0
2, 14878, Note_on_c, 0, 62, 56
2, 14879, Note_on_c, 0, 69, 0
2, 14880, Note_on_c, 0, 86, 72
2, 14891, Control_c, 0, 64, 0
2, 14907, Note_on_c, 0, 86, 0
2, 14907, Note_on_c, 0, 62, 0
2, 14910, Note_on_c, 0, 81, 59
2, 14910, Note_on_c, 0, 69, 60
2, 14912, Control_c, 0, 64, 127
2, 14935, Note_on_c, 0, 81, 0
2, 14939, Note_on_c, 0, 69, 0
2, 14940, Note_on_c, 0, 86, 72
2, 14940, Note_on_c, 0, 66, 56
2, 14965, Note_on_c, 0, 86, 0
2, 14970, Note_on_c, 0, 66, 0
2, 14970, Note_on_c, 0, 69, 56
2, 14970, Note_on_c, 0, 81, 57
2, 14996, Note_on_c, 0, 69, 0
2, 14997, Note_on_c, 0, 81, 0
2, 15000, Note_on_c, 0, 62, 53
2, 15000, Note_on_c, 0, 86, 62
2, 15003, Control_c, 0, 64, 0
2, 15025, Control_c, 0, 64, 127
2, 15026, Note_on_c, 0, 86, 0
2, 15030, Note_on_c, 0, 69, 62
2, 15030, Note_on_c, 0, 81, 68
2, 15039, Note_on_c, 0, 62, 0
2, 15053, Note_on_c, 0, 81, 0
2, 15057, Note_on_c, 0, 69, 0
2, 15060, Note_on_c, 0, 86, 72
2, 15060, Note_on_c, 0, 65, 52
2, 15083, Note_on_c, 0, 65, 0
2, 15088, Note_on_c, 0, 86, 0
2, 15090, Note_on_c, 0, 81, 64
2, 15090, Note_on_c, 0, 69, 62
2, 15097, Note_on_c, 0, 69, 0
2, 15118, Note_on_c, 0, 81, 0
2, 15120, Note_on_c, 0, 74, 62
2, 15120, Note_on_c, 0, 64, 76
2, 15120, Note_on_c, 0, 80, 93
2, 15120, Note_on_c, 0, 71, 51
2, 15125, Control_c, 0, 64, 0
2, 15150, Control_c, 0, 64, 127
2, 15178, Note_on_c, 0, 80, 0
2, 15180, Note_on_c, 0, 83, 85
2, 15210, Note_on_c, 0, 85, 76
2, 15213, Note_on_c, 0, 83, 0
2, 15239, Note_on_c, 0, 85, 0
2, 15240, Note_on_c, 0, 86, 98
2, 15241, Note_on_c, 0, 71, 0
2, 15241, Control_c, 0, 64, 0
2, 15242, Note_on_c, 0, 74, 0
2, 15243, Note_on_c, 0, 64, 0
2, 15270, Note_on_c, 0, 85, 72
2, 15273, Note_on_c, 0, 86, 0
2, 15300, Note_on_c, 0, 83, 80
2, 15301, Note_on_c, 0, 85, 0
2, 15324, Control_c, 0, 64, 127
2, 15328, Note_on_c, 0, 83, 0
2, 15330, Note_on_c, 0, 81, 76
2, 15360, Note_on_c, 0, 79, 89
2, 15363, Note_on_c, 0, 81, 0
2, 15364, Control_c, 0, 64, 0
2, 15390, Note_on_c, 0, 78, 68
2, 15391, Note_on_c, 0, 79, 0
2, 15414, Control_c, 0, 64, 127
2, 15420, Note_on_c, 0, 76, 64
2, 15422, Note_on_c, 0, 78, 0
2, 15450, Note_on_c, 0, 75, 76
2, 15453, Note_on_c, 0, 76, 0
2, 15479, Note_on_c, 0, 75, 0
2, 15479, Control_c, 0, 64, 0
2, 15480, Note_on_c, 0, 74, 76
2, 15521, Control_c, 0, 64, 127
2, 15614, Note_on_c, 0, 74, 0
2, 15619, Control_c, 0, 64, 0
2, 15900, Note_on_c, 0, 76, 80
2, 15920, Control_c, 0, 64, 127
2, 15930, Note_on_c, 0, 76, 0
2, 15930, Note_on_c, 0, 78, 64
2, 15958, Note_on_c, 0, 78, 0
2, 15960, Control_c, 0, 64, 0
2, 15960, Note_on_c, 0, 79, 76
2, 15990, Note_on_c, 0, 78, 76
2, 15994, Note_on_c, 0, 79, 0
2, 16020, Note_on_c, 0, 78, 0
2, 16020, Note_on_c, 0, 76, 80
2, 16038, Control_c, 0, 64, 127
2, 16049, Note_on_c, 0, 76, 0
2, 16050, Note_on_c, 0, 74, 80
2, 16080, Note_on_c, 0, 74, 0
2, 16080, Note_on_c, 0, 73, 80
2, 16084, Control_c, 0, 64, 0
2, 16110, Note_on_c, 0, 71, 80
2, 16113, Note_on_c, 0, 73, 0
2, 16124, Control_c, 0, 64, 127
2, 16140, Note_on_c, 0, 69, 80
2, 16142, Note_on_c, 0, 71, 0
2, 16168, Note_on_c, 0, 69, 0
2, 16170, Note_on_c, 0, 68, 76
2, 16180, Control_c, 0, 64, 0
2, 16200, Note_on_c, 0, 67, 80
2, 16202, Note_on_c, 0, 68, 0
2, 16233, Control_c, 0, 64, 127
2, 16328, Note_on_c, 0, 67, 0
2, 16329, Control_c, 0, 64, 0
2, 16620, Note_on_c, 0, 74, 72
2, 16630, Control_c, 0, 64, 127
2, 16680, Note_on_c, 0, 86, 76
2, 16682, Control_c, 0, 64, 0
2, 16685, Note_on_c, 0, 74, 0
2, 16703, Control_c, 0, 64, 127
2, 16730, Note_on_c, 0, 86, 0
2, 16735, Control_c, 0, 64, 0
2, 16740, Note_on_c, 0, 86, 89
2, 16753, Note_on_c, 0, 86, 0
2, 16800, Note_on_c, 0, 86, 89
2, 16812, Note_on_c, 0, 86, 0
2, 16860, Note_on_c, 0, 86, 89
2, 16872, Note_on_c, 0, 86, 0
2, 16920, Note_on_c, 0, 71, 55
2, 16920, Note_on_c, 0, 64, 64
2, 16920, Note_on_c, 0, 62, 60
2, 16924, Note_on_c, 0, 86, 93
2, 16954, Control_c, 0, 64, 127
2, 16983, Note_on_c, 0, 83, 93
2, 16983, Control_c, 0, 64, 0
2, 16988, Note_on_c, 0, 86, 0
2, 16992, Note_on_c, 0, 83, 0
2, 17040, Note_on_c, 0, 83, 80
2, 17097, Note_on_c, 0, 83, 0
2, 17100, Note_on_c, 0, 79, 76
2, 17109, Note_on_c, 0, 79, 0
2, 17160, Note_on_c, 0, 79, 76
2, 17182, Control_c, 0, 64, 127
2, 17220, Note_on_c, 0, 76, 80
2, 17221, Control_c, 0, 64, 0
2, 17224, Note_on_c, 0, 79, 0
2, 17228, Note_on_c, 0, 76, 0
2, 17254, Note_on_c, 0, 62, 0
2, 17254, Note_on_c, 0, 71, 0
2, 17255, Note_on_c, 0, 64, 0
2, 17280, Note_on_c, 0, 74, 76
2, 17280, Note_on_c, 0, 66, 64
2, 17330, Control_c, 0, 64, 127
2, 17470, Note_on_c, 0, 74, 0
2, 17480, Note_on_c, 0, 66, 0
2, 17520, Note_on_c, 0, 67, 64
2, 17520, Note_on_c, 0, 73, 60
2, 17520, Note_on_c, 0, 78, 64
2, 17529, Control_c, 0, 64, 0
2, 17559, Control_c, 0, 64, 127
2, 17576, Note_on_c, 0, 78, 0
2, 17580, Note_on_c, 0, 76, 76
2, 17639, Note_on_c, 0, 76, 0
2, 17639, Note_on_c, 0, 73, 0
2, 17640, Note_on_c, 0, 74, 72
2, 17640, Note_on_c, 0, 66, 53
2, 17641, Note_on_c, 0, 67, 0
2, 17645, Control_c, 0, 64, 0
2, 17679, Control_c, 0, 64, 127
2, 17759, Note_on_c, 0, 74, 0
2, 17764, Note_on_c, 0, 66, 0
2, 17770, Control_c, 0, 64, 0
2, 18720, Note_on_c, 0, 77, 93
2, 18720, Control_c, 0, 64, 127
2, 18720, Note_on_c, 0, 70, 44
2, 18734, Note_on_c, 0, 77, 0
2, 18751, Note_on_c, 0, 70, 0
2, 18780, Note_on_c, 0, 70, 45
2, 18807, Note_on_c, 0, 70, 0
2, 18840, Note_on_c, 0, 82, 80
2, 18840, Note_on_c, 0, 70, 44
2, 18854, Note_on_c, 0, 82, 0
2, 18875, Note_on_c, 0, 70, 0
2, 18900, Note_on_c, 0, 70, 40
2, 18927, Note_on_c, 0, 70, 0
2, 18960, Note_on_c, 0, 74, 89
2, 18960, Note_on_c, 0, 70, 49
2, 18975, Note_on_c, 0, 74, 0
2, 18987, Note_on_c, 0, 70, 0
2, 19020, Note_on_c, 0, 70, 44
2, 19045, Note_on_c, 0, 70, 0
2, 19070, Control_c, 0, 64, 0
2, 19080, Note_on_c, 0, 75, 89
2, 19080, Note_on_c, 0, 70, 48
2, 19094, Note_on_c, 0, 75, 0
2, 19102, Control_c, 0, 64, 127
2, 19117, Note_on_c, 0, 70, 0
2, 19140, Note_on_c, 0, 70, 49
2, 19172, Note_on_c, 0, 70, 0
2, 19200, Note_on_c, 0, 87, 85
2, 19200, Note_on_c, 0, 70, 47
2, 19216, Note_on_c, 0, 87, 0
2, 19231, Note_on_c, 0, 70, 0
2, 19260, Note_on_c, 0, 70, 51
2, 19290, Note_on_c, 0, 70, 0
2, 19320, Note_on_c, 0, 70, 49
2, 19364, Note_on_c, 0, 70, 0
2, 19380, Note_on_c, 0, 70, 47
2, 19410, Note_on_c, 0, 79, 89
2, 19413, Note_on_c, 0, 70, 0
2, 19421, Note_on_c, 0, 79, 0
2, 19440, Note_on_c, 0, 70, 44
2, 19444, Note_on_c, 0, 79, 93
2, 19456, Control_c, 0, 64, 0
2, 19459, Note_on_c, 0, 79, 0
2, 19476, Note_on_c, 0, 70, 0
2, 19489, Control_c, 0, 64, 127
2, 19500, Note_on_c, 0, 70, 51
2, 19538, Note_on_c, 0, 70, 0
2, 19560, Note_on_c, 0, 82, 102
2, 19560, Note_on_c, 0, 70, 54
2, 19573, Note_on_c, 0, 82, 0
2, 19602, Note_on_c, 0, 70, 0
2, 19620, Note_on_c, 0, 70, 57
2, 19663, Note_on_c, 0, 70, 0
2, 19680, Note_on_c, 0, 74, 98
2, 19680, Note_on_c, 0, 70, 49
2, 19694, Note_on_c, 0, 74, 0
2, 19715, Note_on_c, 0, 70, 0
2, 19740, Note_on_c, 0, 70, 51
2, 19771, Note_on_c, 0, 70, 0
2, 19800, Note_on_c, 0, 75, 98
2, 19800, Note_on_c, 0, 70, 57
2, 19806, Control_c, 0, 64, 0
2, 19815, Note_on_c, 0, 75, 0
2, 19837, Control_c, 0, 64, 127
2, 19839, Note_on_c, 0, 70, 0
2, 19860, Note_on_c, 0, 70, 60
2, 19895, Note_on_c, 0, 70, 0
2, 19920, Note_on_c, 0, 87, 98
2, 19920, Note_on_c, 0, 70, 54
2, 19933, Note_on_c, 0, 87, 0
2, 19946, Note_on_c, 0, 70, 0
2, 19980, Note_on_c, 0, 70, 57
2, 20016, Note_on_c, 0, 70, 0
2, 20040, Note_on_c, 0, 70, 60
2, 20074, Note_on_c, 0, 70, 0
2, 20100, Note_on_c, 0, 70, 64
2, 20130, Note_on_c, 0, 75, 85
2, 20137, Note_on_c, 0, 70, 0
2, 20145, Note_on_c, 0, 75, 0
2, 20160, Note_on_c, 0, 79, 98
2, 20160, Note_on_c, 0, 72, 68
2, 20168, Control_c, 0, 64, 0
2, 20173, Note_on_c, 0, 79, 0
2, 20199, Control_c, 0, 64, 127
2, 20205, Note_on_c, 0, 72, 0
2, 20220, Note_on_c, 0, 72, 64
2, 20264, Note_on_c, 0, 72, 0
2, 20280, Note_on_c, 0, 84, 85
2, 20280, Note_on_c, 0, 72, 60
2, 20293, Note_on_c, 0, 84, 0
2, 20312, Note_on_c, 0, 72, 0
2, 20340, Note_on_c, 0, 72, 48
2, 20376, Note_on_c, 0, 72, 0
2, 20400, Note_on_c, 0, 76, 89
2, 20400, Note_on_c, 0, 72, 45
2, 20415, Note_on_c, 0, 76, 0
2, 20435, Note_on_c, 0, 72, 0
2, 20460, Note_on_c, 0, 72, 54
2, 20492, Note_on_c, 0, 72, 0
2, 20520, Note_on_c, 0, 77, 93
2, 20520, Note_on_c, 0, 72, 60
2, 20536, Note_on_c, 0, 77, 0
2, 20563, Note_on_c, 0, 72, 0
2, 20580, Note_on_c, 0, 72, 49
2, 20590, Control_c, 0, 64, 0
2, 20617, Control_c, 0, 64, 127
2, 20619, Note_on_c, 0, 72, 0
2, 20640, Note_on_c, 0, 89, 93
2, 20640, Note_on_c, 0, 72, 44
2, 20652, Note_on_c, 0, 89, 0
2, 20675, Note_on_c, 0, 72, 0
2, 20700, Note_on_c, 0, 72, 64
2, 20737, Note_on_c, 0, 72, 0
2, 20760, Note_on_c, 0, 72, 71
2, 20800, Note_on_c, 0, 72, 0
2, 20820, Note_on_c, 0, 72, 74
2, 20850, Note_on_c, 0, 77, 80
2, 20863, Note_on_c, 0, 77, 0
2, 20866, Note_on_c, 0, 72, 0
2, 20880, Note_on_c, 0, 81, 93
2, 20880, Note_on_c, 0, 74, 74
2, 20893, Note_on_c, 0, 81, 0
2, 20893, Control_c, 0, 64, 0
2, 20925, Control_c, 0, 64, 127
2, 20927, Note_on_c, 0, 74, 0
2, 20940, Note_on_c, 0, 74, 71
2, 20982, Note_on_c, 0, 74, 0
2, 21000, Note_on_c, 0, 86, 98
2, 21000, Note_on_c, 0, 74, 68
2, 21014, Note_on_c, 0, 86, 0
2, 21039, Note_on_c, 0, 74, 0
2, 21060, Note_on_c, 0, 74, 60
2, 21095, Note_on_c, 0, 74, 0
2, 21120, Note_on_c, 0, 78, 102
2, 21120, Note_on_c, 0, 74, 60
2, 21134, Note_on_c, 0, 78, 0
2, 21159, Note_on_c, 0, 74, 0
2, 21180, Note_on_c, 0, 74, 60
2, 21218, Note_on_c, 0, 74, 0
2, 21240, Note_on_c, 0, 79, 107
2, 21240, Note_on_c, 0, 74, 71
2, 21246, Control_c, 0, 64, 0
2, 21255, Note_on_c, 0, 79, 0
2, 21278, Control_c, 0, 64, 127
2, 21286, Note_on_c, 0, 74, 0
2, 21300, Note_on_c, 0, 74, 71
2, 21338, Note_on_c, 0, 74, 0
2, 21360, Note_on_c, 0, 86, 98
2, 21360, Note_on_c, 0, 74, 71
2, 21373, Note_on_c, 0, 86, 0
2, 21402, Note_on_c, 0, 74, 0
2, 21420, Note_on_c, 0, 74, 71
2, 21456, Note_on_c, 0, 74, 0
2, 21480, Note_on_c, 0, 74, 71
2, 21515, Note_on_c, 0, 74, 0
2, 21540, Note_on_c, 0, 74, 74
2, 21570, Note_on_c, 0, 79, 98
2, 21576, Note_on_c, 0, 74, 0
2, 21590, Note_on_c, 0, 79, 0
2, 21600, Note_on_c, 0, 89, 107
2, 21600, Note_on_c, 0, 77, 74
2, 21600, Note_on_c, 0, 74, 81
2, 21604, Control_c, 0, 64, 0
2, 21640, Control_c, 0, 64, 127
2, 21647, Note_on_c, 0, 74, 0
2, 21656, Note_on_c, 0, 77, 0
2, 21660, Note_on_c, 0, 77, 60
2, 21660, Note_on_c, 0, 74, 60
2, 21688, Note_on_c, 0, 74, 0
2, 21696, Note_on_c, 0, 77, 0
2, 21720, Note_on_c, 0, 74, 71
2, 21720, Note_on_c, 0, 77, 71
2, 21754, Note_on_c, 0, 77, 0
2, 21755, Note_on_c, 0, 74, 0
2, 21780, Note_on_c, 0, 77, 71
2, 21780, Note_on_c, 0, 74, 68
2, 21810, Note_on_c, 0, 77, 0
2, 21814, Note_on_c, 0, 74, 0
2, 21839, Note_on_c, 0, 89, 0
2, 21840, Note_on_c, 0, 80, 107
2, 21840, Note_on_c, 0, 74, 71
2, 21840, Note_on_c, 0, 77, 74
2, 21869, Note_on_c, 0, 77, 0
2, 21869, Note_on_c, 0, 74, 0
2, 21900, Note_on_c, 0, 77, 74
2, 21900, Note_on_c, 0, 74, 64
2, 21928, Note_on_c, 0, 77, 0
2, 21930, Note_on_c, 0, 74, 0
2, 21950, Control_c, 0, 64, 0
2, 21953, Note_on_c, 0, 80, 0
2, 21960, Note_on_c, 0, 81, 102
2, 21960, Note_on_c, 0, 74, 74
2, 21960, Note_on_c, 0, 78, 90
2, 21993, Control_c, 0, 64, 127
2, 22018, Note_on_c, 0, 81, 0
2, 22020, Note_on_c, 0, 83, 98
2, 22050, Note_on_c, 0, 85, 89
2, 22055, Note_on_c, 0, 83, 0
2, 22077, Note_on_c, 0, 85, 0
2, 22080, Note_on_c, 0, 86, 89
2, 22098, Note_on_c, 0, 74, 0
2, 22099, Note_on_c, 0, 78, 0
2, 22109, Control_c, 0, 64, 0
2, 22110, Note_on_c, 0, 85, 80
2, 22115, Note_on_c, 0, 86, 0
2, 22140, Note_on_c, 0, 83, 85
2, 22146, Note_on_c, 0, 85, 0
2, 22170, Note_on_c, 0, 83, 0
2, 22170, Note_on_c, 0, 81, 76
2, 22170, Control_c, 0, 64, 127
2, 22186, Note_on_c, 0, 81, 0
2, 22200, Note_on_c, 0, 79, 93
2, 22202, Control_c, 0, 64, 0
2, 22230, Note_on_c, 0, 78, 80
2, 22235, Note_on_c, 0, 79, 0
2, 22260, Note_on_c, 0, 76, 89
2, 22261, Note_on_c, 0, 78, 0
2, 22275, Control_c, 0, 64, 127
2, 22290, Note_on_c, 0, 74, 89
2, 22291, Note_on_c, 0, 76, 0
2, 22307, Control_c, 0, 64, 0
2, 22320, Note_on_c, 0, 78, 85
2, 22320, Note_on_c, 0, 67, 64
2, 22322, Note_on_c, 0, 74, 0
2, 22332, Control_c, 0, 64, 127
2, 22335, Note_on_c, 0, 76, 89
2, 22340, Note_on_c, 0, 78, 0
2, 22349, Note_on_c, 0, 76, 0
2, 22349, Note_on_c, 0, 67, 0
2, 22350, Note_on_c, 0, 78, 76
2, 22350, Note_on_c, 0, 69, 60
2, 22356, Control_c, 0, 64, 0
2, 22365, Note_on_c, 0, 76, 76
2, 22367, Note_on_c, 0, 78, 0
2, 22379, Note_on_c, 0, 69, 0
2, 22380, Note_on_c, 0, 76, 0
2, 22380, Note_on_c, 0, 78, 93
2, 22380, Note_on_c, 0, 67, 64
2, 22395, Note_on_c, 0, 76, 93
2, 22398, Note_on_c, 0, 78, 0
2, 22406, Note_on_c, 0, 76, 0
2, 22409, Note_on_c, 0, 67, 0
2, 22410, Note_on_c, 0, 78, 85
2, 22410, Note_on_c, 0, 69, 49
2, 22425, Note_on_c, 0, 78, 0
2, 22425, Note_on_c, 0, 76, 93
2, 22437, Note_on_c, 0, 76, 0
2, 22439, Note_on_c, 0, 69, 0
2, 22440, Note_on_c, 0, 78, 89
2, 22440, Note_on_c, 0, 67, 64
2, 22455, Note_on_c, 0, 76, 76
2, 22456, Note_on_c, 0, 78, 0
2, 22467, Note_on_c, 0, 76, 0
2, 22469, Note_on_c, 0, 67, 0
2, 22470, Note_on_c, 0, 78, 76
2, 22470, Note_on_c, 0, 69, 57
2, 22485, Note_on_c, 0, 78, 0
2, 22485, Note_on_c, 0, 76, 76
2, 22499, Note_on_c, 0, 76, 0
2, 22499, Note_on_c, 0, 69, 0
2, 22500, Note_on_c, 0, 78, 93
2, 22500, Note_on_c, 0, 67, 64
2, 22515, Note_on_c, 0, 76, 68
2, 22516, Note_on_c, 0, 78, 0
2, 22528, Note_on_c, 0, 76, 0
2, 22529, Note_on_c, 0, 67, 0
2, 22530, Note_on_c, 0, 78, 85
2, 22530, Note_on_c, 0, 69, 57
2, 22545, Note_on_c, 0, 76, 76
2, 22548, Note_on_c, 0, 78, 0
2, 22559, Note_on_c, 0, 76, 0
2, 22559, Note_on_c, 0, 69, 0
2, 22560, Note_on_c, 0, 78, 89
2, 22560, Note_on_c, 0, 67, 51
2, 22575, Note_on_c, 0, 76, 80
2, 22576, Note_on_c, 0, 78, 0
2, 22587, Note_on_c, 0, 76, 0
2, 22589, Note_on_c, 0, 67, 0
2, 22590, Note_on_c, 0, 78, 76
2, 22590, Note_on_c, 0, 69, 60
2, 22605, Note_on_c, 0, 78, 0
2, 22605, Note_on_c, 0, 76, 93
2, 22615, Note_on_c, 0, 76, 0
2, 22619, Note_on_c, 0, 69, 0
2, 22620, Note_on_c, 0, 78, 102
2, 22620, Note_on_c, 0, 67, 60
2, 22635, Note_on_c, 0, 76, 93
2, 22639, Note_on_c, 0, 78, 0
2, 22644, Note_on_c, 0, 76, 0
2, 22649, Note_on_c, 0, 67, 0
2, 22650, Note_on_c, 0, 74, 93
2, 22650, Note_on_c, 0, 69, 60
2, 22665, Note_on_c, 0, 76, 93
2, 22667, Note_on_c, 0, 74, 0
2, 22675, Note_on_c, 0, 76, 0
2, 22679, Note_on_c, 0, 69, 0
2, 22680, Note_on_c, 0, 74, 76
2, 22680, Note_on_c, 0, 66, 72
2, 22692, Control_c, 0, 64, 127
2, 22759, Note_on_c, 0, 66, 0
2, 22763, Note_on_c, 0, 74, 0
2, 22821, Control_c, 0, 64, 0
2, 22860, Note_on_c, 0, 71, 62
2, 22860, Note_on_c, 0, 74, 64
2, 22860, Note_on_c, 0, 79, 64
2, 22877, Control_c, 0, 64, 127
2, 22903, Note_on_c, 0, 74, 0
2, 22903, Note_on_c, 0, 71, 0
2, 22904, Note_on_c, 0, 79, 0
2, 22920, Note_on_c, 0, 71, 64
2, 22920, Note_on_c, 0, 79, 62
2, 22920, Note_on_c, 0, 74, 76
2, 22951, Note_on_c, 0, 74, 0
2, 22952, Note_on_c, 0, 71, 0
2, 22954, Note_on_c, 0, 79, 0
2, 22980, Note_on_c, 0, 71, 72
2, 22980, Note_on_c, 0, 79, 76
2, 22980, Note_on_c, 0, 74, 76
2, 23008, Note_on_c, 0, 71, 0
2, 23009, Note_on_c, 0, 74, 0
2, 23009, Note_on_c, 0, 79, 0
2, 23040, Note_on_c, 0, 79, 80
2, 23040, Note_on_c, 0, 71, 85
2, 23040, Note_on_c, 0, 74, 89
2, 23046, Control_c, 0, 64, 0
2, 23065, Control_c, 0, 64, 127
2, 23100, Note_on_c, 0, 74, 0
2, 23100, Note_on_c, 0, 71, 0
2, 23106, Note_on_c, 0, 79, 0
2, 23207, Control_c, 0, 64, 0
2, 23220, Note_on_c, 0, 78, 60
2, 23220, Note_on_c, 0, 73, 55
2, 23220, Note_on_c, 0, 69, 60
2, 23223, Control_c, 0, 64, 127
2, 23234, Note_on_c, 0, 69, 0
2, 23240, Note_on_c, 0, 73, 0
2, 23246, Note_on_c, 0, 78, 0
2, 23280, Note_on_c, 0, 76, 76
2, 23280, Note_on_c, 0, 67, 48
2, 23280, Note_on_c, 0, 71, 55
2, 23281, Control_c, 0, 64, 0
2, 23295, Control_c, 0, 64, 127
2, 23310, Note_on_c, 0, 71, 0
2, 23313, Note_on_c, 0, 67, 0
2, 23314, Note_on_c, 0, 76, 0
2, 23340, Note_on_c, 0, 74, 72
2, 23340, Note_on_c, 0, 66, 56
2, 23340, Note_on_c, 0, 69, 62
2, 23343, Control_c, 0, 64, 0
2, 23357, Control_c, 0, 64, 127
2, 23368, Note_on_c, 0, 69, 0
2, 23371, Note_on_c, 0, 66, 0
2, 23374, Note_on_c, 0, 74, 0
2, 23400, Note_on_c, 0, 78, 76
2, 23400, Note_on_c, 0, 67, 68
2, 23400, Note_on_c, 0, 69, 72
2, 23409, Control_c, 0, 64, 0
2, 23436, Control_c, 0, 64, 127
2, 23460, Note_on_c, 0, 78, 0
2, 23460, Note_on_c, 0, 76, 57
2, 23515, Note_on_c, 0, 76, 0
2, 23516, Note_on_c, 0, 67, 0
2, 23519, Control_c, 0, 64, 0
2, 23520, Note_on_c, 0, 66, 39
2, 23520, Note_on_c, 0, 74, 55
2, 23537, Control_c, 0, 64, 127
2, 23550, Note_on_c, 0, 69, 0
2, 23553, Note_on_c, 0, 74, 0
2, 23557, Note_on_c, 0, 66, 0
2, 23580, Note_on_c, 0, 79, 80
2, 23580, Note_on_c, 0, 74, 80
2, 23580, Note_on_c, 0, 71, 76
2, 23583, Control_c, 0, 64, 0
2, 23611, Control_c, 0, 64, 127
2, 23621, Note_on_c, 0, 71, 0
2, 23623, Note_on_c, 0, 74, 0
2, 23626, Note_on_c, 0, 79, 0
2, 23640, Note_on_c, 0, 79, 85
2, 23640, Note_on_c, 0, 74, 93
2, 23640, Note_on_c, 0, 71, 89
2, 23669, Note_on_c, 0, 71, 0
2, 23670, Note_on_c, 0, 74, 0
2, 23670, Note_on_c, 0, 79, 0
2, 23700, Note_on_c, 0, 71, 68
2, 23700, Note_on_c, 0, 74, 72
2, 23700, Note_on_c, 0, 79, 80
2, 23720, Note_on_c, 0, 74, 0
2, 23720, Note_on_c, 0, 71, 0
2, 23726, Note_on_c, 0, 79, 0
2, 23760, Note_on_c, 0, 71, 57
2, 23760, Note_on_c, 0, 79, 76
2, 23760, Note_on_c, 0, 74, 56
2, 23773, Control_c, 0, 64, 0
2, 23802, Control_c, 0, 64, 127
2, 23859, Note_on_c, 0, 74, 0
2, 23862, Note_on_c, 0, 71, 0
2, 23874, Note_on_c, 0, 79, 0
2, 23928, Control_c, 0, 64, 0
2, 23939, Note_on_c, 0, 78, 59
2, 23940, Note_on_c, 0, 69, 53
2, 23940, Note_on_c, 0, 73, 53
2, 23943, Control_c, 0, 64, 127
2, 23959, Note_on_c, 0, 73, 0
2, 23962, Note_on_c, 0, 69, 0
2, 23972, Note_on_c, 0, 78, 0
2, 23997, Control_c, 0, 64, 0
2, 24000, Note_on_c, 0, 76, 64
2, 24000, Note_on_c, 0, 67, 31
2, 24000, Note_on_c, 0, 71, 43
2, 24011, Control_c, 0, 64, 127
2, 24030, Note_on_c, 0, 71, 0
2, 24036, Note_on_c, 0, 67, 0
2, 24041, Note_on_c, 0, 76, 0
2, 24058, Control_c, 0, 64, 0
2, 24060, Note_on_c, 0, 74, 62
2, 24060, Note_on_c, 0, 66, 39
2, 24060, Note_on_c, 0, 69, 35
2, 24072, Control_c, 0, 64, 127
2, 24081, Note_on_c, 0, 69, 0
2, 24090, Note_on_c, 0, 66, 0
2, 24093, Note_on_c, 0, 74, 0
2, 24120, Note_on_c, 0, 78, 59
2, 24120, Note_on_c, 0, 67, 53
2, 24120, Note_on_c, 0, 69, 56
2, 24125, Control_c, 0, 64, 0
2, 24150, Control_c, 0, 64, 127
2, 24180, Note_on_c, 0, 78, 0
2, 24180, Note_on_c, 0, 76, 55
2, 24240, Note_on_c, 0, 76, 0
2, 24240, Note_on_c, 0, 67, 0
2, 24240, Note_on_c, 0, 66, 53
2, 24240, Note_on_c, 0, 74, 60
2, 24240, Control_c, 0, 64, 0
2, 24255, Control_c, 0, 64, 127
2, 24270, Note_on_c, 0, 74, 0
2, 24272, Note_on_c, 0, 69, 0
2, 24273, Note_on_c, 0, 66, 0
2, 24296, Control_c, 0, 64, 0
2, 24300, Note_on_c, 0, 74, 89
2, 24300, Note_on_c, 0, 79, 89
2, 24300, Note_on_c, 0, 71, 89
2, 24310, Note_on_c, 0, 71, 0
2, 24311, Note_on_c, 0, 74, 0
2, 24312, Note_on_c, 0, 79, 0
2, 24360, Note_on_c, 0, 71, 98
2, 24360, Note_on_c, 0, 79, 98
2, 24360, Note_on_c, 0, 74, 93
2, 24370, Note_on_c, 0, 74, 0
2, 24373, Note_on_c, 0, 71, 0
2, 24374, Note_on_c, 0, 79, 0
2, 24420, Note_on_c, 0, 71, 93
2, 24420, Note_on_c, 0, 79, 98
2, 24420, Note_on_c, 0, 74, 98
2, 24429, Note_on_c, 0, 74, 0
2, 24430, Note_on_c, 0, 71, 0
2, 24431, Note_on_c, 0, 79, 0
2, 24480, Note_on_c, 0, 71, 102
2, 24480, Note_on_c, 0, 74, 102
2, 24480, Note_on_c, 0, 79, 102
2, 24495, Control_c, 0, 64, 127
2, 24595, Note_on_c, 0, 71, 0
2, 24596, Note_on_c, 0, 74, 0
2, 24597, Note_on_c, 0, 79, 0
2, 24652, Control_c, 0, 64, 0
2, 24660, Note_on_c, 0, 78, 102
2, 24660, Note_on_c, 0, 73, 89
2, 24660, Note_on_c, 0, 69, 85
2, 24664, Control_c, 0, 64, 127
2, 24683, Note_on_c, 0, 69, 0
2, 24686, Note_on_c, 0, 73, 0
2, 24693, Note_on_c, 0, 78, 0
2, 24714, Control_c, 0, 64, 0
2, 24720, Note_on_c, 0, 76, 93
2, 24720, Note_on_c, 0, 67, 85
2, 24720, Note_on_c, 0, 71, 85
2, 24727, Control_c, 0, 64, 127
2, 24750, Note_on_c, 0, 71, 0
2, 24753, Note_on_c, 0, 67, 0
2, 24773, Control_c, 0, 64, 0
2, 24779, Note_on_c, 0, 76, 0
2, 24780, Note_on_c, 0, 74, 98
2, 24780, Note_on_c, 0, 66, 72
2, 24780, Note_on_c, 0, 69, 85
2, 24787, Control_c, 0, 64, 127
2, 24807, Note_on_c, 0, 66, 0
2, 24808, Note_on_c, 0, 69, 0
2, 24817, Note_on_c, 0, 74, 0
2, 24838, Control_c, 0, 64, 0
2, 24840, Note_on_c, 0, 64, 72
2, 24840, Note_on_c, 0, 67, 68
2, 24840, Note_on_c, 0, 74, 93
2, 24872, Control_c, 0, 64, 127
2, 24960, Note_on_c, 0, 73, 76
2, 24961, Control_c, 0, 64, 0
2, 24969, Note_on_c, 0, 74, 0
2, 24973, Control_c, 0, 64, 127
2, 24989, Note_on_c, 0, 73, 0
2, 25002, Note_on_c, 0, 67, 0
2, 25005, Note_on_c, 0, 64, 0
2, 25020, Note_on_c, 0, 64, 89
2, 25020, Note_on_c, 0, 73, 93
2, 25020, Note_on_c, 0, 83, 113
2, 25021, Control_c, 0, 64, 0
2, 25030, Note_on_c, 0, 73, 0
2, 25035, Note_on_c, 0, 64, 0
2, 25040, Note_on_c, 0, 83, 0
2, 25080, Note_on_c, 0, 74, 93
2, 25080, Note_on_c, 0, 81, 93
2, 25080, Note_on_c, 0, 66, 80
2, 25091, Note_on_c, 0, 74, 0
2, 25094, Note_on_c, 0, 66, 0
2, 25096, Note_on_c, 0, 81, 0
2, 25140, Note_on_c, 0, 73, 89
2, 25140, Note_on_c, 0, 79, 93
2, 25140, Note_on_c, 0, 67, 93
2, 25153, Note_on_c, 0, 79, 0
2, 25154, Note_on_c, 0, 73, 0
2, 25157, Note_on_c, 0, 67, 0
2, 25200, Note_on_c, 0, 78, 80
2, 25200, Note_on_c, 0, 74, 93
2, 25200, Note_on_c, 0, 69, 89
2, 25201, Control_c, 0, 64, 127
2, 25256, Note_on_c, 0, 74, 0
2, 25258, Note_on_c, 0, 69, 0
2, 25258, Note_on_c, 0, 78, 0
2, 25259, Control_c, 0, 64, 0
2, 25320, Note_on_c, 0, 76, 98
2, 25320, Note_on_c, 0, 79, 93
2, 25320, Note_on_c, 0, 71, 93
2, 25325, Control_c, 0, 64, 127
2, 25361, Note_on_c, 0, 71, 0
2, 25362, Note_on_c, 0, 79, 0
2, 25365, Note_on_c, 0, 76, 0
2, 25384, Control_c, 0, 64, 0
2, 25440, Note_on_c, 0, 64, 76
2, 25440, Note_on_c, 0, 67, 85
2, 25440, Note_on_c, 0, 69, 98
2, 25440, Note_on_c, 0, 73, 93
2, 25450, Control_c, 0, 64, 127
2, 25501, Note_on_c, 0, 73, 0
2, 25501, Note_on_c, 0, 69, 0
2, 25502, Note_on_c, 0, 67, 0
2, 25502, Note_on_c, 0, 64, 0
2, 25506, Control_c, 0, 64, 0
2, 25560, Note_on_c, 0, 74, 93
2, 25560, Note_on_c, 0, 69, 89
2, 25560, Note_on_c, 0, 62, 76
2, 25560, Note_on_c, 0, 66, 76
2, 25571, Control_c, 0, 64, 127
2, 25679, Control_c, 0, 64, 0
2, 25681, Note_on_c, 0, 66, 0
2, 25682, Note_on_c, 0, 62, 0
2, 25683, Note_on_c, 0, 69, 0
2, 25684, Note_on_c, 0, 74, 0
2, 26280, Note_on_c, 0, 81, 80
2, 26280, Note_on_c, 0, 81, 89
2, 26280, Note_on_c, 0, 69, 85
2, 26362, Note_on_c, 0, 69, 0
2, 26364, Note_on_c, 0, 81, 0
2, 26370, Note_on_c, 0, 71, 64
2, 26370, Note_on_c, 0, 83, 68
2, 26385, Note_on_c, 0, 83, 0
2, 26385, Note_on_c, 0, 73, 72
2, 26385, Note_on_c, 0, 85, 59
2, 26389, Note_on_c, 0, 71, 0
2, 26397, Note_on_c, 0, 85, 0
2, 26400, Note_on_c, 0, 86, 80
2, 26400, Note_on_c, 0, 74, 76
2, 26404, Note_on_c, 0, 73, 0
2, 26449, Note_on_c, 0, 81, 0
2, 26509, Note_on_c, 0, 74, 0
2, 26513, Note_on_c, 0, 86, 0
2, 27000, Note_on_c, 0, 81, 80
2, 27000, Note_on_c, 0, 69, 72
2, 27095, Note_on_c, 0, 71, 64
2, 27095, Note_on_c, 0, 83, 72
2, 27097, Note_on_c, 0, 81, 0
2, 27098, Note_on_c, 0, 69, 0
2, 27111, Note_on_c, 0, 83, 0
2, 27111, Note_on_c, 0, 85, 62
2, 27112, Note_on_c, 0, 73, 62
2, 27114, Note_on_c, 0, 71, 0
2, 27124, Note_on_c, 0, 85, 0
2, 27127, Note_on_c, 0, 86, 76
2, 27129, Note_on_c, 0, 73, 0
2, 27131, Note_on_c, 0, 74, 56
2, 27246, Note_on_c, 0, 86, 0
2, 27249, Note_on_c, 0, 74, 0
2, 27540, Note_on_c, 0, 83, 107
2, 27540, Note_on_c, 0, 71, 93
2, 27549, Note_on_c, 0, 71, 0
2, 27549, Note_on_c, 0, 83, 0
2, 27600, Note_on_c, 0, 71, 107
2, 27600, Note_on_c, 0, 83, 107
2, 27609, Note_on_c, 0, 83, 0
2, 27610, Note_on_c, 0, 71, 0
2, 27660, Note_on_c, 0, 83, 102
2, 27660, Note_on_c, 0, 71, 93
2, 27671, Note_on_c, 0, 71, 0
2, 27671, Note_on_c, 0, 83, 0
2, 27720, Note_on_c, 0, 83, 107
2, 27720, Note_on_c, 0, 71, 93
2, 27738, Control_c, 0, 64, 127
2, 27895, Control_c, 0, 64, 0
2, 27899, Note_on_c, 0, 71, 0
2, 27900, Note_on_c, 0, 69, 89
2, 27900, Note_on_c, 0, 81, 93
2, 27906, Note_on_c, 0, 83, 0
2, 27911, Note_on_c, 0, 81, 0
2, 27915, Note_on_c, 0, 69, 0
2, 27960, Note_on_c, 0, 81, 107
2, 27960, Note_on_c, 0, 69, 98
2, 27970, Note_on_c, 0, 69, 0
2, 27970, Note_on_c, 0, 81, 0
2, 28020, Note_on_c, 0, 69, 98
2, 28020, Note_on_c, 0, 81, 107
2, 28029, Note_on_c, 0, 81, 0
2, 28031, Note_on_c, 0, 69, 0
2, 28080, Note_on_c, 0, 69, 93
2, 28080, Note_on_c, 0, 81, 98
2, 28134, Control_c, 0, 64, 127
2, 28252, Control_c, 0, 64, 0
2, 28257, Note_on_c, 0, 69, 0
2, 28258, Note_on_c, 0, 81, 0
2, 28260, Note_on_c, 0, 67, 85
2, 28260, Note_on_c, 0, 79, 93
2, 28269, Note_on_c, 0, 79, 0
2, 28269, Note_on_c, 0, 67, 0
2, 28320, Note_on_c, 0, 79, 107
2, 28320, Note_on_c, 0, 67, 98
2, 28330, Note_on_c, 0, 79, 0
2, 28331, Note_on_c, 0, 67, 0
2, 28380, Note_on_c, 0, 79, 93
2, 28380, Note_on_c, 0, 67, 76
2, 28390, Note_on_c, 0, 79, 0
2, 28391, Note_on_c, 0, 67, 0
2, 28440, Note_on_c, 0, 79, 98
2, 28440, Note_on_c, 0, 67, 93
2, 28481, Control_c, 0, 64, 127
2, 28595, Note_on_c, 0, 67, 0
2, 28601, Control_c, 0, 64, 0
2, 28609, Note_on_c, 0, 79, 0
2, 28620, Note_on_c, 0, 76, 72
2, 28677, Control_c, 0, 64, 127
2, 28680, Note_on_c, 0, 76, 0
2, 28680, Note_on_c, 0, 79, 62
2, 28690, Control_c, 0, 64, 0
2, 28713, Control_c, 0, 64, 127
2, 28740, Note_on_c, 0, 76, 60
2, 28741, Note_on_c, 0, 79, 0
2, 28800, Note_on_c, 0, 74, 72
2, 28800, Control_c, 0, 64, 0
2, 28805, Note_on_c, 0, 76, 0
2, 28845, Control_c, 0, 64, 127
2, 28920, Note_on_c, 0, 78, 64
2, 28923, Control_c, 0, 64, 0
2, 28925, Note_on_c, 0, 74, 0
2, 28963, Control_c, 0, 64, 127
2, 29040, Note_on_c, 0, 81, 62
2, 29046, Note_on_c, 0, 78, 0
2, 29049, Control_c, 0, 64, 0
2, 29074, Control_c, 0, 64, 127
2, 29134, Note_on_c, 0, 81, 0
2, 29160, Note_on_c, 0, 81, 72
2, 29172, Control_c, 0, 64, 0
2, 29214, Control_c, 0, 64, 127
2, 29400, Note_on_c, 0, 81, 0
2, 29400, Note_on_c, 0, 73, 60
2, 29404, Control_c, 0, 64, 0
2, 29432, Control_c, 0, 64, 127
2, 29503, Note_on_c, 0, 73, 0
2, 29520, Note_on_c, 0, 74, 72
2, 29520, Note_on_c, 0, 74, 80
2, 29535, Control_c, 0, 64, 127
2, 29548, Note_on_c, 0, 74, 0
2, 29550, Note_on_c, 0, 69, 62
2, 29577, Note_on_c, 0, 69, 0
2, 29579, Control_c, 0, 64, 0
2, 29580, Note_on_c, 0, 74, 76
2, 29582, Note_on_c, 0, 74, 0
2, 29609, Control_c, 0, 64, 127
2, 29610, Note_on_c, 0, 78, 57
2, 29611, Note_on_c, 0, 74, 0
2, 29633, Control_c, 0, 64, 0
2, 29640, Note_on_c, 0, 81, 60
2, 29641, Note_on_c, 0, 78, 0
2, 29662, Control_c, 0, 64, 127
2, 29764, Control_c, 0, 64, 0
2, 29773, Note_on_c, 0, 81, 0
2, 29880, Note_on_c, 0, 81, 72
2, 29890, Control_c, 0, 64, 127
2, 29910, Note_on_c, 0, 83, 80
2, 29914, Note_on_c, 0, 81, 0
2, 29917, Control_c, 0, 64, 0
2, 29940, Note_on_c, 0, 85, 72
2, 29943, Note_on_c, 0, 83, 0
2, 29969, Note_on_c, 0, 85, 0
2, 29970, Note_on_c, 0, 86, 76
2, 30000, Note_on_c, 0, 81, 72
2, 30004, Note_on_c, 0, 86, 0
2, 30036, Control_c, 0, 64, 127
2, 30115, Note_on_c, 0, 81, 0
2, 30124, Control_c, 0, 64, 0
2, 30240, Note_on_c, 0, 74, 76
2, 30251, Control_c, 0, 64, 127
2, 30270, Note_on_c, 0, 69, 62
2, 30273, Note_on_c, 0, 74, 0
2, 30293, Control_c, 0, 64, 0
2, 30300, Note_on_c, 0, 74, 80
2, 30305, Note_on_c, 0, 69, 0
2, 30330, Note_on_c, 0, 78, 60
2, 30333, Note_on_c, 0, 74, 0
2, 30360, Note_on_c, 0, 81, 76
2, 30361, Note_on_c, 0, 78, 0
2, 30392, Control_c, 0, 64, 127
2, 30448, Note_on_c, 0, 81, 0
2, 30482, Control_c, 0, 64, 0
2, 30600, Note_on_c, 0, 81, 80
2, 30614, Control_c, 0, 64, 127
2, 30630, Note_on_c, 0, 83, 68
2, 30633, Note_on_c, 0, 81, 0
2, 30633, Control_c, 0, 64, 0
2, 30660, Note_on_c, 0, 85, 72
2, 30666, Note_on_c, 0, 83, 0
2, 30687, Note_on_c, 0, 85, 0
2, 30690, Note_on_c, 0, 86, 60
2, 30719, Note_on_c, 0, 86, 0
2, 30720, Note_on_c, 0, 81, 68
2, 30753, Control_c, 0, 64, 127
2, 30834, Note_on_c, 0, 81, 0
2, 30841, Control_c, 0, 64, 0
2, 30960, Note_on_c, 0, 81, 113
2, 30960, Note_on_c, 0, 69, 85
2, 30974, Control_c, 0, 64, 127
2, 30982, Control_c, 0, 64, 0
2, 30990, Note_on_c, 0, 71, 68
2, 30990, Note_on_c, 0, 83, 93
2, 30993, Note_on_c, 0, 69, 0
2, 30993, Note_on_c, 0, 81, 0
2, 31016, Note_on_c, 0, 83, 0
2, 31020, Note_on_c, 0, 73, 68
2, 31020, Note_on_c, 0, 85, 80
2, 31026, Note_on_c, 0, 71, 0
2, 31047, Note_on_c, 0, 85, 0
2, 31050, Note_on_c, 0, 86, 93
2, 31050, Note_on_c, 0, 74, 80
2, 31052, Note_on_c, 0, 73, 0
2, 31080, Note_on_c, 0, 73, 72
2, 31080, Note_on_c, 0, 85, 85
2, 31082, Note_on_c, 0, 74, 0
2, 31084, Note_on_c, 0, 86, 0
2, 31107, Note_on_c, 0, 85, 0
2, 31110, Note_on_c, 0, 83, 89
2, 31110, Note_on_c, 0, 71, 80
2, 31111, Note_on_c, 0, 73, 0
2, 31137, Note_on_c, 0, 71, 0
2, 31140, Note_on_c, 0, 69, 80
2, 31140, Note_on_c, 0, 81, 93
2, 31143, Note_on_c, 0, 83, 0
2, 31170, Note_on_c, 0, 81, 0
2, 31170, Note_on_c, 0, 69, 0
2, 31170, Note_on_c, 0, 79, 64
2, 31170, Note_on_c, 0, 67, 76
2, 31200, Note_on_c, 0, 66, 62
2, 31200, Note_on_c, 0, 78, 76
2, 31201, Note_on_c, 0, 67, 0
2, 31201, Note_on_c, 0, 79, 0
2, 31230, Note_on_c, 0, 76, 89
2, 31230, Note_on_c, 0, 64, 89
2, 31231, Note_on_c, 0, 78, 0
2, 31233, Note_on_c, 0, 66, 0
2, 31245, Control_c, 0, 64, 127
2, 31257, Note_on_c, 0, 64, 0
2, 31260, Note_on_c, 0, 62, 72
2, 31260, Note_on_c, 0, 74, 85
2, 31261, Note_on_c, 0, 76, 0
2, 31287, Note_on_c, 0, 74, 0
2, 31289, Control_c, 0, 64, 0
2, 31290, Note_on_c, 0, 73, 76
2, 31290, Note_on_c, 0, 61, 76
2, 31291, Note_on_c, 0, 62, 0
2, 31320, Note_on_c, 0, 61, 0
2, 31320, Note_on_c, 0, 73, 0
2, 31320, Note_on_c, 0, 74, 89
2, 31320, Note_on_c, 0, 62, 89
2, 31350, Note_on_c, 0, 74, 0
2, 31350, Note_on_c, 0, 64, 85
2, 31350, Note_on_c, 0, 76, 89
2, 31356, Note_on_c, 0, 62, 0
2, 31379, Note_on_c, 0, 76, 0
2, 31380, Note_on_c, 0, 66, 76
2, 31380, Note_on_c, 0, 78, 80
2, 31381, Note_on_c, 0, 64, 0
2, 31408, Note_on_c, 0, 78, 0
2, 31410, Note_on_c, 0, 79, 89
2, 31410, Note_on_c, 0, 67, 89
2, 31411, Note_on_c, 0, 66, 0
2, 31440, Note_on_c, 0, 66, 72
2, 31440, Note_on_c, 0, 78, 89
2, 31441, Note_on_c, 0, 67, 0
2, 31443, Note_on_c, 0, 79, 0
2, 31470, Note_on_c, 0, 78, 0
2, 31470, Note_on_c, 0, 64, 76
2, 31470, Note_on_c, 0, 76, 93
2, 31472, Note_on_c, 0, 66, 0
2, 31497, Note_on_c, 0, 64, 0
2, 31499, Note_on_c, 0, 76, 0
2, 31500, Note_on_c, 0, 62, 89
2, 31500, Note_on_c, 0, 74, 93
2, 31505, Control_c, 0, 64, 127
2, 31529, Note_on_c, 0, 74, 0
2, 31530, Note_on_c, 0, 61, 76
2, 31530, Note_on_c, 0, 73, 89
2, 31531, Note_on_c, 0, 62, 0
2, 31559, Note_on_c, 0, 73, 0
2, 31559, Note_on_c, 0, 61, 0
2, 31560, Note_on_c, 0, 71, 93
2, 31560, Note_on_c, 0, 59, 80
2, 31566, Control_c, 0, 64, 0
2, 31588, Note_on_c, 0, 71, 0
2, 31590, Note_on_c, 0, 59, 0
2, 31590, Note_on_c, 0, 69, 76
2, 31590, Note_on_c, 0, 57, 93
2, 31602, Control_c, 0, 64, 127
2, 31616, Note_on_c, 0, 69, 0
2, 31618, Note_on_c, 0, 57, 0
2, 31620, Note_on_c, 0, 55, 76
2, 31620, Note_on_c, 0, 67, 89
2, 31648, Note_on_c, 0, 55, 0
2, 31649, Note_on_c, 0, 67, 0
2, 31650, Note_on_c, 0, 54, 57
2, 31650, Note_on_c, 0, 66, 80
2, 31675, Note_on_c, 0, 66, 0
2, 31680, Note_on_c, 0, 54, 0
2, 31680, Control_c, 0, 64, 0
2, 31680, Note_on_c, 0, 57, 107
2, 31680, Note_on_c, 0, 69, 102
2, 31710, Note_on_c, 0, 55, 60
2, 31710, Note_on_c, 0, 67, 80
2, 31713, Note_on_c, 0, 69, 0
2, 31713, Note_on_c, 0, 57, 0
2, 31740, Note_on_c, 0, 67, 0
2, 31740, Note_on_c, 0, 54, 72
2, 31740, Note_on_c, 0, 66, 80
2, 31741, Note_on_c, 0, 55, 0
2, 31764, Control_c, 0, 64, 127
2, 31769, Note_on_c, 0, 54, 0
2, 31770, Note_on_c, 0, 66, 0
2, 31770, Note_on_c, 0, 52, 76
2, 31770, Note_on_c, 0, 64, 93
2, 31789, Control_c, 0, 64, 0
2, 31797, Note_on_c, 0, 64, 0
2, 31800, Note_on_c, 0, 69, 107
2, 31800, Note_on_c, 0, 57, 102
2, 31805, Note_on_c, 0, 52, 0
2, 31817, Control_c, 0, 64, 127
2, 31830, Note_on_c, 0, 69, 0
2, 31831, Note_on_c, 0, 57, 0
2, 31886, Control_c, 0, 64, 0
2, 31920, Note_on_c, 0, 85, 93
2, 31920, Note_on_c, 0, 81, 107
2, 31920, Note_on_c, 0, 76, 107
2, 31920, Note_on_c, 0, 69, 98
2, 31934, Control_c, 0, 64, 127
2, 31979, Note_on_c, 0, 69, 0
2, 31979, Note_on_c, 0, 85, 0
2, 31979, Note_on_c, 0, 81, 0
2, 31979, Note_on_c, 0, 76, 0
2, 32021, Control_c, 0, 64, 0
2, 32040, Note_on_c, 0, 78, 93
2, 32040, Note_on_c, 0, 86, 107
2, 32040, Note_on_c, 0, 81, 102
2, 32040, Note_on_c, 0, 69, 98
2, 32056, Control_c, 0, 64, 127
2, 32099, Note_on_c, 0, 69, 0
2, 32099, Note_on_c, 0, 78, 0
2, 32099, Note_on_c, 0, 86, 0
2, 32099, Note_on_c, 0, 81, 0
2, 32144, Control_c, 0, 64, 0
2, 32160, Note_on_c, 0, 66, 93
2, 32160, Note_on_c, 0, 69, 93
2, 32160, Note_on_c, 0, 74, 113
2, 32179, Control_c, 0, 64, 127
2, 32280, Note_on_c, 0, 74, 0
2, 32280, Note_on_c, 0, 69, 0
2, 32280, Note_on_c, 0, 66, 0
2, 32291, Control_c, 0, 64, 0
2, 32400, Note_on_c, 0, 71, 72
2, 32421, Control_c, 0, 64, 127
2, 32430, Note_on_c, 0, 71, 0
2, 32430, Note_on_c, 0, 66, 62
2, 32447, Control_c, 0, 64, 0
2, 32460, Note_on_c, 0, 66, 0
2, 32460, Note_on_c, 0, 71, 76
2, 32490, Note_on_c, 0, 71, 0
2, 32490, Note_on_c, 0, 74, 52
2, 32520, Note_on_c, 0, 74, 0
2, 32520, Note_on_c, 0, 78, 57
2, 32558, Control_c, 0, 64, 127
2, 32595, Note_on_c, 0, 78, 0
2, 32627, Control_c, 0, 64, 0
2, 32760, Note_on_c, 0, 78, 68
2, 32790, Note_on_c, 0, 78, 0
2, 32790, Note_on_c, 0, 80, 62
2, 32820, Note_on_c, 0, 80, 0
2, 32820, Note_on_c, 0, 82, 62
2, 32850, Note_on_c, 0, 82, 0
2, 32850, Note_on_c, 0, 83, 72
2, 32880, Note_on_c, 0, 83, 0
2, 32880, Note_on_c, 0, 78, 57
2, 32908, Control_c, 0, 64, 127
2, 32955, Note_on_c, 0, 78, 0
2, 32994, Control_c, 0, 64, 0
2, 33120, Note_on_c, 0, 71, 59
2, 33150, Note_on_c, 0, 71, 0
2, 33150, Note_on_c, 0, 66, 60
2, 33152, Control_c, 0, 64, 127
2, 33167, Control_c, 0, 64, 0
2, 33180, Note_on_c, 0, 66, 0
2, 33180, Note_on_c, 0, 71, 76
2, 33210, Note_on_c, 0, 71, 0
2, 33210, Note_on_c, 0, 74, 62
2, 33240, Note_on_c, 0, 74, 0
2, 33240, Note_on_c, 0, 78, 64
2, 33280, Control_c, 0, 64, 127
2, 33315, Note_on_c, 0, 78, 0
2, 33321, Control_c, 0, 64, 0
2, 33480, Note_on_c, 0, 78, 60
2, 33505, Control_c, 0, 64, 127
2, 33510, Note_on_c, 0, 78, 0
2, 33510, Note_on_c, 0, 80, 72
2, 33518, Control_c, 0, 64, 0
2, 33540, Note_on_c, 0, 80, 0
2, 33540, Note_on_c, 0, 82, 62
2, 33570, Note_on_c, 0, 82, 0
2, 33570, Note_on_c, 0, 83, 64
2, 33600, Note_on_c, 0, 83, 0
2, 33600, Note_on_c, 0, 78, 59
2, 33647, Control_c, 0, 64, 127
2, 33675, Note_on_c, 0, 78, 0
2, 33686, Control_c, 0, 64, 0
2, 34380, Note_on_c, 0, 77, 72
2, 34380, Note_on_c, 0, 83, 80
2, 34380, Note_on_c, 0, 79, 89
2, 34380, Note_on_c, 0, 77, 85
2, 34382, Control_c, 0, 64, 127
2, 34405, Control_c, 0, 64, 127
2, 34425, Note_on_c, 0, 79, 0
2, 34425, Note_on_c, 0, 77, 0
2, 34425, Note_on_c, 0, 83, 0
2, 34427, Note_on_c, 0, 77, 0
2, 34440, Note_on_c, 0, 77, 60
2, 34440, Note_on_c, 0, 83, 68
2, 34440, Note_on_c, 0, 79, 72
2, 34440, Note_on_c, 0, 77, 85
2, 34470, Note_on_c, 0, 79, 0
2, 34470, Note_on_c, 0, 77, 0
2, 34470, Note_on_c, 0, 83, 0
2, 34488, Note_on_c, 0, 77, 0
2, 34500, Note_on_c, 0, 83, 76
2, 34500, Note_on_c, 0, 77, 68
2, 34500, Note_on_c, 0, 79, 76
2, 34500, Note_on_c, 0, 77, 89
2, 34530, Note_on_c, 0, 79, 0
2, 34530, Note_on_c, 0, 83, 0
2, 34530, Note_on_c, 0, 77, 0
2, 34537, Note_on_c, 0, 77, 0
2, 34554, Control_c, 0, 64, 0
2, 34559, Control_c, 0, 64, 0
2, 34560, Note_on_c, 0, 84, 68
2, 34560, Note_on_c, 0, 79, 80
2, 34560, Note_on_c, 0, 76, 76
2, 34560, Note_on_c, 0, 76, 89
2, 34592, Control_c, 0, 64, 127
2, 34601, Control_c, 0, 64, 127
2, 34635, Note_on_c, 0, 76, 0
2, 34635, Note_on_c, 0, 84, 0
2, 34635, Note_on_c, 0, 79, 0
2, 34676, Control_c, 0, 64, 0
2, 34685, Note_on_c, 0, 76, 0
2, 34686, Control_c, 0, 64, 0
2, 34740, Note_on_c, 0, 89, 85
2, 34740, Note_on_c, 0, 83, 76
2, 34740, Note_on_c, 0, 79, 68
2, 34740, Note_on_c, 0, 79, 89
2, 34744, Control_c, 0, 64, 127
2, 34764, Control_c, 0, 64, 127
2, 34785, Note_on_c, 0, 79, 0
2, 34785, Note_on_c, 0, 89, 0
2, 34785, Note_on_c, 0, 83, 0
2, 34786, Note_on_c, 0, 79, 0
2, 34800, Note_on_c, 0, 89, 80
2, 34800, Note_on_c, 0, 79, 68
2, 34800, Note_on_c, 0, 83, 80
2, 34800, Note_on_c, 0, 79, 85
2, 34830, Note_on_c, 0, 83, 0
2, 34830, Note_on_c, 0, 89, 0
2, 34830, Note_on_c, 0, 79, 0
2, 34848, Note_on_c, 0, 79, 0
2, 34860, Note_on_c, 0, 89, 62
2, 34860, Note_on_c, 0, 83, 80
2, 34860, Note_on_c, 0, 79, 76
2, 34860, Note_on_c, 0, 79, 85
2, 34874, Note_on_c, 0, 79, 0
2, 34874, Note_on_c, 0, 83, 0
2, 34890, Note_on_c, 0, 89, 0
2, 34903, Note_on_c, 0, 79, 0
2, 34911, Control_c, 0, 64, 0
2, 34920, Note_on_c, 0, 84, 80
2, 34920, Note_on_c, 0, 79, 76
2, 34920, Note_on_c, 0, 88, 76
2, 34920, Control_c, 0, 64, 0
2, 34920, Note_on_c, 0, 79, 93
2, 34947, Control_c, 0, 64, 127
2, 34958, Control_c, 0, 64, 127
2, 35010, Note_on_c, 0, 88, 0
2, 35010, Note_on_c, 0, 84, 0
2, 35010, Note_on_c, 0, 79, 0
2, 35014, Note_on_c, 0, 79, 0
2, 35034, Control_c, 0, 64, 0
2, 35034, Control_c, 0, 64, 0
2, 35100, Note_on_c, 0, 77, 76
2, 35100, Note_on_c, 0, 79, 76
2, 35100, Note_on_c, 0, 83, 76
2, 35100, Note_on_c, 0, 77, 89
2, 35103, Control_c, 0, 64, 127
2, 35116, Control_c, 0, 64, 127
2, 35145, Note_on_c, 0, 83, 0
2, 35145, Note_on_c, 0, 77, 0
2, 35145, Note_on_c, 0, 79, 0
2, 35149, Note_on_c, 0, 77, 0
2, 35160, Note_on_c, 0, 77, 68
2, 35160, Note_on_c, 0, 79, 68
2, 35160, Note_on_c, 0, 83, 68
2, 35160, Note_on_c, 0, 77, 85
2, 35190, Note_on_c, 0, 83, 0
2, 35190, Note_on_c, 0, 77, 0
2, 35190, Note_on_c, 0, 79, 0
2, 35202, Note_on_c, 0, 77, 0
2, 35220, Note_on_c, 0, 77, 72
2, 35220, Note_on_c, 0, 79, 72
2, 35220, Note_on_c, 0, 83, 72
2, 35220, Note_on_c, 0, 77, 89
2, 35250, Note_on_c, 0, 83, 0
2, 35250, Note_on_c, 0, 77, 0
2, 35250, Note_on_c, 0, 79, 0
2, 35256, Note_on_c, 0, 77, 0
2, 35276, Control_c, 0, 64, 0
2, 35276, Control_c, 0, 64, 0
2, 35280, Note_on_c, 0, 76, 72
2, 35280, Note_on_c, 0, 84, 76
2, 35280, Note_on_c, 0, 79, 80
2, 35280, Note_on_c, 0, 76, 89
2, 35312, Control_c, 0, 64, 127
2, 35317, Control_c, 0, 64, 127
2, 35385, Note_on_c, 0, 79, 0
2, 35385, Note_on_c, 0, 76, 0
2, 35400, Note_on_c, 0, 84, 0
2, 35401, Control_c, 0, 64, 0
2, 35407, Note_on_c, 0, 76, 0
2, 35409, Control_c, 0, 64, 0
2, 35640, Note_on_c, 0, 73, 72
2, 35652, Control_c, 0, 64, 127
2, 35670, Note_on_c, 0, 73, 0
2, 35670, Note_on_c, 0, 69, 76
2, 35679, Control_c, 0, 64, 0
2, 35700, Note_on_c, 0, 69, 0
2, 35700, Note_on_c, 0, 73, 72
2, 35730, Note_on_c, 0, 73, 0
2, 35730, Note_on_c, 0, 76, 62
2, 35760, Note_on_c, 0, 76, 0
2, 35760, Note_on_c, 0, 81, 76
2, 35789, Control_c, 0, 64, 127
2, 35865, Note_on_c, 0, 81, 0
2, 35873, Control_c, 0, 64, 0
2, 36000, Note_on_c, 0, 74, 85
2, 36014, Control_c, 0, 64, 127
2, 36030, Note_on_c, 0, 74, 0
2, 36030, Note_on_c, 0, 69, 80
2, 36041, Control_c, 0, 64, 0
2, 36060, Note_on_c, 0, 69, 0
2, 36060, Note_on_c, 0, 74, 89
2, 36078, Control_c, 0, 64, 127
2, 36090, Note_on_c, 0, 74, 0
2, 36090, Note_on_c, 0, 77, 89
2, 36096, Control_c, 0, 64, 0
2, 36120, Note_on_c, 0, 77, 0
2, 36120, Note_on_c, 0, 81, 93
2, 36146, Control_c, 0, 64, 127
2, 36195, Note_on_c, 0, 81, 0
2, 36238, Control_c, 0, 64, 0
2, 36360, Note_on_c, 0, 76, 93
2, 36390, Note_on_c, 0, 76, 0
2, 36390, Note_on_c, 0, 69, 85
2, 36420, Note_on_c, 0, 69, 0
2, 36420, Note_on_c, 0, 76, 98
2, 36450, Note_on_c, 0, 76, 0
2, 36450, Note_on_c, 0, 79, 102
2, 36480, Note_on_c, 0, 79, 0
2, 36480, Note_on_c, 0, 81, 93
2, 36526, Control_c, 0, 64, 127
2, 36555, Note_on_c, 0, 81, 0
2, 36591, Control_c, 0, 64, 0
2, 36720, Note_on_c, 0, 69, 62
2, 36750, Note_on_c, 0, 69, 0
2, 36840, Note_on_c, 0, 81, 62
2, 36870, Note_on_c, 0, 81, 0
2, 36960, Note_on_c, 0, 74, 76
2, 36990, Note_on_c, 0, 74, 0
2, 37080, Note_on_c, 0, 82, 72
2, 37110, Note_on_c, 0, 82, 0
2, 37200, Note_on_c, 0, 73, 59
2, 37230, Note_on_c, 0, 73, 0
2, 37440, Note_on_c, 0, 69, 72
2, 37454, Note_on_c, 0, 69, 0
2, 37560, Note_on_c, 0, 81, 72
2, 37590, Note_on_c, 0, 81, 0
2, 37680, Note_on_c, 0, 74, 80
2, 37694, Note_on_c, 0, 74, 0
2, 37800, Note_on_c, 0, 82, 68
2, 37830, Note_on_c, 0, 82, 0
2, 37920, Note_on_c, 0, 73, 62
2, 37950, Note_on_c, 0, 73, 0
2, 38220, Note_on_c, 0, 74, 85
2, 38233, Control_c, 0, 64, 127
2, 38250, Note_on_c, 0, 74, 0
2, 38250, Note_on_c, 0, 73, 80
2, 38280, Note_on_c, 0, 73, 0
2, 38280, Note_on_c, 0, 76, 93
2, 38282, Control_c, 0, 64, 0
2, 38310, Note_on_c, 0, 76, 0
2, 38310, Note_on_c, 0, 74, 80
2, 38340, Note_on_c, 0, 74, 0
2, 38340, Note_on_c, 0, 77, 89
2, 38370, Note_on_c, 0, 77, 0
2, 38370, Note_on_c, 0, 76, 89
2, 38378, Control_c, 0, 64, 127
2, 38388, Control_c, 0, 64, 0
2, 38400, Note_on_c, 0, 76, 0
2, 38400, Note_on_c, 0, 79, 93
2, 38428, Control_c, 0, 64, 127
2, 38430, Note_on_c, 0, 79, 0
2, 38430, Note_on_c, 0, 77, 76
2, 38460, Note_on_c, 0, 77, 0
2, 38460, Note_on_c, 0, 81, 89
2, 38462, Control_c, 0, 64, 0
2, 38490, Note_on_c, 0, 79, 85
2, 38490, Control_c, 0, 64, 127
2, 38505, Note_on_c, 0, 81, 0
2, 38510, Control_c, 0, 64, 0
2, 38520, Note_on_c, 0, 79, 0
2, 38520, Note_on_c, 0, 77, 80
2, 38520, Note_on_c, 0, 62, 93
2, 38520, Note_on_c, 0, 55, 89
2, 38520, Note_on_c, 0, 65, 93
2, 38541, Control_c, 0, 64, 127
2, 38545, Control_c, 0, 64, 127
2, 38550, Note_on_c, 0, 77, 0
2, 38550, Note_on_c, 0, 76, 44
2, 38560, Control_c, 0, 64, 0
2, 38580, Note_on_c, 0, 76, 0
2, 38580, Note_on_c, 0, 74, 85
2, 38608, Control_c, 0, 64, 127
2, 38610, Note_on_c, 0, 74, 0
2, 38610, Note_on_c, 0, 72, 64
2, 38635, Control_c, 0, 64, 0
2, 38640, Note_on_c, 0, 72, 0
2, 38640, Note_on_c, 0, 71, 93
2, 38664, Control_c, 0, 64, 127
2, 38670, Note_on_c, 0, 71, 0
2, 38670, Note_on_c, 0, 72, 85
2, 38680, Control_c, 0, 64, 0
2, 38700, Note_on_c, 0, 74, 76
2, 38715, Note_on_c, 0, 72, 0
2, 38715, Control_c, 0, 64, 127
2, 38730, Note_on_c, 0, 74, 0
2, 38730, Note_on_c, 0, 76, 76
2, 38760, Note_on_c, 0, 76, 0
2, 38760, Note_on_c, 0, 79, 80
2, 38764, Control_c, 0, 64, 0
2, 38790, Note_on_c, 0, 79, 0
2, 38790, Note_on_c, 0, 77, 89
2, 38804, Control_c, 0, 64, 127
2, 38820, Note_on_c, 0, 74, 89
2, 38822, Control_c, 0, 64, 0
2, 38835, Note_on_c, 0, 77, 0
2, 38850, Note_on_c, 0, 74, 0
2, 38850, Control_c, 0, 64, 127
2, 38850, Note_on_c, 0, 71, 76
2, 38856, Note_on_c, 0, 55, 0
2, 38861, Note_on_c, 0, 65, 0
2, 38874, Note_on_c, 0, 62, 0
2, 38879, Control_c, 0, 64, 0
2, 38880, Note_on_c, 0, 71, 0
2, 38880, Note_on_c, 0, 72, 107
2, 38880, Note_on_c, 0, 64, 76
2, 38880, Note_on_c, 0, 57, 72
2, 38885, Control_c, 0, 64, 0
2, 38910, Control_c, 0, 64, 127
2, 38914, Control_c, 0, 64, 127
2, 38940, Note_on_c, 0, 72, 0
2, 38946, Note_on_c, 0, 81, 98
2, 38947, Control_c, 0, 64, 0
2, 38960, Note_on_c, 0, 81, 0
2, 38970, Note_on_c, 0, 80, 85
2, 39000, Note_on_c, 0, 80, 0
2, 39000, Note_on_c, 0, 83, 93
2, 39006, Control_c, 0, 64, 0
2, 39008, Note_on_c, 0, 57, 0
2, 39013, Note_on_c, 0, 64, 0
2, 39026, Control_c, 0, 64, 127
2, 39030, Note_on_c, 0, 83, 0
2, 39030, Note_on_c, 0, 81, 85
2, 39058, Control_c, 0, 64, 0
2, 39060, Note_on_c, 0, 81, 0
2, 39060, Note_on_c, 0, 84, 93
2, 39086, Control_c, 0, 64, 127
2, 39090, Note_on_c, 0, 83, 89
2, 39105, Note_on_c, 0, 84, 0
2, 39119, Control_c, 0, 64, 0
2, 39120, Note_on_c, 0, 83, 0
2, 39120, Note_on_c, 0, 86, 93
2, 39146, Control_c, 0, 64, 127
2, 39150, Note_on_c, 0, 86, 0
2, 39150, Note_on_c, 0, 84, 85
2, 39180, Note_on_c, 0, 84, 0
2, 39180, Note_on_c, 0, 88, 89
2, 39182, Control_c, 0, 64, 0
2, 39208, Control_c, 0, 64, 127
2, 39210, Note_on_c, 0, 88, 0
2, 39210, Note_on_c, 0, 86, 89
2, 39234, Control_c, 0, 64, 0
2, 39240, Note_on_c, 0, 86, 0
2, 39240, Note_on_c, 0, 84, 93
2, 39240, Note_on_c, 0, 69, 85
2, 39240, Note_on_c, 0, 62, 85
2, 39240, Note_on_c, 0, 72, 85
2, 39253, Control_c, 0, 64, 127
2, 39270, Note_on_c, 0, 84, 0
2, 39270, Note_on_c, 0, 83, 76
2, 39272, Control_c, 0, 64, 127
2, 39300, Note_on_c, 0, 83, 0
2, 39300, Note_on_c, 0, 81, 72
2, 39330, Note_on_c, 0, 81, 0
2, 39330, Note_on_c, 0, 79, 85
2, 39352, Control_c, 0, 64, 0
2, 39360, Note_on_c, 0, 79, 0
2, 39360, Note_on_c, 0, 78, 68
2, 39381, Control_c, 0, 64, 127
2, 39390, Note_on_c, 0, 78, 0
2, 39390, Note_on_c, 0, 79, 89
2, 39418, Control_c, 0, 64, 0
2, 39420, Note_on_c, 0, 79, 0
2, 39420, Note_on_c, 0, 81, 93
2, 39447, Control_c, 0, 64, 127
2, 39450, Note_on_c, 0, 81, 0
2, 39450, Note_on_c, 0, 83, 89
2, 39480, Note_on_c, 0, 83, 0
2, 39480, Control_c, 0, 64, 0
2, 39480, Note_on_c, 0, 86, 80
2, 39510, Note_on_c, 0, 86, 0
2, 39510, Note_on_c, 0, 84, 89
2, 39540, Note_on_c, 0, 81, 80
2, 39555, Note_on_c, 0, 84, 0
2, 39570, Note_on_c, 0, 81, 0
2, 39570, Control_c, 0, 64, 127
2, 39570, Note_on_c, 0, 78, 57
2, 39587, Note_on_c, 0, 62, 0
2, 39599, Note_on_c, 0, 72, 0
2, 39600, Note_on_c, 0, 78, 0
2, 39600, Note_on_c, 0, 64, 60
2, 39600, Note_on_c, 0, 71, 72
2, 39602, Note_on_c, 0, 69, 0
2, 39602, Control_c, 0, 64, 0
2, 39605, Control_c, 0, 64, 0
2, 39630, Note_on_c, 0, 79, 89
2, 39639, Control_c, 0, 64, 127
2, 39660, Note_on_c, 0, 79, 0
2, 39660, Note_on_c, 0, 81, 98
2, 39687, Note_on_c, 0, 83, 85
2, 39690, Note_on_c, 0, 81, 0
2, 39690, Control_c, 0, 64, 127
2, 39717, Note_on_c, 0, 83, 0
2, 39719, Note_on_c, 0, 84, 72
2, 39723, Control_c, 0, 64, 0
2, 39725, Note_on_c, 0, 64, 0
2, 39726, Note_on_c, 0, 71, 0
2, 39729, Control_c, 0, 64, 0
2, 39749, Note_on_c, 0, 84, 0
2, 39750, Note_on_c, 0, 86, 80
2, 39778, Note_on_c, 0, 88, 89
2, 39780, Note_on_c, 0, 86, 0
2, 39787, Control_c, 0, 64, 127
2, 39808, Note_on_c, 0, 88, 0
2, 39810, Note_on_c, 0, 90, 72
2, 39840, Note_on_c, 0, 90, 0
2, 39840, Note_on_c, 0, 91, 80
2, 39842, Control_c, 0, 64, 0
2, 39870, Note_on_c, 0, 91, 0
2, 39870, Note_on_c, 0, 88, 68
2, 39899, Control_c, 0, 64, 127
2, 39900, Note_on_c, 0, 88, 0
2, 39900, Note_on_c, 0, 91, 80
2, 39930, Note_on_c, 0, 91, 0
2, 39930, Note_on_c, 0, 90, 80
2, 39960, Note_on_c, 0, 90, 0
2, 39960, Note_on_c, 0, 93, 93
2, 39960, Note_on_c, 0, 57, 85
2, 39960, Note_on_c, 0, 61, 85
2, 39962, Control_c, 0, 64, 0
2, 39979, Control_c, 0, 64, 127
2, 39990, Note_on_c, 0, 93, 0
2, 39990, Note_on_c, 0, 91, 76
2, 40005, Control_c, 0, 64, 127
2, 40020, Note_on_c, 0, 91, 0
2, 40020, Note_on_c, 0, 90, 76
2, 40029, Control_c, 0, 64, 0
2, 40050, Note_on_c, 0, 90, 0
2, 40050, Note_on_c, 0, 91, 89
2, 40062, Control_c, 0, 64, 127
2, 40076, Control_c, 0, 64, 0
2, 40080, Note_on_c, 0, 91, 0
2, 40080, Note_on_c, 0, 90, 76
2, 40080, Note_on_c, 0, 64, 93
2, 40082, Control_c, 0, 64, 0
2, 40091, Note_on_c, 0, 61, 0
2, 40110, Note_on_c, 0, 90, 0
2, 40110, Note_on_c, 0, 88, 89
2, 40140, Note_on_c, 0, 88, 0
2, 40140, Note_on_c, 0, 87, 72
2, 40140, Control_c, 0, 64, 127
2, 40153, Control_c, 0, 64, 127
2, 40170, Note_on_c, 0, 87, 0
2, 40170, Note_on_c, 0, 88, 76
2, 40190, Control_c, 0, 64, 0
2, 40196, Note_on_c, 0, 64, 0
2, 40196, Control_c, 0, 64, 0
2, 40200, Note_on_c, 0, 86, 89
2, 40200, Note_on_c, 0, 67, 89
2, 40214, Control_c, 0, 64, 127
2, 40215, Note_on_c, 0, 88, 0
2, 40230, Note_on_c, 0, 85, 76
2, 40233, Control_c, 0, 64, 127
2, 40245, Note_on_c, 0, 86, 0
2, 40257, Control_c, 0, 64, 0
2, 40260, Note_on_c, 0, 83, 89
2, 40275, Note_on_c, 0, 85, 0
2, 40290, Note_on_c, 0, 85, 89
2, 40297, Control_c, 0, 64, 127
2, 40305, Note_on_c, 0, 83, 0
2, 40309, Note_on_c, 0, 67, 0
2, 40309, Note_on_c, 0, 57, 0
2, 40312, Control_c, 0, 64, 0
2, 40315, Control_c, 0, 64, 0
2, 40320, Note_on_c, 0, 85, 0
2, 40320, Note_on_c, 0, 86, 98
2, 40320, Note_on_c, 0, 66, 72
2, 40342, Control_c, 0, 64, 127
2, 40357, Control_c, 0, 64, 127
2, 40425, Note_on_c, 0, 86, 0
2, 40437, Control_c, 0, 64, 0
2, 40447, Note_on_c, 0, 66, 0
2, 40457, Control_c, 0, 64, 0
2, 40557, Note_on_c, 0, 91, 72
2, 40560, Note_on_c, 0, 83, 98
2, 40571, Note_on_c, 0, 91, 0
2, 40572, Note_on_c, 0, 90, 64
2, 40573, Control_c, 0, 64, 127
2, 40575, Note_on_c, 0, 83, 0
2, 40575, Note_on_c, 0, 81, 85
2, 40586, Note_on_c, 0, 90, 0
2, 40587, Note_on_c, 0, 91, 68
2, 40589, Note_on_c, 0, 81, 0
2, 40590, Note_on_c, 0, 83, 89
2, 40600, Note_on_c, 0, 83, 0
2, 40601, Note_on_c, 0, 91, 0
2, 40602, Note_on_c, 0, 90, 72
2, 40605, Note_on_c, 0, 81, 89
2, 40615, Note_on_c, 0, 81, 0
2, 40616, Note_on_c, 0, 90, 0
2, 40617, Note_on_c, 0, 91, 64
2, 40620, Note_on_c, 0, 83, 72
2, 40631, Note_on_c, 0, 91, 0
2, 40632, Note_on_c, 0, 90, 47
2, 40635, Note_on_c, 0, 81, 76
2, 40638, Note_on_c, 0, 83, 0
2, 40646, Note_on_c, 0, 90, 0
2, 40647, Note_on_c, 0, 88, 64
2, 40648, Note_on_c, 0, 81, 0
2, 40650, Note_on_c, 0, 79, 76
2, 40661, Note_on_c, 0, 88, 0
2, 40662, Note_on_c, 0, 79, 0
2, 40662, Note_on_c, 0, 90, 62
2, 40664, Control_c, 0, 64, 0
2, 40665, Note_on_c, 0, 81, 72
2, 40676, Note_on_c, 0, 90, 0
2, 40678, Note_on_c, 0, 81, 0
2, 40680, Note_on_c, 0, 91, 93
2, 40680, Note_on_c, 0, 83, 93
2, 40709, Control_c, 0, 64, 127
2, 40725, Note_on_c, 0, 91, 0
2, 40727, Note_on_c, 0, 83, 0
2, 40738, Control_c, 0, 64, 0
2, 40800, Note_on_c, 0, 84, 89
2, 40800, Note_on_c, 0, 81, 85
2, 40812, Control_c, 0, 64, 127
2, 40844, Note_on_c, 0, 81, 0
2, 40860, Note_on_c, 0, 84, 0
2, 40863, Control_c, 0, 64, 0
2, 40920, Note_on_c, 0, 83, 89
2, 40920, Note_on_c, 0, 79, 80
2, 40926, Control_c, 0, 64, 127
2, 40942, Control_c, 0, 64, 127
2, 40965, Note_on_c, 0, 83, 0
2, 40971, Control_c, 0, 64, 0
2, 40974, Note_on_c, 0, 79, 0
2, 40980, Control_c, 0, 64, 0
2, 41040, Note_on_c, 0, 81, 93
2, 41040, Note_on_c, 0, 78, 89
2, 41053, Control_c, 0, 64, 127
2, 41053, Control_c, 0, 64, 127
2, 41085, Note_on_c, 0, 81, 0
2, 41161, Control_c, 0, 64, 0
2, 41162, Note_on_c, 0, 78, 0
2, 41162, Control_c, 0, 64, 0
2, 41280, Note_on_c, 0, 91, 98
2, 41280, Note_on_c, 0, 83, 107
2, 41294, Note_on_c, 0, 91, 0
2, 41295, Control_c, 0, 64, 127
2, 41295, Note_on_c, 0, 90, 80
2, 41295, Note_on_c, 0, 81, 89
2, 41297, Note_on_c, 0, 83, 0
2, 41309, Note_on_c, 0, 81, 0
2, 41309, Note_on_c, 0, 90, 0
2, 41310, Note_on_c, 0, 91, 85
2, 41310, Note_on_c, 0, 83, 93
2, 41324, Note_on_c, 0, 83, 0
2, 41324, Note_on_c, 0, 91, 0
2, 41325, Note_on_c, 0, 90, 76
2, 41325, Note_on_c, 0, 81, 80
2, 41339, Note_on_c, 0, 90, 0
2, 41340, Note_on_c, 0, 81, 0
2, 41340, Note_on_c, 0, 91, 85
2, 41340, Note_on_c, 0, 83, 93
2, 41354, Note_on_c, 0, 91, 0
2, 41355, Note_on_c, 0, 90, 60
2, 41355, Note_on_c, 0, 81, 68
2, 41356, Note_on_c, 0, 83, 0
2, 41368, Note_on_c, 0, 81, 0
2, 41369, Note_on_c, 0, 90, 0
2, 41370, Note_on_c, 0, 88, 89
2, 41370, Note_on_c, 0, 79, 80
2, 41381, Control_c, 0, 64, 0
2, 41384, Note_on_c, 0, 88, 0
2, 41385, Note_on_c, 0, 90, 72
2, 41385, Note_on_c, 0, 81, 76
2, 41387, Note_on_c, 0, 79, 0
2, 41396, Note_on_c, 0, 81, 0
2, 41399, Note_on_c, 0, 90, 0
2, 41400, Note_on_c, 0, 91, 107
2, 41400, Note_on_c, 0, 83, 93
2, 41418, Control_c, 0, 64, 127
2, 41445, Note_on_c, 0, 91, 0
2, 41456, Note_on_c, 0, 83, 0
2, 41459, Control_c, 0, 64, 0
2, 41520, Note_on_c, 0, 84, 102
2, 41520, Note_on_c, 0, 81, 89
2, 41531, Control_c, 0, 64, 127
2, 41535, Control_c, 0, 64, 127
2, 41565, Note_on_c, 0, 84, 0
2, 41570, Note_on_c, 0, 81, 0
2, 41575, Control_c, 0, 64, 0
2, 41576, Control_c, 0, 64, 0
2, 41640, Note_on_c, 0, 83, 93
2, 41640, Note_on_c, 0, 79, 93
2, 41651, Control_c, 0, 64, 127
2, 41652, Control_c, 0, 64, 127
2, 41685, Note_on_c, 0, 83, 0
2, 41689, Note_on_c, 0, 79, 0
2, 41701, Control_c, 0, 64, 0
2, 41729, Control_c, 0, 64, 0
2, 41760, Note_on_c, 0, 81, 93
2, 41760, Note_on_c, 0, 78, 76
2, 41760, Note_on_c, 0, 74, 98
2, 41764, Control_c, 0, 64, 127
2, 41765, Control_c, 0, 64, 127
2, 41773, Note_on_c, 0, 74, 0
2, 41774, Note_on_c, 0, 78, 0
2, 41774, Note_on_c, 0, 81, 0
2, 41812, Control_c, 0, 64, 0
2, 41812, Control_c, 0, 64, 0
2, 41820, Note_on_c, 0, 74, 93
2, 41820, Note_on_c, 0, 86, 113
2, 41820, Note_on_c, 0, 66, 85
2, 41820, Note_on_c, 0, 69, 93
2, 41820, Note_on_c, 0, 62, 93
2, 41849, Control_c, 0, 64, 127
2, 41874, Control_c, 0, 64, 127
2, 41877, Note_on_c, 0, 66, 0
2, 41878, Note_on_c, 0, 62, 0
2, 41879, Note_on_c, 0, 69, 0
2, 41880, Note_on_c, 0, 86, 0
2, 41880, Note_on_c, 0, 74, 0
2, 41924, Control_c, 0, 64, 0
2, 41928, Control_c, 0, 64, 0
2, 41940, Note_on_c, 0, 75, 93
2, 41940, Note_on_c, 0, 87, 98
2, 41940, Note_on_c, 0, 69, 93
2, 41940, Note_on_c, 0, 62, 85
2, 41940, Note_on_c, 0, 72, 85
2, 41954, Note_on_c, 0, 87, 0
2, 41954, Note_on_c, 0, 75, 0
2, 41956, Note_on_c, 0, 62, 0
2, 41957, Note_on_c, 0, 72, 0
2, 41958, Note_on_c, 0, 69, 0
2, 42000, Note_on_c, 0, 76, 93
2, 42000, Note_on_c, 0, 88, 98
2, 42000, Note_on_c, 0, 69, 93
2, 42000, Note_on_c, 0, 62, 93
2, 42000, Note_on_c, 0, 72, 93
2, 42012, Note_on_c, 0, 72, 0
2, 42012, Note_on_c, 0, 62, 0
2, 42014, Note_on_c, 0, 76, 0
2, 42014, Note_on_c, 0, 88, 0
2, 42015, Note_on_c, 0, 69, 0
2, 42060, Note_on_c, 0, 78, 98
2, 42060, Note_on_c, 0, 90, 89
2, 42060, Note_on_c, 0, 69, 85
2, 42060, Note_on_c, 0, 62, 89
2, 42060, Note_on_c, 0, 72, 76
2, 42072, Note_on_c, 0, 72, 0
2, 42074, Note_on_c, 0, 69, 0
2, 42074, Note_on_c, 0, 78, 0
2, 42074, Note_on_c, 0, 90, 0
2, 42074, Note_on_c, 0, 62, 0
2, 42120, Note_on_c, 0, 79, 93
2, 42120, Note_on_c, 0, 91, 89
2, 42120, Note_on_c, 0, 71, 98
2, 42120, Note_on_c, 0, 67, 98
2, 42134, Note_on_c, 0, 91, 0
2, 42134, Note_on_c, 0, 79, 0
2, 42164, Note_on_c, 0, 67, 0
2, 42166, Note_on_c, 0, 71, 0
2, 42240, Note_on_c, 0, 83, 107
2, 42240, Note_on_c, 0, 71, 98
2, 42254, Note_on_c, 0, 83, 0
2, 42276, Note_on_c, 0, 71, 0
2, 42360, Note_on_c, 0, 75, 102
2, 42360, Note_on_c, 0, 63, 93
2, 42374, Note_on_c, 0, 75, 0
2, 42395, Note_on_c, 0, 63, 0
2, 42480, Note_on_c, 0, 76, 107
2, 42480, Note_on_c, 0, 64, 102
2, 42510, Note_on_c, 0, 76, 0
2, 42512, Note_on_c, 0, 64, 0
2, 42600, Note_on_c, 0, 84, 102
2, 42600, Note_on_c, 0, 72, 93
2, 42630, Note_on_c, 0, 84, 0
2, 42643, Note_on_c, 0, 72, 0
2, 42810, Note_on_c, 0, 81, 89
2, 42810, Note_on_c, 0, 69, 98
2, 42823, Note_on_c, 0, 69, 0
2, 42824, Note_on_c, 0, 81, 0
2, 42840, Note_on_c, 0, 78, 113
2, 42840, Note_on_c, 0, 66, 98
2, 42854, Note_on_c, 0, 78, 0
2, 42865, Note_on_c, 0, 66, 0
2, 42960, Note_on_c, 0, 86, 107
2, 42960, Note_on_c, 0, 74, 98
2, 42974, Note_on_c, 0, 86, 0
2, 42997, Note_on_c, 0, 74, 0
2, 43170, Note_on_c, 0, 84, 93
2, 43170, Note_on_c, 0, 72, 85
2, 43200, Note_on_c, 0, 84, 0
2, 43200, Note_on_c, 0, 83, 89
2, 43200, Note_on_c, 0, 71, 85
2, 43202, Note_on_c, 0, 72, 0
2, 43212, Control_c, 0, 64, 127
2, 43230, Note_on_c, 0, 83, 0
2, 43230, Note_on_c, 0, 84, 85
2, 43230, Note_on_c, 0, 72, 76
2, 43230, Control_c, 0, 64, 0
2, 43234, Note_on_c, 0, 71, 0
2, 43260, Note_on_c, 0, 84, 0
2, 43260, Note_on_c, 0, 86, 80
2, 43260, Note_on_c, 0, 74, 76
2, 43264, Note_on_c, 0, 72, 0
2, 43290, Note_on_c, 0, 86, 0
2, 43290, Note_on_c, 0, 83, 80
2, 43290, Note_on_c, 0, 71, 85
2, 43292, Note_on_c, 0, 74, 0
2, 43292, Control_c, 0, 64, 127
2, 43306, Control_c, 0, 64, 0
2, 43320, Note_on_c, 0, 71, 0
2, 43320, Note_on_c, 0, 83, 0
2, 43320, Note_on_c, 0, 79, 93
2, 43320, Note_on_c, 0, 67, 76
2, 43328, Control_c, 0, 64, 127
2, 43331, Control_c, 0, 64, 127
2, 43334, Note_on_c, 0, 79, 0
2, 43354, Note_on_c, 0, 67, 0
2, 43377, Control_c, 0, 64, 0
2, 43380, Note_on_c, 0, 72, 60
2, 43380, Note_on_c, 0, 84, 76
2, 43380, Note_on_c, 0, 64, 64
2, 43380, Note_on_c, 0, 67, 64
2, 43382, Control_c, 0, 64, 0
2, 43399, Control_c, 0, 64, 127
2, 43400, Control_c, 0, 64, 127
2, 43424, Note_on_c, 0, 64, 0
2, 43425, Note_on_c, 0, 72, 0
2, 43425, Note_on_c, 0, 84, 0
2, 43426, Note_on_c, 0, 67, 0
2, 43440, Note_on_c, 0, 72, 76
2, 43440, Note_on_c, 0, 84, 76
2, 43440, Note_on_c, 0, 67, 68
2, 43440, Note_on_c, 0, 64, 68
2, 43470, Note_on_c, 0, 84, 0
2, 43470, Note_on_c, 0, 72, 0
2, 43483, Note_on_c, 0, 64, 0
2, 43486, Note_on_c, 0, 67, 0
2, 43500, Note_on_c, 0, 72, 93
2, 43500, Note_on_c, 0, 84, 93
2, 43500, Note_on_c, 0, 67, 57
2, 43500, Note_on_c, 0, 64, 72
2, 43530, Note_on_c, 0, 84, 0
2, 43530, Note_on_c, 0, 72, 0
2, 43548, Note_on_c, 0, 67, 0
2, 43548, Note_on_c, 0, 64, 0
2, 43560, Note_on_c, 0, 72, 98
2, 43560, Note_on_c, 0, 84, 107
2, 43560, Note_on_c, 0, 64, 89
2, 43560, Note_on_c, 0, 67, 89
2, 43566, Control_c, 0, 64, 0
2, 43579, Control_c, 0, 64, 0
2, 43593, Control_c, 0, 64, 127
2, 43613, Control_c, 0, 64, 127
2, 43680, Note_on_c, 0, 84, 0
2, 43680, Note_on_c, 0, 72, 0
2, 43723, Note_on_c, 0, 64, 0
2, 43724, Note_on_c, 0, 67, 0
2, 43729, Control_c, 0, 64, 0
2, 43736, Control_c, 0, 64, 0
2, 43740, Note_on_c, 0, 71, 102
2, 43740, Note_on_c, 0, 83, 93
2, 43740, Note_on_c, 0, 62, 80
2, 43740, Note_on_c, 0, 66, 68
2, 43747, Control_c, 0, 64, 127
2, 43753, Control_c, 0, 64, 127
2, 43770, Note_on_c, 0, 83, 0
2, 43770, Note_on_c, 0, 71, 0
2, 43773, Note_on_c, 0, 66, 0
2, 43778, Note_on_c, 0, 62, 0
2, 43792, Control_c, 0, 64, 0
2, 43800, Note_on_c, 0, 81, 93
2, 43800, Note_on_c, 0, 69, 93
2, 43800, Note_on_c, 0, 60, 72
2, 43800, Note_on_c, 0, 64, 76
2, 43801, Control_c, 0, 64, 0
2, 43809, Control_c, 0, 64, 127
2, 43814, Note_on_c, 0, 81, 0
2, 43819, Control_c, 0, 64, 127
2, 43830, Note_on_c, 0, 69, 0
2, 43841, Note_on_c, 0, 60, 0
2, 43850, Note_on_c, 0, 64, 0
2, 43855, Control_c, 0, 64, 0
2, 43860, Note_on_c, 0, 79, 80
2, 43860, Note_on_c, 0, 67, 85
2, 43860, Note_on_c, 0, 62, 85
2, 43860, Note_on_c, 0, 59, 51
2, 43861, Control_c, 0, 64, 0
2, 43869, Control_c, 0, 64, 127
2, 43874, Note_on_c, 0, 67, 0
2, 43874, Note_on_c, 0, 79, 0
2, 43877, Control_c, 0, 64, 127
2, 43899, Note_on_c, 0, 62, 0
2, 43908, Note_on_c, 0, 59, 0
2, 43913, Control_c, 0, 64, 0
2, 43917, Control_c, 0, 64, 0
2, 43920, Note_on_c, 0, 71, 98
2, 43920, Note_on_c, 0, 83, 107
2, 43920, Note_on_c, 0, 62, 85
2, 43920, Note_on_c, 0, 60, 89
2, 43936, Control_c, 0, 64, 127
2, 43950, Note_on_c, 0, 83, 0
2, 43950, Note_on_c, 0, 71, 0
2, 43957, Control_c, 0, 64, 127
2, 43977, Control_c, 0, 64, 0
2, 43980, Note_on_c, 0, 81, 76
2, 43980, Note_on_c, 0, 69, 72
2, 43991, Control_c, 0, 64, 127
2, 44010, Note_on_c, 0, 69, 0
2, 44010, Note_on_c, 0, 81, 0
2, 44031, Control_c, 0, 64, 0
2, 44037, Control_c, 0, 64, 0
2, 44040, Note_on_c, 0, 60, 0
2, 44040, Note_on_c, 0, 67, 64
2, 44040, Note_on_c, 0, 79, 76
2, 44040, Note_on_c, 0, 59, 76
2, 44048, Control_c, 0, 64, 127
2, 44054, Note_on_c, 0, 67, 0
2, 44059, Control_c, 0, 64, 127
2, 44070, Note_on_c, 0, 79, 0
2, 44074, Note_on_c, 0, 59, 0
2, 44077, Note_on_c, 0, 62, 0
2, 44089, Control_c, 0, 64, 0
2, 44096, Control_c, 0, 64, 0
2, 44100, Note_on_c, 0, 72, 72
2, 44100, Note_on_c, 0, 84, 89
2, 44100, Note_on_c, 0, 64, 80
2, 44100, Note_on_c, 0, 67, 80
2, 44111, Control_c, 0, 64, 127
2, 44126, Control_c, 0, 64, 127
2, 44130, Note_on_c, 0, 72, 0
2, 44145, Note_on_c, 0, 84, 0
2, 44145, Note_on_c, 0, 67, 0
2, 44146, Note_on_c, 0, 64, 0
2, 44160, Note_on_c, 0, 72, 89
2, 44160, Note_on_c, 0, 84, 93
2, 44160, Note_on_c, 0, 64, 89
2, 44160, Note_on_c, 0, 67, 93
2, 44190, Note_on_c, 0, 84, 0
2, 44190, Note_on_c, 0, 72, 0
2, 44205, Note_on_c, 0, 64, 0
2, 44206, Note_on_c, 0, 67, 0
2, 44220, Note_on_c, 0, 72, 89
2, 44220, Note_on_c, 0, 84, 93
2, 44220, Note_on_c, 0, 64, 85
2, 44220, Note_on_c, 0, 67, 85
2, 44234, Note_on_c, 0, 72, 0
2, 44250, Note_on_c, 0, 84, 0
2, 44263, Note_on_c, 0, 67, 0
2, 44264, Note_on_c, 0, 64, 0
2, 44280, Note_on_c, 0, 72, 107
2, 44280, Note_on_c, 0, 84, 102
2, 44280, Note_on_c, 0, 64, 98
2, 44280, Note_on_c, 0, 67, 98
2, 44286, Control_c, 0, 64, 0
2, 44289, Control_c, 0, 64, 0
2, 44316, Control_c, 0, 64, 127
2, 44339, Control_c, 0, 64, 127
2, 44415, Note_on_c, 0, 84, 0
2, 44415, Note_on_c, 0, 72, 0
2, 44456, Note_on_c, 0, 67, 0
2, 44457, Control_c, 0, 64, 0
2, 44458, Control_c, 0, 64, 0
2, 44460, Note_on_c, 0, 83, 85
2, 44460, Note_on_c, 0, 71, 76
2, 44460, Note_on_c, 0, 66, 60
2, 44460, Note_on_c, 0, 62, 76
2, 44471, Note_on_c, 0, 64, 0
2, 44473, Control_c, 0, 64, 127
2, 44476, Control_c, 0, 64, 127
2, 44490, Note_on_c, 0, 83, 0
2, 44490, Note_on_c, 0, 71, 0
2, 44514, Control_c, 0, 64, 0
2, 44515, Note_on_c, 0, 66, 0
2, 44515, Note_on_c, 0, 62, 0
2, 44518, Control_c, 0, 64, 0
2, 44520, Note_on_c, 0, 69, 64
2, 44520, Note_on_c, 0, 81, 64
2, 44520, Note_on_c, 0, 60, 76
2, 44520, Note_on_c, 0, 64, 76
2, 44528, Control_c, 0, 64, 127
2, 44536, Control_c, 0, 64, 127
2, 44550, Note_on_c, 0, 81, 0
2, 44550, Note_on_c, 0, 69, 0
2, 44559, Note_on_c, 0, 60, 0
2, 44569, Note_on_c, 0, 64, 0
2, 44576, Control_c, 0, 64, 0
2, 44578, Control_c, 0, 64, 0
2, 44580, Note_on_c, 0, 67, 64
2, 44580, Note_on_c, 0, 79, 85
2, 44580, Note_on_c, 0, 62, 89
2, 44580, Note_on_c, 0, 59, 80
2, 44591, Control_c, 0, 64, 127
2, 44593, Control_c, 0, 64, 127
2, 44594, Note_on_c, 0, 67, 0
2, 44610, Note_on_c, 0, 79, 0
2, 44615, Note_on_c, 0, 62, 0
2, 44621, Note_on_c, 0, 59, 0
2, 44637, Control_c, 0, 64, 0
2, 44640, Note_on_c, 0, 71, 102
2, 44640, Note_on_c, 0, 83, 98
2, 44640, Note_on_c, 0, 62, 85
2, 44640, Note_on_c, 0, 60, 76
2, 44647, Control_c, 0, 64, 0
2, 44670, Control_c, 0, 64, 127
2, 44671, Control_c, 0, 64, 127
2, 44685, Note_on_c, 0, 83, 0
2, 44685, Note_on_c, 0, 71, 0
2, 44700, Note_on_c, 0, 81, 72
2, 44700, Note_on_c, 0, 69, 76
2, 44703, Control_c, 0, 64, 0
2, 44719, Control_c, 0, 64, 127
2, 44730, Note_on_c, 0, 69, 0
2, 44730, Note_on_c, 0, 81, 0
2, 44752, Control_c, 0, 64, 0
2, 44760, Note_on_c, 0, 67, 72
2, 44760, Note_on_c, 0, 79, 76
2, 44760, Control_c, 0, 64, 0
2, 44760, Note_on_c, 0, 59, 76
2, 44764, Note_on_c, 0, 60, 0
2, 44768, Control_c, 0, 64, 127
2, 44774, Note_on_c, 0, 79, 0
2, 44774, Note_on_c, 0, 67, 0
2, 44786, Control_c, 0, 64, 127
2, 44815, Control_c, 0, 64, 0
2, 44820, Note_on_c, 0, 79, 68
2, 44852, Control_c, 0, 64, 127
2, 44877, Control_c, 0, 64, 0
2, 44879, Note_on_c, 0, 59, 0
2, 44880, Note_on_c, 0, 79, 0
2, 44880, Note_on_c, 0, 81, 76
2, 44882, Note_on_c, 0, 62, 0
2, 44882, Control_c, 0, 64, 0
2, 44915, Control_c, 0, 64, 127
2, 44932, Control_c, 0, 64, 0
2, 44940, Note_on_c, 0, 81, 0
2, 44940, Note_on_c, 0, 83, 62
2, 44960, Control_c, 0, 64, 127
2, 44993, Control_c, 0, 64, 0
2, 45000, Note_on_c, 0, 83, 0
2, 45000, Note_on_c, 0, 75, 76
2, 45059, Control_c, 0, 64, 127
2, 45060, Note_on_c, 0, 60, 62
2, 45063, Control_c, 0, 64, 127
2, 45120, Note_on_c, 0, 67, 76
2, 45125, Control_c, 0, 64, 0
2, 45148, Control_c, 0, 64, 127
2, 45180, Note_on_c, 0, 75, 0
2, 45180, Note_on_c, 0, 76, 76
2, 45183, Control_c, 0, 64, 0
2, 45226, Control_c, 0, 64, 127
2, 45236, Control_c, 0, 64, 0
2, 45240, Note_on_c, 0, 76, 0
2, 45240, Note_on_c, 0, 78, 59
2, 45285, Control_c, 0, 64, 127
2, 45300, Note_on_c, 0, 78, 0
2, 45300, Note_on_c, 0, 79, 76
2, 45350, Control_c, 0, 64, 0
2, 45359, Control_c, 0, 64, 0
2, 45360, Note_on_c, 0, 79, 0
2, 45360, Note_on_c, 0, 68, 68
2, 45363, Note_on_c, 0, 67, 0
2, 45364, Note_on_c, 0, 60, 0
2, 45420, Note_on_c, 0, 60, 76
2, 45433, Control_c, 0, 64, 127
2, 45452, Control_c, 0, 64, 127
2, 45480, Note_on_c, 0, 66, 60
2, 45480, Note_on_c, 0, 62, 76
2, 45487, Control_c, 0, 64, 0
2, 45525, Note_on_c, 0, 68, 0
2, 45526, Control_c, 0, 64, 127
2, 45540, Note_on_c, 0, 69, 64
2, 45546, Control_c, 0, 64, 0
2, 45578, Control_c, 0, 64, 127
2, 45600, Note_on_c, 0, 69, 0
2, 45600, Note_on_c, 0, 71, 80
2, 45602, Control_c, 0, 64, 0
2, 45633, Control_c, 0, 64, 127
2, 45656, Control_c, 0, 64, 0
2, 45657, Note_on_c, 0, 62, 0
2, 45657, Note_on_c, 0, 66, 0
2, 45660, Note_on_c, 0, 71, 0
2, 45660, Note_on_c, 0, 72, 72
2, 45662, Note_on_c, 0, 60, 0
2, 45681, Control_c, 0, 64, 127
2, 45706, Control_c, 0, 64, 0
2, 45709, Control_c, 0, 64, 0
2, 45720, Note_on_c, 0, 72, 0
2, 45720, Note_on_c, 0, 74, 72
2, 45720, Note_on_c, 0, 67, 80
2, 45720, Note_on_c, 0, 59, 76
2, 45735, Control_c, 0, 64, 127
2, 45748, Control_c, 0, 64, 127
2, 45776, Note_on_c, 0, 59, 0
2, 45778, Note_on_c, 0, 67, 0
2, 45780, Note_on_c, 0, 74, 0
2, 45780, Note_on_c, 0, 79, 76
2, 45781, Control_c, 0, 64, 0
2, 45790, Control_c, 0, 64, 0
2, 45806, Control_c, 0, 64, 127
2, 45840, Note_on_c, 0, 79, 0
2, 45840, Note_on_c, 0, 76, 93
2, 45840, Note_on_c, 0, 72, 76
2, 45840, Note_on_c, 0, 60, 64
2, 45850, Control_c, 0, 64, 0
2, 45850, Control_c, 0, 64, 127
2, 45880, Control_c, 0, 64, 127
2, 45900, Note_on_c, 0, 76, 0
2, 45900, Note_on_c, 0, 81, 93
2, 45906, Note_on_c, 0, 60, 0
2, 45907, Note_on_c, 0, 72, 0
2, 45910, Control_c, 0, 64, 0
2, 45915, Control_c, 0, 64, 0
2, 45936, Control_c, 0, 64, 127
2, 45960, Note_on_c, 0, 81, 0
2, 45960, Note_on_c, 0, 78, 89
2, 45960, Note_on_c, 0, 62, 85
2, 45960, Note_on_c, 0, 69, 93
2, 45963, Control_c, 0, 64, 0
2, 45965, Control_c, 0, 64, 127
2, 45989, Control_c, 0, 64, 127
2, 46014, Control_c, 0, 64, 0
2, 46020, Note_on_c, 0, 78, 0
2, 46020, Note_on_c, 0, 86, 93
2, 46024, Note_on_c, 0, 62, 0
2, 46025, Note_on_c, 0, 69, 0
2, 46033, Control_c, 0, 64, 127
2, 46065, Note_on_c, 0, 86, 0
2, 46077, Control_c, 0, 64, 0
2, 46077, Control_c, 0, 64, 0
2, 46080, Note_on_c, 0, 78, 76
2, 46080, Note_on_c, 0, 84, 93
2, 46080, Note_on_c, 0, 63, 80
2, 46080, Note_on_c, 0, 69, 98
2, 46113, Control_c, 0, 64, 127
2, 46116, Control_c, 0, 64, 127
2, 46200, Note_on_c, 0, 84, 0
2, 46200, Note_on_c, 0, 78, 0
2, 46200, Note_on_c, 0, 83, 85
2, 46200, Note_on_c, 0, 79, 76
2, 46200, Note_on_c, 0, 64, 72
2, 46200, Note_on_c, 0, 67, 76
2, 46204, Note_on_c, 0, 63, 0
2, 46204, Control_c, 0, 64, 0
2, 46206, Control_c, 0, 64, 0
2, 46207, Note_on_c, 0, 69, 0
2, 46237, Control_c, 0, 64, 127
2, 46247, Control_c, 0, 64, 127
2, 46271, Note_on_c, 0, 64, 0
2, 46272, Note_on_c, 0, 67, 0
2, 46281, Control_c, 0, 64, 0
2, 46305, Note_on_c, 0, 79, 0
2, 46305, Note_on_c, 0, 83, 0
2, 46317, Control_c, 0, 64, 0
2, 46980, Note_on_c, 0, 74, 98
2, 47040, Note_on_c, 0, 74, 0
2, 47040, Note_on_c, 0, 86, 102
2, 47100, Note_on_c, 0, 86, 0
2, 47100, Note_on_c, 0, 86, 102
2, 47114, Note_on_c, 0, 86, 0
2, 47160, Note_on_c, 0, 85, 89
2, 47160, Note_on_c, 0, 67, 80
2, 47180, Control_c, 0, 64, 127
2, 47190, Note_on_c, 0, 85, 0
2, 47190, Note_on_c, 0, 86, 85
2, 47200, Control_c, 0, 64, 127
2, 47201, Control_c, 0, 64, 0
2, 47220, Note_on_c, 0, 86, 0
2, 47220, Note_on_c, 0, 83, 80
2, 47250, Note_on_c, 0, 83, 0
2, 47250, Note_on_c, 0, 79, 85
2, 47278, Note_on_c, 0, 67, 0
2, 47278, Control_c, 0, 64, 0
2, 47280, Note_on_c, 0, 79, 0
2, 47280, Note_on_c, 0, 78, 72
2, 47280, Note_on_c, 0, 69, 76
2, 47314, Control_c, 0, 64, 127
2, 47400, Note_on_c, 0, 78, 0
2, 47516, Control_c, 0, 64, 0
2, 47520, Note_on_c, 0, 85, 89
2, 47520, Note_on_c, 0, 67, 80
2, 47529, Note_on_c, 0, 69, 0
2, 47550, Note_on_c, 0, 85, 0
2, 47550, Note_on_c, 0, 86, 93
2, 47559, Control_c, 0, 64, 127
2, 47580, Note_on_c, 0, 86, 0
2, 47580, Note_on_c, 0, 83, 89
2, 47610, Note_on_c, 0, 83, 0
2, 47610, Note_on_c, 0, 79, 80
2, 47636, Control_c, 0, 64, 0
2, 47639, Note_on_c, 0, 67, 0
2, 47640, Note_on_c, 0, 79, 0
2, 47640, Note_on_c, 0, 78, 85
2, 47640, Note_on_c, 0, 69, 80
2, 47672, Control_c, 0, 64, 127
2, 47715, Note_on_c, 0, 78, 0
2, 47864, Note_on_c, 0, 69, 0
2, 47864, Control_c, 0, 64, 0
2, 47880, Note_on_c, 0, 86, 68
2, 47880, Note_on_c, 0, 74, 72
2, 47887, Control_c, 0, 64, 127
2, 47898, Control_c, 0, 64, 127
2, 47937, Control_c, 0, 64, 0
2, 47940, Note_on_c, 0, 86, 0
2, 47950, Control_c, 0, 64, 0
2, 47955, Note_on_c, 0, 74, 0
2, 48000, Note_on_c, 0, 88, 76
2, 48000, Note_on_c, 0, 76, 72
2, 48010, Control_c, 0, 64, 127
2, 48014, Control_c, 0, 64, 127
2, 48045, Note_on_c, 0, 88, 0
2, 48056, Control_c, 0, 64, 0
2, 48062, Note_on_c, 0, 76, 0
2, 48070, Control_c, 0, 64, 0
2, 48120, Note_on_c, 0, 78, 72
2, 48120, Note_on_c, 0, 66, 64
2, 48132, Control_c, 0, 64, 127
2, 48136, Control_c, 0, 64, 127
2, 48180, Note_on_c, 0, 78, 0
2, 48184, Control_c, 0, 64, 0
2, 48193, Note_on_c, 0, 66, 0
2, 48195, Control_c, 0, 64, 0
2, 48240, Note_on_c, 0, 79, 72
2, 48240, Note_on_c, 0, 71, 68
2, 48249, Control_c, 0, 64, 127
2, 48253, Control_c, 0, 64, 127
2, 48269, Note_on_c, 0, 71, 0
2, 48270, Note_on_c, 0, 79, 0
2, 48270, Note_on_c, 0, 91, 76
2, 48270, Note_on_c, 0, 67, 68
2, 48300, Note_on_c, 0, 67, 0
2, 48300, Note_on_c, 0, 91, 0
2, 48300, Note_on_c, 0, 79, 76
2, 48300, Note_on_c, 0, 71, 64
2, 48329, Note_on_c, 0, 71, 0
2, 48330, Note_on_c, 0, 79, 0
2, 48330, Note_on_c, 0, 91, 76
2, 48330, Note_on_c, 0, 67, 64
2, 48358, Control_c, 0, 64, 0
2, 48359, Note_on_c, 0, 67, 0
2, 48360, Note_on_c, 0, 91, 0
2, 48360, Note_on_c, 0, 79, 80
2, 48360, Note_on_c, 0, 71, 64
2, 48377, Control_c, 0, 64, 127
2, 48389, Note_on_c, 0, 71, 0
2, 48390, Note_on_c, 0, 79, 0
2, 48390, Note_on_c, 0, 91, 68
2, 48390, Note_on_c, 0, 67, 59
2, 48418, Note_on_c, 0, 67, 0
2, 48420, Note_on_c, 0, 91, 0
2, 48420, Note_on_c, 0, 79, 68
2, 48420, Note_on_c, 0, 71, 59
2, 48450, Note_on_c, 0, 79, 0
2, 48450, Note_on_c, 0, 91, 72
2, 48450, Note_on_c, 0, 67, 68
2, 48451, Note_on_c, 0, 71, 0
2, 48480, Note_on_c, 0, 91, 0
2, 48480, Note_on_c, 0, 79, 76
2, 48480, Note_on_c, 0, 71, 80
2, 48481, Note_on_c, 0, 67, 0
2, 48482, Control_c, 0, 64, 0
2, 48500, Control_c, 0, 64, 127
2, 48510, Note_on_c, 0, 79, 0
2, 48510, Note_on_c, 0, 91, 76
2, 48510, Note_on_c, 0, 67, 62
2, 48512, Note_on_c, 0, 71, 0
2, 48540, Note_on_c, 0, 91, 0
2, 48540, Note_on_c, 0, 79, 68
2, 48540, Note_on_c, 0, 71, 76
2, 48541, Note_on_c, 0, 67, 0
2, 48570, Note_on_c, 0, 79, 0
2, 48570, Note_on_c, 0, 91, 68
2, 48570, Note_on_c, 0, 67, 62
2, 48572, Note_on_c, 0, 71, 0
2, 48598, Control_c, 0, 64, 0
2, 48600, Note_on_c, 0, 91, 0
2, 48600, Note_on_c, 0, 79, 89
2, 48600, Note_on_c, 0, 71, 85
2, 48604, Note_on_c, 0, 67, 0
2, 48619, Control_c, 0, 64, 127
2, 48630, Note_on_c, 0, 79, 0
2, 48630, Note_on_c, 0, 91, 68
2, 48630, Note_on_c, 0, 67, 62
2, 48631, Note_on_c, 0, 71, 0
2, 48660, Note_on_c, 0, 91, 0
2, 48660, Note_on_c, 0, 79, 72
2, 48660, Note_on_c, 0, 71, 72
2, 48661, Note_on_c, 0, 67, 0
2, 48690, Note_on_c, 0, 79, 0
2, 48690, Note_on_c, 0, 91, 64
2, 48690, Note_on_c, 0, 67, 57
2, 48693, Note_on_c, 0, 71, 0
2, 48718, Control_c, 0, 64, 0
2, 48720, Note_on_c, 0, 91, 0
2, 48720, Note_on_c, 0, 79, 85
2, 48720, Note_on_c, 0, 71, 64
2, 48721, Note_on_c, 0, 67, 0
2, 48737, Control_c, 0, 64, 127
2, 48748, Note_on_c, 0, 71, 0
2, 48750, Note_on_c, 0, 79, 0
2, 48750, Note_on_c, 0, 91, 68
2, 48750, Note_on_c, 0, 67, 46
2, 48775, Note_on_c, 0, 67, 0
2, 48780, Note_on_c, 0, 91, 0
2, 48780, Note_on_c, 0, 79, 64
2, 48780, Note_on_c, 0, 71, 64
2, 48810, Note_on_c, 0, 79, 0
2, 48810, Note_on_c, 0, 91, 62
2, 48810, Note_on_c, 0, 67, 47
2, 48814, Note_on_c, 0, 71, 0
2, 48839, Note_on_c, 0, 67, 0
2, 48840, Note_on_c, 0, 91, 0
2, 48840, Note_on_c, 0, 79, 76
2, 48840, Note_on_c, 0, 71, 64
2, 48869, Note_on_c, 0, 71, 0
2, 48870, Note_on_c, 0, 79, 0
2, 48870, Note_on_c, 0, 91, 68
2, 48870, Note_on_c, 0, 67, 57
2, 48896, Note_on_c, 0, 67, 0
2, 48900, Note_on_c, 0, 91, 0
2, 48900, Note_on_c, 0, 79, 68
2, 48900, Note_on_c, 0, 71, 60
2, 48930, Note_on_c, 0, 79, 0
2, 48930, Note_on_c, 0, 67, 90
2, 48930, Note_on_c, 0, 91, 72
2, 48932, Note_on_c, 0, 71, 0
2, 48956, Control_c, 0, 64, 0
2, 48960, Note_on_c, 0, 91, 0
2, 48960, Note_on_c, 0, 65, 90
2, 48960, Note_on_c, 0, 79, 89
2, 48961, Note_on_c, 0, 67, 0
2, 48962, Control_c, 0, 64, 0
2, 48977, Control_c, 0, 64, 127
2, 48985, Control_c, 0, 64, 127
2, 48990, Note_on_c, 0, 79, 0
2, 48990, Note_on_c, 0, 91, 64
2, 48990, Note_on_c, 0, 71, 59
2, 48993, Note_on_c, 0, 65, 0
2, 49018, Note_on_c, 0, 71, 0
2, 49020, Note_on_c, 0, 91, 0
2, 49020, Note_on_c, 0, 79, 72
2, 49020, Note_on_c, 0, 67, 64
2, 49050, Note_on_c, 0, 79, 0
2, 49050, Note_on_c, 0, 91, 60
2, 49050, Note_on_c, 0, 71, 56
2, 49051, Note_on_c, 0, 67, 0
2, 49079, Note_on_c, 0, 71, 0
2, 49080, Note_on_c, 0, 91, 0
2, 49080, Note_on_c, 0, 65, 90
2, 49080, Note_on_c, 0, 79, 80
2, 49080, Control_c, 0, 64, 0
2, 49099, Control_c, 0, 64, 127
2, 49110, Note_on_c, 0, 79, 0
2, 49110, Note_on_c, 0, 91, 62
2, 49110, Note_on_c, 0, 71, 68
2, 49114, Note_on_c, 0, 65, 0
2, 49136, Note_on_c, 0, 71, 0
2, 49140, Note_on_c, 0, 91, 0
2, 49140, Note_on_c, 0, 79, 62
2, 49140, Note_on_c, 0, 67, 55
2, 49169, Note_on_c, 0, 67, 0
2, 49170, Note_on_c, 0, 79, 0
2, 49170, Note_on_c, 0, 91, 62
2, 49170, Note_on_c, 0, 71, 49
2, 49198, Note_on_c, 0, 71, 0
2, 49200, Note_on_c, 0, 91, 0
2, 49200, Note_on_c, 0, 65, 90
2, 49200, Note_on_c, 0, 79, 76
2, 49202, Control_c, 0, 64, 0
2, 49223, Control_c, 0, 64, 127
2, 49230, Note_on_c, 0, 79, 0
2, 49230, Note_on_c, 0, 91, 64
2, 49230, Note_on_c, 0, 71, 55
2, 49235, Note_on_c, 0, 65, 0
2, 49255, Note_on_c, 0, 71, 0
2, 49260, Note_on_c, 0, 91, 0
2, 49260, Note_on_c, 0, 79, 62
2, 49260, Note_on_c, 0, 67, 64
2, 49288, Note_on_c, 0, 67, 0
2, 49290, Note_on_c, 0, 79, 0
2, 49290, Note_on_c, 0, 91, 64
2, 49290, Note_on_c, 0, 71, 57
2, 49317, Control_c, 0, 64, 0
2, 49319, Note_on_c, 0, 71, 0
2, 49319, Control_c, 0, 64, 0
2, 49320, Note_on_c, 0, 91, 0
2, 49320, Note_on_c, 0, 64, 90
2, 49320, Note_on_c, 0, 79, 80
2, 49339, Control_c, 0, 64, 127
2, 49340, Control_c, 0, 64, 127
2, 49350, Note_on_c, 0, 79, 0
2, 49350, Note_on_c, 0, 91, 64
2, 49350, Note_on_c, 0, 72, 56
2, 49355, Note_on_c, 0, 64, 0
2, 49375, Note_on_c, 0, 72, 0
2, 49380, Note_on_c, 0, 91, 0
2, 49380, Note_on_c, 0, 79, 64
2, 49380, Note_on_c, 0, 67, 51
2, 49409, Note_on_c, 0, 67, 0
2, 49410, Note_on_c, 0, 79, 0
2, 49410, Note_on_c, 0, 91, 50
2, 49410, Note_on_c, 0, 72, 59
2, 49437, Note_on_c, 0, 72, 0
2, 49440, Note_on_c, 0, 91, 0
2, 49440, Note_on_c, 0, 64, 90
2, 49440, Note_on_c, 0, 79, 80
2, 49470, Note_on_c, 0, 79, 0
2, 49470, Note_on_c, 0, 91, 64
2, 49470, Note_on_c, 0, 72, 41
2, 49474, Note_on_c, 0, 64, 0
2, 49490, Note_on_c, 0, 72, 0
2, 49500, Note_on_c, 0, 91, 0
2, 49500, Note_on_c, 0, 79, 64
2, 49500, Note_on_c, 0, 67, 59
2, 49528, Note_on_c, 0, 67, 0
2, 49530, Note_on_c, 0, 79, 0
2, 49530, Note_on_c, 0, 91, 51
2, 49530, Note_on_c, 0, 72, 40
2, 49552, Note_on_c, 0, 72, 0
2, 49560, Note_on_c, 0, 91, 0
2, 49560, Note_on_c, 0, 63, 90
2, 49560, Note_on_c, 0, 79, 80
2, 49561, Control_c, 0, 64, 0
2, 49579, Control_c, 0, 64, 127
2, 49590, Note_on_c, 0, 79, 0
2, 49590, Note_on_c, 0, 91, 55
2, 49590, Note_on_c, 0, 72, 62
2, 49593, Note_on_c, 0, 63, 0
2, 49613, Note_on_c, 0, 72, 0
2, 49620, Note_on_c, 0, 91, 0
2, 49620, Note_on_c, 0, 79, 64
2, 49620, Note_on_c, 0, 67, 60
2, 49644, Note_on_c, 0, 67, 0
2, 49650, Note_on_c, 0, 79, 0
2, 49650, Note_on_c, 0, 91, 56
2, 49650, Note_on_c, 0, 72, 64
2, 49675, Note_on_c, 0, 72, 0
2, 49675, Control_c, 0, 64, 0
2, 49679, Control_c, 0, 64, 0
2, 49680, Note_on_c, 0, 91, 0
2, 49680, Note_on_c, 0, 79, 80
2, 49680, Note_on_c, 0, 62, 93
2, 49694, Control_c, 0, 64, 127
2, 49705, Control_c, 0, 64, 127
2, 49710, Note_on_c, 0, 79, 0
2, 49710, Note_on_c, 0, 91, 64
2, 49710, Note_on_c, 0, 74, 60
2, 49713, Note_on_c, 0, 62, 0
2, 49736, Note_on_c, 0, 74, 0
2, 49740, Note_on_c, 0, 91, 0
2, 49740, Note_on_c, 0, 79, 64
2, 49740, Note_on_c, 0, 67, 68
2, 49768, Note_on_c, 0, 67, 0
2, 49770, Note_on_c, 0, 79, 0
2, 49770, Note_on_c, 0, 91, 62
2, 49770, Note_on_c, 0, 74, 55
2, 49796, Note_on_c, 0, 74, 0
2, 49797, Control_c, 0, 64, 0
2, 49800, Note_on_c, 0, 91, 0
2, 49800, Note_on_c, 0, 62, 90
2, 49800, Note_on_c, 0, 79, 89
2, 49813, Control_c, 0, 64, 127
2, 49830, Note_on_c, 0, 79, 0
2, 49830, Note_on_c, 0, 91, 57
2, 49830, Note_on_c, 0, 74, 62
2, 49832, Note_on_c, 0, 62, 0
2, 49854, Note_on_c, 0, 74, 0
2, 49860, Note_on_c, 0, 91, 0
2, 49860, Note_on_c, 0, 79, 64
2, 49860, Note_on_c, 0, 67, 59
2, 49888, Note_on_c, 0, 67, 0
2, 49890, Note_on_c, 0, 79, 0
2, 49890, Note_on_c, 0, 91, 62
2, 49890, Note_on_c, 0, 74, 43
2, 49915, Note_on_c, 0, 74, 0
2, 49920, Note_on_c, 0, 91, 0
2, 49920, Note_on_c, 0, 62, 90
2, 49920, Note_on_c, 0, 79, 76
2, 49950, Note_on_c, 0, 79, 0
2, 49950, Note_on_c, 0, 62, 0
2, 49950, Note_on_c, 0, 91, 76
2, 49950, Note_on_c, 0, 74, 64
2, 49972, Note_on_c, 0, 74, 0
2, 49980, Note_on_c, 0, 91, 0
2, 49980, Note_on_c, 0, 79, 72
2, 49980, Note_on_c, 0, 67, 76
2, 49994, Note_on_c, 0, 79, 0
2, 50007, Note_on_c, 0, 67, 0
2, 50010, Note_on_c, 0, 91, 47
2, 50010, Note_on_c, 0, 74, 57
2, 50024, Note_on_c, 0, 91, 0
2, 50026, Note_on_c, 0, 74, 0
2, 50037, Control_c, 0, 64, 0
2, 50040, Note_on_c, 0, 91, 98
2, 50040, Note_on_c, 0, 64, 76
2, 50040, Note_on_c, 0, 69, 89
2, 50040, Note_on_c, 0, 73, 80
2, 50069, Control_c, 0, 64, 127
2, 50100, Note_on_c, 0, 91, 0
2, 50100, Note_on_c, 0, 88, 93
2, 50130, Note_on_c, 0, 88, 0
2, 50130, Note_on_c, 0, 90, 76
2, 50160, Note_on_c, 0, 90, 0
2, 50160, Note_on_c, 0, 91, 93
2, 50169, Control_c, 0, 64, 0
2, 50171, Note_on_c, 0, 64, 0
2, 50172, Note_on_c, 0, 69, 0
2, 50173, Note_on_c, 0, 73, 0
2, 50190, Note_on_c, 0, 91, 0
2, 50190, Note_on_c, 0, 90, 68
2, 50220, Note_on_c, 0, 90, 0
2, 50220, Note_on_c, 0, 88, 85
2, 50237, Control_c, 0, 64, 127
2, 50250, Note_on_c, 0, 88, 0
2, 50250, Note_on_c, 0, 86, 76
2, 50259, Control_c, 0, 64, 0
2, 50280, Note_on_c, 0, 86, 0
2, 50280, Note_on_c, 0, 85, 80
2, 50310, Note_on_c, 0, 85, 0
2, 50310, Note_on_c, 0, 83, 80
2, 50336, Control_c, 0, 64, 127
2, 50340, Note_on_c, 0, 83, 0
2, 50340, Note_on_c, 0, 81, 85
2, 50363, Control_c, 0, 64, 0
2, 50370, Note_on_c, 0, 81, 0
2, 50370, Note_on_c, 0, 80, 89
2, 50400, Note_on_c, 0, 80, 0
2, 50400, Note_on_c, 0, 79, 98
2, 50414, Control_c, 0, 64, 127
2, 50518, Control_c, 0, 64, 0
2, 50520, Note_on_c, 0, 79, 0
2, 50820, Note_on_c, 0, 81, 89
2, 50832, Control_c, 0, 64, 127
2, 50850, Note_on_c, 0, 81, 0
2, 50850, Note_on_c, 0, 83, 85
2, 50860, Control_c, 0, 64, 0
2, 50880, Note_on_c, 0, 83, 0
2, 50880, Note_on_c, 0, 84, 76
2, 50910, Note_on_c, 0, 84, 0
2, 50910, Note_on_c, 0, 83, 89
2, 50940, Note_on_c, 0, 83, 0
2, 50940, Note_on_c, 0, 81, 85
2, 50968, Control_c, 0, 64, 127
2, 50970, Note_on_c, 0, 81, 0
2, 50970, Note_on_c, 0, 79, 76
2, 50973, Control_c, 0, 64, 0
2, 51000, Note_on_c, 0, 79, 0
2, 51000, Note_on_c, 0, 78, 80
2, 51030, Note_on_c, 0, 78, 0
2, 51030, Note_on_c, 0, 76, 89
2, 51060, Note_on_c, 0, 76, 0
2, 51060, Note_on_c, 0, 74, 85
2, 51090, Note_on_c, 0, 74, 0
2, 51090, Note_on_c, 0, 73, 85
2, 51120, Note_on_c, 0, 73, 0
2, 51120, Note_on_c, 0, 72, 89
2, 51158, Control_c, 0, 64, 127
2, 51240, Note_on_c, 0, 72, 0
2, 51240, Control_c, 0, 64, 0
2, 51540, Note_on_c, 0, 67, 68
2, 51556, Control_c, 0, 64, 127
2, 51600, Note_on_c, 0, 67, 0
2, 51600, Note_on_c, 0, 79, 80
2, 51602, Control_c, 0, 64, 0
2, 51618, Control_c, 0, 64, 127
2, 51645, Note_on_c, 0, 79, 0
2, 51656, Control_c, 0, 64, 0
2, 51660, Note_on_c, 0, 79, 76
2, 51674, Note_on_c, 0, 79, 0
2, 51720, Note_on_c, 0, 79, 80
2, 51734, Note_on_c, 0, 79, 0
2, 51780, Note_on_c, 0, 79, 76
2, 51794, Note_on_c, 0, 79, 0
2, 51840, Note_on_c, 0, 79, 93
2, 51840, Note_on_c, 0, 64, 76
2, 51840, Note_on_c, 0, 55, 72
2, 51840, Note_on_c, 0, 57, 76
2, 51860, Control_c, 0, 64, 127
2, 51900, Note_on_c, 0, 79, 0
2, 51900, Note_on_c, 0, 76, 80
2, 51914, Note_on_c, 0, 76, 0
2, 51960, Note_on_c, 0, 76, 93
2, 51967, Control_c, 0, 64, 0
2, 51976, Note_on_c, 0, 57, 0
2, 51977, Note_on_c, 0, 55, 0
2, 51980, Note_on_c, 0, 64, 0
2, 52020, Note_on_c, 0, 72, 72
2, 52034, Note_on_c, 0, 72, 0
2, 52035, Note_on_c, 0, 76, 0
2, 52080, Note_on_c, 0, 72, 89
2, 52140, Note_on_c, 0, 72, 0
2, 52140, Note_on_c, 0, 69, 93
2, 52154, Note_on_c, 0, 69, 0
2, 52200, Note_on_c, 0, 67, 89
2, 52200, Note_on_c, 0, 59, 89
2, 52230, Control_c, 0, 64, 127
2, 52233, Control_c, 0, 64, 127
2, 52433, Control_c, 0, 64, 0
2, 52440, Note_on_c, 0, 59, 0
2, 52440, Note_on_c, 0, 60, 76
2, 52441, Note_on_c, 0, 71, 80
2, 52444, Note_on_c, 0, 66, 62
2, 52451, Control_c, 0, 64, 0
2, 52455, Note_on_c, 0, 67, 0
2, 52485, Control_c, 0, 64, 127
2, 52488, Control_c, 0, 64, 127
2, 52501, Note_on_c, 0, 71, 0
2, 52503, Note_on_c, 0, 69, 76
2, 52511, Control_c, 0, 64, 0
2, 52535, Control_c, 0, 64, 127
2, 52559, Control_c, 0, 64, 0
2, 52560, Note_on_c, 0, 59, 72
2, 52563, Note_on_c, 0, 69, 0
2, 52564, Note_on_c, 0, 66, 0
2, 52564, Note_on_c, 0, 67, 76
2, 52565, Note_on_c, 0, 60, 0
2, 52569, Control_c, 0, 64, 0
2, 52607, Control_c, 0, 64, 127
2, 52611, Control_c, 0, 64, 127
2, 52684, Note_on_c, 0, 67, 0
2, 52685, Note_on_c, 0, 59, 0
2, 52689, Control_c, 0, 64, 0
2, 52695, Control_c, 0, 64, 0
2, 53640, Note_on_c, 0, 63, 64
2, 53640, Control_c, 0, 64, 127
2, 53646, Note_on_c, 0, 70, 93
2, 53662, Note_on_c, 0, 70, 0
2, 53686, Note_on_c, 0, 63, 0
2, 53700, Note_on_c, 0, 63, 72
2, 53742, Note_on_c, 0, 63, 0
2, 53760, Note_on_c, 0, 75, 85
2, 53760, Note_on_c, 0, 63, 80
2, 53773, Note_on_c, 0, 75, 0
2, 53804, Note_on_c, 0, 63, 0
2, 53820, Note_on_c, 0, 63, 68
2, 53865, Note_on_c, 0, 63, 0
2, 53880, Note_on_c, 0, 67, 93
2, 53880, Note_on_c, 0, 63, 57
2, 53895, Note_on_c, 0, 67, 0
2, 53928, Note_on_c, 0, 63, 0
2, 53940, Note_on_c, 0, 63, 57
2, 53985, Note_on_c, 0, 63, 0
2, 54000, Note_on_c, 0, 68, 98
2, 54000, Note_on_c, 0, 63, 62
2, 54013, Control_c, 0, 64, 0
2, 54014, Note_on_c, 0, 68, 0
2, 54044, Control_c, 0, 64, 127
2, 54049, Note_on_c, 0, 63, 0
2, 54060, Note_on_c, 0, 63, 72
2, 54107, Note_on_c, 0, 63, 0
2, 54120, Note_on_c, 0, 80, 98
2, 54120, Note_on_c, 0, 63, 62
2, 54133, Note_on_c, 0, 80, 0
2, 54169, Note_on_c, 0, 63, 0
2, 54180, Note_on_c, 0, 63, 56
2, 54216, Note_on_c, 0, 63, 0
2, 54240, Note_on_c, 0, 63, 72
2, 54284, Note_on_c, 0, 63, 0
2, 54300, Note_on_c, 0, 63, 59
2, 54330, Note_on_c, 0, 72, 89
2, 54340, Note_on_c, 0, 72, 0
2, 54340, Note_on_c, 0, 63, 0
2, 54360, Note_on_c, 0, 70, 93
2, 54360, Note_on_c, 0, 63, 59
2, 54361, Control_c, 0, 64, 0
2, 54373, Note_on_c, 0, 70, 0
2, 54383, Control_c, 0, 64, 127
2, 54409, Note_on_c, 0, 63, 0
2, 54420, Note_on_c, 0, 63, 52
2, 54463, Note_on_c, 0, 63, 0
2, 54480, Note_on_c, 0, 75, 89
2, 54480, Note_on_c, 0, 63, 68
2, 54494, Note_on_c, 0, 75, 0
2, 54528, Note_on_c, 0, 63, 0
2, 54540, Note_on_c, 0, 63, 72
2, 54590, Note_on_c, 0, 63, 0
2, 54600, Note_on_c, 0, 67, 98
2, 54600, Note_on_c, 0, 63, 76
2, 54615, Note_on_c, 0, 67, 0
2, 54649, Note_on_c, 0, 63, 0
2, 54660, Note_on_c, 0, 63, 53
2, 54699, Note_on_c, 0, 63, 0
2, 54720, Note_on_c, 0, 68, 102
2, 54720, Note_on_c, 0, 63, 62
2, 54734, Control_c, 0, 64, 0
2, 54735, Note_on_c, 0, 68, 0
2, 54755, Control_c, 0, 64, 127
2, 54774, Note_on_c, 0, 63, 0
2, 54780, Note_on_c, 0, 63, 59
2, 54829, Note_on_c, 0, 63, 0
2, 54840, Note_on_c, 0, 80, 89
2, 54840, Note_on_c, 0, 63, 51
2, 54852, Note_on_c, 0, 80, 0
2, 54891, Note_on_c, 0, 63, 0
2, 54901, Note_on_c, 0, 63, 55
2, 54945, Note_on_c, 0, 63, 0
2, 54960, Note_on_c, 0, 63, 62
2, 55007, Note_on_c, 0, 63, 0
2, 55020, Note_on_c, 0, 63, 64
2, 55050, Note_on_c, 0, 68, 102
2, 55062, Note_on_c, 0, 68, 0
2, 55075, Note_on_c, 0, 63, 0
2, 55080, Note_on_c, 0, 72, 93
2, 55080, Note_on_c, 0, 65, 85
2, 55084, Control_c, 0, 64, 0
2, 55095, Note_on_c, 0, 72, 0
2, 55107, Control_c, 0, 64, 127
2, 55132, Note_on_c, 0, 65, 0
2, 55140, Note_on_c, 0, 65, 85
2, 55191, Note_on_c, 0, 65, 0
2, 55200, Note_on_c, 0, 77, 93
2, 55200, Note_on_c, 0, 65, 55
2, 55212, Note_on_c, 0, 77, 0
2, 55241, Note_on_c, 0, 65, 0
2, 55260, Note_on_c, 0, 65, 53
2, 55310, Note_on_c, 0, 65, 0
2, 55320, Note_on_c, 0, 69, 98
2, 55320, Note_on_c, 0, 65, 72
2, 55334, Note_on_c, 0, 69, 0
2, 55372, Note_on_c, 0, 65, 0
2, 55380, Note_on_c, 0, 65, 60
2, 55421, Note_on_c, 0, 65, 0
2, 55439, Control_c, 0, 64, 0
2, 55440, Note_on_c, 0, 70, 102
2, 55440, Note_on_c, 0, 65, 64
2, 55455, Note_on_c, 0, 70, 0
2, 55458, Control_c, 0, 64, 127
2, 55498, Note_on_c, 0, 65, 0
2, 55500, Note_on_c, 0, 65, 76
2, 55547, Note_on_c, 0, 65, 0
2, 55560, Note_on_c, 0, 82, 98
2, 55560, Note_on_c, 0, 65, 80
2, 55573, Note_on_c, 0, 82, 0
2, 55613, Note_on_c, 0, 65, 0
2, 55620, Note_on_c, 0, 65, 80
2, 55661, Note_on_c, 0, 65, 0
2, 55680, Note_on_c, 0, 65, 80
2, 55725, Note_on_c, 0, 65, 0
2, 55740, Note_on_c, 0, 65, 76
2, 55770, Note_on_c, 0, 70, 102
2, 55782, Note_on_c, 0, 70, 0
2, 55795, Note_on_c, 0, 65, 0
2, 55800, Note_on_c, 0, 74, 89
2, 55800, Note_on_c, 0, 67, 93
2, 55801, Control_c, 0, 64, 0
2, 55815, Note_on_c, 0, 74, 0
2, 55829, Control_c, 0, 64, 127
2, 55854, Note_on_c, 0, 67, 0
2, 55860, Note_on_c, 0, 67, 76
2, 55910, Note_on_c, 0, 67, 0
2, 55920, Note_on_c, 0, 79, 102
2, 55920, Note_on_c, 0, 67, 85
2, 55931, Note_on_c, 0, 79, 0
2, 55974, Note_on_c, 0, 67, 0
2, 55980, Note_on_c, 0, 67, 85
2, 56034, Note_on_c, 0, 67, 0
2, 56040, Note_on_c, 0, 71, 98
2, 56040, Note_on_c, 0, 67, 76
2, 56054, Note_on_c, 0, 71, 0
2, 56092, Note_on_c, 0, 67, 0
2, 56100, Note_on_c, 0, 67, 85
2, 56150, Note_on_c, 0, 67, 0
2, 56160, Note_on_c, 0, 72, 107
2, 56160, Note_on_c, 0, 67, 89
2, 56160, Control_c, 0, 64, 0
2, 56176, Note_on_c, 0, 72, 0
2, 56182, Control_c, 0, 64, 127
2, 56214, Note_on_c, 0, 67, 0
2, 56220, Note_on_c, 0, 67, 62
2, 56270, Note_on_c, 0, 67, 0
2, 56280, Note_on_c, 0, 84, 98
2, 56280, Note_on_c, 0, 67, 80
2, 56292, Note_on_c, 0, 84, 0
2, 56332, Note_on_c, 0, 67, 0
2, 56340, Note_on_c, 0, 67, 80
2, 56389, Note_on_c, 0, 67, 0
2, 56400, Note_on_c, 0, 67, 93
2, 56454, Note_on_c, 0, 67, 0
2, 56460, Note_on_c, 0, 67, 93
2, 56490, Note_on_c, 0, 72, 107
2, 56501, Note_on_c, 0, 67, 0
2, 56515, Note_on_c, 0, 72, 0
2, 56520, Note_on_c, 0, 82, 105
2, 56520, Note_on_c, 0, 67, 102
2, 56520, Note_on_c, 0, 70, 89
2, 56520, Control_c, 0, 64, 0
2, 56542, Control_c, 0, 64, 127
2, 56574, Note_on_c, 0, 67, 0
2, 56575, Note_on_c, 0, 70, 0
2, 56580, Note_on_c, 0, 67, 76
2, 56580, Note_on_c, 0, 70, 72
2, 56628, Note_on_c, 0, 70, 0
2, 56629, Note_on_c, 0, 67, 0
2, 56640, Note_on_c, 0, 67, 76
2, 56640, Note_on_c, 0, 70, 76
2, 56684, Note_on_c, 0, 67, 0
2, 56686, Note_on_c, 0, 70, 0
2, 56700, Note_on_c, 0, 67, 89
2, 56700, Note_on_c, 0, 70, 89
2, 56745, Note_on_c, 0, 67, 0
2, 56746, Note_on_c, 0, 70, 0
2, 56752, Note_on_c, 0, 82, 0
2, 56760, Note_on_c, 0, 73, 102
2, 56760, Note_on_c, 0, 85, 93
2, 56760, Note_on_c, 0, 67, 102
2, 56760, Note_on_c, 0, 70, 93
2, 56795, Note_on_c, 0, 67, 0
2, 56796, Note_on_c, 0, 70, 0
2, 56798, Note_on_c, 0, 73, 0
2, 56804, Note_on_c, 0, 85, 0
2, 56808, Control_c, 0, 64, 127
2, 56820, Note_on_c, 0, 70, 85
2, 56820, Note_on_c, 0, 67, 93
2, 56844, Note_on_c, 0, 67, 0
2, 56852, Note_on_c, 0, 70, 0
2, 56867, Control_c, 0, 64, 0
2, 56879, Control_c, 0, 64, 0
2, 56880, Note_on_c, 0, 74, 89
2, 56880, Note_on_c, 0, 86, 93
2, 56880, Note_on_c, 0, 67, 113
2, 56880, Note_on_c, 0, 71, 102
2, 56890, Control_c, 0, 64, 127
2, 56894, Note_on_c, 0, 74, 0
2, 56897, Note_on_c, 0, 86, 0
2, 56918, Control_c, 0, 64, 127
2, 56940, Note_on_c, 0, 88, 107
2, 56944, Control_c, 0, 64, 0
2, 56969, Note_on_c, 0, 88, 0
2, 56970, Note_on_c, 0, 90, 93
2, 56998, Note_on_c, 0, 90, 0
2, 57000, Note_on_c, 0, 91, 85
2, 57016, Note_on_c, 0, 67, 0
2, 57020, Note_on_c, 0, 71, 0
2, 57023, Control_c, 0, 64, 0
2, 57027, Note_on_c, 0, 91, 0
2, 57030, Note_on_c, 0, 90, 72
2, 57058, Note_on_c, 0, 90, 0
2, 57060, Note_on_c, 0, 88, 93
2, 57077, Control_c, 0, 64, 127
2, 57090, Note_on_c, 0, 86, 89
2, 57092, Note_on_c, 0, 88, 0
2, 57103, Note_on_c, 0, 86, 0
2, 57111, Control_c, 0, 64, 0
2, 57120, Note_on_c, 0, 84, 89
2, 57150, Note_on_c, 0, 83, 93
2, 57153, Note_on_c, 0, 84, 0
2, 57156, Control_c, 0, 64, 127
2, 57172, Control_c, 0, 64, 0
2, 57180, Note_on_c, 0, 83, 0
2, 57180, Note_on_c, 0, 81, 85
2, 57200, Control_c, 0, 64, 127
2, 57210, Note_on_c, 0, 79, 93
2, 57213, Note_on_c, 0, 81, 0
2, 57225, Control_c, 0, 64, 0
2, 57238, Note_on_c, 0, 79, 0
2, 57240, Note_on_c, 0, 83, 85
2, 57240, Note_on_c, 0, 67, 85
2, 57251, Note_on_c, 0, 67, 0
2, 57255, Note_on_c, 0, 81, 80
2, 57255, Note_on_c, 0, 66, 72
2, 57258, Note_on_c, 0, 83, 0
2, 57270, Note_on_c, 0, 66, 0
2, 57270, Note_on_c, 0, 81, 0
2, 57270, Note_on_c, 0, 83, 80
2, 57270, Note_on_c, 0, 67, 64
2, 57285, Note_on_c, 0, 67, 0
2, 57285, Note_on_c, 0, 81, 64
2, 57285, Note_on_c, 0, 66, 76
2, 57286, Note_on_c, 0, 83, 0
2, 57300, Note_on_c, 0, 81, 0
2, 57300, Note_on_c, 0, 83, 80
2, 57300, Note_on_c, 0, 67, 68
2, 57303, Note_on_c, 0, 66, 0
2, 57315, Note_on_c, 0, 81, 72
2, 57315, Note_on_c, 0, 66, 55
2, 57318, Note_on_c, 0, 67, 0
2, 57318, Note_on_c, 0, 83, 0
2, 57329, Note_on_c, 0, 66, 0
2, 57330, Note_on_c, 0, 83, 89
2, 57330, Note_on_c, 0, 67, 72
2, 57331, Note_on_c, 0, 81, 0
2, 57345, Note_on_c, 0, 81, 72
2, 57345, Note_on_c, 0, 66, 72
2, 57346, Note_on_c, 0, 83, 0
2, 57347, Note_on_c, 0, 67, 0
2, 57359, Note_on_c, 0, 81, 0
2, 57360, Note_on_c, 0, 66, 0
2, 57360, Note_on_c, 0, 83, 89
2, 57360, Note_on_c, 0, 67, 76
2, 57374, Note_on_c, 0, 67, 0
2, 57374, Note_on_c, 0, 83, 0
2, 57375, Note_on_c, 0, 81, 76
2, 57375, Note_on_c, 0, 66, 64
2, 57388, Note_on_c, 0, 81, 0
2, 57390, Note_on_c, 0, 83, 89
2, 57390, Note_on_c, 0, 67, 76
2, 57391, Note_on_c, 0, 66, 0
2, 57403, Note_on_c, 0, 67, 0
2, 57404, Note_on_c, 0, 83, 0
2, 57405, Note_on_c, 0, 81, 68
2, 57405, Note_on_c, 0, 66, 68
2, 57417, Note_on_c, 0, 66, 0
2, 57420, Note_on_c, 0, 81, 0
2, 57420, Note_on_c, 0, 83, 80
2, 57420, Note_on_c, 0, 67, 72
2, 57434, Note_on_c, 0, 67, 0
2, 57434, Note_on_c, 0, 83, 0
2, 57435, Note_on_c, 0, 81, 64
2, 57435, Note_on_c, 0, 66, 60
2, 57450, Note_on_c, 0, 66, 0
2, 57450, Note_on_c, 0, 81, 0
2, 57450, Note_on_c, 0, 83, 85
2, 57450, Note_on_c, 0, 67, 68
2, 57465, Note_on_c, 0, 67, 0
2, 57465, Note_on_c, 0, 81, 64
2, 57465, Note_on_c, 0, 66, 72
2, 57466, Note_on_c, 0, 83, 0
2, 57479, Note_on_c, 0, 66, 0
2, 57480, Note_on_c, 0, 81, 0
2, 57480, Note_on_c, 0, 83, 85
2, 57480, Note_on_c, 0, 67, 76
2, 57494, Note_on_c, 0, 67, 0
2, 57495, Note_on_c, 0, 83, 0
2, 57495, Note_on_c, 0, 81, 62
2, 57495, Note_on_c, 0, 66, 62
2, 57510, Note_on_c, 0, 83, 76
2, 57510, Note_on_c, 0, 67, 72
2, 57511, Note_on_c, 0, 81, 0
2, 57512, Note_on_c, 0, 66, 0
2, 57524, Note_on_c, 0, 83, 0
2, 57524, Note_on_c, 0, 67, 0
2, 57525, Note_on_c, 0, 81, 64
2, 57525, Note_on_c, 0, 66, 68
2, 57540, Note_on_c, 0, 81, 0
2, 57540, Note_on_c, 0, 83, 80
2, 57540, Note_on_c, 0, 67, 80
2, 57542, Note_on_c, 0, 66, 0
2, 57555, Note_on_c, 0, 67, 0
2, 57555, Note_on_c, 0, 81, 89
2, 57555, Note_on_c, 0, 66, 72
2, 57560, Note_on_c, 0, 83, 0
2, 57566, Note_on_c, 0, 81, 0
2, 57570, Note_on_c, 0, 66, 0
2, 57570, Note_on_c, 0, 79, 62
2, 57570, Note_on_c, 0, 64, 72
2, 57584, Note_on_c, 0, 79, 0
2, 57585, Note_on_c, 0, 81, 93
2, 57585, Note_on_c, 0, 66, 60
2, 57589, Note_on_c, 0, 64, 0
2, 57596, Note_on_c, 0, 66, 0
2, 57597, Note_on_c, 0, 81, 0
2, 57600, Note_on_c, 0, 79, 80
2, 57600, Note_on_c, 0, 67, 89
2, 57696, Control_c, 0, 64, 127
2, 57713, Note_on_c, 0, 67, 0
2, 57713, Note_on_c, 0, 79, 0
2, 57734, Control_c, 0, 64, 0
2, 57780, Note_on_c, 0, 72, 72
2, 57780, Note_on_c, 0, 67, 76
2, 57780, Note_on_c, 0, 64, 60
2, 57796, Control_c, 0, 64, 127
2, 57798, Control_c, 0, 64, 127
2, 57819, Note_on_c, 0, 64, 0
2, 57824, Note_on_c, 0, 67, 0
2, 57827, Note_on_c, 0, 72, 0
2, 57840, Note_on_c, 0, 72, 80
2, 57840, Note_on_c, 0, 67, 62
2, 57840, Note_on_c, 0, 64, 59
2, 57880, Note_on_c, 0, 64, 0
2, 57880, Note_on_c, 0, 72, 0
2, 57884, Note_on_c, 0, 67, 0
2, 57900, Note_on_c, 0, 72, 76
2, 57900, Note_on_c, 0, 67, 62
2, 57900, Note_on_c, 0, 64, 60
2, 57923, Note_on_c, 0, 72, 0
2, 57939, Note_on_c, 0, 64, 0
2, 57942, Note_on_c, 0, 67, 0
2, 57960, Note_on_c, 0, 72, 80
2, 57960, Note_on_c, 0, 64, 72
2, 57960, Note_on_c, 0, 67, 68
2, 57965, Control_c, 0, 64, 0
2, 57971, Control_c, 0, 64, 0
2, 57998, Control_c, 0, 64, 127
2, 58013, Control_c, 0, 64, 127
2, 58125, Note_on_c, 0, 67, 0
2, 58132, Note_on_c, 0, 64, 0
2, 58138, Control_c, 0, 64, 0
2, 58140, Note_on_c, 0, 72, 0
2, 58140, Note_on_c, 0, 71, 72
2, 58140, Note_on_c, 0, 66, 64
2, 58140, Note_on_c, 0, 62, 76
2, 58148, Control_c, 0, 64, 0
2, 58164, Control_c, 0, 64, 127
2, 58181, Control_c, 0, 64, 127
2, 58191, Note_on_c, 0, 66, 0
2, 58192, Note_on_c, 0, 62, 0
2, 58193, Control_c, 0, 64, 0
2, 58200, Note_on_c, 0, 69, 64
2, 58200, Note_on_c, 0, 64, 64
2, 58200, Note_on_c, 0, 60, 62
2, 58207, Note_on_c, 0, 71, 0
2, 58208, Control_c, 0, 64, 0
2, 58215, Control_c, 0, 64, 127
2, 58242, Note_on_c, 0, 60, 0
2, 58242, Control_c, 0, 64, 127
2, 58256, Note_on_c, 0, 69, 0
2, 58257, Control_c, 0, 64, 0
2, 58258, Note_on_c, 0, 64, 0
2, 58260, Note_on_c, 0, 67, 64
2, 58260, Note_on_c, 0, 59, 76
2, 58260, Note_on_c, 0, 62, 72
2, 58268, Control_c, 0, 64, 0
2, 58285, Control_c, 0, 64, 127
2, 58296, Note_on_c, 0, 62, 0
2, 58307, Note_on_c, 0, 59, 0
2, 58307, Control_c, 0, 64, 127
2, 58320, Note_on_c, 0, 71, 60
2, 58320, Note_on_c, 0, 62, 80
2, 58320, Note_on_c, 0, 60, 76
2, 58321, Note_on_c, 0, 67, 0
2, 58321, Control_c, 0, 64, 0
2, 58325, Control_c, 0, 64, 0
2, 58358, Control_c, 0, 64, 127
2, 58367, Control_c, 0, 64, 127
2, 58380, Note_on_c, 0, 71, 0
2, 58380, Note_on_c, 0, 69, 51
2, 58384, Control_c, 0, 64, 0
2, 58412, Control_c, 0, 64, 127
2, 58431, Control_c, 0, 64, 0
2, 58432, Note_on_c, 0, 60, 0
2, 58440, Control_c, 0, 64, 0
2, 58440, Note_on_c, 0, 67, 60
2, 58440, Note_on_c, 0, 59, 62
2, 58441, Note_on_c, 0, 69, 0
2, 58459, Control_c, 0, 64, 127
2, 58464, Note_on_c, 0, 62, 0
2, 58467, Control_c, 0, 64, 127
2, 58475, Note_on_c, 0, 59, 0
2, 58478, Note_on_c, 0, 67, 0
2, 58487, Control_c, 0, 64, 0
2, 58490, Control_c, 0, 64, 0
2, 58500, Note_on_c, 0, 72, 85
2, 58500, Note_on_c, 0, 64, 55
2, 58500, Note_on_c, 0, 67, 68
2, 58522, Control_c, 0, 64, 127
2, 58523, Control_c, 0, 64, 127
2, 58542, Note_on_c, 0, 67, 0
2, 58545, Note_on_c, 0, 64, 0
2, 58549, Note_on_c, 0, 72, 0
2, 58560, Note_on_c, 0, 72, 85
2, 58560, Note_on_c, 0, 64, 59
2, 58560, Note_on_c, 0, 67, 62
2, 58601, Note_on_c, 0, 67, 0
2, 58602, Note_on_c, 0, 72, 0
2, 58603, Note_on_c, 0, 64, 0
2, 58620, Note_on_c, 0, 72, 89
2, 58620, Note_on_c, 0, 64, 55
2, 58620, Note_on_c, 0, 67, 62
2, 58658, Note_on_c, 0, 72, 0
2, 58661, Note_on_c, 0, 64, 0
2, 58662, Note_on_c, 0, 67, 0
2, 58680, Note_on_c, 0, 72, 80
2, 58680, Note_on_c, 0, 64, 55
2, 58680, Note_on_c, 0, 67, 52
2, 58684, Control_c, 0, 64, 0
2, 58695, Control_c, 0, 64, 0
2, 58724, Control_c, 0, 64, 127
2, 58746, Control_c, 0, 64, 127
2, 58851, Note_on_c, 0, 67, 0
2, 58852, Control_c, 0, 64, 0
2, 58855, Note_on_c, 0, 64, 0
2, 58860, Note_on_c, 0, 71, 62
2, 58860, Note_on_c, 0, 66, 72
2, 58860, Note_on_c, 0, 62, 76
2, 58865, Note_on_c, 0, 72, 0
2, 58872, Control_c, 0, 64, 0
2, 58875, Control_c, 0, 64, 127
2, 58894, Note_on_c, 0, 66, 0
2, 58901, Control_c, 0, 64, 127
2, 58902, Note_on_c, 0, 62, 0
2, 58920, Note_on_c, 0, 69, 60
2, 58920, Note_on_c, 0, 64, 72
2, 58920, Note_on_c, 0, 60, 62
2, 58923, Note_on_c, 0, 71, 0
2, 58925, Control_c, 0, 64, 0
2, 58931, Control_c, 0, 64, 0
2, 58947, Control_c, 0, 64, 127
2, 58968, Control_c, 0, 64, 127
2, 58971, Note_on_c, 0, 64, 0
2, 58973, Note_on_c, 0, 60, 0
2, 58977, Note_on_c, 0, 69, 0
2, 58980, Note_on_c, 0, 67, 64
2, 58980, Note_on_c, 0, 62, 76
2, 58980, Note_on_c, 0, 59, 64
2, 58985, Control_c, 0, 64, 0
2, 58995, Control_c, 0, 64, 0
2, 59005, Control_c, 0, 64, 127
2, 59019, Note_on_c, 0, 59, 0
2, 59019, Note_on_c, 0, 62, 0
2, 59028, Control_c, 0, 64, 127
2, 59040, Note_on_c, 0, 71, 80
2, 59040, Note_on_c, 0, 62, 80
2, 59040, Note_on_c, 0, 60, 76
2, 59043, Control_c, 0, 64, 0
2, 59044, Control_c, 0, 64, 0
2, 59046, Note_on_c, 0, 67, 0
2, 59074, Control_c, 0, 64, 127
2, 59076, Control_c, 0, 64, 127
2, 59097, Control_c, 0, 64, 0
2, 59099, Note_on_c, 0, 71, 0
2, 59100, Note_on_c, 0, 69, 89
2, 59128, Control_c, 0, 64, 127
2, 59149, Note_on_c, 0, 60, 0
2, 59149, Control_c, 0, 64, 0
2, 59150, Control_c, 0, 64, 0
2, 59160, Note_on_c, 0, 67, 93
2, 59160, Note_on_c, 0, 59, 72
2, 59161, Note_on_c, 0, 69, 0
2, 59169, Control_c, 0, 64, 127
2, 59170, Control_c, 0, 64, 127
2, 59177, Note_on_c, 0, 67, 0
2, 59184, Note_on_c, 0, 62, 0
2, 59194, Note_on_c, 0, 59, 0
2, 59207, Control_c, 0, 64, 0
2, 59214, Control_c, 0, 64, 0
2, 59220, Note_on_c, 0, 72, 102
2, 59220, Note_on_c, 0, 84, 113
2, 59220, Note_on_c, 0, 64, 93
2, 59220, Note_on_c, 0, 67, 98
2, 59231, Note_on_c, 0, 64, 0
2, 59233, Note_on_c, 0, 67, 0
2, 59250, Note_on_c, 0, 72, 0
2, 59251, Note_on_c, 0, 84, 0
2, 59280, Note_on_c, 0, 72, 113
2, 59280, Note_on_c, 0, 84, 113
2, 59280, Note_on_c, 0, 64, 107
2, 59280, Note_on_c, 0, 67, 93
2, 59293, Note_on_c, 0, 64, 0
2, 59294, Note_on_c, 0, 67, 0
2, 59306, Note_on_c, 0, 72, 0
2, 59307, Note_on_c, 0, 84, 0
2, 59340, Note_on_c, 0, 72, 102
2, 59340, Note_on_c, 0, 84, 113
2, 59340, Note_on_c, 0, 63, 107
2, 59340, Note_on_c, 0, 67, 98
2, 59356, Note_on_c, 0, 63, 0
2, 59360, Note_on_c, 0, 67, 0
2, 59365, Note_on_c, 0, 84, 0
2, 59365, Note_on_c, 0, 72, 0
2, 59400, Note_on_c, 0, 72, 107
2, 59400, Note_on_c, 0, 84, 113
2, 59400, Note_on_c, 0, 62, 89
2, 59400, Note_on_c, 0, 66, 93
2, 59445, Control_c, 0, 64, 127
2, 59454, Note_on_c, 0, 62, 0
2, 59460, Note_on_c, 0, 63, 85
2, 59515, Note_on_c, 0, 66, 0
2, 59518, Note_on_c, 0, 84, 0
2, 59520, Note_on_c, 0, 67, 80
2, 59520, Note_on_c, 0, 64, 76
2, 59522, Note_on_c, 0, 63, 0
2, 59526, Note_on_c, 0, 72, 0
2, 59575, Note_on_c, 0, 64, 0
2, 59579, Note_on_c, 0, 67, 0
2, 59580, Control_c, 0, 64, 0
2, 59580, Note_on_c, 0, 71, 98
2, 59580, Note_on_c, 0, 83, 107
2, 59580, Note_on_c, 0, 66, 72
2, 59580, Note_on_c, 0, 62, 76
2, 59600, Control_c, 0, 64, 127
2, 59601, Control_c, 0, 64, 127
2, 59604, Note_on_c, 0, 83, 0
2, 59608, Note_on_c, 0, 71, 0
2, 59636, Note_on_c, 0, 62, 0
2, 59636, Control_c, 0, 64, 0
2, 59637, Note_on_c, 0, 66, 0
2, 59637, Control_c, 0, 64, 0
2, 59640, Note_on_c, 0, 69, 89
2, 59640, Note_on_c, 0, 81, 102
2, 59640, Note_on_c, 0, 64, 80
2, 59640, Note_on_c, 0, 60, 68
2, 59656, Control_c, 0, 64, 127
2, 59661, Control_c, 0, 64, 127
2, 59667, Note_on_c, 0, 81, 0
2, 59673, Note_on_c, 0, 69, 0
2, 59685, Note_on_c, 0, 60, 0
2, 59693, Control_c, 0, 64, 0
2, 59698, Note_on_c, 0, 64, 0
2, 59700, Note_on_c, 0, 67, 93
2, 59700, Note_on_c, 0, 79, 107
2, 59700, Note_on_c, 0, 59, 89
2, 59700, Note_on_c, 0, 62, 93
2, 59717, Control_c, 0, 64, 127
2, 59729, Note_on_c, 0, 79, 0
2, 59729, Note_on_c, 0, 67, 0
2, 59743, Note_on_c, 0, 62, 0
2, 59750, Note_on_c, 0, 59, 0
2, 59756, Control_c, 0, 64, 0
2, 59760, Control_c, 0, 64, 0
2, 59760, Note_on_c, 0, 67, 107
2, 59760, Note_on_c, 0, 79, 107
2, 59760, Note_on_c, 0, 57, 85
2, 59760, Note_on_c, 0, 60, 89
2, 59791, Control_c, 0, 64, 127
2, 59812, Control_c, 0, 64, 127
2, 59831, Note_on_c, 0, 79, 0
2, 59833, Note_on_c, 0, 67, 0
2, 59880, Note_on_c, 0, 78, 98
2, 59880, Note_on_c, 0, 66, 85
2, 59884, Control_c, 0, 64, 0
2, 59894, Note_on_c, 0, 66, 0
2, 59896, Note_on_c, 0, 78, 0
2, 59901, Control_c, 0, 64, 127
2, 59937, Note_on_c, 0, 60, 0
2, 59940, Note_on_c, 0, 76, 98
2, 59940, Note_on_c, 0, 88, 113
2, 59940, Note_on_c, 0, 66, 76
2, 59942, Control_c, 0, 64, 0
2, 59943, Control_c, 0, 64, 0
2, 59945, Note_on_c, 0, 57, 0
2, 59968, Note_on_c, 0, 88, 0
2, 59970, Control_c, 0, 64, 127
2, 59973, Note_on_c, 0, 76, 0
2, 59997, Control_c, 0, 64, 0
2, 60000, Note_on_c, 0, 74, 93
2, 60000, Note_on_c, 0, 86, 107
2, 60000, Note_on_c, 0, 67, 93
2, 60003, Note_on_c, 0, 66, 0
2, 60015, Control_c, 0, 64, 127
2, 60026, Note_on_c, 0, 86, 0
2, 60028, Note_on_c, 0, 74, 0
2, 60047, Control_c, 0, 64, 0
2, 60058, Note_on_c, 0, 67, 0
2, 60060, Note_on_c, 0, 72, 89
2, 60060, Note_on_c, 0, 84, 98
2, 60060, Note_on_c, 0, 66, 76
2, 60065, Control_c, 0, 64, 127
2, 60084, Note_on_c, 0, 84, 0
2, 60086, Note_on_c, 0, 72, 0
2, 60115, Control_c, 0, 64, 0
2, 60120, Note_on_c, 0, 83, 98
2, 60120, Note_on_c, 0, 71, 98
2, 60120, Note_on_c, 0, 67, 89
2, 60122, Note_on_c, 0, 66, 0
2, 60138, Control_c, 0, 64, 127
2, 60144, Control_c, 0, 64, 127
2, 60183, Note_on_c, 0, 67, 0
2, 60185, Control_c, 0, 64, 0
2, 60185, Control_c, 0, 64, 0
2, 60186, Note_on_c, 0, 71, 0
2, 60187, Note_on_c, 0, 83, 0
2, 60240, Note_on_c, 0, 84, 98
2, 60240, Note_on_c, 0, 72, 102
2, 60240, Note_on_c, 0, 69, 89
2, 60240, Note_on_c, 0, 64, 89
2, 60254, Control_c, 0, 64, 127
2, 60259, Control_c, 0, 64, 127
2, 60291, Note_on_c, 0, 84, 0
2, 60297, Note_on_c, 0, 72, 0
2, 60302, Note_on_c, 0, 69, 0
2, 60304, Note_on_c, 0, 64, 0
2, 60305, Control_c, 0, 64, 0
2, 60311, Control_c, 0, 64, 0
2, 60360, Note_on_c, 0, 74, 89
2, 60360, Note_on_c, 0, 78, 89
2, 60360, Note_on_c, 0, 62, 89
2, 60360, Note_on_c, 0, 69, 89
2, 60360, Note_on_c, 0, 66, 76
2, 60373, Control_c, 0, 64, 127
2, 60374, Control_c, 0, 64, 127
2, 60421, Note_on_c, 0, 78, 0
2, 60422, Note_on_c, 0, 66, 0
2, 60422, Note_on_c, 0, 62, 0
2, 60423, Note_on_c, 0, 74, 0
2, 60423, Note_on_c, 0, 69, 0
2, 60426, Control_c, 0, 64, 0
2, 60457, Control_c, 0, 64, 0
2, 60480, Note_on_c, 0, 74, 93
2, 60480, Note_on_c, 0, 79, 89
2, 60480, Note_on_c, 0, 67, 80
2, 60480, Note_on_c, 0, 71, 89
2, 60480, Note_on_c, 0, 62, 93
2, 60493, Control_c, 0, 64, 127
2, 60500, Control_c, 0, 64, 127
2, 60604, Control_c, 0, 64, 0
2, 60607, Note_on_c, 0, 62, 0
2, 60607, Note_on_c, 0, 67, 0
2, 60608, Note_on_c, 0, 71, 0
2, 60610, Note_on_c, 0, 79, 0
2, 60611, Note_on_c, 0, 74, 0
2, 60614, Control_c, 0, 64, 0
2, 61200, Note_on_c, 0, 74, 76
2, 61200, Note_on_c, 0, 62, 80
2, 61231, Control_c, 0, 64, 127
2, 61287, Note_on_c, 0, 62, 0
2, 61287, Control_c, 0, 64, 0
2, 61289, Note_on_c, 0, 74, 0
2, 61290, Note_on_c, 0, 76, 64
2, 61290, Note_on_c, 0, 64, 72
2, 61305, Note_on_c, 0, 78, 60
2, 61305, Note_on_c, 0, 66, 62
2, 61309, Note_on_c, 0, 64, 0
2, 61309, Note_on_c, 0, 76, 0
2, 61320, Note_on_c, 0, 79, 80
2, 61320, Note_on_c, 0, 67, 76
2, 61322, Note_on_c, 0, 78, 0
2, 61324, Note_on_c, 0, 66, 0
2, 61442, Note_on_c, 0, 79, 0
2, 61442, Note_on_c, 0, 67, 0
2, 61920, Note_on_c, 0, 86, 85
2, 61920, Note_on_c, 0, 74, 80
2, 61935, Control_c, 0, 64, 127
2, 62002, Control_c, 0, 64, 0
2, 62010, Note_on_c, 0, 88, 68
2, 62010, Note_on_c, 0, 76, 76
2, 62011, Note_on_c, 0, 74, 0
2, 62013, Note_on_c, 0, 86, 0
2, 62025, Note_on_c, 0, 90, 64
2, 62025, Note_on_c, 0, 78, 68
2, 62029, Note_on_c, 0, 88, 0
2, 62030, Note_on_c, 0, 76, 0
2, 62040, Note_on_c, 0, 91, 80
2, 62040, Note_on_c, 0, 79, 60
2, 62042, Note_on_c, 0, 90, 0
2, 62045, Note_on_c, 0, 78, 0
2, 62102, Control_c, 0, 64, 127
2, 62148, Note_on_c, 0, 91, 0
2, 62157, Note_on_c, 0, 79, 0
2, 62171, Control_c, 0, 64, 0
2, 62460, Note_on_c, 0, 88, 102
2, 62460, Note_on_c, 0, 76, 102
2, 62460, Note_on_c, 0, 64, 119
2, 62469, Note_on_c, 0, 76, 0
2, 62471, Note_on_c, 0, 64, 0
2, 62471, Note_on_c, 0, 88, 0
2, 62520, Note_on_c, 0, 76, 107
2, 62520, Note_on_c, 0, 88, 102
2, 62520, Note_on_c, 0, 64, 102
2, 62529, Note_on_c, 0, 64, 0
2, 62529, Note_on_c, 0, 76, 0
2, 62530, Note_on_c, 0, 88, 0
2, 62580, Note_on_c, 0, 88, 102
2, 62580, Note_on_c, 0, 76, 113
2, 62580, Note_on_c, 0, 64, 89
2, 62589, Note_on_c, 0, 64, 0
2, 62589, Note_on_c, 0, 76, 0
2, 62591, Note_on_c, 0, 88, 0
2, 62640, Note_on_c, 0, 88, 107
2, 62640, Note_on_c, 0, 76, 107
2, 62640, Note_on_c, 0, 64, 107
2, 62700, Control_c, 0, 64, 127
2, 62722, Control_c, 0, 64, 127
2, 62762, Note_on_c, 0, 88, 0
2, 62768, Note_on_c, 0, 76, 0
2, 62805, Control_c, 0, 64, 0
2, 62817, Note_on_c, 0, 64, 0
2, 62817, Control_c, 0, 64, 0
2, 62820, Note_on_c, 0, 74, 98
2, 62820, Note_on_c, 0, 86, 113
2, 62820, Note_on_c, 0, 62, 98
2, 62830, Note_on_c, 0, 86, 0
2, 62830, Note_on_c, 0, 74, 0
2, 62833, Note_on_c, 0, 62, 0
2, 62880, Note_on_c, 0, 86, 102
2, 62880, Note_on_c, 0, 74, 98
2, 62880, Note_on_c, 0, 62, 107
2, 62890, Note_on_c, 0, 62, 0
2, 62890, Note_on_c, 0, 74, 0
2, 62890, Note_on_c, 0, 86, 0
2, 62940, Note_on_c, 0, 86, 102
2, 62940, Note_on_c, 0, 74, 102
2, 62940, Note_on_c, 0, 62, 113
2, 62950, Note_on_c, 0, 62, 0
2, 62950, Note_on_c, 0, 74, 0
2, 62951, Note_on_c, 0, 86, 0
2, 63000, Note_on_c, 0, 86, 107
2, 63000, Note_on_c, 0, 74, 107
2, 63000, Note_on_c, 0, 62, 113
2, 63037, Control_c, 0, 64, 127
2, 63043, Control_c, 0, 64, 127
2, 63119, Note_on_c, 0, 86, 0
2, 63125, Note_on_c, 0, 74, 0
2, 63156, Control_c, 0, 64, 0
2, 63174, Note_on_c, 0, 62, 0
2, 63175, Control_c, 0, 64, 0
2, 63180, Note_on_c, 0, 84, 102
2, 63180, Note_on_c, 0, 72, 93
2, 63180, Note_on_c, 0, 60, 89
2, 63189, Note_on_c, 0, 72, 0
2, 63190, Note_on_c, 0, 84, 0
2, 63192, Note_on_c, 0, 60, 0
2, 63240, Note_on_c, 0, 84, 93
2, 63240, Note_on_c, 0, 72, 98
2, 63240, Note_on_c, 0, 60, 102
2, 63250, Note_on_c, 0, 72, 0
2, 63251, Note_on_c, 0, 84, 0
2, 63252, Note_on_c, 0, 60, 0
2, 63300, Note_on_c, 0, 84, 93
2, 63300, Note_on_c, 0, 72, 89
2, 63300, Note_on_c, 0, 60, 102
2, 63309, Note_on_c, 0, 72, 0
2, 63311, Note_on_c, 0, 84, 0
2, 63312, Note_on_c, 0, 60, 0
2, 63360, Note_on_c, 0, 84, 102
2, 63360, Note_on_c, 0, 72, 107
2, 63360, Note_on_c, 0, 60, 93
2, 63391, Control_c, 0, 64, 127
2, 63424, Control_c, 0, 64, 127
2, 63492, Control_c, 0, 64, 0
2, 63493, Note_on_c, 0, 72, 0
2, 63495, Note_on_c, 0, 84, 0
2, 63510, Control_c, 0, 64, 0
2, 63519, Note_on_c, 0, 60, 0
2, 63540, Note_on_c, 0, 69, 68
2, 63600, Note_on_c, 0, 72, 62
2, 63601, Note_on_c, 0, 69, 0
2, 63611, Control_c, 0, 64, 127
2, 63650, Control_c, 0, 64, 0
2, 63660, Note_on_c, 0, 69, 64
2, 63661, Note_on_c, 0, 72, 0
2, 63720, Note_on_c, 0, 67, 57
2, 63722, Note_on_c, 0, 69, 0
2, 63768, Control_c, 0, 64, 127
2, 63838, Control_c, 0, 64, 0
2, 63840, Note_on_c, 0, 71, 60
2, 63848, Note_on_c, 0, 67, 0
2, 63887, Control_c, 0, 64, 127
2, 63958, Control_c, 0, 64, 0
2, 63960, Note_on_c, 0, 74, 62
2, 63969, Note_on_c, 0, 71, 0
2, 63994, Control_c, 0, 64, 127
2, 64044, Note_on_c, 0, 74, 0
2, 64080, Note_on_c, 0, 74, 93
2, 64082, Control_c, 0, 64, 0
2, 64171, Control_c, 0, 64, 127
2, 64320, Control_c, 0, 64, 0
2, 64320, Note_on_c, 0, 66, 76
2, 64322, Note_on_c, 0, 74, 0
2, 64348, Control_c, 0, 64, 127
2, 64381, Note_on_c, 0, 66, 0
2, 64437, Control_c, 0, 64, 0
2, 64440, Note_on_c, 0, 79, 76
2, 64440, Note_on_c, 0, 67, 80
2, 64459, Control_c, 0, 64, 127
2, 64476, Control_c, 0, 64, 127
2, 64560, Note_on_c, 0, 83, 89
2, 64560, Note_on_c, 0, 71, 93
2, 64561, Note_on_c, 0, 67, 0
2, 64569, Note_on_c, 0, 79, 0
2, 64569, Control_c, 0, 64, 0
2, 64575, Control_c, 0, 64, 0
2, 64598, Control_c, 0, 64, 127
2, 64634, Control_c, 0, 64, 127
2, 64676, Note_on_c, 0, 83, 0
2, 64678, Control_c, 0, 64, 0
2, 64680, Note_on_c, 0, 86, 89
2, 64680, Note_on_c, 0, 74, 85
2, 64684, Control_c, 0, 64, 0
2, 64687, Note_on_c, 0, 71, 0
2, 64705, Control_c, 0, 64, 127
2, 64708, Control_c, 0, 64, 127
2, 64781, Note_on_c, 0, 86, 0
2, 64786, Note_on_c, 0, 74, 0
2, 64795, Control_c, 0, 64, 0
2, 64800, Note_on_c, 0, 86, 93
2, 64800, Note_on_c, 0, 74, 89
2, 64804, Control_c, 0, 64, 0
2, 64845, Control_c, 0, 64, 127
2, 64845, Control_c, 0, 64, 127
2, 65037, Control_c, 0, 64, 0
2, 65040, Note_on_c, 0, 74, 0
2, 65040, Note_on_c, 0, 78, 72
2, 65040, Note_on_c, 0, 66, 72
2, 65042, Control_c, 0, 64, 0
2, 65044, Note_on_c, 0, 86, 0
2, 65063, Control_c, 0, 64, 127
2, 65068, Control_c, 0, 64, 127
2, 65100, Note_on_c, 0, 66, 0
2, 65149, Note_on_c, 0, 78, 0
2, 65160, Note_on_c, 0, 79, 89
2, 65160, Note_on_c, 0, 67, 89
2, 65160, Control_c, 0, 64, 0
2, 65161, Control_c, 0, 64, 0
2, 65194, Control_c, 0, 64, 127
2, 65195, Control_c, 0, 64, 127
2, 65280, Note_on_c, 0, 83, 98
2, 65280, Note_on_c, 0, 71, 102
2, 65282, Note_on_c, 0, 67, 0
2, 65284, Note_on_c, 0, 79, 0
2, 65284, Control_c, 0, 64, 0
2, 65284, Control_c, 0, 64, 0
2, 65311, Control_c, 0, 64, 127
2, 65315, Control_c, 0, 64, 127
2, 65393, Note_on_c, 0, 83, 0
2, 65400, Note_on_c, 0, 71, 0
2, 65400, Note_on_c, 0, 86, 119
2, 65400, Note_on_c, 0, 74, 107
2, 65401, Control_c, 0, 64, 0
2, 65404, Control_c, 0, 64, 0
2, 65434, Control_c, 0, 64, 127
2, 65439, Control_c, 0, 64, 127
2, 65513, Note_on_c, 0, 86, 0
2, 65514, Note_on_c, 0, 74, 0
2, 65515, Control_c, 0, 64, 0
2, 65516, Control_c, 0, 64, 0
2, 65520, Note_on_c, 0, 87, 119
2, 65520, Note_on_c, 0, 75, 113
2, 65567, Control_c, 0, 64, 127
2, 65580, Control_c, 0, 64, 127
2, 65736, Note_on_c, 0, 75, 0
2, 65750, Note_on_c, 0, 87, 0
2, 65759, Control_c, 0, 64, 0
2, 65760, Note_on_c, 0, 87, 107
2, 65760, Note_on_c, 0, 75, 107
2, 65760, Control_c, 0, 64, 0
2, 65790, Control_c, 0, 64, 127
2, 65793, Control_c, 0, 64, 127
2, 65870, Control_c, 0, 64, 0
2, 65880, Note_on_c, 0, 75, 0
2, 65880, Note_on_c, 0, 90, 93
2, 65880, Note_on_c, 0, 78, 85
2, 65881, Note_on_c, 0, 87, 0
2, 65900, Control_c, 0, 64, 127
2, 65911, Control_c, 0, 64, 127
2, 65931, Note_on_c, 0, 90, 0
2, 65936, Control_c, 0, 64, 0
2, 65940, Note_on_c, 0, 88, 93
2, 65940, Note_on_c, 0, 76, 76
2, 65941, Control_c, 0, 64, 0
2, 65942, Note_on_c, 0, 78, 0
2, 65986, Control_c, 0, 64, 127
2, 66000, Note_on_c, 0, 76, 0
2, 66000, Note_on_c, 0, 86, 102
2, 66000, Note_on_c, 0, 74, 80
2, 66000, Control_c, 0, 64, 0
2, 66001, Note_on_c, 0, 88, 0
2, 66042, Control_c, 0, 64, 127
2, 66049, Control_c, 0, 64, 0
2, 66058, Note_on_c, 0, 74, 0
2, 66059, Note_on_c, 0, 86, 0
2, 66060, Note_on_c, 0, 84, 89
2, 66060, Note_on_c, 0, 72, 76
2, 66088, Control_c, 0, 64, 127
2, 66088, Control_c, 0, 64, 127
2, 66098, Control_c, 0, 64, 0
2, 66099, Control_c, 0, 64, 0
2, 66118, Note_on_c, 0, 84, 0
2, 66120, Note_on_c, 0, 71, 76
2, 66121, Note_on_c, 0, 72, 0
2, 66121, Note_on_c, 0, 83, 98
2, 66132, Control_c, 0, 64, 127
2, 66158, Control_c, 0, 64, 0
2, 66159, Control_c, 0, 64, 127
2, 66161, Control_c, 0, 64, 0
2, 66180, Note_on_c, 0, 81, 93
2, 66180, Note_on_c, 0, 69, 85
2, 66181, Note_on_c, 0, 71, 0
2, 66183, Note_on_c, 0, 83, 0
2, 66191, Control_c, 0, 64, 127
2, 66224, Control_c, 0, 64, 0
2, 66240, Note_on_c, 0, 79, 98
2, 66240, Note_on_c, 0, 67, 76
2, 66244, Note_on_c, 0, 69, 0
2, 66251, Note_on_c, 0, 81, 0
2, 66271, Control_c, 0, 64, 127
2, 66276, Control_c, 0, 64, 127
2, 66296, Control_c, 0, 64, 0
2, 66325, Control_c, 0, 64, 127
2, 66352, Control_c, 0, 64, 0
2, 66355, Control_c, 0, 64, 0
2, 66360, Note_on_c, 0, 79, 0
2, 66360, Note_on_c, 0, 81, 93
2, 66360, Note_on_c, 0, 69, 89
2, 66362, Note_on_c, 0, 67, 0
2, 66390, Note_on_c, 0, 79, 80
2, 66390, Note_on_c, 0, 67, 68
2, 66394, Note_on_c, 0, 69, 0
2, 66394, Note_on_c, 0, 81, 0
2, 66419, Note_on_c, 0, 79, 0
2, 66420, Note_on_c, 0, 78, 64
2, 66420, Note_on_c, 0, 66, 62
2, 66421, Note_on_c, 0, 67, 0
2, 66442, Control_c, 0, 64, 127
2, 66450, Note_on_c, 0, 79, 85
2, 66450, Note_on_c, 0, 67, 76
2, 66451, Note_on_c, 0, 78, 0
2, 66452, Note_on_c, 0, 66, 0
2, 66472, Control_c, 0, 64, 0
2, 66480, Note_on_c, 0, 83, 89
2, 66480, Note_on_c, 0, 71, 80
2, 66482, Note_on_c, 0, 79, 0
2, 66483, Note_on_c, 0, 67, 0
2, 66512, Control_c, 0, 64, 127
2, 66530, Control_c, 0, 64, 0
2, 66540, Note_on_c, 0, 81, 93
2, 66540, Note_on_c, 0, 69, 72
2, 66546, Note_on_c, 0, 83, 0
2, 66547, Note_on_c, 0, 71, 0
2, 66554, Control_c, 0, 64, 127
2, 66560, Control_c, 0, 64, 127
2, 66591, Control_c, 0, 64, 0
2, 66593, Control_c, 0, 64, 0
2, 66594, Note_on_c, 0, 81, 0
2, 66599, Note_on_c, 0, 69, 0
2, 66600, Note_on_c, 0, 79, 98
2, 66600, Note_on_c, 0, 67, 98
2, 66620, Note_on_c, 0, 67, 0
2, 66622, Note_on_c, 0, 79, 0
2, 66720, Note_on_c, 0, 83, 98
2, 66720, Note_on_c, 0, 71, 93
2, 66732, Note_on_c, 0, 83, 0
2, 66737, Note_on_c, 0, 71, 0
2, 66840, Note_on_c, 0, 75, 107
2, 66840, Note_on_c, 0, 63, 102
2, 66856, Note_on_c, 0, 75, 0
2, 66858, Note_on_c, 0, 63, 0
2, 66960, Note_on_c, 0, 76, 113
2, 66960, Note_on_c, 0, 64, 107
2, 66974, Note_on_c, 0, 76, 0
2, 66977, Note_on_c, 0, 64, 0
2, 67080, Note_on_c, 0, 84, 113
2, 67080, Note_on_c, 0, 72, 98
2, 67096, Note_on_c, 0, 72, 0
2, 67096, Note_on_c, 0, 84, 0
2, 67290, Note_on_c, 0, 81, 107
2, 67290, Note_on_c, 0, 69, 102
2, 67304, Note_on_c, 0, 69, 0
2, 67304, Note_on_c, 0, 81, 0
2, 67320, Note_on_c, 0, 78, 107
2, 67320, Note_on_c, 0, 66, 113
2, 67338, Note_on_c, 0, 78, 0
2, 67339, Note_on_c, 0, 66, 0
2, 67440, Note_on_c, 0, 86, 113
2, 67440, Note_on_c, 0, 74, 107
2, 67456, Note_on_c, 0, 86, 0
2, 67460, Note_on_c, 0, 74, 0
2, 67650, Note_on_c, 0, 83, 98
2, 67650, Note_on_c, 0, 71, 98
2, 67664, Note_on_c, 0, 71, 0
2, 67666, Note_on_c, 0, 83, 0
2, 67680, Note_on_c, 0, 80, 107
2, 67680, Note_on_c, 0, 68, 107
2, 67696, Note_on_c, 0, 80, 0
2, 67699, Note_on_c, 0, 68, 0
2, 67800, Note_on_c, 0, 88, 113
2, 67800, Note_on_c, 0, 76, 98
2, 67814, Note_on_c, 0, 88, 0
2, 67818, Note_on_c, 0, 76, 0
2, 68010, Note_on_c, 0, 84, 93
2, 68010, Note_on_c, 0, 72, 89
2, 68019, Note_on_c, 0, 84, 0
2, 68021, Note_on_c, 0, 72, 0
2, 68040, Note_on_c, 0, 81, 98
2, 68040, Note_on_c, 0, 69, 55
2, 68082, Control_c, 0, 64, 127
2, 68094, Note_on_c, 0, 81, 0
2, 68098, Note_on_c, 0, 69, 0
2, 68100, Note_on_c, 0, 90, 80
2, 68100, Note_on_c, 0, 78, 80
2, 68108, Control_c, 0, 64, 127
2, 68153, Control_c, 0, 64, 0
2, 68158, Note_on_c, 0, 78, 0
2, 68158, Control_c, 0, 64, 0
2, 68160, Note_on_c, 0, 83, 93
2, 68160, Note_on_c, 0, 71, 89
2, 68162, Note_on_c, 0, 90, 0
2, 68187, Control_c, 0, 64, 127
2, 68191, Control_c, 0, 64, 127
2, 68220, Note_on_c, 0, 91, 68
2, 68220, Note_on_c, 0, 79, 89
2, 68224, Note_on_c, 0, 83, 0
2, 68225, Note_on_c, 0, 71, 0
2, 68277, Control_c, 0, 64, 0
2, 68279, Note_on_c, 0, 91, 0
2, 68280, Note_on_c, 0, 84, 89
2, 68280, Note_on_c, 0, 72, 93
2, 68281, Note_on_c, 0, 79, 0
2, 68283, Control_c, 0, 64, 0
2, 68319, Control_c, 0, 64, 127
2, 68323, Control_c, 0, 64, 127
2, 68340, Note_on_c, 0, 93, 93
2, 68340, Note_on_c, 0, 81, 80
2, 68342, Note_on_c, 0, 84, 0
2, 68343, Note_on_c, 0, 72, 0
2, 68356, Note_on_c, 0, 93, 0
2, 68382, Control_c, 0, 64, 0
2, 68391, Note_on_c, 0, 81, 0
2, 68392, Control_c, 0, 64, 0
2, 68400, Note_on_c, 0, 81, 89
2, 68400, Note_on_c, 0, 86, 102
2, 68400, Note_on_c, 0, 90, 85
2, 68400, Note_on_c, 0, 78, 76
2, 68400, Note_on_c, 0, 69, 85
2, 68400, Note_on_c, 0, 74, 93
2, 68424, Control_c, 0, 64, 127
2, 68430, Control_c, 0, 64, 127
2, 68436, Note_on_c, 0, 90, 0
2, 68436, Note_on_c, 0, 86, 0
2, 68438, Note_on_c, 0, 81, 0
2, 68465, Control_c, 0, 64, 0
2, 68467, Note_on_c, 0, 69, 0
2, 68469, Note_on_c, 0, 74, 0
2, 68471, Note_on_c, 0, 78, 0
2, 68476, Control_c, 0, 64, 0
2, 68520, Note_on_c, 0, 93, 76
2, 68520, Note_on_c, 0, 86, 89
2, 68520, Note_on_c, 0, 96, 93
2, 68520, Note_on_c, 0, 74, 85
2, 68520, Note_on_c, 0, 81, 98
2, 68520, Note_on_c, 0, 84, 93
2, 68535, Control_c, 0, 64, 127
2, 68551, Control_c, 0, 64, 127
2, 68571, Note_on_c, 0, 96, 0
2, 68571, Note_on_c, 0, 93, 0
2, 68573, Note_on_c, 0, 86, 0
2, 68581, Note_on_c, 0, 74, 0
2, 68581, Control_c, 0, 64, 0
2, 68582, Note_on_c, 0, 84, 0
2, 68583, Note_on_c, 0, 81, 0
2, 68589, Control_c, 0, 64, 0
2, 68640, Note_on_c, 0, 86, 89
2, 68640, Note_on_c, 0, 95, 89
2, 68640, Note_on_c, 0, 91, 93
2, 68640, Note_on_c, 0, 74, 93
2, 68640, Note_on_c, 0, 83, 93
2, 68640, Note_on_c, 0, 79, 98
2, 68653, Control_c, 0, 64, 127
2, 68654, Control_c, 0, 64, 127
2, 68686, Note_on_c, 0, 91, 0
2, 68688, Note_on_c, 0, 95, 0
2, 68693, Note_on_c, 0, 86, 0
2, 68695, Note_on_c, 0, 83, 0
2, 68695, Note_on_c, 0, 79, 0
2, 68696, Control_c, 0, 64, 0
2, 68701, Note_on_c, 0, 74, 0
2, 68713, Control_c, 0, 64, 0
2, 68760, Note_on_c, 0, 84, 80
2, 68760, Note_on_c, 0, 88, 93
2, 68760, Note_on_c, 0, 93, 93
2, 68760, Note_on_c, 0, 72, 89
2, 68760, Note_on_c, 0, 81, 93
2, 68760, Note_on_c, 0, 76, 98
2, 68767, Control_c, 0, 64, 127
2, 68769, Control_c, 0, 64, 127
2, 68801, Note_on_c, 0, 93, 0
2, 68803, Note_on_c, 0, 88, 0
2, 68807, Note_on_c, 0, 84, 0
2, 68813, Control_c, 0, 64, 0
2, 68815, Note_on_c, 0, 81, 0
2, 68815, Note_on_c, 0, 76, 0
2, 68818, Note_on_c, 0, 72, 0
2, 68824, Control_c, 0, 64, 0
2, 68880, Note_on_c, 0, 83, 93
2, 68880, Note_on_c, 0, 91, 93
2, 68880, Note_on_c, 0, 86, 102
2, 68880, Note_on_c, 0, 79, 93
2, 68880, Note_on_c, 0, 71, 93
2, 68880, Note_on_c, 0, 74, 93
2, 68890, Control_c, 0, 64, 127
2, 68894, Control_c, 0, 64, 127
2, 68922, Note_on_c, 0, 86, 0
2, 68924, Note_on_c, 0, 91, 0
2, 68927, Note_on_c, 0, 83, 0
2, 68927, Control_c, 0, 64, 0
2, 68934, Note_on_c, 0, 79, 0
2, 68934, Note_on_c, 0, 74, 0
2, 68938, Note_on_c, 0, 71, 0
2, 68944, Control_c, 0, 64, 0
2, 69000, Note_on_c, 0, 81, 89
2, 69000, Note_on_c, 0, 86, 102
2, 69000, Note_on_c, 0, 90, 93
2, 69000, Note_on_c, 0, 84, 102
2, 69000, Note_on_c, 0, 69, 89
2, 69000, Note_on_c, 0, 78, 89
2, 69000, Note_on_c, 0, 74, 98
2, 69000, Note_on_c, 0, 72, 93
2, 69016, Control_c, 0, 64, 127
2, 69016, Control_c, 0, 64, 127
2, 69047, Note_on_c, 0, 84, 0
2, 69048, Note_on_c, 0, 90, 0
2, 69048, Note_on_c, 0, 86, 0
2, 69050, Note_on_c, 0, 81, 0
2, 69050, Note_on_c, 0, 72, 0
2, 69050, Note_on_c, 0, 74, 0
2, 69054, Note_on_c, 0, 78, 0
2, 69054, Note_on_c, 0, 69, 0
2, 69069, Control_c, 0, 64, 0
2, 69089, Control_c, 0, 64, 0
2, 69120, Note_on_c, 0, 83, 89
2, 69120, Note_on_c, 0, 86, 89
2, 69120, Note_on_c, 0, 91, 93
2, 69120, Note_on_c, 0, 71, 89
2, 69120, Note_on_c, 0, 79, 93
2, 69120, Note_on_c, 0, 74, 98
2, 69125, Control_c, 0, 64, 127
2, 69135, Note_on_c, 0, 86, 0
2, 69137, Control_c, 0, 64, 127
2, 69139, Note_on_c, 0, 83, 0
2, 69139, Note_on_c, 0, 91, 0
2, 69169, Control_c, 0, 64, 0
2, 69180, Note_on_c, 0, 91, 93
2, 69210, Note_on_c, 0, 93, 93
2, 69213, Note_on_c, 0, 91, 0
2, 69234, Control_c, 0, 64, 0
2, 69240, Note_on_c, 0, 95, 89
2, 69241, Note_on_c, 0, 93, 0
2, 69247, Note_on_c, 0, 71, 0
2, 69247, Note_on_c, 0, 74, 0
2, 69250, Note_on_c, 0, 79, 0
2, 69268, Note_on_c, 0, 95, 0
2, 69270, Note_on_c, 0, 93, 76
2, 69299, Note_on_c, 0, 93, 0
2, 69300, Note_on_c, 0, 91, 80
2, 69310, Control_c, 0, 64, 127
2, 69327, Note_on_c, 0, 91, 0
2, 69330, Note_on_c, 0, 90, 62
2, 69355, Control_c, 0, 64, 0
2, 69356, Note_on_c, 0, 90, 0
2, 69360, Note_on_c, 0, 88, 76
2, 69390, Note_on_c, 0, 88, 0
2, 69390, Note_on_c, 0, 86, 68
2, 69409, Control_c, 0, 64, 127
2, 69416, Note_on_c, 0, 86, 0
2, 69416, Control_c, 0, 64, 0
2, 69420, Note_on_c, 0, 85, 53
2, 69450, Note_on_c, 0, 84, 68
2, 69452, Note_on_c, 0, 85, 0
2, 69478, Note_on_c, 0, 84, 0
2, 69480, Note_on_c, 0, 83, 76
2, 69480, Note_on_c, 0, 71, 72
2, 69480, Note_on_c, 0, 79, 72
2, 69480, Note_on_c, 0, 76, 64
2, 69503, Control_c, 0, 64, 127
2, 69517, Control_c, 0, 64, 127
2, 69583, Note_on_c, 0, 76, 0
2, 69583, Note_on_c, 0, 79, 0
2, 69583, Note_on_c, 0, 71, 0
2, 69587, Control_c, 0, 64, 0
2, 69592, Control_c, 0, 64, 0
2, 69602, Note_on_c, 0, 83, 0
2, 69840, Note_on_c, 0, 72, 80
2, 69840, Note_on_c, 0, 81, 76
2, 69840, Note_on_c, 0, 76, 93
2, 69840, Note_on_c, 0, 69, 76
2, 69877, Control_c, 0, 64, 127
2, 69900, Note_on_c, 0, 93, 85
2, 69917, Control_c, 0, 64, 127
2, 69930, Note_on_c, 0, 95, 89
2, 69932, Note_on_c, 0, 93, 0
2, 69933, Control_c, 0, 64, 0
2, 69959, Control_c, 0, 64, 0
2, 69960, Note_on_c, 0, 95, 0
2, 69960, Note_on_c, 0, 96, 85
2, 69962, Note_on_c, 0, 69, 0
2, 69963, Note_on_c, 0, 72, 0
2, 69966, Note_on_c, 0, 76, 0
2, 69968, Note_on_c, 0, 81, 0
2, 69987, Note_on_c, 0, 96, 0
2, 69990, Note_on_c, 0, 95, 85
2, 70020, Note_on_c, 0, 93, 89
2, 70021, Note_on_c, 0, 95, 0
2, 70050, Note_on_c, 0, 93, 0
2, 70050, Note_on_c, 0, 91, 76
2, 70080, Note_on_c, 0, 91, 0
2, 70080, Note_on_c, 0, 90, 59
2, 70109, Note_on_c, 0, 90, 0
2, 70110, Note_on_c, 0, 88, 76
2, 70140, Note_on_c, 0, 88, 0
2, 70140, Note_on_c, 0, 86, 80
2, 70170, Note_on_c, 0, 86, 0
2, 70170, Note_on_c, 0, 85, 76
2, 70200, Note_on_c, 0, 84, 85
2, 70200, Note_on_c, 0, 78, 57
2, 70200, Note_on_c, 0, 69, 64
2, 70200, Note_on_c, 0, 74, 80
2, 70201, Note_on_c, 0, 85, 0
2, 70216, Control_c, 0, 64, 127
2, 70224, Control_c, 0, 64, 127
2, 70282, Note_on_c, 0, 69, 0
2, 70282, Note_on_c, 0, 74, 0
2, 70285, Note_on_c, 0, 78, 0
2, 70286, Control_c, 0, 64, 0
2, 70321, Control_c, 0, 64, 0
2, 70337, Note_on_c, 0, 84, 0
2, 70560, Note_on_c, 0, 79, 89
2, 70560, Note_on_c, 0, 67, 89
2, 70560, Note_on_c, 0, 71, 93
2, 70560, Note_on_c, 0, 74, 89
2, 70594, Control_c, 0, 64, 127
2, 70620, Note_on_c, 0, 95, 93
2, 70633, Control_c, 0, 64, 127
2, 70650, Note_on_c, 0, 96, 93
2, 70651, Note_on_c, 0, 95, 0
2, 70651, Control_c, 0, 64, 0
2, 70680, Note_on_c, 0, 98, 89
2, 70682, Note_on_c, 0, 96, 0
2, 70697, Note_on_c, 0, 67, 0
2, 70699, Note_on_c, 0, 74, 0
2, 70699, Note_on_c, 0, 71, 0
2, 70701, Note_on_c, 0, 79, 0
2, 70704, Note_on_c, 0, 98, 0
2, 70704, Control_c, 0, 64, 0
2, 70710, Note_on_c, 0, 96, 85
2, 70738, Note_on_c, 0, 96, 0
2, 70740, Note_on_c, 0, 95, 85
2, 70770, Note_on_c, 0, 93, 89
2, 70771, Note_on_c, 0, 95, 0
2, 70798, Note_on_c, 0, 93, 0
2, 70804, Note_on_c, 0, 91, 89
2, 70826, Note_on_c, 0, 91, 0
2, 70827, Note_on_c, 0, 90, 76
2, 70849, Note_on_c, 0, 90, 0
2, 70850, Note_on_c, 0, 88, 89
2, 70872, Note_on_c, 0, 88, 0
2, 70873, Note_on_c, 0, 86, 89
2, 70895, Note_on_c, 0, 86, 0
2, 70896, Note_on_c, 0, 84, 76
2, 70918, Note_on_c, 0, 84, 0
2, 70920, Note_on_c, 0, 83, 89
2, 70920, Note_on_c, 0, 71, 72
2, 70920, Note_on_c, 0, 76, 76
2, 70920, Note_on_c, 0, 79, 72
2, 70927, Control_c, 0, 64, 127
2, 70978, Control_c, 0, 64, 127
2, 70984, Control_c, 0, 64, 0
2, 70997, Note_on_c, 0, 76, 0
2, 70998, Note_on_c, 0, 79, 0
2, 70998, Note_on_c, 0, 71, 0
2, 71047, Control_c, 0, 64, 0
2, 71057, Note_on_c, 0, 83, 0
2, 71280, Note_on_c, 0, 72, 72
2, 71280, Note_on_c, 0, 81, 72
2, 71280, Note_on_c, 0, 76, 85
2, 71280, Note_on_c, 0, 69, 62
2, 71304, Control_c, 0, 64, 127
2, 71340, Note_on_c, 0, 96, 93
2, 71351, Control_c, 0, 64, 127
2, 71368, Note_on_c, 0, 96, 0
2, 71370, Note_on_c, 0, 98, 80
2, 71373, Control_c, 0, 64, 0
2, 71378, Note_on_c, 0, 69, 0
2, 71379, Note_on_c, 0, 72, 0
2, 71381, Note_on_c, 0, 76, 0
2, 71384, Note_on_c, 0, 81, 0
2, 71386, Control_c, 0, 64, 0
2, 71399, Note_on_c, 0, 98, 0
2, 71400, Note_on_c, 0, 100, 85
2, 71429, Note_on_c, 0, 100, 0
2, 71430, Note_on_c, 0, 98, 89
2, 71460, Note_on_c, 0, 96, 85
2, 71463, Note_on_c, 0, 98, 0
2, 71490, Note_on_c, 0, 95, 76
2, 71493, Note_on_c, 0, 96, 0
2, 71519, Note_on_c, 0, 95, 0
2, 71520, Note_on_c, 0, 93, 93
2, 71550, Note_on_c, 0, 93, 0
2, 71550, Note_on_c, 0, 91, 85
2, 71580, Note_on_c, 0, 90, 76
2, 71582, Note_on_c, 0, 91, 0
2, 71609, Note_on_c, 0, 90, 0
2, 71610, Note_on_c, 0, 88, 89
2, 71640, Note_on_c, 0, 86, 93
2, 71640, Note_on_c, 0, 78, 72
2, 71640, Note_on_c, 0, 81, 93
2, 71640, Note_on_c, 0, 72, 80
2, 71640, Note_on_c, 0, 74, 89
2, 71642, Note_on_c, 0, 88, 0
2, 71657, Control_c, 0, 64, 127
2, 71681, Control_c, 0, 64, 127
2, 71719, Note_on_c, 0, 72, 0
2, 71720, Note_on_c, 0, 74, 0
2, 71721, Note_on_c, 0, 78, 0
2, 71721, Note_on_c, 0, 81, 0
2, 71734, Control_c, 0, 64, 0
2, 71829, Note_on_c, 0, 86, 0
2, 71832, Control_c, 0, 64, 0
2, 72000, Note_on_c, 0, 79, 80
2, 72000, Note_on_c, 0, 67, 93
2, 72009, Control_c, 0, 64, 127
2, 72011, Control_c, 0, 64, 127
2, 72025, Control_c, 0, 64, 0
2, 72030, Note_on_c, 0, 67, 0
2, 72030, Note_on_c, 0, 74, 80
2, 72030, Note_on_c, 0, 62, 89
2, 72033, Note_on_c, 0, 79, 0
2, 72036, Control_c, 0, 64, 0
2, 72060, Note_on_c, 0, 62, 0
2, 72060, Note_on_c, 0, 79, 93
2, 72060, Note_on_c, 0, 67, 89
2, 72064, Note_on_c, 0, 74, 0
2, 72081, Control_c, 0, 64, 127
2, 72089, Note_on_c, 0, 67, 0
2, 72090, Note_on_c, 0, 79, 0
2, 72090, Note_on_c, 0, 83, 93
2, 72090, Note_on_c, 0, 71, 85
2, 72096, Control_c, 0, 64, 0
2, 72120, Note_on_c, 0, 71, 0
2, 72120, Note_on_c, 0, 83, 0
2, 72120, Note_on_c, 0, 86, 107
2, 72120, Note_on_c, 0, 74, 98
2, 72135, Control_c, 0, 64, 127
2, 72145, Control_c, 0, 64, 127
2, 72180, Control_c, 0, 64, 0
2, 72185, Note_on_c, 0, 86, 0
2, 72237, Control_c, 0, 64, 0
2, 72238, Note_on_c, 0, 74, 0
2, 72360, Note_on_c, 0, 86, 113
2, 72360, Note_on_c, 0, 74, 93
2, 72390, Note_on_c, 0, 88, 93
2, 72390, Note_on_c, 0, 76, 80
2, 72392, Note_on_c, 0, 86, 0
2, 72397, Note_on_c, 0, 74, 0
2, 72418, Note_on_c, 0, 76, 0
2, 72420, Note_on_c, 0, 90, 89
2, 72420, Note_on_c, 0, 78, 76
2, 72422, Note_on_c, 0, 88, 0
2, 72447, Note_on_c, 0, 90, 0
2, 72448, Note_on_c, 0, 78, 0
2, 72450, Note_on_c, 0, 91, 89
2, 72450, Note_on_c, 0, 79, 93
2, 72478, Note_on_c, 0, 79, 0
2, 72480, Note_on_c, 0, 91, 0
2, 72480, Note_on_c, 0, 86, 98
2, 72480, Note_on_c, 0, 74, 98
2, 72509, Control_c, 0, 64, 127
2, 72513, Control_c, 0, 64, 127
2, 72536, Note_on_c, 0, 86, 0
2, 72547, Control_c, 0, 64, 0
2, 72597, Note_on_c, 0, 74, 0
2, 72599, Control_c, 0, 64, 0
2, 72720, Note_on_c, 0, 79, 98
2, 72720, Note_on_c, 0, 67, 93
2, 72736, Control_c, 0, 64, 127
2, 72750, Note_on_c, 0, 67, 0
2, 72750, Note_on_c, 0, 74, 80
2, 72750, Note_on_c, 0, 62, 85
2, 72750, Control_c, 0, 64, 0
2, 72752, Note_on_c, 0, 79, 0
2, 72765, Control_c, 0, 64, 127
2, 72780, Note_on_c, 0, 62, 0
2, 72780, Note_on_c, 0, 74, 0
2, 72780, Note_on_c, 0, 79, 98
2, 72780, Note_on_c, 0, 67, 89
2, 72808, Note_on_c, 0, 79, 0
2, 72809, Note_on_c, 0, 67, 0
2, 72810, Note_on_c, 0, 83, 98
2, 72810, Note_on_c, 0, 71, 93
2, 72823, Control_c, 0, 64, 0
2, 72838, Note_on_c, 0, 83, 0
2, 72840, Note_on_c, 0, 86, 107
2, 72840, Note_on_c, 0, 74, 98
2, 72841, Note_on_c, 0, 71, 0
2, 72861, Control_c, 0, 64, 127
2, 72882, Control_c, 0, 64, 127
2, 72892, Note_on_c, 0, 86, 0
2, 72906, Control_c, 0, 64, 0
2, 72954, Control_c, 0, 64, 0
2, 72960, Note_on_c, 0, 74, 0
2, 72984, Control_c, 0, 64, 127
2, 73015, Control_c, 0, 64, 0
2, 73080, Note_on_c, 0, 86, 113
2, 73080, Note_on_c, 0, 74, 89
2, 73096, Control_c, 0, 64, 127
2, 73110, Note_on_c, 0, 88, 93
2, 73110, Note_on_c, 0, 76, 89
2, 73112, Note_on_c, 0, 86, 0
2, 73113, Note_on_c, 0, 74, 0
2, 73115, Control_c, 0, 64, 0
2, 73140, Note_on_c, 0, 88, 0
2, 73140, Note_on_c, 0, 90, 98
2, 73140, Note_on_c, 0, 78, 80
2, 73141, Note_on_c, 0, 76, 0
2, 73166, Note_on_c, 0, 90, 0
2, 73170, Note_on_c, 0, 78, 0
2, 73170, Note_on_c, 0, 91, 89
2, 73170, Note_on_c, 0, 79, 93
2, 73199, Note_on_c, 0, 79, 0
2, 73200, Note_on_c, 0, 91, 0
2, 73200, Note_on_c, 0, 86, 113
2, 73200, Note_on_c, 0, 74, 93
2, 73227, Control_c, 0, 64, 127
2, 73240, Control_c, 0, 64, 127
2, 73261, Note_on_c, 0, 86, 0
2, 73266, Control_c, 0, 64, 0
2, 73325, Control_c, 0, 64, 0
2, 73327, Note_on_c, 0, 74, 0
2, 73440, Note_on_c, 0, 86, 113
2, 73440, Note_on_c, 0, 74, 102
2, 73454, Control_c, 0, 64, 127
2, 73469, Note_on_c, 0, 86, 0
2, 73470, Note_on_c, 0, 88, 93
2, 73470, Note_on_c, 0, 76, 93
2, 73471, Note_on_c, 0, 74, 0
2, 73481, Control_c, 0, 64, 0
2, 73498, Note_on_c, 0, 76, 0
2, 73498, Note_on_c, 0, 88, 0
2, 73500, Note_on_c, 0, 90, 80
2, 73500, Note_on_c, 0, 78, 89
2, 73527, Note_on_c, 0, 90, 0
2, 73530, Note_on_c, 0, 78, 0
2, 73530, Note_on_c, 0, 91, 93
2, 73530, Note_on_c, 0, 79, 80
2, 73558, Note_on_c, 0, 79, 0
2, 73560, Note_on_c, 0, 90, 80
2, 73560, Note_on_c, 0, 78, 93
2, 73561, Note_on_c, 0, 91, 0
2, 73590, Note_on_c, 0, 88, 89
2, 73590, Note_on_c, 0, 76, 93
2, 73592, Note_on_c, 0, 78, 0
2, 73592, Note_on_c, 0, 90, 0
2, 73619, Note_on_c, 0, 76, 0
2, 73620, Note_on_c, 0, 88, 0
2, 73620, Note_on_c, 0, 86, 85
2, 73620, Note_on_c, 0, 74, 76
2, 73630, Control_c, 0, 64, 127
2, 73640, Control_c, 0, 64, 127
2, 73641, Control_c, 0, 64, 0
2, 73644, Note_on_c, 0, 74, 0
2, 73650, Note_on_c, 0, 84, 89
2, 73650, Note_on_c, 0, 72, 80
2, 73651, Note_on_c, 0, 86, 0
2, 73672, Control_c, 0, 64, 0
2, 73680, Note_on_c, 0, 83, 93
2, 73680, Note_on_c, 0, 71, 89
2, 73686, Note_on_c, 0, 72, 0
2, 73687, Note_on_c, 0, 84, 0
2, 73710, Note_on_c, 0, 81, 80
2, 73710, Note_on_c, 0, 69, 85
2, 73713, Note_on_c, 0, 83, 0
2, 73713, Note_on_c, 0, 71, 0
2, 73738, Note_on_c, 0, 81, 0
2, 73740, Note_on_c, 0, 79, 93
2, 73740, Note_on_c, 0, 67, 80
2, 73741, Note_on_c, 0, 69, 0
2, 73753, Control_c, 0, 64, 127
2, 73770, Note_on_c, 0, 67, 0
2, 73770, Note_on_c, 0, 78, 89
2, 73770, Note_on_c, 0, 66, 80
2, 73773, Note_on_c, 0, 79, 0
2, 73783, Control_c, 0, 64, 127
2, 73784, Control_c, 0, 64, 0
2, 73797, Note_on_c, 0, 78, 0
2, 73800, Note_on_c, 0, 79, 98
2, 73800, Control_c, 0, 64, 0
2, 73800, Note_on_c, 0, 67, 93
2, 73801, Note_on_c, 0, 66, 0
2, 73829, Note_on_c, 0, 67, 0
2, 73830, Note_on_c, 0, 81, 89
2, 73830, Note_on_c, 0, 69, 93
2, 73834, Note_on_c, 0, 79, 0
2, 73859, Note_on_c, 0, 81, 0
2, 73860, Note_on_c, 0, 83, 89
2, 73860, Note_on_c, 0, 71, 80
2, 73861, Note_on_c, 0, 69, 0
2, 73889, Note_on_c, 0, 71, 0
2, 73890, Note_on_c, 0, 83, 0
2, 73890, Note_on_c, 0, 84, 93
2, 73890, Note_on_c, 0, 72, 89
2, 73920, Note_on_c, 0, 83, 93
2, 73920, Note_on_c, 0, 71, 98
2, 73923, Note_on_c, 0, 72, 0
2, 73924, Note_on_c, 0, 84, 0
2, 73950, Note_on_c, 0, 81, 93
2, 73950, Note_on_c, 0, 69, 89
2, 73952, Note_on_c, 0, 71, 0
2, 73953, Note_on_c, 0, 83, 0
2, 73979, Note_on_c, 0, 69, 0
2, 73980, Note_on_c, 0, 79, 80
2, 73980, Note_on_c, 0, 67, 93
2, 73981, Note_on_c, 0, 81, 0
2, 73983, Control_c, 0, 64, 127
2, 73989, Control_c, 0, 64, 127
2, 74007, Note_on_c, 0, 79, 0
2, 74010, Note_on_c, 0, 67, 0
2, 74010, Note_on_c, 0, 78, 89
2, 74010, Note_on_c, 0, 66, 80
2, 74020, Control_c, 0, 64, 0
2, 74023, Note_on_c, 0, 78, 0
2, 74040, Note_on_c, 0, 76, 102
2, 74040, Note_on_c, 0, 64, 93
2, 74042, Note_on_c, 0, 66, 0
2, 74042, Control_c, 0, 64, 0
2, 74070, Note_on_c, 0, 74, 89
2, 74070, Note_on_c, 0, 62, 89
2, 74071, Note_on_c, 0, 64, 0
2, 74073, Note_on_c, 0, 76, 0
2, 74078, Control_c, 0, 64, 127
2, 74089, Control_c, 0, 64, 127
2, 74092, Control_c, 0, 64, 0
2, 74094, Note_on_c, 0, 62, 0
2, 74100, Note_on_c, 0, 72, 80
2, 74100, Note_on_c, 0, 60, 93
2, 74101, Note_on_c, 0, 74, 0
2, 74126, Note_on_c, 0, 72, 0
2, 74129, Control_c, 0, 64, 127
2, 74130, Note_on_c, 0, 60, 0
2, 74130, Note_on_c, 0, 71, 72
2, 74130, Note_on_c, 0, 59, 107
2, 74151, Control_c, 0, 64, 0
2, 74155, Note_on_c, 0, 59, 0
2, 74156, Note_on_c, 0, 71, 0
2, 74160, Note_on_c, 0, 74, 107
2, 74160, Note_on_c, 0, 62, 107
2, 74189, Note_on_c, 0, 74, 0
2, 74190, Note_on_c, 0, 72, 93
2, 74190, Note_on_c, 0, 60, 80
2, 74197, Note_on_c, 0, 62, 0
2, 74220, Note_on_c, 0, 71, 85
2, 74220, Note_on_c, 0, 59, 85
2, 74222, Note_on_c, 0, 72, 0
2, 74224, Note_on_c, 0, 60, 0
2, 74238, Control_c, 0, 64, 127
2, 74248, Note_on_c, 0, 71, 0
2, 74250, Note_on_c, 0, 69, 72
2, 74250, Note_on_c, 0, 57, 76
2, 74250, Control_c, 0, 64, 0
2, 74254, Note_on_c, 0, 59, 0
2, 74264, Control_c, 0, 64, 127
2, 74265, Note_on_c, 0, 69, 0
2, 74276, Note_on_c, 0, 57, 0
2, 74280, Control_c, 0, 64, 0
2, 74280, Note_on_c, 0, 74, 107
2, 74280, Note_on_c, 0, 62, 107
2, 74296, Control_c, 0, 64, 127
2, 74313, Control_c, 0, 64, 127
2, 74314, Note_on_c, 0, 74, 0
2, 74339, Note_on_c, 0, 62, 0
2, 74354, Control_c, 0, 64, 0
2, 74382, Control_c, 0, 64, 0
2, 74400, Note_on_c, 0, 81, 102
2, 74400, Note_on_c, 0, 90, 102
2, 74400, Note_on_c, 0, 86, 107
2, 74400, Note_on_c, 0, 69, 107
2, 74400, Note_on_c, 0, 74, 107
2, 74400, Note_on_c, 0, 78, 93
2, 74403, Control_c, 0, 64, 127
2, 74426, Control_c, 0, 64, 127
2, 74447, Note_on_c, 0, 90, 0
2, 74448, Note_on_c, 0, 86, 0
2, 74451, Note_on_c, 0, 81, 0
2, 74477, Note_on_c, 0, 74, 0
2, 74478, Note_on_c, 0, 78, 0
2, 74479, Note_on_c, 0, 69, 0
2, 74481, Control_c, 0, 64, 0
2, 74503, Control_c, 0, 64, 0
2, 74520, Note_on_c, 0, 83, 102
2, 74520, Note_on_c, 0, 86, 107
2, 74520, Note_on_c, 0, 91, 107
2, 74520, Note_on_c, 0, 79, 98
2, 74520, Note_on_c, 0, 71, 107
2, 74520, Note_on_c, 0, 74, 102
2, 74530, Control_c, 0, 64, 127
2, 74539, Control_c, 0, 64, 127
2, 74574, Note_on_c, 0, 86, 0
2, 74576, Note_on_c, 0, 91, 0
2, 74580, Note_on_c, 0, 83, 0
2, 74600, Note_on_c, 0, 74, 0
2, 74602, Note_on_c, 0, 79, 0
2, 74608, Note_on_c, 0, 71, 0
2, 74621, Control_c, 0, 64, 0
2, 74631, Control_c, 0, 64, 0
2, 74640, Note_on_c, 0, 79, 119
2, 74640, Note_on_c, 0, 67, 113
2, 74651, Control_c, 0, 64, 127
2, 74664, Control_c, 0, 64, 127
2, 74754, Note_on_c, 0, 67, 0
2, 74764, Control_c, 0, 64, 0
2, 74765, Note_on_c, 0, 79, 0
2, 74766, Control_c, 0, 64, 0
2, 75454, Note_on_c, 0, 86, 80
2, 75468, Note_on_c, 0, 86, 0
2, 75468, Note_on_c, 0, 84, 72
2, 75483, Note_on_c, 0, 83, 89
2, 75484, Note_on_c, 0, 84, 0
2, 75485, Note_on_c, 0, 67, 68
2, 75485, Note_on_c, 0, 74, 62
2, 75485, Note_on_c, 0, 71, 64
2, 75515, Control_c, 0, 64, 127
2, 75537, Note_on_c, 0, 83, 0
2, 75537, Control_c, 0, 64, 0
2, 75538, Note_on_c, 0, 71, 0
2, 75540, Note_on_c, 0, 74, 0
2, 75540, Note_on_c, 0, 67, 0
2, 75605, Note_on_c, 0, 81, 89
2, 75606, Note_on_c, 0, 72, 56
2, 75606, Note_on_c, 0, 62, 72
2, 75606, Note_on_c, 0, 66, 57
2, 75616, Control_c, 0, 64, 127
2, 75656, Note_on_c, 0, 66, 0
2, 75656, Control_c, 0, 64, 0
2, 75657, Note_on_c, 0, 81, 0
2, 75659, Note_on_c, 0, 62, 0
2, 75660, Note_on_c, 0, 72, 0
2, 75724, Note_on_c, 0, 79, 89
2, 75724, Note_on_c, 0, 67, 72
2, 75724, Note_on_c, 0, 71, 72
2, 75730, Control_c, 0, 64, 127
2, 75782, Control_c, 0, 64, 0
2, 75785, Note_on_c, 0, 71, 0
2, 75785, Note_on_c, 0, 67, 0
2, 75785, Note_on_c, 0, 79, 0
2, 75931, Note_on_c, 0, 83, 76
2, 75943, Note_on_c, 0, 81, 72
2, 75947, Note_on_c, 0, 83, 0
2, 75954, Note_on_c, 0, 79, 76
2, 75955, Note_on_c, 0, 81, 0
2, 75964, Note_on_c, 0, 79, 0
2, 75966, Note_on_c, 0, 78, 72
2, 75967, Note_on_c, 0, 66, 59
2, 75968, Note_on_c, 0, 62, 76
2, 75969, Note_on_c, 0, 57, 57
2, 75981, Control_c, 0, 64, 127
2, 76010, Note_on_c, 0, 62, 0
2, 76011, Note_on_c, 0, 57, 0
2, 76012, Note_on_c, 0, 66, 0
2, 76012, Note_on_c, 0, 78, 0
2, 76018, Control_c, 0, 64, 0
2, 76046, Note_on_c, 0, 81, 72
2, 76059, Note_on_c, 0, 79, 64
2, 76062, Note_on_c, 0, 81, 0
2, 76068, Note_on_c, 0, 78, 60
2, 76070, Note_on_c, 0, 79, 0
2, 76080, Note_on_c, 0, 78, 0
2, 76082, Note_on_c, 0, 76, 89
2, 76082, Note_on_c, 0, 57, 72
2, 76083, Note_on_c, 0, 67, 68
2, 76083, Note_on_c, 0, 61, 51
2, 76095, Control_c, 0, 64, 127
2, 76133, Control_c, 0, 64, 0
2, 76137, Note_on_c, 0, 61, 0
2, 76137, Note_on_c, 0, 67, 0
2, 76137, Note_on_c, 0, 57, 0
2, 76138, Note_on_c, 0, 76, 0
2, 76167, Note_on_c, 0, 79, 80
2, 76178, Note_on_c, 0, 78, 62
2, 76181, Note_on_c, 0, 79, 0
2, 76190, Note_on_c, 0, 78, 0
2, 76190, Note_on_c, 0, 76, 76
2, 76199, Note_on_c, 0, 76, 0
2, 76201, Note_on_c, 0, 74, 93
2, 76202, Note_on_c, 0, 66, 72
2, 76203, Note_on_c, 0, 62, 72
2, 76217, Control_c, 0, 64, 127
2, 76259, Control_c, 0, 64, 0
2, 76263, Note_on_c, 0, 62, 0
2, 76263, Note_on_c, 0, 66, 0
2, 76263, Note_on_c, 0, 74, 0
2, 76412, Note_on_c, 0, 74, 93
2, 76439, Note_on_c, 0, 74, 0
2, 76442, Note_on_c, 0, 76, 93
2, 76442, Note_on_c, 0, 67, 60
2, 76442, Note_on_c, 0, 60, 62
2, 76443, Note_on_c, 0, 64, 62
2, 76461, Control_c, 0, 64, 127
2, 76496, Note_on_c, 0, 76, 0
2, 76496, Control_c, 0, 64, 0
2, 76500, Note_on_c, 0, 78, 76
2, 76506, Note_on_c, 0, 78, 0
2, 76507, Note_on_c, 0, 76, 76
2, 76513, Note_on_c, 0, 76, 0
2, 76514, Note_on_c, 0, 75, 64
2, 76520, Note_on_c, 0, 75, 0
2, 76521, Note_on_c, 0, 76, 80
2, 76527, Note_on_c, 0, 76, 0
2, 76530, Note_on_c, 0, 78, 76
2, 76544, Note_on_c, 0, 78, 0
2, 76556, Note_on_c, 0, 79, 89
2, 76567, Note_on_c, 0, 79, 0
2, 76586, Note_on_c, 0, 81, 85
2, 76596, Note_on_c, 0, 81, 0
2, 76617, Note_on_c, 0, 83, 89
2, 76628, Note_on_c, 0, 83, 0
2, 76649, Note_on_c, 0, 84, 85
2, 76658, Note_on_c, 0, 84, 0
2, 76659, Note_on_c, 0, 64, 0
2, 76662, Note_on_c, 0, 60, 0
2, 76664, Note_on_c, 0, 67, 0
2, 76683, Note_on_c, 0, 86, 89
2, 76683, Note_on_c, 0, 59, 76
2, 76683, Note_on_c, 0, 62, 76
2, 76684, Note_on_c, 0, 67, 64
2, 76711, Control_c, 0, 64, 127
2, 76748, Control_c, 0, 64, 0
2, 76752, Note_on_c, 0, 67, 0
2, 76752, Note_on_c, 0, 62, 0
2, 76753, Note_on_c, 0, 86, 0
2, 76755, Note_on_c, 0, 59, 0
2, 76879, Control_c, 0, 64, 127
2, 76892, Note_on_c, 0, 84, 93
2, 76892, Note_on_c, 0, 60, 80
2, 76893, Note_on_c, 0, 69, 80
2, 76906, Note_on_c, 0, 69, 0
2, 76907, Note_on_c, 0, 84, 0
2, 76908, Note_on_c, 0, 60, 0
2, 76916, Control_c, 0, 64, 0
2, 76924, Note_on_c, 0, 83, 80
2, 76924, Note_on_c, 0, 67, 60
2, 76925, Note_on_c, 0, 62, 80
2, 76948, Control_c, 0, 64, 127
2, 76984, Note_on_c, 0, 62, 0
2, 76988, Control_c, 0, 64, 0
2, 76989, Note_on_c, 0, 67, 0
2, 76989, Note_on_c, 0, 83, 0
2, 77040, Note_on_c, 0, 83, 64
2, 77044, Note_on_c, 0, 66, 64
2, 77044, Note_on_c, 0, 72, 76
2, 77044, Note_on_c, 0, 62, 76
2, 77046, Note_on_c, 0, 83, 0
2, 77047, Note_on_c, 0, 81, 72
2, 77053, Note_on_c, 0, 81, 0
2, 77054, Note_on_c, 0, 83, 76
2, 77060, Note_on_c, 0, 83, 0
2, 77061, Note_on_c, 0, 81, 80
2, 77067, Note_on_c, 0, 81, 0
2, 77068, Note_on_c, 0, 79, 76
2, 77097, Note_on_c, 0, 79, 0
2, 77102, Note_on_c, 0, 81, 80
2, 77131, Note_on_c, 0, 81, 0
2, 77131, Note_on_c, 0, 83, 80
2, 77152, Note_on_c, 0, 72, 0
2, 77155, Note_on_c, 0, 66, 0
2, 77157, Note_on_c, 0, 62, 0
2, 77161, Note_on_c, 0, 83, 0
2, 77163, Note_on_c, 0, 79, 80
2, 77164, Note_on_c, 0, 71, 64
2, 77165, Note_on_c, 0, 67, 51
2, 77184, Control_c, 0, 64, 127
2, 77222, Note_on_c, 0, 71, 0
2, 77223, Note_on_c, 0, 67, 0
2, 77224, Note_on_c, 0, 79, 0
2, 77224, Control_c, 0, 64, 0
2, 79287, Note_on_c, 0, 79, 85
2, 79295, Note_on_c, 0, 79, 0
2, 79318, Note_on_c, 0, 78, 76
2, 79319, Note_on_c, 0, 72, 62
2, 79319, Note_on_c, 0, 69, 55
2, 79334, Control_c, 0, 64, 127
2, 79376, Note_on_c, 0, 78, 0
2, 79378, Note_on_c, 0, 81, 76
2, 79378, Note_on_c, 0, 62, 64
2, 79380, Note_on_c, 0, 69, 0
2, 79381, Control_c, 0, 64, 0
2, 79402, Control_c, 0, 64, 127
2, 79437, Note_on_c, 0, 62, 0
2, 79438, Control_c, 0, 64, 0
2, 79438, Note_on_c, 0, 69, 59
2, 79456, Control_c, 0, 64, 127
2, 79496, Control_c, 0, 64, 0
2, 79497, Note_on_c, 0, 78, 72
2, 79498, Note_on_c, 0, 81, 0
2, 79499, Note_on_c, 0, 62, 62
2, 79504, Note_on_c, 0, 69, 0
2, 79513, Control_c, 0, 64, 127
2, 79526, Note_on_c, 0, 62, 0
2, 79531, Note_on_c, 0, 72, 0
2, 79533, Note_on_c, 0, 78, 0
2, 79557, Note_on_c, 0, 79, 89
2, 79558, Note_on_c, 0, 67, 64
2, 79558, Note_on_c, 0, 71, 76
2, 79563, Control_c, 0, 64, 0
2, 79584, Control_c, 0, 64, 127
2, 79617, Note_on_c, 0, 62, 43
2, 79618, Note_on_c, 0, 79, 0
2, 79619, Note_on_c, 0, 83, 64
2, 79619, Control_c, 0, 64, 0
2, 79621, Note_on_c, 0, 67, 0
2, 79641, Control_c, 0, 64, 127
2, 79677, Control_c, 0, 64, 0
2, 79679, Note_on_c, 0, 62, 0
2, 79679, Note_on_c, 0, 67, 55
2, 79693, Control_c, 0, 64, 127
2, 79733, Note_on_c, 0, 83, 0
2, 79737, Note_on_c, 0, 62, 72
2, 79737, Note_on_c, 0, 79, 80
2, 79739, Control_c, 0, 64, 0
2, 79754, Control_c, 0, 64, 127
2, 79757, Note_on_c, 0, 79, 0
2, 79758, Note_on_c, 0, 67, 0
2, 79763, Note_on_c, 0, 62, 0
2, 79766, Note_on_c, 0, 71, 0
2, 79792, Control_c, 0, 64, 0
2, 79796, Note_on_c, 0, 66, 57
2, 79796, Note_on_c, 0, 81, 89
2, 79798, Note_on_c, 0, 69, 59
2, 79809, Control_c, 0, 64, 127
2, 79812, Note_on_c, 0, 81, 0
2, 79823, Control_c, 0, 64, 0
2, 79858, Note_on_c, 0, 86, 85
2, 79858, Note_on_c, 0, 62, 80
2, 79863, Note_on_c, 0, 66, 0
2, 79864, Control_c, 0, 64, 127
2, 79868, Note_on_c, 0, 86, 0
2, 79907, Control_c, 0, 64, 0
2, 79910, Note_on_c, 0, 62, 0
2, 79918, Note_on_c, 0, 66, 62
2, 79919, Note_on_c, 0, 85, 64
2, 79928, Note_on_c, 0, 85, 0
2, 79936, Control_c, 0, 64, 127
2, 79970, Control_c, 0, 64, 0
2, 79978, Note_on_c, 0, 62, 80
2, 79980, Note_on_c, 0, 84, 76
2, 79981, Note_on_c, 0, 66, 0
2, 79988, Note_on_c, 0, 84, 0
2, 79993, Control_c, 0, 64, 127
2, 80026, Note_on_c, 0, 62, 0
2, 80027, Note_on_c, 0, 69, 0
2, 80038, Note_on_c, 0, 83, 76
2, 80039, Note_on_c, 0, 71, 49
2, 80039, Control_c, 0, 64, 0
2, 80039, Note_on_c, 0, 67, 56
2, 80060, Control_c, 0, 64, 127
2, 80097, Note_on_c, 0, 62, 72
2, 80101, Note_on_c, 0, 67, 0
2, 80102, Control_c, 0, 64, 0
2, 80118, Control_c, 0, 64, 127
2, 80156, Control_c, 0, 64, 0
2, 80160, Note_on_c, 0, 67, 64
2, 80161, Note_on_c, 0, 62, 0
2, 80164, Note_on_c, 0, 83, 0
2, 80176, Control_c, 0, 64, 127
2, 80216, Control_c, 0, 64, 0
2, 80220, Note_on_c, 0, 62, 64
2, 80223, Note_on_c, 0, 67, 0
2, 80236, Control_c, 0, 64, 127
2, 80249, Note_on_c, 0, 79, 80
2, 80250, Note_on_c, 0, 62, 0
2, 80254, Note_on_c, 0, 71, 0
2, 80257, Note_on_c, 0, 79, 0
2, 80271, Control_c, 0, 64, 0
2, 80280, Note_on_c, 0, 78, 85
2, 80280, Note_on_c, 0, 72, 76
2, 80280, Note_on_c, 0, 69, 62
2, 80293, Control_c, 0, 64, 127
2, 80337, Note_on_c, 0, 78, 0
2, 80337, Note_on_c, 0, 62, 59
2, 80337, Note_on_c, 0, 81, 62
2, 80337, Control_c, 0, 64, 0
2, 80341, Note_on_c, 0, 69, 0
2, 80359, Control_c, 0, 64, 127
2, 80400, Control_c, 0, 64, 0
2, 80400, Note_on_c, 0, 69, 55
2, 80401, Note_on_c, 0, 62, 0
2, 80417, Control_c, 0, 64, 127
2, 80460, Note_on_c, 0, 78, 76
2, 80460, Note_on_c, 0, 62, 76
2, 80461, Control_c, 0, 64, 0
2, 80462, Note_on_c, 0, 81, 0
2, 80463, Note_on_c, 0, 69, 0
2, 80476, Control_c, 0, 64, 127
2, 80496, Note_on_c, 0, 62, 0
2, 80500, Note_on_c, 0, 72, 0
2, 80501, Note_on_c, 0, 78, 0
2, 80520, Note_on_c, 0, 79, 89
2, 80521, Note_on_c, 0, 67, 64
2, 80521, Note_on_c, 0, 71, 76
2, 80522, Control_c, 0, 64, 0
2, 80539, Control_c, 0, 64, 127
2, 80580, Note_on_c, 0, 79, 0
2, 80580, Note_on_c, 0, 83, 64
2, 80580, Note_on_c, 0, 62, 56
2, 80581, Control_c, 0, 64, 0
2, 80583, Note_on_c, 0, 67, 0
2, 80601, Control_c, 0, 64, 127
2, 80635, Control_c, 0, 64, 0
2, 80636, Note_on_c, 0, 62, 0
2, 80638, Note_on_c, 0, 67, 56
2, 80652, Control_c, 0, 64, 127
2, 80698, Note_on_c, 0, 62, 56
2, 80699, Note_on_c, 0, 83, 0
2, 80699, Note_on_c, 0, 79, 76
2, 80703, Control_c, 0, 64, 0
2, 80719, Control_c, 0, 64, 127
2, 80726, Note_on_c, 0, 79, 0
2, 80730, Note_on_c, 0, 67, 0
2, 80735, Note_on_c, 0, 62, 0
2, 80739, Note_on_c, 0, 71, 0
2, 80762, Note_on_c, 0, 81, 89
2, 80762, Note_on_c, 0, 72, 52
2, 80763, Note_on_c, 0, 62, 62
2, 80764, Note_on_c, 0, 66, 56
2, 80764, Control_c, 0, 64, 0
2, 80771, Note_on_c, 0, 81, 0
2, 80791, Note_on_c, 0, 86, 85
2, 80800, Note_on_c, 0, 86, 0
2, 80821, Note_on_c, 0, 85, 64
2, 80829, Note_on_c, 0, 85, 0
2, 80851, Note_on_c, 0, 84, 76
2, 80859, Note_on_c, 0, 84, 0
2, 80880, Note_on_c, 0, 83, 85
2, 80887, Note_on_c, 0, 83, 0
2, 80908, Note_on_c, 0, 86, 89
2, 80917, Note_on_c, 0, 86, 0
2, 80937, Note_on_c, 0, 85, 64
2, 80945, Note_on_c, 0, 85, 0
2, 80968, Note_on_c, 0, 81, 76
2, 80974, Note_on_c, 0, 81, 0
2, 80985, Note_on_c, 0, 72, 0
2, 80988, Note_on_c, 0, 66, 0
2, 80991, Note_on_c, 0, 62, 0
2, 80999, Note_on_c, 0, 79, 76
2, 81001, Note_on_c, 0, 67, 51
2, 81001, Note_on_c, 0, 71, 57
2, 81015, Control_c, 0, 64, 127
2, 81117, Control_c, 0, 64, 0
2, 81118, Note_on_c, 0, 67, 0
2, 81118, Note_on_c, 0, 79, 0
2, 81119, Note_on_c, 0, 71, 0
2, 83096, Note_on_c, 0, 86, 93
2, 83119, Control_c, 0, 64, 127
2, 83157, Note_on_c, 0, 86, 0
2, 83157, Note_on_c, 0, 83, 76
2, 83157, Note_on_c, 0, 71, 56
2, 83157, Note_on_c, 0, 74, 53
2, 83158, Note_on_c, 0, 67, 57
2, 83158, Control_c, 0, 64, 0
2, 83173, Note_on_c, 0, 83, 0
2, 83180, Note_on_c, 0, 71, 0
2, 83181, Note_on_c, 0, 74, 0
2, 83181, Note_on_c, 0, 67, 0
2, 83221, Note_on_c, 0, 86, 89
2, 83280, Note_on_c, 0, 62, 64
2, 83280, Note_on_c, 0, 81, 93
2, 83280, Note_on_c, 0, 72, 59
2, 83280, Note_on_c, 0, 66, 57
2, 83281, Note_on_c, 0, 86, 0
2, 83283, Control_c, 0, 64, 127
2, 83294, Note_on_c, 0, 81, 0
2, 83296, Control_c, 0, 64, 0
2, 83316, Note_on_c, 0, 66, 0
2, 83318, Note_on_c, 0, 72, 0
2, 83318, Note_on_c, 0, 62, 0
2, 83342, Note_on_c, 0, 86, 89
2, 83394, Note_on_c, 0, 86, 0
2, 83397, Note_on_c, 0, 67, 62
2, 83397, Note_on_c, 0, 79, 89
2, 83397, Note_on_c, 0, 71, 68
2, 83405, Control_c, 0, 64, 127
2, 83418, Note_on_c, 0, 79, 0
2, 83427, Control_c, 0, 64, 0
2, 83442, Note_on_c, 0, 71, 0
2, 83443, Note_on_c, 0, 67, 0
2, 84090, Note_on_c, 0, 74, 80
2, 84119, Note_on_c, 0, 74, 0
2, 84120, Note_on_c, 0, 76, 80
2, 84180, Note_on_c, 0, 78, 76
2, 84186, Note_on_c, 0, 78, 0
2, 84187, Note_on_c, 0, 76, 72
2, 84193, Note_on_c, 0, 76, 0
2, 84194, Note_on_c, 0, 75, 59
2, 84196, Control_c, 0, 64, 127
2, 84200, Note_on_c, 0, 75, 0
2, 84201, Note_on_c, 0, 76, 72
2, 84207, Note_on_c, 0, 76, 0
2, 84209, Note_on_c, 0, 76, 0
2, 84210, Note_on_c, 0, 79, 72
2, 84224, Note_on_c, 0, 79, 0
2, 84225, Note_on_c, 0, 78, 68
2, 84238, Control_c, 0, 64, 0
2, 84239, Note_on_c, 0, 78, 0
2, 84240, Note_on_c, 0, 81, 80
2, 84254, Note_on_c, 0, 81, 0
2, 84255, Note_on_c, 0, 79, 76
2, 84260, Control_c, 0, 64, 127
2, 84269, Note_on_c, 0, 79, 0
2, 84270, Note_on_c, 0, 83, 76
2, 84284, Note_on_c, 0, 83, 0
2, 84285, Note_on_c, 0, 81, 76
2, 84297, Control_c, 0, 64, 0
2, 84299, Note_on_c, 0, 81, 0
2, 84300, Note_on_c, 0, 84, 76
2, 84314, Note_on_c, 0, 84, 0
2, 84315, Note_on_c, 0, 83, 64
2, 84329, Note_on_c, 0, 83, 0
2, 84330, Note_on_c, 0, 86, 76
2, 84344, Note_on_c, 0, 86, 0
2, 84345, Note_on_c, 0, 84, 76
2, 84359, Note_on_c, 0, 84, 0
2, 84360, Note_on_c, 0, 88, 80
2, 84374, Note_on_c, 0, 88, 0
2, 84375, Note_on_c, 0, 86, 85
2, 84389, Note_on_c, 0, 86, 0
2, 85475, Note_on_c, 0, 83, 80
2, 85485, Note_on_c, 0, 83, 0
2, 85505, Note_on_c, 0, 81, 64
2, 85516, Note_on_c, 0, 81, 0
2, 85534, Note_on_c, 0, 79, 72
2, 85540, Note_on_c, 0, 79, 0
2, 85563, Note_on_c, 0, 66, 55
2, 85564, Note_on_c, 0, 78, 72
2, 85566, Note_on_c, 0, 57, 57
2, 85566, Note_on_c, 0, 62, 60
2, 85577, Note_on_c, 0, 78, 0
2, 85596, Note_on_c, 0, 81, 68
2, 85603, Note_on_c, 0, 81, 0
2, 85628, Note_on_c, 0, 86, 62
2, 85644, Note_on_c, 0, 62, 0
2, 85645, Note_on_c, 0, 66, 0
2, 85645, Note_on_c, 0, 57, 0
2, 85650, Note_on_c, 0, 86, 0
2, 85685, Note_on_c, 0, 76, 59
2, 85686, Note_on_c, 0, 57, 51
2, 85687, Note_on_c, 0, 67, 47
2, 85688, Note_on_c, 0, 64, 56
2, 85697, Note_on_c, 0, 76, 0
2, 85715, Note_on_c, 0, 81, 62
2, 85721, Note_on_c, 0, 81, 0
2, 85744, Note_on_c, 0, 85, 64
2, 85747, Note_on_c, 0, 67, 0
2, 85748, Note_on_c, 0, 64, 0
2, 85748, Note_on_c, 0, 57, 0
2, 85799, Note_on_c, 0, 85, 0
2, 85801, Note_on_c, 0, 74, 64
2, 85801, Note_on_c, 0, 66, 53
2, 85802, Note_on_c, 0, 62, 55
2, 85816, Control_c, 0, 64, 127
2, 85861, Note_on_c, 0, 62, 0
2, 85861, Note_on_c, 0, 66, 0
2, 85862, Note_on_c, 0, 74, 0
2, 85868, Control_c, 0, 64, 0
2, 86496, Note_on_c, 0, 84, 80
2, 86496, Note_on_c, 0, 60, 80
2, 86498, Note_on_c, 0, 69, 60
2, 86507, Note_on_c, 0, 69, 0
2, 86507, Note_on_c, 0, 84, 0
2, 86508, Note_on_c, 0, 60, 0
2, 86527, Note_on_c, 0, 83, 76
2, 86528, Note_on_c, 0, 62, 64
2, 86528, Note_on_c, 0, 67, 57
2, 86537, Note_on_c, 0, 83, 0
2, 86558, Note_on_c, 0, 84, 76
2, 86566, Note_on_c, 0, 84, 0
2, 86588, Note_on_c, 0, 85, 59
2, 86595, Note_on_c, 0, 85, 0
2, 86616, Note_on_c, 0, 86, 76
2, 86618, Note_on_c, 0, 62, 0
2, 86621, Note_on_c, 0, 67, 0
2, 86624, Note_on_c, 0, 86, 0
2, 86644, Note_on_c, 0, 62, 57
2, 86645, Note_on_c, 0, 72, 55
2, 86645, Note_on_c, 0, 81, 76
2, 86646, Note_on_c, 0, 66, 62
2, 86676, Note_on_c, 0, 81, 0
2, 86676, Note_on_c, 0, 84, 76
2, 86688, Note_on_c, 0, 84, 0
2, 86691, Note_on_c, 0, 83, 72
2, 86701, Note_on_c, 0, 83, 0
2, 86705, Note_on_c, 0, 86, 72
2, 86719, Note_on_c, 0, 86, 0
2, 86720, Note_on_c, 0, 84, 62
2, 86732, Note_on_c, 0, 84, 0
2, 86736, Note_on_c, 0, 88, 76
2, 86751, Note_on_c, 0, 86, 72
2, 86753, Note_on_c, 0, 88, 0
2, 86753, Note_on_c, 0, 72, 0
2, 86756, Note_on_c, 0, 66, 0
2, 86758, Note_on_c, 0, 62, 0
2, 86762, Note_on_c, 0, 86, 0
2, 86766, Note_on_c, 0, 79, 64
2, 86768, Note_on_c, 0, 67, 31
2, 86769, Note_on_c, 0, 71, 55
2, 86885, Note_on_c, 0, 67, 0
2, 86886, Note_on_c, 0, 71, 0
2, 86889, Note_on_c, 0, 79, 0
2, 86938, Note_on_c, 0, 79, 76
2, 86950, Control_c, 0, 64, 127
2, 86996, Note_on_c, 0, 79, 0
2, 86999, Note_on_c, 0, 74, 64
2, 86999, Note_on_c, 0, 80, 89
2, 87013, Control_c, 0, 64, 0
2, 87059, Note_on_c, 0, 81, 85
2, 87060, Note_on_c, 0, 80, 0
2, 87130, Control_c, 0, 64, 127
2, 87176, Control_c, 0, 64, 0
2, 87181, Note_on_c, 0, 81, 0
2, 87181, Note_on_c, 0, 83, 89
2, 87191, Control_c, 0, 64, 127
2, 87211, Note_on_c, 0, 84, 93
2, 87214, Note_on_c, 0, 83, 0
2, 87224, Note_on_c, 0, 74, 0
2, 87240, Note_on_c, 0, 84, 0
2, 87242, Note_on_c, 0, 88, 89
2, 87243, Note_on_c, 0, 74, 62
2, 87244, Control_c, 0, 64, 0
2, 87268, Control_c, 0, 64, 127
2, 87304, Note_on_c, 0, 86, 89
2, 87307, Note_on_c, 0, 88, 0
2, 87311, Control_c, 0, 64, 0
2, 87364, Control_c, 0, 64, 127
2, 87402, Note_on_c, 0, 74, 0
2, 87417, Note_on_c, 0, 86, 0
2, 87418, Note_on_c, 0, 74, 60
2, 87419, Note_on_c, 0, 84, 76
2, 87424, Control_c, 0, 64, 0
2, 87440, Control_c, 0, 64, 127
2, 87450, Note_on_c, 0, 83, 76
2, 87452, Note_on_c, 0, 84, 0
2, 87474, Note_on_c, 0, 74, 0
2, 87480, Note_on_c, 0, 83, 0
2, 87481, Note_on_c, 0, 74, 76
2, 87482, Note_on_c, 0, 81, 76
2, 87492, Note_on_c, 0, 74, 0
2, 87520, Note_on_c, 0, 81, 0
2, 87541, Note_on_c, 0, 74, 64
2, 87543, Note_on_c, 0, 81, 80
2, 87549, Note_on_c, 0, 74, 0
2, 87593, Note_on_c, 0, 81, 0
2, 87600, Note_on_c, 0, 74, 76
2, 87600, Note_on_c, 0, 83, 72
2, 87606, Note_on_c, 0, 83, 0
2, 87607, Note_on_c, 0, 81, 72
2, 87610, Note_on_c, 0, 74, 0
2, 87613, Note_on_c, 0, 81, 0
2, 87614, Note_on_c, 0, 83, 64
2, 87620, Note_on_c, 0, 83, 0
2, 87621, Note_on_c, 0, 81, 76
2, 87627, Note_on_c, 0, 81, 0
2, 87629, Note_on_c, 0, 79, 76
2, 87659, Note_on_c, 0, 81, 80
2, 87659, Note_on_c, 0, 74, 76
2, 87660, Note_on_c, 0, 79, 0
2, 87665, Note_on_c, 0, 74, 0
2, 87688, Note_on_c, 0, 83, 80
2, 87689, Note_on_c, 0, 81, 0
2, 87721, Note_on_c, 0, 74, 72
2, 87722, Note_on_c, 0, 83, 0
2, 87722, Note_on_c, 0, 79, 80
2, 87732, Control_c, 0, 64, 127
2, 87747, Note_on_c, 0, 74, 0
2, 87780, Note_on_c, 0, 79, 0
2, 87781, Note_on_c, 0, 74, 89
2, 87784, Control_c, 0, 64, 0
2, 87835, Control_c, 0, 64, 127
2, 87854, Note_on_c, 0, 74, 0
2, 87893, Control_c, 0, 64, 0
2, 87899, Note_on_c, 0, 79, 93
2, 87919, Control_c, 0, 64, 127
2, 87947, Note_on_c, 0, 79, 0
2, 87958, Note_on_c, 0, 80, 98
2, 87959, Note_on_c, 0, 74, 64
2, 87962, Control_c, 0, 64, 0
2, 87991, Control_c, 0, 64, 127
2, 88024, Note_on_c, 0, 81, 89
2, 88025, Note_on_c, 0, 80, 0
2, 88031, Control_c, 0, 64, 0
2, 88074, Control_c, 0, 64, 127
2, 88142, Note_on_c, 0, 81, 0
2, 88142, Note_on_c, 0, 83, 93
2, 88145, Control_c, 0, 64, 0
2, 88161, Control_c, 0, 64, 127
2, 88170, Note_on_c, 0, 83, 0
2, 88170, Note_on_c, 0, 84, 76
2, 88179, Note_on_c, 0, 74, 0
2, 88200, Note_on_c, 0, 84, 0
2, 88200, Note_on_c, 0, 74, 62
2, 88201, Note_on_c, 0, 88, 93
2, 88201, Control_c, 0, 64, 0
2, 88219, Control_c, 0, 64, 127
2, 88264, Note_on_c, 0, 88, 0
2, 88264, Note_on_c, 0, 86, 80
2, 88266, Control_c, 0, 64, 0
2, 88281, Control_c, 0, 64, 127
2, 88364, Note_on_c, 0, 74, 0
2, 88371, Note_on_c, 0, 86, 0
2, 88375, Control_c, 0, 64, 0
2, 88380, Note_on_c, 0, 74, 72
2, 88389, Note_on_c, 0, 74, 0
2, 88406, Note_on_c, 0, 83, 64
2, 88436, Note_on_c, 0, 81, 85
2, 88438, Note_on_c, 0, 83, 0
2, 88439, Note_on_c, 0, 74, 56
2, 88446, Note_on_c, 0, 74, 0
2, 88493, Note_on_c, 0, 81, 0
2, 88498, Note_on_c, 0, 74, 72
2, 88498, Note_on_c, 0, 81, 72
2, 88505, Note_on_c, 0, 74, 0
2, 88556, Note_on_c, 0, 81, 0
2, 88560, Note_on_c, 0, 83, 72
2, 88563, Note_on_c, 0, 74, 85
2, 88566, Note_on_c, 0, 83, 0
2, 88567, Note_on_c, 0, 81, 85
2, 88572, Note_on_c, 0, 74, 0
2, 88573, Note_on_c, 0, 81, 0
2, 88574, Note_on_c, 0, 83, 62
2, 88580, Note_on_c, 0, 83, 0
2, 88581, Note_on_c, 0, 81, 80
2, 88587, Note_on_c, 0, 81, 0
2, 88589, Note_on_c, 0, 79, 76
2, 88619, Note_on_c, 0, 79, 0
2, 88619, Note_on_c, 0, 81, 80
2, 88621, Note_on_c, 0, 74, 72
2, 88628, Note_on_c, 0, 74, 0
2, 88648, Note_on_c, 0, 83, 76
2, 88649, Note_on_c, 0, 81, 0
2, 88680, Note_on_c, 0, 79, 76
2, 88681, Note_on_c, 0, 83, 0
2, 88682, Note_on_c, 0, 74, 64
2, 88690, Control_c, 0, 64, 127
2, 88745, Control_c, 0, 64, 0
2, 88746, Note_on_c, 0, 74, 0
2, 88747, Note_on_c, 0, 79, 0
2, 88894, Note_on_c, 0, 76, 80
2, 88910, Note_on_c, 0, 79, 80
2, 88912, Note_on_c, 0, 76, 0
2, 88924, Note_on_c, 0, 79, 0
2, 88925, Note_on_c, 0, 83, 89
2, 88984, Note_on_c, 0, 83, 0
2, 89014, Note_on_c, 0, 78, 89
2, 89028, Note_on_c, 0, 78, 0
2, 89029, Note_on_c, 0, 81, 93
2, 89043, Note_on_c, 0, 81, 0
2, 89044, Note_on_c, 0, 84, 85
2, 89107, Note_on_c, 0, 84, 0
2, 89135, Note_on_c, 0, 75, 62
2, 89162, Note_on_c, 0, 75, 0
2, 89165, Note_on_c, 0, 76, 76
2, 89184, Control_c, 0, 64, 127
2, 89222, Note_on_c, 0, 76, 0
2, 89223, Control_c, 0, 64, 0
2, 89339, Note_on_c, 0, 69, 76
2, 89354, Control_c, 0, 64, 127
2, 89402, Note_on_c, 0, 66, 85
2, 89404, Note_on_c, 0, 69, 0
2, 89408, Control_c, 0, 64, 0
2, 89435, Control_c, 0, 64, 127
2, 89463, Note_on_c, 0, 66, 0
2, 89463, Note_on_c, 0, 62, 85
2, 89466, Control_c, 0, 64, 0
2, 89483, Control_c, 0, 64, 127
2, 89516, Control_c, 0, 64, 0
2, 89523, Note_on_c, 0, 62, 0
2, 89523, Note_on_c, 0, 70, 85
2, 89539, Control_c, 0, 64, 127
2, 89580, Control_c, 0, 64, 0
2, 89586, Note_on_c, 0, 70, 0
2, 89586, Note_on_c, 0, 61, 85
2, 89596, Control_c, 0, 64, 127
2, 89633, Note_on_c, 0, 61, 0
2, 89636, Control_c, 0, 64, 0
2, 89644, Note_on_c, 0, 62, 85
2, 89667, Control_c, 0, 64, 127
2, 89712, Note_on_c, 0, 62, 0
2, 89741, Control_c, 0, 64, 0
2, 89822, Note_on_c, 0, 81, 89
2, 89836, Control_c, 0, 64, 127
2, 89865, Note_on_c, 0, 81, 0
2, 89883, Note_on_c, 0, 81, 85
2, 89884, Note_on_c, 0, 71, 59
2, 89885, Note_on_c, 0, 74, 62
2, 89885, Control_c, 0, 64, 0
2, 89944, Note_on_c, 0, 81, 0
2, 89945, Note_on_c, 0, 79, 76
2, 89958, Note_on_c, 0, 71, 0
2, 89960, Note_on_c, 0, 74, 0
2, 89964, Note_on_c, 0, 79, 0
2, 90004, Note_on_c, 0, 79, 93
2, 90004, Note_on_c, 0, 69, 59
2, 90004, Note_on_c, 0, 74, 57
2, 90062, Note_on_c, 0, 79, 0
2, 90062, Note_on_c, 0, 78, 76
2, 90065, Note_on_c, 0, 69, 0
2, 90067, Note_on_c, 0, 74, 0
2, 90078, Note_on_c, 0, 78, 0
2, 90124, Note_on_c, 0, 83, 80
2, 90124, Note_on_c, 0, 74, 57
2, 90125, Note_on_c, 0, 67, 64
2, 90148, Note_on_c, 0, 67, 0
2, 90148, Note_on_c, 0, 74, 0
2, 90150, Note_on_c, 0, 83, 0
2, 90180, Note_on_c, 0, 83, 93
2, 90182, Note_on_c, 0, 67, 89
2, 90182, Note_on_c, 0, 74, 85
2, 90203, Note_on_c, 0, 67, 0
2, 90203, Note_on_c, 0, 83, 0
2, 90204, Note_on_c, 0, 74, 0
2, 90302, Note_on_c, 0, 69, 76
2, 90302, Note_on_c, 0, 81, 72
2, 90315, Control_c, 0, 64, 127
2, 90361, Note_on_c, 0, 69, 0
2, 90361, Note_on_c, 0, 71, 68
2, 90361, Note_on_c, 0, 80, 72
2, 90362, Note_on_c, 0, 81, 0
2, 90363, Control_c, 0, 64, 0
2, 90385, Control_c, 0, 64, 127
2, 90421, Note_on_c, 0, 73, 64
2, 90422, Note_on_c, 0, 79, 72
2, 90422, Control_c, 0, 64, 0
2, 90424, Note_on_c, 0, 80, 0
2, 90424, Note_on_c, 0, 71, 0
2, 90444, Control_c, 0, 64, 127
2, 90480, Control_c, 0, 64, 0
2, 90483, Note_on_c, 0, 73, 0
2, 90484, Note_on_c, 0, 79, 0
2, 90484, Note_on_c, 0, 78, 57
2, 90484, Note_on_c, 0, 74, 55
2, 90499, Control_c, 0, 64, 127
2, 90543, Note_on_c, 0, 78, 0
2, 90543, Note_on_c, 0, 77, 62
2, 90544, Control_c, 0, 64, 0
2, 90564, Control_c, 0, 64, 127
2, 90600, Note_on_c, 0, 73, 62
2, 90600, Note_on_c, 0, 76, 85
2, 90603, Note_on_c, 0, 74, 0
2, 90605, Note_on_c, 0, 77, 0
2, 90627, Control_c, 0, 64, 127
2, 90657, Note_on_c, 0, 73, 0
2, 90658, Note_on_c, 0, 76, 0
2, 90666, Control_c, 0, 64, 0
2, 90725, Note_on_c, 0, 73, 89
2, 90744, Note_on_c, 0, 76, 85
2, 90745, Note_on_c, 0, 73, 0
2, 90749, Control_c, 0, 64, 127
2, 90757, Control_c, 0, 64, 0
2, 90764, Note_on_c, 0, 81, 76
2, 90766, Note_on_c, 0, 76, 0
2, 90785, Note_on_c, 0, 81, 0
2, 90785, Note_on_c, 0, 85, 89
2, 90805, Note_on_c, 0, 85, 0
2, 90807, Note_on_c, 0, 83, 80
2, 90826, Note_on_c, 0, 81, 89
2, 90828, Note_on_c, 0, 83, 0
2, 90839, Note_on_c, 0, 81, 0
2, 90840, Note_on_c, 0, 86, 93
2, 90853, Note_on_c, 0, 86, 0
2, 90906, Note_on_c, 0, 74, 64
2, 90906, Note_on_c, 0, 81, 64
2, 90910, Control_c, 0, 64, 127
2, 90930, Note_on_c, 0, 74, 0
2, 90937, Note_on_c, 0, 81, 0
2, 90961, Note_on_c, 0, 73, 57
2, 90961, Note_on_c, 0, 79, 76
2, 90963, Control_c, 0, 64, 0
2, 90976, Control_c, 0, 64, 127
2, 90982, Note_on_c, 0, 73, 0
2, 90987, Note_on_c, 0, 79, 0
2, 91015, Control_c, 0, 64, 0
2, 91017, Note_on_c, 0, 74, 62
2, 91018, Note_on_c, 0, 78, 59
2, 91031, Control_c, 0, 64, 127
2, 91043, Note_on_c, 0, 78, 0
2, 91043, Note_on_c, 0, 74, 0
2, 91070, Control_c, 0, 64, 0
2, 91077, Note_on_c, 0, 73, 60
2, 91078, Note_on_c, 0, 76, 64
2, 91090, Control_c, 0, 64, 127
2, 91114, Note_on_c, 0, 73, 0
2, 91117, Note_on_c, 0, 76, 0
2, 91161, Control_c, 0, 64, 0
2, 91199, Note_on_c, 0, 73, 102
2, 91216, Control_c, 0, 64, 127
2, 91217, Note_on_c, 0, 73, 0
2, 91217, Note_on_c, 0, 76, 85
2, 91229, Control_c, 0, 64, 0
2, 91234, Note_on_c, 0, 81, 85
2, 91236, Note_on_c, 0, 76, 0
2, 91256, Note_on_c, 0, 81, 0
2, 91256, Note_on_c, 0, 85, 80
2, 91276, Note_on_c, 0, 85, 0
2, 91276, Note_on_c, 0, 83, 76
2, 91282, Control_c, 0, 64, 127
2, 91295, Note_on_c, 0, 81, 85
2, 91299, Note_on_c, 0, 83, 0
2, 91309, Control_c, 0, 64, 0
2, 91313, Note_on_c, 0, 81, 0
2, 91317, Note_on_c, 0, 86, 98
2, 91331, Note_on_c, 0, 86, 0
2, 91381, Note_on_c, 0, 81, 72
2, 91381, Note_on_c, 0, 74, 64
2, 91400, Control_c, 0, 64, 127
2, 91402, Note_on_c, 0, 81, 0
2, 91403, Note_on_c, 0, 74, 0
2, 91414, Control_c, 0, 64, 0
2, 91444, Note_on_c, 0, 79, 76
2, 91444, Note_on_c, 0, 73, 57
2, 91459, Note_on_c, 0, 79, 0
2, 91460, Note_on_c, 0, 73, 0
2, 91503, Note_on_c, 0, 78, 62
2, 91503, Note_on_c, 0, 74, 68
2, 91514, Note_on_c, 0, 74, 0
2, 91516, Note_on_c, 0, 78, 0
2, 91558, Note_on_c, 0, 76, 93
2, 91575, Note_on_c, 0, 76, 0
2, 91579, Note_on_c, 0, 88, 93
2, 91596, Note_on_c, 0, 88, 0
2, 91599, Note_on_c, 0, 85, 64
2, 91615, Note_on_c, 0, 85, 0
2, 91620, Note_on_c, 0, 81, 72
2, 91631, Control_c, 0, 64, 127
2, 91638, Note_on_c, 0, 81, 0
2, 91639, Note_on_c, 0, 76, 89
2, 91650, Note_on_c, 0, 76, 0
2, 91660, Note_on_c, 0, 73, 76
2, 91672, Note_on_c, 0, 73, 0
2, 91679, Control_c, 0, 64, 0
2, 91680, Note_on_c, 0, 69, 80
2, 91693, Note_on_c, 0, 69, 0
2, 91701, Note_on_c, 0, 76, 80
2, 91720, Note_on_c, 0, 73, 62
2, 91721, Note_on_c, 0, 76, 0
2, 91738, Note_on_c, 0, 73, 0
2, 91738, Control_c, 0, 64, 127
2, 91741, Note_on_c, 0, 69, 93
2, 91753, Note_on_c, 0, 69, 0
2, 91760, Note_on_c, 0, 64, 76
2, 91772, Note_on_c, 0, 64, 0
2, 91780, Note_on_c, 0, 61, 89
2, 91791, Note_on_c, 0, 61, 0
2, 91792, Control_c, 0, 64, 0
2, 91801, Note_on_c, 0, 57, 98
2, 91822, Control_c, 0, 64, 127
2, 91851, Note_on_c, 0, 57, 0
2, 91856, Control_c, 0, 64, 0
2, 92100, Note_on_c, 0, 81, 62
2, 92112, Note_on_c, 0, 81, 0
2, 92160, Note_on_c, 0, 81, 62
2, 92171, Note_on_c, 0, 81, 0
2, 92220, Note_on_c, 0, 81, 62
2, 92220, Note_on_c, 0, 80, 68
2, 92230, Note_on_c, 0, 80, 0
2, 92231, Note_on_c, 0, 81, 0
2, 92280, Note_on_c, 0, 80, 76
2, 92280, Note_on_c, 0, 81, 72
2, 92290, Note_on_c, 0, 81, 0
2, 92291, Note_on_c, 0, 80, 0
2, 92340, Note_on_c, 0, 81, 60
2, 92340, Note_on_c, 0, 73, 72
2, 92340, Note_on_c, 0, 79, 55
2, 92340, Note_on_c, 0, 76, 72
2, 92350, Note_on_c, 0, 79, 0
2, 92351, Note_on_c, 0, 73, 0
2, 92352, Note_on_c, 0, 81, 0
2, 92352, Note_on_c, 0, 76, 0
2, 92400, Note_on_c, 0, 81, 62
2, 92400, Note_on_c, 0, 79, 56
2, 92400, Note_on_c, 0, 73, 76
2, 92400, Note_on_c, 0, 76, 76
2, 92410, Note_on_c, 0, 76, 0
2, 92410, Note_on_c, 0, 73, 0
2, 92411, Note_on_c, 0, 79, 0
2, 92412, Note_on_c, 0, 81, 0
2, 92460, Note_on_c, 0, 81, 62
2, 92460, Note_on_c, 0, 79, 62
2, 92460, Note_on_c, 0, 76, 64
2, 92460, Note_on_c, 0, 73, 76
2, 92469, Note_on_c, 0, 79, 0
2, 92469, Note_on_c, 0, 81, 0
2, 92470, Note_on_c, 0, 73, 0
2, 92472, Note_on_c, 0, 76, 0
2, 92520, Note_on_c, 0, 76, 89
2, 92520, Note_on_c, 0, 79, 56
2, 92520, Note_on_c, 0, 73, 72
2, 92520, Note_on_c, 0, 81, 57
2, 92532, Control_c, 0, 64, 127
2, 92558, Note_on_c, 0, 73, 0
2, 92562, Note_on_c, 0, 76, 0
2, 92639, Note_on_c, 0, 79, 0
2, 92639, Note_on_c, 0, 81, 0
2, 92641, Control_c, 0, 64, 0
2, 93245, Note_on_c, 0, 69, 62
2, 93245, Note_on_c, 0, 67, 68
2, 93254, Control_c, 0, 64, 127
2, 93286, Note_on_c, 0, 67, 0
2, 93287, Note_on_c, 0, 69, 0
2, 93300, Note_on_c, 0, 83, 76
2, 93304, Note_on_c, 0, 67, 62
2, 93304, Note_on_c, 0, 69, 68
2, 93329, Note_on_c, 0, 83, 0
2, 93330, Note_on_c, 0, 81, 59
2, 93341, Note_on_c, 0, 67, 0
2, 93344, Note_on_c, 0, 69, 0
2, 93359, Note_on_c, 0, 81, 0
2, 93361, Note_on_c, 0, 69, 72
2, 93361, Note_on_c, 0, 67, 72
2, 93398, Note_on_c, 0, 67, 0
2, 93400, Note_on_c, 0, 69, 0
2, 93419, Note_on_c, 0, 69, 59
2, 93419, Note_on_c, 0, 67, 56
2, 93420, Note_on_c, 0, 83, 85
2, 93449, Note_on_c, 0, 83, 0
2, 93450, Note_on_c, 0, 81, 68
2, 93455, Note_on_c, 0, 67, 0
2, 93458, Note_on_c, 0, 69, 0
2, 93479, Note_on_c, 0, 81, 0
2, 93480, Note_on_c, 0, 69, 57
2, 93480, Note_on_c, 0, 67, 55
2, 93527, Note_on_c, 0, 67, 0
2, 93530, Note_on_c, 0, 69, 0
2, 93540, Note_on_c, 0, 85, 60
2, 93546, Note_on_c, 0, 85, 0
2, 93546, Note_on_c, 0, 67, 56
2, 93546, Note_on_c, 0, 69, 62
2, 93547, Note_on_c, 0, 83, 64
2, 93553, Note_on_c, 0, 83, 0
2, 93554, Note_on_c, 0, 85, 64
2, 93560, Note_on_c, 0, 85, 0
2, 93561, Note_on_c, 0, 83, 68
2, 93567, Note_on_c, 0, 83, 0
2, 93568, Note_on_c, 0, 81, 76
2, 93585, Note_on_c, 0, 67, 0
2, 93588, Note_on_c, 0, 69, 0
2, 93597, Note_on_c, 0, 81, 0
2, 93603, Note_on_c, 0, 69, 62
2, 93604, Note_on_c, 0, 67, 62
2, 93643, Note_on_c, 0, 67, 0
2, 93644, Note_on_c, 0, 69, 0
2, 93658, Note_on_c, 0, 85, 72
2, 93664, Note_on_c, 0, 85, 0
2, 93664, Note_on_c, 0, 67, 57
2, 93665, Note_on_c, 0, 83, 76
2, 93665, Note_on_c, 0, 69, 64
2, 93671, Note_on_c, 0, 83, 0
2, 93672, Note_on_c, 0, 85, 60
2, 93678, Note_on_c, 0, 85, 0
2, 93679, Note_on_c, 0, 83, 72
2, 93685, Note_on_c, 0, 83, 0
2, 93686, Note_on_c, 0, 81, 64
2, 93695, Note_on_c, 0, 69, 0
2, 93695, Note_on_c, 0, 67, 0
2, 93715, Note_on_c, 0, 81, 0
2, 93716, Control_c, 0, 64, 0
2, 94202, Note_on_c, 0, 69, 62
2, 94202, Note_on_c, 0, 67, 68
2, 94221, Control_c, 0, 64, 127
2, 94239, Note_on_c, 0, 67, 0
2, 94241, Note_on_c, 0, 69, 0
2, 94260, Note_on_c, 0, 83, 80
2, 94265, Note_on_c, 0, 69, 60
2, 94265, Note_on_c, 0, 67, 60
2, 94289, Note_on_c, 0, 83, 0
2, 94290, Note_on_c, 0, 81, 76
2, 94296, Note_on_c, 0, 67, 0
2, 94297, Note_on_c, 0, 69, 0
2, 94319, Note_on_c, 0, 81, 0
2, 94321, Note_on_c, 0, 69, 62
2, 94322, Note_on_c, 0, 67, 62
2, 94358, Note_on_c, 0, 67, 0
2, 94361, Note_on_c, 0, 69, 0
2, 94380, Note_on_c, 0, 83, 72
2, 94380, Note_on_c, 0, 69, 60
2, 94380, Note_on_c, 0, 67, 64
2, 94409, Note_on_c, 0, 83, 0
2, 94410, Note_on_c, 0, 81, 76
2, 94418, Note_on_c, 0, 67, 0
2, 94420, Note_on_c, 0, 69, 0
2, 94439, Note_on_c, 0, 81, 0
2, 94439, Note_on_c, 0, 69, 68
2, 94439, Note_on_c, 0, 67, 68
2, 94440, Control_c, 0, 64, 0
2, 94479, Control_c, 0, 64, 127
2, 94485, Note_on_c, 0, 67, 0
2, 94486, Note_on_c, 0, 69, 0
2, 94500, Note_on_c, 0, 85, 72
2, 94502, Note_on_c, 0, 67, 57
2, 94503, Note_on_c, 0, 69, 64
2, 94506, Note_on_c, 0, 85, 0
2, 94507, Note_on_c, 0, 83, 72
2, 94513, Note_on_c, 0, 83, 0
2, 94514, Note_on_c, 0, 85, 60
2, 94520, Note_on_c, 0, 85, 0
2, 94521, Note_on_c, 0, 83, 72
2, 94527, Note_on_c, 0, 83, 0
2, 94528, Note_on_c, 0, 81, 76
2, 94541, Note_on_c, 0, 67, 0
2, 94542, Note_on_c, 0, 69, 0
2, 94557, Note_on_c, 0, 81, 0
2, 94562, Note_on_c, 0, 67, 62
2, 94562, Note_on_c, 0, 69, 64
2, 94596, Note_on_c, 0, 67, 0
2, 94597, Note_on_c, 0, 69, 0
2, 94618, Note_on_c, 0, 85, 68
2, 94624, Note_on_c, 0, 85, 0
2, 94624, Note_on_c, 0, 69, 60
2, 94624, Note_on_c, 0, 67, 62
2, 94625, Note_on_c, 0, 83, 62
2, 94631, Note_on_c, 0, 83, 0
2, 94632, Note_on_c, 0, 85, 62
2, 94638, Note_on_c, 0, 85, 0
2, 94639, Note_on_c, 0, 83, 76
2, 94642, Note_on_c, 0, 67, 0
2, 94643, Note_on_c, 0, 69, 0
2, 94645, Note_on_c, 0, 83, 0
2, 94646, Note_on_c, 0, 81, 80
2, 94670, Control_c, 0, 64, 0
2, 94675, Note_on_c, 0, 81, 0
2, 94679, Note_on_c, 0, 66, 62
2, 94679, Note_on_c, 0, 69, 64
2, 94683, Note_on_c, 0, 74, 85
2, 94685, Control_c, 0, 64, 127
2, 94710, Control_c, 0, 64, 127
2, 94719, Note_on_c, 0, 66, 0
2, 94720, Note_on_c, 0, 69, 0
2, 94735, Control_c, 0, 64, 0
2, 94740, Note_on_c, 0, 74, 0
2, 94742, Note_on_c, 0, 69, 72
2, 94743, Note_on_c, 0, 66, 60
2, 94766, Note_on_c, 0, 74, 89
2, 94778, Note_on_c, 0, 69, 0
2, 94778, Control_c, 0, 64, 127
2, 94780, Note_on_c, 0, 66, 0
2, 94785, Note_on_c, 0, 74, 0
2, 94785, Note_on_c, 0, 73, 68
2, 94795, Control_c, 0, 64, 0
2, 94797, Control_c, 0, 64, 0
2, 94799, Note_on_c, 0, 73, 0
2, 94803, Note_on_c, 0, 74, 89
2, 94819, Note_on_c, 0, 74, 0
2, 94822, Note_on_c, 0, 76, 62
2, 94840, Note_on_c, 0, 73, 85
2, 94841, Note_on_c, 0, 76, 0
2, 94854, Note_on_c, 0, 73, 0
2, 94859, Note_on_c, 0, 74, 89
2, 94877, Note_on_c, 0, 74, 0
2, 94879, Note_on_c, 0, 79, 76
2, 94898, Note_on_c, 0, 76, 85
2, 94900, Note_on_c, 0, 79, 0
2, 94916, Note_on_c, 0, 76, 0
2, 94918, Note_on_c, 0, 78, 89
2, 94922, Note_on_c, 0, 69, 80
2, 94922, Note_on_c, 0, 66, 72
2, 94933, Control_c, 0, 64, 127
2, 94938, Control_c, 0, 64, 127
2, 94961, Note_on_c, 0, 69, 0
2, 94963, Note_on_c, 0, 66, 0
2, 94965, Note_on_c, 0, 78, 0
2, 94978, Control_c, 0, 64, 0
2, 94980, Note_on_c, 0, 66, 76
2, 94980, Note_on_c, 0, 69, 80
2, 95000, Note_on_c, 0, 78, 98
2, 95006, Note_on_c, 0, 66, 0
2, 95010, Note_on_c, 0, 69, 0
2, 95017, Control_c, 0, 64, 127
2, 95018, Note_on_c, 0, 78, 0
2, 95020, Note_on_c, 0, 76, 64
2, 95031, Control_c, 0, 64, 0
2, 95035, Note_on_c, 0, 76, 0
2, 95038, Control_c, 0, 64, 0
2, 95040, Note_on_c, 0, 78, 89
2, 95056, Note_on_c, 0, 78, 0
2, 95060, Note_on_c, 0, 79, 85
2, 95067, Control_c, 0, 64, 127
2, 95076, Note_on_c, 0, 79, 0
2, 95080, Note_on_c, 0, 76, 93
2, 95087, Control_c, 0, 64, 0
2, 95096, Note_on_c, 0, 76, 0
2, 95099, Note_on_c, 0, 78, 85
2, 95117, Note_on_c, 0, 78, 0
2, 95119, Note_on_c, 0, 83, 89
2, 95121, Control_c, 0, 64, 127
2, 95139, Note_on_c, 0, 83, 0
2, 95139, Note_on_c, 0, 80, 80
2, 95147, Control_c, 0, 64, 0
2, 95153, Note_on_c, 0, 80, 0
2, 95159, Note_on_c, 0, 81, 93
2, 95162, Note_on_c, 0, 74, 89
2, 95162, Note_on_c, 0, 69, 98
2, 95170, Control_c, 0, 64, 127
2, 95170, Control_c, 0, 64, 127
2, 95203, Note_on_c, 0, 74, 0
2, 95204, Note_on_c, 0, 69, 0
2, 95211, Note_on_c, 0, 81, 0
2, 95219, Control_c, 0, 64, 0
2, 95224, Note_on_c, 0, 69, 93
2, 95225, Note_on_c, 0, 74, 89
2, 95240, Note_on_c, 0, 81, 93
2, 95253, Note_on_c, 0, 69, 0
2, 95255, Note_on_c, 0, 74, 0
2, 95258, Control_c, 0, 64, 127
2, 95261, Note_on_c, 0, 81, 0
2, 95262, Note_on_c, 0, 80, 85
2, 95266, Control_c, 0, 64, 0
2, 95275, Note_on_c, 0, 80, 0
2, 95279, Control_c, 0, 64, 0
2, 95281, Note_on_c, 0, 81, 89
2, 95296, Note_on_c, 0, 81, 0
2, 95299, Note_on_c, 0, 83, 93
2, 95307, Control_c, 0, 64, 127
2, 95319, Note_on_c, 0, 83, 0
2, 95319, Note_on_c, 0, 80, 89
2, 95332, Note_on_c, 0, 80, 0
2, 95338, Control_c, 0, 64, 0
2, 95339, Note_on_c, 0, 81, 89
2, 95354, Note_on_c, 0, 81, 0
2, 95358, Note_on_c, 0, 86, 93
2, 95363, Control_c, 0, 64, 127
2, 95378, Note_on_c, 0, 86, 0
2, 95380, Note_on_c, 0, 83, 93
2, 95388, Control_c, 0, 64, 0
2, 95397, Note_on_c, 0, 83, 0
2, 95399, Note_on_c, 0, 84, 85
2, 95400, Note_on_c, 0, 78, 80
2, 95411, Control_c, 0, 64, 127
2, 95415, Control_c, 0, 64, 127
2, 95420, Note_on_c, 0, 84, 0
2, 95420, Note_on_c, 0, 81, 89
2, 95440, Note_on_c, 0, 81, 0
2, 95440, Note_on_c, 0, 78, 76
2, 95452, Note_on_c, 0, 78, 0
2, 95461, Note_on_c, 0, 74, 93
2, 95462, Control_c, 0, 64, 0
2, 95465, Control_c, 0, 64, 0
2, 95466, Note_on_c, 0, 78, 0
2, 95479, Note_on_c, 0, 74, 0
2, 95480, Note_on_c, 0, 78, 76
2, 95487, Control_c, 0, 64, 127
2, 95494, Note_on_c, 0, 78, 0
2, 95500, Note_on_c, 0, 81, 93
2, 95515, Note_on_c, 0, 81, 0
2, 95521, Note_on_c, 0, 84, 93
2, 95524, Control_c, 0, 64, 0
2, 95524, Note_on_c, 0, 78, 102
2, 95536, Control_c, 0, 64, 127
2, 95538, Note_on_c, 0, 84, 0
2, 95538, Control_c, 0, 64, 127
2, 95541, Note_on_c, 0, 81, 85
2, 95560, Note_on_c, 0, 81, 0
2, 95561, Note_on_c, 0, 78, 72
2, 95577, Note_on_c, 0, 78, 0
2, 95580, Note_on_c, 0, 74, 89
2, 95581, Note_on_c, 0, 78, 0
2, 95583, Control_c, 0, 64, 0
2, 95585, Control_c, 0, 64, 0
2, 95595, Note_on_c, 0, 74, 0
2, 95597, Control_c, 0, 64, 127
2, 95599, Note_on_c, 0, 78, 59
2, 95613, Note_on_c, 0, 78, 0
2, 95620, Note_on_c, 0, 81, 93
2, 95635, Note_on_c, 0, 81, 0
2, 95636, Control_c, 0, 64, 0
2, 95643, Note_on_c, 0, 78, 93
2, 95644, Note_on_c, 0, 84, 98
2, 95644, Note_on_c, 0, 74, 93
2, 95654, Control_c, 0, 64, 127
2, 95658, Control_c, 0, 64, 127
2, 95770, Note_on_c, 0, 78, 0
2, 95771, Note_on_c, 0, 74, 0
2, 95772, Control_c, 0, 64, 0
2, 95790, Note_on_c, 0, 86, 80
2, 95796, Note_on_c, 0, 86, 0
2, 95797, Note_on_c, 0, 84, 76
2, 95803, Note_on_c, 0, 84, 0
2, 95804, Note_on_c, 0, 83, 72
2, 95810, Note_on_c, 0, 83, 0
2, 95811, Note_on_c, 0, 84, 72
2, 95814, Note_on_c, 0, 84, 0
2, 95814, Control_c, 0, 64, 0
2, 95817, Note_on_c, 0, 84, 0
2, 95818, Note_on_c, 0, 86, 93
2, 95833, Control_c, 0, 64, 127
2, 95862, Note_on_c, 0, 86, 0
2, 95863, Note_on_c, 0, 88, 93
2, 95873, Control_c, 0, 64, 0
2, 95876, Note_on_c, 0, 88, 0
2, 95880, Note_on_c, 0, 86, 98
2, 95890, Control_c, 0, 64, 127
2, 95923, Control_c, 0, 64, 0
2, 95930, Note_on_c, 0, 86, 0
2, 95940, Note_on_c, 0, 84, 76
2, 95956, Note_on_c, 0, 84, 0
2, 96006, Note_on_c, 0, 83, 93
2, 96009, Control_c, 0, 64, 127
2, 96058, Control_c, 0, 64, 0
2, 96065, Note_on_c, 0, 83, 0
2, 96066, Note_on_c, 0, 81, 76
2, 96078, Note_on_c, 0, 81, 0
2, 96126, Note_on_c, 0, 79, 80
2, 96136, Control_c, 0, 64, 127
2, 96297, Control_c, 0, 64, 0
2, 96306, Note_on_c, 0, 78, 80
2, 96308, Note_on_c, 0, 79, 0
2, 96312, Control_c, 0, 64, 127
2, 96321, Note_on_c, 0, 79, 62
2, 96324, Note_on_c, 0, 78, 0
2, 96337, Note_on_c, 0, 81, 68
2, 96338, Note_on_c, 0, 79, 0
2, 96338, Control_c, 0, 64, 0
2, 96351, Note_on_c, 0, 79, 72
2, 96354, Note_on_c, 0, 81, 0
2, 96365, Note_on_c, 0, 79, 0
2, 96366, Note_on_c, 0, 78, 76
2, 96375, Control_c, 0, 64, 127
2, 96422, Control_c, 0, 64, 0
2, 96425, Note_on_c, 0, 78, 0
2, 96543, Note_on_c, 0, 85, 102
2, 96546, Control_c, 0, 64, 127
2, 96558, Note_on_c, 0, 86, 80
2, 96562, Note_on_c, 0, 85, 0
2, 96571, Note_on_c, 0, 86, 0
2, 96572, Note_on_c, 0, 88, 85
2, 96587, Note_on_c, 0, 86, 59
2, 96591, Note_on_c, 0, 88, 0
2, 96594, Control_c, 0, 64, 0
2, 96598, Note_on_c, 0, 86, 0
2, 96601, Note_on_c, 0, 83, 107
2, 96602, Note_on_c, 0, 79, 89
2, 96609, Control_c, 0, 64, 127
2, 96616, Control_c, 0, 64, 127
2, 96635, Note_on_c, 0, 83, 0
2, 96644, Note_on_c, 0, 79, 0
2, 96654, Control_c, 0, 64, 0
2, 96655, Control_c, 0, 64, 0
2, 96666, Note_on_c, 0, 82, 80
2, 96678, Control_c, 0, 64, 127
2, 96680, Note_on_c, 0, 83, 85
2, 96681, Note_on_c, 0, 82, 0
2, 96696, Note_on_c, 0, 84, 64
2, 96699, Note_on_c, 0, 83, 0
2, 96713, Note_on_c, 0, 84, 0
2, 96713, Note_on_c, 0, 83, 85
2, 96722, Control_c, 0, 64, 0
2, 96722, Note_on_c, 0, 74, 89
2, 96724, Note_on_c, 0, 83, 0
2, 96725, Note_on_c, 0, 81, 85
2, 96726, Control_c, 0, 64, 127
2, 96744, Control_c, 0, 64, 127
2, 96758, Note_on_c, 0, 81, 0
2, 96760, Note_on_c, 0, 74, 0
2, 96774, Control_c, 0, 64, 0
2, 96779, Control_c, 0, 64, 0
2, 96783, Note_on_c, 0, 80, 89
2, 96797, Note_on_c, 0, 80, 0
2, 96798, Note_on_c, 0, 81, 85
2, 96799, Control_c, 0, 64, 127
2, 96811, Note_on_c, 0, 81, 0
2, 96813, Note_on_c, 0, 83, 89
2, 96826, Note_on_c, 0, 81, 57
2, 96829, Note_on_c, 0, 83, 0
2, 96832, Control_c, 0, 64, 0
2, 96834, Note_on_c, 0, 81, 0
2, 96840, Note_on_c, 0, 71, 93
2, 96840, Note_on_c, 0, 79, 102
2, 96849, Control_c, 0, 64, 127
2, 96859, Control_c, 0, 64, 127
2, 96866, Note_on_c, 0, 71, 0
2, 96893, Note_on_c, 0, 79, 0
2, 96905, Control_c, 0, 64, 0
2, 96907, Control_c, 0, 64, 0
2, 97536, Note_on_c, 0, 75, 76
2, 97546, Note_on_c, 0, 75, 0
2, 97558, Note_on_c, 0, 78, 60
2, 97560, Note_on_c, 0, 64, 72
2, 97560, Note_on_c, 0, 60, 80
2, 97560, Note_on_c, 0, 67, 80
2, 97560, Control_c, 0, 64, 127
2, 97571, Note_on_c, 0, 78, 0
2, 97580, Note_on_c, 0, 76, 72
2, 97593, Note_on_c, 0, 76, 0
2, 97600, Note_on_c, 0, 79, 80
2, 97608, Note_on_c, 0, 79, 0
2, 97622, Note_on_c, 0, 78, 85
2, 97638, Note_on_c, 0, 78, 0
2, 97640, Note_on_c, 0, 81, 76
2, 97651, Note_on_c, 0, 81, 0
2, 97660, Note_on_c, 0, 80, 59
2, 97665, Note_on_c, 0, 80, 0
2, 97686, Note_on_c, 0, 67, 0
2, 97686, Note_on_c, 0, 83, 85
2, 97687, Note_on_c, 0, 64, 0
2, 97687, Note_on_c, 0, 66, 68
2, 97688, Note_on_c, 0, 62, 89
2, 97689, Control_c, 0, 64, 0
2, 97700, Note_on_c, 0, 81, 62
2, 97703, Note_on_c, 0, 83, 0
2, 97712, Note_on_c, 0, 81, 0
2, 97713, Control_c, 0, 64, 127
2, 97720, Note_on_c, 0, 84, 89
2, 97729, Note_on_c, 0, 84, 0
2, 97740, Note_on_c, 0, 83, 85
2, 97754, Note_on_c, 0, 83, 0
2, 97760, Note_on_c, 0, 86, 80
2, 97772, Note_on_c, 0, 86, 0
2, 97772, Note_on_c, 0, 62, 0
2, 97773, Note_on_c, 0, 66, 0
2, 97774, Note_on_c, 0, 60, 0
2, 97780, Note_on_c, 0, 84, 80
2, 97789, Note_on_c, 0, 84, 0
2, 97799, Control_c, 0, 64, 0
2, 97804, Note_on_c, 0, 67, 85
2, 97804, Note_on_c, 0, 59, 85
2, 97804, Note_on_c, 0, 62, 85
2, 97805, Note_on_c, 0, 88, 89
2, 97813, Control_c, 0, 64, 127
2, 97824, Note_on_c, 0, 88, 0
2, 97827, Note_on_c, 0, 86, 80
2, 97839, Note_on_c, 0, 86, 0
2, 97855, Note_on_c, 0, 67, 0
2, 97856, Note_on_c, 0, 62, 0
2, 97859, Note_on_c, 0, 59, 0
2, 97871, Control_c, 0, 64, 0
2, 98823, Note_on_c, 0, 86, 93
2, 98940, Note_on_c, 0, 86, 0
2, 98940, Note_on_c, 0, 83, 56
2, 98978, Note_on_c, 0, 79, 57
2, 98979, Note_on_c, 0, 83, 0
2, 98997, Note_on_c, 0, 78, 62
2, 98998, Note_on_c, 0, 79, 0
2, 99001, Note_on_c, 0, 57, 68
2, 99001, Note_on_c, 0, 62, 80
2, 99002, Note_on_c, 0, 66, 56
2, 99007, Control_c, 0, 64, 127
2, 99029, Note_on_c, 0, 80, 72
2, 99030, Note_on_c, 0, 78, 0
2, 99049, Note_on_c, 0, 62, 0
2, 99051, Note_on_c, 0, 57, 0
2, 99051, Note_on_c, 0, 66, 0
2, 99056, Control_c, 0, 64, 0
2, 99090, Note_on_c, 0, 81, 64
2, 99091, Note_on_c, 0, 80, 0
2, 99118, Note_on_c, 0, 67, 76
2, 99119, Note_on_c, 0, 57, 64
2, 99119, Note_on_c, 0, 61, 62
2, 99120, Note_on_c, 0, 81, 0
2, 99121, Note_on_c, 0, 76, 72
2, 99124, Control_c, 0, 64, 127
2, 99135, Note_on_c, 0, 76, 0
2, 99154, Note_on_c, 0, 80, 64
2, 99175, Note_on_c, 0, 61, 0
2, 99177, Note_on_c, 0, 67, 0
2, 99177, Note_on_c, 0, 57, 0
2, 99183, Control_c, 0, 64, 0
2, 99200, Control_c, 0, 64, 127
2, 99212, Note_on_c, 0, 80, 0
2, 99212, Note_on_c, 0, 81, 64
2, 99221, Control_c, 0, 64, 0
2, 99242, Note_on_c, 0, 66, 57
2, 99243, Note_on_c, 0, 62, 76
2, 99245, Note_on_c, 0, 74, 57
2, 99246, Note_on_c, 0, 81, 0
2, 99246, Control_c, 0, 64, 127
2, 99288, Control_c, 0, 64, 127
2, 99294, Note_on_c, 0, 62, 0
2, 99295, Note_on_c, 0, 66, 0
2, 99303, Control_c, 0, 64, 0
2, 99329, Note_on_c, 0, 74, 0
2, 99333, Control_c, 0, 64, 0
2, 99931, Note_on_c, 0, 69, 85
2, 99931, Note_on_c, 0, 60, 76
2, 99934, Note_on_c, 0, 84, 89
2, 99943, Note_on_c, 0, 60, 0
2, 99944, Note_on_c, 0, 84, 0
2, 99945, Note_on_c, 0, 69, 0
2, 99960, Note_on_c, 0, 83, 93
2, 99965, Note_on_c, 0, 67, 80
2, 99965, Note_on_c, 0, 62, 76
2, 99979, Note_on_c, 0, 83, 0
2, 99990, Note_on_c, 0, 88, 80
2, 99992, Note_on_c, 0, 62, 0
2, 99996, Note_on_c, 0, 67, 0
2, 99999, Note_on_c, 0, 88, 0
2, 100005, Note_on_c, 0, 86, 93
2, 100020, Note_on_c, 0, 84, 72
2, 100022, Note_on_c, 0, 86, 0
2, 100035, Note_on_c, 0, 83, 76
2, 100037, Note_on_c, 0, 84, 0
2, 100046, Note_on_c, 0, 83, 0
2, 100050, Note_on_c, 0, 81, 76
2, 100063, Note_on_c, 0, 81, 0
2, 100068, Note_on_c, 0, 79, 80
2, 100077, Note_on_c, 0, 72, 80
2, 100077, Note_on_c, 0, 69, 85
2, 100078, Note_on_c, 0, 62, 68
2, 100080, Note_on_c, 0, 78, 93
2, 100082, Note_on_c, 0, 79, 0
2, 100103, Note_on_c, 0, 78, 0
2, 100110, Note_on_c, 0, 86, 93
2, 100114, Note_on_c, 0, 62, 0
2, 100115, Note_on_c, 0, 69, 0
2, 100118, Note_on_c, 0, 72, 0
2, 100123, Note_on_c, 0, 86, 0
2, 100125, Note_on_c, 0, 84, 76
2, 100140, Note_on_c, 0, 83, 76
2, 100151, Note_on_c, 0, 84, 0
2, 100155, Note_on_c, 0, 81, 72
2, 100158, Note_on_c, 0, 83, 0
2, 100167, Note_on_c, 0, 81, 0
2, 100170, Note_on_c, 0, 79, 64
2, 100183, Note_on_c, 0, 79, 0
2, 100185, Note_on_c, 0, 78, 76
2, 100195, Note_on_c, 0, 71, 68
2, 100196, Note_on_c, 0, 67, 76
2, 100198, Note_on_c, 0, 78, 0
2, 100198, Control_c, 0, 64, 127
2, 100200, Note_on_c, 0, 79, 89
2, 100248, Note_on_c, 0, 67, 0
2, 100250, Note_on_c, 0, 71, 0
2, 100252, Note_on_c, 0, 79, 0
2, 100255, Control_c, 0, 64, 0
2, 100470, Note_on_c, 0, 79, 85
2, 100484, Note_on_c, 0, 79, 0
2, 100485, Note_on_c, 0, 78, 56
2, 100499, Note_on_c, 0, 78, 0
2, 100500, Note_on_c, 0, 76, 76
2, 100514, Note_on_c, 0, 76, 0
2, 100515, Note_on_c, 0, 74, 68
2, 100529, Note_on_c, 0, 74, 0
2, 100530, Note_on_c, 0, 72, 62
2, 100544, Note_on_c, 0, 72, 0
2, 100545, Note_on_c, 0, 71, 80
2, 100558, Note_on_c, 0, 60, 93
2, 100559, Note_on_c, 0, 71, 0
2, 100559, Note_on_c, 0, 54, 85
2, 100559, Note_on_c, 0, 50, 93
2, 100560, Note_on_c, 0, 69, 93
2, 100583, Control_c, 0, 64, 127
2, 100586, Control_c, 0, 64, 127
2, 100589, Note_on_c, 0, 69, 0
2, 100590, Note_on_c, 0, 74, 89
2, 100604, Note_on_c, 0, 74, 0
2, 100604, Control_c, 0, 64, 0
2, 100605, Note_on_c, 0, 72, 76
2, 100619, Note_on_c, 0, 72, 0
2, 100620, Note_on_c, 0, 71, 68
2, 100622, Note_on_c, 0, 54, 0
2, 100624, Note_on_c, 0, 50, 0
2, 100626, Note_on_c, 0, 60, 0
2, 100629, Control_c, 0, 64, 0
2, 100634, Note_on_c, 0, 71, 0
2, 100635, Note_on_c, 0, 69, 72
2, 100649, Note_on_c, 0, 69, 0
2, 100650, Note_on_c, 0, 67, 62
2, 100656, Control_c, 0, 64, 127
2, 100664, Note_on_c, 0, 67, 0
2, 100665, Note_on_c, 0, 66, 76
2, 100676, Control_c, 0, 64, 0
2, 100679, Note_on_c, 0, 66, 0
2, 100680, Note_on_c, 0, 67, 93
2, 100680, Note_on_c, 0, 59, 85
2, 100680, Note_on_c, 0, 55, 85
2, 100685, Control_c, 0, 64, 127
2, 100694, Note_on_c, 0, 67, 0
2, 100695, Note_on_c, 0, 69, 60
2, 100709, Note_on_c, 0, 69, 0
2, 100710, Note_on_c, 0, 67, 80
2, 100724, Note_on_c, 0, 67, 0
2, 100725, Note_on_c, 0, 66, 72
2, 100731, Note_on_c, 0, 55, 0
2, 100734, Note_on_c, 0, 59, 0
2, 100739, Note_on_c, 0, 66, 0
2, 100740, Note_on_c, 0, 67, 80
2, 100742, Control_c, 0, 64, 0
2, 100754, Note_on_c, 0, 67, 0
2, 100755, Note_on_c, 0, 71, 89
2, 100769, Note_on_c, 0, 71, 0
2, 100770, Note_on_c, 0, 69, 98
2, 100784, Note_on_c, 0, 69, 0
2, 100785, Note_on_c, 0, 72, 76
2, 100799, Note_on_c, 0, 72, 0
2, 100800, Note_on_c, 0, 71, 98
2, 100814, Note_on_c, 0, 71, 0
2, 100815, Note_on_c, 0, 74, 76
2, 100829, Note_on_c, 0, 74, 0
2, 100830, Note_on_c, 0, 72, 89
2, 100844, Note_on_c, 0, 72, 0
2, 100845, Note_on_c, 0, 76, 76
2, 100859, Note_on_c, 0, 76, 0
2, 100860, Note_on_c, 0, 74, 93
2, 100874, Note_on_c, 0, 74, 0
2, 100875, Note_on_c, 0, 77, 76
2, 100889, Note_on_c, 0, 77, 0
2, 100890, Note_on_c, 0, 76, 98
2, 100904, Note_on_c, 0, 76, 0
2, 100905, Note_on_c, 0, 79, 93
2, 100918, Note_on_c, 0, 71, 98
2, 100918, Note_on_c, 0, 67, 98
2, 100919, Note_on_c, 0, 79, 0
2, 100919, Note_on_c, 0, 74, 93
2, 100920, Note_on_c, 0, 77, 98
2, 100920, Control_c, 0, 64, 127
2, 100934, Note_on_c, 0, 77, 0
2, 100935, Note_on_c, 0, 79, 68
2, 100949, Note_on_c, 0, 79, 0
2, 100950, Note_on_c, 0, 77, 60
2, 100964, Note_on_c, 0, 77, 0
2, 100965, Note_on_c, 0, 76, 68
2, 100974, Note_on_c, 0, 71, 0
2, 100974, Note_on_c, 0, 67, 0
2, 100975, Note_on_c, 0, 74, 0
2, 100975, Control_c, 0, 64, 0
2, 100979, Note_on_c, 0, 76, 0
2, 100980, Note_on_c, 0, 77, 56
2, 100994, Note_on_c, 0, 77, 0
2, 100995, Note_on_c, 0, 76, 62
2, 101009, Note_on_c, 0, 76, 0
2, 101010, Note_on_c, 0, 77, 57
2, 101024, Note_on_c, 0, 77, 0
2, 101025, Note_on_c, 0, 74, 56
2, 101039, Note_on_c, 0, 74, 0
2, 101040, Note_on_c, 0, 83, 80
2, 101045, Note_on_c, 0, 67, 72
2, 101045, Note_on_c, 0, 71, 80
2, 101046, Note_on_c, 0, 74, 72
2, 101050, Control_c, 0, 64, 127
2, 101054, Note_on_c, 0, 83, 0
2, 101055, Note_on_c, 0, 81, 51
2, 101069, Note_on_c, 0, 81, 0
2, 101070, Note_on_c, 0, 83, 68
2, 101084, Note_on_c, 0, 83, 0
2, 101085, Note_on_c, 0, 77, 60
2, 101099, Note_on_c, 0, 77, 0
2, 101100, Note_on_c, 0, 86, 85
2, 101102, Note_on_c, 0, 74, 0
2, 101102, Control_c, 0, 64, 0
2, 101103, Note_on_c, 0, 71, 0
2, 101104, Note_on_c, 0, 67, 0
2, 101114, Note_on_c, 0, 86, 0
2, 101115, Note_on_c, 0, 85, 53
2, 101129, Note_on_c, 0, 85, 0
2, 101130, Note_on_c, 0, 86, 72
2, 101144, Note_on_c, 0, 86, 0
2, 101145, Note_on_c, 0, 83, 85
2, 101159, Note_on_c, 0, 83, 0
2, 101160, Note_on_c, 0, 89, 85
2, 101160, Note_on_c, 0, 67, 72
2, 101161, Note_on_c, 0, 71, 89
2, 101161, Note_on_c, 0, 74, 76
2, 101164, Control_c, 0, 64, 127
2, 101284, Note_on_c, 0, 71, 0
2, 101284, Note_on_c, 0, 67, 0
2, 101286, Note_on_c, 0, 74, 0
2, 101339, Note_on_c, 0, 89, 0
2, 101340, Note_on_c, 0, 89, 80
2, 101343, Note_on_c, 0, 89, 0
2, 101344, Note_on_c, 0, 88, 89
2, 101347, Note_on_c, 0, 88, 0
2, 101348, Note_on_c, 0, 89, 76
2, 101351, Note_on_c, 0, 89, 0
2, 101352, Note_on_c, 0, 88, 85
2, 101355, Note_on_c, 0, 88, 0
2, 101356, Note_on_c, 0, 86, 89
2, 101370, Note_on_c, 0, 86, 0
2, 101401, Note_on_c, 0, 86, 80
2, 101404, Note_on_c, 0, 86, 0
2, 101405, Note_on_c, 0, 84, 93
2, 101408, Note_on_c, 0, 84, 0
2, 101409, Note_on_c, 0, 86, 76
2, 101412, Note_on_c, 0, 86, 0
2, 101413, Note_on_c, 0, 84, 85
2, 101416, Note_on_c, 0, 84, 0
2, 101417, Note_on_c, 0, 83, 85
2, 101431, Note_on_c, 0, 83, 0
2, 101462, Note_on_c, 0, 83, 80
2, 101465, Note_on_c, 0, 83, 0
2, 101466, Note_on_c, 0, 81, 60
2, 101469, Note_on_c, 0, 81, 0
2, 101470, Note_on_c, 0, 83, 72
2, 101473, Note_on_c, 0, 83, 0
2, 101474, Note_on_c, 0, 81, 80
2, 101477, Note_on_c, 0, 81, 0
2, 101478, Note_on_c, 0, 79, 85
2, 101492, Note_on_c, 0, 79, 0
2, 101523, Note_on_c, 0, 79, 85
2, 101526, Note_on_c, 0, 79, 0
2, 101527, Note_on_c, 0, 77, 76
2, 101530, Note_on_c, 0, 77, 0
2, 101531, Note_on_c, 0, 79, 76
2, 101534, Note_on_c, 0, 79, 0
2, 101535, Note_on_c, 0, 77, 85
2, 101538, Note_on_c, 0, 77, 0
2, 101539, Note_on_c, 0, 76, 85
2, 101553, Note_on_c, 0, 76, 0
2, 101584, Note_on_c, 0, 76, 72
2, 101587, Note_on_c, 0, 76, 0
2, 101588, Note_on_c, 0, 74, 72
2, 101591, Note_on_c, 0, 74, 0
2, 101592, Note_on_c, 0, 76, 76
2, 101595, Note_on_c, 0, 76, 0
2, 101596, Note_on_c, 0, 74, 76
2, 101599, Note_on_c, 0, 74, 0
2, 101600, Note_on_c, 0, 72, 80
2, 101614, Note_on_c, 0, 72, 0
2, 101640, Note_on_c, 0, 71, 85
2, 101669, Note_on_c, 0, 71, 0
2, 101700, Note_on_c, 0, 72, 80
2, 101729, Note_on_c, 0, 72, 0
2, 101760, Note_on_c, 0, 74, 80
2, 101789, Note_on_c, 0, 74, 0
2, 101820, Note_on_c, 0, 76, 89
2, 101849, Note_on_c, 0, 76, 0
2, 101880, Note_on_c, 0, 77, 76
2, 101939, Note_on_c, 0, 77, 0
2, 102000, Note_on_c, 0, 78, 76
2, 102029, Note_on_c, 0, 78, 0
2, 102120, Note_on_c, 0, 79, 85
2, 102190, Control_c, 0, 64, 127
2, 102210, Note_on_c, 0, 81, 80
2, 102214, Note_on_c, 0, 79, 0
2, 102222, Note_on_c, 0, 81, 0
2, 102224, Control_c, 0, 64, 0
2, 102225, Note_on_c, 0, 78, 53
2, 102240, Note_on_c, 0, 79, 89
2, 102243, Note_on_c, 0, 78, 0
2, 102300, Control_c, 0, 64, 127
2, 102347, Note_on_c, 0, 79, 0
2, 102355, Control_c, 0, 64, 0
2, 102600, Note_on_c, 0, 79, 80
2, 102619, Control_c, 0, 64, 127
2, 102690, Note_on_c, 0, 81, 72
2, 102695, Note_on_c, 0, 79, 0
2, 102702, Note_on_c, 0, 81, 0
2, 102705, Note_on_c, 0, 78, 72
2, 102706, Control_c, 0, 64, 0
2, 102720, Note_on_c, 0, 78, 0
2, 102720, Note_on_c, 0, 79, 80
2, 102782, Control_c, 0, 64, 127
2, 102787, Note_on_c, 0, 79, 0
2, 102804, Control_c, 0, 64, 0
2, 103080, Note_on_c, 0, 84, 89
2, 103098, Control_c, 0, 64, 127
2, 103140, Note_on_c, 0, 76, 89
2, 103140, Control_c, 0, 64, 0
2, 103142, Note_on_c, 0, 84, 0
2, 103159, Control_c, 0, 64, 127
2, 103199, Control_c, 0, 64, 0
2, 103200, Note_on_c, 0, 77, 93
2, 103201, Note_on_c, 0, 76, 0
2, 103218, Control_c, 0, 64, 127
2, 103257, Control_c, 0, 64, 0
2, 103260, Note_on_c, 0, 80, 80
2, 103262, Note_on_c, 0, 77, 0
2, 103274, Control_c, 0, 64, 127
2, 103319, Control_c, 0, 64, 0
2, 103320, Note_on_c, 0, 74, 85
2, 103322, Note_on_c, 0, 80, 0
2, 103335, Control_c, 0, 64, 127
2, 103394, Control_c, 0, 64, 0
2, 103406, Note_on_c, 0, 74, 0
2, 103410, Note_on_c, 0, 76, 89
2, 103418, Note_on_c, 0, 76, 0
2, 103440, Note_on_c, 0, 77, 89
2, 103451, Note_on_c, 0, 77, 0
2, 103470, Note_on_c, 0, 79, 85
2, 103480, Note_on_c, 0, 79, 0
2, 103500, Note_on_c, 0, 81, 85
2, 103510, Note_on_c, 0, 81, 0
2, 103530, Note_on_c, 0, 83, 89
2, 103541, Note_on_c, 0, 83, 0
2, 103560, Note_on_c, 0, 84, 89
2, 103580, Control_c, 0, 64, 127
2, 103620, Note_on_c, 0, 76, 80
2, 103624, Note_on_c, 0, 84, 0
2, 103626, Control_c, 0, 64, 0
2, 103641, Control_c, 0, 64, 127
2, 103674, Note_on_c, 0, 76, 0
2, 103679, Control_c, 0, 64, 0
2, 103680, Note_on_c, 0, 77, 89
2, 103694, Control_c, 0, 64, 127
2, 103735, Control_c, 0, 64, 0
2, 103740, Note_on_c, 0, 77, 0
2, 103740, Note_on_c, 0, 80, 98
2, 103749, Control_c, 0, 64, 127
2, 103796, Control_c, 0, 64, 0
2, 103799, Note_on_c, 0, 80, 0
2, 103800, Note_on_c, 0, 74, 89
2, 103815, Control_c, 0, 64, 127
2, 103863, Control_c, 0, 64, 0
2, 103890, Note_on_c, 0, 76, 93
2, 103891, Note_on_c, 0, 74, 0
2, 103898, Note_on_c, 0, 76, 0
2, 103920, Note_on_c, 0, 77, 93
2, 103932, Note_on_c, 0, 77, 0
2, 103950, Note_on_c, 0, 79, 89
2, 103958, Note_on_c, 0, 79, 0
2, 103980, Note_on_c, 0, 81, 89
2, 103990, Note_on_c, 0, 81, 0
2, 104010, Note_on_c, 0, 83, 93
2, 104021, Note_on_c, 0, 83, 0
2, 104040, Note_on_c, 0, 84, 93
2, 104048, Control_c, 0, 64, 127
2, 104070, Note_on_c, 0, 83, 89
2, 104073, Note_on_c, 0, 84, 0
2, 104084, Note_on_c, 0, 83, 0
2, 104096, Control_c, 0, 64, 0
2, 104100, Note_on_c, 0, 81, 89
2, 104111, Note_on_c, 0, 81, 0
2, 104132, Note_on_c, 0, 79, 89
2, 104140, Note_on_c, 0, 79, 0
2, 104160, Note_on_c, 0, 81, 76
2, 104166, Note_on_c, 0, 81, 0
2, 104167, Note_on_c, 0, 79, 80
2, 104170, Control_c, 0, 64, 127
2, 104173, Note_on_c, 0, 79, 0
2, 104174, Note_on_c, 0, 81, 80
2, 104180, Note_on_c, 0, 81, 0
2, 104181, Note_on_c, 0, 79, 80
2, 104187, Note_on_c, 0, 79, 0
2, 104188, Note_on_c, 0, 77, 80
2, 104205, Control_c, 0, 64, 0
2, 104217, Note_on_c, 0, 77, 0
2, 104218, Note_on_c, 0, 79, 85
2, 104224, Note_on_c, 0, 79, 0
2, 104225, Note_on_c, 0, 77, 64
2, 104231, Note_on_c, 0, 77, 0
2, 104232, Note_on_c, 0, 79, 76
2, 104235, Control_c, 0, 64, 127
2, 104238, Note_on_c, 0, 79, 0
2, 104239, Note_on_c, 0, 77, 89
2, 104245, Note_on_c, 0, 77, 0
2, 104246, Note_on_c, 0, 76, 85
2, 104255, Control_c, 0, 64, 0
2, 104275, Note_on_c, 0, 76, 0
2, 104280, Note_on_c, 0, 76, 98
2, 104302, Control_c, 0, 64, 127
2, 104393, Note_on_c, 0, 76, 0
2, 104400, Note_on_c, 0, 74, 76
2, 104401, Control_c, 0, 64, 0
2, 104418, Control_c, 0, 64, 127
2, 104468, Note_on_c, 0, 74, 0
2, 104479, Control_c, 0, 64, 0
2, 104520, Note_on_c, 0, 79, 80
2, 104572, Control_c, 0, 64, 127
2, 104608, Note_on_c, 0, 79, 0
2, 104610, Note_on_c, 0, 81, 68
2, 104621, Control_c, 0, 64, 0
2, 104624, Note_on_c, 0, 81, 0
2, 104625, Note_on_c, 0, 78, 52
2, 104640, Note_on_c, 0, 79, 62
2, 104641, Note_on_c, 0, 78, 0
2, 104655, Control_c, 0, 64, 127
2, 104707, Control_c, 0, 64, 0
2, 104709, Note_on_c, 0, 79, 0
2, 105000, Note_on_c, 0, 79, 89
2, 105005, Control_c, 0, 64, 127
2, 105090, Note_on_c, 0, 81, 80
2, 105095, Control_c, 0, 64, 0
2, 105098, Note_on_c, 0, 79, 0
2, 105105, Note_on_c, 0, 78, 60
2, 105108, Note_on_c, 0, 81, 0
2, 105117, Note_on_c, 0, 78, 0
2, 105120, Note_on_c, 0, 79, 98
2, 105151, Control_c, 0, 64, 127
2, 105190, Note_on_c, 0, 79, 0
2, 105244, Control_c, 0, 64, 0
2, 105480, Note_on_c, 0, 84, 93
2, 105489, Control_c, 0, 64, 127
2, 105539, Note_on_c, 0, 84, 0
2, 105540, Note_on_c, 0, 76, 76
2, 105540, Control_c, 0, 64, 0
2, 105556, Control_c, 0, 64, 127
2, 105600, Note_on_c, 0, 77, 85
2, 105600, Control_c, 0, 64, 0
2, 105601, Note_on_c, 0, 76, 0
2, 105616, Control_c, 0, 64, 127
2, 105658, Control_c, 0, 64, 0
2, 105660, Note_on_c, 0, 77, 0
2, 105660, Note_on_c, 0, 80, 85
2, 105671, Control_c, 0, 64, 127
2, 105718, Control_c, 0, 64, 0
2, 105720, Note_on_c, 0, 80, 0
2, 105720, Note_on_c, 0, 74, 80
2, 105735, Control_c, 0, 64, 127
2, 105787, Control_c, 0, 64, 0
2, 105810, Note_on_c, 0, 76, 89
2, 105812, Note_on_c, 0, 74, 0
2, 105817, Note_on_c, 0, 76, 0
2, 105840, Note_on_c, 0, 77, 89
2, 105851, Note_on_c, 0, 77, 0
2, 105870, Note_on_c, 0, 79, 85
2, 105879, Note_on_c, 0, 79, 0
2, 105900, Note_on_c, 0, 81, 76
2, 105910, Note_on_c, 0, 81, 0
2, 105930, Note_on_c, 0, 83, 93
2, 105940, Note_on_c, 0, 83, 0
2, 105960, Note_on_c, 0, 84, 89
2, 105977, Control_c, 0, 64, 127
2, 106018, Note_on_c, 0, 84, 0
2, 106020, Note_on_c, 0, 76, 72
2, 106027, Control_c, 0, 64, 0
2, 106042, Control_c, 0, 64, 127
2, 106078, Control_c, 0, 64, 0
2, 106079, Note_on_c, 0, 76, 0
2, 106080, Note_on_c, 0, 77, 76
2, 106095, Control_c, 0, 64, 127
2, 106138, Control_c, 0, 64, 0
2, 106140, Note_on_c, 0, 80, 76
2, 106141, Note_on_c, 0, 77, 0
2, 106155, Control_c, 0, 64, 127
2, 106197, Control_c, 0, 64, 0
2, 106198, Note_on_c, 0, 80, 0
2, 106200, Note_on_c, 0, 74, 76
2, 106217, Control_c, 0, 64, 127
2, 106267, Control_c, 0, 64, 0
2, 106281, Control_c, 0, 64, 127
2, 106290, Note_on_c, 0, 76, 89
2, 106294, Note_on_c, 0, 74, 0
2, 106300, Note_on_c, 0, 76, 0
2, 106301, Control_c, 0, 64, 0
2, 106320, Note_on_c, 0, 77, 89
2, 106331, Note_on_c, 0, 77, 0
2, 106350, Note_on_c, 0, 79, 80
2, 106360, Note_on_c, 0, 79, 0
2, 106380, Note_on_c, 0, 81, 89
2, 106389, Note_on_c, 0, 81, 0
2, 106410, Note_on_c, 0, 83, 93
2, 106419, Note_on_c, 0, 83, 0
2, 106440, Note_on_c, 0, 84, 93
2, 106446, Control_c, 0, 64, 127
2, 106470, Note_on_c, 0, 83, 93
2, 106475, Note_on_c, 0, 84, 0
2, 106495, Note_on_c, 0, 83, 0
2, 106497, Control_c, 0, 64, 0
2, 106500, Note_on_c, 0, 81, 89
2, 106509, Note_on_c, 0, 81, 0
2, 106532, Note_on_c, 0, 79, 89
2, 106539, Note_on_c, 0, 79, 0
2, 106560, Note_on_c, 0, 81, 85
2, 106563, Control_c, 0, 64, 127
2, 106566, Note_on_c, 0, 81, 0
2, 106567, Note_on_c, 0, 79, 72
2, 106573, Note_on_c, 0, 79, 0
2, 106574, Note_on_c, 0, 81, 76
2, 106580, Note_on_c, 0, 81, 0
2, 106581, Note_on_c, 0, 79, 80
2, 106587, Note_on_c, 0, 79, 0
2, 106588, Note_on_c, 0, 77, 85
2, 106605, Control_c, 0, 64, 0
2, 106617, Note_on_c, 0, 77, 0
2, 106618, Note_on_c, 0, 79, 76
2, 106624, Note_on_c, 0, 79, 0
2, 106625, Note_on_c, 0, 77, 89
2, 106630, Control_c, 0, 64, 127
2, 106631, Note_on_c, 0, 77, 0
2, 106632, Note_on_c, 0, 79, 80
2, 106638, Note_on_c, 0, 79, 0
2, 106639, Note_on_c, 0, 77, 89
2, 106645, Note_on_c, 0, 77, 0
2, 106646, Note_on_c, 0, 76, 93
2, 106661, Control_c, 0, 64, 0
2, 106675, Note_on_c, 0, 76, 0
2, 106680, Note_on_c, 0, 76, 98
2, 106695, Control_c, 0, 64, 127
2, 106798, Note_on_c, 0, 76, 0
2, 106800, Note_on_c, 0, 74, 80
2, 106801, Control_c, 0, 64, 0
2, 106816, Control_c, 0, 64, 127
2, 106862, Note_on_c, 0, 74, 0
2, 106874, Control_c, 0, 64, 0
2, 106920, Note_on_c, 0, 79, 93
2, 106920, Note_on_c, 0, 74, 93
2, 106920, Note_on_c, 0, 83, 93
2, 106924, Control_c, 0, 64, 127
2, 106975, Note_on_c, 0, 74, 0
2, 106976, Note_on_c, 0, 79, 0
2, 106978, Note_on_c, 0, 83, 0
2, 106979, Control_c, 0, 64, 0
2, 107160, Note_on_c, 0, 84, 93
2, 107160, Note_on_c, 0, 76, 93
2, 107160, Note_on_c, 0, 79, 98
2, 107161, Control_c, 0, 64, 127
2, 107219, Control_c, 0, 64, 0
2, 107220, Note_on_c, 0, 76, 0
2, 107222, Note_on_c, 0, 79, 0
2, 107223, Note_on_c, 0, 84, 0
2, 107396, Control_c, 0, 64, 127
2, 107400, Note_on_c, 0, 86, 102
2, 107400, Note_on_c, 0, 77, 98
2, 107400, Note_on_c, 0, 79, 98
2, 107451, Note_on_c, 0, 79, 0
2, 107452, Control_c, 0, 64, 0
2, 107453, Note_on_c, 0, 77, 0
2, 107455, Note_on_c, 0, 86, 0
2, 107519, Control_c, 0, 64, 127
2, 107520, Note_on_c, 0, 76, 89
2, 107520, Note_on_c, 0, 84, 85
2, 107520, Note_on_c, 0, 79, 89
2, 107582, Control_c, 0, 64, 0
2, 107583, Note_on_c, 0, 84, 0
2, 107584, Note_on_c, 0, 79, 0
2, 107585, Note_on_c, 0, 76, 0
2, 107640, Note_on_c, 0, 79, 89
2, 107640, Note_on_c, 0, 74, 89
2, 107640, Note_on_c, 0, 83, 93
2, 107641, Control_c, 0, 64, 127
2, 107704, Control_c, 0, 64, 0
2, 107706, Note_on_c, 0, 83, 0
2, 107706, Note_on_c, 0, 74, 0
2, 107706, Note_on_c, 0, 79, 0
2, 107880, Control_c, 0, 64, 127
2, 107880, Note_on_c, 0, 79, 89
2, 107880, Note_on_c, 0, 74, 89
2, 107880, Note_on_c, 0, 83, 89
2, 107939, Note_on_c, 0, 74, 0
2, 107939, Control_c, 0, 64, 0
2, 107942, Note_on_c, 0, 83, 0
2, 107943, Note_on_c, 0, 79, 0
2, 108117, Control_c, 0, 64, 127
2, 108120, Note_on_c, 0, 84, 85
2, 108120, Note_on_c, 0, 76, 89
2, 108120, Note_on_c, 0, 79, 93
2, 108175, Control_c, 0, 64, 0
2, 108182, Note_on_c, 0, 76, 0
2, 108184, Note_on_c, 0, 79, 0
2, 108184, Note_on_c, 0, 84, 0
2, 108353, Control_c, 0, 64, 127
2, 108360, Note_on_c, 0, 86, 89
2, 108360, Note_on_c, 0, 77, 80
2, 108360, Note_on_c, 0, 79, 93
2, 108419, Control_c, 0, 64, 0
2, 108421, Note_on_c, 0, 79, 0
2, 108421, Note_on_c, 0, 77, 0
2, 108424, Note_on_c, 0, 86, 0
2, 108480, Note_on_c, 0, 76, 89
2, 108480, Note_on_c, 0, 79, 93
2, 108480, Note_on_c, 0, 84, 89
2, 108484, Control_c, 0, 64, 127
2, 108541, Control_c, 0, 64, 0
2, 108543, Note_on_c, 0, 84, 0
2, 108543, Note_on_c, 0, 76, 0
2, 108544, Note_on_c, 0, 79, 0
2, 108600, Note_on_c, 0, 74, 76
2, 108600, Note_on_c, 0, 79, 89
2, 108600, Note_on_c, 0, 83, 89
2, 108606, Control_c, 0, 64, 127
2, 108660, Note_on_c, 0, 79, 0
2, 108660, Note_on_c, 0, 74, 0
2, 108661, Note_on_c, 0, 83, 0
2, 108663, Control_c, 0, 64, 0
2, 108720, Note_on_c, 0, 74, 80
2, 108720, Note_on_c, 0, 79, 93
2, 108720, Note_on_c, 0, 83, 85
2, 108727, Control_c, 0, 64, 127
2, 108778, Note_on_c, 0, 79, 0
2, 108778, Note_on_c, 0, 74, 0
2, 108779, Note_on_c, 0, 83, 0
2, 108783, Control_c, 0, 64, 0
2, 108840, Note_on_c, 0, 79, 93
2, 108840, Note_on_c, 0, 74, 89
2, 108840, Note_on_c, 0, 86, 102
2, 108846, Control_c, 0, 64, 127
2, 108903, Note_on_c, 0, 74, 0
2, 108904, Note_on_c, 0, 79, 0
2, 108905, Note_on_c, 0, 86, 0
2, 108908, Control_c, 0, 64, 0
2, 109200, Note_on_c, 0, 74, 89
2, 109200, Note_on_c, 0, 79, 89
2, 109200, Note_on_c, 0, 83, 89
2, 109207, Control_c, 0, 64, 127
2, 109261, Note_on_c, 0, 83, 0
2, 109261, Note_on_c, 0, 74, 0
2, 109262, Note_on_c, 0, 79, 0
2, 109262, Control_c, 0, 64, 0
2, 109320, Control_c, 0, 64, 127
2, 109320, Note_on_c, 0, 74, 89
2, 109320, Note_on_c, 0, 86, 98
2, 109320, Note_on_c, 0, 79, 98
2, 109384, Control_c, 0, 64, 0
2, 109386, Note_on_c, 0, 79, 0
2, 109386, Note_on_c, 0, 86, 0
2, 109388, Note_on_c, 0, 74, 0
2, 109680, Note_on_c, 0, 79, 93
2, 109680, Note_on_c, 0, 71, 89
2, 109680, Note_on_c, 0, 74, 93
2, 109684, Control_c, 0, 64, 127
2, 109737, Note_on_c, 0, 74, 0
2, 109737, Note_on_c, 0, 71, 0
2, 109737, Note_on_c, 0, 79, 0
2, 109747, Control_c, 0, 64, 0
2, 109800, Note_on_c, 0, 79, 89
2, 109800, Note_on_c, 0, 74, 85
2, 109800, Note_on_c, 0, 83, 98
2, 109804, Control_c, 0, 64, 127
2, 109856, Note_on_c, 0, 74, 0
2, 109857, Note_on_c, 0, 83, 0
2, 109857, Note_on_c, 0, 79, 0
2, 109865, Control_c, 0, 64, 0
2, 109920, Note_on_c, 0, 79, 80
2, 109920, Note_on_c, 0, 83, 89
2, 109920, Note_on_c, 0, 86, 93
2, 109921, Control_c, 0, 64, 127
2, 109979, Control_c, 0, 64, 0
2, 109980, Note_on_c, 0, 86, 0
2, 109980, Note_on_c, 0, 83, 0
2, 109981, Note_on_c, 0, 79, 0
2, 110040, Note_on_c, 0, 79, 89
2, 110040, Note_on_c, 0, 86, 93
2, 110040, Note_on_c, 0, 89, 93
2, 110040, Note_on_c, 0, 83, 98
2, 110043, Control_c, 0, 64, 127
2, 110099, Note_on_c, 0, 83, 0
2, 110099, Note_on_c, 0, 86, 0
2, 110100, Note_on_c, 0, 79, 0
2, 110101, Note_on_c, 0, 89, 0
2, 110105, Control_c, 0, 64, 0
2, 111000, Note_on_c, 0, 71, 98
2, 111000, Control_c, 0, 64, 127
2, 111019, Note_on_c, 0, 71, 0
2, 111020, Note_on_c, 0, 74, 80
2, 111039, Note_on_c, 0, 74, 0
2, 111040, Note_on_c, 0, 79, 76
2, 111059, Note_on_c, 0, 79, 0
2, 111060, Control_c, 0, 64, 0
2, 111060, Note_on_c, 0, 70, 93
2, 111060, Control_c, 0, 64, 127
2, 111079, Note_on_c, 0, 70, 0
2, 111080, Note_on_c, 0, 73, 80
2, 111099, Note_on_c, 0, 73, 0
2, 111100, Note_on_c, 0, 79, 80
2, 111119, Note_on_c, 0, 79, 0
2, 111120, Control_c, 0, 64, 0
2, 111120, Note_on_c, 0, 71, 102
2, 111120, Control_c, 0, 64, 127
2, 111139, Note_on_c, 0, 71, 0
2, 111140, Note_on_c, 0, 74, 80
2, 111159, Note_on_c, 0, 74, 0
2, 111160, Note_on_c, 0, 79, 80
2, 111179, Note_on_c, 0, 79, 0
2, 111180, Note_on_c, 0, 72, 98
2, 111180, Control_c, 0, 64, 0
2, 111180, Control_c, 0, 64, 127
2, 111199, Note_on_c, 0, 72, 0
2, 111200, Note_on_c, 0, 76, 76
2, 111219, Note_on_c, 0, 76, 0
2, 111220, Note_on_c, 0, 79, 93
2, 111239, Note_on_c, 0, 79, 0
2, 111240, Control_c, 0, 64, 0
2, 111240, Note_on_c, 0, 74, 98
2, 111240, Control_c, 0, 64, 127
2, 111259, Note_on_c, 0, 74, 0
2, 111260, Note_on_c, 0, 77, 72
2, 111279, Note_on_c, 0, 77, 0
2, 111280, Note_on_c, 0, 79, 64
2, 111299, Note_on_c, 0, 79, 0
2, 111300, Control_c, 0, 64, 0
2, 111300, Note_on_c, 0, 73, 98
2, 111300, Control_c, 0, 64, 127
2, 111319, Note_on_c, 0, 73, 0
2, 111320, Note_on_c, 0, 76, 72
2, 111339, Note_on_c, 0, 76, 0
2, 111340, Note_on_c, 0, 79, 72
2, 111359, Note_on_c, 0, 79, 0
2, 111360, Control_c, 0, 64, 0
2, 111360, Note_on_c, 0, 74, 93
2, 111360, Control_c, 0, 64, 127
2, 111379, Note_on_c, 0, 74, 0
2, 111380, Note_on_c, 0, 77, 72
2, 111399, Note_on_c, 0, 77, 0
2, 111400, Note_on_c, 0, 79, 72
2, 111419, Note_on_c, 0, 79, 0
2, 111420, Control_c, 0, 64, 0
2, 111420, Note_on_c, 0, 73, 89
2, 111420, Control_c, 0, 64, 127
2, 111439, Note_on_c, 0, 73, 0
2, 111440, Note_on_c, 0, 76, 89
2, 111459, Note_on_c, 0, 76, 0
2, 111460, Note_on_c, 0, 79, 76
2, 111479, Note_on_c, 0, 79, 0
2, 111480, Control_c, 0, 64, 0
2, 111480, Note_on_c, 0, 79, 93
2, 111480, Note_on_c, 0, 74, 93
2, 111480, Note_on_c, 0, 77, 93
2, 111480, Control_c, 0, 64, 127
2, 111539, Note_on_c, 0, 77, 0
2, 111539, Note_on_c, 0, 74, 0
2, 111539, Note_on_c, 0, 79, 0
2, 111540, Control_c, 0, 64, 0
2, 111540, Note_on_c, 0, 89, 89
2, 111558, Control_c, 0, 64, 127
2, 111656, Note_on_c, 0, 89, 0
2, 111657, Control_c, 0, 64, 0
2, 111660, Note_on_c, 0, 88, 93
2, 111675, Control_c, 0, 64, 127
2, 111690, Note_on_c, 0, 86, 89
2, 111693, Note_on_c, 0, 88, 0
2, 111695, Control_c, 0, 64, 0
2, 111720, Note_on_c, 0, 84, 89
2, 111722, Note_on_c, 0, 86, 0
2, 111726, Control_c, 0, 64, 127
2, 111750, Note_on_c, 0, 83, 89
2, 111751, Note_on_c, 0, 84, 0
2, 111765, Control_c, 0, 64, 0
2, 111780, Note_on_c, 0, 88, 93
2, 111783, Note_on_c, 0, 83, 0
2, 111791, Control_c, 0, 64, 127
2, 111810, Note_on_c, 0, 86, 89
2, 111811, Note_on_c, 0, 88, 0
2, 111819, Control_c, 0, 64, 0
2, 111840, Note_on_c, 0, 84, 89
2, 111843, Note_on_c, 0, 86, 0
2, 111848, Control_c, 0, 64, 127
2, 111870, Note_on_c, 0, 83, 89
2, 111873, Note_on_c, 0, 84, 0
2, 111874, Control_c, 0, 64, 0
2, 111890, Control_c, 0, 64, 127
2, 111900, Note_on_c, 0, 83, 0
2, 111900, Note_on_c, 0, 81, 72
2, 111929, Note_on_c, 0, 81, 0
2, 111930, Note_on_c, 0, 79, 76
2, 111951, Note_on_c, 0, 79, 0
2, 111956, Control_c, 0, 64, 0
2, 111960, Note_on_c, 0, 79, 80
2, 111977, Control_c, 0, 64, 127
2, 112049, Note_on_c, 0, 79, 0
2, 112050, Note_on_c, 0, 81, 76
2, 112065, Note_on_c, 0, 78, 55
2, 112073, Note_on_c, 0, 81, 0
2, 112074, Control_c, 0, 64, 0
2, 112080, Note_on_c, 0, 79, 80
2, 112086, Note_on_c, 0, 78, 0
2, 112174, Note_on_c, 0, 79, 0
2, 112440, Note_on_c, 0, 79, 89
2, 112451, Control_c, 0, 64, 127
2, 112523, Note_on_c, 0, 79, 0
2, 112530, Note_on_c, 0, 81, 89
2, 112539, Control_c, 0, 64, 0
2, 112545, Note_on_c, 0, 78, 59
2, 112553, Note_on_c, 0, 81, 0
2, 112560, Note_on_c, 0, 79, 93
2, 112565, Note_on_c, 0, 78, 0
2, 112633, Note_on_c, 0, 79, 0
2, 112920, Note_on_c, 0, 84, 85
2, 112924, Control_c, 0, 64, 127
2, 112980, Note_on_c, 0, 84, 0
2, 112980, Note_on_c, 0, 76, 85
2, 112981, Control_c, 0, 64, 0
2, 113000, Control_c, 0, 64, 127
2, 113040, Control_c, 0, 64, 0
2, 113040, Note_on_c, 0, 77, 85
2, 113043, Note_on_c, 0, 76, 0
2, 113057, Control_c, 0, 64, 127
2, 113097, Control_c, 0, 64, 0
2, 113100, Note_on_c, 0, 80, 85
2, 113102, Note_on_c, 0, 77, 0
2, 113115, Control_c, 0, 64, 127
2, 113159, Note_on_c, 0, 80, 0
2, 113159, Control_c, 0, 64, 0
2, 113160, Note_on_c, 0, 74, 85
2, 113179, Control_c, 0, 64, 127
2, 113219, Control_c, 0, 64, 0
2, 113234, Control_c, 0, 64, 127
2, 113249, Note_on_c, 0, 74, 0
2, 113250, Note_on_c, 0, 76, 85
2, 113258, Control_c, 0, 64, 0
2, 113260, Note_on_c, 0, 76, 0
2, 113280, Note_on_c, 0, 77, 89
2, 113292, Note_on_c, 0, 77, 0
2, 113310, Note_on_c, 0, 79, 76
2, 113321, Note_on_c, 0, 79, 0
2, 113340, Note_on_c, 0, 81, 89
2, 113350, Note_on_c, 0, 81, 0
2, 113370, Note_on_c, 0, 83, 89
2, 113381, Note_on_c, 0, 83, 0
2, 113400, Note_on_c, 0, 84, 76
2, 113415, Control_c, 0, 64, 127
2, 113459, Note_on_c, 0, 84, 0
2, 113460, Note_on_c, 0, 76, 76
2, 113465, Control_c, 0, 64, 0
2, 113480, Control_c, 0, 64, 127
2, 113516, Control_c, 0, 64, 0
2, 113517, Note_on_c, 0, 76, 0
2, 113520, Note_on_c, 0, 77, 89
2, 113530, Control_c, 0, 64, 127
2, 113570, Control_c, 0, 64, 0
2, 113580, Note_on_c, 0, 80, 85
2, 113582, Note_on_c, 0, 77, 0
2, 113585, Control_c, 0, 64, 127
2, 113631, Control_c, 0, 64, 0
2, 113639, Note_on_c, 0, 80, 0
2, 113640, Note_on_c, 0, 74, 85
2, 113652, Control_c, 0, 64, 127
2, 113730, Note_on_c, 0, 74, 0
2, 113730, Note_on_c, 0, 76, 93
2, 113733, Control_c, 0, 64, 0
2, 113738, Note_on_c, 0, 76, 0
2, 113760, Note_on_c, 0, 77, 93
2, 113772, Note_on_c, 0, 77, 0
2, 113790, Note_on_c, 0, 79, 85
2, 113801, Note_on_c, 0, 79, 0
2, 113820, Note_on_c, 0, 81, 89
2, 113830, Note_on_c, 0, 81, 0
2, 113850, Note_on_c, 0, 83, 93
2, 113860, Note_on_c, 0, 83, 0
2, 113880, Note_on_c, 0, 84, 89
2, 113893, Control_c, 0, 64, 127
2, 113906, Note_on_c, 0, 84, 0
2, 113910, Note_on_c, 0, 83, 60
2, 113940, Note_on_c, 0, 83, 0
2, 113940, Note_on_c, 0, 81, 89
2, 113942, Control_c, 0, 64, 0
2, 113953, Note_on_c, 0, 81, 0
2, 113970, Note_on_c, 0, 79, 80
2, 113978, Note_on_c, 0, 79, 0
2, 114000, Note_on_c, 0, 81, 80
2, 114006, Note_on_c, 0, 81, 0
2, 114007, Note_on_c, 0, 79, 85
2, 114013, Note_on_c, 0, 79, 0
2, 114014, Note_on_c, 0, 81, 85
2, 114020, Note_on_c, 0, 81, 0
2, 114021, Note_on_c, 0, 79, 80
2, 114027, Note_on_c, 0, 79, 0
2, 114028, Note_on_c, 0, 77, 76
2, 114057, Note_on_c, 0, 77, 0
2, 114058, Note_on_c, 0, 77, 80
2, 114060, Note_on_c, 0, 67, 89
2, 114064, Note_on_c, 0, 77, 0
2, 114065, Note_on_c, 0, 76, 93
2, 114071, Note_on_c, 0, 76, 0
2, 114072, Note_on_c, 0, 77, 68
2, 114078, Note_on_c, 0, 77, 0
2, 114079, Note_on_c, 0, 76, 76
2, 114085, Note_on_c, 0, 76, 0
2, 114086, Note_on_c, 0, 74, 93
2, 114115, Note_on_c, 0, 74, 0
2, 114116, Note_on_c, 0, 74, 93
2, 114119, Note_on_c, 0, 67, 0
2, 114120, Note_on_c, 0, 67, 85
2, 114235, Note_on_c, 0, 74, 0
2, 114236, Note_on_c, 0, 72, 68
2, 114295, Note_on_c, 0, 72, 0
2, 114299, Note_on_c, 0, 67, 0
2, 114360, Note_on_c, 0, 79, 85
2, 114430, Control_c, 0, 64, 127
2, 114450, Note_on_c, 0, 81, 80
2, 114454, Note_on_c, 0, 79, 0
2, 114462, Note_on_c, 0, 81, 0
2, 114464, Control_c, 0, 64, 0
2, 114465, Note_on_c, 0, 78, 53
2, 114480, Note_on_c, 0, 79, 89
2, 114483, Note_on_c, 0, 78, 0
2, 114540, Control_c, 0, 64, 127
2, 114587, Note_on_c, 0, 79, 0
2, 114595, Control_c, 0, 64, 0
2, 114840, Note_on_c, 0, 79, 80
2, 114859, Control_c, 0, 64, 127
2, 114930, Note_on_c, 0, 81, 72
2, 114935, Note_on_c, 0, 79, 0
2, 114942, Note_on_c, 0, 81, 0
2, 114945, Note_on_c, 0, 78, 72
2, 114946, Control_c, 0, 64, 0
2, 114960, Note_on_c, 0, 78, 0
2, 114960, Note_on_c, 0, 79, 80
2, 115022, Control_c, 0, 64, 127
2, 115027, Note_on_c, 0, 79, 0
2, 115044, Control_c, 0, 64, 0
2, 115320, Note_on_c, 0, 84, 89
2, 115338, Control_c, 0, 64, 127
2, 115380, Note_on_c, 0, 76, 89
2, 115380, Control_c, 0, 64, 0
2, 115382, Note_on_c, 0, 84, 0
2, 115399, Control_c, 0, 64, 127
2, 115439, Control_c, 0, 64, 0
2, 115440, Note_on_c, 0, 77, 93
2, 115441, Note_on_c, 0, 76, 0
2, 115458, Control_c, 0, 64, 127
2, 115497, Control_c, 0, 64, 0
2, 115500, Note_on_c, 0, 80, 80
2, 115502, Note_on_c, 0, 77, 0
2, 115514, Control_c, 0, 64, 127
2, 115559, Control_c, 0, 64, 0
2, 115560, Note_on_c, 0, 74, 85
2, 115562, Note_on_c, 0, 80, 0
2, 115575, Control_c, 0, 64, 127
2, 115634, Control_c, 0, 64, 0
2, 115646, Note_on_c, 0, 74, 0
2, 115650, Note_on_c, 0, 76, 89
2, 115658, Note_on_c, 0, 76, 0
2, 115680, Note_on_c, 0, 77, 89
2, 115691, Note_on_c, 0, 77, 0
2, 115710, Note_on_c, 0, 79, 85
2, 115720, Note_on_c, 0, 79, 0
2, 115740, Note_on_c, 0, 81, 85
2, 115750, Note_on_c, 0, 81, 0
2, 115770, Note_on_c, 0, 83, 89
2, 115781, Note_on_c, 0, 83, 0
2, 115800, Note_on_c, 0, 84, 89
2, 115820, Control_c, 0, 64, 127
2, 115860, Note_on_c, 0, 76, 80
2, 115864, Note_on_c, 0, 84, 0
2, 115866, Control_c, 0, 64, 0
2, 115881, Control_c, 0, 64, 127
2, 115914, Note_on_c, 0, 76, 0
2, 115919, Control_c, 0, 64, 0
2, 115920, Note_on_c, 0, 77, 89
2, 115934, Control_c, 0, 64, 127
2, 115975, Control_c, 0, 64, 0
2, 115980, Note_on_c, 0, 77, 0
2, 115980, Note_on_c, 0, 80, 98
2, 115989, Control_c, 0, 64, 127
2, 116036, Control_c, 0, 64, 0
2, 116039, Note_on_c, 0, 80, 0
2, 116040, Note_on_c, 0, 74, 89
2, 116055, Control_c, 0, 64, 127
2, 116103, Control_c, 0, 64, 0
2, 116130, Note_on_c, 0, 76, 93
2, 116131, Note_on_c, 0, 74, 0
2, 116138, Note_on_c, 0, 76, 0
2, 116160, Note_on_c, 0, 77, 93
2, 116172, Note_on_c, 0, 77, 0
2, 116190, Note_on_c, 0, 79, 89
2, 116198, Note_on_c, 0, 79, 0
2, 116220, Note_on_c, 0, 81, 89
2, 116230, Note_on_c, 0, 81, 0
2, 116250, Note_on_c, 0, 83, 93
2, 116261, Note_on_c, 0, 83, 0
2, 116280, Note_on_c, 0, 84, 93
2, 116288, Control_c, 0, 64, 127
2, 116310, Note_on_c, 0, 83, 89
2, 116313, Note_on_c, 0, 84, 0
2, 116324, Note_on_c, 0, 83, 0
2, 116336, Control_c, 0, 64, 0
2, 116340, Note_on_c, 0, 81, 89
2, 116351, Note_on_c, 0, 81, 0
2, 116372, Note_on_c, 0, 79, 89
2, 116380, Note_on_c, 0, 79, 0
2, 116400, Note_on_c, 0, 81, 76
2, 116406, Note_on_c, 0, 81, 0
2, 116407, Note_on_c, 0, 79, 80
2, 116410, Control_c, 0, 64, 127
2, 116413, Note_on_c, 0, 79, 0
2, 116414, Note_on_c, 0, 81, 80
2, 116420, Note_on_c, 0, 81, 0
2, 116421, Note_on_c, 0, 79, 80
2, 116427, Note_on_c, 0, 79, 0
2, 116428, Note_on_c, 0, 77, 80
2, 116445, Control_c, 0, 64, 0
2, 116457, Note_on_c, 0, 77, 0
2, 116458, Note_on_c, 0, 79, 85
2, 116464, Note_on_c, 0, 79, 0
2, 116465, Note_on_c, 0, 77, 64
2, 116471, Note_on_c, 0, 77, 0
2, 116472, Note_on_c, 0, 79, 76
2, 116475, Control_c, 0, 64, 127
2, 116478, Note_on_c, 0, 79, 0
2, 116479, Note_on_c, 0, 77, 89
2, 116485, Note_on_c, 0, 77, 0
2, 116486, Note_on_c, 0, 76, 85
2, 116495, Control_c, 0, 64, 0
2, 116515, Note_on_c, 0, 76, 0
2, 116520, Note_on_c, 0, 76, 98
2, 116542, Control_c, 0, 64, 127
2, 116633, Note_on_c, 0, 76, 0
2, 116640, Note_on_c, 0, 74, 76
2, 116641, Control_c, 0, 64, 0
2, 116658, Control_c, 0, 64, 127
2, 116708, Note_on_c, 0, 74, 0
2, 116719, Control_c, 0, 64, 0
2, 116760, Note_on_c, 0, 79, 80
2, 116812, Control_c, 0, 64, 127
2, 116848, Note_on_c, 0, 79, 0
2, 116850, Note_on_c, 0, 81, 68
2, 116861, Control_c, 0, 64, 0
2, 116864, Note_on_c, 0, 81, 0
2, 116865, Note_on_c, 0, 78, 52
2, 116880, Note_on_c, 0, 79, 62
2, 116881, Note_on_c, 0, 78, 0
2, 116895, Control_c, 0, 64, 127
2, 116947, Control_c, 0, 64, 0
2, 116949, Note_on_c, 0, 79, 0
2, 117240, Note_on_c, 0, 79, 89
2, 117245, Control_c, 0, 64, 127
2, 117330, Note_on_c, 0, 81, 80
2, 117335, Control_c, 0, 64, 0
2, 117338, Note_on_c, 0, 79, 0
2, 117345, Note_on_c, 0, 78, 60
2, 117348, Note_on_c, 0, 81, 0
2, 117357, Note_on_c, 0, 78, 0
2, 117360, Note_on_c, 0, 79, 98
2, 117391, Control_c, 0, 64, 127
2, 117430, Note_on_c, 0, 79, 0
2, 117484, Control_c, 0, 64, 0
2, 117720, Note_on_c, 0, 84, 93
2, 117729, Control_c, 0, 64, 127
2, 117779, Note_on_c, 0, 84, 0
2, 117780, Note_on_c, 0, 76, 76
2, 117780, Control_c, 0, 64, 0
2, 117796, Control_c, 0, 64, 127
2, 117840, Note_on_c, 0, 77, 85
2, 117840, Control_c, 0, 64, 0
2, 117841, Note_on_c, 0, 76, 0
2, 117856, Control_c, 0, 64, 127
2, 117898, Control_c, 0, 64, 0
2, 117900, Note_on_c, 0, 77, 0
2, 117900, Note_on_c, 0, 80, 85
2, 117911, Control_c, 0, 64, 127
2, 117958, Control_c, 0, 64, 0
2, 117960, Note_on_c, 0, 80, 0
2, 117960, Note_on_c, 0, 74, 80
2, 117975, Control_c, 0, 64, 127
2, 118027, Control_c, 0, 64, 0
2, 118050, Note_on_c, 0, 76, 89
2, 118052, Note_on_c, 0, 74, 0
2, 118057, Note_on_c, 0, 76, 0
2, 118080, Note_on_c, 0, 77, 89
2, 118091, Note_on_c, 0, 77, 0
2, 118110, Note_on_c, 0, 79, 85
2, 118119, Note_on_c, 0, 79, 0
2, 118140, Note_on_c, 0, 81, 76
2, 118150, Note_on_c, 0, 81, 0
2, 118170, Note_on_c, 0, 83, 93
2, 118180, Note_on_c, 0, 83, 0
2, 118200, Note_on_c, 0, 84, 89
2, 118217, Control_c, 0, 64, 127
2, 118258, Note_on_c, 0, 84, 0
2, 118260, Note_on_c, 0, 76, 72
2, 118267, Control_c, 0, 64, 0
2, 118282, Control_c, 0, 64, 127
2, 118318, Control_c, 0, 64, 0
2, 118319, Note_on_c, 0, 76, 0
2, 118320, Note_on_c, 0, 77, 76
2, 118335, Control_c, 0, 64, 127
2, 118378, Control_c, 0, 64, 0
2, 118380, Note_on_c, 0, 80, 76
2, 118381, Note_on_c, 0, 77, 0
2, 118395, Control_c, 0, 64, 127
2, 118437, Control_c, 0, 64, 0
2, 118438, Note_on_c, 0, 80, 0
2, 118440, Note_on_c, 0, 74, 76
2, 118457, Control_c, 0, 64, 127
2, 118507, Control_c, 0, 64, 0
2, 118521, Control_c, 0, 64, 127
2, 118530, Note_on_c, 0, 76, 89
2, 118534, Note_on_c, 0, 74, 0
2, 118540, Note_on_c, 0, 76, 0
2, 118541, Control_c, 0, 64, 0
2, 118560, Note_on_c, 0, 77, 89
2, 118571, Note_on_c, 0, 77, 0
2, 118590, Note_on_c, 0, 79, 80
2, 118600, Note_on_c, 0, 79, 0
2, 118620, Note_on_c, 0, 81, 89
2, 118629, Note_on_c, 0, 81, 0
2, 118650, Note_on_c, 0, 83, 93
2, 118659, Note_on_c, 0, 83, 0
2, 118680, Note_on_c, 0, 84, 93
2, 118686, Control_c, 0, 64, 127
2, 118710, Note_on_c, 0, 83, 93
2, 118715, Note_on_c, 0, 84, 0
2, 118735, Note_on_c, 0, 83, 0
2, 118737, Control_c, 0, 64, 0
2, 118740, Note_on_c, 0, 81, 89
2, 118749, Note_on_c, 0, 81, 0
2, 118772, Note_on_c, 0, 79, 89
2, 118779, Note_on_c, 0, 79, 0
2, 118800, Note_on_c, 0, 81, 85
2, 118803, Control_c, 0, 64, 127
2, 118806, Note_on_c, 0, 81, 0
2, 118807, Note_on_c, 0, 79, 72
2, 118813, Note_on_c, 0, 79, 0
2, 118814, Note_on_c, 0, 81, 76
2, 118820, Note_on_c, 0, 81, 0
2, 118821, Note_on_c, 0, 79, 80
2, 118827, Note_on_c, 0, 79, 0
2, 118828, Note_on_c, 0, 77, 85
2, 118845, Control_c, 0, 64, 0
2, 118857, Note_on_c, 0, 77, 0
2, 118858, Note_on_c, 0, 79, 76
2, 118864, Note_on_c, 0, 79, 0
2, 118865, Note_on_c, 0, 77, 89
2, 118870, Control_c, 0, 64, 127
2, 118871, Note_on_c, 0, 77, 0
2, 118872, Note_on_c, 0, 79, 80
2, 118878, Note_on_c, 0, 79, 0
2, 118879, Note_on_c, 0, 77, 89
2, 118885, Note_on_c, 0, 77, 0
2, 118886, Note_on_c, 0, 76, 93
2, 118901, Control_c, 0, 64, 0
2, 118915, Note_on_c, 0, 76, 0
2, 118920, Note_on_c, 0, 76, 98
2, 118935, Control_c, 0, 64, 127
2, 119038, Note_on_c, 0, 76, 0
2, 119040, Note_on_c, 0, 74, 80
2, 119041, Control_c, 0, 64, 0
2, 119056, Control_c, 0, 64, 127
2, 119102, Note_on_c, 0, 74, 0
2, 119114, Control_c, 0, 64, 0
2, 119160, Note_on_c, 0, 79, 93
2, 119160, Note_on_c, 0, 74, 93
2, 119160, Note_on_c, 0, 83, 93
2, 119164, Control_c, 0, 64, 127
2, 119215, Note_on_c, 0, 74, 0
2, 119216, Note_on_c, 0, 79, 0
2, 119218, Note_on_c, 0, 83, 0
2, 119219, Control_c, 0, 64, 0
2, 119400, Note_on_c, 0, 84, 93
2, 119400, Note_on_c, 0, 76, 93
2, 119400, Note_on_c, 0, 79, 98
2, 119401, Control_c, 0, 64, 127
2, 119459, Control_c, 0, 64, 0
2, 119460, Note_on_c, 0, 76, 0
2, 119462, Note_on_c, 0, 79, 0
2, 119463, Note_on_c, 0, 84, 0
2, 119636, Control_c, 0, 64, 127
2, 119640, Note_on_c, 0, 86, 102
2, 119640, Note_on_c, 0, 77, 98
2, 119640, Note_on_c, 0, 79, 98
2, 119691, Note_on_c, 0, 79, 0
2, 119692, Control_c, 0, 64, 0
2, 119693, Note_on_c, 0, 77, 0
2, 119695, Note_on_c, 0, 86, 0
2, 119759, Control_c, 0, 64, 127
2, 119760, Note_on_c, 0, 76, 89
2, 119760, Note_on_c, 0, 84, 85
2, 119760, Note_on_c, 0, 79, 89
2, 119822, Control_c, 0, 64, 0
2, 119823, Note_on_c, 0, 84, 0
2, 119824, Note_on_c, 0, 79, 0
2, 119825, Note_on_c, 0, 76, 0
2, 119880, Note_on_c, 0, 79, 89
2, 119880, Note_on_c, 0, 74, 89
2, 119880, Note_on_c, 0, 83, 93
2, 119881, Control_c, 0, 64, 127
2, 119944, Control_c, 0, 64, 0
2, 119946, Note_on_c, 0, 83, 0
2, 119946, Note_on_c, 0, 74, 0
2, 119946, Note_on_c, 0, 79, 0
2, 120120, Control_c, 0, 64, 127
2, 120120, Note_on_c, 0, 79, 89
2, 120120, Note_on_c, 0, 74, 89
2, 120120, Note_on_c, 0, 83, 89
2, 120179, Note_on_c, 0, 74, 0
2, 120179, Control_c, 0, 64, 0
2, 120182, Note_on_c, 0, 83, 0
2, 120183, Note_on_c, 0, 79, 0
2, 120357, Control_c, 0, 64, 127
2, 120360, Note_on_c, 0, 84, 85
2, 120360, Note_on_c, 0, 76, 89
2, 120360, Note_on_c, 0, 79, 93
2, 120415, Control_c, 0, 64, 0
2, 120422, Note_on_c, 0, 76, 0
2, 120424, Note_on_c, 0, 79, 0
2, 120424, Note_on_c, 0, 84, 0
2, 120593, Control_c, 0, 64, 127
2, 120600, Note_on_c, 0, 86, 89
2, 120600, Note_on_c, 0, 77, 80
2, 120600, Note_on_c, 0, 79, 93
2, 120659, Control_c, 0, 64, 0
2, 120661, Note_on_c, 0, 79, 0
2, 120661, Note_on_c, 0, 77, 0
2, 120664, Note_on_c, 0, 86, 0
2, 120720, Note_on_c, 0, 76, 89
2, 120720, Note_on_c, 0, 79, 93
2, 120720, Note_on_c, 0, 84, 89
2, 120724, Control_c, 0, 64, 127
2, 120781, Control_c, 0, 64, 0
2, 120783, Note_on_c, 0, 84, 0
2, 120783, Note_on_c, 0, 76, 0
2, 120784, Note_on_c, 0, 79, 0
2, 120840, Note_on_c, 0, 74, 76
2, 120840, Note_on_c, 0, 79, 89
2, 120840, Note_on_c, 0, 83, 89
2, 120846, Control_c, 0, 64, 127
2, 120900, Note_on_c, 0, 79, 0
2, 120900, Note_on_c, 0, 74, 0
2, 120901, Note_on_c, 0, 83, 0
2, 120903, Control_c, 0, 64, 0
2, 120960, Note_on_c, 0, 74, 80
2, 120960, Note_on_c, 0, 79, 93
2, 120960, Note_on_c, 0, 83, 85
2, 120967, Control_c, 0, 64, 127
2, 121018, Note_on_c, 0, 79, 0
2, 121018, Note_on_c, 0, 74, 0
2, 121019, Note_on_c, 0, 83, 0
2, 121023, Control_c, 0, 64, 0
2, 121080, Note_on_c, 0, 79, 93
2, 121080, Note_on_c, 0, 74, 89
2, 121080, Note_on_c, 0, 86, 102
2, 121086, Control_c, 0, 64, 127
2, 121143, Note_on_c, 0, 74, 0
2, 121144, Note_on_c, 0, 79, 0
2, 121145, Note_on_c, 0, 86, 0
2, 121148, Control_c, 0, 64, 0
2, 121440, Note_on_c, 0, 74, 89
2, 121440, Note_on_c, 0, 79, 89
2, 121440, Note_on_c, 0, 83, 89
2, 121447, Control_c, 0, 64, 127
2, 121501, Note_on_c, 0, 83, 0
2, 121501, Note_on_c, 0, 74, 0
2, 121502, Note_on_c, 0, 79, 0
2, 121502, Control_c, 0, 64, 0
2, 121560, Control_c, 0, 64, 127
2, 121560, Note_on_c, 0, 74, 89
2, 121560, Note_on_c, 0, 86, 98
2, 121560, Note_on_c, 0, 79, 98
2, 121624, Control_c, 0, 64, 0
2, 121626, Note_on_c, 0, 79, 0
2, 121626, Note_on_c, 0, 86, 0
2, 121628, Note_on_c, 0, 74, 0
2, 121920, Note_on_c, 0, 79, 93
2, 121920, Note_on_c, 0, 71, 89
2, 121920, Note_on_c, 0, 74, 93
2, 121924, Control_c, 0, 64, 127
2, 121977, Note_on_c, 0, 74, 0
2, 121977, Note_on_c, 0, 71, 0
2, 121977, Note_on_c, 0, 79, 0
2, 121987, Control_c, 0, 64, 0
2, 122040, Note_on_c, 0, 79, 89
2, 122040, Note_on_c, 0, 74, 85
2, 122040, Note_on_c, 0, 83, 98
2, 122044, Control_c, 0, 64, 127
2, 122096, Note_on_c, 0, 74, 0
2, 122097, Note_on_c, 0, 83, 0
2, 122097, Note_on_c, 0, 79, 0
2, 122105, Control_c, 0, 64, 0
2, 122160, Note_on_c, 0, 79, 80
2, 122160, Note_on_c, 0, 83, 89
2, 122160, Note_on_c, 0, 86, 93
2, 122161, Control_c, 0, 64, 127
2, 122219, Control_c, 0, 64, 0
2, 122220, Note_on_c, 0, 86, 0
2, 122220, Note_on_c, 0, 83, 0
2, 122221, Note_on_c, 0, 79, 0
2, 122280, Note_on_c, 0, 79, 89
2, 122280, Note_on_c, 0, 86, 93
2, 122280, Note_on_c, 0, 89, 93
2, 122280, Note_on_c, 0, 83, 98
2, 122283, Control_c, 0, 64, 127
2, 122339, Note_on_c, 0, 83, 0
2, 122339, Note_on_c, 0, 86, 0
2, 122340, Note_on_c, 0, 79, 0
2, 122341, Note_on_c, 0, 89, 0
2, 122345, Control_c, 0, 64, 0
2, 123240, Note_on_c, 0, 71, 98
2, 123259, Note_on_c, 0, 71, 0
2, 123260, Note_on_c, 0, 74, 80
2, 123279, Note_on_c, 0, 74, 0
2, 123280, Note_on_c, 0, 79, 76
2, 123299, Note_on_c, 0, 79, 0
2, 123300, Control_c, 0, 64, 0
2, 123300, Note_on_c, 0, 70, 93
2, 123300, Control_c, 0, 64, 127
2, 123319, Note_on_c, 0, 70, 0
2, 123320, Note_on_c, 0, 73, 80
2, 123339, Note_on_c, 0, 73, 0
2, 123340, Note_on_c, 0, 79, 80
2, 123359, Note_on_c, 0, 79, 0
2, 123360, Control_c, 0, 64, 0
2, 123360, Note_on_c, 0, 71, 102
2, 123360, Control_c, 0, 64, 127
2, 123379, Note_on_c, 0, 71, 0
2, 123380, Note_on_c, 0, 74, 80
2, 123399, Note_on_c, 0, 74, 0
2, 123400, Note_on_c, 0, 79, 80
2, 123419, Note_on_c, 0, 79, 0
2, 123420, Note_on_c, 0, 72, 98
2, 123420, Control_c, 0, 64, 0
2, 123420, Control_c, 0, 64, 127
2, 123439, Note_on_c, 0, 72, 0
2, 123440, Note_on_c, 0, 76, 76
2, 123459, Note_on_c, 0, 76, 0
2, 123460, Note_on_c, 0, 79, 93
2, 123479, Note_on_c, 0, 79, 0
2, 123480, Control_c, 0, 64, 0
2, 123480, Note_on_c, 0, 74, 98
2, 123480, Control_c, 0, 64, 127
2, 123499, Note_on_c, 0, 74, 0
2, 123500, Note_on_c, 0, 77, 72
2, 123519, Note_on_c, 0, 77, 0
2, 123520, Note_on_c, 0, 79, 64
2, 123539, Note_on_c, 0, 79, 0
2, 123540, Control_c, 0, 64, 0
2, 123540, Note_on_c, 0, 73, 98
2, 123540, Control_c, 0, 64, 127
2, 123559, Note_on_c, 0, 73, 0
2, 123560, Note_on_c, 0, 76, 72
2, 123579, Note_on_c, 0, 76, 0
2, 123580, Note_on_c, 0, 79, 72
2, 123599, Note_on_c, 0, 79, 0
2, 123600, Control_c, 0, 64, 0
2, 123600, Note_on_c, 0, 74, 93
2, 123600, Control_c, 0, 64, 127
2, 123619, Note_on_c, 0, 74, 0
2, 123620, Note_on_c, 0, 77, 72
2, 123639, Note_on_c, 0, 77, 0
2, 123640, Note_on_c, 0, 79, 72
2, 123659, Note_on_c, 0, 79, 0
2, 123660, Control_c, 0, 64, 0
2, 123660, Note_on_c, 0, 73, 89
2, 123660, Control_c, 0, 64, 127
2, 123679, Note_on_c, 0, 73, 0
2, 123680, Note_on_c, 0, 76, 89
2, 123699, Note_on_c, 0, 76, 0
2, 123700, Note_on_c, 0, 79, 76
2, 123719, Note_on_c, 0, 79, 0
2, 123720, Control_c, 0, 64, 0
2, 123720, Note_on_c, 0, 79, 93
2, 123720, Note_on_c, 0, 74, 93
2, 123720, Note_on_c, 0, 77, 93
2, 123720, Control_c, 0, 64, 127
2, 123779, Note_on_c, 0, 77, 0
2, 123779, Note_on_c, 0, 74, 0
2, 123779, Note_on_c, 0, 79, 0
2, 123780, Control_c, 0, 64, 0
2, 123780, Note_on_c, 0, 89, 89
2, 123798, Control_c, 0, 64, 127
2, 123896, Note_on_c, 0, 89, 0
2, 123897, Control_c, 0, 64, 0
2, 123900, Note_on_c, 0, 88, 93
2, 123915, Control_c, 0, 64, 127
2, 123930, Note_on_c, 0, 86, 89
2, 123933, Note_on_c, 0, 88, 0
2, 123935, Control_c, 0, 64, 0
2, 123960, Note_on_c, 0, 84, 89
2, 123962, Note_on_c, 0, 86, 0
2, 123966, Control_c, 0, 64, 127
2, 123990, Note_on_c, 0, 83, 89
2, 123991, Note_on_c, 0, 84, 0
2, 124005, Control_c, 0, 64, 0
2, 124020, Note_on_c, 0, 88, 93
2, 124023, Note_on_c, 0, 83, 0
2, 124031, Control_c, 0, 64, 127
2, 124050, Note_on_c, 0, 86, 89
2, 124051, Note_on_c, 0, 88, 0
2, 124059, Control_c, 0, 64, 0
2, 124080, Note_on_c, 0, 84, 89
2, 124083, Note_on_c, 0, 86, 0
2, 124088, Control_c, 0, 64, 127
2, 124110, Note_on_c, 0, 83, 89
2, 124113, Note_on_c, 0, 84, 0
2, 124114, Control_c, 0, 64, 0
2, 124130, Control_c, 0, 64, 127
2, 124140, Note_on_c, 0, 83, 0
2, 124140, Note_on_c, 0, 81, 72
2, 124169, Note_on_c, 0, 81, 0
2, 124170, Note_on_c, 0, 79, 76
2, 124191, Note_on_c, 0, 79, 0
2, 124196, Control_c, 0, 64, 0
2, 124200, Note_on_c, 0, 79, 80
2, 124217, Control_c, 0, 64, 127
2, 124289, Note_on_c, 0, 79, 0
2, 124290, Note_on_c, 0, 81, 76
2, 124305, Note_on_c, 0, 78, 55
2, 124313, Note_on_c, 0, 81, 0
2, 124314, Control_c, 0, 64, 0
2, 124320, Note_on_c, 0, 79, 80
2, 124326, Note_on_c, 0, 78, 0
2, 124414, Note_on_c, 0, 79, 0
2, 124680, Note_on_c, 0, 79, 89
2, 124691, Control_c, 0, 64, 127
2, 124763, Note_on_c, 0, 79, 0
2, 124770, Note_on_c, 0, 81, 89
2, 124779, Control_c, 0, 64, 0
2, 124785, Note_on_c, 0, 78, 59
2, 124793, Note_on_c, 0, 81, 0
2, 124800, Note_on_c, 0, 79, 93
2, 124805, Note_on_c, 0, 78, 0
2, 124873, Note_on_c, 0, 79, 0
2, 125160, Note_on_c, 0, 84, 85
2, 125164, Control_c, 0, 64, 127
2, 125220, Note_on_c, 0, 84, 0
2, 125220, Note_on_c, 0, 76, 85
2, 125221, Control_c, 0, 64, 0
2, 125240, Control_c, 0, 64, 127
2, 125280, Control_c, 0, 64, 0
2, 125280, Note_on_c, 0, 77, 85
2, 125283, Note_on_c, 0, 76, 0
2, 125297, Control_c, 0, 64, 127
2, 125337, Control_c, 0, 64, 0
2, 125340, Note_on_c, 0, 80, 85
2, 125342, Note_on_c, 0, 77, 0
2, 125355, Control_c, 0, 64, 127
2, 125399, Note_on_c, 0, 80, 0
2, 125399, Control_c, 0, 64, 0
2, 125400, Note_on_c, 0, 74, 85
2, 125419, Control_c, 0, 64, 127
2, 125459, Control_c, 0, 64, 0
2, 125474, Control_c, 0, 64, 127
2, 125489, Note_on_c, 0, 74, 0
2, 125490, Note_on_c, 0, 76, 85
2, 125498, Control_c, 0, 64, 0
2, 125500, Note_on_c, 0, 76, 0
2, 125520, Note_on_c, 0, 77, 89
2, 125532, Note_on_c, 0, 77, 0
2, 125550, Note_on_c, 0, 79, 76
2, 125561, Note_on_c, 0, 79, 0
2, 125580, Note_on_c, 0, 81, 89
2, 125590, Note_on_c, 0, 81, 0
2, 125610, Note_on_c, 0, 83, 89
2, 125621, Note_on_c, 0, 83, 0
2, 125640, Note_on_c, 0, 84, 76
2, 125655, Control_c, 0, 64, 127
2, 125699, Note_on_c, 0, 84, 0
2, 125700, Note_on_c, 0, 76, 76
2, 125705, Control_c, 0, 64, 0
2, 125720, Control_c, 0, 64, 127
2, 125756, Control_c, 0, 64, 0
2, 125757, Note_on_c, 0, 76, 0
2, 125760, Note_on_c, 0, 77, 89
2, 125770, Control_c, 0, 64, 127
2, 125810, Control_c, 0, 64, 0
2, 125820, Note_on_c, 0, 80, 85
2, 125822, Note_on_c, 0, 77, 0
2, 125825, Control_c, 0, 64, 127
2, 125871, Control_c, 0, 64, 0
2, 125879, Note_on_c, 0, 80, 0
2, 125880, Note_on_c, 0, 74, 85
2, 125892, Control_c, 0, 64, 127
2, 125970, Note_on_c, 0, 74, 0
2, 125970, Note_on_c, 0, 76, 93
2, 125973, Control_c, 0, 64, 0
2, 125978, Note_on_c, 0, 76, 0
2, 126000, Note_on_c, 0, 77, 93
2, 126012, Note_on_c, 0, 77, 0
2, 126030, Note_on_c, 0, 79, 85
2, 126041, Note_on_c, 0, 79, 0
2, 126060, Note_on_c, 0, 81, 89
2, 126070, Note_on_c, 0, 81, 0
2, 126090, Note_on_c, 0, 83, 93
2, 126100, Note_on_c, 0, 83, 0
2, 126120, Note_on_c, 0, 84, 76
2, 126149, Note_on_c, 0, 84, 0
2, 126150, Note_on_c, 0, 83, 76
2, 126179, Note_on_c, 0, 83, 0
2, 126180, Note_on_c, 0, 81, 80
2, 126194, Note_on_c, 0, 81, 0
2, 126210, Note_on_c, 0, 79, 85
2, 126224, Note_on_c, 0, 79, 0
2, 126240, Note_on_c, 0, 81, 89
2, 126246, Note_on_c, 0, 81, 0
2, 126247, Note_on_c, 0, 79, 89
2, 126253, Note_on_c, 0, 79, 0
2, 126254, Note_on_c, 0, 81, 76
2, 126260, Note_on_c, 0, 81, 0
2, 126261, Note_on_c, 0, 79, 76
2, 126267, Note_on_c, 0, 79, 0
2, 126268, Note_on_c, 0, 77, 89
2, 126297, Note_on_c, 0, 77, 0
2, 126298, Note_on_c, 0, 77, 89
2, 126304, Note_on_c, 0, 77, 0
2, 126305, Note_on_c, 0, 76, 89
2, 126311, Note_on_c, 0, 76, 0
2, 126312, Note_on_c, 0, 77, 89
2, 126318, Note_on_c, 0, 77, 0
2, 126319, Note_on_c, 0, 76, 93
2, 126325, Note_on_c, 0, 76, 0
2, 126326, Note_on_c, 0, 74, 89
2, 126355, Note_on_c, 0, 74, 0
2, 126360, Note_on_c, 0, 72, 93
2, 126373, Control_c, 0, 64, 127
2, 126418, Note_on_c, 0, 72, 0
2, 126419, Control_c, 0, 64, 0
2, 126600, Note_on_c, 0, 88, 93
2, 126600, Note_on_c, 0, 80, 93
2, 126600, Note_on_c, 0, 83, 93
2, 126600, Note_on_c, 0, 76, 93
2, 126610, Control_c, 0, 64, 127
2, 126669, Note_on_c, 0, 80, 0
2, 126669, Note_on_c, 0, 88, 0
2, 126670, Note_on_c, 0, 83, 0
2, 126672, Note_on_c, 0, 76, 0
2, 126677, Control_c, 0, 64, 0
2, 126840, Note_on_c, 0, 84, 93
2, 126840, Note_on_c, 0, 76, 98
2, 126840, Note_on_c, 0, 81, 98
2, 126840, Note_on_c, 0, 72, 85
2, 126856, Control_c, 0, 64, 127
2, 126908, Note_on_c, 0, 81, 0
2, 126909, Note_on_c, 0, 72, 0
2, 126909, Note_on_c, 0, 76, 0
2, 126911, Note_on_c, 0, 84, 0
2, 126912, Control_c, 0, 64, 0
2, 127080, Note_on_c, 0, 78, 89
2, 127080, Note_on_c, 0, 81, 93
2, 127080, Note_on_c, 0, 74, 98
2, 127080, Note_on_c, 0, 86, 107
2, 127086, Control_c, 0, 64, 127
2, 127145, Note_on_c, 0, 86, 0
2, 127145, Control_c, 0, 64, 0
2, 127146, Note_on_c, 0, 81, 0
2, 127147, Note_on_c, 0, 78, 0
2, 127150, Note_on_c, 0, 74, 0
2, 127320, Note_on_c, 0, 74, 98
2, 127320, Note_on_c, 0, 83, 93
2, 127320, Note_on_c, 0, 79, 93
2, 127320, Note_on_c, 0, 71, 89
2, 127335, Control_c, 0, 64, 127
2, 127377, Note_on_c, 0, 71, 0
2, 127378, Note_on_c, 0, 74, 0
2, 127379, Note_on_c, 0, 79, 0
2, 127381, Note_on_c, 0, 83, 0
2, 127381, Control_c, 0, 64, 0
2, 127560, Note_on_c, 0, 85, 98
2, 127560, Note_on_c, 0, 76, 102
2, 127560, Note_on_c, 0, 81, 102
2, 127560, Note_on_c, 0, 79, 98
2, 127560, Note_on_c, 0, 64, 93
2, 127560, Note_on_c, 0, 73, 89
2, 127560, Note_on_c, 0, 67, 93
2, 127560, Note_on_c, 0, 69, 93
2, 127575, Control_c, 0, 64, 127
2, 127614, Control_c, 0, 64, 0
2, 127624, Note_on_c, 0, 69, 0
2, 127624, Note_on_c, 0, 67, 0
2, 127624, Note_on_c, 0, 85, 0
2, 127625, Note_on_c, 0, 79, 0
2, 127625, Note_on_c, 0, 81, 0
2, 127627, Note_on_c, 0, 64, 0
2, 127628, Note_on_c, 0, 73, 0
2, 127630, Note_on_c, 0, 76, 0
2, 127800, Note_on_c, 0, 84, 98
2, 127800, Note_on_c, 0, 78, 89
2, 127800, Note_on_c, 0, 66, 80
2, 127800, Note_on_c, 0, 62, 98
2, 127800, Note_on_c, 0, 74, 98
2, 127800, Note_on_c, 0, 81, 102
2, 127800, Note_on_c, 0, 72, 85
2, 127800, Note_on_c, 0, 69, 102
2, 127808, Control_c, 0, 64, 127
2, 127859, Note_on_c, 0, 69, 0
2, 127859, Note_on_c, 0, 84, 0
2, 127859, Note_on_c, 0, 74, 0
2, 127859, Note_on_c, 0, 78, 0
2, 127859, Note_on_c, 0, 66, 0
2, 127859, Note_on_c, 0, 62, 0
2, 127859, Note_on_c, 0, 81, 0
2, 127859, Note_on_c, 0, 72, 0
2, 127869, Control_c, 0, 64, 0
2, 128250, Note_on_c, 0, 86, 85
2, 128250, Note_on_c, 0, 74, 85
2, 128265, Note_on_c, 0, 84, 76
2, 128265, Note_on_c, 0, 72, 76
2, 128267, Note_on_c, 0, 74, 0
2, 128267, Note_on_c, 0, 86, 0
2, 128280, Note_on_c, 0, 83, 76
2, 128280, Note_on_c, 0, 71, 76
2, 128283, Note_on_c, 0, 84, 0
2, 128283, Note_on_c, 0, 72, 0
2, 128315, Note_on_c, 0, 83, 0
2, 128315, Note_on_c, 0, 71, 0
2, 128400, Note_on_c, 0, 81, 80
2, 128400, Note_on_c, 0, 69, 80
2, 128402, Control_c, 0, 64, 127
2, 128402, Control_c, 0, 64, 127
2, 128440, Note_on_c, 0, 69, 0
2, 128440, Note_on_c, 0, 81, 0
2, 128449, Control_c, 0, 64, 0
2, 128449, Control_c, 0, 64, 0
2, 128520, Note_on_c, 0, 79, 93
2, 128520, Note_on_c, 0, 67, 93
2, 128521, Control_c, 0, 64, 127
2, 128521, Control_c, 0, 64, 127
2, 128568, Note_on_c, 0, 67, 0
2, 128568, Note_on_c, 0, 79, 0
2, 128578, Control_c, 0, 64, 0
2, 128578, Control_c, 0, 64, 0
2, 128701, Control_c, 0, 64, 127
2, 128701, Control_c, 0, 64, 127
2, 128730, Note_on_c, 0, 83, 89
2, 128730, Note_on_c, 0, 71, 89
2, 128739, Note_on_c, 0, 71, 0
2, 128739, Note_on_c, 0, 83, 0
2, 128740, Note_on_c, 0, 81, 64
2, 128740, Note_on_c, 0, 69, 64
2, 128749, Note_on_c, 0, 69, 0
2, 128749, Note_on_c, 0, 81, 0
2, 128750, Note_on_c, 0, 79, 80
2, 128750, Note_on_c, 0, 67, 80
2, 128755, Control_c, 0, 64, 0
2, 128755, Control_c, 0, 64, 0
2, 128759, Note_on_c, 0, 67, 0
2, 128759, Note_on_c, 0, 79, 0
2, 128760, Note_on_c, 0, 78, 80
2, 128760, Note_on_c, 0, 66, 80
2, 128819, Note_on_c, 0, 66, 0
2, 128819, Note_on_c, 0, 78, 0
2, 128832, Control_c, 0, 64, 127
2, 128832, Control_c, 0, 64, 127
2, 128850, Note_on_c, 0, 81, 85
2, 128850, Note_on_c, 0, 69, 85
2, 128859, Note_on_c, 0, 69, 0
2, 128859, Note_on_c, 0, 81, 0
2, 128860, Note_on_c, 0, 79, 76
2, 128860, Note_on_c, 0, 67, 76
2, 128867, Control_c, 0, 64, 0
2, 128867, Control_c, 0, 64, 0
2, 128869, Note_on_c, 0, 67, 0
2, 128869, Note_on_c, 0, 79, 0
2, 128870, Note_on_c, 0, 78, 89
2, 128870, Note_on_c, 0, 66, 89
2, 128879, Note_on_c, 0, 66, 0
2, 128879, Note_on_c, 0, 78, 0
2, 128880, Note_on_c, 0, 76, 76
2, 128880, Note_on_c, 0, 64, 76
2, 128892, Control_c, 0, 64, 127
2, 128892, Control_c, 0, 64, 127
2, 128912, Control_c, 0, 64, 0
2, 128912, Control_c, 0, 64, 0
2, 128939, Note_on_c, 0, 64, 0
2, 128939, Note_on_c, 0, 76, 0
2, 128945, Control_c, 0, 64, 127
2, 128945, Control_c, 0, 64, 127
2, 128970, Note_on_c, 0, 79, 80
2, 128970, Note_on_c, 0, 67, 80
2, 128971, Control_c, 0, 64, 0
2, 128971, Control_c, 0, 64, 0
2, 128979, Note_on_c, 0, 67, 0
2, 128979, Note_on_c, 0, 79, 0
2, 128980, Note_on_c, 0, 78, 72
2, 128980, Note_on_c, 0, 66, 72
2, 128989, Note_on_c, 0, 66, 0
2, 128989, Note_on_c, 0, 78, 0
2, 128990, Note_on_c, 0, 76, 85
2, 128990, Note_on_c, 0, 64, 85
2, 128999, Note_on_c, 0, 64, 0
2, 128999, Note_on_c, 0, 76, 0
2, 129000, Note_on_c, 0, 74, 85
2, 129000, Note_on_c, 0, 74, 85
2, 129000, Note_on_c, 0, 62, 85
2, 129000, Note_on_c, 0, 62, 85
2, 129008, Control_c, 0, 64, 127
2, 129008, Control_c, 0, 64, 127
2, 129045, Note_on_c, 0, 62, 0
2, 129045, Note_on_c, 0, 74, 0
2, 129047, Control_c, 0, 64, 0
2, 129047, Control_c, 0, 64, 0
2, 129059, Note_on_c, 0, 74, 0
2, 129059, Note_on_c, 0, 62, 0
2, 129210, Note_on_c, 0, 74, 76
2, 129210, Note_on_c, 0, 62, 76
2, 129237, Note_on_c, 0, 62, 0
2, 129237, Note_on_c, 0, 74, 0
2, 129240, Note_on_c, 0, 76, 93
2, 129240, Note_on_c, 0, 64, 93
2, 129300, Note_on_c, 0, 78, 80
2, 129300, Note_on_c, 0, 66, 80
2, 129306, Note_on_c, 0, 66, 0
2, 129306, Note_on_c, 0, 78, 0
2, 129307, Note_on_c, 0, 76, 80
2, 129307, Note_on_c, 0, 64, 80
2, 129313, Note_on_c, 0, 64, 0
2, 129313, Note_on_c, 0, 76, 0
2, 129314, Note_on_c, 0, 75, 64
2, 129314, Note_on_c, 0, 63, 64
2, 129320, Note_on_c, 0, 63, 0
2, 129320, Note_on_c, 0, 75, 0
2, 129321, Note_on_c, 0, 76, 89
2, 129321, Note_on_c, 0, 64, 89
2, 129327, Note_on_c, 0, 64, 0
2, 129327, Note_on_c, 0, 76, 0
2, 129328, Note_on_c, 0, 64, 0
2, 129328, Note_on_c, 0, 76, 0
2, 129330, Note_on_c, 0, 78, 85
2, 129330, Note_on_c, 0, 66, 85
2, 129344, Note_on_c, 0, 66, 0
2, 129344, Note_on_c, 0, 78, 0
2, 129360, Note_on_c, 0, 79, 93
2, 129360, Note_on_c, 0, 67, 93
2, 129369, Note_on_c, 0, 67, 0
2, 129369, Note_on_c, 0, 79, 0
2, 129390, Note_on_c, 0, 81, 98
2, 129390, Note_on_c, 0, 69, 98
2, 129398, Note_on_c, 0, 69, 0
2, 129398, Note_on_c, 0, 81, 0
2, 129420, Note_on_c, 0, 83, 89
2, 129420, Note_on_c, 0, 71, 89
2, 129428, Note_on_c, 0, 71, 0
2, 129428, Note_on_c, 0, 83, 0
2, 129450, Note_on_c, 0, 84, 89
2, 129450, Note_on_c, 0, 72, 89
2, 129459, Note_on_c, 0, 72, 0
2, 129459, Note_on_c, 0, 84, 0
2, 129480, Note_on_c, 0, 86, 93
2, 129480, Note_on_c, 0, 74, 93
2, 129482, Control_c, 0, 64, 127
2, 129482, Control_c, 0, 64, 127
2, 129547, Control_c, 0, 64, 0
2, 129547, Control_c, 0, 64, 0
2, 129549, Note_on_c, 0, 74, 0
2, 129549, Note_on_c, 0, 86, 0
2, 129690, Note_on_c, 0, 84, 89
2, 129690, Note_on_c, 0, 72, 89
2, 129716, Note_on_c, 0, 72, 0
2, 129716, Note_on_c, 0, 84, 0
2, 129720, Note_on_c, 0, 83, 89
2, 129720, Note_on_c, 0, 71, 89
2, 129779, Note_on_c, 0, 71, 0
2, 129779, Note_on_c, 0, 83, 0
2, 129840, Note_on_c, 0, 83, 89
2, 129840, Note_on_c, 0, 71, 89
2, 129846, Note_on_c, 0, 71, 0
2, 129846, Note_on_c, 0, 83, 0
2, 129847, Note_on_c, 0, 81, 80
2, 129847, Note_on_c, 0, 69, 80
2, 129853, Note_on_c, 0, 69, 0
2, 129853, Note_on_c, 0, 81, 0
2, 129854, Note_on_c, 0, 83, 89
2, 129854, Note_on_c, 0, 71, 89
2, 129860, Note_on_c, 0, 71, 0
2, 129860, Note_on_c, 0, 83, 0
2, 129861, Note_on_c, 0, 81, 80
2, 129861, Note_on_c, 0, 69, 80
2, 129867, Note_on_c, 0, 69, 0
2, 129867, Note_on_c, 0, 81, 0
2, 129870, Note_on_c, 0, 79, 93
2, 129870, Note_on_c, 0, 67, 93
2, 129900, Note_on_c, 0, 67, 0
2, 129900, Note_on_c, 0, 79, 0
2, 129900, Note_on_c, 0, 81, 85
2, 129900, Note_on_c, 0, 69, 85
2, 129929, Note_on_c, 0, 69, 0
2, 129929, Note_on_c, 0, 81, 0
2, 129930, Note_on_c, 0, 83, 93
2, 129930, Note_on_c, 0, 71, 93
2, 129960, Note_on_c, 0, 79, 89
2, 129960, Note_on_c, 0, 67, 89
2, 129962, Note_on_c, 0, 71, 0
2, 129962, Note_on_c, 0, 83, 0
2, 129980, Control_c, 0, 64, 127
2, 129980, Control_c, 0, 64, 127
2, 130025, Note_on_c, 0, 79, 0
2, 130025, Note_on_c, 0, 67, 0
2, 130026, Control_c, 0, 64, 0
2, 130026, Control_c, 0, 64, 0
2, 130170, Note_on_c, 0, 79, 93
2, 130170, Note_on_c, 0, 67, 93
2, 130200, Note_on_c, 0, 67, 0
2, 130200, Note_on_c, 0, 79, 0
2, 130200, Note_on_c, 0, 78, 80
2, 130200, Note_on_c, 0, 66, 80
2, 130205, Control_c, 0, 64, 127
2, 130205, Control_c, 0, 64, 127
2, 130260, Note_on_c, 0, 81, 85
2, 130260, Note_on_c, 0, 69, 85
2, 130261, Control_c, 0, 64, 0
2, 130261, Control_c, 0, 64, 0
2, 130263, Note_on_c, 0, 66, 0
2, 130263, Note_on_c, 0, 78, 0
2, 130289, Control_c, 0, 64, 127
2, 130289, Control_c, 0, 64, 127
2, 130380, Control_c, 0, 64, 0
2, 130380, Note_on_c, 0, 78, 89
2, 130380, Control_c, 0, 64, 0
2, 130380, Note_on_c, 0, 66, 89
2, 130384, Note_on_c, 0, 81, 0
2, 130384, Note_on_c, 0, 69, 0
2, 130395, Control_c, 0, 64, 127
2, 130395, Control_c, 0, 64, 127
2, 130439, Note_on_c, 0, 78, 0
2, 130439, Note_on_c, 0, 66, 0
2, 130440, Note_on_c, 0, 79, 93
2, 130440, Note_on_c, 0, 67, 93
2, 130442, Control_c, 0, 64, 0
2, 130442, Control_c, 0, 64, 0
2, 130466, Control_c, 0, 64, 127
2, 130466, Control_c, 0, 64, 127
2, 130499, Note_on_c, 0, 67, 0
2, 130499, Note_on_c, 0, 79, 0
2, 130500, Note_on_c, 0, 83, 85
2, 130500, Note_on_c, 0, 71, 85
2, 130502, Control_c, 0, 64, 0
2, 130502, Control_c, 0, 64, 0
2, 130518, Control_c, 0, 64, 127
2, 130518, Control_c, 0, 64, 127
2, 130616, Control_c, 0, 64, 0
2, 130616, Control_c, 0, 64, 0
2, 130620, Note_on_c, 0, 71, 0
2, 130620, Note_on_c, 0, 83, 0
2, 130620, Note_on_c, 0, 79, 93
2, 130620, Note_on_c, 0, 67, 93
2, 130628, Control_c, 0, 64, 127
2, 130628, Control_c, 0, 64, 127
2, 130655, Note_on_c, 0, 67, 0
2, 130655, Note_on_c, 0, 79, 0
2, 130679, Control_c, 0, 64, 0
2, 130679, Control_c, 0, 64, 0
2, 130680, Note_on_c, 0, 81, 89
2, 130680, Note_on_c, 0, 69, 89
2, 130695, Note_on_c, 0, 69, 0
2, 130695, Note_on_c, 0, 81, 0
2, 130740, Note_on_c, 0, 86, 98
2, 130740, Note_on_c, 0, 74, 98
2, 130754, Note_on_c, 0, 74, 0
2, 130754, Note_on_c, 0, 86, 0
2, 130800, Note_on_c, 0, 85, 107
2, 130800, Note_on_c, 0, 73, 107
2, 130811, Note_on_c, 0, 73, 0
2, 130811, Note_on_c, 0, 85, 0
2, 130860, Note_on_c, 0, 84, 89
2, 130860, Note_on_c, 0, 72, 89
2, 130873, Note_on_c, 0, 72, 0
2, 130873, Note_on_c, 0, 84, 0
2, 130920, Note_on_c, 0, 83, 93
2, 130920, Note_on_c, 0, 71, 93
2, 130924, Control_c, 0, 64, 127
2, 130924, Control_c, 0, 64, 127
2, 131041, Control_c, 0, 64, 0
2, 131041, Control_c, 0, 64, 0
2, 131044, Note_on_c, 0, 71, 0
2, 131044, Note_on_c, 0, 83, 0
2, 131130, Note_on_c, 0, 79, 93
2, 131130, Note_on_c, 0, 67, 93
2, 131159, Note_on_c, 0, 67, 0
2, 131159, Note_on_c, 0, 79, 0
2, 131160, Note_on_c, 0, 78, 80
2, 131160, Note_on_c, 0, 66, 80
2, 131167, Control_c, 0, 64, 127
2, 131167, Control_c, 0, 64, 127
2, 131220, Note_on_c, 0, 81, 93
2, 131220, Note_on_c, 0, 69, 93
2, 131222, Note_on_c, 0, 66, 0
2, 131222, Note_on_c, 0, 78, 0
2, 131222, Control_c, 0, 64, 0
2, 131222, Control_c, 0, 64, 0
2, 131244, Control_c, 0, 64, 127
2, 131244, Control_c, 0, 64, 127
2, 131339, Control_c, 0, 64, 0
2, 131339, Control_c, 0, 64, 0
2, 131340, Note_on_c, 0, 78, 85
2, 131340, Note_on_c, 0, 66, 85
2, 131341, Note_on_c, 0, 81, 0
2, 131341, Note_on_c, 0, 69, 0
2, 131351, Control_c, 0, 64, 127
2, 131351, Control_c, 0, 64, 127
2, 131400, Note_on_c, 0, 79, 98
2, 131400, Note_on_c, 0, 67, 98
2, 131401, Note_on_c, 0, 78, 0
2, 131401, Note_on_c, 0, 66, 0
2, 131401, Control_c, 0, 64, 0
2, 131401, Control_c, 0, 64, 0
2, 131421, Control_c, 0, 64, 127
2, 131421, Control_c, 0, 64, 127
2, 131459, Note_on_c, 0, 79, 0
2, 131459, Note_on_c, 0, 67, 0
2, 131460, Note_on_c, 0, 83, 93
2, 131460, Note_on_c, 0, 71, 93
2, 131463, Control_c, 0, 64, 0
2, 131463, Control_c, 0, 64, 0
2, 131480, Control_c, 0, 64, 127
2, 131480, Control_c, 0, 64, 127
2, 131578, Control_c, 0, 64, 0
2, 131578, Control_c, 0, 64, 0
2, 131580, Note_on_c, 0, 79, 93
2, 131580, Note_on_c, 0, 67, 93
2, 131581, Note_on_c, 0, 71, 0
2, 131581, Note_on_c, 0, 83, 0
2, 131589, Control_c, 0, 64, 127
2, 131589, Control_c, 0, 64, 127
2, 131640, Note_on_c, 0, 79, 0
2, 131640, Note_on_c, 0, 67, 0
2, 131640, Note_on_c, 0, 81, 93
2, 131640, Note_on_c, 0, 69, 93
2, 131644, Control_c, 0, 64, 0
2, 131644, Control_c, 0, 64, 0
2, 131648, Note_on_c, 0, 69, 0
2, 131648, Note_on_c, 0, 81, 0
2, 131670, Note_on_c, 0, 86, 85
2, 131670, Note_on_c, 0, 74, 85
2, 131679, Note_on_c, 0, 74, 0
2, 131679, Note_on_c, 0, 86, 0
2, 131700, Note_on_c, 0, 85, 85
2, 131700, Note_on_c, 0, 73, 85
2, 131709, Note_on_c, 0, 73, 0
2, 131709, Note_on_c, 0, 85, 0
2, 131730, Note_on_c, 0, 84, 76
2, 131730, Note_on_c, 0, 72, 76
2, 131738, Note_on_c, 0, 72, 0
2, 131738, Note_on_c, 0, 84, 0
2, 131760, Note_on_c, 0, 83, 89
2, 131760, Note_on_c, 0, 71, 89
2, 131769, Note_on_c, 0, 71, 0
2, 131769, Note_on_c, 0, 83, 0
2, 131790, Note_on_c, 0, 86, 85
2, 131790, Note_on_c, 0, 74, 85
2, 131800, Note_on_c, 0, 74, 0
2, 131800, Note_on_c, 0, 86, 0
2, 131820, Note_on_c, 0, 84, 89
2, 131820, Note_on_c, 0, 72, 89
2, 131828, Note_on_c, 0, 72, 0
2, 131828, Note_on_c, 0, 84, 0
2, 131850, Note_on_c, 0, 81, 89
2, 131850, Note_on_c, 0, 69, 89
2, 131862, Note_on_c, 0, 69, 0
2, 131862, Note_on_c, 0, 81, 0
2, 131880, Note_on_c, 0, 79, 85
2, 131880, Note_on_c, 0, 67, 93
2, 131882, Control_c, 0, 64, 127
2, 131966, Note_on_c, 0, 67, 0
2, 132002, Control_c, 0, 64, 0
2, 132004, Note_on_c, 0, 79, 0
2, 132060, Note_on_c, 0, 79, 89
2, 132066, Control_c, 0, 64, 127
2, 132120, Control_c, 0, 64, 0
2, 132120, Note_on_c, 0, 80, 98
2, 132120, Note_on_c, 0, 74, 89
2, 132122, Note_on_c, 0, 79, 0
2, 132139, Control_c, 0, 64, 127
2, 132178, Note_on_c, 0, 80, 0
2, 132180, Note_on_c, 0, 81, 89
2, 132182, Control_c, 0, 64, 0
2, 132241, Control_c, 0, 64, 127
2, 132299, Note_on_c, 0, 81, 0
2, 132300, Note_on_c, 0, 83, 98
2, 132328, Note_on_c, 0, 83, 0
2, 132329, Control_c, 0, 64, 0
2, 132330, Note_on_c, 0, 84, 85
2, 132345, Control_c, 0, 64, 127
2, 132353, Note_on_c, 0, 74, 0
2, 132360, Note_on_c, 0, 88, 93
2, 132360, Note_on_c, 0, 74, 89
2, 132361, Note_on_c, 0, 84, 0
2, 132366, Control_c, 0, 64, 0
2, 132378, Control_c, 0, 64, 127
2, 132420, Note_on_c, 0, 86, 98
2, 132421, Note_on_c, 0, 88, 0
2, 132424, Control_c, 0, 64, 0
2, 132436, Control_c, 0, 64, 127
2, 132535, Note_on_c, 0, 74, 0
2, 132540, Note_on_c, 0, 84, 89
2, 132540, Note_on_c, 0, 74, 80
2, 132543, Control_c, 0, 64, 0
2, 132544, Note_on_c, 0, 86, 0
2, 132557, Control_c, 0, 64, 127
2, 132567, Note_on_c, 0, 84, 0
2, 132570, Note_on_c, 0, 83, 89
2, 132584, Note_on_c, 0, 74, 0
2, 132585, Control_c, 0, 64, 0
2, 132600, Note_on_c, 0, 81, 93
2, 132600, Note_on_c, 0, 74, 89
2, 132601, Note_on_c, 0, 83, 0
2, 132607, Control_c, 0, 64, 127
2, 132620, Note_on_c, 0, 74, 0
2, 132651, Note_on_c, 0, 81, 0
2, 132660, Note_on_c, 0, 81, 93
2, 132660, Note_on_c, 0, 74, 80
2, 132662, Control_c, 0, 64, 0
2, 132674, Note_on_c, 0, 74, 0
2, 132675, Control_c, 0, 64, 127
2, 132717, Note_on_c, 0, 81, 0
2, 132720, Note_on_c, 0, 83, 76
2, 132720, Note_on_c, 0, 74, 85
2, 132721, Control_c, 0, 64, 0
2, 132726, Note_on_c, 0, 83, 0
2, 132727, Note_on_c, 0, 81, 80
2, 132733, Note_on_c, 0, 81, 0
2, 132734, Note_on_c, 0, 83, 76
2, 132735, Note_on_c, 0, 74, 0
2, 132740, Note_on_c, 0, 83, 0
2, 132741, Note_on_c, 0, 81, 89
2, 132747, Note_on_c, 0, 81, 0
2, 132750, Note_on_c, 0, 79, 89
2, 132780, Note_on_c, 0, 79, 0
2, 132780, Note_on_c, 0, 81, 89
2, 132780, Note_on_c, 0, 74, 76
2, 132781, Control_c, 0, 64, 127
2, 132795, Note_on_c, 0, 74, 0
2, 132809, Note_on_c, 0, 81, 0
2, 132809, Control_c, 0, 64, 0
2, 132810, Note_on_c, 0, 83, 89
2, 132840, Note_on_c, 0, 83, 0
2, 132840, Note_on_c, 0, 79, 80
2, 132840, Note_on_c, 0, 74, 93
2, 132845, Control_c, 0, 64, 127
2, 132900, Note_on_c, 0, 74, 89
2, 132903, Note_on_c, 0, 79, 0
2, 132905, Control_c, 0, 64, 0
2, 132910, Note_on_c, 0, 74, 0
2, 132920, Control_c, 0, 64, 127
2, 133016, Note_on_c, 0, 74, 0
2, 133019, Control_c, 0, 64, 0
2, 133020, Note_on_c, 0, 79, 98
2, 133032, Control_c, 0, 64, 127
2, 133078, Control_c, 0, 64, 0
2, 133080, Note_on_c, 0, 80, 93
2, 133080, Note_on_c, 0, 74, 93
2, 133082, Note_on_c, 0, 79, 0
2, 133093, Control_c, 0, 64, 127
2, 133093, Control_c, 0, 64, 127
2, 133138, Control_c, 0, 64, 0
2, 133140, Note_on_c, 0, 80, 0
2, 133140, Note_on_c, 0, 81, 93
2, 133160, Control_c, 0, 64, 127
2, 133257, Control_c, 0, 64, 0
2, 133258, Note_on_c, 0, 81, 0
2, 133260, Note_on_c, 0, 83, 93
2, 133275, Control_c, 0, 64, 127
2, 133290, Note_on_c, 0, 84, 85
2, 133291, Note_on_c, 0, 83, 0
2, 133301, Note_on_c, 0, 74, 0
2, 133313, Control_c, 0, 64, 0
2, 133320, Note_on_c, 0, 88, 93
2, 133320, Note_on_c, 0, 74, 98
2, 133321, Note_on_c, 0, 84, 0
2, 133323, Control_c, 0, 64, 0
2, 133329, Control_c, 0, 64, 127
2, 133355, Control_c, 0, 64, 127
2, 133380, Note_on_c, 0, 86, 93
2, 133380, Control_c, 0, 64, 0
2, 133381, Note_on_c, 0, 88, 0
2, 133397, Control_c, 0, 64, 127
2, 133488, Note_on_c, 0, 74, 0
2, 133497, Control_c, 0, 64, 0
2, 133500, Note_on_c, 0, 84, 89
2, 133500, Note_on_c, 0, 74, 80
2, 133501, Note_on_c, 0, 86, 0
2, 133509, Control_c, 0, 64, 0
2, 133512, Note_on_c, 0, 74, 0
2, 133512, Control_c, 0, 64, 127
2, 133528, Note_on_c, 0, 84, 0
2, 133530, Note_on_c, 0, 83, 89
2, 133549, Control_c, 0, 64, 0
2, 133560, Note_on_c, 0, 81, 89
2, 133560, Note_on_c, 0, 74, 85
2, 133562, Note_on_c, 0, 83, 0
2, 133565, Control_c, 0, 64, 127
2, 133572, Note_on_c, 0, 74, 0
2, 133616, Note_on_c, 0, 81, 0
2, 133620, Note_on_c, 0, 81, 98
2, 133620, Note_on_c, 0, 74, 98
2, 133624, Control_c, 0, 64, 0
2, 133631, Note_on_c, 0, 74, 0
2, 133635, Control_c, 0, 64, 127
2, 133680, Note_on_c, 0, 83, 89
2, 133680, Note_on_c, 0, 74, 89
2, 133681, Note_on_c, 0, 81, 0
2, 133682, Control_c, 0, 64, 0
2, 133686, Note_on_c, 0, 83, 0
2, 133687, Note_on_c, 0, 81, 80
2, 133692, Note_on_c, 0, 74, 0
2, 133693, Note_on_c, 0, 81, 0
2, 133694, Note_on_c, 0, 83, 68
2, 133700, Note_on_c, 0, 83, 0
2, 133701, Note_on_c, 0, 81, 89
2, 133707, Note_on_c, 0, 81, 0
2, 133708, Control_c, 0, 64, 127
2, 133710, Note_on_c, 0, 79, 80
2, 133740, Note_on_c, 0, 81, 98
2, 133740, Note_on_c, 0, 74, 80
2, 133744, Note_on_c, 0, 79, 0
2, 133745, Control_c, 0, 64, 0
2, 133752, Note_on_c, 0, 74, 0
2, 133758, Control_c, 0, 64, 127
2, 133770, Note_on_c, 0, 81, 0
2, 133770, Note_on_c, 0, 83, 89
2, 133799, Control_c, 0, 64, 0
2, 133800, Note_on_c, 0, 79, 85
2, 133800, Note_on_c, 0, 74, 76
2, 133802, Note_on_c, 0, 83, 0
2, 133810, Control_c, 0, 64, 127
2, 133813, Control_c, 0, 64, 127
2, 133910, Note_on_c, 0, 74, 0
2, 133916, Control_c, 0, 64, 0
2, 133927, Note_on_c, 0, 79, 0
2, 133927, Control_c, 0, 64, 0
2, 134010, Note_on_c, 0, 86, 89
2, 134025, Note_on_c, 0, 84, 64
2, 134032, Note_on_c, 0, 86, 0
2, 134038, Note_on_c, 0, 84, 0
2, 134040, Note_on_c, 0, 83, 93
2, 134040, Note_on_c, 0, 79, 76
2, 134040, Note_on_c, 0, 67, 85
2, 134040, Note_on_c, 0, 74, 80
2, 134048, Control_c, 0, 64, 127
2, 134051, Control_c, 0, 64, 127
2, 134089, Note_on_c, 0, 83, 0
2, 134090, Note_on_c, 0, 79, 0
2, 134096, Note_on_c, 0, 74, 0
2, 134096, Control_c, 0, 64, 0
2, 134102, Note_on_c, 0, 67, 0
2, 134119, Control_c, 0, 64, 0
2, 134159, Control_c, 0, 64, 127
2, 134160, Note_on_c, 0, 81, 85
2, 134160, Note_on_c, 0, 78, 85
2, 134160, Note_on_c, 0, 63, 72
2, 134160, Note_on_c, 0, 72, 80
2, 134177, Control_c, 0, 64, 127
2, 134213, Control_c, 0, 64, 0
2, 134216, Note_on_c, 0, 78, 0
2, 134216, Note_on_c, 0, 81, 0
2, 134218, Note_on_c, 0, 63, 0
2, 134221, Note_on_c, 0, 72, 0
2, 134236, Control_c, 0, 64, 0
2, 134280, Note_on_c, 0, 79, 85
2, 134280, Note_on_c, 0, 76, 85
2, 134280, Note_on_c, 0, 64, 76
2, 134280, Note_on_c, 0, 71, 80
2, 134283, Control_c, 0, 64, 127
2, 134291, Control_c, 0, 64, 127
2, 134336, Note_on_c, 0, 76, 0
2, 134338, Note_on_c, 0, 79, 0
2, 134338, Control_c, 0, 64, 0
2, 134341, Note_on_c, 0, 64, 0
2, 134341, Note_on_c, 0, 71, 0
2, 134363, Control_c, 0, 64, 0
2, 134970, Note_on_c, 0, 88, 93
2, 134985, Note_on_c, 0, 86, 80
2, 134989, Note_on_c, 0, 88, 0
2, 135000, Note_on_c, 0, 76, 93
2, 135000, Note_on_c, 0, 69, 93
2, 135000, Note_on_c, 0, 81, 68
2, 135000, Note_on_c, 0, 84, 93
2, 135001, Note_on_c, 0, 86, 0
2, 135009, Control_c, 0, 64, 127
2, 135014, Control_c, 0, 64, 127
2, 135038, Note_on_c, 0, 69, 0
2, 135039, Note_on_c, 0, 76, 0
2, 135048, Note_on_c, 0, 84, 0
2, 135049, Note_on_c, 0, 81, 0
2, 135055, Control_c, 0, 64, 0
2, 135073, Control_c, 0, 64, 0
2, 135119, Control_c, 0, 64, 127
2, 135120, Note_on_c, 0, 83, 93
2, 135120, Note_on_c, 0, 80, 89
2, 135120, Note_on_c, 0, 74, 85
2, 135120, Note_on_c, 0, 64, 85
2, 135130, Control_c, 0, 64, 127
2, 135166, Note_on_c, 0, 64, 0
2, 135167, Note_on_c, 0, 74, 0
2, 135174, Control_c, 0, 64, 0
2, 135176, Note_on_c, 0, 80, 0
2, 135178, Note_on_c, 0, 83, 0
2, 135187, Control_c, 0, 64, 0
2, 135240, Note_on_c, 0, 81, 93
2, 135240, Control_c, 0, 64, 127
2, 135240, Note_on_c, 0, 72, 85
2, 135240, Note_on_c, 0, 69, 93
2, 135244, Control_c, 0, 64, 127
2, 135282, Note_on_c, 0, 69, 0
2, 135285, Note_on_c, 0, 72, 0
2, 135294, Note_on_c, 0, 81, 0
2, 135296, Control_c, 0, 64, 0
2, 135316, Control_c, 0, 64, 0
2, 135420, Control_c, 0, 64, 127
2, 135420, Note_on_c, 0, 88, 102
2, 135420, Note_on_c, 0, 81, 107
2, 135420, Note_on_c, 0, 84, 102
2, 135420, Note_on_c, 0, 69, 113
2, 135420, Note_on_c, 0, 76, 102
2, 135420, Note_on_c, 0, 72, 107
2, 135427, Control_c, 0, 64, 127
2, 135454, Note_on_c, 0, 69, 0
2, 135454, Control_c, 0, 64, 0
2, 135455, Note_on_c, 0, 72, 0
2, 135456, Note_on_c, 0, 88, 0
2, 135456, Note_on_c, 0, 76, 0
2, 135458, Note_on_c, 0, 84, 0
2, 135458, Note_on_c, 0, 81, 0
2, 135473, Control_c, 0, 64, 0
2, 135480, Note_on_c, 0, 86, 107
2, 135480, Note_on_c, 0, 83, 107
2, 135480, Note_on_c, 0, 71, 113
2, 135480, Note_on_c, 0, 74, 107
2, 135486, Control_c, 0, 64, 127
2, 135493, Control_c, 0, 64, 127
2, 135516, Note_on_c, 0, 74, 0
2, 135516, Note_on_c, 0, 71, 0
2, 135526, Note_on_c, 0, 86, 0
2, 135527, Note_on_c, 0, 83, 0
2, 135531, Control_c, 0, 64, 0
2, 135535, Control_c, 0, 64, 0
2, 135600, Note_on_c, 0, 86, 107
2, 135600, Note_on_c, 0, 81, 107
2, 135600, Note_on_c, 0, 90, 107
2, 135600, Note_on_c, 0, 69, 107
2, 135600, Note_on_c, 0, 74, 107
2, 135600, Note_on_c, 0, 78, 102
2, 135624, Control_c, 0, 64, 127
2, 135641, Note_on_c, 0, 78, 0
2, 135641, Note_on_c, 0, 74, 0
2, 135642, Control_c, 0, 64, 0
2, 135645, Note_on_c, 0, 69, 0
2, 135652, Control_c, 0, 64, 127
2, 135659, Note_on_c, 0, 81, 0
2, 135660, Note_on_c, 0, 90, 0
2, 135662, Note_on_c, 0, 86, 0
2, 135666, Control_c, 0, 64, 0
2, 135720, Note_on_c, 0, 79, 93
2, 135720, Note_on_c, 0, 91, 93
2, 135720, Note_on_c, 0, 83, 102
2, 135720, Note_on_c, 0, 86, 107
2, 135720, Note_on_c, 0, 67, 107
2, 135720, Note_on_c, 0, 71, 107
2, 135720, Note_on_c, 0, 74, 98
2, 135722, Control_c, 0, 64, 127
2, 135724, Control_c, 0, 64, 127
2, 135844, Note_on_c, 0, 86, 0
2, 135844, Note_on_c, 0, 79, 0
2, 135845, Note_on_c, 0, 83, 0
2, 135845, Control_c, 0, 64, 0
2, 135847, Note_on_c, 0, 67, 0
2, 135847, Note_on_c, 0, 91, 0
2, 135847, Control_c, 0, 64, 0
2, 135849, Note_on_c, 0, 71, 0
2, 135849, Note_on_c, 0, 74, 0
2, 135960, Control_c, 0, 121, 0
2, 135960, End_track
3, 0, Start_track
3, 0, MIDI_port, 0
3, 0, Title_t, "Secondo"
3, 0, Program_c, 1, 0
3, 0, Control_c, 1, 121, 0
3, 0, Control_c, 1, 7, 127
3, 0, Control_c, 1, 10, 44
3, 0, Control_c, 1, 91, 101
3, 360, Note_on_c, 1, 43, 89
3, 360, Note_on_c, 1, 55, 107
3, 377, Note_on_c, 1, 55, 0
3, 377, Note_on_c, 1, 43, 0
3, 480, Note_on_c, 1, 59, 93
3, 480, Note_on_c, 1, 47, 93
3, 491, Note_on_c, 1, 59, 0
3, 492, Note_on_c, 1, 47, 0
3, 600, Note_on_c, 1, 51, 102
3, 600, Note_on_c, 1, 39, 85
3, 616, Note_on_c, 1, 39, 0
3, 616, Note_on_c, 1, 51, 0
3, 720, Note_on_c, 1, 52, 113
3, 720, Note_on_c, 1, 40, 93
3, 733, Note_on_c, 1, 40, 0
3, 733, Note_on_c, 1, 52, 0
3, 840, Note_on_c, 1, 60, 93
3, 840, Note_on_c, 1, 48, 76
3, 855, Note_on_c, 1, 60, 0
3, 857, Note_on_c, 1, 48, 0
3, 1050, Note_on_c, 1, 45, 93
3, 1050, Note_on_c, 1, 57, 89
3, 1062, Note_on_c, 1, 45, 0
3, 1063, Note_on_c, 1, 57, 0
3, 1080, Note_on_c, 1, 54, 98
3, 1080, Note_on_c, 1, 42, 98
3, 1093, Note_on_c, 1, 42, 0
3, 1094, Note_on_c, 1, 54, 0
3, 1200, Note_on_c, 1, 62, 93
3, 1200, Note_on_c, 1, 50, 102
3, 1214, Note_on_c, 1, 50, 0
3, 1215, Note_on_c, 1, 62, 0
3, 1410, Note_on_c, 1, 48, 80
3, 1410, Note_on_c, 1, 60, 85
3, 1438, Note_on_c, 1, 48, 0
3, 1440, Note_on_c, 1, 47, 85
3, 1440, Note_on_c, 1, 59, 89
3, 1443, Note_on_c, 1, 60, 0
3, 1468, Note_on_c, 1, 59, 0
3, 1470, Note_on_c, 1, 48, 85
3, 1470, Note_on_c, 1, 60, 76
3, 1471, Note_on_c, 1, 47, 0
3, 1497, Note_on_c, 1, 60, 0
3, 1500, Note_on_c, 1, 62, 76
3, 1500, Note_on_c, 1, 50, 76
3, 1501, Note_on_c, 1, 48, 0
3, 1526, Note_on_c, 1, 62, 0
3, 1530, Note_on_c, 1, 50, 0
3, 1530, Note_on_c, 1, 59, 50
3, 1530, Note_on_c, 1, 47, 72
3, 1560, Note_on_c, 1, 43, 80
3, 1560, Note_on_c, 1, 55, 76
3, 1561, Note_on_c, 1, 47, 0
3, 1562, Note_on_c, 1, 59, 0
3, 1685, Note_on_c, 1, 43, 0
3, 1687, Note_on_c, 1, 55, 0
3, 2160, Note_on_c, 1, 50, 89
3, 2160, Note_on_c, 1, 38, 93
3, 2250, Note_on_c, 1, 40, 89
3, 2250, Note_on_c, 1, 52, 89
3, 2252, Note_on_c, 1, 38, 0
3, 2253, Note_on_c, 1, 50, 0
3, 2265, Note_on_c, 1, 54, 68
3, 2265, Note_on_c, 1, 42, 62
3, 2268, Note_on_c, 1, 52, 0
3, 2271, Note_on_c, 1, 40, 0
3, 2279, Note_on_c, 1, 54, 0
3, 2280, Note_on_c, 1, 55, 89
3, 2280, Note_on_c, 1, 43, 93
3, 2282, Note_on_c, 1, 42, 0
3, 2339, Note_on_c, 1, 43, 0
3, 2341, Note_on_c, 1, 55, 0
3, 2880, Note_on_c, 1, 38, 93
3, 2880, Note_on_c, 1, 50, 93
3, 2966, Note_on_c, 1, 38, 0
3, 2968, Note_on_c, 1, 50, 0
3, 2970, Note_on_c, 1, 52, 89
3, 2970, Note_on_c, 1, 40, 72
3, 2985, Note_on_c, 1, 42, 72
3, 2985, Note_on_c, 1, 54, 72
3, 2987, Note_on_c, 1, 52, 0
3, 2991, Note_on_c, 1, 40, 0
3, 2999, Note_on_c, 1, 54, 0
3, 3000, Note_on_c, 1, 43, 85
3, 3000, Note_on_c, 1, 55, 89
3, 3003, Note_on_c, 1, 42, 0
3, 3092, Note_on_c, 1, 55, 0
3, 3093, Note_on_c, 1, 43, 0
3, 4500, Note_on_c, 1, 67, 62
3, 4556, Note_on_c, 1, 67, 0
3, 4560, Note_on_c, 1, 69, 80
3, 4618, Note_on_c, 1, 69, 0
3, 4619, Control_c, 1, 64, 127
3, 4620, Note_on_c, 1, 71, 64
3, 4679, Note_on_c, 1, 71, 0
3, 4680, Note_on_c, 1, 63, 62
3, 4684, Control_c, 1, 64, 0
3, 4740, Note_on_c, 1, 48, 64
3, 4787, Control_c, 1, 64, 127
3, 4800, Note_on_c, 1, 55, 60
3, 4815, Control_c, 1, 64, 0
3, 4860, Note_on_c, 1, 63, 0
3, 4860, Note_on_c, 1, 64, 76
3, 4920, Note_on_c, 1, 66, 68
3, 4921, Note_on_c, 1, 64, 0
3, 4968, Control_c, 1, 64, 127
3, 4974, Note_on_c, 1, 66, 0
3, 4980, Note_on_c, 1, 67, 76
3, 4992, Note_on_c, 1, 67, 0
3, 5037, Note_on_c, 1, 55, 0
3, 5038, Note_on_c, 1, 48, 0
3, 5040, Note_on_c, 1, 56, 76
3, 5044, Control_c, 1, 64, 0
3, 5100, Note_on_c, 1, 48, 64
3, 5122, Control_c, 1, 64, 127
3, 5160, Note_on_c, 1, 56, 0
3, 5160, Note_on_c, 1, 50, 72
3, 5160, Note_on_c, 1, 54, 62
3, 5171, Control_c, 1, 64, 0
3, 5220, Note_on_c, 1, 57, 76
3, 5280, Note_on_c, 1, 59, 89
3, 5281, Note_on_c, 1, 57, 0
3, 5300, Control_c, 1, 64, 127
3, 5317, Note_on_c, 1, 54, 0
3, 5321, Note_on_c, 1, 50, 0
3, 5324, Note_on_c, 1, 48, 0
3, 5340, Note_on_c, 1, 59, 0
3, 5340, Note_on_c, 1, 60, 89
3, 5394, Note_on_c, 1, 60, 0
3, 5397, Control_c, 1, 64, 0
3, 5400, Note_on_c, 1, 35, 80
3, 5400, Note_on_c, 1, 47, 72
3, 5400, Note_on_c, 1, 62, 107
3, 5425, Control_c, 1, 64, 127
3, 5474, Note_on_c, 1, 35, 0
3, 5480, Note_on_c, 1, 47, 0
3, 5488, Note_on_c, 1, 62, 0
3, 5516, Control_c, 1, 64, 0
3, 5520, Note_on_c, 1, 48, 85
3, 5520, Note_on_c, 1, 36, 80
3, 5550, Note_on_c, 1, 50, 89
3, 5574, Note_on_c, 1, 50, 0
3, 5575, Control_c, 1, 64, 127
3, 5580, Note_on_c, 1, 54, 80
3, 5605, Note_on_c, 1, 54, 0
3, 5610, Note_on_c, 1, 57, 89
3, 5637, Control_c, 1, 64, 0
3, 5638, Note_on_c, 1, 57, 0
3, 5640, Note_on_c, 1, 62, 89
3, 5669, Note_on_c, 1, 62, 0
3, 5670, Note_on_c, 1, 57, 93
3, 5671, Control_c, 1, 64, 127
3, 5700, Note_on_c, 1, 54, 72
3, 5703, Note_on_c, 1, 57, 0
3, 5730, Note_on_c, 1, 50, 80
3, 5735, Note_on_c, 1, 48, 0
3, 5735, Note_on_c, 1, 54, 0
3, 5735, Note_on_c, 1, 36, 0
3, 5753, Note_on_c, 1, 50, 0
3, 5759, Control_c, 1, 64, 0
3, 5760, Note_on_c, 1, 62, 102
3, 5760, Note_on_c, 1, 35, 93
3, 5760, Note_on_c, 1, 47, 80
3, 5786, Control_c, 1, 64, 127
3, 5832, Note_on_c, 1, 35, 0
3, 5842, Note_on_c, 1, 47, 0
3, 5876, Note_on_c, 1, 62, 0
3, 5880, Note_on_c, 1, 36, 89
3, 5880, Note_on_c, 1, 48, 85
3, 5880, Control_c, 1, 64, 0
3, 5910, Note_on_c, 1, 50, 89
3, 5937, Note_on_c, 1, 50, 0
3, 5940, Note_on_c, 1, 54, 85
3, 5943, Control_c, 1, 64, 127
3, 5967, Note_on_c, 1, 54, 0
3, 5970, Note_on_c, 1, 57, 68
3, 6000, Note_on_c, 1, 62, 89
3, 6005, Note_on_c, 1, 57, 0
3, 6010, Control_c, 1, 64, 0
3, 6030, Note_on_c, 1, 57, 85
3, 6033, Note_on_c, 1, 62, 0
3, 6042, Control_c, 1, 64, 127
3, 6060, Note_on_c, 1, 54, 62
3, 6063, Note_on_c, 1, 57, 0
3, 6090, Note_on_c, 1, 50, 72
3, 6096, Note_on_c, 1, 48, 0
3, 6098, Note_on_c, 1, 54, 0
3, 6103, Note_on_c, 1, 36, 0
3, 6106, Note_on_c, 1, 50, 0
3, 6120, Note_on_c, 1, 47, 76
3, 6120, Note_on_c, 1, 35, 72
3, 6133, Control_c, 1, 64, 0
3, 6150, Note_on_c, 1, 59, 70
3, 6179, Note_on_c, 1, 59, 0
3, 6180, Note_on_c, 1, 62, 73
3, 6191, Control_c, 1, 64, 127
3, 6203, Note_on_c, 1, 62, 0
3, 6210, Note_on_c, 1, 67, 75
3, 6212, Note_on_c, 1, 35, 0
3, 6213, Note_on_c, 1, 47, 0
3, 6220, Note_on_c, 1, 67, 0
3, 6232, Control_c, 1, 64, 0
3, 6240, Note_on_c, 1, 48, 78
3, 6240, Note_on_c, 1, 36, 78
3, 6270, Note_on_c, 1, 57, 81
3, 6282, Control_c, 1, 64, 127
3, 6296, Note_on_c, 1, 48, 0
3, 6297, Note_on_c, 1, 36, 0
3, 6298, Note_on_c, 1, 57, 0
3, 6300, Note_on_c, 1, 64, 83
3, 6305, Control_c, 1, 64, 0
3, 6326, Note_on_c, 1, 64, 0
3, 6330, Note_on_c, 1, 67, 86
3, 6348, Note_on_c, 1, 67, 0
3, 6360, Note_on_c, 1, 38, 89
3, 6360, Note_on_c, 1, 50, 89
3, 6390, Note_on_c, 1, 57, 91
3, 6415, Note_on_c, 1, 57, 0
3, 6420, Note_on_c, 1, 60, 94
3, 6425, Note_on_c, 1, 50, 0
3, 6428, Note_on_c, 1, 38, 0
3, 6446, Note_on_c, 1, 60, 0
3, 6450, Note_on_c, 1, 62, 97
3, 6462, Note_on_c, 1, 62, 0
3, 6480, Note_on_c, 1, 43, 100
3, 6480, Note_on_c, 1, 55, 100
3, 6504, Note_on_c, 1, 55, 0
3, 6506, Note_on_c, 1, 43, 0
3, 6600, Note_on_c, 1, 59, 98
3, 6600, Note_on_c, 1, 47, 93
3, 6620, Note_on_c, 1, 59, 0
3, 6621, Note_on_c, 1, 47, 0
3, 6720, Note_on_c, 1, 51, 98
3, 6720, Note_on_c, 1, 39, 89
3, 6734, Note_on_c, 1, 39, 0
3, 6736, Note_on_c, 1, 51, 0
3, 6840, Note_on_c, 1, 52, 102
3, 6840, Note_on_c, 1, 40, 98
3, 6857, Note_on_c, 1, 52, 0
3, 6858, Note_on_c, 1, 40, 0
3, 6960, Note_on_c, 1, 60, 98
3, 6960, Note_on_c, 1, 48, 89
3, 6980, Note_on_c, 1, 60, 0
3, 6981, Note_on_c, 1, 48, 0
3, 7170, Note_on_c, 1, 45, 93
3, 7170, Note_on_c, 1, 57, 98
3, 7183, Note_on_c, 1, 57, 0
3, 7183, Note_on_c, 1, 45, 0
3, 7200, Note_on_c, 1, 54, 102
3, 7200, Note_on_c, 1, 42, 93
3, 7216, Note_on_c, 1, 54, 0
3, 7217, Note_on_c, 1, 42, 0
3, 7320, Note_on_c, 1, 50, 98
3, 7320, Note_on_c, 1, 62, 102
3, 7335, Note_on_c, 1, 62, 0
3, 7337, Note_on_c, 1, 50, 0
3, 7530, Note_on_c, 1, 59, 85
3, 7530, Note_on_c, 1, 47, 93
3, 7544, Note_on_c, 1, 59, 0
3, 7545, Note_on_c, 1, 47, 0
3, 7560, Note_on_c, 1, 44, 102
3, 7560, Note_on_c, 1, 56, 107
3, 7574, Note_on_c, 1, 56, 0
3, 7575, Note_on_c, 1, 44, 0
3, 7680, Note_on_c, 1, 64, 98
3, 7680, Note_on_c, 1, 52, 102
3, 7696, Note_on_c, 1, 64, 0
3, 7697, Note_on_c, 1, 52, 0
3, 7920, Note_on_c, 1, 45, 76
3, 7934, Control_c, 1, 64, 127
3, 8050, Note_on_c, 1, 45, 0
3, 8050, Control_c, 1, 64, 0
3, 8280, Note_on_c, 1, 40, 56
3, 8340, Note_on_c, 1, 59, 85
3, 8340, Note_on_c, 1, 56, 57
3, 8374, Control_c, 1, 64, 127
3, 8395, Note_on_c, 1, 56, 0
3, 8395, Note_on_c, 1, 59, 0
3, 8400, Note_on_c, 1, 60, 80
3, 8400, Note_on_c, 1, 57, 89
3, 8403, Control_c, 1, 64, 0
3, 8428, Control_c, 1, 64, 127
3, 8437, Note_on_c, 1, 57, 0
3, 8437, Note_on_c, 1, 40, 0
3, 8443, Note_on_c, 1, 60, 0
3, 8456, Control_c, 1, 64, 0
3, 8460, Note_on_c, 1, 59, 89
3, 8460, Note_on_c, 1, 62, 72
3, 8478, Control_c, 1, 64, 127
3, 8501, Note_on_c, 1, 59, 0
3, 8502, Note_on_c, 1, 62, 0
3, 8520, Note_on_c, 1, 64, 55
3, 8520, Note_on_c, 1, 60, 56
3, 8525, Control_c, 1, 64, 0
3, 8542, Control_c, 1, 64, 127
3, 8570, Note_on_c, 1, 60, 0
3, 8570, Note_on_c, 1, 64, 0
3, 8580, Note_on_c, 1, 62, 55
3, 8580, Note_on_c, 1, 59, 51
3, 8585, Control_c, 1, 64, 0
3, 8603, Control_c, 1, 64, 127
3, 8636, Note_on_c, 1, 59, 0
3, 8640, Note_on_c, 1, 45, 51
3, 8640, Note_on_c, 1, 60, 46
3, 8640, Note_on_c, 1, 57, 53
3, 8642, Note_on_c, 1, 62, 0
3, 8645, Control_c, 1, 64, 0
3, 8672, Control_c, 1, 64, 127
3, 8758, Note_on_c, 1, 57, 0
3, 8762, Note_on_c, 1, 45, 0
3, 8764, Note_on_c, 1, 60, 0
3, 8785, Control_c, 1, 64, 0
3, 9000, Note_on_c, 1, 40, 76
3, 9033, Control_c, 1, 64, 127
3, 9060, Note_on_c, 1, 59, 76
3, 9060, Note_on_c, 1, 56, 62
3, 9063, Control_c, 1, 64, 0
3, 9077, Control_c, 1, 64, 127
3, 9110, Note_on_c, 1, 56, 0
3, 9112, Note_on_c, 1, 59, 0
3, 9120, Note_on_c, 1, 60, 85
3, 9120, Note_on_c, 1, 57, 89
3, 9124, Note_on_c, 1, 40, 0
3, 9125, Control_c, 1, 64, 0
3, 9143, Control_c, 1, 64, 127
3, 9170, Note_on_c, 1, 60, 0
3, 9171, Note_on_c, 1, 57, 0
3, 9180, Note_on_c, 1, 59, 68
3, 9180, Note_on_c, 1, 62, 68
3, 9181, Control_c, 1, 64, 0
3, 9194, Control_c, 1, 64, 127
3, 9209, Note_on_c, 1, 59, 0
3, 9213, Note_on_c, 1, 62, 0
3, 9238, Control_c, 1, 64, 0
3, 9240, Note_on_c, 1, 60, 42
3, 9240, Note_on_c, 1, 64, 53
3, 9258, Control_c, 1, 64, 127
3, 9280, Note_on_c, 1, 64, 0
3, 9290, Note_on_c, 1, 60, 0
3, 9300, Note_on_c, 1, 62, 59
3, 9300, Note_on_c, 1, 59, 59
3, 9301, Control_c, 1, 64, 0
3, 9321, Control_c, 1, 64, 127
3, 9346, Note_on_c, 1, 59, 0
3, 9349, Note_on_c, 1, 62, 0
3, 9360, Note_on_c, 1, 60, 62
3, 9360, Note_on_c, 1, 57, 53
3, 9360, Note_on_c, 1, 45, 56
3, 9363, Control_c, 1, 64, 0
3, 9391, Control_c, 1, 64, 127
3, 9476, Note_on_c, 1, 57, 0
3, 9477, Note_on_c, 1, 45, 0
3, 9480, Note_on_c, 1, 60, 0
3, 9497, Control_c, 1, 64, 0
3, 11520, Note_on_c, 1, 45, 93
3, 11550, Note_on_c, 1, 56, 89
3, 11577, Note_on_c, 1, 56, 0
3, 11580, Note_on_c, 1, 57, 80
3, 11610, Note_on_c, 1, 59, 89
3, 11611, Note_on_c, 1, 57, 0
3, 11640, Note_on_c, 1, 61, 85
3, 11641, Note_on_c, 1, 59, 0
3, 11669, Note_on_c, 1, 61, 0
3, 11670, Note_on_c, 1, 62, 89
3, 11700, Note_on_c, 1, 64, 60
3, 11701, Note_on_c, 1, 62, 0
3, 11730, Note_on_c, 1, 66, 85
3, 11732, Note_on_c, 1, 64, 0
3, 11756, Note_on_c, 1, 66, 0
3, 11760, Note_on_c, 1, 67, 85
3, 11790, Note_on_c, 1, 64, 76
3, 11793, Note_on_c, 1, 67, 0
3, 11820, Note_on_c, 1, 69, 89
3, 11823, Note_on_c, 1, 64, 0
3, 11847, Note_on_c, 1, 69, 0
3, 11849, Control_c, 1, 64, 127
3, 11850, Note_on_c, 1, 67, 76
3, 11873, Control_c, 1, 64, 0
3, 11874, Note_on_c, 1, 67, 0
3, 11880, Note_on_c, 1, 66, 72
3, 11910, Note_on_c, 1, 69, 89
3, 11914, Note_on_c, 1, 66, 0
3, 11930, Note_on_c, 1, 45, 0
3, 11940, Note_on_c, 1, 66, 76
3, 11942, Note_on_c, 1, 69, 0
3, 11959, Control_c, 1, 64, 127
3, 11970, Note_on_c, 1, 62, 76
3, 11974, Note_on_c, 1, 66, 0
3, 11996, Control_c, 1, 64, 0
3, 12000, Note_on_c, 1, 61, 80
3, 12000, Note_on_c, 1, 45, 85
3, 12001, Note_on_c, 1, 62, 0
3, 12030, Note_on_c, 1, 64, 85
3, 12034, Note_on_c, 1, 61, 0
3, 12037, Control_c, 1, 64, 127
3, 12057, Note_on_c, 1, 45, 0
3, 12060, Note_on_c, 1, 61, 85
3, 12064, Note_on_c, 1, 64, 0
3, 12072, Control_c, 1, 64, 0
3, 12090, Note_on_c, 1, 57, 85
3, 12091, Note_on_c, 1, 61, 0
3, 12116, Note_on_c, 1, 57, 0
3, 12120, Note_on_c, 1, 62, 93
3, 12120, Note_on_c, 1, 45, 89
3, 12134, Control_c, 1, 64, 127
3, 12150, Note_on_c, 1, 66, 72
3, 12151, Note_on_c, 1, 62, 0
3, 12153, Note_on_c, 1, 45, 0
3, 12172, Control_c, 1, 64, 0
3, 12179, Note_on_c, 1, 66, 0
3, 12180, Note_on_c, 1, 62, 89
3, 12198, Control_c, 1, 64, 127
3, 12208, Note_on_c, 1, 62, 0
3, 12210, Note_on_c, 1, 57, 76
3, 12232, Note_on_c, 1, 57, 0
3, 12237, Control_c, 1, 64, 0
3, 12240, Note_on_c, 1, 45, 93
3, 12270, Note_on_c, 1, 56, 72
3, 12284, Control_c, 1, 64, 127
3, 12296, Note_on_c, 1, 56, 0
3, 12300, Note_on_c, 1, 57, 93
3, 12319, Control_c, 1, 64, 0
3, 12330, Note_on_c, 1, 59, 89
3, 12332, Note_on_c, 1, 57, 0
3, 12360, Note_on_c, 1, 61, 76
3, 12361, Note_on_c, 1, 59, 0
3, 12366, Control_c, 1, 64, 127
3, 12386, Note_on_c, 1, 61, 0
3, 12390, Note_on_c, 1, 62, 85
3, 12399, Control_c, 1, 64, 0
3, 12416, Note_on_c, 1, 62, 0
3, 12420, Note_on_c, 1, 64, 93
3, 12448, Note_on_c, 1, 64, 0
3, 12450, Note_on_c, 1, 66, 76
3, 12478, Note_on_c, 1, 66, 0
3, 12480, Note_on_c, 1, 67, 80
3, 12493, Control_c, 1, 64, 127
3, 12507, Control_c, 1, 64, 0
3, 12510, Note_on_c, 1, 64, 76
3, 12513, Note_on_c, 1, 67, 0
3, 12540, Note_on_c, 1, 69, 85
3, 12546, Note_on_c, 1, 64, 0
3, 12558, Control_c, 1, 64, 127
3, 12569, Note_on_c, 1, 69, 0
3, 12570, Note_on_c, 1, 67, 89
3, 12600, Note_on_c, 1, 66, 85
3, 12600, Control_c, 1, 64, 0
3, 12603, Note_on_c, 1, 67, 0
3, 12630, Note_on_c, 1, 66, 0
3, 12630, Note_on_c, 1, 69, 72
3, 12654, Note_on_c, 1, 45, 0
3, 12659, Note_on_c, 1, 69, 0
3, 12660, Note_on_c, 1, 66, 80
3, 12688, Control_c, 1, 64, 127
3, 12690, Note_on_c, 1, 62, 80
3, 12691, Note_on_c, 1, 66, 0
3, 12718, Note_on_c, 1, 62, 0
3, 12720, Note_on_c, 1, 61, 89
3, 12720, Note_on_c, 1, 45, 93
3, 12722, Control_c, 1, 64, 0
3, 12750, Note_on_c, 1, 61, 0
3, 12750, Note_on_c, 1, 64, 85
3, 12775, Note_on_c, 1, 45, 0
3, 12780, Note_on_c, 1, 61, 72
3, 12783, Note_on_c, 1, 64, 0
3, 12810, Note_on_c, 1, 57, 76
3, 12812, Note_on_c, 1, 61, 0
3, 12839, Note_on_c, 1, 57, 0
3, 12840, Note_on_c, 1, 62, 98
3, 12840, Note_on_c, 1, 45, 89
3, 12854, Control_c, 1, 64, 127
3, 12870, Note_on_c, 1, 66, 76
3, 12874, Note_on_c, 1, 62, 0
3, 12883, Control_c, 1, 64, 0
3, 12898, Note_on_c, 1, 45, 0
3, 12899, Note_on_c, 1, 66, 0
3, 12900, Note_on_c, 1, 62, 89
3, 12929, Note_on_c, 1, 62, 0
3, 12930, Note_on_c, 1, 57, 76
3, 12954, Note_on_c, 1, 57, 0
3, 12960, Note_on_c, 1, 61, 89
3, 12960, Note_on_c, 1, 64, 93
3, 12960, Note_on_c, 1, 45, 89
3, 12975, Control_c, 1, 64, 127
3, 13020, Note_on_c, 1, 61, 0
3, 13021, Note_on_c, 1, 64, 0
3, 13038, Note_on_c, 1, 45, 0
3, 13080, Note_on_c, 1, 64, 102
3, 13080, Note_on_c, 1, 69, 93
3, 13080, Note_on_c, 1, 61, 93
3, 13080, Note_on_c, 1, 45, 89
3, 13080, Note_on_c, 1, 33, 89
3, 13082, Control_c, 1, 64, 0
3, 13108, Control_c, 1, 64, 127
3, 13146, Note_on_c, 1, 64, 0
3, 13147, Note_on_c, 1, 33, 0
3, 13148, Note_on_c, 1, 45, 0
3, 13148, Note_on_c, 1, 61, 0
3, 13149, Note_on_c, 1, 69, 0
3, 13203, Control_c, 1, 64, 0
3, 13320, Note_on_c, 1, 38, 93
3, 13320, Note_on_c, 1, 50, 107
3, 13346, Note_on_c, 1, 50, 0
3, 13347, Note_on_c, 1, 38, 0
3, 13440, Note_on_c, 1, 42, 85
3, 13440, Note_on_c, 1, 54, 93
3, 13460, Note_on_c, 1, 54, 0
3, 13465, Note_on_c, 1, 42, 0
3, 13560, Note_on_c, 1, 46, 107
3, 13560, Note_on_c, 1, 34, 89
3, 13579, Note_on_c, 1, 46, 0
3, 13580, Note_on_c, 1, 34, 0
3, 13680, Note_on_c, 1, 35, 102
3, 13680, Note_on_c, 1, 47, 102
3, 13703, Note_on_c, 1, 47, 0
3, 13704, Note_on_c, 1, 35, 0
3, 13800, Note_on_c, 1, 47, 93
3, 13800, Note_on_c, 1, 59, 102
3, 13822, Note_on_c, 1, 59, 0
3, 13824, Note_on_c, 1, 47, 0
3, 14010, Note_on_c, 1, 35, 89
3, 14010, Note_on_c, 1, 47, 93
3, 14028, Note_on_c, 1, 47, 0
3, 14030, Note_on_c, 1, 35, 0
3, 14040, Note_on_c, 1, 33, 93
3, 14040, Note_on_c, 1, 45, 98
3, 14059, Note_on_c, 1, 45, 0
3, 14065, Note_on_c, 1, 33, 0
3, 14160, Note_on_c, 1, 57, 102
3, 14160, Note_on_c, 1, 45, 102
3, 14178, Note_on_c, 1, 57, 0
3, 14181, Note_on_c, 1, 45, 0
3, 14370, Note_on_c, 1, 45, 93
3, 14370, Note_on_c, 1, 33, 93
3, 14386, Note_on_c, 1, 33, 0
3, 14386, Note_on_c, 1, 45, 0
3, 14400, Note_on_c, 1, 31, 93
3, 14400, Note_on_c, 1, 43, 102
3, 14421, Note_on_c, 1, 31, 0
3, 14422, Note_on_c, 1, 43, 0
3, 14520, Note_on_c, 1, 55, 102
3, 14520, Note_on_c, 1, 43, 93
3, 14537, Note_on_c, 1, 55, 0
3, 14541, Note_on_c, 1, 43, 0
3, 14730, Note_on_c, 1, 43, 93
3, 14730, Note_on_c, 1, 31, 93
3, 14742, Note_on_c, 1, 43, 0
3, 14744, Note_on_c, 1, 31, 0
3, 14760, Note_on_c, 1, 30, 89
3, 14760, Note_on_c, 1, 42, 107
3, 14779, Note_on_c, 1, 42, 0
3, 14781, Note_on_c, 1, 30, 0
3, 14876, Note_on_c, 1, 42, 93
3, 14880, Note_on_c, 1, 54, 93
3, 14894, Note_on_c, 1, 42, 0
3, 14898, Note_on_c, 1, 54, 0
3, 15090, Note_on_c, 1, 53, 85
3, 15090, Note_on_c, 1, 41, 89
3, 15117, Note_on_c, 1, 41, 0
3, 15117, Note_on_c, 1, 53, 0
3, 15120, Note_on_c, 1, 52, 93
3, 15120, Note_on_c, 1, 40, 98
3, 15176, Control_c, 1, 64, 127
3, 15239, Control_c, 1, 64, 0
3, 15246, Note_on_c, 1, 40, 0
3, 15246, Note_on_c, 1, 52, 0
3, 15540, Note_on_c, 1, 44, 89
3, 15540, Note_on_c, 1, 59, 93
3, 15553, Control_c, 1, 64, 127
3, 15567, Note_on_c, 1, 59, 0
3, 15570, Note_on_c, 1, 61, 72
3, 15595, Control_c, 1, 64, 0
3, 15597, Note_on_c, 1, 61, 0
3, 15599, Note_on_c, 1, 44, 0
3, 15600, Note_on_c, 1, 62, 89
3, 15600, Note_on_c, 1, 47, 93
3, 15621, Control_c, 1, 64, 127
3, 15625, Note_on_c, 1, 62, 0
3, 15630, Note_on_c, 1, 61, 76
3, 15652, Control_c, 1, 64, 0
3, 15657, Note_on_c, 1, 61, 0
3, 15659, Note_on_c, 1, 47, 0
3, 15660, Note_on_c, 1, 59, 93
3, 15660, Note_on_c, 1, 44, 80
3, 15675, Control_c, 1, 64, 127
3, 15690, Note_on_c, 1, 59, 0
3, 15690, Note_on_c, 1, 57, 93
3, 15715, Control_c, 1, 64, 0
3, 15718, Note_on_c, 1, 44, 0
3, 15720, Note_on_c, 1, 40, 89
3, 15720, Note_on_c, 1, 56, 76
3, 15723, Note_on_c, 1, 57, 0
3, 15736, Control_c, 1, 64, 127
3, 15750, Note_on_c, 1, 54, 60
3, 15759, Note_on_c, 1, 56, 0
3, 15772, Note_on_c, 1, 54, 0
3, 15772, Control_c, 1, 64, 0
3, 15777, Note_on_c, 1, 40, 0
3, 15780, Note_on_c, 1, 52, 68
3, 15780, Note_on_c, 1, 44, 80
3, 15794, Control_c, 1, 64, 127
3, 15810, Note_on_c, 1, 52, 0
3, 15810, Note_on_c, 1, 50, 72
3, 15832, Control_c, 1, 64, 0
3, 15838, Note_on_c, 1, 50, 0
3, 15840, Note_on_c, 1, 49, 68
3, 15840, Note_on_c, 1, 45, 76
3, 15844, Note_on_c, 1, 44, 0
3, 15856, Control_c, 1, 64, 127
3, 15959, Note_on_c, 1, 49, 0
3, 15959, Control_c, 1, 64, 0
3, 15960, Note_on_c, 1, 45, 0
3, 16260, Note_on_c, 1, 49, 76
3, 16260, Note_on_c, 1, 64, 93
3, 16270, Control_c, 1, 64, 127
3, 16290, Note_on_c, 1, 64, 0
3, 16290, Note_on_c, 1, 66, 76
3, 16314, Note_on_c, 1, 66, 0
3, 16314, Control_c, 1, 64, 0
3, 16318, Note_on_c, 1, 49, 0
3, 16320, Note_on_c, 1, 67, 85
3, 16320, Note_on_c, 1, 52, 85
3, 16342, Control_c, 1, 64, 127
3, 16350, Note_on_c, 1, 66, 76
3, 16352, Note_on_c, 1, 67, 0
3, 16372, Control_c, 1, 64, 0
3, 16377, Note_on_c, 1, 66, 0
3, 16377, Note_on_c, 1, 52, 0
3, 16380, Note_on_c, 1, 64, 93
3, 16380, Note_on_c, 1, 49, 85
3, 16392, Control_c, 1, 64, 127
3, 16408, Note_on_c, 1, 64, 0
3, 16410, Note_on_c, 1, 62, 85
3, 16432, Note_on_c, 1, 62, 0
3, 16435, Control_c, 1, 64, 0
3, 16436, Note_on_c, 1, 49, 0
3, 16440, Note_on_c, 1, 61, 76
3, 16440, Note_on_c, 1, 45, 89
3, 16460, Control_c, 1, 64, 127
3, 16470, Note_on_c, 1, 59, 76
3, 16475, Note_on_c, 1, 61, 0
3, 16493, Control_c, 1, 64, 0
3, 16497, Note_on_c, 1, 45, 0
3, 16499, Note_on_c, 1, 59, 0
3, 16500, Note_on_c, 1, 49, 80
3, 16500, Note_on_c, 1, 57, 93
3, 16512, Control_c, 1, 64, 127
3, 16525, Note_on_c, 1, 57, 0
3, 16528, Note_on_c, 1, 55, 89
3, 16551, Control_c, 1, 64, 0
3, 16558, Note_on_c, 1, 55, 0
3, 16560, Note_on_c, 1, 49, 0
3, 16560, Note_on_c, 1, 54, 93
3, 16560, Note_on_c, 1, 50, 89
3, 16573, Control_c, 1, 64, 127
3, 16602, Note_on_c, 1, 50, 0
3, 16603, Note_on_c, 1, 54, 0
3, 16682, Control_c, 1, 64, 0
3, 16920, Note_on_c, 1, 43, 68
3, 16931, Control_c, 1, 64, 127
3, 17055, Note_on_c, 1, 43, 0
3, 17057, Control_c, 1, 64, 0
3, 17400, Note_on_c, 1, 45, 80
3, 17517, Note_on_c, 1, 45, 0
3, 17520, Note_on_c, 1, 46, 80
3, 17637, Note_on_c, 1, 46, 0
3, 17640, Note_on_c, 1, 47, 64
3, 17700, Note_on_c, 1, 50, 80
3, 17710, Control_c, 1, 64, 127
3, 17756, Control_c, 1, 64, 0
3, 17760, Note_on_c, 1, 62, 85
3, 17767, Note_on_c, 1, 50, 0
3, 17769, Control_c, 1, 64, 127
3, 17801, Note_on_c, 1, 62, 0
3, 17810, Note_on_c, 1, 47, 0
3, 17813, Control_c, 1, 64, 0
3, 17820, Note_on_c, 1, 62, 89
3, 17833, Note_on_c, 1, 62, 0
3, 17880, Note_on_c, 1, 62, 85
3, 17895, Note_on_c, 1, 62, 0
3, 17940, Note_on_c, 1, 62, 85
3, 17952, Note_on_c, 1, 62, 0
3, 18000, Note_on_c, 1, 62, 93
3, 18000, Note_on_c, 1, 43, 80
3, 18060, Note_on_c, 1, 59, 89
3, 18065, Note_on_c, 1, 62, 0
3, 18068, Note_on_c, 1, 59, 0
3, 18120, Note_on_c, 1, 59, 89
3, 18121, Note_on_c, 1, 43, 0
3, 18180, Note_on_c, 1, 55, 64
3, 18182, Note_on_c, 1, 59, 0
3, 18190, Note_on_c, 1, 55, 0
3, 18240, Note_on_c, 1, 55, 89
3, 18300, Note_on_c, 1, 52, 64
3, 18306, Note_on_c, 1, 55, 0
3, 18316, Note_on_c, 1, 52, 0
3, 18360, Note_on_c, 1, 50, 76
3, 18486, Note_on_c, 1, 44, 64
3, 18500, Control_c, 1, 64, 127
3, 18549, Note_on_c, 1, 44, 0
3, 18600, Note_on_c, 1, 44, 60
3, 18601, Control_c, 1, 64, 0
3, 18625, Control_c, 1, 64, 127
3, 18668, Note_on_c, 1, 44, 0
3, 18720, Note_on_c, 1, 44, 72
3, 18721, Control_c, 1, 64, 0
3, 18749, Control_c, 1, 64, 127
3, 18843, Note_on_c, 1, 50, 0
3, 18853, Control_c, 1, 64, 0
3, 19050, Note_on_c, 1, 54, 85
3, 19062, Note_on_c, 1, 54, 0
3, 19080, Note_on_c, 1, 44, 0
3, 19080, Note_on_c, 1, 43, 72
3, 19080, Note_on_c, 1, 51, 85
3, 19091, Note_on_c, 1, 51, 0
3, 19200, Note_on_c, 1, 55, 93
3, 19211, Note_on_c, 1, 55, 0
3, 19320, Note_on_c, 1, 46, 85
3, 19332, Note_on_c, 1, 46, 0
3, 19434, Note_on_c, 1, 43, 0
3, 19440, Note_on_c, 1, 44, 64
3, 19440, Note_on_c, 1, 50, 85
3, 19453, Note_on_c, 1, 50, 0
3, 19560, Note_on_c, 1, 53, 76
3, 19571, Note_on_c, 1, 53, 0
3, 19770, Note_on_c, 1, 53, 80
3, 19783, Note_on_c, 1, 53, 0
3, 19800, Note_on_c, 1, 51, 80
3, 19800, Note_on_c, 1, 43, 72
3, 19805, Note_on_c, 1, 44, 0
3, 19814, Note_on_c, 1, 51, 0
3, 19920, Note_on_c, 1, 55, 80
3, 19934, Note_on_c, 1, 55, 0
3, 20040, Note_on_c, 1, 46, 76
3, 20056, Note_on_c, 1, 46, 0
3, 20160, Note_on_c, 1, 46, 68
3, 20160, Note_on_c, 1, 52, 93
3, 20163, Note_on_c, 1, 43, 0
3, 20173, Note_on_c, 1, 52, 0
3, 20280, Note_on_c, 1, 55, 85
3, 20292, Note_on_c, 1, 55, 0
3, 20490, Note_on_c, 1, 55, 76
3, 20501, Note_on_c, 1, 55, 0
3, 20519, Note_on_c, 1, 46, 0
3, 20520, Note_on_c, 1, 53, 93
3, 20520, Note_on_c, 1, 45, 80
3, 20532, Note_on_c, 1, 53, 0
3, 20640, Note_on_c, 1, 57, 93
3, 20653, Note_on_c, 1, 57, 0
3, 20760, Note_on_c, 1, 48, 93
3, 20776, Note_on_c, 1, 48, 0
3, 20880, Note_on_c, 1, 45, 0
3, 20880, Note_on_c, 1, 48, 80
3, 20880, Note_on_c, 1, 54, 93
3, 20893, Note_on_c, 1, 54, 0
3, 21000, Note_on_c, 1, 57, 98
3, 21013, Note_on_c, 1, 57, 0
3, 21210, Note_on_c, 1, 57, 93
3, 21221, Note_on_c, 1, 57, 0
3, 21240, Note_on_c, 1, 48, 0
3, 21240, Note_on_c, 1, 47, 93
3, 21240, Note_on_c, 1, 55, 102
3, 21252, Note_on_c, 1, 55, 0
3, 21360, Note_on_c, 1, 59, 93
3, 21371, Note_on_c, 1, 59, 0
3, 21480, Note_on_c, 1, 50, 113
3, 21492, Note_on_c, 1, 50, 0
3, 21574, Note_on_c, 1, 47, 0
3, 21600, Note_on_c, 1, 56, 107
3, 21600, Note_on_c, 1, 34, 85
3, 21600, Note_on_c, 1, 46, 107
3, 21615, Note_on_c, 1, 56, 0
3, 21720, Note_on_c, 1, 68, 113
3, 21732, Note_on_c, 1, 68, 0
3, 21943, Note_on_c, 1, 46, 0
3, 21945, Note_on_c, 1, 34, 0
3, 21960, Note_on_c, 1, 33, 80
3, 21960, Note_on_c, 1, 45, 85
3, 21960, Note_on_c, 1, 57, 102
3, 21981, Control_c, 1, 64, 127
3, 21985, Note_on_c, 1, 57, 0
3, 21990, Note_on_c, 1, 66, 89
3, 22008, Note_on_c, 1, 66, 0
3, 22009, Note_on_c, 1, 45, 0
3, 22012, Note_on_c, 1, 33, 0
3, 22020, Note_on_c, 1, 45, 85
3, 22020, Note_on_c, 1, 62, 93
3, 22042, Note_on_c, 1, 62, 0
3, 22050, Note_on_c, 1, 66, 80
3, 22055, Note_on_c, 1, 45, 0
3, 22066, Note_on_c, 1, 66, 0
3, 22080, Note_on_c, 1, 57, 93
3, 22080, Note_on_c, 1, 45, 89
3, 22100, Note_on_c, 1, 57, 0
3, 22110, Note_on_c, 1, 66, 89
3, 22115, Note_on_c, 1, 45, 0
3, 22127, Note_on_c, 1, 66, 0
3, 22132, Control_c, 1, 64, 0
3, 22140, Note_on_c, 1, 62, 85
3, 22140, Note_on_c, 1, 45, 89
3, 22144, Control_c, 1, 64, 127
3, 22166, Note_on_c, 1, 62, 0
3, 22170, Note_on_c, 1, 66, 80
3, 22179, Note_on_c, 1, 45, 0
3, 22187, Note_on_c, 1, 66, 0
3, 22188, Control_c, 1, 64, 0
3, 22200, Note_on_c, 1, 45, 85
3, 22200, Note_on_c, 1, 57, 89
3, 22202, Control_c, 1, 64, 127
3, 22221, Note_on_c, 1, 57, 0
3, 22236, Note_on_c, 1, 66, 93
3, 22242, Note_on_c, 1, 45, 0
3, 22255, Note_on_c, 1, 66, 0
3, 22260, Note_on_c, 1, 45, 89
3, 22260, Note_on_c, 1, 62, 89
3, 22273, Note_on_c, 1, 62, 0
3, 22287, Note_on_c, 1, 45, 0
3, 22290, Note_on_c, 1, 66, 76
3, 22307, Note_on_c, 1, 66, 0
3, 22315, Control_c, 1, 64, 0
3, 22320, Note_on_c, 1, 62, 93
3, 22320, Note_on_c, 1, 45, 85
3, 22332, Control_c, 1, 64, 127
3, 22334, Note_on_c, 1, 62, 0
3, 22335, Note_on_c, 1, 61, 76
3, 22347, Note_on_c, 1, 61, 0
3, 22347, Note_on_c, 1, 45, 0
3, 22350, Note_on_c, 1, 62, 80
3, 22363, Note_on_c, 1, 62, 0
3, 22365, Note_on_c, 1, 61, 68
3, 22368, Control_c, 1, 64, 0
3, 22376, Note_on_c, 1, 45, 76
3, 22380, Note_on_c, 1, 61, 0
3, 22380, Note_on_c, 1, 62, 68
3, 22381, Control_c, 1, 64, 127
3, 22395, Note_on_c, 1, 62, 0
3, 22395, Note_on_c, 1, 61, 62
3, 22398, Note_on_c, 1, 45, 0
3, 22410, Note_on_c, 1, 62, 72
3, 22413, Note_on_c, 1, 61, 0
3, 22422, Note_on_c, 1, 62, 0
3, 22425, Note_on_c, 1, 61, 89
3, 22429, Control_c, 1, 64, 0
3, 22435, Note_on_c, 1, 61, 0
3, 22440, Note_on_c, 1, 62, 93
3, 22440, Note_on_c, 1, 45, 93
3, 22444, Control_c, 1, 64, 127
3, 22454, Note_on_c, 1, 62, 0
3, 22455, Note_on_c, 1, 61, 68
3, 22459, Note_on_c, 1, 45, 0
3, 22468, Note_on_c, 1, 61, 0
3, 22470, Note_on_c, 1, 62, 76
3, 22484, Note_on_c, 1, 62, 0
3, 22485, Note_on_c, 1, 61, 47
3, 22492, Control_c, 1, 64, 0
3, 22500, Note_on_c, 1, 61, 0
3, 22500, Note_on_c, 1, 45, 93
3, 22500, Note_on_c, 1, 62, 93
3, 22505, Control_c, 1, 64, 127
3, 22514, Note_on_c, 1, 62, 0
3, 22515, Note_on_c, 1, 61, 60
3, 22525, Note_on_c, 1, 45, 0
3, 22529, Note_on_c, 1, 61, 0
3, 22530, Note_on_c, 1, 62, 80
3, 22543, Note_on_c, 1, 62, 0
3, 22545, Note_on_c, 1, 61, 56
3, 22552, Control_c, 1, 64, 0
3, 22558, Note_on_c, 1, 61, 0
3, 22560, Note_on_c, 1, 62, 85
3, 22560, Note_on_c, 1, 45, 89
3, 22566, Control_c, 1, 64, 127
3, 22575, Note_on_c, 1, 62, 0
3, 22575, Note_on_c, 1, 61, 55
3, 22584, Note_on_c, 1, 45, 0
3, 22589, Note_on_c, 1, 61, 0
3, 22590, Note_on_c, 1, 62, 76
3, 22604, Note_on_c, 1, 62, 0
3, 22605, Note_on_c, 1, 61, 76
3, 22615, Note_on_c, 1, 61, 0
3, 22616, Control_c, 1, 64, 0
3, 22620, Note_on_c, 1, 62, 93
3, 22620, Note_on_c, 1, 45, 93
3, 22631, Control_c, 1, 64, 127
3, 22635, Note_on_c, 1, 62, 0
3, 22635, Note_on_c, 1, 61, 80
3, 22638, Note_on_c, 1, 45, 0
3, 22650, Note_on_c, 1, 59, 72
3, 22651, Note_on_c, 1, 61, 0
3, 22661, Note_on_c, 1, 59, 0
3, 22665, Note_on_c, 1, 61, 89
3, 22673, Control_c, 1, 64, 0
3, 22675, Note_on_c, 1, 61, 0
3, 22687, Note_on_c, 1, 38, 85
3, 22687, Note_on_c, 1, 62, 93
3, 22688, Control_c, 1, 64, 127
3, 22732, Control_c, 1, 64, 0
3, 22747, Control_c, 1, 64, 127
3, 22789, Control_c, 1, 64, 0
3, 22803, Control_c, 1, 64, 127
3, 22806, Note_on_c, 1, 62, 0
3, 22806, Note_on_c, 1, 38, 0
3, 22850, Control_c, 1, 64, 0
3, 22871, Control_c, 1, 64, 127
3, 22990, Control_c, 1, 64, 0
3, 23400, Note_on_c, 1, 57, 76
3, 23400, Note_on_c, 1, 45, 76
3, 23456, Control_c, 1, 64, 127
3, 23487, Control_c, 1, 64, 0
3, 23490, Note_on_c, 1, 47, 62
3, 23490, Note_on_c, 1, 59, 68
3, 23491, Note_on_c, 1, 57, 0
3, 23492, Note_on_c, 1, 45, 0
3, 23505, Note_on_c, 1, 61, 55
3, 23505, Note_on_c, 1, 49, 68
3, 23508, Note_on_c, 1, 59, 0
3, 23511, Note_on_c, 1, 47, 0
3, 23519, Note_on_c, 1, 61, 0
3, 23520, Note_on_c, 1, 62, 62
3, 23520, Note_on_c, 1, 50, 62
3, 23524, Note_on_c, 1, 49, 0
3, 23639, Note_on_c, 1, 50, 0
3, 23643, Note_on_c, 1, 62, 0
3, 24120, Note_on_c, 1, 45, 76
3, 24120, Note_on_c, 1, 57, 80
3, 24207, Note_on_c, 1, 57, 0
3, 24208, Note_on_c, 1, 45, 0
3, 24210, Note_on_c, 1, 47, 64
3, 24210, Note_on_c, 1, 59, 76
3, 24225, Note_on_c, 1, 49, 53
3, 24225, Note_on_c, 1, 61, 59
3, 24230, Note_on_c, 1, 59, 0
3, 24232, Note_on_c, 1, 47, 0
3, 24240, Note_on_c, 1, 62, 72
3, 24240, Note_on_c, 1, 50, 68
3, 24241, Note_on_c, 1, 61, 0
3, 24243, Note_on_c, 1, 49, 0
3, 24298, Control_c, 1, 64, 127
3, 24365, Note_on_c, 1, 62, 0
3, 24365, Note_on_c, 1, 50, 0
3, 24371, Control_c, 1, 64, 0
3, 24660, Note_on_c, 1, 45, 93
3, 24660, Note_on_c, 1, 57, 107
3, 24669, Note_on_c, 1, 57, 0
3, 24672, Note_on_c, 1, 45, 0
3, 24720, Note_on_c, 1, 45, 89
3, 24720, Note_on_c, 1, 57, 102
3, 24730, Note_on_c, 1, 57, 0
3, 24732, Note_on_c, 1, 45, 0
3, 24780, Note_on_c, 1, 57, 89
3, 24780, Note_on_c, 1, 45, 80
3, 24791, Note_on_c, 1, 45, 0
3, 24791, Note_on_c, 1, 57, 0
3, 24840, Note_on_c, 1, 57, 93
3, 24840, Note_on_c, 1, 45, 85
3, 25017, Note_on_c, 1, 45, 0
3, 25020, Note_on_c, 1, 43, 89
3, 25020, Note_on_c, 1, 55, 93
3, 25021, Note_on_c, 1, 57, 0
3, 25032, Note_on_c, 1, 55, 0
3, 25035, Note_on_c, 1, 43, 0
3, 25080, Note_on_c, 1, 42, 72
3, 25080, Note_on_c, 1, 54, 89
3, 25091, Note_on_c, 1, 54, 0
3, 25096, Note_on_c, 1, 42, 0
3, 25134, Note_on_c, 1, 40, 89
3, 25140, Note_on_c, 1, 52, 93
3, 25152, Note_on_c, 1, 40, 0
3, 25154, Note_on_c, 1, 52, 0
3, 25200, Note_on_c, 1, 38, 85
3, 25200, Note_on_c, 1, 50, 93
3, 25208, Control_c, 1, 64, 127
3, 25263, Control_c, 1, 64, 0
3, 25264, Note_on_c, 1, 38, 0
3, 25265, Note_on_c, 1, 50, 0
3, 25320, Note_on_c, 1, 55, 80
3, 25320, Note_on_c, 1, 43, 76
3, 25339, Control_c, 1, 64, 127
3, 25382, Note_on_c, 1, 43, 0
3, 25382, Note_on_c, 1, 55, 0
3, 25383, Control_c, 1, 64, 0
3, 25440, Note_on_c, 1, 57, 93
3, 25440, Note_on_c, 1, 45, 85
3, 25452, Control_c, 1, 64, 127
3, 25513, Note_on_c, 1, 57, 0
3, 25514, Note_on_c, 1, 45, 0
3, 25524, Control_c, 1, 64, 0
3, 25560, Note_on_c, 1, 38, 93
3, 25560, Note_on_c, 1, 50, 85
3, 25579, Control_c, 1, 64, 127
3, 25609, Note_on_c, 1, 38, 0
3, 25611, Note_on_c, 1, 50, 0
3, 25681, Control_c, 1, 64, 0
3, 25740, Note_on_c, 1, 67, 64
3, 25740, Note_on_c, 1, 59, 57
3, 25740, Note_on_c, 1, 62, 55
3, 25755, Control_c, 1, 64, 127
3, 25777, Note_on_c, 1, 62, 0
3, 25777, Note_on_c, 1, 59, 0
3, 25781, Note_on_c, 1, 67, 0
3, 25800, Note_on_c, 1, 67, 72
3, 25800, Note_on_c, 1, 59, 57
3, 25800, Note_on_c, 1, 62, 57
3, 25828, Note_on_c, 1, 62, 0
3, 25831, Note_on_c, 1, 59, 0
3, 25837, Note_on_c, 1, 67, 0
3, 25860, Note_on_c, 1, 67, 89
3, 25860, Note_on_c, 1, 59, 55
3, 25860, Note_on_c, 1, 62, 68
3, 25887, Note_on_c, 1, 62, 0
3, 25892, Note_on_c, 1, 59, 0
3, 25897, Note_on_c, 1, 67, 0
3, 25920, Note_on_c, 1, 67, 80
3, 25920, Note_on_c, 1, 59, 62
3, 25920, Note_on_c, 1, 62, 60
3, 25932, Control_c, 1, 64, 0
3, 25978, Control_c, 1, 64, 127
3, 26069, Note_on_c, 1, 59, 0
3, 26070, Note_on_c, 1, 62, 0
3, 26094, Note_on_c, 1, 67, 0
3, 26098, Control_c, 1, 64, 0
3, 26100, Note_on_c, 1, 66, 72
3, 26100, Note_on_c, 1, 61, 59
3, 26100, Note_on_c, 1, 57, 76
3, 26113, Control_c, 1, 64, 127
3, 26125, Note_on_c, 1, 57, 0
3, 26125, Note_on_c, 1, 61, 0
3, 26135, Note_on_c, 1, 66, 0
3, 26160, Note_on_c, 1, 64, 85
3, 26160, Note_on_c, 1, 59, 72
3, 26160, Note_on_c, 1, 55, 72
3, 26161, Control_c, 1, 64, 0
3, 26178, Control_c, 1, 64, 127
3, 26185, Note_on_c, 1, 55, 0
3, 26189, Note_on_c, 1, 59, 0
3, 26196, Note_on_c, 1, 64, 0
3, 26216, Control_c, 1, 64, 0
3, 26220, Note_on_c, 1, 62, 76
3, 26220, Note_on_c, 1, 54, 60
3, 26220, Note_on_c, 1, 57, 64
3, 26234, Control_c, 1, 64, 127
3, 26246, Note_on_c, 1, 57, 0
3, 26250, Note_on_c, 1, 54, 0
3, 26253, Note_on_c, 1, 62, 0
3, 26280, Note_on_c, 1, 66, 72
3, 26280, Note_on_c, 1, 57, 64
3, 26280, Note_on_c, 1, 55, 62
3, 26281, Control_c, 1, 64, 0
3, 26316, Control_c, 1, 64, 127
3, 26340, Note_on_c, 1, 66, 0
3, 26340, Note_on_c, 1, 64, 62
3, 26394, Control_c, 1, 64, 0
3, 26396, Note_on_c, 1, 64, 0
3, 26397, Note_on_c, 1, 55, 0
3, 26400, Note_on_c, 1, 54, 57
3, 26400, Note_on_c, 1, 62, 72
3, 26415, Control_c, 1, 64, 127
3, 26427, Note_on_c, 1, 54, 0
3, 26430, Note_on_c, 1, 57, 0
3, 26436, Note_on_c, 1, 62, 0
3, 26457, Control_c, 1, 64, 0
3, 26460, Note_on_c, 1, 62, 76
3, 26460, Note_on_c, 1, 67, 76
3, 26460, Note_on_c, 1, 59, 72
3, 26481, Control_c, 1, 64, 127
3, 26495, Note_on_c, 1, 62, 0
3, 26497, Note_on_c, 1, 59, 0
3, 26497, Note_on_c, 1, 67, 0
3, 26516, Control_c, 1, 64, 0
3, 26520, Note_on_c, 1, 67, 85
3, 26520, Note_on_c, 1, 59, 89
3, 26520, Note_on_c, 1, 62, 76
3, 26531, Control_c, 1, 64, 127
3, 26556, Note_on_c, 1, 62, 0
3, 26558, Note_on_c, 1, 59, 0
3, 26558, Note_on_c, 1, 67, 0
3, 26580, Note_on_c, 1, 67, 85
3, 26580, Note_on_c, 1, 62, 80
3, 26580, Note_on_c, 1, 59, 80
3, 26604, Note_on_c, 1, 59, 0
3, 26609, Note_on_c, 1, 62, 0
3, 26610, Note_on_c, 1, 67, 0
3, 26640, Note_on_c, 1, 67, 89
3, 26640, Note_on_c, 1, 59, 68
3, 26640, Note_on_c, 1, 62, 76
3, 26643, Control_c, 1, 64, 0
3, 26668, Control_c, 1, 64, 127
3, 26765, Note_on_c, 1, 62, 0
3, 26770, Note_on_c, 1, 59, 0
3, 26783, Note_on_c, 1, 67, 0
3, 26811, Control_c, 1, 64, 0
3, 26820, Note_on_c, 1, 66, 68
3, 26820, Note_on_c, 1, 61, 56
3, 26820, Note_on_c, 1, 57, 76
3, 26827, Control_c, 1, 64, 127
3, 26840, Note_on_c, 1, 57, 0
3, 26840, Note_on_c, 1, 61, 0
3, 26855, Note_on_c, 1, 66, 0
3, 26871, Control_c, 1, 64, 0
3, 26880, Note_on_c, 1, 64, 76
3, 26880, Note_on_c, 1, 55, 60
3, 26880, Note_on_c, 1, 59, 56
3, 26886, Control_c, 1, 64, 127
3, 26906, Note_on_c, 1, 59, 0
3, 26911, Note_on_c, 1, 55, 0
3, 26916, Note_on_c, 1, 64, 0
3, 26935, Control_c, 1, 64, 0
3, 26940, Note_on_c, 1, 54, 60
3, 26940, Note_on_c, 1, 62, 76
3, 26940, Note_on_c, 1, 57, 76
3, 26952, Control_c, 1, 64, 127
3, 26964, Note_on_c, 1, 57, 0
3, 26968, Note_on_c, 1, 62, 0
3, 26970, Note_on_c, 1, 54, 0
3, 27000, Note_on_c, 1, 66, 76
3, 27000, Note_on_c, 1, 55, 57
3, 27000, Note_on_c, 1, 57, 76
3, 27001, Control_c, 1, 64, 0
3, 27032, Control_c, 1, 64, 127
3, 27060, Note_on_c, 1, 64, 72
3, 27061, Note_on_c, 1, 66, 0
3, 27111, Control_c, 1, 64, 0
3, 27114, Note_on_c, 1, 64, 0
3, 27118, Note_on_c, 1, 55, 0
3, 27120, Note_on_c, 1, 54, 52
3, 27120, Note_on_c, 1, 62, 72
3, 27130, Control_c, 1, 64, 127
3, 27143, Note_on_c, 1, 54, 0
3, 27146, Note_on_c, 1, 57, 0
3, 27148, Note_on_c, 1, 62, 0
3, 27178, Control_c, 1, 64, 0
3, 27180, Note_on_c, 1, 67, 98
3, 27180, Note_on_c, 1, 62, 107
3, 27180, Note_on_c, 1, 47, 102
3, 27180, Note_on_c, 1, 59, 89
3, 27193, Note_on_c, 1, 59, 0
3, 27195, Note_on_c, 1, 62, 0
3, 27196, Note_on_c, 1, 47, 0
3, 27196, Note_on_c, 1, 67, 0
3, 27240, Note_on_c, 1, 62, 93
3, 27240, Note_on_c, 1, 47, 93
3, 27240, Note_on_c, 1, 67, 89
3, 27240, Note_on_c, 1, 59, 80
3, 27254, Note_on_c, 1, 59, 0
3, 27254, Note_on_c, 1, 67, 0
3, 27254, Note_on_c, 1, 47, 0
3, 27255, Note_on_c, 1, 62, 0
3, 27300, Note_on_c, 1, 62, 89
3, 27300, Note_on_c, 1, 47, 93
3, 27300, Note_on_c, 1, 67, 93
3, 27300, Note_on_c, 1, 59, 80
3, 27310, Note_on_c, 1, 67, 0
3, 27311, Note_on_c, 1, 59, 0
3, 27312, Note_on_c, 1, 47, 0
3, 27313, Note_on_c, 1, 62, 0
3, 27360, Note_on_c, 1, 67, 93
3, 27360, Note_on_c, 1, 62, 93
3, 27360, Note_on_c, 1, 47, 93
3, 27360, Note_on_c, 1, 59, 80
3, 27391, Control_c, 1, 64, 127
3, 27468, Note_on_c, 1, 47, 0
3, 27469, Note_on_c, 1, 59, 0
3, 27484, Note_on_c, 1, 67, 0
3, 27488, Note_on_c, 1, 62, 0
3, 27526, Control_c, 1, 64, 0
3, 27540, Note_on_c, 1, 45, 85
3, 27540, Note_on_c, 1, 61, 89
3, 27540, Note_on_c, 1, 66, 76
3, 27540, Note_on_c, 1, 57, 76
3, 27544, Control_c, 1, 64, 127
3, 27566, Note_on_c, 1, 57, 0
3, 27566, Note_on_c, 1, 66, 0
3, 27567, Note_on_c, 1, 61, 0
3, 27568, Note_on_c, 1, 45, 0
3, 27590, Control_c, 1, 64, 0
3, 27600, Note_on_c, 1, 43, 76
3, 27600, Note_on_c, 1, 55, 76
3, 27600, Note_on_c, 1, 64, 93
3, 27600, Note_on_c, 1, 59, 93
3, 27607, Control_c, 1, 64, 127
3, 27622, Note_on_c, 1, 55, 0
3, 27624, Note_on_c, 1, 43, 0
3, 27628, Note_on_c, 1, 59, 0
3, 27629, Note_on_c, 1, 64, 0
3, 27647, Control_c, 1, 64, 0
3, 27660, Note_on_c, 1, 62, 89
3, 27660, Note_on_c, 1, 42, 76
3, 27660, Note_on_c, 1, 57, 89
3, 27660, Note_on_c, 1, 54, 68
3, 27664, Control_c, 1, 64, 127
3, 27679, Note_on_c, 1, 54, 0
3, 27680, Note_on_c, 1, 62, 0
3, 27681, Note_on_c, 1, 42, 0
3, 27691, Note_on_c, 1, 57, 0
3, 27714, Control_c, 1, 64, 0
3, 27720, Note_on_c, 1, 40, 89
3, 27720, Note_on_c, 1, 55, 93
3, 27720, Note_on_c, 1, 52, 85
3, 27720, Note_on_c, 1, 61, 93
3, 27820, Control_c, 1, 64, 127
3, 27856, Note_on_c, 1, 40, 0
3, 27857, Note_on_c, 1, 55, 0
3, 27859, Note_on_c, 1, 61, 0
3, 27862, Note_on_c, 1, 52, 0
3, 27883, Control_c, 1, 64, 0
3, 27900, Note_on_c, 1, 63, 80
3, 27900, Note_on_c, 1, 42, 72
3, 27900, Note_on_c, 1, 54, 64
3, 27900, Note_on_c, 1, 60, 93
3, 27900, Note_on_c, 1, 57, 98
3, 27909, Control_c, 1, 64, 127
3, 27941, Note_on_c, 1, 57, 0
3, 27941, Note_on_c, 1, 63, 0
3, 27941, Note_on_c, 1, 60, 0
3, 27942, Note_on_c, 1, 54, 0
3, 27943, Note_on_c, 1, 42, 0
3, 27947, Control_c, 1, 64, 0
3, 27960, Note_on_c, 1, 63, 80
3, 27960, Note_on_c, 1, 60, 80
3, 27960, Note_on_c, 1, 42, 76
3, 27960, Note_on_c, 1, 57, 93
3, 27960, Note_on_c, 1, 54, 76
3, 27965, Control_c, 1, 64, 127
3, 27996, Note_on_c, 1, 57, 0
3, 27996, Note_on_c, 1, 60, 0
3, 27997, Note_on_c, 1, 63, 0
3, 27997, Note_on_c, 1, 54, 0
3, 27999, Note_on_c, 1, 42, 0
3, 28020, Note_on_c, 1, 63, 72
3, 28020, Note_on_c, 1, 57, 80
3, 28020, Note_on_c, 1, 60, 85
3, 28020, Note_on_c, 1, 42, 80
3, 28020, Note_on_c, 1, 54, 68
3, 28043, Note_on_c, 1, 54, 0
3, 28044, Note_on_c, 1, 57, 0
3, 28045, Note_on_c, 1, 42, 0
3, 28046, Note_on_c, 1, 60, 0
3, 28047, Note_on_c, 1, 63, 0
3, 28078, Control_c, 1, 64, 0
3, 28080, Note_on_c, 1, 42, 85
3, 28080, Note_on_c, 1, 54, 72
3, 28080, Note_on_c, 1, 60, 93
3, 28080, Note_on_c, 1, 57, 98
3, 28080, Note_on_c, 1, 63, 85
3, 28111, Control_c, 1, 64, 127
3, 28216, Note_on_c, 1, 60, 0
3, 28219, Note_on_c, 1, 42, 0
3, 28220, Note_on_c, 1, 63, 0
3, 28220, Note_on_c, 1, 54, 0
3, 28228, Note_on_c, 1, 57, 0
3, 28257, Control_c, 1, 64, 0
3, 28260, Note_on_c, 1, 59, 93
3, 28260, Note_on_c, 1, 64, 93
3, 28260, Note_on_c, 1, 43, 76
3, 28260, Note_on_c, 1, 55, 72
3, 28277, Control_c, 1, 64, 127
3, 28299, Note_on_c, 1, 55, 0
3, 28301, Note_on_c, 1, 43, 0
3, 28302, Note_on_c, 1, 64, 0
3, 28302, Note_on_c, 1, 59, 0
3, 28320, Note_on_c, 1, 64, 89
3, 28320, Note_on_c, 1, 59, 89
3, 28320, Note_on_c, 1, 43, 72
3, 28320, Note_on_c, 1, 55, 62
3, 28356, Note_on_c, 1, 55, 0
3, 28357, Note_on_c, 1, 43, 0
3, 28359, Note_on_c, 1, 59, 0
3, 28360, Note_on_c, 1, 64, 0
3, 28380, Note_on_c, 1, 64, 80
3, 28380, Note_on_c, 1, 59, 85
3, 28380, Note_on_c, 1, 43, 76
3, 28380, Note_on_c, 1, 55, 64
3, 28412, Note_on_c, 1, 55, 0
3, 28412, Note_on_c, 1, 43, 0
3, 28415, Note_on_c, 1, 59, 0
3, 28415, Note_on_c, 1, 64, 0
3, 28440, Note_on_c, 1, 64, 93
3, 28440, Note_on_c, 1, 59, 98
3, 28440, Note_on_c, 1, 43, 89
3, 28440, Note_on_c, 1, 55, 76
3, 28441, Control_c, 1, 64, 0
3, 28465, Control_c, 1, 64, 127
3, 28565, Note_on_c, 1, 55, 0
3, 28565, Note_on_c, 1, 43, 0
3, 28566, Note_on_c, 1, 59, 0
3, 28567, Control_c, 1, 64, 0
3, 28569, Note_on_c, 1, 64, 0
3, 28980, Note_on_c, 1, 66, 55
3, 28980, Note_on_c, 1, 62, 62
3, 28980, Note_on_c, 1, 57, 56
3, 28985, Control_c, 1, 64, 127
3, 29008, Note_on_c, 1, 57, 0
3, 29011, Note_on_c, 1, 62, 0
3, 29012, Note_on_c, 1, 66, 0
3, 29040, Note_on_c, 1, 62, 60
3, 29040, Note_on_c, 1, 66, 55
3, 29040, Note_on_c, 1, 57, 57
3, 29067, Note_on_c, 1, 66, 0
3, 29072, Note_on_c, 1, 57, 0
3, 29072, Note_on_c, 1, 62, 0
3, 29100, Note_on_c, 1, 62, 62
3, 29100, Note_on_c, 1, 66, 53
3, 29100, Note_on_c, 1, 57, 51
3, 29119, Note_on_c, 1, 57, 0
3, 29123, Note_on_c, 1, 66, 0
3, 29123, Note_on_c, 1, 62, 0
3, 29160, Note_on_c, 1, 61, 56
3, 29160, Note_on_c, 1, 67, 59
3, 29160, Note_on_c, 1, 57, 59
3, 29160, Control_c, 1, 64, 0
3, 29182, Control_c, 1, 64, 127
3, 29223, Note_on_c, 1, 67, 0
3, 29224, Note_on_c, 1, 61, 0
3, 29226, Note_on_c, 1, 57, 0
3, 29282, Control_c, 1, 64, 0
3, 29338, Control_c, 1, 64, 127
3, 29340, Note_on_c, 1, 55, 56
3, 29340, Note_on_c, 1, 45, 62
3, 29340, Note_on_c, 1, 64, 57
3, 29373, Note_on_c, 1, 45, 0
3, 29375, Note_on_c, 1, 55, 0
3, 29377, Note_on_c, 1, 64, 0
3, 29394, Note_on_c, 1, 55, 62
3, 29397, Note_on_c, 1, 64, 60
3, 29400, Note_on_c, 1, 45, 62
3, 29423, Note_on_c, 1, 55, 0
3, 29427, Note_on_c, 1, 45, 0
3, 29427, Note_on_c, 1, 64, 0
3, 29460, Note_on_c, 1, 64, 52
3, 29460, Note_on_c, 1, 55, 55
3, 29460, Note_on_c, 1, 45, 62
3, 29471, Note_on_c, 1, 45, 0
3, 29474, Note_on_c, 1, 55, 0
3, 29476, Note_on_c, 1, 64, 0
3, 29514, Control_c, 1, 64, 0
3, 29520, Note_on_c, 1, 62, 76
3, 29520, Note_on_c, 1, 54, 53
3, 29520, Note_on_c, 1, 50, 60
3, 29538, Control_c, 1, 64, 127
3, 29577, Note_on_c, 1, 54, 0
3, 29578, Note_on_c, 1, 50, 0
3, 29579, Note_on_c, 1, 62, 0
3, 29652, Control_c, 1, 64, 0
3, 29698, Control_c, 1, 64, 127
3, 29700, Note_on_c, 1, 73, 60
3, 29700, Note_on_c, 1, 67, 64
3, 29700, Note_on_c, 1, 57, 62
3, 29700, Note_on_c, 1, 64, 56
3, 29735, Note_on_c, 1, 57, 0
3, 29736, Note_on_c, 1, 64, 0
3, 29737, Note_on_c, 1, 67, 0
3, 29739, Note_on_c, 1, 73, 0
3, 29760, Note_on_c, 1, 73, 64
3, 29760, Note_on_c, 1, 67, 76
3, 29760, Note_on_c, 1, 57, 68
3, 29760, Note_on_c, 1, 64, 59
3, 29788, Note_on_c, 1, 64, 0
3, 29788, Note_on_c, 1, 57, 0
3, 29793, Note_on_c, 1, 67, 0
3, 29794, Note_on_c, 1, 73, 0
3, 29820, Note_on_c, 1, 73, 55
3, 29820, Note_on_c, 1, 67, 64
3, 29820, Note_on_c, 1, 57, 60
3, 29820, Note_on_c, 1, 64, 56
3, 29837, Note_on_c, 1, 57, 0
3, 29837, Note_on_c, 1, 67, 0
3, 29838, Note_on_c, 1, 73, 0
3, 29840, Note_on_c, 1, 64, 0
3, 29880, Note_on_c, 1, 74, 64
3, 29880, Note_on_c, 1, 66, 53
3, 29880, Control_c, 1, 64, 0
3, 29880, Note_on_c, 1, 62, 62
3, 29902, Control_c, 1, 64, 127
3, 29937, Note_on_c, 1, 74, 0
3, 29939, Note_on_c, 1, 66, 0
3, 29944, Note_on_c, 1, 62, 0
3, 30023, Control_c, 1, 64, 0
3, 30060, Note_on_c, 1, 61, 57
3, 30060, Note_on_c, 1, 45, 64
3, 30060, Note_on_c, 1, 67, 64
3, 30060, Note_on_c, 1, 52, 53
3, 30072, Control_c, 1, 64, 127
3, 30092, Note_on_c, 1, 45, 0
3, 30092, Note_on_c, 1, 61, 0
3, 30094, Note_on_c, 1, 52, 0
3, 30097, Note_on_c, 1, 67, 0
3, 30120, Note_on_c, 1, 67, 76
3, 30120, Note_on_c, 1, 61, 45
3, 30120, Note_on_c, 1, 45, 57
3, 30120, Note_on_c, 1, 52, 51
3, 30141, Note_on_c, 1, 52, 0
3, 30142, Note_on_c, 1, 45, 0
3, 30146, Note_on_c, 1, 61, 0
3, 30147, Note_on_c, 1, 67, 0
3, 30180, Note_on_c, 1, 61, 56
3, 30180, Note_on_c, 1, 45, 62
3, 30180, Note_on_c, 1, 67, 72
3, 30180, Note_on_c, 1, 52, 53
3, 30200, Note_on_c, 1, 61, 0
3, 30201, Note_on_c, 1, 45, 0
3, 30201, Note_on_c, 1, 52, 0
3, 30203, Note_on_c, 1, 67, 0
3, 30232, Control_c, 1, 64, 0
3, 30240, Note_on_c, 1, 50, 64
3, 30240, Note_on_c, 1, 62, 57
3, 30240, Note_on_c, 1, 66, 62
3, 30261, Control_c, 1, 64, 127
3, 30326, Note_on_c, 1, 66, 0
3, 30327, Note_on_c, 1, 62, 0
3, 30328, Note_on_c, 1, 50, 0
3, 30369, Control_c, 1, 64, 0
3, 30420, Note_on_c, 1, 67, 64
3, 30420, Note_on_c, 1, 73, 62
3, 30420, Note_on_c, 1, 64, 55
3, 30420, Note_on_c, 1, 57, 56
3, 30423, Control_c, 1, 64, 127
3, 30454, Note_on_c, 1, 73, 0
3, 30455, Note_on_c, 1, 67, 0
3, 30455, Note_on_c, 1, 57, 0
3, 30456, Note_on_c, 1, 64, 0
3, 30480, Note_on_c, 1, 73, 62
3, 30480, Note_on_c, 1, 67, 72
3, 30480, Note_on_c, 1, 57, 64
3, 30480, Note_on_c, 1, 64, 56
3, 30510, Note_on_c, 1, 64, 0
3, 30511, Note_on_c, 1, 57, 0
3, 30511, Note_on_c, 1, 73, 0
3, 30512, Note_on_c, 1, 67, 0
3, 30540, Note_on_c, 1, 57, 64
3, 30540, Note_on_c, 1, 73, 64
3, 30540, Note_on_c, 1, 67, 72
3, 30540, Note_on_c, 1, 64, 57
3, 30561, Note_on_c, 1, 73, 0
3, 30565, Note_on_c, 1, 57, 0
3, 30565, Note_on_c, 1, 67, 0
3, 30567, Note_on_c, 1, 64, 0
3, 30600, Note_on_c, 1, 66, 59
3, 30600, Note_on_c, 1, 74, 68
3, 30600, Note_on_c, 1, 62, 64
3, 30604, Control_c, 1, 64, 0
3, 30627, Control_c, 1, 64, 127
3, 30657, Note_on_c, 1, 74, 0
3, 30658, Note_on_c, 1, 62, 0
3, 30662, Note_on_c, 1, 66, 0
3, 30723, Control_c, 1, 64, 0
3, 30780, Note_on_c, 1, 61, 59
3, 30780, Note_on_c, 1, 45, 60
3, 30780, Note_on_c, 1, 52, 55
3, 30780, Note_on_c, 1, 67, 76
3, 30780, Control_c, 1, 64, 127
3, 30811, Note_on_c, 1, 52, 0
3, 30812, Note_on_c, 1, 45, 0
3, 30816, Note_on_c, 1, 61, 0
3, 30816, Note_on_c, 1, 67, 0
3, 30840, Note_on_c, 1, 61, 60
3, 30840, Note_on_c, 1, 67, 76
3, 30840, Note_on_c, 1, 45, 60
3, 30840, Note_on_c, 1, 52, 52
3, 30855, Note_on_c, 1, 52, 0
3, 30862, Note_on_c, 1, 45, 0
3, 30868, Note_on_c, 1, 67, 0
3, 30868, Note_on_c, 1, 61, 0
3, 30900, Note_on_c, 1, 45, 56
3, 30900, Note_on_c, 1, 67, 76
3, 30900, Note_on_c, 1, 61, 62
3, 30900, Note_on_c, 1, 52, 50
3, 30919, Note_on_c, 1, 67, 0
3, 30923, Note_on_c, 1, 52, 0
3, 30923, Note_on_c, 1, 61, 0
3, 30925, Note_on_c, 1, 45, 0
3, 30954, Control_c, 1, 64, 0
3, 30960, Note_on_c, 1, 66, 62
3, 30960, Note_on_c, 1, 50, 62
3, 30960, Note_on_c, 1, 62, 80
3, 30986, Control_c, 1, 64, 127
3, 31085, Note_on_c, 1, 62, 0
3, 31086, Note_on_c, 1, 50, 0
3, 31087, Note_on_c, 1, 66, 0
3, 31087, Control_c, 1, 64, 0
3, 31320, Note_on_c, 1, 50, 107
3, 31350, Note_on_c, 1, 52, 93
3, 31353, Note_on_c, 1, 50, 0
3, 31378, Note_on_c, 1, 52, 0
3, 31380, Note_on_c, 1, 54, 76
3, 31410, Note_on_c, 1, 54, 0
3, 31410, Note_on_c, 1, 55, 85
3, 31440, Note_on_c, 1, 54, 89
3, 31443, Note_on_c, 1, 55, 0
3, 31470, Note_on_c, 1, 54, 0
3, 31470, Note_on_c, 1, 52, 89
3, 31487, Control_c, 1, 64, 127
3, 31496, Note_on_c, 1, 52, 0
3, 31500, Note_on_c, 1, 50, 89
3, 31505, Control_c, 1, 64, 0
3, 31530, Note_on_c, 1, 49, 89
3, 31533, Note_on_c, 1, 50, 0
3, 31560, Note_on_c, 1, 47, 89
3, 31563, Note_on_c, 1, 49, 0
3, 31590, Note_on_c, 1, 47, 0
3, 31590, Note_on_c, 1, 45, 85
3, 31616, Note_on_c, 1, 45, 0
3, 31620, Note_on_c, 1, 43, 89
3, 31649, Note_on_c, 1, 43, 0
3, 31650, Note_on_c, 1, 42, 80
3, 31680, Note_on_c, 1, 42, 0
3, 31680, Note_on_c, 1, 45, 98
3, 31710, Note_on_c, 1, 43, 89
3, 31711, Note_on_c, 1, 45, 0
3, 31740, Note_on_c, 1, 42, 76
3, 31746, Note_on_c, 1, 43, 0
3, 31762, Control_c, 1, 64, 127
3, 31770, Note_on_c, 1, 40, 85
3, 31771, Note_on_c, 1, 42, 0
3, 31777, Control_c, 1, 64, 0
3, 31798, Note_on_c, 1, 40, 0
3, 31800, Note_on_c, 1, 45, 98
3, 31824, Control_c, 1, 64, 127
3, 31836, Note_on_c, 1, 45, 0
3, 31876, Control_c, 1, 64, 0
3, 31920, Note_on_c, 1, 61, 93
3, 31920, Note_on_c, 1, 57, 107
3, 31920, Note_on_c, 1, 55, 107
3, 31920, Note_on_c, 1, 45, 93
3, 31926, Control_c, 1, 64, 127
3, 31979, Note_on_c, 1, 45, 0
3, 31979, Note_on_c, 1, 61, 0
3, 31979, Note_on_c, 1, 57, 0
3, 31979, Note_on_c, 1, 55, 0
3, 32011, Control_c, 1, 64, 0
3, 32040, Note_on_c, 1, 62, 107
3, 32040, Note_on_c, 1, 54, 93
3, 32040, Note_on_c, 1, 57, 107
3, 32040, Note_on_c, 1, 50, 93
3, 32060, Control_c, 1, 64, 127
3, 32099, Note_on_c, 1, 50, 0
3, 32099, Note_on_c, 1, 62, 0
3, 32099, Note_on_c, 1, 54, 0
3, 32099, Note_on_c, 1, 57, 0
3, 32151, Control_c, 1, 64, 0
3, 32160, Note_on_c, 1, 50, 107
3, 32160, Note_on_c, 1, 38, 93
3, 32179, Control_c, 1, 64, 127
3, 32280, Note_on_c, 1, 38, 0
3, 32280, Note_on_c, 1, 50, 0
3, 32287, Control_c, 1, 64, 0
3, 32578, Control_c, 1, 64, 127
3, 32580, Note_on_c, 1, 64, 76
3, 32580, Note_on_c, 1, 54, 49
3, 32580, Note_on_c, 1, 70, 57
3, 32580, Note_on_c, 1, 61, 56
3, 32617, Note_on_c, 1, 61, 0
3, 32618, Note_on_c, 1, 70, 0
3, 32618, Note_on_c, 1, 54, 0
3, 32620, Note_on_c, 1, 64, 0
3, 32640, Note_on_c, 1, 70, 60
3, 32640, Note_on_c, 1, 64, 76
3, 32640, Note_on_c, 1, 61, 57
3, 32640, Note_on_c, 1, 54, 55
3, 32662, Note_on_c, 1, 61, 0
3, 32669, Note_on_c, 1, 54, 0
3, 32669, Note_on_c, 1, 70, 0
3, 32673, Note_on_c, 1, 64, 0
3, 32700, Note_on_c, 1, 54, 46
3, 32700, Note_on_c, 1, 61, 50
3, 32700, Note_on_c, 1, 64, 76
3, 32700, Note_on_c, 1, 70, 60
3, 32715, Note_on_c, 1, 70, 0
3, 32718, Note_on_c, 1, 64, 0
3, 32721, Note_on_c, 1, 61, 0
3, 32723, Note_on_c, 1, 54, 0
3, 32760, Note_on_c, 1, 59, 64
3, 32760, Note_on_c, 1, 71, 76
3, 32760, Note_on_c, 1, 62, 68
3, 32762, Control_c, 1, 64, 0
3, 32790, Control_c, 1, 64, 127
3, 32833, Note_on_c, 1, 71, 0
3, 32835, Note_on_c, 1, 59, 0
3, 32838, Note_on_c, 1, 62, 0
3, 32892, Control_c, 1, 64, 0
3, 32940, Note_on_c, 1, 64, 76
3, 32940, Note_on_c, 1, 49, 57
3, 32940, Note_on_c, 1, 58, 72
3, 32940, Note_on_c, 1, 42, 44
3, 32953, Control_c, 1, 64, 127
3, 32976, Note_on_c, 1, 42, 0
3, 32978, Note_on_c, 1, 58, 0
3, 32978, Note_on_c, 1, 49, 0
3, 32984, Note_on_c, 1, 64, 0
3, 33000, Note_on_c, 1, 49, 55
3, 33000, Note_on_c, 1, 58, 62
3, 33000, Note_on_c, 1, 42, 50
3, 33000, Note_on_c, 1, 64, 62
3, 33025, Note_on_c, 1, 49, 0
3, 33026, Note_on_c, 1, 42, 0
3, 33028, Note_on_c, 1, 58, 0
3, 33032, Note_on_c, 1, 64, 0
3, 33060, Note_on_c, 1, 64, 72
3, 33060, Note_on_c, 1, 58, 59
3, 33060, Note_on_c, 1, 49, 43
3, 33060, Note_on_c, 1, 42, 41
3, 33086, Note_on_c, 1, 58, 0
3, 33086, Note_on_c, 1, 64, 0
3, 33090, Note_on_c, 1, 42, 0
3, 33092, Note_on_c, 1, 49, 0
3, 33120, Note_on_c, 1, 59, 62
3, 33120, Note_on_c, 1, 47, 60
3, 33120, Note_on_c, 1, 62, 64
3, 33122, Control_c, 1, 64, 0
3, 33149, Control_c, 1, 64, 127
3, 33167, Note_on_c, 1, 59, 0
3, 33169, Note_on_c, 1, 47, 0
3, 33170, Note_on_c, 1, 62, 0
3, 33234, Control_c, 1, 64, 0
3, 33300, Note_on_c, 1, 70, 64
3, 33300, Note_on_c, 1, 54, 60
3, 33300, Note_on_c, 1, 61, 57
3, 33300, Note_on_c, 1, 64, 80
3, 33305, Control_c, 1, 64, 127
3, 33339, Note_on_c, 1, 54, 0
3, 33340, Note_on_c, 1, 64, 0
3, 33340, Note_on_c, 1, 61, 0
3, 33342, Note_on_c, 1, 70, 0
3, 33360, Note_on_c, 1, 70, 76
3, 33360, Note_on_c, 1, 61, 62
3, 33360, Note_on_c, 1, 64, 76
3, 33360, Note_on_c, 1, 54, 57
3, 33386, Note_on_c, 1, 54, 0
3, 33389, Note_on_c, 1, 61, 0
3, 33395, Note_on_c, 1, 64, 0
3, 33395, Note_on_c, 1, 70, 0
3, 33420, Note_on_c, 1, 64, 76
3, 33420, Note_on_c, 1, 70, 51
3, 33420, Note_on_c, 1, 54, 40
3, 33420, Note_on_c, 1, 61, 38
3, 33441, Note_on_c, 1, 64, 0
3, 33443, Note_on_c, 1, 70, 0
3, 33449, Note_on_c, 1, 54, 0
3, 33449, Note_on_c, 1, 61, 0
3, 33480, Control_c, 1, 64, 0
3, 33480, Note_on_c, 1, 62, 68
3, 33480, Note_on_c, 1, 71, 64
3, 33480, Note_on_c, 1, 59, 60
3, 33519, Control_c, 1, 64, 127
3, 33591, Note_on_c, 1, 59, 0
3, 33592, Note_on_c, 1, 62, 0
3, 33593, Note_on_c, 1, 71, 0
3, 33602, Control_c, 1, 64, 0
3, 34200, Note_on_c, 1, 60, 72
3, 34209, Control_c, 1, 64, 127
3, 34230, Note_on_c, 1, 60, 0
3, 34230, Note_on_c, 1, 55, 62
3, 34258, Note_on_c, 1, 55, 0
3, 34260, Note_on_c, 1, 60, 72
3, 34260, Control_c, 1, 64, 0
3, 34290, Note_on_c, 1, 64, 80
3, 34292, Note_on_c, 1, 60, 0
3, 34320, Note_on_c, 1, 67, 72
3, 34321, Note_on_c, 1, 64, 0
3, 34345, Control_c, 1, 64, 127
3, 34453, Note_on_c, 1, 67, 0
3, 34457, Control_c, 1, 64, 0
3, 34560, Note_on_c, 1, 67, 76
3, 34569, Control_c, 1, 64, 127
3, 34589, Control_c, 1, 64, 0
3, 34590, Note_on_c, 1, 69, 80
3, 34592, Note_on_c, 1, 67, 0
3, 34620, Note_on_c, 1, 69, 0
3, 34620, Note_on_c, 1, 71, 76
3, 34649, Note_on_c, 1, 71, 0
3, 34650, Note_on_c, 1, 72, 68
3, 34680, Note_on_c, 1, 67, 80
3, 34682, Note_on_c, 1, 72, 0
3, 34708, Control_c, 1, 64, 127
3, 34777, Note_on_c, 1, 67, 0
3, 34809, Control_c, 1, 64, 0
3, 34920, Note_on_c, 1, 60, 76
3, 34928, Control_c, 1, 64, 127
3, 34950, Note_on_c, 1, 55, 72
3, 34951, Note_on_c, 1, 60, 0
3, 34965, Control_c, 1, 64, 0
3, 34977, Note_on_c, 1, 55, 0
3, 34980, Note_on_c, 1, 60, 68
3, 35010, Note_on_c, 1, 60, 0
3, 35010, Note_on_c, 1, 64, 76
3, 35040, Note_on_c, 1, 67, 64
3, 35041, Note_on_c, 1, 64, 0
3, 35066, Control_c, 1, 64, 127
3, 35116, Note_on_c, 1, 67, 0
3, 35157, Control_c, 1, 64, 0
3, 35280, Note_on_c, 1, 67, 80
3, 35287, Control_c, 1, 64, 127
3, 35310, Note_on_c, 1, 69, 80
3, 35314, Note_on_c, 1, 67, 0
3, 35316, Control_c, 1, 64, 0
3, 35340, Note_on_c, 1, 71, 76
3, 35341, Note_on_c, 1, 69, 0
3, 35370, Note_on_c, 1, 72, 76
3, 35371, Note_on_c, 1, 71, 0
3, 35400, Note_on_c, 1, 67, 76
3, 35401, Note_on_c, 1, 72, 0
3, 35415, Control_c, 1, 64, 127
3, 35433, Note_on_c, 1, 67, 0
3, 35518, Control_c, 1, 64, 0
3, 35640, Note_on_c, 1, 43, 68
3, 35640, Note_on_c, 1, 55, 60
3, 35660, Control_c, 1, 64, 127
3, 35763, Note_on_c, 1, 43, 0
3, 35767, Note_on_c, 1, 55, 0
3, 35792, Control_c, 1, 64, 0
3, 35820, Note_on_c, 1, 64, 85
3, 35820, Note_on_c, 1, 61, 72
3, 35820, Note_on_c, 1, 57, 85
3, 35820, Note_on_c, 1, 55, 80
3, 35835, Control_c, 1, 64, 127
3, 35851, Note_on_c, 1, 61, 0
3, 35853, Note_on_c, 1, 55, 0
3, 35854, Note_on_c, 1, 64, 0
3, 35855, Note_on_c, 1, 57, 0
3, 35880, Note_on_c, 1, 55, 80
3, 35880, Note_on_c, 1, 57, 72
3, 35880, Note_on_c, 1, 64, 76
3, 35880, Note_on_c, 1, 61, 62
3, 35905, Note_on_c, 1, 55, 0
3, 35906, Note_on_c, 1, 61, 0
3, 35907, Note_on_c, 1, 64, 0
3, 35910, Note_on_c, 1, 57, 0
3, 35940, Note_on_c, 1, 57, 76
3, 35940, Note_on_c, 1, 61, 64
3, 35940, Note_on_c, 1, 64, 76
3, 35940, Note_on_c, 1, 55, 72
3, 35958, Note_on_c, 1, 64, 0
3, 35958, Note_on_c, 1, 57, 0
3, 35958, Note_on_c, 1, 61, 0
3, 35962, Note_on_c, 1, 55, 0
3, 35999, Control_c, 1, 64, 0
3, 36000, Note_on_c, 1, 62, 76
3, 36000, Note_on_c, 1, 65, 85
3, 36000, Note_on_c, 1, 57, 80
3, 36000, Note_on_c, 1, 41, 72
3, 36000, Note_on_c, 1, 53, 68
3, 36037, Control_c, 1, 64, 127
3, 36108, Note_on_c, 1, 41, 0
3, 36115, Note_on_c, 1, 57, 0
3, 36115, Note_on_c, 1, 65, 0
3, 36116, Note_on_c, 1, 62, 0
3, 36116, Note_on_c, 1, 53, 0
3, 36119, Control_c, 1, 64, 0
3, 36180, Note_on_c, 1, 62, 89
3, 36180, Note_on_c, 1, 65, 93
3, 36180, Note_on_c, 1, 53, 85
3, 36180, Note_on_c, 1, 57, 93
3, 36187, Control_c, 1, 64, 127
3, 36215, Note_on_c, 1, 53, 0
3, 36217, Note_on_c, 1, 57, 0
3, 36217, Note_on_c, 1, 62, 0
3, 36218, Note_on_c, 1, 65, 0
3, 36240, Note_on_c, 1, 62, 68
3, 36240, Note_on_c, 1, 65, 89
3, 36240, Note_on_c, 1, 57, 93
3, 36240, Note_on_c, 1, 53, 80
3, 36270, Note_on_c, 1, 53, 0
3, 36272, Note_on_c, 1, 62, 0
3, 36273, Note_on_c, 1, 57, 0
3, 36273, Note_on_c, 1, 65, 0
3, 36300, Note_on_c, 1, 65, 85
3, 36300, Note_on_c, 1, 57, 93
3, 36300, Note_on_c, 1, 62, 89
3, 36300, Note_on_c, 1, 53, 89
3, 36317, Note_on_c, 1, 53, 0
3, 36318, Note_on_c, 1, 62, 0
3, 36319, Note_on_c, 1, 57, 0
3, 36321, Note_on_c, 1, 65, 0
3, 36358, Control_c, 1, 64, 0
3, 36360, Note_on_c, 1, 67, 93
3, 36360, Note_on_c, 1, 57, 93
3, 36360, Note_on_c, 1, 52, 93
3, 36360, Note_on_c, 1, 61, 93
3, 36360, Note_on_c, 1, 40, 93
3, 36398, Control_c, 1, 64, 127
3, 36459, Note_on_c, 1, 40, 0
3, 36461, Note_on_c, 1, 67, 0
3, 36463, Note_on_c, 1, 61, 0
3, 36464, Note_on_c, 1, 57, 0
3, 36468, Note_on_c, 1, 52, 0
3, 36479, Control_c, 1, 64, 0
3, 36540, Note_on_c, 1, 67, 89
3, 36540, Note_on_c, 1, 57, 93
3, 36540, Note_on_c, 1, 61, 72
3, 36540, Note_on_c, 1, 52, 85
3, 36547, Control_c, 1, 64, 127
3, 36580, Note_on_c, 1, 61, 0
3, 36580, Note_on_c, 1, 57, 0
3, 36581, Note_on_c, 1, 67, 0
3, 36581, Note_on_c, 1, 52, 0
3, 36600, Note_on_c, 1, 57, 76
3, 36600, Note_on_c, 1, 67, 89
3, 36600, Note_on_c, 1, 61, 68
3, 36600, Note_on_c, 1, 52, 85
3, 36626, Note_on_c, 1, 52, 0
3, 36629, Note_on_c, 1, 61, 0
3, 36629, Note_on_c, 1, 57, 0
3, 36630, Note_on_c, 1, 67, 0
3, 36660, Note_on_c, 1, 67, 68
3, 36660, Note_on_c, 1, 61, 68
3, 36660, Note_on_c, 1, 57, 76
3, 36660, Note_on_c, 1, 52, 80
3, 36675, Note_on_c, 1, 52, 0
3, 36678, Note_on_c, 1, 61, 0
3, 36680, Note_on_c, 1, 57, 0
3, 36683, Note_on_c, 1, 67, 0
3, 36720, Note_on_c, 1, 50, 59
3, 36720, Note_on_c, 1, 62, 76
3, 36720, Note_on_c, 1, 38, 52
3, 36720, Control_c, 1, 64, 0
3, 36720, Note_on_c, 1, 65, 64
3, 36755, Control_c, 1, 64, 127
3, 36780, Note_on_c, 1, 57, 62
3, 36784, Note_on_c, 1, 62, 0
3, 36809, Note_on_c, 1, 65, 0
3, 36811, Note_on_c, 1, 57, 0
3, 36840, Note_on_c, 1, 65, 68
3, 36840, Note_on_c, 1, 62, 76
3, 36844, Note_on_c, 1, 38, 0
3, 36844, Control_c, 1, 64, 0
3, 36845, Note_on_c, 1, 50, 0
3, 36869, Control_c, 1, 64, 127
3, 36900, Note_on_c, 1, 62, 0
3, 36900, Note_on_c, 1, 57, 57
3, 36933, Note_on_c, 1, 57, 0
3, 36935, Note_on_c, 1, 65, 0
3, 36960, Note_on_c, 1, 65, 62
3, 36960, Note_on_c, 1, 62, 72
3, 36967, Control_c, 1, 64, 0
3, 36987, Control_c, 1, 64, 127
3, 37014, Note_on_c, 1, 62, 0
3, 37020, Note_on_c, 1, 57, 62
3, 37057, Note_on_c, 1, 65, 0
3, 37059, Note_on_c, 1, 57, 0
3, 37079, Control_c, 1, 64, 0
3, 37080, Note_on_c, 1, 45, 64
3, 37118, Control_c, 1, 64, 127
3, 37140, Note_on_c, 1, 61, 50
3, 37140, Note_on_c, 1, 64, 62
3, 37144, Control_c, 1, 64, 0
3, 37163, Control_c, 1, 64, 127
3, 37196, Note_on_c, 1, 64, 0
3, 37196, Control_c, 1, 64, 0
3, 37199, Note_on_c, 1, 61, 0
3, 37200, Note_on_c, 1, 62, 64
3, 37200, Note_on_c, 1, 65, 52
3, 37206, Note_on_c, 1, 45, 0
3, 37216, Control_c, 1, 64, 127
3, 37256, Note_on_c, 1, 65, 0
3, 37258, Note_on_c, 1, 62, 0
3, 37260, Note_on_c, 1, 67, 62
3, 37260, Note_on_c, 1, 64, 89
3, 37261, Control_c, 1, 64, 0
3, 37279, Control_c, 1, 64, 127
3, 37291, Note_on_c, 1, 64, 0
3, 37299, Note_on_c, 1, 67, 0
3, 37320, Note_on_c, 1, 69, 46
3, 37320, Note_on_c, 1, 65, 46
3, 37325, Control_c, 1, 64, 0
3, 37346, Control_c, 1, 64, 127
3, 37367, Note_on_c, 1, 65, 0
3, 37367, Note_on_c, 1, 69, 0
3, 37378, Control_c, 1, 64, 0
3, 37380, Note_on_c, 1, 64, 62
3, 37380, Note_on_c, 1, 67, 62
3, 37396, Control_c, 1, 64, 127
3, 37410, Note_on_c, 1, 67, 0
3, 37413, Note_on_c, 1, 64, 0
3, 37440, Note_on_c, 1, 50, 53
3, 37440, Note_on_c, 1, 65, 64
3, 37440, Note_on_c, 1, 62, 72
3, 37441, Control_c, 1, 64, 0
3, 37471, Control_c, 1, 64, 127
3, 37500, Note_on_c, 1, 57, 62
3, 37502, Note_on_c, 1, 62, 0
3, 37507, Note_on_c, 1, 50, 0
3, 37540, Note_on_c, 1, 57, 0
3, 37543, Note_on_c, 1, 65, 0
3, 37560, Note_on_c, 1, 65, 62
3, 37560, Note_on_c, 1, 62, 64
3, 37581, Control_c, 1, 64, 0
3, 37607, Control_c, 1, 64, 127
3, 37614, Note_on_c, 1, 62, 0
3, 37620, Note_on_c, 1, 57, 57
3, 37630, Note_on_c, 1, 65, 0
3, 37645, Note_on_c, 1, 57, 0
3, 37680, Note_on_c, 1, 65, 62
3, 37680, Note_on_c, 1, 62, 68
3, 37685, Control_c, 1, 64, 0
3, 37705, Control_c, 1, 64, 127
3, 37736, Note_on_c, 1, 62, 0
3, 37740, Note_on_c, 1, 57, 72
3, 37763, Note_on_c, 1, 57, 0
3, 37763, Note_on_c, 1, 65, 0
3, 37797, Control_c, 1, 64, 0
3, 37800, Note_on_c, 1, 45, 68
3, 37832, Control_c, 1, 64, 127
3, 37860, Note_on_c, 1, 61, 56
3, 37860, Note_on_c, 1, 64, 76
3, 37915, Note_on_c, 1, 61, 0
3, 37916, Note_on_c, 1, 64, 0
3, 37917, Control_c, 1, 64, 0
3, 37920, Note_on_c, 1, 45, 0
3, 37920, Note_on_c, 1, 62, 80
3, 37920, Note_on_c, 1, 65, 68
3, 37940, Control_c, 1, 64, 127
3, 37975, Note_on_c, 1, 65, 0
3, 37978, Note_on_c, 1, 62, 0
3, 37979, Control_c, 1, 64, 0
3, 37980, Note_on_c, 1, 67, 60
3, 37980, Note_on_c, 1, 64, 80
3, 37995, Control_c, 1, 64, 127
3, 38010, Note_on_c, 1, 64, 0
3, 38014, Note_on_c, 1, 67, 0
3, 38039, Control_c, 1, 64, 0
3, 38040, Note_on_c, 1, 65, 59
3, 38040, Note_on_c, 1, 69, 62
3, 38059, Control_c, 1, 64, 127
3, 38083, Note_on_c, 1, 69, 0
3, 38090, Note_on_c, 1, 65, 0
3, 38093, Control_c, 1, 64, 0
3, 38100, Note_on_c, 1, 67, 47
3, 38100, Note_on_c, 1, 64, 62
3, 38111, Control_c, 1, 64, 127
3, 38153, Note_on_c, 1, 64, 0
3, 38156, Control_c, 1, 64, 0
3, 38158, Note_on_c, 1, 67, 0
3, 38160, Note_on_c, 1, 65, 62
3, 38160, Note_on_c, 1, 62, 56
3, 38160, Note_on_c, 1, 50, 50
3, 38188, Control_c, 1, 64, 127
3, 38282, Note_on_c, 1, 50, 0
3, 38282, Note_on_c, 1, 62, 0
3, 38282, Note_on_c, 1, 65, 0
3, 38286, Control_c, 1, 64, 0
3, 40320, Note_on_c, 1, 50, 93
3, 40350, Note_on_c, 1, 61, 85
3, 40351, Control_c, 1, 64, 127
3, 40378, Note_on_c, 1, 61, 0
3, 40380, Note_on_c, 1, 62, 89
3, 40384, Control_c, 1, 64, 0
3, 40410, Note_on_c, 1, 64, 93
3, 40411, Note_on_c, 1, 62, 0
3, 40440, Note_on_c, 1, 66, 85
3, 40443, Note_on_c, 1, 64, 0
3, 40466, Note_on_c, 1, 66, 0
3, 40470, Note_on_c, 1, 67, 89
3, 40497, Note_on_c, 1, 67, 0
3, 40500, Note_on_c, 1, 69, 85
3, 40530, Note_on_c, 1, 71, 85
3, 40531, Note_on_c, 1, 69, 0
3, 40559, Note_on_c, 1, 71, 0
3, 40560, Note_on_c, 1, 72, 72
3, 40590, Note_on_c, 1, 69, 80
3, 40595, Note_on_c, 1, 72, 0
3, 40620, Note_on_c, 1, 74, 76
3, 40626, Note_on_c, 1, 69, 0
3, 40644, Control_c, 1, 64, 127
3, 40650, Note_on_c, 1, 72, 85
3, 40653, Note_on_c, 1, 74, 0
3, 40677, Control_c, 1, 64, 0
3, 40680, Note_on_c, 1, 71, 89
3, 40682, Note_on_c, 1, 72, 0
3, 40705, Control_c, 1, 64, 127
3, 40709, Control_c, 1, 64, 0
3, 40710, Note_on_c, 1, 74, 80
3, 40711, Note_on_c, 1, 71, 0
3, 40712, Note_on_c, 1, 50, 0
3, 40740, Note_on_c, 1, 74, 0
3, 40740, Note_on_c, 1, 71, 76
3, 40759, Control_c, 1, 64, 127
3, 40770, Note_on_c, 1, 67, 76
3, 40771, Note_on_c, 1, 71, 0
3, 40796, Note_on_c, 1, 67, 0
3, 40798, Control_c, 1, 64, 0
3, 40800, Note_on_c, 1, 50, 85
3, 40800, Note_on_c, 1, 66, 85
3, 40822, Control_c, 1, 64, 127
3, 40830, Note_on_c, 1, 69, 93
3, 40831, Note_on_c, 1, 66, 0
3, 40854, Note_on_c, 1, 50, 0
3, 40859, Note_on_c, 1, 69, 0
3, 40860, Control_c, 1, 64, 0
3, 40860, Note_on_c, 1, 66, 80
3, 40890, Note_on_c, 1, 66, 0
3, 40890, Note_on_c, 1, 62, 80
3, 40919, Note_on_c, 1, 62, 0
3, 40920, Note_on_c, 1, 67, 89
3, 40920, Note_on_c, 1, 50, 85
3, 40931, Control_c, 1, 64, 127
3, 40950, Note_on_c, 1, 71, 85
3, 40951, Note_on_c, 1, 67, 0
3, 40952, Control_c, 1, 64, 0
3, 40955, Note_on_c, 1, 50, 0
3, 40978, Note_on_c, 1, 71, 0
3, 40980, Note_on_c, 1, 67, 80
3, 41007, Note_on_c, 1, 67, 0
3, 41010, Note_on_c, 1, 62, 85
3, 41036, Note_on_c, 1, 62, 0
3, 41040, Note_on_c, 1, 38, 93
3, 41040, Note_on_c, 1, 50, 93
3, 41070, Note_on_c, 1, 61, 89
3, 41099, Note_on_c, 1, 61, 0
3, 41100, Note_on_c, 1, 62, 93
3, 41129, Note_on_c, 1, 62, 0
3, 41130, Note_on_c, 1, 64, 89
3, 41159, Note_on_c, 1, 64, 0
3, 41160, Note_on_c, 1, 66, 76
3, 41188, Note_on_c, 1, 66, 0
3, 41190, Note_on_c, 1, 67, 60
3, 41220, Note_on_c, 1, 69, 80
3, 41221, Note_on_c, 1, 67, 0
3, 41250, Note_on_c, 1, 69, 0
3, 41250, Note_on_c, 1, 71, 80
3, 41280, Note_on_c, 1, 72, 76
3, 41283, Note_on_c, 1, 71, 0
3, 41310, Note_on_c, 1, 69, 76
3, 41313, Note_on_c, 1, 72, 0
3, 41340, Note_on_c, 1, 74, 80
3, 41349, Note_on_c, 1, 69, 0
3, 41366, Control_c, 1, 64, 127
3, 41369, Note_on_c, 1, 74, 0
3, 41370, Note_on_c, 1, 72, 80
3, 41389, Control_c, 1, 64, 0
3, 41400, Note_on_c, 1, 71, 89
3, 41402, Note_on_c, 1, 72, 0
3, 41410, Control_c, 1, 64, 127
3, 41430, Note_on_c, 1, 74, 85
3, 41431, Note_on_c, 1, 71, 0
3, 41436, Control_c, 1, 64, 0
3, 41448, Note_on_c, 1, 38, 0
3, 41450, Note_on_c, 1, 50, 0
3, 41457, Note_on_c, 1, 74, 0
3, 41460, Note_on_c, 1, 71, 89
3, 41490, Note_on_c, 1, 67, 76
3, 41493, Note_on_c, 1, 71, 0
3, 41518, Note_on_c, 1, 67, 0
3, 41520, Note_on_c, 1, 66, 89
3, 41520, Note_on_c, 1, 50, 89
3, 41538, Control_c, 1, 64, 127
3, 41550, Note_on_c, 1, 69, 80
3, 41553, Note_on_c, 1, 66, 0
3, 41580, Note_on_c, 1, 66, 80
3, 41582, Note_on_c, 1, 69, 0
3, 41582, Note_on_c, 1, 50, 0
3, 41583, Control_c, 1, 64, 0
3, 41610, Note_on_c, 1, 66, 0
3, 41610, Note_on_c, 1, 62, 76
3, 41639, Note_on_c, 1, 62, 0
3, 41640, Note_on_c, 1, 67, 89
3, 41640, Note_on_c, 1, 50, 93
3, 41657, Control_c, 1, 64, 127
3, 41669, Note_on_c, 1, 67, 0
3, 41670, Note_on_c, 1, 71, 89
3, 41680, Note_on_c, 1, 50, 0
3, 41699, Note_on_c, 1, 71, 0
3, 41700, Note_on_c, 1, 67, 85
3, 41726, Note_on_c, 1, 67, 0
3, 41730, Note_on_c, 1, 62, 72
3, 41743, Control_c, 1, 64, 0
3, 41753, Note_on_c, 1, 62, 0
3, 41760, Note_on_c, 1, 66, 64
3, 41760, Note_on_c, 1, 62, 85
3, 41760, Note_on_c, 1, 69, 93
3, 41760, Note_on_c, 1, 50, 80
3, 41764, Control_c, 1, 64, 127
3, 41774, Note_on_c, 1, 69, 0
3, 41775, Note_on_c, 1, 66, 0
3, 41778, Note_on_c, 1, 62, 0
3, 41787, Note_on_c, 1, 50, 0
3, 41820, Note_on_c, 1, 50, 98
3, 41820, Note_on_c, 1, 38, 89
3, 41825, Control_c, 1, 64, 0
3, 41853, Control_c, 1, 64, 127
3, 41887, Note_on_c, 1, 38, 0
3, 41888, Note_on_c, 1, 50, 0
3, 41896, Control_c, 1, 64, 0
3, 42120, Note_on_c, 1, 55, 102
3, 42120, Note_on_c, 1, 43, 98
3, 42149, Note_on_c, 1, 55, 0
3, 42150, Note_on_c, 1, 43, 0
3, 42240, Note_on_c, 1, 59, 107
3, 42240, Note_on_c, 1, 47, 98
3, 42265, Note_on_c, 1, 59, 0
3, 42267, Note_on_c, 1, 47, 0
3, 42360, Note_on_c, 1, 51, 113
3, 42360, Note_on_c, 1, 39, 98
3, 42381, Note_on_c, 1, 51, 0
3, 42388, Note_on_c, 1, 39, 0
3, 42480, Note_on_c, 1, 52, 113
3, 42480, Note_on_c, 1, 40, 89
3, 42502, Note_on_c, 1, 52, 0
3, 42505, Note_on_c, 1, 40, 0
3, 42600, Note_on_c, 1, 60, 107
3, 42600, Note_on_c, 1, 48, 98
3, 42627, Note_on_c, 1, 48, 0
3, 42628, Note_on_c, 1, 60, 0
3, 42810, Note_on_c, 1, 57, 102
3, 42810, Note_on_c, 1, 45, 102
3, 42824, Note_on_c, 1, 45, 0
3, 42826, Note_on_c, 1, 57, 0
3, 42840, Note_on_c, 1, 42, 93
3, 42840, Note_on_c, 1, 54, 102
3, 42865, Note_on_c, 1, 54, 0
3, 42865, Note_on_c, 1, 42, 0
3, 42960, Note_on_c, 1, 62, 107
3, 42960, Note_on_c, 1, 50, 107
3, 42989, Note_on_c, 1, 50, 0
3, 42991, Note_on_c, 1, 62, 0
3, 43170, Note_on_c, 1, 60, 89
3, 43170, Note_on_c, 1, 48, 93
3, 43198, Note_on_c, 1, 48, 0
3, 43200, Note_on_c, 1, 47, 76
3, 43200, Note_on_c, 1, 59, 89
3, 43205, Note_on_c, 1, 60, 0
3, 43229, Note_on_c, 1, 59, 0
3, 43230, Note_on_c, 1, 48, 89
3, 43230, Note_on_c, 1, 60, 85
3, 43233, Note_on_c, 1, 47, 0
3, 43258, Note_on_c, 1, 60, 0
3, 43259, Note_on_c, 1, 48, 0
3, 43260, Note_on_c, 1, 50, 80
3, 43260, Note_on_c, 1, 62, 76
3, 43286, Note_on_c, 1, 62, 0
3, 43290, Note_on_c, 1, 59, 76
3, 43290, Note_on_c, 1, 47, 85
3, 43291, Note_on_c, 1, 50, 0
3, 43320, Note_on_c, 1, 59, 0
3, 43320, Note_on_c, 1, 55, 89
3, 43320, Note_on_c, 1, 43, 89
3, 43321, Note_on_c, 1, 47, 0
3, 43348, Control_c, 1, 64, 127
3, 43440, Note_on_c, 1, 55, 0
3, 43440, Control_c, 1, 64, 0
3, 43441, Note_on_c, 1, 43, 0
3, 43920, Note_on_c, 1, 50, 98
3, 43920, Note_on_c, 1, 38, 89
3, 44010, Note_on_c, 1, 38, 0
3, 44010, Note_on_c, 1, 40, 89
3, 44010, Note_on_c, 1, 52, 89
3, 44013, Note_on_c, 1, 50, 0
3, 44025, Note_on_c, 1, 54, 62
3, 44025, Note_on_c, 1, 42, 68
3, 44027, Note_on_c, 1, 52, 0
3, 44030, Note_on_c, 1, 40, 0
3, 44038, Note_on_c, 1, 54, 0
3, 44040, Note_on_c, 1, 55, 89
3, 44040, Note_on_c, 1, 43, 102
3, 44043, Note_on_c, 1, 42, 0
3, 44106, Note_on_c, 1, 43, 0
3, 44108, Note_on_c, 1, 55, 0
3, 44640, Note_on_c, 1, 38, 93
3, 44640, Note_on_c, 1, 50, 93
3, 44729, Note_on_c, 1, 50, 0
3, 44729, Note_on_c, 1, 38, 0
3, 44730, Note_on_c, 1, 52, 89
3, 44730, Note_on_c, 1, 40, 89
3, 44745, Note_on_c, 1, 54, 64
3, 44745, Note_on_c, 1, 42, 72
3, 44748, Note_on_c, 1, 52, 0
3, 44750, Note_on_c, 1, 40, 0
3, 44760, Note_on_c, 1, 55, 89
3, 44760, Note_on_c, 1, 43, 89
3, 44761, Note_on_c, 1, 54, 0
3, 44765, Note_on_c, 1, 42, 0
3, 44864, Note_on_c, 1, 43, 0
3, 44867, Note_on_c, 1, 55, 0
3, 46260, Note_on_c, 1, 67, 72
3, 46320, Note_on_c, 1, 69, 72
3, 46323, Note_on_c, 1, 67, 0
3, 46374, Note_on_c, 1, 69, 0
3, 46380, Note_on_c, 1, 71, 76
3, 46422, Control_c, 1, 64, 127
3, 46436, Control_c, 1, 64, 0
3, 46439, Note_on_c, 1, 71, 0
3, 46440, Note_on_c, 1, 63, 64
3, 46500, Note_on_c, 1, 48, 41
3, 46538, Control_c, 1, 64, 127
3, 46560, Note_on_c, 1, 55, 57
3, 46561, Control_c, 1, 64, 0
3, 46586, Control_c, 1, 64, 127
3, 46618, Note_on_c, 1, 63, 0
3, 46620, Note_on_c, 1, 64, 64
3, 46622, Control_c, 1, 64, 0
3, 46678, Note_on_c, 1, 64, 0
3, 46680, Note_on_c, 1, 66, 60
3, 46738, Control_c, 1, 64, 127
3, 46739, Note_on_c, 1, 66, 0
3, 46740, Note_on_c, 1, 67, 76
3, 46772, Note_on_c, 1, 67, 0
3, 46800, Note_on_c, 1, 55, 0
3, 46800, Note_on_c, 1, 56, 76
3, 46803, Note_on_c, 1, 48, 0
3, 46804, Control_c, 1, 64, 0
3, 46860, Note_on_c, 1, 48, 76
3, 46888, Control_c, 1, 64, 127
3, 46911, Control_c, 1, 64, 0
3, 46920, Note_on_c, 1, 54, 57
3, 46920, Note_on_c, 1, 50, 68
3, 46928, Note_on_c, 1, 56, 0
3, 46943, Control_c, 1, 64, 127
3, 46960, Control_c, 1, 64, 0
3, 46980, Note_on_c, 1, 57, 89
3, 47039, Note_on_c, 1, 57, 0
3, 47040, Note_on_c, 1, 59, 72
3, 47094, Control_c, 1, 64, 127
3, 47096, Note_on_c, 1, 59, 0
3, 47100, Note_on_c, 1, 60, 68
3, 47102, Note_on_c, 1, 50, 0
3, 47104, Note_on_c, 1, 54, 0
3, 47109, Note_on_c, 1, 48, 0
3, 47158, Control_c, 1, 64, 0
3, 47160, Note_on_c, 1, 62, 98
3, 47160, Note_on_c, 1, 35, 76
3, 47160, Note_on_c, 1, 47, 76
3, 47161, Note_on_c, 1, 60, 0
3, 47195, Control_c, 1, 64, 127
3, 47247, Note_on_c, 1, 35, 0
3, 47253, Note_on_c, 1, 47, 0
3, 47267, Note_on_c, 1, 62, 0
3, 47273, Control_c, 1, 64, 0
3, 47280, Note_on_c, 1, 36, 89
3, 47280, Note_on_c, 1, 48, 89
3, 47310, Note_on_c, 1, 50, 89
3, 47338, Note_on_c, 1, 50, 0
3, 47340, Note_on_c, 1, 54, 80
3, 47369, Note_on_c, 1, 54, 0
3, 47370, Note_on_c, 1, 57, 93
3, 47400, Note_on_c, 1, 62, 93
3, 47402, Note_on_c, 1, 57, 0
3, 47430, Note_on_c, 1, 57, 89
3, 47433, Note_on_c, 1, 62, 0
3, 47447, Control_c, 1, 64, 127
3, 47460, Note_on_c, 1, 54, 76
3, 47465, Note_on_c, 1, 57, 0
3, 47490, Note_on_c, 1, 50, 80
3, 47493, Note_on_c, 1, 54, 0
3, 47495, Note_on_c, 1, 48, 0
3, 47497, Note_on_c, 1, 36, 0
3, 47511, Note_on_c, 1, 50, 0
3, 47514, Control_c, 1, 64, 0
3, 47520, Note_on_c, 1, 62, 102
3, 47520, Note_on_c, 1, 35, 93
3, 47520, Note_on_c, 1, 47, 89
3, 47547, Control_c, 1, 64, 127
3, 47592, Note_on_c, 1, 35, 0
3, 47600, Note_on_c, 1, 47, 0
3, 47621, Note_on_c, 1, 62, 0
3, 47630, Control_c, 1, 64, 0
3, 47640, Note_on_c, 1, 36, 89
3, 47640, Note_on_c, 1, 48, 80
3, 47670, Note_on_c, 1, 50, 72
3, 47700, Note_on_c, 1, 54, 72
3, 47703, Control_c, 1, 64, 127
3, 47704, Note_on_c, 1, 50, 0
3, 47729, Note_on_c, 1, 54, 0
3, 47730, Note_on_c, 1, 57, 80
3, 47760, Note_on_c, 1, 62, 85
3, 47760, Control_c, 1, 64, 0
3, 47765, Note_on_c, 1, 57, 0
3, 47787, Control_c, 1, 64, 127
3, 47790, Note_on_c, 1, 57, 76
3, 47794, Note_on_c, 1, 62, 0
3, 47819, Note_on_c, 1, 57, 0
3, 47820, Note_on_c, 1, 54, 60
3, 47846, Note_on_c, 1, 48, 0
3, 47850, Note_on_c, 1, 50, 68
3, 47853, Note_on_c, 1, 54, 0
3, 47855, Note_on_c, 1, 36, 0
3, 47866, Note_on_c, 1, 50, 0
3, 47880, Note_on_c, 1, 35, 64
3, 47880, Note_on_c, 1, 47, 57
3, 47884, Control_c, 1, 64, 0
3, 47910, Note_on_c, 1, 59, 64
3, 47927, Control_c, 1, 64, 127
3, 47937, Note_on_c, 1, 59, 0
3, 47940, Note_on_c, 1, 62, 56
3, 47958, Note_on_c, 1, 35, 0
3, 47961, Note_on_c, 1, 47, 0
3, 47963, Note_on_c, 1, 62, 0
3, 47970, Note_on_c, 1, 67, 72
3, 47980, Control_c, 1, 64, 0
3, 47987, Note_on_c, 1, 67, 0
3, 48000, Note_on_c, 1, 48, 64
3, 48000, Note_on_c, 1, 36, 72
3, 48026, Control_c, 1, 64, 127
3, 48030, Note_on_c, 1, 57, 76
3, 48056, Note_on_c, 1, 57, 0
3, 48059, Note_on_c, 1, 36, 0
3, 48059, Note_on_c, 1, 48, 0
3, 48060, Note_on_c, 1, 64, 68
3, 48070, Control_c, 1, 64, 0
3, 48088, Note_on_c, 1, 64, 0
3, 48090, Note_on_c, 1, 67, 76
3, 48114, Note_on_c, 1, 67, 0
3, 48120, Note_on_c, 1, 38, 72
3, 48120, Note_on_c, 1, 50, 62
3, 48150, Note_on_c, 1, 57, 80
3, 48150, Control_c, 1, 64, 127
3, 48163, Control_c, 1, 64, 0
3, 48172, Note_on_c, 1, 57, 0
3, 48180, Note_on_c, 1, 60, 64
3, 48182, Note_on_c, 1, 50, 0
3, 48185, Note_on_c, 1, 38, 0
3, 48195, Control_c, 1, 64, 127
3, 48208, Note_on_c, 1, 60, 0
3, 48210, Note_on_c, 1, 62, 76
3, 48225, Control_c, 1, 64, 0
3, 48229, Note_on_c, 1, 62, 0
3, 48240, Note_on_c, 1, 55, 113
3, 48240, Note_on_c, 1, 43, 102
3, 48280, Note_on_c, 1, 55, 0
3, 48287, Note_on_c, 1, 43, 0
3, 48360, Note_on_c, 1, 59, 93
3, 48360, Note_on_c, 1, 47, 93
3, 48386, Note_on_c, 1, 59, 0
3, 48388, Note_on_c, 1, 47, 0
3, 48480, Note_on_c, 1, 51, 93
3, 48480, Note_on_c, 1, 39, 85
3, 48511, Note_on_c, 1, 51, 0
3, 48512, Note_on_c, 1, 39, 0
3, 48600, Note_on_c, 1, 52, 98
3, 48600, Note_on_c, 1, 40, 93
3, 48623, Note_on_c, 1, 52, 0
3, 48626, Note_on_c, 1, 40, 0
3, 48720, Note_on_c, 1, 52, 102
3, 48720, Note_on_c, 1, 64, 93
3, 48741, Note_on_c, 1, 64, 0
3, 48746, Note_on_c, 1, 52, 0
3, 48930, Note_on_c, 1, 40, 93
3, 48930, Note_on_c, 1, 52, 93
3, 48947, Note_on_c, 1, 52, 0
3, 48947, Note_on_c, 1, 40, 0
3, 48960, Note_on_c, 1, 50, 98
3, 48960, Note_on_c, 1, 38, 93
3, 48983, Note_on_c, 1, 50, 0
3, 48986, Note_on_c, 1, 38, 0
3, 49080, Note_on_c, 1, 62, 102
3, 49080, Note_on_c, 1, 50, 98
3, 49107, Note_on_c, 1, 62, 0
3, 49109, Note_on_c, 1, 50, 0
3, 49290, Note_on_c, 1, 38, 93
3, 49290, Note_on_c, 1, 50, 93
3, 49307, Note_on_c, 1, 50, 0
3, 49307, Note_on_c, 1, 38, 0
3, 49320, Note_on_c, 1, 36, 93
3, 49320, Note_on_c, 1, 48, 98
3, 49342, Note_on_c, 1, 48, 0
3, 49345, Note_on_c, 1, 36, 0
3, 49440, Note_on_c, 1, 60, 93
3, 49440, Note_on_c, 1, 48, 107
3, 49462, Note_on_c, 1, 60, 0
3, 49463, Note_on_c, 1, 48, 0
3, 49650, Note_on_c, 1, 48, 89
3, 49650, Note_on_c, 1, 36, 93
3, 49668, Note_on_c, 1, 36, 0
3, 49668, Note_on_c, 1, 48, 0
3, 49680, Note_on_c, 1, 47, 98
3, 49680, Note_on_c, 1, 35, 93
3, 49706, Note_on_c, 1, 47, 0
3, 49707, Note_on_c, 1, 35, 0
3, 49800, Note_on_c, 1, 59, 98
3, 49800, Note_on_c, 1, 47, 98
3, 49824, Note_on_c, 1, 59, 0
3, 49827, Note_on_c, 1, 47, 0
3, 50010, Note_on_c, 1, 46, 89
3, 50010, Note_on_c, 1, 58, 98
3, 50028, Note_on_c, 1, 58, 0
3, 50034, Note_on_c, 1, 46, 0
3, 50040, Note_on_c, 1, 45, 98
3, 50040, Note_on_c, 1, 57, 102
3, 50150, Control_c, 1, 64, 127
3, 50178, Note_on_c, 1, 57, 0
3, 50179, Note_on_c, 1, 45, 0
3, 50184, Control_c, 1, 64, 0
3, 50460, Note_on_c, 1, 49, 89
3, 50460, Note_on_c, 1, 64, 89
3, 50471, Control_c, 1, 64, 127
3, 50487, Note_on_c, 1, 64, 0
3, 50490, Note_on_c, 1, 66, 68
3, 50511, Control_c, 1, 64, 0
3, 50515, Note_on_c, 1, 66, 0
3, 50517, Note_on_c, 1, 49, 0
3, 50520, Note_on_c, 1, 67, 85
3, 50520, Note_on_c, 1, 52, 89
3, 50543, Control_c, 1, 64, 127
3, 50550, Note_on_c, 1, 66, 76
3, 50552, Note_on_c, 1, 67, 0
3, 50569, Control_c, 1, 64, 0
3, 50579, Note_on_c, 1, 66, 0
3, 50580, Note_on_c, 1, 52, 0
3, 50580, Note_on_c, 1, 64, 89
3, 50580, Note_on_c, 1, 49, 89
3, 50595, Control_c, 1, 64, 127
3, 50609, Note_on_c, 1, 64, 0
3, 50610, Note_on_c, 1, 62, 93
3, 50629, Control_c, 1, 64, 0
3, 50632, Note_on_c, 1, 62, 0
3, 50638, Note_on_c, 1, 49, 0
3, 50640, Note_on_c, 1, 61, 89
3, 50640, Note_on_c, 1, 45, 98
3, 50662, Control_c, 1, 64, 127
3, 50670, Note_on_c, 1, 59, 85
3, 50672, Note_on_c, 1, 61, 0
3, 50688, Control_c, 1, 64, 0
3, 50694, Note_on_c, 1, 45, 0
3, 50699, Note_on_c, 1, 59, 0
3, 50700, Note_on_c, 1, 49, 80
3, 50700, Note_on_c, 1, 57, 89
3, 50712, Control_c, 1, 64, 127
3, 50724, Note_on_c, 1, 57, 0
3, 50730, Note_on_c, 1, 55, 89
3, 50743, Control_c, 1, 64, 0
3, 50755, Note_on_c, 1, 49, 0
3, 50759, Note_on_c, 1, 55, 0
3, 50760, Note_on_c, 1, 54, 85
3, 50760, Note_on_c, 1, 50, 76
3, 50776, Control_c, 1, 64, 127
3, 50875, Control_c, 1, 64, 0
3, 50888, Note_on_c, 1, 54, 0
3, 50889, Note_on_c, 1, 50, 0
3, 51180, Note_on_c, 1, 42, 93
3, 51180, Note_on_c, 1, 57, 89
3, 51187, Control_c, 1, 64, 127
3, 51210, Note_on_c, 1, 59, 76
3, 51213, Note_on_c, 1, 57, 0
3, 51229, Control_c, 1, 64, 0
3, 51237, Note_on_c, 1, 59, 0
3, 51240, Note_on_c, 1, 60, 80
3, 51240, Note_on_c, 1, 45, 85
3, 51241, Note_on_c, 1, 42, 0
3, 51259, Control_c, 1, 64, 127
3, 51270, Note_on_c, 1, 59, 72
3, 51271, Note_on_c, 1, 60, 0
3, 51284, Control_c, 1, 64, 0
3, 51297, Note_on_c, 1, 59, 0
3, 51299, Note_on_c, 1, 45, 0
3, 51300, Note_on_c, 1, 57, 89
3, 51300, Note_on_c, 1, 42, 76
3, 51309, Control_c, 1, 64, 127
3, 51330, Note_on_c, 1, 57, 0
3, 51330, Note_on_c, 1, 55, 76
3, 51346, Control_c, 1, 64, 0
3, 51353, Note_on_c, 1, 55, 0
3, 51359, Note_on_c, 1, 42, 0
3, 51360, Note_on_c, 1, 54, 76
3, 51360, Note_on_c, 1, 38, 98
3, 51377, Control_c, 1, 64, 127
3, 51390, Note_on_c, 1, 52, 76
3, 51391, Note_on_c, 1, 54, 0
3, 51407, Control_c, 1, 64, 0
3, 51420, Note_on_c, 1, 38, 0
3, 51420, Note_on_c, 1, 50, 80
3, 51420, Note_on_c, 1, 42, 72
3, 51421, Note_on_c, 1, 52, 0
3, 51433, Control_c, 1, 64, 127
3, 51450, Note_on_c, 1, 48, 80
3, 51451, Note_on_c, 1, 50, 0
3, 51463, Control_c, 1, 64, 0
3, 51478, Note_on_c, 1, 42, 0
3, 51479, Note_on_c, 1, 48, 0
3, 51480, Note_on_c, 1, 47, 93
3, 51480, Note_on_c, 1, 43, 76
3, 51503, Control_c, 1, 64, 127
3, 51595, Control_c, 1, 64, 0
3, 51607, Note_on_c, 1, 43, 0
3, 51609, Note_on_c, 1, 47, 0
3, 51840, Note_on_c, 1, 36, 72
3, 51840, Note_on_c, 1, 48, 64
3, 51859, Control_c, 1, 64, 127
3, 51964, Note_on_c, 1, 48, 0
3, 51964, Control_c, 1, 64, 0
3, 51966, Note_on_c, 1, 36, 0
3, 52320, Note_on_c, 1, 38, 76
3, 52320, Note_on_c, 1, 50, 80
3, 52344, Control_c, 1, 64, 127
3, 52379, Note_on_c, 1, 38, 0
3, 52385, Note_on_c, 1, 50, 0
3, 52440, Note_on_c, 1, 39, 89
3, 52440, Note_on_c, 1, 51, 89
3, 52441, Control_c, 1, 64, 0
3, 52468, Control_c, 1, 64, 127
3, 52499, Note_on_c, 1, 39, 0
3, 52501, Note_on_c, 1, 51, 0
3, 52549, Control_c, 1, 64, 0
3, 52560, Note_on_c, 1, 40, 80
3, 52560, Note_on_c, 1, 52, 80
3, 52593, Control_c, 1, 64, 127
3, 52620, Note_on_c, 1, 55, 68
3, 52620, Control_c, 1, 64, 0
3, 52643, Control_c, 1, 64, 127
3, 52676, Control_c, 1, 64, 0
3, 52680, Note_on_c, 1, 67, 89
3, 52681, Note_on_c, 1, 52, 0
3, 52684, Note_on_c, 1, 40, 0
3, 52684, Note_on_c, 1, 55, 0
3, 52698, Control_c, 1, 64, 127
3, 52729, Note_on_c, 1, 67, 0
3, 52735, Control_c, 1, 64, 0
3, 52740, Note_on_c, 1, 67, 89
3, 52757, Note_on_c, 1, 67, 0
3, 52800, Note_on_c, 1, 67, 89
3, 52812, Note_on_c, 1, 67, 0
3, 52860, Note_on_c, 1, 67, 89
3, 52869, Note_on_c, 1, 67, 0
3, 52920, Note_on_c, 1, 36, 85
3, 52920, Note_on_c, 1, 48, 64
3, 52920, Note_on_c, 1, 67, 98
3, 52980, Note_on_c, 1, 64, 89
3, 52983, Note_on_c, 1, 67, 0
3, 52991, Note_on_c, 1, 64, 0
3, 53019, Note_on_c, 1, 48, 0
3, 53020, Note_on_c, 1, 36, 0
3, 53040, Note_on_c, 1, 64, 93
3, 53100, Note_on_c, 1, 60, 80
3, 53102, Note_on_c, 1, 64, 0
3, 53110, Note_on_c, 1, 60, 0
3, 53160, Note_on_c, 1, 60, 85
3, 53218, Note_on_c, 1, 60, 0
3, 53220, Note_on_c, 1, 57, 76
3, 53247, Note_on_c, 1, 57, 0
3, 53280, Note_on_c, 1, 55, 76
3, 53406, Note_on_c, 1, 49, 89
3, 53424, Note_on_c, 1, 49, 0
3, 53520, Note_on_c, 1, 49, 102
3, 53542, Note_on_c, 1, 49, 0
3, 53640, Note_on_c, 1, 49, 89
3, 53677, Control_c, 1, 64, 127
3, 53758, Note_on_c, 1, 55, 0
3, 53763, Control_c, 1, 64, 0
3, 53816, Control_c, 1, 64, 127
3, 53970, Note_on_c, 1, 58, 102
3, 53987, Note_on_c, 1, 58, 0
3, 53997, Note_on_c, 1, 49, 0
3, 54000, Note_on_c, 1, 48, 93
3, 54000, Note_on_c, 1, 56, 113
3, 54004, Control_c, 1, 64, 0
3, 54012, Note_on_c, 1, 56, 0
3, 54120, Note_on_c, 1, 60, 98
3, 54133, Note_on_c, 1, 60, 0
3, 54240, Note_on_c, 1, 51, 98
3, 54253, Note_on_c, 1, 51, 0
3, 54360, Note_on_c, 1, 49, 85
3, 54365, Note_on_c, 1, 55, 89
3, 54366, Note_on_c, 1, 48, 0
3, 54380, Note_on_c, 1, 55, 0
3, 54480, Note_on_c, 1, 58, 89
3, 54494, Note_on_c, 1, 58, 0
3, 54690, Note_on_c, 1, 58, 93
3, 54701, Note_on_c, 1, 58, 0
3, 54720, Note_on_c, 1, 56, 107
3, 54722, Note_on_c, 1, 49, 0
3, 54726, Note_on_c, 1, 48, 93
3, 54734, Note_on_c, 1, 56, 0
3, 54847, Note_on_c, 1, 60, 89
3, 54861, Note_on_c, 1, 60, 0
3, 54960, Note_on_c, 1, 51, 107
3, 54973, Note_on_c, 1, 51, 0
3, 55080, Note_on_c, 1, 51, 72
3, 55080, Note_on_c, 1, 57, 107
3, 55082, Note_on_c, 1, 48, 0
3, 55091, Note_on_c, 1, 57, 0
3, 55200, Note_on_c, 1, 60, 89
3, 55216, Note_on_c, 1, 60, 0
3, 55410, Note_on_c, 1, 60, 89
3, 55420, Note_on_c, 1, 60, 0
3, 55440, Note_on_c, 1, 51, 0
3, 55440, Note_on_c, 1, 58, 107
3, 55440, Note_on_c, 1, 50, 89
3, 55448, Note_on_c, 1, 58, 0
3, 55560, Note_on_c, 1, 62, 98
3, 55571, Note_on_c, 1, 62, 0
3, 55680, Note_on_c, 1, 53, 93
3, 55691, Note_on_c, 1, 53, 0
3, 55800, Note_on_c, 1, 53, 76
3, 55800, Note_on_c, 1, 59, 113
3, 55802, Note_on_c, 1, 50, 0
3, 55812, Note_on_c, 1, 59, 0
3, 55920, Note_on_c, 1, 62, 93
3, 55933, Note_on_c, 1, 62, 0
3, 56130, Note_on_c, 1, 62, 98
3, 56141, Note_on_c, 1, 62, 0
3, 56160, Note_on_c, 1, 60, 107
3, 56160, Note_on_c, 1, 52, 89
3, 56162, Note_on_c, 1, 53, 0
3, 56173, Note_on_c, 1, 60, 0
3, 56280, Note_on_c, 1, 64, 102
3, 56293, Note_on_c, 1, 64, 0
3, 56400, Note_on_c, 1, 55, 113
3, 56411, Note_on_c, 1, 55, 0
3, 56487, Note_on_c, 1, 52, 0
3, 56520, Note_on_c, 1, 39, 89
3, 56520, Note_on_c, 1, 51, 76
3, 56520, Note_on_c, 1, 61, 113
3, 56533, Note_on_c, 1, 61, 0
3, 56640, Note_on_c, 1, 61, 119
3, 56654, Note_on_c, 1, 61, 0
3, 56847, Note_on_c, 1, 39, 0
3, 56849, Note_on_c, 1, 51, 0
3, 56880, Note_on_c, 1, 59, 89
3, 56880, Note_on_c, 1, 38, 89
3, 56880, Note_on_c, 1, 50, 80
3, 56887, Control_c, 1, 64, 127
3, 56909, Note_on_c, 1, 59, 0
3, 56910, Note_on_c, 1, 62, 80
3, 56912, Note_on_c, 1, 38, 0
3, 56913, Note_on_c, 1, 50, 0
3, 56939, Note_on_c, 1, 62, 0
3, 56940, Note_on_c, 1, 59, 85
3, 56940, Note_on_c, 1, 50, 93
3, 56969, Note_on_c, 1, 59, 0
3, 56970, Note_on_c, 1, 50, 0
3, 56970, Note_on_c, 1, 62, 76
3, 56997, Note_on_c, 1, 62, 0
3, 57000, Note_on_c, 1, 59, 89
3, 57000, Note_on_c, 1, 50, 85
3, 57029, Note_on_c, 1, 59, 0
3, 57030, Note_on_c, 1, 50, 0
3, 57030, Note_on_c, 1, 62, 72
3, 57057, Note_on_c, 1, 62, 0
3, 57060, Note_on_c, 1, 59, 80
3, 57060, Note_on_c, 1, 50, 80
3, 57086, Note_on_c, 1, 50, 0
3, 57088, Note_on_c, 1, 59, 0
3, 57090, Note_on_c, 1, 62, 76
3, 57117, Note_on_c, 1, 62, 0
3, 57120, Note_on_c, 1, 59, 76
3, 57120, Note_on_c, 1, 50, 85
3, 57141, Note_on_c, 1, 50, 0
3, 57149, Note_on_c, 1, 59, 0
3, 57150, Note_on_c, 1, 62, 72
3, 57178, Note_on_c, 1, 62, 0
3, 57180, Note_on_c, 1, 59, 85
3, 57180, Note_on_c, 1, 50, 85
3, 57198, Note_on_c, 1, 50, 0
3, 57210, Note_on_c, 1, 59, 0
3, 57210, Note_on_c, 1, 62, 85
3, 57232, Control_c, 1, 64, 0
3, 57237, Note_on_c, 1, 62, 0
3, 57240, Note_on_c, 1, 60, 89
3, 57240, Note_on_c, 1, 38, 93
3, 57240, Note_on_c, 1, 50, 80
3, 57253, Control_c, 1, 64, 127
3, 57270, Note_on_c, 1, 60, 0
3, 57270, Note_on_c, 1, 62, 89
3, 57275, Note_on_c, 1, 50, 0
3, 57277, Note_on_c, 1, 38, 0
3, 57297, Note_on_c, 1, 62, 0
3, 57300, Note_on_c, 1, 60, 76
3, 57300, Note_on_c, 1, 38, 85
3, 57300, Note_on_c, 1, 50, 80
3, 57330, Note_on_c, 1, 62, 85
3, 57332, Note_on_c, 1, 50, 0
3, 57333, Note_on_c, 1, 60, 0
3, 57333, Note_on_c, 1, 38, 0
3, 57358, Note_on_c, 1, 62, 0
3, 57358, Control_c, 1, 64, 0
3, 57360, Note_on_c, 1, 60, 76
3, 57360, Note_on_c, 1, 38, 85
3, 57360, Note_on_c, 1, 50, 85
3, 57373, Control_c, 1, 64, 127
3, 57390, Note_on_c, 1, 62, 76
3, 57391, Note_on_c, 1, 60, 0
3, 57393, Note_on_c, 1, 50, 0
3, 57395, Note_on_c, 1, 38, 0
3, 57419, Note_on_c, 1, 62, 0
3, 57420, Note_on_c, 1, 60, 76
3, 57420, Note_on_c, 1, 38, 85
3, 57420, Note_on_c, 1, 50, 68
3, 57447, Note_on_c, 1, 38, 0
3, 57448, Note_on_c, 1, 50, 0
3, 57450, Note_on_c, 1, 62, 80
3, 57451, Note_on_c, 1, 60, 0
3, 57476, Note_on_c, 1, 62, 0
3, 57480, Note_on_c, 1, 60, 68
3, 57480, Note_on_c, 1, 38, 76
3, 57480, Note_on_c, 1, 50, 62
3, 57501, Note_on_c, 1, 50, 0
3, 57504, Note_on_c, 1, 38, 0
3, 57509, Note_on_c, 1, 60, 0
3, 57510, Note_on_c, 1, 62, 68
3, 57538, Note_on_c, 1, 62, 0
3, 57540, Note_on_c, 1, 60, 72
3, 57540, Note_on_c, 1, 38, 85
3, 57540, Note_on_c, 1, 50, 64
3, 57561, Note_on_c, 1, 50, 0
3, 57566, Note_on_c, 1, 38, 0
3, 57570, Note_on_c, 1, 62, 64
3, 57571, Note_on_c, 1, 60, 0
3, 57583, Note_on_c, 1, 62, 0
3, 57596, Control_c, 1, 64, 0
3, 57600, Note_on_c, 1, 59, 89
3, 57600, Note_on_c, 1, 62, 89
3, 57600, Note_on_c, 1, 43, 89
3, 57622, Control_c, 1, 64, 127
3, 57723, Control_c, 1, 64, 0
3, 57725, Note_on_c, 1, 43, 0
3, 57725, Note_on_c, 1, 62, 0
3, 57727, Note_on_c, 1, 59, 0
3, 58320, Note_on_c, 1, 50, 62
3, 58320, Note_on_c, 1, 38, 68
3, 58406, Note_on_c, 1, 38, 0
3, 58410, Note_on_c, 1, 50, 0
3, 58410, Note_on_c, 1, 40, 62
3, 58410, Note_on_c, 1, 52, 68
3, 58425, Note_on_c, 1, 42, 62
3, 58425, Note_on_c, 1, 54, 56
3, 58427, Note_on_c, 1, 52, 0
3, 58427, Note_on_c, 1, 40, 0
3, 58438, Note_on_c, 1, 54, 0
3, 58440, Note_on_c, 1, 55, 72
3, 58440, Note_on_c, 1, 43, 68
3, 58445, Note_on_c, 1, 42, 0
3, 58553, Note_on_c, 1, 43, 0
3, 58555, Note_on_c, 1, 55, 0
3, 59040, Note_on_c, 1, 38, 72
3, 59040, Note_on_c, 1, 50, 80
3, 59122, Note_on_c, 1, 38, 0
3, 59126, Note_on_c, 1, 50, 0
3, 59130, Note_on_c, 1, 40, 76
3, 59130, Note_on_c, 1, 52, 80
3, 59145, Note_on_c, 1, 42, 72
3, 59145, Note_on_c, 1, 54, 60
3, 59147, Note_on_c, 1, 52, 0
3, 59147, Note_on_c, 1, 40, 0
3, 59158, Note_on_c, 1, 54, 0
3, 59160, Note_on_c, 1, 43, 64
3, 59160, Note_on_c, 1, 55, 76
3, 59162, Note_on_c, 1, 42, 0
3, 59275, Note_on_c, 1, 55, 0
3, 59276, Note_on_c, 1, 43, 0
3, 59580, Note_on_c, 1, 38, 89
3, 59580, Note_on_c, 1, 50, 107
3, 59593, Note_on_c, 1, 50, 0
3, 59595, Note_on_c, 1, 38, 0
3, 59640, Note_on_c, 1, 50, 102
3, 59640, Note_on_c, 1, 38, 93
3, 59654, Note_on_c, 1, 38, 0
3, 59655, Note_on_c, 1, 50, 0
3, 59700, Note_on_c, 1, 50, 102
3, 59700, Note_on_c, 1, 38, 85
3, 59713, Note_on_c, 1, 38, 0
3, 59714, Note_on_c, 1, 50, 0
3, 59760, Note_on_c, 1, 38, 93
3, 59760, Note_on_c, 1, 50, 107
3, 59861, Control_c, 1, 64, 127
3, 59888, Note_on_c, 1, 38, 0
3, 59891, Note_on_c, 1, 50, 0
3, 59940, Note_on_c, 1, 36, 85
3, 59940, Note_on_c, 1, 57, 98
3, 59940, Note_on_c, 1, 48, 76
3, 59943, Control_c, 1, 64, 0
3, 59958, Note_on_c, 1, 57, 0
3, 59958, Note_on_c, 1, 36, 0
3, 59959, Note_on_c, 1, 48, 0
3, 60000, Note_on_c, 1, 59, 102
3, 60000, Note_on_c, 1, 35, 89
3, 60000, Note_on_c, 1, 47, 89
3, 60016, Note_on_c, 1, 47, 0
3, 60016, Note_on_c, 1, 59, 0
3, 60020, Note_on_c, 1, 35, 0
3, 60060, Note_on_c, 1, 33, 68
3, 60060, Note_on_c, 1, 60, 93
3, 60060, Note_on_c, 1, 45, 85
3, 60074, Note_on_c, 1, 45, 0
3, 60074, Note_on_c, 1, 60, 0
3, 60077, Note_on_c, 1, 33, 0
3, 60120, Note_on_c, 1, 31, 93
3, 60120, Note_on_c, 1, 62, 102
3, 60120, Note_on_c, 1, 43, 89
3, 60135, Control_c, 1, 64, 127
3, 60169, Note_on_c, 1, 31, 0
3, 60172, Note_on_c, 1, 62, 0
3, 60177, Note_on_c, 1, 43, 0
3, 60195, Control_c, 1, 64, 0
3, 60240, Note_on_c, 1, 48, 89
3, 60240, Note_on_c, 1, 36, 93
3, 60261, Control_c, 1, 64, 127
3, 60300, Note_on_c, 1, 36, 0
3, 60301, Note_on_c, 1, 48, 0
3, 60311, Control_c, 1, 64, 0
3, 60360, Note_on_c, 1, 50, 93
3, 60360, Note_on_c, 1, 38, 93
3, 60372, Control_c, 1, 64, 127
3, 60407, Note_on_c, 1, 38, 0
3, 60410, Note_on_c, 1, 50, 0
3, 60451, Control_c, 1, 64, 0
3, 60480, Note_on_c, 1, 43, 93
3, 60480, Note_on_c, 1, 31, 93
3, 60495, Control_c, 1, 64, 127
3, 60537, Note_on_c, 1, 43, 0
3, 60541, Note_on_c, 1, 31, 0
3, 60618, Control_c, 1, 64, 0
3, 60660, Note_on_c, 1, 60, 62
3, 60660, Note_on_c, 1, 52, 56
3, 60660, Note_on_c, 1, 55, 49
3, 60666, Control_c, 1, 64, 127
3, 60695, Note_on_c, 1, 52, 0
3, 60696, Note_on_c, 1, 55, 0
3, 60702, Note_on_c, 1, 60, 0
3, 60720, Note_on_c, 1, 60, 72
3, 60720, Note_on_c, 1, 52, 56
3, 60720, Note_on_c, 1, 55, 51
3, 60754, Note_on_c, 1, 55, 0
3, 60755, Note_on_c, 1, 52, 0
3, 60760, Note_on_c, 1, 60, 0
3, 60780, Note_on_c, 1, 60, 85
3, 60780, Note_on_c, 1, 52, 52
3, 60780, Note_on_c, 1, 55, 68
3, 60810, Note_on_c, 1, 55, 0
3, 60812, Note_on_c, 1, 52, 0
3, 60818, Note_on_c, 1, 60, 0
3, 60840, Note_on_c, 1, 55, 57
3, 60840, Note_on_c, 1, 60, 76
3, 60840, Note_on_c, 1, 52, 60
3, 60863, Control_c, 1, 64, 0
3, 60901, Control_c, 1, 64, 127
3, 60974, Note_on_c, 1, 55, 0
3, 60982, Note_on_c, 1, 52, 0
3, 60994, Note_on_c, 1, 60, 0
3, 61020, Note_on_c, 1, 54, 60
3, 61020, Note_on_c, 1, 59, 72
3, 61020, Note_on_c, 1, 50, 76
3, 61021, Control_c, 1, 64, 0
3, 61037, Control_c, 1, 64, 127
3, 61045, Note_on_c, 1, 54, 0
3, 61046, Note_on_c, 1, 50, 0
3, 61068, Note_on_c, 1, 59, 0
3, 61080, Note_on_c, 1, 48, 62
3, 61080, Note_on_c, 1, 57, 89
3, 61080, Note_on_c, 1, 52, 57
3, 61081, Control_c, 1, 64, 0
3, 61096, Control_c, 1, 64, 127
3, 61108, Note_on_c, 1, 52, 0
3, 61114, Note_on_c, 1, 48, 0
3, 61116, Note_on_c, 1, 57, 0
3, 61140, Note_on_c, 1, 55, 85
3, 61140, Note_on_c, 1, 50, 85
3, 61140, Note_on_c, 1, 47, 59
3, 61143, Control_c, 1, 64, 0
3, 61161, Control_c, 1, 64, 127
3, 61170, Note_on_c, 1, 47, 0
3, 61170, Note_on_c, 1, 50, 0
3, 61177, Note_on_c, 1, 55, 0
3, 61200, Note_on_c, 1, 59, 72
3, 61200, Note_on_c, 1, 48, 62
3, 61200, Note_on_c, 1, 50, 62
3, 61204, Control_c, 1, 64, 0
3, 61234, Control_c, 1, 64, 127
3, 61260, Note_on_c, 1, 57, 64
3, 61261, Note_on_c, 1, 59, 0
3, 61315, Note_on_c, 1, 48, 0
3, 61315, Note_on_c, 1, 57, 0
3, 61319, Control_c, 1, 64, 0
3, 61320, Note_on_c, 1, 47, 55
3, 61320, Note_on_c, 1, 55, 59
3, 61343, Control_c, 1, 64, 127
3, 61350, Note_on_c, 1, 47, 0
3, 61352, Note_on_c, 1, 50, 0
3, 61357, Note_on_c, 1, 55, 0
3, 61380, Control_c, 1, 64, 0
3, 61380, Note_on_c, 1, 60, 85
3, 61380, Note_on_c, 1, 52, 68
3, 61380, Note_on_c, 1, 55, 60
3, 61407, Control_c, 1, 64, 127
3, 61418, Note_on_c, 1, 55, 0
3, 61418, Note_on_c, 1, 52, 0
3, 61422, Note_on_c, 1, 60, 0
3, 61440, Note_on_c, 1, 60, 80
3, 61440, Note_on_c, 1, 52, 64
3, 61440, Note_on_c, 1, 55, 62
3, 61468, Note_on_c, 1, 55, 0
3, 61474, Note_on_c, 1, 52, 0
3, 61478, Note_on_c, 1, 60, 0
3, 61500, Note_on_c, 1, 60, 80
3, 61500, Note_on_c, 1, 52, 62
3, 61500, Note_on_c, 1, 55, 76
3, 61523, Note_on_c, 1, 55, 0
3, 61523, Note_on_c, 1, 52, 0
3, 61530, Note_on_c, 1, 60, 0
3, 61560, Note_on_c, 1, 60, 89
3, 61560, Note_on_c, 1, 55, 89
3, 61560, Note_on_c, 1, 52, 80
3, 61573, Control_c, 1, 64, 0
3, 61607, Control_c, 1, 64, 127
3, 61687, Note_on_c, 1, 55, 0
3, 61694, Note_on_c, 1, 52, 0
3, 61722, Note_on_c, 1, 60, 0
3, 61740, Note_on_c, 1, 54, 60
3, 61740, Note_on_c, 1, 59, 85
3, 61740, Note_on_c, 1, 50, 68
3, 61741, Control_c, 1, 64, 0
3, 61758, Control_c, 1, 64, 127
3, 61766, Note_on_c, 1, 54, 0
3, 61769, Note_on_c, 1, 50, 0
3, 61795, Note_on_c, 1, 59, 0
3, 61800, Note_on_c, 1, 57, 80
3, 61800, Note_on_c, 1, 48, 62
3, 61800, Note_on_c, 1, 52, 60
3, 61804, Control_c, 1, 64, 0
3, 61820, Control_c, 1, 64, 127
3, 61829, Note_on_c, 1, 52, 0
3, 61841, Note_on_c, 1, 48, 0
3, 61855, Note_on_c, 1, 57, 0
3, 61860, Note_on_c, 1, 47, 68
3, 61860, Note_on_c, 1, 55, 76
3, 61860, Note_on_c, 1, 50, 72
3, 61861, Control_c, 1, 64, 0
3, 61877, Control_c, 1, 64, 127
3, 61885, Note_on_c, 1, 50, 0
3, 61889, Note_on_c, 1, 47, 0
3, 61893, Note_on_c, 1, 55, 0
3, 61920, Note_on_c, 1, 50, 76
3, 61920, Note_on_c, 1, 59, 76
3, 61920, Note_on_c, 1, 48, 64
3, 61924, Control_c, 1, 64, 0
3, 61957, Control_c, 1, 64, 127
3, 61979, Note_on_c, 1, 59, 0
3, 61980, Note_on_c, 1, 57, 72
3, 62000, Note_on_c, 1, 50, 0
3, 62010, Note_on_c, 1, 48, 0
3, 62032, Control_c, 1, 64, 0
3, 62035, Note_on_c, 1, 57, 0
3, 62040, Note_on_c, 1, 55, 76
3, 62040, Note_on_c, 1, 47, 76
3, 62040, Note_on_c, 1, 50, 72
3, 62049, Control_c, 1, 64, 127
3, 62063, Note_on_c, 1, 47, 0
3, 62064, Note_on_c, 1, 50, 0
3, 62068, Note_on_c, 1, 55, 0
3, 62095, Control_c, 1, 64, 0
3, 62100, Note_on_c, 1, 40, 102
3, 62100, Note_on_c, 1, 52, 89
3, 62100, Note_on_c, 1, 55, 107
3, 62100, Note_on_c, 1, 60, 107
3, 62110, Note_on_c, 1, 52, 0
3, 62111, Note_on_c, 1, 55, 0
3, 62112, Note_on_c, 1, 40, 0
3, 62112, Note_on_c, 1, 60, 0
3, 62160, Note_on_c, 1, 55, 107
3, 62160, Note_on_c, 1, 40, 107
3, 62160, Note_on_c, 1, 52, 98
3, 62160, Note_on_c, 1, 60, 107
3, 62171, Note_on_c, 1, 40, 0
3, 62172, Note_on_c, 1, 55, 0
3, 62173, Note_on_c, 1, 52, 0
3, 62173, Note_on_c, 1, 60, 0
3, 62220, Note_on_c, 1, 55, 107
3, 62220, Note_on_c, 1, 52, 93
3, 62220, Note_on_c, 1, 40, 107
3, 62220, Note_on_c, 1, 60, 102
3, 62230, Note_on_c, 1, 40, 0
3, 62230, Note_on_c, 1, 52, 0
3, 62231, Note_on_c, 1, 55, 0
3, 62232, Note_on_c, 1, 60, 0
3, 62280, Note_on_c, 1, 55, 107
3, 62280, Note_on_c, 1, 60, 113
3, 62280, Note_on_c, 1, 52, 102
3, 62280, Note_on_c, 1, 40, 107
3, 62333, Control_c, 1, 64, 127
3, 62381, Note_on_c, 1, 40, 0
3, 62381, Note_on_c, 1, 52, 0
3, 62399, Note_on_c, 1, 55, 0
3, 62410, Note_on_c, 1, 60, 0
3, 62460, Control_c, 1, 64, 0
3, 62460, Note_on_c, 1, 38, 93
3, 62460, Note_on_c, 1, 59, 98
3, 62460, Note_on_c, 1, 54, 93
3, 62460, Note_on_c, 1, 50, 93
3, 62471, Note_on_c, 1, 50, 0
3, 62471, Note_on_c, 1, 54, 0
3, 62472, Note_on_c, 1, 59, 0
3, 62475, Note_on_c, 1, 38, 0
3, 62520, Note_on_c, 1, 36, 93
3, 62520, Note_on_c, 1, 52, 107
3, 62520, Note_on_c, 1, 57, 102
3, 62520, Note_on_c, 1, 48, 98
3, 62532, Note_on_c, 1, 48, 0
3, 62532, Note_on_c, 1, 52, 0
3, 62534, Note_on_c, 1, 36, 0
3, 62537, Note_on_c, 1, 57, 0
3, 62580, Note_on_c, 1, 55, 89
3, 62580, Note_on_c, 1, 47, 62
3, 62580, Note_on_c, 1, 50, 102
3, 62580, Note_on_c, 1, 35, 56
3, 62580, Note_on_c, 1, 36, 56
3, 62582, Note_on_c, 1, 36, 0
3, 62594, Note_on_c, 1, 55, 0
3, 62595, Note_on_c, 1, 50, 0
3, 62596, Note_on_c, 1, 47, 0
3, 62600, Note_on_c, 1, 35, 0
3, 62640, Note_on_c, 1, 54, 89
3, 62640, Note_on_c, 1, 33, 93
3, 62640, Note_on_c, 1, 48, 93
3, 62640, Note_on_c, 1, 45, 89
3, 62694, Control_c, 1, 64, 127
3, 62780, Note_on_c, 1, 48, 0
3, 62781, Note_on_c, 1, 54, 0
3, 62781, Note_on_c, 1, 33, 0
3, 62786, Note_on_c, 1, 45, 0
3, 62813, Control_c, 1, 64, 0
3, 62820, Note_on_c, 1, 35, 98
3, 62820, Note_on_c, 1, 56, 93
3, 62820, Note_on_c, 1, 47, 93
3, 62820, Note_on_c, 1, 53, 98
3, 62820, Note_on_c, 1, 50, 102
3, 62834, Note_on_c, 1, 50, 0
3, 62834, Note_on_c, 1, 47, 0
3, 62834, Note_on_c, 1, 53, 0
3, 62835, Note_on_c, 1, 56, 0
3, 62835, Note_on_c, 1, 35, 0
3, 62880, Note_on_c, 1, 35, 93
3, 62880, Note_on_c, 1, 56, 89
3, 62880, Note_on_c, 1, 50, 98
3, 62880, Note_on_c, 1, 47, 89
3, 62880, Note_on_c, 1, 53, 98
3, 62891, Note_on_c, 1, 53, 0
3, 62893, Note_on_c, 1, 50, 0
3, 62894, Note_on_c, 1, 47, 0
3, 62894, Note_on_c, 1, 35, 0
3, 62895, Note_on_c, 1, 56, 0
3, 62940, Note_on_c, 1, 35, 89
3, 62940, Note_on_c, 1, 56, 85
3, 62940, Note_on_c, 1, 50, 93
3, 62940, Note_on_c, 1, 53, 93
3, 62940, Note_on_c, 1, 47, 89
3, 62950, Note_on_c, 1, 47, 0
3, 62950, Note_on_c, 1, 53, 0
3, 62951, Note_on_c, 1, 50, 0
3, 62952, Note_on_c, 1, 56, 0
3, 62952, Note_on_c, 1, 35, 0
3, 63000, Note_on_c, 1, 53, 102
3, 63000, Note_on_c, 1, 56, 98
3, 63000, Note_on_c, 1, 50, 113
3, 63000, Note_on_c, 1, 35, 113
3, 63000, Note_on_c, 1, 47, 113
3, 63037, Control_c, 1, 64, 127
3, 63109, Note_on_c, 1, 35, 0
3, 63116, Note_on_c, 1, 47, 0
3, 63119, Note_on_c, 1, 53, 0
3, 63124, Note_on_c, 1, 56, 0
3, 63127, Note_on_c, 1, 50, 0
3, 63173, Control_c, 1, 64, 0
3, 63180, Note_on_c, 1, 36, 98
3, 63180, Note_on_c, 1, 48, 102
3, 63180, Note_on_c, 1, 52, 107
3, 63180, Note_on_c, 1, 57, 113
3, 63194, Note_on_c, 1, 57, 0
3, 63194, Note_on_c, 1, 52, 0
3, 63194, Note_on_c, 1, 36, 0
3, 63195, Note_on_c, 1, 48, 0
3, 63240, Note_on_c, 1, 52, 102
3, 63240, Note_on_c, 1, 57, 107
3, 63240, Note_on_c, 1, 48, 89
3, 63240, Note_on_c, 1, 36, 98
3, 63252, Note_on_c, 1, 36, 0
3, 63252, Note_on_c, 1, 48, 0
3, 63252, Note_on_c, 1, 52, 0
3, 63254, Note_on_c, 1, 57, 0
3, 63300, Note_on_c, 1, 57, 102
3, 63300, Note_on_c, 1, 52, 98
3, 63300, Note_on_c, 1, 36, 89
3, 63300, Note_on_c, 1, 48, 80
3, 63311, Note_on_c, 1, 52, 0
3, 63312, Note_on_c, 1, 48, 0
3, 63312, Note_on_c, 1, 36, 0
3, 63313, Note_on_c, 1, 57, 0
3, 63360, Note_on_c, 1, 52, 107
3, 63360, Note_on_c, 1, 57, 107
3, 63360, Note_on_c, 1, 36, 102
3, 63360, Note_on_c, 1, 48, 93
3, 63389, Control_c, 1, 64, 127
3, 63483, Note_on_c, 1, 52, 0
3, 63484, Note_on_c, 1, 48, 0
3, 63484, Note_on_c, 1, 36, 0
3, 63485, Note_on_c, 1, 57, 0
3, 63487, Control_c, 1, 64, 0
3, 63720, Note_on_c, 1, 59, 68
3, 63720, Note_on_c, 1, 55, 72
3, 63720, Note_on_c, 1, 50, 62
3, 63740, Control_c, 1, 64, 127
3, 63859, Note_on_c, 1, 50, 0
3, 63859, Note_on_c, 1, 55, 0
3, 63860, Note_on_c, 1, 59, 0
3, 63887, Control_c, 1, 64, 0
3, 63900, Note_on_c, 1, 50, 64
3, 63900, Note_on_c, 1, 55, 62
3, 63900, Note_on_c, 1, 59, 72
3, 63916, Control_c, 1, 64, 127
3, 63935, Note_on_c, 1, 59, 0
3, 63937, Note_on_c, 1, 50, 0
3, 63939, Note_on_c, 1, 55, 0
3, 63960, Note_on_c, 1, 59, 72
3, 63960, Note_on_c, 1, 55, 68
3, 63960, Note_on_c, 1, 50, 62
3, 63984, Note_on_c, 1, 50, 0
3, 63990, Note_on_c, 1, 55, 0
3, 63991, Note_on_c, 1, 59, 0
3, 64020, Note_on_c, 1, 59, 76
3, 64020, Note_on_c, 1, 55, 72
3, 64020, Note_on_c, 1, 50, 62
3, 64038, Note_on_c, 1, 55, 0
3, 64038, Note_on_c, 1, 59, 0
3, 64039, Note_on_c, 1, 50, 0
3, 64080, Note_on_c, 1, 60, 76
3, 64080, Note_on_c, 1, 54, 68
3, 64080, Note_on_c, 1, 50, 68
3, 64086, Control_c, 1, 64, 0
3, 64108, Control_c, 1, 64, 127
3, 64192, Note_on_c, 1, 54, 0
3, 64192, Note_on_c, 1, 60, 0
3, 64193, Note_on_c, 1, 50, 0
3, 64207, Control_c, 1, 64, 0
3, 64260, Note_on_c, 1, 38, 76
3, 64260, Note_on_c, 1, 60, 60
3, 64260, Note_on_c, 1, 57, 80
3, 64260, Note_on_c, 1, 50, 62
3, 64265, Control_c, 1, 64, 127
3, 64297, Note_on_c, 1, 50, 0
3, 64298, Note_on_c, 1, 57, 0
3, 64299, Note_on_c, 1, 60, 0
3, 64300, Note_on_c, 1, 38, 0
3, 64320, Note_on_c, 1, 50, 76
3, 64320, Note_on_c, 1, 57, 76
3, 64320, Note_on_c, 1, 60, 64
3, 64320, Note_on_c, 1, 38, 89
3, 64350, Note_on_c, 1, 38, 0
3, 64354, Note_on_c, 1, 50, 0
3, 64355, Note_on_c, 1, 57, 0
3, 64357, Note_on_c, 1, 60, 0
3, 64380, Note_on_c, 1, 50, 76
3, 64380, Note_on_c, 1, 57, 76
3, 64380, Note_on_c, 1, 60, 57
3, 64380, Note_on_c, 1, 38, 89
3, 64402, Note_on_c, 1, 38, 0
3, 64403, Note_on_c, 1, 50, 0
3, 64405, Note_on_c, 1, 60, 0
3, 64409, Note_on_c, 1, 57, 0
3, 64439, Control_c, 1, 64, 0
3, 64440, Note_on_c, 1, 59, 72
3, 64440, Note_on_c, 1, 55, 85
3, 64440, Note_on_c, 1, 50, 76
3, 64440, Note_on_c, 1, 43, 72
3, 64475, Control_c, 1, 64, 127
3, 64564, Note_on_c, 1, 43, 0
3, 64564, Note_on_c, 1, 50, 0
3, 64564, Note_on_c, 1, 55, 0
3, 64566, Note_on_c, 1, 59, 0
3, 64569, Control_c, 1, 64, 0
3, 64620, Note_on_c, 1, 55, 68
3, 64620, Note_on_c, 1, 59, 64
3, 64620, Note_on_c, 1, 43, 62
3, 64623, Control_c, 1, 64, 127
3, 64660, Note_on_c, 1, 43, 0
3, 64661, Note_on_c, 1, 59, 0
3, 64662, Note_on_c, 1, 55, 0
3, 64680, Note_on_c, 1, 59, 76
3, 64680, Note_on_c, 1, 55, 68
3, 64680, Note_on_c, 1, 43, 72
3, 64713, Note_on_c, 1, 43, 0
3, 64717, Note_on_c, 1, 55, 0
3, 64717, Note_on_c, 1, 59, 0
3, 64740, Note_on_c, 1, 59, 72
3, 64740, Note_on_c, 1, 55, 76
3, 64740, Note_on_c, 1, 43, 72
3, 64756, Note_on_c, 1, 43, 0
3, 64759, Note_on_c, 1, 55, 0
3, 64760, Note_on_c, 1, 59, 0
3, 64800, Note_on_c, 1, 60, 80
3, 64800, Note_on_c, 1, 54, 72
3, 64800, Note_on_c, 1, 50, 89
3, 64806, Control_c, 1, 64, 0
3, 64840, Control_c, 1, 64, 127
3, 64912, Note_on_c, 1, 60, 0
3, 64913, Note_on_c, 1, 50, 0
3, 64916, Note_on_c, 1, 54, 0
3, 64932, Control_c, 1, 64, 0
3, 64980, Note_on_c, 1, 38, 89
3, 64980, Note_on_c, 1, 57, 85
3, 64980, Note_on_c, 1, 60, 68
3, 64980, Note_on_c, 1, 50, 76
3, 64984, Control_c, 1, 64, 127
3, 65017, Note_on_c, 1, 50, 0
3, 65018, Note_on_c, 1, 60, 0
3, 65019, Note_on_c, 1, 57, 0
3, 65019, Note_on_c, 1, 38, 0
3, 65040, Note_on_c, 1, 57, 85
3, 65040, Note_on_c, 1, 50, 80
3, 65040, Note_on_c, 1, 60, 89
3, 65040, Note_on_c, 1, 38, 93
3, 65069, Note_on_c, 1, 38, 0
3, 65074, Note_on_c, 1, 50, 0
3, 65077, Note_on_c, 1, 60, 0
3, 65077, Note_on_c, 1, 57, 0
3, 65100, Note_on_c, 1, 57, 89
3, 65100, Note_on_c, 1, 60, 68
3, 65100, Note_on_c, 1, 50, 80
3, 65100, Note_on_c, 1, 38, 93
3, 65122, Note_on_c, 1, 50, 0
3, 65123, Note_on_c, 1, 38, 0
3, 65126, Note_on_c, 1, 60, 0
3, 65131, Note_on_c, 1, 57, 0
3, 65160, Control_c, 1, 64, 0
3, 65160, Note_on_c, 1, 59, 89
3, 65160, Note_on_c, 1, 55, 89
3, 65160, Note_on_c, 1, 50, 93
3, 65160, Note_on_c, 1, 43, 80
3, 65197, Control_c, 1, 64, 127
3, 65292, Note_on_c, 1, 50, 0
3, 65293, Note_on_c, 1, 43, 0
3, 65295, Note_on_c, 1, 55, 0
3, 65296, Note_on_c, 1, 59, 0
3, 65316, Control_c, 1, 64, 0
3, 65340, Note_on_c, 1, 43, 85
3, 65340, Note_on_c, 1, 55, 98
3, 65340, Note_on_c, 1, 59, 93
3, 65357, Control_c, 1, 64, 127
3, 65382, Note_on_c, 1, 43, 0
3, 65385, Note_on_c, 1, 55, 0
3, 65386, Note_on_c, 1, 59, 0
3, 65400, Note_on_c, 1, 59, 93
3, 65400, Note_on_c, 1, 55, 93
3, 65400, Note_on_c, 1, 43, 93
3, 65425, Note_on_c, 1, 43, 0
3, 65436, Note_on_c, 1, 55, 0
3, 65438, Note_on_c, 1, 59, 0
3, 65460, Note_on_c, 1, 59, 85
3, 65460, Note_on_c, 1, 55, 89
3, 65460, Note_on_c, 1, 43, 89
3, 65477, Note_on_c, 1, 43, 0
3, 65481, Note_on_c, 1, 55, 0
3, 65481, Note_on_c, 1, 59, 0
3, 65520, Note_on_c, 1, 47, 93
3, 65520, Note_on_c, 1, 35, 98
3, 65520, Note_on_c, 1, 54, 102
3, 65520, Note_on_c, 1, 57, 107
3, 65520, Note_on_c, 1, 59, 102
3, 65522, Control_c, 1, 64, 0
3, 65567, Control_c, 1, 64, 127
3, 65638, Note_on_c, 1, 57, 0
3, 65642, Note_on_c, 1, 59, 0
3, 65644, Note_on_c, 1, 54, 0
3, 65647, Note_on_c, 1, 35, 0
3, 65647, Note_on_c, 1, 47, 0
3, 65695, Control_c, 1, 64, 0
3, 65700, Note_on_c, 1, 57, 102
3, 65700, Note_on_c, 1, 60, 102
3, 65700, Note_on_c, 1, 35, 102
3, 65700, Note_on_c, 1, 47, 80
3, 65716, Control_c, 1, 64, 127
3, 65740, Note_on_c, 1, 47, 0
3, 65741, Note_on_c, 1, 35, 0
3, 65745, Note_on_c, 1, 57, 0
3, 65746, Note_on_c, 1, 60, 0
3, 65759, Control_c, 1, 64, 0
3, 65760, Note_on_c, 1, 35, 93
3, 65760, Note_on_c, 1, 55, 93
3, 65760, Note_on_c, 1, 59, 98
3, 65760, Note_on_c, 1, 47, 85
3, 65776, Control_c, 1, 64, 127
3, 65795, Note_on_c, 1, 59, 0
3, 65797, Note_on_c, 1, 55, 0
3, 65798, Note_on_c, 1, 47, 0
3, 65799, Note_on_c, 1, 35, 0
3, 65817, Control_c, 1, 64, 0
3, 65820, Note_on_c, 1, 57, 85
3, 65820, Note_on_c, 1, 54, 72
3, 65820, Note_on_c, 1, 35, 89
3, 65820, Note_on_c, 1, 47, 72
3, 65833, Control_c, 1, 64, 127
3, 65848, Note_on_c, 1, 35, 0
3, 65848, Note_on_c, 1, 54, 0
3, 65850, Note_on_c, 1, 47, 0
3, 65853, Note_on_c, 1, 57, 0
3, 65878, Control_c, 1, 64, 0
3, 65880, Note_on_c, 1, 36, 72
3, 65880, Note_on_c, 1, 48, 72
3, 65880, Note_on_c, 1, 55, 80
3, 65880, Note_on_c, 1, 52, 80
3, 65904, Control_c, 1, 64, 127
3, 65971, Note_on_c, 1, 55, 0
3, 65983, Note_on_c, 1, 52, 0
3, 66000, Note_on_c, 1, 56, 72
3, 66016, Control_c, 1, 64, 0
3, 66048, Note_on_c, 1, 56, 0
3, 66060, Note_on_c, 1, 57, 68
3, 66115, Note_on_c, 1, 57, 0
3, 66120, Note_on_c, 1, 59, 72
3, 66174, Control_c, 1, 64, 127
3, 66178, Note_on_c, 1, 59, 0
3, 66180, Note_on_c, 1, 60, 59
3, 66209, Note_on_c, 1, 36, 0
3, 66211, Note_on_c, 1, 48, 0
3, 66240, Note_on_c, 1, 50, 55
3, 66240, Note_on_c, 1, 59, 68
3, 66240, Note_on_c, 1, 38, 55
3, 66241, Control_c, 1, 64, 0
3, 66248, Note_on_c, 1, 60, 0
3, 66298, Note_on_c, 1, 59, 0
3, 66298, Control_c, 1, 64, 127
3, 66300, Note_on_c, 1, 62, 60
3, 66360, Note_on_c, 1, 59, 76
3, 66363, Note_on_c, 1, 62, 0
3, 66419, Note_on_c, 1, 59, 0
3, 66420, Note_on_c, 1, 62, 55
3, 66466, Note_on_c, 1, 62, 0
3, 66480, Note_on_c, 1, 54, 56
3, 66480, Note_on_c, 1, 60, 68
3, 66481, Control_c, 1, 64, 0
3, 66522, Control_c, 1, 64, 127
3, 66540, Note_on_c, 1, 60, 0
3, 66540, Note_on_c, 1, 62, 72
3, 66542, Note_on_c, 1, 54, 0
3, 66560, Note_on_c, 1, 62, 0
3, 66573, Note_on_c, 1, 50, 0
3, 66581, Note_on_c, 1, 38, 0
3, 66600, Control_c, 1, 64, 0
3, 66600, Note_on_c, 1, 59, 98
3, 66600, Note_on_c, 1, 43, 89
3, 66600, Note_on_c, 1, 55, 98
3, 66628, Note_on_c, 1, 59, 0
3, 66629, Note_on_c, 1, 43, 0
3, 66630, Note_on_c, 1, 55, 0
3, 66720, Note_on_c, 1, 47, 98
3, 66720, Note_on_c, 1, 59, 98
3, 66739, Note_on_c, 1, 59, 0
3, 66742, Note_on_c, 1, 47, 0
3, 66840, Note_on_c, 1, 39, 93
3, 66840, Note_on_c, 1, 51, 113
3, 66858, Note_on_c, 1, 51, 0
3, 66858, Note_on_c, 1, 39, 0
3, 66960, Note_on_c, 1, 40, 102
3, 66960, Note_on_c, 1, 52, 98
3, 66977, Note_on_c, 1, 40, 0
3, 66979, Note_on_c, 1, 52, 0
3, 67080, Note_on_c, 1, 60, 102
3, 67080, Note_on_c, 1, 48, 98
3, 67095, Note_on_c, 1, 48, 0
3, 67096, Note_on_c, 1, 60, 0
3, 67290, Note_on_c, 1, 57, 93
3, 67290, Note_on_c, 1, 45, 93
3, 67303, Note_on_c, 1, 45, 0
3, 67305, Note_on_c, 1, 57, 0
3, 67320, Note_on_c, 1, 54, 102
3, 67320, Note_on_c, 1, 42, 89
3, 67336, Note_on_c, 1, 42, 0
3, 67338, Note_on_c, 1, 54, 0
3, 67440, Note_on_c, 1, 62, 113
3, 67440, Note_on_c, 1, 50, 102
3, 67456, Note_on_c, 1, 62, 0
3, 67457, Note_on_c, 1, 50, 0
3, 67650, Note_on_c, 1, 59, 93
3, 67650, Note_on_c, 1, 47, 93
3, 67663, Note_on_c, 1, 47, 0
3, 67663, Note_on_c, 1, 59, 0
3, 67680, Note_on_c, 1, 56, 107
3, 67680, Note_on_c, 1, 44, 102
3, 67695, Note_on_c, 1, 44, 0
3, 67695, Note_on_c, 1, 56, 0
3, 67800, Note_on_c, 1, 64, 107
3, 67800, Note_on_c, 1, 52, 93
3, 67815, Note_on_c, 1, 52, 0
3, 67817, Note_on_c, 1, 64, 0
3, 68010, Note_on_c, 1, 60, 89
3, 68010, Note_on_c, 1, 48, 98
3, 68020, Note_on_c, 1, 48, 0
3, 68020, Note_on_c, 1, 60, 0
3, 68040, Note_on_c, 1, 60, 80
3, 68040, Note_on_c, 1, 66, 85
3, 68040, Note_on_c, 1, 45, 89
3, 68040, Note_on_c, 1, 57, 76
3, 68081, Note_on_c, 1, 57, 0
3, 68082, Note_on_c, 1, 60, 0
3, 68085, Note_on_c, 1, 45, 0
3, 68085, Note_on_c, 1, 66, 0
3, 68160, Note_on_c, 1, 59, 56
3, 68160, Note_on_c, 1, 67, 85
3, 68160, Note_on_c, 1, 47, 76
3, 68160, Note_on_c, 1, 62, 85
3, 68173, Control_c, 1, 64, 127
3, 68196, Note_on_c, 1, 62, 0
3, 68196, Control_c, 1, 64, 0
3, 68197, Note_on_c, 1, 59, 0
3, 68199, Note_on_c, 1, 47, 0
3, 68199, Note_on_c, 1, 67, 0
3, 68280, Note_on_c, 1, 48, 76
3, 68280, Note_on_c, 1, 60, 72
3, 68280, Note_on_c, 1, 64, 93
3, 68280, Note_on_c, 1, 69, 93
3, 68308, Note_on_c, 1, 60, 0
3, 68310, Note_on_c, 1, 64, 0
3, 68311, Note_on_c, 1, 69, 0
3, 68318, Note_on_c, 1, 48, 0
3, 68400, Note_on_c, 1, 62, 93
3, 68400, Note_on_c, 1, 50, 93
3, 68415, Control_c, 1, 64, 127
3, 68457, Note_on_c, 1, 50, 0
3, 68458, Note_on_c, 1, 62, 0
3, 68460, Note_on_c, 1, 45, 89
3, 68460, Note_on_c, 1, 57, 93
3, 68461, Control_c, 1, 64, 0
3, 68490, Control_c, 1, 64, 127
3, 68510, Control_c, 1, 64, 0
3, 68520, Note_on_c, 1, 57, 0
3, 68520, Note_on_c, 1, 54, 89
3, 68520, Note_on_c, 1, 42, 76
3, 68522, Note_on_c, 1, 45, 0
3, 68579, Note_on_c, 1, 54, 0
3, 68580, Note_on_c, 1, 50, 89
3, 68580, Note_on_c, 1, 38, 93
3, 68581, Note_on_c, 1, 42, 0
3, 68593, Control_c, 1, 64, 127
3, 68630, Control_c, 1, 64, 0
3, 68640, Note_on_c, 1, 38, 0
3, 68640, Note_on_c, 1, 50, 0
3, 68640, Note_on_c, 1, 43, 80
3, 68640, Note_on_c, 1, 55, 98
3, 68672, Control_c, 1, 64, 127
3, 68690, Control_c, 1, 64, 0
3, 68696, Note_on_c, 1, 55, 0
3, 68700, Note_on_c, 1, 35, 93
3, 68700, Note_on_c, 1, 47, 98
3, 68702, Note_on_c, 1, 43, 0
3, 68724, Control_c, 1, 64, 127
3, 68753, Control_c, 1, 64, 0
3, 68754, Note_on_c, 1, 35, 0
3, 68756, Note_on_c, 1, 47, 0
3, 68760, Note_on_c, 1, 36, 72
3, 68760, Note_on_c, 1, 48, 93
3, 68782, Control_c, 1, 64, 127
3, 68812, Control_c, 1, 64, 0
3, 68820, Note_on_c, 1, 48, 0
3, 68820, Note_on_c, 1, 33, 80
3, 68820, Note_on_c, 1, 45, 93
3, 68821, Note_on_c, 1, 36, 0
3, 68846, Control_c, 1, 64, 127
3, 68873, Control_c, 1, 64, 0
3, 68879, Note_on_c, 1, 45, 0
3, 68880, Note_on_c, 1, 50, 98
3, 68880, Note_on_c, 1, 38, 85
3, 68882, Note_on_c, 1, 33, 0
3, 68909, Control_c, 1, 64, 127
3, 68936, Control_c, 1, 64, 0
3, 68940, Note_on_c, 1, 38, 0
3, 68940, Note_on_c, 1, 50, 0
3, 68940, Note_on_c, 1, 37, 76
3, 68940, Note_on_c, 1, 49, 89
3, 68962, Control_c, 1, 64, 127
3, 68995, Control_c, 1, 64, 0
3, 68997, Note_on_c, 1, 49, 0
3, 68998, Note_on_c, 1, 37, 0
3, 69000, Note_on_c, 1, 50, 98
3, 69000, Note_on_c, 1, 38, 93
3, 69030, Control_c, 1, 64, 127
3, 69051, Note_on_c, 1, 50, 0
3, 69060, Note_on_c, 1, 50, 93
3, 69110, Note_on_c, 1, 50, 0
3, 69116, Note_on_c, 1, 38, 0
3, 69116, Control_c, 1, 64, 0
3, 69120, Note_on_c, 1, 31, 93
3, 69120, Note_on_c, 1, 55, 93
3, 69120, Note_on_c, 1, 43, 76
3, 69169, Control_c, 1, 64, 127
3, 69241, Control_c, 1, 64, 0
3, 69244, Note_on_c, 1, 55, 0
3, 69245, Note_on_c, 1, 43, 0
3, 69246, Note_on_c, 1, 31, 0
3, 69480, Note_on_c, 1, 52, 93
3, 69499, Control_c, 1, 64, 127
3, 69533, Control_c, 1, 64, 0
3, 69539, Note_on_c, 1, 52, 0
3, 69540, Note_on_c, 1, 64, 89
3, 69540, Note_on_c, 1, 43, 89
3, 69552, Control_c, 1, 64, 127
3, 69570, Note_on_c, 1, 64, 0
3, 69570, Note_on_c, 1, 66, 72
3, 69578, Note_on_c, 1, 43, 0
3, 69596, Control_c, 1, 64, 0
3, 69598, Note_on_c, 1, 66, 0
3, 69600, Note_on_c, 1, 40, 80
3, 69600, Note_on_c, 1, 67, 93
3, 69626, Control_c, 1, 64, 127
3, 69630, Note_on_c, 1, 66, 76
3, 69632, Note_on_c, 1, 67, 0
3, 69653, Control_c, 1, 64, 0
3, 69657, Note_on_c, 1, 40, 0
3, 69658, Note_on_c, 1, 66, 0
3, 69660, Note_on_c, 1, 64, 89
3, 69660, Note_on_c, 1, 43, 76
3, 69676, Control_c, 1, 64, 127
3, 69690, Note_on_c, 1, 62, 89
3, 69691, Note_on_c, 1, 64, 0
3, 69709, Note_on_c, 1, 62, 0
3, 69713, Control_c, 1, 64, 0
3, 69719, Note_on_c, 1, 43, 0
3, 69720, Note_on_c, 1, 60, 89
3, 69720, Note_on_c, 1, 47, 89
3, 69736, Control_c, 1, 64, 127
3, 69750, Note_on_c, 1, 59, 80
3, 69753, Note_on_c, 1, 60, 0
3, 69770, Control_c, 1, 64, 0
3, 69776, Note_on_c, 1, 47, 0
3, 69778, Note_on_c, 1, 59, 0
3, 69780, Note_on_c, 1, 57, 89
3, 69780, Note_on_c, 1, 52, 80
3, 69792, Control_c, 1, 64, 127
3, 69808, Note_on_c, 1, 57, 0
3, 69810, Note_on_c, 1, 55, 85
3, 69828, Control_c, 1, 64, 0
3, 69838, Note_on_c, 1, 55, 0
3, 69838, Note_on_c, 1, 52, 0
3, 69840, Note_on_c, 1, 57, 93
3, 69840, Note_on_c, 1, 48, 85
3, 69859, Control_c, 1, 64, 127
3, 69951, Note_on_c, 1, 48, 0
3, 69951, Note_on_c, 1, 57, 0
3, 69954, Control_c, 1, 64, 0
3, 70200, Note_on_c, 1, 50, 93
3, 70224, Control_c, 1, 64, 127
3, 70252, Note_on_c, 1, 50, 0
3, 70260, Note_on_c, 1, 38, 89
3, 70260, Note_on_c, 1, 66, 72
3, 70285, Note_on_c, 1, 66, 0
3, 70290, Note_on_c, 1, 67, 72
3, 70314, Control_c, 1, 64, 0
3, 70315, Note_on_c, 1, 38, 0
3, 70317, Note_on_c, 1, 67, 0
3, 70320, Note_on_c, 1, 69, 93
3, 70320, Note_on_c, 1, 42, 64
3, 70347, Note_on_c, 1, 69, 0
3, 70349, Control_c, 1, 64, 127
3, 70350, Note_on_c, 1, 67, 80
3, 70372, Control_c, 1, 64, 0
3, 70375, Note_on_c, 1, 42, 0
3, 70376, Note_on_c, 1, 67, 0
3, 70380, Note_on_c, 1, 66, 76
3, 70380, Note_on_c, 1, 45, 89
3, 70397, Control_c, 1, 64, 127
3, 70410, Note_on_c, 1, 64, 80
3, 70412, Note_on_c, 1, 66, 0
3, 70426, Control_c, 1, 64, 0
3, 70439, Note_on_c, 1, 64, 0
3, 70440, Note_on_c, 1, 45, 0
3, 70440, Note_on_c, 1, 62, 85
3, 70440, Note_on_c, 1, 50, 89
3, 70446, Control_c, 1, 64, 127
3, 70466, Note_on_c, 1, 62, 0
3, 70470, Note_on_c, 1, 60, 76
3, 70492, Control_c, 1, 64, 0
3, 70498, Note_on_c, 1, 60, 0
3, 70500, Note_on_c, 1, 59, 89
3, 70500, Note_on_c, 1, 54, 80
3, 70503, Note_on_c, 1, 50, 0
3, 70513, Control_c, 1, 64, 127
3, 70530, Note_on_c, 1, 54, 0
3, 70530, Note_on_c, 1, 57, 80
3, 70531, Note_on_c, 1, 59, 0
3, 70555, Control_c, 1, 64, 0
3, 70556, Note_on_c, 1, 57, 0
3, 70560, Note_on_c, 1, 59, 93
3, 70560, Note_on_c, 1, 43, 72
3, 70560, Note_on_c, 1, 55, 76
3, 70599, Control_c, 1, 64, 127
3, 70675, Control_c, 1, 64, 0
3, 70678, Note_on_c, 1, 55, 0
3, 70680, Note_on_c, 1, 43, 0
3, 70683, Note_on_c, 1, 59, 0
3, 70920, Note_on_c, 1, 40, 85
3, 70920, Note_on_c, 1, 52, 85
3, 70920, Note_on_c, 1, 40, 76
3, 70920, Note_on_c, 1, 52, 76
3, 70932, Control_c, 1, 64, 127
3, 70951, Note_on_c, 1, 40, 0
3, 70953, Note_on_c, 1, 52, 0
3, 70980, Note_on_c, 1, 40, 85
3, 70980, Note_on_c, 1, 67, 89
3, 70999, Note_on_c, 1, 52, 0
3, 70999, Note_on_c, 1, 40, 0
3, 71005, Note_on_c, 1, 67, 0
3, 71010, Note_on_c, 1, 69, 76
3, 71029, Note_on_c, 1, 40, 0
3, 71030, Note_on_c, 1, 69, 0
3, 71034, Control_c, 1, 64, 0
3, 71040, Note_on_c, 1, 43, 80
3, 71040, Note_on_c, 1, 71, 89
3, 71061, Control_c, 1, 64, 127
3, 71065, Note_on_c, 1, 71, 0
3, 71070, Note_on_c, 1, 69, 76
3, 71096, Note_on_c, 1, 43, 0
3, 71098, Control_c, 1, 64, 0
3, 71100, Note_on_c, 1, 67, 80
3, 71100, Note_on_c, 1, 47, 85
3, 71102, Note_on_c, 1, 69, 0
3, 71117, Control_c, 1, 64, 127
3, 71130, Note_on_c, 1, 67, 0
3, 71130, Note_on_c, 1, 66, 64
3, 71145, Note_on_c, 1, 66, 0
3, 71153, Control_c, 1, 64, 0
3, 71157, Note_on_c, 1, 47, 0
3, 71160, Note_on_c, 1, 64, 85
3, 71160, Note_on_c, 1, 52, 62
3, 71173, Control_c, 1, 64, 127
3, 71189, Note_on_c, 1, 64, 0
3, 71190, Note_on_c, 1, 62, 72
3, 71209, Note_on_c, 1, 62, 0
3, 71212, Control_c, 1, 64, 0
3, 71217, Note_on_c, 1, 52, 0
3, 71220, Note_on_c, 1, 60, 89
3, 71220, Note_on_c, 1, 55, 89
3, 71230, Control_c, 1, 64, 127
3, 71245, Note_on_c, 1, 55, 0
3, 71250, Note_on_c, 1, 59, 72
3, 71252, Note_on_c, 1, 60, 0
3, 71269, Note_on_c, 1, 59, 0
3, 71280, Note_on_c, 1, 36, 98
3, 71280, Note_on_c, 1, 48, 89
3, 71280, Note_on_c, 1, 57, 93
3, 71285, Control_c, 1, 64, 0
3, 71329, Control_c, 1, 64, 127
3, 71396, Note_on_c, 1, 57, 0
3, 71396, Note_on_c, 1, 48, 0
3, 71396, Note_on_c, 1, 36, 0
3, 71400, Control_c, 1, 64, 0
3, 71640, Note_on_c, 1, 38, 76
3, 71640, Note_on_c, 1, 50, 80
3, 71651, Control_c, 1, 64, 127
3, 71670, Note_on_c, 1, 50, 0
3, 71674, Note_on_c, 1, 38, 0
3, 71700, Note_on_c, 1, 69, 89
3, 71700, Note_on_c, 1, 38, 89
3, 71726, Note_on_c, 1, 69, 0
3, 71730, Note_on_c, 1, 71, 89
3, 71748, Note_on_c, 1, 38, 0
3, 71751, Control_c, 1, 64, 0
3, 71756, Note_on_c, 1, 71, 0
3, 71760, Note_on_c, 1, 42, 76
3, 71760, Note_on_c, 1, 72, 80
3, 71775, Control_c, 1, 64, 127
3, 71785, Note_on_c, 1, 72, 0
3, 71790, Note_on_c, 1, 71, 89
3, 71808, Note_on_c, 1, 71, 0
3, 71811, Control_c, 1, 64, 0
3, 71816, Note_on_c, 1, 42, 0
3, 71820, Note_on_c, 1, 69, 80
3, 71820, Note_on_c, 1, 45, 93
3, 71834, Control_c, 1, 64, 127
3, 71850, Note_on_c, 1, 67, 80
3, 71853, Note_on_c, 1, 69, 0
3, 71870, Control_c, 1, 64, 0
3, 71879, Note_on_c, 1, 67, 0
3, 71880, Note_on_c, 1, 45, 0
3, 71880, Note_on_c, 1, 66, 80
3, 71880, Note_on_c, 1, 50, 85
3, 71890, Control_c, 1, 64, 127
3, 71902, Note_on_c, 1, 66, 0
3, 71910, Note_on_c, 1, 64, 80
3, 71930, Control_c, 1, 64, 0
3, 71934, Note_on_c, 1, 64, 0
3, 71940, Note_on_c, 1, 62, 89
3, 71940, Note_on_c, 1, 52, 85
3, 71943, Note_on_c, 1, 50, 0
3, 71947, Control_c, 1, 64, 127
3, 71967, Note_on_c, 1, 62, 0
3, 71970, Note_on_c, 1, 60, 80
3, 71979, Note_on_c, 1, 52, 0
3, 71988, Control_c, 1, 64, 0
3, 71999, Note_on_c, 1, 60, 0
3, 72000, Note_on_c, 1, 55, 53
3, 72000, Note_on_c, 1, 59, 98
3, 72000, Note_on_c, 1, 43, 76
3, 72014, Control_c, 1, 64, 127
3, 72098, Note_on_c, 1, 43, 0
3, 72098, Note_on_c, 1, 59, 0
3, 72100, Note_on_c, 1, 55, 0
3, 72107, Control_c, 1, 64, 0
3, 72180, Note_on_c, 1, 57, 93
3, 72180, Note_on_c, 1, 66, 89
3, 72180, Note_on_c, 1, 60, 80
3, 72180, Note_on_c, 1, 50, 89
3, 72183, Control_c, 1, 64, 127
3, 72217, Note_on_c, 1, 50, 0
3, 72221, Note_on_c, 1, 57, 0
3, 72223, Note_on_c, 1, 66, 0
3, 72224, Note_on_c, 1, 60, 0
3, 72227, Control_c, 1, 64, 0
3, 72240, Note_on_c, 1, 50, 85
3, 72240, Note_on_c, 1, 60, 93
3, 72240, Note_on_c, 1, 66, 89
3, 72240, Note_on_c, 1, 57, 93
3, 72243, Control_c, 1, 64, 127
3, 72272, Note_on_c, 1, 50, 0
3, 72278, Note_on_c, 1, 57, 0
3, 72279, Note_on_c, 1, 66, 0
3, 72283, Note_on_c, 1, 60, 0
3, 72300, Note_on_c, 1, 60, 93
3, 72300, Note_on_c, 1, 66, 80
3, 72300, Note_on_c, 1, 57, 93
3, 72300, Note_on_c, 1, 50, 93
3, 72322, Note_on_c, 1, 57, 0
3, 72322, Note_on_c, 1, 60, 0
3, 72324, Note_on_c, 1, 66, 0
3, 72324, Note_on_c, 1, 50, 0
3, 72353, Control_c, 1, 64, 0
3, 72360, Note_on_c, 1, 59, 93
3, 72360, Note_on_c, 1, 67, 98
3, 72360, Note_on_c, 1, 62, 93
3, 72360, Note_on_c, 1, 55, 93
3, 72381, Control_c, 1, 64, 127
3, 72444, Note_on_c, 1, 62, 0
3, 72447, Note_on_c, 1, 67, 0
3, 72448, Note_on_c, 1, 55, 0
3, 72451, Note_on_c, 1, 59, 0
3, 72481, Control_c, 1, 64, 0
3, 72540, Note_on_c, 1, 54, 85
3, 72540, Note_on_c, 1, 60, 93
3, 72540, Note_on_c, 1, 38, 98
3, 72540, Note_on_c, 1, 57, 107
3, 72540, Note_on_c, 1, 50, 93
3, 72543, Control_c, 1, 64, 127
3, 72579, Note_on_c, 1, 50, 0
3, 72579, Note_on_c, 1, 38, 0
3, 72579, Note_on_c, 1, 60, 0
3, 72580, Note_on_c, 1, 54, 0
3, 72581, Note_on_c, 1, 57, 0
3, 72597, Control_c, 1, 64, 0
3, 72600, Note_on_c, 1, 54, 80
3, 72600, Note_on_c, 1, 57, 93
3, 72600, Note_on_c, 1, 60, 85
3, 72600, Note_on_c, 1, 38, 85
3, 72600, Note_on_c, 1, 50, 76
3, 72614, Control_c, 1, 64, 127
3, 72636, Note_on_c, 1, 60, 0
3, 72637, Note_on_c, 1, 50, 0
3, 72637, Note_on_c, 1, 54, 0
3, 72638, Note_on_c, 1, 57, 0
3, 72638, Note_on_c, 1, 38, 0
3, 72660, Note_on_c, 1, 54, 80
3, 72660, Note_on_c, 1, 60, 85
3, 72660, Note_on_c, 1, 57, 93
3, 72660, Note_on_c, 1, 38, 80
3, 72660, Note_on_c, 1, 50, 76
3, 72677, Note_on_c, 1, 50, 0
3, 72679, Note_on_c, 1, 57, 0
3, 72680, Note_on_c, 1, 60, 0
3, 72684, Note_on_c, 1, 38, 0
3, 72685, Note_on_c, 1, 54, 0
3, 72712, Control_c, 1, 64, 0
3, 72720, Note_on_c, 1, 55, 89
3, 72720, Note_on_c, 1, 59, 93
3, 72720, Note_on_c, 1, 43, 85
3, 72720, Note_on_c, 1, 50, 80
3, 72739, Control_c, 1, 64, 127
3, 72817, Note_on_c, 1, 43, 0
3, 72817, Note_on_c, 1, 55, 0
3, 72821, Note_on_c, 1, 50, 0
3, 72822, Note_on_c, 1, 59, 0
3, 72837, Control_c, 1, 64, 0
3, 72900, Note_on_c, 1, 66, 89
3, 72900, Note_on_c, 1, 60, 89
3, 72900, Note_on_c, 1, 50, 89
3, 72900, Note_on_c, 1, 57, 98
3, 72904, Control_c, 1, 64, 127
3, 72936, Note_on_c, 1, 50, 0
3, 72938, Note_on_c, 1, 57, 0
3, 72939, Note_on_c, 1, 66, 0
3, 72942, Note_on_c, 1, 60, 0
3, 72960, Note_on_c, 1, 60, 85
3, 72960, Note_on_c, 1, 66, 85
3, 72960, Note_on_c, 1, 57, 89
3, 72960, Note_on_c, 1, 50, 89
3, 72987, Note_on_c, 1, 50, 0
3, 72989, Note_on_c, 1, 57, 0
3, 72990, Note_on_c, 1, 66, 0
3, 72992, Note_on_c, 1, 60, 0
3, 73020, Note_on_c, 1, 66, 85
3, 73020, Note_on_c, 1, 60, 89
3, 73020, Note_on_c, 1, 57, 89
3, 73020, Note_on_c, 1, 50, 93
3, 73038, Note_on_c, 1, 50, 0
3, 73039, Note_on_c, 1, 57, 0
3, 73040, Note_on_c, 1, 66, 0
3, 73042, Note_on_c, 1, 60, 0
3, 73070, Control_c, 1, 64, 0
3, 73080, Note_on_c, 1, 59, 98
3, 73080, Note_on_c, 1, 67, 98
3, 73080, Note_on_c, 1, 55, 93
3, 73099, Control_c, 1, 64, 127
3, 73142, Note_on_c, 1, 55, 0
3, 73145, Note_on_c, 1, 67, 0
3, 73150, Note_on_c, 1, 59, 0
3, 73194, Control_c, 1, 64, 0
3, 73260, Note_on_c, 1, 54, 89
3, 73260, Note_on_c, 1, 57, 102
3, 73260, Note_on_c, 1, 38, 93
3, 73260, Note_on_c, 1, 60, 93
3, 73260, Note_on_c, 1, 50, 76
3, 73262, Control_c, 1, 64, 127
3, 73296, Note_on_c, 1, 50, 0
3, 73297, Note_on_c, 1, 38, 0
3, 73297, Note_on_c, 1, 60, 0
3, 73298, Note_on_c, 1, 57, 0
3, 73299, Note_on_c, 1, 54, 0
3, 73320, Note_on_c, 1, 54, 80
3, 73320, Note_on_c, 1, 38, 93
3, 73320, Note_on_c, 1, 60, 93
3, 73320, Note_on_c, 1, 57, 93
3, 73320, Note_on_c, 1, 50, 85
3, 73343, Note_on_c, 1, 38, 0
3, 73344, Note_on_c, 1, 50, 0
3, 73347, Note_on_c, 1, 60, 0
3, 73348, Note_on_c, 1, 57, 0
3, 73349, Note_on_c, 1, 54, 0
3, 73380, Note_on_c, 1, 54, 72
3, 73380, Note_on_c, 1, 38, 85
3, 73380, Note_on_c, 1, 60, 89
3, 73380, Note_on_c, 1, 57, 93
3, 73380, Note_on_c, 1, 50, 80
3, 73397, Note_on_c, 1, 50, 0
3, 73400, Note_on_c, 1, 38, 0
3, 73401, Note_on_c, 1, 57, 0
3, 73402, Note_on_c, 1, 54, 0
3, 73405, Note_on_c, 1, 60, 0
3, 73431, Control_c, 1, 64, 0
3, 73440, Note_on_c, 1, 59, 93
3, 73440, Note_on_c, 1, 55, 93
3, 73440, Note_on_c, 1, 43, 89
3, 73440, Note_on_c, 1, 50, 89
3, 73470, Control_c, 1, 64, 127
3, 73556, Note_on_c, 1, 43, 0
3, 73556, Note_on_c, 1, 59, 0
3, 73557, Note_on_c, 1, 55, 0
3, 73558, Note_on_c, 1, 50, 0
3, 73559, Control_c, 1, 64, 0
3, 73800, Note_on_c, 1, 43, 85
3, 73800, Note_on_c, 1, 55, 98
3, 73829, Note_on_c, 1, 55, 0
3, 73830, Note_on_c, 1, 57, 93
3, 73830, Note_on_c, 1, 45, 85
3, 73832, Note_on_c, 1, 43, 0
3, 73855, Note_on_c, 1, 57, 0
3, 73860, Note_on_c, 1, 59, 89
3, 73860, Note_on_c, 1, 47, 93
3, 73865, Note_on_c, 1, 45, 0
3, 73889, Note_on_c, 1, 47, 0
3, 73890, Note_on_c, 1, 48, 89
3, 73890, Note_on_c, 1, 60, 89
3, 73891, Note_on_c, 1, 59, 0
3, 73919, Note_on_c, 1, 60, 0
3, 73920, Note_on_c, 1, 59, 93
3, 73920, Note_on_c, 1, 47, 93
3, 73922, Note_on_c, 1, 48, 0
3, 73950, Note_on_c, 1, 57, 89
3, 73950, Note_on_c, 1, 45, 80
3, 73952, Note_on_c, 1, 59, 0
3, 73954, Note_on_c, 1, 47, 0
3, 73977, Note_on_c, 1, 45, 0
3, 73979, Note_on_c, 1, 57, 0
3, 73980, Note_on_c, 1, 55, 85
3, 73980, Note_on_c, 1, 43, 72
3, 74010, Note_on_c, 1, 43, 0
3, 74010, Note_on_c, 1, 55, 0
3, 74010, Note_on_c, 1, 54, 72
3, 74010, Note_on_c, 1, 42, 89
3, 74040, Note_on_c, 1, 42, 0
3, 74040, Note_on_c, 1, 52, 89
3, 74040, Note_on_c, 1, 40, 89
3, 74041, Note_on_c, 1, 54, 0
3, 74069, Note_on_c, 1, 52, 0
3, 74070, Note_on_c, 1, 50, 93
3, 74070, Note_on_c, 1, 38, 93
3, 74071, Note_on_c, 1, 40, 0
3, 74093, Note_on_c, 1, 50, 0
3, 74100, Note_on_c, 1, 48, 80
3, 74100, Note_on_c, 1, 36, 85
3, 74101, Note_on_c, 1, 38, 0
3, 74129, Note_on_c, 1, 48, 0
3, 74130, Note_on_c, 1, 36, 0
3, 74130, Note_on_c, 1, 47, 89
3, 74130, Note_on_c, 1, 35, 93
3, 74156, Note_on_c, 1, 47, 0
3, 74157, Note_on_c, 1, 35, 0
3, 74160, Note_on_c, 1, 38, 98
3, 74160, Note_on_c, 1, 50, 98
3, 74190, Note_on_c, 1, 48, 85
3, 74190, Note_on_c, 1, 36, 85
3, 74194, Note_on_c, 1, 50, 0
3, 74194, Note_on_c, 1, 38, 0
3, 74220, Note_on_c, 1, 35, 89
3, 74220, Note_on_c, 1, 47, 72
3, 74225, Note_on_c, 1, 36, 0
3, 74226, Note_on_c, 1, 48, 0
3, 74250, Note_on_c, 1, 33, 56
3, 74250, Note_on_c, 1, 45, 80
3, 74251, Control_c, 1, 64, 127
3, 74253, Note_on_c, 1, 47, 0
3, 74256, Control_c, 1, 64, 0
3, 74257, Note_on_c, 1, 35, 0
3, 74274, Note_on_c, 1, 45, 0
3, 74278, Note_on_c, 1, 33, 0
3, 74280, Note_on_c, 1, 50, 107
3, 74280, Note_on_c, 1, 38, 93
3, 74300, Control_c, 1, 64, 127
3, 74316, Note_on_c, 1, 50, 0
3, 74323, Note_on_c, 1, 38, 0
3, 74364, Control_c, 1, 64, 0
3, 74400, Note_on_c, 1, 60, 102
3, 74400, Note_on_c, 1, 57, 107
3, 74400, Note_on_c, 1, 50, 102
3, 74400, Note_on_c, 1, 38, 102
3, 74434, Control_c, 1, 64, 127
3, 74463, Note_on_c, 1, 38, 0
3, 74468, Note_on_c, 1, 50, 0
3, 74472, Note_on_c, 1, 57, 0
3, 74474, Note_on_c, 1, 60, 0
3, 74494, Control_c, 1, 64, 0
3, 74520, Note_on_c, 1, 55, 98
3, 74520, Note_on_c, 1, 50, 93
3, 74520, Note_on_c, 1, 59, 98
3, 74520, Note_on_c, 1, 43, 85
3, 74520, Note_on_c, 1, 55, 98
3, 74520, Note_on_c, 1, 50, 93
3, 74520, Note_on_c, 1, 59, 93
3, 74520, Note_on_c, 1, 43, 85
3, 74533, Control_c, 1, 64, 127
3, 74570, Note_on_c, 1, 59, 0
3, 74570, Note_on_c, 1, 55, 0
3, 74579, Note_on_c, 1, 50, 0
3, 74582, Note_on_c, 1, 43, 0
3, 74629, Control_c, 1, 64, 0
3, 74634, Note_on_c, 1, 50, 0
3, 74635, Note_on_c, 1, 55, 0
3, 74636, Note_on_c, 1, 43, 0
3, 74637, Note_on_c, 1, 59, 0
3, 74640, Note_on_c, 1, 43, 107
3, 74640, Note_on_c, 1, 31, 98
3, 74654, Control_c, 1, 64, 127
3, 74699, Note_on_c, 1, 43, 0
3, 74702, Note_on_c, 1, 31, 0
3, 74767, Control_c, 1, 64, 0
3, 77374, Note_on_c, 1, 62, 72
3, 77389, Note_on_c, 1, 62, 0
3, 77389, Note_on_c, 1, 60, 76
3, 77403, Note_on_c, 1, 60, 0
3, 77404, Note_on_c, 1, 59, 89
3, 77405, Note_on_c, 1, 47, 60
3, 77405, Note_on_c, 1, 43, 60
3, 77406, Note_on_c, 1, 50, 57
3, 77457, Note_on_c, 1, 47, 0
3, 77459, Note_on_c, 1, 59, 0
3, 77461, Note_on_c, 1, 43, 0
3, 77461, Note_on_c, 1, 50, 0
3, 77523, Note_on_c, 1, 57, 89
3, 77523, Note_on_c, 1, 38, 64
3, 77523, Note_on_c, 1, 42, 60
3, 77523, Note_on_c, 1, 48, 57
3, 77533, Control_c, 1, 64, 127
3, 77576, Note_on_c, 1, 57, 0
3, 77579, Note_on_c, 1, 42, 0
3, 77580, Control_c, 1, 64, 0
3, 77582, Note_on_c, 1, 38, 0
3, 77582, Note_on_c, 1, 48, 0
3, 77643, Note_on_c, 1, 55, 89
3, 77643, Note_on_c, 1, 43, 62
3, 77644, Note_on_c, 1, 47, 64
3, 77652, Control_c, 1, 64, 127
3, 77704, Note_on_c, 1, 47, 0
3, 77705, Control_c, 1, 64, 0
3, 77706, Note_on_c, 1, 43, 0
3, 77707, Note_on_c, 1, 55, 0
3, 77849, Note_on_c, 1, 59, 85
3, 77861, Note_on_c, 1, 57, 76
3, 77864, Note_on_c, 1, 59, 0
3, 77873, Note_on_c, 1, 57, 0
3, 77873, Note_on_c, 1, 55, 76
3, 77885, Note_on_c, 1, 55, 0
3, 77885, Note_on_c, 1, 54, 89
3, 77886, Note_on_c, 1, 45, 64
3, 77886, Note_on_c, 1, 50, 76
3, 77900, Control_c, 1, 64, 127
3, 77935, Note_on_c, 1, 54, 0
3, 77936, Note_on_c, 1, 50, 0
3, 77936, Note_on_c, 1, 45, 0
3, 77939, Control_c, 1, 64, 0
3, 77964, Note_on_c, 1, 57, 80
3, 77975, Note_on_c, 1, 55, 72
3, 77979, Note_on_c, 1, 57, 0
3, 77988, Note_on_c, 1, 55, 0
3, 77989, Note_on_c, 1, 54, 72
3, 78001, Note_on_c, 1, 54, 0
3, 78002, Note_on_c, 1, 52, 89
3, 78003, Note_on_c, 1, 45, 64
3, 78003, Note_on_c, 1, 49, 76
3, 78012, Control_c, 1, 64, 127
3, 78055, Control_c, 1, 64, 0
3, 78062, Note_on_c, 1, 49, 0
3, 78063, Note_on_c, 1, 45, 0
3, 78065, Note_on_c, 1, 52, 0
3, 78084, Note_on_c, 1, 55, 76
3, 78095, Note_on_c, 1, 54, 52
3, 78099, Note_on_c, 1, 55, 0
3, 78109, Note_on_c, 1, 52, 80
3, 78110, Note_on_c, 1, 54, 0
3, 78120, Note_on_c, 1, 52, 0
3, 78120, Note_on_c, 1, 42, 57
3, 78121, Note_on_c, 1, 38, 76
3, 78121, Note_on_c, 1, 50, 93
3, 78121, Note_on_c, 1, 45, 62
3, 78138, Control_c, 1, 64, 127
3, 78177, Control_c, 1, 64, 0
3, 78184, Note_on_c, 1, 45, 0
3, 78184, Note_on_c, 1, 42, 0
3, 78184, Note_on_c, 1, 38, 0
3, 78185, Note_on_c, 1, 50, 0
3, 78333, Note_on_c, 1, 50, 89
3, 78360, Note_on_c, 1, 50, 0
3, 78360, Note_on_c, 1, 52, 89
3, 78361, Note_on_c, 1, 36, 60
3, 78363, Note_on_c, 1, 48, 57
3, 78363, Note_on_c, 1, 43, 72
3, 78420, Note_on_c, 1, 54, 62
3, 78426, Note_on_c, 1, 54, 0
3, 78427, Note_on_c, 1, 52, 76
3, 78433, Note_on_c, 1, 52, 0
3, 78434, Note_on_c, 1, 51, 72
3, 78440, Note_on_c, 1, 51, 0
3, 78441, Note_on_c, 1, 52, 80
3, 78447, Note_on_c, 1, 52, 0
3, 78450, Note_on_c, 1, 52, 0
3, 78450, Note_on_c, 1, 54, 76
3, 78458, Note_on_c, 1, 54, 0
3, 78480, Note_on_c, 1, 55, 76
3, 78491, Note_on_c, 1, 55, 0
3, 78510, Note_on_c, 1, 57, 80
3, 78519, Note_on_c, 1, 57, 0
3, 78547, Note_on_c, 1, 59, 68
3, 78554, Note_on_c, 1, 59, 0
3, 78570, Note_on_c, 1, 60, 76
3, 78579, Note_on_c, 1, 60, 0
3, 78592, Note_on_c, 1, 36, 0
3, 78592, Note_on_c, 1, 48, 0
3, 78600, Note_on_c, 1, 47, 56
3, 78600, Note_on_c, 1, 35, 57
3, 78600, Note_on_c, 1, 62, 89
3, 78672, Note_on_c, 1, 62, 0
3, 78677, Note_on_c, 1, 35, 0
3, 78678, Note_on_c, 1, 47, 0
3, 78685, Note_on_c, 1, 43, 0
3, 78815, Note_on_c, 1, 60, 85
3, 78815, Note_on_c, 1, 48, 85
3, 78816, Note_on_c, 1, 57, 76
3, 78828, Note_on_c, 1, 60, 0
3, 78831, Note_on_c, 1, 57, 0
3, 78832, Note_on_c, 1, 48, 0
3, 78840, Note_on_c, 1, 59, 89
3, 78840, Note_on_c, 1, 50, 76
3, 78840, Note_on_c, 1, 55, 76
3, 78906, Control_c, 1, 64, 127
3, 78918, Note_on_c, 1, 50, 0
3, 78919, Note_on_c, 1, 55, 0
3, 78922, Note_on_c, 1, 59, 0
3, 78951, Control_c, 1, 64, 0
3, 78960, Note_on_c, 1, 48, 60
3, 78960, Note_on_c, 1, 38, 72
3, 78960, Note_on_c, 1, 42, 60
3, 78960, Note_on_c, 1, 59, 64
3, 78966, Note_on_c, 1, 59, 0
3, 78967, Note_on_c, 1, 57, 76
3, 78973, Note_on_c, 1, 57, 0
3, 78974, Note_on_c, 1, 59, 64
3, 78980, Note_on_c, 1, 59, 0
3, 78981, Note_on_c, 1, 57, 76
3, 78987, Note_on_c, 1, 57, 0
3, 78990, Note_on_c, 1, 55, 72
3, 79022, Note_on_c, 1, 55, 0
3, 79022, Note_on_c, 1, 57, 93
3, 79044, Control_c, 1, 64, 127
3, 79050, Note_on_c, 1, 57, 0
3, 79051, Note_on_c, 1, 59, 89
3, 79064, Note_on_c, 1, 48, 0
3, 79067, Note_on_c, 1, 42, 0
3, 79069, Note_on_c, 1, 38, 0
3, 79079, Control_c, 1, 64, 0
3, 79080, Note_on_c, 1, 59, 0
3, 79082, Note_on_c, 1, 55, 80
3, 79083, Note_on_c, 1, 47, 72
3, 79083, Note_on_c, 1, 43, 62
3, 79143, Control_c, 1, 64, 127
3, 79147, Control_c, 1, 64, 0
3, 79148, Note_on_c, 1, 55, 0
3, 79149, Note_on_c, 1, 43, 0
3, 79149, Note_on_c, 1, 47, 0
3, 81055, Note_on_c, 1, 38, 76
3, 81071, Control_c, 1, 64, 127
3, 81115, Control_c, 1, 64, 0
3, 81116, Note_on_c, 1, 38, 0
3, 81116, Note_on_c, 1, 43, 64
3, 81116, Note_on_c, 1, 47, 68
3, 81133, Control_c, 1, 64, 127
3, 81176, Note_on_c, 1, 43, 0
3, 81176, Note_on_c, 1, 38, 89
3, 81205, Note_on_c, 1, 47, 0
3, 81206, Note_on_c, 1, 55, 80
3, 81213, Note_on_c, 1, 38, 0
3, 81214, Note_on_c, 1, 55, 0
3, 81234, Control_c, 1, 64, 0
3, 81236, Note_on_c, 1, 54, 89
3, 81236, Note_on_c, 1, 48, 64
3, 81237, Note_on_c, 1, 45, 72
3, 81252, Control_c, 1, 64, 127
3, 81298, Note_on_c, 1, 38, 56
3, 81299, Note_on_c, 1, 45, 0
3, 81300, Note_on_c, 1, 54, 0
3, 81300, Note_on_c, 1, 57, 76
3, 81304, Control_c, 1, 64, 0
3, 81321, Control_c, 1, 64, 127
3, 81364, Note_on_c, 1, 45, 64
3, 81365, Note_on_c, 1, 38, 0
3, 81367, Control_c, 1, 64, 0
3, 81381, Control_c, 1, 64, 127
3, 81423, Note_on_c, 1, 57, 0
3, 81423, Note_on_c, 1, 38, 46
3, 81424, Note_on_c, 1, 54, 76
3, 81429, Note_on_c, 1, 45, 0
3, 81445, Note_on_c, 1, 54, 0
3, 81447, Note_on_c, 1, 38, 0
3, 81447, Note_on_c, 1, 48, 0
3, 81482, Note_on_c, 1, 55, 89
3, 81483, Note_on_c, 1, 47, 80
3, 81483, Note_on_c, 1, 43, 72
3, 81491, Control_c, 1, 64, 0
3, 81510, Control_c, 1, 64, 127
3, 81543, Note_on_c, 1, 59, 68
3, 81544, Note_on_c, 1, 55, 0
3, 81544, Note_on_c, 1, 38, 60
3, 81547, Note_on_c, 1, 43, 0
3, 81550, Control_c, 1, 64, 0
3, 81568, Control_c, 1, 64, 127
3, 81603, Note_on_c, 1, 43, 62
3, 81604, Note_on_c, 1, 38, 0
3, 81608, Control_c, 1, 64, 0
3, 81621, Control_c, 1, 64, 127
3, 81664, Note_on_c, 1, 38, 76
3, 81664, Note_on_c, 1, 55, 89
3, 81666, Note_on_c, 1, 59, 0
3, 81667, Control_c, 1, 64, 0
3, 81668, Note_on_c, 1, 43, 0
3, 81679, Control_c, 1, 64, 127
3, 81689, Note_on_c, 1, 55, 0
3, 81694, Note_on_c, 1, 47, 0
3, 81696, Note_on_c, 1, 38, 0
3, 81722, Note_on_c, 1, 57, 89
3, 81722, Note_on_c, 1, 48, 57
3, 81723, Note_on_c, 1, 45, 76
3, 81727, Control_c, 1, 64, 0
3, 81731, Note_on_c, 1, 57, 0
3, 81779, Note_on_c, 1, 38, 68
3, 81781, Note_on_c, 1, 62, 89
3, 81783, Note_on_c, 1, 45, 0
3, 81790, Note_on_c, 1, 62, 0
3, 81836, Note_on_c, 1, 38, 0
3, 81842, Note_on_c, 1, 42, 60
3, 81842, Note_on_c, 1, 61, 80
3, 81853, Note_on_c, 1, 61, 0
3, 81900, Note_on_c, 1, 38, 80
3, 81901, Note_on_c, 1, 60, 76
3, 81903, Note_on_c, 1, 42, 0
3, 81910, Note_on_c, 1, 60, 0
3, 81910, Control_c, 1, 64, 127
3, 81930, Note_on_c, 1, 38, 0
3, 81939, Note_on_c, 1, 48, 0
3, 81962, Note_on_c, 1, 59, 76
3, 81963, Note_on_c, 1, 43, 60
3, 81963, Note_on_c, 1, 47, 76
3, 81966, Control_c, 1, 64, 0
3, 81996, Control_c, 1, 64, 127
3, 82022, Note_on_c, 1, 38, 60
3, 82027, Note_on_c, 1, 43, 0
3, 82044, Control_c, 1, 64, 0
3, 82048, Control_c, 1, 64, 127
3, 82076, Control_c, 1, 64, 0
3, 82080, Note_on_c, 1, 43, 51
3, 82081, Note_on_c, 1, 38, 0
3, 82090, Control_c, 1, 64, 127
3, 82119, Note_on_c, 1, 59, 0
3, 82140, Note_on_c, 1, 38, 64
3, 82144, Note_on_c, 1, 43, 0
3, 82146, Control_c, 1, 64, 0
3, 82169, Note_on_c, 1, 55, 80
3, 82177, Note_on_c, 1, 38, 0
3, 82178, Note_on_c, 1, 55, 0
3, 82180, Note_on_c, 1, 47, 0
3, 82201, Note_on_c, 1, 54, 80
3, 82202, Note_on_c, 1, 48, 62
3, 82202, Note_on_c, 1, 45, 64
3, 82210, Control_c, 1, 64, 127
3, 82258, Note_on_c, 1, 38, 50
3, 82259, Note_on_c, 1, 57, 72
3, 82260, Note_on_c, 1, 54, 0
3, 82262, Note_on_c, 1, 45, 0
3, 82265, Control_c, 1, 64, 0
3, 82286, Control_c, 1, 64, 127
3, 82321, Note_on_c, 1, 45, 57
3, 82324, Note_on_c, 1, 38, 0
3, 82328, Control_c, 1, 64, 0
3, 82343, Control_c, 1, 64, 127
3, 82385, Note_on_c, 1, 57, 0
3, 82385, Note_on_c, 1, 38, 62
3, 82385, Note_on_c, 1, 54, 76
3, 82387, Control_c, 1, 64, 0
3, 82398, Note_on_c, 1, 45, 0
3, 82399, Control_c, 1, 64, 127
3, 82408, Note_on_c, 1, 54, 0
3, 82410, Note_on_c, 1, 38, 0
3, 82410, Note_on_c, 1, 48, 0
3, 82444, Note_on_c, 1, 55, 93
3, 82444, Note_on_c, 1, 43, 64
3, 82444, Note_on_c, 1, 47, 72
3, 82450, Control_c, 1, 64, 0
3, 82468, Control_c, 1, 64, 127
3, 82501, Note_on_c, 1, 38, 57
3, 82502, Note_on_c, 1, 55, 0
3, 82502, Note_on_c, 1, 59, 68
3, 82504, Note_on_c, 1, 43, 0
3, 82506, Control_c, 1, 64, 0
3, 82525, Control_c, 1, 64, 127
3, 82561, Note_on_c, 1, 43, 55
3, 82562, Control_c, 1, 64, 0
3, 82563, Note_on_c, 1, 38, 0
3, 82575, Control_c, 1, 64, 127
3, 82623, Note_on_c, 1, 38, 72
3, 82624, Note_on_c, 1, 55, 76
3, 82625, Note_on_c, 1, 59, 0
3, 82626, Control_c, 1, 64, 0
3, 82629, Note_on_c, 1, 43, 0
3, 82640, Control_c, 1, 64, 127
3, 82656, Note_on_c, 1, 55, 0
3, 82660, Note_on_c, 1, 47, 0
3, 82661, Note_on_c, 1, 38, 0
3, 82685, Note_on_c, 1, 57, 89
3, 82686, Note_on_c, 1, 48, 89
3, 82686, Note_on_c, 1, 42, 55
3, 82687, Note_on_c, 1, 38, 76
3, 82692, Control_c, 1, 64, 0
3, 82696, Note_on_c, 1, 57, 0
3, 82716, Note_on_c, 1, 62, 85
3, 82725, Note_on_c, 1, 62, 0
3, 82745, Note_on_c, 1, 61, 72
3, 82755, Note_on_c, 1, 61, 0
3, 82774, Note_on_c, 1, 60, 72
3, 82783, Note_on_c, 1, 60, 0
3, 82802, Note_on_c, 1, 59, 72
3, 82811, Note_on_c, 1, 59, 0
3, 82832, Note_on_c, 1, 62, 76
3, 82841, Note_on_c, 1, 62, 0
3, 82862, Note_on_c, 1, 60, 68
3, 82870, Note_on_c, 1, 60, 0
3, 82891, Note_on_c, 1, 57, 72
3, 82899, Note_on_c, 1, 57, 0
3, 82908, Note_on_c, 1, 48, 0
3, 82913, Note_on_c, 1, 42, 0
3, 82918, Note_on_c, 1, 38, 0
3, 82924, Note_on_c, 1, 55, 68
3, 82924, Note_on_c, 1, 47, 64
3, 82925, Note_on_c, 1, 43, 64
3, 82937, Control_c, 1, 64, 127
3, 82995, Note_on_c, 1, 55, 0
3, 83001, Control_c, 1, 64, 0
3, 83006, Note_on_c, 1, 43, 0
3, 83007, Note_on_c, 1, 47, 0
3, 83553, Note_on_c, 1, 59, 76
3, 83565, Note_on_c, 1, 59, 0
3, 83580, Note_on_c, 1, 57, 76
3, 83589, Note_on_c, 1, 57, 0
3, 83609, Note_on_c, 1, 55, 72
3, 83616, Note_on_c, 1, 55, 0
3, 83639, Note_on_c, 1, 54, 80
3, 83640, Note_on_c, 1, 50, 76
3, 83640, Note_on_c, 1, 45, 68
3, 83652, Note_on_c, 1, 54, 0
3, 83672, Note_on_c, 1, 57, 76
3, 83678, Note_on_c, 1, 57, 0
3, 83702, Note_on_c, 1, 62, 62
3, 83703, Note_on_c, 1, 50, 0
3, 83706, Note_on_c, 1, 45, 0
3, 83752, Note_on_c, 1, 62, 0
3, 83759, Note_on_c, 1, 45, 60
3, 83760, Note_on_c, 1, 49, 60
3, 83761, Note_on_c, 1, 52, 80
3, 83774, Note_on_c, 1, 52, 0
3, 83790, Note_on_c, 1, 57, 76
3, 83796, Note_on_c, 1, 57, 0
3, 83806, Note_on_c, 1, 49, 0
3, 83807, Note_on_c, 1, 45, 0
3, 83820, Note_on_c, 1, 61, 72
3, 83878, Note_on_c, 1, 61, 0
3, 83879, Note_on_c, 1, 42, 55
3, 83879, Note_on_c, 1, 50, 76
3, 83879, Note_on_c, 1, 38, 68
3, 83880, Note_on_c, 1, 45, 55
3, 83943, Note_on_c, 1, 45, 0
3, 83943, Note_on_c, 1, 38, 0
3, 83943, Note_on_c, 1, 42, 0
3, 83944, Note_on_c, 1, 50, 0
3, 84571, Note_on_c, 1, 60, 85
3, 84571, Note_on_c, 1, 48, 89
3, 84572, Note_on_c, 1, 57, 76
3, 84580, Note_on_c, 1, 60, 0
3, 84581, Note_on_c, 1, 57, 0
3, 84582, Note_on_c, 1, 48, 0
3, 84601, Note_on_c, 1, 59, 80
3, 84602, Note_on_c, 1, 50, 76
3, 84602, Note_on_c, 1, 55, 76
3, 84611, Note_on_c, 1, 59, 0
3, 84631, Note_on_c, 1, 60, 76
3, 84639, Note_on_c, 1, 60, 0
3, 84659, Note_on_c, 1, 61, 85
3, 84667, Note_on_c, 1, 61, 0
3, 84674, Note_on_c, 1, 55, 0
3, 84674, Note_on_c, 1, 50, 0
3, 84689, Note_on_c, 1, 62, 72
3, 84697, Note_on_c, 1, 62, 0
3, 84717, Note_on_c, 1, 48, 53
3, 84718, Note_on_c, 1, 38, 72
3, 84718, Note_on_c, 1, 42, 64
3, 84718, Note_on_c, 1, 57, 89
3, 84745, Note_on_c, 1, 57, 0
3, 84748, Note_on_c, 1, 60, 72
3, 84758, Note_on_c, 1, 60, 0
3, 84761, Note_on_c, 1, 59, 80
3, 84771, Note_on_c, 1, 59, 0
3, 84777, Note_on_c, 1, 62, 80
3, 84789, Note_on_c, 1, 62, 0
3, 84792, Note_on_c, 1, 60, 56
3, 84803, Note_on_c, 1, 60, 0
3, 84808, Note_on_c, 1, 64, 72
3, 84822, Note_on_c, 1, 62, 72
3, 84825, Note_on_c, 1, 48, 0
3, 84826, Note_on_c, 1, 64, 0
3, 84830, Note_on_c, 1, 42, 0
3, 84831, Note_on_c, 1, 62, 0
3, 84834, Note_on_c, 1, 38, 0
3, 84837, Note_on_c, 1, 55, 72
3, 84839, Note_on_c, 1, 43, 59
3, 84839, Note_on_c, 1, 47, 49
3, 84902, Note_on_c, 1, 47, 0
3, 84902, Note_on_c, 1, 55, 0
3, 84903, Note_on_c, 1, 43, 0
3, 85019, Note_on_c, 1, 62, 89
3, 85084, Note_on_c, 1, 62, 0
3, 85084, Note_on_c, 1, 59, 80
3, 85084, Note_on_c, 1, 47, 62
3, 85084, Note_on_c, 1, 43, 57
3, 85084, Note_on_c, 1, 50, 60
3, 85127, Note_on_c, 1, 43, 0
3, 85127, Note_on_c, 1, 47, 0
3, 85129, Note_on_c, 1, 50, 0
3, 85132, Note_on_c, 1, 59, 0
3, 85140, Note_on_c, 1, 62, 76
3, 85201, Note_on_c, 1, 62, 0
3, 85201, Note_on_c, 1, 42, 55
3, 85201, Note_on_c, 1, 38, 72
3, 85202, Note_on_c, 1, 48, 60
3, 85202, Note_on_c, 1, 57, 89
3, 85232, Note_on_c, 1, 57, 0
3, 85248, Note_on_c, 1, 38, 0
3, 85249, Note_on_c, 1, 42, 0
3, 85250, Note_on_c, 1, 48, 0
3, 85261, Note_on_c, 1, 62, 85
3, 85318, Note_on_c, 1, 62, 0
3, 85319, Note_on_c, 1, 55, 68
3, 85320, Note_on_c, 1, 47, 53
3, 85320, Note_on_c, 1, 43, 64
3, 85361, Note_on_c, 1, 47, 0
3, 85361, Note_on_c, 1, 55, 0
3, 85362, Note_on_c, 1, 43, 0
3, 86009, Note_on_c, 1, 50, 76
3, 86037, Note_on_c, 1, 50, 0
3, 86038, Note_on_c, 1, 36, 62
3, 86039, Note_on_c, 1, 52, 93
3, 86040, Note_on_c, 1, 48, 50
3, 86040, Note_on_c, 1, 43, 62
3, 86100, Control_c, 1, 64, 127
3, 86100, Control_c, 1, 64, 0
3, 86100, Control_c, 1, 64, 127
3, 86100, Note_on_c, 1, 54, 64
3, 86106, Note_on_c, 1, 54, 0
3, 86107, Note_on_c, 1, 52, 68
3, 86113, Note_on_c, 1, 52, 0
3, 86114, Control_c, 1, 64, 0
3, 86114, Note_on_c, 1, 51, 62
3, 86114, Control_c, 1, 64, 127
3, 86120, Note_on_c, 1, 51, 0
3, 86121, Note_on_c, 1, 52, 76
3, 86127, Note_on_c, 1, 52, 0
3, 86128, Control_c, 1, 64, 0
3, 86130, Note_on_c, 1, 55, 80
3, 86132, Note_on_c, 1, 52, 0
3, 86144, Note_on_c, 1, 54, 62
3, 86148, Note_on_c, 1, 55, 0
3, 86159, Note_on_c, 1, 54, 0
3, 86159, Note_on_c, 1, 57, 80
3, 86175, Note_on_c, 1, 57, 0
3, 86175, Note_on_c, 1, 55, 76
3, 86188, Note_on_c, 1, 55, 0
3, 86189, Note_on_c, 1, 59, 76
3, 86202, Note_on_c, 1, 57, 72
3, 86204, Note_on_c, 1, 59, 0
3, 86217, Note_on_c, 1, 57, 0
3, 86218, Note_on_c, 1, 60, 76
3, 86232, Note_on_c, 1, 59, 72
3, 86236, Note_on_c, 1, 60, 0
3, 86246, Note_on_c, 1, 59, 0
3, 86248, Note_on_c, 1, 62, 76
3, 86261, Note_on_c, 1, 62, 0
3, 86261, Note_on_c, 1, 60, 68
3, 86274, Note_on_c, 1, 60, 0
3, 86277, Note_on_c, 1, 64, 76
3, 86292, Note_on_c, 1, 64, 0
3, 86292, Note_on_c, 1, 62, 89
3, 86316, Note_on_c, 1, 62, 0
3, 86323, Note_on_c, 1, 43, 0
3, 86324, Note_on_c, 1, 48, 0
3, 86324, Note_on_c, 1, 36, 0
3, 86753, Note_on_c, 1, 31, 53
3, 86754, Note_on_c, 1, 59, 64
3, 86754, Note_on_c, 1, 43, 42
3, 86754, Note_on_c, 1, 55, 68
3, 86785, Note_on_c, 1, 55, 0
3, 86786, Note_on_c, 1, 50, 68
3, 86788, Note_on_c, 1, 43, 0
3, 86813, Note_on_c, 1, 50, 0
3, 86818, Note_on_c, 1, 55, 72
3, 86820, Note_on_c, 1, 43, 56
3, 86838, Control_c, 1, 64, 127
3, 86847, Note_on_c, 1, 43, 0
3, 86847, Note_on_c, 1, 55, 0
3, 86848, Note_on_c, 1, 50, 59
3, 86876, Note_on_c, 1, 50, 0
3, 86877, Control_c, 1, 64, 0
3, 86880, Note_on_c, 1, 55, 64
3, 86881, Note_on_c, 1, 43, 56
3, 86906, Note_on_c, 1, 50, 62
3, 86907, Note_on_c, 1, 55, 0
3, 86908, Note_on_c, 1, 43, 0
3, 86934, Note_on_c, 1, 50, 0
3, 86937, Note_on_c, 1, 55, 72
3, 86938, Note_on_c, 1, 43, 56
3, 86961, Note_on_c, 1, 43, 0
3, 86966, Note_on_c, 1, 55, 0
3, 86967, Note_on_c, 1, 31, 0
3, 86967, Note_on_c, 1, 50, 62
3, 86968, Control_c, 1, 64, 127
3, 86969, Note_on_c, 1, 59, 0
3, 86978, Note_on_c, 1, 50, 0
3, 86991, Control_c, 1, 64, 0
3, 86996, Note_on_c, 1, 31, 60
3, 86997, Note_on_c, 1, 54, 72
3, 86997, Note_on_c, 1, 60, 72
3, 86997, Note_on_c, 1, 43, 53
3, 87028, Note_on_c, 1, 50, 62
3, 87029, Note_on_c, 1, 54, 0
3, 87032, Note_on_c, 1, 43, 0
3, 87045, Control_c, 1, 64, 127
3, 87052, Note_on_c, 1, 50, 0
3, 87058, Note_on_c, 1, 54, 60
3, 87059, Note_on_c, 1, 43, 53
3, 87089, Note_on_c, 1, 43, 0
3, 87089, Note_on_c, 1, 50, 57
3, 87090, Note_on_c, 1, 54, 0
3, 87115, Note_on_c, 1, 50, 0
3, 87119, Note_on_c, 1, 54, 56
3, 87120, Note_on_c, 1, 43, 51
3, 87147, Note_on_c, 1, 54, 0
3, 87147, Note_on_c, 1, 50, 62
3, 87150, Note_on_c, 1, 43, 0
3, 87172, Note_on_c, 1, 50, 0
3, 87178, Note_on_c, 1, 54, 64
3, 87180, Note_on_c, 1, 43, 57
3, 87204, Note_on_c, 1, 43, 0
3, 87207, Note_on_c, 1, 54, 0
3, 87208, Note_on_c, 1, 50, 62
3, 87210, Note_on_c, 1, 31, 0
3, 87211, Note_on_c, 1, 60, 0
3, 87220, Note_on_c, 1, 50, 0
3, 87234, Control_c, 1, 64, 0
3, 87238, Note_on_c, 1, 31, 60
3, 87239, Note_on_c, 1, 55, 68
3, 87239, Note_on_c, 1, 43, 56
3, 87240, Note_on_c, 1, 59, 62
3, 87268, Note_on_c, 1, 50, 64
3, 87269, Note_on_c, 1, 55, 0
3, 87271, Note_on_c, 1, 43, 0
3, 87295, Note_on_c, 1, 50, 0
3, 87298, Note_on_c, 1, 55, 76
3, 87300, Note_on_c, 1, 43, 55
3, 87327, Note_on_c, 1, 43, 0
3, 87328, Note_on_c, 1, 55, 0
3, 87328, Note_on_c, 1, 50, 62
3, 87356, Note_on_c, 1, 50, 0
3, 87357, Control_c, 1, 64, 127
3, 87358, Note_on_c, 1, 55, 68
3, 87360, Note_on_c, 1, 43, 51
3, 87369, Control_c, 1, 64, 0
3, 87386, Note_on_c, 1, 55, 0
3, 87387, Note_on_c, 1, 43, 0
3, 87387, Note_on_c, 1, 50, 60
3, 87414, Note_on_c, 1, 50, 0
3, 87416, Note_on_c, 1, 55, 62
3, 87418, Note_on_c, 1, 43, 62
3, 87430, Control_c, 1, 64, 127
3, 87446, Note_on_c, 1, 43, 0
3, 87446, Note_on_c, 1, 55, 0
3, 87447, Note_on_c, 1, 50, 62
3, 87452, Note_on_c, 1, 31, 0
3, 87455, Note_on_c, 1, 59, 0
3, 87460, Note_on_c, 1, 50, 0
3, 87473, Control_c, 1, 64, 0
3, 87477, Note_on_c, 1, 31, 56
3, 87478, Note_on_c, 1, 54, 62
3, 87479, Note_on_c, 1, 60, 62
3, 87479, Note_on_c, 1, 43, 52
3, 87508, Note_on_c, 1, 50, 60
3, 87509, Note_on_c, 1, 54, 0
3, 87513, Note_on_c, 1, 43, 0
3, 87535, Note_on_c, 1, 50, 0
3, 87537, Note_on_c, 1, 54, 64
3, 87538, Note_on_c, 1, 43, 53
3, 87568, Note_on_c, 1, 50, 62
3, 87569, Note_on_c, 1, 43, 0
3, 87569, Note_on_c, 1, 54, 0
3, 87569, Control_c, 1, 64, 127
3, 87597, Note_on_c, 1, 50, 0
3, 87598, Note_on_c, 1, 54, 68
3, 87601, Note_on_c, 1, 43, 52
3, 87628, Note_on_c, 1, 43, 0
3, 87629, Note_on_c, 1, 54, 0
3, 87629, Note_on_c, 1, 50, 60
3, 87654, Note_on_c, 1, 50, 0
3, 87657, Note_on_c, 1, 54, 68
3, 87660, Note_on_c, 1, 43, 56
3, 87686, Note_on_c, 1, 54, 0
3, 87687, Note_on_c, 1, 43, 0
3, 87687, Note_on_c, 1, 50, 60
3, 87693, Note_on_c, 1, 31, 0
3, 87695, Note_on_c, 1, 60, 0
3, 87698, Note_on_c, 1, 50, 0
3, 87713, Control_c, 1, 64, 0
3, 87717, Note_on_c, 1, 31, 62
3, 87718, Note_on_c, 1, 43, 55
3, 87719, Note_on_c, 1, 55, 68
3, 87719, Note_on_c, 1, 59, 64
3, 87749, Note_on_c, 1, 50, 64
3, 87750, Note_on_c, 1, 55, 0
3, 87753, Note_on_c, 1, 43, 0
3, 87773, Note_on_c, 1, 50, 0
3, 87779, Note_on_c, 1, 55, 80
3, 87781, Note_on_c, 1, 43, 53
3, 87786, Control_c, 1, 64, 127
3, 87810, Note_on_c, 1, 43, 0
3, 87810, Note_on_c, 1, 55, 0
3, 87810, Note_on_c, 1, 50, 59
3, 87836, Note_on_c, 1, 50, 0
3, 87839, Note_on_c, 1, 55, 72
3, 87841, Note_on_c, 1, 43, 53
3, 87867, Note_on_c, 1, 43, 0
3, 87868, Note_on_c, 1, 55, 0
3, 87868, Note_on_c, 1, 50, 62
3, 87894, Note_on_c, 1, 50, 0
3, 87897, Note_on_c, 1, 55, 68
3, 87900, Note_on_c, 1, 43, 53
3, 87927, Note_on_c, 1, 50, 60
3, 87928, Note_on_c, 1, 55, 0
3, 87930, Note_on_c, 1, 43, 0
3, 87937, Note_on_c, 1, 31, 0
3, 87937, Note_on_c, 1, 59, 0
3, 87940, Note_on_c, 1, 50, 0
3, 87956, Control_c, 1, 64, 0
3, 87957, Note_on_c, 1, 31, 59
3, 87958, Note_on_c, 1, 54, 72
3, 87959, Note_on_c, 1, 43, 60
3, 87959, Note_on_c, 1, 60, 62
3, 87989, Control_c, 1, 64, 127
3, 87989, Note_on_c, 1, 50, 59
3, 87991, Note_on_c, 1, 54, 0
3, 87993, Note_on_c, 1, 43, 0
3, 88018, Note_on_c, 1, 50, 0
3, 88020, Note_on_c, 1, 54, 62
3, 88021, Note_on_c, 1, 43, 56
3, 88048, Note_on_c, 1, 43, 0
3, 88048, Note_on_c, 1, 54, 0
3, 88048, Note_on_c, 1, 50, 62
3, 88075, Note_on_c, 1, 50, 0
3, 88079, Note_on_c, 1, 54, 68
3, 88081, Note_on_c, 1, 43, 56
3, 88106, Note_on_c, 1, 43, 0
3, 88108, Note_on_c, 1, 54, 0
3, 88108, Note_on_c, 1, 50, 60
3, 88135, Note_on_c, 1, 50, 0
3, 88137, Note_on_c, 1, 54, 60
3, 88140, Note_on_c, 1, 43, 49
3, 88167, Note_on_c, 1, 43, 0
3, 88167, Note_on_c, 1, 54, 0
3, 88167, Note_on_c, 1, 50, 60
3, 88175, Note_on_c, 1, 31, 0
3, 88178, Note_on_c, 1, 60, 0
3, 88179, Note_on_c, 1, 50, 0
3, 88195, Control_c, 1, 64, 0
3, 88197, Note_on_c, 1, 31, 64
3, 88199, Note_on_c, 1, 43, 59
3, 88199, Note_on_c, 1, 55, 68
3, 88199, Note_on_c, 1, 59, 57
3, 88229, Note_on_c, 1, 55, 0
3, 88229, Note_on_c, 1, 50, 62
3, 88231, Note_on_c, 1, 43, 0
3, 88233, Control_c, 1, 64, 127
3, 88257, Note_on_c, 1, 50, 0
3, 88258, Note_on_c, 1, 55, 72
3, 88260, Note_on_c, 1, 43, 59
3, 88287, Note_on_c, 1, 43, 0
3, 88287, Note_on_c, 1, 50, 64
3, 88288, Note_on_c, 1, 55, 0
3, 88316, Note_on_c, 1, 50, 0
3, 88318, Note_on_c, 1, 55, 76
3, 88320, Note_on_c, 1, 43, 44
3, 88347, Note_on_c, 1, 55, 0
3, 88348, Note_on_c, 1, 43, 0
3, 88348, Note_on_c, 1, 50, 68
3, 88375, Note_on_c, 1, 50, 0
3, 88378, Note_on_c, 1, 55, 76
3, 88379, Note_on_c, 1, 43, 60
3, 88408, Note_on_c, 1, 43, 0
3, 88408, Note_on_c, 1, 50, 64
3, 88409, Note_on_c, 1, 55, 0
3, 88417, Note_on_c, 1, 31, 0
3, 88420, Note_on_c, 1, 59, 0
3, 88421, Note_on_c, 1, 50, 0
3, 88438, Control_c, 1, 64, 0
3, 88438, Note_on_c, 1, 31, 62
3, 88439, Note_on_c, 1, 54, 72
3, 88440, Note_on_c, 1, 43, 59
3, 88440, Note_on_c, 1, 60, 72
3, 88472, Note_on_c, 1, 54, 0
3, 88472, Note_on_c, 1, 50, 60
3, 88477, Note_on_c, 1, 43, 0
3, 88484, Control_c, 1, 64, 127
3, 88499, Note_on_c, 1, 50, 0
3, 88502, Note_on_c, 1, 54, 64
3, 88503, Note_on_c, 1, 43, 62
3, 88528, Note_on_c, 1, 54, 0
3, 88528, Note_on_c, 1, 50, 64
3, 88530, Note_on_c, 1, 43, 0
3, 88558, Note_on_c, 1, 50, 0
3, 88560, Note_on_c, 1, 54, 62
3, 88562, Note_on_c, 1, 43, 62
3, 88588, Note_on_c, 1, 43, 0
3, 88590, Note_on_c, 1, 54, 0
3, 88590, Note_on_c, 1, 50, 60
3, 88614, Note_on_c, 1, 50, 0
3, 88619, Note_on_c, 1, 54, 68
3, 88621, Note_on_c, 1, 43, 55
3, 88642, Note_on_c, 1, 43, 0
3, 88646, Note_on_c, 1, 54, 0
3, 88646, Note_on_c, 1, 50, 56
3, 88651, Note_on_c, 1, 31, 0
3, 88658, Note_on_c, 1, 50, 0
3, 88666, Note_on_c, 1, 60, 0
3, 88675, Control_c, 1, 64, 0
3, 88677, Note_on_c, 1, 31, 56
3, 88678, Note_on_c, 1, 55, 80
3, 88678, Note_on_c, 1, 43, 52
3, 88679, Note_on_c, 1, 59, 59
3, 88704, Control_c, 1, 64, 127
3, 88736, Note_on_c, 1, 55, 0
3, 88736, Control_c, 1, 64, 0
3, 88738, Note_on_c, 1, 59, 0
3, 88739, Note_on_c, 1, 43, 0
3, 88741, Note_on_c, 1, 31, 0
3, 88923, Note_on_c, 1, 67, 64
3, 88923, Note_on_c, 1, 71, 60
3, 88931, Control_c, 1, 64, 127
3, 88978, Note_on_c, 1, 71, 0
3, 88978, Note_on_c, 1, 67, 0
3, 88981, Control_c, 1, 64, 0
3, 89046, Note_on_c, 1, 66, 56
3, 89046, Note_on_c, 1, 69, 76
3, 89053, Control_c, 1, 64, 127
3, 89102, Note_on_c, 1, 66, 0
3, 89105, Note_on_c, 1, 69, 0
3, 89107, Control_c, 1, 64, 0
3, 89165, Note_on_c, 1, 71, 62
3, 89165, Note_on_c, 1, 67, 64
3, 89173, Control_c, 1, 64, 127
3, 89218, Note_on_c, 1, 67, 0
3, 89219, Note_on_c, 1, 71, 0
3, 89224, Control_c, 1, 64, 0
3, 89406, Note_on_c, 1, 57, 76
3, 89407, Note_on_c, 1, 54, 55
3, 89417, Control_c, 1, 64, 127
3, 89524, Note_on_c, 1, 54, 0
3, 89527, Note_on_c, 1, 58, 60
3, 89527, Note_on_c, 1, 55, 76
3, 89528, Note_on_c, 1, 57, 0
3, 89531, Control_c, 1, 64, 0
3, 89555, Control_c, 1, 64, 127
3, 89642, Note_on_c, 1, 58, 0
3, 89642, Control_c, 1, 64, 0
3, 89643, Note_on_c, 1, 55, 0
3, 89643, Note_on_c, 1, 54, 47
3, 89644, Note_on_c, 1, 57, 62
3, 89657, Control_c, 1, 64, 127
3, 89694, Note_on_c, 1, 57, 0
3, 89694, Note_on_c, 1, 54, 0
3, 89700, Control_c, 1, 64, 0
3, 89879, Control_c, 1, 64, 0
3, 90298, Note_on_c, 1, 65, 89
3, 90312, Control_c, 1, 64, 127
3, 90359, Note_on_c, 1, 64, 89
3, 90360, Note_on_c, 1, 65, 0
3, 90362, Control_c, 1, 64, 0
3, 90390, Control_c, 1, 64, 127
3, 90420, Note_on_c, 1, 64, 0
3, 90420, Note_on_c, 1, 57, 85
3, 90423, Control_c, 1, 64, 0
3, 90448, Control_c, 1, 64, 127
3, 90478, Note_on_c, 1, 57, 0
3, 90480, Note_on_c, 1, 62, 89
3, 90481, Control_c, 1, 64, 0
3, 90504, Control_c, 1, 64, 127
3, 90539, Note_on_c, 1, 62, 0
3, 90541, Note_on_c, 1, 56, 93
3, 90555, Note_on_c, 1, 56, 0
3, 90598, Control_c, 1, 64, 0
3, 90603, Note_on_c, 1, 57, 80
3, 90617, Control_c, 1, 64, 127
3, 90622, Note_on_c, 1, 61, 56
3, 90623, Note_on_c, 1, 57, 0
3, 90642, Note_on_c, 1, 64, 72
3, 90643, Note_on_c, 1, 61, 0
3, 90653, Control_c, 1, 64, 0
3, 90659, Note_on_c, 1, 64, 0
3, 90662, Note_on_c, 1, 69, 76
3, 90670, Control_c, 1, 64, 127
3, 90682, Note_on_c, 1, 68, 62
3, 90684, Note_on_c, 1, 69, 0
3, 90704, Note_on_c, 1, 69, 85
3, 90705, Note_on_c, 1, 68, 0
3, 90723, Note_on_c, 1, 69, 0
3, 90723, Note_on_c, 1, 57, 76
3, 90727, Control_c, 1, 64, 0
3, 90744, Note_on_c, 1, 67, 76
3, 90747, Control_c, 1, 64, 127
3, 90753, Note_on_c, 1, 57, 0
3, 90762, Note_on_c, 1, 67, 0
3, 90763, Note_on_c, 1, 69, 76
3, 90784, Note_on_c, 1, 57, 72
3, 90785, Note_on_c, 1, 69, 0
3, 90790, Control_c, 1, 64, 0
3, 90803, Note_on_c, 1, 67, 76
3, 90806, Control_c, 1, 64, 127
3, 90813, Note_on_c, 1, 57, 0
3, 90818, Note_on_c, 1, 67, 0
3, 90822, Note_on_c, 1, 69, 80
3, 90843, Note_on_c, 1, 69, 0
3, 90844, Note_on_c, 1, 57, 80
3, 90850, Control_c, 1, 64, 0
3, 90863, Note_on_c, 1, 66, 72
3, 90867, Control_c, 1, 64, 127
3, 90874, Note_on_c, 1, 57, 0
3, 90878, Note_on_c, 1, 66, 0
3, 90880, Note_on_c, 1, 69, 68
3, 90901, Note_on_c, 1, 69, 0
3, 90902, Note_on_c, 1, 57, 76
3, 90907, Control_c, 1, 64, 0
3, 90920, Control_c, 1, 64, 127
3, 90922, Note_on_c, 1, 66, 72
3, 90927, Note_on_c, 1, 57, 0
3, 90937, Note_on_c, 1, 66, 0
3, 90940, Note_on_c, 1, 69, 76
3, 90956, Note_on_c, 1, 69, 0
3, 90959, Note_on_c, 1, 57, 76
3, 90964, Control_c, 1, 64, 0
3, 90979, Note_on_c, 1, 64, 80
3, 90980, Control_c, 1, 64, 127
3, 90985, Note_on_c, 1, 57, 0
3, 90999, Note_on_c, 1, 64, 0
3, 90999, Note_on_c, 1, 69, 89
3, 91015, Note_on_c, 1, 69, 0
3, 91019, Note_on_c, 1, 57, 76
3, 91019, Control_c, 1, 64, 0
3, 91033, Control_c, 1, 64, 127
3, 91038, Note_on_c, 1, 62, 85
3, 91039, Note_on_c, 1, 57, 0
3, 91055, Note_on_c, 1, 69, 72
3, 91058, Note_on_c, 1, 62, 0
3, 91072, Note_on_c, 1, 69, 0
3, 91075, Control_c, 1, 64, 0
3, 91077, Note_on_c, 1, 57, 76
3, 91090, Control_c, 1, 64, 127
3, 91097, Note_on_c, 1, 61, 68
3, 91098, Note_on_c, 1, 57, 0
3, 91116, Note_on_c, 1, 64, 72
3, 91119, Note_on_c, 1, 61, 0
3, 91134, Note_on_c, 1, 64, 0
3, 91136, Note_on_c, 1, 69, 68
3, 91153, Note_on_c, 1, 69, 0
3, 91158, Note_on_c, 1, 68, 72
3, 91176, Note_on_c, 1, 69, 89
3, 91177, Note_on_c, 1, 68, 0
3, 91193, Note_on_c, 1, 69, 0
3, 91193, Control_c, 1, 64, 0
3, 91195, Note_on_c, 1, 57, 76
3, 91209, Control_c, 1, 64, 127
3, 91217, Note_on_c, 1, 67, 80
3, 91220, Note_on_c, 1, 57, 0
3, 91233, Note_on_c, 1, 67, 0
3, 91236, Note_on_c, 1, 69, 64
3, 91257, Note_on_c, 1, 69, 0
3, 91257, Note_on_c, 1, 57, 76
3, 91261, Control_c, 1, 64, 0
3, 91273, Control_c, 1, 64, 127
3, 91278, Note_on_c, 1, 67, 76
3, 91280, Note_on_c, 1, 57, 0
3, 91292, Note_on_c, 1, 67, 0
3, 91299, Note_on_c, 1, 69, 68
3, 91316, Note_on_c, 1, 69, 0
3, 91320, Control_c, 1, 64, 0
3, 91320, Note_on_c, 1, 57, 76
3, 91333, Control_c, 1, 64, 127
3, 91340, Note_on_c, 1, 66, 62
3, 91345, Note_on_c, 1, 57, 0
3, 91356, Note_on_c, 1, 66, 0
3, 91357, Note_on_c, 1, 69, 85
3, 91374, Note_on_c, 1, 69, 0
3, 91378, Control_c, 1, 64, 0
3, 91380, Note_on_c, 1, 57, 72
3, 91390, Control_c, 1, 64, 127
3, 91401, Note_on_c, 1, 66, 68
3, 91403, Note_on_c, 1, 57, 0
3, 91418, Note_on_c, 1, 66, 0
3, 91419, Note_on_c, 1, 69, 72
3, 91435, Note_on_c, 1, 69, 0
3, 91440, Control_c, 1, 64, 0
3, 91441, Note_on_c, 1, 57, 76
3, 91453, Control_c, 1, 64, 127
3, 91461, Note_on_c, 1, 64, 76
3, 91462, Note_on_c, 1, 57, 0
3, 91482, Note_on_c, 1, 64, 0
3, 91483, Note_on_c, 1, 69, 76
3, 91498, Note_on_c, 1, 69, 0
3, 91502, Note_on_c, 1, 57, 72
3, 91504, Control_c, 1, 64, 0
3, 91516, Control_c, 1, 64, 127
3, 91520, Note_on_c, 1, 57, 0
3, 91523, Note_on_c, 1, 62, 72
3, 91538, Note_on_c, 1, 69, 85
3, 91539, Note_on_c, 1, 62, 0
3, 91557, Note_on_c, 1, 69, 0
3, 91562, Control_c, 1, 64, 0
3, 91562, Note_on_c, 1, 61, 72
3, 91563, Note_on_c, 1, 57, 85
3, 91579, Control_c, 1, 64, 127
3, 91621, Note_on_c, 1, 61, 0
3, 91622, Note_on_c, 1, 57, 0
3, 91633, Control_c, 1, 64, 0
3, 91820, Note_on_c, 1, 64, 76
3, 91820, Control_c, 1, 64, 127
3, 91839, Note_on_c, 1, 64, 0
3, 91840, Note_on_c, 1, 61, 76
3, 91859, Note_on_c, 1, 61, 0
3, 91860, Note_on_c, 1, 57, 89
3, 91879, Note_on_c, 1, 57, 0
3, 91880, Note_on_c, 1, 52, 89
3, 91899, Note_on_c, 1, 52, 0
3, 91900, Note_on_c, 1, 49, 98
3, 91919, Note_on_c, 1, 49, 0
3, 91920, Control_c, 1, 64, 0
3, 91920, Note_on_c, 1, 45, 89
3, 91920, Control_c, 1, 64, 127
3, 91939, Note_on_c, 1, 45, 0
3, 91940, Note_on_c, 1, 52, 89
3, 91959, Note_on_c, 1, 52, 0
3, 91960, Note_on_c, 1, 49, 85
3, 91979, Note_on_c, 1, 49, 0
3, 91980, Note_on_c, 1, 45, 85
3, 91999, Note_on_c, 1, 45, 0
3, 92000, Note_on_c, 1, 40, 89
3, 92019, Note_on_c, 1, 40, 0
3, 92020, Note_on_c, 1, 37, 93
3, 92039, Note_on_c, 1, 37, 0
3, 92040, Control_c, 1, 64, 0
3, 92040, Note_on_c, 1, 33, 89
3, 92040, Control_c, 1, 64, 127
3, 92085, Note_on_c, 1, 33, 0
3, 92085, Control_c, 1, 64, 0
3, 92730, Note_on_c, 1, 57, 93
3, 92730, Note_on_c, 1, 45, 93
3, 92739, Note_on_c, 1, 45, 0
3, 92739, Note_on_c, 1, 57, 0
3, 92740, Note_on_c, 1, 47, 93
3, 92740, Note_on_c, 1, 59, 89
3, 92749, Note_on_c, 1, 59, 0
3, 92749, Note_on_c, 1, 47, 0
3, 92750, Note_on_c, 1, 49, 93
3, 92750, Note_on_c, 1, 61, 93
3, 92759, Note_on_c, 1, 61, 0
3, 92759, Note_on_c, 1, 49, 0
3, 92760, Note_on_c, 1, 62, 98
3, 92760, Note_on_c, 1, 38, 93
3, 92760, Note_on_c, 1, 50, 93
3, 92879, Note_on_c, 1, 50, 0
3, 92879, Note_on_c, 1, 38, 0
3, 92879, Note_on_c, 1, 62, 0
3, 92880, Note_on_c, 1, 62, 59
3, 92880, Control_c, 1, 64, 127
3, 92899, Note_on_c, 1, 62, 0
3, 92900, Note_on_c, 1, 66, 50
3, 92919, Note_on_c, 1, 66, 0
3, 92920, Note_on_c, 1, 71, 51
3, 92939, Note_on_c, 1, 71, 0
3, 92940, Note_on_c, 1, 61, 57
3, 92940, Control_c, 1, 64, 0
3, 92940, Control_c, 1, 64, 127
3, 92959, Note_on_c, 1, 61, 0
3, 92960, Note_on_c, 1, 64, 60
3, 92979, Note_on_c, 1, 64, 0
3, 92980, Note_on_c, 1, 69, 50
3, 92999, Note_on_c, 1, 69, 0
3, 93000, Note_on_c, 1, 59, 76
3, 93000, Control_c, 1, 64, 0
3, 93000, Control_c, 1, 64, 127
3, 93019, Note_on_c, 1, 59, 0
3, 93020, Note_on_c, 1, 62, 57
3, 93039, Note_on_c, 1, 62, 0
3, 93040, Note_on_c, 1, 67, 39
3, 93059, Note_on_c, 1, 67, 0
3, 93060, Note_on_c, 1, 57, 64
3, 93060, Control_c, 1, 64, 0
3, 93060, Control_c, 1, 64, 127
3, 93079, Note_on_c, 1, 57, 0
3, 93080, Note_on_c, 1, 61, 59
3, 93099, Note_on_c, 1, 61, 0
3, 93100, Note_on_c, 1, 66, 56
3, 93119, Note_on_c, 1, 66, 0
3, 93120, Note_on_c, 1, 55, 62
3, 93120, Control_c, 1, 64, 0
3, 93120, Control_c, 1, 64, 127
3, 93139, Note_on_c, 1, 55, 0
3, 93140, Note_on_c, 1, 59, 51
3, 93159, Note_on_c, 1, 59, 0
3, 93160, Note_on_c, 1, 64, 72
3, 93179, Note_on_c, 1, 64, 0
3, 93180, Control_c, 1, 64, 0
3, 93180, Note_on_c, 1, 54, 60
3, 93180, Control_c, 1, 64, 127
3, 93199, Note_on_c, 1, 54, 0
3, 93200, Note_on_c, 1, 57, 64
3, 93219, Note_on_c, 1, 57, 0
3, 93220, Note_on_c, 1, 62, 76
3, 93239, Note_on_c, 1, 62, 0
3, 93240, Control_c, 1, 64, 0
3, 93240, Note_on_c, 1, 52, 76
3, 93240, Control_c, 1, 64, 127
3, 93240, Note_on_c, 1, 33, 80
3, 93240, Note_on_c, 1, 45, 72
3, 93249, Control_c, 1, 64, 127
3, 93259, Note_on_c, 1, 52, 0
3, 93260, Note_on_c, 1, 55, 68
3, 93279, Note_on_c, 1, 55, 0
3, 93280, Note_on_c, 1, 57, 62
3, 93299, Note_on_c, 1, 57, 0
3, 93300, Note_on_c, 1, 61, 60
3, 93319, Note_on_c, 1, 61, 0
3, 93320, Note_on_c, 1, 57, 62
3, 93339, Note_on_c, 1, 57, 0
3, 93340, Note_on_c, 1, 55, 62
3, 93359, Note_on_c, 1, 55, 0
3, 93360, Note_on_c, 1, 52, 68
3, 93379, Note_on_c, 1, 52, 0
3, 93380, Note_on_c, 1, 55, 68
3, 93399, Note_on_c, 1, 55, 0
3, 93400, Note_on_c, 1, 57, 72
3, 93419, Note_on_c, 1, 57, 0
3, 93420, Note_on_c, 1, 61, 64
3, 93439, Note_on_c, 1, 61, 0
3, 93440, Note_on_c, 1, 57, 76
3, 93459, Note_on_c, 1, 57, 0
3, 93460, Note_on_c, 1, 55, 72
3, 93479, Note_on_c, 1, 55, 0
3, 93480, Note_on_c, 1, 52, 59
3, 93499, Note_on_c, 1, 52, 0
3, 93500, Note_on_c, 1, 55, 64
3, 93519, Note_on_c, 1, 55, 0
3, 93520, Note_on_c, 1, 57, 64
3, 93539, Note_on_c, 1, 57, 0
3, 93540, Note_on_c, 1, 61, 62
3, 93559, Note_on_c, 1, 61, 0
3, 93560, Note_on_c, 1, 57, 62
3, 93579, Note_on_c, 1, 57, 0
3, 93580, Note_on_c, 1, 55, 72
3, 93599, Note_on_c, 1, 55, 0
3, 93600, Note_on_c, 1, 52, 62
3, 93619, Note_on_c, 1, 52, 0
3, 93620, Note_on_c, 1, 55, 62
3, 93639, Note_on_c, 1, 55, 0
3, 93640, Note_on_c, 1, 57, 76
3, 93659, Note_on_c, 1, 57, 0
3, 93660, Note_on_c, 1, 61, 60
3, 93669, Note_on_c, 1, 33, 0
3, 93673, Note_on_c, 1, 45, 0
3, 93679, Note_on_c, 1, 61, 0
3, 93680, Note_on_c, 1, 57, 52
3, 93699, Note_on_c, 1, 57, 0
3, 93700, Note_on_c, 1, 55, 68
3, 93719, Note_on_c, 1, 55, 0
3, 93720, Control_c, 1, 64, 0
3, 93720, Note_on_c, 1, 38, 93
3, 93720, Note_on_c, 1, 62, 93
3, 93720, Note_on_c, 1, 54, 85
3, 93720, Note_on_c, 1, 50, 80
3, 93720, Note_on_c, 1, 57, 93
3, 93720, Control_c, 1, 64, 127
3, 93720, Note_on_c, 1, 38, 85
3, 93720, Note_on_c, 1, 50, 76
3, 93721, Control_c, 1, 64, 0
3, 93739, Control_c, 1, 64, 127
3, 93771, Note_on_c, 1, 38, 0
3, 93773, Note_on_c, 1, 50, 0
3, 93814, Control_c, 1, 64, 0
3, 93839, Note_on_c, 1, 62, 0
3, 93839, Note_on_c, 1, 54, 0
3, 93839, Note_on_c, 1, 38, 0
3, 93839, Note_on_c, 1, 57, 0
3, 93839, Note_on_c, 1, 50, 0
3, 93840, Control_c, 1, 64, 0
3, 93840, Control_c, 1, 64, 127
3, 93840, Note_on_c, 1, 62, 72
3, 93859, Note_on_c, 1, 62, 0
3, 93860, Note_on_c, 1, 66, 57
3, 93879, Note_on_c, 1, 66, 0
3, 93880, Note_on_c, 1, 71, 47
3, 93899, Note_on_c, 1, 71, 0
3, 93900, Control_c, 1, 64, 0
3, 93900, Note_on_c, 1, 61, 56
3, 93900, Control_c, 1, 64, 127
3, 93919, Note_on_c, 1, 61, 0
3, 93920, Note_on_c, 1, 64, 72
3, 93939, Note_on_c, 1, 64, 0
3, 93940, Note_on_c, 1, 69, 57
3, 93959, Note_on_c, 1, 69, 0
3, 93960, Control_c, 1, 64, 0
3, 93960, Note_on_c, 1, 59, 76
3, 93960, Control_c, 1, 64, 127
3, 93979, Note_on_c, 1, 59, 0
3, 93980, Note_on_c, 1, 62, 68
3, 93999, Note_on_c, 1, 62, 0
3, 94000, Note_on_c, 1, 67, 50
3, 94019, Note_on_c, 1, 67, 0
3, 94020, Control_c, 1, 64, 0
3, 94020, Note_on_c, 1, 57, 68
3, 94020, Control_c, 1, 64, 127
3, 94039, Note_on_c, 1, 57, 0
3, 94040, Note_on_c, 1, 61, 52
3, 94059, Note_on_c, 1, 61, 0
3, 94060, Note_on_c, 1, 66, 55
3, 94079, Note_on_c, 1, 66, 0
3, 94080, Note_on_c, 1, 55, 62
3, 94080, Control_c, 1, 64, 0
3, 94080, Control_c, 1, 64, 127
3, 94099, Note_on_c, 1, 55, 0
3, 94100, Note_on_c, 1, 59, 68
3, 94119, Note_on_c, 1, 59, 0
3, 94120, Note_on_c, 1, 64, 62
3, 94139, Note_on_c, 1, 64, 0
3, 94140, Control_c, 1, 64, 0
3, 94140, Note_on_c, 1, 54, 72
3, 94140, Control_c, 1, 64, 127
3, 94159, Note_on_c, 1, 54, 0
3, 94160, Note_on_c, 1, 57, 80
3, 94179, Note_on_c, 1, 57, 0
3, 94180, Note_on_c, 1, 62, 62
3, 94199, Note_on_c, 1, 62, 0
3, 94200, Control_c, 1, 64, 0
3, 94200, Note_on_c, 1, 52, 80
3, 94200, Control_c, 1, 64, 127
3, 94200, Note_on_c, 1, 33, 85
3, 94200, Note_on_c, 1, 45, 80
3, 94214, Control_c, 1, 64, 127
3, 94219, Note_on_c, 1, 52, 0
3, 94220, Note_on_c, 1, 55, 62
3, 94239, Note_on_c, 1, 55, 0
3, 94240, Note_on_c, 1, 57, 64
3, 94259, Note_on_c, 1, 57, 0
3, 94260, Note_on_c, 1, 61, 64
3, 94279, Note_on_c, 1, 61, 0
3, 94280, Note_on_c, 1, 57, 62
3, 94299, Note_on_c, 1, 57, 0
3, 94300, Note_on_c, 1, 55, 57
3, 94319, Note_on_c, 1, 55, 0
3, 94320, Note_on_c, 1, 52, 64
3, 94339, Note_on_c, 1, 52, 0
3, 94340, Note_on_c, 1, 55, 60
3, 94359, Note_on_c, 1, 55, 0
3, 94360, Note_on_c, 1, 57, 60
3, 94379, Note_on_c, 1, 57, 0
3, 94380, Note_on_c, 1, 61, 60
3, 94399, Note_on_c, 1, 61, 0
3, 94400, Note_on_c, 1, 57, 64
3, 94419, Note_on_c, 1, 57, 0
3, 94420, Note_on_c, 1, 55, 72
3, 94439, Note_on_c, 1, 55, 0
3, 94440, Note_on_c, 1, 52, 68
3, 94459, Note_on_c, 1, 52, 0
3, 94460, Note_on_c, 1, 55, 62
3, 94479, Note_on_c, 1, 55, 0
3, 94480, Note_on_c, 1, 57, 68
3, 94499, Note_on_c, 1, 57, 0
3, 94500, Note_on_c, 1, 61, 68
3, 94519, Note_on_c, 1, 61, 0
3, 94520, Note_on_c, 1, 57, 64
3, 94539, Note_on_c, 1, 57, 0
3, 94540, Note_on_c, 1, 55, 62
3, 94559, Note_on_c, 1, 55, 0
3, 94560, Note_on_c, 1, 52, 62
3, 94560, Control_c, 1, 64, 0
3, 94579, Note_on_c, 1, 52, 0
3, 94580, Control_c, 1, 64, 127
3, 94580, Note_on_c, 1, 55, 72
3, 94599, Note_on_c, 1, 55, 0
3, 94600, Note_on_c, 1, 57, 72
3, 94619, Note_on_c, 1, 57, 0
3, 94620, Note_on_c, 1, 61, 68
3, 94630, Note_on_c, 1, 33, 0
3, 94639, Note_on_c, 1, 61, 0
3, 94640, Note_on_c, 1, 45, 0
3, 94640, Note_on_c, 1, 57, 72
3, 94659, Note_on_c, 1, 57, 0
3, 94660, Note_on_c, 1, 55, 64
3, 94674, Control_c, 1, 64, 0
3, 94679, Note_on_c, 1, 55, 0
3, 94680, Control_c, 1, 64, 0
3, 94680, Control_c, 1, 64, 127
3, 94680, Note_on_c, 1, 62, 93
3, 94680, Note_on_c, 1, 54, 85
3, 94680, Note_on_c, 1, 57, 98
3, 94680, Note_on_c, 1, 38, 85
3, 94691, Control_c, 1, 64, 127
3, 94740, Note_on_c, 1, 50, 76
3, 94743, Control_c, 1, 64, 0
3, 94748, Note_on_c, 1, 38, 0
3, 94756, Control_c, 1, 64, 127
3, 94794, Note_on_c, 1, 50, 0
3, 94799, Note_on_c, 1, 62, 0
3, 94799, Note_on_c, 1, 54, 0
3, 94799, Note_on_c, 1, 57, 0
3, 94800, Control_c, 1, 64, 0
3, 94810, Control_c, 1, 64, 0
3, 94920, Note_on_c, 1, 38, 93
3, 94922, Control_c, 1, 64, 127
3, 94980, Control_c, 1, 64, 0
3, 94980, Note_on_c, 1, 50, 89
3, 94982, Note_on_c, 1, 38, 0
3, 94997, Control_c, 1, 64, 127
3, 95000, Control_c, 1, 64, 127
3, 95000, Note_on_c, 1, 62, 89
3, 95000, Control_c, 1, 64, 0
3, 95019, Note_on_c, 1, 62, 0
3, 95020, Note_on_c, 1, 61, 68
3, 95020, Control_c, 1, 64, 127
3, 95022, Note_on_c, 1, 50, 0
3, 95039, Note_on_c, 1, 61, 0
3, 95040, Control_c, 1, 64, 0
3, 95040, Note_on_c, 1, 62, 85
3, 95059, Note_on_c, 1, 62, 0
3, 95060, Note_on_c, 1, 64, 72
3, 95064, Control_c, 1, 64, 0
3, 95079, Note_on_c, 1, 64, 0
3, 95080, Note_on_c, 1, 61, 72
3, 95099, Note_on_c, 1, 61, 0
3, 95100, Note_on_c, 1, 62, 89
3, 95119, Note_on_c, 1, 62, 0
3, 95120, Note_on_c, 1, 67, 85
3, 95139, Note_on_c, 1, 67, 0
3, 95140, Note_on_c, 1, 65, 72
3, 95159, Note_on_c, 1, 65, 0
3, 95160, Note_on_c, 1, 66, 76
3, 95160, Note_on_c, 1, 38, 89
3, 95164, Control_c, 1, 64, 127
3, 95219, Note_on_c, 1, 66, 0
3, 95220, Note_on_c, 1, 50, 93
3, 95223, Note_on_c, 1, 38, 0
3, 95223, Control_c, 1, 64, 0
3, 95238, Control_c, 1, 64, 127
3, 95240, Note_on_c, 1, 66, 76
3, 95250, Note_on_c, 1, 50, 0
3, 95259, Note_on_c, 1, 66, 0
3, 95260, Note_on_c, 1, 65, 80
3, 95279, Note_on_c, 1, 65, 0
3, 95280, Note_on_c, 1, 66, 76
3, 95299, Note_on_c, 1, 66, 0
3, 95300, Note_on_c, 1, 67, 80
3, 95301, Control_c, 1, 64, 0
3, 95319, Note_on_c, 1, 67, 0
3, 95320, Note_on_c, 1, 65, 80
3, 95339, Note_on_c, 1, 65, 0
3, 95340, Note_on_c, 1, 66, 80
3, 95359, Note_on_c, 1, 66, 0
3, 95360, Note_on_c, 1, 71, 85
3, 95379, Note_on_c, 1, 71, 0
3, 95380, Note_on_c, 1, 68, 76
3, 95399, Note_on_c, 1, 68, 0
3, 95400, Note_on_c, 1, 69, 93
3, 95400, Note_on_c, 1, 62, 89
3, 95408, Control_c, 1, 64, 127
3, 95459, Note_on_c, 1, 69, 0
3, 95460, Note_on_c, 1, 62, 0
3, 95470, Control_c, 1, 64, 0
3, 95520, Note_on_c, 1, 69, 93
3, 95520, Note_on_c, 1, 62, 93
3, 95522, Control_c, 1, 64, 127
3, 95571, Note_on_c, 1, 62, 0
3, 95579, Note_on_c, 1, 69, 0
3, 95585, Control_c, 1, 64, 0
3, 95640, Note_on_c, 1, 66, 93
3, 95640, Note_on_c, 1, 69, 93
3, 95640, Control_c, 1, 64, 127
3, 95640, Note_on_c, 1, 50, 89
3, 95640, Note_on_c, 1, 62, 85
3, 95643, Control_c, 1, 64, 127
3, 95759, Note_on_c, 1, 69, 0
3, 95759, Note_on_c, 1, 66, 0
3, 95760, Control_c, 1, 64, 0
3, 95761, Note_on_c, 1, 62, 0
3, 95763, Note_on_c, 1, 50, 0
3, 95763, Control_c, 1, 64, 0
3, 96120, Note_on_c, 1, 69, 68
3, 96120, Note_on_c, 1, 72, 62
3, 96120, Note_on_c, 1, 62, 60
3, 96430, Note_on_c, 1, 62, 0
3, 96432, Note_on_c, 1, 69, 0
3, 96433, Note_on_c, 1, 72, 0
3, 96900, Note_on_c, 1, 62, 93
3, 97020, Note_on_c, 1, 62, 0
3, 97020, Note_on_c, 1, 59, 89
3, 97059, Note_on_c, 1, 59, 0
3, 97065, Note_on_c, 1, 55, 76
3, 97080, Note_on_c, 1, 54, 80
3, 97080, Note_on_c, 1, 45, 80
3, 97080, Note_on_c, 1, 50, 85
3, 97082, Note_on_c, 1, 55, 0
3, 97084, Control_c, 1, 64, 127
3, 97110, Note_on_c, 1, 56, 89
3, 97112, Note_on_c, 1, 54, 0
3, 97130, Note_on_c, 1, 50, 0
3, 97131, Note_on_c, 1, 45, 0
3, 97160, Control_c, 1, 64, 0
3, 97165, Note_on_c, 1, 56, 0
3, 97170, Note_on_c, 1, 57, 85
3, 97200, Note_on_c, 1, 52, 80
3, 97200, Note_on_c, 1, 37, 76
3, 97200, Note_on_c, 1, 33, 80
3, 97200, Note_on_c, 1, 43, 76
3, 97201, Note_on_c, 1, 57, 0
3, 97219, Control_c, 1, 64, 127
3, 97230, Note_on_c, 1, 56, 80
3, 97233, Note_on_c, 1, 52, 0
3, 97248, Note_on_c, 1, 33, 0
3, 97254, Note_on_c, 1, 37, 0
3, 97257, Note_on_c, 1, 43, 0
3, 97290, Note_on_c, 1, 57, 93
3, 97293, Note_on_c, 1, 56, 0
3, 97293, Control_c, 1, 64, 0
3, 97320, Note_on_c, 1, 50, 93
3, 97320, Note_on_c, 1, 42, 68
3, 97320, Note_on_c, 1, 38, 85
3, 97321, Note_on_c, 1, 57, 0
3, 97334, Control_c, 1, 64, 127
3, 97377, Note_on_c, 1, 38, 0
3, 97377, Note_on_c, 1, 42, 0
3, 97387, Control_c, 1, 64, 0
3, 97388, Note_on_c, 1, 50, 0
3, 98010, Note_on_c, 1, 60, 89
3, 98010, Note_on_c, 1, 57, 93
3, 98010, Note_on_c, 1, 48, 93
3, 98020, Note_on_c, 1, 57, 0
3, 98020, Note_on_c, 1, 60, 0
3, 98024, Note_on_c, 1, 48, 0
3, 98040, Note_on_c, 1, 59, 85
3, 98040, Note_on_c, 1, 50, 93
3, 98040, Note_on_c, 1, 55, 89
3, 98066, Note_on_c, 1, 59, 0
3, 98070, Note_on_c, 1, 67, 85
3, 98077, Note_on_c, 1, 55, 0
3, 98082, Note_on_c, 1, 50, 0
3, 98084, Note_on_c, 1, 67, 0
3, 98085, Note_on_c, 1, 66, 72
3, 98100, Note_on_c, 1, 64, 76
3, 98101, Note_on_c, 1, 66, 0
3, 98115, Note_on_c, 1, 62, 72
3, 98116, Note_on_c, 1, 64, 0
3, 98127, Note_on_c, 1, 62, 0
3, 98130, Note_on_c, 1, 60, 55
3, 98142, Note_on_c, 1, 60, 0
3, 98145, Note_on_c, 1, 59, 89
3, 98156, Note_on_c, 1, 59, 0
3, 98160, Note_on_c, 1, 57, 76
3, 98160, Note_on_c, 1, 42, 76
3, 98160, Note_on_c, 1, 38, 98
3, 98160, Note_on_c, 1, 48, 89
3, 98184, Note_on_c, 1, 57, 0
3, 98190, Note_on_c, 1, 62, 89
3, 98191, Note_on_c, 1, 42, 0
3, 98194, Note_on_c, 1, 48, 0
3, 98194, Note_on_c, 1, 38, 0
3, 98205, Note_on_c, 1, 62, 0
3, 98205, Note_on_c, 1, 60, 76
3, 98220, Note_on_c, 1, 59, 64
3, 98221, Note_on_c, 1, 60, 0
3, 98233, Note_on_c, 1, 59, 0
3, 98235, Note_on_c, 1, 57, 62
3, 98249, Note_on_c, 1, 57, 0
3, 98250, Note_on_c, 1, 55, 64
3, 98265, Note_on_c, 1, 54, 93
3, 98269, Note_on_c, 1, 55, 0
3, 98276, Note_on_c, 1, 54, 0
3, 98280, Note_on_c, 1, 55, 85
3, 98280, Note_on_c, 1, 43, 80
3, 98280, Note_on_c, 1, 47, 89
3, 98292, Control_c, 1, 64, 127
3, 98318, Note_on_c, 1, 47, 0
3, 98319, Note_on_c, 1, 43, 0
3, 98333, Note_on_c, 1, 55, 0
3, 98338, Control_c, 1, 64, 0
3, 98460, Note_on_c, 1, 61, 85
3, 98474, Note_on_c, 1, 61, 0
3, 98475, Note_on_c, 1, 62, 80
3, 98490, Note_on_c, 1, 62, 0
3, 98490, Note_on_c, 1, 64, 62
3, 98505, Note_on_c, 1, 64, 0
3, 98505, Note_on_c, 1, 62, 68
3, 98519, Note_on_c, 1, 62, 0
3, 98520, Note_on_c, 1, 59, 107
3, 98520, Note_on_c, 1, 55, 76
3, 98533, Control_c, 1, 64, 127
3, 98555, Note_on_c, 1, 59, 0
3, 98580, Note_on_c, 1, 58, 80
3, 98586, Note_on_c, 1, 55, 0
3, 98592, Note_on_c, 1, 58, 0
3, 98593, Control_c, 1, 64, 0
3, 98599, Note_on_c, 1, 59, 64
3, 98614, Note_on_c, 1, 59, 0
3, 98614, Note_on_c, 1, 60, 64
3, 98627, Note_on_c, 1, 59, 76
3, 98631, Note_on_c, 1, 60, 0
3, 98638, Note_on_c, 1, 59, 0
3, 98640, Note_on_c, 1, 50, 93
3, 98641, Note_on_c, 1, 56, 72
3, 98644, Note_on_c, 1, 56, 0
3, 98655, Control_c, 1, 64, 127
3, 98694, Note_on_c, 1, 50, 0
3, 98700, Note_on_c, 1, 55, 89
3, 98712, Control_c, 1, 64, 0
3, 98715, Note_on_c, 1, 57, 89
3, 98718, Note_on_c, 1, 55, 0
3, 98729, Note_on_c, 1, 57, 0
3, 98730, Note_on_c, 1, 59, 85
3, 98745, Note_on_c, 1, 59, 0
3, 98745, Note_on_c, 1, 57, 68
3, 98757, Note_on_c, 1, 57, 0
3, 98760, Note_on_c, 1, 55, 76
3, 98760, Note_on_c, 1, 47, 93
3, 98774, Control_c, 1, 64, 127
3, 98805, Note_on_c, 1, 55, 0
3, 98811, Note_on_c, 1, 47, 0
3, 98828, Control_c, 1, 64, 0
3, 99450, Note_on_c, 1, 51, 93
3, 99464, Note_on_c, 1, 51, 0
3, 99477, Control_c, 1, 64, 127
3, 99480, Note_on_c, 1, 54, 80
3, 99480, Note_on_c, 1, 48, 76
3, 99480, Note_on_c, 1, 43, 76
3, 99499, Note_on_c, 1, 54, 0
3, 99500, Note_on_c, 1, 52, 76
3, 99519, Note_on_c, 1, 52, 0
3, 99520, Note_on_c, 1, 55, 80
3, 99530, Note_on_c, 1, 55, 0
3, 99540, Note_on_c, 1, 54, 76
3, 99542, Note_on_c, 1, 43, 0
3, 99545, Note_on_c, 1, 48, 0
3, 99559, Note_on_c, 1, 54, 0
3, 99560, Note_on_c, 1, 57, 85
3, 99579, Note_on_c, 1, 57, 0
3, 99580, Note_on_c, 1, 56, 64
3, 99590, Note_on_c, 1, 56, 0
3, 99594, Control_c, 1, 64, 0
3, 99600, Note_on_c, 1, 59, 85
3, 99600, Note_on_c, 1, 42, 64
3, 99600, Note_on_c, 1, 45, 64
3, 99600, Note_on_c, 1, 38, 89
3, 99619, Note_on_c, 1, 59, 0
3, 99619, Control_c, 1, 64, 127
3, 99620, Note_on_c, 1, 57, 62
3, 99639, Note_on_c, 1, 57, 0
3, 99640, Note_on_c, 1, 60, 76
3, 99650, Note_on_c, 1, 60, 0
3, 99660, Note_on_c, 1, 59, 76
3, 99677, Note_on_c, 1, 38, 0
3, 99678, Note_on_c, 1, 42, 0
3, 99679, Note_on_c, 1, 59, 0
3, 99680, Note_on_c, 1, 62, 72
3, 99682, Note_on_c, 1, 45, 0
3, 99699, Note_on_c, 1, 62, 0
3, 99700, Note_on_c, 1, 60, 76
3, 99710, Note_on_c, 1, 60, 0
3, 99720, Note_on_c, 1, 64, 80
3, 99720, Note_on_c, 1, 35, 93
3, 99720, Note_on_c, 1, 38, 72
3, 99720, Note_on_c, 1, 43, 72
3, 99724, Control_c, 1, 64, 0
3, 99749, Note_on_c, 1, 64, 0
3, 99750, Note_on_c, 1, 62, 80
3, 99755, Control_c, 1, 64, 127
3, 99779, Note_on_c, 1, 62, 0
3, 99780, Note_on_c, 1, 43, 0
3, 99781, Note_on_c, 1, 38, 0
3, 99783, Note_on_c, 1, 35, 0
3, 99796, Control_c, 1, 64, 0
3, 100230, Note_on_c, 1, 64, 93
3, 100245, Note_on_c, 1, 62, 89
3, 100247, Note_on_c, 1, 64, 0
3, 100260, Note_on_c, 1, 60, 68
3, 100266, Note_on_c, 1, 62, 0
3, 100275, Note_on_c, 1, 59, 56
3, 100279, Note_on_c, 1, 60, 0
3, 100287, Note_on_c, 1, 59, 0
3, 100290, Note_on_c, 1, 57, 64
3, 100305, Note_on_c, 1, 55, 60
3, 100307, Note_on_c, 1, 57, 0
3, 100320, Note_on_c, 1, 54, 98
3, 100320, Note_on_c, 1, 38, 93
3, 100320, Note_on_c, 1, 48, 89
3, 100320, Note_on_c, 1, 45, 93
3, 100323, Note_on_c, 1, 55, 0
3, 100338, Control_c, 1, 64, 127
3, 100346, Note_on_c, 1, 54, 0
3, 100350, Note_on_c, 1, 62, 89
3, 100365, Note_on_c, 1, 62, 0
3, 100365, Note_on_c, 1, 60, 76
3, 100380, Note_on_c, 1, 59, 68
3, 100382, Note_on_c, 1, 38, 0
3, 100384, Note_on_c, 1, 60, 0
3, 100384, Note_on_c, 1, 45, 0
3, 100386, Note_on_c, 1, 48, 0
3, 100387, Control_c, 1, 64, 0
3, 100395, Note_on_c, 1, 57, 68
3, 100397, Note_on_c, 1, 59, 0
3, 100407, Note_on_c, 1, 57, 0
3, 100410, Note_on_c, 1, 55, 64
3, 100425, Note_on_c, 1, 54, 64
3, 100428, Note_on_c, 1, 55, 0
3, 100436, Note_on_c, 1, 54, 0
3, 100440, Note_on_c, 1, 53, 38
3, 100440, Note_on_c, 1, 55, 89
3, 100440, Note_on_c, 1, 43, 80
3, 100440, Note_on_c, 1, 47, 85
3, 100446, Note_on_c, 1, 53, 0
3, 100446, Control_c, 1, 64, 127
3, 100489, Note_on_c, 1, 55, 0
3, 100490, Note_on_c, 1, 43, 0
3, 100492, Note_on_c, 1, 47, 0
3, 100500, Control_c, 1, 64, 0
3, 100920, Note_on_c, 1, 62, 93
3, 100920, Note_on_c, 1, 55, 93
3, 100920, Note_on_c, 1, 65, 93
3, 100920, Note_on_c, 1, 59, 89
3, 100930, Control_c, 1, 64, 127
3, 100954, Note_on_c, 1, 59, 0
3, 100954, Note_on_c, 1, 65, 0
3, 100956, Note_on_c, 1, 55, 0
3, 100956, Note_on_c, 1, 62, 0
3, 100980, Note_on_c, 1, 62, 89
3, 100980, Note_on_c, 1, 65, 89
3, 100980, Note_on_c, 1, 55, 89
3, 100980, Note_on_c, 1, 59, 89
3, 100980, Note_on_c, 1, 53, 80
3, 100980, Note_on_c, 1, 41, 72
3, 100984, Control_c, 1, 64, 0
3, 101006, Control_c, 1, 64, 127
3, 101028, Control_c, 1, 64, 0
3, 101040, Note_on_c, 1, 50, 93
3, 101040, Note_on_c, 1, 38, 80
3, 101041, Control_c, 1, 64, 127
3, 101042, Note_on_c, 1, 41, 0
3, 101043, Note_on_c, 1, 53, 0
3, 101057, Note_on_c, 1, 59, 0
3, 101059, Note_on_c, 1, 55, 0
3, 101060, Note_on_c, 1, 62, 0
3, 101060, Note_on_c, 1, 65, 0
3, 101100, Note_on_c, 1, 62, 89
3, 101100, Note_on_c, 1, 65, 93
3, 101100, Note_on_c, 1, 55, 85
3, 101100, Note_on_c, 1, 59, 89
3, 101100, Note_on_c, 1, 35, 89
3, 101100, Note_on_c, 1, 47, 85
3, 101101, Note_on_c, 1, 38, 0
3, 101103, Note_on_c, 1, 50, 0
3, 101129, Note_on_c, 1, 55, 0
3, 101130, Note_on_c, 1, 65, 0
3, 101131, Note_on_c, 1, 62, 0
3, 101131, Note_on_c, 1, 59, 0
3, 101157, Note_on_c, 1, 47, 0
3, 101159, Note_on_c, 1, 35, 0
3, 101160, Note_on_c, 1, 55, 93
3, 101160, Note_on_c, 1, 65, 89
3, 101160, Note_on_c, 1, 62, 93
3, 101160, Note_on_c, 1, 59, 93
3, 101160, Note_on_c, 1, 43, 72
3, 101160, Note_on_c, 1, 31, 93
3, 101161, Control_c, 1, 64, 0
3, 101183, Control_c, 1, 64, 127
3, 101196, Control_c, 1, 64, 127
3, 101279, Note_on_c, 1, 43, 0
3, 101280, Note_on_c, 1, 31, 0
3, 101284, Note_on_c, 1, 62, 0
3, 101284, Note_on_c, 1, 59, 0
3, 101284, Note_on_c, 1, 55, 0
3, 101287, Note_on_c, 1, 65, 0
3, 101292, Control_c, 1, 64, 0
3, 102120, Control_c, 1, 64, 127
3, 102120, Note_on_c, 1, 55, 72
3, 102139, Note_on_c, 1, 55, 0
3, 102140, Note_on_c, 1, 60, 72
3, 102159, Note_on_c, 1, 60, 0
3, 102160, Note_on_c, 1, 64, 76
3, 102179, Note_on_c, 1, 64, 0
3, 102180, Note_on_c, 1, 67, 64
3, 102199, Note_on_c, 1, 67, 0
3, 102200, Note_on_c, 1, 64, 76
3, 102219, Note_on_c, 1, 64, 0
3, 102220, Note_on_c, 1, 60, 72
3, 102239, Note_on_c, 1, 60, 0
3, 102240, Note_on_c, 1, 55, 80
3, 102259, Note_on_c, 1, 55, 0
3, 102260, Note_on_c, 1, 60, 68
3, 102279, Note_on_c, 1, 60, 0
3, 102280, Note_on_c, 1, 64, 72
3, 102299, Note_on_c, 1, 64, 0
3, 102300, Note_on_c, 1, 67, 62
3, 102319, Note_on_c, 1, 67, 0
3, 102320, Note_on_c, 1, 64, 60
3, 102339, Note_on_c, 1, 64, 0
3, 102340, Note_on_c, 1, 60, 59
3, 102359, Note_on_c, 1, 60, 0
3, 102360, Control_c, 1, 64, 0
3, 102360, Note_on_c, 1, 55, 98
3, 102360, Control_c, 1, 64, 127
3, 102360, Note_on_c, 1, 36, 89
3, 102360, Note_on_c, 1, 48, 93
3, 102379, Note_on_c, 1, 55, 0
3, 102380, Note_on_c, 1, 60, 89
3, 102381, Control_c, 1, 64, 127
3, 102399, Note_on_c, 1, 60, 0
3, 102400, Note_on_c, 1, 64, 85
3, 102419, Note_on_c, 1, 64, 0
3, 102420, Note_on_c, 1, 67, 93
3, 102439, Note_on_c, 1, 67, 0
3, 102440, Note_on_c, 1, 64, 93
3, 102459, Note_on_c, 1, 64, 0
3, 102460, Note_on_c, 1, 60, 89
3, 102479, Note_on_c, 1, 60, 0
3, 102480, Note_on_c, 1, 55, 89
3, 102499, Note_on_c, 1, 55, 0
3, 102500, Note_on_c, 1, 60, 80
3, 102519, Note_on_c, 1, 60, 0
3, 102520, Note_on_c, 1, 64, 89
3, 102539, Note_on_c, 1, 64, 0
3, 102540, Note_on_c, 1, 67, 93
3, 102559, Note_on_c, 1, 67, 0
3, 102560, Note_on_c, 1, 64, 80
3, 102576, Note_on_c, 1, 48, 0
3, 102577, Note_on_c, 1, 36, 0
3, 102579, Note_on_c, 1, 64, 0
3, 102580, Note_on_c, 1, 60, 85
3, 102599, Note_on_c, 1, 60, 0
3, 102600, Control_c, 1, 64, 0
3, 102600, Note_on_c, 1, 55, 72
3, 102600, Control_c, 1, 64, 127
3, 102611, Control_c, 1, 64, 0
3, 102619, Note_on_c, 1, 55, 0
3, 102620, Note_on_c, 1, 62, 76
3, 102639, Note_on_c, 1, 62, 0
3, 102640, Note_on_c, 1, 65, 80
3, 102659, Note_on_c, 1, 65, 0
3, 102660, Note_on_c, 1, 67, 64
3, 102679, Note_on_c, 1, 67, 0
3, 102680, Note_on_c, 1, 65, 62
3, 102699, Note_on_c, 1, 65, 0
3, 102700, Note_on_c, 1, 62, 60
3, 102719, Note_on_c, 1, 62, 0
3, 102720, Control_c, 1, 64, 0
3, 102720, Note_on_c, 1, 55, 76
3, 102720, Control_c, 1, 64, 127
3, 102739, Note_on_c, 1, 55, 0
3, 102740, Note_on_c, 1, 62, 72
3, 102759, Note_on_c, 1, 62, 0
3, 102760, Note_on_c, 1, 65, 76
3, 102779, Note_on_c, 1, 65, 0
3, 102780, Note_on_c, 1, 67, 60
3, 102799, Note_on_c, 1, 67, 0
3, 102800, Note_on_c, 1, 65, 64
3, 102819, Note_on_c, 1, 65, 0
3, 102820, Note_on_c, 1, 62, 76
3, 102839, Note_on_c, 1, 62, 0
3, 102840, Control_c, 1, 64, 0
3, 102840, Note_on_c, 1, 55, 93
3, 102840, Control_c, 1, 64, 127
3, 102840, Note_on_c, 1, 35, 80
3, 102840, Note_on_c, 1, 47, 80
3, 102859, Note_on_c, 1, 55, 0
3, 102859, Note_on_c, 1, 62, 98
3, 102860, Control_c, 1, 64, 127
3, 102878, Note_on_c, 1, 62, 0
3, 102879, Note_on_c, 1, 65, 89
3, 102898, Note_on_c, 1, 65, 0
3, 102900, Note_on_c, 1, 67, 98
3, 102919, Note_on_c, 1, 67, 0
3, 102920, Note_on_c, 1, 65, 89
3, 102939, Note_on_c, 1, 65, 0
3, 102940, Note_on_c, 1, 62, 89
3, 102959, Note_on_c, 1, 62, 0
3, 102960, Control_c, 1, 64, 0
3, 102960, Note_on_c, 1, 55, 93
3, 102960, Control_c, 1, 64, 127
3, 102979, Note_on_c, 1, 55, 0
3, 102980, Note_on_c, 1, 62, 93
3, 102999, Note_on_c, 1, 62, 0
3, 103000, Note_on_c, 1, 65, 80
3, 103019, Note_on_c, 1, 65, 0
3, 103020, Note_on_c, 1, 67, 89
3, 103039, Note_on_c, 1, 67, 0
3, 103039, Note_on_c, 1, 47, 0
3, 103040, Note_on_c, 1, 65, 76
3, 103041, Note_on_c, 1, 35, 0
3, 103059, Note_on_c, 1, 65, 0
3, 103060, Note_on_c, 1, 62, 89
3, 103079, Note_on_c, 1, 62, 0
3, 103080, Control_c, 1, 64, 0
3, 103080, Note_on_c, 1, 55, 89
3, 103080, Control_c, 1, 64, 127
3, 103096, Control_c, 1, 64, 0
3, 103099, Note_on_c, 1, 55, 0
3, 103100, Note_on_c, 1, 60, 76
3, 103119, Note_on_c, 1, 60, 0
3, 103120, Note_on_c, 1, 64, 64
3, 103139, Note_on_c, 1, 64, 0
3, 103140, Note_on_c, 1, 58, 68
3, 103140, Control_c, 1, 64, 0
3, 103140, Control_c, 1, 64, 127
3, 103159, Note_on_c, 1, 58, 0
3, 103160, Note_on_c, 1, 60, 72
3, 103179, Note_on_c, 1, 60, 0
3, 103180, Note_on_c, 1, 67, 72
3, 103199, Note_on_c, 1, 67, 0
3, 103200, Control_c, 1, 64, 0
3, 103200, Note_on_c, 1, 57, 93
3, 103200, Control_c, 1, 64, 127
3, 103219, Note_on_c, 1, 57, 0
3, 103220, Note_on_c, 1, 60, 64
3, 103239, Note_on_c, 1, 60, 0
3, 103240, Note_on_c, 1, 65, 55
3, 103259, Note_on_c, 1, 65, 0
3, 103260, Control_c, 1, 64, 0
3, 103260, Note_on_c, 1, 56, 93
3, 103260, Control_c, 1, 64, 127
3, 103279, Note_on_c, 1, 56, 0
3, 103280, Note_on_c, 1, 60, 57
3, 103299, Note_on_c, 1, 60, 0
3, 103300, Note_on_c, 1, 65, 72
3, 103319, Note_on_c, 1, 65, 0
3, 103320, Control_c, 1, 64, 0
3, 103320, Note_on_c, 1, 55, 89
3, 103320, Control_c, 1, 64, 127
3, 103339, Note_on_c, 1, 55, 0
3, 103340, Note_on_c, 1, 59, 85
3, 103359, Note_on_c, 1, 59, 0
3, 103360, Note_on_c, 1, 62, 76
3, 103379, Note_on_c, 1, 62, 0
3, 103380, Note_on_c, 1, 65, 76
3, 103399, Note_on_c, 1, 65, 0
3, 103400, Note_on_c, 1, 62, 72
3, 103419, Note_on_c, 1, 62, 0
3, 103420, Note_on_c, 1, 59, 76
3, 103439, Note_on_c, 1, 59, 0
3, 103440, Control_c, 1, 64, 0
3, 103440, Note_on_c, 1, 55, 80
3, 103440, Control_c, 1, 64, 127
3, 103459, Note_on_c, 1, 55, 0
3, 103460, Note_on_c, 1, 62, 76
3, 103479, Note_on_c, 1, 62, 0
3, 103480, Note_on_c, 1, 65, 68
3, 103499, Note_on_c, 1, 65, 0
3, 103500, Note_on_c, 1, 67, 76
3, 103519, Note_on_c, 1, 67, 0
3, 103520, Note_on_c, 1, 65, 59
3, 103539, Note_on_c, 1, 65, 0
3, 103540, Note_on_c, 1, 62, 72
3, 103559, Note_on_c, 1, 62, 0
3, 103560, Control_c, 1, 64, 0
3, 103560, Note_on_c, 1, 55, 93
3, 103560, Control_c, 1, 64, 127
3, 103579, Note_on_c, 1, 55, 0
3, 103580, Note_on_c, 1, 60, 72
3, 103599, Note_on_c, 1, 60, 0
3, 103600, Note_on_c, 1, 64, 72
3, 103619, Note_on_c, 1, 64, 0
3, 103620, Control_c, 1, 64, 0
3, 103620, Note_on_c, 1, 58, 93
3, 103620, Control_c, 1, 64, 127
3, 103639, Note_on_c, 1, 58, 0
3, 103640, Note_on_c, 1, 60, 64
3, 103659, Note_on_c, 1, 60, 0
3, 103660, Note_on_c, 1, 67, 72
3, 103679, Note_on_c, 1, 67, 0
3, 103680, Control_c, 1, 64, 0
3, 103680, Note_on_c, 1, 57, 89
3, 103680, Control_c, 1, 64, 127
3, 103699, Note_on_c, 1, 57, 0
3, 103700, Note_on_c, 1, 60, 55
3, 103719, Note_on_c, 1, 60, 0
3, 103720, Note_on_c, 1, 65, 62
3, 103739, Note_on_c, 1, 65, 0
3, 103740, Control_c, 1, 64, 0
3, 103740, Note_on_c, 1, 56, 89
3, 103740, Control_c, 1, 64, 127
3, 103759, Note_on_c, 1, 56, 0
3, 103760, Note_on_c, 1, 60, 68
3, 103779, Note_on_c, 1, 60, 0
3, 103780, Note_on_c, 1, 65, 64
3, 103799, Note_on_c, 1, 65, 0
3, 103800, Control_c, 1, 64, 0
3, 103800, Note_on_c, 1, 55, 80
3, 103800, Control_c, 1, 64, 127
3, 103819, Note_on_c, 1, 55, 0
3, 103820, Note_on_c, 1, 59, 50
3, 103839, Note_on_c, 1, 59, 0
3, 103840, Note_on_c, 1, 62, 68
3, 103859, Note_on_c, 1, 62, 0
3, 103860, Note_on_c, 1, 65, 68
3, 103879, Note_on_c, 1, 65, 0
3, 103880, Note_on_c, 1, 62, 72
3, 103899, Note_on_c, 1, 62, 0
3, 103900, Note_on_c, 1, 59, 59
3, 103919, Note_on_c, 1, 59, 0
3, 103920, Control_c, 1, 64, 0
3, 103920, Note_on_c, 1, 55, 85
3, 103920, Control_c, 1, 64, 127
3, 103939, Note_on_c, 1, 55, 0
3, 103940, Note_on_c, 1, 62, 76
3, 103959, Note_on_c, 1, 62, 0
3, 103960, Note_on_c, 1, 65, 72
3, 103979, Note_on_c, 1, 65, 0
3, 103980, Note_on_c, 1, 67, 62
3, 103999, Note_on_c, 1, 67, 0
3, 104000, Note_on_c, 1, 65, 68
3, 104019, Note_on_c, 1, 65, 0
3, 104020, Note_on_c, 1, 62, 76
3, 104039, Note_on_c, 1, 62, 0
3, 104040, Control_c, 1, 64, 0
3, 104040, Note_on_c, 1, 55, 89
3, 104040, Control_c, 1, 64, 127
3, 104059, Note_on_c, 1, 55, 0
3, 104060, Note_on_c, 1, 60, 51
3, 104079, Note_on_c, 1, 60, 0
3, 104080, Note_on_c, 1, 64, 72
3, 104099, Note_on_c, 1, 64, 0
3, 104100, Note_on_c, 1, 55, 80
3, 104100, Note_on_c, 1, 36, 80
3, 104100, Note_on_c, 1, 48, 80
3, 104102, Control_c, 1, 64, 127
3, 104119, Note_on_c, 1, 55, 0
3, 104120, Note_on_c, 1, 60, 68
3, 104130, Note_on_c, 1, 48, 0
3, 104131, Note_on_c, 1, 36, 0
3, 104139, Note_on_c, 1, 60, 0
3, 104140, Note_on_c, 1, 64, 59
3, 104159, Note_on_c, 1, 64, 0
3, 104160, Control_c, 1, 64, 0
3, 104160, Note_on_c, 1, 55, 85
3, 104160, Control_c, 1, 64, 127
3, 104160, Control_c, 1, 64, 0
3, 104160, Note_on_c, 1, 35, 76
3, 104160, Note_on_c, 1, 47, 76
3, 104174, Control_c, 1, 64, 127
3, 104179, Note_on_c, 1, 55, 0
3, 104180, Note_on_c, 1, 62, 72
3, 104187, Note_on_c, 1, 47, 0
3, 104187, Note_on_c, 1, 35, 0
3, 104199, Note_on_c, 1, 62, 0
3, 104200, Note_on_c, 1, 65, 64
3, 104215, Control_c, 1, 64, 0
3, 104219, Note_on_c, 1, 65, 0
3, 104220, Control_c, 1, 64, 0
3, 104220, Note_on_c, 1, 55, 68
3, 104220, Control_c, 1, 64, 127
3, 104220, Note_on_c, 1, 36, 72
3, 104220, Note_on_c, 1, 48, 76
3, 104228, Control_c, 1, 64, 127
3, 104239, Note_on_c, 1, 55, 0
3, 104240, Note_on_c, 1, 60, 64
3, 104244, Note_on_c, 1, 48, 0
3, 104248, Note_on_c, 1, 36, 0
3, 104259, Note_on_c, 1, 60, 0
3, 104260, Note_on_c, 1, 64, 80
3, 104279, Note_on_c, 1, 64, 0
3, 104280, Control_c, 1, 64, 0
3, 104280, Note_on_c, 1, 55, 85
3, 104280, Control_c, 1, 64, 127
3, 104280, Note_on_c, 1, 31, 80
3, 104280, Note_on_c, 1, 43, 76
3, 104282, Control_c, 1, 64, 0
3, 104299, Note_on_c, 1, 55, 0
3, 104300, Note_on_c, 1, 60, 68
3, 104307, Control_c, 1, 64, 127
3, 104319, Note_on_c, 1, 60, 0
3, 104320, Note_on_c, 1, 64, 80
3, 104339, Note_on_c, 1, 64, 0
3, 104340, Note_on_c, 1, 67, 76
3, 104359, Note_on_c, 1, 67, 0
3, 104360, Note_on_c, 1, 64, 76
3, 104379, Note_on_c, 1, 64, 0
3, 104380, Note_on_c, 1, 60, 68
3, 104399, Note_on_c, 1, 60, 0
3, 104400, Control_c, 1, 64, 0
3, 104400, Note_on_c, 1, 55, 85
3, 104400, Control_c, 1, 64, 127
3, 104419, Note_on_c, 1, 55, 0
3, 104420, Note_on_c, 1, 59, 68
3, 104439, Note_on_c, 1, 59, 0
3, 104440, Note_on_c, 1, 62, 76
3, 104459, Note_on_c, 1, 62, 0
3, 104460, Note_on_c, 1, 43, 0
3, 104460, Note_on_c, 1, 67, 72
3, 104463, Note_on_c, 1, 31, 0
3, 104467, Control_c, 1, 64, 0
3, 104479, Note_on_c, 1, 67, 0
3, 104480, Note_on_c, 1, 62, 62
3, 104499, Note_on_c, 1, 62, 0
3, 104500, Note_on_c, 1, 59, 62
3, 104519, Note_on_c, 1, 59, 0
3, 104520, Control_c, 1, 64, 0
3, 104520, Note_on_c, 1, 55, 76
3, 104520, Control_c, 1, 64, 127
3, 104539, Note_on_c, 1, 55, 0
3, 104540, Note_on_c, 1, 60, 56
3, 104559, Note_on_c, 1, 60, 0
3, 104560, Note_on_c, 1, 64, 62
3, 104579, Note_on_c, 1, 64, 0
3, 104580, Note_on_c, 1, 67, 64
3, 104599, Note_on_c, 1, 67, 0
3, 104600, Note_on_c, 1, 64, 55
3, 104619, Note_on_c, 1, 64, 0
3, 104620, Note_on_c, 1, 60, 72
3, 104639, Note_on_c, 1, 60, 0
3, 104640, Note_on_c, 1, 55, 64
3, 104659, Note_on_c, 1, 55, 0
3, 104660, Note_on_c, 1, 60, 68
3, 104679, Note_on_c, 1, 60, 0
3, 104680, Note_on_c, 1, 64, 64
3, 104699, Note_on_c, 1, 64, 0
3, 104700, Note_on_c, 1, 67, 62
3, 104719, Note_on_c, 1, 67, 0
3, 104720, Note_on_c, 1, 64, 68
3, 104739, Note_on_c, 1, 64, 0
3, 104740, Note_on_c, 1, 60, 76
3, 104759, Note_on_c, 1, 60, 0
3, 104760, Control_c, 1, 64, 0
3, 104760, Note_on_c, 1, 55, 98
3, 104760, Control_c, 1, 64, 127
3, 104760, Note_on_c, 1, 36, 80
3, 104760, Note_on_c, 1, 48, 76
3, 104775, Control_c, 1, 64, 127
3, 104779, Note_on_c, 1, 55, 0
3, 104780, Note_on_c, 1, 60, 85
3, 104799, Note_on_c, 1, 60, 0
3, 104800, Note_on_c, 1, 64, 80
3, 104819, Note_on_c, 1, 64, 0
3, 104820, Note_on_c, 1, 67, 89
3, 104839, Note_on_c, 1, 67, 0
3, 104840, Note_on_c, 1, 64, 72
3, 104859, Note_on_c, 1, 64, 0
3, 104860, Note_on_c, 1, 60, 76
3, 104879, Note_on_c, 1, 60, 0
3, 104880, Note_on_c, 1, 55, 98
3, 104880, Control_c, 1, 64, 0
3, 104880, Control_c, 1, 64, 127
3, 104899, Note_on_c, 1, 55, 0
3, 104900, Note_on_c, 1, 60, 89
3, 104919, Note_on_c, 1, 60, 0
3, 104920, Note_on_c, 1, 64, 89
3, 104939, Note_on_c, 1, 64, 0
3, 104940, Note_on_c, 1, 67, 93
3, 104959, Note_on_c, 1, 67, 0
3, 104960, Note_on_c, 1, 64, 80
3, 104979, Note_on_c, 1, 64, 0
3, 104980, Note_on_c, 1, 60, 57
3, 104989, Note_on_c, 1, 36, 0
3, 104991, Note_on_c, 1, 48, 0
3, 104999, Note_on_c, 1, 60, 0
3, 105000, Note_on_c, 1, 55, 76
3, 105000, Control_c, 1, 64, 0
3, 105000, Control_c, 1, 64, 127
3, 105004, Control_c, 1, 64, 0
3, 105019, Note_on_c, 1, 55, 0
3, 105020, Note_on_c, 1, 62, 76
3, 105039, Note_on_c, 1, 62, 0
3, 105040, Note_on_c, 1, 65, 68
3, 105059, Note_on_c, 1, 65, 0
3, 105060, Note_on_c, 1, 67, 62
3, 105079, Note_on_c, 1, 67, 0
3, 105080, Note_on_c, 1, 65, 57
3, 105099, Note_on_c, 1, 65, 0
3, 105100, Note_on_c, 1, 62, 60
3, 105119, Note_on_c, 1, 62, 0
3, 105120, Control_c, 1, 64, 0
3, 105120, Note_on_c, 1, 55, 72
3, 105120, Control_c, 1, 64, 127
3, 105139, Note_on_c, 1, 55, 0
3, 105140, Note_on_c, 1, 62, 62
3, 105159, Note_on_c, 1, 62, 0
3, 105160, Note_on_c, 1, 65, 62
3, 105179, Note_on_c, 1, 65, 0
3, 105180, Note_on_c, 1, 67, 64
3, 105199, Note_on_c, 1, 67, 0
3, 105200, Note_on_c, 1, 65, 51
3, 105219, Note_on_c, 1, 65, 0
3, 105220, Note_on_c, 1, 62, 62
3, 105239, Note_on_c, 1, 62, 0
3, 105240, Note_on_c, 1, 35, 90
3, 105240, Note_on_c, 1, 47, 90
3, 105240, Control_c, 1, 64, 0
3, 105240, Note_on_c, 1, 55, 76
3, 105240, Control_c, 1, 64, 127
3, 105254, Control_c, 1, 64, 127
3, 105259, Note_on_c, 1, 55, 0
3, 105260, Note_on_c, 1, 62, 62
3, 105279, Note_on_c, 1, 62, 0
3, 105280, Note_on_c, 1, 65, 72
3, 105299, Note_on_c, 1, 65, 0
3, 105300, Note_on_c, 1, 67, 76
3, 105319, Note_on_c, 1, 67, 0
3, 105320, Note_on_c, 1, 65, 76
3, 105339, Note_on_c, 1, 65, 0
3, 105340, Note_on_c, 1, 62, 89
3, 105359, Note_on_c, 1, 62, 0
3, 105360, Note_on_c, 1, 55, 76
3, 105379, Note_on_c, 1, 55, 0
3, 105380, Note_on_c, 1, 62, 85
3, 105399, Note_on_c, 1, 62, 0
3, 105400, Note_on_c, 1, 65, 76
3, 105419, Note_on_c, 1, 65, 0
3, 105420, Note_on_c, 1, 67, 85
3, 105439, Note_on_c, 1, 67, 0
3, 105440, Note_on_c, 1, 65, 76
3, 105459, Note_on_c, 1, 65, 0
3, 105460, Note_on_c, 1, 62, 72
3, 105472, Note_on_c, 1, 47, 0
3, 105475, Note_on_c, 1, 35, 0
3, 105479, Note_on_c, 1, 62, 0
3, 105480, Control_c, 1, 64, 0
3, 105480, Note_on_c, 1, 55, 60
3, 105480, Control_c, 1, 64, 127
3, 105483, Control_c, 1, 64, 0
3, 105499, Note_on_c, 1, 55, 0
3, 105500, Note_on_c, 1, 60, 50
3, 105519, Note_on_c, 1, 60, 0
3, 105520, Note_on_c, 1, 64, 64
3, 105539, Note_on_c, 1, 64, 0
3, 105540, Control_c, 1, 64, 0
3, 105540, Note_on_c, 1, 58, 68
3, 105540, Control_c, 1, 64, 127
3, 105559, Note_on_c, 1, 58, 0
3, 105560, Note_on_c, 1, 60, 62
3, 105579, Note_on_c, 1, 60, 0
3, 105580, Note_on_c, 1, 67, 76
3, 105599, Note_on_c, 1, 67, 0
3, 105600, Control_c, 1, 64, 0
3, 105600, Note_on_c, 1, 57, 76
3, 105600, Control_c, 1, 64, 127
3, 105619, Note_on_c, 1, 57, 0
3, 105620, Note_on_c, 1, 60, 68
3, 105639, Note_on_c, 1, 60, 0
3, 105640, Note_on_c, 1, 65, 57
3, 105659, Note_on_c, 1, 65, 0
3, 105660, Control_c, 1, 64, 0
3, 105660, Note_on_c, 1, 56, 76
3, 105660, Control_c, 1, 64, 127
3, 105679, Note_on_c, 1, 56, 0
3, 105680, Note_on_c, 1, 60, 60
3, 105699, Note_on_c, 1, 60, 0
3, 105700, Note_on_c, 1, 65, 62
3, 105719, Note_on_c, 1, 65, 0
3, 105720, Control_c, 1, 64, 0
3, 105720, Note_on_c, 1, 55, 76
3, 105720, Control_c, 1, 64, 127
3, 105739, Note_on_c, 1, 55, 0
3, 105740, Note_on_c, 1, 59, 60
3, 105759, Note_on_c, 1, 59, 0
3, 105760, Note_on_c, 1, 62, 72
3, 105779, Note_on_c, 1, 62, 0
3, 105780, Note_on_c, 1, 65, 62
3, 105799, Note_on_c, 1, 65, 0
3, 105800, Note_on_c, 1, 62, 60
3, 105819, Note_on_c, 1, 62, 0
3, 105820, Note_on_c, 1, 59, 72
3, 105839, Note_on_c, 1, 59, 0
3, 105840, Control_c, 1, 64, 0
3, 105840, Note_on_c, 1, 55, 72
3, 105840, Control_c, 1, 64, 127
3, 105859, Note_on_c, 1, 55, 0
3, 105860, Note_on_c, 1, 62, 72
3, 105879, Note_on_c, 1, 62, 0
3, 105880, Note_on_c, 1, 65, 76
3, 105899, Note_on_c, 1, 65, 0
3, 105900, Note_on_c, 1, 67, 68
3, 105919, Note_on_c, 1, 67, 0
3, 105920, Note_on_c, 1, 65, 64
3, 105939, Note_on_c, 1, 65, 0
3, 105940, Note_on_c, 1, 62, 60
3, 105959, Note_on_c, 1, 62, 0
3, 105960, Control_c, 1, 64, 0
3, 105960, Note_on_c, 1, 55, 68
3, 105960, Control_c, 1, 64, 127
3, 105979, Note_on_c, 1, 55, 0
3, 105980, Note_on_c, 1, 60, 45
3, 105999, Note_on_c, 1, 60, 0
3, 106000, Note_on_c, 1, 64, 72
3, 106019, Note_on_c, 1, 64, 0
3, 106020, Control_c, 1, 64, 0
3, 106020, Note_on_c, 1, 58, 76
3, 106020, Control_c, 1, 64, 127
3, 106039, Note_on_c, 1, 58, 0
3, 106040, Note_on_c, 1, 60, 57
3, 106059, Note_on_c, 1, 60, 0
3, 106060, Note_on_c, 1, 67, 64
3, 106079, Note_on_c, 1, 67, 0
3, 106080, Note_on_c, 1, 57, 80
3, 106080, Control_c, 1, 64, 0
3, 106080, Control_c, 1, 64, 127
3, 106099, Note_on_c, 1, 57, 0
3, 106100, Note_on_c, 1, 60, 51
3, 106119, Note_on_c, 1, 60, 0
3, 106120, Note_on_c, 1, 65, 56
3, 106139, Note_on_c, 1, 65, 0
3, 106140, Control_c, 1, 64, 0
3, 106140, Note_on_c, 1, 56, 85
3, 106140, Control_c, 1, 64, 127
3, 106159, Note_on_c, 1, 56, 0
3, 106160, Note_on_c, 1, 60, 57
3, 106179, Note_on_c, 1, 60, 0
3, 106180, Note_on_c, 1, 65, 64
3, 106199, Note_on_c, 1, 65, 0
3, 106200, Control_c, 1, 64, 0
3, 106200, Note_on_c, 1, 55, 76
3, 106200, Control_c, 1, 64, 127
3, 106219, Note_on_c, 1, 55, 0
3, 106220, Note_on_c, 1, 59, 60
3, 106239, Note_on_c, 1, 59, 0
3, 106240, Note_on_c, 1, 62, 64
3, 106259, Note_on_c, 1, 62, 0
3, 106260, Note_on_c, 1, 65, 72
3, 106279, Note_on_c, 1, 65, 0
3, 106280, Note_on_c, 1, 62, 72
3, 106299, Note_on_c, 1, 62, 0
3, 106300, Note_on_c, 1, 59, 72
3, 106319, Note_on_c, 1, 59, 0
3, 106320, Control_c, 1, 64, 0
3, 106320, Note_on_c, 1, 55, 76
3, 106320, Control_c, 1, 64, 127
3, 106339, Note_on_c, 1, 55, 0
3, 106340, Note_on_c, 1, 62, 64
3, 106359, Note_on_c, 1, 62, 0
3, 106360, Note_on_c, 1, 65, 64
3, 106379, Note_on_c, 1, 65, 0
3, 106380, Note_on_c, 1, 67, 76
3, 106399, Note_on_c, 1, 67, 0
3, 106400, Note_on_c, 1, 65, 64
3, 106419, Note_on_c, 1, 65, 0
3, 106420, Note_on_c, 1, 62, 72
3, 106439, Note_on_c, 1, 62, 0
3, 106440, Control_c, 1, 64, 0
3, 106440, Note_on_c, 1, 55, 72
3, 106440, Control_c, 1, 64, 127
3, 106459, Note_on_c, 1, 55, 0
3, 106460, Note_on_c, 1, 60, 52
3, 106479, Note_on_c, 1, 60, 0
3, 106480, Note_on_c, 1, 64, 62
3, 106499, Note_on_c, 1, 64, 0
3, 106500, Note_on_c, 1, 55, 60
3, 106500, Control_c, 1, 64, 0
3, 106500, Control_c, 1, 64, 127
3, 106500, Note_on_c, 1, 36, 76
3, 106500, Note_on_c, 1, 48, 76
3, 106502, Control_c, 1, 64, 127
3, 106519, Note_on_c, 1, 55, 0
3, 106520, Note_on_c, 1, 60, 64
3, 106531, Note_on_c, 1, 48, 0
3, 106533, Note_on_c, 1, 36, 0
3, 106539, Note_on_c, 1, 60, 0
3, 106540, Note_on_c, 1, 64, 62
3, 106558, Control_c, 1, 64, 0
3, 106559, Note_on_c, 1, 64, 0
3, 106560, Control_c, 1, 64, 0
3, 106560, Note_on_c, 1, 55, 80
3, 106560, Control_c, 1, 64, 127
3, 106560, Note_on_c, 1, 35, 72
3, 106560, Note_on_c, 1, 47, 72
3, 106572, Control_c, 1, 64, 127
3, 106579, Note_on_c, 1, 55, 0
3, 106580, Note_on_c, 1, 62, 76
3, 106590, Note_on_c, 1, 35, 0
3, 106593, Note_on_c, 1, 47, 0
3, 106599, Note_on_c, 1, 62, 0
3, 106600, Note_on_c, 1, 65, 64
3, 106617, Control_c, 1, 64, 0
3, 106619, Note_on_c, 1, 65, 0
3, 106620, Control_c, 1, 64, 0
3, 106620, Note_on_c, 1, 55, 85
3, 106620, Control_c, 1, 64, 127
3, 106620, Note_on_c, 1, 36, 76
3, 106620, Note_on_c, 1, 48, 76
3, 106629, Control_c, 1, 64, 127
3, 106639, Note_on_c, 1, 55, 0
3, 106640, Note_on_c, 1, 60, 64
3, 106642, Note_on_c, 1, 48, 0
3, 106644, Note_on_c, 1, 36, 0
3, 106659, Note_on_c, 1, 60, 0
3, 106660, Note_on_c, 1, 64, 72
3, 106679, Note_on_c, 1, 64, 0
3, 106679, Control_c, 1, 64, 0
3, 106680, Control_c, 1, 64, 0
3, 106680, Note_on_c, 1, 55, 76
3, 106680, Control_c, 1, 64, 127
3, 106680, Note_on_c, 1, 31, 85
3, 106680, Note_on_c, 1, 43, 72
3, 106698, Control_c, 1, 64, 127
3, 106699, Note_on_c, 1, 55, 0
3, 106700, Note_on_c, 1, 60, 72
3, 106719, Note_on_c, 1, 60, 0
3, 106720, Note_on_c, 1, 64, 68
3, 106739, Note_on_c, 1, 64, 0
3, 106740, Note_on_c, 1, 67, 76
3, 106759, Note_on_c, 1, 67, 0
3, 106760, Note_on_c, 1, 64, 62
3, 106779, Note_on_c, 1, 64, 0
3, 106780, Note_on_c, 1, 60, 62
3, 106799, Note_on_c, 1, 60, 0
3, 106800, Control_c, 1, 64, 0
3, 106800, Note_on_c, 1, 55, 85
3, 106800, Control_c, 1, 64, 127
3, 106819, Note_on_c, 1, 55, 0
3, 106820, Note_on_c, 1, 59, 76
3, 106839, Note_on_c, 1, 59, 0
3, 106840, Note_on_c, 1, 62, 76
3, 106859, Note_on_c, 1, 62, 0
3, 106860, Note_on_c, 1, 67, 76
3, 106862, Note_on_c, 1, 43, 0
3, 106862, Note_on_c, 1, 31, 0
3, 106869, Control_c, 1, 64, 0
3, 106879, Note_on_c, 1, 67, 0
3, 106880, Note_on_c, 1, 62, 68
3, 106899, Note_on_c, 1, 62, 0
3, 106900, Note_on_c, 1, 59, 68
3, 106919, Note_on_c, 1, 59, 0
3, 106920, Control_c, 1, 64, 0
3, 106920, Note_on_c, 1, 59, 98
3, 106920, Control_c, 1, 64, 127
3, 106939, Note_on_c, 1, 59, 0
3, 106940, Note_on_c, 1, 62, 89
3, 106959, Note_on_c, 1, 62, 0
3, 106960, Note_on_c, 1, 67, 89
3, 106979, Note_on_c, 1, 67, 0
3, 106980, Note_on_c, 1, 71, 89
3, 106999, Note_on_c, 1, 71, 0
3, 107000, Note_on_c, 1, 67, 80
3, 107019, Note_on_c, 1, 67, 0
3, 107020, Note_on_c, 1, 62, 89
3, 107039, Note_on_c, 1, 62, 0
3, 107040, Note_on_c, 1, 59, 102
3, 107040, Note_on_c, 1, 43, 93
3, 107040, Note_on_c, 1, 55, 85
3, 107052, Control_c, 1, 64, 127
3, 107059, Note_on_c, 1, 59, 0
3, 107060, Note_on_c, 1, 62, 76
3, 107079, Note_on_c, 1, 62, 0
3, 107080, Note_on_c, 1, 67, 93
3, 107099, Note_on_c, 1, 67, 0
3, 107100, Note_on_c, 1, 71, 89
3, 107112, Note_on_c, 1, 55, 0
3, 107114, Note_on_c, 1, 43, 0
3, 107119, Note_on_c, 1, 71, 0
3, 107120, Note_on_c, 1, 67, 76
3, 107130, Control_c, 1, 64, 0
3, 107139, Note_on_c, 1, 67, 0
3, 107140, Note_on_c, 1, 62, 76
3, 107159, Note_on_c, 1, 62, 0
3, 107160, Control_c, 1, 64, 0
3, 107160, Note_on_c, 1, 60, 93
3, 107160, Control_c, 1, 64, 127
3, 107179, Note_on_c, 1, 60, 0
3, 107180, Note_on_c, 1, 64, 89
3, 107199, Note_on_c, 1, 64, 0
3, 107200, Note_on_c, 1, 67, 89
3, 107219, Note_on_c, 1, 67, 0
3, 107220, Note_on_c, 1, 72, 93
3, 107239, Note_on_c, 1, 72, 0
3, 107240, Note_on_c, 1, 67, 80
3, 107259, Note_on_c, 1, 67, 0
3, 107260, Note_on_c, 1, 64, 76
3, 107279, Note_on_c, 1, 64, 0
3, 107280, Note_on_c, 1, 60, 93
3, 107280, Note_on_c, 1, 40, 89
3, 107280, Note_on_c, 1, 52, 93
3, 107282, Control_c, 1, 64, 127
3, 107299, Note_on_c, 1, 60, 0
3, 107300, Note_on_c, 1, 64, 76
3, 107319, Note_on_c, 1, 64, 0
3, 107320, Note_on_c, 1, 67, 85
3, 107335, Note_on_c, 1, 52, 0
3, 107339, Note_on_c, 1, 67, 0
3, 107340, Note_on_c, 1, 72, 89
3, 107341, Note_on_c, 1, 40, 0
3, 107350, Control_c, 1, 64, 0
3, 107359, Note_on_c, 1, 72, 0
3, 107360, Note_on_c, 1, 67, 64
3, 107379, Note_on_c, 1, 67, 0
3, 107380, Note_on_c, 1, 64, 85
3, 107399, Note_on_c, 1, 64, 0
3, 107400, Control_c, 1, 64, 0
3, 107400, Note_on_c, 1, 62, 102
3, 107400, Control_c, 1, 64, 127
3, 107400, Note_on_c, 1, 35, 93
3, 107400, Note_on_c, 1, 47, 93
3, 107419, Note_on_c, 1, 62, 0
3, 107420, Note_on_c, 1, 65, 76
3, 107427, Note_on_c, 1, 47, 0
3, 107428, Note_on_c, 1, 35, 0
3, 107439, Note_on_c, 1, 65, 0
3, 107440, Note_on_c, 1, 67, 80
3, 107459, Note_on_c, 1, 67, 0
3, 107460, Note_on_c, 1, 74, 93
3, 107479, Note_on_c, 1, 74, 0
3, 107480, Note_on_c, 1, 67, 76
3, 107499, Note_on_c, 1, 67, 0
3, 107500, Note_on_c, 1, 65, 80
3, 107519, Note_on_c, 1, 65, 0
3, 107520, Note_on_c, 1, 60, 107
3, 107520, Note_on_c, 1, 36, 93
3, 107520, Note_on_c, 1, 48, 93
3, 107539, Note_on_c, 1, 60, 0
3, 107540, Note_on_c, 1, 64, 76
3, 107545, Note_on_c, 1, 36, 0
3, 107546, Note_on_c, 1, 48, 0
3, 107559, Note_on_c, 1, 64, 0
3, 107560, Note_on_c, 1, 67, 76
3, 107579, Note_on_c, 1, 67, 0
3, 107580, Note_on_c, 1, 72, 85
3, 107580, Control_c, 1, 64, 0
3, 107580, Control_c, 1, 64, 127
3, 107599, Note_on_c, 1, 72, 0
3, 107600, Note_on_c, 1, 67, 85
3, 107619, Note_on_c, 1, 67, 0
3, 107620, Note_on_c, 1, 64, 85
3, 107639, Note_on_c, 1, 64, 0
3, 107640, Control_c, 1, 64, 0
3, 107640, Note_on_c, 1, 59, 102
3, 107640, Control_c, 1, 64, 127
3, 107640, Note_on_c, 1, 43, 89
3, 107640, Note_on_c, 1, 55, 93
3, 107643, Control_c, 1, 64, 127
3, 107657, Note_on_c, 1, 55, 0
3, 107659, Note_on_c, 1, 59, 0
3, 107660, Note_on_c, 1, 62, 76
3, 107662, Note_on_c, 1, 43, 0
3, 107679, Note_on_c, 1, 62, 0
3, 107680, Note_on_c, 1, 67, 64
3, 107689, Control_c, 1, 64, 0
3, 107699, Note_on_c, 1, 67, 0
3, 107700, Note_on_c, 1, 71, 80
3, 107719, Note_on_c, 1, 71, 0
3, 107720, Note_on_c, 1, 67, 57
3, 107739, Note_on_c, 1, 67, 0
3, 107740, Note_on_c, 1, 62, 68
3, 107759, Note_on_c, 1, 62, 0
3, 107760, Note_on_c, 1, 59, 93
3, 107760, Note_on_c, 1, 31, 102
3, 107760, Note_on_c, 1, 43, 89
3, 107764, Control_c, 1, 64, 127
3, 107773, Note_on_c, 1, 43, 0
3, 107777, Note_on_c, 1, 31, 0
3, 107779, Note_on_c, 1, 59, 0
3, 107780, Note_on_c, 1, 62, 64
3, 107799, Note_on_c, 1, 62, 0
3, 107800, Note_on_c, 1, 67, 68
3, 107819, Note_on_c, 1, 67, 0
3, 107820, Note_on_c, 1, 71, 80
3, 107827, Control_c, 1, 64, 0
3, 107839, Note_on_c, 1, 71, 0
3, 107840, Note_on_c, 1, 67, 85
3, 107859, Note_on_c, 1, 67, 0
3, 107860, Note_on_c, 1, 62, 80
3, 107879, Note_on_c, 1, 62, 0
3, 107880, Control_c, 1, 64, 0
3, 107880, Note_on_c, 1, 59, 102
3, 107880, Control_c, 1, 64, 127
3, 107899, Note_on_c, 1, 59, 0
3, 107900, Note_on_c, 1, 62, 76
3, 107919, Note_on_c, 1, 62, 0
3, 107920, Note_on_c, 1, 67, 76
3, 107939, Note_on_c, 1, 67, 0
3, 107940, Note_on_c, 1, 71, 80
3, 107959, Note_on_c, 1, 71, 0
3, 107960, Note_on_c, 1, 67, 76
3, 107979, Note_on_c, 1, 67, 0
3, 107980, Note_on_c, 1, 62, 76
3, 107999, Note_on_c, 1, 62, 0
3, 108000, Control_c, 1, 64, 0
3, 108000, Note_on_c, 1, 59, 107
3, 108000, Control_c, 1, 64, 127
3, 108000, Note_on_c, 1, 43, 89
3, 108000, Note_on_c, 1, 55, 89
3, 108002, Control_c, 1, 64, 127
3, 108019, Note_on_c, 1, 59, 0
3, 108020, Note_on_c, 1, 62, 72
3, 108039, Note_on_c, 1, 62, 0
3, 108040, Note_on_c, 1, 67, 80
3, 108059, Note_on_c, 1, 67, 0
3, 108060, Note_on_c, 1, 71, 80
3, 108061, Note_on_c, 1, 55, 0
3, 108066, Note_on_c, 1, 43, 0
3, 108079, Note_on_c, 1, 71, 0
3, 108080, Note_on_c, 1, 67, 80
3, 108080, Control_c, 1, 64, 0
3, 108099, Note_on_c, 1, 67, 0
3, 108100, Note_on_c, 1, 62, 89
3, 108119, Note_on_c, 1, 62, 0
3, 108120, Control_c, 1, 64, 0
3, 108120, Note_on_c, 1, 60, 107
3, 108120, Control_c, 1, 64, 127
3, 108139, Note_on_c, 1, 60, 0
3, 108140, Note_on_c, 1, 64, 68
3, 108159, Note_on_c, 1, 64, 0
3, 108160, Note_on_c, 1, 67, 76
3, 108179, Note_on_c, 1, 67, 0
3, 108180, Note_on_c, 1, 72, 76
3, 108199, Note_on_c, 1, 72, 0
3, 108200, Note_on_c, 1, 67, 89
3, 108219, Note_on_c, 1, 67, 0
3, 108220, Note_on_c, 1, 64, 80
3, 108239, Note_on_c, 1, 64, 0
3, 108240, Control_c, 1, 64, 0
3, 108240, Note_on_c, 1, 60, 102
3, 108240, Control_c, 1, 64, 127
3, 108240, Note_on_c, 1, 40, 89
3, 108240, Note_on_c, 1, 52, 93
3, 108242, Control_c, 1, 64, 127
3, 108259, Note_on_c, 1, 60, 0
3, 108260, Note_on_c, 1, 64, 89
3, 108279, Note_on_c, 1, 64, 0
3, 108280, Note_on_c, 1, 67, 76
3, 108299, Note_on_c, 1, 67, 0
3, 108300, Note_on_c, 1, 72, 85
3, 108302, Note_on_c, 1, 52, 0
3, 108308, Note_on_c, 1, 40, 0
3, 108319, Note_on_c, 1, 72, 0
3, 108319, Control_c, 1, 64, 0
3, 108320, Note_on_c, 1, 67, 76
3, 108339, Note_on_c, 1, 67, 0
3, 108340, Note_on_c, 1, 64, 93
3, 108359, Note_on_c, 1, 64, 0
3, 108360, Control_c, 1, 64, 0
3, 108360, Note_on_c, 1, 62, 107
3, 108360, Control_c, 1, 64, 127
3, 108360, Note_on_c, 1, 35, 85
3, 108360, Note_on_c, 1, 47, 85
3, 108379, Note_on_c, 1, 62, 0
3, 108380, Note_on_c, 1, 65, 85
3, 108382, Note_on_c, 1, 47, 0
3, 108383, Note_on_c, 1, 35, 0
3, 108399, Note_on_c, 1, 65, 0
3, 108400, Note_on_c, 1, 67, 89
3, 108419, Note_on_c, 1, 67, 0
3, 108420, Note_on_c, 1, 74, 93
3, 108420, Control_c, 1, 64, 0
3, 108420, Control_c, 1, 64, 127
3, 108439, Note_on_c, 1, 74, 0
3, 108440, Note_on_c, 1, 67, 76
3, 108459, Note_on_c, 1, 67, 0
3, 108460, Note_on_c, 1, 65, 76
3, 108479, Note_on_c, 1, 65, 0
3, 108480, Control_c, 1, 64, 0
3, 108480, Note_on_c, 1, 60, 102
3, 108480, Control_c, 1, 64, 127
3, 108480, Note_on_c, 1, 36, 93
3, 108480, Note_on_c, 1, 48, 93
3, 108498, Note_on_c, 1, 36, 0
3, 108499, Note_on_c, 1, 60, 0
3, 108500, Note_on_c, 1, 48, 0
3, 108500, Note_on_c, 1, 64, 72
3, 108519, Note_on_c, 1, 64, 0
3, 108520, Note_on_c, 1, 67, 89
3, 108539, Note_on_c, 1, 67, 0
3, 108540, Note_on_c, 1, 72, 89
3, 108559, Note_on_c, 1, 72, 0
3, 108560, Note_on_c, 1, 67, 76
3, 108579, Note_on_c, 1, 67, 0
3, 108580, Note_on_c, 1, 64, 85
3, 108599, Note_on_c, 1, 64, 0
3, 108600, Control_c, 1, 64, 0
3, 108600, Note_on_c, 1, 59, 102
3, 108600, Control_c, 1, 64, 127
3, 108600, Note_on_c, 1, 43, 89
3, 108600, Note_on_c, 1, 55, 85
3, 108606, Control_c, 1, 64, 127
3, 108619, Note_on_c, 1, 59, 0
3, 108620, Note_on_c, 1, 62, 80
3, 108639, Note_on_c, 1, 62, 0
3, 108640, Note_on_c, 1, 67, 76
3, 108659, Note_on_c, 1, 67, 0
3, 108660, Note_on_c, 1, 71, 80
3, 108675, Note_on_c, 1, 55, 0
3, 108677, Note_on_c, 1, 43, 0
3, 108679, Note_on_c, 1, 71, 0
3, 108680, Note_on_c, 1, 67, 76
3, 108692, Control_c, 1, 64, 0
3, 108699, Note_on_c, 1, 67, 0
3, 108700, Note_on_c, 1, 62, 72
3, 108719, Note_on_c, 1, 62, 0
3, 108720, Control_c, 1, 64, 0
3, 108720, Note_on_c, 1, 59, 102
3, 108720, Control_c, 1, 64, 127
3, 108739, Note_on_c, 1, 59, 0
3, 108740, Note_on_c, 1, 62, 76
3, 108759, Note_on_c, 1, 62, 0
3, 108760, Note_on_c, 1, 67, 76
3, 108779, Note_on_c, 1, 67, 0
3, 108780, Note_on_c, 1, 71, 80
3, 108799, Note_on_c, 1, 71, 0
3, 108800, Note_on_c, 1, 67, 93
3, 108819, Note_on_c, 1, 67, 0
3, 108820, Note_on_c, 1, 62, 85
3, 108839, Note_on_c, 1, 62, 0
3, 108840, Control_c, 1, 64, 0
3, 108840, Note_on_c, 1, 59, 107
3, 108840, Control_c, 1, 64, 127
3, 108859, Note_on_c, 1, 59, 0
3, 108860, Note_on_c, 1, 62, 85
3, 108879, Note_on_c, 1, 62, 0
3, 108880, Note_on_c, 1, 67, 89
3, 108899, Note_on_c, 1, 67, 0
3, 108900, Note_on_c, 1, 71, 98
3, 108919, Note_on_c, 1, 71, 0
3, 108920, Note_on_c, 1, 74, 85
3, 108939, Note_on_c, 1, 74, 0
3, 108940, Note_on_c, 1, 71, 89
3, 108959, Note_on_c, 1, 71, 0
3, 108960, Control_c, 1, 64, 0
3, 108960, Note_on_c, 1, 72, 93
3, 108960, Control_c, 1, 64, 127
3, 108960, Note_on_c, 1, 38, 89
3, 108960, Note_on_c, 1, 42, 72
3, 108960, Note_on_c, 1, 50, 93
3, 108960, Note_on_c, 1, 45, 93
3, 108965, Control_c, 1, 64, 127
3, 108979, Note_on_c, 1, 72, 0
3, 108980, Note_on_c, 1, 69, 76
3, 108999, Note_on_c, 1, 69, 0
3, 109000, Note_on_c, 1, 66, 76
3, 109018, Note_on_c, 1, 45, 0
3, 109019, Note_on_c, 1, 38, 0
3, 109019, Note_on_c, 1, 66, 0
3, 109019, Note_on_c, 1, 42, 0
3, 109020, Control_c, 1, 64, 0
3, 109020, Note_on_c, 1, 62, 93
3, 109020, Control_c, 1, 64, 127
3, 109022, Note_on_c, 1, 50, 0
3, 109025, Control_c, 1, 64, 0
3, 109039, Note_on_c, 1, 62, 0
3, 109040, Note_on_c, 1, 60, 80
3, 109059, Note_on_c, 1, 60, 0
3, 109060, Note_on_c, 1, 57, 89
3, 109079, Note_on_c, 1, 57, 0
3, 109080, Control_c, 1, 64, 0
3, 109080, Note_on_c, 1, 59, 102
3, 109080, Control_c, 1, 64, 127
3, 109080, Note_on_c, 1, 43, 93
3, 109080, Note_on_c, 1, 55, 93
3, 109080, Note_on_c, 1, 47, 93
3, 109080, Note_on_c, 1, 50, 98
3, 109098, Control_c, 1, 64, 127
3, 109099, Note_on_c, 1, 59, 0
3, 109100, Note_on_c, 1, 62, 85
3, 109119, Note_on_c, 1, 62, 0
3, 109120, Note_on_c, 1, 67, 89
3, 109131, Note_on_c, 1, 47, 0
3, 109132, Note_on_c, 1, 50, 0
3, 109134, Note_on_c, 1, 55, 0
3, 109136, Note_on_c, 1, 43, 0
3, 109139, Note_on_c, 1, 67, 0
3, 109140, Note_on_c, 1, 71, 93
3, 109143, Control_c, 1, 64, 0
3, 109159, Note_on_c, 1, 71, 0
3, 109160, Note_on_c, 1, 67, 68
3, 109179, Note_on_c, 1, 67, 0
3, 109180, Note_on_c, 1, 62, 76
3, 109199, Note_on_c, 1, 62, 0
3, 109200, Control_c, 1, 64, 0
3, 109200, Note_on_c, 1, 59, 107
3, 109200, Control_c, 1, 64, 127
3, 109219, Note_on_c, 1, 59, 0
3, 109220, Note_on_c, 1, 62, 72
3, 109239, Note_on_c, 1, 62, 0
3, 109240, Note_on_c, 1, 67, 80
3, 109259, Note_on_c, 1, 67, 0
3, 109260, Note_on_c, 1, 71, 89
3, 109279, Note_on_c, 1, 71, 0
3, 109280, Note_on_c, 1, 67, 80
3, 109280, Note_on_c, 1, 62, 72
3, 109299, Note_on_c, 1, 62, 0
3, 109299, Note_on_c, 1, 67, 0
3, 109320, Control_c, 1, 64, 0
3, 109320, Note_on_c, 1, 59, 98
3, 109320, Control_c, 1, 64, 127
3, 109339, Note_on_c, 1, 59, 0
3, 109340, Note_on_c, 1, 62, 89
3, 109359, Note_on_c, 1, 62, 0
3, 109360, Note_on_c, 1, 67, 80
3, 109379, Note_on_c, 1, 67, 0
3, 109380, Note_on_c, 1, 71, 107
3, 109399, Note_on_c, 1, 71, 0
3, 109400, Note_on_c, 1, 74, 89
3, 109419, Note_on_c, 1, 74, 0
3, 109420, Note_on_c, 1, 71, 80
3, 109439, Note_on_c, 1, 71, 0
3, 109440, Control_c, 1, 64, 0
3, 109440, Note_on_c, 1, 72, 93
3, 109440, Control_c, 1, 64, 127
3, 109440, Note_on_c, 1, 42, 72
3, 109440, Note_on_c, 1, 38, 93
3, 109440, Note_on_c, 1, 50, 93
3, 109440, Note_on_c, 1, 45, 93
3, 109447, Control_c, 1, 64, 127
3, 109459, Note_on_c, 1, 72, 0
3, 109460, Note_on_c, 1, 69, 93
3, 109479, Note_on_c, 1, 69, 0
3, 109480, Note_on_c, 1, 45, 0
3, 109480, Note_on_c, 1, 50, 0
3, 109480, Note_on_c, 1, 66, 76
3, 109482, Note_on_c, 1, 38, 0
3, 109482, Note_on_c, 1, 42, 0
3, 109499, Note_on_c, 1, 66, 0
3, 109500, Note_on_c, 1, 62, 89
3, 109500, Control_c, 1, 64, 0
3, 109500, Control_c, 1, 64, 127
3, 109509, Control_c, 1, 64, 0
3, 109519, Note_on_c, 1, 62, 0
3, 109520, Note_on_c, 1, 60, 89
3, 109539, Note_on_c, 1, 60, 0
3, 109540, Note_on_c, 1, 57, 89
3, 109559, Note_on_c, 1, 57, 0
3, 109560, Control_c, 1, 64, 0
3, 109560, Note_on_c, 1, 59, 93
3, 109560, Control_c, 1, 64, 127
3, 109560, Note_on_c, 1, 43, 85
3, 109560, Note_on_c, 1, 55, 85
3, 109560, Note_on_c, 1, 47, 93
3, 109560, Note_on_c, 1, 50, 98
3, 109574, Control_c, 1, 64, 127
3, 109579, Note_on_c, 1, 59, 0
3, 109580, Note_on_c, 1, 62, 80
3, 109599, Note_on_c, 1, 62, 0
3, 109600, Note_on_c, 1, 67, 76
3, 109615, Note_on_c, 1, 47, 0
3, 109616, Note_on_c, 1, 50, 0
3, 109617, Note_on_c, 1, 55, 0
3, 109619, Note_on_c, 1, 67, 0
3, 109620, Note_on_c, 1, 43, 0
3, 109620, Note_on_c, 1, 71, 89
3, 109631, Control_c, 1, 64, 0
3, 109639, Note_on_c, 1, 71, 0
3, 109640, Note_on_c, 1, 67, 76
3, 109659, Note_on_c, 1, 67, 0
3, 109660, Note_on_c, 1, 62, 72
3, 109679, Note_on_c, 1, 62, 0
3, 109680, Control_c, 1, 64, 0
3, 109680, Note_on_c, 1, 59, 102
3, 109680, Control_c, 1, 64, 127
3, 109699, Note_on_c, 1, 59, 0
3, 109700, Note_on_c, 1, 62, 85
3, 109719, Note_on_c, 1, 62, 0
3, 109720, Note_on_c, 1, 67, 85
3, 109739, Note_on_c, 1, 67, 0
3, 109740, Note_on_c, 1, 71, 85
3, 109759, Note_on_c, 1, 71, 0
3, 109760, Note_on_c, 1, 67, 76
3, 109779, Note_on_c, 1, 67, 0
3, 109780, Note_on_c, 1, 62, 72
3, 109799, Note_on_c, 1, 62, 0
3, 109800, Control_c, 1, 64, 0
3, 109800, Note_on_c, 1, 59, 107
3, 109800, Control_c, 1, 64, 127
3, 109819, Note_on_c, 1, 59, 0
3, 109820, Note_on_c, 1, 62, 80
3, 109839, Note_on_c, 1, 62, 0
3, 109840, Note_on_c, 1, 67, 80
3, 109859, Note_on_c, 1, 67, 0
3, 109860, Note_on_c, 1, 71, 93
3, 109879, Note_on_c, 1, 71, 0
3, 109880, Note_on_c, 1, 67, 76
3, 109899, Note_on_c, 1, 67, 0
3, 109900, Note_on_c, 1, 62, 62
3, 109919, Note_on_c, 1, 62, 0
3, 109920, Control_c, 1, 64, 0
3, 109920, Note_on_c, 1, 59, 102
3, 109920, Control_c, 1, 64, 127
3, 109939, Note_on_c, 1, 59, 0
3, 109940, Note_on_c, 1, 62, 85
3, 109959, Note_on_c, 1, 62, 0
3, 109960, Note_on_c, 1, 67, 80
3, 109979, Note_on_c, 1, 67, 0
3, 109980, Note_on_c, 1, 71, 89
3, 109999, Note_on_c, 1, 71, 0
3, 110000, Note_on_c, 1, 67, 76
3, 110019, Note_on_c, 1, 67, 0
3, 110020, Note_on_c, 1, 62, 72
3, 110039, Note_on_c, 1, 62, 0
3, 110040, Control_c, 1, 64, 0
3, 110040, Note_on_c, 1, 59, 107
3, 110040, Control_c, 1, 64, 127
3, 110059, Note_on_c, 1, 59, 0
3, 110060, Note_on_c, 1, 62, 80
3, 110079, Note_on_c, 1, 62, 0
3, 110080, Note_on_c, 1, 67, 89
3, 110099, Note_on_c, 1, 67, 0
3, 110100, Note_on_c, 1, 71, 80
3, 110119, Note_on_c, 1, 71, 0
3, 110120, Note_on_c, 1, 67, 76
3, 110139, Note_on_c, 1, 67, 0
3, 110140, Note_on_c, 1, 62, 85
3, 110159, Note_on_c, 1, 62, 0
3, 110160, Control_c, 1, 64, 0
3, 110160, Note_on_c, 1, 59, 102
3, 110160, Control_c, 1, 64, 127
3, 110160, Note_on_c, 1, 41, 93
3, 110160, Note_on_c, 1, 53, 93
3, 110174, Control_c, 1, 64, 127
3, 110179, Note_on_c, 1, 59, 0
3, 110180, Note_on_c, 1, 62, 89
3, 110199, Note_on_c, 1, 62, 0
3, 110200, Note_on_c, 1, 67, 80
3, 110205, Note_on_c, 1, 53, 0
3, 110208, Note_on_c, 1, 41, 0
3, 110219, Note_on_c, 1, 67, 0
3, 110219, Control_c, 1, 64, 0
3, 110220, Note_on_c, 1, 71, 80
3, 110239, Note_on_c, 1, 71, 0
3, 110240, Note_on_c, 1, 67, 80
3, 110259, Note_on_c, 1, 67, 0
3, 110260, Note_on_c, 1, 62, 64
3, 110279, Note_on_c, 1, 62, 0
3, 110280, Control_c, 1, 64, 0
3, 110280, Note_on_c, 1, 59, 102
3, 110280, Control_c, 1, 64, 127
3, 110280, Note_on_c, 1, 38, 98
3, 110280, Note_on_c, 1, 50, 98
3, 110284, Control_c, 1, 64, 127
3, 110299, Note_on_c, 1, 59, 0
3, 110300, Note_on_c, 1, 62, 80
3, 110319, Note_on_c, 1, 62, 0
3, 110320, Note_on_c, 1, 67, 80
3, 110325, Note_on_c, 1, 50, 0
3, 110329, Note_on_c, 1, 38, 0
3, 110339, Note_on_c, 1, 67, 0
3, 110340, Note_on_c, 1, 71, 76
3, 110350, Control_c, 1, 64, 0
3, 110359, Note_on_c, 1, 71, 0
3, 110360, Note_on_c, 1, 67, 76
3, 110379, Note_on_c, 1, 67, 0
3, 110380, Note_on_c, 1, 62, 76
3, 110399, Note_on_c, 1, 62, 0
3, 110400, Control_c, 1, 64, 0
3, 110400, Note_on_c, 1, 59, 102
3, 110400, Control_c, 1, 64, 127
3, 110400, Note_on_c, 1, 35, 89
3, 110400, Note_on_c, 1, 47, 93
3, 110407, Control_c, 1, 64, 127
3, 110419, Note_on_c, 1, 59, 0
3, 110420, Note_on_c, 1, 62, 85
3, 110432, Note_on_c, 1, 47, 0
3, 110434, Note_on_c, 1, 35, 0
3, 110439, Note_on_c, 1, 62, 0
3, 110440, Note_on_c, 1, 67, 72
3, 110459, Note_on_c, 1, 67, 0
3, 110460, Note_on_c, 1, 71, 89
3, 110474, Control_c, 1, 64, 0
3, 110479, Note_on_c, 1, 71, 0
3, 110480, Note_on_c, 1, 67, 76
3, 110499, Note_on_c, 1, 67, 0
3, 110500, Note_on_c, 1, 62, 80
3, 110519, Note_on_c, 1, 62, 0
3, 110520, Note_on_c, 1, 59, 98
3, 110520, Control_c, 1, 64, 0
3, 110520, Control_c, 1, 64, 127
3, 110520, Note_on_c, 1, 31, 98
3, 110520, Note_on_c, 1, 43, 93
3, 110525, Control_c, 1, 64, 127
3, 110539, Note_on_c, 1, 59, 0
3, 110540, Note_on_c, 1, 62, 76
3, 110559, Note_on_c, 1, 62, 0
3, 110560, Note_on_c, 1, 67, 85
3, 110570, Note_on_c, 1, 43, 0
3, 110572, Note_on_c, 1, 31, 0
3, 110579, Note_on_c, 1, 67, 0
3, 110580, Control_c, 1, 64, 0
3, 110580, Note_on_c, 1, 58, 102
3, 110580, Control_c, 1, 64, 127
3, 110594, Control_c, 1, 64, 0
3, 110599, Note_on_c, 1, 58, 0
3, 110600, Note_on_c, 1, 61, 72
3, 110619, Note_on_c, 1, 61, 0
3, 110620, Note_on_c, 1, 67, 93
3, 110639, Note_on_c, 1, 67, 0
3, 110640, Control_c, 1, 64, 0
3, 110640, Note_on_c, 1, 59, 102
3, 110640, Control_c, 1, 64, 127
3, 110659, Note_on_c, 1, 59, 0
3, 110660, Note_on_c, 1, 62, 76
3, 110679, Note_on_c, 1, 62, 0
3, 110680, Note_on_c, 1, 67, 93
3, 110699, Note_on_c, 1, 67, 0
3, 110700, Control_c, 1, 64, 0
3, 110700, Note_on_c, 1, 61, 102
3, 110700, Control_c, 1, 64, 127
3, 110719, Note_on_c, 1, 61, 0
3, 110720, Note_on_c, 1, 64, 80
3, 110739, Note_on_c, 1, 64, 0
3, 110740, Note_on_c, 1, 67, 85
3, 110759, Note_on_c, 1, 67, 0
3, 110760, Control_c, 1, 64, 0
3, 110760, Note_on_c, 1, 62, 93
3, 110760, Control_c, 1, 64, 127
3, 110779, Note_on_c, 1, 62, 0
3, 110780, Note_on_c, 1, 65, 76
3, 110799, Note_on_c, 1, 65, 0
3, 110800, Note_on_c, 1, 67, 76
3, 110819, Note_on_c, 1, 67, 0
3, 110820, Control_c, 1, 64, 0
3, 110820, Note_on_c, 1, 61, 102
3, 110820, Control_c, 1, 64, 127
3, 110839, Note_on_c, 1, 61, 0
3, 110840, Note_on_c, 1, 64, 80
3, 110859, Note_on_c, 1, 64, 0
3, 110860, Note_on_c, 1, 67, 80
3, 110879, Note_on_c, 1, 67, 0
3, 110880, Control_c, 1, 64, 0
3, 110880, Note_on_c, 1, 62, 102
3, 110880, Control_c, 1, 64, 127
3, 110899, Note_on_c, 1, 62, 0
3, 110900, Note_on_c, 1, 65, 76
3, 110919, Note_on_c, 1, 65, 0
3, 110920, Note_on_c, 1, 67, 80
3, 110939, Note_on_c, 1, 67, 0
3, 110940, Control_c, 1, 64, 0
3, 110940, Note_on_c, 1, 61, 102
3, 110940, Control_c, 1, 64, 127
3, 110959, Note_on_c, 1, 61, 0
3, 110960, Note_on_c, 1, 64, 89
3, 110979, Note_on_c, 1, 64, 0
3, 110980, Note_on_c, 1, 67, 89
3, 110999, Note_on_c, 1, 67, 0
3, 111000, Note_on_c, 1, 67, 85
3, 111000, Note_on_c, 1, 65, 89
3, 111000, Note_on_c, 1, 62, 89
3, 111165, Note_on_c, 1, 65, 0
3, 111173, Note_on_c, 1, 62, 0
3, 111180, Note_on_c, 1, 64, 76
3, 111180, Note_on_c, 1, 60, 85
3, 111230, Note_on_c, 1, 67, 0
3, 111234, Note_on_c, 1, 60, 0
3, 111238, Note_on_c, 1, 64, 0
3, 111240, Note_on_c, 1, 67, 60
3, 111240, Note_on_c, 1, 62, 89
3, 111240, Note_on_c, 1, 59, 76
3, 111299, Note_on_c, 1, 59, 0
3, 111300, Note_on_c, 1, 62, 0
3, 111300, Note_on_c, 1, 67, 0
3, 111360, Note_on_c, 1, 67, 80
3, 111360, Note_on_c, 1, 59, 76
3, 111360, Note_on_c, 1, 62, 85
3, 111423, Note_on_c, 1, 62, 0
3, 111424, Note_on_c, 1, 59, 0
3, 111426, Note_on_c, 1, 67, 0
3, 111480, Note_on_c, 1, 67, 85
3, 111480, Note_on_c, 1, 59, 85
3, 111480, Note_on_c, 1, 62, 89
3, 111552, Note_on_c, 1, 59, 0
3, 111553, Note_on_c, 1, 62, 0
3, 111554, Note_on_c, 1, 67, 0
3, 111960, Control_c, 1, 64, 127
3, 111960, Note_on_c, 1, 55, 68
3, 111979, Note_on_c, 1, 55, 0
3, 111980, Note_on_c, 1, 60, 72
3, 111999, Note_on_c, 1, 60, 0
3, 112000, Note_on_c, 1, 64, 72
3, 112019, Note_on_c, 1, 64, 0
3, 112020, Note_on_c, 1, 67, 57
3, 112039, Note_on_c, 1, 67, 0
3, 112040, Note_on_c, 1, 64, 76
3, 112059, Note_on_c, 1, 64, 0
3, 112060, Note_on_c, 1, 60, 62
3, 112079, Note_on_c, 1, 60, 0
3, 112080, Note_on_c, 1, 55, 64
3, 112099, Note_on_c, 1, 55, 0
3, 112100, Note_on_c, 1, 60, 60
3, 112119, Note_on_c, 1, 60, 0
3, 112120, Note_on_c, 1, 64, 62
3, 112139, Note_on_c, 1, 64, 0
3, 112140, Note_on_c, 1, 67, 62
3, 112159, Note_on_c, 1, 67, 0
3, 112160, Note_on_c, 1, 64, 72
3, 112179, Note_on_c, 1, 64, 0
3, 112180, Note_on_c, 1, 60, 76
3, 112199, Note_on_c, 1, 60, 0
3, 112200, Control_c, 1, 64, 0
3, 112200, Note_on_c, 1, 55, 102
3, 112200, Control_c, 1, 64, 127
3, 112200, Note_on_c, 1, 36, 85
3, 112200, Note_on_c, 1, 48, 85
3, 112219, Note_on_c, 1, 55, 0
3, 112220, Note_on_c, 1, 60, 89
3, 112229, Control_c, 1, 64, 127
3, 112239, Note_on_c, 1, 60, 0
3, 112240, Note_on_c, 1, 64, 80
3, 112259, Note_on_c, 1, 64, 0
3, 112260, Note_on_c, 1, 67, 98
3, 112279, Note_on_c, 1, 67, 0
3, 112280, Note_on_c, 1, 64, 76
3, 112299, Note_on_c, 1, 64, 0
3, 112300, Note_on_c, 1, 60, 89
3, 112319, Note_on_c, 1, 60, 0
3, 112320, Note_on_c, 1, 55, 93
3, 112339, Note_on_c, 1, 55, 0
3, 112340, Note_on_c, 1, 60, 93
3, 112359, Note_on_c, 1, 60, 0
3, 112360, Note_on_c, 1, 64, 89
3, 112379, Note_on_c, 1, 64, 0
3, 112380, Note_on_c, 1, 67, 85
3, 112399, Note_on_c, 1, 67, 0
3, 112400, Note_on_c, 1, 64, 80
3, 112419, Note_on_c, 1, 64, 0
3, 112420, Note_on_c, 1, 60, 76
3, 112439, Note_on_c, 1, 60, 0
3, 112440, Note_on_c, 1, 48, 0
3, 112440, Control_c, 1, 64, 0
3, 112440, Note_on_c, 1, 55, 72
3, 112440, Control_c, 1, 64, 127
3, 112444, Note_on_c, 1, 36, 0
3, 112450, Control_c, 1, 64, 0
3, 112459, Note_on_c, 1, 55, 0
3, 112460, Note_on_c, 1, 62, 57
3, 112479, Note_on_c, 1, 62, 0
3, 112480, Note_on_c, 1, 65, 72
3, 112499, Note_on_c, 1, 65, 0
3, 112500, Note_on_c, 1, 67, 62
3, 112519, Note_on_c, 1, 67, 0
3, 112520, Note_on_c, 1, 65, 64
3, 112539, Note_on_c, 1, 65, 0
3, 112540, Note_on_c, 1, 62, 62
3, 112559, Note_on_c, 1, 62, 0
3, 112560, Note_on_c, 1, 55, 72
3, 112579, Note_on_c, 1, 55, 0
3, 112580, Note_on_c, 1, 62, 64
3, 112599, Note_on_c, 1, 62, 0
3, 112600, Note_on_c, 1, 65, 72
3, 112619, Note_on_c, 1, 65, 0
3, 112620, Note_on_c, 1, 67, 64
3, 112639, Note_on_c, 1, 67, 0
3, 112640, Note_on_c, 1, 65, 64
3, 112659, Note_on_c, 1, 65, 0
3, 112660, Note_on_c, 1, 62, 76
3, 112679, Note_on_c, 1, 62, 0
3, 112680, Control_c, 1, 64, 0
3, 112680, Note_on_c, 1, 55, 98
3, 112680, Control_c, 1, 64, 127
3, 112680, Note_on_c, 1, 35, 80
3, 112680, Note_on_c, 1, 47, 76
3, 112699, Note_on_c, 1, 55, 0
3, 112700, Note_on_c, 1, 62, 93
3, 112719, Note_on_c, 1, 62, 0
3, 112720, Note_on_c, 1, 65, 93
3, 112722, Control_c, 1, 64, 127
3, 112739, Note_on_c, 1, 65, 0
3, 112740, Note_on_c, 1, 67, 93
3, 112759, Note_on_c, 1, 67, 0
3, 112760, Note_on_c, 1, 65, 80
3, 112779, Note_on_c, 1, 65, 0
3, 112780, Note_on_c, 1, 62, 89
3, 112799, Note_on_c, 1, 62, 0
3, 112800, Control_c, 1, 64, 0
3, 112800, Note_on_c, 1, 55, 93
3, 112800, Control_c, 1, 64, 127
3, 112819, Note_on_c, 1, 55, 0
3, 112820, Note_on_c, 1, 62, 89
3, 112839, Note_on_c, 1, 62, 0
3, 112840, Note_on_c, 1, 65, 85
3, 112859, Note_on_c, 1, 65, 0
3, 112860, Note_on_c, 1, 67, 89
3, 112872, Note_on_c, 1, 47, 0
3, 112874, Note_on_c, 1, 35, 0
3, 112879, Note_on_c, 1, 67, 0
3, 112880, Note_on_c, 1, 65, 80
3, 112899, Note_on_c, 1, 65, 0
3, 112900, Note_on_c, 1, 62, 76
3, 112919, Note_on_c, 1, 62, 0
3, 112920, Note_on_c, 1, 55, 90
3, 112920, Control_c, 1, 64, 0
3, 112920, Control_c, 1, 64, 127
3, 112923, Control_c, 1, 64, 0
3, 112939, Note_on_c, 1, 55, 0
3, 112940, Note_on_c, 1, 60, 72
3, 112959, Note_on_c, 1, 60, 0
3, 112960, Note_on_c, 1, 64, 72
3, 112979, Note_on_c, 1, 64, 0
3, 112980, Control_c, 1, 64, 0
3, 112980, Note_on_c, 1, 58, 93
3, 112980, Control_c, 1, 64, 127
3, 112999, Note_on_c, 1, 58, 0
3, 113000, Note_on_c, 1, 60, 51
3, 113019, Note_on_c, 1, 60, 0
3, 113020, Note_on_c, 1, 67, 72
3, 113039, Note_on_c, 1, 67, 0
3, 113040, Control_c, 1, 64, 0
3, 113040, Note_on_c, 1, 57, 93
3, 113040, Control_c, 1, 64, 127
3, 113059, Note_on_c, 1, 57, 0
3, 113060, Note_on_c, 1, 60, 60
3, 113079, Note_on_c, 1, 60, 0
3, 113080, Note_on_c, 1, 65, 64
3, 113099, Note_on_c, 1, 65, 0
3, 113100, Control_c, 1, 64, 0
3, 113100, Note_on_c, 1, 56, 98
3, 113100, Control_c, 1, 64, 127
3, 113119, Note_on_c, 1, 56, 0
3, 113120, Note_on_c, 1, 60, 62
3, 113139, Note_on_c, 1, 60, 0
3, 113140, Note_on_c, 1, 65, 68
3, 113159, Note_on_c, 1, 65, 0
3, 113160, Control_c, 1, 64, 0
3, 113160, Note_on_c, 1, 55, 93
3, 113160, Control_c, 1, 64, 127
3, 113179, Note_on_c, 1, 55, 0
3, 113180, Note_on_c, 1, 59, 64
3, 113199, Note_on_c, 1, 59, 0
3, 113200, Note_on_c, 1, 62, 76
3, 113219, Note_on_c, 1, 62, 0
3, 113220, Note_on_c, 1, 65, 64
3, 113239, Note_on_c, 1, 65, 0
3, 113240, Note_on_c, 1, 62, 62
3, 113259, Note_on_c, 1, 62, 0
3, 113260, Note_on_c, 1, 59, 62
3, 113279, Note_on_c, 1, 59, 0
3, 113280, Control_c, 1, 64, 0
3, 113280, Note_on_c, 1, 55, 89
3, 113280, Control_c, 1, 64, 127
3, 113299, Note_on_c, 1, 55, 0
3, 113300, Note_on_c, 1, 62, 62
3, 113319, Note_on_c, 1, 62, 0
3, 113320, Note_on_c, 1, 65, 76
3, 113339, Note_on_c, 1, 65, 0
3, 113340, Note_on_c, 1, 67, 72
3, 113359, Note_on_c, 1, 67, 0
3, 113360, Note_on_c, 1, 65, 62
3, 113379, Note_on_c, 1, 65, 0
3, 113380, Note_on_c, 1, 62, 72
3, 113399, Note_on_c, 1, 62, 0
3, 113400, Control_c, 1, 64, 0
3, 113400, Note_on_c, 1, 55, 98
3, 113400, Control_c, 1, 64, 127
3, 113419, Note_on_c, 1, 55, 0
3, 113420, Note_on_c, 1, 60, 72
3, 113439, Note_on_c, 1, 60, 0
3, 113440, Note_on_c, 1, 64, 76
3, 113459, Note_on_c, 1, 64, 0
3, 113460, Control_c, 1, 64, 0
3, 113460, Note_on_c, 1, 58, 98
3, 113460, Control_c, 1, 64, 127
3, 113479, Note_on_c, 1, 58, 0
3, 113480, Note_on_c, 1, 60, 68
3, 113499, Note_on_c, 1, 60, 0
3, 113500, Note_on_c, 1, 67, 76
3, 113519, Note_on_c, 1, 67, 0
3, 113520, Control_c, 1, 64, 0
3, 113520, Note_on_c, 1, 57, 98
3, 113520, Control_c, 1, 64, 127
3, 113539, Note_on_c, 1, 57, 0
3, 113540, Note_on_c, 1, 60, 60
3, 113559, Note_on_c, 1, 60, 0
3, 113560, Note_on_c, 1, 65, 60
3, 113579, Note_on_c, 1, 65, 0
3, 113580, Control_c, 1, 64, 0
3, 113580, Note_on_c, 1, 56, 102
3, 113580, Control_c, 1, 64, 127
3, 113599, Note_on_c, 1, 56, 0
3, 113600, Note_on_c, 1, 60, 68
3, 113619, Note_on_c, 1, 60, 0
3, 113620, Note_on_c, 1, 65, 64
3, 113639, Note_on_c, 1, 65, 0
3, 113640, Control_c, 1, 64, 0
3, 113640, Note_on_c, 1, 55, 93
3, 113640, Control_c, 1, 64, 127
3, 113659, Note_on_c, 1, 55, 0
3, 113660, Note_on_c, 1, 59, 72
3, 113679, Note_on_c, 1, 59, 0
3, 113680, Note_on_c, 1, 62, 64
3, 113699, Note_on_c, 1, 62, 0
3, 113700, Note_on_c, 1, 65, 72
3, 113719, Note_on_c, 1, 65, 0
3, 113720, Note_on_c, 1, 62, 53
3, 113739, Note_on_c, 1, 62, 0
3, 113740, Note_on_c, 1, 59, 60
3, 113759, Note_on_c, 1, 59, 0
3, 113760, Control_c, 1, 64, 0
3, 113760, Note_on_c, 1, 55, 89
3, 113760, Control_c, 1, 64, 127
3, 113779, Note_on_c, 1, 55, 0
3, 113780, Note_on_c, 1, 62, 76
3, 113799, Note_on_c, 1, 62, 0
3, 113800, Note_on_c, 1, 65, 72
3, 113819, Note_on_c, 1, 65, 0
3, 113820, Note_on_c, 1, 67, 80
3, 113839, Note_on_c, 1, 67, 0
3, 113840, Note_on_c, 1, 65, 72
3, 113859, Note_on_c, 1, 65, 0
3, 113860, Note_on_c, 1, 62, 72
3, 113879, Note_on_c, 1, 62, 0
3, 113880, Control_c, 1, 64, 0
3, 113880, Note_on_c, 1, 60, 93
3, 113880, Control_c, 1, 64, 127
3, 113899, Note_on_c, 1, 60, 0
3, 113900, Note_on_c, 1, 64, 47
3, 113919, Note_on_c, 1, 64, 0
3, 113920, Note_on_c, 1, 67, 76
3, 113939, Note_on_c, 1, 67, 0
3, 113940, Note_on_c, 1, 52, 102
3, 113940, Control_c, 1, 64, 0
3, 113940, Control_c, 1, 64, 127
3, 113959, Note_on_c, 1, 52, 0
3, 113960, Note_on_c, 1, 55, 68
3, 113979, Note_on_c, 1, 55, 0
3, 113980, Note_on_c, 1, 60, 76
3, 113999, Note_on_c, 1, 60, 0
3, 114000, Note_on_c, 1, 53, 85
3, 114000, Control_c, 1, 64, 0
3, 114000, Control_c, 1, 64, 127
3, 114019, Note_on_c, 1, 53, 0
3, 114020, Note_on_c, 1, 57, 76
3, 114039, Note_on_c, 1, 57, 0
3, 114040, Note_on_c, 1, 62, 64
3, 114059, Note_on_c, 1, 62, 0
3, 114060, Control_c, 1, 64, 0
3, 114060, Note_on_c, 1, 55, 93
3, 114060, Control_c, 1, 64, 127
3, 114060, Note_on_c, 1, 43, 89
3, 114079, Note_on_c, 1, 55, 0
3, 114080, Note_on_c, 1, 59, 64
3, 114099, Note_on_c, 1, 59, 0
3, 114100, Note_on_c, 1, 65, 80
3, 114119, Note_on_c, 1, 65, 0
3, 114120, Control_c, 1, 64, 0
3, 114120, Note_on_c, 1, 65, 85
3, 114120, Note_on_c, 1, 55, 80
3, 114120, Note_on_c, 1, 48, 72
3, 114120, Note_on_c, 1, 59, 85
3, 114121, Note_on_c, 1, 43, 0
3, 114172, Control_c, 1, 64, 127
3, 114180, Note_on_c, 1, 43, 72
3, 114182, Note_on_c, 1, 48, 0
3, 114221, Note_on_c, 1, 59, 0
3, 114233, Note_on_c, 1, 65, 0
3, 114240, Note_on_c, 1, 36, 68
3, 114240, Note_on_c, 1, 60, 68
3, 114240, Note_on_c, 1, 64, 64
3, 114242, Note_on_c, 1, 43, 0
3, 114246, Control_c, 1, 64, 0
3, 114272, Control_c, 1, 64, 127
3, 114301, Note_on_c, 1, 64, 0
3, 114302, Note_on_c, 1, 60, 0
3, 114303, Note_on_c, 1, 36, 0
3, 114307, Note_on_c, 1, 55, 0
3, 114312, Control_c, 1, 64, 0
3, 114360, Control_c, 1, 64, 127
3, 114360, Note_on_c, 1, 55, 72
3, 114379, Note_on_c, 1, 55, 0
3, 114380, Note_on_c, 1, 60, 72
3, 114399, Note_on_c, 1, 60, 0
3, 114400, Note_on_c, 1, 64, 76
3, 114419, Note_on_c, 1, 64, 0
3, 114420, Note_on_c, 1, 67, 64
3, 114439, Note_on_c, 1, 67, 0
3, 114440, Note_on_c, 1, 64, 76
3, 114459, Note_on_c, 1, 64, 0
3, 114460, Note_on_c, 1, 60, 72
3, 114479, Note_on_c, 1, 60, 0
3, 114480, Note_on_c, 1, 55, 80
3, 114499, Note_on_c, 1, 55, 0
3, 114500, Note_on_c, 1, 60, 68
3, 114519, Note_on_c, 1, 60, 0
3, 114520, Note_on_c, 1, 64, 72
3, 114539, Note_on_c, 1, 64, 0
3, 114540, Note_on_c, 1, 67, 62
3, 114559, Note_on_c, 1, 67, 0
3, 114560, Note_on_c, 1, 64, 60
3, 114579, Note_on_c, 1, 64, 0
3, 114580, Note_on_c, 1, 60, 59
3, 114599, Note_on_c, 1, 60, 0
3, 114600, Control_c, 1, 64, 0
3, 114600, Note_on_c, 1, 55, 98
3, 114600, Control_c, 1, 64, 127
3, 114600, Note_on_c, 1, 36, 89
3, 114600, Note_on_c, 1, 48, 93
3, 114619, Note_on_c, 1, 55, 0
3, 114620, Note_on_c, 1, 60, 89
3, 114621, Control_c, 1, 64, 127
3, 114639, Note_on_c, 1, 60, 0
3, 114640, Note_on_c, 1, 64, 85
3, 114659, Note_on_c, 1, 64, 0
3, 114660, Note_on_c, 1, 67, 93
3, 114679, Note_on_c, 1, 67, 0
3, 114680, Note_on_c, 1, 64, 93
3, 114699, Note_on_c, 1, 64, 0
3, 114700, Note_on_c, 1, 60, 89
3, 114719, Note_on_c, 1, 60, 0
3, 114720, Note_on_c, 1, 55, 89
3, 114739, Note_on_c, 1, 55, 0
3, 114740, Note_on_c, 1, 60, 80
3, 114759, Note_on_c, 1, 60, 0
3, 114760, Note_on_c, 1, 64, 89
3, 114779, Note_on_c, 1, 64, 0
3, 114780, Note_on_c, 1, 67, 93
3, 114799, Note_on_c, 1, 67, 0
3, 114800, Note_on_c, 1, 64, 80
3, 114816, Note_on_c, 1, 48, 0
3, 114817, Note_on_c, 1, 36, 0
3, 114819, Note_on_c, 1, 64, 0
3, 114820, Note_on_c, 1, 60, 85
3, 114839, Note_on_c, 1, 60, 0
3, 114840, Control_c, 1, 64, 0
3, 114840, Note_on_c, 1, 55, 72
3, 114840, Control_c, 1, 64, 127
3, 114851, Control_c, 1, 64, 0
3, 114859, Note_on_c, 1, 55, 0
3, 114860, Note_on_c, 1, 62, 76
3, 114879, Note_on_c, 1, 62, 0
3, 114880, Note_on_c, 1, 65, 80
3, 114899, Note_on_c, 1, 65, 0
3, 114900, Note_on_c, 1, 67, 64
3, 114919, Note_on_c, 1, 67, 0
3, 114920, Note_on_c, 1, 65, 62
3, 114939, Note_on_c, 1, 65, 0
3, 114940, Note_on_c, 1, 62, 60
3, 114959, Note_on_c, 1, 62, 0
3, 114960, Control_c, 1, 64, 0
3, 114960, Note_on_c, 1, 55, 76
3, 114960, Control_c, 1, 64, 127
3, 114979, Note_on_c, 1, 55, 0
3, 114980, Note_on_c, 1, 62, 72
3, 114999, Note_on_c, 1, 62, 0
3, 115000, Note_on_c, 1, 65, 76
3, 115019, Note_on_c, 1, 65, 0
3, 115020, Note_on_c, 1, 67, 60
3, 115039, Note_on_c, 1, 67, 0
3, 115040, Note_on_c, 1, 65, 64
3, 115059, Note_on_c, 1, 65, 0
3, 115060, Note_on_c, 1, 62, 76
3, 115079, Note_on_c, 1, 62, 0
3, 115080, Control_c, 1, 64, 0
3, 115080, Note_on_c, 1, 55, 93
3, 115080, Control_c, 1, 64, 127
3, 115080, Note_on_c, 1, 35, 80
3, 115080, Note_on_c, 1, 47, 80
3, 115099, Note_on_c, 1, 55, 0
3, 115099, Note_on_c, 1, 62, 98
3, 115100, Control_c, 1, 64, 127
3, 115118, Note_on_c, 1, 62, 0
3, 115119, Note_on_c, 1, 65, 89
3, 115138, Note_on_c, 1, 65, 0
3, 115140, Note_on_c, 1, 67, 98
3, 115159, Note_on_c, 1, 67, 0
3, 115160, Note_on_c, 1, 65, 89
3, 115179, Note_on_c, 1, 65, 0
3, 115180, Note_on_c, 1, 62, 89
3, 115199, Note_on_c, 1, 62, 0
3, 115200, Control_c, 1, 64, 0
3, 115200, Note_on_c, 1, 55, 93
3, 115200, Control_c, 1, 64, 127
3, 115219, Note_on_c, 1, 55, 0
3, 115220, Note_on_c, 1, 62, 93
3, 115239, Note_on_c, 1, 62, 0
3, 115240, Note_on_c, 1, 65, 80
3, 115259, Note_on_c, 1, 65, 0
3, 115260, Note_on_c, 1, 67, 89
3, 115279, Note_on_c, 1, 67, 0
3, 115279, Note_on_c, 1, 47, 0
3, 115280, Note_on_c, 1, 65, 76
3, 115281, Note_on_c, 1, 35, 0
3, 115299, Note_on_c, 1, 65, 0
3, 115300, Note_on_c, 1, 62, 89
3, 115319, Note_on_c, 1, 62, 0
3, 115320, Control_c, 1, 64, 0
3, 115320, Note_on_c, 1, 55, 89
3, 115320, Control_c, 1, 64, 127
3, 115336, Control_c, 1, 64, 0
3, 115339, Note_on_c, 1, 55, 0
3, 115340, Note_on_c, 1, 60, 76
3, 115359, Note_on_c, 1, 60, 0
3, 115360, Note_on_c, 1, 64, 64
3, 115379, Note_on_c, 1, 64, 0
3, 115380, Note_on_c, 1, 58, 68
3, 115380, Control_c, 1, 64, 0
3, 115380, Control_c, 1, 64, 127
3, 115399, Note_on_c, 1, 58, 0
3, 115400, Note_on_c, 1, 60, 72
3, 115419, Note_on_c, 1, 60, 0
3, 115420, Note_on_c, 1, 67, 72
3, 115439, Note_on_c, 1, 67, 0
3, 115440, Control_c, 1, 64, 0
3, 115440, Note_on_c, 1, 57, 93
3, 115440, Control_c, 1, 64, 127
3, 115459, Note_on_c, 1, 57, 0
3, 115460, Note_on_c, 1, 60, 64
3, 115479, Note_on_c, 1, 60, 0
3, 115480, Note_on_c, 1, 65, 55
3, 115499, Note_on_c, 1, 65, 0
3, 115500, Control_c, 1, 64, 0
3, 115500, Note_on_c, 1, 56, 93
3, 115500, Control_c, 1, 64, 127
3, 115519, Note_on_c, 1, 56, 0
3, 115520, Note_on_c, 1, 60, 57
3, 115539, Note_on_c, 1, 60, 0
3, 115540, Note_on_c, 1, 65, 72
3, 115559, Note_on_c, 1, 65, 0
3, 115560, Control_c, 1, 64, 0
3, 115560, Note_on_c, 1, 55, 89
3, 115560, Control_c, 1, 64, 127
3, 115579, Note_on_c, 1, 55, 0
3, 115580, Note_on_c, 1, 59, 85
3, 115599, Note_on_c, 1, 59, 0
3, 115600, Note_on_c, 1, 62, 76
3, 115619, Note_on_c, 1, 62, 0
3, 115620, Note_on_c, 1, 65, 76
3, 115639, Note_on_c, 1, 65, 0
3, 115640, Note_on_c, 1, 62, 72
3, 115659, Note_on_c, 1, 62, 0
3, 115660, Note_on_c, 1, 59, 76
3, 115679, Note_on_c, 1, 59, 0
3, 115680, Control_c, 1, 64, 0
3, 115680, Note_on_c, 1, 55, 80
3, 115680, Control_c, 1, 64, 127
3, 115699, Note_on_c, 1, 55, 0
3, 115700, Note_on_c, 1, 62, 76
3, 115719, Note_on_c, 1, 62, 0
3, 115720, Note_on_c, 1, 65, 68
3, 115739, Note_on_c, 1, 65, 0
3, 115740, Note_on_c, 1, 67, 76
3, 115759, Note_on_c, 1, 67, 0
3, 115760, Note_on_c, 1, 65, 59
3, 115779, Note_on_c, 1, 65, 0
3, 115780, Note_on_c, 1, 62, 72
3, 115799, Note_on_c, 1, 62, 0
3, 115800, Control_c, 1, 64, 0
3, 115800, Note_on_c, 1, 55, 93
3, 115800, Control_c, 1, 64, 127
3, 115819, Note_on_c, 1, 55, 0
3, 115820, Note_on_c, 1, 60, 72
3, 115839, Note_on_c, 1, 60, 0
3, 115840, Note_on_c, 1, 64, 72
3, 115859, Note_on_c, 1, 64, 0
3, 115860, Control_c, 1, 64, 0
3, 115860, Note_on_c, 1, 58, 93
3, 115860, Control_c, 1, 64, 127
3, 115879, Note_on_c, 1, 58, 0
3, 115880, Note_on_c, 1, 60, 64
3, 115899, Note_on_c, 1, 60, 0
3, 115900, Note_on_c, 1, 67, 72
3, 115919, Note_on_c, 1, 67, 0
3, 115920, Control_c, 1, 64, 0
3, 115920, Note_on_c, 1, 57, 89
3, 115920, Control_c, 1, 64, 127
3, 115939, Note_on_c, 1, 57, 0
3, 115940, Note_on_c, 1, 60, 55
3, 115959, Note_on_c, 1, 60, 0
3, 115960, Note_on_c, 1, 65, 62
3, 115979, Note_on_c, 1, 65, 0
3, 115980, Control_c, 1, 64, 0
3, 115980, Note_on_c, 1, 56, 89
3, 115980, Control_c, 1, 64, 127
3, 115999, Note_on_c, 1, 56, 0
3, 116000, Note_on_c, 1, 60, 68
3, 116019, Note_on_c, 1, 60, 0
3, 116020, Note_on_c, 1, 65, 64
3, 116039, Note_on_c, 1, 65, 0
3, 116040, Control_c, 1, 64, 0
3, 116040, Note_on_c, 1, 55, 80
3, 116040, Control_c, 1, 64, 127
3, 116059, Note_on_c, 1, 55, 0
3, 116060, Note_on_c, 1, 59, 50
3, 116079, Note_on_c, 1, 59, 0
3, 116080, Note_on_c, 1, 62, 68
3, 116099, Note_on_c, 1, 62, 0
3, 116100, Note_on_c, 1, 65, 68
3, 116119, Note_on_c, 1, 65, 0
3, 116120, Note_on_c, 1, 62, 72
3, 116139, Note_on_c, 1, 62, 0
3, 116140, Note_on_c, 1, 59, 59
3, 116159, Note_on_c, 1, 59, 0
3, 116160, Control_c, 1, 64, 0
3, 116160, Note_on_c, 1, 55, 85
3, 116160, Control_c, 1, 64, 127
3, 116179, Note_on_c, 1, 55, 0
3, 116180, Note_on_c, 1, 62, 76
3, 116199, Note_on_c, 1, 62, 0
3, 116200, Note_on_c, 1, 65, 72
3, 116219, Note_on_c, 1, 65, 0
3, 116220, Note_on_c, 1, 67, 62
3, 116239, Note_on_c, 1, 67, 0
3, 116240, Note_on_c, 1, 65, 68
3, 116259, Note_on_c, 1, 65, 0
3, 116260, Note_on_c, 1, 62, 76
3, 116279, Note_on_c, 1, 62, 0
3, 116280, Control_c, 1, 64, 0
3, 116280, Note_on_c, 1, 55, 89
3, 116280, Control_c, 1, 64, 127
3, 116299, Note_on_c, 1, 55, 0
3, 116300, Note_on_c, 1, 60, 51
3, 116319, Note_on_c, 1, 60, 0
3, 116320, Note_on_c, 1, 64, 72
3, 116339, Note_on_c, 1, 64, 0
3, 116340, Note_on_c, 1, 55, 80
3, 116340, Note_on_c, 1, 36, 80
3, 116340, Note_on_c, 1, 48, 80
3, 116342, Control_c, 1, 64, 127
3, 116359, Note_on_c, 1, 55, 0
3, 116360, Note_on_c, 1, 60, 68
3, 116370, Note_on_c, 1, 48, 0
3, 116371, Note_on_c, 1, 36, 0
3, 116379, Note_on_c, 1, 60, 0
3, 116380, Note_on_c, 1, 64, 59
3, 116399, Note_on_c, 1, 64, 0
3, 116400, Control_c, 1, 64, 0
3, 116400, Note_on_c, 1, 55, 85
3, 116400, Control_c, 1, 64, 127
3, 116400, Control_c, 1, 64, 0
3, 116400, Note_on_c, 1, 35, 76
3, 116400, Note_on_c, 1, 47, 76
3, 116414, Control_c, 1, 64, 127
3, 116419, Note_on_c, 1, 55, 0
3, 116420, Note_on_c, 1, 62, 72
3, 116427, Note_on_c, 1, 47, 0
3, 116427, Note_on_c, 1, 35, 0
3, 116439, Note_on_c, 1, 62, 0
3, 116440, Note_on_c, 1, 65, 64
3, 116455, Control_c, 1, 64, 0
3, 116459, Note_on_c, 1, 65, 0
3, 116460, Control_c, 1, 64, 0
3, 116460, Note_on_c, 1, 55, 68
3, 116460, Control_c, 1, 64, 127
3, 116460, Note_on_c, 1, 36, 72
3, 116460, Note_on_c, 1, 48, 76
3, 116468, Control_c, 1, 64, 127
3, 116479, Note_on_c, 1, 55, 0
3, 116480, Note_on_c, 1, 60, 64
3, 116484, Note_on_c, 1, 48, 0
3, 116488, Note_on_c, 1, 36, 0
3, 116499, Note_on_c, 1, 60, 0
3, 116500, Note_on_c, 1, 64, 80
3, 116519, Note_on_c, 1, 64, 0
3, 116520, Control_c, 1, 64, 0
3, 116520, Note_on_c, 1, 55, 85
3, 116520, Control_c, 1, 64, 127
3, 116520, Note_on_c, 1, 31, 80
3, 116520, Note_on_c, 1, 43, 76
3, 116522, Control_c, 1, 64, 0
3, 116539, Note_on_c, 1, 55, 0
3, 116540, Note_on_c, 1, 60, 68
3, 116547, Control_c, 1, 64, 127
3, 116559, Note_on_c, 1, 60, 0
3, 116560, Note_on_c, 1, 64, 80
3, 116579, Note_on_c, 1, 64, 0
3, 116580, Note_on_c, 1, 67, 76
3, 116599, Note_on_c, 1, 67, 0
3, 116600, Note_on_c, 1, 64, 76
3, 116619, Note_on_c, 1, 64, 0
3, 116620, Note_on_c, 1, 60, 68
3, 116639, Note_on_c, 1, 60, 0
3, 116640, Control_c, 1, 64, 0
3, 116640, Note_on_c, 1, 55, 85
3, 116640, Control_c, 1, 64, 127
3, 116659, Note_on_c, 1, 55, 0
3, 116660, Note_on_c, 1, 59, 68
3, 116679, Note_on_c, 1, 59, 0
3, 116680, Note_on_c, 1, 62, 76
3, 116699, Note_on_c, 1, 62, 0
3, 116700, Note_on_c, 1, 43, 0
3, 116700, Note_on_c, 1, 67, 72
3, 116703, Note_on_c, 1, 31, 0
3, 116707, Control_c, 1, 64, 0
3, 116719, Note_on_c, 1, 67, 0
3, 116720, Note_on_c, 1, 62, 62
3, 116739, Note_on_c, 1, 62, 0
3, 116740, Note_on_c, 1, 59, 62
3, 116759, Note_on_c, 1, 59, 0
3, 116760, Control_c, 1, 64, 0
3, 116760, Note_on_c, 1, 55, 76
3, 116760, Control_c, 1, 64, 127
3, 116779, Note_on_c, 1, 55, 0
3, 116780, Note_on_c, 1, 60, 56
3, 116799, Note_on_c, 1, 60, 0
3, 116800, Note_on_c, 1, 64, 62
3, 116819, Note_on_c, 1, 64, 0
3, 116820, Note_on_c, 1, 67, 64
3, 116839, Note_on_c, 1, 67, 0
3, 116840, Note_on_c, 1, 64, 55
3, 116859, Note_on_c, 1, 64, 0
3, 116860, Note_on_c, 1, 60, 72
3, 116879, Note_on_c, 1, 60, 0
3, 116880, Note_on_c, 1, 55, 64
3, 116899, Note_on_c, 1, 55, 0
3, 116900, Note_on_c, 1, 60, 68
3, 116919, Note_on_c, 1, 60, 0
3, 116920, Note_on_c, 1, 64, 64
3, 116939, Note_on_c, 1, 64, 0
3, 116940, Note_on_c, 1, 67, 62
3, 116959, Note_on_c, 1, 67, 0
3, 116960, Note_on_c, 1, 64, 68
3, 116979, Note_on_c, 1, 64, 0
3, 116980, Note_on_c, 1, 60, 76
3, 116999, Note_on_c, 1, 60, 0
3, 117000, Control_c, 1, 64, 0
3, 117000, Note_on_c, 1, 55, 98
3, 117000, Control_c, 1, 64, 127
3, 117000, Note_on_c, 1, 36, 80
3, 117000, Note_on_c, 1, 48, 76
3, 117015, Control_c, 1, 64, 127
3, 117019, Note_on_c, 1, 55, 0
3, 117020, Note_on_c, 1, 60, 85
3, 117039, Note_on_c, 1, 60, 0
3, 117040, Note_on_c, 1, 64, 80
3, 117059, Note_on_c, 1, 64, 0
3, 117060, Note_on_c, 1, 67, 89
3, 117079, Note_on_c, 1, 67, 0
3, 117080, Note_on_c, 1, 64, 72
3, 117099, Note_on_c, 1, 64, 0
3, 117100, Note_on_c, 1, 60, 76
3, 117119, Note_on_c, 1, 60, 0
3, 117120, Note_on_c, 1, 55, 98
3, 117120, Control_c, 1, 64, 0
3, 117120, Control_c, 1, 64, 127
3, 117139, Note_on_c, 1, 55, 0
3, 117140, Note_on_c, 1, 60, 89
3, 117159, Note_on_c, 1, 60, 0
3, 117160, Note_on_c, 1, 64, 89
3, 117179, Note_on_c, 1, 64, 0
3, 117180, Note_on_c, 1, 67, 93
3, 117199, Note_on_c, 1, 67, 0
3, 117200, Note_on_c, 1, 64, 80
3, 117219, Note_on_c, 1, 64, 0
3, 117220, Note_on_c, 1, 60, 57
3, 117229, Note_on_c, 1, 36, 0
3, 117231, Note_on_c, 1, 48, 0
3, 117239, Note_on_c, 1, 60, 0
3, 117240, Note_on_c, 1, 55, 76
3, 117240, Control_c, 1, 64, 0
3, 117240, Control_c, 1, 64, 127
3, 117244, Control_c, 1, 64, 0
3, 117259, Note_on_c, 1, 55, 0
3, 117260, Note_on_c, 1, 62, 76
3, 117279, Note_on_c, 1, 62, 0
3, 117280, Note_on_c, 1, 65, 68
3, 117299, Note_on_c, 1, 65, 0
3, 117300, Note_on_c, 1, 67, 62
3, 117319, Note_on_c, 1, 67, 0
3, 117320, Note_on_c, 1, 65, 57
3, 117339, Note_on_c, 1, 65, 0
3, 117340, Note_on_c, 1, 62, 60
3, 117359, Note_on_c, 1, 62, 0
3, 117360, Control_c, 1, 64, 0
3, 117360, Note_on_c, 1, 55, 72
3, 117360, Control_c, 1, 64, 127
3, 117379, Note_on_c, 1, 55, 0
3, 117380, Note_on_c, 1, 62, 62
3, 117399, Note_on_c, 1, 62, 0
3, 117400, Note_on_c, 1, 65, 62
3, 117419, Note_on_c, 1, 65, 0
3, 117420, Note_on_c, 1, 67, 64
3, 117439, Note_on_c, 1, 67, 0
3, 117440, Note_on_c, 1, 65, 51
3, 117459, Note_on_c, 1, 65, 0
3, 117460, Note_on_c, 1, 62, 62
3, 117479, Note_on_c, 1, 62, 0
3, 117480, Note_on_c, 1, 35, 90
3, 117480, Control_c, 1, 64, 0
3, 117480, Note_on_c, 1, 55, 76
3, 117480, Control_c, 1, 64, 127
3, 117480, Note_on_c, 1, 47, 80
3, 117494, Control_c, 1, 64, 127
3, 117499, Note_on_c, 1, 55, 0
3, 117500, Note_on_c, 1, 62, 62
3, 117519, Note_on_c, 1, 62, 0
3, 117520, Note_on_c, 1, 65, 72
3, 117539, Note_on_c, 1, 65, 0
3, 117540, Note_on_c, 1, 67, 76
3, 117559, Note_on_c, 1, 67, 0
3, 117560, Note_on_c, 1, 65, 76
3, 117579, Note_on_c, 1, 65, 0
3, 117580, Note_on_c, 1, 62, 89
3, 117599, Note_on_c, 1, 62, 0
3, 117600, Note_on_c, 1, 55, 76
3, 117619, Note_on_c, 1, 55, 0
3, 117620, Note_on_c, 1, 62, 85
3, 117639, Note_on_c, 1, 62, 0
3, 117640, Note_on_c, 1, 65, 76
3, 117659, Note_on_c, 1, 65, 0
3, 117660, Note_on_c, 1, 67, 85
3, 117679, Note_on_c, 1, 67, 0
3, 117680, Note_on_c, 1, 65, 76
3, 117699, Note_on_c, 1, 65, 0
3, 117700, Note_on_c, 1, 62, 72
3, 117712, Note_on_c, 1, 47, 0
3, 117715, Note_on_c, 1, 35, 0
3, 117719, Note_on_c, 1, 62, 0
3, 117720, Control_c, 1, 64, 0
3, 117720, Note_on_c, 1, 55, 60
3, 117720, Control_c, 1, 64, 127
3, 117723, Control_c, 1, 64, 0
3, 117739, Note_on_c, 1, 55, 0
3, 117740, Note_on_c, 1, 60, 50
3, 117759, Note_on_c, 1, 60, 0
3, 117760, Note_on_c, 1, 64, 64
3, 117779, Note_on_c, 1, 64, 0
3, 117780, Control_c, 1, 64, 0
3, 117780, Note_on_c, 1, 58, 68
3, 117780, Control_c, 1, 64, 127
3, 117799, Note_on_c, 1, 58, 0
3, 117800, Note_on_c, 1, 60, 62
3, 117819, Note_on_c, 1, 60, 0
3, 117820, Note_on_c, 1, 67, 76
3, 117839, Note_on_c, 1, 67, 0
3, 117840, Control_c, 1, 64, 0
3, 117840, Note_on_c, 1, 57, 76
3, 117840, Control_c, 1, 64, 127
3, 117859, Note_on_c, 1, 57, 0
3, 117860, Note_on_c, 1, 60, 68
3, 117879, Note_on_c, 1, 60, 0
3, 117880, Note_on_c, 1, 65, 57
3, 117899, Note_on_c, 1, 65, 0
3, 117900, Control_c, 1, 64, 0
3, 117900, Note_on_c, 1, 56, 76
3, 117900, Control_c, 1, 64, 127
3, 117919, Note_on_c, 1, 56, 0
3, 117920, Note_on_c, 1, 60, 60
3, 117939, Note_on_c, 1, 60, 0
3, 117940, Note_on_c, 1, 65, 62
3, 117959, Note_on_c, 1, 65, 0
3, 117960, Control_c, 1, 64, 0
3, 117960, Note_on_c, 1, 55, 76
3, 117960, Control_c, 1, 64, 127
3, 117979, Note_on_c, 1, 55, 0
3, 117980, Note_on_c, 1, 59, 60
3, 117999, Note_on_c, 1, 59, 0
3, 118000, Note_on_c, 1, 62, 72
3, 118019, Note_on_c, 1, 62, 0
3, 118020, Note_on_c, 1, 65, 62
3, 118039, Note_on_c, 1, 65, 0
3, 118040, Note_on_c, 1, 62, 60
3, 118059, Note_on_c, 1, 62, 0
3, 118060, Note_on_c, 1, 59, 72
3, 118079, Note_on_c, 1, 59, 0
3, 118080, Control_c, 1, 64, 0
3, 118080, Note_on_c, 1, 55, 72
3, 118080, Control_c, 1, 64, 127
3, 118099, Note_on_c, 1, 55, 0
3, 118100, Note_on_c, 1, 62, 72
3, 118119, Note_on_c, 1, 62, 0
3, 118120, Note_on_c, 1, 65, 76
3, 118139, Note_on_c, 1, 65, 0
3, 118140, Note_on_c, 1, 67, 68
3, 118159, Note_on_c, 1, 67, 0
3, 118160, Note_on_c, 1, 65, 64
3, 118179, Note_on_c, 1, 65, 0
3, 118180, Note_on_c, 1, 62, 60
3, 118199, Note_on_c, 1, 62, 0
3, 118200, Control_c, 1, 64, 0
3, 118200, Note_on_c, 1, 55, 68
3, 118200, Control_c, 1, 64, 127
3, 118219, Note_on_c, 1, 55, 0
3, 118220, Note_on_c, 1, 60, 45
3, 118239, Note_on_c, 1, 60, 0
3, 118240, Note_on_c, 1, 64, 72
3, 118259, Note_on_c, 1, 64, 0
3, 118260, Control_c, 1, 64, 0
3, 118260, Note_on_c, 1, 58, 76
3, 118260, Control_c, 1, 64, 127
3, 118279, Note_on_c, 1, 58, 0
3, 118280, Note_on_c, 1, 60, 57
3, 118299, Note_on_c, 1, 60, 0
3, 118300, Note_on_c, 1, 67, 64
3, 118319, Note_on_c, 1, 67, 0
3, 118320, Note_on_c, 1, 57, 80
3, 118320, Control_c, 1, 64, 0
3, 118320, Control_c, 1, 64, 127
3, 118339, Note_on_c, 1, 57, 0
3, 118340, Note_on_c, 1, 60, 51
3, 118359, Note_on_c, 1, 60, 0
3, 118360, Note_on_c, 1, 65, 56
3, 118379, Note_on_c, 1, 65, 0
3, 118380, Control_c, 1, 64, 0
3, 118380, Note_on_c, 1, 56, 85
3, 118380, Control_c, 1, 64, 127
3, 118399, Note_on_c, 1, 56, 0
3, 118400, Note_on_c, 1, 60, 57
3, 118419, Note_on_c, 1, 60, 0
3, 118420, Note_on_c, 1, 65, 64
3, 118439, Note_on_c, 1, 65, 0
3, 118440, Control_c, 1, 64, 0
3, 118440, Note_on_c, 1, 55, 76
3, 118440, Control_c, 1, 64, 127
3, 118459, Note_on_c, 1, 55, 0
3, 118460, Note_on_c, 1, 59, 60
3, 118479, Note_on_c, 1, 59, 0
3, 118480, Note_on_c, 1, 62, 64
3, 118499, Note_on_c, 1, 62, 0
3, 118500, Note_on_c, 1, 65, 72
3, 118519, Note_on_c, 1, 65, 0
3, 118520, Note_on_c, 1, 62, 72
3, 118539, Note_on_c, 1, 62, 0
3, 118540, Note_on_c, 1, 59, 72
3, 118559, Note_on_c, 1, 59, 0
3, 118560, Control_c, 1, 64, 0
3, 118560, Note_on_c, 1, 55, 76
3, 118560, Control_c, 1, 64, 127
3, 118579, Note_on_c, 1, 55, 0
3, 118580, Note_on_c, 1, 62, 64
3, 118599, Note_on_c, 1, 62, 0
3, 118600, Note_on_c, 1, 65, 64
3, 118619, Note_on_c, 1, 65, 0
3, 118620, Note_on_c, 1, 67, 76
3, 118639, Note_on_c, 1, 67, 0
3, 118640, Note_on_c, 1, 65, 64
3, 118659, Note_on_c, 1, 65, 0
3, 118660, Note_on_c, 1, 62, 72
3, 118679, Note_on_c, 1, 62, 0
3, 118680, Control_c, 1, 64, 0
3, 118680, Note_on_c, 1, 55, 72
3, 118680, Control_c, 1, 64, 127
3, 118699, Note_on_c, 1, 55, 0
3, 118700, Note_on_c, 1, 60, 52
3, 118719, Note_on_c, 1, 60, 0
3, 118720, Note_on_c, 1, 64, 62
3, 118739, Note_on_c, 1, 64, 0
3, 118740, Note_on_c, 1, 55, 60
3, 118740, Control_c, 1, 64, 0
3, 118740, Control_c, 1, 64, 127
3, 118740, Note_on_c, 1, 36, 76
3, 118740, Note_on_c, 1, 48, 76
3, 118742, Control_c, 1, 64, 127
3, 118759, Note_on_c, 1, 55, 0
3, 118760, Note_on_c, 1, 60, 64
3, 118771, Note_on_c, 1, 48, 0
3, 118773, Note_on_c, 1, 36, 0
3, 118779, Note_on_c, 1, 60, 0
3, 118780, Note_on_c, 1, 64, 62
3, 118798, Control_c, 1, 64, 0
3, 118799, Note_on_c, 1, 64, 0
3, 118800, Control_c, 1, 64, 0
3, 118800, Note_on_c, 1, 55, 80
3, 118800, Control_c, 1, 64, 127
3, 118800, Note_on_c, 1, 35, 72
3, 118800, Note_on_c, 1, 47, 72
3, 118812, Control_c, 1, 64, 127
3, 118819, Note_on_c, 1, 55, 0
3, 118820, Note_on_c, 1, 62, 76
3, 118830, Note_on_c, 1, 35, 0
3, 118833, Note_on_c, 1, 47, 0
3, 118839, Note_on_c, 1, 62, 0
3, 118840, Note_on_c, 1, 65, 64
3, 118857, Control_c, 1, 64, 0
3, 118859, Note_on_c, 1, 65, 0
3, 118860, Control_c, 1, 64, 0
3, 118860, Note_on_c, 1, 55, 85
3, 118860, Control_c, 1, 64, 127
3, 118860, Note_on_c, 1, 36, 76
3, 118860, Note_on_c, 1, 48, 76
3, 118869, Control_c, 1, 64, 127
3, 118879, Note_on_c, 1, 55, 0
3, 118880, Note_on_c, 1, 60, 64
3, 118882, Note_on_c, 1, 48, 0
3, 118884, Note_on_c, 1, 36, 0
3, 118899, Note_on_c, 1, 60, 0
3, 118900, Note_on_c, 1, 64, 72
3, 118919, Note_on_c, 1, 64, 0
3, 118919, Control_c, 1, 64, 0
3, 118920, Control_c, 1, 64, 0
3, 118920, Note_on_c, 1, 55, 76
3, 118920, Control_c, 1, 64, 127
3, 118920, Note_on_c, 1, 31, 85
3, 118920, Note_on_c, 1, 43, 72
3, 118938, Control_c, 1, 64, 127
3, 118939, Note_on_c, 1, 55, 0
3, 118940, Note_on_c, 1, 60, 72
3, 118959, Note_on_c, 1, 60, 0
3, 118960, Note_on_c, 1, 64, 68
3, 118979, Note_on_c, 1, 64, 0
3, 118980, Note_on_c, 1, 67, 76
3, 118999, Note_on_c, 1, 67, 0
3, 119000, Note_on_c, 1, 64, 62
3, 119019, Note_on_c, 1, 64, 0
3, 119020, Note_on_c, 1, 60, 62
3, 119039, Note_on_c, 1, 60, 0
3, 119040, Control_c, 1, 64, 0
3, 119040, Note_on_c, 1, 55, 85
3, 119040, Control_c, 1, 64, 127
3, 119059, Note_on_c, 1, 55, 0
3, 119060, Note_on_c, 1, 59, 76
3, 119079, Note_on_c, 1, 59, 0
3, 119080, Note_on_c, 1, 62, 76
3, 119099, Note_on_c, 1, 62, 0
3, 119100, Note_on_c, 1, 67, 76
3, 119102, Note_on_c, 1, 43, 0
3, 119102, Note_on_c, 1, 31, 0
3, 119109, Control_c, 1, 64, 0
3, 119119, Note_on_c, 1, 67, 0
3, 119120, Note_on_c, 1, 62, 68
3, 119139, Note_on_c, 1, 62, 0
3, 119140, Note_on_c, 1, 59, 68
3, 119159, Note_on_c, 1, 59, 0
3, 119160, Control_c, 1, 64, 0
3, 119160, Note_on_c, 1, 59, 98
3, 119160, Control_c, 1, 64, 127
3, 119179, Note_on_c, 1, 59, 0
3, 119180, Note_on_c, 1, 62, 89
3, 119199, Note_on_c, 1, 62, 0
3, 119200, Note_on_c, 1, 67, 89
3, 119219, Note_on_c, 1, 67, 0
3, 119220, Note_on_c, 1, 71, 89
3, 119239, Note_on_c, 1, 71, 0
3, 119240, Note_on_c, 1, 67, 80
3, 119259, Note_on_c, 1, 67, 0
3, 119260, Note_on_c, 1, 62, 89
3, 119279, Note_on_c, 1, 62, 0
3, 119280, Note_on_c, 1, 59, 102
3, 119280, Note_on_c, 1, 43, 93
3, 119280, Note_on_c, 1, 55, 85
3, 119292, Control_c, 1, 64, 127
3, 119299, Note_on_c, 1, 59, 0
3, 119300, Note_on_c, 1, 62, 76
3, 119319, Note_on_c, 1, 62, 0
3, 119320, Note_on_c, 1, 67, 93
3, 119339, Note_on_c, 1, 67, 0
3, 119340, Note_on_c, 1, 71, 89
3, 119352, Note_on_c, 1, 55, 0
3, 119354, Note_on_c, 1, 43, 0
3, 119359, Note_on_c, 1, 71, 0
3, 119360, Note_on_c, 1, 67, 76
3, 119370, Control_c, 1, 64, 0
3, 119379, Note_on_c, 1, 67, 0
3, 119380, Note_on_c, 1, 62, 76
3, 119399, Note_on_c, 1, 62, 0
3, 119400, Control_c, 1, 64, 0
3, 119400, Note_on_c, 1, 60, 93
3, 119400, Control_c, 1, 64, 127
3, 119419, Note_on_c, 1, 60, 0
3, 119420, Note_on_c, 1, 64, 89
3, 119439, Note_on_c, 1, 64, 0
3, 119440, Note_on_c, 1, 67, 89
3, 119459, Note_on_c, 1, 67, 0
3, 119460, Note_on_c, 1, 72, 93
3, 119479, Note_on_c, 1, 72, 0
3, 119480, Note_on_c, 1, 67, 80
3, 119499, Note_on_c, 1, 67, 0
3, 119500, Note_on_c, 1, 64, 76
3, 119519, Note_on_c, 1, 64, 0
3, 119520, Note_on_c, 1, 60, 93
3, 119520, Note_on_c, 1, 40, 89
3, 119520, Note_on_c, 1, 52, 93
3, 119522, Control_c, 1, 64, 127
3, 119539, Note_on_c, 1, 60, 0
3, 119540, Note_on_c, 1, 64, 76
3, 119559, Note_on_c, 1, 64, 0
3, 119560, Note_on_c, 1, 67, 85
3, 119575, Note_on_c, 1, 52, 0
3, 119579, Note_on_c, 1, 67, 0
3, 119580, Note_on_c, 1, 72, 89
3, 119581, Note_on_c, 1, 40, 0
3, 119590, Control_c, 1, 64, 0
3, 119599, Note_on_c, 1, 72, 0
3, 119600, Note_on_c, 1, 67, 64
3, 119619, Note_on_c, 1, 67, 0
3, 119620, Note_on_c, 1, 64, 85
3, 119639, Note_on_c, 1, 64, 0
3, 119640, Control_c, 1, 64, 0
3, 119640, Note_on_c, 1, 62, 102
3, 119640, Control_c, 1, 64, 127
3, 119640, Note_on_c, 1, 35, 93
3, 119640, Note_on_c, 1, 47, 93
3, 119659, Note_on_c, 1, 62, 0
3, 119660, Note_on_c, 1, 65, 76
3, 119667, Note_on_c, 1, 47, 0
3, 119668, Note_on_c, 1, 35, 0
3, 119679, Note_on_c, 1, 65, 0
3, 119680, Note_on_c, 1, 67, 80
3, 119699, Note_on_c, 1, 67, 0
3, 119700, Note_on_c, 1, 74, 93
3, 119719, Note_on_c, 1, 74, 0
3, 119720, Note_on_c, 1, 67, 76
3, 119739, Note_on_c, 1, 67, 0
3, 119740, Note_on_c, 1, 65, 80
3, 119759, Note_on_c, 1, 65, 0
3, 119760, Note_on_c, 1, 60, 107
3, 119760, Note_on_c, 1, 36, 93
3, 119760, Note_on_c, 1, 48, 93
3, 119779, Note_on_c, 1, 60, 0
3, 119780, Note_on_c, 1, 64, 76
3, 119785, Note_on_c, 1, 36, 0
3, 119786, Note_on_c, 1, 48, 0
3, 119799, Note_on_c, 1, 64, 0
3, 119800, Note_on_c, 1, 67, 76
3, 119819, Note_on_c, 1, 67, 0
3, 119820, Note_on_c, 1, 72, 85
3, 119820, Control_c, 1, 64, 0
3, 119820, Control_c, 1, 64, 127
3, 119839, Note_on_c, 1, 72, 0
3, 119840, Note_on_c, 1, 67, 85
3, 119859, Note_on_c, 1, 67, 0
3, 119860, Note_on_c, 1, 64, 85
3, 119879, Note_on_c, 1, 64, 0
3, 119880, Control_c, 1, 64, 0
3, 119880, Note_on_c, 1, 59, 102
3, 119880, Control_c, 1, 64, 127
3, 119880, Note_on_c, 1, 43, 89
3, 119880, Note_on_c, 1, 55, 93
3, 119883, Control_c, 1, 64, 127
3, 119897, Note_on_c, 1, 55, 0
3, 119899, Note_on_c, 1, 59, 0
3, 119900, Note_on_c, 1, 62, 76
3, 119902, Note_on_c, 1, 43, 0
3, 119919, Note_on_c, 1, 62, 0
3, 119920, Note_on_c, 1, 67, 64
3, 119929, Control_c, 1, 64, 0
3, 119939, Note_on_c, 1, 67, 0
3, 119940, Note_on_c, 1, 71, 80
3, 119959, Note_on_c, 1, 71, 0
3, 119960, Note_on_c, 1, 67, 57
3, 119979, Note_on_c, 1, 67, 0
3, 119980, Note_on_c, 1, 62, 68
3, 119999, Note_on_c, 1, 62, 0
3, 120000, Note_on_c, 1, 59, 93
3, 120000, Note_on_c, 1, 31, 102
3, 120000, Note_on_c, 1, 43, 89
3, 120004, Control_c, 1, 64, 127
3, 120013, Note_on_c, 1, 43, 0
3, 120017, Note_on_c, 1, 31, 0
3, 120019, Note_on_c, 1, 59, 0
3, 120020, Note_on_c, 1, 62, 64
3, 120039, Note_on_c, 1, 62, 0
3, 120040, Note_on_c, 1, 67, 68
3, 120059, Note_on_c, 1, 67, 0
3, 120060, Note_on_c, 1, 71, 80
3, 120067, Control_c, 1, 64, 0
3, 120079, Note_on_c, 1, 71, 0
3, 120080, Note_on_c, 1, 67, 85
3, 120099, Note_on_c, 1, 67, 0
3, 120100, Note_on_c, 1, 62, 80
3, 120119, Note_on_c, 1, 62, 0
3, 120120, Control_c, 1, 64, 0
3, 120120, Note_on_c, 1, 59, 102
3, 120120, Control_c, 1, 64, 127
3, 120139, Note_on_c, 1, 59, 0
3, 120140, Note_on_c, 1, 62, 76
3, 120159, Note_on_c, 1, 62, 0
3, 120160, Note_on_c, 1, 67, 76
3, 120179, Note_on_c, 1, 67, 0
3, 120180, Note_on_c, 1, 71, 80
3, 120199, Note_on_c, 1, 71, 0
3, 120200, Note_on_c, 1, 67, 76
3, 120219, Note_on_c, 1, 67, 0
3, 120220, Note_on_c, 1, 62, 76
3, 120239, Note_on_c, 1, 62, 0
3, 120240, Control_c, 1, 64, 0
3, 120240, Note_on_c, 1, 59, 107
3, 120240, Control_c, 1, 64, 127
3, 120240, Note_on_c, 1, 43, 89
3, 120240, Note_on_c, 1, 55, 89
3, 120242, Control_c, 1, 64, 127
3, 120259, Note_on_c, 1, 59, 0
3, 120260, Note_on_c, 1, 62, 72
3, 120279, Note_on_c, 1, 62, 0
3, 120280, Note_on_c, 1, 67, 80
3, 120299, Note_on_c, 1, 67, 0
3, 120300, Note_on_c, 1, 71, 80
3, 120301, Note_on_c, 1, 55, 0
3, 120306, Note_on_c, 1, 43, 0
3, 120319, Note_on_c, 1, 71, 0
3, 120320, Note_on_c, 1, 67, 80
3, 120320, Control_c, 1, 64, 0
3, 120339, Note_on_c, 1, 67, 0
3, 120340, Note_on_c, 1, 62, 89
3, 120359, Note_on_c, 1, 62, 0
3, 120360, Control_c, 1, 64, 0
3, 120360, Note_on_c, 1, 60, 107
3, 120360, Control_c, 1, 64, 127
3, 120379, Note_on_c, 1, 60, 0
3, 120380, Note_on_c, 1, 64, 68
3, 120399, Note_on_c, 1, 64, 0
3, 120400, Note_on_c, 1, 67, 76
3, 120419, Note_on_c, 1, 67, 0
3, 120420, Note_on_c, 1, 72, 76
3, 120439, Note_on_c, 1, 72, 0
3, 120440, Note_on_c, 1, 67, 89
3, 120459, Note_on_c, 1, 67, 0
3, 120460, Note_on_c, 1, 64, 80
3, 120479, Note_on_c, 1, 64, 0
3, 120480, Control_c, 1, 64, 0
3, 120480, Note_on_c, 1, 60, 102
3, 120480, Control_c, 1, 64, 127
3, 120480, Note_on_c, 1, 40, 89
3, 120480, Note_on_c, 1, 52, 93
3, 120482, Control_c, 1, 64, 127
3, 120499, Note_on_c, 1, 60, 0
3, 120500, Note_on_c, 1, 64, 89
3, 120519, Note_on_c, 1, 64, 0
3, 120520, Note_on_c, 1, 67, 76
3, 120539, Note_on_c, 1, 67, 0
3, 120540, Note_on_c, 1, 72, 85
3, 120542, Note_on_c, 1, 52, 0
3, 120548, Note_on_c, 1, 40, 0
3, 120559, Note_on_c, 1, 72, 0
3, 120559, Control_c, 1, 64, 0
3, 120560, Note_on_c, 1, 67, 76
3, 120579, Note_on_c, 1, 67, 0
3, 120580, Note_on_c, 1, 64, 93
3, 120599, Note_on_c, 1, 64, 0
3, 120600, Control_c, 1, 64, 0
3, 120600, Note_on_c, 1, 62, 107
3, 120600, Control_c, 1, 64, 127
3, 120600, Note_on_c, 1, 35, 85
3, 120600, Note_on_c, 1, 47, 85
3, 120619, Note_on_c, 1, 62, 0
3, 120620, Note_on_c, 1, 65, 85
3, 120622, Note_on_c, 1, 47, 0
3, 120623, Note_on_c, 1, 35, 0
3, 120639, Note_on_c, 1, 65, 0
3, 120640, Note_on_c, 1, 67, 89
3, 120659, Note_on_c, 1, 67, 0
3, 120660, Note_on_c, 1, 74, 93
3, 120660, Control_c, 1, 64, 0
3, 120660, Control_c, 1, 64, 127
3, 120679, Note_on_c, 1, 74, 0
3, 120680, Note_on_c, 1, 67, 76
3, 120699, Note_on_c, 1, 67, 0
3, 120700, Note_on_c, 1, 65, 76
3, 120719, Note_on_c, 1, 65, 0
3, 120720, Control_c, 1, 64, 0
3, 120720, Note_on_c, 1, 60, 102
3, 120720, Control_c, 1, 64, 127
3, 120720, Note_on_c, 1, 36, 93
3, 120720, Note_on_c, 1, 48, 93
3, 120738, Note_on_c, 1, 36, 0
3, 120739, Note_on_c, 1, 60, 0
3, 120740, Note_on_c, 1, 48, 0
3, 120740, Note_on_c, 1, 64, 72
3, 120759, Note_on_c, 1, 64, 0
3, 120760, Note_on_c, 1, 67, 89
3, 120779, Note_on_c, 1, 67, 0
3, 120780, Note_on_c, 1, 72, 89
3, 120799, Note_on_c, 1, 72, 0
3, 120800, Note_on_c, 1, 67, 76
3, 120819, Note_on_c, 1, 67, 0
3, 120820, Note_on_c, 1, 64, 85
3, 120839, Note_on_c, 1, 64, 0
3, 120840, Control_c, 1, 64, 0
3, 120840, Note_on_c, 1, 59, 102
3, 120840, Control_c, 1, 64, 127
3, 120840, Note_on_c, 1, 43, 89
3, 120840, Note_on_c, 1, 55, 85
3, 120846, Control_c, 1, 64, 127
3, 120859, Note_on_c, 1, 59, 0
3, 120860, Note_on_c, 1, 62, 80
3, 120879, Note_on_c, 1, 62, 0
3, 120880, Note_on_c, 1, 67, 76
3, 120899, Note_on_c, 1, 67, 0
3, 120900, Note_on_c, 1, 71, 80
3, 120915, Note_on_c, 1, 55, 0
3, 120917, Note_on_c, 1, 43, 0
3, 120919, Note_on_c, 1, 71, 0
3, 120920, Note_on_c, 1, 67, 76
3, 120932, Control_c, 1, 64, 0
3, 120939, Note_on_c, 1, 67, 0
3, 120940, Note_on_c, 1, 62, 72
3, 120959, Note_on_c, 1, 62, 0
3, 120960, Control_c, 1, 64, 0
3, 120960, Note_on_c, 1, 59, 102
3, 120960, Control_c, 1, 64, 127
3, 120979, Note_on_c, 1, 59, 0
3, 120980, Note_on_c, 1, 62, 76
3, 120999, Note_on_c, 1, 62, 0
3, 121000, Note_on_c, 1, 67, 76
3, 121019, Note_on_c, 1, 67, 0
3, 121020, Note_on_c, 1, 71, 80
3, 121039, Note_on_c, 1, 71, 0
3, 121040, Note_on_c, 1, 67, 93
3, 121059, Note_on_c, 1, 67, 0
3, 121060, Note_on_c, 1, 62, 85
3, 121079, Note_on_c, 1, 62, 0
3, 121080, Control_c, 1, 64, 0
3, 121080, Note_on_c, 1, 59, 107
3, 121080, Control_c, 1, 64, 127
3, 121099, Note_on_c, 1, 59, 0
3, 121100, Note_on_c, 1, 62, 85
3, 121119, Note_on_c, 1, 62, 0
3, 121120, Note_on_c, 1, 67, 89
3, 121139, Note_on_c, 1, 67, 0
3, 121140, Note_on_c, 1, 71, 98
3, 121159, Note_on_c, 1, 71, 0
3, 121160, Note_on_c, 1, 74, 85
3, 121179, Note_on_c, 1, 74, 0
3, 121180, Note_on_c, 1, 71, 89
3, 121199, Note_on_c, 1, 71, 0
3, 121200, Control_c, 1, 64, 0
3, 121200, Note_on_c, 1, 72, 93
3, 121200, Control_c, 1, 64, 127
3, 121200, Note_on_c, 1, 38, 89
3, 121200, Note_on_c, 1, 42, 72
3, 121200, Note_on_c, 1, 50, 93
3, 121200, Note_on_c, 1, 45, 93
3, 121205, Control_c, 1, 64, 127
3, 121219, Note_on_c, 1, 72, 0
3, 121220, Note_on_c, 1, 69, 76
3, 121239, Note_on_c, 1, 69, 0
3, 121240, Note_on_c, 1, 66, 76
3, 121258, Note_on_c, 1, 45, 0
3, 121259, Note_on_c, 1, 38, 0
3, 121259, Note_on_c, 1, 66, 0
3, 121259, Note_on_c, 1, 42, 0
3, 121260, Control_c, 1, 64, 0
3, 121260, Note_on_c, 1, 62, 93
3, 121260, Control_c, 1, 64, 127
3, 121262, Note_on_c, 1, 50, 0
3, 121265, Control_c, 1, 64, 0
3, 121279, Note_on_c, 1, 62, 0
3, 121280, Note_on_c, 1, 60, 80
3, 121299, Note_on_c, 1, 60, 0
3, 121300, Note_on_c, 1, 57, 89
3, 121319, Note_on_c, 1, 57, 0
3, 121320, Control_c, 1, 64, 0
3, 121320, Note_on_c, 1, 59, 102
3, 121320, Control_c, 1, 64, 127
3, 121320, Note_on_c, 1, 43, 93
3, 121320, Note_on_c, 1, 55, 93
3, 121320, Note_on_c, 1, 47, 93
3, 121320, Note_on_c, 1, 50, 98
3, 121338, Control_c, 1, 64, 127
3, 121339, Note_on_c, 1, 59, 0
3, 121340, Note_on_c, 1, 62, 85
3, 121359, Note_on_c, 1, 62, 0
3, 121360, Note_on_c, 1, 67, 89
3, 121371, Note_on_c, 1, 47, 0
3, 121372, Note_on_c, 1, 50, 0
3, 121374, Note_on_c, 1, 55, 0
3, 121376, Note_on_c, 1, 43, 0
3, 121379, Note_on_c, 1, 67, 0
3, 121380, Note_on_c, 1, 71, 93
3, 121383, Control_c, 1, 64, 0
3, 121399, Note_on_c, 1, 71, 0
3, 121400, Note_on_c, 1, 67, 68
3, 121419, Note_on_c, 1, 67, 0
3, 121420, Note_on_c, 1, 62, 76
3, 121439, Note_on_c, 1, 62, 0
3, 121440, Control_c, 1, 64, 0
3, 121440, Note_on_c, 1, 59, 107
3, 121440, Control_c, 1, 64, 127
3, 121459, Note_on_c, 1, 59, 0
3, 121460, Note_on_c, 1, 62, 72
3, 121479, Note_on_c, 1, 62, 0
3, 121480, Note_on_c, 1, 67, 80
3, 121499, Note_on_c, 1, 67, 0
3, 121500, Note_on_c, 1, 71, 89
3, 121519, Note_on_c, 1, 71, 0
3, 121520, Note_on_c, 1, 67, 80
3, 121520, Note_on_c, 1, 62, 72
3, 121539, Note_on_c, 1, 62, 0
3, 121539, Note_on_c, 1, 67, 0
3, 121560, Control_c, 1, 64, 0
3, 121560, Note_on_c, 1, 59, 98
3, 121560, Control_c, 1, 64, 127
3, 121579, Note_on_c, 1, 59, 0
3, 121580, Note_on_c, 1, 62, 89
3, 121599, Note_on_c, 1, 62, 0
3, 121600, Note_on_c, 1, 67, 80
3, 121619, Note_on_c, 1, 67, 0
3, 121620, Note_on_c, 1, 71, 107
3, 121639, Note_on_c, 1, 71, 0
3, 121640, Note_on_c, 1, 74, 89
3, 121659, Note_on_c, 1, 74, 0
3, 121660, Note_on_c, 1, 71, 80
3, 121679, Note_on_c, 1, 71, 0
3, 121680, Control_c, 1, 64, 0
3, 121680, Note_on_c, 1, 72, 93
3, 121680, Control_c, 1, 64, 127
3, 121680, Note_on_c, 1, 42, 72
3, 121680, Note_on_c, 1, 38, 93
3, 121680, Note_on_c, 1, 50, 93
3, 121680, Note_on_c, 1, 45, 93
3, 121687, Control_c, 1, 64, 127
3, 121699, Note_on_c, 1, 72, 0
3, 121700, Note_on_c, 1, 69, 93
3, 121719, Note_on_c, 1, 69, 0
3, 121720, Note_on_c, 1, 45, 0
3, 121720, Note_on_c, 1, 50, 0
3, 121720, Note_on_c, 1, 66, 76
3, 121722, Note_on_c, 1, 38, 0
3, 121722, Note_on_c, 1, 42, 0
3, 121739, Note_on_c, 1, 66, 0
3, 121740, Note_on_c, 1, 62, 89
3, 121740, Control_c, 1, 64, 0
3, 121740, Control_c, 1, 64, 127
3, 121749, Control_c, 1, 64, 0
3, 121759, Note_on_c, 1, 62, 0
3, 121760, Note_on_c, 1, 60, 89
3, 121779, Note_on_c, 1, 60, 0
3, 121780, Note_on_c, 1, 57, 89
3, 121799, Note_on_c, 1, 57, 0
3, 121800, Control_c, 1, 64, 0
3, 121800, Note_on_c, 1, 59, 93
3, 121800, Control_c, 1, 64, 127
3, 121800, Note_on_c, 1, 43, 85
3, 121800, Note_on_c, 1, 55, 85
3, 121800, Note_on_c, 1, 47, 93
3, 121800, Note_on_c, 1, 50, 98
3, 121814, Control_c, 1, 64, 127
3, 121819, Note_on_c, 1, 59, 0
3, 121820, Note_on_c, 1, 62, 80
3, 121839, Note_on_c, 1, 62, 0
3, 121840, Note_on_c, 1, 67, 76
3, 121855, Note_on_c, 1, 47, 0
3, 121856, Note_on_c, 1, 50, 0
3, 121857, Note_on_c, 1, 55, 0
3, 121859, Note_on_c, 1, 67, 0
3, 121860, Note_on_c, 1, 43, 0
3, 121860, Note_on_c, 1, 71, 89
3, 121871, Control_c, 1, 64, 0
3, 121879, Note_on_c, 1, 71, 0
3, 121880, Note_on_c, 1, 67, 76
3, 121899, Note_on_c, 1, 67, 0
3, 121900, Note_on_c, 1, 62, 72
3, 121919, Note_on_c, 1, 62, 0
3, 121920, Control_c, 1, 64, 0
3, 121920, Note_on_c, 1, 59, 102
3, 121920, Control_c, 1, 64, 127
3, 121939, Note_on_c, 1, 59, 0
3, 121940, Note_on_c, 1, 62, 85
3, 121959, Note_on_c, 1, 62, 0
3, 121960, Note_on_c, 1, 67, 85
3, 121979, Note_on_c, 1, 67, 0
3, 121980, Note_on_c, 1, 71, 85
3, 121999, Note_on_c, 1, 71, 0
3, 122000, Note_on_c, 1, 67, 76
3, 122019, Note_on_c, 1, 67, 0
3, 122020, Note_on_c, 1, 62, 72
3, 122039, Note_on_c, 1, 62, 0
3, 122040, Control_c, 1, 64, 0
3, 122040, Note_on_c, 1, 59, 107
3, 122040, Control_c, 1, 64, 127
3, 122059, Note_on_c, 1, 59, 0
3, 122060, Note_on_c, 1, 62, 80
3, 122079, Note_on_c, 1, 62, 0
3, 122080, Note_on_c, 1, 67, 80
3, 122099, Note_on_c, 1, 67, 0
3, 122100, Note_on_c, 1, 71, 93
3, 122119, Note_on_c, 1, 71, 0
3, 122120, Note_on_c, 1, 67, 76
3, 122139, Note_on_c, 1, 67, 0
3, 122140, Note_on_c, 1, 62, 62
3, 122159, Note_on_c, 1, 62, 0
3, 122160, Control_c, 1, 64, 0
3, 122160, Note_on_c, 1, 59, 102
3, 122160, Control_c, 1, 64, 127
3, 122179, Note_on_c, 1, 59, 0
3, 122180, Note_on_c, 1, 62, 85
3, 122199, Note_on_c, 1, 62, 0
3, 122200, Note_on_c, 1, 67, 80
3, 122219, Note_on_c, 1, 67, 0
3, 122220, Note_on_c, 1, 71, 89
3, 122239, Note_on_c, 1, 71, 0
3, 122240, Note_on_c, 1, 67, 76
3, 122259, Note_on_c, 1, 67, 0
3, 122260, Note_on_c, 1, 62, 72
3, 122279, Note_on_c, 1, 62, 0
3, 122280, Control_c, 1, 64, 0
3, 122280, Note_on_c, 1, 59, 107
3, 122280, Control_c, 1, 64, 127
3, 122299, Note_on_c, 1, 59, 0
3, 122300, Note_on_c, 1, 62, 80
3, 122319, Note_on_c, 1, 62, 0
3, 122320, Note_on_c, 1, 67, 89
3, 122339, Note_on_c, 1, 67, 0
3, 122340, Note_on_c, 1, 71, 80
3, 122359, Note_on_c, 1, 71, 0
3, 122360, Note_on_c, 1, 67, 76
3, 122379, Note_on_c, 1, 67, 0
3, 122380, Note_on_c, 1, 62, 85
3, 122399, Note_on_c, 1, 62, 0
3, 122400, Control_c, 1, 64, 0
3, 122400, Note_on_c, 1, 59, 102
3, 122400, Control_c, 1, 64, 127
3, 122400, Note_on_c, 1, 41, 93
3, 122400, Note_on_c, 1, 53, 93
3, 122414, Control_c, 1, 64, 127
3, 122419, Note_on_c, 1, 59, 0
3, 122420, Note_on_c, 1, 62, 89
3, 122439, Note_on_c, 1, 62, 0
3, 122440, Note_on_c, 1, 67, 80
3, 122445, Note_on_c, 1, 53, 0
3, 122448, Note_on_c, 1, 41, 0
3, 122459, Note_on_c, 1, 67, 0
3, 122459, Control_c, 1, 64, 0
3, 122460, Note_on_c, 1, 71, 80
3, 122479, Note_on_c, 1, 71, 0
3, 122480, Note_on_c, 1, 67, 80
3, 122499, Note_on_c, 1, 67, 0
3, 122500, Note_on_c, 1, 62, 64
3, 122519, Note_on_c, 1, 62, 0
3, 122520, Control_c, 1, 64, 0
3, 122520, Note_on_c, 1, 59, 102
3, 122520, Control_c, 1, 64, 127
3, 122520, Note_on_c, 1, 38, 98
3, 122520, Note_on_c, 1, 50, 98
3, 122524, Control_c, 1, 64, 127
3, 122539, Note_on_c, 1, 59, 0
3, 122540, Note_on_c, 1, 62, 80
3, 122559, Note_on_c, 1, 62, 0
3, 122560, Note_on_c, 1, 67, 80
3, 122565, Note_on_c, 1, 50, 0
3, 122569, Note_on_c, 1, 38, 0
3, 122579, Note_on_c, 1, 67, 0
3, 122580, Note_on_c, 1, 71, 76
3, 122590, Control_c, 1, 64, 0
3, 122599, Note_on_c, 1, 71, 0
3, 122600, Note_on_c, 1, 67, 76
3, 122619, Note_on_c, 1, 67, 0
3, 122620, Note_on_c, 1, 62, 76
3, 122639, Note_on_c, 1, 62, 0
3, 122640, Control_c, 1, 64, 0
3, 122640, Note_on_c, 1, 59, 102
3, 122640, Control_c, 1, 64, 127
3, 122640, Note_on_c, 1, 35, 89
3, 122640, Note_on_c, 1, 47, 93
3, 122647, Control_c, 1, 64, 127
3, 122659, Note_on_c, 1, 59, 0
3, 122660, Note_on_c, 1, 62, 85
3, 122672, Note_on_c, 1, 47, 0
3, 122674, Note_on_c, 1, 35, 0
3, 122679, Note_on_c, 1, 62, 0
3, 122680, Note_on_c, 1, 67, 72
3, 122699, Note_on_c, 1, 67, 0
3, 122700, Note_on_c, 1, 71, 89
3, 122714, Control_c, 1, 64, 0
3, 122719, Note_on_c, 1, 71, 0
3, 122720, Note_on_c, 1, 67, 76
3, 122739, Note_on_c, 1, 67, 0
3, 122740, Note_on_c, 1, 62, 80
3, 122759, Note_on_c, 1, 62, 0
3, 122760, Note_on_c, 1, 59, 98
3, 122760, Control_c, 1, 64, 0
3, 122760, Control_c, 1, 64, 127
3, 122760, Note_on_c, 1, 31, 98
3, 122760, Note_on_c, 1, 43, 93
3, 122765, Control_c, 1, 64, 127
3, 122779, Note_on_c, 1, 59, 0
3, 122780, Note_on_c, 1, 62, 76
3, 122799, Note_on_c, 1, 62, 0
3, 122800, Note_on_c, 1, 67, 85
3, 122810, Note_on_c, 1, 43, 0
3, 122812, Note_on_c, 1, 31, 0
3, 122819, Note_on_c, 1, 67, 0
3, 122820, Control_c, 1, 64, 0
3, 122820, Note_on_c, 1, 58, 102
3, 122820, Control_c, 1, 64, 127
3, 122834, Control_c, 1, 64, 0
3, 122839, Note_on_c, 1, 58, 0
3, 122840, Note_on_c, 1, 61, 72
3, 122859, Note_on_c, 1, 61, 0
3, 122860, Note_on_c, 1, 67, 93
3, 122879, Note_on_c, 1, 67, 0
3, 122880, Control_c, 1, 64, 0
3, 122880, Note_on_c, 1, 59, 102
3, 122880, Control_c, 1, 64, 127
3, 122899, Note_on_c, 1, 59, 0
3, 122900, Note_on_c, 1, 62, 76
3, 122919, Note_on_c, 1, 62, 0
3, 122920, Note_on_c, 1, 67, 93
3, 122939, Note_on_c, 1, 67, 0
3, 122940, Control_c, 1, 64, 0
3, 122940, Note_on_c, 1, 61, 102
3, 122940, Control_c, 1, 64, 127
3, 122959, Note_on_c, 1, 61, 0
3, 122960, Note_on_c, 1, 64, 80
3, 122979, Note_on_c, 1, 64, 0
3, 122980, Note_on_c, 1, 67, 85
3, 122999, Note_on_c, 1, 67, 0
3, 123000, Control_c, 1, 64, 0
3, 123000, Note_on_c, 1, 62, 93
3, 123000, Control_c, 1, 64, 127
3, 123019, Note_on_c, 1, 62, 0
3, 123020, Note_on_c, 1, 65, 76
3, 123039, Note_on_c, 1, 65, 0
3, 123040, Note_on_c, 1, 67, 76
3, 123059, Note_on_c, 1, 67, 0
3, 123060, Control_c, 1, 64, 0
3, 123060, Note_on_c, 1, 61, 102
3, 123060, Control_c, 1, 64, 127
3, 123079, Note_on_c, 1, 61, 0
3, 123080, Note_on_c, 1, 64, 80
3, 123099, Note_on_c, 1, 64, 0
3, 123100, Note_on_c, 1, 67, 80
3, 123119, Note_on_c, 1, 67, 0
3, 123120, Control_c, 1, 64, 0
3, 123120, Note_on_c, 1, 62, 102
3, 123120, Control_c, 1, 64, 127
3, 123139, Note_on_c, 1, 62, 0
3, 123140, Note_on_c, 1, 65, 76
3, 123159, Note_on_c, 1, 65, 0
3, 123160, Note_on_c, 1, 67, 80
3, 123179, Note_on_c, 1, 67, 0
3, 123180, Control_c, 1, 64, 0
3, 123180, Note_on_c, 1, 61, 102
3, 123180, Control_c, 1, 64, 127
3, 123199, Note_on_c, 1, 61, 0
3, 123200, Note_on_c, 1, 64, 89
3, 123219, Note_on_c, 1, 64, 0
3, 123220, Note_on_c, 1, 67, 89
3, 123239, Note_on_c, 1, 67, 0
3, 123240, Note_on_c, 1, 67, 85
3, 123240, Note_on_c, 1, 65, 89
3, 123240, Note_on_c, 1, 62, 89
3, 123405, Note_on_c, 1, 65, 0
3, 123413, Note_on_c, 1, 62, 0
3, 123420, Note_on_c, 1, 64, 76
3, 123420, Note_on_c, 1, 60, 85
3, 123470, Note_on_c, 1, 67, 0
3, 123474, Note_on_c, 1, 60, 0
3, 123478, Note_on_c, 1, 64, 0
3, 123480, Note_on_c, 1, 67, 60
3, 123480, Note_on_c, 1, 62, 89
3, 123480, Note_on_c, 1, 59, 76
3, 123539, Note_on_c, 1, 59, 0
3, 123540, Note_on_c, 1, 62, 0
3, 123540, Note_on_c, 1, 67, 0
3, 123600, Note_on_c, 1, 67, 80
3, 123600, Note_on_c, 1, 59, 76
3, 123600, Note_on_c, 1, 62, 85
3, 123663, Note_on_c, 1, 62, 0
3, 123664, Note_on_c, 1, 59, 0
3, 123666, Note_on_c, 1, 67, 0
3, 123720, Note_on_c, 1, 67, 85
3, 123720, Note_on_c, 1, 59, 85
3, 123720, Note_on_c, 1, 62, 89
3, 123792, Note_on_c, 1, 59, 0
3, 123793, Note_on_c, 1, 62, 0
3, 123794, Note_on_c, 1, 67, 0
3, 124200, Control_c, 1, 64, 127
3, 124200, Note_on_c, 1, 55, 68
3, 124219, Note_on_c, 1, 55, 0
3, 124220, Note_on_c, 1, 60, 72
3, 124239, Note_on_c, 1, 60, 0
3, 124240, Note_on_c, 1, 64, 72
3, 124259, Note_on_c, 1, 64, 0
3, 124260, Note_on_c, 1, 67, 57
3, 124279, Note_on_c, 1, 67, 0
3, 124280, Note_on_c, 1, 64, 76
3, 124299, Note_on_c, 1, 64, 0
3, 124300, Note_on_c, 1, 60, 62
3, 124319, Note_on_c, 1, 60, 0
3, 124320, Note_on_c, 1, 55, 64
3, 124339, Note_on_c, 1, 55, 0
3, 124340, Note_on_c, 1, 60, 60
3, 124359, Note_on_c, 1, 60, 0
3, 124360, Note_on_c, 1, 64, 62
3, 124379, Note_on_c, 1, 64, 0
3, 124380, Note_on_c, 1, 67, 62
3, 124399, Note_on_c, 1, 67, 0
3, 124400, Note_on_c, 1, 64, 72
3, 124419, Note_on_c, 1, 64, 0
3, 124420, Note_on_c, 1, 60, 76
3, 124439, Note_on_c, 1, 60, 0
3, 124440, Control_c, 1, 64, 0
3, 124440, Note_on_c, 1, 55, 102
3, 124440, Control_c, 1, 64, 127
3, 124440, Note_on_c, 1, 36, 85
3, 124440, Note_on_c, 1, 48, 85
3, 124459, Note_on_c, 1, 55, 0
3, 124460, Note_on_c, 1, 60, 89
3, 124469, Control_c, 1, 64, 127
3, 124479, Note_on_c, 1, 60, 0
3, 124480, Note_on_c, 1, 64, 80
3, 124499, Note_on_c, 1, 64, 0
3, 124500, Note_on_c, 1, 67, 98
3, 124519, Note_on_c, 1, 67, 0
3, 124520, Note_on_c, 1, 64, 76
3, 124539, Note_on_c, 1, 64, 0
3, 124540, Note_on_c, 1, 60, 89
3, 124559, Note_on_c, 1, 60, 0
3, 124560, Note_on_c, 1, 55, 93
3, 124579, Note_on_c, 1, 55, 0
3, 124580, Note_on_c, 1, 60, 93
3, 124599, Note_on_c, 1, 60, 0
3, 124600, Note_on_c, 1, 64, 89
3, 124619, Note_on_c, 1, 64, 0
3, 124620, Note_on_c, 1, 67, 85
3, 124639, Note_on_c, 1, 67, 0
3, 124640, Note_on_c, 1, 64, 80
3, 124659, Note_on_c, 1, 64, 0
3, 124660, Note_on_c, 1, 60, 76
3, 124679, Note_on_c, 1, 60, 0
3, 124680, Note_on_c, 1, 48, 0
3, 124680, Control_c, 1, 64, 0
3, 124680, Note_on_c, 1, 55, 72
3, 124680, Control_c, 1, 64, 127
3, 124684, Note_on_c, 1, 36, 0
3, 124690, Control_c, 1, 64, 0
3, 124699, Note_on_c, 1, 55, 0
3, 124700, Note_on_c, 1, 62, 57
3, 124719, Note_on_c, 1, 62, 0
3, 124720, Note_on_c, 1, 65, 72
3, 124739, Note_on_c, 1, 65, 0
3, 124740, Note_on_c, 1, 67, 62
3, 124759, Note_on_c, 1, 67, 0
3, 124760, Note_on_c, 1, 65, 64
3, 124779, Note_on_c, 1, 65, 0
3, 124780, Note_on_c, 1, 62, 62
3, 124799, Note_on_c, 1, 62, 0
3, 124800, Note_on_c, 1, 55, 72
3, 124819, Note_on_c, 1, 55, 0
3, 124820, Note_on_c, 1, 62, 64
3, 124839, Note_on_c, 1, 62, 0
3, 124840, Note_on_c, 1, 65, 72
3, 124859, Note_on_c, 1, 65, 0
3, 124860, Note_on_c, 1, 67, 64
3, 124879, Note_on_c, 1, 67, 0
3, 124880, Note_on_c, 1, 65, 64
3, 124899, Note_on_c, 1, 65, 0
3, 124900, Note_on_c, 1, 62, 76
3, 124919, Note_on_c, 1, 62, 0
3, 124920, Control_c, 1, 64, 0
3, 124920, Note_on_c, 1, 55, 98
3, 124920, Control_c, 1, 64, 127
3, 124920, Note_on_c, 1, 35, 80
3, 124920, Note_on_c, 1, 47, 76
3, 124939, Note_on_c, 1, 55, 0
3, 124940, Note_on_c, 1, 62, 93
3, 124959, Note_on_c, 1, 62, 0
3, 124960, Note_on_c, 1, 65, 93
3, 124962, Control_c, 1, 64, 127
3, 124979, Note_on_c, 1, 65, 0
3, 124980, Note_on_c, 1, 67, 93
3, 124999, Note_on_c, 1, 67, 0
3, 125000, Note_on_c, 1, 65, 80
3, 125019, Note_on_c, 1, 65, 0
3, 125020, Note_on_c, 1, 62, 89
3, 125039, Note_on_c, 1, 62, 0
3, 125040, Control_c, 1, 64, 0
3, 125040, Note_on_c, 1, 55, 93
3, 125040, Control_c, 1, 64, 127
3, 125059, Note_on_c, 1, 55, 0
3, 125060, Note_on_c, 1, 62, 89
3, 125079, Note_on_c, 1, 62, 0
3, 125080, Note_on_c, 1, 65, 85
3, 125099, Note_on_c, 1, 65, 0
3, 125100, Note_on_c, 1, 67, 89
3, 125112, Note_on_c, 1, 47, 0
3, 125114, Note_on_c, 1, 35, 0
3, 125119, Note_on_c, 1, 67, 0
3, 125120, Note_on_c, 1, 65, 80
3, 125139, Note_on_c, 1, 65, 0
3, 125140, Note_on_c, 1, 62, 76
3, 125159, Note_on_c, 1, 62, 0
3, 125160, Note_on_c, 1, 55, 90
3, 125160, Control_c, 1, 64, 0
3, 125160, Control_c, 1, 64, 127
3, 125163, Control_c, 1, 64, 0
3, 125179, Note_on_c, 1, 55, 0
3, 125180, Note_on_c, 1, 60, 72
3, 125199, Note_on_c, 1, 60, 0
3, 125200, Note_on_c, 1, 64, 72
3, 125219, Note_on_c, 1, 64, 0
3, 125220, Control_c, 1, 64, 0
3, 125220, Note_on_c, 1, 58, 93
3, 125220, Control_c, 1, 64, 127
3, 125239, Note_on_c, 1, 58, 0
3, 125240, Note_on_c, 1, 60, 51
3, 125259, Note_on_c, 1, 60, 0
3, 125260, Note_on_c, 1, 67, 72
3, 125279, Note_on_c, 1, 67, 0
3, 125280, Control_c, 1, 64, 0
3, 125280, Note_on_c, 1, 57, 93
3, 125280, Control_c, 1, 64, 127
3, 125299, Note_on_c, 1, 57, 0
3, 125300, Note_on_c, 1, 60, 60
3, 125319, Note_on_c, 1, 60, 0
3, 125320, Note_on_c, 1, 65, 64
3, 125339, Note_on_c, 1, 65, 0
3, 125340, Control_c, 1, 64, 0
3, 125340, Note_on_c, 1, 56, 98
3, 125340, Control_c, 1, 64, 127
3, 125359, Note_on_c, 1, 56, 0
3, 125360, Note_on_c, 1, 60, 62
3, 125379, Note_on_c, 1, 60, 0
3, 125380, Note_on_c, 1, 65, 68
3, 125399, Note_on_c, 1, 65, 0
3, 125400, Control_c, 1, 64, 0
3, 125400, Note_on_c, 1, 55, 93
3, 125400, Control_c, 1, 64, 127
3, 125419, Note_on_c, 1, 55, 0
3, 125420, Note_on_c, 1, 59, 64
3, 125439, Note_on_c, 1, 59, 0
3, 125440, Note_on_c, 1, 62, 76
3, 125459, Note_on_c, 1, 62, 0
3, 125460, Note_on_c, 1, 65, 64
3, 125479, Note_on_c, 1, 65, 0
3, 125480, Note_on_c, 1, 62, 62
3, 125499, Note_on_c, 1, 62, 0
3, 125500, Note_on_c, 1, 59, 62
3, 125519, Note_on_c, 1, 59, 0
3, 125520, Control_c, 1, 64, 0
3, 125520, Note_on_c, 1, 55, 89
3, 125520, Control_c, 1, 64, 127
3, 125539, Note_on_c, 1, 55, 0
3, 125540, Note_on_c, 1, 62, 62
3, 125559, Note_on_c, 1, 62, 0
3, 125560, Note_on_c, 1, 65, 76
3, 125579, Note_on_c, 1, 65, 0
3, 125580, Note_on_c, 1, 67, 72
3, 125599, Note_on_c, 1, 67, 0
3, 125600, Note_on_c, 1, 65, 62
3, 125619, Note_on_c, 1, 65, 0
3, 125620, Note_on_c, 1, 62, 72
3, 125639, Note_on_c, 1, 62, 0
3, 125640, Control_c, 1, 64, 0
3, 125640, Note_on_c, 1, 55, 98
3, 125640, Control_c, 1, 64, 127
3, 125659, Note_on_c, 1, 55, 0
3, 125660, Note_on_c, 1, 60, 72
3, 125679, Note_on_c, 1, 60, 0
3, 125680, Note_on_c, 1, 64, 76
3, 125699, Note_on_c, 1, 64, 0
3, 125700, Control_c, 1, 64, 0
3, 125700, Note_on_c, 1, 58, 98
3, 125700, Control_c, 1, 64, 127
3, 125719, Note_on_c, 1, 58, 0
3, 125720, Note_on_c, 1, 60, 68
3, 125739, Note_on_c, 1, 60, 0
3, 125740, Note_on_c, 1, 67, 76
3, 125759, Note_on_c, 1, 67, 0
3, 125760, Control_c, 1, 64, 0
3, 125760, Note_on_c, 1, 57, 98
3, 125760, Control_c, 1, 64, 127
3, 125779, Note_on_c, 1, 57, 0
3, 125780, Note_on_c, 1, 60, 60
3, 125799, Note_on_c, 1, 60, 0
3, 125800, Note_on_c, 1, 65, 60
3, 125819, Note_on_c, 1, 65, 0
3, 125820, Control_c, 1, 64, 0
3, 125820, Note_on_c, 1, 56, 102
3, 125820, Control_c, 1, 64, 127
3, 125839, Note_on_c, 1, 56, 0
3, 125840, Note_on_c, 1, 60, 68
3, 125859, Note_on_c, 1, 60, 0
3, 125860, Note_on_c, 1, 65, 64
3, 125879, Note_on_c, 1, 65, 0
3, 125880, Control_c, 1, 64, 0
3, 125880, Note_on_c, 1, 55, 93
3, 125880, Control_c, 1, 64, 127
3, 125899, Note_on_c, 1, 55, 0
3, 125900, Note_on_c, 1, 59, 72
3, 125919, Note_on_c, 1, 59, 0
3, 125920, Note_on_c, 1, 62, 64
3, 125939, Note_on_c, 1, 62, 0
3, 125940, Note_on_c, 1, 65, 72
3, 125959, Note_on_c, 1, 65, 0
3, 125960, Note_on_c, 1, 62, 53
3, 125979, Note_on_c, 1, 62, 0
3, 125980, Note_on_c, 1, 59, 60
3, 125999, Note_on_c, 1, 59, 0
3, 126000, Control_c, 1, 64, 0
3, 126000, Note_on_c, 1, 55, 89
3, 126000, Control_c, 1, 64, 127
3, 126019, Note_on_c, 1, 55, 0
3, 126020, Note_on_c, 1, 62, 76
3, 126039, Note_on_c, 1, 62, 0
3, 126040, Note_on_c, 1, 65, 72
3, 126059, Note_on_c, 1, 65, 0
3, 126060, Note_on_c, 1, 67, 80
3, 126079, Note_on_c, 1, 67, 0
3, 126080, Note_on_c, 1, 65, 72
3, 126099, Note_on_c, 1, 65, 0
3, 126100, Note_on_c, 1, 62, 72
3, 126119, Note_on_c, 1, 62, 0
3, 126120, Note_on_c, 1, 60, 102
3, 126120, Control_c, 1, 64, 127
3, 126139, Note_on_c, 1, 60, 0
3, 126140, Note_on_c, 1, 64, 76
3, 126159, Note_on_c, 1, 64, 0
3, 126160, Note_on_c, 1, 67, 80
3, 126179, Note_on_c, 1, 67, 0
3, 126180, Control_c, 1, 64, 0
3, 126180, Note_on_c, 1, 52, 98
3, 126180, Control_c, 1, 64, 127
3, 126199, Note_on_c, 1, 52, 0
3, 126200, Note_on_c, 1, 55, 85
3, 126219, Note_on_c, 1, 55, 0
3, 126220, Note_on_c, 1, 60, 72
3, 126239, Note_on_c, 1, 60, 0
3, 126240, Control_c, 1, 64, 0
3, 126240, Note_on_c, 1, 53, 102
3, 126240, Control_c, 1, 64, 127
3, 126259, Note_on_c, 1, 53, 0
3, 126260, Note_on_c, 1, 57, 76
3, 126279, Note_on_c, 1, 57, 0
3, 126280, Note_on_c, 1, 62, 72
3, 126299, Note_on_c, 1, 62, 0
3, 126300, Control_c, 1, 64, 0
3, 126300, Note_on_c, 1, 55, 107
3, 126300, Control_c, 1, 64, 127
3, 126300, Control_c, 1, 64, 127
3, 126300, Note_on_c, 1, 43, 93
3, 126319, Note_on_c, 1, 55, 0
3, 126320, Note_on_c, 1, 59, 72
3, 126339, Note_on_c, 1, 59, 0
3, 126340, Note_on_c, 1, 65, 76
3, 126344, Note_on_c, 1, 43, 0
3, 126358, Control_c, 1, 64, 0
3, 126359, Note_on_c, 1, 65, 0
3, 126360, Control_c, 1, 64, 0
3, 126360, Note_on_c, 1, 55, 107
3, 126360, Control_c, 1, 64, 127
3, 126360, Note_on_c, 1, 48, 93
3, 126375, Control_c, 1, 64, 127
3, 126379, Note_on_c, 1, 55, 0
3, 126380, Note_on_c, 1, 60, 76
3, 126398, Note_on_c, 1, 48, 0
3, 126399, Note_on_c, 1, 60, 0
3, 126400, Note_on_c, 1, 64, 76
3, 126419, Note_on_c, 1, 64, 0
3, 126420, Note_on_c, 1, 67, 80
3, 126432, Control_c, 1, 64, 0
3, 126439, Note_on_c, 1, 67, 0
3, 126440, Note_on_c, 1, 64, 68
3, 126459, Note_on_c, 1, 64, 0
3, 126460, Note_on_c, 1, 60, 72
3, 126479, Note_on_c, 1, 60, 0
3, 126480, Control_c, 1, 64, 0
3, 126480, Note_on_c, 1, 55, 98
3, 126480, Control_c, 1, 64, 127
3, 126480, Note_on_c, 1, 36, 98
3, 126480, Note_on_c, 1, 40, 93
3, 126480, Note_on_c, 1, 48, 98
3, 126480, Note_on_c, 1, 43, 93
3, 126490, Control_c, 1, 64, 127
3, 126499, Note_on_c, 1, 55, 0
3, 126500, Note_on_c, 1, 60, 76
3, 126519, Note_on_c, 1, 60, 0
3, 126520, Note_on_c, 1, 64, 64
3, 126531, Note_on_c, 1, 43, 0
3, 126532, Note_on_c, 1, 40, 0
3, 126533, Note_on_c, 1, 36, 0
3, 126533, Note_on_c, 1, 48, 0
3, 126539, Note_on_c, 1, 64, 0
3, 126540, Note_on_c, 1, 67, 80
3, 126559, Note_on_c, 1, 67, 0
3, 126560, Note_on_c, 1, 64, 72
3, 126566, Control_c, 1, 64, 0
3, 126579, Note_on_c, 1, 64, 0
3, 126580, Note_on_c, 1, 60, 76
3, 126599, Note_on_c, 1, 60, 0
3, 126600, Control_c, 1, 64, 0
3, 126600, Note_on_c, 1, 59, 102
3, 126600, Control_c, 1, 64, 127
3, 126619, Note_on_c, 1, 59, 0
3, 126620, Note_on_c, 1, 64, 76
3, 126639, Note_on_c, 1, 64, 0
3, 126640, Note_on_c, 1, 68, 76
3, 126659, Note_on_c, 1, 68, 0
3, 126660, Note_on_c, 1, 71, 93
3, 126679, Note_on_c, 1, 71, 0
3, 126680, Note_on_c, 1, 68, 76
3, 126699, Note_on_c, 1, 68, 0
3, 126700, Note_on_c, 1, 64, 76
3, 126719, Note_on_c, 1, 64, 0
3, 126720, Control_c, 1, 64, 0
3, 126720, Note_on_c, 1, 59, 107
3, 126720, Control_c, 1, 64, 127
3, 126720, Note_on_c, 1, 44, 89
3, 126720, Note_on_c, 1, 52, 93
3, 126720, Note_on_c, 1, 56, 89
3, 126720, Note_on_c, 1, 47, 98
3, 126739, Note_on_c, 1, 59, 0
3, 126740, Note_on_c, 1, 64, 76
3, 126759, Note_on_c, 1, 64, 0
3, 126760, Note_on_c, 1, 68, 76
3, 126779, Note_on_c, 1, 68, 0
3, 126780, Note_on_c, 1, 71, 89
3, 126782, Note_on_c, 1, 47, 0
3, 126783, Note_on_c, 1, 52, 0
3, 126785, Note_on_c, 1, 56, 0
3, 126787, Note_on_c, 1, 44, 0
3, 126799, Note_on_c, 1, 71, 0
3, 126800, Note_on_c, 1, 68, 98
3, 126819, Note_on_c, 1, 68, 0
3, 126820, Note_on_c, 1, 64, 80
3, 126839, Note_on_c, 1, 64, 0
3, 126840, Control_c, 1, 64, 0
3, 126840, Note_on_c, 1, 60, 107
3, 126840, Control_c, 1, 64, 127
3, 126859, Note_on_c, 1, 60, 0
3, 126860, Note_on_c, 1, 64, 89
3, 126879, Note_on_c, 1, 64, 0
3, 126880, Note_on_c, 1, 69, 89
3, 126899, Note_on_c, 1, 69, 0
3, 126900, Note_on_c, 1, 72, 89
3, 126919, Note_on_c, 1, 72, 0
3, 126920, Note_on_c, 1, 69, 89
3, 126939, Note_on_c, 1, 69, 0
3, 126940, Note_on_c, 1, 64, 80
3, 126959, Note_on_c, 1, 64, 0
3, 126960, Control_c, 1, 64, 0
3, 126960, Note_on_c, 1, 60, 107
3, 126960, Control_c, 1, 64, 127
3, 126960, Note_on_c, 1, 45, 89
3, 126960, Note_on_c, 1, 48, 85
3, 126960, Note_on_c, 1, 57, 93
3, 126960, Note_on_c, 1, 52, 93
3, 126968, Control_c, 1, 64, 127
3, 126979, Note_on_c, 1, 60, 0
3, 126980, Note_on_c, 1, 64, 89
3, 126999, Note_on_c, 1, 64, 0
3, 127000, Note_on_c, 1, 69, 89
3, 127016, Note_on_c, 1, 52, 0
3, 127016, Note_on_c, 1, 57, 0
3, 127019, Note_on_c, 1, 69, 0
3, 127019, Note_on_c, 1, 48, 0
3, 127020, Note_on_c, 1, 45, 0
3, 127020, Note_on_c, 1, 72, 89
3, 127038, Control_c, 1, 64, 0
3, 127039, Note_on_c, 1, 72, 0
3, 127040, Note_on_c, 1, 69, 93
3, 127059, Note_on_c, 1, 69, 0
3, 127060, Note_on_c, 1, 64, 89
3, 127079, Note_on_c, 1, 64, 0
3, 127080, Control_c, 1, 64, 0
3, 127080, Note_on_c, 1, 57, 107
3, 127080, Control_c, 1, 64, 127
3, 127099, Note_on_c, 1, 57, 0
3, 127100, Note_on_c, 1, 62, 76
3, 127119, Note_on_c, 1, 62, 0
3, 127120, Note_on_c, 1, 66, 68
3, 127139, Note_on_c, 1, 66, 0
3, 127140, Note_on_c, 1, 69, 85
3, 127159, Note_on_c, 1, 69, 0
3, 127160, Note_on_c, 1, 66, 68
3, 127179, Note_on_c, 1, 66, 0
3, 127180, Note_on_c, 1, 62, 72
3, 127199, Note_on_c, 1, 62, 0
3, 127200, Control_c, 1, 64, 0
3, 127200, Note_on_c, 1, 57, 98
3, 127200, Control_c, 1, 64, 127
3, 127200, Note_on_c, 1, 42, 85
3, 127200, Note_on_c, 1, 54, 85
3, 127200, Note_on_c, 1, 45, 93
3, 127200, Note_on_c, 1, 50, 98
3, 127212, Control_c, 1, 64, 127
3, 127219, Note_on_c, 1, 57, 0
3, 127220, Note_on_c, 1, 62, 85
3, 127239, Note_on_c, 1, 62, 0
3, 127240, Note_on_c, 1, 66, 60
3, 127247, Note_on_c, 1, 50, 0
3, 127252, Note_on_c, 1, 45, 0
3, 127254, Note_on_c, 1, 42, 0
3, 127255, Note_on_c, 1, 54, 0
3, 127259, Note_on_c, 1, 66, 0
3, 127260, Note_on_c, 1, 69, 85
3, 127279, Note_on_c, 1, 69, 0
3, 127280, Note_on_c, 1, 66, 76
3, 127284, Control_c, 1, 64, 0
3, 127299, Note_on_c, 1, 66, 0
3, 127300, Note_on_c, 1, 62, 89
3, 127319, Note_on_c, 1, 62, 0
3, 127320, Control_c, 1, 64, 0
3, 127320, Note_on_c, 1, 59, 107
3, 127320, Control_c, 1, 64, 127
3, 127339, Note_on_c, 1, 59, 0
3, 127340, Note_on_c, 1, 62, 85
3, 127359, Note_on_c, 1, 62, 0
3, 127360, Note_on_c, 1, 67, 80
3, 127379, Note_on_c, 1, 67, 0
3, 127380, Note_on_c, 1, 71, 89
3, 127399, Note_on_c, 1, 71, 0
3, 127400, Note_on_c, 1, 67, 76
3, 127419, Note_on_c, 1, 67, 0
3, 127420, Note_on_c, 1, 62, 80
3, 127439, Note_on_c, 1, 62, 0
3, 127440, Control_c, 1, 64, 0
3, 127440, Note_on_c, 1, 59, 107
3, 127440, Control_c, 1, 64, 127
3, 127440, Note_on_c, 1, 43, 89
3, 127440, Note_on_c, 1, 55, 93
3, 127440, Note_on_c, 1, 47, 93
3, 127440, Note_on_c, 1, 50, 98
3, 127442, Control_c, 1, 64, 127
3, 127459, Note_on_c, 1, 59, 0
3, 127460, Note_on_c, 1, 62, 85
3, 127475, Note_on_c, 1, 50, 0
3, 127476, Note_on_c, 1, 55, 0
3, 127477, Note_on_c, 1, 47, 0
3, 127479, Note_on_c, 1, 62, 0
3, 127480, Note_on_c, 1, 67, 76
3, 127481, Note_on_c, 1, 43, 0
3, 127499, Note_on_c, 1, 67, 0
3, 127500, Note_on_c, 1, 71, 76
3, 127519, Note_on_c, 1, 71, 0
3, 127520, Note_on_c, 1, 67, 76
3, 127521, Control_c, 1, 64, 0
3, 127539, Note_on_c, 1, 67, 0
3, 127540, Note_on_c, 1, 62, 72
3, 127559, Note_on_c, 1, 62, 0
3, 127560, Control_c, 1, 64, 0
3, 127560, Note_on_c, 1, 61, 93
3, 127560, Note_on_c, 1, 52, 107
3, 127560, Note_on_c, 1, 55, 93
3, 127560, Note_on_c, 1, 57, 89
3, 127560, Control_c, 1, 64, 127
3, 127560, Note_on_c, 1, 40, 93
3, 127560, Note_on_c, 1, 49, 93
3, 127560, Note_on_c, 1, 43, 89
3, 127560, Note_on_c, 1, 45, 93
3, 127584, Control_c, 1, 64, 127
3, 127613, Control_c, 1, 64, 0
3, 127618, Note_on_c, 1, 45, 0
3, 127619, Note_on_c, 1, 61, 0
3, 127619, Note_on_c, 1, 52, 0
3, 127619, Note_on_c, 1, 43, 0
3, 127619, Note_on_c, 1, 55, 0
3, 127619, Note_on_c, 1, 57, 0
3, 127620, Control_c, 1, 64, 0
3, 127622, Note_on_c, 1, 49, 0
3, 127622, Note_on_c, 1, 40, 0
3, 127800, Note_on_c, 1, 54, 89
3, 127800, Note_on_c, 1, 57, 98
3, 127800, Note_on_c, 1, 50, 93
3, 127800, Note_on_c, 1, 60, 93
3, 127800, Control_c, 1, 64, 127
3, 127800, Note_on_c, 1, 38, 93
3, 127800, Note_on_c, 1, 42, 68
3, 127800, Note_on_c, 1, 48, 93
3, 127800, Note_on_c, 1, 45, 93
3, 127807, Control_c, 1, 64, 127
3, 127859, Note_on_c, 1, 45, 0
3, 127859, Note_on_c, 1, 54, 0
3, 127859, Note_on_c, 1, 38, 0
3, 127859, Note_on_c, 1, 57, 0
3, 127859, Note_on_c, 1, 50, 0
3, 127859, Note_on_c, 1, 60, 0
3, 127859, Note_on_c, 1, 42, 0
3, 127859, Note_on_c, 1, 48, 0
3, 127860, Control_c, 1, 64, 0
3, 127874, Control_c, 1, 64, 0
3, 128282, Note_on_c, 1, 43, 59
3, 128282, Note_on_c, 1, 55, 89
3, 128288, Control_c, 1, 64, 127
3, 128310, Note_on_c, 1, 62, 80
3, 128311, Note_on_c, 1, 55, 0
3, 128335, Note_on_c, 1, 62, 0
3, 128340, Note_on_c, 1, 59, 62
3, 128357, Note_on_c, 1, 43, 0
3, 128370, Note_on_c, 1, 62, 64
3, 128371, Note_on_c, 1, 59, 0
3, 128381, Control_c, 1, 64, 0
3, 128400, Note_on_c, 1, 62, 0
3, 128400, Note_on_c, 1, 54, 64
3, 128400, Note_on_c, 1, 38, 85
3, 128405, Control_c, 1, 64, 127
3, 128430, Note_on_c, 1, 62, 76
3, 128431, Note_on_c, 1, 54, 0
3, 128445, Note_on_c, 1, 38, 0
3, 128458, Note_on_c, 1, 62, 0
3, 128460, Note_on_c, 1, 60, 72
3, 128462, Control_c, 1, 64, 0
3, 128476, Control_c, 1, 64, 127
3, 128486, Note_on_c, 1, 60, 0
3, 128490, Note_on_c, 1, 62, 80
3, 128516, Note_on_c, 1, 62, 0
3, 128518, Control_c, 1, 64, 0
3, 128520, Note_on_c, 1, 43, 72
3, 128520, Note_on_c, 1, 55, 85
3, 128534, Control_c, 1, 64, 127
3, 128550, Note_on_c, 1, 62, 76
3, 128552, Note_on_c, 1, 55, 0
3, 128575, Note_on_c, 1, 62, 0
3, 128576, Note_on_c, 1, 43, 0
3, 128580, Note_on_c, 1, 59, 80
3, 128583, Control_c, 1, 64, 0
3, 128598, Control_c, 1, 64, 127
3, 128609, Note_on_c, 1, 59, 0
3, 128610, Note_on_c, 1, 62, 62
3, 128639, Note_on_c, 1, 62, 0
3, 128640, Note_on_c, 1, 55, 68
3, 128644, Control_c, 1, 64, 0
3, 128656, Control_c, 1, 64, 127
3, 128670, Note_on_c, 1, 62, 80
3, 128672, Note_on_c, 1, 55, 0
3, 128695, Note_on_c, 1, 62, 0
3, 128700, Note_on_c, 1, 59, 68
3, 128727, Note_on_c, 1, 59, 0
3, 128730, Note_on_c, 1, 62, 80
3, 128738, Note_on_c, 1, 62, 0
3, 128756, Control_c, 1, 64, 0
3, 128760, Note_on_c, 1, 45, 89
3, 128760, Note_on_c, 1, 62, 89
3, 128777, Control_c, 1, 64, 127
3, 128790, Note_on_c, 1, 54, 62
3, 128791, Note_on_c, 1, 62, 0
3, 128809, Note_on_c, 1, 45, 0
3, 128817, Note_on_c, 1, 54, 0
3, 128820, Note_on_c, 1, 57, 89
3, 128822, Control_c, 1, 64, 0
3, 128835, Control_c, 1, 64, 127
3, 128848, Note_on_c, 1, 57, 0
3, 128850, Note_on_c, 1, 54, 64
3, 128861, Note_on_c, 1, 54, 0
3, 128877, Control_c, 1, 64, 0
3, 128880, Note_on_c, 1, 33, 68
3, 128880, Note_on_c, 1, 61, 85
3, 128880, Note_on_c, 1, 45, 68
3, 128891, Control_c, 1, 64, 127
3, 128910, Note_on_c, 1, 52, 62
3, 128913, Note_on_c, 1, 61, 0
3, 128937, Note_on_c, 1, 52, 0
3, 128939, Control_c, 1, 64, 0
3, 128940, Note_on_c, 1, 55, 76
3, 128944, Note_on_c, 1, 33, 0
3, 128945, Note_on_c, 1, 45, 0
3, 128953, Control_c, 1, 64, 127
3, 128970, Note_on_c, 1, 52, 76
3, 128972, Note_on_c, 1, 55, 0
3, 128980, Note_on_c, 1, 52, 0
3, 128997, Control_c, 1, 64, 0
3, 129000, Note_on_c, 1, 38, 76
3, 129000, Note_on_c, 1, 54, 89
3, 129000, Note_on_c, 1, 50, 62
3, 129014, Control_c, 1, 64, 127
3, 129028, Note_on_c, 1, 54, 0
3, 129030, Note_on_c, 1, 57, 80
3, 129060, Note_on_c, 1, 54, 62
3, 129061, Note_on_c, 1, 57, 0
3, 129061, Control_c, 1, 64, 0
3, 129062, Note_on_c, 1, 38, 0
3, 129062, Note_on_c, 1, 50, 0
3, 129075, Control_c, 1, 64, 127
3, 129090, Note_on_c, 1, 54, 0
3, 129090, Note_on_c, 1, 57, 76
3, 129116, Control_c, 1, 64, 0
3, 129120, Note_on_c, 1, 62, 89
3, 129121, Note_on_c, 1, 57, 0
3, 129129, Control_c, 1, 64, 127
3, 129149, Note_on_c, 1, 62, 0
3, 129150, Note_on_c, 1, 57, 80
3, 129171, Control_c, 1, 64, 0
3, 129179, Note_on_c, 1, 57, 0
3, 129180, Note_on_c, 1, 54, 72
3, 129183, Control_c, 1, 64, 127
3, 129204, Note_on_c, 1, 54, 0
3, 129210, Note_on_c, 1, 57, 76
3, 129220, Note_on_c, 1, 57, 0
3, 129237, Control_c, 1, 64, 0
3, 129240, Note_on_c, 1, 48, 80
3, 129240, Note_on_c, 1, 36, 85
3, 129258, Control_c, 1, 64, 127
3, 129270, Note_on_c, 1, 55, 89
3, 129297, Note_on_c, 1, 55, 0
3, 129300, Note_on_c, 1, 60, 89
3, 129330, Note_on_c, 1, 55, 72
3, 129332, Note_on_c, 1, 60, 0
3, 129356, Note_on_c, 1, 55, 0
3, 129360, Note_on_c, 1, 64, 93
3, 129360, Control_c, 1, 64, 0
3, 129372, Control_c, 1, 64, 127
3, 129390, Note_on_c, 1, 55, 59
3, 129396, Note_on_c, 1, 64, 0
3, 129420, Note_on_c, 1, 55, 0
3, 129420, Note_on_c, 1, 60, 89
3, 129448, Note_on_c, 1, 60, 0
3, 129448, Note_on_c, 1, 48, 0
3, 129449, Note_on_c, 1, 36, 0
3, 129450, Note_on_c, 1, 55, 68
3, 129461, Note_on_c, 1, 55, 0
3, 129479, Control_c, 1, 64, 0
3, 129480, Note_on_c, 1, 47, 60
3, 129480, Note_on_c, 1, 35, 68
3, 129480, Note_on_c, 1, 35, 89
3, 129480, Note_on_c, 1, 47, 85
3, 129510, Note_on_c, 1, 55, 89
3, 129537, Note_on_c, 1, 55, 0
3, 129540, Note_on_c, 1, 62, 89
3, 129544, Control_c, 1, 64, 127
3, 129546, Note_on_c, 1, 47, 0
3, 129550, Note_on_c, 1, 35, 0
3, 129559, Control_c, 1, 64, 0
3, 129569, Note_on_c, 1, 62, 0
3, 129570, Note_on_c, 1, 55, 89
3, 129571, Control_c, 1, 64, 127
3, 129588, Note_on_c, 1, 55, 0
3, 129597, Control_c, 1, 64, 0
3, 129600, Note_on_c, 1, 50, 102
3, 129611, Control_c, 1, 64, 127
3, 129628, Note_on_c, 1, 50, 0
3, 129630, Note_on_c, 1, 55, 72
3, 129651, Control_c, 1, 64, 0
3, 129660, Note_on_c, 1, 55, 0
3, 129660, Note_on_c, 1, 47, 0
3, 129660, Note_on_c, 1, 52, 89
3, 129661, Note_on_c, 1, 35, 0
3, 129664, Control_c, 1, 64, 127
3, 129687, Note_on_c, 1, 52, 0
3, 129690, Note_on_c, 1, 36, 80
3, 129690, Note_on_c, 1, 48, 76
3, 129690, Note_on_c, 1, 57, 93
3, 129699, Note_on_c, 1, 57, 0
3, 129701, Note_on_c, 1, 48, 0
3, 129701, Note_on_c, 1, 36, 0
3, 129713, Control_c, 1, 64, 0
3, 129720, Note_on_c, 1, 55, 98
3, 129720, Note_on_c, 1, 38, 89
3, 129720, Note_on_c, 1, 50, 76
3, 129735, Control_c, 1, 64, 127
3, 129750, Note_on_c, 1, 62, 72
3, 129751, Note_on_c, 1, 55, 0
3, 129774, Control_c, 1, 64, 0
3, 129777, Note_on_c, 1, 38, 0
3, 129777, Note_on_c, 1, 50, 0
3, 129777, Note_on_c, 1, 62, 0
3, 129780, Note_on_c, 1, 59, 85
3, 129789, Control_c, 1, 64, 127
3, 129809, Note_on_c, 1, 59, 0
3, 129810, Note_on_c, 1, 62, 76
3, 129829, Control_c, 1, 64, 0
3, 129839, Note_on_c, 1, 62, 0
3, 129840, Note_on_c, 1, 38, 89
3, 129840, Note_on_c, 1, 54, 93
3, 129840, Note_on_c, 1, 50, 72
3, 129845, Control_c, 1, 64, 127
3, 129870, Note_on_c, 1, 62, 85
3, 129872, Note_on_c, 1, 54, 0
3, 129896, Control_c, 1, 64, 0
3, 129900, Note_on_c, 1, 62, 0
3, 129900, Note_on_c, 1, 60, 85
3, 129903, Note_on_c, 1, 50, 0
3, 129905, Note_on_c, 1, 38, 0
3, 129929, Note_on_c, 1, 60, 0
3, 129930, Note_on_c, 1, 62, 89
3, 129960, Note_on_c, 1, 59, 93
3, 129960, Note_on_c, 1, 43, 76
3, 129960, Note_on_c, 1, 50, 60
3, 129960, Control_c, 1, 64, 127
3, 129961, Note_on_c, 1, 62, 0
3, 129990, Note_on_c, 1, 59, 0
3, 129990, Note_on_c, 1, 62, 76
3, 130018, Control_c, 1, 64, 0
3, 130020, Note_on_c, 1, 55, 76
3, 130022, Note_on_c, 1, 62, 0
3, 130023, Note_on_c, 1, 43, 0
3, 130024, Note_on_c, 1, 50, 0
3, 130033, Control_c, 1, 64, 127
3, 130049, Note_on_c, 1, 55, 0
3, 130050, Note_on_c, 1, 62, 80
3, 130075, Control_c, 1, 64, 0
3, 130078, Note_on_c, 1, 62, 0
3, 130080, Note_on_c, 1, 59, 76
3, 130088, Control_c, 1, 64, 127
3, 130110, Note_on_c, 1, 62, 85
3, 130112, Note_on_c, 1, 59, 0
3, 130133, Control_c, 1, 64, 0
3, 130140, Note_on_c, 1, 62, 0
3, 130140, Note_on_c, 1, 55, 76
3, 130145, Control_c, 1, 64, 127
3, 130166, Note_on_c, 1, 55, 0
3, 130170, Note_on_c, 1, 62, 64
3, 130179, Note_on_c, 1, 62, 0
3, 130195, Control_c, 1, 64, 0
3, 130200, Note_on_c, 1, 38, 89
3, 130200, Note_on_c, 1, 57, 93
3, 130209, Control_c, 1, 64, 127
3, 130227, Note_on_c, 1, 57, 0
3, 130230, Note_on_c, 1, 60, 80
3, 130259, Note_on_c, 1, 60, 0
3, 130260, Note_on_c, 1, 50, 89
3, 130286, Note_on_c, 1, 50, 0
3, 130290, Note_on_c, 1, 60, 59
3, 130314, Note_on_c, 1, 60, 0
3, 130320, Note_on_c, 1, 57, 93
3, 130349, Note_on_c, 1, 57, 0
3, 130350, Note_on_c, 1, 60, 72
3, 130379, Note_on_c, 1, 60, 0
3, 130380, Note_on_c, 1, 50, 85
3, 130408, Note_on_c, 1, 50, 0
3, 130410, Note_on_c, 1, 60, 72
3, 130436, Control_c, 1, 64, 0
3, 130439, Note_on_c, 1, 60, 0
3, 130440, Note_on_c, 1, 55, 89
3, 130449, Control_c, 1, 64, 127
3, 130470, Note_on_c, 1, 55, 0
3, 130470, Note_on_c, 1, 59, 76
3, 130500, Note_on_c, 1, 50, 85
3, 130501, Note_on_c, 1, 59, 0
3, 130529, Note_on_c, 1, 50, 0
3, 130530, Note_on_c, 1, 59, 76
3, 130556, Control_c, 1, 64, 0
3, 130560, Note_on_c, 1, 59, 0
3, 130560, Note_on_c, 1, 55, 93
3, 130567, Control_c, 1, 64, 127
3, 130590, Note_on_c, 1, 55, 0
3, 130590, Note_on_c, 1, 59, 72
3, 130620, Note_on_c, 1, 59, 0
3, 130620, Note_on_c, 1, 50, 85
3, 130648, Note_on_c, 1, 50, 0
3, 130650, Note_on_c, 1, 59, 72
3, 130663, Note_on_c, 1, 38, 0
3, 130664, Note_on_c, 1, 59, 0
3, 130678, Control_c, 1, 64, 0
3, 130680, Note_on_c, 1, 54, 85
3, 130680, Note_on_c, 1, 38, 76
3, 130692, Control_c, 1, 64, 127
3, 130708, Note_on_c, 1, 54, 0
3, 130710, Note_on_c, 1, 57, 80
3, 130739, Control_c, 1, 64, 0
3, 130740, Note_on_c, 1, 50, 89
3, 130744, Note_on_c, 1, 57, 0
3, 130749, Control_c, 1, 64, 127
3, 130770, Note_on_c, 1, 50, 0
3, 130770, Note_on_c, 1, 57, 76
3, 130798, Note_on_c, 1, 57, 0
3, 130799, Control_c, 1, 64, 0
3, 130800, Note_on_c, 1, 54, 72
3, 130810, Control_c, 1, 64, 127
3, 130829, Note_on_c, 1, 54, 0
3, 130830, Note_on_c, 1, 57, 80
3, 130855, Control_c, 1, 64, 0
3, 130860, Note_on_c, 1, 50, 76
3, 130862, Note_on_c, 1, 57, 0
3, 130865, Control_c, 1, 64, 127
3, 130889, Note_on_c, 1, 50, 0
3, 130890, Note_on_c, 1, 57, 76
3, 130917, Note_on_c, 1, 57, 0
3, 130917, Control_c, 1, 64, 0
3, 130920, Note_on_c, 1, 55, 89
3, 130930, Control_c, 1, 64, 127
3, 130950, Note_on_c, 1, 55, 0
3, 130950, Note_on_c, 1, 59, 89
3, 130978, Control_c, 1, 64, 0
3, 130979, Note_on_c, 1, 59, 0
3, 130980, Note_on_c, 1, 50, 85
3, 130988, Control_c, 1, 64, 127
3, 131009, Note_on_c, 1, 50, 0
3, 131010, Note_on_c, 1, 59, 62
3, 131039, Note_on_c, 1, 59, 0
3, 131040, Note_on_c, 1, 55, 76
3, 131041, Control_c, 1, 64, 0
3, 131050, Control_c, 1, 64, 127
3, 131070, Note_on_c, 1, 55, 0
3, 131070, Note_on_c, 1, 59, 68
3, 131100, Note_on_c, 1, 50, 76
3, 131102, Note_on_c, 1, 59, 0
3, 131126, Note_on_c, 1, 50, 0
3, 131130, Note_on_c, 1, 59, 85
3, 131137, Note_on_c, 1, 38, 0
3, 131153, Note_on_c, 1, 59, 0
3, 131155, Control_c, 1, 64, 0
3, 131160, Note_on_c, 1, 38, 80
3, 131160, Note_on_c, 1, 57, 93
3, 131170, Control_c, 1, 64, 127
3, 131190, Note_on_c, 1, 60, 76
3, 131192, Note_on_c, 1, 57, 0
3, 131216, Note_on_c, 1, 60, 0
3, 131220, Note_on_c, 1, 50, 72
3, 131248, Note_on_c, 1, 50, 0
3, 131250, Note_on_c, 1, 60, 72
3, 131273, Note_on_c, 1, 60, 0
3, 131280, Note_on_c, 1, 57, 85
3, 131310, Note_on_c, 1, 57, 0
3, 131310, Note_on_c, 1, 60, 80
3, 131339, Note_on_c, 1, 60, 0
3, 131340, Note_on_c, 1, 50, 68
3, 131367, Note_on_c, 1, 50, 0
3, 131370, Note_on_c, 1, 60, 76
3, 131395, Note_on_c, 1, 60, 0
3, 131399, Control_c, 1, 64, 0
3, 131400, Note_on_c, 1, 55, 89
3, 131413, Control_c, 1, 64, 127
3, 131430, Note_on_c, 1, 55, 0
3, 131430, Note_on_c, 1, 59, 60
3, 131459, Note_on_c, 1, 59, 0
3, 131460, Note_on_c, 1, 50, 76
3, 131461, Control_c, 1, 64, 0
3, 131469, Control_c, 1, 64, 127
3, 131490, Note_on_c, 1, 50, 0
3, 131490, Note_on_c, 1, 59, 72
3, 131517, Control_c, 1, 64, 0
3, 131519, Note_on_c, 1, 59, 0
3, 131520, Note_on_c, 1, 55, 89
3, 131525, Control_c, 1, 64, 127
3, 131550, Note_on_c, 1, 59, 68
3, 131551, Note_on_c, 1, 55, 0
3, 131580, Note_on_c, 1, 50, 80
3, 131581, Note_on_c, 1, 59, 0
3, 131610, Note_on_c, 1, 50, 0
3, 131610, Note_on_c, 1, 59, 76
3, 131623, Note_on_c, 1, 38, 0
3, 131624, Note_on_c, 1, 59, 0
3, 131639, Control_c, 1, 64, 0
3, 131640, Note_on_c, 1, 54, 85
3, 131640, Note_on_c, 1, 38, 76
3, 131659, Control_c, 1, 64, 127
3, 131669, Note_on_c, 1, 54, 0
3, 131670, Note_on_c, 1, 57, 85
3, 131700, Note_on_c, 1, 57, 0
3, 131700, Note_on_c, 1, 50, 80
3, 131728, Note_on_c, 1, 50, 0
3, 131730, Note_on_c, 1, 57, 85
3, 131759, Note_on_c, 1, 57, 0
3, 131759, Control_c, 1, 64, 0
3, 131760, Note_on_c, 1, 54, 72
3, 131771, Control_c, 1, 64, 127
3, 131790, Note_on_c, 1, 60, 76
3, 131791, Note_on_c, 1, 54, 0
3, 131819, Note_on_c, 1, 60, 0
3, 131820, Note_on_c, 1, 50, 80
3, 131843, Note_on_c, 1, 38, 0
3, 131849, Note_on_c, 1, 50, 0
3, 131850, Note_on_c, 1, 60, 72
3, 131868, Note_on_c, 1, 60, 0
3, 131880, Note_on_c, 1, 55, 89
3, 131880, Note_on_c, 1, 31, 76
3, 131880, Note_on_c, 1, 59, 80
3, 131880, Note_on_c, 1, 43, 64
3, 131883, Control_c, 1, 64, 0
3, 131895, Control_c, 1, 64, 127
3, 131910, Note_on_c, 1, 55, 0
3, 131910, Note_on_c, 1, 50, 76
3, 131913, Note_on_c, 1, 43, 0
3, 131936, Note_on_c, 1, 50, 0
3, 131940, Note_on_c, 1, 55, 76
3, 131940, Note_on_c, 1, 43, 60
3, 131942, Control_c, 1, 64, 0
3, 131951, Control_c, 1, 64, 127
3, 131970, Note_on_c, 1, 50, 64
3, 131972, Note_on_c, 1, 43, 0
3, 131972, Note_on_c, 1, 55, 0
3, 131996, Note_on_c, 1, 50, 0
3, 132000, Note_on_c, 1, 55, 85
3, 132000, Note_on_c, 1, 43, 60
3, 132003, Control_c, 1, 64, 0
3, 132013, Control_c, 1, 64, 127
3, 132028, Note_on_c, 1, 43, 0
3, 132030, Note_on_c, 1, 55, 0
3, 132030, Note_on_c, 1, 50, 68
3, 132055, Note_on_c, 1, 50, 0
3, 132060, Note_on_c, 1, 55, 80
3, 132060, Note_on_c, 1, 43, 62
3, 132078, Note_on_c, 1, 43, 0
3, 132086, Note_on_c, 1, 31, 0
3, 132086, Note_on_c, 1, 59, 0
3, 132086, Note_on_c, 1, 55, 0
3, 132090, Note_on_c, 1, 50, 76
3, 132101, Note_on_c, 1, 50, 0
3, 132120, Note_on_c, 1, 31, 72
3, 132120, Note_on_c, 1, 54, 85
3, 132120, Note_on_c, 1, 60, 80
3, 132120, Note_on_c, 1, 43, 68
3, 132120, Control_c, 1, 64, 0
3, 132133, Control_c, 1, 64, 127
3, 132150, Note_on_c, 1, 50, 68
3, 132152, Note_on_c, 1, 54, 0
3, 132154, Note_on_c, 1, 43, 0
3, 132177, Note_on_c, 1, 50, 0
3, 132180, Note_on_c, 1, 54, 64
3, 132180, Note_on_c, 1, 43, 64
3, 132207, Note_on_c, 1, 43, 0
3, 132210, Note_on_c, 1, 54, 0
3, 132210, Note_on_c, 1, 50, 76
3, 132238, Note_on_c, 1, 50, 0
3, 132240, Note_on_c, 1, 54, 76
3, 132240, Note_on_c, 1, 43, 64
3, 132241, Control_c, 1, 64, 0
3, 132250, Control_c, 1, 64, 127
3, 132268, Note_on_c, 1, 43, 0
3, 132270, Note_on_c, 1, 50, 64
3, 132271, Note_on_c, 1, 54, 0
3, 132293, Note_on_c, 1, 50, 0
3, 132300, Note_on_c, 1, 54, 85
3, 132300, Note_on_c, 1, 43, 62
3, 132321, Note_on_c, 1, 43, 0
3, 132328, Note_on_c, 1, 54, 0
3, 132330, Note_on_c, 1, 50, 76
3, 132336, Note_on_c, 1, 60, 0
3, 132337, Note_on_c, 1, 31, 0
3, 132342, Note_on_c, 1, 50, 0
3, 132360, Note_on_c, 1, 31, 76
3, 132360, Note_on_c, 1, 55, 85
3, 132360, Note_on_c, 1, 43, 64
3, 132360, Note_on_c, 1, 59, 80
3, 132360, Control_c, 1, 64, 0
3, 132374, Control_c, 1, 64, 127
3, 132389, Note_on_c, 1, 55, 0
3, 132390, Note_on_c, 1, 50, 76
3, 132393, Note_on_c, 1, 43, 0
3, 132417, Note_on_c, 1, 50, 0
3, 132418, Control_c, 1, 64, 0
3, 132420, Note_on_c, 1, 55, 85
3, 132420, Note_on_c, 1, 43, 64
3, 132429, Control_c, 1, 64, 127
3, 132450, Note_on_c, 1, 50, 76
3, 132451, Note_on_c, 1, 55, 0
3, 132452, Note_on_c, 1, 43, 0
3, 132478, Note_on_c, 1, 50, 0
3, 132480, Note_on_c, 1, 55, 80
3, 132480, Note_on_c, 1, 43, 62
3, 132508, Note_on_c, 1, 43, 0
3, 132509, Note_on_c, 1, 55, 0
3, 132510, Note_on_c, 1, 50, 64
3, 132537, Note_on_c, 1, 50, 0
3, 132540, Note_on_c, 1, 55, 85
3, 132540, Note_on_c, 1, 43, 56
3, 132564, Note_on_c, 1, 43, 0
3, 132569, Note_on_c, 1, 55, 0
3, 132570, Note_on_c, 1, 50, 64
3, 132576, Note_on_c, 1, 59, 0
3, 132579, Note_on_c, 1, 31, 0
3, 132581, Note_on_c, 1, 50, 0
3, 132600, Note_on_c, 1, 31, 64
3, 132600, Note_on_c, 1, 54, 72
3, 132600, Note_on_c, 1, 43, 60
3, 132600, Note_on_c, 1, 60, 80
3, 132600, Control_c, 1, 64, 0
3, 132616, Control_c, 1, 64, 127
3, 132629, Note_on_c, 1, 54, 0
3, 132630, Note_on_c, 1, 50, 72
3, 132631, Note_on_c, 1, 43, 0
3, 132658, Note_on_c, 1, 50, 0
3, 132659, Control_c, 1, 64, 0
3, 132660, Note_on_c, 1, 43, 64
3, 132660, Note_on_c, 1, 54, 76
3, 132668, Control_c, 1, 64, 127
3, 132689, Note_on_c, 1, 54, 0
3, 132690, Note_on_c, 1, 50, 72
3, 132691, Note_on_c, 1, 43, 0
3, 132720, Note_on_c, 1, 50, 0
3, 132720, Note_on_c, 1, 54, 85
3, 132720, Note_on_c, 1, 43, 60
3, 132748, Note_on_c, 1, 43, 0
3, 132750, Note_on_c, 1, 54, 0
3, 132750, Note_on_c, 1, 50, 68
3, 132777, Note_on_c, 1, 50, 0
3, 132780, Note_on_c, 1, 54, 62
3, 132780, Note_on_c, 1, 43, 62
3, 132808, Note_on_c, 1, 43, 0
3, 132810, Note_on_c, 1, 50, 76
3, 132812, Note_on_c, 1, 54, 0
3, 132813, Note_on_c, 1, 60, 0
3, 132816, Note_on_c, 1, 31, 0
3, 132822, Note_on_c, 1, 50, 0
3, 132840, Note_on_c, 1, 31, 68
3, 132840, Note_on_c, 1, 43, 60
3, 132840, Note_on_c, 1, 55, 89
3, 132840, Note_on_c, 1, 59, 72
3, 132840, Control_c, 1, 64, 0
3, 132855, Control_c, 1, 64, 127
3, 132870, Note_on_c, 1, 50, 76
3, 132873, Note_on_c, 1, 55, 0
3, 132873, Note_on_c, 1, 43, 0
3, 132896, Note_on_c, 1, 50, 0
3, 132900, Note_on_c, 1, 55, 76
3, 132900, Note_on_c, 1, 43, 62
3, 132927, Note_on_c, 1, 43, 0
3, 132929, Note_on_c, 1, 55, 0
3, 132930, Note_on_c, 1, 50, 76
3, 132956, Note_on_c, 1, 50, 0
3, 132960, Note_on_c, 1, 55, 80
3, 132960, Note_on_c, 1, 43, 60
3, 132987, Note_on_c, 1, 43, 0
3, 132990, Note_on_c, 1, 55, 0
3, 132990, Note_on_c, 1, 50, 80
3, 133013, Note_on_c, 1, 50, 0
3, 133020, Note_on_c, 1, 55, 76
3, 133020, Note_on_c, 1, 43, 62
3, 133044, Note_on_c, 1, 43, 0
3, 133050, Note_on_c, 1, 50, 68
3, 133052, Note_on_c, 1, 55, 0
3, 133061, Note_on_c, 1, 59, 0
3, 133062, Note_on_c, 1, 31, 0
3, 133062, Note_on_c, 1, 50, 0
3, 133080, Note_on_c, 1, 54, 72
3, 133080, Note_on_c, 1, 31, 76
3, 133080, Note_on_c, 1, 60, 72
3, 133080, Note_on_c, 1, 43, 64
3, 133081, Control_c, 1, 64, 0
3, 133099, Control_c, 1, 64, 127
3, 133110, Note_on_c, 1, 50, 62
3, 133112, Note_on_c, 1, 54, 0
3, 133113, Note_on_c, 1, 43, 0
3, 133138, Note_on_c, 1, 50, 0
3, 133140, Note_on_c, 1, 54, 72
3, 133140, Note_on_c, 1, 43, 76
3, 133168, Note_on_c, 1, 43, 0
3, 133170, Note_on_c, 1, 54, 0
3, 133170, Note_on_c, 1, 50, 62
3, 133197, Note_on_c, 1, 50, 0
3, 133200, Note_on_c, 1, 54, 64
3, 133200, Note_on_c, 1, 43, 85
3, 133223, Note_on_c, 1, 43, 0
3, 133228, Note_on_c, 1, 54, 0
3, 133230, Note_on_c, 1, 50, 60
3, 133258, Note_on_c, 1, 50, 0
3, 133260, Note_on_c, 1, 54, 72
3, 133260, Note_on_c, 1, 43, 62
3, 133285, Note_on_c, 1, 43, 0
3, 133288, Note_on_c, 1, 54, 0
3, 133290, Note_on_c, 1, 50, 68
3, 133291, Note_on_c, 1, 31, 0
3, 133292, Note_on_c, 1, 60, 0
3, 133302, Note_on_c, 1, 50, 0
3, 133316, Control_c, 1, 64, 0
3, 133320, Note_on_c, 1, 55, 85
3, 133320, Note_on_c, 1, 31, 68
3, 133320, Note_on_c, 1, 59, 76
3, 133320, Note_on_c, 1, 43, 68
3, 133331, Control_c, 1, 64, 127
3, 133350, Note_on_c, 1, 55, 0
3, 133350, Note_on_c, 1, 50, 80
3, 133353, Note_on_c, 1, 43, 0
3, 133376, Note_on_c, 1, 50, 0
3, 133380, Note_on_c, 1, 55, 80
3, 133380, Note_on_c, 1, 43, 72
3, 133407, Note_on_c, 1, 43, 0
3, 133410, Note_on_c, 1, 50, 72
3, 133411, Note_on_c, 1, 55, 0
3, 133435, Note_on_c, 1, 50, 0
3, 133440, Note_on_c, 1, 55, 72
3, 133440, Note_on_c, 1, 43, 72
3, 133462, Note_on_c, 1, 43, 0
3, 133470, Note_on_c, 1, 55, 0
3, 133470, Note_on_c, 1, 50, 85
3, 133492, Note_on_c, 1, 50, 0
3, 133500, Note_on_c, 1, 43, 59
3, 133500, Note_on_c, 1, 55, 68
3, 133524, Note_on_c, 1, 43, 0
3, 133530, Note_on_c, 1, 55, 0
3, 133530, Note_on_c, 1, 50, 64
3, 133536, Note_on_c, 1, 59, 0
3, 133536, Note_on_c, 1, 31, 0
3, 133541, Note_on_c, 1, 50, 0
3, 133557, Control_c, 1, 64, 0
3, 133560, Note_on_c, 1, 54, 72
3, 133560, Note_on_c, 1, 31, 64
3, 133560, Note_on_c, 1, 43, 64
3, 133560, Note_on_c, 1, 60, 72
3, 133571, Control_c, 1, 64, 127
3, 133590, Note_on_c, 1, 50, 76
3, 133591, Note_on_c, 1, 54, 0
3, 133593, Note_on_c, 1, 43, 0
3, 133615, Note_on_c, 1, 50, 0
3, 133620, Note_on_c, 1, 54, 76
3, 133620, Note_on_c, 1, 43, 64
3, 133647, Note_on_c, 1, 43, 0
3, 133650, Note_on_c, 1, 54, 0
3, 133650, Note_on_c, 1, 50, 62
3, 133676, Note_on_c, 1, 50, 0
3, 133680, Note_on_c, 1, 54, 68
3, 133680, Note_on_c, 1, 43, 64
3, 133705, Note_on_c, 1, 43, 0
3, 133710, Note_on_c, 1, 54, 0
3, 133710, Note_on_c, 1, 50, 72
3, 133732, Note_on_c, 1, 50, 0
3, 133740, Note_on_c, 1, 54, 76
3, 133740, Note_on_c, 1, 43, 76
3, 133764, Note_on_c, 1, 43, 0
3, 133769, Note_on_c, 1, 54, 0
3, 133770, Note_on_c, 1, 31, 0
3, 133770, Note_on_c, 1, 50, 80
3, 133774, Note_on_c, 1, 60, 0
3, 133781, Note_on_c, 1, 50, 0
3, 133793, Control_c, 1, 64, 0
3, 133800, Note_on_c, 1, 31, 80
3, 133800, Note_on_c, 1, 43, 62
3, 133800, Note_on_c, 1, 55, 89
3, 133800, Note_on_c, 1, 59, 85
3, 133807, Control_c, 1, 64, 127
3, 133829, Note_on_c, 1, 55, 0
3, 133830, Note_on_c, 1, 59, 0
3, 133830, Note_on_c, 1, 50, 85
3, 133856, Note_on_c, 1, 50, 0
3, 133860, Note_on_c, 1, 62, 93
3, 133887, Note_on_c, 1, 62, 0
3, 133890, Note_on_c, 1, 59, 72
3, 133916, Control_c, 1, 64, 0
3, 133920, Note_on_c, 1, 55, 93
3, 133921, Note_on_c, 1, 59, 0
3, 133926, Note_on_c, 1, 43, 0
3, 133926, Control_c, 1, 64, 127
3, 133929, Note_on_c, 1, 31, 0
3, 133975, Note_on_c, 1, 55, 0
3, 133977, Control_c, 1, 64, 0
3, 134490, Note_on_c, 1, 67, 80
3, 134505, Note_on_c, 1, 65, 60
3, 134510, Note_on_c, 1, 67, 0
3, 134520, Note_on_c, 1, 64, 89
3, 134520, Note_on_c, 1, 60, 76
3, 134520, Note_on_c, 1, 48, 76
3, 134520, Note_on_c, 1, 55, 76
3, 134521, Note_on_c, 1, 65, 0
3, 134528, Control_c, 1, 64, 127
3, 134553, Note_on_c, 1, 60, 0
3, 134554, Note_on_c, 1, 64, 0
3, 134555, Note_on_c, 1, 48, 0
3, 134557, Note_on_c, 1, 55, 0
3, 134568, Control_c, 1, 64, 0
3, 134639, Control_c, 1, 64, 127
3, 134640, Note_on_c, 1, 53, 57
3, 134640, Note_on_c, 1, 44, 64
3, 134640, Note_on_c, 1, 62, 93
3, 134640, Note_on_c, 1, 59, 93
3, 134686, Note_on_c, 1, 62, 0
3, 134687, Control_c, 1, 64, 0
3, 134688, Note_on_c, 1, 59, 0
3, 134689, Note_on_c, 1, 44, 0
3, 134689, Note_on_c, 1, 53, 0
3, 134760, Note_on_c, 1, 45, 76
3, 134760, Note_on_c, 1, 60, 80
3, 134760, Note_on_c, 1, 57, 93
3, 134760, Note_on_c, 1, 52, 64
3, 134760, Control_c, 1, 64, 127
3, 134812, Note_on_c, 1, 57, 0
3, 134813, Note_on_c, 1, 52, 0
3, 134813, Note_on_c, 1, 60, 0
3, 134814, Control_c, 1, 64, 0
3, 134815, Note_on_c, 1, 45, 0
3, 135419, Note_on_c, 1, 36, 102
3, 135419, Note_on_c, 1, 48, 102
3, 135420, Note_on_c, 1, 64, 102
3, 135425, Control_c, 1, 64, 127
3, 135441, Note_on_c, 1, 62, 93
3, 135442, Note_on_c, 1, 64, 0
3, 135456, Note_on_c, 1, 60, 76
3, 135457, Note_on_c, 1, 62, 0
3, 135464, Note_on_c, 1, 36, 0
3, 135465, Note_on_c, 1, 48, 0
3, 135470, Note_on_c, 1, 60, 0
3, 135476, Control_c, 1, 64, 0
3, 135478, Note_on_c, 1, 59, 102
3, 135478, Note_on_c, 1, 38, 102
3, 135479, Note_on_c, 1, 50, 93
3, 135492, Control_c, 1, 64, 127
3, 135509, Note_on_c, 1, 59, 0
3, 135513, Note_on_c, 1, 50, 0
3, 135513, Note_on_c, 1, 38, 0
3, 135524, Control_c, 1, 64, 0
3, 135539, Note_on_c, 1, 62, 113
3, 135559, Note_on_c, 1, 60, 76
3, 135563, Note_on_c, 1, 62, 0
3, 135577, Note_on_c, 1, 59, 89
3, 135578, Note_on_c, 1, 60, 0
3, 135597, Note_on_c, 1, 59, 0
3, 135599, Note_on_c, 1, 57, 113
3, 135600, Note_on_c, 1, 50, 102
3, 135600, Note_on_c, 1, 38, 107
3, 135633, Note_on_c, 1, 57, 0
3, 135634, Note_on_c, 1, 38, 0
3, 135634, Note_on_c, 1, 50, 0
3, 135659, Note_on_c, 1, 60, 107
3, 135678, Note_on_c, 1, 59, 98
3, 135679, Note_on_c, 1, 60, 0
3, 135696, Note_on_c, 1, 59, 0
3, 135696, Note_on_c, 1, 57, 102
3, 135713, Note_on_c, 1, 57, 0
3, 135717, Note_on_c, 1, 55, 98
3, 135718, Note_on_c, 1, 31, 98
3, 135718, Note_on_c, 1, 43, 98
3, 135724, Control_c, 1, 64, 127
3, 135838, Note_on_c, 1, 55, 0
3, 135840, Note_on_c, 1, 43, 0
3, 135842, Note_on_c, 1, 31, 0
3, 135842, Control_c, 1, 64, 0
3, 135960, Control_c, 1, 121, 0
3, 135960, End_track
4, 0, Start_track
4, 0, MIDI_port, 0
4, 101279, Control_c, 0, 64, 0
4, 101279, End_track
5, 0, Start_track
5, 0, MIDI_port, 0
5, 0, Title_t, "Title: Sonate in Gmaj (K. 357, 1786)"
5, 0, End_track
6, 0, Start_track
6, 0, MIDI_port, 0
6, 0, Title_t, "Composer: W. A. Mozart"
6, 0, End_track
7, 0, Start_track
7, 0, MIDI_port, 0
7, 0, Title_t, "Sequence: Faren Raborn, Copyright 1996"
7, 0, End_track
8, 0, Start_track
8, 0, MIDI_port, 0
8, 0, Title_t, "Email: raborn@dtx.net"
8, 0, End_track
0, 0, End_of_file
