0, 0, Header, 1, 5, 480
1, 0, Start_track
1, 0, Time_signature, 4, 2, 24, 8
1, 0, Title_t, "         [GS] Mozart: PIANO SONATA No.12  2nd movement"
1, 0, Title_t, "                                \202v.\202`.\202lOZART                                                 \201u\203s\203A\203m\203\\\203i\203^\221æ12\224Ô\201v             Kv.332, F Dur                   \221æ\202Q\212y\217Í                       Adagio                                                  for piano solo         ----------------------------            Roland GS                by MOCLIN(GBA02512)"
1, 0, Title_t, "Initialize & Tempo Control"
1, 0, Tempo, 810731
1, 0, Tempo, 270211
1, 140, System_exclusive, 10, 65, 16, 66, 18, 64, 0, 127, 0, 65, 247
1, 240, System_exclusive, 10, 65, 16, 66, 18, 64, 0, 4, 100, 88, 247
1, 380, System_exclusive, 10, 65, 16, 66, 18, 64, 1, 48, 3, 12, 247
1, 400, System_exclusive, 10, 65, 16, 66, 18, 64, 1, 51, 80, 60, 247
1, 420, System_exclusive, 10, 65, 16, 66, 18, 64, 1, 52, 70, 69, 247
1, 480, System_exclusive, 25, 65, 16, 66, 18, 64, 1, 16, 0, 6, 6, 0, 6, 6, 0, 0, 0, 0, 0, 0, 0, 0, 0, 0, 23, 247
1, 1920, Time_signature, 8, 2, 24, 8
1, 1920, System_exclusive, 38, 65, 16, 69, 18, 16, 0, 0, 77, 111, 122, 97, 114, 116, 58, 32, 80, 73, 65, 78, 79, 32, 83, 79, 78, 65, 84, 65, 32, 78, 111, 46, 49, 50, 40, 50, 41, 75, 247
1, 1920, Tempo, 943389
1, 2160, Tempo, 836936
1, 2400, Tempo, 810731
1, 2640, Tempo, 864773
1, 2880, Tempo, 836936
1, 3120, Tempo, 810731
1, 3600, Tempo, 836936
1, 3840, Tempo, 864773
1, 4080, Tempo, 836936
1, 4320, Tempo, 810731
1, 4560, Tempo, 864773
1, 4800, Tempo, 836936
1, 5040, Tempo, 810731
1, 5280, Tempo, 836936
1, 5520, Tempo, 810731
1, 5760, Tempo, 864773
1, 6000, Tempo, 836936
1, 6240, Tempo, 810731
1, 6480, Tempo, 836936
1, 6720, Tempo, 810731
1, 6960, Tempo, 786158
1, 7200, Tempo, 810731
1, 7440, Tempo, 836936
1, 7680, Tempo, 864773
1, 7920, Tempo, 836936
1, 8160, Tempo, 810731
1, 8400, Tempo, 864773
1, 8640, Tempo, 836936
1, 8880, Tempo, 810731
1, 9120, Tempo, 836936
1, 9360, Tempo, 879460
1, 9600, Tempo, 836936
1, 9840, Tempo, 810731
1, 10080, Tempo, 786158
1, 10320, Tempo, 836936
1, 10560, System_exclusive, 32, 65, 16, 69, 18, 16, 0, 0, 40, 99, 41, 49, 57, 57, 54, 44, 32, 89, 65, 83, 75, 65, 87, 65, 32, 77, 111, 99, 108, 105, 110, 4, 247
1, 10560, Tempo, 810731
1, 10800, Tempo, 786158
1, 11040, Tempo, 810731
1, 11280, Tempo, 836936
1, 11520, Tempo, 810731
1, 11760, Tempo, 786158
1, 12000, Tempo, 810731
1, 12240, Tempo, 836936
1, 12480, Tempo, 810731
1, 12720, Tempo, 786158
1, 12960, Tempo, 810731
1, 13200, Tempo, 864773
1, 13440, Tempo, 836936
1, 13680, Tempo, 810731
1, 13920, Tempo, 836936
1, 14160, Tempo, 810731
1, 14400, Tempo, 864773
1, 14640, Tempo, 810731
1, 14880, Tempo, 836936
1, 15120, Tempo, 810731
1, 15360, Tempo, 836936
1, 15600, Tempo, 810731
1, 15840, Tempo, 836936
1, 16080, Tempo, 864773
1, 16320, Tempo, 943389
1, 16560, Tempo, 823594
1, 16800, Tempo, 810731
1, 17040, Tempo, 864773
1, 17280, Tempo, 810731
1, 17520, Tempo, 836936
1, 17760, Tempo, 810731
1, 18000, Tempo, 864773
1, 18240, Tempo, 836936
1, 18480, Tempo, 810731
1, 18960, Tempo, 836936
1, 19200, Tempo, 864773
1, 19440, Tempo, 836936
1, 19680, Tempo, 810731
1, 19920, Tempo, 864773
1, 20160, Tempo, 836936
1, 20400, Tempo, 810731
1, 20640, Tempo, 836936
1, 20880, Tempo, 810731
1, 21120, Tempo, 864773
1, 21360, Tempo, 836936
1, 21600, Tempo, 810731
1, 21840, Tempo, 836936
1, 22080, Tempo, 810731
1, 22320, Tempo, 786158
1, 22560, Tempo, 810731
1, 22800, Tempo, 836936
1, 23040, Tempo, 810731
1, 23280, Tempo, 786158
1, 23520, Tempo, 810731
1, 23760, Tempo, 864773
1, 24000, Tempo, 836936
1, 24240, Tempo, 810731
1, 24480, Tempo, 836936
1, 24720, Tempo, 864773
1, 24960, Tempo, 836936
1, 25200, Tempo, 864773
1, 25440, Tempo, 810731
1, 25680, Tempo, 836936
1, 25920, Tempo, 810731
1, 26160, Tempo, 786158
1, 26400, Tempo, 810731
1, 26640, Tempo, 836936
1, 26880, Tempo, 810731
1, 27120, Tempo, 786158
1, 27360, Tempo, 810731
1, 27600, Tempo, 864773
1, 27840, Tempo, 836936
1, 28080, Tempo, 810731
1, 28320, Tempo, 836936
1, 28560, Tempo, 864773
1, 28800, Tempo, 836936
1, 29040, Tempo, 864773
1, 29280, Tempo, 810731
1, 29520, Tempo, 836936
1, 29760, Tempo, 810731
1, 30000, Tempo, 864773
1, 30240, Tempo, 836936
1, 30480, Tempo, 894626
1, 30720, Tempo, 864773
1, 30960, Tempo, 786158
1, 31200, Tempo, 763024
1, 31440, Tempo, 810731
1, 31680, Tempo, 836936
1, 31920, Tempo, 786158
1, 32160, Tempo, 810731
1, 32400, Tempo, 786158
1, 32640, Tempo, 836936
1, 32880, Tempo, 786158
1, 33120, Tempo, 763024
1, 33360, Tempo, 810731
1, 33600, Tempo, 836936
1, 33840, Tempo, 786158
1, 34080, Tempo, 810731
1, 34320, Tempo, 786158
1, 34560, Tempo, 810731
1, 34800, Tempo, 786158
1, 35040, Tempo, 763024
1, 35280, Tempo, 810731
1, 35520, Tempo, 836936
1, 35760, Tempo, 786158
1, 36000, Tempo, 810731
1, 36240, Tempo, 786158
1, 36480, Tempo, 836936
1, 36720, Tempo, 786158
1, 36960, Tempo, 763024
1, 37200, Tempo, 810731
1, 37440, Tempo, 836936
1, 37680, Tempo, 786158
1, 37920, Tempo, 810731
1, 38160, Tempo, 786158
1, 38400, Tempo, 810731
1, 38640, Tempo, 864773
1, 38880, Tempo, 836936
1, 39120, Tempo, 786158
1, 39360, Tempo, 810731
1, 39600, Tempo, 763024
1, 39840, Tempo, 741234
1, 40080, Tempo, 786158
1, 40560, Tempo, 763024
1, 40800, Tempo, 741234
1, 41040, Tempo, 786158
1, 41280, Tempo, 763024
1, 41520, Tempo, 810731
1, 41760, Tempo, 786158
1, 42000, Tempo, 894626
1, 42240, Tempo, 810731
1, 43200, Tempo, 864773
1, 43440, Tempo, 836936
1, 43680, Tempo, 810731
1, 43920, Tempo, 894626
1, 44160, Tempo, 864773
1, 44320, Tempo, 810731
1, 44480, Tempo, 786158
1, 44640, Tempo, 763024
1, 44800, Tempo, 810731
1, 44960, Tempo, 864773
1, 45120, Tempo, 836936
1, 45600, Tempo, 810731
1, 46080, Tempo, 864773
1, 46320, Tempo, 810731
1, 46560, Tempo, 786158
1, 46800, Tempo, 836936
1, 47040, Tempo, 810731
1, 47280, Tempo, 786158
1, 47520, Tempo, 763024
1, 47760, Tempo, 810731
1, 48000, Tempo, 836936
1, 48240, Tempo, 786158
1, 48480, Tempo, 763024
1, 48720, Tempo, 810731
1, 48960, Tempo, 836936
1, 49200, Tempo, 786158
1, 49440, Tempo, 810731
1, 49680, Tempo, 786158
1, 49920, Tempo, 810731
1, 50160, Tempo, 786158
1, 50400, Tempo, 763024
1, 50640, Tempo, 810731
1, 50880, Tempo, 836936
1, 51120, Tempo, 786158
1, 51360, Tempo, 810731
1, 51600, Tempo, 786158
1, 51840, Tempo, 836936
1, 52080, Tempo, 786158
1, 52320, Tempo, 763024
1, 52560, Tempo, 810731
1, 52800, Tempo, 836936
1, 53040, Tempo, 786158
1, 53280, Tempo, 810731
1, 53520, Tempo, 786158
1, 53760, Tempo, 810731
1, 54000, Tempo, 864773
1, 54240, Tempo, 836936
1, 54480, Tempo, 943389
1, 54720, Tempo, 810731
1, 54960, Tempo, 763024
1, 55200, Tempo, 741234
1, 55440, Tempo, 786158
1, 55680, Tempo, 810731
1, 55920, Tempo, 763024
1, 56160, Tempo, 741234
1, 56400, Tempo, 786158
1, 56640, Tempo, 763024
1, 56880, Tempo, 810731
1, 57120, Tempo, 786158
1, 57360, Tempo, 894626
1, 57600, Tempo, 810731
1, 58560, Tempo, 864773
1, 58800, Tempo, 836936
1, 59040, Tempo, 810731
1, 59280, Tempo, 894626
1, 59520, Tempo, 864773
1, 59680, Tempo, 810731
1, 59840, Tempo, 786158
1, 60000, Tempo, 763024
1, 60160, Tempo, 810731
1, 60320, Tempo, 864773
1, 60480, Tempo, 836936
1, 60960, Tempo, 943389
1, 61380, Tempo, 864773
1, 61440, Tempo, 836936
1, 61680, Tempo, 810731
1, 61920, Tempo, 836936
1, 62160, Tempo, 943389
1, 62400, Tempo, 823594
1, 62640, Tempo, 798252
1, 62880, Tempo, 836936
1, 63120, Tempo, 943389
1, 63360, Tempo, 894626
1, 63600, Tempo, 864773
1, 63720, Tempo, 836936
1, 63840, Tempo, 810731
1, 64080, Tempo, 836936
1, 64320, Tempo, 810731
1, 64560, Tempo, 836936
1, 64800, Tempo, 810731
1, 65040, Tempo, 864773
1, 65280, Tempo, 926591
1, 65520, Tempo, 836936
1, 65760, Tempo, 810731
1, 66000, Tempo, 786158
1, 66240, Tempo, 864773
1, 66360, Tempo, 810731
1, 66480, Tempo, 786158
1, 66720, Tempo, 836936
1, 66960, Tempo, 894626
1, 67200, Tempo, 864773
1, 67440, Tempo, 810731
1, 67680, Tempo, 786158
1, 67920, Tempo, 836936
1, 68160, Tempo, 864773
1, 68400, Tempo, 810731
1, 68640, Tempo, 786158
1, 68880, Tempo, 836936
1, 69000, Tempo, 894626
1, 69120, Tempo, 810731
1, 69360, Tempo, 786158
1, 69600, Tempo, 763024
1, 69840, Tempo, 810731
1, 70080, Tempo, 786158
1, 70320, Tempo, 836936
1, 70560, Tempo, 894626
1, 70800, Tempo, 864773
1, 70920, Tempo, 926591
1, 71040, Tempo, 943389
1, 71280, Tempo, 810731
1, 71520, Tempo, 786158
1, 71760, Tempo, 864773
1, 72000, Tempo, 810731
1, 72240, Tempo, 786158
1, 72480, Tempo, 763024
1, 72720, Tempo, 810731
1, 72960, Tempo, 836936
1, 73200, Tempo, 786158
1, 73440, Tempo, 810731
1, 73680, Tempo, 894626
1, 73920, Tempo, 836936
1, 74160, Tempo, 786158
1, 74400, Tempo, 810731
1, 74640, Tempo, 864773
1, 74820, Tempo, 943389
1, 74880, Tempo, 894626
1, 75120, Tempo, 836936
1, 75360, Tempo, 810731
1, 75600, Tempo, 864773
1, 75840, Tempo, 836936
1, 76080, Tempo, 894626
1, 76320, Tempo, 864773
1, 76560, Tempo, 1037747
1, 76800, Tempo, 864773
1, 77760, Tempo, 810731
1, 77880, Tempo, 786158
1, 78000, Tempo, 763024
1, 78120, Tempo, 810731
1, 78240, Tempo, 786158
1, 78360, Tempo, 763024
1, 78480, Tempo, 810731
1, 78600, Tempo, 943389
1, 78720, Tempo, 894626
1, 78960, Tempo, 836936
1, 79200, Tempo, 810731
1, 79440, Tempo, 864773
1, 79680, Tempo, 836936
1, 79920, Tempo, 810731
1, 80400, Tempo, 836936
1, 80640, Tempo, 864773
1, 80880, Tempo, 836936
1, 81120, Tempo, 810731
1, 81360, Tempo, 864773
1, 81600, Tempo, 836936
1, 81840, Tempo, 810731
1, 82080, Tempo, 836936
1, 82320, Tempo, 810731
1, 82560, Tempo, 864773
1, 82800, Tempo, 836936
1, 83040, Tempo, 810731
1, 83280, Tempo, 836936
1, 83520, Tempo, 810731
1, 83760, Tempo, 786158
1, 84000, Tempo, 810731
1, 84240, Tempo, 836936
1, 84480, Tempo, 864773
1, 84720, Tempo, 836936
1, 84960, Tempo, 810731
1, 85200, Tempo, 864773
1, 85440, Tempo, 836936
1, 85680, Tempo, 810731
1, 85920, Tempo, 836936
1, 86160, Tempo, 894626
1, 86400, Tempo, 864773
1, 86640, Tempo, 810731
1, 86880, Tempo, 786158
1, 87120, Tempo, 836936
1, 87360, Tempo, 810731
1, 87600, Tempo, 786158
1, 87840, Tempo, 810731
1, 88080, Tempo, 836936
1, 88320, Tempo, 810731
1, 88560, Tempo, 786158
1, 88800, Tempo, 810731
1, 89040, Tempo, 836936
1, 89280, Tempo, 810731
1, 89520, Tempo, 786158
1, 89760, Tempo, 810731
1, 90000, Tempo, 864773
1, 90240, Tempo, 836936
1, 90480, Tempo, 810731
1, 90720, Tempo, 836936
1, 90960, Tempo, 810731
1, 91200, Tempo, 864773
1, 91440, Tempo, 810731
1, 91680, Tempo, 836936
1, 91920, Tempo, 810731
1, 92160, Tempo, 836936
1, 92400, Tempo, 810731
1, 92640, Tempo, 836936
1, 92880, Tempo, 864773
1, 93120, Tempo, 943389
1, 93360, Tempo, 823594
1, 93600, Tempo, 810731
1, 93840, Tempo, 864773
1, 94080, Tempo, 810731
1, 94320, Tempo, 836936
1, 94560, Tempo, 810731
1, 94800, Tempo, 864773
1, 95040, Tempo, 836936
1, 95280, Tempo, 810731
1, 95760, Tempo, 836936
1, 96000, Tempo, 864773
1, 96240, Tempo, 836936
1, 96480, Tempo, 810731
1, 96720, Tempo, 864773
1, 96960, Tempo, 836936
1, 97200, Tempo, 810731
1, 97440, Tempo, 836936
1, 97680, Tempo, 810731
1, 97920, Tempo, 864773
1, 98160, Tempo, 836936
1, 98400, Tempo, 810731
1, 98640, Tempo, 836936
1, 98880, Tempo, 810731
1, 99120, Tempo, 786158
1, 99360, Tempo, 810731
1, 99600, Tempo, 836936
1, 99840, Tempo, 810731
1, 100080, Tempo, 786158
1, 100320, Tempo, 810731
1, 100560, Tempo, 864773
1, 100800, Tempo, 836936
1, 101040, Tempo, 810731
1, 101280, Tempo, 836936
1, 101520, Tempo, 864773
1, 101760, Tempo, 836936
1, 102000, Tempo, 864773
1, 102240, Tempo, 810731
1, 102480, Tempo, 836936
1, 102720, Tempo, 810731
1, 102960, Tempo, 786158
1, 103200, Tempo, 810731
1, 103440, Tempo, 836936
1, 103680, Tempo, 810731
1, 103920, Tempo, 786158
1, 104160, Tempo, 810731
1, 104400, Tempo, 864773
1, 104640, Tempo, 836936
1, 104880, Tempo, 810731
1, 105120, Tempo, 836936
1, 105360, Tempo, 864773
1, 105600, Tempo, 836936
1, 105840, Tempo, 864773
1, 106080, Tempo, 810731
1, 106320, Tempo, 836936
1, 106560, Tempo, 810731
1, 106800, Tempo, 864773
1, 107040, Tempo, 836936
1, 107280, Tempo, 894626
1, 107520, Tempo, 864773
1, 107760, Tempo, 786158
1, 108000, Tempo, 763024
1, 108240, Tempo, 810731
1, 108480, Tempo, 836936
1, 108720, Tempo, 786158
1, 108960, Tempo, 810731
1, 109200, Tempo, 786158
1, 109440, Tempo, 836936
1, 109680, Tempo, 786158
1, 109920, Tempo, 763024
1, 110160, Tempo, 810731
1, 110400, Tempo, 836936
1, 110640, Tempo, 786158
1, 110880, Tempo, 810731
1, 111120, Tempo, 786158
1, 111360, Tempo, 810731
1, 111600, Tempo, 786158
1, 111840, Tempo, 763024
1, 112080, Tempo, 810731
1, 112320, Tempo, 836936
1, 112560, Tempo, 786158
1, 112800, Tempo, 810731
1, 113040, Tempo, 786158
1, 113280, Tempo, 836936
1, 113520, Tempo, 786158
1, 113760, Tempo, 763024
1, 114000, Tempo, 810731
1, 114240, Tempo, 836936
1, 114480, Tempo, 786158
1, 114720, Tempo, 810731
1, 114960, Tempo, 786158
1, 115200, Tempo, 810731
1, 115440, Tempo, 864773
1, 115680, Tempo, 836936
1, 115920, Tempo, 786158
1, 116160, Tempo, 810731
1, 116400, Tempo, 763024
1, 116640, Tempo, 741234
1, 116880, Tempo, 786158
1, 117120, Tempo, 810731
1, 117360, Tempo, 763024
1, 117600, Tempo, 741234
1, 117840, Tempo, 786158
1, 118080, Tempo, 763024
1, 118320, Tempo, 810731
1, 118560, Tempo, 786158
1, 118800, Tempo, 894626
1, 119040, Tempo, 810731
1, 120000, Tempo, 864773
1, 120240, Tempo, 836936
1, 120480, Tempo, 810731
1, 120720, Tempo, 894626
1, 120960, Tempo, 864773
1, 121120, Tempo, 810731
1, 121280, Tempo, 786158
1, 121440, Tempo, 763024
1, 121600, Tempo, 810731
1, 121760, Tempo, 864773
1, 121920, Tempo, 836936
1, 122400, Tempo, 810731
1, 122880, Tempo, 864773
1, 123120, Tempo, 810731
1, 123360, Tempo, 786158
1, 123600, Tempo, 836936
1, 123840, Tempo, 810731
1, 124080, Tempo, 786158
1, 124320, Tempo, 763024
1, 124560, Tempo, 810731
1, 124800, Tempo, 836936
1, 125040, Tempo, 786158
1, 125280, Tempo, 763024
1, 125520, Tempo, 810731
1, 125760, Tempo, 836936
1, 126000, Tempo, 786158
1, 126240, Tempo, 810731
1, 126480, Tempo, 786158
1, 126720, Tempo, 810731
1, 126960, Tempo, 786158
1, 127200, Tempo, 763024
1, 127440, Tempo, 810731
1, 127680, Tempo, 836936
1, 127920, Tempo, 786158
1, 128160, Tempo, 810731
1, 128400, Tempo, 786158
1, 128640, Tempo, 836936
1, 128880, Tempo, 786158
1, 129120, Tempo, 763024
1, 129360, Tempo, 810731
1, 129600, Tempo, 836936
1, 129840, Tempo, 786158
1, 130080, Tempo, 810731
1, 130320, Tempo, 786158
1, 130560, Tempo, 810731
1, 130800, Tempo, 864773
1, 131040, Tempo, 836936
1, 131280, Tempo, 943389
1, 131520, Tempo, 836936
1, 131760, Tempo, 786158
1, 132000, Tempo, 763024
1, 132240, Tempo, 810731
1, 132480, Tempo, 836936
1, 132720, Tempo, 786158
1, 132960, Tempo, 763024
1, 133200, Tempo, 810731
1, 133440, Tempo, 786158
1, 133680, Tempo, 836936
1, 133920, Tempo, 810731
1, 134160, Tempo, 864773
1, 134280, Tempo, 960859
1, 134400, Tempo, 810731
1, 135360, Tempo, 864773
1, 135600, Tempo, 836936
1, 135840, Tempo, 810731
1, 136080, Tempo, 894626
1, 136320, Tempo, 864773
1, 136480, Tempo, 810731
1, 136640, Tempo, 786158
1, 136800, Tempo, 763024
1, 136960, Tempo, 810731
1, 137120, Tempo, 864773
1, 137280, Tempo, 836936
1, 137760, Tempo, 943389
1, 138180, Tempo, 864773
1, 138240, Tempo, 836936
1, 138480, Tempo, 810731
1, 138720, Tempo, 836936
1, 138960, Tempo, 943389
1, 139200, Tempo, 823594
1, 139440, Tempo, 798252
1, 139680, Tempo, 836936
1, 139920, Tempo, 943389
1, 140160, Tempo, 894626
1, 140400, Tempo, 864773
1, 140520, Tempo, 836936
1, 140640, Tempo, 810731
1, 140880, Tempo, 836936
1, 141120, Tempo, 810731
1, 141360, Tempo, 836936
1, 141600, Tempo, 810731
1, 141840, Tempo, 864773
1, 142080, Tempo, 926591
1, 142320, Tempo, 836936
1, 142560, Tempo, 810731
1, 142800, Tempo, 786158
1, 143040, Tempo, 864773
1, 143160, Tempo, 810731
1, 143280, Tempo, 786158
1, 143520, Tempo, 836936
1, 143760, Tempo, 894626
1, 144000, Tempo, 864773
1, 144240, Tempo, 810731
1, 144480, Tempo, 786158
1, 144720, Tempo, 836936
1, 144960, Tempo, 810731
1, 145200, Tempo, 786158
1, 145440, Tempo, 763024
1, 145680, Tempo, 810731
1, 145800, Tempo, 864773
1, 145920, Tempo, 810731
1, 146160, Tempo, 786158
1, 146400, Tempo, 763024
1, 146640, Tempo, 810731
1, 146880, Tempo, 786158
1, 147120, Tempo, 836936
1, 147360, Tempo, 894626
1, 147600, Tempo, 864773
1, 147720, Tempo, 926591
1, 147840, Tempo, 943389
1, 148080, Tempo, 810731
1, 148320, Tempo, 786158
1, 148560, Tempo, 864773
1, 148800, Tempo, 810731
1, 149040, Tempo, 786158
1, 149280, Tempo, 763024
1, 149520, Tempo, 810731
1, 149760, Tempo, 836936
1, 150000, Tempo, 786158
1, 150240, Tempo, 810731
1, 150480, Tempo, 894626
1, 150720, Tempo, 836936
1, 150960, Tempo, 786158
1, 151200, Tempo, 810731
1, 151440, Tempo, 864773
1, 151620, Tempo, 943389
1, 151680, Tempo, 894626
1, 151920, Tempo, 836936
1, 152160, Tempo, 810731
1, 152400, Tempo, 864773
1, 152640, Tempo, 836936
1, 152880, Tempo, 1037747
1, 153120, Tempo, 960859
1, 153360, Tempo, 1081039
1, 153480, Tempo, 1297208
1, 153600, Tempo, 1153031
1, 154560, Tempo, 1482565
1, 155040, Tempo, 1729643
1, 155520, Time_signature, 4, 2, 24, 8
1, 155520, End_track
2, 0, Start_track
2, 0, Title_t, "Piano(R.H.)"
2, 960, Control_c, 0, 32, 1
2, 1020, Control_c, 0, 0, 0
2, 1080, Program_c, 0, 0
2, 1140, Control_c, 0, 10, 74
2, 1200, Control_c, 0, 91, 80
2, 1260, Control_c, 0, 7, 127
2, 1320, Control_c, 0, 11, 127
2, 1380, Text_t, "    <Env Attack>"
2, 1380, Control_c, 0, 99, 1
2, 1400, Control_c, 0, 98, 99
2, 1420, Control_c, 0, 6, 64
2, 1440, Text_t, "    <Env Decay>"
2, 1440, Control_c, 0, 98, 100
2, 1470, Control_c, 0, 6, 75
2, 1500, Text_t, "   <Env Release>"
2, 1500, Control_c, 0, 98, 101
2, 1530, Control_c, 0, 6, 90
2, 1680, System_exclusive, 21, 65, 16, 66, 18, 64, 17, 64, 64, 60, 68, 64, 60, 68, 64, 66, 56, 64, 66, 62, 117, 247
2, 1920, Note_on_c, 0, 70, 50
2, 2880, Note_on_c, 0, 74, 45
2, 2900, Note_on_c, 0, 70, 0
2, 3180, Note_on_c, 0, 75, 38
2, 3200, Note_on_c, 0, 74, 0
2, 3250, Note_on_c, 0, 74, 40
2, 3270, Note_on_c, 0, 75, 0
2, 3300, Note_on_c, 0, 72, 42
2, 3320, Note_on_c, 0, 74, 0
2, 3360, Note_on_c, 0, 74, 39
2, 3380, Note_on_c, 0, 72, 0
2, 3600, Note_on_c, 0, 75, 46
2, 3620, Note_on_c, 0, 74, 0
2, 3840, Note_on_c, 0, 76, 48
2, 3860, Note_on_c, 0, 75, 0
2, 4560, Note_on_c, 0, 77, 36
2, 4580, Note_on_c, 0, 76, 0
2, 4800, Note_on_c, 0, 72, 40
2, 4820, Note_on_c, 0, 77, 0
2, 5000, Note_on_c, 0, 72, 0
2, 5760, Note_on_c, 0, 75, 48
2, 6060, Note_on_c, 0, 77, 38
2, 6080, Note_on_c, 0, 75, 0
2, 6130, Note_on_c, 0, 75, 40
2, 6150, Note_on_c, 0, 77, 0
2, 6180, Note_on_c, 0, 74, 42
2, 6200, Note_on_c, 0, 75, 0
2, 6240, Note_on_c, 0, 75, 39
2, 6260, Note_on_c, 0, 74, 0
2, 6480, Note_on_c, 0, 77, 46
2, 6500, Note_on_c, 0, 75, 0
2, 6720, Note_on_c, 0, 79, 50
2, 6740, Note_on_c, 0, 77, 0
2, 7020, Note_on_c, 0, 81, 40
2, 7040, Note_on_c, 0, 79, 0
2, 7090, Note_on_c, 0, 79, 42
2, 7110, Note_on_c, 0, 81, 0
2, 7140, Note_on_c, 0, 77, 44
2, 7160, Note_on_c, 0, 79, 0
2, 7200, Note_on_c, 0, 79, 41
2, 7220, Note_on_c, 0, 77, 0
2, 7440, Note_on_c, 0, 81, 48
2, 7460, Note_on_c, 0, 79, 0
2, 7640, Note_on_c, 0, 81, 0
2, 7680, Note_on_c, 0, 81, 50
2, 8400, Note_on_c, 0, 82, 40
2, 8420, Note_on_c, 0, 81, 0
2, 8640, Note_on_c, 0, 77, 43
2, 8660, Note_on_c, 0, 82, 0
2, 8840, Note_on_c, 0, 77, 0
2, 9600, Note_on_c, 0, 79, 50
2, 10320, Note_on_c, 0, 80, 45
2, 10340, Note_on_c, 0, 79, 0
2, 10440, Note_on_c, 0, 79, 47
2, 10460, Note_on_c, 0, 80, 0
2, 10560, Note_on_c, 0, 77, 49
2, 10580, Note_on_c, 0, 79, 0
2, 10800, Note_on_c, 0, 75, 46
2, 10820, Note_on_c, 0, 77, 0
2, 11040, Note_on_c, 0, 74, 48
2, 11060, Note_on_c, 0, 75, 0
2, 11280, Note_on_c, 0, 72, 43
2, 11300, Note_on_c, 0, 74, 0
2, 11480, Note_on_c, 0, 72, 0
2, 11520, Note_on_c, 0, 76, 47
2, 11760, Note_on_c, 0, 77, 50
2, 11780, Note_on_c, 0, 76, 0
2, 12240, Note_on_c, 0, 79, 45
2, 12260, Note_on_c, 0, 77, 0
2, 12360, Note_on_c, 0, 77, 47
2, 12380, Note_on_c, 0, 79, 0
2, 12480, Note_on_c, 0, 75, 49
2, 12500, Note_on_c, 0, 77, 0
2, 12720, Note_on_c, 0, 74, 46
2, 12740, Note_on_c, 0, 75, 0
2, 12960, Note_on_c, 0, 72, 48
2, 12980, Note_on_c, 0, 74, 0
2, 13200, Note_on_c, 0, 70, 50
2, 13220, Note_on_c, 0, 72, 0
2, 13400, Note_on_c, 0, 70, 0
2, 13440, Note_on_c, 0, 77, 55
2, 13680, Note_on_c, 0, 75, 45
2, 13700, Note_on_c, 0, 77, 0
2, 14160, Note_on_c, 0, 72, 40
2, 14180, Note_on_c, 0, 75, 0
2, 14400, Note_on_c, 0, 72, 0
2, 14400, Note_on_c, 0, 75, 52
2, 14640, Note_on_c, 0, 75, 0
2, 14640, Note_on_c, 0, 74, 42
2, 15120, Note_on_c, 0, 70, 45
2, 15140, Note_on_c, 0, 74, 0
2, 15360, Note_on_c, 0, 70, 0
2, 15360, Note_on_c, 0, 74, 48
2, 16080, Note_on_c, 0, 75, 43
2, 16100, Note_on_c, 0, 74, 0
2, 16200, Note_on_c, 0, 74, 45
2, 16220, Note_on_c, 0, 75, 0
2, 16320, Note_on_c, 0, 72, 40
2, 16340, Note_on_c, 0, 74, 0
2, 16480, Note_on_c, 0, 72, 0
2, 16560, Note_on_c, 0, 77, 35
2, 16800, Note_on_c, 0, 75, 38
2, 16820, Note_on_c, 0, 77, 0
2, 17040, Note_on_c, 0, 72, 42
2, 17060, Note_on_c, 0, 75, 0
2, 17280, Note_on_c, 0, 72, 0
2, 17280, Note_on_c, 0, 70, 45
2, 17580, Note_on_c, 0, 72, 38
2, 17600, Note_on_c, 0, 70, 0
2, 17650, Note_on_c, 0, 70, 40
2, 17670, Note_on_c, 0, 72, 0
2, 17700, Note_on_c, 0, 69, 42
2, 17720, Note_on_c, 0, 70, 0
2, 17760, Note_on_c, 0, 70, 42
2, 17780, Note_on_c, 0, 69, 0
2, 18000, Note_on_c, 0, 72, 45
2, 18020, Note_on_c, 0, 70, 0
2, 18240, Note_on_c, 0, 73, 45
2, 18260, Note_on_c, 0, 72, 0
2, 18540, Note_on_c, 0, 75, 38
2, 18560, Note_on_c, 0, 73, 0
2, 18610, Note_on_c, 0, 73, 40
2, 18630, Note_on_c, 0, 75, 0
2, 18660, Note_on_c, 0, 72, 42
2, 18680, Note_on_c, 0, 73, 0
2, 18720, Note_on_c, 0, 73, 39
2, 18740, Note_on_c, 0, 72, 0
2, 18960, Note_on_c, 0, 75, 46
2, 18980, Note_on_c, 0, 73, 0
2, 19200, Note_on_c, 0, 76, 48
2, 19220, Note_on_c, 0, 75, 0
2, 19920, Note_on_c, 0, 77, 36
2, 19940, Note_on_c, 0, 76, 0
2, 20160, Note_on_c, 0, 72, 40
2, 20180, Note_on_c, 0, 77, 0
2, 20360, Note_on_c, 0, 72, 0
2, 21120, Note_on_c, 0, 75, 48
2, 21420, Note_on_c, 0, 77, 38
2, 21440, Note_on_c, 0, 75, 0
2, 21490, Note_on_c, 0, 75, 40
2, 21510, Note_on_c, 0, 77, 0
2, 21540, Note_on_c, 0, 74, 42
2, 21560, Note_on_c, 0, 75, 0
2, 21600, Note_on_c, 0, 75, 39
2, 21620, Note_on_c, 0, 74, 0
2, 21840, Note_on_c, 0, 77, 46
2, 21860, Note_on_c, 0, 75, 0
2, 22080, Note_on_c, 0, 78, 50
2, 22100, Note_on_c, 0, 77, 0
2, 22380, Note_on_c, 0, 80, 40
2, 22400, Note_on_c, 0, 78, 0
2, 22450, Note_on_c, 0, 78, 42
2, 22470, Note_on_c, 0, 80, 0
2, 22500, Note_on_c, 0, 77, 44
2, 22520, Note_on_c, 0, 78, 0
2, 22560, Note_on_c, 0, 78, 41
2, 22580, Note_on_c, 0, 77, 0
2, 22800, Note_on_c, 0, 80, 48
2, 22820, Note_on_c, 0, 78, 0
2, 23000, Note_on_c, 0, 80, 0
2, 23040, Note_on_c, 0, 81, 50
2, 23760, Note_on_c, 0, 82, 40
2, 23780, Note_on_c, 0, 81, 0
2, 24000, Note_on_c, 0, 77, 43
2, 24020, Note_on_c, 0, 82, 0
2, 24200, Note_on_c, 0, 77, 0
2, 24880, Note_on_c, 0, 76, 40
2, 24960, Note_on_c, 0, 85, 60
2, 24980, Note_on_c, 0, 76, 0
2, 26160, Note_on_c, 0, 85, 0
2, 26160, Note_on_c, 0, 84, 40
2, 26280, Note_on_c, 0, 82, 38
2, 26300, Note_on_c, 0, 84, 0
2, 26320, Note_on_c, 0, 82, 0
2, 26400, Note_on_c, 0, 80, 42
2, 26520, Note_on_c, 0, 79, 40
2, 26540, Note_on_c, 0, 80, 0
2, 26560, Note_on_c, 0, 79, 0
2, 26640, Note_on_c, 0, 77, 44
2, 26760, Note_on_c, 0, 76, 42
2, 26780, Note_on_c, 0, 77, 0
2, 26800, Note_on_c, 0, 76, 0
2, 26880, Note_on_c, 0, 79, 38
2, 27360, Note_on_c, 0, 77, 40
2, 27380, Note_on_c, 0, 79, 0
2, 28080, Note_on_c, 0, 75, 43
2, 28100, Note_on_c, 0, 77, 0
2, 28560, Note_on_c, 0, 73, 45
2, 28580, Note_on_c, 0, 75, 0
2, 28800, Note_on_c, 0, 73, 0
2, 28800, Note_on_c, 0, 72, 48
2, 29100, Note_on_c, 0, 73, 38
2, 29120, Note_on_c, 0, 72, 0
2, 29170, Note_on_c, 0, 72, 40
2, 29190, Note_on_c, 0, 73, 0
2, 29220, Note_on_c, 0, 70, 42
2, 29240, Note_on_c, 0, 72, 0
2, 29280, Note_on_c, 0, 72, 39
2, 29300, Note_on_c, 0, 70, 0
2, 29520, Note_on_c, 0, 73, 47
2, 29540, Note_on_c, 0, 72, 0
2, 29760, Note_on_c, 0, 65, 45
2, 29780, Note_on_c, 0, 73, 0
2, 30240, Note_on_c, 0, 68, 42
2, 30240, Note_on_c, 0, 64, 18
2, 30260, Note_on_c, 0, 65, 0
2, 30480, Note_on_c, 0, 67, 44
2, 30500, Note_on_c, 0, 68, 0
2, 30720, Note_on_c, 0, 65, 40
2, 30740, Note_on_c, 0, 67, 0
2, 30740, Note_on_c, 0, 64, 0
2, 31680, Note_on_c, 0, 65, 0
2, 32640, Note_on_c, 0, 70, 45
2, 33040, Note_on_c, 0, 70, 0
2, 33600, Note_on_c, 0, 67, 37
2, 33800, Note_on_c, 0, 67, 0
2, 34080, Note_on_c, 0, 64, 40
2, 34320, Note_on_c, 0, 64, 0
2, 34560, Note_on_c, 0, 72, 42
2, 34920, Note_on_c, 0, 69, 45
2, 34940, Note_on_c, 0, 72, 0
2, 35040, Note_on_c, 0, 72, 40
2, 35060, Note_on_c, 0, 69, 0
2, 35200, Note_on_c, 0, 72, 0
2, 36480, Note_on_c, 0, 70, 40
2, 36880, Note_on_c, 0, 70, 0
2, 37440, Note_on_c, 0, 67, 37
2, 37640, Note_on_c, 0, 67, 0
2, 37920, Note_on_c, 0, 64, 40
2, 38160, Note_on_c, 0, 64, 0
2, 38400, Note_on_c, 0, 72, 42
2, 38760, Note_on_c, 0, 69, 45
2, 38780, Note_on_c, 0, 72, 0
2, 38880, Note_on_c, 0, 72, 40
2, 38900, Note_on_c, 0, 69, 0
2, 39040, Note_on_c, 0, 72, 0
2, 39360, Note_on_c, 0, 81, 50
2, 39360, Note_on_c, 0, 77, 40
2, 39600, Note_on_c, 0, 79, 37
2, 39600, Note_on_c, 0, 76, 28
2, 39620, Note_on_c, 0, 81, 0
2, 39620, Note_on_c, 0, 77, 0
2, 39840, Note_on_c, 0, 77, 40
2, 39840, Note_on_c, 0, 74, 30
2, 39860, Note_on_c, 0, 79, 0
2, 39860, Note_on_c, 0, 76, 0
2, 40080, Note_on_c, 0, 76, 35
2, 40080, Note_on_c, 0, 73, 27
2, 40100, Note_on_c, 0, 77, 0
2, 40100, Note_on_c, 0, 74, 0
2, 40280, Note_on_c, 0, 76, 0
2, 40280, Note_on_c, 0, 73, 0
2, 40320, Note_on_c, 0, 77, 53
2, 40320, Note_on_c, 0, 74, 43
2, 40560, Note_on_c, 0, 76, 40
2, 40560, Note_on_c, 0, 72, 31
2, 40580, Note_on_c, 0, 77, 0
2, 40580, Note_on_c, 0, 74, 0
2, 40800, Note_on_c, 0, 74, 43
2, 40800, Note_on_c, 0, 70, 33
2, 40820, Note_on_c, 0, 76, 0
2, 40820, Note_on_c, 0, 72, 0
2, 41040, Note_on_c, 0, 73, 38
2, 41040, Note_on_c, 0, 69, 30
2, 41060, Note_on_c, 0, 74, 0
2, 41060, Note_on_c, 0, 70, 0
2, 41240, Note_on_c, 0, 73, 0
2, 41240, Note_on_c, 0, 69, 0
2, 41280, Note_on_c, 0, 74, 56
2, 41280, Note_on_c, 0, 70, 46
2, 41520, Note_on_c, 0, 72, 43
2, 41520, Note_on_c, 0, 69, 34
2, 41540, Note_on_c, 0, 74, 0
2, 41540, Note_on_c, 0, 70, 0
2, 41760, Note_on_c, 0, 70, 46
2, 41760, Note_on_c, 0, 67, 36
2, 41780, Note_on_c, 0, 72, 0
2, 41780, Note_on_c, 0, 69, 0
2, 42000, Note_on_c, 0, 69, 41
2, 42000, Note_on_c, 0, 66, 33
2, 42020, Note_on_c, 0, 70, 0
2, 42020, Note_on_c, 0, 67, 0
2, 42200, Note_on_c, 0, 69, 0
2, 42200, Note_on_c, 0, 66, 0
2, 42240, Note_on_c, 0, 69, 60
2, 42240, Note_on_c, 0, 66, 52
2, 42240, Note_on_c, 0, 62, 30
2, 43200, Note_on_c, 0, 70, 40
2, 43200, Note_on_c, 0, 67, 25
2, 43220, Note_on_c, 0, 69, 0
2, 43220, Note_on_c, 0, 66, 0
2, 43360, Note_on_c, 0, 62, 0
2, 43360, Note_on_c, 0, 70, 0
2, 43360, Note_on_c, 0, 67, 0
2, 43440, Note_on_c, 0, 70, 42
2, 43500, Note_on_c, 0, 72, 30
2, 43510, Note_on_c, 0, 70, 0
2, 43550, Note_on_c, 0, 70, 33
2, 43560, Note_on_c, 0, 72, 0
2, 43590, Note_on_c, 0, 69, 36
2, 43600, Note_on_c, 0, 70, 0
2, 43630, Note_on_c, 0, 70, 34
2, 43640, Note_on_c, 0, 69, 0
2, 43680, Note_on_c, 0, 72, 40
2, 43690, Note_on_c, 0, 70, 0
2, 43920, Note_on_c, 0, 74, 37
2, 43940, Note_on_c, 0, 72, 0
2, 44120, Note_on_c, 0, 74, 0
2, 44160, Note_on_c, 0, 72, 39
2, 44340, Note_on_c, 0, 70, 41
2, 44360, Note_on_c, 0, 72, 0
2, 44480, Note_on_c, 0, 69, 43
2, 44500, Note_on_c, 0, 70, 0
2, 44640, Note_on_c, 0, 67, 45
2, 44660, Note_on_c, 0, 69, 0
2, 44800, Note_on_c, 0, 70, 42
2, 44820, Note_on_c, 0, 67, 0
2, 44950, Note_on_c, 0, 74, 39
2, 44970, Note_on_c, 0, 70, 0
2, 45120, Note_on_c, 0, 65, 45
2, 45140, Note_on_c, 0, 74, 0
2, 45600, Note_on_c, 0, 67, 40
2, 45600, Note_on_c, 0, 64, 25
2, 45620, Note_on_c, 0, 65, 0
2, 46000, Note_on_c, 0, 67, 0
2, 46000, Note_on_c, 0, 64, 0
2, 46080, Note_on_c, 0, 67, 43
2, 46080, Note_on_c, 0, 64, 22
2, 46440, Note_on_c, 0, 68, 45
2, 46460, Note_on_c, 0, 67, 0
2, 46560, Note_on_c, 0, 69, 38
2, 46560, Note_on_c, 0, 65, 15
2, 46580, Note_on_c, 0, 64, 0
2, 46580, Note_on_c, 0, 68, 0
2, 46880, Note_on_c, 0, 69, 0
2, 46880, Note_on_c, 0, 65, 0
2, 48000, Note_on_c, 0, 70, 45
2, 48400, Note_on_c, 0, 70, 0
2, 48960, Note_on_c, 0, 67, 37
2, 49160, Note_on_c, 0, 67, 0
2, 49440, Note_on_c, 0, 64, 40
2, 49680, Note_on_c, 0, 64, 0
2, 49920, Note_on_c, 0, 72, 42
2, 50280, Note_on_c, 0, 69, 45
2, 50300, Note_on_c, 0, 72, 0
2, 50400, Note_on_c, 0, 72, 40
2, 50420, Note_on_c, 0, 69, 0
2, 50560, Note_on_c, 0, 72, 0
2, 51840, Note_on_c, 0, 70, 40
2, 52240, Note_on_c, 0, 70, 0
2, 52800, Note_on_c, 0, 67, 37
2, 53000, Note_on_c, 0, 67, 0
2, 53280, Note_on_c, 0, 64, 40
2, 53520, Note_on_c, 0, 64, 0
2, 53760, Note_on_c, 0, 72, 42
2, 54120, Note_on_c, 0, 77, 37
2, 54140, Note_on_c, 0, 72, 0
2, 54240, Note_on_c, 0, 72, 40
2, 54260, Note_on_c, 0, 77, 0
2, 54400, Note_on_c, 0, 72, 0
2, 54720, Note_on_c, 0, 81, 50
2, 54720, Note_on_c, 0, 77, 40
2, 54960, Note_on_c, 0, 79, 37
2, 54960, Note_on_c, 0, 76, 28
2, 54980, Note_on_c, 0, 81, 0
2, 54980, Note_on_c, 0, 77, 0
2, 55200, Note_on_c, 0, 77, 40
2, 55200, Note_on_c, 0, 74, 30
2, 55220, Note_on_c, 0, 79, 0
2, 55220, Note_on_c, 0, 76, 0
2, 55440, Note_on_c, 0, 76, 35
2, 55440, Note_on_c, 0, 73, 27
2, 55460, Note_on_c, 0, 77, 0
2, 55460, Note_on_c, 0, 74, 0
2, 55640, Note_on_c, 0, 76, 0
2, 55640, Note_on_c, 0, 73, 0
2, 55680, Note_on_c, 0, 77, 53
2, 55680, Note_on_c, 0, 74, 43
2, 55920, Note_on_c, 0, 76, 40
2, 55920, Note_on_c, 0, 72, 31
2, 55940, Note_on_c, 0, 77, 0
2, 55940, Note_on_c, 0, 74, 0
2, 56160, Note_on_c, 0, 74, 43
2, 56160, Note_on_c, 0, 70, 33
2, 56180, Note_on_c, 0, 76, 0
2, 56180, Note_on_c, 0, 72, 0
2, 56400, Note_on_c, 0, 73, 38
2, 56400, Note_on_c, 0, 69, 30
2, 56420, Note_on_c, 0, 74, 0
2, 56420, Note_on_c, 0, 70, 0
2, 56600, Note_on_c, 0, 73, 0
2, 56600, Note_on_c, 0, 69, 0
2, 56640, Note_on_c, 0, 74, 56
2, 56640, Note_on_c, 0, 70, 46
2, 56880, Note_on_c, 0, 72, 43
2, 56880, Note_on_c, 0, 69, 34
2, 56900, Note_on_c, 0, 74, 0
2, 56900, Note_on_c, 0, 70, 0
2, 57120, Note_on_c, 0, 70, 46
2, 57120, Note_on_c, 0, 67, 36
2, 57140, Note_on_c, 0, 72, 0
2, 57140, Note_on_c, 0, 69, 0
2, 57360, Note_on_c, 0, 69, 41
2, 57360, Note_on_c, 0, 66, 33
2, 57380, Note_on_c, 0, 70, 0
2, 57380, Note_on_c, 0, 67, 0
2, 57560, Note_on_c, 0, 69, 0
2, 57560, Note_on_c, 0, 66, 0
2, 57600, Note_on_c, 0, 69, 60
2, 57600, Note_on_c, 0, 66, 52
2, 57600, Note_on_c, 0, 62, 30
2, 58560, Note_on_c, 0, 70, 40
2, 58560, Note_on_c, 0, 67, 25
2, 58580, Note_on_c, 0, 69, 0
2, 58580, Note_on_c, 0, 66, 0
2, 58720, Note_on_c, 0, 62, 0
2, 58720, Note_on_c, 0, 70, 0
2, 58720, Note_on_c, 0, 67, 0
2, 58800, Note_on_c, 0, 70, 42
2, 58860, Note_on_c, 0, 72, 30
2, 58870, Note_on_c, 0, 70, 0
2, 58910, Note_on_c, 0, 70, 33
2, 58920, Note_on_c, 0, 72, 0
2, 58950, Note_on_c, 0, 69, 36
2, 58960, Note_on_c, 0, 70, 0
2, 58990, Note_on_c, 0, 70, 34
2, 59000, Note_on_c, 0, 69, 0
2, 59040, Note_on_c, 0, 72, 40
2, 59050, Note_on_c, 0, 70, 0
2, 59280, Note_on_c, 0, 74, 37
2, 59300, Note_on_c, 0, 72, 0
2, 59480, Note_on_c, 0, 74, 0
2, 59520, Note_on_c, 0, 72, 39
2, 59700, Note_on_c, 0, 77, 41
2, 59720, Note_on_c, 0, 72, 0
2, 59840, Note_on_c, 0, 69, 43
2, 59860, Note_on_c, 0, 77, 0
2, 60000, Note_on_c, 0, 67, 45
2, 60020, Note_on_c, 0, 69, 0
2, 60160, Note_on_c, 0, 70, 42
2, 60180, Note_on_c, 0, 67, 0
2, 60310, Note_on_c, 0, 74, 39
2, 60330, Note_on_c, 0, 70, 0
2, 60480, Note_on_c, 0, 65, 45
2, 60500, Note_on_c, 0, 74, 0
2, 60960, Note_on_c, 0, 64, 35
2, 60980, Note_on_c, 0, 65, 0
2, 61320, Note_on_c, 0, 64, 0
2, 61380, Note_on_c, 0, 69, 50
2, 61440, Note_on_c, 0, 81, 70
2, 61460, Note_on_c, 0, 69, 0
2, 62100, Note_on_c, 0, 77, 65
2, 62120, Note_on_c, 0, 81, 0
2, 62140, Note_on_c, 0, 77, 0
2, 62160, Note_on_c, 0, 77, 68
2, 62210, Note_on_c, 0, 79, 60
2, 62240, Note_on_c, 0, 77, 0
2, 62250, Note_on_c, 0, 77, 63
2, 62270, Note_on_c, 0, 79, 0
2, 62280, Note_on_c, 0, 76, 66
2, 62300, Note_on_c, 0, 77, 0
2, 62310, Note_on_c, 0, 77, 64
2, 62330, Note_on_c, 0, 76, 0
2, 62350, Note_on_c, 0, 70, 52
2, 62370, Note_on_c, 0, 77, 0
2, 62400, Note_on_c, 0, 82, 75
2, 62420, Note_on_c, 0, 70, 0
2, 63060, Note_on_c, 0, 79, 70
2, 63080, Note_on_c, 0, 82, 0
2, 63100, Note_on_c, 0, 79, 0
2, 63120, Note_on_c, 0, 79, 73
2, 63180, Note_on_c, 0, 81, 65
2, 63200, Note_on_c, 0, 79, 0
2, 63230, Note_on_c, 0, 79, 68
2, 63240, Note_on_c, 0, 81, 0
2, 63270, Note_on_c, 0, 78, 71
2, 63280, Note_on_c, 0, 79, 0
2, 63310, Note_on_c, 0, 79, 69
2, 63320, Note_on_c, 0, 78, 0
2, 63360, Note_on_c, 0, 84, 75
2, 63370, Note_on_c, 0, 79, 0
2, 63720, Note_on_c, 0, 81, 67
2, 63740, Note_on_c, 0, 84, 0
2, 63840, Note_on_c, 0, 77, 70
2, 63860, Note_on_c, 0, 81, 0
2, 64560, Note_on_c, 0, 75, 60
2, 64580, Note_on_c, 0, 77, 0
2, 64800, Note_on_c, 0, 74, 62
2, 64820, Note_on_c, 0, 75, 0
2, 65040, Note_on_c, 0, 73, 64
2, 65060, Note_on_c, 0, 74, 0
2, 65280, Note_on_c, 0, 74, 66
2, 65300, Note_on_c, 0, 73, 0
2, 65480, Note_on_c, 0, 74, 0
2, 65520, Note_on_c, 0, 76, 63
2, 65580, Note_on_c, 0, 76, 0
2, 65640, Note_on_c, 0, 78, 60
2, 65700, Note_on_c, 0, 78, 0
2, 65760, Note_on_c, 0, 79, 57
2, 65820, Note_on_c, 0, 79, 0
2, 65880, Note_on_c, 0, 81, 54
2, 65940, Note_on_c, 0, 81, 0
2, 66000, Note_on_c, 0, 82, 51
2, 66060, Note_on_c, 0, 82, 0
2, 66120, Note_on_c, 0, 84, 55
2, 66240, Note_on_c, 0, 86, 50
2, 66260, Note_on_c, 0, 84, 0
2, 66300, Note_on_c, 0, 86, 0
2, 66360, Note_on_c, 0, 84, 58
2, 66480, Note_on_c, 0, 82, 53
2, 66500, Note_on_c, 0, 84, 0
2, 66540, Note_on_c, 0, 82, 0
2, 66600, Note_on_c, 0, 81, 50
2, 66660, Note_on_c, 0, 81, 0
2, 66720, Note_on_c, 0, 79, 52
2, 66780, Note_on_c, 0, 79, 0
2, 66840, Note_on_c, 0, 77, 54
2, 66900, Note_on_c, 0, 77, 0
2, 66960, Note_on_c, 0, 76, 56
2, 67020, Note_on_c, 0, 76, 0
2, 67080, Note_on_c, 0, 74, 58
2, 67140, Note_on_c, 0, 74, 0
2, 67200, Note_on_c, 0, 72, 60
2, 67600, Note_on_c, 0, 72, 0
2, 67680, Note_on_c, 0, 84, 75
2, 68320, Note_on_c, 0, 81, 55
2, 68340, Note_on_c, 0, 84, 0
2, 68480, Note_on_c, 0, 77, 58
2, 68500, Note_on_c, 0, 81, 0
2, 68640, Note_on_c, 0, 72, 62
2, 68660, Note_on_c, 0, 77, 0
2, 68760, Note_on_c, 0, 69, 64
2, 68780, Note_on_c, 0, 72, 0
2, 68880, Note_on_c, 0, 77, 60
2, 68900, Note_on_c, 0, 69, 0
2, 68940, Note_on_c, 0, 77, 0
2, 69060, Note_on_c, 0, 65, 65
2, 69120, Note_on_c, 0, 67, 68
2, 69140, Note_on_c, 0, 65, 0
2, 69220, Note_on_c, 0, 69, 50
2, 69240, Note_on_c, 0, 67, 0
2, 69300, Note_on_c, 0, 67, 40
2, 69310, Note_on_c, 0, 69, 0
2, 69360, Note_on_c, 0, 69, 32
2, 69380, Note_on_c, 0, 67, 0
2, 69410, Note_on_c, 0, 67, 29
2, 69440, Note_on_c, 0, 69, 0
2, 69460, Note_on_c, 0, 69, 32
2, 69490, Note_on_c, 0, 67, 0
2, 69520, Note_on_c, 0, 67, 30
2, 69540, Note_on_c, 0, 69, 0
2, 69560, Note_on_c, 0, 69, 33
2, 69600, Note_on_c, 0, 67, 0
2, 69610, Note_on_c, 0, 67, 32
2, 69640, Note_on_c, 0, 69, 0
2, 69670, Note_on_c, 0, 69, 35
2, 69690, Note_on_c, 0, 67, 0
2, 69710, Note_on_c, 0, 67, 33
2, 69750, Note_on_c, 0, 69, 0
2, 69760, Note_on_c, 0, 69, 36
2, 69790, Note_on_c, 0, 67, 0
2, 69820, Note_on_c, 0, 67, 39
2, 69840, Note_on_c, 0, 69, 0
2, 69860, Note_on_c, 0, 69, 35
2, 69900, Note_on_c, 0, 67, 0
2, 69910, Note_on_c, 0, 67, 36
2, 69940, Note_on_c, 0, 69, 0
2, 69960, Note_on_c, 0, 69, 33
2, 69990, Note_on_c, 0, 67, 0
2, 70020, Note_on_c, 0, 67, 35
2, 70040, Note_on_c, 0, 69, 0
2, 70060, Note_on_c, 0, 69, 39
2, 70100, Note_on_c, 0, 67, 0
2, 70110, Note_on_c, 0, 67, 35
2, 70140, Note_on_c, 0, 69, 0
2, 70170, Note_on_c, 0, 69, 38
2, 70190, Note_on_c, 0, 67, 0
2, 70210, Note_on_c, 0, 67, 36
2, 70250, Note_on_c, 0, 69, 0
2, 70260, Note_on_c, 0, 69, 34
2, 70290, Note_on_c, 0, 67, 0
2, 70310, Note_on_c, 0, 67, 37
2, 70340, Note_on_c, 0, 69, 0
2, 70370, Note_on_c, 0, 69, 31
2, 70390, Note_on_c, 0, 67, 0
2, 70430, Note_on_c, 0, 67, 33
2, 70450, Note_on_c, 0, 69, 0
2, 70470, Note_on_c, 0, 69, 37
2, 70510, Note_on_c, 0, 67, 0
2, 70510, Note_on_c, 0, 67, 34
2, 70550, Note_on_c, 0, 69, 0
2, 70560, Note_on_c, 0, 69, 38
2, 70590, Note_on_c, 0, 67, 0
2, 70600, Note_on_c, 0, 67, 33
2, 70640, Note_on_c, 0, 69, 0
2, 70650, Note_on_c, 0, 69, 32
2, 70680, Note_on_c, 0, 67, 0
2, 70690, Note_on_c, 0, 67, 36
2, 70730, Note_on_c, 0, 69, 0
2, 70740, Note_on_c, 0, 69, 33
2, 70770, Note_on_c, 0, 67, 0
2, 70780, Note_on_c, 0, 67, 34
2, 70820, Note_on_c, 0, 69, 0
2, 70840, Note_on_c, 0, 65, 39
2, 70860, Note_on_c, 0, 67, 0
2, 70930, Note_on_c, 0, 67, 42
2, 70960, Note_on_c, 0, 65, 0
2, 71040, Note_on_c, 0, 65, 48
2, 71060, Note_on_c, 0, 67, 0
2, 71440, Note_on_c, 0, 65, 0
2, 71640, Note_on_c, 0, 77, 50
2, 71690, Note_on_c, 0, 77, 0
2, 71760, Note_on_c, 0, 77, 45
2, 71820, Note_on_c, 0, 79, 35
2, 71840, Note_on_c, 0, 77, 0
2, 71870, Note_on_c, 0, 77, 38
2, 71880, Note_on_c, 0, 79, 0
2, 71910, Note_on_c, 0, 76, 41
2, 71930, Note_on_c, 0, 77, 0
2, 71950, Note_on_c, 0, 77, 44
2, 71970, Note_on_c, 0, 76, 0
2, 72000, Note_on_c, 0, 84, 48
2, 72010, Note_on_c, 0, 77, 0
2, 72240, Note_on_c, 0, 82, 44
2, 72260, Note_on_c, 0, 84, 0
2, 72480, Note_on_c, 0, 81, 41
2, 72500, Note_on_c, 0, 82, 0
2, 72720, Note_on_c, 0, 79, 43
2, 72740, Note_on_c, 0, 81, 0
2, 72920, Note_on_c, 0, 79, 0
2, 72960, Note_on_c, 0, 79, 40
2, 73200, Note_on_c, 0, 77, 32
2, 73220, Note_on_c, 0, 79, 0
2, 73300, Note_on_c, 0, 77, 0
2, 73560, Note_on_c, 0, 77, 45
2, 73610, Note_on_c, 0, 77, 0
2, 73680, Note_on_c, 0, 77, 40
2, 73740, Note_on_c, 0, 79, 30
2, 73760, Note_on_c, 0, 77, 0
2, 73790, Note_on_c, 0, 77, 33
2, 73800, Note_on_c, 0, 79, 0
2, 73830, Note_on_c, 0, 76, 36
2, 73850, Note_on_c, 0, 77, 0
2, 73870, Note_on_c, 0, 77, 39
2, 73890, Note_on_c, 0, 76, 0
2, 73920, Note_on_c, 0, 84, 43
2, 73930, Note_on_c, 0, 77, 0
2, 74160, Note_on_c, 0, 82, 39
2, 74180, Note_on_c, 0, 84, 0
2, 74400, Note_on_c, 0, 81, 36
2, 74420, Note_on_c, 0, 82, 0
2, 74640, Note_on_c, 0, 79, 38
2, 74660, Note_on_c, 0, 81, 0
2, 74780, Note_on_c, 0, 79, 0
2, 74820, Note_on_c, 0, 79, 30
2, 74880, Note_on_c, 0, 77, 40
2, 74900, Note_on_c, 0, 79, 0
2, 75280, Note_on_c, 0, 77, 0
2, 75360, Note_on_c, 0, 77, 45
2, 75560, Note_on_c, 0, 77, 0
2, 75840, Note_on_c, 0, 77, 48
2, 76060, Note_on_c, 0, 77, 0
2, 76320, Note_on_c, 0, 77, 42
2, 76470, Note_on_c, 0, 77, 0
2, 76800, Note_on_c, 0, 77, 35
2, 77680, Note_on_c, 0, 77, 0
2, 77760, Note_on_c, 0, 76, 48
2, 77880, Note_on_c, 0, 77, 43
2, 77900, Note_on_c, 0, 76, 0
2, 78000, Note_on_c, 0, 79, 38
2, 78020, Note_on_c, 0, 77, 0
2, 78120, Note_on_c, 0, 77, 40
2, 78140, Note_on_c, 0, 79, 0
2, 78220, Note_on_c, 0, 77, 0
2, 78240, Note_on_c, 0, 77, 42
2, 78360, Note_on_c, 0, 75, 44
2, 78380, Note_on_c, 0, 77, 0
2, 78480, Note_on_c, 0, 74, 46
2, 78500, Note_on_c, 0, 75, 0
2, 78600, Note_on_c, 0, 72, 48
2, 78620, Note_on_c, 0, 74, 0
2, 78720, Note_on_c, 0, 70, 50
2, 78740, Note_on_c, 0, 72, 0
2, 79020, Note_on_c, 0, 72, 38
2, 79040, Note_on_c, 0, 70, 0
2, 79090, Note_on_c, 0, 70, 40
2, 79110, Note_on_c, 0, 72, 0
2, 79140, Note_on_c, 0, 69, 42
2, 79160, Note_on_c, 0, 70, 0
2, 79200, Note_on_c, 0, 70, 44
2, 79220, Note_on_c, 0, 69, 0
2, 79440, Note_on_c, 0, 72, 51
2, 79460, Note_on_c, 0, 70, 0
2, 79680, Note_on_c, 0, 74, 45
2, 79700, Note_on_c, 0, 72, 0
2, 79980, Note_on_c, 0, 75, 38
2, 80000, Note_on_c, 0, 74, 0
2, 80050, Note_on_c, 0, 74, 40
2, 80070, Note_on_c, 0, 75, 0
2, 80100, Note_on_c, 0, 72, 42
2, 80120, Note_on_c, 0, 74, 0
2, 80160, Note_on_c, 0, 74, 39
2, 80180, Note_on_c, 0, 72, 0
2, 80400, Note_on_c, 0, 75, 46
2, 80420, Note_on_c, 0, 74, 0
2, 80640, Note_on_c, 0, 76, 48
2, 80660, Note_on_c, 0, 75, 0
2, 81360, Note_on_c, 0, 77, 36
2, 81380, Note_on_c, 0, 76, 0
2, 81600, Note_on_c, 0, 72, 40
2, 81620, Note_on_c, 0, 77, 0
2, 81800, Note_on_c, 0, 72, 0
2, 82560, Note_on_c, 0, 75, 48
2, 82860, Note_on_c, 0, 77, 38
2, 82880, Note_on_c, 0, 75, 0
2, 82930, Note_on_c, 0, 75, 40
2, 82950, Note_on_c, 0, 77, 0
2, 82980, Note_on_c, 0, 74, 42
2, 83000, Note_on_c, 0, 75, 0
2, 83040, Note_on_c, 0, 75, 39
2, 83060, Note_on_c, 0, 74, 0
2, 83280, Note_on_c, 0, 77, 46
2, 83300, Note_on_c, 0, 75, 0
2, 83520, Note_on_c, 0, 79, 50
2, 83540, Note_on_c, 0, 77, 0
2, 83820, Note_on_c, 0, 81, 40
2, 83840, Note_on_c, 0, 79, 0
2, 83890, Note_on_c, 0, 79, 42
2, 83910, Note_on_c, 0, 81, 0
2, 83940, Note_on_c, 0, 77, 44
2, 83960, Note_on_c, 0, 79, 0
2, 84000, Note_on_c, 0, 79, 41
2, 84020, Note_on_c, 0, 77, 0
2, 84240, Note_on_c, 0, 81, 48
2, 84260, Note_on_c, 0, 79, 0
2, 84440, Note_on_c, 0, 81, 0
2, 84480, Note_on_c, 0, 81, 50
2, 85200, Note_on_c, 0, 82, 40
2, 85220, Note_on_c, 0, 81, 0
2, 85440, Note_on_c, 0, 77, 43
2, 85460, Note_on_c, 0, 82, 0
2, 85640, Note_on_c, 0, 77, 0
2, 86400, Note_on_c, 0, 78, 48
2, 86640, Note_on_c, 0, 79, 50
2, 86660, Note_on_c, 0, 78, 0
2, 87120, Note_on_c, 0, 80, 45
2, 87140, Note_on_c, 0, 79, 0
2, 87240, Note_on_c, 0, 79, 47
2, 87260, Note_on_c, 0, 80, 0
2, 87360, Note_on_c, 0, 77, 49
2, 87380, Note_on_c, 0, 79, 0
2, 87600, Note_on_c, 0, 75, 46
2, 87620, Note_on_c, 0, 77, 0
2, 87660, Note_on_c, 0, 75, 0
2, 87840, Note_on_c, 0, 74, 48
2, 87920, Note_on_c, 0, 74, 0
2, 88080, Note_on_c, 0, 72, 43
2, 88140, Note_on_c, 0, 72, 0
2, 88320, Note_on_c, 0, 79, 47
2, 88560, Note_on_c, 0, 77, 50
2, 88580, Note_on_c, 0, 79, 0
2, 89040, Note_on_c, 0, 79, 45
2, 89060, Note_on_c, 0, 77, 0
2, 89160, Note_on_c, 0, 77, 40
2, 89180, Note_on_c, 0, 79, 0
2, 89260, Note_on_c, 0, 77, 0
2, 89280, Note_on_c, 0, 77, 47
2, 89400, Note_on_c, 0, 75, 42
2, 89420, Note_on_c, 0, 77, 0
2, 89500, Note_on_c, 0, 75, 0
2, 89520, Note_on_c, 0, 75, 49
2, 89640, Note_on_c, 0, 74, 44
2, 89660, Note_on_c, 0, 75, 0
2, 89740, Note_on_c, 0, 74, 0
2, 89760, Note_on_c, 0, 74, 46
2, 89880, Note_on_c, 0, 72, 41
2, 89900, Note_on_c, 0, 74, 0
2, 89980, Note_on_c, 0, 72, 0
2, 90000, Note_on_c, 0, 72, 48
2, 90120, Note_on_c, 0, 70, 43
2, 90140, Note_on_c, 0, 72, 0
2, 90220, Note_on_c, 0, 70, 0
2, 90240, Note_on_c, 0, 77, 45
2, 90300, Note_on_c, 0, 77, 0
2, 90360, Note_on_c, 0, 76, 48
2, 90400, Note_on_c, 0, 76, 0
2, 90480, Note_on_c, 0, 75, 60
2, 90960, Note_on_c, 0, 72, 40
2, 90980, Note_on_c, 0, 75, 0
2, 91200, Note_on_c, 0, 72, 0
2, 91200, Note_on_c, 0, 75, 40
2, 91260, Note_on_c, 0, 75, 0
2, 91320, Note_on_c, 0, 73, 43
2, 91360, Note_on_c, 0, 73, 0
2, 91440, Note_on_c, 0, 74, 55
2, 91920, Note_on_c, 0, 70, 45
2, 91940, Note_on_c, 0, 74, 0
2, 92160, Note_on_c, 0, 70, 0
2, 92160, Note_on_c, 0, 74, 48
2, 92880, Note_on_c, 0, 75, 43
2, 92900, Note_on_c, 0, 74, 0
2, 93000, Note_on_c, 0, 74, 45
2, 93020, Note_on_c, 0, 75, 0
2, 93120, Note_on_c, 0, 72, 40
2, 93140, Note_on_c, 0, 74, 0
2, 93300, Note_on_c, 0, 77, 35
2, 93320, Note_on_c, 0, 72, 0
2, 93440, Note_on_c, 0, 76, 37
2, 93460, Note_on_c, 0, 77, 0
2, 93600, Note_on_c, 0, 75, 39
2, 93620, Note_on_c, 0, 76, 0
2, 93720, Note_on_c, 0, 74, 41
2, 93740, Note_on_c, 0, 75, 0
2, 93840, Note_on_c, 0, 75, 40
2, 93860, Note_on_c, 0, 74, 0
2, 93960, Note_on_c, 0, 72, 42
2, 93980, Note_on_c, 0, 75, 0
2, 94080, Note_on_c, 0, 70, 45
2, 94100, Note_on_c, 0, 72, 0
2, 94380, Note_on_c, 0, 72, 38
2, 94400, Note_on_c, 0, 70, 0
2, 94450, Note_on_c, 0, 70, 40
2, 94470, Note_on_c, 0, 72, 0
2, 94500, Note_on_c, 0, 69, 42
2, 94520, Note_on_c, 0, 70, 0
2, 94560, Note_on_c, 0, 70, 42
2, 94580, Note_on_c, 0, 69, 0
2, 94800, Note_on_c, 0, 72, 45
2, 94820, Note_on_c, 0, 70, 0
2, 95040, Note_on_c, 0, 73, 45
2, 95060, Note_on_c, 0, 72, 0
2, 95340, Note_on_c, 0, 75, 38
2, 95360, Note_on_c, 0, 73, 0
2, 95410, Note_on_c, 0, 73, 40
2, 95430, Note_on_c, 0, 75, 0
2, 95460, Note_on_c, 0, 72, 42
2, 95480, Note_on_c, 0, 73, 0
2, 95520, Note_on_c, 0, 73, 39
2, 95540, Note_on_c, 0, 72, 0
2, 95760, Note_on_c, 0, 75, 46
2, 95780, Note_on_c, 0, 73, 0
2, 96000, Note_on_c, 0, 76, 48
2, 96020, Note_on_c, 0, 75, 0
2, 96720, Note_on_c, 0, 77, 36
2, 96740, Note_on_c, 0, 76, 0
2, 96960, Note_on_c, 0, 72, 40
2, 96980, Note_on_c, 0, 77, 0
2, 97160, Note_on_c, 0, 72, 0
2, 97920, Note_on_c, 0, 63, 48
2, 98480, Note_on_c, 0, 65, 38
2, 98500, Note_on_c, 0, 63, 0
2, 98550, Note_on_c, 0, 63, 42
2, 98560, Note_on_c, 0, 65, 0
2, 98620, Note_on_c, 0, 62, 45
2, 98630, Note_on_c, 0, 63, 0
2, 98690, Note_on_c, 0, 63, 48
2, 98700, Note_on_c, 0, 62, 0
2, 98750, Note_on_c, 0, 64, 50
2, 98770, Note_on_c, 0, 63, 0
2, 98820, Note_on_c, 0, 65, 52
2, 98830, Note_on_c, 0, 64, 0
2, 98880, Note_on_c, 0, 66, 54
2, 98900, Note_on_c, 0, 65, 0
2, 98940, Note_on_c, 0, 67, 44
2, 98960, Note_on_c, 0, 66, 0
2, 99000, Note_on_c, 0, 68, 46
2, 99020, Note_on_c, 0, 67, 0
2, 99060, Note_on_c, 0, 69, 48
2, 99080, Note_on_c, 0, 68, 0
2, 99120, Note_on_c, 0, 70, 50
2, 99140, Note_on_c, 0, 69, 0
2, 99180, Note_on_c, 0, 71, 52
2, 99200, Note_on_c, 0, 70, 0
2, 99240, Note_on_c, 0, 72, 54
2, 99260, Note_on_c, 0, 71, 0
2, 99300, Note_on_c, 0, 73, 56
2, 99320, Note_on_c, 0, 72, 0
2, 99360, Note_on_c, 0, 74, 58
2, 99380, Note_on_c, 0, 73, 0
2, 99420, Note_on_c, 0, 75, 53
2, 99440, Note_on_c, 0, 74, 0
2, 99480, Note_on_c, 0, 76, 55
2, 99500, Note_on_c, 0, 75, 0
2, 99540, Note_on_c, 0, 77, 57
2, 99560, Note_on_c, 0, 76, 0
2, 99600, Note_on_c, 0, 78, 59
2, 99620, Note_on_c, 0, 77, 0
2, 99660, Note_on_c, 0, 79, 61
2, 99680, Note_on_c, 0, 78, 0
2, 99720, Note_on_c, 0, 80, 63
2, 99740, Note_on_c, 0, 79, 0
2, 99780, Note_on_c, 0, 81, 65
2, 99800, Note_on_c, 0, 80, 0
2, 99820, Note_on_c, 0, 81, 0
2, 99840, Note_on_c, 0, 81, 58
2, 100140, Note_on_c, 0, 82, 48
2, 100160, Note_on_c, 0, 81, 0
2, 100210, Note_on_c, 0, 81, 50
2, 100230, Note_on_c, 0, 82, 0
2, 100260, Note_on_c, 0, 79, 52
2, 100280, Note_on_c, 0, 81, 0
2, 100320, Note_on_c, 0, 81, 52
2, 100340, Note_on_c, 0, 79, 0
2, 100560, Note_on_c, 0, 82, 55
2, 100580, Note_on_c, 0, 81, 0
2, 100800, Note_on_c, 0, 77, 45
2, 100820, Note_on_c, 0, 82, 0
2, 101000, Note_on_c, 0, 77, 0
2, 101700, Note_on_c, 0, 76, 55
2, 101740, Note_on_c, 0, 76, 0
2, 101760, Note_on_c, 0, 85, 70
2, 102960, Note_on_c, 0, 85, 0
2, 102960, Note_on_c, 0, 84, 40
2, 103080, Note_on_c, 0, 82, 38
2, 103100, Note_on_c, 0, 84, 0
2, 103120, Note_on_c, 0, 82, 0
2, 103200, Note_on_c, 0, 80, 42
2, 103320, Note_on_c, 0, 79, 40
2, 103340, Note_on_c, 0, 80, 0
2, 103360, Note_on_c, 0, 79, 0
2, 103440, Note_on_c, 0, 77, 44
2, 103560, Note_on_c, 0, 76, 42
2, 103580, Note_on_c, 0, 77, 0
2, 103600, Note_on_c, 0, 76, 0
2, 103680, Note_on_c, 0, 79, 38
2, 104160, Note_on_c, 0, 77, 40
2, 104180, Note_on_c, 0, 79, 0
2, 104880, Note_on_c, 0, 76, 42
2, 104900, Note_on_c, 0, 77, 0
2, 105120, Note_on_c, 0, 75, 44
2, 105140, Note_on_c, 0, 76, 0
2, 105280, Note_on_c, 0, 74, 41
2, 105300, Note_on_c, 0, 75, 0
2, 105420, Note_on_c, 0, 73, 43
2, 105440, Note_on_c, 0, 74, 0
2, 105600, Note_on_c, 0, 72, 45
2, 105620, Note_on_c, 0, 73, 0
2, 105900, Note_on_c, 0, 73, 38
2, 105920, Note_on_c, 0, 72, 0
2, 105970, Note_on_c, 0, 72, 40
2, 105990, Note_on_c, 0, 73, 0
2, 106020, Note_on_c, 0, 70, 42
2, 106040, Note_on_c, 0, 72, 0
2, 106080, Note_on_c, 0, 72, 39
2, 106100, Note_on_c, 0, 70, 0
2, 106320, Note_on_c, 0, 73, 47
2, 106340, Note_on_c, 0, 72, 0
2, 106560, Note_on_c, 0, 65, 45
2, 106580, Note_on_c, 0, 73, 0
2, 107040, Note_on_c, 0, 68, 42
2, 107040, Note_on_c, 0, 64, 18
2, 107060, Note_on_c, 0, 65, 0
2, 107280, Note_on_c, 0, 67, 44
2, 107300, Note_on_c, 0, 68, 0
2, 107520, Note_on_c, 0, 65, 40
2, 107540, Note_on_c, 0, 67, 0
2, 107540, Note_on_c, 0, 64, 0
2, 108480, Note_on_c, 0, 65, 0
2, 109440, Note_on_c, 0, 75, 45
2, 109840, Note_on_c, 0, 75, 0
2, 110400, Note_on_c, 0, 72, 36
2, 110600, Note_on_c, 0, 72, 0
2, 110880, Note_on_c, 0, 69, 40
2, 111120, Note_on_c, 0, 69, 0
2, 111360, Note_on_c, 0, 77, 42
2, 111720, Note_on_c, 0, 74, 45
2, 111740, Note_on_c, 0, 77, 0
2, 111840, Note_on_c, 0, 77, 40
2, 111860, Note_on_c, 0, 74, 0
2, 112000, Note_on_c, 0, 77, 0
2, 113280, Note_on_c, 0, 77, 45
2, 113520, Note_on_c, 0, 75, 40
2, 113540, Note_on_c, 0, 77, 0
2, 113680, Note_on_c, 0, 75, 0
2, 114240, Note_on_c, 0, 74, 40
2, 114480, Note_on_c, 0, 72, 35
2, 114500, Note_on_c, 0, 74, 0
2, 114540, Note_on_c, 0, 72, 0
2, 114720, Note_on_c, 0, 70, 42
2, 114960, Note_on_c, 0, 69, 37
2, 114980, Note_on_c, 0, 70, 0
2, 115020, Note_on_c, 0, 69, 0
2, 115200, Note_on_c, 0, 77, 42
2, 115560, Note_on_c, 0, 74, 45
2, 115580, Note_on_c, 0, 77, 0
2, 115680, Note_on_c, 0, 77, 40
2, 115700, Note_on_c, 0, 74, 0
2, 115840, Note_on_c, 0, 77, 0
2, 116160, Note_on_c, 0, 86, 50
2, 116160, Note_on_c, 0, 82, 40
2, 116400, Note_on_c, 0, 84, 37
2, 116400, Note_on_c, 0, 81, 28
2, 116420, Note_on_c, 0, 86, 0
2, 116420, Note_on_c, 0, 82, 0
2, 116640, Note_on_c, 0, 82, 40
2, 116640, Note_on_c, 0, 79, 30
2, 116660, Note_on_c, 0, 84, 0
2, 116660, Note_on_c, 0, 81, 0
2, 116880, Note_on_c, 0, 81, 35
2, 116880, Note_on_c, 0, 78, 27
2, 116900, Note_on_c, 0, 82, 0
2, 116900, Note_on_c, 0, 79, 0
2, 117080, Note_on_c, 0, 81, 0
2, 117080, Note_on_c, 0, 78, 0
2, 117120, Note_on_c, 0, 82, 53
2, 117120, Note_on_c, 0, 79, 43
2, 117360, Note_on_c, 0, 81, 40
2, 117360, Note_on_c, 0, 77, 31
2, 117380, Note_on_c, 0, 82, 0
2, 117380, Note_on_c, 0, 79, 0
2, 117600, Note_on_c, 0, 79, 43
2, 117600, Note_on_c, 0, 75, 33
2, 117620, Note_on_c, 0, 81, 0
2, 117620, Note_on_c, 0, 77, 0
2, 117840, Note_on_c, 0, 78, 38
2, 117840, Note_on_c, 0, 74, 30
2, 117860, Note_on_c, 0, 79, 0
2, 117860, Note_on_c, 0, 75, 0
2, 118040, Note_on_c, 0, 78, 0
2, 118040, Note_on_c, 0, 74, 0
2, 118080, Note_on_c, 0, 79, 56
2, 118080, Note_on_c, 0, 75, 46
2, 118320, Note_on_c, 0, 77, 43
2, 118320, Note_on_c, 0, 74, 34
2, 118340, Note_on_c, 0, 79, 0
2, 118340, Note_on_c, 0, 75, 0
2, 118560, Note_on_c, 0, 75, 46
2, 118560, Note_on_c, 0, 72, 36
2, 118580, Note_on_c, 0, 77, 0
2, 118580, Note_on_c, 0, 74, 0
2, 118800, Note_on_c, 0, 74, 41
2, 118800, Note_on_c, 0, 71, 33
2, 118820, Note_on_c, 0, 75, 0
2, 118820, Note_on_c, 0, 72, 0
2, 119000, Note_on_c, 0, 74, 0
2, 119000, Note_on_c, 0, 71, 0
2, 119040, Note_on_c, 0, 74, 60
2, 119040, Note_on_c, 0, 71, 52
2, 119040, Note_on_c, 0, 67, 30
2, 120000, Note_on_c, 0, 75, 40
2, 120000, Note_on_c, 0, 72, 25
2, 120020, Note_on_c, 0, 74, 0
2, 120020, Note_on_c, 0, 71, 0
2, 120160, Note_on_c, 0, 67, 0
2, 120160, Note_on_c, 0, 75, 0
2, 120160, Note_on_c, 0, 72, 0
2, 120240, Note_on_c, 0, 75, 42
2, 120300, Note_on_c, 0, 77, 30
2, 120310, Note_on_c, 0, 75, 0
2, 120350, Note_on_c, 0, 75, 33
2, 120360, Note_on_c, 0, 77, 0
2, 120390, Note_on_c, 0, 74, 36
2, 120400, Note_on_c, 0, 75, 0
2, 120430, Note_on_c, 0, 75, 34
2, 120440, Note_on_c, 0, 74, 0
2, 120480, Note_on_c, 0, 77, 40
2, 120490, Note_on_c, 0, 75, 0
2, 120720, Note_on_c, 0, 79, 37
2, 120740, Note_on_c, 0, 77, 0
2, 120920, Note_on_c, 0, 79, 0
2, 120960, Note_on_c, 0, 79, 37
2, 121080, Note_on_c, 0, 77, 39
2, 121100, Note_on_c, 0, 79, 0
2, 121200, Note_on_c, 0, 75, 41
2, 121220, Note_on_c, 0, 77, 0
2, 121320, Note_on_c, 0, 74, 43
2, 121340, Note_on_c, 0, 75, 0
2, 121440, Note_on_c, 0, 71, 45
2, 121460, Note_on_c, 0, 74, 0
2, 121560, Note_on_c, 0, 72, 42
2, 121580, Note_on_c, 0, 71, 0
2, 121680, Note_on_c, 0, 75, 39
2, 121700, Note_on_c, 0, 72, 0
2, 121800, Note_on_c, 0, 79, 36
2, 121820, Note_on_c, 0, 75, 0
2, 121920, Note_on_c, 0, 70, 45
2, 121940, Note_on_c, 0, 79, 0
2, 122400, Note_on_c, 0, 72, 40
2, 122400, Note_on_c, 0, 69, 25
2, 122420, Note_on_c, 0, 70, 0
2, 122800, Note_on_c, 0, 72, 0
2, 122800, Note_on_c, 0, 69, 0
2, 122880, Note_on_c, 0, 72, 43
2, 122880, Note_on_c, 0, 69, 22
2, 123240, Note_on_c, 0, 73, 45
2, 123260, Note_on_c, 0, 72, 0
2, 123360, Note_on_c, 0, 74, 38
2, 123360, Note_on_c, 0, 70, 15
2, 123380, Note_on_c, 0, 69, 0
2, 123380, Note_on_c, 0, 73, 0
2, 123680, Note_on_c, 0, 74, 0
2, 123680, Note_on_c, 0, 70, 0
2, 124800, Note_on_c, 0, 77, 50
2, 125040, Note_on_c, 0, 75, 45
2, 125060, Note_on_c, 0, 77, 0
2, 125200, Note_on_c, 0, 75, 0
2, 125760, Note_on_c, 0, 74, 48
2, 126000, Note_on_c, 0, 72, 43
2, 126020, Note_on_c, 0, 74, 0
2, 126200, Note_on_c, 0, 72, 0
2, 126240, Note_on_c, 0, 70, 50
2, 126480, Note_on_c, 0, 69, 45
2, 126500, Note_on_c, 0, 70, 0
2, 126680, Note_on_c, 0, 69, 0
2, 126720, Note_on_c, 0, 77, 47
2, 127080, Note_on_c, 0, 74, 42
2, 127100, Note_on_c, 0, 77, 0
2, 127200, Note_on_c, 0, 77, 45
2, 127220, Note_on_c, 0, 74, 0
2, 127360, Note_on_c, 0, 77, 0
2, 128640, Note_on_c, 0, 77, 45
2, 128700, Note_on_c, 0, 77, 0
2, 128760, Note_on_c, 0, 76, 38
2, 128810, Note_on_c, 0, 76, 0
2, 128880, Note_on_c, 0, 75, 40
2, 128960, Note_on_c, 0, 75, 0
2, 129600, Note_on_c, 0, 74, 50
2, 129660, Note_on_c, 0, 74, 0
2, 129720, Note_on_c, 0, 74, 45
2, 129840, Note_on_c, 0, 75, 42
2, 129860, Note_on_c, 0, 74, 0
2, 129960, Note_on_c, 0, 72, 44
2, 129980, Note_on_c, 0, 75, 0
2, 130080, Note_on_c, 0, 70, 46
2, 130100, Note_on_c, 0, 72, 0
2, 130140, Note_on_c, 0, 70, 0
2, 130200, Note_on_c, 0, 70, 41
2, 130320, Note_on_c, 0, 72, 38
2, 130340, Note_on_c, 0, 70, 0
2, 130440, Note_on_c, 0, 69, 40
2, 130460, Note_on_c, 0, 72, 0
2, 130560, Note_on_c, 0, 77, 42
2, 130580, Note_on_c, 0, 69, 0
2, 130620, Note_on_c, 0, 79, 35
2, 130640, Note_on_c, 0, 77, 0
2, 130680, Note_on_c, 0, 77, 37
2, 130700, Note_on_c, 0, 79, 0
2, 130740, Note_on_c, 0, 76, 39
2, 130760, Note_on_c, 0, 77, 0
2, 130800, Note_on_c, 0, 77, 36
2, 130820, Note_on_c, 0, 76, 0
2, 130920, Note_on_c, 0, 82, 42
2, 130960, Note_on_c, 0, 77, 0
2, 131040, Note_on_c, 0, 77, 40
2, 131060, Note_on_c, 0, 82, 0
2, 131200, Note_on_c, 0, 77, 0
2, 131640, Note_on_c, 0, 86, 60
2, 131640, Note_on_c, 0, 82, 50
2, 131880, Note_on_c, 0, 84, 47
2, 131880, Note_on_c, 0, 81, 38
2, 131900, Note_on_c, 0, 86, 0
2, 131900, Note_on_c, 0, 82, 0
2, 132120, Note_on_c, 0, 82, 50
2, 132120, Note_on_c, 0, 79, 40
2, 132140, Note_on_c, 0, 84, 0
2, 132140, Note_on_c, 0, 81, 0
2, 132360, Note_on_c, 0, 81, 45
2, 132360, Note_on_c, 0, 78, 37
2, 132380, Note_on_c, 0, 82, 0
2, 132380, Note_on_c, 0, 79, 0
2, 132600, Note_on_c, 0, 82, 63
2, 132600, Note_on_c, 0, 79, 53
2, 132620, Note_on_c, 0, 81, 0
2, 132620, Note_on_c, 0, 78, 0
2, 132840, Note_on_c, 0, 81, 50
2, 132840, Note_on_c, 0, 77, 41
2, 132860, Note_on_c, 0, 82, 0
2, 132860, Note_on_c, 0, 79, 0
2, 133080, Note_on_c, 0, 79, 53
2, 133080, Note_on_c, 0, 75, 43
2, 133100, Note_on_c, 0, 81, 0
2, 133100, Note_on_c, 0, 77, 0
2, 133320, Note_on_c, 0, 78, 48
2, 133320, Note_on_c, 0, 74, 40
2, 133340, Note_on_c, 0, 79, 0
2, 133340, Note_on_c, 0, 75, 0
2, 133560, Note_on_c, 0, 79, 66
2, 133560, Note_on_c, 0, 75, 56
2, 133580, Note_on_c, 0, 78, 0
2, 133580, Note_on_c, 0, 74, 0
2, 133800, Note_on_c, 0, 77, 53
2, 133800, Note_on_c, 0, 74, 44
2, 133820, Note_on_c, 0, 79, 0
2, 133820, Note_on_c, 0, 75, 0
2, 134040, Note_on_c, 0, 75, 56
2, 134040, Note_on_c, 0, 72, 46
2, 134060, Note_on_c, 0, 77, 0
2, 134060, Note_on_c, 0, 74, 0
2, 134280, Note_on_c, 0, 74, 51
2, 134280, Note_on_c, 0, 71, 43
2, 134300, Note_on_c, 0, 75, 0
2, 134300, Note_on_c, 0, 72, 0
2, 134360, Note_on_c, 0, 74, 0
2, 134360, Note_on_c, 0, 71, 0
2, 134400, Note_on_c, 0, 74, 60
2, 134400, Note_on_c, 0, 71, 52
2, 134400, Note_on_c, 0, 67, 30
2, 135360, Note_on_c, 0, 75, 40
2, 135360, Note_on_c, 0, 72, 25
2, 135380, Note_on_c, 0, 74, 0
2, 135380, Note_on_c, 0, 71, 0
2, 135520, Note_on_c, 0, 67, 0
2, 135520, Note_on_c, 0, 75, 0
2, 135520, Note_on_c, 0, 72, 0
2, 135600, Note_on_c, 0, 75, 42
2, 135660, Note_on_c, 0, 77, 30
2, 135670, Note_on_c, 0, 75, 0
2, 135710, Note_on_c, 0, 75, 33
2, 135720, Note_on_c, 0, 77, 0
2, 135750, Note_on_c, 0, 74, 36
2, 135760, Note_on_c, 0, 75, 0
2, 135790, Note_on_c, 0, 75, 34
2, 135800, Note_on_c, 0, 74, 0
2, 135840, Note_on_c, 0, 77, 40
2, 135850, Note_on_c, 0, 75, 0
2, 136080, Note_on_c, 0, 79, 37
2, 136100, Note_on_c, 0, 77, 0
2, 136280, Note_on_c, 0, 79, 0
2, 136320, Note_on_c, 0, 77, 39
2, 136500, Note_on_c, 0, 82, 41
2, 136520, Note_on_c, 0, 77, 0
2, 136640, Note_on_c, 0, 74, 43
2, 136660, Note_on_c, 0, 82, 0
2, 136800, Note_on_c, 0, 72, 45
2, 136820, Note_on_c, 0, 74, 0
2, 136960, Note_on_c, 0, 75, 42
2, 136980, Note_on_c, 0, 72, 0
2, 137110, Note_on_c, 0, 79, 39
2, 137130, Note_on_c, 0, 75, 0
2, 137280, Note_on_c, 0, 70, 45
2, 137300, Note_on_c, 0, 79, 0
2, 137760, Note_on_c, 0, 69, 35
2, 137780, Note_on_c, 0, 70, 0
2, 138120, Note_on_c, 0, 69, 0
2, 138180, Note_on_c, 0, 62, 50
2, 138240, Note_on_c, 0, 74, 70
2, 138260, Note_on_c, 0, 62, 0
2, 138900, Note_on_c, 0, 70, 65
2, 138920, Note_on_c, 0, 74, 0
2, 138940, Note_on_c, 0, 70, 0
2, 138960, Note_on_c, 0, 70, 68
2, 139010, Note_on_c, 0, 72, 60
2, 139040, Note_on_c, 0, 70, 0
2, 139050, Note_on_c, 0, 70, 63
2, 139070, Note_on_c, 0, 72, 0
2, 139080, Note_on_c, 0, 69, 66
2, 139100, Note_on_c, 0, 70, 0
2, 139110, Note_on_c, 0, 70, 64
2, 139130, Note_on_c, 0, 69, 0
2, 139150, Note_on_c, 0, 63, 52
2, 139170, Note_on_c, 0, 70, 0
2, 139200, Note_on_c, 0, 75, 75
2, 139220, Note_on_c, 0, 63, 0
2, 139860, Note_on_c, 0, 72, 70
2, 139880, Note_on_c, 0, 75, 0
2, 139900, Note_on_c, 0, 72, 0
2, 139920, Note_on_c, 0, 72, 73
2, 139980, Note_on_c, 0, 74, 65
2, 140000, Note_on_c, 0, 72, 0
2, 140030, Note_on_c, 0, 72, 68
2, 140040, Note_on_c, 0, 74, 0
2, 140070, Note_on_c, 0, 71, 71
2, 140080, Note_on_c, 0, 72, 0
2, 140110, Note_on_c, 0, 72, 69
2, 140120, Note_on_c, 0, 71, 0
2, 140160, Note_on_c, 0, 77, 75
2, 140170, Note_on_c, 0, 72, 0
2, 140520, Note_on_c, 0, 74, 67
2, 140540, Note_on_c, 0, 77, 0
2, 140640, Note_on_c, 0, 82, 70
2, 140660, Note_on_c, 0, 74, 0
2, 141360, Note_on_c, 0, 80, 60
2, 141380, Note_on_c, 0, 82, 0
2, 141600, Note_on_c, 0, 79, 62
2, 141620, Note_on_c, 0, 80, 0
2, 141840, Note_on_c, 0, 78, 64
2, 141860, Note_on_c, 0, 79, 0
2, 142200, Note_on_c, 0, 79, 61
2, 142220, Note_on_c, 0, 78, 0
2, 142320, Note_on_c, 0, 82, 58
2, 142340, Note_on_c, 0, 79, 0
2, 142440, Note_on_c, 0, 79, 60
2, 142460, Note_on_c, 0, 82, 0
2, 142560, Note_on_c, 0, 74, 62
2, 142580, Note_on_c, 0, 79, 0
2, 142680, Note_on_c, 0, 75, 59
2, 142700, Note_on_c, 0, 74, 0
2, 142800, Note_on_c, 0, 79, 56
2, 142820, Note_on_c, 0, 75, 0
2, 142920, Note_on_c, 0, 75, 58
2, 142940, Note_on_c, 0, 79, 0
2, 143040, Note_on_c, 0, 71, 60
2, 143060, Note_on_c, 0, 75, 0
2, 143160, Note_on_c, 0, 72, 57
2, 143180, Note_on_c, 0, 71, 0
2, 143280, Note_on_c, 0, 75, 54
2, 143300, Note_on_c, 0, 72, 0
2, 143400, Note_on_c, 0, 74, 56
2, 143420, Note_on_c, 0, 75, 0
2, 143520, Note_on_c, 0, 77, 53
2, 143540, Note_on_c, 0, 74, 0
2, 143640, Note_on_c, 0, 75, 55
2, 143660, Note_on_c, 0, 77, 0
2, 143760, Note_on_c, 0, 74, 57
2, 143780, Note_on_c, 0, 75, 0
2, 143880, Note_on_c, 0, 72, 59
2, 143900, Note_on_c, 0, 74, 0
2, 143960, Note_on_c, 0, 65, 50
2, 143980, Note_on_c, 0, 72, 0
2, 144000, Note_on_c, 0, 77, 58
2, 144020, Note_on_c, 0, 65, 0
2, 144100, Note_on_c, 0, 77, 0
2, 144240, Note_on_c, 0, 77, 62
2, 144640, Note_on_c, 0, 77, 0
2, 144720, Note_on_c, 0, 77, 60
2, 145080, Note_on_c, 0, 75, 55
2, 145100, Note_on_c, 0, 77, 0
2, 145200, Note_on_c, 0, 74, 58
2, 145220, Note_on_c, 0, 75, 0
2, 145320, Note_on_c, 0, 75, 56
2, 145340, Note_on_c, 0, 74, 0
2, 145440, Note_on_c, 0, 77, 54
2, 145460, Note_on_c, 0, 75, 0
2, 145560, Note_on_c, 0, 79, 52
2, 145580, Note_on_c, 0, 77, 0
2, 145680, Note_on_c, 0, 81, 50
2, 145700, Note_on_c, 0, 79, 0
2, 145800, Note_on_c, 0, 82, 48
2, 145820, Note_on_c, 0, 81, 0
2, 145920, Note_on_c, 0, 72, 55
2, 145940, Note_on_c, 0, 82, 0
2, 146020, Note_on_c, 0, 74, 45
2, 146040, Note_on_c, 0, 72, 0
2, 146100, Note_on_c, 0, 72, 38
2, 146110, Note_on_c, 0, 74, 0
2, 146160, Note_on_c, 0, 74, 32
2, 146180, Note_on_c, 0, 72, 0
2, 146210, Note_on_c, 0, 72, 29
2, 146240, Note_on_c, 0, 74, 0
2, 146260, Note_on_c, 0, 74, 32
2, 146290, Note_on_c, 0, 72, 0
2, 146320, Note_on_c, 0, 72, 30
2, 146340, Note_on_c, 0, 74, 0
2, 146360, Note_on_c, 0, 74, 33
2, 146400, Note_on_c, 0, 72, 0
2, 146410, Note_on_c, 0, 72, 32
2, 146440, Note_on_c, 0, 74, 0
2, 146470, Note_on_c, 0, 74, 35
2, 146490, Note_on_c, 0, 72, 0
2, 146510, Note_on_c, 0, 72, 33
2, 146550, Note_on_c, 0, 74, 0
2, 146560, Note_on_c, 0, 74, 36
2, 146590, Note_on_c, 0, 72, 0
2, 146620, Note_on_c, 0, 72, 39
2, 146640, Note_on_c, 0, 74, 0
2, 146660, Note_on_c, 0, 74, 35
2, 146700, Note_on_c, 0, 72, 0
2, 146710, Note_on_c, 0, 72, 36
2, 146740, Note_on_c, 0, 74, 0
2, 146760, Note_on_c, 0, 74, 33
2, 146790, Note_on_c, 0, 72, 0
2, 146820, Note_on_c, 0, 72, 35
2, 146840, Note_on_c, 0, 74, 0
2, 146860, Note_on_c, 0, 74, 39
2, 146900, Note_on_c, 0, 72, 0
2, 146910, Note_on_c, 0, 72, 35
2, 146940, Note_on_c, 0, 74, 0
2, 146970, Note_on_c, 0, 74, 38
2, 146990, Note_on_c, 0, 72, 0
2, 147010, Note_on_c, 0, 72, 36
2, 147050, Note_on_c, 0, 74, 0
2, 147060, Note_on_c, 0, 74, 34
2, 147090, Note_on_c, 0, 72, 0
2, 147110, Note_on_c, 0, 72, 37
2, 147140, Note_on_c, 0, 74, 0
2, 147170, Note_on_c, 0, 74, 31
2, 147190, Note_on_c, 0, 72, 0
2, 147230, Note_on_c, 0, 72, 33
2, 147250, Note_on_c, 0, 74, 0
2, 147270, Note_on_c, 0, 74, 37
2, 147310, Note_on_c, 0, 72, 0
2, 147310, Note_on_c, 0, 72, 34
2, 147350, Note_on_c, 0, 74, 0
2, 147360, Note_on_c, 0, 74, 38
2, 147390, Note_on_c, 0, 72, 0
2, 147400, Note_on_c, 0, 72, 33
2, 147440, Note_on_c, 0, 74, 0
2, 147450, Note_on_c, 0, 74, 32
2, 147480, Note_on_c, 0, 72, 0
2, 147490, Note_on_c, 0, 72, 36
2, 147530, Note_on_c, 0, 74, 0
2, 147540, Note_on_c, 0, 74, 33
2, 147570, Note_on_c, 0, 72, 0
2, 147580, Note_on_c, 0, 72, 34
2, 147620, Note_on_c, 0, 74, 0
2, 147640, Note_on_c, 0, 70, 39
2, 147660, Note_on_c, 0, 72, 0
2, 147730, Note_on_c, 0, 72, 42
2, 147760, Note_on_c, 0, 70, 0
2, 147840, Note_on_c, 0, 70, 48
2, 147860, Note_on_c, 0, 72, 0
2, 148240, Note_on_c, 0, 70, 0
2, 148440, Note_on_c, 0, 70, 50
2, 148490, Note_on_c, 0, 70, 0
2, 148560, Note_on_c, 0, 70, 45
2, 148620, Note_on_c, 0, 72, 35
2, 148640, Note_on_c, 0, 70, 0
2, 148670, Note_on_c, 0, 70, 38
2, 148680, Note_on_c, 0, 72, 0
2, 148710, Note_on_c, 0, 69, 41
2, 148730, Note_on_c, 0, 70, 0
2, 148750, Note_on_c, 0, 70, 44
2, 148770, Note_on_c, 0, 69, 0
2, 148800, Note_on_c, 0, 77, 48
2, 148810, Note_on_c, 0, 70, 0
2, 149040, Note_on_c, 0, 75, 44
2, 149060, Note_on_c, 0, 77, 0
2, 149280, Note_on_c, 0, 74, 41
2, 149300, Note_on_c, 0, 75, 0
2, 149520, Note_on_c, 0, 72, 43
2, 149540, Note_on_c, 0, 74, 0
2, 149720, Note_on_c, 0, 72, 0
2, 149760, Note_on_c, 0, 72, 40
2, 150000, Note_on_c, 0, 70, 32
2, 150020, Note_on_c, 0, 72, 0
2, 150100, Note_on_c, 0, 70, 0
2, 150360, Note_on_c, 0, 70, 45
2, 150410, Note_on_c, 0, 70, 0
2, 150480, Note_on_c, 0, 70, 40
2, 150540, Note_on_c, 0, 72, 30
2, 150560, Note_on_c, 0, 70, 0
2, 150590, Note_on_c, 0, 70, 33
2, 150600, Note_on_c, 0, 72, 0
2, 150630, Note_on_c, 0, 69, 36
2, 150650, Note_on_c, 0, 70, 0
2, 150670, Note_on_c, 0, 70, 39
2, 150690, Note_on_c, 0, 69, 0
2, 150720, Note_on_c, 0, 77, 43
2, 150730, Note_on_c, 0, 70, 0
2, 150960, Note_on_c, 0, 75, 39
2, 150980, Note_on_c, 0, 77, 0
2, 151200, Note_on_c, 0, 74, 36
2, 151220, Note_on_c, 0, 75, 0
2, 151440, Note_on_c, 0, 72, 38
2, 151460, Note_on_c, 0, 74, 0
2, 151680, Note_on_c, 0, 70, 40
2, 151700, Note_on_c, 0, 72, 0
2, 151880, Note_on_c, 0, 70, 0
2, 152160, Note_on_c, 0, 75, 35
2, 152520, Note_on_c, 0, 69, 38
2, 152540, Note_on_c, 0, 75, 0
2, 152640, Note_on_c, 0, 70, 40
2, 152660, Note_on_c, 0, 69, 0
2, 152740, Note_on_c, 0, 70, 0
2, 153120, Note_on_c, 0, 79, 38
2, 153480, Note_on_c, 0, 69, 40
2, 153500, Note_on_c, 0, 79, 0
2, 153580, Note_on_c, 0, 69, 0
2, 153600, Note_on_c, 0, 69, 42
2, 153600, Note_on_c, 0, 65, 27
2, 153600, Note_on_c, 0, 63, 34
2, 153600, Note_on_c, 0, 60, 22
2, 154560, Note_on_c, 0, 70, 34
2, 154560, Note_on_c, 0, 62, 24
2, 154580, Note_on_c, 0, 69, 0
2, 154580, Note_on_c, 0, 63, 0
2, 154580, Note_on_c, 0, 60, 0
2, 154960, Note_on_c, 0, 65, 0
2, 154960, Note_on_c, 0, 70, 0
2, 154960, Note_on_c, 0, 62, 0
2, 155520, End_track
3, 0, Start_track
3, 0, Title_t, "Piano(L.H.)"
3, 980, Control_c, 1, 32, 1
3, 1040, Control_c, 1, 0, 0
3, 1100, Program_c, 1, 0
3, 1160, Control_c, 1, 10, 68
3, 1220, Control_c, 1, 91, 80
3, 1280, Control_c, 1, 7, 127
3, 1340, Control_c, 1, 11, 127
3, 1400, Text_t, "    <Env Attack>"
3, 1400, Control_c, 1, 99, 1
3, 1420, Control_c, 1, 98, 99
3, 1440, Control_c, 1, 6, 64
3, 1460, Text_t, "    <Env Decay>"
3, 1460, Control_c, 1, 98, 100
3, 1490, Control_c, 1, 6, 75
3, 1520, Text_t, "   <Env Release>"
3, 1520, Control_c, 1, 98, 101
3, 1550, Control_c, 1, 6, 90
3, 1700, System_exclusive, 21, 65, 16, 66, 18, 64, 18, 64, 64, 60, 68, 64, 60, 68, 64, 66, 56, 64, 66, 62, 116, 247
3, 1920, Note_on_c, 1, 58, 35
3, 2160, Note_on_c, 1, 65, 22
3, 2180, Note_on_c, 1, 58, 0
3, 2400, Note_on_c, 1, 62, 25
3, 2420, Note_on_c, 1, 65, 0
3, 2640, Note_on_c, 1, 65, 20
3, 2660, Note_on_c, 1, 62, 0
3, 2880, Note_on_c, 1, 58, 28
3, 2900, Note_on_c, 1, 65, 0
3, 3120, Note_on_c, 1, 65, 19
3, 3140, Note_on_c, 1, 58, 0
3, 3360, Note_on_c, 1, 62, 22
3, 3380, Note_on_c, 1, 65, 0
3, 3600, Note_on_c, 1, 65, 17
3, 3620, Note_on_c, 1, 62, 0
3, 3840, Note_on_c, 1, 57, 32
3, 3860, Note_on_c, 1, 65, 0
3, 4080, Note_on_c, 1, 65, 22
3, 4100, Note_on_c, 1, 57, 0
3, 4320, Note_on_c, 1, 60, 25
3, 4340, Note_on_c, 1, 65, 0
3, 4560, Note_on_c, 1, 65, 20
3, 4580, Note_on_c, 1, 60, 0
3, 4800, Note_on_c, 1, 57, 28
3, 4820, Note_on_c, 1, 65, 0
3, 5040, Note_on_c, 1, 65, 17
3, 5060, Note_on_c, 1, 57, 0
3, 5280, Note_on_c, 1, 60, 20
3, 5300, Note_on_c, 1, 65, 0
3, 5520, Note_on_c, 1, 65, 15
3, 5540, Note_on_c, 1, 60, 0
3, 5760, Note_on_c, 1, 55, 30
3, 5780, Note_on_c, 1, 65, 0
3, 6000, Note_on_c, 1, 63, 19
3, 6020, Note_on_c, 1, 55, 0
3, 6240, Note_on_c, 1, 58, 22
3, 6260, Note_on_c, 1, 63, 0
3, 6480, Note_on_c, 1, 63, 17
3, 6500, Note_on_c, 1, 58, 0
3, 6720, Note_on_c, 1, 51, 32
3, 6740, Note_on_c, 1, 63, 0
3, 6960, Note_on_c, 1, 58, 21
3, 6980, Note_on_c, 1, 51, 0
3, 7200, Note_on_c, 1, 55, 24
3, 7220, Note_on_c, 1, 58, 0
3, 7440, Note_on_c, 1, 58, 19
3, 7460, Note_on_c, 1, 55, 0
3, 7680, Note_on_c, 1, 50, 35
3, 7700, Note_on_c, 1, 58, 0
3, 7920, Note_on_c, 1, 58, 20
3, 7940, Note_on_c, 1, 50, 0
3, 8160, Note_on_c, 1, 53, 22
3, 8180, Note_on_c, 1, 58, 0
3, 8400, Note_on_c, 1, 58, 18
3, 8420, Note_on_c, 1, 53, 0
3, 8640, Note_on_c, 1, 50, 25
3, 8660, Note_on_c, 1, 58, 0
3, 8880, Note_on_c, 1, 58, 17
3, 8900, Note_on_c, 1, 50, 0
3, 9120, Note_on_c, 1, 53, 20
3, 9140, Note_on_c, 1, 58, 0
3, 9360, Note_on_c, 1, 58, 15
3, 9380, Note_on_c, 1, 53, 0
3, 9600, Note_on_c, 1, 51, 30
3, 9620, Note_on_c, 1, 58, 0
3, 9840, Note_on_c, 1, 55, 25
3, 9860, Note_on_c, 1, 51, 0
3, 10080, Note_on_c, 1, 51, 20
3, 10100, Note_on_c, 1, 55, 0
3, 10320, Note_on_c, 1, 59, 22
3, 10340, Note_on_c, 1, 51, 0
3, 10560, Note_on_c, 1, 51, 25
3, 10580, Note_on_c, 1, 59, 0
3, 10800, Note_on_c, 1, 60, 20
3, 10820, Note_on_c, 1, 51, 0
3, 11040, Note_on_c, 1, 51, 22
3, 11060, Note_on_c, 1, 60, 0
3, 11280, Note_on_c, 1, 63, 25
3, 11300, Note_on_c, 1, 51, 0
3, 11520, Note_on_c, 1, 50, 28
3, 11540, Note_on_c, 1, 63, 0
3, 11760, Note_on_c, 1, 53, 20
3, 11780, Note_on_c, 1, 50, 0
3, 12000, Note_on_c, 1, 50, 25
3, 12020, Note_on_c, 1, 53, 0
3, 12240, Note_on_c, 1, 57, 22
3, 12260, Note_on_c, 1, 50, 0
3, 12480, Note_on_c, 1, 50, 27
3, 12500, Note_on_c, 1, 57, 0
3, 12720, Note_on_c, 1, 58, 22
3, 12740, Note_on_c, 1, 50, 0
3, 12960, Note_on_c, 1, 50, 25
3, 12980, Note_on_c, 1, 58, 0
3, 13200, Note_on_c, 1, 62, 28
3, 13220, Note_on_c, 1, 50, 0
3, 13440, Note_on_c, 1, 57, 40
3, 13460, Note_on_c, 1, 62, 0
3, 13680, Note_on_c, 1, 65, 19
3, 13700, Note_on_c, 1, 57, 0
3, 13920, Note_on_c, 1, 60, 22
3, 13940, Note_on_c, 1, 65, 0
3, 14160, Note_on_c, 1, 65, 17
3, 14180, Note_on_c, 1, 60, 0
3, 14400, Note_on_c, 1, 58, 42
3, 14420, Note_on_c, 1, 65, 0
3, 14640, Note_on_c, 1, 65, 21
3, 14660, Note_on_c, 1, 58, 0
3, 14880, Note_on_c, 1, 62, 24
3, 14900, Note_on_c, 1, 65, 0
3, 15120, Note_on_c, 1, 65, 19
3, 15140, Note_on_c, 1, 62, 0
3, 15360, Note_on_c, 1, 53, 30
3, 15380, Note_on_c, 1, 65, 0
3, 15600, Note_on_c, 1, 62, 20
3, 15620, Note_on_c, 1, 53, 0
3, 15840, Note_on_c, 1, 58, 22
3, 15860, Note_on_c, 1, 62, 0
3, 16080, Note_on_c, 1, 62, 18
3, 16100, Note_on_c, 1, 58, 0
3, 16320, Note_on_c, 1, 60, 15
3, 16320, Note_on_c, 1, 57, 18
3, 16320, Note_on_c, 1, 53, 25
3, 16340, Note_on_c, 1, 62, 0
3, 16560, Note_on_c, 1, 60, 0
3, 16560, Note_on_c, 1, 57, 0
3, 16560, Note_on_c, 1, 53, 0
3, 17280, Note_on_c, 1, 58, 35
3, 17520, Note_on_c, 1, 65, 22
3, 17540, Note_on_c, 1, 58, 0
3, 17760, Note_on_c, 1, 61, 25
3, 17780, Note_on_c, 1, 65, 0
3, 18000, Note_on_c, 1, 65, 20
3, 18020, Note_on_c, 1, 61, 0
3, 18240, Note_on_c, 1, 58, 28
3, 18260, Note_on_c, 1, 65, 0
3, 18480, Note_on_c, 1, 65, 19
3, 18500, Note_on_c, 1, 58, 0
3, 18720, Note_on_c, 1, 61, 22
3, 18740, Note_on_c, 1, 65, 0
3, 18960, Note_on_c, 1, 65, 17
3, 18980, Note_on_c, 1, 61, 0
3, 19200, Note_on_c, 1, 56, 32
3, 19220, Note_on_c, 1, 65, 0
3, 19440, Note_on_c, 1, 65, 22
3, 19460, Note_on_c, 1, 56, 0
3, 19680, Note_on_c, 1, 60, 25
3, 19700, Note_on_c, 1, 65, 0
3, 19920, Note_on_c, 1, 65, 20
3, 19940, Note_on_c, 1, 60, 0
3, 20160, Note_on_c, 1, 56, 28
3, 20180, Note_on_c, 1, 65, 0
3, 20400, Note_on_c, 1, 65, 17
3, 20420, Note_on_c, 1, 56, 0
3, 20640, Note_on_c, 1, 60, 20
3, 20660, Note_on_c, 1, 65, 0
3, 20880, Note_on_c, 1, 65, 15
3, 20900, Note_on_c, 1, 60, 0
3, 21120, Note_on_c, 1, 54, 30
3, 21140, Note_on_c, 1, 65, 0
3, 21360, Note_on_c, 1, 63, 19
3, 21380, Note_on_c, 1, 54, 0
3, 21600, Note_on_c, 1, 58, 22
3, 21620, Note_on_c, 1, 63, 0
3, 21840, Note_on_c, 1, 63, 17
3, 21860, Note_on_c, 1, 58, 0
3, 22080, Note_on_c, 1, 51, 32
3, 22100, Note_on_c, 1, 63, 0
3, 22320, Note_on_c, 1, 58, 21
3, 22340, Note_on_c, 1, 51, 0
3, 22560, Note_on_c, 1, 54, 24
3, 22580, Note_on_c, 1, 58, 0
3, 22800, Note_on_c, 1, 58, 19
3, 22820, Note_on_c, 1, 54, 0
3, 23040, Note_on_c, 1, 50, 35
3, 23060, Note_on_c, 1, 58, 0
3, 23280, Note_on_c, 1, 58, 20
3, 23300, Note_on_c, 1, 50, 0
3, 23520, Note_on_c, 1, 53, 22
3, 23540, Note_on_c, 1, 58, 0
3, 23760, Note_on_c, 1, 58, 18
3, 23780, Note_on_c, 1, 53, 0
3, 24000, Note_on_c, 1, 49, 38
3, 24020, Note_on_c, 1, 58, 0
3, 24240, Note_on_c, 1, 58, 27
3, 24260, Note_on_c, 1, 49, 0
3, 24480, Note_on_c, 1, 53, 30
3, 24500, Note_on_c, 1, 58, 0
3, 24720, Note_on_c, 1, 58, 35
3, 24740, Note_on_c, 1, 53, 0
3, 24960, Note_on_c, 1, 48, 55
3, 24980, Note_on_c, 1, 58, 0
3, 25200, Note_on_c, 1, 58, 37
3, 25220, Note_on_c, 1, 48, 0
3, 25440, Note_on_c, 1, 55, 40
3, 25460, Note_on_c, 1, 58, 0
3, 25680, Note_on_c, 1, 58, 27
3, 25700, Note_on_c, 1, 55, 0
3, 25920, Note_on_c, 1, 48, 35
3, 25940, Note_on_c, 1, 58, 0
3, 26160, Note_on_c, 1, 58, 26
3, 26180, Note_on_c, 1, 48, 0
3, 26400, Note_on_c, 1, 55, 29
3, 26420, Note_on_c, 1, 58, 0
3, 26640, Note_on_c, 1, 58, 24
3, 26660, Note_on_c, 1, 55, 0
3, 26880, Note_on_c, 1, 49, 40
3, 26900, Note_on_c, 1, 58, 0
3, 27120, Note_on_c, 1, 56, 25
3, 27140, Note_on_c, 1, 49, 0
3, 27360, Note_on_c, 1, 53, 27
3, 27380, Note_on_c, 1, 56, 0
3, 27600, Note_on_c, 1, 56, 23
3, 27620, Note_on_c, 1, 53, 0
3, 27840, Note_on_c, 1, 46, 43
3, 27860, Note_on_c, 1, 56, 0
3, 28080, Note_on_c, 1, 55, 32
3, 28100, Note_on_c, 1, 46, 0
3, 28320, Note_on_c, 1, 49, 35
3, 28340, Note_on_c, 1, 55, 0
3, 28560, Note_on_c, 1, 55, 40
3, 28580, Note_on_c, 1, 49, 0
3, 28800, Note_on_c, 1, 48, 35
3, 28820, Note_on_c, 1, 55, 0
3, 29040, Note_on_c, 1, 56, 24
3, 29060, Note_on_c, 1, 48, 0
3, 29280, Note_on_c, 1, 53, 27
3, 29300, Note_on_c, 1, 56, 0
3, 29520, Note_on_c, 1, 56, 22
3, 29540, Note_on_c, 1, 53, 0
3, 29760, Note_on_c, 1, 48, 30
3, 29780, Note_on_c, 1, 56, 0
3, 30000, Note_on_c, 1, 58, 26
3, 30020, Note_on_c, 1, 48, 0
3, 30240, Note_on_c, 1, 55, 29
3, 30260, Note_on_c, 1, 58, 0
3, 30480, Note_on_c, 1, 58, 24
3, 30500, Note_on_c, 1, 55, 0
3, 30720, Note_on_c, 1, 57, 40
3, 30720, Note_on_c, 1, 53, 35
3, 30740, Note_on_c, 1, 58, 0
3, 30960, Note_on_c, 1, 60, 28
3, 30980, Note_on_c, 1, 57, 0
3, 31040, Note_on_c, 1, 60, 0
3, 31120, Note_on_c, 1, 53, 0
3, 31200, Note_on_c, 1, 60, 30
3, 31270, Note_on_c, 1, 60, 0
3, 31440, Note_on_c, 1, 60, 33
3, 31500, Note_on_c, 1, 60, 0
3, 31680, Note_on_c, 1, 57, 35
3, 31680, Note_on_c, 1, 53, 43
3, 31920, Note_on_c, 1, 60, 32
3, 31940, Note_on_c, 1, 57, 0
3, 32160, Note_on_c, 1, 58, 32
3, 32160, Note_on_c, 1, 55, 40
3, 32180, Note_on_c, 1, 53, 0
3, 32180, Note_on_c, 1, 60, 0
3, 32400, Note_on_c, 1, 60, 35
3, 32420, Note_on_c, 1, 58, 0
3, 32600, Note_on_c, 1, 60, 0
3, 32640, Note_on_c, 1, 55, 0
3, 32640, Note_on_c, 1, 55, 37
3, 32640, Note_on_c, 1, 52, 32
3, 32880, Note_on_c, 1, 60, 28
3, 32900, Note_on_c, 1, 55, 0
3, 32960, Note_on_c, 1, 60, 0
3, 33040, Note_on_c, 1, 52, 0
3, 33120, Note_on_c, 1, 60, 30
3, 33190, Note_on_c, 1, 60, 0
3, 33360, Note_on_c, 1, 60, 33
3, 33420, Note_on_c, 1, 60, 0
3, 33600, Note_on_c, 1, 52, 35
3, 33600, Note_on_c, 1, 48, 43
3, 33840, Note_on_c, 1, 60, 32
3, 33860, Note_on_c, 1, 52, 0
3, 34080, Note_on_c, 1, 58, 32
3, 34080, Note_on_c, 1, 55, 40
3, 34100, Note_on_c, 1, 48, 0
3, 34100, Note_on_c, 1, 60, 0
3, 34320, Note_on_c, 1, 60, 35
3, 34340, Note_on_c, 1, 58, 0
3, 34520, Note_on_c, 1, 60, 0
3, 34560, Note_on_c, 1, 57, 38
3, 34560, Note_on_c, 1, 53, 32
3, 34580, Note_on_c, 1, 55, 0
3, 34800, Note_on_c, 1, 60, 28
3, 34820, Note_on_c, 1, 57, 0
3, 34880, Note_on_c, 1, 60, 0
3, 34960, Note_on_c, 1, 53, 0
3, 35040, Note_on_c, 1, 60, 30
3, 35110, Note_on_c, 1, 60, 0
3, 35280, Note_on_c, 1, 60, 33
3, 35340, Note_on_c, 1, 60, 0
3, 35520, Note_on_c, 1, 57, 35
3, 35520, Note_on_c, 1, 53, 43
3, 35760, Note_on_c, 1, 60, 32
3, 35780, Note_on_c, 1, 57, 0
3, 36000, Note_on_c, 1, 58, 32
3, 36000, Note_on_c, 1, 55, 40
3, 36020, Note_on_c, 1, 53, 0
3, 36020, Note_on_c, 1, 60, 0
3, 36240, Note_on_c, 1, 60, 35
3, 36260, Note_on_c, 1, 58, 0
3, 36440, Note_on_c, 1, 60, 0
3, 36480, Note_on_c, 1, 55, 0
3, 36480, Note_on_c, 1, 55, 38
3, 36480, Note_on_c, 1, 52, 32
3, 36720, Note_on_c, 1, 60, 28
3, 36740, Note_on_c, 1, 55, 0
3, 36800, Note_on_c, 1, 60, 0
3, 36880, Note_on_c, 1, 52, 0
3, 36960, Note_on_c, 1, 60, 30
3, 37030, Note_on_c, 1, 60, 0
3, 37200, Note_on_c, 1, 60, 33
3, 37260, Note_on_c, 1, 60, 0
3, 37440, Note_on_c, 1, 52, 35
3, 37440, Note_on_c, 1, 48, 43
3, 37680, Note_on_c, 1, 60, 32
3, 37700, Note_on_c, 1, 52, 0
3, 37920, Note_on_c, 1, 58, 30
3, 37920, Note_on_c, 1, 55, 38
3, 37940, Note_on_c, 1, 48, 0
3, 37940, Note_on_c, 1, 60, 0
3, 38160, Note_on_c, 1, 60, 35
3, 38180, Note_on_c, 1, 58, 0
3, 38360, Note_on_c, 1, 60, 0
3, 38400, Note_on_c, 1, 57, 34
3, 38400, Note_on_c, 1, 53, 30
3, 38420, Note_on_c, 1, 55, 0
3, 38800, Note_on_c, 1, 57, 0
3, 38800, Note_on_c, 1, 53, 0
3, 42240, Note_on_c, 1, 60, 42
3, 42240, Note_on_c, 1, 57, 22
3, 42240, Note_on_c, 1, 54, 38
3, 42240, Note_on_c, 1, 50, 50
3, 43200, Note_on_c, 1, 58, 28
3, 43200, Note_on_c, 1, 55, 35
3, 43220, Note_on_c, 1, 60, 0
3, 43220, Note_on_c, 1, 57, 0
3, 43220, Note_on_c, 1, 54, 0
3, 43220, Note_on_c, 1, 50, 0
3, 43680, Note_on_c, 1, 64, 32
3, 43700, Note_on_c, 1, 58, 0
3, 44160, Note_on_c, 1, 65, 27
3, 44160, Note_on_c, 1, 57, 35
3, 44180, Note_on_c, 1, 64, 0
3, 44180, Note_on_c, 1, 55, 0
3, 44560, Note_on_c, 1, 65, 0
3, 44560, Note_on_c, 1, 57, 0
3, 44640, Note_on_c, 1, 62, 24
3, 44640, Note_on_c, 1, 58, 32
3, 45040, Note_on_c, 1, 62, 0
3, 45040, Note_on_c, 1, 58, 0
3, 45120, Note_on_c, 1, 57, 30
3, 45120, Note_on_c, 1, 48, 38
3, 45600, Note_on_c, 1, 58, 27
3, 45620, Note_on_c, 1, 57, 0
3, 46080, Note_on_c, 1, 57, 30
3, 46080, Note_on_c, 1, 53, 25
3, 46100, Note_on_c, 1, 48, 0
3, 46100, Note_on_c, 1, 58, 0
3, 46320, Note_on_c, 1, 60, 18
3, 46340, Note_on_c, 1, 57, 0
3, 46400, Note_on_c, 1, 60, 0
3, 46480, Note_on_c, 1, 53, 0
3, 46560, Note_on_c, 1, 60, 20
3, 46630, Note_on_c, 1, 60, 0
3, 46800, Note_on_c, 1, 60, 23
3, 46860, Note_on_c, 1, 60, 0
3, 47040, Note_on_c, 1, 57, 30
3, 47040, Note_on_c, 1, 53, 38
3, 47280, Note_on_c, 1, 60, 27
3, 47300, Note_on_c, 1, 57, 0
3, 47520, Note_on_c, 1, 58, 32
3, 47520, Note_on_c, 1, 55, 40
3, 47540, Note_on_c, 1, 53, 0
3, 47540, Note_on_c, 1, 60, 0
3, 47760, Note_on_c, 1, 60, 35
3, 47780, Note_on_c, 1, 58, 0
3, 47960, Note_on_c, 1, 60, 0
3, 48000, Note_on_c, 1, 55, 0
3, 48000, Note_on_c, 1, 55, 38
3, 48000, Note_on_c, 1, 52, 32
3, 48240, Note_on_c, 1, 60, 28
3, 48260, Note_on_c, 1, 55, 0
3, 48320, Note_on_c, 1, 60, 0
3, 48400, Note_on_c, 1, 52, 0
3, 48480, Note_on_c, 1, 60, 30
3, 48550, Note_on_c, 1, 60, 0
3, 48720, Note_on_c, 1, 60, 33
3, 48780, Note_on_c, 1, 60, 0
3, 48960, Note_on_c, 1, 52, 35
3, 48960, Note_on_c, 1, 48, 43
3, 49200, Note_on_c, 1, 60, 32
3, 49220, Note_on_c, 1, 52, 0
3, 49440, Note_on_c, 1, 58, 32
3, 49440, Note_on_c, 1, 55, 40
3, 49460, Note_on_c, 1, 48, 0
3, 49460, Note_on_c, 1, 60, 0
3, 49680, Note_on_c, 1, 60, 35
3, 49700, Note_on_c, 1, 58, 0
3, 49880, Note_on_c, 1, 60, 0
3, 49920, Note_on_c, 1, 57, 38
3, 49920, Note_on_c, 1, 53, 32
3, 49940, Note_on_c, 1, 55, 0
3, 50160, Note_on_c, 1, 60, 28
3, 50180, Note_on_c, 1, 57, 0
3, 50240, Note_on_c, 1, 60, 0
3, 50320, Note_on_c, 1, 53, 0
3, 50400, Note_on_c, 1, 60, 30
3, 50470, Note_on_c, 1, 60, 0
3, 50640, Note_on_c, 1, 60, 33
3, 50700, Note_on_c, 1, 60, 0
3, 50880, Note_on_c, 1, 57, 35
3, 50880, Note_on_c, 1, 53, 43
3, 51120, Note_on_c, 1, 60, 32
3, 51140, Note_on_c, 1, 57, 0
3, 51360, Note_on_c, 1, 58, 32
3, 51360, Note_on_c, 1, 55, 40
3, 51380, Note_on_c, 1, 53, 0
3, 51380, Note_on_c, 1, 60, 0
3, 51600, Note_on_c, 1, 60, 35
3, 51620, Note_on_c, 1, 58, 0
3, 51800, Note_on_c, 1, 60, 0
3, 51840, Note_on_c, 1, 55, 0
3, 51840, Note_on_c, 1, 55, 38
3, 51840, Note_on_c, 1, 52, 32
3, 52080, Note_on_c, 1, 60, 28
3, 52100, Note_on_c, 1, 55, 0
3, 52160, Note_on_c, 1, 60, 0
3, 52240, Note_on_c, 1, 52, 0
3, 52320, Note_on_c, 1, 60, 30
3, 52390, Note_on_c, 1, 60, 0
3, 52560, Note_on_c, 1, 60, 33
3, 52620, Note_on_c, 1, 60, 0
3, 52800, Note_on_c, 1, 52, 35
3, 52800, Note_on_c, 1, 48, 43
3, 53040, Note_on_c, 1, 60, 32
3, 53060, Note_on_c, 1, 52, 0
3, 53280, Note_on_c, 1, 58, 30
3, 53280, Note_on_c, 1, 55, 38
3, 53300, Note_on_c, 1, 48, 0
3, 53300, Note_on_c, 1, 60, 0
3, 53520, Note_on_c, 1, 60, 28
3, 53540, Note_on_c, 1, 58, 0
3, 53720, Note_on_c, 1, 60, 0
3, 53760, Note_on_c, 1, 57, 25
3, 53760, Note_on_c, 1, 53, 30
3, 53780, Note_on_c, 1, 55, 0
3, 54160, Note_on_c, 1, 57, 0
3, 54160, Note_on_c, 1, 53, 0
3, 57600, Note_on_c, 1, 60, 42
3, 57600, Note_on_c, 1, 57, 22
3, 57600, Note_on_c, 1, 54, 38
3, 57600, Note_on_c, 1, 50, 50
3, 58560, Note_on_c, 1, 58, 28
3, 58560, Note_on_c, 1, 55, 35
3, 58580, Note_on_c, 1, 60, 0
3, 58580, Note_on_c, 1, 57, 0
3, 58580, Note_on_c, 1, 54, 0
3, 58580, Note_on_c, 1, 50, 0
3, 59040, Note_on_c, 1, 64, 32
3, 59060, Note_on_c, 1, 58, 0
3, 59520, Note_on_c, 1, 65, 27
3, 59520, Note_on_c, 1, 57, 35
3, 59540, Note_on_c, 1, 64, 0
3, 59540, Note_on_c, 1, 55, 0
3, 59920, Note_on_c, 1, 65, 0
3, 59920, Note_on_c, 1, 57, 0
3, 60000, Note_on_c, 1, 62, 24
3, 60000, Note_on_c, 1, 58, 32
3, 60400, Note_on_c, 1, 62, 0
3, 60400, Note_on_c, 1, 58, 0
3, 60480, Note_on_c, 1, 57, 30
3, 60480, Note_on_c, 1, 48, 38
3, 60960, Note_on_c, 1, 55, 25
3, 60980, Note_on_c, 1, 57, 0
3, 61380, Note_on_c, 1, 48, 0
3, 61380, Note_on_c, 1, 55, 0
3, 61680, Note_on_c, 1, 53, 55
3, 61920, Note_on_c, 1, 57, 47
3, 61940, Note_on_c, 1, 53, 0
3, 62160, Note_on_c, 1, 62, 50
3, 62180, Note_on_c, 1, 57, 0
3, 62420, Note_on_c, 1, 62, 0
3, 62640, Note_on_c, 1, 55, 60
3, 62880, Note_on_c, 1, 58, 52
3, 62900, Note_on_c, 1, 55, 0
3, 63120, Note_on_c, 1, 64, 55
3, 63140, Note_on_c, 1, 58, 0
3, 63380, Note_on_c, 1, 64, 0
3, 63600, Note_on_c, 1, 57, 63
3, 63840, Note_on_c, 1, 60, 55
3, 63860, Note_on_c, 1, 57, 0
3, 64080, Note_on_c, 1, 65, 58
3, 64100, Note_on_c, 1, 60, 0
3, 64320, Note_on_c, 1, 57, 50
3, 64800, Note_on_c, 1, 63, 42
3, 65280, Note_on_c, 1, 62, 32
3, 65280, Note_on_c, 1, 58, 40
3, 65300, Note_on_c, 1, 57, 0
3, 65300, Note_on_c, 1, 63, 0
3, 65680, Note_on_c, 1, 65, 0
3, 65680, Note_on_c, 1, 62, 0
3, 65680, Note_on_c, 1, 58, 0
3, 66240, Note_on_c, 1, 67, 28
3, 66240, Note_on_c, 1, 62, 20
3, 66240, Note_on_c, 1, 58, 35
3, 66640, Note_on_c, 1, 67, 0
3, 66640, Note_on_c, 1, 62, 0
3, 66640, Note_on_c, 1, 58, 0
3, 67200, Note_on_c, 1, 48, 50
3, 67440, Note_on_c, 1, 57, 37
3, 67460, Note_on_c, 1, 48, 0
3, 67680, Note_on_c, 1, 53, 40
3, 67700, Note_on_c, 1, 57, 0
3, 67920, Note_on_c, 1, 57, 35
3, 67940, Note_on_c, 1, 53, 0
3, 68160, Note_on_c, 1, 48, 43
3, 68180, Note_on_c, 1, 57, 0
3, 68400, Note_on_c, 1, 57, 34
3, 68420, Note_on_c, 1, 48, 0
3, 68640, Note_on_c, 1, 53, 37
3, 68660, Note_on_c, 1, 57, 0
3, 68880, Note_on_c, 1, 57, 42
3, 68900, Note_on_c, 1, 53, 0
3, 69120, Note_on_c, 1, 48, 57
3, 69140, Note_on_c, 1, 57, 0
3, 69360, Note_on_c, 1, 58, 47
3, 69380, Note_on_c, 1, 48, 0
3, 69600, Note_on_c, 1, 52, 50
3, 69620, Note_on_c, 1, 58, 0
3, 69840, Note_on_c, 1, 58, 45
3, 69860, Note_on_c, 1, 52, 0
3, 70080, Note_on_c, 1, 48, 53
3, 70100, Note_on_c, 1, 58, 0
3, 70320, Note_on_c, 1, 58, 42
3, 70340, Note_on_c, 1, 48, 0
3, 70560, Note_on_c, 1, 52, 45
3, 70580, Note_on_c, 1, 58, 0
3, 70800, Note_on_c, 1, 58, 40
3, 70820, Note_on_c, 1, 52, 0
3, 71040, Note_on_c, 1, 53, 43
3, 71060, Note_on_c, 1, 58, 0
3, 71280, Note_on_c, 1, 60, 40
3, 71520, Note_on_c, 1, 65, 35
3, 71540, Note_on_c, 1, 60, 0
3, 71760, Note_on_c, 1, 63, 37
3, 71780, Note_on_c, 1, 65, 0
3, 72000, Note_on_c, 1, 62, 39
3, 72020, Note_on_c, 1, 63, 0
3, 72480, Note_on_c, 1, 58, 42
3, 72500, Note_on_c, 1, 62, 0
3, 72880, Note_on_c, 1, 58, 0
3, 72960, Note_on_c, 1, 57, 40
3, 73200, Note_on_c, 1, 60, 37
3, 73220, Note_on_c, 1, 57, 0
3, 73440, Note_on_c, 1, 65, 32
3, 73460, Note_on_c, 1, 60, 0
3, 73680, Note_on_c, 1, 63, 34
3, 73700, Note_on_c, 1, 65, 0
3, 73920, Note_on_c, 1, 62, 36
3, 73940, Note_on_c, 1, 63, 0
3, 74400, Note_on_c, 1, 58, 32
3, 74420, Note_on_c, 1, 62, 0
3, 74800, Note_on_c, 1, 58, 0
3, 74880, Note_on_c, 1, 53, 0
3, 74880, Note_on_c, 1, 57, 35
3, 74880, Note_on_c, 1, 53, 40
3, 75120, Note_on_c, 1, 58, 40
3, 75120, Note_on_c, 1, 55, 32
3, 75140, Note_on_c, 1, 57, 0
3, 75360, Note_on_c, 1, 60, 43
3, 75360, Note_on_c, 1, 57, 34
3, 75380, Note_on_c, 1, 58, 0
3, 75380, Note_on_c, 1, 55, 0
3, 75600, Note_on_c, 1, 62, 45
3, 75600, Note_on_c, 1, 58, 36
3, 75620, Note_on_c, 1, 60, 0
3, 75620, Note_on_c, 1, 57, 0
3, 75840, Note_on_c, 1, 63, 40
3, 75840, Note_on_c, 1, 60, 33
3, 75860, Note_on_c, 1, 62, 0
3, 75860, Note_on_c, 1, 58, 0
3, 76080, Note_on_c, 1, 62, 42
3, 76080, Note_on_c, 1, 59, 35
3, 76100, Note_on_c, 1, 63, 0
3, 76100, Note_on_c, 1, 60, 0
3, 76320, Note_on_c, 1, 63, 38
3, 76320, Note_on_c, 1, 60, 32
3, 76340, Note_on_c, 1, 62, 0
3, 76340, Note_on_c, 1, 59, 0
3, 76560, Note_on_c, 1, 62, 40
3, 76560, Note_on_c, 1, 59, 34
3, 76580, Note_on_c, 1, 63, 0
3, 76580, Note_on_c, 1, 60, 0
3, 76800, Note_on_c, 1, 63, 35
3, 76800, Note_on_c, 1, 60, 30
3, 76820, Note_on_c, 1, 62, 0
3, 76820, Note_on_c, 1, 59, 0
3, 77680, Note_on_c, 1, 63, 0
3, 77680, Note_on_c, 1, 53, 0
3, 77680, Note_on_c, 1, 60, 0
3, 78720, Note_on_c, 1, 58, 35
3, 78960, Note_on_c, 1, 65, 22
3, 78980, Note_on_c, 1, 58, 0
3, 79200, Note_on_c, 1, 62, 25
3, 79220, Note_on_c, 1, 65, 0
3, 79440, Note_on_c, 1, 65, 20
3, 79460, Note_on_c, 1, 62, 0
3, 79680, Note_on_c, 1, 58, 28
3, 79700, Note_on_c, 1, 65, 0
3, 79920, Note_on_c, 1, 65, 19
3, 79940, Note_on_c, 1, 58, 0
3, 80160, Note_on_c, 1, 62, 22
3, 80180, Note_on_c, 1, 65, 0
3, 80400, Note_on_c, 1, 65, 17
3, 80420, Note_on_c, 1, 62, 0
3, 80640, Note_on_c, 1, 57, 32
3, 80660, Note_on_c, 1, 65, 0
3, 80880, Note_on_c, 1, 65, 22
3, 80900, Note_on_c, 1, 57, 0
3, 81120, Note_on_c, 1, 60, 25
3, 81140, Note_on_c, 1, 65, 0
3, 81360, Note_on_c, 1, 65, 20
3, 81380, Note_on_c, 1, 60, 0
3, 81600, Note_on_c, 1, 57, 28
3, 81620, Note_on_c, 1, 65, 0
3, 81840, Note_on_c, 1, 65, 17
3, 81860, Note_on_c, 1, 57, 0
3, 82080, Note_on_c, 1, 60, 20
3, 82100, Note_on_c, 1, 65, 0
3, 82320, Note_on_c, 1, 65, 15
3, 82340, Note_on_c, 1, 60, 0
3, 82560, Note_on_c, 1, 55, 30
3, 82580, Note_on_c, 1, 65, 0
3, 82800, Note_on_c, 1, 63, 19
3, 82820, Note_on_c, 1, 55, 0
3, 83040, Note_on_c, 1, 58, 22
3, 83060, Note_on_c, 1, 63, 0
3, 83280, Note_on_c, 1, 63, 17
3, 83300, Note_on_c, 1, 58, 0
3, 83520, Note_on_c, 1, 51, 32
3, 83540, Note_on_c, 1, 63, 0
3, 83760, Note_on_c, 1, 58, 21
3, 83780, Note_on_c, 1, 51, 0
3, 84000, Note_on_c, 1, 55, 24
3, 84020, Note_on_c, 1, 58, 0
3, 84240, Note_on_c, 1, 58, 19
3, 84260, Note_on_c, 1, 55, 0
3, 84480, Note_on_c, 1, 50, 35
3, 84500, Note_on_c, 1, 58, 0
3, 84720, Note_on_c, 1, 58, 20
3, 84740, Note_on_c, 1, 50, 0
3, 84960, Note_on_c, 1, 53, 22
3, 84980, Note_on_c, 1, 58, 0
3, 85200, Note_on_c, 1, 58, 18
3, 85220, Note_on_c, 1, 53, 0
3, 85440, Note_on_c, 1, 50, 25
3, 85460, Note_on_c, 1, 58, 0
3, 85680, Note_on_c, 1, 58, 17
3, 85700, Note_on_c, 1, 50, 0
3, 85920, Note_on_c, 1, 53, 20
3, 85940, Note_on_c, 1, 58, 0
3, 86160, Note_on_c, 1, 58, 15
3, 86180, Note_on_c, 1, 53, 0
3, 86400, Note_on_c, 1, 51, 30
3, 86420, Note_on_c, 1, 58, 0
3, 86640, Note_on_c, 1, 55, 25
3, 86660, Note_on_c, 1, 51, 0
3, 86880, Note_on_c, 1, 51, 20
3, 86900, Note_on_c, 1, 55, 0
3, 87120, Note_on_c, 1, 59, 22
3, 87140, Note_on_c, 1, 51, 0
3, 87360, Note_on_c, 1, 51, 25
3, 87380, Note_on_c, 1, 59, 0
3, 87600, Note_on_c, 1, 60, 20
3, 87620, Note_on_c, 1, 51, 0
3, 87840, Note_on_c, 1, 51, 22
3, 87860, Note_on_c, 1, 60, 0
3, 88080, Note_on_c, 1, 63, 25
3, 88100, Note_on_c, 1, 51, 0
3, 88320, Note_on_c, 1, 50, 28
3, 88340, Note_on_c, 1, 63, 0
3, 88560, Note_on_c, 1, 53, 20
3, 88580, Note_on_c, 1, 50, 0
3, 88800, Note_on_c, 1, 50, 25
3, 88820, Note_on_c, 1, 53, 0
3, 89040, Note_on_c, 1, 57, 22
3, 89060, Note_on_c, 1, 50, 0
3, 89280, Note_on_c, 1, 50, 27
3, 89300, Note_on_c, 1, 57, 0
3, 89520, Note_on_c, 1, 58, 22
3, 89540, Note_on_c, 1, 50, 0
3, 89760, Note_on_c, 1, 50, 25
3, 89780, Note_on_c, 1, 58, 0
3, 90000, Note_on_c, 1, 62, 28
3, 90020, Note_on_c, 1, 50, 0
3, 90240, Note_on_c, 1, 57, 40
3, 90260, Note_on_c, 1, 62, 0
3, 90480, Note_on_c, 1, 65, 19
3, 90500, Note_on_c, 1, 57, 0
3, 90720, Note_on_c, 1, 60, 22
3, 90740, Note_on_c, 1, 65, 0
3, 90960, Note_on_c, 1, 65, 17
3, 90980, Note_on_c, 1, 60, 0
3, 91200, Note_on_c, 1, 58, 42
3, 91220, Note_on_c, 1, 65, 0
3, 91440, Note_on_c, 1, 65, 21
3, 91460, Note_on_c, 1, 58, 0
3, 91680, Note_on_c, 1, 62, 24
3, 91700, Note_on_c, 1, 65, 0
3, 91920, Note_on_c, 1, 65, 19
3, 91940, Note_on_c, 1, 62, 0
3, 92160, Note_on_c, 1, 53, 30
3, 92180, Note_on_c, 1, 65, 0
3, 92400, Note_on_c, 1, 62, 20
3, 92420, Note_on_c, 1, 53, 0
3, 92640, Note_on_c, 1, 58, 22
3, 92660, Note_on_c, 1, 62, 0
3, 92880, Note_on_c, 1, 62, 18
3, 92900, Note_on_c, 1, 58, 0
3, 93120, Note_on_c, 1, 60, 15
3, 93120, Note_on_c, 1, 57, 18
3, 93120, Note_on_c, 1, 53, 25
3, 93140, Note_on_c, 1, 62, 0
3, 93360, Note_on_c, 1, 60, 0
3, 93360, Note_on_c, 1, 57, 0
3, 93360, Note_on_c, 1, 53, 0
3, 94080, Note_on_c, 1, 58, 35
3, 94320, Note_on_c, 1, 65, 22
3, 94340, Note_on_c, 1, 58, 0
3, 94560, Note_on_c, 1, 61, 25
3, 94580, Note_on_c, 1, 65, 0
3, 94800, Note_on_c, 1, 65, 20
3, 94820, Note_on_c, 1, 61, 0
3, 95040, Note_on_c, 1, 58, 28
3, 95060, Note_on_c, 1, 65, 0
3, 95280, Note_on_c, 1, 65, 19
3, 95300, Note_on_c, 1, 58, 0
3, 95520, Note_on_c, 1, 61, 22
3, 95540, Note_on_c, 1, 65, 0
3, 95760, Note_on_c, 1, 65, 17
3, 95780, Note_on_c, 1, 61, 0
3, 96000, Note_on_c, 1, 56, 32
3, 96020, Note_on_c, 1, 65, 0
3, 96240, Note_on_c, 1, 65, 22
3, 96260, Note_on_c, 1, 56, 0
3, 96480, Note_on_c, 1, 60, 25
3, 96500, Note_on_c, 1, 65, 0
3, 96720, Note_on_c, 1, 65, 20
3, 96740, Note_on_c, 1, 60, 0
3, 96960, Note_on_c, 1, 56, 28
3, 96980, Note_on_c, 1, 65, 0
3, 97200, Note_on_c, 1, 65, 17
3, 97220, Note_on_c, 1, 56, 0
3, 97440, Note_on_c, 1, 60, 20
3, 97460, Note_on_c, 1, 65, 0
3, 97680, Note_on_c, 1, 65, 15
3, 97700, Note_on_c, 1, 60, 0
3, 97920, Note_on_c, 1, 54, 30
3, 97940, Note_on_c, 1, 65, 0
3, 98160, Note_on_c, 1, 63, 19
3, 98180, Note_on_c, 1, 54, 0
3, 98400, Note_on_c, 1, 58, 22
3, 98420, Note_on_c, 1, 63, 0
3, 98640, Note_on_c, 1, 63, 17
3, 98660, Note_on_c, 1, 58, 0
3, 98880, Note_on_c, 1, 51, 32
3, 98900, Note_on_c, 1, 63, 0
3, 99120, Note_on_c, 1, 58, 21
3, 99140, Note_on_c, 1, 51, 0
3, 99360, Note_on_c, 1, 54, 24
3, 99380, Note_on_c, 1, 58, 0
3, 99600, Note_on_c, 1, 58, 19
3, 99620, Note_on_c, 1, 54, 0
3, 99840, Note_on_c, 1, 50, 35
3, 99860, Note_on_c, 1, 58, 0
3, 100080, Note_on_c, 1, 58, 20
3, 100100, Note_on_c, 1, 50, 0
3, 100320, Note_on_c, 1, 53, 22
3, 100340, Note_on_c, 1, 58, 0
3, 100560, Note_on_c, 1, 58, 18
3, 100580, Note_on_c, 1, 53, 0
3, 100800, Note_on_c, 1, 49, 38
3, 100820, Note_on_c, 1, 58, 0
3, 101040, Note_on_c, 1, 58, 27
3, 101060, Note_on_c, 1, 49, 0
3, 101280, Note_on_c, 1, 53, 30
3, 101300, Note_on_c, 1, 58, 0
3, 101520, Note_on_c, 1, 58, 35
3, 101540, Note_on_c, 1, 53, 0
3, 101760, Note_on_c, 1, 48, 55
3, 101780, Note_on_c, 1, 58, 0
3, 102000, Note_on_c, 1, 58, 37
3, 102020, Note_on_c, 1, 48, 0
3, 102240, Note_on_c, 1, 55, 40
3, 102260, Note_on_c, 1, 58, 0
3, 102480, Note_on_c, 1, 58, 27
3, 102500, Note_on_c, 1, 55, 0
3, 102720, Note_on_c, 1, 48, 35
3, 102740, Note_on_c, 1, 58, 0
3, 102960, Note_on_c, 1, 58, 26
3, 102980, Note_on_c, 1, 48, 0
3, 103200, Note_on_c, 1, 55, 29
3, 103220, Note_on_c, 1, 58, 0
3, 103440, Note_on_c, 1, 58, 24
3, 103460, Note_on_c, 1, 55, 0
3, 103680, Note_on_c, 1, 49, 40
3, 103700, Note_on_c, 1, 58, 0
3, 103920, Note_on_c, 1, 56, 25
3, 103940, Note_on_c, 1, 49, 0
3, 104160, Note_on_c, 1, 53, 27
3, 104180, Note_on_c, 1, 56, 0
3, 104400, Note_on_c, 1, 56, 23
3, 104420, Note_on_c, 1, 53, 0
3, 104640, Note_on_c, 1, 46, 43
3, 104660, Note_on_c, 1, 56, 0
3, 104880, Note_on_c, 1, 55, 32
3, 104900, Note_on_c, 1, 46, 0
3, 105120, Note_on_c, 1, 49, 35
3, 105140, Note_on_c, 1, 55, 0
3, 105360, Note_on_c, 1, 55, 40
3, 105380, Note_on_c, 1, 49, 0
3, 105600, Note_on_c, 1, 48, 35
3, 105620, Note_on_c, 1, 55, 0
3, 105840, Note_on_c, 1, 56, 24
3, 105860, Note_on_c, 1, 48, 0
3, 106080, Note_on_c, 1, 53, 27
3, 106100, Note_on_c, 1, 56, 0
3, 106320, Note_on_c, 1, 56, 22
3, 106340, Note_on_c, 1, 53, 0
3, 106560, Note_on_c, 1, 48, 30
3, 106580, Note_on_c, 1, 56, 0
3, 106800, Note_on_c, 1, 58, 26
3, 106820, Note_on_c, 1, 48, 0
3, 107040, Note_on_c, 1, 55, 29
3, 107060, Note_on_c, 1, 58, 0
3, 107280, Note_on_c, 1, 58, 24
3, 107300, Note_on_c, 1, 55, 0
3, 107520, Note_on_c, 1, 57, 40
3, 107520, Note_on_c, 1, 53, 35
3, 107540, Note_on_c, 1, 58, 0
3, 107760, Note_on_c, 1, 65, 28
3, 107780, Note_on_c, 1, 57, 0
3, 107840, Note_on_c, 1, 65, 0
3, 107920, Note_on_c, 1, 53, 0
3, 108000, Note_on_c, 1, 65, 30
3, 108070, Note_on_c, 1, 65, 0
3, 108240, Note_on_c, 1, 65, 33
3, 108300, Note_on_c, 1, 65, 0
3, 108480, Note_on_c, 1, 62, 35
3, 108480, Note_on_c, 1, 58, 43
3, 108720, Note_on_c, 1, 65, 32
3, 108740, Note_on_c, 1, 62, 0
3, 108960, Note_on_c, 1, 63, 32
3, 108960, Note_on_c, 1, 60, 40
3, 108980, Note_on_c, 1, 58, 0
3, 108980, Note_on_c, 1, 65, 0
3, 109200, Note_on_c, 1, 65, 35
3, 109220, Note_on_c, 1, 63, 0
3, 109400, Note_on_c, 1, 65, 0
3, 109440, Note_on_c, 1, 60, 0
3, 109440, Note_on_c, 1, 60, 37
3, 109440, Note_on_c, 1, 57, 32
3, 109680, Note_on_c, 1, 65, 28
3, 109700, Note_on_c, 1, 60, 0
3, 109760, Note_on_c, 1, 65, 0
3, 109840, Note_on_c, 1, 57, 0
3, 109920, Note_on_c, 1, 65, 30
3, 109990, Note_on_c, 1, 65, 0
3, 110160, Note_on_c, 1, 65, 33
3, 110220, Note_on_c, 1, 65, 0
3, 110400, Note_on_c, 1, 57, 35
3, 110400, Note_on_c, 1, 53, 43
3, 110640, Note_on_c, 1, 65, 32
3, 110660, Note_on_c, 1, 57, 0
3, 110880, Note_on_c, 1, 63, 32
3, 110880, Note_on_c, 1, 60, 40
3, 110900, Note_on_c, 1, 53, 0
3, 110900, Note_on_c, 1, 65, 0
3, 111120, Note_on_c, 1, 65, 35
3, 111140, Note_on_c, 1, 63, 0
3, 111320, Note_on_c, 1, 65, 0
3, 111360, Note_on_c, 1, 62, 38
3, 111360, Note_on_c, 1, 58, 32
3, 111380, Note_on_c, 1, 60, 0
3, 111600, Note_on_c, 1, 65, 28
3, 111620, Note_on_c, 1, 62, 0
3, 111680, Note_on_c, 1, 65, 0
3, 111760, Note_on_c, 1, 58, 0
3, 111840, Note_on_c, 1, 65, 30
3, 111910, Note_on_c, 1, 65, 0
3, 112080, Note_on_c, 1, 65, 33
3, 112140, Note_on_c, 1, 65, 0
3, 112320, Note_on_c, 1, 62, 35
3, 112320, Note_on_c, 1, 58, 43
3, 112560, Note_on_c, 1, 65, 32
3, 112580, Note_on_c, 1, 62, 0
3, 112800, Note_on_c, 1, 63, 32
3, 112800, Note_on_c, 1, 60, 40
3, 112820, Note_on_c, 1, 58, 0
3, 112820, Note_on_c, 1, 65, 0
3, 113040, Note_on_c, 1, 65, 35
3, 113060, Note_on_c, 1, 63, 0
3, 113240, Note_on_c, 1, 65, 0
3, 113280, Note_on_c, 1, 60, 0
3, 113280, Note_on_c, 1, 60, 38
3, 113280, Note_on_c, 1, 57, 32
3, 113520, Note_on_c, 1, 65, 28
3, 113540, Note_on_c, 1, 60, 0
3, 113600, Note_on_c, 1, 65, 0
3, 113680, Note_on_c, 1, 57, 0
3, 113760, Note_on_c, 1, 65, 30
3, 113830, Note_on_c, 1, 65, 0
3, 114000, Note_on_c, 1, 65, 33
3, 114060, Note_on_c, 1, 65, 0
3, 114240, Note_on_c, 1, 57, 35
3, 114240, Note_on_c, 1, 53, 43
3, 114480, Note_on_c, 1, 65, 32
3, 114500, Note_on_c, 1, 57, 0
3, 114720, Note_on_c, 1, 63, 30
3, 114720, Note_on_c, 1, 60, 38
3, 114740, Note_on_c, 1, 53, 0
3, 114740, Note_on_c, 1, 65, 0
3, 114960, Note_on_c, 1, 65, 35
3, 114980, Note_on_c, 1, 63, 0
3, 115160, Note_on_c, 1, 65, 0
3, 115200, Note_on_c, 1, 62, 34
3, 115200, Note_on_c, 1, 58, 30
3, 115220, Note_on_c, 1, 60, 0
3, 115600, Note_on_c, 1, 62, 0
3, 115600, Note_on_c, 1, 58, 0
3, 116160, Note_on_c, 1, 74, 50
3, 116160, Note_on_c, 1, 70, 40
3, 116400, Note_on_c, 1, 72, 37
3, 116400, Note_on_c, 1, 69, 28
3, 116420, Note_on_c, 1, 74, 0
3, 116420, Note_on_c, 1, 70, 0
3, 116640, Note_on_c, 1, 70, 40
3, 116640, Note_on_c, 1, 67, 30
3, 116660, Note_on_c, 1, 72, 0
3, 116660, Note_on_c, 1, 69, 0
3, 116880, Note_on_c, 1, 69, 35
3, 116880, Note_on_c, 1, 66, 27
3, 116900, Note_on_c, 1, 70, 0
3, 116900, Note_on_c, 1, 67, 0
3, 117080, Note_on_c, 1, 69, 0
3, 117080, Note_on_c, 1, 66, 0
3, 117120, Note_on_c, 1, 70, 53
3, 117120, Note_on_c, 1, 67, 43
3, 117360, Note_on_c, 1, 69, 40
3, 117360, Note_on_c, 1, 65, 31
3, 117380, Note_on_c, 1, 70, 0
3, 117380, Note_on_c, 1, 67, 0
3, 117600, Note_on_c, 1, 67, 43
3, 117600, Note_on_c, 1, 63, 33
3, 117620, Note_on_c, 1, 69, 0
3, 117620, Note_on_c, 1, 65, 0
3, 117840, Note_on_c, 1, 66, 38
3, 117840, Note_on_c, 1, 62, 30
3, 117860, Note_on_c, 1, 67, 0
3, 117860, Note_on_c, 1, 63, 0
3, 118040, Note_on_c, 1, 66, 0
3, 118040, Note_on_c, 1, 62, 0
3, 118080, Note_on_c, 1, 67, 56
3, 118080, Note_on_c, 1, 63, 46
3, 118320, Note_on_c, 1, 65, 43
3, 118320, Note_on_c, 1, 62, 34
3, 118340, Note_on_c, 1, 67, 0
3, 118340, Note_on_c, 1, 63, 0
3, 118560, Note_on_c, 1, 63, 46
3, 118560, Note_on_c, 1, 60, 36
3, 118580, Note_on_c, 1, 65, 0
3, 118580, Note_on_c, 1, 62, 0
3, 118800, Note_on_c, 1, 62, 41
3, 118800, Note_on_c, 1, 59, 33
3, 118820, Note_on_c, 1, 63, 0
3, 118820, Note_on_c, 1, 60, 0
3, 119000, Note_on_c, 1, 62, 0
3, 119000, Note_on_c, 1, 59, 0
3, 119040, Note_on_c, 1, 65, 42
3, 119040, Note_on_c, 1, 62, 22
3, 119040, Note_on_c, 1, 59, 38
3, 119040, Note_on_c, 1, 55, 50
3, 120000, Note_on_c, 1, 63, 28
3, 120000, Note_on_c, 1, 60, 35
3, 120020, Note_on_c, 1, 65, 0
3, 120020, Note_on_c, 1, 62, 0
3, 120020, Note_on_c, 1, 59, 0
3, 120020, Note_on_c, 1, 55, 0
3, 120480, Note_on_c, 1, 69, 32
3, 120500, Note_on_c, 1, 63, 0
3, 120960, Note_on_c, 1, 70, 27
3, 120960, Note_on_c, 1, 62, 35
3, 120980, Note_on_c, 1, 69, 0
3, 120980, Note_on_c, 1, 60, 0
3, 121360, Note_on_c, 1, 70, 0
3, 121360, Note_on_c, 1, 62, 0
3, 121440, Note_on_c, 1, 67, 24
3, 121440, Note_on_c, 1, 63, 32
3, 121840, Note_on_c, 1, 67, 0
3, 121840, Note_on_c, 1, 63, 0
3, 121920, Note_on_c, 1, 62, 30
3, 121920, Note_on_c, 1, 53, 38
3, 122400, Note_on_c, 1, 63, 27
3, 122420, Note_on_c, 1, 62, 0
3, 122880, Note_on_c, 1, 62, 30
3, 122880, Note_on_c, 1, 58, 25
3, 122900, Note_on_c, 1, 53, 0
3, 122900, Note_on_c, 1, 63, 0
3, 123120, Note_on_c, 1, 65, 18
3, 123140, Note_on_c, 1, 62, 0
3, 123200, Note_on_c, 1, 65, 0
3, 123280, Note_on_c, 1, 58, 0
3, 123360, Note_on_c, 1, 65, 20
3, 123430, Note_on_c, 1, 65, 0
3, 123600, Note_on_c, 1, 65, 23
3, 123660, Note_on_c, 1, 65, 0
3, 123840, Note_on_c, 1, 62, 30
3, 123840, Note_on_c, 1, 58, 38
3, 124080, Note_on_c, 1, 65, 27
3, 124100, Note_on_c, 1, 62, 0
3, 124320, Note_on_c, 1, 63, 32
3, 124320, Note_on_c, 1, 60, 40
3, 124340, Note_on_c, 1, 58, 0
3, 124340, Note_on_c, 1, 65, 0
3, 124560, Note_on_c, 1, 65, 35
3, 124580, Note_on_c, 1, 63, 0
3, 124760, Note_on_c, 1, 65, 0
3, 124800, Note_on_c, 1, 60, 0
3, 124800, Note_on_c, 1, 60, 38
3, 124800, Note_on_c, 1, 57, 32
3, 125040, Note_on_c, 1, 65, 28
3, 125060, Note_on_c, 1, 60, 0
3, 125120, Note_on_c, 1, 65, 0
3, 125200, Note_on_c, 1, 57, 0
3, 125280, Note_on_c, 1, 65, 30
3, 125350, Note_on_c, 1, 65, 0
3, 125520, Note_on_c, 1, 65, 33
3, 125580, Note_on_c, 1, 65, 0
3, 125760, Note_on_c, 1, 57, 35
3, 125760, Note_on_c, 1, 53, 43
3, 126000, Note_on_c, 1, 65, 32
3, 126020, Note_on_c, 1, 57, 0
3, 126240, Note_on_c, 1, 63, 32
3, 126240, Note_on_c, 1, 60, 40
3, 126260, Note_on_c, 1, 53, 0
3, 126260, Note_on_c, 1, 65, 0
3, 126480, Note_on_c, 1, 65, 35
3, 126500, Note_on_c, 1, 63, 0
3, 126680, Note_on_c, 1, 65, 0
3, 126720, Note_on_c, 1, 62, 38
3, 126720, Note_on_c, 1, 58, 32
3, 126740, Note_on_c, 1, 60, 0
3, 126960, Note_on_c, 1, 65, 28
3, 126980, Note_on_c, 1, 62, 0
3, 127040, Note_on_c, 1, 65, 0
3, 127120, Note_on_c, 1, 58, 0
3, 127200, Note_on_c, 1, 65, 30
3, 127270, Note_on_c, 1, 65, 0
3, 127440, Note_on_c, 1, 65, 33
3, 127500, Note_on_c, 1, 65, 0
3, 127680, Note_on_c, 1, 62, 35
3, 127680, Note_on_c, 1, 58, 43
3, 127920, Note_on_c, 1, 65, 32
3, 127940, Note_on_c, 1, 62, 0
3, 128160, Note_on_c, 1, 63, 32
3, 128160, Note_on_c, 1, 60, 40
3, 128180, Note_on_c, 1, 58, 0
3, 128180, Note_on_c, 1, 65, 0
3, 128400, Note_on_c, 1, 65, 35
3, 128420, Note_on_c, 1, 63, 0
3, 128600, Note_on_c, 1, 65, 0
3, 128640, Note_on_c, 1, 60, 0
3, 128640, Note_on_c, 1, 60, 38
3, 128640, Note_on_c, 1, 57, 32
3, 128880, Note_on_c, 1, 65, 28
3, 128900, Note_on_c, 1, 60, 0
3, 128960, Note_on_c, 1, 65, 0
3, 129040, Note_on_c, 1, 57, 0
3, 129120, Note_on_c, 1, 65, 30
3, 129190, Note_on_c, 1, 65, 0
3, 129360, Note_on_c, 1, 65, 33
3, 129420, Note_on_c, 1, 65, 0
3, 129600, Note_on_c, 1, 57, 35
3, 129600, Note_on_c, 1, 53, 43
3, 129840, Note_on_c, 1, 65, 32
3, 129860, Note_on_c, 1, 57, 0
3, 130080, Note_on_c, 1, 63, 30
3, 130080, Note_on_c, 1, 60, 38
3, 130100, Note_on_c, 1, 53, 0
3, 130100, Note_on_c, 1, 65, 0
3, 130320, Note_on_c, 1, 65, 28
3, 130340, Note_on_c, 1, 63, 0
3, 130520, Note_on_c, 1, 65, 0
3, 130560, Note_on_c, 1, 62, 25
3, 130560, Note_on_c, 1, 58, 30
3, 130580, Note_on_c, 1, 60, 0
3, 130960, Note_on_c, 1, 62, 0
3, 130960, Note_on_c, 1, 58, 0
3, 131520, Note_on_c, 1, 74, 55
3, 131520, Note_on_c, 1, 70, 45
3, 131760, Note_on_c, 1, 72, 42
3, 131760, Note_on_c, 1, 69, 33
3, 131780, Note_on_c, 1, 74, 0
3, 131780, Note_on_c, 1, 70, 0
3, 132000, Note_on_c, 1, 70, 45
3, 132000, Note_on_c, 1, 67, 35
3, 132020, Note_on_c, 1, 72, 0
3, 132020, Note_on_c, 1, 69, 0
3, 132240, Note_on_c, 1, 69, 40
3, 132240, Note_on_c, 1, 66, 32
3, 132260, Note_on_c, 1, 70, 0
3, 132260, Note_on_c, 1, 67, 0
3, 132440, Note_on_c, 1, 69, 0
3, 132440, Note_on_c, 1, 66, 0
3, 132480, Note_on_c, 1, 70, 58
3, 132480, Note_on_c, 1, 67, 48
3, 132720, Note_on_c, 1, 69, 45
3, 132720, Note_on_c, 1, 65, 36
3, 132740, Note_on_c, 1, 70, 0
3, 132740, Note_on_c, 1, 67, 0
3, 132960, Note_on_c, 1, 67, 48
3, 132960, Note_on_c, 1, 63, 38
3, 132980, Note_on_c, 1, 69, 0
3, 132980, Note_on_c, 1, 65, 0
3, 133200, Note_on_c, 1, 66, 43
3, 133200, Note_on_c, 1, 62, 35
3, 133220, Note_on_c, 1, 67, 0
3, 133220, Note_on_c, 1, 63, 0
3, 133400, Note_on_c, 1, 66, 0
3, 133400, Note_on_c, 1, 62, 0
3, 133440, Note_on_c, 1, 67, 61
3, 133440, Note_on_c, 1, 63, 51
3, 133680, Note_on_c, 1, 65, 48
3, 133680, Note_on_c, 1, 62, 39
3, 133700, Note_on_c, 1, 67, 0
3, 133700, Note_on_c, 1, 63, 0
3, 133920, Note_on_c, 1, 63, 51
3, 133920, Note_on_c, 1, 60, 41
3, 133940, Note_on_c, 1, 65, 0
3, 133940, Note_on_c, 1, 62, 0
3, 134160, Note_on_c, 1, 62, 46
3, 134160, Note_on_c, 1, 59, 38
3, 134180, Note_on_c, 1, 63, 0
3, 134180, Note_on_c, 1, 60, 0
3, 134360, Note_on_c, 1, 62, 0
3, 134360, Note_on_c, 1, 59, 0
3, 134400, Note_on_c, 1, 65, 47
3, 134400, Note_on_c, 1, 62, 27
3, 134400, Note_on_c, 1, 59, 43
3, 134400, Note_on_c, 1, 55, 55
3, 135360, Note_on_c, 1, 63, 28
3, 135360, Note_on_c, 1, 60, 35
3, 135380, Note_on_c, 1, 65, 0
3, 135380, Note_on_c, 1, 62, 0
3, 135380, Note_on_c, 1, 59, 0
3, 135380, Note_on_c, 1, 55, 0
3, 135840, Note_on_c, 1, 69, 32
3, 135860, Note_on_c, 1, 63, 0
3, 136320, Note_on_c, 1, 70, 27
3, 136320, Note_on_c, 1, 62, 35
3, 136340, Note_on_c, 1, 69, 0
3, 136340, Note_on_c, 1, 60, 0
3, 136720, Note_on_c, 1, 70, 0
3, 136720, Note_on_c, 1, 62, 0
3, 136800, Note_on_c, 1, 67, 24
3, 136800, Note_on_c, 1, 63, 32
3, 137200, Note_on_c, 1, 67, 0
3, 137200, Note_on_c, 1, 63, 0
3, 137280, Note_on_c, 1, 62, 30
3, 137280, Note_on_c, 1, 53, 38
3, 137760, Note_on_c, 1, 60, 25
3, 137780, Note_on_c, 1, 62, 0
3, 138180, Note_on_c, 1, 53, 0
3, 138180, Note_on_c, 1, 60, 0
3, 138480, Note_on_c, 1, 46, 55
3, 138720, Note_on_c, 1, 50, 47
3, 138740, Note_on_c, 1, 46, 0
3, 138960, Note_on_c, 1, 55, 50
3, 138980, Note_on_c, 1, 50, 0
3, 139220, Note_on_c, 1, 55, 0
3, 139440, Note_on_c, 1, 48, 60
3, 139680, Note_on_c, 1, 51, 52
3, 139700, Note_on_c, 1, 48, 0
3, 139920, Note_on_c, 1, 57, 55
3, 139940, Note_on_c, 1, 51, 0
3, 140180, Note_on_c, 1, 57, 0
3, 140400, Note_on_c, 1, 50, 63
3, 140640, Note_on_c, 1, 53, 55
3, 140660, Note_on_c, 1, 50, 0
3, 140880, Note_on_c, 1, 58, 58
3, 140900, Note_on_c, 1, 53, 0
3, 141120, Note_on_c, 1, 50, 50
3, 141600, Note_on_c, 1, 56, 42
3, 142080, Note_on_c, 1, 55, 32
3, 142080, Note_on_c, 1, 51, 40
3, 142100, Note_on_c, 1, 50, 0
3, 142100, Note_on_c, 1, 56, 0
3, 142480, Note_on_c, 1, 58, 0
3, 142480, Note_on_c, 1, 55, 0
3, 142480, Note_on_c, 1, 51, 0
3, 143040, Note_on_c, 1, 60, 28
3, 143040, Note_on_c, 1, 55, 20
3, 143040, Note_on_c, 1, 51, 35
3, 143440, Note_on_c, 1, 60, 0
3, 143440, Note_on_c, 1, 55, 0
3, 143440, Note_on_c, 1, 51, 0
3, 144000, Note_on_c, 1, 53, 50
3, 144240, Note_on_c, 1, 62, 37
3, 144260, Note_on_c, 1, 53, 0
3, 144480, Note_on_c, 1, 58, 40
3, 144500, Note_on_c, 1, 62, 0
3, 144720, Note_on_c, 1, 62, 35
3, 144740, Note_on_c, 1, 58, 0
3, 144960, Note_on_c, 1, 53, 43
3, 144980, Note_on_c, 1, 62, 0
3, 145200, Note_on_c, 1, 62, 34
3, 145220, Note_on_c, 1, 53, 0
3, 145440, Note_on_c, 1, 58, 37
3, 145460, Note_on_c, 1, 62, 0
3, 145680, Note_on_c, 1, 62, 42
3, 145700, Note_on_c, 1, 58, 0
3, 145920, Note_on_c, 1, 53, 57
3, 145940, Note_on_c, 1, 62, 0
3, 146160, Note_on_c, 1, 63, 47
3, 146180, Note_on_c, 1, 53, 0
3, 146400, Note_on_c, 1, 57, 50
3, 146420, Note_on_c, 1, 63, 0
3, 146640, Note_on_c, 1, 63, 45
3, 146660, Note_on_c, 1, 57, 0
3, 146880, Note_on_c, 1, 53, 53
3, 146900, Note_on_c, 1, 63, 0
3, 147120, Note_on_c, 1, 63, 42
3, 147140, Note_on_c, 1, 53, 0
3, 147360, Note_on_c, 1, 57, 45
3, 147380, Note_on_c, 1, 63, 0
3, 147600, Note_on_c, 1, 63, 40
3, 147620, Note_on_c, 1, 57, 0
3, 147840, Note_on_c, 1, 58, 43
3, 147860, Note_on_c, 1, 63, 0
3, 148080, Note_on_c, 1, 62, 40
3, 148320, Note_on_c, 1, 65, 35
3, 148340, Note_on_c, 1, 62, 0
3, 148560, Note_on_c, 1, 68, 37
3, 148580, Note_on_c, 1, 65, 0
3, 148800, Note_on_c, 1, 67, 39
3, 148820, Note_on_c, 1, 68, 0
3, 149280, Note_on_c, 1, 63, 42
3, 149300, Note_on_c, 1, 67, 0
3, 149680, Note_on_c, 1, 63, 0
3, 149760, Note_on_c, 1, 62, 40
3, 150000, Note_on_c, 1, 65, 37
3, 150020, Note_on_c, 1, 62, 0
3, 150240, Note_on_c, 1, 68, 32
3, 150260, Note_on_c, 1, 65, 0
3, 150480, Note_on_c, 1, 66, 34
3, 150500, Note_on_c, 1, 68, 0
3, 150720, Note_on_c, 1, 67, 36
3, 150740, Note_on_c, 1, 66, 0
3, 151200, Note_on_c, 1, 63, 32
3, 151220, Note_on_c, 1, 67, 0
3, 151600, Note_on_c, 1, 63, 0
3, 151680, Note_on_c, 1, 58, 0
3, 151680, Note_on_c, 1, 58, 35
3, 151920, Note_on_c, 1, 65, 40
3, 151920, Note_on_c, 1, 62, 32
3, 152160, Note_on_c, 1, 67, 38
3, 152160, Note_on_c, 1, 63, 29
3, 152180, Note_on_c, 1, 65, 0
3, 152180, Note_on_c, 1, 62, 0
3, 152400, Note_on_c, 1, 63, 0
3, 152400, Note_on_c, 1, 63, 40
3, 152400, Note_on_c, 1, 60, 31
3, 152420, Note_on_c, 1, 67, 0
3, 152640, Note_on_c, 1, 58, 0
3, 152640, Note_on_c, 1, 62, 43
3, 152640, Note_on_c, 1, 58, 36
3, 152660, Note_on_c, 1, 63, 0
3, 152660, Note_on_c, 1, 60, 0
3, 152880, Note_on_c, 1, 62, 0
3, 152880, Note_on_c, 1, 65, 37
3, 152880, Note_on_c, 1, 62, 30
3, 153120, Note_on_c, 1, 67, 33
3, 153120, Note_on_c, 1, 63, 27
3, 153140, Note_on_c, 1, 65, 0
3, 153140, Note_on_c, 1, 62, 0
3, 153360, Note_on_c, 1, 63, 0
3, 153360, Note_on_c, 1, 63, 35
3, 153360, Note_on_c, 1, 60, 29
3, 153380, Note_on_c, 1, 67, 0
3, 153600, Note_on_c, 1, 58, 0
3, 153600, Note_on_c, 1, 58, 25
3, 153600, Note_on_c, 1, 46, 35
3, 153620, Note_on_c, 1, 63, 0
3, 153620, Note_on_c, 1, 60, 0
3, 154560, Note_on_c, 1, 53, 10
3, 154560, Note_on_c, 1, 50, 17
3, 154960, Note_on_c, 1, 53, 0
3, 154960, Note_on_c, 1, 50, 0
3, 154960, Note_on_c, 1, 58, 0
3, 154960, Note_on_c, 1, 46, 0
3, 155520, End_track
4, 0, Start_track
4, 0, Title_t, "Dumper Pedal(R.H.)"
4, 1920, End_track
5, 0, Start_track
5, 0, Title_t, "Dumper Pedal(L.H.)"
5, 1920, End_track
0, 0, End_of_file
