0, 0, Header, 0, 1, 240
1, 0, Start_track
1, 0, Time_signature, 1, 2, 24, 8
1, 0, Tempo, 500000
1, 0, Program_c, 0, 0
1, 0, Control_c, 0, 7, 127
1, 0, Control_c, 0, 10, 76
1, 0, Program_c, 1, 0
1, 0, Control_c, 1, 7, 127
1, 0, Control_c, 1, 10, 75
1, 0, Program_c, 2, 0
1, 0, Control_c, 2, 7, 127
1, 0, Control_c, 2, 10, 74
1, 0, Program_c, 3, 0
1, 0, Control_c, 3, 7, 127
1, 0, Control_c, 3, 10, 66
1, 0, Program_c, 4, 0
1, 0, Control_c, 4, 7, 127
1, 0, Control_c, 4, 10, 58
1, 108, Marker_t, "Mozart PS No.6 in DM, K.284 (205b) Durnitz Interpreted/(C)1998-99 S D Rodrian"
1, 120, Control_c, 0, 32, 0
1, 120, Control_c, 0, 10, 77
1, 120, Control_c, 0, 7, 127
1, 120, Control_c, 0, 91, 91
1, 120, Control_c, 0, 64, 0
1, 120, Control_c, 0, 93, 28
1, 120, Control_c, 0, 0, 0
1, 360, Control_c, 1, 32, 0
1, 360, Control_c, 1, 10, 76
1, 360, Control_c, 1, 7, 127
1, 360, Control_c, 1, 91, 91
1, 360, Control_c, 1, 64, 0
1, 360, Control_c, 1, 93, 28
1, 360, Control_c, 1, 0, 0
1, 636, Control_c, 2, 32, 0
1, 636, Control_c, 2, 10, 75
1, 636, Control_c, 2, 93, 28
1, 636, Control_c, 2, 64, 0
1, 636, Control_c, 2, 91, 91
1, 636, Control_c, 2, 7, 127
1, 636, Control_c, 2, 0, 0
1, 888, Control_c, 3, 32, 0
1, 888, Control_c, 3, 10, 67
1, 888, Control_c, 3, 93, 28
1, 888, Control_c, 3, 64, 0
1, 888, Control_c, 3, 91, 91
1, 888, Control_c, 3, 7, 127
1, 888, Control_c, 3, 0, 0
1, 1116, Control_c, 4, 32, 0
1, 1116, Control_c, 4, 10, 58
1, 1116, Control_c, 4, 93, 28
1, 1116, Control_c, 4, 91, 91
1, 1116, Control_c, 4, 64, 0
1, 1116, Control_c, 4, 7, 127
1, 1116, Control_c, 4, 0, 0
1, 2075, Note_on_c, 4, 50, 127
1, 2075, Note_on_c, 4, 62, 127
1, 2076, Note_on_c, 4, 38, 127
1, 2085, Note_on_c, 4, 66, 127
1, 2099, Note_on_c, 2, 69, 127
1, 2112, Note_on_c, 2, 74, 127
1, 2400, Note_off_c, 4, 62, 64
1, 2411, Note_off_c, 4, 66, 64
1, 2421, Note_off_c, 2, 69, 64
1, 2432, Note_off_c, 2, 74, 64
1, 2446, Note_off_c, 4, 50, 64
1, 2447, Note_on_c, 2, 67, 127
1, 2447, Note_on_c, 4, 55, 127
1, 2491, Note_on_c, 4, 66, 127
1, 2492, Note_on_c, 4, 54, 127
1, 2496, Note_off_c, 4, 55, 64
1, 2496, Note_off_c, 2, 67, 64
1, 2535, Note_on_c, 4, 64, 127
1, 2536, Note_on_c, 4, 52, 127
1, 2540, Note_off_c, 4, 54, 64
1, 2541, Note_off_c, 4, 66, 64
1, 2581, Note_on_c, 4, 62, 127
1, 2582, Note_on_c, 4, 50, 127
1, 2586, Note_off_c, 4, 52, 64
1, 2587, Note_off_c, 4, 64, 64
1, 2628, Note_on_c, 4, 55, 127
1, 2628, Note_on_c, 2, 67, 127
1, 2632, Note_off_c, 4, 50, 64
1, 2633, Note_off_c, 4, 62, 64
1, 2674, Note_on_c, 4, 66, 127
1, 2674, Note_on_c, 4, 54, 127
1, 2678, Note_off_c, 4, 55, 64
1, 2679, Note_off_c, 2, 67, 64
1, 2714, Note_on_c, 4, 64, 127
1, 2714, Note_on_c, 4, 52, 127
1, 2721, Note_off_c, 4, 54, 64
1, 2721, Note_off_c, 4, 66, 64
1, 2762, Note_on_c, 4, 62, 127
1, 2762, Note_on_c, 4, 50, 127
1, 2767, Note_off_c, 4, 52, 64
1, 2767, Note_off_c, 4, 64, 64
1, 2810, Note_on_c, 4, 57, 127
1, 2810, Note_on_c, 2, 69, 127
1, 2815, Note_off_c, 4, 50, 64
1, 2815, Note_off_c, 4, 62, 64
1, 2985, Note_off_c, 2, 69, 64
1, 2985, Note_off_c, 4, 57, 64
1, 2993, Note_on_c, 4, 66, 127
1, 2994, Note_on_c, 4, 54, 127
1, 3169, Note_off_c, 4, 66, 64
1, 3169, Note_off_c, 4, 54, 64
1, 3178, Note_on_c, 4, 59, 127
1, 3178, Note_on_c, 2, 71, 127
1, 3422, Note_off_c, 4, 59, 64
1, 3423, Note_off_c, 2, 71, 64
1, 3452, Note_on_c, 4, 66, 127
1, 3453, Note_on_c, 4, 54, 127
1, 3547, Note_off_c, 4, 54, 64
1, 3548, Note_off_c, 4, 66, 64
1, 3548, Note_on_c, 2, 67, 127
1, 3549, Note_on_c, 4, 55, 127
1, 3640, Note_off_c, 4, 55, 64
1, 3641, Note_off_c, 2, 67, 64
1, 3641, Note_on_c, 4, 64, 126
1, 3642, Note_on_c, 4, 52, 127
1, 3732, Note_off_c, 4, 52, 64
1, 3733, Note_off_c, 4, 64, 64
1, 3733, Note_on_c, 2, 69, 127
1, 3734, Note_on_c, 4, 57, 127
1, 3823, Note_off_c, 4, 57, 64
1, 3823, Note_off_c, 2, 69, 64
1, 3824, Note_on_c, 4, 54, 127
1, 3824, Note_on_c, 4, 66, 127
1, 3909, Note_off_c, 4, 54, 64
1, 3910, Note_off_c, 4, 66, 64
1, 3910, Note_on_c, 4, 62, 127
1, 3911, Note_on_c, 4, 50, 127
1, 3988, Note_off_c, 4, 38, 64
1, 4006, Note_off_c, 4, 50, 64
1, 4006, Note_off_c, 4, 62, 64
1, 4007, Note_on_c, 4, 47, 127
1, 4007, Note_on_c, 4, 59, 127
1, 4098, Note_off_c, 4, 59, 64
1, 4098, Note_off_c, 4, 47, 64
1, 4099, Note_on_c, 4, 64, 126
1, 4099, Note_on_c, 4, 52, 127
1, 4188, Note_off_c, 4, 52, 64
1, 4188, Note_off_c, 4, 64, 64
1, 4188, Note_on_c, 4, 61, 127
1, 4189, Note_on_c, 4, 49, 127
1, 4284, Note_off_c, 4, 49, 64
1, 4284, Note_off_c, 4, 61, 64
1, 4284, Note_on_c, 4, 57, 127
1, 4285, Note_on_c, 4, 45, 124
1, 4353, Note_off_c, 4, 57, 64
1, 4376, Note_on_c, 4, 57, 127
1, 4438, Note_off_c, 4, 45, 64
1, 4468, Note_on_c, 4, 45, 124
1, 4532, Note_off_c, 4, 57, 64
1, 4562, Note_on_c, 4, 57, 127
1, 4624, Note_off_c, 4, 45, 64
1, 4655, Note_on_c, 4, 45, 124
1, 4718, Note_off_c, 4, 57, 64
1, 4749, Note_on_c, 4, 66, 127
1, 4749, Note_on_c, 2, 74, 127
1, 4750, Note_on_c, 4, 57, 127
1, 4805, Note_off_c, 4, 45, 64
1, 4821, Note_off_c, 2, 74, 64
1, 4821, Note_off_c, 4, 66, 64
1, 4837, Note_on_c, 2, 74, 127
1, 4837, Note_on_c, 4, 66, 127
1, 4838, Note_on_c, 4, 45, 124
1, 4896, Note_off_c, 4, 57, 64
1, 4908, Marker_t, "Copyright 1998-99 (P) S.D.Rodrian -  NOT to be reproduced or sold sans permission !"
1, 4919, Note_off_c, 4, 66, 64
1, 4919, Note_off_c, 2, 74, 64
1, 4925, Note_on_c, 2, 74, 127
1, 4926, Note_on_c, 4, 57, 127
1, 4926, Note_on_c, 4, 66, 127
1, 4984, Note_off_c, 4, 45, 64
1, 5007, Note_off_c, 4, 66, 64
1, 5007, Note_off_c, 2, 74, 64
1, 5014, Note_on_c, 4, 66, 127
1, 5014, Note_on_c, 2, 74, 127
1, 5015, Note_on_c, 4, 45, 124
1, 5072, Note_off_c, 4, 57, 64
1, 5088, Note_off_c, 2, 74, 64
1, 5088, Note_off_c, 4, 66, 64
1, 5102, Note_on_c, 2, 73, 127
1, 5102, Note_on_c, 4, 64, 126
1, 5103, Note_on_c, 4, 57, 127
1, 5164, Note_off_c, 4, 45, 64
1, 5180, Note_off_c, 4, 64, 64
1, 5180, Note_off_c, 2, 73, 64
1, 5194, Note_on_c, 2, 73, 127
1, 5195, Note_on_c, 4, 45, 124
1, 5195, Note_on_c, 4, 64, 126
1, 5256, Note_off_c, 4, 57, 64
1, 5287, Note_on_c, 4, 57, 127
1, 5349, Note_off_c, 4, 45, 64
1, 5379, Note_on_c, 4, 45, 124
1, 5441, Note_off_c, 4, 57, 64
1, 5441, Note_off_c, 4, 64, 64
1, 5442, Note_off_c, 2, 73, 64
1, 5469, Note_on_c, 2, 74, 127
1, 5469, Note_on_c, 1, 78, 124
1, 5470, Note_on_c, 4, 57, 127
1, 5529, Note_off_c, 4, 45, 64
1, 5544, Note_off_c, 2, 74, 64
1, 5545, Note_off_c, 1, 78, 64
1, 5559, Note_on_c, 1, 78, 124
1, 5559, Note_on_c, 2, 74, 127
1, 5560, Note_on_c, 4, 45, 124
1, 5617, Note_off_c, 4, 57, 64
1, 5639, Note_off_c, 2, 74, 64
1, 5639, Note_off_c, 1, 78, 64
1, 5647, Note_on_c, 1, 78, 124
1, 5648, Note_on_c, 4, 57, 127
1, 5648, Note_on_c, 2, 74, 127
1, 5706, Note_off_c, 4, 45, 64
1, 5727, Note_off_c, 2, 74, 64
1, 5727, Note_off_c, 1, 78, 64
1, 5734, Note_on_c, 2, 74, 127
1, 5734, Note_on_c, 1, 78, 124
1, 5735, Note_on_c, 4, 45, 124
1, 5792, Note_off_c, 4, 57, 64
1, 5808, Note_off_c, 1, 78, 64
1, 5808, Note_off_c, 2, 74, 64
1, 5822, Note_on_c, 2, 76, 127
1, 5822, Note_on_c, 2, 73, 127
1, 5823, Note_on_c, 4, 57, 127
1, 5878, Note_off_c, 4, 45, 64
1, 5893, Note_off_c, 2, 73, 64
1, 5893, Note_off_c, 2, 76, 64
1, 5907, Note_on_c, 2, 76, 127
1, 5908, Note_on_c, 4, 45, 124
1, 5908, Note_on_c, 2, 73, 127
1, 5968, Note_off_c, 4, 57, 64
1, 5999, Note_on_c, 4, 57, 127
1, 6060, Note_off_c, 4, 45, 64
1, 6091, Note_on_c, 4, 45, 124
1, 6150, Note_off_c, 4, 57, 64
1, 6151, Note_off_c, 2, 76, 64
1, 6151, Note_off_c, 2, 73, 64
1, 6182, Note_on_c, 1, 78, 124
1, 6182, Note_on_c, 1, 81, 124
1, 6183, Note_on_c, 4, 57, 127
1, 6242, Note_off_c, 4, 45, 64
1, 6258, Note_off_c, 1, 81, 64
1, 6258, Note_off_c, 1, 78, 64
1, 6272, Note_on_c, 1, 81, 124
1, 6273, Note_on_c, 1, 78, 124
1, 6273, Note_on_c, 4, 45, 124
1, 6333, Note_off_c, 4, 57, 64
1, 6356, Note_off_c, 1, 78, 64
1, 6356, Note_off_c, 1, 81, 64
1, 6363, Note_on_c, 4, 57, 127
1, 6363, Note_on_c, 1, 81, 124
1, 6363, Note_on_c, 1, 78, 124
1, 6425, Note_off_c, 4, 45, 64
1, 6450, Note_off_c, 1, 78, 64
1, 6451, Note_off_c, 1, 81, 64
1, 6455, Note_on_c, 1, 79, 124
1, 6457, Note_on_c, 4, 45, 124
1, 6500, Note_on_c, 1, 78, 124
1, 6508, Note_off_c, 1, 79, 64
1, 6546, Note_on_c, 1, 79, 124
1, 6550, Note_off_c, 1, 78, 64
1, 6588, Note_on_c, 1, 81, 124
1, 6594, Note_off_c, 1, 79, 64
1, 6629, Note_on_c, 1, 83, 124
1, 6636, Note_off_c, 1, 81, 64
1, 6671, Note_on_c, 1, 81, 124
1, 6679, Note_off_c, 1, 83, 64
1, 6711, Note_on_c, 1, 79, 124
1, 6719, Note_off_c, 1, 81, 64
1, 6754, Note_on_c, 1, 78, 124
1, 6761, Note_off_c, 1, 79, 64
1, 6794, Note_on_c, 2, 76, 127
1, 6804, Note_off_c, 1, 78, 64
1, 6840, Note_on_c, 2, 75, 127
1, 6846, Note_off_c, 2, 76, 64
1, 6886, Note_on_c, 2, 76, 127
1, 6890, Note_off_c, 2, 75, 64
1, 6922, Note_on_c, 1, 78, 124
1, 6934, Note_off_c, 2, 76, 64
1, 6959, Note_on_c, 1, 79, 124
1, 6969, Note_off_c, 1, 78, 64
1, 7005, Note_off_c, 1, 79, 64
1, 7005, Note_on_c, 1, 78, 124
1, 7044, Note_on_c, 2, 76, 127
1, 7051, Note_off_c, 1, 78, 64
1, 7088, Note_on_c, 2, 74, 127
1, 7093, Note_off_c, 2, 76, 64
1, 7130, Note_on_c, 2, 73, 127
1, 7130, Note_on_c, 4, 61, 127
1, 7137, Note_off_c, 2, 74, 64
1, 7144, Note_off_c, 4, 57, 64
1, 7175, Note_on_c, 2, 71, 126
1, 7176, Note_on_c, 4, 59, 127
1, 7182, Note_off_c, 4, 61, 64
1, 7182, Note_off_c, 2, 73, 64
1, 7219, Note_on_c, 2, 73, 127
1, 7220, Note_on_c, 4, 61, 127
1, 7226, Note_off_c, 2, 71, 64
1, 7226, Note_off_c, 4, 59, 64
1, 7261, Note_on_c, 2, 74, 127
1, 7262, Note_on_c, 4, 62, 127
1, 7268, Note_off_c, 4, 61, 64
1, 7269, Note_off_c, 2, 73, 64
1, 7304, Note_on_c, 2, 76, 127
1, 7304, Note_on_c, 4, 64, 126
1, 7308, Note_off_c, 4, 62, 64
1, 7309, Note_off_c, 2, 74, 64
1, 7346, Note_on_c, 2, 74, 127
1, 7346, Note_on_c, 4, 62, 127
1, 7353, Note_off_c, 4, 64, 64
1, 7353, Note_off_c, 2, 76, 64
1, 7384, Note_on_c, 2, 73, 127
1, 7385, Note_on_c, 4, 61, 127
1, 7391, Note_off_c, 4, 62, 64
1, 7392, Note_off_c, 2, 74, 64
1, 7427, Note_on_c, 4, 59, 127
1, 7427, Note_on_c, 2, 71, 126
1, 7433, Note_off_c, 4, 61, 64
1, 7434, Note_off_c, 2, 73, 64
1, 7471, Note_on_c, 2, 69, 124
1, 7471, Note_on_c, 4, 57, 127
1, 7477, Note_off_c, 4, 59, 64
1, 7478, Note_off_c, 2, 71, 64
1, 7513, Note_on_c, 2, 68, 127
1, 7513, Note_on_c, 4, 56, 127
1, 7522, Note_off_c, 4, 57, 64
1, 7522, Note_off_c, 2, 69, 64
1, 7559, Note_on_c, 2, 69, 124
1, 7560, Note_on_c, 4, 57, 127
1, 7566, Note_off_c, 4, 56, 64
1, 7566, Note_off_c, 2, 68, 64
1, 7603, Note_on_c, 2, 71, 126
1, 7604, Note_on_c, 4, 59, 127
1, 7608, Note_off_c, 4, 57, 64
1, 7608, Note_off_c, 2, 69, 64
1, 7644, Note_on_c, 4, 57, 127
1, 7644, Note_on_c, 2, 69, 124
1, 7654, Note_off_c, 4, 59, 64
1, 7655, Note_off_c, 2, 71, 64
1, 7686, Note_on_c, 2, 67, 127
1, 7686, Note_on_c, 4, 55, 127
1, 7692, Note_off_c, 4, 57, 64
1, 7693, Note_off_c, 2, 69, 64
1, 7730, Note_on_c, 4, 66, 127
1, 7730, Note_on_c, 4, 54, 127
1, 7737, Note_off_c, 4, 55, 64
1, 7737, Note_off_c, 2, 67, 64
1, 7774, Note_on_c, 4, 64, 126
1, 7775, Note_on_c, 4, 52, 127
1, 7781, Note_off_c, 4, 54, 64
1, 7781, Note_off_c, 4, 66, 64
1, 7805, Note_off_c, 4, 45, 64
1, 7820, Note_on_c, 4, 62, 127
1, 7821, Note_on_c, 4, 38, 110
1, 7821, Note_on_c, 4, 50, 127
1, 7828, Note_off_c, 4, 52, 64
1, 7828, Note_off_c, 4, 64, 64
1, 7904, Note_off_c, 4, 50, 64
1, 7913, Note_on_c, 4, 50, 127
1, 8000, Note_off_c, 4, 50, 64
1, 8007, Note_on_c, 4, 50, 127
1, 8092, Note_off_c, 4, 50, 64
1, 8100, Note_on_c, 4, 50, 127
1, 8184, Note_off_c, 4, 50, 64
1, 8184, Note_off_c, 4, 62, 64
1, 8193, Note_on_c, 4, 64, 126
1, 8193, Note_on_c, 4, 61, 127
1, 8194, Note_on_c, 4, 50, 127
1, 8278, Note_off_c, 4, 50, 64
1, 8286, Note_on_c, 4, 50, 127
1, 8370, Note_off_c, 4, 50, 64
1, 8371, Note_off_c, 4, 61, 64
1, 8371, Note_off_c, 4, 64, 64
1, 8379, Note_on_c, 4, 60, 127
1, 8379, Note_on_c, 4, 66, 127
1, 8380, Note_on_c, 4, 50, 127
1, 8463, Note_off_c, 4, 50, 64
1, 8472, Note_on_c, 4, 50, 127
1, 8556, Note_off_c, 4, 50, 64
1, 8557, Note_off_c, 4, 66, 64
1, 8557, Note_off_c, 4, 60, 64
1, 8564, Note_on_c, 4, 59, 127
1, 8564, Note_on_c, 2, 67, 127
1, 8565, Note_on_c, 4, 50, 127
1, 8650, Note_off_c, 4, 50, 64
1, 8657, Note_on_c, 4, 50, 127
1, 8702, Note_off_c, 2, 67, 64
1, 8702, Note_on_c, 2, 69, 127
1, 8726, Note_off_c, 2, 69, 64
1, 8726, Note_on_c, 2, 71, 127
1, 8748, Note_off_c, 4, 50, 64
1, 8748, Note_off_c, 4, 59, 64
1, 8759, Note_off_c, 2, 71, 64
1, 8759, Note_on_c, 2, 69, 127
1, 8760, Note_on_c, 4, 61, 127
1, 8760, Note_on_c, 4, 50, 127
1, 8845, Note_off_c, 4, 50, 64
1, 8853, Note_off_c, 2, 69, 64
1, 8853, Note_on_c, 2, 67, 127
1, 8854, Note_on_c, 4, 50, 127
1, 8940, Note_off_c, 4, 61, 64
1, 8940, Note_off_c, 4, 50, 64
1, 8947, Note_off_c, 2, 67, 64
1, 8947, Note_on_c, 4, 66, 127
1, 8948, Note_on_c, 4, 62, 127
1, 8948, Note_on_c, 4, 50, 127
1, 9035, Note_off_c, 4, 50, 64
1, 9044, Note_on_c, 4, 50, 127
1, 9130, Note_off_c, 4, 50, 64
1, 9138, Note_on_c, 4, 50, 127
1, 9222, Note_off_c, 4, 50, 64
1, 9230, Note_off_c, 4, 38, 64
1, 9230, Note_on_c, 4, 50, 127
1, 9313, Note_off_c, 4, 50, 64
1, 9314, Note_off_c, 4, 66, 64
1, 9314, Note_off_c, 4, 62, 64
1, 9322, Note_on_c, 4, 66, 127
1, 9323, Note_on_c, 4, 62, 127
1, 9323, Note_on_c, 4, 50, 127
1, 9324, Note_on_c, 4, 38, 127
1, 9408, Note_off_c, 4, 50, 64
1, 9418, Note_on_c, 4, 50, 127
1, 9504, Note_off_c, 4, 50, 64
1, 9512, Note_on_c, 4, 50, 127
1, 9600, Note_off_c, 4, 50, 64
1, 9608, Note_on_c, 4, 50, 127
1, 9695, Note_off_c, 4, 50, 64
1, 9695, Note_off_c, 4, 62, 64
1, 9696, Note_off_c, 4, 66, 64
1, 9704, Note_on_c, 2, 67, 127
1, 9705, Note_on_c, 4, 50, 127
1, 9709, Note_on_c, 4, 64, 126
1, 9792, Note_off_c, 4, 50, 64
1, 9799, Note_on_c, 4, 50, 127
1, 9886, Note_off_c, 2, 67, 64
1, 9886, Note_off_c, 4, 50, 64
1, 9892, Note_off_c, 4, 64, 64
1, 9893, Note_on_c, 2, 69, 127
1, 9893, Note_on_c, 4, 66, 127
1, 9894, Note_on_c, 4, 50, 127
1, 9981, Note_off_c, 4, 50, 64
1, 9988, Note_on_c, 4, 50, 127
1, 10075, Note_off_c, 4, 50, 64
1, 10075, Note_off_c, 4, 66, 64
1, 10076, Note_off_c, 2, 69, 64
1, 10081, Note_on_c, 2, 71, 127
1, 10082, Note_on_c, 2, 67, 127
1, 10082, Note_on_c, 4, 50, 127
1, 10166, Note_off_c, 4, 50, 64
1, 10174, Note_on_c, 4, 50, 127
1, 10220, Note_off_c, 2, 71, 64
1, 10220, Note_on_c, 2, 73, 127
1, 10248, Note_off_c, 2, 73, 64
1, 10248, Note_on_c, 2, 74, 127
1, 10270, Note_off_c, 4, 50, 64
1, 10279, Note_off_c, 2, 74, 64
1, 10280, Note_on_c, 4, 50, 127
1, 10280, Note_on_c, 2, 73, 127
1, 10365, Note_off_c, 4, 50, 64
1, 10372, Note_off_c, 2, 73, 64
1, 10373, Note_on_c, 2, 71, 127
1, 10373, Note_on_c, 4, 50, 127
1, 10460, Note_off_c, 4, 50, 64
1, 10460, Note_off_c, 2, 67, 64
1, 10468, Note_off_c, 2, 71, 64
1, 10469, Note_on_c, 4, 66, 127
1, 10469, Note_on_c, 2, 69, 127
1, 10470, Note_on_c, 4, 50, 127
1, 10555, Note_off_c, 4, 50, 64
1, 10562, Note_on_c, 4, 50, 127
1, 10651, Note_off_c, 4, 50, 64
1, 10658, Note_on_c, 4, 50, 127
1, 10680, Marker_t, "This file may be freely distributed on the WWW, as long as it's not modified. SDR"
1, 10745, Note_off_c, 4, 50, 64
1, 10754, Note_off_c, 4, 38, 64
1, 10755, Note_on_c, 4, 50, 127
1, 10755, Note_on_c, 1, 78, 125
1, 10849, Note_off_c, 4, 50, 64
1, 10850, Note_off_c, 2, 69, 64
1, 10850, Note_off_c, 4, 66, 64
1, 10851, Note_on_c, 4, 55, 127
1, 10851, Note_on_c, 2, 76, 127
1, 10852, Note_on_c, 4, 43, 127
1, 10856, Note_off_c, 1, 78, 64
1, 10896, Note_on_c, 1, 86, 125
1, 10943, Note_off_c, 2, 76, 64
1, 10944, Note_on_c, 2, 76, 127
1, 10991, Note_off_c, 1, 86, 64
1, 10991, Note_on_c, 1, 86, 125
1, 11037, Note_off_c, 2, 76, 64
1, 11040, Note_on_c, 2, 76, 127
1, 11041, Note_on_c, 4, 62, 127
1, 11041, Note_on_c, 4, 50, 127
1, 11048, Note_off_c, 4, 55, 64
1, 11048, Note_off_c, 4, 43, 64
1, 11085, Note_off_c, 1, 86, 64
1, 11087, Note_on_c, 1, 86, 125
1, 11133, Note_off_c, 2, 76, 64
1, 11135, Note_on_c, 2, 76, 127
1, 11181, Note_off_c, 1, 86, 64
1, 11183, Note_on_c, 1, 86, 125
1, 11229, Note_off_c, 2, 76, 64
1, 11231, Note_on_c, 2, 76, 127
1, 11232, Note_on_c, 4, 47, 127
1, 11232, Note_on_c, 4, 59, 127
1, 11238, Note_off_c, 4, 50, 64
1, 11238, Note_off_c, 4, 62, 64
1, 11275, Note_off_c, 1, 86, 64
1, 11277, Note_on_c, 1, 86, 125
1, 11322, Note_off_c, 2, 76, 64
1, 11324, Note_on_c, 2, 76, 127
1, 11368, Note_off_c, 1, 86, 64
1, 11370, Note_on_c, 1, 86, 125
1, 11416, Note_off_c, 2, 76, 64
1, 11418, Note_on_c, 2, 76, 127
1, 11419, Note_on_c, 4, 43, 127
1, 11419, Note_on_c, 4, 55, 127
1, 11427, Note_off_c, 4, 59, 64
1, 11427, Note_off_c, 4, 47, 64
1, 11464, Note_off_c, 1, 86, 64
1, 11466, Note_on_c, 1, 86, 125
1, 11512, Note_off_c, 2, 76, 64
1, 11514, Note_on_c, 2, 76, 127
1, 11559, Note_off_c, 1, 86, 64
1, 11561, Note_on_c, 1, 86, 125
1, 11607, Note_off_c, 2, 76, 64
1, 11609, Note_on_c, 1, 78, 125
1, 11610, Note_on_c, 4, 45, 127
1, 11610, Note_on_c, 4, 57, 127
1, 11618, Note_off_c, 4, 55, 64
1, 11618, Note_off_c, 4, 43, 64
1, 11655, Note_off_c, 1, 86, 64
1, 11657, Note_on_c, 1, 86, 125
1, 11701, Note_off_c, 1, 78, 64
1, 11705, Note_on_c, 1, 78, 125
1, 11749, Note_off_c, 1, 86, 64
1, 11751, Note_on_c, 1, 86, 125
1, 11798, Note_off_c, 1, 78, 64
1, 11800, Note_on_c, 1, 78, 125
1, 11801, Note_on_c, 4, 62, 127
1, 11801, Note_on_c, 4, 50, 127
1, 11807, Note_off_c, 4, 45, 64
1, 11808, Note_off_c, 4, 57, 64
1, 11844, Note_off_c, 1, 86, 64
1, 11848, Note_on_c, 1, 86, 125
1, 11892, Note_off_c, 1, 78, 64
1, 11894, Note_on_c, 1, 78, 125
1, 11940, Note_off_c, 1, 86, 64
1, 11942, Note_on_c, 1, 86, 125
1, 11988, Note_off_c, 1, 78, 64
1, 11990, Note_on_c, 1, 78, 125
1, 11991, Note_on_c, 4, 48, 127
1, 11991, Note_on_c, 4, 60, 127
1, 11999, Note_off_c, 4, 50, 64
1, 12000, Note_off_c, 4, 62, 64
1, 12035, Note_off_c, 1, 86, 64
1, 12036, Note_on_c, 1, 86, 125
1, 12081, Note_off_c, 1, 78, 64
1, 12083, Note_on_c, 1, 78, 125
1, 12128, Note_off_c, 1, 86, 64
1, 12128, Note_on_c, 1, 86, 125
1, 12174, Note_off_c, 1, 78, 64
1, 12176, Note_on_c, 4, 57, 127
1, 12176, Note_on_c, 1, 78, 125
1, 12177, Note_on_c, 4, 45, 127
1, 12184, Note_off_c, 4, 48, 64
1, 12185, Note_off_c, 4, 60, 64
1, 12222, Note_off_c, 1, 86, 64
1, 12224, Note_on_c, 1, 86, 125
1, 12268, Note_off_c, 1, 78, 64
1, 12272, Note_on_c, 1, 78, 125
1, 12316, Note_off_c, 1, 86, 64
1, 12318, Note_on_c, 1, 86, 125
1, 12364, Note_off_c, 1, 78, 64
1, 12366, Note_on_c, 4, 59, 127
1, 12366, Note_on_c, 1, 79, 125
1, 12367, Note_on_c, 4, 47, 127
1, 12374, Note_off_c, 4, 45, 64
1, 12375, Note_off_c, 4, 57, 64
1, 12410, Note_off_c, 1, 86, 64
1, 12414, Note_on_c, 1, 86, 125
1, 12458, Note_off_c, 1, 79, 64
1, 12460, Note_on_c, 1, 79, 125
1, 12504, Note_off_c, 1, 86, 64
1, 12506, Note_on_c, 1, 86, 125
1, 12550, Note_off_c, 1, 79, 64
1, 12554, Note_on_c, 2, 67, 127
1, 12554, Note_on_c, 1, 79, 125
1, 12555, Note_on_c, 4, 55, 127
1, 12561, Note_off_c, 4, 59, 64
1, 12561, Note_off_c, 4, 47, 64
1, 12598, Note_off_c, 1, 86, 64
1, 12600, Note_on_c, 1, 86, 125
1, 12644, Note_off_c, 1, 79, 64
1, 12646, Note_on_c, 1, 79, 125
1, 12692, Note_off_c, 1, 86, 64
1, 12693, Note_on_c, 1, 86, 125
1, 12738, Note_off_c, 1, 79, 64
1, 12740, Note_on_c, 1, 79, 125
1, 12741, Note_on_c, 4, 62, 127
1, 12741, Note_on_c, 4, 50, 127
1, 12749, Note_off_c, 2, 67, 64
1, 12749, Note_off_c, 4, 55, 64
1, 12784, Note_off_c, 1, 86, 64
1, 12786, Note_on_c, 1, 86, 125
1, 12830, Note_off_c, 1, 79, 64
1, 12833, Note_on_c, 1, 79, 125
1, 12876, Note_off_c, 1, 86, 64
1, 12877, Note_on_c, 1, 86, 125
1, 12922, Note_off_c, 1, 79, 64
1, 12924, Note_on_c, 4, 47, 127
1, 12924, Note_on_c, 4, 59, 127
1, 12924, Note_on_c, 1, 79, 125
1, 12932, Note_off_c, 4, 50, 64
1, 12933, Note_off_c, 4, 62, 64
1, 12968, Note_off_c, 1, 86, 64
1, 12972, Note_on_c, 1, 86, 125
1, 13016, Note_off_c, 1, 79, 64
1, 13018, Note_on_c, 1, 79, 125
1, 13063, Note_off_c, 1, 86, 64
1, 13065, Note_on_c, 1, 86, 125
1, 13109, Note_off_c, 1, 79, 64
1, 13111, Note_on_c, 1, 80, 125
1, 13111, Note_on_c, 2, 74, 127
1, 13112, Note_on_c, 4, 46, 127
1, 13112, Note_on_c, 4, 58, 126
1, 13118, Note_off_c, 4, 47, 64
1, 13119, Note_off_c, 4, 59, 64
1, 13154, Note_off_c, 1, 86, 64
1, 13158, Note_on_c, 1, 86, 125
1, 13200, Note_off_c, 2, 74, 64
1, 13200, Note_off_c, 1, 80, 64
1, 13203, Note_on_c, 1, 80, 125
1, 13204, Note_on_c, 2, 74, 127
1, 13248, Note_off_c, 1, 86, 64
1, 13250, Note_on_c, 1, 86, 125
1, 13295, Note_off_c, 2, 74, 64
1, 13296, Note_off_c, 1, 80, 64
1, 13298, Note_on_c, 1, 80, 125
1, 13298, Note_on_c, 2, 74, 127
1, 13299, Note_on_c, 4, 53, 127
1, 13299, Note_on_c, 4, 65, 127
1, 13306, Note_off_c, 4, 46, 64
1, 13307, Note_off_c, 4, 58, 64
1, 13343, Note_off_c, 1, 86, 64
1, 13345, Note_on_c, 1, 86, 125
1, 13389, Note_off_c, 2, 74, 64
1, 13390, Note_off_c, 1, 80, 64
1, 13392, Note_on_c, 1, 80, 125
1, 13393, Note_on_c, 2, 74, 127
1, 13437, Note_off_c, 1, 86, 64
1, 13440, Note_on_c, 1, 86, 125
1, 13482, Note_off_c, 2, 74, 64
1, 13483, Note_off_c, 1, 80, 64
1, 13486, Note_on_c, 4, 62, 127
1, 13486, Note_on_c, 1, 80, 125
1, 13486, Note_on_c, 2, 74, 127
1, 13487, Note_on_c, 4, 50, 127
1, 13493, Note_off_c, 4, 65, 64
1, 13493, Note_off_c, 4, 53, 64
1, 13530, Note_off_c, 1, 86, 64
1, 13533, Note_on_c, 1, 86, 125
1, 13578, Note_off_c, 2, 74, 64
1, 13579, Note_off_c, 1, 80, 64
1, 13582, Note_on_c, 1, 80, 125
1, 13582, Note_on_c, 2, 74, 127
1, 13624, Note_off_c, 1, 86, 64
1, 13629, Note_on_c, 1, 86, 125
1, 13673, Note_off_c, 2, 74, 64
1, 13673, Note_off_c, 1, 80, 64
1, 13676, Note_on_c, 2, 74, 127
1, 13676, Note_on_c, 1, 80, 125
1, 13677, Note_on_c, 4, 46, 127
1, 13677, Note_on_c, 4, 58, 126
1, 13683, Note_off_c, 4, 50, 64
1, 13684, Note_off_c, 4, 62, 64
1, 13722, Note_off_c, 1, 86, 64
1, 13725, Note_on_c, 1, 86, 125
1, 13770, Note_off_c, 2, 74, 64
1, 13771, Note_off_c, 1, 80, 64
1, 13772, Note_on_c, 1, 80, 122
1, 13772, Note_on_c, 2, 74, 127
1, 13816, Note_off_c, 1, 86, 64
1, 13819, Note_on_c, 1, 86, 118
1, 13859, Note_off_c, 4, 58, 64
1, 13860, Note_off_c, 1, 86, 64
1, 13861, Note_off_c, 2, 74, 64
1, 13862, Note_off_c, 1, 80, 64
1, 13868, Note_on_c, 4, 57, 127
1, 13884, Note_on_c, 2, 76, 125
1, 13888, Note_off_c, 4, 46, 64
1, 13895, Note_on_c, 1, 81, 124
1, 13907, Note_on_c, 1, 85, 124
1, 13924, Note_on_c, 2, 69, 127
1, 13970, Note_on_c, 2, 68, 127
1, 13978, Note_off_c, 2, 69, 64
1, 14016, Note_on_c, 2, 69, 127
1, 14024, Note_off_c, 2, 68, 64
1, 14061, Note_on_c, 2, 71, 127
1, 14068, Note_off_c, 2, 69, 64
1, 14105, Note_on_c, 2, 69, 127
1, 14112, Note_off_c, 2, 71, 64
1, 14131, Note_off_c, 2, 76, 64
1, 14139, Note_off_c, 1, 81, 64
1, 14149, Note_off_c, 1, 85, 64
1, 14149, Note_on_c, 1, 81, 117
1, 14150, Note_on_c, 4, 66, 127
1, 14192, Note_off_c, 2, 69, 64
1, 14193, Note_on_c, 2, 69, 127
1, 14238, Note_on_c, 1, 79, 111
1, 14239, Note_on_c, 4, 64, 126
1, 14245, Note_off_c, 1, 81, 64
1, 14245, Note_off_c, 4, 66, 64
1, 14277, Note_off_c, 2, 69, 64
1, 14280, Note_on_c, 2, 69, 127
1, 14321, Note_on_c, 4, 62, 127
1, 14321, Note_on_c, 1, 78, 111
1, 14329, Note_off_c, 4, 64, 64
1, 14330, Note_off_c, 1, 79, 64
1, 14363, Note_off_c, 2, 69, 64
1, 14365, Note_on_c, 2, 69, 127
1, 14409, Note_on_c, 2, 76, 114
1, 14410, Note_on_c, 4, 61, 127
1, 14416, Note_off_c, 1, 78, 64
1, 14416, Note_off_c, 4, 62, 64
1, 14448, Note_off_c, 2, 69, 64
1, 14451, Note_on_c, 2, 69, 127
1, 14494, Note_on_c, 2, 74, 114
1, 14494, Note_on_c, 4, 59, 127
1, 14500, Note_off_c, 4, 61, 64
1, 14501, Note_off_c, 2, 76, 64
1, 14536, Note_off_c, 2, 69, 64
1, 14538, Note_on_c, 2, 69, 127
1, 14540, Note_off_c, 4, 57, 64
1, 14584, Note_on_c, 4, 57, 127
1, 14584, Note_on_c, 2, 73, 114
1, 14591, Note_off_c, 4, 59, 64
1, 14591, Note_off_c, 2, 74, 64
1, 14626, Note_off_c, 2, 69, 64
1, 14627, Note_on_c, 2, 69, 127
1, 14670, Note_on_c, 2, 74, 114
1, 14671, Note_on_c, 4, 59, 127
1, 14677, Note_off_c, 2, 73, 64
1, 14677, Note_off_c, 4, 57, 64
1, 14711, Note_off_c, 2, 69, 64
1, 14712, Note_on_c, 2, 69, 127
1, 14757, Note_on_c, 2, 76, 114
1, 14757, Note_on_c, 4, 61, 127
1, 14765, Note_off_c, 4, 59, 64
1, 14766, Note_off_c, 2, 74, 64
1, 14799, Note_off_c, 2, 69, 64
1, 14799, Note_on_c, 2, 69, 127
1, 14843, Note_on_c, 1, 78, 111
1, 14844, Note_on_c, 4, 62, 127
1, 14850, Note_off_c, 4, 61, 64
1, 14850, Note_off_c, 2, 76, 64
1, 14885, Note_off_c, 2, 69, 64
1, 14886, Note_on_c, 2, 69, 127
1, 14929, Note_on_c, 1, 81, 111
1, 14930, Note_on_c, 4, 64, 126
1, 14938, Note_off_c, 4, 62, 64
1, 14939, Note_off_c, 1, 78, 64
1, 14971, Note_off_c, 2, 69, 64
1, 14973, Note_on_c, 1, 79, 111
1, 14973, Note_on_c, 2, 69, 127
1, 14979, Note_off_c, 1, 81, 64
1, 15014, Note_on_c, 1, 78, 111
1, 15014, Note_on_c, 4, 61, 127
1, 15021, Note_off_c, 1, 79, 64
1, 15021, Note_off_c, 4, 64, 64
1, 15052, Note_off_c, 2, 69, 64
1, 15054, Note_on_c, 2, 76, 114
1, 15055, Note_on_c, 2, 69, 127
1, 15061, Note_off_c, 1, 78, 64
1, 15096, Note_on_c, 4, 62, 127
1, 15096, Note_on_c, 1, 79, 111
1, 15102, Note_off_c, 2, 76, 64
1, 15103, Note_off_c, 4, 61, 64
1, 15138, Note_off_c, 2, 69, 64
1, 15140, Note_on_c, 1, 78, 111
1, 15140, Note_on_c, 2, 69, 127
1, 15146, Note_off_c, 1, 79, 64
1, 15179, Note_on_c, 2, 76, 118
1, 15180, Note_on_c, 4, 59, 127
1, 15186, Note_off_c, 1, 78, 64
1, 15186, Note_off_c, 4, 62, 64
1, 15219, Note_off_c, 2, 69, 64
1, 15221, Note_on_c, 2, 74, 118
1, 15222, Note_on_c, 2, 69, 127
1, 15228, Note_off_c, 2, 76, 64
1, 15263, Note_off_c, 2, 69, 64
1, 15263, Note_off_c, 2, 74, 64
1, 15264, Note_on_c, 4, 57, 127
1, 15264, Note_on_c, 2, 73, 126
1, 15280, Note_off_c, 4, 59, 64
1, 15289, Note_on_c, 2, 76, 126
1, 15299, Note_on_c, 1, 81, 123
1, 15322, Note_on_c, 2, 69, 127
1, 15365, Note_on_c, 2, 68, 127
1, 15373, Note_off_c, 2, 69, 64
1, 15408, Note_on_c, 2, 69, 127
1, 15416, Note_off_c, 2, 68, 64
1, 15452, Note_on_c, 2, 71, 127
1, 15459, Note_off_c, 2, 69, 64
1, 15496, Note_on_c, 2, 69, 127
1, 15502, Note_off_c, 2, 71, 64
1, 15504, Marker_t, "SDRodrian@aol.com  626 Lalor Trenton NJ 08611 http://members.aol.com/sdrodrian"
1, 15509, Note_off_c, 2, 73, 64
1, 15521, Note_off_c, 2, 76, 64
1, 15530, Note_off_c, 1, 81, 64
1, 15538, Note_on_c, 1, 81, 111
1, 15539, Note_on_c, 4, 66, 127
1, 15545, Note_off_c, 2, 69, 64
1, 15582, Note_on_c, 2, 69, 127
1, 15624, Note_off_c, 1, 81, 64
1, 15625, Note_on_c, 1, 79, 111
1, 15626, Note_on_c, 4, 64, 126
1, 15632, Note_off_c, 4, 66, 64
1, 15665, Note_off_c, 2, 69, 64
1, 15667, Note_on_c, 2, 69, 127
1, 15708, Note_on_c, 1, 78, 111
1, 15708, Note_on_c, 4, 62, 127
1, 15716, Note_off_c, 4, 64, 64
1, 15716, Note_off_c, 1, 79, 64
1, 15751, Note_off_c, 2, 69, 64
1, 15754, Note_on_c, 2, 69, 127
1, 15796, Note_on_c, 4, 61, 127
1, 15796, Note_on_c, 2, 76, 114
1, 15803, Note_off_c, 4, 62, 64
1, 15803, Note_off_c, 1, 78, 64
1, 15836, Note_off_c, 2, 69, 64
1, 15838, Note_on_c, 2, 69, 127
1, 15882, Note_on_c, 2, 74, 114
1, 15883, Note_on_c, 4, 59, 127
1, 15889, Note_off_c, 2, 76, 64
1, 15889, Note_off_c, 4, 61, 64
1, 15922, Note_off_c, 2, 69, 64
1, 15924, Note_off_c, 4, 57, 64
1, 15925, Note_on_c, 2, 69, 127
1, 15970, Note_on_c, 2, 73, 114
1, 15970, Note_on_c, 4, 57, 127
1, 15976, Note_off_c, 4, 59, 64
1, 15977, Note_off_c, 2, 74, 64
1, 16011, Note_off_c, 2, 69, 64
1, 16014, Note_on_c, 2, 69, 127
1, 16058, Note_on_c, 4, 59, 127
1, 16058, Note_on_c, 2, 74, 114
1, 16065, Note_off_c, 4, 57, 64
1, 16065, Note_off_c, 2, 73, 64
1, 16100, Note_off_c, 2, 69, 64
1, 16101, Note_on_c, 2, 69, 127
1, 16144, Note_on_c, 2, 76, 114
1, 16145, Note_on_c, 4, 61, 127
1, 16151, Note_off_c, 4, 59, 64
1, 16152, Note_off_c, 2, 74, 64
1, 16184, Note_off_c, 2, 69, 64
1, 16188, Note_on_c, 2, 69, 127
1, 16231, Note_on_c, 4, 62, 127
1, 16231, Note_on_c, 1, 78, 111
1, 16237, Note_off_c, 4, 61, 64
1, 16238, Note_off_c, 2, 76, 64
1, 16271, Note_off_c, 2, 69, 64
1, 16273, Note_on_c, 2, 69, 127
1, 16315, Note_on_c, 1, 81, 111
1, 16316, Note_on_c, 4, 64, 126
1, 16322, Note_off_c, 1, 78, 64
1, 16322, Note_off_c, 4, 62, 64
1, 16355, Note_off_c, 2, 69, 64
1, 16357, Note_on_c, 1, 79, 111
1, 16358, Note_on_c, 2, 69, 127
1, 16366, Note_off_c, 1, 81, 64
1, 16400, Note_on_c, 1, 78, 111
1, 16400, Note_on_c, 4, 61, 127
1, 16406, Note_off_c, 1, 79, 64
1, 16407, Note_off_c, 4, 64, 64
1, 16440, Note_off_c, 2, 69, 64
1, 16442, Note_on_c, 2, 76, 114
1, 16442, Note_on_c, 2, 69, 127
1, 16449, Note_off_c, 1, 78, 64
1, 16483, Note_on_c, 1, 79, 111
1, 16484, Note_on_c, 4, 62, 127
1, 16492, Note_off_c, 2, 76, 64
1, 16492, Note_off_c, 4, 61, 64
1, 16525, Note_off_c, 2, 69, 64
1, 16528, Note_on_c, 1, 78, 111
1, 16529, Note_on_c, 2, 69, 127
1, 16535, Note_off_c, 1, 79, 64
1, 16570, Note_on_c, 2, 76, 114
1, 16570, Note_on_c, 4, 59, 127
1, 16576, Note_off_c, 1, 78, 64
1, 16577, Note_off_c, 4, 62, 64
1, 16612, Note_off_c, 2, 69, 64
1, 16612, Note_on_c, 2, 74, 119
1, 16613, Note_on_c, 2, 69, 127
1, 16621, Note_off_c, 2, 76, 64
1, 16654, Note_off_c, 2, 69, 64
1, 16655, Note_off_c, 2, 74, 64
1, 16655, Note_off_c, 4, 59, 64
1, 16656, Note_on_c, 4, 57, 127
1, 16656, Note_on_c, 2, 73, 127
1, 16684, Note_on_c, 2, 76, 127
1, 16695, Note_on_c, 1, 81, 126
1, 16826, Note_off_c, 2, 73, 64
1, 16826, Note_off_c, 4, 57, 64
1, 16835, Note_off_c, 2, 76, 64
1, 16840, Note_on_c, 2, 76, 126
1, 16841, Note_on_c, 4, 64, 126
1, 16841, Note_on_c, 4, 57, 127
1, 16842, Note_on_c, 4, 61, 127
1, 16846, Note_off_c, 1, 81, 64
1, 16886, Note_on_c, 2, 73, 126
1, 16895, Note_off_c, 2, 76, 64
1, 16933, Note_on_c, 2, 76, 126
1, 16939, Note_off_c, 2, 73, 64
1, 16980, Note_on_c, 2, 73, 126
1, 16987, Note_off_c, 2, 76, 64
1, 17018, Note_off_c, 4, 57, 64
1, 17018, Note_off_c, 4, 64, 64
1, 17019, Note_off_c, 4, 61, 64
1, 17025, Note_on_c, 4, 64, 126
1, 17025, Note_on_c, 2, 69, 127
1, 17026, Note_on_c, 4, 57, 127
1, 17028, Note_on_c, 4, 61, 127
1, 17033, Note_off_c, 2, 73, 64
1, 17381, Note_off_c, 2, 69, 64
1, 17381, Note_on_c, 2, 76, 124
1, 17485, Note_off_c, 2, 76, 64
1, 17491, Note_on_c, 1, 81, 111
1, 17587, Note_on_c, 1, 80, 111
1, 17597, Note_off_c, 1, 81, 64
1, 17637, Note_off_c, 4, 64, 64
1, 17683, Note_on_c, 1, 83, 111
1, 17689, Note_off_c, 1, 80, 64
1, 17775, Note_on_c, 1, 81, 111
1, 17785, Note_off_c, 1, 83, 64
1, 17869, Note_on_c, 1, 80, 111
1, 17871, Note_off_c, 4, 61, 64
1, 17877, Note_off_c, 1, 81, 64
1, 17965, Note_on_c, 1, 78, 111
1, 17973, Note_off_c, 1, 80, 64
1, 18061, Note_on_c, 1, 80, 81
1, 18062, Note_on_c, 3, 71, 119
1, 18062, Note_on_c, 3, 68, 126
1, 18070, Note_off_c, 1, 78, 64
1, 18086, Note_on_c, 1, 78, 81
1, 18095, Note_off_c, 1, 80, 64
1, 18096, Note_off_c, 4, 57, 64
1, 18111, Note_on_c, 1, 80, 81
1, 18120, Note_off_c, 1, 78, 64
1, 18136, Note_on_c, 1, 78, 81
1, 18146, Note_off_c, 1, 80, 64
1, 18154, Note_off_c, 3, 68, 64
1, 18154, Note_off_c, 3, 71, 64
1, 18163, Note_on_c, 3, 68, 126
1, 18163, Note_on_c, 3, 71, 115
1, 18163, Note_on_c, 2, 76, 90
1, 18171, Note_off_c, 1, 78, 64
1, 18250, Note_off_c, 3, 68, 64
1, 18251, Note_off_c, 2, 76, 64
1, 18251, Note_off_c, 3, 71, 64
1, 18259, Note_on_c, 2, 76, 101
1, 18259, Note_on_c, 3, 71, 115
1, 18259, Note_on_c, 3, 68, 126
1, 18344, Note_off_c, 3, 68, 64
1, 18345, Note_off_c, 3, 71, 64
1, 18353, Note_on_c, 3, 71, 115
1, 18353, Note_on_c, 3, 68, 126
1, 18438, Note_off_c, 3, 68, 64
1, 18439, Note_off_c, 3, 71, 64
1, 18447, Note_on_c, 3, 68, 126
1, 18447, Note_on_c, 3, 71, 115
1, 18492, Note_off_c, 2, 76, 64
1, 18536, Note_off_c, 3, 68, 64
1, 18537, Note_off_c, 3, 71, 64
1, 18545, Note_on_c, 1, 78, 91
1, 18545, Note_on_c, 3, 71, 111
1, 18546, Note_on_c, 3, 68, 126
1, 18569, Note_on_c, 2, 76, 98
1, 18578, Note_off_c, 1, 78, 64
1, 18594, Note_on_c, 2, 75, 98
1, 18601, Note_off_c, 2, 76, 64
1, 18632, Note_off_c, 2, 75, 64
1, 18633, Note_off_c, 3, 68, 64
1, 18633, Note_off_c, 3, 71, 64
1, 18641, Note_on_c, 3, 71, 111
1, 18641, Note_on_c, 2, 76, 98
1, 18642, Note_on_c, 3, 68, 126
1, 18726, Note_off_c, 3, 68, 64
1, 18727, Note_off_c, 3, 71, 64
1, 18733, Note_on_c, 1, 78, 97
1, 18733, Note_on_c, 3, 71, 111
1, 18734, Note_on_c, 3, 68, 126
1, 18742, Note_off_c, 2, 76, 64
1, 18820, Note_off_c, 3, 68, 64
1, 18821, Note_off_c, 3, 71, 64
1, 18827, Note_on_c, 2, 76, 102
1, 18828, Note_on_c, 3, 69, 121
1, 18828, Note_on_c, 3, 66, 126
1, 18836, Note_off_c, 1, 78, 64
1, 18914, Note_off_c, 3, 66, 64
1, 18915, Note_off_c, 3, 69, 64
1, 18919, Note_off_c, 2, 76, 64
1, 18923, Note_on_c, 2, 74, 107
1, 18924, Note_on_c, 3, 66, 121
1, 18924, Note_on_c, 3, 69, 121
1, 19010, Note_off_c, 3, 66, 64
1, 19011, Note_off_c, 3, 69, 64
1, 19019, Note_on_c, 3, 69, 121
1, 19020, Note_on_c, 3, 66, 121
1, 19106, Note_off_c, 3, 66, 64
1, 19107, Note_off_c, 3, 69, 64
1, 19113, Note_on_c, 1, 78, 101
1, 19114, Note_on_c, 3, 66, 121
1, 19114, Note_on_c, 3, 69, 121
1, 19122, Note_off_c, 2, 74, 64
1, 19200, Note_off_c, 3, 66, 64
1, 19201, Note_off_c, 3, 69, 64
1, 19209, Note_on_c, 2, 74, 107
1, 19210, Note_on_c, 3, 68, 121
1, 19210, Note_on_c, 4, 64, 119
1, 19225, Note_off_c, 1, 78, 64
1, 19296, Note_off_c, 4, 64, 64
1, 19297, Note_off_c, 3, 68, 64
1, 19305, Note_on_c, 2, 73, 107
1, 19306, Note_on_c, 3, 68, 121
1, 19306, Note_on_c, 4, 64, 119
1, 19321, Note_off_c, 2, 74, 64
1, 19392, Note_off_c, 4, 64, 64
1, 19393, Note_off_c, 3, 68, 64
1, 19399, Note_on_c, 3, 68, 121
1, 19400, Note_on_c, 4, 64, 119
1, 19483, Note_off_c, 2, 73, 64
1, 19487, Note_off_c, 3, 68, 64
1, 19487, Note_off_c, 4, 64, 64
1, 19495, Note_on_c, 2, 76, 107
1, 19496, Note_on_c, 3, 68, 121
1, 19496, Note_on_c, 4, 64, 119
1, 19583, Note_off_c, 4, 64, 64
1, 19583, Note_off_c, 3, 68, 64
1, 19591, Note_on_c, 2, 73, 112
1, 19592, Note_on_c, 3, 66, 121
1, 19592, Note_on_c, 4, 62, 124
1, 19602, Note_off_c, 2, 76, 64
1, 19638, Note_on_c, 3, 71, 120
1, 19646, Note_off_c, 2, 73, 64
1, 19677, Note_off_c, 4, 62, 64
1, 19677, Note_off_c, 3, 66, 64
1, 19683, Note_on_c, 2, 74, 116
1, 19684, Note_on_c, 3, 66, 121
1, 19684, Note_on_c, 4, 62, 124
1, 19691, Note_off_c, 3, 71, 64
1, 19728, Note_on_c, 2, 73, 116
1, 19735, Note_off_c, 2, 74, 64
1, 19766, Note_off_c, 4, 62, 64
1, 19766, Note_off_c, 3, 66, 64
1, 19773, Note_on_c, 2, 76, 116
1, 19773, Note_on_c, 3, 66, 121
1, 19774, Note_on_c, 4, 62, 124
1, 19781, Note_off_c, 2, 73, 64
1, 19818, Note_on_c, 2, 74, 116
1, 19825, Note_off_c, 2, 76, 64
1, 19854, Note_off_c, 4, 62, 64
1, 19855, Note_off_c, 3, 66, 64
1, 19861, Note_on_c, 3, 66, 121
1, 19861, Note_on_c, 2, 73, 116
1, 19862, Note_on_c, 4, 62, 124
1, 19870, Note_off_c, 2, 74, 64
1, 19906, Note_on_c, 3, 71, 120
1, 19914, Note_off_c, 2, 73, 64
1, 19944, Note_off_c, 4, 62, 64
1, 19945, Note_off_c, 3, 66, 64
1, 19954, Note_on_c, 4, 64, 119
1, 19954, Note_on_c, 3, 69, 126
1, 19955, Note_on_c, 4, 61, 127
1, 19961, Note_off_c, 3, 71, 64
1, 19997, Note_on_c, 3, 71, 120
1, 20005, Note_off_c, 3, 69, 64
1, 20043, Note_on_c, 3, 69, 126
1, 20051, Note_off_c, 3, 71, 64
1, 20088, Note_on_c, 3, 68, 121
1, 20095, Note_off_c, 3, 69, 64
1, 20131, Note_on_c, 3, 69, 126
1, 20139, Note_off_c, 3, 68, 64
1, 20174, Note_on_c, 3, 71, 120
1, 20182, Note_off_c, 3, 69, 64
1, 20219, Note_on_c, 2, 73, 119
1, 20224, Note_off_c, 3, 71, 64
1, 20260, Note_on_c, 2, 74, 119
1, 20268, Note_off_c, 2, 73, 64
1, 20304, Note_on_c, 2, 75, 119
1, 20312, Note_off_c, 2, 74, 64
1, 20349, Note_on_c, 2, 76, 123
1, 20355, Note_off_c, 2, 75, 64
1, 20392, Note_on_c, 1, 78, 117
1, 20400, Note_off_c, 2, 76, 64
1, 20436, Note_on_c, 2, 76, 123
1, 20444, Note_off_c, 1, 78, 64
1, 20478, Note_on_c, 1, 80, 117
1, 20484, Note_off_c, 2, 76, 64
1, 20523, Note_on_c, 1, 78, 117
1, 20531, Note_off_c, 1, 80, 64
1, 20565, Note_on_c, 1, 81, 117
1, 20573, Note_off_c, 1, 78, 64
1, 20611, Note_on_c, 1, 80, 114
1, 20619, Note_off_c, 1, 81, 64
1, 20655, Note_on_c, 1, 83, 118
1, 20663, Note_off_c, 1, 80, 64
1, 20746, Note_on_c, 1, 81, 114
1, 20751, Note_off_c, 1, 83, 64
1, 20772, Marker_t, "1121 Deutz Ave Trenton NJ 08611 http://www.geocities.com/Paris/LeftBank/3214"
1, 20832, Note_on_c, 1, 80, 114
1, 20840, Note_off_c, 1, 81, 64
1, 20922, Note_on_c, 1, 78, 114
1, 20930, Note_off_c, 1, 80, 64
1, 20983, Note_off_c, 4, 64, 64
1, 20983, Note_off_c, 4, 61, 64
1, 21012, Note_on_c, 2, 75, 124
1, 21013, Note_on_c, 3, 71, 118
1, 21013, Note_on_c, 3, 68, 121
1, 21020, Note_off_c, 1, 78, 64
1, 21101, Note_off_c, 3, 68, 64
1, 21101, Note_off_c, 3, 71, 64
1, 21109, Note_off_c, 2, 75, 64
1, 21110, Note_on_c, 3, 71, 118
1, 21110, Note_on_c, 1, 78, 120
1, 21111, Note_on_c, 3, 68, 121
1, 21155, Note_off_c, 1, 78, 64
1, 21159, Note_on_c, 2, 76, 126
1, 21195, Note_off_c, 2, 76, 64
1, 21198, Note_off_c, 3, 71, 64
1, 21198, Note_off_c, 3, 68, 64
1, 21206, Note_on_c, 2, 76, 126
1, 21207, Note_on_c, 3, 71, 118
1, 21207, Note_on_c, 3, 68, 121
1, 21294, Note_off_c, 3, 68, 64
1, 21294, Note_off_c, 3, 71, 64
1, 21302, Note_on_c, 3, 71, 118
1, 21303, Note_on_c, 3, 68, 121
1, 21390, Note_off_c, 3, 71, 64
1, 21390, Note_off_c, 3, 68, 64
1, 21396, Note_on_c, 3, 71, 118
1, 21397, Note_on_c, 3, 68, 121
1, 21444, Note_on_c, 1, 78, 119
1, 21445, Note_off_c, 2, 76, 64
1, 21484, Note_off_c, 3, 68, 64
1, 21484, Note_off_c, 3, 71, 64
1, 21492, Note_off_c, 1, 78, 64
1, 21493, Note_on_c, 2, 76, 125
1, 21493, Note_on_c, 3, 71, 118
1, 21494, Note_on_c, 3, 68, 121
1, 21539, Note_off_c, 2, 76, 64
1, 21539, Note_on_c, 2, 75, 125
1, 21576, Note_off_c, 3, 68, 64
1, 21576, Note_off_c, 3, 71, 64
1, 21585, Note_off_c, 2, 75, 64
1, 21585, Note_on_c, 2, 76, 125
1, 21586, Note_on_c, 3, 68, 121
1, 21586, Note_on_c, 3, 71, 118
1, 21656, Note_off_c, 2, 76, 64
1, 21671, Note_off_c, 3, 68, 64
1, 21672, Note_off_c, 3, 71, 64
1, 21680, Note_on_c, 2, 76, 120
1, 21680, Note_on_c, 3, 71, 118
1, 21681, Note_on_c, 3, 68, 121
1, 21769, Note_off_c, 3, 68, 64
1, 21769, Note_off_c, 3, 71, 64
1, 21778, Note_on_c, 3, 66, 121
1, 21778, Note_on_c, 3, 69, 116
1, 21861, Note_off_c, 3, 66, 64
1, 21862, Note_off_c, 3, 69, 64
1, 21870, Note_on_c, 2, 73, 120
1, 21870, Note_on_c, 3, 69, 116
1, 21871, Note_on_c, 3, 66, 116
1, 21873, Note_off_c, 2, 76, 64
1, 21953, Note_off_c, 3, 66, 64
1, 21954, Note_off_c, 3, 69, 64
1, 21960, Note_on_c, 3, 69, 116
1, 21960, Note_on_c, 3, 66, 116
1, 22045, Note_off_c, 3, 66, 64
1, 22046, Note_off_c, 3, 69, 64
1, 22054, Note_on_c, 2, 74, 120
1, 22055, Note_on_c, 3, 66, 116
1, 22055, Note_on_c, 3, 69, 116
1, 22057, Note_off_c, 2, 73, 64
1, 22140, Note_off_c, 3, 69, 64
1, 22140, Note_off_c, 3, 66, 64
1, 22146, Note_on_c, 3, 68, 116
1, 22147, Note_on_c, 3, 64, 114
1, 22232, Note_off_c, 3, 64, 64
1, 22232, Note_off_c, 3, 68, 64
1, 22238, Note_on_c, 2, 72, 120
1, 22239, Note_on_c, 3, 64, 119
1, 22239, Note_on_c, 3, 68, 121
1, 22242, Note_off_c, 2, 74, 64
1, 22323, Note_off_c, 3, 68, 64
1, 22323, Note_off_c, 3, 64, 64
1, 22330, Note_on_c, 3, 68, 121
1, 22330, Note_on_c, 3, 64, 119
1, 22413, Note_off_c, 3, 64, 64
1, 22414, Note_off_c, 3, 68, 64
1, 22422, Note_on_c, 2, 73, 120
1, 22422, Note_on_c, 3, 68, 121
1, 22423, Note_on_c, 3, 64, 119
1, 22425, Note_off_c, 2, 72, 64
1, 22505, Note_off_c, 3, 64, 64
1, 22506, Note_off_c, 3, 68, 64
1, 22512, Note_on_c, 3, 66, 121
1, 22513, Note_on_c, 4, 62, 124
1, 22597, Note_off_c, 3, 66, 64
1, 22597, Note_off_c, 4, 62, 64
1, 22603, Note_on_c, 2, 70, 126
1, 22604, Note_on_c, 4, 66, 121
1, 22604, Note_on_c, 4, 62, 124
1, 22608, Note_off_c, 2, 73, 64
1, 22689, Note_off_c, 4, 62, 64
1, 22689, Note_off_c, 4, 66, 64
1, 22697, Note_on_c, 4, 66, 121
1, 22698, Note_on_c, 4, 62, 124
1, 22781, Note_off_c, 4, 62, 64
1, 22781, Note_off_c, 4, 66, 64
1, 22788, Note_on_c, 4, 62, 124
1, 22788, Note_on_c, 4, 66, 121
1, 22788, Note_on_c, 2, 71, 123
1, 22792, Note_off_c, 2, 70, 64
1, 22873, Note_off_c, 4, 66, 64
1, 22873, Note_off_c, 4, 62, 64
1, 22880, Note_on_c, 4, 61, 125
1, 22880, Note_on_c, 4, 64, 119
1, 22927, Note_off_c, 2, 71, 64
1, 22927, Note_on_c, 2, 68, 126
1, 22974, Note_on_c, 2, 71, 123
1, 22982, Note_off_c, 2, 68, 64
1, 23018, Note_on_c, 2, 69, 126
1, 23026, Note_off_c, 2, 71, 64
1, 23061, Note_on_c, 1, 78, 121
1, 23105, Note_off_c, 2, 69, 64
1, 23105, Note_on_c, 2, 76, 124
1, 23112, Note_off_c, 1, 78, 64
1, 23148, Note_on_c, 2, 74, 124
1, 23155, Note_off_c, 2, 76, 64
1, 23194, Note_on_c, 2, 73, 124
1, 23202, Note_off_c, 2, 74, 64
1, 23238, Note_off_c, 4, 61, 64
1, 23239, Note_off_c, 4, 64, 64
1, 23239, Note_on_c, 2, 71, 123
1, 23240, Note_on_c, 4, 50, 127
1, 23240, Note_on_c, 4, 62, 121
1, 23246, Note_off_c, 2, 73, 64
1, 23284, Note_on_c, 1, 81, 121
1, 23330, Note_on_c, 2, 70, 126
1, 23331, Note_on_c, 4, 61, 122
1, 23331, Note_on_c, 4, 49, 127
1, 23339, Note_off_c, 4, 50, 64
1, 23340, Note_off_c, 2, 71, 64
1, 23340, Note_off_c, 4, 62, 64
1, 23374, Note_off_c, 1, 81, 64
1, 23378, Note_on_c, 1, 81, 121
1, 23424, Note_on_c, 2, 71, 123
1, 23425, Note_on_c, 4, 50, 127
1, 23425, Note_on_c, 4, 62, 121
1, 23431, Note_off_c, 4, 49, 64
1, 23432, Note_off_c, 4, 61, 64
1, 23432, Note_off_c, 2, 70, 64
1, 23468, Note_off_c, 1, 81, 64
1, 23471, Note_on_c, 1, 81, 121
1, 23517, Note_on_c, 4, 61, 122
1, 23517, Note_on_c, 2, 70, 126
1, 23518, Note_on_c, 4, 49, 127
1, 23525, Note_off_c, 4, 50, 64
1, 23526, Note_off_c, 2, 71, 64
1, 23526, Note_off_c, 4, 62, 64
1, 23560, Note_off_c, 1, 81, 64
1, 23563, Note_on_c, 1, 81, 121
1, 23611, Note_on_c, 4, 62, 121
1, 23611, Note_on_c, 2, 71, 123
1, 23612, Note_on_c, 4, 50, 127
1, 23618, Note_off_c, 4, 49, 64
1, 23619, Note_off_c, 2, 70, 64
1, 23619, Note_off_c, 4, 61, 64
1, 23654, Note_off_c, 1, 81, 64
1, 23656, Note_on_c, 2, 74, 124
1, 23664, Note_off_c, 2, 71, 64
1, 23700, Note_on_c, 1, 78, 121
1, 23708, Note_off_c, 2, 74, 64
1, 23744, Note_on_c, 2, 76, 124
1, 23752, Note_off_c, 1, 78, 64
1, 23787, Note_on_c, 1, 79, 121
1, 23795, Note_off_c, 2, 76, 64
1, 23832, Note_on_c, 1, 78, 121
1, 23839, Note_off_c, 1, 79, 64
1, 23876, Note_on_c, 2, 76, 124
1, 23884, Note_off_c, 1, 78, 64
1, 23921, Note_on_c, 2, 74, 124
1, 23928, Note_off_c, 2, 76, 64
1, 23959, Note_off_c, 4, 50, 64
1, 23960, Note_off_c, 4, 62, 64
1, 23966, Note_on_c, 4, 64, 119
1, 23966, Note_on_c, 2, 73, 124
1, 23967, Note_on_c, 4, 52, 127
1, 23975, Note_off_c, 2, 74, 64
1, 24013, Note_on_c, 1, 81, 121
1, 24059, Note_on_c, 2, 72, 124
1, 24060, Note_on_c, 4, 63, 120
1, 24060, Note_on_c, 4, 51, 127
1, 24068, Note_off_c, 4, 52, 64
1, 24069, Note_off_c, 2, 73, 64
1, 24069, Note_off_c, 4, 64, 64
1, 24104, Note_off_c, 1, 81, 64
1, 24106, Note_on_c, 1, 81, 121
1, 24152, Note_on_c, 2, 73, 124
1, 24153, Note_on_c, 4, 52, 127
1, 24153, Note_on_c, 4, 64, 119
1, 24161, Note_off_c, 4, 51, 64
1, 24161, Note_off_c, 4, 63, 64
1, 24162, Note_off_c, 2, 72, 64
1, 24196, Note_off_c, 1, 81, 64
1, 24198, Note_on_c, 1, 81, 121
1, 24246, Note_on_c, 2, 72, 124
1, 24247, Note_on_c, 4, 63, 120
1, 24247, Note_on_c, 4, 51, 127
1, 24253, Note_off_c, 4, 52, 64
1, 24254, Note_off_c, 2, 73, 64
1, 24254, Note_off_c, 4, 64, 64
1, 24289, Note_off_c, 1, 81, 64
1, 24291, Note_on_c, 1, 81, 121
1, 24337, Note_on_c, 2, 73, 124
1, 24338, Note_on_c, 4, 52, 127
1, 24338, Note_on_c, 4, 64, 119
1, 24346, Note_off_c, 4, 51, 64
1, 24347, Note_off_c, 4, 63, 64
1, 24347, Note_off_c, 2, 72, 64
1, 24382, Note_off_c, 1, 81, 64
1, 24385, Note_on_c, 2, 76, 124
1, 24391, Note_off_c, 2, 73, 64
1, 24432, Note_on_c, 1, 79, 121
1, 24439, Note_off_c, 2, 76, 64
1, 24475, Note_on_c, 1, 78, 121
1, 24482, Note_off_c, 1, 79, 64
1, 24519, Note_on_c, 1, 81, 121
1, 24527, Note_off_c, 1, 78, 64
1, 24563, Note_on_c, 1, 79, 121
1, 24569, Note_off_c, 1, 81, 64
1, 24607, Note_on_c, 1, 78, 121
1, 24615, Note_off_c, 1, 79, 64
1, 24653, Note_on_c, 2, 76, 124
1, 24659, Note_off_c, 1, 78, 64
1, 24690, Note_off_c, 4, 64, 64
1, 24690, Note_off_c, 4, 52, 64
1, 24698, Note_on_c, 2, 74, 124
1, 24699, Note_on_c, 4, 54, 127
1, 24699, Note_on_c, 4, 66, 121
1, 24705, Note_off_c, 2, 76, 64
1, 24744, Note_on_c, 1, 81, 121
1, 24792, Note_on_c, 2, 73, 124
1, 24792, Note_on_c, 4, 65, 121
1, 24792, Note_on_c, 4, 53, 127
1, 24798, Note_off_c, 4, 54, 64
1, 24799, Note_off_c, 2, 74, 64
1, 24799, Note_off_c, 4, 66, 64
1, 24834, Note_off_c, 1, 81, 64
1, 24838, Note_on_c, 1, 81, 121
1, 24884, Note_on_c, 4, 66, 121
1, 24884, Note_on_c, 2, 74, 124
1, 24885, Note_on_c, 4, 54, 127
1, 24892, Note_off_c, 4, 53, 64
1, 24892, Note_off_c, 4, 65, 64
1, 24893, Note_off_c, 2, 73, 64
1, 24927, Note_off_c, 1, 81, 64
1, 24931, Note_on_c, 1, 81, 121
1, 24977, Note_on_c, 2, 73, 124
1, 24977, Note_on_c, 4, 65, 121
1, 24978, Note_on_c, 4, 53, 127
1, 24984, Note_off_c, 2, 74, 64
1, 24984, Note_off_c, 4, 66, 64
1, 24984, Note_off_c, 4, 54, 64
1, 25020, Note_off_c, 1, 81, 64
1, 25022, Note_on_c, 1, 81, 121
1, 25070, Note_on_c, 2, 74, 124
1, 25071, Note_on_c, 4, 54, 127
1, 25071, Note_on_c, 4, 66, 121
1, 25078, Note_off_c, 4, 53, 64
1, 25078, Note_off_c, 4, 65, 64
1, 25079, Note_off_c, 2, 73, 64
1, 25113, Note_off_c, 1, 81, 64
1, 25114, Note_on_c, 1, 78, 119
1, 25121, Note_off_c, 2, 74, 64
1, 25161, Note_on_c, 1, 81, 119
1, 25167, Note_off_c, 1, 78, 64
1, 25206, Note_on_c, 1, 80, 119
1, 25213, Note_off_c, 1, 81, 64
1, 25249, Note_on_c, 1, 83, 119
1, 25256, Note_off_c, 1, 80, 64
1, 25294, Note_on_c, 1, 81, 119
1, 25302, Note_off_c, 1, 83, 64
1, 25338, Note_on_c, 1, 80, 119
1, 25344, Note_off_c, 1, 81, 64
1, 25382, Note_on_c, 1, 81, 119
1, 25390, Note_off_c, 1, 80, 64
1, 25421, Note_off_c, 4, 66, 64
1, 25421, Note_off_c, 4, 54, 64
1, 25428, Note_on_c, 4, 53, 127
1, 25428, Note_on_c, 2, 75, 122
1, 25436, Note_off_c, 1, 81, 64
1, 25475, Note_on_c, 4, 57, 127
1, 25521, Note_on_c, 1, 81, 119
1, 25521, Note_on_c, 4, 60, 122
1, 25537, Note_off_c, 4, 53, 64
1, 25568, Note_on_c, 4, 63, 117
1, 25575, Note_off_c, 4, 57, 64
1, 25583, Note_off_c, 2, 75, 64
1, 25614, Note_on_c, 4, 53, 127
1, 25621, Note_off_c, 4, 60, 64
1, 25660, Note_on_c, 4, 57, 127
1, 25706, Note_off_c, 4, 63, 64
1, 25706, Note_on_c, 1, 84, 119
1, 25707, Note_on_c, 4, 60, 122
1, 25708, Note_off_c, 1, 81, 64
1, 25722, Note_off_c, 4, 53, 64
1, 25753, Note_on_c, 4, 63, 117
1, 25761, Note_off_c, 4, 57, 64
1, 25799, Note_on_c, 4, 53, 127
1, 25807, Note_off_c, 4, 60, 64
1, 25845, Note_on_c, 4, 57, 127
1, 25893, Note_off_c, 4, 63, 64
1, 25894, Note_on_c, 4, 60, 122
1, 25894, Note_on_c, 1, 83, 119
1, 25895, Note_off_c, 1, 84, 64
1, 25908, Note_off_c, 4, 53, 64
1, 25939, Note_on_c, 4, 63, 117
1, 25947, Note_off_c, 4, 57, 64
1, 25985, Note_on_c, 4, 53, 127
1, 25993, Note_off_c, 4, 60, 64
1, 26032, Note_on_c, 4, 57, 127
1, 26078, Note_off_c, 4, 63, 64
1, 26079, Note_on_c, 4, 60, 122
1, 26079, Note_on_c, 1, 81, 119
1, 26081, Note_off_c, 1, 83, 64
1, 26093, Note_off_c, 4, 53, 64
1, 26125, Note_on_c, 4, 63, 117
1, 26132, Note_off_c, 4, 57, 64
1, 26165, Note_off_c, 1, 81, 64
1, 26169, Note_off_c, 4, 60, 64
1, 26171, Note_on_c, 4, 52, 127
1, 26171, Note_on_c, 1, 80, 119
1, 26217, Note_off_c, 4, 63, 64
1, 26263, Note_on_c, 3, 64, 124
1, 26349, Note_off_c, 3, 64, 64
1, 26357, Note_on_c, 3, 64, 124
1, 26357, Note_on_c, 3, 68, 121
1, 26435, Note_off_c, 1, 80, 64
1, 26442, Note_off_c, 3, 64, 64
1, 26446, Note_off_c, 3, 68, 64
1, 26450, Note_on_c, 2, 76, 110
1, 26450, Note_on_c, 3, 68, 121
1, 26451, Note_on_c, 3, 64, 124
1, 26535, Note_off_c, 3, 64, 64
1, 26536, Note_off_c, 2, 76, 64
1, 26540, Note_off_c, 3, 68, 64
1, 26542, Note_on_c, 2, 77, 105
1, 26543, Note_on_c, 2, 73, 107
1, 26543, Note_on_c, 3, 70, 106
1, 26544, Note_on_c, 3, 64, 124
1, 26627, Note_off_c, 3, 64, 64
1, 26628, Note_off_c, 2, 77, 64
1, 26631, Note_off_c, 3, 70, 64
1, 26635, Note_on_c, 1, 78, 102
1, 26636, Note_on_c, 3, 64, 124
1, 26636, Note_on_c, 3, 70, 106
1, 26719, Note_off_c, 3, 64, 64
1, 26723, Note_off_c, 2, 73, 64
1, 26724, Note_off_c, 3, 70, 64
1, 26726, Note_on_c, 2, 74, 105
1, 26727, Note_on_c, 3, 71, 108
1, 26727, Note_on_c, 3, 64, 124
1, 26812, Note_off_c, 3, 64, 64
1, 26812, Note_off_c, 1, 78, 64
1, 26819, Note_off_c, 3, 71, 64
1, 26820, Note_on_c, 1, 78, 102
1, 26821, Note_on_c, 3, 64, 124
1, 26821, Note_on_c, 3, 71, 108
1, 26906, Note_off_c, 2, 74, 64
1, 26906, Note_off_c, 3, 64, 64
1, 26913, Note_off_c, 3, 71, 64
1, 26915, Note_off_c, 1, 78, 64
1, 26915, Note_on_c, 2, 75, 105
1, 26916, Note_on_c, 3, 68, 116
1, 26916, Note_on_c, 3, 64, 124
1, 26999, Note_off_c, 3, 64, 64
1, 27005, Note_off_c, 3, 68, 64
1, 27005, Note_off_c, 2, 75, 64
1, 27008, Note_on_c, 2, 76, 115
1, 27008, Note_on_c, 3, 68, 116
1, 27009, Note_on_c, 3, 64, 124
1, 27095, Note_off_c, 3, 64, 64
1, 27101, Note_off_c, 3, 68, 64
1, 27103, Note_on_c, 3, 69, 116
1, 27103, Note_on_c, 2, 73, 117
1, 27104, Note_on_c, 3, 64, 124
1, 27188, Note_off_c, 3, 64, 64
1, 27189, Note_off_c, 2, 76, 64
1, 27193, Note_off_c, 3, 69, 64
1, 27197, Note_off_c, 2, 73, 64
1, 27197, Note_on_c, 2, 76, 115
1, 27198, Note_on_c, 3, 69, 116
1, 27198, Note_on_c, 3, 64, 124
1, 27274, Note_off_c, 2, 76, 64
1, 27281, Note_off_c, 3, 64, 64
1, 27287, Note_off_c, 3, 69, 64
1, 27289, Note_on_c, 3, 66, 121
1, 27289, Note_on_c, 1, 81, 112
1, 27290, Note_on_c, 3, 64, 124
1, 27374, Note_off_c, 3, 64, 64
1, 27378, Note_off_c, 3, 66, 64
1, 27382, Note_off_c, 1, 81, 64
1, 27383, Note_on_c, 2, 74, 115
1, 27383, Note_on_c, 3, 66, 121
1, 27384, Note_on_c, 3, 64, 124
1, 27467, Note_off_c, 3, 64, 64
1, 27471, Note_off_c, 3, 66, 64
1, 27474, Note_on_c, 3, 71, 118
1, 27475, Note_on_c, 3, 68, 116
1, 27475, Note_on_c, 3, 64, 124
1, 27560, Note_off_c, 3, 64, 64
1, 27560, Note_off_c, 2, 74, 64
1, 27564, Note_off_c, 3, 68, 64
1, 27567, Note_on_c, 3, 64, 124
1, 27567, Note_on_c, 3, 68, 116
1, 27567, Note_on_c, 2, 74, 115
1, 27652, Note_off_c, 2, 74, 64
1, 27653, Note_off_c, 3, 71, 64
1, 27653, Note_off_c, 3, 64, 64
1, 27658, Note_off_c, 3, 68, 64
1, 27661, Note_on_c, 2, 72, 119
1, 27662, Note_on_c, 3, 69, 116
1, 27662, Note_on_c, 3, 64, 124
1, 27745, Note_off_c, 3, 64, 64
1, 27749, Note_off_c, 3, 69, 64
1, 27751, Note_off_c, 2, 72, 64
1, 27751, Note_on_c, 2, 73, 117
1, 27752, Note_on_c, 3, 69, 116
1, 27752, Note_on_c, 3, 64, 124
1, 27836, Note_off_c, 3, 64, 64
1, 27836, Note_off_c, 2, 73, 64
1, 27844, Note_on_c, 2, 73, 117
1, 27845, Note_on_c, 3, 64, 124
1, 27928, Note_off_c, 3, 64, 64
1, 27928, Note_off_c, 2, 73, 64
1, 27935, Note_on_c, 2, 76, 120
1, 27935, Note_on_c, 2, 73, 122
1, 27936, Note_on_c, 3, 64, 124
1, 27995, Note_off_c, 3, 69, 64
1, 28018, Note_off_c, 3, 64, 64
1, 28019, Note_off_c, 2, 73, 64
1, 28019, Note_off_c, 2, 76, 64
1, 28025, Note_on_c, 2, 74, 120
1, 28025, Note_on_c, 1, 78, 117
1, 28026, Note_on_c, 3, 64, 124
1, 28072, Note_on_c, 1, 80, 117
1, 28080, Note_off_c, 1, 78, 64
1, 28117, Note_on_c, 1, 81, 117
1, 28125, Note_off_c, 1, 80, 64
1, 28161, Note_on_c, 1, 80, 117
1, 28169, Note_off_c, 1, 81, 64
1, 28206, Note_on_c, 1, 83, 117
1, 28213, Note_off_c, 1, 80, 64
1, 28249, Note_on_c, 1, 81, 117
1, 28257, Note_off_c, 1, 83, 64
1, 28294, Note_on_c, 1, 80, 117
1, 28301, Note_off_c, 1, 81, 64
1, 28338, Note_on_c, 1, 78, 117
1, 28345, Note_off_c, 1, 80, 64
1, 28374, Note_off_c, 2, 74, 64
1, 28383, Note_on_c, 2, 73, 122
1, 28383, Note_on_c, 2, 76, 120
1, 28390, Note_off_c, 1, 78, 64
1, 28428, Note_on_c, 1, 81, 117
1, 28436, Note_off_c, 2, 76, 64
1, 28472, Note_on_c, 1, 85, 117
1, 28479, Note_off_c, 1, 81, 64
1, 28517, Note_on_c, 1, 80, 117
1, 28527, Note_off_c, 1, 85, 64
1, 28562, Note_on_c, 1, 81, 117
1, 28562, Note_on_c, 3, 69, 121
1, 28569, Note_off_c, 1, 80, 64
1, 28571, Note_off_c, 2, 73, 64
1, 28606, Note_on_c, 2, 76, 120
1, 28613, Note_off_c, 1, 81, 64
1, 28621, Note_off_c, 4, 52, 64
1, 28652, Note_on_c, 1, 78, 117
1, 28657, Note_off_c, 2, 76, 64
1, 28697, Note_on_c, 2, 73, 122
1, 28704, Note_off_c, 1, 78, 64
1, 28741, Note_on_c, 3, 71, 123
1, 28741, Note_on_c, 2, 74, 120
1, 28746, Note_off_c, 3, 69, 64
1, 28750, Note_off_c, 2, 73, 64
1, 28788, Note_on_c, 2, 76, 120
1, 28796, Note_off_c, 2, 74, 64
1, 28832, Note_on_c, 1, 78, 117
1, 28840, Note_off_c, 2, 76, 64
1, 28878, Note_on_c, 2, 76, 120
1, 28884, Note_off_c, 1, 78, 64
1, 28922, Note_on_c, 1, 80, 117
1, 28923, Note_off_c, 3, 71, 64
1, 28923, Note_on_c, 3, 68, 121
1, 28931, Note_off_c, 2, 76, 64
1, 28968, Note_on_c, 1, 78, 117
1, 28975, Note_off_c, 1, 80, 64
1, 29012, Note_on_c, 2, 76, 120
1, 29019, Note_off_c, 1, 78, 64
1, 29058, Note_on_c, 2, 74, 120
1, 29065, Note_off_c, 2, 76, 64
1, 29104, Note_on_c, 2, 73, 122
1, 29112, Note_off_c, 2, 74, 64
1, 29148, Note_on_c, 2, 76, 120
1, 29156, Note_off_c, 2, 73, 64
1, 29194, Note_on_c, 1, 81, 122
1, 29202, Note_off_c, 2, 76, 64
1, 29238, Note_on_c, 1, 80, 122
1, 29248, Note_off_c, 1, 81, 64
1, 29284, Note_on_c, 1, 81, 124
1, 29292, Note_off_c, 1, 80, 64
1, 29330, Note_on_c, 2, 76, 125
1, 29375, Note_off_c, 3, 64, 64
1, 29375, Note_on_c, 2, 73, 125
1, 29376, Note_on_c, 4, 45, 127
1, 29376, Note_on_c, 4, 33, 127
1, 29421, Note_off_c, 3, 68, 64
1, 29421, Note_on_c, 3, 69, 126
1, 29462, Note_off_c, 1, 81, 64
1, 29466, Note_off_c, 4, 33, 64
1, 29466, Note_off_c, 4, 45, 64
1, 29467, Note_on_c, 4, 49, 127
1, 29467, Note_on_c, 1, 81, 124
1, 29468, Note_on_c, 4, 37, 127
1, 29506, Note_off_c, 2, 76, 64
1, 29512, Note_on_c, 2, 76, 125
1, 29549, Note_off_c, 2, 73, 64
1, 29556, Note_off_c, 4, 49, 64
1, 29556, Note_off_c, 4, 37, 64
1, 29557, Note_on_c, 2, 73, 125
1, 29557, Note_on_c, 4, 52, 127
1, 29558, Note_on_c, 4, 40, 127
1, 29594, Note_off_c, 3, 69, 64
1, 29602, Note_on_c, 3, 69, 126
1, 29642, Note_off_c, 1, 81, 64
1, 29646, Note_off_c, 4, 40, 64
1, 29647, Note_off_c, 4, 52, 64
1, 29647, Note_on_c, 1, 81, 124
1, 29648, Note_on_c, 4, 45, 127
1, 29648, Note_on_c, 4, 57, 127
1, 29687, Note_off_c, 2, 76, 64
1, 29690, Note_on_c, 2, 76, 125
1, 29729, Note_off_c, 2, 73, 64
1, 29736, Note_on_c, 2, 73, 125
1, 29773, Note_off_c, 3, 69, 64
1, 29781, Note_on_c, 3, 69, 126
1, 29821, Note_off_c, 1, 81, 64
1, 29825, Note_on_c, 1, 78, 124
1, 29840, Note_off_c, 2, 76, 64
1, 29871, Note_on_c, 1, 80, 124
1, 29879, Note_off_c, 1, 78, 64
1, 29915, Note_on_c, 1, 81, 124
1, 29923, Note_off_c, 1, 80, 64
1, 29960, Note_on_c, 1, 80, 124
1, 29968, Note_off_c, 1, 81, 64
1, 30005, Note_off_c, 4, 57, 64
1, 30005, Note_off_c, 4, 45, 64
1, 30006, Note_on_c, 1, 81, 124
1, 30013, Note_off_c, 1, 80, 64
1, 30050, Note_on_c, 1, 78, 124
1, 30088, Note_off_c, 2, 73, 64
1, 30096, Note_on_c, 2, 74, 125
1, 30096, Note_on_c, 4, 50, 127
1, 30097, Note_on_c, 4, 38, 127
1, 30134, Note_off_c, 3, 69, 64
1, 30141, Note_on_c, 2, 69, 126
1, 30181, Note_off_c, 1, 81, 64
1, 30185, Note_off_c, 4, 38, 64
1, 30186, Note_off_c, 4, 50, 64
1, 30186, Note_on_c, 1, 81, 124
1, 30187, Note_on_c, 4, 42, 127
1, 30187, Note_on_c, 4, 54, 127
1, 30226, Note_off_c, 1, 78, 64
1, 30230, Note_on_c, 1, 78, 124
1, 30269, Note_off_c, 2, 74, 64
1, 30276, Note_off_c, 4, 42, 64
1, 30277, Note_off_c, 4, 54, 64
1, 30277, Note_on_c, 2, 74, 125
1, 30277, Note_on_c, 4, 57, 127
1, 30278, Note_on_c, 4, 45, 127
1, 30314, Note_off_c, 2, 69, 64
1, 30322, Note_on_c, 2, 69, 126
1, 30361, Note_off_c, 1, 81, 64
1, 30366, Note_off_c, 4, 45, 64
1, 30366, Note_off_c, 4, 57, 64
1, 30367, Note_on_c, 4, 62, 127
1, 30367, Note_on_c, 1, 81, 126
1, 30368, Note_on_c, 4, 50, 127
1, 30406, Note_off_c, 1, 78, 64
1, 30412, Note_on_c, 1, 78, 126
1, 30448, Note_off_c, 2, 74, 64
1, 30456, Note_on_c, 2, 74, 127
1, 30494, Note_off_c, 2, 69, 64
1, 30502, Note_on_c, 2, 69, 126
1, 30540, Note_off_c, 4, 62, 64
1, 30540, Note_off_c, 4, 50, 64
1, 30542, Note_off_c, 1, 81, 64
1, 30546, Note_off_c, 2, 74, 64
1, 30547, Note_off_c, 1, 78, 64
1, 30547, Note_on_c, 2, 76, 127
1, 30548, Note_on_c, 2, 73, 127
1, 30548, Note_on_c, 4, 64, 124
1, 30549, Note_on_c, 4, 52, 127
1, 30632, Note_off_c, 4, 52, 64
1, 30632, Note_off_c, 4, 64, 64
1, 30640, Note_on_c, 4, 64, 124
1, 30641, Note_on_c, 4, 52, 127
1, 30685, Note_off_c, 2, 73, 64
1, 30686, Note_off_c, 2, 76, 64
1, 30686, Note_on_c, 1, 78, 116
1, 30687, Note_on_c, 2, 74, 119
1, 30705, Note_off_c, 2, 74, 64
1, 30718, Note_on_c, 2, 74, 119
1, 30719, Note_on_c, 2, 71, 118
1, 30727, Note_off_c, 2, 69, 64
1, 30727, Note_off_c, 1, 78, 64
1, 30733, Note_off_c, 4, 52, 64
1, 30734, Note_off_c, 4, 64, 64
1, 30741, Note_off_c, 2, 74, 64
1, 30741, Note_on_c, 2, 73, 119
1, 30742, Note_on_c, 2, 69, 126
1, 30743, Note_on_c, 4, 64, 124
1, 30743, Note_on_c, 4, 52, 127
1, 30762, Note_off_c, 2, 71, 64
1, 30823, Note_off_c, 4, 52, 64
1, 30824, Note_off_c, 4, 64, 64
1, 30830, Note_on_c, 4, 64, 124
1, 30831, Note_on_c, 4, 52, 127
1, 30916, Note_off_c, 4, 52, 64
1, 30916, Note_off_c, 4, 64, 64
1, 30923, Note_on_c, 4, 52, 127
1, 30923, Note_on_c, 4, 64, 124
1, 30985, Note_off_c, 2, 73, 64
1, 31008, Note_off_c, 4, 64, 64
1, 31008, Note_off_c, 4, 52, 64
1, 31015, Note_on_c, 2, 76, 127
1, 31015, Note_on_c, 2, 73, 127
1, 31016, Note_on_c, 4, 64, 124
1, 31016, Note_on_c, 4, 52, 127
1, 31097, Note_off_c, 4, 52, 64
1, 31098, Note_off_c, 4, 64, 64
1, 31106, Note_on_c, 2, 74, 127
1, 31106, Note_on_c, 2, 71, 127
1, 31107, Note_on_c, 4, 64, 124
1, 31107, Note_on_c, 4, 52, 127
1, 31108, Note_off_c, 2, 69, 64
1, 31112, Note_off_c, 2, 73, 64
1, 31112, Note_off_c, 2, 76, 64
1, 31186, Note_off_c, 4, 52, 64
1, 31186, Note_off_c, 4, 64, 64
1, 31190, Note_off_c, 2, 71, 64
1, 31194, Note_on_c, 2, 71, 127
1, 31195, Note_on_c, 4, 64, 124
1, 31195, Note_on_c, 2, 68, 126
1, 31196, Note_on_c, 4, 52, 127
1, 31200, Note_off_c, 2, 74, 64
1, 31286, Note_on_c, 2, 73, 127
1, 31294, Note_off_c, 2, 71, 64
1, 31332, Note_on_c, 2, 76, 127
1, 31346, Note_off_c, 2, 73, 64
1, 31377, Note_on_c, 1, 81, 126
1, 31390, Note_off_c, 2, 76, 64
1, 31423, Note_off_c, 1, 81, 64
1, 31423, Note_on_c, 1, 80, 126
1, 31468, Note_off_c, 1, 80, 64
1, 31468, Note_on_c, 1, 81, 126
1, 31513, Note_on_c, 2, 76, 127
1, 31549, Note_off_c, 2, 68, 64
1, 31557, Note_off_c, 4, 52, 64
1, 31558, Note_off_c, 4, 64, 64
1, 31558, Note_on_c, 2, 73, 127
1, 31559, Note_on_c, 4, 45, 127
1, 31559, Note_on_c, 4, 33, 127
1, 31602, Note_on_c, 2, 69, 126
1, 31644, Note_off_c, 1, 81, 64
1, 31648, Note_off_c, 4, 33, 64
1, 31649, Note_off_c, 4, 45, 64
1, 31649, Note_on_c, 1, 81, 126
1, 31650, Note_on_c, 4, 37, 127
1, 31650, Note_on_c, 4, 49, 127
1, 31689, Note_off_c, 2, 76, 64
1, 31692, Note_on_c, 2, 76, 127
1, 31735, Note_off_c, 2, 73, 64
1, 31739, Note_off_c, 4, 49, 64
1, 31739, Note_off_c, 4, 37, 64
1, 31740, Note_on_c, 2, 73, 127
1, 31740, Note_on_c, 4, 52, 127
1, 31740, Note_on_c, 4, 40, 127
1, 31775, Note_off_c, 2, 69, 64
1, 31783, Note_on_c, 2, 69, 126
1, 31823, Note_off_c, 1, 81, 64
1, 31829, Note_off_c, 4, 40, 64
1, 31829, Note_off_c, 4, 52, 64
1, 31830, Note_on_c, 4, 57, 127
1, 31830, Note_on_c, 1, 81, 126
1, 31831, Note_on_c, 4, 45, 127
1, 31869, Note_off_c, 2, 76, 64
1, 31873, Note_on_c, 2, 76, 127
1, 31913, Note_off_c, 2, 73, 64
1, 31919, Note_on_c, 2, 73, 127
1, 31956, Note_off_c, 2, 69, 64
1, 31963, Note_on_c, 2, 69, 126
1, 32004, Note_off_c, 1, 81, 64
1, 32007, Note_off_c, 2, 76, 64
1, 32008, Note_on_c, 1, 78, 126
1, 32052, Note_off_c, 1, 78, 64
1, 32053, Note_on_c, 1, 80, 126
1, 32098, Note_off_c, 1, 80, 64
1, 32098, Note_on_c, 1, 81, 126
1, 32143, Note_off_c, 1, 81, 64
1, 32143, Note_on_c, 1, 80, 126
1, 32188, Note_off_c, 1, 80, 64
1, 32188, Note_off_c, 4, 45, 64
1, 32189, Note_off_c, 4, 57, 64
1, 32189, Note_on_c, 1, 81, 126
1, 32232, Note_on_c, 1, 78, 126
1, 32271, Note_off_c, 2, 73, 64
1, 32279, Note_on_c, 2, 74, 127
1, 32279, Note_on_c, 4, 50, 127
1, 32280, Note_on_c, 4, 38, 127
1, 32317, Note_off_c, 2, 69, 64
1, 32326, Note_on_c, 2, 69, 126
1, 32364, Note_off_c, 1, 81, 64
1, 32371, Note_off_c, 4, 38, 64
1, 32371, Note_off_c, 4, 50, 64
1, 32371, Note_on_c, 1, 81, 126
1, 32372, Note_on_c, 4, 42, 127
1, 32372, Note_on_c, 4, 54, 127
1, 32411, Note_off_c, 1, 78, 64
1, 32417, Note_on_c, 1, 78, 126
1, 32457, Note_off_c, 2, 74, 64
1, 32461, Note_off_c, 4, 42, 64
1, 32461, Note_on_c, 2, 74, 127
1, 32462, Note_off_c, 4, 54, 64
1, 32462, Note_on_c, 4, 57, 127
1, 32463, Note_on_c, 4, 45, 127
1, 32500, Note_off_c, 2, 69, 64
1, 32506, Note_on_c, 2, 69, 126
1, 32546, Note_off_c, 1, 81, 64
1, 32550, Note_on_c, 1, 81, 126
1, 32552, Note_off_c, 4, 45, 64
1, 32552, Note_off_c, 4, 57, 64
1, 32553, Note_on_c, 4, 50, 127
1, 32553, Note_on_c, 4, 62, 127
1, 32592, Note_off_c, 1, 78, 64
1, 32596, Note_on_c, 1, 78, 126
1, 32636, Note_off_c, 2, 74, 64
1, 32640, Note_on_c, 2, 74, 127
1, 32679, Note_off_c, 2, 69, 64
1, 32687, Note_on_c, 2, 69, 126
1, 32692, Note_off_c, 2, 74, 64
1, 32724, Note_off_c, 4, 50, 64
1, 32725, Note_off_c, 4, 62, 64
1, 32725, Note_off_c, 1, 81, 64
1, 32732, Note_off_c, 1, 78, 64
1, 32732, Note_on_c, 2, 76, 127
1, 32733, Note_on_c, 2, 73, 127
1, 32733, Note_on_c, 4, 64, 124
1, 32734, Note_on_c, 4, 52, 127
1, 32820, Note_off_c, 4, 52, 64
1, 32820, Note_off_c, 4, 64, 64
1, 32826, Note_on_c, 4, 64, 124
1, 32827, Note_on_c, 4, 52, 127
1, 32872, Note_off_c, 2, 73, 64
1, 32872, Note_off_c, 2, 76, 64
1, 32873, Note_on_c, 2, 74, 119
1, 32873, Note_on_c, 1, 78, 116
1, 32889, Note_off_c, 2, 74, 64
1, 32899, Note_on_c, 2, 74, 119
1, 32899, Note_on_c, 2, 71, 118
1, 32907, Note_off_c, 1, 78, 64
1, 32908, Note_off_c, 2, 69, 64
1, 32916, Note_off_c, 4, 64, 64
1, 32916, Note_off_c, 4, 52, 64
1, 32925, Note_off_c, 2, 74, 64
1, 32925, Note_on_c, 2, 73, 124
1, 32926, Note_on_c, 2, 69, 126
1, 32926, Note_on_c, 4, 64, 124
1, 32927, Note_on_c, 4, 52, 127
1, 32946, Note_off_c, 2, 71, 64
1, 33009, Note_off_c, 4, 52, 64
1, 33010, Note_off_c, 4, 64, 64
1, 33018, Note_on_c, 4, 64, 124
1, 33018, Note_on_c, 4, 52, 127
1, 33105, Note_off_c, 4, 52, 64
1, 33105, Note_off_c, 4, 64, 64
1, 33112, Note_on_c, 4, 52, 127
1, 33112, Note_on_c, 4, 64, 124
1, 33176, Note_off_c, 2, 73, 64
1, 33199, Note_off_c, 4, 52, 64
1, 33200, Note_off_c, 4, 64, 64
1, 33206, Note_on_c, 2, 76, 127
1, 33206, Note_on_c, 2, 73, 127
1, 33207, Note_on_c, 4, 64, 124
1, 33207, Note_on_c, 4, 52, 127
1, 33290, Note_off_c, 4, 52, 64
1, 33291, Note_off_c, 4, 64, 64
1, 33297, Note_off_c, 2, 73, 64
1, 33298, Note_off_c, 2, 76, 64
1, 33298, Note_off_c, 2, 69, 64
1, 33299, Note_on_c, 2, 71, 127
1, 33299, Note_on_c, 2, 74, 127
1, 33300, Note_on_c, 4, 52, 127
1, 33300, Note_on_c, 4, 64, 124
1, 33380, Note_off_c, 2, 71, 64
1, 33380, Note_off_c, 4, 52, 64
1, 33381, Note_off_c, 4, 64, 64
1, 33386, Note_off_c, 2, 74, 64
1, 33387, Note_on_c, 2, 71, 127
1, 33387, Note_on_c, 2, 68, 126
1, 33388, Note_on_c, 4, 64, 124
1, 33388, Note_on_c, 4, 52, 127
1, 33480, Note_off_c, 2, 68, 64
1, 33481, Note_off_c, 4, 52, 64
1, 33481, Note_off_c, 2, 71, 64
1, 33482, Note_off_c, 4, 64, 64
1, 33482, Note_on_c, 2, 69, 126
1, 33483, Note_on_c, 4, 57, 127
1, 33624, Note_off_c, 2, 69, 64
1, 33624, Note_off_c, 4, 57, 64
1, 33624, Note_on_c, 2, 71, 127
1, 33625, Note_on_c, 4, 59, 127
1, 33650, Note_on_c, 2, 68, 126
1, 33652, Note_on_c, 4, 55, 127
1, 33660, Note_off_c, 2, 71, 64
1, 33662, Note_off_c, 4, 59, 64
1, 33679, Note_on_c, 4, 66, 126
1, 33680, Note_on_c, 4, 54, 127
1, 33686, Note_off_c, 4, 55, 64
1, 33686, Note_off_c, 2, 68, 64
1, 33797, Note_off_c, 4, 66, 64
1, 33798, Note_off_c, 4, 54, 64
1, 33822, Note_on_c, 2, 68, 126
1, 33823, Note_on_c, 4, 56, 127
1, 33848, Note_on_c, 4, 64, 124
1, 33849, Note_on_c, 4, 52, 127
1, 33859, Note_off_c, 2, 68, 64
1, 33859, Note_off_c, 4, 56, 64
1, 33877, Note_off_c, 4, 64, 64
1, 33877, Note_on_c, 4, 62, 127
1, 33878, Note_on_c, 4, 50, 127
1, 33880, Note_off_c, 4, 52, 64
1, 33997, Note_off_c, 4, 50, 64
1, 33997, Note_off_c, 4, 62, 64
1, 34021, Note_on_c, 4, 64, 124
1, 34021, Note_on_c, 4, 52, 127
1, 34048, Note_on_c, 4, 49, 127
1, 34048, Note_on_c, 4, 61, 127
1, 34059, Note_off_c, 4, 64, 64
1, 34060, Note_off_c, 4, 52, 64
1, 34078, Note_on_c, 4, 47, 127
1, 34078, Note_on_c, 4, 59, 127
1, 34086, Note_off_c, 4, 61, 64
1, 34087, Note_off_c, 4, 49, 64
1, 34216, Note_off_c, 4, 59, 64
1, 34222, Note_off_c, 4, 47, 64
1, 34224, Note_on_c, 4, 61, 127
1, 34224, Note_on_c, 4, 49, 127
1, 34249, Note_on_c, 4, 57, 127
1, 34250, Note_on_c, 4, 45, 127
1, 34258, Note_off_c, 4, 61, 64
1, 34259, Note_off_c, 4, 49, 64
1, 34279, Note_on_c, 4, 56, 127
1, 34280, Note_on_c, 4, 44, 127
1, 34286, Note_off_c, 4, 57, 64
1, 34288, Note_off_c, 4, 45, 64
1, 34464, Note_on_c, 2, 76, 127
1, 34478, Note_on_c, 1, 80, 126
1, 34489, Note_on_c, 1, 82, 126
1, 34501, Note_on_c, 1, 86, 126
1, 34651, Note_off_c, 4, 56, 64
1, 34653, Note_off_c, 4, 44, 64
1, 34653, Note_on_c, 4, 57, 127
1, 34655, Note_on_c, 4, 45, 127
1, 34747, Note_off_c, 2, 76, 64
1, 34758, Note_off_c, 1, 80, 64
1, 34768, Note_off_c, 1, 82, 64
1, 34779, Note_off_c, 1, 86, 64
1, 34841, Note_on_c, 2, 73, 127
1, 34855, Note_on_c, 2, 76, 127
1, 34873, Note_on_c, 1, 81, 126
1, 34891, Note_on_c, 1, 85, 126
1, 35048, Note_off_c, 4, 57, 64
1, 35052, Note_on_c, 2, 69, 126
1, 35053, Note_on_c, 4, 62, 127
1, 35096, Note_off_c, 2, 73, 64
1, 35105, Note_off_c, 2, 76, 64
1, 35115, Note_off_c, 1, 81, 64
1, 35126, Note_off_c, 1, 85, 64
1, 35140, Note_on_c, 1, 78, 124
1, 35238, Note_on_c, 2, 77, 125
1, 35247, Note_off_c, 1, 78, 64
1, 35326, Note_on_c, 1, 78, 124
1, 35334, Note_off_c, 2, 77, 64
1, 35414, Note_on_c, 2, 77, 125
1, 35422, Note_off_c, 1, 78, 64
1, 35508, Note_on_c, 1, 78, 124
1, 35516, Note_off_c, 2, 77, 64
1, 35596, Note_on_c, 1, 80, 124
1, 35604, Note_off_c, 1, 78, 64
1, 35684, Note_on_c, 1, 81, 124
1, 35690, Note_off_c, 1, 80, 64
1, 35774, Note_on_c, 2, 72, 125
1, 35775, Note_on_c, 4, 63, 125
1, 35789, Note_off_c, 2, 69, 64
1, 35789, Note_off_c, 4, 62, 64
1, 35855, Note_off_c, 1, 81, 64
1, 35863, Note_on_c, 1, 81, 124
1, 35953, Note_on_c, 1, 80, 124
1, 35961, Note_off_c, 1, 81, 64
1, 36049, Note_on_c, 1, 81, 124
1, 36057, Note_off_c, 1, 80, 64
1, 36135, Note_on_c, 1, 80, 124
1, 36143, Note_off_c, 1, 81, 64
1, 36229, Note_on_c, 1, 81, 124
1, 36237, Note_off_c, 1, 80, 64
1, 36322, Note_on_c, 1, 83, 124
1, 36327, Note_off_c, 1, 81, 64
1, 36410, Note_on_c, 1, 84, 124
1, 36418, Note_off_c, 1, 83, 64
1, 36425, Note_off_c, 4, 45, 64
1, 36498, Note_on_c, 1, 85, 124
1, 36499, Note_on_c, 4, 52, 127
1, 36507, Note_off_c, 1, 84, 64
1, 36515, Note_off_c, 2, 72, 64
1, 36515, Note_off_c, 4, 63, 64
1, 36545, Note_on_c, 1, 88, 125
1, 36546, Note_on_c, 4, 61, 127
1, 36562, Note_off_c, 1, 85, 64
1, 36590, Note_on_c, 1, 85, 124
1, 36591, Note_on_c, 4, 57, 127
1, 36605, Note_off_c, 1, 88, 64
1, 36626, Note_off_c, 4, 61, 64
1, 36634, Note_on_c, 1, 81, 123
1, 36634, Note_on_c, 4, 61, 127
1, 36648, Note_off_c, 1, 85, 64
1, 36649, Note_off_c, 4, 52, 64
1, 36670, Note_off_c, 1, 81, 64
1, 36678, Note_on_c, 4, 52, 127
1, 36678, Note_on_c, 1, 81, 123
1, 36715, Note_off_c, 4, 61, 64
1, 36723, Note_on_c, 1, 85, 119
1, 36723, Note_on_c, 4, 61, 127
1, 36737, Note_off_c, 1, 81, 64
1, 36738, Note_off_c, 4, 57, 64
1, 36771, Note_on_c, 1, 81, 123
1, 36771, Note_on_c, 4, 57, 127
1, 36783, Note_off_c, 1, 85, 64
1, 36807, Note_off_c, 4, 61, 64
1, 36813, Note_on_c, 2, 76, 125
1, 36814, Note_on_c, 4, 61, 127
1, 36826, Note_off_c, 1, 81, 64
1, 36826, Note_off_c, 4, 52, 64
1, 36848, Note_off_c, 2, 76, 64
1, 36854, Note_on_c, 4, 52, 127
1, 36854, Note_on_c, 2, 76, 125
1, 36891, Note_off_c, 4, 61, 64
1, 36897, Note_on_c, 1, 81, 123
1, 36898, Note_on_c, 4, 61, 127
1, 36913, Note_off_c, 2, 76, 64
1, 36913, Note_off_c, 4, 57, 64
1, 36945, Note_on_c, 2, 76, 125
1, 36946, Note_on_c, 4, 57, 127
1, 36959, Note_off_c, 1, 81, 64
1, 36980, Note_off_c, 4, 61, 64
1, 36986, Note_on_c, 2, 73, 125
1, 36987, Note_on_c, 4, 61, 127
1, 37000, Note_off_c, 2, 76, 64
1, 37001, Note_off_c, 4, 52, 64
1, 37022, Note_off_c, 2, 73, 64
1, 37030, Note_on_c, 2, 73, 125
1, 37031, Note_on_c, 4, 52, 127
1, 37070, Note_off_c, 4, 61, 64
1, 37078, Note_on_c, 2, 76, 125
1, 37079, Note_on_c, 4, 61, 127
1, 37093, Note_off_c, 2, 73, 64
1, 37093, Note_off_c, 4, 57, 64
1, 37123, Note_on_c, 4, 57, 127
1, 37123, Note_on_c, 2, 73, 125
1, 37137, Note_off_c, 2, 76, 64
1, 37160, Note_off_c, 4, 61, 64
1, 37168, Note_on_c, 4, 61, 127
1, 37168, Note_on_c, 2, 69, 123
1, 37182, Note_off_c, 2, 73, 64
1, 37183, Note_off_c, 4, 52, 64
1, 37214, Note_on_c, 2, 73, 125
1, 37214, Note_on_c, 4, 52, 127
1, 37238, Note_off_c, 2, 69, 64
1, 37260, Note_on_c, 2, 71, 122
1, 37261, Note_off_c, 4, 61, 64
1, 37271, Note_on_c, 4, 62, 127
1, 37285, Note_off_c, 2, 73, 64
1, 37286, Note_off_c, 4, 57, 64
1, 37308, Note_on_c, 2, 73, 125
1, 37318, Note_on_c, 4, 56, 127
1, 37334, Note_off_c, 2, 71, 64
1, 37350, Note_on_c, 2, 71, 122
1, 37358, Note_off_c, 4, 62, 64
1, 37365, Note_on_c, 4, 62, 127
1, 37367, Note_off_c, 2, 73, 64
1, 37381, Note_off_c, 4, 52, 64
1, 37387, Note_on_c, 2, 73, 125
1, 37414, Note_on_c, 4, 52, 127
1, 37424, Note_off_c, 2, 71, 64
1, 37445, Note_on_c, 2, 71, 124
1, 37453, Note_off_c, 4, 62, 64
1, 37461, Note_on_c, 4, 62, 127
1, 37472, Note_off_c, 2, 73, 64
1, 37476, Note_off_c, 4, 56, 64
1, 37489, Note_on_c, 2, 73, 125
1, 37511, Note_on_c, 4, 56, 127
1, 37534, Note_off_c, 2, 71, 64
1, 37547, Note_on_c, 2, 71, 119
1, 37549, Note_off_c, 4, 62, 64
1, 37557, Note_on_c, 4, 62, 127
1, 37572, Note_off_c, 4, 52, 64
1, 37580, Note_off_c, 2, 73, 64
1, 37601, Note_on_c, 4, 52, 127
1, 37604, Note_on_c, 2, 73, 124
1, 37633, Note_off_c, 2, 71, 64
1, 37639, Note_off_c, 4, 62, 64
1, 37647, Note_on_c, 4, 62, 127
1, 37651, Note_on_c, 2, 71, 119
1, 37660, Note_off_c, 4, 56, 64
1, 37679, Note_off_c, 2, 73, 64
1, 37685, Note_on_c, 4, 56, 127
1, 37699, Note_on_c, 2, 73, 124
1, 37718, Note_off_c, 4, 62, 64
1, 37724, Note_on_c, 4, 62, 127
1, 37733, Note_off_c, 2, 71, 64
1, 37734, Note_off_c, 4, 52, 64
1, 37748, Note_on_c, 2, 71, 119
1, 37758, Note_on_c, 4, 52, 127
1, 37767, Note_off_c, 2, 73, 64
1, 37789, Note_off_c, 4, 62, 64
1, 37795, Note_on_c, 4, 62, 127
1, 37800, Note_on_c, 2, 73, 125
1, 37804, Note_off_c, 2, 71, 64
1, 37806, Note_off_c, 4, 56, 64
1, 37835, Note_on_c, 2, 71, 125
1, 37839, Note_off_c, 2, 73, 64
1, 37839, Note_on_c, 4, 56, 127
1, 37864, Note_off_c, 4, 52, 64
1, 37885, Note_off_c, 4, 62, 64
1, 37893, Note_on_c, 4, 62, 127
1, 37893, Note_on_c, 2, 69, 124
1, 37897, Note_off_c, 2, 71, 64
1, 37919, Note_off_c, 2, 69, 64
1, 37919, Note_on_c, 2, 71, 124
1, 37940, Note_off_c, 4, 56, 64
1, 37944, Note_off_c, 4, 62, 64
1, 37947, Note_off_c, 2, 71, 64
1, 37948, Note_on_c, 4, 57, 127
1, 37948, Note_on_c, 2, 69, 127
1, 38229, Note_on_c, 2, 73, 126
1, 38229, Note_on_c, 4, 61, 127
1, 38243, Note_off_c, 4, 57, 64
1, 38244, Note_off_c, 2, 69, 64
1, 38279, Note_on_c, 2, 69, 123
1, 38279, Note_on_c, 4, 57, 127
1, 38287, Note_off_c, 4, 61, 64
1, 38288, Note_off_c, 2, 73, 64
1, 38323, Note_on_c, 4, 62, 127
1, 38323, Note_on_c, 2, 74, 126
1, 38329, Note_off_c, 4, 57, 64
1, 38330, Note_off_c, 2, 69, 64
1, 38415, Note_off_c, 4, 62, 64
1, 38416, Note_off_c, 2, 74, 64
1, 38416, Note_on_c, 2, 71, 125
1, 38417, Note_on_c, 4, 59, 127
1, 38465, Note_on_c, 2, 68, 123
1, 38465, Note_on_c, 4, 56, 127
1, 38473, Note_off_c, 4, 59, 64
1, 38474, Note_off_c, 2, 71, 64
1, 38507, Note_on_c, 2, 69, 123
1, 38508, Note_on_c, 4, 57, 127
1, 38516, Note_off_c, 4, 56, 64
1, 38516, Note_off_c, 2, 68, 64
1, 38601, Note_off_c, 4, 57, 64
1, 38602, Note_off_c, 2, 69, 64
1, 38602, Note_on_c, 4, 66, 123
1, 38603, Note_on_c, 4, 54, 127
1, 38647, Note_on_c, 4, 63, 125
1, 38648, Note_on_c, 4, 51, 127
1, 38654, Note_off_c, 4, 66, 64
1, 38654, Note_off_c, 4, 54, 64
1, 38695, Note_on_c, 4, 64, 121
1, 38696, Note_on_c, 4, 52, 127
1, 38702, Note_off_c, 4, 51, 64
1, 38702, Note_off_c, 4, 63, 64
1, 38872, Note_off_c, 4, 52, 64
1, 38872, Note_off_c, 4, 64, 64
1, 38880, Note_on_c, 1, 80, 126
1, 38881, Note_on_c, 2, 74, 127
1, 38881, Note_on_c, 2, 71, 127
1, 38882, Note_on_c, 4, 52, 127
1, 38882, Note_on_c, 4, 40, 127
1, 39067, Note_off_c, 4, 40, 64
1, 39067, Note_off_c, 4, 52, 64
1, 39068, Note_off_c, 2, 71, 64
1, 39068, Note_off_c, 2, 74, 64
1, 39069, Note_off_c, 1, 80, 64
1, 39075, Note_on_c, 4, 45, 127
1, 39075, Note_on_c, 2, 69, 126
1, 39076, Note_on_c, 4, 33, 127
1, 39086, Note_on_c, 2, 73, 127
1, 39097, Note_on_c, 2, 76, 127
1, 39109, Note_on_c, 1, 81, 126
1, 39338, Note_off_c, 2, 69, 64
1, 39347, Note_off_c, 2, 73, 64
1, 39357, Note_off_c, 2, 76, 64
1, 39365, Note_off_c, 1, 81, 64
1, 39473, Note_off_c, 4, 33, 64
1, 39474, Note_off_c, 4, 45, 64
1, 39474, Note_on_c, 4, 62, 127
1, 39475, Note_on_c, 4, 38, 127
1, 39475, Note_on_c, 4, 50, 127
1, 39484, Note_on_c, 4, 66, 127
1, 39500, Note_on_c, 2, 69, 127
1, 39512, Note_on_c, 2, 74, 127
1, 39771, Note_off_c, 4, 50, 64
1, 39802, Note_off_c, 4, 62, 64
1, 39811, Note_off_c, 4, 66, 64
1, 39820, Note_off_c, 2, 69, 64
1, 39832, Note_off_c, 2, 74, 64
1, 39846, Note_on_c, 2, 67, 126
1, 39846, Note_on_c, 4, 55, 127
1, 39891, Note_on_c, 4, 66, 126
1, 39891, Note_on_c, 4, 54, 127
1, 39896, Note_off_c, 4, 55, 64
1, 39896, Note_off_c, 2, 67, 64
1, 39935, Note_on_c, 4, 64, 127
1, 39936, Note_on_c, 4, 52, 127
1, 39939, Note_off_c, 4, 54, 64
1, 39940, Note_off_c, 4, 66, 64
1, 39981, Note_on_c, 4, 62, 127
1, 39982, Note_on_c, 4, 50, 127
1, 39985, Note_off_c, 4, 52, 64
1, 39986, Note_off_c, 4, 64, 64
1, 40027, Note_on_c, 2, 67, 127
1, 40028, Note_on_c, 4, 55, 127
1, 40032, Note_off_c, 4, 50, 64
1, 40032, Note_off_c, 4, 62, 64
1, 40073, Note_on_c, 4, 66, 127
1, 40074, Note_on_c, 4, 54, 127
1, 40078, Note_off_c, 4, 55, 64
1, 40079, Note_off_c, 2, 67, 64
1, 40114, Note_on_c, 4, 64, 127
1, 40114, Note_on_c, 4, 52, 127
1, 40120, Note_off_c, 4, 66, 64
1, 40120, Note_off_c, 4, 54, 64
1, 40162, Note_on_c, 4, 62, 127
1, 40162, Note_on_c, 4, 50, 127
1, 40166, Note_off_c, 4, 52, 64
1, 40167, Note_off_c, 4, 64, 64
1, 40210, Note_on_c, 4, 57, 127
1, 40210, Note_on_c, 2, 69, 126
1, 40214, Note_off_c, 4, 50, 64
1, 40215, Note_off_c, 4, 62, 64
1, 40386, Note_off_c, 4, 57, 64
1, 40387, Note_off_c, 2, 69, 64
1, 40393, Note_on_c, 4, 66, 126
1, 40394, Note_on_c, 4, 54, 127
1, 40569, Note_off_c, 4, 66, 64
1, 40569, Note_off_c, 4, 54, 64
1, 40577, Note_on_c, 2, 71, 127
1, 40578, Note_on_c, 4, 59, 127
1, 40822, Note_off_c, 4, 59, 64
1, 40823, Note_off_c, 2, 71, 64
1, 40852, Note_on_c, 4, 66, 126
1, 40852, Note_on_c, 4, 54, 127
1, 40946, Note_off_c, 4, 54, 64
1, 40946, Note_off_c, 4, 66, 64
1, 40947, Note_on_c, 2, 67, 126
1, 40947, Note_on_c, 4, 55, 127
1, 41040, Note_off_c, 4, 55, 64
1, 41040, Note_off_c, 2, 67, 64
1, 41041, Note_on_c, 4, 64, 124
1, 41041, Note_on_c, 4, 52, 127
1, 41132, Note_off_c, 4, 52, 64
1, 41133, Note_off_c, 4, 64, 64
1, 41133, Note_on_c, 2, 69, 126
1, 41134, Note_on_c, 4, 57, 127
1, 41222, Note_off_c, 4, 57, 64
1, 41223, Note_off_c, 2, 69, 64
1, 41223, Note_on_c, 4, 66, 126
1, 41224, Note_on_c, 4, 54, 127
1, 41311, Note_off_c, 4, 66, 64
1, 41311, Note_off_c, 4, 54, 64
1, 41312, Note_on_c, 4, 62, 127
1, 41312, Note_on_c, 4, 50, 127
1, 41388, Note_off_c, 4, 38, 64
1, 41405, Note_off_c, 4, 50, 64
1, 41405, Note_off_c, 4, 62, 64
1, 41406, Note_on_c, 4, 59, 127
1, 41406, Note_on_c, 4, 47, 127
1, 41497, Note_off_c, 4, 47, 64
1, 41497, Note_off_c, 4, 59, 64
1, 41498, Note_on_c, 4, 52, 127
1, 41498, Note_on_c, 4, 64, 124
1, 41587, Note_off_c, 4, 52, 64
1, 41588, Note_off_c, 4, 64, 64
1, 41588, Note_on_c, 4, 61, 127
1, 41589, Note_on_c, 4, 49, 127
1, 41683, Note_off_c, 4, 49, 64
1, 41684, Note_off_c, 4, 61, 64
1, 41684, Note_on_c, 4, 57, 127
1, 41685, Note_on_c, 4, 45, 127
1, 41753, Note_off_c, 4, 57, 64
1, 41776, Note_on_c, 4, 57, 127
1, 41837, Note_off_c, 4, 45, 64
1, 41868, Note_on_c, 4, 45, 127
1, 41931, Note_off_c, 4, 57, 64
1, 41962, Note_on_c, 4, 57, 127
1, 42024, Note_off_c, 4, 45, 64
1, 42054, Note_on_c, 4, 45, 127
1, 42118, Note_off_c, 4, 57, 64
1, 42148, Note_on_c, 2, 74, 125
1, 42148, Note_on_c, 4, 66, 126
1, 42149, Note_on_c, 4, 57, 127
1, 42207, Note_off_c, 4, 45, 64
1, 42222, Note_off_c, 4, 66, 64
1, 42223, Note_off_c, 2, 74, 64
1, 42237, Note_on_c, 4, 66, 126
1, 42237, Note_on_c, 2, 74, 125
1, 42238, Note_on_c, 4, 45, 127
1, 42295, Note_off_c, 4, 57, 64
1, 42318, Note_off_c, 4, 66, 64
1, 42319, Note_off_c, 2, 74, 64
1, 42325, Note_on_c, 2, 74, 125
1, 42325, Note_on_c, 4, 66, 126
1, 42326, Note_on_c, 4, 57, 127
1, 42384, Note_off_c, 4, 45, 64
1, 42407, Note_off_c, 4, 66, 64
1, 42407, Note_off_c, 2, 74, 64
1, 42413, Note_on_c, 2, 74, 125
1, 42414, Note_on_c, 4, 45, 127
1, 42414, Note_on_c, 4, 66, 126
1, 42472, Note_off_c, 4, 57, 64
1, 42487, Note_off_c, 4, 66, 64
1, 42488, Note_off_c, 2, 74, 64
1, 42502, Note_on_c, 2, 73, 125
1, 42502, Note_on_c, 4, 64, 124
1, 42503, Note_on_c, 4, 57, 127
1, 42564, Note_off_c, 4, 45, 64
1, 42579, Note_off_c, 4, 64, 64
1, 42580, Note_off_c, 2, 73, 64
1, 42596, Note_on_c, 4, 64, 124
1, 42596, Note_on_c, 2, 73, 125
1, 42597, Note_on_c, 4, 45, 127
1, 42656, Note_off_c, 4, 57, 64
1, 42687, Note_on_c, 4, 57, 127
1, 42748, Note_off_c, 4, 45, 64
1, 42779, Note_on_c, 4, 45, 127
1, 42840, Note_off_c, 4, 57, 64
1, 42841, Note_off_c, 2, 73, 64
1, 42841, Note_off_c, 4, 64, 64
1, 42868, Note_on_c, 1, 78, 122
1, 42869, Note_on_c, 4, 57, 127
1, 42869, Note_on_c, 2, 74, 125
1, 42929, Note_off_c, 4, 45, 64
1, 42944, Note_off_c, 2, 74, 64
1, 42945, Note_off_c, 1, 78, 64
1, 42959, Note_on_c, 2, 74, 125
1, 42959, Note_on_c, 1, 78, 122
1, 42960, Note_on_c, 4, 45, 127
1, 43017, Note_off_c, 4, 57, 64
1, 43040, Note_off_c, 2, 74, 64
1, 43041, Note_off_c, 1, 78, 64
1, 43047, Note_on_c, 1, 78, 122
1, 43047, Note_on_c, 2, 74, 125
1, 43048, Note_on_c, 4, 57, 127
1, 43105, Note_off_c, 4, 45, 64
1, 43128, Note_off_c, 2, 74, 64
1, 43129, Note_off_c, 1, 78, 64
1, 43135, Note_on_c, 1, 78, 122
1, 43136, Note_on_c, 4, 45, 127
1, 43136, Note_on_c, 2, 74, 125
1, 43195, Note_off_c, 4, 57, 64
1, 43208, Note_off_c, 2, 74, 64
1, 43209, Note_off_c, 1, 78, 64
1, 43223, Note_on_c, 2, 76, 125
1, 43223, Note_on_c, 2, 73, 125
1, 43224, Note_on_c, 4, 57, 127
1, 43279, Note_off_c, 4, 45, 64
1, 43295, Note_off_c, 2, 73, 64
1, 43296, Note_off_c, 2, 76, 64
1, 43309, Note_on_c, 2, 73, 125
1, 43309, Note_on_c, 2, 76, 125
1, 43310, Note_on_c, 4, 45, 127
1, 43369, Note_off_c, 4, 57, 64
1, 43398, Note_on_c, 4, 57, 127
1, 43461, Note_off_c, 4, 45, 64
1, 43491, Note_on_c, 4, 45, 127
1, 43553, Note_off_c, 2, 73, 64
1, 43553, Note_off_c, 4, 57, 64
1, 43554, Note_off_c, 2, 76, 64
1, 43583, Note_on_c, 1, 81, 122
1, 43583, Note_on_c, 1, 78, 122
1, 43584, Note_on_c, 4, 57, 127
1, 43643, Note_off_c, 4, 45, 64
1, 43658, Note_off_c, 1, 78, 64
1, 43659, Note_off_c, 1, 81, 64
1, 43675, Note_on_c, 1, 78, 122
1, 43675, Note_on_c, 1, 81, 122
1, 43676, Note_on_c, 4, 45, 127
1, 43733, Note_off_c, 4, 57, 64
1, 43756, Note_off_c, 1, 78, 64
1, 43757, Note_off_c, 1, 81, 64
1, 43765, Note_on_c, 1, 81, 122
1, 43765, Note_on_c, 1, 78, 122
1, 43766, Note_on_c, 4, 57, 127
1, 43826, Note_off_c, 4, 45, 64
1, 43850, Note_off_c, 1, 78, 64
1, 43851, Note_off_c, 1, 81, 64
1, 43856, Note_on_c, 1, 79, 122
1, 43858, Note_on_c, 4, 45, 127
1, 43900, Note_on_c, 1, 78, 122
1, 43908, Note_off_c, 1, 79, 64
1, 43949, Note_on_c, 1, 79, 122
1, 43950, Note_off_c, 1, 78, 64
1, 43989, Note_on_c, 1, 81, 122
1, 43996, Note_off_c, 1, 79, 64
1, 44031, Note_on_c, 1, 83, 122
1, 44037, Note_off_c, 1, 81, 64
1, 44073, Note_on_c, 1, 81, 122
1, 44079, Note_off_c, 1, 83, 64
1, 44112, Note_on_c, 1, 79, 122
1, 44121, Note_off_c, 1, 81, 64
1, 44153, Note_on_c, 1, 78, 122
1, 44160, Note_off_c, 1, 79, 64
1, 44194, Note_on_c, 2, 76, 125
1, 44203, Note_off_c, 1, 78, 64
1, 44240, Note_on_c, 2, 75, 125
1, 44245, Note_off_c, 2, 76, 64
1, 44286, Note_on_c, 2, 76, 125
1, 44290, Note_off_c, 2, 75, 64
1, 44322, Note_on_c, 1, 78, 122
1, 44334, Note_off_c, 2, 76, 64
1, 44362, Note_on_c, 1, 79, 122
1, 44368, Note_off_c, 1, 78, 64
1, 44405, Note_on_c, 1, 78, 122
1, 44409, Note_off_c, 1, 79, 64
1, 44445, Note_on_c, 2, 76, 125
1, 44451, Note_off_c, 1, 78, 64
1, 44487, Note_on_c, 2, 74, 125
1, 44493, Note_off_c, 2, 76, 64
1, 44530, Note_on_c, 2, 73, 125
1, 44530, Note_on_c, 4, 61, 127
1, 44538, Note_off_c, 2, 74, 64
1, 44546, Note_off_c, 4, 57, 64
1, 44575, Note_on_c, 2, 71, 124
1, 44575, Note_on_c, 4, 59, 127
1, 44583, Note_off_c, 4, 61, 64
1, 44584, Note_off_c, 2, 73, 64
1, 44619, Note_on_c, 4, 61, 127
1, 44619, Note_on_c, 2, 73, 125
1, 44626, Note_off_c, 4, 59, 64
1, 44626, Note_off_c, 2, 71, 64
1, 44661, Note_on_c, 2, 74, 125
1, 44662, Note_on_c, 4, 62, 127
1, 44668, Note_off_c, 2, 73, 64
1, 44668, Note_off_c, 4, 61, 64
1, 44703, Note_on_c, 2, 76, 125
1, 44704, Note_on_c, 4, 64, 124
1, 44708, Note_off_c, 4, 62, 64
1, 44709, Note_off_c, 2, 74, 64
1, 44746, Note_on_c, 2, 74, 125
1, 44746, Note_on_c, 4, 62, 127
1, 44752, Note_off_c, 4, 64, 64
1, 44753, Note_off_c, 2, 76, 64
1, 44784, Note_on_c, 2, 73, 125
1, 44784, Note_on_c, 4, 61, 127
1, 44791, Note_off_c, 4, 62, 64
1, 44791, Note_off_c, 2, 74, 64
1, 44826, Note_on_c, 2, 71, 124
1, 44827, Note_on_c, 4, 59, 127
1, 44833, Note_off_c, 4, 61, 64
1, 44833, Note_off_c, 2, 73, 64
1, 44870, Note_on_c, 2, 69, 122
1, 44871, Note_on_c, 4, 57, 127
1, 44877, Note_off_c, 4, 59, 64
1, 44878, Note_off_c, 2, 71, 64
1, 44915, Note_on_c, 2, 68, 126
1, 44915, Note_on_c, 4, 56, 127
1, 44921, Note_off_c, 4, 57, 64
1, 44922, Note_off_c, 2, 69, 64
1, 44959, Note_on_c, 2, 69, 122
1, 44959, Note_on_c, 4, 57, 127
1, 44965, Note_off_c, 4, 56, 64
1, 44966, Note_off_c, 2, 68, 64
1, 45003, Note_on_c, 2, 71, 124
1, 45003, Note_on_c, 4, 59, 127
1, 45008, Note_off_c, 4, 57, 64
1, 45008, Note_off_c, 2, 69, 64
1, 45045, Note_on_c, 2, 69, 122
1, 45046, Note_on_c, 4, 57, 127
1, 45054, Note_off_c, 4, 59, 64
1, 45054, Note_off_c, 2, 71, 64
1, 45085, Note_on_c, 2, 67, 126
1, 45086, Note_on_c, 4, 55, 127
1, 45092, Note_off_c, 4, 57, 64
1, 45093, Note_off_c, 2, 69, 64
1, 45130, Note_on_c, 4, 66, 126
1, 45130, Note_on_c, 4, 54, 127
1, 45136, Note_off_c, 4, 55, 64
1, 45137, Note_off_c, 2, 67, 64
1, 45174, Note_on_c, 4, 64, 124
1, 45174, Note_on_c, 4, 52, 127
1, 45182, Note_off_c, 4, 54, 64
1, 45183, Note_off_c, 4, 66, 64
1, 45204, Note_off_c, 4, 45, 64
1, 45220, Note_on_c, 4, 62, 127
1, 45221, Note_on_c, 4, 38, 110
1, 45221, Note_on_c, 4, 50, 127
1, 45229, Note_off_c, 4, 52, 64
1, 45230, Note_off_c, 4, 64, 64
1, 45303, Note_off_c, 4, 50, 64
1, 45313, Note_on_c, 4, 50, 127
1, 45399, Note_off_c, 4, 50, 64
1, 45407, Note_on_c, 4, 50, 127
1, 45492, Note_off_c, 4, 50, 64
1, 45499, Note_on_c, 4, 50, 127
1, 45585, Note_off_c, 4, 50, 64
1, 45585, Note_off_c, 4, 62, 64
1, 45593, Note_on_c, 4, 64, 124
1, 45594, Note_on_c, 4, 50, 127
1, 45594, Note_on_c, 4, 61, 127
1, 45677, Note_off_c, 4, 50, 64
1, 45684, Note_on_c, 4, 50, 127
1, 45771, Note_off_c, 4, 50, 64
1, 45771, Note_off_c, 4, 61, 64
1, 45772, Note_off_c, 4, 64, 64
1, 45778, Note_on_c, 4, 60, 127
1, 45778, Note_on_c, 4, 66, 126
1, 45779, Note_on_c, 4, 50, 127
1, 45863, Note_off_c, 4, 50, 64
1, 45871, Note_on_c, 4, 50, 127
1, 45957, Note_off_c, 4, 50, 64
1, 45958, Note_off_c, 4, 66, 64
1, 45958, Note_off_c, 4, 60, 64
1, 45964, Note_on_c, 4, 59, 127
1, 45964, Note_on_c, 2, 67, 126
1, 45965, Note_on_c, 4, 50, 127
1, 46049, Note_off_c, 4, 50, 64
1, 46057, Note_on_c, 4, 50, 127
1, 46102, Note_off_c, 2, 67, 64
1, 46103, Note_on_c, 2, 69, 126
1, 46126, Note_off_c, 2, 69, 64
1, 46127, Note_on_c, 2, 71, 127
1, 46148, Note_off_c, 4, 50, 64
1, 46149, Note_off_c, 4, 59, 64
1, 46159, Note_off_c, 2, 71, 64
1, 46159, Note_on_c, 2, 69, 126
1, 46160, Note_on_c, 4, 61, 127
1, 46160, Note_on_c, 4, 50, 127
1, 46245, Note_off_c, 4, 50, 64
1, 46253, Note_off_c, 2, 69, 64
1, 46253, Note_on_c, 2, 67, 126
1, 46254, Note_on_c, 4, 50, 127
1, 46340, Note_off_c, 4, 50, 64
1, 46341, Note_off_c, 4, 61, 64
1, 46347, Note_off_c, 2, 67, 64
1, 46347, Note_on_c, 4, 66, 126
1, 46348, Note_on_c, 4, 62, 127
1, 46348, Note_on_c, 4, 50, 127
1, 46435, Note_off_c, 4, 50, 64
1, 46443, Note_on_c, 4, 50, 127
1, 46530, Note_off_c, 4, 50, 64
1, 46537, Note_on_c, 4, 50, 127
1, 46622, Note_off_c, 4, 50, 64
1, 46630, Note_off_c, 4, 38, 64
1, 46630, Note_on_c, 4, 50, 127
1, 46715, Note_off_c, 4, 50, 64
1, 46716, Note_off_c, 4, 66, 64
1, 46716, Note_off_c, 4, 62, 64
1, 46722, Note_on_c, 4, 62, 127
1, 46722, Note_on_c, 4, 66, 126
1, 46723, Note_on_c, 4, 38, 127
1, 46723, Note_on_c, 4, 50, 127
1, 46810, Note_off_c, 4, 50, 64
1, 46818, Note_on_c, 4, 50, 127
1, 46904, Note_off_c, 4, 50, 64
1, 46911, Note_on_c, 4, 50, 127
1, 47000, Note_off_c, 4, 50, 64
1, 47008, Note_on_c, 4, 50, 127
1, 47096, Note_off_c, 4, 50, 64
1, 47097, Note_off_c, 4, 66, 64
1, 47097, Note_off_c, 4, 62, 64
1, 47103, Note_on_c, 2, 67, 126
1, 47103, Note_on_c, 4, 50, 127
1, 47109, Note_on_c, 4, 64, 124
1, 47190, Note_off_c, 4, 50, 64
1, 47198, Note_on_c, 4, 50, 127
1, 47285, Note_off_c, 4, 50, 64
1, 47286, Note_off_c, 2, 67, 64
1, 47292, Note_off_c, 4, 64, 64
1, 47294, Note_on_c, 2, 69, 126
1, 47294, Note_on_c, 4, 66, 126
1, 47295, Note_on_c, 4, 50, 127
1, 47379, Note_off_c, 4, 50, 64
1, 47387, Note_on_c, 4, 50, 127
1, 47473, Note_off_c, 4, 50, 64
1, 47474, Note_off_c, 4, 66, 64
1, 47474, Note_off_c, 2, 69, 64
1, 47482, Note_on_c, 2, 71, 127
1, 47483, Note_on_c, 2, 67, 126
1, 47483, Note_on_c, 4, 50, 127
1, 47566, Note_off_c, 4, 50, 64
1, 47573, Note_on_c, 4, 50, 127
1, 47620, Note_off_c, 2, 71, 64
1, 47620, Note_on_c, 2, 73, 127
1, 47647, Note_off_c, 2, 73, 64
1, 47648, Note_on_c, 2, 74, 127
1, 47669, Note_off_c, 4, 50, 64
1, 47679, Note_off_c, 2, 74, 64
1, 47679, Note_on_c, 2, 73, 127
1, 47680, Note_on_c, 4, 50, 127
1, 47764, Note_off_c, 4, 50, 64
1, 47772, Note_off_c, 2, 73, 64
1, 47772, Note_on_c, 2, 71, 127
1, 47773, Note_on_c, 4, 50, 127
1, 47859, Note_off_c, 4, 50, 64
1, 47860, Note_off_c, 2, 67, 64
1, 47868, Note_off_c, 2, 71, 64
1, 47868, Note_on_c, 2, 69, 126
1, 47869, Note_on_c, 4, 66, 126
1, 47869, Note_on_c, 4, 50, 127
1, 47954, Note_off_c, 4, 50, 64
1, 47963, Note_on_c, 4, 50, 127
1, 48049, Note_off_c, 4, 50, 64
1, 48059, Note_on_c, 4, 50, 127
1, 48145, Note_off_c, 4, 50, 64
1, 48153, Note_off_c, 4, 38, 64
1, 48154, Note_on_c, 4, 50, 127
1, 48154, Note_on_c, 1, 78, 123
1, 48248, Note_off_c, 4, 50, 64
1, 48249, Note_off_c, 2, 69, 64
1, 48249, Note_off_c, 4, 66, 64
1, 48250, Note_on_c, 2, 76, 126
1, 48250, Note_on_c, 4, 55, 127
1, 48251, Note_on_c, 4, 43, 127
1, 48257, Note_off_c, 1, 78, 64
1, 48297, Note_on_c, 1, 86, 123
1, 48341, Note_off_c, 2, 76, 64
1, 48345, Note_on_c, 2, 76, 126
1, 48389, Note_off_c, 1, 86, 64
1, 48391, Note_on_c, 1, 86, 123
1, 48438, Note_off_c, 2, 76, 64
1, 48439, Note_on_c, 2, 76, 126
1, 48440, Note_on_c, 4, 50, 127
1, 48440, Note_on_c, 4, 62, 127
1, 48448, Note_off_c, 4, 43, 64
1, 48448, Note_off_c, 4, 55, 64
1, 48485, Note_off_c, 1, 86, 64
1, 48487, Note_on_c, 1, 86, 123
1, 48533, Note_off_c, 2, 76, 64
1, 48535, Note_on_c, 2, 76, 126
1, 48581, Note_off_c, 1, 86, 64
1, 48583, Note_on_c, 1, 86, 123
1, 48627, Note_off_c, 2, 76, 64
1, 48629, Note_on_c, 2, 76, 126
1, 48630, Note_on_c, 4, 47, 127
1, 48630, Note_on_c, 4, 59, 127
1, 48638, Note_off_c, 4, 62, 64
1, 48638, Note_off_c, 4, 50, 64
1, 48675, Note_off_c, 1, 86, 64
1, 48677, Note_on_c, 1, 86, 123
1, 48721, Note_off_c, 2, 76, 64
1, 48723, Note_on_c, 2, 76, 126
1, 48768, Note_off_c, 1, 86, 64
1, 48772, Note_on_c, 1, 86, 123
1, 48816, Note_off_c, 2, 76, 64
1, 48818, Note_on_c, 4, 43, 127
1, 48818, Note_on_c, 4, 55, 127
1, 48818, Note_on_c, 2, 76, 126
1, 48827, Note_off_c, 4, 59, 64
1, 48827, Note_off_c, 4, 47, 64
1, 48864, Note_off_c, 1, 86, 64
1, 48866, Note_on_c, 1, 86, 123
1, 48912, Note_off_c, 2, 76, 64
1, 48913, Note_on_c, 2, 76, 126
1, 48960, Note_off_c, 1, 86, 64
1, 48961, Note_on_c, 1, 86, 123
1, 49006, Note_off_c, 2, 76, 64
1, 49010, Note_on_c, 4, 45, 127
1, 49010, Note_on_c, 4, 57, 127
1, 49010, Note_on_c, 1, 78, 123
1, 49017, Note_off_c, 4, 55, 64
1, 49017, Note_off_c, 4, 43, 64
1, 49054, Note_off_c, 1, 86, 64
1, 49056, Note_on_c, 1, 86, 123
1, 49102, Note_off_c, 1, 78, 64
1, 49104, Note_on_c, 1, 78, 123
1, 49150, Note_off_c, 1, 86, 64
1, 49152, Note_on_c, 1, 86, 123
1, 49198, Note_off_c, 1, 78, 64
1, 49200, Note_on_c, 1, 78, 123
1, 49200, Note_on_c, 4, 62, 127
1, 49201, Note_on_c, 4, 50, 127
1, 49209, Note_off_c, 4, 57, 64
1, 49209, Note_off_c, 4, 45, 64
1, 49246, Note_off_c, 1, 86, 64
1, 49248, Note_on_c, 1, 86, 123
1, 49292, Note_off_c, 1, 78, 64
1, 49296, Note_on_c, 1, 78, 123
1, 49340, Note_off_c, 1, 86, 64
1, 49342, Note_on_c, 1, 86, 123
1, 49388, Note_off_c, 1, 78, 64
1, 49390, Note_on_c, 1, 78, 123
1, 49391, Note_on_c, 4, 48, 127
1, 49391, Note_on_c, 4, 60, 127
1, 49399, Note_off_c, 4, 50, 64
1, 49399, Note_off_c, 4, 62, 64
1, 49434, Note_off_c, 1, 86, 64
1, 49436, Note_on_c, 1, 86, 123
1, 49480, Note_off_c, 1, 78, 64
1, 49482, Note_on_c, 1, 78, 123
1, 49526, Note_off_c, 1, 86, 64
1, 49528, Note_on_c, 1, 86, 123
1, 49572, Note_off_c, 1, 78, 64
1, 49576, Note_on_c, 1, 78, 123
1, 49577, Note_on_c, 4, 45, 127
1, 49577, Note_on_c, 4, 57, 127
1, 49583, Note_off_c, 4, 48, 64
1, 49584, Note_off_c, 4, 60, 64
1, 49620, Note_off_c, 1, 86, 64
1, 49622, Note_on_c, 1, 86, 123
1, 49668, Note_off_c, 1, 78, 64
1, 49670, Note_on_c, 1, 78, 123
1, 49716, Note_off_c, 1, 86, 64
1, 49718, Note_on_c, 1, 86, 123
1, 49764, Note_off_c, 1, 78, 64
1, 49766, Note_on_c, 1, 79, 123
1, 49767, Note_on_c, 4, 47, 127
1, 49767, Note_on_c, 4, 59, 127
1, 49775, Note_off_c, 4, 45, 64
1, 49776, Note_off_c, 4, 57, 64
1, 49811, Note_off_c, 1, 86, 64
1, 49812, Note_on_c, 1, 86, 123
1, 49857, Note_off_c, 1, 79, 64
1, 49860, Note_on_c, 1, 79, 123
1, 49905, Note_off_c, 1, 86, 64
1, 49907, Note_on_c, 1, 86, 123
1, 49951, Note_off_c, 1, 79, 64
1, 49953, Note_on_c, 1, 79, 123
1, 49953, Note_on_c, 2, 67, 126
1, 49954, Note_on_c, 4, 55, 127
1, 49960, Note_off_c, 4, 47, 64
1, 49961, Note_off_c, 4, 59, 64
1, 49998, Note_off_c, 1, 86, 64
1, 50000, Note_on_c, 1, 86, 123
1, 50044, Note_off_c, 1, 79, 64
1, 50046, Note_on_c, 1, 79, 123
1, 50092, Note_off_c, 1, 86, 64
1, 50094, Note_on_c, 1, 86, 123
1, 50138, Note_off_c, 1, 79, 64
1, 50140, Note_on_c, 4, 62, 127
1, 50140, Note_on_c, 1, 79, 123
1, 50141, Note_on_c, 4, 50, 127
1, 50148, Note_off_c, 4, 55, 64
1, 50149, Note_off_c, 2, 67, 64
1, 50184, Note_off_c, 1, 86, 64
1, 50186, Note_on_c, 1, 86, 123
1, 50230, Note_off_c, 1, 79, 64
1, 50232, Note_on_c, 1, 79, 123
1, 50276, Note_off_c, 1, 86, 64
1, 50278, Note_on_c, 1, 86, 123
1, 50322, Note_off_c, 1, 79, 64
1, 50324, Note_on_c, 1, 79, 123
1, 50325, Note_on_c, 4, 47, 127
1, 50325, Note_on_c, 4, 59, 127
1, 50331, Note_off_c, 4, 62, 64
1, 50331, Note_off_c, 4, 50, 64
1, 50368, Note_off_c, 1, 86, 64
1, 50370, Note_on_c, 1, 86, 123
1, 50414, Note_off_c, 1, 79, 64
1, 50418, Note_on_c, 1, 79, 123
1, 50462, Note_off_c, 1, 86, 64
1, 50464, Note_on_c, 1, 86, 123
1, 50508, Note_off_c, 1, 79, 64
1, 50510, Note_on_c, 1, 80, 123
1, 50511, Note_on_c, 4, 58, 126
1, 50511, Note_on_c, 2, 74, 127
1, 50512, Note_on_c, 4, 46, 127
1, 50518, Note_off_c, 4, 47, 64
1, 50519, Note_off_c, 4, 59, 64
1, 50556, Note_off_c, 1, 86, 64
1, 50556, Note_on_c, 1, 86, 123
1, 50600, Note_off_c, 2, 74, 64
1, 50601, Note_off_c, 1, 80, 64
1, 50604, Note_on_c, 2, 74, 127
1, 50604, Note_on_c, 1, 80, 123
1, 50647, Note_off_c, 1, 86, 64
1, 50651, Note_on_c, 1, 86, 123
1, 50695, Note_off_c, 1, 80, 64
1, 50695, Note_off_c, 2, 74, 64
1, 50698, Note_on_c, 1, 80, 123
1, 50698, Note_on_c, 2, 74, 127
1, 50699, Note_on_c, 4, 53, 127
1, 50699, Note_on_c, 4, 65, 126
1, 50706, Note_off_c, 4, 58, 64
1, 50706, Note_off_c, 4, 46, 64
1, 50743, Note_off_c, 1, 86, 64
1, 50745, Note_on_c, 1, 86, 123
1, 50791, Note_off_c, 2, 74, 64
1, 50791, Note_off_c, 1, 80, 64
1, 50792, Note_on_c, 2, 74, 127
1, 50792, Note_on_c, 1, 80, 123
1, 50837, Note_off_c, 1, 86, 64
1, 50839, Note_on_c, 1, 86, 123
1, 50883, Note_off_c, 1, 80, 64
1, 50883, Note_off_c, 2, 74, 64
1, 50886, Note_on_c, 1, 80, 123
1, 50886, Note_on_c, 2, 74, 127
1, 50887, Note_on_c, 4, 62, 127
1, 50887, Note_on_c, 4, 50, 127
1, 50893, Note_off_c, 4, 53, 64
1, 50894, Note_off_c, 4, 65, 64
1, 50931, Note_off_c, 1, 86, 64
1, 50933, Note_on_c, 1, 86, 123
1, 50979, Note_off_c, 2, 74, 64
1, 50979, Note_off_c, 1, 80, 64
1, 50980, Note_on_c, 1, 80, 123
1, 50980, Note_on_c, 2, 74, 127
1, 51025, Note_off_c, 1, 86, 64
1, 51027, Note_on_c, 1, 86, 123
1, 51073, Note_off_c, 2, 74, 64
1, 51073, Note_off_c, 1, 80, 64
1, 51074, Note_on_c, 1, 80, 123
1, 51075, Note_on_c, 4, 58, 126
1, 51075, Note_on_c, 2, 74, 127
1, 51076, Note_on_c, 4, 46, 127
1, 51084, Note_off_c, 4, 50, 64
1, 51084, Note_off_c, 4, 62, 64
1, 51121, Note_off_c, 1, 86, 64
1, 51125, Note_on_c, 1, 86, 123
1, 51169, Note_off_c, 1, 80, 64
1, 51169, Note_off_c, 2, 74, 64
1, 51172, Note_on_c, 1, 80, 120
1, 51172, Note_on_c, 2, 74, 126
1, 51217, Note_off_c, 1, 86, 64
1, 51219, Note_on_c, 1, 86, 116
1, 51260, Note_off_c, 4, 58, 64
1, 51261, Note_off_c, 1, 86, 64
1, 51262, Note_off_c, 2, 74, 64
1, 51262, Note_off_c, 1, 80, 64
1, 51269, Note_on_c, 4, 57, 127
1, 51286, Note_on_c, 2, 76, 123
1, 51290, Note_off_c, 4, 46, 64
1, 51296, Note_on_c, 1, 81, 122
1, 51308, Note_on_c, 1, 85, 122
1, 51325, Note_on_c, 2, 69, 126
1, 51371, Note_on_c, 2, 68, 126
1, 51379, Note_off_c, 2, 69, 64
1, 51417, Note_on_c, 2, 69, 126
1, 51424, Note_off_c, 2, 68, 64
1, 51462, Note_on_c, 2, 71, 125
1, 51468, Note_off_c, 2, 69, 64
1, 51506, Note_on_c, 2, 69, 126
1, 51514, Note_off_c, 2, 71, 64
1, 51531, Note_off_c, 2, 76, 64
1, 51540, Note_off_c, 1, 81, 64
1, 51549, Note_off_c, 1, 85, 64
1, 51549, Note_on_c, 1, 81, 113
1, 51550, Note_on_c, 4, 66, 126
1, 51592, Note_off_c, 2, 69, 64
1, 51593, Note_on_c, 2, 69, 126
1, 51639, Note_on_c, 1, 79, 109
1, 51639, Note_on_c, 4, 64, 124
1, 51644, Note_off_c, 1, 81, 64
1, 51644, Note_off_c, 4, 66, 64
1, 51678, Note_off_c, 2, 69, 64
1, 51680, Note_on_c, 2, 69, 126
1, 51722, Note_on_c, 1, 78, 109
1, 51723, Note_on_c, 4, 62, 127
1, 51729, Note_off_c, 4, 64, 64
1, 51730, Note_off_c, 1, 79, 64
1, 51765, Note_off_c, 2, 69, 64
1, 51765, Note_on_c, 2, 69, 126
1, 51809, Note_on_c, 4, 61, 127
1, 51809, Note_on_c, 2, 76, 112
1, 51816, Note_off_c, 4, 62, 64
1, 51816, Note_off_c, 1, 78, 64
1, 51849, Note_off_c, 2, 69, 64
1, 51851, Note_on_c, 2, 69, 126
1, 51893, Note_on_c, 2, 74, 112
1, 51894, Note_on_c, 4, 59, 127
1, 51902, Note_off_c, 2, 76, 64
1, 51902, Note_off_c, 4, 61, 64
1, 51936, Note_off_c, 2, 69, 64
1, 51937, Note_on_c, 2, 69, 126
1, 51941, Note_off_c, 4, 57, 64
1, 51984, Note_on_c, 2, 73, 112
1, 51984, Note_on_c, 4, 57, 127
1, 51992, Note_off_c, 4, 59, 64
1, 51993, Note_off_c, 2, 74, 64
1, 52026, Note_off_c, 2, 69, 64
1, 52028, Note_on_c, 2, 69, 126
1, 52070, Note_on_c, 4, 59, 127
1, 52070, Note_on_c, 2, 74, 112
1, 52077, Note_off_c, 4, 57, 64
1, 52077, Note_off_c, 2, 73, 64
1, 52111, Note_off_c, 2, 69, 64
1, 52113, Note_on_c, 2, 69, 126
1, 52157, Note_on_c, 2, 76, 112
1, 52158, Note_on_c, 4, 61, 127
1, 52166, Note_off_c, 2, 74, 64
1, 52166, Note_off_c, 4, 59, 64
1, 52200, Note_off_c, 2, 69, 64
1, 52200, Note_on_c, 2, 69, 126
1, 52244, Note_on_c, 4, 62, 127
1, 52244, Note_on_c, 1, 78, 109
1, 52250, Note_off_c, 4, 61, 64
1, 52251, Note_off_c, 2, 76, 64
1, 52286, Note_off_c, 2, 69, 64
1, 52286, Note_on_c, 2, 69, 126
1, 52330, Note_on_c, 1, 81, 109
1, 52331, Note_on_c, 4, 64, 124
1, 52339, Note_off_c, 1, 78, 64
1, 52339, Note_off_c, 4, 62, 64
1, 52372, Note_off_c, 2, 69, 64
1, 52374, Note_on_c, 1, 79, 109
1, 52375, Note_on_c, 2, 69, 126
1, 52381, Note_off_c, 1, 81, 64
1, 52414, Note_on_c, 1, 78, 109
1, 52414, Note_on_c, 4, 61, 127
1, 52420, Note_off_c, 1, 79, 64
1, 52421, Note_off_c, 4, 64, 64
1, 52452, Note_off_c, 2, 69, 64
1, 52454, Note_on_c, 2, 76, 112
1, 52454, Note_on_c, 2, 69, 126
1, 52461, Note_off_c, 1, 78, 64
1, 52497, Note_on_c, 1, 79, 109
1, 52498, Note_on_c, 4, 62, 127
1, 52504, Note_off_c, 2, 76, 64
1, 52504, Note_off_c, 4, 61, 64
1, 52537, Note_off_c, 2, 69, 64
1, 52539, Note_on_c, 1, 78, 109
1, 52540, Note_on_c, 2, 69, 126
1, 52546, Note_off_c, 1, 79, 64
1, 52581, Note_on_c, 2, 76, 116
1, 52581, Note_on_c, 4, 59, 127
1, 52587, Note_off_c, 1, 78, 64
1, 52588, Note_off_c, 4, 62, 64
1, 52619, Note_off_c, 2, 69, 64
1, 52623, Note_on_c, 2, 74, 116
1, 52623, Note_on_c, 2, 69, 126
1, 52630, Note_off_c, 2, 76, 64
1, 52662, Note_off_c, 2, 69, 64
1, 52663, Note_off_c, 2, 74, 64
1, 52663, Note_on_c, 2, 73, 122
1, 52664, Note_on_c, 4, 57, 127
1, 52680, Note_off_c, 4, 59, 64
1, 52689, Note_on_c, 2, 76, 122
1, 52699, Note_on_c, 1, 81, 119
1, 52722, Note_on_c, 2, 69, 126
1, 52766, Note_on_c, 2, 68, 126
1, 52774, Note_off_c, 2, 69, 64
1, 52808, Note_on_c, 2, 69, 126
1, 52816, Note_off_c, 2, 68, 64
1, 52852, Note_on_c, 2, 71, 125
1, 52860, Note_off_c, 2, 69, 64
1, 52895, Note_on_c, 2, 69, 126
1, 52902, Note_off_c, 2, 71, 64
1, 52910, Note_off_c, 2, 73, 64
1, 52921, Note_off_c, 2, 76, 64
1, 52931, Note_off_c, 1, 81, 64
1, 52939, Note_on_c, 1, 81, 109
1, 52939, Note_on_c, 4, 66, 126
1, 52945, Note_off_c, 2, 69, 64
1, 52982, Note_on_c, 2, 69, 126
1, 53024, Note_off_c, 1, 81, 64
1, 53027, Note_on_c, 4, 64, 124
1, 53027, Note_on_c, 1, 79, 109
1, 53033, Note_off_c, 4, 66, 64
1, 53065, Note_off_c, 2, 69, 64
1, 53066, Note_on_c, 2, 69, 126
1, 53108, Note_on_c, 1, 78, 109
1, 53108, Note_on_c, 4, 62, 127
1, 53116, Note_off_c, 4, 64, 64
1, 53117, Note_off_c, 1, 79, 64
1, 53152, Note_off_c, 2, 69, 64
1, 53152, Note_on_c, 2, 69, 126
1, 53196, Note_on_c, 4, 61, 127
1, 53196, Note_on_c, 2, 76, 112
1, 53203, Note_off_c, 4, 62, 64
1, 53203, Note_off_c, 1, 78, 64
1, 53236, Note_off_c, 2, 69, 64
1, 53238, Note_on_c, 2, 69, 126
1, 53281, Note_on_c, 2, 74, 112
1, 53281, Note_on_c, 4, 59, 127
1, 53289, Note_off_c, 2, 76, 64
1, 53289, Note_off_c, 4, 61, 64
1, 53324, Note_off_c, 2, 69, 64
1, 53326, Note_off_c, 4, 57, 64
1, 53326, Note_on_c, 2, 69, 126
1, 53369, Note_on_c, 2, 73, 112
1, 53370, Note_on_c, 4, 57, 127
1, 53377, Note_off_c, 4, 59, 64
1, 53378, Note_off_c, 2, 74, 64
1, 53411, Note_off_c, 2, 69, 64
1, 53413, Note_on_c, 2, 69, 126
1, 53457, Note_on_c, 2, 74, 112
1, 53458, Note_on_c, 4, 59, 127
1, 53466, Note_off_c, 4, 57, 64
1, 53466, Note_off_c, 2, 73, 64
1, 53499, Note_off_c, 2, 69, 64
1, 53502, Note_on_c, 2, 69, 126
1, 53544, Note_on_c, 2, 76, 112
1, 53544, Note_on_c, 4, 61, 127
1, 53552, Note_off_c, 4, 59, 64
1, 53553, Note_off_c, 2, 74, 64
1, 53586, Note_off_c, 2, 69, 64
1, 53588, Note_on_c, 2, 69, 126
1, 53630, Note_on_c, 1, 78, 106
1, 53631, Note_on_c, 4, 62, 127
1, 53639, Note_off_c, 4, 61, 64
1, 53639, Note_off_c, 2, 76, 64
1, 53670, Note_off_c, 2, 69, 64
1, 53675, Note_on_c, 2, 69, 126
1, 53715, Note_on_c, 4, 64, 124
1, 53715, Note_on_c, 1, 81, 106
1, 53724, Note_off_c, 4, 62, 64
1, 53724, Note_off_c, 1, 78, 64
1, 53757, Note_off_c, 2, 69, 64
1, 53759, Note_on_c, 2, 69, 126
1, 53759, Note_on_c, 1, 79, 106
1, 53766, Note_off_c, 1, 81, 64
1, 53800, Note_on_c, 1, 78, 106
1, 53801, Note_on_c, 4, 61, 127
1, 53807, Note_off_c, 1, 79, 64
1, 53808, Note_off_c, 4, 64, 64
1, 53840, Note_off_c, 2, 69, 64
1, 53843, Note_on_c, 2, 76, 112
1, 53843, Note_on_c, 2, 69, 126
1, 53849, Note_off_c, 1, 78, 64
1, 53884, Note_on_c, 1, 79, 106
1, 53884, Note_on_c, 4, 62, 127
1, 53892, Note_off_c, 2, 76, 64
1, 53893, Note_off_c, 4, 61, 64
1, 53926, Note_off_c, 2, 69, 64
1, 53928, Note_on_c, 2, 69, 126
1, 53928, Note_on_c, 1, 78, 106
1, 53937, Note_off_c, 1, 79, 64
1, 53969, Note_on_c, 2, 76, 112
1, 53970, Note_on_c, 4, 59, 127
1, 53976, Note_off_c, 1, 78, 64
1, 53976, Note_off_c, 4, 62, 64
1, 54011, Note_off_c, 2, 69, 64
1, 54013, Note_on_c, 2, 74, 115
1, 54014, Note_on_c, 2, 69, 126
1, 54020, Note_off_c, 2, 76, 64
1, 54055, Note_off_c, 2, 69, 64
1, 54055, Note_off_c, 2, 74, 64
1, 54056, Note_off_c, 4, 59, 64
1, 54056, Note_on_c, 2, 73, 125
1, 54057, Note_on_c, 4, 57, 127
1, 54082, Note_on_c, 2, 76, 125
1, 54094, Note_on_c, 1, 81, 122
1, 54227, Note_off_c, 4, 57, 64
1, 54227, Note_off_c, 2, 73, 64
1, 54235, Note_off_c, 2, 76, 64
1, 54240, Note_on_c, 2, 76, 122
1, 54240, Note_on_c, 4, 64, 124
1, 54240, Note_on_c, 4, 57, 127
1, 54241, Note_on_c, 4, 61, 127
1, 54245, Note_off_c, 1, 81, 64
1, 54288, Note_on_c, 2, 73, 122
1, 54296, Note_off_c, 2, 76, 64
1, 54332, Note_on_c, 2, 76, 122
1, 54340, Note_off_c, 2, 73, 64
1, 54380, Note_on_c, 2, 73, 122
1, 54388, Note_off_c, 2, 76, 64
1, 54419, Note_off_c, 4, 57, 64
1, 54419, Note_off_c, 4, 64, 64
1, 54420, Note_off_c, 4, 61, 64
1, 54425, Note_on_c, 2, 69, 126
1, 54426, Note_on_c, 4, 57, 127
1, 54426, Note_on_c, 4, 64, 124
1, 54427, Note_on_c, 4, 61, 127
1, 54434, Note_off_c, 2, 73, 64
1, 54781, Note_off_c, 2, 69, 64
1, 54782, Note_on_c, 2, 76, 122
1, 54884, Note_off_c, 2, 76, 64
1, 54892, Note_on_c, 1, 81, 109
1, 54988, Note_on_c, 1, 80, 109
1, 54997, Note_off_c, 1, 81, 64
1, 55038, Note_off_c, 4, 64, 64
1, 55082, Note_on_c, 1, 83, 109
1, 55090, Note_off_c, 1, 80, 64
1, 55173, Note_off_c, 1, 83, 64
1, 55176, Note_on_c, 1, 81, 109
1, 55267, Note_off_c, 1, 81, 64
1, 55270, Note_on_c, 1, 80, 109
1, 55272, Note_off_c, 4, 61, 64
1, 55363, Note_off_c, 1, 80, 64
1, 55366, Note_on_c, 1, 78, 109
1, 55460, Note_off_c, 1, 78, 64
1, 55462, Note_on_c, 1, 80, 82
1, 55463, Note_on_c, 3, 71, 120
1, 55463, Note_on_c, 3, 68, 126
1, 55486, Note_on_c, 1, 78, 82
1, 55496, Note_off_c, 1, 80, 64
1, 55496, Note_off_c, 4, 57, 64
1, 55512, Note_on_c, 1, 80, 82
1, 55520, Note_off_c, 1, 78, 64
1, 55537, Note_on_c, 1, 78, 82
1, 55545, Note_off_c, 1, 80, 64
1, 55554, Note_off_c, 3, 68, 64
1, 55555, Note_off_c, 3, 71, 64
1, 55563, Note_on_c, 2, 76, 91
1, 55563, Note_on_c, 3, 71, 116
1, 55564, Note_on_c, 3, 68, 126
1, 55570, Note_off_c, 1, 78, 64
1, 55650, Note_off_c, 3, 68, 64
1, 55651, Note_off_c, 3, 71, 64
1, 55651, Note_off_c, 2, 76, 64
1, 55659, Note_on_c, 3, 71, 116
1, 55659, Note_on_c, 2, 76, 100
1, 55660, Note_on_c, 3, 68, 126
1, 55744, Note_off_c, 3, 68, 64
1, 55745, Note_off_c, 3, 71, 64
1, 55753, Note_on_c, 3, 71, 116
1, 55753, Note_on_c, 3, 68, 126
1, 55838, Note_off_c, 3, 68, 64
1, 55839, Note_off_c, 3, 71, 64
1, 55847, Note_on_c, 3, 71, 116
1, 55848, Note_on_c, 3, 68, 126
1, 55892, Note_off_c, 2, 76, 64
1, 55936, Note_off_c, 3, 68, 64
1, 55937, Note_off_c, 3, 71, 64
1, 55945, Note_on_c, 1, 78, 90
1, 55945, Note_on_c, 3, 71, 112
1, 55946, Note_on_c, 3, 68, 126
1, 55969, Note_on_c, 2, 76, 96
1, 55979, Note_off_c, 1, 78, 64
1, 55994, Note_on_c, 2, 75, 96
1, 56002, Note_off_c, 2, 76, 64
1, 56033, Note_off_c, 2, 75, 64
1, 56033, Note_off_c, 3, 68, 64
1, 56034, Note_off_c, 3, 71, 64
1, 56040, Note_on_c, 2, 76, 96
1, 56041, Note_on_c, 3, 71, 112
1, 56041, Note_on_c, 3, 68, 126
1, 56126, Note_off_c, 3, 68, 64
1, 56126, Note_off_c, 3, 71, 64
1, 56135, Note_on_c, 3, 68, 126
1, 56135, Note_on_c, 3, 71, 112
1, 56135, Note_on_c, 1, 78, 96
1, 56141, Note_off_c, 2, 76, 64
1, 56220, Note_off_c, 3, 71, 64
1, 56220, Note_off_c, 3, 68, 64
1, 56229, Note_on_c, 2, 76, 101
1, 56229, Note_on_c, 3, 69, 121
1, 56229, Note_on_c, 3, 66, 126
1, 56237, Note_off_c, 1, 78, 64
1, 56316, Note_off_c, 3, 66, 64
1, 56316, Note_off_c, 3, 69, 64
1, 56320, Note_off_c, 2, 76, 64
1, 56323, Note_on_c, 3, 69, 121
1, 56323, Note_on_c, 2, 74, 106
1, 56324, Note_on_c, 3, 66, 121
1, 56411, Note_off_c, 3, 66, 64
1, 56412, Note_off_c, 3, 69, 64
1, 56420, Note_on_c, 3, 69, 121
1, 56420, Note_on_c, 3, 66, 121
1, 56507, Note_off_c, 3, 66, 64
1, 56508, Note_off_c, 3, 69, 64
1, 56514, Note_on_c, 1, 78, 100
1, 56514, Note_on_c, 3, 69, 121
1, 56515, Note_on_c, 3, 66, 121
1, 56522, Note_off_c, 2, 74, 64
1, 56601, Note_off_c, 3, 66, 64
1, 56602, Note_off_c, 3, 69, 64
1, 56610, Note_on_c, 3, 68, 121
1, 56610, Note_on_c, 2, 74, 106
1, 56611, Note_on_c, 3, 64, 119
1, 56626, Note_off_c, 1, 78, 64
1, 56697, Note_off_c, 3, 64, 64
1, 56698, Note_off_c, 3, 68, 64
1, 56706, Note_on_c, 2, 73, 106
1, 56706, Note_on_c, 3, 68, 121
1, 56706, Note_on_c, 3, 64, 119
1, 56720, Note_off_c, 2, 74, 64
1, 56793, Note_off_c, 3, 64, 64
1, 56794, Note_off_c, 3, 68, 64
1, 56800, Note_on_c, 3, 64, 119
1, 56800, Note_on_c, 3, 68, 121
1, 56883, Note_off_c, 2, 73, 64
1, 56887, Note_off_c, 3, 64, 64
1, 56888, Note_off_c, 3, 68, 64
1, 56896, Note_on_c, 2, 76, 106
1, 56896, Note_on_c, 3, 68, 121
1, 56897, Note_on_c, 3, 64, 119
1, 56983, Note_off_c, 3, 64, 64
1, 56984, Note_off_c, 3, 68, 64
1, 56992, Note_on_c, 2, 73, 114
1, 56992, Note_on_c, 3, 66, 121
1, 56993, Note_on_c, 4, 62, 124
1, 57002, Note_off_c, 2, 76, 64
1, 57041, Note_on_c, 2, 71, 124
1, 57048, Note_off_c, 2, 73, 64
1, 57075, Note_off_c, 4, 62, 64
1, 57076, Note_off_c, 3, 66, 64
1, 57084, Note_on_c, 3, 66, 121
1, 57084, Note_on_c, 2, 74, 118
1, 57085, Note_on_c, 4, 62, 124
1, 57091, Note_off_c, 2, 71, 64
1, 57129, Note_on_c, 2, 73, 118
1, 57137, Note_off_c, 2, 74, 64
1, 57166, Note_off_c, 3, 66, 64
1, 57166, Note_off_c, 4, 62, 64
1, 57174, Note_on_c, 2, 76, 118
1, 57175, Note_on_c, 3, 66, 121
1, 57175, Note_on_c, 4, 62, 124
1, 57181, Note_off_c, 2, 73, 64
1, 57220, Note_on_c, 2, 74, 118
1, 57226, Note_off_c, 2, 76, 64
1, 57255, Note_off_c, 4, 62, 64
1, 57255, Note_off_c, 3, 66, 64
1, 57262, Note_on_c, 2, 73, 118
1, 57262, Note_on_c, 3, 66, 121
1, 57263, Note_on_c, 4, 62, 124
1, 57270, Note_off_c, 2, 74, 64
1, 57307, Note_on_c, 2, 71, 124
1, 57314, Note_off_c, 2, 73, 64
1, 57345, Note_off_c, 4, 62, 64
1, 57346, Note_off_c, 3, 66, 64
1, 57352, Note_on_c, 3, 64, 119
1, 57352, Note_on_c, 2, 69, 126
1, 57353, Note_on_c, 4, 61, 127
1, 57360, Note_off_c, 2, 71, 64
1, 57397, Note_on_c, 2, 71, 124
1, 57405, Note_off_c, 2, 69, 64
1, 57443, Note_on_c, 2, 69, 126
1, 57451, Note_off_c, 2, 71, 64
1, 57488, Note_on_c, 2, 68, 121
1, 57495, Note_off_c, 2, 69, 64
1, 57531, Note_on_c, 2, 69, 126
1, 57539, Note_off_c, 2, 68, 64
1, 57575, Note_on_c, 2, 71, 124
1, 57582, Note_off_c, 2, 69, 64
1, 57619, Note_on_c, 2, 73, 121
1, 57624, Note_off_c, 2, 71, 64
1, 57661, Note_on_c, 2, 74, 121
1, 57669, Note_off_c, 2, 73, 64
1, 57705, Note_on_c, 2, 75, 121
1, 57713, Note_off_c, 2, 74, 64
1, 57749, Note_on_c, 2, 76, 121
1, 57757, Note_off_c, 2, 75, 64
1, 57793, Note_on_c, 1, 78, 119
1, 57800, Note_off_c, 2, 76, 64
1, 57837, Note_on_c, 2, 76, 125
1, 57844, Note_off_c, 1, 78, 64
1, 57879, Note_on_c, 1, 80, 119
1, 57886, Note_off_c, 2, 76, 64
1, 57922, Note_on_c, 1, 78, 119
1, 57930, Note_off_c, 1, 80, 64
1, 57966, Note_on_c, 1, 81, 119
1, 57974, Note_off_c, 1, 78, 64
1, 58012, Note_on_c, 1, 80, 119
1, 58020, Note_off_c, 1, 81, 64
1, 58057, Note_on_c, 1, 83, 123
1, 58064, Note_off_c, 1, 80, 64
1, 58145, Note_on_c, 1, 81, 119
1, 58152, Note_off_c, 1, 83, 64
1, 58234, Note_on_c, 1, 80, 119
1, 58239, Note_off_c, 1, 81, 64
1, 58322, Note_on_c, 1, 78, 119
1, 58330, Note_off_c, 1, 80, 64
1, 58383, Note_off_c, 4, 61, 64
1, 58384, Note_off_c, 3, 64, 64
1, 58413, Note_on_c, 2, 75, 127
1, 58414, Note_on_c, 3, 71, 118
1, 58414, Note_on_c, 3, 68, 121
1, 58422, Note_off_c, 1, 78, 64
1, 58502, Note_off_c, 3, 68, 64
1, 58503, Note_off_c, 3, 71, 64
1, 58509, Note_off_c, 2, 75, 64
1, 58510, Note_on_c, 3, 71, 118
1, 58510, Note_on_c, 1, 78, 123
1, 58511, Note_on_c, 3, 68, 121
1, 58557, Note_off_c, 1, 78, 64
1, 58559, Note_on_c, 2, 76, 127
1, 58595, Note_off_c, 2, 76, 64
1, 58599, Note_off_c, 3, 68, 64
1, 58600, Note_off_c, 3, 71, 64
1, 58608, Note_on_c, 2, 76, 127
1, 58608, Note_on_c, 3, 71, 118
1, 58609, Note_on_c, 3, 68, 121
1, 58695, Note_off_c, 3, 68, 64
1, 58696, Note_off_c, 3, 71, 64
1, 58702, Note_on_c, 3, 71, 118
1, 58703, Note_on_c, 3, 68, 121
1, 58789, Note_off_c, 3, 68, 64
1, 58790, Note_off_c, 3, 71, 64
1, 58798, Note_on_c, 3, 71, 118
1, 58799, Note_on_c, 3, 68, 121
1, 58845, Note_on_c, 1, 78, 119
1, 58846, Note_off_c, 2, 76, 64
1, 58885, Note_off_c, 3, 68, 64
1, 58886, Note_off_c, 3, 71, 64
1, 58892, Note_off_c, 1, 78, 64
1, 58893, Note_on_c, 2, 76, 125
1, 58893, Note_on_c, 3, 71, 118
1, 58894, Note_on_c, 3, 68, 121
1, 58940, Note_off_c, 2, 76, 64
1, 58941, Note_on_c, 2, 75, 125
1, 58978, Note_off_c, 3, 68, 64
1, 58978, Note_off_c, 3, 71, 64
1, 58986, Note_off_c, 2, 75, 64
1, 58987, Note_on_c, 3, 71, 118
1, 58987, Note_on_c, 2, 76, 125
1, 58988, Note_on_c, 3, 68, 121
1, 59055, Note_off_c, 2, 76, 64
1, 59072, Note_off_c, 3, 71, 64
1, 59072, Note_off_c, 3, 68, 64
1, 59080, Note_on_c, 2, 76, 120
1, 59081, Note_on_c, 3, 71, 118
1, 59081, Note_on_c, 3, 68, 121
1, 59172, Note_off_c, 3, 68, 64
1, 59172, Note_off_c, 3, 71, 64
1, 59178, Note_on_c, 3, 69, 116
1, 59179, Note_on_c, 3, 66, 121
1, 59262, Note_off_c, 3, 66, 64
1, 59262, Note_off_c, 3, 69, 64
1, 59270, Note_on_c, 2, 73, 120
1, 59271, Note_on_c, 3, 66, 116
1, 59271, Note_on_c, 3, 69, 116
1, 59275, Note_off_c, 2, 76, 64
1, 59354, Note_off_c, 3, 69, 64
1, 59354, Note_off_c, 3, 66, 64
1, 59361, Note_on_c, 3, 69, 116
1, 59361, Note_on_c, 3, 66, 116
1, 59446, Note_off_c, 3, 66, 64
1, 59447, Note_off_c, 3, 69, 64
1, 59455, Note_on_c, 3, 69, 116
1, 59455, Note_on_c, 2, 74, 120
1, 59456, Note_on_c, 3, 66, 116
1, 59458, Note_off_c, 2, 73, 64
1, 59541, Note_off_c, 3, 66, 64
1, 59542, Note_off_c, 3, 69, 64
1, 59548, Note_on_c, 3, 68, 116
1, 59548, Note_on_c, 3, 64, 114
1, 59631, Note_off_c, 3, 64, 64
1, 59632, Note_off_c, 3, 68, 64
1, 59640, Note_on_c, 2, 72, 120
1, 59640, Note_on_c, 3, 68, 121
1, 59641, Note_on_c, 3, 64, 119
1, 59643, Note_off_c, 2, 74, 64
1, 59724, Note_off_c, 3, 64, 64
1, 59724, Note_off_c, 3, 68, 64
1, 59730, Note_on_c, 3, 68, 121
1, 59731, Note_on_c, 3, 64, 119
1, 59816, Note_off_c, 3, 68, 64
1, 59816, Note_off_c, 3, 64, 64
1, 59822, Note_on_c, 2, 73, 120
1, 59823, Note_on_c, 3, 68, 121
1, 59823, Note_on_c, 3, 64, 119
1, 59827, Note_off_c, 2, 72, 64
1, 59906, Note_off_c, 3, 64, 64
1, 59906, Note_off_c, 3, 68, 64
1, 59915, Note_on_c, 3, 66, 121
1, 59915, Note_on_c, 3, 62, 124
1, 59996, Note_off_c, 3, 62, 64
1, 59997, Note_off_c, 3, 66, 64
1, 60005, Note_on_c, 2, 70, 126
1, 60005, Note_on_c, 4, 66, 121
1, 60006, Note_on_c, 4, 62, 124
1, 60008, Note_off_c, 2, 73, 64
1, 60090, Note_off_c, 4, 62, 64
1, 60091, Note_off_c, 4, 66, 64
1, 60097, Note_on_c, 4, 66, 121
1, 60097, Note_on_c, 4, 62, 124
1, 60182, Note_off_c, 4, 62, 64
1, 60183, Note_off_c, 4, 66, 64
1, 60189, Note_on_c, 2, 71, 123
1, 60190, Note_on_c, 4, 62, 124
1, 60190, Note_on_c, 4, 66, 121
1, 60192, Note_off_c, 2, 70, 64
1, 60273, Note_off_c, 4, 66, 64
1, 60273, Note_off_c, 4, 62, 64
1, 60281, Note_on_c, 4, 64, 119
1, 60282, Note_on_c, 4, 61, 125
1, 60326, Note_on_c, 2, 68, 126
1, 60328, Note_off_c, 2, 71, 64
1, 60375, Note_on_c, 2, 71, 123
1, 60382, Note_off_c, 2, 68, 64
1, 60419, Note_on_c, 2, 69, 126
1, 60426, Note_off_c, 2, 71, 64
1, 60461, Note_on_c, 1, 78, 121
1, 60505, Note_off_c, 2, 69, 64
1, 60505, Note_on_c, 2, 76, 124
1, 60512, Note_off_c, 1, 78, 64
1, 60550, Note_on_c, 2, 74, 124
1, 60558, Note_off_c, 2, 76, 64
1, 60594, Note_on_c, 2, 73, 124
1, 60602, Note_off_c, 2, 74, 64
1, 60639, Note_off_c, 4, 64, 64
1, 60639, Note_off_c, 4, 61, 64
1, 60640, Note_on_c, 4, 62, 121
1, 60640, Note_on_c, 2, 71, 123
1, 60641, Note_on_c, 4, 50, 127
1, 60648, Note_off_c, 2, 73, 64
1, 60686, Note_on_c, 1, 81, 121
1, 60732, Note_on_c, 2, 70, 126
1, 60732, Note_on_c, 4, 61, 122
1, 60733, Note_on_c, 4, 49, 127
1, 60740, Note_off_c, 4, 62, 64
1, 60740, Note_off_c, 4, 50, 64
1, 60741, Note_off_c, 2, 71, 64
1, 60777, Note_off_c, 1, 81, 64
1, 60779, Note_on_c, 1, 81, 121
1, 60825, Note_on_c, 2, 71, 123
1, 60826, Note_on_c, 4, 62, 121
1, 60826, Note_on_c, 4, 50, 127
1, 60834, Note_off_c, 4, 49, 64
1, 60834, Note_off_c, 4, 61, 64
1, 60835, Note_off_c, 2, 70, 64
1, 60869, Note_off_c, 1, 81, 64
1, 60871, Note_on_c, 1, 81, 121
1, 60917, Note_on_c, 2, 70, 126
1, 60918, Note_on_c, 4, 49, 127
1, 60918, Note_on_c, 4, 61, 122
1, 60926, Note_off_c, 4, 50, 64
1, 60926, Note_off_c, 4, 62, 64
1, 60927, Note_off_c, 2, 71, 64
1, 60961, Note_off_c, 1, 81, 64
1, 60965, Note_on_c, 1, 81, 121
1, 61011, Note_on_c, 2, 71, 123
1, 61012, Note_on_c, 4, 50, 127
1, 61012, Note_on_c, 4, 62, 121
1, 61018, Note_off_c, 4, 49, 64
1, 61019, Note_off_c, 2, 70, 64
1, 61019, Note_off_c, 4, 61, 64
1, 61053, Note_off_c, 1, 81, 64
1, 61056, Note_on_c, 2, 74, 124
1, 61063, Note_off_c, 2, 71, 64
1, 61100, Note_on_c, 1, 78, 121
1, 61107, Note_off_c, 2, 74, 64
1, 61146, Note_on_c, 2, 76, 124
1, 61152, Note_off_c, 1, 78, 64
1, 61188, Note_on_c, 1, 79, 121
1, 61196, Note_off_c, 2, 76, 64
1, 61232, Note_on_c, 1, 78, 121
1, 61240, Note_off_c, 1, 79, 64
1, 61276, Note_on_c, 2, 76, 124
1, 61284, Note_off_c, 1, 78, 64
1, 61322, Note_on_c, 2, 74, 124
1, 61330, Note_off_c, 2, 76, 64
1, 61361, Note_off_c, 4, 62, 64
1, 61361, Note_off_c, 4, 50, 64
1, 61368, Note_on_c, 4, 52, 127
1, 61368, Note_on_c, 4, 64, 119
1, 61368, Note_on_c, 2, 73, 124
1, 61375, Note_off_c, 2, 74, 64
1, 61414, Note_on_c, 1, 81, 121
1, 61460, Note_on_c, 2, 72, 124
1, 61460, Note_on_c, 4, 63, 120
1, 61461, Note_on_c, 4, 51, 127
1, 61468, Note_off_c, 4, 52, 64
1, 61469, Note_off_c, 2, 73, 64
1, 61469, Note_off_c, 4, 64, 64
1, 61504, Note_off_c, 1, 81, 64
1, 61508, Note_on_c, 1, 81, 121
1, 61554, Note_on_c, 2, 73, 124
1, 61554, Note_on_c, 4, 64, 119
1, 61555, Note_on_c, 4, 52, 127
1, 61560, Note_off_c, 4, 51, 64
1, 61561, Note_off_c, 4, 63, 64
1, 61561, Note_off_c, 2, 72, 64
1, 61598, Note_off_c, 1, 81, 64
1, 61600, Note_on_c, 1, 81, 121
1, 61646, Note_on_c, 4, 63, 120
1, 61646, Note_on_c, 2, 72, 124
1, 61647, Note_on_c, 4, 51, 127
1, 61655, Note_off_c, 4, 52, 64
1, 61655, Note_off_c, 4, 64, 64
1, 61656, Note_off_c, 2, 73, 64
1, 61690, Note_off_c, 1, 81, 64
1, 61692, Note_on_c, 1, 81, 121
1, 61740, Note_on_c, 4, 64, 119
1, 61740, Note_on_c, 2, 73, 124
1, 61741, Note_on_c, 4, 52, 127
1, 61747, Note_off_c, 4, 63, 64
1, 61747, Note_off_c, 4, 51, 64
1, 61748, Note_off_c, 2, 72, 64
1, 61782, Note_off_c, 1, 81, 64
1, 61786, Note_on_c, 2, 76, 124
1, 61794, Note_off_c, 2, 73, 64
1, 61832, Note_on_c, 1, 79, 121
1, 61840, Note_off_c, 2, 76, 64
1, 61876, Note_on_c, 1, 78, 121
1, 61884, Note_off_c, 1, 79, 64
1, 61919, Note_on_c, 1, 81, 121
1, 61926, Note_off_c, 1, 78, 64
1, 61963, Note_on_c, 1, 79, 121
1, 61970, Note_off_c, 1, 81, 64
1, 62009, Note_on_c, 1, 78, 121
1, 62016, Note_off_c, 1, 79, 64
1, 62053, Note_on_c, 2, 76, 124
1, 62061, Note_off_c, 1, 78, 64
1, 62091, Note_off_c, 4, 52, 64
1, 62092, Note_off_c, 4, 64, 64
1, 62098, Note_on_c, 2, 74, 124
1, 62099, Note_on_c, 4, 54, 127
1, 62099, Note_on_c, 4, 66, 121
1, 62106, Note_off_c, 2, 76, 64
1, 62144, Note_on_c, 1, 81, 121
1, 62192, Note_on_c, 2, 73, 124
1, 62193, Note_on_c, 4, 65, 121
1, 62193, Note_on_c, 4, 53, 127
1, 62199, Note_off_c, 4, 66, 64
1, 62199, Note_off_c, 4, 54, 64
1, 62200, Note_off_c, 2, 74, 64
1, 62236, Note_off_c, 1, 81, 64
1, 62238, Note_on_c, 1, 81, 121
1, 62284, Note_on_c, 2, 74, 124
1, 62285, Note_on_c, 4, 66, 121
1, 62285, Note_on_c, 4, 54, 127
1, 62293, Note_off_c, 4, 53, 64
1, 62293, Note_off_c, 4, 65, 64
1, 62294, Note_off_c, 2, 73, 64
1, 62328, Note_off_c, 1, 81, 64
1, 62330, Note_on_c, 1, 81, 121
1, 62376, Note_on_c, 2, 73, 124
1, 62377, Note_on_c, 4, 53, 127
1, 62377, Note_on_c, 4, 65, 121
1, 62385, Note_off_c, 4, 54, 64
1, 62386, Note_off_c, 4, 66, 64
1, 62386, Note_off_c, 2, 74, 64
1, 62421, Note_off_c, 1, 81, 64
1, 62424, Note_on_c, 1, 81, 121
1, 62471, Note_on_c, 4, 66, 121
1, 62471, Note_on_c, 2, 74, 124
1, 62472, Note_on_c, 4, 54, 127
1, 62477, Note_off_c, 4, 53, 64
1, 62478, Note_off_c, 2, 73, 64
1, 62478, Note_off_c, 4, 65, 64
1, 62513, Note_off_c, 1, 81, 64
1, 62515, Note_on_c, 1, 78, 121
1, 62523, Note_off_c, 2, 74, 64
1, 62561, Note_on_c, 1, 81, 121
1, 62568, Note_off_c, 1, 78, 64
1, 62607, Note_on_c, 1, 80, 121
1, 62615, Note_off_c, 1, 81, 64
1, 62649, Note_on_c, 1, 83, 121
1, 62657, Note_off_c, 1, 80, 64
1, 62693, Note_on_c, 1, 81, 121
1, 62701, Note_off_c, 1, 83, 64
1, 62737, Note_on_c, 1, 80, 121
1, 62745, Note_off_c, 1, 81, 64
1, 62784, Note_on_c, 1, 81, 121
1, 62791, Note_off_c, 1, 80, 64
1, 62820, Note_off_c, 4, 54, 64
1, 62821, Note_off_c, 4, 66, 64
1, 62829, Note_on_c, 2, 75, 124
1, 62830, Note_on_c, 4, 53, 127
1, 62835, Note_off_c, 1, 81, 64
1, 62874, Note_on_c, 4, 57, 127
1, 62922, Note_on_c, 1, 81, 121
1, 62923, Note_on_c, 4, 60, 122
1, 62936, Note_off_c, 4, 53, 64
1, 62967, Note_on_c, 4, 63, 117
1, 62975, Note_off_c, 4, 57, 64
1, 62983, Note_off_c, 2, 75, 64
1, 63015, Note_on_c, 4, 53, 127
1, 63023, Note_off_c, 4, 60, 64
1, 63061, Note_on_c, 4, 57, 127
1, 63108, Note_off_c, 4, 63, 64
1, 63108, Note_on_c, 4, 60, 122
1, 63108, Note_on_c, 1, 84, 121
1, 63110, Note_off_c, 1, 81, 64
1, 63124, Note_off_c, 4, 53, 64
1, 63155, Note_on_c, 4, 63, 117
1, 63162, Note_off_c, 4, 57, 64
1, 63201, Note_on_c, 4, 53, 127
1, 63208, Note_off_c, 4, 60, 64
1, 63247, Note_on_c, 4, 57, 127
1, 63293, Note_off_c, 4, 63, 64
1, 63293, Note_on_c, 1, 83, 119
1, 63294, Note_on_c, 4, 60, 122
1, 63295, Note_off_c, 1, 84, 64
1, 63309, Note_off_c, 4, 53, 64
1, 63340, Note_on_c, 4, 63, 117
1, 63348, Note_off_c, 4, 57, 64
1, 63386, Note_on_c, 4, 53, 127
1, 63394, Note_off_c, 4, 60, 64
1, 63432, Note_on_c, 4, 57, 127
1, 63478, Note_off_c, 4, 63, 64
1, 63479, Note_on_c, 1, 81, 119
1, 63479, Note_on_c, 4, 60, 122
1, 63482, Note_off_c, 1, 83, 64
1, 63494, Note_off_c, 4, 53, 64
1, 63525, Note_on_c, 4, 63, 117
1, 63533, Note_off_c, 4, 57, 64
1, 63565, Note_off_c, 1, 81, 64
1, 63571, Note_off_c, 4, 60, 64
1, 63572, Note_on_c, 4, 52, 127
1, 63572, Note_on_c, 1, 80, 119
1, 63618, Note_off_c, 4, 63, 64
1, 63664, Note_on_c, 3, 64, 124
1, 63749, Note_off_c, 3, 64, 64
1, 63756, Note_on_c, 3, 68, 121
1, 63757, Note_on_c, 3, 64, 124
1, 63834, Note_off_c, 1, 80, 64
1, 63842, Note_off_c, 3, 64, 64
1, 63848, Note_off_c, 3, 68, 64
1, 63850, Note_on_c, 2, 76, 118
1, 63850, Note_on_c, 3, 68, 117
1, 63851, Note_on_c, 3, 64, 124
1, 63935, Note_off_c, 3, 64, 64
1, 63936, Note_off_c, 2, 76, 64
1, 63940, Note_off_c, 3, 68, 64
1, 63944, Note_on_c, 2, 73, 109
1, 63944, Note_on_c, 2, 77, 109
1, 63945, Note_on_c, 3, 70, 112
1, 63945, Note_on_c, 3, 64, 124
1, 64028, Note_off_c, 3, 64, 64
1, 64029, Note_off_c, 2, 77, 64
1, 64033, Note_off_c, 3, 70, 64
1, 64035, Note_on_c, 3, 70, 112
1, 64035, Note_on_c, 1, 78, 106
1, 64036, Note_on_c, 3, 64, 124
1, 64119, Note_off_c, 3, 64, 64
1, 64123, Note_off_c, 2, 73, 64
1, 64125, Note_off_c, 3, 70, 64
1, 64127, Note_on_c, 2, 74, 109
1, 64128, Note_on_c, 3, 71, 110
1, 64128, Note_on_c, 3, 64, 124
1, 64212, Note_off_c, 3, 64, 64
1, 64213, Note_off_c, 1, 78, 64
1, 64219, Note_off_c, 3, 71, 64
1, 64221, Note_on_c, 1, 78, 110
1, 64222, Note_on_c, 3, 71, 114
1, 64222, Note_on_c, 3, 64, 124
1, 64308, Note_off_c, 3, 64, 64
1, 64308, Note_off_c, 2, 74, 64
1, 64312, Note_off_c, 3, 71, 64
1, 64315, Note_off_c, 1, 78, 64
1, 64315, Note_on_c, 2, 75, 113
1, 64316, Note_on_c, 3, 64, 124
1, 64316, Note_on_c, 3, 68, 116
1, 64401, Note_off_c, 3, 64, 64
1, 64404, Note_off_c, 2, 75, 64
1, 64406, Note_off_c, 3, 68, 64
1, 64408, Note_on_c, 2, 76, 113
1, 64409, Note_on_c, 3, 68, 116
1, 64409, Note_on_c, 3, 64, 124
1, 64496, Note_off_c, 3, 64, 64
1, 64501, Note_off_c, 3, 68, 64
1, 64503, Note_on_c, 2, 73, 117
1, 64504, Note_on_c, 3, 64, 124
1, 64504, Note_on_c, 3, 69, 116
1, 64589, Note_off_c, 2, 76, 64
1, 64589, Note_off_c, 3, 64, 64
1, 64594, Note_off_c, 3, 69, 64
1, 64597, Note_off_c, 2, 73, 64
1, 64598, Note_on_c, 2, 76, 117
1, 64598, Note_on_c, 3, 69, 116
1, 64599, Note_on_c, 3, 64, 124
1, 64674, Note_off_c, 2, 76, 64
1, 64682, Note_off_c, 3, 64, 64
1, 64688, Note_off_c, 3, 69, 64
1, 64690, Note_on_c, 1, 81, 114
1, 64690, Note_on_c, 3, 66, 121
1, 64691, Note_on_c, 3, 64, 124
1, 64775, Note_off_c, 3, 64, 64
1, 64779, Note_off_c, 3, 66, 64
1, 64783, Note_off_c, 1, 81, 64
1, 64783, Note_on_c, 2, 74, 117
1, 64784, Note_on_c, 3, 64, 124
1, 64784, Note_on_c, 3, 66, 121
1, 64867, Note_off_c, 3, 64, 64
1, 64873, Note_off_c, 3, 66, 64
1, 64875, Note_on_c, 3, 71, 118
1, 64875, Note_on_c, 3, 68, 116
1, 64876, Note_on_c, 3, 64, 124
1, 64959, Note_off_c, 3, 64, 64
1, 64960, Note_off_c, 2, 74, 64
1, 64966, Note_off_c, 3, 68, 64
1, 64968, Note_on_c, 3, 68, 116
1, 64968, Note_on_c, 2, 74, 117
1, 64969, Note_on_c, 3, 64, 124
1, 65052, Note_off_c, 2, 74, 64
1, 65053, Note_off_c, 3, 64, 64
1, 65054, Note_off_c, 3, 71, 64
1, 65060, Note_off_c, 3, 68, 64
1, 65061, Note_on_c, 2, 72, 117
1, 65061, Note_on_c, 3, 69, 116
1, 65062, Note_on_c, 3, 64, 124
1, 65145, Note_off_c, 3, 64, 64
1, 65150, Note_off_c, 3, 69, 64
1, 65151, Note_off_c, 2, 72, 64
1, 65153, Note_on_c, 2, 73, 117
1, 65154, Note_on_c, 3, 69, 116
1, 65154, Note_on_c, 3, 64, 124
1, 65237, Note_off_c, 3, 64, 64
1, 65238, Note_off_c, 2, 73, 64
1, 65244, Note_on_c, 3, 64, 124
1, 65244, Note_on_c, 2, 73, 117
1, 65327, Note_off_c, 3, 64, 64
1, 65328, Note_off_c, 2, 73, 64
1, 65336, Note_on_c, 2, 76, 122
1, 65336, Note_on_c, 2, 73, 122
1, 65337, Note_on_c, 3, 64, 124
1, 65397, Note_off_c, 3, 69, 64
1, 65420, Note_off_c, 3, 64, 64
1, 65420, Note_off_c, 2, 73, 64
1, 65420, Note_off_c, 2, 76, 64
1, 65426, Note_on_c, 2, 74, 122
1, 65426, Note_on_c, 1, 78, 119
1, 65427, Note_on_c, 3, 64, 124
1, 65472, Note_on_c, 1, 80, 119
1, 65480, Note_off_c, 1, 78, 64
1, 65517, Note_on_c, 1, 81, 119
1, 65524, Note_off_c, 1, 80, 64
1, 65563, Note_on_c, 1, 80, 119
1, 65570, Note_off_c, 1, 81, 64
1, 65607, Note_on_c, 1, 83, 119
1, 65614, Note_off_c, 1, 80, 64
1, 65652, Note_on_c, 1, 81, 119
1, 65658, Note_off_c, 1, 83, 64
1, 65694, Note_on_c, 1, 80, 119
1, 65702, Note_off_c, 1, 81, 64
1, 65738, Note_on_c, 1, 78, 119
1, 65747, Note_off_c, 1, 80, 64
1, 65776, Note_off_c, 2, 74, 64
1, 65784, Note_on_c, 2, 76, 122
1, 65784, Note_on_c, 2, 73, 122
1, 65790, Note_off_c, 1, 78, 64
1, 65829, Note_on_c, 1, 81, 119
1, 65836, Note_off_c, 2, 76, 64
1, 65873, Note_on_c, 1, 85, 119
1, 65880, Note_off_c, 1, 81, 64
1, 65917, Note_on_c, 1, 80, 119
1, 65925, Note_off_c, 1, 85, 64
1, 65963, Note_on_c, 1, 81, 119
1, 65964, Note_on_c, 3, 69, 121
1, 65970, Note_off_c, 1, 80, 64
1, 65973, Note_off_c, 2, 73, 64
1, 66006, Note_on_c, 2, 76, 122
1, 66014, Note_off_c, 1, 81, 64
1, 66024, Note_off_c, 4, 52, 64
1, 66052, Note_on_c, 1, 78, 119
1, 66060, Note_off_c, 2, 76, 64
1, 66096, Note_on_c, 2, 73, 122
1, 66104, Note_off_c, 1, 78, 64
1, 66143, Note_on_c, 3, 71, 123
1, 66143, Note_on_c, 2, 74, 122
1, 66145, Note_off_c, 3, 69, 64
1, 66151, Note_off_c, 2, 73, 64
1, 66188, Note_on_c, 2, 76, 122
1, 66195, Note_off_c, 2, 74, 64
1, 66234, Note_on_c, 1, 78, 119
1, 66241, Note_off_c, 2, 76, 64
1, 66278, Note_on_c, 2, 76, 122
1, 66286, Note_off_c, 1, 78, 64
1, 66324, Note_on_c, 3, 68, 121
1, 66324, Note_on_c, 1, 80, 119
1, 66325, Note_off_c, 3, 71, 64
1, 66331, Note_off_c, 2, 76, 64
1, 66369, Note_on_c, 1, 78, 119
1, 66377, Note_off_c, 1, 80, 64
1, 66413, Note_on_c, 2, 76, 122
1, 66421, Note_off_c, 1, 78, 64
1, 66459, Note_on_c, 2, 74, 122
1, 66467, Note_off_c, 2, 76, 64
1, 66504, Note_on_c, 2, 73, 122
1, 66512, Note_off_c, 2, 74, 64
1, 66551, Note_on_c, 2, 76, 122
1, 66558, Note_off_c, 2, 73, 64
1, 66595, Note_on_c, 1, 81, 124
1, 66602, Note_off_c, 2, 76, 64
1, 66641, Note_on_c, 1, 80, 124
1, 66648, Note_off_c, 1, 81, 64
1, 66685, Note_on_c, 1, 81, 124
1, 66693, Note_off_c, 1, 80, 64
1, 66731, Note_on_c, 2, 76, 127
1, 66777, Note_off_c, 3, 64, 64
1, 66778, Note_on_c, 2, 73, 127
1, 66778, Note_on_c, 4, 45, 127
1, 66779, Note_on_c, 4, 33, 127
1, 66821, Note_off_c, 3, 68, 64
1, 66822, Note_on_c, 3, 69, 126
1, 66863, Note_off_c, 1, 81, 64
1, 66866, Note_off_c, 4, 33, 64
1, 66867, Note_off_c, 4, 45, 64
1, 66867, Note_on_c, 1, 81, 126
1, 66868, Note_on_c, 4, 49, 127
1, 66868, Note_on_c, 4, 37, 127
1, 66908, Note_off_c, 2, 76, 64
1, 66912, Note_on_c, 2, 76, 127
1, 66950, Note_off_c, 2, 73, 64
1, 66958, Note_off_c, 4, 37, 64
1, 66958, Note_off_c, 4, 49, 64
1, 66959, Note_on_c, 4, 52, 127
1, 66959, Note_on_c, 2, 73, 127
1, 66960, Note_on_c, 4, 40, 127
1, 66994, Note_off_c, 3, 69, 64
1, 67002, Note_on_c, 3, 69, 126
1, 67042, Note_off_c, 1, 81, 64
1, 67048, Note_off_c, 4, 40, 64
1, 67048, Note_off_c, 4, 52, 64
1, 67049, Note_on_c, 4, 57, 127
1, 67049, Note_on_c, 1, 81, 126
1, 67050, Note_on_c, 4, 45, 127
1, 67088, Note_off_c, 2, 76, 64
1, 67092, Note_on_c, 2, 76, 127
1, 67130, Note_off_c, 2, 73, 64
1, 67137, Note_on_c, 2, 73, 127
1, 67175, Note_off_c, 3, 69, 64
1, 67182, Note_on_c, 3, 69, 126
1, 67222, Note_off_c, 1, 81, 64
1, 67227, Note_on_c, 1, 78, 126
1, 67243, Note_off_c, 2, 76, 64
1, 67272, Note_on_c, 1, 80, 126
1, 67279, Note_off_c, 1, 78, 64
1, 67316, Note_on_c, 1, 81, 126
1, 67323, Note_off_c, 1, 80, 64
1, 67360, Note_on_c, 1, 80, 126
1, 67369, Note_off_c, 1, 81, 64
1, 67406, Note_off_c, 4, 57, 64
1, 67406, Note_off_c, 4, 45, 64
1, 67407, Note_on_c, 1, 81, 126
1, 67414, Note_off_c, 1, 80, 64
1, 67452, Note_on_c, 1, 78, 126
1, 67489, Note_off_c, 2, 73, 64
1, 67497, Note_on_c, 2, 74, 127
1, 67498, Note_on_c, 4, 50, 127
1, 67498, Note_on_c, 4, 38, 127
1, 67535, Note_off_c, 3, 69, 64
1, 67542, Note_on_c, 3, 69, 126
1, 67583, Note_off_c, 1, 81, 64
1, 67586, Note_off_c, 4, 38, 64
1, 67587, Note_off_c, 4, 50, 64
1, 67587, Note_on_c, 1, 81, 126
1, 67588, Note_on_c, 4, 54, 127
1, 67588, Note_on_c, 4, 42, 127
1, 67627, Note_off_c, 1, 78, 64
1, 67632, Note_on_c, 1, 78, 126
1, 67669, Note_off_c, 2, 74, 64
1, 67677, Note_off_c, 4, 42, 64
1, 67677, Note_off_c, 4, 54, 64
1, 67678, Note_on_c, 4, 57, 127
1, 67678, Note_on_c, 2, 74, 127
1, 67679, Note_on_c, 4, 45, 127
1, 67715, Note_off_c, 3, 69, 64
1, 67721, Note_on_c, 3, 69, 126
1, 67763, Note_off_c, 1, 81, 64
1, 67767, Note_off_c, 4, 57, 64
1, 67767, Note_off_c, 4, 45, 64
1, 67768, Note_on_c, 4, 62, 127
1, 67768, Note_on_c, 1, 81, 126
1, 67769, Note_on_c, 4, 50, 127
1, 67806, Note_off_c, 1, 78, 64
1, 67812, Note_on_c, 1, 78, 126
1, 67849, Note_off_c, 2, 74, 64
1, 67857, Note_on_c, 2, 74, 127
1, 67895, Note_off_c, 3, 69, 64
1, 67901, Note_on_c, 3, 69, 126
1, 67939, Note_off_c, 4, 50, 64
1, 67940, Note_off_c, 4, 62, 64
1, 67942, Note_off_c, 1, 81, 64
1, 67948, Note_off_c, 1, 78, 64
1, 67948, Note_off_c, 2, 74, 64
1, 67949, Note_on_c, 2, 76, 127
1, 67949, Note_on_c, 2, 73, 127
1, 67950, Note_on_c, 4, 64, 124
1, 67950, Note_on_c, 4, 52, 127
1, 68033, Note_off_c, 4, 52, 64
1, 68034, Note_off_c, 4, 64, 64
1, 68040, Note_on_c, 4, 64, 124
1, 68040, Note_on_c, 4, 52, 127
1, 68087, Note_off_c, 2, 73, 64
1, 68088, Note_off_c, 2, 76, 64
1, 68088, Note_on_c, 1, 78, 116
1, 68088, Note_on_c, 2, 74, 119
1, 68106, Note_off_c, 2, 74, 64
1, 68120, Note_on_c, 3, 71, 118
1, 68120, Note_on_c, 2, 74, 119
1, 68128, Note_off_c, 1, 78, 64
1, 68129, Note_off_c, 3, 69, 64
1, 68135, Note_off_c, 4, 52, 64
1, 68136, Note_off_c, 4, 64, 64
1, 68142, Note_off_c, 2, 74, 64
1, 68142, Note_on_c, 2, 73, 119
1, 68143, Note_on_c, 3, 69, 126
1, 68143, Note_on_c, 4, 64, 124
1, 68144, Note_on_c, 4, 52, 127
1, 68163, Note_off_c, 3, 71, 64
1, 68224, Note_off_c, 4, 64, 64
1, 68224, Note_off_c, 4, 52, 64
1, 68231, Note_on_c, 4, 64, 124
1, 68232, Note_on_c, 4, 52, 127
1, 68316, Note_off_c, 4, 52, 64
1, 68317, Note_off_c, 4, 64, 64
1, 68323, Note_on_c, 4, 64, 124
1, 68324, Note_on_c, 4, 52, 127
1, 68386, Note_off_c, 2, 73, 64
1, 68409, Note_off_c, 4, 64, 64
1, 68409, Note_off_c, 4, 52, 64
1, 68415, Note_on_c, 2, 76, 127
1, 68416, Note_on_c, 2, 73, 127
1, 68416, Note_on_c, 4, 64, 124
1, 68417, Note_on_c, 4, 52, 127
1, 68498, Note_off_c, 4, 52, 64
1, 68498, Note_off_c, 4, 64, 64
1, 68507, Note_on_c, 2, 74, 127
1, 68507, Note_on_c, 3, 71, 127
1, 68508, Note_off_c, 3, 69, 64
1, 68508, Note_on_c, 4, 64, 124
1, 68508, Note_on_c, 4, 52, 127
1, 68512, Note_off_c, 2, 73, 64
1, 68513, Note_off_c, 2, 76, 64
1, 68586, Note_off_c, 4, 52, 64
1, 68587, Note_off_c, 4, 64, 64
1, 68593, Note_off_c, 3, 71, 64
1, 68593, Note_on_c, 3, 71, 127
1, 68594, Note_on_c, 4, 64, 124
1, 68594, Note_on_c, 3, 68, 126
1, 68595, Note_on_c, 4, 52, 127
1, 68601, Note_off_c, 2, 74, 64
1, 68687, Note_on_c, 2, 73, 127
1, 68695, Note_off_c, 3, 71, 64
1, 68733, Note_on_c, 2, 76, 127
1, 68747, Note_off_c, 2, 73, 64
1, 68777, Note_on_c, 1, 81, 126
1, 68791, Note_off_c, 2, 76, 64
1, 68823, Note_off_c, 1, 81, 64
1, 68824, Note_on_c, 1, 80, 126
1, 68868, Note_off_c, 1, 80, 64
1, 68869, Note_on_c, 1, 81, 126
1, 68914, Note_on_c, 2, 76, 127
1, 68950, Note_off_c, 3, 68, 64
1, 68958, Note_off_c, 4, 64, 64
1, 68958, Note_off_c, 4, 52, 64
1, 68959, Note_on_c, 2, 73, 127
1, 68959, Note_on_c, 4, 45, 127
1, 68960, Note_on_c, 4, 33, 127
1, 69003, Note_on_c, 3, 69, 126
1, 69045, Note_off_c, 1, 81, 64
1, 69049, Note_off_c, 4, 33, 64
1, 69049, Note_off_c, 4, 45, 64
1, 69050, Note_on_c, 4, 49, 127
1, 69050, Note_on_c, 1, 81, 126
1, 69051, Note_on_c, 4, 37, 127
1, 69089, Note_off_c, 2, 76, 64
1, 69095, Note_on_c, 2, 76, 127
1, 69135, Note_off_c, 2, 73, 64
1, 69139, Note_off_c, 4, 37, 64
1, 69140, Note_off_c, 4, 49, 64
1, 69140, Note_on_c, 2, 73, 127
1, 69141, Note_on_c, 4, 52, 127
1, 69141, Note_on_c, 4, 40, 127
1, 69177, Note_off_c, 3, 69, 64
1, 69184, Note_on_c, 2, 69, 126
1, 69225, Note_off_c, 1, 81, 64
1, 69228, Note_off_c, 4, 40, 64
1, 69229, Note_off_c, 4, 52, 64
1, 69229, Note_on_c, 1, 81, 126
1, 69230, Note_on_c, 4, 45, 127
1, 69230, Note_on_c, 4, 57, 127
1, 69269, Note_off_c, 2, 76, 64
1, 69275, Note_on_c, 2, 76, 127
1, 69315, Note_off_c, 2, 73, 64
1, 69319, Note_on_c, 2, 73, 127
1, 69357, Note_off_c, 2, 69, 64
1, 69364, Note_on_c, 2, 69, 126
1, 69404, Note_off_c, 1, 81, 64
1, 69410, Note_off_c, 2, 76, 64
1, 69410, Note_on_c, 1, 78, 126
1, 69455, Note_off_c, 1, 78, 64
1, 69456, Note_on_c, 1, 80, 126
1, 69498, Note_off_c, 1, 80, 64
1, 69499, Note_on_c, 1, 81, 126
1, 69543, Note_off_c, 1, 81, 64
1, 69544, Note_on_c, 1, 80, 126
1, 69589, Note_off_c, 1, 80, 64
1, 69589, Note_off_c, 4, 45, 64
1, 69590, Note_off_c, 4, 57, 64
1, 69590, Note_on_c, 1, 81, 126
1, 69635, Note_on_c, 1, 78, 126
1, 69671, Note_off_c, 2, 73, 64
1, 69679, Note_on_c, 2, 74, 127
1, 69679, Note_on_c, 4, 50, 127
1, 69680, Note_on_c, 4, 38, 127
1, 69717, Note_off_c, 2, 69, 64
1, 69727, Note_on_c, 2, 69, 126
1, 69767, Note_off_c, 1, 81, 64
1, 69771, Note_off_c, 4, 38, 64
1, 69771, Note_on_c, 1, 81, 126
1, 69772, Note_off_c, 4, 50, 64
1, 69772, Note_on_c, 4, 54, 127
1, 69773, Note_on_c, 4, 42, 127
1, 69812, Note_off_c, 1, 78, 64
1, 69816, Note_on_c, 1, 78, 126
1, 69856, Note_off_c, 2, 74, 64
1, 69862, Note_on_c, 2, 74, 127
1, 69863, Note_off_c, 4, 54, 64
1, 69863, Note_off_c, 4, 42, 64
1, 69864, Note_on_c, 4, 57, 127
1, 69864, Note_on_c, 4, 45, 127
1, 69900, Note_off_c, 2, 69, 64
1, 69908, Note_on_c, 2, 69, 126
1, 69947, Note_off_c, 1, 81, 64
1, 69952, Note_on_c, 1, 81, 126
1, 69953, Note_off_c, 4, 45, 64
1, 69953, Note_off_c, 4, 57, 64
1, 69954, Note_on_c, 4, 50, 127
1, 69954, Note_on_c, 4, 62, 127
1, 69993, Note_off_c, 1, 78, 64
1, 69997, Note_on_c, 1, 78, 126
1, 70038, Note_off_c, 2, 74, 64
1, 70042, Note_on_c, 2, 74, 127
1, 70080, Note_off_c, 2, 69, 64
1, 70088, Note_on_c, 2, 69, 126
1, 70094, Note_off_c, 2, 74, 64
1, 70125, Note_off_c, 4, 62, 64
1, 70125, Note_off_c, 4, 50, 64
1, 70127, Note_off_c, 1, 81, 64
1, 70131, Note_off_c, 1, 78, 64
1, 70132, Note_on_c, 2, 76, 127
1, 70132, Note_on_c, 2, 73, 127
1, 70133, Note_on_c, 4, 64, 124
1, 70133, Note_on_c, 4, 52, 127
1, 70219, Note_off_c, 4, 52, 64
1, 70220, Note_off_c, 4, 64, 64
1, 70226, Note_on_c, 4, 64, 124
1, 70227, Note_on_c, 4, 52, 127
1, 70272, Note_off_c, 2, 73, 64
1, 70272, Note_off_c, 2, 76, 64
1, 70272, Note_on_c, 1, 78, 116
1, 70272, Note_on_c, 2, 74, 119
1, 70291, Note_off_c, 2, 74, 64
1, 70300, Note_on_c, 2, 74, 119
1, 70301, Note_on_c, 2, 71, 118
1, 70309, Note_off_c, 1, 78, 64
1, 70309, Note_off_c, 2, 69, 64
1, 70318, Note_off_c, 4, 52, 64
1, 70318, Note_off_c, 4, 64, 64
1, 70324, Note_off_c, 2, 74, 64
1, 70325, Note_on_c, 2, 69, 126
1, 70325, Note_on_c, 2, 73, 124
1, 70326, Note_on_c, 4, 64, 124
1, 70326, Note_on_c, 4, 52, 127
1, 70347, Note_off_c, 2, 71, 64
1, 70410, Note_off_c, 4, 52, 64
1, 70411, Note_off_c, 4, 64, 64
1, 70417, Note_on_c, 4, 64, 124
1, 70418, Note_on_c, 4, 52, 127
1, 70505, Note_off_c, 4, 52, 64
1, 70505, Note_off_c, 4, 64, 64
1, 70513, Note_on_c, 4, 52, 127
1, 70513, Note_on_c, 4, 64, 124
1, 70576, Note_off_c, 2, 73, 64
1, 70600, Note_off_c, 4, 52, 64
1, 70601, Note_off_c, 4, 64, 64
1, 70608, Note_on_c, 2, 76, 127
1, 70608, Note_on_c, 2, 73, 127
1, 70608, Note_on_c, 4, 64, 124
1, 70609, Note_on_c, 4, 52, 127
1, 70692, Note_off_c, 4, 52, 64
1, 70692, Note_off_c, 4, 64, 64
1, 70699, Note_off_c, 2, 73, 64
1, 70699, Note_off_c, 2, 76, 64
1, 70700, Note_off_c, 2, 69, 64
1, 70700, Note_on_c, 2, 74, 127
1, 70701, Note_on_c, 2, 71, 127
1, 70701, Note_on_c, 4, 64, 124
1, 70702, Note_on_c, 4, 52, 127
1, 70780, Note_off_c, 2, 71, 64
1, 70781, Note_off_c, 4, 52, 64
1, 70781, Note_off_c, 4, 64, 64
1, 70788, Note_off_c, 2, 74, 64
1, 70788, Note_on_c, 2, 71, 127
1, 70789, Note_on_c, 4, 64, 124
1, 70789, Note_on_c, 2, 68, 126
1, 70790, Note_on_c, 4, 52, 127
1, 70882, Note_off_c, 2, 71, 64
1, 70882, Note_off_c, 2, 68, 64
1, 70883, Note_off_c, 4, 52, 64
1, 70884, Note_off_c, 4, 64, 64
1, 70884, Note_on_c, 2, 69, 126
1, 70884, Note_on_c, 4, 57, 127
1, 71024, Note_off_c, 2, 69, 64
1, 71025, Note_off_c, 4, 57, 64
1, 71025, Note_on_c, 2, 71, 127
1, 71026, Note_on_c, 4, 59, 127
1, 71051, Note_on_c, 2, 68, 126
1, 71053, Note_on_c, 4, 55, 127
1, 71063, Note_off_c, 2, 71, 64
1, 71063, Note_off_c, 4, 59, 64
1, 71079, Note_on_c, 4, 66, 126
1, 71079, Note_on_c, 4, 54, 127
1, 71087, Note_off_c, 2, 68, 64
1, 71088, Note_off_c, 4, 55, 64
1, 71198, Note_off_c, 4, 54, 64
1, 71198, Note_off_c, 4, 66, 64
1, 71222, Note_on_c, 2, 68, 126
1, 71224, Note_on_c, 4, 56, 127
1, 71249, Note_on_c, 4, 52, 127
1, 71249, Note_on_c, 4, 64, 124
1, 71259, Note_off_c, 2, 68, 64
1, 71260, Note_off_c, 4, 56, 64
1, 71277, Note_off_c, 4, 64, 64
1, 71277, Note_on_c, 4, 62, 127
1, 71278, Note_on_c, 4, 50, 127
1, 71280, Note_off_c, 4, 52, 64
1, 71398, Note_off_c, 4, 62, 64
1, 71398, Note_off_c, 4, 50, 64
1, 71423, Note_on_c, 4, 64, 124
1, 71423, Note_on_c, 4, 52, 127
1, 71448, Note_on_c, 4, 61, 127
1, 71449, Note_on_c, 4, 49, 127
1, 71460, Note_off_c, 4, 52, 64
1, 71460, Note_off_c, 4, 64, 64
1, 71479, Note_on_c, 4, 59, 127
1, 71480, Note_on_c, 4, 47, 127
1, 71486, Note_off_c, 4, 49, 64
1, 71486, Note_off_c, 4, 61, 64
1, 71618, Note_off_c, 4, 59, 64
1, 71622, Note_off_c, 4, 47, 64
1, 71624, Note_on_c, 4, 61, 127
1, 71625, Note_on_c, 4, 49, 127
1, 71649, Note_on_c, 4, 57, 127
1, 71650, Note_on_c, 4, 45, 127
1, 71659, Note_off_c, 4, 49, 64
1, 71659, Note_off_c, 4, 61, 64
1, 71680, Note_on_c, 4, 44, 127
1, 71680, Note_on_c, 4, 56, 127
1, 71688, Note_off_c, 4, 57, 64
1, 71689, Note_off_c, 4, 45, 64
1, 71866, Note_on_c, 2, 76, 127
1, 71878, Note_on_c, 1, 80, 126
1, 71891, Note_on_c, 1, 82, 126
1, 71901, Note_on_c, 1, 86, 126
1, 72052, Note_off_c, 4, 56, 64
1, 72053, Note_off_c, 4, 44, 64
1, 72054, Note_on_c, 4, 57, 127
1, 72055, Note_on_c, 4, 45, 127
1, 72147, Note_off_c, 2, 76, 64
1, 72158, Note_off_c, 1, 80, 64
1, 72169, Note_off_c, 1, 82, 64
1, 72181, Note_off_c, 1, 86, 64
1, 72243, Note_on_c, 2, 73, 127
1, 72256, Note_on_c, 2, 76, 127
1, 72275, Note_on_c, 1, 81, 126
1, 72293, Note_on_c, 1, 85, 126
1, 72450, Note_off_c, 4, 57, 64
1, 72452, Note_on_c, 2, 69, 126
1, 72453, Note_on_c, 4, 62, 127
1, 72496, Note_off_c, 2, 73, 64
1, 72505, Note_off_c, 2, 76, 64
1, 72517, Note_off_c, 1, 81, 64
1, 72527, Note_off_c, 1, 85, 64
1, 72540, Note_on_c, 1, 78, 124
1, 72638, Note_on_c, 2, 77, 125
1, 72647, Note_off_c, 1, 78, 64
1, 72728, Note_on_c, 1, 78, 124
1, 72734, Note_off_c, 2, 77, 64
1, 72815, Note_on_c, 2, 77, 125
1, 72823, Note_off_c, 1, 78, 64
1, 72911, Note_on_c, 1, 78, 124
1, 72917, Note_off_c, 2, 77, 64
1, 72997, Note_on_c, 1, 80, 124
1, 73005, Note_off_c, 1, 78, 64
1, 73084, Note_on_c, 1, 81, 124
1, 73092, Note_off_c, 1, 80, 64
1, 73174, Note_on_c, 2, 72, 125
1, 73175, Note_on_c, 4, 63, 125
1, 73189, Note_off_c, 2, 69, 64
1, 73190, Note_off_c, 4, 62, 64
1, 73256, Note_off_c, 1, 81, 64
1, 73263, Note_on_c, 1, 81, 124
1, 73356, Note_on_c, 1, 80, 124
1, 73363, Note_off_c, 1, 81, 64
1, 73450, Note_on_c, 1, 81, 124
1, 73457, Note_off_c, 1, 80, 64
1, 73536, Note_on_c, 1, 80, 124
1, 73544, Note_off_c, 1, 81, 64
1, 73630, Note_on_c, 1, 81, 124
1, 73638, Note_off_c, 1, 80, 64
1, 73722, Note_on_c, 1, 83, 124
1, 73730, Note_off_c, 1, 81, 64
1, 73811, Note_on_c, 1, 84, 124
1, 73818, Note_off_c, 1, 83, 64
1, 73826, Note_off_c, 4, 45, 64
1, 73899, Note_on_c, 4, 52, 127
1, 73899, Note_on_c, 1, 85, 124
1, 73908, Note_off_c, 1, 84, 64
1, 73915, Note_off_c, 2, 72, 64
1, 73917, Note_off_c, 4, 63, 64
1, 73946, Note_on_c, 1, 88, 125
1, 73946, Note_on_c, 4, 61, 127
1, 73962, Note_off_c, 1, 85, 64
1, 73993, Note_on_c, 1, 85, 124
1, 73994, Note_on_c, 4, 57, 127
1, 74005, Note_off_c, 1, 88, 64
1, 74027, Note_off_c, 4, 61, 64
1, 74034, Note_on_c, 1, 81, 123
1, 74035, Note_on_c, 4, 61, 127
1, 74049, Note_off_c, 1, 85, 64
1, 74049, Note_off_c, 4, 52, 64
1, 74071, Note_off_c, 1, 81, 64
1, 74078, Note_on_c, 1, 81, 123
1, 74079, Note_on_c, 4, 52, 127
1, 74116, Note_off_c, 4, 61, 64
1, 74124, Note_on_c, 4, 61, 127
1, 74124, Note_on_c, 1, 85, 119
1, 74138, Note_off_c, 1, 81, 64
1, 74138, Note_off_c, 4, 57, 64
1, 74172, Note_on_c, 1, 81, 123
1, 74172, Note_on_c, 4, 57, 127
1, 74186, Note_off_c, 1, 85, 64
1, 74207, Note_off_c, 4, 61, 64
1, 74213, Note_on_c, 2, 76, 125
1, 74213, Note_on_c, 4, 61, 127
1, 74227, Note_off_c, 1, 81, 64
1, 74228, Note_off_c, 4, 52, 64
1, 74247, Note_off_c, 2, 76, 64
1, 74255, Note_on_c, 2, 76, 125
1, 74256, Note_on_c, 4, 52, 127
1, 74291, Note_off_c, 4, 61, 64
1, 74298, Note_on_c, 1, 81, 123
1, 74299, Note_on_c, 4, 61, 127
1, 74313, Note_off_c, 2, 76, 64
1, 74313, Note_off_c, 4, 57, 64
1, 74346, Note_on_c, 2, 76, 125
1, 74347, Note_on_c, 4, 57, 127
1, 74361, Note_off_c, 1, 81, 64
1, 74380, Note_off_c, 4, 61, 64
1, 74388, Note_on_c, 4, 61, 127
1, 74388, Note_on_c, 2, 73, 125
1, 74402, Note_off_c, 2, 76, 64
1, 74402, Note_off_c, 4, 52, 64
1, 74424, Note_off_c, 2, 73, 64
1, 74430, Note_on_c, 2, 73, 125
1, 74430, Note_on_c, 4, 52, 127
1, 74471, Note_off_c, 4, 61, 64
1, 74479, Note_on_c, 2, 76, 125
1, 74479, Note_on_c, 4, 61, 127
1, 74493, Note_off_c, 2, 73, 64
1, 74494, Note_off_c, 4, 57, 64
1, 74525, Note_on_c, 4, 57, 127
1, 74525, Note_on_c, 2, 73, 125
1, 74540, Note_off_c, 2, 76, 64
1, 74560, Note_off_c, 4, 61, 64
1, 74568, Note_on_c, 4, 61, 127
1, 74568, Note_on_c, 2, 69, 121
1, 74584, Note_off_c, 2, 73, 64
1, 74585, Note_off_c, 4, 52, 64
1, 74614, Note_on_c, 2, 73, 125
1, 74615, Note_on_c, 4, 52, 127
1, 74638, Note_off_c, 2, 69, 64
1, 74661, Note_on_c, 2, 71, 122
1, 74663, Note_off_c, 4, 61, 64
1, 74671, Note_on_c, 4, 62, 127
1, 74686, Note_off_c, 2, 73, 64
1, 74687, Note_off_c, 4, 57, 64
1, 74708, Note_on_c, 2, 73, 125
1, 74718, Note_on_c, 4, 56, 127
1, 74736, Note_off_c, 2, 71, 64
1, 74750, Note_on_c, 2, 71, 122
1, 74759, Note_off_c, 4, 62, 64
1, 74767, Note_off_c, 2, 73, 64
1, 74767, Note_on_c, 4, 62, 127
1, 74783, Note_off_c, 4, 52, 64
1, 74788, Note_on_c, 2, 73, 125
1, 74815, Note_on_c, 4, 52, 127
1, 74824, Note_off_c, 2, 71, 64
1, 74845, Note_on_c, 2, 71, 124
1, 74854, Note_off_c, 4, 62, 64
1, 74861, Note_on_c, 4, 62, 127
1, 74872, Note_off_c, 2, 73, 64
1, 74877, Note_off_c, 4, 56, 64
1, 74890, Note_on_c, 2, 73, 124
1, 74911, Note_on_c, 4, 56, 127
1, 74934, Note_off_c, 2, 71, 64
1, 74947, Note_on_c, 2, 71, 119
1, 74949, Note_off_c, 4, 62, 64
1, 74957, Note_on_c, 4, 62, 127
1, 74971, Note_off_c, 4, 52, 64
1, 74978, Note_off_c, 2, 73, 64
1, 75000, Note_on_c, 4, 52, 127
1, 75003, Note_on_c, 2, 73, 122
1, 75032, Note_off_c, 2, 71, 64
1, 75038, Note_off_c, 4, 62, 64
1, 75046, Note_on_c, 4, 62, 127
1, 75049, Note_on_c, 2, 71, 119
1, 75059, Note_off_c, 4, 56, 64
1, 75082, Note_off_c, 2, 73, 64
1, 75086, Note_on_c, 4, 56, 127
1, 75097, Note_on_c, 2, 73, 122
1, 75117, Note_off_c, 4, 62, 64
1, 75122, Note_on_c, 4, 62, 127
1, 75132, Note_off_c, 2, 71, 64
1, 75134, Note_off_c, 4, 52, 64
1, 75147, Note_on_c, 2, 71, 119
1, 75157, Note_on_c, 4, 52, 127
1, 75166, Note_off_c, 2, 73, 64
1, 75188, Note_off_c, 4, 62, 64
1, 75195, Note_on_c, 4, 62, 127
1, 75201, Note_on_c, 2, 73, 124
1, 75203, Note_off_c, 2, 71, 64
1, 75207, Note_off_c, 4, 56, 64
1, 75234, Note_on_c, 2, 71, 126
1, 75239, Note_on_c, 4, 56, 127
1, 75240, Note_off_c, 2, 73, 64
1, 75265, Note_off_c, 4, 52, 64
1, 75287, Note_off_c, 4, 62, 64
1, 75292, Note_on_c, 2, 69, 122
1, 75293, Note_on_c, 4, 62, 127
1, 75297, Note_off_c, 2, 71, 64
1, 75318, Note_off_c, 2, 69, 64
1, 75319, Note_on_c, 2, 71, 124
1, 75339, Note_off_c, 4, 56, 64
1, 75343, Note_off_c, 4, 62, 64
1, 75347, Note_off_c, 2, 71, 64
1, 75348, Note_on_c, 4, 57, 127
1, 75348, Note_on_c, 2, 69, 125
1, 75628, Note_on_c, 2, 73, 126
1, 75629, Note_on_c, 4, 61, 127
1, 75645, Note_off_c, 2, 69, 64
1, 75645, Note_off_c, 4, 57, 64
1, 75680, Note_on_c, 2, 69, 123
1, 75681, Note_on_c, 4, 57, 127
1, 75687, Note_off_c, 4, 61, 64
1, 75687, Note_off_c, 2, 73, 64
1, 75722, Note_on_c, 2, 74, 126
1, 75723, Note_on_c, 4, 62, 127
1, 75731, Note_off_c, 4, 57, 64
1, 75732, Note_off_c, 2, 69, 64
1, 75816, Note_off_c, 4, 62, 64
1, 75817, Note_off_c, 2, 74, 64
1, 75817, Note_on_c, 2, 71, 125
1, 75818, Note_on_c, 4, 59, 127
1, 75868, Note_on_c, 2, 68, 123
1, 75869, Note_on_c, 4, 56, 127
1, 75875, Note_off_c, 4, 59, 64
1, 75876, Note_off_c, 2, 71, 64
1, 75911, Note_on_c, 2, 69, 123
1, 75911, Note_on_c, 4, 57, 127
1, 75917, Note_off_c, 4, 56, 64
1, 75918, Note_off_c, 2, 68, 64
1, 76003, Note_off_c, 4, 57, 64
1, 76003, Note_off_c, 2, 69, 64
1, 76004, Note_on_c, 4, 66, 123
1, 76004, Note_on_c, 4, 54, 127
1, 76051, Note_on_c, 4, 51, 127
1, 76051, Note_on_c, 4, 63, 125
1, 76057, Note_off_c, 4, 54, 64
1, 76058, Note_off_c, 4, 66, 64
1, 76097, Note_on_c, 4, 64, 121
1, 76097, Note_on_c, 4, 52, 127
1, 76105, Note_off_c, 4, 51, 64
1, 76106, Note_off_c, 4, 63, 64
1, 76275, Note_off_c, 4, 52, 64
1, 76276, Note_off_c, 4, 64, 64
1, 76282, Note_on_c, 1, 80, 126
1, 76283, Note_on_c, 2, 71, 127
1, 76283, Note_on_c, 2, 74, 127
1, 76284, Note_on_c, 4, 40, 127
1, 76284, Note_on_c, 4, 52, 127
1, 76468, Note_off_c, 4, 40, 64
1, 76469, Note_off_c, 2, 71, 64
1, 76469, Note_off_c, 4, 52, 64
1, 76470, Note_off_c, 1, 80, 64
1, 76470, Note_off_c, 2, 74, 64
1, 76478, Note_on_c, 4, 45, 127
1, 76478, Note_on_c, 2, 69, 126
1, 76479, Note_on_c, 4, 33, 127
1, 76488, Note_on_c, 2, 73, 127
1, 76500, Note_on_c, 2, 76, 127
1, 76512, Note_on_c, 1, 81, 126
1, 76741, Note_off_c, 2, 69, 64
1, 76749, Note_off_c, 2, 73, 64
1, 76758, Note_off_c, 2, 76, 64
1, 76768, Note_off_c, 1, 81, 64
1, 76876, Note_on_c, 2, 69, 126
1, 76877, Note_on_c, 4, 57, 127
1, 76923, Note_on_c, 1, 81, 126
1, 76971, Note_on_c, 1, 80, 126
1, 76979, Note_off_c, 1, 81, 64
1, 77019, Note_on_c, 1, 81, 126
1, 77027, Note_off_c, 1, 80, 64
1, 77058, Note_off_c, 2, 69, 64
1, 77060, Note_off_c, 4, 57, 64
1, 77067, Note_on_c, 2, 69, 126
1, 77068, Note_on_c, 4, 60, 127
1, 77112, Note_off_c, 1, 81, 64
1, 77114, Note_on_c, 1, 81, 126
1, 77164, Note_on_c, 2, 71, 127
1, 77165, Note_on_c, 4, 62, 127
1, 77172, Note_off_c, 4, 60, 64
1, 77172, Note_off_c, 2, 69, 64
1, 77207, Note_off_c, 1, 81, 64
1, 77211, Note_on_c, 1, 81, 126
1, 77258, Note_on_c, 4, 64, 124
1, 77258, Note_on_c, 2, 72, 127
1, 77265, Note_off_c, 4, 62, 64
1, 77265, Note_off_c, 2, 71, 64
1, 77302, Note_off_c, 1, 81, 64
1, 77304, Note_on_c, 1, 81, 126
1, 77352, Note_on_c, 2, 74, 127
1, 77352, Note_on_c, 4, 65, 126
1, 77361, Note_off_c, 2, 72, 64
1, 77361, Note_off_c, 4, 64, 64
1, 77396, Note_off_c, 1, 81, 64
1, 77398, Note_on_c, 1, 81, 126
1, 77444, Note_on_c, 2, 72, 127
1, 77445, Note_on_c, 4, 64, 124
1, 77453, Note_off_c, 4, 65, 64
1, 77453, Note_off_c, 2, 74, 64
1, 77490, Note_off_c, 1, 81, 64
1, 77492, Note_on_c, 1, 81, 126
1, 77540, Note_on_c, 2, 71, 127
1, 77541, Note_on_c, 4, 62, 127
1, 77549, Note_off_c, 2, 72, 64
1, 77549, Note_off_c, 4, 64, 64
1, 77586, Note_off_c, 1, 81, 64
1, 77588, Note_on_c, 1, 81, 126
1, 77638, Note_on_c, 2, 69, 126
1, 77639, Note_on_c, 4, 60, 127
1, 77647, Note_off_c, 4, 62, 64
1, 77647, Note_off_c, 2, 71, 64
1, 77682, Note_off_c, 1, 81, 64
1, 77686, Note_on_c, 1, 81, 126
1, 77732, Note_on_c, 1, 80, 122
1, 77741, Note_off_c, 1, 81, 64
1, 77779, Note_on_c, 1, 81, 118
1, 77787, Note_off_c, 1, 80, 64
1, 77793, Note_off_c, 2, 69, 64
1, 77825, Note_on_c, 1, 84, 118
1, 77826, Note_on_c, 2, 69, 126
1, 77832, Note_off_c, 1, 81, 64
1, 77870, Note_on_c, 1, 81, 118
1, 77909, Note_off_c, 2, 69, 64
1, 77916, Note_off_c, 1, 81, 64
1, 77917, Note_off_c, 1, 84, 64
1, 77917, Note_on_c, 1, 83, 118
1, 77918, Note_on_c, 2, 69, 126
1, 77964, Note_on_c, 1, 79, 114
1, 78003, Note_off_c, 2, 69, 64
1, 78011, Note_off_c, 1, 83, 64
1, 78011, Note_off_c, 1, 79, 64
1, 78012, Note_on_c, 1, 81, 118
1, 78012, Note_on_c, 2, 69, 126
1, 78059, Note_on_c, 1, 78, 114
1, 78097, Note_off_c, 2, 69, 64
1, 78105, Note_off_c, 1, 81, 64
1, 78105, Note_on_c, 1, 83, 118
1, 78106, Note_on_c, 2, 69, 126
1, 78111, Note_off_c, 1, 78, 64
1, 78152, Note_on_c, 1, 79, 114
1, 78190, Note_off_c, 2, 69, 64
1, 78198, Note_off_c, 1, 83, 64
1, 78198, Note_on_c, 1, 81, 118
1, 78199, Note_on_c, 2, 69, 126
1, 78205, Note_off_c, 1, 79, 64
1, 78244, Note_on_c, 1, 78, 114
1, 78284, Note_off_c, 2, 69, 64
1, 78292, Note_off_c, 1, 81, 64
1, 78292, Note_on_c, 1, 79, 114
1, 78293, Note_on_c, 2, 69, 126
1, 78301, Note_off_c, 1, 78, 64
1, 78340, Note_on_c, 2, 76, 121
1, 78348, Note_off_c, 1, 79, 64
1, 78386, Note_on_c, 1, 78, 118
1, 78386, Note_on_c, 2, 75, 121
1, 78394, Note_off_c, 2, 76, 64
1, 78434, Note_on_c, 1, 83, 126
1, 78449, Note_off_c, 1, 78, 64
1, 78450, Note_off_c, 2, 75, 64
1, 78482, Note_off_c, 1, 83, 64
1, 78482, Note_on_c, 1, 82, 126
1, 78529, Note_off_c, 1, 82, 64
1, 78530, Note_on_c, 1, 83, 126
1, 78578, Note_off_c, 2, 69, 64
1, 78578, Note_on_c, 2, 75, 121
1, 78579, Note_on_c, 4, 66, 126
1, 78623, Note_off_c, 1, 83, 64
1, 78627, Note_on_c, 1, 83, 126
1, 78673, Note_on_c, 2, 67, 126
1, 78673, Note_on_c, 2, 76, 121
1, 78682, Note_off_c, 4, 66, 64
1, 78682, Note_off_c, 2, 75, 64
1, 78719, Note_off_c, 1, 83, 64
1, 78721, Note_on_c, 1, 83, 126
1, 78769, Note_on_c, 1, 78, 118
1, 78769, Note_on_c, 2, 69, 126
1, 78778, Note_off_c, 2, 76, 64
1, 78778, Note_off_c, 2, 67, 64
1, 78815, Note_off_c, 1, 83, 64
1, 78817, Note_on_c, 1, 83, 126
1, 78863, Note_off_c, 4, 45, 64
1, 78864, Note_on_c, 2, 71, 127
1, 78864, Note_on_c, 1, 79, 118
1, 78872, Note_off_c, 2, 69, 64
1, 78873, Note_off_c, 1, 78, 64
1, 78909, Note_off_c, 1, 83, 64
1, 78911, Note_on_c, 1, 83, 126
1, 78959, Note_on_c, 1, 78, 118
1, 78960, Note_on_c, 2, 69, 126
1, 78968, Note_off_c, 1, 79, 64
1, 78968, Note_off_c, 2, 71, 64
1, 79003, Note_off_c, 1, 83, 64
1, 79007, Note_on_c, 1, 83, 126
1, 79053, Note_on_c, 2, 76, 121
1, 79054, Note_on_c, 2, 67, 126
1, 79060, Note_off_c, 2, 69, 64
1, 79060, Note_off_c, 1, 78, 64
1, 79099, Note_off_c, 1, 83, 64
1, 79101, Note_on_c, 1, 83, 122
1, 79150, Note_on_c, 4, 66, 126
1, 79150, Note_on_c, 2, 75, 121
1, 79158, Note_off_c, 2, 67, 64
1, 79159, Note_off_c, 2, 76, 64
1, 79193, Note_off_c, 1, 83, 64
1, 79197, Note_on_c, 1, 83, 118
1, 79212, Note_off_c, 2, 75, 64
1, 79243, Note_off_c, 1, 83, 64
1, 79244, Note_on_c, 1, 82, 118
1, 79290, Note_off_c, 1, 82, 64
1, 79291, Note_on_c, 1, 83, 118
1, 79337, Note_off_c, 1, 83, 64
1, 79338, Note_on_c, 1, 84, 110
1, 79338, Note_on_c, 2, 71, 127
1, 79382, Note_on_c, 1, 81, 110
1, 79421, Note_off_c, 2, 71, 64
1, 79428, Note_off_c, 1, 81, 64
1, 79429, Note_off_c, 1, 84, 64
1, 79429, Note_on_c, 1, 83, 110
1, 79430, Note_on_c, 2, 71, 127
1, 79475, Note_on_c, 1, 79, 106
1, 79514, Note_off_c, 2, 71, 64
1, 79522, Note_off_c, 1, 79, 64
1, 79522, Note_off_c, 1, 83, 64
1, 79523, Note_on_c, 1, 81, 110
1, 79523, Note_on_c, 2, 71, 127
1, 79570, Note_on_c, 1, 78, 106
1, 79608, Note_off_c, 2, 71, 64
1, 79616, Note_off_c, 1, 78, 64
1, 79617, Note_off_c, 1, 81, 64
1, 79617, Note_on_c, 2, 71, 127
1, 79617, Note_on_c, 1, 79, 106
1, 79662, Note_on_c, 2, 76, 113
1, 79701, Note_off_c, 2, 71, 64
1, 79708, Note_off_c, 2, 76, 64
1, 79709, Note_off_c, 1, 79, 64
1, 79709, Note_on_c, 1, 78, 106
1, 79710, Note_on_c, 2, 71, 127
1, 79756, Note_on_c, 2, 74, 117
1, 79797, Note_off_c, 2, 71, 64
1, 79804, Note_off_c, 2, 74, 64
1, 79805, Note_off_c, 1, 78, 64
1, 79805, Note_on_c, 1, 81, 114
1, 79806, Note_on_c, 2, 71, 127
1, 79852, Note_off_c, 1, 81, 64
1, 79853, Note_on_c, 1, 78, 110
1, 79892, Note_off_c, 2, 71, 64
1, 79897, Note_off_c, 1, 78, 64
1, 79899, Note_on_c, 1, 79, 114
1, 79900, Note_on_c, 2, 71, 127
1, 79931, Note_off_c, 4, 66, 64
1, 79946, Note_on_c, 2, 76, 121
1, 79987, Note_off_c, 2, 71, 64
1, 79994, Note_off_c, 4, 60, 64
1, 79995, Note_on_c, 2, 75, 125
1, 80003, Note_off_c, 2, 76, 64
1, 80041, Note_on_c, 2, 76, 125
1, 80051, Note_off_c, 2, 75, 64
1, 80089, Note_on_c, 4, 64, 124
1, 80090, Note_on_c, 4, 55, 127
1, 80092, Note_off_c, 1, 79, 64
1, 80134, Note_off_c, 2, 76, 64
1, 80136, Note_on_c, 2, 76, 125
1, 80184, Note_on_c, 4, 66, 126
1, 80185, Note_on_c, 4, 57, 127
1, 80193, Note_off_c, 4, 64, 64
1, 80193, Note_off_c, 4, 55, 64
1, 80228, Note_off_c, 2, 76, 64
1, 80231, Note_on_c, 2, 76, 127
1, 80277, Note_on_c, 2, 67, 126
1, 80277, Note_on_c, 4, 59, 127
1, 80287, Note_off_c, 4, 57, 64
1, 80288, Note_off_c, 4, 66, 64
1, 80323, Note_off_c, 2, 76, 64
1, 80327, Note_on_c, 2, 76, 127
1, 80373, Note_on_c, 4, 60, 127
1, 80373, Note_on_c, 2, 69, 126
1, 80383, Note_off_c, 4, 59, 64
1, 80384, Note_off_c, 2, 67, 64
1, 80417, Note_off_c, 2, 76, 64
1, 80419, Note_on_c, 2, 76, 125
1, 80434, Note_off_c, 4, 33, 64
1, 80465, Note_on_c, 2, 67, 126
1, 80465, Note_on_c, 4, 59, 127
1, 80475, Note_off_c, 4, 60, 64
1, 80476, Note_off_c, 2, 69, 64
1, 80511, Note_off_c, 2, 76, 64
1, 80513, Note_on_c, 2, 76, 125
1, 80559, Note_on_c, 4, 57, 127
1, 80559, Note_on_c, 4, 66, 126
1, 80569, Note_off_c, 4, 59, 64
1, 80570, Note_off_c, 2, 67, 64
1, 80603, Note_off_c, 2, 76, 64
1, 80605, Note_on_c, 2, 76, 121
1, 80651, Note_on_c, 4, 64, 120
1, 80652, Note_on_c, 4, 55, 127
1, 80662, Note_off_c, 4, 66, 64
1, 80662, Note_off_c, 4, 57, 64
1, 80697, Note_off_c, 2, 76, 64
1, 80701, Note_on_c, 2, 76, 121
1, 80749, Note_off_c, 2, 76, 64
1, 80749, Note_on_c, 2, 75, 121
1, 80794, Note_off_c, 2, 75, 64
1, 80795, Note_on_c, 2, 76, 121
1, 80837, Note_off_c, 4, 64, 64
1, 80841, Note_on_c, 1, 79, 114
1, 80842, Note_on_c, 4, 64, 120
1, 80884, Note_off_c, 2, 76, 64
1, 80886, Note_on_c, 2, 76, 117
1, 80925, Note_off_c, 4, 64, 64
1, 80932, Note_off_c, 2, 76, 64
1, 80933, Note_off_c, 1, 79, 64
1, 80933, Note_on_c, 1, 78, 114
1, 80934, Note_on_c, 4, 64, 120
1, 80978, Note_on_c, 2, 74, 121
1, 81019, Note_off_c, 4, 64, 64
1, 81026, Note_off_c, 1, 78, 64
1, 81027, Note_on_c, 2, 76, 117
1, 81027, Note_on_c, 4, 64, 120
1, 81033, Note_off_c, 2, 74, 64
1, 81072, Note_on_c, 2, 73, 121
1, 81112, Note_off_c, 4, 64, 64
1, 81120, Note_off_c, 2, 76, 64
1, 81120, Note_on_c, 1, 78, 114
1, 81120, Note_on_c, 4, 64, 120
1, 81128, Note_off_c, 2, 73, 64
1, 81167, Note_on_c, 2, 74, 121
1, 81204, Note_off_c, 4, 64, 64
1, 81212, Note_off_c, 1, 78, 64
1, 81212, Note_on_c, 2, 76, 117
1, 81213, Note_on_c, 4, 64, 120
1, 81220, Note_off_c, 2, 74, 64
1, 81261, Note_on_c, 2, 73, 121
1, 81299, Note_off_c, 4, 64, 64
1, 81307, Note_off_c, 2, 76, 64
1, 81307, Note_on_c, 2, 74, 121
1, 81308, Note_on_c, 4, 64, 120
1, 81313, Note_off_c, 2, 73, 64
1, 81352, Note_on_c, 2, 71, 120
1, 81360, Note_off_c, 2, 74, 64
1, 81400, Note_on_c, 2, 73, 121
1, 81400, Note_on_c, 2, 70, 118
1, 81407, Note_off_c, 2, 71, 64
1, 81445, Note_on_c, 1, 78, 118
1, 81493, Note_off_c, 1, 78, 64
1, 81493, Note_on_c, 2, 77, 121
1, 81540, Note_off_c, 2, 77, 64
1, 81540, Note_on_c, 1, 78, 118
1, 81581, Note_off_c, 2, 70, 64
1, 81582, Note_off_c, 2, 73, 64
1, 81586, Note_off_c, 4, 64, 64
1, 81587, Note_on_c, 4, 66, 118
1, 81587, Note_on_c, 2, 70, 118
1, 81630, Note_off_c, 1, 78, 64
1, 81632, Note_on_c, 1, 78, 114
1, 81679, Note_off_c, 2, 70, 64
1, 81679, Note_off_c, 4, 66, 64
1, 81680, Note_on_c, 2, 71, 120
1, 81680, Note_on_c, 2, 68, 118
1, 81722, Note_off_c, 1, 78, 64
1, 81724, Note_on_c, 1, 78, 114
1, 81770, Note_off_c, 2, 68, 64
1, 81771, Note_off_c, 2, 71, 64
1, 81771, Note_on_c, 2, 73, 117
1, 81772, Note_on_c, 2, 70, 118
1, 81815, Note_off_c, 1, 78, 64
1, 81816, Note_on_c, 1, 78, 114
1, 81865, Note_off_c, 2, 73, 64
1, 81865, Note_off_c, 2, 70, 64
1, 81865, Note_on_c, 2, 74, 117
1, 81866, Note_on_c, 2, 71, 120
1, 81911, Note_off_c, 1, 78, 64
1, 81913, Note_on_c, 1, 78, 114
1, 81960, Note_off_c, 2, 71, 64
1, 81961, Note_off_c, 2, 74, 64
1, 81961, Note_on_c, 2, 73, 117
1, 81962, Note_on_c, 2, 70, 118
1, 82003, Note_off_c, 1, 78, 64
1, 82007, Note_on_c, 1, 78, 114
1, 82053, Note_off_c, 2, 70, 64
1, 82054, Note_off_c, 2, 73, 64
1, 82054, Note_on_c, 2, 68, 118
1, 82054, Note_on_c, 2, 71, 120
1, 82097, Note_off_c, 1, 78, 64
1, 82101, Note_on_c, 1, 78, 114
1, 82145, Note_off_c, 2, 68, 64
1, 82146, Note_off_c, 2, 71, 64
1, 82146, Note_on_c, 2, 70, 118
1, 82147, Note_on_c, 4, 66, 118
1, 82187, Note_off_c, 1, 78, 64
1, 82189, Note_on_c, 1, 78, 114
1, 82236, Note_on_c, 2, 77, 117
1, 82243, Note_off_c, 1, 78, 64
1, 82284, Note_on_c, 1, 78, 114
1, 82291, Note_off_c, 2, 77, 64
1, 82325, Note_off_c, 4, 66, 64
1, 82326, Note_off_c, 2, 70, 64
1, 82329, Note_on_c, 1, 79, 114
1, 82329, Note_on_c, 4, 66, 122
1, 82337, Note_off_c, 1, 78, 64
1, 82376, Note_on_c, 2, 76, 117
1, 82414, Note_off_c, 4, 66, 64
1, 82420, Note_off_c, 2, 76, 64
1, 82420, Note_off_c, 1, 79, 64
1, 82421, Note_on_c, 1, 78, 114
1, 82421, Note_on_c, 4, 66, 122
1, 82466, Note_on_c, 2, 74, 121
1, 82504, Note_off_c, 4, 66, 64
1, 82512, Note_off_c, 2, 74, 64
1, 82512, Note_off_c, 1, 78, 64
1, 82513, Note_on_c, 4, 66, 122
1, 82513, Note_on_c, 2, 76, 117
1, 82558, Note_on_c, 2, 73, 125
1, 82598, Note_off_c, 4, 66, 64
1, 82606, Note_off_c, 2, 73, 64
1, 82607, Note_off_c, 2, 76, 64
1, 82607, Note_on_c, 2, 74, 127
1, 82608, Note_on_c, 4, 66, 126
1, 82652, Note_on_c, 2, 71, 127
1, 82692, Note_off_c, 4, 66, 64
1, 82698, Note_off_c, 2, 71, 64
1, 82699, Note_off_c, 2, 74, 64
1, 82699, Note_on_c, 2, 73, 127
1, 82700, Note_on_c, 4, 66, 126
1, 82746, Note_on_c, 2, 69, 126
1, 82787, Note_off_c, 4, 66, 64
1, 82794, Note_off_c, 2, 69, 64
1, 82795, Note_off_c, 2, 73, 64
1, 82795, Note_on_c, 2, 76, 125
1, 82796, Note_on_c, 4, 66, 126
1, 82825, Note_off_c, 4, 55, 64
1, 82840, Note_off_c, 2, 76, 64
1, 82841, Note_on_c, 2, 73, 127
1, 82889, Note_off_c, 2, 73, 64
1, 82890, Note_on_c, 4, 59, 125
1, 82890, Note_on_c, 2, 74, 127
1, 82899, Note_off_c, 4, 66, 64
1, 82936, Note_on_c, 4, 66, 121
1, 82982, Note_on_c, 4, 62, 124
1, 83023, Note_off_c, 4, 66, 64
1, 83030, Note_on_c, 4, 66, 121
1, 83046, Note_off_c, 4, 59, 64
1, 83076, Note_on_c, 1, 86, 126
1, 83077, Note_on_c, 4, 59, 125
1, 83093, Note_off_c, 2, 74, 64
1, 83116, Note_off_c, 4, 66, 64
1, 83124, Note_on_c, 2, 67, 121
1, 83139, Note_off_c, 4, 62, 64
1, 83170, Note_on_c, 4, 62, 124
1, 83208, Note_off_c, 2, 67, 64
1, 83216, Note_on_c, 2, 67, 121
1, 83229, Note_off_c, 4, 59, 64
1, 83260, Note_on_c, 4, 59, 125
1, 83298, Note_off_c, 2, 67, 64
1, 83306, Note_on_c, 2, 67, 121
1, 83321, Note_off_c, 4, 62, 64
1, 83322, Note_off_c, 1, 86, 64
1, 83353, Note_on_c, 1, 83, 126
1, 83353, Note_on_c, 4, 62, 124
1, 83392, Note_off_c, 2, 67, 64
1, 83400, Note_on_c, 2, 67, 121
1, 83415, Note_off_c, 4, 59, 64
1, 83444, Note_on_c, 1, 79, 122
1, 83445, Note_on_c, 4, 59, 125
1, 83451, Note_off_c, 1, 83, 64
1, 83482, Note_off_c, 2, 67, 64
1, 83489, Note_on_c, 2, 67, 121
1, 83505, Note_off_c, 4, 62, 64
1, 83533, Note_on_c, 1, 78, 122
1, 83534, Note_on_c, 4, 62, 124
1, 83542, Note_off_c, 1, 79, 64
1, 83573, Note_off_c, 2, 67, 64
1, 83580, Note_on_c, 2, 67, 121
1, 83596, Note_off_c, 4, 59, 64
1, 83627, Note_on_c, 4, 59, 125
1, 83634, Note_off_c, 4, 62, 64
1, 83665, Note_off_c, 1, 78, 64
1, 83673, Note_on_c, 2, 77, 125
1, 83711, Note_off_c, 2, 77, 64
1, 83719, Note_on_c, 1, 80, 122
1, 83763, Note_on_c, 2, 77, 125
1, 83771, Note_off_c, 1, 80, 64
1, 83771, Note_off_c, 2, 67, 64
1, 83800, Note_off_c, 2, 77, 64
1, 83808, Note_on_c, 1, 83, 126
1, 83856, Note_on_c, 2, 77, 125
1, 83902, Note_on_c, 1, 80, 122
1, 83946, Note_off_c, 2, 77, 64
1, 83948, Note_on_c, 2, 77, 125
1, 83956, Note_off_c, 1, 80, 64
1, 83987, Note_off_c, 1, 83, 64
1, 83992, Note_on_c, 1, 85, 126
1, 84036, Note_off_c, 2, 77, 64
1, 84038, Note_on_c, 2, 77, 125
1, 84084, Note_on_c, 1, 80, 122
1, 84127, Note_off_c, 2, 77, 64
1, 84131, Note_on_c, 2, 77, 125
1, 84139, Note_off_c, 1, 80, 64
1, 84169, Note_off_c, 1, 85, 64
1, 84177, Note_on_c, 1, 86, 126
1, 84219, Note_off_c, 2, 77, 64
1, 84221, Note_on_c, 2, 77, 125
1, 84265, Note_on_c, 1, 80, 122
1, 84311, Note_off_c, 2, 77, 64
1, 84313, Note_on_c, 2, 77, 125
1, 84321, Note_off_c, 1, 80, 64
1, 84352, Note_off_c, 1, 86, 64
1, 84360, Note_on_c, 4, 57, 127
1, 84360, Note_on_c, 1, 78, 122
1, 84366, Note_off_c, 2, 77, 64
1, 84374, Note_off_c, 4, 59, 64
1, 84407, Note_on_c, 4, 66, 121
1, 84453, Note_on_c, 4, 61, 125
1, 84491, Note_off_c, 4, 66, 64
1, 84499, Note_on_c, 4, 66, 121
1, 84514, Note_off_c, 4, 57, 64
1, 84535, Note_off_c, 1, 78, 64
1, 84543, Note_on_c, 1, 84, 126
1, 84543, Note_on_c, 4, 57, 127
1, 84582, Note_off_c, 4, 66, 64
1, 84590, Note_on_c, 4, 66, 121
1, 84607, Note_off_c, 4, 61, 64
1, 84638, Note_on_c, 4, 60, 125
1, 84674, Note_off_c, 4, 66, 64
1, 84683, Note_on_c, 4, 66, 121
1, 84698, Note_off_c, 4, 57, 64
1, 84727, Note_on_c, 4, 57, 127
1, 84767, Note_off_c, 4, 66, 64
1, 84774, Note_on_c, 4, 66, 121
1, 84790, Note_off_c, 1, 84, 64
1, 84790, Note_off_c, 4, 60, 64
1, 84819, Note_on_c, 1, 81, 126
1, 84820, Note_on_c, 4, 60, 125
1, 84859, Note_off_c, 4, 66, 64
1, 84867, Note_on_c, 4, 66, 121
1, 84883, Note_off_c, 4, 57, 64
1, 84913, Note_on_c, 1, 78, 122
1, 84914, Note_on_c, 4, 57, 127
1, 84922, Note_off_c, 1, 81, 64
1, 84951, Note_off_c, 4, 66, 64
1, 84959, Note_on_c, 4, 66, 121
1, 84974, Note_off_c, 4, 60, 64
1, 85005, Note_on_c, 4, 60, 125
1, 85010, Note_on_c, 2, 76, 125
1, 85014, Note_off_c, 1, 78, 64
1, 85043, Note_off_c, 4, 66, 64
1, 85051, Note_on_c, 4, 66, 121
1, 85068, Note_off_c, 4, 57, 64
1, 85099, Note_on_c, 4, 57, 127
1, 85106, Note_off_c, 4, 60, 64
1, 85135, Note_off_c, 2, 76, 64
1, 85145, Note_on_c, 2, 75, 121
1, 85185, Note_off_c, 2, 75, 64
1, 85189, Note_on_c, 1, 78, 118
1, 85233, Note_on_c, 2, 75, 121
1, 85241, Note_off_c, 4, 66, 64
1, 85273, Note_off_c, 2, 75, 64
1, 85275, Note_off_c, 1, 78, 64
1, 85277, Note_on_c, 1, 81, 126
1, 85323, Note_on_c, 2, 75, 121
1, 85369, Note_on_c, 1, 78, 118
1, 85410, Note_off_c, 2, 75, 64
1, 85412, Note_on_c, 2, 75, 121
1, 85450, Note_off_c, 1, 81, 64
1, 85456, Note_off_c, 1, 78, 64
1, 85458, Note_on_c, 1, 83, 126
1, 85502, Note_off_c, 2, 75, 64
1, 85504, Note_on_c, 2, 75, 121
1, 85552, Note_on_c, 1, 78, 118
1, 85592, Note_off_c, 2, 75, 64
1, 85596, Note_on_c, 2, 75, 121
1, 85634, Note_off_c, 1, 83, 64
1, 85640, Note_off_c, 1, 78, 64
1, 85644, Note_on_c, 1, 84, 126
1, 85684, Note_off_c, 2, 75, 64
1, 85686, Note_on_c, 2, 75, 121
1, 85734, Note_on_c, 1, 78, 118
1, 85780, Note_off_c, 2, 75, 64
1, 85783, Note_on_c, 2, 75, 121
1, 85797, Note_off_c, 1, 78, 64
1, 85822, Note_off_c, 1, 84, 64
1, 85829, Note_off_c, 4, 57, 64
1, 85829, Note_on_c, 4, 55, 127
1, 85829, Note_on_c, 2, 76, 121
1, 85846, Note_off_c, 2, 75, 64
1, 85876, Note_on_c, 4, 64, 119
1, 85924, Note_on_c, 4, 59, 125
1, 85961, Note_off_c, 4, 64, 64
1, 85971, Note_on_c, 4, 64, 119
1, 85986, Note_off_c, 4, 55, 64
1, 86007, Note_off_c, 2, 76, 64
1, 86015, Note_on_c, 4, 55, 127
1, 86015, Note_on_c, 1, 82, 126
1, 86050, Note_off_c, 4, 64, 64
1, 86058, Note_on_c, 4, 64, 119
1, 86075, Note_off_c, 4, 59, 64
1, 86108, Note_on_c, 4, 58, 121
1, 86146, Note_off_c, 4, 64, 64
1, 86156, Note_on_c, 4, 64, 119
1, 86174, Note_off_c, 4, 55, 64
1, 86204, Note_on_c, 4, 55, 127
1, 86242, Note_off_c, 4, 64, 64
1, 86250, Note_on_c, 4, 64, 119
1, 86264, Note_off_c, 1, 82, 64
1, 86265, Note_off_c, 4, 58, 64
1, 86294, Note_on_c, 4, 58, 121
1, 86294, Note_on_c, 1, 79, 126
1, 86331, Note_off_c, 4, 64, 64
1, 86339, Note_on_c, 4, 64, 119
1, 86356, Note_off_c, 4, 55, 64
1, 86377, Note_off_c, 1, 79, 64
1, 86384, Note_on_c, 2, 76, 125
1, 86385, Note_on_c, 4, 55, 127
1, 86422, Note_off_c, 4, 64, 64
1, 86430, Note_on_c, 4, 64, 119
1, 86447, Note_off_c, 4, 58, 64
1, 86468, Note_off_c, 2, 76, 64
1, 86477, Note_on_c, 2, 74, 125
1, 86478, Note_on_c, 4, 58, 121
1, 86517, Note_off_c, 4, 64, 64
1, 86524, Note_on_c, 4, 64, 119
1, 86540, Note_off_c, 4, 55, 64
1, 86570, Note_on_c, 4, 55, 127
1, 86577, Note_off_c, 4, 58, 64
1, 86607, Note_off_c, 2, 74, 64
1, 86615, Note_on_c, 2, 73, 121
1, 86655, Note_off_c, 2, 73, 64
1, 86659, Note_on_c, 2, 76, 121
1, 86703, Note_on_c, 2, 73, 121
1, 86711, Note_off_c, 4, 64, 64
1, 86719, Note_off_c, 2, 76, 64
1, 86745, Note_off_c, 2, 73, 64
1, 86749, Note_on_c, 1, 79, 126
1, 86796, Note_on_c, 2, 73, 121
1, 86840, Note_on_c, 2, 76, 121
1, 86883, Note_off_c, 2, 73, 64
1, 86886, Note_on_c, 2, 73, 121
1, 86899, Note_off_c, 2, 76, 64
1, 86920, Note_off_c, 1, 79, 64
1, 86928, Note_on_c, 1, 81, 126
1, 86972, Note_off_c, 2, 73, 64
1, 86974, Note_on_c, 2, 73, 121
1, 87018, Note_on_c, 2, 76, 121
1, 87060, Note_off_c, 2, 73, 64
1, 87062, Note_on_c, 2, 73, 121
1, 87077, Note_off_c, 2, 76, 64
1, 87101, Note_off_c, 1, 81, 64
1, 87108, Note_on_c, 1, 82, 126
1, 87149, Note_off_c, 2, 73, 64
1, 87152, Note_on_c, 2, 73, 121
1, 87200, Note_on_c, 2, 76, 121
1, 87243, Note_off_c, 2, 73, 64
1, 87246, Note_on_c, 2, 73, 125
1, 87261, Note_off_c, 2, 76, 64
1, 87284, Note_off_c, 1, 82, 64
1, 87292, Note_on_c, 4, 65, 116
1, 87292, Note_on_c, 2, 69, 116
1, 87293, Note_off_c, 4, 55, 64
1, 87335, Note_off_c, 2, 73, 64
1, 87337, Note_on_c, 2, 74, 127
1, 87387, Note_on_c, 1, 86, 126
1, 87429, Note_off_c, 2, 74, 64
1, 87433, Note_on_c, 2, 74, 127
1, 87481, Note_on_c, 4, 64, 114
1, 87481, Note_on_c, 2, 67, 116
1, 87484, Note_off_c, 2, 69, 64
1, 87484, Note_off_c, 4, 65, 64
1, 87525, Note_off_c, 2, 74, 64
1, 87529, Note_on_c, 2, 73, 127
1, 87575, Note_on_c, 1, 85, 123
1, 87579, Note_off_c, 1, 86, 64
1, 87621, Note_off_c, 2, 73, 64
1, 87623, Note_on_c, 2, 73, 127
1, 87671, Note_on_c, 2, 69, 116
1, 87672, Note_on_c, 4, 65, 116
1, 87674, Note_off_c, 2, 67, 64
1, 87674, Note_off_c, 4, 64, 64
1, 87713, Note_off_c, 2, 73, 64
1, 87715, Note_on_c, 2, 74, 127
1, 87763, Note_on_c, 1, 86, 123
1, 87767, Note_off_c, 1, 85, 64
1, 87807, Note_off_c, 2, 74, 64
1, 87809, Note_on_c, 2, 74, 127
1, 87855, Note_on_c, 4, 64, 114
1, 87856, Note_on_c, 4, 61, 120
1, 87860, Note_off_c, 4, 65, 64
1, 87861, Note_off_c, 2, 69, 64
1, 87900, Note_off_c, 2, 74, 64
1, 87901, Note_on_c, 2, 69, 121
1, 87946, Note_on_c, 1, 81, 123
1, 87949, Note_off_c, 1, 86, 64
1, 87988, Note_off_c, 2, 69, 64
1, 87992, Note_on_c, 2, 69, 121
1, 88036, Note_on_c, 4, 62, 119
1, 88036, Note_on_c, 4, 65, 116
1, 88041, Note_off_c, 4, 61, 64
1, 88041, Note_off_c, 4, 64, 64
1, 88080, Note_off_c, 2, 69, 64
1, 88084, Note_on_c, 2, 70, 121
1, 88130, Note_on_c, 1, 82, 117
1, 88134, Note_off_c, 1, 81, 64
1, 88172, Note_off_c, 2, 70, 64
1, 88174, Note_on_c, 2, 70, 121
1, 88218, Note_on_c, 4, 64, 114
1, 88219, Note_on_c, 4, 61, 120
1, 88223, Note_off_c, 4, 62, 64
1, 88224, Note_off_c, 4, 65, 64
1, 88264, Note_off_c, 2, 70, 64
1, 88266, Note_on_c, 2, 69, 121
1, 88310, Note_on_c, 1, 81, 117
1, 88315, Note_off_c, 1, 82, 64
1, 88353, Note_off_c, 2, 69, 64
1, 88356, Note_on_c, 2, 69, 121
1, 88403, Note_on_c, 4, 62, 119
1, 88403, Note_on_c, 4, 65, 116
1, 88405, Note_off_c, 4, 61, 64
1, 88406, Note_off_c, 4, 64, 64
1, 88445, Note_off_c, 2, 69, 64
1, 88445, Note_on_c, 2, 70, 121
1, 88493, Note_on_c, 1, 82, 117
1, 88497, Note_off_c, 1, 81, 64
1, 88534, Note_off_c, 2, 70, 64
1, 88536, Note_on_c, 2, 70, 121
1, 88582, Note_on_c, 4, 60, 120
1, 88583, Note_on_c, 4, 57, 127
1, 88585, Note_off_c, 4, 65, 64
1, 88585, Note_off_c, 4, 62, 64
1, 88624, Note_off_c, 2, 70, 64
1, 88626, Note_on_c, 4, 66, 121
1, 88672, Note_on_c, 1, 78, 117
1, 88674, Note_off_c, 1, 82, 64
1, 88715, Note_off_c, 4, 66, 64
1, 88717, Note_on_c, 4, 66, 121
1, 88762, Note_on_c, 4, 62, 119
1, 88763, Note_on_c, 4, 58, 116
1, 88766, Note_off_c, 4, 57, 64
1, 88767, Note_off_c, 4, 60, 64
1, 88806, Note_off_c, 4, 66, 64
1, 88808, Note_on_c, 2, 67, 121
1, 88854, Note_on_c, 1, 79, 117
1, 88858, Note_off_c, 1, 78, 64
1, 88898, Note_off_c, 2, 67, 64
1, 88902, Note_on_c, 2, 67, 121
1, 88948, Note_on_c, 4, 57, 127
1, 88948, Note_on_c, 4, 60, 120
1, 88951, Note_off_c, 4, 62, 64
1, 88951, Note_off_c, 4, 58, 64
1, 88992, Note_off_c, 2, 67, 64
1, 88994, Note_on_c, 4, 66, 121
1, 89040, Note_on_c, 1, 78, 117
1, 89044, Note_off_c, 1, 79, 64
1, 89082, Note_off_c, 4, 66, 64
1, 89084, Note_on_c, 4, 66, 121
1, 89131, Note_on_c, 4, 58, 116
1, 89131, Note_on_c, 4, 62, 119
1, 89135, Note_off_c, 4, 57, 64
1, 89136, Note_off_c, 4, 60, 64
1, 89174, Note_off_c, 4, 66, 64
1, 89177, Note_on_c, 2, 67, 121
1, 89223, Note_on_c, 1, 79, 117
1, 89226, Note_off_c, 1, 78, 64
1, 89267, Note_off_c, 2, 67, 64
1, 89269, Note_on_c, 2, 67, 121
1, 89315, Note_on_c, 4, 60, 120
1, 89316, Note_on_c, 4, 57, 127
1, 89317, Note_off_c, 4, 58, 64
1, 89318, Note_off_c, 4, 62, 64
1, 89355, Note_off_c, 2, 67, 64
1, 89357, Note_on_c, 4, 65, 121
1, 89403, Note_on_c, 2, 77, 120
1, 89407, Note_off_c, 1, 79, 64
1, 89447, Note_off_c, 4, 65, 64
1, 89448, Note_on_c, 4, 65, 121
1, 89494, Note_on_c, 4, 55, 127
1, 89494, Note_on_c, 4, 58, 116
1, 89496, Note_off_c, 4, 57, 64
1, 89496, Note_off_c, 4, 60, 64
1, 89537, Note_off_c, 4, 65, 64
1, 89540, Note_on_c, 4, 63, 120
1, 89586, Note_on_c, 2, 75, 123
1, 89587, Note_off_c, 2, 77, 64
1, 89628, Note_off_c, 4, 63, 64
1, 89632, Note_on_c, 4, 63, 120
1, 89678, Note_on_c, 4, 54, 127
1, 89678, Note_on_c, 4, 57, 127
1, 89683, Note_off_c, 4, 58, 64
1, 89683, Note_off_c, 4, 55, 64
1, 89724, Note_off_c, 4, 63, 64
1, 89726, Note_on_c, 4, 62, 124
1, 89774, Note_on_c, 2, 74, 123
1, 89777, Note_off_c, 2, 75, 64
1, 89816, Note_off_c, 4, 62, 64
1, 89820, Note_on_c, 4, 62, 124
1, 89868, Note_on_c, 4, 55, 127
1, 89868, Note_on_c, 4, 58, 116
1, 89873, Note_off_c, 4, 57, 64
1, 89873, Note_off_c, 4, 54, 64
1, 89912, Note_off_c, 4, 62, 64
1, 89914, Note_on_c, 4, 63, 120
1, 89960, Note_on_c, 2, 75, 123
1, 89964, Note_off_c, 2, 74, 64
1, 90004, Note_off_c, 4, 63, 64
1, 90006, Note_on_c, 4, 63, 120
1, 90052, Note_on_c, 4, 59, 120
1, 90053, Note_on_c, 4, 56, 127
1, 90055, Note_off_c, 4, 55, 64
1, 90056, Note_off_c, 4, 58, 64
1, 90096, Note_off_c, 4, 63, 64
1, 90098, Note_on_c, 4, 62, 124
1, 90144, Note_on_c, 2, 74, 123
1, 90148, Note_off_c, 2, 75, 64
1, 90187, Note_off_c, 4, 62, 64
1, 90189, Note_on_c, 4, 62, 127
1, 90233, Note_off_c, 2, 74, 64
1, 90233, Note_on_c, 2, 73, 127
1, 90234, Note_on_c, 4, 45, 127
1, 90234, Note_on_c, 4, 57, 127
1, 90237, Note_off_c, 4, 56, 64
1, 90237, Note_off_c, 4, 59, 64
1, 90276, Note_off_c, 4, 62, 64
1, 90278, Note_on_c, 2, 71, 127
1, 90286, Note_off_c, 2, 73, 64
1, 90324, Note_on_c, 2, 69, 126
1, 90332, Note_off_c, 2, 71, 64
1, 90370, Note_on_c, 2, 68, 126
1, 90378, Note_off_c, 2, 69, 64
1, 90414, Note_on_c, 2, 69, 126
1, 90420, Note_off_c, 2, 68, 64
1, 90458, Note_on_c, 2, 71, 127
1, 90464, Note_off_c, 2, 69, 64
1, 90501, Note_on_c, 2, 73, 127
1, 90508, Note_off_c, 2, 71, 64
1, 90541, Note_on_c, 2, 74, 127
1, 90549, Note_off_c, 2, 73, 64
1, 90581, Note_on_c, 2, 76, 127
1, 90589, Note_off_c, 2, 74, 64
1, 90624, Note_on_c, 2, 74, 127
1, 90629, Note_off_c, 2, 76, 64
1, 90664, Note_on_c, 2, 73, 127
1, 90672, Note_off_c, 2, 74, 64
1, 90706, Note_on_c, 2, 71, 127
1, 90714, Note_off_c, 2, 73, 64
1, 90749, Note_on_c, 2, 73, 127
1, 90757, Note_off_c, 2, 71, 64
1, 90794, Note_on_c, 2, 74, 127
1, 90801, Note_off_c, 2, 73, 64
1, 90837, Note_on_c, 2, 76, 127
1, 90844, Note_off_c, 2, 74, 64
1, 90879, Note_on_c, 1, 78, 126
1, 90887, Note_off_c, 2, 76, 64
1, 90919, Note_off_c, 1, 78, 64
1, 90920, Note_on_c, 1, 79, 126
1, 90960, Note_off_c, 1, 79, 64
1, 90961, Note_on_c, 1, 78, 126
1, 91000, Note_off_c, 1, 78, 64
1, 91002, Note_on_c, 2, 76, 127
1, 91042, Note_off_c, 2, 76, 64
1, 91043, Note_on_c, 1, 78, 126
1, 91084, Note_off_c, 1, 78, 64
1, 91084, Note_on_c, 2, 76, 127
1, 91126, Note_on_c, 2, 74, 127
1, 91134, Note_off_c, 2, 76, 64
1, 91170, Note_on_c, 2, 73, 127
1, 91176, Note_off_c, 2, 74, 64
1, 91212, Note_on_c, 2, 74, 127
1, 91220, Note_off_c, 2, 73, 64
1, 91257, Note_on_c, 2, 73, 127
1, 91264, Note_off_c, 2, 74, 64
1, 91299, Note_on_c, 2, 71, 127
1, 91307, Note_off_c, 2, 73, 64
1, 91343, Note_on_c, 2, 69, 126
1, 91349, Note_off_c, 2, 71, 64
1, 91385, Note_on_c, 2, 71, 127
1, 91392, Note_off_c, 2, 69, 64
1, 91429, Note_on_c, 2, 69, 126
1, 91437, Note_off_c, 2, 71, 64
1, 91470, Note_on_c, 2, 67, 126
1, 91477, Note_off_c, 2, 69, 64
1, 91514, Note_on_c, 4, 66, 126
1, 91520, Note_off_c, 2, 67, 64
1, 91560, Note_on_c, 4, 64, 124
1, 91568, Note_off_c, 4, 66, 64
1, 91596, Note_off_c, 4, 45, 64
1, 91597, Note_off_c, 4, 57, 64
1, 91611, Note_off_c, 4, 64, 64
1, 91615, Note_on_c, 4, 50, 127
1, 91615, Note_on_c, 4, 62, 127
1, 91616, Note_on_c, 4, 38, 127
1, 91627, Note_on_c, 4, 66, 126
1, 91640, Note_on_c, 2, 69, 126
1, 91650, Note_on_c, 2, 74, 127
1, 91938, Note_off_c, 4, 62, 64
1, 91947, Note_off_c, 4, 66, 64
1, 91957, Note_off_c, 2, 69, 64
1, 91968, Note_off_c, 2, 74, 64
1, 91982, Note_off_c, 4, 50, 64
1, 91983, Note_on_c, 2, 67, 126
1, 91983, Note_on_c, 4, 55, 127
1, 92028, Note_on_c, 4, 66, 126
1, 92028, Note_on_c, 4, 54, 127
1, 92032, Note_off_c, 4, 55, 64
1, 92033, Note_off_c, 2, 67, 64
1, 92072, Note_on_c, 4, 64, 127
1, 92072, Note_on_c, 4, 52, 127
1, 92076, Note_off_c, 4, 54, 64
1, 92077, Note_off_c, 4, 66, 64
1, 92118, Note_on_c, 4, 50, 127
1, 92118, Note_on_c, 4, 62, 127
1, 92123, Note_off_c, 4, 52, 64
1, 92123, Note_off_c, 4, 64, 64
1, 92164, Note_on_c, 2, 67, 127
1, 92164, Note_on_c, 4, 55, 127
1, 92169, Note_off_c, 4, 62, 64
1, 92169, Note_off_c, 4, 50, 64
1, 92210, Note_on_c, 4, 66, 127
1, 92210, Note_on_c, 4, 54, 127
1, 92215, Note_off_c, 4, 55, 64
1, 92215, Note_off_c, 2, 67, 64
1, 92250, Note_on_c, 4, 64, 127
1, 92251, Note_on_c, 4, 52, 127
1, 92257, Note_off_c, 4, 54, 64
1, 92257, Note_off_c, 4, 66, 64
1, 92298, Note_on_c, 4, 62, 127
1, 92299, Note_on_c, 4, 50, 127
1, 92303, Note_off_c, 4, 52, 64
1, 92304, Note_off_c, 4, 64, 64
1, 92346, Note_on_c, 2, 69, 126
1, 92347, Note_on_c, 4, 57, 127
1, 92351, Note_off_c, 4, 50, 64
1, 92352, Note_off_c, 4, 62, 64
1, 92523, Note_off_c, 2, 69, 64
1, 92523, Note_off_c, 4, 57, 64
1, 92530, Note_on_c, 4, 54, 127
1, 92530, Note_on_c, 4, 66, 126
1, 92705, Note_off_c, 4, 54, 64
1, 92706, Note_off_c, 4, 66, 64
1, 92714, Note_on_c, 4, 59, 127
1, 92714, Note_on_c, 2, 71, 127
1, 92959, Note_off_c, 2, 71, 64
1, 92959, Note_off_c, 4, 59, 64
1, 92988, Note_on_c, 4, 66, 126
1, 92989, Note_on_c, 4, 54, 127
1, 93084, Note_off_c, 4, 54, 64
1, 93084, Note_off_c, 4, 66, 64
1, 93084, Note_on_c, 2, 67, 126
1, 93085, Note_on_c, 4, 55, 127
1, 93178, Note_off_c, 2, 67, 64
1, 93178, Note_off_c, 4, 55, 64
1, 93179, Note_on_c, 4, 64, 124
1, 93179, Note_on_c, 4, 52, 127
1, 93270, Note_off_c, 4, 52, 64
1, 93270, Note_off_c, 4, 64, 64
1, 93271, Note_on_c, 2, 69, 126
1, 93271, Note_on_c, 4, 57, 127
1, 93360, Note_off_c, 4, 57, 64
1, 93360, Note_off_c, 2, 69, 64
1, 93361, Note_on_c, 4, 66, 126
1, 93361, Note_on_c, 4, 54, 127
1, 93446, Note_off_c, 4, 54, 64
1, 93447, Note_off_c, 4, 66, 64
1, 93447, Note_on_c, 4, 62, 127
1, 93448, Note_on_c, 4, 50, 127
1, 93543, Note_off_c, 4, 50, 64
1, 93543, Note_off_c, 4, 62, 64
1, 93543, Note_on_c, 4, 59, 127
1, 93544, Note_on_c, 4, 47, 127
1, 93635, Note_off_c, 4, 59, 64
1, 93635, Note_off_c, 4, 47, 64
1, 93636, Note_on_c, 4, 64, 124
1, 93636, Note_on_c, 4, 52, 127
1, 93725, Note_off_c, 4, 52, 64
1, 93725, Note_off_c, 4, 64, 64
1, 93726, Note_on_c, 4, 61, 127
1, 93726, Note_on_c, 4, 49, 127
1, 93819, Note_off_c, 4, 49, 64
1, 93820, Note_off_c, 4, 61, 64
1, 93820, Note_on_c, 4, 57, 127
1, 93821, Note_on_c, 4, 45, 127
1, 93890, Note_off_c, 4, 57, 64
1, 93913, Note_off_c, 4, 38, 64
1, 93914, Note_on_c, 4, 57, 127
1, 93974, Note_off_c, 4, 45, 64
1, 94005, Note_on_c, 4, 45, 127
1, 94068, Note_off_c, 4, 57, 64
1, 94099, Note_on_c, 4, 57, 127
1, 94160, Note_off_c, 4, 45, 64
1, 94193, Note_on_c, 4, 45, 127
1, 94254, Note_off_c, 4, 57, 64
1, 94285, Note_on_c, 4, 66, 126
1, 94285, Note_on_c, 2, 74, 125
1, 94286, Note_on_c, 4, 57, 127
1, 94344, Note_off_c, 4, 45, 64
1, 94359, Note_off_c, 2, 74, 64
1, 94359, Note_off_c, 4, 66, 64
1, 94373, Note_on_c, 2, 74, 125
1, 94373, Note_on_c, 4, 66, 126
1, 94374, Note_on_c, 4, 45, 127
1, 94432, Note_off_c, 4, 57, 64
1, 94455, Note_off_c, 4, 66, 64
1, 94455, Note_off_c, 2, 74, 64
1, 94462, Note_on_c, 2, 74, 125
1, 94462, Note_on_c, 4, 66, 126
1, 94463, Note_on_c, 4, 57, 127
1, 94520, Note_off_c, 4, 45, 64
1, 94543, Note_off_c, 4, 66, 64
1, 94544, Note_off_c, 2, 74, 64
1, 94550, Note_on_c, 4, 66, 126
1, 94550, Note_on_c, 2, 74, 125
1, 94551, Note_on_c, 4, 45, 127
1, 94608, Note_off_c, 4, 57, 64
1, 94624, Note_off_c, 2, 74, 64
1, 94624, Note_off_c, 4, 66, 64
1, 94638, Note_on_c, 2, 73, 125
1, 94639, Note_on_c, 4, 64, 124
1, 94639, Note_on_c, 4, 57, 127
1, 94700, Note_off_c, 4, 45, 64
1, 94717, Note_off_c, 4, 64, 64
1, 94717, Note_off_c, 2, 73, 64
1, 94731, Note_on_c, 2, 73, 125
1, 94732, Note_on_c, 4, 45, 127
1, 94732, Note_on_c, 4, 64, 124
1, 94794, Note_off_c, 4, 57, 64
1, 94824, Note_on_c, 4, 57, 127
1, 94884, Note_off_c, 4, 45, 64
1, 94915, Note_on_c, 4, 45, 127
1, 94976, Note_off_c, 4, 57, 64
1, 94977, Note_off_c, 2, 73, 64
1, 94977, Note_off_c, 4, 64, 64
1, 95006, Note_on_c, 2, 74, 125
1, 95006, Note_on_c, 1, 78, 122
1, 95007, Note_on_c, 4, 57, 127
1, 95064, Note_off_c, 4, 45, 64
1, 95080, Note_off_c, 1, 78, 64
1, 95080, Note_off_c, 2, 74, 64
1, 95094, Note_on_c, 1, 78, 122
1, 95095, Note_on_c, 2, 74, 125
1, 95095, Note_on_c, 4, 45, 127
1, 95153, Note_off_c, 4, 57, 64
1, 95176, Note_off_c, 2, 74, 64
1, 95176, Note_off_c, 1, 78, 64
1, 95183, Note_on_c, 1, 78, 122
1, 95183, Note_on_c, 2, 74, 125
1, 95184, Note_on_c, 4, 57, 127
1, 95243, Note_off_c, 4, 45, 64
1, 95266, Note_off_c, 2, 74, 64
1, 95267, Note_off_c, 1, 78, 64
1, 95273, Note_on_c, 2, 74, 125
1, 95273, Note_on_c, 1, 78, 122
1, 95274, Note_on_c, 4, 45, 127
1, 95330, Note_off_c, 4, 57, 64
1, 95345, Note_off_c, 1, 78, 64
1, 95345, Note_off_c, 2, 74, 64
1, 95359, Note_on_c, 2, 76, 125
1, 95360, Note_on_c, 2, 73, 125
1, 95360, Note_on_c, 4, 57, 127
1, 95417, Note_off_c, 4, 45, 64
1, 95430, Note_off_c, 2, 73, 64
1, 95431, Note_off_c, 2, 76, 64
1, 95445, Note_on_c, 2, 73, 125
1, 95445, Note_on_c, 2, 76, 125
1, 95446, Note_on_c, 4, 45, 127
1, 95505, Note_off_c, 4, 57, 64
1, 95536, Note_on_c, 4, 57, 127
1, 95597, Note_off_c, 4, 45, 64
1, 95628, Note_on_c, 4, 45, 127
1, 95689, Note_off_c, 4, 57, 64
1, 95690, Note_off_c, 2, 76, 64
1, 95690, Note_off_c, 2, 73, 64
1, 95719, Note_on_c, 1, 81, 122
1, 95720, Note_on_c, 4, 57, 127
1, 95720, Note_on_c, 1, 78, 122
1, 95780, Note_off_c, 4, 45, 64
1, 95795, Note_off_c, 1, 78, 64
1, 95796, Note_off_c, 1, 81, 64
1, 95811, Note_on_c, 1, 81, 122
1, 95812, Note_on_c, 1, 78, 122
1, 95812, Note_on_c, 4, 45, 127
1, 95870, Note_off_c, 4, 57, 64
1, 95893, Note_off_c, 1, 78, 64
1, 95893, Note_off_c, 1, 81, 64
1, 95902, Note_on_c, 1, 81, 122
1, 95902, Note_on_c, 1, 78, 122
1, 95903, Note_on_c, 4, 57, 127
1, 95963, Note_off_c, 4, 45, 64
1, 95987, Note_off_c, 1, 78, 64
1, 95988, Note_off_c, 1, 81, 64
1, 95992, Note_on_c, 1, 79, 122
1, 95995, Note_on_c, 4, 45, 127
1, 96037, Note_on_c, 1, 78, 122
1, 96045, Note_off_c, 1, 79, 64
1, 96082, Note_on_c, 1, 79, 122
1, 96087, Note_off_c, 1, 78, 64
1, 96123, Note_on_c, 1, 81, 122
1, 96130, Note_off_c, 1, 79, 64
1, 96164, Note_on_c, 1, 83, 122
1, 96172, Note_off_c, 1, 81, 64
1, 96208, Note_on_c, 1, 81, 122
1, 96214, Note_off_c, 1, 83, 64
1, 96247, Note_on_c, 1, 79, 122
1, 96254, Note_off_c, 1, 81, 64
1, 96289, Note_on_c, 1, 78, 122
1, 96296, Note_off_c, 1, 79, 64
1, 96332, Note_on_c, 2, 76, 125
1, 96339, Note_off_c, 1, 78, 64
1, 96375, Note_on_c, 2, 75, 125
1, 96385, Note_off_c, 2, 76, 64
1, 96420, Note_on_c, 2, 76, 125
1, 96425, Note_off_c, 2, 75, 64
1, 96460, Note_on_c, 1, 78, 122
1, 96469, Note_off_c, 2, 76, 64
1, 96500, Note_on_c, 1, 79, 122
1, 96506, Note_off_c, 1, 78, 64
1, 96542, Note_on_c, 1, 78, 122
1, 96547, Note_off_c, 1, 79, 64
1, 96582, Note_on_c, 2, 76, 125
1, 96589, Note_off_c, 1, 78, 64
1, 96624, Note_on_c, 2, 74, 125
1, 96632, Note_off_c, 2, 76, 64
1, 96668, Note_on_c, 2, 73, 125
1, 96669, Note_on_c, 4, 61, 127
1, 96675, Note_off_c, 2, 74, 64
1, 96682, Note_off_c, 4, 57, 64
1, 96712, Note_on_c, 2, 71, 124
1, 96713, Note_on_c, 4, 59, 127
1, 96719, Note_off_c, 4, 61, 64
1, 96720, Note_off_c, 2, 73, 64
1, 96756, Note_on_c, 2, 73, 125
1, 96757, Note_on_c, 4, 61, 127
1, 96763, Note_off_c, 4, 59, 64
1, 96764, Note_off_c, 2, 71, 64
1, 96799, Note_on_c, 2, 74, 125
1, 96799, Note_on_c, 4, 62, 127
1, 96805, Note_off_c, 4, 61, 64
1, 96806, Note_off_c, 2, 73, 64
1, 96842, Note_on_c, 2, 76, 125
1, 96842, Note_on_c, 4, 64, 124
1, 96847, Note_off_c, 4, 62, 64
1, 96847, Note_off_c, 2, 74, 64
1, 96882, Note_on_c, 2, 74, 125
1, 96883, Note_on_c, 4, 62, 127
1, 96891, Note_off_c, 4, 64, 64
1, 96891, Note_off_c, 2, 76, 64
1, 96923, Note_on_c, 4, 61, 127
1, 96923, Note_on_c, 2, 73, 125
1, 96929, Note_off_c, 4, 62, 64
1, 96930, Note_off_c, 2, 74, 64
1, 96965, Note_on_c, 2, 71, 124
1, 96965, Note_on_c, 4, 59, 127
1, 96972, Note_off_c, 2, 73, 64
1, 96972, Note_off_c, 4, 61, 64
1, 97007, Note_on_c, 2, 69, 122
1, 97008, Note_on_c, 4, 57, 127
1, 97016, Note_off_c, 4, 59, 64
1, 97016, Note_off_c, 2, 71, 64
1, 97051, Note_on_c, 2, 68, 126
1, 97052, Note_on_c, 4, 56, 127
1, 97060, Note_off_c, 4, 57, 64
1, 97060, Note_off_c, 2, 69, 64
1, 97097, Note_on_c, 2, 69, 122
1, 97098, Note_on_c, 4, 57, 127
1, 97104, Note_off_c, 4, 56, 64
1, 97104, Note_off_c, 2, 68, 64
1, 97140, Note_on_c, 2, 71, 124
1, 97140, Note_on_c, 4, 59, 127
1, 97146, Note_off_c, 4, 57, 64
1, 97147, Note_off_c, 2, 69, 64
1, 97182, Note_on_c, 4, 57, 127
1, 97182, Note_on_c, 2, 69, 122
1, 97188, Note_off_c, 4, 59, 64
1, 97189, Note_off_c, 2, 71, 64
1, 97224, Note_on_c, 2, 67, 126
1, 97224, Note_on_c, 4, 55, 127
1, 97231, Note_off_c, 2, 69, 64
1, 97231, Note_off_c, 4, 57, 64
1, 97266, Note_on_c, 4, 66, 126
1, 97267, Note_on_c, 4, 54, 127
1, 97275, Note_off_c, 4, 55, 64
1, 97275, Note_off_c, 2, 67, 64
1, 97310, Note_on_c, 4, 64, 124
1, 97311, Note_on_c, 4, 52, 127
1, 97317, Note_off_c, 4, 54, 64
1, 97318, Note_off_c, 4, 66, 64
1, 97343, Note_off_c, 4, 45, 64
1, 97356, Note_on_c, 4, 62, 127
1, 97357, Note_on_c, 4, 38, 110
1, 97357, Note_on_c, 4, 50, 127
1, 97364, Note_off_c, 4, 52, 64
1, 97365, Note_off_c, 4, 64, 64
1, 97440, Note_off_c, 4, 50, 64
1, 97452, Note_on_c, 4, 50, 127
1, 97538, Note_off_c, 4, 50, 64
1, 97546, Note_on_c, 4, 50, 127
1, 97630, Note_off_c, 4, 50, 64
1, 97638, Note_on_c, 4, 50, 127
1, 97721, Note_off_c, 4, 62, 64
1, 97722, Note_off_c, 4, 50, 64
1, 97731, Note_on_c, 4, 64, 124
1, 97731, Note_on_c, 4, 61, 127
1, 97732, Note_on_c, 4, 50, 127
1, 97816, Note_off_c, 4, 50, 64
1, 97824, Note_on_c, 4, 50, 127
1, 97908, Note_off_c, 4, 50, 64
1, 97909, Note_off_c, 4, 61, 64
1, 97909, Note_off_c, 4, 64, 64
1, 97917, Note_on_c, 4, 66, 126
1, 97918, Note_on_c, 4, 50, 127
1, 97918, Note_on_c, 4, 60, 127
1, 98002, Note_off_c, 4, 50, 64
1, 98009, Note_on_c, 4, 50, 127
1, 98094, Note_off_c, 4, 50, 64
1, 98094, Note_off_c, 4, 60, 64
1, 98095, Note_off_c, 4, 66, 64
1, 98102, Note_on_c, 2, 67, 126
1, 98103, Note_on_c, 4, 50, 127
1, 98103, Note_on_c, 4, 59, 127
1, 98188, Note_off_c, 4, 50, 64
1, 98196, Note_on_c, 4, 50, 127
1, 98240, Note_off_c, 2, 67, 64
1, 98240, Note_on_c, 2, 69, 126
1, 98264, Note_off_c, 2, 69, 64
1, 98264, Note_on_c, 2, 71, 127
1, 98286, Note_off_c, 4, 50, 64
1, 98286, Note_off_c, 4, 59, 64
1, 98297, Note_off_c, 2, 71, 64
1, 98297, Note_on_c, 4, 61, 127
1, 98297, Note_on_c, 2, 69, 126
1, 98298, Note_on_c, 4, 50, 127
1, 98383, Note_off_c, 4, 50, 64
1, 98391, Note_off_c, 2, 69, 64
1, 98391, Note_on_c, 4, 50, 127
1, 98391, Note_on_c, 2, 67, 126
1, 98478, Note_off_c, 4, 50, 64
1, 98479, Note_off_c, 4, 61, 64
1, 98485, Note_off_c, 2, 67, 64
1, 98485, Note_on_c, 4, 66, 126
1, 98486, Note_on_c, 4, 62, 127
1, 98486, Note_on_c, 4, 50, 127
1, 98573, Note_off_c, 4, 50, 64
1, 98582, Note_on_c, 4, 50, 127
1, 98666, Note_off_c, 4, 50, 64
1, 98676, Note_on_c, 4, 50, 127
1, 98760, Note_off_c, 4, 50, 64
1, 98766, Note_off_c, 4, 38, 64
1, 98769, Note_on_c, 4, 50, 127
1, 98852, Note_off_c, 4, 50, 64
1, 98852, Note_off_c, 4, 62, 64
1, 98853, Note_off_c, 4, 66, 64
1, 98860, Note_on_c, 4, 66, 126
1, 98861, Note_on_c, 4, 62, 127
1, 98861, Note_on_c, 4, 50, 127
1, 98862, Note_on_c, 4, 38, 127
1, 98947, Note_off_c, 4, 50, 64
1, 98956, Note_on_c, 4, 50, 127
1, 99043, Note_off_c, 4, 50, 64
1, 99050, Note_on_c, 4, 50, 127
1, 99138, Note_off_c, 4, 50, 64
1, 99146, Note_on_c, 4, 50, 127
1, 99233, Note_off_c, 4, 50, 64
1, 99233, Note_off_c, 4, 62, 64
1, 99234, Note_off_c, 4, 66, 64
1, 99242, Note_on_c, 2, 67, 126
1, 99243, Note_on_c, 4, 50, 127
1, 99247, Note_on_c, 4, 64, 124
1, 99330, Note_off_c, 4, 50, 64
1, 99337, Note_on_c, 4, 50, 127
1, 99424, Note_off_c, 2, 67, 64
1, 99424, Note_off_c, 4, 50, 64
1, 99431, Note_off_c, 4, 64, 64
1, 99431, Note_on_c, 2, 69, 126
1, 99432, Note_on_c, 4, 66, 126
1, 99432, Note_on_c, 4, 50, 127
1, 99519, Note_off_c, 4, 50, 64
1, 99527, Note_on_c, 4, 50, 127
1, 99613, Note_off_c, 4, 66, 64
1, 99613, Note_off_c, 4, 50, 64
1, 99614, Note_off_c, 2, 69, 64
1, 99620, Note_on_c, 2, 67, 126
1, 99620, Note_on_c, 2, 71, 127
1, 99621, Note_on_c, 4, 50, 127
1, 99704, Note_off_c, 4, 50, 64
1, 99712, Note_on_c, 4, 50, 127
1, 99758, Note_off_c, 2, 71, 64
1, 99758, Note_on_c, 2, 73, 127
1, 99786, Note_off_c, 2, 73, 64
1, 99786, Note_on_c, 2, 74, 127
1, 99808, Note_off_c, 4, 50, 64
1, 99817, Note_off_c, 2, 74, 64
1, 99818, Note_on_c, 4, 50, 127
1, 99818, Note_on_c, 2, 73, 127
1, 99904, Note_off_c, 4, 50, 64
1, 99912, Note_off_c, 2, 73, 64
1, 99912, Note_on_c, 2, 71, 127
1, 99912, Note_on_c, 4, 50, 127
1, 99998, Note_off_c, 4, 50, 64
1, 99998, Note_off_c, 2, 67, 64
1, 100007, Note_off_c, 2, 71, 64
1, 100007, Note_on_c, 2, 69, 126
1, 100008, Note_on_c, 4, 66, 126
1, 100008, Note_on_c, 4, 50, 127
1, 100093, Note_off_c, 4, 50, 64
1, 100101, Note_on_c, 4, 50, 127
1, 100189, Note_off_c, 4, 50, 64
1, 100197, Note_on_c, 4, 50, 127
1, 100283, Note_off_c, 4, 50, 64
1, 100293, Note_off_c, 4, 38, 64
1, 100293, Note_on_c, 1, 78, 126
1, 100294, Note_on_c, 4, 50, 127
1, 100388, Note_off_c, 4, 50, 64
1, 100389, Note_off_c, 2, 69, 64
1, 100389, Note_off_c, 4, 66, 64
1, 100389, Note_on_c, 2, 76, 127
1, 100390, Note_on_c, 4, 43, 127
1, 100390, Note_on_c, 4, 55, 127
1, 100394, Note_off_c, 1, 78, 64
1, 100435, Note_on_c, 1, 86, 126
1, 100481, Note_off_c, 2, 76, 64
1, 100483, Note_on_c, 2, 76, 127
1, 100527, Note_off_c, 1, 86, 64
1, 100531, Note_on_c, 1, 86, 126
1, 100575, Note_off_c, 2, 76, 64
1, 100579, Note_on_c, 2, 76, 127
1, 100579, Note_on_c, 4, 62, 127
1, 100580, Note_on_c, 4, 50, 127
1, 100585, Note_off_c, 4, 43, 64
1, 100586, Note_off_c, 4, 55, 64
1, 100623, Note_off_c, 1, 86, 64
1, 100625, Note_on_c, 1, 86, 126
1, 100671, Note_off_c, 2, 76, 64
1, 100673, Note_on_c, 2, 76, 127
1, 100719, Note_off_c, 1, 86, 64
1, 100721, Note_on_c, 1, 86, 126
1, 100767, Note_off_c, 2, 76, 64
1, 100769, Note_on_c, 4, 59, 127
1, 100769, Note_on_c, 2, 76, 127
1, 100770, Note_on_c, 4, 47, 127
1, 100776, Note_off_c, 4, 50, 64
1, 100776, Note_off_c, 4, 62, 64
1, 100813, Note_off_c, 1, 86, 64
1, 100815, Note_on_c, 1, 86, 126
1, 100860, Note_off_c, 2, 76, 64
1, 100862, Note_on_c, 2, 76, 127
1, 100906, Note_off_c, 1, 86, 64
1, 100908, Note_on_c, 1, 86, 126
1, 100954, Note_off_c, 2, 76, 64
1, 100956, Note_on_c, 4, 55, 127
1, 100956, Note_on_c, 2, 76, 127
1, 100957, Note_on_c, 4, 43, 127
1, 100965, Note_off_c, 4, 59, 64
1, 100965, Note_off_c, 4, 47, 64
1, 101002, Note_off_c, 1, 86, 64
1, 101004, Note_on_c, 1, 86, 126
1, 101050, Note_off_c, 2, 76, 64
1, 101052, Note_on_c, 2, 76, 127
1, 101097, Note_off_c, 1, 86, 64
1, 101100, Note_on_c, 1, 86, 126
1, 101145, Note_off_c, 2, 76, 64
1, 101148, Note_on_c, 4, 45, 127
1, 101148, Note_on_c, 4, 57, 127
1, 101148, Note_on_c, 1, 78, 126
1, 101156, Note_off_c, 4, 43, 64
1, 101157, Note_off_c, 4, 55, 64
1, 101193, Note_off_c, 1, 86, 64
1, 101196, Note_on_c, 1, 86, 126
1, 101240, Note_off_c, 1, 78, 64
1, 101244, Note_on_c, 1, 78, 126
1, 101287, Note_off_c, 1, 86, 64
1, 101290, Note_on_c, 1, 86, 126
1, 101336, Note_off_c, 1, 78, 64
1, 101339, Note_on_c, 4, 62, 127
1, 101339, Note_on_c, 1, 78, 126
1, 101340, Note_on_c, 4, 50, 127
1, 101346, Note_off_c, 4, 45, 64
1, 101347, Note_off_c, 4, 57, 64
1, 101383, Note_off_c, 1, 86, 64
1, 101386, Note_on_c, 1, 86, 126
1, 101431, Note_off_c, 1, 78, 64
1, 101434, Note_on_c, 1, 78, 126
1, 101480, Note_off_c, 1, 86, 64
1, 101482, Note_on_c, 1, 86, 126
1, 101526, Note_off_c, 1, 78, 64
1, 101528, Note_on_c, 1, 78, 126
1, 101529, Note_on_c, 4, 60, 127
1, 101529, Note_on_c, 4, 48, 127
1, 101537, Note_off_c, 4, 50, 64
1, 101538, Note_off_c, 4, 62, 64
1, 101573, Note_off_c, 1, 86, 64
1, 101575, Note_on_c, 1, 86, 126
1, 101619, Note_off_c, 1, 78, 64
1, 101621, Note_on_c, 1, 78, 126
1, 101665, Note_off_c, 1, 86, 64
1, 101667, Note_on_c, 1, 86, 126
1, 101711, Note_off_c, 1, 78, 64
1, 101713, Note_on_c, 4, 57, 127
1, 101713, Note_on_c, 1, 78, 126
1, 101714, Note_on_c, 4, 45, 127
1, 101722, Note_off_c, 4, 48, 64
1, 101722, Note_off_c, 4, 60, 64
1, 101759, Note_off_c, 1, 86, 64
1, 101761, Note_on_c, 1, 86, 126
1, 101806, Note_off_c, 1, 78, 64
1, 101810, Note_on_c, 1, 78, 126
1, 101854, Note_off_c, 1, 86, 64
1, 101856, Note_on_c, 1, 86, 126
1, 101902, Note_off_c, 1, 78, 64
1, 101904, Note_on_c, 4, 59, 127
1, 101904, Note_on_c, 1, 79, 126
1, 101905, Note_on_c, 4, 47, 127
1, 101913, Note_off_c, 4, 57, 64
1, 101913, Note_off_c, 4, 45, 64
1, 101948, Note_off_c, 1, 86, 64
1, 101952, Note_on_c, 1, 86, 126
1, 101996, Note_off_c, 1, 79, 64
1, 101998, Note_on_c, 1, 79, 126
1, 102042, Note_off_c, 1, 86, 64
1, 102044, Note_on_c, 1, 86, 126
1, 102088, Note_off_c, 1, 79, 64
1, 102092, Note_on_c, 1, 79, 126
1, 102093, Note_on_c, 4, 55, 127
1, 102093, Note_on_c, 2, 67, 126
1, 102099, Note_off_c, 4, 59, 64
1, 102099, Note_off_c, 4, 47, 64
1, 102136, Note_off_c, 1, 86, 64
1, 102138, Note_on_c, 1, 86, 126
1, 102182, Note_off_c, 1, 79, 64
1, 102184, Note_on_c, 1, 79, 126
1, 102230, Note_off_c, 1, 86, 64
1, 102231, Note_on_c, 1, 86, 126
1, 102276, Note_off_c, 1, 79, 64
1, 102278, Note_on_c, 1, 79, 126
1, 102279, Note_on_c, 4, 62, 127
1, 102279, Note_on_c, 4, 50, 127
1, 102287, Note_off_c, 4, 55, 64
1, 102288, Note_off_c, 2, 67, 64
1, 102323, Note_off_c, 1, 86, 64
1, 102324, Note_on_c, 1, 86, 126
1, 102369, Note_off_c, 1, 79, 64
1, 102371, Note_on_c, 1, 79, 126
1, 102414, Note_off_c, 1, 86, 64
1, 102416, Note_on_c, 1, 86, 126
1, 102460, Note_off_c, 1, 79, 64
1, 102462, Note_on_c, 4, 59, 127
1, 102462, Note_on_c, 1, 79, 126
1, 102463, Note_on_c, 4, 47, 127
1, 102470, Note_off_c, 4, 50, 64
1, 102471, Note_off_c, 4, 62, 64
1, 102506, Note_off_c, 1, 86, 64
1, 102510, Note_on_c, 1, 86, 126
1, 102554, Note_off_c, 1, 79, 64
1, 102556, Note_on_c, 1, 79, 126
1, 102601, Note_off_c, 1, 86, 64
1, 102603, Note_on_c, 1, 86, 126
1, 102647, Note_off_c, 1, 79, 64
1, 102649, Note_on_c, 2, 74, 127
1, 102649, Note_on_c, 1, 80, 126
1, 102650, Note_on_c, 4, 46, 127
1, 102650, Note_on_c, 4, 58, 126
1, 102657, Note_off_c, 4, 59, 64
1, 102657, Note_off_c, 4, 47, 64
1, 102692, Note_off_c, 1, 86, 64
1, 102696, Note_on_c, 1, 86, 126
1, 102738, Note_off_c, 2, 74, 64
1, 102739, Note_off_c, 1, 80, 64
1, 102741, Note_on_c, 1, 80, 126
1, 102742, Note_on_c, 2, 74, 127
1, 102786, Note_off_c, 1, 86, 64
1, 102788, Note_on_c, 1, 86, 126
1, 102834, Note_off_c, 2, 74, 64
1, 102835, Note_off_c, 1, 80, 64
1, 102835, Note_on_c, 1, 80, 126
1, 102836, Note_on_c, 4, 65, 126
1, 102836, Note_on_c, 2, 74, 127
1, 102837, Note_on_c, 4, 53, 127
1, 102843, Note_off_c, 4, 46, 64
1, 102844, Note_off_c, 4, 58, 64
1, 102880, Note_off_c, 1, 86, 64
1, 102884, Note_on_c, 1, 86, 126
1, 102928, Note_off_c, 2, 74, 64
1, 102929, Note_off_c, 1, 80, 64
1, 102931, Note_on_c, 1, 80, 126
1, 102932, Note_on_c, 2, 74, 127
1, 102974, Note_off_c, 1, 86, 64
1, 102977, Note_on_c, 1, 86, 126
1, 103020, Note_off_c, 2, 74, 64
1, 103021, Note_off_c, 1, 80, 64
1, 103023, Note_on_c, 1, 80, 126
1, 103024, Note_on_c, 4, 62, 127
1, 103024, Note_on_c, 2, 74, 127
1, 103025, Note_on_c, 4, 50, 127
1, 103031, Note_off_c, 4, 53, 64
1, 103032, Note_off_c, 4, 65, 64
1, 103068, Note_off_c, 1, 86, 64
1, 103070, Note_on_c, 1, 86, 126
1, 103116, Note_off_c, 2, 74, 64
1, 103117, Note_off_c, 1, 80, 64
1, 103119, Note_on_c, 1, 80, 126
1, 103120, Note_on_c, 2, 74, 127
1, 103163, Note_off_c, 1, 86, 64
1, 103166, Note_on_c, 1, 86, 126
1, 103211, Note_off_c, 1, 80, 64
1, 103211, Note_off_c, 2, 74, 64
1, 103214, Note_on_c, 1, 80, 126
1, 103214, Note_on_c, 2, 74, 127
1, 103215, Note_on_c, 4, 58, 126
1, 103215, Note_on_c, 4, 46, 127
1, 103222, Note_off_c, 4, 62, 64
1, 103222, Note_off_c, 4, 50, 64
1, 103260, Note_off_c, 1, 86, 64
1, 103263, Note_on_c, 1, 86, 126
1, 103308, Note_off_c, 2, 74, 64
1, 103309, Note_off_c, 1, 80, 64
1, 103310, Note_on_c, 1, 80, 126
1, 103310, Note_on_c, 2, 74, 127
1, 103355, Note_off_c, 1, 86, 64
1, 103357, Note_on_c, 1, 86, 122
1, 103397, Note_off_c, 4, 58, 64
1, 103399, Note_off_c, 1, 86, 64
1, 103399, Note_off_c, 2, 74, 64
1, 103400, Note_off_c, 1, 80, 64
1, 103406, Note_on_c, 4, 57, 127
1, 103420, Note_on_c, 2, 76, 127
1, 103424, Note_off_c, 4, 46, 64
1, 103431, Note_on_c, 1, 81, 127
1, 103443, Note_on_c, 1, 85, 127
1, 103461, Note_on_c, 2, 69, 126
1, 103505, Note_on_c, 2, 68, 126
1, 103512, Note_off_c, 2, 69, 64
1, 103551, Note_on_c, 2, 69, 126
1, 103559, Note_off_c, 2, 68, 64
1, 103595, Note_on_c, 2, 71, 127
1, 103603, Note_off_c, 2, 69, 64
1, 103641, Note_on_c, 2, 69, 126
1, 103647, Note_off_c, 2, 71, 64
1, 103666, Note_off_c, 2, 76, 64
1, 103675, Note_off_c, 1, 81, 64
1, 103683, Note_off_c, 1, 85, 64
1, 103684, Note_on_c, 1, 81, 118
1, 103684, Note_on_c, 4, 66, 126
1, 103727, Note_off_c, 2, 69, 64
1, 103728, Note_on_c, 2, 69, 126
1, 103773, Note_on_c, 1, 79, 114
1, 103773, Note_on_c, 4, 64, 124
1, 103779, Note_off_c, 4, 66, 64
1, 103780, Note_off_c, 1, 81, 64
1, 103812, Note_off_c, 2, 69, 64
1, 103815, Note_on_c, 2, 69, 126
1, 103857, Note_on_c, 1, 78, 114
1, 103858, Note_on_c, 4, 62, 127
1, 103864, Note_off_c, 4, 64, 64
1, 103864, Note_off_c, 1, 79, 64
1, 103897, Note_off_c, 2, 69, 64
1, 103899, Note_on_c, 2, 69, 126
1, 103944, Note_on_c, 2, 76, 117
1, 103944, Note_on_c, 4, 61, 127
1, 103950, Note_off_c, 4, 62, 64
1, 103951, Note_off_c, 1, 78, 64
1, 103984, Note_off_c, 2, 69, 64
1, 103986, Note_on_c, 2, 69, 126
1, 104028, Note_on_c, 2, 74, 117
1, 104028, Note_on_c, 4, 59, 127
1, 104035, Note_off_c, 4, 61, 64
1, 104035, Note_off_c, 2, 76, 64
1, 104070, Note_off_c, 2, 69, 64
1, 104072, Note_on_c, 2, 69, 126
1, 104076, Note_off_c, 4, 57, 64
1, 104118, Note_on_c, 2, 73, 117
1, 104119, Note_on_c, 4, 57, 127
1, 104125, Note_off_c, 4, 59, 64
1, 104125, Note_off_c, 2, 74, 64
1, 104160, Note_off_c, 2, 69, 64
1, 104162, Note_on_c, 2, 69, 126
1, 104205, Note_on_c, 2, 74, 117
1, 104205, Note_on_c, 4, 59, 127
1, 104211, Note_off_c, 4, 57, 64
1, 104212, Note_off_c, 2, 73, 64
1, 104245, Note_off_c, 2, 69, 64
1, 104249, Note_on_c, 2, 69, 126
1, 104293, Note_on_c, 2, 76, 117
1, 104293, Note_on_c, 4, 61, 127
1, 104300, Note_off_c, 4, 59, 64
1, 104300, Note_off_c, 2, 74, 64
1, 104333, Note_off_c, 2, 69, 64
1, 104335, Note_on_c, 2, 69, 126
1, 104377, Note_on_c, 1, 78, 114
1, 104378, Note_on_c, 4, 62, 127
1, 104386, Note_off_c, 4, 61, 64
1, 104387, Note_off_c, 2, 76, 64
1, 104420, Note_off_c, 2, 69, 64
1, 104422, Note_on_c, 2, 69, 126
1, 104464, Note_on_c, 1, 81, 114
1, 104464, Note_on_c, 4, 64, 124
1, 104472, Note_off_c, 4, 62, 64
1, 104473, Note_off_c, 1, 78, 64
1, 104506, Note_off_c, 2, 69, 64
1, 104508, Note_on_c, 1, 79, 114
1, 104508, Note_on_c, 2, 69, 126
1, 104515, Note_off_c, 1, 81, 64
1, 104549, Note_on_c, 1, 78, 114
1, 104550, Note_on_c, 4, 61, 127
1, 104556, Note_off_c, 1, 79, 64
1, 104556, Note_off_c, 4, 64, 64
1, 104588, Note_off_c, 2, 69, 64
1, 104588, Note_on_c, 2, 76, 117
1, 104589, Note_on_c, 2, 69, 126
1, 104595, Note_off_c, 1, 78, 64
1, 104630, Note_on_c, 4, 62, 127
1, 104630, Note_on_c, 1, 79, 114
1, 104637, Note_off_c, 2, 76, 64
1, 104637, Note_off_c, 4, 61, 64
1, 104672, Note_off_c, 2, 69, 64
1, 104674, Note_on_c, 1, 78, 114
1, 104675, Note_on_c, 2, 69, 126
1, 104681, Note_off_c, 1, 79, 64
1, 104715, Note_on_c, 2, 76, 121
1, 104716, Note_on_c, 4, 59, 127
1, 104720, Note_off_c, 1, 78, 64
1, 104721, Note_off_c, 4, 62, 64
1, 104754, Note_off_c, 2, 69, 64
1, 104756, Note_on_c, 2, 74, 121
1, 104756, Note_on_c, 2, 69, 126
1, 104764, Note_off_c, 2, 76, 64
1, 104797, Note_off_c, 2, 69, 64
1, 104798, Note_off_c, 2, 74, 64
1, 104798, Note_on_c, 2, 73, 127
1, 104799, Note_on_c, 4, 57, 127
1, 104814, Note_off_c, 4, 59, 64
1, 104824, Note_on_c, 2, 76, 127
1, 104834, Note_on_c, 1, 81, 124
1, 104856, Note_on_c, 2, 69, 126
1, 104900, Note_on_c, 2, 68, 126
1, 104907, Note_off_c, 2, 69, 64
1, 104944, Note_on_c, 2, 69, 126
1, 104950, Note_off_c, 2, 68, 64
1, 104986, Note_on_c, 2, 71, 127
1, 104994, Note_off_c, 2, 69, 64
1, 105030, Note_on_c, 2, 69, 126
1, 105038, Note_off_c, 2, 71, 64
1, 105044, Note_off_c, 2, 73, 64
1, 105057, Note_off_c, 2, 76, 64
1, 105065, Note_off_c, 1, 81, 64
1, 105072, Note_on_c, 1, 81, 114
1, 105073, Note_on_c, 4, 66, 126
1, 105081, Note_off_c, 2, 69, 64
1, 105118, Note_on_c, 2, 69, 126
1, 105158, Note_off_c, 1, 81, 64
1, 105160, Note_on_c, 1, 79, 114
1, 105160, Note_on_c, 4, 64, 124
1, 105167, Note_off_c, 4, 66, 64
1, 105198, Note_off_c, 2, 69, 64
1, 105202, Note_on_c, 2, 69, 126
1, 105244, Note_on_c, 1, 78, 114
1, 105245, Note_on_c, 4, 62, 127
1, 105252, Note_off_c, 4, 64, 64
1, 105252, Note_off_c, 1, 79, 64
1, 105287, Note_off_c, 2, 69, 64
1, 105288, Note_on_c, 2, 69, 126
1, 105331, Note_on_c, 4, 61, 127
1, 105331, Note_on_c, 2, 76, 117
1, 105339, Note_off_c, 4, 62, 64
1, 105340, Note_off_c, 1, 78, 64
1, 105373, Note_off_c, 2, 69, 64
1, 105373, Note_on_c, 2, 69, 126
1, 105418, Note_on_c, 2, 74, 117
1, 105418, Note_on_c, 4, 59, 127
1, 105424, Note_off_c, 4, 61, 64
1, 105425, Note_off_c, 2, 76, 64
1, 105459, Note_off_c, 2, 69, 64
1, 105461, Note_off_c, 4, 57, 64
1, 105462, Note_on_c, 2, 69, 126
1, 105505, Note_on_c, 2, 73, 117
1, 105505, Note_on_c, 4, 57, 127
1, 105512, Note_off_c, 4, 59, 64
1, 105512, Note_off_c, 2, 74, 64
1, 105547, Note_off_c, 2, 69, 64
1, 105549, Note_on_c, 2, 69, 126
1, 105593, Note_on_c, 2, 74, 117
1, 105594, Note_on_c, 4, 59, 127
1, 105600, Note_off_c, 4, 57, 64
1, 105600, Note_off_c, 2, 73, 64
1, 105634, Note_off_c, 2, 69, 64
1, 105636, Note_on_c, 2, 69, 126
1, 105681, Note_on_c, 2, 76, 117
1, 105681, Note_on_c, 4, 61, 127
1, 105687, Note_off_c, 4, 59, 64
1, 105688, Note_off_c, 2, 74, 64
1, 105721, Note_off_c, 2, 69, 64
1, 105723, Note_on_c, 2, 69, 126
1, 105767, Note_on_c, 1, 78, 114
1, 105768, Note_on_c, 4, 62, 127
1, 105774, Note_off_c, 4, 61, 64
1, 105774, Note_off_c, 2, 76, 64
1, 105807, Note_off_c, 2, 69, 64
1, 105809, Note_on_c, 2, 69, 126
1, 105852, Note_on_c, 1, 81, 114
1, 105852, Note_on_c, 4, 64, 124
1, 105858, Note_off_c, 4, 62, 64
1, 105859, Note_off_c, 1, 78, 64
1, 105891, Note_off_c, 2, 69, 64
1, 105894, Note_on_c, 1, 79, 114
1, 105894, Note_on_c, 2, 69, 126
1, 105902, Note_off_c, 1, 81, 64
1, 105937, Note_on_c, 1, 78, 114
1, 105937, Note_on_c, 4, 61, 127
1, 105944, Note_off_c, 1, 79, 64
1, 105944, Note_off_c, 4, 64, 64
1, 105975, Note_off_c, 2, 69, 64
1, 105977, Note_on_c, 2, 76, 117
1, 105977, Note_on_c, 2, 69, 126
1, 105984, Note_off_c, 1, 78, 64
1, 106020, Note_on_c, 4, 62, 127
1, 106020, Note_on_c, 1, 79, 114
1, 106026, Note_off_c, 2, 76, 64
1, 106027, Note_off_c, 4, 61, 64
1, 106061, Note_off_c, 2, 69, 64
1, 106064, Note_on_c, 2, 69, 126
1, 106064, Note_on_c, 1, 78, 114
1, 106070, Note_off_c, 1, 79, 64
1, 106105, Note_on_c, 2, 76, 117
1, 106105, Note_on_c, 4, 59, 127
1, 106112, Note_off_c, 4, 62, 64
1, 106112, Note_off_c, 1, 78, 64
1, 106147, Note_off_c, 2, 69, 64
1, 106149, Note_on_c, 2, 74, 117
1, 106150, Note_on_c, 2, 69, 126
1, 106156, Note_off_c, 2, 76, 64
1, 106190, Note_off_c, 2, 69, 64
1, 106191, Note_off_c, 2, 74, 64
1, 106191, Note_off_c, 4, 59, 64
1, 106192, Note_on_c, 4, 57, 127
1, 106192, Note_on_c, 2, 73, 127
1, 106219, Note_on_c, 2, 76, 127
1, 106231, Note_on_c, 1, 81, 127
1, 106363, Note_off_c, 4, 57, 64
1, 106364, Note_off_c, 2, 73, 64
1, 106374, Note_off_c, 2, 76, 64
1, 106378, Note_on_c, 2, 76, 124
1, 106378, Note_on_c, 4, 64, 124
1, 106379, Note_on_c, 4, 61, 127
1, 106379, Note_on_c, 4, 57, 127
1, 106383, Note_off_c, 1, 81, 64
1, 106426, Note_on_c, 2, 73, 124
1, 106431, Note_off_c, 2, 76, 64
1, 106468, Note_on_c, 2, 76, 124
1, 106476, Note_off_c, 2, 73, 64
1, 106516, Note_on_c, 2, 73, 124
1, 106524, Note_off_c, 2, 76, 64
1, 106554, Note_off_c, 4, 64, 64
1, 106555, Note_off_c, 4, 57, 64
1, 106555, Note_off_c, 4, 61, 64
1, 106561, Note_on_c, 4, 64, 124
1, 106561, Note_on_c, 2, 69, 126
1, 106562, Note_on_c, 4, 57, 127
1, 106562, Note_on_c, 4, 61, 127
1, 106569, Note_off_c, 2, 73, 64
1, 106916, Note_off_c, 2, 69, 64
1, 106917, Note_on_c, 2, 69, 127
1, 107025, Note_off_c, 2, 69, 64
1, 107028, Note_on_c, 2, 74, 127
1, 107124, Note_off_c, 2, 74, 64
1, 107125, Note_on_c, 2, 73, 127
1, 107172, Note_off_c, 4, 64, 64
1, 107216, Note_off_c, 2, 73, 64
1, 107216, Note_on_c, 2, 76, 127
1, 107307, Note_off_c, 2, 76, 64
1, 107308, Note_on_c, 2, 74, 127
1, 107398, Note_off_c, 2, 74, 64
1, 107399, Note_off_c, 4, 61, 64
1, 107399, Note_on_c, 2, 73, 127
1, 107489, Note_off_c, 2, 73, 64
1, 107490, Note_on_c, 2, 71, 127
1, 107584, Note_off_c, 2, 71, 64
1, 107585, Note_on_c, 2, 73, 121
1, 107585, Note_on_c, 4, 64, 124
1, 107586, Note_off_c, 4, 57, 64
1, 107586, Note_on_c, 4, 61, 127
1, 107613, Note_on_c, 2, 71, 120
1, 107623, Note_off_c, 2, 73, 64
1, 107640, Note_on_c, 2, 73, 121
1, 107650, Note_off_c, 2, 71, 64
1, 107667, Note_on_c, 2, 71, 120
1, 107676, Note_off_c, 2, 73, 64
1, 107684, Note_off_c, 4, 61, 64
1, 107685, Note_off_c, 4, 64, 64
1, 107691, Note_on_c, 4, 64, 124
1, 107691, Note_on_c, 2, 69, 122
1, 107692, Note_on_c, 4, 61, 127
1, 107715, Note_off_c, 2, 71, 64
1, 107776, Note_off_c, 2, 69, 64
1, 107780, Note_off_c, 4, 61, 64
1, 107781, Note_off_c, 4, 64, 64
1, 107789, Note_on_c, 2, 69, 122
1, 107790, Note_on_c, 4, 64, 124
1, 107790, Note_on_c, 4, 61, 127
1, 107879, Note_off_c, 4, 61, 64
1, 107879, Note_off_c, 4, 64, 64
1, 107887, Note_on_c, 4, 64, 124
1, 107888, Note_on_c, 4, 61, 127
1, 107976, Note_off_c, 4, 61, 64
1, 107977, Note_off_c, 4, 64, 64
1, 107985, Note_on_c, 4, 61, 127
1, 107985, Note_on_c, 4, 64, 124
1, 108020, Note_off_c, 2, 69, 64
1, 108057, Note_on_c, 2, 71, 127
1, 108074, Note_off_c, 4, 64, 64
1, 108074, Note_off_c, 4, 61, 64
1, 108079, Note_off_c, 2, 71, 64
1, 108083, Note_on_c, 2, 71, 127
1, 108084, Note_on_c, 4, 64, 124
1, 108084, Note_on_c, 4, 61, 127
1, 108103, Note_off_c, 2, 71, 64
1, 108107, Note_on_c, 2, 69, 125
1, 108126, Note_off_c, 2, 69, 64
1, 108130, Note_on_c, 2, 68, 125
1, 108168, Note_off_c, 2, 68, 64
1, 108170, Note_off_c, 4, 61, 64
1, 108171, Note_off_c, 4, 64, 64
1, 108179, Note_on_c, 2, 69, 127
1, 108180, Note_on_c, 4, 64, 124
1, 108180, Note_on_c, 4, 61, 127
1, 108266, Note_off_c, 4, 61, 64
1, 108267, Note_off_c, 4, 64, 64
1, 108273, Note_on_c, 2, 71, 127
1, 108273, Note_on_c, 4, 64, 124
1, 108274, Note_on_c, 4, 61, 127
1, 108289, Note_off_c, 2, 69, 64
1, 108368, Note_on_c, 2, 69, 127
1, 108369, Note_on_c, 4, 62, 127
1, 108369, Note_on_c, 4, 59, 127
1, 108377, Note_off_c, 4, 61, 64
1, 108377, Note_off_c, 4, 64, 64
1, 108378, Note_off_c, 2, 71, 64
1, 108458, Note_off_c, 4, 59, 64
1, 108458, Note_off_c, 4, 62, 64
1, 108463, Note_off_c, 2, 69, 64
1, 108465, Note_on_c, 2, 67, 127
1, 108466, Note_on_c, 4, 62, 127
1, 108466, Note_on_c, 4, 59, 127
1, 108554, Note_off_c, 4, 59, 64
1, 108555, Note_off_c, 4, 62, 64
1, 108563, Note_on_c, 4, 62, 127
1, 108563, Note_on_c, 4, 59, 127
1, 108650, Note_off_c, 4, 59, 64
1, 108651, Note_off_c, 4, 62, 64
1, 108657, Note_on_c, 2, 71, 127
1, 108658, Note_on_c, 4, 62, 127
1, 108658, Note_on_c, 4, 59, 127
1, 108659, Note_off_c, 2, 67, 64
1, 108747, Note_off_c, 4, 59, 64
1, 108747, Note_off_c, 4, 62, 64
1, 108754, Note_on_c, 2, 67, 127
1, 108755, Note_on_c, 4, 61, 127
1, 108755, Note_on_c, 4, 57, 127
1, 108763, Note_off_c, 2, 71, 64
1, 108838, Note_off_c, 4, 57, 64
1, 108838, Note_off_c, 4, 61, 64
1, 108845, Note_on_c, 4, 66, 127
1, 108846, Note_on_c, 4, 61, 127
1, 108846, Note_on_c, 4, 57, 127
1, 108847, Note_off_c, 2, 67, 64
1, 108936, Note_off_c, 4, 57, 64
1, 108936, Note_off_c, 4, 61, 64
1, 108942, Note_on_c, 4, 61, 127
1, 108943, Note_on_c, 4, 57, 127
1, 109028, Note_off_c, 4, 66, 64
1, 109033, Note_off_c, 4, 57, 64
1, 109034, Note_off_c, 4, 61, 64
1, 109040, Note_on_c, 2, 69, 127
1, 109041, Note_on_c, 4, 61, 127
1, 109041, Note_on_c, 4, 57, 127
1, 109129, Note_off_c, 4, 57, 64
1, 109130, Note_off_c, 4, 61, 64
1, 109136, Note_on_c, 4, 66, 127
1, 109138, Note_on_c, 4, 59, 127
1, 109139, Note_on_c, 4, 55, 127
1, 109145, Note_off_c, 2, 69, 64
1, 109187, Note_off_c, 4, 66, 64
1, 109188, Note_on_c, 4, 64, 124
1, 109226, Note_off_c, 4, 55, 64
1, 109227, Note_off_c, 4, 59, 64
1, 109233, Note_off_c, 4, 64, 64
1, 109234, Note_on_c, 2, 67, 126
1, 109234, Note_on_c, 4, 59, 127
1, 109235, Note_on_c, 4, 55, 127
1, 109283, Note_off_c, 2, 67, 64
1, 109284, Note_on_c, 4, 66, 126
1, 109320, Note_off_c, 4, 55, 64
1, 109321, Note_off_c, 4, 59, 64
1, 109327, Note_off_c, 4, 66, 64
1, 109328, Note_on_c, 2, 69, 126
1, 109328, Note_on_c, 4, 59, 127
1, 109329, Note_on_c, 4, 55, 127
1, 109373, Note_off_c, 2, 69, 64
1, 109374, Note_on_c, 2, 67, 126
1, 109413, Note_off_c, 4, 55, 64
1, 109414, Note_off_c, 4, 59, 64
1, 109419, Note_off_c, 2, 67, 64
1, 109420, Note_on_c, 4, 66, 126
1, 109420, Note_on_c, 4, 59, 127
1, 109421, Note_on_c, 4, 55, 127
1, 109467, Note_off_c, 4, 66, 64
1, 109468, Note_on_c, 4, 64, 124
1, 109507, Note_off_c, 4, 59, 64
1, 109507, Note_off_c, 4, 55, 64
1, 109515, Note_off_c, 4, 64, 64
1, 109516, Note_on_c, 4, 57, 127
1, 109516, Note_on_c, 4, 62, 127
1, 109517, Note_on_c, 4, 54, 127
1, 109561, Note_off_c, 4, 62, 64
1, 109562, Note_on_c, 4, 64, 124
1, 109608, Note_off_c, 4, 64, 64
1, 109609, Note_on_c, 4, 62, 127
1, 109654, Note_off_c, 4, 62, 64
1, 109654, Note_on_c, 4, 61, 127
1, 109701, Note_off_c, 4, 61, 64
1, 109701, Note_on_c, 4, 62, 127
1, 109750, Note_off_c, 4, 62, 64
1, 109750, Note_on_c, 4, 64, 124
1, 109799, Note_off_c, 4, 64, 64
1, 109799, Note_on_c, 3, 66, 126
1, 109848, Note_off_c, 3, 66, 64
1, 109848, Note_on_c, 3, 67, 126
1, 109895, Note_off_c, 3, 67, 64
1, 109896, Note_on_c, 3, 68, 126
1, 109940, Note_off_c, 3, 68, 64
1, 109941, Note_on_c, 3, 69, 126
1, 109986, Note_off_c, 3, 69, 64
1, 109986, Note_on_c, 3, 71, 123
1, 110031, Note_off_c, 3, 71, 64
1, 110031, Note_on_c, 3, 69, 122
1, 110075, Note_off_c, 3, 69, 64
1, 110075, Note_on_c, 3, 73, 123
1, 110119, Note_off_c, 3, 73, 64
1, 110120, Note_on_c, 3, 71, 123
1, 110162, Note_off_c, 3, 71, 64
1, 110163, Note_on_c, 3, 74, 123
1, 110208, Note_off_c, 3, 74, 64
1, 110208, Note_on_c, 3, 73, 123
1, 110249, Note_off_c, 3, 73, 64
1, 110250, Note_on_c, 3, 76, 123
1, 110294, Note_off_c, 3, 76, 64
1, 110294, Note_on_c, 3, 74, 123
1, 110336, Note_off_c, 3, 74, 64
1, 110336, Note_on_c, 3, 78, 122
1, 110379, Note_off_c, 3, 78, 64
1, 110379, Note_on_c, 3, 76, 123
1, 110422, Note_off_c, 3, 76, 64
1, 110423, Note_on_c, 3, 79, 122
1, 110467, Note_off_c, 3, 79, 64
1, 110468, Note_on_c, 3, 78, 118
1, 110510, Note_off_c, 3, 78, 64
1, 110511, Note_on_c, 1, 81, 118
1, 110556, Note_off_c, 1, 81, 64
1, 110556, Note_on_c, 3, 79, 118
1, 110604, Note_off_c, 3, 79, 64
1, 110605, Note_on_c, 1, 80, 118
1, 110650, Note_off_c, 1, 80, 64
1, 110650, Note_on_c, 1, 81, 118
1, 110697, Note_off_c, 1, 81, 64
1, 110697, Note_on_c, 1, 83, 118
1, 110744, Note_off_c, 1, 83, 64
1, 110744, Note_on_c, 1, 81, 118
1, 110787, Note_off_c, 1, 81, 64
1, 110787, Note_on_c, 1, 85, 122
1, 110832, Note_off_c, 1, 85, 64
1, 110832, Note_on_c, 1, 83, 122
1, 110877, Note_off_c, 1, 83, 64
1, 110878, Note_on_c, 1, 86, 126
1, 110922, Note_off_c, 1, 86, 64
1, 110923, Note_on_c, 1, 85, 126
1, 110965, Note_off_c, 1, 85, 64
1, 110966, Note_on_c, 1, 88, 123
1, 111057, Note_off_c, 1, 88, 64
1, 111057, Note_on_c, 1, 86, 122
1, 111148, Note_off_c, 1, 86, 64
1, 111148, Note_on_c, 1, 85, 122
1, 111241, Note_off_c, 1, 85, 64
1, 111241, Note_on_c, 1, 83, 114
1, 111255, Note_off_c, 4, 54, 64
1, 111256, Note_off_c, 4, 57, 64
1, 111331, Note_off_c, 1, 83, 64
1, 111332, Note_on_c, 1, 80, 114
1, 111332, Note_on_c, 3, 76, 112
1, 111333, Note_on_c, 3, 73, 112
1, 111419, Note_off_c, 3, 76, 64
1, 111419, Note_off_c, 3, 73, 64
1, 111426, Note_on_c, 1, 83, 110
1, 111426, Note_on_c, 3, 76, 112
1, 111427, Note_on_c, 3, 73, 112
1, 111431, Note_off_c, 1, 80, 64
1, 111473, Note_on_c, 1, 81, 110
1, 111479, Note_off_c, 1, 83, 64
1, 111514, Note_off_c, 1, 81, 64
1, 111514, Note_off_c, 3, 73, 64
1, 111515, Note_off_c, 3, 76, 64
1, 111523, Note_on_c, 1, 81, 110
1, 111523, Note_on_c, 3, 76, 112
1, 111523, Note_on_c, 3, 73, 112
1, 111609, Note_off_c, 3, 73, 64
1, 111609, Note_off_c, 3, 76, 64
1, 111617, Note_on_c, 3, 76, 112
1, 111618, Note_on_c, 3, 73, 112
1, 111703, Note_off_c, 3, 73, 64
1, 111703, Note_off_c, 3, 76, 64
1, 111711, Note_on_c, 3, 76, 112
1, 111712, Note_on_c, 3, 73, 112
1, 111756, Note_off_c, 1, 81, 64
1, 111758, Note_on_c, 1, 83, 110
1, 111797, Note_off_c, 3, 73, 64
1, 111797, Note_off_c, 3, 76, 64
1, 111805, Note_on_c, 1, 81, 110
1, 111806, Note_on_c, 3, 76, 112
1, 111806, Note_on_c, 3, 73, 112
1, 111812, Note_off_c, 1, 83, 64
1, 111852, Note_on_c, 1, 80, 110
1, 111856, Note_off_c, 1, 81, 64
1, 111893, Note_off_c, 3, 73, 64
1, 111893, Note_off_c, 3, 76, 64
1, 111900, Note_on_c, 1, 81, 110
1, 111900, Note_on_c, 3, 76, 112
1, 111900, Note_on_c, 3, 73, 112
1, 111907, Note_off_c, 1, 80, 64
1, 111988, Note_off_c, 3, 73, 64
1, 111988, Note_off_c, 3, 76, 64
1, 111989, Note_off_c, 1, 81, 64
1, 111995, Note_on_c, 1, 81, 110
1, 111995, Note_on_c, 3, 76, 112
1, 111996, Note_on_c, 3, 73, 112
1, 112082, Note_off_c, 3, 76, 64
1, 112082, Note_off_c, 3, 73, 64
1, 112089, Note_on_c, 3, 74, 112
1, 112089, Note_on_c, 3, 71, 111
1, 112174, Note_off_c, 3, 71, 64
1, 112175, Note_off_c, 3, 74, 64
1, 112183, Note_on_c, 1, 78, 118
1, 112183, Note_on_c, 3, 74, 112
1, 112184, Note_on_c, 3, 71, 111
1, 112188, Note_off_c, 1, 81, 64
1, 112268, Note_off_c, 3, 71, 64
1, 112269, Note_off_c, 3, 74, 64
1, 112275, Note_on_c, 3, 74, 112
1, 112275, Note_on_c, 3, 71, 111
1, 112362, Note_off_c, 3, 71, 64
1, 112363, Note_off_c, 3, 74, 64
1, 112371, Note_on_c, 1, 79, 114
1, 112371, Note_on_c, 3, 74, 112
1, 112372, Note_on_c, 3, 71, 111
1, 112374, Note_off_c, 1, 78, 64
1, 112456, Note_off_c, 3, 71, 64
1, 112457, Note_off_c, 3, 74, 64
1, 112465, Note_on_c, 3, 73, 112
1, 112465, Note_on_c, 3, 69, 109
1, 112550, Note_off_c, 3, 69, 64
1, 112551, Note_off_c, 3, 73, 64
1, 112559, Note_on_c, 2, 77, 119
1, 112560, Note_on_c, 3, 73, 112
1, 112560, Note_on_c, 3, 69, 109
1, 112563, Note_off_c, 1, 79, 64
1, 112645, Note_off_c, 3, 69, 64
1, 112646, Note_off_c, 3, 73, 64
1, 112654, Note_on_c, 3, 73, 112
1, 112655, Note_on_c, 3, 69, 109
1, 112740, Note_off_c, 3, 69, 64
1, 112740, Note_off_c, 3, 73, 64
1, 112749, Note_on_c, 3, 69, 109
1, 112749, Note_on_c, 3, 73, 112
1, 112749, Note_on_c, 1, 78, 118
1, 112751, Note_off_c, 2, 77, 64
1, 112834, Note_off_c, 3, 69, 64
1, 112835, Note_off_c, 3, 73, 64
1, 112843, Note_on_c, 3, 71, 111
1, 112843, Note_on_c, 3, 67, 113
1, 112924, Note_off_c, 3, 67, 64
1, 112925, Note_off_c, 3, 71, 64
1, 112933, Note_on_c, 2, 75, 119
1, 112933, Note_on_c, 3, 71, 111
1, 112934, Note_on_c, 3, 67, 113
1, 112935, Note_off_c, 1, 78, 64
1, 113015, Note_off_c, 3, 67, 64
1, 113015, Note_off_c, 3, 71, 64
1, 113021, Note_on_c, 3, 71, 111
1, 113022, Note_on_c, 3, 67, 113
1, 113107, Note_off_c, 3, 71, 64
1, 113107, Note_off_c, 3, 67, 64
1, 113113, Note_on_c, 2, 76, 119
1, 113114, Note_on_c, 3, 71, 111
1, 113114, Note_on_c, 3, 67, 113
1, 113118, Note_off_c, 2, 75, 64
1, 113197, Note_off_c, 3, 67, 64
1, 113197, Note_off_c, 3, 71, 64
1, 113206, Note_on_c, 3, 66, 117
1, 113206, Note_on_c, 3, 69, 109
1, 113251, Note_off_c, 2, 76, 64
1, 113251, Note_on_c, 2, 73, 119
1, 113296, Note_on_c, 2, 76, 123
1, 113304, Note_off_c, 2, 73, 64
1, 113341, Note_on_c, 2, 74, 123
1, 113347, Note_off_c, 2, 76, 64
1, 113381, Note_on_c, 1, 83, 122
1, 113389, Note_off_c, 2, 74, 64
1, 113425, Note_on_c, 1, 81, 122
1, 113433, Note_off_c, 1, 83, 64
1, 113470, Note_on_c, 1, 79, 126
1, 113477, Note_off_c, 1, 81, 64
1, 113516, Note_on_c, 1, 78, 126
1, 113523, Note_off_c, 1, 79, 64
1, 113564, Note_off_c, 3, 69, 64
1, 113564, Note_off_c, 3, 66, 64
1, 113565, Note_on_c, 2, 76, 127
1, 113565, Note_on_c, 4, 55, 127
1, 113566, Note_on_c, 4, 43, 127
1, 113571, Note_off_c, 1, 78, 64
1, 113610, Note_on_c, 1, 86, 126
1, 113656, Note_on_c, 4, 54, 127
1, 113656, Note_on_c, 2, 75, 127
1, 113657, Note_on_c, 4, 42, 127
1, 113664, Note_off_c, 2, 76, 64
1, 113666, Note_off_c, 4, 43, 64
1, 113667, Note_off_c, 4, 55, 64
1, 113702, Note_off_c, 1, 86, 64
1, 113704, Note_on_c, 1, 86, 126
1, 113750, Note_on_c, 4, 55, 127
1, 113750, Note_on_c, 2, 76, 127
1, 113751, Note_on_c, 4, 43, 127
1, 113759, Note_off_c, 2, 75, 64
1, 113760, Note_off_c, 4, 42, 64
1, 113761, Note_off_c, 4, 54, 64
1, 113794, Note_off_c, 1, 86, 64
1, 113798, Note_on_c, 1, 86, 126
1, 113844, Note_on_c, 2, 75, 127
1, 113844, Note_on_c, 4, 54, 127
1, 113845, Note_on_c, 4, 42, 127
1, 113852, Note_off_c, 2, 76, 64
1, 113854, Note_off_c, 4, 55, 64
1, 113854, Note_off_c, 4, 43, 64
1, 113887, Note_off_c, 1, 86, 64
1, 113889, Note_on_c, 1, 86, 126
1, 113935, Note_on_c, 2, 76, 127
1, 113936, Note_on_c, 4, 43, 127
1, 113936, Note_on_c, 4, 55, 127
1, 113944, Note_off_c, 2, 75, 64
1, 113946, Note_off_c, 4, 42, 64
1, 113946, Note_off_c, 4, 54, 64
1, 113979, Note_off_c, 1, 86, 64
1, 113981, Note_on_c, 1, 79, 126
1, 113989, Note_off_c, 2, 76, 64
1, 114025, Note_on_c, 1, 83, 122
1, 114033, Note_off_c, 1, 79, 64
1, 114070, Note_on_c, 1, 81, 122
1, 114077, Note_off_c, 1, 83, 64
1, 114114, Note_on_c, 1, 84, 122
1, 114121, Note_off_c, 1, 81, 64
1, 114158, Note_on_c, 1, 83, 122
1, 114164, Note_off_c, 1, 84, 64
1, 114200, Note_on_c, 1, 81, 122
1, 114208, Note_off_c, 1, 83, 64
1, 114242, Note_on_c, 1, 79, 126
1, 114250, Note_off_c, 1, 81, 64
1, 114281, Note_off_c, 4, 55, 64
1, 114281, Note_off_c, 4, 43, 64
1, 114288, Note_on_c, 1, 78, 126
1, 114288, Note_on_c, 4, 57, 127
1, 114288, Note_on_c, 4, 45, 127
1, 114296, Note_off_c, 1, 79, 64
1, 114335, Note_on_c, 1, 86, 126
1, 114381, Note_on_c, 4, 56, 127
1, 114381, Note_on_c, 2, 77, 127
1, 114382, Note_on_c, 4, 44, 127
1, 114389, Note_off_c, 1, 78, 64
1, 114391, Note_off_c, 4, 45, 64
1, 114392, Note_off_c, 4, 57, 64
1, 114425, Note_off_c, 1, 86, 64
1, 114429, Note_on_c, 1, 86, 126
1, 114475, Note_on_c, 4, 57, 127
1, 114475, Note_on_c, 1, 78, 126
1, 114476, Note_on_c, 4, 45, 127
1, 114482, Note_off_c, 2, 77, 64
1, 114484, Note_off_c, 4, 44, 64
1, 114485, Note_off_c, 4, 56, 64
1, 114520, Note_off_c, 1, 86, 64
1, 114522, Note_on_c, 1, 86, 126
1, 114568, Note_on_c, 2, 77, 127
1, 114568, Note_on_c, 4, 56, 127
1, 114569, Note_on_c, 4, 44, 127
1, 114576, Note_off_c, 1, 78, 64
1, 114578, Note_off_c, 4, 45, 64
1, 114579, Note_off_c, 4, 57, 64
1, 114612, Note_off_c, 1, 86, 64
1, 114614, Note_on_c, 1, 86, 126
1, 114660, Note_on_c, 4, 57, 127
1, 114660, Note_on_c, 1, 78, 126
1, 114661, Note_on_c, 4, 45, 127
1, 114669, Note_off_c, 2, 77, 64
1, 114671, Note_off_c, 4, 44, 64
1, 114671, Note_off_c, 4, 56, 64
1, 114704, Note_off_c, 1, 86, 64
1, 114706, Note_on_c, 1, 81, 122
1, 114714, Note_off_c, 1, 78, 64
1, 114751, Note_on_c, 1, 84, 122
1, 114758, Note_off_c, 1, 81, 64
1, 114795, Note_on_c, 1, 83, 122
1, 114803, Note_off_c, 1, 84, 64
1, 114840, Note_on_c, 1, 86, 126
1, 114846, Note_off_c, 1, 83, 64
1, 114883, Note_on_c, 1, 84, 122
1, 114890, Note_off_c, 1, 86, 64
1, 114927, Note_on_c, 1, 83, 122
1, 114935, Note_off_c, 1, 84, 64
1, 114973, Note_on_c, 1, 81, 122
1, 114981, Note_off_c, 1, 83, 64
1, 115012, Note_off_c, 4, 57, 64
1, 115012, Note_off_c, 4, 45, 64
1, 115019, Note_on_c, 1, 79, 126
1, 115019, Note_on_c, 4, 59, 126
1, 115020, Note_on_c, 4, 47, 127
1, 115026, Note_off_c, 1, 81, 64
1, 115067, Note_on_c, 1, 86, 126
1, 115113, Note_on_c, 4, 58, 122
1, 115113, Note_on_c, 1, 78, 126
1, 115114, Note_on_c, 4, 46, 127
1, 115121, Note_off_c, 1, 79, 64
1, 115122, Note_off_c, 4, 47, 64
1, 115122, Note_off_c, 4, 59, 64
1, 115157, Note_off_c, 1, 86, 64
1, 115160, Note_on_c, 1, 86, 126
1, 115205, Note_on_c, 1, 79, 126
1, 115206, Note_on_c, 4, 59, 126
1, 115207, Note_on_c, 4, 47, 127
1, 115214, Note_off_c, 1, 78, 64
1, 115216, Note_off_c, 4, 58, 64
1, 115216, Note_off_c, 4, 46, 64
1, 115249, Note_off_c, 1, 86, 64
1, 115254, Note_on_c, 1, 86, 126
1, 115300, Note_on_c, 1, 78, 126
1, 115300, Note_on_c, 4, 58, 122
1, 115301, Note_on_c, 4, 46, 127
1, 115307, Note_off_c, 1, 79, 64
1, 115310, Note_off_c, 4, 47, 64
1, 115310, Note_off_c, 4, 59, 64
1, 115342, Note_off_c, 1, 86, 64
1, 115346, Note_on_c, 1, 86, 126
1, 115390, Note_on_c, 1, 79, 126
1, 115391, Note_on_c, 4, 47, 127
1, 115391, Note_on_c, 4, 59, 126
1, 115399, Note_off_c, 1, 78, 64
1, 115400, Note_off_c, 4, 46, 64
1, 115401, Note_off_c, 4, 58, 64
1, 115432, Note_off_c, 1, 86, 64
1, 115436, Note_on_c, 1, 83, 122
1, 115441, Note_off_c, 1, 79, 64
1, 115478, Note_on_c, 1, 86, 126
1, 115486, Note_off_c, 1, 83, 64
1, 115523, Note_on_c, 1, 85, 126
1, 115528, Note_off_c, 1, 86, 64
1, 115567, Note_on_c, 1, 86, 126
1, 115574, Note_off_c, 1, 85, 64
1, 115609, Note_on_c, 1, 85, 126
1, 115617, Note_off_c, 1, 86, 64
1, 115655, Note_on_c, 1, 83, 122
1, 115663, Note_off_c, 1, 85, 64
1, 115701, Note_on_c, 1, 81, 122
1, 115709, Note_off_c, 1, 83, 64
1, 115730, Note_off_c, 4, 59, 64
1, 115738, Note_off_c, 4, 47, 64
1, 115745, Note_on_c, 1, 80, 122
1, 115746, Note_on_c, 4, 47, 127
1, 115746, Note_on_c, 4, 58, 105
1, 115753, Note_off_c, 1, 81, 64
1, 115789, Note_on_c, 4, 62, 116
1, 115834, Note_off_c, 4, 58, 64
1, 115834, Note_on_c, 2, 74, 127
1, 115835, Note_on_c, 4, 65, 113
1, 115841, Note_off_c, 1, 80, 64
1, 115878, Note_off_c, 4, 62, 64
1, 115878, Note_on_c, 2, 68, 117
1, 115923, Note_off_c, 4, 65, 64
1, 115923, Note_on_c, 4, 58, 117
1, 115966, Note_on_c, 4, 62, 120
1, 115987, Note_off_c, 2, 68, 64
1, 116010, Note_off_c, 4, 58, 64
1, 116011, Note_off_c, 2, 74, 64
1, 116011, Note_on_c, 2, 77, 127
1, 116012, Note_on_c, 4, 65, 117
1, 116052, Note_off_c, 4, 62, 64
1, 116053, Note_on_c, 2, 68, 117
1, 116098, Note_on_c, 4, 58, 117
1, 116121, Note_off_c, 4, 65, 64
1, 116142, Note_on_c, 4, 62, 120
1, 116163, Note_off_c, 2, 68, 64
1, 116186, Note_on_c, 2, 76, 127
1, 116186, Note_on_c, 4, 65, 117
1, 116189, Note_off_c, 2, 77, 64
1, 116208, Note_off_c, 4, 58, 64
1, 116231, Note_on_c, 2, 68, 117
1, 116252, Note_off_c, 4, 62, 64
1, 116277, Note_on_c, 4, 58, 117
1, 116298, Note_off_c, 4, 65, 64
1, 116321, Note_on_c, 4, 62, 120
1, 116344, Note_off_c, 2, 68, 64
1, 116365, Note_off_c, 2, 76, 64
1, 116366, Note_on_c, 4, 65, 121
1, 116366, Note_on_c, 2, 74, 127
1, 116388, Note_off_c, 4, 58, 64
1, 116411, Note_on_c, 2, 68, 121
1, 116418, Note_off_c, 4, 65, 64
1, 116434, Note_off_c, 4, 62, 64
1, 116455, Note_off_c, 2, 68, 64
1, 116457, Note_off_c, 2, 74, 64
1, 116457, Note_on_c, 2, 73, 127
1, 116459, Note_on_c, 2, 69, 121
1, 116459, Note_on_c, 4, 57, 123
1, 116545, Note_off_c, 4, 57, 64
1, 116551, Note_on_c, 4, 57, 123
1, 116635, Note_off_c, 4, 57, 64
1, 116645, Note_on_c, 4, 61, 115
1, 116645, Note_on_c, 4, 57, 123
1, 116667, Note_off_c, 2, 73, 64
1, 116669, Note_off_c, 2, 69, 64
1, 116728, Note_off_c, 4, 57, 64
1, 116729, Note_off_c, 4, 61, 64
1, 116737, Note_on_c, 2, 69, 127
1, 116737, Note_on_c, 4, 61, 115
1, 116738, Note_on_c, 4, 57, 123
1, 116822, Note_off_c, 4, 57, 64
1, 116823, Note_off_c, 4, 61, 64
1, 116823, Note_off_c, 2, 69, 64
1, 116829, Note_on_c, 2, 70, 127
1, 116830, Note_on_c, 4, 63, 116
1, 116830, Note_on_c, 4, 66, 127
1, 116831, Note_on_c, 4, 57, 123
1, 116892, Note_off_c, 4, 47, 64
1, 116916, Note_off_c, 4, 63, 64
1, 116916, Note_off_c, 4, 57, 64
1, 116918, Note_off_c, 2, 70, 64
1, 116922, Note_on_c, 2, 71, 127
1, 116923, Note_on_c, 4, 63, 116
1, 116923, Note_on_c, 4, 57, 123
1, 117004, Note_off_c, 4, 66, 64
1, 117008, Note_off_c, 4, 57, 64
1, 117008, Note_off_c, 4, 63, 64
1, 117016, Note_on_c, 2, 67, 127
1, 117017, Note_on_c, 4, 64, 115
1, 117017, Note_on_c, 4, 57, 123
1, 117092, Note_off_c, 2, 71, 64
1, 117100, Note_off_c, 4, 57, 64
1, 117100, Note_off_c, 4, 64, 64
1, 117108, Note_on_c, 2, 71, 127
1, 117109, Note_on_c, 4, 57, 126
1, 117109, Note_on_c, 4, 64, 115
1, 117189, Note_off_c, 2, 71, 64
1, 117193, Note_off_c, 4, 57, 64
1, 117194, Note_off_c, 2, 67, 64
1, 117194, Note_off_c, 4, 64, 64
1, 117203, Note_on_c, 2, 68, 127
1, 117203, Note_on_c, 4, 61, 118
1, 117204, Note_on_c, 4, 57, 126
1, 117288, Note_off_c, 4, 57, 64
1, 117288, Note_off_c, 4, 61, 64
1, 117293, Note_off_c, 2, 68, 64
1, 117295, Note_on_c, 2, 69, 127
1, 117296, Note_on_c, 4, 57, 126
1, 117296, Note_on_c, 4, 61, 118
1, 117379, Note_off_c, 4, 61, 64
1, 117379, Note_off_c, 4, 57, 64
1, 117387, Note_on_c, 4, 66, 127
1, 117387, Note_on_c, 4, 62, 120
1, 117388, Note_on_c, 4, 57, 126
1, 117471, Note_off_c, 4, 57, 64
1, 117471, Note_off_c, 4, 62, 64
1, 117472, Note_off_c, 2, 69, 64
1, 117479, Note_on_c, 2, 69, 127
1, 117479, Note_on_c, 4, 62, 120
1, 117480, Note_on_c, 4, 57, 126
1, 117566, Note_off_c, 4, 57, 64
1, 117566, Note_off_c, 4, 62, 64
1, 117568, Note_off_c, 2, 69, 64
1, 117575, Note_on_c, 4, 59, 118
1, 117575, Note_on_c, 2, 74, 127
1, 117576, Note_on_c, 4, 57, 126
1, 117658, Note_off_c, 4, 57, 64
1, 117659, Note_off_c, 4, 59, 64
1, 117662, Note_off_c, 4, 66, 64
1, 117667, Note_on_c, 2, 67, 127
1, 117667, Note_on_c, 4, 59, 118
1, 117668, Note_on_c, 4, 57, 126
1, 117690, Note_off_c, 2, 74, 64
1, 117753, Note_off_c, 4, 57, 64
1, 117753, Note_off_c, 4, 59, 64
1, 117760, Note_on_c, 4, 61, 118
1, 117760, Note_on_c, 4, 64, 115
1, 117761, Note_on_c, 4, 57, 126
1, 117845, Note_off_c, 2, 67, 64
1, 117846, Note_off_c, 4, 61, 64
1, 117846, Note_off_c, 4, 57, 64
1, 117847, Note_off_c, 4, 64, 64
1, 117853, Note_on_c, 2, 67, 127
1, 117853, Note_on_c, 4, 61, 118
1, 117854, Note_on_c, 4, 57, 126
1, 117937, Note_off_c, 4, 57, 64
1, 117938, Note_off_c, 4, 61, 64
1, 117944, Note_on_c, 4, 65, 127
1, 117945, Note_on_c, 4, 62, 120
1, 117945, Note_on_c, 4, 57, 126
1, 117946, Note_off_c, 2, 67, 64
1, 118032, Note_off_c, 4, 57, 64
1, 118032, Note_off_c, 4, 62, 64
1, 118037, Note_off_c, 4, 65, 64
1, 118039, Note_on_c, 4, 66, 127
1, 118040, Note_on_c, 4, 57, 126
1, 118040, Note_on_c, 4, 62, 120
1, 118125, Note_off_c, 4, 62, 64
1, 118125, Note_off_c, 4, 57, 64
1, 118129, Note_off_c, 4, 66, 64
1, 118133, Note_on_c, 4, 66, 127
1, 118134, Note_on_c, 4, 57, 126
1, 118219, Note_off_c, 4, 57, 64
1, 118224, Note_off_c, 4, 66, 64
1, 118226, Note_on_c, 1, 81, 126
1, 118227, Note_on_c, 4, 66, 127
1, 118227, Note_on_c, 4, 57, 126
1, 118312, Note_off_c, 4, 57, 64
1, 118318, Note_off_c, 4, 66, 64
1, 118320, Note_off_c, 1, 81, 64
1, 118320, Note_on_c, 2, 67, 127
1, 118320, Note_on_c, 1, 83, 126
1, 118321, Note_on_c, 4, 57, 127
1, 118368, Note_on_c, 1, 85, 126
1, 118375, Note_off_c, 1, 83, 64
1, 118414, Note_on_c, 1, 86, 126
1, 118421, Note_off_c, 1, 85, 64
1, 118460, Note_on_c, 1, 85, 126
1, 118467, Note_off_c, 1, 86, 64
1, 118504, Note_on_c, 1, 88, 127
1, 118512, Note_off_c, 1, 85, 64
1, 118549, Note_on_c, 1, 86, 126
1, 118557, Note_off_c, 1, 88, 64
1, 118593, Note_on_c, 1, 85, 126
1, 118601, Note_off_c, 1, 86, 64
1, 118637, Note_on_c, 1, 83, 126
1, 118645, Note_off_c, 1, 85, 64
1, 118674, Note_off_c, 2, 67, 64
1, 118681, Note_on_c, 1, 81, 126
1, 118682, Note_on_c, 4, 66, 126
1, 118690, Note_off_c, 1, 83, 64
1, 118727, Note_on_c, 1, 85, 126
1, 118734, Note_off_c, 1, 81, 64
1, 118773, Note_on_c, 1, 86, 126
1, 118780, Note_off_c, 1, 85, 64
1, 118819, Note_on_c, 1, 85, 126
1, 118826, Note_off_c, 1, 86, 64
1, 118863, Note_on_c, 4, 62, 127
1, 118863, Note_on_c, 1, 86, 126
1, 118866, Note_off_c, 4, 66, 64
1, 118872, Note_off_c, 1, 85, 64
1, 118908, Note_on_c, 1, 81, 126
1, 118916, Note_off_c, 1, 86, 64
1, 118954, Note_on_c, 1, 83, 126
1, 118962, Note_off_c, 1, 81, 64
1, 118998, Note_on_c, 1, 78, 126
1, 119006, Note_off_c, 1, 83, 64
1, 119042, Note_on_c, 1, 79, 126
1, 119043, Note_on_c, 4, 64, 124
1, 119049, Note_off_c, 4, 62, 64
1, 119050, Note_off_c, 1, 78, 64
1, 119088, Note_on_c, 1, 81, 126
1, 119095, Note_off_c, 1, 79, 64
1, 119132, Note_on_c, 1, 83, 126
1, 119137, Note_off_c, 1, 81, 64
1, 119176, Note_on_c, 1, 81, 126
1, 119184, Note_off_c, 1, 83, 64
1, 119220, Note_on_c, 4, 61, 127
1, 119220, Note_on_c, 1, 85, 126
1, 119221, Note_off_c, 4, 64, 64
1, 119227, Note_off_c, 1, 81, 64
1, 119263, Note_on_c, 1, 83, 126
1, 119271, Note_off_c, 1, 85, 64
1, 119309, Note_on_c, 1, 81, 126
1, 119317, Note_off_c, 1, 83, 64
1, 119353, Note_on_c, 1, 79, 126
1, 119361, Note_off_c, 1, 81, 64
1, 119400, Note_on_c, 1, 78, 126
1, 119407, Note_off_c, 1, 79, 64
1, 119444, Note_on_c, 1, 81, 126
1, 119452, Note_off_c, 1, 78, 64
1, 119488, Note_on_c, 1, 86, 126
1, 119496, Note_off_c, 1, 81, 64
1, 119534, Note_on_c, 1, 85, 126
1, 119542, Note_off_c, 1, 86, 64
1, 119579, Note_off_c, 4, 61, 64
1, 119579, Note_on_c, 1, 86, 126
1, 119587, Note_off_c, 1, 85, 64
1, 119624, Note_on_c, 1, 81, 126
1, 119669, Note_on_c, 1, 78, 126
1, 119670, Note_on_c, 4, 38, 127
1, 119670, Note_on_c, 4, 50, 127
1, 119715, Note_on_c, 2, 74, 125
1, 119755, Note_off_c, 1, 86, 64
1, 119761, Note_off_c, 4, 50, 64
1, 119761, Note_off_c, 4, 38, 64
1, 119762, Note_on_c, 1, 86, 126
1, 119762, Note_on_c, 4, 54, 127
1, 119762, Note_on_c, 4, 42, 127
1, 119801, Note_off_c, 1, 81, 64
1, 119805, Note_on_c, 1, 81, 126
1, 119820, Note_off_c, 4, 57, 64
1, 119845, Note_off_c, 1, 78, 64
1, 119849, Note_off_c, 4, 42, 64
1, 119850, Note_off_c, 4, 54, 64
1, 119850, Note_on_c, 1, 78, 126
1, 119851, Note_on_c, 4, 57, 127
1, 119851, Note_on_c, 4, 45, 127
1, 119888, Note_off_c, 2, 74, 64
1, 119895, Note_on_c, 2, 74, 125
1, 119936, Note_off_c, 1, 86, 64
1, 119940, Note_off_c, 4, 45, 64
1, 119940, Note_off_c, 4, 57, 64
1, 119940, Note_on_c, 1, 86, 126
1, 119941, Note_on_c, 4, 50, 127
1, 119941, Note_on_c, 4, 62, 125
1, 119979, Note_off_c, 1, 81, 64
1, 119984, Note_on_c, 1, 81, 126
1, 120024, Note_off_c, 1, 78, 64
1, 120030, Note_on_c, 1, 78, 126
1, 120066, Note_off_c, 2, 74, 64
1, 120074, Note_on_c, 2, 74, 125
1, 120082, Note_off_c, 1, 78, 64
1, 120110, Note_off_c, 1, 81, 64
1, 120114, Note_off_c, 1, 86, 64
1, 120118, Note_on_c, 1, 83, 126
1, 120164, Note_on_c, 1, 85, 126
1, 120170, Note_off_c, 1, 83, 64
1, 120206, Note_on_c, 1, 86, 126
1, 120214, Note_off_c, 1, 85, 64
1, 120252, Note_on_c, 1, 85, 126
1, 120259, Note_off_c, 1, 86, 64
1, 120298, Note_off_c, 4, 62, 64
1, 120298, Note_on_c, 1, 86, 126
1, 120299, Note_off_c, 4, 50, 64
1, 120305, Note_off_c, 1, 85, 64
1, 120343, Note_on_c, 1, 83, 126
1, 120387, Note_on_c, 1, 79, 126
1, 120387, Note_on_c, 4, 55, 127
1, 120388, Note_on_c, 4, 43, 127
1, 120426, Note_off_c, 2, 74, 64
1, 120434, Note_on_c, 2, 74, 125
1, 120474, Note_off_c, 1, 86, 64
1, 120478, Note_off_c, 4, 43, 64
1, 120479, Note_off_c, 4, 55, 64
1, 120479, Note_on_c, 1, 86, 126
1, 120480, Note_on_c, 4, 59, 126
1, 120480, Note_on_c, 4, 47, 127
1, 120519, Note_off_c, 1, 83, 64
1, 120523, Note_on_c, 1, 83, 126
1, 120564, Note_off_c, 1, 79, 64
1, 120567, Note_off_c, 4, 47, 64
1, 120568, Note_off_c, 4, 59, 64
1, 120568, Note_on_c, 1, 79, 126
1, 120569, Note_on_c, 4, 62, 125
1, 120569, Note_on_c, 4, 50, 127
1, 120604, Note_off_c, 2, 74, 64
1, 120612, Note_on_c, 2, 74, 125
1, 120652, Note_off_c, 1, 86, 64
1, 120656, Note_off_c, 4, 50, 64
1, 120656, Note_off_c, 4, 62, 64
1, 120657, Note_on_c, 2, 67, 122
1, 120657, Note_on_c, 1, 86, 126
1, 120658, Note_on_c, 4, 55, 127
1, 120696, Note_off_c, 1, 83, 64
1, 120702, Note_on_c, 1, 83, 126
1, 120740, Note_off_c, 1, 79, 64
1, 120746, Note_on_c, 1, 79, 126
1, 120782, Note_off_c, 2, 74, 64
1, 120790, Note_on_c, 2, 74, 124
1, 120828, Note_off_c, 4, 55, 64
1, 120829, Note_off_c, 1, 86, 64
1, 120834, Note_off_c, 1, 83, 64
1, 120835, Note_on_c, 1, 78, 121
1, 120835, Note_on_c, 1, 81, 121
1, 120836, Note_on_c, 4, 57, 127
1, 120836, Note_on_c, 4, 45, 127
1, 120842, Note_off_c, 1, 79, 64
1, 120919, Note_off_c, 4, 45, 64
1, 120919, Note_off_c, 4, 57, 64
1, 120925, Note_on_c, 4, 57, 127
1, 120926, Note_on_c, 4, 45, 127
1, 120976, Note_off_c, 1, 78, 64
1, 120977, Note_off_c, 1, 81, 64
1, 120977, Note_on_c, 1, 83, 108
1, 120978, Note_on_c, 1, 79, 108
1, 121003, Note_off_c, 1, 79, 64
1, 121015, Note_on_c, 1, 79, 108
1, 121015, Note_on_c, 2, 76, 111
1, 121021, Note_off_c, 1, 83, 64
1, 121022, Note_off_c, 2, 74, 64
1, 121028, Note_off_c, 2, 67, 64
1, 121030, Note_off_c, 4, 45, 64
1, 121031, Note_off_c, 4, 57, 64
1, 121037, Note_off_c, 1, 79, 64
1, 121037, Note_on_c, 1, 78, 108
1, 121038, Note_on_c, 2, 74, 121
1, 121038, Note_on_c, 4, 57, 127
1, 121039, Note_on_c, 4, 45, 127
1, 121044, Note_off_c, 2, 76, 64
1, 121117, Note_off_c, 4, 45, 64
1, 121118, Note_off_c, 4, 57, 64
1, 121126, Note_on_c, 4, 57, 127
1, 121127, Note_on_c, 4, 45, 127
1, 121210, Note_off_c, 4, 57, 64
1, 121210, Note_off_c, 4, 45, 64
1, 121218, Note_on_c, 4, 57, 127
1, 121219, Note_on_c, 4, 45, 127
1, 121279, Note_off_c, 1, 78, 64
1, 121279, Note_off_c, 2, 74, 64
1, 121301, Note_off_c, 4, 45, 64
1, 121301, Note_off_c, 4, 57, 64
1, 121308, Note_on_c, 1, 81, 126
1, 121309, Note_on_c, 1, 78, 126
1, 121309, Note_on_c, 4, 57, 127
1, 121310, Note_on_c, 4, 45, 127
1, 121397, Note_off_c, 4, 45, 64
1, 121397, Note_off_c, 4, 57, 64
1, 121405, Note_off_c, 1, 78, 64
1, 121406, Note_off_c, 1, 81, 64
1, 121406, Note_on_c, 1, 79, 126
1, 121407, Note_on_c, 4, 57, 127
1, 121407, Note_on_c, 2, 76, 127
1, 121408, Note_on_c, 4, 45, 127
1, 121495, Note_off_c, 4, 57, 64
1, 121495, Note_off_c, 4, 45, 64
1, 121503, Note_off_c, 2, 76, 64
1, 121504, Note_off_c, 1, 79, 64
1, 121504, Note_on_c, 2, 76, 127
1, 121505, Note_on_c, 4, 57, 127
1, 121505, Note_on_c, 2, 73, 127
1, 121506, Note_on_c, 4, 45, 127
1, 121596, Note_off_c, 2, 76, 64
1, 121597, Note_on_c, 1, 78, 126
1, 121642, Note_on_c, 1, 81, 126
1, 121649, Note_off_c, 1, 78, 64
1, 121686, Note_on_c, 1, 86, 126
1, 121693, Note_off_c, 1, 81, 64
1, 121732, Note_on_c, 1, 85, 126
1, 121740, Note_off_c, 1, 86, 64
1, 121777, Note_on_c, 1, 86, 126
1, 121785, Note_off_c, 1, 85, 64
1, 121796, Note_off_c, 4, 57, 64
1, 121796, Note_off_c, 4, 45, 64
1, 121823, Note_on_c, 1, 81, 126
1, 121867, Note_on_c, 1, 78, 126
1, 121868, Note_on_c, 4, 38, 127
1, 121868, Note_on_c, 4, 50, 127
1, 121899, Note_off_c, 2, 73, 64
1, 121913, Note_on_c, 2, 74, 125
1, 121955, Note_off_c, 1, 86, 64
1, 121959, Note_off_c, 4, 50, 64
1, 121959, Note_off_c, 4, 38, 64
1, 121959, Note_on_c, 1, 86, 126
1, 121960, Note_on_c, 4, 54, 127
1, 121960, Note_on_c, 4, 42, 127
1, 121998, Note_off_c, 1, 81, 64
1, 122004, Note_on_c, 1, 81, 126
1, 122042, Note_off_c, 1, 78, 64
1, 122048, Note_off_c, 4, 42, 64
1, 122048, Note_off_c, 4, 54, 64
1, 122049, Note_on_c, 1, 78, 126
1, 122049, Note_on_c, 4, 57, 127
1, 122050, Note_on_c, 4, 45, 127
1, 122085, Note_off_c, 2, 74, 64
1, 122092, Note_on_c, 2, 74, 125
1, 122131, Note_off_c, 1, 86, 64
1, 122137, Note_off_c, 4, 45, 64
1, 122137, Note_off_c, 4, 57, 64
1, 122138, Note_on_c, 4, 62, 125
1, 122138, Note_on_c, 1, 86, 126
1, 122139, Note_on_c, 4, 50, 127
1, 122175, Note_off_c, 1, 81, 64
1, 122182, Note_on_c, 1, 81, 126
1, 122221, Note_off_c, 1, 78, 64
1, 122226, Note_on_c, 1, 78, 126
1, 122262, Note_off_c, 2, 74, 64
1, 122270, Note_on_c, 2, 74, 125
1, 122310, Note_off_c, 1, 86, 64
1, 122314, Note_off_c, 1, 81, 64
1, 122315, Note_on_c, 1, 83, 126
1, 122323, Note_off_c, 1, 78, 64
1, 122359, Note_on_c, 1, 85, 126
1, 122367, Note_off_c, 1, 83, 64
1, 122403, Note_on_c, 1, 86, 126
1, 122411, Note_off_c, 1, 85, 64
1, 122449, Note_on_c, 1, 85, 126
1, 122457, Note_off_c, 1, 86, 64
1, 122485, Note_off_c, 4, 62, 64
1, 122486, Note_off_c, 4, 50, 64
1, 122493, Note_on_c, 1, 86, 126
1, 122500, Note_off_c, 1, 85, 64
1, 122539, Note_on_c, 1, 83, 126
1, 122585, Note_on_c, 4, 55, 127
1, 122585, Note_on_c, 1, 79, 126
1, 122586, Note_on_c, 4, 43, 127
1, 122622, Note_off_c, 2, 74, 64
1, 122630, Note_on_c, 2, 74, 125
1, 122668, Note_off_c, 1, 86, 64
1, 122674, Note_off_c, 4, 43, 64
1, 122675, Note_off_c, 4, 55, 64
1, 122675, Note_on_c, 1, 86, 126
1, 122676, Note_on_c, 4, 59, 126
1, 122676, Note_on_c, 4, 47, 127
1, 122713, Note_off_c, 1, 83, 64
1, 122717, Note_on_c, 1, 83, 126
1, 122758, Note_off_c, 1, 79, 64
1, 122763, Note_off_c, 4, 47, 64
1, 122764, Note_off_c, 4, 59, 64
1, 122764, Note_on_c, 1, 79, 126
1, 122765, Note_on_c, 4, 62, 125
1, 122765, Note_on_c, 4, 50, 127
1, 122800, Note_off_c, 2, 74, 64
1, 122808, Note_on_c, 2, 74, 125
1, 122846, Note_off_c, 1, 86, 64
1, 122852, Note_off_c, 4, 50, 64
1, 122852, Note_off_c, 4, 62, 64
1, 122853, Note_on_c, 2, 67, 122
1, 122853, Note_on_c, 1, 86, 126
1, 122854, Note_on_c, 4, 55, 127
1, 122890, Note_off_c, 1, 83, 64
1, 122896, Note_on_c, 1, 83, 126
1, 122935, Note_off_c, 1, 79, 64
1, 122941, Note_on_c, 1, 79, 126
1, 122977, Note_off_c, 2, 74, 64
1, 122985, Note_on_c, 2, 74, 124
1, 123022, Note_off_c, 4, 55, 64
1, 123024, Note_off_c, 1, 86, 64
1, 123028, Note_off_c, 1, 83, 64
1, 123029, Note_on_c, 1, 78, 121
1, 123029, Note_on_c, 1, 81, 121
1, 123030, Note_on_c, 4, 57, 127
1, 123030, Note_on_c, 4, 45, 127
1, 123040, Note_off_c, 1, 79, 64
1, 123115, Note_off_c, 4, 45, 64
1, 123115, Note_off_c, 4, 57, 64
1, 123121, Note_on_c, 4, 57, 127
1, 123122, Note_on_c, 4, 45, 127
1, 123172, Note_off_c, 1, 81, 64
1, 123173, Note_on_c, 1, 83, 108
1, 123173, Note_on_c, 1, 79, 108
1, 123174, Note_off_c, 1, 78, 64
1, 123195, Note_off_c, 1, 79, 64
1, 123207, Note_off_c, 2, 74, 64
1, 123207, Note_on_c, 1, 79, 108
1, 123210, Note_on_c, 2, 76, 111
1, 123219, Note_off_c, 1, 83, 64
1, 123227, Note_off_c, 4, 45, 64
1, 123228, Note_off_c, 4, 57, 64
1, 123234, Note_off_c, 1, 79, 64
1, 123234, Note_off_c, 2, 67, 64
1, 123235, Note_on_c, 2, 74, 121
1, 123235, Note_on_c, 1, 78, 108
1, 123236, Note_on_c, 4, 57, 127
1, 123236, Note_on_c, 4, 45, 127
1, 123242, Note_off_c, 2, 76, 64
1, 123319, Note_off_c, 4, 45, 64
1, 123320, Note_off_c, 4, 57, 64
1, 123326, Note_on_c, 4, 45, 127
1, 123326, Note_on_c, 4, 57, 127
1, 123413, Note_off_c, 4, 45, 64
1, 123414, Note_off_c, 4, 57, 64
1, 123420, Note_on_c, 4, 57, 127
1, 123420, Note_on_c, 4, 45, 127
1, 123484, Note_off_c, 2, 74, 64
1, 123485, Note_off_c, 1, 78, 64
1, 123508, Note_off_c, 4, 45, 64
1, 123509, Note_off_c, 4, 57, 64
1, 123515, Note_on_c, 1, 81, 126
1, 123516, Note_on_c, 4, 45, 127
1, 123516, Note_on_c, 4, 57, 127
1, 123516, Note_on_c, 1, 78, 126
1, 123601, Note_off_c, 4, 45, 64
1, 123602, Note_off_c, 4, 57, 64
1, 123608, Note_off_c, 1, 78, 64
1, 123609, Note_off_c, 1, 81, 64
1, 123609, Note_on_c, 1, 79, 126
1, 123610, Note_on_c, 2, 76, 127
1, 123610, Note_on_c, 4, 57, 127
1, 123611, Note_on_c, 4, 45, 127
1, 123694, Note_off_c, 4, 45, 64
1, 123694, Note_off_c, 2, 76, 64
1, 123695, Note_off_c, 4, 57, 64
1, 123700, Note_off_c, 1, 79, 64
1, 123701, Note_on_c, 2, 76, 127
1, 123701, Note_on_c, 2, 73, 127
1, 123702, Note_on_c, 4, 57, 127
1, 123702, Note_on_c, 4, 45, 127
1, 123792, Note_off_c, 2, 73, 64
1, 123793, Note_off_c, 4, 45, 64
1, 123793, Note_off_c, 2, 76, 64
1, 123794, Note_off_c, 4, 57, 64
1, 123794, Note_on_c, 2, 74, 127
1, 123795, Note_on_c, 4, 62, 127
1, 123926, Note_off_c, 4, 62, 64
1, 123930, Note_on_c, 2, 76, 124
1, 123930, Note_on_c, 4, 64, 119
1, 123935, Note_off_c, 2, 74, 64
1, 123954, Note_on_c, 2, 73, 124
1, 123954, Note_on_c, 4, 61, 125
1, 123976, Note_off_c, 4, 64, 64
1, 123976, Note_off_c, 2, 76, 64
1, 123988, Note_on_c, 2, 71, 123
1, 123989, Note_on_c, 4, 59, 125
1, 124007, Note_off_c, 4, 61, 64
1, 124007, Note_off_c, 2, 73, 64
1, 124107, Note_off_c, 4, 59, 64
1, 124125, Note_off_c, 2, 71, 64
1, 124127, Note_on_c, 2, 73, 124
1, 124127, Note_on_c, 4, 61, 125
1, 124151, Note_on_c, 2, 69, 121
1, 124151, Note_on_c, 4, 57, 127
1, 124173, Note_off_c, 4, 61, 64
1, 124173, Note_off_c, 2, 73, 64
1, 124185, Note_on_c, 2, 67, 121
1, 124186, Note_on_c, 4, 55, 127
1, 124204, Note_off_c, 4, 57, 64
1, 124204, Note_off_c, 2, 69, 64
1, 124318, Note_off_c, 4, 55, 64
1, 124318, Note_off_c, 2, 67, 64
1, 124322, Note_on_c, 2, 69, 121
1, 124323, Note_on_c, 4, 57, 127
1, 124348, Note_on_c, 4, 66, 121
1, 124349, Note_on_c, 4, 54, 127
1, 124372, Note_off_c, 4, 57, 64
1, 124373, Note_off_c, 2, 69, 64
1, 124383, Note_on_c, 4, 64, 119
1, 124383, Note_on_c, 4, 52, 127
1, 124398, Note_off_c, 4, 54, 64
1, 124398, Note_off_c, 4, 66, 64
1, 124510, Note_off_c, 4, 52, 64
1, 124513, Note_off_c, 4, 64, 64
1, 124516, Note_on_c, 4, 54, 127
1, 124516, Note_on_c, 4, 66, 126
1, 124542, Note_on_c, 4, 50, 127
1, 124542, Note_on_c, 4, 62, 127
1, 124566, Note_off_c, 4, 66, 64
1, 124566, Note_off_c, 4, 54, 64
1, 124576, Note_on_c, 4, 61, 127
1, 124577, Note_on_c, 4, 49, 127
1, 124593, Note_off_c, 4, 62, 64
1, 124593, Note_off_c, 4, 50, 64
1, 124761, Note_on_c, 2, 69, 126
1, 124772, Note_on_c, 2, 73, 127
1, 124781, Note_on_c, 2, 76, 127
1, 124793, Note_on_c, 1, 79, 126
1, 124956, Note_off_c, 4, 49, 64
1, 124957, Note_off_c, 4, 61, 64
1, 124957, Note_on_c, 4, 62, 127
1, 124958, Note_on_c, 4, 50, 127
1, 125054, Note_off_c, 2, 69, 64
1, 125064, Note_off_c, 2, 73, 64
1, 125075, Note_off_c, 2, 76, 64
1, 125085, Note_off_c, 1, 79, 64
1, 125147, Note_on_c, 4, 66, 126
1, 125158, Note_on_c, 2, 69, 126
1, 125170, Note_on_c, 2, 74, 127
1, 125179, Note_on_c, 1, 78, 126
1, 125327, Note_off_c, 4, 62, 64
1, 125335, Note_off_c, 4, 50, 64
1, 125335, Note_on_c, 4, 62, 127
1, 125336, Note_on_c, 4, 55, 127
1, 125379, Note_off_c, 4, 66, 64
1, 125390, Note_off_c, 2, 69, 64
1, 125400, Note_off_c, 2, 74, 64
1, 125412, Note_off_c, 1, 78, 64
1, 125427, Note_on_c, 2, 71, 127
1, 125521, Note_on_c, 2, 70, 127
1, 125531, Note_off_c, 2, 71, 64
1, 125611, Note_on_c, 2, 71, 127
1, 125621, Note_off_c, 2, 70, 64
1, 125707, Note_off_c, 4, 55, 64
1, 125708, Note_off_c, 4, 62, 64
1, 125708, Note_on_c, 4, 65, 126
1, 125709, Note_on_c, 4, 56, 127
1, 125797, Note_off_c, 2, 71, 64
1, 125798, Note_on_c, 2, 74, 127
1, 125894, Note_on_c, 2, 73, 127
1, 125906, Note_off_c, 2, 74, 64
1, 125988, Note_on_c, 2, 74, 127
1, 125998, Note_off_c, 2, 73, 64
1, 126083, Note_off_c, 4, 65, 64
1, 126083, Note_off_c, 4, 56, 64
1, 126084, Note_on_c, 2, 69, 127
1, 126084, Note_on_c, 4, 57, 127
1, 126092, Note_off_c, 2, 74, 64
1, 126131, Note_on_c, 4, 66, 126
1, 126177, Note_on_c, 4, 62, 127
1, 126214, Note_off_c, 4, 66, 64
1, 126223, Note_on_c, 4, 66, 126
1, 126236, Note_off_c, 4, 57, 64
1, 126267, Note_on_c, 4, 57, 127
1, 126305, Note_off_c, 4, 66, 64
1, 126313, Note_on_c, 4, 66, 126
1, 126328, Note_off_c, 4, 62, 64
1, 126359, Note_on_c, 4, 62, 127
1, 126392, Note_off_c, 2, 69, 64
1, 126396, Note_off_c, 4, 66, 64
1, 126404, Note_on_c, 4, 66, 126
1, 126419, Note_off_c, 4, 57, 64
1, 126450, Note_on_c, 4, 57, 127
1, 126450, Note_on_c, 1, 78, 108
1, 126492, Note_on_c, 2, 76, 111
1, 126498, Note_off_c, 1, 78, 64
1, 126499, Note_off_c, 4, 66, 64
1, 126505, Note_on_c, 2, 67, 126
1, 126524, Note_off_c, 4, 62, 64
1, 126526, Note_on_c, 1, 78, 100
1, 126536, Note_off_c, 2, 76, 64
1, 126557, Note_on_c, 4, 61, 127
1, 126563, Note_on_c, 2, 76, 107
1, 126568, Note_off_c, 1, 78, 64
1, 126593, Note_on_c, 1, 78, 100
1, 126599, Note_off_c, 2, 67, 64
1, 126607, Note_off_c, 2, 76, 64
1, 126609, Note_on_c, 2, 67, 126
1, 126625, Note_off_c, 4, 57, 64
1, 126629, Note_on_c, 2, 76, 107
1, 126635, Note_off_c, 1, 78, 64
1, 126659, Note_on_c, 4, 57, 127
1, 126662, Note_on_c, 1, 78, 100
1, 126672, Note_off_c, 2, 76, 64
1, 126695, Note_on_c, 2, 76, 111
1, 126703, Note_off_c, 2, 67, 64
1, 126705, Note_off_c, 1, 78, 64
1, 126710, Note_on_c, 2, 67, 126
1, 126728, Note_off_c, 4, 61, 64
1, 126732, Note_on_c, 1, 78, 107
1, 126739, Note_off_c, 2, 76, 64
1, 126763, Note_on_c, 4, 61, 127
1, 126770, Note_on_c, 2, 76, 111
1, 126774, Note_off_c, 1, 78, 64
1, 126807, Note_off_c, 2, 67, 64
1, 126807, Note_on_c, 2, 74, 115
1, 126813, Note_off_c, 2, 76, 64
1, 126816, Note_on_c, 2, 67, 126
1, 126833, Note_off_c, 4, 57, 64
1, 126834, Note_on_c, 2, 76, 115
1, 126842, Note_off_c, 2, 74, 64
1, 126867, Note_off_c, 4, 61, 64
1, 126868, Note_on_c, 4, 62, 127
1, 126868, Note_on_c, 2, 74, 115
1, 126869, Note_off_c, 2, 76, 64
1, 126869, Note_on_c, 4, 50, 127
1, 126906, Note_off_c, 2, 67, 64
1, 126913, Note_on_c, 1, 78, 127
1, 126921, Note_off_c, 2, 74, 64
1, 126961, Note_on_c, 2, 74, 127
1, 126969, Note_off_c, 1, 78, 64
1, 127008, Note_on_c, 2, 73, 127
1, 127015, Note_off_c, 2, 74, 64
1, 127054, Note_on_c, 4, 59, 127
1, 127054, Note_on_c, 2, 71, 127
1, 127055, Note_on_c, 4, 47, 127
1, 127056, Note_off_c, 4, 50, 64
1, 127057, Note_off_c, 4, 62, 64
1, 127062, Note_off_c, 2, 73, 64
1, 127101, Note_on_c, 2, 74, 127
1, 127108, Note_off_c, 2, 71, 64
1, 127147, Note_on_c, 2, 71, 127
1, 127154, Note_off_c, 2, 74, 64
1, 127193, Note_on_c, 2, 69, 126
1, 127200, Note_off_c, 2, 71, 64
1, 127239, Note_on_c, 2, 67, 126
1, 127239, Note_on_c, 4, 55, 127
1, 127240, Note_on_c, 4, 43, 127
1, 127242, Note_off_c, 4, 59, 64
1, 127242, Note_off_c, 4, 47, 64
1, 127248, Note_off_c, 2, 69, 64
1, 127286, Note_on_c, 2, 71, 127
1, 127294, Note_off_c, 2, 67, 64
1, 127334, Note_on_c, 2, 67, 126
1, 127342, Note_off_c, 2, 71, 64
1, 127379, Note_on_c, 4, 66, 126
1, 127387, Note_off_c, 2, 67, 64
1, 127425, Note_on_c, 4, 64, 124
1, 127426, Note_on_c, 4, 40, 127
1, 127426, Note_on_c, 4, 52, 127
1, 127428, Note_off_c, 4, 43, 64
1, 127428, Note_off_c, 4, 55, 64
1, 127433, Note_off_c, 4, 66, 64
1, 127471, Note_on_c, 2, 67, 126
1, 127479, Note_off_c, 4, 64, 64
1, 127518, Note_on_c, 4, 64, 124
1, 127526, Note_off_c, 2, 67, 64
1, 127562, Note_on_c, 4, 62, 127
1, 127570, Note_off_c, 4, 64, 64
1, 127603, Note_off_c, 4, 52, 64
1, 127603, Note_off_c, 4, 40, 64
1, 127606, Note_off_c, 4, 62, 64
1, 127608, Note_on_c, 4, 37, 127
1, 127608, Note_on_c, 4, 49, 127
1, 127608, Note_on_c, 4, 61, 127
1, 127745, Note_on_c, 2, 69, 126
1, 127768, Note_on_c, 2, 76, 127
1, 127791, Note_on_c, 1, 79, 126
1, 127835, Note_off_c, 2, 69, 64
1, 127850, Note_off_c, 4, 37, 64
1, 127851, Note_off_c, 4, 61, 64
1, 127851, Note_off_c, 4, 49, 64
1, 127859, Note_off_c, 2, 76, 64
1, 127874, Note_off_c, 1, 79, 64
1, 127881, Note_on_c, 1, 79, 126
1, 127928, Note_on_c, 4, 61, 127
1, 127928, Note_on_c, 4, 49, 127
1, 127973, Note_on_c, 4, 62, 127
1, 127974, Note_on_c, 4, 50, 127
1, 127978, Note_off_c, 4, 49, 64
1, 127979, Note_off_c, 4, 61, 64
1, 128012, Note_off_c, 1, 79, 64
1, 128112, Note_on_c, 2, 69, 126
1, 128134, Note_on_c, 2, 74, 127
1, 128157, Note_on_c, 1, 78, 126
1, 128203, Note_off_c, 2, 69, 64
1, 128218, Note_off_c, 4, 50, 64
1, 128219, Note_off_c, 4, 62, 64
1, 128225, Note_off_c, 2, 74, 64
1, 128240, Note_off_c, 1, 78, 64
1, 128248, Note_on_c, 1, 78, 126
1, 128294, Note_on_c, 4, 62, 127
1, 128294, Note_on_c, 4, 50, 127
1, 128341, Note_on_c, 4, 43, 127
1, 128341, Note_on_c, 4, 55, 127
1, 128342, Note_off_c, 4, 50, 64
1, 128342, Note_off_c, 4, 62, 64
1, 128370, Note_off_c, 1, 78, 64
1, 128434, Note_on_c, 1, 83, 126
1, 128434, Note_on_c, 2, 71, 127
1, 128528, Note_on_c, 1, 82, 126
1, 128529, Note_on_c, 2, 70, 126
1, 128537, Note_off_c, 2, 71, 64
1, 128537, Note_off_c, 1, 83, 64
1, 128620, Note_on_c, 1, 83, 126
1, 128621, Note_on_c, 2, 71, 127
1, 128629, Note_off_c, 2, 70, 64
1, 128629, Note_off_c, 1, 82, 64
1, 128714, Note_on_c, 1, 82, 126
1, 128715, Note_on_c, 2, 70, 126
1, 128721, Note_off_c, 2, 71, 64
1, 128722, Note_off_c, 1, 83, 64
1, 128808, Note_on_c, 1, 83, 126
1, 128809, Note_on_c, 2, 71, 127
1, 128815, Note_off_c, 2, 70, 64
1, 128816, Note_off_c, 1, 82, 64
1, 128901, Note_on_c, 1, 85, 126
1, 128901, Note_on_c, 2, 73, 127
1, 128909, Note_off_c, 2, 71, 64
1, 128910, Note_off_c, 1, 83, 64
1, 128991, Note_on_c, 2, 74, 127
1, 128991, Note_on_c, 1, 86, 126
1, 129000, Note_off_c, 2, 73, 64
1, 129000, Note_off_c, 1, 85, 64
1, 129074, Note_off_c, 4, 55, 64
1, 129074, Note_off_c, 4, 43, 64
1, 129082, Note_on_c, 4, 65, 126
1, 129083, Note_on_c, 4, 56, 127
1, 129083, Note_on_c, 4, 59, 127
1, 129169, Note_off_c, 2, 74, 64
1, 129170, Note_off_c, 1, 86, 64
1, 129175, Note_on_c, 1, 86, 126
1, 129175, Note_on_c, 2, 74, 127
1, 129272, Note_on_c, 2, 73, 127
1, 129272, Note_on_c, 1, 85, 126
1, 129278, Note_off_c, 2, 74, 64
1, 129278, Note_off_c, 1, 86, 64
1, 129360, Note_on_c, 1, 86, 126
1, 129360, Note_on_c, 2, 74, 127
1, 129369, Note_off_c, 1, 85, 64
1, 129369, Note_off_c, 2, 73, 64
1, 129456, Note_on_c, 1, 85, 126
1, 129456, Note_on_c, 2, 73, 127
1, 129463, Note_off_c, 2, 74, 64
1, 129463, Note_off_c, 1, 86, 64
1, 129552, Note_on_c, 2, 74, 127
1, 129552, Note_on_c, 1, 86, 126
1, 129559, Note_off_c, 2, 73, 64
1, 129559, Note_off_c, 1, 85, 64
1, 129642, Note_on_c, 1, 88, 127
1, 129643, Note_on_c, 2, 76, 127
1, 129651, Note_off_c, 1, 86, 64
1, 129651, Note_off_c, 2, 74, 64
1, 129734, Note_on_c, 1, 89, 127
1, 129735, Note_on_c, 2, 77, 127
1, 129741, Note_off_c, 2, 76, 64
1, 129742, Note_off_c, 1, 88, 64
1, 129817, Note_off_c, 4, 59, 64
1, 129817, Note_off_c, 4, 56, 64
1, 129818, Note_off_c, 4, 65, 64
1, 129824, Note_on_c, 4, 57, 127
1, 129824, Note_on_c, 1, 81, 122
1, 129832, Note_off_c, 2, 77, 64
1, 129833, Note_off_c, 1, 89, 64
1, 129870, Note_on_c, 1, 86, 122
1, 129870, Note_on_c, 4, 66, 126
1, 129878, Note_off_c, 1, 81, 64
1, 129914, Note_on_c, 1, 81, 122
1, 129914, Note_on_c, 4, 62, 127
1, 129923, Note_off_c, 1, 86, 64
1, 129949, Note_off_c, 4, 66, 64
1, 129957, Note_on_c, 1, 78, 122
1, 129958, Note_on_c, 4, 66, 126
1, 129964, Note_off_c, 1, 81, 64
1, 129972, Note_off_c, 4, 57, 64
1, 129995, Note_off_c, 1, 78, 64
1, 130002, Note_on_c, 1, 78, 122
1, 130003, Note_on_c, 4, 57, 127
1, 130038, Note_off_c, 4, 66, 64
1, 130045, Note_on_c, 1, 81, 122
1, 130046, Note_on_c, 4, 66, 126
1, 130054, Note_off_c, 1, 78, 64
1, 130062, Note_off_c, 4, 62, 64
1, 130092, Note_on_c, 1, 78, 122
1, 130093, Note_on_c, 4, 62, 127
1, 130099, Note_off_c, 1, 81, 64
1, 130128, Note_off_c, 4, 66, 64
1, 130136, Note_on_c, 2, 74, 125
1, 130136, Note_on_c, 4, 66, 126
1, 130142, Note_off_c, 1, 78, 64
1, 130149, Note_off_c, 4, 57, 64
1, 130178, Note_on_c, 4, 57, 127
1, 130178, Note_on_c, 1, 81, 122
1, 130187, Note_off_c, 2, 74, 64
1, 130215, Note_off_c, 4, 66, 64
1, 130223, Note_on_c, 1, 86, 122
1, 130224, Note_on_c, 4, 66, 126
1, 130230, Note_off_c, 1, 81, 64
1, 130237, Note_off_c, 4, 62, 64
1, 130268, Note_on_c, 1, 81, 122
1, 130269, Note_on_c, 4, 62, 127
1, 130275, Note_off_c, 1, 86, 64
1, 130304, Note_off_c, 4, 66, 64
1, 130311, Note_on_c, 1, 78, 122
1, 130312, Note_on_c, 4, 66, 126
1, 130318, Note_off_c, 1, 81, 64
1, 130324, Note_off_c, 4, 57, 64
1, 130346, Note_off_c, 1, 78, 64
1, 130354, Note_on_c, 1, 78, 122
1, 130355, Note_on_c, 4, 57, 127
1, 130391, Note_off_c, 4, 66, 64
1, 130395, Note_off_c, 1, 78, 64
1, 130399, Note_on_c, 1, 81, 122
1, 130399, Note_on_c, 4, 66, 126
1, 130415, Note_off_c, 4, 62, 64
1, 130438, Note_off_c, 1, 81, 64
1, 130444, Note_on_c, 4, 62, 127
1, 130444, Note_on_c, 1, 78, 122
1, 130481, Note_off_c, 4, 66, 64
1, 130483, Note_off_c, 1, 78, 64
1, 130489, Note_on_c, 4, 66, 126
1, 130489, Note_on_c, 2, 74, 125
1, 130503, Note_off_c, 4, 57, 64
1, 130530, Note_off_c, 2, 74, 64
1, 130536, Note_on_c, 4, 57, 127
1, 130536, Note_on_c, 1, 78, 118
1, 130587, Note_on_c, 2, 76, 121
1, 130589, Note_off_c, 4, 66, 64
1, 130598, Note_on_c, 2, 67, 126
1, 130614, Note_off_c, 1, 78, 64
1, 130616, Note_off_c, 4, 62, 64
1, 130627, Note_on_c, 1, 78, 118
1, 130652, Note_on_c, 4, 61, 127
1, 130658, Note_off_c, 2, 76, 64
1, 130668, Note_on_c, 2, 76, 117
1, 130677, Note_off_c, 1, 78, 64
1, 130698, Note_off_c, 2, 67, 64
1, 130708, Note_on_c, 2, 67, 126
1, 130708, Note_on_c, 1, 78, 114
1, 130718, Note_off_c, 2, 76, 64
1, 130724, Note_off_c, 4, 57, 64
1, 130747, Note_on_c, 2, 76, 117
1, 130759, Note_off_c, 1, 78, 64
1, 130763, Note_on_c, 4, 57, 127
1, 130784, Note_on_c, 1, 78, 114
1, 130795, Note_off_c, 2, 76, 64
1, 130805, Note_off_c, 2, 67, 64
1, 130812, Note_on_c, 2, 67, 126
1, 130820, Note_on_c, 2, 76, 117
1, 130832, Note_off_c, 4, 61, 64
1, 130832, Note_off_c, 1, 78, 64
1, 130860, Note_on_c, 1, 78, 114
1, 130865, Note_on_c, 4, 61, 127
1, 130869, Note_off_c, 2, 76, 64
1, 130896, Note_on_c, 2, 76, 117
1, 130906, Note_off_c, 1, 78, 64
1, 130908, Note_off_c, 2, 67, 64
1, 130916, Note_on_c, 2, 67, 126
1, 130934, Note_off_c, 4, 57, 64
1, 130934, Note_on_c, 1, 78, 114
1, 130944, Note_off_c, 2, 76, 64
1, 130968, Note_on_c, 4, 57, 127
1, 130979, Note_on_c, 2, 76, 117
1, 130982, Note_off_c, 1, 78, 64
1, 131011, Note_off_c, 2, 67, 64
1, 131017, Note_on_c, 1, 78, 114
1, 131019, Note_on_c, 2, 67, 126
1, 131027, Note_off_c, 2, 76, 64
1, 131037, Note_off_c, 4, 61, 64
1, 131055, Note_on_c, 2, 76, 117
1, 131063, Note_off_c, 1, 78, 64
1, 131071, Note_on_c, 4, 61, 127
1, 131096, Note_on_c, 1, 78, 114
1, 131101, Note_off_c, 2, 76, 64
1, 131113, Note_off_c, 2, 67, 64
1, 131123, Note_on_c, 2, 67, 126
1, 131128, Note_on_c, 2, 76, 117
1, 131138, Note_off_c, 4, 57, 64
1, 131142, Note_off_c, 1, 78, 64
1, 131171, Note_on_c, 1, 78, 114
1, 131172, Note_on_c, 4, 57, 127
1, 131176, Note_off_c, 2, 76, 64
1, 131207, Note_on_c, 2, 76, 117
1, 131215, Note_off_c, 2, 67, 64
1, 131217, Note_off_c, 1, 78, 64
1, 131224, Note_on_c, 2, 67, 126
1, 131240, Note_off_c, 4, 61, 64
1, 131245, Note_on_c, 1, 78, 114
1, 131253, Note_off_c, 2, 76, 64
1, 131272, Note_on_c, 4, 61, 127
1, 131277, Note_on_c, 2, 76, 117
1, 131292, Note_off_c, 1, 78, 64
1, 131313, Note_off_c, 2, 67, 64
1, 131321, Note_off_c, 2, 76, 64
1, 131321, Note_on_c, 2, 74, 121
1, 131321, Note_on_c, 2, 67, 126
1, 131337, Note_off_c, 4, 57, 64
1, 131346, Note_on_c, 2, 76, 121
1, 131354, Note_off_c, 2, 74, 64
1, 131371, Note_off_c, 4, 61, 64
1, 131372, Note_on_c, 4, 62, 127
1, 131372, Note_on_c, 2, 74, 121
1, 131373, Note_on_c, 4, 50, 127
1, 131379, Note_off_c, 2, 76, 64
1, 131410, Note_off_c, 2, 67, 64
1, 131619, Note_off_c, 4, 50, 64
1, 131620, Note_off_c, 4, 62, 64
1, 131647, Note_off_c, 2, 74, 64
1, 131649, Note_on_c, 4, 66, 126
1, 131651, Note_on_c, 4, 54, 127
1, 131695, Note_on_c, 4, 62, 127
1, 131696, Note_on_c, 4, 50, 127
1, 131703, Note_off_c, 4, 66, 64
1, 131705, Note_off_c, 4, 54, 64
1, 131743, Note_on_c, 2, 67, 126
1, 131744, Note_on_c, 4, 55, 127
1, 131750, Note_off_c, 4, 62, 64
1, 131752, Note_off_c, 4, 50, 64
1, 131824, Note_off_c, 4, 55, 64
1, 131834, Note_off_c, 2, 67, 64
1, 131838, Note_on_c, 4, 64, 124
1, 131839, Note_on_c, 4, 52, 127
1, 131883, Note_off_c, 4, 64, 64
1, 131884, Note_off_c, 4, 52, 64
1, 131884, Note_on_c, 4, 61, 127
1, 131885, Note_on_c, 4, 49, 127
1, 131933, Note_off_c, 4, 61, 64
1, 131934, Note_off_c, 4, 49, 64
1, 131934, Note_on_c, 4, 62, 127
1, 131935, Note_on_c, 4, 50, 127
1, 132022, Note_off_c, 4, 50, 64
1, 132027, Note_off_c, 4, 62, 64
1, 132031, Note_on_c, 4, 59, 127
1, 132032, Note_on_c, 4, 47, 127
1, 132082, Note_off_c, 4, 59, 64
1, 132083, Note_off_c, 4, 47, 64
1, 132083, Note_on_c, 4, 56, 127
1, 132084, Note_on_c, 4, 44, 127
1, 132128, Note_off_c, 4, 56, 64
1, 132129, Note_off_c, 4, 44, 64
1, 132129, Note_on_c, 4, 45, 127
1, 132130, Note_on_c, 4, 57, 127
1, 132309, Note_off_c, 4, 45, 64
1, 132309, Note_off_c, 4, 57, 64
1, 132318, Note_on_c, 2, 76, 127
1, 132319, Note_on_c, 4, 45, 127
1, 132319, Note_on_c, 4, 57, 127
1, 132338, Note_on_c, 1, 81, 127
1, 132356, Note_on_c, 1, 85, 127
1, 132519, Note_off_c, 4, 57, 64
1, 132519, Note_off_c, 4, 45, 64
1, 132520, Note_off_c, 2, 76, 64
1, 132528, Note_on_c, 4, 38, 127
1, 132528, Note_on_c, 4, 50, 127
1, 132528, Note_on_c, 2, 74, 127
1, 132532, Note_off_c, 1, 81, 64
1, 132544, Note_on_c, 1, 78, 127
1, 132550, Note_off_c, 1, 85, 64
1, 132563, Note_on_c, 1, 81, 127
1, 132580, Note_on_c, 1, 86, 127
1, 132869, Note_off_c, 2, 74, 64
1, 132881, Note_off_c, 1, 78, 64
1, 132892, Note_off_c, 1, 81, 64
1, 132904, Note_off_c, 1, 86, 64
1, 132936, Note_on_c, 2, 69, 126
1, 132937, Note_on_c, 4, 57, 127
1, 132984, Note_on_c, 1, 81, 126
1, 133032, Note_on_c, 1, 80, 126
1, 133040, Note_off_c, 1, 81, 64
1, 133079, Note_on_c, 1, 81, 126
1, 133088, Note_off_c, 1, 80, 64
1, 133119, Note_off_c, 2, 69, 64
1, 133121, Note_off_c, 4, 57, 64
1, 133127, Note_on_c, 4, 60, 127
1, 133127, Note_on_c, 2, 69, 126
1, 133172, Note_off_c, 1, 81, 64
1, 133176, Note_on_c, 1, 81, 126
1, 133224, Note_on_c, 2, 71, 127
1, 133225, Note_on_c, 4, 62, 127
1, 133231, Note_off_c, 4, 60, 64
1, 133232, Note_off_c, 2, 69, 64
1, 133269, Note_off_c, 1, 81, 64
1, 133269, Note_on_c, 1, 81, 126
1, 133317, Note_on_c, 2, 72, 127
1, 133317, Note_on_c, 4, 64, 124
1, 133325, Note_off_c, 4, 62, 64
1, 133326, Note_off_c, 2, 71, 64
1, 133363, Note_off_c, 1, 81, 64
1, 133365, Note_on_c, 1, 81, 126
1, 133413, Note_on_c, 2, 74, 127
1, 133414, Note_on_c, 4, 65, 126
1, 133419, Note_off_c, 4, 64, 64
1, 133420, Note_off_c, 2, 72, 64
1, 133455, Note_off_c, 1, 81, 64
1, 133457, Note_on_c, 1, 81, 126
1, 133505, Note_on_c, 2, 72, 127
1, 133505, Note_on_c, 4, 64, 124
1, 133512, Note_off_c, 2, 74, 64
1, 133512, Note_off_c, 4, 65, 64
1, 133549, Note_off_c, 1, 81, 64
1, 133553, Note_on_c, 1, 81, 126
1, 133601, Note_on_c, 4, 62, 127
1, 133601, Note_on_c, 2, 71, 127
1, 133608, Note_off_c, 4, 64, 64
1, 133608, Note_off_c, 2, 72, 64
1, 133645, Note_off_c, 1, 81, 64
1, 133649, Note_on_c, 1, 81, 126
1, 133699, Note_on_c, 2, 69, 126
1, 133700, Note_on_c, 4, 60, 127
1, 133708, Note_off_c, 2, 71, 64
1, 133708, Note_off_c, 4, 62, 64
1, 133743, Note_off_c, 1, 81, 64
1, 133745, Note_on_c, 1, 81, 126
1, 133793, Note_on_c, 1, 80, 118
1, 133801, Note_off_c, 1, 81, 64
1, 133839, Note_on_c, 1, 81, 118
1, 133847, Note_off_c, 1, 80, 64
1, 133855, Note_off_c, 2, 69, 64
1, 133885, Note_on_c, 1, 84, 118
1, 133886, Note_on_c, 2, 69, 126
1, 133894, Note_off_c, 1, 81, 64
1, 133932, Note_on_c, 1, 81, 114
1, 133971, Note_off_c, 2, 69, 64
1, 133977, Note_off_c, 1, 81, 64
1, 133977, Note_off_c, 1, 84, 64
1, 133978, Note_on_c, 1, 83, 118
1, 133978, Note_on_c, 2, 69, 126
1, 134025, Note_on_c, 1, 79, 114
1, 134063, Note_off_c, 2, 69, 64
1, 134071, Note_off_c, 1, 79, 64
1, 134071, Note_off_c, 1, 83, 64
1, 134072, Note_on_c, 1, 81, 114
1, 134072, Note_on_c, 2, 69, 126
1, 134119, Note_on_c, 1, 78, 114
1, 134157, Note_off_c, 2, 69, 64
1, 134165, Note_off_c, 1, 81, 64
1, 134165, Note_on_c, 1, 83, 118
1, 134166, Note_on_c, 2, 69, 126
1, 134172, Note_off_c, 1, 78, 64
1, 134212, Note_on_c, 1, 79, 114
1, 134250, Note_off_c, 2, 69, 64
1, 134258, Note_off_c, 1, 83, 64
1, 134258, Note_on_c, 1, 81, 114
1, 134259, Note_on_c, 2, 69, 126
1, 134267, Note_off_c, 1, 79, 64
1, 134305, Note_on_c, 1, 78, 114
1, 134345, Note_off_c, 2, 69, 64
1, 134353, Note_off_c, 1, 81, 64
1, 134353, Note_on_c, 1, 79, 114
1, 134354, Note_on_c, 2, 69, 126
1, 134362, Note_off_c, 1, 78, 64
1, 134400, Note_on_c, 2, 76, 121
1, 134408, Note_off_c, 1, 79, 64
1, 134446, Note_on_c, 1, 78, 122
1, 134447, Note_on_c, 2, 75, 125
1, 134454, Note_off_c, 2, 76, 64
1, 134494, Note_on_c, 1, 83, 126
1, 134510, Note_off_c, 1, 78, 64
1, 134511, Note_off_c, 2, 75, 64
1, 134542, Note_off_c, 1, 83, 64
1, 134543, Note_on_c, 1, 82, 126
1, 134589, Note_off_c, 1, 82, 64
1, 134590, Note_on_c, 1, 83, 126
1, 134637, Note_off_c, 2, 69, 64
1, 134638, Note_on_c, 4, 66, 126
1, 134638, Note_on_c, 2, 75, 125
1, 134684, Note_off_c, 1, 83, 64
1, 134686, Note_on_c, 1, 83, 126
1, 134734, Note_on_c, 2, 76, 125
1, 134735, Note_on_c, 2, 67, 126
1, 134743, Note_off_c, 2, 75, 64
1, 134743, Note_off_c, 4, 66, 64
1, 134780, Note_off_c, 1, 83, 64
1, 134782, Note_on_c, 1, 83, 126
1, 134830, Note_on_c, 1, 78, 122
1, 134831, Note_on_c, 2, 69, 126
1, 134837, Note_off_c, 2, 67, 64
1, 134837, Note_off_c, 2, 76, 64
1, 134874, Note_off_c, 1, 83, 64
1, 134878, Note_on_c, 1, 83, 126
1, 134924, Note_off_c, 4, 50, 64
1, 134925, Note_on_c, 1, 79, 122
1, 134925, Note_on_c, 2, 71, 127
1, 134933, Note_off_c, 1, 78, 64
1, 134933, Note_off_c, 2, 69, 64
1, 134968, Note_off_c, 1, 83, 64
1, 134972, Note_on_c, 1, 83, 126
1, 135020, Note_on_c, 1, 78, 122
1, 135021, Note_on_c, 2, 69, 126
1, 135027, Note_off_c, 2, 71, 64
1, 135027, Note_off_c, 1, 79, 64
1, 135064, Note_off_c, 1, 83, 64
1, 135066, Note_on_c, 1, 83, 126
1, 135112, Note_on_c, 2, 76, 125
1, 135113, Note_on_c, 2, 67, 126
1, 135121, Note_off_c, 1, 78, 64
1, 135121, Note_off_c, 2, 69, 64
1, 135158, Note_off_c, 1, 83, 64
1, 135162, Note_on_c, 1, 83, 126
1, 135210, Note_on_c, 2, 75, 125
1, 135211, Note_on_c, 4, 66, 126
1, 135217, Note_off_c, 2, 76, 64
1, 135217, Note_off_c, 2, 67, 64
1, 135254, Note_off_c, 1, 83, 64
1, 135256, Note_on_c, 1, 83, 118
1, 135272, Note_off_c, 2, 75, 64
1, 135304, Note_off_c, 1, 83, 64
1, 135305, Note_on_c, 1, 82, 114
1, 135349, Note_off_c, 1, 82, 64
1, 135350, Note_on_c, 1, 83, 114
1, 135396, Note_off_c, 1, 83, 64
1, 135397, Note_on_c, 1, 84, 110
1, 135397, Note_on_c, 2, 71, 127
1, 135444, Note_on_c, 1, 81, 106
1, 135483, Note_off_c, 2, 71, 64
1, 135491, Note_off_c, 1, 81, 64
1, 135491, Note_off_c, 1, 84, 64
1, 135492, Note_on_c, 1, 83, 110
1, 135492, Note_on_c, 2, 71, 127
1, 135535, Note_on_c, 1, 79, 106
1, 135573, Note_off_c, 2, 71, 64
1, 135581, Note_off_c, 1, 79, 64
1, 135581, Note_off_c, 1, 83, 64
1, 135582, Note_on_c, 2, 71, 127
1, 135582, Note_on_c, 1, 81, 106
1, 135629, Note_on_c, 1, 78, 106
1, 135669, Note_off_c, 2, 71, 64
1, 135677, Note_off_c, 1, 78, 64
1, 135677, Note_off_c, 1, 81, 64
1, 135678, Note_on_c, 1, 79, 106
1, 135678, Note_on_c, 2, 71, 127
1, 135723, Note_on_c, 2, 76, 113
1, 135761, Note_off_c, 2, 71, 64
1, 135769, Note_off_c, 2, 76, 64
1, 135769, Note_off_c, 1, 79, 64
1, 135770, Note_on_c, 2, 71, 127
1, 135770, Note_on_c, 1, 78, 106
1, 135815, Note_on_c, 2, 74, 121
1, 135855, Note_off_c, 2, 71, 64
1, 135863, Note_off_c, 2, 74, 64
1, 135864, Note_off_c, 1, 78, 64
1, 135864, Note_on_c, 1, 81, 110
1, 135864, Note_on_c, 2, 71, 127
1, 135913, Note_off_c, 1, 81, 64
1, 135913, Note_on_c, 1, 78, 110
1, 135952, Note_off_c, 2, 71, 64
1, 135958, Note_off_c, 1, 78, 64
1, 135960, Note_on_c, 1, 79, 114
1, 135960, Note_on_c, 2, 71, 127
1, 135992, Note_off_c, 4, 66, 64
1, 136008, Note_on_c, 2, 76, 121
1, 136047, Note_off_c, 2, 71, 64
1, 136055, Note_off_c, 4, 60, 64
1, 136056, Note_on_c, 2, 75, 125
1, 136064, Note_off_c, 2, 76, 64
1, 136104, Note_on_c, 2, 76, 121
1, 136112, Note_off_c, 2, 75, 64
1, 136151, Note_on_c, 4, 64, 124
1, 136151, Note_on_c, 4, 55, 127
1, 136153, Note_off_c, 1, 79, 64
1, 136182, Note_off_c, 4, 38, 64
1, 136196, Note_off_c, 2, 76, 64
1, 136198, Note_on_c, 2, 76, 125
1, 136245, Note_on_c, 4, 57, 127
1, 136245, Note_on_c, 4, 66, 126
1, 136255, Note_off_c, 4, 55, 64
1, 136255, Note_off_c, 4, 64, 64
1, 136288, Note_off_c, 2, 76, 64
1, 136291, Note_on_c, 2, 76, 127
1, 136339, Note_on_c, 2, 67, 126
1, 136339, Note_on_c, 4, 59, 127
1, 136349, Note_off_c, 4, 66, 64
1, 136349, Note_off_c, 4, 57, 64
1, 136384, Note_off_c, 2, 76, 64
1, 136387, Note_on_c, 2, 76, 125
1, 136435, Note_on_c, 2, 69, 126
1, 136435, Note_on_c, 4, 60, 127
1, 136445, Note_off_c, 4, 59, 64
1, 136445, Note_off_c, 2, 67, 64
1, 136477, Note_off_c, 2, 76, 64
1, 136480, Note_on_c, 2, 76, 125
1, 136526, Note_on_c, 4, 59, 127
1, 136526, Note_on_c, 2, 67, 126
1, 136536, Note_off_c, 4, 60, 64
1, 136536, Note_off_c, 2, 69, 64
1, 136572, Note_off_c, 2, 76, 64
1, 136574, Note_on_c, 2, 76, 125
1, 136620, Note_on_c, 4, 66, 126
1, 136620, Note_on_c, 4, 57, 127
1, 136631, Note_off_c, 2, 67, 64
1, 136631, Note_off_c, 4, 59, 64
1, 136664, Note_off_c, 2, 76, 64
1, 136666, Note_on_c, 2, 76, 121
1, 136712, Note_on_c, 4, 64, 120
1, 136713, Note_on_c, 4, 55, 127
1, 136722, Note_off_c, 4, 57, 64
1, 136723, Note_off_c, 4, 66, 64
1, 136760, Note_off_c, 2, 76, 64
1, 136761, Note_on_c, 2, 76, 121
1, 136810, Note_off_c, 2, 76, 64
1, 136811, Note_on_c, 2, 75, 121
1, 136855, Note_off_c, 2, 75, 64
1, 136856, Note_on_c, 2, 76, 121
1, 136898, Note_off_c, 4, 64, 64
1, 136902, Note_on_c, 1, 79, 114
1, 136903, Note_on_c, 4, 64, 120
1, 136945, Note_off_c, 2, 76, 64
1, 136948, Note_on_c, 2, 76, 117
1, 136986, Note_off_c, 4, 64, 64
1, 136993, Note_off_c, 2, 76, 64
1, 136994, Note_off_c, 1, 79, 64
1, 136994, Note_on_c, 1, 78, 114
1, 136995, Note_on_c, 4, 64, 120
1, 137041, Note_on_c, 2, 74, 121
1, 137080, Note_off_c, 4, 64, 64
1, 137088, Note_off_c, 1, 78, 64
1, 137088, Note_on_c, 2, 76, 117
1, 137088, Note_on_c, 4, 64, 120
1, 137094, Note_off_c, 2, 74, 64
1, 137133, Note_on_c, 2, 73, 121
1, 137173, Note_off_c, 4, 64, 64
1, 137181, Note_off_c, 2, 76, 64
1, 137181, Note_on_c, 1, 78, 114
1, 137182, Note_on_c, 4, 64, 120
1, 137189, Note_off_c, 2, 73, 64
1, 137228, Note_on_c, 2, 74, 121
1, 137264, Note_off_c, 4, 64, 64
1, 137272, Note_off_c, 1, 78, 64
1, 137272, Note_on_c, 2, 76, 117
1, 137273, Note_on_c, 4, 64, 120
1, 137280, Note_off_c, 2, 74, 64
1, 137321, Note_on_c, 2, 73, 121
1, 137359, Note_off_c, 4, 64, 64
1, 137367, Note_off_c, 2, 76, 64
1, 137367, Note_on_c, 2, 74, 121
1, 137368, Note_on_c, 4, 64, 120
1, 137376, Note_off_c, 2, 73, 64
1, 137413, Note_on_c, 2, 71, 120
1, 137421, Note_off_c, 2, 74, 64
1, 137461, Note_on_c, 2, 70, 118
1, 137461, Note_on_c, 2, 73, 121
1, 137468, Note_off_c, 2, 71, 64
1, 137508, Note_on_c, 1, 78, 118
1, 137554, Note_off_c, 1, 78, 64
1, 137555, Note_on_c, 2, 77, 121
1, 137601, Note_off_c, 2, 77, 64
1, 137602, Note_on_c, 1, 78, 118
1, 137642, Note_off_c, 2, 70, 64
1, 137643, Note_off_c, 2, 73, 64
1, 137647, Note_off_c, 4, 64, 64
1, 137648, Note_on_c, 2, 70, 118
1, 137648, Note_on_c, 4, 66, 118
1, 137692, Note_off_c, 1, 78, 64
1, 137694, Note_on_c, 1, 78, 118
1, 137740, Note_off_c, 4, 66, 64
1, 137741, Note_off_c, 2, 70, 64
1, 137741, Note_on_c, 2, 71, 120
1, 137742, Note_on_c, 2, 68, 118
1, 137784, Note_off_c, 1, 78, 64
1, 137786, Note_on_c, 1, 78, 118
1, 137832, Note_off_c, 2, 68, 64
1, 137833, Note_off_c, 2, 71, 64
1, 137833, Note_on_c, 2, 73, 121
1, 137834, Note_on_c, 2, 70, 118
1, 137877, Note_off_c, 1, 78, 64
1, 137879, Note_on_c, 1, 78, 118
1, 137927, Note_off_c, 2, 70, 64
1, 137927, Note_off_c, 2, 73, 64
1, 137928, Note_on_c, 2, 71, 120
1, 137928, Note_on_c, 2, 74, 121
1, 137973, Note_off_c, 1, 78, 64
1, 137975, Note_on_c, 1, 78, 118
1, 138021, Note_off_c, 2, 74, 64
1, 138021, Note_off_c, 2, 71, 64
1, 138022, Note_on_c, 2, 73, 121
1, 138022, Note_on_c, 2, 70, 118
1, 138065, Note_off_c, 1, 78, 64
1, 138067, Note_on_c, 1, 78, 118
1, 138115, Note_off_c, 2, 70, 64
1, 138115, Note_off_c, 2, 73, 64
1, 138116, Note_on_c, 2, 71, 120
1, 138116, Note_on_c, 2, 68, 118
1, 138159, Note_off_c, 1, 78, 64
1, 138161, Note_on_c, 1, 78, 118
1, 138207, Note_off_c, 2, 68, 64
1, 138208, Note_off_c, 2, 71, 64
1, 138208, Note_on_c, 4, 66, 118
1, 138208, Note_on_c, 2, 70, 118
1, 138249, Note_off_c, 1, 78, 64
1, 138251, Note_on_c, 1, 78, 114
1, 138297, Note_on_c, 2, 77, 117
1, 138305, Note_off_c, 1, 78, 64
1, 138344, Note_on_c, 1, 78, 114
1, 138351, Note_off_c, 2, 77, 64
1, 138385, Note_off_c, 4, 66, 64
1, 138386, Note_off_c, 2, 70, 64
1, 138390, Note_on_c, 1, 79, 114
1, 138391, Note_on_c, 4, 66, 122
1, 138397, Note_off_c, 1, 78, 64
1, 138436, Note_on_c, 2, 76, 117
1, 138475, Note_off_c, 4, 66, 64
1, 138482, Note_off_c, 2, 76, 64
1, 138483, Note_off_c, 1, 79, 64
1, 138483, Note_on_c, 1, 78, 114
1, 138484, Note_on_c, 4, 66, 122
1, 138527, Note_on_c, 2, 74, 121
1, 138565, Note_off_c, 4, 66, 64
1, 138573, Note_off_c, 2, 74, 64
1, 138574, Note_off_c, 1, 78, 64
1, 138574, Note_on_c, 2, 76, 117
1, 138575, Note_on_c, 4, 66, 122
1, 138619, Note_on_c, 2, 73, 125
1, 138659, Note_off_c, 4, 66, 64
1, 138667, Note_off_c, 2, 73, 64
1, 138667, Note_off_c, 2, 76, 64
1, 138668, Note_on_c, 4, 66, 126
1, 138668, Note_on_c, 2, 74, 125
1, 138715, Note_on_c, 2, 71, 127
1, 138754, Note_off_c, 4, 66, 64
1, 138761, Note_off_c, 2, 71, 64
1, 138762, Note_off_c, 2, 74, 64
1, 138762, Note_on_c, 2, 73, 127
1, 138763, Note_on_c, 4, 66, 126
1, 138807, Note_on_c, 2, 69, 126
1, 138848, Note_off_c, 4, 66, 64
1, 138855, Note_off_c, 2, 69, 64
1, 138856, Note_off_c, 2, 73, 64
1, 138856, Note_on_c, 2, 76, 125
1, 138857, Note_on_c, 4, 66, 126
1, 138886, Note_off_c, 4, 55, 64
1, 138901, Note_off_c, 2, 76, 64
1, 138902, Note_on_c, 2, 73, 127
1, 138950, Note_off_c, 2, 73, 64
1, 138951, Note_on_c, 4, 59, 125
1, 138951, Note_on_c, 2, 74, 125
1, 138961, Note_off_c, 4, 66, 64
1, 138998, Note_on_c, 4, 66, 121
1, 139044, Note_on_c, 4, 62, 124
1, 139083, Note_off_c, 4, 66, 64
1, 139092, Note_on_c, 4, 66, 121
1, 139107, Note_off_c, 4, 59, 64
1, 139138, Note_on_c, 4, 59, 125
1, 139138, Note_on_c, 1, 86, 126
1, 139154, Note_off_c, 2, 74, 64
1, 139177, Note_off_c, 4, 66, 64
1, 139185, Note_on_c, 2, 67, 121
1, 139200, Note_off_c, 4, 62, 64
1, 139231, Note_on_c, 4, 62, 124
1, 139269, Note_off_c, 2, 67, 64
1, 139277, Note_on_c, 2, 67, 121
1, 139292, Note_off_c, 4, 59, 64
1, 139321, Note_on_c, 4, 59, 125
1, 139358, Note_off_c, 2, 67, 64
1, 139366, Note_on_c, 2, 67, 121
1, 139381, Note_off_c, 4, 62, 64
1, 139382, Note_off_c, 1, 86, 64
1, 139415, Note_on_c, 1, 83, 126
1, 139416, Note_on_c, 4, 62, 124
1, 139454, Note_off_c, 2, 67, 64
1, 139462, Note_on_c, 2, 67, 121
1, 139477, Note_off_c, 4, 59, 64
1, 139506, Note_on_c, 1, 79, 122
1, 139507, Note_on_c, 4, 59, 125
1, 139513, Note_off_c, 1, 83, 64
1, 139544, Note_off_c, 2, 67, 64
1, 139551, Note_on_c, 2, 67, 121
1, 139565, Note_off_c, 4, 62, 64
1, 139596, Note_on_c, 4, 62, 124
1, 139596, Note_on_c, 1, 78, 122
1, 139602, Note_off_c, 1, 79, 64
1, 139633, Note_off_c, 2, 67, 64
1, 139641, Note_on_c, 2, 67, 121
1, 139658, Note_off_c, 4, 59, 64
1, 139689, Note_on_c, 4, 59, 125
1, 139696, Note_off_c, 4, 62, 64
1, 139725, Note_off_c, 1, 78, 64
1, 139733, Note_on_c, 2, 77, 119
1, 139771, Note_off_c, 2, 77, 64
1, 139779, Note_on_c, 1, 80, 116
1, 139825, Note_on_c, 2, 77, 119
1, 139833, Note_off_c, 1, 80, 64
1, 139833, Note_off_c, 2, 67, 64
1, 139862, Note_off_c, 2, 77, 64
1, 139870, Note_on_c, 1, 83, 124
1, 139918, Note_on_c, 2, 77, 119
1, 139964, Note_on_c, 1, 80, 116
1, 140007, Note_off_c, 2, 77, 64
1, 140010, Note_on_c, 2, 77, 119
1, 140018, Note_off_c, 1, 80, 64
1, 140047, Note_off_c, 1, 83, 64
1, 140054, Note_on_c, 1, 85, 124
1, 140097, Note_off_c, 2, 77, 64
1, 140100, Note_on_c, 2, 77, 119
1, 140147, Note_on_c, 1, 80, 116
1, 140189, Note_off_c, 2, 77, 64
1, 140191, Note_on_c, 2, 77, 119
1, 140199, Note_off_c, 1, 80, 64
1, 140230, Note_off_c, 1, 85, 64
1, 140238, Note_on_c, 1, 86, 124
1, 140280, Note_off_c, 2, 77, 64
1, 140282, Note_on_c, 2, 77, 119
1, 140327, Note_on_c, 1, 80, 116
1, 140371, Note_off_c, 2, 77, 64
1, 140373, Note_on_c, 2, 77, 119
1, 140383, Note_off_c, 1, 80, 64
1, 140412, Note_off_c, 1, 86, 64
1, 140419, Note_on_c, 1, 78, 116
1, 140420, Note_on_c, 4, 57, 127
1, 140428, Note_off_c, 2, 77, 64
1, 140435, Note_off_c, 4, 59, 64
1, 140467, Note_on_c, 4, 66, 121
1, 140513, Note_on_c, 4, 61, 125
1, 140552, Note_off_c, 4, 66, 64
1, 140559, Note_on_c, 4, 66, 121
1, 140575, Note_off_c, 4, 57, 64
1, 140596, Note_off_c, 1, 78, 64
1, 140604, Note_on_c, 4, 57, 127
1, 140604, Note_on_c, 1, 84, 124
1, 140643, Note_off_c, 4, 66, 64
1, 140651, Note_on_c, 4, 66, 121
1, 140666, Note_off_c, 4, 61, 64
1, 140699, Note_on_c, 4, 60, 125
1, 140736, Note_off_c, 4, 66, 64
1, 140744, Note_on_c, 4, 66, 121
1, 140759, Note_off_c, 4, 57, 64
1, 140790, Note_on_c, 4, 57, 127
1, 140827, Note_off_c, 4, 66, 64
1, 140834, Note_on_c, 4, 66, 121
1, 140850, Note_off_c, 4, 60, 64
1, 140850, Note_off_c, 1, 84, 64
1, 140881, Note_on_c, 1, 81, 122
1, 140882, Note_on_c, 4, 60, 125
1, 140921, Note_off_c, 4, 66, 64
1, 140928, Note_on_c, 4, 66, 121
1, 140944, Note_off_c, 4, 57, 64
1, 140975, Note_on_c, 4, 57, 127
1, 140975, Note_on_c, 1, 78, 118
1, 140985, Note_off_c, 1, 81, 64
1, 141012, Note_off_c, 4, 66, 64
1, 141020, Note_on_c, 4, 66, 121
1, 141035, Note_off_c, 4, 60, 64
1, 141065, Note_on_c, 4, 60, 125
1, 141072, Note_on_c, 2, 76, 121
1, 141076, Note_off_c, 1, 78, 64
1, 141105, Note_off_c, 4, 66, 64
1, 141113, Note_on_c, 4, 66, 121
1, 141128, Note_off_c, 4, 57, 64
1, 141161, Note_on_c, 4, 57, 127
1, 141167, Note_off_c, 4, 60, 64
1, 141197, Note_off_c, 2, 76, 64
1, 141205, Note_on_c, 2, 75, 119
1, 141247, Note_off_c, 2, 75, 64
1, 141251, Note_on_c, 1, 78, 114
1, 141295, Note_on_c, 2, 75, 119
1, 141303, Note_off_c, 4, 66, 64
1, 141335, Note_off_c, 2, 75, 64
1, 141336, Note_off_c, 1, 78, 64
1, 141339, Note_on_c, 1, 81, 122
1, 141384, Note_on_c, 2, 75, 119
1, 141430, Note_on_c, 1, 78, 114
1, 141471, Note_off_c, 2, 75, 64
1, 141474, Note_on_c, 2, 75, 119
1, 141512, Note_off_c, 1, 81, 64
1, 141517, Note_off_c, 1, 78, 64
1, 141520, Note_on_c, 1, 83, 124
1, 141564, Note_off_c, 2, 75, 64
1, 141566, Note_on_c, 2, 75, 119
1, 141612, Note_on_c, 1, 78, 114
1, 141654, Note_off_c, 2, 75, 64
1, 141656, Note_on_c, 2, 75, 119
1, 141696, Note_off_c, 1, 83, 64
1, 141702, Note_off_c, 1, 78, 64
1, 141704, Note_on_c, 1, 84, 124
1, 141746, Note_off_c, 2, 75, 64
1, 141748, Note_on_c, 2, 75, 119
1, 141796, Note_on_c, 1, 78, 114
1, 141840, Note_off_c, 2, 75, 64
1, 141844, Note_on_c, 2, 75, 119
1, 141858, Note_off_c, 1, 78, 64
1, 141883, Note_off_c, 1, 84, 64
1, 141890, Note_off_c, 4, 57, 64
1, 141891, Note_on_c, 2, 76, 117
1, 141891, Note_on_c, 4, 55, 127
1, 141905, Note_off_c, 2, 75, 64
1, 141937, Note_on_c, 4, 64, 119
1, 141985, Note_on_c, 4, 59, 125
1, 142024, Note_off_c, 4, 64, 64
1, 142032, Note_on_c, 4, 64, 119
1, 142047, Note_off_c, 4, 55, 64
1, 142068, Note_off_c, 2, 76, 64
1, 142076, Note_on_c, 1, 82, 122
1, 142076, Note_on_c, 4, 55, 127
1, 142111, Note_off_c, 4, 64, 64
1, 142119, Note_on_c, 4, 64, 119
1, 142136, Note_off_c, 4, 59, 64
1, 142169, Note_on_c, 4, 58, 121
1, 142207, Note_off_c, 4, 64, 64
1, 142217, Note_on_c, 4, 64, 119
1, 142233, Note_off_c, 4, 55, 64
1, 142266, Note_on_c, 4, 55, 127
1, 142304, Note_off_c, 4, 64, 64
1, 142312, Note_on_c, 4, 64, 119
1, 142325, Note_off_c, 1, 82, 64
1, 142327, Note_off_c, 4, 58, 64
1, 142355, Note_on_c, 1, 79, 122
1, 142356, Note_on_c, 4, 58, 121
1, 142394, Note_off_c, 4, 64, 64
1, 142400, Note_on_c, 4, 64, 119
1, 142417, Note_off_c, 4, 55, 64
1, 142439, Note_off_c, 1, 79, 64
1, 142446, Note_on_c, 2, 76, 123
1, 142448, Note_on_c, 4, 55, 127
1, 142485, Note_off_c, 4, 64, 64
1, 142492, Note_on_c, 4, 64, 119
1, 142510, Note_off_c, 4, 58, 64
1, 142531, Note_off_c, 2, 76, 64
1, 142538, Note_on_c, 2, 74, 125
1, 142539, Note_on_c, 4, 58, 121
1, 142578, Note_off_c, 4, 64, 64
1, 142585, Note_on_c, 4, 64, 119
1, 142603, Note_off_c, 4, 55, 64
1, 142632, Note_on_c, 4, 55, 127
1, 142639, Note_off_c, 4, 58, 64
1, 142670, Note_off_c, 2, 74, 64
1, 142676, Note_on_c, 2, 73, 123
1, 142716, Note_off_c, 2, 73, 64
1, 142720, Note_on_c, 2, 76, 121
1, 142764, Note_on_c, 2, 73, 123
1, 142774, Note_off_c, 4, 64, 64
1, 142781, Note_off_c, 2, 76, 64
1, 142806, Note_off_c, 2, 73, 64
1, 142812, Note_on_c, 1, 79, 122
1, 142856, Note_on_c, 2, 73, 123
1, 142900, Note_on_c, 2, 76, 121
1, 142944, Note_off_c, 2, 73, 64
1, 142947, Note_on_c, 2, 73, 123
1, 142962, Note_off_c, 2, 76, 64
1, 142983, Note_off_c, 1, 79, 64
1, 142991, Note_on_c, 1, 81, 122
1, 143033, Note_off_c, 2, 73, 64
1, 143035, Note_on_c, 2, 73, 123
1, 143079, Note_on_c, 2, 76, 121
1, 143121, Note_off_c, 2, 73, 64
1, 143123, Note_on_c, 2, 73, 123
1, 143139, Note_off_c, 2, 76, 64
1, 143161, Note_off_c, 1, 81, 64
1, 143169, Note_on_c, 1, 82, 122
1, 143211, Note_off_c, 2, 73, 64
1, 143214, Note_on_c, 2, 73, 123
1, 143262, Note_on_c, 2, 76, 121
1, 143304, Note_off_c, 2, 73, 64
1, 143307, Note_on_c, 2, 73, 123
1, 143323, Note_off_c, 2, 76, 64
1, 143346, Note_off_c, 1, 82, 64
1, 143354, Note_off_c, 4, 55, 64
1, 143354, Note_on_c, 4, 65, 116
1, 143354, Note_on_c, 2, 69, 116
1, 143397, Note_off_c, 2, 73, 64
1, 143401, Note_on_c, 2, 74, 125
1, 143449, Note_on_c, 1, 86, 124
1, 143493, Note_off_c, 2, 74, 64
1, 143495, Note_on_c, 2, 74, 125
1, 143543, Note_on_c, 2, 67, 116
1, 143543, Note_on_c, 4, 64, 114
1, 143550, Note_off_c, 2, 69, 64
1, 143550, Note_off_c, 4, 65, 64
1, 143587, Note_off_c, 2, 74, 64
1, 143591, Note_on_c, 2, 73, 125
1, 143637, Note_on_c, 1, 85, 121
1, 143641, Note_off_c, 1, 86, 64
1, 143683, Note_off_c, 2, 73, 64
1, 143685, Note_on_c, 2, 73, 125
1, 143733, Note_on_c, 2, 69, 116
1, 143734, Note_on_c, 4, 65, 116
1, 143736, Note_off_c, 4, 64, 64
1, 143736, Note_off_c, 2, 67, 64
1, 143774, Note_off_c, 2, 73, 64
1, 143777, Note_on_c, 2, 74, 125
1, 143825, Note_on_c, 1, 86, 121
1, 143829, Note_off_c, 1, 85, 64
1, 143869, Note_off_c, 2, 74, 64
1, 143873, Note_on_c, 2, 74, 125
1, 143917, Note_on_c, 4, 64, 114
1, 143918, Note_on_c, 4, 61, 120
1, 143922, Note_off_c, 2, 69, 64
1, 143922, Note_off_c, 4, 65, 64
1, 143962, Note_off_c, 2, 74, 64
1, 143964, Note_on_c, 2, 69, 121
1, 144009, Note_on_c, 1, 81, 119
1, 144012, Note_off_c, 1, 86, 64
1, 144051, Note_off_c, 2, 69, 64
1, 144053, Note_on_c, 2, 69, 121
1, 144099, Note_on_c, 4, 62, 119
1, 144099, Note_on_c, 4, 65, 116
1, 144103, Note_off_c, 4, 61, 64
1, 144104, Note_off_c, 4, 64, 64
1, 144143, Note_off_c, 2, 69, 64
1, 144145, Note_on_c, 2, 70, 121
1, 144192, Note_on_c, 1, 82, 113
1, 144196, Note_off_c, 1, 81, 64
1, 144234, Note_off_c, 2, 70, 64
1, 144236, Note_on_c, 2, 70, 121
1, 144282, Note_on_c, 4, 64, 114
1, 144283, Note_on_c, 4, 61, 120
1, 144285, Note_off_c, 4, 62, 64
1, 144286, Note_off_c, 4, 65, 64
1, 144326, Note_off_c, 2, 70, 64
1, 144328, Note_on_c, 2, 69, 121
1, 144372, Note_on_c, 1, 81, 113
1, 144376, Note_off_c, 1, 82, 64
1, 144415, Note_off_c, 2, 69, 64
1, 144419, Note_on_c, 2, 69, 121
1, 144465, Note_on_c, 4, 65, 116
1, 144466, Note_on_c, 4, 62, 119
1, 144468, Note_off_c, 4, 61, 64
1, 144468, Note_off_c, 4, 64, 64
1, 144507, Note_off_c, 2, 69, 64
1, 144509, Note_on_c, 2, 70, 121
1, 144555, Note_on_c, 1, 82, 113
1, 144559, Note_off_c, 1, 81, 64
1, 144597, Note_off_c, 2, 70, 64
1, 144598, Note_on_c, 2, 70, 121
1, 144643, Note_on_c, 4, 60, 120
1, 144644, Note_on_c, 4, 57, 127
1, 144648, Note_off_c, 4, 65, 64
1, 144648, Note_off_c, 4, 62, 64
1, 144685, Note_off_c, 2, 70, 64
1, 144689, Note_on_c, 4, 66, 121
1, 144733, Note_on_c, 1, 78, 113
1, 144737, Note_off_c, 1, 82, 64
1, 144778, Note_off_c, 4, 66, 64
1, 144780, Note_on_c, 4, 66, 121
1, 144824, Note_on_c, 4, 58, 116
1, 144824, Note_on_c, 4, 62, 119
1, 144828, Note_off_c, 4, 57, 64
1, 144829, Note_off_c, 4, 60, 64
1, 144868, Note_off_c, 4, 66, 64
1, 144870, Note_on_c, 2, 67, 121
1, 144916, Note_on_c, 1, 79, 113
1, 144920, Note_off_c, 1, 78, 64
1, 144960, Note_off_c, 2, 67, 64
1, 144964, Note_on_c, 2, 67, 121
1, 145010, Note_on_c, 4, 60, 120
1, 145010, Note_on_c, 4, 57, 127
1, 145013, Note_off_c, 4, 62, 64
1, 145013, Note_off_c, 4, 58, 64
1, 145054, Note_off_c, 2, 67, 64
1, 145056, Note_on_c, 4, 66, 121
1, 145102, Note_on_c, 1, 78, 113
1, 145106, Note_off_c, 1, 79, 64
1, 145144, Note_off_c, 4, 66, 64
1, 145147, Note_on_c, 4, 66, 121
1, 145192, Note_on_c, 4, 62, 119
1, 145193, Note_on_c, 4, 58, 116
1, 145197, Note_off_c, 4, 57, 64
1, 145198, Note_off_c, 4, 60, 64
1, 145236, Note_off_c, 4, 66, 64
1, 145240, Note_on_c, 2, 67, 121
1, 145284, Note_on_c, 1, 79, 113
1, 145288, Note_off_c, 1, 78, 64
1, 145329, Note_off_c, 2, 67, 64
1, 145332, Note_on_c, 2, 67, 121
1, 145377, Note_on_c, 4, 57, 127
1, 145377, Note_on_c, 4, 60, 120
1, 145380, Note_off_c, 4, 62, 64
1, 145380, Note_off_c, 4, 58, 64
1, 145417, Note_off_c, 2, 67, 64
1, 145419, Note_on_c, 4, 65, 121
1, 145465, Note_on_c, 2, 77, 116
1, 145469, Note_off_c, 1, 79, 64
1, 145509, Note_off_c, 4, 65, 64
1, 145511, Note_on_c, 4, 65, 121
1, 145556, Note_on_c, 4, 55, 127
1, 145556, Note_on_c, 4, 58, 116
1, 145560, Note_off_c, 4, 60, 64
1, 145560, Note_off_c, 4, 57, 64
1, 145599, Note_off_c, 4, 65, 64
1, 145601, Note_on_c, 4, 63, 120
1, 145648, Note_on_c, 2, 75, 121
1, 145652, Note_off_c, 2, 77, 64
1, 145690, Note_off_c, 4, 63, 64
1, 145693, Note_on_c, 4, 63, 120
1, 145740, Note_on_c, 4, 54, 127
1, 145740, Note_on_c, 4, 57, 127
1, 145744, Note_off_c, 4, 55, 64
1, 145745, Note_off_c, 4, 58, 64
1, 145786, Note_off_c, 4, 63, 64
1, 145788, Note_on_c, 4, 62, 124
1, 145836, Note_on_c, 2, 74, 121
1, 145838, Note_off_c, 2, 75, 64
1, 145879, Note_off_c, 4, 62, 64
1, 145881, Note_on_c, 4, 62, 124
1, 145930, Note_on_c, 4, 58, 116
1, 145931, Note_on_c, 4, 55, 127
1, 145934, Note_off_c, 4, 54, 64
1, 145935, Note_off_c, 4, 57, 64
1, 145974, Note_off_c, 4, 62, 64
1, 145976, Note_on_c, 4, 63, 120
1, 146022, Note_on_c, 2, 75, 121
1, 146026, Note_off_c, 2, 74, 64
1, 146066, Note_off_c, 4, 63, 64
1, 146070, Note_on_c, 4, 63, 120
1, 146114, Note_on_c, 4, 59, 120
1, 146115, Note_on_c, 4, 56, 127
1, 146117, Note_off_c, 4, 55, 64
1, 146117, Note_off_c, 4, 58, 64
1, 146158, Note_off_c, 4, 63, 64
1, 146160, Note_on_c, 4, 62, 124
1, 146207, Note_on_c, 2, 74, 123
1, 146210, Note_off_c, 2, 75, 64
1, 146249, Note_off_c, 4, 62, 64
1, 146253, Note_on_c, 4, 62, 127
1, 146295, Note_off_c, 2, 74, 64
1, 146295, Note_on_c, 2, 73, 127
1, 146296, Note_on_c, 4, 45, 127
1, 146296, Note_on_c, 4, 57, 127
1, 146298, Note_off_c, 4, 56, 64
1, 146299, Note_off_c, 4, 59, 64
1, 146338, Note_off_c, 4, 62, 64
1, 146342, Note_on_c, 2, 71, 127
1, 146348, Note_off_c, 2, 73, 64
1, 146386, Note_on_c, 2, 69, 126
1, 146394, Note_off_c, 2, 71, 64
1, 146432, Note_on_c, 2, 68, 126
1, 146440, Note_off_c, 2, 69, 64
1, 146476, Note_on_c, 2, 69, 126
1, 146482, Note_off_c, 2, 68, 64
1, 146520, Note_on_c, 2, 71, 127
1, 146528, Note_off_c, 2, 69, 64
1, 146563, Note_on_c, 2, 73, 127
1, 146570, Note_off_c, 2, 71, 64
1, 146603, Note_on_c, 2, 74, 127
1, 146611, Note_off_c, 2, 73, 64
1, 146643, Note_on_c, 2, 76, 127
1, 146651, Note_off_c, 2, 74, 64
1, 146686, Note_on_c, 2, 74, 127
1, 146691, Note_off_c, 2, 76, 64
1, 146726, Note_on_c, 2, 73, 127
1, 146734, Note_off_c, 2, 74, 64
1, 146768, Note_on_c, 2, 71, 127
1, 146776, Note_off_c, 2, 73, 64
1, 146812, Note_on_c, 2, 73, 127
1, 146820, Note_off_c, 2, 71, 64
1, 146856, Note_on_c, 2, 74, 127
1, 146862, Note_off_c, 2, 73, 64
1, 146899, Note_on_c, 2, 76, 127
1, 146906, Note_off_c, 2, 74, 64
1, 146941, Note_off_c, 2, 76, 64
1, 146941, Note_on_c, 1, 78, 126
1, 146982, Note_off_c, 1, 78, 64
1, 146983, Note_on_c, 1, 79, 126
1, 147024, Note_off_c, 1, 79, 64
1, 147024, Note_on_c, 1, 78, 126
1, 147065, Note_off_c, 1, 78, 64
1, 147065, Note_on_c, 2, 76, 127
1, 147106, Note_off_c, 2, 76, 64
1, 147107, Note_on_c, 1, 78, 126
1, 147149, Note_on_c, 2, 76, 127
1, 147155, Note_off_c, 1, 78, 64
1, 147190, Note_on_c, 2, 74, 127
1, 147197, Note_off_c, 2, 76, 64
1, 147232, Note_on_c, 2, 73, 127
1, 147240, Note_off_c, 2, 74, 64
1, 147274, Note_on_c, 2, 74, 127
1, 147282, Note_off_c, 2, 73, 64
1, 147320, Note_on_c, 2, 73, 127
1, 147328, Note_off_c, 2, 74, 64
1, 147362, Note_on_c, 2, 71, 127
1, 147370, Note_off_c, 2, 73, 64
1, 147407, Note_on_c, 2, 69, 126
1, 147412, Note_off_c, 2, 71, 64
1, 147449, Note_on_c, 2, 71, 127
1, 147456, Note_off_c, 2, 69, 64
1, 147493, Note_on_c, 2, 69, 126
1, 147501, Note_off_c, 2, 71, 64
1, 147533, Note_on_c, 2, 67, 126
1, 147541, Note_off_c, 2, 69, 64
1, 147578, Note_on_c, 4, 66, 126
1, 147586, Note_off_c, 2, 67, 64
1, 147623, Note_on_c, 4, 64, 124
1, 147632, Note_off_c, 4, 66, 64
1, 147659, Note_off_c, 4, 45, 64
1, 147660, Note_off_c, 4, 57, 64
1, 147675, Note_off_c, 4, 64, 64
1, 147678, Note_on_c, 4, 38, 127
1, 147678, Note_on_c, 4, 50, 127
1, 147678, Note_on_c, 4, 62, 127
1, 147690, Note_on_c, 4, 66, 126
1, 147701, Note_on_c, 2, 69, 126
1, 147711, Note_on_c, 2, 74, 127
1, 147997, Note_off_c, 4, 62, 64
1, 148008, Note_off_c, 4, 66, 64
1, 148018, Note_off_c, 2, 69, 64
1, 148030, Note_off_c, 2, 74, 64
1, 148043, Note_off_c, 4, 50, 64
1, 148043, Note_on_c, 2, 67, 126
1, 148044, Note_on_c, 4, 55, 127
1, 148089, Note_on_c, 4, 66, 126
1, 148089, Note_on_c, 4, 54, 127
1, 148093, Note_off_c, 2, 67, 64
1, 148093, Note_off_c, 4, 55, 64
1, 148131, Note_on_c, 4, 64, 127
1, 148131, Note_on_c, 4, 52, 127
1, 148139, Note_off_c, 4, 54, 64
1, 148139, Note_off_c, 4, 66, 64
1, 148178, Note_on_c, 4, 62, 127
1, 148178, Note_on_c, 4, 50, 127
1, 148183, Note_off_c, 4, 52, 64
1, 148183, Note_off_c, 4, 64, 64
1, 148224, Note_on_c, 2, 67, 127
1, 148224, Note_on_c, 4, 55, 127
1, 148230, Note_off_c, 4, 50, 64
1, 148231, Note_off_c, 4, 62, 64
1, 148270, Note_on_c, 4, 66, 127
1, 148271, Note_on_c, 4, 54, 127
1, 148274, Note_off_c, 4, 55, 64
1, 148275, Note_off_c, 2, 67, 64
1, 148312, Note_on_c, 4, 64, 127
1, 148313, Note_on_c, 4, 52, 127
1, 148317, Note_off_c, 4, 54, 64
1, 148317, Note_off_c, 4, 66, 64
1, 148358, Note_on_c, 4, 62, 127
1, 148359, Note_on_c, 4, 50, 127
1, 148365, Note_off_c, 4, 64, 64
1, 148365, Note_off_c, 4, 52, 64
1, 148406, Note_on_c, 2, 69, 126
1, 148407, Note_on_c, 4, 57, 127
1, 148411, Note_off_c, 4, 50, 64
1, 148411, Note_off_c, 4, 62, 64
1, 148583, Note_off_c, 4, 57, 64
1, 148584, Note_off_c, 2, 69, 64
1, 148590, Note_on_c, 4, 66, 126
1, 148590, Note_on_c, 4, 54, 127
1, 148765, Note_off_c, 4, 54, 64
1, 148766, Note_off_c, 4, 66, 64
1, 148774, Note_on_c, 2, 71, 127
1, 148775, Note_on_c, 4, 59, 127
1, 149020, Note_off_c, 2, 71, 64
1, 149020, Note_off_c, 4, 59, 64
1, 149050, Note_on_c, 4, 66, 126
1, 149050, Note_on_c, 4, 54, 127
1, 149145, Note_off_c, 4, 54, 64
1, 149145, Note_off_c, 4, 66, 64
1, 149146, Note_on_c, 2, 67, 126
1, 149146, Note_on_c, 4, 55, 127
1, 149237, Note_off_c, 4, 55, 64
1, 149237, Note_off_c, 2, 67, 64
1, 149238, Note_on_c, 4, 52, 127
1, 149238, Note_on_c, 4, 64, 124
1, 149329, Note_off_c, 4, 64, 64
1, 149329, Note_off_c, 4, 52, 64
1, 149330, Note_on_c, 2, 69, 126
1, 149330, Note_on_c, 4, 57, 127
1, 149419, Note_off_c, 4, 57, 64
1, 149420, Note_off_c, 2, 69, 64
1, 149420, Note_on_c, 4, 66, 126
1, 149421, Note_on_c, 4, 54, 127
1, 149508, Note_off_c, 4, 54, 64
1, 149508, Note_off_c, 4, 66, 64
1, 149508, Note_on_c, 4, 62, 127
1, 149509, Note_on_c, 4, 50, 127
1, 149604, Note_off_c, 4, 62, 64
1, 149604, Note_off_c, 4, 50, 64
1, 149604, Note_on_c, 4, 59, 127
1, 149605, Note_on_c, 4, 47, 127
1, 149694, Note_off_c, 4, 47, 64
1, 149694, Note_off_c, 4, 59, 64
1, 149695, Note_on_c, 4, 52, 127
1, 149695, Note_on_c, 4, 64, 124
1, 149786, Note_off_c, 4, 64, 64
1, 149786, Note_off_c, 4, 52, 64
1, 149787, Note_on_c, 4, 61, 127
1, 149787, Note_on_c, 4, 49, 127
1, 149880, Note_off_c, 4, 49, 64
1, 149880, Note_off_c, 4, 61, 64
1, 149881, Note_on_c, 4, 45, 127
1, 149881, Note_on_c, 4, 57, 127
1, 149949, Note_off_c, 4, 57, 64
1, 149974, Note_off_c, 4, 38, 64
1, 149975, Note_on_c, 4, 57, 127
1, 150034, Note_off_c, 4, 45, 64
1, 150065, Note_on_c, 4, 45, 127
1, 150128, Note_off_c, 4, 57, 64
1, 150159, Note_on_c, 4, 57, 127
1, 150222, Note_off_c, 4, 45, 64
1, 150253, Note_on_c, 4, 45, 127
1, 150314, Note_off_c, 4, 57, 64
1, 150345, Note_on_c, 2, 74, 125
1, 150346, Note_on_c, 4, 57, 127
1, 150346, Note_on_c, 4, 66, 126
1, 150403, Note_off_c, 4, 45, 64
1, 150418, Note_off_c, 4, 66, 64
1, 150418, Note_off_c, 2, 74, 64
1, 150434, Note_on_c, 4, 66, 126
1, 150434, Note_on_c, 2, 74, 125
1, 150435, Note_on_c, 4, 45, 127
1, 150493, Note_off_c, 4, 57, 64
1, 150514, Note_off_c, 4, 66, 64
1, 150515, Note_off_c, 2, 74, 64
1, 150523, Note_on_c, 2, 74, 125
1, 150523, Note_on_c, 4, 66, 126
1, 150523, Note_on_c, 4, 57, 127
1, 150581, Note_off_c, 4, 45, 64
1, 150604, Note_off_c, 4, 66, 64
1, 150605, Note_off_c, 2, 74, 64
1, 150611, Note_on_c, 2, 74, 125
1, 150612, Note_on_c, 4, 45, 127
1, 150612, Note_on_c, 4, 66, 126
1, 150671, Note_off_c, 4, 57, 64
1, 150684, Note_off_c, 4, 66, 64
1, 150684, Note_off_c, 2, 74, 64
1, 150700, Note_on_c, 2, 73, 125
1, 150701, Note_on_c, 4, 57, 127
1, 150701, Note_on_c, 4, 64, 124
1, 150761, Note_off_c, 4, 45, 64
1, 150776, Note_off_c, 4, 64, 64
1, 150777, Note_off_c, 2, 73, 64
1, 150792, Note_on_c, 2, 73, 125
1, 150793, Note_on_c, 4, 64, 124
1, 150793, Note_on_c, 4, 45, 127
1, 150853, Note_off_c, 4, 57, 64
1, 150884, Note_on_c, 4, 57, 127
1, 150945, Note_off_c, 4, 45, 64
1, 150976, Note_on_c, 4, 45, 127
1, 151037, Note_off_c, 4, 57, 64
1, 151038, Note_off_c, 2, 73, 64
1, 151038, Note_off_c, 4, 64, 64
1, 151065, Note_on_c, 1, 78, 122
1, 151066, Note_on_c, 4, 57, 127
1, 151066, Note_on_c, 2, 74, 125
1, 151127, Note_off_c, 4, 45, 64
1, 151140, Note_off_c, 2, 74, 64
1, 151140, Note_off_c, 1, 78, 64
1, 151154, Note_on_c, 1, 78, 122
1, 151155, Note_on_c, 4, 45, 127
1, 151155, Note_on_c, 2, 74, 125
1, 151215, Note_off_c, 4, 57, 64
1, 151238, Note_off_c, 1, 78, 64
1, 151238, Note_off_c, 2, 74, 64
1, 151245, Note_on_c, 1, 78, 122
1, 151245, Note_on_c, 2, 74, 125
1, 151246, Note_on_c, 4, 57, 127
1, 151304, Note_off_c, 4, 45, 64
1, 151327, Note_off_c, 2, 74, 64
1, 151328, Note_off_c, 1, 78, 64
1, 151334, Note_on_c, 1, 78, 122
1, 151334, Note_on_c, 2, 74, 125
1, 151335, Note_on_c, 4, 45, 127
1, 151392, Note_off_c, 4, 57, 64
1, 151406, Note_off_c, 2, 74, 64
1, 151406, Note_off_c, 1, 78, 64
1, 151420, Note_on_c, 2, 76, 125
1, 151421, Note_on_c, 4, 57, 127
1, 151421, Note_on_c, 2, 73, 125
1, 151477, Note_off_c, 4, 45, 64
1, 151492, Note_off_c, 2, 73, 64
1, 151493, Note_off_c, 2, 76, 64
1, 151507, Note_on_c, 2, 73, 125
1, 151507, Note_on_c, 2, 76, 125
1, 151508, Note_on_c, 4, 45, 127
1, 151567, Note_off_c, 4, 57, 64
1, 151598, Note_on_c, 4, 57, 127
1, 151659, Note_off_c, 4, 45, 64
1, 151690, Note_on_c, 4, 45, 127
1, 151750, Note_off_c, 2, 73, 64
1, 151750, Note_off_c, 4, 57, 64
1, 151751, Note_off_c, 2, 76, 64
1, 151781, Note_on_c, 1, 81, 122
1, 151782, Note_on_c, 4, 57, 127
1, 151782, Note_on_c, 1, 78, 122
1, 151842, Note_off_c, 4, 45, 64
1, 151857, Note_off_c, 1, 78, 64
1, 151858, Note_off_c, 1, 81, 64
1, 151872, Note_on_c, 4, 45, 127
1, 151872, Note_on_c, 1, 78, 122
1, 151872, Note_on_c, 1, 81, 122
1, 151933, Note_off_c, 4, 57, 64
1, 151955, Note_off_c, 1, 81, 64
1, 151955, Note_off_c, 1, 78, 64
1, 151963, Note_on_c, 1, 81, 122
1, 151963, Note_on_c, 1, 78, 122
1, 151964, Note_on_c, 4, 57, 127
1, 152025, Note_off_c, 4, 45, 64
1, 152048, Note_off_c, 1, 78, 64
1, 152049, Note_off_c, 1, 81, 64
1, 152057, Note_on_c, 4, 45, 127
1, 152057, Note_on_c, 1, 79, 122
1, 152102, Note_on_c, 1, 78, 122
1, 152108, Note_off_c, 1, 79, 64
1, 152144, Note_on_c, 1, 79, 122
1, 152152, Note_off_c, 1, 78, 64
1, 152186, Note_on_c, 1, 81, 122
1, 152192, Note_off_c, 1, 79, 64
1, 152227, Note_on_c, 1, 83, 122
1, 152234, Note_off_c, 1, 81, 64
1, 152271, Note_on_c, 1, 81, 122
1, 152276, Note_off_c, 1, 83, 64
1, 152310, Note_on_c, 1, 79, 122
1, 152316, Note_off_c, 1, 81, 64
1, 152352, Note_on_c, 1, 78, 122
1, 152358, Note_off_c, 1, 79, 64
1, 152395, Note_on_c, 2, 76, 125
1, 152403, Note_off_c, 1, 78, 64
1, 152438, Note_on_c, 2, 75, 125
1, 152446, Note_off_c, 2, 76, 64
1, 152485, Note_on_c, 2, 76, 125
1, 152489, Note_off_c, 2, 75, 64
1, 152523, Note_on_c, 1, 78, 122
1, 152533, Note_off_c, 2, 76, 64
1, 152564, Note_on_c, 1, 79, 122
1, 152569, Note_off_c, 1, 78, 64
1, 152604, Note_on_c, 1, 78, 122
1, 152610, Note_off_c, 1, 79, 64
1, 152644, Note_on_c, 2, 76, 125
1, 152651, Note_off_c, 1, 78, 64
1, 152687, Note_on_c, 2, 74, 125
1, 152693, Note_off_c, 2, 76, 64
1, 152730, Note_on_c, 2, 73, 125
1, 152731, Note_on_c, 4, 61, 127
1, 152737, Note_off_c, 2, 74, 64
1, 152745, Note_off_c, 4, 57, 64
1, 152775, Note_on_c, 2, 71, 124
1, 152776, Note_on_c, 4, 59, 127
1, 152782, Note_off_c, 4, 61, 64
1, 152783, Note_off_c, 2, 73, 64
1, 152818, Note_on_c, 2, 73, 125
1, 152818, Note_on_c, 4, 61, 127
1, 152826, Note_off_c, 4, 59, 64
1, 152826, Note_off_c, 2, 71, 64
1, 152862, Note_on_c, 4, 62, 127
1, 152862, Note_on_c, 2, 74, 125
1, 152868, Note_off_c, 4, 61, 64
1, 152869, Note_off_c, 2, 73, 64
1, 152902, Note_on_c, 2, 76, 125
1, 152903, Note_on_c, 4, 64, 124
1, 152909, Note_off_c, 2, 74, 64
1, 152909, Note_off_c, 4, 62, 64
1, 152946, Note_on_c, 2, 74, 125
1, 152947, Note_on_c, 4, 62, 127
1, 152953, Note_off_c, 4, 64, 64
1, 152953, Note_off_c, 2, 76, 64
1, 152985, Note_on_c, 2, 73, 125
1, 152985, Note_on_c, 4, 61, 127
1, 152991, Note_off_c, 4, 62, 64
1, 152992, Note_off_c, 2, 74, 64
1, 153027, Note_on_c, 2, 71, 124
1, 153027, Note_on_c, 4, 59, 127
1, 153034, Note_off_c, 4, 61, 64
1, 153034, Note_off_c, 2, 73, 64
1, 153071, Note_on_c, 2, 69, 122
1, 153072, Note_on_c, 4, 57, 127
1, 153078, Note_off_c, 4, 59, 64
1, 153078, Note_off_c, 2, 71, 64
1, 153113, Note_on_c, 2, 68, 126
1, 153114, Note_on_c, 4, 56, 127
1, 153121, Note_off_c, 4, 57, 64
1, 153122, Note_off_c, 2, 69, 64
1, 153159, Note_on_c, 2, 69, 122
1, 153160, Note_on_c, 4, 57, 127
1, 153166, Note_off_c, 4, 56, 64
1, 153167, Note_off_c, 2, 68, 64
1, 153204, Note_on_c, 2, 71, 124
1, 153204, Note_on_c, 4, 59, 127
1, 153208, Note_off_c, 4, 57, 64
1, 153209, Note_off_c, 2, 69, 64
1, 153244, Note_on_c, 2, 69, 122
1, 153244, Note_on_c, 4, 57, 127
1, 153254, Note_off_c, 4, 59, 64
1, 153255, Note_off_c, 2, 71, 64
1, 153286, Note_on_c, 2, 67, 126
1, 153287, Note_on_c, 4, 55, 127
1, 153293, Note_off_c, 4, 57, 64
1, 153293, Note_off_c, 2, 69, 64
1, 153330, Note_on_c, 4, 66, 126
1, 153331, Note_on_c, 4, 54, 127
1, 153337, Note_off_c, 4, 55, 64
1, 153337, Note_off_c, 2, 67, 64
1, 153374, Note_on_c, 4, 64, 124
1, 153375, Note_on_c, 4, 52, 127
1, 153383, Note_off_c, 4, 54, 64
1, 153384, Note_off_c, 4, 66, 64
1, 153406, Note_off_c, 4, 45, 64
1, 153421, Note_on_c, 4, 62, 127
1, 153422, Note_on_c, 4, 38, 110
1, 153422, Note_on_c, 4, 50, 127
1, 153429, Note_off_c, 4, 52, 64
1, 153430, Note_off_c, 4, 64, 64
1, 153503, Note_off_c, 4, 50, 64
1, 153515, Note_on_c, 4, 50, 127
1, 153599, Note_off_c, 4, 50, 64
1, 153607, Note_on_c, 4, 50, 127
1, 153693, Note_off_c, 4, 50, 64
1, 153701, Note_on_c, 4, 50, 127
1, 153785, Note_off_c, 4, 50, 64
1, 153786, Note_off_c, 4, 62, 64
1, 153794, Note_on_c, 4, 61, 127
1, 153794, Note_on_c, 4, 64, 124
1, 153795, Note_on_c, 4, 50, 127
1, 153878, Note_off_c, 4, 50, 64
1, 153886, Note_on_c, 4, 50, 127
1, 153971, Note_off_c, 4, 50, 64
1, 153971, Note_off_c, 4, 61, 64
1, 153972, Note_off_c, 4, 64, 64
1, 153979, Note_on_c, 4, 66, 126
1, 153980, Note_on_c, 4, 60, 127
1, 153980, Note_on_c, 4, 50, 127
1, 154065, Note_off_c, 4, 50, 64
1, 154071, Note_on_c, 4, 50, 127
1, 154158, Note_off_c, 4, 60, 64
1, 154158, Note_off_c, 4, 50, 64
1, 154159, Note_off_c, 4, 66, 64
1, 154164, Note_on_c, 2, 67, 126
1, 154165, Note_on_c, 4, 59, 127
1, 154165, Note_on_c, 4, 50, 127
1, 154250, Note_off_c, 4, 50, 64
1, 154258, Note_on_c, 4, 50, 127
1, 154302, Note_off_c, 2, 67, 64
1, 154303, Note_on_c, 2, 69, 126
1, 154328, Note_off_c, 2, 69, 64
1, 154329, Note_on_c, 2, 71, 127
1, 154350, Note_off_c, 4, 59, 64
1, 154350, Note_off_c, 4, 50, 64
1, 154360, Note_off_c, 2, 71, 64
1, 154361, Note_on_c, 2, 69, 126
1, 154361, Note_on_c, 4, 61, 127
1, 154362, Note_on_c, 4, 50, 127
1, 154447, Note_off_c, 4, 50, 64
1, 154454, Note_off_c, 2, 69, 64
1, 154455, Note_on_c, 2, 67, 126
1, 154455, Note_on_c, 4, 50, 127
1, 154540, Note_off_c, 4, 50, 64
1, 154540, Note_off_c, 4, 61, 64
1, 154548, Note_off_c, 2, 67, 64
1, 154549, Note_on_c, 4, 62, 127
1, 154549, Note_on_c, 4, 66, 126
1, 154550, Note_on_c, 4, 50, 127
1, 154635, Note_off_c, 4, 50, 64
1, 154643, Note_on_c, 4, 50, 127
1, 154729, Note_off_c, 4, 50, 64
1, 154737, Note_on_c, 4, 50, 127
1, 154822, Note_off_c, 4, 50, 64
1, 154830, Note_off_c, 4, 38, 64
1, 154830, Note_on_c, 4, 50, 127
1, 154915, Note_off_c, 4, 50, 64
1, 154916, Note_off_c, 4, 66, 64
1, 154916, Note_off_c, 4, 62, 64
1, 154922, Note_on_c, 4, 66, 126
1, 154923, Note_on_c, 4, 38, 127
1, 154923, Note_on_c, 4, 62, 127
1, 154923, Note_on_c, 4, 50, 127
1, 155009, Note_off_c, 4, 50, 64
1, 155017, Note_on_c, 4, 50, 127
1, 155105, Note_off_c, 4, 50, 64
1, 155113, Note_on_c, 4, 50, 127
1, 155201, Note_off_c, 4, 50, 64
1, 155209, Note_on_c, 4, 50, 127
1, 155296, Note_off_c, 4, 50, 64
1, 155296, Note_off_c, 4, 62, 64
1, 155297, Note_off_c, 4, 66, 64
1, 155304, Note_on_c, 2, 67, 126
1, 155305, Note_on_c, 4, 50, 127
1, 155311, Note_on_c, 4, 64, 124
1, 155392, Note_off_c, 4, 50, 64
1, 155400, Note_on_c, 4, 50, 127
1, 155486, Note_off_c, 4, 50, 64
1, 155486, Note_off_c, 2, 67, 64
1, 155492, Note_off_c, 4, 64, 64
1, 155495, Note_on_c, 4, 66, 126
1, 155495, Note_on_c, 2, 69, 126
1, 155496, Note_on_c, 4, 50, 127
1, 155580, Note_off_c, 4, 50, 64
1, 155588, Note_on_c, 4, 50, 127
1, 155674, Note_off_c, 4, 50, 64
1, 155675, Note_off_c, 2, 69, 64
1, 155675, Note_off_c, 4, 66, 64
1, 155683, Note_on_c, 2, 67, 126
1, 155683, Note_on_c, 2, 71, 127
1, 155684, Note_on_c, 4, 50, 127
1, 155766, Note_off_c, 4, 50, 64
1, 155774, Note_on_c, 4, 50, 127
1, 155820, Note_off_c, 2, 71, 64
1, 155820, Note_on_c, 2, 73, 127
1, 155850, Note_off_c, 2, 73, 64
1, 155850, Note_on_c, 2, 74, 127
1, 155870, Note_off_c, 4, 50, 64
1, 155880, Note_off_c, 2, 74, 64
1, 155880, Note_on_c, 2, 73, 127
1, 155880, Note_on_c, 4, 50, 127
1, 155965, Note_off_c, 4, 50, 64
1, 155973, Note_off_c, 2, 73, 64
1, 155973, Note_on_c, 2, 71, 127
1, 155974, Note_on_c, 4, 50, 127
1, 156060, Note_off_c, 2, 67, 64
1, 156060, Note_off_c, 4, 50, 64
1, 156069, Note_off_c, 2, 71, 64
1, 156069, Note_on_c, 2, 69, 126
1, 156070, Note_on_c, 4, 66, 126
1, 156070, Note_on_c, 4, 50, 127
1, 156155, Note_off_c, 4, 50, 64
1, 156163, Note_on_c, 4, 50, 127
1, 156251, Note_off_c, 4, 50, 64
1, 156259, Note_on_c, 4, 50, 127
1, 156347, Note_off_c, 4, 50, 64
1, 156355, Note_off_c, 4, 38, 64
1, 156355, Note_on_c, 1, 78, 126
1, 156356, Note_on_c, 4, 50, 127
1, 156450, Note_off_c, 4, 50, 64
1, 156450, Note_off_c, 4, 66, 64
1, 156451, Note_off_c, 2, 69, 64
1, 156451, Note_on_c, 2, 76, 127
1, 156452, Note_on_c, 4, 43, 127
1, 156452, Note_on_c, 4, 55, 127
1, 156458, Note_off_c, 1, 78, 64
1, 156497, Note_on_c, 1, 86, 126
1, 156543, Note_off_c, 2, 76, 64
1, 156545, Note_on_c, 2, 76, 127
1, 156591, Note_off_c, 1, 86, 64
1, 156593, Note_on_c, 1, 86, 126
1, 156639, Note_off_c, 2, 76, 64
1, 156641, Note_on_c, 4, 62, 127
1, 156641, Note_on_c, 2, 76, 127
1, 156642, Note_on_c, 4, 50, 127
1, 156648, Note_off_c, 4, 55, 64
1, 156648, Note_off_c, 4, 43, 64
1, 156685, Note_off_c, 1, 86, 64
1, 156689, Note_on_c, 1, 86, 126
1, 156733, Note_off_c, 2, 76, 64
1, 156735, Note_on_c, 2, 76, 127
1, 156781, Note_off_c, 1, 86, 64
1, 156783, Note_on_c, 1, 86, 126
1, 156829, Note_off_c, 2, 76, 64
1, 156831, Note_on_c, 4, 59, 127
1, 156831, Note_on_c, 2, 76, 127
1, 156832, Note_on_c, 4, 47, 127
1, 156840, Note_off_c, 4, 62, 64
1, 156840, Note_off_c, 4, 50, 64
1, 156875, Note_off_c, 1, 86, 64
1, 156877, Note_on_c, 1, 86, 126
1, 156923, Note_off_c, 2, 76, 64
1, 156924, Note_on_c, 2, 76, 127
1, 156969, Note_off_c, 1, 86, 64
1, 156971, Note_on_c, 1, 86, 126
1, 157017, Note_off_c, 2, 76, 64
1, 157019, Note_on_c, 2, 76, 127
1, 157020, Note_on_c, 4, 43, 127
1, 157020, Note_on_c, 4, 55, 127
1, 157026, Note_off_c, 4, 59, 64
1, 157026, Note_off_c, 4, 47, 64
1, 157063, Note_off_c, 1, 86, 64
1, 157067, Note_on_c, 1, 86, 126
1, 157111, Note_off_c, 2, 76, 64
1, 157113, Note_on_c, 2, 76, 127
1, 157159, Note_off_c, 1, 86, 64
1, 157161, Note_on_c, 1, 86, 126
1, 157207, Note_off_c, 2, 76, 64
1, 157209, Note_on_c, 1, 78, 126
1, 157210, Note_on_c, 4, 57, 127
1, 157210, Note_on_c, 4, 45, 127
1, 157218, Note_off_c, 4, 55, 64
1, 157218, Note_off_c, 4, 43, 64
1, 157256, Note_off_c, 1, 86, 64
1, 157257, Note_on_c, 1, 86, 126
1, 157303, Note_off_c, 1, 78, 64
1, 157305, Note_on_c, 1, 78, 126
1, 157349, Note_off_c, 1, 86, 64
1, 157353, Note_on_c, 1, 86, 126
1, 157397, Note_off_c, 1, 78, 64
1, 157400, Note_on_c, 4, 50, 127
1, 157400, Note_on_c, 4, 62, 127
1, 157400, Note_on_c, 1, 78, 126
1, 157408, Note_off_c, 4, 45, 64
1, 157408, Note_off_c, 4, 57, 64
1, 157445, Note_off_c, 1, 86, 64
1, 157448, Note_on_c, 1, 86, 126
1, 157493, Note_off_c, 1, 78, 64
1, 157496, Note_on_c, 1, 78, 126
1, 157541, Note_off_c, 1, 86, 64
1, 157544, Note_on_c, 1, 86, 126
1, 157589, Note_off_c, 1, 78, 64
1, 157592, Note_on_c, 1, 78, 126
1, 157592, Note_on_c, 4, 60, 127
1, 157593, Note_on_c, 4, 48, 127
1, 157598, Note_off_c, 4, 50, 64
1, 157599, Note_off_c, 4, 62, 64
1, 157636, Note_off_c, 1, 86, 64
1, 157638, Note_on_c, 1, 86, 126
1, 157680, Note_off_c, 1, 78, 64
1, 157683, Note_on_c, 1, 78, 126
1, 157727, Note_off_c, 1, 86, 64
1, 157729, Note_on_c, 1, 86, 126
1, 157773, Note_off_c, 1, 78, 64
1, 157777, Note_on_c, 4, 57, 127
1, 157777, Note_on_c, 1, 78, 126
1, 157778, Note_on_c, 4, 45, 127
1, 157784, Note_off_c, 4, 60, 64
1, 157784, Note_off_c, 4, 48, 64
1, 157821, Note_off_c, 1, 86, 64
1, 157823, Note_on_c, 1, 86, 126
1, 157869, Note_off_c, 1, 78, 64
1, 157871, Note_on_c, 1, 78, 126
1, 157917, Note_off_c, 1, 86, 64
1, 157919, Note_on_c, 1, 86, 126
1, 157965, Note_off_c, 1, 78, 64
1, 157967, Note_on_c, 1, 79, 126
1, 157968, Note_on_c, 4, 47, 127
1, 157968, Note_on_c, 4, 59, 127
1, 157976, Note_off_c, 4, 57, 64
1, 157976, Note_off_c, 4, 45, 64
1, 158011, Note_off_c, 1, 86, 64
1, 158013, Note_on_c, 1, 86, 126
1, 158057, Note_off_c, 1, 79, 64
1, 158061, Note_on_c, 1, 79, 126
1, 158105, Note_off_c, 1, 86, 64
1, 158107, Note_on_c, 1, 86, 126
1, 158151, Note_off_c, 1, 79, 64
1, 158153, Note_on_c, 1, 79, 126
1, 158154, Note_on_c, 4, 55, 127
1, 158154, Note_on_c, 2, 67, 126
1, 158162, Note_off_c, 4, 59, 64
1, 158162, Note_off_c, 4, 47, 64
1, 158199, Note_off_c, 1, 86, 64
1, 158200, Note_on_c, 1, 86, 126
1, 158245, Note_off_c, 1, 79, 64
1, 158247, Note_on_c, 1, 79, 126
1, 158292, Note_off_c, 1, 86, 64
1, 158293, Note_on_c, 1, 86, 126
1, 158340, Note_off_c, 1, 79, 64
1, 158341, Note_on_c, 1, 79, 126
1, 158342, Note_on_c, 4, 50, 127
1, 158342, Note_on_c, 4, 62, 127
1, 158348, Note_off_c, 4, 55, 64
1, 158349, Note_off_c, 2, 67, 64
1, 158386, Note_off_c, 1, 86, 64
1, 158388, Note_on_c, 1, 86, 126
1, 158430, Note_off_c, 1, 79, 64
1, 158434, Note_on_c, 1, 79, 126
1, 158476, Note_off_c, 1, 86, 64
1, 158480, Note_on_c, 1, 86, 126
1, 158522, Note_off_c, 1, 79, 64
1, 158524, Note_on_c, 4, 59, 127
1, 158524, Note_on_c, 1, 79, 126
1, 158525, Note_on_c, 4, 47, 127
1, 158532, Note_off_c, 4, 50, 64
1, 158533, Note_off_c, 4, 62, 64
1, 158570, Note_off_c, 1, 86, 64
1, 158572, Note_on_c, 1, 86, 126
1, 158616, Note_off_c, 1, 79, 64
1, 158618, Note_on_c, 1, 79, 126
1, 158662, Note_off_c, 1, 86, 64
1, 158664, Note_on_c, 1, 86, 126
1, 158710, Note_off_c, 1, 79, 64
1, 158711, Note_on_c, 1, 80, 126
1, 158711, Note_on_c, 2, 74, 127
1, 158712, Note_on_c, 4, 46, 127
1, 158712, Note_on_c, 4, 58, 126
1, 158720, Note_off_c, 4, 59, 64
1, 158720, Note_off_c, 4, 47, 64
1, 158755, Note_off_c, 1, 86, 64
1, 158757, Note_on_c, 1, 86, 126
1, 158801, Note_off_c, 2, 74, 64
1, 158802, Note_off_c, 1, 80, 64
1, 158804, Note_on_c, 1, 80, 126
1, 158805, Note_on_c, 2, 74, 127
1, 158847, Note_off_c, 1, 86, 64
1, 158851, Note_on_c, 1, 86, 126
1, 158895, Note_off_c, 2, 74, 64
1, 158896, Note_off_c, 1, 80, 64
1, 158898, Note_on_c, 1, 80, 126
1, 158899, Note_on_c, 2, 74, 127
1, 158899, Note_on_c, 4, 65, 126
1, 158900, Note_on_c, 4, 53, 127
1, 158906, Note_off_c, 4, 58, 64
1, 158906, Note_off_c, 4, 46, 64
1, 158943, Note_off_c, 1, 86, 64
1, 158945, Note_on_c, 1, 86, 126
1, 158991, Note_off_c, 2, 74, 64
1, 158992, Note_off_c, 1, 80, 64
1, 158992, Note_on_c, 1, 80, 126
1, 158993, Note_on_c, 2, 74, 127
1, 159037, Note_off_c, 1, 86, 64
1, 159039, Note_on_c, 1, 86, 126
1, 159084, Note_off_c, 2, 74, 64
1, 159084, Note_off_c, 1, 80, 64
1, 159086, Note_on_c, 1, 80, 126
1, 159087, Note_on_c, 4, 62, 127
1, 159087, Note_on_c, 2, 74, 127
1, 159088, Note_on_c, 4, 50, 127
1, 159094, Note_off_c, 4, 53, 64
1, 159095, Note_off_c, 4, 65, 64
1, 159132, Note_off_c, 1, 86, 64
1, 159133, Note_on_c, 1, 86, 126
1, 159179, Note_off_c, 1, 80, 64
1, 159179, Note_off_c, 2, 74, 64
1, 159181, Note_on_c, 1, 80, 126
1, 159182, Note_on_c, 2, 74, 127
1, 159226, Note_off_c, 1, 86, 64
1, 159228, Note_on_c, 1, 86, 126
1, 159274, Note_off_c, 2, 74, 64
1, 159274, Note_off_c, 1, 80, 64
1, 159276, Note_on_c, 1, 80, 126
1, 159277, Note_on_c, 4, 58, 126
1, 159277, Note_on_c, 2, 74, 127
1, 159278, Note_on_c, 4, 46, 127
1, 159285, Note_off_c, 4, 62, 64
1, 159285, Note_off_c, 4, 50, 64
1, 159322, Note_off_c, 1, 86, 64
1, 159326, Note_on_c, 1, 86, 126
1, 159370, Note_off_c, 1, 80, 64
1, 159370, Note_off_c, 2, 74, 64
1, 159372, Note_on_c, 1, 80, 126
1, 159373, Note_on_c, 2, 74, 127
1, 159418, Note_off_c, 1, 86, 64
1, 159420, Note_on_c, 1, 86, 122
1, 159460, Note_off_c, 1, 86, 64
1, 159460, Note_off_c, 4, 58, 64
1, 159461, Note_off_c, 2, 74, 64
1, 159461, Note_off_c, 1, 80, 64
1, 159468, Note_on_c, 4, 57, 127
1, 159481, Note_on_c, 2, 76, 127
1, 159485, Note_off_c, 4, 46, 64
1, 159492, Note_on_c, 1, 81, 127
1, 159504, Note_on_c, 1, 85, 127
1, 159522, Note_on_c, 2, 69, 126
1, 159567, Note_on_c, 2, 68, 126
1, 159575, Note_off_c, 2, 69, 64
1, 159612, Note_on_c, 2, 69, 126
1, 159620, Note_off_c, 2, 68, 64
1, 159657, Note_on_c, 2, 71, 127
1, 159665, Note_off_c, 2, 69, 64
1, 159703, Note_on_c, 2, 69, 126
1, 159708, Note_off_c, 2, 71, 64
1, 159728, Note_off_c, 2, 76, 64
1, 159737, Note_off_c, 1, 81, 64
1, 159745, Note_off_c, 1, 85, 64
1, 159745, Note_on_c, 1, 81, 118
1, 159746, Note_on_c, 4, 66, 126
1, 159788, Note_off_c, 2, 69, 64
1, 159790, Note_on_c, 2, 69, 126
1, 159835, Note_on_c, 4, 64, 124
1, 159835, Note_on_c, 1, 79, 114
1, 159841, Note_off_c, 4, 66, 64
1, 159842, Note_off_c, 1, 81, 64
1, 159875, Note_off_c, 2, 69, 64
1, 159875, Note_on_c, 2, 69, 126
1, 159919, Note_on_c, 1, 78, 114
1, 159920, Note_on_c, 4, 62, 127
1, 159926, Note_off_c, 1, 79, 64
1, 159926, Note_off_c, 4, 64, 64
1, 159960, Note_off_c, 2, 69, 64
1, 159961, Note_on_c, 2, 69, 126
1, 160006, Note_on_c, 4, 61, 127
1, 160006, Note_on_c, 2, 76, 117
1, 160012, Note_off_c, 4, 62, 64
1, 160013, Note_off_c, 1, 78, 64
1, 160045, Note_off_c, 2, 69, 64
1, 160048, Note_on_c, 2, 69, 126
1, 160090, Note_on_c, 2, 74, 117
1, 160091, Note_on_c, 4, 59, 127
1, 160097, Note_off_c, 2, 76, 64
1, 160097, Note_off_c, 4, 61, 64
1, 160132, Note_off_c, 2, 69, 64
1, 160134, Note_on_c, 2, 69, 126
1, 160136, Note_off_c, 4, 57, 64
1, 160180, Note_on_c, 2, 73, 117
1, 160181, Note_on_c, 4, 57, 127
1, 160187, Note_off_c, 4, 59, 64
1, 160188, Note_off_c, 2, 74, 64
1, 160223, Note_off_c, 2, 69, 64
1, 160224, Note_on_c, 2, 69, 126
1, 160267, Note_on_c, 4, 59, 127
1, 160267, Note_on_c, 2, 74, 117
1, 160273, Note_off_c, 4, 57, 64
1, 160274, Note_off_c, 2, 73, 64
1, 160307, Note_off_c, 2, 69, 64
1, 160311, Note_on_c, 2, 69, 126
1, 160355, Note_on_c, 2, 76, 117
1, 160356, Note_on_c, 4, 61, 127
1, 160362, Note_off_c, 2, 74, 64
1, 160362, Note_off_c, 4, 59, 64
1, 160395, Note_off_c, 2, 69, 64
1, 160397, Note_on_c, 2, 69, 126
1, 160440, Note_on_c, 1, 78, 114
1, 160440, Note_on_c, 4, 62, 127
1, 160446, Note_off_c, 4, 61, 64
1, 160447, Note_off_c, 2, 76, 64
1, 160482, Note_off_c, 2, 69, 64
1, 160484, Note_on_c, 2, 69, 126
1, 160526, Note_on_c, 4, 64, 124
1, 160526, Note_on_c, 1, 81, 114
1, 160535, Note_off_c, 4, 62, 64
1, 160535, Note_off_c, 1, 78, 64
1, 160568, Note_off_c, 2, 69, 64
1, 160570, Note_on_c, 1, 79, 114
1, 160571, Note_on_c, 2, 69, 126
1, 160577, Note_off_c, 1, 81, 64
1, 160611, Note_on_c, 1, 78, 114
1, 160612, Note_on_c, 4, 61, 127
1, 160616, Note_off_c, 1, 79, 64
1, 160617, Note_off_c, 4, 64, 64
1, 160648, Note_off_c, 2, 69, 64
1, 160652, Note_on_c, 2, 76, 117
1, 160652, Note_on_c, 2, 69, 126
1, 160658, Note_off_c, 1, 78, 64
1, 160693, Note_on_c, 1, 79, 114
1, 160693, Note_on_c, 4, 62, 127
1, 160700, Note_off_c, 2, 76, 64
1, 160700, Note_off_c, 4, 61, 64
1, 160733, Note_off_c, 2, 69, 64
1, 160737, Note_on_c, 1, 78, 114
1, 160738, Note_on_c, 2, 69, 126
1, 160742, Note_off_c, 1, 79, 64
1, 160776, Note_on_c, 2, 76, 121
1, 160777, Note_on_c, 4, 59, 127
1, 160783, Note_off_c, 1, 78, 64
1, 160784, Note_off_c, 4, 62, 64
1, 160817, Note_off_c, 2, 69, 64
1, 160817, Note_on_c, 2, 74, 121
1, 160818, Note_on_c, 2, 69, 126
1, 160824, Note_off_c, 2, 76, 64
1, 160859, Note_off_c, 2, 69, 64
1, 160860, Note_off_c, 2, 74, 64
1, 160860, Note_on_c, 4, 57, 127
1, 160860, Note_on_c, 2, 73, 127
1, 160876, Note_off_c, 4, 59, 64
1, 160886, Note_on_c, 2, 76, 127
1, 160896, Note_on_c, 1, 81, 124
1, 160919, Note_on_c, 2, 69, 126
1, 160961, Note_on_c, 2, 68, 126
1, 160968, Note_off_c, 2, 69, 64
1, 161005, Note_on_c, 2, 69, 126
1, 161013, Note_off_c, 2, 68, 64
1, 161049, Note_on_c, 2, 71, 127
1, 161055, Note_off_c, 2, 69, 64
1, 161091, Note_on_c, 2, 69, 126
1, 161099, Note_off_c, 2, 71, 64
1, 161107, Note_off_c, 2, 73, 64
1, 161118, Note_off_c, 2, 76, 64
1, 161126, Note_off_c, 1, 81, 64
1, 161136, Note_on_c, 1, 81, 114
1, 161136, Note_on_c, 4, 66, 126
1, 161142, Note_off_c, 2, 69, 64
1, 161179, Note_on_c, 2, 69, 126
1, 161219, Note_off_c, 1, 81, 64
1, 161221, Note_on_c, 4, 64, 124
1, 161221, Note_on_c, 1, 79, 114
1, 161228, Note_off_c, 4, 66, 64
1, 161260, Note_off_c, 2, 69, 64
1, 161262, Note_on_c, 2, 69, 126
1, 161306, Note_on_c, 1, 78, 114
1, 161307, Note_on_c, 4, 62, 127
1, 161313, Note_off_c, 4, 64, 64
1, 161314, Note_off_c, 1, 79, 64
1, 161349, Note_off_c, 2, 69, 64
1, 161351, Note_on_c, 2, 69, 126
1, 161393, Note_on_c, 2, 76, 117
1, 161393, Note_on_c, 4, 61, 127
1, 161401, Note_off_c, 4, 62, 64
1, 161402, Note_off_c, 1, 78, 64
1, 161433, Note_off_c, 2, 69, 64
1, 161437, Note_on_c, 2, 69, 126
1, 161479, Note_on_c, 2, 74, 117
1, 161480, Note_on_c, 4, 59, 127
1, 161486, Note_off_c, 4, 61, 64
1, 161486, Note_off_c, 2, 76, 64
1, 161520, Note_off_c, 2, 69, 64
1, 161523, Note_off_c, 4, 57, 64
1, 161523, Note_on_c, 2, 69, 126
1, 161567, Note_on_c, 2, 73, 117
1, 161567, Note_on_c, 4, 57, 127
1, 161573, Note_off_c, 4, 59, 64
1, 161574, Note_off_c, 2, 74, 64
1, 161609, Note_off_c, 2, 69, 64
1, 161611, Note_on_c, 2, 69, 126
1, 161655, Note_on_c, 2, 74, 117
1, 161655, Note_on_c, 4, 59, 127
1, 161662, Note_off_c, 4, 57, 64
1, 161662, Note_off_c, 2, 73, 64
1, 161697, Note_off_c, 2, 69, 64
1, 161699, Note_on_c, 2, 69, 126
1, 161741, Note_on_c, 2, 76, 117
1, 161742, Note_on_c, 4, 61, 127
1, 161748, Note_off_c, 4, 59, 64
1, 161748, Note_off_c, 2, 74, 64
1, 161784, Note_off_c, 2, 69, 64
1, 161784, Note_on_c, 2, 69, 126
1, 161828, Note_on_c, 1, 78, 114
1, 161828, Note_on_c, 4, 62, 127
1, 161835, Note_off_c, 2, 76, 64
1, 161835, Note_off_c, 4, 61, 64
1, 161868, Note_off_c, 2, 69, 64
1, 161870, Note_on_c, 2, 69, 126
1, 161913, Note_on_c, 4, 64, 124
1, 161913, Note_on_c, 1, 81, 114
1, 161919, Note_off_c, 4, 62, 64
1, 161919, Note_off_c, 1, 78, 64
1, 161952, Note_off_c, 2, 69, 64
1, 161956, Note_on_c, 1, 79, 114
1, 161957, Note_on_c, 2, 69, 126
1, 161963, Note_off_c, 1, 81, 64
1, 161998, Note_on_c, 1, 78, 114
1, 161999, Note_on_c, 4, 61, 127
1, 162004, Note_off_c, 1, 79, 64
1, 162005, Note_off_c, 4, 64, 64
1, 162036, Note_off_c, 2, 69, 64
1, 162040, Note_on_c, 2, 76, 117
1, 162040, Note_on_c, 2, 69, 126
1, 162047, Note_off_c, 1, 78, 64
1, 162081, Note_on_c, 1, 79, 114
1, 162082, Note_on_c, 4, 62, 127
1, 162088, Note_off_c, 2, 76, 64
1, 162088, Note_off_c, 4, 61, 64
1, 162123, Note_off_c, 2, 69, 64
1, 162126, Note_on_c, 1, 78, 114
1, 162126, Note_on_c, 2, 69, 126
1, 162132, Note_off_c, 1, 79, 64
1, 162167, Note_on_c, 2, 76, 117
1, 162168, Note_on_c, 4, 59, 127
1, 162174, Note_off_c, 1, 78, 64
1, 162174, Note_off_c, 4, 62, 64
1, 162209, Note_off_c, 2, 69, 64
1, 162211, Note_on_c, 2, 69, 126
1, 162211, Note_on_c, 2, 74, 117
1, 162218, Note_off_c, 2, 76, 64
1, 162252, Note_off_c, 2, 74, 64
1, 162252, Note_off_c, 2, 69, 64
1, 162253, Note_off_c, 4, 59, 64
1, 162253, Note_on_c, 2, 73, 127
1, 162254, Note_on_c, 4, 57, 127
1, 162281, Note_on_c, 2, 76, 127
1, 162293, Note_on_c, 1, 81, 127
1, 162425, Note_off_c, 4, 57, 64
1, 162426, Note_off_c, 2, 73, 64
1, 162433, Note_off_c, 2, 76, 64
1, 162440, Note_on_c, 4, 64, 124
1, 162440, Note_on_c, 2, 76, 124
1, 162441, Note_on_c, 4, 57, 127
1, 162441, Note_on_c, 4, 61, 127
1, 162445, Note_off_c, 1, 81, 64
1, 162488, Note_on_c, 2, 73, 124
1, 162493, Note_off_c, 2, 76, 64
1, 162530, Note_on_c, 2, 76, 124
1, 162537, Note_off_c, 2, 73, 64
1, 162577, Note_on_c, 2, 73, 124
1, 162585, Note_off_c, 2, 76, 64
1, 162615, Note_off_c, 4, 64, 64
1, 162616, Note_off_c, 4, 61, 64
1, 162616, Note_off_c, 4, 57, 64
1, 162624, Note_on_c, 4, 64, 124
1, 162624, Note_on_c, 2, 69, 126
1, 162625, Note_on_c, 4, 57, 127
1, 162625, Note_on_c, 4, 61, 127
1, 162630, Note_off_c, 2, 73, 64
1, 162979, Note_off_c, 2, 69, 64
1, 162980, Note_on_c, 2, 69, 127
1, 163086, Note_off_c, 2, 69, 64
1, 163090, Note_on_c, 2, 74, 127
1, 163188, Note_off_c, 2, 74, 64
1, 163188, Note_on_c, 2, 73, 127
1, 163233, Note_off_c, 4, 64, 64
1, 163277, Note_off_c, 2, 73, 64
1, 163277, Note_on_c, 2, 76, 127
1, 163370, Note_off_c, 2, 76, 64
1, 163370, Note_on_c, 2, 74, 127
1, 163459, Note_off_c, 2, 74, 64
1, 163460, Note_on_c, 2, 73, 127
1, 163462, Note_off_c, 4, 61, 64
1, 163552, Note_off_c, 2, 73, 64
1, 163553, Note_on_c, 2, 71, 127
1, 163645, Note_off_c, 2, 71, 64
1, 163646, Note_on_c, 4, 64, 124
1, 163646, Note_on_c, 2, 73, 121
1, 163647, Note_off_c, 4, 57, 64
1, 163647, Note_on_c, 4, 61, 127
1, 163674, Note_on_c, 2, 71, 120
1, 163684, Note_off_c, 2, 73, 64
1, 163703, Note_on_c, 2, 73, 121
1, 163711, Note_off_c, 2, 71, 64
1, 163728, Note_on_c, 2, 71, 120
1, 163738, Note_off_c, 2, 73, 64
1, 163745, Note_off_c, 4, 61, 64
1, 163746, Note_off_c, 4, 64, 64
1, 163754, Note_on_c, 2, 69, 122
1, 163754, Note_on_c, 4, 64, 124
1, 163755, Note_on_c, 4, 61, 127
1, 163776, Note_off_c, 2, 71, 64
1, 163837, Note_off_c, 2, 69, 64
1, 163841, Note_off_c, 4, 61, 64
1, 163842, Note_off_c, 4, 64, 64
1, 163850, Note_on_c, 4, 64, 124
1, 163850, Note_on_c, 2, 69, 122
1, 163851, Note_on_c, 4, 61, 127
1, 163941, Note_off_c, 4, 61, 64
1, 163942, Note_off_c, 4, 64, 64
1, 163948, Note_on_c, 4, 64, 124
1, 163948, Note_on_c, 4, 61, 127
1, 164037, Note_off_c, 4, 61, 64
1, 164038, Note_off_c, 4, 64, 64
1, 164046, Note_on_c, 4, 64, 124
1, 164046, Note_on_c, 4, 61, 127
1, 164081, Note_off_c, 2, 69, 64
1, 164120, Note_on_c, 2, 71, 127
1, 164135, Note_off_c, 4, 61, 64
1, 164136, Note_off_c, 4, 64, 64
1, 164140, Note_off_c, 2, 71, 64
1, 164144, Note_on_c, 4, 64, 124
1, 164144, Note_on_c, 2, 71, 127
1, 164145, Note_on_c, 4, 61, 127
1, 164164, Note_off_c, 2, 71, 64
1, 164168, Note_on_c, 2, 69, 125
1, 164189, Note_off_c, 2, 69, 64
1, 164191, Note_on_c, 2, 68, 125
1, 164229, Note_off_c, 2, 68, 64
1, 164231, Note_off_c, 4, 61, 64
1, 164232, Note_off_c, 4, 64, 64
1, 164240, Note_on_c, 2, 69, 127
1, 164240, Note_on_c, 4, 64, 124
1, 164241, Note_on_c, 4, 61, 127
1, 164327, Note_off_c, 4, 61, 64
1, 164328, Note_off_c, 4, 64, 64
1, 164336, Note_on_c, 4, 64, 124
1, 164336, Note_on_c, 2, 71, 127
1, 164337, Note_on_c, 4, 61, 127
1, 164351, Note_off_c, 2, 69, 64
1, 164430, Note_on_c, 2, 69, 127
1, 164430, Note_on_c, 4, 62, 127
1, 164431, Note_on_c, 4, 59, 127
1, 164436, Note_off_c, 4, 61, 64
1, 164437, Note_off_c, 2, 71, 64
1, 164437, Note_off_c, 4, 64, 64
1, 164519, Note_off_c, 4, 59, 64
1, 164520, Note_off_c, 4, 62, 64
1, 164524, Note_off_c, 2, 69, 64
1, 164526, Note_on_c, 2, 67, 127
1, 164527, Note_on_c, 4, 62, 127
1, 164527, Note_on_c, 4, 59, 127
1, 164616, Note_off_c, 4, 59, 64
1, 164616, Note_off_c, 4, 62, 64
1, 164625, Note_on_c, 4, 59, 127
1, 164625, Note_on_c, 4, 62, 127
1, 164712, Note_off_c, 4, 59, 64
1, 164713, Note_off_c, 4, 62, 64
1, 164719, Note_on_c, 2, 71, 127
1, 164720, Note_on_c, 4, 62, 127
1, 164720, Note_on_c, 4, 59, 127
1, 164721, Note_off_c, 2, 67, 64
1, 164808, Note_off_c, 4, 59, 64
1, 164808, Note_off_c, 4, 62, 64
1, 164816, Note_on_c, 2, 67, 127
1, 164817, Note_on_c, 4, 57, 127
1, 164817, Note_on_c, 4, 61, 127
1, 164825, Note_off_c, 2, 71, 64
1, 164900, Note_off_c, 4, 61, 64
1, 164900, Note_off_c, 4, 57, 64
1, 164908, Note_on_c, 4, 66, 127
1, 164909, Note_off_c, 2, 67, 64
1, 164909, Note_on_c, 4, 61, 127
1, 164909, Note_on_c, 4, 57, 127
1, 164996, Note_off_c, 4, 57, 64
1, 164997, Note_off_c, 4, 61, 64
1, 165003, Note_on_c, 4, 61, 127
1, 165004, Note_on_c, 4, 57, 127
1, 165089, Note_off_c, 4, 66, 64
1, 165094, Note_off_c, 4, 57, 64
1, 165094, Note_off_c, 4, 61, 64
1, 165102, Note_on_c, 2, 69, 127
1, 165103, Note_on_c, 4, 57, 127
1, 165103, Note_on_c, 4, 61, 127
1, 165192, Note_off_c, 4, 61, 64
1, 165192, Note_off_c, 4, 57, 64
1, 165198, Note_on_c, 4, 66, 127
1, 165199, Note_on_c, 4, 59, 127
1, 165199, Note_on_c, 4, 55, 127
1, 165206, Note_off_c, 2, 69, 64
1, 165248, Note_off_c, 4, 66, 64
1, 165249, Note_on_c, 4, 64, 124
1, 165288, Note_off_c, 4, 55, 64
1, 165288, Note_off_c, 4, 59, 64
1, 165296, Note_off_c, 4, 64, 64
1, 165297, Note_on_c, 4, 59, 127
1, 165297, Note_on_c, 2, 67, 126
1, 165298, Note_on_c, 4, 55, 127
1, 165346, Note_off_c, 2, 67, 64
1, 165347, Note_on_c, 4, 66, 126
1, 165382, Note_off_c, 4, 59, 64
1, 165382, Note_off_c, 4, 55, 64
1, 165388, Note_off_c, 4, 66, 64
1, 165389, Note_on_c, 2, 69, 126
1, 165389, Note_on_c, 4, 59, 127
1, 165390, Note_on_c, 4, 55, 127
1, 165434, Note_off_c, 2, 69, 64
1, 165435, Note_on_c, 2, 67, 126
1, 165474, Note_off_c, 4, 55, 64
1, 165474, Note_off_c, 4, 59, 64
1, 165482, Note_off_c, 2, 67, 64
1, 165483, Note_on_c, 4, 66, 126
1, 165483, Note_on_c, 4, 59, 127
1, 165484, Note_on_c, 4, 55, 127
1, 165528, Note_off_c, 4, 66, 64
1, 165529, Note_on_c, 4, 64, 124
1, 165568, Note_off_c, 4, 55, 64
1, 165568, Note_off_c, 4, 59, 64
1, 165576, Note_off_c, 4, 64, 64
1, 165577, Note_on_c, 4, 57, 127
1, 165577, Note_on_c, 4, 62, 127
1, 165578, Note_on_c, 4, 54, 127
1, 165623, Note_off_c, 4, 62, 64
1, 165623, Note_on_c, 4, 64, 124
1, 165670, Note_off_c, 4, 64, 64
1, 165670, Note_on_c, 4, 62, 127
1, 165715, Note_off_c, 4, 62, 64
1, 165715, Note_on_c, 4, 61, 127
1, 165764, Note_off_c, 4, 61, 64
1, 165764, Note_on_c, 4, 62, 127
1, 165811, Note_off_c, 4, 62, 64
1, 165811, Note_on_c, 4, 64, 124
1, 165860, Note_off_c, 4, 64, 64
1, 165860, Note_on_c, 3, 66, 126
1, 165909, Note_off_c, 3, 66, 64
1, 165909, Note_on_c, 3, 67, 126
1, 165956, Note_off_c, 3, 67, 64
1, 165956, Note_on_c, 3, 68, 126
1, 166003, Note_off_c, 3, 68, 64
1, 166003, Note_on_c, 3, 69, 126
1, 166048, Note_off_c, 3, 69, 64
1, 166048, Note_on_c, 3, 71, 127
1, 166093, Note_off_c, 3, 71, 64
1, 166093, Note_on_c, 3, 69, 126
1, 166136, Note_off_c, 3, 69, 64
1, 166137, Note_on_c, 3, 73, 127
1, 166181, Note_off_c, 3, 73, 64
1, 166182, Note_on_c, 3, 71, 127
1, 166224, Note_off_c, 3, 71, 64
1, 166225, Note_on_c, 3, 74, 127
1, 166268, Note_off_c, 3, 74, 64
1, 166268, Note_on_c, 3, 73, 127
1, 166311, Note_off_c, 3, 73, 64
1, 166311, Note_on_c, 2, 76, 127
1, 166355, Note_off_c, 2, 76, 64
1, 166355, Note_on_c, 3, 74, 127
1, 166397, Note_off_c, 3, 74, 64
1, 166398, Note_on_c, 1, 78, 126
1, 166440, Note_off_c, 1, 78, 64
1, 166441, Note_on_c, 2, 76, 127
1, 166482, Note_off_c, 2, 76, 64
1, 166483, Note_on_c, 1, 79, 126
1, 166527, Note_off_c, 1, 79, 64
1, 166527, Note_on_c, 1, 78, 126
1, 166572, Note_off_c, 1, 78, 64
1, 166572, Note_on_c, 1, 81, 126
1, 166617, Note_off_c, 1, 81, 64
1, 166618, Note_on_c, 1, 79, 126
1, 166665, Note_off_c, 1, 79, 64
1, 166665, Note_on_c, 1, 80, 122
1, 166712, Note_off_c, 1, 80, 64
1, 166712, Note_on_c, 1, 81, 122
1, 166758, Note_off_c, 1, 81, 64
1, 166759, Note_on_c, 1, 83, 122
1, 166804, Note_off_c, 1, 83, 64
1, 166804, Note_on_c, 1, 81, 122
1, 166848, Note_off_c, 1, 81, 64
1, 166849, Note_on_c, 1, 85, 122
1, 166894, Note_off_c, 1, 85, 64
1, 166894, Note_on_c, 1, 83, 122
1, 166939, Note_off_c, 1, 83, 64
1, 166940, Note_on_c, 1, 86, 126
1, 166982, Note_off_c, 1, 86, 64
1, 166982, Note_on_c, 1, 85, 122
1, 167028, Note_off_c, 1, 85, 64
1, 167028, Note_on_c, 1, 88, 127
1, 167119, Note_off_c, 1, 88, 64
1, 167119, Note_on_c, 1, 86, 126
1, 167210, Note_off_c, 1, 86, 64
1, 167210, Note_on_c, 1, 85, 122
1, 167301, Note_off_c, 1, 85, 64
1, 167302, Note_on_c, 1, 83, 122
1, 167317, Note_off_c, 4, 54, 64
1, 167318, Note_off_c, 4, 57, 64
1, 167393, Note_off_c, 1, 83, 64
1, 167394, Note_on_c, 1, 80, 122
1, 167394, Note_on_c, 3, 76, 116
1, 167395, Note_on_c, 3, 73, 116
1, 167480, Note_off_c, 3, 73, 64
1, 167480, Note_off_c, 3, 76, 64
1, 167486, Note_on_c, 1, 83, 114
1, 167487, Note_on_c, 3, 73, 116
1, 167487, Note_on_c, 3, 76, 116
1, 167491, Note_off_c, 1, 80, 64
1, 167535, Note_on_c, 1, 81, 114
1, 167541, Note_off_c, 1, 83, 64
1, 167576, Note_off_c, 1, 81, 64
1, 167576, Note_off_c, 3, 73, 64
1, 167577, Note_off_c, 3, 76, 64
1, 167582, Note_on_c, 1, 81, 114
1, 167583, Note_on_c, 3, 76, 116
1, 167583, Note_on_c, 3, 73, 116
1, 167670, Note_off_c, 3, 73, 64
1, 167670, Note_off_c, 3, 76, 64
1, 167678, Note_on_c, 3, 76, 116
1, 167679, Note_on_c, 3, 73, 116
1, 167766, Note_off_c, 3, 76, 64
1, 167766, Note_off_c, 3, 73, 64
1, 167772, Note_on_c, 3, 76, 116
1, 167773, Note_on_c, 3, 73, 116
1, 167818, Note_off_c, 1, 81, 64
1, 167820, Note_on_c, 1, 83, 114
1, 167858, Note_off_c, 3, 73, 64
1, 167859, Note_off_c, 3, 76, 64
1, 167867, Note_on_c, 1, 81, 114
1, 167867, Note_on_c, 3, 76, 116
1, 167868, Note_on_c, 3, 73, 116
1, 167875, Note_off_c, 1, 83, 64
1, 167914, Note_on_c, 1, 80, 118
1, 167919, Note_off_c, 1, 81, 64
1, 167954, Note_off_c, 3, 73, 64
1, 167954, Note_off_c, 3, 76, 64
1, 167961, Note_on_c, 3, 76, 116
1, 167961, Note_on_c, 1, 81, 114
1, 167962, Note_on_c, 3, 73, 116
1, 167967, Note_off_c, 1, 80, 64
1, 168048, Note_off_c, 3, 76, 64
1, 168048, Note_off_c, 3, 73, 64
1, 168049, Note_off_c, 1, 81, 64
1, 168057, Note_on_c, 1, 81, 114
1, 168057, Note_on_c, 3, 76, 116
1, 168058, Note_on_c, 3, 73, 116
1, 168144, Note_off_c, 3, 73, 64
1, 168144, Note_off_c, 3, 76, 64
1, 168151, Note_on_c, 3, 74, 116
1, 168151, Note_on_c, 3, 71, 115
1, 168236, Note_off_c, 3, 71, 64
1, 168237, Note_off_c, 3, 74, 64
1, 168243, Note_on_c, 1, 78, 122
1, 168243, Note_on_c, 3, 74, 116
1, 168244, Note_on_c, 3, 71, 115
1, 168250, Note_off_c, 1, 81, 64
1, 168328, Note_off_c, 3, 71, 64
1, 168329, Note_off_c, 3, 74, 64
1, 168337, Note_on_c, 3, 74, 116
1, 168337, Note_on_c, 3, 71, 115
1, 168424, Note_off_c, 3, 71, 64
1, 168425, Note_off_c, 3, 74, 64
1, 168431, Note_on_c, 1, 79, 118
1, 168432, Note_on_c, 3, 71, 115
1, 168432, Note_on_c, 3, 74, 116
1, 168436, Note_off_c, 1, 78, 64
1, 168518, Note_off_c, 3, 71, 64
1, 168519, Note_off_c, 3, 74, 64
1, 168527, Note_on_c, 3, 73, 116
1, 168528, Note_on_c, 3, 69, 113
1, 168612, Note_off_c, 3, 69, 64
1, 168613, Note_off_c, 3, 73, 64
1, 168619, Note_on_c, 2, 77, 123
1, 168620, Note_on_c, 3, 73, 116
1, 168620, Note_on_c, 3, 69, 113
1, 168623, Note_off_c, 1, 79, 64
1, 168708, Note_off_c, 3, 69, 64
1, 168708, Note_off_c, 3, 73, 64
1, 168714, Note_on_c, 3, 73, 116
1, 168715, Note_on_c, 3, 69, 113
1, 168802, Note_off_c, 3, 73, 64
1, 168802, Note_off_c, 3, 69, 64
1, 168808, Note_on_c, 1, 78, 122
1, 168809, Note_on_c, 3, 73, 116
1, 168809, Note_on_c, 3, 69, 113
1, 168813, Note_off_c, 2, 77, 64
1, 168896, Note_off_c, 3, 69, 64
1, 168896, Note_off_c, 3, 73, 64
1, 168903, Note_on_c, 3, 67, 113
1, 168903, Note_on_c, 3, 71, 115
1, 168986, Note_off_c, 3, 71, 64
1, 168986, Note_off_c, 3, 67, 64
1, 168993, Note_on_c, 2, 75, 123
1, 168993, Note_on_c, 3, 71, 115
1, 168994, Note_on_c, 3, 67, 113
1, 168997, Note_off_c, 1, 78, 64
1, 169075, Note_off_c, 3, 67, 64
1, 169076, Note_off_c, 3, 71, 64
1, 169084, Note_on_c, 3, 71, 115
1, 169084, Note_on_c, 3, 67, 113
1, 169167, Note_off_c, 3, 67, 64
1, 169168, Note_off_c, 3, 71, 64
1, 169175, Note_on_c, 3, 67, 113
1, 169175, Note_on_c, 3, 71, 115
1, 169175, Note_on_c, 2, 76, 123
1, 169178, Note_off_c, 2, 75, 64
1, 169259, Note_off_c, 3, 67, 64
1, 169260, Note_off_c, 3, 71, 64
1, 169268, Note_on_c, 3, 66, 113
1, 169268, Note_on_c, 3, 69, 113
1, 169313, Note_off_c, 2, 76, 64
1, 169313, Note_on_c, 2, 73, 123
1, 169358, Note_on_c, 2, 76, 123
1, 169366, Note_off_c, 2, 73, 64
1, 169402, Note_on_c, 2, 74, 123
1, 169410, Note_off_c, 2, 76, 64
1, 169444, Note_on_c, 1, 83, 122
1, 169450, Note_off_c, 2, 74, 64
1, 169488, Note_on_c, 1, 81, 122
1, 169496, Note_off_c, 1, 83, 64
1, 169533, Note_on_c, 1, 79, 126
1, 169540, Note_off_c, 1, 81, 64
1, 169579, Note_on_c, 1, 78, 126
1, 169586, Note_off_c, 1, 79, 64
1, 169625, Note_off_c, 3, 69, 64
1, 169625, Note_off_c, 3, 66, 64
1, 169626, Note_on_c, 4, 55, 127
1, 169626, Note_on_c, 2, 76, 127
1, 169627, Note_on_c, 4, 43, 127
1, 169633, Note_off_c, 1, 78, 64
1, 169672, Note_on_c, 1, 86, 126
1, 169718, Note_on_c, 2, 75, 127
1, 169718, Note_on_c, 4, 54, 127
1, 169719, Note_on_c, 4, 42, 127
1, 169727, Note_off_c, 2, 76, 64
1, 169728, Note_off_c, 4, 55, 64
1, 169728, Note_off_c, 4, 43, 64
1, 169762, Note_off_c, 1, 86, 64
1, 169766, Note_on_c, 1, 86, 126
1, 169812, Note_on_c, 2, 76, 127
1, 169812, Note_on_c, 4, 55, 127
1, 169813, Note_on_c, 4, 43, 127
1, 169821, Note_off_c, 4, 42, 64
1, 169821, Note_off_c, 2, 75, 64
1, 169822, Note_off_c, 4, 54, 64
1, 169857, Note_off_c, 1, 86, 64
1, 169859, Note_on_c, 1, 86, 126
1, 169905, Note_on_c, 2, 75, 127
1, 169906, Note_on_c, 4, 42, 127
1, 169906, Note_on_c, 4, 54, 127
1, 169914, Note_off_c, 2, 76, 64
1, 169915, Note_off_c, 4, 43, 64
1, 169916, Note_off_c, 4, 55, 64
1, 169949, Note_off_c, 1, 86, 64
1, 169951, Note_on_c, 1, 86, 126
1, 169997, Note_on_c, 2, 76, 127
1, 169998, Note_on_c, 4, 43, 127
1, 169998, Note_on_c, 4, 55, 127
1, 170006, Note_off_c, 2, 75, 64
1, 170007, Note_off_c, 4, 42, 64
1, 170008, Note_off_c, 4, 54, 64
1, 170041, Note_off_c, 1, 86, 64
1, 170043, Note_on_c, 1, 79, 126
1, 170049, Note_off_c, 2, 76, 64
1, 170088, Note_on_c, 1, 83, 122
1, 170095, Note_off_c, 1, 79, 64
1, 170130, Note_on_c, 1, 81, 122
1, 170137, Note_off_c, 1, 83, 64
1, 170176, Note_on_c, 1, 84, 122
1, 170184, Note_off_c, 1, 81, 64
1, 170218, Note_on_c, 1, 83, 122
1, 170226, Note_off_c, 1, 84, 64
1, 170262, Note_on_c, 1, 81, 122
1, 170268, Note_off_c, 1, 83, 64
1, 170304, Note_on_c, 1, 79, 126
1, 170312, Note_off_c, 1, 81, 64
1, 170343, Note_off_c, 4, 55, 64
1, 170343, Note_off_c, 4, 43, 64
1, 170350, Note_on_c, 4, 57, 127
1, 170350, Note_on_c, 1, 78, 126
1, 170351, Note_on_c, 4, 45, 127
1, 170356, Note_off_c, 1, 79, 64
1, 170397, Note_on_c, 1, 86, 126
1, 170443, Note_on_c, 2, 77, 127
1, 170444, Note_on_c, 4, 56, 127
1, 170444, Note_on_c, 4, 44, 127
1, 170450, Note_off_c, 1, 78, 64
1, 170452, Note_off_c, 4, 45, 64
1, 170453, Note_off_c, 4, 57, 64
1, 170488, Note_off_c, 1, 86, 64
1, 170490, Note_on_c, 1, 86, 126
1, 170536, Note_on_c, 4, 57, 127
1, 170536, Note_on_c, 1, 78, 126
1, 170537, Note_on_c, 4, 45, 127
1, 170544, Note_off_c, 2, 77, 64
1, 170546, Note_off_c, 4, 44, 64
1, 170547, Note_off_c, 4, 56, 64
1, 170580, Note_off_c, 1, 86, 64
1, 170584, Note_on_c, 1, 86, 126
1, 170630, Note_on_c, 4, 56, 127
1, 170630, Note_on_c, 2, 77, 127
1, 170631, Note_on_c, 4, 44, 127
1, 170637, Note_off_c, 1, 78, 64
1, 170640, Note_off_c, 4, 45, 64
1, 170641, Note_off_c, 4, 57, 64
1, 170674, Note_off_c, 1, 86, 64
1, 170676, Note_on_c, 1, 86, 126
1, 170722, Note_on_c, 1, 78, 126
1, 170723, Note_on_c, 4, 45, 127
1, 170723, Note_on_c, 4, 57, 127
1, 170729, Note_off_c, 2, 77, 64
1, 170733, Note_off_c, 4, 56, 64
1, 170733, Note_off_c, 4, 44, 64
1, 170766, Note_off_c, 1, 86, 64
1, 170768, Note_on_c, 1, 81, 122
1, 170776, Note_off_c, 1, 78, 64
1, 170812, Note_on_c, 1, 84, 122
1, 170820, Note_off_c, 1, 81, 64
1, 170856, Note_on_c, 1, 83, 122
1, 170865, Note_off_c, 1, 84, 64
1, 170900, Note_on_c, 1, 86, 126
1, 170907, Note_off_c, 1, 83, 64
1, 170944, Note_on_c, 1, 84, 122
1, 170952, Note_off_c, 1, 86, 64
1, 170990, Note_on_c, 1, 83, 122
1, 170996, Note_off_c, 1, 84, 64
1, 171034, Note_on_c, 1, 81, 122
1, 171042, Note_off_c, 1, 83, 64
1, 171072, Note_off_c, 4, 45, 64
1, 171073, Note_off_c, 4, 57, 64
1, 171081, Note_on_c, 1, 79, 126
1, 171082, Note_on_c, 4, 47, 127
1, 171082, Note_on_c, 4, 59, 126
1, 171088, Note_off_c, 1, 81, 64
1, 171126, Note_on_c, 1, 86, 126
1, 171173, Note_on_c, 1, 78, 126
1, 171174, Note_on_c, 4, 58, 122
1, 171174, Note_on_c, 4, 46, 127
1, 171182, Note_off_c, 1, 79, 64
1, 171184, Note_off_c, 4, 59, 64
1, 171184, Note_off_c, 4, 47, 64
1, 171217, Note_off_c, 1, 86, 64
1, 171221, Note_on_c, 1, 86, 126
1, 171268, Note_on_c, 4, 47, 127
1, 171268, Note_on_c, 4, 59, 126
1, 171268, Note_on_c, 1, 79, 126
1, 171274, Note_off_c, 1, 78, 64
1, 171278, Note_off_c, 4, 46, 64
1, 171278, Note_off_c, 4, 58, 64
1, 171312, Note_off_c, 1, 86, 64
1, 171314, Note_on_c, 1, 86, 126
1, 171361, Note_on_c, 1, 78, 126
1, 171362, Note_on_c, 4, 58, 122
1, 171362, Note_on_c, 4, 46, 127
1, 171368, Note_off_c, 1, 79, 64
1, 171370, Note_off_c, 4, 47, 64
1, 171371, Note_off_c, 4, 59, 64
1, 171404, Note_off_c, 1, 86, 64
1, 171406, Note_on_c, 1, 86, 126
1, 171452, Note_on_c, 1, 79, 126
1, 171453, Note_on_c, 4, 47, 127
1, 171453, Note_on_c, 4, 59, 126
1, 171460, Note_off_c, 1, 78, 64
1, 171461, Note_off_c, 4, 46, 64
1, 171461, Note_off_c, 4, 58, 64
1, 171495, Note_off_c, 1, 86, 64
1, 171497, Note_on_c, 1, 83, 122
1, 171504, Note_off_c, 1, 79, 64
1, 171539, Note_on_c, 1, 86, 126
1, 171546, Note_off_c, 1, 83, 64
1, 171583, Note_on_c, 1, 85, 126
1, 171590, Note_off_c, 1, 86, 64
1, 171628, Note_on_c, 1, 86, 126
1, 171636, Note_off_c, 1, 85, 64
1, 171671, Note_on_c, 1, 85, 126
1, 171679, Note_off_c, 1, 86, 64
1, 171717, Note_on_c, 1, 83, 122
1, 171725, Note_off_c, 1, 85, 64
1, 171761, Note_on_c, 1, 81, 122
1, 171769, Note_off_c, 1, 83, 64
1, 171792, Note_off_c, 4, 59, 64
1, 171800, Note_off_c, 4, 47, 64
1, 171807, Note_on_c, 1, 80, 126
1, 171808, Note_on_c, 4, 47, 127
1, 171808, Note_on_c, 4, 58, 105
1, 171814, Note_off_c, 1, 81, 64
1, 171852, Note_on_c, 4, 62, 116
1, 171896, Note_off_c, 4, 58, 64
1, 171896, Note_on_c, 2, 74, 127
1, 171897, Note_on_c, 4, 65, 113
1, 171902, Note_off_c, 1, 80, 64
1, 171941, Note_off_c, 4, 62, 64
1, 171941, Note_on_c, 2, 68, 117
1, 171984, Note_off_c, 4, 65, 64
1, 171984, Note_on_c, 4, 58, 117
1, 172027, Note_on_c, 4, 62, 120
1, 172050, Note_off_c, 2, 68, 64
1, 172071, Note_off_c, 4, 58, 64
1, 172072, Note_off_c, 2, 74, 64
1, 172072, Note_on_c, 2, 77, 127
1, 172073, Note_on_c, 4, 65, 117
1, 172114, Note_off_c, 4, 62, 64
1, 172114, Note_on_c, 2, 68, 117
1, 172159, Note_on_c, 4, 58, 117
1, 172182, Note_off_c, 4, 65, 64
1, 172203, Note_on_c, 4, 62, 120
1, 172224, Note_off_c, 2, 68, 64
1, 172247, Note_on_c, 2, 76, 127
1, 172248, Note_on_c, 4, 65, 117
1, 172251, Note_off_c, 2, 77, 64
1, 172271, Note_off_c, 4, 58, 64
1, 172291, Note_on_c, 2, 68, 117
1, 172315, Note_off_c, 4, 62, 64
1, 172337, Note_on_c, 4, 58, 117
1, 172360, Note_off_c, 4, 65, 64
1, 172383, Note_on_c, 4, 62, 120
1, 172406, Note_off_c, 2, 68, 64
1, 172428, Note_off_c, 2, 76, 64
1, 172428, Note_on_c, 2, 74, 127
1, 172428, Note_on_c, 4, 65, 121
1, 172451, Note_off_c, 4, 58, 64
1, 172472, Note_on_c, 2, 68, 121
1, 172479, Note_off_c, 4, 65, 64
1, 172495, Note_off_c, 4, 62, 64
1, 172516, Note_off_c, 2, 68, 64
1, 172520, Note_off_c, 2, 74, 64
1, 172520, Note_on_c, 2, 73, 127
1, 172521, Note_on_c, 4, 57, 123
1, 172521, Note_on_c, 2, 69, 121
1, 172606, Note_off_c, 4, 57, 64
1, 172612, Note_on_c, 4, 57, 123
1, 172698, Note_off_c, 4, 57, 64
1, 172706, Note_on_c, 4, 61, 115
1, 172706, Note_on_c, 4, 57, 123
1, 172728, Note_off_c, 2, 73, 64
1, 172730, Note_off_c, 2, 69, 64
1, 172790, Note_off_c, 4, 57, 64
1, 172790, Note_off_c, 4, 61, 64
1, 172799, Note_on_c, 2, 69, 127
1, 172800, Note_on_c, 4, 61, 115
1, 172800, Note_on_c, 4, 57, 123
1, 172884, Note_off_c, 4, 57, 64
1, 172885, Note_off_c, 4, 61, 64
1, 172885, Note_off_c, 2, 69, 64
1, 172891, Note_on_c, 2, 70, 127
1, 172892, Note_on_c, 4, 66, 127
1, 172892, Note_on_c, 4, 63, 116
1, 172893, Note_on_c, 4, 57, 123
1, 172953, Note_off_c, 4, 47, 64
1, 172976, Note_off_c, 4, 57, 64
1, 172976, Note_off_c, 4, 63, 64
1, 172980, Note_off_c, 2, 70, 64
1, 172984, Note_on_c, 2, 71, 127
1, 172985, Note_on_c, 4, 57, 123
1, 172985, Note_on_c, 4, 63, 116
1, 173066, Note_off_c, 4, 66, 64
1, 173070, Note_off_c, 4, 63, 64
1, 173070, Note_off_c, 4, 57, 64
1, 173076, Note_on_c, 2, 67, 127
1, 173077, Note_on_c, 4, 64, 115
1, 173077, Note_on_c, 4, 57, 123
1, 173155, Note_off_c, 2, 71, 64
1, 173163, Note_off_c, 4, 57, 64
1, 173163, Note_off_c, 4, 64, 64
1, 173170, Note_on_c, 2, 71, 127
1, 173170, Note_on_c, 4, 64, 115
1, 173171, Note_on_c, 4, 57, 126
1, 173250, Note_off_c, 2, 71, 64
1, 173256, Note_off_c, 4, 57, 64
1, 173256, Note_off_c, 4, 64, 64
1, 173257, Note_off_c, 2, 67, 64
1, 173263, Note_on_c, 4, 61, 118
1, 173263, Note_on_c, 2, 68, 127
1, 173264, Note_on_c, 4, 57, 126
1, 173349, Note_off_c, 4, 57, 64
1, 173350, Note_off_c, 4, 61, 64
1, 173356, Note_off_c, 2, 68, 64
1, 173356, Note_on_c, 2, 69, 127
1, 173357, Note_on_c, 4, 61, 118
1, 173357, Note_on_c, 4, 57, 126
1, 173440, Note_off_c, 4, 57, 64
1, 173441, Note_off_c, 4, 61, 64
1, 173449, Note_on_c, 4, 66, 127
1, 173450, Note_on_c, 4, 57, 126
1, 173450, Note_on_c, 4, 62, 120
1, 173533, Note_off_c, 4, 57, 64
1, 173534, Note_off_c, 2, 69, 64
1, 173534, Note_off_c, 4, 62, 64
1, 173540, Note_on_c, 2, 69, 127
1, 173541, Note_on_c, 4, 62, 120
1, 173541, Note_on_c, 4, 57, 126
1, 173628, Note_off_c, 4, 57, 64
1, 173628, Note_off_c, 4, 62, 64
1, 173630, Note_off_c, 2, 69, 64
1, 173634, Note_on_c, 2, 74, 127
1, 173635, Note_on_c, 4, 59, 118
1, 173635, Note_on_c, 4, 57, 126
1, 173721, Note_off_c, 4, 57, 64
1, 173721, Note_off_c, 4, 59, 64
1, 173725, Note_off_c, 4, 66, 64
1, 173727, Note_on_c, 2, 67, 127
1, 173728, Note_on_c, 4, 57, 126
1, 173728, Note_on_c, 4, 59, 118
1, 173752, Note_off_c, 2, 74, 64
1, 173814, Note_off_c, 4, 59, 64
1, 173814, Note_off_c, 4, 57, 64
1, 173820, Note_on_c, 4, 64, 115
1, 173821, Note_on_c, 4, 61, 118
1, 173821, Note_on_c, 4, 57, 126
1, 173907, Note_off_c, 4, 57, 64
1, 173907, Note_off_c, 2, 67, 64
1, 173908, Note_off_c, 4, 61, 64
1, 173908, Note_off_c, 4, 64, 64
1, 173915, Note_on_c, 4, 61, 118
1, 173915, Note_on_c, 2, 67, 127
1, 173916, Note_on_c, 4, 57, 126
1, 174000, Note_off_c, 4, 57, 64
1, 174000, Note_off_c, 4, 61, 64
1, 174007, Note_on_c, 4, 65, 127
1, 174008, Note_on_c, 4, 62, 120
1, 174008, Note_on_c, 4, 57, 126
1, 174009, Note_off_c, 2, 67, 64
1, 174094, Note_off_c, 4, 57, 64
1, 174094, Note_off_c, 4, 62, 64
1, 174098, Note_off_c, 4, 65, 64
1, 174100, Note_on_c, 4, 66, 127
1, 174101, Note_on_c, 4, 62, 120
1, 174101, Note_on_c, 4, 57, 126
1, 174186, Note_off_c, 4, 57, 64
1, 174186, Note_off_c, 4, 62, 64
1, 174192, Note_off_c, 4, 66, 64
1, 174194, Note_on_c, 4, 66, 127
1, 174195, Note_on_c, 4, 57, 126
1, 174280, Note_off_c, 4, 57, 64
1, 174285, Note_off_c, 4, 66, 64
1, 174288, Note_on_c, 1, 81, 126
1, 174288, Note_on_c, 4, 66, 127
1, 174288, Note_on_c, 4, 57, 126
1, 174373, Note_off_c, 4, 57, 64
1, 174378, Note_off_c, 4, 66, 64
1, 174381, Note_off_c, 1, 81, 64
1, 174381, Note_on_c, 1, 83, 126
1, 174382, Note_on_c, 4, 57, 127
1, 174382, Note_on_c, 2, 67, 127
1, 174429, Note_on_c, 1, 85, 126
1, 174436, Note_off_c, 1, 83, 64
1, 174477, Note_on_c, 1, 86, 126
1, 174484, Note_off_c, 1, 85, 64
1, 174523, Note_on_c, 1, 85, 126
1, 174530, Note_off_c, 1, 86, 64
1, 174566, Note_on_c, 1, 88, 127
1, 174574, Note_off_c, 1, 85, 64
1, 174610, Note_on_c, 1, 86, 126
1, 174618, Note_off_c, 1, 88, 64
1, 174654, Note_on_c, 1, 85, 126
1, 174662, Note_off_c, 1, 86, 64
1, 174699, Note_on_c, 1, 83, 126
1, 174707, Note_off_c, 1, 85, 64
1, 174735, Note_off_c, 2, 67, 64
1, 174744, Note_on_c, 1, 81, 126
1, 174744, Note_on_c, 4, 66, 126
1, 174752, Note_off_c, 1, 83, 64
1, 174789, Note_on_c, 1, 85, 126
1, 174796, Note_off_c, 1, 81, 64
1, 174835, Note_on_c, 1, 86, 126
1, 174842, Note_off_c, 1, 85, 64
1, 174879, Note_on_c, 1, 85, 126
1, 174887, Note_off_c, 1, 86, 64
1, 174925, Note_on_c, 4, 62, 127
1, 174925, Note_on_c, 1, 86, 126
1, 174928, Note_off_c, 4, 66, 64
1, 174932, Note_off_c, 1, 85, 64
1, 174970, Note_on_c, 1, 81, 126
1, 174978, Note_off_c, 1, 86, 64
1, 175015, Note_on_c, 1, 83, 126
1, 175023, Note_off_c, 1, 81, 64
1, 175061, Note_on_c, 1, 78, 126
1, 175067, Note_off_c, 1, 83, 64
1, 175105, Note_on_c, 1, 79, 126
1, 175106, Note_on_c, 4, 64, 124
1, 175110, Note_off_c, 4, 62, 64
1, 175112, Note_off_c, 1, 78, 64
1, 175149, Note_on_c, 1, 81, 126
1, 175156, Note_off_c, 1, 79, 64
1, 175193, Note_on_c, 1, 83, 126
1, 175200, Note_off_c, 1, 81, 64
1, 175237, Note_on_c, 1, 81, 126
1, 175245, Note_off_c, 1, 83, 64
1, 175281, Note_on_c, 1, 85, 126
1, 175282, Note_off_c, 4, 64, 64
1, 175282, Note_on_c, 4, 61, 127
1, 175288, Note_off_c, 1, 81, 64
1, 175326, Note_on_c, 1, 83, 126
1, 175334, Note_off_c, 1, 85, 64
1, 175370, Note_on_c, 1, 81, 126
1, 175378, Note_off_c, 1, 83, 64
1, 175416, Note_on_c, 1, 79, 126
1, 175422, Note_off_c, 1, 81, 64
1, 175461, Note_on_c, 1, 78, 126
1, 175468, Note_off_c, 1, 79, 64
1, 175505, Note_on_c, 1, 81, 126
1, 175512, Note_off_c, 1, 78, 64
1, 175549, Note_on_c, 1, 86, 126
1, 175557, Note_off_c, 1, 81, 64
1, 175595, Note_on_c, 1, 85, 126
1, 175603, Note_off_c, 1, 86, 64
1, 175641, Note_off_c, 4, 61, 64
1, 175642, Note_on_c, 1, 86, 126
1, 175648, Note_off_c, 1, 85, 64
1, 175686, Note_on_c, 1, 81, 126
1, 175730, Note_on_c, 1, 78, 126
1, 175731, Note_on_c, 4, 50, 127
1, 175731, Note_on_c, 4, 38, 127
1, 175776, Note_on_c, 2, 74, 125
1, 175818, Note_off_c, 1, 86, 64
1, 175822, Note_off_c, 4, 38, 64
1, 175822, Note_off_c, 4, 50, 64
1, 175823, Note_on_c, 1, 86, 126
1, 175823, Note_on_c, 4, 54, 127
1, 175824, Note_on_c, 4, 42, 127
1, 175863, Note_off_c, 1, 81, 64
1, 175867, Note_on_c, 1, 81, 126
1, 175882, Note_off_c, 4, 57, 64
1, 175907, Note_off_c, 1, 78, 64
1, 175911, Note_off_c, 4, 42, 64
1, 175911, Note_off_c, 4, 54, 64
1, 175912, Note_on_c, 4, 57, 127
1, 175912, Note_on_c, 1, 78, 126
1, 175913, Note_on_c, 4, 45, 127
1, 175949, Note_off_c, 2, 74, 64
1, 175955, Note_on_c, 2, 74, 125
1, 175995, Note_off_c, 1, 86, 64
1, 176001, Note_off_c, 4, 45, 64
1, 176002, Note_off_c, 4, 57, 64
1, 176002, Note_on_c, 1, 86, 126
1, 176003, Note_on_c, 4, 50, 127
1, 176003, Note_on_c, 4, 62, 125
1, 176040, Note_off_c, 1, 81, 64
1, 176046, Note_on_c, 1, 81, 126
1, 176087, Note_off_c, 1, 78, 64
1, 176090, Note_on_c, 1, 78, 126
1, 176127, Note_off_c, 2, 74, 64
1, 176135, Note_on_c, 2, 74, 125
1, 176143, Note_off_c, 1, 78, 64
1, 176173, Note_off_c, 1, 81, 64
1, 176175, Note_off_c, 1, 86, 64
1, 176179, Note_on_c, 1, 83, 126
1, 176225, Note_on_c, 1, 85, 126
1, 176233, Note_off_c, 1, 83, 64
1, 176269, Note_on_c, 1, 86, 126
1, 176277, Note_off_c, 1, 85, 64
1, 176314, Note_on_c, 1, 85, 126
1, 176321, Note_off_c, 1, 86, 64
1, 176359, Note_off_c, 4, 62, 64
1, 176360, Note_off_c, 4, 50, 64
1, 176360, Note_on_c, 1, 86, 126
1, 176366, Note_off_c, 1, 85, 64
1, 176403, Note_on_c, 1, 83, 126
1, 176449, Note_on_c, 1, 79, 126
1, 176449, Note_on_c, 4, 55, 127
1, 176450, Note_on_c, 4, 43, 127
1, 176486, Note_off_c, 2, 74, 64
1, 176494, Note_on_c, 2, 74, 125
1, 176534, Note_off_c, 1, 86, 64
1, 176540, Note_off_c, 4, 43, 64
1, 176541, Note_off_c, 4, 55, 64
1, 176541, Note_on_c, 1, 86, 126
1, 176541, Note_on_c, 4, 59, 126
1, 176542, Note_on_c, 4, 47, 127
1, 176579, Note_off_c, 1, 83, 64
1, 176585, Note_on_c, 1, 83, 126
1, 176625, Note_off_c, 1, 79, 64
1, 176629, Note_off_c, 4, 47, 64
1, 176630, Note_off_c, 4, 59, 64
1, 176630, Note_on_c, 1, 79, 126
1, 176631, Note_on_c, 4, 50, 127
1, 176631, Note_on_c, 4, 62, 125
1, 176666, Note_off_c, 2, 74, 64
1, 176674, Note_on_c, 2, 74, 125
1, 176714, Note_off_c, 1, 86, 64
1, 176718, Note_off_c, 4, 62, 64
1, 176718, Note_off_c, 4, 50, 64
1, 176719, Note_on_c, 2, 67, 122
1, 176719, Note_on_c, 1, 86, 126
1, 176720, Note_on_c, 4, 55, 127
1, 176759, Note_off_c, 1, 83, 64
1, 176763, Note_on_c, 1, 83, 126
1, 176803, Note_off_c, 1, 79, 64
1, 176807, Note_on_c, 1, 79, 126
1, 176844, Note_off_c, 2, 74, 64
1, 176851, Note_on_c, 2, 74, 124
1, 176889, Note_off_c, 4, 55, 64
1, 176891, Note_off_c, 1, 86, 64
1, 176896, Note_off_c, 1, 83, 64
1, 176897, Note_on_c, 1, 81, 121
1, 176897, Note_on_c, 1, 78, 121
1, 176898, Note_on_c, 4, 57, 127
1, 176898, Note_on_c, 4, 45, 127
1, 176904, Note_off_c, 1, 79, 64
1, 176981, Note_off_c, 4, 45, 64
1, 176981, Note_off_c, 4, 57, 64
1, 176988, Note_on_c, 4, 57, 127
1, 176988, Note_on_c, 4, 45, 127
1, 177038, Note_off_c, 1, 78, 64
1, 177039, Note_off_c, 1, 81, 64
1, 177039, Note_on_c, 1, 83, 108
1, 177040, Note_on_c, 1, 79, 108
1, 177065, Note_off_c, 1, 79, 64
1, 177077, Note_on_c, 1, 79, 108
1, 177077, Note_on_c, 2, 76, 111
1, 177084, Note_off_c, 1, 83, 64
1, 177084, Note_off_c, 2, 74, 64
1, 177090, Note_off_c, 2, 67, 64
1, 177091, Note_off_c, 4, 45, 64
1, 177091, Note_off_c, 4, 57, 64
1, 177098, Note_off_c, 1, 79, 64
1, 177098, Note_on_c, 1, 78, 108
1, 177099, Note_on_c, 4, 57, 127
1, 177099, Note_on_c, 2, 74, 121
1, 177100, Note_on_c, 4, 45, 127
1, 177106, Note_off_c, 2, 76, 64
1, 177180, Note_off_c, 4, 45, 64
1, 177181, Note_off_c, 4, 57, 64
1, 177187, Note_on_c, 4, 57, 127
1, 177188, Note_on_c, 4, 45, 127
1, 177271, Note_off_c, 4, 45, 64
1, 177271, Note_off_c, 4, 57, 64
1, 177279, Note_on_c, 4, 57, 127
1, 177280, Note_on_c, 4, 45, 127
1, 177340, Note_off_c, 1, 78, 64
1, 177340, Note_off_c, 2, 74, 64
1, 177363, Note_off_c, 4, 57, 64
1, 177363, Note_off_c, 4, 45, 64
1, 177370, Note_on_c, 1, 81, 126
1, 177370, Note_on_c, 1, 78, 126
1, 177371, Note_on_c, 4, 57, 127
1, 177371, Note_on_c, 4, 45, 127
1, 177458, Note_off_c, 4, 45, 64
1, 177459, Note_off_c, 4, 57, 64
1, 177466, Note_off_c, 1, 78, 64
1, 177466, Note_off_c, 1, 81, 64
1, 177467, Note_on_c, 1, 79, 126
1, 177467, Note_on_c, 2, 76, 127
1, 177468, Note_on_c, 4, 57, 127
1, 177468, Note_on_c, 4, 45, 127
1, 177557, Note_off_c, 4, 45, 64
1, 177557, Note_off_c, 4, 57, 64
1, 177564, Note_off_c, 2, 76, 64
1, 177564, Note_off_c, 1, 79, 64
1, 177565, Note_on_c, 4, 57, 127
1, 177565, Note_on_c, 2, 73, 127
1, 177565, Note_on_c, 2, 76, 127
1, 177566, Note_on_c, 4, 45, 127
1, 177659, Note_off_c, 2, 76, 64
1, 177659, Note_on_c, 1, 78, 126
1, 177704, Note_on_c, 1, 81, 126
1, 177710, Note_off_c, 1, 78, 64
1, 177749, Note_on_c, 1, 86, 126
1, 177755, Note_off_c, 1, 81, 64
1, 177795, Note_on_c, 1, 85, 126
1, 177801, Note_off_c, 1, 86, 64
1, 177840, Note_on_c, 1, 86, 126
1, 177848, Note_off_c, 1, 85, 64
1, 177858, Note_off_c, 4, 45, 64
1, 177860, Note_off_c, 4, 57, 64
1, 177884, Note_on_c, 1, 81, 126
1, 177930, Note_on_c, 1, 78, 126
1, 177931, Note_on_c, 4, 50, 127
1, 177931, Note_on_c, 4, 38, 127
1, 177960, Note_off_c, 2, 73, 64
1, 177975, Note_on_c, 2, 74, 125
1, 178016, Note_off_c, 1, 86, 64
1, 178020, Note_off_c, 4, 38, 64
1, 178020, Note_off_c, 4, 50, 64
1, 178020, Note_on_c, 1, 86, 126
1, 178021, Note_on_c, 4, 42, 127
1, 178021, Note_on_c, 4, 54, 127
1, 178060, Note_off_c, 1, 81, 64
1, 178064, Note_on_c, 1, 81, 126
1, 178105, Note_off_c, 1, 78, 64
1, 178109, Note_off_c, 4, 54, 64
1, 178109, Note_off_c, 4, 42, 64
1, 178110, Note_on_c, 1, 78, 126
1, 178110, Note_on_c, 4, 57, 127
1, 178111, Note_on_c, 4, 45, 127
1, 178145, Note_off_c, 2, 74, 64
1, 178153, Note_on_c, 2, 74, 125
1, 178193, Note_off_c, 1, 86, 64
1, 178198, Note_off_c, 4, 45, 64
1, 178198, Note_off_c, 4, 57, 64
1, 178198, Note_on_c, 1, 86, 126
1, 178199, Note_on_c, 4, 50, 127
1, 178199, Note_on_c, 4, 62, 125
1, 178237, Note_off_c, 1, 81, 64
1, 178241, Note_on_c, 1, 81, 126
1, 178282, Note_off_c, 1, 78, 64
1, 178287, Note_on_c, 1, 78, 126
1, 178324, Note_off_c, 2, 74, 64
1, 178332, Note_on_c, 2, 74, 125
1, 178372, Note_off_c, 1, 86, 64
1, 178376, Note_off_c, 1, 81, 64
1, 178377, Note_on_c, 1, 83, 126
1, 178382, Note_off_c, 1, 78, 64
1, 178421, Note_on_c, 1, 85, 126
1, 178428, Note_off_c, 1, 83, 64
1, 178465, Note_on_c, 1, 86, 126
1, 178471, Note_off_c, 1, 85, 64
1, 178511, Note_on_c, 1, 85, 126
1, 178517, Note_off_c, 1, 86, 64
1, 178548, Note_off_c, 4, 62, 64
1, 178548, Note_off_c, 4, 50, 64
1, 178555, Note_on_c, 1, 86, 126
1, 178562, Note_off_c, 1, 85, 64
1, 178601, Note_on_c, 1, 83, 126
1, 178645, Note_on_c, 1, 79, 126
1, 178645, Note_on_c, 4, 55, 127
1, 178646, Note_on_c, 4, 43, 127
1, 178683, Note_off_c, 2, 74, 64
1, 178691, Note_on_c, 2, 74, 125
1, 178731, Note_off_c, 1, 86, 64
1, 178735, Note_off_c, 4, 43, 64
1, 178735, Note_off_c, 4, 55, 64
1, 178736, Note_on_c, 4, 59, 126
1, 178736, Note_on_c, 1, 86, 126
1, 178737, Note_on_c, 4, 47, 127
1, 178775, Note_off_c, 1, 83, 64
1, 178779, Note_on_c, 1, 83, 126
1, 178819, Note_off_c, 1, 79, 64
1, 178824, Note_off_c, 4, 59, 64
1, 178824, Note_off_c, 4, 47, 64
1, 178824, Note_on_c, 1, 79, 126
1, 178825, Note_on_c, 4, 62, 125
1, 178825, Note_on_c, 4, 50, 127
1, 178862, Note_off_c, 2, 74, 64
1, 178868, Note_on_c, 2, 74, 125
1, 178908, Note_off_c, 1, 86, 64
1, 178913, Note_off_c, 4, 50, 64
1, 178913, Note_off_c, 4, 62, 64
1, 178914, Note_on_c, 2, 67, 122
1, 178914, Note_on_c, 4, 55, 127
1, 178914, Note_on_c, 1, 86, 126
1, 178953, Note_off_c, 1, 83, 64
1, 178957, Note_on_c, 1, 83, 126
1, 178997, Note_off_c, 1, 79, 64
1, 179001, Note_on_c, 1, 79, 126
1, 179040, Note_off_c, 2, 74, 64
1, 179047, Note_on_c, 2, 74, 124
1, 179084, Note_off_c, 4, 55, 64
1, 179085, Note_off_c, 1, 86, 64
1, 179091, Note_off_c, 1, 83, 64
1, 179092, Note_on_c, 1, 81, 121
1, 179092, Note_on_c, 1, 78, 121
1, 179093, Note_on_c, 4, 57, 127
1, 179093, Note_on_c, 4, 45, 127
1, 179100, Note_off_c, 1, 79, 64
1, 179176, Note_off_c, 4, 45, 64
1, 179176, Note_off_c, 4, 57, 64
1, 179183, Note_on_c, 4, 45, 127
1, 179183, Note_on_c, 4, 57, 127
1, 179233, Note_off_c, 1, 81, 64
1, 179234, Note_on_c, 1, 83, 108
1, 179234, Note_on_c, 1, 79, 108
1, 179235, Note_off_c, 1, 78, 64
1, 179256, Note_off_c, 1, 79, 64
1, 179270, Note_off_c, 2, 74, 64
1, 179270, Note_on_c, 1, 79, 108
1, 179271, Note_on_c, 2, 76, 111
1, 179280, Note_off_c, 1, 83, 64
1, 179288, Note_off_c, 4, 45, 64
1, 179289, Note_off_c, 4, 57, 64
1, 179295, Note_off_c, 1, 79, 64
1, 179295, Note_off_c, 2, 67, 64
1, 179296, Note_on_c, 2, 74, 121
1, 179296, Note_on_c, 1, 78, 108
1, 179297, Note_on_c, 4, 57, 127
1, 179297, Note_on_c, 4, 45, 127
1, 179304, Note_off_c, 2, 76, 64
1, 179381, Note_off_c, 4, 45, 64
1, 179381, Note_off_c, 4, 57, 64
1, 179388, Note_on_c, 4, 57, 127
1, 179388, Note_on_c, 4, 45, 127
1, 179473, Note_off_c, 4, 45, 64
1, 179474, Note_off_c, 4, 57, 64
1, 179482, Note_on_c, 4, 57, 127
1, 179483, Note_on_c, 4, 45, 127
1, 179544, Note_off_c, 2, 74, 64
1, 179545, Note_off_c, 1, 78, 64
1, 179568, Note_off_c, 4, 45, 64
1, 179569, Note_off_c, 4, 57, 64
1, 179577, Note_on_c, 1, 81, 126
1, 179578, Note_on_c, 1, 78, 126
1, 179578, Note_on_c, 4, 57, 127
1, 179579, Note_on_c, 4, 45, 127
1, 179664, Note_off_c, 4, 45, 64
1, 179664, Note_off_c, 4, 57, 64
1, 179670, Note_off_c, 1, 78, 64
1, 179671, Note_off_c, 1, 81, 64
1, 179671, Note_on_c, 1, 79, 126
1, 179672, Note_on_c, 2, 76, 127
1, 179672, Note_on_c, 4, 57, 127
1, 179673, Note_on_c, 4, 45, 127
1, 179756, Note_off_c, 4, 45, 64
1, 179756, Note_off_c, 2, 76, 64
1, 179757, Note_off_c, 4, 57, 64
1, 179762, Note_off_c, 1, 79, 64
1, 179763, Note_on_c, 2, 76, 127
1, 179763, Note_on_c, 2, 73, 127
1, 179764, Note_on_c, 4, 57, 127
1, 179764, Note_on_c, 4, 45, 127
1, 179854, Note_off_c, 2, 73, 64
1, 179854, Note_off_c, 2, 76, 64
1, 179855, Note_off_c, 4, 45, 64
1, 179855, Note_off_c, 4, 57, 64
1, 179856, Note_on_c, 2, 74, 127
1, 179856, Note_on_c, 4, 62, 127
1, 179987, Note_off_c, 4, 62, 64
1, 179991, Note_on_c, 4, 64, 119
1, 179991, Note_on_c, 2, 76, 124
1, 179998, Note_off_c, 2, 74, 64
1, 180017, Note_on_c, 2, 73, 124
1, 180017, Note_on_c, 4, 61, 125
1, 180039, Note_off_c, 2, 76, 64
1, 180039, Note_off_c, 4, 64, 64
1, 180049, Note_on_c, 2, 71, 123
1, 180050, Note_on_c, 4, 59, 125
1, 180070, Note_off_c, 4, 61, 64
1, 180070, Note_off_c, 2, 73, 64
1, 180168, Note_off_c, 4, 59, 64
1, 180186, Note_off_c, 2, 71, 64
1, 180188, Note_on_c, 2, 73, 124
1, 180188, Note_on_c, 4, 61, 125
1, 180214, Note_on_c, 4, 57, 127
1, 180214, Note_on_c, 2, 69, 121
1, 180236, Note_off_c, 4, 61, 64
1, 180236, Note_off_c, 2, 73, 64
1, 180246, Note_on_c, 2, 67, 121
1, 180247, Note_on_c, 4, 55, 127
1, 180264, Note_off_c, 4, 57, 64
1, 180265, Note_off_c, 2, 69, 64
1, 180379, Note_off_c, 4, 55, 64
1, 180379, Note_off_c, 2, 67, 64
1, 180384, Note_on_c, 2, 69, 121
1, 180384, Note_on_c, 4, 57, 127
1, 180409, Note_on_c, 4, 66, 121
1, 180410, Note_on_c, 4, 54, 127
1, 180433, Note_off_c, 4, 57, 64
1, 180434, Note_off_c, 2, 69, 64
1, 180444, Note_on_c, 4, 52, 127
1, 180444, Note_on_c, 4, 64, 119
1, 180460, Note_off_c, 4, 54, 64
1, 180461, Note_off_c, 4, 66, 64
1, 180571, Note_off_c, 4, 52, 64
1, 180575, Note_off_c, 4, 64, 64
1, 180576, Note_on_c, 4, 66, 126
1, 180577, Note_on_c, 4, 54, 127
1, 180602, Note_on_c, 4, 62, 127
1, 180603, Note_on_c, 4, 50, 127
1, 180626, Note_off_c, 4, 54, 64
1, 180627, Note_off_c, 4, 66, 64
1, 180639, Note_on_c, 4, 49, 127
1, 180639, Note_on_c, 4, 61, 127
1, 180653, Note_off_c, 4, 50, 64
1, 180654, Note_off_c, 4, 62, 64
1, 180821, Note_on_c, 2, 69, 126
1, 180833, Note_on_c, 2, 73, 127
1, 180842, Note_on_c, 2, 76, 127
1, 180854, Note_on_c, 1, 79, 126
1, 181018, Note_off_c, 4, 61, 64
1, 181018, Note_off_c, 4, 49, 64
1, 181019, Note_on_c, 4, 50, 127
1, 181019, Note_on_c, 4, 62, 127
1, 181116, Note_off_c, 2, 69, 64
1, 181127, Note_off_c, 2, 73, 64
1, 181137, Note_off_c, 2, 76, 64
1, 181148, Note_off_c, 1, 79, 64
1, 181208, Note_on_c, 4, 66, 126
1, 181219, Note_on_c, 2, 69, 126
1, 181230, Note_on_c, 2, 74, 127
1, 181242, Note_on_c, 1, 78, 126
1, 181390, Note_off_c, 4, 62, 64
1, 181396, Note_off_c, 4, 50, 64
1, 181396, Note_on_c, 4, 62, 127
1, 181397, Note_on_c, 4, 55, 127
1, 181441, Note_off_c, 4, 66, 64
1, 181452, Note_off_c, 2, 69, 64
1, 181462, Note_off_c, 2, 74, 64
1, 181473, Note_off_c, 1, 78, 64
1, 181489, Note_on_c, 2, 71, 127
1, 181583, Note_on_c, 2, 70, 127
1, 181592, Note_off_c, 2, 71, 64
1, 181673, Note_on_c, 2, 71, 127
1, 181682, Note_off_c, 2, 70, 64
1, 181769, Note_off_c, 4, 55, 64
1, 181770, Note_off_c, 4, 62, 64
1, 181770, Note_on_c, 4, 65, 126
1, 181771, Note_on_c, 4, 56, 127
1, 181860, Note_off_c, 2, 71, 64
1, 181860, Note_on_c, 2, 74, 127
1, 181956, Note_on_c, 2, 73, 127
1, 181966, Note_off_c, 2, 74, 64
1, 182051, Note_on_c, 2, 74, 127
1, 182060, Note_off_c, 2, 73, 64
1, 182145, Note_off_c, 4, 65, 64
1, 182145, Note_off_c, 4, 56, 64
1, 182146, Note_on_c, 2, 69, 127
1, 182146, Note_on_c, 4, 57, 127
1, 182154, Note_off_c, 2, 74, 64
1, 182192, Note_on_c, 4, 66, 126
1, 182238, Note_on_c, 4, 62, 127
1, 182276, Note_off_c, 4, 66, 64
1, 182284, Note_on_c, 4, 66, 126
1, 182298, Note_off_c, 4, 57, 64
1, 182329, Note_on_c, 4, 57, 127
1, 182367, Note_off_c, 4, 66, 64
1, 182375, Note_on_c, 4, 66, 126
1, 182390, Note_off_c, 4, 62, 64
1, 182421, Note_on_c, 4, 62, 127
1, 182454, Note_off_c, 2, 69, 64
1, 182458, Note_off_c, 4, 66, 64
1, 182465, Note_on_c, 4, 66, 126
1, 182481, Note_off_c, 4, 57, 64
1, 182511, Note_on_c, 1, 78, 108
1, 182512, Note_on_c, 4, 57, 127
1, 182553, Note_on_c, 2, 76, 111
1, 182558, Note_off_c, 1, 78, 64
1, 182559, Note_off_c, 4, 66, 64
1, 182567, Note_on_c, 2, 67, 126
1, 182584, Note_off_c, 4, 62, 64
1, 182588, Note_on_c, 1, 78, 100
1, 182598, Note_off_c, 2, 76, 64
1, 182619, Note_on_c, 4, 61, 127
1, 182625, Note_on_c, 2, 76, 107
1, 182630, Note_off_c, 1, 78, 64
1, 182654, Note_on_c, 1, 78, 100
1, 182660, Note_off_c, 2, 67, 64
1, 182668, Note_off_c, 2, 76, 64
1, 182670, Note_on_c, 2, 67, 126
1, 182687, Note_off_c, 4, 57, 64
1, 182691, Note_on_c, 2, 76, 107
1, 182697, Note_off_c, 1, 78, 64
1, 182722, Note_on_c, 4, 57, 127
1, 182725, Note_on_c, 1, 78, 100
1, 182733, Note_off_c, 2, 76, 64
1, 182756, Note_on_c, 2, 76, 111
1, 182764, Note_off_c, 2, 67, 64
1, 182768, Note_off_c, 1, 78, 64
1, 182772, Note_on_c, 2, 67, 126
1, 182789, Note_off_c, 4, 61, 64
1, 182793, Note_on_c, 1, 78, 107
1, 182800, Note_off_c, 2, 76, 64
1, 182825, Note_on_c, 4, 61, 127
1, 182831, Note_on_c, 2, 76, 111
1, 182837, Note_off_c, 1, 78, 64
1, 182868, Note_off_c, 2, 67, 64
1, 182868, Note_on_c, 2, 74, 115
1, 182874, Note_off_c, 2, 76, 64
1, 182876, Note_on_c, 2, 67, 126
1, 182895, Note_off_c, 4, 57, 64
1, 182896, Note_on_c, 2, 76, 115
1, 182903, Note_off_c, 2, 74, 64
1, 182928, Note_off_c, 4, 61, 64
1, 182928, Note_on_c, 2, 74, 115
1, 182929, Note_on_c, 4, 62, 127
1, 182929, Note_on_c, 4, 50, 127
1, 182930, Note_off_c, 2, 76, 64
1, 182968, Note_off_c, 2, 67, 64
1, 182976, Note_on_c, 1, 78, 127
1, 182984, Note_off_c, 2, 74, 64
1, 183023, Note_on_c, 2, 74, 127
1, 183031, Note_off_c, 1, 78, 64
1, 183069, Note_on_c, 2, 73, 127
1, 183077, Note_off_c, 2, 74, 64
1, 183115, Note_on_c, 2, 71, 127
1, 183116, Note_on_c, 4, 47, 127
1, 183116, Note_on_c, 4, 59, 127
1, 183119, Note_off_c, 4, 50, 64
1, 183120, Note_off_c, 4, 62, 64
1, 183122, Note_off_c, 2, 73, 64
1, 183160, Note_on_c, 2, 74, 127
1, 183168, Note_off_c, 2, 71, 64
1, 183208, Note_on_c, 2, 71, 127
1, 183216, Note_off_c, 2, 74, 64
1, 183254, Note_on_c, 2, 69, 126
1, 183262, Note_off_c, 2, 71, 64
1, 183300, Note_on_c, 2, 67, 126
1, 183301, Note_on_c, 4, 43, 127
1, 183301, Note_on_c, 4, 55, 127
1, 183304, Note_off_c, 4, 47, 64
1, 183305, Note_off_c, 4, 59, 64
1, 183308, Note_off_c, 2, 69, 64
1, 183348, Note_on_c, 2, 71, 127
1, 183356, Note_off_c, 2, 67, 64
1, 183394, Note_on_c, 2, 67, 126
1, 183402, Note_off_c, 2, 71, 64
1, 183440, Note_on_c, 4, 66, 126
1, 183448, Note_off_c, 2, 67, 64
1, 183486, Note_on_c, 4, 64, 124
1, 183487, Note_on_c, 4, 40, 127
1, 183487, Note_on_c, 4, 52, 127
1, 183491, Note_off_c, 4, 55, 64
1, 183491, Note_off_c, 4, 43, 64
1, 183494, Note_off_c, 4, 66, 64
1, 183532, Note_on_c, 2, 67, 126
1, 183540, Note_off_c, 4, 64, 64
1, 183578, Note_on_c, 4, 64, 124
1, 183586, Note_off_c, 2, 67, 64
1, 183624, Note_on_c, 4, 62, 127
1, 183632, Note_off_c, 4, 64, 64
1, 183664, Note_off_c, 4, 40, 64
1, 183665, Note_off_c, 4, 52, 64
1, 183667, Note_off_c, 4, 62, 64
1, 183670, Note_on_c, 4, 49, 127
1, 183670, Note_on_c, 4, 61, 127
1, 183671, Note_on_c, 4, 37, 127
1, 183807, Note_on_c, 2, 69, 126
1, 183828, Note_on_c, 2, 76, 127
1, 183851, Note_on_c, 1, 79, 126
1, 183897, Note_off_c, 2, 69, 64
1, 183912, Note_off_c, 4, 37, 64
1, 183913, Note_off_c, 4, 61, 64
1, 183913, Note_off_c, 4, 49, 64
1, 183919, Note_off_c, 2, 76, 64
1, 183936, Note_off_c, 1, 79, 64
1, 183943, Note_on_c, 1, 79, 126
1, 183989, Note_on_c, 4, 61, 127
1, 183990, Note_on_c, 4, 49, 127
1, 184036, Note_on_c, 4, 62, 127
1, 184037, Note_on_c, 4, 50, 127
1, 184041, Note_off_c, 4, 49, 64
1, 184042, Note_off_c, 4, 61, 64
1, 184073, Note_off_c, 1, 79, 64
1, 184173, Note_on_c, 2, 69, 126
1, 184196, Note_on_c, 2, 74, 127
1, 184219, Note_on_c, 1, 78, 126
1, 184263, Note_off_c, 2, 69, 64
1, 184278, Note_off_c, 4, 50, 64
1, 184279, Note_off_c, 4, 62, 64
1, 184287, Note_off_c, 2, 74, 64
1, 184302, Note_off_c, 1, 78, 64
1, 184310, Note_on_c, 1, 78, 126
1, 184356, Note_on_c, 4, 62, 127
1, 184356, Note_on_c, 4, 50, 127
1, 184401, Note_on_c, 4, 55, 127
1, 184402, Note_on_c, 4, 43, 127
1, 184404, Note_off_c, 4, 50, 64
1, 184404, Note_off_c, 4, 62, 64
1, 184432, Note_off_c, 1, 78, 64
1, 184496, Note_on_c, 1, 83, 126
1, 184497, Note_on_c, 2, 71, 127
1, 184591, Note_on_c, 1, 82, 126
1, 184592, Note_on_c, 2, 70, 126
1, 184598, Note_off_c, 1, 83, 64
1, 184598, Note_off_c, 2, 71, 64
1, 184682, Note_on_c, 1, 83, 126
1, 184683, Note_on_c, 2, 71, 127
1, 184691, Note_off_c, 2, 70, 64
1, 184692, Note_off_c, 1, 82, 64
1, 184775, Note_on_c, 2, 70, 126
1, 184775, Note_on_c, 1, 82, 126
1, 184783, Note_off_c, 2, 71, 64
1, 184784, Note_off_c, 1, 83, 64
1, 184869, Note_on_c, 1, 83, 126
1, 184870, Note_on_c, 2, 71, 127
1, 184878, Note_off_c, 2, 70, 64
1, 184879, Note_off_c, 1, 82, 64
1, 184962, Note_on_c, 2, 73, 127
1, 184962, Note_on_c, 1, 85, 126
1, 184970, Note_off_c, 2, 71, 64
1, 184971, Note_off_c, 1, 83, 64
1, 185053, Note_on_c, 1, 86, 126
1, 185054, Note_on_c, 2, 74, 127
1, 185061, Note_off_c, 1, 85, 64
1, 185061, Note_off_c, 2, 73, 64
1, 185136, Note_off_c, 4, 43, 64
1, 185137, Note_off_c, 4, 55, 64
1, 185143, Note_on_c, 4, 65, 126
1, 185144, Note_on_c, 4, 56, 127
1, 185144, Note_on_c, 4, 59, 127
1, 185232, Note_off_c, 2, 74, 64
1, 185232, Note_off_c, 1, 86, 64
1, 185236, Note_on_c, 1, 86, 126
1, 185237, Note_on_c, 2, 74, 127
1, 185331, Note_on_c, 1, 85, 126
1, 185332, Note_on_c, 2, 73, 127
1, 185340, Note_off_c, 1, 86, 64
1, 185340, Note_off_c, 2, 74, 64
1, 185421, Note_on_c, 2, 74, 127
1, 185421, Note_on_c, 1, 86, 126
1, 185429, Note_off_c, 2, 73, 64
1, 185430, Note_off_c, 1, 85, 64
1, 185517, Note_on_c, 2, 73, 127
1, 185517, Note_on_c, 1, 85, 126
1, 185525, Note_off_c, 2, 74, 64
1, 185526, Note_off_c, 1, 86, 64
1, 185613, Note_on_c, 1, 86, 126
1, 185613, Note_on_c, 2, 74, 127
1, 185619, Note_off_c, 2, 73, 64
1, 185620, Note_off_c, 1, 85, 64
1, 185703, Note_on_c, 2, 76, 127
1, 185703, Note_on_c, 1, 88, 127
1, 185712, Note_off_c, 2, 74, 64
1, 185712, Note_off_c, 1, 86, 64
1, 185796, Note_on_c, 1, 89, 127
1, 185796, Note_on_c, 2, 77, 127
1, 185804, Note_off_c, 2, 76, 64
1, 185805, Note_off_c, 1, 88, 64
1, 185878, Note_off_c, 4, 56, 64
1, 185879, Note_off_c, 4, 65, 64
1, 185879, Note_off_c, 4, 59, 64
1, 185887, Note_on_c, 4, 57, 127
1, 185887, Note_on_c, 1, 81, 122
1, 185893, Note_off_c, 2, 77, 64
1, 185894, Note_off_c, 1, 89, 64
1, 185933, Note_on_c, 4, 66, 126
1, 185933, Note_on_c, 1, 86, 122
1, 185940, Note_off_c, 1, 81, 64
1, 185976, Note_on_c, 4, 62, 127
1, 185976, Note_on_c, 1, 81, 122
1, 185985, Note_off_c, 1, 86, 64
1, 186012, Note_off_c, 4, 66, 64
1, 186019, Note_on_c, 1, 78, 122
1, 186019, Note_on_c, 4, 66, 126
1, 186026, Note_off_c, 1, 81, 64
1, 186034, Note_off_c, 4, 57, 64
1, 186057, Note_off_c, 1, 78, 64
1, 186062, Note_on_c, 1, 78, 122
1, 186063, Note_on_c, 4, 57, 127
1, 186100, Note_off_c, 4, 66, 64
1, 186108, Note_on_c, 1, 81, 122
1, 186108, Note_on_c, 4, 66, 126
1, 186114, Note_off_c, 1, 78, 64
1, 186124, Note_off_c, 4, 62, 64
1, 186153, Note_on_c, 4, 62, 127
1, 186153, Note_on_c, 1, 78, 122
1, 186161, Note_off_c, 1, 81, 64
1, 186189, Note_off_c, 4, 66, 64
1, 186198, Note_on_c, 4, 66, 126
1, 186198, Note_on_c, 2, 74, 125
1, 186204, Note_off_c, 1, 78, 64
1, 186210, Note_off_c, 4, 57, 64
1, 186241, Note_on_c, 1, 81, 122
1, 186241, Note_on_c, 4, 57, 127
1, 186248, Note_off_c, 2, 74, 64
1, 186276, Note_off_c, 4, 66, 64
1, 186284, Note_on_c, 1, 86, 122
1, 186285, Note_on_c, 4, 66, 126
1, 186293, Note_off_c, 1, 81, 64
1, 186300, Note_off_c, 4, 62, 64
1, 186330, Note_on_c, 1, 81, 122
1, 186331, Note_on_c, 4, 62, 127
1, 186337, Note_off_c, 1, 86, 64
1, 186366, Note_off_c, 4, 66, 64
1, 186372, Note_on_c, 1, 78, 122
1, 186372, Note_on_c, 4, 66, 126
1, 186380, Note_off_c, 1, 81, 64
1, 186386, Note_off_c, 4, 57, 64
1, 186409, Note_off_c, 1, 78, 64
1, 186417, Note_on_c, 4, 57, 127
1, 186417, Note_on_c, 1, 78, 122
1, 186454, Note_off_c, 4, 66, 64
1, 186456, Note_off_c, 1, 78, 64
1, 186462, Note_on_c, 4, 66, 126
1, 186462, Note_on_c, 1, 81, 122
1, 186476, Note_off_c, 4, 62, 64
1, 186501, Note_off_c, 1, 81, 64
1, 186505, Note_on_c, 1, 78, 122
1, 186505, Note_on_c, 4, 62, 127
1, 186542, Note_off_c, 4, 66, 64
1, 186546, Note_off_c, 1, 78, 64
1, 186550, Note_on_c, 2, 74, 125
1, 186551, Note_on_c, 4, 66, 126
1, 186564, Note_off_c, 4, 57, 64
1, 186593, Note_off_c, 2, 74, 64
1, 186597, Note_on_c, 1, 78, 118
1, 186598, Note_on_c, 4, 57, 127
1, 186650, Note_off_c, 4, 66, 64
1, 186650, Note_on_c, 2, 76, 121
1, 186659, Note_on_c, 2, 67, 126
1, 186676, Note_off_c, 1, 78, 64
1, 186678, Note_off_c, 4, 62, 64
1, 186689, Note_on_c, 1, 78, 118
1, 186714, Note_on_c, 4, 61, 127
1, 186720, Note_off_c, 2, 76, 64
1, 186730, Note_on_c, 2, 76, 117
1, 186739, Note_off_c, 1, 78, 64
1, 186760, Note_off_c, 2, 67, 64
1, 186770, Note_on_c, 1, 78, 114
1, 186770, Note_on_c, 2, 67, 126
1, 186779, Note_off_c, 2, 76, 64
1, 186786, Note_off_c, 4, 57, 64
1, 186809, Note_on_c, 2, 76, 117
1, 186821, Note_off_c, 1, 78, 64
1, 186825, Note_on_c, 4, 57, 127
1, 186844, Note_on_c, 1, 78, 114
1, 186859, Note_off_c, 2, 76, 64
1, 186867, Note_off_c, 2, 67, 64
1, 186876, Note_on_c, 2, 67, 126
1, 186884, Note_on_c, 2, 76, 117
1, 186894, Note_off_c, 1, 78, 64
1, 186894, Note_off_c, 4, 61, 64
1, 186924, Note_on_c, 1, 78, 114
1, 186931, Note_on_c, 4, 61, 127
1, 186933, Note_off_c, 2, 76, 64
1, 186962, Note_on_c, 2, 76, 117
1, 186972, Note_off_c, 1, 78, 64
1, 186973, Note_off_c, 2, 67, 64
1, 186981, Note_on_c, 2, 67, 126
1, 186998, Note_off_c, 4, 57, 64
1, 186999, Note_on_c, 1, 78, 114
1, 187009, Note_off_c, 2, 76, 64
1, 187032, Note_on_c, 4, 57, 127
1, 187044, Note_on_c, 2, 76, 117
1, 187047, Note_off_c, 1, 78, 64
1, 187076, Note_off_c, 2, 67, 64
1, 187082, Note_on_c, 1, 78, 114
1, 187084, Note_on_c, 2, 67, 126
1, 187092, Note_off_c, 2, 76, 64
1, 187103, Note_off_c, 4, 61, 64
1, 187120, Note_on_c, 2, 76, 117
1, 187130, Note_off_c, 1, 78, 64
1, 187136, Note_on_c, 4, 61, 127
1, 187161, Note_on_c, 1, 78, 114
1, 187166, Note_off_c, 2, 76, 64
1, 187178, Note_off_c, 2, 67, 64
1, 187188, Note_on_c, 2, 67, 126
1, 187193, Note_on_c, 2, 76, 117
1, 187203, Note_off_c, 4, 57, 64
1, 187207, Note_off_c, 1, 78, 64
1, 187236, Note_on_c, 1, 78, 114
1, 187237, Note_on_c, 4, 57, 127
1, 187241, Note_off_c, 2, 76, 64
1, 187272, Note_on_c, 2, 76, 117
1, 187280, Note_off_c, 2, 67, 64
1, 187282, Note_off_c, 1, 78, 64
1, 187289, Note_on_c, 2, 67, 126
1, 187305, Note_off_c, 4, 61, 64
1, 187312, Note_on_c, 1, 78, 114
1, 187318, Note_off_c, 2, 76, 64
1, 187337, Note_on_c, 4, 61, 127
1, 187341, Note_on_c, 2, 76, 117
1, 187356, Note_off_c, 1, 78, 64
1, 187378, Note_off_c, 2, 67, 64
1, 187385, Note_off_c, 2, 76, 64
1, 187386, Note_on_c, 2, 67, 126
1, 187386, Note_on_c, 2, 74, 121
1, 187404, Note_off_c, 4, 57, 64
1, 187411, Note_on_c, 2, 76, 121
1, 187421, Note_off_c, 2, 74, 64
1, 187436, Note_off_c, 4, 61, 64
1, 187437, Note_on_c, 4, 62, 127
1, 187437, Note_on_c, 2, 74, 121
1, 187438, Note_on_c, 4, 50, 127
1, 187444, Note_off_c, 2, 76, 64
1, 187475, Note_off_c, 2, 67, 64
1, 187684, Note_off_c, 4, 62, 64
1, 187684, Note_off_c, 4, 50, 64
1, 187712, Note_off_c, 2, 74, 64
1, 187716, Note_on_c, 4, 66, 126
1, 187716, Note_on_c, 4, 54, 127
1, 187761, Note_on_c, 4, 62, 127
1, 187761, Note_on_c, 4, 50, 127
1, 187770, Note_off_c, 4, 54, 64
1, 187770, Note_off_c, 4, 66, 64
1, 187809, Note_on_c, 2, 67, 126
1, 187809, Note_on_c, 4, 55, 127
1, 187815, Note_off_c, 4, 62, 64
1, 187816, Note_off_c, 4, 50, 64
1, 187890, Note_off_c, 4, 55, 64
1, 187900, Note_off_c, 2, 67, 64
1, 187902, Note_on_c, 4, 64, 124
1, 187904, Note_on_c, 4, 52, 127
1, 187950, Note_off_c, 4, 64, 64
1, 187951, Note_off_c, 4, 52, 64
1, 187951, Note_on_c, 4, 61, 127
1, 187951, Note_on_c, 4, 49, 127
1, 187998, Note_off_c, 4, 61, 64
1, 187998, Note_on_c, 4, 62, 127
1, 187999, Note_off_c, 4, 49, 64
1, 187999, Note_on_c, 4, 50, 127
1, 188087, Note_off_c, 4, 50, 64
1, 188091, Note_off_c, 4, 62, 64
1, 188097, Note_on_c, 4, 59, 127
1, 188098, Note_on_c, 4, 47, 127
1, 188148, Note_off_c, 4, 47, 64
1, 188148, Note_off_c, 4, 59, 64
1, 188148, Note_on_c, 4, 56, 127
1, 188149, Note_on_c, 4, 44, 127
1, 188194, Note_off_c, 4, 44, 64
1, 188195, Note_off_c, 4, 56, 64
1, 188195, Note_on_c, 4, 57, 127
1, 188195, Note_on_c, 4, 45, 127
1, 188378, Note_off_c, 4, 45, 64
1, 188380, Note_off_c, 4, 57, 64
1, 188390, Note_on_c, 4, 45, 127
1, 188390, Note_on_c, 4, 57, 127
1, 188390, Note_on_c, 2, 76, 127
1, 188410, Note_on_c, 1, 81, 126
1, 188427, Note_on_c, 1, 85, 126
1, 188607, Note_off_c, 4, 57, 64
1, 188607, Note_off_c, 4, 45, 64
1, 188608, Note_off_c, 2, 76, 64
1, 188619, Note_off_c, 1, 81, 64
1, 188624, Note_on_c, 4, 50, 127
1, 188624, Note_on_c, 2, 74, 127
1, 188625, Note_on_c, 4, 38, 127
1, 188636, Note_off_c, 1, 85, 64
1, 188640, Note_on_c, 1, 78, 126
1, 188660, Note_on_c, 1, 81, 126
1, 188679, Note_on_c, 1, 86, 126
1, 191783, Note_off_c, 4, 38, 64
1, 191784, Note_off_c, 2, 74, 64
1, 191784, Note_off_c, 4, 50, 64
1, 191825, Note_off_c, 1, 78, 64
1, 191869, Note_off_c, 1, 81, 64
1, 191911, Note_off_c, 1, 86, 64
1, 192401, Note_on_c, 2, 69, 99
1, 192402, Note_on_c, 4, 57, 108
1, 192402, Note_on_c, 4, 61, 106
1, 192916, Note_off_c, 4, 57, 64
1, 192920, Note_off_c, 2, 69, 64
1, 192920, Note_off_c, 4, 61, 64
1, 192927, Note_on_c, 2, 71, 127
1, 192928, Note_on_c, 4, 52, 127
1, 192928, Note_on_c, 4, 62, 127
1, 193104, Note_off_c, 2, 71, 64
1, 193115, Note_on_c, 2, 68, 126
1, 193155, Note_off_c, 4, 52, 64
1, 193156, Note_off_c, 4, 62, 64
1, 193176, Note_off_c, 2, 68, 64
1, 193176, Note_on_c, 4, 61, 127
1, 193176, Note_on_c, 2, 69, 126
1, 193177, Note_on_c, 4, 57, 127
1, 193285, Note_off_c, 4, 61, 64
1, 193296, Note_on_c, 4, 64, 124
1, 193297, Note_on_c, 4, 61, 127
1, 193407, Note_off_c, 2, 69, 64
1, 193407, Note_off_c, 4, 57, 64
1, 193417, Note_on_c, 4, 63, 127
1, 193418, Note_on_c, 4, 60, 127
1, 193430, Note_off_c, 4, 61, 64
1, 193430, Note_off_c, 4, 64, 64
1, 193542, Note_on_c, 4, 64, 124
1, 193543, Note_on_c, 4, 61, 127
1, 193555, Note_off_c, 4, 63, 64
1, 193555, Note_off_c, 4, 60, 64
1, 193661, Note_on_c, 4, 62, 127
1, 193662, Note_on_c, 4, 59, 127
1, 193674, Note_off_c, 4, 61, 64
1, 193674, Note_off_c, 4, 64, 64
1, 193782, Note_on_c, 4, 61, 127
1, 193783, Note_on_c, 4, 57, 127
1, 193797, Note_off_c, 4, 62, 64
1, 193797, Note_off_c, 4, 59, 64
1, 193909, Note_on_c, 4, 56, 127
1, 193909, Note_on_c, 2, 71, 127
1, 193910, Note_on_c, 4, 52, 127
1, 193921, Note_off_c, 4, 57, 64
1, 193922, Note_off_c, 4, 61, 64
1, 194400, Note_on_c, 2, 73, 127
1, 194400, Note_on_c, 4, 64, 124
1, 194400, Note_on_c, 4, 57, 127
1, 194406, Note_off_c, 4, 52, 64
1, 194407, Note_off_c, 2, 71, 64
1, 194407, Note_off_c, 4, 56, 64
1, 194568, Note_off_c, 2, 73, 64
1, 194581, Note_on_c, 2, 69, 126
1, 194635, Note_off_c, 4, 57, 64
1, 194637, Note_off_c, 2, 69, 64
1, 194637, Note_off_c, 4, 64, 64
1, 194640, Note_on_c, 2, 74, 127
1, 194641, Note_on_c, 4, 64, 124
1, 194641, Note_on_c, 4, 56, 127
1, 194764, Note_on_c, 4, 59, 127
1, 194765, Note_on_c, 4, 62, 127
1, 194778, Note_off_c, 4, 64, 64
1, 194872, Note_off_c, 4, 56, 64
1, 194872, Note_off_c, 2, 74, 64
1, 194882, Note_on_c, 4, 58, 127
1, 194883, Note_on_c, 4, 61, 127
1, 194897, Note_off_c, 4, 59, 64
1, 194897, Note_off_c, 4, 62, 64
1, 195005, Note_on_c, 4, 59, 127
1, 195006, Note_on_c, 4, 62, 127
1, 195019, Note_off_c, 4, 61, 64
1, 195019, Note_off_c, 4, 58, 64
1, 195126, Note_on_c, 4, 61, 127
1, 195126, Note_on_c, 4, 57, 127
1, 195139, Note_off_c, 4, 59, 64
1, 195139, Note_off_c, 4, 62, 64
1, 195247, Note_on_c, 4, 59, 127
1, 195248, Note_on_c, 4, 56, 127
1, 195260, Note_off_c, 4, 57, 64
1, 195261, Note_off_c, 4, 61, 64
1, 195369, Note_on_c, 2, 76, 127
1, 195607, Note_off_c, 4, 59, 64
1, 195607, Note_off_c, 4, 56, 64
1, 195608, Note_on_c, 4, 64, 124
1, 195608, Note_on_c, 2, 69, 126
1, 195609, Note_on_c, 4, 61, 127
1, 195719, Note_off_c, 2, 76, 64
1, 195731, Note_on_c, 1, 78, 126
1, 195765, Note_on_c, 2, 76, 127
1, 195777, Note_off_c, 1, 78, 64
1, 195800, Note_on_c, 2, 74, 127
1, 195811, Note_off_c, 2, 76, 64
1, 195834, Note_on_c, 2, 73, 127
1, 195846, Note_off_c, 2, 74, 64
1, 195855, Note_off_c, 4, 61, 64
1, 195856, Note_off_c, 2, 69, 64
1, 195856, Note_off_c, 4, 64, 64
1, 195864, Note_on_c, 2, 68, 126
1, 195864, Note_on_c, 2, 74, 127
1, 195865, Note_on_c, 4, 59, 127
1, 195867, Note_on_c, 4, 64, 124
1, 195875, Note_off_c, 2, 73, 64
1, 195974, Note_off_c, 2, 74, 64
1, 195984, Note_on_c, 2, 74, 127
1, 196095, Note_off_c, 2, 74, 64
1, 196105, Note_on_c, 2, 73, 127
1, 196335, Note_off_c, 4, 59, 64
1, 196336, Note_off_c, 2, 68, 64
1, 196336, Note_off_c, 4, 64, 64
1, 196344, Note_on_c, 4, 61, 127
1, 196344, Note_on_c, 4, 64, 124
1, 196345, Note_on_c, 4, 57, 127
1, 196442, Note_off_c, 2, 73, 64
1, 196467, Note_on_c, 2, 74, 127
1, 196500, Note_on_c, 2, 73, 127
1, 196512, Note_off_c, 2, 74, 64
1, 196535, Note_on_c, 2, 71, 127
1, 196547, Note_off_c, 2, 73, 64
1, 196570, Note_on_c, 2, 69, 126
1, 196581, Note_off_c, 2, 71, 64
1, 196582, Note_off_c, 4, 61, 64
1, 196582, Note_off_c, 4, 57, 64
1, 196583, Note_off_c, 4, 64, 64
1, 196604, Note_on_c, 2, 68, 126
1, 196605, Note_on_c, 4, 59, 127
1, 196605, Note_on_c, 4, 52, 127
1, 196606, Note_on_c, 4, 50, 127
1, 196614, Note_off_c, 2, 69, 64
1, 196712, Note_off_c, 2, 68, 64
1, 196721, Note_on_c, 2, 68, 126
1, 196829, Note_off_c, 2, 68, 64
1, 196838, Note_on_c, 2, 69, 126
1, 196959, Note_off_c, 4, 50, 64
1, 196960, Note_off_c, 4, 52, 64
1, 196960, Note_on_c, 4, 49, 127
1, 197080, Note_off_c, 4, 59, 64
1, 197080, Note_on_c, 4, 61, 127
1, 197208, Note_off_c, 2, 69, 64
1, 197208, Note_on_c, 2, 71, 127
1, 197209, Note_on_c, 4, 64, 124
1, 197209, Note_on_c, 2, 68, 126
1, 197210, Note_on_c, 4, 62, 127
1, 197222, Note_off_c, 4, 61, 64
1, 197324, Note_off_c, 4, 64, 64
1, 197334, Note_on_c, 2, 73, 127
1, 197334, Note_on_c, 2, 69, 126
1, 197335, Note_on_c, 4, 64, 124
1, 197335, Note_on_c, 4, 61, 127
1, 197345, Note_off_c, 4, 62, 64
1, 197346, Note_off_c, 2, 71, 64
1, 197346, Note_off_c, 2, 68, 64
1, 197450, Note_off_c, 4, 64, 64
1, 197460, Note_on_c, 2, 71, 127
1, 197460, Note_on_c, 4, 64, 124
1, 197460, Note_on_c, 2, 74, 127
1, 197461, Note_on_c, 4, 59, 127
1, 197473, Note_off_c, 4, 61, 64
1, 197473, Note_off_c, 2, 69, 64
1, 197474, Note_off_c, 2, 73, 64
1, 197574, Note_off_c, 4, 64, 64
1, 197585, Note_on_c, 2, 75, 127
1, 197586, Note_on_c, 2, 73, 127
1, 197586, Note_on_c, 4, 64, 124
1, 197587, Note_on_c, 4, 57, 127
1, 197601, Note_off_c, 2, 74, 64
1, 197601, Note_off_c, 4, 59, 64
1, 197648, Note_off_c, 2, 75, 64
1, 197652, Note_on_c, 2, 76, 127
1, 197657, Note_off_c, 2, 73, 64
1, 197702, Note_off_c, 4, 64, 64
1, 197713, Note_on_c, 1, 78, 126
1, 197714, Note_on_c, 4, 62, 127
1, 197714, Note_on_c, 2, 74, 127
1, 197724, Note_off_c, 2, 76, 64
1, 197727, Note_off_c, 4, 57, 64
1, 197766, Note_off_c, 2, 74, 64
1, 197767, Note_off_c, 2, 71, 64
1, 197777, Note_on_c, 2, 74, 127
1, 197777, Note_on_c, 2, 71, 127
1, 197785, Note_off_c, 1, 78, 64
1, 197839, Note_on_c, 2, 73, 127
1, 197840, Note_on_c, 4, 64, 124
1, 197840, Note_on_c, 2, 69, 126
1, 197850, Note_off_c, 2, 71, 64
1, 197850, Note_off_c, 2, 74, 64
1, 197852, Note_off_c, 4, 62, 64
1, 198068, Note_off_c, 4, 49, 64
1, 198077, Note_on_c, 2, 71, 127
1, 198078, Note_on_c, 4, 52, 127
1, 198078, Note_on_c, 2, 68, 126
1, 198081, Note_off_c, 2, 73, 64
1, 198081, Note_off_c, 2, 69, 64
1, 198328, Note_on_c, 2, 69, 126
1, 198330, Note_off_c, 2, 71, 64
1, 198331, Note_off_c, 2, 68, 64
1, 198554, Note_off_c, 4, 64, 64
1, 198564, Note_on_c, 4, 57, 127
1, 198564, Note_on_c, 4, 61, 127
1, 198576, Note_off_c, 4, 52, 64
1, 198636, Note_off_c, 2, 69, 64
1, 198647, Note_on_c, 4, 64, 124
1, 198729, Note_on_c, 2, 73, 127
1, 198812, Note_on_c, 4, 59, 127
1, 198812, Note_on_c, 2, 74, 127
1, 198813, Note_on_c, 4, 52, 127
1, 198815, Note_off_c, 4, 61, 64
1, 198815, Note_off_c, 4, 57, 64
1, 198842, Note_off_c, 2, 73, 64
1, 198892, Note_on_c, 2, 71, 127
1, 198923, Note_off_c, 2, 74, 64
1, 198935, Note_on_c, 4, 62, 127
1, 198958, Note_off_c, 4, 64, 64
1, 198979, Note_on_c, 2, 68, 126
1, 199012, Note_off_c, 2, 71, 64
1, 199055, Note_off_c, 4, 62, 64
1, 199066, Note_on_c, 2, 69, 126
1, 199067, Note_on_c, 4, 57, 127
1, 199067, Note_on_c, 4, 61, 127
1, 199069, Note_off_c, 4, 59, 64
1, 199069, Note_off_c, 4, 52, 64
1, 199097, Note_off_c, 2, 68, 64
1, 199179, Note_off_c, 4, 61, 64
1, 199187, Note_on_c, 4, 64, 124
1, 199188, Note_on_c, 4, 61, 127
1, 199201, Note_off_c, 2, 69, 64
1, 199309, Note_off_c, 4, 57, 64
1, 199315, Note_on_c, 4, 60, 127
1, 199315, Note_on_c, 4, 63, 127
1, 199329, Note_off_c, 4, 61, 64
1, 199330, Note_off_c, 4, 64, 64
1, 199441, Note_on_c, 4, 64, 124
1, 199442, Note_on_c, 4, 61, 127
1, 199454, Note_off_c, 4, 63, 64
1, 199454, Note_off_c, 4, 60, 64
1, 199559, Note_on_c, 4, 62, 127
1, 199560, Note_on_c, 4, 59, 127
1, 199572, Note_off_c, 4, 61, 64
1, 199572, Note_off_c, 4, 64, 64
1, 199680, Note_on_c, 4, 61, 127
1, 199681, Note_on_c, 4, 57, 127
1, 199693, Note_off_c, 4, 62, 64
1, 199693, Note_off_c, 4, 59, 64
1, 199808, Note_on_c, 2, 71, 127
1, 200044, Note_on_c, 4, 52, 127
1, 200044, Note_on_c, 4, 56, 127
1, 200064, Note_off_c, 4, 61, 64
1, 200064, Note_off_c, 4, 57, 64
1, 200114, Note_on_c, 4, 64, 124
1, 200203, Note_on_c, 2, 74, 127
1, 200204, Note_off_c, 2, 71, 64
1, 200275, Note_off_c, 4, 56, 64
1, 200277, Note_off_c, 4, 64, 64
1, 200285, Note_on_c, 4, 64, 124
1, 200285, Note_on_c, 2, 73, 127
1, 200286, Note_on_c, 4, 57, 127
1, 200295, Note_off_c, 2, 74, 64
1, 200363, Note_on_c, 2, 69, 126
1, 200393, Note_off_c, 2, 73, 64
1, 200445, Note_on_c, 1, 78, 126
1, 200495, Note_off_c, 2, 69, 64
1, 200528, Note_on_c, 2, 76, 127
1, 200543, Note_off_c, 1, 78, 64
1, 200574, Note_on_c, 2, 74, 127
1, 200593, Note_off_c, 2, 76, 64
1, 200662, Note_off_c, 4, 57, 64
1, 200663, Note_off_c, 4, 64, 64
1, 200663, Note_on_c, 4, 62, 127
1, 200664, Note_on_c, 4, 59, 127
1, 200681, Note_off_c, 2, 74, 64
1, 200777, Note_on_c, 4, 61, 127
1, 200778, Note_on_c, 4, 58, 127
1, 200792, Note_off_c, 4, 59, 64
1, 200792, Note_off_c, 4, 62, 64
1, 200900, Note_on_c, 4, 62, 127
1, 200901, Note_on_c, 4, 59, 127
1, 200915, Note_off_c, 4, 61, 64
1, 200915, Note_off_c, 4, 58, 64
1, 201023, Note_on_c, 4, 61, 127
1, 201024, Note_on_c, 4, 57, 127
1, 201036, Note_off_c, 4, 59, 64
1, 201036, Note_off_c, 4, 62, 64
1, 201145, Note_on_c, 4, 56, 127
1, 201145, Note_on_c, 4, 59, 127
1, 201157, Note_off_c, 4, 57, 64
1, 201158, Note_off_c, 4, 61, 64
1, 201164, Note_off_c, 4, 52, 64
1, 201264, Note_on_c, 2, 76, 127
1, 201514, Note_off_c, 4, 59, 64
1, 201514, Note_off_c, 4, 56, 64
1, 201515, Note_on_c, 4, 61, 127
1, 201515, Note_on_c, 2, 69, 126
1, 201573, Note_off_c, 2, 76, 64
1, 201574, Note_on_c, 2, 77, 127
1, 201630, Note_on_c, 1, 78, 126
1, 201639, Note_off_c, 2, 77, 64
1, 201687, Note_on_c, 2, 73, 127
1, 201699, Note_off_c, 1, 78, 64
1, 201747, Note_off_c, 2, 69, 64
1, 201747, Note_off_c, 4, 61, 64
1, 201748, Note_on_c, 2, 68, 126
1, 201748, Note_on_c, 2, 76, 127
1, 201749, Note_on_c, 4, 59, 127
1, 201757, Note_off_c, 2, 73, 64
1, 201805, Note_on_c, 2, 74, 127
1, 201815, Note_off_c, 2, 76, 64
1, 201855, Note_off_c, 2, 74, 64
1, 201865, Note_on_c, 2, 74, 127
1, 201990, Note_off_c, 2, 74, 64
1, 202001, Note_on_c, 2, 73, 127
1, 202237, Note_on_c, 4, 57, 127
1, 202237, Note_on_c, 4, 64, 124
1, 202246, Note_off_c, 2, 68, 64
1, 202246, Note_off_c, 4, 59, 64
1, 202296, Note_on_c, 2, 75, 127
1, 202302, Note_off_c, 2, 73, 64
1, 202357, Note_on_c, 2, 76, 127
1, 202368, Note_off_c, 2, 75, 64
1, 202417, Note_on_c, 2, 69, 126
1, 202427, Note_off_c, 2, 76, 64
1, 202467, Note_off_c, 2, 69, 64
1, 202468, Note_off_c, 4, 64, 64
1, 202478, Note_on_c, 4, 64, 124
1, 202478, Note_on_c, 2, 69, 126
1, 202479, Note_on_c, 4, 62, 127
1, 202480, Note_off_c, 4, 57, 64
1, 202540, Note_off_c, 2, 69, 64
1, 202541, Note_on_c, 2, 68, 126
1, 202591, Note_off_c, 2, 68, 64
1, 202603, Note_on_c, 2, 68, 126
1, 202710, Note_off_c, 4, 64, 64
1, 202720, Note_off_c, 2, 68, 64
1, 202720, Note_on_c, 2, 69, 126
1, 202721, Note_on_c, 4, 61, 127
1, 202721, Note_on_c, 4, 64, 124
1, 202725, Note_off_c, 4, 62, 64
1, 202785, Note_on_c, 2, 71, 127
1, 202795, Note_off_c, 2, 69, 64
1, 202841, Note_on_c, 2, 73, 127
1, 202848, Note_off_c, 2, 71, 64
1, 202896, Note_on_c, 2, 74, 127
1, 202906, Note_off_c, 2, 73, 64
1, 202943, Note_off_c, 4, 64, 64
1, 202952, Note_on_c, 2, 76, 127
1, 202953, Note_on_c, 4, 57, 127
1, 202953, Note_on_c, 4, 49, 127
1, 202956, Note_off_c, 4, 61, 64
1, 202961, Note_off_c, 2, 74, 64
1, 203008, Note_on_c, 1, 78, 126
1, 203016, Note_off_c, 2, 76, 64
1, 203062, Note_on_c, 1, 80, 126
1, 203069, Note_off_c, 1, 78, 64
1, 203113, Note_on_c, 1, 81, 126
1, 203123, Note_off_c, 1, 80, 64
1, 203169, Note_on_c, 1, 80, 126
1, 203170, Note_on_c, 4, 50, 127
1, 203172, Note_off_c, 4, 49, 64
1, 203178, Note_off_c, 1, 81, 64
1, 203224, Note_on_c, 1, 78, 126
1, 203232, Note_off_c, 1, 80, 64
1, 203278, Note_on_c, 2, 76, 127
1, 203286, Note_off_c, 1, 78, 64
1, 203332, Note_on_c, 2, 74, 127
1, 203342, Note_off_c, 2, 76, 64
1, 203390, Note_on_c, 4, 52, 127
1, 203390, Note_on_c, 2, 73, 127
1, 203395, Note_off_c, 4, 50, 64
1, 203400, Note_off_c, 2, 74, 64
1, 203448, Note_on_c, 2, 76, 127
1, 203458, Note_off_c, 2, 73, 64
1, 203487, Note_off_c, 4, 57, 64
1, 203512, Note_on_c, 4, 56, 127
1, 203512, Note_on_c, 2, 74, 127
1, 203520, Note_off_c, 2, 76, 64
1, 203572, Note_on_c, 2, 71, 127
1, 203584, Note_off_c, 2, 74, 64
1, 203628, Note_off_c, 2, 71, 64
1, 203640, Note_on_c, 4, 62, 127
1, 203640, Note_on_c, 4, 64, 124
1, 203640, Note_on_c, 2, 71, 127
1, 203641, Note_off_c, 4, 56, 64
1, 203641, Note_on_c, 4, 57, 127
1, 203764, Note_off_c, 4, 52, 64
1, 203770, Note_on_c, 4, 52, 127
1, 203893, Note_on_c, 4, 61, 127
1, 203893, Note_on_c, 2, 69, 126
1, 203894, Note_on_c, 4, 45, 127
1, 203898, Note_off_c, 4, 62, 64
1, 203898, Note_off_c, 4, 57, 64
1, 203899, Note_off_c, 2, 71, 64
1, 203899, Note_off_c, 4, 64, 64
1, 204028, Note_off_c, 4, 52, 64
1, 204136, Note_off_c, 2, 69, 64
1, 204148, Note_on_c, 2, 69, 126
1, 204148, Note_on_c, 4, 57, 125
1, 204158, Note_off_c, 4, 61, 64
1, 204210, Note_on_c, 4, 64, 121
1, 204275, Note_on_c, 4, 59, 127
1, 204288, Note_off_c, 4, 57, 64
1, 204336, Note_off_c, 4, 64, 64
1, 204338, Note_on_c, 4, 64, 121
1, 204404, Note_on_c, 4, 61, 127
1, 204417, Note_off_c, 4, 59, 64
1, 204465, Note_off_c, 4, 64, 64
1, 204468, Note_on_c, 4, 64, 121
1, 204530, Note_off_c, 2, 69, 64
1, 204533, Note_on_c, 4, 65, 126
1, 204533, Note_on_c, 4, 62, 126
1, 204547, Note_off_c, 4, 61, 64
1, 204570, Note_on_c, 2, 68, 126
1, 204582, Note_off_c, 4, 65, 64
1, 204601, Note_off_c, 4, 64, 64
1, 204604, Note_on_c, 4, 64, 121
1, 204604, Note_on_c, 2, 69, 126
1, 204616, Note_off_c, 2, 68, 64
1, 204641, Note_on_c, 2, 68, 126
1, 204653, Note_off_c, 2, 69, 64
1, 204676, Note_on_c, 4, 61, 127
1, 204676, Note_on_c, 2, 69, 126
1, 204686, Note_off_c, 2, 68, 64
1, 204690, Note_off_c, 4, 62, 64
1, 204736, Note_off_c, 4, 64, 64
1, 204740, Note_on_c, 4, 64, 121
1, 204770, Note_off_c, 2, 69, 64
1, 204804, Note_on_c, 2, 69, 126
1, 204804, Note_on_c, 4, 62, 126
1, 204819, Note_off_c, 4, 61, 64
1, 204841, Note_on_c, 2, 68, 126
1, 204852, Note_off_c, 2, 69, 64
1, 204869, Note_off_c, 4, 64, 64
1, 204874, Note_on_c, 4, 64, 121
1, 204874, Note_on_c, 2, 69, 126
1, 204884, Note_off_c, 2, 68, 64
1, 204907, Note_on_c, 2, 68, 126
1, 204919, Note_off_c, 2, 69, 64
1, 204942, Note_on_c, 4, 61, 127
1, 204942, Note_on_c, 2, 69, 126
1, 204952, Note_off_c, 2, 68, 64
1, 204954, Note_off_c, 4, 62, 64
1, 205002, Note_off_c, 4, 64, 64
1, 205006, Note_on_c, 4, 64, 121
1, 205073, Note_on_c, 4, 56, 125
1, 205088, Note_off_c, 4, 61, 64
1, 205102, Note_on_c, 2, 73, 127
1, 205121, Note_off_c, 2, 69, 64
1, 205142, Note_off_c, 4, 64, 64
1, 205146, Note_on_c, 2, 71, 127
1, 205147, Note_on_c, 4, 64, 121
1, 205151, Note_off_c, 2, 73, 64
1, 205191, Note_off_c, 2, 71, 64
1, 205192, Note_on_c, 2, 73, 127
1, 205215, Note_on_c, 4, 57, 125
1, 205229, Note_off_c, 4, 56, 64
1, 205278, Note_off_c, 4, 64, 64
1, 205281, Note_on_c, 4, 64, 121
1, 205344, Note_on_c, 4, 59, 127
1, 205344, Note_on_c, 2, 76, 127
1, 205356, Note_off_c, 2, 73, 64
1, 205358, Note_off_c, 4, 57, 64
1, 205409, Note_off_c, 4, 64, 64
1, 205411, Note_on_c, 2, 74, 127
1, 205412, Note_on_c, 4, 64, 121
1, 205422, Note_off_c, 2, 76, 64
1, 205477, Note_on_c, 2, 73, 127
1, 205478, Note_on_c, 4, 57, 125
1, 205490, Note_off_c, 2, 74, 64
1, 205494, Note_off_c, 4, 59, 64
1, 205541, Note_off_c, 4, 64, 64
1, 205546, Note_on_c, 4, 64, 121
1, 205612, Note_off_c, 2, 73, 64
1, 205612, Note_on_c, 2, 71, 127
1, 205613, Note_on_c, 4, 56, 125
1, 205626, Note_off_c, 4, 57, 64
1, 205655, Note_off_c, 4, 45, 64
1, 205672, Note_off_c, 4, 64, 64
1, 205676, Note_on_c, 4, 64, 121
1, 205734, Note_off_c, 2, 71, 64
1, 205745, Note_on_c, 2, 71, 127
1, 205746, Note_on_c, 4, 52, 125
1, 205758, Note_off_c, 4, 56, 64
1, 205808, Note_off_c, 4, 64, 64
1, 205812, Note_on_c, 4, 64, 121
1, 205882, Note_on_c, 4, 54, 125
1, 205897, Note_off_c, 4, 52, 64
1, 205945, Note_off_c, 4, 64, 64
1, 205949, Note_on_c, 4, 64, 121
1, 206014, Note_on_c, 4, 56, 125
1, 206028, Note_off_c, 4, 54, 64
1, 206077, Note_off_c, 4, 64, 64
1, 206079, Note_on_c, 4, 64, 121
1, 206143, Note_off_c, 2, 71, 64
1, 206147, Note_on_c, 4, 54, 125
1, 206147, Note_on_c, 2, 71, 127
1, 206163, Note_off_c, 4, 56, 64
1, 206184, Note_on_c, 2, 70, 126
1, 206190, Note_off_c, 2, 71, 64
1, 206217, Note_off_c, 4, 64, 64
1, 206220, Note_on_c, 2, 71, 127
1, 206221, Note_on_c, 4, 64, 121
1, 206225, Note_off_c, 2, 70, 64
1, 206258, Note_on_c, 2, 70, 126
1, 206265, Note_off_c, 2, 71, 64
1, 206297, Note_on_c, 2, 71, 127
1, 206298, Note_on_c, 4, 56, 125
1, 206300, Note_off_c, 2, 70, 64
1, 206310, Note_off_c, 4, 54, 64
1, 206358, Note_off_c, 4, 64, 64
1, 206360, Note_on_c, 4, 64, 121
1, 206396, Note_off_c, 2, 71, 64
1, 206408, Note_on_c, 2, 69, 126
1, 206429, Note_on_c, 4, 54, 125
1, 206440, Note_on_c, 2, 71, 127
1, 206448, Note_off_c, 4, 56, 64
1, 206458, Note_off_c, 2, 69, 64
1, 206486, Note_on_c, 2, 69, 126
1, 206490, Note_off_c, 2, 71, 64
1, 206500, Note_off_c, 4, 64, 64
1, 206504, Note_on_c, 4, 64, 121
1, 206579, Note_on_c, 4, 56, 125
1, 206579, Note_on_c, 2, 71, 127
1, 206595, Note_off_c, 2, 69, 64
1, 206595, Note_off_c, 4, 54, 64
1, 206644, Note_off_c, 4, 64, 64
1, 206648, Note_on_c, 4, 64, 121
1, 206690, Note_off_c, 2, 71, 64
1, 206690, Note_on_c, 2, 73, 127
1, 206718, Note_on_c, 4, 57, 125
1, 206724, Note_on_c, 2, 74, 127
1, 206737, Note_off_c, 4, 56, 64
1, 206739, Note_off_c, 2, 73, 64
1, 206759, Note_on_c, 2, 73, 127
1, 206768, Note_off_c, 2, 74, 64
1, 206789, Note_off_c, 4, 64, 64
1, 206791, Note_on_c, 4, 64, 121
1, 206854, Note_on_c, 2, 74, 127
1, 206855, Note_on_c, 4, 59, 127
1, 206868, Note_off_c, 4, 57, 64
1, 206876, Note_off_c, 2, 73, 64
1, 206917, Note_off_c, 4, 64, 64
1, 206920, Note_on_c, 4, 64, 121
1, 206986, Note_off_c, 2, 74, 64
1, 206986, Note_on_c, 1, 78, 126
1, 206987, Note_on_c, 4, 61, 127
1, 206999, Note_off_c, 4, 59, 64
1, 207049, Note_off_c, 4, 64, 64
1, 207053, Note_on_c, 2, 76, 127
1, 207054, Note_on_c, 4, 64, 121
1, 207075, Note_off_c, 1, 78, 64
1, 207120, Note_on_c, 2, 74, 127
1, 207121, Note_on_c, 4, 59, 127
1, 207136, Note_off_c, 4, 61, 64
1, 207144, Note_off_c, 2, 76, 64
1, 207184, Note_off_c, 4, 64, 64
1, 207189, Note_on_c, 4, 64, 121
1, 207246, Note_off_c, 2, 74, 64
1, 207258, Note_on_c, 4, 57, 125
1, 207258, Note_on_c, 2, 73, 127
1, 207274, Note_off_c, 4, 59, 64
1, 207329, Note_off_c, 4, 64, 64
1, 207334, Note_on_c, 4, 64, 121
1, 207397, Note_off_c, 2, 73, 64
1, 207410, Note_on_c, 2, 73, 127
1, 207464, Note_on_c, 1, 85, 126
1, 207551, Note_off_c, 4, 64, 64
1, 207564, Note_off_c, 1, 85, 64
1, 207564, Note_off_c, 2, 73, 64
1, 207568, Note_off_c, 4, 57, 64
1, 207576, Note_on_c, 1, 85, 126
1, 207577, Note_on_c, 4, 57, 125
1, 207577, Note_on_c, 4, 64, 121
1, 207720, Note_off_c, 4, 64, 64
1, 207720, Note_off_c, 4, 57, 64
1, 207725, Note_on_c, 4, 64, 121
1, 207726, Note_on_c, 4, 57, 125
1, 207857, Note_off_c, 1, 85, 64
1, 207859, Note_on_c, 1, 83, 126
1, 207893, Note_on_c, 1, 81, 126
1, 207915, Note_off_c, 1, 83, 64
1, 207984, Note_off_c, 1, 81, 64
1, 207990, Note_on_c, 1, 80, 126
1, 208025, Note_on_c, 1, 78, 126
1, 208047, Note_off_c, 1, 80, 64
1, 208112, Note_off_c, 1, 78, 64
1, 208126, Note_on_c, 2, 77, 127
1, 208162, Note_on_c, 1, 78, 126
1, 208185, Note_off_c, 2, 77, 64
1, 208270, Note_on_c, 2, 69, 126
1, 208298, Note_off_c, 1, 78, 64
1, 208314, Note_on_c, 1, 81, 126
1, 208417, Note_off_c, 1, 81, 64
1, 208418, Note_off_c, 4, 64, 64
1, 208418, Note_off_c, 4, 57, 64
1, 208419, Note_off_c, 2, 69, 64
1, 208419, Note_on_c, 1, 81, 126
1, 208420, Note_on_c, 4, 63, 126
1, 208420, Note_on_c, 4, 59, 127
1, 208421, Note_on_c, 4, 54, 125
1, 208544, Note_off_c, 4, 54, 64
1, 208545, Note_off_c, 4, 59, 64
1, 208545, Note_off_c, 4, 63, 64
1, 208556, Note_on_c, 4, 59, 127
1, 208556, Note_on_c, 4, 63, 126
1, 208557, Note_on_c, 4, 54, 125
1, 208641, Note_off_c, 1, 81, 64
1, 208653, Note_on_c, 1, 80, 126
1, 208685, Note_on_c, 1, 78, 126
1, 208697, Note_off_c, 1, 80, 64
1, 208776, Note_off_c, 1, 78, 64
1, 208785, Note_on_c, 2, 76, 127
1, 208818, Note_on_c, 2, 75, 127
1, 208829, Note_off_c, 2, 76, 64
1, 208906, Note_off_c, 2, 75, 64
1, 208918, Note_on_c, 2, 73, 127
1, 208950, Note_on_c, 2, 71, 127
1, 208964, Note_off_c, 2, 73, 64
1, 209074, Note_off_c, 2, 71, 64
1, 209085, Note_on_c, 2, 71, 127
1, 209212, Note_on_c, 2, 76, 127
1, 209245, Note_off_c, 2, 71, 64
1, 209331, Note_off_c, 4, 54, 64
1, 209332, Note_off_c, 4, 63, 64
1, 209332, Note_off_c, 4, 59, 64
1, 209342, Note_on_c, 4, 56, 125
1, 209342, Note_on_c, 4, 64, 121
1, 209462, Note_off_c, 2, 76, 64
1, 209470, Note_on_c, 2, 71, 127
1, 209596, Note_off_c, 4, 56, 64
1, 209597, Note_off_c, 4, 64, 64
1, 209604, Note_on_c, 4, 57, 125
1, 209604, Note_on_c, 4, 64, 121
1, 209604, Note_on_c, 2, 73, 127
1, 209617, Note_off_c, 2, 71, 64
1, 209736, Note_on_c, 2, 69, 126
1, 209751, Note_off_c, 2, 73, 64
1, 209863, Note_on_c, 2, 68, 126
1, 209876, Note_off_c, 2, 69, 64
1, 209978, Note_on_c, 2, 71, 127
1, 209991, Note_off_c, 2, 68, 64
1, 210095, Note_off_c, 4, 57, 64
1, 210096, Note_off_c, 4, 64, 64
1, 210096, Note_on_c, 4, 59, 127
1, 210096, Note_on_c, 4, 63, 126
1, 210206, Note_off_c, 2, 71, 64
1, 210218, Note_on_c, 2, 70, 126
1, 210345, Note_on_c, 4, 47, 125
1, 210345, Note_on_c, 2, 69, 126
1, 210357, Note_off_c, 2, 70, 64
1, 210476, Note_on_c, 4, 66, 126
1, 210492, Note_off_c, 2, 69, 64
1, 210611, Note_off_c, 4, 63, 64
1, 210611, Note_off_c, 4, 59, 64
1, 210612, Note_on_c, 4, 52, 125
1, 210612, Note_on_c, 2, 68, 126
1, 210622, Note_off_c, 4, 47, 64
1, 210626, Note_off_c, 4, 66, 64
1, 210678, Note_on_c, 4, 59, 127
1, 210678, Note_on_c, 2, 71, 127
1, 210689, Note_off_c, 2, 68, 64
1, 210737, Note_on_c, 2, 73, 127
1, 210738, Note_on_c, 4, 56, 125
1, 210748, Note_off_c, 2, 71, 64
1, 210752, Note_off_c, 4, 52, 64
1, 210794, Note_off_c, 4, 59, 64
1, 210798, Note_on_c, 2, 75, 127
1, 210798, Note_on_c, 4, 59, 127
1, 210808, Note_off_c, 2, 73, 64
1, 210858, Note_on_c, 2, 76, 127
1, 210859, Note_on_c, 4, 52, 125
1, 210867, Note_off_c, 2, 75, 64
1, 210871, Note_off_c, 4, 56, 64
1, 210913, Note_off_c, 4, 59, 64
1, 210917, Note_on_c, 4, 59, 127
1, 210917, Note_on_c, 1, 78, 126
1, 210926, Note_off_c, 2, 76, 64
1, 210974, Note_on_c, 1, 80, 126
1, 210975, Note_on_c, 4, 56, 125
1, 210985, Note_off_c, 1, 78, 64
1, 210987, Note_off_c, 4, 52, 64
1, 211029, Note_off_c, 4, 59, 64
1, 211032, Note_on_c, 1, 81, 126
1, 211032, Note_on_c, 4, 59, 127
1, 211042, Note_off_c, 1, 80, 64
1, 211092, Note_on_c, 4, 52, 125
1, 211092, Note_on_c, 1, 83, 126
1, 211100, Note_off_c, 1, 81, 64
1, 211104, Note_off_c, 4, 56, 64
1, 211148, Note_off_c, 4, 59, 64
1, 211152, Note_on_c, 4, 59, 127
1, 211152, Note_on_c, 1, 85, 126
1, 211161, Note_off_c, 1, 83, 64
1, 211212, Note_on_c, 1, 83, 126
1, 211213, Note_on_c, 4, 56, 125
1, 211221, Note_off_c, 1, 85, 64
1, 211223, Note_off_c, 4, 52, 64
1, 211269, Note_off_c, 4, 59, 64
1, 211271, Note_on_c, 1, 80, 126
1, 211272, Note_on_c, 4, 59, 127
1, 211282, Note_off_c, 1, 83, 64
1, 211332, Note_on_c, 4, 54, 125
1, 211332, Note_on_c, 1, 81, 126
1, 211340, Note_off_c, 1, 80, 64
1, 211344, Note_off_c, 4, 56, 64
1, 211386, Note_off_c, 4, 59, 64
1, 211388, Note_on_c, 1, 83, 126
1, 211389, Note_on_c, 4, 59, 127
1, 211399, Note_off_c, 1, 81, 64
1, 211445, Note_off_c, 4, 54, 64
1, 211447, Note_on_c, 1, 81, 126
1, 211448, Note_on_c, 4, 54, 125
1, 211457, Note_off_c, 1, 83, 64
1, 211503, Note_off_c, 4, 59, 64
1, 211506, Note_on_c, 1, 78, 126
1, 211506, Note_on_c, 4, 57, 125
1, 211517, Note_off_c, 1, 81, 64
1, 211561, Note_off_c, 4, 54, 64
1, 211565, Note_on_c, 4, 54, 125
1, 211565, Note_on_c, 2, 75, 127
1, 211573, Note_off_c, 1, 78, 64
1, 211621, Note_on_c, 2, 76, 127
1, 211622, Note_on_c, 4, 59, 127
1, 211630, Note_off_c, 2, 75, 64
1, 211634, Note_off_c, 4, 57, 64
1, 211681, Note_on_c, 2, 75, 127
1, 211681, Note_on_c, 4, 57, 125
1, 211690, Note_off_c, 2, 76, 64
1, 211692, Note_off_c, 4, 54, 64
1, 211734, Note_off_c, 4, 59, 64
1, 211738, Note_on_c, 2, 71, 127
1, 211738, Note_on_c, 4, 59, 127
1, 211747, Note_off_c, 2, 75, 64
1, 211794, Note_on_c, 2, 69, 126
1, 211795, Note_on_c, 4, 51, 125
1, 211803, Note_off_c, 2, 71, 64
1, 211807, Note_off_c, 4, 57, 64
1, 211849, Note_off_c, 4, 59, 64
1, 211851, Note_on_c, 2, 71, 127
1, 211852, Note_on_c, 4, 59, 127
1, 211862, Note_off_c, 2, 69, 64
1, 211908, Note_on_c, 4, 54, 125
1, 211908, Note_on_c, 2, 69, 126
1, 211919, Note_off_c, 2, 71, 64
1, 211922, Note_off_c, 4, 51, 64
1, 211964, Note_off_c, 4, 59, 64
1, 211967, Note_on_c, 4, 66, 126
1, 211967, Note_on_c, 4, 59, 127
1, 211977, Note_off_c, 2, 69, 64
1, 212025, Note_on_c, 2, 68, 126
1, 212026, Note_on_c, 4, 52, 125
1, 212034, Note_off_c, 4, 66, 64
1, 212037, Note_off_c, 4, 54, 64
1, 212085, Note_off_c, 4, 59, 64
1, 212089, Note_on_c, 2, 71, 127
1, 212090, Note_on_c, 4, 59, 127
1, 212098, Note_off_c, 2, 68, 64
1, 212150, Note_on_c, 4, 56, 125
1, 212150, Note_on_c, 2, 73, 127
1, 212159, Note_off_c, 2, 71, 64
1, 212162, Note_off_c, 4, 52, 64
1, 212204, Note_off_c, 4, 59, 64
1, 212207, Note_on_c, 2, 75, 127
1, 212207, Note_on_c, 4, 59, 127
1, 212217, Note_off_c, 2, 73, 64
1, 212265, Note_on_c, 2, 76, 127
1, 212266, Note_on_c, 4, 52, 125
1, 212276, Note_off_c, 2, 75, 64
1, 212278, Note_off_c, 4, 56, 64
1, 212322, Note_off_c, 4, 59, 64
1, 212324, Note_on_c, 4, 59, 127
1, 212324, Note_on_c, 1, 78, 126
1, 212334, Note_off_c, 2, 76, 64
1, 212382, Note_on_c, 1, 80, 126
1, 212383, Note_on_c, 4, 56, 125
1, 212393, Note_off_c, 1, 78, 64
1, 212395, Note_off_c, 4, 52, 64
1, 212439, Note_off_c, 4, 59, 64
1, 212443, Note_on_c, 1, 81, 126
1, 212443, Note_on_c, 4, 59, 127
1, 212451, Note_off_c, 1, 80, 64
1, 212501, Note_on_c, 1, 83, 126
1, 212502, Note_on_c, 4, 52, 125
1, 212512, Note_off_c, 1, 81, 64
1, 212514, Note_off_c, 4, 56, 64
1, 212556, Note_off_c, 4, 59, 64
1, 212558, Note_on_c, 4, 59, 127
1, 212558, Note_on_c, 1, 85, 126
1, 212568, Note_off_c, 1, 83, 64
1, 212622, Note_on_c, 1, 83, 126
1, 212623, Note_on_c, 4, 56, 125
1, 212631, Note_off_c, 1, 85, 64
1, 212635, Note_off_c, 4, 52, 64
1, 212675, Note_off_c, 4, 59, 64
1, 212677, Note_on_c, 1, 80, 126
1, 212677, Note_on_c, 4, 59, 127
1, 212688, Note_off_c, 1, 83, 64
1, 212737, Note_on_c, 1, 81, 126
1, 212738, Note_on_c, 4, 54, 125
1, 212748, Note_off_c, 1, 80, 64
1, 212750, Note_off_c, 4, 56, 64
1, 212794, Note_off_c, 4, 59, 64
1, 212796, Note_on_c, 4, 59, 127
1, 212796, Note_on_c, 1, 83, 126
1, 212805, Note_off_c, 1, 81, 64
1, 212853, Note_on_c, 4, 57, 125
1, 212853, Note_on_c, 1, 81, 126
1, 212861, Note_off_c, 1, 83, 64
1, 212863, Note_off_c, 4, 54, 64
1, 212905, Note_off_c, 4, 59, 64
1, 212909, Note_on_c, 1, 78, 126
1, 212910, Note_on_c, 4, 59, 127
1, 212918, Note_off_c, 1, 81, 64
1, 212966, Note_on_c, 2, 75, 127
1, 212966, Note_on_c, 4, 54, 125
1, 212976, Note_off_c, 1, 78, 64
1, 212978, Note_off_c, 4, 57, 64
1, 213021, Note_off_c, 4, 59, 64
1, 213024, Note_on_c, 2, 76, 127
1, 213025, Note_on_c, 4, 59, 127
1, 213033, Note_off_c, 2, 75, 64
1, 213083, Note_on_c, 2, 75, 127
1, 213084, Note_on_c, 4, 57, 125
1, 213094, Note_off_c, 2, 76, 64
1, 213096, Note_off_c, 4, 54, 64
1, 213138, Note_off_c, 4, 59, 64
1, 213140, Note_on_c, 2, 71, 127
1, 213140, Note_on_c, 4, 59, 127
1, 213150, Note_off_c, 2, 75, 64
1, 213198, Note_on_c, 2, 69, 126
1, 213199, Note_on_c, 4, 51, 125
1, 213209, Note_off_c, 2, 71, 64
1, 213211, Note_off_c, 4, 57, 64
1, 213251, Note_off_c, 4, 59, 64
1, 213255, Note_on_c, 4, 59, 127
1, 213255, Note_on_c, 2, 71, 127
1, 213264, Note_off_c, 2, 69, 64
1, 213313, Note_on_c, 2, 69, 126
1, 213314, Note_on_c, 4, 54, 125
1, 213324, Note_off_c, 2, 71, 64
1, 213326, Note_off_c, 4, 51, 64
1, 213366, Note_off_c, 4, 59, 64
1, 213368, Note_on_c, 4, 66, 126
1, 213369, Note_on_c, 4, 59, 127
1, 213379, Note_off_c, 2, 69, 64
1, 213426, Note_on_c, 4, 52, 125
1, 213426, Note_on_c, 2, 68, 126
1, 213436, Note_off_c, 4, 66, 64
1, 213438, Note_off_c, 4, 54, 64
1, 213484, Note_off_c, 4, 59, 64
1, 213488, Note_on_c, 2, 71, 127
1, 213498, Note_off_c, 2, 68, 64
1, 213550, Note_on_c, 2, 76, 127
1, 213561, Note_off_c, 2, 71, 64
1, 213612, Note_on_c, 2, 75, 127
1, 213622, Note_off_c, 2, 76, 64
1, 213664, Note_off_c, 4, 52, 64
1, 213668, Note_off_c, 2, 75, 64
1, 213673, Note_on_c, 2, 75, 127
1, 213674, Note_on_c, 4, 57, 125
1, 213736, Note_on_c, 2, 73, 127
1, 213748, Note_off_c, 2, 75, 64
1, 213796, Note_on_c, 1, 81, 126
1, 213808, Note_off_c, 2, 73, 64
1, 213858, Note_on_c, 1, 80, 126
1, 213867, Note_off_c, 1, 81, 64
1, 213915, Note_off_c, 1, 80, 64
1, 213919, Note_on_c, 1, 80, 126
1, 213979, Note_on_c, 1, 78, 126
1, 213988, Note_off_c, 1, 80, 64
1, 214039, Note_on_c, 1, 85, 126
1, 214048, Note_off_c, 1, 78, 64
1, 214098, Note_on_c, 1, 83, 126
1, 214110, Note_off_c, 1, 85, 64
1, 214161, Note_off_c, 1, 83, 64
1, 214167, Note_on_c, 1, 83, 126
1, 214212, Note_on_c, 1, 81, 126
1, 214255, Note_off_c, 1, 83, 64
1, 214301, Note_off_c, 1, 81, 64
1, 214301, Note_off_c, 4, 57, 64
1, 214302, Note_on_c, 2, 71, 127
1, 214302, Note_on_c, 1, 80, 126
1, 214303, Note_on_c, 4, 59, 127
1, 214303, Note_on_c, 4, 63, 127
1, 214303, Note_on_c, 2, 69, 126
1, 214367, Note_on_c, 1, 78, 126
1, 214377, Note_off_c, 1, 80, 64
1, 214420, Note_off_c, 2, 69, 64
1, 214424, Note_off_c, 1, 78, 64
1, 214430, Note_on_c, 1, 78, 126
1, 214431, Note_on_c, 4, 64, 124
1, 214431, Note_on_c, 2, 69, 126
1, 214442, Note_off_c, 4, 63, 64
1, 214443, Note_off_c, 2, 71, 64
1, 214553, Note_off_c, 4, 59, 64
1, 214559, Note_on_c, 4, 59, 127
1, 214682, Note_off_c, 1, 78, 64
1, 214690, Note_off_c, 4, 59, 64
1, 214690, Note_on_c, 2, 76, 127
1, 214691, Note_on_c, 4, 52, 127
1, 214691, Note_on_c, 2, 68, 126
1, 214693, Note_off_c, 2, 69, 64
1, 214693, Note_off_c, 4, 64, 64
1, 214931, Note_off_c, 2, 76, 64
1, 214941, Note_off_c, 2, 68, 64
1, 214942, Note_on_c, 2, 76, 127
1, 214992, Note_on_c, 2, 69, 126
1, 215186, Note_off_c, 2, 76, 64
1, 215207, Note_off_c, 4, 52, 64
1, 215208, Note_on_c, 4, 57, 127
1, 215208, Note_on_c, 4, 61, 127
1, 215421, Note_off_c, 2, 69, 64
1, 215452, Note_on_c, 4, 62, 127
1, 215452, Note_on_c, 2, 71, 127
1, 215453, Note_on_c, 4, 52, 127
1, 215455, Note_off_c, 4, 61, 64
1, 215455, Note_off_c, 4, 57, 64
1, 215516, Note_on_c, 2, 69, 126
1, 215526, Note_off_c, 2, 71, 64
1, 215574, Note_on_c, 2, 71, 127
1, 215585, Note_off_c, 2, 69, 64
1, 215633, Note_on_c, 2, 68, 126
1, 215643, Note_off_c, 2, 71, 64
1, 215691, Note_on_c, 4, 61, 127
1, 215691, Note_on_c, 2, 69, 126
1, 215692, Note_on_c, 4, 57, 127
1, 215696, Note_off_c, 4, 62, 64
1, 215696, Note_off_c, 4, 52, 64
1, 215700, Note_off_c, 2, 68, 64
1, 215808, Note_off_c, 4, 61, 64
1, 215816, Note_on_c, 2, 76, 125
1, 215816, Note_on_c, 4, 64, 127
1, 215817, Note_on_c, 4, 61, 127
1, 215817, Note_on_c, 4, 49, 127
1, 215829, Note_off_c, 4, 57, 64
1, 215830, Note_off_c, 2, 69, 64
1, 215936, Note_on_c, 4, 63, 127
1, 215936, Note_on_c, 2, 75, 125
1, 215937, Note_on_c, 4, 48, 127
1, 215937, Note_on_c, 4, 60, 127
1, 215947, Note_off_c, 4, 49, 64
1, 215948, Note_off_c, 4, 61, 64
1, 215948, Note_off_c, 4, 64, 64
1, 215949, Note_off_c, 2, 76, 64
1, 216055, Note_on_c, 2, 76, 125
1, 216055, Note_on_c, 4, 64, 127
1, 216056, Note_on_c, 4, 61, 127
1, 216056, Note_on_c, 4, 49, 127
1, 216069, Note_off_c, 4, 60, 64
1, 216069, Note_off_c, 4, 48, 64
1, 216070, Note_off_c, 2, 75, 64
1, 216070, Note_off_c, 4, 63, 64
1, 216180, Note_on_c, 4, 59, 127
1, 216180, Note_on_c, 4, 62, 127
1, 216180, Note_on_c, 2, 74, 125
1, 216181, Note_on_c, 4, 47, 127
1, 216193, Note_off_c, 4, 49, 64
1, 216193, Note_off_c, 4, 61, 64
1, 216194, Note_off_c, 4, 64, 64
1, 216194, Note_off_c, 2, 76, 64
1, 216304, Note_on_c, 2, 73, 125
1, 216305, Note_on_c, 4, 57, 127
1, 216305, Note_on_c, 4, 61, 127
1, 216306, Note_on_c, 4, 45, 127
1, 216320, Note_off_c, 4, 59, 64
1, 216320, Note_off_c, 4, 47, 64
1, 216321, Note_off_c, 2, 74, 64
1, 216321, Note_off_c, 4, 62, 64
1, 216437, Note_on_c, 2, 76, 125
1, 216487, Note_off_c, 2, 73, 64
1, 216499, Note_on_c, 2, 71, 124
1, 216693, Note_off_c, 2, 76, 64
1, 216714, Note_off_c, 4, 57, 64
1, 216714, Note_off_c, 4, 45, 64
1, 216715, Note_off_c, 4, 61, 64
1, 216715, Note_on_c, 4, 64, 124
1, 216716, Note_on_c, 4, 56, 127
1, 216922, Note_off_c, 2, 71, 64
1, 216943, Note_off_c, 4, 64, 64
1, 216953, Note_on_c, 4, 64, 124
1, 216953, Note_on_c, 2, 73, 125
1, 216954, Note_on_c, 4, 57, 127
1, 216957, Note_off_c, 4, 56, 64
1, 217019, Note_on_c, 2, 71, 124
1, 217065, Note_off_c, 2, 73, 64
1, 217075, Note_on_c, 2, 73, 125
1, 217132, Note_on_c, 2, 69, 126
1, 217144, Note_off_c, 2, 71, 64
1, 217178, Note_off_c, 2, 73, 64
1, 217179, Note_off_c, 4, 64, 64
1, 217187, Note_on_c, 2, 74, 125
1, 217188, Note_on_c, 4, 59, 127
1, 217188, Note_on_c, 4, 64, 124
1, 217192, Note_off_c, 4, 57, 64
1, 217264, Note_off_c, 2, 69, 64
1, 217302, Note_off_c, 4, 59, 64
1, 217303, Note_off_c, 2, 74, 64
1, 217313, Note_on_c, 4, 62, 127
1, 217313, Note_on_c, 2, 74, 125
1, 217314, Note_on_c, 4, 47, 127
1, 217314, Note_on_c, 4, 59, 127
1, 217326, Note_off_c, 4, 64, 64
1, 217435, Note_on_c, 4, 61, 127
1, 217435, Note_on_c, 2, 73, 125
1, 217436, Note_on_c, 4, 46, 127
1, 217436, Note_on_c, 4, 58, 127
1, 217448, Note_off_c, 4, 47, 64
1, 217449, Note_off_c, 2, 74, 64
1, 217449, Note_off_c, 4, 62, 64
1, 217449, Note_off_c, 4, 59, 64
1, 217556, Note_on_c, 4, 62, 127
1, 217556, Note_on_c, 2, 74, 125
1, 217557, Note_on_c, 4, 47, 127
1, 217557, Note_on_c, 4, 59, 127
1, 217569, Note_off_c, 4, 46, 64
1, 217570, Note_off_c, 4, 61, 64
1, 217570, Note_off_c, 4, 58, 64
1, 217571, Note_off_c, 2, 73, 64
1, 217677, Note_on_c, 4, 61, 127
1, 217677, Note_on_c, 2, 73, 125
1, 217678, Note_on_c, 4, 45, 127
1, 217678, Note_on_c, 4, 57, 127
1, 217688, Note_off_c, 4, 47, 64
1, 217689, Note_off_c, 4, 62, 64
1, 217689, Note_off_c, 4, 59, 64
1, 217690, Note_off_c, 2, 74, 64
1, 217796, Note_on_c, 4, 59, 127
1, 217796, Note_on_c, 2, 71, 127
1, 217797, Note_on_c, 4, 44, 127
1, 217797, Note_on_c, 4, 56, 127
1, 217807, Note_off_c, 4, 45, 64
1, 217808, Note_off_c, 4, 61, 64
1, 217808, Note_off_c, 4, 57, 64
1, 217809, Note_off_c, 2, 73, 64
1, 217915, Note_on_c, 2, 75, 127
1, 217927, Note_off_c, 2, 71, 64
1, 217946, Note_on_c, 2, 76, 127
1, 217956, Note_off_c, 2, 75, 64
1, 217977, Note_on_c, 1, 78, 121
1, 217987, Note_off_c, 2, 76, 64
1, 218010, Note_on_c, 2, 76, 124
1, 218019, Note_off_c, 1, 78, 64
1, 218042, Note_on_c, 1, 78, 121
1, 218052, Note_off_c, 2, 76, 64
1, 218074, Note_on_c, 2, 76, 124
1, 218086, Note_off_c, 1, 78, 64
1, 218107, Note_on_c, 1, 78, 117
1, 218116, Note_off_c, 2, 76, 64
1, 218139, Note_on_c, 2, 76, 120
1, 218149, Note_off_c, 1, 78, 64
1, 218172, Note_off_c, 4, 56, 64
1, 218172, Note_off_c, 4, 44, 64
1, 218173, Note_off_c, 4, 59, 64
1, 218173, Note_on_c, 1, 78, 117
1, 218174, Note_on_c, 4, 49, 127
1, 218174, Note_on_c, 4, 61, 127
1, 218196, Note_off_c, 2, 76, 64
1, 218208, Note_on_c, 2, 76, 115
1, 218229, Note_off_c, 1, 78, 64
1, 218240, Note_on_c, 1, 78, 112
1, 218261, Note_off_c, 2, 76, 64
1, 218273, Note_on_c, 2, 76, 115
1, 218294, Note_off_c, 1, 78, 64
1, 218305, Note_on_c, 1, 78, 112
1, 218328, Note_off_c, 2, 76, 64
1, 218340, Note_on_c, 2, 76, 115
1, 218361, Note_off_c, 1, 78, 64
1, 218373, Note_on_c, 1, 78, 112
1, 218394, Note_off_c, 2, 76, 64
1, 218405, Note_on_c, 2, 76, 115
1, 218428, Note_off_c, 1, 78, 64
1, 218440, Note_on_c, 4, 59, 127
1, 218440, Note_on_c, 1, 78, 112
1, 218441, Note_on_c, 4, 47, 127
1, 218443, Note_off_c, 4, 61, 64
1, 218443, Note_off_c, 4, 49, 64
1, 218461, Note_off_c, 2, 76, 64
1, 218501, Note_on_c, 2, 74, 127
1, 218555, Note_off_c, 1, 78, 64
1, 218655, Note_off_c, 2, 74, 64
1, 218684, Note_on_c, 2, 71, 127
1, 218716, Note_on_c, 2, 73, 124
1, 218726, Note_off_c, 2, 71, 64
1, 218748, Note_on_c, 2, 74, 124
1, 218753, Note_off_c, 2, 73, 64
1, 218778, Note_on_c, 2, 73, 124
1, 218785, Note_off_c, 2, 74, 64
1, 218810, Note_on_c, 2, 74, 124
1, 218816, Note_off_c, 2, 73, 64
1, 218842, Note_on_c, 2, 73, 124
1, 218849, Note_off_c, 2, 74, 64
1, 218874, Note_on_c, 2, 74, 120
1, 218880, Note_off_c, 2, 73, 64
1, 218907, Note_on_c, 2, 73, 120
1, 218912, Note_off_c, 2, 74, 64
1, 218940, Note_off_c, 4, 59, 64
1, 218940, Note_off_c, 4, 47, 64
1, 218940, Note_on_c, 4, 64, 124
1, 218940, Note_on_c, 2, 74, 120
1, 218941, Note_on_c, 4, 52, 127
1, 218945, Note_off_c, 2, 73, 64
1, 218972, Note_on_c, 2, 73, 115
1, 218979, Note_off_c, 2, 74, 64
1, 219005, Note_on_c, 2, 74, 115
1, 219010, Note_off_c, 2, 73, 64
1, 219037, Note_on_c, 2, 73, 115
1, 219043, Note_off_c, 2, 74, 64
1, 219070, Note_on_c, 2, 74, 115
1, 219077, Note_off_c, 2, 73, 64
1, 219103, Note_on_c, 2, 73, 115
1, 219110, Note_off_c, 2, 74, 64
1, 219135, Note_on_c, 2, 74, 119
1, 219141, Note_off_c, 2, 73, 64
1, 219168, Note_on_c, 2, 73, 119
1, 219173, Note_off_c, 2, 74, 64
1, 219199, Note_off_c, 2, 73, 64
1, 219199, Note_on_c, 2, 74, 127
1, 219200, Note_on_c, 4, 50, 127
1, 219200, Note_on_c, 4, 62, 127
1, 219202, Note_off_c, 4, 52, 64
1, 219203, Note_off_c, 4, 64, 64
1, 219261, Note_on_c, 2, 71, 127
1, 219282, Note_off_c, 2, 74, 64
1, 219445, Note_off_c, 2, 71, 64
1, 219446, Note_on_c, 2, 69, 126
1, 219527, Note_off_c, 2, 69, 64
1, 219539, Note_on_c, 2, 71, 127
1, 219575, Note_on_c, 2, 69, 126
1, 219587, Note_off_c, 2, 71, 64
1, 219663, Note_off_c, 2, 69, 64
1, 219669, Note_on_c, 2, 68, 126
1, 219708, Note_on_c, 2, 69, 126
1, 219717, Note_off_c, 2, 68, 64
1, 219823, Note_off_c, 4, 62, 64
1, 219832, Note_on_c, 2, 71, 127
1, 219833, Note_on_c, 4, 62, 127
1, 219833, Note_on_c, 2, 68, 126
1, 219847, Note_off_c, 2, 69, 64
1, 219962, Note_on_c, 2, 69, 126
1, 219962, Note_on_c, 2, 73, 127
1, 219963, Note_on_c, 4, 61, 127
1, 219974, Note_off_c, 4, 62, 64
1, 219975, Note_off_c, 2, 71, 64
1, 219975, Note_off_c, 2, 68, 64
1, 220087, Note_on_c, 2, 74, 127
1, 220087, Note_on_c, 2, 71, 127
1, 220088, Note_on_c, 4, 59, 127
1, 220101, Note_off_c, 4, 61, 64
1, 220102, Note_off_c, 2, 73, 64
1, 220102, Note_off_c, 2, 69, 64
1, 220213, Note_on_c, 2, 76, 127
1, 220214, Note_on_c, 4, 57, 127
1, 220214, Note_on_c, 2, 73, 127
1, 220226, Note_off_c, 4, 59, 64
1, 220226, Note_off_c, 2, 71, 64
1, 220227, Note_off_c, 2, 74, 64
1, 220233, Note_off_c, 4, 50, 64
1, 220332, Note_on_c, 4, 49, 127
1, 220436, Note_off_c, 4, 57, 64
1, 220437, Note_off_c, 2, 76, 64
1, 220437, Note_off_c, 2, 73, 64
1, 220456, Note_on_c, 1, 78, 126
1, 220457, Note_on_c, 4, 52, 127
1, 220457, Note_on_c, 2, 74, 127
1, 220470, Note_off_c, 4, 49, 64
1, 220520, Note_on_c, 2, 73, 127
1, 220520, Note_on_c, 2, 76, 127
1, 220530, Note_off_c, 2, 74, 64
1, 220531, Note_off_c, 1, 78, 64
1, 220583, Note_on_c, 2, 74, 127
1, 220584, Note_on_c, 2, 71, 127
1, 220592, Note_off_c, 2, 76, 64
1, 220592, Note_off_c, 2, 73, 64
1, 220643, Note_on_c, 2, 73, 127
1, 220643, Note_on_c, 2, 69, 126
1, 220653, Note_off_c, 2, 71, 64
1, 220654, Note_off_c, 2, 74, 64
1, 220704, Note_on_c, 2, 68, 126
1, 220704, Note_on_c, 2, 71, 127
1, 220715, Note_off_c, 2, 69, 64
1, 220715, Note_off_c, 2, 73, 64
1, 220960, Note_off_c, 2, 71, 64
1, 220960, Note_off_c, 2, 68, 64
1, 220960, Note_on_c, 2, 69, 126
1, 221208, Note_off_c, 4, 52, 64
1, 221209, Note_on_c, 4, 57, 127
1, 221209, Note_on_c, 4, 61, 127
1, 221271, Note_on_c, 4, 64, 124
1, 221277, Note_off_c, 2, 69, 64
1, 221333, Note_on_c, 2, 73, 127
1, 221385, Note_off_c, 2, 73, 64
1, 221395, Note_on_c, 2, 73, 127
1, 221447, Note_off_c, 2, 73, 64
1, 221458, Note_on_c, 2, 73, 127
1, 221459, Note_on_c, 4, 52, 127
1, 221459, Note_on_c, 4, 59, 127
1, 221460, Note_off_c, 4, 57, 64
1, 221461, Note_off_c, 4, 61, 64
1, 221510, Note_off_c, 2, 73, 64
1, 221510, Note_off_c, 4, 64, 64
1, 221520, Note_on_c, 2, 74, 127
1, 221583, Note_off_c, 2, 74, 64
1, 221583, Note_on_c, 2, 71, 127
1, 221584, Note_on_c, 4, 62, 127
1, 221645, Note_off_c, 2, 71, 64
1, 221646, Note_on_c, 2, 68, 126
1, 221704, Note_off_c, 2, 68, 64
1, 221704, Note_off_c, 4, 62, 64
1, 221705, Note_on_c, 4, 61, 127
1, 221705, Note_on_c, 2, 69, 126
1, 221706, Note_on_c, 4, 57, 127
1, 221707, Note_off_c, 4, 52, 64
1, 221708, Note_off_c, 4, 59, 64
1, 221830, Note_on_c, 1, 85, 122
1, 221830, Note_on_c, 4, 64, 124
1, 221844, Note_off_c, 4, 61, 64
1, 221844, Note_off_c, 4, 57, 64
1, 221845, Note_off_c, 2, 69, 64
1, 221959, Note_on_c, 1, 84, 122
1, 221960, Note_on_c, 4, 63, 127
1, 221974, Note_off_c, 4, 64, 64
1, 221974, Note_off_c, 1, 85, 64
1, 222083, Note_on_c, 1, 85, 122
1, 222083, Note_on_c, 4, 64, 124
1, 222096, Note_off_c, 1, 84, 64
1, 222096, Note_off_c, 4, 63, 64
1, 222206, Note_on_c, 4, 62, 127
1, 222206, Note_on_c, 1, 83, 122
1, 222218, Note_off_c, 4, 64, 64
1, 222219, Note_off_c, 1, 85, 64
1, 222331, Note_on_c, 1, 81, 122
1, 222331, Note_on_c, 4, 61, 127
1, 222343, Note_off_c, 4, 62, 64
1, 222344, Note_off_c, 1, 83, 64
1, 222456, Note_on_c, 2, 71, 127
1, 222469, Note_off_c, 1, 81, 64
1, 222471, Note_off_c, 4, 61, 64
1, 222704, Note_on_c, 4, 56, 127
1, 222705, Note_on_c, 4, 52, 127
1, 222767, Note_on_c, 4, 64, 124
1, 222788, Note_off_c, 2, 71, 64
1, 222828, Note_on_c, 2, 74, 127
1, 222880, Note_off_c, 2, 74, 64
1, 222891, Note_on_c, 2, 74, 127
1, 222932, Note_off_c, 4, 52, 64
1, 222941, Note_off_c, 2, 74, 64
1, 222953, Note_on_c, 4, 57, 127
1, 222953, Note_on_c, 2, 74, 127
1, 222954, Note_on_c, 4, 52, 127
1, 222958, Note_off_c, 4, 56, 64
1, 222994, Note_off_c, 4, 64, 64
1, 223016, Note_off_c, 2, 74, 64
1, 223016, Note_on_c, 2, 73, 127
1, 223078, Note_off_c, 2, 73, 64
1, 223078, Note_on_c, 2, 76, 127
1, 223142, Note_off_c, 2, 76, 64
1, 223142, Note_on_c, 2, 74, 127
1, 223181, Note_off_c, 4, 52, 64
1, 223201, Note_off_c, 2, 74, 64
1, 223201, Note_on_c, 2, 71, 127
1, 223202, Note_on_c, 4, 56, 127
1, 223202, Note_on_c, 4, 52, 127
1, 223205, Note_off_c, 4, 57, 64
1, 223326, Note_on_c, 1, 83, 122
1, 223327, Note_on_c, 4, 62, 127
1, 223337, Note_off_c, 2, 71, 64
1, 223341, Note_off_c, 4, 52, 64
1, 223341, Note_off_c, 4, 56, 64
1, 223455, Note_on_c, 1, 82, 122
1, 223455, Note_on_c, 4, 61, 127
1, 223469, Note_off_c, 4, 62, 64
1, 223470, Note_off_c, 1, 83, 64
1, 223578, Note_on_c, 1, 83, 122
1, 223579, Note_on_c, 4, 62, 127
1, 223592, Note_off_c, 4, 61, 64
1, 223593, Note_off_c, 1, 82, 64
1, 223701, Note_on_c, 1, 81, 122
1, 223702, Note_on_c, 4, 61, 127
1, 223715, Note_off_c, 4, 62, 64
1, 223716, Note_off_c, 1, 83, 64
1, 223826, Note_on_c, 4, 59, 127
1, 223826, Note_on_c, 1, 80, 122
1, 223840, Note_off_c, 4, 61, 64
1, 223840, Note_off_c, 1, 81, 64
1, 223953, Note_on_c, 2, 76, 127
1, 223966, Note_off_c, 4, 59, 64
1, 223967, Note_off_c, 1, 80, 64
1, 224201, Note_on_c, 2, 69, 126
1, 224202, Note_on_c, 4, 61, 127
1, 224202, Note_on_c, 4, 64, 124
1, 224244, Note_on_c, 1, 78, 122
1, 224276, Note_off_c, 2, 76, 64
1, 224292, Note_on_c, 1, 80, 122
1, 224303, Note_off_c, 1, 78, 64
1, 224336, Note_on_c, 1, 81, 122
1, 224347, Note_off_c, 1, 80, 64
1, 224380, Note_on_c, 1, 83, 122
1, 224391, Note_off_c, 1, 81, 64
1, 224424, Note_on_c, 1, 85, 126
1, 224436, Note_off_c, 1, 83, 64
1, 224468, Note_on_c, 1, 86, 126
1, 224469, Note_on_c, 4, 62, 127
1, 224469, Note_on_c, 2, 68, 126
1, 224470, Note_on_c, 4, 59, 127
1, 224472, Note_off_c, 4, 64, 64
1, 224472, Note_off_c, 4, 61, 64
1, 224473, Note_off_c, 2, 69, 64
1, 224479, Note_off_c, 1, 85, 64
1, 224678, Note_off_c, 1, 86, 64
1, 224688, Note_on_c, 2, 74, 127
1, 224719, Note_on_c, 2, 73, 127
1, 224723, Note_off_c, 2, 74, 64
1, 224970, Note_off_c, 4, 59, 64
1, 224971, Note_off_c, 2, 68, 64
1, 224971, Note_off_c, 4, 62, 64
1, 224972, Note_on_c, 4, 61, 127
1, 224972, Note_on_c, 4, 64, 124
1, 224973, Note_on_c, 4, 57, 127
1, 225010, Note_off_c, 2, 73, 64
1, 225012, Note_on_c, 2, 74, 127
1, 225060, Note_off_c, 2, 74, 64
1, 225060, Note_on_c, 2, 76, 125
1, 225108, Note_off_c, 2, 76, 64
1, 225109, Note_on_c, 1, 78, 122
1, 225154, Note_off_c, 1, 78, 64
1, 225154, Note_on_c, 1, 80, 122
1, 225199, Note_off_c, 1, 80, 64
1, 225199, Note_on_c, 1, 81, 122
1, 225242, Note_off_c, 1, 81, 64
1, 225242, Note_on_c, 1, 83, 126
1, 225243, Note_on_c, 4, 52, 127
1, 225243, Note_on_c, 4, 56, 127
1, 225244, Note_on_c, 4, 50, 127
1, 225246, Note_off_c, 4, 61, 64
1, 225246, Note_off_c, 4, 57, 64
1, 225247, Note_off_c, 4, 64, 64
1, 225464, Note_off_c, 1, 83, 64
1, 225464, Note_on_c, 1, 80, 122
1, 225493, Note_on_c, 1, 83, 126
1, 225505, Note_off_c, 1, 80, 64
1, 225559, Note_on_c, 1, 81, 122
1, 225561, Note_off_c, 1, 83, 64
1, 225618, Note_off_c, 4, 52, 64
1, 225622, Note_off_c, 4, 50, 64
1, 225623, Note_off_c, 4, 56, 64
1, 225623, Note_on_c, 4, 57, 127
1, 225624, Note_on_c, 4, 49, 127
1, 225624, Note_on_c, 4, 52, 127
1, 225720, Note_off_c, 1, 81, 64
1, 225720, Note_on_c, 2, 76, 125
1, 225752, Note_on_c, 1, 79, 122
1, 225762, Note_off_c, 2, 76, 64
1, 225816, Note_on_c, 1, 78, 122
1, 225821, Note_off_c, 1, 79, 64
1, 225869, Note_off_c, 4, 57, 64
1, 225880, Note_on_c, 4, 57, 127
1, 225881, Note_on_c, 4, 50, 127
1, 225881, Note_on_c, 4, 54, 127
1, 225885, Note_off_c, 4, 49, 64
1, 225886, Note_off_c, 4, 52, 64
1, 225977, Note_off_c, 1, 78, 64
1, 225977, Note_on_c, 2, 73, 127
1, 226008, Note_on_c, 2, 76, 125
1, 226020, Note_off_c, 2, 73, 64
1, 226074, Note_on_c, 2, 74, 127
1, 226075, Note_off_c, 2, 76, 64
1, 226128, Note_off_c, 4, 57, 64
1, 226128, Note_off_c, 4, 54, 64
1, 226138, Note_on_c, 4, 62, 127
1, 226139, Note_on_c, 4, 54, 127
1, 226139, Note_on_c, 4, 57, 127
1, 226235, Note_off_c, 2, 74, 64
1, 226236, Note_on_c, 2, 69, 126
1, 226267, Note_on_c, 2, 73, 127
1, 226272, Note_off_c, 2, 69, 64
1, 226326, Note_off_c, 2, 73, 64
1, 226328, Note_on_c, 2, 71, 127
1, 226384, Note_off_c, 4, 62, 64
1, 226395, Note_off_c, 4, 50, 64
1, 226396, Note_on_c, 4, 52, 127
1, 226396, Note_on_c, 4, 62, 127
1, 226461, Note_on_c, 2, 68, 126
1, 226472, Note_off_c, 2, 71, 64
1, 226518, Note_off_c, 2, 68, 64
1, 226519, Note_off_c, 4, 62, 64
1, 226523, Note_off_c, 4, 57, 64
1, 226523, Note_off_c, 4, 54, 64
1, 226530, Note_on_c, 4, 62, 127
1, 226530, Note_on_c, 2, 68, 126
1, 226531, Note_on_c, 4, 57, 127
1, 226652, Note_off_c, 4, 52, 64
1, 226663, Note_on_c, 4, 52, 127
1, 226807, Note_on_c, 2, 69, 126
1, 226808, Note_on_c, 4, 45, 127
1, 226808, Note_on_c, 4, 61, 127
1, 226814, Note_off_c, 2, 68, 64
1, 226814, Note_off_c, 4, 62, 64
1, 226814, Note_off_c, 4, 57, 64
1, 226946, Note_off_c, 4, 52, 64
1, 226960, Note_on_c, 4, 65, 126
1, 226975, Note_off_c, 4, 61, 64
1, 226976, Note_off_c, 2, 69, 64
1, 227118, Note_on_c, 4, 66, 126
1, 227119, Note_on_c, 4, 54, 125
1, 227121, Note_off_c, 4, 45, 64
1, 227133, Note_off_c, 4, 65, 64
1, 227183, Note_on_c, 4, 61, 127
1, 227248, Note_on_c, 4, 57, 125
1, 227263, Note_off_c, 4, 54, 64
1, 227311, Note_off_c, 4, 61, 64
1, 227315, Note_on_c, 4, 61, 127
1, 227384, Note_on_c, 4, 54, 125
1, 227398, Note_off_c, 4, 57, 64
1, 227403, Note_off_c, 4, 66, 64
1, 227451, Note_off_c, 4, 61, 64
1, 227453, Note_on_c, 2, 73, 117
1, 227455, Note_on_c, 4, 61, 127
1, 227501, Note_off_c, 2, 73, 64
1, 227524, Note_on_c, 2, 73, 117
1, 227525, Note_on_c, 4, 57, 125
1, 227539, Note_off_c, 4, 54, 64
1, 227568, Note_off_c, 2, 73, 64
1, 227588, Note_off_c, 4, 61, 64
1, 227588, Note_on_c, 2, 73, 117
1, 227590, Note_on_c, 4, 61, 127
1, 227634, Note_off_c, 2, 73, 64
1, 227657, Note_on_c, 4, 54, 125
1, 227657, Note_on_c, 2, 73, 117
1, 227673, Note_off_c, 4, 57, 64
1, 227702, Note_off_c, 2, 73, 64
1, 227721, Note_off_c, 4, 61, 64
1, 227725, Note_on_c, 4, 61, 127
1, 227725, Note_on_c, 2, 73, 127
1, 227770, Note_off_c, 2, 73, 64
1, 227791, Note_on_c, 2, 73, 127
1, 227793, Note_on_c, 4, 57, 125
1, 227807, Note_off_c, 4, 54, 64
1, 227837, Note_off_c, 2, 73, 64
1, 227858, Note_off_c, 4, 61, 64
1, 227859, Note_on_c, 2, 73, 127
1, 227860, Note_on_c, 4, 61, 127
1, 227914, Note_off_c, 2, 73, 64
1, 227926, Note_on_c, 2, 74, 122
1, 227928, Note_on_c, 4, 53, 125
1, 227947, Note_off_c, 4, 57, 64
1, 227966, Note_on_c, 2, 73, 122
1, 227972, Note_off_c, 2, 74, 64
1, 228000, Note_off_c, 4, 61, 64
1, 228002, Note_on_c, 2, 74, 122
1, 228004, Note_on_c, 4, 59, 127
1, 228008, Note_off_c, 2, 73, 64
1, 228039, Note_on_c, 2, 73, 122
1, 228045, Note_off_c, 2, 74, 64
1, 228075, Note_on_c, 2, 74, 119
1, 228076, Note_on_c, 4, 56, 125
1, 228080, Note_off_c, 2, 73, 64
1, 228094, Note_off_c, 4, 53, 64
1, 228113, Note_on_c, 2, 73, 124
1, 228117, Note_off_c, 2, 74, 64
1, 228148, Note_off_c, 4, 59, 64
1, 228151, Note_on_c, 2, 71, 123
1, 228152, Note_on_c, 4, 59, 127
1, 228156, Note_off_c, 2, 73, 64
1, 228187, Note_on_c, 2, 73, 124
1, 228191, Note_off_c, 2, 71, 64
1, 228223, Note_on_c, 4, 53, 125
1, 228239, Note_off_c, 4, 56, 64
1, 228267, Note_off_c, 2, 73, 64
1, 228287, Note_off_c, 4, 59, 64
1, 228290, Note_on_c, 2, 73, 127
1, 228291, Note_on_c, 4, 59, 127
1, 228336, Note_off_c, 2, 73, 64
1, 228359, Note_on_c, 2, 73, 127
1, 228360, Note_on_c, 4, 56, 125
1, 228375, Note_off_c, 4, 53, 64
1, 228406, Note_off_c, 2, 73, 64
1, 228427, Note_off_c, 4, 59, 64
1, 228429, Note_on_c, 2, 73, 127
1, 228430, Note_on_c, 4, 59, 127
1, 228475, Note_off_c, 2, 73, 64
1, 228498, Note_on_c, 2, 73, 127
1, 228499, Note_on_c, 4, 53, 125
1, 228513, Note_off_c, 4, 56, 64
1, 228544, Note_off_c, 2, 73, 64
1, 228565, Note_off_c, 4, 59, 64
1, 228567, Note_on_c, 2, 73, 127
1, 228569, Note_on_c, 4, 59, 127
1, 228613, Note_off_c, 2, 73, 64
1, 228636, Note_on_c, 2, 73, 127
1, 228638, Note_on_c, 4, 56, 125
1, 228651, Note_off_c, 4, 53, 64
1, 228681, Note_off_c, 2, 73, 64
1, 228702, Note_off_c, 4, 59, 64
1, 228704, Note_on_c, 2, 73, 127
1, 228705, Note_on_c, 4, 59, 127
1, 228767, Note_off_c, 2, 73, 64
1, 228773, Note_on_c, 2, 74, 122
1, 228775, Note_on_c, 4, 52, 125
1, 228793, Note_off_c, 4, 56, 64
1, 228813, Note_on_c, 2, 73, 122
1, 228816, Note_off_c, 2, 74, 64
1, 228847, Note_off_c, 4, 59, 64
1, 228852, Note_on_c, 4, 58, 124
1, 228852, Note_on_c, 2, 74, 122
1, 228856, Note_off_c, 2, 73, 64
1, 228888, Note_on_c, 2, 73, 119
1, 228891, Note_off_c, 2, 74, 64
1, 228926, Note_on_c, 2, 74, 119
1, 228927, Note_on_c, 4, 55, 125
1, 228932, Note_off_c, 2, 73, 64
1, 228944, Note_off_c, 4, 52, 64
1, 228965, Note_on_c, 2, 73, 119
1, 228970, Note_off_c, 2, 74, 64
1, 229000, Note_off_c, 4, 58, 64
1, 229002, Note_on_c, 2, 71, 123
1, 229004, Note_on_c, 4, 58, 124
1, 229008, Note_off_c, 2, 73, 64
1, 229039, Note_on_c, 2, 73, 124
1, 229043, Note_off_c, 2, 71, 64
1, 229073, Note_on_c, 4, 52, 125
1, 229089, Note_off_c, 4, 55, 64
1, 229117, Note_off_c, 2, 73, 64
1, 229139, Note_off_c, 4, 58, 64
1, 229140, Note_on_c, 2, 73, 127
1, 229142, Note_on_c, 4, 58, 124
1, 229187, Note_off_c, 2, 73, 64
1, 229210, Note_on_c, 2, 73, 127
1, 229210, Note_on_c, 4, 55, 125
1, 229226, Note_off_c, 4, 52, 64
1, 229255, Note_off_c, 2, 73, 64
1, 229274, Note_off_c, 4, 58, 64
1, 229276, Note_on_c, 2, 73, 127
1, 229278, Note_on_c, 4, 58, 124
1, 229324, Note_off_c, 2, 73, 64
1, 229347, Note_on_c, 2, 73, 127
1, 229349, Note_on_c, 4, 52, 125
1, 229364, Note_off_c, 4, 55, 64
1, 229395, Note_off_c, 2, 73, 64
1, 229414, Note_off_c, 4, 58, 64
1, 229418, Note_on_c, 4, 58, 124
1, 229418, Note_on_c, 2, 73, 127
1, 229463, Note_off_c, 2, 73, 64
1, 229488, Note_on_c, 2, 73, 127
1, 229488, Note_on_c, 4, 55, 125
1, 229503, Note_off_c, 4, 52, 64
1, 229534, Note_off_c, 2, 73, 64
1, 229555, Note_off_c, 4, 58, 64
1, 229557, Note_on_c, 2, 73, 127
1, 229559, Note_on_c, 4, 58, 124
1, 229628, Note_on_c, 1, 78, 124
1, 229629, Note_on_c, 4, 51, 125
1, 229639, Note_off_c, 2, 73, 64
1, 229644, Note_off_c, 4, 55, 64
1, 229696, Note_off_c, 4, 58, 64
1, 229698, Note_on_c, 4, 59, 127
1, 229769, Note_on_c, 4, 54, 125
1, 229785, Note_off_c, 4, 51, 64
1, 229812, Note_off_c, 1, 78, 64
1, 229836, Note_off_c, 4, 59, 64
1, 229840, Note_on_c, 2, 75, 127
1, 229841, Note_on_c, 4, 59, 127
1, 229908, Note_off_c, 2, 75, 64
1, 229910, Note_on_c, 2, 71, 127
1, 229911, Note_on_c, 4, 51, 125
1, 229927, Note_off_c, 4, 54, 64
1, 229977, Note_off_c, 4, 59, 64
1, 229980, Note_on_c, 4, 59, 127
1, 230052, Note_off_c, 4, 51, 64
1, 230055, Note_on_c, 4, 51, 125
1, 230121, Note_off_c, 4, 59, 64
1, 230124, Note_on_c, 4, 59, 127
1, 230192, Note_off_c, 4, 51, 64
1, 230196, Note_on_c, 4, 51, 125
1, 230261, Note_off_c, 4, 59, 64
1, 230263, Note_on_c, 4, 59, 127
1, 230334, Note_on_c, 4, 54, 125
1, 230349, Note_off_c, 4, 51, 64
1, 230399, Note_off_c, 4, 59, 64
1, 230403, Note_on_c, 4, 59, 127
1, 230470, Note_off_c, 2, 71, 64
1, 230471, Note_on_c, 1, 81, 127
1, 230471, Note_on_c, 4, 50, 125
1, 230483, Note_off_c, 4, 54, 64
1, 230532, Note_off_c, 4, 59, 64
1, 230537, Note_on_c, 4, 60, 127
1, 230602, Note_on_c, 4, 54, 125
1, 230617, Note_off_c, 4, 50, 64
1, 230661, Note_off_c, 1, 81, 64
1, 230667, Note_off_c, 4, 60, 64
1, 230671, Note_on_c, 1, 78, 126
1, 230671, Note_on_c, 4, 60, 127
1, 230743, Note_on_c, 2, 72, 127
1, 230744, Note_on_c, 4, 50, 125
1, 230748, Note_off_c, 1, 78, 64
1, 230757, Note_off_c, 4, 54, 64
1, 230807, Note_off_c, 4, 60, 64
1, 230811, Note_on_c, 4, 60, 127
1, 230880, Note_on_c, 4, 54, 125
1, 230894, Note_off_c, 4, 50, 64
1, 230947, Note_off_c, 4, 60, 64
1, 230952, Note_on_c, 4, 60, 127
1, 231023, Note_on_c, 4, 50, 125
1, 231038, Note_off_c, 4, 54, 64
1, 231086, Note_off_c, 4, 60, 64
1, 231089, Note_on_c, 4, 57, 125
1, 231146, Note_off_c, 2, 72, 64
1, 231160, Note_on_c, 2, 72, 127
1, 231160, Note_on_c, 4, 54, 125
1, 231172, Note_off_c, 4, 57, 64
1, 231176, Note_off_c, 4, 50, 64
1, 231232, Note_on_c, 4, 57, 125
1, 231243, Note_off_c, 4, 54, 64
1, 231300, Note_off_c, 4, 57, 64
1, 231309, Note_off_c, 2, 72, 64
1, 231309, Note_on_c, 2, 73, 127
1, 231310, Note_on_c, 4, 49, 125
1, 231310, Note_on_c, 4, 53, 125
1, 231379, Note_on_c, 4, 61, 127
1, 231456, Note_off_c, 4, 61, 64
1, 231457, Note_on_c, 4, 60, 127
1, 231498, Note_off_c, 2, 73, 64
1, 231532, Note_off_c, 4, 60, 64
1, 231533, Note_on_c, 4, 61, 127
1, 231600, Note_off_c, 4, 61, 64
1, 231601, Note_on_c, 4, 60, 127
1, 231672, Note_off_c, 4, 60, 64
1, 231673, Note_on_c, 4, 61, 127
1, 231741, Note_off_c, 4, 61, 64
1, 231741, Note_on_c, 4, 60, 127
1, 231813, Note_off_c, 4, 60, 64
1, 231813, Note_on_c, 4, 61, 127
1, 231877, Note_off_c, 4, 61, 64
1, 231877, Note_on_c, 4, 60, 127
1, 231951, Note_off_c, 4, 60, 64
1, 231951, Note_on_c, 4, 61, 127
1, 232015, Note_off_c, 4, 61, 64
1, 232016, Note_on_c, 4, 60, 127
1, 232087, Note_off_c, 4, 60, 64
1, 232088, Note_on_c, 4, 61, 127
1, 232157, Note_off_c, 4, 61, 64
1, 232158, Note_off_c, 4, 53, 64
1, 232158, Note_off_c, 4, 49, 64
1, 232159, Note_on_c, 4, 62, 127
1, 232159, Note_on_c, 4, 50, 127
1, 232228, Note_on_c, 4, 57, 127
1, 232299, Note_on_c, 4, 52, 127
1, 232315, Note_off_c, 4, 50, 64
1, 232367, Note_off_c, 4, 57, 64
1, 232370, Note_on_c, 4, 57, 127
1, 232441, Note_on_c, 4, 54, 127
1, 232457, Note_off_c, 4, 52, 64
1, 232509, Note_off_c, 4, 57, 64
1, 232512, Note_on_c, 4, 57, 127
1, 232580, Note_off_c, 4, 62, 64
1, 232582, Note_on_c, 4, 61, 127
1, 232582, Note_on_c, 4, 55, 127
1, 232600, Note_off_c, 4, 54, 64
1, 232602, Note_on_c, 4, 62, 127
1, 232613, Note_off_c, 4, 61, 64
1, 232631, Note_on_c, 4, 61, 127
1, 232637, Note_off_c, 4, 62, 64
1, 232662, Note_off_c, 4, 57, 64
1, 232666, Note_on_c, 4, 57, 127
1, 232733, Note_off_c, 4, 61, 64
1, 232734, Note_on_c, 4, 54, 127
1, 232734, Note_on_c, 4, 62, 127
1, 232748, Note_off_c, 4, 55, 64
1, 232800, Note_off_c, 4, 57, 64
1, 232803, Note_on_c, 4, 57, 127
1, 232874, Note_off_c, 4, 62, 64
1, 232874, Note_on_c, 4, 55, 127
1, 232874, Note_on_c, 4, 61, 127
1, 232894, Note_off_c, 4, 54, 64
1, 232896, Note_on_c, 4, 62, 127
1, 232908, Note_off_c, 4, 61, 64
1, 232924, Note_on_c, 4, 61, 127
1, 232930, Note_off_c, 4, 62, 64
1, 232955, Note_off_c, 4, 57, 64
1, 232959, Note_on_c, 4, 57, 127
1, 233028, Note_off_c, 4, 61, 64
1, 233029, Note_on_c, 4, 54, 127
1, 233029, Note_on_c, 4, 62, 127
1, 233044, Note_off_c, 4, 55, 64
1, 233096, Note_off_c, 4, 57, 64
1, 233100, Note_on_c, 4, 57, 127
1, 233160, Note_off_c, 4, 62, 64
1, 233169, Note_on_c, 4, 64, 124
1, 233170, Note_on_c, 4, 49, 127
1, 233189, Note_off_c, 4, 54, 64
1, 233191, Note_on_c, 4, 66, 126
1, 233205, Note_off_c, 4, 64, 64
1, 233220, Note_on_c, 4, 64, 124
1, 233232, Note_off_c, 4, 66, 64
1, 233251, Note_off_c, 4, 57, 64
1, 233253, Note_on_c, 4, 57, 127
1, 233322, Note_off_c, 4, 64, 64
1, 233323, Note_on_c, 4, 66, 126
1, 233323, Note_on_c, 4, 50, 127
1, 233337, Note_off_c, 4, 49, 64
1, 233386, Note_off_c, 4, 57, 64
1, 233388, Note_on_c, 4, 57, 127
1, 233453, Note_off_c, 4, 66, 64
1, 233458, Note_on_c, 4, 52, 127
1, 233458, Note_on_c, 2, 69, 126
1, 233473, Note_off_c, 4, 50, 64
1, 233523, Note_off_c, 4, 57, 64
1, 233526, Note_on_c, 2, 67, 126
1, 233526, Note_on_c, 4, 57, 127
1, 233538, Note_off_c, 2, 69, 64
1, 233592, Note_on_c, 4, 66, 126
1, 233592, Note_on_c, 4, 50, 127
1, 233596, Note_off_c, 2, 67, 64
1, 233608, Note_off_c, 4, 52, 64
1, 233658, Note_off_c, 4, 57, 64
1, 233662, Note_on_c, 4, 57, 127
1, 233733, Note_on_c, 4, 64, 124
1, 233734, Note_on_c, 4, 49, 127
1, 233748, Note_off_c, 4, 50, 64
1, 233748, Note_off_c, 4, 66, 64
1, 233801, Note_off_c, 4, 57, 64
1, 233805, Note_on_c, 4, 57, 127
1, 233868, Note_off_c, 4, 64, 64
1, 233880, Note_on_c, 4, 64, 124
1, 233880, Note_on_c, 4, 45, 127
1, 233894, Note_off_c, 4, 49, 64
1, 233942, Note_off_c, 4, 57, 64
1, 233946, Note_on_c, 4, 57, 127
1, 234017, Note_on_c, 4, 47, 127
1, 234033, Note_off_c, 4, 45, 64
1, 234082, Note_off_c, 4, 57, 64
1, 234085, Note_on_c, 4, 57, 127
1, 234156, Note_on_c, 4, 49, 127
1, 234172, Note_off_c, 4, 47, 64
1, 234222, Note_off_c, 4, 57, 64
1, 234226, Note_on_c, 4, 57, 127
1, 234289, Note_off_c, 4, 64, 64
1, 234295, Note_on_c, 4, 64, 124
1, 234295, Note_on_c, 4, 47, 127
1, 234311, Note_off_c, 4, 49, 64
1, 234326, Note_off_c, 4, 64, 64
1, 234332, Note_on_c, 4, 63, 127
1, 234359, Note_off_c, 4, 63, 64
1, 234367, Note_off_c, 4, 57, 64
1, 234371, Note_on_c, 4, 57, 127
1, 234371, Note_on_c, 4, 64, 124
1, 234398, Note_off_c, 4, 64, 64
1, 234404, Note_on_c, 4, 63, 127
1, 234429, Note_off_c, 4, 63, 64
1, 234435, Note_on_c, 4, 49, 127
1, 234435, Note_on_c, 4, 64, 124
1, 234451, Note_off_c, 4, 47, 64
1, 234497, Note_off_c, 4, 57, 64
1, 234501, Note_on_c, 4, 57, 127
1, 234568, Note_on_c, 4, 63, 127
1, 234569, Note_on_c, 4, 47, 127
1, 234575, Note_off_c, 4, 64, 64
1, 234588, Note_off_c, 4, 49, 64
1, 234589, Note_on_c, 4, 64, 124
1, 234598, Note_off_c, 4, 63, 64
1, 234613, Note_on_c, 4, 63, 127
1, 234619, Note_off_c, 4, 64, 64
1, 234646, Note_off_c, 4, 57, 64
1, 234650, Note_on_c, 4, 57, 127
1, 234721, Note_off_c, 4, 63, 64
1, 234721, Note_on_c, 4, 64, 124
1, 234722, Note_on_c, 4, 49, 127
1, 234737, Note_off_c, 4, 47, 64
1, 234789, Note_off_c, 4, 57, 64
1, 234793, Note_on_c, 4, 57, 127
1, 234862, Note_on_c, 4, 66, 126
1, 234863, Note_on_c, 4, 50, 127
1, 234865, Note_off_c, 4, 64, 64
1, 234880, Note_off_c, 4, 66, 64
1, 234881, Note_off_c, 4, 49, 64
1, 234883, Note_on_c, 2, 67, 126
1, 234900, Note_off_c, 2, 67, 64
1, 234906, Note_on_c, 4, 66, 126
1, 234937, Note_off_c, 4, 57, 64
1, 234939, Note_on_c, 4, 57, 127
1, 235012, Note_off_c, 4, 66, 64
1, 235012, Note_on_c, 2, 67, 126
1, 235013, Note_on_c, 4, 52, 127
1, 235026, Note_off_c, 4, 50, 64
1, 235078, Note_off_c, 4, 57, 64
1, 235082, Note_on_c, 4, 57, 127
1, 235151, Note_on_c, 2, 71, 127
1, 235152, Note_on_c, 4, 54, 127
1, 235158, Note_off_c, 2, 67, 64
1, 235165, Note_off_c, 4, 52, 64
1, 235216, Note_off_c, 4, 57, 64
1, 235220, Note_on_c, 2, 69, 126
1, 235220, Note_on_c, 4, 57, 127
1, 235224, Note_off_c, 2, 71, 64
1, 235282, Note_on_c, 2, 67, 126
1, 235283, Note_on_c, 4, 52, 127
1, 235293, Note_off_c, 2, 69, 64
1, 235296, Note_off_c, 4, 54, 64
1, 235346, Note_off_c, 4, 57, 64
1, 235348, Note_on_c, 4, 57, 127
1, 235417, Note_off_c, 2, 67, 64
1, 235419, Note_on_c, 4, 50, 127
1, 235419, Note_on_c, 4, 66, 126
1, 235431, Note_off_c, 4, 52, 64
1, 235481, Note_off_c, 4, 57, 64
1, 235486, Note_on_c, 4, 57, 127
1, 235507, Note_off_c, 4, 66, 64
1, 235522, Note_on_c, 4, 66, 126
1, 235574, Note_off_c, 4, 66, 64
1, 235578, Note_on_c, 4, 66, 126
1, 235578, Note_on_c, 1, 78, 127
1, 235697, Note_off_c, 1, 78, 64
1, 235717, Note_off_c, 4, 57, 64
1, 235720, Note_off_c, 4, 50, 64
1, 235730, Note_on_c, 1, 78, 126
1, 235731, Note_on_c, 4, 57, 127
1, 235731, Note_on_c, 4, 54, 127
1, 235732, Note_on_c, 4, 50, 127
1, 235752, Note_off_c, 4, 66, 64
1, 235863, Note_off_c, 4, 50, 64
1, 235863, Note_off_c, 4, 54, 64
1, 235864, Note_off_c, 4, 57, 64
1, 235873, Note_on_c, 4, 57, 127
1, 235874, Note_on_c, 4, 50, 127
1, 235874, Note_on_c, 4, 54, 127
1, 236002, Note_on_c, 2, 76, 127
1, 236021, Note_off_c, 1, 78, 64
1, 236035, Note_on_c, 2, 74, 127
1, 236050, Note_off_c, 2, 76, 64
1, 236131, Note_on_c, 2, 73, 127
1, 236142, Note_off_c, 2, 74, 64
1, 236163, Note_on_c, 2, 71, 127
1, 236175, Note_off_c, 2, 73, 64
1, 236267, Note_on_c, 2, 70, 126
1, 236279, Note_off_c, 2, 71, 64
1, 236302, Note_off_c, 2, 70, 64
1, 236302, Note_on_c, 2, 71, 127
1, 236408, Note_on_c, 4, 62, 127
1, 236429, Note_off_c, 2, 71, 64
1, 236447, Note_on_c, 2, 74, 127
1, 236564, Note_off_c, 2, 74, 64
1, 236568, Note_off_c, 4, 57, 64
1, 236568, Note_off_c, 4, 54, 64
1, 236568, Note_off_c, 4, 50, 64
1, 236569, Note_on_c, 4, 56, 127
1, 236569, Note_on_c, 2, 74, 127
1, 236570, Note_on_c, 4, 47, 127
1, 236570, Note_on_c, 4, 52, 127
1, 236603, Note_off_c, 4, 62, 64
1, 236697, Note_off_c, 4, 47, 64
1, 236698, Note_off_c, 4, 56, 64
1, 236698, Note_off_c, 4, 52, 64
1, 236708, Note_on_c, 4, 52, 127
1, 236708, Note_on_c, 4, 56, 127
1, 236709, Note_on_c, 4, 47, 127
1, 236803, Note_off_c, 2, 74, 64
1, 236818, Note_on_c, 2, 73, 127
1, 236851, Note_on_c, 2, 71, 127
1, 236864, Note_off_c, 2, 73, 64
1, 236950, Note_on_c, 2, 69, 126
1, 236957, Note_off_c, 2, 71, 64
1, 236983, Note_on_c, 2, 68, 126
1, 236986, Note_off_c, 2, 69, 64
1, 237082, Note_off_c, 2, 68, 64
1, 237084, Note_on_c, 4, 66, 126
1, 237119, Note_on_c, 4, 64, 124
1, 237130, Note_off_c, 4, 66, 64
1, 237257, Note_off_c, 4, 64, 64
1, 237261, Note_on_c, 4, 64, 124
1, 237389, Note_on_c, 2, 76, 127
1, 237512, Note_off_c, 4, 47, 64
1, 237513, Note_off_c, 4, 56, 64
1, 237513, Note_off_c, 4, 52, 64
1, 237514, Note_off_c, 4, 64, 64
1, 237524, Note_on_c, 4, 52, 127
1, 237524, Note_on_c, 4, 57, 127
1, 237525, Note_on_c, 4, 49, 127
1, 237648, Note_off_c, 2, 76, 64
1, 237649, Note_on_c, 2, 69, 126
1, 237771, Note_off_c, 4, 57, 64
1, 237782, Note_on_c, 4, 57, 127
1, 237782, Note_on_c, 1, 81, 126
1, 237783, Note_on_c, 4, 54, 127
1, 237785, Note_off_c, 4, 52, 64
1, 237785, Note_off_c, 4, 49, 64
1, 237900, Note_off_c, 2, 69, 64
1, 237911, Note_on_c, 2, 74, 127
1, 238034, Note_off_c, 1, 81, 64
1, 238045, Note_on_c, 2, 73, 127
1, 238058, Note_off_c, 2, 74, 64
1, 238170, Note_on_c, 2, 76, 127
1, 238183, Note_off_c, 2, 73, 64
1, 238293, Note_off_c, 4, 54, 64
1, 238294, Note_off_c, 4, 57, 64
1, 238294, Note_on_c, 4, 56, 127
1, 238295, Note_on_c, 4, 52, 127
1, 238408, Note_off_c, 2, 76, 64
1, 238412, Note_on_c, 2, 75, 127
1, 238533, Note_on_c, 2, 74, 127
1, 238534, Note_on_c, 4, 40, 127
1, 238546, Note_off_c, 2, 75, 64
1, 238655, Note_on_c, 2, 71, 127
1, 238668, Note_off_c, 2, 74, 64
1, 238780, Note_off_c, 4, 56, 64
1, 238780, Note_off_c, 4, 52, 64
1, 238781, Note_on_c, 4, 57, 127
1, 238781, Note_on_c, 2, 73, 127
1, 238791, Note_off_c, 4, 40, 64
1, 238795, Note_off_c, 2, 71, 64
1, 238844, Note_on_c, 2, 76, 121
1, 238845, Note_on_c, 4, 64, 124
1, 238855, Note_off_c, 2, 73, 64
1, 238908, Note_on_c, 1, 78, 118
1, 238909, Note_on_c, 4, 61, 127
1, 238919, Note_off_c, 2, 76, 64
1, 238921, Note_off_c, 4, 57, 64
1, 238969, Note_off_c, 4, 64, 64
1, 238971, Note_on_c, 4, 64, 124
1, 238971, Note_on_c, 1, 80, 118
1, 238981, Note_off_c, 1, 78, 64
1, 239033, Note_on_c, 1, 81, 118
1, 239034, Note_on_c, 4, 57, 127
1, 239044, Note_off_c, 1, 80, 64
1, 239046, Note_off_c, 4, 61, 64
1, 239090, Note_off_c, 4, 64, 64
1, 239094, Note_on_c, 1, 83, 118
1, 239094, Note_on_c, 4, 64, 124
1, 239102, Note_off_c, 1, 81, 64
1, 239152, Note_on_c, 1, 85, 118
1, 239153, Note_on_c, 4, 61, 127
1, 239163, Note_off_c, 1, 83, 64
1, 239167, Note_off_c, 4, 57, 64
1, 239209, Note_off_c, 4, 64, 64
1, 239213, Note_on_c, 4, 64, 124
1, 239213, Note_on_c, 1, 86, 118
1, 239221, Note_off_c, 1, 85, 64
1, 239271, Note_on_c, 1, 88, 120
1, 239272, Note_on_c, 4, 57, 127
1, 239282, Note_off_c, 1, 86, 64
1, 239284, Note_off_c, 4, 61, 64
1, 239340, Note_off_c, 4, 64, 64
1, 239341, Note_on_c, 1, 85, 118
1, 239342, Note_on_c, 4, 64, 124
1, 239350, Note_off_c, 1, 88, 64
1, 239398, Note_on_c, 1, 80, 118
1, 239399, Note_on_c, 4, 61, 127
1, 239409, Note_off_c, 1, 85, 64
1, 239410, Note_off_c, 4, 57, 64
1, 239454, Note_off_c, 4, 64, 64
1, 239458, Note_on_c, 4, 64, 124
1, 239458, Note_on_c, 1, 81, 118
1, 239468, Note_off_c, 1, 80, 64
1, 239520, Note_on_c, 1, 86, 118
1, 239520, Note_on_c, 4, 59, 127
1, 239532, Note_off_c, 1, 81, 64
1, 239536, Note_off_c, 4, 61, 64
1, 239582, Note_off_c, 4, 64, 64
1, 239586, Note_on_c, 1, 83, 118
1, 239587, Note_on_c, 4, 64, 124
1, 239595, Note_off_c, 1, 86, 64
1, 239643, Note_on_c, 4, 62, 127
1, 239643, Note_on_c, 1, 78, 118
1, 239653, Note_off_c, 1, 83, 64
1, 239657, Note_off_c, 4, 59, 64
1, 239700, Note_off_c, 4, 64, 64
1, 239701, Note_on_c, 1, 80, 118
1, 239702, Note_on_c, 4, 64, 124
1, 239712, Note_off_c, 1, 78, 64
1, 239758, Note_on_c, 1, 83, 118
1, 239759, Note_on_c, 4, 56, 127
1, 239767, Note_off_c, 1, 80, 64
1, 239771, Note_off_c, 4, 62, 64
1, 239817, Note_off_c, 4, 64, 64
1, 239820, Note_on_c, 1, 80, 118
1, 239821, Note_on_c, 4, 64, 124
1, 239829, Note_off_c, 1, 83, 64
1, 239876, Note_on_c, 4, 59, 127
1, 239876, Note_on_c, 2, 75, 121
1, 239884, Note_off_c, 1, 80, 64
1, 239888, Note_off_c, 4, 56, 64
1, 239932, Note_off_c, 4, 64, 64
1, 239936, Note_on_c, 4, 64, 124
1, 239936, Note_on_c, 2, 76, 121
1, 239946, Note_off_c, 2, 75, 64
1, 239997, Note_on_c, 4, 52, 127
1, 239997, Note_on_c, 1, 78, 118
1, 240007, Note_off_c, 2, 76, 64
1, 240011, Note_off_c, 4, 59, 64
1, 240057, Note_off_c, 4, 64, 64
1, 240060, Note_on_c, 2, 74, 121
1, 240061, Note_on_c, 4, 64, 124
1, 240071, Note_off_c, 1, 78, 64
1, 240118, Note_on_c, 4, 56, 127
1, 240118, Note_on_c, 2, 70, 126
1, 240128, Note_off_c, 2, 74, 64
1, 240130, Note_off_c, 4, 52, 64
1, 240174, Note_off_c, 4, 64, 64
1, 240176, Note_on_c, 2, 71, 127
1, 240177, Note_on_c, 4, 64, 124
1, 240187, Note_off_c, 2, 70, 64
1, 240235, Note_on_c, 4, 57, 127
1, 240235, Note_on_c, 2, 73, 127
1, 240249, Note_off_c, 2, 71, 64
1, 240251, Note_off_c, 4, 56, 64
1, 240297, Note_off_c, 4, 64, 64
1, 240301, Note_on_c, 2, 76, 121
1, 240301, Note_on_c, 4, 64, 124
1, 240309, Note_off_c, 2, 73, 64
1, 240360, Note_on_c, 4, 61, 127
1, 240360, Note_on_c, 1, 78, 118
1, 240368, Note_off_c, 2, 76, 64
1, 240372, Note_off_c, 4, 57, 64
1, 240416, Note_off_c, 4, 64, 64
1, 240418, Note_on_c, 1, 80, 118
1, 240419, Note_on_c, 4, 64, 124
1, 240429, Note_off_c, 1, 78, 64
1, 240480, Note_on_c, 1, 81, 118
1, 240481, Note_on_c, 4, 57, 127
1, 240491, Note_off_c, 1, 80, 64
1, 240496, Note_off_c, 4, 61, 64
1, 240540, Note_off_c, 4, 64, 64
1, 240542, Note_on_c, 1, 83, 118
1, 240542, Note_on_c, 4, 64, 124
1, 240552, Note_off_c, 1, 81, 64
1, 240600, Note_on_c, 4, 61, 127
1, 240600, Note_on_c, 1, 85, 118
1, 240610, Note_off_c, 1, 83, 64
1, 240612, Note_off_c, 4, 57, 64
1, 240656, Note_off_c, 4, 64, 64
1, 240660, Note_on_c, 4, 64, 124
1, 240660, Note_on_c, 1, 86, 118
1, 240669, Note_off_c, 1, 85, 64
1, 240719, Note_on_c, 4, 57, 127
1, 240719, Note_on_c, 1, 88, 120
1, 240729, Note_off_c, 1, 86, 64
1, 240731, Note_off_c, 4, 61, 64
1, 240781, Note_off_c, 4, 64, 64
1, 240785, Note_on_c, 1, 85, 118
1, 240785, Note_on_c, 4, 64, 124
1, 240795, Note_off_c, 1, 88, 64
1, 240841, Note_on_c, 1, 80, 118
1, 240842, Note_on_c, 4, 61, 127
1, 240850, Note_off_c, 1, 85, 64
1, 240854, Note_off_c, 4, 57, 64
1, 240896, Note_off_c, 4, 64, 64
1, 240900, Note_on_c, 4, 64, 124
1, 240900, Note_on_c, 1, 81, 118
1, 240911, Note_off_c, 1, 80, 64
1, 240962, Note_on_c, 1, 86, 118
1, 240963, Note_on_c, 4, 59, 127
1, 240975, Note_off_c, 1, 81, 64
1, 240979, Note_off_c, 4, 61, 64
1, 241025, Note_off_c, 4, 64, 64
1, 241027, Note_on_c, 1, 83, 118
1, 241027, Note_on_c, 4, 64, 124
1, 241037, Note_off_c, 1, 86, 64
1, 241087, Note_on_c, 1, 78, 118
1, 241088, Note_on_c, 4, 62, 127
1, 241096, Note_off_c, 1, 83, 64
1, 241100, Note_off_c, 4, 59, 64
1, 241144, Note_off_c, 4, 64, 64
1, 241148, Note_on_c, 4, 64, 124
1, 241148, Note_on_c, 1, 80, 118
1, 241158, Note_off_c, 1, 78, 64
1, 241204, Note_on_c, 1, 83, 118
1, 241205, Note_on_c, 4, 56, 127
1, 241213, Note_off_c, 1, 80, 64
1, 241215, Note_off_c, 4, 62, 64
1, 241261, Note_off_c, 4, 64, 64
1, 241263, Note_on_c, 1, 80, 118
1, 241263, Note_on_c, 4, 64, 124
1, 241272, Note_off_c, 1, 83, 64
1, 241320, Note_on_c, 4, 59, 127
1, 241320, Note_on_c, 2, 75, 121
1, 241328, Note_off_c, 1, 80, 64
1, 241332, Note_off_c, 4, 56, 64
1, 241374, Note_off_c, 4, 64, 64
1, 241376, Note_on_c, 2, 76, 121
1, 241377, Note_on_c, 4, 64, 124
1, 241385, Note_off_c, 2, 75, 64
1, 241433, Note_on_c, 4, 52, 127
1, 241433, Note_on_c, 1, 78, 118
1, 241443, Note_off_c, 2, 76, 64
1, 241445, Note_off_c, 4, 59, 64
1, 241489, Note_off_c, 4, 64, 64
1, 241493, Note_on_c, 2, 74, 121
1, 241494, Note_on_c, 4, 64, 124
1, 241504, Note_off_c, 1, 78, 64
1, 241548, Note_on_c, 4, 56, 127
1, 241548, Note_on_c, 2, 70, 126
1, 241559, Note_off_c, 2, 74, 64
1, 241560, Note_off_c, 4, 52, 64
1, 241607, Note_off_c, 4, 64, 64
1, 241608, Note_on_c, 2, 71, 127
1, 241609, Note_on_c, 4, 64, 124
1, 241619, Note_off_c, 2, 70, 64
1, 241669, Note_on_c, 4, 61, 127
1, 241669, Note_on_c, 2, 73, 127
1, 241670, Note_on_c, 4, 57, 127
1, 241680, Note_off_c, 4, 64, 64
1, 241680, Note_off_c, 2, 71, 64
1, 241682, Note_off_c, 4, 56, 64
1, 241731, Note_on_c, 2, 76, 121
1, 241742, Note_off_c, 2, 73, 64
1, 241792, Note_on_c, 1, 81, 118
1, 241803, Note_off_c, 2, 76, 64
1, 241851, Note_on_c, 1, 80, 118
1, 241863, Note_off_c, 1, 81, 64
1, 241905, Note_off_c, 4, 57, 64
1, 241909, Note_off_c, 1, 80, 64
1, 241914, Note_on_c, 4, 57, 127
1, 241914, Note_on_c, 1, 80, 118
1, 241915, Note_on_c, 4, 50, 127
1, 241920, Note_off_c, 4, 61, 64
1, 241975, Note_on_c, 1, 78, 118
1, 241985, Note_off_c, 1, 80, 64
1, 242037, Note_on_c, 1, 86, 118
1, 242047, Note_off_c, 1, 78, 64
1, 242100, Note_on_c, 1, 85, 118
1, 242110, Note_off_c, 1, 86, 64
1, 242154, Note_off_c, 1, 85, 64
1, 242158, Note_on_c, 4, 54, 127
1, 242158, Note_on_c, 1, 85, 118
1, 242159, Note_on_c, 4, 51, 127
1, 242161, Note_off_c, 4, 50, 64
1, 242162, Note_off_c, 4, 57, 64
1, 242220, Note_on_c, 1, 83, 118
1, 242232, Note_off_c, 1, 85, 64
1, 242278, Note_off_c, 1, 83, 64
1, 242284, Note_on_c, 1, 83, 118
1, 242346, Note_on_c, 1, 81, 118
1, 242355, Note_off_c, 1, 83, 64
1, 242401, Note_off_c, 1, 81, 64
1, 242406, Note_on_c, 4, 56, 127
1, 242406, Note_on_c, 1, 81, 118
1, 242407, Note_on_c, 4, 52, 127
1, 242410, Note_off_c, 4, 51, 64
1, 242411, Note_off_c, 4, 54, 64
1, 242469, Note_on_c, 1, 80, 118
1, 242479, Note_off_c, 1, 81, 64
1, 242525, Note_off_c, 1, 80, 64
1, 242532, Note_on_c, 1, 80, 118
1, 242595, Note_on_c, 1, 78, 118
1, 242604, Note_off_c, 1, 80, 64
1, 242652, Note_off_c, 1, 78, 64
1, 242656, Note_on_c, 1, 78, 118
1, 242657, Note_on_c, 4, 54, 127
1, 242657, Note_on_c, 4, 57, 127
1, 242661, Note_off_c, 4, 52, 64
1, 242662, Note_off_c, 4, 56, 64
1, 242720, Note_on_c, 2, 76, 121
1, 242729, Note_off_c, 1, 78, 64
1, 242777, Note_off_c, 2, 76, 64
1, 242783, Note_on_c, 2, 76, 121
1, 242840, Note_on_c, 2, 75, 127
1, 242847, Note_off_c, 2, 76, 64
1, 243030, Note_on_c, 2, 69, 126
1, 243030, Note_on_c, 1, 78, 122
1, 243031, Note_on_c, 4, 66, 126
1, 243053, Note_off_c, 2, 75, 64
1, 243095, Note_off_c, 1, 78, 64
1, 243096, Note_on_c, 2, 76, 125
1, 243153, Note_off_c, 2, 76, 64
1, 243159, Note_on_c, 2, 76, 125
1, 243221, Note_off_c, 2, 76, 64
1, 243221, Note_on_c, 2, 75, 125
1, 243283, Note_off_c, 2, 75, 64
1, 243284, Note_on_c, 2, 71, 127
1, 243284, Note_on_c, 1, 78, 122
1, 243285, Note_on_c, 2, 68, 126
1, 243287, Note_off_c, 4, 66, 64
1, 243288, Note_off_c, 2, 69, 64
1, 243348, Note_off_c, 1, 78, 64
1, 243348, Note_on_c, 2, 76, 125
1, 243404, Note_off_c, 2, 76, 64
1, 243410, Note_on_c, 2, 76, 125
1, 243468, Note_off_c, 2, 76, 64
1, 243468, Note_on_c, 2, 74, 125
1, 243632, Note_off_c, 4, 57, 64
1, 243632, Note_off_c, 4, 54, 64
1, 243661, Note_off_c, 2, 74, 64
1, 243662, Note_off_c, 2, 71, 64
1, 243662, Note_off_c, 2, 68, 64
1, 243663, Note_on_c, 2, 72, 125
1, 243663, Note_on_c, 1, 81, 122
1, 243664, Note_on_c, 2, 69, 126
1, 243664, Note_on_c, 4, 57, 127
1, 243741, Note_off_c, 2, 69, 64
1, 243742, Note_off_c, 4, 57, 64
1, 243742, Note_on_c, 2, 67, 126
1, 243743, Note_on_c, 4, 55, 127
1, 243799, Note_off_c, 2, 67, 64
1, 243801, Note_off_c, 4, 55, 64
1, 243804, Note_on_c, 2, 67, 126
1, 243805, Note_on_c, 4, 55, 127
1, 243866, Note_off_c, 2, 67, 64
1, 243868, Note_off_c, 4, 55, 64
1, 243874, Note_on_c, 4, 65, 126
1, 243874, Note_on_c, 4, 53, 127
1, 243924, Note_off_c, 2, 72, 64
1, 243925, Note_off_c, 1, 81, 64
1, 243929, Note_off_c, 4, 65, 64
1, 243930, Note_off_c, 4, 53, 64
1, 243935, Note_on_c, 1, 84, 122
1, 243936, Note_on_c, 1, 81, 122
1, 243936, Note_on_c, 4, 65, 126
1, 243936, Note_on_c, 4, 53, 127
1, 243996, Note_off_c, 4, 65, 64
1, 243997, Note_off_c, 4, 53, 64
1, 244002, Note_on_c, 4, 64, 124
1, 244003, Note_on_c, 4, 52, 127
1, 244055, Note_off_c, 4, 64, 64
1, 244056, Note_off_c, 4, 52, 64
1, 244061, Note_on_c, 4, 52, 127
1, 244061, Note_on_c, 4, 64, 124
1, 244119, Note_off_c, 4, 64, 64
1, 244120, Note_off_c, 4, 52, 64
1, 244122, Note_on_c, 4, 63, 127
1, 244123, Note_on_c, 4, 51, 127
1, 244202, Note_off_c, 4, 63, 64
1, 244202, Note_off_c, 1, 81, 64
1, 244203, Note_off_c, 4, 51, 64
1, 244203, Note_off_c, 1, 84, 64
1, 244204, Note_on_c, 4, 60, 127
1, 244204, Note_on_c, 2, 69, 126
1, 244205, Note_on_c, 4, 52, 127
1, 244205, Note_on_c, 2, 75, 127
1, 244517, Note_off_c, 4, 60, 64
1, 244517, Note_on_c, 2, 76, 127
1, 244518, Note_on_c, 4, 59, 127
1, 244518, Note_on_c, 2, 68, 126
1, 244519, Note_off_c, 2, 69, 64
1, 244524, Note_off_c, 2, 75, 64
1, 244904, Note_off_c, 4, 52, 64
1, 244916, Note_off_c, 2, 76, 64
1, 244916, Note_on_c, 2, 71, 122
1, 244917, Note_on_c, 4, 57, 127
1, 244918, Note_off_c, 4, 59, 64
1, 244919, Note_off_c, 2, 68, 64
1, 244969, Note_on_c, 2, 69, 120
1, 244981, Note_off_c, 2, 71, 64
1, 245002, Note_on_c, 4, 64, 124
1, 245002, Note_on_c, 2, 71, 122
1, 245013, Note_off_c, 2, 69, 64
1, 245036, Note_on_c, 2, 69, 120
1, 245049, Note_off_c, 2, 71, 64
1, 245072, Note_on_c, 2, 71, 119
1, 245073, Note_on_c, 4, 61, 127
1, 245083, Note_off_c, 2, 69, 64
1, 245086, Note_off_c, 4, 57, 64
1, 245104, Note_on_c, 2, 69, 117
1, 245115, Note_off_c, 2, 71, 64
1, 245133, Note_off_c, 4, 64, 64
1, 245136, Note_on_c, 2, 71, 119
1, 245137, Note_on_c, 4, 64, 124
1, 245147, Note_off_c, 2, 69, 64
1, 245172, Note_on_c, 2, 69, 117
1, 245184, Note_off_c, 2, 71, 64
1, 245207, Note_on_c, 4, 57, 127
1, 245207, Note_on_c, 2, 71, 119
1, 245217, Note_off_c, 2, 69, 64
1, 245220, Note_off_c, 4, 61, 64
1, 245242, Note_on_c, 2, 69, 117
1, 245254, Note_off_c, 2, 71, 64
1, 245272, Note_off_c, 4, 64, 64
1, 245277, Note_on_c, 4, 64, 124
1, 245277, Note_on_c, 2, 71, 119
1, 245287, Note_off_c, 2, 69, 64
1, 245312, Note_on_c, 2, 69, 117
1, 245326, Note_off_c, 2, 71, 64
1, 245349, Note_on_c, 2, 71, 119
1, 245349, Note_on_c, 4, 61, 127
1, 245361, Note_off_c, 2, 69, 64
1, 245363, Note_off_c, 4, 57, 64
1, 245384, Note_on_c, 2, 69, 117
1, 245396, Note_off_c, 2, 71, 64
1, 245417, Note_off_c, 4, 64, 64
1, 245424, Note_on_c, 4, 64, 124
1, 245424, Note_on_c, 2, 71, 122
1, 245436, Note_off_c, 2, 69, 64
1, 245457, Note_on_c, 2, 69, 126
1, 245469, Note_off_c, 2, 71, 64
1, 245496, Note_on_c, 4, 52, 127
1, 245496, Note_on_c, 2, 68, 126
1, 245508, Note_off_c, 2, 69, 64
1, 245512, Note_off_c, 4, 61, 64
1, 245520, Note_off_c, 4, 64, 64
1, 245531, Note_on_c, 4, 64, 124
1, 245566, Note_off_c, 2, 68, 64
1, 245566, Note_on_c, 2, 71, 127
1, 245567, Note_on_c, 4, 62, 127
1, 245595, Note_off_c, 4, 64, 64
1, 245601, Note_on_c, 2, 68, 126
1, 245613, Note_off_c, 2, 71, 64
1, 245634, Note_on_c, 4, 59, 127
1, 245634, Note_on_c, 2, 74, 127
1, 245648, Note_off_c, 2, 68, 64
1, 245649, Note_off_c, 4, 62, 64
1, 245653, Note_off_c, 4, 52, 64
1, 245676, Note_on_c, 2, 71, 127
1, 245688, Note_off_c, 2, 74, 64
1, 245715, Note_on_c, 2, 69, 126
1, 245716, Note_on_c, 4, 62, 127
1, 245730, Note_off_c, 2, 71, 64
1, 245757, Note_on_c, 2, 68, 126
1, 245770, Note_off_c, 2, 69, 64
1, 245797, Note_on_c, 2, 69, 126
1, 245797, Note_on_c, 4, 61, 127
1, 245798, Note_on_c, 4, 57, 127
1, 245811, Note_off_c, 4, 62, 64
1, 245812, Note_off_c, 2, 68, 64
1, 245816, Note_off_c, 4, 59, 64
1, 245870, Note_off_c, 4, 61, 64
1, 245881, Note_on_c, 4, 64, 121
1, 245882, Note_on_c, 4, 61, 127
1, 245961, Note_on_c, 4, 63, 126
1, 245962, Note_on_c, 4, 60, 127
1, 245974, Note_off_c, 4, 61, 64
1, 245974, Note_off_c, 4, 64, 64
1, 245976, Note_off_c, 4, 57, 64
1, 246038, Note_on_c, 4, 64, 121
1, 246038, Note_on_c, 4, 61, 127
1, 246052, Note_off_c, 4, 60, 64
1, 246053, Note_off_c, 4, 63, 64
1, 246115, Note_on_c, 4, 66, 123
1, 246115, Note_on_c, 4, 62, 127
1, 246127, Note_off_c, 4, 61, 64
1, 246128, Note_off_c, 4, 64, 64
1, 246192, Note_on_c, 4, 61, 127
1, 246192, Note_on_c, 4, 64, 121
1, 246202, Note_off_c, 4, 62, 64
1, 246203, Note_off_c, 4, 66, 64
1, 246261, Note_on_c, 4, 63, 126
1, 246261, Note_on_c, 4, 60, 127
1, 246273, Note_off_c, 4, 61, 64
1, 246274, Note_off_c, 4, 64, 64
1, 246335, Note_on_c, 4, 64, 121
1, 246335, Note_on_c, 4, 61, 127
1, 246347, Note_off_c, 4, 60, 64
1, 246348, Note_off_c, 4, 63, 64
1, 246413, Note_on_c, 4, 62, 127
1, 246414, Note_on_c, 4, 59, 127
1, 246426, Note_off_c, 4, 61, 64
1, 246426, Note_off_c, 4, 64, 64
1, 246492, Note_on_c, 4, 61, 127
1, 246492, Note_on_c, 4, 57, 127
1, 246504, Note_off_c, 4, 59, 64
1, 246505, Note_off_c, 4, 62, 64
1, 246573, Note_on_c, 4, 60, 127
1, 246573, Note_on_c, 4, 56, 127
1, 246585, Note_off_c, 4, 57, 64
1, 246586, Note_off_c, 4, 61, 64
1, 246651, Note_on_c, 4, 61, 127
1, 246652, Note_on_c, 4, 57, 127
1, 246666, Note_off_c, 4, 56, 64
1, 246666, Note_off_c, 4, 60, 64
1, 246730, Note_off_c, 2, 69, 64
1, 246731, Note_on_c, 2, 73, 126
1, 246731, Note_on_c, 4, 52, 127
1, 246741, Note_off_c, 4, 57, 64
1, 246742, Note_off_c, 4, 61, 64
1, 246770, Note_on_c, 2, 71, 125
1, 246799, Note_off_c, 2, 73, 64
1, 246811, Note_on_c, 2, 73, 126
1, 246811, Note_on_c, 4, 59, 127
1, 246835, Note_off_c, 2, 71, 64
1, 246847, Note_on_c, 2, 71, 125
1, 246870, Note_off_c, 2, 73, 64
1, 246882, Note_on_c, 4, 56, 127
1, 246882, Note_on_c, 2, 73, 126
1, 246896, Note_off_c, 4, 52, 64
1, 246904, Note_off_c, 2, 71, 64
1, 246915, Note_on_c, 2, 71, 122
1, 246936, Note_off_c, 2, 73, 64
1, 246946, Note_off_c, 4, 59, 64
1, 246948, Note_on_c, 4, 59, 127
1, 246948, Note_on_c, 2, 73, 123
1, 246970, Note_off_c, 2, 71, 64
1, 246982, Note_on_c, 2, 71, 122
1, 247005, Note_off_c, 2, 73, 64
1, 247018, Note_on_c, 2, 73, 123
1, 247018, Note_on_c, 4, 52, 127
1, 247032, Note_off_c, 4, 56, 64
1, 247041, Note_off_c, 2, 71, 64
1, 247051, Note_on_c, 2, 71, 122
1, 247074, Note_off_c, 2, 73, 64
1, 247081, Note_off_c, 4, 59, 64
1, 247085, Note_on_c, 2, 73, 123
1, 247086, Note_on_c, 4, 59, 127
1, 247109, Note_off_c, 2, 71, 64
1, 247121, Note_on_c, 2, 71, 122
1, 247144, Note_off_c, 2, 73, 64
1, 247156, Note_on_c, 4, 56, 127
1, 247156, Note_on_c, 2, 73, 123
1, 247172, Note_off_c, 4, 52, 64
1, 247181, Note_off_c, 2, 71, 64
1, 247193, Note_on_c, 2, 71, 122
1, 247218, Note_off_c, 2, 73, 64
1, 247225, Note_off_c, 4, 59, 64
1, 247232, Note_on_c, 2, 73, 126
1, 247232, Note_on_c, 4, 59, 127
1, 247260, Note_off_c, 2, 71, 64
1, 247273, Note_on_c, 2, 71, 125
1, 247298, Note_off_c, 2, 73, 64
1, 247309, Note_on_c, 2, 73, 127
1, 247310, Note_on_c, 4, 52, 127
1, 247327, Note_off_c, 4, 56, 64
1, 247335, Note_off_c, 2, 71, 64
1, 247349, Note_on_c, 2, 69, 126
1, 247374, Note_off_c, 2, 73, 64
1, 247385, Note_off_c, 4, 59, 64
1, 247389, Note_on_c, 2, 76, 127
1, 247390, Note_on_c, 4, 61, 127
1, 247417, Note_off_c, 2, 69, 64
1, 247427, Note_on_c, 2, 73, 127
1, 247450, Note_off_c, 2, 76, 64
1, 247461, Note_on_c, 1, 81, 126
1, 247462, Note_on_c, 4, 57, 127
1, 247477, Note_off_c, 4, 52, 64
1, 247489, Note_off_c, 2, 73, 64
1, 247502, Note_on_c, 2, 76, 127
1, 247527, Note_off_c, 1, 81, 64
1, 247535, Note_off_c, 4, 61, 64
1, 247539, Note_on_c, 4, 61, 127
1, 247539, Note_on_c, 2, 73, 127
1, 247567, Note_off_c, 2, 76, 64
1, 247580, Note_on_c, 2, 69, 126
1, 247611, Note_off_c, 2, 73, 64
1, 247628, Note_on_c, 2, 74, 127
1, 247629, Note_on_c, 4, 56, 127
1, 247629, Note_on_c, 4, 59, 127
1, 247644, Note_off_c, 4, 57, 64
1, 247654, Note_off_c, 2, 69, 64
1, 247696, Note_off_c, 4, 59, 64
1, 247705, Note_off_c, 4, 61, 64
1, 247710, Note_on_c, 4, 62, 127
1, 247710, Note_on_c, 4, 59, 127
1, 247795, Note_on_c, 4, 61, 127
1, 247796, Note_on_c, 4, 58, 127
1, 247810, Note_off_c, 4, 59, 64
1, 247810, Note_off_c, 4, 62, 64
1, 247814, Note_off_c, 4, 56, 64
1, 247874, Note_on_c, 4, 59, 127
1, 247874, Note_on_c, 4, 62, 127
1, 247888, Note_off_c, 4, 58, 64
1, 247889, Note_off_c, 4, 61, 64
1, 247949, Note_on_c, 4, 64, 124
1, 247949, Note_on_c, 4, 61, 127
1, 247961, Note_off_c, 4, 59, 64
1, 247962, Note_off_c, 4, 62, 64
1, 248028, Note_on_c, 4, 62, 127
1, 248028, Note_on_c, 4, 59, 127
1, 248040, Note_off_c, 4, 61, 64
1, 248040, Note_off_c, 4, 64, 64
1, 248100, Note_on_c, 4, 61, 127
1, 248101, Note_on_c, 4, 58, 127
1, 248113, Note_off_c, 4, 59, 64
1, 248113, Note_off_c, 4, 62, 64
1, 248175, Note_on_c, 4, 62, 127
1, 248176, Note_on_c, 4, 59, 127
1, 248188, Note_off_c, 4, 61, 64
1, 248188, Note_off_c, 4, 58, 64
1, 248252, Note_on_c, 4, 61, 127
1, 248253, Note_on_c, 4, 57, 127
1, 248267, Note_off_c, 4, 59, 64
1, 248267, Note_off_c, 4, 62, 64
1, 248327, Note_on_c, 4, 59, 127
1, 248328, Note_on_c, 4, 56, 127
1, 248340, Note_off_c, 4, 57, 64
1, 248340, Note_off_c, 4, 61, 64
1, 248404, Note_on_c, 4, 58, 127
1, 248404, Note_on_c, 4, 55, 127
1, 248416, Note_off_c, 4, 56, 64
1, 248417, Note_off_c, 4, 59, 64
1, 248484, Note_on_c, 4, 59, 127
1, 248485, Note_on_c, 4, 56, 127
1, 248497, Note_off_c, 4, 55, 64
1, 248497, Note_off_c, 4, 58, 64
1, 248565, Note_off_c, 2, 74, 64
1, 248566, Note_on_c, 2, 76, 127
1, 248568, Note_on_c, 4, 61, 127
1, 248580, Note_off_c, 4, 56, 64
1, 248580, Note_off_c, 4, 59, 64
1, 248644, Note_on_c, 2, 69, 126
1, 248719, Note_on_c, 4, 64, 124
1, 248736, Note_off_c, 4, 61, 64
1, 248790, Note_off_c, 2, 69, 64
1, 248794, Note_on_c, 2, 69, 126
1, 248867, Note_on_c, 4, 61, 127
1, 248882, Note_off_c, 4, 64, 64
1, 248911, Note_on_c, 2, 75, 127
1, 248913, Note_off_c, 2, 76, 64
1, 248930, Note_off_c, 2, 69, 64
1, 248934, Note_on_c, 2, 69, 126
1, 248957, Note_off_c, 2, 75, 64
1, 248957, Note_on_c, 2, 76, 127
1, 249002, Note_off_c, 2, 76, 64
1, 249002, Note_on_c, 1, 78, 126
1, 249003, Note_on_c, 4, 64, 124
1, 249020, Note_off_c, 4, 61, 64
1, 249051, Note_off_c, 1, 78, 64
1, 249052, Note_on_c, 2, 76, 127
1, 249069, Note_off_c, 2, 69, 64
1, 249073, Note_on_c, 2, 69, 126
1, 249098, Note_off_c, 2, 76, 64
1, 249098, Note_on_c, 1, 78, 126
1, 249147, Note_off_c, 1, 78, 64
1, 249147, Note_on_c, 2, 76, 127
1, 249148, Note_on_c, 4, 59, 127
1, 249161, Note_off_c, 4, 64, 64
1, 249213, Note_off_c, 2, 69, 64
1, 249217, Note_on_c, 2, 68, 126
1, 249292, Note_on_c, 4, 64, 124
1, 249292, Note_on_c, 2, 74, 127
1, 249295, Note_off_c, 2, 76, 64
1, 249308, Note_off_c, 4, 59, 64
1, 249356, Note_off_c, 2, 68, 64
1, 249360, Note_on_c, 2, 68, 126
1, 249435, Note_on_c, 2, 73, 127
1, 249436, Note_on_c, 4, 57, 127
1, 249437, Note_off_c, 2, 74, 64
1, 249452, Note_off_c, 4, 64, 64
1, 249506, Note_off_c, 2, 68, 64
1, 249510, Note_on_c, 2, 69, 126
1, 249591, Note_on_c, 4, 64, 124
1, 249607, Note_off_c, 4, 57, 64
1, 249662, Note_off_c, 2, 69, 64
1, 249667, Note_on_c, 2, 69, 126
1, 249742, Note_on_c, 4, 57, 127
1, 249756, Note_off_c, 4, 64, 64
1, 249783, Note_off_c, 2, 73, 64
1, 249788, Note_on_c, 2, 72, 127
1, 249808, Note_off_c, 2, 69, 64
1, 249814, Note_on_c, 4, 64, 124
1, 249838, Note_off_c, 2, 72, 64
1, 249838, Note_on_c, 2, 73, 127
1, 249887, Note_off_c, 2, 73, 64
1, 249887, Note_on_c, 2, 74, 127
1, 249888, Note_on_c, 4, 61, 127
1, 249904, Note_off_c, 4, 57, 64
1, 249937, Note_off_c, 2, 74, 64
1, 249938, Note_on_c, 2, 73, 127
1, 249959, Note_off_c, 4, 64, 64
1, 249961, Note_on_c, 4, 64, 124
1, 249986, Note_off_c, 2, 73, 64
1, 249987, Note_on_c, 2, 76, 127
1, 250035, Note_on_c, 2, 69, 126
1, 250036, Note_on_c, 4, 50, 127
1, 250051, Note_off_c, 4, 61, 64
1, 250105, Note_off_c, 4, 64, 64
1, 250109, Note_on_c, 4, 59, 127
1, 250121, Note_off_c, 2, 76, 64
1, 250172, Note_off_c, 2, 69, 64
1, 250176, Note_on_c, 2, 68, 126
1, 250178, Note_on_c, 4, 52, 127
1, 250192, Note_off_c, 4, 50, 64
1, 250245, Note_off_c, 4, 59, 64
1, 250248, Note_on_c, 4, 59, 127
1, 250324, Note_on_c, 2, 69, 126
1, 250325, Note_on_c, 4, 49, 127
1, 250325, Note_on_c, 4, 61, 127
1, 250332, Note_off_c, 2, 68, 64
1, 250338, Note_off_c, 4, 59, 64
1, 250340, Note_off_c, 4, 52, 64
1, 250416, Note_off_c, 2, 69, 64
1, 250430, Note_on_c, 2, 71, 127
1, 250464, Note_on_c, 2, 69, 126
1, 250476, Note_off_c, 2, 71, 64
1, 250568, Note_off_c, 2, 69, 64
1, 250569, Note_on_c, 2, 68, 126
1, 250604, Note_on_c, 2, 69, 126
1, 250615, Note_off_c, 2, 68, 64
1, 250700, Note_off_c, 4, 61, 64
1, 250700, Note_off_c, 4, 49, 64
1, 250712, Note_on_c, 4, 64, 124
1, 250751, Note_off_c, 2, 69, 64
1, 250751, Note_on_c, 2, 71, 127
1, 250752, Note_on_c, 4, 50, 127
1, 250752, Note_on_c, 4, 62, 127
1, 250752, Note_on_c, 2, 68, 126
1, 250852, Note_off_c, 4, 64, 64
1, 250864, Note_on_c, 4, 64, 124
1, 250900, Note_on_c, 2, 73, 127
1, 250901, Note_on_c, 4, 61, 127
1, 250901, Note_on_c, 2, 69, 126
1, 250902, Note_on_c, 4, 49, 127
1, 250916, Note_off_c, 4, 62, 64
1, 250916, Note_off_c, 4, 50, 64
1, 250917, Note_off_c, 2, 71, 64
1, 250917, Note_off_c, 2, 68, 64
1, 251000, Note_off_c, 4, 64, 64
1, 251014, Note_on_c, 4, 64, 124
1, 251053, Note_on_c, 2, 74, 127
1, 251053, Note_on_c, 2, 71, 127
1, 251054, Note_on_c, 4, 59, 127
1, 251054, Note_on_c, 4, 47, 127
1, 251070, Note_off_c, 4, 49, 64
1, 251071, Note_off_c, 2, 69, 64
1, 251071, Note_off_c, 4, 61, 64
1, 251072, Note_off_c, 2, 73, 64
1, 251147, Note_off_c, 4, 64, 64
1, 251159, Note_on_c, 4, 64, 124
1, 251189, Note_on_c, 2, 76, 127
1, 251190, Note_on_c, 4, 57, 127
1, 251190, Note_on_c, 2, 73, 127
1, 251191, Note_on_c, 4, 45, 127
1, 251205, Note_off_c, 4, 47, 64
1, 251205, Note_off_c, 4, 59, 64
1, 251206, Note_off_c, 2, 71, 64
1, 251206, Note_off_c, 2, 74, 64
1, 251330, Note_on_c, 4, 49, 127
1, 251330, Note_on_c, 4, 37, 127
1, 251347, Note_off_c, 4, 45, 64
1, 251450, Note_off_c, 4, 64, 64
1, 251472, Note_on_c, 4, 40, 127
1, 251472, Note_on_c, 4, 52, 127
1, 251482, Note_off_c, 4, 57, 64
1, 251483, Note_off_c, 2, 76, 64
1, 251483, Note_off_c, 2, 73, 64
1, 251485, Note_off_c, 4, 37, 64
1, 251485, Note_off_c, 4, 49, 64
1, 251540, Note_on_c, 2, 75, 127
1, 251576, Note_on_c, 2, 76, 127
1, 251590, Note_off_c, 2, 75, 64
1, 251617, Note_on_c, 1, 78, 126
1, 251632, Note_off_c, 2, 76, 64
1, 251664, Note_on_c, 2, 76, 127
1, 251676, Note_off_c, 1, 78, 64
1, 251703, Note_on_c, 2, 74, 127
1, 251717, Note_off_c, 2, 76, 64
1, 251742, Note_on_c, 2, 73, 127
1, 251755, Note_off_c, 2, 74, 64
1, 251782, Note_on_c, 2, 71, 127
1, 251794, Note_off_c, 2, 73, 64
1, 252053, Note_off_c, 2, 71, 64
1, 252066, Note_on_c, 4, 61, 127
1, 252067, Note_on_c, 4, 45, 127
1, 252067, Note_on_c, 4, 57, 127
1, 252086, Note_off_c, 4, 40, 64
1, 252087, Note_off_c, 4, 52, 64
1, 252108, Note_on_c, 2, 69, 126
1, 252154, Note_on_c, 4, 64, 124
1, 252195, Note_off_c, 4, 61, 64
1, 252200, Note_on_c, 4, 61, 127
1, 252241, Note_off_c, 2, 69, 64
1, 252246, Note_on_c, 2, 69, 126
1, 252289, Note_off_c, 4, 64, 64
1, 252292, Note_on_c, 4, 64, 124
1, 252328, Note_off_c, 4, 57, 64
1, 252328, Note_off_c, 4, 45, 64
1, 252335, Note_off_c, 4, 61, 64
1, 252337, Note_on_c, 4, 37, 127
1, 252337, Note_on_c, 4, 61, 127
1, 252338, Note_on_c, 4, 49, 127
1, 252376, Note_off_c, 2, 69, 64
1, 252380, Note_on_c, 2, 69, 126
1, 252422, Note_off_c, 4, 64, 64
1, 252426, Note_on_c, 4, 64, 124
1, 252468, Note_off_c, 4, 61, 64
1, 252472, Note_on_c, 4, 61, 127
1, 252514, Note_off_c, 2, 69, 64
1, 252516, Note_on_c, 2, 69, 126
1, 252559, Note_off_c, 4, 64, 64
1, 252561, Note_on_c, 4, 64, 124
1, 252593, Note_off_c, 4, 37, 64
1, 252595, Note_off_c, 4, 49, 64
1, 252601, Note_off_c, 4, 61, 64
1, 252605, Note_on_c, 4, 40, 127
1, 252605, Note_on_c, 4, 62, 127
1, 252606, Note_on_c, 4, 52, 127
1, 252650, Note_off_c, 2, 69, 64
1, 252652, Note_on_c, 2, 71, 127
1, 252694, Note_off_c, 4, 64, 64
1, 252698, Note_on_c, 4, 64, 124
1, 252740, Note_off_c, 4, 62, 64
1, 252742, Note_on_c, 4, 62, 127
1, 252790, Note_off_c, 2, 71, 64
1, 252794, Note_on_c, 2, 68, 126
1, 252836, Note_off_c, 4, 64, 64
1, 252840, Note_on_c, 4, 64, 124
1, 252878, Note_off_c, 4, 52, 64
1, 252886, Note_off_c, 4, 62, 64
1, 252890, Note_on_c, 4, 57, 127
1, 252890, Note_on_c, 2, 69, 126
1, 252900, Note_off_c, 2, 68, 64
1, 252906, Note_off_c, 4, 64, 64
1, 252933, Note_on_c, 4, 64, 124
1, 252981, Note_on_c, 4, 61, 127
1, 253025, Note_off_c, 4, 57, 64
1, 253027, Note_on_c, 4, 59, 127
1, 253069, Note_off_c, 4, 64, 64
1, 253071, Note_on_c, 4, 64, 124
1, 253112, Note_off_c, 4, 61, 64
1, 253116, Note_on_c, 4, 62, 127
1, 253127, Note_on_c, 2, 68, 126
1, 253142, Note_off_c, 2, 69, 64
1, 253162, Note_off_c, 4, 59, 64
1, 253165, Note_on_c, 2, 69, 126
1, 253166, Note_on_c, 4, 57, 127
1, 253178, Note_off_c, 2, 68, 64
1, 253211, Note_off_c, 4, 64, 64
1, 253214, Note_on_c, 4, 64, 124
1, 253257, Note_off_c, 4, 62, 64
1, 253260, Note_on_c, 4, 61, 127
1, 253307, Note_off_c, 4, 57, 64
1, 253310, Note_on_c, 4, 56, 127
1, 253355, Note_off_c, 4, 64, 64
1, 253358, Note_on_c, 4, 64, 124
1, 253399, Note_off_c, 4, 61, 64
1, 253403, Note_on_c, 4, 59, 127
1, 253416, Note_on_c, 2, 71, 127
1, 253429, Note_off_c, 2, 69, 64
1, 253449, Note_off_c, 4, 56, 64
1, 253452, Note_on_c, 2, 73, 127
1, 253453, Note_on_c, 4, 57, 127
1, 253465, Note_off_c, 2, 71, 64
1, 253496, Note_off_c, 4, 64, 64
1, 253500, Note_on_c, 4, 64, 124
1, 253538, Note_off_c, 4, 59, 64
1, 253542, Note_on_c, 4, 61, 127
1, 253590, Note_off_c, 4, 57, 64
1, 253594, Note_on_c, 4, 57, 127
1, 253636, Note_off_c, 4, 64, 64
1, 253640, Note_on_c, 4, 64, 124
1, 253682, Note_off_c, 4, 61, 64
1, 253686, Note_on_c, 4, 61, 127
1, 253734, Note_off_c, 4, 57, 64
1, 253736, Note_on_c, 4, 44, 127
1, 253736, Note_on_c, 4, 62, 127
1, 253737, Note_on_c, 4, 56, 127
1, 253752, Note_off_c, 2, 73, 64
1, 253758, Note_off_c, 4, 61, 64
1, 253758, Note_off_c, 4, 40, 64
1, 253776, Note_off_c, 4, 64, 64
1, 253780, Note_on_c, 2, 71, 127
1, 253828, Note_on_c, 4, 64, 124
1, 253870, Note_off_c, 4, 62, 64
1, 253874, Note_on_c, 4, 62, 127
1, 253915, Note_off_c, 2, 71, 64
1, 253918, Note_on_c, 2, 71, 127
1, 253958, Note_off_c, 4, 64, 64
1, 253963, Note_on_c, 4, 64, 124
1, 254004, Note_off_c, 4, 62, 64
1, 254005, Note_off_c, 4, 44, 64
1, 254005, Note_off_c, 4, 56, 64
1, 254006, Note_on_c, 4, 40, 127
1, 254006, Note_on_c, 4, 62, 127
1, 254007, Note_on_c, 4, 52, 127
1, 254048, Note_off_c, 2, 71, 64
1, 254052, Note_on_c, 2, 71, 127
1, 254098, Note_off_c, 4, 64, 64
1, 254100, Note_on_c, 4, 64, 124
1, 254142, Note_off_c, 4, 62, 64
1, 254144, Note_on_c, 4, 62, 127
1, 254192, Note_on_c, 2, 68, 126
1, 254196, Note_off_c, 2, 71, 64
1, 254232, Note_off_c, 4, 64, 64
1, 254235, Note_on_c, 4, 64, 124
1, 254271, Note_off_c, 4, 62, 64
1, 254272, Note_off_c, 4, 40, 64
1, 254273, Note_off_c, 4, 52, 64
1, 254274, Note_on_c, 4, 45, 127
1, 254274, Note_on_c, 4, 61, 127
1, 254275, Note_on_c, 4, 57, 127
1, 254323, Note_on_c, 2, 69, 126
1, 254326, Note_off_c, 2, 68, 64
1, 254361, Note_off_c, 4, 64, 64
1, 254363, Note_on_c, 4, 64, 124
1, 254401, Note_off_c, 4, 61, 64
1, 254405, Note_on_c, 4, 61, 127
1, 254448, Note_on_c, 2, 73, 127
1, 254449, Note_off_c, 2, 69, 64
1, 254489, Note_off_c, 4, 64, 64
1, 254494, Note_on_c, 2, 69, 126
1, 254517, Note_off_c, 2, 73, 64
1, 254535, Note_off_c, 4, 61, 64
1, 254537, Note_off_c, 4, 57, 64
1, 254538, Note_on_c, 2, 71, 127
1, 254539, Note_on_c, 4, 56, 127
1, 254544, Note_off_c, 2, 69, 64
1, 254582, Note_on_c, 4, 64, 124
1, 254604, Note_on_c, 4, 59, 127
1, 254662, Note_off_c, 4, 56, 64
1, 254666, Note_on_c, 4, 57, 127
1, 254704, Note_off_c, 4, 64, 64
1, 254707, Note_on_c, 4, 64, 124
1, 254726, Note_off_c, 4, 59, 64
1, 254728, Note_off_c, 2, 71, 64
1, 254751, Note_on_c, 4, 61, 127
1, 254762, Note_on_c, 2, 69, 126
1, 254793, Note_off_c, 4, 57, 64
1, 254797, Note_on_c, 4, 59, 127
1, 254798, Note_on_c, 2, 68, 126
1, 254808, Note_off_c, 2, 69, 64
1, 254837, Note_off_c, 4, 64, 64
1, 254841, Note_on_c, 4, 64, 124
1, 254880, Note_off_c, 4, 61, 64
1, 254883, Note_on_c, 4, 62, 127
1, 254921, Note_off_c, 4, 59, 64
1, 254926, Note_on_c, 4, 57, 127
1, 254967, Note_off_c, 4, 64, 64
1, 254970, Note_on_c, 4, 64, 124
1, 255011, Note_off_c, 4, 62, 64
1, 255015, Note_on_c, 4, 61, 127
1, 255026, Note_on_c, 2, 69, 126
1, 255048, Note_off_c, 2, 68, 64
1, 255053, Note_off_c, 4, 57, 64
1, 255057, Note_on_c, 4, 56, 127
1, 255059, Note_on_c, 2, 74, 127
1, 255071, Note_off_c, 2, 69, 64
1, 255097, Note_off_c, 4, 64, 64
1, 255101, Note_on_c, 4, 64, 124
1, 255144, Note_off_c, 4, 61, 64
1, 255146, Note_on_c, 4, 59, 127
1, 255185, Note_off_c, 4, 56, 64
1, 255189, Note_on_c, 4, 52, 127
1, 255225, Note_off_c, 4, 64, 64
1, 255229, Note_on_c, 4, 64, 124
1, 255271, Note_off_c, 4, 59, 64
1, 255275, Note_on_c, 4, 56, 127
1, 255294, Note_off_c, 4, 45, 64
1, 255306, Note_off_c, 2, 74, 64
1, 255310, Note_off_c, 4, 52, 64
1, 255313, Note_on_c, 4, 61, 127
1, 255314, Note_on_c, 4, 49, 127
1, 255353, Note_off_c, 4, 64, 64
1, 255357, Note_off_c, 4, 56, 64
1, 255380, Note_on_c, 2, 76, 127
1, 255382, Note_on_c, 1, 88, 127
1, 255455, Note_on_c, 2, 75, 127
1, 255456, Note_on_c, 1, 87, 127
1, 255468, Note_off_c, 2, 76, 64
1, 255470, Note_off_c, 1, 88, 64
1, 255533, Note_on_c, 1, 88, 127
1, 255534, Note_on_c, 2, 76, 127
1, 255536, Note_off_c, 2, 75, 64
1, 255538, Note_off_c, 1, 87, 64
1, 255590, Note_off_c, 4, 61, 64
1, 255590, Note_off_c, 4, 49, 64
1, 255597, Note_on_c, 4, 49, 127
1, 255597, Note_on_c, 4, 61, 127
1, 255655, Note_off_c, 2, 76, 64
1, 255656, Note_off_c, 1, 88, 64
1, 255668, Note_on_c, 2, 69, 126
1, 255672, Note_on_c, 1, 81, 126
1, 255741, Note_on_c, 1, 80, 126
1, 255741, Note_on_c, 2, 68, 126
1, 255748, Note_off_c, 2, 69, 64
1, 255750, Note_off_c, 1, 81, 64
1, 255814, Note_on_c, 1, 81, 126
1, 255818, Note_on_c, 2, 69, 126
1, 255824, Note_off_c, 2, 68, 64
1, 255826, Note_off_c, 1, 80, 64
1, 255872, Note_on_c, 4, 59, 127
1, 255873, Note_on_c, 4, 47, 127
1, 255877, Note_off_c, 4, 61, 64
1, 255877, Note_off_c, 4, 49, 64
1, 255957, Note_on_c, 2, 68, 126
1, 255960, Note_on_c, 1, 80, 126
1, 255972, Note_off_c, 1, 81, 64
1, 255976, Note_off_c, 2, 69, 64
1, 256028, Note_on_c, 2, 71, 127
1, 256030, Note_on_c, 1, 83, 126
1, 256035, Note_off_c, 2, 68, 64
1, 256037, Note_off_c, 1, 80, 64
1, 256097, Note_on_c, 1, 86, 126
1, 256097, Note_on_c, 2, 74, 127
1, 256111, Note_off_c, 2, 71, 64
1, 256113, Note_off_c, 1, 83, 64
1, 256155, Note_on_c, 4, 57, 127
1, 256156, Note_on_c, 4, 45, 127
1, 256160, Note_off_c, 4, 47, 64
1, 256161, Note_off_c, 4, 59, 64
1, 256234, Note_on_c, 2, 73, 127
1, 256240, Note_on_c, 1, 85, 126
1, 256259, Note_off_c, 2, 74, 64
1, 256260, Note_off_c, 1, 86, 64
1, 256310, Note_on_c, 2, 72, 127
1, 256316, Note_on_c, 1, 84, 126
1, 256321, Note_off_c, 2, 73, 64
1, 256327, Note_off_c, 1, 85, 64
1, 256389, Note_on_c, 1, 85, 126
1, 256391, Note_on_c, 2, 73, 127
1, 256400, Note_off_c, 2, 72, 64
1, 256406, Note_off_c, 1, 84, 64
1, 256444, Note_off_c, 4, 45, 64
1, 256445, Note_off_c, 4, 57, 64
1, 256452, Note_on_c, 4, 45, 127
1, 256452, Note_on_c, 4, 57, 127
1, 256531, Note_on_c, 2, 76, 127
1, 256533, Note_on_c, 1, 88, 127
1, 256552, Note_off_c, 1, 85, 64
1, 256553, Note_off_c, 2, 73, 64
1, 256603, Note_on_c, 2, 75, 127
1, 256605, Note_on_c, 1, 87, 127
1, 256618, Note_off_c, 2, 76, 64
1, 256620, Note_off_c, 1, 88, 64
1, 256670, Note_on_c, 1, 88, 127
1, 256676, Note_on_c, 2, 76, 127
1, 256685, Note_off_c, 2, 75, 64
1, 256687, Note_off_c, 1, 87, 64
1, 256743, Note_on_c, 4, 62, 127
1, 256744, Note_on_c, 4, 50, 127
1, 256748, Note_off_c, 4, 57, 64
1, 256748, Note_off_c, 4, 45, 64
1, 256783, Note_off_c, 2, 76, 64
1, 256808, Note_on_c, 2, 76, 127
1, 256809, Note_on_c, 4, 64, 124
1, 256821, Note_off_c, 4, 62, 64
1, 256823, Note_off_c, 1, 88, 64
1, 256882, Note_on_c, 2, 68, 126
1, 256884, Note_on_c, 1, 80, 126
1, 256897, Note_off_c, 4, 64, 64
1, 256898, Note_off_c, 2, 76, 64
1, 256958, Note_on_c, 1, 83, 126
1, 256960, Note_on_c, 2, 71, 127
1, 256969, Note_off_c, 2, 68, 64
1, 256974, Note_off_c, 1, 80, 64
1, 257028, Note_on_c, 1, 83, 126
1, 257060, Note_on_c, 1, 81, 126
1, 257095, Note_on_c, 1, 83, 122
1, 257104, Note_off_c, 1, 81, 64
1, 257108, Note_off_c, 1, 83, 64
1, 257108, Note_off_c, 1, 83, 64
1, 257125, Note_on_c, 1, 81, 122
1, 257137, Note_off_c, 1, 83, 64
1, 257154, Note_on_c, 1, 83, 122
1, 257160, Note_off_c, 1, 81, 64
1, 257175, Note_on_c, 1, 81, 122
1, 257183, Note_off_c, 1, 83, 64
1, 257195, Note_on_c, 1, 80, 122
1, 257198, Note_off_c, 1, 81, 64
1, 257209, Note_on_c, 1, 81, 122
1, 257216, Note_off_c, 1, 80, 64
1, 257223, Note_off_c, 4, 50, 64
1, 257224, Note_on_c, 4, 57, 127
1, 257224, Note_on_c, 1, 85, 122
1, 257225, Note_on_c, 4, 49, 127
1, 257225, Note_on_c, 4, 52, 127
1, 257228, Note_off_c, 1, 81, 64
1, 257276, Note_off_c, 2, 71, 64
1, 257322, Note_on_c, 2, 76, 127
1, 257359, Note_off_c, 1, 85, 64
1, 257359, Note_on_c, 1, 79, 122
1, 257381, Note_on_c, 1, 78, 122
1, 257392, Note_off_c, 1, 79, 64
1, 257393, Note_off_c, 2, 76, 64
1, 257409, Note_on_c, 1, 79, 122
1, 257416, Note_off_c, 1, 78, 64
1, 257434, Note_on_c, 1, 78, 122
1, 257443, Note_off_c, 1, 79, 64
1, 257461, Note_on_c, 1, 79, 122
1, 257469, Note_off_c, 1, 78, 64
1, 257486, Note_on_c, 1, 78, 122
1, 257496, Note_off_c, 1, 79, 64
1, 257515, Note_on_c, 2, 77, 125
1, 257523, Note_off_c, 1, 78, 64
1, 257536, Note_on_c, 1, 78, 122
1, 257542, Note_off_c, 2, 77, 64
1, 257543, Note_off_c, 4, 57, 64
1, 257551, Note_on_c, 4, 57, 127
1, 257551, Note_on_c, 1, 81, 122
1, 257552, Note_on_c, 4, 50, 127
1, 257552, Note_on_c, 4, 54, 127
1, 257555, Note_off_c, 1, 78, 64
1, 257555, Note_off_c, 4, 49, 64
1, 257556, Note_off_c, 4, 52, 64
1, 257651, Note_on_c, 2, 73, 127
1, 257687, Note_off_c, 2, 73, 64
1, 257688, Note_off_c, 1, 81, 64
1, 257688, Note_on_c, 2, 76, 127
1, 257715, Note_on_c, 2, 74, 127
1, 257724, Note_off_c, 2, 76, 64
1, 257742, Note_on_c, 2, 76, 127
1, 257749, Note_off_c, 2, 74, 64
1, 257765, Note_on_c, 2, 74, 127
1, 257776, Note_off_c, 2, 76, 64
1, 257792, Note_on_c, 2, 76, 127
1, 257800, Note_off_c, 2, 74, 64
1, 257816, Note_on_c, 2, 74, 127
1, 257825, Note_off_c, 2, 76, 64
1, 257843, Note_on_c, 2, 73, 127
1, 257846, Note_off_c, 2, 74, 64
1, 257864, Note_on_c, 2, 74, 127
1, 257871, Note_off_c, 2, 73, 64
1, 257872, Note_off_c, 4, 57, 64
1, 257872, Note_off_c, 4, 54, 64
1, 257886, Note_on_c, 4, 62, 127
1, 257886, Note_on_c, 1, 78, 126
1, 257887, Note_on_c, 4, 54, 127
1, 257887, Note_on_c, 4, 57, 127
1, 257892, Note_off_c, 2, 74, 64
1, 258015, Note_off_c, 4, 57, 64
1, 258029, Note_off_c, 1, 78, 64
1, 258030, Note_off_c, 4, 50, 64
1, 258030, Note_on_c, 4, 61, 127
1, 258031, Note_on_c, 4, 52, 127
1, 258031, Note_on_c, 4, 57, 127
1, 258032, Note_on_c, 2, 73, 127
1, 258051, Note_off_c, 4, 62, 64
1, 258051, Note_off_c, 4, 54, 64
1, 258100, Note_on_c, 2, 69, 126
1, 258119, Note_off_c, 2, 73, 64
1, 258146, Note_on_c, 2, 76, 127
1, 258175, Note_off_c, 2, 69, 64
1, 258194, Note_on_c, 4, 62, 127
1, 258194, Note_on_c, 2, 74, 127
1, 258195, Note_on_c, 4, 59, 127
1, 258199, Note_off_c, 4, 57, 64
1, 258199, Note_off_c, 4, 61, 64
1, 258211, Note_off_c, 2, 76, 64
1, 258250, Note_on_c, 2, 71, 127
1, 258257, Note_off_c, 2, 74, 64
1, 258298, Note_on_c, 2, 68, 126
1, 258313, Note_off_c, 2, 71, 64
1, 258334, Note_off_c, 4, 59, 64
1, 258335, Note_off_c, 4, 62, 64
1, 258337, Note_off_c, 2, 68, 64
1, 258345, Note_on_c, 2, 68, 126
1, 258347, Note_on_c, 4, 59, 127
1, 258347, Note_on_c, 4, 62, 127
1, 258348, Note_on_c, 4, 53, 127
1, 258351, Note_off_c, 4, 52, 64
1, 258641, Note_on_c, 2, 69, 126
1, 258642, Note_on_c, 4, 57, 127
1, 258642, Note_on_c, 4, 61, 127
1, 258643, Note_off_c, 2, 68, 64
1, 258643, Note_on_c, 4, 54, 127
1, 258645, Note_off_c, 4, 53, 64
1, 258646, Note_off_c, 4, 62, 64
1, 258646, Note_off_c, 4, 59, 64
1, 258782, Note_off_c, 4, 61, 64
1, 258787, Note_on_c, 2, 67, 126
1, 258788, Note_on_c, 4, 61, 127
1, 258789, Note_on_c, 4, 58, 127
1, 258789, Note_on_c, 4, 52, 127
1, 258806, Note_off_c, 4, 54, 64
1, 258807, Note_off_c, 2, 69, 64
1, 258807, Note_off_c, 4, 57, 64
1, 258937, Note_on_c, 4, 66, 126
1, 258938, Note_on_c, 4, 54, 127
1, 258938, Note_on_c, 4, 59, 127
1, 258939, Note_on_c, 4, 50, 127
1, 258948, Note_off_c, 2, 67, 64
1, 258950, Note_off_c, 4, 52, 64
1, 258951, Note_off_c, 4, 58, 64
1, 258951, Note_off_c, 4, 61, 64
1, 259059, Note_on_c, 1, 78, 126
1, 259188, Note_off_c, 4, 66, 64
1, 259188, Note_off_c, 4, 59, 64
1, 259200, Note_on_c, 4, 59, 127
1, 259201, Note_on_c, 4, 52, 127
1, 259201, Note_on_c, 4, 56, 127
1, 259205, Note_off_c, 4, 54, 64
1, 259205, Note_off_c, 4, 50, 64
1, 259331, Note_off_c, 1, 78, 64
1, 259331, Note_on_c, 2, 76, 127
1, 259401, Note_off_c, 2, 76, 64
1, 259405, Note_on_c, 2, 74, 127
1, 259461, Note_off_c, 4, 56, 64
1, 259461, Note_off_c, 4, 52, 64
1, 259471, Note_on_c, 4, 62, 127
1, 259472, Note_on_c, 4, 52, 127
1, 259472, Note_on_c, 4, 56, 127
1, 259476, Note_off_c, 4, 59, 64
1, 259598, Note_on_c, 2, 73, 127
1, 259624, Note_off_c, 2, 74, 64
1, 259664, Note_off_c, 2, 73, 64
1, 259666, Note_on_c, 2, 71, 127
1, 259728, Note_off_c, 4, 56, 64
1, 259728, Note_off_c, 4, 52, 64
1, 259732, Note_on_c, 2, 73, 127
1, 259740, Note_off_c, 2, 71, 64
1, 259740, Note_on_c, 4, 61, 127
1, 259741, Note_on_c, 4, 52, 127
1, 259741, Note_on_c, 4, 57, 127
1, 259746, Note_off_c, 4, 62, 64
1, 259794, Note_on_c, 2, 69, 126
1, 259805, Note_off_c, 2, 73, 64
1, 259843, Note_on_c, 2, 76, 127
1, 259864, Note_off_c, 2, 69, 64
1, 259885, Note_on_c, 4, 59, 127
1, 259885, Note_on_c, 4, 62, 127
1, 259888, Note_off_c, 4, 57, 64
1, 259888, Note_off_c, 4, 61, 64
1, 259893, Note_on_c, 2, 74, 127
1, 259902, Note_off_c, 2, 76, 64
1, 259939, Note_on_c, 2, 71, 127
1, 259948, Note_off_c, 2, 74, 64
1, 259983, Note_on_c, 2, 68, 126
1, 259998, Note_off_c, 2, 71, 64
1, 260014, Note_off_c, 4, 62, 64
1, 260014, Note_off_c, 4, 59, 64
1, 260024, Note_off_c, 2, 68, 64
1, 260025, Note_on_c, 4, 59, 127
1, 260025, Note_on_c, 4, 62, 127
1, 260026, Note_on_c, 4, 53, 127
1, 260028, Note_off_c, 4, 52, 64
1, 260028, Note_on_c, 2, 68, 126
1, 260297, Note_on_c, 2, 69, 126
1, 260298, Note_on_c, 4, 54, 127
1, 260298, Note_on_c, 4, 57, 127
1, 260298, Note_on_c, 4, 61, 127
1, 260301, Note_off_c, 4, 59, 64
1, 260301, Note_off_c, 4, 53, 64
1, 260302, Note_off_c, 4, 62, 64
1, 260302, Note_off_c, 2, 68, 64
1, 260424, Note_off_c, 4, 61, 64
1, 260430, Note_on_c, 2, 67, 126
1, 260430, Note_on_c, 4, 61, 127
1, 260431, Note_on_c, 4, 58, 127
1, 260431, Note_on_c, 4, 52, 127
1, 260433, Note_off_c, 4, 54, 64
1, 260434, Note_off_c, 2, 69, 64
1, 260434, Note_off_c, 4, 57, 64
1, 260572, Note_on_c, 4, 66, 126
1, 260573, Note_on_c, 4, 54, 127
1, 260573, Note_on_c, 4, 59, 127
1, 260574, Note_on_c, 4, 50, 127
1, 260576, Note_off_c, 4, 52, 64
1, 260577, Note_off_c, 4, 58, 64
1, 260577, Note_off_c, 4, 61, 64
1, 260578, Note_off_c, 2, 67, 64
1, 260703, Note_on_c, 1, 78, 126
1, 260833, Note_off_c, 4, 50, 64
1, 260839, Note_on_c, 4, 58, 127
1, 260840, Note_on_c, 4, 50, 127
1, 260844, Note_off_c, 4, 59, 64
1, 260844, Note_off_c, 4, 54, 64
1, 260845, Note_off_c, 4, 66, 64
1, 260910, Note_on_c, 4, 59, 127
1, 260914, Note_off_c, 4, 58, 64
1, 260957, Note_off_c, 1, 78, 64
1, 260978, Note_on_c, 2, 76, 127
1, 261044, Note_on_c, 2, 74, 127
1, 261055, Note_off_c, 2, 76, 64
1, 261101, Note_off_c, 4, 59, 64
1, 261105, Note_off_c, 4, 50, 64
1, 261113, Note_on_c, 4, 50, 127
1, 261113, Note_on_c, 4, 61, 127
1, 261177, Note_on_c, 4, 62, 127
1, 261187, Note_off_c, 4, 61, 64
1, 261247, Note_off_c, 2, 74, 64
1, 261247, Note_on_c, 2, 73, 127
1, 261312, Note_on_c, 2, 71, 127
1, 261316, Note_off_c, 2, 73, 64
1, 261371, Note_off_c, 4, 62, 64
1, 261374, Note_off_c, 4, 50, 64
1, 261382, Note_on_c, 4, 61, 127
1, 261382, Note_on_c, 4, 58, 127
1, 261383, Note_on_c, 4, 52, 127
1, 261444, Note_on_c, 4, 62, 127
1, 261445, Note_on_c, 4, 59, 127
1, 261455, Note_off_c, 4, 58, 64
1, 261456, Note_off_c, 4, 61, 64
1, 261498, Note_off_c, 2, 71, 64
1, 261510, Note_on_c, 2, 69, 126
1, 261575, Note_off_c, 2, 69, 64
1, 261577, Note_on_c, 2, 68, 126
1, 261871, Note_off_c, 2, 68, 64
1, 261880, Note_on_c, 2, 69, 126
1, 261951, Note_on_c, 2, 71, 127
1, 261962, Note_off_c, 2, 69, 64
1, 262010, Note_on_c, 2, 73, 127
1, 262020, Note_off_c, 2, 71, 64
1, 262068, Note_on_c, 2, 74, 127
1, 262077, Note_off_c, 2, 73, 64
1, 262106, Note_off_c, 4, 62, 64
1, 262106, Note_off_c, 4, 59, 64
1, 262124, Note_on_c, 2, 76, 127
1, 262125, Note_on_c, 4, 49, 127
1, 262125, Note_on_c, 4, 57, 127
1, 262135, Note_off_c, 2, 74, 64
1, 262144, Note_off_c, 4, 52, 64
1, 262179, Note_on_c, 1, 78, 126
1, 262188, Note_off_c, 2, 76, 64
1, 262234, Note_on_c, 1, 80, 126
1, 262241, Note_off_c, 1, 78, 64
1, 262285, Note_on_c, 1, 81, 126
1, 262295, Note_off_c, 1, 80, 64
1, 262341, Note_on_c, 1, 80, 126
1, 262342, Note_on_c, 4, 50, 127
1, 262344, Note_off_c, 4, 49, 64
1, 262350, Note_off_c, 1, 81, 64
1, 262396, Note_on_c, 1, 78, 126
1, 262405, Note_off_c, 1, 80, 64
1, 262453, Note_on_c, 2, 76, 127
1, 262463, Note_off_c, 1, 78, 64
1, 262511, Note_on_c, 2, 74, 127
1, 262521, Note_off_c, 2, 76, 64
1, 262557, Note_off_c, 4, 57, 64
1, 262574, Note_on_c, 2, 73, 127
1, 262575, Note_on_c, 4, 52, 127
1, 262575, Note_on_c, 4, 57, 127
1, 262579, Note_off_c, 4, 50, 64
1, 262585, Note_off_c, 2, 74, 64
1, 262641, Note_on_c, 2, 76, 127
1, 262652, Note_off_c, 2, 73, 64
1, 262710, Note_on_c, 2, 74, 127
1, 262712, Note_on_c, 4, 56, 127
1, 262721, Note_off_c, 2, 76, 64
1, 262725, Note_off_c, 4, 57, 64
1, 262775, Note_on_c, 2, 71, 127
1, 262787, Note_off_c, 2, 74, 64
1, 262840, Note_off_c, 2, 71, 64
1, 262841, Note_on_c, 4, 64, 124
1, 262841, Note_on_c, 2, 71, 127
1, 262843, Note_on_c, 4, 62, 127
1, 262844, Note_on_c, 4, 57, 127
1, 262856, Note_off_c, 4, 56, 64
1, 262961, Note_off_c, 4, 52, 64
1, 262971, Note_on_c, 4, 52, 127
1, 262984, Note_off_c, 4, 57, 64
1, 263080, Note_off_c, 2, 71, 64
1, 263082, Note_off_c, 4, 62, 64
1, 263092, Note_on_c, 4, 61, 127
1, 263092, Note_on_c, 2, 69, 126
1, 263093, Note_on_c, 4, 45, 127
1, 263106, Note_off_c, 4, 52, 64
1, 263252, Note_off_c, 4, 64, 64
1, 263354, Note_off_c, 4, 61, 64
1, 263368, Note_on_c, 4, 61, 127
1, 263368, Note_on_c, 4, 57, 127
1, 263382, Note_off_c, 2, 69, 64
1, 263436, Note_off_c, 4, 57, 64
1, 263436, Note_off_c, 4, 61, 64
1, 263442, Note_on_c, 4, 64, 124
1, 263443, Note_on_c, 4, 61, 127
1, 263505, Note_off_c, 4, 61, 64
1, 263505, Note_off_c, 4, 64, 64
1, 263511, Note_on_c, 4, 62, 127
1, 263512, Note_on_c, 4, 59, 127
1, 263578, Note_off_c, 4, 62, 64
1, 263578, Note_off_c, 4, 59, 64
1, 263581, Note_on_c, 4, 59, 127
1, 263582, Note_on_c, 4, 56, 127
1, 263642, Note_off_c, 4, 45, 64
1, 263653, Note_off_c, 4, 59, 64
1, 263654, Note_off_c, 4, 56, 64
1, 263658, Note_on_c, 4, 59, 126
1, 263659, Note_on_c, 4, 56, 127
1, 263660, Note_on_c, 4, 45, 127
1, 263660, Note_on_c, 4, 52, 127
1, 263662, Note_on_c, 4, 50, 127
1, 264195, Note_off_c, 4, 59, 64
1, 264218, Note_off_c, 4, 52, 64
1, 264219, Note_off_c, 4, 56, 64
1, 264219, Note_on_c, 4, 57, 127
1, 264220, Note_off_c, 4, 45, 64
1, 264220, Note_on_c, 4, 49, 127
1, 264222, Note_off_c, 4, 50, 64
1, 266872, Note_off_c, 4, 57, 64
1, 266874, Note_off_c, 4, 49, 64
1, 267214, Note_on_c, 2, 69, 118
1, 267418, Note_off_c, 2, 69, 64
1, 267423, Note_on_c, 2, 69, 118
1, 267628, Note_off_c, 2, 69, 64
1, 267634, Note_on_c, 4, 62, 127
1, 267634, Note_on_c, 2, 74, 113
1, 267742, Note_on_c, 2, 69, 118
1, 267842, Note_off_c, 4, 62, 64
1, 267848, Note_on_c, 4, 66, 127
1, 267948, Note_off_c, 2, 69, 64
1, 267951, Note_on_c, 2, 69, 118
1, 268049, Note_off_c, 4, 66, 64
1, 268055, Note_on_c, 2, 73, 117
1, 268056, Note_on_c, 4, 59, 127
1, 268058, Note_off_c, 2, 74, 64
1, 268066, Note_off_c, 2, 69, 64
1, 268160, Note_on_c, 4, 66, 127
1, 268160, Note_on_c, 2, 74, 113
1, 268170, Note_off_c, 2, 73, 64
1, 268258, Note_off_c, 4, 59, 64
1, 268264, Note_on_c, 4, 62, 127
1, 268264, Note_on_c, 2, 76, 113
1, 268274, Note_off_c, 2, 74, 64
1, 268358, Note_off_c, 4, 66, 64
1, 268365, Note_on_c, 4, 66, 127
1, 268365, Note_on_c, 1, 78, 110
1, 268375, Note_off_c, 2, 76, 64
1, 268457, Note_off_c, 4, 62, 64
1, 268464, Note_on_c, 4, 55, 127
1, 268464, Note_on_c, 1, 79, 110
1, 268474, Note_off_c, 1, 78, 64
1, 268566, Note_off_c, 4, 66, 64
1, 268570, Note_on_c, 2, 76, 113
1, 268571, Note_on_c, 4, 64, 126
1, 268665, Note_off_c, 1, 79, 64
1, 268665, Note_off_c, 4, 55, 64
1, 268670, Note_on_c, 4, 59, 127
1, 268670, Note_on_c, 1, 79, 110
1, 268764, Note_off_c, 4, 64, 64
1, 268765, Note_off_c, 2, 76, 64
1, 268770, Note_on_c, 4, 64, 126
1, 268770, Note_on_c, 2, 76, 113
1, 268782, Note_off_c, 1, 79, 64
1, 268866, Note_off_c, 4, 59, 64
1, 268871, Note_on_c, 4, 57, 127
1, 268871, Note_on_c, 2, 74, 113
1, 268883, Note_off_c, 2, 76, 64
1, 268966, Note_off_c, 4, 64, 64
1, 268971, Note_on_c, 2, 73, 117
1, 268972, Note_on_c, 2, 67, 127
1, 268981, Note_off_c, 2, 74, 64
1, 269068, Note_off_c, 4, 57, 64
1, 269074, Note_on_c, 2, 71, 116
1, 269075, Note_on_c, 4, 64, 126
1, 269086, Note_off_c, 2, 73, 64
1, 269177, Note_off_c, 2, 67, 64
1, 269183, Note_on_c, 2, 67, 127
1, 269183, Note_on_c, 2, 69, 118
1, 269193, Note_off_c, 2, 71, 64
1, 269283, Note_off_c, 4, 64, 64
1, 269289, Note_on_c, 1, 81, 110
1, 269290, Note_on_c, 4, 62, 127
1, 269388, Note_off_c, 2, 69, 64
1, 269388, Note_off_c, 2, 67, 64
1, 269393, Note_on_c, 2, 69, 118
1, 269393, Note_on_c, 1, 78, 110
1, 269490, Note_off_c, 4, 62, 64
1, 269490, Note_off_c, 1, 81, 64
1, 269495, Note_on_c, 4, 66, 127
1, 269495, Note_on_c, 1, 81, 110
1, 269590, Note_off_c, 1, 78, 64
1, 269590, Note_off_c, 2, 69, 64
1, 269596, Note_on_c, 1, 78, 110
1, 269597, Note_on_c, 2, 69, 118
1, 269693, Note_off_c, 4, 66, 64
1, 269694, Note_off_c, 1, 81, 64
1, 269700, Note_on_c, 4, 55, 127
1, 269700, Note_on_c, 1, 83, 110
1, 269797, Note_off_c, 1, 78, 64
1, 269797, Note_off_c, 2, 69, 64
1, 269802, Note_on_c, 4, 64, 126
1, 269802, Note_on_c, 1, 79, 110
1, 269899, Note_off_c, 1, 83, 64
1, 269899, Note_off_c, 4, 55, 64
1, 269904, Note_on_c, 4, 59, 127
1, 269904, Note_on_c, 1, 83, 110
1, 270000, Note_off_c, 4, 64, 64
1, 270001, Note_off_c, 1, 79, 64
1, 270005, Note_on_c, 1, 79, 110
1, 270006, Note_on_c, 4, 64, 126
1, 270100, Note_off_c, 1, 79, 64
1, 270104, Note_off_c, 4, 59, 64
1, 270105, Note_off_c, 1, 83, 64
1, 270109, Note_on_c, 4, 62, 127
1, 270109, Note_on_c, 1, 78, 110
1, 270110, Note_on_c, 4, 57, 127
1, 270119, Note_off_c, 4, 64, 64
1, 270311, Note_off_c, 4, 62, 64
1, 270320, Note_on_c, 2, 76, 113
1, 270321, Note_on_c, 4, 61, 127
1, 270327, Note_off_c, 1, 78, 64
1, 270514, Note_off_c, 2, 76, 64
1, 270521, Note_on_c, 2, 69, 118
1, 270698, Note_off_c, 2, 69, 64
1, 270732, Note_on_c, 2, 69, 118
1, 270937, Note_off_c, 2, 69, 64
1, 270944, Note_on_c, 2, 74, 117
1, 270944, Note_on_c, 4, 54, 127
1, 270952, Note_off_c, 4, 61, 64
1, 270962, Note_off_c, 4, 57, 64
1, 271051, Note_on_c, 4, 62, 127
1, 271151, Note_off_c, 4, 54, 64
1, 271157, Note_on_c, 4, 57, 127
1, 271259, Note_off_c, 4, 62, 64
1, 271264, Note_on_c, 4, 62, 127
1, 271358, Note_off_c, 2, 74, 64
1, 271358, Note_off_c, 4, 57, 64
1, 271361, Note_on_c, 1, 78, 114
1, 271362, Note_on_c, 4, 50, 127
1, 271458, Note_off_c, 4, 62, 64
1, 271464, Note_on_c, 2, 76, 117
1, 271464, Note_on_c, 4, 59, 127
1, 271475, Note_off_c, 1, 78, 64
1, 271559, Note_off_c, 4, 50, 64
1, 271565, Note_on_c, 4, 54, 127
1, 271565, Note_on_c, 2, 74, 117
1, 271577, Note_off_c, 2, 76, 64
1, 271662, Note_off_c, 4, 59, 64
1, 271668, Note_on_c, 4, 59, 127
1, 271668, Note_on_c, 2, 73, 117
1, 271678, Note_off_c, 2, 74, 64
1, 271764, Note_off_c, 4, 54, 64
1, 271768, Note_on_c, 2, 71, 116
1, 271769, Note_on_c, 4, 52, 127
1, 271781, Note_off_c, 2, 73, 64
1, 271863, Note_off_c, 4, 59, 64
1, 271869, Note_on_c, 2, 74, 117
1, 271870, Note_on_c, 4, 59, 127
1, 271966, Note_off_c, 4, 52, 64
1, 271967, Note_off_c, 2, 71, 64
1, 271971, Note_on_c, 4, 56, 127
1, 271971, Note_on_c, 2, 71, 116
1, 272064, Note_off_c, 2, 74, 64
1, 272064, Note_off_c, 4, 59, 64
1, 272071, Note_on_c, 4, 59, 127
1, 272071, Note_on_c, 2, 74, 117
1, 272168, Note_off_c, 2, 71, 64
1, 272168, Note_off_c, 4, 56, 64
1, 272172, Note_on_c, 1, 83, 114
1, 272173, Note_on_c, 4, 56, 127
1, 272269, Note_off_c, 4, 59, 64
1, 272270, Note_off_c, 2, 74, 64
1, 272274, Note_on_c, 1, 81, 114
1, 272275, Note_on_c, 4, 62, 127
1, 272287, Note_off_c, 1, 83, 64
1, 272369, Note_off_c, 4, 56, 64
1, 272375, Note_on_c, 1, 80, 114
1, 272376, Note_on_c, 4, 59, 127
1, 272386, Note_off_c, 1, 81, 64
1, 272472, Note_off_c, 4, 62, 64
1, 272476, Note_on_c, 1, 78, 114
1, 272476, Note_on_c, 4, 62, 127
1, 272488, Note_off_c, 1, 80, 64
1, 272569, Note_off_c, 4, 62, 64
1, 272573, Note_off_c, 4, 59, 64
1, 272577, Note_on_c, 4, 61, 127
1, 272577, Note_on_c, 2, 76, 117
1, 272578, Note_on_c, 4, 57, 127
1, 272588, Note_off_c, 1, 78, 64
1, 272680, Note_on_c, 1, 81, 114
1, 272692, Note_off_c, 2, 76, 64
1, 272774, Note_off_c, 4, 57, 64
1, 272775, Note_off_c, 4, 61, 64
1, 272783, Note_on_c, 1, 78, 114
1, 272784, Note_on_c, 4, 50, 127
1, 272784, Note_on_c, 4, 59, 127
1, 272794, Note_off_c, 1, 81, 64
1, 272882, Note_on_c, 2, 74, 117
1, 272893, Note_off_c, 1, 78, 64
1, 272975, Note_off_c, 4, 59, 64
1, 272975, Note_off_c, 4, 50, 64
1, 272983, Note_on_c, 2, 73, 117
1, 272984, Note_on_c, 4, 52, 127
1, 272984, Note_on_c, 4, 57, 127
1, 272992, Note_off_c, 2, 74, 64
1, 273084, Note_on_c, 2, 76, 117
1, 273094, Note_off_c, 2, 73, 64
1, 273179, Note_off_c, 4, 52, 64
1, 273180, Note_off_c, 4, 57, 64
1, 273188, Note_on_c, 4, 56, 127
1, 273188, Note_on_c, 2, 74, 117
1, 273189, Note_on_c, 4, 52, 127
1, 273198, Note_off_c, 2, 76, 64
1, 273288, Note_on_c, 2, 71, 116
1, 273289, Note_on_c, 4, 62, 127
1, 273299, Note_off_c, 2, 74, 64
1, 273384, Note_off_c, 4, 62, 64
1, 273385, Note_off_c, 4, 56, 64
1, 273385, Note_off_c, 4, 52, 64
1, 273385, Note_off_c, 2, 71, 64
1, 273392, Note_on_c, 2, 71, 116
1, 273393, Note_on_c, 4, 57, 127
1, 273393, Note_on_c, 4, 62, 127
1, 273394, Note_on_c, 4, 45, 127
1, 273394, Note_on_c, 4, 52, 127
1, 273601, Note_off_c, 4, 62, 64
1, 273602, Note_off_c, 2, 71, 64
1, 273610, Note_on_c, 2, 69, 118
1, 273611, Note_on_c, 4, 61, 127
1, 273790, Note_off_c, 2, 69, 64
1, 273816, Note_off_c, 4, 61, 64
1, 273828, Note_on_c, 2, 69, 118
1, 274009, Note_off_c, 2, 69, 64
1, 274041, Note_off_c, 4, 57, 64
1, 274044, Note_on_c, 2, 69, 118
1, 274253, Note_off_c, 2, 69, 64
1, 274257, Note_on_c, 2, 74, 117
1, 274258, Note_on_c, 4, 62, 127
1, 274273, Note_off_c, 4, 52, 64
1, 274362, Note_on_c, 2, 69, 118
1, 274465, Note_on_c, 4, 66, 127
1, 274562, Note_off_c, 2, 69, 64
1, 274563, Note_off_c, 4, 62, 64
1, 274568, Note_on_c, 2, 69, 118
1, 274635, Note_off_c, 4, 45, 64
1, 274664, Note_off_c, 2, 74, 64
1, 274670, Note_on_c, 4, 59, 127
1, 274670, Note_on_c, 2, 73, 117
1, 274771, Note_off_c, 2, 69, 64
1, 274771, Note_off_c, 4, 66, 64
1, 274776, Note_on_c, 4, 66, 127
1, 274776, Note_on_c, 2, 74, 117
1, 274786, Note_off_c, 2, 73, 64
1, 274871, Note_off_c, 4, 59, 64
1, 274876, Note_on_c, 2, 76, 117
1, 274877, Note_on_c, 4, 62, 127
1, 274887, Note_off_c, 2, 74, 64
1, 274971, Note_off_c, 4, 66, 64
1, 274975, Note_on_c, 1, 78, 114
1, 274976, Note_on_c, 4, 66, 127
1, 274988, Note_off_c, 2, 76, 64
1, 275072, Note_off_c, 4, 62, 64
1, 275078, Note_on_c, 1, 79, 114
1, 275078, Note_on_c, 4, 55, 127
1, 275088, Note_off_c, 1, 78, 64
1, 275173, Note_off_c, 4, 66, 64
1, 275179, Note_on_c, 4, 64, 126
1, 275179, Note_on_c, 2, 76, 117
1, 275275, Note_off_c, 4, 55, 64
1, 275275, Note_off_c, 1, 79, 64
1, 275281, Note_on_c, 1, 79, 114
1, 275282, Note_on_c, 4, 59, 127
1, 275375, Note_off_c, 2, 76, 64
1, 275375, Note_off_c, 4, 64, 64
1, 275380, Note_on_c, 4, 64, 126
1, 275380, Note_on_c, 2, 76, 117
1, 275390, Note_off_c, 1, 79, 64
1, 275476, Note_off_c, 4, 59, 64
1, 275483, Note_on_c, 4, 57, 127
1, 275483, Note_on_c, 2, 74, 117
1, 275493, Note_off_c, 2, 76, 64
1, 275579, Note_off_c, 4, 64, 64
1, 275585, Note_on_c, 2, 73, 117
1, 275586, Note_on_c, 2, 67, 127
1, 275595, Note_off_c, 2, 74, 64
1, 275686, Note_off_c, 4, 57, 64
1, 275687, Note_on_c, 4, 64, 126
1, 275687, Note_on_c, 2, 71, 116
1, 275696, Note_off_c, 2, 73, 64
1, 275781, Note_off_c, 2, 67, 64
1, 275785, Note_on_c, 2, 69, 118
1, 275785, Note_on_c, 2, 67, 127
1, 275795, Note_off_c, 2, 71, 64
1, 275884, Note_off_c, 4, 64, 64
1, 275885, Note_on_c, 4, 62, 127
1, 275885, Note_on_c, 1, 81, 110
1, 275986, Note_off_c, 2, 67, 64
1, 275986, Note_off_c, 2, 69, 64
1, 275990, Note_on_c, 1, 78, 114
1, 275991, Note_on_c, 2, 69, 118
1, 276087, Note_off_c, 1, 81, 64
1, 276091, Note_on_c, 1, 81, 110
1, 276092, Note_on_c, 4, 66, 127
1, 276096, Note_off_c, 4, 62, 64
1, 276186, Note_off_c, 1, 78, 64
1, 276186, Note_off_c, 2, 69, 64
1, 276191, Note_on_c, 1, 78, 114
1, 276192, Note_on_c, 2, 69, 118
1, 276292, Note_off_c, 1, 81, 64
1, 276298, Note_on_c, 4, 55, 127
1, 276298, Note_on_c, 1, 83, 110
1, 276302, Note_off_c, 4, 66, 64
1, 276396, Note_off_c, 2, 69, 64
1, 276397, Note_off_c, 1, 78, 64
1, 276403, Note_on_c, 1, 79, 114
1, 276404, Note_on_c, 4, 64, 126
1, 276502, Note_off_c, 1, 83, 64
1, 276508, Note_on_c, 1, 83, 110
1, 276508, Note_on_c, 4, 59, 127
1, 276511, Note_off_c, 4, 55, 64
1, 276603, Note_off_c, 1, 79, 64
1, 276603, Note_off_c, 4, 64, 64
1, 276608, Note_on_c, 1, 79, 114
1, 276608, Note_on_c, 4, 64, 126
1, 276703, Note_off_c, 4, 59, 64
1, 276703, Note_off_c, 1, 83, 64
1, 276708, Note_off_c, 4, 64, 64
1, 276708, Note_off_c, 1, 79, 64
1, 276708, Note_on_c, 1, 78, 114
1, 276709, Note_on_c, 4, 57, 127
1, 276709, Note_on_c, 4, 62, 127
1, 276901, Note_off_c, 4, 62, 64
1, 276911, Note_off_c, 1, 78, 64
1, 276913, Note_on_c, 4, 61, 127
1, 276913, Note_on_c, 2, 76, 117
1, 277117, Note_off_c, 2, 76, 64
1, 277125, Note_on_c, 2, 69, 118
1, 277306, Note_off_c, 2, 69, 64
1, 277342, Note_on_c, 2, 69, 118
1, 277544, Note_off_c, 2, 69, 64
1, 277549, Note_off_c, 4, 61, 64
1, 277550, Note_off_c, 4, 57, 64
1, 277550, Note_on_c, 2, 74, 117
1, 277551, Note_on_c, 4, 54, 127
1, 277655, Note_on_c, 4, 62, 127
1, 277755, Note_off_c, 4, 54, 64
1, 277759, Note_on_c, 4, 57, 127
1, 277853, Note_off_c, 4, 62, 64
1, 277859, Note_on_c, 4, 62, 127
1, 277953, Note_off_c, 4, 57, 64
1, 277959, Note_on_c, 4, 50, 127
1, 277959, Note_on_c, 1, 78, 114
1, 277963, Note_off_c, 2, 74, 64
1, 278057, Note_off_c, 4, 62, 64
1, 278064, Note_on_c, 4, 59, 127
1, 278064, Note_on_c, 2, 76, 117
1, 278074, Note_off_c, 1, 78, 64
1, 278160, Note_off_c, 4, 50, 64
1, 278166, Note_on_c, 2, 74, 117
1, 278167, Note_on_c, 4, 54, 127
1, 278176, Note_off_c, 2, 76, 64
1, 278261, Note_off_c, 4, 59, 64
1, 278267, Note_on_c, 2, 73, 117
1, 278268, Note_on_c, 4, 59, 127
1, 278277, Note_off_c, 2, 74, 64
1, 278360, Note_off_c, 4, 54, 64
1, 278366, Note_on_c, 4, 52, 127
1, 278366, Note_on_c, 2, 71, 116
1, 278376, Note_off_c, 2, 73, 64
1, 278461, Note_off_c, 4, 59, 64
1, 278467, Note_on_c, 4, 59, 127
1, 278467, Note_on_c, 2, 74, 117
1, 278477, Note_off_c, 2, 71, 64
1, 278564, Note_off_c, 4, 52, 64
1, 278569, Note_on_c, 2, 71, 116
1, 278570, Note_on_c, 4, 56, 127
1, 278580, Note_off_c, 2, 74, 64
1, 278664, Note_off_c, 4, 59, 64
1, 278670, Note_on_c, 2, 74, 117
1, 278671, Note_on_c, 4, 59, 127
1, 278681, Note_off_c, 2, 71, 64
1, 278763, Note_off_c, 4, 56, 64
1, 278769, Note_on_c, 1, 83, 114
1, 278770, Note_on_c, 4, 56, 127
1, 278780, Note_off_c, 2, 74, 64
1, 278866, Note_off_c, 4, 59, 64
1, 278872, Note_on_c, 4, 62, 127
1, 278872, Note_on_c, 1, 81, 114
1, 278882, Note_off_c, 1, 83, 64
1, 278963, Note_off_c, 4, 56, 64
1, 278969, Note_on_c, 4, 59, 127
1, 278969, Note_on_c, 1, 80, 114
1, 278977, Note_off_c, 1, 81, 64
1, 279066, Note_off_c, 4, 62, 64
1, 279070, Note_on_c, 4, 62, 127
1, 279070, Note_on_c, 1, 78, 114
1, 279082, Note_off_c, 1, 80, 64
1, 279167, Note_off_c, 4, 59, 64
1, 279172, Note_off_c, 4, 62, 64
1, 279173, Note_on_c, 4, 61, 127
1, 279173, Note_on_c, 2, 76, 117
1, 279174, Note_on_c, 4, 57, 127
1, 279184, Note_off_c, 1, 78, 64
1, 279274, Note_on_c, 1, 81, 114
1, 279286, Note_off_c, 2, 76, 64
1, 279366, Note_off_c, 4, 61, 64
1, 279366, Note_off_c, 4, 57, 64
1, 279374, Note_on_c, 1, 78, 114
1, 279374, Note_on_c, 4, 59, 127
1, 279375, Note_on_c, 4, 50, 127
1, 279384, Note_off_c, 1, 81, 64
1, 279471, Note_on_c, 2, 74, 117
1, 279481, Note_off_c, 1, 78, 64
1, 279562, Note_off_c, 4, 50, 64
1, 279563, Note_off_c, 4, 59, 64
1, 279571, Note_on_c, 4, 57, 127
1, 279571, Note_on_c, 2, 73, 117
1, 279572, Note_on_c, 4, 52, 127
1, 279581, Note_off_c, 2, 74, 64
1, 279672, Note_on_c, 2, 76, 117
1, 279682, Note_off_c, 2, 73, 64
1, 279765, Note_off_c, 4, 57, 64
1, 279765, Note_off_c, 4, 52, 64
1, 279773, Note_on_c, 2, 74, 117
1, 279774, Note_on_c, 4, 52, 127
1, 279774, Note_on_c, 4, 56, 127
1, 279784, Note_off_c, 2, 76, 64
1, 279876, Note_on_c, 2, 71, 116
1, 279877, Note_on_c, 4, 62, 127
1, 279887, Note_off_c, 2, 74, 64
1, 279973, Note_off_c, 4, 62, 64
1, 279973, Note_off_c, 2, 71, 64
1, 279974, Note_off_c, 4, 56, 64
1, 279974, Note_off_c, 4, 52, 64
1, 279983, Note_on_c, 2, 71, 116
1, 279984, Note_on_c, 4, 52, 127
1, 279984, Note_on_c, 4, 57, 127
1, 279984, Note_on_c, 4, 62, 127
1, 279985, Note_on_c, 4, 45, 127
1, 280191, Note_off_c, 2, 71, 64
1, 280193, Note_off_c, 4, 62, 64
1, 280201, Note_on_c, 4, 61, 127
1, 280201, Note_on_c, 2, 69, 118
1, 280404, Note_on_c, 1, 81, 114
1, 280507, Note_on_c, 1, 80, 114
1, 280516, Note_off_c, 1, 81, 64
1, 280605, Note_on_c, 1, 81, 114
1, 280613, Note_off_c, 1, 80, 64
1, 280706, Note_on_c, 1, 80, 114
1, 280717, Note_off_c, 1, 81, 64
1, 280806, Note_off_c, 2, 69, 64
1, 280806, Note_off_c, 4, 61, 64
1, 280807, Note_on_c, 1, 81, 114
1, 280807, Note_on_c, 4, 63, 127
1, 280808, Note_on_c, 4, 59, 127
1, 280816, Note_off_c, 4, 52, 64
1, 280816, Note_off_c, 4, 45, 64
1, 280817, Note_off_c, 4, 57, 64
1, 280817, Note_off_c, 1, 80, 64
1, 280905, Note_on_c, 1, 83, 114
1, 280916, Note_off_c, 1, 81, 64
1, 281006, Note_off_c, 4, 59, 64
1, 281006, Note_off_c, 4, 63, 64
1, 281011, Note_on_c, 1, 80, 114
1, 281012, Note_on_c, 4, 52, 127
1, 281012, Note_on_c, 4, 64, 126
1, 281022, Note_off_c, 1, 83, 64
1, 281111, Note_on_c, 2, 76, 117
1, 281121, Note_off_c, 1, 80, 64
1, 281201, Note_off_c, 4, 52, 64
1, 281202, Note_off_c, 4, 64, 64
1, 281206, Note_on_c, 1, 79, 114
1, 281207, Note_on_c, 4, 57, 127
1, 281207, Note_on_c, 4, 61, 127
1, 281217, Note_off_c, 2, 76, 64
1, 281297, Note_on_c, 1, 81, 114
1, 281307, Note_off_c, 1, 79, 64
1, 281391, Note_off_c, 4, 57, 64
1, 281392, Note_off_c, 4, 61, 64
1, 281397, Note_on_c, 4, 50, 127
1, 281397, Note_on_c, 4, 62, 127
1, 281397, Note_on_c, 1, 78, 114
1, 281410, Note_off_c, 1, 81, 64
1, 281496, Note_on_c, 2, 74, 117
1, 281506, Note_off_c, 1, 78, 64
1, 281590, Note_on_c, 1, 86, 114
1, 281591, Note_on_c, 2, 71, 116
1, 281603, Note_off_c, 2, 74, 64
1, 281691, Note_on_c, 2, 69, 118
1, 281691, Note_on_c, 1, 85, 114
1, 281701, Note_off_c, 2, 71, 64
1, 281702, Note_off_c, 1, 86, 64
1, 281787, Note_off_c, 4, 62, 64
1, 281787, Note_on_c, 1, 83, 114
1, 281788, Note_on_c, 2, 67, 127
1, 281797, Note_off_c, 2, 69, 64
1, 281798, Note_off_c, 1, 85, 64
1, 281881, Note_on_c, 1, 82, 114
1, 281881, Note_on_c, 4, 66, 127
1, 281892, Note_off_c, 2, 67, 64
1, 281892, Note_off_c, 1, 83, 64
1, 281977, Note_on_c, 2, 67, 127
1, 281977, Note_on_c, 1, 83, 114
1, 281989, Note_off_c, 4, 66, 64
1, 281990, Note_off_c, 1, 82, 64
1, 282079, Note_on_c, 1, 81, 114
1, 282079, Note_on_c, 4, 66, 127
1, 282087, Note_off_c, 2, 67, 64
1, 282088, Note_off_c, 1, 83, 64
1, 282177, Note_on_c, 4, 64, 126
1, 282177, Note_on_c, 1, 79, 114
1, 282188, Note_off_c, 4, 66, 64
1, 282188, Note_off_c, 1, 81, 64
1, 282276, Note_on_c, 1, 78, 114
1, 282277, Note_on_c, 4, 62, 127
1, 282287, Note_off_c, 4, 64, 64
1, 282288, Note_off_c, 1, 79, 64
1, 282375, Note_on_c, 2, 76, 105
1, 282375, Note_on_c, 1, 79, 102
1, 282376, Note_on_c, 2, 69, 118
1, 282376, Note_on_c, 4, 61, 127
1, 282386, Note_off_c, 4, 62, 64
1, 282386, Note_off_c, 1, 78, 64
1, 282581, Note_on_c, 2, 74, 113
1, 282581, Note_on_c, 1, 78, 110
1, 282582, Note_on_c, 4, 62, 127
1, 282584, Note_off_c, 2, 76, 64
1, 282584, Note_off_c, 4, 61, 64
1, 282585, Note_off_c, 1, 79, 64
1, 282783, Note_on_c, 4, 61, 127
1, 282783, Note_on_c, 2, 76, 113
1, 282785, Note_off_c, 4, 62, 64
1, 282786, Note_off_c, 1, 78, 64
1, 282786, Note_off_c, 2, 74, 64
1, 282974, Note_off_c, 2, 69, 64
1, 282985, Note_on_c, 2, 74, 117
1, 282986, Note_on_c, 2, 68, 120
1, 282986, Note_on_c, 4, 59, 127
1, 282990, Note_off_c, 2, 76, 64
1, 282990, Note_off_c, 4, 61, 64
1, 283187, Note_on_c, 1, 78, 114
1, 283189, Note_on_c, 4, 62, 127
1, 283189, Note_on_c, 2, 69, 118
1, 283190, Note_off_c, 4, 59, 64
1, 283190, Note_on_c, 4, 57, 127
1, 283191, Note_off_c, 2, 68, 64
1, 283191, Note_off_c, 2, 74, 64
1, 283562, Note_off_c, 1, 78, 64
1, 283564, Note_off_c, 4, 62, 64
1, 283565, Note_off_c, 2, 69, 64
1, 283577, Note_on_c, 4, 61, 127
1, 283577, Note_on_c, 2, 76, 117
1, 283973, Note_on_c, 2, 69, 118
1, 284169, Note_off_c, 2, 69, 64
1, 284170, Note_off_c, 4, 50, 64
1, 284205, Note_off_c, 2, 76, 64
1, 284205, Note_off_c, 4, 61, 64
1, 284206, Note_on_c, 2, 69, 118
1, 284390, Note_off_c, 4, 57, 64
1, 284401, Note_off_c, 2, 69, 64
1, 284407, Note_on_c, 2, 74, 117
1, 284408, Note_on_c, 4, 62, 127
1, 284516, Note_on_c, 2, 69, 118
1, 284619, Note_off_c, 4, 62, 64
1, 284625, Note_on_c, 4, 66, 127
1, 284723, Note_off_c, 2, 69, 64
1, 284729, Note_on_c, 2, 69, 118
1, 284827, Note_off_c, 4, 66, 64
1, 284833, Note_on_c, 4, 59, 127
1, 284833, Note_on_c, 2, 73, 117
1, 284835, Note_off_c, 2, 74, 64
1, 284930, Note_off_c, 2, 69, 64
1, 284938, Note_on_c, 4, 66, 127
1, 284938, Note_on_c, 2, 74, 113
1, 284948, Note_off_c, 2, 73, 64
1, 285030, Note_off_c, 4, 59, 64
1, 285035, Note_on_c, 4, 62, 127
1, 285035, Note_on_c, 2, 76, 113
1, 285047, Note_off_c, 2, 74, 64
1, 285127, Note_off_c, 4, 66, 64
1, 285133, Note_on_c, 1, 78, 110
1, 285134, Note_on_c, 4, 66, 127
1, 285144, Note_off_c, 2, 76, 64
1, 285228, Note_off_c, 4, 62, 64
1, 285234, Note_on_c, 1, 79, 110
1, 285235, Note_on_c, 4, 55, 127
1, 285247, Note_off_c, 1, 78, 64
1, 285335, Note_off_c, 4, 66, 64
1, 285341, Note_on_c, 4, 64, 126
1, 285341, Note_on_c, 2, 76, 113
1, 285353, Note_off_c, 1, 79, 64
1, 285438, Note_off_c, 4, 55, 64
1, 285444, Note_on_c, 4, 59, 127
1, 285444, Note_on_c, 1, 79, 110
1, 285456, Note_off_c, 2, 76, 64
1, 285542, Note_off_c, 4, 64, 64
1, 285546, Note_on_c, 2, 76, 113
1, 285547, Note_on_c, 4, 64, 126
1, 285557, Note_off_c, 1, 79, 64
1, 285639, Note_off_c, 4, 59, 64
1, 285643, Note_on_c, 2, 74, 113
1, 285644, Note_on_c, 4, 57, 127
1, 285655, Note_off_c, 2, 76, 64
1, 285740, Note_off_c, 4, 64, 64
1, 285746, Note_on_c, 2, 67, 127
1, 285746, Note_on_c, 2, 73, 113
1, 285756, Note_off_c, 2, 74, 64
1, 285845, Note_off_c, 4, 57, 64
1, 285851, Note_on_c, 2, 71, 116
1, 285851, Note_on_c, 4, 64, 126
1, 285861, Note_off_c, 2, 73, 64
1, 285949, Note_off_c, 2, 67, 64
1, 285955, Note_on_c, 2, 69, 118
1, 285956, Note_on_c, 2, 67, 127
1, 285966, Note_off_c, 2, 71, 64
1, 285981, Note_off_c, 4, 64, 64
1, 286058, Note_off_c, 2, 67, 64
1, 286058, Note_on_c, 1, 81, 114
1, 286059, Note_on_c, 4, 62, 127
1, 286059, Note_on_c, 4, 66, 127
1, 286069, Note_off_c, 2, 69, 64
1, 286164, Note_on_c, 1, 86, 114
1, 286175, Note_off_c, 1, 81, 64
1, 286260, Note_on_c, 4, 55, 127
1, 286260, Note_on_c, 4, 64, 126
1, 286260, Note_on_c, 1, 83, 110
1, 286262, Note_off_c, 4, 62, 64
1, 286263, Note_off_c, 4, 66, 64
1, 286269, Note_off_c, 1, 86, 64
1, 286356, Note_on_c, 1, 79, 110
1, 286365, Note_off_c, 1, 83, 64
1, 286457, Note_on_c, 1, 78, 110
1, 286458, Note_on_c, 4, 57, 127
1, 286458, Note_on_c, 4, 62, 127
1, 286460, Note_off_c, 4, 55, 64
1, 286461, Note_off_c, 4, 64, 64
1, 286469, Note_off_c, 1, 79, 64
1, 286561, Note_on_c, 1, 81, 110
1, 286571, Note_off_c, 1, 78, 64
1, 286651, Note_off_c, 4, 57, 64
1, 286661, Note_on_c, 4, 61, 127
1, 286661, Note_on_c, 1, 79, 110
1, 286662, Note_on_c, 4, 57, 127
1, 286664, Note_off_c, 4, 62, 64
1, 286671, Note_off_c, 1, 81, 64
1, 286762, Note_on_c, 2, 76, 113
1, 286764, Note_on_c, 2, 67, 127
1, 286773, Note_off_c, 1, 79, 64
1, 286857, Note_off_c, 2, 76, 64
1, 286859, Note_off_c, 4, 57, 64
1, 286859, Note_off_c, 2, 67, 64
1, 286867, Note_on_c, 2, 76, 105
1, 286868, Note_on_c, 4, 62, 127
1, 286868, Note_on_c, 2, 67, 120
1, 286869, Note_on_c, 4, 50, 127
1, 286869, Note_on_c, 4, 57, 127
1, 286871, Note_off_c, 4, 61, 64
1, 287075, Note_off_c, 2, 76, 64
1, 287076, Note_off_c, 2, 67, 64
1, 287081, Note_on_c, 2, 74, 113
1, 287083, Note_on_c, 4, 66, 127
1, 287285, Note_on_c, 1, 81, 106
1, 287385, Note_on_c, 1, 80, 106
1, 287396, Note_off_c, 1, 81, 64
1, 287479, Note_on_c, 1, 81, 106
1, 287487, Note_off_c, 1, 80, 64
1, 287574, Note_on_c, 1, 80, 106
1, 287585, Note_off_c, 1, 81, 64
1, 287674, Note_off_c, 2, 74, 64
1, 287675, Note_off_c, 4, 66, 64
1, 287675, Note_on_c, 1, 81, 106
1, 287676, Note_off_c, 4, 50, 64
1, 287676, Note_on_c, 4, 59, 127
1, 287676, Note_on_c, 4, 63, 127
1, 287677, Note_off_c, 4, 62, 64
1, 287677, Note_off_c, 4, 57, 64
1, 287685, Note_off_c, 1, 80, 64
1, 287778, Note_on_c, 1, 83, 106
1, 287787, Note_off_c, 1, 81, 64
1, 287872, Note_on_c, 4, 64, 126
1, 287872, Note_on_c, 1, 80, 106
1, 287873, Note_on_c, 4, 52, 127
1, 287877, Note_off_c, 4, 63, 64
1, 287877, Note_off_c, 4, 59, 64
1, 287880, Note_off_c, 1, 83, 64
1, 287969, Note_on_c, 2, 76, 113
1, 287980, Note_off_c, 1, 80, 64
1, 288069, Note_on_c, 4, 61, 127
1, 288069, Note_on_c, 1, 79, 106
1, 288070, Note_on_c, 4, 57, 127
1, 288072, Note_off_c, 4, 52, 64
1, 288073, Note_off_c, 4, 64, 64
1, 288079, Note_off_c, 2, 76, 64
1, 288160, Note_on_c, 1, 81, 106
1, 288170, Note_off_c, 1, 79, 64
1, 288264, Note_on_c, 4, 50, 127
1, 288264, Note_on_c, 4, 62, 127
1, 288264, Note_on_c, 1, 78, 106
1, 288266, Note_off_c, 4, 57, 64
1, 288267, Note_off_c, 4, 61, 64
1, 288273, Note_off_c, 1, 81, 64
1, 288360, Note_on_c, 2, 74, 113
1, 288369, Note_off_c, 1, 78, 64
1, 288458, Note_on_c, 1, 86, 110
1, 288459, Note_on_c, 2, 71, 116
1, 288469, Note_off_c, 2, 74, 64
1, 288555, Note_on_c, 1, 85, 110
1, 288556, Note_on_c, 2, 69, 118
1, 288568, Note_off_c, 1, 86, 64
1, 288568, Note_off_c, 2, 71, 64
1, 288653, Note_on_c, 1, 83, 106
1, 288654, Note_off_c, 4, 62, 64
1, 288654, Note_on_c, 2, 67, 127
1, 288662, Note_off_c, 2, 69, 64
1, 288662, Note_off_c, 1, 85, 64
1, 288749, Note_on_c, 1, 82, 110
1, 288750, Note_on_c, 4, 66, 127
1, 288760, Note_off_c, 1, 83, 64
1, 288760, Note_off_c, 2, 67, 64
1, 288849, Note_on_c, 1, 83, 110
1, 288850, Note_on_c, 2, 67, 127
1, 288860, Note_off_c, 4, 66, 64
1, 288860, Note_off_c, 1, 82, 64
1, 288943, Note_on_c, 1, 81, 110
1, 288944, Note_on_c, 4, 66, 127
1, 288952, Note_off_c, 2, 67, 64
1, 288952, Note_off_c, 1, 83, 64
1, 289039, Note_on_c, 1, 79, 110
1, 289040, Note_on_c, 4, 64, 126
1, 289050, Note_off_c, 1, 81, 64
1, 289050, Note_off_c, 4, 66, 64
1, 289137, Note_on_c, 1, 78, 110
1, 289138, Note_on_c, 4, 62, 127
1, 289148, Note_off_c, 4, 64, 64
1, 289148, Note_off_c, 1, 79, 64
1, 289234, Note_on_c, 2, 69, 118
1, 289234, Note_on_c, 2, 76, 117
1, 289234, Note_on_c, 1, 79, 110
1, 289235, Note_on_c, 4, 61, 127
1, 289245, Note_off_c, 1, 78, 64
1, 289245, Note_off_c, 4, 62, 64
1, 289440, Note_on_c, 1, 78, 110
1, 289440, Note_on_c, 2, 74, 117
1, 289441, Note_on_c, 4, 62, 127
1, 289443, Note_off_c, 4, 61, 64
1, 289444, Note_off_c, 1, 79, 64
1, 289444, Note_off_c, 2, 76, 64
1, 289648, Note_on_c, 2, 76, 117
1, 289649, Note_on_c, 4, 61, 127
1, 289651, Note_off_c, 4, 62, 64
1, 289652, Note_off_c, 2, 74, 64
1, 289652, Note_off_c, 1, 78, 64
1, 289834, Note_off_c, 4, 50, 64
1, 289851, Note_on_c, 4, 59, 127
1, 289851, Note_on_c, 2, 68, 120
1, 289851, Note_on_c, 2, 74, 117
1, 289853, Note_off_c, 4, 61, 64
1, 289854, Note_off_c, 2, 76, 64
1, 289860, Note_off_c, 2, 69, 64
1, 290043, Note_off_c, 2, 68, 64
1, 290051, Note_on_c, 2, 69, 118
1, 290051, Note_on_c, 1, 78, 114
1, 290052, Note_on_c, 4, 57, 127
1, 290052, Note_on_c, 4, 62, 127
1, 290054, Note_off_c, 2, 74, 64
1, 290054, Note_off_c, 4, 59, 64
1, 290443, Note_off_c, 4, 62, 64
1, 290444, Note_off_c, 1, 78, 64
1, 290444, Note_on_c, 2, 76, 117
1, 290445, Note_on_c, 4, 61, 127
1, 290810, Note_off_c, 2, 69, 64
1, 290841, Note_on_c, 2, 69, 118
1, 291025, Note_off_c, 2, 69, 64
1, 291058, Note_off_c, 2, 76, 64
1, 291058, Note_off_c, 4, 61, 64
1, 291061, Note_on_c, 2, 69, 118
1, 291158, Note_off_c, 4, 57, 64
1, 291264, Note_off_c, 2, 69, 64
1, 291266, Note_on_c, 2, 74, 117
1, 291266, Note_on_c, 4, 62, 127
1, 291365, Note_on_c, 2, 69, 118
1, 291464, Note_off_c, 4, 62, 64
1, 291469, Note_on_c, 4, 66, 127
1, 291567, Note_off_c, 2, 69, 64
1, 291571, Note_on_c, 2, 69, 118
1, 291663, Note_off_c, 4, 66, 64
1, 291670, Note_on_c, 4, 59, 127
1, 291670, Note_on_c, 2, 73, 117
1, 291672, Note_off_c, 2, 74, 64
1, 291766, Note_off_c, 2, 69, 64
1, 291772, Note_on_c, 2, 74, 117
1, 291773, Note_on_c, 4, 66, 127
1, 291782, Note_off_c, 2, 73, 64
1, 291871, Note_off_c, 4, 59, 64
1, 291876, Note_on_c, 2, 76, 117
1, 291877, Note_on_c, 4, 62, 127
1, 291887, Note_off_c, 2, 74, 64
1, 291970, Note_off_c, 4, 66, 64
1, 291974, Note_on_c, 4, 66, 127
1, 291974, Note_on_c, 1, 78, 114
1, 291984, Note_off_c, 2, 76, 64
1, 292070, Note_off_c, 4, 62, 64
1, 292075, Note_on_c, 4, 55, 127
1, 292075, Note_on_c, 1, 79, 114
1, 292085, Note_off_c, 1, 78, 64
1, 292175, Note_off_c, 4, 66, 64
1, 292181, Note_on_c, 4, 64, 126
1, 292181, Note_on_c, 2, 76, 117
1, 292191, Note_off_c, 1, 79, 64
1, 292272, Note_off_c, 4, 55, 64
1, 292278, Note_on_c, 1, 79, 114
1, 292279, Note_on_c, 4, 59, 127
1, 292289, Note_off_c, 2, 76, 64
1, 292371, Note_off_c, 4, 64, 64
1, 292375, Note_on_c, 2, 76, 117
1, 292376, Note_on_c, 4, 64, 126
1, 292385, Note_off_c, 1, 79, 64
1, 292468, Note_off_c, 4, 59, 64
1, 292474, Note_on_c, 2, 74, 117
1, 292475, Note_on_c, 4, 57, 127
1, 292485, Note_off_c, 2, 76, 64
1, 292567, Note_off_c, 4, 64, 64
1, 292572, Note_on_c, 2, 73, 117
1, 292573, Note_on_c, 2, 67, 127
1, 292582, Note_off_c, 2, 74, 64
1, 292667, Note_off_c, 4, 57, 64
1, 292673, Note_on_c, 4, 64, 126
1, 292673, Note_on_c, 2, 71, 116
1, 292683, Note_off_c, 2, 73, 64
1, 292770, Note_off_c, 2, 67, 64
1, 292776, Note_on_c, 2, 67, 127
1, 292776, Note_on_c, 2, 69, 118
1, 292786, Note_off_c, 2, 71, 64
1, 292801, Note_off_c, 4, 64, 64
1, 292878, Note_off_c, 2, 67, 64
1, 292879, Note_on_c, 4, 66, 127
1, 292879, Note_on_c, 1, 81, 114
1, 292880, Note_on_c, 4, 62, 127
1, 292890, Note_off_c, 2, 69, 64
1, 292988, Note_on_c, 1, 86, 114
1, 292997, Note_off_c, 1, 81, 64
1, 293082, Note_on_c, 4, 64, 126
1, 293082, Note_on_c, 1, 83, 114
1, 293083, Note_on_c, 4, 55, 127
1, 293085, Note_off_c, 4, 66, 64
1, 293085, Note_off_c, 4, 62, 64
1, 293093, Note_off_c, 1, 86, 64
1, 293178, Note_on_c, 1, 79, 114
1, 293189, Note_off_c, 1, 83, 64
1, 293280, Note_on_c, 1, 78, 114
1, 293280, Note_on_c, 4, 62, 127
1, 293280, Note_on_c, 4, 57, 127
1, 293282, Note_off_c, 4, 55, 64
1, 293283, Note_off_c, 4, 64, 64
1, 293291, Note_off_c, 1, 79, 64
1, 293379, Note_on_c, 1, 81, 114
1, 293389, Note_off_c, 1, 78, 64
1, 293479, Note_off_c, 4, 57, 64
1, 293487, Note_on_c, 4, 61, 127
1, 293487, Note_on_c, 1, 79, 114
1, 293488, Note_on_c, 4, 57, 127
1, 293490, Note_off_c, 4, 62, 64
1, 293497, Note_off_c, 1, 81, 64
1, 293588, Note_on_c, 2, 76, 117
1, 293588, Note_on_c, 2, 67, 127
1, 293600, Note_off_c, 1, 79, 64
1, 293692, Note_off_c, 2, 76, 64
1, 293693, Note_off_c, 2, 67, 64
1, 293693, Note_off_c, 4, 57, 64
1, 293701, Note_on_c, 2, 76, 105
1, 293705, Note_on_c, 4, 62, 127
1, 293705, Note_on_c, 2, 67, 116
1, 293706, Note_on_c, 4, 50, 127
1, 293706, Note_on_c, 4, 57, 127
1, 293709, Note_off_c, 4, 61, 64
1, 294031, Note_off_c, 2, 76, 64
1, 294035, Note_off_c, 2, 67, 64
1, 294043, Note_on_c, 2, 74, 116
1, 294045, Note_on_c, 4, 66, 127
1, 294681, Note_off_c, 2, 74, 64
1, 294681, Note_off_c, 4, 66, 64
1, 294686, Note_off_c, 4, 57, 64
1, 294687, Note_off_c, 4, 62, 64
1, 294687, Note_off_c, 4, 50, 64
1, 294870, Note_on_c, 2, 69, 118
1, 294942, Note_on_c, 2, 71, 116
1, 294949, Note_off_c, 2, 69, 64
1, 294999, Note_on_c, 2, 68, 120
1, 295005, Note_off_c, 2, 71, 64
1, 295055, Note_on_c, 2, 69, 118
1, 295062, Note_off_c, 2, 68, 64
1, 295111, Note_on_c, 2, 71, 116
1, 295116, Note_off_c, 2, 69, 64
1, 295164, Note_on_c, 2, 73, 117
1, 295172, Note_off_c, 2, 71, 64
1, 295222, Note_on_c, 2, 74, 117
1, 295223, Note_on_c, 4, 50, 127
1, 295223, Note_on_c, 4, 54, 127
1, 295229, Note_off_c, 2, 73, 64
1, 295277, Note_on_c, 2, 76, 117
1, 295284, Note_off_c, 2, 74, 64
1, 295336, Note_on_c, 2, 73, 117
1, 295342, Note_off_c, 2, 76, 64
1, 295392, Note_on_c, 2, 74, 117
1, 295398, Note_off_c, 2, 73, 64
1, 295448, Note_on_c, 2, 76, 117
1, 295453, Note_off_c, 2, 74, 64
1, 295503, Note_on_c, 2, 73, 117
1, 295511, Note_off_c, 2, 76, 64
1, 295546, Note_off_c, 4, 54, 64
1, 295559, Note_off_c, 4, 50, 64
1, 295560, Note_on_c, 4, 54, 127
1, 295560, Note_on_c, 4, 57, 127
1, 295560, Note_on_c, 2, 74, 117
1, 295565, Note_off_c, 2, 73, 64
1, 295611, Note_on_c, 1, 78, 114
1, 295619, Note_off_c, 2, 74, 64
1, 295667, Note_on_c, 2, 76, 117
1, 295672, Note_off_c, 1, 78, 64
1, 295718, Note_on_c, 2, 74, 117
1, 295726, Note_off_c, 2, 76, 64
1, 295774, Note_on_c, 2, 76, 117
1, 295780, Note_off_c, 2, 74, 64
1, 295830, Note_on_c, 1, 78, 114
1, 295837, Note_off_c, 2, 76, 64
1, 295885, Note_off_c, 4, 54, 64
1, 295886, Note_off_c, 4, 57, 64
1, 295886, Note_on_c, 1, 79, 114
1, 295887, Note_on_c, 4, 52, 127
1, 295887, Note_on_c, 4, 59, 127
1, 295893, Note_off_c, 1, 78, 64
1, 295942, Note_on_c, 1, 81, 114
1, 295950, Note_off_c, 1, 79, 64
1, 295998, Note_on_c, 1, 78, 114
1, 296005, Note_off_c, 1, 81, 64
1, 296052, Note_on_c, 1, 79, 114
1, 296057, Note_off_c, 1, 78, 64
1, 296107, Note_on_c, 2, 76, 117
1, 296113, Note_off_c, 1, 79, 64
1, 296159, Note_on_c, 2, 74, 117
1, 296165, Note_off_c, 2, 76, 64
1, 296211, Note_off_c, 4, 59, 64
1, 296211, Note_off_c, 4, 52, 64
1, 296212, Note_on_c, 4, 57, 127
1, 296212, Note_on_c, 2, 73, 117
1, 296217, Note_off_c, 2, 74, 64
1, 296263, Note_on_c, 2, 76, 117
1, 296271, Note_off_c, 2, 73, 64
1, 296316, Note_on_c, 2, 75, 117
1, 296324, Note_off_c, 2, 76, 64
1, 296370, Note_on_c, 2, 76, 117
1, 296376, Note_off_c, 2, 75, 64
1, 296424, Note_on_c, 1, 78, 114
1, 296430, Note_off_c, 2, 76, 64
1, 296476, Note_on_c, 1, 79, 114
1, 296484, Note_off_c, 1, 78, 64
1, 296528, Note_off_c, 4, 57, 64
1, 296528, Note_on_c, 1, 80, 114
1, 296529, Note_on_c, 4, 54, 127
1, 296529, Note_on_c, 4, 62, 127
1, 296535, Note_off_c, 1, 79, 64
1, 296583, Note_on_c, 1, 81, 114
1, 296589, Note_off_c, 1, 80, 64
1, 296637, Note_on_c, 1, 78, 114
1, 296643, Note_off_c, 1, 81, 64
1, 296691, Note_on_c, 1, 80, 114
1, 296697, Note_off_c, 1, 78, 64
1, 296745, Note_on_c, 1, 81, 114
1, 296750, Note_off_c, 1, 80, 64
1, 296800, Note_on_c, 1, 78, 114
1, 296808, Note_off_c, 1, 81, 64
1, 296843, Note_off_c, 4, 62, 64
1, 296856, Note_off_c, 4, 54, 64
1, 296856, Note_on_c, 1, 82, 114
1, 296857, Note_on_c, 4, 55, 127
1, 296857, Note_on_c, 4, 62, 127
1, 296864, Note_off_c, 1, 78, 64
1, 296912, Note_on_c, 1, 83, 114
1, 296917, Note_off_c, 1, 82, 64
1, 296966, Note_on_c, 1, 79, 114
1, 296973, Note_off_c, 1, 83, 64
1, 297019, Note_on_c, 1, 82, 114
1, 297025, Note_off_c, 1, 79, 64
1, 297071, Note_on_c, 1, 83, 114
1, 297077, Note_off_c, 1, 82, 64
1, 297125, Note_on_c, 1, 79, 114
1, 297131, Note_off_c, 1, 83, 64
1, 297165, Note_off_c, 4, 62, 64
1, 297179, Note_off_c, 4, 55, 64
1, 297179, Note_on_c, 1, 78, 114
1, 297180, Note_on_c, 4, 57, 127
1, 297180, Note_on_c, 4, 62, 127
1, 297186, Note_off_c, 1, 79, 64
1, 297338, Note_off_c, 1, 78, 64
1, 297348, Note_on_c, 4, 61, 127
1, 297348, Note_on_c, 2, 76, 117
1, 297351, Note_off_c, 4, 62, 64
1, 297508, Note_off_c, 2, 76, 64
1, 297516, Note_on_c, 2, 69, 118
1, 297577, Note_on_c, 2, 71, 116
1, 297585, Note_off_c, 2, 69, 64
1, 297633, Note_on_c, 2, 68, 120
1, 297639, Note_off_c, 2, 71, 64
1, 297687, Note_on_c, 2, 69, 118
1, 297693, Note_off_c, 2, 68, 64
1, 297743, Note_on_c, 2, 71, 116
1, 297750, Note_off_c, 2, 69, 64
1, 297796, Note_on_c, 2, 73, 117
1, 297804, Note_off_c, 2, 71, 64
1, 297852, Note_on_c, 2, 74, 117
1, 297858, Note_off_c, 2, 73, 64
1, 297906, Note_on_c, 2, 76, 117
1, 297913, Note_off_c, 2, 74, 64
1, 297965, Note_on_c, 2, 73, 117
1, 297971, Note_off_c, 2, 76, 64
1, 298019, Note_on_c, 2, 74, 117
1, 298020, Note_on_c, 2, 69, 118
1, 298020, Note_on_c, 4, 66, 127
1, 298026, Note_off_c, 2, 73, 64
1, 298045, Note_off_c, 4, 61, 64
1, 298072, Note_on_c, 1, 86, 110
1, 298080, Note_off_c, 2, 74, 64
1, 298129, Note_on_c, 1, 85, 110
1, 298137, Note_off_c, 1, 86, 64
1, 298183, Note_on_c, 1, 83, 110
1, 298189, Note_off_c, 1, 85, 64
1, 298237, Note_on_c, 1, 85, 110
1, 298243, Note_off_c, 1, 83, 64
1, 298291, Note_on_c, 1, 82, 110
1, 298296, Note_off_c, 1, 85, 64
1, 298339, Note_off_c, 4, 66, 64
1, 298344, Note_on_c, 1, 83, 110
1, 298345, Note_on_c, 4, 62, 127
1, 298345, Note_on_c, 4, 66, 127
1, 298351, Note_off_c, 1, 82, 64
1, 298359, Note_off_c, 4, 57, 64
1, 298397, Note_on_c, 1, 85, 110
1, 298405, Note_off_c, 1, 83, 64
1, 298453, Note_on_c, 1, 81, 110
1, 298459, Note_off_c, 1, 85, 64
1, 298503, Note_on_c, 1, 80, 110
1, 298511, Note_off_c, 1, 81, 64
1, 298557, Note_on_c, 1, 81, 110
1, 298562, Note_off_c, 1, 80, 64
1, 298610, Note_on_c, 1, 78, 110
1, 298619, Note_off_c, 1, 81, 64
1, 298624, Note_off_c, 2, 69, 64
1, 298643, Note_off_c, 4, 62, 64
1, 298664, Note_off_c, 4, 66, 64
1, 298665, Note_on_c, 4, 62, 127
1, 298665, Note_on_c, 1, 80, 110
1, 298666, Note_on_c, 4, 59, 127
1, 298670, Note_off_c, 1, 78, 64
1, 298718, Note_on_c, 1, 81, 110
1, 298724, Note_off_c, 1, 80, 64
1, 298772, Note_on_c, 1, 78, 110
1, 298779, Note_off_c, 1, 81, 64
1, 298824, Note_on_c, 2, 76, 117
1, 298831, Note_off_c, 1, 78, 64
1, 298877, Note_on_c, 1, 78, 110
1, 298883, Note_off_c, 2, 76, 64
1, 298931, Note_on_c, 2, 75, 117
1, 298937, Note_off_c, 1, 78, 64
1, 298977, Note_off_c, 4, 59, 64
1, 298983, Note_off_c, 4, 62, 64
1, 298983, Note_on_c, 2, 76, 117
1, 298984, Note_on_c, 4, 56, 127
1, 298984, Note_on_c, 4, 59, 127
1, 298991, Note_off_c, 2, 75, 64
1, 299037, Note_on_c, 1, 78, 114
1, 299042, Note_off_c, 2, 76, 64
1, 299093, Note_on_c, 2, 74, 117
1, 299098, Note_off_c, 1, 78, 64
1, 299140, Note_off_c, 4, 56, 64
1, 299141, Note_off_c, 4, 59, 64
1, 299146, Note_on_c, 4, 57, 127
1, 299146, Note_on_c, 2, 73, 117
1, 299153, Note_off_c, 2, 74, 64
1, 299201, Note_on_c, 2, 76, 117
1, 299208, Note_off_c, 2, 73, 64
1, 299255, Note_on_c, 1, 81, 114
1, 299262, Note_off_c, 2, 76, 64
1, 299304, Note_off_c, 4, 57, 64
1, 299312, Note_on_c, 2, 77, 117
1, 299315, Note_on_c, 4, 59, 127
1, 299315, Note_on_c, 4, 50, 127
1, 299317, Note_off_c, 1, 81, 64
1, 299365, Note_on_c, 1, 78, 114
1, 299371, Note_off_c, 2, 77, 64
1, 299419, Note_on_c, 2, 74, 117
1, 299426, Note_off_c, 1, 78, 64
1, 299469, Note_off_c, 4, 50, 64
1, 299470, Note_off_c, 4, 59, 64
1, 299472, Note_on_c, 2, 75, 117
1, 299476, Note_on_c, 4, 52, 127
1, 299476, Note_on_c, 4, 61, 127
1, 299478, Note_off_c, 2, 74, 64
1, 299526, Note_on_c, 2, 76, 117
1, 299532, Note_off_c, 2, 75, 64
1, 299580, Note_on_c, 2, 73, 117
1, 299586, Note_off_c, 2, 76, 64
1, 299616, Note_off_c, 2, 73, 64
1, 299630, Note_off_c, 4, 52, 64
1, 299631, Note_off_c, 4, 61, 64
1, 299633, Note_on_c, 2, 73, 117
1, 299637, Note_on_c, 4, 62, 127
1, 299638, Note_on_c, 4, 52, 127
1, 299638, Note_on_c, 4, 56, 127
1, 299689, Note_on_c, 2, 74, 117
1, 299697, Note_off_c, 2, 73, 64
1, 299748, Note_on_c, 2, 71, 116
1, 299756, Note_off_c, 2, 74, 64
1, 299794, Note_off_c, 2, 71, 64
1, 299805, Note_off_c, 4, 52, 64
1, 299806, Note_off_c, 4, 62, 64
1, 299806, Note_off_c, 4, 56, 64
1, 299811, Note_on_c, 2, 71, 116
1, 299815, Note_on_c, 4, 57, 127
1, 299815, Note_on_c, 4, 62, 127
1, 299979, Note_off_c, 4, 62, 64
1, 299979, Note_off_c, 2, 71, 64
1, 299981, Note_on_c, 4, 61, 127
1, 299981, Note_on_c, 2, 69, 118
1, 300135, Note_off_c, 2, 69, 64
1, 300149, Note_on_c, 2, 69, 118
1, 300210, Note_on_c, 2, 71, 116
1, 300218, Note_off_c, 2, 69, 64
1, 300265, Note_on_c, 2, 68, 120
1, 300271, Note_off_c, 2, 71, 64
1, 300321, Note_on_c, 2, 69, 118
1, 300326, Note_off_c, 2, 68, 64
1, 300375, Note_on_c, 2, 71, 116
1, 300381, Note_off_c, 2, 69, 64
1, 300431, Note_on_c, 2, 73, 117
1, 300437, Note_off_c, 2, 71, 64
1, 300485, Note_on_c, 4, 54, 127
1, 300485, Note_on_c, 2, 74, 117
1, 300486, Note_on_c, 4, 50, 127
1, 300492, Note_off_c, 2, 73, 64
1, 300495, Note_off_c, 4, 57, 64
1, 300499, Note_off_c, 4, 61, 64
1, 300541, Note_on_c, 2, 76, 117
1, 300547, Note_off_c, 2, 74, 64
1, 300597, Note_on_c, 2, 73, 117
1, 300603, Note_off_c, 2, 76, 64
1, 300649, Note_on_c, 2, 74, 117
1, 300657, Note_off_c, 2, 73, 64
1, 300703, Note_on_c, 2, 76, 117
1, 300708, Note_off_c, 2, 74, 64
1, 300758, Note_on_c, 2, 73, 117
1, 300764, Note_off_c, 2, 76, 64
1, 300797, Note_off_c, 4, 54, 64
1, 300808, Note_off_c, 4, 50, 64
1, 300809, Note_on_c, 4, 57, 127
1, 300809, Note_on_c, 2, 74, 117
1, 300810, Note_on_c, 4, 54, 127
1, 300816, Note_off_c, 2, 73, 64
1, 300862, Note_on_c, 1, 78, 114
1, 300868, Note_off_c, 2, 74, 64
1, 300918, Note_on_c, 2, 76, 117
1, 300925, Note_off_c, 1, 78, 64
1, 300970, Note_on_c, 2, 74, 117
1, 300977, Note_off_c, 2, 76, 64
1, 301021, Note_on_c, 2, 76, 117
1, 301027, Note_off_c, 2, 74, 64
1, 301075, Note_on_c, 1, 78, 114
1, 301081, Note_off_c, 2, 76, 64
1, 301127, Note_off_c, 4, 54, 64
1, 301128, Note_off_c, 4, 57, 64
1, 301128, Note_on_c, 4, 59, 127
1, 301128, Note_on_c, 1, 79, 110
1, 301129, Note_on_c, 4, 52, 127
1, 301133, Note_off_c, 1, 78, 64
1, 301179, Note_on_c, 1, 81, 110
1, 301185, Note_off_c, 1, 79, 64
1, 301233, Note_on_c, 1, 78, 114
1, 301238, Note_off_c, 1, 81, 64
1, 301283, Note_on_c, 1, 79, 110
1, 301288, Note_off_c, 1, 78, 64
1, 301335, Note_on_c, 2, 76, 117
1, 301342, Note_off_c, 1, 79, 64
1, 301388, Note_on_c, 2, 74, 117
1, 301394, Note_off_c, 2, 76, 64
1, 301440, Note_off_c, 4, 52, 64
1, 301441, Note_off_c, 4, 59, 64
1, 301441, Note_on_c, 2, 73, 117
1, 301442, Note_on_c, 4, 57, 127
1, 301448, Note_off_c, 2, 74, 64
1, 301492, Note_on_c, 2, 76, 117
1, 301497, Note_off_c, 2, 73, 64
1, 301545, Note_on_c, 2, 75, 117
1, 301552, Note_off_c, 2, 76, 64
1, 301600, Note_on_c, 2, 76, 117
1, 301606, Note_off_c, 2, 75, 64
1, 301651, Note_on_c, 1, 78, 114
1, 301657, Note_off_c, 2, 76, 64
1, 301701, Note_on_c, 1, 79, 110
1, 301709, Note_off_c, 1, 78, 64
1, 301751, Note_off_c, 4, 57, 64
1, 301752, Note_on_c, 4, 54, 127
1, 301752, Note_on_c, 4, 62, 127
1, 301752, Note_on_c, 1, 80, 106
1, 301759, Note_off_c, 1, 79, 64
1, 301803, Note_on_c, 1, 81, 106
1, 301809, Note_off_c, 1, 80, 64
1, 301857, Note_on_c, 1, 78, 114
1, 301862, Note_off_c, 1, 81, 64
1, 301908, Note_on_c, 1, 80, 106
1, 301915, Note_off_c, 1, 78, 64
1, 301959, Note_on_c, 1, 81, 106
1, 301968, Note_off_c, 1, 80, 64
1, 302015, Note_on_c, 1, 78, 114
1, 302021, Note_off_c, 1, 81, 64
1, 302054, Note_off_c, 4, 62, 64
1, 302068, Note_off_c, 4, 54, 64
1, 302068, Note_on_c, 1, 82, 106
1, 302069, Note_on_c, 4, 55, 127
1, 302069, Note_on_c, 4, 62, 127
1, 302074, Note_off_c, 1, 78, 64
1, 302120, Note_on_c, 1, 83, 110
1, 302126, Note_off_c, 1, 82, 64
1, 302176, Note_on_c, 1, 79, 114
1, 302182, Note_off_c, 1, 83, 64
1, 302228, Note_on_c, 1, 82, 110
1, 302233, Note_off_c, 1, 79, 64
1, 302280, Note_on_c, 1, 83, 110
1, 302287, Note_off_c, 1, 82, 64
1, 302337, Note_on_c, 1, 79, 114
1, 302345, Note_off_c, 1, 83, 64
1, 302379, Note_off_c, 4, 62, 64
1, 302393, Note_off_c, 4, 55, 64
1, 302393, Note_on_c, 4, 62, 127
1, 302393, Note_on_c, 1, 78, 114
1, 302394, Note_on_c, 4, 57, 127
1, 302399, Note_off_c, 1, 79, 64
1, 302556, Note_off_c, 4, 62, 64
1, 302562, Note_off_c, 1, 78, 64
1, 302562, Note_on_c, 2, 76, 117
1, 302563, Note_on_c, 4, 61, 127
1, 302726, Note_off_c, 2, 76, 64
1, 302732, Note_on_c, 2, 69, 118
1, 302791, Note_on_c, 2, 71, 116
1, 302799, Note_off_c, 2, 69, 64
1, 302845, Note_on_c, 2, 68, 120
1, 302853, Note_off_c, 2, 71, 64
1, 302901, Note_on_c, 2, 69, 118
1, 302908, Note_off_c, 2, 68, 64
1, 302956, Note_on_c, 2, 71, 116
1, 302964, Note_off_c, 2, 69, 64
1, 303012, Note_on_c, 2, 73, 117
1, 303018, Note_off_c, 2, 71, 64
1, 303066, Note_on_c, 2, 74, 117
1, 303072, Note_off_c, 2, 73, 64
1, 303118, Note_on_c, 2, 76, 117
1, 303123, Note_off_c, 2, 74, 64
1, 303173, Note_on_c, 2, 73, 117
1, 303179, Note_off_c, 2, 76, 64
1, 303227, Note_on_c, 2, 74, 117
1, 303228, Note_on_c, 4, 66, 127
1, 303228, Note_on_c, 2, 69, 118
1, 303234, Note_off_c, 2, 73, 64
1, 303253, Note_off_c, 4, 61, 64
1, 303280, Note_on_c, 1, 86, 114
1, 303286, Note_off_c, 2, 74, 64
1, 303336, Note_on_c, 1, 85, 114
1, 303343, Note_off_c, 1, 86, 64
1, 303390, Note_on_c, 1, 83, 110
1, 303396, Note_off_c, 1, 85, 64
1, 303431, Note_off_c, 4, 57, 64
1, 303442, Note_on_c, 1, 85, 114
1, 303450, Note_off_c, 1, 83, 64
1, 303498, Note_on_c, 1, 82, 110
1, 303504, Note_off_c, 1, 85, 64
1, 303536, Note_off_c, 4, 66, 64
1, 303550, Note_off_c, 2, 69, 64
1, 303551, Note_on_c, 4, 66, 127
1, 303551, Note_on_c, 1, 83, 110
1, 303552, Note_on_c, 4, 62, 127
1, 303555, Note_off_c, 1, 82, 64
1, 303601, Note_on_c, 1, 85, 114
1, 303607, Note_off_c, 1, 83, 64
1, 303656, Note_on_c, 1, 81, 110
1, 303663, Note_off_c, 1, 85, 64
1, 303711, Note_on_c, 1, 80, 110
1, 303717, Note_off_c, 1, 81, 64
1, 303763, Note_on_c, 1, 81, 110
1, 303770, Note_off_c, 1, 80, 64
1, 303818, Note_on_c, 1, 78, 110
1, 303824, Note_off_c, 1, 81, 64
1, 303853, Note_off_c, 4, 62, 64
1, 303874, Note_off_c, 4, 66, 64
1, 303875, Note_on_c, 4, 62, 127
1, 303875, Note_on_c, 1, 80, 110
1, 303876, Note_on_c, 4, 59, 127
1, 303880, Note_off_c, 1, 78, 64
1, 303926, Note_on_c, 1, 81, 110
1, 303932, Note_off_c, 1, 80, 64
1, 303980, Note_on_c, 1, 78, 110
1, 303987, Note_off_c, 1, 81, 64
1, 304032, Note_on_c, 2, 76, 113
1, 304037, Note_off_c, 1, 78, 64
1, 304083, Note_on_c, 1, 78, 110
1, 304089, Note_off_c, 2, 76, 64
1, 304137, Note_on_c, 2, 75, 113
1, 304143, Note_off_c, 1, 78, 64
1, 304176, Note_off_c, 4, 59, 64
1, 304187, Note_off_c, 4, 62, 64
1, 304188, Note_on_c, 4, 56, 127
1, 304188, Note_on_c, 4, 59, 127
1, 304188, Note_on_c, 2, 76, 113
1, 304193, Note_off_c, 2, 75, 64
1, 304239, Note_on_c, 1, 78, 110
1, 304247, Note_off_c, 2, 76, 64
1, 304293, Note_on_c, 2, 74, 117
1, 304298, Note_off_c, 1, 78, 64
1, 304343, Note_on_c, 2, 73, 117
1, 304343, Note_on_c, 4, 57, 127
1, 304346, Note_off_c, 4, 59, 64
1, 304346, Note_off_c, 4, 56, 64
1, 304350, Note_off_c, 2, 74, 64
1, 304397, Note_on_c, 2, 76, 113
1, 304404, Note_off_c, 2, 73, 64
1, 304451, Note_on_c, 1, 81, 114
1, 304456, Note_off_c, 2, 76, 64
1, 304504, Note_on_c, 2, 77, 113
1, 304505, Note_on_c, 4, 50, 127
1, 304505, Note_on_c, 4, 59, 127
1, 304507, Note_off_c, 4, 57, 64
1, 304511, Note_off_c, 1, 81, 64
1, 304555, Note_on_c, 1, 78, 110
1, 304561, Note_off_c, 2, 77, 64
1, 304607, Note_on_c, 2, 74, 117
1, 304615, Note_off_c, 1, 78, 64
1, 304661, Note_on_c, 4, 61, 127
1, 304661, Note_on_c, 2, 75, 113
1, 304662, Note_on_c, 4, 52, 127
1, 304664, Note_off_c, 4, 59, 64
1, 304664, Note_off_c, 4, 50, 64
1, 304667, Note_off_c, 2, 74, 64
1, 304713, Note_on_c, 2, 76, 113
1, 304720, Note_off_c, 2, 75, 64
1, 304770, Note_on_c, 2, 73, 117
1, 304776, Note_off_c, 2, 76, 64
1, 304818, Note_off_c, 2, 73, 64
1, 304819, Note_off_c, 4, 52, 64
1, 304827, Note_on_c, 2, 73, 117
1, 304827, Note_on_c, 4, 62, 127
1, 304828, Note_on_c, 4, 56, 127
1, 304828, Note_on_c, 4, 52, 127
1, 304829, Note_off_c, 4, 61, 64
1, 304883, Note_on_c, 2, 74, 117
1, 304890, Note_off_c, 2, 73, 64
1, 304938, Note_on_c, 2, 71, 116
1, 304946, Note_off_c, 2, 74, 64
1, 304979, Note_off_c, 2, 71, 64
1, 304990, Note_off_c, 4, 62, 64
1, 304998, Note_on_c, 4, 62, 127
1, 304998, Note_on_c, 2, 71, 116
1, 304999, Note_on_c, 4, 57, 127
1, 305001, Note_off_c, 4, 52, 64
1, 305001, Note_off_c, 4, 56, 64
1, 305163, Note_on_c, 4, 61, 127
1, 305163, Note_on_c, 2, 69, 118
1, 305170, Note_off_c, 2, 71, 64
1, 305170, Note_off_c, 4, 62, 64
1, 305330, Note_on_c, 1, 81, 110
1, 305388, Note_on_c, 1, 83, 110
1, 305393, Note_off_c, 1, 81, 64
1, 305441, Note_on_c, 1, 80, 110
1, 305449, Note_off_c, 1, 83, 64
1, 305497, Note_on_c, 1, 81, 110
1, 305503, Note_off_c, 1, 80, 64
1, 305549, Note_on_c, 1, 83, 110
1, 305556, Note_off_c, 1, 81, 64
1, 305604, Note_on_c, 1, 80, 110
1, 305612, Note_off_c, 1, 83, 64
1, 305645, Note_off_c, 2, 69, 64
1, 305660, Note_off_c, 4, 61, 64
1, 305661, Note_on_c, 1, 81, 110
1, 305663, Note_on_c, 2, 71, 116
1, 305664, Note_on_c, 4, 63, 127
1, 305666, Note_off_c, 1, 80, 64
1, 305716, Note_on_c, 1, 78, 106
1, 305724, Note_off_c, 1, 81, 64
1, 305772, Note_on_c, 1, 83, 106
1, 305777, Note_off_c, 1, 78, 64
1, 305827, Note_on_c, 1, 80, 106
1, 305829, Note_on_c, 4, 64, 126
1, 305833, Note_off_c, 1, 83, 64
1, 305833, Note_off_c, 4, 63, 64
1, 305878, Note_on_c, 2, 75, 117
1, 305886, Note_off_c, 1, 80, 64
1, 305934, Note_on_c, 2, 76, 117
1, 305940, Note_off_c, 2, 75, 64
1, 305961, Note_off_c, 4, 57, 64
1, 305988, Note_on_c, 1, 79, 110
1, 305990, Note_off_c, 2, 71, 64
1, 305990, Note_on_c, 4, 61, 127
1, 305990, Note_on_c, 2, 69, 118
1, 305992, Note_off_c, 4, 64, 64
1, 305993, Note_off_c, 2, 76, 64
1, 306042, Note_on_c, 2, 76, 117
1, 306048, Note_off_c, 1, 79, 64
1, 306094, Note_on_c, 1, 81, 110
1, 306102, Note_off_c, 2, 76, 64
1, 306151, Note_on_c, 1, 78, 110
1, 306155, Note_on_c, 4, 62, 127
1, 306158, Note_off_c, 4, 61, 64
1, 306159, Note_off_c, 1, 81, 64
1, 306209, Note_on_c, 2, 73, 117
1, 306214, Note_off_c, 2, 69, 64
1, 306216, Note_off_c, 1, 78, 64
1, 306266, Note_on_c, 2, 74, 117
1, 306272, Note_off_c, 2, 73, 64
1, 306316, Note_off_c, 2, 74, 64
1, 306324, Note_on_c, 2, 74, 117
1, 306324, Note_on_c, 2, 71, 116
1, 306380, Note_on_c, 1, 86, 110
1, 306407, Note_off_c, 2, 71, 64
1, 306408, Note_on_c, 2, 69, 118
1, 306437, Note_on_c, 1, 85, 110
1, 306443, Note_off_c, 1, 86, 64
1, 306483, Note_off_c, 2, 74, 64
1, 306491, Note_off_c, 2, 69, 64
1, 306491, Note_on_c, 2, 71, 116
1, 306492, Note_on_c, 2, 67, 127
1, 306549, Note_off_c, 1, 85, 64
1, 306550, Note_on_c, 1, 83, 106
1, 306577, Note_off_c, 2, 67, 64
1, 306577, Note_on_c, 4, 66, 127
1, 306603, Note_on_c, 1, 82, 106
1, 306611, Note_off_c, 1, 83, 64
1, 306655, Note_off_c, 2, 71, 64
1, 306662, Note_off_c, 4, 66, 64
1, 306663, Note_on_c, 2, 67, 127
1, 306663, Note_on_c, 2, 71, 116
1, 306717, Note_off_c, 1, 82, 64
1, 306718, Note_on_c, 1, 83, 106
1, 306747, Note_off_c, 2, 67, 64
1, 306748, Note_on_c, 4, 66, 127
1, 306775, Note_on_c, 1, 81, 106
1, 306782, Note_off_c, 1, 83, 64
1, 306792, Note_off_c, 4, 62, 64
1, 306825, Note_off_c, 2, 71, 64
1, 306833, Note_off_c, 4, 66, 64
1, 306833, Note_on_c, 2, 67, 127
1, 306833, Note_on_c, 4, 64, 126
1, 306889, Note_off_c, 1, 81, 64
1, 306889, Note_on_c, 1, 79, 106
1, 306917, Note_off_c, 4, 64, 64
1, 306918, Note_on_c, 4, 62, 127
1, 306945, Note_on_c, 1, 78, 106
1, 306953, Note_off_c, 1, 79, 64
1, 306995, Note_off_c, 2, 67, 64
1, 307001, Note_off_c, 4, 62, 64
1, 307001, Note_on_c, 1, 79, 106
1, 307002, Note_on_c, 2, 69, 118
1, 307002, Note_on_c, 4, 61, 127
1, 307008, Note_off_c, 1, 78, 64
1, 307055, Note_on_c, 1, 81, 106
1, 307060, Note_off_c, 1, 79, 64
1, 307106, Note_on_c, 1, 79, 106
1, 307112, Note_off_c, 1, 81, 64
1, 307158, Note_on_c, 1, 78, 106
1, 307159, Note_on_c, 4, 62, 127
1, 307161, Note_off_c, 4, 61, 64
1, 307165, Note_off_c, 1, 79, 64
1, 307215, Note_on_c, 1, 79, 106
1, 307221, Note_off_c, 1, 78, 64
1, 307267, Note_on_c, 1, 78, 106
1, 307272, Note_off_c, 1, 79, 64
1, 307319, Note_on_c, 2, 76, 113
1, 307322, Note_off_c, 4, 62, 64
1, 307323, Note_on_c, 4, 61, 127
1, 307325, Note_off_c, 1, 78, 64
1, 307371, Note_on_c, 1, 78, 106
1, 307377, Note_off_c, 2, 76, 64
1, 307423, Note_on_c, 2, 76, 113
1, 307429, Note_off_c, 1, 78, 64
1, 307475, Note_off_c, 2, 69, 64
1, 307476, Note_on_c, 2, 74, 113
1, 307478, Note_on_c, 2, 68, 120
1, 307478, Note_on_c, 4, 59, 127
1, 307481, Note_off_c, 2, 76, 64
1, 307481, Note_off_c, 4, 61, 64
1, 307527, Note_on_c, 2, 76, 113
1, 307533, Note_off_c, 2, 74, 64
1, 307579, Note_on_c, 2, 74, 113
1, 307586, Note_off_c, 2, 76, 64
1, 307634, Note_off_c, 2, 68, 64
1, 307638, Note_on_c, 1, 78, 110
1, 307642, Note_on_c, 2, 69, 118
1, 307643, Note_on_c, 4, 57, 127
1, 307643, Note_on_c, 4, 62, 127
1, 307644, Note_off_c, 4, 59, 64
1, 307646, Note_off_c, 2, 74, 64
1, 307815, Note_on_c, 2, 76, 113
1, 307819, Note_off_c, 1, 78, 64
1, 307819, Note_on_c, 4, 61, 127
1, 307820, Note_off_c, 4, 62, 64
1, 307973, Note_off_c, 2, 76, 64
1, 307981, Note_on_c, 1, 81, 114
1, 308039, Note_on_c, 1, 83, 110
1, 308046, Note_off_c, 1, 81, 64
1, 308095, Note_on_c, 1, 80, 110
1, 308103, Note_off_c, 1, 83, 64
1, 308153, Note_on_c, 1, 81, 110
1, 308160, Note_off_c, 1, 80, 64
1, 308210, Note_on_c, 1, 83, 110
1, 308216, Note_off_c, 1, 81, 64
1, 308266, Note_on_c, 1, 80, 110
1, 308274, Note_off_c, 1, 83, 64
1, 308324, Note_on_c, 1, 81, 110
1, 308331, Note_off_c, 1, 80, 64
1, 308546, Note_off_c, 1, 81, 64
1, 308556, Note_off_c, 2, 69, 64
1, 308583, Note_on_c, 2, 69, 118
1, 308646, Note_on_c, 2, 71, 116
1, 308654, Note_off_c, 2, 69, 64
1, 308702, Note_on_c, 2, 68, 120
1, 308710, Note_off_c, 2, 71, 64
1, 308760, Note_on_c, 2, 69, 118
1, 308767, Note_off_c, 2, 68, 64
1, 308815, Note_on_c, 2, 71, 116
1, 308821, Note_off_c, 2, 69, 64
1, 308871, Note_on_c, 2, 73, 117
1, 308877, Note_off_c, 2, 71, 64
1, 308927, Note_on_c, 4, 62, 127
1, 308927, Note_on_c, 2, 74, 113
1, 308933, Note_off_c, 2, 73, 64
1, 308943, Note_off_c, 4, 61, 64
1, 308982, Note_on_c, 2, 76, 113
1, 308986, Note_off_c, 4, 57, 64
1, 308989, Note_off_c, 2, 74, 64
1, 309037, Note_on_c, 2, 73, 117
1, 309045, Note_off_c, 2, 76, 64
1, 309091, Note_on_c, 2, 69, 118
1, 309091, Note_on_c, 2, 74, 113
1, 309092, Note_on_c, 4, 66, 127
1, 309098, Note_off_c, 2, 73, 64
1, 309148, Note_on_c, 2, 77, 113
1, 309156, Note_off_c, 2, 74, 64
1, 309204, Note_on_c, 1, 78, 110
1, 309211, Note_off_c, 2, 77, 64
1, 309252, Note_off_c, 4, 62, 64
1, 309257, Note_on_c, 2, 74, 113
1, 309258, Note_on_c, 4, 59, 127
1, 309295, Note_off_c, 1, 78, 64
1, 309314, Note_on_c, 1, 82, 110
1, 309366, Note_on_c, 1, 83, 110
1, 309373, Note_off_c, 1, 82, 64
1, 309414, Note_off_c, 2, 69, 64
1, 309414, Note_off_c, 4, 66, 64
1, 309417, Note_off_c, 2, 74, 64
1, 309420, Note_on_c, 2, 74, 113
1, 309421, Note_on_c, 4, 62, 127
1, 309421, Note_on_c, 4, 66, 127
1, 309458, Note_off_c, 1, 83, 64
1, 309476, Note_on_c, 1, 85, 114
1, 309532, Note_on_c, 1, 86, 114
1, 309540, Note_off_c, 1, 85, 64
1, 309582, Note_off_c, 4, 59, 64
1, 309586, Note_off_c, 2, 74, 64
1, 309589, Note_on_c, 4, 55, 127
1, 309593, Note_on_c, 1, 79, 110
1, 309626, Note_off_c, 1, 86, 64
1, 309645, Note_on_c, 1, 81, 110
1, 309655, Note_off_c, 1, 79, 64
1, 309701, Note_on_c, 1, 78, 110
1, 309707, Note_off_c, 1, 81, 64
1, 309747, Note_off_c, 4, 66, 64
1, 309747, Note_off_c, 4, 62, 64
1, 309754, Note_on_c, 4, 64, 126
1, 309754, Note_on_c, 1, 79, 110
1, 309755, Note_on_c, 4, 59, 127
1, 309762, Note_off_c, 1, 78, 64
1, 309810, Note_on_c, 2, 75, 113
1, 309845, Note_off_c, 1, 79, 64
1, 309864, Note_on_c, 2, 76, 113
1, 309870, Note_off_c, 2, 75, 64
1, 309910, Note_off_c, 4, 55, 64
1, 309918, Note_on_c, 4, 57, 127
1, 309918, Note_on_c, 1, 79, 110
1, 309955, Note_off_c, 2, 76, 64
1, 309972, Note_on_c, 2, 72, 113
1, 310030, Note_on_c, 2, 73, 113
1, 310036, Note_off_c, 2, 72, 64
1, 310078, Note_off_c, 4, 59, 64
1, 310079, Note_off_c, 4, 64, 64
1, 310081, Note_off_c, 1, 79, 64
1, 310085, Note_on_c, 1, 79, 110
1, 310085, Note_on_c, 4, 64, 126
1, 310086, Note_on_c, 4, 61, 127
1, 310120, Note_off_c, 2, 73, 64
1, 310140, Note_on_c, 2, 68, 116
1, 310195, Note_on_c, 2, 69, 114
1, 310201, Note_off_c, 2, 68, 64
1, 310241, Note_off_c, 4, 61, 64
1, 310242, Note_off_c, 4, 64, 64
1, 310244, Note_off_c, 1, 79, 64
1, 310248, Note_on_c, 4, 62, 127
1, 310248, Note_on_c, 1, 78, 110
1, 310255, Note_off_c, 2, 69, 64
1, 310303, Note_on_c, 1, 81, 110
1, 310310, Note_off_c, 1, 78, 64
1, 310358, Note_on_c, 1, 86, 114
1, 310364, Note_off_c, 1, 81, 64
1, 310414, Note_off_c, 4, 57, 64
1, 310415, Note_on_c, 4, 64, 126
1, 310415, Note_on_c, 1, 82, 110
1, 310416, Note_off_c, 4, 62, 64
1, 310416, Note_on_c, 4, 55, 127
1, 310420, Note_off_c, 1, 86, 64
1, 310468, Note_on_c, 1, 83, 110
1, 310474, Note_off_c, 1, 82, 64
1, 310522, Note_on_c, 1, 79, 106
1, 310527, Note_off_c, 1, 83, 64
1, 310577, Note_on_c, 1, 80, 106
1, 310578, Note_on_c, 4, 66, 127
1, 310578, Note_on_c, 4, 57, 127
1, 310580, Note_off_c, 4, 55, 64
1, 310581, Note_off_c, 4, 64, 64
1, 310585, Note_off_c, 1, 79, 64
1, 310635, Note_on_c, 1, 81, 106
1, 310641, Note_off_c, 1, 80, 64
1, 310692, Note_on_c, 1, 78, 106
1, 310698, Note_off_c, 1, 81, 64
1, 310740, Note_off_c, 1, 78, 64
1, 310741, Note_off_c, 4, 57, 64
1, 310745, Note_on_c, 1, 78, 106
1, 310750, Note_off_c, 4, 66, 64
1, 310750, Note_on_c, 4, 61, 127
1, 310751, Note_on_c, 4, 57, 127
1, 310803, Note_on_c, 1, 79, 110
1, 310811, Note_off_c, 1, 78, 64
1, 310862, Note_on_c, 2, 76, 113
1, 310870, Note_off_c, 1, 79, 64
1, 310912, Note_off_c, 2, 76, 64
1, 310920, Note_off_c, 4, 61, 64
1, 310920, Note_off_c, 4, 57, 64
1, 310925, Note_on_c, 2, 76, 113
1, 310929, Note_on_c, 4, 61, 127
1, 310929, Note_on_c, 2, 67, 127
1, 310930, Note_on_c, 4, 50, 127
1, 311101, Note_off_c, 2, 76, 64
1, 311101, Note_off_c, 4, 61, 64
1, 311102, Note_off_c, 2, 67, 64
1, 311105, Note_on_c, 2, 74, 117
1, 311108, Note_on_c, 4, 62, 127
1, 311108, Note_on_c, 4, 66, 127
1, 311273, Note_on_c, 1, 81, 110
1, 311335, Note_on_c, 1, 83, 110
1, 311340, Note_off_c, 1, 81, 64
1, 311393, Note_on_c, 1, 80, 110
1, 311400, Note_off_c, 1, 83, 64
1, 311448, Note_on_c, 1, 81, 110
1, 311456, Note_off_c, 1, 80, 64
1, 311504, Note_on_c, 1, 83, 110
1, 311511, Note_off_c, 1, 81, 64
1, 311564, Note_on_c, 1, 80, 110
1, 311571, Note_off_c, 1, 83, 64
1, 311619, Note_off_c, 2, 74, 64
1, 311620, Note_on_c, 1, 81, 110
1, 311624, Note_off_c, 4, 66, 64
1, 311624, Note_off_c, 4, 62, 64
1, 311625, Note_on_c, 4, 63, 127
1, 311625, Note_on_c, 2, 71, 116
1, 311628, Note_off_c, 1, 80, 64
1, 311678, Note_on_c, 1, 78, 110
1, 311684, Note_off_c, 1, 81, 64
1, 311734, Note_on_c, 1, 83, 110
1, 311741, Note_off_c, 1, 78, 64
1, 311787, Note_off_c, 4, 63, 64
1, 311789, Note_on_c, 1, 80, 110
1, 311793, Note_on_c, 4, 64, 126
1, 311797, Note_off_c, 1, 83, 64
1, 311845, Note_on_c, 2, 75, 117
1, 311853, Note_off_c, 1, 80, 64
1, 311899, Note_on_c, 2, 76, 113
1, 311904, Note_off_c, 2, 75, 64
1, 311922, Note_off_c, 2, 71, 64
1, 311945, Note_off_c, 2, 76, 64
1, 311949, Note_off_c, 4, 64, 64
1, 311952, Note_on_c, 1, 79, 110
1, 311954, Note_on_c, 2, 69, 118
1, 311955, Note_on_c, 4, 61, 127
1, 312007, Note_on_c, 2, 76, 113
1, 312013, Note_off_c, 1, 79, 64
1, 312055, Note_off_c, 2, 76, 64
1, 312061, Note_on_c, 1, 81, 110
1, 312117, Note_off_c, 4, 61, 64
1, 312120, Note_on_c, 1, 78, 110
1, 312124, Note_on_c, 4, 62, 127
1, 312126, Note_off_c, 1, 81, 64
1, 312174, Note_on_c, 2, 73, 117
1, 312182, Note_off_c, 1, 78, 64
1, 312199, Note_off_c, 2, 69, 64
1, 312230, Note_on_c, 2, 74, 117
1, 312236, Note_off_c, 2, 73, 64
1, 312280, Note_off_c, 2, 74, 64
1, 312286, Note_on_c, 2, 74, 117
1, 312286, Note_on_c, 2, 71, 116
1, 312342, Note_on_c, 1, 86, 114
1, 312373, Note_on_c, 2, 69, 118
1, 312384, Note_off_c, 2, 71, 64
1, 312403, Note_on_c, 1, 85, 110
1, 312408, Note_off_c, 1, 86, 64
1, 312460, Note_on_c, 2, 71, 116
1, 312461, Note_on_c, 2, 67, 127
1, 312469, Note_off_c, 2, 69, 64
1, 312515, Note_off_c, 1, 85, 64
1, 312516, Note_on_c, 1, 83, 106
1, 312543, Note_on_c, 4, 66, 127
1, 312552, Note_off_c, 2, 67, 64
1, 312572, Note_on_c, 1, 82, 106
1, 312579, Note_off_c, 1, 83, 64
1, 312624, Note_off_c, 2, 71, 64
1, 312627, Note_on_c, 2, 71, 116
1, 312628, Note_on_c, 2, 67, 127
1, 312636, Note_off_c, 4, 66, 64
1, 312684, Note_off_c, 1, 82, 64
1, 312684, Note_on_c, 1, 83, 106
1, 312689, Note_off_c, 4, 62, 64
1, 312714, Note_on_c, 4, 66, 127
1, 312721, Note_off_c, 2, 67, 64
1, 312739, Note_on_c, 1, 81, 106
1, 312746, Note_off_c, 1, 83, 64
1, 312792, Note_off_c, 2, 71, 64
1, 312796, Note_on_c, 2, 67, 127
1, 312797, Note_on_c, 4, 64, 126
1, 312805, Note_off_c, 4, 66, 64
1, 312851, Note_off_c, 1, 81, 64
1, 312852, Note_on_c, 1, 79, 102
1, 312879, Note_on_c, 4, 62, 127
1, 312888, Note_off_c, 4, 64, 64
1, 312906, Note_on_c, 1, 78, 102
1, 312913, Note_off_c, 1, 79, 64
1, 312961, Note_on_c, 1, 79, 102
1, 312962, Note_on_c, 2, 69, 118
1, 312962, Note_on_c, 4, 61, 127
1, 312964, Note_off_c, 2, 67, 64
1, 312968, Note_off_c, 1, 78, 64
1, 312970, Note_off_c, 4, 62, 64
1, 312976, Note_off_c, 2, 74, 64
1, 313014, Note_on_c, 1, 81, 102
1, 313022, Note_off_c, 1, 79, 64
1, 313070, Note_on_c, 1, 79, 102
1, 313078, Note_off_c, 1, 81, 64
1, 313124, Note_on_c, 4, 62, 127
1, 313124, Note_on_c, 1, 78, 102
1, 313127, Note_off_c, 4, 61, 64
1, 313130, Note_off_c, 1, 79, 64
1, 313175, Note_on_c, 1, 79, 102
1, 313178, Note_off_c, 4, 50, 64
1, 313180, Note_off_c, 1, 78, 64
1, 313229, Note_on_c, 1, 78, 102
1, 313236, Note_off_c, 1, 79, 64
1, 313280, Note_on_c, 2, 76, 109
1, 313281, Note_on_c, 4, 61, 127
1, 313284, Note_off_c, 4, 62, 64
1, 313287, Note_off_c, 1, 78, 64
1, 313335, Note_on_c, 1, 78, 102
1, 313343, Note_off_c, 2, 76, 64
1, 313391, Note_on_c, 2, 76, 109
1, 313398, Note_off_c, 1, 78, 64
1, 313442, Note_off_c, 2, 69, 64
1, 313443, Note_on_c, 2, 74, 113
1, 313443, Note_on_c, 2, 68, 120
1, 313444, Note_on_c, 4, 59, 127
1, 313447, Note_off_c, 4, 61, 64
1, 313450, Note_off_c, 2, 76, 64
1, 313496, Note_on_c, 2, 76, 109
1, 313504, Note_off_c, 2, 74, 64
1, 313554, Note_on_c, 2, 74, 113
1, 313560, Note_off_c, 2, 76, 64
1, 313604, Note_off_c, 2, 68, 64
1, 313611, Note_on_c, 1, 78, 110
1, 313612, Note_on_c, 2, 69, 118
1, 313612, Note_on_c, 4, 62, 127
1, 313613, Note_on_c, 4, 57, 127
1, 313616, Note_off_c, 4, 59, 64
1, 313619, Note_off_c, 2, 74, 64
1, 313784, Note_on_c, 2, 76, 113
1, 313785, Note_on_c, 4, 61, 127
1, 313788, Note_off_c, 1, 78, 64
1, 313789, Note_off_c, 4, 62, 64
1, 313955, Note_on_c, 1, 81, 114
1, 313956, Note_off_c, 2, 76, 64
1, 314014, Note_on_c, 1, 83, 114
1, 314022, Note_off_c, 1, 81, 64
1, 314070, Note_on_c, 1, 80, 114
1, 314076, Note_off_c, 1, 83, 64
1, 314125, Note_on_c, 1, 81, 114
1, 314133, Note_off_c, 1, 80, 64
1, 314183, Note_on_c, 1, 83, 114
1, 314189, Note_off_c, 1, 81, 64
1, 314241, Note_on_c, 1, 80, 114
1, 314248, Note_off_c, 1, 83, 64
1, 314298, Note_on_c, 1, 81, 114
1, 314304, Note_off_c, 1, 80, 64
1, 314573, Note_off_c, 2, 69, 64
1, 314602, Note_on_c, 2, 69, 118
1, 314665, Note_on_c, 2, 71, 116
1, 314673, Note_off_c, 2, 69, 64
1, 314721, Note_on_c, 2, 68, 120
1, 314728, Note_off_c, 2, 71, 64
1, 314780, Note_on_c, 2, 69, 118
1, 314786, Note_off_c, 2, 68, 64
1, 314836, Note_on_c, 2, 71, 116
1, 314844, Note_off_c, 2, 69, 64
1, 314892, Note_on_c, 2, 73, 117
1, 314899, Note_off_c, 2, 71, 64
1, 314934, Note_off_c, 4, 61, 64
1, 314947, Note_on_c, 2, 74, 117
1, 314948, Note_on_c, 4, 62, 127
1, 314954, Note_off_c, 2, 73, 64
1, 315002, Note_on_c, 2, 76, 117
1, 315010, Note_off_c, 2, 74, 64
1, 315060, Note_on_c, 2, 73, 117
1, 315070, Note_off_c, 2, 76, 64
1, 315114, Note_off_c, 1, 81, 64
1, 315115, Note_on_c, 2, 69, 118
1, 315115, Note_on_c, 2, 74, 117
1, 315116, Note_on_c, 4, 66, 127
1, 315120, Note_off_c, 2, 73, 64
1, 315168, Note_on_c, 2, 77, 117
1, 315174, Note_off_c, 2, 74, 64
1, 315207, Note_off_c, 4, 57, 64
1, 315222, Note_on_c, 1, 78, 114
1, 315229, Note_off_c, 2, 77, 64
1, 315272, Note_off_c, 4, 62, 64
1, 315277, Note_on_c, 2, 74, 117
1, 315278, Note_on_c, 4, 59, 127
1, 315332, Note_on_c, 1, 82, 114
1, 315338, Note_off_c, 1, 78, 64
1, 315390, Note_on_c, 1, 83, 114
1, 315396, Note_off_c, 1, 82, 64
1, 315438, Note_off_c, 2, 69, 64
1, 315438, Note_off_c, 4, 66, 64
1, 315439, Note_off_c, 2, 74, 64
1, 315444, Note_on_c, 2, 74, 117
1, 315445, Note_on_c, 4, 62, 127
1, 315445, Note_on_c, 4, 66, 127
1, 315499, Note_off_c, 1, 83, 64
1, 315500, Note_on_c, 1, 85, 114
1, 315558, Note_on_c, 1, 86, 114
1, 315565, Note_off_c, 1, 85, 64
1, 315608, Note_off_c, 4, 59, 64
1, 315610, Note_off_c, 2, 74, 64
1, 315613, Note_on_c, 1, 79, 114
1, 315614, Note_on_c, 4, 55, 127
1, 315653, Note_off_c, 1, 86, 64
1, 315670, Note_on_c, 1, 81, 114
1, 315678, Note_off_c, 1, 79, 64
1, 315728, Note_on_c, 1, 78, 114
1, 315735, Note_off_c, 1, 81, 64
1, 315777, Note_off_c, 4, 66, 64
1, 315777, Note_off_c, 4, 62, 64
1, 315783, Note_on_c, 1, 79, 114
1, 315784, Note_on_c, 4, 59, 127
1, 315784, Note_on_c, 4, 64, 126
1, 315792, Note_off_c, 1, 78, 64
1, 315838, Note_on_c, 2, 75, 117
1, 315890, Note_off_c, 1, 79, 64
1, 315890, Note_on_c, 2, 76, 117
1, 315899, Note_off_c, 2, 75, 64
1, 315937, Note_off_c, 4, 55, 64
1, 315943, Note_on_c, 4, 57, 127
1, 315943, Note_on_c, 1, 79, 114
1, 315998, Note_off_c, 2, 76, 64
1, 315998, Note_on_c, 2, 72, 113
1, 316051, Note_on_c, 2, 73, 113
1, 316059, Note_off_c, 2, 72, 64
1, 316101, Note_off_c, 4, 59, 64
1, 316102, Note_off_c, 1, 79, 64
1, 316102, Note_off_c, 4, 64, 64
1, 316108, Note_on_c, 1, 79, 114
1, 316108, Note_on_c, 4, 64, 126
1, 316109, Note_on_c, 4, 61, 127
1, 316163, Note_off_c, 2, 73, 64
1, 316163, Note_on_c, 2, 68, 116
1, 316221, Note_on_c, 2, 69, 114
1, 316229, Note_off_c, 2, 68, 64
1, 316270, Note_off_c, 4, 61, 64
1, 316270, Note_off_c, 4, 64, 64
1, 316271, Note_off_c, 4, 57, 64
1, 316272, Note_off_c, 1, 79, 64
1, 316278, Note_on_c, 1, 78, 114
1, 316279, Note_on_c, 4, 62, 127
1, 316313, Note_off_c, 2, 69, 64
1, 316335, Note_on_c, 1, 81, 114
1, 316341, Note_off_c, 1, 78, 64
1, 316387, Note_on_c, 1, 86, 114
1, 316394, Note_off_c, 1, 81, 64
1, 316437, Note_off_c, 4, 62, 64
1, 316444, Note_on_c, 1, 82, 114
1, 316445, Note_on_c, 4, 55, 127
1, 316445, Note_on_c, 4, 64, 126
1, 316451, Note_off_c, 1, 86, 64
1, 316497, Note_on_c, 1, 83, 114
1, 316505, Note_off_c, 1, 82, 64
1, 316555, Note_on_c, 1, 79, 114
1, 316560, Note_off_c, 1, 83, 64
1, 316603, Note_off_c, 4, 64, 64
1, 316603, Note_off_c, 4, 55, 64
1, 316609, Note_on_c, 1, 80, 114
1, 316610, Note_on_c, 4, 66, 127
1, 316610, Note_on_c, 4, 57, 127
1, 316616, Note_off_c, 1, 79, 64
1, 316666, Note_on_c, 1, 81, 114
1, 316674, Note_off_c, 1, 80, 64
1, 316724, Note_on_c, 1, 78, 114
1, 316731, Note_off_c, 1, 81, 64
1, 316776, Note_off_c, 1, 78, 64
1, 316776, Note_off_c, 4, 57, 64
1, 316776, Note_off_c, 4, 66, 64
1, 316782, Note_on_c, 1, 78, 114
1, 316783, Note_on_c, 4, 57, 127
1, 316783, Note_on_c, 4, 61, 127
1, 316838, Note_on_c, 1, 79, 114
1, 316846, Note_off_c, 1, 78, 64
1, 316899, Note_on_c, 2, 76, 117
1, 316907, Note_off_c, 1, 79, 64
1, 316951, Note_off_c, 2, 76, 64
1, 316952, Note_off_c, 4, 61, 64
1, 316952, Note_off_c, 4, 57, 64
1, 316960, Note_on_c, 2, 76, 117
1, 316964, Note_on_c, 4, 61, 127
1, 316964, Note_on_c, 2, 67, 127
1, 316965, Note_on_c, 4, 50, 127
1, 317216, Note_off_c, 2, 67, 64
1, 317220, Note_on_c, 2, 74, 117
1, 317224, Note_off_c, 2, 76, 64
1, 317224, Note_on_c, 4, 66, 127
1, 317225, Note_on_c, 4, 62, 127
1, 317240, Note_off_c, 4, 61, 64
1, 317841, Note_off_c, 2, 74, 64
1, 317845, Note_off_c, 4, 66, 64
1, 317845, Note_off_c, 4, 62, 64
1, 317911, Note_off_c, 4, 50, 64
1, 318026, Note_on_c, 4, 57, 127
1, 318094, Note_on_c, 4, 59, 127
1, 318106, Note_off_c, 4, 57, 64
1, 318161, Note_on_c, 4, 57, 127
1, 318170, Note_off_c, 4, 59, 64
1, 318229, Note_on_c, 4, 55, 127
1, 318237, Note_off_c, 4, 57, 64
1, 318297, Note_on_c, 4, 54, 127
1, 318304, Note_off_c, 4, 55, 64
1, 318366, Note_on_c, 4, 52, 127
1, 318375, Note_off_c, 4, 54, 64
1, 318439, Note_on_c, 4, 50, 127
1, 318439, Note_on_c, 1, 78, 114
1, 318451, Note_off_c, 4, 52, 64
1, 318482, Note_on_c, 1, 79, 114
1, 318495, Note_off_c, 1, 78, 64
1, 318524, Note_on_c, 1, 81, 114
1, 318538, Note_off_c, 1, 79, 64
1, 318674, Note_on_c, 1, 79, 110
1, 318676, Note_off_c, 1, 81, 64
1, 318722, Note_on_c, 1, 78, 110
1, 318730, Note_off_c, 1, 79, 64
1, 318770, Note_on_c, 2, 76, 113
1, 318778, Note_off_c, 1, 78, 64
1, 318818, Note_on_c, 2, 74, 117
1, 318826, Note_off_c, 2, 76, 64
1, 318866, Note_on_c, 4, 62, 127
1, 318937, Note_on_c, 4, 64, 126
1, 318945, Note_off_c, 4, 62, 64
1, 319004, Note_on_c, 4, 62, 127
1, 319012, Note_off_c, 4, 64, 64
1, 319069, Note_on_c, 4, 60, 127
1, 319077, Note_off_c, 4, 62, 64
1, 319135, Note_on_c, 4, 59, 127
1, 319142, Note_off_c, 4, 60, 64
1, 319200, Note_on_c, 4, 57, 127
1, 319208, Note_off_c, 4, 59, 64
1, 319263, Note_off_c, 4, 50, 64
1, 319264, Note_on_c, 4, 55, 127
1, 319264, Note_on_c, 1, 79, 114
1, 319276, Note_off_c, 4, 57, 64
1, 319276, Note_off_c, 2, 74, 64
1, 319298, Note_off_c, 1, 79, 64
1, 319298, Note_on_c, 1, 81, 114
1, 319330, Note_off_c, 1, 81, 64
1, 319330, Note_on_c, 1, 83, 114
1, 319461, Note_off_c, 1, 83, 64
1, 319473, Note_on_c, 1, 81, 114
1, 319519, Note_on_c, 1, 79, 114
1, 319526, Note_off_c, 1, 81, 64
1, 319565, Note_on_c, 1, 78, 114
1, 319572, Note_off_c, 1, 79, 64
1, 319613, Note_on_c, 2, 76, 117
1, 319622, Note_off_c, 1, 78, 64
1, 319662, Note_on_c, 2, 69, 118
1, 319671, Note_off_c, 2, 76, 64
1, 319735, Note_on_c, 2, 71, 116
1, 319742, Note_off_c, 2, 69, 64
1, 319800, Note_on_c, 2, 69, 118
1, 319808, Note_off_c, 2, 71, 64
1, 319863, Note_on_c, 2, 76, 112
1, 319864, Note_on_c, 2, 67, 127
1, 319864, Note_on_c, 2, 73, 112
1, 319872, Note_off_c, 2, 69, 64
1, 319920, Note_off_c, 2, 76, 64
1, 319928, Note_on_c, 1, 78, 109
1, 319929, Note_on_c, 2, 74, 112
1, 319929, Note_on_c, 4, 66, 127
1, 319935, Note_off_c, 2, 67, 64
1, 319936, Note_off_c, 2, 73, 64
1, 319992, Note_on_c, 1, 79, 109
1, 319992, Note_on_c, 2, 76, 112
1, 319993, Note_on_c, 4, 64, 126
1, 319999, Note_off_c, 4, 66, 64
1, 319999, Note_off_c, 2, 74, 64
1, 320000, Note_off_c, 1, 78, 64
1, 320048, Note_off_c, 4, 55, 64
1, 320058, Note_on_c, 4, 62, 127
1, 320058, Note_on_c, 1, 78, 109
1, 320070, Note_off_c, 4, 64, 64
1, 320070, Note_off_c, 2, 76, 64
1, 320071, Note_off_c, 1, 79, 64
1, 320096, Note_on_c, 1, 79, 109
1, 320109, Note_off_c, 1, 78, 64
1, 320128, Note_on_c, 1, 81, 109
1, 320136, Note_off_c, 1, 79, 64
1, 320265, Note_off_c, 1, 81, 64
1, 320272, Note_on_c, 1, 79, 109
1, 320323, Note_on_c, 1, 78, 109
1, 320330, Note_off_c, 1, 79, 64
1, 320371, Note_on_c, 2, 76, 112
1, 320378, Note_off_c, 1, 78, 64
1, 320419, Note_on_c, 2, 74, 117
1, 320426, Note_off_c, 2, 76, 64
1, 320472, Note_off_c, 4, 62, 64
1, 320473, Note_on_c, 4, 55, 127
1, 320473, Note_on_c, 2, 67, 127
1, 320473, Note_on_c, 1, 79, 114
1, 320482, Note_off_c, 2, 74, 64
1, 320504, Note_on_c, 1, 81, 114
1, 320514, Note_off_c, 1, 79, 64
1, 320535, Note_on_c, 1, 83, 114
1, 320542, Note_off_c, 1, 81, 64
1, 320668, Note_off_c, 1, 83, 64
1, 320676, Note_on_c, 1, 81, 114
1, 320724, Note_on_c, 1, 79, 114
1, 320734, Note_off_c, 1, 81, 64
1, 320772, Note_on_c, 1, 78, 114
1, 320781, Note_off_c, 1, 79, 64
1, 320823, Note_on_c, 2, 76, 117
1, 320831, Note_off_c, 1, 78, 64
1, 320873, Note_off_c, 2, 67, 64
1, 320873, Note_off_c, 4, 55, 64
1, 320874, Note_on_c, 4, 57, 127
1, 320874, Note_on_c, 2, 74, 117
1, 320875, Note_on_c, 4, 66, 127
1, 320881, Note_off_c, 2, 76, 64
1, 321060, Note_off_c, 2, 74, 64
1, 321064, Note_on_c, 4, 64, 126
1, 321064, Note_on_c, 2, 73, 117
1, 321066, Note_off_c, 4, 66, 64
1, 321252, Note_off_c, 4, 57, 64
1, 321254, Note_on_c, 4, 57, 127
1, 321325, Note_on_c, 4, 59, 127
1, 321333, Note_off_c, 4, 57, 64
1, 321390, Note_on_c, 4, 57, 127
1, 321398, Note_off_c, 4, 59, 64
1, 321456, Note_on_c, 4, 55, 127
1, 321463, Note_off_c, 4, 57, 64
1, 321519, Note_on_c, 4, 54, 127
1, 321528, Note_off_c, 4, 55, 64
1, 321584, Note_on_c, 4, 52, 127
1, 321592, Note_off_c, 4, 54, 64
1, 321640, Note_off_c, 2, 73, 64
1, 321640, Note_off_c, 4, 64, 64
1, 321647, Note_on_c, 4, 50, 127
1, 321647, Note_on_c, 2, 74, 117
1, 321659, Note_off_c, 4, 52, 64
1, 321684, Note_on_c, 2, 76, 117
1, 321696, Note_off_c, 2, 74, 64
1, 321715, Note_on_c, 1, 78, 114
1, 321722, Note_off_c, 2, 76, 64
1, 321857, Note_on_c, 2, 76, 117
1, 321866, Note_off_c, 1, 78, 64
1, 321905, Note_on_c, 2, 74, 117
1, 321912, Note_off_c, 2, 76, 64
1, 321953, Note_on_c, 2, 73, 117
1, 321960, Note_off_c, 2, 74, 64
1, 322001, Note_on_c, 2, 71, 116
1, 322008, Note_off_c, 2, 73, 64
1, 322049, Note_on_c, 4, 62, 127
1, 322120, Note_on_c, 4, 64, 126
1, 322128, Note_off_c, 4, 62, 64
1, 322185, Note_on_c, 4, 62, 127
1, 322193, Note_off_c, 4, 64, 64
1, 322249, Note_on_c, 4, 61, 127
1, 322258, Note_off_c, 4, 62, 64
1, 322314, Note_on_c, 4, 59, 127
1, 322321, Note_off_c, 4, 61, 64
1, 322377, Note_on_c, 4, 57, 127
1, 322385, Note_off_c, 4, 59, 64
1, 322441, Note_off_c, 4, 50, 64
1, 322441, Note_on_c, 4, 56, 127
1, 322441, Note_on_c, 1, 83, 114
1, 322453, Note_off_c, 4, 57, 64
1, 322453, Note_off_c, 2, 71, 64
1, 322477, Note_on_c, 1, 85, 114
1, 322488, Note_off_c, 1, 83, 64
1, 322508, Note_on_c, 1, 86, 114
1, 322518, Note_off_c, 1, 85, 64
1, 322652, Note_off_c, 1, 86, 64
1, 322652, Note_on_c, 1, 85, 114
1, 322699, Note_on_c, 1, 83, 114
1, 322707, Note_off_c, 1, 85, 64
1, 322747, Note_on_c, 1, 81, 114
1, 322755, Note_off_c, 1, 83, 64
1, 322795, Note_on_c, 1, 80, 114
1, 322803, Note_off_c, 1, 81, 64
1, 322842, Note_on_c, 2, 71, 112
1, 322867, Note_on_c, 2, 73, 113
1, 322875, Note_off_c, 2, 71, 64
1, 322890, Note_on_c, 2, 74, 113
1, 322898, Note_off_c, 2, 73, 64
1, 323034, Note_on_c, 2, 73, 117
1, 323050, Note_off_c, 2, 74, 64
1, 323080, Note_on_c, 2, 71, 116
1, 323090, Note_off_c, 2, 73, 64
1, 323128, Note_on_c, 2, 69, 118
1, 323136, Note_off_c, 2, 71, 64
1, 323176, Note_on_c, 2, 68, 120
1, 323184, Note_off_c, 2, 69, 64
1, 323224, Note_on_c, 2, 76, 117
1, 323231, Note_off_c, 1, 80, 64
1, 323408, Note_on_c, 2, 77, 112
1, 323410, Note_off_c, 2, 76, 64
1, 323589, Note_on_c, 1, 78, 109
1, 323593, Note_off_c, 2, 77, 64
1, 323726, Note_off_c, 2, 68, 64
1, 323782, Note_on_c, 2, 68, 120
1, 323783, Note_on_c, 4, 62, 127
1, 323783, Note_on_c, 4, 59, 127
1, 323784, Note_on_c, 4, 52, 127
1, 323797, Note_off_c, 4, 56, 64
1, 323970, Note_off_c, 4, 52, 64
1, 323971, Note_off_c, 4, 59, 64
1, 323971, Note_off_c, 4, 62, 64
1, 323972, Note_off_c, 2, 68, 64
1, 323978, Note_on_c, 4, 64, 127
1, 323978, Note_on_c, 2, 69, 118
1, 323979, Note_on_c, 4, 57, 127
1, 323979, Note_on_c, 4, 61, 127
1, 323993, Note_off_c, 1, 78, 64
1, 324164, Note_on_c, 4, 45, 127
1, 324226, Note_off_c, 4, 61, 64
1, 324226, Note_off_c, 4, 57, 64
1, 324227, Note_off_c, 2, 69, 64
1, 324227, Note_off_c, 4, 64, 64
1, 324350, Note_on_c, 4, 57, 127
1, 324421, Note_on_c, 4, 59, 127
1, 324429, Note_off_c, 4, 57, 64
1, 324485, Note_on_c, 4, 57, 127
1, 324492, Note_off_c, 4, 59, 64
1, 324550, Note_on_c, 4, 55, 127
1, 324558, Note_off_c, 4, 57, 64
1, 324614, Note_on_c, 4, 54, 127
1, 324623, Note_off_c, 4, 55, 64
1, 324677, Note_on_c, 4, 52, 127
1, 324684, Note_off_c, 4, 54, 64
1, 324741, Note_off_c, 4, 45, 64
1, 324741, Note_on_c, 4, 50, 127
1, 324741, Note_on_c, 1, 78, 114
1, 324755, Note_off_c, 4, 52, 64
1, 324783, Note_on_c, 1, 79, 114
1, 324799, Note_off_c, 1, 78, 64
1, 324820, Note_on_c, 1, 81, 114
1, 324828, Note_off_c, 1, 79, 64
1, 324959, Note_on_c, 1, 79, 114
1, 324970, Note_off_c, 1, 81, 64
1, 325005, Note_on_c, 1, 78, 114
1, 325012, Note_off_c, 1, 79, 64
1, 325053, Note_on_c, 2, 76, 117
1, 325060, Note_off_c, 1, 78, 64
1, 325097, Note_on_c, 2, 74, 117
1, 325106, Note_off_c, 2, 76, 64
1, 325145, Note_on_c, 4, 62, 127
1, 325216, Note_on_c, 4, 64, 126
1, 325224, Note_off_c, 4, 62, 64
1, 325279, Note_on_c, 4, 62, 127
1, 325287, Note_off_c, 4, 64, 64
1, 325343, Note_on_c, 4, 60, 127
1, 325352, Note_off_c, 4, 62, 64
1, 325408, Note_on_c, 4, 59, 127
1, 325416, Note_off_c, 4, 60, 64
1, 325471, Note_on_c, 4, 57, 127
1, 325479, Note_off_c, 4, 59, 64
1, 325535, Note_off_c, 4, 50, 64
1, 325535, Note_on_c, 1, 79, 114
1, 325536, Note_on_c, 4, 55, 127
1, 325545, Note_off_c, 4, 57, 64
1, 325546, Note_off_c, 2, 74, 64
1, 325567, Note_on_c, 1, 81, 114
1, 325579, Note_off_c, 1, 79, 64
1, 325598, Note_on_c, 1, 83, 114
1, 325605, Note_off_c, 1, 81, 64
1, 325729, Note_off_c, 1, 83, 64
1, 325737, Note_on_c, 1, 81, 114
1, 325783, Note_on_c, 1, 79, 114
1, 325792, Note_off_c, 1, 81, 64
1, 325830, Note_on_c, 1, 78, 114
1, 325838, Note_off_c, 1, 79, 64
1, 325876, Note_on_c, 2, 76, 117
1, 325884, Note_off_c, 1, 78, 64
1, 325922, Note_on_c, 2, 69, 118
1, 325992, Note_on_c, 2, 71, 116
1, 325999, Note_off_c, 2, 69, 64
1, 326055, Note_on_c, 2, 69, 118
1, 326063, Note_off_c, 2, 71, 64
1, 326111, Note_off_c, 2, 76, 64
1, 326118, Note_on_c, 2, 76, 108
1, 326119, Note_on_c, 2, 67, 127
1, 326119, Note_on_c, 2, 73, 108
1, 326127, Note_off_c, 2, 69, 64
1, 326184, Note_on_c, 1, 78, 105
1, 326184, Note_on_c, 2, 74, 108
1, 326184, Note_on_c, 4, 66, 127
1, 326190, Note_off_c, 2, 67, 64
1, 326191, Note_off_c, 2, 76, 64
1, 326191, Note_off_c, 2, 73, 64
1, 326251, Note_on_c, 1, 79, 105
1, 326251, Note_on_c, 2, 76, 108
1, 326252, Note_on_c, 4, 64, 126
1, 326259, Note_off_c, 4, 66, 64
1, 326260, Note_off_c, 2, 74, 64
1, 326260, Note_off_c, 1, 78, 64
1, 326321, Note_off_c, 4, 55, 64
1, 326321, Note_on_c, 1, 78, 105
1, 326322, Note_on_c, 4, 62, 127
1, 326333, Note_off_c, 4, 64, 64
1, 326334, Note_off_c, 2, 76, 64
1, 326334, Note_off_c, 1, 79, 64
1, 326355, Note_on_c, 1, 79, 105
1, 326367, Note_off_c, 1, 78, 64
1, 326384, Note_on_c, 1, 81, 109
1, 326392, Note_off_c, 1, 79, 64
1, 326517, Note_off_c, 1, 81, 64
1, 326524, Note_on_c, 1, 79, 109
1, 326570, Note_on_c, 1, 78, 109
1, 326578, Note_off_c, 1, 79, 64
1, 326616, Note_on_c, 2, 76, 117
1, 326624, Note_off_c, 1, 78, 64
1, 326663, Note_on_c, 2, 74, 117
1, 326670, Note_off_c, 2, 76, 64
1, 326711, Note_off_c, 4, 62, 64
1, 326711, Note_on_c, 1, 79, 114
1, 326712, Note_on_c, 4, 55, 127
1, 326712, Note_on_c, 2, 67, 127
1, 326718, Note_off_c, 2, 74, 64
1, 326736, Note_on_c, 1, 81, 114
1, 326745, Note_off_c, 1, 79, 64
1, 326764, Note_on_c, 1, 83, 114
1, 326772, Note_off_c, 1, 81, 64
1, 326897, Note_off_c, 1, 83, 64
1, 326904, Note_on_c, 1, 81, 114
1, 326952, Note_on_c, 1, 79, 114
1, 326960, Note_off_c, 1, 81, 64
1, 327001, Note_on_c, 1, 78, 114
1, 327008, Note_off_c, 1, 79, 64
1, 327046, Note_on_c, 2, 76, 117
1, 327053, Note_off_c, 1, 78, 64
1, 327094, Note_off_c, 2, 67, 64
1, 327094, Note_off_c, 4, 55, 64
1, 327095, Note_on_c, 4, 57, 127
1, 327095, Note_on_c, 2, 74, 113
1, 327096, Note_on_c, 4, 66, 120
1, 327102, Note_off_c, 2, 76, 64
1, 327269, Note_off_c, 2, 74, 64
1, 327277, Note_off_c, 4, 66, 64
1, 327279, Note_on_c, 4, 64, 122
1, 327279, Note_on_c, 2, 73, 113
1, 327461, Note_off_c, 4, 57, 64
1, 327466, Note_on_c, 4, 57, 127
1, 327535, Note_on_c, 4, 59, 127
1, 327544, Note_off_c, 4, 57, 64
1, 327598, Note_on_c, 4, 57, 127
1, 327606, Note_off_c, 4, 59, 64
1, 327663, Note_on_c, 4, 55, 127
1, 327671, Note_off_c, 4, 57, 64
1, 327727, Note_on_c, 4, 54, 127
1, 327734, Note_off_c, 4, 55, 64
1, 327789, Note_on_c, 4, 52, 127
1, 327797, Note_off_c, 4, 54, 64
1, 327852, Note_off_c, 4, 64, 64
1, 327853, Note_off_c, 2, 73, 64
1, 327853, Note_on_c, 2, 74, 117
1, 327854, Note_on_c, 4, 50, 127
1, 327864, Note_off_c, 4, 52, 64
1, 327889, Note_on_c, 2, 76, 117
1, 327900, Note_off_c, 2, 74, 64
1, 327924, Note_on_c, 1, 78, 114
1, 327935, Note_off_c, 2, 76, 64
1, 328058, Note_off_c, 1, 78, 64
1, 328066, Note_on_c, 2, 76, 117
1, 328114, Note_on_c, 2, 74, 117
1, 328121, Note_off_c, 2, 76, 64
1, 328160, Note_on_c, 2, 73, 117
1, 328167, Note_off_c, 2, 74, 64
1, 328206, Note_on_c, 2, 71, 116
1, 328213, Note_off_c, 2, 73, 64
1, 328252, Note_on_c, 4, 62, 127
1, 328323, Note_on_c, 4, 64, 126
1, 328331, Note_off_c, 4, 62, 64
1, 328384, Note_on_c, 4, 62, 127
1, 328392, Note_off_c, 4, 64, 64
1, 328450, Note_on_c, 4, 61, 127
1, 328457, Note_off_c, 4, 62, 64
1, 328513, Note_on_c, 4, 59, 127
1, 328521, Note_off_c, 4, 61, 64
1, 328576, Note_on_c, 4, 57, 127
1, 328584, Note_off_c, 4, 59, 64
1, 328640, Note_off_c, 4, 50, 64
1, 328640, Note_on_c, 1, 83, 114
1, 328641, Note_on_c, 4, 56, 127
1, 328652, Note_off_c, 4, 57, 64
1, 328653, Note_off_c, 2, 71, 64
1, 328674, Note_on_c, 1, 85, 114
1, 328686, Note_off_c, 1, 83, 64
1, 328705, Note_on_c, 1, 86, 114
1, 328713, Note_off_c, 1, 85, 64
1, 328845, Note_on_c, 1, 85, 114
1, 328860, Note_off_c, 1, 86, 64
1, 328891, Note_on_c, 1, 83, 114
1, 328899, Note_off_c, 1, 85, 64
1, 328937, Note_on_c, 1, 81, 114
1, 328945, Note_off_c, 1, 83, 64
1, 328983, Note_on_c, 1, 80, 114
1, 328991, Note_off_c, 1, 81, 64
1, 329031, Note_on_c, 2, 71, 112
1, 329053, Note_on_c, 2, 73, 113
1, 329062, Note_off_c, 2, 71, 64
1, 329077, Note_on_c, 2, 74, 113
1, 329085, Note_off_c, 2, 73, 64
1, 329216, Note_on_c, 2, 73, 117
1, 329223, Note_off_c, 2, 74, 64
1, 329264, Note_on_c, 2, 71, 116
1, 329271, Note_off_c, 2, 73, 64
1, 329309, Note_on_c, 2, 69, 118
1, 329317, Note_off_c, 2, 71, 64
1, 329357, Note_on_c, 2, 68, 120
1, 329364, Note_off_c, 2, 69, 64
1, 329405, Note_off_c, 4, 56, 64
1, 329405, Note_on_c, 2, 76, 117
1, 329412, Note_off_c, 1, 80, 64
1, 329590, Note_on_c, 2, 77, 112
1, 329594, Note_off_c, 2, 76, 64
1, 329777, Note_on_c, 1, 78, 109
1, 329780, Note_off_c, 2, 77, 64
1, 329946, Note_off_c, 2, 68, 64
1, 329971, Note_on_c, 4, 59, 127
1, 329971, Note_on_c, 4, 62, 127
1, 329971, Note_on_c, 2, 68, 120
1, 329972, Note_on_c, 4, 52, 127
1, 330160, Note_off_c, 4, 59, 64
1, 330160, Note_off_c, 4, 52, 64
1, 330161, Note_off_c, 2, 68, 64
1, 330161, Note_off_c, 4, 62, 64
1, 330169, Note_on_c, 2, 69, 118
1, 330170, Note_on_c, 4, 61, 127
1, 330170, Note_on_c, 4, 64, 126
1, 330171, Note_on_c, 4, 57, 127
1, 330185, Note_off_c, 1, 78, 64
1, 330348, Note_on_c, 4, 45, 127
1, 330408, Note_off_c, 4, 64, 64
1, 330408, Note_off_c, 4, 61, 64
1, 330408, Note_off_c, 4, 57, 64
1, 330409, Note_off_c, 2, 69, 64
1, 330527, Note_on_c, 2, 69, 118
1, 330592, Note_on_c, 2, 72, 117
1, 330600, Note_off_c, 2, 69, 64
1, 330651, Note_on_c, 2, 75, 112
1, 330659, Note_off_c, 2, 72, 64
1, 330711, Note_on_c, 1, 78, 109
1, 330719, Note_off_c, 2, 75, 64
1, 330772, Note_on_c, 1, 81, 109
1, 330780, Note_off_c, 1, 78, 64
1, 330836, Note_on_c, 1, 84, 109
1, 330843, Note_off_c, 1, 81, 64
1, 330900, Note_off_c, 4, 45, 64
1, 330900, Note_on_c, 1, 78, 109
1, 330900, Note_on_c, 1, 81, 109
1, 330901, Note_on_c, 4, 59, 127
1, 330912, Note_off_c, 1, 84, 64
1, 330936, Note_on_c, 4, 61, 127
1, 330943, Note_off_c, 4, 59, 64
1, 330959, Note_on_c, 4, 63, 127
1, 330966, Note_off_c, 4, 61, 64
1, 331111, Note_on_c, 2, 76, 112
1, 331111, Note_on_c, 1, 80, 109
1, 331112, Note_on_c, 4, 64, 126
1, 331116, Note_off_c, 1, 78, 64
1, 331116, Note_off_c, 4, 63, 64
1, 331117, Note_off_c, 1, 81, 64
1, 331167, Note_on_c, 4, 62, 127
1, 331175, Note_off_c, 4, 64, 64
1, 331212, Note_on_c, 4, 61, 127
1, 331218, Note_off_c, 4, 62, 64
1, 331256, Note_on_c, 4, 59, 127
1, 331264, Note_off_c, 4, 61, 64
1, 331293, Note_off_c, 2, 76, 64
1, 331296, Note_off_c, 4, 59, 64
1, 331302, Note_on_c, 1, 79, 109
1, 331303, Note_on_c, 2, 76, 112
1, 331303, Note_on_c, 4, 57, 127
1, 331308, Note_off_c, 1, 80, 64
1, 331337, Note_off_c, 4, 57, 64
1, 331339, Note_on_c, 4, 59, 127
1, 331362, Note_off_c, 4, 59, 64
1, 331362, Note_on_c, 4, 61, 127
1, 331517, Note_on_c, 1, 78, 109
1, 331518, Note_on_c, 2, 74, 112
1, 331518, Note_on_c, 4, 62, 127
1, 331520, Note_off_c, 2, 76, 64
1, 331521, Note_off_c, 1, 79, 64
1, 331525, Note_off_c, 4, 61, 64
1, 331561, Note_on_c, 4, 61, 127
1, 331569, Note_off_c, 4, 62, 64
1, 331606, Note_on_c, 4, 59, 127
1, 331613, Note_off_c, 4, 61, 64
1, 331650, Note_on_c, 4, 58, 127
1, 331657, Note_off_c, 4, 59, 64
1, 331694, Note_on_c, 1, 86, 114
1, 331694, Note_on_c, 4, 59, 127
1, 331697, Note_off_c, 1, 78, 64
1, 331703, Note_off_c, 4, 58, 64
1, 331743, Note_off_c, 1, 86, 64
1, 331744, Note_on_c, 1, 85, 114
1, 331744, Note_on_c, 4, 57, 127
1, 331749, Note_off_c, 4, 59, 64
1, 331786, Note_off_c, 1, 85, 64
1, 331786, Note_on_c, 1, 83, 114
1, 331787, Note_on_c, 4, 55, 127
1, 331793, Note_off_c, 4, 57, 64
1, 331832, Note_off_c, 1, 83, 64
1, 331832, Note_on_c, 1, 82, 114
1, 331832, Note_on_c, 4, 54, 127
1, 331840, Note_off_c, 4, 55, 64
1, 331877, Note_off_c, 1, 82, 64
1, 331877, Note_on_c, 4, 55, 127
1, 331877, Note_on_c, 1, 83, 114
1, 331885, Note_off_c, 4, 54, 64
1, 332052, Note_off_c, 1, 83, 64
1, 332052, Note_off_c, 4, 55, 64
1, 332061, Note_on_c, 1, 83, 114
1, 332061, Note_on_c, 4, 55, 127
1, 332108, Note_off_c, 1, 83, 64
1, 332108, Note_on_c, 1, 81, 114
1, 332109, Note_on_c, 4, 54, 127
1, 332115, Note_off_c, 4, 55, 64
1, 332151, Note_off_c, 1, 81, 64
1, 332152, Note_on_c, 4, 52, 127
1, 332152, Note_on_c, 1, 79, 114
1, 332160, Note_off_c, 4, 54, 64
1, 332198, Note_off_c, 1, 79, 64
1, 332199, Note_on_c, 1, 78, 114
1, 332199, Note_on_c, 4, 51, 127
1, 332205, Note_off_c, 4, 52, 64
1, 332244, Note_off_c, 1, 78, 64
1, 332245, Note_on_c, 4, 52, 127
1, 332245, Note_on_c, 1, 79, 114
1, 332254, Note_off_c, 4, 51, 64
1, 332432, Note_off_c, 2, 74, 64
1, 332432, Note_on_c, 2, 69, 118
1, 332613, Note_on_c, 2, 67, 127
1, 332614, Note_on_c, 4, 64, 126
1, 332631, Note_off_c, 2, 69, 64
1, 332704, Note_on_c, 2, 71, 111
1, 332756, Note_on_c, 2, 73, 112
1, 332779, Note_off_c, 2, 71, 64
1, 332804, Note_off_c, 1, 79, 64
1, 332805, Note_on_c, 4, 66, 127
1, 332805, Note_on_c, 2, 74, 112
1, 332806, Note_off_c, 4, 64, 64
1, 332806, Note_on_c, 4, 62, 127
1, 332807, Note_off_c, 2, 67, 64
1, 332826, Note_off_c, 2, 73, 64
1, 332895, Note_on_c, 2, 76, 112
1, 332906, Note_off_c, 2, 74, 64
1, 332984, Note_off_c, 4, 62, 64
1, 332993, Note_on_c, 1, 78, 109
1, 332994, Note_on_c, 4, 59, 127
1, 332994, Note_on_c, 4, 62, 127
1, 332995, Note_off_c, 4, 66, 64
1, 333003, Note_off_c, 2, 76, 64
1, 333087, Note_on_c, 1, 80, 114
1, 333099, Note_off_c, 1, 78, 64
1, 333175, Note_off_c, 1, 80, 64
1, 333175, Note_off_c, 4, 62, 64
1, 333183, Note_off_c, 4, 52, 64
1, 333184, Note_on_c, 4, 62, 127
1, 333184, Note_on_c, 1, 80, 114
1, 333185, Note_on_c, 4, 57, 127
1, 333187, Note_off_c, 4, 59, 64
1, 333379, Note_on_c, 1, 81, 114
1, 333380, Note_on_c, 4, 61, 127
1, 333382, Note_off_c, 4, 62, 64
1, 333383, Note_off_c, 1, 80, 64
1, 333546, Note_off_c, 4, 61, 64
1, 333554, Note_off_c, 4, 57, 64
1, 333554, Note_on_c, 4, 61, 127
1, 333555, Note_on_c, 4, 49, 127
1, 333582, Note_on_c, 4, 50, 127
1, 333582, Note_on_c, 4, 62, 127
1, 333594, Note_off_c, 4, 49, 64
1, 333595, Note_off_c, 4, 61, 64
1, 333612, Note_on_c, 4, 64, 122
1, 333613, Note_on_c, 4, 52, 127
1, 333621, Note_off_c, 4, 50, 64
1, 333622, Note_off_c, 4, 62, 64
1, 333745, Note_off_c, 4, 52, 64
1, 333745, Note_off_c, 4, 64, 64
1, 333752, Note_on_c, 4, 62, 127
1, 333752, Note_on_c, 4, 50, 127
1, 333797, Note_on_c, 4, 49, 127
1, 333797, Note_on_c, 4, 61, 127
1, 333805, Note_off_c, 4, 50, 64
1, 333806, Note_off_c, 4, 62, 64
1, 333843, Note_on_c, 4, 59, 127
1, 333843, Note_on_c, 4, 47, 127
1, 333852, Note_off_c, 4, 61, 64
1, 333852, Note_off_c, 4, 49, 64
1, 333889, Note_on_c, 4, 57, 127
1, 333893, Note_on_c, 4, 45, 127
1, 333897, Note_off_c, 4, 47, 64
1, 333897, Note_off_c, 4, 59, 64
1, 333932, Note_off_c, 4, 57, 64
1, 333936, Note_off_c, 1, 81, 64
1, 333936, Note_on_c, 2, 69, 118
1, 333937, Note_on_c, 4, 57, 127
1, 334265, Note_off_c, 2, 69, 64
1, 334267, Note_on_c, 2, 69, 118
1, 334331, Note_off_c, 2, 69, 64
1, 334331, Note_on_c, 2, 71, 116
1, 334391, Note_off_c, 2, 71, 64
1, 334392, Note_on_c, 2, 69, 118
1, 334453, Note_off_c, 2, 69, 64
1, 334454, Note_on_c, 2, 67, 127
1, 334514, Note_off_c, 2, 67, 64
1, 334515, Note_on_c, 4, 66, 127
1, 334577, Note_off_c, 4, 66, 64
1, 334577, Note_on_c, 4, 64, 126
1, 334641, Note_off_c, 4, 64, 64
1, 334641, Note_on_c, 1, 78, 109
1, 334642, Note_off_c, 4, 57, 64
1, 334642, Note_on_c, 4, 62, 127
1, 334678, Note_on_c, 1, 79, 109
1, 334685, Note_off_c, 1, 78, 64
1, 334701, Note_on_c, 1, 81, 109
1, 334708, Note_off_c, 1, 79, 64
1, 334837, Note_on_c, 1, 79, 109
1, 334840, Note_off_c, 1, 81, 64
1, 334881, Note_on_c, 1, 78, 109
1, 334889, Note_off_c, 1, 79, 64
1, 334927, Note_on_c, 2, 76, 117
1, 334935, Note_off_c, 1, 78, 64
1, 334974, Note_on_c, 2, 74, 117
1, 334982, Note_off_c, 2, 76, 64
1, 335018, Note_off_c, 4, 62, 64
1, 335022, Note_on_c, 4, 62, 127
1, 335091, Note_on_c, 4, 64, 126
1, 335099, Note_off_c, 4, 62, 64
1, 335153, Note_on_c, 4, 62, 127
1, 335160, Note_off_c, 4, 64, 64
1, 335214, Note_on_c, 4, 60, 127
1, 335224, Note_off_c, 4, 62, 64
1, 335278, Note_on_c, 4, 59, 127
1, 335286, Note_off_c, 4, 60, 64
1, 335340, Note_on_c, 4, 57, 127
1, 335348, Note_off_c, 4, 59, 64
1, 335401, Note_on_c, 1, 79, 109
1, 335402, Note_on_c, 4, 55, 127
1, 335412, Note_off_c, 4, 57, 64
1, 335412, Note_off_c, 2, 74, 64
1, 335426, Note_off_c, 4, 45, 64
1, 335432, Note_on_c, 1, 81, 109
1, 335442, Note_off_c, 1, 79, 64
1, 335459, Note_on_c, 1, 83, 109
1, 335467, Note_off_c, 1, 81, 64
1, 335594, Note_on_c, 1, 81, 109
1, 335601, Note_off_c, 1, 83, 64
1, 335640, Note_on_c, 1, 79, 109
1, 335647, Note_off_c, 1, 81, 64
1, 335686, Note_on_c, 1, 78, 109
1, 335693, Note_off_c, 1, 79, 64
1, 335730, Note_on_c, 2, 76, 117
1, 335737, Note_off_c, 1, 78, 64
1, 335776, Note_on_c, 4, 64, 126
1, 335799, Note_on_c, 4, 66, 127
1, 335805, Note_off_c, 4, 64, 64
1, 335820, Note_on_c, 2, 67, 127
1, 335828, Note_off_c, 4, 66, 64
1, 335951, Note_off_c, 2, 67, 64
1, 335956, Note_on_c, 4, 66, 127
1, 336002, Note_on_c, 4, 64, 126
1, 336010, Note_off_c, 4, 66, 64
1, 336047, Note_on_c, 4, 62, 127
1, 336054, Note_off_c, 4, 64, 64
1, 336095, Note_on_c, 4, 61, 127
1, 336101, Note_off_c, 4, 62, 64
1, 336140, Note_off_c, 4, 55, 64
1, 336140, Note_on_c, 1, 81, 114
1, 336148, Note_off_c, 2, 76, 64
1, 336327, Note_on_c, 1, 82, 109
1, 336329, Note_off_c, 1, 81, 64
1, 336511, Note_on_c, 1, 83, 109
1, 336515, Note_off_c, 1, 82, 64
1, 336700, Note_on_c, 4, 64, 127
1, 336700, Note_on_c, 2, 67, 127
1, 336700, Note_on_c, 2, 73, 117
1, 336701, Note_on_c, 4, 57, 127
1, 336707, Note_off_c, 4, 61, 64
1, 336850, Note_off_c, 1, 83, 64
1, 336894, Note_off_c, 2, 67, 64
1, 336894, Note_off_c, 4, 64, 64
1, 336894, Note_off_c, 4, 57, 64
1, 336895, Note_off_c, 2, 73, 64
1, 336903, Note_on_c, 2, 74, 117
1, 336904, Note_on_c, 4, 62, 127
1, 336904, Note_on_c, 4, 66, 127
1, 336904, Note_on_c, 2, 69, 118
1, 337082, Note_on_c, 4, 50, 127
1, 337141, Note_off_c, 4, 62, 64
1, 337142, Note_off_c, 2, 69, 64
1, 337142, Note_off_c, 4, 66, 64
1, 337143, Note_off_c, 2, 74, 64
1, 337260, Note_on_c, 2, 69, 118
1, 337326, Note_on_c, 2, 72, 117
1, 337333, Note_off_c, 2, 69, 64
1, 337385, Note_on_c, 2, 75, 117
1, 337393, Note_off_c, 2, 72, 64
1, 337445, Note_on_c, 1, 78, 114
1, 337452, Note_off_c, 2, 75, 64
1, 337506, Note_on_c, 1, 81, 114
1, 337514, Note_off_c, 1, 78, 64
1, 337568, Note_on_c, 1, 84, 114
1, 337575, Note_off_c, 1, 81, 64
1, 337623, Note_off_c, 1, 84, 64
1, 337627, Note_on_c, 1, 84, 109
1, 337628, Note_on_c, 1, 81, 109
1, 337628, Note_on_c, 4, 59, 127
1, 337638, Note_off_c, 4, 50, 64
1, 337653, Note_on_c, 4, 61, 127
1, 337661, Note_off_c, 4, 59, 64
1, 337676, Note_on_c, 4, 63, 127
1, 337684, Note_off_c, 4, 61, 64
1, 337814, Note_on_c, 4, 64, 126
1, 337824, Note_off_c, 1, 84, 64
1, 337824, Note_off_c, 1, 81, 64
1, 337835, Note_on_c, 2, 76, 112
1, 337840, Note_off_c, 4, 63, 64
1, 337846, Note_on_c, 1, 80, 109
1, 337883, Note_off_c, 4, 64, 64
1, 337883, Note_on_c, 4, 62, 127
1, 337930, Note_off_c, 4, 62, 64
1, 337930, Note_on_c, 4, 61, 127
1, 337977, Note_off_c, 4, 61, 64
1, 337977, Note_on_c, 4, 59, 127
1, 338024, Note_off_c, 4, 59, 64
1, 338024, Note_off_c, 2, 76, 64
1, 338025, Note_on_c, 4, 57, 127
1, 338031, Note_on_c, 2, 76, 112
1, 338035, Note_on_c, 1, 79, 109
1, 338037, Note_off_c, 1, 80, 64
1, 338049, Note_on_c, 4, 59, 127
1, 338056, Note_off_c, 4, 57, 64
1, 338072, Note_on_c, 4, 61, 127
1, 338081, Note_off_c, 4, 59, 64
1, 338200, Note_off_c, 4, 61, 64
1, 338208, Note_on_c, 4, 62, 127
1, 338227, Note_on_c, 2, 74, 112
1, 338239, Note_off_c, 2, 76, 64
1, 338239, Note_on_c, 1, 78, 109
1, 338245, Note_off_c, 1, 79, 64
1, 338278, Note_on_c, 4, 61, 127
1, 338286, Note_off_c, 4, 62, 64
1, 338322, Note_on_c, 4, 59, 127
1, 338330, Note_off_c, 4, 61, 64
1, 338368, Note_on_c, 4, 58, 127
1, 338376, Note_off_c, 4, 59, 64
1, 338414, Note_on_c, 1, 86, 109
1, 338415, Note_on_c, 4, 59, 127
1, 338423, Note_off_c, 4, 58, 64
1, 338463, Note_on_c, 1, 85, 109
1, 338464, Note_on_c, 4, 57, 127
1, 338470, Note_off_c, 4, 59, 64
1, 338471, Note_off_c, 1, 86, 64
1, 338508, Note_on_c, 1, 83, 109
1, 338508, Note_on_c, 4, 55, 127
1, 338514, Note_off_c, 4, 57, 64
1, 338515, Note_off_c, 1, 85, 64
1, 338552, Note_on_c, 1, 82, 109
1, 338552, Note_on_c, 4, 54, 127
1, 338558, Note_off_c, 4, 55, 64
1, 338559, Note_off_c, 1, 83, 64
1, 338596, Note_on_c, 4, 55, 127
1, 338596, Note_on_c, 1, 83, 109
1, 338604, Note_off_c, 4, 54, 64
1, 338605, Note_off_c, 1, 82, 64
1, 338605, Note_off_c, 1, 78, 64
1, 338765, Note_off_c, 1, 83, 64
1, 338772, Note_off_c, 4, 55, 64
1, 338780, Note_on_c, 1, 83, 109
1, 338781, Note_on_c, 4, 55, 127
1, 338827, Note_on_c, 1, 81, 109
1, 338828, Note_on_c, 4, 54, 127
1, 338834, Note_off_c, 4, 55, 64
1, 338835, Note_off_c, 1, 83, 64
1, 338871, Note_on_c, 1, 79, 109
1, 338872, Note_on_c, 4, 52, 127
1, 338879, Note_off_c, 4, 54, 64
1, 338879, Note_off_c, 1, 81, 64
1, 338917, Note_on_c, 1, 78, 109
1, 338917, Note_on_c, 4, 51, 127
1, 338923, Note_off_c, 4, 52, 64
1, 338924, Note_off_c, 1, 79, 64
1, 338961, Note_on_c, 4, 52, 127
1, 338961, Note_on_c, 1, 79, 109
1, 338967, Note_off_c, 1, 78, 64
1, 338970, Note_off_c, 4, 51, 64
1, 339143, Note_on_c, 2, 69, 118
1, 339148, Note_off_c, 2, 74, 64
1, 339329, Note_on_c, 4, 64, 126
1, 339329, Note_on_c, 2, 67, 127
1, 339420, Note_off_c, 2, 69, 64
1, 339424, Note_on_c, 2, 71, 116
1, 339474, Note_on_c, 2, 73, 117
1, 339497, Note_off_c, 2, 71, 64
1, 339519, Note_off_c, 1, 79, 64
1, 339519, Note_on_c, 2, 74, 117
1, 339520, Note_on_c, 4, 62, 127
1, 339520, Note_on_c, 4, 66, 127
1, 339522, Note_off_c, 4, 64, 64
1, 339523, Note_off_c, 2, 67, 64
1, 339543, Note_off_c, 2, 73, 64
1, 339612, Note_on_c, 2, 76, 117
1, 339622, Note_off_c, 2, 74, 64
1, 339695, Note_off_c, 4, 62, 64
1, 339702, Note_on_c, 1, 78, 114
1, 339703, Note_on_c, 4, 59, 127
1, 339703, Note_on_c, 4, 62, 127
1, 339705, Note_off_c, 4, 66, 64
1, 339711, Note_off_c, 2, 76, 64
1, 339792, Note_on_c, 1, 80, 114
1, 339803, Note_off_c, 1, 78, 64
1, 339878, Note_off_c, 1, 80, 64
1, 339878, Note_off_c, 4, 62, 64
1, 339880, Note_off_c, 4, 59, 64
1, 339885, Note_off_c, 4, 52, 64
1, 339885, Note_on_c, 1, 80, 114
1, 339886, Note_on_c, 4, 57, 127
1, 339886, Note_on_c, 4, 62, 127
1, 340073, Note_on_c, 1, 81, 114
1, 340073, Note_on_c, 4, 61, 127
1, 340076, Note_off_c, 4, 62, 64
1, 340076, Note_off_c, 1, 80, 64
1, 340236, Note_off_c, 4, 61, 64
1, 340251, Note_off_c, 4, 57, 64
1, 340252, Note_on_c, 4, 61, 127
1, 340252, Note_on_c, 4, 49, 127
1, 340287, Note_on_c, 4, 50, 127
1, 340287, Note_on_c, 4, 62, 127
1, 340299, Note_off_c, 4, 49, 64
1, 340300, Note_off_c, 4, 61, 64
1, 340318, Note_on_c, 4, 52, 127
1, 340318, Note_on_c, 4, 64, 127
1, 340326, Note_off_c, 4, 50, 64
1, 340327, Note_off_c, 4, 62, 64
1, 340458, Note_on_c, 4, 62, 127
1, 340458, Note_on_c, 4, 50, 127
1, 340464, Note_off_c, 4, 52, 64
1, 340465, Note_off_c, 4, 64, 64
1, 340506, Note_on_c, 4, 49, 127
1, 340506, Note_on_c, 4, 61, 127
1, 340512, Note_off_c, 4, 50, 64
1, 340513, Note_off_c, 4, 62, 64
1, 340552, Note_on_c, 4, 59, 127
1, 340553, Note_on_c, 4, 47, 127
1, 340561, Note_off_c, 4, 49, 64
1, 340562, Note_off_c, 4, 61, 64
1, 340603, Note_on_c, 4, 57, 127
1, 340608, Note_on_c, 4, 45, 127
1, 340612, Note_off_c, 4, 47, 64
1, 340613, Note_off_c, 4, 59, 64
1, 340640, Note_off_c, 1, 81, 64
1, 340650, Note_off_c, 4, 57, 64
1, 340659, Note_on_c, 2, 69, 118
1, 340660, Note_on_c, 4, 57, 127
1, 341004, Note_off_c, 2, 69, 64
1, 341008, Note_on_c, 2, 69, 118
1, 341075, Note_on_c, 2, 71, 116
1, 341082, Note_off_c, 2, 69, 64
1, 341134, Note_on_c, 2, 69, 118
1, 341141, Note_off_c, 2, 71, 64
1, 341195, Note_on_c, 2, 67, 127
1, 341203, Note_off_c, 2, 69, 64
1, 341256, Note_on_c, 4, 66, 127
1, 341265, Note_off_c, 2, 67, 64
1, 341317, Note_on_c, 4, 64, 126
1, 341326, Note_off_c, 4, 66, 64
1, 341382, Note_off_c, 4, 57, 64
1, 341382, Note_on_c, 1, 78, 109
1, 341383, Note_on_c, 4, 62, 127
1, 341401, Note_off_c, 4, 64, 64
1, 341432, Note_on_c, 1, 79, 109
1, 341444, Note_off_c, 1, 78, 64
1, 341460, Note_on_c, 1, 81, 109
1, 341467, Note_off_c, 1, 79, 64
1, 341600, Note_off_c, 1, 81, 64
1, 341600, Note_on_c, 1, 79, 114
1, 341647, Note_on_c, 1, 78, 114
1, 341654, Note_off_c, 1, 79, 64
1, 341693, Note_on_c, 2, 76, 117
1, 341700, Note_off_c, 1, 78, 64
1, 341739, Note_on_c, 2, 74, 117
1, 341746, Note_off_c, 2, 76, 64
1, 341782, Note_off_c, 4, 62, 64
1, 341786, Note_on_c, 4, 62, 127
1, 341853, Note_on_c, 4, 64, 126
1, 341861, Note_off_c, 4, 62, 64
1, 341916, Note_on_c, 4, 62, 127
1, 341924, Note_off_c, 4, 64, 64
1, 341982, Note_on_c, 4, 60, 127
1, 341989, Note_off_c, 4, 62, 64
1, 342045, Note_on_c, 4, 59, 127
1, 342053, Note_off_c, 4, 60, 64
1, 342107, Note_on_c, 4, 57, 127
1, 342114, Note_off_c, 4, 59, 64
1, 342168, Note_on_c, 4, 55, 127
1, 342168, Note_on_c, 1, 79, 109
1, 342182, Note_off_c, 4, 57, 64
1, 342183, Note_off_c, 2, 74, 64
1, 342206, Note_on_c, 1, 81, 109
1, 342214, Note_off_c, 1, 79, 64
1, 342229, Note_on_c, 1, 83, 109
1, 342237, Note_off_c, 1, 81, 64
1, 342370, Note_off_c, 1, 83, 64
1, 342370, Note_on_c, 1, 81, 114
1, 342417, Note_on_c, 1, 79, 114
1, 342424, Note_off_c, 1, 81, 64
1, 342435, Note_off_c, 4, 45, 64
1, 342462, Note_on_c, 1, 78, 114
1, 342469, Note_off_c, 1, 79, 64
1, 342510, Note_on_c, 2, 76, 117
1, 342517, Note_off_c, 1, 78, 64
1, 342556, Note_on_c, 4, 64, 126
1, 342578, Note_on_c, 4, 66, 127
1, 342586, Note_off_c, 4, 64, 64
1, 342601, Note_on_c, 2, 67, 127
1, 342609, Note_off_c, 4, 66, 64
1, 342742, Note_off_c, 2, 67, 64
1, 342743, Note_on_c, 4, 66, 127
1, 342787, Note_on_c, 4, 64, 126
1, 342795, Note_off_c, 4, 66, 64
1, 342833, Note_on_c, 4, 62, 127
1, 342841, Note_off_c, 4, 64, 64
1, 342881, Note_on_c, 4, 61, 127
1, 342889, Note_off_c, 4, 62, 64
1, 342927, Note_off_c, 4, 55, 64
1, 342928, Note_on_c, 1, 81, 114
1, 342934, Note_off_c, 2, 76, 64
1, 343113, Note_on_c, 1, 82, 109
1, 343116, Note_off_c, 1, 81, 64
1, 343293, Note_on_c, 1, 83, 109
1, 343295, Note_off_c, 1, 82, 64
1, 343472, Note_on_c, 2, 73, 117
1, 343472, Note_on_c, 2, 67, 127
1, 343473, Note_on_c, 4, 64, 127
1, 343473, Note_on_c, 4, 57, 127
1, 343480, Note_off_c, 4, 61, 64
1, 343650, Note_off_c, 4, 57, 64
1, 343651, Note_off_c, 4, 64, 64
1, 343651, Note_off_c, 2, 67, 64
1, 343652, Note_off_c, 2, 73, 64
1, 343658, Note_on_c, 2, 69, 118
1, 343658, Note_on_c, 2, 74, 117
1, 343659, Note_on_c, 4, 62, 127
1, 343659, Note_on_c, 4, 66, 127
1, 343706, Note_off_c, 1, 83, 64
1, 343852, Note_on_c, 4, 50, 127
1, 343893, Note_off_c, 4, 66, 64
1, 343893, Note_off_c, 4, 62, 64
1, 343894, Note_off_c, 2, 74, 64
1, 343894, Note_off_c, 2, 69, 64
1, 344221, Note_off_c, 4, 50, 64
1, 344375, Note_on_c, 2, 74, 113
1, 344424, Note_on_c, 2, 73, 113
1, 344444, Note_off_c, 2, 74, 64
1, 344467, Note_on_c, 2, 76, 113
1, 344488, Note_off_c, 2, 73, 64
1, 344509, Note_on_c, 2, 74, 113
1, 344528, Note_off_c, 2, 76, 64
1, 344549, Note_on_c, 1, 78, 118
1, 344570, Note_off_c, 2, 74, 64
1, 344593, Note_on_c, 2, 76, 113
1, 344613, Note_off_c, 1, 78, 64
1, 344632, Note_on_c, 1, 79, 118
1, 344653, Note_off_c, 2, 76, 64
1, 344674, Note_on_c, 1, 78, 118
1, 344696, Note_off_c, 1, 79, 64
1, 344717, Note_on_c, 1, 81, 118
1, 344718, Note_on_c, 4, 66, 127
1, 344718, Note_on_c, 4, 54, 127
1, 344738, Note_off_c, 1, 78, 64
1, 344760, Note_on_c, 1, 83, 118
1, 344781, Note_off_c, 1, 81, 64
1, 344802, Note_on_c, 4, 61, 127
1, 344802, Note_on_c, 1, 79, 118
1, 344803, Note_on_c, 4, 49, 127
1, 344810, Note_off_c, 4, 54, 64
1, 344811, Note_off_c, 4, 66, 64
1, 344821, Note_off_c, 1, 83, 64
1, 344842, Note_on_c, 1, 81, 118
1, 344861, Note_off_c, 1, 79, 64
1, 344882, Note_on_c, 1, 78, 118
1, 344883, Note_on_c, 4, 62, 127
1, 344883, Note_on_c, 4, 50, 127
1, 344893, Note_off_c, 4, 61, 64
1, 344893, Note_off_c, 4, 49, 64
1, 344904, Note_off_c, 1, 81, 64
1, 344924, Note_on_c, 1, 79, 118
1, 344945, Note_off_c, 1, 78, 64
1, 344966, Note_on_c, 2, 76, 118
1, 344966, Note_on_c, 4, 58, 127
1, 344967, Note_on_c, 4, 46, 127
1, 344975, Note_off_c, 4, 50, 64
1, 344975, Note_off_c, 4, 62, 64
1, 344985, Note_off_c, 1, 79, 64
1, 345006, Note_on_c, 1, 78, 118
1, 345027, Note_off_c, 2, 76, 64
1, 345050, Note_on_c, 2, 74, 118
1, 345051, Note_on_c, 4, 47, 127
1, 345051, Note_on_c, 4, 59, 127
1, 345059, Note_off_c, 4, 46, 64
1, 345060, Note_off_c, 4, 58, 64
1, 345070, Note_off_c, 1, 78, 64
1, 345089, Note_on_c, 2, 76, 118
1, 345110, Note_off_c, 2, 74, 64
1, 345131, Note_on_c, 2, 74, 118
1, 345137, Note_off_c, 2, 76, 64
1, 345169, Note_on_c, 2, 73, 118
1, 345177, Note_off_c, 2, 74, 64
1, 345210, Note_on_c, 2, 74, 118
1, 345217, Note_off_c, 2, 73, 64
1, 345250, Note_on_c, 2, 76, 118
1, 345271, Note_off_c, 2, 74, 64
1, 345290, Note_on_c, 1, 78, 118
1, 345312, Note_off_c, 2, 76, 64
1, 345331, Note_on_c, 2, 74, 118
1, 345352, Note_off_c, 1, 78, 64
1, 345374, Note_off_c, 4, 59, 64
1, 345374, Note_off_c, 4, 47, 64
1, 345375, Note_on_c, 1, 79, 118
1, 345375, Note_on_c, 4, 64, 126
1, 345376, Note_on_c, 4, 52, 127
1, 345394, Note_off_c, 2, 74, 64
1, 345415, Note_on_c, 1, 81, 118
1, 345434, Note_off_c, 1, 79, 64
1, 345456, Note_on_c, 1, 78, 118
1, 345456, Note_on_c, 4, 66, 127
1, 345456, Note_on_c, 4, 54, 127
1, 345465, Note_off_c, 4, 52, 64
1, 345466, Note_off_c, 4, 64, 64
1, 345476, Note_off_c, 1, 81, 64
1, 345497, Note_on_c, 1, 79, 118
1, 345516, Note_off_c, 1, 78, 64
1, 345539, Note_on_c, 2, 76, 118
1, 345540, Note_on_c, 4, 55, 127
1, 345540, Note_on_c, 2, 67, 127
1, 345548, Note_off_c, 4, 54, 64
1, 345548, Note_off_c, 4, 66, 64
1, 345557, Note_off_c, 1, 79, 64
1, 345580, Note_on_c, 1, 78, 118
1, 345600, Note_off_c, 2, 76, 64
1, 345622, Note_on_c, 2, 74, 118
1, 345622, Note_on_c, 2, 68, 120
1, 345623, Note_on_c, 4, 56, 127
1, 345632, Note_off_c, 4, 55, 64
1, 345633, Note_off_c, 2, 67, 64
1, 345643, Note_off_c, 1, 78, 64
1, 345665, Note_on_c, 2, 76, 118
1, 345685, Note_off_c, 2, 74, 64
1, 345706, Note_on_c, 2, 73, 118
1, 345707, Note_on_c, 4, 57, 127
1, 345707, Note_on_c, 2, 69, 118
1, 345716, Note_off_c, 4, 56, 64
1, 345716, Note_off_c, 2, 68, 64
1, 345726, Note_off_c, 2, 76, 64
1, 345745, Note_on_c, 2, 74, 113
1, 345754, Note_off_c, 2, 73, 64
1, 345786, Note_on_c, 2, 76, 113
1, 345793, Note_off_c, 2, 74, 64
1, 345827, Note_on_c, 1, 78, 118
1, 345834, Note_off_c, 2, 76, 64
1, 345868, Note_on_c, 1, 79, 118
1, 345875, Note_off_c, 1, 78, 64
1, 345909, Note_on_c, 1, 78, 118
1, 345914, Note_off_c, 1, 79, 64
1, 345949, Note_on_c, 1, 79, 118
1, 345957, Note_off_c, 1, 78, 64
1, 345991, Note_on_c, 2, 76, 113
1, 346013, Note_off_c, 1, 79, 64
1, 346013, Note_off_c, 2, 69, 64
1, 346033, Note_on_c, 4, 66, 127
1, 346033, Note_on_c, 2, 69, 118
1, 346033, Note_on_c, 1, 78, 118
1, 346034, Note_off_c, 4, 57, 64
1, 346034, Note_on_c, 4, 62, 127
1, 346054, Note_off_c, 2, 76, 64
1, 346075, Note_on_c, 2, 74, 113
1, 346096, Note_off_c, 1, 78, 64
1, 346117, Note_on_c, 1, 79, 118
1, 346138, Note_off_c, 2, 74, 64
1, 346160, Note_on_c, 2, 76, 113
1, 346180, Note_off_c, 1, 79, 64
1, 346202, Note_on_c, 1, 81, 118
1, 346223, Note_off_c, 2, 76, 64
1, 346244, Note_on_c, 1, 80, 118
1, 346251, Note_off_c, 1, 81, 64
1, 346286, Note_on_c, 1, 81, 118
1, 346292, Note_off_c, 1, 80, 64
1, 346329, Note_on_c, 1, 78, 118
1, 346335, Note_off_c, 1, 81, 64
1, 346368, Note_off_c, 4, 66, 64
1, 346368, Note_off_c, 4, 62, 64
1, 346369, Note_off_c, 2, 69, 64
1, 346369, Note_on_c, 4, 64, 126
1, 346369, Note_on_c, 1, 79, 118
1, 346370, Note_on_c, 4, 55, 127
1, 346370, Note_on_c, 4, 59, 127
1, 346375, Note_off_c, 1, 78, 64
1, 346409, Note_on_c, 2, 76, 113
1, 346428, Note_off_c, 1, 79, 64
1, 346450, Note_on_c, 1, 81, 118
1, 346469, Note_off_c, 2, 76, 64
1, 346490, Note_on_c, 1, 78, 118
1, 346509, Note_off_c, 1, 81, 64
1, 346530, Note_on_c, 1, 83, 118
1, 346549, Note_off_c, 1, 78, 64
1, 346571, Note_on_c, 1, 82, 118
1, 346576, Note_off_c, 1, 83, 64
1, 346610, Note_on_c, 1, 83, 118
1, 346618, Note_off_c, 1, 82, 64
1, 346651, Note_on_c, 1, 79, 118
1, 346657, Note_off_c, 1, 83, 64
1, 346692, Note_off_c, 4, 64, 64
1, 346692, Note_off_c, 4, 59, 64
1, 346692, Note_off_c, 4, 55, 64
1, 346693, Note_on_c, 4, 57, 127
1, 346693, Note_on_c, 4, 62, 127
1, 346693, Note_on_c, 1, 78, 118
1, 346698, Note_off_c, 1, 79, 64
1, 346854, Note_off_c, 1, 78, 64
1, 346854, Note_on_c, 2, 76, 118
1, 346855, Note_on_c, 4, 61, 127
1, 346859, Note_off_c, 4, 62, 64
1, 347016, Note_off_c, 2, 76, 64
1, 347016, Note_on_c, 2, 74, 113
1, 347066, Note_on_c, 2, 73, 113
1, 347090, Note_off_c, 2, 74, 64
1, 347111, Note_on_c, 2, 76, 113
1, 347132, Note_off_c, 2, 73, 64
1, 347153, Note_on_c, 2, 74, 113
1, 347172, Note_off_c, 2, 76, 64
1, 347194, Note_on_c, 1, 78, 110
1, 347215, Note_off_c, 2, 74, 64
1, 347238, Note_on_c, 2, 76, 113
1, 347259, Note_off_c, 1, 78, 64
1, 347278, Note_on_c, 1, 79, 110
1, 347299, Note_off_c, 2, 76, 64
1, 347322, Note_on_c, 1, 78, 110
1, 347341, Note_off_c, 1, 79, 64
1, 347363, Note_off_c, 4, 61, 64
1, 347363, Note_off_c, 4, 57, 64
1, 347364, Note_on_c, 1, 81, 110
1, 347364, Note_on_c, 4, 66, 127
1, 347364, Note_on_c, 4, 54, 127
1, 347386, Note_off_c, 1, 78, 64
1, 347407, Note_on_c, 1, 83, 110
1, 347428, Note_off_c, 1, 81, 64
1, 347449, Note_on_c, 4, 61, 127
1, 347449, Note_on_c, 1, 79, 115
1, 347450, Note_on_c, 4, 49, 127
1, 347459, Note_off_c, 4, 54, 64
1, 347460, Note_off_c, 4, 66, 64
1, 347470, Note_off_c, 1, 83, 64
1, 347491, Note_on_c, 1, 81, 115
1, 347512, Note_off_c, 1, 79, 64
1, 347533, Note_on_c, 1, 78, 115
1, 347534, Note_on_c, 4, 62, 127
1, 347534, Note_on_c, 4, 50, 127
1, 347542, Note_off_c, 4, 49, 64
1, 347543, Note_off_c, 4, 61, 64
1, 347555, Note_off_c, 1, 81, 64
1, 347574, Note_on_c, 1, 79, 115
1, 347595, Note_off_c, 1, 78, 64
1, 347616, Note_on_c, 2, 76, 118
1, 347616, Note_on_c, 4, 58, 127
1, 347617, Note_on_c, 4, 46, 127
1, 347627, Note_off_c, 4, 50, 64
1, 347627, Note_off_c, 4, 62, 64
1, 347637, Note_off_c, 1, 79, 64
1, 347656, Note_on_c, 1, 78, 115
1, 347677, Note_off_c, 2, 76, 64
1, 347699, Note_on_c, 2, 74, 118
1, 347700, Note_on_c, 4, 47, 127
1, 347700, Note_on_c, 4, 59, 127
1, 347708, Note_off_c, 4, 46, 64
1, 347709, Note_off_c, 4, 58, 64
1, 347719, Note_off_c, 1, 78, 64
1, 347740, Note_on_c, 2, 76, 118
1, 347759, Note_off_c, 2, 74, 64
1, 347780, Note_on_c, 2, 73, 118
1, 347781, Note_on_c, 4, 61, 127
1, 347781, Note_on_c, 4, 49, 127
1, 347789, Note_off_c, 4, 59, 64
1, 347789, Note_off_c, 4, 47, 64
1, 347801, Note_off_c, 2, 76, 64
1, 347822, Note_on_c, 2, 74, 118
1, 347842, Note_off_c, 2, 73, 64
1, 347865, Note_on_c, 2, 71, 117
1, 347865, Note_on_c, 4, 62, 127
1, 347866, Note_on_c, 4, 50, 127
1, 347873, Note_off_c, 4, 49, 64
1, 347874, Note_off_c, 4, 61, 64
1, 347884, Note_off_c, 2, 74, 64
1, 347904, Note_on_c, 2, 73, 118
1, 347923, Note_off_c, 2, 71, 64
1, 347944, Note_on_c, 2, 69, 118
1, 347945, Note_on_c, 4, 51, 127
1, 347945, Note_on_c, 4, 63, 127
1, 347955, Note_off_c, 4, 50, 64
1, 347955, Note_off_c, 4, 62, 64
1, 347967, Note_off_c, 2, 73, 64
1, 347987, Note_on_c, 2, 71, 117
1, 348008, Note_off_c, 2, 69, 64
1, 348029, Note_on_c, 4, 64, 126
1, 348029, Note_on_c, 2, 68, 120
1, 348030, Note_on_c, 4, 52, 127
1, 348039, Note_off_c, 4, 51, 64
1, 348040, Note_off_c, 4, 63, 64
1, 348052, Note_off_c, 2, 71, 64
1, 348073, Note_on_c, 1, 80, 115
1, 348117, Note_on_c, 1, 83, 115
1, 348123, Note_off_c, 1, 80, 64
1, 348123, Note_off_c, 2, 68, 64
1, 348160, Note_on_c, 1, 81, 115
1, 348166, Note_off_c, 1, 83, 64
1, 348199, Note_on_c, 1, 80, 115
1, 348206, Note_off_c, 1, 81, 64
1, 348239, Note_on_c, 1, 78, 115
1, 348247, Note_off_c, 1, 80, 64
1, 348280, Note_on_c, 2, 76, 118
1, 348287, Note_off_c, 1, 78, 64
1, 348322, Note_on_c, 2, 75, 118
1, 348327, Note_off_c, 2, 76, 64
1, 348336, Note_off_c, 4, 64, 64
1, 348363, Note_off_c, 4, 52, 64
1, 348363, Note_on_c, 2, 74, 118
1, 348364, Note_on_c, 4, 59, 127
1, 348364, Note_on_c, 4, 64, 126
1, 348365, Note_on_c, 4, 56, 127
1, 348371, Note_off_c, 2, 75, 64
1, 348405, Note_on_c, 1, 83, 115
1, 348411, Note_off_c, 2, 74, 64
1, 348447, Note_on_c, 1, 86, 115
1, 348454, Note_off_c, 1, 83, 64
1, 348489, Note_on_c, 1, 85, 115
1, 348495, Note_off_c, 1, 86, 64
1, 348528, Note_on_c, 1, 83, 115
1, 348534, Note_off_c, 1, 85, 64
1, 348568, Note_on_c, 1, 81, 115
1, 348575, Note_off_c, 1, 83, 64
1, 348609, Note_on_c, 1, 80, 115
1, 348615, Note_off_c, 1, 81, 64
1, 348651, Note_on_c, 1, 78, 115
1, 348657, Note_off_c, 1, 80, 64
1, 348694, Note_off_c, 4, 59, 64
1, 348694, Note_off_c, 4, 56, 64
1, 348695, Note_off_c, 4, 64, 64
1, 348695, Note_on_c, 2, 76, 118
1, 348696, Note_on_c, 4, 57, 127
1, 348696, Note_on_c, 4, 61, 127
1, 348700, Note_off_c, 1, 78, 64
1, 348737, Note_on_c, 1, 78, 115
1, 348744, Note_off_c, 2, 76, 64
1, 348779, Note_on_c, 1, 80, 115
1, 348785, Note_off_c, 1, 78, 64
1, 348819, Note_on_c, 1, 81, 115
1, 348825, Note_off_c, 1, 80, 64
1, 348860, Note_on_c, 4, 59, 127
1, 348860, Note_on_c, 1, 80, 115
1, 348861, Note_on_c, 4, 50, 127
1, 348864, Note_off_c, 4, 61, 64
1, 348864, Note_off_c, 4, 57, 64
1, 348866, Note_off_c, 1, 81, 64
1, 348899, Note_on_c, 1, 78, 115
1, 348907, Note_off_c, 1, 80, 64
1, 348939, Note_on_c, 2, 76, 118
1, 348947, Note_off_c, 1, 78, 64
1, 348982, Note_on_c, 2, 74, 118
1, 348987, Note_off_c, 2, 76, 64
1, 349022, Note_on_c, 2, 73, 118
1, 349022, Note_on_c, 4, 57, 127
1, 349023, Note_on_c, 4, 52, 127
1, 349025, Note_off_c, 4, 50, 64
1, 349026, Note_off_c, 4, 59, 64
1, 349029, Note_off_c, 2, 74, 64
1, 349063, Note_on_c, 2, 74, 118
1, 349071, Note_off_c, 2, 73, 64
1, 349104, Note_on_c, 2, 76, 118
1, 349112, Note_off_c, 2, 74, 64
1, 349147, Note_on_c, 1, 78, 115
1, 349152, Note_off_c, 2, 76, 64
1, 349181, Note_off_c, 4, 52, 64
1, 349187, Note_on_c, 2, 76, 118
1, 349188, Note_on_c, 4, 52, 127
1, 349188, Note_on_c, 4, 56, 127
1, 349189, Note_off_c, 4, 57, 64
1, 349194, Note_off_c, 1, 78, 64
1, 349226, Note_on_c, 2, 74, 118
1, 349234, Note_off_c, 2, 76, 64
1, 349267, Note_on_c, 2, 73, 118
1, 349274, Note_off_c, 2, 74, 64
1, 349309, Note_on_c, 2, 71, 117
1, 349317, Note_off_c, 2, 73, 64
1, 349351, Note_off_c, 4, 52, 64
1, 349352, Note_on_c, 2, 69, 118
1, 349352, Note_on_c, 4, 45, 127
1, 349354, Note_off_c, 4, 56, 64
1, 349358, Note_off_c, 2, 71, 64
1, 349402, Note_on_c, 4, 57, 127
1, 349408, Note_off_c, 4, 45, 64
1, 349452, Note_on_c, 4, 52, 127
1, 349462, Note_off_c, 4, 57, 64
1, 349508, Note_on_c, 4, 49, 127
1, 349517, Note_off_c, 4, 52, 64
1, 349563, Note_on_c, 4, 45, 127
1, 349569, Note_off_c, 4, 49, 64
1, 349688, Note_off_c, 2, 69, 64
1, 349732, Note_on_c, 2, 74, 113
1, 349786, Note_on_c, 2, 73, 113
1, 349805, Note_off_c, 2, 74, 64
1, 349826, Note_on_c, 2, 76, 113
1, 349846, Note_off_c, 2, 73, 64
1, 349869, Note_on_c, 2, 74, 113
1, 349888, Note_off_c, 2, 76, 64
1, 349908, Note_on_c, 1, 78, 110
1, 349929, Note_off_c, 2, 74, 64
1, 349950, Note_on_c, 2, 76, 113
1, 349971, Note_off_c, 1, 78, 64
1, 349994, Note_on_c, 1, 79, 110
1, 350016, Note_off_c, 2, 76, 64
1, 350039, Note_on_c, 1, 78, 110
1, 350058, Note_off_c, 1, 79, 64
1, 350065, Note_off_c, 4, 45, 64
1, 350079, Note_on_c, 4, 66, 124
1, 350079, Note_on_c, 1, 81, 110
1, 350080, Note_on_c, 4, 54, 127
1, 350101, Note_off_c, 1, 78, 64
1, 350124, Note_on_c, 1, 83, 110
1, 350132, Note_off_c, 1, 81, 64
1, 350168, Note_on_c, 1, 79, 110
1, 350169, Note_on_c, 4, 61, 127
1, 350169, Note_on_c, 4, 49, 127
1, 350177, Note_off_c, 4, 66, 64
1, 350177, Note_off_c, 4, 54, 64
1, 350189, Note_off_c, 1, 83, 64
1, 350210, Note_on_c, 1, 81, 110
1, 350232, Note_off_c, 1, 79, 64
1, 350255, Note_on_c, 1, 78, 110
1, 350255, Note_on_c, 4, 62, 127
1, 350256, Note_on_c, 4, 50, 127
1, 350263, Note_off_c, 4, 49, 64
1, 350264, Note_off_c, 4, 61, 64
1, 350274, Note_off_c, 1, 81, 64
1, 350298, Note_on_c, 1, 79, 110
1, 350319, Note_off_c, 1, 78, 64
1, 350340, Note_on_c, 4, 58, 127
1, 350340, Note_on_c, 2, 76, 113
1, 350341, Note_on_c, 4, 46, 127
1, 350349, Note_off_c, 4, 50, 64
1, 350349, Note_off_c, 4, 62, 64
1, 350361, Note_off_c, 1, 79, 64
1, 350384, Note_on_c, 1, 78, 115
1, 350403, Note_off_c, 2, 76, 64
1, 350424, Note_on_c, 2, 74, 118
1, 350425, Note_on_c, 4, 47, 127
1, 350425, Note_on_c, 4, 59, 127
1, 350435, Note_off_c, 4, 46, 64
1, 350436, Note_off_c, 4, 58, 64
1, 350446, Note_off_c, 1, 78, 64
1, 350466, Note_on_c, 2, 76, 118
1, 350472, Note_off_c, 2, 74, 64
1, 350508, Note_on_c, 2, 74, 118
1, 350516, Note_off_c, 2, 76, 64
1, 350548, Note_on_c, 2, 73, 118
1, 350554, Note_off_c, 2, 74, 64
1, 350589, Note_on_c, 2, 74, 118
1, 350594, Note_off_c, 2, 73, 64
1, 350631, Note_on_c, 2, 76, 118
1, 350639, Note_off_c, 2, 74, 64
1, 350674, Note_on_c, 1, 78, 115
1, 350681, Note_off_c, 2, 76, 64
1, 350715, Note_off_c, 4, 47, 64
1, 350716, Note_off_c, 4, 59, 64
1, 350716, Note_on_c, 2, 74, 118
1, 350736, Note_off_c, 1, 78, 64
1, 350755, Note_on_c, 1, 79, 115
1, 350755, Note_on_c, 4, 64, 126
1, 350756, Note_on_c, 4, 52, 127
1, 350779, Note_off_c, 2, 74, 64
1, 350800, Note_on_c, 1, 81, 115
1, 350808, Note_off_c, 1, 79, 64
1, 350844, Note_on_c, 1, 78, 115
1, 350845, Note_on_c, 4, 54, 127
1, 350845, Note_on_c, 4, 66, 127
1, 350853, Note_off_c, 4, 52, 64
1, 350853, Note_off_c, 4, 64, 64
1, 350865, Note_off_c, 1, 81, 64
1, 350887, Note_on_c, 1, 79, 115
1, 350908, Note_off_c, 1, 78, 64
1, 350930, Note_on_c, 2, 76, 118
1, 350931, Note_on_c, 2, 67, 127
1, 350931, Note_on_c, 4, 55, 127
1, 350939, Note_off_c, 4, 54, 64
1, 350940, Note_off_c, 4, 66, 64
1, 350952, Note_off_c, 1, 79, 64
1, 350973, Note_on_c, 1, 78, 115
1, 350994, Note_off_c, 2, 76, 64
1, 351015, Note_on_c, 2, 74, 118
1, 351016, Note_on_c, 2, 68, 120
1, 351016, Note_on_c, 4, 56, 127
1, 351025, Note_off_c, 4, 55, 64
1, 351026, Note_off_c, 2, 67, 64
1, 351036, Note_off_c, 1, 78, 64
1, 351057, Note_on_c, 2, 76, 118
1, 351077, Note_off_c, 2, 74, 64
1, 351098, Note_on_c, 2, 69, 118
1, 351098, Note_on_c, 2, 73, 118
1, 351099, Note_on_c, 4, 57, 127
1, 351105, Note_off_c, 2, 76, 64
1, 351106, Note_off_c, 4, 56, 64
1, 351107, Note_off_c, 2, 68, 64
1, 351138, Note_on_c, 2, 74, 118
1, 351146, Note_off_c, 2, 73, 64
1, 351180, Note_on_c, 2, 76, 113
1, 351187, Note_off_c, 2, 74, 64
1, 351222, Note_on_c, 1, 78, 110
1, 351229, Note_off_c, 2, 76, 64
1, 351266, Note_on_c, 1, 79, 110
1, 351274, Note_off_c, 1, 78, 64
1, 351308, Note_on_c, 1, 78, 110
1, 351316, Note_off_c, 1, 79, 64
1, 351348, Note_on_c, 1, 79, 110
1, 351356, Note_off_c, 1, 78, 64
1, 351389, Note_on_c, 2, 76, 113
1, 351396, Note_off_c, 4, 57, 64
1, 351397, Note_off_c, 2, 69, 64
1, 351411, Note_off_c, 1, 79, 64
1, 351432, Note_on_c, 2, 69, 118
1, 351432, Note_on_c, 1, 78, 110
1, 351433, Note_on_c, 4, 62, 127
1, 351433, Note_on_c, 4, 66, 127
1, 351453, Note_off_c, 2, 76, 64
1, 351474, Note_on_c, 2, 74, 118
1, 351495, Note_off_c, 1, 78, 64
1, 351516, Note_on_c, 1, 79, 110
1, 351538, Note_off_c, 2, 74, 64
1, 351561, Note_on_c, 2, 76, 113
1, 351580, Note_off_c, 1, 79, 64
1, 351601, Note_on_c, 1, 81, 110
1, 351624, Note_off_c, 2, 76, 64
1, 351645, Note_on_c, 1, 80, 110
1, 351651, Note_off_c, 1, 81, 64
1, 351685, Note_on_c, 1, 81, 110
1, 351693, Note_off_c, 1, 80, 64
1, 351730, Note_on_c, 1, 78, 110
1, 351735, Note_off_c, 1, 81, 64
1, 351770, Note_off_c, 4, 66, 64
1, 351770, Note_off_c, 4, 62, 64
1, 351771, Note_off_c, 2, 69, 64
1, 351771, Note_on_c, 1, 79, 110
1, 351772, Note_on_c, 4, 59, 127
1, 351772, Note_on_c, 4, 64, 126
1, 351773, Note_on_c, 4, 55, 127
1, 351777, Note_off_c, 1, 78, 64
1, 351811, Note_on_c, 2, 76, 113
1, 351832, Note_off_c, 1, 79, 64
1, 351853, Note_on_c, 1, 81, 110
1, 351875, Note_off_c, 2, 76, 64
1, 351896, Note_on_c, 1, 78, 110
1, 351917, Note_off_c, 1, 81, 64
1, 351938, Note_on_c, 1, 83, 110
1, 351957, Note_off_c, 1, 78, 64
1, 351980, Note_on_c, 1, 82, 110
1, 351986, Note_off_c, 1, 83, 64
1, 352019, Note_on_c, 1, 83, 110
1, 352025, Note_off_c, 1, 82, 64
1, 352061, Note_on_c, 1, 79, 110
1, 352067, Note_off_c, 1, 83, 64
1, 352099, Note_off_c, 4, 55, 64
1, 352100, Note_off_c, 4, 64, 64
1, 352100, Note_off_c, 4, 59, 64
1, 352101, Note_on_c, 1, 78, 110
1, 352101, Note_on_c, 4, 62, 127
1, 352102, Note_on_c, 4, 57, 127
1, 352106, Note_off_c, 1, 79, 64
1, 352260, Note_off_c, 1, 78, 64
1, 352262, Note_on_c, 4, 61, 127
1, 352262, Note_on_c, 2, 76, 118
1, 352264, Note_off_c, 4, 62, 64
1, 352399, Note_off_c, 2, 76, 64
1, 352426, Note_on_c, 2, 74, 113
1, 352472, Note_on_c, 2, 73, 113
1, 352493, Note_off_c, 2, 74, 64
1, 352514, Note_on_c, 2, 76, 113
1, 352533, Note_off_c, 2, 73, 64
1, 352556, Note_on_c, 2, 74, 113
1, 352575, Note_off_c, 2, 76, 64
1, 352596, Note_on_c, 1, 78, 110
1, 352618, Note_off_c, 2, 74, 64
1, 352641, Note_on_c, 2, 76, 113
1, 352661, Note_off_c, 1, 78, 64
1, 352682, Note_on_c, 1, 79, 110
1, 352703, Note_off_c, 2, 76, 64
1, 352724, Note_on_c, 1, 78, 110
1, 352745, Note_off_c, 1, 79, 64
1, 352753, Note_off_c, 4, 61, 64
1, 352766, Note_on_c, 1, 81, 110
1, 352767, Note_on_c, 4, 54, 127
1, 352767, Note_on_c, 4, 66, 127
1, 352775, Note_off_c, 4, 57, 64
1, 352788, Note_off_c, 1, 78, 64
1, 352812, Note_on_c, 1, 83, 110
1, 352833, Note_off_c, 1, 81, 64
1, 352856, Note_on_c, 1, 79, 110
1, 352856, Note_on_c, 4, 61, 127
1, 352857, Note_on_c, 4, 49, 127
1, 352864, Note_off_c, 4, 54, 64
1, 352865, Note_off_c, 4, 66, 64
1, 352877, Note_off_c, 1, 83, 64
1, 352896, Note_on_c, 1, 81, 110
1, 352917, Note_off_c, 1, 79, 64
1, 352940, Note_on_c, 1, 78, 110
1, 352941, Note_on_c, 4, 62, 127
1, 352941, Note_on_c, 4, 50, 127
1, 352949, Note_off_c, 4, 49, 64
1, 352949, Note_off_c, 4, 61, 64
1, 352959, Note_off_c, 1, 81, 64
1, 352980, Note_on_c, 1, 79, 110
1, 353000, Note_off_c, 1, 78, 64
1, 353022, Note_on_c, 4, 58, 127
1, 353022, Note_on_c, 2, 76, 113
1, 353023, Note_on_c, 4, 46, 127
1, 353030, Note_off_c, 4, 50, 64
1, 353031, Note_off_c, 4, 62, 64
1, 353043, Note_off_c, 1, 79, 64
1, 353064, Note_on_c, 1, 78, 110
1, 353083, Note_off_c, 2, 76, 64
1, 353105, Note_on_c, 2, 74, 113
1, 353105, Note_on_c, 4, 59, 127
1, 353106, Note_on_c, 4, 47, 127
1, 353114, Note_off_c, 4, 58, 64
1, 353114, Note_off_c, 4, 46, 64
1, 353124, Note_off_c, 1, 78, 64
1, 353144, Note_on_c, 2, 76, 113
1, 353165, Note_off_c, 2, 74, 64
1, 353186, Note_on_c, 2, 73, 113
1, 353187, Note_on_c, 4, 61, 127
1, 353187, Note_on_c, 4, 49, 127
1, 353195, Note_off_c, 4, 47, 64
1, 353195, Note_off_c, 4, 59, 64
1, 353207, Note_off_c, 2, 76, 64
1, 353226, Note_on_c, 2, 74, 113
1, 353247, Note_off_c, 2, 73, 64
1, 353269, Note_on_c, 4, 62, 127
1, 353269, Note_on_c, 2, 71, 117
1, 353270, Note_on_c, 4, 50, 127
1, 353277, Note_off_c, 4, 49, 64
1, 353278, Note_off_c, 4, 61, 64
1, 353290, Note_off_c, 2, 74, 64
1, 353310, Note_on_c, 2, 73, 118
1, 353329, Note_off_c, 2, 71, 64
1, 353351, Note_on_c, 2, 69, 118
1, 353351, Note_on_c, 4, 63, 127
1, 353351, Note_on_c, 4, 51, 127
1, 353359, Note_off_c, 4, 62, 64
1, 353359, Note_off_c, 4, 50, 64
1, 353370, Note_off_c, 2, 73, 64
1, 353392, Note_on_c, 2, 71, 117
1, 353413, Note_off_c, 2, 69, 64
1, 353434, Note_on_c, 2, 68, 120
1, 353435, Note_on_c, 4, 52, 127
1, 353435, Note_on_c, 4, 64, 126
1, 353441, Note_off_c, 4, 51, 64
1, 353442, Note_off_c, 4, 63, 64
1, 353454, Note_off_c, 2, 71, 64
1, 353475, Note_on_c, 1, 80, 115
1, 353517, Note_off_c, 2, 68, 64
1, 353517, Note_on_c, 1, 83, 115
1, 353523, Note_off_c, 1, 80, 64
1, 353560, Note_on_c, 1, 81, 115
1, 353566, Note_off_c, 1, 83, 64
1, 353598, Note_on_c, 1, 80, 115
1, 353606, Note_off_c, 1, 81, 64
1, 353639, Note_on_c, 1, 78, 115
1, 353644, Note_off_c, 1, 80, 64
1, 353679, Note_on_c, 2, 76, 118
1, 353685, Note_off_c, 1, 78, 64
1, 353719, Note_on_c, 2, 75, 118
1, 353727, Note_off_c, 2, 76, 64
1, 353733, Note_off_c, 4, 64, 64
1, 353760, Note_off_c, 4, 52, 64
1, 353760, Note_on_c, 4, 64, 126
1, 353760, Note_on_c, 2, 74, 118
1, 353761, Note_on_c, 4, 56, 127
1, 353761, Note_on_c, 4, 59, 127
1, 353767, Note_off_c, 2, 75, 64
1, 353800, Note_on_c, 1, 83, 115
1, 353808, Note_off_c, 2, 74, 64
1, 353840, Note_on_c, 1, 86, 115
1, 353848, Note_off_c, 1, 83, 64
1, 353882, Note_on_c, 1, 85, 115
1, 353888, Note_off_c, 1, 86, 64
1, 353921, Note_on_c, 1, 83, 115
1, 353928, Note_off_c, 1, 85, 64
1, 353960, Note_on_c, 1, 81, 115
1, 353968, Note_off_c, 1, 83, 64
1, 354002, Note_on_c, 1, 80, 115
1, 354009, Note_off_c, 1, 81, 64
1, 354042, Note_on_c, 1, 78, 115
1, 354049, Note_off_c, 1, 80, 64
1, 354082, Note_off_c, 4, 56, 64
1, 354083, Note_off_c, 4, 64, 64
1, 354083, Note_off_c, 4, 59, 64
1, 354084, Note_on_c, 4, 57, 127
1, 354084, Note_on_c, 4, 61, 127
1, 354084, Note_on_c, 2, 76, 118
1, 354091, Note_off_c, 1, 78, 64
1, 354123, Note_on_c, 1, 78, 115
1, 354131, Note_off_c, 2, 76, 64
1, 354164, Note_on_c, 1, 80, 115
1, 354171, Note_off_c, 1, 78, 64
1, 354206, Note_on_c, 1, 81, 115
1, 354212, Note_off_c, 1, 80, 64
1, 354246, Note_on_c, 1, 80, 115
1, 354247, Note_on_c, 4, 59, 127
1, 354247, Note_on_c, 4, 50, 127
1, 354248, Note_off_c, 4, 61, 64
1, 354248, Note_off_c, 4, 57, 64
1, 354252, Note_off_c, 1, 81, 64
1, 354285, Note_on_c, 1, 78, 115
1, 354293, Note_off_c, 1, 80, 64
1, 354324, Note_on_c, 2, 76, 118
1, 354332, Note_off_c, 1, 78, 64
1, 354365, Note_on_c, 2, 74, 118
1, 354371, Note_off_c, 2, 76, 64
1, 354406, Note_on_c, 4, 57, 127
1, 354406, Note_on_c, 2, 73, 118
1, 354407, Note_off_c, 4, 50, 64
1, 354407, Note_on_c, 4, 52, 127
1, 354408, Note_off_c, 4, 59, 64
1, 354411, Note_off_c, 2, 74, 64
1, 354446, Note_on_c, 2, 74, 118
1, 354452, Note_off_c, 2, 73, 64
1, 354486, Note_on_c, 2, 76, 118
1, 354494, Note_off_c, 2, 74, 64
1, 354527, Note_on_c, 1, 78, 115
1, 354532, Note_off_c, 2, 76, 64
1, 354561, Note_off_c, 4, 52, 64
1, 354569, Note_on_c, 4, 56, 127
1, 354569, Note_on_c, 2, 76, 118
1, 354570, Note_off_c, 4, 57, 64
1, 354570, Note_on_c, 4, 52, 127
1, 354575, Note_off_c, 1, 78, 64
1, 354607, Note_on_c, 2, 74, 118
1, 354615, Note_off_c, 2, 76, 64
1, 354648, Note_on_c, 2, 73, 118
1, 354655, Note_off_c, 2, 74, 64
1, 354688, Note_on_c, 2, 71, 117
1, 354695, Note_off_c, 2, 73, 64
1, 354729, Note_off_c, 4, 52, 64
1, 354730, Note_on_c, 2, 69, 118
1, 354730, Note_on_c, 4, 45, 127
1, 354732, Note_off_c, 4, 56, 64
1, 354736, Note_off_c, 2, 71, 64
1, 354776, Note_on_c, 4, 57, 127
1, 354786, Note_off_c, 4, 45, 64
1, 354826, Note_on_c, 4, 52, 127
1, 354834, Note_off_c, 4, 57, 64
1, 354878, Note_on_c, 4, 49, 127
1, 354886, Note_off_c, 4, 52, 64
1, 354926, Note_off_c, 2, 69, 64
1, 354926, Note_on_c, 4, 45, 127
1, 354933, Note_off_c, 4, 49, 64
1, 355088, Note_on_c, 1, 81, 115
1, 355132, Note_on_c, 1, 83, 115
1, 355155, Note_off_c, 1, 81, 64
1, 355180, Note_on_c, 1, 84, 115
1, 355203, Note_off_c, 1, 83, 64
1, 355226, Note_on_c, 1, 83, 115
1, 355246, Note_off_c, 1, 84, 64
1, 355265, Note_on_c, 1, 81, 115
1, 355286, Note_off_c, 1, 83, 64
1, 355307, Note_on_c, 1, 79, 115
1, 355330, Note_off_c, 1, 81, 64
1, 355351, Note_on_c, 1, 78, 115
1, 355373, Note_off_c, 1, 79, 64
1, 355388, Note_off_c, 4, 45, 64
1, 355395, Note_on_c, 2, 76, 113
1, 355418, Note_off_c, 1, 78, 64
1, 355440, Note_on_c, 2, 75, 113
1, 355440, Note_on_c, 2, 72, 118
1, 355440, Note_on_c, 2, 69, 118
1, 355460, Note_off_c, 2, 76, 64
1, 355481, Note_on_c, 2, 76, 113
1, 355502, Note_off_c, 2, 75, 64
1, 355523, Note_on_c, 1, 78, 110
1, 355547, Note_off_c, 2, 76, 64
1, 355572, Note_on_c, 2, 75, 113
1, 355591, Note_off_c, 1, 78, 64
1, 355612, Note_on_c, 2, 71, 117
1, 355612, Note_on_c, 2, 76, 113
1, 355613, Note_off_c, 2, 69, 64
1, 355613, Note_on_c, 2, 68, 120
1, 355614, Note_off_c, 2, 72, 64
1, 355632, Note_off_c, 2, 75, 64
1, 355655, Note_on_c, 1, 80, 110
1, 355676, Note_off_c, 2, 76, 64
1, 355697, Note_on_c, 1, 83, 110
1, 355720, Note_off_c, 1, 80, 64
1, 355745, Note_on_c, 2, 74, 113
1, 355766, Note_off_c, 1, 83, 64
1, 355788, Note_on_c, 2, 67, 127
1, 355788, Note_on_c, 2, 70, 118
1, 355788, Note_on_c, 2, 73, 113
1, 355790, Note_off_c, 2, 71, 64
1, 355790, Note_off_c, 2, 68, 64
1, 355809, Note_off_c, 2, 74, 64
1, 355830, Note_on_c, 2, 74, 113
1, 355851, Note_off_c, 2, 73, 64
1, 355872, Note_on_c, 2, 76, 113
1, 355895, Note_off_c, 2, 74, 64
1, 355916, Note_on_c, 2, 73, 113
1, 355935, Note_off_c, 2, 76, 64
1, 355958, Note_on_c, 2, 74, 113
1, 355959, Note_off_c, 2, 67, 64
1, 355959, Note_on_c, 2, 69, 118
1, 355959, Note_on_c, 4, 66, 127
1, 355960, Note_off_c, 2, 70, 64
1, 355980, Note_off_c, 2, 73, 64
1, 356001, Note_on_c, 1, 78, 110
1, 356023, Note_off_c, 2, 74, 64
1, 356044, Note_on_c, 1, 81, 110
1, 356067, Note_off_c, 1, 78, 64
1, 356088, Note_on_c, 2, 74, 113
1, 356109, Note_off_c, 1, 81, 64
1, 356132, Note_on_c, 1, 86, 111
1, 356133, Note_on_c, 4, 59, 127
1, 356133, Note_on_c, 2, 71, 117
1, 356135, Note_off_c, 4, 66, 64
1, 356135, Note_off_c, 2, 69, 64
1, 356155, Note_off_c, 2, 74, 64
1, 356176, Note_on_c, 1, 88, 113
1, 356199, Note_off_c, 1, 86, 64
1, 356222, Note_on_c, 1, 85, 111
1, 356223, Note_on_c, 2, 69, 118
1, 356223, Note_on_c, 4, 57, 127
1, 356231, Note_off_c, 4, 59, 64
1, 356232, Note_off_c, 2, 71, 64
1, 356244, Note_off_c, 1, 88, 64
1, 356265, Note_on_c, 1, 86, 111
1, 356288, Note_off_c, 1, 85, 64
1, 356309, Note_on_c, 2, 67, 127
1, 356309, Note_on_c, 1, 83, 111
1, 356310, Note_on_c, 4, 55, 127
1, 356318, Note_off_c, 4, 57, 64
1, 356318, Note_off_c, 2, 69, 64
1, 356331, Note_off_c, 1, 86, 64
1, 356350, Note_on_c, 1, 85, 111
1, 356374, Note_off_c, 1, 83, 64
1, 356397, Note_on_c, 1, 82, 115
1, 356398, Note_on_c, 4, 54, 127
1, 356398, Note_on_c, 4, 66, 127
1, 356406, Note_off_c, 2, 67, 64
1, 356406, Note_off_c, 4, 55, 64
1, 356418, Note_off_c, 1, 85, 64
1, 356439, Note_on_c, 1, 85, 111
1, 356462, Note_off_c, 1, 82, 64
1, 356485, Note_on_c, 1, 83, 111
1, 356486, Note_on_c, 2, 67, 127
1, 356486, Note_on_c, 4, 55, 127
1, 356494, Note_off_c, 4, 54, 64
1, 356495, Note_off_c, 4, 66, 64
1, 356505, Note_off_c, 1, 85, 64
1, 356528, Note_on_c, 1, 85, 111
1, 356549, Note_off_c, 1, 83, 64
1, 356572, Note_on_c, 4, 66, 127
1, 356572, Note_on_c, 1, 81, 115
1, 356573, Note_on_c, 4, 54, 127
1, 356580, Note_off_c, 4, 55, 64
1, 356581, Note_off_c, 2, 67, 64
1, 356593, Note_off_c, 1, 85, 64
1, 356614, Note_on_c, 1, 83, 111
1, 356637, Note_off_c, 1, 81, 64
1, 356660, Note_on_c, 1, 80, 115
1, 356661, Note_on_c, 4, 64, 126
1, 356661, Note_on_c, 4, 52, 127
1, 356669, Note_off_c, 4, 66, 64
1, 356669, Note_off_c, 4, 54, 64
1, 356681, Note_off_c, 1, 83, 64
1, 356702, Note_on_c, 1, 81, 115
1, 356724, Note_off_c, 1, 80, 64
1, 356747, Note_on_c, 1, 78, 115
1, 356747, Note_on_c, 4, 62, 127
1, 356748, Note_on_c, 4, 50, 127
1, 356755, Note_off_c, 4, 52, 64
1, 356756, Note_off_c, 4, 64, 64
1, 356768, Note_off_c, 1, 81, 64
1, 356789, Note_on_c, 1, 81, 115
1, 356812, Note_off_c, 1, 78, 64
1, 356833, Note_on_c, 1, 81, 115
1, 356833, Note_on_c, 2, 71, 117
1, 356834, Note_on_c, 4, 64, 126
1, 356841, Note_off_c, 4, 50, 64
1, 356842, Note_off_c, 4, 62, 64
1, 356852, Note_off_c, 1, 81, 64
1, 356873, Note_on_c, 1, 79, 115
1, 356894, Note_off_c, 1, 81, 64
1, 356916, Note_on_c, 1, 78, 110
1, 356937, Note_off_c, 1, 79, 64
1, 356958, Note_on_c, 1, 79, 115
1, 356979, Note_off_c, 1, 78, 64
1, 357002, Note_on_c, 2, 69, 118
1, 357002, Note_on_c, 2, 76, 113
1, 357003, Note_off_c, 4, 64, 64
1, 357003, Note_on_c, 4, 61, 127
1, 357004, Note_off_c, 2, 71, 64
1, 357021, Note_off_c, 1, 79, 64
1, 357044, Note_on_c, 1, 78, 110
1, 357067, Note_off_c, 2, 76, 64
1, 357089, Note_on_c, 1, 79, 115
1, 357108, Note_off_c, 1, 78, 64
1, 357130, Note_on_c, 1, 81, 115
1, 357151, Note_off_c, 1, 79, 64
1, 357174, Note_on_c, 1, 79, 115
1, 357174, Note_on_c, 4, 62, 127
1, 357177, Note_off_c, 4, 61, 64
1, 357194, Note_off_c, 1, 81, 64
1, 357216, Note_on_c, 1, 78, 110
1, 357237, Note_off_c, 1, 79, 64
1, 357258, Note_on_c, 2, 76, 113
1, 357279, Note_off_c, 1, 78, 64
1, 357302, Note_on_c, 1, 78, 110
1, 357324, Note_off_c, 2, 76, 64
1, 357345, Note_off_c, 2, 69, 64
1, 357345, Note_on_c, 2, 74, 113
1, 357346, Note_on_c, 4, 59, 127
1, 357346, Note_on_c, 2, 67, 127
1, 357347, Note_off_c, 4, 62, 64
1, 357366, Note_off_c, 1, 78, 64
1, 357387, Note_on_c, 2, 76, 113
1, 357408, Note_off_c, 2, 74, 64
1, 357427, Note_on_c, 1, 78, 110
1, 357448, Note_off_c, 2, 76, 64
1, 357469, Note_on_c, 1, 79, 115
1, 357489, Note_off_c, 1, 78, 64
1, 357510, Note_on_c, 1, 78, 115
1, 357511, Note_on_c, 4, 57, 127
1, 357511, Note_on_c, 4, 62, 127
1, 357512, Note_off_c, 2, 67, 64
1, 357512, Note_off_c, 4, 59, 64
1, 357528, Note_off_c, 1, 79, 64
1, 357770, Note_on_c, 1, 81, 115
1, 357780, Note_off_c, 1, 78, 64
1, 357811, Note_on_c, 4, 61, 127
1, 357811, Note_on_c, 2, 76, 118
1, 357817, Note_off_c, 1, 81, 64
1, 357823, Note_off_c, 4, 62, 64
1, 358097, Note_off_c, 4, 61, 64
1, 358103, Note_off_c, 2, 76, 64
1, 358137, Note_on_c, 2, 69, 113
1, 358143, Note_off_c, 4, 57, 64
1, 358187, Note_on_c, 2, 68, 115
1, 358208, Note_off_c, 2, 69, 64
1, 358227, Note_on_c, 2, 71, 112
1, 358248, Note_off_c, 2, 68, 64
1, 358270, Note_on_c, 2, 69, 113
1, 358291, Note_off_c, 2, 71, 64
1, 358312, Note_on_c, 2, 73, 113
1, 358332, Note_off_c, 2, 69, 64
1, 358354, Note_on_c, 2, 71, 112
1, 358374, Note_off_c, 2, 73, 64
1, 358395, Note_on_c, 2, 74, 113
1, 358416, Note_off_c, 2, 71, 64
1, 358440, Note_on_c, 2, 73, 113
1, 358459, Note_off_c, 2, 74, 64
1, 358480, Note_on_c, 2, 76, 113
1, 358501, Note_off_c, 2, 73, 64
1, 358524, Note_on_c, 2, 74, 113
1, 358541, Note_off_c, 2, 76, 64
1, 358562, Note_on_c, 1, 78, 105
1, 358583, Note_off_c, 2, 74, 64
1, 358605, Note_on_c, 2, 76, 108
1, 358624, Note_off_c, 1, 78, 64
1, 358645, Note_on_c, 1, 79, 105
1, 358666, Note_off_c, 2, 76, 64
1, 358687, Note_on_c, 1, 78, 105
1, 358710, Note_off_c, 1, 79, 64
1, 358733, Note_on_c, 1, 81, 105
1, 358734, Note_on_c, 4, 54, 127
1, 358734, Note_on_c, 4, 66, 123
1, 358755, Note_off_c, 1, 78, 64
1, 358776, Note_on_c, 1, 83, 114
1, 358783, Note_off_c, 1, 81, 64
1, 358818, Note_on_c, 1, 79, 110
1, 358818, Note_on_c, 4, 61, 127
1, 358819, Note_on_c, 4, 49, 127
1, 358828, Note_off_c, 4, 66, 64
1, 358828, Note_off_c, 4, 54, 64
1, 358841, Note_off_c, 1, 83, 64
1, 358862, Note_on_c, 1, 81, 114
1, 358882, Note_off_c, 1, 79, 64
1, 358904, Note_on_c, 1, 78, 110
1, 358905, Note_on_c, 4, 62, 127
1, 358905, Note_on_c, 4, 50, 127
1, 358913, Note_off_c, 4, 49, 64
1, 358913, Note_off_c, 4, 61, 64
1, 358923, Note_off_c, 1, 81, 64
1, 358946, Note_on_c, 1, 79, 110
1, 358966, Note_off_c, 1, 78, 64
1, 358987, Note_on_c, 2, 76, 113
1, 358988, Note_on_c, 4, 46, 127
1, 358988, Note_on_c, 4, 58, 127
1, 358996, Note_off_c, 4, 50, 64
1, 358997, Note_off_c, 4, 62, 64
1, 359009, Note_off_c, 1, 79, 64
1, 359030, Note_on_c, 1, 78, 110
1, 359051, Note_off_c, 2, 76, 64
1, 359074, Note_on_c, 2, 74, 118
1, 359075, Note_on_c, 4, 47, 127
1, 359075, Note_on_c, 4, 59, 127
1, 359083, Note_off_c, 4, 58, 64
1, 359083, Note_off_c, 4, 46, 64
1, 359095, Note_off_c, 1, 78, 64
1, 359114, Note_on_c, 2, 76, 113
1, 359122, Note_off_c, 2, 74, 64
1, 359159, Note_on_c, 2, 74, 118
1, 359166, Note_off_c, 2, 76, 64
1, 359203, Note_on_c, 2, 73, 118
1, 359208, Note_off_c, 2, 74, 64
1, 359245, Note_on_c, 2, 74, 118
1, 359251, Note_off_c, 2, 73, 64
1, 359287, Note_on_c, 2, 76, 118
1, 359295, Note_off_c, 2, 74, 64
1, 359328, Note_on_c, 1, 78, 115
1, 359349, Note_off_c, 2, 76, 64
1, 359370, Note_on_c, 2, 74, 118
1, 359391, Note_off_c, 1, 78, 64
1, 359414, Note_off_c, 4, 59, 64
1, 359414, Note_off_c, 4, 47, 64
1, 359415, Note_on_c, 2, 67, 127
1, 359415, Note_on_c, 1, 79, 110
1, 359416, Note_on_c, 4, 61, 127
1, 359416, Note_on_c, 4, 64, 126
1, 359417, Note_on_c, 4, 58, 127
1, 359436, Note_off_c, 2, 74, 64
1, 359457, Note_on_c, 1, 78, 110
1, 359463, Note_off_c, 1, 79, 64
1, 359497, Note_on_c, 2, 76, 113
1, 359503, Note_off_c, 1, 78, 64
1, 359538, Note_on_c, 2, 74, 113
1, 359544, Note_off_c, 2, 76, 64
1, 359578, Note_on_c, 2, 73, 113
1, 359584, Note_off_c, 2, 74, 64
1, 359618, Note_on_c, 2, 74, 113
1, 359626, Note_off_c, 2, 73, 64
1, 359659, Note_on_c, 2, 76, 113
1, 359666, Note_off_c, 2, 74, 64
1, 359700, Note_on_c, 1, 78, 110
1, 359706, Note_off_c, 2, 76, 64
1, 359735, Note_off_c, 4, 64, 64
1, 359735, Note_off_c, 4, 61, 64
1, 359736, Note_off_c, 2, 67, 64
1, 359737, Note_off_c, 4, 58, 64
1, 359738, Note_on_c, 2, 67, 127
1, 359738, Note_on_c, 1, 79, 110
1, 359739, Note_on_c, 4, 61, 127
1, 359739, Note_on_c, 4, 64, 126
1, 359740, Note_on_c, 4, 57, 127
1, 359744, Note_off_c, 1, 78, 64
1, 359781, Note_on_c, 1, 78, 110
1, 359786, Note_off_c, 1, 79, 64
1, 359819, Note_on_c, 2, 76, 113
1, 359827, Note_off_c, 1, 78, 64
1, 359859, Note_on_c, 1, 78, 110
1, 359865, Note_off_c, 2, 76, 64
1, 359900, Note_on_c, 1, 79, 110
1, 359907, Note_off_c, 1, 78, 64
1, 359940, Note_on_c, 1, 81, 110
1, 359948, Note_off_c, 1, 79, 64
1, 359981, Note_on_c, 1, 83, 110
1, 359988, Note_off_c, 1, 81, 64
1, 360021, Note_on_c, 1, 85, 110
1, 360026, Note_off_c, 1, 83, 64
1, 360061, Note_off_c, 4, 61, 64
1, 360061, Note_off_c, 4, 57, 64
1, 360062, Note_off_c, 2, 67, 64
1, 360062, Note_off_c, 4, 64, 64
1, 360063, Note_on_c, 1, 86, 110
1, 360063, Note_on_c, 4, 66, 127
1, 360064, Note_on_c, 4, 62, 127
1, 360068, Note_off_c, 1, 85, 64
1, 360104, Note_on_c, 1, 85, 110
1, 360111, Note_off_c, 1, 86, 64
1, 360145, Note_on_c, 1, 83, 110
1, 360151, Note_off_c, 1, 85, 64
1, 360186, Note_on_c, 1, 81, 110
1, 360192, Note_off_c, 1, 83, 64
1, 360227, Note_on_c, 4, 64, 126
1, 360227, Note_on_c, 1, 79, 110
1, 360228, Note_on_c, 4, 55, 127
1, 360230, Note_off_c, 4, 62, 64
1, 360230, Note_off_c, 4, 66, 64
1, 360233, Note_off_c, 1, 81, 64
1, 360267, Note_on_c, 1, 81, 110
1, 360274, Note_off_c, 1, 79, 64
1, 360306, Note_on_c, 1, 83, 110
1, 360313, Note_off_c, 1, 81, 64
1, 360350, Note_on_c, 1, 79, 110
1, 360356, Note_off_c, 1, 83, 64
1, 360390, Note_on_c, 1, 78, 110
1, 360391, Note_on_c, 4, 57, 127
1, 360391, Note_on_c, 4, 62, 127
1, 360392, Note_off_c, 4, 64, 64
1, 360392, Note_off_c, 4, 55, 64
1, 360396, Note_off_c, 1, 79, 64
1, 360429, Note_on_c, 1, 79, 110
1, 360437, Note_off_c, 1, 78, 64
1, 360469, Note_on_c, 1, 81, 110
1, 360477, Note_off_c, 1, 79, 64
1, 360512, Note_on_c, 1, 78, 110
1, 360517, Note_off_c, 1, 81, 64
1, 360544, Note_off_c, 4, 57, 64
1, 360552, Note_off_c, 4, 62, 64
1, 360552, Note_on_c, 2, 76, 113
1, 360553, Note_on_c, 4, 61, 127
1, 360553, Note_on_c, 4, 57, 127
1, 360558, Note_off_c, 1, 78, 64
1, 360592, Note_on_c, 1, 78, 110
1, 360598, Note_off_c, 2, 76, 64
1, 360635, Note_on_c, 1, 79, 110
1, 360640, Note_off_c, 1, 78, 64
1, 360677, Note_on_c, 2, 76, 118
1, 360684, Note_off_c, 1, 79, 64
1, 360717, Note_off_c, 4, 57, 64
1, 360718, Note_off_c, 4, 61, 64
1, 360718, Note_on_c, 2, 74, 118
1, 360719, Note_on_c, 4, 50, 127
1, 360725, Note_off_c, 2, 76, 64
1, 360765, Note_on_c, 4, 62, 127
1, 360778, Note_off_c, 4, 50, 64
1, 360819, Note_on_c, 4, 57, 127
1, 360827, Note_off_c, 4, 62, 64
1, 360869, Note_on_c, 4, 54, 127
1, 360876, Note_off_c, 4, 57, 64
1, 360919, Note_on_c, 4, 50, 127
1, 360926, Note_off_c, 4, 54, 64
1, 361054, Note_off_c, 2, 74, 64
1, 361083, Note_on_c, 1, 81, 115
1, 361135, Note_on_c, 1, 83, 115
1, 361140, Note_off_c, 1, 81, 64
1, 361173, Note_on_c, 1, 84, 115
1, 361181, Note_off_c, 1, 83, 64
1, 361217, Note_on_c, 1, 83, 115
1, 361225, Note_off_c, 1, 84, 64
1, 361258, Note_on_c, 1, 81, 115
1, 361265, Note_off_c, 1, 83, 64
1, 361298, Note_on_c, 1, 79, 115
1, 361306, Note_off_c, 1, 81, 64
1, 361340, Note_on_c, 1, 78, 115
1, 361346, Note_off_c, 1, 79, 64
1, 361380, Note_on_c, 2, 76, 113
1, 361386, Note_off_c, 1, 78, 64
1, 361421, Note_on_c, 2, 72, 118
1, 361421, Note_on_c, 2, 75, 113
1, 361422, Note_on_c, 2, 69, 118
1, 361428, Note_off_c, 2, 76, 64
1, 361462, Note_on_c, 2, 76, 113
1, 361468, Note_off_c, 2, 75, 64
1, 361504, Note_on_c, 1, 78, 115
1, 361510, Note_off_c, 2, 76, 64
1, 361548, Note_on_c, 2, 75, 113
1, 361554, Note_off_c, 1, 78, 64
1, 361589, Note_off_c, 2, 72, 64
1, 361589, Note_off_c, 2, 69, 64
1, 361590, Note_on_c, 2, 71, 117
1, 361590, Note_on_c, 2, 76, 113
1, 361591, Note_on_c, 2, 68, 120
1, 361596, Note_off_c, 2, 75, 64
1, 361630, Note_on_c, 1, 80, 115
1, 361636, Note_off_c, 2, 76, 64
1, 361670, Note_on_c, 1, 83, 115
1, 361676, Note_off_c, 1, 80, 64
1, 361715, Note_on_c, 2, 74, 113
1, 361736, Note_off_c, 1, 83, 64
1, 361757, Note_off_c, 2, 71, 64
1, 361757, Note_off_c, 2, 68, 64
1, 361758, Note_on_c, 2, 70, 118
1, 361758, Note_on_c, 2, 73, 113
1, 361759, Note_on_c, 2, 67, 127
1, 361764, Note_off_c, 2, 74, 64
1, 361803, Note_on_c, 2, 74, 113
1, 361809, Note_off_c, 2, 73, 64
1, 361850, Note_on_c, 2, 76, 113
1, 361858, Note_off_c, 2, 74, 64
1, 361896, Note_on_c, 2, 73, 113
1, 361902, Note_off_c, 2, 76, 64
1, 361938, Note_off_c, 2, 67, 64
1, 361939, Note_off_c, 2, 70, 64
1, 361939, Note_on_c, 2, 74, 113
1, 361940, Note_on_c, 2, 69, 118
1, 361940, Note_on_c, 4, 66, 127
1, 361945, Note_off_c, 2, 73, 64
1, 361980, Note_on_c, 1, 78, 115
1, 361985, Note_off_c, 2, 74, 64
1, 362021, Note_on_c, 1, 81, 115
1, 362027, Note_off_c, 1, 78, 64
1, 362063, Note_on_c, 2, 74, 113
1, 362084, Note_off_c, 1, 81, 64
1, 362105, Note_off_c, 4, 66, 64
1, 362106, Note_off_c, 2, 69, 64
1, 362106, Note_on_c, 1, 86, 115
1, 362107, Note_on_c, 4, 59, 127
1, 362107, Note_on_c, 2, 71, 117
1, 362120, Note_off_c, 4, 50, 64
1, 362127, Note_off_c, 2, 74, 64
1, 362148, Note_on_c, 1, 88, 112
1, 362154, Note_off_c, 1, 86, 64
1, 362191, Note_on_c, 1, 85, 110
1, 362191, Note_on_c, 2, 69, 118
1, 362192, Note_on_c, 4, 57, 127
1, 362197, Note_off_c, 1, 88, 64
1, 362199, Note_off_c, 4, 59, 64
1, 362200, Note_off_c, 2, 71, 64
1, 362233, Note_on_c, 1, 86, 110
1, 362241, Note_off_c, 1, 85, 64
1, 362279, Note_on_c, 1, 83, 110
1, 362280, Note_on_c, 2, 67, 127
1, 362280, Note_on_c, 4, 55, 127
1, 362288, Note_off_c, 4, 57, 64
1, 362288, Note_off_c, 2, 69, 64
1, 362300, Note_off_c, 1, 86, 64
1, 362319, Note_on_c, 1, 85, 110
1, 362340, Note_off_c, 1, 83, 64
1, 362364, Note_on_c, 4, 54, 127
1, 362364, Note_on_c, 4, 66, 127
1, 362364, Note_on_c, 1, 82, 110
1, 362372, Note_off_c, 4, 55, 64
1, 362373, Note_off_c, 2, 67, 64
1, 362385, Note_off_c, 1, 85, 64
1, 362406, Note_on_c, 1, 85, 110
1, 362427, Note_off_c, 1, 82, 64
1, 362448, Note_on_c, 1, 83, 110
1, 362448, Note_on_c, 2, 67, 127
1, 362449, Note_on_c, 4, 55, 127
1, 362457, Note_off_c, 4, 66, 64
1, 362457, Note_off_c, 4, 54, 64
1, 362469, Note_off_c, 1, 85, 64
1, 362492, Note_on_c, 1, 85, 110
1, 362513, Note_off_c, 1, 83, 64
1, 362535, Note_on_c, 1, 81, 110
1, 362535, Note_on_c, 4, 66, 127
1, 362535, Note_on_c, 4, 54, 127
1, 362544, Note_off_c, 4, 55, 64
1, 362544, Note_off_c, 2, 67, 64
1, 362557, Note_off_c, 1, 85, 64
1, 362578, Note_on_c, 1, 83, 110
1, 362585, Note_off_c, 1, 81, 64
1, 362622, Note_on_c, 1, 80, 110
1, 362623, Note_on_c, 4, 52, 127
1, 362623, Note_on_c, 4, 64, 126
1, 362628, Note_off_c, 1, 83, 64
1, 362630, Note_off_c, 4, 54, 64
1, 362631, Note_off_c, 4, 66, 64
1, 362664, Note_on_c, 1, 81, 110
1, 362670, Note_off_c, 1, 80, 64
1, 362707, Note_on_c, 1, 78, 110
1, 362707, Note_on_c, 4, 62, 127
1, 362708, Note_on_c, 4, 50, 127
1, 362714, Note_off_c, 1, 81, 64
1, 362716, Note_off_c, 4, 64, 64
1, 362716, Note_off_c, 4, 52, 64
1, 362748, Note_on_c, 1, 81, 110
1, 362756, Note_off_c, 1, 78, 64
1, 362786, Note_off_c, 1, 81, 64
1, 362790, Note_on_c, 1, 81, 110
1, 362791, Note_on_c, 4, 64, 126
1, 362791, Note_on_c, 2, 71, 117
1, 362800, Note_off_c, 4, 50, 64
1, 362801, Note_off_c, 4, 62, 64
1, 362832, Note_on_c, 1, 79, 110
1, 362840, Note_off_c, 1, 81, 64
1, 362877, Note_on_c, 1, 78, 110
1, 362882, Note_off_c, 1, 79, 64
1, 362919, Note_on_c, 1, 79, 110
1, 362927, Note_off_c, 1, 78, 64
1, 362963, Note_on_c, 2, 76, 113
1, 362964, Note_off_c, 4, 64, 64
1, 362964, Note_on_c, 4, 61, 127
1, 362964, Note_on_c, 2, 69, 118
1, 362965, Note_off_c, 2, 71, 64
1, 362970, Note_off_c, 1, 79, 64
1, 363005, Note_on_c, 1, 78, 110
1, 363011, Note_off_c, 2, 76, 64
1, 363046, Note_on_c, 1, 79, 110
1, 363053, Note_off_c, 1, 78, 64
1, 363088, Note_on_c, 1, 81, 110
1, 363096, Note_off_c, 1, 79, 64
1, 363132, Note_on_c, 1, 79, 110
1, 363132, Note_on_c, 4, 62, 127
1, 363134, Note_off_c, 4, 61, 64
1, 363139, Note_off_c, 1, 81, 64
1, 363171, Note_on_c, 1, 78, 110
1, 363179, Note_off_c, 1, 79, 64
1, 363214, Note_on_c, 2, 76, 113
1, 363221, Note_off_c, 1, 78, 64
1, 363256, Note_on_c, 1, 78, 110
1, 363264, Note_off_c, 2, 76, 64
1, 363300, Note_off_c, 2, 69, 64
1, 363300, Note_on_c, 2, 74, 113
1, 363301, Note_on_c, 4, 59, 127
1, 363301, Note_on_c, 2, 67, 127
1, 363302, Note_off_c, 4, 62, 64
1, 363321, Note_off_c, 1, 78, 64
1, 363340, Note_on_c, 2, 76, 113
1, 363348, Note_off_c, 2, 74, 64
1, 363383, Note_on_c, 1, 78, 110
1, 363390, Note_off_c, 2, 76, 64
1, 363423, Note_on_c, 1, 79, 110
1, 363431, Note_off_c, 1, 78, 64
1, 363465, Note_on_c, 1, 78, 110
1, 363466, Note_on_c, 4, 57, 127
1, 363466, Note_on_c, 4, 62, 127
1, 363467, Note_off_c, 2, 67, 64
1, 363467, Note_off_c, 4, 59, 64
1, 363471, Note_off_c, 1, 79, 64
1, 363742, Note_off_c, 1, 78, 64
1, 363742, Note_on_c, 1, 81, 115
1, 363779, Note_off_c, 4, 62, 64
1, 363780, Note_on_c, 4, 61, 127
1, 363780, Note_on_c, 2, 76, 118
1, 363800, Note_off_c, 1, 81, 64
1, 364080, Note_off_c, 2, 76, 64
1, 364115, Note_off_c, 4, 61, 64
1, 364116, Note_on_c, 2, 69, 118
1, 364164, Note_on_c, 2, 68, 120
1, 364172, Note_off_c, 2, 69, 64
1, 364206, Note_on_c, 2, 71, 112
1, 364229, Note_off_c, 2, 68, 64
1, 364250, Note_on_c, 2, 69, 118
1, 364272, Note_off_c, 2, 71, 64
1, 364293, Note_on_c, 2, 73, 113
1, 364316, Note_off_c, 2, 69, 64
1, 364335, Note_on_c, 2, 71, 112
1, 364356, Note_off_c, 2, 73, 64
1, 364377, Note_on_c, 2, 74, 113
1, 364398, Note_off_c, 2, 71, 64
1, 364420, Note_on_c, 2, 73, 108
1, 364440, Note_off_c, 2, 74, 64
1, 364463, Note_on_c, 2, 76, 108
1, 364484, Note_off_c, 2, 73, 64
1, 364503, Note_on_c, 2, 74, 108
1, 364524, Note_off_c, 2, 76, 64
1, 364543, Note_on_c, 1, 78, 105
1, 364564, Note_off_c, 2, 74, 64
1, 364585, Note_on_c, 2, 76, 108
1, 364607, Note_off_c, 1, 78, 64
1, 364630, Note_on_c, 1, 79, 105
1, 364653, Note_off_c, 2, 76, 64
1, 364674, Note_on_c, 1, 78, 105
1, 364680, Note_off_c, 1, 79, 64
1, 364701, Note_off_c, 4, 57, 64
1, 364716, Note_on_c, 4, 66, 127
1, 364716, Note_on_c, 1, 81, 105
1, 364717, Note_on_c, 4, 54, 127
1, 364723, Note_off_c, 1, 78, 64
1, 364757, Note_on_c, 1, 83, 110
1, 364765, Note_off_c, 1, 81, 64
1, 364799, Note_on_c, 1, 79, 105
1, 364802, Note_on_c, 4, 61, 127
1, 364802, Note_on_c, 4, 49, 127
1, 364812, Note_off_c, 4, 66, 64
1, 364812, Note_off_c, 4, 54, 64
1, 364823, Note_off_c, 1, 83, 64
1, 364842, Note_on_c, 1, 81, 110
1, 364861, Note_off_c, 1, 79, 64
1, 364884, Note_on_c, 1, 78, 110
1, 364884, Note_on_c, 4, 62, 127
1, 364885, Note_on_c, 4, 50, 127
1, 364893, Note_off_c, 4, 49, 64
1, 364893, Note_off_c, 4, 61, 64
1, 364905, Note_off_c, 1, 81, 64
1, 364924, Note_on_c, 1, 79, 110
1, 364945, Note_off_c, 1, 78, 64
1, 364967, Note_on_c, 4, 58, 127
1, 364967, Note_on_c, 2, 76, 113
1, 364968, Note_on_c, 4, 46, 127
1, 364975, Note_off_c, 4, 50, 64
1, 364976, Note_off_c, 4, 62, 64
1, 364988, Note_off_c, 1, 79, 64
1, 365007, Note_on_c, 1, 78, 110
1, 365027, Note_off_c, 2, 76, 64
1, 365048, Note_on_c, 2, 74, 113
1, 365050, Note_on_c, 4, 59, 127
1, 365051, Note_on_c, 4, 47, 127
1, 365058, Note_off_c, 4, 58, 64
1, 365058, Note_off_c, 4, 46, 64
1, 365070, Note_off_c, 1, 78, 64
1, 365090, Note_on_c, 2, 76, 113
1, 365096, Note_off_c, 2, 74, 64
1, 365132, Note_on_c, 2, 74, 113
1, 365139, Note_off_c, 2, 76, 64
1, 365173, Note_on_c, 2, 73, 113
1, 365181, Note_off_c, 2, 74, 64
1, 365214, Note_on_c, 2, 74, 113
1, 365221, Note_off_c, 2, 73, 64
1, 365254, Note_on_c, 2, 76, 113
1, 365260, Note_off_c, 2, 74, 64
1, 365294, Note_on_c, 1, 78, 110
1, 365300, Note_off_c, 2, 76, 64
1, 365335, Note_on_c, 2, 74, 113
1, 365354, Note_off_c, 1, 78, 64
1, 365375, Note_off_c, 4, 47, 64
1, 365376, Note_off_c, 4, 59, 64
1, 365376, Note_on_c, 2, 67, 127
1, 365376, Note_on_c, 1, 79, 105
1, 365377, Note_on_c, 4, 61, 127
1, 365377, Note_on_c, 4, 64, 126
1, 365378, Note_on_c, 4, 58, 127
1, 365384, Note_off_c, 2, 74, 64
1, 365418, Note_on_c, 1, 78, 105
1, 365426, Note_off_c, 1, 79, 64
1, 365459, Note_on_c, 2, 76, 108
1, 365466, Note_off_c, 1, 78, 64
1, 365501, Note_on_c, 2, 74, 108
1, 365508, Note_off_c, 2, 76, 64
1, 365543, Note_on_c, 2, 73, 108
1, 365551, Note_off_c, 2, 74, 64
1, 365585, Note_on_c, 2, 74, 108
1, 365593, Note_off_c, 2, 73, 64
1, 365628, Note_on_c, 2, 76, 108
1, 365633, Note_off_c, 2, 74, 64
1, 365669, Note_on_c, 1, 78, 105
1, 365675, Note_off_c, 2, 76, 64
1, 365707, Note_off_c, 4, 64, 64
1, 365707, Note_off_c, 4, 61, 64
1, 365708, Note_off_c, 2, 67, 64
1, 365709, Note_off_c, 4, 58, 64
1, 365709, Note_on_c, 1, 79, 105
1, 365710, Note_on_c, 4, 64, 126
1, 365710, Note_on_c, 2, 67, 127
1, 365711, Note_on_c, 4, 57, 127
1, 365711, Note_on_c, 4, 61, 127
1, 365715, Note_off_c, 1, 78, 64
1, 365749, Note_on_c, 1, 78, 105
1, 365757, Note_off_c, 1, 79, 64
1, 365792, Note_on_c, 2, 76, 108
1, 365798, Note_off_c, 1, 78, 64
1, 365833, Note_on_c, 1, 78, 105
1, 365841, Note_off_c, 2, 76, 64
1, 365875, Note_on_c, 1, 79, 105
1, 365883, Note_off_c, 1, 78, 64
1, 365916, Note_on_c, 1, 81, 105
1, 365924, Note_off_c, 1, 79, 64
1, 365957, Note_on_c, 1, 83, 110
1, 365964, Note_off_c, 1, 81, 64
1, 365997, Note_on_c, 1, 85, 110
1, 366003, Note_off_c, 1, 83, 64
1, 366033, Note_off_c, 2, 67, 64
1, 366033, Note_off_c, 4, 64, 64
1, 366033, Note_off_c, 4, 61, 64
1, 366034, Note_off_c, 4, 57, 64
1, 366035, Note_on_c, 1, 86, 110
1, 366035, Note_on_c, 4, 66, 127
1, 366036, Note_on_c, 4, 62, 127
1, 366043, Note_off_c, 1, 85, 64
1, 366078, Note_on_c, 1, 85, 110
1, 366084, Note_off_c, 1, 86, 64
1, 366116, Note_on_c, 1, 83, 110
1, 366124, Note_off_c, 1, 85, 64
1, 366158, Note_on_c, 1, 81, 110
1, 366164, Note_off_c, 1, 83, 64
1, 366199, Note_on_c, 4, 64, 126
1, 366199, Note_on_c, 1, 79, 110
1, 366200, Note_on_c, 4, 55, 127
1, 366202, Note_off_c, 4, 62, 64
1, 366202, Note_off_c, 4, 66, 64
1, 366206, Note_off_c, 1, 81, 64
1, 366241, Note_on_c, 1, 81, 110
1, 366247, Note_off_c, 1, 79, 64
1, 366281, Note_on_c, 1, 83, 110
1, 366287, Note_off_c, 1, 81, 64
1, 366324, Note_on_c, 1, 79, 110
1, 366329, Note_off_c, 1, 83, 64
1, 366364, Note_on_c, 4, 62, 127
1, 366364, Note_on_c, 1, 78, 110
1, 366365, Note_on_c, 4, 57, 127
1, 366367, Note_off_c, 4, 64, 64
1, 366367, Note_off_c, 4, 55, 64
1, 366370, Note_off_c, 1, 79, 64
1, 366406, Note_on_c, 1, 79, 110
1, 366412, Note_off_c, 1, 78, 64
1, 366446, Note_on_c, 1, 81, 110
1, 366454, Note_off_c, 1, 79, 64
1, 366489, Note_on_c, 1, 78, 110
1, 366494, Note_off_c, 1, 81, 64
1, 366523, Note_off_c, 4, 57, 64
1, 366531, Note_off_c, 4, 62, 64
1, 366531, Note_on_c, 2, 76, 113
1, 366532, Note_on_c, 4, 61, 127
1, 366532, Note_on_c, 4, 57, 127
1, 366537, Note_off_c, 1, 78, 64
1, 366571, Note_on_c, 1, 78, 110
1, 366579, Note_off_c, 2, 76, 64
1, 366613, Note_on_c, 1, 79, 110
1, 366621, Note_off_c, 1, 78, 64
1, 366656, Note_on_c, 2, 76, 113
1, 366663, Note_off_c, 1, 79, 64
1, 366698, Note_off_c, 4, 57, 64
1, 366698, Note_off_c, 4, 61, 64
1, 366699, Note_on_c, 2, 74, 113
1, 366699, Note_on_c, 4, 50, 127
1, 366711, Note_off_c, 2, 76, 64
1, 366757, Note_on_c, 4, 62, 127
1, 366765, Note_off_c, 4, 50, 64
1, 366805, Note_on_c, 4, 57, 127
1, 366813, Note_off_c, 4, 62, 64
1, 366867, Note_on_c, 4, 54, 127
1, 366876, Note_off_c, 4, 57, 64
1, 366925, Note_on_c, 4, 50, 127
1, 366932, Note_off_c, 4, 54, 64
1, 367296, Note_off_c, 2, 74, 64
1, 367522, Note_off_c, 4, 50, 64
1, 367522, Note_on_c, 4, 33, 127
1, 367704, Note_on_c, 2, 69, 118
1, 367812, Note_off_c, 4, 33, 64
1, 367873, Note_off_c, 2, 69, 64
1, 367874, Note_on_c, 4, 50, 127
1, 367874, Note_on_c, 4, 66, 127
1, 367895, Note_on_c, 2, 69, 118
1, 367920, Note_on_c, 2, 74, 117
1, 367959, Note_on_c, 4, 54, 127
1, 367965, Note_off_c, 4, 50, 64
1, 368001, Note_on_c, 4, 57, 127
1, 368009, Note_off_c, 4, 54, 64
1, 368045, Note_on_c, 4, 62, 127
1, 368051, Note_off_c, 4, 57, 64
1, 368088, Note_off_c, 4, 66, 64
1, 368088, Note_on_c, 4, 61, 127
1, 368096, Note_off_c, 4, 62, 64
1, 368098, Note_off_c, 2, 69, 64
1, 368131, Note_on_c, 4, 62, 127
1, 368138, Note_off_c, 4, 61, 64
1, 368176, Note_on_c, 4, 61, 127
1, 368182, Note_off_c, 4, 62, 64
1, 368218, Note_on_c, 4, 62, 127
1, 368225, Note_off_c, 4, 61, 64
1, 368248, Note_off_c, 2, 74, 64
1, 368259, Note_on_c, 1, 78, 114
1, 368260, Note_on_c, 2, 74, 117
1, 368260, Note_on_c, 4, 47, 127
1, 368303, Note_on_c, 4, 50, 127
1, 368308, Note_off_c, 4, 47, 64
1, 368312, Note_off_c, 4, 62, 64
1, 368345, Note_on_c, 4, 54, 127
1, 368351, Note_off_c, 4, 50, 64
1, 368387, Note_on_c, 4, 59, 127
1, 368395, Note_off_c, 4, 54, 64
1, 368424, Note_off_c, 1, 78, 64
1, 368424, Note_off_c, 2, 74, 64
1, 368432, Note_on_c, 2, 74, 117
1, 368433, Note_on_c, 4, 66, 127
1, 368433, Note_on_c, 4, 58, 127
1, 368439, Note_off_c, 4, 59, 64
1, 368475, Note_on_c, 4, 59, 127
1, 368483, Note_off_c, 4, 58, 64
1, 368520, Note_on_c, 4, 58, 127
1, 368527, Note_off_c, 4, 59, 64
1, 368562, Note_on_c, 4, 59, 127
1, 368569, Note_off_c, 4, 58, 64
1, 368598, Note_off_c, 4, 66, 64
1, 368599, Note_off_c, 2, 74, 64
1, 368605, Note_on_c, 2, 71, 116
1, 368605, Note_on_c, 1, 79, 114
1, 368606, Note_on_c, 4, 43, 127
1, 368646, Note_on_c, 4, 47, 127
1, 368654, Note_off_c, 4, 43, 64
1, 368656, Note_off_c, 4, 59, 64
1, 368688, Note_on_c, 4, 52, 127
1, 368696, Note_off_c, 4, 47, 64
1, 368731, Note_on_c, 4, 55, 127
1, 368738, Note_off_c, 4, 52, 64
1, 368767, Note_off_c, 2, 71, 64
1, 368768, Note_off_c, 1, 79, 64
1, 368776, Note_on_c, 4, 54, 127
1, 368782, Note_off_c, 4, 55, 64
1, 368816, Note_on_c, 4, 55, 127
1, 368824, Note_off_c, 4, 54, 64
1, 368861, Note_on_c, 2, 76, 117
1, 368862, Note_on_c, 4, 54, 127
1, 368868, Note_off_c, 4, 55, 64
1, 368903, Note_on_c, 4, 55, 127
1, 368910, Note_off_c, 4, 54, 64
1, 368945, Note_on_c, 2, 73, 117
1, 368945, Note_on_c, 4, 45, 127
1, 368948, Note_off_c, 2, 76, 64
1, 368986, Note_on_c, 4, 49, 127
1, 368994, Note_off_c, 4, 45, 64
1, 368996, Note_off_c, 4, 55, 64
1, 369028, Note_on_c, 4, 52, 127
1, 369036, Note_off_c, 4, 49, 64
1, 369072, Note_on_c, 4, 57, 127
1, 369078, Note_off_c, 4, 52, 64
1, 369109, Note_off_c, 2, 73, 64
1, 369115, Note_on_c, 2, 69, 118
1, 369116, Note_on_c, 4, 56, 127
1, 369123, Note_off_c, 4, 57, 64
1, 369158, Note_on_c, 4, 57, 127
1, 369166, Note_off_c, 4, 56, 64
1, 369202, Note_on_c, 4, 56, 127
1, 369208, Note_off_c, 4, 57, 64
1, 369244, Note_on_c, 4, 57, 127
1, 369250, Note_off_c, 4, 56, 64
1, 369287, Note_on_c, 1, 81, 114
1, 369287, Note_on_c, 4, 54, 127
1, 369293, Note_off_c, 4, 57, 64
1, 369314, Note_off_c, 2, 69, 64
1, 369328, Note_on_c, 4, 57, 127
1, 369328, Note_on_c, 1, 78, 114
1, 369336, Note_off_c, 4, 54, 64
1, 369337, Note_off_c, 1, 81, 64
1, 369372, Note_on_c, 2, 74, 117
1, 369372, Note_on_c, 4, 62, 127
1, 369379, Note_off_c, 1, 78, 64
1, 369379, Note_off_c, 4, 57, 64
1, 369414, Note_on_c, 2, 69, 118
1, 369415, Note_on_c, 4, 66, 127
1, 369421, Note_off_c, 4, 62, 64
1, 369421, Note_off_c, 2, 74, 64
1, 369456, Note_on_c, 2, 68, 120
1, 369457, Note_on_c, 4, 65, 127
1, 369463, Note_off_c, 4, 66, 64
1, 369464, Note_off_c, 2, 69, 64
1, 369499, Note_on_c, 2, 69, 118
1, 369499, Note_on_c, 4, 66, 127
1, 369505, Note_off_c, 4, 65, 64
1, 369506, Note_off_c, 2, 68, 64
1, 369543, Note_on_c, 2, 68, 120
1, 369543, Note_on_c, 4, 65, 127
1, 369550, Note_off_c, 4, 66, 64
1, 369550, Note_off_c, 2, 69, 64
1, 369586, Note_on_c, 4, 66, 127
1, 369586, Note_on_c, 2, 69, 118
1, 369592, Note_off_c, 4, 65, 64
1, 369592, Note_off_c, 2, 68, 64
1, 369627, Note_on_c, 1, 83, 114
1, 369628, Note_on_c, 4, 55, 127
1, 369671, Note_on_c, 1, 79, 114
1, 369672, Note_on_c, 4, 59, 127
1, 369677, Note_off_c, 4, 55, 64
1, 369678, Note_off_c, 1, 83, 64
1, 369678, Note_off_c, 4, 66, 64
1, 369679, Note_off_c, 2, 69, 64
1, 369712, Note_on_c, 2, 74, 117
1, 369712, Note_on_c, 4, 62, 127
1, 369719, Note_off_c, 4, 59, 64
1, 369719, Note_off_c, 1, 79, 64
1, 369756, Note_on_c, 2, 71, 116
1, 369756, Note_on_c, 2, 67, 127
1, 369762, Note_off_c, 4, 62, 64
1, 369762, Note_off_c, 2, 74, 64
1, 369799, Note_on_c, 2, 70, 118
1, 369800, Note_on_c, 4, 66, 127
1, 369806, Note_off_c, 2, 67, 64
1, 369806, Note_off_c, 2, 71, 64
1, 369841, Note_on_c, 2, 71, 116
1, 369842, Note_on_c, 2, 67, 127
1, 369849, Note_off_c, 2, 70, 64
1, 369849, Note_off_c, 4, 66, 64
1, 369886, Note_on_c, 2, 70, 118
1, 369887, Note_on_c, 4, 66, 127
1, 369892, Note_off_c, 2, 67, 64
1, 369893, Note_off_c, 2, 71, 64
1, 369928, Note_on_c, 2, 71, 116
1, 369928, Note_on_c, 2, 67, 127
1, 369935, Note_off_c, 4, 66, 64
1, 369936, Note_off_c, 2, 70, 64
1, 369972, Note_on_c, 2, 74, 117
1, 369973, Note_on_c, 4, 57, 127
1, 369973, Note_on_c, 4, 66, 127
1, 369979, Note_off_c, 2, 67, 64
1, 369979, Note_off_c, 2, 71, 64
1, 370141, Note_off_c, 4, 66, 64
1, 370142, Note_on_c, 4, 64, 126
1, 370142, Note_on_c, 2, 73, 117
1, 370146, Note_off_c, 2, 74, 64
1, 370186, Note_off_c, 4, 57, 64
1, 370304, Note_on_c, 4, 33, 127
1, 370415, Note_off_c, 4, 64, 64
1, 370416, Note_off_c, 2, 73, 64
1, 370454, Note_on_c, 2, 69, 118
1, 370564, Note_off_c, 4, 33, 64
1, 370618, Note_off_c, 2, 69, 64
1, 370624, Note_on_c, 4, 66, 127
1, 370625, Note_on_c, 4, 50, 127
1, 370643, Note_on_c, 2, 69, 118
1, 370662, Note_on_c, 2, 74, 117
1, 370692, Note_on_c, 4, 54, 127
1, 370700, Note_off_c, 4, 50, 64
1, 370737, Note_on_c, 4, 57, 127
1, 370744, Note_off_c, 4, 54, 64
1, 370779, Note_on_c, 4, 62, 127
1, 370787, Note_off_c, 4, 57, 64
1, 370825, Note_on_c, 4, 61, 127
1, 370831, Note_off_c, 4, 62, 64
1, 370865, Note_on_c, 4, 62, 127
1, 370873, Note_off_c, 4, 61, 64
1, 370909, Note_on_c, 4, 61, 127
1, 370917, Note_off_c, 4, 62, 64
1, 370952, Note_on_c, 4, 62, 127
1, 370954, Note_off_c, 4, 66, 64
1, 370959, Note_off_c, 4, 61, 64
1, 370965, Note_off_c, 2, 69, 64
1, 370977, Note_off_c, 2, 74, 64
1, 370996, Note_on_c, 2, 74, 117
1, 370996, Note_on_c, 1, 78, 114
1, 370997, Note_on_c, 4, 47, 127
1, 371037, Note_on_c, 4, 50, 127
1, 371045, Note_off_c, 4, 47, 64
1, 371047, Note_off_c, 4, 62, 64
1, 371079, Note_on_c, 4, 54, 127
1, 371087, Note_off_c, 4, 50, 64
1, 371122, Note_on_c, 4, 59, 127
1, 371129, Note_off_c, 4, 54, 64
1, 371158, Note_off_c, 2, 74, 64
1, 371159, Note_off_c, 1, 78, 64
1, 371167, Note_on_c, 4, 66, 127
1, 371167, Note_on_c, 2, 74, 117
1, 371168, Note_on_c, 4, 58, 127
1, 371173, Note_off_c, 4, 59, 64
1, 371208, Note_on_c, 4, 59, 127
1, 371216, Note_off_c, 4, 58, 64
1, 371252, Note_on_c, 4, 58, 127
1, 371260, Note_off_c, 4, 59, 64
1, 371294, Note_on_c, 4, 59, 127
1, 371302, Note_off_c, 4, 58, 64
1, 371331, Note_off_c, 2, 74, 64
1, 371331, Note_off_c, 4, 66, 64
1, 371338, Note_on_c, 1, 83, 114
1, 371338, Note_on_c, 1, 86, 114
1, 371339, Note_on_c, 4, 44, 127
1, 371380, Note_on_c, 4, 47, 127
1, 371388, Note_off_c, 4, 44, 64
1, 371388, Note_off_c, 4, 59, 64
1, 371422, Note_on_c, 4, 50, 127
1, 371428, Note_off_c, 4, 47, 64
1, 371462, Note_on_c, 4, 56, 127
1, 371470, Note_off_c, 4, 50, 64
1, 371507, Note_on_c, 4, 55, 127
1, 371515, Note_off_c, 4, 56, 64
1, 371548, Note_on_c, 4, 56, 127
1, 371556, Note_off_c, 4, 55, 64
1, 371561, Note_off_c, 1, 83, 64
1, 371562, Note_off_c, 1, 86, 64
1, 371593, Note_on_c, 1, 83, 114
1, 371594, Note_on_c, 1, 80, 114
1, 371594, Note_on_c, 4, 55, 127
1, 371599, Note_off_c, 4, 56, 64
1, 371635, Note_on_c, 4, 56, 127
1, 371641, Note_off_c, 4, 55, 64
1, 371656, Note_off_c, 1, 80, 64
1, 371656, Note_off_c, 1, 83, 64
1, 371678, Note_on_c, 1, 80, 114
1, 371679, Note_on_c, 2, 71, 116
1, 371679, Note_on_c, 2, 74, 117
1, 371680, Note_on_c, 4, 40, 127
1, 371721, Note_on_c, 4, 44, 127
1, 371728, Note_off_c, 4, 40, 64
1, 371730, Note_off_c, 4, 56, 64
1, 371763, Note_on_c, 4, 47, 127
1, 371771, Note_off_c, 4, 44, 64
1, 371807, Note_on_c, 4, 52, 127
1, 371813, Note_off_c, 4, 47, 64
1, 371842, Note_off_c, 2, 74, 64
1, 371842, Note_off_c, 2, 71, 64
1, 371843, Note_off_c, 1, 80, 64
1, 371850, Note_on_c, 2, 74, 117
1, 371851, Note_on_c, 2, 68, 120
1, 371851, Note_on_c, 2, 71, 116
1, 371852, Note_on_c, 4, 51, 127
1, 371858, Note_off_c, 4, 52, 64
1, 371893, Note_on_c, 4, 52, 127
1, 371900, Note_off_c, 4, 51, 64
1, 371937, Note_on_c, 4, 51, 127
1, 371943, Note_off_c, 4, 52, 64
1, 371980, Note_on_c, 4, 52, 127
1, 371988, Note_off_c, 4, 51, 64
1, 372017, Note_off_c, 2, 74, 64
1, 372017, Note_off_c, 2, 71, 64
1, 372017, Note_off_c, 2, 68, 64
1, 372024, Note_on_c, 2, 76, 117
1, 372024, Note_on_c, 4, 49, 127
1, 372030, Note_off_c, 4, 52, 64
1, 372064, Note_on_c, 2, 73, 117
1, 372065, Note_on_c, 4, 52, 127
1, 372071, Note_off_c, 4, 49, 64
1, 372072, Note_off_c, 2, 76, 64
1, 372105, Note_on_c, 2, 69, 114
1, 372105, Note_on_c, 4, 57, 127
1, 372112, Note_off_c, 4, 52, 64
1, 372112, Note_off_c, 2, 73, 64
1, 372147, Note_on_c, 4, 64, 122
1, 372148, Note_on_c, 4, 61, 127
1, 372154, Note_off_c, 4, 57, 64
1, 372155, Note_off_c, 2, 69, 64
1, 372190, Note_on_c, 4, 63, 127
1, 372190, Note_on_c, 4, 60, 127
1, 372198, Note_off_c, 4, 61, 64
1, 372198, Note_off_c, 4, 64, 64
1, 372232, Note_on_c, 4, 61, 127
1, 372232, Note_on_c, 4, 64, 122
1, 372239, Note_off_c, 4, 60, 64
1, 372239, Note_off_c, 4, 63, 64
1, 372276, Note_on_c, 4, 63, 127
1, 372276, Note_on_c, 4, 60, 127
1, 372282, Note_off_c, 4, 61, 64
1, 372283, Note_off_c, 4, 64, 64
1, 372316, Note_on_c, 4, 64, 122
1, 372317, Note_on_c, 4, 61, 127
1, 372323, Note_off_c, 4, 60, 64
1, 372324, Note_off_c, 4, 63, 64
1, 372360, Note_on_c, 1, 78, 114
1, 372360, Note_on_c, 4, 50, 127
1, 372402, Note_on_c, 2, 74, 117
1, 372402, Note_on_c, 4, 54, 127
1, 372408, Note_off_c, 4, 50, 64
1, 372409, Note_off_c, 1, 78, 64
1, 372411, Note_off_c, 4, 61, 64
1, 372412, Note_off_c, 4, 64, 64
1, 372445, Note_on_c, 4, 57, 127
1, 372445, Note_on_c, 2, 69, 114
1, 372452, Note_off_c, 4, 54, 64
1, 372452, Note_off_c, 2, 74, 64
1, 372485, Note_on_c, 4, 66, 124
1, 372486, Note_on_c, 4, 62, 127
1, 372492, Note_off_c, 2, 69, 64
1, 372492, Note_off_c, 4, 57, 64
1, 372526, Note_on_c, 2, 74, 117
1, 372526, Note_on_c, 4, 40, 127
1, 372532, Note_off_c, 4, 62, 64
1, 372533, Note_off_c, 4, 66, 64
1, 372570, Note_on_c, 2, 71, 112
1, 372570, Note_on_c, 4, 44, 127
1, 372576, Note_off_c, 4, 40, 64
1, 372577, Note_off_c, 2, 74, 64
1, 372610, Note_on_c, 2, 68, 116
1, 372611, Note_on_c, 4, 47, 127
1, 372617, Note_off_c, 4, 44, 64
1, 372617, Note_off_c, 2, 71, 64
1, 372650, Note_on_c, 4, 64, 126
1, 372651, Note_on_c, 4, 52, 127
1, 372659, Note_off_c, 4, 47, 64
1, 372660, Note_off_c, 2, 68, 64
1, 372686, Note_off_c, 4, 64, 64
1, 372695, Note_on_c, 4, 45, 127
1, 372695, Note_on_c, 4, 61, 127
1, 372709, Note_off_c, 4, 52, 64
1, 372712, Note_on_c, 4, 64, 126
1, 372726, Note_on_c, 2, 69, 118
1, 372886, Note_off_c, 4, 61, 64
1, 372886, Note_off_c, 4, 45, 64
1, 372887, Note_on_c, 4, 57, 127
1, 372897, Note_off_c, 4, 64, 64
1, 372909, Note_off_c, 2, 69, 64
1, 373062, Note_on_c, 4, 33, 127
1, 373179, Note_off_c, 4, 57, 64
1, 373210, Note_on_c, 2, 69, 118
1, 373320, Note_off_c, 4, 33, 64
1, 373373, Note_off_c, 2, 69, 64
1, 373381, Note_on_c, 4, 66, 127
1, 373381, Note_on_c, 4, 50, 127
1, 373403, Note_on_c, 2, 69, 118
1, 373430, Note_on_c, 2, 74, 117
1, 373463, Note_on_c, 4, 54, 127
1, 373470, Note_off_c, 4, 50, 64
1, 373505, Note_on_c, 4, 57, 127
1, 373511, Note_off_c, 4, 54, 64
1, 373546, Note_on_c, 4, 62, 127
1, 373552, Note_off_c, 4, 57, 64
1, 373590, Note_on_c, 4, 61, 127
1, 373596, Note_off_c, 4, 62, 64
1, 373631, Note_on_c, 4, 62, 127
1, 373638, Note_off_c, 4, 61, 64
1, 373675, Note_on_c, 4, 61, 127
1, 373682, Note_off_c, 4, 62, 64
1, 373717, Note_off_c, 4, 66, 64
1, 373717, Note_on_c, 4, 62, 127
1, 373724, Note_off_c, 4, 61, 64
1, 373726, Note_off_c, 2, 69, 64
1, 373739, Note_off_c, 2, 74, 64
1, 373760, Note_on_c, 1, 78, 114
1, 373761, Note_on_c, 2, 74, 117
1, 373761, Note_on_c, 4, 47, 127
1, 373803, Note_on_c, 4, 50, 127
1, 373810, Note_off_c, 4, 47, 64
1, 373812, Note_off_c, 4, 62, 64
1, 373845, Note_on_c, 4, 54, 127
1, 373852, Note_off_c, 4, 50, 64
1, 373889, Note_on_c, 4, 59, 127
1, 373896, Note_off_c, 4, 54, 64
1, 373927, Note_off_c, 2, 74, 64
1, 373928, Note_off_c, 1, 78, 64
1, 373934, Note_on_c, 2, 74, 117
1, 373934, Note_on_c, 4, 66, 127
1, 373935, Note_on_c, 4, 58, 127
1, 373941, Note_off_c, 4, 59, 64
1, 373976, Note_on_c, 4, 59, 127
1, 373984, Note_off_c, 4, 58, 64
1, 374018, Note_on_c, 4, 58, 127
1, 374026, Note_off_c, 4, 59, 64
1, 374061, Note_on_c, 4, 59, 127
1, 374068, Note_off_c, 4, 58, 64
1, 374097, Note_off_c, 4, 66, 64
1, 374098, Note_off_c, 2, 74, 64
1, 374106, Note_on_c, 2, 71, 116
1, 374106, Note_on_c, 1, 79, 114
1, 374107, Note_on_c, 4, 43, 127
1, 374148, Note_on_c, 4, 47, 127
1, 374154, Note_off_c, 4, 43, 64
1, 374158, Note_off_c, 4, 59, 64
1, 374190, Note_on_c, 4, 52, 127
1, 374196, Note_off_c, 4, 47, 64
1, 374231, Note_on_c, 4, 55, 127
1, 374238, Note_off_c, 4, 52, 64
1, 374277, Note_on_c, 4, 54, 127
1, 374282, Note_off_c, 4, 55, 64
1, 374317, Note_on_c, 4, 55, 127
1, 374325, Note_off_c, 4, 54, 64
1, 374355, Note_off_c, 2, 71, 64
1, 374356, Note_off_c, 1, 79, 64
1, 374362, Note_on_c, 2, 76, 117
1, 374363, Note_on_c, 4, 54, 127
1, 374369, Note_off_c, 4, 55, 64
1, 374403, Note_on_c, 4, 55, 127
1, 374411, Note_off_c, 4, 54, 64
1, 374448, Note_on_c, 2, 73, 117
1, 374448, Note_on_c, 4, 45, 127
1, 374450, Note_off_c, 2, 76, 64
1, 374489, Note_on_c, 4, 49, 127
1, 374495, Note_off_c, 4, 45, 64
1, 374497, Note_off_c, 4, 55, 64
1, 374531, Note_on_c, 4, 52, 127
1, 374538, Note_off_c, 4, 49, 64
1, 374573, Note_on_c, 4, 57, 127
1, 374580, Note_off_c, 4, 52, 64
1, 374611, Note_off_c, 2, 73, 64
1, 374619, Note_on_c, 4, 56, 127
1, 374619, Note_on_c, 2, 69, 118
1, 374625, Note_off_c, 4, 57, 64
1, 374660, Note_on_c, 4, 57, 127
1, 374668, Note_off_c, 4, 56, 64
1, 374704, Note_on_c, 4, 56, 127
1, 374712, Note_off_c, 4, 57, 64
1, 374747, Note_on_c, 4, 57, 127
1, 374754, Note_off_c, 4, 56, 64
1, 374793, Note_on_c, 1, 81, 114
1, 374793, Note_on_c, 4, 54, 127
1, 374799, Note_off_c, 4, 57, 64
1, 374820, Note_off_c, 2, 69, 64
1, 374836, Note_on_c, 4, 57, 127
1, 374836, Note_on_c, 1, 78, 114
1, 374843, Note_off_c, 4, 54, 64
1, 374843, Note_off_c, 1, 81, 64
1, 374876, Note_on_c, 2, 74, 117
1, 374877, Note_on_c, 4, 62, 127
1, 374883, Note_off_c, 1, 78, 64
1, 374883, Note_off_c, 4, 57, 64
1, 374916, Note_on_c, 2, 69, 118
1, 374917, Note_on_c, 4, 66, 127
1, 374923, Note_off_c, 4, 62, 64
1, 374924, Note_off_c, 2, 74, 64
1, 374961, Note_on_c, 2, 68, 120
1, 374961, Note_on_c, 4, 65, 127
1, 374967, Note_off_c, 4, 66, 64
1, 374968, Note_off_c, 2, 69, 64
1, 375003, Note_on_c, 2, 69, 118
1, 375003, Note_on_c, 4, 66, 127
1, 375010, Note_off_c, 4, 65, 64
1, 375010, Note_off_c, 2, 68, 64
1, 375047, Note_on_c, 2, 68, 120
1, 375048, Note_on_c, 4, 65, 127
1, 375056, Note_off_c, 4, 66, 64
1, 375056, Note_off_c, 2, 69, 64
1, 375091, Note_on_c, 2, 69, 118
1, 375092, Note_on_c, 4, 66, 127
1, 375098, Note_off_c, 4, 65, 64
1, 375098, Note_off_c, 2, 68, 64
1, 375135, Note_on_c, 1, 83, 114
1, 375136, Note_on_c, 4, 55, 127
1, 375179, Note_on_c, 1, 79, 114
1, 375179, Note_on_c, 4, 59, 127
1, 375187, Note_off_c, 4, 55, 64
1, 375188, Note_off_c, 1, 83, 64
1, 375188, Note_off_c, 4, 66, 64
1, 375189, Note_off_c, 2, 69, 64
1, 375222, Note_on_c, 2, 74, 117
1, 375222, Note_on_c, 4, 62, 127
1, 375228, Note_off_c, 4, 59, 64
1, 375229, Note_off_c, 1, 79, 64
1, 375262, Note_on_c, 2, 71, 116
1, 375263, Note_on_c, 2, 67, 127
1, 375269, Note_off_c, 4, 62, 64
1, 375269, Note_off_c, 2, 74, 64
1, 375306, Note_on_c, 2, 70, 118
1, 375307, Note_on_c, 4, 66, 127
1, 375315, Note_off_c, 2, 67, 64
1, 375315, Note_off_c, 2, 71, 64
1, 375348, Note_on_c, 2, 71, 116
1, 375349, Note_on_c, 2, 67, 127
1, 375357, Note_off_c, 4, 66, 64
1, 375358, Note_off_c, 2, 70, 64
1, 375393, Note_on_c, 2, 70, 118
1, 375393, Note_on_c, 4, 66, 127
1, 375399, Note_off_c, 2, 67, 64
1, 375400, Note_off_c, 2, 71, 64
1, 375435, Note_on_c, 2, 71, 116
1, 375435, Note_on_c, 2, 67, 127
1, 375442, Note_off_c, 4, 66, 64
1, 375442, Note_off_c, 2, 70, 64
1, 375479, Note_on_c, 2, 74, 117
1, 375480, Note_on_c, 4, 57, 127
1, 375480, Note_on_c, 4, 66, 127
1, 375485, Note_off_c, 2, 67, 64
1, 375485, Note_off_c, 2, 71, 64
1, 375638, Note_off_c, 4, 66, 64
1, 375639, Note_off_c, 2, 74, 64
1, 375647, Note_on_c, 2, 73, 117
1, 375648, Note_on_c, 4, 64, 126
1, 375817, Note_on_c, 4, 33, 127
1, 375926, Note_off_c, 4, 64, 64
1, 375927, Note_off_c, 2, 73, 64
1, 375952, Note_off_c, 4, 57, 64
1, 375964, Note_on_c, 2, 69, 118
1, 376071, Note_off_c, 4, 33, 64
1, 376121, Note_off_c, 2, 69, 64
1, 376127, Note_on_c, 4, 66, 127
1, 376128, Note_on_c, 4, 50, 127
1, 376149, Note_on_c, 2, 69, 118
1, 376168, Note_on_c, 2, 74, 117
1, 376191, Note_on_c, 4, 54, 127
1, 376197, Note_off_c, 4, 50, 64
1, 376232, Note_on_c, 4, 57, 127
1, 376239, Note_off_c, 4, 54, 64
1, 376272, Note_on_c, 4, 62, 127
1, 376280, Note_off_c, 4, 57, 64
1, 376316, Note_on_c, 4, 61, 127
1, 376324, Note_off_c, 4, 62, 64
1, 376345, Note_off_c, 2, 69, 64
1, 376349, Note_off_c, 4, 66, 64
1, 376358, Note_on_c, 4, 62, 127
1, 376364, Note_off_c, 4, 61, 64
1, 376401, Note_on_c, 4, 61, 127
1, 376408, Note_off_c, 4, 62, 64
1, 376429, Note_off_c, 2, 74, 64
1, 376443, Note_on_c, 4, 62, 127
1, 376451, Note_off_c, 4, 61, 64
1, 376485, Note_on_c, 1, 78, 114
1, 376486, Note_on_c, 2, 74, 117
1, 376486, Note_on_c, 4, 47, 127
1, 376528, Note_on_c, 4, 50, 127
1, 376536, Note_off_c, 4, 47, 64
1, 376537, Note_off_c, 4, 62, 64
1, 376571, Note_on_c, 4, 54, 127
1, 376579, Note_off_c, 4, 50, 64
1, 376612, Note_on_c, 4, 59, 127
1, 376620, Note_off_c, 4, 54, 64
1, 376650, Note_off_c, 2, 74, 64
1, 376651, Note_off_c, 1, 78, 64
1, 376657, Note_on_c, 2, 74, 117
1, 376658, Note_on_c, 4, 66, 127
1, 376658, Note_on_c, 4, 58, 127
1, 376665, Note_off_c, 4, 59, 64
1, 376700, Note_on_c, 4, 59, 127
1, 376707, Note_off_c, 4, 58, 64
1, 376743, Note_on_c, 4, 58, 127
1, 376751, Note_off_c, 4, 59, 64
1, 376786, Note_on_c, 4, 59, 127
1, 376792, Note_off_c, 4, 58, 64
1, 376821, Note_off_c, 2, 74, 64
1, 376821, Note_off_c, 4, 66, 64
1, 376827, Note_on_c, 1, 86, 114
1, 376828, Note_on_c, 1, 83, 114
1, 376828, Note_on_c, 4, 44, 127
1, 376871, Note_on_c, 4, 47, 127
1, 376877, Note_off_c, 4, 44, 64
1, 376881, Note_off_c, 4, 59, 64
1, 376916, Note_on_c, 4, 50, 127
1, 376921, Note_off_c, 4, 47, 64
1, 376957, Note_on_c, 4, 56, 127
1, 376964, Note_off_c, 4, 50, 64
1, 377001, Note_on_c, 4, 55, 127
1, 377007, Note_off_c, 4, 56, 64
1, 377041, Note_on_c, 4, 56, 127
1, 377049, Note_off_c, 4, 55, 64
1, 377055, Note_off_c, 1, 86, 64
1, 377055, Note_off_c, 1, 83, 64
1, 377087, Note_on_c, 1, 83, 114
1, 377087, Note_on_c, 1, 80, 114
1, 377088, Note_on_c, 4, 55, 127
1, 377093, Note_off_c, 4, 56, 64
1, 377130, Note_on_c, 4, 56, 127
1, 377136, Note_off_c, 4, 55, 64
1, 377151, Note_off_c, 1, 80, 64
1, 377151, Note_off_c, 1, 83, 64
1, 377171, Note_on_c, 1, 80, 114
1, 377172, Note_on_c, 2, 71, 116
1, 377172, Note_on_c, 2, 74, 117
1, 377172, Note_on_c, 4, 40, 127
1, 377213, Note_on_c, 4, 44, 127
1, 377221, Note_off_c, 4, 40, 64
1, 377223, Note_off_c, 4, 56, 64
1, 377256, Note_on_c, 4, 47, 127
1, 377263, Note_off_c, 4, 44, 64
1, 377300, Note_on_c, 4, 52, 127
1, 377305, Note_off_c, 4, 47, 64
1, 377338, Note_off_c, 2, 71, 64
1, 377339, Note_off_c, 1, 80, 64
1, 377339, Note_off_c, 2, 74, 64
1, 377345, Note_on_c, 2, 74, 117
1, 377345, Note_on_c, 2, 71, 116
1, 377346, Note_on_c, 2, 68, 120
1, 377346, Note_on_c, 4, 51, 127
1, 377352, Note_off_c, 4, 52, 64
1, 377389, Note_on_c, 4, 52, 127
1, 377397, Note_off_c, 4, 51, 64
1, 377435, Note_on_c, 4, 51, 127
1, 377443, Note_off_c, 4, 52, 64
1, 377477, Note_on_c, 4, 52, 127
1, 377485, Note_off_c, 4, 51, 64
1, 377514, Note_off_c, 2, 68, 64
1, 377514, Note_off_c, 2, 71, 64
1, 377515, Note_off_c, 2, 74, 64
1, 377520, Note_on_c, 2, 76, 117
1, 377521, Note_on_c, 4, 49, 127
1, 377529, Note_off_c, 4, 52, 64
1, 377562, Note_on_c, 2, 73, 117
1, 377562, Note_on_c, 4, 52, 127
1, 377570, Note_off_c, 4, 49, 64
1, 377571, Note_off_c, 2, 76, 64
1, 377604, Note_on_c, 2, 69, 114
1, 377604, Note_on_c, 4, 57, 127
1, 377613, Note_off_c, 4, 52, 64
1, 377613, Note_off_c, 2, 73, 64
1, 377648, Note_on_c, 4, 64, 122
1, 377649, Note_on_c, 4, 61, 127
1, 377655, Note_off_c, 4, 57, 64
1, 377655, Note_off_c, 2, 69, 64
1, 377692, Note_on_c, 4, 63, 127
1, 377693, Note_on_c, 4, 60, 127
1, 377699, Note_off_c, 4, 61, 64
1, 377700, Note_off_c, 4, 64, 64
1, 377735, Note_on_c, 4, 61, 127
1, 377735, Note_on_c, 4, 64, 122
1, 377741, Note_off_c, 4, 60, 64
1, 377742, Note_off_c, 4, 63, 64
1, 377779, Note_on_c, 4, 63, 127
1, 377779, Note_on_c, 4, 60, 127
1, 377785, Note_off_c, 4, 61, 64
1, 377786, Note_off_c, 4, 64, 64
1, 377821, Note_on_c, 4, 64, 122
1, 377821, Note_on_c, 4, 61, 127
1, 377828, Note_off_c, 4, 60, 64
1, 377828, Note_off_c, 4, 63, 64
1, 377865, Note_on_c, 1, 78, 114
1, 377866, Note_on_c, 4, 50, 127
1, 377906, Note_on_c, 2, 74, 117
1, 377907, Note_on_c, 4, 54, 127
1, 377913, Note_off_c, 4, 50, 64
1, 377914, Note_off_c, 1, 78, 64
1, 377916, Note_off_c, 4, 61, 64
1, 377916, Note_off_c, 4, 64, 64
1, 377950, Note_on_c, 2, 69, 114
1, 377950, Note_on_c, 4, 57, 127
1, 377956, Note_off_c, 4, 54, 64
1, 377957, Note_off_c, 2, 74, 64
1, 377992, Note_on_c, 4, 62, 127
1, 377992, Note_on_c, 4, 66, 124
1, 377999, Note_off_c, 4, 57, 64
1, 377999, Note_off_c, 2, 69, 64
1, 378032, Note_on_c, 2, 74, 117
1, 378033, Note_on_c, 4, 40, 127
1, 378039, Note_off_c, 4, 66, 64
1, 378039, Note_off_c, 4, 62, 64
1, 378076, Note_on_c, 2, 71, 112
1, 378077, Note_on_c, 4, 44, 127
1, 378083, Note_off_c, 4, 40, 64
1, 378084, Note_off_c, 2, 74, 64
1, 378117, Note_on_c, 2, 68, 120
1, 378117, Note_on_c, 4, 47, 127
1, 378123, Note_off_c, 4, 44, 64
1, 378124, Note_off_c, 2, 71, 64
1, 378159, Note_on_c, 4, 64, 126
1, 378159, Note_on_c, 4, 52, 127
1, 378166, Note_off_c, 4, 47, 64
1, 378166, Note_off_c, 2, 68, 64
1, 378193, Note_off_c, 4, 64, 64
1, 378201, Note_on_c, 4, 61, 127
1, 378202, Note_on_c, 4, 45, 127
1, 378216, Note_off_c, 4, 52, 64
1, 378223, Note_on_c, 4, 64, 126
1, 378239, Note_on_c, 2, 69, 118
1, 378392, Note_off_c, 4, 45, 64
1, 378393, Note_off_c, 4, 61, 64
1, 378401, Note_on_c, 4, 57, 127
1, 378403, Note_off_c, 4, 64, 64
1, 378414, Note_off_c, 2, 69, 64
1, 378577, Note_off_c, 4, 57, 64
1, 378578, Note_on_c, 4, 33, 127
1, 378732, Note_on_c, 1, 81, 110
1, 378732, Note_on_c, 2, 72, 113
1, 378733, Note_on_c, 2, 69, 118
1, 378777, Note_on_c, 2, 67, 127
1, 378785, Note_off_c, 2, 69, 64
1, 378821, Note_on_c, 4, 66, 127
1, 378829, Note_off_c, 2, 67, 64
1, 378851, Note_off_c, 4, 33, 64
1, 378865, Note_on_c, 4, 64, 126
1, 378873, Note_off_c, 4, 66, 64
1, 378912, Note_on_c, 2, 71, 112
1, 378912, Note_on_c, 4, 63, 127
1, 378914, Note_off_c, 2, 72, 64
1, 378918, Note_off_c, 4, 64, 64
1, 378955, Note_on_c, 4, 61, 127
1, 378962, Note_off_c, 4, 63, 64
1, 378999, Note_on_c, 4, 63, 127
1, 379007, Note_off_c, 4, 61, 64
1, 379045, Note_on_c, 4, 59, 127
1, 379053, Note_off_c, 4, 63, 64
1, 379082, Note_off_c, 1, 81, 64
1, 379089, Note_on_c, 1, 79, 110
1, 379089, Note_on_c, 4, 64, 126
1, 379095, Note_off_c, 4, 59, 64
1, 379129, Note_on_c, 4, 66, 127
1, 379137, Note_off_c, 4, 64, 64
1, 379172, Note_on_c, 2, 67, 127
1, 379180, Note_off_c, 4, 66, 64
1, 379218, Note_on_c, 4, 64, 126
1, 379226, Note_off_c, 2, 67, 64
1, 379235, Note_off_c, 2, 71, 64
1, 379260, Note_on_c, 2, 69, 118
1, 379260, Note_on_c, 4, 61, 127
1, 379267, Note_off_c, 4, 64, 64
1, 379304, Note_on_c, 4, 59, 127
1, 379309, Note_off_c, 4, 61, 64
1, 379345, Note_on_c, 4, 61, 127
1, 379352, Note_off_c, 4, 59, 64
1, 379391, Note_on_c, 4, 57, 127
1, 379399, Note_off_c, 4, 61, 64
1, 379433, Note_on_c, 1, 78, 110
1, 379434, Note_on_c, 4, 62, 127
1, 379436, Note_off_c, 1, 79, 64
1, 379440, Note_off_c, 4, 57, 64
1, 379476, Note_on_c, 4, 64, 126
1, 379482, Note_off_c, 4, 62, 64
1, 379519, Note_on_c, 4, 66, 127
1, 379524, Note_off_c, 4, 64, 64
1, 379563, Note_on_c, 4, 62, 127
1, 379571, Note_off_c, 4, 66, 64
1, 379571, Note_off_c, 2, 69, 64
1, 379604, Note_off_c, 1, 78, 64
1, 379605, Note_on_c, 1, 86, 109
1, 379605, Note_on_c, 2, 71, 107
1, 379613, Note_off_c, 4, 62, 64
1, 379651, Note_on_c, 2, 70, 113
1, 379659, Note_off_c, 2, 71, 64
1, 379693, Note_on_c, 2, 71, 107
1, 379701, Note_off_c, 2, 70, 64
1, 379740, Note_off_c, 1, 86, 64
1, 379740, Note_on_c, 1, 82, 105
1, 379740, Note_on_c, 4, 66, 127
1, 379746, Note_off_c, 2, 71, 64
1, 379783, Note_on_c, 1, 83, 105
1, 379783, Note_on_c, 2, 67, 123
1, 379789, Note_off_c, 4, 66, 64
1, 379790, Note_off_c, 1, 82, 64
1, 379827, Note_on_c, 4, 66, 127
1, 379835, Note_off_c, 2, 67, 64
1, 379871, Note_on_c, 2, 67, 123
1, 379879, Note_off_c, 4, 66, 64
1, 379915, Note_off_c, 1, 83, 64
1, 379916, Note_on_c, 4, 62, 127
1, 379916, Note_on_c, 1, 78, 105
1, 379923, Note_off_c, 2, 67, 64
1, 379959, Note_on_c, 1, 79, 105
1, 379960, Note_on_c, 4, 64, 126
1, 379968, Note_off_c, 1, 78, 64
1, 379968, Note_off_c, 4, 62, 64
1, 380005, Note_on_c, 4, 62, 127
1, 380013, Note_off_c, 4, 64, 64
1, 380050, Note_on_c, 4, 64, 126
1, 380057, Note_off_c, 4, 62, 64
1, 380094, Note_off_c, 1, 79, 64
1, 380094, Note_on_c, 2, 74, 108
1, 380095, Note_on_c, 4, 59, 127
1, 380102, Note_off_c, 4, 64, 64
1, 380139, Note_on_c, 4, 61, 127
1, 380139, Note_on_c, 2, 76, 108
1, 380146, Note_off_c, 4, 59, 64
1, 380146, Note_off_c, 2, 74, 64
1, 380183, Note_on_c, 4, 59, 127
1, 380191, Note_off_c, 4, 61, 64
1, 380227, Note_on_c, 4, 61, 127
1, 380235, Note_off_c, 4, 59, 64
1, 380273, Note_off_c, 2, 76, 64
1, 380274, Note_on_c, 2, 71, 112
1, 380274, Note_on_c, 4, 56, 127
1, 380280, Note_off_c, 4, 61, 64
1, 380316, Note_on_c, 2, 73, 108
1, 380317, Note_on_c, 4, 57, 127
1, 380319, Note_off_c, 2, 71, 64
1, 380325, Note_off_c, 4, 56, 64
1, 380362, Note_on_c, 4, 55, 127
1, 380369, Note_off_c, 4, 57, 64
1, 380404, Note_on_c, 4, 54, 127
1, 380412, Note_off_c, 4, 55, 64
1, 380446, Note_on_c, 4, 52, 127
1, 380454, Note_off_c, 4, 54, 64
1, 380488, Note_off_c, 2, 73, 64
1, 380489, Note_on_c, 2, 76, 113
1, 380489, Note_on_c, 1, 79, 110
1, 380490, Note_on_c, 2, 69, 118
1, 380490, Note_on_c, 4, 50, 127
1, 380496, Note_off_c, 4, 52, 64
1, 380531, Note_on_c, 4, 49, 127
1, 380538, Note_off_c, 4, 50, 64
1, 380575, Note_on_c, 4, 47, 127
1, 380580, Note_off_c, 4, 49, 64
1, 380617, Note_on_c, 4, 45, 127
1, 380625, Note_off_c, 4, 47, 64
1, 380659, Note_on_c, 4, 50, 127
1, 380667, Note_off_c, 4, 45, 64
1, 380705, Note_on_c, 4, 49, 127
1, 380711, Note_off_c, 4, 50, 64
1, 380748, Note_on_c, 4, 50, 127
1, 380755, Note_off_c, 4, 49, 64
1, 380790, Note_on_c, 4, 52, 127
1, 380798, Note_off_c, 4, 50, 64
1, 380831, Note_off_c, 2, 69, 64
1, 380832, Note_off_c, 1, 79, 64
1, 380832, Note_off_c, 2, 76, 64
1, 380834, Note_on_c, 2, 74, 117
1, 380834, Note_on_c, 1, 79, 101
1, 380835, Note_on_c, 4, 54, 127
1, 380844, Note_off_c, 4, 52, 64
1, 380864, Note_on_c, 1, 78, 101
1, 380868, Note_off_c, 1, 79, 64
1, 380891, Note_on_c, 1, 79, 101
1, 380891, Note_on_c, 4, 52, 127
1, 380893, Note_off_c, 1, 78, 64
1, 380899, Note_off_c, 4, 54, 64
1, 380916, Note_on_c, 1, 78, 101
1, 380920, Note_off_c, 1, 79, 64
1, 380945, Note_on_c, 1, 79, 101
1, 380946, Note_on_c, 4, 54, 127
1, 380948, Note_off_c, 1, 78, 64
1, 380954, Note_off_c, 4, 52, 64
1, 380971, Note_on_c, 1, 78, 101
1, 380975, Note_off_c, 1, 79, 64
1, 380998, Note_on_c, 2, 76, 108
1, 380999, Note_on_c, 4, 55, 127
1, 381000, Note_off_c, 1, 78, 64
1, 381005, Note_off_c, 4, 54, 64
1, 381020, Note_on_c, 1, 78, 101
1, 381022, Note_off_c, 2, 76, 64
1, 381041, Note_off_c, 2, 74, 64
1, 381042, Note_on_c, 2, 73, 117
1, 381042, Note_on_c, 2, 76, 108
1, 381043, Note_off_c, 1, 78, 64
1, 381043, Note_on_c, 4, 57, 127
1, 381049, Note_off_c, 4, 55, 64
1, 381085, Note_on_c, 4, 61, 127
1, 381093, Note_off_c, 4, 57, 64
1, 381132, Note_on_c, 4, 64, 126
1, 381139, Note_off_c, 4, 61, 64
1, 381174, Note_on_c, 2, 69, 118
1, 381181, Note_off_c, 4, 64, 64
1, 381220, Note_on_c, 2, 68, 120
1, 381227, Note_off_c, 2, 69, 64
1, 381261, Note_on_c, 2, 69, 118
1, 381269, Note_off_c, 2, 68, 64
1, 381276, Note_off_c, 2, 73, 64
1, 381277, Note_off_c, 2, 76, 64
1, 381307, Note_on_c, 2, 68, 120
1, 381315, Note_off_c, 2, 69, 64
1, 381349, Note_on_c, 2, 69, 118
1, 381358, Note_off_c, 2, 68, 64
1, 381390, Note_off_c, 2, 69, 64
1, 381392, Note_on_c, 2, 69, 118
1, 381393, Note_on_c, 4, 57, 127
1, 381432, Note_off_c, 2, 69, 64
1, 381433, Note_on_c, 2, 73, 117
1, 381475, Note_on_c, 2, 76, 113
1, 381481, Note_off_c, 2, 73, 64
1, 381516, Note_on_c, 1, 81, 110
1, 381524, Note_off_c, 2, 76, 64
1, 381564, Note_on_c, 1, 80, 110
1, 381570, Note_off_c, 1, 81, 64
1, 381606, Note_on_c, 1, 81, 110
1, 381614, Note_off_c, 1, 80, 64
1, 381652, Note_on_c, 1, 80, 110
1, 381660, Note_off_c, 1, 81, 64
1, 381696, Note_on_c, 1, 81, 110
1, 381704, Note_off_c, 1, 80, 64
1, 381743, Note_off_c, 4, 57, 64
1, 381743, Note_on_c, 2, 69, 118
1, 381868, Note_off_c, 1, 81, 64
1, 381911, Note_on_c, 4, 57, 127
1, 382037, Note_off_c, 2, 69, 64
1, 382076, Note_off_c, 4, 57, 64
1, 382076, Note_on_c, 4, 33, 127
1, 382224, Note_on_c, 2, 69, 118
1, 382336, Note_off_c, 4, 33, 64
1, 382392, Note_off_c, 2, 69, 64
1, 382399, Note_on_c, 4, 66, 127
1, 382400, Note_on_c, 4, 50, 127
1, 382423, Note_on_c, 2, 69, 118
1, 382444, Note_on_c, 2, 74, 117
1, 382465, Note_on_c, 4, 54, 127
1, 382473, Note_off_c, 4, 50, 64
1, 382510, Note_on_c, 4, 57, 127
1, 382517, Note_off_c, 4, 54, 64
1, 382556, Note_on_c, 4, 62, 127
1, 382563, Note_off_c, 4, 57, 64
1, 382604, Note_on_c, 4, 61, 127
1, 382611, Note_off_c, 4, 62, 64
1, 382647, Note_on_c, 4, 62, 127
1, 382655, Note_off_c, 4, 61, 64
1, 382695, Note_on_c, 4, 61, 127
1, 382701, Note_off_c, 4, 62, 64
1, 382708, Note_off_c, 4, 66, 64
1, 382718, Note_off_c, 2, 69, 64
1, 382729, Note_off_c, 2, 74, 64
1, 382737, Note_on_c, 4, 62, 127
1, 382745, Note_off_c, 4, 61, 64
1, 382783, Note_on_c, 1, 78, 114
1, 382784, Note_on_c, 4, 47, 127
1, 382784, Note_on_c, 2, 74, 117
1, 382826, Note_on_c, 4, 50, 127
1, 382834, Note_off_c, 4, 47, 64
1, 382836, Note_off_c, 4, 62, 64
1, 382871, Note_on_c, 4, 54, 127
1, 382878, Note_off_c, 4, 50, 64
1, 382911, Note_on_c, 4, 59, 127
1, 382919, Note_off_c, 4, 54, 64
1, 382949, Note_off_c, 2, 74, 64
1, 382950, Note_off_c, 1, 78, 64
1, 382958, Note_on_c, 4, 66, 127
1, 382958, Note_on_c, 2, 74, 117
1, 382959, Note_on_c, 4, 58, 127
1, 382965, Note_off_c, 4, 59, 64
1, 382999, Note_on_c, 4, 59, 127
1, 383007, Note_off_c, 4, 58, 64
1, 383043, Note_on_c, 4, 58, 127
1, 383051, Note_off_c, 4, 59, 64
1, 383086, Note_on_c, 4, 59, 127
1, 383093, Note_off_c, 4, 58, 64
1, 383122, Note_off_c, 4, 66, 64
1, 383123, Note_off_c, 2, 74, 64
1, 383131, Note_on_c, 2, 71, 116
1, 383131, Note_on_c, 1, 79, 114
1, 383132, Note_on_c, 4, 43, 127
1, 383172, Note_on_c, 4, 47, 127
1, 383180, Note_off_c, 4, 43, 64
1, 383182, Note_off_c, 4, 59, 64
1, 383214, Note_on_c, 4, 52, 127
1, 383220, Note_off_c, 4, 47, 64
1, 383257, Note_on_c, 4, 55, 127
1, 383265, Note_off_c, 4, 52, 64
1, 383304, Note_on_c, 4, 54, 127
1, 383310, Note_off_c, 4, 55, 64
1, 383347, Note_on_c, 4, 55, 127
1, 383352, Note_off_c, 4, 54, 64
1, 383381, Note_off_c, 2, 71, 64
1, 383382, Note_off_c, 1, 79, 64
1, 383390, Note_on_c, 2, 76, 117
1, 383390, Note_on_c, 4, 54, 127
1, 383397, Note_off_c, 4, 55, 64
1, 383429, Note_on_c, 4, 55, 127
1, 383436, Note_off_c, 4, 54, 64
1, 383465, Note_off_c, 2, 76, 64
1, 383471, Note_on_c, 4, 45, 127
1, 383471, Note_on_c, 2, 73, 117
1, 383512, Note_on_c, 4, 49, 127
1, 383520, Note_off_c, 4, 45, 64
1, 383521, Note_off_c, 4, 55, 64
1, 383554, Note_on_c, 4, 52, 127
1, 383560, Note_off_c, 4, 49, 64
1, 383596, Note_on_c, 4, 57, 127
1, 383602, Note_off_c, 4, 52, 64
1, 383633, Note_off_c, 2, 73, 64
1, 383640, Note_on_c, 2, 69, 118
1, 383641, Note_on_c, 4, 56, 127
1, 383647, Note_off_c, 4, 57, 64
1, 383682, Note_on_c, 4, 57, 127
1, 383689, Note_off_c, 4, 56, 64
1, 383724, Note_on_c, 4, 56, 127
1, 383732, Note_off_c, 4, 57, 64
1, 383768, Note_on_c, 4, 57, 127
1, 383776, Note_off_c, 4, 56, 64
1, 383803, Note_off_c, 2, 69, 64
1, 383811, Note_on_c, 1, 81, 110
1, 383811, Note_on_c, 4, 54, 127
1, 383817, Note_off_c, 4, 57, 64
1, 383854, Note_on_c, 1, 78, 110
1, 383854, Note_on_c, 4, 57, 127
1, 383860, Note_off_c, 4, 54, 64
1, 383861, Note_off_c, 1, 81, 64
1, 383896, Note_on_c, 2, 74, 113
1, 383897, Note_on_c, 4, 62, 127
1, 383903, Note_off_c, 4, 57, 64
1, 383903, Note_off_c, 1, 78, 64
1, 383938, Note_on_c, 2, 69, 118
1, 383939, Note_on_c, 4, 66, 127
1, 383945, Note_off_c, 4, 62, 64
1, 383945, Note_off_c, 2, 74, 64
1, 383984, Note_on_c, 2, 68, 120
1, 383985, Note_on_c, 4, 65, 127
1, 383991, Note_off_c, 4, 66, 64
1, 383991, Note_off_c, 2, 69, 64
1, 384026, Note_on_c, 2, 69, 118
1, 384027, Note_on_c, 4, 66, 127
1, 384033, Note_off_c, 4, 65, 64
1, 384034, Note_off_c, 2, 68, 64
1, 384069, Note_on_c, 2, 68, 120
1, 384070, Note_on_c, 4, 65, 127
1, 384078, Note_off_c, 4, 66, 64
1, 384078, Note_off_c, 2, 69, 64
1, 384113, Note_on_c, 2, 69, 118
1, 384113, Note_on_c, 4, 66, 127
1, 384120, Note_off_c, 4, 65, 64
1, 384120, Note_off_c, 2, 68, 64
1, 384156, Note_on_c, 1, 83, 114
1, 384156, Note_on_c, 4, 55, 127
1, 384201, Note_on_c, 4, 59, 127
1, 384201, Note_on_c, 1, 79, 110
1, 384207, Note_off_c, 4, 55, 64
1, 384207, Note_off_c, 1, 83, 64
1, 384208, Note_off_c, 4, 66, 64
1, 384208, Note_off_c, 2, 69, 64
1, 384242, Note_on_c, 2, 74, 113
1, 384242, Note_on_c, 4, 62, 127
1, 384249, Note_off_c, 1, 79, 64
1, 384249, Note_off_c, 4, 59, 64
1, 384284, Note_on_c, 2, 71, 116
1, 384285, Note_on_c, 2, 67, 127
1, 384291, Note_off_c, 4, 62, 64
1, 384291, Note_off_c, 2, 74, 64
1, 384330, Note_on_c, 1, 79, 110
1, 384331, Note_on_c, 4, 45, 127
1, 384337, Note_off_c, 2, 67, 64
1, 384337, Note_off_c, 2, 71, 64
1, 384374, Note_on_c, 2, 76, 113
1, 384375, Note_on_c, 4, 49, 127
1, 384381, Note_off_c, 4, 45, 64
1, 384382, Note_off_c, 1, 79, 64
1, 384417, Note_on_c, 2, 73, 117
1, 384417, Note_on_c, 4, 52, 127
1, 384423, Note_off_c, 4, 49, 64
1, 384424, Note_off_c, 2, 76, 64
1, 384457, Note_on_c, 4, 57, 127
1, 384457, Note_on_c, 2, 69, 118
1, 384462, Note_off_c, 4, 52, 64
1, 384462, Note_off_c, 2, 73, 64
1, 384493, Note_off_c, 2, 69, 64
1, 384499, Note_on_c, 2, 74, 117
1, 384500, Note_on_c, 2, 69, 118
1, 384500, Note_on_c, 4, 66, 127
1, 384501, Note_on_c, 4, 62, 127
1, 384520, Note_off_c, 4, 57, 64
1, 384660, Note_off_c, 4, 62, 64
1, 384668, Note_off_c, 2, 69, 64
1, 384670, Note_off_c, 4, 66, 64
1, 384672, Note_off_c, 2, 74, 64
1, 384680, Note_on_c, 4, 50, 127
1, 384849, Note_off_c, 4, 50, 64
1, 384849, Note_on_c, 4, 33, 127
1, 385013, Note_on_c, 1, 81, 110
1, 385013, Note_on_c, 2, 72, 113
1, 385014, Note_on_c, 2, 69, 118
1, 385058, Note_on_c, 2, 67, 127
1, 385066, Note_off_c, 2, 69, 64
1, 385102, Note_on_c, 4, 66, 127
1, 385110, Note_off_c, 2, 67, 64
1, 385133, Note_off_c, 4, 33, 64
1, 385148, Note_on_c, 4, 64, 126
1, 385155, Note_off_c, 4, 66, 64
1, 385193, Note_off_c, 2, 72, 64
1, 385194, Note_on_c, 2, 71, 112
1, 385194, Note_on_c, 4, 63, 127
1, 385200, Note_off_c, 4, 64, 64
1, 385235, Note_on_c, 4, 61, 127
1, 385242, Note_off_c, 4, 63, 64
1, 385277, Note_on_c, 4, 63, 127
1, 385284, Note_off_c, 4, 61, 64
1, 385323, Note_on_c, 4, 59, 127
1, 385329, Note_off_c, 4, 63, 64
1, 385363, Note_off_c, 1, 81, 64
1, 385364, Note_on_c, 1, 79, 110
1, 385364, Note_on_c, 4, 64, 126
1, 385371, Note_off_c, 4, 59, 64
1, 385409, Note_on_c, 4, 66, 127
1, 385415, Note_off_c, 4, 64, 64
1, 385452, Note_on_c, 2, 67, 127
1, 385459, Note_off_c, 4, 66, 64
1, 385496, Note_on_c, 4, 64, 126
1, 385503, Note_off_c, 2, 67, 64
1, 385538, Note_off_c, 2, 71, 64
1, 385538, Note_on_c, 2, 69, 118
1, 385539, Note_on_c, 4, 61, 127
1, 385545, Note_off_c, 4, 64, 64
1, 385581, Note_on_c, 4, 59, 127
1, 385589, Note_off_c, 4, 61, 64
1, 385625, Note_on_c, 4, 61, 127
1, 385633, Note_off_c, 4, 59, 64
1, 385669, Note_on_c, 4, 57, 127
1, 385678, Note_off_c, 4, 61, 64
1, 385709, Note_off_c, 1, 79, 64
1, 385715, Note_on_c, 1, 78, 110
1, 385715, Note_on_c, 4, 62, 127
1, 385721, Note_off_c, 4, 57, 64
1, 385756, Note_on_c, 4, 64, 126
1, 385765, Note_off_c, 4, 62, 64
1, 385802, Note_on_c, 4, 66, 127
1, 385810, Note_off_c, 4, 64, 64
1, 385846, Note_on_c, 4, 62, 127
1, 385854, Note_off_c, 4, 66, 64
1, 385893, Note_off_c, 1, 78, 64
1, 385893, Note_off_c, 2, 69, 64
1, 385893, Note_on_c, 1, 86, 109
1, 385894, Note_on_c, 2, 71, 107
1, 385900, Note_off_c, 4, 62, 64
1, 385937, Note_on_c, 2, 70, 109
1, 385946, Note_off_c, 2, 71, 64
1, 385984, Note_on_c, 2, 71, 107
1, 385990, Note_off_c, 2, 70, 64
1, 386028, Note_off_c, 1, 86, 64
1, 386029, Note_on_c, 1, 82, 105
1, 386029, Note_on_c, 4, 66, 127
1, 386035, Note_off_c, 2, 71, 64
1, 386072, Note_on_c, 1, 83, 105
1, 386072, Note_on_c, 2, 67, 127
1, 386080, Note_off_c, 4, 66, 64
1, 386081, Note_off_c, 1, 82, 64
1, 386118, Note_on_c, 4, 66, 127
1, 386126, Note_off_c, 2, 67, 64
1, 386161, Note_on_c, 2, 67, 127
1, 386169, Note_off_c, 4, 66, 64
1, 386205, Note_off_c, 1, 83, 64
1, 386206, Note_on_c, 1, 78, 105
1, 386206, Note_on_c, 4, 62, 127
1, 386212, Note_off_c, 2, 67, 64
1, 386249, Note_on_c, 1, 79, 105
1, 386249, Note_on_c, 4, 64, 126
1, 386256, Note_off_c, 4, 62, 64
1, 386256, Note_off_c, 1, 78, 64
1, 386292, Note_on_c, 4, 62, 127
1, 386301, Note_off_c, 4, 64, 64
1, 386337, Note_on_c, 4, 64, 126
1, 386344, Note_off_c, 4, 62, 64
1, 386381, Note_off_c, 1, 79, 64
1, 386382, Note_on_c, 4, 59, 127
1, 386382, Note_on_c, 2, 74, 108
1, 386388, Note_off_c, 4, 64, 64
1, 386423, Note_on_c, 2, 76, 108
1, 386423, Note_on_c, 4, 61, 127
1, 386431, Note_off_c, 2, 74, 64
1, 386431, Note_off_c, 4, 59, 64
1, 386469, Note_on_c, 4, 59, 127
1, 386475, Note_off_c, 4, 61, 64
1, 386512, Note_on_c, 4, 61, 127
1, 386520, Note_off_c, 4, 59, 64
1, 386556, Note_off_c, 2, 76, 64
1, 386556, Note_on_c, 2, 71, 107
1, 386557, Note_on_c, 4, 56, 127
1, 386565, Note_off_c, 4, 61, 64
1, 386599, Note_on_c, 2, 73, 108
1, 386600, Note_on_c, 4, 57, 127
1, 386605, Note_off_c, 2, 71, 64
1, 386606, Note_off_c, 4, 56, 64
1, 386644, Note_on_c, 4, 55, 127
1, 386652, Note_off_c, 4, 57, 64
1, 386687, Note_on_c, 4, 54, 127
1, 386693, Note_off_c, 4, 55, 64
1, 386730, Note_on_c, 4, 52, 127
1, 386736, Note_off_c, 4, 54, 64
1, 386772, Note_on_c, 2, 76, 113
1, 386772, Note_on_c, 1, 79, 110
1, 386773, Note_off_c, 2, 73, 64
1, 386773, Note_on_c, 2, 69, 118
1, 386773, Note_on_c, 4, 50, 127
1, 386778, Note_off_c, 4, 52, 64
1, 386814, Note_on_c, 4, 49, 127
1, 386822, Note_off_c, 4, 50, 64
1, 386856, Note_on_c, 4, 47, 127
1, 386864, Note_off_c, 4, 49, 64
1, 386900, Note_on_c, 4, 45, 127
1, 386907, Note_off_c, 4, 47, 64
1, 386942, Note_on_c, 4, 50, 127
1, 386950, Note_off_c, 4, 45, 64
1, 386990, Note_on_c, 4, 49, 127
1, 386996, Note_off_c, 4, 50, 64
1, 387031, Note_on_c, 4, 50, 127
1, 387039, Note_off_c, 4, 49, 64
1, 387073, Note_on_c, 4, 52, 127
1, 387082, Note_off_c, 4, 50, 64
1, 387115, Note_off_c, 2, 76, 64
1, 387115, Note_off_c, 2, 69, 64
1, 387116, Note_off_c, 1, 79, 64
1, 387118, Note_on_c, 2, 74, 117
1, 387118, Note_on_c, 1, 79, 101
1, 387119, Note_on_c, 4, 54, 127
1, 387126, Note_off_c, 4, 52, 64
1, 387145, Note_on_c, 1, 78, 101
1, 387151, Note_off_c, 1, 79, 64
1, 387174, Note_on_c, 1, 79, 101
1, 387175, Note_on_c, 4, 52, 127
1, 387179, Note_off_c, 1, 78, 64
1, 387185, Note_off_c, 4, 54, 64
1, 387204, Note_on_c, 1, 78, 101
1, 387206, Note_off_c, 1, 79, 64
1, 387231, Note_on_c, 1, 79, 101
1, 387231, Note_on_c, 4, 54, 127
1, 387234, Note_off_c, 1, 78, 64
1, 387240, Note_off_c, 4, 52, 64
1, 387257, Note_on_c, 1, 78, 101
1, 387259, Note_off_c, 1, 79, 64
1, 387282, Note_on_c, 2, 76, 108
1, 387282, Note_on_c, 4, 55, 127
1, 387285, Note_off_c, 1, 78, 64
1, 387288, Note_off_c, 4, 54, 64
1, 387304, Note_on_c, 1, 78, 101
1, 387308, Note_off_c, 2, 76, 64
1, 387321, Note_off_c, 2, 74, 64
1, 387327, Note_on_c, 2, 73, 117
1, 387327, Note_on_c, 2, 76, 108
1, 387328, Note_on_c, 4, 57, 127
1, 387330, Note_off_c, 1, 78, 64
1, 387336, Note_off_c, 4, 55, 64
1, 387372, Note_on_c, 4, 61, 127
1, 387380, Note_off_c, 4, 57, 64
1, 387416, Note_on_c, 4, 64, 126
1, 387424, Note_off_c, 4, 61, 64
1, 387458, Note_on_c, 2, 69, 118
1, 387466, Note_off_c, 4, 64, 64
1, 387503, Note_on_c, 2, 68, 120
1, 387510, Note_off_c, 2, 69, 64
1, 387547, Note_on_c, 2, 69, 118
1, 387554, Note_off_c, 2, 68, 64
1, 387593, Note_on_c, 2, 68, 120
1, 387600, Note_off_c, 2, 69, 64
1, 387637, Note_off_c, 2, 76, 64
1, 387637, Note_off_c, 2, 73, 64
1, 387638, Note_on_c, 2, 69, 118
1, 387644, Note_off_c, 2, 68, 64
1, 387678, Note_on_c, 2, 69, 118
1, 387679, Note_on_c, 4, 57, 127
1, 387721, Note_on_c, 2, 73, 117
1, 387764, Note_on_c, 2, 76, 113
1, 387771, Note_off_c, 2, 73, 64
1, 387798, Note_off_c, 2, 69, 64
1, 387806, Note_on_c, 1, 81, 106
1, 387814, Note_off_c, 2, 76, 64
1, 387843, Note_off_c, 2, 69, 64
1, 387851, Note_on_c, 1, 80, 110
1, 387859, Note_off_c, 1, 81, 64
1, 387893, Note_on_c, 1, 81, 106
1, 387901, Note_off_c, 1, 80, 64
1, 387937, Note_on_c, 1, 80, 110
1, 387946, Note_off_c, 1, 81, 64
1, 387981, Note_off_c, 4, 57, 64
1, 387981, Note_on_c, 1, 81, 106
1, 387989, Note_off_c, 1, 80, 64
1, 388026, Note_on_c, 2, 69, 118
1, 388076, Note_off_c, 1, 81, 64
1, 388197, Note_on_c, 4, 57, 127
1, 388200, Note_off_c, 2, 69, 64
1, 388362, Note_on_c, 4, 33, 127
1, 388476, Note_off_c, 4, 57, 64
1, 388515, Note_on_c, 2, 69, 118
1, 388632, Note_off_c, 4, 33, 64
1, 388686, Note_off_c, 2, 69, 64
1, 388692, Note_on_c, 4, 66, 127
1, 388693, Note_on_c, 4, 50, 127
1, 388711, Note_on_c, 2, 69, 118
1, 388730, Note_on_c, 2, 74, 117
1, 388761, Note_on_c, 4, 54, 127
1, 388766, Note_off_c, 4, 50, 64
1, 388805, Note_on_c, 4, 57, 127
1, 388812, Note_off_c, 4, 54, 64
1, 388849, Note_on_c, 4, 62, 127
1, 388857, Note_off_c, 4, 57, 64
1, 388897, Note_on_c, 4, 61, 127
1, 388905, Note_off_c, 4, 62, 64
1, 388941, Note_on_c, 4, 62, 127
1, 388949, Note_off_c, 4, 61, 64
1, 388987, Note_on_c, 4, 61, 127
1, 388995, Note_off_c, 4, 62, 64
1, 389031, Note_on_c, 4, 62, 127
1, 389039, Note_off_c, 4, 61, 64
1, 389040, Note_off_c, 4, 66, 64
1, 389049, Note_off_c, 2, 69, 64
1, 389063, Note_off_c, 2, 74, 64
1, 389078, Note_on_c, 1, 78, 114
1, 389079, Note_on_c, 2, 74, 113
1, 389079, Note_on_c, 4, 47, 127
1, 389121, Note_on_c, 4, 50, 127
1, 389128, Note_off_c, 4, 47, 64
1, 389130, Note_off_c, 4, 62, 64
1, 389163, Note_on_c, 4, 54, 127
1, 389171, Note_off_c, 4, 50, 64
1, 389205, Note_on_c, 4, 59, 127
1, 389213, Note_off_c, 4, 54, 64
1, 389244, Note_off_c, 2, 74, 64
1, 389244, Note_off_c, 1, 78, 64
1, 389250, Note_on_c, 2, 74, 113
1, 389251, Note_on_c, 4, 58, 127
1, 389251, Note_on_c, 4, 66, 127
1, 389257, Note_off_c, 4, 59, 64
1, 389292, Note_on_c, 4, 59, 127
1, 389300, Note_off_c, 4, 58, 64
1, 389339, Note_on_c, 4, 58, 127
1, 389346, Note_off_c, 4, 59, 64
1, 389381, Note_on_c, 4, 59, 127
1, 389388, Note_off_c, 4, 58, 64
1, 389417, Note_off_c, 4, 66, 64
1, 389418, Note_off_c, 2, 74, 64
1, 389426, Note_on_c, 2, 71, 112
1, 389426, Note_on_c, 1, 79, 114
1, 389427, Note_on_c, 4, 43, 127
1, 389467, Note_on_c, 4, 47, 127
1, 389475, Note_off_c, 4, 43, 64
1, 389478, Note_off_c, 4, 59, 64
1, 389510, Note_on_c, 4, 52, 127
1, 389518, Note_off_c, 4, 47, 64
1, 389553, Note_on_c, 4, 55, 127
1, 389560, Note_off_c, 4, 52, 64
1, 389599, Note_on_c, 4, 54, 127
1, 389606, Note_off_c, 4, 55, 64
1, 389642, Note_on_c, 4, 55, 127
1, 389648, Note_off_c, 4, 54, 64
1, 389678, Note_off_c, 2, 71, 64
1, 389679, Note_off_c, 1, 79, 64
1, 389687, Note_on_c, 2, 76, 116
1, 389688, Note_on_c, 4, 54, 127
1, 389694, Note_off_c, 4, 55, 64
1, 389726, Note_on_c, 4, 55, 127
1, 389732, Note_off_c, 4, 54, 64
1, 389763, Note_off_c, 2, 76, 64
1, 389771, Note_on_c, 2, 73, 113
1, 389771, Note_on_c, 4, 45, 127
1, 389812, Note_on_c, 4, 49, 127
1, 389820, Note_off_c, 4, 45, 64
1, 389821, Note_off_c, 4, 55, 64
1, 389854, Note_on_c, 4, 52, 127
1, 389862, Note_off_c, 4, 49, 64
1, 389896, Note_on_c, 4, 57, 127
1, 389904, Note_off_c, 4, 52, 64
1, 389935, Note_off_c, 2, 73, 64
1, 389940, Note_on_c, 2, 69, 114
1, 389941, Note_on_c, 4, 56, 127
1, 389950, Note_off_c, 4, 57, 64
1, 389985, Note_on_c, 4, 57, 127
1, 389990, Note_off_c, 4, 56, 64
1, 390029, Note_on_c, 4, 56, 127
1, 390037, Note_off_c, 4, 57, 64
1, 390072, Note_on_c, 4, 57, 127
1, 390080, Note_off_c, 4, 56, 64
1, 390110, Note_off_c, 2, 69, 64
1, 390118, Note_on_c, 1, 81, 110
1, 390119, Note_on_c, 4, 54, 127
1, 390127, Note_off_c, 4, 57, 64
1, 390163, Note_on_c, 1, 78, 110
1, 390164, Note_on_c, 4, 57, 127
1, 390170, Note_off_c, 4, 54, 64
1, 390170, Note_off_c, 1, 81, 64
1, 390207, Note_on_c, 2, 74, 113
1, 390208, Note_on_c, 4, 62, 127
1, 390214, Note_off_c, 4, 57, 64
1, 390215, Note_off_c, 1, 78, 64
1, 390250, Note_on_c, 2, 69, 114
1, 390250, Note_on_c, 4, 66, 127
1, 390256, Note_off_c, 4, 62, 64
1, 390257, Note_off_c, 2, 74, 64
1, 390294, Note_on_c, 2, 68, 116
1, 390294, Note_on_c, 4, 65, 127
1, 390300, Note_off_c, 4, 66, 64
1, 390301, Note_off_c, 2, 69, 64
1, 390338, Note_on_c, 2, 69, 114
1, 390338, Note_on_c, 4, 66, 127
1, 390345, Note_off_c, 4, 65, 64
1, 390346, Note_off_c, 2, 68, 64
1, 390382, Note_on_c, 2, 68, 116
1, 390383, Note_on_c, 4, 65, 127
1, 390389, Note_off_c, 4, 66, 64
1, 390389, Note_off_c, 2, 69, 64
1, 390426, Note_on_c, 2, 69, 114
1, 390427, Note_on_c, 4, 66, 127
1, 390433, Note_off_c, 4, 65, 64
1, 390433, Note_off_c, 2, 68, 64
1, 390470, Note_on_c, 1, 83, 110
1, 390471, Note_on_c, 4, 55, 127
1, 390516, Note_on_c, 1, 79, 110
1, 390516, Note_on_c, 4, 59, 127
1, 390522, Note_off_c, 4, 55, 64
1, 390523, Note_off_c, 4, 66, 64
1, 390523, Note_off_c, 1, 83, 64
1, 390524, Note_off_c, 2, 69, 64
1, 390557, Note_on_c, 2, 74, 113
1, 390557, Note_on_c, 4, 62, 127
1, 390564, Note_off_c, 4, 59, 64
1, 390564, Note_off_c, 1, 79, 64
1, 390600, Note_on_c, 2, 71, 112
1, 390600, Note_on_c, 2, 67, 127
1, 390606, Note_off_c, 4, 62, 64
1, 390606, Note_off_c, 2, 74, 64
1, 390641, Note_on_c, 1, 79, 114
1, 390642, Note_on_c, 4, 45, 127
1, 390650, Note_off_c, 2, 67, 64
1, 390650, Note_off_c, 2, 71, 64
1, 390687, Note_on_c, 2, 76, 113
1, 390688, Note_on_c, 4, 49, 127
1, 390696, Note_off_c, 4, 45, 64
1, 390696, Note_off_c, 1, 79, 64
1, 390732, Note_on_c, 2, 73, 113
1, 390732, Note_on_c, 4, 52, 127
1, 390741, Note_off_c, 2, 76, 64
1, 390741, Note_off_c, 4, 49, 64
1, 390778, Note_on_c, 2, 69, 118
1, 390778, Note_on_c, 4, 57, 127
1, 390786, Note_off_c, 4, 52, 64
1, 390787, Note_off_c, 2, 73, 64
1, 390816, Note_off_c, 2, 69, 64
1, 390822, Note_on_c, 4, 66, 127
1, 390823, Note_on_c, 4, 62, 127
1, 390840, Note_off_c, 4, 57, 64
1, 390844, Note_on_c, 2, 69, 118
1, 390857, Note_on_c, 2, 74, 117
1, 391065, Note_on_c, 4, 50, 127
1, 391190, Note_off_c, 4, 66, 64
1, 391190, Note_off_c, 4, 62, 64
1, 391194, Note_off_c, 2, 69, 64
1, 391200, Note_off_c, 2, 74, 64
1, 391593, Note_off_c, 4, 50, 64
1, 391795, Note_on_c, 1, 81, 104
1, 391872, Note_off_c, 1, 81, 64
1, 391910, Note_on_c, 1, 81, 104
1, 391987, Note_off_c, 1, 81, 64
1, 392023, Note_on_c, 1, 81, 104
1, 392125, Note_off_c, 1, 81, 64
1, 392135, Note_on_c, 1, 81, 104
1, 392231, Note_off_c, 1, 81, 64
1, 392238, Note_on_c, 1, 81, 104
1, 392239, Note_on_c, 4, 66, 123
1, 392239, Note_on_c, 4, 62, 127
1, 392344, Note_on_c, 4, 64, 121
1, 392344, Note_on_c, 2, 67, 123
1, 392356, Note_off_c, 4, 62, 64
1, 392357, Note_off_c, 4, 66, 64
1, 392446, Note_off_c, 1, 81, 64
1, 392449, Note_on_c, 2, 74, 107
1, 392450, Note_on_c, 2, 69, 113
1, 392450, Note_on_c, 4, 66, 123
1, 392460, Note_off_c, 2, 67, 64
1, 392460, Note_off_c, 4, 64, 64
1, 392545, Note_off_c, 4, 66, 64
1, 392553, Note_off_c, 2, 69, 64
1, 392554, Note_on_c, 4, 62, 127
1, 392554, Note_on_c, 4, 66, 123
1, 392650, Note_off_c, 4, 62, 64
1, 392651, Note_off_c, 2, 74, 64
1, 392659, Note_off_c, 4, 66, 64
1, 392659, Note_on_c, 1, 86, 104
1, 392660, Note_on_c, 4, 62, 127
1, 392660, Note_on_c, 4, 59, 127
1, 392732, Note_off_c, 1, 86, 64
1, 392768, Note_off_c, 4, 59, 64
1, 392769, Note_off_c, 4, 62, 64
1, 392769, Note_on_c, 1, 86, 104
1, 392770, Note_on_c, 4, 64, 121
1, 392770, Note_on_c, 4, 61, 127
1, 392841, Note_off_c, 1, 86, 64
1, 392878, Note_off_c, 4, 61, 64
1, 392878, Note_off_c, 4, 64, 64
1, 392879, Note_on_c, 4, 66, 123
1, 392879, Note_on_c, 1, 86, 104
1, 392880, Note_on_c, 4, 62, 127
1, 392977, Note_off_c, 4, 62, 64
1, 392978, Note_off_c, 1, 86, 64
1, 392986, Note_off_c, 4, 66, 64
1, 392987, Note_on_c, 1, 86, 104
1, 392987, Note_on_c, 4, 62, 127
1, 392988, Note_on_c, 4, 59, 127
1, 393082, Note_off_c, 1, 86, 64
1, 393084, Note_off_c, 4, 59, 64
1, 393092, Note_off_c, 4, 62, 64
1, 393092, Note_on_c, 1, 86, 104
1, 393093, Note_on_c, 4, 59, 127
1, 393094, Note_on_c, 4, 55, 127
1, 393197, Note_on_c, 4, 61, 127
1, 393199, Note_off_c, 4, 55, 64
1, 393200, Note_off_c, 4, 59, 64
1, 393200, Note_on_c, 4, 57, 127
1, 393300, Note_off_c, 1, 86, 64
1, 393306, Note_off_c, 4, 61, 64
1, 393306, Note_on_c, 2, 76, 107
1, 393307, Note_off_c, 4, 57, 64
1, 393307, Note_on_c, 4, 62, 127
1, 393308, Note_on_c, 4, 59, 127
1, 393404, Note_off_c, 4, 59, 64
1, 393411, Note_off_c, 4, 62, 64
1, 393412, Note_on_c, 4, 59, 127
1, 393412, Note_on_c, 4, 55, 127
1, 393503, Note_off_c, 2, 76, 64
1, 393511, Note_off_c, 4, 55, 64
1, 393511, Note_off_c, 4, 59, 64
1, 393512, Note_on_c, 4, 61, 127
1, 393512, Note_on_c, 1, 79, 104
1, 393513, Note_on_c, 4, 57, 127
1, 393611, Note_off_c, 1, 79, 64
1, 393618, Note_on_c, 1, 79, 104
1, 393620, Note_off_c, 4, 61, 64
1, 393620, Note_off_c, 4, 57, 64
1, 393621, Note_on_c, 4, 62, 127
1, 393621, Note_on_c, 4, 59, 127
1, 393720, Note_off_c, 1, 79, 64
1, 393730, Note_off_c, 4, 59, 64
1, 393730, Note_on_c, 1, 79, 104
1, 393731, Note_off_c, 4, 62, 64
1, 393731, Note_on_c, 4, 64, 121
1, 393731, Note_on_c, 4, 61, 127
1, 393828, Note_off_c, 4, 61, 64
1, 393828, Note_off_c, 1, 79, 64
1, 393837, Note_on_c, 1, 79, 104
1, 393838, Note_on_c, 4, 57, 127
1, 393838, Note_on_c, 4, 61, 127
1, 393839, Note_off_c, 4, 64, 64
1, 393933, Note_off_c, 1, 79, 64
1, 393941, Note_off_c, 4, 61, 64
1, 393941, Note_off_c, 4, 57, 64
1, 393942, Note_on_c, 4, 62, 127
1, 393942, Note_on_c, 1, 78, 104
1, 394091, Note_off_c, 1, 78, 64
1, 394094, Note_on_c, 2, 74, 107
1, 394144, Note_on_c, 1, 81, 104
1, 394145, Note_on_c, 4, 60, 127
1, 394153, Note_off_c, 2, 74, 64
1, 394299, Note_on_c, 1, 78, 104
1, 394301, Note_off_c, 1, 81, 64
1, 394349, Note_off_c, 1, 78, 64
1, 394349, Note_on_c, 1, 79, 104
1, 394350, Note_on_c, 4, 59, 127
1, 394359, Note_off_c, 4, 60, 64
1, 394494, Note_off_c, 1, 79, 64
1, 394503, Note_on_c, 2, 74, 107
1, 394551, Note_off_c, 2, 74, 64
1, 394552, Note_off_c, 4, 59, 64
1, 394552, Note_on_c, 1, 83, 104
1, 394553, Note_on_c, 4, 55, 127
1, 394553, Note_on_c, 1, 79, 104
1, 394697, Note_off_c, 1, 79, 64
1, 394698, Note_off_c, 1, 83, 64
1, 394708, Note_on_c, 1, 79, 104
1, 394708, Note_on_c, 2, 76, 107
1, 394751, Note_off_c, 2, 76, 64
1, 394752, Note_off_c, 1, 79, 64
1, 394756, Note_off_c, 4, 55, 64
1, 394760, Note_on_c, 2, 74, 107
1, 394760, Note_on_c, 1, 78, 104
1, 394761, Note_on_c, 4, 57, 127
1, 394774, Note_off_c, 4, 62, 64
1, 394971, Note_on_c, 2, 73, 107
1, 394971, Note_on_c, 2, 76, 107
1, 394974, Note_off_c, 1, 78, 64
1, 394974, Note_off_c, 2, 74, 64
1, 395176, Note_on_c, 1, 81, 104
1, 395180, Note_off_c, 2, 73, 64
1, 395181, Note_off_c, 2, 76, 64
1, 395251, Note_off_c, 1, 81, 64
1, 395286, Note_on_c, 1, 81, 104
1, 395361, Note_off_c, 1, 81, 64
1, 395397, Note_on_c, 1, 81, 104
1, 395499, Note_off_c, 1, 81, 64
1, 395508, Note_on_c, 1, 81, 104
1, 395605, Note_off_c, 1, 81, 64
1, 395614, Note_off_c, 4, 57, 64
1, 395615, Note_on_c, 1, 81, 104
1, 395615, Note_on_c, 4, 66, 123
1, 395616, Note_on_c, 4, 62, 127
1, 395720, Note_on_c, 2, 67, 123
1, 395721, Note_on_c, 4, 64, 121
1, 395732, Note_off_c, 4, 62, 64
1, 395733, Note_off_c, 4, 66, 64
1, 395820, Note_off_c, 1, 81, 64
1, 395828, Note_on_c, 2, 74, 107
1, 395828, Note_on_c, 2, 69, 113
1, 395828, Note_on_c, 4, 66, 123
1, 395840, Note_off_c, 2, 67, 64
1, 395840, Note_off_c, 4, 64, 64
1, 395931, Note_on_c, 2, 67, 123
1, 395932, Note_on_c, 4, 64, 121
1, 395943, Note_off_c, 4, 66, 64
1, 395944, Note_off_c, 2, 69, 64
1, 396035, Note_off_c, 2, 74, 64
1, 396036, Note_on_c, 1, 86, 104
1, 396036, Note_on_c, 4, 66, 123
1, 396036, Note_on_c, 4, 62, 127
1, 396046, Note_off_c, 4, 64, 64
1, 396047, Note_off_c, 2, 67, 64
1, 396111, Note_off_c, 1, 86, 64
1, 396147, Note_on_c, 1, 86, 104
1, 396148, Note_on_c, 4, 61, 127
1, 396148, Note_on_c, 4, 64, 121
1, 396160, Note_off_c, 4, 62, 64
1, 396161, Note_off_c, 4, 66, 64
1, 396221, Note_off_c, 1, 86, 64
1, 396258, Note_on_c, 1, 86, 104
1, 396258, Note_on_c, 4, 62, 127
1, 396259, Note_on_c, 4, 59, 127
1, 396270, Note_off_c, 4, 64, 64
1, 396270, Note_off_c, 4, 61, 64
1, 396356, Note_off_c, 1, 86, 64
1, 396365, Note_on_c, 1, 86, 104
1, 396366, Note_on_c, 4, 57, 127
1, 396366, Note_on_c, 4, 61, 127
1, 396377, Note_off_c, 4, 59, 64
1, 396377, Note_off_c, 4, 62, 64
1, 396462, Note_off_c, 1, 86, 64
1, 396470, Note_on_c, 1, 86, 104
1, 396471, Note_on_c, 4, 59, 127
1, 396472, Note_on_c, 4, 56, 127
1, 396482, Note_off_c, 4, 57, 64
1, 396483, Note_off_c, 4, 61, 64
1, 396574, Note_on_c, 4, 57, 127
1, 396574, Note_on_c, 4, 54, 127
1, 396586, Note_off_c, 4, 59, 64
1, 396586, Note_off_c, 4, 56, 64
1, 396676, Note_on_c, 1, 80, 104
1, 396677, Note_on_c, 4, 56, 127
1, 396678, Note_on_c, 4, 52, 127
1, 396688, Note_off_c, 4, 54, 64
1, 396688, Note_off_c, 4, 57, 64
1, 396693, Note_off_c, 1, 86, 64
1, 396781, Note_on_c, 4, 57, 127
1, 396781, Note_on_c, 4, 54, 127
1, 396792, Note_off_c, 4, 56, 64
1, 396792, Note_off_c, 4, 52, 64
1, 396865, Note_off_c, 1, 80, 64
1, 396883, Note_on_c, 4, 59, 127
1, 396883, Note_on_c, 1, 83, 104
1, 396884, Note_on_c, 4, 56, 127
1, 396893, Note_off_c, 4, 54, 64
1, 396894, Note_off_c, 4, 57, 64
1, 396986, Note_on_c, 4, 61, 127
1, 396987, Note_on_c, 4, 57, 127
1, 396997, Note_off_c, 4, 59, 64
1, 396997, Note_off_c, 4, 56, 64
1, 397088, Note_on_c, 2, 76, 107
1, 397089, Note_on_c, 4, 62, 127
1, 397089, Note_on_c, 4, 59, 127
1, 397091, Note_off_c, 1, 83, 64
1, 397101, Note_off_c, 4, 57, 64
1, 397101, Note_off_c, 4, 61, 64
1, 397182, Note_off_c, 4, 59, 64
1, 397192, Note_off_c, 4, 62, 64
1, 397192, Note_on_c, 4, 59, 127
1, 397193, Note_on_c, 4, 56, 127
1, 397277, Note_off_c, 2, 76, 64
1, 397293, Note_on_c, 2, 76, 107
1, 397295, Note_off_c, 4, 59, 64
1, 397295, Note_off_c, 4, 56, 64
1, 397296, Note_on_c, 4, 57, 127
1, 397296, Note_on_c, 4, 61, 127
1, 397433, Note_off_c, 2, 76, 64
1, 397448, Note_on_c, 1, 81, 104
1, 397496, Note_on_c, 1, 78, 104
1, 397497, Note_on_c, 4, 50, 127
1, 397497, Note_on_c, 4, 59, 127
1, 397500, Note_off_c, 4, 61, 64
1, 397500, Note_off_c, 4, 57, 64
1, 397505, Note_off_c, 1, 81, 64
1, 397649, Note_off_c, 1, 78, 64
1, 397651, Note_on_c, 2, 74, 107
1, 397700, Note_off_c, 2, 74, 64
1, 397700, Note_on_c, 2, 73, 107
1, 397701, Note_on_c, 4, 57, 127
1, 397701, Note_on_c, 4, 52, 127
1, 397704, Note_off_c, 4, 59, 64
1, 397704, Note_off_c, 4, 50, 64
1, 397847, Note_off_c, 2, 73, 64
1, 397854, Note_on_c, 2, 76, 107
1, 397896, Note_off_c, 4, 52, 64
1, 397897, Note_off_c, 4, 57, 64
1, 397903, Note_off_c, 2, 76, 64
1, 397904, Note_on_c, 4, 56, 127
1, 397904, Note_on_c, 2, 74, 107
1, 397905, Note_on_c, 4, 52, 127
1, 398043, Note_off_c, 2, 74, 64
1, 398057, Note_on_c, 2, 71, 111
1, 398100, Note_off_c, 2, 71, 64
1, 398101, Note_off_c, 4, 56, 64
1, 398101, Note_off_c, 4, 52, 64
1, 398110, Note_on_c, 4, 56, 127
1, 398110, Note_on_c, 2, 71, 111
1, 398302, Note_off_c, 4, 56, 64
1, 398310, Note_off_c, 2, 71, 64
1, 398312, Note_on_c, 2, 69, 113
1, 398313, Note_on_c, 4, 57, 127
1, 398508, Note_off_c, 2, 69, 64
1, 398508, Note_on_c, 4, 45, 127
1, 398510, Note_off_c, 4, 57, 64
1, 398933, Note_on_c, 1, 81, 104
1, 399021, Note_off_c, 1, 81, 64
1, 399050, Note_on_c, 1, 81, 104
1, 399132, Note_off_c, 1, 81, 64
1, 399159, Note_on_c, 1, 81, 104
1, 399259, Note_off_c, 1, 81, 64
1, 399268, Note_on_c, 1, 81, 104
1, 399364, Note_off_c, 1, 81, 64
1, 399372, Note_off_c, 4, 45, 64
1, 399372, Note_on_c, 1, 81, 104
1, 399372, Note_on_c, 4, 66, 123
1, 399373, Note_on_c, 4, 62, 127
1, 399477, Note_on_c, 2, 67, 123
1, 399478, Note_on_c, 4, 64, 121
1, 399490, Note_off_c, 4, 62, 64
1, 399490, Note_off_c, 4, 66, 64
1, 399581, Note_on_c, 2, 69, 113
1, 399581, Note_on_c, 2, 74, 107
1, 399582, Note_on_c, 4, 66, 123
1, 399591, Note_off_c, 4, 64, 64
1, 399592, Note_off_c, 2, 67, 64
1, 399592, Note_off_c, 1, 81, 64
1, 399677, Note_off_c, 4, 66, 64
1, 399684, Note_on_c, 4, 66, 123
1, 399685, Note_on_c, 4, 62, 127
1, 399697, Note_off_c, 2, 69, 64
1, 399755, Note_off_c, 2, 74, 64
1, 399781, Note_off_c, 4, 62, 64
1, 399789, Note_off_c, 4, 66, 64
1, 399790, Note_on_c, 4, 62, 127
1, 399790, Note_on_c, 1, 86, 104
1, 399791, Note_on_c, 4, 59, 127
1, 399862, Note_off_c, 1, 86, 64
1, 399893, Note_off_c, 4, 62, 64
1, 399900, Note_on_c, 1, 86, 104
1, 399902, Note_off_c, 4, 59, 64
1, 399903, Note_on_c, 4, 64, 121
1, 399903, Note_on_c, 4, 61, 127
1, 399976, Note_off_c, 1, 86, 64
1, 400011, Note_on_c, 4, 66, 123
1, 400011, Note_on_c, 1, 86, 104
1, 400012, Note_off_c, 4, 61, 64
1, 400012, Note_off_c, 4, 64, 64
1, 400013, Note_on_c, 4, 62, 127
1, 400110, Note_off_c, 1, 86, 64
1, 400112, Note_off_c, 4, 62, 64
1, 400119, Note_off_c, 4, 66, 64
1, 400120, Note_on_c, 1, 86, 104
1, 400120, Note_on_c, 4, 62, 127
1, 400121, Note_on_c, 4, 59, 127
1, 400217, Note_off_c, 1, 86, 64
1, 400218, Note_off_c, 4, 59, 64
1, 400226, Note_off_c, 4, 62, 64
1, 400226, Note_on_c, 1, 86, 104
1, 400227, Note_on_c, 4, 55, 127
1, 400227, Note_on_c, 4, 59, 127
1, 400332, Note_off_c, 4, 59, 64
1, 400332, Note_off_c, 4, 55, 64
1, 400332, Note_on_c, 4, 61, 127
1, 400333, Note_on_c, 4, 57, 127
1, 400429, Note_off_c, 1, 86, 64
1, 400436, Note_on_c, 2, 76, 107
1, 400437, Note_off_c, 4, 57, 64
1, 400438, Note_off_c, 4, 61, 64
1, 400438, Note_on_c, 4, 62, 127
1, 400439, Note_on_c, 4, 59, 127
1, 400537, Note_off_c, 4, 59, 64
1, 400545, Note_off_c, 4, 62, 64
1, 400546, Note_on_c, 4, 55, 127
1, 400546, Note_on_c, 4, 59, 127
1, 400617, Note_off_c, 2, 76, 64
1, 400652, Note_off_c, 4, 55, 64
1, 400652, Note_on_c, 1, 79, 104
1, 400653, Note_off_c, 4, 59, 64
1, 400653, Note_on_c, 4, 61, 127
1, 400653, Note_on_c, 4, 57, 127
1, 400750, Note_off_c, 1, 79, 64
1, 400759, Note_on_c, 1, 79, 104
1, 400760, Note_off_c, 4, 57, 64
1, 400760, Note_off_c, 4, 61, 64
1, 400761, Note_on_c, 4, 59, 127
1, 400761, Note_on_c, 4, 62, 127
1, 400859, Note_off_c, 1, 79, 64
1, 400869, Note_off_c, 4, 59, 64
1, 400869, Note_on_c, 1, 79, 104
1, 400870, Note_off_c, 4, 62, 64
1, 400870, Note_on_c, 4, 64, 121
1, 400871, Note_on_c, 4, 61, 127
1, 400966, Note_off_c, 1, 79, 64
1, 400967, Note_off_c, 4, 61, 64
1, 400975, Note_on_c, 1, 79, 104
1, 400976, Note_off_c, 4, 64, 64
1, 400976, Note_on_c, 4, 61, 127
1, 400977, Note_on_c, 4, 57, 127
1, 401071, Note_off_c, 1, 79, 64
1, 401079, Note_on_c, 1, 78, 104
1, 401080, Note_off_c, 4, 57, 64
1, 401081, Note_off_c, 4, 61, 64
1, 401081, Note_on_c, 4, 62, 127
1, 401235, Note_on_c, 2, 74, 107
1, 401276, Note_off_c, 1, 78, 64
1, 401283, Note_on_c, 1, 81, 104
1, 401284, Note_on_c, 4, 60, 127
1, 401288, Note_off_c, 4, 62, 64
1, 401309, Note_off_c, 2, 74, 64
1, 401430, Note_off_c, 1, 81, 64
1, 401438, Note_on_c, 1, 78, 104
1, 401488, Note_on_c, 4, 59, 127
1, 401488, Note_on_c, 1, 79, 104
1, 401491, Note_off_c, 4, 60, 64
1, 401496, Note_off_c, 1, 78, 64
1, 401640, Note_on_c, 2, 74, 107
1, 401681, Note_off_c, 1, 79, 64
1, 401690, Note_on_c, 1, 83, 104
1, 401691, Note_on_c, 4, 55, 127
1, 401691, Note_on_c, 1, 79, 104
1, 401693, Note_off_c, 4, 59, 64
1, 401716, Note_off_c, 2, 74, 64
1, 401837, Note_off_c, 1, 79, 64
1, 401838, Note_off_c, 1, 83, 64
1, 401846, Note_on_c, 1, 79, 104
1, 401846, Note_on_c, 2, 76, 107
1, 401893, Note_off_c, 2, 76, 64
1, 401893, Note_off_c, 1, 79, 64
1, 401902, Note_on_c, 2, 74, 107
1, 401902, Note_on_c, 1, 78, 104
1, 401903, Note_on_c, 4, 57, 127
1, 401906, Note_off_c, 4, 55, 64
1, 402114, Note_on_c, 2, 73, 107
1, 402114, Note_on_c, 2, 76, 107
1, 402119, Note_off_c, 1, 78, 64
1, 402119, Note_off_c, 2, 74, 64
1, 402329, Note_on_c, 1, 81, 104
1, 402333, Note_off_c, 2, 76, 64
1, 402333, Note_off_c, 2, 73, 64
1, 402420, Note_off_c, 1, 81, 64
1, 402439, Note_on_c, 1, 81, 104
1, 402528, Note_off_c, 1, 81, 64
1, 402545, Note_on_c, 1, 81, 104
1, 402639, Note_off_c, 1, 81, 64
1, 402647, Note_on_c, 1, 81, 104
1, 402743, Note_off_c, 1, 81, 64
1, 402752, Note_on_c, 1, 81, 104
1, 402753, Note_on_c, 4, 66, 123
1, 402753, Note_on_c, 4, 62, 127
1, 402754, Note_off_c, 4, 57, 64
1, 402856, Note_on_c, 4, 64, 121
1, 402856, Note_on_c, 2, 67, 123
1, 402868, Note_off_c, 4, 62, 64
1, 402869, Note_off_c, 4, 66, 64
1, 402964, Note_on_c, 2, 74, 107
1, 402964, Note_on_c, 2, 69, 113
1, 402965, Note_on_c, 4, 66, 123
1, 402966, Note_off_c, 1, 81, 64
1, 402974, Note_off_c, 2, 67, 64
1, 402974, Note_off_c, 4, 64, 64
1, 403069, Note_on_c, 2, 67, 123
1, 403070, Note_on_c, 4, 64, 121
1, 403081, Note_off_c, 4, 66, 64
1, 403082, Note_off_c, 2, 69, 64
1, 403174, Note_off_c, 2, 74, 64
1, 403175, Note_on_c, 4, 62, 127
1, 403175, Note_on_c, 4, 66, 123
1, 403175, Note_on_c, 1, 86, 104
1, 403185, Note_off_c, 4, 64, 64
1, 403186, Note_off_c, 2, 67, 64
1, 403246, Note_off_c, 1, 86, 64
1, 403283, Note_on_c, 1, 86, 104
1, 403283, Note_on_c, 4, 64, 121
1, 403284, Note_on_c, 4, 61, 127
1, 403295, Note_off_c, 4, 62, 64
1, 403296, Note_off_c, 4, 66, 64
1, 403354, Note_off_c, 1, 86, 64
1, 403388, Note_on_c, 1, 86, 104
1, 403389, Note_on_c, 4, 59, 127
1, 403389, Note_on_c, 4, 62, 127
1, 403401, Note_off_c, 4, 61, 64
1, 403401, Note_off_c, 4, 64, 64
1, 403484, Note_off_c, 1, 86, 64
1, 403494, Note_on_c, 1, 86, 104
1, 403494, Note_on_c, 4, 61, 127
1, 403495, Note_on_c, 4, 57, 127
1, 403504, Note_off_c, 4, 62, 64
1, 403504, Note_off_c, 4, 59, 64
1, 403586, Note_off_c, 1, 86, 64
1, 403594, Note_on_c, 4, 59, 127
1, 403594, Note_on_c, 1, 86, 104
1, 403595, Note_on_c, 4, 56, 127
1, 403604, Note_off_c, 4, 57, 64
1, 403604, Note_off_c, 4, 61, 64
1, 403695, Note_on_c, 4, 57, 127
1, 403696, Note_on_c, 4, 54, 127
1, 403708, Note_off_c, 4, 59, 64
1, 403708, Note_off_c, 4, 56, 64
1, 403799, Note_on_c, 1, 80, 104
1, 403800, Note_on_c, 4, 56, 127
1, 403800, Note_on_c, 4, 52, 127
1, 403808, Note_off_c, 1, 86, 64
1, 403810, Note_off_c, 4, 54, 64
1, 403810, Note_off_c, 4, 57, 64
1, 403901, Note_on_c, 4, 54, 127
1, 403901, Note_on_c, 4, 57, 127
1, 403912, Note_off_c, 4, 52, 64
1, 403913, Note_off_c, 4, 56, 64
1, 404005, Note_on_c, 1, 83, 104
1, 404006, Note_on_c, 4, 59, 127
1, 404006, Note_on_c, 4, 56, 127
1, 404008, Note_off_c, 1, 80, 64
1, 404016, Note_off_c, 4, 57, 64
1, 404016, Note_off_c, 4, 54, 64
1, 404107, Note_on_c, 4, 61, 127
1, 404108, Note_on_c, 4, 57, 127
1, 404120, Note_off_c, 4, 56, 64
1, 404120, Note_off_c, 4, 59, 64
1, 404211, Note_on_c, 2, 76, 107
1, 404211, Note_on_c, 4, 62, 127
1, 404212, Note_on_c, 4, 59, 127
1, 404214, Note_off_c, 1, 83, 64
1, 404221, Note_off_c, 4, 57, 64
1, 404222, Note_off_c, 4, 61, 64
1, 404305, Note_off_c, 4, 59, 64
1, 404313, Note_off_c, 4, 62, 64
1, 404313, Note_on_c, 4, 59, 127
1, 404314, Note_on_c, 4, 56, 127
1, 404410, Note_off_c, 2, 76, 64
1, 404415, Note_off_c, 4, 56, 64
1, 404416, Note_off_c, 4, 59, 64
1, 404416, Note_on_c, 2, 76, 107
1, 404417, Note_on_c, 4, 61, 127
1, 404417, Note_on_c, 4, 57, 127
1, 404571, Note_on_c, 1, 81, 104
1, 404582, Note_off_c, 2, 76, 64
1, 404621, Note_off_c, 1, 81, 64
1, 404621, Note_on_c, 1, 78, 104
1, 404622, Note_on_c, 4, 50, 127
1, 404622, Note_on_c, 4, 59, 127
1, 404625, Note_off_c, 4, 57, 64
1, 404625, Note_off_c, 4, 61, 64
1, 404775, Note_on_c, 2, 74, 107
1, 404781, Note_off_c, 1, 78, 64
1, 404825, Note_off_c, 2, 74, 64
1, 404826, Note_on_c, 4, 57, 127
1, 404826, Note_on_c, 2, 73, 107
1, 404827, Note_off_c, 4, 50, 64
1, 404827, Note_on_c, 4, 52, 127
1, 404828, Note_off_c, 4, 59, 64
1, 404978, Note_on_c, 2, 76, 107
1, 404984, Note_off_c, 2, 73, 64
1, 405018, Note_off_c, 4, 52, 64
1, 405026, Note_off_c, 2, 76, 64
1, 405026, Note_on_c, 2, 74, 107
1, 405027, Note_on_c, 4, 52, 127
1, 405027, Note_on_c, 4, 56, 127
1, 405030, Note_off_c, 4, 57, 64
1, 405178, Note_off_c, 2, 74, 64
1, 405183, Note_on_c, 2, 71, 111
1, 405233, Note_off_c, 2, 71, 64
1, 405234, Note_off_c, 4, 56, 64
1, 405242, Note_on_c, 4, 56, 127
1, 405242, Note_on_c, 2, 71, 111
1, 405248, Note_off_c, 4, 52, 64
1, 405450, Note_off_c, 2, 71, 64
1, 405450, Note_on_c, 2, 69, 113
1, 405452, Note_off_c, 4, 56, 64
1, 405453, Note_on_c, 4, 57, 127
1, 405678, Note_off_c, 2, 69, 64
1, 405679, Note_off_c, 4, 57, 64
1, 405679, Note_on_c, 4, 45, 127
1, 405958, Note_on_c, 1, 84, 104
1, 406031, Note_off_c, 1, 84, 64
1, 406065, Note_on_c, 1, 84, 104
1, 406136, Note_off_c, 1, 84, 64
1, 406171, Note_on_c, 1, 84, 104
1, 406267, Note_off_c, 1, 84, 64
1, 406276, Note_on_c, 1, 84, 104
1, 406375, Note_off_c, 1, 84, 64
1, 406383, Note_on_c, 2, 75, 112
1, 406383, Note_on_c, 2, 72, 112
1, 406384, Note_on_c, 2, 69, 113
1, 406481, Note_on_c, 2, 71, 111
1, 406481, Note_on_c, 2, 76, 112
1, 406482, Note_on_c, 2, 68, 115
1, 406491, Note_off_c, 2, 69, 64
1, 406492, Note_off_c, 2, 72, 64
1, 406492, Note_off_c, 2, 75, 64
1, 406581, Note_on_c, 1, 82, 109
1, 406678, Note_off_c, 1, 82, 64
1, 406687, Note_on_c, 1, 83, 109
1, 406789, Note_off_c, 2, 71, 64
1, 406789, Note_off_c, 2, 68, 64
1, 406790, Note_off_c, 2, 76, 64
1, 406790, Note_on_c, 2, 73, 112
1, 406791, Note_on_c, 2, 67, 123
1, 406791, Note_on_c, 2, 70, 113
1, 406886, Note_off_c, 1, 83, 64
1, 406886, Note_on_c, 2, 74, 112
1, 406887, Note_on_c, 4, 66, 123
1, 406887, Note_on_c, 2, 69, 113
1, 406897, Note_off_c, 2, 67, 64
1, 406898, Note_off_c, 2, 73, 64
1, 406898, Note_off_c, 2, 70, 64
1, 406985, Note_on_c, 1, 80, 105
1, 407073, Note_off_c, 1, 80, 64
1, 407088, Note_on_c, 1, 81, 105
1, 407186, Note_off_c, 4, 66, 64
1, 407187, Note_off_c, 2, 74, 64
1, 407187, Note_off_c, 2, 69, 64
1, 407191, Note_off_c, 1, 81, 64
1, 407192, Note_on_c, 2, 74, 112
1, 407192, Note_on_c, 1, 86, 97
1, 407193, Note_on_c, 2, 71, 111
1, 407258, Note_off_c, 1, 86, 64
1, 407292, Note_on_c, 1, 86, 97
1, 407292, Note_on_c, 2, 73, 112
1, 407292, Note_on_c, 2, 69, 113
1, 407304, Note_off_c, 2, 74, 64
1, 407304, Note_off_c, 2, 71, 64
1, 407363, Note_off_c, 1, 86, 64
1, 407399, Note_on_c, 1, 86, 97
1, 407399, Note_on_c, 2, 71, 111
1, 407400, Note_on_c, 2, 67, 123
1, 407410, Note_off_c, 2, 69, 64
1, 407410, Note_off_c, 2, 73, 64
1, 407468, Note_off_c, 1, 86, 64
1, 407503, Note_on_c, 2, 69, 113
1, 407503, Note_on_c, 1, 86, 97
1, 407504, Note_on_c, 4, 66, 123
1, 407515, Note_off_c, 2, 67, 64
1, 407515, Note_off_c, 2, 71, 64
1, 407571, Note_off_c, 1, 86, 64
1, 407604, Note_on_c, 1, 86, 97
1, 407605, Note_on_c, 2, 71, 111
1, 407605, Note_on_c, 2, 67, 123
1, 407615, Note_off_c, 2, 69, 64
1, 407615, Note_off_c, 4, 66, 64
1, 407700, Note_off_c, 1, 86, 64
1, 407710, Note_on_c, 2, 69, 113
1, 407710, Note_on_c, 1, 86, 97
1, 407711, Note_on_c, 4, 66, 123
1, 407720, Note_off_c, 2, 67, 64
1, 407721, Note_off_c, 2, 71, 64
1, 407727, Note_off_c, 4, 45, 64
1, 407806, Note_off_c, 1, 86, 64
1, 407816, Note_on_c, 1, 86, 100
1, 407816, Note_on_c, 2, 67, 123
1, 407817, Note_on_c, 4, 64, 121
1, 407826, Note_off_c, 2, 69, 64
1, 407826, Note_off_c, 4, 66, 64
1, 407910, Note_off_c, 1, 86, 64
1, 407918, Note_on_c, 1, 86, 100
1, 407919, Note_on_c, 4, 62, 127
1, 407919, Note_on_c, 4, 66, 123
1, 407929, Note_off_c, 4, 64, 64
1, 407930, Note_off_c, 2, 67, 64
1, 408010, Note_off_c, 1, 86, 64
1, 408017, Note_on_c, 1, 79, 105
1, 408018, Note_on_c, 2, 69, 113
1, 408018, Note_on_c, 4, 61, 127
1, 408028, Note_off_c, 4, 62, 64
1, 408029, Note_off_c, 4, 66, 64
1, 408172, Note_on_c, 1, 81, 105
1, 408175, Note_off_c, 1, 79, 64
1, 408222, Note_off_c, 1, 81, 64
1, 408222, Note_on_c, 1, 78, 105
1, 408223, Note_on_c, 4, 62, 127
1, 408225, Note_off_c, 4, 61, 64
1, 408373, Note_off_c, 1, 78, 64
1, 408377, Note_on_c, 2, 74, 112
1, 408427, Note_off_c, 2, 74, 64
1, 408428, Note_on_c, 4, 61, 127
1, 408428, Note_on_c, 2, 76, 108
1, 408430, Note_off_c, 4, 62, 64
1, 408578, Note_off_c, 2, 76, 64
1, 408578, Note_on_c, 1, 81, 105
1, 408627, Note_off_c, 1, 81, 64
1, 408627, Note_on_c, 1, 80, 105
1, 408628, Note_on_c, 4, 59, 127
1, 408628, Note_on_c, 4, 62, 127
1, 408631, Note_off_c, 4, 61, 64
1, 408779, Note_off_c, 1, 80, 64
1, 408782, Note_off_c, 2, 69, 64
1, 408783, Note_on_c, 2, 74, 112
1, 408783, Note_on_c, 2, 68, 115
1, 408829, Note_off_c, 2, 68, 64
1, 408830, Note_off_c, 2, 74, 64
1, 408838, Note_on_c, 1, 78, 105
1, 408839, Note_on_c, 2, 69, 113
1, 408839, Note_on_c, 2, 74, 112
1, 408840, Note_on_c, 4, 57, 127
1, 408842, Note_off_c, 4, 62, 64
1, 408842, Note_off_c, 4, 59, 64
1, 409035, Note_off_c, 1, 78, 64
1, 409035, Note_off_c, 2, 74, 64
1, 409044, Note_on_c, 2, 73, 112
1, 409044, Note_on_c, 2, 76, 108
1, 409240, Note_off_c, 2, 73, 64
1, 409241, Note_off_c, 2, 76, 64
1, 409249, Note_on_c, 1, 88, 106
1, 409320, Note_off_c, 1, 88, 64
1, 409356, Note_on_c, 1, 88, 106
1, 409428, Note_off_c, 1, 88, 64
1, 409464, Note_on_c, 1, 88, 106
1, 409560, Note_off_c, 1, 88, 64
1, 409568, Note_on_c, 1, 88, 106
1, 409662, Note_off_c, 1, 88, 64
1, 409671, Note_on_c, 1, 88, 106
1, 409877, Note_off_c, 2, 69, 64
1, 409877, Note_on_c, 1, 81, 109
1, 409884, Note_off_c, 1, 88, 64
1, 410084, Note_off_c, 1, 81, 64
1, 410084, Note_on_c, 2, 69, 113
1, 410158, Note_off_c, 2, 69, 64
1, 410194, Note_on_c, 2, 69, 113
1, 410269, Note_off_c, 2, 69, 64
1, 410305, Note_on_c, 2, 69, 113
1, 410405, Note_off_c, 2, 69, 64
1, 410413, Note_on_c, 2, 69, 119
1, 410513, Note_off_c, 2, 69, 64
1, 410522, Note_on_c, 1, 78, 100
1, 410523, Note_on_c, 2, 69, 119
1, 410523, Note_on_c, 2, 74, 103
1, 410625, Note_on_c, 1, 79, 100
1, 410626, Note_on_c, 2, 76, 103
1, 410635, Note_off_c, 2, 74, 64
1, 410636, Note_off_c, 1, 78, 64
1, 410727, Note_on_c, 1, 81, 100
1, 410727, Note_on_c, 1, 78, 100
1, 410728, Note_on_c, 4, 62, 127
1, 410737, Note_off_c, 2, 69, 64
1, 410738, Note_off_c, 1, 79, 64
1, 410738, Note_off_c, 2, 76, 64
1, 410830, Note_on_c, 1, 79, 100
1, 410830, Note_on_c, 1, 83, 100
1, 410840, Note_off_c, 1, 78, 64
1, 410841, Note_off_c, 1, 81, 64
1, 410847, Note_off_c, 4, 57, 64
1, 410899, Note_off_c, 4, 62, 64
1, 410933, Note_on_c, 1, 81, 100
1, 410934, Note_on_c, 1, 78, 100
1, 410934, Note_on_c, 4, 62, 127
1, 410944, Note_off_c, 1, 83, 64
1, 410944, Note_off_c, 1, 79, 64
1, 411002, Note_off_c, 4, 62, 64
1, 411037, Note_on_c, 1, 79, 100
1, 411037, Note_on_c, 1, 83, 100
1, 411038, Note_on_c, 4, 62, 127
1, 411049, Note_off_c, 1, 78, 64
1, 411050, Note_off_c, 1, 81, 64
1, 411110, Note_off_c, 4, 62, 64
1, 411144, Note_on_c, 1, 85, 100
1, 411145, Note_on_c, 2, 76, 103
1, 411145, Note_on_c, 4, 62, 127
1, 411157, Note_off_c, 1, 83, 64
1, 411157, Note_off_c, 1, 79, 64
1, 411240, Note_off_c, 4, 62, 64
1, 411250, Note_on_c, 1, 86, 100
1, 411251, Note_on_c, 1, 78, 100
1, 411251, Note_on_c, 4, 62, 127
1, 411261, Note_off_c, 2, 76, 64
1, 411261, Note_off_c, 1, 85, 64
1, 411340, Note_off_c, 4, 62, 64
1, 411348, Note_on_c, 1, 79, 100
1, 411348, Note_on_c, 1, 83, 100
1, 411349, Note_on_c, 4, 62, 127
1, 411360, Note_off_c, 1, 78, 64
1, 411361, Note_off_c, 1, 86, 64
1, 411452, Note_on_c, 1, 85, 100
1, 411452, Note_on_c, 1, 81, 100
1, 411462, Note_off_c, 1, 79, 64
1, 411463, Note_off_c, 1, 83, 64
1, 411553, Note_off_c, 4, 62, 64
1, 411554, Note_on_c, 1, 83, 100
1, 411554, Note_on_c, 1, 86, 100
1, 411555, Note_on_c, 4, 55, 127
1, 411565, Note_off_c, 1, 81, 64
1, 411565, Note_off_c, 1, 85, 64
1, 411650, Note_off_c, 1, 83, 64
1, 411660, Note_off_c, 1, 86, 64
1, 411660, Note_on_c, 1, 83, 100
1, 411661, Note_on_c, 1, 79, 100
1, 411755, Note_off_c, 1, 79, 64
1, 411756, Note_off_c, 4, 55, 64
1, 411764, Note_off_c, 1, 83, 64
1, 411764, Note_on_c, 1, 79, 100
1, 411765, Note_on_c, 4, 55, 127
1, 411765, Note_on_c, 2, 76, 103
1, 411867, Note_off_c, 2, 76, 64
1, 411868, Note_off_c, 1, 79, 64
1, 411868, Note_on_c, 1, 81, 100
1, 411869, Note_on_c, 1, 78, 100
1, 411960, Note_off_c, 4, 55, 64
1, 411969, Note_off_c, 1, 78, 64
1, 411970, Note_off_c, 1, 81, 64
1, 411970, Note_on_c, 1, 83, 100
1, 411971, Note_on_c, 4, 49, 127
1, 411971, Note_on_c, 1, 79, 100
1, 412065, Note_off_c, 1, 79, 64
1, 412073, Note_off_c, 1, 83, 64
1, 412073, Note_on_c, 1, 79, 100
1, 412074, Note_on_c, 2, 76, 103
1, 412166, Note_off_c, 4, 49, 64
1, 412175, Note_off_c, 1, 79, 64
1, 412175, Note_off_c, 2, 76, 64
1, 412176, Note_on_c, 4, 50, 127
1, 412176, Note_on_c, 2, 74, 103
1, 412176, Note_on_c, 1, 78, 100
1, 412329, Note_on_c, 1, 86, 100
1, 412369, Note_off_c, 2, 74, 64
1, 412369, Note_off_c, 4, 50, 64
1, 412370, Note_off_c, 1, 78, 64
1, 412378, Note_off_c, 1, 86, 64
1, 412378, Note_on_c, 4, 64, 127
1, 412378, Note_on_c, 1, 83, 100
1, 412379, Note_on_c, 4, 55, 127
1, 412529, Note_off_c, 1, 83, 64
1, 412531, Note_on_c, 1, 79, 100
1, 412573, Note_off_c, 4, 55, 64
1, 412574, Note_off_c, 4, 64, 64
1, 412580, Note_on_c, 1, 78, 100
1, 412581, Note_on_c, 4, 62, 127
1, 412581, Note_on_c, 4, 57, 127
1, 412589, Note_off_c, 1, 79, 64
1, 412734, Note_on_c, 1, 81, 100
1, 412739, Note_off_c, 1, 78, 64
1, 412776, Note_off_c, 4, 57, 64
1, 412776, Note_off_c, 4, 62, 64
1, 412785, Note_off_c, 1, 81, 64
1, 412785, Note_on_c, 1, 79, 100
1, 412786, Note_on_c, 4, 57, 127
1, 412786, Note_on_c, 4, 61, 127
1, 412894, Note_on_c, 2, 76, 103
1, 412931, Note_off_c, 1, 79, 64
1, 413013, Note_off_c, 4, 57, 64
1, 413014, Note_off_c, 4, 61, 64
1, 413017, Note_off_c, 2, 76, 64
1, 413028, Note_on_c, 4, 61, 127
1, 413028, Note_on_c, 2, 76, 103
1, 413255, Note_off_c, 4, 61, 64
1, 413256, Note_off_c, 2, 76, 64
1, 413256, Note_on_c, 4, 62, 127
1, 413256, Note_on_c, 2, 74, 103
1, 413487, Note_off_c, 4, 62, 64
1, 413488, Note_off_c, 2, 74, 64
1, 413488, Note_on_c, 4, 50, 127
1, 413857, Note_on_c, 1, 84, 104
1, 413930, Note_off_c, 1, 84, 64
1, 413966, Note_on_c, 1, 84, 104
1, 414039, Note_off_c, 1, 84, 64
1, 414076, Note_on_c, 1, 84, 104
1, 414175, Note_off_c, 1, 84, 64
1, 414182, Note_on_c, 1, 84, 104
1, 414276, Note_off_c, 1, 84, 64
1, 414286, Note_on_c, 2, 75, 112
1, 414287, Note_on_c, 2, 72, 112
1, 414287, Note_on_c, 2, 69, 113
1, 414383, Note_on_c, 2, 76, 112
1, 414384, Note_on_c, 2, 68, 115
1, 414384, Note_on_c, 2, 71, 111
1, 414394, Note_off_c, 2, 69, 64
1, 414394, Note_off_c, 2, 72, 64
1, 414395, Note_off_c, 2, 75, 64
1, 414483, Note_on_c, 1, 82, 109
1, 414583, Note_off_c, 1, 82, 64
1, 414589, Note_on_c, 1, 83, 109
1, 414691, Note_off_c, 2, 71, 64
1, 414691, Note_off_c, 2, 68, 64
1, 414692, Note_off_c, 2, 76, 64
1, 414692, Note_on_c, 2, 70, 113
1, 414692, Note_on_c, 2, 73, 112
1, 414693, Note_on_c, 2, 67, 123
1, 414782, Note_off_c, 1, 83, 64
1, 414792, Note_on_c, 4, 66, 123
1, 414792, Note_on_c, 2, 69, 113
1, 414792, Note_on_c, 2, 74, 112
1, 414801, Note_off_c, 2, 70, 64
1, 414801, Note_off_c, 2, 67, 64
1, 414802, Note_off_c, 2, 73, 64
1, 414892, Note_on_c, 1, 80, 105
1, 414976, Note_off_c, 1, 80, 64
1, 414998, Note_on_c, 1, 81, 105
1, 415095, Note_off_c, 2, 74, 64
1, 415102, Note_off_c, 1, 81, 64
1, 415102, Note_off_c, 4, 66, 64
1, 415103, Note_off_c, 2, 69, 64
1, 415103, Note_on_c, 1, 86, 97
1, 415104, Note_on_c, 2, 71, 111
1, 415104, Note_on_c, 2, 74, 112
1, 415172, Note_off_c, 1, 86, 64
1, 415206, Note_on_c, 1, 86, 97
1, 415207, Note_on_c, 2, 73, 112
1, 415207, Note_on_c, 2, 69, 113
1, 415216, Note_off_c, 2, 71, 64
1, 415217, Note_off_c, 2, 74, 64
1, 415279, Note_off_c, 1, 86, 64
1, 415314, Note_on_c, 1, 86, 97
1, 415314, Note_on_c, 2, 71, 111
1, 415315, Note_on_c, 2, 67, 123
1, 415326, Note_off_c, 2, 69, 64
1, 415327, Note_off_c, 2, 73, 64
1, 415385, Note_off_c, 1, 86, 64
1, 415421, Note_on_c, 1, 86, 97
1, 415422, Note_on_c, 4, 66, 123
1, 415422, Note_on_c, 2, 69, 113
1, 415432, Note_off_c, 2, 67, 64
1, 415432, Note_off_c, 2, 71, 64
1, 415489, Note_off_c, 1, 86, 64
1, 415524, Note_on_c, 1, 86, 97
1, 415524, Note_on_c, 2, 71, 111
1, 415525, Note_on_c, 2, 67, 123
1, 415535, Note_off_c, 2, 69, 64
1, 415535, Note_off_c, 4, 66, 64
1, 415621, Note_off_c, 1, 86, 64
1, 415629, Note_on_c, 2, 69, 113
1, 415629, Note_on_c, 1, 86, 97
1, 415630, Note_on_c, 4, 66, 123
1, 415641, Note_off_c, 2, 67, 64
1, 415642, Note_off_c, 2, 71, 64
1, 415648, Note_off_c, 4, 50, 64
1, 415727, Note_off_c, 1, 86, 64
1, 415734, Note_on_c, 1, 86, 97
1, 415735, Note_on_c, 2, 67, 123
1, 415735, Note_on_c, 4, 64, 121
1, 415747, Note_off_c, 2, 69, 64
1, 415747, Note_off_c, 4, 66, 64
1, 415830, Note_off_c, 1, 86, 64
1, 415838, Note_on_c, 4, 66, 123
1, 415838, Note_on_c, 1, 86, 100
1, 415839, Note_on_c, 4, 62, 127
1, 415848, Note_off_c, 4, 64, 64
1, 415849, Note_off_c, 2, 67, 64
1, 415935, Note_off_c, 1, 86, 64
1, 415944, Note_on_c, 1, 79, 105
1, 415945, Note_on_c, 2, 69, 113
1, 415945, Note_on_c, 4, 61, 127
1, 415955, Note_off_c, 4, 62, 64
1, 415956, Note_off_c, 4, 66, 64
1, 416094, Note_off_c, 1, 79, 64
1, 416096, Note_on_c, 1, 81, 105
1, 416139, Note_off_c, 4, 61, 64
1, 416147, Note_on_c, 1, 78, 105
1, 416148, Note_on_c, 4, 62, 127
1, 416156, Note_off_c, 1, 81, 64
1, 416300, Note_on_c, 2, 74, 112
1, 416305, Note_off_c, 1, 78, 64
1, 416340, Note_off_c, 4, 62, 64
1, 416348, Note_on_c, 4, 61, 127
1, 416348, Note_on_c, 2, 76, 108
1, 416356, Note_off_c, 2, 74, 64
1, 416416, Note_off_c, 2, 69, 64
1, 416502, Note_on_c, 1, 81, 105
1, 416510, Note_off_c, 2, 76, 64
1, 416544, Note_off_c, 4, 61, 64
1, 416552, Note_on_c, 1, 80, 105
1, 416553, Note_on_c, 4, 59, 127
1, 416553, Note_on_c, 4, 62, 127
1, 416561, Note_off_c, 1, 81, 64
1, 416708, Note_on_c, 2, 74, 112
1, 416708, Note_on_c, 2, 68, 115
1, 416751, Note_off_c, 2, 74, 64
1, 416751, Note_off_c, 4, 59, 64
1, 416752, Note_off_c, 1, 80, 64
1, 416752, Note_off_c, 4, 62, 64
1, 416760, Note_on_c, 1, 78, 105
1, 416761, Note_on_c, 2, 69, 113
1, 416761, Note_on_c, 2, 74, 112
1, 416762, Note_on_c, 4, 57, 127
1, 416768, Note_off_c, 2, 68, 64
1, 416966, Note_off_c, 2, 74, 64
1, 416967, Note_off_c, 1, 78, 64
1, 416967, Note_on_c, 2, 73, 112
1, 416967, Note_on_c, 2, 76, 108
1, 417173, Note_off_c, 2, 76, 64
1, 417173, Note_off_c, 2, 73, 64
1, 417173, Note_on_c, 1, 88, 106
1, 417244, Note_off_c, 1, 88, 64
1, 417280, Note_on_c, 1, 88, 106
1, 417353, Note_off_c, 1, 88, 64
1, 417390, Note_on_c, 1, 88, 106
1, 417488, Note_off_c, 1, 88, 64
1, 417497, Note_on_c, 1, 88, 106
1, 417595, Note_off_c, 1, 88, 64
1, 417603, Note_on_c, 1, 88, 106
1, 417808, Note_off_c, 2, 69, 64
1, 417809, Note_on_c, 1, 81, 109
1, 417830, Note_off_c, 1, 88, 64
1, 418014, Note_on_c, 2, 69, 113
1, 418100, Note_off_c, 2, 69, 64
1, 418117, Note_on_c, 2, 69, 113
1, 418173, Note_off_c, 1, 81, 64
1, 418210, Note_off_c, 2, 69, 64
1, 418229, Note_on_c, 2, 69, 113
1, 418333, Note_off_c, 2, 69, 64
1, 418343, Note_on_c, 2, 69, 113
1, 418441, Note_off_c, 2, 69, 64
1, 418451, Note_on_c, 2, 74, 103
1, 418451, Note_on_c, 1, 78, 100
1, 418452, Note_on_c, 2, 69, 119
1, 418553, Note_on_c, 1, 79, 100
1, 418554, Note_on_c, 2, 76, 103
1, 418564, Note_off_c, 1, 78, 64
1, 418564, Note_off_c, 2, 74, 64
1, 418655, Note_on_c, 1, 81, 100
1, 418656, Note_on_c, 4, 62, 127
1, 418656, Note_on_c, 1, 78, 100
1, 418666, Note_off_c, 2, 69, 64
1, 418666, Note_off_c, 2, 76, 64
1, 418667, Note_off_c, 1, 79, 64
1, 418758, Note_on_c, 1, 79, 100
1, 418758, Note_on_c, 1, 83, 100
1, 418770, Note_off_c, 1, 78, 64
1, 418771, Note_off_c, 1, 81, 64
1, 418775, Note_off_c, 4, 57, 64
1, 418848, Note_off_c, 4, 62, 64
1, 418867, Note_on_c, 1, 81, 100
1, 418868, Note_on_c, 1, 78, 100
1, 418868, Note_on_c, 4, 62, 127
1, 418878, Note_off_c, 1, 83, 64
1, 418878, Note_off_c, 1, 79, 64
1, 418940, Note_off_c, 4, 62, 64
1, 418973, Note_on_c, 1, 79, 100
1, 418973, Note_on_c, 1, 83, 100
1, 418974, Note_on_c, 4, 62, 127
1, 418985, Note_off_c, 1, 78, 64
1, 418986, Note_off_c, 1, 81, 64
1, 419042, Note_off_c, 4, 62, 64
1, 419078, Note_on_c, 1, 85, 100
1, 419079, Note_on_c, 2, 76, 103
1, 419079, Note_on_c, 4, 62, 127
1, 419089, Note_off_c, 1, 83, 64
1, 419089, Note_off_c, 1, 79, 64
1, 419176, Note_off_c, 4, 62, 64
1, 419184, Note_on_c, 1, 78, 100
1, 419184, Note_on_c, 1, 86, 100
1, 419185, Note_on_c, 4, 62, 127
1, 419196, Note_off_c, 2, 76, 64
1, 419197, Note_off_c, 1, 85, 64
1, 419284, Note_off_c, 4, 62, 64
1, 419294, Note_on_c, 1, 83, 100
1, 419294, Note_on_c, 1, 79, 100
1, 419295, Note_on_c, 4, 62, 127
1, 419304, Note_off_c, 1, 86, 64
1, 419304, Note_off_c, 1, 78, 64
1, 419398, Note_on_c, 1, 85, 100
1, 419398, Note_on_c, 1, 81, 100
1, 419408, Note_off_c, 1, 79, 64
1, 419408, Note_off_c, 1, 83, 64
1, 419501, Note_on_c, 1, 83, 100
1, 419501, Note_on_c, 1, 86, 100
1, 419502, Note_on_c, 4, 55, 127
1, 419511, Note_off_c, 4, 62, 64
1, 419512, Note_off_c, 1, 81, 64
1, 419512, Note_off_c, 1, 85, 64
1, 419599, Note_off_c, 1, 83, 64
1, 419607, Note_off_c, 1, 86, 64
1, 419607, Note_on_c, 1, 83, 100
1, 419608, Note_on_c, 1, 79, 100
1, 419702, Note_off_c, 1, 79, 64
1, 419702, Note_off_c, 4, 55, 64
1, 419711, Note_off_c, 1, 83, 64
1, 419711, Note_on_c, 1, 79, 100
1, 419712, Note_on_c, 4, 55, 127
1, 419712, Note_on_c, 2, 76, 103
1, 419812, Note_on_c, 1, 81, 100
1, 419813, Note_on_c, 1, 78, 100
1, 419824, Note_off_c, 2, 76, 64
1, 419825, Note_off_c, 1, 79, 64
1, 419908, Note_off_c, 4, 55, 64
1, 419916, Note_on_c, 1, 79, 100
1, 419916, Note_on_c, 1, 83, 100
1, 419917, Note_on_c, 4, 49, 127
1, 419927, Note_off_c, 1, 78, 64
1, 419927, Note_off_c, 1, 81, 64
1, 420012, Note_off_c, 1, 79, 64
1, 420022, Note_off_c, 1, 83, 64
1, 420022, Note_on_c, 1, 79, 100
1, 420023, Note_on_c, 2, 76, 103
1, 420115, Note_off_c, 4, 49, 64
1, 420124, Note_off_c, 2, 76, 64
1, 420125, Note_off_c, 1, 79, 64
1, 420125, Note_on_c, 1, 78, 100
1, 420126, Note_on_c, 4, 50, 127
1, 420126, Note_on_c, 2, 74, 103
1, 420278, Note_on_c, 1, 86, 100
1, 420318, Note_off_c, 2, 74, 64
1, 420319, Note_off_c, 1, 78, 64
1, 420319, Note_off_c, 4, 50, 64
1, 420327, Note_off_c, 1, 86, 64
1, 420327, Note_on_c, 1, 83, 100
1, 420328, Note_on_c, 4, 55, 127
1, 420328, Note_on_c, 4, 64, 127
1, 420477, Note_off_c, 1, 83, 64
1, 420480, Note_on_c, 1, 79, 100
1, 420521, Note_off_c, 4, 64, 64
1, 420521, Note_off_c, 4, 55, 64
1, 420529, Note_on_c, 1, 78, 100
1, 420530, Note_on_c, 4, 57, 127
1, 420530, Note_on_c, 4, 62, 127
1, 420538, Note_off_c, 1, 79, 64
1, 420682, Note_off_c, 1, 78, 64
1, 420684, Note_on_c, 1, 81, 100
1, 420724, Note_off_c, 4, 57, 64
1, 420725, Note_off_c, 4, 62, 64
1, 420733, Note_on_c, 1, 79, 100
1, 420733, Note_on_c, 4, 61, 127
1, 420734, Note_on_c, 4, 57, 127
1, 420742, Note_off_c, 1, 81, 64
1, 420873, Note_off_c, 1, 79, 64
1, 420890, Note_on_c, 2, 76, 103
1, 420942, Note_off_c, 2, 76, 64
1, 420944, Note_off_c, 4, 57, 64
1, 420945, Note_off_c, 4, 61, 64
1, 420955, Note_on_c, 4, 61, 127
1, 420955, Note_on_c, 2, 76, 108
1, 421199, Note_off_c, 2, 76, 64
1, 421199, Note_on_c, 2, 74, 103
1, 421201, Note_off_c, 4, 61, 64
1, 421202, Note_on_c, 4, 62, 127
1, 421416, Note_off_c, 4, 62, 64
1, 421416, Note_off_c, 2, 74, 64
1, 421416, Note_on_c, 4, 50, 127
1, 421825, Note_off_c, 4, 50, 64
1, 422007, Note_on_c, 4, 57, 127
1, 422008, Note_on_c, 4, 45, 127
1, 422093, Note_off_c, 4, 45, 64
1, 422093, Note_off_c, 4, 57, 64
1, 422174, Note_on_c, 4, 54, 127
1, 422175, Note_on_c, 4, 42, 127
1, 422308, Note_off_c, 4, 42, 64
1, 422308, Note_off_c, 4, 54, 64
1, 422334, Note_on_c, 4, 38, 127
1, 422334, Note_on_c, 4, 50, 127
1, 422375, Note_on_c, 4, 62, 127
1, 422417, Note_on_c, 4, 66, 127
1, 422433, Note_off_c, 4, 62, 64
1, 422460, Note_on_c, 4, 62, 127
1, 422502, Note_on_c, 1, 81, 115
1, 422517, Note_off_c, 4, 62, 64
1, 422544, Note_off_c, 4, 66, 64
1, 422544, Note_on_c, 4, 62, 127
1, 422585, Note_on_c, 4, 66, 127
1, 422599, Note_off_c, 4, 62, 64
1, 422628, Note_on_c, 4, 62, 127
1, 422669, Note_off_c, 1, 81, 64
1, 422669, Note_on_c, 1, 83, 115
1, 422681, Note_off_c, 4, 62, 64
1, 422710, Note_off_c, 4, 66, 64
1, 422711, Note_on_c, 4, 62, 127
1, 422751, Note_off_c, 4, 38, 64
1, 422752, Note_off_c, 4, 50, 64
1, 422752, Note_on_c, 4, 66, 127
1, 422766, Note_off_c, 4, 62, 64
1, 422795, Note_on_c, 4, 62, 127
1, 422837, Note_off_c, 1, 83, 64
1, 422837, Note_on_c, 1, 78, 115
1, 422849, Note_off_c, 4, 62, 64
1, 422878, Note_off_c, 4, 66, 64
1, 422879, Note_on_c, 4, 63, 127
1, 422919, Note_on_c, 2, 71, 117
1, 422935, Note_off_c, 4, 63, 64
1, 422964, Note_on_c, 4, 63, 127
1, 423006, Note_off_c, 1, 78, 64
1, 423006, Note_on_c, 1, 79, 115
1, 423020, Note_off_c, 4, 63, 64
1, 423047, Note_off_c, 2, 71, 64
1, 423048, Note_on_c, 4, 64, 126
1, 423090, Note_on_c, 2, 71, 117
1, 423104, Note_off_c, 4, 64, 64
1, 423132, Note_on_c, 4, 64, 126
1, 423173, Note_on_c, 4, 52, 127
1, 423173, Note_on_c, 4, 40, 127
1, 423187, Note_off_c, 4, 64, 64
1, 423216, Note_off_c, 2, 71, 64
1, 423216, Note_on_c, 2, 68, 121
1, 423257, Note_off_c, 4, 40, 64
1, 423258, Note_off_c, 4, 52, 64
1, 423258, Note_on_c, 2, 71, 117
1, 423271, Note_off_c, 2, 68, 64
1, 423300, Note_on_c, 2, 68, 121
1, 423340, Note_on_c, 4, 37, 127
1, 423340, Note_on_c, 4, 49, 127
1, 423354, Note_off_c, 2, 68, 64
1, 423381, Note_off_c, 2, 71, 64
1, 423382, Note_on_c, 2, 67, 127
1, 423424, Note_off_c, 4, 37, 64
1, 423425, Note_off_c, 4, 49, 64
1, 423425, Note_on_c, 2, 76, 118
1, 423439, Note_off_c, 2, 67, 64
1, 423466, Note_on_c, 2, 67, 127
1, 423508, Note_on_c, 4, 45, 127
1, 423508, Note_on_c, 4, 33, 127
1, 423522, Note_off_c, 2, 67, 64
1, 423550, Note_off_c, 2, 76, 64
1, 423550, Note_on_c, 2, 67, 127
1, 423591, Note_off_c, 4, 33, 64
1, 423591, Note_off_c, 4, 45, 64
1, 423591, Note_on_c, 2, 73, 118
1, 423604, Note_off_c, 2, 67, 64
1, 423633, Note_on_c, 2, 67, 127
1, 423675, Note_on_c, 4, 38, 127
1, 423675, Note_on_c, 4, 50, 127
1, 423689, Note_off_c, 2, 67, 64
1, 423716, Note_off_c, 2, 73, 64
1, 423717, Note_on_c, 4, 66, 127
1, 423759, Note_on_c, 2, 74, 118
1, 423773, Note_off_c, 4, 66, 64
1, 423802, Note_on_c, 4, 66, 127
1, 423844, Note_off_c, 1, 79, 64
1, 423844, Note_on_c, 1, 81, 118
1, 423858, Note_off_c, 4, 66, 64
1, 423885, Note_off_c, 2, 74, 64
1, 423886, Note_on_c, 4, 66, 127
1, 423921, Note_off_c, 4, 50, 64
1, 423921, Note_off_c, 4, 38, 64
1, 423927, Note_on_c, 2, 74, 118
1, 423941, Note_off_c, 4, 66, 64
1, 423970, Note_on_c, 4, 66, 127
1, 424012, Note_on_c, 4, 43, 127
1, 424012, Note_on_c, 4, 55, 127
1, 424026, Note_off_c, 4, 66, 64
1, 424054, Note_off_c, 2, 74, 64
1, 424054, Note_on_c, 4, 64, 126
1, 424096, Note_on_c, 2, 74, 118
1, 424110, Note_off_c, 4, 64, 64
1, 424139, Note_off_c, 1, 81, 64
1, 424140, Note_on_c, 4, 64, 126
1, 424180, Note_on_c, 1, 83, 118
1, 424194, Note_off_c, 4, 64, 64
1, 424223, Note_off_c, 2, 74, 64
1, 424223, Note_on_c, 4, 64, 126
1, 424264, Note_on_c, 2, 74, 118
1, 424277, Note_off_c, 4, 64, 64
1, 424304, Note_on_c, 4, 64, 126
1, 424325, Note_off_c, 2, 74, 64
1, 424346, Note_on_c, 2, 74, 118
1, 424354, Note_off_c, 1, 83, 64
1, 424362, Note_off_c, 4, 64, 64
1, 424389, Note_on_c, 4, 66, 127
1, 424431, Note_off_c, 4, 55, 64
1, 424431, Note_off_c, 4, 43, 64
1, 424432, Note_on_c, 2, 69, 119
1, 424445, Note_off_c, 4, 66, 64
1, 424474, Note_on_c, 4, 66, 127
1, 424488, Note_off_c, 2, 69, 64
1, 424516, Note_on_c, 2, 73, 118
1, 424524, Note_off_c, 2, 74, 64
1, 424530, Note_off_c, 4, 66, 64
1, 424557, Note_on_c, 4, 64, 126
1, 424599, Note_on_c, 2, 69, 119
1, 424614, Note_off_c, 4, 64, 64
1, 424641, Note_on_c, 4, 64, 126
1, 424656, Note_off_c, 2, 69, 64
1, 424683, Note_on_c, 4, 57, 127
1, 424684, Note_on_c, 4, 45, 127
1, 424723, Note_off_c, 4, 64, 64
1, 424773, Note_off_c, 4, 45, 64
1, 424773, Note_off_c, 4, 57, 64
1, 424860, Note_on_c, 4, 54, 127
1, 424860, Note_on_c, 4, 42, 127
1, 424967, Note_off_c, 4, 42, 64
1, 424967, Note_off_c, 4, 54, 64
1, 425035, Note_on_c, 4, 38, 127
1, 425035, Note_on_c, 4, 50, 127
1, 425076, Note_on_c, 4, 66, 127
1, 425118, Note_on_c, 2, 69, 119
1, 425132, Note_off_c, 4, 66, 64
1, 425160, Note_on_c, 4, 66, 127
1, 425202, Note_on_c, 1, 86, 115
1, 425217, Note_off_c, 4, 66, 64
1, 425231, Note_off_c, 2, 73, 64
1, 425244, Note_off_c, 2, 69, 64
1, 425244, Note_on_c, 4, 66, 127
1, 425287, Note_on_c, 2, 69, 119
1, 425301, Note_off_c, 4, 66, 64
1, 425329, Note_on_c, 4, 66, 127
1, 425370, Note_off_c, 1, 86, 64
1, 425370, Note_on_c, 1, 83, 115
1, 425384, Note_off_c, 4, 66, 64
1, 425413, Note_off_c, 2, 69, 64
1, 425413, Note_on_c, 4, 66, 127
1, 425454, Note_on_c, 2, 74, 118
1, 425470, Note_off_c, 4, 66, 64
1, 425496, Note_on_c, 4, 66, 127
1, 425533, Note_off_c, 1, 83, 64
1, 425539, Note_on_c, 1, 81, 115
1, 425552, Note_off_c, 4, 66, 64
1, 425581, Note_off_c, 2, 74, 64
1, 425581, Note_on_c, 4, 66, 127
1, 425624, Note_on_c, 2, 74, 118
1, 425638, Note_off_c, 4, 66, 64
1, 425664, Note_off_c, 4, 38, 64
1, 425665, Note_off_c, 4, 50, 64
1, 425665, Note_on_c, 4, 66, 127
1, 425705, Note_off_c, 1, 81, 64
1, 425706, Note_on_c, 1, 80, 115
1, 425719, Note_off_c, 4, 66, 64
1, 425748, Note_off_c, 2, 74, 64
1, 425748, Note_on_c, 4, 64, 126
1, 425789, Note_on_c, 2, 74, 118
1, 425805, Note_off_c, 4, 64, 64
1, 425832, Note_on_c, 4, 64, 126
1, 425874, Note_on_c, 4, 47, 127
1, 425874, Note_on_c, 4, 35, 127
1, 425888, Note_off_c, 4, 64, 64
1, 425917, Note_off_c, 2, 74, 64
1, 425917, Note_on_c, 2, 68, 121
1, 425958, Note_off_c, 4, 35, 64
1, 425959, Note_off_c, 4, 47, 64
1, 425959, Note_on_c, 2, 74, 118
1, 425973, Note_off_c, 2, 68, 64
1, 426000, Note_on_c, 2, 68, 121
1, 426042, Note_on_c, 4, 52, 127
1, 426042, Note_on_c, 4, 40, 127
1, 426056, Note_off_c, 2, 68, 64
1, 426085, Note_off_c, 2, 74, 64
1, 426085, Note_on_c, 2, 68, 121
1, 426127, Note_on_c, 2, 71, 117
1, 426142, Note_off_c, 2, 68, 64
1, 426161, Note_off_c, 4, 40, 64
1, 426161, Note_off_c, 4, 52, 64
1, 426169, Note_on_c, 2, 68, 121
1, 426212, Note_on_c, 4, 38, 127
1, 426212, Note_on_c, 4, 50, 127
1, 426224, Note_off_c, 2, 68, 64
1, 426253, Note_off_c, 2, 71, 64
1, 426253, Note_on_c, 2, 68, 121
1, 426294, Note_on_c, 2, 71, 117
1, 426310, Note_off_c, 2, 68, 64
1, 426331, Note_off_c, 4, 38, 64
1, 426332, Note_off_c, 4, 50, 64
1, 426338, Note_on_c, 2, 68, 121
1, 426380, Note_on_c, 4, 37, 127
1, 426380, Note_on_c, 4, 49, 127
1, 426394, Note_off_c, 2, 68, 64
1, 426422, Note_off_c, 2, 71, 64
1, 426422, Note_on_c, 2, 69, 119
1, 426464, Note_on_c, 2, 73, 118
1, 426477, Note_off_c, 2, 69, 64
1, 426506, Note_on_c, 2, 69, 119
1, 426520, Note_off_c, 2, 73, 64
1, 426547, Note_off_c, 1, 80, 64
1, 426548, Note_on_c, 2, 76, 118
1, 426590, Note_on_c, 4, 61, 127
1, 426625, Note_off_c, 4, 49, 64
1, 426625, Note_off_c, 4, 37, 64
1, 426632, Note_off_c, 2, 69, 64
1, 426632, Note_on_c, 2, 69, 119
1, 426646, Note_off_c, 4, 61, 64
1, 426675, Note_on_c, 4, 61, 127
1, 426717, Note_on_c, 4, 52, 127
1, 426718, Note_on_c, 4, 40, 127
1, 426732, Note_off_c, 4, 61, 64
1, 426758, Note_off_c, 2, 69, 64
1, 426759, Note_on_c, 4, 59, 127
1, 426802, Note_on_c, 2, 68, 121
1, 426815, Note_off_c, 4, 59, 64
1, 426844, Note_on_c, 4, 59, 127
1, 426857, Note_off_c, 2, 68, 64
1, 426878, Note_off_c, 2, 76, 64
1, 426884, Note_on_c, 2, 68, 122
1, 426900, Note_off_c, 4, 59, 64
1, 426927, Note_on_c, 4, 62, 127
1, 426970, Note_on_c, 4, 64, 126
1, 426985, Note_off_c, 4, 62, 64
1, 427012, Note_on_c, 4, 62, 127
1, 427027, Note_off_c, 4, 64, 64
1, 427046, Note_off_c, 2, 68, 64
1, 427054, Note_on_c, 2, 71, 118
1, 427068, Note_off_c, 4, 62, 64
1, 427096, Note_on_c, 4, 62, 127
1, 427137, Note_off_c, 4, 52, 64
1, 427137, Note_off_c, 4, 40, 64
1, 427138, Note_on_c, 4, 64, 126
1, 427152, Note_off_c, 4, 62, 64
1, 427181, Note_on_c, 4, 62, 127
1, 427194, Note_off_c, 4, 64, 64
1, 427223, Note_on_c, 2, 69, 120
1, 427228, Note_off_c, 2, 71, 64
1, 427236, Note_off_c, 4, 62, 64
1, 427265, Note_on_c, 4, 61, 127
1, 427306, Note_on_c, 4, 64, 126
1, 427321, Note_off_c, 4, 61, 64
1, 427349, Note_on_c, 4, 61, 127
1, 427362, Note_off_c, 4, 64, 64
1, 427391, Note_on_c, 4, 57, 127
1, 427392, Note_on_c, 4, 45, 127
1, 427405, Note_off_c, 4, 61, 64
1, 427475, Note_off_c, 4, 57, 64
1, 427475, Note_off_c, 4, 45, 64
1, 427560, Note_on_c, 4, 42, 127
1, 427560, Note_on_c, 4, 54, 127
1, 427691, Note_off_c, 4, 54, 64
1, 427691, Note_off_c, 4, 42, 64
1, 427734, Note_on_c, 4, 38, 127
1, 427734, Note_on_c, 4, 50, 127
1, 427775, Note_on_c, 4, 62, 127
1, 427817, Note_on_c, 4, 66, 127
1, 427831, Note_off_c, 4, 62, 64
1, 427860, Note_on_c, 4, 62, 127
1, 427902, Note_on_c, 1, 81, 115
1, 427915, Note_off_c, 4, 62, 64
1, 427929, Note_off_c, 2, 69, 64
1, 427944, Note_off_c, 4, 66, 64
1, 427944, Note_on_c, 4, 62, 127
1, 427985, Note_on_c, 4, 66, 127
1, 427999, Note_off_c, 4, 62, 64
1, 428028, Note_on_c, 4, 62, 127
1, 428062, Note_off_c, 1, 81, 64
1, 428070, Note_on_c, 1, 83, 115
1, 428083, Note_off_c, 4, 62, 64
1, 428112, Note_off_c, 4, 66, 64
1, 428113, Note_on_c, 4, 62, 127
1, 428153, Note_on_c, 4, 66, 127
1, 428169, Note_off_c, 4, 62, 64
1, 428196, Note_on_c, 4, 62, 127
1, 428238, Note_off_c, 1, 83, 64
1, 428239, Note_on_c, 1, 78, 115
1, 428252, Note_off_c, 4, 62, 64
1, 428281, Note_off_c, 4, 66, 64
1, 428281, Note_on_c, 4, 63, 127
1, 428324, Note_on_c, 2, 71, 117
1, 428338, Note_off_c, 4, 63, 64
1, 428366, Note_off_c, 4, 38, 64
1, 428367, Note_off_c, 4, 50, 64
1, 428367, Note_on_c, 4, 63, 127
1, 428406, Note_off_c, 1, 78, 64
1, 428408, Note_on_c, 1, 79, 115
1, 428421, Note_off_c, 4, 63, 64
1, 428450, Note_off_c, 2, 71, 64
1, 428450, Note_on_c, 4, 64, 126
1, 428492, Note_on_c, 2, 71, 117
1, 428507, Note_off_c, 4, 64, 64
1, 428534, Note_on_c, 4, 64, 126
1, 428576, Note_on_c, 4, 40, 127
1, 428576, Note_on_c, 4, 52, 127
1, 428590, Note_off_c, 4, 64, 64
1, 428619, Note_off_c, 2, 71, 64
1, 428619, Note_on_c, 2, 68, 121
1, 428662, Note_off_c, 4, 40, 64
1, 428663, Note_off_c, 4, 52, 64
1, 428663, Note_on_c, 2, 71, 117
1, 428676, Note_off_c, 2, 68, 64
1, 428703, Note_on_c, 2, 68, 121
1, 428746, Note_on_c, 4, 49, 127
1, 428747, Note_on_c, 4, 37, 127
1, 428760, Note_off_c, 2, 68, 64
1, 428789, Note_off_c, 2, 71, 64
1, 428789, Note_on_c, 2, 67, 127
1, 428831, Note_on_c, 2, 76, 118
1, 428846, Note_off_c, 2, 67, 64
1, 428859, Note_off_c, 4, 37, 64
1, 428859, Note_off_c, 4, 49, 64
1, 428873, Note_on_c, 2, 67, 127
1, 428916, Note_on_c, 4, 45, 127
1, 428916, Note_on_c, 4, 33, 127
1, 428928, Note_off_c, 2, 67, 64
1, 428957, Note_off_c, 2, 76, 64
1, 428958, Note_on_c, 2, 67, 127
1, 428999, Note_on_c, 2, 73, 118
1, 429014, Note_off_c, 2, 67, 64
1, 429027, Note_off_c, 4, 33, 64
1, 429028, Note_off_c, 4, 45, 64
1, 429042, Note_on_c, 2, 67, 127
1, 429084, Note_on_c, 4, 38, 127
1, 429084, Note_on_c, 4, 50, 127
1, 429098, Note_off_c, 2, 67, 64
1, 429125, Note_off_c, 2, 73, 64
1, 429126, Note_on_c, 4, 66, 127
1, 429168, Note_on_c, 2, 74, 118
1, 429182, Note_off_c, 4, 66, 64
1, 429211, Note_on_c, 4, 66, 127
1, 429251, Note_off_c, 1, 79, 64
1, 429252, Note_on_c, 1, 81, 115
1, 429265, Note_off_c, 4, 66, 64
1, 429294, Note_off_c, 2, 74, 64
1, 429295, Note_on_c, 4, 66, 127
1, 429330, Note_off_c, 4, 50, 64
1, 429330, Note_off_c, 4, 38, 64
1, 429336, Note_on_c, 2, 74, 118
1, 429350, Note_off_c, 4, 66, 64
1, 429379, Note_on_c, 4, 66, 127
1, 429421, Note_on_c, 4, 43, 127
1, 429421, Note_on_c, 4, 55, 127
1, 429435, Note_off_c, 4, 66, 64
1, 429462, Note_off_c, 2, 74, 64
1, 429463, Note_on_c, 4, 64, 126
1, 429505, Note_on_c, 2, 74, 118
1, 429519, Note_off_c, 4, 64, 64
1, 429546, Note_off_c, 1, 81, 64
1, 429546, Note_on_c, 4, 64, 126
1, 429589, Note_on_c, 1, 83, 118
1, 429603, Note_off_c, 4, 64, 64
1, 429630, Note_off_c, 2, 74, 64
1, 429631, Note_on_c, 4, 64, 126
1, 429673, Note_on_c, 2, 74, 118
1, 429689, Note_off_c, 4, 64, 64
1, 429716, Note_on_c, 4, 64, 126
1, 429729, Note_off_c, 2, 74, 64
1, 429758, Note_on_c, 2, 74, 118
1, 429764, Note_off_c, 1, 83, 64
1, 429771, Note_off_c, 4, 64, 64
1, 429800, Note_on_c, 4, 66, 127
1, 429841, Note_on_c, 2, 69, 119
1, 429855, Note_off_c, 4, 66, 64
1, 429884, Note_on_c, 4, 66, 127
1, 429897, Note_off_c, 2, 69, 64
1, 429912, Note_off_c, 4, 43, 64
1, 429913, Note_off_c, 4, 55, 64
1, 429925, Note_on_c, 2, 73, 118
1, 429931, Note_off_c, 2, 74, 64
1, 429940, Note_off_c, 4, 66, 64
1, 429967, Note_on_c, 4, 64, 126
1, 430009, Note_on_c, 2, 69, 119
1, 430025, Note_off_c, 4, 64, 64
1, 430052, Note_on_c, 4, 64, 126
1, 430067, Note_off_c, 2, 69, 64
1, 430096, Note_on_c, 4, 57, 127
1, 430096, Note_on_c, 4, 45, 127
1, 430110, Note_off_c, 4, 64, 64
1, 430193, Note_off_c, 4, 45, 64
1, 430193, Note_off_c, 4, 57, 64
1, 430275, Note_on_c, 4, 42, 127
1, 430275, Note_on_c, 4, 54, 127
1, 430392, Note_off_c, 4, 42, 64
1, 430393, Note_off_c, 4, 54, 64
1, 430451, Note_on_c, 4, 50, 127
1, 430452, Note_on_c, 4, 38, 127
1, 430492, Note_on_c, 4, 66, 127
1, 430535, Note_on_c, 2, 69, 119
1, 430548, Note_off_c, 4, 66, 64
1, 430577, Note_on_c, 4, 66, 127
1, 430619, Note_on_c, 1, 86, 115
1, 430632, Note_off_c, 4, 66, 64
1, 430648, Note_off_c, 2, 73, 64
1, 430661, Note_off_c, 2, 69, 64
1, 430662, Note_on_c, 4, 66, 127
1, 430703, Note_on_c, 2, 69, 119
1, 430718, Note_off_c, 4, 66, 64
1, 430745, Note_on_c, 4, 66, 127
1, 430787, Note_off_c, 1, 86, 64
1, 430788, Note_on_c, 1, 83, 115
1, 430801, Note_off_c, 4, 66, 64
1, 430830, Note_off_c, 2, 69, 64
1, 430831, Note_on_c, 4, 66, 127
1, 430872, Note_on_c, 2, 74, 118
1, 430887, Note_off_c, 4, 66, 64
1, 430914, Note_on_c, 4, 66, 127
1, 430946, Note_off_c, 1, 83, 64
1, 430956, Note_on_c, 1, 81, 115
1, 430971, Note_off_c, 4, 66, 64
1, 431000, Note_off_c, 2, 74, 64
1, 431000, Note_on_c, 4, 66, 127
1, 431040, Note_on_c, 2, 74, 118
1, 431056, Note_off_c, 4, 66, 64
1, 431083, Note_off_c, 4, 50, 64
1, 431083, Note_off_c, 4, 38, 64
1, 431084, Note_on_c, 4, 66, 127
1, 431128, Note_on_c, 1, 80, 115
1, 431129, Note_off_c, 1, 81, 64
1, 431142, Note_off_c, 4, 66, 64
1, 431171, Note_off_c, 2, 74, 64
1, 431171, Note_on_c, 4, 64, 126
1, 431212, Note_on_c, 2, 74, 118
1, 431227, Note_off_c, 4, 64, 64
1, 431254, Note_on_c, 4, 64, 126
1, 431296, Note_on_c, 4, 47, 127
1, 431297, Note_on_c, 4, 35, 127
1, 431311, Note_off_c, 4, 64, 64
1, 431340, Note_off_c, 2, 74, 64
1, 431340, Note_on_c, 2, 68, 121
1, 431381, Note_off_c, 4, 35, 64
1, 431381, Note_off_c, 4, 47, 64
1, 431382, Note_on_c, 2, 74, 118
1, 431394, Note_off_c, 2, 68, 64
1, 431423, Note_on_c, 2, 68, 121
1, 431464, Note_on_c, 4, 52, 127
1, 431465, Note_on_c, 4, 40, 127
1, 431479, Note_off_c, 2, 68, 64
1, 431508, Note_off_c, 2, 74, 64
1, 431508, Note_on_c, 2, 68, 121
1, 431549, Note_on_c, 2, 71, 117
1, 431564, Note_off_c, 2, 68, 64
1, 431578, Note_off_c, 4, 52, 64
1, 431578, Note_off_c, 4, 40, 64
1, 431592, Note_on_c, 2, 68, 121
1, 431634, Note_on_c, 4, 50, 127
1, 431635, Note_on_c, 4, 38, 127
1, 431647, Note_off_c, 2, 68, 64
1, 431676, Note_off_c, 2, 71, 64
1, 431677, Note_on_c, 2, 68, 121
1, 431718, Note_on_c, 2, 71, 117
1, 431731, Note_off_c, 2, 68, 64
1, 431747, Note_off_c, 4, 38, 64
1, 431747, Note_off_c, 4, 50, 64
1, 431759, Note_on_c, 2, 68, 121
1, 431801, Note_on_c, 4, 49, 127
1, 431802, Note_on_c, 4, 37, 127
1, 431816, Note_off_c, 2, 68, 64
1, 431844, Note_off_c, 2, 71, 64
1, 431844, Note_on_c, 2, 69, 119
1, 431886, Note_on_c, 2, 73, 118
1, 431901, Note_off_c, 2, 69, 64
1, 431928, Note_on_c, 2, 69, 119
1, 431941, Note_off_c, 2, 73, 64
1, 431970, Note_off_c, 1, 80, 64
1, 431971, Note_on_c, 2, 76, 118
1, 431985, Note_off_c, 2, 69, 64
1, 432013, Note_on_c, 4, 61, 127
1, 432048, Note_off_c, 4, 49, 64
1, 432048, Note_off_c, 4, 37, 64
1, 432055, Note_on_c, 2, 69, 119
1, 432068, Note_off_c, 4, 61, 64
1, 432096, Note_on_c, 4, 61, 127
1, 432111, Note_off_c, 2, 69, 64
1, 432138, Note_on_c, 4, 52, 127
1, 432139, Note_on_c, 4, 40, 127
1, 432152, Note_off_c, 4, 61, 64
1, 432181, Note_on_c, 4, 59, 127
1, 432224, Note_on_c, 2, 68, 121
1, 432237, Note_off_c, 4, 59, 64
1, 432267, Note_on_c, 4, 59, 127
1, 432280, Note_off_c, 2, 68, 64
1, 432307, Note_off_c, 2, 76, 64
1, 432308, Note_on_c, 2, 68, 122
1, 432322, Note_off_c, 4, 59, 64
1, 432348, Note_on_c, 4, 62, 127
1, 432393, Note_on_c, 4, 64, 126
1, 432406, Note_off_c, 4, 62, 64
1, 432435, Note_on_c, 4, 62, 127
1, 432448, Note_off_c, 4, 64, 64
1, 432477, Note_on_c, 2, 71, 118
1, 432481, Note_off_c, 2, 68, 64
1, 432491, Note_off_c, 4, 62, 64
1, 432518, Note_on_c, 4, 62, 127
1, 432561, Note_on_c, 4, 64, 126
1, 432574, Note_off_c, 4, 62, 64
1, 432603, Note_on_c, 4, 62, 127
1, 432616, Note_off_c, 4, 64, 64
1, 432642, Note_off_c, 2, 71, 64
1, 432645, Note_on_c, 2, 69, 120
1, 432659, Note_off_c, 4, 62, 64
1, 432687, Note_on_c, 4, 61, 127
1, 432730, Note_on_c, 4, 64, 126
1, 432743, Note_off_c, 4, 61, 64
1, 432772, Note_on_c, 4, 61, 127
1, 432785, Note_off_c, 4, 64, 64
1, 432807, Note_off_c, 2, 69, 64
1, 432813, Note_on_c, 1, 81, 115
1, 432827, Note_off_c, 4, 61, 64
1, 432857, Note_on_c, 2, 69, 119
1, 432901, Note_on_c, 1, 78, 115
1, 432917, Note_off_c, 2, 69, 64
1, 432917, Note_off_c, 4, 52, 64
1, 432947, Note_on_c, 2, 69, 119
1, 432989, Note_off_c, 1, 81, 64
1, 432991, Note_on_c, 1, 84, 115
1, 433005, Note_off_c, 2, 69, 64
1, 433036, Note_off_c, 1, 78, 64
1, 433036, Note_on_c, 2, 76, 118
1, 433081, Note_on_c, 1, 81, 115
1, 433094, Note_off_c, 2, 76, 64
1, 433125, Note_on_c, 2, 76, 118
1, 433140, Note_off_c, 1, 81, 64
1, 433168, Note_off_c, 1, 84, 64
1, 433168, Note_on_c, 1, 83, 115
1, 433182, Note_off_c, 2, 76, 64
1, 433212, Note_on_c, 2, 75, 118
1, 433255, Note_on_c, 1, 81, 115
1, 433272, Note_off_c, 2, 75, 64
1, 433299, Note_on_c, 2, 75, 118
1, 433330, Note_off_c, 1, 83, 64
1, 433342, Note_on_c, 1, 88, 117
1, 433358, Note_off_c, 2, 75, 64
1, 433389, Note_off_c, 1, 81, 64
1, 433390, Note_on_c, 2, 74, 118
1, 433431, Note_on_c, 1, 80, 115
1, 433446, Note_off_c, 2, 74, 64
1, 433475, Note_on_c, 2, 74, 118
1, 433488, Note_off_c, 1, 80, 64
1, 433517, Note_off_c, 1, 88, 64
1, 433517, Note_on_c, 1, 81, 115
1, 433530, Note_off_c, 2, 74, 64
1, 433562, Note_on_c, 2, 73, 118
1, 433603, Note_on_c, 1, 79, 115
1, 433618, Note_off_c, 2, 73, 64
1, 433648, Note_on_c, 2, 73, 118
1, 433689, Note_off_c, 1, 81, 64
1, 433691, Note_on_c, 1, 86, 115
1, 433706, Note_off_c, 2, 73, 64
1, 433737, Note_off_c, 1, 79, 64
1, 433738, Note_on_c, 2, 72, 118
1, 433778, Note_on_c, 1, 78, 115
1, 433792, Note_off_c, 2, 72, 64
1, 433819, Note_on_c, 2, 72, 118
1, 433863, Note_off_c, 4, 40, 64
1, 433863, Note_on_c, 4, 55, 127
1, 433864, Note_on_c, 4, 43, 127
1, 433877, Note_off_c, 2, 72, 64
1, 433906, Note_off_c, 1, 78, 64
1, 433907, Note_on_c, 2, 71, 117
1, 433951, Note_on_c, 1, 83, 115
1, 433959, Note_off_c, 4, 55, 64
1, 433959, Note_off_c, 4, 43, 64
1, 433966, Note_off_c, 2, 71, 64
1, 433994, Note_on_c, 2, 71, 117
1, 434037, Note_on_c, 4, 61, 127
1, 434037, Note_on_c, 4, 49, 127
1, 434051, Note_off_c, 2, 71, 64
1, 434080, Note_off_c, 1, 83, 64
1, 434080, Note_on_c, 2, 76, 118
1, 434121, Note_on_c, 1, 79, 115
1, 434129, Note_off_c, 4, 49, 64
1, 434129, Note_off_c, 4, 61, 64
1, 434136, Note_off_c, 2, 76, 64
1, 434164, Note_on_c, 2, 76, 118
1, 434207, Note_on_c, 4, 54, 127
1, 434207, Note_on_c, 4, 42, 127
1, 434221, Note_off_c, 2, 76, 64
1, 434248, Note_off_c, 1, 79, 64
1, 434248, Note_on_c, 2, 69, 119
1, 434291, Note_on_c, 1, 81, 115
1, 434299, Note_off_c, 4, 42, 64
1, 434299, Note_off_c, 4, 54, 64
1, 434305, Note_off_c, 2, 69, 64
1, 434334, Note_on_c, 2, 69, 119
1, 434376, Note_on_c, 4, 59, 127
1, 434377, Note_on_c, 4, 47, 127
1, 434389, Note_off_c, 2, 69, 64
1, 434418, Note_off_c, 1, 81, 64
1, 434418, Note_on_c, 2, 74, 118
1, 434461, Note_on_c, 1, 78, 115
1, 434467, Note_off_c, 4, 59, 64
1, 434467, Note_off_c, 4, 47, 64
1, 434475, Note_off_c, 2, 74, 64
1, 434502, Note_on_c, 2, 74, 118
1, 434544, Note_on_c, 4, 52, 127
1, 434545, Note_on_c, 4, 40, 127
1, 434559, Note_off_c, 2, 74, 64
1, 434588, Note_off_c, 1, 78, 64
1, 434588, Note_on_c, 2, 71, 117
1, 434629, Note_on_c, 1, 79, 115
1, 434642, Note_off_c, 2, 71, 64
1, 434671, Note_on_c, 2, 71, 117
1, 434685, Note_off_c, 1, 86, 64
1, 434713, Note_on_c, 1, 85, 115
1, 434727, Note_off_c, 2, 71, 64
1, 434756, Note_off_c, 1, 79, 64
1, 434756, Note_on_c, 2, 69, 119
1, 434797, Note_on_c, 1, 79, 115
1, 434812, Note_off_c, 2, 69, 64
1, 434839, Note_on_c, 2, 69, 119
1, 434875, Note_off_c, 1, 85, 64
1, 434882, Note_on_c, 1, 86, 115
1, 434896, Note_off_c, 2, 69, 64
1, 434923, Note_off_c, 1, 79, 64
1, 434923, Note_on_c, 2, 69, 119
1, 434964, Note_on_c, 1, 78, 115
1, 434977, Note_off_c, 2, 69, 64
1, 435006, Note_on_c, 2, 69, 119
1, 435049, Note_on_c, 2, 74, 118
1, 435063, Note_off_c, 2, 69, 64
1, 435090, Note_off_c, 1, 78, 64
1, 435090, Note_off_c, 1, 86, 64
1, 435091, Note_on_c, 2, 68, 121
1, 435129, Note_on_c, 2, 71, 117
1, 435144, Note_off_c, 2, 68, 64
1, 435173, Note_on_c, 2, 68, 121
1, 435204, Note_off_c, 2, 74, 64
1, 435214, Note_on_c, 1, 78, 115
1, 435227, Note_off_c, 2, 68, 64
1, 435256, Note_off_c, 2, 71, 64
1, 435256, Note_on_c, 2, 69, 119
1, 435297, Note_on_c, 2, 74, 118
1, 435313, Note_off_c, 2, 69, 64
1, 435340, Note_on_c, 2, 69, 119
1, 435354, Note_off_c, 2, 74, 64
1, 435375, Note_off_c, 1, 78, 64
1, 435383, Note_off_c, 4, 52, 64
1, 435383, Note_on_c, 2, 76, 118
1, 435384, Note_on_c, 2, 76, 118
1, 435397, Note_off_c, 2, 69, 64
1, 435426, Note_on_c, 2, 69, 119
1, 435468, Note_on_c, 2, 73, 118
1, 435483, Note_off_c, 2, 69, 64
1, 435512, Note_on_c, 2, 69, 119
1, 435549, Note_off_c, 2, 76, 64
1, 435549, Note_off_c, 2, 76, 64
1, 435557, Note_on_c, 1, 88, 117
1, 435558, Note_on_c, 2, 76, 118
1, 435572, Note_off_c, 2, 69, 64
1, 435600, Note_off_c, 2, 73, 64
1, 435676, Note_off_c, 4, 40, 64
1, 435729, Note_off_c, 2, 76, 64
1, 435730, Note_off_c, 1, 88, 64
1, 435736, Note_on_c, 2, 73, 118
1, 435736, Note_on_c, 1, 85, 115
1, 435908, Note_off_c, 1, 85, 64
1, 435908, Note_off_c, 2, 73, 64
1, 435916, Note_on_c, 1, 81, 115
1, 435917, Note_on_c, 2, 69, 119
1, 436208, Note_off_c, 1, 81, 64
1, 436208, Note_off_c, 2, 69, 64
1, 436266, Note_on_c, 4, 57, 127
1, 436267, Note_on_c, 4, 45, 127
1, 436359, Note_off_c, 4, 45, 64
1, 436360, Note_off_c, 4, 57, 64
1, 436452, Note_on_c, 4, 54, 127
1, 436453, Note_on_c, 4, 42, 127
1, 436588, Note_off_c, 4, 54, 64
1, 436588, Note_off_c, 4, 42, 64
1, 436635, Note_on_c, 4, 38, 127
1, 436635, Note_on_c, 4, 50, 127
1, 436676, Note_on_c, 4, 62, 127
1, 436718, Note_on_c, 4, 66, 127
1, 436732, Note_off_c, 4, 62, 64
1, 436761, Note_on_c, 4, 62, 127
1, 436803, Note_on_c, 1, 81, 115
1, 436818, Note_off_c, 4, 62, 64
1, 436847, Note_off_c, 4, 66, 64
1, 436848, Note_on_c, 4, 62, 127
1, 436890, Note_on_c, 4, 66, 127
1, 436904, Note_off_c, 4, 62, 64
1, 436934, Note_on_c, 4, 62, 127
1, 436973, Note_off_c, 1, 81, 64
1, 436977, Note_on_c, 1, 83, 115
1, 436990, Note_off_c, 4, 62, 64
1, 437019, Note_off_c, 4, 66, 64
1, 437019, Note_on_c, 4, 62, 127
1, 437062, Note_off_c, 4, 38, 64
1, 437063, Note_off_c, 4, 50, 64
1, 437063, Note_on_c, 4, 66, 127
1, 437076, Note_off_c, 4, 62, 64
1, 437103, Note_on_c, 4, 62, 127
1, 437146, Note_off_c, 1, 83, 64
1, 437146, Note_on_c, 1, 78, 115
1, 437161, Note_off_c, 4, 62, 64
1, 437190, Note_off_c, 4, 66, 64
1, 437190, Note_on_c, 4, 63, 127
1, 437233, Note_on_c, 2, 71, 117
1, 437246, Note_off_c, 4, 63, 64
1, 437273, Note_on_c, 4, 63, 127
1, 437314, Note_on_c, 1, 79, 115
1, 437319, Note_off_c, 1, 78, 64
1, 437329, Note_off_c, 4, 63, 64
1, 437356, Note_off_c, 2, 71, 64
1, 437356, Note_on_c, 4, 64, 126
1, 437399, Note_on_c, 2, 71, 117
1, 437412, Note_off_c, 4, 64, 64
1, 437441, Note_on_c, 4, 64, 126
1, 437484, Note_on_c, 4, 40, 127
1, 437484, Note_on_c, 4, 52, 127
1, 437496, Note_off_c, 4, 64, 64
1, 437525, Note_off_c, 2, 71, 64
1, 437525, Note_on_c, 2, 68, 121
1, 437568, Note_on_c, 2, 71, 117
1, 437581, Note_off_c, 2, 68, 64
1, 437608, Note_off_c, 4, 40, 64
1, 437609, Note_off_c, 4, 52, 64
1, 437609, Note_on_c, 2, 68, 121
1, 437652, Note_on_c, 4, 37, 127
1, 437652, Note_on_c, 4, 49, 127
1, 437666, Note_off_c, 2, 68, 64
1, 437693, Note_off_c, 2, 71, 64
1, 437693, Note_on_c, 2, 67, 127
1, 437736, Note_on_c, 2, 76, 118
1, 437749, Note_off_c, 2, 67, 64
1, 437778, Note_off_c, 4, 37, 64
1, 437779, Note_off_c, 4, 49, 64
1, 437779, Note_on_c, 2, 67, 127
1, 437820, Note_on_c, 4, 45, 127
1, 437820, Note_on_c, 4, 33, 127
1, 437834, Note_off_c, 2, 67, 64
1, 437863, Note_off_c, 2, 76, 64
1, 437863, Note_on_c, 2, 67, 127
1, 437904, Note_on_c, 2, 73, 118
1, 437917, Note_off_c, 2, 67, 64
1, 437946, Note_off_c, 4, 33, 64
1, 437947, Note_off_c, 4, 45, 64
1, 437947, Note_on_c, 2, 67, 127
1, 437988, Note_on_c, 4, 38, 127
1, 437988, Note_on_c, 4, 50, 127
1, 438002, Note_off_c, 2, 67, 64
1, 438030, Note_off_c, 2, 73, 64
1, 438030, Note_on_c, 4, 66, 127
1, 438073, Note_on_c, 2, 74, 118
1, 438086, Note_off_c, 4, 66, 64
1, 438115, Note_on_c, 4, 66, 127
1, 438156, Note_off_c, 1, 79, 64
1, 438157, Note_on_c, 1, 83, 115
1, 438171, Note_off_c, 4, 66, 64
1, 438198, Note_off_c, 2, 74, 64
1, 438198, Note_on_c, 2, 67, 127
1, 438234, Note_off_c, 4, 50, 64
1, 438234, Note_off_c, 4, 38, 64
1, 438240, Note_on_c, 2, 74, 118
1, 438255, Note_off_c, 2, 67, 64
1, 438283, Note_on_c, 2, 67, 127
1, 438325, Note_on_c, 4, 45, 127
1, 438325, Note_on_c, 4, 57, 127
1, 438339, Note_off_c, 2, 67, 64
1, 438368, Note_off_c, 2, 74, 64
1, 438368, Note_on_c, 4, 66, 127
1, 438409, Note_on_c, 2, 74, 118
1, 438423, Note_off_c, 4, 66, 64
1, 438452, Note_on_c, 4, 66, 127
1, 438465, Note_off_c, 2, 74, 64
1, 438486, Note_off_c, 1, 83, 64
1, 438494, Note_on_c, 2, 73, 118
1, 438507, Note_off_c, 4, 66, 64
1, 438536, Note_on_c, 4, 64, 126
1, 438579, Note_on_c, 2, 69, 119
1, 438593, Note_off_c, 4, 64, 64
1, 438622, Note_on_c, 4, 64, 126
1, 438650, Note_off_c, 2, 73, 64
1, 438664, Note_on_c, 2, 76, 118
1, 438677, Note_off_c, 4, 64, 64
1, 438706, Note_off_c, 2, 69, 64
1, 438707, Note_on_c, 2, 67, 127
1, 438747, Note_off_c, 4, 57, 64
1, 438748, Note_on_c, 2, 69, 119
1, 438762, Note_off_c, 2, 67, 64
1, 438791, Note_on_c, 2, 67, 127
1, 438831, Note_on_c, 2, 74, 118
1, 438832, Note_off_c, 2, 76, 64
1, 438846, Note_off_c, 2, 67, 64
1, 438874, Note_off_c, 2, 69, 64
1, 438875, Note_on_c, 4, 66, 127
1, 438915, Note_on_c, 2, 69, 119
1, 438929, Note_off_c, 4, 66, 64
1, 438956, Note_on_c, 4, 66, 127
1, 438971, Note_off_c, 2, 69, 64
1, 438990, Note_off_c, 2, 74, 64
1, 438998, Note_on_c, 1, 81, 115
1, 439011, Note_off_c, 4, 66, 64
1, 439040, Note_on_c, 2, 69, 119
1, 439084, Note_on_c, 1, 78, 115
1, 439100, Note_off_c, 2, 69, 64
1, 439129, Note_on_c, 2, 69, 119
1, 439168, Note_off_c, 1, 81, 64
1, 439172, Note_on_c, 1, 84, 115
1, 439188, Note_off_c, 2, 69, 64
1, 439216, Note_off_c, 1, 78, 64
1, 439216, Note_on_c, 2, 76, 118
1, 439257, Note_on_c, 1, 81, 115
1, 439272, Note_off_c, 2, 76, 64
1, 439301, Note_on_c, 2, 76, 118
1, 439317, Note_off_c, 1, 81, 64
1, 439344, Note_off_c, 1, 84, 64
1, 439344, Note_on_c, 1, 83, 115
1, 439358, Note_off_c, 2, 76, 64
1, 439387, Note_on_c, 2, 75, 118
1, 439431, Note_on_c, 1, 81, 115
1, 439444, Note_off_c, 2, 75, 64
1, 439475, Note_on_c, 2, 75, 118
1, 439517, Note_on_c, 1, 88, 117
1, 439519, Note_off_c, 1, 83, 64
1, 439533, Note_off_c, 2, 75, 64
1, 439561, Note_off_c, 1, 81, 64
1, 439562, Note_on_c, 2, 74, 118
1, 439607, Note_on_c, 1, 80, 115
1, 439622, Note_off_c, 2, 74, 64
1, 439651, Note_on_c, 2, 74, 118
1, 439665, Note_off_c, 1, 80, 64
1, 439695, Note_off_c, 1, 88, 64
1, 439695, Note_on_c, 1, 81, 115
1, 439707, Note_off_c, 2, 74, 64
1, 439738, Note_on_c, 2, 73, 118
1, 439782, Note_on_c, 1, 79, 115
1, 439796, Note_off_c, 2, 73, 64
1, 439825, Note_on_c, 2, 73, 118
1, 439870, Note_on_c, 1, 86, 115
1, 439875, Note_off_c, 1, 81, 64
1, 439885, Note_off_c, 2, 73, 64
1, 439912, Note_off_c, 1, 79, 64
1, 439912, Note_on_c, 2, 72, 118
1, 439955, Note_on_c, 1, 78, 115
1, 439970, Note_off_c, 2, 72, 64
1, 439999, Note_on_c, 2, 72, 118
1, 440044, Note_off_c, 4, 45, 64
1, 440044, Note_on_c, 4, 55, 127
1, 440044, Note_on_c, 4, 43, 127
1, 440059, Note_off_c, 2, 72, 64
1, 440088, Note_off_c, 1, 78, 64
1, 440088, Note_on_c, 2, 71, 117
1, 440131, Note_on_c, 1, 83, 115
1, 440139, Note_off_c, 4, 43, 64
1, 440139, Note_off_c, 4, 55, 64
1, 440145, Note_off_c, 2, 71, 64
1, 440174, Note_on_c, 2, 71, 117
1, 440216, Note_on_c, 4, 61, 127
1, 440217, Note_on_c, 4, 49, 127
1, 440231, Note_off_c, 2, 71, 64
1, 440261, Note_off_c, 1, 83, 64
1, 440262, Note_on_c, 2, 76, 118
1, 440304, Note_on_c, 1, 79, 115
1, 440313, Note_off_c, 4, 49, 64
1, 440313, Note_off_c, 4, 61, 64
1, 440319, Note_off_c, 2, 76, 64
1, 440348, Note_on_c, 2, 76, 118
1, 440390, Note_on_c, 4, 42, 127
1, 440390, Note_on_c, 4, 54, 127
1, 440404, Note_off_c, 2, 76, 64
1, 440433, Note_off_c, 1, 79, 64
1, 440434, Note_on_c, 2, 69, 119
1, 440477, Note_on_c, 1, 81, 115
1, 440484, Note_off_c, 4, 54, 64
1, 440484, Note_off_c, 4, 42, 64
1, 440491, Note_off_c, 2, 69, 64
1, 440520, Note_on_c, 2, 69, 119
1, 440560, Note_on_c, 4, 59, 127
1, 440561, Note_on_c, 4, 47, 127
1, 440576, Note_off_c, 2, 69, 64
1, 440604, Note_off_c, 1, 81, 64
1, 440604, Note_on_c, 2, 74, 118
1, 440648, Note_on_c, 1, 78, 115
1, 440655, Note_off_c, 4, 47, 64
1, 440656, Note_off_c, 4, 59, 64
1, 440662, Note_off_c, 2, 74, 64
1, 440689, Note_on_c, 2, 74, 118
1, 440731, Note_on_c, 4, 52, 127
1, 440732, Note_on_c, 4, 40, 127
1, 440746, Note_off_c, 2, 74, 64
1, 440773, Note_off_c, 1, 78, 64
1, 440774, Note_on_c, 2, 71, 117
1, 440815, Note_on_c, 1, 79, 115
1, 440830, Note_off_c, 2, 71, 64
1, 440857, Note_on_c, 2, 71, 117
1, 440872, Note_off_c, 1, 86, 64
1, 440899, Note_on_c, 1, 85, 115
1, 440915, Note_off_c, 2, 71, 64
1, 440941, Note_off_c, 1, 79, 64
1, 440942, Note_on_c, 2, 69, 119
1, 440983, Note_on_c, 1, 79, 115
1, 440998, Note_off_c, 2, 69, 64
1, 441027, Note_on_c, 2, 69, 119
1, 441051, Note_off_c, 1, 85, 64
1, 441067, Note_on_c, 1, 86, 115
1, 441082, Note_off_c, 2, 69, 64
1, 441110, Note_off_c, 1, 79, 64
1, 441111, Note_on_c, 2, 69, 119
1, 441152, Note_off_c, 4, 52, 64
1, 441152, Note_on_c, 1, 78, 115
1, 441166, Note_off_c, 2, 69, 64
1, 441195, Note_on_c, 2, 69, 119
1, 441237, Note_on_c, 2, 74, 118
1, 441251, Note_off_c, 2, 69, 64
1, 441279, Note_off_c, 1, 78, 64
1, 441280, Note_on_c, 2, 68, 121
1, 441321, Note_on_c, 2, 71, 117
1, 441336, Note_off_c, 2, 68, 64
1, 441365, Note_off_c, 1, 86, 64
1, 441365, Note_on_c, 2, 68, 121
1, 441379, Note_off_c, 2, 71, 64
1, 441395, Note_off_c, 2, 74, 64
1, 441406, Note_on_c, 1, 78, 115
1, 441420, Note_off_c, 2, 68, 64
1, 441448, Note_on_c, 2, 69, 119
1, 441489, Note_on_c, 2, 74, 118
1, 441502, Note_off_c, 2, 69, 64
1, 441529, Note_on_c, 2, 69, 119
1, 441542, Note_off_c, 2, 74, 64
1, 441564, Note_off_c, 1, 78, 64
1, 441571, Note_on_c, 2, 76, 118
1, 441585, Note_off_c, 2, 69, 64
1, 441613, Note_on_c, 2, 69, 119
1, 441660, Note_on_c, 2, 73, 118
1, 441675, Note_off_c, 2, 69, 64
1, 441704, Note_on_c, 2, 69, 119
1, 441740, Note_off_c, 2, 76, 64
1, 441748, Note_on_c, 2, 76, 118
1, 441748, Note_on_c, 1, 88, 117
1, 441762, Note_off_c, 2, 69, 64
1, 441795, Note_off_c, 2, 73, 64
1, 441874, Note_off_c, 4, 40, 64
1, 441925, Note_off_c, 2, 76, 64
1, 441926, Note_off_c, 1, 88, 64
1, 441933, Note_on_c, 2, 73, 118
1, 441933, Note_on_c, 1, 85, 115
1, 442102, Note_off_c, 2, 73, 64
1, 442103, Note_off_c, 1, 85, 64
1, 442111, Note_on_c, 2, 69, 119
1, 442111, Note_on_c, 1, 81, 115
1, 442321, Note_off_c, 1, 81, 64
1, 442321, Note_off_c, 2, 69, 64
1, 442449, Note_on_c, 4, 57, 127
1, 442449, Note_on_c, 4, 45, 127
1, 442540, Note_off_c, 4, 45, 64
1, 442540, Note_off_c, 4, 57, 64
1, 442633, Note_on_c, 4, 54, 127
1, 442633, Note_on_c, 4, 42, 127
1, 442759, Note_off_c, 4, 42, 64
1, 442759, Note_off_c, 4, 54, 64
1, 442822, Note_on_c, 4, 38, 127
1, 442822, Note_on_c, 4, 50, 127
1, 442864, Note_on_c, 4, 62, 127
1, 442907, Note_on_c, 4, 66, 127
1, 442920, Note_off_c, 4, 62, 64
1, 442949, Note_on_c, 4, 62, 127
1, 442963, Note_off_c, 4, 66, 64
1, 442990, Note_on_c, 1, 81, 115
1, 443004, Note_off_c, 4, 62, 64
1, 443033, Note_on_c, 4, 62, 127
1, 443075, Note_on_c, 4, 66, 127
1, 443088, Note_off_c, 4, 62, 64
1, 443117, Note_on_c, 4, 62, 127
1, 443132, Note_off_c, 4, 66, 64
1, 443146, Note_off_c, 1, 81, 64
1, 443160, Note_on_c, 1, 83, 115
1, 443175, Note_off_c, 4, 62, 64
1, 443204, Note_on_c, 4, 62, 127
1, 443248, Note_on_c, 4, 66, 127
1, 443261, Note_off_c, 4, 62, 64
1, 443290, Note_on_c, 4, 62, 127
1, 443304, Note_off_c, 4, 66, 64
1, 443329, Note_off_c, 1, 83, 64
1, 443333, Note_on_c, 1, 78, 115
1, 443347, Note_off_c, 4, 62, 64
1, 443376, Note_on_c, 4, 63, 127
1, 443418, Note_on_c, 2, 71, 117
1, 443433, Note_off_c, 4, 63, 64
1, 443462, Note_off_c, 4, 50, 64
1, 443462, Note_off_c, 4, 38, 64
1, 443463, Note_on_c, 4, 63, 127
1, 443475, Note_off_c, 2, 71, 64
1, 443500, Note_off_c, 1, 78, 64
1, 443504, Note_on_c, 1, 79, 115
1, 443518, Note_off_c, 4, 63, 64
1, 443546, Note_on_c, 4, 64, 126
1, 443589, Note_on_c, 2, 71, 117
1, 443604, Note_off_c, 4, 64, 64
1, 443633, Note_on_c, 4, 64, 126
1, 443646, Note_off_c, 2, 71, 64
1, 443677, Note_on_c, 4, 40, 127
1, 443677, Note_on_c, 4, 52, 127
1, 443691, Note_off_c, 4, 64, 64
1, 443718, Note_on_c, 2, 68, 121
1, 443760, Note_off_c, 4, 40, 64
1, 443761, Note_off_c, 4, 52, 64
1, 443761, Note_on_c, 2, 71, 117
1, 443775, Note_off_c, 2, 68, 64
1, 443804, Note_on_c, 2, 68, 121
1, 443817, Note_off_c, 2, 71, 64
1, 443844, Note_on_c, 4, 49, 127
1, 443844, Note_on_c, 4, 37, 127
1, 443858, Note_off_c, 2, 68, 64
1, 443887, Note_on_c, 2, 67, 127
1, 443929, Note_on_c, 2, 76, 118
1, 443943, Note_off_c, 2, 67, 64
1, 443951, Note_off_c, 4, 37, 64
1, 443951, Note_off_c, 4, 49, 64
1, 443971, Note_on_c, 2, 67, 127
1, 443986, Note_off_c, 2, 76, 64
1, 444013, Note_on_c, 4, 45, 127
1, 444013, Note_on_c, 4, 33, 127
1, 444027, Note_off_c, 2, 67, 64
1, 444056, Note_on_c, 2, 67, 127
1, 444098, Note_on_c, 2, 73, 118
1, 444112, Note_off_c, 2, 67, 64
1, 444120, Note_off_c, 4, 33, 64
1, 444120, Note_off_c, 4, 45, 64
1, 444142, Note_on_c, 2, 67, 127
1, 444155, Note_off_c, 2, 73, 64
1, 444184, Note_on_c, 4, 38, 127
1, 444184, Note_on_c, 4, 50, 127
1, 444196, Note_off_c, 2, 67, 64
1, 444225, Note_on_c, 4, 66, 127
1, 444267, Note_on_c, 2, 74, 118
1, 444281, Note_off_c, 4, 66, 64
1, 444310, Note_on_c, 4, 66, 127
1, 444323, Note_off_c, 2, 74, 64
1, 444352, Note_off_c, 1, 79, 64
1, 444352, Note_on_c, 1, 83, 115
1, 444366, Note_off_c, 4, 66, 64
1, 444393, Note_on_c, 2, 67, 127
1, 444430, Note_off_c, 4, 50, 64
1, 444430, Note_off_c, 4, 38, 64
1, 444436, Note_on_c, 2, 74, 118
1, 444450, Note_off_c, 2, 67, 64
1, 444479, Note_on_c, 2, 67, 127
1, 444492, Note_off_c, 2, 74, 64
1, 444521, Note_on_c, 4, 45, 127
1, 444521, Note_on_c, 4, 57, 127
1, 444533, Note_off_c, 2, 67, 64
1, 444562, Note_on_c, 4, 66, 127
1, 444604, Note_on_c, 2, 74, 118
1, 444618, Note_off_c, 4, 66, 64
1, 444647, Note_on_c, 4, 66, 127
1, 444660, Note_off_c, 2, 74, 64
1, 444689, Note_off_c, 1, 83, 64
1, 444689, Note_on_c, 2, 73, 118
1, 444702, Note_off_c, 4, 66, 64
1, 444730, Note_on_c, 4, 64, 126
1, 444774, Note_on_c, 2, 69, 119
1, 444788, Note_off_c, 4, 64, 64
1, 444816, Note_on_c, 4, 64, 126
1, 444830, Note_off_c, 2, 69, 64
1, 444849, Note_off_c, 2, 73, 64
1, 444859, Note_on_c, 2, 76, 118
1, 444872, Note_off_c, 4, 64, 64
1, 444901, Note_on_c, 2, 67, 127
1, 444947, Note_off_c, 4, 57, 64
1, 444948, Note_on_c, 2, 69, 119
1, 444961, Note_off_c, 2, 67, 64
1, 444992, Note_on_c, 2, 67, 127
1, 445009, Note_off_c, 2, 69, 64
1, 445038, Note_off_c, 2, 76, 64
1, 445042, Note_on_c, 2, 74, 118
1, 445059, Note_off_c, 2, 67, 64
1, 445094, Note_on_c, 4, 66, 127
1, 445148, Note_on_c, 2, 69, 119
1, 445169, Note_off_c, 4, 66, 64
1, 445211, Note_on_c, 4, 66, 127
1, 445234, Note_off_c, 2, 69, 64
1, 445274, Note_on_c, 2, 69, 119
1, 445298, Note_off_c, 4, 66, 64
1, 445395, Note_on_c, 2, 70, 119
1, 445397, Note_off_c, 2, 69, 64
1, 445501, Note_off_c, 2, 70, 64
1, 445503, Note_on_c, 2, 69, 119
1, 445509, Note_off_c, 2, 74, 64
1, 445613, Note_off_c, 2, 69, 64
1, 445613, Note_on_c, 2, 73, 117
1, 445714, Note_off_c, 2, 73, 64
1, 445721, Note_on_c, 2, 74, 113
1, 445771, Note_off_c, 4, 45, 64
1, 445817, Note_on_c, 2, 69, 113
1, 445817, Note_on_c, 4, 65, 123
1, 445818, Note_on_c, 4, 62, 127
1, 445918, Note_off_c, 4, 62, 64
1, 445918, Note_off_c, 4, 65, 64
1, 445919, Note_off_c, 2, 69, 64
1, 445927, Note_on_c, 2, 69, 113
1, 445927, Note_on_c, 4, 65, 123
1, 445927, Note_on_c, 4, 62, 127
1, 446024, Note_off_c, 4, 62, 64
1, 446024, Note_off_c, 4, 65, 64
1, 446024, Note_off_c, 2, 69, 64
1, 446032, Note_on_c, 2, 69, 113
1, 446033, Note_on_c, 4, 62, 127
1, 446033, Note_on_c, 4, 65, 123
1, 446093, Note_off_c, 2, 74, 64
1, 446135, Note_on_c, 1, 82, 105
1, 446191, Note_off_c, 1, 82, 64
1, 446191, Note_on_c, 1, 81, 105
1, 446236, Note_off_c, 4, 65, 64
1, 446236, Note_off_c, 4, 62, 64
1, 446237, Note_off_c, 2, 69, 64
1, 446241, Note_off_c, 1, 81, 64
1, 446241, Note_on_c, 1, 82, 105
1, 446241, Note_on_c, 2, 69, 113
1, 446242, Note_on_c, 4, 65, 123
1, 446242, Note_on_c, 4, 62, 127
1, 446291, Note_off_c, 1, 82, 64
1, 446291, Note_on_c, 1, 81, 105
1, 446334, Note_off_c, 4, 62, 64
1, 446334, Note_off_c, 4, 65, 64
1, 446335, Note_off_c, 2, 69, 64
1, 446342, Note_off_c, 1, 81, 64
1, 446343, Note_on_c, 4, 65, 123
1, 446343, Note_on_c, 2, 69, 113
1, 446343, Note_on_c, 1, 82, 100
1, 446344, Note_on_c, 4, 62, 127
1, 446390, Note_off_c, 1, 82, 64
1, 446391, Note_on_c, 1, 81, 100
1, 446430, Note_off_c, 4, 65, 64
1, 446430, Note_off_c, 4, 62, 64
1, 446431, Note_off_c, 2, 69, 64
1, 446438, Note_off_c, 1, 81, 64
1, 446439, Note_on_c, 1, 79, 100
1, 446439, Note_on_c, 2, 69, 113
1, 446440, Note_on_c, 4, 65, 123
1, 446440, Note_on_c, 4, 62, 127
1, 446486, Note_off_c, 1, 79, 64
1, 446487, Note_on_c, 2, 77, 103
1, 446537, Note_off_c, 2, 77, 64
1, 446538, Note_on_c, 2, 76, 108
1, 446632, Note_off_c, 4, 62, 64
1, 446633, Note_off_c, 4, 65, 64
1, 446633, Note_off_c, 2, 69, 64
1, 446637, Note_on_c, 4, 64, 121
1, 446638, Note_on_c, 4, 55, 127
1, 446638, Note_on_c, 4, 58, 127
1, 446732, Note_off_c, 4, 55, 64
1, 446733, Note_off_c, 4, 64, 64
1, 446733, Note_off_c, 4, 58, 64
1, 446740, Note_on_c, 4, 64, 121
1, 446740, Note_on_c, 4, 58, 127
1, 446741, Note_on_c, 4, 55, 127
1, 446833, Note_off_c, 4, 55, 64
1, 446833, Note_off_c, 4, 58, 64
1, 446834, Note_off_c, 4, 64, 64
1, 446840, Note_on_c, 4, 58, 127
1, 446840, Note_on_c, 4, 64, 121
1, 446841, Note_on_c, 4, 55, 127
1, 446891, Note_off_c, 2, 76, 64
1, 446944, Note_on_c, 1, 81, 100
1, 446998, Note_off_c, 1, 81, 64
1, 446999, Note_on_c, 1, 79, 96
1, 447043, Note_off_c, 4, 55, 64
1, 447044, Note_off_c, 4, 64, 64
1, 447044, Note_off_c, 4, 58, 64
1, 447048, Note_off_c, 1, 79, 64
1, 447048, Note_on_c, 1, 81, 100
1, 447049, Note_on_c, 4, 61, 127
1, 447049, Note_on_c, 4, 64, 121
1, 447050, Note_on_c, 4, 57, 127
1, 447097, Note_off_c, 1, 81, 64
1, 447097, Note_on_c, 1, 79, 96
1, 447138, Note_off_c, 4, 57, 64
1, 447139, Note_off_c, 4, 64, 64
1, 447139, Note_off_c, 4, 61, 64
1, 447147, Note_off_c, 1, 79, 64
1, 447147, Note_on_c, 1, 81, 100
1, 447148, Note_on_c, 4, 64, 127
1, 447148, Note_on_c, 4, 61, 127
1, 447149, Note_on_c, 4, 57, 127
1, 447195, Note_off_c, 1, 81, 64
1, 447195, Note_on_c, 1, 79, 96
1, 447238, Note_off_c, 4, 57, 64
1, 447239, Note_off_c, 4, 61, 64
1, 447239, Note_off_c, 4, 64, 64
1, 447247, Note_off_c, 1, 79, 64
1, 447247, Note_on_c, 2, 77, 99
1, 447248, Note_on_c, 4, 64, 127
1, 447248, Note_on_c, 4, 61, 127
1, 447249, Note_on_c, 4, 57, 127
1, 447299, Note_off_c, 2, 77, 64
1, 447299, Note_on_c, 2, 76, 104
1, 447342, Note_off_c, 4, 57, 64
1, 447342, Note_off_c, 4, 61, 64
1, 447343, Note_off_c, 4, 64, 64
1, 447350, Note_on_c, 2, 77, 104
1, 447351, Note_on_c, 4, 50, 127
1, 447351, Note_on_c, 4, 62, 127
1, 447359, Note_off_c, 2, 76, 64
1, 447453, Note_on_c, 2, 74, 104
1, 447553, Note_off_c, 2, 77, 64
1, 447557, Note_off_c, 4, 62, 64
1, 447557, Note_off_c, 4, 50, 64
1, 447558, Note_on_c, 4, 60, 127
1, 447558, Note_on_c, 1, 78, 105
1, 447559, Note_on_c, 4, 48, 127
1, 447655, Note_off_c, 2, 74, 64
1, 447660, Note_on_c, 2, 74, 108
1, 447761, Note_off_c, 1, 78, 64
1, 447766, Note_off_c, 4, 48, 64
1, 447767, Note_off_c, 4, 60, 64
1, 447767, Note_on_c, 1, 79, 105
1, 447768, Note_on_c, 4, 47, 127
1, 447768, Note_on_c, 4, 59, 127
1, 447864, Note_off_c, 2, 74, 64
1, 447870, Note_on_c, 2, 74, 108
1, 447968, Note_off_c, 1, 79, 64
1, 447972, Note_off_c, 4, 59, 64
1, 447972, Note_off_c, 4, 47, 64
1, 447973, Note_on_c, 1, 80, 105
1, 447973, Note_on_c, 1, 86, 105
1, 447974, Note_on_c, 4, 46, 127
1, 447974, Note_on_c, 4, 58, 127
1, 448068, Note_off_c, 2, 74, 64
1, 448075, Note_on_c, 2, 74, 108
1, 448170, Note_off_c, 1, 80, 64
1, 448171, Note_off_c, 1, 86, 64
1, 448175, Note_off_c, 2, 74, 64
1, 448176, Note_off_c, 4, 58, 64
1, 448176, Note_off_c, 4, 46, 64
1, 448176, Note_on_c, 1, 86, 105
1, 448177, Note_on_c, 1, 81, 105
1, 448177, Note_on_c, 2, 77, 108
1, 448178, Note_on_c, 4, 45, 127
1, 448178, Note_on_c, 4, 57, 127
1, 448377, Note_off_c, 1, 86, 64
1, 448377, Note_off_c, 2, 77, 64
1, 448386, Note_on_c, 2, 76, 108
1, 448386, Note_on_c, 1, 85, 105
1, 448569, Note_off_c, 1, 81, 64
1, 448579, Note_off_c, 1, 85, 64
1, 448579, Note_off_c, 2, 76, 64
1, 448587, Note_on_c, 2, 69, 113
1, 448695, Note_off_c, 2, 69, 64
1, 448695, Note_on_c, 2, 70, 108
1, 448801, Note_off_c, 2, 70, 64
1, 448802, Note_on_c, 2, 69, 113
1, 448910, Note_off_c, 2, 69, 64
1, 448910, Note_on_c, 2, 73, 107
1, 449016, Note_off_c, 2, 73, 64
1, 449017, Note_on_c, 2, 74, 108
1, 449108, Note_off_c, 4, 57, 64
1, 449108, Note_off_c, 4, 45, 64
1, 449116, Note_on_c, 4, 62, 127
1, 449117, Note_on_c, 4, 57, 127
1, 449117, Note_on_c, 4, 53, 127
1, 449208, Note_off_c, 4, 53, 64
1, 449208, Note_off_c, 4, 57, 64
1, 449208, Note_off_c, 4, 62, 64
1, 449214, Note_on_c, 4, 62, 127
1, 449215, Note_on_c, 4, 53, 127
1, 449215, Note_on_c, 4, 57, 127
1, 449305, Note_off_c, 4, 53, 64
1, 449306, Note_off_c, 4, 62, 64
1, 449306, Note_off_c, 4, 57, 64
1, 449314, Note_on_c, 4, 62, 127
1, 449315, Note_on_c, 4, 57, 127
1, 449315, Note_on_c, 4, 53, 127
1, 449363, Note_off_c, 2, 74, 64
1, 449411, Note_on_c, 2, 76, 112
1, 449463, Note_off_c, 2, 76, 64
1, 449463, Note_on_c, 2, 74, 112
1, 449506, Note_off_c, 4, 53, 64
1, 449507, Note_off_c, 4, 57, 64
1, 449507, Note_off_c, 4, 62, 64
1, 449511, Note_off_c, 2, 74, 64
1, 449511, Note_on_c, 2, 76, 112
1, 449512, Note_on_c, 4, 57, 127
1, 449512, Note_on_c, 4, 62, 127
1, 449513, Note_on_c, 4, 53, 127
1, 449561, Note_off_c, 2, 76, 64
1, 449561, Note_on_c, 2, 74, 112
1, 449600, Note_off_c, 4, 53, 64
1, 449601, Note_off_c, 4, 62, 64
1, 449601, Note_off_c, 4, 57, 64
1, 449607, Note_off_c, 2, 74, 64
1, 449608, Note_on_c, 2, 76, 107
1, 449608, Note_on_c, 4, 62, 127
1, 449608, Note_on_c, 4, 57, 127
1, 449609, Note_on_c, 4, 53, 127
1, 449654, Note_off_c, 2, 76, 64
1, 449654, Note_on_c, 2, 74, 107
1, 449693, Note_off_c, 4, 53, 64
1, 449694, Note_off_c, 4, 57, 64
1, 449694, Note_off_c, 4, 62, 64
1, 449702, Note_off_c, 2, 74, 64
1, 449702, Note_on_c, 2, 73, 106
1, 449703, Note_on_c, 4, 57, 127
1, 449703, Note_on_c, 4, 62, 127
1, 449704, Note_on_c, 4, 53, 127
1, 449750, Note_off_c, 2, 73, 64
1, 449750, Note_on_c, 2, 74, 115
1, 449797, Note_off_c, 2, 74, 64
1, 449797, Note_on_c, 2, 75, 107
1, 449892, Note_off_c, 4, 57, 64
1, 449892, Note_off_c, 4, 53, 64
1, 449893, Note_off_c, 4, 62, 64
1, 449897, Note_on_c, 4, 60, 127
1, 449898, Note_on_c, 4, 57, 127
1, 449898, Note_on_c, 4, 53, 127
1, 449988, Note_off_c, 4, 53, 64
1, 449988, Note_off_c, 4, 57, 64
1, 449989, Note_off_c, 4, 60, 64
1, 449997, Note_on_c, 4, 57, 127
1, 449997, Note_on_c, 4, 60, 127
1, 449998, Note_on_c, 4, 53, 127
1, 450088, Note_off_c, 4, 57, 64
1, 450088, Note_off_c, 4, 53, 64
1, 450089, Note_off_c, 4, 60, 64
1, 450095, Note_on_c, 4, 57, 127
1, 450095, Note_on_c, 4, 60, 127
1, 450096, Note_on_c, 4, 53, 127
1, 450145, Note_off_c, 2, 75, 64
1, 450193, Note_on_c, 2, 76, 112
1, 450244, Note_off_c, 2, 76, 64
1, 450244, Note_on_c, 2, 75, 112
1, 450287, Note_off_c, 4, 57, 64
1, 450287, Note_off_c, 4, 53, 64
1, 450288, Note_off_c, 4, 60, 64
1, 450292, Note_off_c, 2, 75, 64
1, 450292, Note_on_c, 2, 76, 112
1, 450293, Note_on_c, 4, 60, 127
1, 450293, Note_on_c, 4, 57, 127
1, 450294, Note_on_c, 4, 53, 127
1, 450340, Note_off_c, 2, 76, 64
1, 450340, Note_on_c, 2, 75, 112
1, 450381, Note_off_c, 4, 53, 64
1, 450381, Note_off_c, 4, 57, 64
1, 450382, Note_off_c, 4, 60, 64
1, 450388, Note_off_c, 2, 75, 64
1, 450388, Note_on_c, 2, 76, 112
1, 450389, Note_on_c, 4, 60, 127
1, 450389, Note_on_c, 4, 57, 127
1, 450389, Note_on_c, 4, 53, 127
1, 450435, Note_off_c, 2, 76, 64
1, 450436, Note_on_c, 2, 75, 112
1, 450475, Note_off_c, 4, 53, 64
1, 450475, Note_off_c, 4, 57, 64
1, 450476, Note_off_c, 4, 60, 64
1, 450481, Note_off_c, 2, 75, 64
1, 450482, Note_on_c, 2, 73, 111
1, 450482, Note_on_c, 4, 60, 127
1, 450483, Note_on_c, 4, 57, 127
1, 450483, Note_on_c, 4, 53, 127
1, 450528, Note_off_c, 2, 73, 64
1, 450528, Note_on_c, 2, 75, 112
1, 450567, Note_off_c, 4, 53, 64
1, 450567, Note_off_c, 4, 57, 64
1, 450568, Note_off_c, 4, 60, 64
1, 450576, Note_off_c, 2, 75, 64
1, 450576, Note_on_c, 4, 60, 127
1, 450576, Note_on_c, 2, 76, 112
1, 450577, Note_on_c, 4, 52, 127
1, 450577, Note_on_c, 4, 57, 127
1, 450773, Note_on_c, 2, 69, 113
1, 450922, Note_off_c, 2, 76, 64
1, 450964, Note_off_c, 4, 52, 64
1, 450972, Note_off_c, 4, 60, 64
1, 450972, Note_off_c, 4, 57, 64
1, 450972, Note_on_c, 4, 59, 127
1, 450972, Note_on_c, 4, 62, 127
1, 450973, Note_on_c, 4, 52, 127
1, 451171, Note_on_c, 2, 71, 111
1, 451187, Note_off_c, 2, 69, 64
1, 451319, Note_off_c, 2, 71, 64
1, 451320, Note_on_c, 2, 68, 115
1, 451372, Note_off_c, 2, 68, 64
1, 451372, Note_off_c, 4, 52, 64
1, 451373, Note_off_c, 4, 62, 64
1, 451373, Note_off_c, 4, 59, 64
1, 451374, Note_on_c, 4, 57, 127
1, 451374, Note_on_c, 2, 69, 113
1, 451375, Note_on_c, 4, 60, 127
1, 451743, Note_off_c, 2, 69, 64
1, 451768, Note_on_c, 2, 69, 113
1, 451876, Note_off_c, 2, 69, 64
1, 451876, Note_on_c, 2, 70, 113
1, 451981, Note_off_c, 2, 70, 64
1, 451981, Note_on_c, 2, 69, 113
1, 452086, Note_off_c, 2, 69, 64
1, 452086, Note_on_c, 2, 73, 112
1, 452191, Note_off_c, 2, 73, 64
1, 452192, Note_on_c, 2, 74, 113
1, 452282, Note_off_c, 4, 57, 64
1, 452282, Note_off_c, 4, 60, 64
1, 452290, Note_on_c, 2, 69, 113
1, 452290, Note_on_c, 4, 65, 123
1, 452291, Note_on_c, 4, 62, 127
1, 452381, Note_off_c, 4, 62, 64
1, 452381, Note_off_c, 4, 65, 64
1, 452382, Note_off_c, 2, 69, 64
1, 452389, Note_on_c, 2, 69, 113
1, 452390, Note_on_c, 4, 62, 127
1, 452390, Note_on_c, 4, 65, 123
1, 452481, Note_off_c, 4, 62, 64
1, 452482, Note_off_c, 2, 69, 64
1, 452482, Note_off_c, 4, 65, 64
1, 452487, Note_on_c, 2, 69, 113
1, 452488, Note_on_c, 4, 62, 127
1, 452488, Note_on_c, 4, 65, 123
1, 452538, Note_off_c, 2, 74, 64
1, 452587, Note_on_c, 1, 82, 100
1, 452639, Note_off_c, 1, 82, 64
1, 452639, Note_on_c, 1, 81, 100
1, 452684, Note_off_c, 4, 62, 64
1, 452685, Note_off_c, 2, 69, 64
1, 452685, Note_off_c, 4, 65, 64
1, 452689, Note_off_c, 1, 81, 64
1, 452689, Note_on_c, 1, 82, 100
1, 452690, Note_on_c, 2, 69, 113
1, 452690, Note_on_c, 4, 65, 123
1, 452691, Note_on_c, 4, 62, 127
1, 452739, Note_off_c, 1, 82, 64
1, 452739, Note_on_c, 1, 81, 100
1, 452780, Note_off_c, 4, 62, 64
1, 452781, Note_off_c, 4, 65, 64
1, 452781, Note_off_c, 2, 69, 64
1, 452787, Note_off_c, 1, 81, 64
1, 452788, Note_on_c, 1, 82, 100
1, 452788, Note_on_c, 2, 69, 113
1, 452789, Note_on_c, 4, 65, 123
1, 452789, Note_on_c, 4, 62, 127
1, 452837, Note_off_c, 1, 82, 64
1, 452837, Note_on_c, 1, 81, 100
1, 452877, Note_off_c, 4, 62, 64
1, 452877, Note_off_c, 4, 65, 64
1, 452878, Note_off_c, 2, 69, 64
1, 452885, Note_off_c, 1, 81, 64
1, 452885, Note_on_c, 1, 79, 100
1, 452886, Note_on_c, 2, 69, 113
1, 452886, Note_on_c, 4, 65, 123
1, 452887, Note_on_c, 4, 62, 127
1, 452937, Note_off_c, 1, 79, 64
1, 452937, Note_on_c, 2, 77, 108
1, 452988, Note_on_c, 2, 76, 108
1, 452995, Note_off_c, 2, 77, 64
1, 453082, Note_off_c, 4, 62, 64
1, 453082, Note_off_c, 4, 65, 64
1, 453083, Note_off_c, 2, 69, 64
1, 453087, Note_on_c, 4, 58, 127
1, 453087, Note_on_c, 4, 64, 121
1, 453088, Note_on_c, 4, 55, 127
1, 453178, Note_off_c, 4, 55, 64
1, 453179, Note_off_c, 4, 64, 64
1, 453179, Note_off_c, 4, 58, 64
1, 453187, Note_on_c, 4, 64, 121
1, 453187, Note_on_c, 4, 58, 127
1, 453187, Note_on_c, 4, 55, 127
1, 453278, Note_off_c, 4, 55, 64
1, 453278, Note_off_c, 4, 58, 64
1, 453279, Note_off_c, 4, 64, 64
1, 453285, Note_on_c, 4, 58, 127
1, 453285, Note_on_c, 4, 64, 121
1, 453286, Note_on_c, 4, 55, 127
1, 453336, Note_off_c, 2, 76, 64
1, 453384, Note_on_c, 1, 81, 100
1, 453441, Note_off_c, 1, 81, 64
1, 453442, Note_on_c, 1, 79, 96
1, 453486, Note_off_c, 4, 55, 64
1, 453487, Note_off_c, 4, 64, 64
1, 453487, Note_off_c, 4, 58, 64
1, 453491, Note_off_c, 1, 79, 64
1, 453492, Note_on_c, 1, 81, 96
1, 453492, Note_on_c, 4, 64, 121
1, 453492, Note_on_c, 4, 61, 127
1, 453492, Note_on_c, 4, 57, 127
1, 453539, Note_off_c, 1, 81, 64
1, 453540, Note_on_c, 1, 79, 96
1, 453582, Note_off_c, 4, 57, 64
1, 453583, Note_off_c, 4, 61, 64
1, 453583, Note_off_c, 4, 64, 64
1, 453591, Note_off_c, 1, 79, 64
1, 453591, Note_on_c, 1, 81, 96
1, 453592, Note_on_c, 4, 57, 127
1, 453592, Note_on_c, 4, 61, 127
1, 453592, Note_on_c, 4, 64, 121
1, 453641, Note_off_c, 1, 81, 64
1, 453641, Note_on_c, 1, 79, 96
1, 453680, Note_off_c, 4, 57, 64
1, 453681, Note_off_c, 4, 64, 64
1, 453681, Note_off_c, 4, 61, 64
1, 453689, Note_off_c, 1, 79, 64
1, 453689, Note_on_c, 2, 77, 104
1, 453690, Note_on_c, 4, 64, 127
1, 453690, Note_on_c, 4, 61, 127
1, 453691, Note_on_c, 4, 57, 127
1, 453739, Note_off_c, 2, 77, 64
1, 453739, Note_on_c, 2, 76, 104
1, 453780, Note_off_c, 4, 57, 64
1, 453780, Note_off_c, 4, 61, 64
1, 453781, Note_off_c, 4, 64, 64
1, 453789, Note_on_c, 4, 62, 127
1, 453789, Note_on_c, 2, 77, 104
1, 453790, Note_on_c, 4, 50, 127
1, 453797, Note_off_c, 2, 76, 64
1, 453889, Note_on_c, 2, 74, 108
1, 453984, Note_off_c, 2, 77, 64
1, 453987, Note_on_c, 1, 78, 105
1, 453988, Note_on_c, 4, 48, 127
1, 453988, Note_on_c, 4, 60, 127
1, 453992, Note_off_c, 4, 50, 64
1, 453993, Note_off_c, 4, 62, 64
1, 454085, Note_off_c, 2, 74, 64
1, 454089, Note_on_c, 2, 74, 108
1, 454191, Note_off_c, 1, 78, 64
1, 454195, Note_on_c, 4, 59, 127
1, 454195, Note_on_c, 1, 79, 105
1, 454196, Note_on_c, 4, 47, 127
1, 454198, Note_off_c, 4, 60, 64
1, 454198, Note_off_c, 4, 48, 64
1, 454291, Note_off_c, 2, 74, 64
1, 454296, Note_on_c, 2, 74, 108
1, 454396, Note_off_c, 1, 79, 64
1, 454402, Note_on_c, 1, 86, 105
1, 454403, Note_on_c, 4, 58, 127
1, 454403, Note_on_c, 1, 80, 105
1, 454404, Note_off_c, 4, 59, 64
1, 454404, Note_off_c, 4, 47, 64
1, 454404, Note_on_c, 4, 46, 127
1, 454499, Note_off_c, 2, 74, 64
1, 454505, Note_on_c, 2, 74, 108
1, 454605, Note_off_c, 1, 86, 64
1, 454605, Note_off_c, 1, 80, 64
1, 454613, Note_off_c, 2, 74, 64
1, 454614, Note_on_c, 1, 81, 105
1, 454614, Note_on_c, 1, 86, 105
1, 454615, Note_on_c, 4, 57, 127
1, 454615, Note_on_c, 2, 77, 108
1, 454616, Note_on_c, 4, 45, 127
1, 454618, Note_off_c, 4, 46, 64
1, 454619, Note_off_c, 4, 58, 64
1, 454809, Note_off_c, 2, 77, 64
1, 454810, Note_off_c, 1, 86, 64
1, 454818, Note_on_c, 1, 85, 105
1, 454818, Note_on_c, 2, 76, 108
1, 454924, Note_off_c, 1, 81, 64
1, 455026, Note_off_c, 2, 76, 64
1, 455027, Note_off_c, 1, 85, 64
1, 455033, Note_off_c, 4, 57, 64
1, 455035, Note_on_c, 2, 69, 113
1, 455037, Note_off_c, 4, 45, 64
1, 455148, Note_off_c, 2, 69, 64
1, 455148, Note_on_c, 2, 70, 113
1, 455251, Note_off_c, 2, 70, 64
1, 455252, Note_on_c, 2, 69, 113
1, 455359, Note_off_c, 2, 69, 64
1, 455360, Note_on_c, 2, 73, 112
1, 455462, Note_off_c, 2, 73, 64
1, 455463, Note_on_c, 2, 74, 113
1, 455561, Note_on_c, 4, 62, 127
1, 455562, Note_on_c, 4, 57, 127
1, 455562, Note_on_c, 4, 53, 127
1, 455652, Note_off_c, 4, 53, 64
1, 455653, Note_off_c, 4, 57, 64
1, 455653, Note_off_c, 4, 62, 64
1, 455661, Note_on_c, 4, 62, 127
1, 455662, Note_on_c, 4, 57, 127
1, 455662, Note_on_c, 4, 53, 127
1, 455752, Note_off_c, 4, 53, 64
1, 455753, Note_off_c, 4, 57, 64
1, 455753, Note_off_c, 4, 62, 64
1, 455761, Note_on_c, 4, 62, 127
1, 455761, Note_on_c, 4, 57, 127
1, 455762, Note_on_c, 4, 53, 127
1, 455810, Note_off_c, 2, 74, 64
1, 455860, Note_on_c, 2, 76, 112
1, 455917, Note_off_c, 2, 76, 64
1, 455918, Note_on_c, 2, 74, 112
1, 455963, Note_off_c, 4, 53, 64
1, 455963, Note_off_c, 4, 57, 64
1, 455964, Note_off_c, 4, 62, 64
1, 455968, Note_off_c, 2, 74, 64
1, 455969, Note_on_c, 4, 62, 127
1, 455969, Note_on_c, 2, 76, 112
1, 455970, Note_on_c, 4, 53, 127
1, 455970, Note_on_c, 4, 57, 127
1, 456022, Note_off_c, 2, 76, 64
1, 456023, Note_on_c, 2, 74, 112
1, 456065, Note_off_c, 4, 53, 64
1, 456066, Note_off_c, 4, 62, 64
1, 456066, Note_off_c, 4, 57, 64
1, 456074, Note_off_c, 2, 74, 64
1, 456074, Note_on_c, 2, 76, 112
1, 456075, Note_on_c, 4, 62, 127
1, 456075, Note_on_c, 4, 57, 127
1, 456076, Note_on_c, 4, 53, 127
1, 456124, Note_off_c, 2, 76, 64
1, 456124, Note_on_c, 2, 74, 112
1, 456163, Note_off_c, 4, 53, 64
1, 456164, Note_off_c, 4, 57, 64
1, 456164, Note_off_c, 4, 62, 64
1, 456172, Note_off_c, 2, 74, 64
1, 456172, Note_on_c, 2, 73, 111
1, 456173, Note_on_c, 4, 57, 127
1, 456173, Note_on_c, 4, 62, 127
1, 456174, Note_on_c, 4, 53, 127
1, 456220, Note_off_c, 2, 73, 64
1, 456220, Note_on_c, 2, 74, 112
1, 456269, Note_off_c, 2, 74, 64
1, 456269, Note_on_c, 2, 75, 112
1, 456364, Note_off_c, 4, 57, 64
1, 456364, Note_off_c, 4, 53, 64
1, 456365, Note_off_c, 4, 62, 64
1, 456367, Note_on_c, 4, 60, 127
1, 456367, Note_on_c, 4, 57, 127
1, 456368, Note_on_c, 4, 53, 127
1, 456459, Note_off_c, 4, 53, 64
1, 456459, Note_off_c, 4, 57, 64
1, 456460, Note_off_c, 4, 60, 64
1, 456468, Note_on_c, 4, 53, 127
1, 456468, Note_on_c, 4, 57, 127
1, 456468, Note_on_c, 4, 60, 127
1, 456558, Note_off_c, 4, 57, 64
1, 456558, Note_off_c, 4, 53, 64
1, 456559, Note_off_c, 4, 60, 64
1, 456566, Note_on_c, 4, 60, 127
1, 456567, Note_on_c, 4, 53, 127
1, 456567, Note_on_c, 4, 57, 127
1, 456617, Note_off_c, 2, 75, 64
1, 456665, Note_on_c, 2, 76, 112
1, 456722, Note_off_c, 2, 76, 64
1, 456722, Note_on_c, 2, 75, 112
1, 456767, Note_off_c, 4, 53, 64
1, 456768, Note_off_c, 4, 60, 64
1, 456768, Note_off_c, 4, 57, 64
1, 456772, Note_off_c, 2, 75, 64
1, 456772, Note_on_c, 2, 76, 112
1, 456773, Note_on_c, 4, 60, 127
1, 456773, Note_on_c, 4, 57, 127
1, 456774, Note_on_c, 4, 53, 127
1, 456826, Note_off_c, 2, 76, 64
1, 456826, Note_on_c, 2, 75, 112
1, 456867, Note_off_c, 4, 53, 64
1, 456867, Note_off_c, 4, 57, 64
1, 456868, Note_off_c, 4, 60, 64
1, 456876, Note_off_c, 2, 75, 64
1, 456876, Note_on_c, 4, 60, 127
1, 456876, Note_on_c, 2, 76, 112
1, 456877, Note_on_c, 4, 53, 127
1, 456877, Note_on_c, 4, 57, 127
1, 456927, Note_off_c, 2, 76, 64
1, 456928, Note_on_c, 2, 75, 112
1, 456965, Note_off_c, 4, 53, 64
1, 456966, Note_off_c, 4, 60, 64
1, 456966, Note_off_c, 4, 57, 64
1, 456972, Note_off_c, 2, 75, 64
1, 456972, Note_on_c, 2, 73, 111
1, 456972, Note_on_c, 4, 60, 127
1, 456973, Note_on_c, 4, 57, 127
1, 456973, Note_on_c, 4, 53, 127
1, 457018, Note_off_c, 2, 73, 64
1, 457019, Note_on_c, 2, 75, 112
1, 457057, Note_off_c, 4, 53, 64
1, 457057, Note_off_c, 4, 57, 64
1, 457058, Note_off_c, 4, 60, 64
1, 457064, Note_off_c, 2, 75, 64
1, 457064, Note_on_c, 2, 76, 112
1, 457065, Note_on_c, 4, 57, 127
1, 457065, Note_on_c, 4, 60, 127
1, 457066, Note_on_c, 4, 52, 127
1, 457262, Note_off_c, 2, 76, 64
1, 457262, Note_on_c, 2, 69, 113
1, 457452, Note_off_c, 4, 52, 64
1, 457461, Note_off_c, 4, 60, 64
1, 457461, Note_off_c, 4, 57, 64
1, 457462, Note_on_c, 4, 59, 127
1, 457462, Note_on_c, 4, 62, 127
1, 457463, Note_on_c, 4, 52, 127
1, 457610, Note_off_c, 2, 69, 64
1, 457660, Note_on_c, 2, 71, 111
1, 457808, Note_off_c, 2, 71, 64
1, 457809, Note_on_c, 2, 68, 115
1, 457862, Note_off_c, 2, 68, 64
1, 457863, Note_off_c, 4, 59, 64
1, 457863, Note_off_c, 4, 52, 64
1, 457864, Note_off_c, 4, 62, 64
1, 457864, Note_on_c, 2, 69, 113
1, 457865, Note_on_c, 4, 57, 127
1, 457866, Note_on_c, 4, 60, 127
1, 458257, Note_on_c, 1, 81, 110
1, 458363, Note_on_c, 1, 80, 110
1, 458375, Note_off_c, 1, 81, 64
1, 458466, Note_on_c, 1, 81, 110
1, 458477, Note_off_c, 1, 80, 64
1, 458566, Note_on_c, 1, 83, 110
1, 458575, Note_off_c, 1, 81, 64
1, 458654, Note_off_c, 2, 69, 64
1, 458654, Note_off_c, 4, 57, 64
1, 458655, Note_off_c, 4, 60, 64
1, 458661, Note_on_c, 1, 84, 110
1, 458661, Note_on_c, 2, 69, 113
1, 458662, Note_on_c, 4, 66, 123
1, 458671, Note_off_c, 1, 83, 64
1, 458757, Note_on_c, 2, 75, 113
1, 458768, Note_off_c, 1, 84, 64
1, 458849, Note_off_c, 4, 66, 64
1, 458849, Note_off_c, 2, 69, 64
1, 458857, Note_on_c, 2, 74, 113
1, 458858, Note_on_c, 2, 67, 123
1, 458858, Note_on_c, 2, 71, 111
1, 458868, Note_off_c, 2, 75, 64
1, 458958, Note_on_c, 1, 83, 110
1, 458970, Note_off_c, 2, 74, 64
1, 459043, Note_off_c, 2, 71, 64
1, 459043, Note_off_c, 2, 67, 64
1, 459051, Note_on_c, 1, 82, 110
1, 459052, Note_on_c, 4, 64, 121
1, 459052, Note_on_c, 2, 67, 123
1, 459060, Note_off_c, 1, 83, 64
1, 459148, Note_on_c, 2, 73, 112
1, 459160, Note_off_c, 1, 82, 64
1, 459239, Note_off_c, 4, 64, 64
1, 459240, Note_off_c, 2, 67, 64
1, 459248, Note_on_c, 2, 74, 113
1, 459249, Note_on_c, 4, 65, 123
1, 459249, Note_on_c, 2, 69, 113
1, 459259, Note_off_c, 2, 73, 64
1, 459344, Note_on_c, 1, 81, 110
1, 459353, Note_off_c, 2, 74, 64
1, 459435, Note_off_c, 4, 65, 64
1, 459436, Note_off_c, 2, 69, 64
1, 459444, Note_on_c, 1, 79, 110
1, 459445, Note_on_c, 4, 58, 127
1, 459445, Note_on_c, 2, 74, 113
1, 459456, Note_off_c, 1, 81, 64
1, 459543, Note_on_c, 4, 46, 127
1, 459629, Note_off_c, 4, 46, 64
1, 459641, Note_on_c, 2, 72, 112
1, 459641, Note_on_c, 2, 77, 113
1, 459642, Note_on_c, 4, 45, 127
1, 459644, Note_off_c, 1, 79, 64
1, 459644, Note_off_c, 2, 74, 64
1, 459712, Note_off_c, 4, 58, 64
1, 459737, Note_on_c, 4, 57, 127
1, 459839, Note_off_c, 4, 57, 64
1, 459839, Note_on_c, 2, 75, 113
1, 459840, Note_on_c, 4, 55, 127
1, 459840, Note_on_c, 2, 70, 113
1, 459842, Note_off_c, 2, 72, 64
1, 459843, Note_off_c, 2, 77, 64
1, 459911, Note_off_c, 4, 45, 64
1, 459934, Note_on_c, 4, 43, 127
1, 460030, Note_off_c, 4, 43, 64
1, 460031, Note_on_c, 2, 69, 113
1, 460031, Note_on_c, 2, 74, 113
1, 460032, Note_on_c, 4, 41, 127
1, 460033, Note_off_c, 2, 70, 64
1, 460034, Note_off_c, 2, 75, 64
1, 460104, Note_off_c, 4, 55, 64
1, 460127, Note_on_c, 4, 53, 127
1, 460221, Note_on_c, 2, 67, 123
1, 460221, Note_on_c, 2, 73, 112
1, 460222, Note_on_c, 4, 52, 127
1, 460225, Note_off_c, 4, 53, 64
1, 460225, Note_off_c, 2, 74, 64
1, 460225, Note_off_c, 2, 69, 64
1, 460229, Note_off_c, 4, 41, 64
1, 460320, Note_off_c, 2, 73, 64
1, 460320, Note_on_c, 2, 74, 113
1, 460415, Note_off_c, 2, 74, 64
1, 460416, Note_on_c, 2, 76, 113
1, 460512, Note_off_c, 2, 76, 64
1, 460512, Note_on_c, 2, 74, 113
1, 460597, Note_off_c, 2, 74, 64
1, 460605, Note_on_c, 2, 74, 113
1, 460606, Note_on_c, 4, 53, 127
1, 460606, Note_on_c, 2, 69, 113
1, 460607, Note_off_c, 2, 67, 64
1, 460607, Note_off_c, 4, 52, 64
1, 460700, Note_off_c, 2, 74, 64
1, 460701, Note_on_c, 2, 76, 113
1, 460793, Note_off_c, 2, 76, 64
1, 460793, Note_on_c, 2, 77, 113
1, 460894, Note_off_c, 2, 77, 64
1, 460895, Note_on_c, 2, 76, 113
1, 460983, Note_off_c, 2, 76, 64
1, 460991, Note_off_c, 4, 53, 64
1, 460992, Note_off_c, 2, 69, 64
1, 460996, Note_on_c, 2, 73, 112
1, 460996, Note_on_c, 2, 76, 113
1, 460998, Note_on_c, 4, 57, 127
1, 461349, Note_off_c, 2, 76, 64
1, 461351, Note_off_c, 2, 73, 64
1, 461352, Note_off_c, 4, 57, 64
1, 461396, Note_on_c, 4, 40, 127
1, 461499, Note_off_c, 4, 40, 64
1, 461499, Note_on_c, 4, 41, 127
1, 461594, Note_off_c, 4, 41, 64
1, 461594, Note_on_c, 4, 40, 127
1, 461693, Note_off_c, 4, 40, 64
1, 461693, Note_on_c, 4, 44, 127
1, 461792, Note_off_c, 4, 44, 64
1, 461792, Note_on_c, 4, 45, 127
1, 462138, Note_off_c, 4, 45, 64
1, 462188, Note_on_c, 2, 69, 113
1, 462297, Note_off_c, 2, 69, 64
1, 462297, Note_on_c, 2, 70, 113
1, 462401, Note_off_c, 2, 70, 64
1, 462402, Note_on_c, 2, 69, 113
1, 462506, Note_off_c, 2, 69, 64
1, 462506, Note_on_c, 2, 73, 112
1, 462605, Note_off_c, 2, 73, 64
1, 462605, Note_on_c, 2, 74, 113
1, 462712, Note_on_c, 4, 57, 127
1, 462712, Note_on_c, 4, 62, 127
1, 462713, Note_on_c, 4, 53, 127
1, 462801, Note_off_c, 4, 62, 64
1, 462803, Note_off_c, 4, 53, 64
1, 462804, Note_off_c, 4, 57, 64
1, 462810, Note_on_c, 4, 62, 127
1, 462810, Note_on_c, 4, 57, 127
1, 462811, Note_on_c, 4, 53, 127
1, 462902, Note_off_c, 4, 53, 64
1, 462902, Note_off_c, 4, 62, 64
1, 462903, Note_off_c, 4, 57, 64
1, 462911, Note_on_c, 4, 57, 127
1, 462911, Note_on_c, 4, 62, 127
1, 462912, Note_on_c, 4, 53, 127
1, 462952, Note_off_c, 2, 74, 64
1, 463003, Note_on_c, 2, 77, 108
1, 463064, Note_on_c, 2, 76, 108
1, 463066, Note_off_c, 2, 77, 64
1, 463114, Note_on_c, 2, 77, 108
1, 463116, Note_off_c, 4, 62, 64
1, 463116, Note_off_c, 4, 53, 64
1, 463117, Note_off_c, 4, 57, 64
1, 463119, Note_off_c, 2, 76, 64
1, 463121, Note_on_c, 4, 58, 127
1, 463121, Note_on_c, 4, 62, 127
1, 463122, Note_on_c, 4, 55, 127
1, 463164, Note_on_c, 2, 76, 108
1, 463169, Note_off_c, 2, 77, 64
1, 463215, Note_off_c, 4, 62, 64
1, 463215, Note_off_c, 4, 55, 64
1, 463216, Note_off_c, 4, 58, 64
1, 463216, Note_off_c, 2, 76, 64
1, 463217, Note_on_c, 2, 77, 108
1, 463224, Note_on_c, 4, 62, 127
1, 463224, Note_on_c, 4, 58, 127
1, 463224, Note_on_c, 4, 55, 127
1, 463268, Note_on_c, 2, 76, 108
1, 463273, Note_off_c, 2, 77, 64
1, 463316, Note_off_c, 4, 55, 64
1, 463316, Note_off_c, 4, 62, 64
1, 463317, Note_off_c, 4, 58, 64
1, 463317, Note_on_c, 2, 74, 108
1, 463321, Note_off_c, 2, 76, 64
1, 463323, Note_on_c, 4, 62, 127
1, 463324, Note_on_c, 4, 55, 127
1, 463324, Note_on_c, 4, 58, 127
1, 463365, Note_on_c, 2, 76, 108
1, 463372, Note_off_c, 2, 74, 64
1, 463411, Note_on_c, 1, 78, 105
1, 463418, Note_off_c, 2, 76, 64
1, 463509, Note_off_c, 4, 62, 64
1, 463509, Note_off_c, 4, 55, 64
1, 463510, Note_off_c, 4, 58, 64
1, 463516, Note_on_c, 4, 62, 127
1, 463517, Note_on_c, 4, 60, 127
1, 463517, Note_on_c, 4, 57, 127
1, 463608, Note_off_c, 4, 57, 64
1, 463608, Note_off_c, 4, 60, 64
1, 463608, Note_off_c, 4, 62, 64
1, 463614, Note_on_c, 4, 62, 127
1, 463616, Note_on_c, 4, 60, 127
1, 463617, Note_on_c, 4, 57, 127
1, 463705, Note_off_c, 4, 62, 64
1, 463707, Note_off_c, 4, 57, 64
1, 463708, Note_off_c, 4, 60, 64
1, 463714, Note_on_c, 4, 62, 127
1, 463715, Note_on_c, 4, 57, 127
1, 463715, Note_on_c, 4, 60, 127
1, 463758, Note_off_c, 1, 78, 64
1, 463808, Note_on_c, 1, 81, 105
1, 463868, Note_on_c, 1, 79, 105
1, 463870, Note_off_c, 1, 81, 64
1, 463916, Note_off_c, 1, 79, 64
1, 463920, Note_on_c, 1, 81, 105
1, 463921, Note_off_c, 4, 62, 64
1, 463922, Note_off_c, 4, 60, 64
1, 463922, Note_off_c, 4, 57, 64
1, 463928, Note_on_c, 4, 62, 127
1, 463928, Note_on_c, 4, 59, 127
1, 463968, Note_off_c, 1, 81, 64
1, 463970, Note_on_c, 1, 79, 105
1, 464018, Note_off_c, 1, 79, 64
1, 464019, Note_off_c, 4, 59, 64
1, 464019, Note_off_c, 4, 62, 64
1, 464020, Note_on_c, 1, 81, 105
1, 464026, Note_on_c, 4, 62, 127
1, 464027, Note_on_c, 4, 59, 127
1, 464071, Note_on_c, 1, 79, 105
1, 464077, Note_off_c, 1, 81, 64
1, 464117, Note_off_c, 4, 59, 64
1, 464118, Note_off_c, 4, 62, 64
1, 464120, Note_on_c, 1, 78, 105
1, 464121, Note_on_c, 4, 59, 127
1, 464121, Note_on_c, 4, 62, 127
1, 464133, Note_off_c, 1, 79, 64
1, 464163, Note_off_c, 1, 78, 64
1, 464167, Note_on_c, 1, 79, 105
1, 464208, Note_off_c, 4, 62, 64
1, 464208, Note_off_c, 4, 59, 64
1, 464212, Note_off_c, 1, 79, 64
1, 464214, Note_on_c, 1, 80, 105
1, 464215, Note_on_c, 4, 58, 127
1, 464215, Note_on_c, 4, 62, 127
1, 464403, Note_off_c, 4, 58, 64
1, 464404, Note_off_c, 1, 80, 64
1, 464404, Note_off_c, 4, 62, 64
1, 464411, Note_on_c, 4, 62, 127
1, 464411, Note_on_c, 4, 65, 123
1, 464411, Note_on_c, 1, 81, 105
1, 464412, Note_on_c, 4, 57, 127
1, 464736, Note_off_c, 1, 81, 64
1, 464779, Note_off_c, 4, 57, 64
1, 464788, Note_off_c, 4, 62, 64
1, 464789, Note_off_c, 4, 65, 64
1, 464789, Note_on_c, 2, 76, 113
1, 464790, Note_on_c, 4, 57, 127
1, 464790, Note_on_c, 2, 67, 123
1, 464940, Note_off_c, 4, 57, 64
1, 464941, Note_off_c, 2, 76, 64
1, 464941, Note_off_c, 2, 67, 64
1, 464951, Note_on_c, 2, 73, 112
1, 464952, Note_on_c, 4, 64, 121
1, 465001, Note_off_c, 4, 64, 64
1, 465002, Note_off_c, 2, 73, 64
1, 465002, Note_on_c, 2, 74, 113
1, 465003, Note_on_c, 4, 62, 127
1, 465003, Note_on_c, 4, 65, 123
1, 465398, Note_on_c, 1, 81, 110
1, 465504, Note_on_c, 1, 80, 110
1, 465516, Note_off_c, 1, 81, 64
1, 465613, Note_on_c, 1, 81, 110
1, 465623, Note_off_c, 1, 80, 64
1, 465711, Note_on_c, 1, 83, 110
1, 465721, Note_off_c, 1, 81, 64
1, 465802, Note_off_c, 4, 65, 64
1, 465802, Note_off_c, 4, 62, 64
1, 465803, Note_off_c, 2, 74, 64
1, 465810, Note_on_c, 1, 84, 110
1, 465811, Note_on_c, 4, 66, 123
1, 465811, Note_on_c, 2, 69, 113
1, 465821, Note_off_c, 1, 83, 64
1, 465907, Note_on_c, 2, 75, 113
1, 465919, Note_off_c, 1, 84, 64
1, 465997, Note_off_c, 4, 66, 64
1, 465998, Note_off_c, 2, 69, 64
1, 466006, Note_on_c, 2, 74, 113
1, 466007, Note_on_c, 2, 67, 123
1, 466007, Note_on_c, 2, 71, 111
1, 466017, Note_off_c, 2, 75, 64
1, 466105, Note_on_c, 1, 83, 110
1, 466117, Note_off_c, 2, 74, 64
1, 466194, Note_off_c, 2, 67, 64
1, 466195, Note_off_c, 2, 71, 64
1, 466201, Note_on_c, 2, 67, 123
1, 466201, Note_on_c, 1, 82, 110
1, 466210, Note_on_c, 4, 64, 121
1, 466212, Note_off_c, 1, 83, 64
1, 466298, Note_on_c, 2, 73, 112
1, 466308, Note_off_c, 1, 82, 64
1, 466394, Note_on_c, 2, 74, 113
1, 466395, Note_on_c, 4, 65, 123
1, 466395, Note_on_c, 2, 69, 113
1, 466399, Note_off_c, 2, 67, 64
1, 466404, Note_off_c, 2, 73, 64
1, 466405, Note_off_c, 4, 64, 64
1, 466490, Note_on_c, 1, 81, 110
1, 466500, Note_off_c, 2, 74, 64
1, 466590, Note_off_c, 2, 69, 64
1, 466590, Note_off_c, 4, 65, 64
1, 466593, Note_on_c, 1, 79, 110
1, 466594, Note_on_c, 4, 58, 127
1, 466594, Note_on_c, 2, 74, 113
1, 466597, Note_off_c, 1, 81, 64
1, 466688, Note_on_c, 4, 46, 127
1, 466765, Note_off_c, 4, 46, 64
1, 466783, Note_off_c, 2, 74, 64
1, 466784, Note_off_c, 1, 79, 64
1, 466784, Note_on_c, 2, 72, 112
1, 466784, Note_on_c, 2, 77, 113
1, 466785, Note_on_c, 4, 45, 127
1, 466856, Note_off_c, 4, 58, 64
1, 466881, Note_on_c, 4, 57, 127
1, 466980, Note_off_c, 4, 57, 64
1, 466980, Note_off_c, 2, 72, 64
1, 466981, Note_off_c, 2, 77, 64
1, 466981, Note_on_c, 2, 75, 113
1, 466982, Note_on_c, 4, 55, 127
1, 466982, Note_on_c, 2, 70, 113
1, 467052, Note_off_c, 4, 45, 64
1, 467075, Note_on_c, 4, 43, 127
1, 467171, Note_off_c, 4, 43, 64
1, 467172, Note_off_c, 2, 75, 64
1, 467172, Note_off_c, 2, 70, 64
1, 467172, Note_on_c, 2, 74, 113
1, 467173, Note_on_c, 4, 41, 127
1, 467173, Note_on_c, 2, 69, 113
1, 467245, Note_off_c, 4, 55, 64
1, 467268, Note_on_c, 4, 53, 127
1, 467356, Note_on_c, 2, 73, 112
1, 467357, Note_on_c, 2, 67, 123
1, 467361, Note_on_c, 4, 52, 127
1, 467362, Note_off_c, 2, 69, 64
1, 467362, Note_off_c, 4, 53, 64
1, 467363, Note_off_c, 2, 74, 64
1, 467438, Note_off_c, 4, 41, 64
1, 467455, Note_off_c, 2, 73, 64
1, 467455, Note_on_c, 2, 74, 113
1, 467552, Note_off_c, 2, 74, 64
1, 467553, Note_on_c, 2, 76, 113
1, 467645, Note_off_c, 2, 76, 64
1, 467646, Note_on_c, 2, 74, 113
1, 467731, Note_off_c, 2, 74, 64
1, 467738, Note_off_c, 2, 67, 64
1, 467739, Note_on_c, 2, 69, 113
1, 467739, Note_on_c, 2, 74, 113
1, 467745, Note_off_c, 4, 52, 64
1, 467746, Note_on_c, 4, 53, 127
1, 467831, Note_off_c, 2, 74, 64
1, 467832, Note_on_c, 2, 76, 113
1, 467925, Note_on_c, 2, 77, 113
1, 467934, Note_off_c, 2, 76, 64
1, 468019, Note_off_c, 2, 77, 64
1, 468021, Note_on_c, 2, 76, 113
1, 468096, Note_off_c, 2, 76, 64
1, 468111, Note_off_c, 2, 69, 64
1, 468113, Note_on_c, 2, 76, 113
1, 468114, Note_on_c, 4, 57, 127
1, 468114, Note_on_c, 2, 73, 112
1, 468117, Note_off_c, 4, 53, 64
1, 468449, Note_off_c, 2, 76, 64
1, 468466, Note_off_c, 4, 57, 64
1, 468468, Note_off_c, 2, 73, 64
1, 468516, Note_on_c, 4, 40, 127
1, 468622, Note_off_c, 4, 40, 64
1, 468623, Note_on_c, 4, 41, 127
1, 468724, Note_off_c, 4, 41, 64
1, 468725, Note_on_c, 4, 40, 127
1, 468824, Note_off_c, 4, 40, 64
1, 468826, Note_on_c, 4, 44, 127
1, 468922, Note_off_c, 4, 44, 64
1, 468923, Note_on_c, 4, 45, 127
1, 469269, Note_off_c, 4, 45, 64
1, 469315, Note_on_c, 2, 69, 113
1, 469418, Note_off_c, 2, 69, 64
1, 469419, Note_on_c, 2, 70, 113
1, 469520, Note_off_c, 2, 70, 64
1, 469520, Note_on_c, 2, 69, 113
1, 469624, Note_off_c, 2, 69, 64
1, 469625, Note_on_c, 2, 73, 112
1, 469727, Note_off_c, 2, 73, 64
1, 469728, Note_on_c, 2, 74, 113
1, 469826, Note_on_c, 4, 62, 127
1, 469826, Note_on_c, 4, 57, 127
1, 469827, Note_on_c, 4, 53, 127
1, 469918, Note_off_c, 4, 62, 64
1, 469919, Note_off_c, 4, 53, 64
1, 469919, Note_off_c, 4, 57, 64
1, 469925, Note_on_c, 4, 62, 127
1, 469927, Note_on_c, 4, 57, 127
1, 469927, Note_on_c, 4, 53, 127
1, 470016, Note_off_c, 4, 62, 64
1, 470018, Note_off_c, 4, 53, 64
1, 470018, Note_off_c, 4, 57, 64
1, 470025, Note_on_c, 4, 57, 127
1, 470025, Note_on_c, 4, 62, 127
1, 470026, Note_on_c, 4, 53, 127
1, 470075, Note_off_c, 2, 74, 64
1, 470124, Note_on_c, 2, 77, 108
1, 470190, Note_off_c, 2, 77, 64
1, 470190, Note_on_c, 2, 76, 108
1, 470241, Note_off_c, 2, 76, 64
1, 470241, Note_off_c, 4, 62, 64
1, 470242, Note_on_c, 2, 77, 108
1, 470242, Note_on_c, 4, 62, 127
1, 470243, Note_off_c, 4, 57, 64
1, 470243, Note_off_c, 4, 53, 64
1, 470244, Note_on_c, 4, 58, 127
1, 470244, Note_on_c, 4, 55, 127
1, 470289, Note_off_c, 2, 77, 64
1, 470289, Note_on_c, 2, 76, 108
1, 470326, Note_off_c, 4, 62, 64
1, 470327, Note_off_c, 4, 55, 64
1, 470327, Note_off_c, 4, 58, 64
1, 470334, Note_off_c, 2, 76, 64
1, 470334, Note_on_c, 2, 77, 108
1, 470335, Note_on_c, 4, 58, 127
1, 470335, Note_on_c, 4, 62, 127
1, 470336, Note_on_c, 4, 55, 127
1, 470382, Note_off_c, 2, 77, 64
1, 470382, Note_on_c, 2, 76, 108
1, 470419, Note_off_c, 4, 62, 64
1, 470420, Note_off_c, 4, 58, 64
1, 470420, Note_off_c, 4, 55, 64
1, 470427, Note_off_c, 2, 76, 64
1, 470427, Note_on_c, 2, 74, 108
1, 470428, Note_on_c, 4, 62, 127
1, 470428, Note_on_c, 4, 58, 127
1, 470429, Note_on_c, 4, 55, 127
1, 470473, Note_on_c, 2, 76, 108
1, 470481, Note_off_c, 2, 74, 64
1, 470519, Note_on_c, 1, 78, 105
1, 470527, Note_off_c, 2, 76, 64
1, 470613, Note_off_c, 4, 62, 64
1, 470614, Note_off_c, 4, 55, 64
1, 470614, Note_off_c, 4, 58, 64
1, 470618, Note_on_c, 4, 60, 127
1, 470618, Note_on_c, 4, 62, 127
1, 470619, Note_on_c, 4, 57, 127
1, 470709, Note_off_c, 4, 62, 64
1, 470710, Note_off_c, 4, 60, 64
1, 470710, Note_off_c, 4, 57, 64
1, 470718, Note_on_c, 4, 62, 127
1, 470718, Note_on_c, 4, 60, 127
1, 470719, Note_on_c, 4, 57, 127
1, 470809, Note_off_c, 4, 57, 64
1, 470809, Note_off_c, 4, 62, 64
1, 470810, Note_off_c, 4, 60, 64
1, 470816, Note_on_c, 4, 62, 127
1, 470818, Note_on_c, 4, 57, 127
1, 470818, Note_on_c, 4, 60, 127
1, 470867, Note_off_c, 1, 78, 64
1, 470924, Note_on_c, 1, 81, 105
1, 470993, Note_off_c, 1, 81, 64
1, 470994, Note_on_c, 1, 79, 105
1, 471038, Note_off_c, 4, 62, 64
1, 471039, Note_off_c, 4, 60, 64
1, 471039, Note_off_c, 4, 57, 64
1, 471043, Note_off_c, 1, 79, 64
1, 471044, Note_on_c, 4, 62, 127
1, 471044, Note_on_c, 1, 81, 105
1, 471045, Note_on_c, 4, 59, 127
1, 471095, Note_off_c, 1, 81, 64
1, 471096, Note_on_c, 1, 79, 105
1, 471138, Note_off_c, 4, 62, 64
1, 471140, Note_off_c, 4, 59, 64
1, 471146, Note_off_c, 1, 79, 64
1, 471146, Note_on_c, 1, 81, 105
1, 471147, Note_on_c, 4, 62, 127
1, 471147, Note_on_c, 4, 59, 127
1, 471196, Note_off_c, 1, 81, 64
1, 471196, Note_on_c, 1, 79, 105
1, 471235, Note_off_c, 4, 62, 64
1, 471236, Note_off_c, 4, 59, 64
1, 471242, Note_off_c, 1, 79, 64
1, 471242, Note_on_c, 1, 78, 105
1, 471243, Note_on_c, 4, 62, 127
1, 471243, Note_on_c, 4, 59, 127
1, 471290, Note_off_c, 1, 78, 64
1, 471290, Note_on_c, 1, 79, 105
1, 471333, Note_off_c, 4, 62, 64
1, 471334, Note_off_c, 4, 59, 64
1, 471342, Note_off_c, 1, 79, 64
1, 471342, Note_on_c, 1, 80, 105
1, 471343, Note_on_c, 4, 58, 127
1, 471343, Note_on_c, 4, 62, 127
1, 471523, Note_off_c, 1, 80, 64
1, 471532, Note_off_c, 4, 62, 64
1, 471532, Note_off_c, 4, 58, 64
1, 471541, Note_on_c, 1, 81, 110
1, 471542, Note_on_c, 4, 62, 127
1, 471542, Note_on_c, 4, 65, 123
1, 471543, Note_on_c, 4, 57, 127
1, 471925, Note_off_c, 4, 57, 64
1, 471933, Note_on_c, 2, 67, 123
1, 471933, Note_on_c, 2, 76, 113
1, 471934, Note_on_c, 4, 57, 127
1, 471941, Note_off_c, 4, 62, 64
1, 471942, Note_off_c, 1, 81, 64
1, 471942, Note_off_c, 4, 65, 64
1, 472086, Note_off_c, 2, 76, 64
1, 472086, Note_off_c, 2, 67, 64
1, 472087, Note_off_c, 4, 57, 64
1, 472097, Note_on_c, 2, 73, 112
1, 472097, Note_on_c, 4, 64, 121
1, 472152, Note_off_c, 4, 64, 64
1, 472152, Note_off_c, 2, 73, 64
1, 472152, Note_on_c, 2, 74, 113
1, 472153, Note_on_c, 4, 62, 127
1, 472153, Note_on_c, 4, 65, 123
1, 472680, Note_off_c, 2, 74, 64
1, 472680, Note_off_c, 4, 65, 64
1, 472680, Note_off_c, 4, 62, 64
1, 472803, Note_on_c, 1, 81, 105
1, 472804, Note_on_c, 2, 69, 119
1, 472977, Note_off_c, 2, 69, 64
1, 472978, Note_off_c, 1, 81, 64
1, 472990, Note_on_c, 2, 69, 119
1, 472990, Note_on_c, 1, 81, 105
1, 473070, Note_off_c, 2, 69, 64
1, 473071, Note_off_c, 1, 81, 64
1, 473079, Note_on_c, 1, 81, 105
1, 473079, Note_on_c, 2, 69, 119
1, 473164, Note_off_c, 2, 69, 64
1, 473165, Note_off_c, 1, 81, 64
1, 473173, Note_on_c, 2, 74, 118
1, 473173, Note_on_c, 1, 86, 105
1, 473262, Note_on_c, 4, 66, 127
1, 473263, Note_on_c, 4, 62, 127
1, 473352, Note_on_c, 2, 67, 127
1, 473352, Note_on_c, 4, 64, 127
1, 473362, Note_off_c, 4, 62, 64
1, 473363, Note_off_c, 4, 66, 64
1, 473442, Note_on_c, 4, 66, 127
1, 473442, Note_on_c, 2, 69, 119
1, 473450, Note_off_c, 4, 64, 64
1, 473451, Note_off_c, 2, 67, 64
1, 473517, Note_off_c, 1, 86, 64
1, 473517, Note_off_c, 2, 74, 64
1, 473531, Note_on_c, 1, 86, 105
1, 473532, Note_on_c, 2, 74, 118
1, 473670, Note_off_c, 4, 66, 64
1, 473671, Note_off_c, 2, 69, 64
1, 473710, Note_off_c, 2, 74, 64
1, 473710, Note_off_c, 1, 86, 64
1, 473718, Note_on_c, 1, 86, 105
1, 473719, Note_on_c, 2, 74, 118
1, 473798, Note_off_c, 1, 86, 64
1, 473798, Note_off_c, 2, 74, 64
1, 473805, Note_on_c, 1, 86, 105
1, 473805, Note_on_c, 2, 74, 118
1, 473883, Note_off_c, 2, 74, 64
1, 473884, Note_off_c, 1, 86, 64
1, 473891, Note_on_c, 2, 67, 127
1, 473891, Note_on_c, 1, 79, 105
1, 473980, Note_on_c, 4, 57, 127
1, 473980, Note_on_c, 4, 61, 127
1, 474071, Note_on_c, 4, 62, 127
1, 474071, Note_on_c, 4, 59, 127
1, 474079, Note_off_c, 4, 57, 64
1, 474080, Note_off_c, 4, 61, 64
1, 474159, Note_on_c, 4, 64, 127
1, 474160, Note_on_c, 4, 61, 127
1, 474169, Note_off_c, 4, 59, 64
1, 474170, Note_off_c, 4, 62, 64
1, 474227, Note_off_c, 1, 79, 64
1, 474227, Note_off_c, 2, 67, 64
1, 474248, Note_on_c, 1, 79, 105
1, 474249, Note_on_c, 2, 67, 127
1, 474288, Note_off_c, 4, 64, 64
1, 474288, Note_off_c, 4, 61, 64
1, 474429, Note_off_c, 2, 67, 64
1, 474429, Note_off_c, 1, 79, 64
1, 474436, Note_on_c, 2, 67, 127
1, 474436, Note_on_c, 1, 79, 105
1, 474515, Note_off_c, 2, 67, 64
1, 474516, Note_off_c, 1, 79, 64
1, 474522, Note_on_c, 1, 79, 105
1, 474523, Note_on_c, 2, 67, 127
1, 474600, Note_off_c, 2, 67, 64
1, 474600, Note_off_c, 1, 79, 64
1, 474609, Note_on_c, 1, 78, 105
1, 474609, Note_on_c, 4, 66, 127
1, 474610, Note_on_c, 4, 50, 127
1, 474610, Note_on_c, 4, 62, 127
1, 474693, Note_on_c, 1, 79, 105
1, 474694, Note_on_c, 2, 67, 127
1, 474704, Note_off_c, 4, 66, 64
1, 474704, Note_off_c, 1, 78, 64
1, 474780, Note_on_c, 1, 80, 105
1, 474780, Note_on_c, 2, 68, 120
1, 474788, Note_off_c, 2, 67, 64
1, 474789, Note_off_c, 1, 79, 64
1, 474866, Note_on_c, 2, 69, 118
1, 474866, Note_on_c, 1, 81, 105
1, 474875, Note_off_c, 2, 68, 64
1, 474875, Note_off_c, 1, 80, 64
1, 474952, Note_off_c, 4, 50, 64
1, 474953, Note_off_c, 4, 62, 64
1, 474953, Note_on_c, 1, 82, 105
1, 474954, Note_on_c, 4, 55, 127
1, 474954, Note_on_c, 2, 70, 118
1, 474955, Note_on_c, 4, 43, 127
1, 474963, Note_off_c, 1, 81, 64
1, 474963, Note_off_c, 2, 69, 64
1, 475039, Note_on_c, 1, 83, 110
1, 475039, Note_on_c, 2, 71, 116
1, 475049, Note_off_c, 2, 70, 64
1, 475050, Note_off_c, 1, 82, 64
1, 475127, Note_on_c, 1, 85, 110
1, 475128, Note_on_c, 2, 73, 117
1, 475138, Note_off_c, 2, 71, 64
1, 475138, Note_off_c, 1, 83, 64
1, 475215, Note_on_c, 1, 86, 110
1, 475216, Note_on_c, 2, 74, 118
1, 475224, Note_off_c, 1, 85, 64
1, 475224, Note_off_c, 2, 73, 64
1, 475296, Note_off_c, 2, 74, 64
1, 475302, Note_off_c, 4, 55, 64
1, 475302, Note_off_c, 4, 43, 64
1, 475303, Note_on_c, 2, 74, 118
1, 475303, Note_on_c, 1, 78, 115
1, 475304, Note_on_c, 4, 45, 127
1, 475304, Note_on_c, 4, 57, 127
1, 475310, Note_off_c, 1, 86, 64
1, 475474, Note_off_c, 1, 78, 64
1, 475480, Note_on_c, 2, 73, 117
1, 475480, Note_on_c, 2, 76, 118
1, 475483, Note_off_c, 2, 74, 64
1, 475644, Note_off_c, 4, 45, 64
1, 475645, Note_off_c, 4, 57, 64
1, 475659, Note_on_c, 4, 45, 127
1, 475659, Note_on_c, 4, 57, 127
1, 475704, Note_off_c, 2, 76, 64
1, 475704, Note_off_c, 2, 73, 64
1, 475836, Note_off_c, 4, 45, 64
1, 475837, Note_off_c, 4, 57, 64
1, 475845, Note_on_c, 4, 57, 127
1, 475846, Note_on_c, 4, 45, 127
1, 475930, Note_off_c, 4, 57, 64
1, 475930, Note_off_c, 4, 45, 64
1, 475936, Note_on_c, 4, 57, 127
1, 475937, Note_on_c, 4, 45, 127
1, 476020, Note_off_c, 4, 45, 64
1, 476020, Note_off_c, 4, 57, 64
1, 476027, Note_on_c, 4, 50, 127
1, 476027, Note_on_c, 4, 62, 127
1, 476116, Note_on_c, 2, 74, 118
1, 476116, Note_on_c, 1, 78, 115
1, 476206, Note_on_c, 1, 79, 115
1, 476206, Note_on_c, 2, 76, 118
1, 476216, Note_off_c, 1, 78, 64
1, 476216, Note_off_c, 2, 74, 64
1, 476296, Note_on_c, 1, 78, 115
1, 476296, Note_on_c, 1, 81, 115
1, 476304, Note_off_c, 2, 76, 64
1, 476304, Note_off_c, 1, 79, 64
1, 476370, Note_off_c, 4, 50, 64
1, 476371, Note_off_c, 4, 62, 64
1, 476385, Note_on_c, 4, 50, 127
1, 476385, Note_on_c, 4, 62, 127
1, 476422, Note_off_c, 1, 78, 64
1, 476423, Note_off_c, 1, 81, 64
1, 476562, Note_off_c, 4, 62, 64
1, 476562, Note_off_c, 4, 50, 64
1, 476570, Note_on_c, 4, 50, 127
1, 476570, Note_on_c, 4, 62, 127
1, 476653, Note_off_c, 4, 50, 64
1, 476654, Note_off_c, 4, 62, 64
1, 476662, Note_on_c, 4, 62, 127
1, 476663, Note_on_c, 4, 50, 127
1, 476744, Note_off_c, 4, 50, 64
1, 476744, Note_off_c, 4, 62, 64
1, 476751, Note_on_c, 4, 40, 127
1, 476751, Note_on_c, 4, 52, 127
1, 476840, Note_on_c, 1, 80, 115
1, 476840, Note_on_c, 1, 83, 115
1, 476927, Note_on_c, 1, 85, 115
1, 476928, Note_on_c, 1, 81, 115
1, 476936, Note_off_c, 1, 80, 64
1, 476937, Note_off_c, 1, 83, 64
1, 477016, Note_on_c, 1, 83, 115
1, 477016, Note_on_c, 1, 86, 115
1, 477024, Note_off_c, 1, 81, 64
1, 477025, Note_off_c, 1, 85, 64
1, 477102, Note_on_c, 2, 76, 118
1, 477103, Note_on_c, 4, 64, 127
1, 477140, Note_off_c, 1, 86, 64
1, 477140, Note_off_c, 1, 83, 64
1, 477191, Note_off_c, 4, 52, 64
1, 477191, Note_off_c, 4, 40, 64
1, 477192, Note_on_c, 4, 59, 127
1, 477192, Note_on_c, 4, 56, 127
1, 477275, Note_off_c, 4, 64, 64
1, 477276, Note_off_c, 2, 76, 64
1, 477284, Note_on_c, 4, 64, 127
1, 477284, Note_on_c, 2, 76, 118
1, 477285, Note_on_c, 4, 57, 127
1, 477285, Note_on_c, 4, 61, 127
1, 477291, Note_off_c, 4, 56, 64
1, 477292, Note_off_c, 4, 59, 64
1, 477365, Note_off_c, 4, 64, 64
1, 477366, Note_off_c, 2, 76, 64
1, 477374, Note_on_c, 2, 76, 118
1, 477374, Note_on_c, 4, 64, 127
1, 477375, Note_on_c, 4, 62, 127
1, 477375, Note_on_c, 4, 59, 127
1, 477380, Note_off_c, 4, 61, 64
1, 477380, Note_off_c, 4, 57, 64
1, 477454, Note_off_c, 2, 76, 64
1, 477461, Note_on_c, 1, 88, 117
1, 477462, Note_on_c, 2, 76, 118
1, 477497, Note_off_c, 4, 59, 64
1, 477497, Note_off_c, 4, 62, 64
1, 477498, Note_off_c, 4, 64, 64
1, 477546, Note_on_c, 4, 57, 127
1, 477546, Note_on_c, 4, 61, 127
1, 477629, Note_on_c, 1, 86, 115
1, 477630, Note_on_c, 2, 74, 118
1, 477632, Note_off_c, 2, 76, 64
1, 477633, Note_off_c, 1, 88, 64
1, 477713, Note_on_c, 4, 50, 127
1, 477713, Note_on_c, 4, 59, 127
1, 477716, Note_off_c, 4, 61, 64
1, 477716, Note_off_c, 4, 57, 64
1, 477795, Note_on_c, 1, 85, 115
1, 477796, Note_off_c, 2, 74, 64
1, 477796, Note_on_c, 2, 73, 117
1, 477797, Note_off_c, 1, 86, 64
1, 477880, Note_on_c, 4, 57, 127
1, 477881, Note_on_c, 4, 52, 127
1, 477884, Note_off_c, 4, 59, 64
1, 477884, Note_off_c, 4, 50, 64
1, 477965, Note_on_c, 1, 83, 115
1, 477966, Note_on_c, 2, 71, 116
1, 477968, Note_off_c, 2, 73, 64
1, 477969, Note_off_c, 1, 85, 64
1, 478046, Note_off_c, 4, 52, 64
1, 478052, Note_on_c, 4, 52, 127
1, 478052, Note_on_c, 4, 56, 127
1, 478055, Note_off_c, 4, 57, 64
1, 478139, Note_on_c, 1, 81, 115
1, 478140, Note_on_c, 2, 69, 118
1, 478142, Note_off_c, 1, 83, 64
1, 478142, Note_off_c, 2, 71, 64
1, 478222, Note_off_c, 4, 52, 64
1, 478231, Note_on_c, 4, 57, 127
1, 478233, Note_off_c, 4, 56, 64
1, 478320, Note_on_c, 4, 45, 127
1, 478414, Note_off_c, 4, 57, 64
1, 478469, Note_off_c, 2, 69, 64
1, 478470, Note_off_c, 1, 81, 64
1, 478499, Note_on_c, 1, 81, 110
1, 478500, Note_on_c, 2, 69, 118
1, 478682, Note_off_c, 2, 69, 64
1, 478683, Note_off_c, 1, 81, 64
1, 478686, Note_on_c, 1, 81, 110
1, 478686, Note_on_c, 2, 69, 118
1, 478769, Note_off_c, 2, 69, 64
1, 478769, Note_off_c, 1, 81, 64
1, 478776, Note_on_c, 2, 69, 118
1, 478776, Note_on_c, 1, 81, 110
1, 478856, Note_off_c, 1, 81, 64
1, 478856, Note_off_c, 2, 69, 64
1, 478864, Note_on_c, 2, 74, 118
1, 478864, Note_on_c, 1, 86, 110
1, 478953, Note_on_c, 4, 66, 127
1, 478954, Note_on_c, 4, 62, 127
1, 479043, Note_on_c, 2, 67, 127
1, 479043, Note_on_c, 4, 64, 127
1, 479052, Note_off_c, 4, 66, 64
1, 479052, Note_off_c, 4, 62, 64
1, 479131, Note_on_c, 2, 69, 119
1, 479132, Note_on_c, 4, 66, 127
1, 479141, Note_off_c, 4, 64, 64
1, 479142, Note_off_c, 2, 67, 64
1, 479198, Note_off_c, 2, 74, 64
1, 479199, Note_off_c, 1, 86, 64
1, 479220, Note_on_c, 1, 86, 110
1, 479221, Note_on_c, 2, 74, 118
1, 479360, Note_off_c, 2, 69, 64
1, 479360, Note_off_c, 4, 66, 64
1, 479403, Note_off_c, 1, 86, 64
1, 479403, Note_off_c, 2, 74, 64
1, 479408, Note_on_c, 1, 86, 110
1, 479408, Note_on_c, 2, 74, 118
1, 479493, Note_off_c, 2, 74, 64
1, 479494, Note_off_c, 1, 86, 64
1, 479500, Note_on_c, 2, 74, 118
1, 479500, Note_on_c, 1, 86, 110
1, 479581, Note_off_c, 2, 74, 64
1, 479582, Note_off_c, 1, 86, 64
1, 479588, Note_on_c, 1, 79, 110
1, 479589, Note_on_c, 2, 67, 127
1, 479678, Note_on_c, 4, 61, 127
1, 479679, Note_on_c, 4, 57, 127
1, 479768, Note_on_c, 4, 62, 127
1, 479768, Note_on_c, 4, 59, 127
1, 479776, Note_off_c, 4, 57, 64
1, 479777, Note_off_c, 4, 61, 64
1, 479856, Note_on_c, 4, 64, 127
1, 479856, Note_on_c, 4, 61, 127
1, 479867, Note_off_c, 4, 59, 64
1, 479867, Note_off_c, 4, 62, 64
1, 479933, Note_off_c, 1, 79, 64
1, 479933, Note_off_c, 2, 67, 64
1, 479949, Note_on_c, 1, 79, 110
1, 479950, Note_on_c, 2, 67, 127
1, 479988, Note_off_c, 4, 61, 64
1, 479989, Note_off_c, 4, 64, 64
1, 480130, Note_off_c, 1, 79, 64
1, 480130, Note_off_c, 2, 67, 64
1, 480136, Note_on_c, 1, 79, 110
1, 480137, Note_on_c, 2, 67, 127
1, 480220, Note_off_c, 2, 67, 64
1, 480220, Note_off_c, 1, 79, 64
1, 480227, Note_on_c, 2, 67, 127
1, 480227, Note_on_c, 1, 79, 110
1, 480308, Note_off_c, 2, 67, 64
1, 480309, Note_off_c, 1, 79, 64
1, 480317, Note_on_c, 1, 78, 110
1, 480317, Note_on_c, 4, 66, 127
1, 480318, Note_on_c, 4, 50, 127
1, 480318, Note_on_c, 4, 62, 127
1, 480359, Note_off_c, 4, 45, 64
1, 480403, Note_on_c, 1, 79, 110
1, 480404, Note_on_c, 2, 67, 127
1, 480412, Note_off_c, 4, 66, 64
1, 480412, Note_off_c, 1, 78, 64
1, 480488, Note_on_c, 1, 80, 110
1, 480488, Note_on_c, 2, 68, 120
1, 480496, Note_off_c, 2, 67, 64
1, 480497, Note_off_c, 1, 79, 64
1, 480574, Note_on_c, 1, 81, 110
1, 480575, Note_on_c, 2, 69, 118
1, 480583, Note_off_c, 2, 68, 64
1, 480583, Note_off_c, 1, 80, 64
1, 480660, Note_off_c, 4, 50, 64
1, 480661, Note_off_c, 4, 62, 64
1, 480661, Note_on_c, 1, 82, 110
1, 480662, Note_on_c, 4, 55, 127
1, 480662, Note_on_c, 2, 70, 118
1, 480663, Note_on_c, 4, 43, 127
1, 480669, Note_off_c, 2, 69, 64
1, 480670, Note_off_c, 1, 81, 64
1, 480747, Note_on_c, 1, 83, 110
1, 480747, Note_on_c, 2, 71, 116
1, 480756, Note_off_c, 1, 82, 64
1, 480756, Note_off_c, 2, 70, 64
1, 480833, Note_on_c, 1, 85, 110
1, 480834, Note_on_c, 2, 73, 117
1, 480842, Note_off_c, 2, 71, 64
1, 480842, Note_off_c, 1, 83, 64
1, 480920, Note_on_c, 2, 74, 118
1, 480920, Note_on_c, 1, 86, 110
1, 480930, Note_off_c, 2, 73, 64
1, 480931, Note_off_c, 1, 85, 64
1, 481000, Note_off_c, 2, 74, 64
1, 481008, Note_off_c, 4, 55, 64
1, 481008, Note_off_c, 4, 43, 64
1, 481009, Note_on_c, 1, 78, 115
1, 481009, Note_on_c, 2, 74, 118
1, 481010, Note_on_c, 4, 45, 127
1, 481010, Note_on_c, 4, 57, 127
1, 481022, Note_off_c, 1, 86, 64
1, 481186, Note_on_c, 2, 73, 117
1, 481186, Note_on_c, 2, 76, 118
1, 481188, Note_off_c, 2, 74, 64
1, 481189, Note_off_c, 1, 78, 64
1, 481359, Note_off_c, 4, 57, 64
1, 481359, Note_off_c, 4, 45, 64
1, 481366, Note_on_c, 4, 45, 127
1, 481366, Note_on_c, 4, 57, 127
1, 481368, Note_off_c, 2, 76, 64
1, 481368, Note_off_c, 2, 73, 64
1, 481544, Note_off_c, 4, 45, 64
1, 481545, Note_off_c, 4, 57, 64
1, 481551, Note_on_c, 4, 57, 127
1, 481551, Note_on_c, 4, 45, 127
1, 481633, Note_off_c, 4, 45, 64
1, 481633, Note_off_c, 4, 57, 64
1, 481640, Note_on_c, 4, 57, 127
1, 481641, Note_on_c, 4, 45, 127
1, 481722, Note_off_c, 4, 57, 64
1, 481722, Note_off_c, 4, 45, 64
1, 481730, Note_on_c, 4, 62, 127
1, 481731, Note_on_c, 4, 50, 127
1, 481820, Note_on_c, 1, 78, 115
1, 481820, Note_on_c, 2, 74, 118
1, 481909, Note_on_c, 2, 76, 118
1, 481909, Note_on_c, 1, 79, 115
1, 481920, Note_off_c, 2, 74, 64
1, 481920, Note_off_c, 1, 78, 64
1, 481999, Note_on_c, 1, 81, 115
1, 482000, Note_on_c, 1, 78, 115
1, 482008, Note_off_c, 1, 79, 64
1, 482008, Note_off_c, 2, 76, 64
1, 482043, Note_off_c, 4, 50, 64
1, 482044, Note_off_c, 4, 62, 64
1, 482088, Note_on_c, 4, 62, 127
1, 482089, Note_on_c, 4, 50, 127
1, 482126, Note_off_c, 1, 78, 64
1, 482126, Note_off_c, 1, 81, 64
1, 482259, Note_off_c, 4, 50, 64
1, 482260, Note_off_c, 4, 62, 64
1, 482276, Note_on_c, 4, 62, 127
1, 482276, Note_on_c, 4, 50, 127
1, 482357, Note_off_c, 4, 50, 64
1, 482358, Note_off_c, 4, 62, 64
1, 482364, Note_on_c, 4, 50, 127
1, 482364, Note_on_c, 4, 62, 127
1, 482448, Note_off_c, 4, 62, 64
1, 482448, Note_off_c, 4, 50, 64
1, 482454, Note_on_c, 4, 52, 127
1, 482455, Note_on_c, 4, 40, 127
1, 482544, Note_on_c, 1, 80, 115
1, 482544, Note_on_c, 1, 83, 115
1, 482633, Note_on_c, 1, 81, 115
1, 482633, Note_on_c, 1, 85, 115
1, 482643, Note_off_c, 1, 80, 64
1, 482644, Note_off_c, 1, 83, 64
1, 482723, Note_on_c, 1, 86, 115
1, 482724, Note_on_c, 1, 83, 115
1, 482732, Note_off_c, 1, 81, 64
1, 482733, Note_off_c, 1, 85, 64
1, 482811, Note_on_c, 2, 76, 118
1, 482812, Note_on_c, 4, 64, 127
1, 482849, Note_off_c, 1, 83, 64
1, 482849, Note_off_c, 1, 86, 64
1, 482902, Note_off_c, 4, 52, 64
1, 482902, Note_off_c, 4, 40, 64
1, 482903, Note_on_c, 4, 59, 127
1, 482903, Note_on_c, 4, 56, 127
1, 482990, Note_off_c, 2, 76, 64
1, 482990, Note_off_c, 4, 64, 64
1, 482997, Note_on_c, 2, 76, 118
1, 482997, Note_on_c, 4, 64, 127
1, 482998, Note_on_c, 4, 61, 127
1, 482998, Note_on_c, 4, 57, 127
1, 483006, Note_off_c, 4, 56, 64
1, 483007, Note_off_c, 4, 59, 64
1, 483078, Note_off_c, 4, 64, 64
1, 483079, Note_off_c, 2, 76, 64
1, 483085, Note_on_c, 4, 64, 127
1, 483085, Note_on_c, 2, 76, 118
1, 483086, Note_on_c, 4, 59, 127
1, 483086, Note_on_c, 4, 62, 127
1, 483095, Note_off_c, 4, 57, 64
1, 483095, Note_off_c, 4, 61, 64
1, 483163, Note_off_c, 2, 76, 64
1, 483170, Note_on_c, 1, 88, 112
1, 483171, Note_on_c, 2, 76, 118
1, 483206, Note_off_c, 4, 64, 64
1, 483260, Note_on_c, 4, 57, 127
1, 483260, Note_on_c, 4, 61, 127
1, 483263, Note_off_c, 4, 62, 64
1, 483263, Note_off_c, 4, 59, 64
1, 483348, Note_on_c, 2, 74, 118
1, 483348, Note_on_c, 1, 86, 110
1, 483351, Note_off_c, 2, 76, 64
1, 483351, Note_off_c, 1, 88, 64
1, 483434, Note_on_c, 4, 59, 127
1, 483435, Note_on_c, 4, 50, 127
1, 483437, Note_off_c, 4, 57, 64
1, 483438, Note_off_c, 4, 61, 64
1, 483517, Note_on_c, 1, 85, 110
1, 483518, Note_on_c, 2, 73, 117
1, 483520, Note_off_c, 1, 86, 64
1, 483520, Note_off_c, 2, 74, 64
1, 483603, Note_on_c, 4, 57, 127
1, 483604, Note_on_c, 4, 52, 127
1, 483606, Note_off_c, 4, 50, 64
1, 483607, Note_off_c, 4, 59, 64
1, 483692, Note_on_c, 1, 83, 110
1, 483693, Note_on_c, 2, 71, 116
1, 483695, Note_off_c, 1, 85, 64
1, 483695, Note_off_c, 2, 73, 64
1, 483770, Note_off_c, 4, 52, 64
1, 483779, Note_on_c, 4, 52, 127
1, 483779, Note_on_c, 4, 56, 127
1, 483781, Note_off_c, 4, 57, 64
1, 483870, Note_on_c, 2, 69, 118
1, 483870, Note_on_c, 1, 81, 110
1, 483873, Note_off_c, 1, 83, 64
1, 483873, Note_off_c, 2, 71, 64
1, 483958, Note_off_c, 4, 52, 64
1, 483966, Note_on_c, 4, 57, 127
1, 483968, Note_off_c, 4, 56, 64
1, 484058, Note_on_c, 4, 45, 127
1, 484150, Note_off_c, 4, 57, 64
1, 484198, Note_off_c, 2, 69, 64
1, 484199, Note_off_c, 1, 81, 64
1, 484236, Note_on_c, 2, 69, 118
1, 484236, Note_on_c, 1, 81, 110
1, 484415, Note_off_c, 2, 69, 64
1, 484416, Note_off_c, 1, 81, 64
1, 484422, Note_on_c, 1, 81, 115
1, 484422, Note_on_c, 2, 69, 118
1, 484504, Note_off_c, 2, 69, 64
1, 484505, Note_off_c, 1, 81, 64
1, 484511, Note_on_c, 1, 81, 115
1, 484512, Note_on_c, 2, 69, 118
1, 484591, Note_off_c, 1, 81, 64
1, 484591, Note_off_c, 2, 69, 64
1, 484597, Note_on_c, 1, 84, 115
1, 484598, Note_on_c, 2, 72, 117
1, 484683, Note_on_c, 4, 63, 127
1, 484683, Note_on_c, 2, 69, 118
1, 484772, Note_on_c, 1, 83, 115
1, 484773, Note_on_c, 2, 71, 116
1, 484775, Note_off_c, 2, 72, 64
1, 484776, Note_off_c, 1, 84, 64
1, 484860, Note_on_c, 2, 68, 120
1, 484861, Note_on_c, 4, 64, 126
1, 484863, Note_off_c, 4, 63, 64
1, 484864, Note_off_c, 2, 69, 64
1, 484953, Note_on_c, 2, 70, 118
1, 484953, Note_on_c, 1, 82, 110
1, 484956, Note_off_c, 1, 83, 64
1, 484956, Note_off_c, 2, 71, 64
1, 485041, Note_on_c, 2, 67, 127
1, 485041, Note_on_c, 4, 61, 127
1, 485044, Note_off_c, 2, 68, 64
1, 485044, Note_off_c, 4, 64, 64
1, 485132, Note_on_c, 2, 69, 118
1, 485132, Note_on_c, 1, 81, 110
1, 485134, Note_off_c, 2, 70, 64
1, 485135, Note_off_c, 1, 82, 64
1, 485220, Note_on_c, 4, 62, 127
1, 485220, Note_on_c, 4, 66, 127
1, 485222, Note_off_c, 4, 61, 64
1, 485223, Note_off_c, 2, 67, 64
1, 485312, Note_on_c, 1, 85, 110
1, 485312, Note_on_c, 2, 73, 112
1, 485315, Note_off_c, 1, 81, 64
1, 485315, Note_off_c, 2, 69, 64
1, 485402, Note_off_c, 2, 73, 64
1, 485402, Note_off_c, 1, 85, 64
1, 485409, Note_off_c, 4, 45, 64
1, 485409, Note_on_c, 1, 86, 110
1, 485410, Note_on_c, 2, 74, 113
1, 485413, Note_off_c, 4, 62, 64
1, 485414, Note_off_c, 4, 66, 64
1, 485499, Note_on_c, 4, 46, 127
1, 485499, Note_on_c, 4, 58, 127
1, 485587, Note_on_c, 4, 59, 127
1, 485587, Note_on_c, 4, 47, 127
1, 485597, Note_off_c, 4, 58, 64
1, 485597, Note_off_c, 4, 46, 64
1, 485655, Note_off_c, 2, 74, 64
1, 485656, Note_off_c, 1, 86, 64
1, 485677, Note_on_c, 1, 82, 110
1, 485678, Note_on_c, 2, 70, 118
1, 485715, Note_off_c, 4, 47, 64
1, 485715, Note_off_c, 4, 59, 64
1, 485762, Note_off_c, 2, 70, 64
1, 485763, Note_off_c, 1, 82, 64
1, 485771, Note_on_c, 2, 71, 116
1, 485771, Note_on_c, 1, 83, 110
1, 485860, Note_on_c, 4, 54, 127
1, 485861, Note_on_c, 4, 42, 127
1, 485947, Note_on_c, 4, 43, 127
1, 485953, Note_on_c, 4, 55, 127
1, 485957, Note_off_c, 4, 42, 64
1, 485957, Note_off_c, 4, 54, 64
1, 486014, Note_off_c, 1, 83, 64
1, 486014, Note_off_c, 2, 71, 64
1, 486044, Note_on_c, 1, 79, 110
1, 486044, Note_on_c, 2, 67, 127
1, 486045, Note_on_c, 4, 61, 127
1, 486045, Note_on_c, 4, 49, 127
1, 486046, Note_off_c, 4, 43, 64
1, 486053, Note_off_c, 4, 55, 64
1, 486224, Note_on_c, 1, 78, 110
1, 486225, Note_on_c, 4, 62, 127
1, 486225, Note_on_c, 4, 66, 127
1, 486226, Note_on_c, 4, 50, 127
1, 486228, Note_off_c, 4, 49, 64
1, 486228, Note_off_c, 4, 61, 64
1, 486228, Note_off_c, 2, 67, 64
1, 486229, Note_off_c, 1, 79, 64
1, 486407, Note_on_c, 4, 64, 126
1, 486407, Note_on_c, 2, 76, 113
1, 486408, Note_off_c, 4, 62, 64
1, 486408, Note_off_c, 4, 50, 64
1, 486408, Note_on_c, 4, 49, 127
1, 486408, Note_on_c, 4, 61, 127
1, 486409, Note_off_c, 1, 78, 64
1, 486409, Note_off_c, 4, 66, 64
1, 486585, Note_on_c, 2, 74, 113
1, 486586, Note_on_c, 4, 59, 127
1, 486586, Note_on_c, 4, 62, 127
1, 486587, Note_on_c, 4, 47, 127
1, 486589, Note_off_c, 4, 61, 64
1, 486589, Note_off_c, 4, 49, 64
1, 486590, Note_off_c, 2, 76, 64
1, 486590, Note_off_c, 4, 64, 64
1, 486766, Note_on_c, 1, 78, 105
1, 486768, Note_off_c, 4, 62, 64
1, 486773, Note_on_c, 4, 66, 127
1, 486774, Note_on_c, 4, 57, 127
1, 486774, Note_on_c, 4, 62, 127
1, 486776, Note_off_c, 4, 47, 64
1, 486777, Note_off_c, 2, 74, 64
1, 486777, Note_off_c, 4, 59, 64
1, 487027, Note_off_c, 1, 78, 64
1, 487027, Note_on_c, 1, 79, 105
1, 487033, Note_off_c, 4, 66, 64
1, 487034, Note_on_c, 2, 67, 127
1, 487115, Note_on_c, 1, 80, 105
1, 487121, Note_on_c, 2, 68, 120
1, 487125, Note_off_c, 1, 79, 64
1, 487130, Note_off_c, 2, 67, 64
1, 487203, Note_on_c, 1, 81, 105
1, 487209, Note_on_c, 2, 69, 118
1, 487211, Note_off_c, 1, 80, 64
1, 487217, Note_off_c, 2, 68, 64
1, 487288, Note_on_c, 1, 80, 105
1, 487294, Note_on_c, 2, 68, 120
1, 487297, Note_off_c, 1, 81, 64
1, 487303, Note_off_c, 2, 69, 64
1, 487371, Note_on_c, 1, 81, 105
1, 487377, Note_on_c, 2, 69, 118
1, 487381, Note_off_c, 1, 80, 64
1, 487387, Note_off_c, 2, 68, 64
1, 487460, Note_on_c, 2, 76, 108
1, 487466, Note_off_c, 4, 62, 64
1, 487466, Note_off_c, 4, 57, 64
1, 487467, Note_on_c, 4, 61, 127
1, 487467, Note_on_c, 4, 64, 126
1, 487469, Note_off_c, 1, 81, 64
1, 487475, Note_off_c, 2, 69, 64
1, 487772, Note_off_c, 2, 76, 64
1, 487779, Note_off_c, 4, 61, 64
1, 487780, Note_off_c, 4, 64, 64
1, 487819, Note_on_c, 4, 33, 127
1, 487819, Note_on_c, 4, 45, 127
1, 487998, Note_off_c, 4, 33, 64
1, 487999, Note_off_c, 4, 45, 64
1, 488005, Note_on_c, 4, 45, 127
1, 488005, Note_on_c, 4, 33, 127
1, 488087, Note_off_c, 4, 33, 64
1, 488087, Note_off_c, 4, 45, 64
1, 488095, Note_on_c, 4, 45, 127
1, 488096, Note_on_c, 4, 33, 127
1, 488177, Note_off_c, 4, 45, 64
1, 488177, Note_off_c, 4, 33, 64
1, 488184, Note_on_c, 4, 38, 127
1, 488184, Note_on_c, 4, 50, 127
1, 488273, Note_on_c, 1, 78, 115
1, 488273, Note_on_c, 2, 74, 118
1, 488363, Note_on_c, 2, 76, 118
1, 488363, Note_on_c, 1, 79, 115
1, 488373, Note_off_c, 2, 74, 64
1, 488373, Note_off_c, 1, 78, 64
1, 488452, Note_on_c, 1, 81, 115
1, 488453, Note_on_c, 1, 78, 115
1, 488461, Note_off_c, 1, 79, 64
1, 488461, Note_off_c, 2, 76, 64
1, 488505, Note_off_c, 4, 50, 64
1, 488505, Note_off_c, 4, 38, 64
1, 488542, Note_on_c, 4, 50, 127
1, 488542, Note_on_c, 4, 62, 127
1, 488580, Note_off_c, 1, 78, 64
1, 488580, Note_off_c, 1, 81, 64
1, 488719, Note_off_c, 4, 62, 64
1, 488719, Note_off_c, 4, 50, 64
1, 488727, Note_on_c, 4, 62, 127
1, 488728, Note_on_c, 4, 50, 127
1, 488809, Note_off_c, 4, 50, 64
1, 488809, Note_off_c, 4, 62, 64
1, 488816, Note_on_c, 4, 50, 127
1, 488816, Note_on_c, 4, 62, 127
1, 488897, Note_off_c, 4, 50, 64
1, 488898, Note_off_c, 4, 62, 64
1, 488906, Note_on_c, 4, 43, 127
1, 488906, Note_on_c, 4, 55, 127
1, 488995, Note_on_c, 2, 76, 118
1, 488996, Note_on_c, 2, 71, 116
1, 489084, Note_on_c, 1, 78, 115
1, 489085, Note_on_c, 2, 75, 118
1, 489095, Note_off_c, 2, 71, 64
1, 489096, Note_off_c, 2, 76, 64
1, 489175, Note_on_c, 1, 79, 115
1, 489175, Note_on_c, 2, 76, 118
1, 489183, Note_off_c, 2, 75, 64
1, 489184, Note_off_c, 1, 78, 64
1, 489227, Note_off_c, 4, 55, 64
1, 489227, Note_off_c, 4, 43, 64
1, 489264, Note_on_c, 2, 73, 117
1, 489264, Note_on_c, 1, 85, 105
1, 489273, Note_off_c, 2, 76, 64
1, 489274, Note_off_c, 1, 79, 64
1, 489359, Note_on_c, 2, 71, 116
1, 489360, Note_on_c, 2, 67, 127
1, 489443, Note_off_c, 1, 85, 64
1, 489443, Note_off_c, 2, 73, 64
1, 489451, Note_on_c, 1, 85, 105
1, 489452, Note_on_c, 2, 73, 117
1, 489452, Note_on_c, 2, 69, 118
1, 489453, Note_on_c, 4, 66, 127
1, 489461, Note_off_c, 2, 67, 64
1, 489461, Note_off_c, 2, 71, 64
1, 489533, Note_off_c, 2, 73, 64
1, 489533, Note_off_c, 1, 85, 64
1, 489541, Note_on_c, 1, 85, 105
1, 489542, Note_on_c, 2, 67, 127
1, 489542, Note_on_c, 2, 73, 117
1, 489543, Note_on_c, 4, 64, 126
1, 489549, Note_off_c, 4, 66, 64
1, 489550, Note_off_c, 2, 69, 64
1, 489619, Note_off_c, 2, 73, 64
1, 489620, Note_off_c, 1, 85, 64
1, 489626, Note_on_c, 1, 86, 105
1, 489626, Note_on_c, 2, 74, 118
1, 489712, Note_on_c, 4, 66, 127
1, 489714, Note_on_c, 4, 62, 127
1, 489716, Note_off_c, 4, 64, 64
1, 489717, Note_off_c, 2, 67, 64
1, 489800, Note_on_c, 2, 71, 116
1, 489800, Note_on_c, 1, 83, 105
1, 489803, Note_off_c, 2, 74, 64
1, 489803, Note_off_c, 1, 86, 64
1, 489884, Note_on_c, 4, 64, 126
1, 489885, Note_on_c, 4, 55, 127
1, 489887, Note_off_c, 4, 62, 64
1, 489888, Note_off_c, 4, 66, 64
1, 489971, Note_on_c, 2, 69, 118
1, 489971, Note_on_c, 1, 81, 105
1, 489973, Note_off_c, 2, 71, 64
1, 489974, Note_off_c, 1, 83, 64
1, 490057, Note_on_c, 4, 57, 127
1, 490057, Note_on_c, 4, 66, 127
1, 490060, Note_off_c, 4, 55, 64
1, 490060, Note_off_c, 4, 64, 64
1, 490141, Note_on_c, 1, 85, 105
1, 490142, Note_on_c, 2, 73, 117
1, 490144, Note_off_c, 1, 81, 64
1, 490144, Note_off_c, 2, 69, 64
1, 490220, Note_off_c, 4, 57, 64
1, 490228, Note_on_c, 4, 57, 127
1, 490228, Note_on_c, 4, 64, 126
1, 490231, Note_off_c, 4, 66, 64
1, 490314, Note_on_c, 2, 74, 118
1, 490314, Note_on_c, 1, 86, 105
1, 490316, Note_off_c, 2, 73, 64
1, 490317, Note_off_c, 1, 85, 64
1, 490396, Note_off_c, 4, 57, 64
1, 490402, Note_on_c, 4, 62, 127
1, 490405, Note_off_c, 4, 64, 64
1, 490492, Note_on_c, 4, 50, 127
1, 490574, Note_off_c, 4, 62, 64
1, 490626, Note_off_c, 2, 74, 64
1, 490627, Note_off_c, 1, 86, 64
1, 490671, Note_on_c, 1, 81, 105
1, 490672, Note_on_c, 2, 69, 118
1, 490849, Note_off_c, 1, 81, 64
1, 490849, Note_off_c, 2, 69, 64
1, 490856, Note_on_c, 1, 81, 105
1, 490856, Note_on_c, 2, 69, 118
1, 490941, Note_off_c, 2, 69, 64
1, 490942, Note_off_c, 1, 81, 64
1, 490948, Note_on_c, 1, 81, 105
1, 490949, Note_on_c, 2, 69, 118
1, 491031, Note_off_c, 2, 69, 64
1, 491031, Note_off_c, 1, 81, 64
1, 491038, Note_on_c, 2, 72, 117
1, 491038, Note_on_c, 1, 84, 105
1, 491125, Note_on_c, 4, 63, 127
1, 491125, Note_on_c, 2, 69, 118
1, 491213, Note_on_c, 1, 83, 105
1, 491214, Note_on_c, 2, 71, 116
1, 491216, Note_off_c, 2, 72, 64
1, 491217, Note_off_c, 1, 84, 64
1, 491300, Note_on_c, 2, 68, 120
1, 491300, Note_on_c, 4, 64, 126
1, 491303, Note_off_c, 2, 69, 64
1, 491303, Note_off_c, 4, 63, 64
1, 491384, Note_on_c, 1, 82, 105
1, 491385, Note_on_c, 2, 70, 118
1, 491387, Note_off_c, 2, 71, 64
1, 491388, Note_off_c, 1, 83, 64
1, 491471, Note_on_c, 4, 61, 127
1, 491471, Note_on_c, 2, 67, 127
1, 491473, Note_off_c, 4, 64, 64
1, 491474, Note_off_c, 2, 68, 64
1, 491557, Note_on_c, 1, 81, 105
1, 491557, Note_on_c, 2, 69, 118
1, 491560, Note_off_c, 1, 82, 64
1, 491560, Note_off_c, 2, 70, 64
1, 491643, Note_on_c, 4, 66, 127
1, 491644, Note_on_c, 4, 62, 127
1, 491646, Note_off_c, 4, 61, 64
1, 491647, Note_off_c, 2, 67, 64
1, 491732, Note_on_c, 2, 73, 117
1, 491732, Note_on_c, 1, 85, 105
1, 491735, Note_off_c, 2, 69, 64
1, 491735, Note_off_c, 1, 81, 64
1, 491824, Note_on_c, 2, 74, 118
1, 491824, Note_on_c, 1, 86, 105
1, 491827, Note_off_c, 4, 66, 64
1, 491827, Note_off_c, 4, 62, 64
1, 491835, Note_off_c, 2, 73, 64
1, 491836, Note_off_c, 1, 85, 64
1, 491904, Note_off_c, 4, 50, 64
1, 491917, Note_on_c, 4, 46, 127
1, 491917, Note_on_c, 4, 58, 127
1, 491999, Note_on_c, 4, 47, 127
1, 491999, Note_on_c, 4, 59, 127
1, 492007, Note_off_c, 4, 46, 64
1, 492008, Note_off_c, 4, 58, 64
1, 492043, Note_off_c, 1, 86, 64
1, 492043, Note_off_c, 2, 74, 64
1, 492088, Note_on_c, 1, 82, 105
1, 492088, Note_on_c, 2, 70, 118
1, 492185, Note_on_c, 2, 71, 116
1, 492185, Note_on_c, 1, 83, 105
1, 492193, Note_off_c, 2, 70, 64
1, 492194, Note_off_c, 1, 82, 64
1, 492231, Note_off_c, 4, 59, 64
1, 492231, Note_off_c, 4, 47, 64
1, 492276, Note_on_c, 4, 54, 127
1, 492276, Note_on_c, 4, 42, 127
1, 492363, Note_on_c, 4, 55, 127
1, 492364, Note_on_c, 4, 43, 127
1, 492374, Note_off_c, 4, 42, 64
1, 492374, Note_off_c, 4, 54, 64
1, 492406, Note_off_c, 1, 83, 64
1, 492406, Note_off_c, 2, 71, 64
1, 492453, Note_on_c, 4, 61, 127
1, 492453, Note_on_c, 1, 79, 110
1, 492454, Note_on_c, 4, 49, 127
1, 492455, Note_on_c, 2, 67, 127
1, 492456, Note_off_c, 4, 43, 64
1, 492457, Note_off_c, 4, 55, 64
1, 492634, Note_on_c, 1, 78, 110
1, 492635, Note_on_c, 4, 50, 127
1, 492635, Note_on_c, 4, 62, 127
1, 492636, Note_off_c, 4, 61, 64
1, 492636, Note_off_c, 4, 49, 64
1, 492636, Note_on_c, 4, 66, 127
1, 492637, Note_off_c, 1, 79, 64
1, 492637, Note_off_c, 2, 67, 64
1, 492813, Note_on_c, 4, 61, 127
1, 492813, Note_on_c, 2, 76, 113
1, 492814, Note_on_c, 4, 49, 127
1, 492815, Note_on_c, 4, 64, 126
1, 492816, Note_off_c, 4, 50, 64
1, 492817, Note_off_c, 1, 78, 64
1, 492817, Note_off_c, 4, 62, 64
1, 492818, Note_off_c, 4, 66, 64
1, 492995, Note_on_c, 2, 74, 118
1, 492996, Note_on_c, 4, 59, 127
1, 492996, Note_on_c, 4, 47, 127
1, 492997, Note_off_c, 4, 49, 64
1, 492997, Note_on_c, 4, 62, 127
1, 492998, Note_off_c, 2, 76, 64
1, 492998, Note_off_c, 4, 61, 64
1, 492998, Note_off_c, 4, 64, 64
1, 493176, Note_off_c, 4, 62, 64
1, 493180, Note_on_c, 1, 78, 105
1, 493181, Note_on_c, 4, 66, 127
1, 493182, Note_on_c, 4, 57, 127
1, 493182, Note_on_c, 4, 62, 127
1, 493183, Note_off_c, 4, 47, 64
1, 493183, Note_off_c, 4, 59, 64
1, 493184, Note_off_c, 2, 74, 64
1, 493443, Note_on_c, 1, 79, 105
1, 493449, Note_off_c, 1, 78, 64
1, 493449, Note_off_c, 4, 66, 64
1, 493450, Note_on_c, 2, 67, 127
1, 493529, Note_on_c, 1, 80, 105
1, 493537, Note_on_c, 2, 68, 120
1, 493541, Note_off_c, 1, 79, 64
1, 493547, Note_off_c, 2, 67, 64
1, 493616, Note_on_c, 1, 81, 100
1, 493623, Note_on_c, 2, 69, 118
1, 493625, Note_off_c, 1, 80, 64
1, 493633, Note_off_c, 2, 68, 64
1, 493704, Note_on_c, 1, 80, 105
1, 493712, Note_on_c, 2, 68, 120
1, 493714, Note_off_c, 1, 81, 64
1, 493719, Note_off_c, 2, 69, 64
1, 493787, Note_on_c, 1, 81, 100
1, 493792, Note_on_c, 2, 69, 118
1, 493796, Note_off_c, 1, 80, 64
1, 493802, Note_off_c, 2, 68, 64
1, 493879, Note_on_c, 4, 64, 126
1, 493879, Note_on_c, 2, 76, 108
1, 493880, Note_off_c, 4, 57, 64
1, 493880, Note_on_c, 4, 61, 127
1, 493881, Note_off_c, 4, 62, 64
1, 493883, Note_off_c, 1, 81, 64
1, 493890, Note_off_c, 2, 69, 64
1, 494193, Note_off_c, 2, 76, 64
1, 494195, Note_off_c, 4, 64, 64
1, 494195, Note_off_c, 4, 61, 64
1, 494232, Note_on_c, 4, 33, 127
1, 494232, Note_on_c, 4, 45, 127
1, 494408, Note_off_c, 4, 45, 64
1, 494408, Note_off_c, 4, 33, 64
1, 494416, Note_on_c, 4, 45, 127
1, 494417, Note_on_c, 4, 33, 127
1, 494500, Note_off_c, 4, 33, 64
1, 494500, Note_off_c, 4, 45, 64
1, 494507, Note_on_c, 4, 45, 127
1, 494507, Note_on_c, 4, 33, 127
1, 494588, Note_off_c, 4, 33, 64
1, 494589, Note_off_c, 4, 45, 64
1, 494597, Note_on_c, 4, 38, 127
1, 494597, Note_on_c, 4, 50, 127
1, 494684, Note_on_c, 1, 78, 115
1, 494685, Note_on_c, 2, 74, 118
1, 494772, Note_on_c, 1, 79, 115
1, 494772, Note_on_c, 2, 76, 118
1, 494782, Note_off_c, 2, 74, 64
1, 494783, Note_off_c, 1, 78, 64
1, 494860, Note_on_c, 1, 78, 115
1, 494860, Note_on_c, 1, 81, 115
1, 494868, Note_off_c, 2, 76, 64
1, 494869, Note_off_c, 1, 79, 64
1, 494910, Note_off_c, 4, 38, 64
1, 494911, Note_off_c, 4, 50, 64
1, 494948, Note_on_c, 4, 62, 127
1, 494949, Note_on_c, 4, 50, 127
1, 494959, Note_off_c, 1, 81, 64
1, 494959, Note_off_c, 1, 78, 64
1, 495127, Note_off_c, 4, 50, 64
1, 495128, Note_off_c, 4, 62, 64
1, 495133, Note_on_c, 4, 62, 127
1, 495134, Note_on_c, 4, 50, 127
1, 495216, Note_off_c, 4, 50, 64
1, 495216, Note_off_c, 4, 62, 64
1, 495224, Note_on_c, 4, 62, 127
1, 495224, Note_on_c, 4, 50, 127
1, 495303, Note_off_c, 4, 50, 64
1, 495304, Note_off_c, 4, 62, 64
1, 495311, Note_on_c, 4, 43, 127
1, 495311, Note_on_c, 4, 55, 127
1, 495399, Note_on_c, 2, 76, 113
1, 495400, Note_on_c, 2, 71, 116
1, 495487, Note_on_c, 1, 78, 110
1, 495487, Note_on_c, 2, 75, 113
1, 495496, Note_off_c, 2, 71, 64
1, 495496, Note_off_c, 2, 76, 64
1, 495576, Note_on_c, 2, 76, 113
1, 495576, Note_on_c, 1, 79, 110
1, 495585, Note_off_c, 2, 75, 64
1, 495586, Note_off_c, 1, 78, 64
1, 495619, Note_off_c, 4, 55, 64
1, 495619, Note_off_c, 4, 43, 64
1, 495662, Note_on_c, 1, 85, 105
1, 495662, Note_on_c, 2, 73, 112
1, 495672, Note_off_c, 1, 79, 64
1, 495672, Note_off_c, 2, 76, 64
1, 495756, Note_on_c, 2, 67, 127
1, 495756, Note_on_c, 2, 71, 116
1, 495836, Note_off_c, 2, 73, 64
1, 495836, Note_off_c, 1, 85, 64
1, 495845, Note_on_c, 1, 85, 105
1, 495846, Note_on_c, 2, 73, 112
1, 495846, Note_on_c, 2, 69, 118
1, 495847, Note_on_c, 4, 66, 127
1, 495855, Note_off_c, 2, 71, 64
1, 495855, Note_off_c, 2, 67, 64
1, 495925, Note_off_c, 2, 73, 64
1, 495925, Note_off_c, 1, 85, 64
1, 495932, Note_on_c, 1, 85, 105
1, 495932, Note_on_c, 2, 73, 112
1, 495933, Note_on_c, 4, 64, 126
1, 495933, Note_on_c, 2, 67, 127
1, 495941, Note_off_c, 4, 66, 64
1, 495942, Note_off_c, 2, 69, 64
1, 496009, Note_off_c, 2, 73, 64
1, 496010, Note_off_c, 1, 85, 64
1, 496016, Note_on_c, 1, 86, 105
1, 496017, Note_on_c, 2, 74, 113
1, 496100, Note_on_c, 4, 66, 127
1, 496100, Note_on_c, 4, 62, 127
1, 496103, Note_off_c, 2, 67, 64
1, 496103, Note_off_c, 4, 64, 64
1, 496186, Note_on_c, 1, 83, 105
1, 496187, Note_on_c, 2, 71, 116
1, 496189, Note_off_c, 1, 86, 64
1, 496189, Note_off_c, 2, 74, 64
1, 496272, Note_on_c, 4, 64, 126
1, 496273, Note_on_c, 4, 55, 127
1, 496275, Note_off_c, 4, 62, 64
1, 496276, Note_off_c, 4, 66, 64
1, 496359, Note_on_c, 1, 81, 105
1, 496359, Note_on_c, 2, 69, 118
1, 496362, Note_off_c, 1, 83, 64
1, 496362, Note_off_c, 2, 71, 64
1, 496449, Note_on_c, 4, 66, 127
1, 496450, Note_on_c, 4, 57, 127
1, 496452, Note_off_c, 4, 64, 64
1, 496452, Note_off_c, 4, 55, 64
1, 496536, Note_on_c, 2, 73, 112
1, 496536, Note_on_c, 1, 85, 105
1, 496539, Note_off_c, 2, 69, 64
1, 496540, Note_off_c, 1, 81, 64
1, 496621, Note_off_c, 4, 57, 64
1, 496629, Note_on_c, 4, 64, 126
1, 496629, Note_on_c, 4, 57, 127
1, 496632, Note_off_c, 4, 66, 64
1, 496718, Note_on_c, 2, 74, 113
1, 496718, Note_on_c, 1, 86, 105
1, 496721, Note_off_c, 1, 85, 64
1, 496721, Note_off_c, 2, 73, 64
1, 496797, Note_off_c, 4, 57, 64
1, 496804, Note_on_c, 4, 62, 127
1, 496808, Note_off_c, 4, 64, 64
1, 496895, Note_on_c, 4, 50, 127
1, 496986, Note_off_c, 4, 62, 64
1, 496998, Note_off_c, 1, 86, 64
1, 496998, Note_off_c, 2, 74, 64
1, 497274, Note_off_c, 4, 50, 64
1, 497445, Note_on_c, 2, 69, 119
1, 497591, Note_off_c, 2, 69, 64
1, 497597, Note_on_c, 2, 69, 119
1, 497674, Note_on_c, 2, 67, 127
1, 497683, Note_off_c, 2, 69, 64
1, 497750, Note_on_c, 4, 50, 127
1, 497750, Note_on_c, 4, 66, 127
1, 497759, Note_off_c, 2, 67, 64
1, 497826, Note_on_c, 4, 64, 127
1, 497833, Note_off_c, 4, 66, 64
1, 497901, Note_on_c, 4, 62, 127
1, 497908, Note_off_c, 4, 64, 64
1, 497972, Note_on_c, 4, 49, 127
1, 497974, Note_off_c, 4, 50, 64
1, 498045, Note_on_c, 4, 47, 127
1, 498047, Note_off_c, 4, 49, 64
1, 498116, Note_on_c, 4, 64, 127
1, 498118, Note_off_c, 4, 62, 64
1, 498187, Note_on_c, 4, 66, 127
1, 498191, Note_off_c, 4, 64, 64
1, 498258, Note_off_c, 4, 47, 64
1, 498259, Note_on_c, 4, 45, 127
1, 498330, Note_on_c, 4, 43, 127
1, 498334, Note_off_c, 4, 45, 64
1, 498403, Note_on_c, 4, 59, 127
1, 498438, Note_off_c, 4, 66, 64
1, 498474, Note_on_c, 2, 67, 127
1, 498478, Note_off_c, 4, 59, 64
1, 498545, Note_on_c, 4, 40, 127
1, 498582, Note_off_c, 4, 43, 64
1, 498618, Note_on_c, 4, 45, 127
1, 498624, Note_off_c, 4, 40, 64
1, 498689, Note_on_c, 4, 61, 127
1, 498726, Note_off_c, 2, 67, 64
1, 498760, Note_on_c, 4, 64, 127
1, 498762, Note_off_c, 4, 61, 64
1, 498814, Note_off_c, 4, 45, 64
1, 498833, Note_on_c, 4, 43, 127
1, 498904, Note_on_c, 4, 42, 127
1, 498908, Note_off_c, 4, 43, 64
1, 498979, Note_on_c, 4, 57, 127
1, 499014, Note_off_c, 4, 64, 64
1, 499050, Note_on_c, 2, 69, 119
1, 499052, Note_off_c, 4, 57, 64
1, 499123, Note_on_c, 4, 38, 127
1, 499158, Note_off_c, 4, 42, 64
1, 499194, Note_off_c, 4, 38, 64
1, 499195, Note_on_c, 4, 47, 127
1, 499266, Note_on_c, 4, 62, 127
1, 499303, Note_off_c, 2, 69, 64
1, 499337, Note_off_c, 4, 62, 64
1, 499338, Note_on_c, 2, 67, 127
1, 499413, Note_on_c, 4, 43, 127
1, 499450, Note_off_c, 4, 47, 64
1, 499488, Note_off_c, 4, 43, 64
1, 499488, Note_on_c, 4, 57, 127
1, 499489, Note_on_c, 4, 45, 127
1, 499547, Note_off_c, 2, 67, 64
1, 499566, Note_on_c, 4, 66, 127
1, 499633, Note_off_c, 4, 45, 64
1, 499633, Note_off_c, 4, 57, 64
1, 499640, Note_on_c, 4, 57, 127
1, 499640, Note_on_c, 4, 64, 127
1, 499641, Note_on_c, 4, 45, 127
1, 499646, Note_off_c, 4, 66, 64
1, 499716, Note_on_c, 4, 55, 127
1, 499716, Note_on_c, 4, 43, 127
1, 499724, Note_off_c, 4, 45, 64
1, 499725, Note_off_c, 4, 57, 64
1, 499783, Note_off_c, 4, 64, 64
1, 499788, Note_on_c, 1, 81, 117
1, 499789, Note_on_c, 4, 54, 127
1, 499789, Note_on_c, 4, 42, 127
1, 499794, Note_on_c, 2, 69, 119
1, 499796, Note_off_c, 4, 43, 64
1, 499796, Note_off_c, 4, 55, 64
1, 499860, Note_on_c, 4, 52, 127
1, 499861, Note_on_c, 4, 40, 127
1, 499869, Note_off_c, 4, 42, 64
1, 499870, Note_off_c, 4, 54, 64
1, 499922, Note_off_c, 1, 81, 64
1, 499928, Note_off_c, 2, 69, 64
1, 499933, Note_on_c, 1, 81, 117
1, 499934, Note_on_c, 4, 50, 127
1, 499934, Note_on_c, 4, 38, 127
1, 499939, Note_on_c, 2, 69, 119
1, 499942, Note_off_c, 4, 40, 64
1, 499943, Note_off_c, 4, 52, 64
1, 500007, Note_off_c, 1, 81, 64
1, 500007, Note_on_c, 1, 79, 117
1, 500014, Note_off_c, 2, 69, 64
1, 500015, Note_on_c, 2, 67, 127
1, 500083, Note_off_c, 1, 79, 64
1, 500083, Note_on_c, 1, 78, 117
1, 500088, Note_off_c, 2, 67, 64
1, 500088, Note_on_c, 4, 66, 127
1, 500138, Note_off_c, 4, 38, 64
1, 500139, Note_off_c, 4, 50, 64
1, 500158, Note_off_c, 1, 78, 64
1, 500159, Note_on_c, 4, 49, 127
1, 500159, Note_on_c, 2, 76, 117
1, 500160, Note_on_c, 4, 37, 127
1, 500164, Note_off_c, 4, 66, 64
1, 500165, Note_on_c, 4, 64, 127
1, 500236, Note_off_c, 2, 76, 64
1, 500237, Note_on_c, 2, 74, 117
1, 500237, Note_on_c, 4, 47, 127
1, 500238, Note_on_c, 4, 35, 127
1, 500242, Note_off_c, 4, 64, 64
1, 500243, Note_on_c, 4, 62, 127
1, 500244, Note_off_c, 4, 37, 64
1, 500245, Note_off_c, 4, 49, 64
1, 500313, Note_on_c, 4, 33, 127
1, 500317, Note_on_c, 4, 45, 127
1, 500320, Note_off_c, 4, 35, 64
1, 500321, Note_off_c, 4, 47, 64
1, 500385, Note_on_c, 4, 32, 127
1, 500389, Note_on_c, 4, 44, 127
1, 500393, Note_off_c, 4, 33, 64
1, 500398, Note_off_c, 4, 45, 64
1, 500439, Note_off_c, 2, 74, 64
1, 500445, Note_off_c, 4, 62, 64
1, 500456, Note_on_c, 2, 73, 117
1, 500457, Note_on_c, 4, 33, 127
1, 500461, Note_on_c, 4, 61, 127
1, 500461, Note_on_c, 4, 45, 127
1, 500464, Note_off_c, 4, 32, 64
1, 500470, Note_off_c, 4, 44, 64
1, 500527, Note_on_c, 2, 71, 117
1, 500533, Note_on_c, 4, 47, 127
1, 500533, Note_on_c, 4, 59, 127
1, 500534, Note_on_c, 4, 35, 127
1, 500536, Note_off_c, 4, 33, 64
1, 500536, Note_off_c, 2, 73, 64
1, 500541, Note_off_c, 4, 45, 64
1, 500541, Note_off_c, 4, 61, 64
1, 500599, Note_on_c, 2, 69, 119
1, 500605, Note_on_c, 4, 57, 127
1, 500607, Note_off_c, 2, 71, 64
1, 500613, Note_off_c, 4, 59, 64
1, 500674, Note_on_c, 2, 68, 121
1, 500680, Note_on_c, 4, 56, 127
1, 500682, Note_off_c, 2, 69, 64
1, 500688, Note_off_c, 4, 57, 64
1, 500747, Note_on_c, 2, 69, 119
1, 500753, Note_off_c, 4, 47, 64
1, 500753, Note_off_c, 4, 35, 64
1, 500754, Note_on_c, 4, 57, 127
1, 500754, Note_on_c, 4, 49, 127
1, 500755, Note_off_c, 2, 68, 64
1, 500755, Note_on_c, 4, 37, 127
1, 500761, Note_off_c, 4, 56, 64
1, 500821, Note_on_c, 2, 71, 117
1, 500825, Note_on_c, 4, 50, 127
1, 500825, Note_on_c, 4, 59, 127
1, 500826, Note_on_c, 4, 38, 127
1, 500828, Note_off_c, 2, 69, 64
1, 500834, Note_off_c, 4, 37, 64
1, 500835, Note_off_c, 4, 49, 64
1, 500835, Note_off_c, 4, 57, 64
1, 500899, Note_on_c, 4, 51, 127
1, 500899, Note_on_c, 4, 39, 127
1, 500905, Note_off_c, 4, 38, 64
1, 500906, Note_off_c, 4, 50, 64
1, 500972, Note_on_c, 4, 40, 127
1, 500972, Note_on_c, 4, 52, 127
1, 500978, Note_off_c, 4, 39, 64
1, 500979, Note_off_c, 4, 51, 64
1, 501020, Note_off_c, 2, 71, 64
1, 501025, Note_off_c, 4, 59, 64
1, 501039, Note_on_c, 2, 73, 117
1, 501045, Note_on_c, 4, 61, 127
1, 501112, Note_on_c, 2, 74, 117
1, 501118, Note_on_c, 4, 62, 127
1, 501120, Note_off_c, 2, 73, 64
1, 501125, Note_off_c, 4, 61, 64
1, 501183, Note_on_c, 2, 75, 117
1, 501189, Note_on_c, 4, 63, 127
1, 501191, Note_off_c, 2, 74, 64
1, 501196, Note_off_c, 4, 62, 64
1, 501258, Note_on_c, 4, 49, 127
1, 501262, Note_off_c, 4, 52, 64
1, 501262, Note_off_c, 4, 40, 64
1, 501329, Note_off_c, 2, 75, 64
1, 501335, Note_off_c, 4, 63, 64
1, 501335, Note_on_c, 2, 76, 117
1, 501336, Note_on_c, 2, 73, 117
1, 501410, Note_on_c, 4, 54, 127
1, 501480, Note_off_c, 2, 76, 64
1, 501480, Note_off_c, 2, 73, 64
1, 501486, Note_on_c, 2, 73, 117
1, 501487, Note_on_c, 2, 70, 119
1, 501563, Note_off_c, 4, 49, 64
1, 501563, Note_on_c, 4, 47, 127
1, 501632, Note_off_c, 2, 70, 64
1, 501633, Note_off_c, 2, 73, 64
1, 501637, Note_on_c, 2, 74, 117
1, 501637, Note_on_c, 2, 71, 117
1, 501715, Note_off_c, 4, 54, 64
1, 501715, Note_on_c, 4, 52, 127
1, 501785, Note_off_c, 2, 71, 64
1, 501785, Note_off_c, 2, 74, 64
1, 501792, Note_on_c, 2, 68, 121
1, 501792, Note_on_c, 2, 71, 117
1, 501869, Note_off_c, 4, 47, 64
1, 501870, Note_on_c, 4, 45, 127
1, 501944, Note_on_c, 2, 69, 119
1, 501951, Note_off_c, 2, 71, 64
1, 501955, Note_off_c, 2, 68, 64
1, 502018, Note_off_c, 4, 52, 64
1, 502019, Note_on_c, 4, 57, 127
1, 502150, Note_off_c, 2, 69, 64
1, 502169, Note_on_c, 2, 69, 119
1, 502307, Note_off_c, 2, 69, 64
1, 502319, Note_on_c, 2, 69, 119
1, 502394, Note_on_c, 2, 67, 127
1, 502401, Note_off_c, 2, 69, 64
1, 502468, Note_off_c, 4, 57, 64
1, 502469, Note_on_c, 4, 66, 127
1, 502470, Note_on_c, 4, 50, 127
1, 502477, Note_off_c, 2, 67, 64
1, 502481, Note_off_c, 4, 45, 64
1, 502547, Note_on_c, 4, 64, 127
1, 502554, Note_off_c, 4, 66, 64
1, 502621, Note_on_c, 4, 62, 127
1, 502629, Note_off_c, 4, 64, 64
1, 502692, Note_on_c, 4, 49, 127
1, 502700, Note_off_c, 4, 50, 64
1, 502764, Note_on_c, 4, 47, 127
1, 502772, Note_off_c, 4, 49, 64
1, 502836, Note_on_c, 4, 64, 127
1, 502841, Note_off_c, 4, 62, 64
1, 502907, Note_off_c, 4, 64, 64
1, 502907, Note_on_c, 4, 66, 127
1, 502972, Note_off_c, 4, 47, 64
1, 502978, Note_on_c, 4, 45, 127
1, 503051, Note_on_c, 4, 43, 127
1, 503052, Note_off_c, 4, 45, 64
1, 503102, Note_off_c, 4, 66, 64
1, 503120, Note_on_c, 4, 59, 127
1, 503189, Note_on_c, 2, 67, 127
1, 503243, Note_off_c, 4, 43, 64
1, 503256, Note_off_c, 4, 59, 64
1, 503262, Note_on_c, 4, 40, 127
1, 503333, Note_on_c, 4, 45, 127
1, 503337, Note_off_c, 4, 40, 64
1, 503387, Note_off_c, 2, 67, 64
1, 503404, Note_on_c, 4, 61, 127
1, 503475, Note_on_c, 4, 64, 127
1, 503479, Note_off_c, 4, 61, 64
1, 503529, Note_off_c, 4, 45, 64
1, 503546, Note_on_c, 4, 43, 127
1, 503619, Note_off_c, 4, 43, 64
1, 503619, Note_on_c, 4, 42, 127
1, 503672, Note_off_c, 4, 64, 64
1, 503689, Note_on_c, 4, 57, 127
1, 503762, Note_on_c, 2, 69, 119
1, 503816, Note_off_c, 4, 42, 64
1, 503827, Note_off_c, 4, 57, 64
1, 503833, Note_on_c, 4, 40, 127
1, 503906, Note_off_c, 4, 40, 64
1, 503906, Note_on_c, 4, 47, 127
1, 503959, Note_off_c, 2, 69, 64
1, 503978, Note_on_c, 4, 62, 127
1, 504047, Note_off_c, 4, 62, 64
1, 504049, Note_on_c, 2, 67, 127
1, 504103, Note_off_c, 4, 47, 64
1, 504122, Note_on_c, 4, 43, 127
1, 504193, Note_off_c, 4, 43, 64
1, 504193, Note_on_c, 4, 57, 127
1, 504194, Note_on_c, 4, 45, 127
1, 504248, Note_off_c, 2, 67, 64
1, 504267, Note_on_c, 4, 66, 127
1, 504334, Note_off_c, 4, 45, 64
1, 504335, Note_off_c, 4, 57, 64
1, 504339, Note_off_c, 4, 66, 64
1, 504340, Note_on_c, 4, 64, 127
1, 504340, Note_on_c, 4, 57, 127
1, 504340, Note_on_c, 4, 45, 127
1, 504412, Note_on_c, 4, 43, 127
1, 504412, Note_on_c, 4, 55, 127
1, 504420, Note_off_c, 4, 45, 64
1, 504421, Note_off_c, 4, 57, 64
1, 504479, Note_off_c, 4, 64, 64
1, 504485, Note_on_c, 1, 81, 117
1, 504485, Note_on_c, 2, 69, 119
1, 504486, Note_on_c, 4, 54, 127
1, 504486, Note_on_c, 4, 42, 127
1, 504492, Note_off_c, 4, 43, 64
1, 504493, Note_off_c, 4, 55, 64
1, 504565, Note_on_c, 4, 52, 127
1, 504565, Note_on_c, 4, 40, 127
1, 504567, Note_off_c, 4, 42, 64
1, 504568, Note_off_c, 4, 54, 64
1, 504622, Note_off_c, 2, 69, 64
1, 504623, Note_off_c, 1, 81, 64
1, 504635, Note_on_c, 1, 81, 117
1, 504638, Note_on_c, 2, 69, 119
1, 504640, Note_on_c, 4, 50, 127
1, 504641, Note_on_c, 4, 38, 127
1, 504647, Note_off_c, 4, 40, 64
1, 504648, Note_off_c, 4, 52, 64
1, 504709, Note_on_c, 1, 79, 117
1, 504715, Note_on_c, 2, 67, 127
1, 504716, Note_off_c, 1, 81, 64
1, 504722, Note_off_c, 2, 69, 64
1, 504782, Note_on_c, 1, 78, 117
1, 504789, Note_on_c, 4, 66, 127
1, 504790, Note_off_c, 1, 79, 64
1, 504796, Note_off_c, 2, 67, 64
1, 504860, Note_on_c, 2, 76, 117
1, 504865, Note_off_c, 4, 38, 64
1, 504866, Note_off_c, 4, 50, 64
1, 504866, Note_on_c, 4, 64, 127
1, 504867, Note_off_c, 1, 78, 64
1, 504867, Note_on_c, 4, 49, 127
1, 504867, Note_on_c, 4, 37, 127
1, 504874, Note_off_c, 4, 66, 64
1, 504934, Note_on_c, 2, 74, 117
1, 504939, Note_on_c, 4, 62, 127
1, 504940, Note_on_c, 4, 35, 127
1, 504940, Note_on_c, 4, 47, 127
1, 504942, Note_off_c, 2, 76, 64
1, 504948, Note_off_c, 4, 37, 64
1, 504948, Note_off_c, 4, 49, 64
1, 504948, Note_off_c, 4, 64, 64
1, 505012, Note_on_c, 4, 45, 127
1, 505013, Note_on_c, 4, 33, 127
1, 505021, Note_off_c, 4, 47, 64
1, 505021, Note_off_c, 4, 35, 64
1, 505087, Note_on_c, 4, 44, 127
1, 505088, Note_on_c, 4, 32, 127
1, 505095, Note_off_c, 4, 33, 64
1, 505096, Note_off_c, 4, 45, 64
1, 505137, Note_off_c, 2, 74, 64
1, 505142, Note_off_c, 4, 62, 64
1, 505154, Note_on_c, 2, 73, 117
1, 505160, Note_on_c, 4, 61, 127
1, 505161, Note_on_c, 4, 33, 127
1, 505161, Note_on_c, 4, 45, 127
1, 505169, Note_off_c, 4, 32, 64
1, 505169, Note_off_c, 4, 44, 64
1, 505227, Note_on_c, 2, 71, 117
1, 505233, Note_on_c, 4, 59, 127
1, 505234, Note_on_c, 4, 35, 127
1, 505234, Note_on_c, 4, 47, 127
1, 505237, Note_off_c, 2, 73, 64
1, 505243, Note_off_c, 4, 61, 64
1, 505243, Note_off_c, 4, 45, 64
1, 505243, Note_off_c, 4, 33, 64
1, 505303, Note_on_c, 2, 69, 119
1, 505311, Note_on_c, 4, 57, 127
1, 505313, Note_off_c, 2, 71, 64
1, 505319, Note_off_c, 4, 59, 64
1, 505382, Note_on_c, 2, 68, 121
1, 505388, Note_on_c, 4, 56, 127
1, 505392, Note_off_c, 2, 69, 64
1, 505397, Note_off_c, 4, 57, 64
1, 505457, Note_on_c, 2, 69, 119
1, 505463, Note_off_c, 4, 47, 64
1, 505463, Note_off_c, 4, 35, 64
1, 505464, Note_on_c, 4, 57, 127
1, 505464, Note_on_c, 4, 49, 127
1, 505464, Note_on_c, 4, 37, 127
1, 505465, Note_off_c, 2, 68, 64
1, 505471, Note_off_c, 4, 56, 64
1, 505531, Note_on_c, 2, 71, 117
1, 505536, Note_on_c, 4, 59, 127
1, 505537, Note_on_c, 4, 50, 127
1, 505537, Note_on_c, 4, 38, 127
1, 505538, Note_off_c, 2, 69, 64
1, 505544, Note_off_c, 4, 37, 64
1, 505545, Note_off_c, 4, 49, 64
1, 505545, Note_off_c, 4, 57, 64
1, 505608, Note_on_c, 4, 51, 127
1, 505609, Note_on_c, 4, 39, 127
1, 505617, Note_off_c, 4, 38, 64
1, 505618, Note_off_c, 4, 50, 64
1, 505683, Note_on_c, 4, 52, 127
1, 505684, Note_on_c, 4, 40, 127
1, 505690, Note_off_c, 4, 39, 64
1, 505691, Note_off_c, 4, 51, 64
1, 505731, Note_off_c, 2, 71, 64
1, 505737, Note_off_c, 4, 59, 64
1, 505751, Note_on_c, 2, 73, 117
1, 505756, Note_on_c, 4, 61, 127
1, 505824, Note_on_c, 2, 74, 117
1, 505829, Note_on_c, 4, 62, 127
1, 505831, Note_off_c, 2, 73, 64
1, 505837, Note_off_c, 4, 61, 64
1, 505896, Note_on_c, 2, 75, 117
1, 505902, Note_on_c, 4, 63, 127
1, 505904, Note_off_c, 2, 74, 64
1, 505910, Note_off_c, 4, 62, 64
1, 505975, Note_off_c, 4, 40, 64
1, 505976, Note_off_c, 4, 52, 64
1, 505976, Note_on_c, 4, 49, 127
1, 506039, Note_off_c, 2, 75, 64
1, 506042, Note_off_c, 4, 63, 64
1, 506043, Note_on_c, 2, 73, 117
1, 506043, Note_on_c, 2, 76, 117
1, 506119, Note_on_c, 4, 54, 127
1, 506188, Note_off_c, 2, 73, 64
1, 506189, Note_off_c, 2, 76, 64
1, 506195, Note_on_c, 2, 73, 117
1, 506196, Note_on_c, 2, 70, 119
1, 506269, Note_on_c, 4, 47, 127
1, 506275, Note_off_c, 4, 49, 64
1, 506337, Note_off_c, 2, 70, 64
1, 506337, Note_off_c, 2, 73, 64
1, 506343, Note_on_c, 2, 71, 117
1, 506343, Note_on_c, 2, 74, 117
1, 506419, Note_off_c, 4, 54, 64
1, 506419, Note_on_c, 4, 52, 127
1, 506489, Note_off_c, 2, 74, 64
1, 506489, Note_off_c, 2, 71, 64
1, 506496, Note_on_c, 2, 71, 117
1, 506496, Note_on_c, 2, 68, 121
1, 506569, Note_off_c, 4, 47, 64
1, 506570, Note_on_c, 4, 45, 127
1, 506640, Note_off_c, 2, 71, 64
1, 506646, Note_on_c, 2, 69, 119
1, 506647, Note_off_c, 2, 68, 64
1, 506721, Note_off_c, 4, 52, 64
1, 506722, Note_on_c, 4, 57, 127
1, 506793, Note_off_c, 2, 69, 64
1, 506880, Note_on_c, 1, 81, 117
1, 507026, Note_off_c, 1, 81, 64
1, 507032, Note_on_c, 1, 81, 117
1, 507108, Note_on_c, 1, 83, 117
1, 507116, Note_off_c, 1, 81, 64
1, 507183, Note_off_c, 4, 57, 64
1, 507184, Note_on_c, 1, 84, 117
1, 507184, Note_on_c, 2, 69, 119
1, 507188, Note_on_c, 4, 63, 127
1, 507192, Note_off_c, 1, 83, 64
1, 507195, Note_off_c, 4, 45, 64
1, 507259, Note_on_c, 1, 83, 117
1, 507267, Note_off_c, 1, 84, 64
1, 507332, Note_on_c, 2, 68, 121
1, 507332, Note_on_c, 1, 88, 119
1, 507335, Note_off_c, 2, 69, 64
1, 507337, Note_on_c, 4, 62, 127
1, 507340, Note_off_c, 1, 83, 64
1, 507341, Note_off_c, 4, 63, 64
1, 507480, Note_on_c, 2, 67, 127
1, 507484, Note_off_c, 2, 68, 64
1, 507486, Note_on_c, 4, 61, 127
1, 507489, Note_off_c, 4, 62, 64
1, 507538, Note_off_c, 1, 88, 64
1, 507557, Note_on_c, 1, 81, 117
1, 507632, Note_off_c, 1, 81, 64
1, 507632, Note_on_c, 1, 86, 117
1, 507632, Note_on_c, 4, 66, 127
1, 507633, Note_off_c, 2, 67, 64
1, 507637, Note_on_c, 4, 60, 127
1, 507639, Note_off_c, 4, 61, 64
1, 507778, Note_on_c, 4, 47, 127
1, 507780, Note_off_c, 4, 66, 64
1, 507783, Note_on_c, 4, 59, 127
1, 507785, Note_off_c, 4, 60, 64
1, 507833, Note_off_c, 1, 86, 64
1, 507851, Note_on_c, 1, 82, 117
1, 507851, Note_on_c, 2, 70, 119
1, 507923, Note_on_c, 2, 71, 117
1, 507923, Note_on_c, 1, 83, 117
1, 507931, Note_off_c, 2, 70, 64
1, 507932, Note_off_c, 1, 82, 64
1, 507996, Note_off_c, 4, 47, 64
1, 507996, Note_on_c, 4, 54, 127
1, 507996, Note_on_c, 4, 42, 127
1, 508000, Note_off_c, 4, 59, 64
1, 508068, Note_on_c, 4, 43, 127
1, 508068, Note_on_c, 4, 55, 127
1, 508076, Note_off_c, 4, 42, 64
1, 508077, Note_off_c, 4, 54, 64
1, 508123, Note_off_c, 2, 71, 64
1, 508124, Note_off_c, 1, 83, 64
1, 508141, Note_on_c, 1, 78, 117
1, 508142, Note_on_c, 4, 66, 127
1, 508213, Note_on_c, 1, 79, 117
1, 508214, Note_on_c, 2, 67, 127
1, 508220, Note_off_c, 4, 66, 64
1, 508221, Note_off_c, 1, 78, 64
1, 508286, Note_on_c, 4, 51, 127
1, 508287, Note_on_c, 4, 39, 127
1, 508288, Note_off_c, 4, 55, 64
1, 508288, Note_off_c, 4, 43, 64
1, 508358, Note_on_c, 4, 52, 127
1, 508359, Note_on_c, 4, 40, 127
1, 508367, Note_off_c, 4, 39, 64
1, 508368, Note_off_c, 4, 51, 64
1, 508416, Note_off_c, 1, 79, 64
1, 508416, Note_off_c, 2, 67, 64
1, 508436, Note_on_c, 4, 57, 127
1, 508501, Note_off_c, 4, 57, 64
1, 508502, Note_off_c, 4, 52, 64
1, 508508, Note_on_c, 2, 67, 127
1, 508509, Note_on_c, 4, 49, 127
1, 508546, Note_off_c, 4, 40, 64
1, 508654, Note_on_c, 4, 50, 127
1, 508658, Note_off_c, 4, 49, 64
1, 508727, Note_off_c, 2, 67, 64
1, 508728, Note_on_c, 4, 66, 127
1, 508801, Note_on_c, 2, 71, 117
1, 508801, Note_on_c, 4, 44, 127
1, 508810, Note_off_c, 4, 66, 64
1, 508856, Note_off_c, 4, 50, 64
1, 508946, Note_on_c, 4, 45, 127
1, 508950, Note_off_c, 4, 44, 64
1, 509021, Note_on_c, 4, 64, 127
1, 509055, Note_off_c, 2, 71, 64
1, 509086, Note_off_c, 4, 64, 64
1, 509094, Note_on_c, 4, 64, 127
1, 509234, Note_off_c, 4, 64, 64
1, 509242, Note_on_c, 4, 57, 127
1, 509242, Note_on_c, 2, 69, 119
1, 509383, Note_off_c, 2, 69, 64
1, 509383, Note_off_c, 4, 57, 64
1, 509396, Note_on_c, 2, 69, 119
1, 509401, Note_on_c, 4, 57, 127
1, 509472, Note_on_c, 2, 71, 117
1, 509478, Note_on_c, 4, 59, 127
1, 509480, Note_off_c, 2, 69, 64
1, 509485, Note_off_c, 4, 57, 64
1, 509540, Note_off_c, 4, 45, 64
1, 509545, Note_on_c, 2, 73, 117
1, 509551, Note_on_c, 4, 61, 127
1, 509552, Note_on_c, 4, 57, 127
1, 509552, Note_on_c, 4, 45, 127
1, 509554, Note_off_c, 2, 71, 64
1, 509559, Note_off_c, 4, 59, 64
1, 509619, Note_on_c, 2, 74, 117
1, 509627, Note_on_c, 4, 62, 127
1, 509628, Note_off_c, 2, 73, 64
1, 509633, Note_off_c, 4, 61, 64
1, 509694, Note_off_c, 4, 45, 64
1, 509695, Note_off_c, 4, 57, 64
1, 509695, Note_on_c, 2, 76, 117
1, 509701, Note_on_c, 4, 57, 127
1, 509701, Note_on_c, 4, 64, 127
1, 509702, Note_off_c, 2, 74, 64
1, 509702, Note_on_c, 4, 45, 127
1, 509709, Note_off_c, 4, 62, 64
1, 509776, Note_on_c, 4, 55, 127
1, 509776, Note_on_c, 4, 43, 127
1, 509783, Note_off_c, 4, 57, 64
1, 509783, Note_off_c, 4, 45, 64
1, 509837, Note_off_c, 2, 76, 64
1, 509843, Note_off_c, 4, 64, 64
1, 509843, Note_on_c, 2, 74, 117
1, 509848, Note_on_c, 4, 62, 127
1, 509848, Note_on_c, 4, 54, 127
1, 509849, Note_on_c, 4, 42, 127
1, 509856, Note_off_c, 4, 43, 64
1, 509857, Note_off_c, 4, 55, 64
1, 509923, Note_on_c, 4, 40, 127
1, 509923, Note_on_c, 4, 52, 127
1, 509929, Note_off_c, 4, 42, 64
1, 509930, Note_off_c, 4, 54, 64
1, 509978, Note_off_c, 2, 74, 64
1, 509982, Note_off_c, 4, 62, 64
1, 509990, Note_on_c, 2, 74, 117
1, 509996, Note_on_c, 4, 50, 127
1, 509996, Note_on_c, 4, 62, 127
1, 509997, Note_on_c, 4, 38, 127
1, 510002, Note_off_c, 4, 40, 64
1, 510003, Note_off_c, 4, 52, 64
1, 510064, Note_on_c, 2, 76, 117
1, 510070, Note_on_c, 4, 64, 127
1, 510073, Note_off_c, 2, 74, 64
1, 510079, Note_off_c, 4, 62, 64
1, 510139, Note_off_c, 4, 50, 64
1, 510139, Note_on_c, 1, 78, 117
1, 510144, Note_on_c, 4, 50, 127
1, 510144, Note_on_c, 4, 62, 127
1, 510144, Note_on_c, 4, 66, 127
1, 510147, Note_off_c, 2, 76, 64
1, 510153, Note_off_c, 4, 64, 64
1, 510211, Note_on_c, 1, 79, 117
1, 510216, Note_on_c, 2, 67, 127
1, 510218, Note_off_c, 1, 78, 64
1, 510224, Note_off_c, 4, 66, 64
1, 510253, Note_off_c, 4, 38, 64
1, 510284, Note_off_c, 4, 62, 64
1, 510284, Note_off_c, 4, 50, 64
1, 510285, Note_on_c, 1, 81, 117
1, 510290, Note_on_c, 2, 69, 119
1, 510291, Note_on_c, 4, 62, 127
1, 510291, Note_on_c, 4, 50, 127
1, 510292, Note_off_c, 1, 79, 64
1, 510298, Note_off_c, 2, 67, 64
1, 510363, Note_on_c, 4, 60, 127
1, 510364, Note_on_c, 4, 48, 127
1, 510372, Note_off_c, 4, 50, 64
1, 510372, Note_off_c, 4, 62, 64
1, 510427, Note_off_c, 1, 81, 64
1, 510431, Note_off_c, 2, 69, 64
1, 510432, Note_on_c, 1, 86, 117
1, 510438, Note_on_c, 2, 74, 117
1, 510439, Note_on_c, 4, 47, 127
1, 510439, Note_on_c, 4, 59, 127
1, 510447, Note_off_c, 4, 48, 64
1, 510447, Note_off_c, 4, 60, 64
1, 510513, Note_on_c, 4, 57, 127
1, 510514, Note_on_c, 4, 45, 127
1, 510522, Note_off_c, 4, 59, 64
1, 510522, Note_off_c, 4, 47, 64
1, 510571, Note_off_c, 1, 86, 64
1, 510576, Note_off_c, 2, 74, 64
1, 510583, Note_on_c, 1, 86, 117
1, 510590, Note_on_c, 4, 55, 127
1, 510590, Note_on_c, 2, 74, 117
1, 510591, Note_on_c, 4, 43, 127
1, 510597, Note_off_c, 4, 45, 64
1, 510597, Note_off_c, 4, 57, 64
1, 510659, Note_on_c, 1, 84, 117
1, 510665, Note_on_c, 2, 72, 117
1, 510667, Note_off_c, 1, 86, 64
1, 510672, Note_off_c, 2, 74, 64
1, 510732, Note_on_c, 1, 83, 117
1, 510738, Note_on_c, 2, 71, 117
1, 510740, Note_off_c, 1, 84, 64
1, 510745, Note_off_c, 2, 72, 64
1, 510793, Note_off_c, 4, 43, 64
1, 510794, Note_off_c, 4, 55, 64
1, 510806, Note_on_c, 1, 81, 117
1, 510812, Note_on_c, 2, 69, 119
1, 510812, Note_on_c, 4, 54, 127
1, 510813, Note_off_c, 1, 83, 64
1, 510813, Note_on_c, 4, 42, 127
1, 510819, Note_off_c, 2, 71, 64
1, 510879, Note_on_c, 1, 79, 117
1, 510885, Note_on_c, 4, 55, 127
1, 510885, Note_on_c, 2, 67, 127
1, 510886, Note_on_c, 4, 43, 127
1, 510888, Note_off_c, 1, 81, 64
1, 510892, Note_off_c, 4, 42, 64
1, 510893, Note_off_c, 4, 54, 64
1, 510893, Note_off_c, 2, 69, 64
1, 510959, Note_on_c, 4, 40, 127
1, 510959, Note_on_c, 4, 52, 127
1, 510967, Note_off_c, 4, 43, 64
1, 510968, Note_off_c, 4, 55, 64
1, 511033, Note_on_c, 4, 57, 127
1, 511034, Note_on_c, 4, 45, 127
1, 511040, Note_off_c, 4, 40, 64
1, 511041, Note_off_c, 4, 52, 64
1, 511084, Note_off_c, 1, 79, 64
1, 511089, Note_off_c, 2, 67, 64
1, 511101, Note_on_c, 1, 78, 117
1, 511106, Note_on_c, 4, 66, 127
1, 511176, Note_on_c, 1, 79, 117
1, 511181, Note_on_c, 2, 67, 127
1, 511183, Note_off_c, 1, 78, 64
1, 511189, Note_off_c, 4, 66, 64
1, 511237, Note_off_c, 4, 57, 64
1, 511237, Note_off_c, 4, 45, 64
1, 511251, Note_on_c, 2, 76, 117
1, 511255, Note_on_c, 4, 64, 127
1, 511256, Note_on_c, 4, 55, 127
1, 511258, Note_off_c, 1, 79, 64
1, 511264, Note_off_c, 2, 67, 64
1, 511332, Note_on_c, 4, 54, 127
1, 511337, Note_off_c, 4, 55, 64
1, 511394, Note_off_c, 2, 76, 64
1, 511399, Note_off_c, 4, 64, 64
1, 511400, Note_on_c, 1, 81, 117
1, 511401, Note_on_c, 1, 78, 117
1, 511482, Note_on_c, 4, 59, 127
1, 511545, Note_off_c, 1, 78, 64
1, 511546, Note_off_c, 1, 81, 64
1, 511552, Note_on_c, 2, 75, 117
1, 511552, Note_on_c, 1, 78, 117
1, 511632, Note_off_c, 4, 54, 64
1, 511632, Note_on_c, 4, 52, 127
1, 511696, Note_off_c, 2, 75, 64
1, 511697, Note_off_c, 1, 78, 64
1, 511703, Note_on_c, 1, 79, 117
1, 511703, Note_on_c, 2, 76, 117
1, 511786, Note_off_c, 4, 59, 64
1, 511787, Note_on_c, 4, 57, 127
1, 511848, Note_off_c, 2, 76, 64
1, 511849, Note_off_c, 1, 79, 64
1, 511855, Note_on_c, 2, 76, 117
1, 511856, Note_on_c, 2, 73, 117
1, 511935, Note_off_c, 4, 52, 64
1, 511936, Note_on_c, 4, 50, 127
1, 512005, Note_on_c, 2, 74, 117
1, 512011, Note_off_c, 2, 76, 64
1, 512013, Note_off_c, 2, 73, 64
1, 512082, Note_on_c, 4, 62, 127
1, 512089, Note_off_c, 4, 57, 64
1, 512153, Note_off_c, 2, 74, 64
1, 512236, Note_on_c, 1, 81, 117
1, 512382, Note_off_c, 1, 81, 64
1, 512388, Note_on_c, 1, 81, 117
1, 512464, Note_off_c, 1, 81, 64
1, 512465, Note_on_c, 1, 83, 117
1, 512534, Note_off_c, 1, 83, 64
1, 512535, Note_off_c, 4, 62, 64
1, 512535, Note_on_c, 1, 84, 117
1, 512536, Note_on_c, 2, 69, 119
1, 512540, Note_on_c, 4, 63, 127
1, 512609, Note_off_c, 1, 84, 64
1, 512610, Note_on_c, 1, 83, 117
1, 512681, Note_off_c, 1, 83, 64
1, 512682, Note_off_c, 2, 69, 64
1, 512682, Note_on_c, 1, 88, 119
1, 512683, Note_on_c, 2, 68, 121
1, 512687, Note_off_c, 4, 63, 64
1, 512688, Note_on_c, 4, 62, 127
1, 512828, Note_off_c, 2, 68, 64
1, 512829, Note_on_c, 2, 67, 127
1, 512835, Note_off_c, 4, 62, 64
1, 512835, Note_on_c, 4, 61, 127
1, 512886, Note_off_c, 1, 88, 64
1, 512904, Note_on_c, 1, 81, 117
1, 512973, Note_off_c, 1, 81, 64
1, 512977, Note_off_c, 2, 67, 64
1, 512977, Note_on_c, 1, 86, 117
1, 512978, Note_on_c, 4, 66, 127
1, 512984, Note_off_c, 4, 61, 64
1, 512984, Note_on_c, 4, 60, 127
1, 513060, Note_off_c, 4, 50, 64
1, 513129, Note_off_c, 4, 66, 64
1, 513129, Note_on_c, 4, 47, 127
1, 513133, Note_off_c, 4, 60, 64
1, 513134, Note_on_c, 4, 59, 127
1, 513185, Note_off_c, 1, 86, 64
1, 513203, Note_on_c, 1, 82, 117
1, 513203, Note_on_c, 2, 70, 119
1, 513275, Note_on_c, 2, 71, 117
1, 513275, Note_on_c, 1, 83, 117
1, 513283, Note_off_c, 2, 70, 64
1, 513284, Note_off_c, 1, 82, 64
1, 513346, Note_off_c, 4, 47, 64
1, 513351, Note_on_c, 4, 54, 127
1, 513352, Note_off_c, 4, 59, 64
1, 513352, Note_on_c, 4, 42, 127
1, 513425, Note_on_c, 4, 55, 127
1, 513426, Note_on_c, 4, 43, 127
1, 513432, Note_off_c, 4, 54, 64
1, 513432, Note_off_c, 4, 42, 64
1, 513480, Note_off_c, 1, 83, 64
1, 513480, Note_off_c, 2, 71, 64
1, 513499, Note_on_c, 1, 78, 117
1, 513500, Note_on_c, 4, 66, 127
1, 513571, Note_on_c, 1, 79, 117
1, 513572, Note_on_c, 2, 67, 127
1, 513580, Note_off_c, 4, 66, 64
1, 513580, Note_off_c, 1, 78, 64
1, 513640, Note_off_c, 4, 43, 64
1, 513645, Note_off_c, 4, 55, 64
1, 513645, Note_on_c, 4, 51, 127
1, 513646, Note_on_c, 4, 39, 127
1, 513720, Note_on_c, 4, 40, 127
1, 513720, Note_on_c, 4, 52, 127
1, 513727, Note_off_c, 4, 39, 64
1, 513727, Note_off_c, 4, 51, 64
1, 513793, Note_on_c, 4, 57, 127
1, 513860, Note_off_c, 4, 40, 64
1, 513861, Note_off_c, 4, 52, 64
1, 513861, Note_off_c, 2, 67, 64
1, 513862, Note_off_c, 1, 79, 64
1, 513866, Note_off_c, 4, 57, 64
1, 513866, Note_on_c, 2, 67, 127
1, 513867, Note_on_c, 4, 49, 127
1, 513867, Note_on_c, 4, 37, 127
1, 514016, Note_on_c, 4, 50, 127
1, 514020, Note_off_c, 4, 37, 64
1, 514020, Note_off_c, 4, 49, 64
1, 514092, Note_on_c, 4, 66, 127
1, 514093, Note_off_c, 2, 67, 64
1, 514161, Note_off_c, 4, 66, 64
1, 514166, Note_on_c, 2, 71, 117
1, 514167, Note_off_c, 4, 50, 64
1, 514167, Note_on_c, 4, 44, 127
1, 514314, Note_on_c, 4, 45, 127
1, 514317, Note_off_c, 4, 44, 64
1, 514370, Note_off_c, 2, 71, 64
1, 514388, Note_on_c, 4, 64, 127
1, 514456, Note_off_c, 4, 64, 64
1, 514462, Note_on_c, 4, 64, 127
1, 514605, Note_off_c, 4, 64, 64
1, 514610, Note_on_c, 2, 69, 119
1, 514611, Note_on_c, 4, 57, 127
1, 514746, Note_off_c, 4, 57, 64
1, 514746, Note_off_c, 2, 69, 64
1, 514760, Note_on_c, 2, 69, 119
1, 514761, Note_on_c, 4, 57, 127
1, 514833, Note_off_c, 2, 69, 64
1, 514834, Note_on_c, 2, 71, 117
1, 514840, Note_on_c, 4, 59, 127
1, 514842, Note_off_c, 4, 57, 64
1, 514900, Note_off_c, 4, 45, 64
1, 514906, Note_on_c, 2, 73, 117
1, 514907, Note_on_c, 4, 57, 127
1, 514908, Note_off_c, 2, 71, 64
1, 514909, Note_on_c, 4, 45, 127
1, 514913, Note_off_c, 4, 59, 64
1, 514913, Note_on_c, 4, 61, 127
1, 514979, Note_off_c, 2, 73, 64
1, 514984, Note_on_c, 2, 74, 117
1, 514985, Note_off_c, 4, 61, 64
1, 514990, Note_on_c, 4, 62, 127
1, 515048, Note_off_c, 4, 57, 64
1, 515049, Note_off_c, 4, 45, 64
1, 515056, Note_off_c, 2, 74, 64
1, 515056, Note_on_c, 2, 76, 117
1, 515056, Note_on_c, 4, 57, 127
1, 515057, Note_on_c, 4, 45, 127
1, 515061, Note_on_c, 4, 64, 127
1, 515062, Note_off_c, 4, 62, 64
1, 515135, Note_on_c, 4, 55, 127
1, 515135, Note_on_c, 4, 43, 127
1, 515139, Note_off_c, 4, 45, 64
1, 515140, Note_off_c, 4, 57, 64
1, 515200, Note_off_c, 2, 76, 64
1, 515204, Note_off_c, 4, 64, 64
1, 515204, Note_on_c, 2, 74, 117
1, 515208, Note_on_c, 4, 42, 127
1, 515208, Note_on_c, 4, 54, 127
1, 515208, Note_on_c, 4, 62, 127
1, 515217, Note_off_c, 4, 43, 64
1, 515218, Note_off_c, 4, 55, 64
1, 515283, Note_on_c, 4, 52, 127
1, 515284, Note_on_c, 4, 40, 127
1, 515292, Note_off_c, 4, 54, 64
1, 515292, Note_off_c, 4, 42, 64
1, 515341, Note_off_c, 2, 74, 64
1, 515347, Note_off_c, 4, 62, 64
1, 515352, Note_on_c, 2, 74, 117
1, 515358, Note_on_c, 4, 62, 127
1, 515359, Note_on_c, 4, 50, 127
1, 515359, Note_on_c, 4, 38, 127
1, 515367, Note_off_c, 4, 40, 64
1, 515367, Note_off_c, 4, 52, 64
1, 515429, Note_on_c, 2, 76, 117
1, 515436, Note_on_c, 4, 64, 127
1, 515438, Note_off_c, 2, 74, 64
1, 515444, Note_off_c, 4, 62, 64
1, 515503, Note_off_c, 4, 38, 64
1, 515504, Note_off_c, 4, 50, 64
1, 515504, Note_on_c, 1, 78, 117
1, 515508, Note_on_c, 4, 66, 127
1, 515509, Note_on_c, 4, 50, 127
1, 515509, Note_on_c, 4, 62, 127
1, 515512, Note_off_c, 2, 76, 64
1, 515518, Note_off_c, 4, 64, 64
1, 515579, Note_on_c, 1, 79, 117
1, 515585, Note_on_c, 2, 67, 127
1, 515587, Note_off_c, 1, 78, 64
1, 515592, Note_off_c, 4, 66, 64
1, 515650, Note_off_c, 4, 50, 64
1, 515651, Note_off_c, 4, 62, 64
1, 515651, Note_on_c, 1, 81, 117
1, 515655, Note_on_c, 2, 69, 119
1, 515655, Note_on_c, 4, 62, 127
1, 515656, Note_on_c, 4, 50, 127
1, 515658, Note_off_c, 1, 79, 64
1, 515664, Note_off_c, 2, 67, 64
1, 515729, Note_on_c, 4, 48, 127
1, 515729, Note_on_c, 4, 60, 127
1, 515732, Note_off_c, 1, 81, 64
1, 515736, Note_off_c, 4, 50, 64
1, 515736, Note_off_c, 4, 62, 64
1, 515796, Note_off_c, 2, 69, 64
1, 515796, Note_on_c, 1, 86, 117
1, 515797, Note_on_c, 2, 74, 117
1, 515801, Note_on_c, 4, 59, 127
1, 515801, Note_on_c, 4, 47, 127
1, 515809, Note_off_c, 4, 48, 64
1, 515810, Note_off_c, 4, 60, 64
1, 515876, Note_on_c, 4, 57, 127
1, 515876, Note_on_c, 4, 45, 127
1, 515884, Note_off_c, 4, 47, 64
1, 515885, Note_off_c, 4, 59, 64
1, 515931, Note_off_c, 2, 74, 64
1, 515932, Note_off_c, 1, 86, 64
1, 515944, Note_on_c, 1, 86, 117
1, 515950, Note_on_c, 4, 55, 127
1, 515950, Note_on_c, 2, 74, 117
1, 515951, Note_on_c, 4, 43, 127
1, 515958, Note_off_c, 4, 45, 64
1, 515959, Note_off_c, 4, 57, 64
1, 516019, Note_on_c, 1, 84, 117
1, 516024, Note_on_c, 2, 72, 117
1, 516026, Note_off_c, 1, 86, 64
1, 516032, Note_off_c, 2, 74, 64
1, 516094, Note_on_c, 1, 83, 117
1, 516100, Note_on_c, 2, 71, 117
1, 516103, Note_off_c, 1, 84, 64
1, 516107, Note_off_c, 2, 72, 64
1, 516156, Note_off_c, 4, 55, 64
1, 516156, Note_off_c, 4, 43, 64
1, 516168, Note_on_c, 1, 81, 117
1, 516174, Note_on_c, 4, 54, 127
1, 516174, Note_on_c, 2, 69, 119
1, 516175, Note_off_c, 1, 83, 64
1, 516175, Note_on_c, 4, 42, 127
1, 516181, Note_off_c, 2, 71, 64
1, 516240, Note_on_c, 1, 79, 117
1, 516246, Note_on_c, 2, 67, 127
1, 516247, Note_on_c, 4, 55, 127
1, 516247, Note_on_c, 4, 43, 127
1, 516248, Note_off_c, 1, 81, 64
1, 516254, Note_off_c, 4, 42, 64
1, 516254, Note_off_c, 4, 54, 64
1, 516255, Note_off_c, 2, 69, 64
1, 516320, Note_on_c, 4, 52, 127
1, 516321, Note_on_c, 4, 40, 127
1, 516327, Note_off_c, 4, 43, 64
1, 516327, Note_off_c, 4, 55, 64
1, 516394, Note_on_c, 4, 45, 127
1, 516394, Note_on_c, 4, 57, 127
1, 516402, Note_off_c, 4, 40, 64
1, 516402, Note_off_c, 4, 52, 64
1, 516444, Note_off_c, 1, 79, 64
1, 516449, Note_off_c, 2, 67, 64
1, 516462, Note_on_c, 1, 78, 117
1, 516468, Note_on_c, 4, 66, 127
1, 516536, Note_on_c, 1, 79, 117
1, 516541, Note_on_c, 2, 67, 127
1, 516543, Note_off_c, 1, 78, 64
1, 516549, Note_off_c, 4, 66, 64
1, 516597, Note_off_c, 4, 57, 64
1, 516597, Note_off_c, 4, 45, 64
1, 516610, Note_on_c, 2, 76, 117
1, 516615, Note_on_c, 4, 64, 127
1, 516616, Note_on_c, 4, 55, 127
1, 516618, Note_off_c, 1, 79, 64
1, 516624, Note_off_c, 2, 67, 64
1, 516689, Note_on_c, 4, 54, 127
1, 516691, Note_off_c, 4, 55, 64
1, 516756, Note_off_c, 4, 64, 64
1, 516757, Note_on_c, 1, 81, 117
1, 516757, Note_on_c, 1, 78, 117
1, 516760, Note_off_c, 2, 76, 64
1, 516837, Note_on_c, 4, 59, 127
1, 516899, Note_off_c, 1, 78, 64
1, 516899, Note_off_c, 1, 81, 64
1, 516905, Note_on_c, 1, 78, 117
1, 516906, Note_on_c, 2, 75, 117
1, 516985, Note_off_c, 4, 54, 64
1, 516985, Note_on_c, 4, 52, 127
1, 517047, Note_off_c, 1, 78, 64
1, 517047, Note_off_c, 2, 75, 64
1, 517054, Note_on_c, 1, 79, 117
1, 517055, Note_on_c, 2, 76, 117
1, 517132, Note_off_c, 4, 59, 64
1, 517132, Note_on_c, 4, 57, 127
1, 517194, Note_off_c, 2, 76, 64
1, 517195, Note_off_c, 1, 79, 64
1, 517201, Note_on_c, 2, 76, 117
1, 517207, Note_on_c, 2, 73, 117
1, 517280, Note_off_c, 4, 52, 64
1, 517280, Note_on_c, 4, 50, 127
1, 517350, Note_on_c, 2, 74, 117
1, 517359, Note_off_c, 2, 76, 64
1, 517371, Note_off_c, 2, 73, 64
1, 517414, Note_off_c, 4, 57, 64
1, 517446, Note_on_c, 4, 62, 127
1, 517513, Note_off_c, 4, 50, 64
1, 517557, Note_off_c, 2, 74, 64
1, 517888, Note_off_c, 4, 62, 64
1, 517993, Note_on_c, 2, 69, 113
1, 518031, Note_on_c, 1, 81, 104
1, 518068, Note_off_c, 2, 69, 64
1, 518070, Note_on_c, 2, 69, 113
1, 518106, Note_off_c, 1, 81, 64
1, 518108, Note_on_c, 1, 81, 104
1, 518145, Note_off_c, 2, 69, 64
1, 518147, Note_on_c, 2, 69, 113
1, 518184, Note_off_c, 1, 81, 64
1, 518184, Note_on_c, 1, 81, 104
1, 518222, Note_off_c, 2, 69, 64
1, 518223, Note_on_c, 2, 69, 113
1, 518261, Note_off_c, 1, 81, 64
1, 518263, Note_on_c, 1, 81, 104
1, 518299, Note_off_c, 2, 69, 64
1, 518301, Note_on_c, 2, 69, 113
1, 518302, Note_on_c, 4, 54, 127
1, 518302, Note_on_c, 4, 57, 127
1, 518337, Note_off_c, 1, 81, 64
1, 518339, Note_on_c, 1, 81, 104
1, 518375, Note_off_c, 2, 69, 64
1, 518377, Note_on_c, 2, 69, 113
1, 518413, Note_off_c, 1, 81, 64
1, 518416, Note_on_c, 1, 81, 104
1, 518452, Note_off_c, 2, 69, 64
1, 518454, Note_on_c, 2, 69, 113
1, 518490, Note_off_c, 1, 81, 64
1, 518492, Note_on_c, 1, 81, 104
1, 518527, Note_off_c, 2, 69, 64
1, 518529, Note_on_c, 2, 69, 113
1, 518565, Note_off_c, 1, 81, 64
1, 518567, Note_on_c, 1, 81, 104
1, 518598, Note_off_c, 4, 57, 64
1, 518602, Note_off_c, 2, 69, 64
1, 518604, Note_off_c, 4, 54, 64
1, 518604, Note_on_c, 4, 62, 127
1, 518604, Note_on_c, 2, 69, 113
1, 518605, Note_on_c, 4, 57, 127
1, 518640, Note_off_c, 1, 81, 64
1, 518640, Note_on_c, 1, 81, 104
1, 518676, Note_off_c, 2, 69, 64
1, 518679, Note_on_c, 2, 69, 113
1, 518715, Note_off_c, 1, 81, 64
1, 518716, Note_on_c, 1, 81, 104
1, 518748, Note_off_c, 4, 62, 64
1, 518748, Note_off_c, 4, 57, 64
1, 518752, Note_off_c, 2, 69, 64
1, 518753, Note_on_c, 4, 66, 127
1, 518753, Note_on_c, 2, 69, 113
1, 518754, Note_on_c, 4, 62, 127
1, 518789, Note_off_c, 1, 81, 64
1, 518791, Note_on_c, 1, 81, 104
1, 518825, Note_off_c, 2, 69, 64
1, 518828, Note_on_c, 2, 69, 113
1, 518864, Note_off_c, 1, 81, 64
1, 518866, Note_on_c, 1, 81, 104
1, 518898, Note_off_c, 4, 62, 64
1, 518899, Note_off_c, 4, 66, 64
1, 518903, Note_off_c, 2, 69, 64
1, 518904, Note_on_c, 4, 64, 127
1, 518904, Note_on_c, 2, 69, 113
1, 518905, Note_on_c, 4, 61, 127
1, 518940, Note_off_c, 1, 81, 64
1, 518941, Note_on_c, 1, 81, 104
1, 518978, Note_off_c, 2, 69, 64
1, 518979, Note_on_c, 2, 69, 113
1, 519014, Note_off_c, 1, 81, 64
1, 519016, Note_on_c, 1, 81, 104
1, 519053, Note_off_c, 2, 69, 64
1, 519055, Note_on_c, 2, 69, 113
1, 519091, Note_off_c, 1, 81, 64
1, 519092, Note_on_c, 1, 81, 104
1, 519128, Note_off_c, 2, 69, 64
1, 519130, Note_off_c, 4, 61, 64
1, 519131, Note_off_c, 4, 64, 64
1, 519131, Note_on_c, 2, 69, 113
1, 519132, Note_on_c, 4, 66, 127
1, 519132, Note_on_c, 4, 62, 127
1, 519167, Note_off_c, 1, 81, 64
1, 519168, Note_on_c, 1, 81, 104
1, 519199, Note_off_c, 4, 62, 64
1, 519200, Note_off_c, 4, 66, 64
1, 519204, Note_off_c, 2, 69, 64
1, 519206, Note_on_c, 2, 69, 113
1, 519206, Note_on_c, 2, 67, 123
1, 519207, Note_on_c, 4, 64, 127
1, 519241, Note_off_c, 1, 81, 64
1, 519243, Note_on_c, 1, 81, 104
1, 519279, Note_off_c, 2, 69, 64
1, 519280, Note_on_c, 2, 69, 113
1, 519316, Note_off_c, 1, 81, 64
1, 519318, Note_on_c, 1, 81, 104
1, 519351, Note_off_c, 4, 64, 64
1, 519351, Note_off_c, 2, 67, 64
1, 519355, Note_off_c, 2, 69, 64
1, 519356, Note_on_c, 2, 69, 113
1, 519357, Note_on_c, 4, 64, 127
1, 519357, Note_on_c, 2, 67, 123
1, 519392, Note_off_c, 1, 81, 64
1, 519394, Note_on_c, 1, 81, 104
1, 519431, Note_off_c, 2, 69, 64
1, 519432, Note_on_c, 2, 69, 113
1, 519469, Note_off_c, 1, 81, 64
1, 519471, Note_on_c, 1, 81, 104
1, 519502, Note_off_c, 2, 67, 64
1, 519502, Note_off_c, 4, 64, 64
1, 519506, Note_off_c, 2, 69, 64
1, 519508, Note_on_c, 2, 69, 113
1, 519509, Note_on_c, 4, 62, 127
1, 519509, Note_on_c, 4, 66, 127
1, 519544, Note_off_c, 1, 81, 64
1, 519546, Note_on_c, 1, 81, 104
1, 519580, Note_off_c, 2, 69, 64
1, 519582, Note_on_c, 2, 69, 113
1, 519619, Note_off_c, 1, 81, 64
1, 519621, Note_on_c, 1, 81, 104
1, 519655, Note_off_c, 2, 69, 64
1, 519659, Note_on_c, 2, 70, 113
1, 519694, Note_off_c, 1, 81, 64
1, 519696, Note_on_c, 1, 82, 104
1, 519732, Note_off_c, 2, 70, 64
1, 519734, Note_on_c, 2, 70, 113
1, 519770, Note_off_c, 1, 82, 64
1, 519771, Note_on_c, 1, 82, 104
1, 519806, Note_off_c, 2, 70, 64
1, 519808, Note_off_c, 4, 66, 64
1, 519808, Note_off_c, 4, 62, 64
1, 519809, Note_on_c, 2, 67, 123
1, 519809, Note_on_c, 2, 71, 111
1, 519810, Note_on_c, 4, 55, 127
1, 519844, Note_off_c, 1, 82, 64
1, 519846, Note_on_c, 1, 83, 104
1, 519883, Note_off_c, 2, 71, 64
1, 519883, Note_on_c, 2, 71, 111
1, 519919, Note_off_c, 1, 83, 64
1, 519921, Note_on_c, 1, 83, 104
1, 519960, Note_off_c, 2, 71, 64
1, 519965, Note_on_c, 2, 76, 107
1, 519996, Note_off_c, 1, 83, 64
1, 519996, Note_on_c, 1, 88, 106
1, 520038, Note_off_c, 2, 76, 64
1, 520040, Note_on_c, 2, 76, 107
1, 520071, Note_off_c, 1, 88, 64
1, 520073, Note_on_c, 1, 88, 106
1, 520112, Note_off_c, 4, 55, 64
1, 520113, Note_off_c, 2, 67, 64
1, 520113, Note_on_c, 1, 86, 104
1, 520114, Note_on_c, 2, 74, 107
1, 520114, Note_on_c, 4, 66, 127
1, 520115, Note_off_c, 2, 76, 64
1, 520115, Note_on_c, 4, 57, 127
1, 520117, Note_off_c, 1, 88, 64
1, 520270, Note_on_c, 4, 64, 127
1, 520270, Note_on_c, 1, 85, 104
1, 520274, Note_off_c, 1, 86, 64
1, 520275, Note_off_c, 4, 57, 64
1, 520275, Note_off_c, 4, 66, 64
1, 520276, Note_off_c, 2, 74, 64
1, 520276, Note_on_c, 2, 73, 107
1, 520422, Note_on_c, 4, 57, 127
1, 520426, Note_off_c, 4, 64, 64
1, 520427, Note_off_c, 1, 85, 64
1, 520431, Note_off_c, 2, 73, 64
1, 520460, Note_on_c, 2, 69, 113
1, 520492, Note_off_c, 4, 57, 64
1, 520498, Note_on_c, 4, 57, 127
1, 520529, Note_off_c, 2, 69, 64
1, 520535, Note_on_c, 2, 69, 113
1, 520567, Note_off_c, 4, 57, 64
1, 520573, Note_on_c, 2, 76, 107
1, 520573, Note_on_c, 2, 73, 107
1, 520574, Note_on_c, 4, 55, 127
1, 520605, Note_off_c, 2, 69, 64
1, 520610, Note_on_c, 2, 67, 123
1, 520643, Note_off_c, 4, 55, 64
1, 520655, Note_on_c, 4, 55, 127
1, 520684, Note_off_c, 2, 67, 64
1, 520693, Note_on_c, 2, 67, 123
1, 520728, Note_off_c, 4, 55, 64
1, 520729, Note_off_c, 2, 73, 64
1, 520730, Note_off_c, 2, 76, 64
1, 520733, Note_on_c, 4, 54, 127
1, 520733, Note_on_c, 2, 69, 113
1, 520766, Note_off_c, 2, 67, 64
1, 520772, Note_on_c, 4, 66, 127
1, 520805, Note_off_c, 4, 54, 64
1, 520810, Note_on_c, 1, 81, 104
1, 520811, Note_on_c, 4, 54, 127
1, 520844, Note_off_c, 4, 66, 64
1, 520850, Note_on_c, 4, 66, 127
1, 520883, Note_off_c, 4, 54, 64
1, 520890, Note_on_c, 2, 73, 107
1, 520891, Note_off_c, 2, 69, 64
1, 520891, Note_on_c, 4, 52, 127
1, 520921, Note_off_c, 4, 66, 64
1, 520927, Note_on_c, 4, 64, 127
1, 520958, Note_off_c, 4, 52, 64
1, 520964, Note_on_c, 1, 79, 104
1, 520965, Note_on_c, 4, 52, 127
1, 520967, Note_off_c, 1, 81, 64
1, 520996, Note_off_c, 4, 64, 64
1, 521003, Note_on_c, 4, 64, 127
1, 521036, Note_off_c, 4, 52, 64
1, 521042, Note_on_c, 2, 74, 107
1, 521042, Note_on_c, 4, 50, 127
1, 521044, Note_off_c, 2, 73, 64
1, 521076, Note_off_c, 4, 64, 64
1, 521081, Note_on_c, 4, 62, 127
1, 521115, Note_off_c, 4, 50, 64
1, 521122, Note_on_c, 1, 78, 104
1, 521122, Note_on_c, 4, 50, 127
1, 521124, Note_off_c, 1, 79, 64
1, 521155, Note_off_c, 4, 62, 64
1, 521161, Note_on_c, 4, 62, 127
1, 521192, Note_off_c, 4, 50, 64
1, 521197, Note_on_c, 2, 70, 113
1, 521198, Note_on_c, 4, 49, 127
1, 521200, Note_off_c, 2, 74, 64
1, 521229, Note_off_c, 4, 62, 64
1, 521235, Note_on_c, 4, 61, 127
1, 521268, Note_off_c, 4, 49, 64
1, 521273, Note_on_c, 2, 76, 107
1, 521274, Note_on_c, 4, 49, 127
1, 521276, Note_off_c, 1, 78, 64
1, 521307, Note_off_c, 4, 61, 64
1, 521313, Note_on_c, 4, 61, 127
1, 521347, Note_off_c, 4, 49, 64
1, 521353, Note_on_c, 2, 71, 111
1, 521353, Note_on_c, 4, 47, 127
1, 521355, Note_off_c, 2, 70, 64
1, 521385, Note_off_c, 4, 61, 64
1, 521390, Note_on_c, 4, 59, 127
1, 521423, Note_off_c, 4, 47, 64
1, 521429, Note_on_c, 2, 74, 107
1, 521429, Note_on_c, 4, 47, 127
1, 521430, Note_off_c, 2, 76, 64
1, 521460, Note_off_c, 4, 59, 64
1, 521466, Note_on_c, 4, 59, 127
1, 521501, Note_off_c, 4, 47, 64
1, 521507, Note_on_c, 4, 45, 127
1, 521507, Note_on_c, 2, 72, 107
1, 521508, Note_off_c, 2, 71, 64
1, 521515, Note_off_c, 2, 74, 64
1, 521538, Note_off_c, 4, 59, 64
1, 521544, Note_on_c, 4, 57, 127
1, 521578, Note_off_c, 4, 45, 64
1, 521584, Note_on_c, 2, 75, 107
1, 521585, Note_on_c, 4, 45, 127
1, 521592, Note_off_c, 2, 72, 64
1, 521616, Note_off_c, 4, 57, 64
1, 521622, Note_on_c, 4, 57, 127
1, 521652, Note_off_c, 4, 45, 64
1, 521658, Note_on_c, 2, 71, 111
1, 521659, Note_on_c, 4, 44, 127
1, 521692, Note_off_c, 4, 57, 64
1, 521698, Note_on_c, 4, 56, 127
1, 521730, Note_off_c, 4, 44, 64
1, 521736, Note_on_c, 4, 44, 127
1, 521736, Note_on_c, 2, 76, 107
1, 521737, Note_off_c, 2, 75, 64
1, 521770, Note_off_c, 4, 56, 64
1, 521775, Note_on_c, 4, 56, 127
1, 521808, Note_off_c, 4, 44, 64
1, 521814, Note_on_c, 2, 68, 115
1, 521814, Note_on_c, 4, 40, 127
1, 521817, Note_off_c, 2, 71, 64
1, 521847, Note_off_c, 4, 56, 64
1, 521853, Note_on_c, 4, 52, 127
1, 521886, Note_off_c, 4, 40, 64
1, 521892, Note_on_c, 2, 74, 107
1, 521892, Note_on_c, 4, 40, 127
1, 521894, Note_off_c, 2, 76, 64
1, 521924, Note_off_c, 4, 52, 64
1, 521930, Note_on_c, 4, 52, 127
1, 521963, Note_off_c, 4, 40, 64
1, 521968, Note_on_c, 4, 61, 127
1, 521969, Note_off_c, 2, 68, 64
1, 521969, Note_on_c, 4, 57, 127
1, 522000, Note_off_c, 4, 52, 64
1, 522000, Note_off_c, 2, 74, 64
1, 522007, Note_on_c, 2, 73, 107
1, 522039, Note_off_c, 4, 61, 64
1, 522045, Note_on_c, 4, 61, 127
1, 522078, Note_off_c, 2, 73, 64
1, 522084, Note_on_c, 2, 73, 107
1, 522116, Note_off_c, 4, 61, 64
1, 522122, Note_on_c, 4, 49, 127
1, 522122, Note_on_c, 4, 64, 127
1, 522156, Note_off_c, 2, 73, 64
1, 522156, Note_on_c, 2, 76, 107
1, 522195, Note_off_c, 4, 64, 64
1, 522195, Note_on_c, 4, 64, 127
1, 522228, Note_off_c, 2, 76, 64
1, 522234, Note_on_c, 2, 76, 107
1, 522269, Note_off_c, 4, 64, 64
1, 522275, Note_on_c, 4, 56, 127
1, 522275, Note_on_c, 4, 52, 127
1, 522279, Note_off_c, 4, 57, 64
1, 522281, Note_off_c, 4, 49, 64
1, 522306, Note_off_c, 2, 76, 64
1, 522312, Note_on_c, 2, 68, 115
1, 522345, Note_off_c, 4, 56, 64
1, 522350, Note_on_c, 4, 56, 127
1, 522383, Note_off_c, 2, 68, 64
1, 522389, Note_on_c, 2, 68, 115
1, 522421, Note_off_c, 4, 56, 64
1, 522427, Note_on_c, 4, 59, 127
1, 522428, Note_on_c, 4, 40, 127
1, 522430, Note_off_c, 4, 52, 64
1, 522461, Note_off_c, 2, 68, 64
1, 522467, Note_on_c, 2, 71, 111
1, 522499, Note_off_c, 4, 59, 64
1, 522505, Note_on_c, 4, 59, 127
1, 522538, Note_off_c, 2, 71, 64
1, 522543, Note_on_c, 2, 71, 111
1, 522576, Note_off_c, 4, 59, 64
1, 522582, Note_on_c, 4, 57, 127
1, 522582, Note_on_c, 2, 69, 113
1, 522583, Note_on_c, 4, 45, 127
1, 522584, Note_off_c, 4, 40, 64
1, 522614, Note_off_c, 2, 71, 64
1, 522732, Note_on_c, 4, 33, 127
1, 522787, Note_off_c, 4, 45, 64
1, 522788, Note_off_c, 2, 69, 64
1, 522788, Note_off_c, 4, 57, 64
1, 522880, Note_on_c, 2, 69, 113
1, 522917, Note_on_c, 1, 81, 104
1, 522955, Note_off_c, 2, 69, 64
1, 522957, Note_on_c, 2, 69, 113
1, 522963, Note_off_c, 4, 33, 64
1, 522994, Note_off_c, 1, 81, 64
1, 522996, Note_on_c, 1, 81, 104
1, 523034, Note_off_c, 2, 69, 64
1, 523034, Note_on_c, 2, 69, 113
1, 523072, Note_off_c, 1, 81, 64
1, 523073, Note_on_c, 1, 81, 104
1, 523111, Note_off_c, 2, 69, 64
1, 523111, Note_on_c, 2, 69, 113
1, 523147, Note_off_c, 1, 81, 64
1, 523149, Note_on_c, 1, 81, 104
1, 523186, Note_off_c, 2, 69, 64
1, 523188, Note_on_c, 4, 54, 127
1, 523188, Note_on_c, 4, 57, 127
1, 523188, Note_on_c, 2, 69, 113
1, 523223, Note_off_c, 1, 81, 64
1, 523224, Note_on_c, 1, 81, 104
1, 523260, Note_off_c, 2, 69, 64
1, 523261, Note_on_c, 2, 69, 113
1, 523298, Note_off_c, 1, 81, 64
1, 523299, Note_on_c, 1, 81, 104
1, 523334, Note_off_c, 2, 69, 64
1, 523336, Note_on_c, 2, 69, 113
1, 523371, Note_off_c, 1, 81, 64
1, 523373, Note_on_c, 1, 81, 104
1, 523408, Note_off_c, 2, 69, 64
1, 523410, Note_on_c, 2, 69, 113
1, 523447, Note_off_c, 1, 81, 64
1, 523449, Note_on_c, 1, 81, 104
1, 523479, Note_off_c, 4, 57, 64
1, 523483, Note_off_c, 2, 69, 64
1, 523485, Note_off_c, 4, 54, 64
1, 523486, Note_on_c, 2, 69, 113
1, 523486, Note_on_c, 4, 62, 127
1, 523487, Note_on_c, 4, 57, 127
1, 523522, Note_off_c, 1, 81, 64
1, 523523, Note_on_c, 1, 81, 104
1, 523559, Note_off_c, 2, 69, 64
1, 523560, Note_on_c, 2, 69, 113
1, 523597, Note_off_c, 1, 81, 64
1, 523598, Note_on_c, 1, 81, 104
1, 523624, Note_off_c, 4, 57, 64
1, 523625, Note_off_c, 4, 62, 64
1, 523635, Note_off_c, 2, 69, 64
1, 523637, Note_on_c, 2, 69, 113
1, 523638, Note_on_c, 4, 62, 127
1, 523638, Note_on_c, 4, 66, 127
1, 523672, Note_off_c, 1, 81, 64
1, 523675, Note_on_c, 1, 81, 104
1, 523711, Note_off_c, 2, 69, 64
1, 523713, Note_on_c, 2, 69, 113
1, 523749, Note_off_c, 1, 81, 64
1, 523751, Note_on_c, 1, 81, 104
1, 523776, Note_off_c, 4, 62, 64
1, 523788, Note_off_c, 2, 69, 64
1, 523788, Note_on_c, 2, 69, 113
1, 523789, Note_on_c, 4, 61, 127
1, 523789, Note_on_c, 4, 64, 127
1, 523791, Note_off_c, 4, 66, 64
1, 523824, Note_off_c, 1, 81, 64
1, 523826, Note_on_c, 1, 81, 104
1, 523862, Note_off_c, 2, 69, 64
1, 523863, Note_on_c, 2, 69, 113
1, 523899, Note_off_c, 1, 81, 64
1, 523901, Note_on_c, 1, 81, 104
1, 523938, Note_off_c, 2, 69, 64
1, 523940, Note_on_c, 2, 69, 113
1, 523975, Note_off_c, 1, 81, 64
1, 523977, Note_on_c, 1, 81, 104
1, 524014, Note_off_c, 2, 69, 64
1, 524015, Note_off_c, 4, 61, 64
1, 524016, Note_off_c, 4, 64, 64
1, 524016, Note_on_c, 2, 69, 113
1, 524016, Note_on_c, 4, 66, 127
1, 524017, Note_on_c, 4, 62, 127
1, 524052, Note_off_c, 1, 81, 64
1, 524052, Note_on_c, 1, 81, 104
1, 524088, Note_off_c, 2, 69, 64
1, 524090, Note_on_c, 2, 69, 113
1, 524091, Note_on_c, 4, 64, 127
1, 524091, Note_on_c, 2, 67, 123
1, 524099, Note_off_c, 4, 62, 64
1, 524099, Note_off_c, 4, 66, 64
1, 524125, Note_off_c, 1, 81, 64
1, 524127, Note_on_c, 1, 81, 104
1, 524163, Note_off_c, 2, 69, 64
1, 524165, Note_on_c, 2, 69, 113
1, 524202, Note_off_c, 1, 81, 64
1, 524204, Note_on_c, 1, 81, 104
1, 524229, Note_off_c, 2, 67, 64
1, 524229, Note_off_c, 4, 64, 64
1, 524239, Note_off_c, 2, 69, 64
1, 524241, Note_on_c, 2, 69, 113
1, 524242, Note_on_c, 2, 67, 123
1, 524242, Note_on_c, 4, 64, 127
1, 524279, Note_off_c, 1, 81, 64
1, 524280, Note_on_c, 1, 81, 104
1, 524317, Note_off_c, 2, 69, 64
1, 524317, Note_on_c, 2, 69, 113
1, 524353, Note_off_c, 1, 81, 64
1, 524355, Note_on_c, 1, 81, 104
1, 524392, Note_off_c, 2, 69, 64
1, 524394, Note_on_c, 4, 66, 127
1, 524394, Note_on_c, 2, 69, 113
1, 524395, Note_on_c, 4, 62, 127
1, 524397, Note_off_c, 4, 64, 64
1, 524397, Note_off_c, 2, 67, 64
1, 524430, Note_off_c, 1, 81, 64
1, 524432, Note_on_c, 1, 81, 104
1, 524467, Note_off_c, 2, 69, 64
1, 524469, Note_on_c, 2, 69, 113
1, 524505, Note_off_c, 1, 81, 64
1, 524506, Note_on_c, 1, 81, 104
1, 524542, Note_off_c, 2, 69, 64
1, 524544, Note_on_c, 2, 70, 113
1, 524580, Note_off_c, 1, 81, 64
1, 524582, Note_on_c, 1, 82, 104
1, 524618, Note_off_c, 2, 70, 64
1, 524619, Note_on_c, 2, 70, 113
1, 524655, Note_off_c, 1, 82, 64
1, 524657, Note_on_c, 1, 82, 104
1, 524689, Note_off_c, 4, 62, 64
1, 524690, Note_off_c, 4, 66, 64
1, 524692, Note_off_c, 2, 70, 64
1, 524694, Note_on_c, 2, 71, 111
1, 524695, Note_on_c, 4, 55, 127
1, 524695, Note_on_c, 2, 67, 123
1, 524732, Note_off_c, 1, 82, 64
1, 524732, Note_on_c, 1, 83, 104
1, 524768, Note_off_c, 2, 71, 64
1, 524770, Note_on_c, 2, 71, 111
1, 524807, Note_off_c, 1, 83, 64
1, 524807, Note_on_c, 1, 83, 104
1, 524845, Note_off_c, 2, 71, 64
1, 524845, Note_on_c, 2, 76, 107
1, 524883, Note_off_c, 1, 83, 64
1, 524885, Note_on_c, 1, 88, 106
1, 524922, Note_off_c, 2, 76, 64
1, 524924, Note_on_c, 2, 76, 107
1, 524949, Note_off_c, 1, 88, 64
1, 524962, Note_on_c, 1, 88, 106
1, 524995, Note_off_c, 2, 67, 64
1, 524995, Note_off_c, 4, 55, 64
1, 525000, Note_off_c, 2, 76, 64
1, 525005, Note_on_c, 1, 86, 104
1, 525006, Note_on_c, 4, 66, 127
1, 525006, Note_on_c, 2, 74, 107
1, 525007, Note_on_c, 4, 57, 127
1, 525028, Note_off_c, 1, 88, 64
1, 525157, Note_on_c, 1, 85, 104
1, 525163, Note_on_c, 2, 73, 107
1, 525163, Note_on_c, 4, 64, 127
1, 525164, Note_off_c, 1, 86, 64
1, 525164, Note_off_c, 4, 57, 64
1, 525165, Note_off_c, 2, 74, 64
1, 525165, Note_off_c, 4, 66, 64
1, 525315, Note_off_c, 1, 85, 64
1, 525317, Note_on_c, 4, 57, 127
1, 525321, Note_off_c, 4, 64, 64
1, 525322, Note_off_c, 2, 73, 64
1, 525357, Note_on_c, 2, 69, 113
1, 525389, Note_off_c, 4, 57, 64
1, 525395, Note_on_c, 4, 57, 127
1, 525430, Note_off_c, 2, 69, 64
1, 525435, Note_on_c, 2, 69, 113
1, 525468, Note_off_c, 4, 57, 64
1, 525468, Note_on_c, 2, 76, 107
1, 525473, Note_on_c, 2, 73, 107
1, 525473, Note_on_c, 4, 55, 127
1, 525506, Note_off_c, 2, 69, 64
1, 525513, Note_on_c, 2, 67, 123
1, 525546, Note_off_c, 4, 55, 64
1, 525553, Note_on_c, 4, 55, 127
1, 525586, Note_off_c, 2, 67, 64
1, 525592, Note_on_c, 2, 67, 123
1, 525626, Note_off_c, 4, 55, 64
1, 525630, Note_off_c, 2, 76, 64
1, 525632, Note_on_c, 2, 69, 113
1, 525633, Note_on_c, 4, 54, 127
1, 525635, Note_off_c, 2, 73, 64
1, 525666, Note_off_c, 2, 67, 64
1, 525672, Note_on_c, 4, 66, 127
1, 525704, Note_off_c, 4, 54, 64
1, 525710, Note_on_c, 1, 81, 104
1, 525711, Note_on_c, 4, 54, 127
1, 525744, Note_off_c, 4, 66, 64
1, 525750, Note_on_c, 4, 66, 127
1, 525782, Note_off_c, 4, 54, 64
1, 525790, Note_on_c, 4, 52, 127
1, 525790, Note_on_c, 2, 73, 107
1, 525791, Note_off_c, 2, 69, 64
1, 525821, Note_off_c, 4, 66, 64
1, 525828, Note_on_c, 4, 64, 127
1, 525860, Note_off_c, 4, 52, 64
1, 525866, Note_on_c, 1, 79, 104
1, 525866, Note_on_c, 4, 52, 127
1, 525868, Note_off_c, 1, 81, 64
1, 525899, Note_off_c, 4, 64, 64
1, 525904, Note_on_c, 4, 64, 127
1, 525937, Note_off_c, 4, 52, 64
1, 525943, Note_on_c, 2, 74, 107
1, 525943, Note_on_c, 4, 50, 127
1, 525945, Note_off_c, 2, 73, 64
1, 525976, Note_off_c, 4, 64, 64
1, 525982, Note_on_c, 4, 62, 127
1, 526015, Note_off_c, 4, 50, 64
1, 526020, Note_on_c, 1, 78, 104
1, 526021, Note_on_c, 4, 50, 127
1, 526023, Note_off_c, 1, 79, 64
1, 526054, Note_off_c, 4, 62, 64
1, 526060, Note_on_c, 4, 62, 127
1, 526091, Note_off_c, 4, 50, 64
1, 526097, Note_on_c, 2, 70, 113
1, 526098, Note_on_c, 4, 49, 127
1, 526100, Note_off_c, 2, 74, 64
1, 526131, Note_off_c, 4, 62, 64
1, 526137, Note_on_c, 4, 61, 127
1, 526169, Note_off_c, 4, 49, 64
1, 526177, Note_on_c, 2, 76, 107
1, 526177, Note_on_c, 4, 49, 127
1, 526178, Note_off_c, 1, 78, 64
1, 526209, Note_off_c, 4, 61, 64
1, 526214, Note_on_c, 4, 61, 127
1, 526247, Note_off_c, 4, 49, 64
1, 526253, Note_on_c, 4, 47, 127
1, 526253, Note_on_c, 2, 71, 111
1, 526256, Note_off_c, 2, 70, 64
1, 526284, Note_off_c, 4, 61, 64
1, 526290, Note_on_c, 4, 59, 127
1, 526321, Note_off_c, 4, 47, 64
1, 526327, Note_on_c, 2, 74, 107
1, 526327, Note_on_c, 4, 47, 127
1, 526330, Note_off_c, 2, 76, 64
1, 526335, Note_off_c, 2, 71, 64
1, 526358, Note_off_c, 4, 59, 64
1, 526364, Note_on_c, 4, 59, 127
1, 526397, Note_off_c, 4, 47, 64
1, 526403, Note_on_c, 2, 72, 107
1, 526403, Note_on_c, 4, 45, 127
1, 526411, Note_off_c, 2, 74, 64
1, 526436, Note_off_c, 4, 59, 64
1, 526442, Note_on_c, 4, 57, 127
1, 526475, Note_off_c, 4, 45, 64
1, 526480, Note_on_c, 2, 75, 107
1, 526481, Note_on_c, 4, 45, 127
1, 526489, Note_off_c, 2, 72, 64
1, 526512, Note_off_c, 4, 57, 64
1, 526517, Note_on_c, 4, 57, 127
1, 526549, Note_off_c, 4, 45, 64
1, 526555, Note_on_c, 2, 71, 111
1, 526556, Note_on_c, 4, 44, 127
1, 526587, Note_off_c, 4, 57, 64
1, 526593, Note_on_c, 4, 56, 127
1, 526625, Note_off_c, 4, 44, 64
1, 526631, Note_on_c, 2, 76, 107
1, 526632, Note_off_c, 2, 75, 64
1, 526632, Note_on_c, 4, 44, 127
1, 526663, Note_off_c, 4, 56, 64
1, 526668, Note_on_c, 4, 56, 127
1, 526701, Note_off_c, 4, 44, 64
1, 526707, Note_on_c, 2, 68, 115
1, 526707, Note_on_c, 4, 40, 127
1, 526710, Note_off_c, 2, 71, 64
1, 526739, Note_off_c, 4, 56, 64
1, 526744, Note_on_c, 4, 52, 127
1, 526777, Note_off_c, 4, 40, 64
1, 526783, Note_on_c, 4, 40, 127
1, 526783, Note_on_c, 2, 74, 107
1, 526786, Note_off_c, 2, 76, 64
1, 526814, Note_off_c, 4, 52, 64
1, 526820, Note_on_c, 4, 52, 127
1, 526853, Note_off_c, 4, 40, 64
1, 526859, Note_on_c, 4, 57, 127
1, 526859, Note_on_c, 4, 61, 127
1, 526861, Note_off_c, 2, 68, 64
1, 526892, Note_off_c, 4, 52, 64
1, 526898, Note_off_c, 2, 74, 64
1, 526898, Note_on_c, 2, 73, 107
1, 526930, Note_off_c, 4, 61, 64
1, 526935, Note_on_c, 4, 61, 127
1, 526968, Note_off_c, 2, 73, 64
1, 526974, Note_on_c, 2, 73, 107
1, 527006, Note_off_c, 4, 61, 64
1, 527012, Note_on_c, 4, 64, 127
1, 527013, Note_on_c, 4, 49, 127
1, 527046, Note_off_c, 2, 73, 64
1, 527046, Note_on_c, 2, 76, 107
1, 527085, Note_off_c, 4, 64, 64
1, 527091, Note_on_c, 4, 64, 127
1, 527118, Note_off_c, 2, 76, 64
1, 527124, Note_on_c, 2, 76, 107
1, 527162, Note_off_c, 4, 64, 64
1, 527162, Note_on_c, 4, 56, 127
1, 527163, Note_on_c, 4, 52, 127
1, 527167, Note_off_c, 4, 57, 64
1, 527171, Note_off_c, 4, 49, 64
1, 527196, Note_off_c, 2, 76, 64
1, 527201, Note_on_c, 2, 68, 115
1, 527234, Note_off_c, 4, 56, 64
1, 527240, Note_on_c, 4, 56, 127
1, 527274, Note_off_c, 2, 68, 64
1, 527280, Note_on_c, 2, 68, 115
1, 527313, Note_off_c, 4, 56, 64
1, 527318, Note_on_c, 4, 59, 127
1, 527319, Note_on_c, 4, 40, 127
1, 527321, Note_off_c, 4, 52, 64
1, 527354, Note_off_c, 2, 68, 64
1, 527360, Note_on_c, 2, 71, 111
1, 527390, Note_off_c, 4, 59, 64
1, 527396, Note_on_c, 4, 59, 127
1, 527431, Note_off_c, 2, 71, 64
1, 527435, Note_on_c, 2, 71, 111
1, 527469, Note_off_c, 4, 59, 64
1, 527477, Note_on_c, 4, 57, 127
1, 527477, Note_on_c, 2, 69, 113
1, 527478, Note_off_c, 4, 40, 64
1, 527478, Note_on_c, 4, 45, 127
1, 527509, Note_off_c, 2, 71, 64
1, 527638, Note_on_c, 4, 33, 127
1, 527678, Note_off_c, 4, 45, 64
1, 527679, Note_off_c, 2, 69, 64
1, 527679, Note_off_c, 4, 57, 64
1, 527800, Note_on_c, 4, 66, 127
1, 527843, Note_on_c, 1, 78, 104
1, 527877, Note_off_c, 4, 66, 64
1, 527883, Note_on_c, 4, 66, 127
1, 527891, Note_off_c, 4, 33, 64
1, 527917, Note_off_c, 1, 78, 64
1, 527924, Note_on_c, 1, 78, 104
1, 527958, Note_off_c, 4, 66, 64
1, 527964, Note_off_c, 1, 78, 64
1, 527964, Note_on_c, 1, 78, 104
1, 527964, Note_on_c, 1, 81, 104
1, 527965, Note_on_c, 4, 64, 127
1, 528006, Note_on_c, 2, 76, 107
1, 528040, Note_off_c, 4, 64, 64
1, 528048, Note_on_c, 4, 64, 127
1, 528083, Note_off_c, 2, 76, 64
1, 528088, Note_on_c, 2, 76, 107
1, 528123, Note_off_c, 4, 64, 64
1, 528123, Note_off_c, 1, 81, 64
1, 528128, Note_on_c, 1, 81, 104
1, 528128, Note_on_c, 1, 84, 104
1, 528129, Note_on_c, 4, 63, 127
1, 528132, Note_off_c, 1, 78, 64
1, 528162, Note_off_c, 2, 76, 64
1, 528167, Note_on_c, 2, 75, 107
1, 528201, Note_off_c, 4, 63, 64
1, 528206, Note_on_c, 4, 63, 127
1, 528241, Note_off_c, 2, 75, 64
1, 528247, Note_on_c, 2, 75, 107
1, 528281, Note_off_c, 4, 63, 64
1, 528287, Note_on_c, 1, 83, 104
1, 528288, Note_off_c, 1, 81, 64
1, 528288, Note_on_c, 1, 80, 104
1, 528288, Note_on_c, 4, 64, 127
1, 528289, Note_off_c, 1, 84, 64
1, 528322, Note_off_c, 2, 75, 64
1, 528327, Note_on_c, 2, 76, 107
1, 528362, Note_off_c, 4, 64, 64
1, 528368, Note_on_c, 4, 64, 127
1, 528402, Note_off_c, 2, 76, 64
1, 528408, Note_on_c, 2, 76, 107
1, 528443, Note_off_c, 4, 64, 64
1, 528447, Note_on_c, 1, 79, 104
1, 528447, Note_on_c, 1, 82, 104
1, 528448, Note_on_c, 4, 61, 127
1, 528450, Note_off_c, 1, 80, 64
1, 528451, Note_off_c, 1, 83, 64
1, 528482, Note_off_c, 2, 76, 64
1, 528488, Note_on_c, 2, 73, 107
1, 528522, Note_off_c, 4, 61, 64
1, 528528, Note_on_c, 4, 61, 127
1, 528563, Note_off_c, 2, 73, 64
1, 528569, Note_on_c, 2, 73, 107
1, 528604, Note_off_c, 4, 61, 64
1, 528610, Note_on_c, 1, 81, 104
1, 528611, Note_on_c, 1, 78, 104
1, 528611, Note_on_c, 4, 62, 127
1, 528612, Note_off_c, 1, 79, 64
1, 528613, Note_off_c, 1, 82, 64
1, 528645, Note_off_c, 2, 73, 64
1, 528650, Note_on_c, 2, 74, 107
1, 528685, Note_off_c, 4, 62, 64
1, 528696, Note_on_c, 4, 62, 127
1, 528725, Note_off_c, 2, 74, 64
1, 528737, Note_on_c, 2, 74, 107
1, 528770, Note_off_c, 2, 74, 64
1, 528771, Note_off_c, 4, 62, 64
1, 528775, Note_off_c, 1, 81, 64
1, 528775, Note_off_c, 1, 78, 64
1, 528778, Note_on_c, 2, 74, 107
1, 528779, Note_on_c, 4, 56, 127
1, 528814, Note_on_c, 1, 86, 104
1, 528819, Note_on_c, 2, 68, 115
1, 528854, Note_off_c, 2, 74, 64
1, 528860, Note_on_c, 2, 73, 107
1, 528860, Note_on_c, 4, 57, 127
1, 528868, Note_off_c, 4, 56, 64
1, 528895, Note_on_c, 1, 85, 104
1, 528903, Note_on_c, 2, 69, 113
1, 528905, Note_off_c, 1, 86, 64
1, 528911, Note_off_c, 2, 68, 64
1, 528937, Note_off_c, 2, 73, 64
1, 528943, Note_on_c, 2, 72, 107
1, 528944, Note_on_c, 4, 54, 127
1, 528952, Note_off_c, 4, 57, 64
1, 528977, Note_on_c, 1, 84, 104
1, 528983, Note_on_c, 4, 66, 127
1, 528986, Note_off_c, 1, 85, 64
1, 528992, Note_off_c, 2, 69, 64
1, 529017, Note_off_c, 2, 72, 64
1, 529024, Note_on_c, 2, 71, 106
1, 529024, Note_on_c, 4, 55, 127
1, 529032, Note_off_c, 4, 54, 64
1, 529059, Note_on_c, 1, 83, 104
1, 529065, Note_on_c, 2, 67, 127
1, 529067, Note_off_c, 1, 84, 64
1, 529073, Note_off_c, 4, 66, 64
1, 529100, Note_off_c, 2, 71, 64
1, 529105, Note_on_c, 2, 71, 106
1, 529106, Note_on_c, 4, 53, 127
1, 529114, Note_off_c, 4, 55, 64
1, 529131, Note_off_c, 1, 83, 64
1, 529139, Note_on_c, 1, 83, 104
1, 529145, Note_on_c, 4, 65, 127
1, 529154, Note_off_c, 2, 67, 64
1, 529181, Note_off_c, 2, 71, 64
1, 529187, Note_on_c, 2, 70, 113
1, 529188, Note_on_c, 4, 54, 127
1, 529198, Note_off_c, 4, 53, 64
1, 529223, Note_on_c, 1, 82, 104
1, 529229, Note_on_c, 4, 66, 127
1, 529232, Note_off_c, 1, 83, 64
1, 529238, Note_off_c, 4, 65, 64
1, 529265, Note_off_c, 2, 70, 64
1, 529271, Note_on_c, 2, 69, 113
1, 529271, Note_on_c, 4, 51, 127
1, 529281, Note_off_c, 4, 54, 64
1, 529306, Note_on_c, 1, 81, 104
1, 529314, Note_on_c, 4, 63, 127
1, 529316, Note_off_c, 1, 82, 64
1, 529323, Note_off_c, 4, 66, 64
1, 529350, Note_off_c, 2, 69, 64
1, 529356, Note_on_c, 4, 52, 127
1, 529356, Note_on_c, 2, 68, 115
1, 529365, Note_off_c, 4, 51, 64
1, 529392, Note_on_c, 1, 80, 104
1, 529397, Note_on_c, 4, 64, 127
1, 529401, Note_off_c, 1, 81, 64
1, 529407, Note_off_c, 4, 63, 64
1, 529432, Note_off_c, 2, 68, 64
1, 529438, Note_on_c, 4, 61, 127
1, 529438, Note_on_c, 2, 67, 127
1, 529439, Note_on_c, 4, 58, 127
1, 529447, Note_off_c, 4, 52, 64
1, 529472, Note_on_c, 1, 79, 104
1, 529480, Note_off_c, 1, 80, 64
1, 529488, Note_off_c, 4, 64, 64
1, 529512, Note_off_c, 2, 67, 64
1, 529520, Note_on_c, 2, 67, 127
1, 529546, Note_off_c, 1, 79, 64
1, 529553, Note_on_c, 1, 79, 104
1, 529593, Note_off_c, 2, 67, 64
1, 529594, Note_off_c, 4, 61, 64
1, 529594, Note_off_c, 4, 58, 64
1, 529600, Note_on_c, 4, 62, 127
1, 529600, Note_on_c, 4, 66, 127
1, 529601, Note_on_c, 4, 59, 127
1, 529628, Note_off_c, 1, 79, 64
1, 529635, Note_on_c, 1, 78, 104
1, 529674, Note_off_c, 4, 66, 64
1, 529681, Note_on_c, 4, 66, 127
1, 529710, Note_off_c, 1, 78, 64
1, 529718, Note_on_c, 1, 78, 104
1, 529756, Note_off_c, 4, 66, 64
1, 529756, Note_on_c, 4, 59, 127
1, 529757, Note_off_c, 4, 59, 64
1, 529757, Note_off_c, 4, 62, 64
1, 529758, Note_on_c, 4, 55, 127
1, 529758, Note_on_c, 4, 64, 127
1, 529790, Note_off_c, 1, 78, 64
1, 529798, Note_on_c, 2, 76, 107
1, 529832, Note_off_c, 4, 64, 64
1, 529838, Note_on_c, 4, 64, 127
1, 529872, Note_off_c, 2, 76, 64
1, 529878, Note_on_c, 2, 76, 107
1, 529913, Note_off_c, 4, 64, 64
1, 529919, Note_on_c, 4, 56, 127
1, 529919, Note_on_c, 4, 62, 127
1, 529921, Note_off_c, 4, 55, 64
1, 529952, Note_off_c, 2, 76, 64
1, 529960, Note_on_c, 2, 74, 107
1, 529994, Note_off_c, 4, 62, 64
1, 530000, Note_on_c, 4, 62, 127
1, 530035, Note_off_c, 2, 74, 64
1, 530042, Note_on_c, 2, 74, 107
1, 530077, Note_off_c, 4, 62, 64
1, 530081, Note_off_c, 4, 59, 64
1, 530085, Note_on_c, 4, 57, 127
1, 530085, Note_on_c, 4, 61, 127
1, 530088, Note_off_c, 4, 56, 64
1, 530120, Note_off_c, 2, 74, 64
1, 530128, Note_on_c, 2, 73, 107
1, 530170, Note_on_c, 4, 62, 127
1, 530178, Note_off_c, 4, 61, 64
1, 530210, Note_on_c, 2, 74, 107
1, 530220, Note_off_c, 2, 73, 64
1, 530253, Note_on_c, 4, 63, 127
1, 530262, Note_off_c, 4, 62, 64
1, 530293, Note_on_c, 2, 75, 107
1, 530301, Note_off_c, 2, 74, 64
1, 530333, Note_on_c, 4, 64, 127
1, 530341, Note_off_c, 4, 63, 64
1, 530374, Note_on_c, 2, 76, 107
1, 530383, Note_off_c, 2, 75, 64
1, 530414, Note_on_c, 4, 65, 127
1, 530424, Note_off_c, 4, 64, 64
1, 530456, Note_on_c, 2, 77, 107
1, 530464, Note_off_c, 2, 76, 64
1, 530495, Note_on_c, 4, 66, 127
1, 530502, Note_off_c, 4, 65, 64
1, 530535, Note_on_c, 1, 78, 104
1, 530543, Note_off_c, 2, 77, 64
1, 530574, Note_on_c, 2, 67, 127
1, 530581, Note_off_c, 4, 66, 64
1, 530612, Note_on_c, 1, 79, 109
1, 530622, Note_off_c, 1, 78, 64
1, 530652, Note_on_c, 2, 68, 115
1, 530661, Note_off_c, 2, 67, 64
1, 530692, Note_on_c, 1, 80, 109
1, 530701, Note_off_c, 1, 79, 64
1, 530732, Note_off_c, 1, 80, 64
1, 530733, Note_on_c, 2, 69, 113
1, 530733, Note_on_c, 1, 81, 109
1, 530738, Note_off_c, 2, 68, 64
1, 531019, Note_off_c, 4, 57, 64
1, 531050, Note_on_c, 4, 57, 127
1, 531071, Note_off_c, 2, 69, 64
1, 531090, Note_on_c, 2, 69, 113
1, 531091, Note_off_c, 1, 81, 64
1, 531124, Note_off_c, 4, 57, 64
1, 531131, Note_on_c, 4, 57, 127
1, 531163, Note_off_c, 2, 69, 64
1, 531169, Note_on_c, 2, 69, 113
1, 531204, Note_off_c, 4, 57, 64
1, 531204, Note_on_c, 2, 76, 107
1, 531208, Note_on_c, 2, 73, 107
1, 531209, Note_on_c, 4, 55, 127
1, 531242, Note_off_c, 2, 69, 64
1, 531248, Note_on_c, 2, 67, 127
1, 531282, Note_off_c, 4, 55, 64
1, 531290, Note_on_c, 4, 55, 127
1, 531324, Note_off_c, 2, 67, 64
1, 531330, Note_on_c, 2, 67, 127
1, 531365, Note_off_c, 4, 55, 64
1, 531368, Note_off_c, 2, 76, 64
1, 531372, Note_on_c, 2, 69, 113
1, 531372, Note_on_c, 4, 54, 127
1, 531374, Note_off_c, 2, 73, 64
1, 531405, Note_off_c, 2, 67, 64
1, 531413, Note_on_c, 4, 66, 127
1, 531447, Note_off_c, 4, 54, 64
1, 531448, Note_on_c, 1, 81, 104
1, 531454, Note_on_c, 4, 54, 127
1, 531487, Note_off_c, 4, 66, 64
1, 531492, Note_on_c, 4, 66, 127
1, 531527, Note_off_c, 4, 54, 64
1, 531535, Note_on_c, 4, 52, 127
1, 531535, Note_on_c, 2, 73, 107
1, 531538, Note_off_c, 2, 69, 64
1, 531568, Note_off_c, 4, 66, 64
1, 531574, Note_on_c, 4, 64, 127
1, 531609, Note_off_c, 4, 52, 64
1, 531609, Note_on_c, 1, 79, 104
1, 531612, Note_off_c, 1, 81, 64
1, 531615, Note_on_c, 4, 52, 127
1, 531648, Note_off_c, 4, 64, 64
1, 531654, Note_on_c, 4, 64, 127
1, 531690, Note_off_c, 4, 52, 64
1, 531696, Note_on_c, 2, 74, 107
1, 531696, Note_on_c, 4, 50, 127
1, 531699, Note_off_c, 2, 73, 64
1, 531732, Note_off_c, 4, 64, 64
1, 531737, Note_on_c, 4, 62, 127
1, 531772, Note_off_c, 4, 50, 64
1, 531772, Note_on_c, 1, 78, 104
1, 531775, Note_off_c, 1, 79, 64
1, 531779, Note_on_c, 4, 50, 127
1, 531815, Note_off_c, 4, 62, 64
1, 531821, Note_on_c, 4, 62, 127
1, 531857, Note_off_c, 4, 50, 64
1, 531863, Note_on_c, 2, 70, 108
1, 531864, Note_on_c, 4, 49, 127
1, 531866, Note_off_c, 2, 74, 64
1, 531899, Note_off_c, 4, 62, 64
1, 531904, Note_on_c, 4, 61, 127
1, 531939, Note_off_c, 4, 49, 64
1, 531939, Note_on_c, 2, 76, 107
1, 531942, Note_off_c, 1, 78, 64
1, 531946, Note_on_c, 4, 49, 127
1, 531980, Note_off_c, 4, 61, 64
1, 531988, Note_on_c, 4, 61, 127
1, 532024, Note_off_c, 4, 49, 64
1, 532030, Note_on_c, 2, 74, 107
1, 532031, Note_on_c, 4, 47, 127
1, 532031, Note_on_c, 2, 71, 106
1, 532033, Note_off_c, 2, 76, 64
1, 532033, Note_off_c, 2, 70, 64
1, 532065, Note_off_c, 4, 61, 64
1, 532070, Note_on_c, 4, 59, 127
1, 532107, Note_off_c, 4, 47, 64
1, 532107, Note_on_c, 1, 86, 104
1, 532114, Note_on_c, 4, 47, 127
1, 532146, Note_off_c, 4, 59, 64
1, 532152, Note_on_c, 4, 59, 127
1, 532188, Note_off_c, 4, 47, 64
1, 532189, Note_on_c, 1, 78, 104
1, 532193, Note_on_c, 4, 45, 127
1, 532197, Note_off_c, 2, 71, 64
1, 532198, Note_off_c, 2, 74, 64
1, 532229, Note_off_c, 4, 59, 64
1, 532235, Note_on_c, 4, 57, 127
1, 532270, Note_off_c, 4, 45, 64
1, 532271, Note_on_c, 1, 84, 104
1, 532275, Note_off_c, 1, 86, 64
1, 532277, Note_on_c, 4, 45, 127
1, 532313, Note_off_c, 4, 57, 64
1, 532321, Note_on_c, 4, 57, 127
1, 532356, Note_off_c, 4, 45, 64
1, 532356, Note_on_c, 1, 79, 104
1, 532358, Note_off_c, 1, 78, 64
1, 532362, Note_on_c, 4, 43, 127
1, 532399, Note_off_c, 4, 57, 64
1, 532404, Note_on_c, 4, 55, 127
1, 532441, Note_off_c, 4, 43, 64
1, 532441, Note_on_c, 1, 83, 104
1, 532442, Note_off_c, 1, 84, 64
1, 532446, Note_on_c, 4, 43, 127
1, 532483, Note_off_c, 4, 55, 64
1, 532489, Note_on_c, 4, 55, 127
1, 532524, Note_off_c, 4, 43, 64
1, 532525, Note_off_c, 1, 79, 64
1, 532530, Note_on_c, 4, 42, 127
1, 532530, Note_on_c, 2, 74, 107
1, 532565, Note_off_c, 4, 55, 64
1, 532571, Note_on_c, 4, 54, 127
1, 532606, Note_off_c, 4, 42, 64
1, 532606, Note_on_c, 1, 82, 104
1, 532608, Note_off_c, 1, 83, 64
1, 532612, Note_on_c, 4, 42, 127
1, 532646, Note_off_c, 4, 54, 64
1, 532653, Note_on_c, 4, 54, 127
1, 532687, Note_off_c, 4, 42, 64
1, 532692, Note_on_c, 2, 71, 106
1, 532693, Note_on_c, 4, 43, 127
1, 532693, Note_on_c, 4, 55, 127
1, 532695, Note_off_c, 2, 74, 64
1, 532719, Note_off_c, 1, 82, 64
1, 532725, Note_off_c, 4, 54, 64
1, 532725, Note_on_c, 1, 83, 104
1, 532766, Note_off_c, 2, 71, 64
1, 532771, Note_on_c, 2, 71, 106
1, 532800, Note_off_c, 1, 83, 64
1, 532806, Note_on_c, 1, 83, 104
1, 532846, Note_off_c, 2, 71, 64
1, 532850, Note_on_c, 4, 64, 127
1, 532879, Note_off_c, 1, 83, 64
1, 532884, Note_on_c, 2, 76, 107
1, 532923, Note_off_c, 4, 64, 64
1, 532931, Note_on_c, 4, 64, 127
1, 532957, Note_off_c, 2, 76, 64
1, 532963, Note_on_c, 2, 76, 107
1, 533002, Note_off_c, 4, 64, 64
1, 533008, Note_off_c, 4, 55, 64
1, 533008, Note_off_c, 4, 43, 64
1, 533009, Note_on_c, 4, 45, 127
1, 533009, Note_on_c, 4, 57, 127
1, 533009, Note_on_c, 2, 67, 127
1, 533036, Note_off_c, 2, 76, 64
1, 533042, Note_on_c, 1, 79, 104
1, 533082, Note_off_c, 2, 67, 64
1, 533088, Note_on_c, 2, 67, 127
1, 533117, Note_off_c, 1, 79, 64
1, 533123, Note_on_c, 1, 79, 104
1, 533163, Note_off_c, 2, 67, 64
1, 533164, Note_on_c, 4, 61, 127
1, 533198, Note_off_c, 1, 79, 64
1, 533205, Note_on_c, 2, 73, 107
1, 533239, Note_off_c, 4, 61, 64
1, 533246, Note_on_c, 4, 61, 127
1, 533280, Note_off_c, 2, 73, 64
1, 533287, Note_on_c, 2, 73, 107
1, 533320, Note_off_c, 4, 61, 64
1, 533326, Note_on_c, 4, 62, 127
1, 533326, Note_on_c, 2, 74, 107
1, 533327, Note_on_c, 4, 50, 127
1, 533332, Note_off_c, 4, 45, 64
1, 533333, Note_off_c, 4, 57, 64
1, 533360, Note_off_c, 2, 73, 64
1, 533487, Note_on_c, 4, 38, 127
1, 533607, Note_off_c, 4, 62, 64
1, 533607, Note_off_c, 4, 50, 64
1, 533608, Note_off_c, 2, 74, 64
1, 533646, Note_on_c, 4, 66, 127
1, 533688, Note_on_c, 1, 78, 104
1, 533723, Note_off_c, 4, 66, 64
1, 533731, Note_on_c, 4, 66, 127
1, 533736, Note_off_c, 4, 38, 64
1, 533765, Note_off_c, 1, 78, 64
1, 533773, Note_on_c, 1, 78, 104
1, 533808, Note_off_c, 1, 78, 64
1, 533808, Note_off_c, 4, 66, 64
1, 533814, Note_on_c, 1, 81, 104
1, 533815, Note_on_c, 1, 78, 104
1, 533815, Note_on_c, 4, 64, 127
1, 533856, Note_on_c, 2, 76, 107
1, 533890, Note_off_c, 4, 64, 64
1, 533896, Note_on_c, 4, 64, 127
1, 533975, Note_off_c, 4, 64, 64
1, 533975, Note_off_c, 1, 81, 64
1, 533979, Note_on_c, 1, 84, 104
1, 533980, Note_on_c, 4, 63, 127
1, 533980, Note_on_c, 1, 81, 104
1, 533982, Note_off_c, 1, 78, 64
1, 534017, Note_off_c, 2, 76, 64
1, 534023, Note_on_c, 2, 75, 107
1, 534059, Note_off_c, 4, 63, 64
1, 534065, Note_on_c, 4, 63, 127
1, 534101, Note_off_c, 2, 75, 64
1, 534108, Note_on_c, 2, 75, 107
1, 534143, Note_off_c, 4, 63, 64
1, 534148, Note_on_c, 1, 83, 104
1, 534149, Note_on_c, 1, 80, 104
1, 534149, Note_on_c, 4, 64, 127
1, 534152, Note_off_c, 1, 81, 64
1, 534153, Note_off_c, 1, 84, 64
1, 534186, Note_off_c, 2, 75, 64
1, 534193, Note_on_c, 2, 76, 107
1, 534230, Note_off_c, 4, 64, 64
1, 534236, Note_on_c, 4, 64, 127
1, 534270, Note_off_c, 2, 76, 64
1, 534278, Note_on_c, 2, 76, 107
1, 534314, Note_off_c, 4, 64, 64
1, 534319, Note_on_c, 1, 79, 104
1, 534319, Note_on_c, 1, 82, 104
1, 534320, Note_on_c, 4, 61, 127
1, 534322, Note_off_c, 1, 80, 64
1, 534323, Note_off_c, 1, 83, 64
1, 534356, Note_off_c, 2, 76, 64
1, 534361, Note_on_c, 2, 73, 107
1, 534398, Note_off_c, 4, 61, 64
1, 534404, Note_on_c, 4, 61, 127
1, 534442, Note_off_c, 2, 73, 64
1, 534448, Note_on_c, 2, 73, 107
1, 534482, Note_off_c, 4, 61, 64
1, 534488, Note_on_c, 1, 81, 104
1, 534489, Note_on_c, 1, 78, 104
1, 534489, Note_on_c, 4, 62, 127
1, 534491, Note_off_c, 1, 79, 64
1, 534492, Note_off_c, 1, 82, 64
1, 534523, Note_off_c, 2, 73, 64
1, 534528, Note_on_c, 2, 74, 107
1, 534567, Note_off_c, 4, 62, 64
1, 534573, Note_on_c, 4, 62, 127
1, 534609, Note_off_c, 2, 74, 64
1, 534623, Note_on_c, 2, 74, 112
1, 534667, Note_on_c, 2, 74, 112
1, 534667, Note_on_c, 2, 74, 112
1, 534668, Note_on_c, 4, 56, 127
1, 534700, Note_off_c, 4, 62, 64
1, 534706, Note_off_c, 2, 74, 64
1, 534707, Note_off_c, 1, 78, 64
1, 534707, Note_off_c, 1, 81, 64
1, 534711, Note_on_c, 2, 68, 115
1, 534711, Note_on_c, 1, 86, 104
1, 534755, Note_on_c, 2, 73, 112
1, 534756, Note_on_c, 4, 57, 127
1, 534766, Note_off_c, 4, 56, 64
1, 534798, Note_on_c, 1, 85, 104
1, 534799, Note_on_c, 2, 69, 113
1, 534807, Note_off_c, 1, 86, 64
1, 534807, Note_off_c, 2, 68, 64
1, 534833, Note_off_c, 2, 73, 64
1, 534839, Note_on_c, 2, 72, 112
1, 534839, Note_on_c, 4, 54, 127
1, 534842, Note_off_c, 2, 74, 64
1, 534842, Note_off_c, 2, 74, 64
1, 534849, Note_off_c, 4, 57, 64
1, 534880, Note_on_c, 4, 66, 127
1, 534880, Note_on_c, 1, 84, 104
1, 534888, Note_off_c, 2, 69, 64
1, 534889, Note_off_c, 1, 85, 64
1, 534914, Note_off_c, 2, 72, 64
1, 534920, Note_on_c, 2, 71, 111
1, 534921, Note_on_c, 4, 55, 127
1, 534929, Note_off_c, 4, 54, 64
1, 534962, Note_on_c, 1, 83, 104
1, 534962, Note_on_c, 2, 67, 127
1, 534969, Note_off_c, 1, 84, 64
1, 534969, Note_off_c, 4, 66, 64
1, 534995, Note_off_c, 2, 71, 64
1, 535001, Note_on_c, 2, 71, 111
1, 535002, Note_on_c, 4, 53, 127
1, 535009, Note_off_c, 4, 55, 64
1, 535036, Note_off_c, 1, 83, 64
1, 535042, Note_on_c, 1, 83, 104
1, 535043, Note_on_c, 4, 65, 127
1, 535051, Note_off_c, 2, 67, 64
1, 535076, Note_off_c, 2, 71, 64
1, 535084, Note_on_c, 2, 70, 113
1, 535084, Note_on_c, 4, 54, 127
1, 535092, Note_off_c, 4, 53, 64
1, 535125, Note_on_c, 1, 82, 104
1, 535126, Note_on_c, 4, 66, 127
1, 535133, Note_off_c, 4, 65, 64
1, 535134, Note_off_c, 1, 83, 64
1, 535159, Note_off_c, 2, 70, 64
1, 535165, Note_on_c, 2, 69, 113
1, 535166, Note_on_c, 4, 51, 127
1, 535176, Note_off_c, 4, 54, 64
1, 535209, Note_on_c, 1, 81, 104
1, 535209, Note_on_c, 4, 63, 127
1, 535217, Note_off_c, 1, 82, 64
1, 535217, Note_off_c, 4, 66, 64
1, 535243, Note_off_c, 2, 69, 64
1, 535249, Note_on_c, 2, 68, 115
1, 535249, Note_on_c, 4, 52, 127
1, 535257, Note_off_c, 4, 51, 64
1, 535292, Note_on_c, 1, 80, 104
1, 535293, Note_on_c, 4, 64, 127
1, 535300, Note_off_c, 4, 63, 64
1, 535301, Note_off_c, 1, 81, 64
1, 535327, Note_off_c, 2, 68, 64
1, 535332, Note_on_c, 2, 67, 127
1, 535333, Note_on_c, 4, 58, 127
1, 535333, Note_on_c, 4, 61, 127
1, 535339, Note_off_c, 4, 64, 64
1, 535341, Note_off_c, 4, 52, 64
1, 535374, Note_on_c, 1, 79, 104
1, 535384, Note_off_c, 1, 80, 64
1, 535407, Note_off_c, 2, 67, 64
1, 535415, Note_on_c, 2, 67, 127
1, 535448, Note_off_c, 1, 79, 64
1, 535448, Note_on_c, 1, 79, 104
1, 535489, Note_off_c, 2, 67, 64
1, 535497, Note_on_c, 4, 66, 127
1, 535497, Note_on_c, 4, 62, 127
1, 535498, Note_off_c, 4, 58, 64
1, 535498, Note_on_c, 4, 59, 127
1, 535499, Note_off_c, 4, 61, 64
1, 535524, Note_off_c, 1, 79, 64
1, 535530, Note_on_c, 1, 78, 104
1, 535572, Note_off_c, 4, 66, 64
1, 535578, Note_on_c, 4, 66, 127
1, 535607, Note_off_c, 1, 78, 64
1, 535613, Note_on_c, 1, 78, 104
1, 535653, Note_off_c, 4, 66, 64
1, 535653, Note_off_c, 4, 59, 64
1, 535658, Note_on_c, 4, 59, 127
1, 535658, Note_on_c, 4, 64, 127
1, 535659, Note_on_c, 4, 55, 127
1, 535661, Note_off_c, 4, 62, 64
1, 535687, Note_off_c, 1, 78, 64
1, 535693, Note_on_c, 2, 76, 107
1, 535734, Note_off_c, 4, 64, 64
1, 535740, Note_on_c, 4, 64, 127
1, 535768, Note_off_c, 2, 76, 64
1, 535774, Note_on_c, 2, 76, 107
1, 535814, Note_off_c, 4, 64, 64
1, 535822, Note_on_c, 4, 62, 127
1, 535823, Note_off_c, 4, 55, 64
1, 535823, Note_on_c, 4, 56, 127
1, 535824, Note_off_c, 4, 59, 64
1, 535850, Note_off_c, 2, 76, 64
1, 535856, Note_on_c, 2, 74, 112
1, 535896, Note_off_c, 4, 62, 64
1, 535896, Note_on_c, 4, 62, 127
1, 535932, Note_off_c, 2, 74, 64
1, 535937, Note_on_c, 2, 74, 112
1, 535970, Note_off_c, 4, 62, 64
1, 535978, Note_on_c, 4, 57, 127
1, 535978, Note_on_c, 4, 61, 127
1, 535986, Note_off_c, 4, 56, 64
1, 536013, Note_off_c, 2, 74, 64
1, 536019, Note_on_c, 2, 73, 112
1, 536059, Note_on_c, 4, 62, 127
1, 536069, Note_off_c, 4, 61, 64
1, 536100, Note_on_c, 2, 74, 112
1, 536109, Note_off_c, 2, 73, 64
1, 536142, Note_on_c, 4, 63, 127
1, 536151, Note_off_c, 4, 62, 64
1, 536182, Note_on_c, 2, 75, 107
1, 536192, Note_off_c, 2, 74, 64
1, 536222, Note_on_c, 4, 64, 127
1, 536230, Note_off_c, 4, 63, 64
1, 536263, Note_on_c, 2, 76, 107
1, 536270, Note_off_c, 2, 75, 64
1, 536303, Note_on_c, 4, 65, 127
1, 536313, Note_off_c, 4, 64, 64
1, 536343, Note_on_c, 2, 77, 107
1, 536351, Note_off_c, 2, 76, 64
1, 536382, Note_on_c, 4, 66, 127
1, 536389, Note_off_c, 4, 65, 64
1, 536420, Note_on_c, 1, 78, 104
1, 536430, Note_off_c, 2, 77, 64
1, 536460, Note_on_c, 2, 67, 127
1, 536468, Note_off_c, 4, 66, 64
1, 536499, Note_on_c, 1, 79, 104
1, 536507, Note_off_c, 1, 78, 64
1, 536535, Note_on_c, 2, 68, 115
1, 536543, Note_off_c, 2, 67, 64
1, 536572, Note_on_c, 1, 80, 104
1, 536581, Note_off_c, 1, 79, 64
1, 536604, Note_off_c, 1, 80, 64
1, 536610, Note_on_c, 1, 81, 104
1, 536611, Note_on_c, 2, 69, 113
1, 536619, Note_off_c, 2, 68, 64
1, 536884, Note_off_c, 1, 81, 64
1, 536884, Note_off_c, 2, 69, 64
1, 536925, Note_on_c, 4, 57, 127
1, 536965, Note_on_c, 2, 69, 113
1, 536998, Note_off_c, 4, 57, 64
1, 537006, Note_on_c, 4, 57, 127
1, 537038, Note_off_c, 2, 69, 64
1, 537044, Note_on_c, 2, 69, 113
1, 537077, Note_off_c, 4, 57, 64
1, 537083, Note_on_c, 2, 73, 107
1, 537083, Note_on_c, 2, 76, 107
1, 537084, Note_on_c, 4, 55, 127
1, 537115, Note_off_c, 2, 69, 64
1, 537122, Note_on_c, 2, 67, 127
1, 537156, Note_off_c, 4, 55, 64
1, 537162, Note_off_c, 4, 57, 64
1, 537163, Note_on_c, 4, 55, 127
1, 537198, Note_off_c, 2, 67, 64
1, 537204, Note_on_c, 2, 67, 127
1, 537240, Note_off_c, 4, 55, 64
1, 537246, Note_on_c, 2, 69, 113
1, 537247, Note_on_c, 4, 54, 127
1, 537249, Note_off_c, 2, 76, 64
1, 537249, Note_off_c, 2, 73, 64
1, 537278, Note_off_c, 2, 67, 64
1, 537286, Note_on_c, 4, 66, 127
1, 537323, Note_off_c, 4, 54, 64
1, 537328, Note_on_c, 1, 81, 104
1, 537329, Note_on_c, 4, 54, 127
1, 537364, Note_off_c, 4, 66, 64
1, 537370, Note_on_c, 4, 66, 127
1, 537406, Note_off_c, 4, 54, 64
1, 537416, Note_off_c, 2, 69, 64
1, 537420, Note_on_c, 2, 73, 107
1, 537420, Note_on_c, 4, 52, 127
1, 537449, Note_off_c, 4, 66, 64
1, 537461, Note_on_c, 4, 64, 127
1, 537496, Note_off_c, 4, 52, 64
1, 537497, Note_on_c, 1, 79, 104
1, 537499, Note_off_c, 1, 81, 64
1, 537504, Note_on_c, 4, 52, 127
1, 537538, Note_off_c, 4, 64, 64
1, 537544, Note_on_c, 4, 64, 127
1, 537580, Note_off_c, 4, 52, 64
1, 537586, Note_on_c, 2, 74, 107
1, 537587, Note_on_c, 4, 50, 127
1, 537589, Note_off_c, 2, 73, 64
1, 537621, Note_off_c, 4, 64, 64
1, 537627, Note_on_c, 4, 62, 127
1, 537663, Note_off_c, 4, 50, 64
1, 537664, Note_on_c, 1, 78, 104
1, 537666, Note_off_c, 1, 79, 64
1, 537669, Note_on_c, 4, 50, 127
1, 537703, Note_off_c, 4, 62, 64
1, 537709, Note_on_c, 4, 62, 127
1, 537745, Note_off_c, 4, 50, 64
1, 537751, Note_on_c, 2, 70, 108
1, 537752, Note_on_c, 4, 49, 127
1, 537754, Note_off_c, 2, 74, 64
1, 537788, Note_off_c, 4, 62, 64
1, 537794, Note_on_c, 4, 61, 127
1, 537829, Note_off_c, 4, 49, 64
1, 537832, Note_off_c, 1, 78, 64
1, 537836, Note_on_c, 2, 76, 107
1, 537837, Note_on_c, 4, 49, 127
1, 537870, Note_off_c, 4, 61, 64
1, 537877, Note_on_c, 4, 61, 127
1, 537912, Note_off_c, 4, 49, 64
1, 537913, Note_off_c, 2, 76, 64
1, 537919, Note_on_c, 2, 74, 107
1, 537920, Note_on_c, 2, 71, 106
1, 537920, Note_on_c, 4, 47, 127
1, 537922, Note_off_c, 2, 70, 64
1, 537954, Note_off_c, 4, 61, 64
1, 537960, Note_on_c, 4, 59, 127
1, 537996, Note_off_c, 4, 47, 64
1, 537997, Note_on_c, 1, 86, 104
1, 538002, Note_on_c, 4, 47, 127
1, 538038, Note_off_c, 4, 59, 64
1, 538044, Note_on_c, 4, 59, 127
1, 538079, Note_off_c, 4, 47, 64
1, 538079, Note_on_c, 1, 78, 104
1, 538085, Note_on_c, 4, 45, 127
1, 538089, Note_off_c, 2, 74, 64
1, 538089, Note_off_c, 2, 71, 64
1, 538123, Note_off_c, 4, 59, 64
1, 538128, Note_on_c, 4, 57, 127
1, 538163, Note_off_c, 4, 45, 64
1, 538163, Note_on_c, 1, 84, 104
1, 538164, Note_off_c, 1, 86, 64
1, 538168, Note_on_c, 4, 45, 127
1, 538204, Note_off_c, 4, 57, 64
1, 538210, Note_on_c, 4, 57, 127
1, 538245, Note_off_c, 4, 45, 64
1, 538245, Note_on_c, 1, 79, 104
1, 538248, Note_off_c, 1, 78, 64
1, 538251, Note_on_c, 4, 43, 127
1, 538288, Note_off_c, 4, 57, 64
1, 538294, Note_on_c, 4, 55, 127
1, 538328, Note_off_c, 4, 43, 64
1, 538329, Note_off_c, 1, 84, 64
1, 538329, Note_on_c, 1, 83, 104
1, 538333, Note_on_c, 4, 43, 127
1, 538369, Note_off_c, 4, 55, 64
1, 538375, Note_on_c, 4, 55, 127
1, 538412, Note_off_c, 4, 43, 64
1, 538416, Note_off_c, 1, 79, 64
1, 538419, Note_on_c, 2, 74, 107
1, 538420, Note_on_c, 4, 42, 127
1, 538455, Note_off_c, 4, 55, 64
1, 538461, Note_on_c, 4, 54, 127
1, 538495, Note_off_c, 4, 42, 64
1, 538496, Note_on_c, 1, 82, 104
1, 538498, Note_off_c, 1, 83, 64
1, 538502, Note_on_c, 4, 42, 127
1, 538538, Note_off_c, 4, 54, 64
1, 538545, Note_on_c, 4, 54, 127
1, 538580, Note_off_c, 4, 42, 64
1, 538586, Note_on_c, 4, 55, 127
1, 538586, Note_on_c, 2, 71, 106
1, 538587, Note_on_c, 4, 43, 127
1, 538589, Note_off_c, 2, 74, 64
1, 538612, Note_off_c, 1, 82, 64
1, 538618, Note_off_c, 4, 54, 64
1, 538619, Note_on_c, 1, 83, 104
1, 538659, Note_off_c, 2, 71, 64
1, 538665, Note_on_c, 2, 71, 106
1, 538694, Note_off_c, 1, 83, 64
1, 538700, Note_on_c, 1, 83, 104
1, 538738, Note_off_c, 2, 71, 64
1, 538746, Note_on_c, 4, 64, 127
1, 538775, Note_off_c, 1, 83, 64
1, 538784, Note_on_c, 2, 76, 107
1, 538817, Note_off_c, 4, 64, 64
1, 538823, Note_on_c, 4, 64, 127
1, 538859, Note_off_c, 2, 76, 64
1, 538865, Note_on_c, 2, 76, 107
1, 538897, Note_off_c, 4, 64, 64
1, 538903, Note_off_c, 4, 43, 64
1, 538904, Note_off_c, 4, 55, 64
1, 538904, Note_on_c, 2, 67, 127
1, 538905, Note_on_c, 4, 45, 127
1, 538905, Note_on_c, 4, 57, 127
1, 538938, Note_off_c, 2, 76, 64
1, 538938, Note_on_c, 1, 79, 104
1, 538979, Note_off_c, 2, 67, 64
1, 538980, Note_on_c, 2, 67, 127
1, 539013, Note_off_c, 1, 79, 64
1, 539018, Note_on_c, 1, 79, 104
1, 539053, Note_off_c, 2, 67, 64
1, 539059, Note_on_c, 4, 61, 127
1, 539093, Note_off_c, 1, 79, 64
1, 539101, Note_on_c, 2, 73, 107
1, 539136, Note_off_c, 4, 61, 64
1, 539141, Note_on_c, 4, 61, 127
1, 539176, Note_off_c, 2, 73, 64
1, 539182, Note_on_c, 2, 73, 107
1, 539212, Note_off_c, 2, 73, 64
1, 539213, Note_off_c, 4, 61, 64
1, 539218, Note_on_c, 2, 74, 107
1, 539219, Note_on_c, 4, 50, 127
1, 539219, Note_on_c, 4, 62, 127
1, 539224, Note_off_c, 4, 45, 64
1, 539225, Note_off_c, 4, 57, 64
1, 539375, Note_on_c, 4, 38, 127
1, 539472, Note_off_c, 2, 74, 64
1, 539472, Note_off_c, 4, 62, 64
1, 539472, Note_off_c, 4, 50, 64
1, 539793, Note_off_c, 4, 38, 64
1, 539895, Note_on_c, 1, 81, 110
1, 539991, Note_on_c, 1, 79, 110
1, 539999, Note_off_c, 1, 81, 64
1, 540079, Note_on_c, 1, 78, 110
1, 540095, Note_off_c, 1, 79, 64
1, 540172, Note_on_c, 2, 76, 113
1, 540183, Note_off_c, 1, 78, 64
1, 540251, Note_off_c, 2, 76, 64
1, 540260, Note_on_c, 2, 76, 117
1, 540265, Note_on_c, 4, 62, 127
1, 540285, Note_on_c, 2, 74, 117
1, 540288, Note_off_c, 2, 76, 64
1, 540310, Note_on_c, 4, 66, 127
1, 540348, Note_off_c, 4, 62, 64
1, 540354, Note_on_c, 2, 69, 119
1, 540392, Note_off_c, 4, 66, 64
1, 540398, Note_on_c, 4, 66, 127
1, 540432, Note_off_c, 2, 74, 64
1, 540437, Note_off_c, 2, 69, 64
1, 540443, Note_on_c, 4, 62, 127
1, 540446, Note_on_c, 2, 74, 117
1, 540481, Note_off_c, 4, 66, 64
1, 540487, Note_on_c, 4, 66, 127
1, 540523, Note_off_c, 4, 62, 64
1, 540531, Note_on_c, 2, 69, 119
1, 540567, Note_off_c, 4, 66, 64
1, 540575, Note_on_c, 4, 66, 127
1, 540613, Note_off_c, 2, 69, 64
1, 540619, Note_on_c, 4, 59, 127
1, 540658, Note_off_c, 4, 66, 64
1, 540665, Note_on_c, 4, 62, 127
1, 540704, Note_off_c, 4, 59, 64
1, 540709, Note_on_c, 4, 66, 127
1, 540713, Note_off_c, 2, 74, 64
1, 540715, Note_on_c, 2, 76, 117
1, 540734, Note_on_c, 2, 74, 117
1, 540738, Note_off_c, 2, 76, 64
1, 540754, Note_off_c, 4, 62, 64
1, 540757, Note_off_c, 2, 74, 64
1, 540758, Note_on_c, 2, 73, 117
1, 540762, Note_on_c, 4, 62, 127
1, 540780, Note_on_c, 2, 74, 117
1, 540781, Note_off_c, 2, 73, 64
1, 540803, Note_off_c, 4, 66, 64
1, 540806, Note_off_c, 2, 74, 64
1, 540807, Note_on_c, 2, 76, 117
1, 540809, Note_on_c, 4, 59, 127
1, 540845, Note_off_c, 4, 62, 64
1, 540852, Note_on_c, 4, 62, 127
1, 540891, Note_off_c, 4, 59, 64
1, 540899, Note_on_c, 4, 66, 127
1, 540900, Note_off_c, 2, 76, 64
1, 540901, Note_on_c, 1, 78, 114
1, 540936, Note_off_c, 4, 62, 64
1, 540942, Note_on_c, 4, 62, 127
1, 540978, Note_off_c, 4, 66, 64
1, 540984, Note_on_c, 2, 76, 117
1, 540984, Note_on_c, 4, 55, 127
1, 540986, Note_off_c, 1, 78, 64
1, 541022, Note_off_c, 4, 62, 64
1, 541028, Note_on_c, 4, 59, 127
1, 541065, Note_off_c, 4, 55, 64
1, 541070, Note_on_c, 1, 79, 114
1, 541071, Note_on_c, 4, 64, 127
1, 541073, Note_off_c, 2, 76, 64
1, 541108, Note_off_c, 4, 59, 64
1, 541114, Note_on_c, 4, 59, 127
1, 541152, Note_off_c, 4, 64, 64
1, 541158, Note_on_c, 4, 55, 127
1, 541196, Note_off_c, 4, 59, 64
1, 541202, Note_on_c, 4, 59, 127
1, 541238, Note_off_c, 4, 55, 64
1, 541244, Note_on_c, 4, 64, 127
1, 541252, Note_on_c, 2, 76, 117
1, 541260, Note_off_c, 1, 79, 64
1, 541283, Note_off_c, 4, 59, 64
1, 541290, Note_on_c, 4, 59, 127
1, 541329, Note_off_c, 4, 64, 64
1, 541336, Note_on_c, 2, 74, 117
1, 541337, Note_on_c, 4, 57, 127
1, 541343, Note_off_c, 2, 76, 64
1, 541372, Note_off_c, 4, 59, 64
1, 541378, Note_on_c, 4, 64, 127
1, 541414, Note_off_c, 4, 57, 64
1, 541420, Note_off_c, 2, 74, 64
1, 541420, Note_on_c, 2, 73, 117
1, 541421, Note_on_c, 2, 67, 127
1, 541457, Note_off_c, 4, 64, 64
1, 541465, Note_on_c, 4, 64, 127
1, 541501, Note_off_c, 2, 67, 64
1, 541503, Note_on_c, 2, 71, 116
1, 541507, Note_off_c, 2, 73, 64
1, 541508, Note_on_c, 4, 57, 127
1, 541546, Note_off_c, 4, 64, 64
1, 541553, Note_on_c, 4, 64, 127
1, 541592, Note_off_c, 4, 57, 64
1, 541594, Note_off_c, 2, 71, 64
1, 541598, Note_on_c, 2, 67, 127
1, 541599, Note_on_c, 2, 69, 119
1, 541638, Note_off_c, 4, 64, 64
1, 541644, Note_on_c, 4, 64, 127
1, 541682, Note_off_c, 2, 67, 64
1, 541682, Note_off_c, 2, 69, 64
1, 541689, Note_on_c, 2, 69, 119
1, 541689, Note_on_c, 4, 62, 127
1, 541725, Note_off_c, 4, 64, 64
1, 541731, Note_on_c, 4, 66, 127
1, 541767, Note_off_c, 4, 62, 64
1, 541773, Note_on_c, 2, 69, 119
1, 541775, Note_on_c, 1, 81, 114
1, 541808, Note_off_c, 2, 69, 64
1, 541812, Note_off_c, 4, 66, 64
1, 541817, Note_on_c, 4, 66, 127
1, 541835, Note_off_c, 2, 69, 64
1, 541860, Note_on_c, 1, 78, 110
1, 541862, Note_on_c, 4, 54, 127
1, 541863, Note_off_c, 1, 81, 64
1, 541904, Note_on_c, 4, 57, 127
1, 541938, Note_off_c, 4, 66, 64
1, 541939, Note_off_c, 4, 54, 64
1, 541944, Note_off_c, 1, 78, 64
1, 541946, Note_on_c, 4, 62, 127
1, 541950, Note_on_c, 2, 74, 113
1, 541982, Note_off_c, 4, 57, 64
1, 541988, Note_on_c, 4, 57, 127
1, 542025, Note_off_c, 4, 62, 64
1, 542030, Note_on_c, 4, 55, 127
1, 542031, Note_on_c, 2, 71, 116
1, 542034, Note_off_c, 2, 74, 64
1, 542065, Note_off_c, 4, 57, 64
1, 542073, Note_on_c, 4, 59, 127
1, 542109, Note_off_c, 4, 55, 64
1, 542115, Note_on_c, 4, 62, 127
1, 542117, Note_off_c, 2, 71, 64
1, 542123, Note_on_c, 1, 86, 114
1, 542153, Note_off_c, 4, 59, 64
1, 542161, Note_on_c, 4, 59, 127
1, 542196, Note_off_c, 4, 62, 64
1, 542204, Note_on_c, 4, 55, 127
1, 542209, Note_off_c, 1, 86, 64
1, 542209, Note_on_c, 1, 85, 114
1, 542240, Note_off_c, 4, 59, 64
1, 542246, Note_on_c, 4, 59, 127
1, 542247, Note_on_c, 1, 83, 110
1, 542249, Note_off_c, 1, 85, 64
1, 542284, Note_off_c, 4, 55, 64
1, 542288, Note_off_c, 1, 83, 64
1, 542290, Note_on_c, 1, 81, 110
1, 542290, Note_on_c, 4, 64, 127
1, 542327, Note_off_c, 4, 59, 64
1, 542331, Note_off_c, 1, 81, 64
1, 542331, Note_on_c, 1, 79, 110
1, 542334, Note_on_c, 4, 59, 127
1, 542372, Note_off_c, 4, 64, 64
1, 542380, Note_on_c, 4, 57, 127
1, 542380, Note_on_c, 1, 78, 110
1, 542383, Note_off_c, 1, 79, 64
1, 542416, Note_off_c, 4, 59, 64
1, 542423, Note_on_c, 4, 62, 127
1, 542460, Note_off_c, 4, 57, 64
1, 542468, Note_on_c, 4, 66, 127
1, 542505, Note_off_c, 4, 62, 64
1, 542508, Note_on_c, 1, 81, 114
1, 542510, Note_on_c, 4, 62, 127
1, 542512, Note_off_c, 1, 78, 64
1, 542547, Note_off_c, 4, 66, 64
1, 542553, Note_on_c, 4, 57, 127
1, 542556, Note_on_c, 2, 76, 117
1, 542557, Note_off_c, 1, 81, 64
1, 542589, Note_off_c, 4, 62, 64
1, 542597, Note_on_c, 4, 61, 127
1, 542631, Note_off_c, 4, 57, 64
1, 542640, Note_on_c, 4, 64, 127
1, 542676, Note_off_c, 4, 61, 64
1, 542682, Note_on_c, 4, 61, 127
1, 542718, Note_off_c, 4, 64, 64
1, 542724, Note_on_c, 4, 57, 127
1, 542760, Note_off_c, 4, 61, 64
1, 542814, Note_on_c, 1, 78, 110
1, 542815, Note_off_c, 2, 76, 64
1, 542899, Note_off_c, 1, 78, 64
1, 542899, Note_on_c, 1, 79, 110
1, 542990, Note_off_c, 1, 79, 64
1, 542990, Note_on_c, 1, 80, 110
1, 543072, Note_on_c, 4, 54, 127
1, 543079, Note_off_c, 4, 57, 64
1, 543081, Note_on_c, 1, 81, 110
1, 543083, Note_off_c, 1, 80, 64
1, 543118, Note_on_c, 4, 57, 127
1, 543156, Note_off_c, 4, 54, 64
1, 543164, Note_on_c, 4, 62, 127
1, 543202, Note_off_c, 4, 57, 64
1, 543208, Note_on_c, 4, 57, 127
1, 543245, Note_off_c, 4, 62, 64
1, 543253, Note_on_c, 4, 54, 127
1, 543255, Note_on_c, 1, 79, 110
1, 543259, Note_off_c, 1, 81, 64
1, 543290, Note_off_c, 4, 57, 64
1, 543296, Note_on_c, 1, 78, 110
1, 543298, Note_on_c, 4, 57, 127
1, 543300, Note_off_c, 1, 79, 64
1, 543336, Note_off_c, 4, 54, 64
1, 543342, Note_off_c, 1, 78, 64
1, 543343, Note_on_c, 2, 76, 117
1, 543345, Note_on_c, 4, 62, 127
1, 543384, Note_off_c, 4, 57, 64
1, 543385, Note_on_c, 2, 74, 117
1, 543389, Note_off_c, 2, 76, 64
1, 543391, Note_on_c, 4, 57, 127
1, 543430, Note_off_c, 4, 62, 64
1, 543433, Note_off_c, 2, 74, 64
1, 543437, Note_on_c, 4, 53, 127
1, 543438, Note_on_c, 2, 74, 117
1, 543474, Note_off_c, 4, 57, 64
1, 543481, Note_on_c, 4, 57, 127
1, 543520, Note_off_c, 4, 53, 64
1, 543526, Note_on_c, 4, 62, 127
1, 543564, Note_off_c, 4, 57, 64
1, 543572, Note_on_c, 4, 57, 127
1, 543610, Note_off_c, 4, 62, 64
1, 543611, Note_off_c, 2, 74, 64
1, 543617, Note_on_c, 2, 74, 117
1, 543617, Note_on_c, 4, 53, 127
1, 543654, Note_off_c, 4, 57, 64
1, 543662, Note_on_c, 4, 57, 127
1, 543700, Note_off_c, 4, 53, 64
1, 543706, Note_on_c, 4, 62, 127
1, 543744, Note_off_c, 4, 57, 64
1, 543752, Note_on_c, 4, 57, 127
1, 543791, Note_off_c, 4, 62, 64
1, 543796, Note_on_c, 4, 52, 127
1, 543798, Note_on_c, 1, 86, 114
1, 543804, Note_off_c, 2, 74, 64
1, 543833, Note_off_c, 4, 57, 64
1, 543839, Note_on_c, 4, 56, 127
1, 543875, Note_off_c, 4, 52, 64
1, 543883, Note_on_c, 4, 59, 127
1, 543917, Note_off_c, 4, 56, 64
1, 543925, Note_on_c, 4, 56, 127
1, 543961, Note_off_c, 4, 59, 64
1, 543968, Note_on_c, 4, 52, 127
1, 544006, Note_off_c, 4, 56, 64
1, 544013, Note_on_c, 4, 56, 127
1, 544049, Note_off_c, 4, 52, 64
1, 544056, Note_on_c, 4, 59, 127
1, 544093, Note_off_c, 4, 56, 64
1, 544101, Note_on_c, 4, 56, 127
1, 544103, Note_on_c, 1, 83, 114
1, 544106, Note_off_c, 1, 86, 64
1, 544137, Note_off_c, 4, 59, 64
1, 544145, Note_on_c, 4, 52, 127
1, 544151, Note_on_c, 1, 80, 114
1, 544154, Note_off_c, 1, 83, 64
1, 544181, Note_off_c, 4, 56, 64
1, 544189, Note_on_c, 4, 56, 127
1, 544225, Note_off_c, 4, 52, 64
1, 544231, Note_on_c, 4, 59, 127
1, 544270, Note_off_c, 4, 56, 64
1, 544275, Note_on_c, 4, 56, 127
1, 544314, Note_off_c, 4, 59, 64
1, 544318, Note_off_c, 1, 80, 64
1, 544318, Note_on_c, 2, 74, 117
1, 544320, Note_off_c, 4, 56, 64
1, 544321, Note_on_c, 4, 56, 127
1, 544364, Note_on_c, 4, 59, 127
1, 544400, Note_off_c, 4, 56, 64
1, 544408, Note_on_c, 4, 64, 127
1, 544444, Note_off_c, 4, 59, 64
1, 544451, Note_on_c, 4, 59, 127
1, 544485, Note_off_c, 2, 74, 64
1, 544488, Note_off_c, 4, 64, 64
1, 544496, Note_on_c, 2, 73, 117
1, 544497, Note_on_c, 4, 57, 127
1, 544534, Note_off_c, 4, 59, 64
1, 544541, Note_on_c, 2, 74, 117
1, 544547, Note_off_c, 2, 73, 64
1, 544585, Note_on_c, 2, 75, 117
1, 544593, Note_off_c, 2, 74, 64
1, 544628, Note_on_c, 2, 76, 117
1, 544637, Note_off_c, 2, 75, 64
1, 544670, Note_on_c, 4, 50, 127
1, 544670, Note_on_c, 2, 77, 117
1, 544679, Note_off_c, 2, 76, 64
1, 544679, Note_off_c, 4, 57, 64
1, 544718, Note_on_c, 1, 78, 114
1, 544720, Note_off_c, 2, 77, 64
1, 544760, Note_on_c, 1, 80, 114
1, 544768, Note_off_c, 1, 78, 64
1, 544802, Note_on_c, 1, 81, 114
1, 544810, Note_off_c, 1, 80, 64
1, 544835, Note_off_c, 4, 50, 64
1, 544843, Note_on_c, 4, 57, 127
1, 544843, Note_on_c, 4, 52, 127
1, 544850, Note_on_c, 2, 73, 117
1, 544853, Note_off_c, 1, 81, 64
1, 544890, Note_on_c, 2, 74, 117
1, 544900, Note_off_c, 2, 73, 64
1, 544934, Note_on_c, 2, 75, 117
1, 544940, Note_off_c, 2, 74, 64
1, 544974, Note_on_c, 2, 76, 117
1, 544984, Note_off_c, 2, 75, 64
1, 545007, Note_off_c, 4, 52, 64
1, 545007, Note_off_c, 4, 57, 64
1, 545014, Note_on_c, 4, 56, 127
1, 545014, Note_on_c, 2, 76, 117
1, 545015, Note_off_c, 2, 76, 64
1, 545015, Note_on_c, 4, 52, 127
1, 545058, Note_on_c, 2, 74, 117
1, 545064, Note_off_c, 2, 76, 64
1, 545102, Note_on_c, 2, 73, 117
1, 545110, Note_off_c, 2, 74, 64
1, 545145, Note_on_c, 2, 71, 116
1, 545154, Note_off_c, 2, 73, 64
1, 545196, Note_off_c, 2, 71, 64
1, 545199, Note_on_c, 2, 71, 108
1, 545200, Note_on_c, 4, 62, 127
1, 545200, Note_on_c, 4, 64, 118
1, 545201, Note_on_c, 4, 45, 127
1, 545201, Note_on_c, 4, 57, 127
1, 545202, Note_off_c, 4, 52, 64
1, 545202, Note_off_c, 4, 56, 64
1, 545365, Note_off_c, 2, 71, 64
1, 545366, Note_off_c, 4, 62, 64
1, 545366, Note_off_c, 4, 57, 64
1, 545380, Note_on_c, 4, 61, 127
1, 545380, Note_on_c, 2, 69, 118
1, 545438, Note_off_c, 4, 64, 64
1, 545551, Note_on_c, 1, 80, 110
1, 545595, Note_on_c, 1, 81, 110
1, 545597, Note_off_c, 2, 69, 64
1, 545601, Note_off_c, 1, 80, 64
1, 545634, Note_on_c, 1, 83, 110
1, 545644, Note_off_c, 1, 81, 64
1, 545675, Note_on_c, 1, 81, 110
1, 545684, Note_off_c, 1, 83, 64
1, 545711, Note_off_c, 1, 81, 64
1, 545717, Note_on_c, 1, 81, 110
1, 545726, Note_off_c, 4, 61, 64
1, 545763, Note_on_c, 1, 79, 110
1, 545769, Note_off_c, 1, 81, 64
1, 545807, Note_on_c, 1, 78, 110
1, 545815, Note_off_c, 1, 79, 64
1, 545849, Note_on_c, 2, 76, 113
1, 545859, Note_off_c, 1, 78, 64
1, 545895, Note_off_c, 2, 76, 64
1, 545897, Note_on_c, 4, 62, 127
1, 545899, Note_on_c, 2, 76, 113
1, 545920, Note_off_c, 4, 45, 64
1, 545921, Note_on_c, 2, 74, 117
1, 545923, Note_off_c, 2, 76, 64
1, 545944, Note_on_c, 4, 66, 127
1, 545983, Note_off_c, 4, 62, 64
1, 545988, Note_on_c, 2, 69, 118
1, 546025, Note_off_c, 4, 66, 64
1, 546031, Note_on_c, 4, 66, 127
1, 546065, Note_off_c, 2, 74, 64
1, 546067, Note_off_c, 2, 69, 64
1, 546073, Note_on_c, 4, 62, 127
1, 546077, Note_on_c, 2, 74, 117
1, 546109, Note_off_c, 4, 66, 64
1, 546117, Note_on_c, 4, 66, 127
1, 546152, Note_off_c, 4, 62, 64
1, 546159, Note_on_c, 2, 69, 118
1, 546196, Note_off_c, 4, 66, 64
1, 546202, Note_on_c, 4, 66, 127
1, 546238, Note_off_c, 2, 69, 64
1, 546244, Note_on_c, 4, 59, 127
1, 546280, Note_off_c, 4, 66, 64
1, 546286, Note_on_c, 4, 62, 127
1, 546290, Note_off_c, 2, 74, 64
1, 546290, Note_on_c, 1, 85, 110
1, 546322, Note_off_c, 4, 59, 64
1, 546327, Note_on_c, 4, 66, 127
1, 546331, Note_on_c, 1, 86, 110
1, 546339, Note_off_c, 1, 85, 64
1, 546366, Note_off_c, 4, 62, 64
1, 546373, Note_on_c, 4, 62, 127
1, 546375, Note_on_c, 1, 85, 110
1, 546383, Note_off_c, 1, 86, 64
1, 546408, Note_off_c, 4, 66, 64
1, 546414, Note_on_c, 4, 59, 127
1, 546416, Note_on_c, 1, 86, 110
1, 546425, Note_off_c, 1, 85, 64
1, 546451, Note_off_c, 4, 62, 64
1, 546456, Note_on_c, 4, 62, 127
1, 546460, Note_on_c, 1, 83, 114
1, 546479, Note_off_c, 1, 86, 64
1, 546492, Note_off_c, 4, 59, 64
1, 546498, Note_on_c, 4, 66, 127
1, 546502, Note_on_c, 1, 86, 110
1, 546523, Note_off_c, 1, 83, 64
1, 546535, Note_off_c, 4, 62, 64
1, 546540, Note_on_c, 4, 62, 127
1, 546548, Note_on_c, 1, 78, 114
1, 546565, Note_off_c, 1, 86, 64
1, 546577, Note_off_c, 4, 66, 64
1, 546590, Note_on_c, 4, 55, 127
1, 546592, Note_on_c, 2, 76, 117
1, 546612, Note_off_c, 1, 78, 64
1, 546617, Note_off_c, 4, 62, 64
1, 546623, Note_on_c, 4, 59, 127
1, 546665, Note_off_c, 4, 55, 64
1, 546666, Note_on_c, 4, 64, 127
1, 546701, Note_off_c, 4, 59, 64
1, 546708, Note_on_c, 2, 75, 113
1, 546709, Note_off_c, 2, 76, 64
1, 546709, Note_on_c, 4, 59, 127
1, 546742, Note_off_c, 4, 64, 64
1, 546748, Note_on_c, 4, 55, 127
1, 546754, Note_on_c, 2, 76, 113
1, 546756, Note_off_c, 2, 75, 64
1, 546784, Note_off_c, 4, 59, 64
1, 546791, Note_on_c, 4, 59, 127
1, 546794, Note_on_c, 1, 78, 106
1, 546802, Note_off_c, 2, 76, 64
1, 546827, Note_off_c, 4, 55, 64
1, 546832, Note_on_c, 4, 64, 127
1, 546836, Note_on_c, 1, 79, 106
1, 546842, Note_off_c, 1, 78, 64
1, 546871, Note_off_c, 4, 59, 64
1, 546876, Note_on_c, 4, 59, 127
1, 546878, Note_on_c, 2, 76, 109
1, 546886, Note_off_c, 1, 79, 64
1, 546911, Note_off_c, 4, 64, 64
1, 546917, Note_on_c, 4, 57, 127
1, 546921, Note_on_c, 2, 74, 109
1, 546925, Note_off_c, 2, 76, 64
1, 546952, Note_off_c, 4, 59, 64
1, 546957, Note_on_c, 4, 64, 127
1, 546988, Note_off_c, 2, 74, 64
1, 546992, Note_off_c, 4, 57, 64
1, 546996, Note_on_c, 2, 73, 113
1, 546997, Note_on_c, 2, 67, 127
1, 547031, Note_off_c, 4, 64, 64
1, 547036, Note_on_c, 4, 64, 127
1, 547071, Note_off_c, 2, 73, 64
1, 547072, Note_off_c, 2, 67, 64
1, 547079, Note_on_c, 4, 57, 127
1, 547086, Note_on_c, 2, 73, 105
1, 547105, Note_on_c, 2, 71, 104
1, 547109, Note_off_c, 2, 73, 64
1, 547121, Note_on_c, 2, 73, 105
1, 547128, Note_off_c, 2, 71, 64
1, 547136, Note_off_c, 4, 64, 64
1, 547138, Note_on_c, 2, 71, 104
1, 547144, Note_off_c, 2, 73, 64
1, 547144, Note_on_c, 4, 64, 127
1, 547153, Note_on_c, 2, 73, 105
1, 547159, Note_off_c, 2, 71, 64
1, 547168, Note_on_c, 2, 71, 104
1, 547173, Note_off_c, 2, 73, 64
1, 547180, Note_on_c, 2, 73, 105
1, 547186, Note_off_c, 2, 71, 64
1, 547191, Note_off_c, 4, 57, 64
1, 547193, Note_on_c, 2, 71, 104
1, 547198, Note_off_c, 2, 73, 64
1, 547198, Note_on_c, 2, 67, 127
1, 547202, Note_off_c, 2, 71, 64
1, 547203, Note_on_c, 2, 69, 118
1, 547213, Note_off_c, 2, 67, 64
1, 547233, Note_off_c, 4, 64, 64
1, 547239, Note_on_c, 4, 64, 127
1, 547273, Note_off_c, 2, 69, 64
1, 547283, Note_on_c, 2, 69, 118
1, 547283, Note_on_c, 4, 62, 127
1, 547288, Note_off_c, 4, 64, 64
1, 547319, Note_on_c, 1, 81, 110
1, 547319, Note_on_c, 4, 66, 127
1, 547350, Note_off_c, 4, 62, 64
1, 547354, Note_off_c, 2, 69, 64
1, 547355, Note_on_c, 2, 69, 118
1, 547387, Note_off_c, 4, 66, 64
1, 547388, Note_on_c, 4, 66, 127
1, 547427, Note_off_c, 2, 69, 64
1, 547428, Note_off_c, 1, 81, 64
1, 547429, Note_on_c, 1, 81, 110
1, 547430, Note_on_c, 4, 54, 127
1, 547444, Note_on_c, 1, 79, 110
1, 547446, Note_off_c, 1, 81, 64
1, 547454, Note_on_c, 1, 78, 110
1, 547456, Note_off_c, 1, 79, 64
1, 547482, Note_off_c, 4, 66, 64
1, 547485, Note_on_c, 4, 57, 127
1, 547519, Note_off_c, 4, 54, 64
1, 547523, Note_off_c, 1, 78, 64
1, 547525, Note_on_c, 1, 78, 110
1, 547527, Note_on_c, 4, 62, 127
1, 547533, Note_off_c, 1, 78, 64
1, 547535, Note_on_c, 2, 76, 113
1, 547557, Note_on_c, 2, 74, 113
1, 547566, Note_off_c, 2, 76, 64
1, 547579, Note_off_c, 4, 57, 64
1, 547584, Note_on_c, 4, 57, 127
1, 547608, Note_off_c, 2, 74, 64
1, 547617, Note_off_c, 4, 62, 64
1, 547625, Note_on_c, 4, 55, 127
1, 547625, Note_on_c, 2, 71, 116
1, 547664, Note_on_c, 2, 74, 113
1, 547674, Note_off_c, 2, 71, 64
1, 547710, Note_on_c, 2, 73, 117
1, 547729, Note_off_c, 2, 74, 64
1, 547768, Note_on_c, 2, 71, 116
1, 547788, Note_off_c, 2, 73, 64
1, 547793, Note_off_c, 4, 57, 64
1, 547808, Note_on_c, 2, 73, 117
1, 547813, Note_off_c, 2, 71, 64
1, 547818, Note_on_c, 4, 59, 127
1, 547844, Note_off_c, 2, 73, 64
1, 547844, Note_on_c, 2, 74, 113
1, 547882, Note_on_c, 2, 76, 113
1, 547883, Note_off_c, 2, 74, 64
1, 547916, Note_off_c, 2, 76, 64
1, 547917, Note_on_c, 1, 78, 110
1, 547947, Note_off_c, 4, 55, 64
1, 547951, Note_off_c, 1, 78, 64
1, 547951, Note_on_c, 1, 79, 110
1, 547970, Note_on_c, 4, 62, 127
1, 547986, Note_on_c, 1, 81, 110
1, 547987, Note_off_c, 1, 79, 64
1, 548022, Note_on_c, 1, 83, 110
1, 548023, Note_off_c, 1, 81, 64
1, 548063, Note_off_c, 1, 83, 64
1, 548063, Note_on_c, 1, 85, 110
1, 548103, Note_on_c, 1, 86, 110
1, 548107, Note_off_c, 1, 85, 64
1, 548116, Note_off_c, 4, 59, 64
1, 548155, Note_on_c, 4, 59, 127
1, 548160, Note_on_c, 1, 85, 110
1, 548161, Note_off_c, 1, 86, 64
1, 548205, Note_off_c, 1, 85, 64
1, 548205, Note_on_c, 1, 86, 110
1, 548244, Note_off_c, 1, 86, 64
1, 548247, Note_on_c, 1, 85, 110
1, 548285, Note_off_c, 4, 62, 64
1, 548301, Note_on_c, 4, 55, 127
1, 548301, Note_on_c, 1, 88, 112
1, 548308, Note_off_c, 1, 85, 64
1, 548332, Note_off_c, 1, 88, 64
1, 548346, Note_on_c, 1, 86, 114
1, 548380, Note_off_c, 4, 59, 64
1, 548393, Note_off_c, 1, 86, 64
1, 548396, Note_on_c, 4, 59, 127
1, 548396, Note_on_c, 1, 85, 114
1, 548443, Note_on_c, 1, 83, 114
1, 548450, Note_off_c, 1, 85, 64
1, 548473, Note_off_c, 4, 55, 64
1, 548485, Note_on_c, 4, 64, 127
1, 548485, Note_on_c, 1, 85, 114
1, 548493, Note_off_c, 1, 83, 64
1, 548532, Note_on_c, 1, 83, 114
1, 548538, Note_off_c, 1, 85, 64
1, 548559, Note_off_c, 4, 59, 64
1, 548570, Note_on_c, 1, 81, 114
1, 548571, Note_on_c, 4, 59, 127
1, 548576, Note_off_c, 1, 83, 64
1, 548611, Note_off_c, 1, 81, 64
1, 548616, Note_on_c, 1, 79, 114
1, 548652, Note_off_c, 4, 64, 64
1, 548656, Note_off_c, 1, 79, 64
1, 548662, Note_on_c, 1, 79, 114
1, 548662, Note_on_c, 4, 57, 127
1, 548703, Note_off_c, 4, 59, 64
1, 548709, Note_on_c, 1, 78, 114
1, 548709, Note_on_c, 4, 62, 127
1, 548717, Note_off_c, 1, 79, 64
1, 548750, Note_off_c, 4, 57, 64
1, 548758, Note_on_c, 2, 76, 117
1, 548758, Note_on_c, 4, 66, 127
1, 548764, Note_off_c, 1, 78, 64
1, 548797, Note_off_c, 4, 62, 64
1, 548803, Note_on_c, 4, 62, 127
1, 548803, Note_on_c, 1, 79, 110
1, 548811, Note_off_c, 2, 76, 64
1, 548848, Note_off_c, 4, 66, 64
1, 548856, Note_on_c, 4, 57, 127
1, 548856, Note_on_c, 1, 80, 110
1, 548862, Note_off_c, 1, 79, 64
1, 548891, Note_off_c, 4, 62, 64
1, 548897, Note_on_c, 1, 81, 110
1, 548897, Note_on_c, 4, 61, 127
1, 548905, Note_off_c, 1, 80, 64
1, 548934, Note_off_c, 4, 57, 64
1, 548942, Note_on_c, 2, 76, 113
1, 548942, Note_on_c, 4, 64, 127
1, 548949, Note_off_c, 1, 81, 64
1, 548976, Note_off_c, 4, 61, 64
1, 548983, Note_on_c, 4, 61, 127
1, 549016, Note_off_c, 4, 64, 64
1, 549022, Note_on_c, 4, 57, 127
1, 549056, Note_off_c, 4, 61, 64
1, 549060, Note_off_c, 2, 76, 64
1, 549062, Note_on_c, 2, 76, 113
1, 549102, Note_on_c, 2, 75, 113
1, 549108, Note_off_c, 2, 76, 64
1, 549143, Note_on_c, 2, 76, 113
1, 549149, Note_off_c, 2, 75, 64
1, 549183, Note_on_c, 2, 77, 113
1, 549191, Note_off_c, 2, 76, 64
1, 549225, Note_on_c, 1, 78, 110
1, 549231, Note_off_c, 2, 77, 64
1, 549265, Note_on_c, 1, 79, 110
1, 549273, Note_off_c, 1, 78, 64
1, 549308, Note_on_c, 1, 80, 110
1, 549315, Note_off_c, 1, 79, 64
1, 549352, Note_on_c, 4, 54, 127
1, 549352, Note_on_c, 1, 81, 110
1, 549360, Note_off_c, 1, 80, 64
1, 549368, Note_off_c, 4, 57, 64
1, 549397, Note_on_c, 4, 57, 127
1, 549426, Note_off_c, 4, 54, 64
1, 549432, Note_on_c, 4, 62, 127
1, 549464, Note_off_c, 4, 57, 64
1, 549470, Note_on_c, 4, 57, 127
1, 549499, Note_off_c, 4, 62, 64
1, 549505, Note_off_c, 1, 81, 64
1, 549505, Note_on_c, 1, 79, 110
1, 549506, Note_on_c, 4, 54, 127
1, 549537, Note_off_c, 4, 57, 64
1, 549541, Note_off_c, 1, 79, 64
1, 549542, Note_on_c, 4, 57, 127
1, 549542, Note_on_c, 1, 78, 110
1, 549571, Note_off_c, 4, 54, 64
1, 549575, Note_off_c, 1, 78, 64
1, 549576, Note_on_c, 1, 78, 109
1, 549577, Note_on_c, 4, 62, 127
1, 549599, Note_on_c, 2, 76, 112
1, 549610, Note_off_c, 1, 78, 64
1, 549630, Note_on_c, 1, 78, 109
1, 549643, Note_off_c, 2, 76, 64
1, 549656, Note_on_c, 2, 76, 112
1, 549668, Note_off_c, 1, 78, 64
1, 549675, Note_off_c, 4, 57, 64
1, 549685, Note_on_c, 2, 74, 112
1, 549689, Note_off_c, 2, 76, 64
1, 549689, Note_on_c, 4, 57, 127
1, 549751, Note_off_c, 4, 62, 64
1, 549765, Note_off_c, 2, 74, 64
1, 549771, Note_on_c, 4, 53, 127
1, 549771, Note_on_c, 2, 76, 112
1, 549808, Note_on_c, 2, 74, 112
1, 549827, Note_off_c, 2, 76, 64
1, 549851, Note_on_c, 2, 76, 112
1, 549864, Note_off_c, 2, 74, 64
1, 549885, Note_on_c, 2, 74, 112
1, 549900, Note_off_c, 2, 76, 64
1, 549908, Note_off_c, 4, 57, 64
1, 549919, Note_on_c, 2, 76, 112
1, 549931, Note_on_c, 4, 57, 127
1, 549935, Note_off_c, 2, 74, 64
1, 549956, Note_on_c, 2, 74, 112
1, 549971, Note_off_c, 2, 76, 64
1, 549991, Note_on_c, 2, 76, 108
1, 550004, Note_off_c, 2, 74, 64
1, 550021, Note_on_c, 2, 74, 108
1, 550035, Note_off_c, 2, 76, 64
1, 550050, Note_off_c, 4, 53, 64
1, 550054, Note_on_c, 2, 76, 108
1, 550068, Note_off_c, 2, 74, 64
1, 550071, Note_on_c, 4, 62, 127
1, 550085, Note_on_c, 2, 74, 108
1, 550100, Note_off_c, 2, 76, 64
1, 550117, Note_on_c, 2, 76, 108
1, 550129, Note_off_c, 2, 74, 64
1, 550148, Note_on_c, 2, 74, 108
1, 550162, Note_off_c, 2, 76, 64
1, 550179, Note_on_c, 2, 76, 108
1, 550185, Note_off_c, 4, 57, 64
1, 550190, Note_off_c, 2, 74, 64
1, 550204, Note_on_c, 4, 57, 127
1, 550208, Note_on_c, 2, 74, 108
1, 550219, Note_off_c, 2, 76, 64
1, 550236, Note_on_c, 2, 73, 112
1, 550248, Note_off_c, 2, 74, 64
1, 550265, Note_on_c, 2, 74, 108
1, 550277, Note_off_c, 2, 73, 64
1, 550304, Note_off_c, 4, 62, 64
1, 550317, Note_on_c, 4, 53, 127
1, 550352, Note_off_c, 2, 74, 64
1, 550371, Note_on_c, 2, 76, 108
1, 550417, Note_on_c, 2, 74, 108
1, 550425, Note_off_c, 2, 76, 64
1, 550453, Note_off_c, 4, 57, 64
1, 550463, Note_on_c, 2, 73, 112
1, 550469, Note_off_c, 2, 74, 64
1, 550482, Note_on_c, 4, 57, 127
1, 550505, Note_on_c, 2, 74, 108
1, 550513, Note_off_c, 2, 73, 64
1, 550548, Note_on_c, 2, 75, 108
1, 550553, Note_off_c, 2, 74, 64
1, 550586, Note_on_c, 2, 76, 108
1, 550592, Note_off_c, 2, 75, 64
1, 550626, Note_on_c, 2, 77, 108
1, 550628, Note_off_c, 4, 53, 64
1, 550632, Note_off_c, 2, 76, 64
1, 550657, Note_on_c, 4, 62, 127
1, 550668, Note_on_c, 1, 78, 105
1, 550674, Note_off_c, 2, 77, 64
1, 550707, Note_on_c, 1, 79, 105
1, 550713, Note_off_c, 1, 78, 64
1, 550747, Note_on_c, 1, 80, 105
1, 550753, Note_off_c, 1, 79, 64
1, 550788, Note_on_c, 1, 81, 105
1, 550793, Note_off_c, 1, 80, 64
1, 550801, Note_off_c, 4, 57, 64
1, 550822, Note_on_c, 1, 82, 105
1, 550823, Note_on_c, 4, 57, 127
1, 550827, Note_off_c, 1, 81, 64
1, 550854, Note_on_c, 1, 83, 105
1, 550858, Note_off_c, 1, 82, 64
1, 550881, Note_on_c, 1, 84, 109
1, 550884, Note_off_c, 1, 83, 64
1, 550908, Note_on_c, 1, 85, 109
1, 550912, Note_off_c, 1, 84, 64
1, 550926, Note_off_c, 4, 62, 64
1, 550941, Note_on_c, 4, 52, 127
1, 550945, Note_off_c, 1, 85, 64
1, 550968, Note_on_c, 1, 86, 109
1, 551004, Note_on_c, 1, 88, 111
1, 551012, Note_off_c, 1, 86, 64
1, 551033, Note_on_c, 1, 86, 109
1, 551045, Note_off_c, 1, 88, 64
1, 551047, Note_off_c, 4, 57, 64
1, 551064, Note_on_c, 4, 56, 127
1, 551064, Note_on_c, 1, 88, 107
1, 551073, Note_off_c, 1, 86, 64
1, 551092, Note_on_c, 1, 86, 105
1, 551105, Note_off_c, 1, 88, 64
1, 551126, Note_on_c, 1, 88, 107
1, 551134, Note_off_c, 1, 86, 64
1, 551157, Note_on_c, 1, 86, 105
1, 551171, Note_off_c, 1, 88, 64
1, 551171, Note_off_c, 4, 52, 64
1, 551192, Note_on_c, 4, 59, 127
1, 551192, Note_on_c, 1, 88, 107
1, 551200, Note_off_c, 1, 86, 64
1, 551221, Note_on_c, 1, 86, 105
1, 551235, Note_off_c, 1, 88, 64
1, 551256, Note_on_c, 1, 88, 107
1, 551264, Note_off_c, 1, 86, 64
1, 551285, Note_on_c, 1, 86, 109
1, 551296, Note_off_c, 1, 88, 64
1, 551298, Note_off_c, 4, 56, 64
1, 551317, Note_on_c, 1, 85, 109
1, 551318, Note_on_c, 4, 56, 127
1, 551326, Note_off_c, 1, 86, 64
1, 551349, Note_off_c, 1, 85, 64
1, 551363, Note_on_c, 1, 86, 109
1, 551391, Note_off_c, 1, 86, 64
1, 551393, Note_off_c, 4, 59, 64
1, 551409, Note_on_c, 1, 85, 109
1, 551410, Note_on_c, 4, 52, 127
1, 551440, Note_on_c, 1, 83, 109
1, 551452, Note_off_c, 1, 85, 64
1, 551473, Note_on_c, 1, 85, 109
1, 551479, Note_off_c, 1, 83, 64
1, 551498, Note_on_c, 1, 83, 109
1, 551509, Note_off_c, 1, 85, 64
1, 551510, Note_off_c, 4, 56, 64
1, 551527, Note_on_c, 1, 85, 105
1, 551527, Note_on_c, 4, 56, 127
1, 551535, Note_off_c, 1, 83, 64
1, 551555, Note_on_c, 1, 83, 105
1, 551566, Note_off_c, 1, 85, 64
1, 551585, Note_on_c, 1, 85, 105
1, 551593, Note_off_c, 1, 83, 64
1, 551610, Note_on_c, 1, 83, 105
1, 551622, Note_off_c, 1, 85, 64
1, 551624, Note_off_c, 4, 52, 64
1, 551641, Note_on_c, 4, 59, 127
1, 551641, Note_on_c, 1, 85, 105
1, 551648, Note_off_c, 1, 83, 64
1, 551665, Note_on_c, 1, 83, 105
1, 551676, Note_off_c, 1, 85, 64
1, 551694, Note_on_c, 1, 85, 109
1, 551701, Note_off_c, 1, 83, 64
1, 551719, Note_on_c, 1, 83, 109
1, 551730, Note_off_c, 1, 85, 64
1, 551732, Note_off_c, 4, 56, 64
1, 551748, Note_on_c, 4, 56, 127
1, 551748, Note_on_c, 1, 82, 109
1, 551754, Note_off_c, 1, 83, 64
1, 551781, Note_off_c, 1, 82, 64
1, 551798, Note_on_c, 1, 83, 105
1, 551831, Note_off_c, 4, 59, 64
1, 551846, Note_on_c, 1, 81, 105
1, 551847, Note_on_c, 4, 52, 127
1, 551867, Note_off_c, 1, 83, 64
1, 551876, Note_on_c, 1, 80, 105
1, 551890, Note_off_c, 1, 81, 64
1, 551911, Note_on_c, 1, 81, 105
1, 551921, Note_off_c, 1, 80, 64
1, 551941, Note_on_c, 1, 80, 105
1, 551953, Note_off_c, 1, 81, 64
1, 551955, Note_off_c, 4, 56, 64
1, 551975, Note_on_c, 4, 56, 127
1, 551975, Note_on_c, 1, 81, 101
1, 551983, Note_off_c, 1, 80, 64
1, 552002, Note_on_c, 1, 80, 101
1, 552013, Note_off_c, 1, 81, 64
1, 552035, Note_on_c, 1, 81, 101
1, 552044, Note_off_c, 1, 80, 64
1, 552064, Note_on_c, 1, 80, 101
1, 552075, Note_off_c, 1, 81, 64
1, 552077, Note_off_c, 4, 52, 64
1, 552095, Note_on_c, 4, 59, 127
1, 552095, Note_on_c, 1, 81, 101
1, 552103, Note_off_c, 1, 80, 64
1, 552122, Note_on_c, 1, 80, 101
1, 552133, Note_off_c, 1, 81, 64
1, 552151, Note_on_c, 1, 81, 101
1, 552158, Note_off_c, 1, 80, 64
1, 552176, Note_on_c, 1, 80, 105
1, 552186, Note_off_c, 1, 81, 64
1, 552188, Note_off_c, 4, 56, 64
1, 552205, Note_on_c, 4, 56, 127
1, 552205, Note_on_c, 1, 78, 109
1, 552212, Note_off_c, 1, 80, 64
1, 552239, Note_off_c, 1, 78, 64
1, 552252, Note_on_c, 1, 80, 105
1, 552275, Note_off_c, 4, 56, 64
1, 552277, Note_off_c, 4, 59, 64
1, 552294, Note_on_c, 4, 56, 127
1, 552294, Note_on_c, 2, 76, 112
1, 552314, Note_off_c, 1, 80, 64
1, 552324, Note_on_c, 2, 74, 112
1, 552337, Note_off_c, 2, 76, 64
1, 552359, Note_on_c, 2, 76, 112
1, 552366, Note_off_c, 2, 74, 64
1, 552389, Note_on_c, 2, 74, 112
1, 552401, Note_off_c, 2, 76, 64
1, 552422, Note_on_c, 4, 59, 127
1, 552422, Note_on_c, 2, 76, 108
1, 552431, Note_off_c, 2, 74, 64
1, 552450, Note_on_c, 2, 74, 108
1, 552463, Note_off_c, 2, 76, 64
1, 552484, Note_on_c, 2, 76, 108
1, 552490, Note_off_c, 2, 74, 64
1, 552511, Note_on_c, 2, 74, 108
1, 552521, Note_off_c, 2, 76, 64
1, 552523, Note_off_c, 4, 56, 64
1, 552538, Note_on_c, 2, 76, 108
1, 552539, Note_on_c, 4, 64, 127
1, 552547, Note_off_c, 2, 74, 64
1, 552562, Note_on_c, 2, 74, 108
1, 552574, Note_off_c, 2, 76, 64
1, 552591, Note_on_c, 2, 76, 108
1, 552599, Note_off_c, 2, 74, 64
1, 552616, Note_on_c, 2, 74, 112
1, 552627, Note_off_c, 2, 76, 64
1, 552628, Note_off_c, 4, 59, 64
1, 552644, Note_on_c, 4, 59, 127
1, 552644, Note_on_c, 2, 73, 117
1, 552648, Note_off_c, 2, 74, 64
1, 552695, Note_on_c, 2, 74, 117
1, 552710, Note_off_c, 2, 73, 64
1, 552729, Note_off_c, 4, 64, 64
1, 552748, Note_on_c, 2, 73, 117
1, 552749, Note_on_c, 4, 57, 127
1, 552767, Note_off_c, 2, 74, 64
1, 552803, Note_on_c, 2, 74, 117
1, 552820, Note_off_c, 2, 73, 64
1, 552845, Note_off_c, 4, 59, 64
1, 552863, Note_on_c, 2, 73, 117
1, 552882, Note_off_c, 2, 74, 64
1, 552916, Note_on_c, 2, 74, 117
1, 552934, Note_off_c, 2, 73, 64
1, 552970, Note_on_c, 2, 75, 117
1, 552987, Note_off_c, 2, 74, 64
1, 553022, Note_on_c, 2, 76, 117
1, 553039, Note_off_c, 2, 75, 64
1, 553081, Note_on_c, 2, 75, 117
1, 553103, Note_off_c, 2, 76, 64
1, 553137, Note_on_c, 2, 76, 117
1, 553154, Note_off_c, 2, 75, 64
1, 553172, Note_off_c, 4, 57, 64
1, 553189, Note_on_c, 4, 50, 127
1, 553189, Note_on_c, 2, 77, 117
1, 553205, Note_off_c, 2, 76, 64
1, 553236, Note_on_c, 1, 78, 114
1, 553251, Note_off_c, 2, 77, 64
1, 553290, Note_on_c, 2, 77, 117
1, 553307, Note_off_c, 1, 78, 64
1, 553340, Note_on_c, 1, 78, 114
1, 553357, Note_off_c, 2, 77, 64
1, 553395, Note_on_c, 1, 80, 114
1, 553413, Note_off_c, 1, 78, 64
1, 553447, Note_on_c, 1, 81, 114
1, 553463, Note_off_c, 1, 80, 64
1, 553501, Note_on_c, 1, 80, 114
1, 553516, Note_off_c, 1, 81, 64
1, 553547, Note_on_c, 1, 81, 114
1, 553562, Note_off_c, 1, 80, 64
1, 553576, Note_off_c, 4, 50, 64
1, 553589, Note_on_c, 2, 73, 117
1, 553590, Note_on_c, 4, 52, 127
1, 553590, Note_on_c, 4, 57, 127
1, 553634, Note_off_c, 1, 81, 64
1, 553656, Note_on_c, 2, 74, 117
1, 553665, Note_off_c, 2, 73, 64
1, 553713, Note_on_c, 2, 75, 117
1, 553723, Note_off_c, 2, 74, 64
1, 553771, Note_on_c, 2, 76, 117
1, 553780, Note_off_c, 2, 75, 64
1, 553817, Note_off_c, 4, 57, 64
1, 553817, Note_off_c, 4, 52, 64
1, 553824, Note_off_c, 2, 76, 64
1, 553825, Note_on_c, 2, 76, 117
1, 553826, Note_on_c, 4, 52, 127
1, 553826, Note_on_c, 4, 56, 127
1, 553882, Note_on_c, 2, 74, 117
1, 553892, Note_off_c, 2, 76, 64
1, 553942, Note_on_c, 2, 73, 117
1, 553951, Note_off_c, 2, 74, 64
1, 554003, Note_on_c, 2, 71, 116
1, 554015, Note_off_c, 2, 73, 64
1, 554053, Note_off_c, 4, 56, 64
1, 554053, Note_off_c, 4, 52, 64
1, 554060, Note_off_c, 2, 71, 64
1, 554062, Note_on_c, 2, 71, 116
1, 554069, Note_on_c, 4, 64, 118
1, 554070, Note_on_c, 4, 57, 127
1, 554070, Note_on_c, 4, 62, 127
1, 554071, Note_on_c, 4, 45, 127
1, 554071, Note_on_c, 4, 52, 127
1, 554282, Note_off_c, 2, 71, 64
1, 554292, Note_off_c, 4, 62, 64
1, 554296, Note_on_c, 4, 61, 127
1, 554296, Note_on_c, 2, 69, 118
1, 554368, Note_off_c, 4, 64, 64
1, 554485, Note_on_c, 1, 81, 114
1, 554527, Note_off_c, 2, 69, 64
1, 554568, Note_on_c, 1, 83, 114
1, 554572, Note_off_c, 1, 81, 64
1, 554595, Note_off_c, 4, 61, 64
1, 554645, Note_off_c, 1, 83, 64
1, 554652, Note_on_c, 1, 84, 114
1, 554729, Note_off_c, 1, 84, 64
1, 554731, Note_on_c, 2, 76, 117
1, 554806, Note_on_c, 2, 75, 117
1, 554807, Note_on_c, 2, 69, 118
1, 554807, Note_on_c, 2, 72, 117
1, 554809, Note_off_c, 2, 76, 64
1, 554834, Note_off_c, 4, 57, 64
1, 554960, Note_off_c, 2, 75, 64
1, 554983, Note_on_c, 2, 76, 117
1, 554988, Note_on_c, 2, 71, 116
1, 554989, Note_on_c, 2, 68, 120
1, 554999, Note_off_c, 2, 69, 64
1, 555001, Note_off_c, 2, 72, 64
1, 555145, Note_on_c, 1, 86, 114
1, 555162, Note_off_c, 2, 76, 64
1, 555176, Note_off_c, 2, 71, 64
1, 555176, Note_off_c, 2, 68, 64
1, 555188, Note_on_c, 2, 73, 117
1, 555189, Note_on_c, 2, 70, 118
1, 555189, Note_on_c, 2, 67, 127
1, 555222, Note_off_c, 1, 86, 64
1, 555350, Note_off_c, 2, 67, 64
1, 555351, Note_off_c, 2, 70, 64
1, 555351, Note_off_c, 2, 73, 64
1, 555357, Note_on_c, 2, 74, 117
1, 555371, Note_on_c, 2, 69, 118
1, 555371, Note_on_c, 4, 66, 127
1, 555517, Note_on_c, 1, 81, 114
1, 555552, Note_off_c, 2, 74, 64
1, 555558, Note_off_c, 4, 66, 64
1, 555558, Note_off_c, 2, 69, 64
1, 555565, Note_on_c, 2, 71, 116
1, 555565, Note_on_c, 2, 74, 117
1, 555565, Note_on_c, 1, 86, 114
1, 555612, Note_off_c, 1, 81, 64
1, 555616, Note_off_c, 1, 86, 64
1, 555618, Note_on_c, 1, 86, 114
1, 555645, Note_off_c, 4, 52, 64
1, 555670, Note_on_c, 2, 69, 118
1, 555682, Note_off_c, 2, 71, 64
1, 555716, Note_off_c, 1, 86, 64
1, 555718, Note_on_c, 1, 85, 114
1, 555756, Note_off_c, 2, 74, 64
1, 555764, Note_on_c, 2, 74, 117
1, 555765, Note_on_c, 2, 67, 127
1, 555775, Note_off_c, 2, 69, 64
1, 555811, Note_on_c, 1, 83, 114
1, 555821, Note_off_c, 1, 85, 64
1, 555855, Note_on_c, 4, 66, 127
1, 555865, Note_off_c, 2, 67, 64
1, 555900, Note_on_c, 1, 82, 114
1, 555909, Note_off_c, 1, 83, 64
1, 555936, Note_off_c, 2, 74, 64
1, 555944, Note_on_c, 2, 74, 117
1, 555944, Note_on_c, 2, 76, 117
1, 555945, Note_on_c, 2, 67, 127
1, 555952, Note_off_c, 4, 66, 64
1, 555987, Note_on_c, 1, 83, 114
1, 555995, Note_off_c, 1, 82, 64
1, 556035, Note_on_c, 4, 66, 127
1, 556044, Note_off_c, 2, 67, 64
1, 556077, Note_on_c, 1, 81, 114
1, 556087, Note_off_c, 1, 83, 64
1, 556116, Note_off_c, 2, 76, 64
1, 556116, Note_off_c, 2, 74, 64
1, 556124, Note_on_c, 2, 74, 117
1, 556125, Note_on_c, 4, 64, 126
1, 556133, Note_off_c, 4, 66, 64
1, 556169, Note_on_c, 1, 79, 114
1, 556179, Note_off_c, 1, 81, 64
1, 556213, Note_on_c, 4, 62, 127
1, 556225, Note_off_c, 4, 64, 64
1, 556262, Note_on_c, 1, 78, 114
1, 556273, Note_off_c, 1, 79, 64
1, 556302, Note_off_c, 2, 74, 64
1, 556310, Note_on_c, 4, 61, 127
1, 556310, Note_on_c, 1, 81, 114
1, 556320, Note_off_c, 4, 62, 64
1, 556358, Note_on_c, 4, 64, 126
1, 556368, Note_off_c, 1, 78, 64
1, 556403, Note_off_c, 4, 61, 64
1, 556406, Note_on_c, 1, 79, 114
1, 556407, Note_on_c, 2, 69, 118
1, 556413, Note_off_c, 4, 45, 64
1, 556415, Note_off_c, 1, 81, 64
1, 556448, Note_off_c, 4, 64, 64
1, 556450, Note_on_c, 4, 64, 126
1, 556492, Note_off_c, 2, 69, 64
1, 556494, Note_on_c, 4, 62, 127
1, 556538, Note_off_c, 4, 64, 64
1, 556540, Note_on_c, 4, 66, 127
1, 556569, Note_off_c, 1, 79, 64
1, 556580, Note_off_c, 4, 62, 64
1, 556582, Note_on_c, 2, 69, 118
1, 556584, Note_on_c, 1, 78, 114
1, 556622, Note_off_c, 4, 66, 64
1, 556626, Note_on_c, 4, 66, 127
1, 556670, Note_off_c, 2, 69, 64
1, 556671, Note_on_c, 4, 61, 127
1, 556674, Note_off_c, 1, 78, 64
1, 556675, Note_on_c, 2, 75, 117
1, 556712, Note_off_c, 4, 66, 64
1, 556717, Note_on_c, 4, 64, 126
1, 556757, Note_off_c, 4, 61, 64
1, 556761, Note_off_c, 2, 75, 64
1, 556761, Note_on_c, 2, 76, 117
1, 556762, Note_on_c, 2, 69, 118
1, 556804, Note_off_c, 4, 64, 64
1, 556806, Note_on_c, 4, 64, 126
1, 556848, Note_off_c, 2, 69, 64
1, 556850, Note_on_c, 4, 59, 127
1, 556893, Note_off_c, 4, 64, 64
1, 556895, Note_on_c, 4, 62, 127
1, 556931, Note_off_c, 2, 76, 64
1, 556936, Note_off_c, 4, 59, 64
1, 556939, Note_on_c, 2, 74, 117
1, 556939, Note_on_c, 2, 68, 120
1, 556983, Note_off_c, 4, 62, 64
1, 556984, Note_on_c, 4, 62, 127
1, 557024, Note_off_c, 2, 74, 64
1, 557030, Note_off_c, 2, 68, 64
1, 557032, Note_on_c, 4, 64, 126
1, 557032, Note_on_c, 2, 69, 118
1, 557032, Note_on_c, 2, 74, 117
1, 557033, Note_on_c, 4, 57, 127
1, 557041, Note_off_c, 4, 62, 64
1, 557082, Note_off_c, 2, 74, 64
1, 557082, Note_on_c, 2, 73, 117
1, 557131, Note_on_c, 1, 78, 114
1, 557173, Note_off_c, 2, 73, 64
1, 557183, Note_on_c, 2, 76, 117
1, 557190, Note_off_c, 1, 78, 64
1, 557215, Note_off_c, 2, 76, 64
1, 557231, Note_off_c, 2, 69, 64
1, 557231, Note_on_c, 2, 76, 117
1, 557329, Note_off_c, 4, 64, 64
1, 557454, Note_on_c, 2, 77, 117
1, 557456, Note_off_c, 2, 76, 64
1, 557500, Note_on_c, 1, 78, 114
1, 557508, Note_off_c, 2, 77, 64
1, 557544, Note_on_c, 2, 73, 117
1, 557552, Note_off_c, 1, 78, 64
1, 557591, Note_off_c, 4, 57, 64
1, 557591, Note_on_c, 2, 74, 117
1, 557599, Note_off_c, 2, 73, 64
1, 557636, Note_on_c, 2, 70, 118
1, 557643, Note_off_c, 2, 74, 64
1, 557680, Note_on_c, 2, 71, 116
1, 557688, Note_off_c, 2, 70, 64
1, 557728, Note_on_c, 2, 68, 120
1, 557734, Note_off_c, 2, 71, 64
1, 557774, Note_on_c, 2, 71, 116
1, 557784, Note_off_c, 2, 68, 64
1, 557837, Note_on_c, 2, 69, 118
1, 557851, Note_off_c, 2, 71, 64
1, 557906, Note_off_c, 2, 69, 64
1, 557908, Note_on_c, 2, 69, 118
1, 557977, Note_off_c, 2, 69, 64
1, 557979, Note_on_c, 2, 69, 118
1, 558064, Note_off_c, 2, 69, 64
1, 558066, Note_on_c, 2, 69, 118
1, 558279, Note_on_c, 1, 81, 110
1, 558377, Note_off_c, 2, 69, 64
1, 558471, Note_off_c, 1, 81, 64
1, 558492, Note_on_c, 1, 81, 110
1, 558534, Note_off_c, 1, 81, 64
1, 558535, Note_on_c, 1, 79, 110
1, 558609, Note_off_c, 1, 79, 64
1, 558614, Note_on_c, 1, 79, 110
1, 558660, Note_off_c, 1, 79, 64
1, 558661, Note_on_c, 1, 78, 110
1, 558724, Note_off_c, 1, 78, 64
1, 558747, Note_on_c, 1, 78, 110
1, 558793, Note_on_c, 2, 76, 117
1, 558813, Note_off_c, 1, 78, 64
1, 558868, Note_off_c, 2, 76, 64
1, 558873, Note_on_c, 4, 62, 127
1, 558873, Note_on_c, 2, 76, 113
1, 558901, Note_on_c, 2, 74, 113
1, 558930, Note_off_c, 2, 76, 64
1, 558930, Note_on_c, 4, 66, 127
1, 558973, Note_off_c, 4, 62, 64
1, 558981, Note_on_c, 2, 69, 118
1, 559023, Note_off_c, 4, 66, 64
1, 559031, Note_on_c, 4, 66, 127
1, 559069, Note_off_c, 2, 74, 64
1, 559071, Note_off_c, 2, 69, 64
1, 559079, Note_on_c, 4, 62, 127
1, 559085, Note_on_c, 2, 74, 113
1, 559121, Note_off_c, 4, 66, 64
1, 559129, Note_on_c, 4, 66, 127
1, 559167, Note_off_c, 4, 62, 64
1, 559175, Note_on_c, 2, 69, 118
1, 559215, Note_off_c, 4, 66, 64
1, 559223, Note_on_c, 4, 66, 127
1, 559263, Note_off_c, 2, 69, 64
1, 559269, Note_on_c, 4, 59, 127
1, 559309, Note_off_c, 4, 66, 64
1, 559317, Note_on_c, 4, 62, 127
1, 559359, Note_off_c, 4, 59, 64
1, 559367, Note_on_c, 4, 66, 127
1, 559377, Note_on_c, 2, 76, 113
1, 559390, Note_off_c, 2, 74, 64
1, 559407, Note_on_c, 2, 74, 113
1, 559411, Note_off_c, 2, 76, 64
1, 559427, Note_off_c, 4, 62, 64
1, 559438, Note_on_c, 4, 62, 127
1, 559440, Note_on_c, 2, 73, 113
1, 559441, Note_off_c, 2, 74, 64
1, 559471, Note_off_c, 2, 73, 64
1, 559471, Note_on_c, 2, 74, 113
1, 559492, Note_off_c, 4, 66, 64
1, 559498, Note_on_c, 2, 76, 113
1, 559498, Note_on_c, 4, 59, 127
1, 559500, Note_off_c, 2, 74, 64
1, 559533, Note_off_c, 4, 62, 64
1, 559541, Note_on_c, 4, 62, 127
1, 559581, Note_off_c, 4, 59, 64
1, 559587, Note_off_c, 2, 76, 64
1, 559587, Note_on_c, 4, 66, 127
1, 559590, Note_on_c, 1, 78, 110
1, 559626, Note_off_c, 4, 62, 64
1, 559632, Note_on_c, 4, 62, 127
1, 559674, Note_off_c, 4, 66, 64
1, 559680, Note_on_c, 2, 76, 113
1, 559680, Note_on_c, 4, 55, 127
1, 559683, Note_off_c, 1, 78, 64
1, 559719, Note_off_c, 4, 62, 64
1, 559727, Note_on_c, 4, 59, 127
1, 559769, Note_off_c, 4, 55, 64
1, 559777, Note_off_c, 2, 76, 64
1, 559777, Note_on_c, 1, 83, 110
1, 559778, Note_on_c, 4, 64, 126
1, 559816, Note_off_c, 4, 59, 64
1, 559824, Note_on_c, 4, 59, 127
1, 559862, Note_off_c, 4, 64, 64
1, 559870, Note_on_c, 4, 55, 127
1, 559908, Note_off_c, 4, 59, 64
1, 559916, Note_on_c, 4, 59, 127
1, 559958, Note_off_c, 4, 55, 64
1, 559964, Note_on_c, 4, 64, 126
1, 559970, Note_on_c, 1, 79, 110
1, 559972, Note_off_c, 1, 83, 64
1, 560003, Note_off_c, 4, 59, 64
1, 560008, Note_on_c, 4, 59, 127
1, 560041, Note_on_c, 2, 76, 109
1, 560045, Note_off_c, 1, 79, 64
1, 560060, Note_off_c, 4, 64, 64
1, 560072, Note_on_c, 4, 57, 127
1, 560077, Note_on_c, 2, 73, 109
1, 560106, Note_off_c, 2, 76, 64
1, 560107, Note_off_c, 4, 59, 64
1, 560114, Note_on_c, 4, 64, 126
1, 560150, Note_off_c, 4, 57, 64
1, 560156, Note_off_c, 2, 73, 64
1, 560157, Note_on_c, 2, 67, 127
1, 560159, Note_on_c, 1, 79, 106
1, 560196, Note_off_c, 4, 64, 64
1, 560203, Note_on_c, 4, 64, 126
1, 560249, Note_on_c, 4, 57, 127
1, 560288, Note_off_c, 4, 64, 64
1, 560293, Note_on_c, 4, 64, 126
1, 560332, Note_off_c, 4, 57, 64
1, 560334, Note_off_c, 1, 79, 64
1, 560340, Note_off_c, 2, 67, 64
1, 560345, Note_on_c, 2, 76, 109
1, 560346, Note_on_c, 2, 67, 127
1, 560376, Note_off_c, 4, 64, 64
1, 560383, Note_on_c, 4, 64, 126
1, 560408, Note_off_c, 2, 67, 64
1, 560415, Note_on_c, 2, 67, 127
1, 560452, Note_on_c, 1, 78, 106
1, 560454, Note_on_c, 4, 62, 127
1, 560456, Note_on_c, 4, 66, 127
1, 560460, Note_off_c, 2, 76, 64
1, 560463, Note_off_c, 2, 67, 64
1, 560475, Note_off_c, 4, 64, 64
1, 560542, Note_on_c, 1, 79, 110
1, 560543, Note_on_c, 2, 67, 127
1, 560555, Note_off_c, 1, 78, 64
1, 560558, Note_off_c, 4, 66, 64
1, 560627, Note_on_c, 2, 68, 120
1, 560627, Note_on_c, 1, 80, 110
1, 560641, Note_off_c, 1, 79, 64
1, 560641, Note_off_c, 2, 67, 64
1, 560700, Note_on_c, 1, 81, 114
1, 560700, Note_on_c, 2, 69, 118
1, 560714, Note_off_c, 1, 80, 64
1, 560714, Note_off_c, 2, 68, 64
1, 560774, Note_on_c, 1, 82, 114
1, 560775, Note_on_c, 2, 70, 118
1, 560783, Note_off_c, 2, 69, 64
1, 560784, Note_off_c, 1, 81, 64
1, 560836, Note_on_c, 2, 71, 116
1, 560836, Note_on_c, 1, 83, 114
1, 560848, Note_off_c, 2, 70, 64
1, 560849, Note_off_c, 1, 82, 64
1, 560901, Note_on_c, 1, 85, 114
1, 560902, Note_on_c, 2, 73, 117
1, 560910, Note_off_c, 1, 83, 64
1, 560910, Note_off_c, 2, 71, 64
1, 560968, Note_on_c, 1, 86, 114
1, 560971, Note_on_c, 2, 74, 117
1, 560984, Note_off_c, 2, 73, 64
1, 560984, Note_off_c, 1, 85, 64
1, 561029, Note_off_c, 4, 62, 64
1, 561060, Note_on_c, 4, 57, 127
1, 561060, Note_on_c, 1, 78, 106
1, 561099, Note_off_c, 1, 86, 64
1, 561107, Note_off_c, 2, 74, 64
1, 561115, Note_off_c, 1, 78, 64
1, 561151, Note_on_c, 1, 78, 106
1, 561191, Note_on_c, 2, 76, 113
1, 561208, Note_off_c, 1, 78, 64
1, 561234, Note_on_c, 4, 62, 127
1, 561234, Note_on_c, 1, 78, 106
1, 561242, Note_off_c, 2, 76, 64
1, 561267, Note_on_c, 2, 76, 113
1, 561288, Note_off_c, 1, 78, 64
1, 561325, Note_on_c, 1, 78, 106
1, 561336, Note_off_c, 2, 76, 64
1, 561355, Note_on_c, 2, 76, 113
1, 561371, Note_off_c, 1, 78, 64
1, 561374, Note_off_c, 4, 57, 64
1, 561401, Note_on_c, 1, 78, 106
1, 561402, Note_on_c, 4, 64, 126
1, 561410, Note_off_c, 2, 76, 64
1, 561433, Note_on_c, 2, 76, 113
1, 561446, Note_off_c, 1, 78, 64
1, 561469, Note_on_c, 1, 78, 106
1, 561481, Note_off_c, 2, 76, 64
1, 561510, Note_on_c, 2, 76, 113
1, 561523, Note_off_c, 1, 78, 64
1, 561525, Note_off_c, 4, 62, 64
1, 561545, Note_on_c, 4, 62, 127
1, 561545, Note_on_c, 1, 78, 106
1, 561553, Note_off_c, 2, 76, 64
1, 561572, Note_on_c, 2, 76, 113
1, 561589, Note_off_c, 1, 78, 64
1, 561619, Note_on_c, 1, 78, 106
1, 561628, Note_off_c, 2, 76, 64
1, 561651, Note_on_c, 2, 76, 113
1, 561667, Note_off_c, 1, 78, 64
1, 561668, Note_off_c, 4, 64, 64
1, 561692, Note_on_c, 4, 57, 127
1, 561692, Note_on_c, 1, 78, 106
1, 561700, Note_off_c, 2, 76, 64
1, 561725, Note_on_c, 2, 76, 113
1, 561742, Note_off_c, 1, 78, 64
1, 561764, Note_on_c, 1, 78, 106
1, 561771, Note_off_c, 2, 76, 64
1, 561796, Note_on_c, 2, 76, 113
1, 561809, Note_off_c, 1, 78, 64
1, 561811, Note_off_c, 4, 62, 64
1, 561827, Note_on_c, 4, 61, 127
1, 561827, Note_on_c, 1, 78, 106
1, 561836, Note_off_c, 2, 76, 64
1, 561864, Note_on_c, 2, 76, 113
1, 561878, Note_off_c, 1, 78, 64
1, 561899, Note_on_c, 1, 78, 110
1, 561911, Note_off_c, 2, 76, 64
1, 561936, Note_on_c, 2, 76, 113
1, 561943, Note_off_c, 1, 78, 64
1, 561945, Note_off_c, 4, 57, 64
1, 561962, Note_on_c, 1, 78, 110
1, 561963, Note_on_c, 4, 64, 126
1, 561971, Note_off_c, 2, 76, 64
1, 561990, Note_on_c, 2, 76, 113
1, 562009, Note_off_c, 1, 78, 64
1, 562027, Note_on_c, 1, 78, 110
1, 562034, Note_off_c, 2, 76, 64
1, 562057, Note_on_c, 2, 76, 113
1, 562069, Note_off_c, 1, 78, 64
1, 562071, Note_off_c, 4, 61, 64
1, 562088, Note_on_c, 1, 78, 110
1, 562089, Note_on_c, 4, 61, 127
1, 562097, Note_off_c, 2, 76, 64
1, 562114, Note_on_c, 2, 76, 113
1, 562124, Note_off_c, 1, 78, 64
1, 562141, Note_on_c, 2, 74, 117
1, 562147, Note_off_c, 2, 76, 64
1, 562168, Note_on_c, 2, 76, 113
1, 562179, Note_off_c, 2, 74, 64
1, 562181, Note_off_c, 4, 64, 64
1, 562216, Note_off_c, 2, 76, 64
1, 562227, Note_on_c, 2, 76, 113
1, 562228, Note_off_c, 4, 61, 64
1, 562228, Note_on_c, 2, 67, 127
1, 562229, Note_on_c, 4, 50, 127
1, 562229, Note_on_c, 2, 69, 118
1, 562230, Note_on_c, 4, 62, 127
1, 562490, Note_off_c, 2, 76, 64
1, 562492, Note_off_c, 2, 67, 64
1, 562493, Note_off_c, 4, 62, 64
1, 562500, Note_on_c, 4, 66, 127
1, 562500, Note_on_c, 2, 74, 117
1, 562586, Note_off_c, 2, 69, 64
1, 562755, Note_on_c, 1, 81, 114
1, 562836, Note_on_c, 1, 80, 114
1, 562846, Note_off_c, 2, 74, 64
1, 562849, Note_off_c, 1, 81, 64
1, 562913, Note_on_c, 1, 81, 114
1, 562926, Note_off_c, 1, 80, 64
1, 562986, Note_on_c, 1, 83, 114
1, 562997, Note_off_c, 1, 81, 64
1, 563055, Note_on_c, 1, 84, 110
1, 563068, Note_off_c, 1, 83, 64
1, 563069, Note_off_c, 4, 66, 64
1, 563129, Note_on_c, 1, 78, 110
1, 563136, Note_off_c, 1, 84, 64
1, 563188, Note_on_c, 1, 81, 110
1, 563198, Note_off_c, 1, 78, 64
1, 563244, Note_on_c, 2, 76, 113
1, 563252, Note_off_c, 1, 81, 64
1, 563296, Note_on_c, 2, 72, 109
1, 563296, Note_on_c, 2, 74, 109
1, 563297, Note_on_c, 2, 69, 110
1, 563304, Note_off_c, 2, 76, 64
1, 563320, Note_off_c, 4, 50, 64
1, 563473, Note_off_c, 2, 74, 64
1, 563477, Note_on_c, 2, 76, 117
1, 563535, Note_off_c, 2, 76, 64
1, 563537, Note_on_c, 1, 78, 114
1, 563595, Note_off_c, 1, 78, 64
1, 563598, Note_on_c, 2, 76, 117
1, 563599, Note_on_c, 2, 68, 120
1, 563599, Note_on_c, 2, 71, 116
1, 563605, Note_off_c, 2, 72, 64
1, 563605, Note_off_c, 2, 69, 64
1, 563651, Note_off_c, 2, 76, 64
1, 563656, Note_on_c, 2, 77, 117
1, 563710, Note_on_c, 1, 78, 114
1, 563729, Note_off_c, 2, 77, 64
1, 563766, Note_on_c, 1, 79, 110
1, 563781, Note_off_c, 1, 78, 64
1, 563814, Note_on_c, 1, 80, 110
1, 563831, Note_off_c, 1, 79, 64
1, 563860, Note_on_c, 1, 81, 110
1, 563875, Note_off_c, 1, 80, 64
1, 563907, Note_on_c, 1, 82, 110
1, 563963, Note_off_c, 1, 81, 64
1, 563984, Note_on_c, 1, 83, 110
1, 564029, Note_off_c, 1, 82, 64
1, 564061, Note_on_c, 1, 80, 110
1, 564138, Note_on_c, 2, 76, 117
1, 564147, Note_off_c, 1, 83, 64
1, 564213, Note_on_c, 2, 73, 117
1, 564225, Note_off_c, 1, 80, 64
1, 564236, Note_on_c, 2, 70, 118
1, 564237, Note_on_c, 2, 67, 127
1, 564258, Note_off_c, 2, 68, 64
1, 564259, Note_off_c, 2, 71, 64
1, 564284, Note_off_c, 2, 76, 64
1, 564519, Note_off_c, 2, 73, 64
1, 564523, Note_on_c, 2, 74, 117
1, 564575, Note_on_c, 2, 76, 117
1, 564592, Note_off_c, 2, 74, 64
1, 564631, Note_on_c, 2, 74, 117
1, 564644, Note_off_c, 2, 67, 64
1, 564645, Note_off_c, 2, 70, 64
1, 564649, Note_off_c, 2, 76, 64
1, 564653, Note_on_c, 4, 66, 127
1, 564653, Note_on_c, 2, 69, 119
1, 564681, Note_on_c, 1, 78, 114
1, 564696, Note_off_c, 2, 74, 64
1, 564732, Note_on_c, 2, 76, 117
1, 564752, Note_off_c, 1, 78, 64
1, 564784, Note_on_c, 2, 74, 117
1, 564802, Note_off_c, 2, 76, 64
1, 564834, Note_on_c, 2, 76, 117
1, 564853, Note_off_c, 2, 74, 64
1, 564886, Note_on_c, 1, 78, 114
1, 564901, Note_off_c, 2, 76, 64
1, 564930, Note_on_c, 1, 79, 106
1, 564980, Note_off_c, 1, 78, 64
1, 565001, Note_on_c, 1, 81, 106
1, 565074, Note_on_c, 1, 83, 102
1, 565080, Note_off_c, 1, 79, 64
1, 565118, Note_on_c, 1, 85, 102
1, 565124, Note_off_c, 1, 81, 64
1, 565161, Note_off_c, 1, 83, 64
1, 565184, Note_on_c, 2, 71, 117
1, 565184, Note_on_c, 1, 86, 102
1, 565196, Note_off_c, 1, 85, 64
1, 565200, Note_off_c, 2, 69, 64
1, 565200, Note_off_c, 4, 66, 64
1, 565243, Note_off_c, 1, 86, 64
1, 565245, Note_on_c, 1, 88, 104
1, 565246, Note_on_c, 2, 74, 117
1, 565284, Note_on_c, 1, 86, 102
1, 565294, Note_off_c, 1, 88, 64
1, 565311, Note_on_c, 2, 69, 119
1, 565323, Note_off_c, 2, 71, 64
1, 565359, Note_off_c, 2, 74, 64
1, 565366, Note_off_c, 1, 86, 64
1, 565367, Note_on_c, 1, 85, 102
1, 565368, Note_on_c, 2, 74, 117
1, 565420, Note_on_c, 2, 67, 127
1, 565433, Note_off_c, 2, 69, 64
1, 565468, Note_off_c, 2, 74, 64
1, 565474, Note_off_c, 1, 85, 64
1, 565476, Note_on_c, 1, 85, 106
1, 565476, Note_on_c, 2, 74, 117
1, 565500, Note_off_c, 1, 85, 64
1, 565501, Note_on_c, 1, 83, 106
1, 565530, Note_on_c, 4, 66, 127
1, 565542, Note_off_c, 2, 67, 64
1, 565576, Note_off_c, 2, 74, 64
1, 565582, Note_off_c, 1, 83, 64
1, 565584, Note_on_c, 2, 74, 117
1, 565584, Note_on_c, 1, 82, 106
1, 565639, Note_on_c, 2, 67, 127
1, 565651, Note_off_c, 4, 66, 64
1, 565689, Note_off_c, 2, 74, 64
1, 565694, Note_off_c, 1, 82, 64
1, 565696, Note_on_c, 1, 85, 106
1, 565697, Note_on_c, 2, 74, 117
1, 565730, Note_on_c, 1, 83, 106
1, 565740, Note_off_c, 1, 85, 64
1, 565757, Note_on_c, 4, 66, 127
1, 565770, Note_off_c, 2, 67, 64
1, 565807, Note_off_c, 2, 74, 64
1, 565813, Note_off_c, 1, 83, 64
1, 565814, Note_on_c, 1, 81, 106
1, 565815, Note_on_c, 2, 74, 117
1, 565871, Note_on_c, 4, 64, 127
1, 565883, Note_off_c, 4, 66, 64
1, 565917, Note_off_c, 2, 74, 64
1, 565925, Note_off_c, 1, 81, 64
1, 565926, Note_on_c, 1, 81, 106
1, 565926, Note_on_c, 2, 74, 117
1, 565954, Note_off_c, 1, 81, 64
1, 565956, Note_on_c, 1, 79, 110
1, 565982, Note_on_c, 4, 62, 127
1, 565996, Note_off_c, 4, 64, 64
1, 566034, Note_off_c, 2, 74, 64
1, 566042, Note_off_c, 1, 79, 64
1, 566043, Note_on_c, 1, 78, 114
1, 566043, Note_on_c, 2, 74, 117
1, 566105, Note_on_c, 1, 81, 106
1, 566106, Note_on_c, 4, 61, 127
1, 566118, Note_off_c, 4, 62, 64
1, 566151, Note_off_c, 2, 74, 64
1, 566160, Note_off_c, 1, 78, 64
1, 566161, Note_on_c, 4, 64, 127
1, 566188, Note_off_c, 1, 81, 64
1, 566190, Note_on_c, 1, 83, 106
1, 566220, Note_on_c, 1, 81, 106
1, 566249, Note_off_c, 1, 83, 64
1, 566259, Note_on_c, 1, 79, 110
1, 566261, Note_on_c, 2, 69, 119
1, 566267, Note_off_c, 1, 81, 64
1, 566272, Note_off_c, 4, 61, 64
1, 566305, Note_off_c, 4, 64, 64
1, 566313, Note_on_c, 4, 64, 127
1, 566363, Note_on_c, 4, 62, 127
1, 566376, Note_off_c, 2, 69, 64
1, 566412, Note_off_c, 4, 64, 64
1, 566421, Note_on_c, 4, 66, 127
1, 566463, Note_off_c, 1, 79, 64
1, 566466, Note_off_c, 4, 62, 64
1, 566472, Note_on_c, 1, 78, 114
1, 566474, Note_on_c, 2, 69, 119
1, 566522, Note_off_c, 4, 66, 64
1, 566532, Note_on_c, 4, 66, 127
1, 566578, Note_off_c, 2, 69, 64
1, 566584, Note_off_c, 1, 78, 64
1, 566584, Note_on_c, 2, 75, 117
1, 566587, Note_on_c, 4, 61, 127
1, 566633, Note_off_c, 4, 66, 64
1, 566642, Note_on_c, 4, 64, 127
1, 566690, Note_off_c, 4, 61, 64
1, 566696, Note_off_c, 2, 75, 64
1, 566698, Note_on_c, 2, 76, 117
1, 566700, Note_on_c, 2, 69, 119
1, 566746, Note_off_c, 4, 64, 64
1, 566754, Note_on_c, 4, 64, 127
1, 566806, Note_off_c, 2, 69, 64
1, 566813, Note_on_c, 4, 59, 127
1, 566823, Note_off_c, 2, 76, 64
1, 566846, Note_on_c, 1, 78, 114
1, 566909, Note_on_c, 1, 80, 110
1, 566915, Note_off_c, 1, 78, 64
1, 566944, Note_off_c, 4, 64, 64
1, 566973, Note_on_c, 4, 62, 127
1, 566973, Note_on_c, 1, 81, 110
1, 566979, Note_off_c, 1, 80, 64
1, 567027, Note_on_c, 1, 83, 110
1, 567031, Note_off_c, 1, 81, 64
1, 567073, Note_on_c, 1, 85, 110
1, 567077, Note_off_c, 1, 83, 64
1, 567098, Note_off_c, 4, 59, 64
1, 567118, Note_on_c, 2, 68, 121
1, 567118, Note_on_c, 1, 86, 114
1, 567120, Note_off_c, 1, 85, 64
1, 567159, Note_on_c, 1, 83, 114
1, 567163, Note_off_c, 1, 86, 64
1, 567197, Note_on_c, 1, 80, 114
1, 567201, Note_off_c, 1, 83, 64
1, 567218, Note_off_c, 4, 62, 64
1, 567236, Note_on_c, 4, 62, 127
1, 567236, Note_on_c, 2, 76, 117
1, 567239, Note_off_c, 1, 80, 64
1, 567275, Note_on_c, 1, 78, 114
1, 567279, Note_off_c, 2, 76, 64
1, 567331, Note_on_c, 2, 74, 117
1, 567338, Note_off_c, 1, 78, 64
1, 567361, Note_off_c, 2, 68, 64
1, 567379, Note_off_c, 2, 74, 64
1, 567383, Note_on_c, 2, 74, 117
1, 567388, Note_on_c, 2, 69, 118
1, 567404, Note_on_c, 4, 57, 127
1, 567404, Note_on_c, 4, 64, 126
1, 567405, Note_off_c, 4, 62, 64
1, 567458, Note_off_c, 2, 74, 64
1, 567460, Note_on_c, 2, 73, 117
1, 567520, Note_off_c, 2, 73, 64
1, 567522, Note_on_c, 1, 78, 114
1, 567587, Note_off_c, 1, 78, 64
1, 567591, Note_on_c, 2, 76, 117
1, 567656, Note_off_c, 2, 76, 64
1, 567658, Note_on_c, 2, 76, 117
1, 567862, Note_off_c, 2, 69, 64
1, 567873, Note_off_c, 4, 64, 64
1, 567887, Note_off_c, 2, 76, 64
1, 567888, Note_on_c, 4, 64, 126
1, 568171, Note_off_c, 4, 64, 64
1, 568173, Note_on_c, 4, 65, 127
1, 568246, Note_on_c, 4, 66, 127
1, 568274, Note_off_c, 4, 65, 64
1, 568309, Note_on_c, 4, 61, 127
1, 568338, Note_off_c, 4, 66, 64
1, 568372, Note_on_c, 4, 62, 127
1, 568380, Note_off_c, 4, 57, 64
1, 568403, Note_off_c, 4, 61, 64
1, 568438, Note_on_c, 4, 58, 127
1, 568471, Note_off_c, 4, 62, 64
1, 568507, Note_on_c, 4, 59, 127
1, 568537, Note_off_c, 4, 58, 64
1, 568576, Note_on_c, 4, 56, 127
1, 568607, Note_off_c, 4, 59, 64
1, 568637, Note_on_c, 4, 59, 127
1, 568638, Note_on_c, 4, 45, 127
1, 568638, Note_on_c, 4, 49, 127
1, 568667, Note_off_c, 4, 56, 64
1, 568704, Note_on_c, 4, 57, 127
1, 568736, Note_off_c, 4, 59, 64
1, 568773, Note_off_c, 4, 57, 64
1, 568776, Note_on_c, 4, 57, 127
1, 568838, Note_off_c, 4, 57, 64
1, 568850, Note_on_c, 4, 57, 127
1, 568905, Note_off_c, 4, 57, 64
1, 568906, Note_off_c, 4, 49, 64
1, 568906, Note_off_c, 4, 45, 64
1, 568916, Note_on_c, 4, 49, 127
1, 568916, Note_on_c, 4, 57, 127
1, 568917, Note_on_c, 4, 45, 127
1, 569121, Note_off_c, 4, 57, 64
1, 569149, Note_on_c, 4, 59, 127
1, 569238, Note_on_c, 4, 61, 127
1, 569272, Note_off_c, 4, 59, 64
1, 569309, Note_on_c, 4, 62, 127
1, 569345, Note_off_c, 4, 61, 64
1, 569376, Note_on_c, 4, 64, 126
1, 569407, Note_off_c, 4, 62, 64
1, 569434, Note_on_c, 4, 66, 127
1, 569459, Note_off_c, 4, 64, 64
1, 569485, Note_on_c, 2, 68, 120
1, 569508, Note_off_c, 4, 66, 64
1, 569532, Note_on_c, 2, 69, 118
1, 569555, Note_off_c, 2, 68, 64
1, 569578, Note_on_c, 2, 71, 116
1, 569601, Note_off_c, 2, 69, 64
1, 569620, Note_on_c, 2, 73, 117
1, 569641, Note_off_c, 2, 71, 64
1, 569661, Note_on_c, 2, 74, 117
1, 569682, Note_off_c, 2, 73, 64
1, 569701, Note_on_c, 2, 76, 117
1, 569721, Note_off_c, 2, 74, 64
1, 569738, Note_on_c, 1, 78, 114
1, 569757, Note_off_c, 2, 76, 64
1, 569776, Note_on_c, 1, 80, 114
1, 569794, Note_off_c, 1, 78, 64
1, 569811, Note_on_c, 1, 81, 114
1, 569828, Note_off_c, 1, 80, 64
1, 569845, Note_on_c, 1, 83, 114
1, 569863, Note_off_c, 1, 81, 64
1, 569882, Note_on_c, 1, 85, 114
1, 569899, Note_off_c, 1, 83, 64
1, 569918, Note_on_c, 1, 86, 114
1, 569936, Note_off_c, 1, 85, 64
1, 569982, Note_on_c, 4, 61, 127
1, 569983, Note_on_c, 4, 57, 127
1, 569985, Note_off_c, 1, 86, 64
1, 569985, Note_on_c, 1, 88, 116
1, 570053, Note_off_c, 1, 88, 64
1, 570055, Note_on_c, 1, 86, 114
1, 570128, Note_off_c, 1, 86, 64
1, 570132, Note_off_c, 4, 49, 64
1, 570132, Note_off_c, 4, 45, 64
1, 570132, Note_on_c, 1, 86, 110
1, 570154, Note_on_c, 1, 85, 110
1, 570159, Note_off_c, 1, 86, 64
1, 570177, Note_on_c, 1, 86, 110
1, 570182, Note_off_c, 1, 85, 64
1, 570198, Note_on_c, 1, 85, 110
1, 570204, Note_off_c, 1, 86, 64
1, 570219, Note_on_c, 1, 83, 110
1, 570232, Note_off_c, 1, 85, 64
1, 570287, Note_off_c, 4, 61, 64
1, 570287, Note_off_c, 4, 57, 64
1, 570295, Note_off_c, 1, 83, 64
1, 570297, Note_on_c, 1, 83, 110
1, 570300, Note_on_c, 4, 61, 127
1, 570301, Note_on_c, 4, 57, 127
1, 570319, Note_on_c, 1, 81, 114
1, 570324, Note_off_c, 1, 83, 64
1, 570342, Note_on_c, 1, 83, 110
1, 570346, Note_off_c, 1, 81, 64
1, 570365, Note_on_c, 1, 81, 114
1, 570371, Note_off_c, 1, 83, 64
1, 570386, Note_on_c, 1, 79, 114
1, 570390, Note_off_c, 1, 81, 64
1, 570463, Note_off_c, 1, 79, 64
1, 570467, Note_on_c, 1, 79, 114
1, 570488, Note_on_c, 1, 78, 114
1, 570493, Note_off_c, 1, 79, 64
1, 570511, Note_on_c, 1, 79, 114
1, 570515, Note_off_c, 1, 78, 64
1, 570532, Note_on_c, 1, 78, 114
1, 570536, Note_off_c, 1, 79, 64
1, 570552, Note_on_c, 2, 76, 117
1, 570555, Note_off_c, 1, 78, 64
1, 570622, Note_off_c, 2, 76, 64
1, 570624, Note_off_c, 4, 61, 64
1, 570624, Note_off_c, 4, 57, 64
1, 570637, Note_on_c, 4, 62, 127
1, 570640, Note_on_c, 2, 76, 117
1, 570721, Note_off_c, 2, 76, 64
1, 570722, Note_on_c, 4, 66, 127
1, 570724, Note_on_c, 2, 74, 117
1, 570786, Note_off_c, 4, 62, 64
1, 570795, Note_off_c, 2, 74, 64
1, 570796, Note_on_c, 2, 69, 119
1, 570798, Note_on_c, 2, 74, 117
1, 570854, Note_off_c, 4, 66, 64
1, 570864, Note_on_c, 4, 66, 127
1, 570921, Note_off_c, 2, 69, 64
1, 570933, Note_on_c, 4, 62, 127
1, 570986, Note_off_c, 4, 66, 64
1, 570998, Note_on_c, 4, 66, 127
1, 571053, Note_off_c, 4, 62, 64
1, 571061, Note_off_c, 2, 74, 64
1, 571062, Note_on_c, 2, 69, 119
1, 571064, Note_on_c, 2, 74, 117
1, 571116, Note_off_c, 4, 66, 64
1, 571128, Note_on_c, 4, 66, 127
1, 571183, Note_off_c, 2, 69, 64
1, 571193, Note_on_c, 4, 59, 127
1, 571256, Note_off_c, 4, 66, 64
1, 571272, Note_off_c, 2, 74, 64
1, 571272, Note_on_c, 4, 62, 127
1, 571276, Note_on_c, 1, 86, 110
1, 571303, Note_on_c, 1, 85, 110
1, 571309, Note_off_c, 1, 86, 64
1, 571328, Note_on_c, 1, 86, 110
1, 571334, Note_off_c, 1, 85, 64
1, 571349, Note_on_c, 1, 85, 110
1, 571357, Note_off_c, 1, 86, 64
1, 571361, Note_off_c, 4, 59, 64
1, 571372, Note_on_c, 1, 86, 110
1, 571374, Note_on_c, 4, 66, 127
1, 571378, Note_off_c, 1, 85, 64
1, 571445, Note_off_c, 4, 62, 64
1, 571455, Note_off_c, 1, 86, 64
1, 571459, Note_on_c, 1, 86, 110
1, 571463, Note_on_c, 4, 62, 127
1, 571488, Note_on_c, 1, 85, 110
1, 571495, Note_off_c, 1, 86, 64
1, 571512, Note_on_c, 1, 86, 110
1, 571520, Note_off_c, 1, 85, 64
1, 571536, Note_on_c, 1, 85, 110
1, 571541, Note_off_c, 1, 86, 64
1, 571553, Note_off_c, 4, 66, 64
1, 571557, Note_on_c, 1, 86, 110
1, 571562, Note_off_c, 1, 85, 64
1, 571566, Note_on_c, 4, 59, 127
1, 571635, Note_off_c, 4, 62, 64
1, 571637, Note_off_c, 1, 86, 64
1, 571639, Note_on_c, 1, 85, 110
1, 571651, Note_on_c, 4, 62, 127
1, 571666, Note_on_c, 1, 83, 110
1, 571674, Note_off_c, 1, 85, 64
1, 571689, Note_on_c, 1, 85, 110
1, 571695, Note_off_c, 1, 83, 64
1, 571712, Note_on_c, 1, 83, 110
1, 571720, Note_off_c, 1, 85, 64
1, 571737, Note_on_c, 1, 86, 110
1, 571739, Note_off_c, 4, 59, 64
1, 571743, Note_off_c, 1, 83, 64
1, 571752, Note_on_c, 4, 66, 127
1, 571820, Note_off_c, 1, 86, 64
1, 571822, Note_on_c, 1, 78, 114
1, 571824, Note_off_c, 4, 62, 64
1, 571837, Note_on_c, 4, 62, 127
1, 571920, Note_off_c, 4, 66, 64
1, 571941, Note_on_c, 4, 55, 127
1, 571944, Note_on_c, 2, 76, 117
1, 572008, Note_off_c, 1, 78, 64
1, 572008, Note_on_c, 1, 79, 114
1, 572047, Note_on_c, 1, 83, 114
1, 572049, Note_off_c, 2, 76, 64
1, 572059, Note_off_c, 1, 79, 64
1, 572071, Note_off_c, 4, 62, 64
1, 572081, Note_on_c, 4, 59, 127
1, 572135, Note_off_c, 4, 55, 64
1, 572144, Note_on_c, 4, 64, 127
1, 572197, Note_off_c, 4, 59, 64
1, 572212, Note_on_c, 4, 59, 127
1, 572256, Note_off_c, 4, 64, 64
1, 572266, Note_on_c, 4, 55, 127
1, 572320, Note_off_c, 4, 59, 64
1, 572324, Note_on_c, 4, 59, 127
1, 572374, Note_off_c, 4, 55, 64
1, 572381, Note_on_c, 4, 64, 127
1, 572420, Note_off_c, 1, 83, 64
1, 572424, Note_on_c, 1, 81, 114
1, 572455, Note_off_c, 4, 59, 64
1, 572475, Note_on_c, 1, 79, 114
1, 572502, Note_off_c, 1, 81, 64
1, 572510, Note_on_c, 4, 59, 127
1, 572543, Note_on_c, 1, 78, 114
1, 572560, Note_off_c, 1, 79, 64
1, 572602, Note_on_c, 2, 76, 117
1, 572621, Note_off_c, 1, 78, 64
1, 572669, Note_on_c, 2, 74, 117
1, 572688, Note_off_c, 2, 76, 64
1, 572729, Note_on_c, 2, 73, 117
1, 572731, Note_off_c, 4, 64, 64
1, 572740, Note_off_c, 2, 74, 64
1, 572767, Note_on_c, 4, 57, 127
1, 572796, Note_on_c, 2, 76, 117
1, 572827, Note_off_c, 2, 73, 64
1, 572852, Note_on_c, 1, 79, 114
1, 572857, Note_off_c, 2, 76, 64
1, 572892, Note_off_c, 4, 59, 64
1, 572904, Note_on_c, 4, 61, 127
1, 572964, Note_off_c, 4, 57, 64
1, 572975, Note_on_c, 4, 64, 127
1, 573034, Note_off_c, 4, 61, 64
1, 573044, Note_on_c, 4, 61, 127
1, 573102, Note_off_c, 4, 64, 64
1, 573113, Note_on_c, 4, 57, 127
1, 573171, Note_off_c, 4, 61, 64
1, 573182, Note_on_c, 4, 61, 127
1, 573238, Note_off_c, 4, 57, 64
1, 573248, Note_on_c, 4, 64, 127
1, 573303, Note_off_c, 1, 79, 64
1, 573305, Note_on_c, 1, 78, 114
1, 573309, Note_off_c, 4, 61, 64
1, 573344, Note_on_c, 4, 61, 127
1, 573368, Note_off_c, 1, 78, 64
1, 573369, Note_on_c, 2, 76, 117
1, 573431, Note_on_c, 2, 74, 117
1, 573439, Note_off_c, 2, 76, 64
1, 573484, Note_on_c, 2, 73, 117
1, 573519, Note_off_c, 2, 74, 64
1, 573540, Note_on_c, 2, 71, 116
1, 573550, Note_off_c, 2, 73, 64
1, 573587, Note_on_c, 2, 69, 118
1, 573604, Note_off_c, 4, 64, 64
1, 573610, Note_off_c, 2, 71, 64
1, 573654, Note_on_c, 2, 67, 127
1, 573679, Note_off_c, 2, 69, 64
1, 573758, Note_on_c, 4, 66, 127
1, 573762, Note_off_c, 2, 67, 64
1, 573763, Note_off_c, 4, 61, 64
1, 573763, Note_on_c, 4, 62, 127
1, 573873, Note_on_c, 1, 78, 114
1, 573949, Note_on_c, 2, 67, 127
1, 573961, Note_off_c, 4, 66, 64
1, 574007, Note_on_c, 1, 79, 114
1, 574022, Note_off_c, 1, 78, 64
1, 574061, Note_on_c, 2, 68, 120
1, 574078, Note_off_c, 2, 67, 64
1, 574112, Note_on_c, 1, 80, 114
1, 574125, Note_off_c, 1, 79, 64
1, 574156, Note_on_c, 2, 69, 118
1, 574171, Note_off_c, 2, 68, 64
1, 574198, Note_on_c, 1, 81, 114
1, 574213, Note_off_c, 1, 80, 64
1, 574238, Note_on_c, 2, 70, 118
1, 574254, Note_off_c, 2, 69, 64
1, 574281, Note_on_c, 1, 82, 114
1, 574294, Note_off_c, 1, 81, 64
1, 574319, Note_on_c, 2, 71, 116
1, 574332, Note_off_c, 2, 70, 64
1, 574359, Note_on_c, 1, 83, 114
1, 574373, Note_off_c, 1, 82, 64
1, 574398, Note_on_c, 2, 73, 117
1, 574409, Note_off_c, 2, 71, 64
1, 574434, Note_on_c, 1, 85, 114
1, 574448, Note_off_c, 1, 83, 64
1, 574471, Note_on_c, 2, 74, 113
1, 574485, Note_off_c, 2, 73, 64
1, 574514, Note_on_c, 1, 86, 114
1, 574527, Note_off_c, 1, 85, 64
1, 574550, Note_on_c, 4, 57, 127
1, 574552, Note_on_c, 2, 74, 113
1, 574606, Note_on_c, 2, 76, 109
1, 574630, Note_off_c, 4, 62, 64
1, 574665, Note_on_c, 1, 78, 104
1, 574678, Note_off_c, 2, 76, 64
1, 574705, Note_off_c, 1, 86, 64
1, 574713, Note_on_c, 2, 76, 107
1, 574724, Note_off_c, 1, 78, 64
1, 574752, Note_off_c, 2, 74, 64
1, 574752, Note_off_c, 2, 74, 64
1, 574755, Note_on_c, 1, 78, 104
1, 574763, Note_on_c, 4, 62, 127
1, 574770, Note_off_c, 2, 76, 64
1, 574805, Note_on_c, 2, 76, 105
1, 574816, Note_off_c, 1, 78, 64
1, 574847, Note_on_c, 1, 78, 102
1, 574862, Note_off_c, 2, 76, 64
1, 574885, Note_on_c, 2, 76, 105
1, 574899, Note_off_c, 1, 78, 64
1, 574918, Note_off_c, 4, 57, 64
1, 574924, Note_on_c, 1, 78, 99
1, 574934, Note_off_c, 2, 76, 64
1, 574937, Note_on_c, 4, 64, 127
1, 574959, Note_on_c, 2, 76, 101
1, 574969, Note_off_c, 1, 78, 64
1, 574996, Note_on_c, 1, 78, 99
1, 575005, Note_off_c, 2, 76, 64
1, 575030, Note_on_c, 2, 76, 101
1, 575038, Note_off_c, 1, 78, 64
1, 575059, Note_on_c, 1, 78, 99
1, 575063, Note_off_c, 4, 62, 64
1, 575069, Note_off_c, 2, 76, 64
1, 575082, Note_on_c, 4, 62, 127
1, 575092, Note_on_c, 2, 76, 101
1, 575101, Note_off_c, 1, 78, 64
1, 575126, Note_on_c, 1, 78, 99
1, 575134, Note_off_c, 2, 76, 64
1, 575155, Note_on_c, 2, 76, 101
1, 575165, Note_off_c, 1, 78, 64
1, 575171, Note_on_c, 1, 78, 99
1, 575198, Note_off_c, 2, 76, 64
1, 575200, Note_off_c, 4, 64, 64
1, 575206, Note_on_c, 2, 76, 101
1, 575210, Note_off_c, 1, 78, 64
1, 575220, Note_on_c, 4, 57, 127
1, 575233, Note_on_c, 1, 78, 99
1, 575246, Note_off_c, 2, 76, 64
1, 575266, Note_on_c, 2, 76, 101
1, 575271, Note_off_c, 1, 78, 64
1, 575287, Note_on_c, 1, 78, 100
1, 575312, Note_off_c, 2, 76, 64
1, 575323, Note_on_c, 2, 76, 103
1, 575333, Note_off_c, 1, 78, 64
1, 575340, Note_off_c, 4, 62, 64
1, 575358, Note_on_c, 1, 78, 100
1, 575364, Note_on_c, 4, 61, 127
1, 575367, Note_off_c, 2, 76, 64
1, 575388, Note_on_c, 2, 76, 103
1, 575396, Note_off_c, 1, 78, 64
1, 575423, Note_on_c, 1, 78, 100
1, 575435, Note_off_c, 2, 76, 64
1, 575463, Note_on_c, 2, 76, 103
1, 575470, Note_off_c, 1, 78, 64
1, 575485, Note_off_c, 4, 57, 64
1, 575493, Note_on_c, 1, 78, 104
1, 575503, Note_off_c, 2, 76, 64
1, 575507, Note_on_c, 4, 64, 127
1, 575522, Note_on_c, 2, 76, 107
1, 575530, Note_off_c, 1, 78, 64
1, 575555, Note_on_c, 1, 78, 104
1, 575564, Note_off_c, 2, 76, 64
1, 575589, Note_on_c, 2, 76, 107
1, 575597, Note_off_c, 1, 78, 64
1, 575620, Note_on_c, 1, 78, 106
1, 575622, Note_off_c, 4, 61, 64
1, 575629, Note_off_c, 2, 76, 64
1, 575643, Note_on_c, 4, 61, 127
1, 575652, Note_on_c, 2, 76, 109
1, 575662, Note_off_c, 1, 78, 64
1, 575683, Note_on_c, 2, 74, 113
1, 575693, Note_off_c, 2, 76, 64
1, 575718, Note_on_c, 2, 76, 109
1, 575727, Note_off_c, 2, 74, 64
1, 575762, Note_off_c, 2, 76, 64
1, 575764, Note_off_c, 4, 64, 64
1, 575789, Note_on_c, 2, 76, 109
1, 575795, Note_on_c, 2, 67, 120
1, 575797, Note_on_c, 4, 50, 127
1, 575797, Note_on_c, 4, 57, 127
1, 575797, Note_on_c, 2, 69, 110
1, 575798, Note_on_c, 4, 62, 127
1, 575812, Note_off_c, 4, 61, 64
1, 576093, Note_off_c, 2, 76, 64
1, 576095, Note_off_c, 2, 67, 64
1, 576095, Note_on_c, 2, 74, 118
1, 576096, Note_on_c, 4, 66, 127
1, 576198, Note_off_c, 2, 69, 64
1, 577506, Note_off_c, 2, 74, 64
1, 577507, Note_off_c, 4, 66, 64
1, 577521, Note_off_c, 4, 50, 64
1, 577522, Note_off_c, 4, 57, 64
1, 577522, Note_off_c, 4, 62, 64
1, 577524, Note_on_c, 1, 81, 107
1, 577608, Note_off_c, 1, 81, 64
1, 577609, Note_on_c, 2, 73, 105
1, 577687, Note_off_c, 2, 73, 64
1, 577694, Note_on_c, 2, 76, 106
1, 577694, Note_on_c, 4, 62, 127
1, 577716, Note_on_c, 2, 74, 106
1, 577726, Note_off_c, 2, 76, 64
1, 577776, Note_on_c, 4, 66, 127
1, 577851, Note_off_c, 2, 74, 64
1, 577854, Note_off_c, 4, 62, 64
1, 577858, Note_on_c, 2, 74, 106
1, 577859, Note_on_c, 2, 69, 119
1, 577936, Note_off_c, 4, 66, 64
1, 577940, Note_on_c, 4, 66, 127
1, 578013, Note_off_c, 2, 74, 64
1, 578015, Note_off_c, 2, 69, 64
1, 578019, Note_on_c, 4, 62, 127
1, 578019, Note_on_c, 2, 74, 106
1, 578096, Note_off_c, 4, 66, 64
1, 578100, Note_on_c, 4, 66, 127
1, 578175, Note_off_c, 2, 74, 64
1, 578179, Note_off_c, 4, 62, 64
1, 578183, Note_on_c, 2, 76, 110
1, 578183, Note_on_c, 4, 61, 127
1, 578261, Note_off_c, 4, 66, 64
1, 578264, Note_on_c, 2, 67, 127
1, 578340, Note_off_c, 4, 61, 64
1, 578340, Note_off_c, 2, 76, 64
1, 578344, Note_on_c, 2, 69, 119
1, 578344, Note_on_c, 1, 79, 107
1, 578418, Note_off_c, 2, 67, 64
1, 578424, Note_on_c, 2, 67, 127
1, 578495, Note_off_c, 1, 79, 64
1, 578499, Note_off_c, 2, 69, 64
1, 578503, Note_on_c, 4, 64, 127
1, 578503, Note_on_c, 2, 73, 109
1, 578579, Note_off_c, 2, 67, 64
1, 578582, Note_on_c, 2, 69, 119
1, 578583, Note_on_c, 2, 67, 127
1, 578653, Note_off_c, 2, 73, 64
1, 578656, Note_off_c, 4, 64, 64
1, 578660, Note_on_c, 1, 78, 107
1, 578661, Note_on_c, 4, 62, 127
1, 578726, Note_off_c, 2, 69, 64
1, 578734, Note_off_c, 2, 67, 64
1, 578740, Note_on_c, 2, 69, 119
1, 578813, Note_off_c, 4, 62, 64
1, 578817, Note_off_c, 1, 78, 64
1, 578817, Note_on_c, 1, 81, 107
1, 578818, Note_on_c, 4, 66, 127
1, 578892, Note_off_c, 2, 69, 64
1, 578896, Note_on_c, 4, 62, 127
1, 578948, Note_off_c, 1, 81, 64
1, 578969, Note_off_c, 4, 66, 64
1, 578973, Note_on_c, 1, 83, 107
1, 578974, Note_on_c, 4, 55, 127
1, 578974, Note_on_c, 2, 67, 127
1, 579047, Note_off_c, 4, 62, 64
1, 579051, Note_on_c, 4, 64, 127
1, 579051, Note_on_c, 1, 79, 107
1, 579060, Note_off_c, 1, 83, 64
1, 579127, Note_off_c, 2, 67, 64
1, 579127, Note_off_c, 4, 55, 64
1, 579132, Note_on_c, 4, 57, 127
1, 579132, Note_on_c, 1, 78, 107
1, 579132, Note_on_c, 4, 62, 127
1, 579138, Note_off_c, 1, 79, 64
1, 579207, Note_off_c, 4, 64, 64
1, 579294, Note_off_c, 4, 62, 64
1, 579294, Note_off_c, 1, 78, 64
1, 579295, Note_on_c, 4, 61, 127
1, 579295, Note_on_c, 2, 76, 110
1, 579440, Note_off_c, 2, 76, 64
1, 579445, Note_on_c, 1, 81, 107
1, 579523, Note_on_c, 2, 73, 109
1, 579532, Note_off_c, 1, 81, 64
1, 579561, Note_off_c, 4, 61, 64
1, 579588, Note_off_c, 4, 57, 64
1, 579601, Note_on_c, 2, 76, 110
1, 579601, Note_on_c, 4, 54, 127
1, 579610, Note_off_c, 2, 73, 64
1, 579635, Note_off_c, 2, 76, 64
1, 579638, Note_on_c, 2, 74, 110
1, 579677, Note_on_c, 4, 57, 127
1, 579740, Note_off_c, 2, 74, 64
1, 579752, Note_off_c, 4, 54, 64
1, 579757, Note_on_c, 2, 74, 110
1, 579758, Note_on_c, 4, 62, 127
1, 579829, Note_off_c, 4, 57, 64
1, 579833, Note_on_c, 4, 57, 127
1, 579902, Note_off_c, 2, 74, 64
1, 579904, Note_off_c, 4, 62, 64
1, 579909, Note_on_c, 2, 74, 114
1, 579909, Note_on_c, 4, 53, 127
1, 579982, Note_off_c, 4, 57, 64
1, 579986, Note_on_c, 4, 57, 127
1, 580063, Note_off_c, 2, 74, 64
1, 580069, Note_off_c, 4, 53, 64
1, 580084, Note_off_c, 4, 57, 64
1, 580084, Note_on_c, 2, 74, 118
1, 580085, Note_on_c, 4, 56, 127
1, 580085, Note_on_c, 4, 59, 127
1, 580086, Note_on_c, 4, 52, 127
1, 580120, Note_on_c, 1, 80, 115
1, 580144, Note_on_c, 1, 86, 115
1, 580377, Note_off_c, 2, 74, 64
1, 580387, Note_off_c, 1, 80, 64
1, 580388, Note_on_c, 2, 74, 118
1, 580394, Note_off_c, 1, 86, 64
1, 580419, Note_off_c, 2, 74, 64
1, 580425, Note_on_c, 2, 76, 118
1, 580536, Note_off_c, 2, 76, 64
1, 580538, Note_on_c, 1, 78, 115
1, 580575, Note_on_c, 2, 76, 118
1, 580583, Note_off_c, 1, 78, 64
1, 580688, Note_off_c, 4, 52, 64
1, 580689, Note_off_c, 4, 59, 64
1, 580689, Note_off_c, 4, 56, 64
1, 580728, Note_on_c, 4, 56, 127
1, 580728, Note_on_c, 4, 59, 127
1, 580728, Note_on_c, 4, 62, 127
1, 580729, Note_on_c, 4, 52, 127
1, 580839, Note_off_c, 2, 76, 64
1, 580839, Note_on_c, 2, 74, 117
1, 580869, Note_off_c, 2, 74, 64
1, 580876, Note_on_c, 2, 71, 116
1, 580978, Note_off_c, 2, 71, 64
1, 580990, Note_on_c, 2, 68, 120
1, 581026, Note_off_c, 2, 68, 64
1, 581032, Note_on_c, 2, 69, 118
1, 581164, Note_off_c, 4, 52, 64
1, 581165, Note_off_c, 4, 59, 64
1, 581165, Note_off_c, 4, 56, 64
1, 581166, Note_off_c, 4, 62, 64
1, 581178, Note_off_c, 2, 69, 64
1, 581178, Note_on_c, 4, 61, 127
1, 581179, Note_on_c, 4, 57, 127
1, 581290, Note_on_c, 1, 80, 114
1, 581317, Note_off_c, 1, 80, 64
1, 581327, Note_on_c, 1, 81, 114
1, 581442, Note_off_c, 1, 81, 64
1, 581443, Note_on_c, 2, 73, 116
1, 581482, Note_off_c, 2, 73, 64
1, 581483, Note_on_c, 2, 74, 117
1, 581483, Note_on_c, 2, 74, 117
1, 581484, Note_on_c, 4, 50, 127
1, 581496, Note_off_c, 4, 61, 64
1, 581496, Note_off_c, 4, 57, 64
1, 581521, Note_on_c, 4, 62, 127
1, 581564, Note_off_c, 4, 50, 64
1, 581564, Note_on_c, 1, 78, 114
1, 581565, Note_on_c, 4, 61, 127
1, 581578, Note_off_c, 4, 62, 64
1, 581605, Note_off_c, 1, 78, 64
1, 581605, Note_on_c, 1, 81, 114
1, 581606, Note_on_c, 4, 62, 127
1, 581619, Note_off_c, 4, 61, 64
1, 581644, Note_off_c, 1, 81, 64
1, 581646, Note_on_c, 1, 86, 115
1, 581647, Note_on_c, 4, 47, 127
1, 581680, Note_off_c, 4, 62, 64
1, 581686, Note_on_c, 4, 59, 127
1, 581726, Note_off_c, 4, 47, 64
1, 581726, Note_on_c, 4, 57, 127
1, 581739, Note_off_c, 4, 59, 64
1, 581767, Note_on_c, 4, 59, 127
1, 581781, Note_off_c, 4, 57, 64
1, 581808, Note_on_c, 4, 42, 127
1, 581845, Note_off_c, 4, 59, 64
1, 581851, Note_on_c, 4, 54, 127
1, 581870, Note_off_c, 1, 86, 64
1, 581888, Note_off_c, 4, 42, 64
1, 581888, Note_on_c, 2, 74, 117
1, 581889, Note_on_c, 4, 52, 127
1, 581903, Note_off_c, 4, 54, 64
1, 581930, Note_on_c, 4, 54, 127
1, 581944, Note_off_c, 4, 52, 64
1, 581970, Note_on_c, 2, 76, 117
1, 581971, Note_on_c, 4, 43, 127
1, 582006, Note_off_c, 4, 54, 64
1, 582014, Note_on_c, 4, 55, 127
1, 582027, Note_off_c, 2, 76, 64
1, 582055, Note_off_c, 4, 43, 64
1, 582055, Note_on_c, 1, 79, 114
1, 582056, Note_on_c, 4, 54, 127
1, 582070, Note_off_c, 4, 55, 64
1, 582095, Note_on_c, 2, 76, 117
1, 582095, Note_on_c, 4, 55, 127
1, 582108, Note_off_c, 4, 54, 64
1, 582108, Note_off_c, 1, 79, 64
1, 582114, Note_off_c, 2, 74, 64
1, 582114, Note_off_c, 2, 74, 64
1, 582114, Note_off_c, 2, 74, 64
1, 582134, Note_on_c, 1, 83, 118
1, 582135, Note_on_c, 4, 40, 127
1, 582147, Note_off_c, 2, 76, 64
1, 582168, Note_off_c, 4, 55, 64
1, 582174, Note_on_c, 4, 52, 127
1, 582188, Note_off_c, 1, 83, 64
1, 582215, Note_off_c, 4, 40, 64
1, 582215, Note_on_c, 1, 79, 114
1, 582216, Note_on_c, 4, 51, 127
1, 582229, Note_off_c, 4, 52, 64
1, 582258, Note_on_c, 2, 76, 117
1, 582258, Note_on_c, 4, 52, 127
1, 582272, Note_off_c, 4, 51, 64
1, 582273, Note_off_c, 1, 79, 64
1, 582300, Note_on_c, 2, 73, 116
1, 582300, Note_on_c, 4, 45, 127
1, 582314, Note_off_c, 2, 76, 64
1, 582336, Note_off_c, 4, 52, 64
1, 582341, Note_on_c, 4, 57, 127
1, 582355, Note_off_c, 2, 73, 64
1, 582382, Note_off_c, 4, 45, 64
1, 582382, Note_on_c, 2, 76, 117
1, 582383, Note_on_c, 4, 56, 127
1, 582396, Note_off_c, 4, 57, 64
1, 582423, Note_on_c, 2, 69, 118
1, 582424, Note_on_c, 4, 57, 127
1, 582438, Note_off_c, 4, 56, 64
1, 582438, Note_off_c, 2, 76, 64
1, 582465, Note_on_c, 1, 81, 114
1, 582466, Note_on_c, 4, 42, 127
1, 582480, Note_off_c, 2, 69, 64
1, 582503, Note_off_c, 4, 57, 64
1, 582508, Note_on_c, 4, 54, 127
1, 582524, Note_off_c, 1, 81, 64
1, 582551, Note_off_c, 4, 42, 64
1, 582552, Note_on_c, 1, 78, 114
1, 582552, Note_on_c, 4, 52, 127
1, 582564, Note_off_c, 4, 54, 64
1, 582590, Note_on_c, 2, 74, 117
1, 582591, Note_on_c, 4, 54, 127
1, 582604, Note_off_c, 4, 52, 64
1, 582605, Note_off_c, 1, 78, 64
1, 582630, Note_on_c, 1, 86, 115
1, 582631, Note_on_c, 4, 47, 127
1, 582643, Note_off_c, 2, 74, 64
1, 582664, Note_off_c, 4, 54, 64
1, 582670, Note_on_c, 4, 59, 127
1, 582710, Note_off_c, 4, 47, 64
1, 582710, Note_on_c, 4, 58, 127
1, 582722, Note_off_c, 4, 59, 64
1, 582748, Note_on_c, 4, 59, 127
1, 582761, Note_off_c, 4, 58, 64
1, 582788, Note_on_c, 4, 43, 127
1, 582820, Note_off_c, 4, 59, 64
1, 582826, Note_on_c, 4, 55, 127
1, 582840, Note_off_c, 1, 86, 64
1, 582866, Note_off_c, 4, 43, 64
1, 582867, Note_on_c, 1, 79, 114
1, 582867, Note_on_c, 2, 76, 117
1, 582868, Note_on_c, 4, 54, 127
1, 582880, Note_off_c, 4, 55, 64
1, 582907, Note_on_c, 4, 55, 127
1, 582921, Note_off_c, 4, 54, 64
1, 582944, Note_off_c, 2, 76, 64
1, 582944, Note_off_c, 1, 79, 64
1, 582950, Note_on_c, 2, 74, 117
1, 582950, Note_on_c, 1, 78, 114
1, 582951, Note_on_c, 4, 45, 127
1, 582986, Note_off_c, 4, 55, 64
1, 582994, Note_on_c, 4, 57, 127
1, 583037, Note_on_c, 4, 56, 127
1, 583052, Note_off_c, 4, 57, 64
1, 583081, Note_on_c, 4, 57, 127
1, 583096, Note_off_c, 4, 56, 64
1, 583110, Note_off_c, 4, 45, 64
1, 583118, Note_off_c, 2, 74, 64
1, 583119, Note_off_c, 1, 78, 64
1, 583125, Note_on_c, 2, 76, 117
1, 583126, Note_on_c, 4, 45, 127
1, 583126, Note_on_c, 2, 73, 116
1, 583161, Note_off_c, 4, 57, 64
1, 583168, Note_on_c, 4, 57, 127
1, 583202, Note_off_c, 4, 45, 64
1, 583208, Note_on_c, 4, 43, 127
1, 583242, Note_off_c, 4, 57, 64
1, 583250, Note_on_c, 4, 55, 127
1, 583286, Note_off_c, 4, 43, 64
1, 583292, Note_on_c, 4, 42, 127
1, 583329, Note_off_c, 4, 55, 64
1, 583334, Note_on_c, 4, 54, 127
1, 583373, Note_off_c, 4, 42, 64
1, 583379, Note_on_c, 4, 40, 127
1, 583414, Note_off_c, 4, 54, 64
1, 583422, Note_off_c, 2, 76, 64
1, 583422, Note_off_c, 2, 73, 64
1, 583423, Note_on_c, 4, 52, 127
1, 583461, Note_off_c, 4, 40, 64
1, 583467, Note_on_c, 4, 42, 127
1, 583467, Note_on_c, 2, 74, 117
1, 583504, Note_off_c, 4, 52, 64
1, 583512, Note_on_c, 4, 54, 127
1, 583552, Note_off_c, 2, 74, 64
1, 583553, Note_on_c, 1, 78, 114
1, 583553, Note_on_c, 4, 52, 127
1, 583588, Note_off_c, 4, 54, 64
1, 583594, Note_on_c, 1, 81, 114
1, 583594, Note_on_c, 4, 54, 127
1, 583608, Note_off_c, 1, 78, 64
1, 583629, Note_off_c, 4, 52, 64
1, 583637, Note_on_c, 4, 50, 127
1, 583637, Note_on_c, 1, 86, 115
1, 583649, Note_off_c, 1, 81, 64
1, 583670, Note_off_c, 4, 54, 64
1, 583678, Note_on_c, 4, 62, 127
1, 583692, Note_off_c, 4, 42, 64
1, 583713, Note_off_c, 4, 50, 64
1, 583718, Note_on_c, 4, 49, 127
1, 583753, Note_off_c, 4, 62, 64
1, 583759, Note_on_c, 4, 61, 127
1, 583793, Note_off_c, 4, 49, 64
1, 583799, Note_on_c, 4, 47, 127
1, 583834, Note_off_c, 4, 61, 64
1, 583839, Note_on_c, 4, 59, 127
1, 583866, Note_off_c, 1, 86, 64
1, 583874, Note_off_c, 4, 47, 64
1, 583880, Note_on_c, 4, 45, 127
1, 583880, Note_on_c, 2, 74, 117
1, 583915, Note_off_c, 4, 59, 64
1, 583921, Note_on_c, 4, 57, 127
1, 583954, Note_off_c, 2, 74, 64
1, 583955, Note_off_c, 4, 45, 64
1, 583960, Note_on_c, 2, 74, 117
1, 583961, Note_on_c, 4, 44, 127
1, 583998, Note_off_c, 4, 57, 64
1, 584004, Note_on_c, 4, 56, 127
1, 584040, Note_off_c, 2, 74, 64
1, 584046, Note_on_c, 1, 80, 114
1, 584046, Note_on_c, 4, 54, 127
1, 584060, Note_off_c, 4, 56, 64
1, 584087, Note_on_c, 1, 83, 118
1, 584088, Note_on_c, 4, 56, 127
1, 584101, Note_off_c, 4, 54, 64
1, 584102, Note_off_c, 1, 80, 64
1, 584120, Note_off_c, 4, 44, 64
1, 584127, Note_on_c, 1, 86, 115
1, 584128, Note_on_c, 4, 47, 127
1, 584142, Note_off_c, 1, 83, 64
1, 584163, Note_off_c, 4, 56, 64
1, 584169, Note_on_c, 4, 59, 127
1, 584203, Note_off_c, 4, 47, 64
1, 584209, Note_on_c, 4, 45, 127
1, 584244, Note_off_c, 4, 59, 64
1, 584249, Note_on_c, 4, 57, 127
1, 584282, Note_off_c, 4, 45, 64
1, 584288, Note_on_c, 4, 43, 127
1, 584323, Note_off_c, 4, 57, 64
1, 584328, Note_on_c, 4, 55, 127
1, 584355, Note_off_c, 1, 86, 64
1, 584361, Note_off_c, 4, 43, 64
1, 584368, Note_on_c, 2, 74, 121
1, 584369, Note_on_c, 4, 40, 127
1, 584402, Note_off_c, 4, 55, 64
1, 584408, Note_on_c, 4, 52, 127
1, 584444, Note_off_c, 4, 40, 64
1, 584450, Note_on_c, 2, 73, 120
1, 584450, Note_on_c, 4, 45, 127
1, 584451, Note_off_c, 2, 74, 64
1, 584485, Note_off_c, 4, 52, 64
1, 584491, Note_on_c, 4, 57, 127
1, 584534, Note_on_c, 4, 56, 127
1, 584547, Note_off_c, 4, 57, 64
1, 584572, Note_on_c, 4, 57, 127
1, 584585, Note_off_c, 4, 56, 64
1, 584604, Note_off_c, 4, 45, 64
1, 584605, Note_off_c, 2, 73, 64
1, 584611, Note_on_c, 2, 76, 121
1, 584612, Note_on_c, 4, 37, 127
1, 584649, Note_off_c, 4, 57, 64
1, 584654, Note_on_c, 4, 49, 127
1, 584695, Note_off_c, 4, 37, 64
1, 584696, Note_on_c, 4, 47, 127
1, 584709, Note_off_c, 4, 49, 64
1, 584736, Note_on_c, 4, 49, 127
1, 584749, Note_off_c, 4, 47, 64
1, 584769, Note_off_c, 2, 76, 64
1, 584776, Note_on_c, 2, 68, 121
1, 584777, Note_on_c, 4, 59, 127
1, 584777, Note_on_c, 4, 62, 127
1, 584778, Note_on_c, 4, 40, 127
1, 584811, Note_off_c, 4, 49, 64
1, 584817, Note_on_c, 4, 52, 127
1, 584857, Note_off_c, 4, 40, 64
1, 584858, Note_on_c, 4, 50, 127
1, 584872, Note_off_c, 4, 52, 64
1, 584900, Note_on_c, 4, 52, 127
1, 584916, Note_off_c, 4, 50, 64
1, 584937, Note_off_c, 4, 62, 64
1, 584937, Note_off_c, 4, 59, 64
1, 584938, Note_off_c, 2, 68, 64
1, 584943, Note_on_c, 2, 69, 119
1, 584944, Note_on_c, 4, 61, 127
1, 584944, Note_on_c, 4, 64, 126
1, 584945, Note_on_c, 4, 45, 127
1, 584957, Note_off_c, 4, 52, 64
1, 584984, Note_on_c, 4, 57, 127
1, 585026, Note_off_c, 4, 45, 64
1, 585027, Note_on_c, 4, 52, 127
1, 585042, Note_off_c, 4, 57, 64
1, 585072, Note_on_c, 4, 49, 127
1, 585086, Note_off_c, 4, 52, 64
1, 585114, Note_on_c, 4, 45, 127
1, 585128, Note_off_c, 4, 49, 64
1, 585197, Note_off_c, 2, 69, 64
1, 585276, Note_on_c, 1, 81, 115
1, 585288, Note_off_c, 4, 64, 64
1, 585360, Note_on_c, 1, 78, 115
1, 585367, Note_off_c, 1, 81, 64
1, 585431, Note_off_c, 4, 61, 64
1, 585445, Note_on_c, 2, 75, 118
1, 585445, Note_on_c, 2, 72, 117
1, 585445, Note_on_c, 2, 69, 118
1, 585454, Note_off_c, 1, 78, 64
1, 585528, Note_on_c, 2, 76, 118
1, 585529, Note_on_c, 2, 68, 120
1, 585529, Note_on_c, 2, 71, 116
1, 585537, Note_off_c, 2, 69, 64
1, 585538, Note_off_c, 2, 72, 64
1, 585538, Note_off_c, 2, 75, 64
1, 585609, Note_on_c, 1, 82, 115
1, 585619, Note_off_c, 2, 71, 64
1, 585619, Note_off_c, 2, 68, 64
1, 585620, Note_off_c, 2, 76, 64
1, 585693, Note_on_c, 1, 83, 115
1, 585702, Note_off_c, 1, 82, 64
1, 585777, Note_on_c, 2, 73, 117
1, 585778, Note_on_c, 2, 67, 127
1, 585778, Note_on_c, 2, 70, 118
1, 585786, Note_off_c, 1, 83, 64
1, 585861, Note_on_c, 2, 74, 118
1, 585861, Note_on_c, 2, 69, 118
1, 585862, Note_on_c, 4, 66, 127
1, 585869, Note_off_c, 2, 67, 64
1, 585870, Note_off_c, 2, 73, 64
1, 585870, Note_off_c, 2, 70, 64
1, 585945, Note_off_c, 4, 45, 64
1, 585946, Note_on_c, 4, 47, 127
1, 585946, Note_on_c, 4, 59, 127
1, 585955, Note_off_c, 4, 66, 64
1, 585956, Note_off_c, 2, 69, 64
1, 585957, Note_off_c, 2, 74, 64
1, 586032, Note_on_c, 2, 74, 118
1, 586032, Note_on_c, 1, 86, 115
1, 586113, Note_on_c, 4, 57, 127
1, 586114, Note_on_c, 4, 45, 127
1, 586116, Note_off_c, 4, 59, 64
1, 586116, Note_off_c, 4, 47, 64
1, 586123, Note_off_c, 1, 86, 64
1, 586123, Note_off_c, 2, 74, 64
1, 586199, Note_on_c, 1, 85, 115
1, 586199, Note_on_c, 2, 73, 117
1, 586280, Note_on_c, 4, 55, 127
1, 586281, Note_on_c, 4, 43, 127
1, 586283, Note_off_c, 4, 45, 64
1, 586284, Note_off_c, 4, 57, 64
1, 586288, Note_off_c, 2, 73, 64
1, 586288, Note_off_c, 1, 85, 64
1, 586362, Note_on_c, 1, 83, 115
1, 586362, Note_on_c, 2, 71, 116
1, 586445, Note_on_c, 4, 66, 127
1, 586446, Note_on_c, 4, 54, 127
1, 586448, Note_off_c, 4, 55, 64
1, 586485, Note_off_c, 4, 43, 64
1, 586523, Note_on_c, 1, 81, 115
1, 586524, Note_on_c, 2, 69, 118
1, 586526, Note_off_c, 2, 71, 64
1, 586526, Note_off_c, 1, 83, 64
1, 586600, Note_on_c, 4, 64, 126
1, 586600, Note_on_c, 4, 52, 127
1, 586603, Note_off_c, 4, 66, 64
1, 586603, Note_off_c, 4, 54, 64
1, 586682, Note_on_c, 1, 79, 115
1, 586683, Note_on_c, 2, 67, 127
1, 586685, Note_off_c, 2, 69, 64
1, 586686, Note_off_c, 1, 81, 64
1, 586761, Note_on_c, 4, 62, 127
1, 586762, Note_on_c, 4, 50, 127
1, 586764, Note_off_c, 4, 52, 64
1, 586764, Note_off_c, 4, 64, 64
1, 586842, Note_on_c, 1, 78, 115
1, 586842, Note_on_c, 4, 66, 127
1, 586845, Note_off_c, 1, 79, 64
1, 586845, Note_off_c, 2, 67, 64
1, 586919, Note_off_c, 4, 66, 64
1, 586926, Note_off_c, 1, 78, 64
1, 586927, Note_on_c, 1, 81, 115
1, 586929, Note_off_c, 4, 50, 64
1, 586930, Note_off_c, 4, 62, 64
1, 586932, Note_on_c, 2, 69, 118
1, 586932, Note_on_c, 4, 66, 127
1, 586933, Note_on_c, 4, 57, 127
1, 587131, Note_off_c, 4, 66, 64
1, 587167, Note_off_c, 1, 81, 64
1, 587177, Note_on_c, 1, 79, 115
1, 587177, Note_on_c, 4, 64, 126
1, 587222, Note_on_c, 4, 62, 127
1, 587222, Note_on_c, 1, 78, 115
1, 587234, Note_off_c, 4, 64, 64
1, 587235, Note_off_c, 1, 79, 64
1, 587264, Note_on_c, 2, 76, 118
1, 587265, Note_on_c, 4, 61, 127
1, 587284, Note_off_c, 4, 62, 64
1, 587285, Note_off_c, 1, 78, 64
1, 587312, Note_on_c, 1, 78, 115
1, 587313, Note_on_c, 4, 62, 127
1, 587323, Note_off_c, 2, 76, 64
1, 587323, Note_off_c, 4, 61, 64
1, 587337, Note_off_c, 2, 69, 64
1, 587349, Note_on_c, 4, 61, 127
1, 587349, Note_on_c, 2, 76, 118
1, 587361, Note_off_c, 4, 62, 64
1, 587362, Note_off_c, 1, 78, 64
1, 587400, Note_off_c, 4, 57, 64
1, 587627, Note_off_c, 2, 76, 64
1, 587666, Note_on_c, 1, 81, 111
1, 587748, Note_off_c, 1, 81, 64
1, 587749, Note_on_c, 2, 73, 113
1, 587815, Note_off_c, 4, 61, 64
1, 587826, Note_off_c, 2, 73, 64
1, 587827, Note_on_c, 2, 76, 114
1, 587827, Note_on_c, 4, 54, 127
1, 587846, Note_on_c, 2, 74, 114
1, 587858, Note_off_c, 2, 76, 64
1, 587904, Note_on_c, 4, 57, 127
1, 587980, Note_off_c, 2, 74, 64
1, 587982, Note_off_c, 4, 54, 64
1, 587986, Note_on_c, 4, 62, 127
1, 587986, Note_on_c, 2, 74, 114
1, 588065, Note_off_c, 4, 57, 64
1, 588069, Note_on_c, 4, 57, 127
1, 588144, Note_off_c, 2, 74, 64
1, 588148, Note_off_c, 4, 62, 64
1, 588152, Note_on_c, 4, 54, 127
1, 588152, Note_on_c, 2, 74, 114
1, 588233, Note_off_c, 4, 57, 64
1, 588237, Note_on_c, 4, 57, 127
1, 588318, Note_off_c, 2, 74, 64
1, 588322, Note_off_c, 4, 54, 64
1, 588327, Note_off_c, 4, 57, 64
1, 588328, Note_on_c, 4, 55, 127
1, 588336, Note_on_c, 4, 59, 127
1, 588342, Note_on_c, 4, 62, 127
1, 588355, Note_on_c, 2, 74, 114
1, 588372, Note_on_c, 2, 76, 114
1, 588382, Note_on_c, 1, 83, 111
1, 588618, Note_off_c, 2, 74, 64
1, 588624, Note_off_c, 2, 76, 64
1, 588629, Note_off_c, 1, 83, 64
1, 588631, Note_on_c, 2, 76, 114
1, 588661, Note_off_c, 2, 76, 64
1, 588669, Note_on_c, 1, 78, 111
1, 588792, Note_on_c, 1, 79, 111
1, 588796, Note_off_c, 1, 78, 64
1, 588830, Note_on_c, 1, 81, 111
1, 588834, Note_off_c, 1, 79, 64
1, 588951, Note_off_c, 4, 55, 64
1, 588957, Note_off_c, 4, 59, 64
1, 588958, Note_off_c, 4, 62, 64
1, 588992, Note_on_c, 4, 57, 127
1, 588992, Note_on_c, 4, 61, 127
1, 589085, Note_off_c, 1, 81, 64
1, 589112, Note_on_c, 1, 79, 111
1, 589148, Note_on_c, 2, 76, 114
1, 589156, Note_off_c, 1, 79, 64
1, 589266, Note_off_c, 2, 76, 64
1, 589267, Note_on_c, 2, 73, 113
1, 589304, Note_off_c, 2, 73, 64
1, 589308, Note_on_c, 2, 74, 114
1, 589450, Note_off_c, 4, 61, 64
1, 589450, Note_off_c, 4, 57, 64
1, 589463, Note_on_c, 4, 50, 127
1, 589463, Note_on_c, 4, 57, 127
1, 589463, Note_on_c, 4, 62, 127
1, 589528, Note_off_c, 2, 74, 64
1, 589580, Note_on_c, 2, 69, 118
1, 589618, Note_on_c, 2, 74, 118
1, 589624, Note_off_c, 2, 69, 64
1, 589738, Note_off_c, 2, 74, 64
1, 589740, Note_on_c, 1, 78, 115
1, 589774, Note_off_c, 1, 78, 64
1, 589786, Note_on_c, 1, 81, 115
1, 589787, Note_on_c, 1, 78, 115
1, 589787, Note_on_c, 4, 51, 127
1, 589795, Note_off_c, 4, 50, 64
1, 589796, Note_off_c, 4, 62, 64
1, 589796, Note_off_c, 4, 57, 64
1, 589831, Note_on_c, 4, 63, 127
1, 589873, Note_on_c, 1, 79, 115
1, 589874, Note_on_c, 4, 52, 127
1, 589874, Note_on_c, 2, 76, 118
1, 589875, Note_off_c, 4, 51, 64
1, 589883, Note_off_c, 1, 78, 64
1, 589883, Note_off_c, 1, 81, 64
1, 589917, Note_on_c, 4, 64, 126
1, 589919, Note_off_c, 4, 63, 64
1, 589957, Note_on_c, 1, 84, 115
1, 589957, Note_on_c, 2, 75, 118
1, 589958, Note_off_c, 4, 52, 64
1, 589958, Note_on_c, 4, 57, 127
1, 589967, Note_off_c, 1, 79, 64
1, 589967, Note_off_c, 2, 76, 64
1, 589998, Note_on_c, 2, 69, 118
1, 590000, Note_off_c, 4, 64, 64
1, 590042, Note_on_c, 1, 83, 115
1, 590043, Note_on_c, 2, 76, 118
1, 590043, Note_on_c, 4, 55, 127
1, 590044, Note_off_c, 4, 57, 64
1, 590050, Note_off_c, 2, 75, 64
1, 590051, Note_off_c, 1, 84, 64
1, 590082, Note_on_c, 2, 67, 127
1, 590083, Note_off_c, 2, 69, 64
1, 590120, Note_off_c, 2, 76, 64
1, 590120, Note_off_c, 1, 83, 64
1, 590125, Note_on_c, 2, 76, 118
1, 590125, Note_on_c, 1, 79, 115
1, 590126, Note_off_c, 4, 55, 64
1, 590126, Note_on_c, 4, 49, 127
1, 590169, Note_on_c, 4, 61, 127
1, 590170, Note_off_c, 2, 67, 64
1, 590205, Note_off_c, 2, 76, 64
1, 590211, Note_on_c, 1, 78, 115
1, 590212, Note_on_c, 2, 74, 118
1, 590212, Note_on_c, 4, 50, 127
1, 590213, Note_off_c, 4, 49, 64
1, 590221, Note_off_c, 1, 79, 64
1, 590257, Note_on_c, 4, 62, 127
1, 590258, Note_off_c, 4, 61, 64
1, 590294, Note_off_c, 2, 74, 64
1, 590300, Note_on_c, 1, 82, 115
1, 590300, Note_on_c, 2, 73, 117
1, 590301, Note_off_c, 4, 50, 64
1, 590301, Note_on_c, 4, 55, 127
1, 590309, Note_off_c, 1, 78, 64
1, 590346, Note_off_c, 4, 62, 64
1, 590346, Note_on_c, 2, 67, 127
1, 590385, Note_off_c, 4, 55, 64
1, 590386, Note_off_c, 2, 73, 64
1, 590386, Note_on_c, 1, 81, 111
1, 590387, Note_on_c, 4, 54, 127
1, 590387, Note_on_c, 2, 74, 118
1, 590402, Note_off_c, 1, 82, 64
1, 590429, Note_off_c, 2, 67, 64
1, 590430, Note_on_c, 4, 66, 127
1, 590474, Note_off_c, 2, 74, 64
1, 590475, Note_on_c, 2, 74, 118
1, 590483, Note_off_c, 1, 81, 64
1, 590518, Note_on_c, 1, 86, 111
1, 590566, Note_on_c, 1, 85, 111
1, 590573, Note_off_c, 1, 86, 64
1, 590610, Note_on_c, 1, 86, 111
1, 590617, Note_off_c, 1, 85, 64
1, 590625, Note_off_c, 4, 54, 64
1, 590640, Note_off_c, 4, 66, 64
1, 590648, Note_off_c, 2, 74, 64
1, 590656, Note_on_c, 2, 72, 117
1, 590656, Note_on_c, 4, 62, 127
1, 590657, Note_on_c, 4, 54, 127
1, 590691, Note_off_c, 1, 86, 64
1, 590699, Note_on_c, 1, 84, 111
1, 590743, Note_on_c, 1, 83, 111
1, 590751, Note_off_c, 1, 84, 64
1, 590787, Note_on_c, 1, 84, 111
1, 590795, Note_off_c, 1, 83, 64
1, 590826, Note_off_c, 4, 62, 64
1, 590830, Note_off_c, 4, 54, 64
1, 590830, Note_off_c, 2, 72, 64
1, 590831, Note_on_c, 4, 62, 127
1, 590831, Note_on_c, 2, 70, 118
1, 590832, Note_on_c, 4, 55, 127
1, 590865, Note_off_c, 1, 84, 64
1, 590871, Note_on_c, 1, 82, 111
1, 590913, Note_on_c, 1, 81, 111
1, 590919, Note_off_c, 1, 82, 64
1, 590953, Note_on_c, 1, 82, 111
1, 590961, Note_off_c, 1, 81, 64
1, 590996, Note_off_c, 4, 55, 64
1, 590997, Note_off_c, 2, 70, 64
1, 590997, Note_on_c, 2, 69, 118
1, 590998, Note_on_c, 4, 57, 127
1, 591030, Note_off_c, 1, 82, 64
1, 591036, Note_on_c, 1, 81, 111
1, 591080, Note_on_c, 1, 80, 111
1, 591086, Note_off_c, 1, 81, 64
1, 591119, Note_on_c, 1, 81, 111
1, 591126, Note_off_c, 1, 80, 64
1, 591161, Note_off_c, 2, 69, 64
1, 591161, Note_off_c, 4, 57, 64
1, 591162, Note_on_c, 2, 68, 120
1, 591162, Note_on_c, 4, 58, 127
1, 591195, Note_off_c, 1, 81, 64
1, 591201, Note_on_c, 1, 80, 111
1, 591243, Note_on_c, 1, 79, 111
1, 591251, Note_off_c, 1, 80, 64
1, 591286, Note_on_c, 1, 80, 111
1, 591293, Note_off_c, 1, 79, 64
1, 591314, Note_off_c, 4, 62, 64
1, 591328, Note_off_c, 4, 58, 64
1, 591328, Note_off_c, 2, 68, 64
1, 591329, Note_on_c, 4, 61, 127
1, 591329, Note_on_c, 1, 81, 111
1, 591330, Note_on_c, 4, 57, 127
1, 591334, Note_off_c, 1, 80, 64
1, 591478, Note_off_c, 1, 81, 64
1, 591478, Note_off_c, 4, 61, 64
1, 591484, Note_off_c, 4, 57, 64
1, 591485, Note_on_c, 4, 33, 127
1, 591485, Note_on_c, 4, 45, 127
1, 591645, Note_on_c, 4, 46, 127
1, 591646, Note_on_c, 4, 34, 127
1, 591648, Note_off_c, 4, 45, 64
1, 591648, Note_off_c, 4, 33, 64
1, 591810, Note_on_c, 4, 32, 127
1, 591810, Note_on_c, 4, 44, 127
1, 591811, Note_off_c, 4, 34, 64
1, 591811, Note_off_c, 4, 46, 64
1, 591983, Note_on_c, 4, 33, 127
1, 591983, Note_on_c, 4, 45, 127
1, 591985, Note_off_c, 4, 32, 64
1, 591986, Note_off_c, 4, 44, 64
1, 592146, Note_on_c, 2, 69, 118
1, 592275, Note_off_c, 2, 69, 64
1, 592275, Note_on_c, 2, 73, 117
1, 592319, Note_off_c, 2, 73, 64
1, 592319, Note_on_c, 2, 74, 118
1, 592326, Note_on_c, 4, 50, 127
1, 592364, Note_on_c, 4, 62, 127
1, 592385, Note_off_c, 4, 50, 64
1, 592408, Note_off_c, 4, 45, 64
1, 592409, Note_off_c, 2, 74, 64
1, 592409, Note_on_c, 1, 78, 115
1, 592410, Note_on_c, 4, 61, 127
1, 592424, Note_off_c, 4, 62, 64
1, 592452, Note_on_c, 1, 81, 115
1, 592453, Note_on_c, 4, 62, 127
1, 592465, Note_off_c, 4, 61, 64
1, 592465, Note_off_c, 1, 78, 64
1, 592495, Note_on_c, 1, 86, 115
1, 592500, Note_on_c, 4, 47, 127
1, 592508, Note_off_c, 1, 81, 64
1, 592529, Note_off_c, 4, 62, 64
1, 592535, Note_on_c, 4, 59, 127
1, 592575, Note_on_c, 4, 57, 127
1, 592583, Note_off_c, 4, 47, 64
1, 592589, Note_off_c, 4, 59, 64
1, 592616, Note_on_c, 4, 59, 127
1, 592629, Note_off_c, 4, 57, 64
1, 592666, Note_on_c, 4, 42, 127
1, 592692, Note_off_c, 4, 59, 64
1, 592698, Note_on_c, 4, 54, 127
1, 592735, Note_off_c, 1, 86, 64
1, 592740, Note_on_c, 2, 74, 118
1, 592741, Note_on_c, 4, 52, 127
1, 592747, Note_off_c, 4, 42, 64
1, 592755, Note_off_c, 4, 54, 64
1, 592780, Note_on_c, 4, 54, 127
1, 592793, Note_off_c, 4, 52, 64
1, 592814, Note_off_c, 2, 74, 64
1, 592822, Note_on_c, 2, 76, 118
1, 592828, Note_on_c, 4, 43, 127
1, 592857, Note_off_c, 4, 54, 64
1, 592862, Note_on_c, 4, 55, 127
1, 592905, Note_on_c, 1, 79, 115
1, 592905, Note_on_c, 4, 54, 127
1, 592911, Note_off_c, 4, 43, 64
1, 592913, Note_off_c, 2, 76, 64
1, 592919, Note_off_c, 4, 55, 64
1, 592948, Note_on_c, 2, 76, 118
1, 592948, Note_on_c, 4, 55, 127
1, 592962, Note_off_c, 4, 54, 64
1, 592963, Note_off_c, 4, 33, 64
1, 592990, Note_on_c, 1, 83, 116
1, 592996, Note_on_c, 4, 40, 127
1, 592998, Note_off_c, 1, 79, 64
1, 593025, Note_off_c, 4, 55, 64
1, 593030, Note_on_c, 4, 52, 127
1, 593040, Note_off_c, 2, 76, 64
1, 593073, Note_on_c, 1, 79, 116
1, 593073, Note_on_c, 4, 51, 127
1, 593077, Note_off_c, 4, 40, 64
1, 593081, Note_off_c, 1, 83, 64
1, 593087, Note_off_c, 4, 52, 64
1, 593112, Note_on_c, 2, 76, 119
1, 593112, Note_on_c, 4, 52, 127
1, 593126, Note_off_c, 4, 51, 64
1, 593155, Note_on_c, 2, 73, 118
1, 593161, Note_on_c, 4, 45, 127
1, 593165, Note_off_c, 1, 79, 64
1, 593190, Note_off_c, 4, 52, 64
1, 593196, Note_on_c, 4, 57, 127
1, 593203, Note_off_c, 2, 76, 64
1, 593238, Note_on_c, 4, 56, 127
1, 593238, Note_on_c, 2, 76, 119
1, 593244, Note_off_c, 4, 45, 64
1, 593246, Note_off_c, 2, 73, 64
1, 593252, Note_off_c, 4, 57, 64
1, 593279, Note_on_c, 2, 69, 119
1, 593280, Note_on_c, 4, 57, 127
1, 593293, Note_off_c, 4, 56, 64
1, 593320, Note_on_c, 1, 81, 116
1, 593326, Note_on_c, 4, 42, 127
1, 593330, Note_off_c, 2, 76, 64
1, 593357, Note_off_c, 4, 57, 64
1, 593364, Note_on_c, 4, 54, 127
1, 593374, Note_off_c, 2, 69, 64
1, 593407, Note_on_c, 1, 78, 116
1, 593407, Note_on_c, 4, 52, 127
1, 593413, Note_off_c, 4, 42, 64
1, 593417, Note_off_c, 1, 81, 64
1, 593423, Note_off_c, 4, 54, 64
1, 593448, Note_on_c, 2, 74, 119
1, 593449, Note_on_c, 4, 54, 127
1, 593461, Note_off_c, 4, 52, 64
1, 593491, Note_on_c, 1, 83, 116
1, 593497, Note_on_c, 4, 43, 127
1, 593499, Note_off_c, 1, 78, 64
1, 593524, Note_off_c, 4, 54, 64
1, 593530, Note_on_c, 4, 55, 127
1, 593572, Note_on_c, 4, 54, 127
1, 593580, Note_off_c, 4, 43, 64
1, 593587, Note_off_c, 4, 55, 64
1, 593607, Note_off_c, 2, 74, 64
1, 593614, Note_on_c, 4, 55, 127
1, 593628, Note_off_c, 4, 54, 64
1, 593649, Note_off_c, 1, 83, 64
1, 593656, Note_on_c, 2, 73, 118
1, 593657, Note_on_c, 2, 69, 119
1, 593657, Note_on_c, 4, 64, 126
1, 593663, Note_on_c, 4, 45, 127
1, 593690, Note_off_c, 4, 55, 64
1, 593696, Note_on_c, 4, 57, 127
1, 593709, Note_off_c, 4, 64, 64
1, 593738, Note_on_c, 4, 56, 127
1, 593744, Note_off_c, 4, 45, 64
1, 593751, Note_off_c, 4, 57, 64
1, 593778, Note_on_c, 4, 57, 127
1, 593792, Note_off_c, 4, 56, 64
1, 593813, Note_off_c, 2, 73, 64
1, 593813, Note_off_c, 2, 69, 64
1, 593820, Note_on_c, 2, 74, 119
1, 593826, Note_on_c, 4, 47, 127
1, 593856, Note_off_c, 4, 57, 64
1, 593862, Note_on_c, 4, 59, 127
1, 593906, Note_on_c, 1, 80, 116
1, 593907, Note_on_c, 4, 57, 127
1, 593913, Note_off_c, 4, 47, 64
1, 593920, Note_off_c, 4, 59, 64
1, 593950, Note_on_c, 4, 59, 127
1, 593950, Note_on_c, 1, 86, 116
1, 593964, Note_off_c, 4, 57, 64
1, 593987, Note_off_c, 2, 74, 64
1, 593990, Note_on_c, 2, 76, 119
1, 593996, Note_on_c, 4, 45, 127
1, 594025, Note_off_c, 4, 59, 64
1, 594033, Note_on_c, 4, 57, 127
1, 594073, Note_off_c, 1, 80, 64
1, 594077, Note_on_c, 1, 81, 116
1, 594077, Note_on_c, 4, 56, 127
1, 594084, Note_off_c, 4, 45, 64
1, 594091, Note_off_c, 4, 57, 64
1, 594117, Note_off_c, 1, 86, 64
1, 594120, Note_on_c, 1, 85, 116
1, 594120, Note_on_c, 4, 57, 127
1, 594136, Note_off_c, 4, 56, 64
1, 594161, Note_off_c, 2, 76, 64
1, 594165, Note_on_c, 2, 73, 118
1, 594171, Note_on_c, 4, 43, 127
1, 594200, Note_off_c, 4, 57, 64
1, 594205, Note_on_c, 4, 55, 127
1, 594244, Note_off_c, 1, 81, 64
1, 594248, Note_on_c, 2, 76, 119
1, 594249, Note_on_c, 4, 54, 127
1, 594255, Note_off_c, 4, 43, 64
1, 594262, Note_off_c, 4, 55, 64
1, 594287, Note_off_c, 1, 85, 64
1, 594291, Note_on_c, 1, 83, 116
1, 594292, Note_on_c, 4, 55, 127
1, 594306, Note_off_c, 4, 54, 64
1, 594330, Note_off_c, 2, 73, 64
1, 594334, Note_on_c, 2, 74, 119
1, 594340, Note_on_c, 4, 42, 127
1, 594371, Note_off_c, 4, 55, 64
1, 594377, Note_on_c, 4, 54, 127
1, 594417, Note_off_c, 2, 76, 64
1, 594420, Note_on_c, 1, 78, 116
1, 594421, Note_on_c, 4, 52, 127
1, 594427, Note_off_c, 4, 42, 64
1, 594433, Note_off_c, 4, 54, 64
1, 594460, Note_off_c, 1, 83, 64
1, 594464, Note_on_c, 4, 54, 127
1, 594464, Note_on_c, 1, 81, 116
1, 594478, Note_off_c, 4, 52, 64
1, 594486, Note_off_c, 1, 78, 64
1, 594504, Note_off_c, 2, 74, 64
1, 594507, Note_on_c, 2, 71, 117
1, 594513, Note_on_c, 4, 43, 127
1, 594519, Note_on_c, 2, 76, 119
1, 594528, Note_off_c, 1, 81, 64
1, 594529, Note_on_c, 1, 79, 116
1, 594544, Note_off_c, 4, 54, 64
1, 594550, Note_on_c, 4, 55, 127
1, 594593, Note_on_c, 4, 54, 127
1, 594599, Note_off_c, 4, 43, 64
1, 594606, Note_off_c, 4, 55, 64
1, 594635, Note_on_c, 4, 55, 127
1, 594650, Note_off_c, 4, 54, 64
1, 594672, Note_off_c, 2, 71, 64
1, 594677, Note_on_c, 2, 69, 119
1, 594683, Note_off_c, 2, 76, 64
1, 594684, Note_on_c, 4, 45, 127
1, 594688, Note_on_c, 2, 73, 118
1, 594693, Note_off_c, 1, 79, 64
1, 594698, Note_on_c, 2, 76, 119
1, 594714, Note_off_c, 4, 55, 64
1, 594720, Note_on_c, 4, 57, 127
1, 594764, Note_on_c, 4, 55, 127
1, 594769, Note_off_c, 4, 45, 64
1, 594777, Note_off_c, 4, 57, 64
1, 594806, Note_on_c, 4, 57, 127
1, 594821, Note_off_c, 4, 55, 64
1, 594842, Note_off_c, 2, 69, 64
1, 594850, Note_on_c, 2, 74, 119
1, 594854, Note_off_c, 2, 73, 64
1, 594856, Note_on_c, 4, 47, 127
1, 594864, Note_off_c, 2, 76, 64
1, 594885, Note_off_c, 4, 57, 64
1, 594890, Note_on_c, 4, 59, 127
1, 594933, Note_on_c, 4, 57, 127
1, 594933, Note_on_c, 1, 80, 116
1, 594939, Note_off_c, 4, 47, 64
1, 594947, Note_off_c, 4, 59, 64
1, 594972, Note_on_c, 1, 86, 116
1, 594972, Note_on_c, 4, 59, 127
1, 594986, Note_off_c, 4, 57, 64
1, 595011, Note_off_c, 2, 74, 64
1, 595015, Note_on_c, 2, 76, 119
1, 595021, Note_on_c, 4, 45, 127
1, 595052, Note_off_c, 4, 59, 64
1, 595059, Note_on_c, 4, 57, 127
1, 595098, Note_off_c, 1, 80, 64
1, 595102, Note_on_c, 1, 81, 116
1, 595102, Note_on_c, 4, 56, 127
1, 595106, Note_off_c, 4, 45, 64
1, 595114, Note_off_c, 4, 57, 64
1, 595139, Note_off_c, 1, 86, 64
1, 595143, Note_on_c, 4, 57, 127
1, 595143, Note_on_c, 1, 85, 116
1, 595157, Note_off_c, 4, 56, 64
1, 595182, Note_off_c, 2, 76, 64
1, 595186, Note_on_c, 2, 73, 118
1, 595192, Note_on_c, 4, 43, 127
1, 595222, Note_off_c, 4, 57, 64
1, 595228, Note_on_c, 4, 55, 127
1, 595267, Note_off_c, 1, 81, 64
1, 595271, Note_on_c, 2, 76, 119
1, 595271, Note_on_c, 4, 54, 127
1, 595277, Note_off_c, 4, 43, 64
1, 595285, Note_off_c, 4, 55, 64
1, 595308, Note_off_c, 1, 85, 64
1, 595312, Note_on_c, 1, 83, 116
1, 595312, Note_on_c, 4, 55, 127
1, 595328, Note_off_c, 4, 54, 64
1, 595353, Note_off_c, 2, 73, 64
1, 595357, Note_on_c, 2, 74, 119
1, 595363, Note_on_c, 4, 42, 127
1, 595392, Note_off_c, 4, 55, 64
1, 595399, Note_on_c, 4, 54, 127
1, 595438, Note_off_c, 2, 76, 64
1, 595441, Note_on_c, 1, 78, 116
1, 595442, Note_on_c, 4, 52, 127
1, 595448, Note_off_c, 4, 42, 64
1, 595454, Note_off_c, 4, 54, 64
1, 595477, Note_off_c, 1, 83, 64
1, 595481, Note_on_c, 1, 81, 116
1, 595481, Note_on_c, 4, 54, 127
1, 595495, Note_off_c, 4, 52, 64
1, 595503, Note_off_c, 1, 78, 64
1, 595520, Note_off_c, 2, 74, 64
1, 595524, Note_on_c, 2, 71, 117
1, 595530, Note_on_c, 4, 43, 127
1, 595536, Note_on_c, 2, 76, 119
1, 595543, Note_off_c, 1, 81, 64
1, 595544, Note_on_c, 1, 79, 116
1, 595558, Note_off_c, 4, 54, 64
1, 595565, Note_on_c, 4, 55, 127
1, 595609, Note_on_c, 4, 54, 127
1, 595617, Note_off_c, 4, 43, 64
1, 595623, Note_off_c, 4, 55, 64
1, 595652, Note_on_c, 4, 55, 127
1, 595667, Note_off_c, 4, 54, 64
1, 595690, Note_off_c, 2, 71, 64
1, 595698, Note_on_c, 2, 69, 126
1, 595702, Note_off_c, 2, 76, 64
1, 595704, Note_on_c, 4, 45, 127
1, 595707, Note_on_c, 2, 73, 125
1, 595711, Note_off_c, 1, 79, 64
1, 595717, Note_on_c, 2, 76, 126
1, 595734, Note_off_c, 4, 55, 64
1, 595740, Note_on_c, 4, 57, 127
1, 595784, Note_on_c, 4, 55, 127
1, 595798, Note_off_c, 4, 57, 64
1, 595826, Note_on_c, 4, 57, 127
1, 595842, Note_off_c, 4, 55, 64
1, 595863, Note_off_c, 2, 69, 64
1, 595871, Note_off_c, 4, 45, 64
1, 595871, Note_on_c, 4, 62, 127
1, 595875, Note_off_c, 2, 73, 64
1, 595877, Note_on_c, 4, 38, 127
1, 595885, Note_off_c, 2, 76, 64
1, 595910, Note_off_c, 4, 57, 64
1, 595918, Note_on_c, 4, 50, 127
1, 595918, Note_on_c, 2, 74, 126
1, 595965, Note_on_c, 2, 73, 125
1, 595965, Note_on_c, 4, 49, 127
1, 595977, Note_off_c, 4, 50, 64
1, 595978, Note_off_c, 2, 74, 64
1, 596003, Note_on_c, 2, 74, 126
1, 596004, Note_on_c, 4, 50, 127
1, 596017, Note_off_c, 4, 49, 64
1, 596018, Note_off_c, 2, 73, 64
1, 596040, Note_off_c, 4, 62, 64
1, 596047, Note_off_c, 4, 38, 64
1, 596048, Note_on_c, 4, 66, 127
1, 596054, Note_on_c, 4, 42, 127
1, 596085, Note_off_c, 4, 50, 64
1, 596085, Note_off_c, 2, 74, 64
1, 596091, Note_on_c, 1, 78, 123
1, 596092, Note_on_c, 4, 54, 127
1, 596133, Note_on_c, 4, 53, 127
1, 596133, Note_on_c, 2, 77, 126
1, 596145, Note_off_c, 4, 54, 64
1, 596146, Note_off_c, 1, 78, 64
1, 596173, Note_on_c, 1, 78, 123
1, 596173, Note_on_c, 4, 54, 127
1, 596185, Note_off_c, 4, 53, 64
1, 596186, Note_off_c, 2, 77, 64
1, 596208, Note_off_c, 4, 66, 64
1, 596215, Note_off_c, 4, 42, 64
1, 596216, Note_on_c, 2, 69, 126
1, 596222, Note_on_c, 4, 45, 127
1, 596253, Note_off_c, 4, 54, 64
1, 596253, Note_off_c, 1, 78, 64
1, 596259, Note_on_c, 1, 81, 123
1, 596260, Note_on_c, 4, 57, 127
1, 596301, Note_on_c, 1, 80, 123
1, 596301, Note_on_c, 4, 56, 127
1, 596313, Note_off_c, 4, 57, 64
1, 596314, Note_off_c, 1, 81, 64
1, 596339, Note_on_c, 1, 81, 123
1, 596340, Note_on_c, 4, 57, 127
1, 596353, Note_off_c, 4, 56, 64
1, 596354, Note_off_c, 1, 80, 64
1, 596374, Note_off_c, 2, 69, 64
1, 596383, Note_off_c, 4, 45, 64
1, 596385, Note_off_c, 4, 57, 64
1, 596386, Note_off_c, 1, 81, 64
1, 596386, Note_on_c, 4, 50, 127
1, 596387, Note_on_c, 2, 74, 126
1, 596400, Note_on_c, 4, 54, 127
1, 596406, Note_on_c, 1, 78, 123
1, 596416, Note_on_c, 4, 57, 127
1, 596420, Note_on_c, 1, 81, 123
1, 596425, Note_on_c, 1, 86, 123
1, 596426, Note_on_c, 4, 62, 127
1, 601630, Note_off_c, 2, 74, 64
1, 601693, Note_off_c, 4, 50, 64
1, 601694, Note_off_c, 1, 78, 64
1, 601729, Note_off_c, 4, 54, 64
1, 601729, Note_off_c, 1, 81, 64
1, 601745, Note_off_c, 1, 86, 64
1, 601761, Note_off_c, 4, 57, 64
1, 601795, Note_off_c, 4, 62, 64
1, 601795, End_track
0, 0, End_of_file
