HH<C@<LO             H<C@ LOL0HHCC0<<@@     L HH     H0C <@OO4HHCC4@             O4HC @QQ5HHA5AE             Q5HA EMM9E<<9HH OO MM OO9 MEH55MEAAH OO MM OO5E< AH>MMEEA>JQQ OO MM OOM LL L MM M>EA JQOO;J>>;G             O;J> GLL<<HHCCOO     L HH     H<C OLMM55JJEEAA             M5JE AJJ7GGCC7     J HH     H7G CJJ;;GGMM     J LL     L;JC GMM77GCCJJ     M JJ     J7GC LL<<HHCCOO             L<C HOO;;@@JJMMGG     O LL     L;H@ JMGTT99LLEEHH           T OO9LE HNN2JJEE2B>>             N2JE B>LL6EEB6JJ     6 LBEJJ22EB>>     J2EB >HH77CC>JJGG       HGG     G7C> JLL00CC<<@@     C< EE;;     L0E; @C<EE22BB<>> GG EE GG< EE99 GG EE GG29 B>E&E>&229966 GG CC EEB CC>>     C&> 296CC+>>;;+77     + ;>722EEAA>     2 EA>77GGJJCC     7 GJC99EEHHLL     9 EHL77CCGGJJ     7 CGJ55AAHHEE     C5>; AHEH44CC@@GG             H4C@ GLL00HHCC@@<<     L HH     H0C @<OO44HHCC@             O4HC @QQ55HHAAEE             Q5HA EMM99E<<HH OO MM OO9 EHM55MEHAA OO MM OO5E< HA>>MMEEAJJQQ OO MM OOM LL L MM M>EA JQOO;;J>>GG             O;J> GLL<<HHCCOO     L HH     H<C LOMM55JJEEAA             M5JE AJJ77GGCC     J HH     H7G JCJ;;MMGG     J LL     L;JC MGM77GCCJJ     M JJ     J7GC LL<<HHCCOO             L<C OHO;;@@GGJJMM     O LL     L;H@ GJMTT99LLEEHH           T OO9LE HNN22JJEE>>BB             N2JE >BLL66EEBJJ     6 LBEJJ22B>>E     J2EB >HH77CC>JJGG       HGG     G7C> JLL00CC<<@@     C< EE;;     L0E; @C<EE22BB<>> GG EE GG< EE99 GG EE GG29 B>E&&E>226699 GG CC EEB CC>>     C&> 269CC++>>;;77             + >;7//;>AA             / ;>A22AEE>             C2>; AECC77>>;;GGJJ             C7>; GJG22CC>>AAEE     G CC     C2> AEJJ//CC>>;;A             J/C> ;AMM,GG>>,8A;             M,G> 8A;JJ//GGDA>>; LLHH JJGG LLHH/ A>;JJ,,GG;88> LLHH JJGG LLHH,D ;8>JJ44GGDD@@ LLHH JJGG LLHH HHEE HE JJGG J4G D@LL00HHEE<<@             L0HE <@HH55EEAA     H EE     E5H AQQ22GGAEE>>             Q2GA E>PP44GG@@DD       PQQ     4 QDG@SS88DJJG     S8 DJGPP44@@GD     P4G@ DLL@@DPPSS     L JJ     J@D LPSHH99EE@@L             H9E@ LL-HHEE-<<@@99     L HH     H-E <@9QQ00EE@<             Q0E@ <GG22EEAA>>     G HH     H2E A>JJ55DDEEAHH     5D EAH22EA>>     2EA >88GG@@LLJJDD     J@ MM>>     M8G> LJDL99HHEE             L9HE JJ22GGAA>>EE     JG HHEE     H2EA >GG44DD;;@@     GD HHEE     H4E; G@DEE--@<<99             - @<900<CC@     0@ <C--AA@@<99     -A @<955AAHHEE CC AA CC AA CC @@ AAE5< HCC44<<@@H             C4< @HH00@<<CC     H CC     C0@ <LL<CCOOHH             L<C OHEE55AA<<H     E5 AHGG44@@CC     G4A< @CGG55C>>AAJJ HH GG HH5 CGAJG22>>EEA HH GG HH2 >EAGG77JJCC HH GG HH EE E GG G7C> JHH44CC@@             H4C@ MM99HH<<EE     M HH     H9< MEQQ55E>>AAHH             Q5E> AHGG77CC>>JJ     G HH     H7C> GJHH@@CC<<OOLLTT JJ HH JJ@< OLTHH>>;;JJQQMM JJ HH JJ>; QMHH@@<<LLTTOO JJ HH JJ@< LTOGG<<99LHHO G HH H<C9 LOJJ;;CCGGO             J;C GOG77>>JJCC     G CC     C7G> JMM;;JCCOOGG             M;JC OGLL00HHCC<<@@             L0HC <@QQ55HHAAEE     Q5 AHEOO22>>EA     O2HA >EQQ;;JJAAGGMM     Q MM     M;JA QGOO44HH@@CC             O4H@ CHH55EE@@AALL             H5E@ ALGG77CC>>JJ             G7C> JHH00CC@@<<     0 <@C//>>AA;;     / >A;00<<CC@@     0 <C@22>>EEAA     2 >EA44CC@@GG     4 C@G55HHAAEE     H5C@ AECC77>>;;JJGG             C7>; JGG22CC>>EEAA     G CC     C2> EAJJ//CC>>;;A             J/C> ;AMM,,GG>>88A;             M,G> 8A;JJ//GGDDA>>; LLHH JJGG LLHH/ A>;JJ,,GG88>; LLHH JJGG LLHH,D 8>;JJ44GG@@DD LLHH JJGG LLHH HHEE HE JJGG J4G @DLL00HHEE<<@             L0HE <@HH55EEAA     H EE     E5H AQQ22GGAEE>>             Q2GA E>PP44GG@@DD       PQQ     4 QGD@SS88GJJD     S8 GJDPP44GD@@     P4G@ DLL@@DPPSS     L JJ     J@D PSLHH99EE@@L             H9E@ LL--HHEE99@@<<     L HH     H-E 9@<QQ00EE@<             Q0E@ <GG22EEAA>>     G HH     H2E A>JJ55DDHHAEE     5D HAE22EA>>     2EA >88GG@@LLDDJJ     J@ MM>>     M8G> LDJL99HHEE             L9HE JJ22GGAA>>EE     JG HHEE     H2EA >GG44DD;;@@     GD HHEE     H4E; GD@EE--@<<99             - 9<@00CC@<     0@ C<--AA@@99<     -A @9<55AAEEHH CC AA CC AA CC @@ AAE5< HCC44<<H@@             C4< H@H00@CC<<     H CC     C0@ <LL<CCOOHH             L<C OHEE55AA<<H     E5 HAGG44@@CC     G4A< @CGG55C>>JJAA HH GG HH5 JACGG22AEE>> HH GG HH2 AE>GG77CCJJ HH GG HH EE E GG G7C> JHH44CC@@             H4C@ MM99HH<<EE     M HH     H9< MEQQ55E>>HHAA             Q5E> HAGG77CC>>JJ     G HH     H7C> GJHH@@CC<<TTLLOO JJ HH JJ@< TLOHH>>;;QQJJMM JJ HH JJ>; QMHH@@<<LLOOTT JJ HH JJ@< LOTGG<<99LHHO G HH H<C9 LOJJ;;CCGGO             J;C GOG77>>JJCC     G CC     C7G> JMM;;JCCOOGG             M;JC OGLL00HHCC<<@@             L0HC <@QQ55HHAAEE     Q5 HAEOO22>>EA     O2HA >EQQ;;JJAAGGMM     Q MM     M;JA GQOO44HH@@CC             O4H@ CHH55EE@@AALL             H5E@ ALGG77CC>>JJ             G7C> JHH00CC@@<<                                               H0C@<               @@<<7700CC             @<7 EEAA<<               EA0C<@C@             C@< FCC@@00F<<             0 FC@<EEAA<55HH             EA<5 HJJEEAA22>>             JEA2 >GGCC>77JJ             7 G>JCHH@@44C             HC@4 AA<<99MMEEHH             A<9 MEH>><<9955EHAAJJ @@ >> @@ >> @@ >> @@5 <9EHAJ>>;;77CCJGG @@ >> @@ >> @@ << >>;7 CJG<<774400@@C             <740 @C@<<77OOLLHH             @< 7EE@@99             9< E@OLHCC>>;;GGOJJ             C>; GOJHHBB<<99NNEE               HB<9NEGGCC>>77JJ             GC>7 JLLHH9966EEBB             LH96 EBJJGG;;77CC             JG;7 CC>>;;//             C>;/ BB>>9922EE             B>92 ECC>>;;++77                                             C>;+ 7@@<<700CC             @<7 EEAA<<               EA0C<@C@             C@< FFCC@@00<<             0 FC@<EEAA<55HH             EA<5 HJJEEAA22>>             JEA2 >GGCC>77JJ             7 G>JCHH@@44C             HC@4 AA<<99MMEEHH             A<9 MEH>><<9955JJEAAH @@ >> @@ >> @@ >> @@5 <9JEAH>>;;77JCCGG @@ >> @@ >> @@ << >>;7 JCG<<774400C@@             <740 C@@<<77HHOOLL             @< 7EE@@99             9< E@HOLCC>>;;OJJGG             C>; OJGHHBB<<99EENN               HB<9ENGGCC>>77JJ             GC>7 JLLHH9966BBEE             LH96 BEJJGG;;77CC             JG;7 CC>>;;//             C>;/ BB>>9922EE             B>92 ECC>>;;++77                                             C>;+ 7CC>>;;++7             C>; HH@@77               H@+>;7GG>             G>7 LLGG;;,,@@88             , LG;@8JJDD>>//;             JD> /;MMEE<<--99AA             ME<- 9ADDA;;22GG>>               DA;2G>EE@@<<00             E@<0 JJEE9955AA             JE95 AGGEEA22>> HH GG HH GG HH GG HH EA2>GGDD@@44 HH GG HH GG HH EE GGD@4 EE@@<<--99             E@<- 9<<9HHLLEE             < 9HLEAA<<HMME             A<9 HME@@:77FFLLCC             @:7 FLCEEAA<<55HH             E A<HCC::>>JJFFA             C:>5 JFAF<<CC44@@HH             F<C4 @HEE<<AA55H             E A5HCC7744H@@             C<74 H@AA<<9922H>>EE           A @@<92 H>EA>;;77++ @@ >> @@ >> @@ >> @@ ;+7>><<00CC @@ >> @@ >> @@ >> @@<0 >C>//C;; @@ >> @@ >> @@ << >>7/ C;@@<<7700C             @ 70<CEE4422HH>>AA             <42 EH>ACC<<::44@@FFH             C<:4 @FH::@77)55)               :@7599AA5             9 A)5<<             < BB>><<99EEHHJJNN             B9 <EHJNE66HBBJ             6 EHBJGG7722>>CC             G>72 C<<BB99++77               <B97;;CC7             ; C+7>>             > AA>>;;77GGJJMMCC             A>;7 GJMCGAA>>22             > GA2HHCC7744@@             HC74 @BB<<99--               B<9-CC>>77//;;             C >7/;MM             M LL<<7700CC@@             L<70 C@HHC@(44<<(77             HC@( 4<7GGCC>>++;;7             GC>+ ;7HHCC@@$7$4400                                             HC@$ 740CC>>;;++7             C>; HH@@77               H@+>;7GG>             G>7 LLGG;;,,88@@             , LG;8@JJDD>>//;             JD> /;MMEE<<--99AA             ME<- 9ADDA;;22>>GG               DA;2>GEE@@<<00             E@<0 JJEE9955AA             JE95 AGGEEA22>> HH GG HH GG HH GG HH EA2>GGDD@@44 HH GG HH GG HH EE GGD@4 EE@@<<--99             E@<- 9<<9HHEELL             < 9HELAA<<EMMH             A<9 EMH@@::77LLCCFF             @:7 LCFEEAA<<55HH             E A<HCC::>>AFFJJ             C:>5 AFJF<<CC44@@HH             F<C4 @HEE<<AA55H             E A5HCC7744@@H             C<74 @HAA<<9922>>HEE           A @@<92 >AHE>;;77++ @@ >> @@ >> @@ >> @@ ;+7>><<00CC @@ >> @@ >> @@ >> @@<0 >C>//;;C @@ >> @@ >> @@ << >>7/ ;C@@<<7700C             @ 70<CEE4422>>HHAA             <42 E>HACC<<::44@@HFF             C<:4 @HF::@77))55               :@7599AA5             9 A)5<<             < BB>><<99NNHHEEJJ             B9 <NHEJE66BBJH             6 EBJHGG7722>>CC             G>72 C<<BB99++77               <B97;;CC7             ; C+7>>             > AA>>;;77JJMMGGCC             A>;7 JMGCGAA>>22             > GA2HHCC7744@@             HC74 @BB<<99--               B<9-CC>>77//;;             C >7/;MM             M LL<<7700@@CC             L<70 @CHHC@((<<4477             HC@( <47GGCC>>++7;;             GC>+ 7;HHCC@@$$00744                                               HC@$074               HH<<CC@@OOLL             H<C@ OLL00HHCC<<@@     L HH     H0C <@OO44HHCC@             O4HC @QQ55HHAAEE             Q5HA EMM99E<<HH OO MM OO9 HEM55MAAEH OO MM OO5E< AH>>MMEEAQQJJ OO MM OOM LL L MM M>EA QJOO;;J>>GG             O;J> GLL<<HHCCOO     L HH     H<C LOMM55JJEEAA             M5JE AJJ77GGCC     J HH     H7G CJJ;;MMGG     J LL     L;JC MGM77GCCJJ     M JJ     J7GC LL<<HHCCOO             L<C HOO;;@@GGMMJJ     O LL     L;H@ GMJTT99LLEEHH           T OO9LE HNN22JJEE>>BB             N2JE >BLL66EEBJJ     6 LEBJJ22EB>>     J2EB >HH77CC>GGJJ       HGG     G7C> JLL00CC<<@@     C< EE;;     L0E; <C@EE22BB<>> GG EE GG< EE99 GG EE GG29 EB>&&E>992266 GG CC EEB CC>>     C&> 926CC++>>;;77     + ;7>22AA>EE     2 A>E77JJCCGG     7 JCG99EELLHH     9 ELH77JJGGCC     7 JGC55HHAAEE     C5>; HAEH44CC@@GG             H4C@ GLL00HHCC@@<<     L HH     H0C @<OO44HHCC@             O4HC @QQ55HHAAEE             Q5HA EMM99E<<HH OO MM OO9 MHE55MEAAH OO MM OO5E< AH>>MMEEAJJQQ OO MM OOM LL L MM M>EA JQOO;;J>>GG             O;J> GLL<<HHCCOO     L HH     H<C LOMM55JJEEAA             M5JE AJJ77GGCC     J HH     H7G CJJ;;GGMM     J LL     L;JC GMM77GCCJJ     M JJ     J7GC LL<<HHCCOO             L<C OHO;;@@MMJJGG     O LL     L;H@ MJGTT99LLEEHH           T OO9LE HNN22JJEE>>BB             N2JE >BLL66EEBJJ     6 LJEBJ22B>>E     J2EB >HH77CC>JJGG       HGG     G7C> JLL00CC<<@@     C< EE;;     L0E; <@CEE22BB<>> GG EE GG< EE99 GG EE GG29 EB>&&E>662299 GG CC EEB CC>>     C&> 629CC++>>;;77             + >;7//>AA;             / >A;22>AEE             C2>; AECC77>>;;JJGG             C7>; JGG22CC>>AAEE     G CC     C2> AEJJ//CC>>A;;             J/C> A;MM,,GG>>A88;             M,G> A8;JJ//GGDDA;>> LLHH JJGG LLHH/ A;>JJ,,GG;88> LLHH JJGG LLHH,D ;8>JJ44GGDD@@ LLHH JJGG LLHH HHEE HE JJGG J4G D@LL00HHEE@<<             L0HE @<HH55EEAA     H EE     E5H AQQ22GGA>>EE             Q2GA >EPP44GG@@DD       PQQ     4 QDG@SS88JJDG     S8 JDGPP44DG@@     P4G@ DLL@@DPPSS     L JJ     J@D PSLHH99EE@@L             H9E@ LL--HHEE99<<@@     L HH     H-E 9<@QQ00EE@<             Q0E@ <GG22EEAA>>     G HH     H2E A>JJ55DDAEEHH     5D AEH22E>>A     2EA >88GG@@DDJJLL     J@ MM>>     M8G> DJLL99HHEE             L9HE JJ22GGAAEE>>     JG HHEE     H2EA G>G44DD;;@@     GD HHEE     H4E; DG@EE--@<<99             - @9<00@<CC     0@ <C--AA@@99<     -A @9<55AAHHEE CC AA CC AA CC @@ AAE5< HCC44<<@@H             C4< @HH00@<<CC     H CC     C0@ <LL<CCOOHH             L<C OHEE55AA<<H     E5 HAGG44CC@@     G4A< C@GG55C>>JJAA HH GG HH5 JGACG22>>EEA HH GG HH2 >EAGG77JJCC HH GG HH EE E GG G7C> JHH44CC@@             H4C@ MM99HH<<EE     M HH     H9< EMQQ55E>>HHAA             Q5E> HAGG77CC>>JJ     G HH     H7C> GJHH@@CC<<OOLLTT JJ HH JJ@< OLTHH>>;;MMJJQQ JJ HH JJ>; MQHH@@<<TTOOLL JJ HH JJ@< TOLGG<<99LHHO G HH H<C9 LOJJ;;CCOGG             J;C OGG77>>JJCC     G CC     C7G> JMM;;JCCGGOO             M;JC GOLL00HHCC@@<<             L0HC @<QQ55HHAAEE     Q5 AEHOO22>>AE     O2HA >EQQ;;JJAAGGMM     Q MM     M;JA GQOO44HH@@CC             O4H@ CHH55EE@@AALL             H5E@ ALGG77CC>>JJ             G7C> JHH00CC@@<<     0 @<C//>>AA;;     / >A;00<<@@CC     0 <@C22>>EEAA     2 >EA44GG@@CC     4 G@C55HHEEAA     H5C@ EACC77>>;;GGJJ             C7>; GJG22CC>>AAEE     G CC     C2> AEJJ//CC>>;;A             J/C> ;AMM,,GG>>A88;             M,G> A8;JJ//GGDDA>>; LLHH JJGG LLHH/ A>;JJ,,GG;>88 LLHH JJGG LLHH,D ;>8JJ44GGDD@@ LLHH JJGG LLHH HHEE HE JJGG J4G D@LL00HHEE<<@             L0HE <@HH55EEAA     H EE     E5H AQQ22GGAEE>>             Q2GA E>PP44GG@@DD       PQQ     4 Q@GDSS88JJGD     S8 JGDPP44D@@G     P4G@ DLL@@DPPSS     L JJ     J@D PSLHH99EE@@L             H9E@ LL--HHEE@@<<99     L HH     H-E @<9QQ00EE@<             Q0E@ <GG22EEAA>>     G HH     H2E A>JJ55DDEEHHA     5D EHA22E>>A     2EA >88GG@@DDLLJJ     J@ MM>>     M8G> DLJL99HHEE             L9HE JJ22GGAA>>EE     JG HHEE     H2EA >GG44DD;;@@     GD HHEE     H4E; G@DEE--@<<99             - <9@00CC<@     0@ C<--AA@@99<     -A @9<55AAEEHH CC AA CC AA CC @@ AAE5< HCC44<<H@@             C4< H@H00@<<CC     H CC     C0@ <LL<CCOOHH             L<C OHEE55AA<<H     E5 AHGG44CC@@     G4A< C@GG55C>>AAJJ HH GG HH5 AGCJG22>>AEE HH GG HH2 >AEGG77JJCC HH GG HH EE E GG G7C> JHH44CC@@             H4C@ MM99HH<<EE     M HH     H9< EMQQ55E>>HHAA             Q5E> HAGG77CC>>JJ     G HH     H7C> GJHH@@CC<<OOTTLL JJ HH JJ@< OTLHH>>;;MMJJQQ JJ HH JJ>; MQHH@@<<LLOOTT JJ HH JJ@< LOTGG<<99HHLO G HH H<C9 LOJJ;;CCGGO             J;C GOG77>>JJCC     G CC     C7G> JMM;;JCCOOGG             M;JC OGLL00HHCC@@<<             L0HC @<QQ55HHAAEE     Q5 AHEOO22EA>>     O2HA E>QQ;;JJAAGGMM     Q MM     M;JA QGOO44HH@@CC             O4H@ CHH55EE@@LLAA             H5E@ LAGG77CC>>JJ             G7C> JHH00CC@@<<                                               H0C@< 