                HHC@       @A     HCA OOHH@@       H@G>     G> HH@@       H@JAA     OJA OO0LCC0<@@       LCJJAA     O0JA <C@OO<HH@LL       H@GG>>     G> HH@@     O H@QQMAA     QMA <HLORRLCC       LCJJ@@     RJ@ QQHHAA       HAF@@     F@ EAA       EACC     QC JJ00AAEE<<@@CC       AECC     J0C <@JJ<EEAAOOHHLL       EACC@@     C@ EEAA     J EALLGGCC     LGC <OHMMHEE       HEEAA     MEA GGAA>>       A>@@<<     @< AA>>     G A>HHCC@@     HC@ JJ00EEAA<<@@CC       EAA>>     J0A> <@CC<>>;HHOOLL       >;AA9     A9 CC;;     C ;OOEE<<     OE< HLMMGG>>       G>JJ;;     MJ; LLCC<<       C<MM;;     M; LL<<     L <MMJJ>>     MJ> OO00HH@@CC<<       H@GG>>     O0G> @C<HH<@OOLL       H@EEAA     EA CC@@     H C@JJAA>>     JA> <HOLL@@<     L @<MM>>     M> OO<<@@       <@CC>>     C> HH@@       H@JJAA     OJA OO00LLCC@@<<       LCJJAA     O0JA @C<OO<HH@LL       H@GGAA     GA HH@@     O H@TTJJ>>     TJ> <LHOQQL<       L<HH@@     QH@ NNEE>>       E>CCJJ     CJ EEHH     N EHOOGG     OG QQ00HHEE@@<<       HEECC     Q0EC @<JJ<BEEQQNNHH       BE@@CC     @C BBEE     J BELLCCGG     LCG <JQNHNEEH       EH>>E     N>E OOJJGG       JGHHEE     HE GGCC     O GCJJ;;EEBBGOO     J;EB GOLL<<CC@@HHO       C@GGC     L<GC HOEE>>BBJJNNQQ       EBCC     C BBEE     E BGG@@CC     G>@C JNQHH2>>BB2EE       >BEE@@     H2E@ B>GG7>7JJCC       G>CC@@     C@ BB>>       B>@@<<     G7@< JCC+>>;;+77       >;<<99     C+<9 7>;CC7>;GGJJ                             C>; 7GJHHCC@@       @AA     HCA OOHH@@       H@GG>>     G> HH@@       H@JJAA     OJA OO00LLCC<<@@       LCJJAA     O0JA <C@OO<HH@LL       H@GG>>     G> HH@@     O H@QQMMAA     QMA <LHORRLCC       LCJJ@@     RJ@ QQHHAA       HAFF@@     F@ EEAA       EACC     QC JJ00AAEECC<<@@       AECC     J0C <@JJ<EEAAHHOOLL       EACC@@     C@ EEAA     J EALLGGCC     LGC <HOMMHEE       HEEAA     MEA GGAA>>       A>@@<<     @< AA>>     G A>HHCC@@     HC@ JJ00EEAA<<CC@@       EAA>>     J0A> <C@C<>>;;HHLLOO       >;AA99     A9 CC;;     C ;OOEE<<     OE< HLMMGG>>       G>JJ;;     MJ; LLCC<<       C<MM;;     M; LL<<     L <MMJJ>>     MJ> OO00HH@@<<CC       H@GG>>     O0G> <@CHH<@OOLL       H@EEAA     EA CC@@     H C@JJAA>>     JA> <OLHL@@<     L @<MM>>     M> OO<<@@       <@CC>>     C> HH@@       H@JJAA     OJA OO00LLCC@@<<       LCJJAA     O0JA @<COO<HH@LL       H@GGAA     GA HH@@     O H@TTJJ>>     TJ> <LHOQQL<       L<HH@@     QH@ NNEE>>       E>CCJJ     CJ EEHH     N EHOOGG     OG QQ00HHEE<<@@       HEECC     Q0EC <@JJ<BBEEHHNNQQ       BE@@CC     @C BBEE     J BELLCCGG     LCG <HNQJNEEH       EH>>E     N>E OOJJGG       JGHHEE     HE GGCC     O GCJJ;;EEBBGOO     J;EB GOLL<<CC@@HHO       C@GGC     L<GC HOEE>>BBNNQQJJ       EBCC     C BBEE     E BGG@@CC     G>@C NQJHH22>>BBEE       >BEE@@     H2E@ >BGG77>JJCC       G>CC@@     C@ BB>>       B>@@<<     G7@< JCC++>>;;77       >;<<99     C+<9 7>;CC7>;JJGG                             C>; 7JGJCC;;       C;EE<<     JE< GG>>       G>EE<<     E< GG>>       G>HH@@     GH@ GG++JJAA>>77;;       JAHH@@     G+H@ >7;GG7>CCJJ       G>EE<<     E< GG>>     G >EEHH@@     EH@ 7CGJCJAA       JAHH@@     CH@ MMGG>>       G>EE<<     E< GG>>     M G>LLHH@@     LH@ JJ,AA,;;>>8       JAHH@@     J,H@ ;>A8SS8GG>JJDMM       G>EE<<     E< GG>>     S G>JJHH@@     JH@ 8DMGMG>>       G>EE<<     ME< LLDD;;       D;@@88     @8 BB99     L B9JJDD;;     JD; HH(EE<<(499       E<BB>>     H(B> <49GG4DD@@       D@BB>>     B> DD@@     G D@LLEEBB     LEB 4D@GJJGD       GDD@@     JD@ HHEE99       E9AAE     AE @@CC       @C>>AA     H>A EE-<<@@-99       <@;;>>     E-;> 9<@EE9<@LLHH       <@;;>>     ;> <<@@     E <@GG>>AA     G>A 9ELHH@@CC     H @CJJAAEE     JAE LLCCFF       CFAAHH     AH CCFF       CFEE     LE LL++FFCC:77@@       FCEE     L+E :7@LL7CCFF       CFAAEE     AE CCFF     L CFRREEHH     REH 7FCLOOFJJ       FJEEHH     OEH LLCCFF       CFAAHH     AH CCFF     L CFOOEE     OE LL++FFCC@@77::       FCCAA     L+CA @7:II7EE@CCLL       E@CC>>     C> EE=     I E=LLGG;;     LG; 7ICEI99       I9EE@@     IE@ EEJJAA       JAEE==     E= GG>>     E G>QQ5II@@5JJAAEE     Q5I@ JAEMM22JA>>E       JAEECC     M2EC A>JJ99AEEMM       AE@@FF     @F AAEE     J AELLCC     L9C MEJII--EAA99==@@       EACC@@     I-C@ 9=JJ22AA>>EE       A>@@==     @= AA>>       A>CC@@     J2C@ >AEJJ&EA&225599       EACC@@     J&C@ 259JJ2AA>>EE       A>@@==     @= AA>>       A>CC@@     JC@ 2AE>MME>       E>><<     M>< MMCC;;       C;EE99     E9 GG77       G7>>HH99MMQQJJ     >H9 MQJ<<J;;QMHH       J;LL<<     <L QMJH;;M>>GGJ       M>LL@@     L@ JJAA     M; JAGJ<<HH@@OOLL     J<H@ OLL99GG>>HHEE       G>EE<<     L9E< HMM77GG>>JJCC       G>HH@@     H@ JJAA     7 JAGC99HH@@LLEE     M9H@ LECC55GG>>AAJJ       G>EE<<     C5E< AJGCC44>>@@HH       C>AAEE     AE @@CC     C4 @HFF55>>AAEEH     F5>A EHE22@@>>AA       @AA>>     E2A> FF00CC@@<<       C@EEAA     EA CC@@     0 C@F<22AA>>CF@     2A> CF@.@<<.AA>>::       @<>>     .> A:--<<@@A99       <@>>AA     >A @@CC     F- @C<A9JJ..A::>>     J.A :>HH++CC@@<<77       @CC     H+C <@7EE)CC<)9955                     E) <95HH44CC@@     H4C< @GG22AA>>             G2> AHH4477CC@@                     H4 C@LL77JJCGG     L7 JCGJ6EE>>6BB             J6E> BGG77EE>>JJCC                     G7 JCJ55AAGG     J5E> AGHH44CC@@             H4@ CJJ6699BBEE                     J6 BEMM99LLHHE     M9 LHEL88GG@@DD             L8G@ DHH99GG@@LLEE                     HG@ MMEE<<     M9E< HLQQ55HAAEE             5H AE/JJ/>>A;;E                     QJA OOGG>>     O/G> A;EMM77JJ;GGCC             M7J; GCLL00HH77C@@<<       H7EEH     EH CCGG     L0 CG@<MM22AAEE>>     M2AE >OO44@@CCGG     4 @CG55>>AAEEHH     O5>A EHCC77<<@@HLL       <@LL>>     L> JJ@@     C J@EEHHAA     E7HA LCGG++C;;77>>       GCEEAA     G+EA ;7>HH00CC@@<<       C@EE<<     E< CC;;       C;AA99     H0A9 @C<HH$@77$0044       @7>>55     H$>5 074HH0@@7<<CC                             H0@7 <CJJC;;       C;EE<<     JE< GG>>       G>EE<<     E< GG>>       G>HH@@     GH@ GG++JJAA;;77>>       JAHH@@     G+H@ ;7>GG7>CCJJ       G>EE<<     E< GG>>     G >EEHH@@     EH@ 7CGJCJAA       JAHH@@     CH@ MMGG>>       G>EE<<     E< GG>>     M G>LLHH@@     LH@ JJ,,AA>>;;88       JAHH@@     J,H@ >A;8SS8GG>DDMMJJ       G>EE<<     E< GG>>     S G>JJHH@@     JH@ 8DMGMG>>       G>EE<<     ME< LLDD;;       D;@@88     @8 BB99     L B9JJDD;;     JD; HH((EE<<9944       E<BB>>     H(B> 94<GG4DD@@       D@BB>>     B> DD@@     G D@LLEEBB     LEB 4GD@JJGD       GDD@@     JD@ HHEE99       E9AAE     AE @@CC       @C>>AA     H>A EE--<<@@99       <@;;>>     E-;> <@9EE9<@LLHH       <@;;>>     ;> <<@@     E <@GG>>AA     G>A 9ELHH@@CC     H @CJJAAEE     JAE LLCCFF       CFAAHH     AH CCFF       CFEE     LE LL++FFCC@@77::       FCEE     L+E @7:LL7CCFF       CFAAEE     AE CCFF     L CFRREEHH     REH 7FLCOOFJJ       FJEEHH     OEH LLCCFF       CFAAHH     AH CCFF     L CFOOEE     OE LL++FFCC::@@77       FCCAA     L+CA :@7II7EE@LLCC       E@CC>>     C> EE==     I E=LLGG;;     LG; 7EICI99       I9EE@@     IE@ EEJJAA       JAEE==     E= GG>>     E G>QQ55II@@JJEEAA     Q5I@ JEAMM22JAE>>       JAEECC     M2EC A>JJ99AEEMM       AE@@FF     @F AAEE     J AELLCC     L9C JMEII--EAA==@@99       EACC@@     I-C@ =9JJ22AA>>EE       A>@@==     @= AA>>       A>CC@@     J2C@ >AEJJ&&EA229955       EACC@@     J&C@ 295JJ2AA>>EE       A>@@==     @= AA>>       A>CC@@     JC@ 2E>AMME>       E>><<     M>< MMCC;;       C;EE99     E9 GG77       G7>>HH99MMQQJJ     >H9 MQJ<<J;;QHHM       J;LL<<     <L JQHM;;M>>GGJ       M>LL@@     L@ JJAA     M; JAGJ<<HH@@LLOO     J<H@ LOL99GG>>EEHH       G>EE<<     L9E< HMM77GG>>CCJJ       G>HH@@     H@ JJAA     7 JACG99HH@@LLEE     M9H@ LECC55GG>>JJAA       G>EE<<     C5E< JAGCC44>>@@HH       C>AAEE     AE @@CC     C4 @HFF55>>AAEEH     F5>A EHE22@@AA>>       @AA>>     E2A> FF00CC@@<<       C@EEAA     EA CC@@     0 C@<F22AA>>FC@     2A> FC@..@<<>>AA::       @<>>     .> A:--<<@@99A       <@>>AA     >A @@CC     F- @C9A<JJ..A::>>     J.A :>HH++CC@@<<77       @CC     H+C <7@EE))CC<9955                     E) <95HH44@@CC     H4C< @GG22AA>>             G2> AHH4477CC@@                     H4 C@LL77CJJGG     L7 CJGJ66EE>>BB             J6E> BGG77EE>>JJCC                     G7 JCJ55GGAA     J5E> GAHH44CC@@             H4@ CJJ6699EEBB                     J6 EBMM99LLHHE     M9 LHEL88GG@@DD             L8G@ DHH99GG@@LLEE                     HG@ MMEE<<     M9E< LHQQ55HAAEE             5H AE//JJE>>;;A                     QJA OOGG>>     O/G> E;AMM77JJ;CCGG             M7J; CGLL00HH77<<C@@       H7EEH     EH CCGG     L0 CG<@MM22AAEE>>     M2AE >OO44@@CCGG     4 @CG55>>AAHHEE     O5>A HECC77<<@@HLL       <@LL>>     L> JJ@@     C J@EEHHAA     E7HA CLGG++C>>77;;       GCEEAA     G+EA >7;HH00CC@@<<       C@EE<<     E< CC;;       C;AA99     H0A9 <@CHH$$@774400       @7>>55     H$>5 740HH0@@7<<CC                               H0@7<C 