                                                HH@<<C       <C@ H     CLLH00   L CH H0   H   OOC4H4     HC4 O       QAQH55       AH5Q       <9OEO9     9E<5 MM5O OOM MM 5O >OO>AEMM OO OMM MO EALL>M MM L   O;O>MJ;     J >; O     LCL<H<     LH HC<   H M M55EJ     JE 5M       JJ77CG     J HHG7     H JJ;;     L JL;C     L MM77GC     GM 7JJC     J <L<LHC       <C L     O;O;@     O@ LLH;   L   TT9LE9     LTE9         OJO22E   NN OJ E2   N   E6L6BL     6E2B2J JJ L 2 J H77CH>     C>G7G H     G LC0<0L   C <0; EL E ; C< 2GG2   < EEB9CG 2BCGG E BEECG9 CGBGE> EB&C&G     >CC EB&>   >C   +;+C>C     +2 2   2   77     79 9   9 7 7   ;7C >5 5   5 4 @HCH4     4 C@   H   LCHL00     LHC H0     H COO44H     C 4HO       QA5Q5H       AH5Q       <E9O9O     9 ME5M<5O OOM   MMO5 O>OAME> MO OOM MMEO >ALL MM M LO >;JOOM;       J;>   O   L<LC<H     L<H CHH     H M5MEJ5     E5J M       JJ7C7G     J HHG7     H JJ;;       LLJ;C     L MM77CG     MG 7JJC   J   <<LHCL       <C L     ;;OO@     O@L L;H     L T9T9LE     9 LET       2JOO2E   NN NN O2 EJ   N 6EB6LL LL   6EJJ2 B2JJ L 2 JCH 7H>7H     GC7G >H     G<CL 00LL   C< 0;E L E ; <CGG 22   <E 9EBCG2 GCBGE E BEGC9GC BEG>E EB&&CG     >&CEC B>   >C   C>+;C+       +       //     /       2 2 ; C> 2         >;C7C7     7 ;> C   2 2CG>G   G C2>C     C J /J/C>     />JC         M>,GM,     > GM,     L/ LHD/   / GJJH, ,LDGH LLJG HJJ,L HLL4HJ 4GGHJLJ LLGGJ HJJ EHL 4GHJ GJJE H LGH 0LLEJ0     E0 L H   HH5 E5     EEH 5   E GQ 2QA2   G 2AQ       4 P4PG@     QQ 4 P   SS 88Q   S8 44PP G@ P   4@LDL @   LD @J J   J   E99@HH     @E9 H       HL-EL-   L EHH-     H Q 00Q@EQ     E@Q0       GG 2A2E     GH2H     HE 5J5 JD   5D 22E   A2 E 8G8 @   J 8@G>MM   > M H99 LEL     E9     HL 2 JJ2GA   G A2HHEJ     HE GG4 D;4   D 4E;HHG   E H @- EE<--       -     0 0   0@ - A--   A -C5 5 AC CA <CA 5CE C@ A A< 4C@4C CCA   <4         H0@H0   H @CC 0   C   LL<<C     < LC       EEA<55   5 E<A44G G   4G 55HH >C   5 GG22H HHG GG 2H HHG77 GGH HG G HEE7G C> GG E HGH4 @C4     4@C H     9 <MMH9   M <9HH     H 55Q QE>     >5Q E     GG> 77C     GCHH 7   >H JJ@@ <C   <@HH >>J; JHJ HH J;>J JH@@H< HJJ JHH HJ <@<GG9 CHH < HH9G J;J; HC       ;CJ     GG7 >7     C>GC 7   C M;M;C J     C;J M     00 LLHC       CH0 L   5 5AQHQ   5 2H2AO QO   2 O; ;QQJA     J;MAQ M   M O H4O4@     OH@ 4       HE5H@5     EH@ 5       G7C>G7     >CG 7       @0HC0H     0/ /   /   00   0 2 2   2 44     4C H@55   5   7C C7>;       >7;C     2 2GCG>     G>C C2   C   JJC>//     JC >/       >,MM,G       >GM,     / LD/LH     /JG,J,DH LLG HLJL JGHJ, LLHG44 JJGH JJLLH JGGJH JJL4EH GHHJ GJJE H GH LE00LJ     E0   HL   E HH55     EHE 5   E 2 GAQ2Q     GA2 Q       PG44@P     Q Q P4   S S88Q   S8 P44 PG@   P4   @L@DL   L DJ @JJ   J E 9@H9H     E@ 9 H   H -ELL-     HEHL -     H0 E0Q@Q     E@Q0       E 2GG2A     G HH 2 HE 5 JD5J   D5 2E2     E2A G 8@8   J@ M>M8 G   >M   9L9HEL     E 9   HL J JG2A2   G AHJHE2     EH GDG 44;   D EHG;4H   E H - EE@-<           - 0 0   @0 - -A   -A 5C5   AC CA <A E5C @A A @<C C44A     < 4       @00HH   H @CC 0     C <<LLC       CL<       E<55EA     54A<E4G G   4G H55 HC>   5 GG22H HHG GG H2H HG7G7 GGHH GHHG GG HEEC 7GEEG G>G E HCGH @44     C @H4     H< MM99   M HH< 9   H 5Q E>5QQ       EQ>5     GG >77C     GCHH >7   H JJ@@ <C   HH<@ J>>; JJH HHJ >JJ;H H@@<HJ JJH HH   J<G9<G@ CHH HH 9<G J;;HJC         C;J     G>7 G7     >GCC7     C M;C MJ;;     JC M;       0LCLH /00 / C LH 0   5 5AHQQ   5 22AOHO Q   2 O;Q QJ;A     JQMAM ;   M OH 4O@4     HO @4       EH5@H5     EH@ 5       GGC>77     C>G 7       0C@H0H                                   @ C0   H   < @70   7 @<       < AE             @EC A0 <   C@       FC@ 0             A5 EF<C@0   5 <EA       2EAJ     A2J E       CG>7               47> @HG   @ 4CH       A< 9A     <9 A     @9 5<   > @ @> @> @> ;77 @5>9@<> > @7 ;     > <74 0   47 0 <     < 7<@   7 @         @E9       <     >9;@C E;     C;>       <BH 9             7>9C<G BH   7> GC       6H9L     69 H L     G;J 7   G ;7J       C;/ >     /;>C       9B >2     29>B         C>;+                                 C+ ; >         <@70   7 @ <       A<E             CE @A0     C< @     CF @0             EA 5@F<C0     5A< E     AE 2J   EA 2J         >G7C             @G 7>4H     C4@H       A A9<   9 < A     @9 5<   >@   >@ @> >@ ;7 9>57<@     7;     > 7< 40     740<         <7@<     7@         E9@         <   9C@; ;E>     ;C>       <BH 9             HG7><C9 B   7 >GC       6HL9       LH69       ; 7JG     GJ;7       C;/ >     C;>/       >9B 2     B9>2         >C;+                               C   ;+ >       > +C;     >;C         H@7             @>G H+     G> 7       GL;,             ,/D G;J>L   / >JD       <M E-   < M-E         DA2;             DE2@ A0;<     @E< 0       95EJ     E59 J     H E2A     HG   HG HG HGD2A E4@G H   4@D     G E -@<   @ <E-       < 99<               A<<         9   A@ 7@<:     @: 7     AE <5             CEA: ><   > C:     5 <C F4   <C F 4       5A<E             5EC7 4A     C74 <     A9 2<     9A2<       @ ;7+       >@ >@   >@ +0@<; @   <0         />>     / 7>       <70@     @70       E 25     <       CE<54 :2   C <4:         :@)7             9: @9A7       9 A   )<     <         < B>9       <B 9     66E             EG7 26   G 72 >     9<B +             <;; 9CB       C ;   > +     >         7A>;     ;A>7         2G>A             HG2 >C74A     H4C 7     B <-9             CB 97/>- < C   7>/       M   M         L <70   L 07 <       H@(C   @ HC(       G +C>   + C>G         @HC$                               H$   @C         C> ;+     ;C>         7@H             HG@>   + G7 >       G;L ,             >J;D /,LG   >/ JD       E<M -     M<-E       D A;2             DE <@0A;2   E <0@       E9 5J     5E9 J       EH2A     GH H G HG HG42 AD@GE H   4 D@   G E -@<   @ E-<       9<< 99               <<A         9   @A @7<:     7 @:     EA <5           A C:E>   < > :C   5   <4FC     < CF4         E5<A             C4E A75   C 4<7       A2< 9   2 9<A       +@ ;7       >@ @>   >0 +< @;   <0       / >>     /7 >     @ 07<     @7 0       2E5   <         C24E 5< : C4 < :     :)7 @             99 :7A@       9A   ) <     <         B <9>     < B9     6 6E             G7 62E     G27 >     9<B +             ;9C ;;B<       C;     + >     >       7> ;A     >7A;       A> G2             C24H7> AG     4HC7       B<9 -             C> B7/9<-     C> 7/       M     M         L<07     L07<       H (C@   H @(C       G> +C   > +GC       @ $HC                               H C $ @         HH@<<C       <C@ H     CLLH00   L CH H0   H   OOC4H4     HC4 O       QAQH55       AH5Q       <9OEO9     9E<5 MM5O OOM MM 5O >OO>AEMM OO OMM MO EALL>M MM L   O;O>MJ;     J >; O     LCL<H<     LH HC<   H M M55EJ     JE 5M       JJ77CG     J HHG7     H JJ;;     L JL;C     L MM77GC     GM 7JJC     J <L<LHC       <C L     O;O;@     O@ LLH;   L   TT9LE9     LTE9         OJO22E   NN OJ E2   N   E6L6BL     6E2B2J JJ L 2 J H77CH>     C>G7G H     G LC0<0L   C <0; EL E ; C< 2GG2   < EEB9CG 2BCGG E BEECG9 CGBGE> EB&C&G     >CC EB&>   >C   +;+C>C     +2 2   2   77     79 9   9 7 7   ;7C >5 5   5 4 @HCH4     4 C@   H   LCHL00     LHC H0     H COO44H     C 4HO       QA5Q5H       AH5Q       <E9O9O     9 ME5M<5O OOM   MMO5 O>OAME> MO OOM MMEO >ALL MM M LO >;JOOM;       J;>   O   L<LC<H     L<H CHH     H M5MEJ5     E5J M       JJ7C7G     J HHG7     H JJ;;       LLJ;C     L MM77CG     MG 7JJC   J   <<LHCL       <C L     ;;OO@     O@L L;H     L T9T9LE     9 LET       2JOO2E   NN NN O2 EJ   N 6EB6LL LL   6EJJ2 B2JJ L 2 JCH 7H>7H     GC7G >H     G<CL 00LL   C< 0;E L E ; <CGG 22   <E 9EBCG2 GCBGE E BEGC9GC BEG>E EB&&CG     >&CEC B>   >C   C>+;C+       +       //     /       2 2 ; C> 2         >;C7C7     7 ;> C   2 2CG>G   G C2>C     C J /J/C>     />JC         M>,GM,     > GM,     L/ LHD/   / GJJH, ,LDGH LLJG HJJ,L HLL4HJ 4GGHJLJ LLGGJ HJJ EHL 4GHJ GJJE H LGH 0LLEJ0     E0 L H   HH5 E5     EEH 5   E GQ 2QA2   G 2AQ       4 P4PG@     QQ 4 P   SS 88Q   S8 44PP G@ P   4@LDL @   LD @J J   J   E99@HH     @E9 H       HL-EL-   L EHH-     H Q 00Q@EQ     E@Q0       GG 2A2E     GH2H     HE 5J5 JD   5D 22E   A2 E 8G8 @   J 8@G>MM   > M H99 LEL     E9     HL 2 JJ2GA   G A2HHEJ     HE GG4 D;4   D 4E;HHG   E H @- EE<--       -     0 0   0@ - A--   A -C5 5 AC CA <CA 5CE C@ A A< 4C@4C CCA   <4         H0@H0   H @CC 0   C   LL<<C     < LC       EEA<55   5 E<A44G G   4G 55HH >C   5 GG22H HHG GG 2H HHG77 GGH HG G HEE7G C> GG E HGH4 @C4     4@C H     9 <MMH9   M <9HH     H 55Q QE>     >5Q E     GG> 77C     GCHH 7   >H JJ@@ <C   <@HH >>J; JHJ HH J;>J JH@@H< HJJ JHH HJ <@<GG9 CHH < HH9G J;J; HC       ;CJ     GG7 >7     C>GC 7   C M;M;C J     C;J M     00 LLHC       CH0 L   5 5AQHQ   5 2H2AO QO   2 O; ;QQJA     J;MAQ M   M O H4O4@     OH@ 4       HE5H@5     EH@ 5       G7C>G7     >CG 7       @0HC0H     0/ /   /   00   0 2 2   2 44     4C H@55   5   7C C7>;       >7;C     2 2GCG>     G>C C2   C   JJC>//     JC >/       >,MM,G       >GM,     / LD/LH     /JG,J,DH LLG HLJL JGHJ, LLHG44 JJGH JJLLH JGGJH JJL4EH GHHJ GJJE H GH LE00LJ     E0   HL   E HH55     EHE 5   E 2 GAQ2Q     GA2 Q       PG44@P     Q Q P4   S S88Q   S8 P44 PG@   P4   @L@DL   L DJ @JJ   J E 9@H9H     E@ 9 H   H -ELL-     HEHL -     H0 E0Q@Q     E@Q0       E 2GG2A     G HH 2 HE 5 JD5J   D5 2E2     E2A G 8@8   J@ M>M8 G   >M   9L9HEL     E 9   HL J JG2A2   G AHJHE2     EH GDG 44;   D EHG;4H   E H - EE@-<           - 0 0   @0 - -A   -A 5C5   AC CA <A E5C @A A @<C C44A     < 4       @00HH   H @CC 0     C <<LLC       CL<       E<55EA     54A<E4G G   4G H55 HC>   5 GG22H HHG GG H2H HG7G7 GGHH GHHG GG HEEC 7GEEG G>G E HCGH @44     C @H4     H< MM99   M HH< 9   H 5Q E>5QQ       EQ>5     GG >77C     GCHH >7   H JJ@@ <C   HH<@ J>>; JJH HHJ >JJ;H H@@<HJ JJH HH   J<G9<G@ CHH HH 9<G J;;HJC         C;J     G>7 G7     >GCC7     C M;C MJ;;     JC M;       0LCLH /00 / C LH 0   5 5AHQQ   5 22AOHO Q   2 O;Q QJ;A     JQMAM ;   M OH 4O@4     HO @4       EH5@H5     EH@ 5       GGC>77     C>G 7       0C@H0H                                   @ C0   H 